
        <svg xmlns="http://www.w3.org/2000/svg" viewBox="0 0 100 100">
            <path d="M3.1617 20.742H17.5917C19.6617 20.742 20.7417 19.642 20.7417 17.592V3.152C20.7417 1.102 19.6617 0.002 17.5917 0.002H3.1617C1.0917 0.002 0.0017 1.082 0.0017 3.152V17.592C0.0017 19.662 1.0917 20.742 3.1617 20.742ZM3.1917 19.872C1.6617 19.872 0.8717 19.082 0.8717 17.552V3.202C0.8717 1.662 1.6617 0.872 3.1917 0.872H17.5517C19.0317 0.872 19.8717 1.662 19.8717 3.202V17.552C19.8717 19.082 19.0317 19.872 17.5517 19.872ZM10.3817 15.742C12.5817 15.742 14.1017 13.572 14.1017 10.372C14.1017 7.172 12.5817 5.002 10.3817 5.002C8.1717 5.002 6.6517 7.172 6.6517 10.372C6.6517 13.572 8.1717 15.742 10.3817 15.742ZM10.3817 14.952C8.6917 14.952 7.5317 13.092 7.5317 10.372C7.5317 7.652 8.6917 5.792 10.3817 5.792C12.0717 5.792 13.2217 7.652 13.2217 10.372C13.2217 13.092 12.0717 14.952 10.3817 14.952Z" />
        </svg>
    