
        <svg xmlns="http://www.w3.org/2000/svg" viewBox="0 0 100 100">
            <path d="M12.6023 25.1986C19.5623 25.1986 25.2023 19.5586 25.2023 12.5986C25.2023 5.6386 19.5623 -0.0014 12.6023 -0.0014C5.6323 -0.0014 0.0023 5.6386 0.0023 12.5986C0.0023 19.5586 5.6323 25.1986 12.6023 25.1986ZM12.6023 21.5386C7.6523 21.5386 3.6523 17.5386 3.6523 12.5986C3.6523 7.6486 7.6523 3.6586 12.6023 3.6586C17.5423 3.6586 21.5423 7.6486 21.5423 12.5986C21.5423 17.5386 17.5423 21.5386 12.6023 21.5386ZM9.0423 17.2886C11.3323 17.2886 12.0223 14.8286 12.0223 12.5986C12.0223 10.3586 11.3323 7.9086 9.0423 7.9086C6.7623 7.9086 6.0723 10.3586 6.0723 12.5986C6.0723 14.8286 6.7623 17.2886 9.0423 17.2886ZM16.1523 17.2886C18.4323 17.2886 19.1223 14.8286 19.1223 12.5986C19.1223 10.3586 18.4323 7.9086 16.1523 7.9086C13.8623 7.9086 13.1723 10.3586 13.1723 12.5986C13.1723 14.8286 13.8623 17.2886 16.1523 17.2886ZM9.0423 15.5986C8.4523 15.5986 8.2123 14.4586 8.2123 12.5986C8.2123 10.7386 8.4523 9.5986 9.0423 9.5986C9.6423 9.5986 9.8823 10.7386 9.8823 12.5986C9.8823 14.4586 9.6423 15.5986 9.0423 15.5986ZM16.1523 15.5986C15.5523 15.5986 15.3123 14.4586 15.3123 12.5986C15.3123 10.7386 15.5523 9.5986 16.1523 9.5986C16.7423 9.5986 16.9823 10.7386 16.9823 12.5986C16.9823 14.4586 16.7423 15.5986 16.1523 15.5986Z" />
        </svg>
    