
        <svg xmlns="http://www.w3.org/2000/svg" viewBox="0 0 100 100">
            <path d="M3.0117 20.5048H17.4917C19.4517 20.5048 20.5117 19.4248 20.5117 17.4948V3.0148C20.5117 1.0748 19.4517 0.0048 17.4917 0.0048H3.0117C1.0417 0.0048 0.0017 1.0448 0.0017 3.0148V17.4948C0.0017 19.4648 1.0417 20.5048 3.0117 20.5048ZM3.0317 19.9348C1.4217 19.9348 0.5717 19.0948 0.5717 17.4648V3.0348C0.5717 1.4148 1.4217 0.5748 3.0317 0.5748H17.4617C19.0317 0.5748 19.9317 1.4148 19.9317 3.0348V17.4648C19.9317 19.0948 19.0317 19.9348 17.4617 19.9348ZM6.9617 15.1748C9.0817 15.1748 9.5417 12.2448 9.5417 10.2548C9.5417 8.2548 9.0817 5.3348 6.9617 5.3348C4.8417 5.3348 4.3817 8.2548 4.3817 10.2548C4.3817 12.2448 4.8417 15.1748 6.9617 15.1748ZM13.5617 15.1748C15.6817 15.1748 16.1417 12.2448 16.1417 10.2548C16.1417 8.2548 15.6817 5.3348 13.5617 5.3348C11.4417 5.3348 10.9817 8.2548 10.9817 10.2548C10.9817 12.2448 11.4417 15.1748 13.5617 15.1748ZM6.9617 14.5548C5.3317 14.5548 5.0617 11.8948 5.0617 10.2548C5.0617 8.6148 5.3317 5.9448 6.9617 5.9448C8.5917 5.9448 8.8617 8.6148 8.8617 10.2548C8.8617 11.8948 8.5917 14.5548 6.9617 14.5548ZM13.5617 14.5548C11.9317 14.5548 11.6617 11.8948 11.6617 10.2548C11.6617 8.6148 11.9317 5.9448 13.5617 5.9448C15.1917 5.9448 15.4617 8.6148 15.4617 10.2548C15.4617 11.8948 15.1917 14.5548 13.5617 14.5548Z" />
        </svg>
    