
        <svg xmlns="http://www.w3.org/2000/svg" viewBox="0 0 100 100">
            <path d="M12.1023 24.2064C18.7823 24.2064 24.2123 18.7864 24.2123 12.1064C24.2123 5.4264 18.7823 -0.0036 12.1023 -0.0036C5.4223 -0.0036 0.0023 5.4264 0.0023 12.1064C0.0023 18.7864 5.4223 24.2064 12.1023 24.2064ZM8.4823 17.2064C6.0623 17.2064 5.3323 14.5264 5.3323 12.1064C5.3323 9.6764 6.0623 7.0064 8.4823 7.0064C10.8823 7.0064 11.6123 9.6764 11.6123 12.1064C11.6123 14.5264 10.8823 17.2064 8.4823 17.2064ZM13.7323 16.9664C13.1523 16.9664 12.8523 16.6564 12.8523 16.2064C12.8523 15.8164 13.0623 15.5164 13.3523 15.1764L15.3323 12.6364C15.9823 11.7964 16.6423 10.8564 16.6423 9.9064C16.6423 9.1064 16.2823 8.4864 15.6023 8.4864C14.9523 8.4864 14.6823 8.9764 14.4723 9.7164C14.3323 10.1464 14.0623 10.3364 13.6523 10.3364C13.1523 10.3364 12.8623 9.9964 12.8623 9.5164C12.8623 8.2464 14.0623 7.0064 15.6123 7.0064C17.2723 7.0064 18.4123 8.1564 18.4123 9.8164C18.4123 10.9364 17.9523 11.8264 16.8023 13.2564L15.1323 15.3564V15.4464H17.8723C18.3323 15.4464 18.6023 15.7464 18.6023 16.2064C18.6023 16.6364 18.3323 16.9664 17.8723 16.9664ZM8.4823 15.6764C9.3723 15.6764 9.7223 14.1764 9.7223 12.1064C9.7223 10.0264 9.3723 8.5264 8.4823 8.5264C7.5823 8.5264 7.2323 10.0264 7.2323 12.1064C7.2323 14.1764 7.5823 15.6764 8.4823 15.6764Z" />
        </svg>
    