
        <svg xmlns="http://www.w3.org/2000/svg" viewBox="0 0 100 100">
            <path d="M11.3523 22.715C17.6023 22.715 22.7123 17.605 22.7123 11.355C22.7123 5.105 17.6023 -0.005 11.3523 -0.005C5.1123 -0.005 0.0023 5.105 0.0023 11.355C0.0023 17.605 5.1123 22.715 11.3523 22.715ZM7.8123 16.265C5.6923 16.265 5.2423 13.345 5.2423 11.355C5.2423 9.355 5.6923 6.435 7.8123 6.435C9.9423 6.435 10.3923 9.355 10.3923 11.355C10.3923 13.345 9.9423 16.265 7.8123 16.265ZM14.3523 16.245C13.1523 16.245 12.2923 15.515 11.9923 14.505C11.9323 14.325 11.8823 14.055 11.8823 13.915C11.8823 13.725 12.0023 13.585 12.1623 13.585C12.3823 13.585 12.4523 13.695 12.4923 13.925C12.6123 14.755 13.2423 15.625 14.3623 15.625C15.5823 15.625 16.1623 14.615 16.1623 13.525C16.1623 12.155 15.4123 11.465 14.1523 11.465H13.6023C13.4423 11.465 13.3223 11.335 13.3223 11.165C13.3223 11.025 13.3923 10.875 13.6023 10.875H14.1423C15.2223 10.875 15.9123 10.015 15.9123 8.945C15.9123 7.915 15.3423 7.065 14.3123 7.065C13.3123 7.065 12.7823 7.855 12.6423 8.735C12.6023 8.955 12.5523 9.085 12.3423 9.085C12.1423 9.085 12.0423 8.955 12.0423 8.765C12.0423 8.645 12.0623 8.435 12.1323 8.175C12.4423 7.145 13.1623 6.465 14.3123 6.465C15.6823 6.465 16.5623 7.465 16.5623 8.875C16.5623 9.865 16.0623 10.865 15.0023 11.125V11.155C16.2223 11.265 16.8323 12.255 16.8323 13.485C16.8323 15.165 15.7823 16.245 14.3523 16.245ZM7.8123 15.655C9.4423 15.655 9.7123 12.985 9.7123 11.355C9.7123 9.715 9.4423 7.045 7.8123 7.045C6.1923 7.045 5.9223 9.715 5.9223 11.355C5.9223 12.985 6.1923 15.655 7.8123 15.655Z" />
        </svg>
    