
        <svg xmlns="http://www.w3.org/2000/svg" viewBox="0 0 100 100">
            <path d="M4.5917 23.2359H18.6417C21.5417 23.2359 23.2417 21.5459 23.2417 18.6459V4.5959C23.2417 1.6959 21.5417 -0.0041 18.6417 -0.0041H4.5917C1.7017 -0.0041 0.0017 1.6959 0.0017 4.5959V18.6459C0.0017 21.5459 1.7017 23.2359 4.5917 23.2359ZM8.1717 16.5859C5.7317 16.5859 4.9817 13.9959 4.9817 11.6259C4.9817 9.2559 5.7317 6.6659 8.1717 6.6659C10.6217 6.6659 11.3717 9.2559 11.3717 11.6259C11.3717 13.9959 10.6217 16.5859 8.1717 16.5859ZM15.4617 16.5659C14.1117 16.5659 12.9017 16.0059 12.5517 14.9259C12.4817 14.7259 12.4417 14.4959 12.4417 14.2459C12.4417 13.6059 12.8717 13.2059 13.5217 13.2059C14.0717 13.2059 14.4217 13.4759 14.6117 14.0159C14.7617 14.4059 15.0017 14.7059 15.4317 14.7059C16.0417 14.7059 16.2517 14.1059 16.2517 13.5959C16.2517 12.8359 15.9417 12.4259 15.1617 12.4259H15.0817C14.4417 12.4259 14.1717 12.0959 14.1717 11.5859C14.1717 11.0859 14.4517 10.7659 15.0817 10.7659H15.1517C15.8417 10.7659 16.0517 10.1559 16.0517 9.5859C16.0517 9.0859 15.9017 8.5559 15.4117 8.5559C14.9617 8.5559 14.7517 8.9859 14.6717 9.3659C14.5217 9.8859 14.0317 10.0459 13.5717 10.0459C12.8317 10.0459 12.5717 9.5459 12.5717 9.0959C12.5717 8.8759 12.6017 8.6459 12.6717 8.4459C12.9917 7.3259 14.1817 6.7059 15.3717 6.7059C17.1417 6.7059 18.3317 7.6659 18.3317 9.3159C18.3317 10.4759 17.6117 11.2959 16.8917 11.4859V11.5459C17.9317 11.6759 18.6017 12.5359 18.6017 13.7559C18.6017 15.4959 17.3217 16.5659 15.4617 16.5659ZM8.1717 14.6559C8.6917 14.6559 8.9017 13.5859 8.9017 11.6259C8.9017 9.6659 8.6917 8.5859 8.1717 8.5859C7.6417 8.5859 7.4317 9.6659 7.4317 11.6259C7.4317 13.5859 7.6417 14.6559 8.1717 14.6559Z" />
        </svg>
    