
        <svg xmlns="http://www.w3.org/2000/svg" viewBox="0 0 100 100">
            <path d="M3.6817 21.5722H17.8917C20.3517 21.5722 21.5717 20.3722 21.5717 17.9522V3.6322C21.5717 1.2222 20.3517 0.0022 17.8917 0.0022H3.6817C1.2317 0.0022 0.0017 1.2222 0.0017 3.6322V17.9522C0.0017 20.3722 1.2317 21.5722 3.6817 21.5722ZM3.7017 19.6922C2.5317 19.6922 1.8917 19.0622 1.8917 17.8522V3.7422C1.8917 2.5222 2.5317 1.8822 3.7017 1.8822H17.8717C19.0317 1.8822 19.6917 2.5222 19.6917 3.7422V17.8522C19.6917 19.0622 19.0317 19.6922 17.8717 19.6922ZM7.0517 15.7622C9.3917 15.7622 10.0817 13.1322 10.0817 10.7822C10.0817 8.4222 9.3917 5.8022 7.0517 5.8022C4.7117 5.8022 4.0217 8.4222 4.0217 10.7822C4.0217 13.1322 4.7117 15.7622 7.0517 15.7622ZM15.7517 15.6722C16.1917 15.6722 16.5517 15.4022 16.5517 14.8322V13.6622H16.9717C17.4217 13.6622 17.6417 13.3722 17.6417 12.9722C17.6417 12.6022 17.4417 12.3022 16.9717 12.3022H16.5517V7.1622C16.5517 6.3522 16.0217 5.8922 15.2617 5.8922C14.4217 5.8922 14.0417 6.3122 13.7117 7.0422L11.6117 11.5922C11.4217 12.0422 11.3517 12.3522 11.3517 12.7122C11.3517 13.2822 11.7417 13.6622 12.3117 13.6622H14.9417V14.8322C14.9417 15.4522 15.3717 15.6722 15.7517 15.6722ZM7.0517 14.3622C6.0917 14.3622 5.7317 12.8122 5.7317 10.7822C5.7317 8.7422 6.0917 7.1822 7.0517 7.1822C8.0117 7.1822 8.3817 8.7422 8.3817 10.7822C8.3817 12.8122 8.0117 14.3622 7.0517 14.3622ZM14.9717 12.3422H12.8017V12.2622L14.9317 7.3722H14.9717Z" />
        </svg>
    