
        <svg xmlns="http://www.w3.org/2000/svg" viewBox="0 0 100 100">
            <path d="M4.5917 23.2359H18.6417C21.5417 23.2359 23.2417 21.5459 23.2417 18.6459V4.5959C23.2417 1.6959 21.5417 -0.0041 18.6417 -0.0041H4.5917C1.7017 -0.0041 0.0017 1.6959 0.0017 4.5959V18.6459C0.0017 21.5459 1.7017 23.2359 4.5917 23.2359ZM5.2217 19.0759C4.5117 19.0759 4.1617 18.7859 4.1617 18.0159V5.2359C4.1617 4.4659 4.5117 4.1759 5.2217 4.1759H18.0117C18.7217 4.1759 19.0817 4.4659 19.0817 5.2359V18.0159C19.0817 18.7859 18.7217 19.0759 18.0117 19.0759ZM8.2617 16.2159C10.5317 16.2159 11.2217 13.8159 11.2217 11.6259C11.2217 9.4359 10.5317 7.0159 8.2617 7.0159C5.9917 7.0159 5.3017 9.4359 5.3017 11.6259C5.3017 13.8159 5.9917 16.2159 8.2617 16.2159ZM16.2917 16.1459C16.8717 16.1459 17.3517 15.8359 17.3517 15.0559V14.5159H17.4417C18.0917 14.5159 18.2817 14.0959 18.2817 13.6359C18.2817 13.0859 18.0117 12.7759 17.4517 12.7759H17.3517V8.7559C17.3517 7.7259 16.6717 7.1459 15.6317 7.1459C14.2017 7.1459 13.7917 8.2259 13.4017 9.3359L12.4817 11.9159C12.3017 12.3859 12.2117 12.8659 12.2117 13.2959C12.2117 14.1059 12.6417 14.5159 13.4917 14.5159H15.2217V15.0559C15.2217 15.8059 15.7017 16.1459 16.2917 16.1459ZM8.2617 14.4459C7.7717 14.4459 7.5717 13.4259 7.5717 11.6259C7.5717 9.8059 7.7717 8.7959 8.2617 8.7959C8.7517 8.7959 8.9517 9.8059 8.9517 11.6259C8.9517 13.4259 8.7517 14.4459 8.2617 14.4459ZM15.2917 12.8459H14.0117V12.7459L15.2417 8.8559H15.2917Z" />
        </svg>
    