
        <svg xmlns="http://www.w3.org/2000/svg" viewBox="0 0 100 100">
            <path d="M11.7523 23.5048C18.2323 23.5048 23.5123 18.2348 23.5123 11.7548C23.5123 5.2748 18.2323 0.0048 11.7523 0.0048C5.2723 0.0048 0.0023 5.2748 0.0023 11.7548C0.0023 18.2348 5.2723 23.5048 11.7523 23.5048ZM8.0823 16.8148C5.7823 16.8148 5.1423 14.0348 5.1423 11.7548C5.1423 9.4548 5.7823 6.6948 8.0823 6.6948C10.4023 6.6948 11.0423 9.4548 11.0423 11.7548C11.0423 14.0348 10.4023 16.8148 8.0823 16.8148ZM15.2323 16.8148C14.1223 16.8148 13.1223 16.1148 12.7523 15.0848C12.6723 14.8948 12.6123 14.6448 12.6123 14.4348C12.6123 14.0748 12.8423 13.8348 13.1923 13.8348C13.4623 13.8348 13.6923 13.9948 13.7923 14.3448C13.9923 15.0748 14.4623 15.6648 15.2123 15.6648C16.2023 15.6648 16.6423 14.5548 16.6423 13.4548C16.6423 12.4648 16.2323 11.2948 15.2423 11.2948C14.6923 11.2948 14.3323 11.6248 14.0423 12.0948C13.8423 12.3748 13.6723 12.5148 13.3923 12.5148C12.9523 12.5148 12.7423 12.1948 12.7423 11.8148C12.7423 11.6748 12.7523 11.4748 12.7623 11.2748L12.9923 7.7948C13.0323 7.2748 13.2623 6.9148 13.7923 6.9148H17.0523C17.3823 6.9148 17.6023 7.1748 17.6023 7.5048C17.6023 7.8348 17.3923 8.0848 17.0523 8.0848H14.1523L13.9323 11.3048H13.9823C14.2923 10.5748 14.9923 10.2448 15.6723 10.2448C17.2023 10.2448 17.9923 11.7848 17.9923 13.4148C17.9923 15.2348 17.0323 16.8148 15.2323 16.8148ZM8.0823 15.6548C9.2923 15.6548 9.6223 13.6948 9.6223 11.7548C9.6223 9.8048 9.2923 7.8548 8.0823 7.8548C6.8923 7.8548 6.5523 9.8048 6.5523 11.7548C6.5523 13.6948 6.8923 15.6548 8.0823 15.6548Z" />
        </svg>
    