
        <svg xmlns="http://www.w3.org/2000/svg" viewBox="0 0 100 100">
            <path d="M12.3723 24.7528C19.2023 24.7528 24.7523 19.2028 24.7523 12.3728C24.7523 5.5428 19.2023 0.0028 12.3723 0.0028C5.5423 0.0028 0.0023 5.5428 0.0023 12.3728C0.0023 19.2028 5.5423 24.7528 12.3723 24.7528ZM9.1123 17.4128C6.6923 17.4128 5.9523 14.7728 5.9523 12.3728C5.9523 9.9728 6.6923 7.3228 9.1123 7.3228C11.5423 7.3228 12.2823 9.9728 12.2823 12.3728C12.2823 14.7728 11.5423 17.4128 9.1123 17.4128ZM15.0823 17.3228C14.3823 17.3228 14.1323 16.8628 14.1323 16.4428C14.1323 16.1528 14.1823 15.9328 14.2823 15.6728L16.6123 9.3628V9.2428H13.9823C13.4723 9.2428 13.1623 8.8928 13.1623 8.4128C13.1623 7.9528 13.4623 7.5828 13.9823 7.5828H17.6323C18.2623 7.5828 18.7423 7.9928 18.7423 8.6228C18.7423 9.0428 18.6423 9.3728 18.4923 9.7828L16.0323 16.6428C15.8523 17.1128 15.6323 17.3228 15.0823 17.3228ZM9.1123 15.7428C9.8823 15.7428 10.1723 14.4028 10.1723 12.3728C10.1723 10.3428 9.8823 9.0128 9.1123 9.0128C8.3623 9.0128 8.0723 10.3428 8.0723 12.3728C8.0723 14.4028 8.3623 15.7428 9.1123 15.7428Z" />
        </svg>
    