
        <svg xmlns="http://www.w3.org/2000/svg" viewBox="0 0 100 100">
            <path d="M11.7523 23.5048C18.2423 23.5048 23.5123 18.2448 23.5123 11.7548C23.5123 5.2648 18.2423 0.0048 11.7523 0.0048C5.2623 0.0048 0.0023 5.2648 0.0023 11.7548C0.0023 18.2448 5.2623 23.5048 11.7523 23.5048ZM11.7523 21.9848C6.0923 21.9848 1.5223 17.4148 1.5223 11.7548C1.5223 6.0948 6.0923 1.5148 11.7523 1.5148C17.4123 1.5148 21.9923 6.0948 21.9923 11.7548C21.9923 17.4148 17.4123 21.9848 11.7523 21.9848ZM8.5523 16.7148C10.8123 16.7148 11.4423 13.9948 11.4423 11.7548C11.4423 9.5148 10.8123 6.7948 8.5523 6.7948C6.2923 6.7948 5.6723 9.5148 5.6723 11.7548C5.6723 13.9948 6.2923 16.7148 8.5523 16.7148ZM13.9423 16.6448C14.2823 16.6448 14.4523 16.4848 14.5823 16.1448L17.4023 8.5648C17.4923 8.2848 17.5823 8.0348 17.5823 7.7548C17.5823 7.3148 17.2423 7.0148 16.7923 7.0148H12.9723C12.6423 7.0148 12.4223 7.2548 12.4223 7.5848C12.4223 7.9148 12.6423 8.1448 12.9723 8.1448H16.2023V8.2348L13.4423 15.4848C13.3623 15.6948 13.3123 15.8248 13.3123 16.0448C13.3123 16.3348 13.5023 16.6448 13.9423 16.6448ZM8.5523 15.5848C7.3723 15.5848 7.0423 13.6548 7.0423 11.7548C7.0423 9.8548 7.3723 7.9248 8.5523 7.9248C9.7423 7.9248 10.0623 9.8548 10.0623 11.7548C10.0623 13.6548 9.7423 15.5848 8.5523 15.5848Z" />
        </svg>
    