
        <svg xmlns="http://www.w3.org/2000/svg" viewBox="0 0 100 100">
            <path d="M12.6023 25.1986C19.5623 25.1986 25.2023 19.5586 25.2023 12.5986C25.2023 5.6386 19.5623 -0.0014 12.6023 -0.0014C5.6323 -0.0014 0.0023 5.6386 0.0023 12.5986C0.0023 19.5586 5.6323 25.1986 12.6023 25.1986ZM12.6023 21.5386C7.6523 21.5386 3.6523 17.5386 3.6523 12.5986C3.6523 7.6486 7.6523 3.6586 12.6023 3.6586C17.5423 3.6586 21.5423 7.6486 21.5423 12.5986C21.5423 17.5386 17.5423 21.5386 12.6023 21.5386ZM9.6023 17.2886C11.8823 17.2886 12.5723 14.8286 12.5723 12.5986C12.5723 10.3586 11.8823 7.9086 9.6023 7.9086C7.3123 7.9086 6.6123 10.3586 6.6123 12.5986C6.6123 14.8286 7.3123 17.2886 9.6023 17.2886ZM15.2223 17.1886C15.7723 17.1886 16.0123 16.9786 16.1723 16.5186L18.3523 10.3386C18.4923 9.9286 18.5723 9.5986 18.5723 9.1786C18.5723 8.5586 18.1023 8.1586 17.4823 8.1586H14.1723C13.6423 8.1586 13.3523 8.5286 13.3523 8.9786C13.3523 9.4586 13.6623 9.8086 14.1723 9.8086H16.4323V9.9286L14.4023 15.5486C14.3123 15.8086 14.2523 16.0186 14.2523 16.3086C14.2523 16.7186 14.5123 17.1886 15.2223 17.1886ZM9.6023 15.5986C8.9923 15.5986 8.7523 14.4586 8.7523 12.5986C8.7523 10.7386 8.9923 9.5986 9.6023 9.5986C10.1923 9.5986 10.4323 10.7386 10.4323 12.5986C10.4323 14.4586 10.1923 15.5986 9.6023 15.5986Z" />
        </svg>
    