
        <svg xmlns="http://www.w3.org/2000/svg" viewBox="0 0 100 100">
            <path d="M11.4923 22.977C17.8323 22.977 22.9823 17.847 22.9823 11.497C22.9823 5.147 17.8323 -0.003 11.4923 -0.003C5.1423 -0.003 0.0023 5.147 0.0023 11.497C0.0023 17.847 5.1423 22.977 11.4923 22.977ZM11.4923 22.087C5.6323 22.087 0.8923 17.357 0.8923 11.497C0.8923 5.637 5.6323 0.887 11.4923 0.887C17.3523 0.887 22.0923 5.637 22.0923 11.497C22.0923 17.357 17.3523 22.087 11.4923 22.087ZM8.3923 16.427C10.5623 16.427 11.0723 13.567 11.0723 11.497C11.0723 9.407 10.5623 6.567 8.3923 6.567C6.2223 6.567 5.7023 9.407 5.7023 11.497C5.7023 13.567 6.2223 16.427 8.3923 16.427ZM13.3523 16.357C13.5923 16.357 13.7123 16.247 13.8023 16.007L16.8123 7.867C16.8823 7.677 16.9323 7.487 16.9323 7.297C16.9323 6.977 16.7123 6.747 16.3623 6.747H12.4823C12.2623 6.747 12.0923 6.927 12.0923 7.147C12.0923 7.367 12.2623 7.547 12.4823 7.547H16.0223V7.617L13.0223 15.537C12.9623 15.677 12.9223 15.797 12.9223 15.947C12.9223 16.167 13.0823 16.357 13.3523 16.357ZM8.3923 15.647C6.9123 15.647 6.6323 13.217 6.6323 11.497C6.6323 9.757 6.9123 7.347 8.3923 7.347C9.8623 7.347 10.1623 9.757 10.1623 11.497C10.1623 13.217 9.8623 15.647 8.3923 15.647Z" />
        </svg>
    