
        <svg xmlns="http://www.w3.org/2000/svg" viewBox="0 0 100 100">
            <path d="M4.3817 22.8467H18.4717C21.2617 22.8467 22.8517 21.2667 22.8517 18.4767V4.3667C22.8517 1.5867 21.2617 -0.0033 18.4717 -0.0033H4.3817C1.5917 -0.0033 0.0017 1.5867 0.0017 4.3667V18.4767C0.0017 21.2667 1.5917 22.8467 4.3817 22.8467ZM8.3317 16.4167C5.8917 16.4167 5.1517 13.8067 5.1517 11.4267C5.1517 9.0467 5.8917 6.4267 8.3317 6.4267C10.7717 6.4267 11.5117 9.0467 11.5117 11.4267C11.5117 13.8067 10.7717 16.4167 8.3317 16.4167ZM14.3317 16.3267C13.5717 16.3267 13.3017 15.8167 13.3017 15.3767C13.3017 15.0667 13.3617 14.8367 13.4617 14.5667L15.6117 8.5867V8.4567H13.2217C12.6817 8.4567 12.3417 8.0867 12.3417 7.5667C12.3417 7.0967 12.6517 6.6867 13.2217 6.6867H16.7417C17.4017 6.6867 17.9017 7.1167 17.9017 7.7767C17.9017 8.2367 17.8217 8.5867 17.6717 9.0267L15.3517 15.6067C15.1717 16.0867 14.9317 16.3267 14.3317 16.3267ZM8.3317 14.6167C8.9617 14.6167 9.2217 13.4167 9.2217 11.4267C9.2217 9.4367 8.9617 8.2267 8.3317 8.2267C7.7017 8.2267 7.4517 9.4367 7.4517 11.4267C7.4517 13.4167 7.7017 14.6167 8.3317 14.6167Z" />
        </svg>
    