
        <svg xmlns="http://www.w3.org/2000/svg" viewBox="0 0 100 100">
            <path d="M3.1617 20.742H17.5917C19.6617 20.742 20.7417 19.642 20.7417 17.592V3.152C20.7417 1.102 19.6617 0.002 17.5917 0.002H3.1617C1.0917 0.002 0.0017 1.082 0.0017 3.152V17.592C0.0017 19.662 1.0917 20.742 3.1617 20.742ZM3.1917 19.872C1.6617 19.872 0.8717 19.082 0.8717 17.552V3.202C0.8717 1.662 1.6617 0.872 3.1917 0.872H17.5517C19.0317 0.872 19.8717 1.662 19.8717 3.202V17.552C19.8717 19.082 19.0317 19.872 17.5517 19.872ZM6.9717 15.302C9.1417 15.302 9.6517 12.442 9.6517 10.372C9.6517 8.282 9.1417 5.442 6.9717 5.442C4.8017 5.442 4.2917 8.282 4.2917 10.372C4.2917 12.442 4.8017 15.302 6.9717 15.302ZM13.7817 15.272C15.4017 15.272 16.4617 14.112 16.4617 12.542C16.4617 11.382 15.7617 10.322 14.8017 10.112V10.092C15.6517 9.782 16.2117 8.942 16.2117 7.972C16.2117 6.582 15.2817 5.482 13.7817 5.482C12.3717 5.482 11.3817 6.512 11.3817 7.972C11.3817 8.992 11.9017 9.782 12.8017 10.092V10.112C11.8017 10.332 11.1117 11.372 11.1117 12.542C11.1117 14.082 12.1517 15.272 13.7817 15.272ZM6.9717 14.522C5.4917 14.522 5.2117 12.092 5.2117 10.372C5.2117 8.632 5.4917 6.222 6.9717 6.222C8.4517 6.222 8.7417 8.632 8.7417 10.372C8.7417 12.092 8.4517 14.522 6.9717 14.522ZM13.7917 9.762C12.9617 9.762 12.2617 9.092 12.2617 8.042C12.2617 7.022 12.8717 6.232 13.7917 6.232C14.8017 6.232 15.3317 7.122 15.3317 8.042C15.3317 9.032 14.6817 9.762 13.7917 9.762ZM13.7917 14.522C12.6917 14.522 12.0317 13.592 12.0317 12.492C12.0317 11.382 12.7017 10.522 13.7917 10.522C14.7817 10.522 15.5417 11.272 15.5417 12.492C15.5417 13.582 14.8917 14.522 13.7917 14.522Z" />
        </svg>
    