
        <svg xmlns="http://www.w3.org/2000/svg" viewBox="0 0 100 100">
            <path d="M3.0117 20.5048H17.4917C19.4517 20.5048 20.5117 19.4248 20.5117 17.4948V3.0148C20.5117 1.0748 19.4517 0.0048 17.4917 0.0048H3.0117C1.0417 0.0048 0.0017 1.0448 0.0017 3.0148V17.4948C0.0017 19.4648 1.0417 20.5048 3.0117 20.5048ZM3.0317 19.9348C1.4217 19.9348 0.5717 19.0948 0.5717 17.4648V3.0348C0.5717 1.4148 1.4217 0.5748 3.0317 0.5748H17.4617C19.0317 0.5748 19.9317 1.4148 19.9317 3.0348V17.4648C19.9317 19.0948 19.0317 19.9348 17.4617 19.9348ZM6.9517 15.1748C9.0717 15.1748 9.5317 12.2448 9.5317 10.2548C9.5317 8.2548 9.0717 5.3348 6.9517 5.3348C4.8317 5.3348 4.3717 8.2548 4.3717 10.2548C4.3717 12.2448 4.8317 15.1748 6.9517 15.1748ZM13.5717 15.1448C15.1217 15.1448 16.1517 13.9848 16.1517 12.4248C16.1517 11.2848 15.4817 10.2048 14.5117 9.9848V9.9748C15.3917 9.6548 15.9017 8.7748 15.9017 7.8348C15.9017 6.5048 15.0317 5.3748 13.5717 5.3748C12.1917 5.3748 11.2717 6.4548 11.2717 7.8348C11.2717 8.8148 11.7317 9.6548 12.6717 9.9748V9.9848C11.6817 10.2048 11.0017 11.2748 11.0017 12.4248C11.0017 13.9148 11.9717 15.1448 13.5717 15.1448ZM6.9517 14.5548C5.3217 14.5548 5.0517 11.8948 5.0517 10.2548C5.0517 8.6148 5.3217 5.9448 6.9517 5.9448C8.5817 5.9448 8.8317 8.6148 8.8317 10.2548C8.8317 11.8948 8.5817 14.5548 6.9517 14.5548ZM13.5817 9.7048C12.7417 9.7048 11.9317 9.0448 11.9317 7.8848C11.9317 6.7848 12.6117 5.9748 13.5817 5.9748C14.6717 5.9748 15.2417 6.9248 15.2417 7.8848C15.2417 8.9548 14.5217 9.7048 13.5817 9.7048ZM13.5817 14.5448C12.4117 14.5448 11.6917 13.5748 11.6917 12.3948C11.6917 11.2048 12.4317 10.3248 13.5817 10.3248C14.6217 10.3248 15.4717 11.0848 15.4717 12.3948C15.4717 13.5448 14.7617 14.5448 13.5817 14.5448Z" />
        </svg>
    