
        <svg xmlns="http://www.w3.org/2000/svg" viewBox="0 0 100 100">
            <path d="M12.6023 25.1986C19.5623 25.1986 25.2023 19.5586 25.2023 12.5986C25.2023 5.6386 19.5623 -0.0014 12.6023 -0.0014C5.6323 -0.0014 0.0023 5.6386 0.0023 12.5986C0.0023 19.5586 5.6323 25.1986 12.6023 25.1986ZM12.6023 21.5386C7.6523 21.5386 3.6523 17.5386 3.6523 12.5986C3.6523 7.6486 7.6523 3.6586 12.6023 3.6586C17.5423 3.6586 21.5423 7.6486 21.5423 12.5986C21.5423 17.5386 17.5423 21.5386 12.6023 21.5386ZM9.1923 17.2886C11.4723 17.2886 12.1623 14.8286 12.1623 12.5986C12.1623 10.3586 11.4723 7.9086 9.1923 7.9086C6.9023 7.9086 6.2123 10.3586 6.2123 12.5986C6.2123 14.8286 6.9023 17.2886 9.1923 17.2886ZM15.3323 13.9186C16.2223 13.9186 16.7723 13.2886 16.9723 12.4786H16.9923V12.9986C16.9923 14.4686 16.7423 15.6486 16.0623 15.6486C15.7523 15.6486 15.5623 15.4586 15.3723 15.0686C15.1623 14.6486 14.8923 14.4686 14.4723 14.4686C13.8523 14.4686 13.6123 14.8986 13.6123 15.3386C13.6123 15.4686 13.6423 15.6586 13.6723 15.7986C13.9723 16.8086 14.9223 17.2886 15.9823 17.2886C18.3123 17.2886 18.9923 14.8786 18.9923 12.5586C18.9923 10.5386 18.3623 7.9186 16.0223 7.9186C14.2623 7.9186 13.3223 9.3886 13.3223 11.0886C13.3223 12.5286 13.9223 13.9186 15.3323 13.9186ZM9.1923 15.5986C8.5923 15.5986 8.3423 14.4586 8.3423 12.5986C8.3423 10.7386 8.5923 9.5986 9.1923 9.5986C9.7823 9.5986 10.0223 10.7386 10.0223 12.5986C10.0223 14.4586 9.7823 15.5986 9.1923 15.5986ZM16.0523 12.4186C15.5623 12.4186 15.3323 11.8286 15.3323 11.0186C15.3323 10.1986 15.5723 9.5986 16.0523 9.5986C16.5623 9.5986 16.7923 10.2086 16.7923 11.0386C16.7923 11.8486 16.5423 12.4186 16.0523 12.4186Z" />
        </svg>
    