
        <svg xmlns="http://www.w3.org/2000/svg" viewBox="0 0 100 100">
            <path d="M3.6817 21.5722H17.8917C20.3517 21.5722 21.5717 20.3722 21.5717 17.9522V3.6322C21.5717 1.2222 20.3517 0.0022 17.8917 0.0022H3.6817C1.2317 0.0022 0.0017 1.2222 0.0017 3.6322V17.9522C0.0017 20.3722 1.2317 21.5722 3.6817 21.5722ZM3.7017 19.6922C2.5317 19.6922 1.8917 19.0622 1.8917 17.8522V3.7422C1.8917 2.5222 2.5317 1.8822 3.7017 1.8822H17.8717C19.0317 1.8822 19.6917 2.5222 19.6917 3.7422V17.8522C19.6917 19.0622 19.0317 19.6922 17.8717 19.6922ZM7.1517 15.7622C9.4817 15.7622 10.1817 13.1322 10.1817 10.7822C10.1817 8.4222 9.4817 5.8022 7.1517 5.8022C4.8117 5.8022 4.1117 8.4222 4.1117 10.7822C4.1117 13.1322 4.8117 15.7622 7.1517 15.7622ZM13.8017 12.2422C14.7617 12.2422 15.4817 11.6122 15.7517 10.6022H15.8017V10.7322C15.8017 12.0322 15.6317 14.3822 14.3217 14.3822C13.7917 14.3822 13.4417 14.0122 13.2317 13.5122C13.0517 13.1222 12.8317 12.9722 12.4817 12.9722C11.9917 12.9722 11.7817 13.3022 11.7817 13.6922C11.7817 13.8322 11.8117 13.9722 11.8517 14.1122C12.0917 15.1322 13.1117 15.7522 14.2817 15.7522C16.6917 15.7522 17.3917 13.0922 17.3917 10.6922C17.3917 8.4722 16.6917 5.8222 14.3117 5.8222C12.5317 5.8222 11.4917 7.3222 11.4917 9.1622C11.4917 10.7422 12.2617 12.2422 13.8017 12.2422ZM7.1517 14.3622C6.1917 14.3622 5.8217 12.8122 5.8217 10.7822C5.8217 8.7422 6.1917 7.1822 7.1517 7.1822C8.1117 7.1822 8.4717 8.7422 8.4717 10.7822C8.4717 12.8122 8.1117 14.3622 7.1517 14.3622ZM14.3317 10.9522C13.4617 10.9522 13.1117 9.9622 13.1117 9.0922C13.1117 8.2122 13.5117 7.1822 14.3317 7.1822C15.2117 7.1822 15.5717 8.2122 15.5717 9.0922C15.5717 9.9922 15.1717 10.9522 14.3317 10.9522Z" />
        </svg>
    