
        <svg xmlns="http://www.w3.org/2000/svg" viewBox="0 0 100 100">
            <path d="M3.6817 21.5722H17.8917C20.3517 21.5722 21.5717 20.3722 21.5717 17.9522V3.6322C21.5717 1.2222 20.3517 0.0022 17.8917 0.0022H3.6817C1.2317 0.0022 0.0017 1.2222 0.0017 3.6322V17.9522C0.0017 20.3722 1.2317 21.5722 3.6817 21.5722ZM7.0317 15.9122C4.6317 15.9122 3.9017 13.2222 3.9017 10.7822C3.9017 8.3422 4.6317 5.6522 7.0317 5.6522C9.4417 5.6522 10.1717 8.3422 10.1717 10.7822C10.1717 13.2222 9.4417 15.9122 7.0317 15.9122ZM13.9017 12.2922C12.3017 12.2922 11.5217 10.7422 11.5217 9.1122C11.5217 7.2222 12.5817 5.6722 14.4217 5.6722C16.8717 5.6722 17.6017 8.4022 17.6017 10.6922C17.6017 13.1622 16.8717 15.9022 14.4017 15.9022C13.1917 15.9022 12.1417 15.2722 11.8817 14.2122C11.8517 14.0722 11.8117 13.9222 11.8117 13.7822C11.8117 13.3822 12.0217 13.0422 12.5417 13.0422C12.9017 13.0422 13.1417 13.1922 13.3117 13.5922C13.5317 14.1122 13.9017 14.4822 14.4417 14.4822C15.7817 14.4822 15.9517 12.0722 15.9517 10.7322V10.6022H15.9017C15.6317 11.6322 14.8917 12.2922 13.9017 12.2922ZM7.0317 14.4722C8.0117 14.4722 8.3917 12.8822 8.3917 10.7822C8.3917 8.6722 8.0117 7.0922 7.0317 7.0922C6.0517 7.0922 5.6717 8.6722 5.6717 10.7822C5.6717 12.8822 6.0517 14.4722 7.0317 14.4722ZM14.4517 10.9522C15.3117 10.9522 15.7117 9.9722 15.7117 9.0322C15.7117 8.1322 15.3517 7.0922 14.4517 7.0922C13.6017 7.0922 13.1917 8.1322 13.1917 9.0322C13.1917 9.9422 13.5617 10.9522 14.4517 10.9522Z" />
        </svg>
    