
        <svg xmlns="http://www.w3.org/2000/svg" viewBox="0 0 100 100">
            <path d="M3.1617 20.742H17.5917C19.6617 20.742 20.7417 19.642 20.7417 17.592V3.152C20.7417 1.102 19.6617 0.002 17.5917 0.002H3.1617C1.0917 0.002 0.0017 1.082 0.0017 3.152V17.592C0.0017 19.662 1.0917 20.742 3.1617 20.742ZM3.1917 19.872C1.6617 19.872 0.8717 19.082 0.8717 17.552V3.202C0.8717 1.662 1.6617 0.872 3.1917 0.872H17.5517C19.0317 0.872 19.8717 1.662 19.8717 3.202V17.552C19.8717 19.082 19.0317 19.872 17.5517 19.872ZM6.9217 15.302C9.0917 15.302 9.6017 12.442 9.6017 10.372C9.6017 8.282 9.0917 5.442 6.9217 5.442C4.7417 5.442 4.2417 8.282 4.2417 10.372C4.2417 12.442 4.7417 15.302 6.9217 15.302ZM13.2817 11.832C14.3917 11.832 15.1017 11.012 15.3317 9.942H15.3717V10.122C15.3717 11.702 15.1417 14.492 13.4617 14.492C12.7117 14.492 12.2417 13.942 12.0017 13.152C11.8917 12.842 11.7617 12.742 11.5817 12.742C11.3117 12.742 11.1817 12.912 11.1817 13.152C11.1817 13.262 11.2017 13.432 11.2617 13.582C11.5517 14.632 12.4017 15.292 13.4617 15.292C15.6817 15.292 16.2417 12.382 16.2417 10.182C16.2417 8.002 15.6117 5.442 13.4917 5.442C11.8817 5.442 10.9817 6.972 10.9817 8.732C10.9817 10.312 11.7417 11.832 13.2817 11.832ZM6.9217 14.522C5.4417 14.522 5.1517 12.092 5.1517 10.372C5.1517 8.632 5.4417 6.222 6.9217 6.222C8.4017 6.222 8.6817 8.632 8.6817 10.372C8.6817 12.092 8.4017 14.522 6.9217 14.522ZM13.5017 11.072C12.3917 11.072 11.8517 9.842 11.8517 8.722C11.8517 7.542 12.4017 6.222 13.5017 6.222C14.6417 6.222 15.2017 7.572 15.2017 8.722C15.2017 9.882 14.5917 11.072 13.5017 11.072Z" />
        </svg>
    