
        <svg xmlns="http://www.w3.org/2000/svg" viewBox="0 0 100 100">
            <path d="M3.4617 21.2264H17.7617C20.0517 21.2264 21.2217 20.0464 21.2217 17.7964V3.4264C21.2217 1.1764 20.0517 -0.0036 17.7617 -0.0036H3.4617C1.1717 -0.0036 0.0017 1.1564 0.0017 3.4264V17.7964C0.0017 20.0664 1.1717 21.2264 3.4617 21.2264ZM3.4817 19.7664C2.1717 19.7664 1.4517 19.0764 1.4517 17.7164V3.5064C1.4517 2.1464 2.1717 1.4564 3.4817 1.4564H17.7317C19.0317 1.4564 19.7717 2.1464 19.7717 3.5064V17.7164C19.7717 19.0764 19.0317 19.7664 17.7317 19.7664ZM7.0517 15.5664C9.3117 15.5664 9.9417 12.8464 9.9417 10.6064C9.9417 8.3664 9.3117 5.6464 7.0517 5.6464C4.7917 5.6464 4.1717 8.3664 4.1717 10.6064C4.1717 12.8464 4.7917 15.5664 7.0517 15.5664ZM13.5817 12.0664C14.6017 12.0664 15.3117 11.3564 15.5617 10.3264H15.6117V10.4764C15.6117 11.8964 15.4217 14.4264 13.9417 14.4264C13.3217 14.4264 12.9217 13.9764 12.7017 13.3564C12.5617 13.0064 12.3717 12.8664 12.0917 12.8664C11.6917 12.8664 11.5217 13.1364 11.5217 13.4564C11.5217 13.5864 11.5517 13.7364 11.5917 13.8864C11.8617 14.9164 12.8117 15.5464 13.9317 15.5464C16.2517 15.5464 16.9017 12.7864 16.9017 10.4764C16.9017 8.2764 16.2217 5.6564 13.9617 5.6564C12.2417 5.6564 11.2717 7.1764 11.2717 8.9764C11.2717 10.5564 12.0317 12.0664 13.5817 12.0664ZM7.0517 14.4364C5.8717 14.4364 5.5417 12.5064 5.5417 10.6064C5.5417 8.7064 5.8717 6.7764 7.0517 6.7764C8.2417 6.7764 8.5617 8.7064 8.5617 10.6064C8.5617 12.5064 8.2417 14.4364 7.0517 14.4364ZM13.9717 11.0064C12.9917 11.0064 12.5717 9.9064 12.5717 8.9264C12.5717 7.9264 13.0317 6.7764 13.9717 6.7764C14.9617 6.7764 15.4117 7.9464 15.4117 8.9264C15.4117 9.9464 14.9217 11.0064 13.9717 11.0064Z" />
        </svg>
    