
        <svg xmlns="http://www.w3.org/2000/svg" viewBox="0 0 100 100">
            <path d="M11.9523 23.9041C18.5523 23.9041 23.9023 18.5541 23.9023 11.9541C23.9023 5.3541 18.5523 0.0041 11.9523 0.0041C5.3523 0.0041 0.0023 5.3541 0.0023 11.9541C0.0023 18.5541 5.3523 23.9041 11.9523 23.9041ZM11.9523 21.9141C6.4423 21.9141 1.9923 17.4641 1.9923 11.9541C1.9923 6.4441 6.4423 1.9941 11.9523 1.9941C17.4623 1.9941 21.9123 6.4441 21.9123 11.9541C21.9123 17.4641 17.4623 21.9141 11.9523 21.9141ZM12.5523 17.5341C13.1523 17.5341 13.4923 17.1341 13.4923 16.4741V7.4341C13.4923 6.7541 13.1223 6.3741 12.5023 6.3741C12.0723 6.3741 11.7623 6.4941 11.2623 6.8341L9.1523 8.2641C8.8923 8.4341 8.7923 8.6241 8.7923 8.9141C8.7923 9.2841 9.0823 9.6241 9.4523 9.6241C9.6323 9.6241 9.7623 9.5841 10.0323 9.4141L11.5423 8.4141H11.6223V16.4741C11.6223 17.1341 11.9623 17.5341 12.5523 17.5341Z" />
        </svg>
    