
        <svg xmlns="http://www.w3.org/2000/svg" viewBox="0 0 100 100">
            <path d="M0.0017 17.093C0.0017 17.733 0.5117 18.243 1.1517 18.243C1.7817 18.243 2.3017 17.733 2.3017 17.093V1.153C2.3017 0.513 1.7817 0.003 1.1517 0.003C0.5117 0.003 0.0017 0.513 0.0017 1.153ZM19.5817 17.093C19.5817 17.733 20.1017 18.243 20.7317 18.243C21.3517 18.243 21.8817 17.733 21.8817 17.093V1.153C21.8817 0.513 21.3517 0.003 20.7317 0.003C20.1017 0.003 19.5817 0.513 19.5817 1.153ZM11.5417 14.493C12.1617 14.493 12.5517 14.053 12.5517 13.433V5.243C12.5517 4.523 12.0917 4.103 11.3817 4.103C10.7917 4.103 10.3817 4.363 9.9217 4.703L8.5217 5.743C8.2517 5.943 8.0717 6.183 8.0717 6.523C8.0717 6.953 8.3717 7.263 8.7817 7.263C8.9917 7.263 9.1217 7.193 9.2817 7.083L10.5017 6.163H10.5217V13.433C10.5217 14.053 10.9117 14.493 11.5417 14.493Z" />
        </svg>
    