
        <svg xmlns="http://www.w3.org/2000/svg" viewBox="0 0 100 100">
            <path d="M3.4617 21.2264H17.7617C20.0517 21.2264 21.2217 20.0464 21.2217 17.7964V3.4264C21.2217 1.1764 20.0517 -0.0036 17.7617 -0.0036H3.4617C1.1717 -0.0036 0.0017 1.1564 0.0017 3.4264V17.7964C0.0017 20.0664 1.1717 21.2264 3.4617 21.2264ZM3.4817 19.7664C2.1717 19.7664 1.4517 19.0764 1.4517 17.7164V3.5064C1.4517 2.1464 2.1717 1.4564 3.4817 1.4564H17.7317C19.0317 1.4564 19.7717 2.1464 19.7717 3.5064V17.7164C19.7717 19.0764 19.0317 19.7664 17.7317 19.7664ZM11.1717 16.0864C11.6417 16.0864 11.9017 15.7864 11.9017 15.2964V5.9264C11.9017 5.4164 11.6117 5.1164 11.1217 5.1164C10.7817 5.1164 10.5517 5.2064 10.1517 5.4864L7.9017 6.9864C7.6917 7.1264 7.6017 7.2764 7.6017 7.5164C7.6017 7.8064 7.8417 8.0764 8.1417 8.0764C8.2717 8.0764 8.3817 8.0464 8.5617 7.9264L10.3817 6.7364H10.4517V15.2964C10.4517 15.7864 10.7317 16.0864 11.1717 16.0864Z" />
        </svg>
    