
        <svg xmlns="http://www.w3.org/2000/svg" viewBox="0 0 100 100">
            <path d="M12.3723 24.7459C19.2023 24.7459 24.7523 19.2059 24.7523 12.3759C24.7523 5.5459 19.2023 -0.0041 12.3723 -0.0041C5.5423 -0.0041 0.0023 5.5459 0.0023 12.3759C0.0023 19.2059 5.5423 24.7459 12.3723 24.7459ZM15.2223 17.4159C12.7923 17.4159 12.0623 14.7759 12.0623 12.3759C12.0623 9.9759 12.7923 7.3259 15.2223 7.3259C17.6523 7.3259 18.3823 9.9759 18.3823 12.3759C18.3823 14.7759 17.6523 17.4159 15.2223 17.4159ZM9.2623 17.3059C8.6723 17.3059 8.1923 16.8359 8.1923 16.2559V9.5659L7.3323 10.2459C7.1723 10.3859 7.0323 10.4459 6.8223 10.4459C6.4423 10.4459 6.1123 10.1859 6.1123 9.6959C6.1123 9.3359 6.2823 9.0659 6.5623 8.8559L7.7023 7.9759C8.0723 7.6959 8.5123 7.4259 9.0923 7.4259C9.8423 7.4259 10.3123 7.8559 10.3123 8.6159V16.2559C10.3123 16.8359 9.8423 17.3059 9.2623 17.3059ZM15.2223 15.7359C15.9823 15.7359 16.2823 14.4059 16.2823 12.3759C16.2823 10.3459 15.9823 9.0159 15.2223 9.0159C14.4723 9.0159 14.1823 10.3459 14.1823 12.3759C14.1823 14.4059 14.4723 15.7359 15.2223 15.7359Z" />
        </svg>
    