
        <svg xmlns="http://www.w3.org/2000/svg" viewBox="0 0 100 100">
            <path d="M0.0017 17.093C0.0017 17.733 0.5117 18.243 1.1517 18.243C1.7817 18.243 2.3017 17.733 2.3017 17.093V1.153C2.3017 0.513 1.7817 0.003 1.1517 0.003C0.5117 0.003 0.0017 0.513 0.0017 1.153ZM19.5817 17.093C19.5817 17.733 20.1017 18.243 20.7317 18.243C21.3517 18.243 21.8817 17.733 21.8817 17.093V1.153C21.8817 0.513 21.3517 0.003 20.7317 0.003C20.1017 0.003 19.5817 0.513 19.5817 1.153ZM13.9017 14.143C16.3317 14.143 17.2017 11.703 17.2017 9.253C17.2017 6.833 16.3217 4.403 13.9017 4.403C11.4617 4.403 10.5917 6.843 10.5917 9.273C10.5917 11.723 11.4717 14.143 13.9017 14.143ZM7.7017 14.063C8.2717 14.063 8.6217 13.653 8.6217 13.083V5.543C8.6217 4.873 8.2117 4.503 7.5517 4.503C7.0217 4.503 6.6317 4.733 6.2117 5.053L4.9217 6.003C4.6617 6.183 4.5117 6.413 4.5117 6.723C4.5117 7.113 4.7817 7.403 5.1517 7.403C5.3417 7.403 5.4717 7.343 5.6217 7.233L6.7417 6.403H6.7617V13.083C6.7617 13.663 7.1117 14.063 7.7017 14.063ZM13.9017 12.653C12.9617 12.653 12.4817 11.243 12.4817 9.273C12.4817 7.313 12.9617 5.903 13.9017 5.903C14.8517 5.903 15.3117 7.313 15.3117 9.273C15.3117 11.243 14.8517 12.653 13.9017 12.653Z" />
        </svg>
    