
        <svg xmlns="http://www.w3.org/2000/svg" viewBox="0 0 100 100">
            <path d="M3.8417 21.8745H18.0317C20.5617 21.8745 21.8817 20.5745 21.8817 18.0745V3.8045C21.8817 1.3145 20.5617 0.0045 18.0317 0.0045H3.8417C1.3117 0.0045 0.0017 1.3045 0.0017 3.8045V18.0745C0.0017 20.5745 1.3117 21.8745 3.8417 21.8745ZM13.7417 16.0345C11.3317 16.0345 10.6017 13.3545 10.6017 10.9345C10.6017 8.5045 11.3317 5.8345 13.7417 5.8345C16.1617 5.8345 16.8917 8.5045 16.8917 10.9345C16.8917 13.3545 16.1617 16.0345 13.7417 16.0345ZM7.8017 15.9245C7.2817 15.9245 6.8517 15.5045 6.8517 14.9645V7.8745L5.8317 8.6845C5.6917 8.8045 5.5617 8.8545 5.3717 8.8545C5.0017 8.8545 4.7217 8.5945 4.7217 8.1845C4.7217 7.8545 4.8917 7.5945 5.1317 7.4145L6.3917 6.4345C6.7017 6.1945 7.1217 5.9345 7.6617 5.9345C8.3317 5.9345 8.7517 6.3045 8.7517 6.9845V14.9645C8.7517 15.5045 8.3217 15.9245 7.8017 15.9245ZM13.7417 14.5045C14.6517 14.5045 15.0017 13.0045 15.0017 10.9345C15.0017 8.8545 14.6517 7.3545 13.7417 7.3545C12.8417 7.3545 12.5017 8.8545 12.5017 10.9345C12.5017 13.0045 12.8417 14.5045 13.7417 14.5045Z" />
        </svg>
    