
        <svg xmlns="http://www.w3.org/2000/svg" viewBox="0 0 100 100">
            <path d="M4.3817 22.8467H18.4717C21.2617 22.8467 22.8517 21.2667 22.8517 18.4767V4.3667C22.8517 1.5867 21.2617 -0.0033 18.4717 -0.0033H4.3817C1.5917 -0.0033 0.0017 1.5867 0.0017 4.3667V18.4767C0.0017 21.2667 1.5917 22.8467 4.3817 22.8467ZM14.4417 16.4167C12.0017 16.4167 11.2617 13.8067 11.2617 11.4267C11.2617 9.0467 12.0017 6.4267 14.4417 6.4267C16.8917 6.4267 17.6117 9.0467 17.6117 11.4267C17.6117 13.8067 16.8917 16.4167 14.4417 16.4167ZM8.4517 16.3167C7.8117 16.3167 7.3017 15.8167 7.3017 15.1667V8.8267L6.5717 9.3967C6.3917 9.5367 6.2317 9.6067 6.0117 9.6067C5.6417 9.6067 5.2617 9.3467 5.2617 8.7967C5.2617 8.4267 5.4217 8.1567 5.7417 7.9067L6.7817 7.1167C7.1917 6.7867 7.6417 6.5367 8.2617 6.5367C9.0917 6.5367 9.6017 6.9867 9.6017 7.8167V15.1667C9.6017 15.8167 9.0917 16.3167 8.4517 16.3167ZM14.4417 14.6167C15.0817 14.6167 15.3317 13.4167 15.3317 11.4267C15.3317 9.4367 15.0817 8.2267 14.4417 8.2267C13.8017 8.2267 13.5617 9.4367 13.5617 11.4267C13.5617 13.4167 13.8017 14.6167 14.4417 14.6167Z" />
        </svg>
    