
        <svg xmlns="http://www.w3.org/2000/svg" viewBox="0 0 100 100">
            <path d="M4.1417 22.4041H18.2717C20.9517 22.4041 22.4017 20.9541 22.4017 18.3041V4.1141C22.4017 1.4641 20.9517 0.0041 18.2717 0.0041H4.1417C1.4617 0.0041 0.0017 1.4541 0.0017 4.1141V18.3041C0.0017 20.9541 1.4617 22.4041 4.1417 22.4041ZM8.9217 16.1341C8.3317 16.1341 7.8617 15.6641 7.8617 15.0841V8.3941L7.0117 9.0741C6.8417 9.2141 6.6917 9.2741 6.4917 9.2741C6.1217 9.2741 5.7817 9.0141 5.7817 8.5241C5.7817 8.1641 5.9417 7.8941 6.2317 7.6841L7.3717 6.8041C7.7317 6.5241 8.1517 6.2541 8.7517 6.2541C9.5117 6.2541 9.9717 6.6841 9.9717 7.4441V15.0841C9.9717 15.6641 9.5017 16.1341 8.9217 16.1341ZM14.5217 16.1341C13.9317 16.1341 13.4617 15.6641 13.4617 15.0841V8.3941L12.6017 9.0741C12.4317 9.2141 12.2917 9.2741 12.0917 9.2741C11.7217 9.2741 11.3817 9.0141 11.3817 8.5241C11.3817 8.1641 11.5517 7.8941 11.8317 7.6841L12.9617 6.8041C13.3517 6.5241 13.7717 6.2541 14.3417 6.2541C15.1217 6.2541 15.5717 6.6841 15.5717 7.4441V15.0841C15.5717 15.6641 15.1017 16.1341 14.5217 16.1341Z" />
        </svg>
    