
        <svg xmlns="http://www.w3.org/2000/svg" viewBox="0 0 100 100">
            <path d="M11.3523 22.7064C17.6023 22.7064 22.7123 17.6064 22.7123 11.3564C22.7123 5.1064 17.6023 -0.0036 11.3523 -0.0036C5.1123 -0.0036 0.0023 5.1064 0.0023 11.3564C0.0023 17.6064 5.1123 22.7064 11.3523 22.7064ZM10.9823 16.0864C10.7923 16.0864 10.6523 15.9964 10.6523 15.7964C10.6523 15.6864 10.6723 15.5864 10.7623 15.4564L13.4023 11.7664C14.1723 10.6864 14.4623 9.9464 14.4623 9.0864C14.4623 8.1364 13.9923 7.0564 12.8823 7.0564C11.8923 7.0564 11.4123 7.8664 11.2623 9.0164C11.2523 9.1564 11.1323 9.2564 10.9723 9.2564C10.7423 9.2564 10.6623 9.0864 10.6623 8.9564C10.6623 7.6864 11.5323 6.4364 12.8623 6.4364C14.3323 6.4364 15.0723 7.6164 15.0723 9.0464C15.0723 10.0164 14.7523 10.8764 13.8823 12.1264L11.5523 15.4364V15.4764H14.9923C15.1623 15.4764 15.2923 15.6064 15.2923 15.7864C15.2923 15.9564 15.1623 16.0864 14.9923 16.0864ZM8.5123 16.1964C8.3223 16.1964 8.1523 16.0264 8.1523 15.8464V7.3964L6.6323 8.6264C6.5823 8.6764 6.5423 8.6964 6.4423 8.6964C6.2723 8.6964 6.1723 8.5664 6.1723 8.4064C6.1723 8.2864 6.2123 8.2164 6.3023 8.1464L7.9823 6.7464C8.1123 6.6364 8.2723 6.5264 8.4723 6.5264C8.6823 6.5264 8.8323 6.6864 8.8323 6.8864V15.8464C8.8323 16.0264 8.6823 16.1964 8.5123 16.1964Z" />
        </svg>
    