
        <svg xmlns="http://www.w3.org/2000/svg" viewBox="0 0 100 100">
            <path d="M12.7923 25.5978C19.8723 25.5978 25.6023 19.8678 25.6023 12.7978C25.6023 5.7278 19.8723 -0.0022 12.7923 -0.0022C5.7323 -0.0022 0.0023 5.7278 0.0023 12.7978C0.0023 19.8678 5.7323 25.5978 12.7923 25.5978ZM9.6423 17.6478C8.9523 17.6478 8.4123 17.1078 8.4123 16.4178V10.3778L7.8023 10.8478C7.5923 11.0178 7.4323 11.0778 7.2023 11.0778C6.8323 11.0778 6.4123 10.8278 6.4123 10.2178C6.4123 9.8278 6.5623 9.5478 6.9223 9.2678L7.8723 8.5578C8.3323 8.2078 8.7623 7.9578 9.4323 7.9578C10.3223 7.9578 10.8623 8.4278 10.8623 9.3278V16.4178C10.8623 17.1078 10.3223 17.6478 9.6423 17.6478ZM16.7723 17.6578C16.1323 17.6578 15.6223 17.3078 15.6223 16.4978V15.9278H13.7623C12.8423 15.9278 12.3723 15.4678 12.3723 14.5978C12.3723 14.1478 12.4823 13.6178 12.6723 13.1178L13.6623 10.3378C14.0723 9.1378 14.5123 7.9678 16.0623 7.9678C17.1823 7.9678 17.9023 8.5878 17.9023 9.7178V14.0278H18.0223C18.6323 14.0278 18.9023 14.3778 18.9023 14.9778C18.9023 15.4578 18.7023 15.9278 18.0023 15.9278H17.9023V16.4978C17.9023 17.3278 17.4023 17.6578 16.7723 17.6578ZM15.6923 14.0978V9.8078H15.6423L14.3323 14.0178V14.0978Z" />
        </svg>
    