
        <svg xmlns="http://www.w3.org/2000/svg" viewBox="0 0 100 100">
            <path d="M12.2223 24.4436C18.9723 24.4436 24.4423 18.9636 24.4423 12.2236C24.4423 5.4736 18.9723 0.0036 12.2223 0.0036C5.4823 0.0036 0.0023 5.4736 0.0023 12.2236C0.0023 18.9636 5.4823 24.4436 12.2223 24.4436ZM8.8123 17.1936C8.2523 17.1936 7.8123 16.7436 7.8123 16.1836V9.2736L6.8623 10.0336C6.7123 10.1436 6.5823 10.2036 6.3723 10.2036C6.0123 10.2036 5.6923 9.9536 5.6923 9.4936C5.6923 9.1536 5.8723 8.9036 6.1323 8.7036L7.3323 7.7736C7.6723 7.5136 8.1023 7.2436 8.6523 7.2436C9.3623 7.2436 9.7923 7.6436 9.7923 8.3536V16.1836C9.7923 16.7436 9.3523 17.1936 8.8123 17.1936ZM16.0123 17.2136C15.5423 17.2136 15.0723 16.9436 15.0723 16.2536V15.2436H12.6323C11.9323 15.2436 11.5223 14.8236 11.5223 14.1536C11.5223 13.7436 11.5923 13.3736 11.7923 12.8936L13.5823 8.8136C13.9423 7.9236 14.3523 7.2536 15.4323 7.2536C16.3223 7.2536 16.9323 7.7736 16.9323 8.6936V13.6836H17.2623C17.7923 13.6836 18.0123 14.0036 18.0123 14.4636C18.0123 14.8936 17.8023 15.2436 17.2623 15.2436H16.9323V16.2536C16.9323 16.9136 16.5223 17.2136 16.0123 17.2136ZM15.1123 13.7336V8.8836H15.0723L13.1623 13.6536V13.7336Z" />
        </svg>
    