
        <svg xmlns="http://www.w3.org/2000/svg" viewBox="0 0 100 100">
            <path d="M4.3817 22.8467H18.4717C21.2617 22.8467 22.8517 21.2667 22.8517 18.4767V4.3667C22.8517 1.5867 21.2617 -0.0033 18.4717 -0.0033H4.3817C1.5917 -0.0033 0.0017 1.5867 0.0017 4.3667V18.4767C0.0017 21.2667 1.5917 22.8467 4.3817 22.8467ZM4.8717 19.2267C4.0417 19.2267 3.6217 18.8567 3.6217 17.9767V4.8867C3.6217 4.0067 4.0417 3.6367 4.8717 3.6367H17.9717C18.8017 3.6367 19.2217 4.0067 19.2217 4.8867V17.9767C19.2217 18.8567 18.8017 19.2267 17.9717 19.2267ZM8.3717 16.0167C8.9617 16.0167 9.4417 15.5367 9.4417 14.9367V8.0367C9.4417 7.2567 8.9617 6.8367 8.1917 6.8367C7.6217 6.8367 7.2117 7.0767 6.8217 7.3667L5.8317 8.1367C5.5317 8.3567 5.3817 8.6167 5.3817 8.9667C5.3817 9.4767 5.7417 9.7167 6.0917 9.7167C6.2917 9.7167 6.4317 9.6567 6.6117 9.5267L7.3017 8.9767V14.9367C7.3017 15.5367 7.7717 16.0167 8.3717 16.0167ZM15.0717 16.0267C15.6317 16.0267 16.0817 15.7267 16.0817 15.0067V14.3167H16.2417C16.8517 14.3167 17.0417 13.9267 17.0417 13.4867C17.0417 12.9767 16.7917 12.6567 16.2417 12.6567H16.0817V8.3767C16.0817 7.3967 15.4317 6.8567 14.4617 6.8567C13.1717 6.8567 12.7617 7.7767 12.3917 8.7967L11.1917 11.8467C11.0117 12.3067 10.9217 12.7467 10.9217 13.1567C10.9217 13.9067 11.3417 14.3167 12.1317 14.3167H14.0717V15.0067C14.0717 15.7267 14.5417 16.0267 15.0717 16.0267ZM14.1317 12.7267H12.6417V12.6367L14.0817 8.5067H14.1317Z" />
        </svg>
    