
        <svg xmlns="http://www.w3.org/2000/svg" viewBox="0 0 100 100">
            <path d="M11.7523 25.7594C18.2423 25.7594 23.5123 20.4994 23.5123 14.0094C23.5123 8.2394 19.3523 3.4494 13.9123 2.4494V0.6794C13.9123 0.0094 13.4423 -0.1906 12.8923 0.1994L9.2423 2.7594C8.7923 3.0894 8.7923 3.5394 9.2423 3.8594L12.8923 6.4194C13.4423 6.7994 13.9123 6.6094 13.9123 5.9294V3.9994C18.5123 4.9894 21.9923 9.0794 21.9923 14.0094C21.9923 19.6694 17.4123 24.2394 11.7523 24.2394C6.0923 24.2394 1.5223 19.6694 1.5223 14.0094C1.5223 10.4494 3.3423 7.3194 6.0923 5.5094C6.4523 5.2394 6.5723 4.8094 6.3523 4.4494C6.1323 4.0794 5.6223 3.9794 5.2223 4.2694C2.0723 6.3694 0.0023 9.9294 0.0023 14.0094C0.0023 20.4994 5.2623 25.7594 11.7523 25.7594ZM8.6923 18.7694C9.1023 18.7694 9.3523 18.4894 9.3523 18.0794V10.3094C9.3523 9.8494 9.0723 9.5794 8.6123 9.5794C8.2423 9.5794 7.9823 9.7394 7.6923 9.9694L6.1523 11.0894C5.9623 11.2294 5.8323 11.3794 5.8323 11.6294C5.8323 11.8994 6.0423 12.1194 6.3123 12.1194C6.4523 12.1194 6.5623 12.0794 6.6723 11.9894L8.0423 10.9894H8.0523V18.0794C8.0523 18.4894 8.2923 18.7694 8.6923 18.7694ZM14.2823 18.8494C16.0823 18.8494 17.2023 17.4894 17.2023 15.7094C17.2023 14.0994 16.2523 12.7694 14.6823 12.7694C13.8823 12.7694 13.1923 13.1294 12.8323 13.7694H12.7923L13.0523 10.7894H16.2423C16.5623 10.7894 16.7823 10.5594 16.7823 10.2494C16.7823 9.9194 16.5723 9.7094 16.2423 9.7094H12.7623C12.2323 9.7094 12.0023 9.9794 11.9623 10.4894L11.6623 14.1494C11.6323 14.5694 11.8623 14.8894 12.2723 14.8894C12.6023 14.8894 12.7523 14.7394 12.9423 14.4994C13.2623 14.0394 13.7423 13.7594 14.3123 13.7594C15.3523 13.7594 15.9423 14.6794 15.9423 15.7394C15.9423 16.8294 15.3423 17.7694 14.2823 17.7694C13.4623 17.7694 12.8923 17.2294 12.6523 16.5194C12.5423 16.2394 12.3423 16.0794 12.0823 16.0794C11.7423 16.0794 11.5423 16.2894 11.5423 16.6294C11.5423 16.7594 11.5523 16.8994 11.5923 17.0194C11.9023 18.1594 13.1123 18.8494 14.2823 18.8494Z" />
        </svg>
    