
        <svg xmlns="http://www.w3.org/2000/svg" viewBox="0 0 100 100">
            <path d="M11.3523 22.7064C17.6323 22.7064 22.7123 17.6264 22.7123 11.3564C22.7123 5.0764 17.6323 -0.0036 11.3523 -0.0036C5.0823 -0.0036 0.0023 5.0764 0.0023 11.3564C0.0023 17.6264 5.0823 22.7064 11.3523 22.7064ZM11.3523 22.1364C5.3923 22.1364 0.5723 17.3164 0.5723 11.3564C0.5723 5.3864 5.3923 0.5764 11.3523 0.5764C17.3223 0.5764 22.1323 5.3864 22.1323 11.3564C22.1323 17.3164 17.3223 22.1364 11.3523 22.1364ZM8.5523 16.1964C8.7323 16.1964 8.8823 16.0464 8.8823 15.8564V6.8864C8.8823 6.6764 8.7323 6.5264 8.5223 6.5264C8.3223 6.5264 8.1523 6.6164 8.0323 6.7364L6.3523 8.1464C6.2623 8.2164 6.2123 8.2864 6.2123 8.4064C6.2123 8.5664 6.3123 8.6964 6.4923 8.6964C6.5823 8.6964 6.6223 8.6764 6.6823 8.6264L8.2023 7.3964V15.8564C8.2023 16.0464 8.3623 16.1964 8.5523 16.1964ZM13.1623 16.2764C14.7623 16.2764 15.6023 14.6864 15.6023 13.0664C15.6023 11.4964 14.8323 9.9364 13.3223 9.9364C12.7023 9.9364 11.9623 10.2264 11.6123 11.0664H11.5823L11.8623 7.2464H14.8923C15.0823 7.2464 15.2023 7.1164 15.2023 6.9164C15.2023 6.7364 15.0723 6.6064 14.8923 6.6064H11.7623C11.4223 6.6064 11.2923 6.8364 11.2623 7.1364L10.9823 11.0164C10.9723 11.2064 10.9423 11.4464 10.9423 11.5264C10.9423 11.7564 11.0823 11.9064 11.2923 11.9064C11.5223 11.9064 11.6123 11.7564 11.7223 11.5564C12.0223 10.9564 12.5323 10.5364 13.2023 10.5364C14.3823 10.5364 14.9323 11.9064 14.9323 13.0764C14.9323 14.3564 14.3523 15.6564 13.1623 15.6564C12.2323 15.6564 11.5923 14.8564 11.4223 13.9564C11.3923 13.6864 11.2723 13.6164 11.1223 13.6164C10.9323 13.6164 10.8123 13.7464 10.8123 13.9464C10.8123 14.0364 10.8623 14.2164 10.8823 14.3164C11.1523 15.4464 11.9923 16.2764 13.1623 16.2764Z" />
        </svg>
    