
        <svg xmlns="http://www.w3.org/2000/svg" viewBox="0 0 100 100">
            <path d="M11.9523 23.9041C18.5523 23.9041 23.9023 18.5541 23.9023 11.9541C23.9023 5.3541 18.5523 0.0041 11.9523 0.0041C5.3523 0.0041 0.0023 5.3541 0.0023 11.9541C0.0023 18.5541 5.3523 23.9041 11.9523 23.9041ZM11.9523 21.9141C6.4423 21.9141 1.9923 17.4641 1.9923 11.9541C1.9923 6.4441 6.4423 1.9941 11.9523 1.9941C17.4623 1.9941 21.9123 6.4441 21.9123 11.9541C21.9123 17.4641 17.4623 21.9141 11.9523 21.9141ZM8.7523 16.8141C9.2123 16.8141 9.6023 16.4341 9.6023 15.9641V8.0141C9.6023 7.4141 9.2223 7.0641 8.6223 7.0641C8.1323 7.0641 7.7323 7.3341 7.4523 7.5441L6.1623 8.5441C5.9623 8.7041 5.8023 8.9341 5.8023 9.2341C5.8023 9.5941 6.0423 9.8541 6.4023 9.8541C6.5823 9.8541 6.6923 9.7941 6.8223 9.7141L7.9023 8.8441V15.9641C7.9023 16.4341 8.2823 16.8141 8.7523 16.8141ZM14.3323 16.9341C16.1523 16.9341 17.1523 15.3941 17.1523 13.5441C17.1523 11.9341 16.3823 10.4541 14.8723 10.4541C14.1823 10.4541 13.5423 10.7741 13.2423 11.4541H13.1823L13.3823 8.6041H16.1323C16.5323 8.6041 16.7823 8.3241 16.7823 7.9141C16.7823 7.5241 16.5223 7.2141 16.1323 7.2141H12.9123C12.2923 7.2141 12.0223 7.6141 11.9723 8.2241L11.7923 11.4341C11.7823 11.6141 11.7823 11.8041 11.7823 11.9541C11.7823 12.3941 12.0023 12.7941 12.5423 12.7941C12.8523 12.7941 13.0423 12.6641 13.2923 12.3541C13.5623 11.9641 13.8523 11.6841 14.3223 11.6841C15.1923 11.6841 15.5123 12.7241 15.5123 13.5941C15.5123 14.5641 15.1723 15.5641 14.3123 15.5641C13.6523 15.5641 13.2823 15.0941 13.0623 14.4541C12.9223 14.0741 12.6723 13.8941 12.3523 13.8941C11.9223 13.8941 11.6523 14.1641 11.6523 14.6041C11.6523 14.8741 11.7223 15.1241 11.8223 15.3641C12.2223 16.3141 13.2623 16.9341 14.3323 16.9341Z" />
        </svg>
    