
        <svg xmlns="http://www.w3.org/2000/svg" viewBox="0 0 100 100">
            <path d="M3.1617 20.742H17.5917C19.6617 20.742 20.7417 19.642 20.7417 17.592V3.152C20.7417 1.102 19.6617 0.002 17.5917 0.002H3.1617C1.0917 0.002 0.0017 1.082 0.0017 3.152V17.592C0.0017 19.662 1.0917 20.742 3.1617 20.742ZM3.1917 19.872C1.6617 19.872 0.8717 19.082 0.8717 17.552V3.202C0.8717 1.662 1.6617 0.872 3.1917 0.872H17.5517C19.0317 0.872 19.8717 1.662 19.8717 3.202V17.552C19.8717 19.082 19.0317 19.872 17.5517 19.872ZM7.4917 15.222C7.7217 15.222 7.9317 15.012 7.9317 14.752V6.022C7.9317 5.732 7.7317 5.532 7.4417 5.532C7.1717 5.532 6.9517 5.662 6.7817 5.802L5.1917 7.112C5.0817 7.202 5.0117 7.312 5.0117 7.472C5.0117 7.672 5.1417 7.842 5.3717 7.842C5.4717 7.842 5.5317 7.802 5.6017 7.742L7.0217 6.602V14.752C7.0217 15.012 7.2317 15.222 7.4917 15.222ZM12.3117 15.302C13.9717 15.302 14.8517 13.732 14.8517 12.042C14.8517 10.472 14.0717 8.932 12.5617 8.932C11.9317 8.932 11.2117 9.232 10.8617 10.032H10.8317L11.1017 6.432H14.0617C14.3017 6.432 14.4517 6.262 14.4517 6.022C14.4517 5.802 14.2817 5.622 14.0617 5.622H10.9117C10.5117 5.622 10.3517 5.892 10.3117 6.272L10.0517 9.982C10.0417 10.182 10.0317 10.402 10.0317 10.512C10.0317 10.782 10.1817 10.982 10.4717 10.982C10.7117 10.982 10.8317 10.842 10.9617 10.622C11.2617 10.062 11.7217 9.682 12.3517 9.682C13.4517 9.682 13.9617 10.972 13.9617 12.072C13.9617 13.282 13.4317 14.522 12.3017 14.522C11.4517 14.522 10.8617 13.792 10.6917 12.952C10.6217 12.652 10.4717 12.562 10.2917 12.562C10.0417 12.562 9.8917 12.722 9.8917 12.972C9.8917 13.112 9.9417 13.302 9.9817 13.442C10.2917 14.522 11.1717 15.302 12.3117 15.302Z" />
        </svg>
    