
        <svg xmlns="http://www.w3.org/2000/svg" viewBox="0 0 100 100">
            <path d="M4.3817 22.8467H18.4717C21.2617 22.8467 22.8517 21.2667 22.8517 18.4767V4.3667C22.8517 1.5867 21.2617 -0.0033 18.4717 -0.0033H4.3817C1.5917 -0.0033 0.0017 1.5867 0.0017 4.3667V18.4767C0.0017 21.2667 1.5917 22.8467 4.3817 22.8467ZM8.3117 16.3167C7.6717 16.3167 7.1717 15.8067 7.1717 15.1667V8.8267L6.4317 9.3967C6.2417 9.5367 6.0917 9.5967 5.8817 9.5967C5.5117 9.5967 5.1217 9.3467 5.1217 8.7967C5.1217 8.4267 5.3017 8.1467 5.6117 7.9067L6.6417 7.0967C7.0617 6.7867 7.5117 6.5267 8.1217 6.5267C8.9517 6.5267 9.4617 6.9867 9.4617 7.8067V15.1667C9.4617 15.8067 8.9517 16.3167 8.3117 16.3167ZM14.1517 16.4167C12.9217 16.4167 11.8717 15.6767 11.5317 14.7067C11.4617 14.4967 11.4217 14.2867 11.4217 14.0667C11.4217 13.5067 11.7617 13.1567 12.3117 13.1567C12.7417 13.1567 13.0917 13.3967 13.2517 13.8767C13.4017 14.3067 13.6517 14.6567 14.1017 14.6567C14.7417 14.6567 14.8917 13.6767 14.8917 12.9867C14.8917 12.2767 14.7117 11.3767 14.0717 11.3767C13.7617 11.3767 13.5317 11.6467 13.3617 11.9167C13.1417 12.2767 12.9117 12.3867 12.5117 12.3867C11.8717 12.3867 11.5117 11.9667 11.5117 11.2867C11.5117 11.1667 11.5217 10.9267 11.5317 10.8167L11.6617 7.8767C11.6917 7.1567 12.0217 6.6867 12.7217 6.6867H15.8917C16.4217 6.6867 16.7317 7.0467 16.7317 7.5867C16.7317 8.0767 16.4517 8.4567 15.8917 8.4567H13.4917L13.3517 10.8467H13.4217C13.6017 10.3467 14.1217 9.8467 14.9517 9.8467C16.4917 9.8467 17.0517 11.4567 17.0517 12.9367C17.0517 14.8567 16.0617 16.4167 14.1517 16.4167Z" />
        </svg>
    