
        <svg xmlns="http://www.w3.org/2000/svg" viewBox="0 0 100 100">
            <path d="M12.3723 24.7459C19.2023 24.7459 24.7523 19.2059 24.7523 12.3759C24.7523 5.5459 19.2023 -0.0041 12.3723 -0.0041C5.5423 -0.0041 0.0023 5.5459 0.0023 12.3759C0.0023 19.2059 5.5423 24.7459 12.3723 24.7459ZM15.0823 17.4159C12.6123 17.4159 11.9023 14.6559 11.9023 12.4459C11.9023 9.9859 12.6323 7.3459 15.1023 7.3459C16.2923 7.3459 17.3123 7.8959 17.5923 8.9659C17.6323 9.1159 17.6523 9.3059 17.6523 9.4359C17.6523 9.8859 17.4223 10.2959 16.8123 10.2959C16.3823 10.2959 16.1123 10.1259 15.9123 9.7059C15.7123 9.3159 15.4723 8.9959 15.0423 8.9959C14.1123 8.9959 13.8723 10.6259 13.8723 12.1259V12.5359H13.9123C14.1523 11.6259 14.8023 10.9459 15.7523 10.9459C17.2823 10.9459 17.9723 12.4559 17.9723 14.0159C17.9723 15.8659 16.9423 17.4159 15.0823 17.4159ZM9.0623 17.3059C8.4623 17.3059 7.9923 16.8359 7.9923 16.2559V9.5659L7.1323 10.2459C6.9723 10.3859 6.8323 10.4459 6.6223 10.4459C6.2623 10.4459 5.9023 10.1859 5.9023 9.6959C5.9023 9.3359 6.0723 9.0659 6.3623 8.8559L7.5023 7.9759C7.8723 7.6959 8.2923 7.4259 8.8823 7.4259C9.6423 7.4259 10.1123 7.8559 10.1123 8.6159V16.2559C10.1123 16.8359 9.6323 17.3059 9.0623 17.3059ZM15.0423 15.7759C15.6723 15.7759 15.9823 14.9859 15.9823 14.1259C15.9923 13.2559 15.7023 12.4659 15.0423 12.4659C14.4123 12.4659 14.1023 13.2059 14.1023 14.0659C14.1023 14.9459 14.3923 15.7759 15.0423 15.7759Z" />
        </svg>
    