
        <svg xmlns="http://www.w3.org/2000/svg" viewBox="0 0 100 100">
            <path d="M11.7523 23.5048C18.2423 23.5048 23.5123 18.2448 23.5123 11.7548C23.5123 5.2648 18.2423 0.0048 11.7523 0.0048C5.2623 0.0048 0.0023 5.2648 0.0023 11.7548C0.0023 18.2448 5.2623 23.5048 11.7523 23.5048ZM11.7523 21.9848C6.0923 21.9848 1.5223 17.4148 1.5223 11.7548C1.5223 6.0948 6.0923 1.5148 11.7523 1.5148C17.4123 1.5148 21.9923 6.0948 21.9923 11.7548C21.9923 17.4148 17.4123 21.9848 11.7523 21.9848ZM14.0023 16.7148C15.7223 16.7148 16.6923 15.1948 16.6923 13.4048C16.6923 11.8248 15.9223 10.3048 14.3623 10.3048C13.3623 10.3048 12.6423 11.0248 12.4023 12.0548H12.3523V11.9048C12.3523 10.4848 12.5423 7.9348 13.9923 7.9348C14.6323 7.9348 15.0323 8.4048 15.2423 9.0048C15.3723 9.2948 15.5523 9.4548 15.8823 9.4548C16.2423 9.4548 16.4223 9.2248 16.4223 8.9048C16.4223 8.7748 16.3923 8.6248 16.3523 8.4748C16.0923 7.4548 15.1523 6.8248 14.0323 6.8248C11.7023 6.8248 11.0623 9.6248 11.0623 11.9048C11.0623 14.1048 11.7423 16.7148 14.0023 16.7148ZM8.5123 16.6148C8.8723 16.6148 9.1723 16.3048 9.1723 15.9248V7.6448C9.1723 7.1748 8.8723 6.8748 8.4023 6.8748C8.0023 6.8748 7.6923 7.0848 7.4623 7.2748L6.0423 8.4148C5.8723 8.5448 5.7523 8.7148 5.7523 8.9648C5.7523 9.2548 5.9523 9.4648 6.2423 9.4648C6.4023 9.4648 6.4923 9.4248 6.5823 9.3548L7.8123 8.3548V15.9248C7.8123 16.3048 8.1223 16.6148 8.5123 16.6148ZM13.9923 15.5948C12.9923 15.5948 12.5523 14.3748 12.5523 13.3948C12.5523 12.4348 13.0423 11.3548 13.9823 11.3548C14.9623 11.3548 15.4023 12.4648 15.3823 13.4548C15.3823 14.4348 14.9323 15.5948 13.9923 15.5948Z" />
        </svg>
    