
        <svg xmlns="http://www.w3.org/2000/svg" viewBox="0 0 100 100">
            <path d="M12.6023 25.1986C19.5623 25.1986 25.2023 19.5586 25.2023 12.5986C25.2023 5.6386 19.5623 -0.0014 12.6023 -0.0014C5.6323 -0.0014 0.0023 5.6386 0.0023 12.5986C0.0023 19.5586 5.6323 25.1986 12.6023 25.1986ZM12.6023 21.5386C7.6523 21.5386 3.6523 17.5386 3.6523 12.5986C3.6523 7.6486 7.6523 3.6586 12.6023 3.6586C17.5423 3.6586 21.5423 7.6486 21.5423 12.5986C21.5423 17.5386 17.5423 21.5386 12.6023 21.5386ZM15.1723 17.2886C16.9323 17.2886 17.8723 15.8286 17.8723 14.1186C17.8723 12.6886 17.2723 11.2886 15.8623 11.2886C14.9723 11.2886 14.4223 11.9186 14.2123 12.7386H14.1923V12.2086C14.1923 10.7386 14.4423 9.5786 15.1323 9.5786C15.4723 9.5786 15.6423 9.8486 15.8123 10.1586C16.0323 10.5686 16.2923 10.7386 16.7223 10.7386C17.3323 10.7386 17.5623 10.3086 17.5623 9.8686C17.5623 9.7386 17.5523 9.5486 17.5123 9.4086C17.2223 8.3986 16.2823 7.9186 15.2023 7.9186C12.8823 7.9186 12.1923 10.3286 12.1923 12.6586C12.1923 14.6686 12.8323 17.2886 15.1723 17.2886ZM9.5023 17.1886C10.1023 17.1886 10.5823 16.7086 10.5823 16.1086V9.2086C10.5823 8.4286 10.1023 8.0086 9.3323 8.0086C8.7523 8.0086 8.3423 8.2486 7.9523 8.5386L6.9723 9.3086C6.6723 9.5286 6.5123 9.7886 6.5123 10.1386C6.5123 10.6486 6.8823 10.8886 7.2323 10.8886C7.4323 10.8886 7.5723 10.8286 7.7423 10.6986L8.4423 10.1486V16.1086C8.4423 16.7086 8.9023 17.1886 9.5023 17.1886ZM15.1423 15.6286C14.6323 15.6286 14.4023 14.9986 14.4023 14.1786C14.4023 13.3986 14.6523 12.7986 15.1423 12.7986C15.6323 12.7986 15.8623 13.4186 15.8623 14.2186C15.8623 15.0186 15.6223 15.6286 15.1423 15.6286Z" />
        </svg>
    