
        <svg xmlns="http://www.w3.org/2000/svg" viewBox="0 0 100 100">
            <path d="M4.5917 23.2359H18.6417C21.5417 23.2359 23.2417 21.5459 23.2417 18.6459V4.5959C23.2417 1.6959 21.5417 -0.0041 18.6417 -0.0041H4.5917C1.7017 -0.0041 0.0017 1.6959 0.0017 4.5959V18.6459C0.0017 21.5459 1.7017 23.2359 4.5917 23.2359ZM14.6017 16.5859C12.0917 16.5859 11.4117 13.7859 11.4117 11.6559C11.4117 9.1859 12.1517 6.6759 14.6217 6.6759C15.7617 6.6759 16.7617 7.1459 17.0817 8.2359C17.1317 8.3759 17.1417 8.6059 17.1417 8.7159C17.1417 9.2459 16.8917 9.7359 16.1717 9.7359C15.6917 9.7359 15.4017 9.5459 15.1517 9.0859C14.9717 8.7959 14.8517 8.5559 14.5417 8.5559C14.0117 8.5559 13.7117 9.3959 13.7117 11.0659V11.7559H13.7317C13.9317 10.9459 14.4817 10.2559 15.4117 10.2559C16.8917 10.2559 17.4717 11.7459 17.4717 13.2259C17.4717 15.0259 16.4917 16.5859 14.6017 16.5859ZM8.5417 16.4759C7.8517 16.4759 7.3117 15.9359 7.3117 15.2459V9.2059L6.7017 9.6759C6.4917 9.8459 6.3417 9.9059 6.1217 9.9059C5.7417 9.9059 5.3017 9.6559 5.3017 9.0459C5.3017 8.6559 5.4717 8.3759 5.8317 8.0959L6.7817 7.3859C7.2417 7.0359 7.6717 6.7859 8.3417 6.7859C9.2217 6.7859 9.7717 7.2559 9.7717 8.1559V15.2459C9.7717 15.9359 9.2217 16.4759 8.5417 16.4759ZM14.5517 14.7059C14.9617 14.7059 15.1917 14.2059 15.1917 13.3459C15.1917 12.4959 14.9617 11.9659 14.5517 11.9659C14.1417 11.9659 13.9317 12.4659 13.9317 13.2859C13.9317 14.1759 14.1417 14.7059 14.5517 14.7059Z" />
        </svg>
    