
        <svg xmlns="http://www.w3.org/2000/svg" viewBox="0 0 100 100">
            <path d="M3.6817 21.5722H17.8917C20.3517 21.5722 21.5717 20.3722 21.5717 17.9522V3.6322C21.5717 1.2222 20.3517 0.0022 17.8917 0.0022H3.6817C1.2317 0.0022 0.0017 1.2222 0.0017 3.6322V17.9522C0.0017 20.3722 1.2317 21.5722 3.6817 21.5722ZM13.3717 15.9122C10.9217 15.9122 10.1917 13.1822 10.1917 10.9022C10.1917 8.4522 10.9117 5.6722 13.3817 5.6722C14.6117 5.6722 15.6517 6.3122 15.9017 7.3622C15.9517 7.5122 15.9617 7.6622 15.9617 7.7922C15.9617 8.1922 15.7617 8.5222 15.2717 8.5222C14.8717 8.5222 14.6417 8.3522 14.4717 7.9822C14.2617 7.4722 13.9117 7.0922 13.3517 7.0922C12.0117 7.0922 11.8517 9.5122 11.8517 10.8522V10.9822H11.8917C12.1717 9.9522 12.9117 9.2922 13.8917 9.2922C15.4917 9.2922 16.2817 10.8422 16.2817 12.4722C16.2817 14.3622 15.2117 15.9122 13.3717 15.9122ZM7.3717 15.7922C6.8817 15.7922 6.4717 15.4022 6.4717 14.9022V7.5822L5.3717 8.4722C5.2517 8.5622 5.1217 8.6222 4.9317 8.6222C4.5717 8.6222 4.3117 8.3522 4.3117 7.9822C4.3117 7.6622 4.4717 7.4322 4.7017 7.2622L6.0217 6.2322C6.3017 6.0222 6.7117 5.7422 7.2317 5.7422C7.8617 5.7422 8.2517 6.1022 8.2517 6.7222V14.9022C8.2517 15.4022 7.8517 15.7922 7.3717 15.7922ZM13.3517 14.4922C14.1917 14.4922 14.5917 13.4322 14.5917 12.5522C14.6117 11.6622 14.2417 10.6122 13.3517 10.6122C12.4817 10.6122 12.0717 11.6122 12.0717 12.4922C12.0717 13.3622 12.4417 14.4922 13.3517 14.4922Z" />
        </svg>
    