
        <svg xmlns="http://www.w3.org/2000/svg" viewBox="0 0 100 100">
            <path d="M3.8417 21.8745H18.0317C20.5617 21.8745 21.8817 20.5745 21.8817 18.0745V3.8045C21.8817 1.3145 20.5617 0.0045 18.0317 0.0045H3.8417C1.3117 0.0045 0.0017 1.3045 0.0017 3.8045V18.0745C0.0017 20.5745 1.3117 21.8745 3.8417 21.8745ZM13.5917 16.0345C11.1317 16.0345 10.4217 13.2845 10.4217 11.0345C10.4217 8.5745 11.1317 5.8545 13.6217 5.8545C14.8117 5.8545 15.8517 6.4545 16.1117 7.5245C16.1617 7.6645 16.1717 7.8245 16.1717 7.9645C16.1717 8.3745 15.9617 8.7445 15.4217 8.7445C15.0217 8.7445 14.7817 8.5645 14.6017 8.1845C14.3917 7.7245 14.0717 7.3445 13.5717 7.3445C12.3717 7.3445 12.1917 9.4945 12.1917 10.8845V11.1245H12.2217C12.4917 10.1245 13.1917 9.4645 14.1517 9.4645C15.7417 9.4645 16.4917 11.0045 16.4917 12.6045C16.4917 14.4845 15.4417 16.0345 13.5917 16.0345ZM7.5817 15.9245C7.0517 15.9245 6.6217 15.5045 6.6217 14.9645V7.8745L5.6117 8.6845C5.4717 8.8045 5.3417 8.8545 5.1517 8.8545C4.7817 8.8545 4.4917 8.5945 4.4917 8.1845C4.4917 7.8545 4.6517 7.5945 4.9017 7.4145L6.1517 6.4345C6.4717 6.1945 6.8917 5.9345 7.4317 5.9345C8.1117 5.9345 8.5217 6.3045 8.5217 6.9845V14.9645C8.5217 15.5045 8.1017 15.9245 7.5817 15.9245ZM13.5617 14.5345C14.3317 14.5345 14.6917 13.5745 14.6917 12.6945C14.7117 11.8145 14.3717 10.8645 13.5617 10.8645C12.7717 10.8645 12.4117 11.7645 12.4117 12.6445C12.4117 13.5145 12.7517 14.5345 13.5617 14.5345Z" />
        </svg>
    