
        <svg xmlns="http://www.w3.org/2000/svg" viewBox="0 0 100 100">
            <path d="M3.8417 21.8745H18.0317C20.5617 21.8745 21.8817 20.5745 21.8817 18.0745V3.8045C21.8817 1.3145 20.5617 0.0045 18.0317 0.0045H3.8417C1.3117 0.0045 0.0017 1.3045 0.0017 3.8045V18.0745C0.0017 20.5745 1.3117 21.8745 3.8417 21.8745ZM8.2717 15.9245C7.7417 15.9245 7.3217 15.5045 7.3217 14.9645V7.8745L6.2917 8.6845C6.1617 8.8045 6.0317 8.8545 5.8317 8.8545C5.4717 8.8545 5.1817 8.5945 5.1817 8.1845C5.1817 7.8545 5.3417 7.5945 5.5917 7.4145L6.8417 6.4345C7.1617 6.1945 7.5817 5.9345 8.1217 5.9345C8.8017 5.9345 9.2117 6.3045 9.2117 6.9845V14.9645C9.2117 15.5045 8.7917 15.9245 8.2717 15.9245ZM12.6917 15.9445C12.0817 15.9445 11.8517 15.5245 11.8517 15.1545C11.8517 14.8545 11.8917 14.6845 11.9917 14.4145L14.5417 7.7145V7.6045H11.6017C11.1717 7.6045 10.8617 7.2845 10.8617 6.8345C10.8617 6.4145 11.1517 6.0845 11.6017 6.0845H15.4217C15.9917 6.0845 16.4417 6.4645 16.4417 7.0545C16.4417 7.4445 16.3517 7.7445 16.2217 8.1245L13.5617 15.3045C13.3917 15.7645 13.1817 15.9445 12.6917 15.9445Z" />
        </svg>
    