
        <svg xmlns="http://www.w3.org/2000/svg" viewBox="0 0 100 100">
            <path d="M4.3817 22.8467H18.4717C21.2617 22.8467 22.8517 21.2667 22.8517 18.4767V4.3667C22.8517 1.5867 21.2617 -0.0033 18.4717 -0.0033H4.3817C1.5917 -0.0033 0.0017 1.5867 0.0017 4.3667V18.4767C0.0017 21.2667 1.5917 22.8467 4.3817 22.8467ZM4.8717 19.2267C4.0417 19.2267 3.6217 18.8567 3.6217 17.9767V4.8867C3.6217 4.0067 4.0417 3.6367 4.8717 3.6367H17.9717C18.8017 3.6367 19.2217 4.0067 19.2217 4.8867V17.9767C19.2217 18.8567 18.8017 19.2267 17.9717 19.2267ZM8.9017 16.0167C9.4917 16.0167 9.9717 15.5367 9.9717 14.9367V8.0367C9.9717 7.2567 9.5017 6.8367 8.7217 6.8367C8.1417 6.8367 7.7317 7.0767 7.3517 7.3667L6.3717 8.1367C6.0717 8.3567 5.9017 8.6167 5.9017 8.9667C5.9017 9.4767 6.2717 9.7167 6.6217 9.7167C6.8217 9.7167 6.9617 9.6567 7.1417 9.5267L7.8317 8.9767V14.9367C7.8317 15.5367 8.3117 16.0167 8.9017 16.0167ZM13.1917 16.0167C13.7417 16.0167 13.9917 15.8067 14.1517 15.3467L16.3217 9.1667C16.4717 8.7567 16.5617 8.4267 16.5617 8.0067C16.5617 7.3867 16.0817 6.9867 15.4717 6.9867H12.1517C11.6217 6.9867 11.3317 7.3567 11.3317 7.8067C11.3317 8.2867 11.6517 8.6367 12.1517 8.6367H14.4117V8.7567L12.3917 14.3767C12.2917 14.6367 12.2317 14.8467 12.2317 15.1367C12.2317 15.5467 12.4917 16.0167 13.1917 16.0167Z" />
        </svg>
    