
        <svg xmlns="http://www.w3.org/2000/svg" viewBox="0 0 100 100">
            <path d="M12.6023 25.1986C19.5623 25.1986 25.2023 19.5586 25.2023 12.5986C25.2023 5.6386 19.5623 -0.0014 12.6023 -0.0014C5.6323 -0.0014 0.0023 5.6386 0.0023 12.5986C0.0023 19.5586 5.6323 25.1986 12.6023 25.1986ZM12.6023 21.5386C7.6523 21.5386 3.6523 17.5386 3.6523 12.5986C3.6523 7.6486 7.6523 3.6586 12.6023 3.6586C17.5423 3.6586 21.5423 7.6486 21.5423 12.5986C21.5423 17.5386 17.5423 21.5386 12.6023 21.5386ZM15.1723 17.2686C16.8423 17.2686 18.1423 16.3286 18.1423 14.6486C18.1423 13.5186 17.4823 12.5986 16.5023 12.3886V12.3486C17.3323 12.0786 17.9223 11.3186 17.9223 10.3586C17.9223 8.8986 16.7723 7.9486 15.1723 7.9486C13.7223 7.9486 12.4323 8.7686 12.4323 10.3586C12.4323 11.4486 13.1223 12.1186 13.8623 12.3486V12.3886C12.9123 12.5886 12.2023 13.5086 12.2023 14.6486C12.2023 16.2786 13.4623 17.2686 15.1723 17.2686ZM9.6223 17.1886C10.2023 17.1886 10.6923 16.7086 10.6923 16.1086V9.2086C10.6923 8.4286 10.2223 8.0086 9.4423 8.0086C8.8623 8.0086 8.4523 8.2486 8.0623 8.5386L7.0923 9.3086C6.7823 9.5286 6.6223 9.7886 6.6223 10.1386C6.6223 10.6486 6.9823 10.8886 7.3323 10.8886C7.5323 10.8886 7.6723 10.8286 7.8523 10.6986L8.5423 10.1486V16.1086C8.5423 16.7086 9.0223 17.1886 9.6223 17.1886ZM15.1723 11.7286C14.7423 11.7286 14.4923 11.2286 14.4923 10.5786C14.4923 9.9186 14.7423 9.4186 15.1723 9.4186C15.6223 9.4186 15.8623 9.9186 15.8623 10.5786C15.8623 11.2586 15.6223 11.7286 15.1723 11.7286ZM15.1723 15.7886C14.6823 15.7886 14.4123 15.2486 14.4123 14.4886C14.4123 13.7486 14.6823 13.2086 15.1723 13.2086C15.6523 13.2086 15.9523 13.7386 15.9523 14.4886C15.9523 15.2486 15.6723 15.7886 15.1723 15.7886Z" />
        </svg>
    