
        <svg xmlns="http://www.w3.org/2000/svg" viewBox="0 0 100 100">
            <path d="M11.4923 22.977C17.8323 22.977 22.9823 17.847 22.9823 11.497C22.9823 5.147 17.8323 -0.003 11.4923 -0.003C5.1423 -0.003 0.0023 5.147 0.0023 11.497C0.0023 17.847 5.1423 22.977 11.4923 22.977ZM11.4923 22.087C5.6323 22.087 0.8923 17.357 0.8923 11.497C0.8923 5.637 5.6323 0.887 11.4923 0.887C17.3523 0.887 22.0923 5.637 22.0923 11.497C22.0923 17.357 17.3523 22.087 11.4923 22.087ZM13.5323 16.397C15.1523 16.397 16.2223 15.237 16.2223 13.667C16.2223 12.507 15.5123 11.447 14.5523 11.237V11.217C15.4123 10.907 15.9623 10.067 15.9623 9.097C15.9623 7.707 15.0423 6.607 13.5323 6.607C12.1323 6.607 11.1323 7.637 11.1323 9.097C11.1323 10.117 11.6623 10.907 12.5523 11.217V11.237C11.5523 11.457 10.8623 12.497 10.8623 13.667C10.8623 15.207 11.9023 16.397 13.5323 16.397ZM8.5523 16.347C8.7923 16.347 9.0023 16.137 9.0023 15.877V7.147C9.0023 6.857 8.8023 6.657 8.4923 6.657C8.2423 6.657 8.0123 6.787 7.8523 6.927L6.2623 8.237C6.1423 8.327 6.0823 8.437 6.0823 8.597C6.0823 8.797 6.2123 8.967 6.4223 8.967C6.5423 8.967 6.6023 8.927 6.6723 8.867L8.0823 7.727V15.877C8.0823 16.137 8.2923 16.347 8.5523 16.347ZM13.5423 10.887C12.7123 10.887 12.0123 10.217 12.0123 9.167C12.0123 8.147 12.6323 7.357 13.5423 7.357C14.5523 7.357 15.0823 8.247 15.0823 9.167C15.0823 10.157 14.4423 10.887 13.5423 10.887ZM13.5423 15.647C12.4423 15.647 11.7923 14.717 11.7923 13.617C11.7923 12.507 12.4523 11.647 13.5423 11.647C14.5423 11.647 15.2923 12.397 15.2923 13.617C15.2923 14.707 14.6523 15.647 13.5423 15.647Z" />
        </svg>
    