
        <svg xmlns="http://www.w3.org/2000/svg" viewBox="0 0 100 100">
            <path d="M3.6817 21.5722H17.8917C20.3517 21.5722 21.5717 20.3722 21.5717 17.9522V3.6322C21.5717 1.2222 20.3517 0.0022 17.8917 0.0022H3.6817C1.2317 0.0022 0.0017 1.2222 0.0017 3.6322V17.9522C0.0017 20.3722 1.2317 21.5722 3.6817 21.5722ZM13.4317 15.8822C11.6517 15.8822 10.2917 14.8222 10.2917 13.0322C10.2917 11.7222 11.0817 10.7722 12.1217 10.5322V10.5022C11.3417 10.2622 10.5717 9.5422 10.5717 8.3122C10.5717 6.6122 11.9317 5.6922 13.4317 5.6922C15.1317 5.6922 16.3017 6.7522 16.3017 8.3222C16.3017 9.4722 15.5717 10.2522 14.7617 10.5022V10.5322C15.7217 10.7622 16.5617 11.7022 16.5617 13.0322C16.5617 14.6822 15.3417 15.8822 13.4317 15.8822ZM7.5217 15.7922C7.0317 15.7922 6.6317 15.4022 6.6317 14.9022V7.5822L5.5317 8.4722C5.4017 8.5622 5.2817 8.6222 5.0817 8.6222C4.7217 8.6222 4.4717 8.3522 4.4717 7.9822C4.4717 7.6622 4.6417 7.4322 4.8517 7.2622L6.1717 6.2322C6.4717 6.0222 6.8817 5.7422 7.3917 5.7422C8.0017 5.7422 8.4117 6.1022 8.4117 6.7222V14.9022C8.4117 15.4022 7.9917 15.7922 7.5217 15.7922ZM13.4317 9.9522C14.1917 9.9522 14.5917 9.2822 14.5917 8.4822C14.5917 7.7122 14.2117 6.9922 13.4317 6.9922C12.6817 6.9922 12.2617 7.7122 12.2617 8.4822C12.2617 9.2022 12.6517 9.9522 13.4317 9.9522ZM13.4317 14.5622C14.3117 14.5622 14.7417 13.7822 14.7417 12.8922C14.7417 11.9722 14.2817 11.2522 13.4317 11.2522C12.5617 11.2522 12.1217 12.0222 12.1217 12.8922C12.1217 13.7822 12.5517 14.5622 13.4317 14.5622Z" />
        </svg>
    