
        <svg xmlns="http://www.w3.org/2000/svg" viewBox="0 0 100 100">
            <path d="M11.3523 22.7064C17.6323 22.7064 22.7123 17.6264 22.7123 11.3564C22.7123 5.0764 17.6323 -0.0036 11.3523 -0.0036C5.0823 -0.0036 0.0023 5.0764 0.0023 11.3564C0.0023 17.6264 5.0823 22.7064 11.3523 22.7064ZM11.3523 22.1364C5.3923 22.1364 0.5723 17.3164 0.5723 11.3564C0.5723 5.3864 5.3923 0.5764 11.3523 0.5764C17.3223 0.5764 22.1323 5.3864 22.1323 11.3564C22.1323 17.3164 17.3223 22.1364 11.3523 22.1364ZM12.9123 12.8164C14.0623 12.8164 14.7823 11.9564 14.9923 10.8364H15.0323V11.0464C15.0323 12.7164 14.7823 15.6364 12.9923 15.6364C12.1723 15.6364 11.6823 15.0264 11.4223 14.1564C11.3423 13.8764 11.2423 13.7764 11.0823 13.7764C10.8823 13.7764 10.7823 13.9064 10.7823 14.0964C10.7823 14.2064 10.8123 14.3664 10.8723 14.5464C11.1723 15.5964 11.9723 16.2564 13.0123 16.2564C15.1723 16.2564 15.6923 13.2864 15.6923 11.1464C15.6923 8.9764 15.0823 6.4364 13.0323 6.4364C11.4723 6.4364 10.6023 7.9764 10.6023 9.7064C10.6023 11.2964 11.3623 12.8164 12.9123 12.8164ZM8.4623 16.1964C8.6323 16.1964 8.8023 16.0464 8.8023 15.8564V6.8864C8.8023 6.6764 8.6323 6.5264 8.4423 6.5264C8.2223 6.5264 8.0723 6.6164 7.9323 6.7364L6.2623 8.1464C6.1623 8.2164 6.1323 8.2864 6.1323 8.4064C6.1323 8.5664 6.2223 8.6964 6.4023 8.6964C6.4923 8.6964 6.5423 8.6764 6.6023 8.6264L8.1123 7.3964V15.8564C8.1123 16.0464 8.2723 16.1964 8.4623 16.1964ZM13.0323 12.2264C11.8523 12.2264 11.2623 10.9064 11.2623 9.7164C11.2623 8.4564 11.8523 7.0464 13.0323 7.0464C14.2523 7.0464 14.8723 8.4964 14.8723 9.7164C14.8723 10.9464 14.1923 12.2264 13.0323 12.2264Z" />
        </svg>
    