
        <svg xmlns="http://www.w3.org/2000/svg" viewBox="0 0 100 100">
            <path d="M3.6817 21.5722H17.8917C20.3517 21.5722 21.5717 20.3722 21.5717 17.9522V3.6322C21.5717 1.2222 20.3517 0.0022 17.8917 0.0022H3.6817C1.2317 0.0022 0.0017 1.2222 0.0017 3.6322V17.9522C0.0017 20.3722 1.2317 21.5722 3.6817 21.5722ZM3.7017 19.6922C2.5317 19.6922 1.8917 19.0622 1.8917 17.8522V3.7422C1.8917 2.5222 2.5317 1.8822 3.7017 1.8822H17.8717C19.0317 1.8822 19.6917 2.5222 19.6917 3.7422V17.8522C19.6917 19.0622 19.0317 19.6922 17.8717 19.6922ZM12.5817 12.2422C13.5317 12.2422 14.2617 11.6122 14.5217 10.6022H14.5617V10.7322C14.5617 12.0322 14.4117 14.3822 13.1017 14.3822C12.5717 14.3822 12.2217 14.0122 12.0117 13.5122C11.8317 13.1222 11.6017 12.9722 11.2517 12.9722C10.7717 12.9722 10.5617 13.3022 10.5617 13.6922C10.5617 13.8322 10.5817 13.9722 10.6217 14.1122C10.8717 15.1322 11.8917 15.7522 13.0617 15.7522C15.4717 15.7522 16.1717 13.0922 16.1717 10.6922C16.1717 8.4722 15.4617 5.8222 13.0817 5.8222C11.3017 5.8222 10.2617 7.3222 10.2617 9.1622C10.2617 10.7422 11.0317 12.2422 12.5817 12.2422ZM7.6317 15.6422C8.0817 15.6422 8.4717 15.2622 8.4717 14.7922V6.8422C8.4717 6.2422 8.1017 5.8922 7.4917 5.8922C6.9917 5.8922 6.6017 6.1622 6.3317 6.3722L5.0417 7.3722C4.8317 7.5322 4.6617 7.7622 4.6617 8.0622C4.6617 8.4222 4.9117 8.6822 5.2617 8.6822C5.4517 8.6822 5.5617 8.6222 5.6817 8.5422L6.7617 7.6722V14.7922C6.7617 15.2622 7.1517 15.6422 7.6317 15.6422ZM13.1017 10.9522C12.2417 10.9522 11.8917 9.9622 11.8917 9.0922C11.8917 8.2122 12.2917 7.1822 13.1017 7.1822C13.9917 7.1822 14.3417 8.2122 14.3417 9.0922C14.3417 9.9922 13.9617 10.9522 13.1017 10.9522Z" />
        </svg>
    