
        <svg xmlns="http://www.w3.org/2000/svg" viewBox="0 0 100 100">
            <path d="M17.6823 23.1373C24.0723 23.1373 29.2423 17.9573 29.2423 11.5673C29.2423 5.1773 24.0723 -0.0027 17.6823 -0.0027C11.2923 -0.0027 6.1123 5.1773 6.1123 11.5673C6.1123 17.9573 11.2923 23.1373 17.6823 23.1373ZM35.3523 11.5673C35.3523 7.7773 34.1123 4.2373 31.9823 1.3873C31.5023 0.7373 30.6723 0.6773 30.0623 1.1673C29.4623 1.6873 29.4223 2.4473 29.8923 3.0673C31.6523 5.4773 32.6623 8.4173 32.6623 11.5673C32.6623 14.7173 31.6523 17.6573 29.8923 20.0473C29.4423 20.6873 29.4723 21.4473 30.0623 21.9473C30.6723 22.4573 31.5023 22.3973 31.9923 21.7473C34.1123 18.8773 35.3523 15.3473 35.3523 11.5673ZM0.0023 11.5673C0.0023 15.3473 1.2323 18.8773 3.3623 21.7473C3.8523 22.3973 4.6923 22.4573 5.2923 21.9473C5.8823 21.4473 5.9223 20.6873 5.4623 20.0473C3.7023 17.6573 2.6923 14.7173 2.6923 11.5673C2.6923 8.4173 3.7023 5.4773 5.4623 3.0673C5.9323 2.4473 5.8923 1.6873 5.2923 1.1673C4.6923 0.6773 3.8523 0.7373 3.3723 1.3873C1.2323 4.2373 0.0023 7.7773 0.0023 11.5673ZM17.6823 20.4473C12.7823 20.4473 8.8023 16.4673 8.8023 11.5673C8.8023 6.6673 12.7823 2.6873 17.6823 2.6873C22.5823 2.6873 26.5523 6.6673 26.5523 11.5673C26.5523 16.4673 22.5823 20.4473 17.6823 20.4473ZM15.0323 16.7973H20.9323C21.5723 16.7973 22.0123 16.4073 22.0123 15.7873C22.0123 15.1673 21.5823 14.7873 20.9323 14.7873H17.4123V14.6973L19.6723 12.3673C20.8323 11.2373 21.5323 10.3273 21.5323 9.1073C21.5323 7.2773 20.0023 6.0573 17.7323 6.0573C15.9523 6.0573 14.4223 7.0173 14.0023 8.3573C13.9423 8.5473 13.9223 8.7173 13.9223 8.9073C13.9223 9.5073 14.3423 9.8573 14.9623 9.8573C15.4923 9.8573 15.7523 9.5673 15.9823 9.2273C16.2923 8.6373 16.7823 8.0173 17.7023 8.0173C18.6023 8.0173 19.1823 8.5173 19.1823 9.2973C19.1823 10.0173 18.6123 10.6373 17.8723 11.3573L14.4523 14.8273C14.0823 15.1473 13.9723 15.4673 13.9723 15.8073C13.9723 16.3973 14.3923 16.7973 15.0323 16.7973Z" />
        </svg>
    