
        <svg xmlns="http://www.w3.org/2000/svg" viewBox="0 0 100 100">
            <path d="M11.4923 22.977C17.8123 22.977 22.9823 17.827 22.9823 11.497C22.9823 5.167 17.8123 -0.003 11.4923 -0.003C5.1723 -0.003 0.0023 5.167 0.0023 11.497C0.0023 17.827 5.1723 22.977 11.4923 22.977ZM8.8923 16.727C8.6023 16.727 8.4223 16.547 8.4223 16.287C8.4223 16.137 8.4723 16.027 8.5923 15.887L12.6423 11.437C13.5023 10.497 13.9323 9.757 13.9323 8.907C13.9323 7.677 13.0423 6.887 11.6523 6.887C10.2623 6.887 9.3023 7.747 9.1623 8.867C9.1123 9.097 8.9923 9.237 8.7323 9.237C8.4723 9.237 8.3123 9.057 8.3123 8.817C8.3123 8.697 8.3323 8.587 8.3523 8.457C8.5823 7.077 9.9923 6.097 11.6223 6.097C13.5623 6.097 14.8123 7.197 14.8123 8.887C14.8123 9.937 14.3123 10.797 13.1123 12.107L9.7123 15.857V15.917H14.8823C15.1123 15.917 15.2923 16.077 15.2923 16.327C15.2923 16.547 15.1123 16.727 14.8823 16.727Z" />
        </svg>
    