
        <svg xmlns="http://www.w3.org/2000/svg" viewBox="0 0 100 100">
            <path d="M3.4617 21.2264H17.7617C20.0517 21.2264 21.2217 20.0464 21.2217 17.7964V3.4264C21.2217 1.1764 20.0517 -0.0036 17.7617 -0.0036H3.4617C1.1717 -0.0036 0.0017 1.1564 0.0017 3.4264V17.7964C0.0017 20.0664 1.1717 21.2264 3.4617 21.2264ZM7.9317 15.9864C7.5017 15.9864 7.2417 15.7264 7.2417 15.3364C7.2417 15.1264 7.3217 14.9564 7.5017 14.7564L11.4417 10.4764C12.2117 9.6464 12.8317 8.9064 12.8317 8.0364C12.8317 6.9464 12.0117 6.2264 10.7417 6.2264C9.4917 6.2264 8.7217 7.0464 8.4717 7.9364C8.3317 8.2264 8.1517 8.4364 7.7917 8.4364C7.4217 8.4364 7.1617 8.1864 7.1617 7.8164C7.1617 7.6764 7.1817 7.5464 7.2217 7.3864C7.5517 6.0264 9.0217 5.0064 10.7017 5.0064C12.8017 5.0064 14.1817 6.1764 14.1817 7.9464C14.1817 9.1664 13.5317 10.0764 12.4117 11.2964L9.3317 14.6464V14.7264H14.0517C14.4217 14.7264 14.6917 14.9664 14.6917 15.3564C14.6917 15.7264 14.4217 15.9864 14.0517 15.9864Z" />
        </svg>
    