
        <svg xmlns="http://www.w3.org/2000/svg" viewBox="0 0 100 100">
            <path d="M3.9717 22.1117H18.1317C20.7317 22.1117 22.1017 20.7417 22.1017 18.1717V3.9417C22.1017 1.3717 20.7317 0.0017 18.1317 0.0017H3.9717C1.3817 0.0017 0.0017 1.3717 0.0017 3.9417V18.1717C0.0017 20.7417 1.3817 22.1117 3.9717 22.1117ZM8.3417 16.5217C7.6517 16.5217 7.2117 16.1017 7.2117 15.4817C7.2117 15.1317 7.3317 14.7917 7.7117 14.4417L11.2817 10.8317C12.0617 10.0817 12.6517 9.4317 12.6517 8.6817C12.6517 7.8817 12.0617 7.3617 11.1317 7.3617C10.1717 7.3617 9.6517 8.0017 9.3417 8.6117C9.1017 8.9617 8.8217 9.2817 8.2717 9.2817C7.6017 9.2817 7.1617 8.9017 7.1617 8.2717C7.1617 8.0817 7.1817 7.8817 7.2517 7.6917C7.7017 6.3017 9.2917 5.2817 11.1417 5.2817C13.5317 5.2817 15.1317 6.5717 15.1317 8.4717C15.1317 9.7517 14.4117 10.7217 13.1917 11.8917L10.8517 14.3117V14.4017H14.4917C15.2017 14.4017 15.6417 14.8017 15.6417 15.4617C15.6417 16.1117 15.1917 16.5217 14.4917 16.5217Z" />
        </svg>
    