
        <svg xmlns="http://www.w3.org/2000/svg" viewBox="0 0 100 100">
            <path d="M11.9523 23.9041C18.5523 23.9041 23.9023 18.5541 23.9023 11.9541C23.9023 5.3541 18.5523 0.0041 11.9523 0.0041C5.3523 0.0041 0.0023 5.3541 0.0023 11.9541C0.0023 18.5541 5.3523 23.9041 11.9523 23.9041ZM11.9523 21.9141C6.4423 21.9141 1.9923 17.4641 1.9923 11.9541C1.9923 6.4441 6.4423 1.9941 11.9523 1.9941C17.4623 1.9941 21.9123 6.4441 21.9123 11.9541C21.9123 17.4641 17.4623 21.9141 11.9523 21.9141ZM6.4523 16.6841H10.5223C10.9423 16.6841 11.1923 16.4141 11.1923 16.0041C11.1923 15.5641 10.9323 15.3141 10.5223 15.3141H7.7423V15.2241L9.4523 13.0541C10.6323 11.6041 11.0123 10.7341 11.0123 9.7041C11.0123 8.1241 9.9423 6.9741 8.3223 6.9741C6.8223 6.9741 5.6823 8.2141 5.6823 9.4341C5.6823 9.8641 5.9423 10.1741 6.3823 10.1741C6.7723 10.1741 7.0123 9.9941 7.1223 9.6141C7.3523 8.8241 7.6423 8.3341 8.3123 8.3341C9.0223 8.3341 9.4123 8.9541 9.4123 9.7841C9.4123 10.7241 8.7623 11.6741 8.1423 12.4641L6.1023 15.0741C5.8823 15.3541 5.6723 15.6441 5.6723 16.0041C5.6723 16.4041 5.9323 16.6841 6.4523 16.6841ZM15.4523 16.9341C17.7923 16.9341 18.4823 14.3041 18.4823 11.9541C18.4823 9.5941 17.7923 6.9741 15.4523 6.9741C13.1123 6.9741 12.4223 9.5941 12.4223 11.9541C12.4223 14.3041 13.1123 16.9341 15.4523 16.9341ZM15.4523 15.5341C14.4923 15.5341 14.1323 13.9841 14.1323 11.9541C14.1323 9.9141 14.4923 8.3541 15.4523 8.3541C16.4023 8.3541 16.7723 9.9141 16.7723 11.9541C16.7723 13.9841 16.4023 15.5341 15.4523 15.5341Z" />
        </svg>
    