
        <svg xmlns="http://www.w3.org/2000/svg" viewBox="0 0 100 100">
            <path d="M12.7923 25.5978C19.8723 25.5978 25.6023 19.8678 25.6023 12.7978C25.6023 5.7278 19.8723 -0.0022 12.7923 -0.0022C5.7323 -0.0022 0.0023 5.7278 0.0023 12.7978C0.0023 19.8678 5.7323 25.5978 12.7923 25.5978ZM12.7923 21.4178C8.0323 21.4178 4.1723 17.5678 4.1723 12.7978C4.1723 8.0278 8.0323 4.1678 12.7923 4.1678C17.5623 4.1678 21.4323 8.0278 21.4323 12.7978C21.4323 17.5678 17.5623 21.4178 12.7923 21.4178ZM15.9723 17.3878C18.2423 17.3878 18.9423 14.9878 18.9423 12.7978C18.9423 10.6078 18.2423 8.1878 15.9723 8.1878C13.7123 8.1878 13.0123 10.6078 13.0123 12.7978C13.0123 14.9878 13.7123 17.3878 15.9723 17.3878ZM7.7723 17.1578H11.3223C11.9323 17.1578 12.1623 16.7378 12.1623 16.2878C12.1623 15.8478 11.9323 15.4178 11.3223 15.4178H9.3423V15.3278L10.5223 13.9178C11.3923 12.8978 12.0223 12.0678 12.0223 10.8178C12.0223 9.1378 10.8723 8.2178 9.2923 8.2178C7.8823 8.2178 6.7123 9.2178 6.7123 10.4578C6.7123 11.0178 7.0423 11.4378 7.6423 11.4378C8.0823 11.4378 8.4523 11.2178 8.6123 10.6678C8.7323 10.2678 8.8823 9.9178 9.2923 9.9178C9.7623 9.9178 9.9023 10.3678 9.9023 10.8778C9.9023 11.6678 9.3723 12.4378 8.6923 13.2878L7.3123 15.0478C6.8623 15.6078 6.7223 15.9178 6.7223 16.2778C6.7223 16.8378 7.1023 17.1578 7.7723 17.1578ZM15.9723 15.6178C15.4923 15.6178 15.2923 14.5978 15.2923 12.7978C15.2923 10.9778 15.4923 9.9678 15.9723 9.9678C16.4623 9.9678 16.6623 10.9778 16.6623 12.7978C16.6623 14.5978 16.4623 15.6178 15.9723 15.6178Z" />
        </svg>
    