
        <svg xmlns="http://www.w3.org/2000/svg" viewBox="0 0 100 100">
            <path d="M11.4923 22.977C17.8323 22.977 22.9823 17.847 22.9823 11.497C22.9823 5.147 17.8323 -0.003 11.4923 -0.003C5.1423 -0.003 0.0023 5.147 0.0023 11.497C0.0023 17.847 5.1423 22.977 11.4923 22.977ZM11.4923 22.087C5.6323 22.087 0.8923 17.357 0.8923 11.497C0.8923 5.637 5.6323 0.887 11.4923 0.887C17.3523 0.887 22.0923 5.637 22.0923 11.497C22.0923 17.357 17.3523 22.087 11.4923 22.087ZM6.3123 16.227H10.3323C10.5723 16.227 10.7323 16.067 10.7323 15.847C10.7323 15.607 10.5723 15.447 10.3323 15.447H7.0523V15.397L9.2423 12.337C10.1823 11.037 10.5123 10.187 10.5123 9.197C10.5123 7.737 9.7023 6.567 8.2023 6.567C6.8223 6.567 5.8923 7.817 5.8923 9.057C5.8923 9.257 6.0223 9.467 6.2923 9.467C6.5023 9.467 6.6423 9.347 6.6923 9.157C6.8523 8.087 7.2923 7.347 8.2123 7.347C9.2323 7.347 9.6823 8.317 9.6823 9.247C9.6823 10.127 9.3023 10.907 8.5823 11.927L6.0723 15.377C5.9523 15.537 5.8823 15.677 5.8823 15.857C5.8823 16.087 6.0623 16.227 6.3123 16.227ZM14.7623 16.427C16.9323 16.427 17.4523 13.567 17.4523 11.497C17.4523 9.407 16.9323 6.567 14.7623 6.567C12.6023 6.567 12.0823 9.407 12.0823 11.497C12.0823 13.567 12.6023 16.427 14.7623 16.427ZM14.7623 15.647C13.2923 15.647 12.9923 13.217 12.9923 11.497C12.9923 9.757 13.2923 7.347 14.7623 7.347C16.2423 7.347 16.5323 9.757 16.5323 11.497C16.5323 13.217 16.2423 15.647 14.7623 15.647Z" />
        </svg>
    