
        <svg xmlns="http://www.w3.org/2000/svg" viewBox="0 0 100 100">
            <path d="M3.8417 21.8745H18.0317C20.5617 21.8745 21.8817 20.5745 21.8817 18.0745V3.8045C21.8817 1.3145 20.5617 0.0045 18.0317 0.0045H3.8417C1.3117 0.0045 0.0017 1.3045 0.0017 3.8045V18.0745C0.0017 20.5745 1.3117 21.8745 3.8417 21.8745ZM3.9817 19.5845C2.8917 19.5845 2.3017 19.0145 2.3017 17.8845V4.0045C2.3017 2.8745 2.8917 2.2945 3.9817 2.2945H17.8917C18.9717 2.2945 19.5817 2.8745 19.5817 4.0045V17.8845C19.5817 19.0145 18.9717 19.5845 17.8917 19.5845ZM14.3917 15.8445C16.7217 15.8445 17.4117 13.2545 17.4117 10.9345C17.4117 8.6045 16.7217 6.0245 14.3917 6.0245C12.0717 6.0245 11.3817 8.6045 11.3817 10.9345C11.3817 13.2545 12.0717 15.8445 14.3917 15.8445ZM5.5417 15.6045H9.5117C9.9617 15.6045 10.2217 15.3045 10.2217 14.8845C10.2217 14.4445 9.9617 14.1645 9.5117 14.1645H6.8817V14.0745L8.4917 12.0445C9.6117 10.6645 10.0417 9.8045 10.0417 8.7345C10.0417 7.1345 8.9517 6.0245 7.3517 6.0245C5.8617 6.0245 4.7217 7.2345 4.7217 8.4445C4.7217 8.9045 4.9817 9.2345 5.4617 9.2345C5.8617 9.2345 6.1217 9.0445 6.2417 8.6345C6.4417 7.9245 6.7117 7.4445 7.3317 7.4445C8.0017 7.4445 8.3517 8.0345 8.3517 8.8145C8.3517 9.7145 7.7217 10.6445 7.0917 11.4345L5.1717 13.8945C4.9117 14.2245 4.7117 14.5145 4.7117 14.8845C4.7117 15.3045 4.9817 15.6045 5.5417 15.6045ZM14.3917 14.3745C13.5217 14.3745 13.1817 12.9245 13.1817 10.9345C13.1817 8.9445 13.5217 7.4745 14.3917 7.4745C15.2717 7.4745 15.6017 8.9445 15.6017 10.9345C15.6017 12.9245 15.2717 14.3745 14.3917 14.3745Z" />
        </svg>
    