
        <svg xmlns="http://www.w3.org/2000/svg" viewBox="0 0 100 100">
            <path d="M4.5917 23.2359H18.6417C21.5417 23.2359 23.2417 21.5459 23.2417 18.6459V4.5959C23.2417 1.6959 21.5417 -0.0041 18.6417 -0.0041H4.5917C1.7017 -0.0041 0.0017 1.6959 0.0017 4.5959V18.6459C0.0017 21.5459 1.7017 23.2359 4.5917 23.2359ZM15.1917 16.5859C12.7417 16.5859 11.9917 13.9959 11.9917 11.6259C11.9917 9.2559 12.7417 6.6659 15.1917 6.6659C17.6217 6.6659 18.3717 9.2559 18.3717 11.6259C18.3717 13.9959 17.6217 16.5859 15.1917 16.5859ZM6.3417 16.3259C5.6117 16.3259 5.2117 15.9859 5.2117 15.3759C5.2117 14.9859 5.3717 14.6459 5.8317 14.0459L7.3517 12.1659C8.0717 11.2359 8.6417 10.4059 8.6417 9.5659C8.6417 9.0159 8.4817 8.5359 7.9817 8.5359C7.5517 8.5359 7.3717 8.8959 7.2417 9.3259C7.0617 9.9259 6.6717 10.1559 6.2017 10.1559C5.5617 10.1559 5.2017 9.7059 5.2017 9.0959C5.2017 7.7659 6.4717 6.6759 7.9817 6.6759C9.6817 6.6759 10.9317 7.6859 10.9317 9.4759C10.9317 10.8359 10.2317 11.7459 9.3117 12.8359L8.0317 14.3559V14.4459H10.1617C10.8117 14.4459 11.0617 14.8959 11.0617 15.3959C11.0617 15.8559 10.8117 16.3259 10.1617 16.3259ZM15.1917 14.6559C15.7117 14.6559 15.9217 13.5859 15.9217 11.6259C15.9217 9.6659 15.7117 8.5859 15.1917 8.5859C14.6517 8.5859 14.4517 9.6659 14.4517 11.6259C14.4517 13.5859 14.6517 14.6559 15.1917 14.6559Z" />
        </svg>
    