
        <svg xmlns="http://www.w3.org/2000/svg" viewBox="0 0 100 100">
            <path d="M4.5917 23.2359H18.6417C21.5417 23.2359 23.2417 21.5459 23.2417 18.6459V4.5959C23.2417 1.6959 21.5417 -0.0041 18.6417 -0.0041H4.5917C1.7017 -0.0041 0.0017 1.6959 0.0017 4.5959V18.6459C0.0017 21.5459 1.7017 23.2359 4.5917 23.2359ZM5.2217 19.0759C4.5117 19.0759 4.1617 18.7859 4.1617 18.0159V5.2359C4.1617 4.4659 4.5117 4.1759 5.2217 4.1759H18.0117C18.7217 4.1759 19.0817 4.4659 19.0817 5.2359V18.0159C19.0817 18.7859 18.7217 19.0759 18.0117 19.0759ZM6.8817 15.9859H10.4317C11.0417 15.9859 11.2717 15.5659 11.2717 15.1159C11.2717 14.6759 11.0417 14.2459 10.4317 14.2459H8.4517V14.1559L9.6317 12.7459C10.5017 11.7259 11.1317 10.8959 11.1317 9.6459C11.1317 7.9659 9.9817 7.0459 8.4017 7.0459C6.9917 7.0459 5.8217 8.0459 5.8217 9.2859C5.8217 9.8459 6.1517 10.2659 6.7517 10.2659C7.1917 10.2659 7.5617 10.0459 7.7217 9.4959C7.8417 9.0959 7.9917 8.7459 8.4017 8.7459C8.8717 8.7459 9.0217 9.1959 9.0217 9.7059C9.0217 10.4959 8.4817 11.2659 7.8017 12.1159L6.4217 13.8759C5.9717 14.4359 5.8317 14.7459 5.8317 15.1059C5.8317 15.6659 6.2117 15.9859 6.8817 15.9859ZM13.0317 15.9859H16.5817C17.2017 15.9859 17.4217 15.5659 17.4217 15.1159C17.4217 14.6759 17.1917 14.2459 16.5817 14.2459H14.6117V14.1559L15.8017 12.7459C16.6517 11.7259 17.2817 10.8959 17.2817 9.6459C17.2817 7.9659 16.1417 7.0459 14.5517 7.0459C13.1617 7.0459 11.9917 8.0459 11.9917 9.2859C11.9917 9.8459 12.3117 10.2659 12.9017 10.2659C13.3517 10.2659 13.7117 10.0459 13.8717 9.4959C13.9917 9.0959 14.1517 8.7459 14.5517 8.7459C15.0317 8.7459 15.1717 9.1959 15.1717 9.7059C15.1717 10.4959 14.6517 11.2659 13.9717 12.1159L12.5717 13.8759C12.1317 14.4359 12.0017 14.7459 12.0017 15.1059C12.0017 15.6659 12.3617 15.9859 13.0317 15.9859Z" />
        </svg>
    