
        <svg xmlns="http://www.w3.org/2000/svg" viewBox="0 0 100 100">
            <path d="M3.9717 22.1117H18.1317C20.7317 22.1117 22.1017 20.7417 22.1017 18.1717V3.9417C22.1017 1.3717 20.7317 0.0017 18.1317 0.0017H3.9717C1.3817 0.0017 0.0017 1.3717 0.0017 3.9417V18.1717C0.0017 20.7417 1.3817 22.1117 3.9717 22.1117ZM4.1917 19.5017C3.1617 19.5017 2.6117 18.9817 2.6117 17.9017V4.2217C2.6117 3.1417 3.1617 2.6117 4.1917 2.6117H17.9217C18.9217 2.6117 19.5017 3.1417 19.5017 4.2217V17.9017C19.5017 18.9817 18.9217 19.5017 17.9217 19.5017ZM5.9617 15.6717H9.8717C10.3517 15.6717 10.5917 15.3517 10.5917 14.9317C10.5917 14.4817 10.3317 14.1817 9.8717 14.1817H7.3517V14.0817L8.8817 12.1617C9.9617 10.8517 10.4217 9.9817 10.4217 8.8817C10.4217 7.2817 9.3317 6.2017 7.7217 6.2017C6.2417 6.2017 5.1017 7.3617 5.1017 8.5917C5.1017 9.0617 5.3817 9.4017 5.8717 9.4017C6.2817 9.4017 6.5517 9.2117 6.6917 8.7817C6.8817 8.1217 7.1217 7.6617 7.7117 7.6617C8.3417 7.6617 8.6617 8.2417 8.6617 8.9617C8.6617 9.8517 8.0517 10.7417 7.4017 11.5517L5.5817 13.9017C5.2817 14.2617 5.1017 14.5517 5.1017 14.9217C5.1017 15.3617 5.3917 15.6717 5.9617 15.6717ZM12.5017 15.6717H16.4017C16.8917 15.6717 17.1317 15.3517 17.1317 14.9317C17.1317 14.4817 16.8717 14.1817 16.4017 14.1817H13.8717V14.0817L15.4217 12.1617C16.5017 10.8517 16.9617 9.9817 16.9617 8.8817C16.9617 7.2817 15.8717 6.2017 14.2617 6.2017C12.7817 6.2017 11.6417 7.3617 11.6417 8.5917C11.6417 9.0617 11.9217 9.4017 12.4117 9.4017C12.8217 9.4017 13.0917 9.2117 13.2317 8.7817C13.4217 8.1217 13.6617 7.6617 14.2517 7.6617C14.8817 7.6617 15.2017 8.2417 15.2017 8.9617C15.2017 9.8517 14.5917 10.7417 13.9417 11.5517L12.1217 13.9017C11.8217 14.2617 11.6417 14.5517 11.6417 14.9217C11.6417 15.3617 11.9317 15.6717 12.5017 15.6717Z" />
        </svg>
    