
        <svg xmlns="http://www.w3.org/2000/svg" viewBox="0 0 100 100">
            <path d="M4.5917 23.2359H18.6417C21.5417 23.2359 23.2417 21.5459 23.2417 18.6459V4.5959C23.2417 1.6959 21.5417 -0.0041 18.6417 -0.0041H4.5917C1.7017 -0.0041 0.0017 1.6959 0.0017 4.5959V18.6459C0.0017 21.5459 1.7017 23.2359 4.5917 23.2359ZM6.6417 16.3259C5.9317 16.3259 5.5317 15.9859 5.5317 15.3759C5.5317 14.9859 5.6617 14.6759 6.1517 14.0659L7.6417 12.1659C8.3817 11.2459 8.9517 10.4059 8.9517 9.5659C8.9517 9.0259 8.8017 8.5359 8.3017 8.5359C7.8417 8.5359 7.6917 8.9059 7.5617 9.3359C7.3817 9.9259 6.9817 10.1559 6.5017 10.1559C5.8617 10.1559 5.5217 9.7159 5.5217 9.1159C5.5217 7.7659 6.7717 6.6959 8.3017 6.6959C9.9817 6.6959 11.2217 7.6959 11.2217 9.4959C11.2217 10.8559 10.5517 11.7459 9.6217 12.8559L8.3417 14.3559V14.4559H10.4717C11.1317 14.4559 11.3817 14.9059 11.3817 15.3959C11.3817 15.8759 11.1317 16.3259 10.4717 16.3259ZM13.2917 16.3259C12.5617 16.3259 12.1617 15.9859 12.1617 15.3759C12.1617 14.9859 12.3017 14.6759 12.7817 14.0659L14.2717 12.1659C15.0117 11.2459 15.5817 10.4059 15.5817 9.5659C15.5817 9.0259 15.4317 8.5359 14.9317 8.5359C14.4817 8.5359 14.3217 8.9059 14.1917 9.3359C14.0117 9.9259 13.6217 10.1559 13.1417 10.1559C12.5017 10.1559 12.1517 9.7159 12.1517 9.1159C12.1517 7.7659 13.4017 6.6959 14.9317 6.6959C16.6217 6.6959 17.8717 7.6959 17.8717 9.4959C17.8717 10.8559 17.1817 11.7459 16.2617 12.8559L14.9717 14.3559V14.4559H17.1117C17.7617 14.4559 18.0117 14.9059 18.0117 15.3959C18.0117 15.8759 17.7617 16.3259 17.1117 16.3259Z" />
        </svg>
    