
        <svg xmlns="http://www.w3.org/2000/svg" viewBox="0 0 100 100">
            <path d="M4.3817 22.8467H18.4717C21.2617 22.8467 22.8517 21.2667 22.8517 18.4767V4.3667C22.8517 1.5867 21.2617 -0.0033 18.4717 -0.0033H4.3817C1.5917 -0.0033 0.0017 1.5867 0.0017 4.3667V18.4767C0.0017 21.2667 1.5917 22.8467 4.3817 22.8467ZM4.8717 19.2267C4.0417 19.2267 3.6217 18.8567 3.6217 17.9767V4.8867C3.6217 4.0067 4.0417 3.6367 4.8717 3.6367H17.9717C18.8017 3.6367 19.2217 4.0067 19.2217 4.8867V17.9767C19.2217 18.8567 18.8017 19.2267 17.9717 19.2267ZM6.4217 15.8667H10.0917C10.6517 15.8667 10.8917 15.4767 10.8917 15.0467C10.8917 14.5967 10.6517 14.2267 10.0917 14.2267H7.9217V14.1367L9.2317 12.5467C10.1717 11.4267 10.7417 10.5867 10.7417 9.3767C10.7417 7.7267 9.6117 6.7467 8.0317 6.7467C6.6017 6.7467 5.4417 7.8067 5.4417 9.0467C5.4417 9.5767 5.7417 9.9567 6.3017 9.9567C6.7417 9.9567 7.0617 9.7467 7.2217 9.2467C7.3617 8.7567 7.5517 8.3667 8.0117 8.3667C8.5517 8.3667 8.7517 8.8567 8.7517 9.4467C8.7517 10.2767 8.1917 11.0867 7.5217 11.9267L5.9917 13.8867C5.5917 14.3767 5.4417 14.6767 5.4417 15.0467C5.4417 15.5667 5.7817 15.8667 6.4217 15.8667ZM14.6217 16.0867C16.3317 16.0867 17.5517 15.0867 17.5517 13.4367C17.5517 12.2367 16.8717 11.4567 15.9017 11.3367V11.2867C16.6617 11.0867 17.3017 10.2867 17.3017 9.2367C17.3017 7.6767 16.1717 6.7767 14.5517 6.7767C13.4217 6.7767 12.3417 7.3667 12.0217 8.4167C11.9617 8.6167 11.9317 8.8267 11.9317 9.0267C11.9317 9.4367 12.1717 9.8567 12.8117 9.8567C13.2317 9.8567 13.6317 9.7167 13.7617 9.2367C13.8617 8.8167 14.1017 8.4067 14.5817 8.4067C15.1017 8.4067 15.3117 8.9267 15.3117 9.4567C15.3117 10.0667 15.0517 10.6567 14.3417 10.6567H14.2217C13.7017 10.6567 13.4317 10.9367 13.4317 11.3767C13.4317 11.8367 13.6917 12.1067 14.2217 12.1067H14.3517C15.1417 12.1067 15.4917 12.5367 15.4917 13.3167C15.4917 13.8767 15.2417 14.4567 14.6117 14.4567C14.1017 14.4567 13.8417 14.0967 13.7117 13.7067C13.5517 13.2267 13.2317 12.9967 12.7517 12.9967C12.1917 12.9967 11.8117 13.3367 11.8117 13.9067C11.8117 14.1367 11.8517 14.3467 11.9017 14.5267C12.2217 15.5467 13.3617 16.0867 14.6217 16.0867Z" />
        </svg>
    