
        <svg xmlns="http://www.w3.org/2000/svg" viewBox="0 0 100 100">
            <path d="M12.7923 25.5978C19.8723 25.5978 25.6023 19.8678 25.6023 12.7978C25.6023 5.7278 19.8723 -0.0022 12.7923 -0.0022C5.7323 -0.0022 0.0023 5.7278 0.0023 12.7978C0.0023 19.8678 5.7323 25.5978 12.7923 25.5978ZM7.4323 17.4978C6.7023 17.4978 6.3023 17.1578 6.3023 16.5478C6.3023 16.1578 6.4523 15.8278 6.9423 15.2178L8.4223 13.3378C9.1623 12.4078 9.7423 11.5778 9.7423 10.7378C9.7423 10.1878 9.5723 9.7078 9.0723 9.7078C8.6323 9.7078 8.4623 10.0778 8.3323 10.5078C8.1523 11.0978 7.7723 11.3278 7.2923 11.3278C6.6523 11.3278 6.2923 10.8878 6.2923 10.2878C6.2923 8.9378 7.5623 7.8478 9.0723 7.8478C10.7723 7.8478 12.0223 8.8578 12.0223 10.6478C12.0223 12.0078 11.3323 12.9178 10.4023 14.0078L9.1323 15.5278V15.6178H11.2523C11.9223 15.6178 12.1523 16.0778 12.1523 16.5678C12.1523 17.0278 11.9223 17.4978 11.2523 17.4978ZM17.3523 17.6678C16.7223 17.6678 16.2023 17.3078 16.2023 16.5078V15.9278H14.3423C13.4423 15.9278 12.9623 15.4778 12.9623 14.5978C12.9623 14.1478 13.0823 13.6178 13.2523 13.1278L14.2423 10.3378C14.6623 9.1378 15.1023 7.9678 16.6623 7.9678C17.7623 7.9678 18.5023 8.5878 18.5023 9.7178V14.0278H18.6123C19.2223 14.0278 19.5023 14.3778 19.5023 14.9778C19.5023 15.4678 19.3023 15.9278 18.6023 15.9278H18.5023V16.5078C18.5023 17.3278 18.0023 17.6678 17.3523 17.6678ZM16.2923 14.1178V9.8078H16.2423L14.9023 14.0178V14.1178Z" />
        </svg>
    