
        <svg xmlns="http://www.w3.org/2000/svg" viewBox="0 0 100 100">
            <path d="M11.9523 23.9041C18.5523 23.9041 23.9023 18.5541 23.9023 11.9541C23.9023 5.3541 18.5523 0.0041 11.9523 0.0041C5.3523 0.0041 0.0023 5.3541 0.0023 11.9541C0.0023 18.5541 5.3523 23.9041 11.9523 23.9041ZM11.9523 21.9141C6.4423 21.9141 1.9923 17.4641 1.9923 11.9541C1.9923 6.4441 6.4423 1.9941 11.9523 1.9941C17.4623 1.9941 21.9123 6.4441 21.9123 11.9541C21.9123 17.4641 17.4623 21.9141 11.9523 21.9141ZM6.4423 16.6841H10.5123C10.9323 16.6841 11.1823 16.4141 11.1823 16.0041C11.1823 15.5641 10.9223 15.3141 10.5123 15.3141H7.7323V15.2241L9.4423 13.0541C10.6123 11.6041 11.0023 10.7341 11.0023 9.7041C11.0023 8.1241 9.9223 6.9741 8.3123 6.9741C6.8123 6.9741 5.6723 8.2141 5.6723 9.4341C5.6723 9.8641 5.9323 10.1741 6.3723 10.1741C6.7623 10.1741 6.9923 9.9941 7.1223 9.6141C7.3323 8.8241 7.6323 8.3341 8.3123 8.3341C9.0123 8.3341 9.4123 8.9541 9.4123 9.7841C9.4123 10.7241 8.7523 11.6741 8.1323 12.4641L6.0923 15.0741C5.8823 15.3541 5.6623 15.6441 5.6623 16.0041C5.6623 16.4041 5.9223 16.6841 6.4423 16.6841ZM16.5923 16.8441C17.0323 16.8441 17.3923 16.5741 17.3923 16.0041V14.8341H17.8023C18.2623 14.8341 18.4723 14.5441 18.4723 14.1441C18.4723 13.7741 18.2723 13.4741 17.8023 13.4741H17.3923V8.3341C17.3923 7.5241 16.8523 7.0641 16.0923 7.0641C15.2723 7.0641 14.8823 7.4841 14.5523 8.2141L12.4523 12.7641C12.2623 13.2141 12.1923 13.5241 12.1923 13.8841C12.1923 14.4541 12.5823 14.8341 13.1523 14.8341H15.7723V16.0041C15.7723 16.6241 16.2223 16.8441 16.5923 16.8441ZM15.8123 13.5141H13.6323V13.4341L15.7623 8.5441H15.8123Z" />
        </svg>
    