
        <svg xmlns="http://www.w3.org/2000/svg" viewBox="0 0 100 100">
            <path d="M11.4923 22.977C17.8123 22.977 22.9823 17.827 22.9823 11.497C22.9823 5.167 17.8123 -0.003 11.4923 -0.003C5.1723 -0.003 0.0023 5.167 0.0023 11.497C0.0023 17.827 5.1723 22.977 11.4923 22.977ZM6.2923 16.267C6.0223 16.267 5.8523 16.127 5.8523 15.877C5.8523 15.707 5.9223 15.567 6.0423 15.397L8.5523 11.937C9.2923 10.907 9.6823 10.117 9.6823 9.227C9.6823 8.307 9.2223 7.327 8.2023 7.327C7.2823 7.327 6.8323 8.067 6.6723 9.127C6.6223 9.337 6.4823 9.457 6.2723 9.457C5.9923 9.457 5.8623 9.247 5.8623 9.047C5.8623 7.797 6.7923 6.527 8.1923 6.527C9.6923 6.527 10.5223 7.707 10.5223 9.187C10.5223 10.187 10.1823 11.037 9.2323 12.347L7.0423 15.407V15.467H10.3523C10.5723 15.467 10.7323 15.637 10.7323 15.867C10.7323 16.097 10.5723 16.267 10.3523 16.267ZM15.8523 16.387C15.6123 16.387 15.4123 16.217 15.4123 15.917V14.067H12.3723C12.0023 14.067 11.7623 13.817 11.7623 13.487C11.7623 13.277 11.8223 13.087 11.9323 12.847L14.7223 7.257C14.9323 6.827 15.1423 6.577 15.6023 6.577C15.9523 6.577 16.2923 6.757 16.2923 7.287V13.277H17.0023C17.2423 13.277 17.4023 13.437 17.4023 13.667C17.4023 13.897 17.2623 14.067 17.0023 14.067H16.2923V15.917C16.2923 16.187 16.0923 16.387 15.8523 16.387ZM15.4123 13.287V7.567H15.3623L12.6123 13.247V13.287Z" />
        </svg>
    