
        <svg xmlns="http://www.w3.org/2000/svg" viewBox="0 0 100 100">
            <path d="M3.1617 20.742H17.5917C19.6617 20.742 20.7417 19.642 20.7417 17.592V3.152C20.7417 1.102 19.6617 0.002 17.5917 0.002H3.1617C1.0917 0.002 0.0017 1.082 0.0017 3.152V17.592C0.0017 19.662 1.0917 20.742 3.1617 20.742ZM5.1817 15.142C4.9117 15.142 4.7317 15.002 4.7317 14.752C4.7317 14.582 4.8017 14.442 4.9317 14.272L7.4517 10.812C8.1817 9.782 8.5617 8.992 8.5617 8.102C8.5617 7.182 8.1117 6.202 7.0917 6.202C6.1617 6.202 5.7217 6.942 5.5517 8.002C5.5217 8.212 5.3717 8.332 5.1517 8.332C4.8717 8.332 4.7617 8.122 4.7617 7.922C4.7617 6.672 5.6817 5.402 7.0817 5.402C8.5817 5.402 9.4117 6.582 9.4117 8.062C9.4117 9.062 9.0817 9.912 8.1217 11.222L5.9317 14.282V14.342H9.2317C9.4617 14.342 9.6217 14.512 9.6217 14.742C9.6217 14.972 9.4617 15.142 9.2317 15.142ZM14.7417 15.262C14.4917 15.262 14.3017 15.092 14.3017 14.792V12.942H11.2617C10.8917 12.942 10.6517 12.692 10.6517 12.362C10.6517 12.152 10.7117 11.962 10.8117 11.722L13.6217 6.132C13.8117 5.702 14.0317 5.452 14.4817 5.452C14.8317 5.452 15.1717 5.632 15.1717 6.162V12.152H15.8917C16.1217 12.152 16.2917 12.312 16.2917 12.542C16.2917 12.772 16.1517 12.942 15.8917 12.942H15.1717V14.792C15.1717 15.062 14.9717 15.262 14.7417 15.262ZM14.3017 12.162V6.442H14.2617L11.4917 12.122V12.162Z" />
        </svg>
    