
        <svg xmlns="http://www.w3.org/2000/svg" viewBox="0 0 100 100">
            <path d="M3.9717 22.1117H18.1317C20.7317 22.1117 22.1017 20.7417 22.1017 18.1717V3.9417C22.1017 1.3717 20.7317 0.0017 18.1317 0.0017H3.9717C1.3817 0.0017 0.0017 1.3717 0.0017 3.9417V18.1717C0.0017 20.7417 1.3817 22.1117 3.9717 22.1117ZM5.5517 15.8817C4.9617 15.8817 4.6517 15.5617 4.6517 15.0917C4.6517 14.7117 4.8417 14.3917 5.1417 14.0117L7.0517 11.5817C7.7217 10.7317 8.3717 9.8017 8.3717 8.8717C8.3717 8.1117 8.0517 7.5217 7.3817 7.5217C6.7817 7.5217 6.5117 7.9917 6.3317 8.6717C6.1917 9.1317 5.8917 9.3317 5.4617 9.3317C4.9417 9.3317 4.6517 8.9717 4.6517 8.4717C4.6517 7.1917 5.8517 5.9717 7.3917 5.9717C9.0717 5.9717 10.2317 7.1017 10.2317 8.7917C10.2317 9.9517 9.7417 10.8417 8.6117 12.2117L7.0117 14.2117V14.3117H9.6317C10.1217 14.3117 10.3917 14.6217 10.3917 15.1017C10.3917 15.5417 10.1417 15.8817 9.6317 15.8817ZM14.5517 16.1217C13.4017 16.1217 12.3417 15.4417 11.9517 14.4717C11.8617 14.2517 11.8117 14.0017 11.8117 13.7417C11.8117 13.2517 12.1217 12.9417 12.6017 12.9417C12.9717 12.9417 13.2817 13.1617 13.4217 13.5817C13.6217 14.1317 13.9417 14.5617 14.5217 14.5617C15.3017 14.5617 15.5717 13.5617 15.5717 12.6917C15.5717 11.8717 15.3017 10.8717 14.5217 10.8717C14.1117 10.8717 13.8417 11.1417 13.6017 11.4917C13.3617 11.8517 13.1617 11.9617 12.8017 11.9617C12.2017 11.9617 11.9217 11.5417 11.9217 10.9917C11.9217 10.8517 11.9217 10.6417 11.9317 10.4717L12.1017 7.3317C12.1417 6.6817 12.4417 6.2317 13.1117 6.2317H16.3617C16.8317 6.2317 17.1117 6.5617 17.1117 7.0217C17.1117 7.4617 16.8517 7.8017 16.3617 7.8017H13.7117L13.5517 10.5117H13.5917C13.8617 9.8917 14.4517 9.4917 15.2117 9.4917C16.7617 9.4917 17.4617 11.0517 17.4617 12.6317C17.4617 14.5517 16.4517 16.1217 14.5517 16.1217Z" />
        </svg>
    