
        <svg xmlns="http://www.w3.org/2000/svg" viewBox="0 0 100 100">
            <path d="M4.5917 23.2359H18.6417C21.5417 23.2359 23.2417 21.5459 23.2417 18.6459V4.5959C23.2417 1.6959 21.5417 -0.0041 18.6417 -0.0041H4.5917C1.7017 -0.0041 0.0017 1.6959 0.0017 4.5959V18.6459C0.0017 21.5459 1.7017 23.2359 4.5917 23.2359ZM6.5617 16.3259C5.8317 16.3259 5.4417 15.9859 5.4417 15.3759C5.4417 14.9859 5.5917 14.6459 6.0617 14.0459L7.5717 12.1659C8.2817 11.2359 8.8617 10.4059 8.8617 9.5659C8.8617 9.0159 8.7217 8.5359 8.2017 8.5359C7.7717 8.5359 7.5917 8.8959 7.4717 9.3259C7.3017 9.9159 6.9017 10.1559 6.4117 10.1559C5.7817 10.1559 5.4217 9.7059 5.4217 9.0959C5.4217 7.7659 6.6817 6.6759 8.2017 6.6759C9.9117 6.6759 11.1417 7.6859 11.1417 9.4759C11.1417 10.8359 10.4517 11.7459 9.5417 12.8359L8.2617 14.3559V14.4459H10.3817C11.0417 14.4459 11.3017 14.8959 11.3017 15.3959C11.3017 15.8559 11.0417 16.3259 10.3817 16.3259ZM15.2417 16.5859C13.9917 16.5859 12.9417 15.8059 12.6217 14.8359C12.5717 14.6359 12.5417 14.4459 12.5417 14.2359C12.5417 13.6559 12.8917 13.2759 13.4917 13.2759C13.9417 13.2759 14.3117 13.5459 14.4817 14.0459C14.6017 14.3859 14.8117 14.7059 15.1917 14.7059C15.7617 14.7059 15.8517 13.7359 15.8517 13.1559C15.8517 12.4959 15.7017 11.6559 15.1617 11.6559C14.8917 11.6559 14.6917 11.9159 14.5417 12.1559C14.3317 12.5259 14.1117 12.6259 13.6717 12.6259C13.0117 12.6259 12.6117 12.1859 12.6117 11.4359C12.6117 11.3559 12.6317 11.0759 12.6317 10.9959L12.7417 8.1659C12.7717 7.4259 13.1117 6.9359 13.8317 6.9359H16.9617C17.5317 6.9359 17.8317 7.3159 17.8317 7.8859C17.8317 8.3859 17.5617 8.8159 16.9617 8.8159H14.6917L14.5617 11.0359H14.6217C14.7917 10.5859 15.2317 10.0459 16.1217 10.0459C17.6517 10.0459 18.1417 11.6759 18.1417 13.0859C18.1417 15.0259 17.1817 16.5859 15.2417 16.5859Z" />
        </svg>
    