
        <svg xmlns="http://www.w3.org/2000/svg" viewBox="0 0 100 100">
            <path d="M3.0117 20.5048H17.4917C19.4517 20.5048 20.5117 19.4248 20.5117 17.4948V3.0148C20.5117 1.0748 19.4517 0.0048 17.4917 0.0048H3.0117C1.0417 0.0048 0.0017 1.0448 0.0017 3.0148V17.4948C0.0017 19.4648 1.0417 20.5048 3.0117 20.5048ZM4.9717 14.9848C4.7817 14.9848 4.6417 14.8948 4.6417 14.6948C4.6417 14.5848 4.6617 14.4848 4.7417 14.3548L7.3917 10.6648C8.1517 9.5848 8.4517 8.8448 8.4517 7.9848C8.4517 7.0348 7.9817 5.9548 6.8717 5.9548C5.8817 5.9548 5.3917 6.7648 5.2517 7.9148C5.2417 8.0548 5.1217 8.1548 4.9617 8.1548C4.7317 8.1548 4.6517 7.9848 4.6517 7.8548C4.6517 6.5848 5.5117 5.3348 6.8517 5.3348C8.3217 5.3348 9.0617 6.5148 9.0617 7.9448C9.0617 8.9148 8.7417 9.7748 7.8717 11.0248L5.5417 14.3348V14.3748H8.9717C9.1517 14.3748 9.2817 14.5048 9.2817 14.6848C9.2817 14.8548 9.1517 14.9848 8.9717 14.9848ZM13.0417 15.1648C11.8717 15.1648 11.0417 14.3448 10.7817 13.2148C10.7417 13.1148 10.7017 12.9348 10.7017 12.8348C10.7017 12.6448 10.8117 12.5148 11.0017 12.5148C11.1517 12.5148 11.2717 12.5848 11.3217 12.8548C11.4817 13.7548 12.1317 14.5548 13.0417 14.5548C14.2517 14.5548 14.8217 13.2548 14.8217 11.9748C14.8217 10.8048 14.2617 9.4348 13.0917 9.4348C12.4117 9.4348 11.9217 9.8548 11.6017 10.4548C11.4917 10.6548 11.4117 10.8048 11.1917 10.8048C10.9717 10.8048 10.8417 10.6548 10.8417 10.4248C10.8417 10.3448 10.8517 10.1048 10.8617 9.9148L11.1517 6.0448C11.1817 5.7348 11.3217 5.5048 11.6517 5.5048H14.7817C14.9517 5.5048 15.0817 5.6448 15.0817 5.8248C15.0817 6.0148 14.9617 6.1448 14.7817 6.1448H11.7517L11.4617 9.9648H11.4917C11.8617 9.1248 12.5817 8.8348 13.2217 8.8348C14.7317 8.8348 15.4917 10.3948 15.4917 11.9548C15.4917 13.5848 14.6617 15.1648 13.0417 15.1648Z" />
        </svg>
    