
        <svg xmlns="http://www.w3.org/2000/svg" viewBox="0 0 100 100">
            <path d="M3.1617 20.742H17.5917C19.6617 20.742 20.7417 19.642 20.7417 17.592V3.152C20.7417 1.102 19.6617 0.002 17.5917 0.002H3.1617C1.0917 0.002 0.0017 1.082 0.0017 3.152V17.592C0.0017 19.662 1.0917 20.742 3.1617 20.742ZM3.1917 19.872C1.6617 19.872 0.8717 19.082 0.8717 17.552V3.202C0.8717 1.662 1.6617 0.872 3.1917 0.872H17.5517C19.0317 0.872 19.8717 1.662 19.8717 3.202V17.552C19.8717 19.082 19.0317 19.872 17.5517 19.872ZM5.0417 15.102H9.0617C9.2917 15.102 9.4417 14.942 9.4417 14.722C9.4417 14.482 9.2917 14.322 9.0617 14.322H5.7817V14.272L7.9617 11.212C8.9017 9.912 9.2317 9.062 9.2317 8.072C9.2317 6.612 8.4117 5.442 6.9217 5.442C5.5417 5.442 4.6217 6.692 4.6217 7.932C4.6217 8.132 4.7417 8.342 5.0117 8.342C5.2217 8.342 5.3717 8.222 5.4017 8.032C5.5617 6.962 6.0117 6.222 6.9217 6.222C7.9617 6.222 8.4017 7.192 8.4017 8.122C8.4017 9.002 8.0317 9.782 7.3017 10.802L4.7917 14.252C4.6717 14.412 4.6017 14.552 4.6017 14.732C4.6017 14.962 4.7717 15.102 5.0417 15.102ZM13.5517 15.302C15.1917 15.302 16.0617 13.782 16.0617 12.032C16.0617 10.442 15.3017 8.902 13.7417 8.902C12.6417 8.902 11.9317 9.742 11.7117 10.832H11.6617V10.632C11.6617 9.042 11.8917 6.232 13.5617 6.232C14.3317 6.232 14.7917 6.812 15.0217 7.562C15.1017 7.782 15.2017 7.942 15.4617 7.942C15.7017 7.942 15.8317 7.802 15.8317 7.572C15.8317 7.462 15.8117 7.302 15.7517 7.122C15.4817 6.122 14.6417 5.452 13.5717 5.452C11.3517 5.452 10.7917 8.422 10.7917 10.572C10.7917 12.752 11.4217 15.302 13.5517 15.302ZM13.5517 14.522C12.4017 14.522 11.8517 13.162 11.8517 11.992C11.8517 10.882 12.4617 9.672 13.5317 9.672C14.6617 9.672 15.2017 10.912 15.1917 12.072C15.1917 13.202 14.6517 14.522 13.5517 14.522Z" />
        </svg>
    