
        <svg xmlns="http://www.w3.org/2000/svg" viewBox="0 0 100 100">
            <path d="M12.6023 25.1986C19.5623 25.1986 25.2023 19.5586 25.2023 12.5986C25.2023 5.6386 19.5623 -0.0014 12.6023 -0.0014C5.6323 -0.0014 0.0023 5.6386 0.0023 12.5986C0.0023 19.5586 5.6323 25.1986 12.6023 25.1986ZM12.6023 21.5386C7.6523 21.5386 3.6523 17.5386 3.6523 12.5986C3.6523 7.6486 7.6523 3.6586 12.6023 3.6586C17.5423 3.6586 21.5423 7.6486 21.5423 12.5986C21.5423 17.5386 17.5423 21.5386 12.6023 21.5386ZM7.9923 17.0386H11.6623C12.2323 17.0386 12.4723 16.6486 12.4723 16.2186C12.4723 15.7686 12.2323 15.3986 11.6623 15.3986H9.5023V15.3086L10.8123 13.7186C11.7423 12.5986 12.3123 11.7586 12.3123 10.5486C12.3123 8.8986 11.1923 7.9186 9.6023 7.9186C8.1723 7.9186 7.0123 8.9786 7.0123 10.2186C7.0123 10.7486 7.3223 11.1286 7.8723 11.1286C8.3123 11.1286 8.6523 10.9186 8.8023 10.4186C8.9423 9.9286 9.1323 9.5386 9.6023 9.5386C10.1223 9.5386 10.3223 10.0286 10.3223 10.6186C10.3223 11.4486 9.7723 12.2586 9.1023 13.0986L7.5623 15.0586C7.1723 15.5486 7.0223 15.8486 7.0223 16.2186C7.0223 16.7386 7.3623 17.0386 7.9923 17.0386ZM15.0623 17.1886C15.6123 17.1886 15.8423 16.9786 16.0123 16.5186L18.1923 10.3386C18.3323 9.9286 18.4123 9.5986 18.4123 9.1786C18.4123 8.5586 17.9423 8.1586 17.3323 8.1586H14.0023C13.4723 8.1586 13.1823 8.5286 13.1823 8.9786C13.1823 9.4586 13.5023 9.8086 14.0023 9.8086H16.2623V9.9286L14.2423 15.5486C14.1423 15.8086 14.1023 16.0186 14.1023 16.3086C14.1023 16.7186 14.3423 17.1886 15.0623 17.1886Z" />
        </svg>
    