
        <svg xmlns="http://www.w3.org/2000/svg" viewBox="0 0 100 100">
            <path d="M12.6023 25.1986C19.5623 25.1986 25.2023 19.5586 25.2023 12.5986C25.2023 5.6386 19.5623 -0.0014 12.6023 -0.0014C5.6323 -0.0014 0.0023 5.6386 0.0023 12.5986C0.0023 19.5586 5.6323 25.1986 12.6023 25.1986ZM12.6023 21.5386C7.6523 21.5386 3.6523 17.5386 3.6523 12.5986C3.6523 7.6486 7.6523 3.6586 12.6023 3.6586C17.5423 3.6586 21.5423 7.6486 21.5423 12.5986C21.5423 17.5386 17.5423 21.5386 12.6023 21.5386ZM7.4023 17.0386H11.0823C11.6523 17.0386 11.8823 16.6486 11.8823 16.2186C11.8823 15.7686 11.6523 15.3986 11.0823 15.3986H8.9223V15.3086L10.2323 13.7186C11.1523 12.5986 11.7423 11.7586 11.7423 10.5486C11.7423 8.8986 10.6023 7.9186 9.0123 7.9186C7.5923 7.9186 6.4323 8.9786 6.4323 10.2186C6.4323 10.7486 6.7423 11.1286 7.2923 11.1286C7.7223 11.1286 8.0623 10.9186 8.2123 10.4186C8.3523 9.9286 8.5423 9.5386 9.0123 9.5386C9.5423 9.5386 9.7523 10.0286 9.7523 10.6186C9.7523 11.4486 9.1923 12.2586 8.5223 13.0986L6.9823 15.0586C6.5823 15.5486 6.4323 15.8486 6.4323 16.2186C6.4323 16.7386 6.7723 17.0386 7.4023 17.0386ZM15.7723 17.2686C17.4523 17.2686 18.7523 16.3286 18.7523 14.6486C18.7523 13.5186 18.0923 12.5986 17.1023 12.3886V12.3486C17.9323 12.0786 18.5123 11.3186 18.5123 10.3586C18.5123 8.8986 17.3623 7.9486 15.7723 7.9486C14.3223 7.9486 13.0423 8.7686 13.0423 10.3586C13.0423 11.4486 13.7323 12.1186 14.4623 12.3486V12.3886C13.5123 12.5886 12.8123 13.5086 12.8123 14.6486C12.8123 16.2786 14.0623 17.2686 15.7723 17.2686ZM15.7723 11.7286C15.3423 11.7286 15.0923 11.2286 15.0923 10.5786C15.0923 9.9186 15.3523 9.4186 15.7723 9.4186C16.2323 9.4186 16.4623 9.9186 16.4623 10.5786C16.4623 11.2586 16.2223 11.7286 15.7723 11.7286ZM15.7723 15.7886C15.2823 15.7886 15.0123 15.2486 15.0123 14.4886C15.0123 13.7486 15.2823 13.2086 15.7723 13.2086C16.2623 13.2086 16.5423 13.7386 16.5423 14.4886C16.5423 15.2486 16.2623 15.7886 15.7723 15.7886Z" />
        </svg>
    