
        <svg xmlns="http://www.w3.org/2000/svg" viewBox="0 0 100 100">
            <path d="M11.4923 22.977C17.8123 22.977 22.9823 17.827 22.9823 11.497C22.9823 5.167 17.8123 -0.003 11.4923 -0.003C5.1723 -0.003 0.0023 5.167 0.0023 11.497C0.0023 17.827 5.1723 22.977 11.4923 22.977ZM5.9923 16.267C5.7223 16.267 5.5423 16.127 5.5423 15.877C5.5423 15.707 5.6223 15.567 5.7423 15.397L8.2623 11.937C8.9923 10.907 9.3723 10.117 9.3723 9.227C9.3723 8.307 8.9223 7.327 7.9023 7.327C6.9723 7.327 6.5323 8.067 6.3623 9.127C6.3323 9.337 6.1723 9.457 5.9623 9.457C5.6923 9.457 5.5623 9.247 5.5623 9.047C5.5623 7.797 6.4923 6.527 7.8823 6.527C9.4023 6.527 10.2223 7.707 10.2223 9.187C10.2223 10.187 9.8923 11.037 8.9323 12.347L6.7423 15.407V15.467H10.0423C10.2623 15.467 10.4323 15.637 10.4323 15.867C10.4323 16.097 10.2823 16.267 10.0423 16.267ZM14.4923 16.427C12.8623 16.427 11.8123 15.237 11.8123 13.677C11.8123 12.497 12.5023 11.457 13.5023 11.227V11.217C12.6123 10.907 12.0823 10.097 12.0823 9.067C12.0823 7.617 13.0923 6.577 14.4923 6.577C16.0223 6.577 16.9423 7.687 16.9423 9.077C16.9423 10.067 16.3923 10.907 15.5323 11.217V11.227C16.5023 11.447 17.2023 12.507 17.2023 13.677C17.2023 15.257 16.1223 16.427 14.4923 16.427ZM14.5123 10.887C15.4023 10.887 16.0523 10.147 16.0523 9.137C16.0523 8.227 15.5323 7.337 14.5123 7.337C13.5823 7.337 12.9723 8.117 12.9723 9.137C12.9723 10.207 13.6723 10.887 14.5123 10.887ZM14.5123 15.667C15.6223 15.667 16.2623 14.727 16.2623 13.627C16.2623 12.407 15.5023 11.657 14.5123 11.657C13.4223 11.657 12.7523 12.517 12.7523 13.627C12.7523 14.747 13.4023 15.667 14.5123 15.667Z" />
        </svg>
    