
        <svg xmlns="http://www.w3.org/2000/svg" viewBox="0 0 100 100">
            <path d="M3.0117 20.5048H17.4917C19.4517 20.5048 20.5117 19.4248 20.5117 17.4948V3.0148C20.5117 1.0748 19.4517 0.0048 17.4917 0.0048H3.0117C1.0417 0.0048 0.0017 1.0448 0.0017 3.0148V17.4948C0.0017 19.4648 1.0417 20.5048 3.0117 20.5048ZM4.8417 14.9848C4.6517 14.9848 4.5017 14.8948 4.5017 14.6948C4.5017 14.5848 4.5217 14.4848 4.6217 14.3548L7.2517 10.6648C8.0117 9.5848 8.3117 8.8448 8.3117 7.9848C8.3117 7.0348 7.8517 5.9548 6.7417 5.9548C5.7417 5.9548 5.2617 6.7648 5.1117 7.9148C5.1017 8.0548 4.9817 8.1548 4.8117 8.1548C4.6017 8.1548 4.5117 7.9848 4.5117 7.8548C4.5117 6.5848 5.3817 5.3348 6.7117 5.3348C8.1817 5.3348 8.9217 6.5148 8.9217 7.9448C8.9217 8.9148 8.6117 9.7748 7.7317 11.0248L5.4017 14.3348V14.3748H8.8317C9.0117 14.3748 9.1517 14.5048 9.1517 14.6848C9.1517 14.8548 9.0117 14.9848 8.8317 14.9848ZM13.1117 15.1448C11.5217 15.1448 10.5617 13.9148 10.5617 12.4248C10.5617 11.2748 11.2217 10.2048 12.2117 9.9848V9.9748C11.2817 9.6548 10.8317 8.8148 10.8317 7.8348C10.8317 6.4548 11.7317 5.3748 13.1117 5.3748C14.5817 5.3748 15.4417 6.5048 15.4417 7.8348C15.4417 8.7848 14.9417 9.6548 14.0517 9.9748V9.9848C15.0217 10.2048 15.6917 11.2848 15.6917 12.4248C15.6917 13.9648 14.6717 15.1448 13.1117 15.1448ZM13.1417 9.7048C14.0617 9.7048 14.7917 8.9548 14.7917 7.8848C14.7917 6.9248 14.2117 5.9748 13.1417 5.9748C12.1517 5.9748 11.4817 6.7848 11.4817 7.8848C11.4817 9.0448 12.2817 9.7048 13.1417 9.7048ZM13.1417 14.5448C14.3117 14.5448 15.0117 13.5448 15.0117 12.3848C15.0117 11.0848 14.1717 10.3248 13.1417 10.3248C11.9717 10.3248 11.2417 11.2048 11.2417 12.3848C11.2417 13.5548 11.9617 14.5448 13.1417 14.5448Z" />
        </svg>
    