
        <svg xmlns="http://www.w3.org/2000/svg" viewBox="0 0 100 100">
            <path d="M3.0117 20.5048H17.4917C19.4517 20.5048 20.5117 19.4248 20.5117 17.4948V3.0148C20.5117 1.0748 19.4517 0.0048 17.4917 0.0048H3.0117C1.0417 0.0048 0.0017 1.0448 0.0017 3.0148V17.4948C0.0017 19.4648 1.0417 20.5048 3.0117 20.5048ZM3.0317 19.9348C1.4217 19.9348 0.5717 19.0948 0.5717 17.4648V3.0348C0.5717 1.4148 1.4217 0.5748 3.0317 0.5748H17.4617C19.0317 0.5748 19.9317 1.4148 19.9317 3.0348V17.4648C19.9317 19.0948 19.0317 19.9348 17.4617 19.9348ZM4.8317 14.9848H8.8317C9.0117 14.9848 9.1517 14.8548 9.1517 14.6848C9.1517 14.5048 9.0117 14.3748 8.8317 14.3748H5.4017V14.3348L7.7317 11.0248C8.6117 9.7748 8.9217 8.9148 8.9217 7.9448C8.9217 6.5148 8.1817 5.3348 6.7117 5.3348C5.3817 5.3348 4.5117 6.5848 4.5117 7.8548C4.5117 7.9848 4.5917 8.1548 4.8117 8.1548C4.9817 8.1548 5.1017 8.0548 5.1117 7.8948C5.2617 6.7648 5.7417 5.9448 6.7217 5.9448C7.8517 5.9448 8.3117 7.0348 8.3117 7.9848C8.3117 8.8448 8.0117 9.5848 7.2517 10.6648L4.6017 14.3548C4.5217 14.4848 4.5017 14.5848 4.5017 14.7048C4.5017 14.8948 4.6417 14.9848 4.8317 14.9848ZM13.1217 15.1448C14.6717 15.1448 15.7017 13.9848 15.7017 12.4248C15.7017 11.2848 15.0317 10.2048 14.0517 9.9848V9.9748C14.9417 9.6548 15.4417 8.7748 15.4417 7.8348C15.4417 6.5048 14.5817 5.3748 13.1217 5.3748C11.7317 5.3748 10.8317 6.4548 10.8317 7.8348C10.8317 8.8148 11.2817 9.6548 12.2117 9.9748V9.9848C11.2217 10.2048 10.5617 11.2748 10.5617 12.4248C10.5617 13.9148 11.5217 15.1448 13.1217 15.1448ZM13.1417 9.7048C12.2817 9.7048 11.4817 9.0448 11.4817 7.8848C11.4817 6.7848 12.1617 5.9748 13.1417 5.9748C14.2117 5.9748 14.7917 6.9248 14.7917 7.8848C14.7917 8.9548 14.0617 9.7048 13.1417 9.7048ZM13.1417 14.5448C11.9617 14.5448 11.2417 13.5748 11.2417 12.3948C11.2417 11.2048 11.9717 10.3248 13.1417 10.3248C14.1717 10.3248 15.0117 11.0848 15.0117 12.3948C15.0117 13.5448 14.3117 14.5448 13.1417 14.5448Z" />
        </svg>
    