
        <svg xmlns="http://www.w3.org/2000/svg" viewBox="0 0 100 100">
            <path d="M3.6817 21.5722H17.8917C20.3517 21.5722 21.5717 20.3722 21.5717 17.9522V3.6322C21.5717 1.2222 20.3517 0.0022 17.8917 0.0022H3.6817C1.2317 0.0022 0.0017 1.2222 0.0017 3.6322V17.9522C0.0017 20.3722 1.2317 21.5722 3.6817 21.5722ZM3.7017 19.6922C2.5317 19.6922 1.8917 19.0622 1.8917 17.8522V3.7422C1.8917 2.5222 2.5317 1.8822 3.7017 1.8822H17.8717C19.0317 1.8822 19.6917 2.5222 19.6917 3.7422V17.8522C19.6917 19.0622 19.0317 19.6922 17.8717 19.6922ZM5.2117 15.5122H9.2817C9.6917 15.5122 9.9517 15.2422 9.9517 14.8322C9.9517 14.3922 9.6817 14.1422 9.2817 14.1422H6.5017V14.0522L8.2117 11.8822C9.3917 10.4322 9.7717 9.5622 9.7717 8.5322C9.7717 6.9522 8.6917 5.8022 7.0817 5.8022C5.5817 5.8022 4.4417 7.0422 4.4417 8.2622C4.4417 8.6922 4.6917 9.0022 5.1417 9.0022C5.5317 9.0022 5.7617 8.8222 5.8817 8.4422C6.1017 7.6522 6.4017 7.1622 7.0617 7.1622C7.7717 7.1622 8.1717 7.7822 8.1717 8.6122C8.1717 9.5522 7.5217 10.5022 6.8917 11.2922L4.8617 13.9022C4.6417 14.1822 4.4317 14.4722 4.4317 14.8322C4.4317 15.2322 4.6717 15.5122 5.2117 15.5122ZM14.1917 15.7222C16.0517 15.7222 17.2417 14.5622 17.2417 12.9622C17.2417 11.6822 16.4317 10.7622 15.4917 10.5422V10.5122C16.2817 10.2622 16.9717 9.5022 16.9717 8.3922C16.9717 6.8822 15.8417 5.8522 14.1917 5.8522C12.7517 5.8522 11.4417 6.7422 11.4417 8.3822C11.4417 9.5722 12.1717 10.2822 12.9217 10.5122V10.5422C11.9317 10.7722 11.1717 11.6922 11.1717 12.9622C11.1717 14.6922 12.4817 15.7222 14.1917 15.7222ZM14.2017 9.9722C13.4517 9.9722 13.0617 9.2422 13.0617 8.5522C13.0617 7.8022 13.4717 7.1022 14.2017 7.1022C14.9517 7.1022 15.3317 7.8022 15.3317 8.5522C15.3317 9.3322 14.9417 9.9722 14.2017 9.9722ZM14.2017 14.4622C13.3517 14.4622 12.9217 13.7022 12.9217 12.8322C12.9217 11.9922 13.3517 11.2422 14.2017 11.2422C15.0317 11.2422 15.4817 11.9422 15.4817 12.8322C15.4817 13.7022 15.0617 14.4622 14.2017 14.4622Z" />
        </svg>
    