
        <svg xmlns="http://www.w3.org/2000/svg" viewBox="0 0 100 100">
            <path d="M3.1617 20.742H17.5917C19.6617 20.742 20.7417 19.642 20.7417 17.592V3.152C20.7417 1.102 19.6617 0.002 17.5917 0.002H3.1617C1.0917 0.002 0.0017 1.082 0.0017 3.152V17.592C0.0017 19.662 1.0917 20.742 3.1617 20.742ZM3.1917 19.872C1.6617 19.872 0.8717 19.082 0.8717 17.552V3.202C0.8717 1.662 1.6617 0.872 3.1917 0.872H17.5517C19.0317 0.872 19.8717 1.662 19.8717 3.202V17.552C19.8717 19.082 19.0317 19.872 17.5517 19.872ZM5.1117 15.102H9.1317C9.3517 15.102 9.5117 14.942 9.5117 14.722C9.5117 14.482 9.3517 14.322 9.1317 14.322H5.8317V14.272L8.0317 11.212C8.9717 9.912 9.3017 9.062 9.3017 8.072C9.3017 6.612 8.4817 5.442 6.9817 5.442C5.6017 5.442 4.6917 6.692 4.6917 7.932C4.6917 8.132 4.8017 8.342 5.0717 8.342C5.2817 8.342 5.4417 8.222 5.4717 8.032C5.6417 6.962 6.0717 6.222 6.9917 6.222C8.0117 6.222 8.4617 7.192 8.4617 8.122C8.4617 9.002 8.1017 9.782 7.3617 10.802L4.8517 14.252C4.7317 14.412 4.6617 14.552 4.6617 14.732C4.6617 14.962 4.8417 15.102 5.1117 15.102ZM13.1117 11.832C14.2217 11.832 14.9417 11.012 15.1617 9.942H15.2117V10.122C15.2117 11.702 14.9717 14.492 13.2917 14.492C12.5417 14.492 12.0817 13.942 11.8317 13.152C11.7317 12.842 11.5917 12.742 11.4017 12.742C11.1317 12.742 11.0017 12.912 11.0017 13.152C11.0017 13.262 11.0417 13.432 11.1017 13.582C11.3817 14.632 12.2317 15.292 13.3017 15.292C15.5117 15.292 16.0817 12.382 16.0817 10.182C16.0817 8.002 15.4417 5.442 13.3217 5.442C11.7117 5.442 10.8017 6.972 10.8017 8.732C10.8017 10.312 11.5617 11.832 13.1117 11.832ZM13.3217 11.072C12.2117 11.072 11.6817 9.842 11.6817 8.722C11.6817 7.542 12.2217 6.222 13.3217 6.222C14.4717 6.222 15.0317 7.572 15.0317 8.722C15.0317 9.882 14.4117 11.072 13.3217 11.072Z" />
        </svg>
    