
        <svg xmlns="http://www.w3.org/2000/svg" viewBox="0 0 100 100">
            <path d="M15.61 17.3211C16.04 17.3211 16.39 16.9711 16.39 16.5311V9.1611H26.32V16.5311C26.32 16.9711 26.67 17.3211 27.12 17.3211C27.55 17.3211 27.9 16.9711 27.9 16.5311V0.8011C27.9 0.3511 27.55 0.0011 27.12 0.0011C26.67 0.0011 26.32 0.3511 26.32 0.8011V7.7611H16.39V0.8011C16.39 0.3511 16.04 0.0011 15.61 0.0011C15.16 0.0011 14.81 0.3511 14.81 0.8011V16.5311C14.81 16.9711 15.16 17.3211 15.61 17.3211ZM0.8 17.1111H10.79C11.24 17.1111 11.53 16.8311 11.53 16.3911C11.53 15.9511 11.24 15.6711 10.79 15.6711H2.26V15.6211L7.2 10.6911C10 7.9011 10.84 6.5111 10.84 4.7311C10.84 2.0711 8.53 0.0211 5.44 0.0211C3.05 0.0211 0.98 1.3011 0.27 3.2911C0.11 3.7311 0.02 4.1411 0.02 4.4511C0.02 4.9211 0.28 5.2111 0.74 5.2111C1.16 5.2111 1.35 5.0111 1.46 4.5611C1.55 4.1811 1.65 3.8211 1.83 3.4911C2.45 2.2811 3.74 1.4411 5.44 1.4411C7.55 1.4411 9.22 2.9511 9.22 4.8211C9.22 6.2311 8.59 7.2511 6.12 9.7411L0.49 15.4211C0.12 15.8011 0 16.0211 0 16.3511C0 16.8311 0.32 17.1111 0.8 17.1111Z" />
        </svg>
    