
        <svg xmlns="http://www.w3.org/2000/svg" viewBox="0 0 100 100">
            <path d="M12.7923 25.6044C19.8723 25.6044 25.6023 19.8644 25.6023 12.7944C25.6023 5.7344 19.8723 0.0044 12.7923 0.0044C5.7323 0.0044 0.0023 5.7344 0.0023 12.7944C0.0023 19.8644 5.7323 25.6044 12.7923 25.6044ZM12.7923 21.4244C8.0323 21.4244 4.1723 17.5644 4.1723 12.7944C4.1723 8.0244 8.0323 4.1744 12.7923 4.1744C17.5623 4.1744 21.4323 8.0244 21.4323 12.7944C21.4323 17.5644 17.5623 21.4244 12.7923 21.4244ZM12.9023 18.1544C15.7723 18.1544 17.5523 16.9444 17.5523 15.0044C17.5523 13.7144 16.6323 12.6844 15.3823 12.5844V12.3944C16.4323 12.2744 17.3223 11.3044 17.3223 10.3044C17.3223 8.5644 15.6023 7.4444 12.9123 7.4444C10.7823 7.4444 9.2623 8.1644 8.8023 9.3544C8.7223 9.5744 8.6723 9.8044 8.6723 10.0444C8.6723 10.9144 9.2923 11.4444 10.3123 11.4444C10.9123 11.4444 11.3423 11.2344 11.7323 10.7544C12.0323 10.3444 12.4323 10.1244 12.8923 10.1244C13.3823 10.1244 13.7023 10.3444 13.7023 10.6944C13.7023 11.1044 13.3723 11.3944 12.8423 11.3944H12.7623C11.7423 11.3944 11.1523 11.8944 11.1523 12.7644C11.1523 13.6044 11.7823 14.1444 12.7623 14.1444H12.8523C13.4923 14.1444 13.8123 14.3644 13.8123 14.7644C13.8123 15.1144 13.4723 15.3644 12.9823 15.3644C12.4023 15.3644 11.9923 15.1544 11.6623 14.7344C11.2923 14.2644 10.8423 14.0344 10.2423 14.0344C9.2323 14.0344 8.6123 14.5744 8.6123 15.4444C8.6123 15.6844 8.6623 15.9144 8.7423 16.1344C9.2023 17.3244 10.9023 18.1544 12.9023 18.1544Z" />
        </svg>
    