
        <svg xmlns="http://www.w3.org/2000/svg" viewBox="0 0 100 100">
            <path d="M11.4923 22.977C17.8123 22.977 22.9823 17.827 22.9823 11.497C22.9823 5.167 17.8123 -0.003 11.4923 -0.003C5.1723 -0.003 0.0023 5.167 0.0023 11.497C0.0023 17.827 5.1723 22.977 11.4923 22.977ZM11.5523 16.897C9.8923 16.897 8.5223 16.047 8.1523 14.777C8.1323 14.647 8.1123 14.557 8.1123 14.427C8.1123 14.177 8.2923 13.997 8.5423 13.997C8.7623 13.997 8.9023 14.107 8.9723 14.367C9.2123 15.377 10.2423 16.117 11.5623 16.117C13.1823 16.117 14.2823 15.207 14.2823 13.867C14.2823 12.637 13.1723 11.707 11.6923 11.707H10.6523C10.4223 11.707 10.2523 11.557 10.2523 11.317C10.2523 11.087 10.4223 10.917 10.6523 10.917H11.6123C12.9023 10.917 13.9123 10.017 13.9123 8.837C13.9123 7.667 12.9723 6.877 11.5623 6.877C10.3123 6.877 9.3623 7.577 9.2023 8.627C9.1523 8.867 9.0123 8.987 8.7623 8.987C8.5223 8.987 8.3523 8.827 8.3523 8.567C8.3523 8.437 8.3623 8.347 8.3923 8.217C8.5823 6.957 9.9523 6.097 11.5623 6.097C13.4423 6.097 14.8123 7.197 14.8123 8.727C14.8123 9.947 13.9223 11.027 12.7223 11.237V11.307C14.1223 11.447 15.1923 12.567 15.1923 13.887C15.1923 15.637 13.7023 16.897 11.5523 16.897Z" />
        </svg>
    