
        <svg xmlns="http://www.w3.org/2000/svg" viewBox="0 0 100 100">
            <path d="M0.0017 18.8652C0.0017 20.0152 0.9417 20.9452 2.0817 20.9452C3.2217 20.9452 4.1617 20.0152 4.1617 18.8652V2.0852C4.1617 0.9352 3.2217 -0.0048 2.0817 -0.0048C0.9417 -0.0048 0.0017 0.9352 0.0017 2.0852ZM19.0817 18.8652C19.0817 20.0152 20.0117 20.9452 21.1517 20.9452C22.3017 20.9452 23.2417 20.0152 23.2417 18.8652V2.0852C23.2417 0.9352 22.3017 -0.0048 21.1517 -0.0048C20.0117 -0.0048 19.0817 0.9352 19.0817 2.0852ZM11.5317 15.5052C13.5117 15.5052 15.2717 14.5052 15.2717 12.5352C15.2717 11.0352 14.2517 10.3852 13.2117 10.2652V10.2052C14.1117 9.9752 14.9217 9.1952 14.9217 7.9652C14.9217 6.2852 13.5717 5.2352 11.4817 5.2352C9.9417 5.2352 8.5417 6.0452 8.2417 7.2352C8.1917 7.3952 8.1717 7.5552 8.1717 7.7352C8.1717 8.4152 8.6217 8.8052 9.3117 8.8052C9.8917 8.8052 10.3617 8.6152 10.5717 8.0252C10.7617 7.5852 11.0117 7.3152 11.4917 7.3152C12.0517 7.3152 12.3417 7.7352 12.3417 8.2852C12.3417 8.9752 11.9517 9.3852 11.2617 9.3852H11.1517C10.4017 9.3852 10.1417 9.8452 10.1417 10.3152C10.1417 10.9252 10.5517 11.2352 11.1517 11.2352H11.2617C12.0517 11.2352 12.5117 11.5652 12.5117 12.3352C12.5117 13.0052 12.0917 13.3852 11.5417 13.3852C11.0117 13.3852 10.7017 13.1352 10.4617 12.6752C10.2217 12.1452 9.8217 11.8952 9.2317 11.8952C8.5117 11.8952 8.0117 12.3252 8.0117 13.0552C8.0117 13.3252 8.0717 13.5852 8.1917 13.8152C8.7417 15.0252 10.1817 15.5052 11.5317 15.5052Z" />
        </svg>
    