
        <svg xmlns="http://www.w3.org/2000/svg" viewBox="0 0 100 100">
            <path d="M0.0017 18.3519C0.0017 19.3519 0.8117 20.1719 1.8117 20.1719C2.8117 20.1719 3.6217 19.3519 3.6217 18.3519V1.8019C3.6217 0.8119 2.8117 0.0019 1.8117 0.0019C0.8117 0.0019 0.0017 0.8119 0.0017 1.8019ZM19.2217 18.3519C19.2217 19.3519 20.0417 20.1719 21.0317 20.1719C22.0317 20.1719 22.8517 19.3519 22.8517 18.3519V1.8019C22.8517 0.8119 22.0317 0.0019 21.0317 0.0019C20.0417 0.0019 19.2217 0.8119 19.2217 1.8019ZM11.3417 15.2319C13.3217 15.2319 15.0217 14.2019 15.0217 12.2419C15.0217 10.7419 14.0117 10.0419 12.9217 9.9219V9.8919C13.9017 9.6419 14.6817 8.8219 14.6817 7.6019C14.6817 5.9019 13.3217 4.8819 11.3017 4.8819C9.7617 4.8819 8.4017 5.7119 8.1017 6.8919C8.0517 7.0519 8.0317 7.2219 8.0317 7.3819C8.0317 8.0019 8.4217 8.3819 9.0817 8.3819C9.6317 8.3819 10.0417 8.1919 10.2417 7.6519C10.4417 7.1119 10.7717 6.8219 11.3117 6.8219C11.9417 6.8219 12.2917 7.2819 12.2917 7.9119C12.2917 8.6719 11.8517 9.1219 11.0817 9.1219H10.9117C10.2317 9.1219 9.9617 9.5319 9.9617 9.9819C9.9617 10.5619 10.3317 10.8519 10.9117 10.8519H11.0817C11.9417 10.8519 12.4917 11.2119 12.4917 12.0819C12.4917 12.8219 12.0117 13.2519 11.3517 13.2519C10.7317 13.2519 10.3717 12.9519 10.1217 12.4319C9.9017 11.9319 9.5317 11.6919 8.9917 11.6919C8.3217 11.6919 7.8617 12.0919 7.8617 12.7719C7.8617 13.0219 7.9217 13.2519 8.0117 13.4619C8.5217 14.7119 9.9717 15.2319 11.3417 15.2319Z" />
        </svg>
    