
        <svg xmlns="http://www.w3.org/2000/svg" viewBox="0 0 100 100">
            <path d="M0.0017 17.0714C0.0017 17.3214 0.2017 17.5114 0.4317 17.5114C0.6817 17.5114 0.8717 17.3214 0.8717 17.0714V0.4314C0.8717 0.2014 0.6817 0.0014 0.4317 0.0014C0.2017 0.0014 0.0017 0.2014 0.0017 0.4314ZM19.8717 17.0714C19.8717 17.3214 20.0717 17.5114 20.3117 17.5114C20.5417 17.5114 20.7417 17.3214 20.7417 17.0714V0.4314C20.7417 0.2014 20.5417 0.0014 20.3117 0.0014C20.0717 0.0014 19.8717 0.2014 19.8717 0.4314ZM10.3717 13.9914C12.1917 13.9914 13.5717 12.8214 13.5717 11.0814C13.5717 9.6514 12.6517 8.7614 11.3417 8.6414C12.4017 8.4014 13.2217 7.5314 13.2217 6.2814C13.2217 4.7414 12.0217 3.7014 10.3117 3.7014C8.9517 3.7014 7.9017 4.4614 7.5517 5.5814C7.4717 5.7514 7.4417 5.9614 7.4417 6.1514C7.4417 6.4114 7.5817 6.6014 7.8717 6.6014C8.1417 6.6014 8.2417 6.4214 8.3117 6.1714C8.5217 5.2014 9.2317 4.5314 10.3117 4.5314C11.4617 4.5314 12.2717 5.2414 12.2717 6.3714C12.2717 7.5514 11.3817 8.2714 10.1717 8.2714H9.4717C9.2217 8.2714 9.0617 8.4214 9.0617 8.6714C9.0617 8.9214 9.2217 9.0714 9.4717 9.0714H10.1917C11.6017 9.0714 12.6017 9.6914 12.6017 11.0814C12.6017 12.2814 11.6917 13.1514 10.3817 13.1514C9.2017 13.1514 8.3417 12.4814 8.1317 11.4914C8.0617 11.2614 7.9317 11.0714 7.6717 11.0714C7.4017 11.0714 7.2417 11.2614 7.2417 11.5314C7.2417 11.7314 7.2817 11.9214 7.3517 12.1014C7.7817 13.3614 9.0317 13.9914 10.3717 13.9914Z" />
        </svg>
    