
        <svg xmlns="http://www.w3.org/2000/svg" viewBox="0 0 100 100">
            <path d="M3.6817 21.5722H17.8917C20.3517 21.5722 21.5717 20.3722 21.5717 17.9522V3.6322C21.5717 1.2222 20.3517 0.0022 17.8917 0.0022H3.6817C1.2317 0.0022 0.0017 1.2222 0.0017 3.6322V17.9522C0.0017 20.3722 1.2317 21.5722 3.6817 21.5722ZM3.7017 19.6922C2.5317 19.6922 1.8917 19.0622 1.8917 17.8522V3.7422C1.8917 2.5222 2.5317 1.8822 3.7017 1.8822H17.8717C19.0317 1.8822 19.6917 2.5222 19.6917 3.7422V17.8522C19.6917 19.0622 19.0317 19.6922 17.8717 19.6922ZM10.8417 16.3622C13.3517 16.3622 14.9017 15.0322 14.9017 13.1922C14.9017 11.8122 13.8617 10.7122 12.4417 10.5822V10.4922C13.6217 10.3122 14.5317 9.2322 14.5317 8.0022C14.5317 6.3722 13.0317 5.2022 10.9317 5.2022C9.0217 5.2022 7.5817 6.0922 7.2817 7.4722C7.2317 7.6422 7.2217 7.7722 7.2217 7.9422C7.2217 8.4022 7.5517 8.7222 8.0117 8.7222C8.4417 8.7222 8.6817 8.5222 8.8217 8.1122C9.0817 7.2322 9.8217 6.6822 10.9017 6.6822C12.0717 6.6822 12.8017 7.2622 12.8017 8.2122C12.8017 9.1722 11.9717 9.8922 10.8617 9.8922H10.1217C9.7017 9.8922 9.3917 10.1822 9.3917 10.6122C9.3917 11.0322 9.7017 11.3322 10.1217 11.3322H10.9217C12.2417 11.3322 13.1617 12.0622 13.1617 13.1222C13.1617 14.1822 12.2417 14.8722 10.8717 14.8722C9.6017 14.8722 8.8917 14.2522 8.6017 13.4422C8.4517 13.0322 8.2017 12.8422 7.7917 12.8422C7.3217 12.8422 6.9917 13.1722 6.9917 13.6422C6.9917 13.8122 7.0117 13.9222 7.0417 14.0822C7.3917 15.4322 8.9217 16.3622 10.8417 16.3622Z" />
        </svg>
    