
        <svg xmlns="http://www.w3.org/2000/svg" viewBox="0 0 100 100">
            <path d="M4.3817 22.8467H18.4717C21.2617 22.8467 22.8517 21.2667 22.8517 18.4767V4.3667C22.8517 1.5867 21.2617 -0.0033 18.4717 -0.0033H4.3817C1.5917 -0.0033 0.0017 1.5867 0.0017 4.3667V18.4767C0.0017 21.2667 1.5917 22.8467 4.3817 22.8467ZM11.6117 17.1867C9.4917 17.1867 7.7217 16.2867 7.2617 14.9767C7.1817 14.7567 7.1417 14.5467 7.1417 14.2967C7.1417 13.4667 7.7317 12.9367 8.6817 12.9367C9.2817 12.9367 9.7117 13.1867 10.0517 13.6667C10.3817 14.2067 10.9017 14.5167 11.6817 14.5167C12.4217 14.5167 12.9217 14.1567 12.9217 13.6167C12.9217 13.0267 12.4317 12.6667 11.5917 12.6667H11.3217C10.4017 12.6667 9.8217 12.1567 9.8217 11.3567C9.8217 10.5367 10.3817 10.0467 11.3217 10.0467H11.5817C12.2717 10.0467 12.7417 9.6467 12.7417 9.0667C12.7417 8.5567 12.3017 8.2267 11.6217 8.2267C10.9817 8.2267 10.4717 8.5467 10.1617 9.0967C9.8117 9.5867 9.3717 9.8067 8.8017 9.8067C7.8417 9.8067 7.2517 9.2967 7.2517 8.4567C7.2517 8.2267 7.2917 8.0067 7.3617 7.7767C7.8117 6.4667 9.4217 5.6567 11.6417 5.6567C14.3717 5.6567 16.1517 6.8567 16.1517 8.7067C16.1517 9.8167 15.2017 10.8767 14.0517 11.0267V11.2067C15.4217 11.3067 16.4417 12.4267 16.4417 13.8267C16.4417 15.8767 14.6017 17.1867 11.6117 17.1867Z" />
        </svg>
    