
        <svg xmlns="http://www.w3.org/2000/svg" viewBox="0 0 100 100">
            <path d="M4.5917 23.2359H18.6417C21.5417 23.2359 23.2417 21.5459 23.2417 18.6459V4.5959C23.2417 1.6959 21.5417 -0.0041 18.6417 -0.0041H4.5917C1.7017 -0.0041 0.0017 1.6959 0.0017 4.5959V18.6459C0.0017 21.5459 1.7017 23.2359 4.5917 23.2359ZM5.2217 19.0759C4.5117 19.0759 4.1617 18.7859 4.1617 18.0159V5.2359C4.1617 4.4659 4.5117 4.1759 5.2217 4.1759H18.0117C18.7217 4.1759 19.0817 4.4659 19.0817 5.2359V18.0159C19.0817 18.7859 18.7217 19.0759 18.0117 19.0759ZM11.7317 16.9759C14.6017 16.9759 16.3817 15.7659 16.3817 13.8259C16.3817 12.5259 15.4617 11.5059 14.2117 11.4159V11.2259C15.2617 11.0859 16.1517 10.1359 16.1517 9.1259C16.1517 7.3859 14.4217 6.2659 11.7317 6.2659C9.6117 6.2659 8.0817 6.9859 7.6317 8.1759C7.5517 8.4059 7.5017 8.6259 7.5017 8.8759C7.5017 9.7359 8.1217 10.2659 9.1417 10.2659C9.7417 10.2659 10.1717 10.0559 10.5517 9.5859C10.8617 9.1759 11.2617 8.9559 11.7217 8.9559C12.2117 8.9559 12.5317 9.1759 12.5317 9.5159C12.5317 9.9359 12.2017 10.2059 11.6717 10.2059H11.5917C10.5717 10.2059 9.9817 10.7259 9.9817 11.5759C9.9817 12.4359 10.6017 12.9759 11.5917 12.9759H11.6717C12.3117 12.9759 12.6417 13.1859 12.6417 13.5859C12.6417 13.9459 12.3017 14.1959 11.8117 14.1959C11.2217 14.1959 10.8117 13.9659 10.4917 13.5559C10.1217 13.0859 9.6717 12.8659 9.0717 12.8659C8.0617 12.8659 7.4417 13.4059 7.4417 14.2759C7.4417 14.5059 7.4917 14.7459 7.5717 14.9559C8.0317 16.1459 9.7117 16.9759 11.7317 16.9759Z" />
        </svg>
    