
        <svg xmlns="http://www.w3.org/2000/svg" viewBox="0 0 100 100">
            <path d="M11.3523 24.9126C17.6323 24.9126 22.7123 19.8326 22.7123 13.5626C22.7123 7.9626 18.6423 3.2926 13.3023 2.3726V0.3926C13.3023 0.0226 13.0323 -0.1274 12.6823 0.1226L9.2123 2.5426C8.9223 2.7426 8.9223 3.0126 9.2123 3.2126L12.6823 5.6426C13.0323 5.8826 13.3023 5.7426 13.3023 5.3726V2.9526C18.3123 3.8626 22.1323 8.2626 22.1323 13.5626C22.1323 19.5226 17.3223 24.3426 11.3523 24.3426C5.3923 24.3426 0.5723 19.5226 0.5723 13.5626C0.5723 9.5526 2.7523 6.0426 6.0223 4.1826C6.1623 4.1026 6.2123 3.9326 6.1423 3.7926C6.0723 3.6626 5.8823 3.6126 5.7323 3.6926C2.2923 5.6526 0.0023 9.3526 0.0023 13.5626C0.0023 19.8326 5.0823 24.9126 11.3523 24.9126ZM14.8923 18.2826C17.1223 18.2826 17.8123 15.7426 17.8123 13.6226C17.8123 11.4426 17.0823 8.9726 14.8923 8.9726C12.6523 8.9726 11.9623 11.5126 11.9623 13.6226C11.9623 15.8126 12.7123 18.2826 14.8923 18.2826ZM7.7123 18.2726C9.3323 18.2726 10.5323 17.1926 10.5323 15.6426C10.5323 14.3926 9.7423 13.5726 8.5323 13.4326C9.4823 13.2026 10.2023 12.4526 10.2023 11.3126C10.2023 9.9626 9.1723 8.9926 7.6523 8.9926C6.4523 8.9926 5.5423 9.6726 5.2123 10.6526C5.1423 10.8226 5.1123 11.0326 5.1123 11.2026C5.1123 11.4026 5.2123 11.5126 5.4023 11.5126C5.6123 11.5126 5.6623 11.3726 5.7023 11.1926C5.8723 10.2826 6.5723 9.6026 7.6523 9.6026C8.7423 9.6026 9.5623 10.2526 9.5623 11.3626C9.5623 12.4726 8.6823 13.1726 7.5323 13.1726H6.8123C6.6423 13.1726 6.5123 13.2926 6.5123 13.4726C6.5123 13.6326 6.6423 13.7526 6.8123 13.7526H7.5623C8.9223 13.7526 9.8823 14.3626 9.8823 15.6826C9.8823 16.8326 8.9923 17.6626 7.7123 17.6626C6.5823 17.6626 5.7223 17.0226 5.5323 16.0626C5.4823 15.8826 5.4123 15.7226 5.2223 15.7226C5.0323 15.7226 4.9123 15.8726 4.9123 16.0326C4.9123 16.2326 4.9523 16.4126 5.0423 16.5926C5.4423 17.7126 6.5123 18.2726 7.7123 18.2726ZM14.8923 17.6826C13.1523 17.6826 12.6223 15.3926 12.6223 13.6226C12.6223 11.8026 13.1523 9.5526 14.8923 9.5526C16.6523 9.5526 17.1523 11.8426 17.1523 13.6226C17.1523 15.3926 16.6623 17.6826 14.8923 17.6826Z" />
        </svg>
    