
        <svg xmlns="http://www.w3.org/2000/svg" viewBox="0 0 100 100">
            <path d="M12.1023 24.2064C18.7823 24.2064 24.2123 18.7864 24.2123 12.1064C24.2123 5.4264 18.7823 -0.0036 12.1023 -0.0036C5.4223 -0.0036 0.0023 5.4264 0.0023 12.1064C0.0023 18.7864 5.4223 24.2064 12.1023 24.2064ZM12.1023 21.8164C6.7223 21.8164 2.3823 17.4864 2.3823 12.1064C2.3823 6.7264 6.7223 2.3764 12.1023 2.3764C17.4823 2.3764 21.8323 6.7264 21.8323 12.1064C21.8323 17.4864 17.4823 21.8164 12.1023 21.8164ZM15.6423 17.0064C17.9723 17.0064 18.6723 14.4164 18.6723 12.0964C18.6723 9.7664 17.9723 7.1864 15.6423 7.1864C13.3223 7.1864 12.6323 9.7664 12.6323 12.0964C12.6323 14.4164 13.3223 17.0064 15.6423 17.0064ZM8.4923 16.9764C10.1823 16.9764 11.4623 15.9364 11.4623 14.2064C11.4623 12.8064 10.6323 12.0664 9.6423 11.9664V11.9164C10.6423 11.6564 11.1823 10.7564 11.1823 9.7464C11.1823 8.1464 9.9923 7.2264 8.4523 7.2264C7.2523 7.2264 6.2023 7.8864 5.8623 8.9264C5.8023 9.1364 5.7823 9.3564 5.7823 9.5664C5.7823 9.9464 6.0323 10.2764 6.5323 10.2764C6.9423 10.2764 7.2023 10.1264 7.3223 9.7164C7.5023 9.0864 7.8323 8.6464 8.4523 8.6464C9.1623 8.6464 9.4923 9.2364 9.4923 9.9464C9.4923 10.7464 9.0723 11.3564 8.2423 11.3564H7.9923C7.5623 11.3564 7.3123 11.6064 7.3123 11.9964C7.3123 12.4064 7.5723 12.6464 7.9923 12.6464H8.2523C9.1923 12.6464 9.6923 13.1764 9.6923 14.1364C9.6923 14.8864 9.3023 15.5464 8.4923 15.5464C7.7223 15.5464 7.3723 15.0264 7.2323 14.5164C7.1023 14.1164 6.8323 13.9064 6.4323 13.9064C5.9523 13.9064 5.6223 14.2064 5.6223 14.6964C5.6223 14.9064 5.6623 15.1164 5.7223 15.3064C6.0623 16.3864 7.2323 16.9764 8.4923 16.9764ZM15.6423 15.5364C14.7823 15.5364 14.4423 14.0864 14.4423 12.0964C14.4423 10.1064 14.7823 8.6364 15.6423 8.6364C16.5223 8.6364 16.8623 10.1064 16.8623 12.0964C16.8623 14.0864 16.5223 15.5364 15.6423 15.5364Z" />
        </svg>
    