
        <svg xmlns="http://www.w3.org/2000/svg" viewBox="0 0 100 100">
            <path d="M4.5917 23.2359H18.6417C21.5417 23.2359 23.2417 21.5459 23.2417 18.6459V4.5959C23.2417 1.6959 21.5417 -0.0041 18.6417 -0.0041H4.5917C1.7017 -0.0041 0.0017 1.6959 0.0017 4.5959V18.6459C0.0017 21.5459 1.7017 23.2359 4.5917 23.2359ZM5.2217 19.0759C4.5117 19.0759 4.1617 18.7859 4.1617 18.0159V5.2359C4.1617 4.4659 4.5117 4.1759 5.2217 4.1759H18.0117C18.7217 4.1759 19.0817 4.4659 19.0817 5.2359V18.0159C19.0817 18.7859 18.7217 19.0759 18.0117 19.0759ZM14.9517 16.2159C17.2217 16.2159 17.9217 13.8159 17.9217 11.6259C17.9217 9.4359 17.2217 7.0159 14.9517 7.0159C12.6817 7.0159 11.9917 9.4359 11.9917 11.6259C11.9917 13.8159 12.6817 16.2159 14.9517 16.2159ZM8.1817 16.2059C9.9017 16.2059 11.1017 15.2059 11.1017 13.5959C11.1017 12.4659 10.4617 11.6759 9.5017 11.5459V11.4959C10.1717 11.3159 10.8417 10.5559 10.8417 9.4959C10.8417 7.9559 9.7417 7.0559 8.1017 7.0559C6.9817 7.0559 5.8917 7.6259 5.5917 8.6859C5.5317 8.8559 5.4917 9.0659 5.4917 9.2859C5.4917 9.6959 5.7417 10.1559 6.4217 10.1559C6.8517 10.1559 7.3017 10.0159 7.4317 9.5159C7.5217 9.1759 7.7117 8.7759 8.1317 8.7759C8.5917 8.7759 8.7317 9.2659 8.7317 9.7259C8.7317 10.2659 8.5317 10.8259 7.8917 10.8259H7.8117C7.2417 10.8259 6.9717 11.1259 6.9717 11.5859C6.9717 12.0659 7.2317 12.3659 7.8117 12.3659H7.9117C8.6117 12.3659 8.9217 12.7459 8.9217 13.4559C8.9217 13.9459 8.7217 14.4859 8.1517 14.4859C7.7617 14.4859 7.5317 14.1959 7.3917 13.8359C7.2217 13.3359 6.8817 13.0859 6.3917 13.0859C5.7817 13.0859 5.3917 13.4559 5.3917 14.0659C5.3917 14.2859 5.4117 14.4959 5.4717 14.6859C5.7917 15.6959 6.9117 16.2059 8.1817 16.2059ZM14.9517 14.4359C14.4617 14.4359 14.2617 13.4259 14.2617 11.6259C14.2617 9.8059 14.4617 8.7959 14.9517 8.7959C15.4417 8.7959 15.6417 9.8059 15.6417 11.6259C15.6417 13.4259 15.4417 14.4359 14.9517 14.4359Z" />
        </svg>
    