
        <svg xmlns="http://www.w3.org/2000/svg" viewBox="0 0 100 100">
            <path d="M12.7923 25.5978C19.8723 25.5978 25.6023 19.8678 25.6023 12.7978C25.6023 5.7278 19.8723 -0.0022 12.7923 -0.0022C5.7323 -0.0022 0.0023 5.7278 0.0023 12.7978C0.0023 19.8678 5.7323 25.5978 12.7923 25.5978ZM12.7923 21.4178C8.0323 21.4178 4.1723 17.5678 4.1723 12.7978C4.1723 8.0278 8.0323 4.1678 12.7923 4.1678C17.5623 4.1678 21.4323 8.0278 21.4323 12.7978C21.4323 17.5678 17.5623 21.4178 12.7923 21.4178ZM10.1623 17.3778C11.8823 17.3778 13.0923 16.3778 13.0923 14.7678C13.0923 13.6378 12.4523 12.8478 11.4823 12.7178V12.6678C12.1623 12.4878 12.8323 11.7278 12.8323 10.6678C12.8323 9.1278 11.7323 8.2278 10.0923 8.2278C8.9723 8.2278 7.8723 8.7978 7.5823 9.8578C7.5123 10.0278 7.4923 10.2378 7.4923 10.4578C7.4923 10.8678 7.7323 11.3278 8.4023 11.3278C8.8523 11.3278 9.2923 11.1878 9.4223 10.6878C9.5123 10.3478 9.7023 9.9478 10.1223 9.9478C10.5823 9.9478 10.7223 10.4378 10.7223 10.8978C10.7223 11.4378 10.5223 11.9978 9.8823 11.9978H9.8123C9.2323 11.9978 8.9623 12.3078 8.9623 12.7578C8.9623 13.2378 9.2223 13.5378 9.8123 13.5378H9.9023C10.6023 13.5378 10.9123 13.9178 10.9123 14.6278C10.9123 15.1178 10.7123 15.6578 10.1523 15.6578C9.7423 15.6578 9.5323 15.3678 9.3823 15.0078C9.2123 14.5178 8.8723 14.2578 8.3623 14.2578C7.7723 14.2578 7.3823 14.6378 7.3823 15.2378C7.3823 15.4678 7.4023 15.6678 7.4623 15.8578C7.7823 16.8678 8.9023 17.3778 10.1623 17.3778ZM16.6323 17.2978C17.2623 17.2978 17.7623 16.7978 17.7623 16.1578V9.5778C17.7623 8.7378 17.2623 8.2978 16.4423 8.2978C15.8323 8.2978 15.4223 8.5278 15.0023 8.8478L14.1223 9.5278C13.7823 9.7878 13.6323 10.0578 13.6323 10.4078C13.6323 10.9778 14.0123 11.2078 14.3623 11.2078C14.5823 11.2078 14.7323 11.1478 14.9223 11.0078L15.4923 10.5578V16.1578C15.4923 16.7978 15.9923 17.2978 16.6323 17.2978Z" />
        </svg>
    