
        <svg xmlns="http://www.w3.org/2000/svg" viewBox="0 0 100 100">
            <path d="M3.8417 21.8745H18.0317C20.5617 21.8745 21.8817 20.5745 21.8817 18.0745V3.8045C21.8817 1.3145 20.5617 0.0045 18.0317 0.0045H3.8417C1.3117 0.0045 0.0017 1.3045 0.0017 3.8045V18.0745C0.0017 20.5745 1.3117 21.8745 3.8417 21.8745ZM8.1317 16.0045C6.8317 16.0045 5.5917 15.3945 5.2517 14.2745C5.1817 14.0745 5.1517 13.8645 5.1517 13.6445C5.1517 13.1245 5.4817 12.8245 6.0017 12.8245C6.4217 12.8245 6.6917 13.0345 6.8217 13.4645C6.9717 13.9845 7.3317 14.5045 8.1317 14.5045C8.9717 14.5045 9.3717 13.8245 9.3717 13.0445C9.3717 12.0445 8.8617 11.5145 7.8717 11.5145H7.6217C7.1717 11.5145 6.9017 11.2645 6.9017 10.8545C6.9017 10.4345 7.1717 10.1645 7.6217 10.1645H7.8517C8.7317 10.1645 9.1717 9.5245 9.1717 8.7045C9.1717 7.9545 8.8217 7.3545 8.0817 7.3545C7.4417 7.3545 7.1017 7.8045 6.9217 8.4645C6.8117 8.8945 6.5117 9.0545 6.0917 9.0545C5.5617 9.0545 5.3117 8.6945 5.3117 8.2945C5.3117 8.0845 5.3317 7.8745 5.4017 7.6445C5.7417 6.5645 6.8417 5.8845 8.0817 5.8845C9.6917 5.8845 10.9317 6.8345 10.9317 8.4945C10.9317 9.5345 10.3617 10.4845 9.3317 10.7545V10.8045C10.3617 10.9245 11.2117 11.6845 11.2117 13.1245C11.2117 14.9145 9.8917 16.0045 8.1317 16.0045ZM15.2317 15.9245C14.7217 15.9245 14.2817 15.5045 14.2817 14.9645V7.8745L13.2617 8.6845C13.1417 8.8045 12.9917 8.8545 12.8117 8.8545C12.4417 8.8545 12.1517 8.5945 12.1517 8.1845C12.1517 7.8545 12.3117 7.5945 12.5617 7.4145L13.8117 6.4345C14.1317 6.1945 14.5417 5.9345 15.0917 5.9345C15.7617 5.9345 16.1817 6.3045 16.1817 6.9845V14.9645C16.1817 15.5045 15.7617 15.9245 15.2317 15.9245Z" />
        </svg>
    