
        <svg xmlns="http://www.w3.org/2000/svg" viewBox="0 0 100 100">
            <path d="M12.1023 24.2064C18.7823 24.2064 24.2123 18.7864 24.2123 12.1064C24.2123 5.4264 18.7823 -0.0036 12.1023 -0.0036C5.4223 -0.0036 0.0023 5.4264 0.0023 12.1064C0.0023 18.7864 5.4223 24.2064 12.1023 24.2064ZM13.6523 16.9664C13.0623 16.9664 12.7823 16.6564 12.7823 16.2064C12.7823 15.8164 12.9923 15.5264 13.2623 15.1764L15.2423 12.6364C15.9023 11.7964 16.5623 10.8564 16.5623 9.9064C16.5623 9.1064 16.2023 8.4864 15.5123 8.4864C14.8723 8.4864 14.5923 8.9764 14.3923 9.7164C14.2523 10.1464 13.9823 10.3464 13.5623 10.3464C13.0623 10.3464 12.7923 9.9964 12.7923 9.5164C12.7923 8.2464 13.9823 7.0064 15.5123 7.0064C17.2023 7.0064 18.3323 8.1564 18.3323 9.8164C18.3323 10.9364 17.8823 11.8264 16.7223 13.2564L15.0423 15.3564V15.4464H17.7823C18.2423 15.4464 18.5023 15.7464 18.5023 16.2064C18.5023 16.6364 18.2623 16.9664 17.7823 16.9664ZM8.5223 17.1764C7.2023 17.1764 5.9923 16.5664 5.6323 15.4464C5.5823 15.2464 5.5423 15.0364 5.5423 14.8164C5.5423 14.2964 5.8823 13.9964 6.3823 13.9964C6.7923 13.9964 7.0823 14.2064 7.2023 14.6364C7.3623 15.1564 7.7223 15.6764 8.5223 15.6764C9.3623 15.6764 9.7623 14.9964 9.7623 14.2264C9.7623 13.2164 9.2323 12.6864 8.2623 12.6864H7.9923C7.5623 12.6864 7.2823 12.4364 7.2823 12.0264C7.2823 11.6064 7.5423 11.3364 7.9923 11.3364H8.2523C9.1123 11.3364 9.5523 10.6964 9.5523 9.8764C9.5523 9.1264 9.2123 8.5264 8.4723 8.5264C7.8423 8.5264 7.4923 8.9764 7.3123 9.6364C7.1823 10.0664 6.9023 10.2264 6.4823 10.2264C5.9523 10.2264 5.6823 9.8664 5.6823 9.4664C5.6823 9.2664 5.7223 9.0464 5.7823 8.8164C6.1323 7.7364 7.2223 7.0564 8.4623 7.0564C10.0823 7.0564 11.3223 8.0064 11.3223 9.6664C11.3223 10.7064 10.7623 11.6564 9.7223 11.9264V11.9764C10.7323 12.0964 11.6023 12.8564 11.6023 14.2964C11.6023 16.1064 10.2823 17.1764 8.5223 17.1764Z" />
        </svg>
    