
        <svg xmlns="http://www.w3.org/2000/svg" viewBox="0 0 100 100">
            <path d="M12.1023 24.2064C18.7823 24.2064 24.2123 18.7864 24.2123 12.1064C24.2123 5.4264 18.7823 -0.0036 12.1023 -0.0036C5.4223 -0.0036 0.0023 5.4264 0.0023 12.1064C0.0023 18.7864 5.4223 24.2064 12.1023 24.2064ZM8.4723 17.1764C7.1723 17.1764 5.9423 16.5664 5.5923 15.4464C5.5323 15.2464 5.4923 15.0364 5.4923 14.8164C5.4923 14.2964 5.8323 13.9964 6.3423 13.9964C6.7623 13.9964 7.0323 14.2064 7.1723 14.6364C7.3123 15.1564 7.6723 15.6764 8.4723 15.6764C9.3123 15.6764 9.7123 14.9964 9.7123 14.2164C9.7123 13.2164 9.2023 12.6864 8.2123 12.6864H7.9523C7.5123 12.6864 7.2423 12.4364 7.2423 12.0264C7.2423 11.6064 7.5123 11.3364 7.9523 11.3364H8.2023C9.0723 11.3364 9.5123 10.6964 9.5123 9.8764C9.5123 9.1264 9.1723 8.5264 8.4223 8.5264C7.7923 8.5264 7.4423 8.9764 7.2623 9.6364C7.1523 10.0664 6.8623 10.2264 6.4323 10.2264C5.9023 10.2264 5.6523 9.8664 5.6523 9.4664C5.6523 9.2564 5.6723 9.0464 5.7423 8.8164C6.0823 7.7364 7.1823 7.0564 8.4223 7.0564C10.0323 7.0564 11.2723 8.0064 11.2723 9.6664C11.2723 10.7064 10.7123 11.6564 9.6823 11.9264V11.9764C10.7023 12.0964 11.5523 12.8564 11.5523 14.2964C11.5523 16.0864 10.2323 17.1764 8.4723 17.1764ZM15.7623 17.1764C14.4523 17.1764 13.2323 16.5664 12.8823 15.4464C12.8223 15.2464 12.7823 15.0364 12.7823 14.8164C12.7823 14.2964 13.1123 13.9964 13.6323 13.9964C14.0423 13.9964 14.3223 14.2064 14.4523 14.6364C14.6023 15.1564 14.9623 15.6764 15.7623 15.6764C16.6023 15.6764 17.0023 14.9964 17.0023 14.2164C17.0023 13.2164 16.4723 12.6864 15.5023 12.6864H15.2323C14.7923 12.6864 14.5223 12.4364 14.5223 12.0264C14.5223 11.6064 14.7923 11.3364 15.2323 11.3364H15.4923C16.3523 11.3364 16.7923 10.6964 16.7923 9.8764C16.7923 9.1264 16.4523 8.5264 15.7023 8.5264C15.0823 8.5264 14.7323 8.9764 14.5523 9.6364C14.4223 10.0664 14.1423 10.2264 13.7223 10.2264C13.1923 10.2264 12.9223 9.8664 12.9223 9.4664C12.9223 9.2564 12.9623 9.0464 13.0223 8.8164C13.3723 7.7364 14.4623 7.0564 15.7023 7.0564C17.3223 7.0564 18.5523 8.0064 18.5523 9.6664C18.5523 10.7064 17.9923 11.6564 16.9723 11.9264V11.9764C17.9723 12.0964 18.8423 12.8564 18.8423 14.2964C18.8423 16.0864 17.5223 17.1764 15.7623 17.1764Z" />
        </svg>
    