
        <svg xmlns="http://www.w3.org/2000/svg" viewBox="0 0 100 100">
            <path d="M11.3523 22.7064C17.6323 22.7064 22.7123 17.6264 22.7123 11.3564C22.7123 5.0764 17.6323 -0.0036 11.3523 -0.0036C5.0823 -0.0036 0.0023 5.0764 0.0023 11.3564C0.0023 17.6264 5.0823 22.7064 11.3523 22.7064ZM11.3523 22.1364C5.3923 22.1364 0.5723 17.3164 0.5723 11.3564C0.5723 5.3864 5.3923 0.5764 11.3523 0.5764C17.3223 0.5764 22.1323 5.3864 22.1323 11.3564C22.1323 17.3164 17.3223 22.1364 11.3523 22.1364ZM8.1423 16.2464C9.5723 16.2464 10.6123 15.1664 10.6123 13.4864C10.6123 12.2564 10.0123 11.2664 8.8023 11.1564V11.1364C9.8523 10.8664 10.3523 9.8664 10.3523 8.8664C10.3523 7.4664 9.4823 6.4664 8.1023 6.4664C6.9523 6.4664 6.2423 7.1464 5.9323 8.1764C5.8523 8.4364 5.8323 8.6464 5.8323 8.7664C5.8323 8.9564 5.9423 9.0964 6.1323 9.0964C6.3523 9.0964 6.3823 8.9564 6.4323 8.7264C6.5823 7.8564 7.1123 7.0664 8.1023 7.0664C9.1423 7.0664 9.7123 7.9064 9.7123 8.9364C9.7123 10.0164 9.0223 10.8764 7.9323 10.8764H7.3923C7.1923 10.8764 7.1123 11.0264 7.1123 11.1664C7.1123 11.3364 7.2323 11.4564 7.3923 11.4564H7.9523C9.2023 11.4564 9.9523 12.1564 9.9523 13.5264C9.9523 14.6264 9.3823 15.6364 8.1723 15.6364C7.0323 15.6364 6.4023 14.7564 6.2823 13.9364C6.2623 13.7064 6.1923 13.5964 5.9623 13.5964C5.7923 13.5964 5.6723 13.7264 5.6723 13.9064C5.6723 14.0664 5.7223 14.3364 5.7823 14.5064C6.0923 15.5264 6.9423 16.2464 8.1423 16.2464ZM14.5523 16.2464C15.9823 16.2464 17.0323 15.1664 17.0323 13.4864C17.0323 12.2564 16.4223 11.2664 15.2023 11.1564V11.1364C16.2623 10.8664 16.7623 9.8664 16.7623 8.8664C16.7623 7.4664 15.8823 6.4664 14.5123 6.4664C13.3623 6.4664 12.6423 7.1464 12.3323 8.1764C12.2623 8.4364 12.2423 8.6464 12.2423 8.7664C12.2423 8.9564 12.3423 9.0964 12.5323 9.0964C12.7523 9.0964 12.7923 8.9564 12.8423 8.7264C12.9823 7.8564 13.5123 7.0664 14.5123 7.0664C15.5423 7.0664 16.1123 7.9064 16.1123 8.9364C16.1123 10.0164 15.4223 10.8764 14.3423 10.8764H13.8023C13.5923 10.8764 13.5223 11.0264 13.5223 11.1664C13.5223 11.3364 13.6423 11.4564 13.8023 11.4564H14.3523C15.6123 11.4564 16.3623 12.1564 16.3623 13.5264C16.3623 14.6264 15.7823 15.6364 14.5623 15.6364C13.4423 15.6364 12.8123 14.7564 12.6923 13.9364C12.6523 13.7064 12.5823 13.5964 12.3623 13.5964C12.1923 13.5964 12.0823 13.7264 12.0823 13.9064C12.0823 14.0664 12.1123 14.3364 12.1723 14.5064C12.4923 15.5264 13.3323 16.2464 14.5523 16.2464Z" />
        </svg>
    