
        <svg xmlns="http://www.w3.org/2000/svg" viewBox="0 0 100 100">
            <path d="M12.2223 24.4436C18.9723 24.4436 24.4423 18.9736 24.4423 12.2236C24.4423 5.4736 18.9723 0.0036 12.2223 0.0036C5.4723 0.0036 0.0023 5.4736 0.0023 12.2236C0.0023 18.9736 5.4723 24.4436 12.2223 24.4436ZM12.2223 21.7636C6.9523 21.7636 2.6823 17.4936 2.6823 12.2236C2.6823 6.9536 6.9523 2.6836 12.2223 2.6836C17.4923 2.6836 21.7623 6.9536 21.7623 12.2236C21.7623 17.4936 17.4923 21.7636 12.2223 21.7636ZM8.7523 17.0536C10.4523 17.0536 11.7223 16.0236 11.7223 14.3036C11.7223 12.9636 10.9223 12.2136 9.9423 12.1036V12.0536C10.8823 11.8136 11.4523 10.9336 11.4523 9.9136C11.4523 8.3236 10.2623 7.4036 8.7023 7.4036C7.5223 7.4036 6.4723 8.0536 6.1423 9.0936C6.0723 9.3036 6.0423 9.5136 6.0423 9.7136C6.0423 10.1136 6.3023 10.4636 6.8323 10.4636C7.2423 10.4636 7.5423 10.3236 7.6623 9.8936C7.8123 9.3036 8.1323 8.8836 8.7223 8.8836C9.3823 8.8836 9.6923 9.4436 9.6923 10.1236C9.6923 10.8736 9.2923 11.4736 8.4923 11.4736H8.2823C7.8323 11.4736 7.5723 11.7336 7.5723 12.1436C7.5723 12.5636 7.8323 12.8036 8.2823 12.8036H8.5123C9.4123 12.8036 9.8823 13.3036 9.8823 14.2236C9.8823 14.9336 9.5323 15.5736 8.7523 15.5736C8.0523 15.5736 7.7123 15.0936 7.5723 14.6136C7.4423 14.2036 7.1623 13.9836 6.7523 13.9836C6.2423 13.9836 5.9023 14.2836 5.9023 14.8036C5.9023 15.0136 5.9423 15.2236 6.0023 15.4136C6.3323 16.4736 7.5023 17.0536 8.7523 17.0536ZM15.6923 17.0536C17.3923 17.0536 18.6523 16.0236 18.6523 14.3036C18.6523 12.9636 17.8623 12.2136 16.8723 12.1036V12.0536C17.8123 11.8136 18.3723 10.9336 18.3723 9.9136C18.3723 8.3236 17.2023 7.4036 15.6423 7.4036C14.4623 7.4036 13.3923 8.0536 13.0623 9.0936C13.0123 9.3036 12.9823 9.5136 12.9823 9.7136C12.9823 10.1136 13.2323 10.4636 13.7723 10.4636C14.1823 10.4636 14.4723 10.3236 14.6023 9.8936C14.7523 9.3036 15.0723 8.8836 15.6423 8.8836C16.3223 8.8836 16.6123 9.4436 16.6123 10.1236C16.6123 10.8736 16.2323 11.4736 15.4323 11.4736H15.2123C14.7623 11.4736 14.5123 11.7336 14.5123 12.1436C14.5123 12.5636 14.7623 12.8036 15.2123 12.8036H15.4423C16.3523 12.8036 16.8123 13.3036 16.8123 14.2236C16.8123 14.9336 16.4623 15.5736 15.6923 15.5736C14.9723 15.5736 14.6523 15.0936 14.5123 14.6136C14.3823 14.2036 14.1023 13.9836 13.6923 13.9836C13.1723 13.9836 12.8423 14.2836 12.8423 14.8036C12.8423 15.0136 12.8823 15.2236 12.9423 15.4136C13.2623 16.4736 14.4423 17.0536 15.6923 17.0536Z" />
        </svg>
    