
        <svg xmlns="http://www.w3.org/2000/svg" viewBox="0 0 100 100">
            <path d="M3.6817 21.5722H17.8917C20.3517 21.5722 21.5717 20.3722 21.5717 17.9522V3.6322C21.5717 1.2222 20.3517 0.0022 17.8917 0.0022H3.6817C1.2317 0.0022 0.0017 1.2222 0.0017 3.6322V17.9522C0.0017 20.3722 1.2317 21.5722 3.6817 21.5722ZM3.7017 19.6922C2.5317 19.6922 1.8917 19.0622 1.8917 17.8522V3.7422C1.8917 2.5222 2.5317 1.8822 3.7017 1.8822H17.8717C19.0317 1.8822 19.6917 2.5222 19.6917 3.7422V17.8522C19.6917 19.0622 19.0317 19.6922 17.8717 19.6922ZM7.2617 15.7222C8.9417 15.7222 10.2417 14.6722 10.2417 12.9122C10.2417 11.4622 9.3617 10.7422 8.3817 10.6422V10.6022C9.4417 10.3222 9.9617 9.3722 9.9617 8.3922C9.9617 6.7722 8.7417 5.8522 7.2217 5.8522C6.0117 5.8522 4.9617 6.5322 4.6317 7.5722C4.5617 7.7922 4.5317 8.0022 4.5317 8.2022C4.5317 8.5922 4.7917 8.8922 5.2517 8.8922C5.6617 8.8922 5.8817 8.7422 6.0017 8.3322C6.1917 7.6422 6.5617 7.2022 7.2217 7.2022C7.9917 7.2022 8.3717 7.8022 8.3717 8.5822C8.3717 9.4322 7.8917 10.0522 7.0117 10.0522H6.7217C6.3317 10.0522 6.0817 10.3022 6.0817 10.6922C6.0817 11.0722 6.3417 11.2922 6.7217 11.2922H7.0217C8.0117 11.2922 8.5617 11.8522 8.5617 12.8622C8.5617 13.6722 8.1317 14.3622 7.2617 14.3622C6.4117 14.3622 6.0317 13.7922 5.8917 13.2522C5.7817 12.8822 5.5317 12.6822 5.1417 12.6822C4.6917 12.6822 4.3817 12.9622 4.3817 13.4222C4.3817 13.6322 4.4217 13.8422 4.4717 14.0322C4.8117 15.1122 6.0017 15.7222 7.2617 15.7222ZM14.3517 15.7222C16.0417 15.7222 17.3317 14.6722 17.3317 12.9122C17.3317 11.4622 16.4617 10.7422 15.4717 10.6422V10.6022C16.5317 10.3222 17.0517 9.3722 17.0517 8.3922C17.0517 6.7722 15.8417 5.8522 14.3217 5.8522C13.1017 5.8522 12.0617 6.5322 11.7217 7.5722C11.6617 7.7922 11.6417 8.0022 11.6417 8.2022C11.6417 8.5922 11.8817 8.8922 12.3517 8.8922C12.7517 8.8922 12.9817 8.7422 13.1017 8.3322C13.2917 7.6422 13.6517 7.2022 14.3217 7.2022C15.0917 7.2022 15.4617 7.8022 15.4617 8.5822C15.4617 9.4322 14.9717 10.0522 14.1017 10.0522H13.8317C13.4317 10.0522 13.1717 10.3022 13.1717 10.6922C13.1717 11.0722 13.4317 11.2922 13.8317 11.2922H14.1217C15.1217 11.2922 15.6717 11.8522 15.6717 12.8622C15.6717 13.6722 15.2317 14.3622 14.3717 14.3622C13.5117 14.3622 13.1217 13.7922 12.9817 13.2522C12.8817 12.8822 12.6217 12.6822 12.2417 12.6822C11.7917 12.6822 11.4717 12.9622 11.4717 13.4222C11.4717 13.6322 11.5117 13.8422 11.5617 14.0322C11.9017 15.1122 13.1017 15.7222 14.3517 15.7222Z" />
        </svg>
    