
        <svg xmlns="http://www.w3.org/2000/svg" viewBox="0 0 100 100">
            <path d="M3.8417 21.8745H18.0317C20.5617 21.8745 21.8817 20.5745 21.8817 18.0745V3.8045C21.8817 1.3145 20.5617 0.0045 18.0317 0.0045H3.8417C1.3117 0.0045 0.0017 1.3045 0.0017 3.8045V18.0745C0.0017 20.5745 1.3117 21.8745 3.8417 21.8745ZM7.3317 16.0045C6.0317 16.0045 4.8017 15.3945 4.4517 14.2745C4.3917 14.0745 4.3617 13.8645 4.3617 13.6445C4.3617 13.1245 4.7017 12.8245 5.2017 12.8245C5.6217 12.8245 5.8917 13.0345 6.0317 13.4645C6.1717 13.9845 6.5417 14.5045 7.3317 14.5045C8.1817 14.5045 8.5817 13.8245 8.5817 13.0445C8.5817 12.0445 8.0617 11.5145 7.0817 11.5145H6.8217C6.3717 11.5145 6.1017 11.2645 6.1017 10.8545C6.1017 10.4345 6.3717 10.1645 6.8217 10.1645H7.0617C7.9317 10.1645 8.3817 9.5245 8.3817 8.7045C8.3817 7.9545 8.0417 7.3545 7.2917 7.3545C6.6517 7.3545 6.3017 7.8045 6.1317 8.4645C6.0117 8.8945 5.7317 9.0545 5.3017 9.0545C4.7717 9.0545 4.5117 8.6945 4.5117 8.2945C4.5117 8.0845 4.5317 7.8745 4.6017 7.6445C4.9417 6.5645 6.0517 5.8845 7.2917 5.8845C8.8917 5.8845 10.1417 6.8345 10.1417 8.4945C10.1417 9.5345 9.5717 10.4845 8.5417 10.7545V10.8045C9.5617 10.9245 10.4217 11.6845 10.4217 13.1245C10.4217 14.9145 9.0917 16.0045 7.3317 16.0045ZM14.6217 16.0045C13.3117 16.0045 12.0917 15.3945 11.7417 14.2745C11.6817 14.0745 11.6517 13.8645 11.6517 13.6445C11.6517 13.1245 11.9717 12.8245 12.4917 12.8245C12.9017 12.8245 13.1817 13.0345 13.3117 13.4645C13.4617 13.9845 13.8317 14.5045 14.6217 14.5045C15.4717 14.5045 15.8717 13.8245 15.8717 13.0445C15.8717 12.0445 15.3417 11.5145 14.3717 11.5145H14.1017C13.6517 11.5145 13.3817 11.2645 13.3817 10.8545C13.3817 10.4345 13.6517 10.1645 14.1017 10.1645H14.3517C15.2117 10.1645 15.6517 9.5245 15.6517 8.7045C15.6517 7.9545 15.3117 7.3545 14.5617 7.3545C13.9417 7.3545 13.5917 7.8045 13.4217 8.4645C13.2917 8.8945 13.0117 9.0545 12.5817 9.0545C12.0617 9.0545 11.7917 8.6945 11.7917 8.2945C11.7917 8.0845 11.8217 7.8745 11.8817 7.6445C12.2317 6.5645 13.3217 5.8845 14.5617 5.8845C16.1817 5.8845 17.4117 6.8345 17.4117 8.4945C17.4117 9.5345 16.8517 10.4845 15.8317 10.7545V10.8045C16.8417 10.9245 17.7117 11.6845 17.7117 13.1245C17.7117 14.9145 16.3817 16.0045 14.6217 16.0045Z" />
        </svg>
    