
        <svg xmlns="http://www.w3.org/2000/svg" viewBox="0 0 100 100">
            <path d="M3.1617 20.742H17.5917C19.6617 20.742 20.7417 19.642 20.7417 17.592V3.152C20.7417 1.102 19.6617 0.002 17.5917 0.002H3.1617C1.0917 0.002 0.0017 1.082 0.0017 3.152V17.592C0.0017 19.662 1.0917 20.742 3.1617 20.742ZM3.1917 19.872C1.6617 19.872 0.8717 19.082 0.8717 17.552V3.202C0.8717 1.662 1.6617 0.872 3.1917 0.872H17.5517C19.0317 0.872 19.8717 1.662 19.8717 3.202V17.552C19.8717 19.082 19.0317 19.872 17.5517 19.872ZM7.1017 15.272C8.5917 15.272 9.6817 14.202 9.6817 12.502C9.6817 11.222 9.0117 10.292 7.8517 10.182V10.162C8.9217 9.882 9.4117 8.902 9.4117 7.912C9.4117 6.452 8.4617 5.472 7.0517 5.472C5.8817 5.472 5.1017 6.152 4.7817 7.192C4.7117 7.442 4.6917 7.652 4.6917 7.782C4.6917 8.012 4.8317 8.192 5.0817 8.192C5.3417 8.192 5.4217 8.052 5.4817 7.792C5.6517 6.952 6.1317 6.232 7.0517 6.232C8.0317 6.232 8.5517 7.032 8.5517 8.002C8.5517 9.032 7.9117 9.842 6.8817 9.842H6.4017C6.1417 9.842 6.0317 10.012 6.0317 10.202C6.0317 10.422 6.1917 10.572 6.4017 10.572H6.8917C8.0817 10.572 8.7917 11.222 8.7917 12.512C8.7917 13.562 8.2517 14.482 7.1117 14.482C6.0517 14.482 5.4717 13.692 5.3417 12.922C5.3017 12.672 5.1817 12.532 4.9317 12.532C4.6917 12.532 4.5317 12.692 4.5317 12.952C4.5317 13.102 4.5717 13.362 4.6317 13.542C4.9617 14.582 5.8717 15.272 7.1017 15.272ZM13.6517 15.272C15.1417 15.272 16.2417 14.202 16.2417 12.502C16.2417 11.222 15.5717 10.292 14.4117 10.182V10.162C15.4717 9.882 15.9717 8.902 15.9717 7.912C15.9717 6.452 15.0217 5.472 13.6217 5.472C12.4417 5.472 11.6617 6.152 11.3417 7.192C11.2717 7.442 11.2517 7.652 11.2517 7.782C11.2517 8.012 11.3917 8.192 11.6417 8.192C11.9017 8.192 11.9917 8.052 12.0517 7.792C12.2017 6.952 12.6917 6.232 13.6217 6.232C14.5917 6.232 15.1217 7.032 15.1217 8.002C15.1217 9.032 14.4717 9.842 13.4417 9.842H12.9517C12.7017 9.842 12.6017 10.012 12.6017 10.202C12.6017 10.422 12.7417 10.572 12.9517 10.572H13.4517C14.6517 10.572 15.3517 11.222 15.3517 12.512C15.3517 13.562 14.8117 14.482 13.6717 14.482C12.6117 14.482 12.0217 13.692 11.9017 12.922C11.8617 12.672 11.7417 12.532 11.4817 12.532C11.2517 12.532 11.0817 12.692 11.0817 12.952C11.0817 13.102 11.1317 13.362 11.1917 13.542C11.5117 14.582 12.4317 15.272 13.6517 15.272Z" />
        </svg>
    