
        <svg xmlns="http://www.w3.org/2000/svg" viewBox="0 0 100 100">
            <path d="M12.2223 24.4436C18.9723 24.4436 24.4423 18.9736 24.4423 12.2236C24.4423 5.4736 18.9723 0.0036 12.2223 0.0036C5.4723 0.0036 0.0023 5.4736 0.0023 12.2236C0.0023 18.9736 5.4723 24.4436 12.2223 24.4436ZM12.2223 21.7636C6.9523 21.7636 2.6823 17.4936 2.6823 12.2236C2.6823 6.9536 6.9523 2.6836 12.2223 2.6836C17.4923 2.6836 21.7623 6.9536 21.7623 12.2236C21.7623 17.4936 17.4923 21.7636 12.2223 21.7636ZM8.5223 17.0536C10.2223 17.0536 11.4823 16.0236 11.4823 14.3036C11.4823 12.9636 10.6923 12.2136 9.7023 12.1036V12.0536C10.6423 11.8136 11.2023 10.9336 11.2023 9.9136C11.2023 8.3236 10.0323 7.4036 8.4723 7.4036C7.2923 7.4036 6.2223 8.0536 5.9023 9.0936C5.8323 9.3036 5.8123 9.5136 5.8123 9.7136C5.8123 10.1136 6.0623 10.4636 6.6023 10.4636C7.0123 10.4636 7.3123 10.3236 7.4323 9.8936C7.5823 9.3036 7.9023 8.8836 8.4823 8.8836C9.1523 8.8836 9.4523 9.4436 9.4523 10.1236C9.4523 10.8736 9.0623 11.4736 8.2623 11.4736H8.0423C7.5923 11.4736 7.3323 11.7336 7.3323 12.1436C7.3323 12.5636 7.5923 12.8036 8.0423 12.8036H8.2723C9.1723 12.8036 9.6423 13.3036 9.6423 14.2236C9.6423 14.9336 9.2923 15.5736 8.5223 15.5736C7.8023 15.5736 7.4723 15.0936 7.3323 14.6136C7.2023 14.2036 6.9223 13.9836 6.5123 13.9836C6.0023 13.9836 5.6723 14.2836 5.6723 14.8036C5.6723 15.0136 5.7023 15.2236 5.7623 15.4136C6.0923 16.4736 7.2623 17.0536 8.5223 17.0536ZM16.8523 16.9936C17.3323 16.9936 17.7323 16.7136 17.7323 16.0736V15.1036H18.0323C18.5623 15.1036 18.7623 14.7736 18.7623 14.3636C18.7623 13.9236 18.5523 13.6336 18.0423 13.6336H17.7323V8.8336C17.7323 7.9536 17.1523 7.4636 16.3023 7.4636C15.2823 7.4636 14.8823 8.0936 14.5423 8.9536L12.8223 12.8636C12.6323 13.3236 12.5523 13.6836 12.5523 14.0736C12.5523 14.7036 12.9623 15.1036 13.6123 15.1036H15.9523V16.0736C15.9523 16.7336 16.4023 16.9936 16.8523 16.9936ZM15.9923 13.6736H14.1123V13.5936L15.9623 9.0236H15.9923Z" />
        </svg>
    