
        <svg xmlns="http://www.w3.org/2000/svg" viewBox="0 0 100 100">
            <path d="M3.8417 21.8745H18.0317C20.5617 21.8745 21.8817 20.5745 21.8817 18.0745V3.8045C21.8817 1.3145 20.5617 0.0045 18.0317 0.0045H3.8417C1.3117 0.0045 0.0017 1.3045 0.0017 3.8045V18.0745C0.0017 20.5745 1.3117 21.8745 3.8417 21.8745ZM3.9817 19.5845C2.8917 19.5845 2.3017 19.0145 2.3017 17.8845V4.0045C2.3017 2.8745 2.8917 2.2945 3.9817 2.2945H17.8917C18.9717 2.2945 19.5817 2.8745 19.5817 4.0045V17.8845C19.5817 19.0145 18.9717 19.5845 17.8917 19.5845ZM7.2117 15.8245C8.8917 15.8245 10.1717 14.7745 10.1717 13.0445C10.1717 11.6445 9.3517 10.9245 8.3517 10.8045V10.7645C9.3517 10.5045 9.8917 9.5945 9.8917 8.5945C9.8917 6.9845 8.7117 6.0745 7.1617 6.0745C5.9617 6.0745 4.9117 6.7245 4.5817 7.7645C4.5117 7.9845 4.4917 8.1945 4.4917 8.4045C4.4917 8.7845 4.7417 9.1245 5.2517 9.1245C5.6517 9.1245 5.9217 8.9645 6.0517 8.5545C6.2117 7.9245 6.5517 7.4845 7.1617 7.4845C7.8717 7.4845 8.2117 8.0745 8.2117 8.7845C8.2117 9.5845 7.7817 10.1945 6.9517 10.1945H6.7017C6.2717 10.1945 6.0217 10.4545 6.0217 10.8545C6.0217 11.2545 6.2817 11.4845 6.7017 11.4845H6.9617C7.9117 11.4845 8.4117 12.0145 8.4117 12.9745C8.4117 13.7245 8.0317 14.3945 7.2117 14.3945C6.4317 14.3945 6.0817 13.8645 5.9417 13.3545C5.8117 12.9645 5.5517 12.7545 5.1517 12.7545C4.6617 12.7545 4.3517 13.0445 4.3517 13.5345C4.3517 13.7445 4.3717 13.9545 4.4417 14.1445C4.7717 15.2245 5.9517 15.8245 7.2117 15.8245ZM15.6317 15.7645C16.0917 15.7645 16.4717 15.4845 16.4717 14.8745V13.8145H16.8317C17.3217 13.8145 17.5317 13.5045 17.5317 13.1045C17.5317 12.6945 17.3217 12.3845 16.8417 12.3845H16.4717V7.4445C16.4717 6.5945 15.9117 6.1245 15.1017 6.1245C14.1717 6.1245 13.7817 6.6645 13.4417 7.4645L11.5517 11.6445C11.3717 12.1045 11.2817 12.4445 11.2817 12.8245C11.2817 13.4345 11.6817 13.8145 12.3117 13.8145H14.7817V14.8745C14.7817 15.5145 15.2217 15.7645 15.6317 15.7645ZM14.8117 12.4345H12.8017V12.3545L14.7617 7.6445H14.8117Z" />
        </svg>
    