
        <svg xmlns="http://www.w3.org/2000/svg" viewBox="0 0 100 100">
            <path d="M3.8417 21.8745H18.0317C20.5617 21.8745 21.8817 20.5745 21.8817 18.0745V3.8045C21.8817 1.3145 20.5617 0.0045 18.0317 0.0045H3.8417C1.3117 0.0045 0.0017 1.3045 0.0017 3.8045V18.0745C0.0017 20.5745 1.3117 21.8745 3.8417 21.8745ZM7.0917 16.0045C5.7817 16.0045 4.5517 15.3945 4.1917 14.2745C4.1417 14.0745 4.1117 13.8645 4.1117 13.6445C4.1117 13.1245 4.4417 12.8245 4.9417 12.8245C5.3717 12.8245 5.6517 13.0345 5.7617 13.4645C5.9317 13.9845 6.2917 14.5045 7.0917 14.5045C7.9317 14.5045 8.3317 13.8245 8.3317 13.0445C8.3317 12.0445 7.8017 11.5145 6.8317 11.5145H6.5617C6.1217 11.5145 5.8517 11.2645 5.8517 10.8545C5.8517 10.4345 6.1217 10.1645 6.5617 10.1645H6.8117C7.6717 10.1645 8.1217 9.5245 8.1217 8.7045C8.1217 7.9545 7.7717 7.3545 7.0417 7.3545C6.4017 7.3545 6.0517 7.8045 5.8817 8.4645C5.7517 8.8945 5.4617 9.0545 5.0417 9.0545C4.5217 9.0545 4.2517 8.6945 4.2517 8.2945C4.2517 8.0845 4.2817 7.8745 4.3517 7.6445C4.6917 6.5645 5.7917 5.8845 7.0417 5.8845C8.6517 5.8845 9.8817 6.8345 9.8817 8.4945C9.8817 9.5345 9.3117 10.4845 8.2817 10.7545V10.8045C9.3017 10.9245 10.1717 11.6845 10.1717 13.1245C10.1717 14.9145 8.8317 16.0045 7.0917 16.0045ZM15.8417 15.9445C15.4117 15.9445 14.9517 15.6945 14.9517 15.0245V13.9345H12.4017C11.7417 13.9345 11.3317 13.5245 11.3317 12.8945C11.3317 12.5045 11.4017 12.1545 11.6117 11.6745L13.5517 7.3345C13.9117 6.5045 14.3117 5.9445 15.2817 5.9445C16.1517 5.9445 16.7317 6.4245 16.7317 7.3245V12.4445H17.1017C17.6017 12.4445 17.8117 12.7645 17.8117 13.1845C17.8117 13.6045 17.6017 13.9345 17.0817 13.9345H16.7317V15.0245C16.7317 15.6545 16.3217 15.9445 15.8417 15.9445ZM14.9917 12.4845V7.5145H14.9417L12.9017 12.4145V12.4845Z" />
        </svg>
    