
        <svg xmlns="http://www.w3.org/2000/svg" viewBox="0 0 100 100">
            <path d="M11.7523 23.5048C18.2423 23.5048 23.5123 18.2448 23.5123 11.7548C23.5123 5.2648 18.2423 0.0048 11.7523 0.0048C5.2623 0.0048 0.0023 5.2648 0.0023 11.7548C0.0023 18.2448 5.2623 23.5048 11.7523 23.5048ZM11.7523 21.9848C6.0923 21.9848 1.5223 17.4148 1.5223 11.7548C1.5223 6.0948 6.0923 1.5148 11.7523 1.5148C17.4123 1.5148 21.9923 6.0948 21.9923 11.7548C21.9923 17.4148 17.4123 21.9848 11.7523 21.9848ZM15.2223 16.7148C16.9423 16.7148 17.9023 15.1948 17.9023 13.4048C17.9023 11.8248 17.1423 10.3048 15.5823 10.3048C14.5823 10.3048 13.8523 11.0248 13.6023 12.0548H13.5623V11.9048C13.5623 10.4848 13.7623 7.9348 15.2123 7.9348C15.8423 7.9348 16.2523 8.4048 16.4623 9.0048C16.5923 9.2948 16.7623 9.4548 17.0823 9.4548C17.4623 9.4548 17.6323 9.2248 17.6323 8.9048C17.6323 8.7748 17.6123 8.6248 17.5623 8.4748C17.3123 7.4548 16.3723 6.8248 15.2423 6.8248C12.9123 6.8248 12.2823 9.6248 12.2823 11.9048C12.2823 14.1048 12.9523 16.7148 15.2223 16.7148ZM8.1723 16.6848C9.7623 16.6848 10.9723 15.6248 10.9723 13.8848C10.9723 12.5148 10.1923 11.7048 9.1323 11.6048V11.5548C10.1823 11.2848 10.7023 10.3248 10.7023 9.3248C10.7023 7.7848 9.6023 6.8348 8.1223 6.8348C6.9223 6.8348 6.0023 7.5248 5.6723 8.5548C5.6023 8.7848 5.5823 9.0048 5.5823 9.1748C5.5823 9.4948 5.7823 9.7348 6.1523 9.7348C6.4923 9.7348 6.6723 9.5848 6.7523 9.2448C6.9223 8.4948 7.3523 7.9348 8.1223 7.9348C8.9923 7.9348 9.4223 8.6248 9.4223 9.4848C9.4223 10.4148 8.8723 11.1048 7.9223 11.1048H7.5623C7.2323 11.1048 7.0323 11.3248 7.0323 11.6248C7.0323 11.9448 7.2423 12.1448 7.5623 12.1448H7.9423C9.0223 12.1448 9.6323 12.7248 9.6323 13.8648C9.6323 14.7748 9.1623 15.5648 8.1723 15.5648C7.2323 15.5648 6.7623 14.8948 6.6323 14.2648C6.5423 13.9348 6.3523 13.7648 6.0223 13.7648C5.6623 13.7648 5.4223 13.9948 5.4223 14.3648C5.4223 14.5548 5.4623 14.7748 5.5223 14.9648C5.8523 16.0348 6.9223 16.6848 8.1723 16.6848ZM15.2123 15.5948C14.2123 15.5948 13.7723 14.3748 13.7723 13.3948C13.7723 12.4348 14.2523 11.3548 15.2023 11.3548C16.1823 11.3548 16.6123 12.4648 16.5923 13.4548C16.5923 14.4348 16.1523 15.5948 15.2123 15.5948Z" />
        </svg>
    