
        <svg xmlns="http://www.w3.org/2000/svg" viewBox="0 0 100 100">
            <path d="M4.5917 23.2359H18.6417C21.5417 23.2359 23.2417 21.5459 23.2417 18.6459V4.5959C23.2417 1.6959 21.5417 -0.0041 18.6417 -0.0041H4.5917C1.7017 -0.0041 0.0017 1.6959 0.0017 4.5959V18.6459C0.0017 21.5459 1.7017 23.2359 4.5917 23.2359ZM5.2217 19.0759C4.5117 19.0759 4.1617 18.7859 4.1617 18.0159V5.2359C4.1617 4.4659 4.5117 4.1759 5.2217 4.1759H18.0117C18.7217 4.1759 19.0817 4.4659 19.0817 5.2359V18.0159C19.0817 18.7859 18.7217 19.0759 18.0117 19.0759ZM15.1217 16.2159C16.8617 16.2159 17.7817 14.7759 17.7817 13.1159C17.7817 11.7159 17.2417 10.3459 15.8717 10.3459C15.0017 10.3459 14.5117 10.9959 14.3117 11.7459H14.3017V11.0959C14.3017 9.5659 14.5617 8.7759 15.0717 8.7759C15.3517 8.7759 15.4717 9.0159 15.6217 9.2659C15.8517 9.6959 16.1217 9.8659 16.5717 9.8659C17.2417 9.8659 17.4717 9.4059 17.4717 8.9459C17.4717 8.8159 17.4617 8.6159 17.4117 8.4859C17.1217 7.4759 16.1917 7.0459 15.1517 7.0459C12.8417 7.0459 12.1617 9.3559 12.1617 11.6559C12.1617 13.6259 12.7817 16.2159 15.1217 16.2159ZM8.3117 16.2059C10.0317 16.2059 11.2217 15.2059 11.2217 13.5959C11.2217 12.4659 10.6017 11.6759 9.6317 11.5459V11.4959C10.3117 11.3159 10.9717 10.5559 10.9717 9.4959C10.9717 7.9559 9.8817 7.0559 8.2417 7.0559C7.1217 7.0559 6.0217 7.6259 5.7217 8.6859C5.6617 8.8559 5.6417 9.0659 5.6417 9.2859C5.6417 9.6959 5.8817 10.1559 6.5517 10.1559C6.9817 10.1559 7.4417 10.0159 7.5717 9.5159C7.6517 9.1759 7.8517 8.7759 8.2617 8.7759C8.7217 8.7759 8.8717 9.2659 8.8717 9.7259C8.8717 10.2659 8.6717 10.8259 8.0317 10.8259H7.9617C7.3817 10.8259 7.1117 11.1359 7.1117 11.5859C7.1117 12.0659 7.3717 12.3659 7.9617 12.3659H8.0417C8.7517 12.3659 9.0517 12.7459 9.0517 13.4559C9.0517 13.9459 8.8617 14.4859 8.3017 14.4859C7.8917 14.4859 7.6717 14.1959 7.5317 13.8359C7.3617 13.3459 7.0217 13.0859 6.5117 13.0859C5.9017 13.0859 5.5217 13.4659 5.5217 14.0659C5.5217 14.2959 5.5517 14.4959 5.6117 14.6859C5.9317 15.6959 7.0517 16.2059 8.3117 16.2059ZM15.0817 14.4859C14.6917 14.4859 14.4917 13.9959 14.4917 13.1759C14.4917 12.4059 14.6917 11.9459 15.0817 11.9459C15.4617 11.9459 15.6717 12.4359 15.6517 13.2159C15.6517 14.0159 15.4617 14.4859 15.0817 14.4859Z" />
        </svg>
    