
        <svg xmlns="http://www.w3.org/2000/svg" viewBox="0 0 100 100">
            <path d="M11.3523 22.7064C17.6323 22.7064 22.7123 17.6264 22.7123 11.3564C22.7123 5.0764 17.6323 -0.0036 11.3523 -0.0036C5.0823 -0.0036 0.0023 5.0764 0.0023 11.3564C0.0023 17.6264 5.0823 22.7064 11.3523 22.7064ZM11.3523 22.1364C5.3923 22.1364 0.5723 17.3164 0.5723 11.3564C0.5723 5.3864 5.3923 0.5764 11.3523 0.5764C17.3223 0.5764 22.1323 5.3864 22.1323 11.3564C22.1323 17.3164 17.3223 22.1364 11.3523 22.1364ZM8.5123 16.2464C9.9423 16.2464 10.9823 15.1664 10.9823 13.4864C10.9823 12.2564 10.3723 11.2664 9.1523 11.1564V11.1364C10.2223 10.8664 10.7123 9.8664 10.7123 8.8664C10.7123 7.4664 9.8323 6.4664 8.4623 6.4664C7.3123 6.4664 6.6023 7.1464 6.2823 8.1764C6.2123 8.4364 6.2023 8.6464 6.2023 8.7664C6.2023 8.9564 6.2923 9.0964 6.4923 9.0964C6.7023 9.0964 6.7523 8.9564 6.7923 8.7264C6.9423 7.8564 7.4623 7.0664 8.4623 7.0664C9.5023 7.0664 10.0623 7.9064 10.0623 8.9364C10.0623 10.0164 9.3723 10.8764 8.2923 10.8764H7.7623C7.5423 10.8764 7.4723 11.0264 7.4723 11.1664C7.4723 11.3364 7.5923 11.4564 7.7623 11.4564H8.3123C9.5623 11.4564 10.3123 12.1564 10.3123 13.5264C10.3123 14.6264 9.7423 15.6364 8.5223 15.6364C7.3923 15.6364 6.7623 14.7564 6.6423 13.9364C6.6123 13.7064 6.5423 13.5964 6.3123 13.5964C6.1523 13.5964 6.0323 13.7264 6.0323 13.9064C6.0323 14.0664 6.0723 14.3364 6.1423 14.5064C6.4423 15.5264 7.3023 16.2464 8.5123 16.2464ZM13.2323 16.2164C13.4223 16.2164 13.5123 16.1164 13.5823 15.9264L16.7023 7.4864C16.7423 7.3564 16.7923 7.1964 16.7923 7.0564C16.7923 6.7864 16.6123 6.6064 16.3123 6.6064H12.4123C12.2323 6.6064 12.1023 6.7364 12.1023 6.9164C12.1023 7.0864 12.2323 7.2264 12.4123 7.2264H16.1023V7.2864L12.9823 15.5464C12.9423 15.6664 12.9123 15.7764 12.9123 15.8864C12.9123 16.0864 13.0423 16.2164 13.2323 16.2164Z" />
        </svg>
    