
        <svg xmlns="http://www.w3.org/2000/svg" viewBox="0 0 100 100">
            <path d="M12.7923 25.5978C19.8723 25.5978 25.6023 19.8678 25.6023 12.7978C25.6023 5.7278 19.8723 -0.0022 12.7923 -0.0022C5.7323 -0.0022 0.0023 5.7278 0.0023 12.7978C0.0023 19.8678 5.7323 25.5978 12.7923 25.5978ZM12.7923 21.4178C8.0323 21.4178 4.1723 17.5678 4.1723 12.7978C4.1723 8.0278 8.0323 4.1678 12.7923 4.1678C17.5623 4.1678 21.4323 8.0278 21.4323 12.7978C21.4323 17.5678 17.5623 21.4178 12.7923 21.4178ZM9.8323 17.3778C11.5523 17.3778 12.7523 16.3778 12.7523 14.7678C12.7523 13.6378 12.1123 12.8478 11.1523 12.7178V12.6678C11.8323 12.4878 12.4923 11.7278 12.4923 10.6678C12.4923 9.1278 11.3923 8.2278 9.7623 8.2278C8.6323 8.2278 7.5423 8.7978 7.2423 9.8578C7.1823 10.0278 7.1523 10.2378 7.1523 10.4578C7.1523 10.8678 7.3923 11.3278 8.0723 11.3278C8.5123 11.3278 8.9523 11.1878 9.0923 10.6878C9.1723 10.3478 9.3623 9.9478 9.7823 9.9478C10.2423 9.9478 10.3923 10.4378 10.3923 10.8978C10.3923 11.4378 10.1923 11.9978 9.5523 11.9978H9.4723C8.9023 11.9978 8.6223 12.3078 8.6223 12.7578C8.6223 13.2378 8.8823 13.5378 9.4723 13.5378H9.5623C10.2623 13.5378 10.5723 13.9178 10.5723 14.6278C10.5723 15.1178 10.3723 15.6578 9.8223 15.6578C9.4123 15.6578 9.1923 15.3678 9.0623 15.0078C8.8823 14.5178 8.5423 14.2578 8.0423 14.2578C7.4323 14.2578 7.0423 14.6378 7.0423 15.2378C7.0423 15.4678 7.0823 15.6678 7.1323 15.8578C7.4523 16.8678 8.5623 17.3778 9.8323 17.3778ZM15.3723 17.3078C15.9623 17.3078 16.2223 17.0778 16.3823 16.6078L18.4123 10.7078C18.5523 10.2978 18.6323 9.9578 18.6323 9.5178C18.6323 8.8578 18.1423 8.4478 17.5123 8.4478H14.3223C13.7723 8.4478 13.4623 8.8478 13.4623 9.3178C13.4623 9.8178 13.7923 10.1878 14.3223 10.1878H16.3623V10.3078L14.5123 15.5778C14.4123 15.8278 14.3523 16.0678 14.3523 16.3678C14.3523 16.8078 14.6223 17.3078 15.3723 17.3078Z" />
        </svg>
    