
        <svg xmlns="http://www.w3.org/2000/svg" viewBox="0 0 100 100">
            <path d="M3.4617 21.2264H17.7617C20.0517 21.2264 21.2217 20.0464 21.2217 17.7964V3.4264C21.2217 1.1764 20.0517 -0.0036 17.7617 -0.0036H3.4617C1.1717 -0.0036 0.0017 1.1564 0.0017 3.4264V17.7964C0.0017 20.0664 1.1717 21.2264 3.4617 21.2264ZM3.4817 19.7664C2.1717 19.7664 1.4517 19.0764 1.4517 17.7164V3.5064C1.4517 2.1464 2.1717 1.4564 3.4817 1.4564H17.7317C19.0317 1.4564 19.7717 2.1464 19.7717 3.5064V17.7164C19.7717 19.0764 19.0317 19.7664 17.7317 19.7664ZM7.5717 15.5364C9.1617 15.5364 10.3717 14.4764 10.3717 12.7364C10.3717 11.3664 9.5817 10.5564 8.5317 10.4564V10.4064C9.5817 10.1364 10.1017 9.1764 10.1017 8.1764C10.1017 6.6364 9.0017 5.6864 7.5217 5.6864C6.3317 5.6864 5.3917 6.3764 5.0617 7.4064C5.0017 7.6364 4.9817 7.8564 4.9817 8.0264C4.9817 8.3464 5.1817 8.5864 5.5517 8.5864C5.8917 8.5864 6.0617 8.4364 6.1517 8.0964C6.3317 7.3464 6.7517 6.7864 7.5217 6.7864C8.3817 6.7864 8.8217 7.4764 8.8217 8.3364C8.8217 9.2664 8.2717 9.9564 7.3217 9.9564H6.9617C6.6217 9.9564 6.4317 10.1764 6.4317 10.4764C6.4317 10.7964 6.6417 10.9964 6.9617 10.9964H7.3317C8.4217 10.9964 9.0317 11.5764 9.0317 12.7164C9.0317 13.6264 8.5617 14.4164 7.5717 14.4164C6.6317 14.4164 6.1617 13.7464 6.0217 13.1164C5.9417 12.7864 5.7517 12.6164 5.4217 12.6164C5.0617 12.6164 4.8117 12.8464 4.8117 13.2164C4.8117 13.4064 4.8617 13.6264 4.9217 13.8164C5.2517 14.8864 6.3317 15.5364 7.5717 15.5364ZM12.9617 15.4964C13.3117 15.4964 13.4617 15.3364 13.5917 14.9964L16.4217 7.4164C16.5217 7.1364 16.5917 6.8864 16.5917 6.6064C16.5917 6.1664 16.2617 5.8664 15.8217 5.8664H11.9917C11.6617 5.8664 11.4417 6.1064 11.4417 6.4364C11.4417 6.7664 11.6617 6.9964 11.9917 6.9964H15.2217V7.0864L12.4617 14.3364C12.3717 14.5464 12.3417 14.6764 12.3417 14.8964C12.3417 15.1864 12.5317 15.4964 12.9617 15.4964Z" />
        </svg>
    