
        <svg xmlns="http://www.w3.org/2000/svg" viewBox="0 0 100 100">
            <path d="M4.5917 23.2359H18.6417C21.5417 23.2359 23.2417 21.5459 23.2417 18.6459V4.5959C23.2417 1.6959 21.5417 -0.0041 18.6417 -0.0041H4.5917C1.7017 -0.0041 0.0017 1.6959 0.0017 4.5959V18.6459C0.0017 21.5459 1.7017 23.2359 4.5917 23.2359ZM5.2217 19.0759C4.5117 19.0759 4.1617 18.7859 4.1617 18.0159V5.2359C4.1617 4.4659 4.5117 4.1759 5.2217 4.1759H18.0117C18.7217 4.1759 19.0817 4.4659 19.0817 5.2359V18.0159C19.0817 18.7859 18.7217 19.0759 18.0117 19.0759ZM14.9017 16.2159C16.5217 16.2159 17.8617 15.3359 17.8617 13.6359C17.8617 12.5659 17.2617 11.6359 16.2417 11.4259V11.3759C17.1017 11.1259 17.6517 10.3559 17.6517 9.4359C17.6517 7.9759 16.4917 7.0559 14.9017 7.0559C13.4617 7.0559 12.1917 7.8559 12.1917 9.4359C12.1917 10.4859 12.8517 11.1559 13.5917 11.3759V11.4259C12.6517 11.6159 11.9617 12.5359 11.9617 13.6259C11.9617 15.2359 13.2117 16.2159 14.9017 16.2159ZM8.1817 16.2059C9.9017 16.2059 11.1017 15.2059 11.1017 13.5959C11.1017 12.4659 10.4617 11.6759 9.5017 11.5459V11.4959C10.1717 11.3159 10.8417 10.5559 10.8417 9.4959C10.8417 7.9559 9.7417 7.0559 8.1017 7.0559C6.9817 7.0559 5.8917 7.6259 5.5917 8.6859C5.5317 8.8559 5.4917 9.0659 5.4917 9.2859C5.4917 9.6959 5.7417 10.1559 6.4217 10.1559C6.8517 10.1559 7.3017 10.0159 7.4317 9.5159C7.5217 9.1759 7.7117 8.7759 8.1317 8.7759C8.5917 8.7759 8.7317 9.2659 8.7317 9.7259C8.7317 10.2659 8.5317 10.8259 7.8917 10.8259H7.8117C7.2417 10.8259 6.9717 11.1359 6.9717 11.5859C6.9717 12.0659 7.2317 12.3659 7.8117 12.3659H7.9117C8.6117 12.3659 8.9217 12.7459 8.9217 13.4559C8.9217 13.9459 8.7217 14.4859 8.1517 14.4859C7.7617 14.4859 7.5317 14.1959 7.3917 13.8359C7.2217 13.3459 6.8817 13.0859 6.3917 13.0859C5.7817 13.0859 5.3917 13.4659 5.3917 14.0659C5.3917 14.2959 5.4117 14.4959 5.4717 14.6859C5.7917 15.6959 6.9117 16.2059 8.1817 16.2059ZM14.9017 10.7459C14.5817 10.7459 14.3817 10.3159 14.3817 9.6659C14.3817 9.0259 14.5817 8.6059 14.9017 8.6059C15.2717 8.6059 15.4717 9.0259 15.4717 9.6659C15.4717 10.3259 15.2717 10.7459 14.9017 10.7459ZM14.9017 14.6559C14.5317 14.6559 14.3117 14.1959 14.3117 13.4659C14.3117 12.7659 14.5317 12.2959 14.9017 12.2959C15.2917 12.2959 15.5317 12.7659 15.5317 13.4659C15.5317 14.1959 15.2917 14.6559 14.9017 14.6559Z" />
        </svg>
    