
        <svg xmlns="http://www.w3.org/2000/svg" viewBox="0 0 100 100">
            <path d="M3.8417 21.8745H18.0317C20.5617 21.8745 21.8817 20.5745 21.8817 18.0745V3.8045C21.8817 1.3145 20.5617 0.0045 18.0317 0.0045H3.8417C1.3117 0.0045 0.0017 1.3045 0.0017 3.8045V18.0745C0.0017 20.5745 1.3117 21.8745 3.8417 21.8745ZM3.9817 19.5845C2.8917 19.5845 2.3017 19.0145 2.3017 17.8845V4.0045C2.3017 2.8745 2.8917 2.2945 3.9817 2.2945H17.8917C18.9717 2.2945 19.5817 2.8745 19.5817 4.0045V17.8845C19.5817 19.0145 18.9717 19.5845 17.8917 19.5845ZM14.4617 15.8245C16.2817 15.8245 17.4817 14.7045 17.4817 13.0745C17.4817 11.8345 16.7117 10.9245 15.7617 10.6945V10.6645C16.5617 10.4145 17.2217 9.6545 17.2217 8.5745C17.2217 7.0745 16.1017 6.0545 14.4617 6.0545C13.0117 6.0545 11.7117 6.9345 11.7117 8.5745C11.7117 9.7345 12.4317 10.4345 13.1817 10.6645V10.6945C12.2017 10.9245 11.4417 11.8445 11.4417 13.0745C11.4417 14.7845 12.7417 15.8245 14.4617 15.8245ZM7.3117 15.8245C9.0017 15.8245 10.2817 14.7745 10.2817 13.0445C10.2817 11.6445 9.4417 10.9245 8.4617 10.8045V10.7645C9.4617 10.5045 9.9917 9.5945 9.9917 8.5945C9.9917 6.9845 8.8017 6.0745 7.2517 6.0745C6.0717 6.0745 5.0117 6.7245 4.6717 7.7645C4.6217 7.9845 4.5917 8.1945 4.5917 8.4045C4.5917 8.7845 4.8417 9.1245 5.3417 9.1245C5.7517 9.1245 6.0217 8.9645 6.1417 8.5545C6.3017 7.9245 6.6417 7.4845 7.2617 7.4845C7.9817 7.4845 8.3117 8.0745 8.3117 8.7845C8.3117 9.5845 7.8917 10.1945 7.0417 10.1945H6.8117C6.3717 10.1945 6.1217 10.4545 6.1217 10.8545C6.1217 11.2545 6.3717 11.4845 6.8117 11.4845H7.0617C8.0017 11.4845 8.5117 12.0145 8.5117 12.9745C8.5117 13.7245 8.1217 14.3945 7.3117 14.3945C6.5417 14.3945 6.1917 13.8645 6.0517 13.3545C5.9217 12.9645 5.6517 12.7545 5.2517 12.7545C4.7717 12.7545 4.4417 13.0445 4.4417 13.5345C4.4417 13.7445 4.4717 13.9545 4.5317 14.1445C4.8717 15.2245 6.0517 15.8245 7.3117 15.8245ZM14.4617 10.1145C13.7917 10.1145 13.4417 9.4445 13.4417 8.7545C13.4417 8.0245 13.8017 7.3745 14.4617 7.3745C15.1517 7.3745 15.4917 8.0245 15.4917 8.7545C15.4917 9.5045 15.1317 10.1145 14.4617 10.1145ZM14.4617 14.4945C13.7017 14.4945 13.3117 13.7945 13.3117 12.9445C13.3117 12.1145 13.7017 11.4245 14.4617 11.4245C15.2117 11.4245 15.6217 12.0945 15.6217 12.9445C15.6217 13.7845 15.2317 14.4945 14.4617 14.4945Z" />
        </svg>
    