
        <svg xmlns="http://www.w3.org/2000/svg" viewBox="0 0 100 100">
            <path d="M3.0117 20.5048H17.4917C19.4517 20.5048 20.5117 19.4248 20.5117 17.4948V3.0148C20.5117 1.0748 19.4517 0.0048 17.4917 0.0048H3.0117C1.0417 0.0048 0.0017 1.0448 0.0017 3.0148V17.4948C0.0017 19.4648 1.0417 20.5048 3.0117 20.5048ZM3.0317 19.9348C1.4217 19.9348 0.5717 19.0948 0.5717 17.4648V3.0348C0.5717 1.4148 1.4217 0.5748 3.0317 0.5748H17.4617C19.0317 0.5748 19.9317 1.4148 19.9317 3.0348V17.4648C19.9317 19.0948 19.0317 19.9348 17.4617 19.9348ZM6.8117 15.1448C8.2417 15.1448 9.2817 14.0648 9.2817 12.3848C9.2817 11.1548 8.6717 10.1648 7.4517 10.0548V10.0348C8.5217 9.7648 9.0117 8.7648 9.0117 7.7648C9.0117 6.3648 8.1317 5.3648 6.7617 5.3648C5.6117 5.3648 4.9017 6.0448 4.5817 7.0748C4.5117 7.3348 4.5017 7.5448 4.5017 7.6648C4.5017 7.8548 4.5917 7.9948 4.7917 7.9948C5.0017 7.9948 5.0517 7.8548 5.1017 7.6248C5.2417 6.7548 5.7617 5.9648 6.7617 5.9648C7.8017 5.9648 8.3717 6.8048 8.3717 7.8348C8.3717 8.9148 7.6717 9.7748 6.6017 9.7748H6.0617C5.8517 9.7748 5.7817 9.9248 5.7817 10.0648C5.7817 10.2348 5.8917 10.3548 6.0617 10.3548H6.6117C7.8617 10.3548 8.6117 11.0548 8.6117 12.4248C8.6117 13.5248 8.0417 14.5348 6.8217 14.5348C5.6917 14.5348 5.0617 13.6548 4.9417 12.8348C4.9117 12.6048 4.8417 12.4948 4.6217 12.4948C4.4517 12.4948 4.3317 12.6248 4.3317 12.8048C4.3317 12.9648 4.3817 13.2348 4.4417 13.4048C4.7417 14.4248 5.6017 15.1448 6.8117 15.1448ZM13.2917 15.1448C14.8317 15.1448 15.8717 13.9848 15.8717 12.4248C15.8717 11.2848 15.2017 10.2048 14.2217 9.9848V9.9748C15.1017 9.6548 15.6117 8.7748 15.6117 7.8348C15.6117 6.5048 14.7417 5.3748 13.2917 5.3748C11.8917 5.3748 10.9917 6.4548 10.9917 7.8348C10.9917 8.8148 11.4517 9.6548 12.3717 9.9748V9.9848C11.3917 10.2048 10.7217 11.2748 10.7217 12.4248C10.7217 13.9148 11.6817 15.1448 13.2917 15.1448ZM13.3017 9.7048C12.4417 9.7048 11.6517 9.0448 11.6517 7.8848C11.6517 6.7848 12.3317 5.9748 13.3017 5.9748C14.3817 5.9748 14.9517 6.9248 14.9517 7.8848C14.9517 8.9548 14.2217 9.7048 13.3017 9.7048ZM13.3017 14.5448C12.1317 14.5448 11.4017 13.5748 11.4017 12.3948C11.4017 11.2048 12.1417 10.3248 13.3017 10.3248C14.3317 10.3248 15.1717 11.0848 15.1717 12.3948C15.1717 13.5448 14.4717 14.5448 13.3017 14.5448Z" />
        </svg>
    