
        <svg xmlns="http://www.w3.org/2000/svg" viewBox="0 0 100 100">
            <path d="M3.8417 21.8745H18.0317C20.5617 21.8745 21.8817 20.5745 21.8817 18.0745V3.8045C21.8817 1.3145 20.5617 0.0045 18.0317 0.0045H3.8417C1.3117 0.0045 0.0017 1.3045 0.0017 3.8045V18.0745C0.0017 20.5745 1.3117 21.8745 3.8417 21.8745ZM13.8117 12.4245C12.2417 12.4245 11.4917 10.8845 11.4917 9.2845C11.4917 7.4045 12.5417 5.8545 14.3817 5.8545C16.8517 5.8545 17.5817 8.5945 17.5817 10.8545C17.5817 13.3245 16.8517 16.0145 14.3717 16.0145C13.1717 16.0145 12.1317 15.4245 11.8617 14.3545C11.8117 14.2145 11.7917 14.0545 11.7917 13.9145C11.7917 13.5045 12.0117 13.1245 12.5617 13.1245C12.9517 13.1245 13.1917 13.2845 13.3917 13.6945C13.5917 14.1945 13.9217 14.5145 14.4017 14.5145C15.6217 14.5145 15.8017 12.3945 15.8017 11.0045V10.7645H15.7617C15.4917 11.7545 14.7917 12.4245 13.8117 12.4245ZM7.2117 16.0045C5.8917 16.0045 4.6617 15.3945 4.3117 14.2745C4.2517 14.0745 4.2217 13.8645 4.2217 13.6445C4.2217 13.1245 4.5617 12.8245 5.0717 12.8245C5.4817 12.8245 5.7617 13.0345 5.8917 13.4645C6.0317 13.9845 6.4117 14.5045 7.2117 14.5045C8.0517 14.5045 8.4517 13.8245 8.4517 13.0445C8.4517 12.0445 7.9217 11.5145 6.9417 11.5145H6.6817C6.2417 11.5145 5.9617 11.2645 5.9617 10.8545C5.9617 10.4345 6.2317 10.1645 6.6817 10.1645H6.9217C7.8017 10.1645 8.2417 9.5245 8.2417 8.7045C8.2417 7.9545 7.9017 7.3545 7.1617 7.3545C6.5117 7.3545 6.1717 7.8045 6.0017 8.4645C5.8717 8.8945 5.5917 9.0545 5.1717 9.0545C4.6417 9.0545 4.3817 8.6945 4.3817 8.2945C4.3817 8.0845 4.4017 7.8745 4.4617 7.6445C4.8117 6.5645 5.9217 5.8845 7.1517 5.8845C8.7617 5.8845 10.0117 6.8345 10.0117 8.4945C10.0117 9.5345 9.4317 10.4845 8.4017 10.7545V10.8045C9.4317 10.9245 10.2917 11.6845 10.2917 13.1245C10.2917 14.9145 8.9617 16.0045 7.2117 16.0045ZM14.4117 11.0145C15.2017 11.0145 15.5717 10.1245 15.5717 9.2145C15.5717 8.3045 15.2317 7.3545 14.4117 7.3545C13.6617 7.3545 13.2917 8.2945 13.2917 9.2145C13.2917 10.0745 13.6017 11.0145 14.4117 11.0145Z" />
        </svg>
    