
        <svg xmlns="http://www.w3.org/2000/svg" viewBox="0 0 100 100">
            <path d="M3.6817 21.5722H17.8917C20.3517 21.5722 21.5717 20.3722 21.5717 17.9522V3.6322C21.5717 1.2222 20.3517 0.0022 17.8917 0.0022H3.6817C1.2317 0.0022 0.0017 1.2222 0.0017 3.6322V17.9522C0.0017 20.3722 1.2317 21.5722 3.6817 21.5722ZM6.1917 13.0222C6.1917 12.7622 6.2417 12.5022 6.3917 12.2622C7.6917 9.9822 8.8617 7.9122 10.1517 5.6522C10.3717 5.2522 10.6417 5.0622 11.0117 5.0622C11.5617 5.0622 11.8717 5.4722 11.8717 5.9522C11.8717 6.1422 11.8117 6.3322 11.7117 6.5322C10.5817 8.5922 9.5517 10.3922 8.4517 12.4222H11.8017V9.8222C11.8017 9.1722 12.1317 8.8022 12.6817 8.8022C13.2517 8.8022 13.5917 9.1622 13.5917 9.8222V12.4222H14.3917C14.9317 12.4222 15.2617 12.7222 15.2617 13.1922C15.2617 13.7022 14.9317 14.0322 14.3917 14.0322H13.5917V15.2722C13.5917 15.9222 13.2517 16.2922 12.6817 16.2922C12.1317 16.2922 11.8017 15.9122 11.8017 15.2722V14.0322H7.2617C6.6017 14.0322 6.1917 13.6322 6.1917 13.0222Z" />
        </svg>
    