
        <svg xmlns="http://www.w3.org/2000/svg" viewBox="0 0 100 100">
            <path d="M3.8417 21.8745H18.0317C20.5617 21.8745 21.8817 20.5745 21.8817 18.0745V3.8045C21.8817 1.3145 20.5617 0.0045 18.0317 0.0045H3.8417C1.3117 0.0045 0.0017 1.3045 0.0017 3.8045V18.0745C0.0017 20.5745 1.3117 21.8745 3.8417 21.8745ZM3.9817 19.5845C2.8917 19.5845 2.3017 19.0145 2.3017 17.8845V4.0045C2.3017 2.8745 2.8917 2.2945 3.9817 2.2945H17.8917C18.9717 2.2945 19.5817 2.8745 19.5817 4.0045V17.8845C19.5817 19.0145 18.9717 19.5845 17.8917 19.5845ZM6.4017 13.0445C6.4017 13.7345 6.8517 14.1545 7.5817 14.1545H11.7817V15.3745C11.7817 16.0745 12.1517 16.4645 12.7517 16.4645C13.3717 16.4645 13.7417 16.0945 13.7417 15.3745V14.1545H14.4117C15.0217 14.1545 15.4017 13.8045 15.4017 13.2445C15.4017 12.7245 15.0217 12.3845 14.4117 12.3845H13.7417V10.1945C13.7417 9.5145 13.3717 9.1145 12.7517 9.1145C12.1417 9.1145 11.7817 9.5245 11.7817 10.1945V12.3845H8.8717C9.8317 10.5845 10.8117 8.8245 11.7817 7.0145C11.8917 6.7645 11.9617 6.5745 11.9617 6.3545C11.9617 5.8345 11.6017 5.4045 10.9917 5.4045C10.5717 5.4045 10.2817 5.6145 10.0417 6.0445C8.8917 8.1045 7.8117 10.0145 6.6517 12.1045C6.4917 12.4345 6.4017 12.7245 6.4017 13.0445Z" />
        </svg>
    