
        <svg xmlns="http://www.w3.org/2000/svg" viewBox="0 0 100 100">
            <path d="M4.1417 22.4041H18.2717C20.9517 22.4041 22.4017 20.9541 22.4017 18.3041V4.1141C22.4017 1.4641 20.9517 0.0041 18.2717 0.0041H4.1417C1.4617 0.0041 0.0017 1.4541 0.0017 4.1141V18.3041C0.0017 20.9541 1.4617 22.4041 4.1417 22.4041ZM6.3317 13.3041C6.3317 12.8541 6.4717 12.4541 6.7217 11.9341C7.7317 9.9941 8.7117 8.1941 9.7617 6.2741C10.0417 5.7341 10.3917 5.4641 10.9917 5.4641C11.7417 5.4641 12.2717 5.9841 12.2717 6.6441C12.2717 6.9541 12.2017 7.1641 12.0217 7.5541C11.2517 9.0841 10.3117 10.8741 9.5017 12.4541H11.8817V10.8041C11.8817 10.0341 12.3717 9.5141 13.1517 9.5141C13.9317 9.5141 14.4417 10.0241 14.4417 10.8041V12.4541H14.9217C15.7417 12.4541 16.2217 12.9041 16.2217 13.6041C16.2217 14.3241 15.7217 14.7741 14.9217 14.7741H14.4417V15.4441C14.4417 16.3641 13.9417 16.8241 13.1517 16.8241C12.3717 16.8241 11.8817 16.3441 11.8817 15.4441V14.7741H7.8517C6.9217 14.7741 6.3317 14.2641 6.3317 13.3041Z" />
        </svg>
    