
        <svg xmlns="http://www.w3.org/2000/svg" viewBox="0 0 100 100">
            <path d="M12.2223 24.4436C18.9723 24.4436 24.4423 18.9736 24.4423 12.2236C24.4423 5.4736 18.9723 0.0036 12.2223 0.0036C5.4723 0.0036 0.0023 5.4736 0.0023 12.2236C0.0023 18.9736 5.4723 24.4436 12.2223 24.4436ZM12.2223 21.7636C6.9523 21.7636 2.6823 17.4936 2.6823 12.2236C2.6823 6.9536 6.9523 2.6836 12.2223 2.6836C17.4923 2.6836 21.7623 6.9536 21.7623 12.2236C21.7623 17.4936 17.4923 21.7636 12.2223 21.7636ZM7.6023 14.2836C7.6023 15.0536 8.1123 15.5136 8.8923 15.5136H12.9423V16.5436C12.9423 17.3036 13.3523 17.7336 14.0023 17.7336C14.6823 17.7336 15.0923 17.3236 15.0923 16.5436V15.5136H15.6823C16.3623 15.5136 16.7723 15.1336 16.7723 14.5236C16.7723 13.9436 16.3623 13.5736 15.6823 13.5736H15.0923V11.6336C15.0923 10.9236 14.6823 10.5036 14.0023 10.5036C13.3523 10.5036 12.9423 10.9336 12.9423 11.6336V13.5736H10.3023C11.1823 11.8936 12.1323 10.1436 12.9923 8.4936C13.1323 8.1936 13.1923 7.9936 13.1923 7.7436C13.1923 7.1836 12.7823 6.7236 12.1323 6.7236C11.6523 6.7236 11.3423 6.9536 11.1023 7.4136C10.0123 9.3736 8.9923 11.2136 7.9223 13.1936C7.7123 13.5936 7.6023 13.9236 7.6023 14.2836Z" />
        </svg>
    