
        <svg xmlns="http://www.w3.org/2000/svg" viewBox="0 0 100 100">
            <path d="M3.4617 21.2264H17.7617C20.0517 21.2264 21.2217 20.0464 21.2217 17.7964V3.4264C21.2217 1.1764 20.0517 -0.0036 17.7617 -0.0036H3.4617C1.1717 -0.0036 0.0017 1.1564 0.0017 3.4264V17.7964C0.0017 20.0664 1.1717 21.2264 3.4617 21.2264ZM12.1017 16.0164C11.6817 16.0164 11.4117 15.7164 11.4117 15.2364V13.6564H6.9917C6.3617 13.6564 5.9717 13.2764 5.9717 12.7064C5.9717 12.4264 6.0617 12.1764 6.2317 11.8664C7.2117 10.2864 9.0317 7.5864 10.2217 5.8264C10.6017 5.2364 11.0117 5.0064 11.6717 5.0064C12.3617 5.0064 12.8217 5.4164 12.8217 6.0164V12.3964H13.9217C14.3017 12.3964 14.5517 12.6564 14.5517 13.0264C14.5517 13.3964 14.3017 13.6564 13.9217 13.6564H12.8217V15.2364C12.8217 15.7264 12.5617 16.0164 12.1017 16.0164ZM11.4117 12.3964V6.2964H11.3417C10.2417 7.9364 8.2617 10.8764 7.3917 12.3264V12.3964Z" />
        </svg>
    