
        <svg xmlns="http://www.w3.org/2000/svg" viewBox="0 0 100 100">
            <path d="M12.3723 24.7459C19.2023 24.7459 24.7523 19.2059 24.7523 12.3759C24.7523 5.5459 19.2023 -0.0041 12.3723 -0.0041C5.5423 -0.0041 0.0023 5.5459 0.0023 12.3759C0.0023 19.2059 5.5423 24.7459 12.3723 24.7459ZM15.8423 17.2459C13.5023 17.2459 12.7823 14.6959 12.7823 12.3759C12.7823 10.0559 13.5023 7.4959 15.8423 7.4959C18.1923 7.4959 18.9023 10.0559 18.9023 12.3759C18.9023 14.6959 18.1923 17.2459 15.8423 17.2459ZM9.7823 17.1659C9.3023 17.1659 8.8323 16.8859 8.8323 16.1959V15.3159H6.6123C5.8923 15.3159 5.4723 14.9059 5.4723 14.2159C5.4723 13.8059 5.5523 13.4059 5.7423 12.9359L7.2923 9.3059C7.6523 8.3659 8.0523 7.6059 9.2023 7.6059C10.1123 7.6059 10.7323 8.1359 10.7323 9.0659V13.7359H10.9923C11.5223 13.7359 11.7523 14.0459 11.7523 14.5159C11.7523 14.9559 11.5523 15.3159 10.9923 15.3159H10.7323V16.1959C10.7323 16.8659 10.3123 17.1659 9.7823 17.1659ZM15.8423 15.6359C16.5823 15.6359 16.8623 14.3359 16.8623 12.3759C16.8623 10.4159 16.5823 9.1059 15.8423 9.1059C15.1023 9.1059 14.8123 10.4159 14.8123 12.3759C14.8123 14.3359 15.1023 15.6359 15.8423 15.6359ZM8.8823 13.7959V9.2359H8.8323L7.1223 13.7059V13.7959Z" />
        </svg>
    