
        <svg xmlns="http://www.w3.org/2000/svg" viewBox="0 0 100 100">
            <path d="M4.5917 23.2359H18.6417C21.5417 23.2359 23.2417 21.5459 23.2417 18.6459V4.5959C23.2417 1.6959 21.5417 -0.0041 18.6417 -0.0041H4.5917C1.7017 -0.0041 0.0017 1.6959 0.0017 4.5959V18.6459C0.0017 21.5459 1.7017 23.2359 4.5917 23.2359ZM15.1217 16.2459C12.8417 16.2459 12.1417 13.8259 12.1417 11.6259C12.1417 9.4259 12.8417 7.0059 15.1217 7.0059C17.4017 7.0059 18.0917 9.4259 18.0917 11.6259C18.0917 13.8259 17.4017 16.2459 15.1217 16.2459ZM9.3117 16.1559C8.7317 16.1559 8.2517 15.8159 8.2517 15.0859V14.5359H6.5117C5.6617 14.5359 5.2217 14.1259 5.2217 13.3159C5.2217 12.8759 5.3317 12.3959 5.4917 11.9259L6.4217 9.3259C6.8217 8.2159 7.2317 7.1259 8.6617 7.1259C9.7017 7.1259 10.3817 7.7059 10.3817 8.7559V12.7759H10.4917C11.0517 12.7759 11.3217 13.0859 11.3217 13.6559C11.3217 14.0959 11.1317 14.5359 10.4617 14.5359H10.3817V15.0859C10.3817 15.8459 9.9117 16.1559 9.3117 16.1559ZM15.1217 14.4459C15.6117 14.4459 15.8117 13.4459 15.8117 11.6259C15.8117 9.8059 15.6117 8.7859 15.1217 8.7859C14.6217 8.7859 14.4217 9.8059 14.4217 11.6259C14.4217 13.4459 14.6217 14.4459 15.1217 14.4459ZM8.3217 12.8459V8.8459H8.2717L7.0417 12.7659V12.8459Z" />
        </svg>
    