
        <svg xmlns="http://www.w3.org/2000/svg" viewBox="0 0 100 100">
            <path d="M11.7523 23.5048C18.2423 23.5048 23.5123 18.2448 23.5123 11.7548C23.5123 5.2648 18.2423 0.0048 11.7523 0.0048C5.2623 0.0048 0.0023 5.2648 0.0023 11.7548C0.0023 18.2448 5.2623 23.5048 11.7523 23.5048ZM11.7523 21.9848C6.0923 21.9848 1.5223 17.4148 1.5223 11.7548C1.5223 6.0948 6.0923 1.5148 11.7523 1.5148C17.4123 1.5148 21.9923 6.0948 21.9923 11.7548C21.9923 17.4148 17.4123 21.9848 11.7523 21.9848ZM10.0523 16.6248C10.4023 16.6248 10.7023 16.3848 10.7023 15.9448V14.4948H11.2423C11.6023 14.4948 11.7923 14.2648 11.7923 13.9348C11.7923 13.6148 11.6023 13.3848 11.2423 13.3848H10.7023V7.8848C10.7023 7.2048 10.2523 6.8648 9.6723 6.8648C9.0023 6.8648 8.6923 7.2148 8.4123 7.8048L6.0223 12.7948C5.8723 13.1648 5.8123 13.4048 5.8123 13.6948C5.8123 14.1648 6.1323 14.4948 6.6123 14.4948H9.4123V15.9448C9.4123 16.4248 9.7423 16.6248 10.0523 16.6248ZM15.4923 16.6148C15.8523 16.6148 16.1723 16.3048 16.1723 15.9248V7.6448C16.1723 7.1748 15.8623 6.8748 15.3823 6.8748C15.0023 6.8748 14.6723 7.0848 14.4523 7.2748L13.0323 8.4148C12.8523 8.5448 12.7423 8.7148 12.7423 8.9648C12.7423 9.2548 12.9423 9.4648 13.2323 9.4648C13.3823 9.4648 13.4723 9.4248 13.5723 9.3548L14.8023 8.3548V15.9248C14.8023 16.3048 15.1023 16.6148 15.4923 16.6148ZM9.4223 13.4048H6.9823V13.3448L9.3823 8.1348H9.4223Z" />
        </svg>
    