
        <svg xmlns="http://www.w3.org/2000/svg" viewBox="0 0 100 100">
            <path d="M4.1417 22.4041H18.2717C20.9517 22.4041 22.4017 20.9541 22.4017 18.3041V4.1141C22.4017 1.4641 20.9517 0.0041 18.2717 0.0041H4.1417C1.4617 0.0041 0.0017 1.4541 0.0017 4.1141V18.3041C0.0017 20.9541 1.4617 22.4041 4.1417 22.4041ZM15.3017 16.1341C14.7217 16.1341 14.2517 15.6641 14.2517 15.0841V8.3941L13.3817 9.0741C13.2217 9.2141 13.0917 9.2741 12.8817 9.2741C12.5017 9.2741 12.1617 9.0141 12.1617 8.5241C12.1617 8.1641 12.3317 7.8941 12.6217 7.6841L13.7617 6.8041C14.1217 6.5241 14.5517 6.2541 15.1317 6.2541C15.9017 6.2541 16.3617 6.6841 16.3617 7.4441V15.0841C16.3617 15.6641 15.8917 16.1341 15.3017 16.1341ZM9.4617 16.1641C8.9517 16.1641 8.4617 15.8641 8.4617 15.1441V14.2541H6.1917C5.4417 14.2541 4.9917 13.8241 4.9917 13.1041C4.9917 12.6841 5.0817 12.2741 5.2817 11.7741L6.8517 8.0541C7.2317 7.0641 7.6517 6.2741 8.8517 6.2741C9.8117 6.2741 10.4417 6.8041 10.4417 7.7941V12.6141H10.7117C11.2617 12.6141 11.5117 12.9241 11.5117 13.4341C11.5117 13.8641 11.3017 14.2541 10.7017 14.2541H10.4417V15.1441C10.4417 15.8541 10.0117 16.1641 9.4617 16.1641ZM8.5217 12.6541V7.9541H8.4717L6.7117 12.5741V12.6541Z" />
        </svg>
    