
        <svg xmlns="http://www.w3.org/2000/svg" viewBox="0 0 100 100">
            <path d="M3.4617 21.2264H17.7617C20.0517 21.2264 21.2217 20.0464 21.2217 17.7964V3.4264C21.2217 1.1764 20.0517 -0.0036 17.7617 -0.0036H3.4617C1.1717 -0.0036 0.0017 1.1564 0.0017 3.4264V17.7964C0.0017 20.0664 1.1717 21.2264 3.4617 21.2264ZM8.9017 15.5864C8.5817 15.5864 8.2217 15.3764 8.2217 14.8964V13.4064H5.3917C4.8917 13.4064 4.5617 13.0664 4.5617 12.5964C4.5617 12.2964 4.6217 12.0364 4.7917 11.6564L7.2217 6.5864C7.5017 5.9764 7.8117 5.6264 8.4917 5.6264C9.1017 5.6264 9.5617 5.9664 9.5617 6.6664V12.2664H10.1117C10.4917 12.2664 10.6717 12.5064 10.6717 12.8364C10.6717 13.1564 10.4917 13.4064 10.1117 13.4064H9.5617V14.8964C9.5617 15.3264 9.2617 15.5864 8.9017 15.5864ZM14.4617 15.5664C14.0617 15.5664 13.7417 15.2464 13.7417 14.8464V7.1464L12.4917 8.1564C12.4017 8.2364 12.3017 8.2864 12.1517 8.2864C11.8517 8.2864 11.6417 8.0664 11.6417 7.7564C11.6417 7.5164 11.7617 7.3264 11.9417 7.1964L13.3817 6.0364C13.6217 5.8564 13.9417 5.6364 14.3517 5.6364C14.8317 5.6364 15.1517 5.9264 15.1517 6.4264V14.8464C15.1517 15.2464 14.8317 15.5664 14.4617 15.5664ZM8.2517 12.2964V6.9164H8.2017L5.7617 12.2264V12.2964Z" />
        </svg>
    