
        <svg xmlns="http://www.w3.org/2000/svg" viewBox="0 0 100 100">
            <path d="M12.1023 24.2064C18.7823 24.2064 24.2123 18.7864 24.2123 12.1064C24.2123 5.4264 18.7823 -0.0036 12.1023 -0.0036C5.4223 -0.0036 0.0023 5.4264 0.0023 12.1064C0.0023 18.7864 5.4223 24.2064 12.1023 24.2064ZM13.5923 16.9664C13.0123 16.9664 12.7223 16.6564 12.7223 16.2064C12.7223 15.8364 12.9223 15.5264 13.2023 15.1764L15.1923 12.6464C15.8423 11.7964 16.5023 10.8564 16.5023 9.9064C16.5023 9.1064 16.1323 8.4864 15.4523 8.4864C14.8123 8.4864 14.5423 8.9764 14.3323 9.7164C14.2023 10.1464 13.9223 10.3464 13.5123 10.3464C13.0123 10.3464 12.7423 10.0064 12.7423 9.5264C12.7423 8.2464 13.9223 7.0064 15.4723 7.0064C17.1323 7.0064 18.2723 8.1564 18.2723 9.8164C18.2723 10.9364 17.8223 11.8264 16.6623 13.2564L14.9923 15.3564V15.4564H17.7223C18.1923 15.4564 18.4523 15.7464 18.4523 16.2064C18.4523 16.6364 18.1923 16.9664 17.7223 16.9664ZM9.6223 17.1164C9.2023 17.1164 8.7323 16.8764 8.7323 16.2064V15.1064H6.1723C5.5323 15.1064 5.1123 14.6964 5.1123 14.0664C5.1123 13.6764 5.1923 13.3264 5.3923 12.8464L7.3323 8.5164C7.6923 7.6764 8.1023 7.1164 9.0823 7.1164C9.9223 7.1164 10.5123 7.6064 10.5123 8.4964V13.6164H10.8823C11.3923 13.6164 11.6123 13.9364 11.6123 14.3564C11.6123 14.7764 11.3923 15.1064 10.8823 15.1064H10.5123V16.2064C10.5123 16.8264 10.1123 17.1164 9.6223 17.1164ZM8.7823 13.6664V8.6864H8.7323L6.7023 13.5864V13.6664Z" />
        </svg>
    