
        <svg xmlns="http://www.w3.org/2000/svg" viewBox="0 0 100 100">
            <path d="M12.6023 25.1986C19.5623 25.1986 25.2023 19.5586 25.2023 12.5986C25.2023 5.6386 19.5623 -0.0014 12.6023 -0.0014C5.6523 -0.0014 0.0023 5.6386 0.0023 12.5986C0.0023 19.5586 5.6523 25.1986 12.6023 25.1986ZM14.2523 17.3486C13.5723 17.3486 13.2023 17.0086 13.2023 16.4486C13.2023 16.0686 13.3623 15.7386 13.7923 15.2086L15.4223 13.1386C16.1323 12.2386 16.7323 11.3686 16.7323 10.4886C16.7323 9.8686 16.5123 9.3486 15.9523 9.3486C15.4523 9.3486 15.2623 9.7586 15.1123 10.2786C14.9523 10.8286 14.5923 11.0486 14.1323 11.0486C13.5223 11.0486 13.1923 10.6386 13.1923 10.0686C13.1923 8.7386 14.4423 7.6086 15.9523 7.6086C17.6523 7.6086 18.8523 8.6486 18.8523 10.4186C18.8523 11.6986 18.2423 12.6086 17.2523 13.7886L15.8623 15.4786V15.5786H18.1623C18.7723 15.5786 19.0223 15.9886 19.0223 16.4686C19.0223 16.9186 18.7723 17.3486 18.1623 17.3486ZM10.2423 17.5186C9.6723 17.5186 9.1623 17.1886 9.1623 16.4186V15.6886H7.1023C6.2623 15.6886 5.8123 15.2586 5.8123 14.4486C5.8123 14.0086 5.9223 13.5386 6.0923 13.0386L7.3723 9.8086C7.7723 8.7186 8.1923 7.7186 9.5723 7.7186C10.6123 7.7186 11.3223 8.3086 11.3223 9.3586V13.9086H11.4823C12.0723 13.9086 12.3423 14.2486 12.3423 14.7986C12.3423 15.2686 12.1423 15.6886 11.4823 15.6886H11.3223V16.4186C11.3223 17.1886 10.8323 17.5186 10.2423 17.5186ZM9.2323 13.9786V9.4886H9.1923L7.6523 13.8886V13.9786Z" />
        </svg>
    