
        <svg xmlns="http://www.w3.org/2000/svg" viewBox="0 0 100 100">
            <path d="M12.3723 24.7459C19.2023 24.7459 24.7523 19.2059 24.7523 12.3759C24.7523 5.5459 19.2023 -0.0041 12.3723 -0.0041C5.5423 -0.0041 0.0023 5.5459 0.0023 12.3759C0.0023 19.2059 5.5423 24.7459 12.3723 24.7459ZM12.3723 21.6659C7.2423 21.6659 3.0823 17.5059 3.0823 12.3759C3.0823 7.2259 7.2423 3.0859 12.3723 3.0859C17.5223 3.0859 21.6723 7.2259 21.6723 12.3759C21.6723 17.5059 17.5223 21.6659 12.3723 21.6659ZM15.7223 17.1459C17.4223 17.1459 18.6723 16.1159 18.6723 14.4259C18.6723 13.1359 17.9223 12.3859 16.9423 12.2659V12.2259C17.8123 11.9959 18.4023 11.1459 18.4023 10.1159C18.4023 8.5359 17.2523 7.6259 15.6723 7.6259C14.5123 7.6259 13.4323 8.2459 13.1123 9.3059C13.0523 9.5059 13.0223 9.7159 13.0223 9.9159C13.0223 10.3159 13.2823 10.6959 13.8423 10.6959C14.2623 10.6959 14.6023 10.5459 14.7323 10.1059C14.8623 9.5859 15.1423 9.1659 15.6823 9.1659C16.3023 9.1659 16.5623 9.7159 16.5623 10.3259C16.5623 11.0259 16.2223 11.6159 15.4523 11.6159H15.2823C14.8023 11.6159 14.5323 11.8859 14.5323 12.3059C14.5323 12.7359 14.7923 12.9959 15.2823 12.9959H15.4723C16.3223 12.9959 16.7423 13.4659 16.7423 14.3359C16.7423 14.9759 16.4423 15.5959 15.7123 15.5959C15.0923 15.5959 14.7923 15.1659 14.6523 14.7159C14.5123 14.2859 14.2123 14.0659 13.7723 14.0659C13.2423 14.0659 12.8923 14.3759 12.8923 14.9159C12.8923 15.1259 12.9223 15.3359 12.9823 15.5259C13.3123 16.5659 14.4723 17.1459 15.7223 17.1459ZM9.9523 17.0859C10.4623 17.0859 10.8723 16.7959 10.8723 16.1259V15.2659H11.1323C11.6823 15.2659 11.8823 14.9059 11.8823 14.4859C11.8823 14.0159 11.6523 13.7059 11.1323 13.7059H10.8723V9.1259C10.8723 8.2059 10.2823 7.6959 9.3723 7.6959C8.2423 7.6959 7.8423 8.4459 7.4923 9.3659L5.9723 12.9259C5.7923 13.3959 5.7023 13.7859 5.7023 14.1759C5.7023 14.8559 6.1123 15.2659 6.8323 15.2659H9.0123V16.1259C9.0123 16.8059 9.4723 17.0859 9.9523 17.0859ZM9.0623 13.7559H7.3323V13.6759L9.0123 9.2959H9.0623Z" />
        </svg>
    