
        <svg xmlns="http://www.w3.org/2000/svg" viewBox="0 0 100 100">
            <path d="M11.3523 22.7064C17.6323 22.7064 22.7123 17.6264 22.7123 11.3564C22.7123 5.0764 17.6323 -0.0036 11.3523 -0.0036C5.0823 -0.0036 0.0023 5.0764 0.0023 11.3564C0.0023 17.6264 5.0823 22.7064 11.3523 22.7064ZM11.3523 22.1364C5.3923 22.1364 0.5723 17.3164 0.5723 11.3564C0.5723 5.3864 5.3923 0.5764 11.3523 0.5764C17.3223 0.5764 22.1323 5.3864 22.1323 11.3564C22.1323 17.3164 17.3223 22.1364 11.3523 22.1364ZM9.0223 16.1964C9.2023 16.1964 9.3523 16.0164 9.3523 15.8464V13.7964H10.1523C10.3323 13.7964 10.4523 13.6864 10.4523 13.4864C10.4523 13.3164 10.3123 13.1964 10.1523 13.1964H9.3523V7.0064C9.3523 6.5764 9.0723 6.4564 8.8323 6.4564C8.5123 6.4564 8.3423 6.6664 8.1823 6.9864L5.2023 12.8464C5.1223 13.0264 5.0723 13.1864 5.0723 13.3464C5.0723 13.6064 5.2523 13.7964 5.5523 13.7964H8.6923V15.8464C8.6923 16.0564 8.8223 16.1964 9.0223 16.1964ZM14.3423 16.2464C15.7723 16.2464 16.8123 15.1664 16.8123 13.4864C16.8123 12.2564 16.2023 11.2664 14.9923 11.1564V11.1364C16.0523 10.8664 16.5423 9.8664 16.5423 8.8664C16.5423 7.4664 15.6723 6.4664 14.2923 6.4664C13.1523 6.4664 12.4323 7.1464 12.1123 8.1764C12.0423 8.4364 12.0323 8.6464 12.0323 8.7664C12.0323 8.9564 12.1323 9.0964 12.3123 9.0964C12.5423 9.0964 12.5823 8.9564 12.6323 8.7264C12.7723 7.8564 13.3023 7.0664 14.2923 7.0664C15.3323 7.0664 15.9023 7.9064 15.9023 8.9364C15.9023 10.0164 15.2123 10.8764 14.1323 10.8764H13.5923C13.3823 10.8764 13.3123 11.0264 13.3123 11.1664C13.3123 11.3364 13.4323 11.4564 13.5923 11.4564H14.1423C15.4023 11.4564 16.1523 12.1564 16.1523 13.5264C16.1523 14.6264 15.5723 15.6364 14.3523 15.6364C13.2323 15.6364 12.6023 14.7564 12.4823 13.9364C12.4423 13.7064 12.3723 13.5964 12.1523 13.5964C11.9723 13.5964 11.8723 13.7264 11.8723 13.9064C11.8723 14.0664 11.9023 14.3364 11.9623 14.5064C12.2823 15.5264 13.1223 16.2464 14.3423 16.2464ZM8.6923 13.1964H5.7223V13.1764L8.6523 7.2964H8.6923Z" />
        </svg>
    