
        <svg xmlns="http://www.w3.org/2000/svg" viewBox="0 0 100 100">
            <path d="M11.4923 22.977C17.8123 22.977 22.9823 17.827 22.9823 11.497C22.9823 5.167 17.8123 -0.003 11.4923 -0.003C5.1723 -0.003 0.0023 5.167 0.0023 11.497C0.0023 17.827 5.1723 22.977 11.4923 22.977ZM14.6023 16.427C13.3723 16.427 12.4423 15.727 12.1123 14.697C12.0623 14.507 12.0123 14.247 12.0123 14.087C12.0123 13.827 12.1723 13.667 12.4223 13.667C12.6823 13.667 12.7923 13.807 12.8423 14.067C12.9623 14.827 13.5423 15.637 14.6123 15.637C15.7623 15.637 16.3023 14.697 16.3023 13.667C16.3023 12.367 15.6023 11.707 14.3923 11.707H13.9023C13.6923 11.707 13.5323 11.547 13.5323 11.327C13.5323 11.137 13.6423 10.957 13.9023 10.957H14.3823C15.4223 10.957 16.0623 10.147 16.0623 9.117C16.0623 8.137 15.5423 7.347 14.5523 7.347C13.6423 7.347 13.1523 8.047 12.9823 8.897C12.9223 9.167 12.8323 9.307 12.5723 9.307C12.3123 9.307 12.1723 9.127 12.1723 8.897C12.1723 8.757 12.2023 8.547 12.2723 8.297C12.5823 7.257 13.3823 6.567 14.5523 6.567C15.9723 6.567 16.9323 7.557 16.9323 9.007C16.9323 10.017 16.4323 11.007 15.3623 11.287V11.307C16.5323 11.417 17.2123 12.347 17.2123 13.657C17.2123 15.347 16.1023 16.427 14.6023 16.427ZM9.1023 16.387C8.8623 16.387 8.6523 16.217 8.6523 15.917V14.067H5.6223C5.2523 14.067 5.0123 13.817 5.0123 13.487C5.0123 13.277 5.0723 13.087 5.1823 12.847L7.9723 7.257C8.1723 6.827 8.3923 6.577 8.8323 6.577C9.2023 6.577 9.5423 6.757 9.5423 7.287V13.277H10.2523C10.4923 13.277 10.6523 13.437 10.6523 13.667C10.6523 13.897 10.5023 14.067 10.2523 14.067H9.5423V15.917C9.5423 16.187 9.3423 16.387 9.1023 16.387ZM8.6623 13.287V7.567H8.6123L5.8523 13.247V13.287Z" />
        </svg>
    