
        <svg xmlns="http://www.w3.org/2000/svg" viewBox="0 0 100 100">
            <path d="M3.1617 20.742H17.5917C19.6617 20.742 20.7417 19.642 20.7417 17.592V3.152C20.7417 1.102 19.6617 0.002 17.5917 0.002H3.1617C1.0917 0.002 0.0017 1.082 0.0017 3.152V17.592C0.0017 19.662 1.0917 20.742 3.1617 20.742ZM13.4917 15.302C12.2617 15.302 11.3317 14.602 11.0017 13.572C10.9417 13.382 10.9017 13.122 10.9017 12.962C10.9017 12.702 11.0617 12.542 11.3117 12.542C11.5617 12.542 11.6817 12.682 11.7317 12.942C11.8617 13.702 12.4317 14.512 13.5017 14.512C14.6517 14.512 15.1917 13.572 15.1917 12.542C15.1917 11.242 14.4817 10.582 13.2917 10.582H12.7817C12.5717 10.582 12.4217 10.422 12.4217 10.202C12.4217 10.012 12.5317 9.832 12.7817 9.832H13.2617C14.3117 9.832 14.9517 9.022 14.9517 7.992C14.9517 7.012 14.4217 6.222 13.4417 6.222C12.5317 6.222 12.0317 6.922 11.8717 7.772C11.8117 8.042 11.7317 8.182 11.4617 8.182C11.2017 8.182 11.0617 8.002 11.0617 7.772C11.0617 7.632 11.0817 7.422 11.1517 7.172C11.4817 6.132 12.2717 5.442 13.4417 5.442C14.8617 5.442 15.8217 6.432 15.8217 7.882C15.8217 8.892 15.3117 9.882 14.2517 10.162V10.182C15.4217 10.292 16.1017 11.222 16.1017 12.532C16.1017 14.222 14.9917 15.302 13.4917 15.302ZM7.9917 15.262C7.7417 15.262 7.5517 15.092 7.5517 14.792V12.942H4.5117C4.1417 12.942 3.9017 12.692 3.9017 12.362C3.9017 12.152 3.9617 11.962 4.0617 11.722L6.8517 6.132C7.0617 5.702 7.2817 5.452 7.7217 5.452C8.0817 5.452 8.4217 5.632 8.4217 6.162V12.152H9.1417C9.3717 12.152 9.5417 12.312 9.5417 12.542C9.5417 12.772 9.3917 12.942 9.1417 12.942H8.4217V14.792C8.4217 15.062 8.2217 15.262 7.9917 15.262ZM7.5517 12.162V6.442H7.5017L4.7417 12.122V12.162Z" />
        </svg>
    