
        <svg xmlns="http://www.w3.org/2000/svg" viewBox="0 0 100 100">
            <path d="M3.0117 20.5048H17.4917C19.4517 20.5048 20.5117 19.4248 20.5117 17.4948V3.0148C20.5117 1.0748 19.4517 0.0048 17.4917 0.0048H3.0117C1.0417 0.0048 0.0017 1.0448 0.0017 3.0148V17.4948C0.0017 19.4648 1.0417 20.5048 3.0117 20.5048ZM3.0317 19.9348C1.4217 19.9348 0.5717 19.0948 0.5717 17.4648V3.0348C0.5717 1.4148 1.4217 0.5748 3.0317 0.5748H17.4617C19.0317 0.5748 19.9317 1.4148 19.9317 3.0348V17.4648C19.9317 19.0948 19.0317 19.9348 17.4617 19.9348ZM7.9317 15.0948C8.1017 15.0948 8.2517 14.9148 8.2517 14.7448V12.6948H9.0517C9.2317 12.6948 9.3517 12.5848 9.3517 12.3848C9.3517 12.2148 9.2117 12.0948 9.0517 12.0948H8.2517V5.9048C8.2517 5.4748 7.9717 5.3548 7.7317 5.3548C7.4017 5.3548 7.2417 5.5648 7.0817 5.8848L4.1017 11.7448C4.0217 11.9248 3.9717 12.0848 3.9717 12.2448C3.9717 12.5048 4.1517 12.6948 4.4517 12.6948H7.5917V14.7448C7.5917 14.9548 7.7217 15.0948 7.9317 15.0948ZM13.2417 15.1448C14.6717 15.1448 15.7117 14.0648 15.7117 12.3848C15.7117 11.1548 15.1017 10.1648 13.8917 10.0548V10.0348C14.9517 9.7648 15.4417 8.7648 15.4417 7.7648C15.4417 6.3648 14.5617 5.3648 13.1917 5.3648C12.0517 5.3648 11.3317 6.0448 11.0117 7.0748C10.9417 7.3348 10.9317 7.5448 10.9317 7.6648C10.9317 7.8548 11.0317 7.9948 11.2217 7.9948C11.4517 7.9948 11.4817 7.8548 11.5317 7.6248C11.6717 6.7548 12.2017 5.9648 13.1917 5.9648C14.2417 5.9648 14.8017 6.8048 14.8017 7.8348C14.8017 8.9148 14.1117 9.7748 13.0317 9.7748H12.4917C12.2817 9.7748 12.2117 9.9248 12.2117 10.0648C12.2117 10.2348 12.3317 10.3548 12.4917 10.3548H13.0417C14.3017 10.3548 15.0517 11.0548 15.0517 12.4248C15.0517 13.5248 14.4717 14.5348 13.2517 14.5348C12.1317 14.5348 11.4917 13.6548 11.3817 12.8348C11.3517 12.6048 11.2717 12.4948 11.0617 12.4948C10.8917 12.4948 10.7717 12.6248 10.7717 12.8048C10.7717 12.9648 10.8117 13.2348 10.8717 13.4048C11.1817 14.4248 12.0317 15.1448 13.2417 15.1448ZM7.5917 12.0948H4.6217V12.0748L7.5517 6.1948H7.5917Z" />
        </svg>
    