
        <svg xmlns="http://www.w3.org/2000/svg" viewBox="0 0 100 100">
            <path d="M3.6817 21.5722H17.8917C20.3517 21.5722 21.5717 20.3722 21.5717 17.9522V3.6322C21.5717 1.2222 20.3517 0.0022 17.8917 0.0022H3.6817C1.2317 0.0022 0.0017 1.2222 0.0017 3.6322V17.9522C0.0017 20.3722 1.2317 21.5722 3.6817 21.5722ZM14.3417 15.8822C13.0517 15.8822 11.8117 15.2622 11.4717 14.1322C11.4017 13.9322 11.3817 13.7222 11.3817 13.5022C11.3817 13.0322 11.6917 12.7422 12.1617 12.7422C12.5617 12.7422 12.8217 12.9422 12.9417 13.3322C13.0817 13.8822 13.4717 14.4722 14.3517 14.4722C15.2417 14.4722 15.6917 13.7622 15.6917 12.9222C15.6917 11.8822 15.1317 11.3222 14.1017 11.3222H13.8017C13.4017 11.3222 13.1217 11.0822 13.1217 10.6922C13.1217 10.2922 13.3917 10.0322 13.8017 10.0322H14.0817C15.0017 10.0322 15.4817 9.3822 15.4817 8.5122C15.4817 7.7122 15.1017 7.1022 14.3117 7.1022C13.6217 7.1022 13.2517 7.5422 13.0517 8.2622C12.9417 8.6822 12.6917 8.8322 12.2817 8.8322C11.8017 8.8322 11.5317 8.5222 11.5317 8.1222C11.5317 7.9122 11.5617 7.7022 11.6217 7.4622C11.9717 6.4022 13.0517 5.6922 14.3117 5.6922C15.8817 5.6922 17.1317 6.6422 17.1317 8.3222C17.1317 9.3322 16.5917 10.3122 15.5017 10.6022V10.6422C16.5217 10.7422 17.4117 11.4822 17.4117 12.9822C17.4117 14.7922 16.0917 15.8822 14.3417 15.8822ZM8.2017 15.8222C7.8117 15.8222 7.3617 15.6022 7.3617 14.9522V13.7622H4.6617C4.0617 13.7622 3.6717 13.3622 3.6717 12.7722C3.6717 12.4022 3.7417 12.0822 3.9217 11.6122L6.0817 6.9222C6.4217 6.1722 6.8317 5.7422 7.6917 5.7422C8.4817 5.7422 9.0217 6.2122 9.0217 7.0522V12.3522H9.4617C9.9417 12.3522 10.1517 12.6522 10.1517 13.0422C10.1517 13.4522 9.9117 13.7622 9.4617 13.7622H9.0217V14.9522C9.0217 15.5422 8.6517 15.8222 8.2017 15.8222ZM7.3917 12.3822V7.2622H7.3517L5.1517 12.3022V12.3822Z" />
        </svg>
    