
        <svg xmlns="http://www.w3.org/2000/svg" viewBox="0 0 100 100">
            <path d="M3.4617 21.2264H17.7617C20.0517 21.2264 21.2217 20.0464 21.2217 17.7964V3.4264C21.2217 1.1764 20.0517 -0.0036 17.7617 -0.0036H3.4617C1.1717 -0.0036 0.0017 1.1564 0.0017 3.4264V17.7964C0.0017 20.0664 1.1717 21.2264 3.4617 21.2264ZM13.9817 15.6364C12.7117 15.6364 11.6017 14.9764 11.2717 13.8864C11.2017 13.6964 11.1717 13.4664 11.1717 13.2664C11.1717 12.8864 11.4217 12.6564 11.8017 12.6564C12.1417 12.6564 12.3317 12.8364 12.4217 13.1764C12.5517 13.8064 13.0317 14.4864 13.9917 14.4864C14.9917 14.4864 15.4717 13.6764 15.4717 12.7664C15.4717 11.6064 14.8517 11.0064 13.7417 11.0064H13.3617C13.0417 11.0064 12.8217 10.7964 12.8217 10.4764C12.8217 10.1764 13.0217 9.9464 13.3617 9.9464H13.7317C14.6917 9.9464 15.2617 9.2364 15.2617 8.2864C15.2617 7.4064 14.8117 6.7164 13.9317 6.7164C13.1517 6.7164 12.7217 7.2764 12.5517 8.0464C12.4617 8.4064 12.2817 8.5564 11.9317 8.5564C11.5417 8.5564 11.3317 8.2964 11.3317 7.9664C11.3317 7.7964 11.3517 7.5864 11.4217 7.3364C11.7617 6.2764 12.7217 5.5864 13.9317 5.5864C15.4417 5.5864 16.5717 6.5464 16.5717 8.1364C16.5717 9.1364 16.0417 10.1264 14.9617 10.4064V10.4564C16.0517 10.5564 16.8517 11.3764 16.8517 12.7864C16.8517 14.5564 15.6217 15.6364 13.9817 15.6364ZM8.1117 15.5864C7.7917 15.5864 7.4417 15.3764 7.4417 14.8864V13.4064H4.5917C4.1017 13.4064 3.7717 13.0664 3.7717 12.5964C3.7717 12.2964 3.8317 12.0364 3.9817 11.6564L6.4217 6.5864C6.7017 5.9764 7.0217 5.6264 7.7017 5.6264C8.3117 5.6264 8.7617 5.9664 8.7617 6.6664V12.2664H9.3117C9.6917 12.2664 9.8817 12.5064 9.8817 12.8364C9.8817 13.1564 9.6917 13.4064 9.3117 13.4064H8.7617V14.8864C8.7617 15.3264 8.4717 15.5864 8.1117 15.5864ZM7.4617 12.2964V6.9164H7.4217L4.9817 12.2264V12.2964Z" />
        </svg>
    