
        <svg xmlns="http://www.w3.org/2000/svg" viewBox="0 0 100 100">
            <path d="M12.3723 24.7459C19.2023 24.7459 24.7523 19.2059 24.7523 12.3759C24.7523 5.5459 19.2023 -0.0041 12.3723 -0.0041C5.5423 -0.0041 0.0023 5.5459 0.0023 12.3759C0.0023 19.2059 5.5423 24.7459 12.3723 24.7459ZM9.7023 17.3359C9.2023 17.3359 8.7023 17.0259 8.7023 16.3159V15.4259H6.4223C5.6723 15.4259 5.2423 14.9959 5.2423 14.2759C5.2423 13.8559 5.3323 13.4459 5.5223 12.9459L7.0923 9.2259C7.4623 8.2359 7.8823 7.4459 9.0923 7.4459C10.0423 7.4459 10.6923 7.9759 10.6923 8.9659V13.7859H10.9523C11.4923 13.7859 11.7523 14.0959 11.7523 14.6059C11.7523 15.0359 11.5423 15.4259 10.9423 15.4259H10.6923V16.3159C10.6923 17.0259 10.2523 17.3359 9.7023 17.3359ZM17.2123 17.3359C16.7023 17.3359 16.2023 17.0259 16.2023 16.3159V15.4259H13.9223C13.1723 15.4259 12.7423 14.9959 12.7423 14.2759C12.7423 13.8559 12.8323 13.4459 13.0223 12.9459L14.5923 9.2259C14.9723 8.2359 15.3823 7.4459 16.5923 7.4459C17.5523 7.4459 18.2023 7.9759 18.2023 8.9659V13.7859H18.4523C19.0123 13.7859 19.2523 14.0959 19.2523 14.6059C19.2523 15.0359 19.0423 15.4259 18.4523 15.4259H18.2023V16.3159C18.2023 17.0259 17.7523 17.3359 17.2123 17.3359ZM8.7623 13.8259V9.1259H8.7223L6.9623 13.7459V13.8259ZM16.2623 13.8259V9.1259H16.2223L14.4623 13.7459V13.8259Z" />
        </svg>
    