
        <svg xmlns="http://www.w3.org/2000/svg" viewBox="0 0 100 100">
            <path d="M11.4923 22.977C17.8123 22.977 22.9823 17.827 22.9823 11.497C22.9823 5.167 17.8123 -0.003 11.4923 -0.003C5.1723 -0.003 0.0023 5.167 0.0023 11.497C0.0023 17.827 5.1723 22.977 11.4923 22.977ZM8.9723 16.387C8.7323 16.387 8.5323 16.217 8.5323 15.917V14.067H5.4923C5.1223 14.067 4.8823 13.817 4.8823 13.487C4.8823 13.277 4.9423 13.087 5.0523 12.847L7.8523 7.257C8.0523 6.827 8.2623 6.577 8.7223 6.577C9.0723 6.577 9.4123 6.757 9.4123 7.287V13.277H10.1223C10.3623 13.277 10.5223 13.437 10.5223 13.667C10.5223 13.897 10.3823 14.067 10.1223 14.067H9.4123V15.917C9.4123 16.187 9.2123 16.387 8.9723 16.387ZM15.8923 16.387C15.6423 16.387 15.4323 16.217 15.4323 15.917V14.067H12.4023C12.0323 14.067 11.8023 13.817 11.8023 13.487C11.8023 13.277 11.8623 13.087 11.9623 12.847L14.7523 7.257C14.9523 6.827 15.1723 6.577 15.6223 6.577C15.9823 6.577 16.3223 6.757 16.3223 7.287V13.277H17.0423C17.2723 13.277 17.4223 13.437 17.4223 13.667C17.4223 13.897 17.2823 14.067 17.0423 14.067H16.3223V15.917C16.3223 16.187 16.1223 16.387 15.8923 16.387ZM8.5323 13.287V7.567H8.4923L5.7323 13.247V13.287ZM15.4423 13.287V7.567H15.4023L12.6323 13.247V13.287Z" />
        </svg>
    