
        <svg xmlns="http://www.w3.org/2000/svg" viewBox="0 0 100 100">
            <path d="M12.3723 26.7716C19.2023 26.7716 24.7523 21.2216 24.7523 14.4016C24.7523 10.8116 23.1823 7.4416 20.4723 5.1316C19.6923 4.3916 18.7023 4.4816 18.1523 5.1316C17.5423 5.8416 17.7623 6.7516 18.4323 7.4116C20.4423 9.1516 21.6723 11.5916 21.6723 14.4016C21.6723 19.5316 17.5223 23.6916 12.3723 23.6916C7.2423 23.6916 3.0823 19.5316 3.0823 14.4016C3.0823 10.1716 5.8823 6.6416 9.7123 5.5216V6.7516C9.7123 7.6716 10.5123 7.9116 11.1823 7.4016L15.0623 4.5216C15.5623 4.1516 15.5623 3.5216 15.0623 3.1616L11.1823 0.2716C10.5123 -0.2484 9.7123 -0.0184 9.7123 0.9216V2.3216C4.1823 3.5116 0.0023 8.4716 0.0023 14.4016C0.0023 21.2216 5.5423 26.7716 12.3723 26.7716ZM9.8223 19.0216C10.3323 19.0216 10.7823 18.7316 10.7823 18.0416V17.3316H11.0523C11.6223 17.3316 11.8323 16.9516 11.8323 16.5416C11.8323 16.1016 11.6123 15.7516 11.0523 15.7516H10.7823V11.5016C10.7823 10.5716 10.1223 10.0516 9.1923 10.0516C8.2623 10.0516 7.8023 10.5616 7.4023 11.3216C6.8223 12.4316 5.9223 14.2316 5.5123 15.3216C5.3923 15.6416 5.2923 15.9516 5.2923 16.2716C5.2923 16.8816 5.7023 17.3316 6.4223 17.3316H8.8723V18.0416C8.8723 18.7316 9.3123 19.0216 9.8223 19.0216ZM15.8923 19.1116C17.7423 19.1116 18.8823 17.7916 18.8823 15.9316C18.8823 14.4116 18.0623 13.1016 16.5823 13.1016C15.8423 13.1016 15.2123 13.4416 14.9223 14.0616H14.8723L15.0223 11.7716H17.7423C18.2223 11.7716 18.5023 11.4516 18.5023 10.9816C18.5023 10.5016 18.2223 10.1916 17.7423 10.1916H14.4023C13.7423 10.1916 13.4023 10.5716 13.3723 11.2516L13.1823 14.3616C13.1523 14.9416 13.4623 15.4216 14.1023 15.4216C14.4923 15.4216 14.7023 15.3016 14.9523 15.0116C15.1723 14.7216 15.4823 14.4916 15.8623 14.4916C16.6423 14.4916 16.9523 15.2416 16.9523 15.9816C16.9523 16.8216 16.5923 17.5316 15.8623 17.5316C15.3123 17.5316 14.9623 17.1916 14.7523 16.7216C14.5523 16.3416 14.2723 16.1616 13.9023 16.1616C13.4023 16.1616 13.0823 16.4616 13.0823 16.9716C13.0823 17.2816 13.2323 17.5916 13.4523 17.8216C13.8723 18.6416 14.9423 19.1116 15.8923 19.1116ZM8.9323 15.8216H6.9723V15.7216C7.4723 14.4616 8.2523 12.8516 8.8823 11.6316H8.9323Z" />
        </svg>
    