
        <svg xmlns="http://www.w3.org/2000/svg" viewBox="0 0 100 100">
            <path d="M3.8417 21.8745H18.0317C20.5617 21.8745 21.8817 20.5745 21.8817 18.0745V3.8045C21.8817 1.3145 20.5617 0.0045 18.0317 0.0045H3.8417C1.3117 0.0045 0.0017 1.3045 0.0017 3.8045V18.0745C0.0017 20.5745 1.3117 21.8745 3.8417 21.8745ZM3.9817 19.5845C2.8917 19.5845 2.3017 19.0145 2.3017 17.8845V4.0045C2.3017 2.8745 2.8917 2.2945 3.9817 2.2945H17.8917C18.9717 2.2945 19.5817 2.8745 19.5817 4.0045V17.8845C19.5817 19.0145 18.9717 19.5845 17.8917 19.5845ZM14.4417 15.8445C16.2217 15.8445 17.2217 14.3545 17.2217 12.5545C17.2217 11.0045 16.5017 9.5145 14.9717 9.5145C14.0417 9.5145 13.3617 10.1645 13.1117 11.1045H13.0617V10.8945C13.0617 9.5545 13.2517 7.4745 14.4117 7.4745C14.8917 7.4745 15.2117 7.8245 15.4117 8.2845C15.5817 8.6445 15.8117 8.8245 16.2117 8.8245C16.7117 8.8245 16.9217 8.4845 16.9217 8.0845C16.9217 7.9445 16.9017 7.7945 16.8617 7.6545C16.6017 6.6345 15.6117 6.0445 14.4617 6.0445C12.0717 6.0445 11.3817 8.6745 11.3817 11.0345C11.3817 13.2045 12.0717 15.8445 14.4417 15.8445ZM8.3217 15.7645C8.7817 15.7645 9.1617 15.4845 9.1617 14.8745V13.8145H9.5117C10.0117 13.8145 10.2217 13.5045 10.2217 13.1045C10.2217 12.6945 10.0117 12.3845 9.5317 12.3845H9.1617V7.4445C9.1617 6.5945 8.6017 6.1245 7.7917 6.1245C6.8517 6.1245 6.4717 6.6645 6.1317 7.4645L4.2417 11.6445C4.0517 12.1045 3.9717 12.4445 3.9717 12.8245C3.9717 13.4345 4.3717 13.8145 4.9917 13.8145H7.4617V14.8745C7.4617 15.5145 7.9117 15.7645 8.3217 15.7645ZM7.5017 12.4345H5.4817V12.3545L7.4517 7.6445H7.5017ZM14.4117 14.4145C13.6217 14.4145 13.2917 13.4145 13.2917 12.5845C13.2917 11.7445 13.6417 10.8545 14.4017 10.8545C15.1917 10.8545 15.5117 11.7745 15.5017 12.6245C15.5017 13.4745 15.1517 14.4145 14.4117 14.4145Z" />
        </svg>
    