
        <svg xmlns="http://www.w3.org/2000/svg" viewBox="0 0 100 100">
            <path d="M3.8417 21.8745H18.0317C20.5617 21.8745 21.8817 20.5745 21.8817 18.0745V3.8045C21.8817 1.3145 20.5617 0.0045 18.0317 0.0045H3.8417C1.3117 0.0045 0.0017 1.3045 0.0017 3.8045V18.0745C0.0017 20.5745 1.3117 21.8745 3.8417 21.8745ZM14.6117 16.0345C12.1517 16.0345 11.4217 13.2845 11.4217 11.0345C11.4217 8.5745 12.1517 5.8545 14.6417 5.8545C15.8317 5.8545 16.8717 6.4545 17.1317 7.5245C17.1817 7.6645 17.2017 7.8245 17.2017 7.9645C17.2017 8.3745 16.9817 8.7445 16.4517 8.7445C16.0417 8.7445 15.8017 8.5645 15.6117 8.1845C15.4117 7.7245 15.0917 7.3445 14.5917 7.3445C13.3817 7.3445 13.1917 9.4945 13.1917 10.8845V11.1245H13.2417C13.5017 10.1245 14.2117 9.4645 15.1717 9.4645C16.7617 9.4645 17.5117 11.0045 17.5117 12.6045C17.5117 14.4845 16.4617 16.0345 14.6117 16.0345ZM8.2517 15.9445C7.8317 15.9445 7.3517 15.6945 7.3517 15.0245V13.9345H4.7917C4.1617 13.9345 3.7417 13.5245 3.7417 12.8945C3.7417 12.5045 3.8217 12.1545 4.0117 11.6745L5.9517 7.3345C6.3017 6.5045 6.7217 5.9445 7.7017 5.9445C8.5517 5.9445 9.1317 6.4245 9.1317 7.3245V12.4445H9.5017C10.0117 12.4445 10.2317 12.7645 10.2317 13.1845C10.2317 13.6045 10.0117 13.9345 9.5017 13.9345H9.1317V15.0245C9.1317 15.6545 8.7317 15.9445 8.2517 15.9445ZM7.3917 12.4845V7.5145H7.3517L5.3117 12.4145V12.4845ZM14.5917 14.5345C15.3517 14.5345 15.7017 13.5745 15.7017 12.6945C15.7217 11.8145 15.3917 10.8645 14.5917 10.8645C13.8017 10.8645 13.4317 11.7645 13.4317 12.6445C13.4317 13.5145 13.7617 14.5345 14.5917 14.5345Z" />
        </svg>
    