
        <svg xmlns="http://www.w3.org/2000/svg" viewBox="0 0 100 100">
            <path d="M12.7923 25.5978C19.8723 25.5978 25.6023 19.8678 25.6023 12.7978C25.6023 5.7278 19.8723 -0.0022 12.7923 -0.0022C5.7323 -0.0022 0.0023 5.7278 0.0023 12.7978C0.0023 19.8678 5.7323 25.5978 12.7923 25.5978ZM10.6123 17.6578C9.9923 17.6578 9.4723 17.2978 9.4723 16.4978V15.9278H7.6023C6.6923 15.9278 6.2223 15.4678 6.2223 14.5978C6.2223 14.1478 6.3423 13.6178 6.5323 13.1178L7.5123 10.3378C7.9223 9.1378 8.3523 7.9678 9.9223 7.9678C11.0323 7.9678 11.7623 8.5878 11.7623 9.7178V14.0278H11.8623C12.4923 14.0278 12.7623 14.3778 12.7623 14.9778C12.7623 15.4578 12.5623 15.9278 11.8523 15.9278H11.7623V16.4978C11.7623 17.3278 11.2523 17.6578 10.6123 17.6578ZM15.4323 17.6478C14.6123 17.6478 14.3323 17.1178 14.3323 16.6378C14.3323 16.3278 14.3923 16.0678 14.4923 15.7978L16.4923 10.1278V9.9878H14.3123C13.7323 9.9878 13.3723 9.5878 13.3723 9.0378C13.3723 8.5478 13.7023 8.1078 14.3123 8.1078H17.7323C18.4123 8.1078 18.9523 8.5578 18.9523 9.2478C18.9523 9.7378 18.8523 10.0878 18.7023 10.5578L16.5223 16.8878C16.3323 17.3978 16.0823 17.6478 15.4323 17.6478ZM9.5523 14.0978V9.8078H9.4923L8.1823 14.0178V14.0978Z" />
        </svg>
    