
        <svg xmlns="http://www.w3.org/2000/svg" viewBox="0 0 100 100">
            <path d="M3.9717 22.1117H18.1317C20.7317 22.1117 22.1017 20.7417 22.1017 18.1717V3.9417C22.1017 1.3717 20.7317 0.0017 18.1317 0.0017H3.9717C1.3817 0.0017 0.0017 1.3717 0.0017 3.9417V18.1717C0.0017 20.7417 1.3817 22.1117 3.9717 22.1117ZM4.1917 19.5017C3.1617 19.5017 2.6117 18.9817 2.6117 17.9017V4.2217C2.6117 3.1417 3.1617 2.6117 4.1917 2.6117H17.9217C18.9217 2.6117 19.5017 3.1417 19.5017 4.2217V17.9017C19.5017 18.9817 18.9217 19.5017 17.9217 19.5017ZM9.0017 15.8217C9.4817 15.8217 9.8817 15.5417 9.8817 14.9017V13.9317H10.1917C10.7117 13.9317 10.9117 13.6017 10.9117 13.1917C10.9117 12.7517 10.7017 12.4617 10.1917 12.4617H9.8817V7.6617C9.8817 6.7817 9.3017 6.2917 8.4517 6.2917C7.4317 6.2917 7.0317 6.9217 6.6917 7.7817L4.9717 11.6917C4.7817 12.1517 4.7017 12.5117 4.7017 12.9017C4.7017 13.5317 5.1117 13.9317 5.7617 13.9317H8.1017V14.9017C8.1017 15.5617 8.5517 15.8217 9.0017 15.8217ZM13.4717 15.8217C13.9617 15.8217 14.1717 15.6317 14.3317 15.2017L16.8017 8.4517C16.9317 8.0617 17.0117 7.7717 17.0117 7.3817C17.0117 6.8117 16.5817 6.4417 16.0217 6.4417H12.4317C11.9717 6.4417 11.6917 6.7617 11.6917 7.1817C11.6917 7.6217 11.9917 7.9317 12.4317 7.9317H15.1317V8.0417L12.7717 14.3117C12.6717 14.5617 12.6217 14.7517 12.6217 15.0317C12.6217 15.4017 12.8517 15.8217 13.4717 15.8217ZM8.1417 12.5017H6.2617V12.4217L8.1117 7.8517H8.1417Z" />
        </svg>
    