
        <svg xmlns="http://www.w3.org/2000/svg" viewBox="0 0 100 100">
            <path d="M3.8417 21.8745H18.0317C20.5617 21.8745 21.8817 20.5745 21.8817 18.0745V3.8045C21.8817 1.3145 20.5617 0.0045 18.0317 0.0045H3.8417C1.3117 0.0045 0.0017 1.3045 0.0017 3.8045V18.0745C0.0017 20.5745 1.3117 21.8745 3.8417 21.8745ZM3.9817 19.5845C2.8917 19.5845 2.3017 19.0145 2.3017 17.8845V4.0045C2.3017 2.8745 2.8917 2.2945 3.9817 2.2945H17.8917C18.9717 2.2945 19.5817 2.8745 19.5817 4.0045V17.8845C19.5817 19.0145 18.9717 19.5845 17.8917 19.5845ZM8.8717 15.7645C9.3417 15.7645 9.7217 15.4845 9.7217 14.8745V13.8145H10.0817C10.5717 13.8145 10.7817 13.5045 10.7817 13.1045C10.7817 12.6945 10.5717 12.3845 10.0817 12.3845H9.7217V7.4445C9.7217 6.5945 9.1617 6.1245 8.3517 6.1245C7.4217 6.1245 7.0217 6.6645 6.6917 7.4645L4.8017 11.6445C4.6217 12.1045 4.5317 12.4445 4.5317 12.8245C4.5317 13.4345 4.9317 13.8145 5.5517 13.8145H8.0117V14.8745C8.0117 15.5145 8.4617 15.7645 8.8717 15.7645ZM13.3617 15.7645C13.8117 15.7645 14.0317 15.5745 14.1817 15.1545L16.7417 8.2245C16.8717 7.8545 16.9617 7.5545 16.9617 7.1945C16.9617 6.6345 16.5317 6.2645 15.9917 6.2645H12.3117C11.8817 6.2645 11.6017 6.5745 11.6017 6.9945C11.6017 7.4045 11.8917 7.7145 12.3117 7.7145H15.1517V7.8245L12.6917 14.2945C12.5817 14.5545 12.5417 14.7145 12.5417 15.0045C12.5417 15.3545 12.7717 15.7645 13.3617 15.7645ZM8.0617 12.4345H6.0517V12.3545L8.0117 7.6445H8.0617Z" />
        </svg>
    