
        <svg xmlns="http://www.w3.org/2000/svg" viewBox="0 0 100 100">
            <path d="M12.7923 25.5978C19.8723 25.5978 25.6023 19.8678 25.6023 12.7978C25.6023 5.7278 19.8723 -0.0022 12.7923 -0.0022C5.7323 -0.0022 0.0023 5.7278 0.0023 12.7978C0.0023 19.8678 5.7323 25.5978 12.7923 25.5978ZM16.4723 17.7578C14.6223 17.7578 13.2923 16.6778 13.2923 14.9678C13.2923 13.7778 14.0323 12.7878 15.0323 12.5878V12.5378C14.2523 12.2978 13.5323 11.5778 13.5323 10.4278C13.5323 8.7378 14.9023 7.8678 16.4723 7.8678C18.1723 7.8678 19.4023 8.8578 19.4023 10.4378C19.4023 11.4278 18.8123 12.2478 17.9023 12.5378V12.5878C18.9823 12.8078 19.6523 13.8078 19.6523 14.9778C19.6523 16.8078 18.2023 17.7578 16.4723 17.7578ZM10.2623 17.6578C9.6423 17.6578 9.1323 17.3078 9.1323 16.4978V15.9278H7.2623C6.3523 15.9278 5.8723 15.4678 5.8723 14.5978C5.8723 14.1478 5.9923 13.6178 6.1623 13.1178L7.1523 10.3378C7.5823 9.1378 8.0123 7.9678 9.5723 7.9678C10.6923 7.9678 11.4123 8.5878 11.4123 9.7178V14.0278H11.5223C12.1323 14.0278 12.4123 14.3778 12.4123 14.9778C12.4123 15.4578 12.2123 15.9278 11.5123 15.9278H11.4123V16.4978C11.4123 17.3278 10.9123 17.6578 10.2623 17.6578ZM16.4723 11.8378C16.8523 11.8378 17.0623 11.3878 17.0623 10.6878C17.0623 9.9978 16.8523 9.5378 16.4723 9.5378C16.1123 9.5378 15.8923 9.9978 15.8923 10.6878C15.8923 11.3778 16.1123 11.8378 16.4723 11.8378ZM9.2023 14.0978V9.8078H9.1523L7.8323 14.0178V14.0978ZM16.4723 16.0678C16.8623 16.0678 17.1323 15.5578 17.1323 14.7778C17.1323 14.0178 16.8623 13.5078 16.4723 13.5078C16.0623 13.5078 15.8323 14.0178 15.8323 14.7778C15.8323 15.5578 16.0623 16.0678 16.4723 16.0678Z" />
        </svg>
    