
        <svg xmlns="http://www.w3.org/2000/svg" viewBox="0 0 100 100">
            <path d="M12.2223 24.4436C18.9723 24.4436 24.4423 18.9636 24.4423 12.2236C24.4423 5.4736 18.9723 0.0036 12.2223 0.0036C5.4823 0.0036 0.0023 5.4736 0.0023 12.2236C0.0023 18.9636 5.4823 24.4436 12.2223 24.4436ZM15.8123 17.2736C14.0123 17.2736 12.6723 16.2036 12.6723 14.4536C12.6723 13.1736 13.4423 12.2136 14.4623 11.9836V11.9436C13.6923 11.7036 12.9223 10.9936 12.9223 9.7836C12.9223 8.0836 14.2823 7.1836 15.8123 7.1836C17.5223 7.1836 18.7023 8.2236 18.7023 9.7936C18.7023 10.8836 18.0223 11.6836 17.1823 11.9436V11.9836C18.1723 12.2136 18.9723 13.1736 18.9723 14.4536C18.9723 16.1436 17.6723 17.2736 15.8123 17.2736ZM9.5423 17.2136C9.0823 17.2136 8.6123 16.9436 8.6123 16.2436V15.2436H6.1723C5.4823 15.2436 5.0523 14.8236 5.0523 14.1536C5.0523 13.7436 5.1423 13.3736 5.3323 12.8936L7.1123 8.8136C7.4923 7.9236 7.9023 7.2536 8.9723 7.2536C9.8623 7.2536 10.4723 7.7736 10.4723 8.6936V13.6836H10.8023C11.3323 13.6836 11.5523 14.0036 11.5523 14.4636C11.5523 14.8936 11.3423 15.2436 10.8023 15.2436H10.4723V16.2436C10.4723 16.9136 10.0623 17.2136 9.5423 17.2136ZM15.8123 11.3436C16.4523 11.3436 16.7923 10.7436 16.7923 9.9836C16.7923 9.2436 16.4623 8.6036 15.8123 8.6036C15.1923 8.6036 14.8323 9.2336 14.8323 9.9836C14.8323 10.7036 15.1623 11.3436 15.8123 11.3436ZM8.6623 13.7336V8.8836H8.6123L6.7023 13.6536V13.7336ZM15.8123 15.8436C16.5323 15.8436 16.9223 15.1436 16.9223 14.2936C16.9223 13.4336 16.5223 12.7736 15.8123 12.7736C15.0823 12.7736 14.7023 13.4536 14.7023 14.2936C14.7023 15.1536 15.0823 15.8436 15.8123 15.8436Z" />
        </svg>
    