
        <svg xmlns="http://www.w3.org/2000/svg" viewBox="0 0 100 100">
            <path d="M4.5917 23.2359H18.6417C21.5417 23.2359 23.2417 21.5459 23.2417 18.6459V4.5959C23.2417 1.6959 21.5417 -0.0041 18.6417 -0.0041H4.5917C1.7017 -0.0041 0.0017 1.6959 0.0017 4.5959V18.6459C0.0017 21.5459 1.7017 23.2359 4.5917 23.2359ZM5.2217 19.0759C4.5117 19.0759 4.1617 18.7859 4.1617 18.0159V5.2359C4.1617 4.4659 4.5117 4.1759 5.2217 4.1759H18.0117C18.7217 4.1759 19.0817 4.4659 19.0817 5.2359V18.0159C19.0817 18.7859 18.7217 19.0759 18.0117 19.0759ZM15.0217 16.2159C16.6417 16.2159 17.9717 15.3359 17.9717 13.6359C17.9717 12.5659 17.3717 11.6359 16.3617 11.4259V11.3759C17.2017 11.1259 17.7617 10.3559 17.7617 9.4359C17.7617 7.9759 16.6017 7.0559 15.0217 7.0559C13.5717 7.0559 12.3017 7.8559 12.3017 9.4359C12.3017 10.4859 12.9717 11.1559 13.7017 11.3759V11.4259C12.7717 11.6159 12.0717 12.5359 12.0717 13.6259C12.0717 15.2359 13.3117 16.2159 15.0217 16.2159ZM9.2817 16.1459C9.8717 16.1459 10.3317 15.8359 10.3317 15.0559V14.5159H10.4217C11.0817 14.5159 11.2617 14.0959 11.2617 13.6359C11.2617 13.0859 11.0017 12.7759 10.4417 12.7759H10.3317V8.7559C10.3317 7.7259 9.6517 7.1459 8.6217 7.1459C7.1817 7.1459 6.7817 8.2259 6.4017 9.3359L5.4717 11.9159C5.3017 12.3859 5.2017 12.8659 5.2017 13.2959C5.2017 14.1059 5.6417 14.5159 6.4817 14.5159H8.2117V15.0559C8.2117 15.8059 8.6917 16.1459 9.2817 16.1459ZM15.0217 10.7459C14.6917 10.7459 14.4817 10.3159 14.4817 9.6659C14.4817 9.0259 14.6917 8.6059 15.0217 8.6059C15.3917 8.6059 15.5817 9.0259 15.5817 9.6659C15.5817 10.3259 15.3917 10.7459 15.0217 10.7459ZM8.2817 12.8459H7.0117V12.7459L8.2417 8.8559H8.2817ZM15.0217 14.6559C14.6517 14.6559 14.4217 14.1959 14.4217 13.4659C14.4217 12.7659 14.6517 12.2959 15.0217 12.2959C15.4117 12.2959 15.6417 12.7659 15.6417 13.4659C15.6417 14.1959 15.4117 14.6559 15.0217 14.6559Z" />
        </svg>
    