
        <svg xmlns="http://www.w3.org/2000/svg" viewBox="0 0 100 100">
            <path d="M12.7923 25.5978C19.8723 25.5978 25.6023 19.8678 25.6023 12.7978C25.6023 5.7278 19.8723 -0.0022 12.7923 -0.0022C5.7323 -0.0022 0.0023 5.7278 0.0023 12.7978C0.0023 19.8678 5.7323 25.5978 12.7923 25.5978ZM12.7923 21.4178C8.0323 21.4178 4.1723 17.5678 4.1723 12.7978C4.1723 8.0278 8.0323 4.1678 12.7923 4.1678C17.5623 4.1678 21.4323 8.0278 21.4323 12.7978C21.4323 17.5678 17.5623 21.4178 12.7923 21.4178ZM15.3023 14.0878C16.1723 14.0878 16.6723 13.4378 16.8623 12.6878H16.8723V13.3378C16.8723 14.8678 16.6023 15.6678 16.1123 15.6678C15.8623 15.6678 15.7223 15.5378 15.5523 15.1878C15.3323 14.7578 15.0423 14.5778 14.6023 14.5778C13.9323 14.5778 13.7023 15.0278 13.7023 15.4878C13.7023 15.6178 13.7123 15.8178 13.7623 15.9578C14.0523 16.9578 14.9723 17.3978 16.0223 17.3978C18.3323 17.3978 19.0123 15.0778 19.0123 12.7778C19.0123 10.8078 18.3823 8.2178 16.0523 8.2178C14.3123 8.2178 13.3923 9.6578 13.3923 11.3178C13.3923 12.7178 13.9423 14.0878 15.3023 14.0878ZM10.5123 17.3178C11.1123 17.3178 11.5823 17.0078 11.5823 16.2278V15.6878H11.6623C12.3323 15.6878 12.5023 15.2678 12.5023 14.8078C12.5023 14.2578 12.2423 13.9478 11.6723 13.9478H11.5823V9.9278C11.5823 8.8978 10.9023 8.3178 9.8623 8.3178C8.4223 8.3178 8.0123 9.3978 7.6323 10.5078L6.7123 13.0878C6.5423 13.5578 6.4323 14.0378 6.4323 14.4678C6.4323 15.2778 6.8823 15.6878 7.7223 15.6878H9.4523V16.2278C9.4523 16.9778 9.9423 17.3178 10.5123 17.3178ZM16.1023 12.5178C15.7123 12.5178 15.5123 12.0378 15.5123 11.2378C15.5123 10.4578 15.7223 9.9678 16.1023 9.9678C16.4723 9.9678 16.6723 10.4678 16.6723 11.2878C16.6723 12.0478 16.4723 12.5178 16.1023 12.5178ZM9.5323 14.0178H8.2523V13.9178L9.4823 10.0278H9.5323Z" />
        </svg>
    