
        <svg xmlns="http://www.w3.org/2000/svg" viewBox="0 0 100 100">
            <path d="M12.1023 24.2064C18.7823 24.2064 24.2123 18.7864 24.2123 12.1064C24.2123 5.4264 18.7823 -0.0036 12.1023 -0.0036C5.4223 -0.0036 0.0023 5.4264 0.0023 12.1064C0.0023 18.7864 5.4223 24.2064 12.1023 24.2064ZM15.0223 13.5964C13.4523 13.5964 12.7023 12.0564 12.7023 10.4564C12.7023 8.5764 13.7623 7.0264 15.6023 7.0264C18.0623 7.0264 18.7823 9.7664 18.7823 12.0264C18.7823 14.4964 18.0623 17.1864 15.5823 17.1864C14.3923 17.1864 13.3523 16.5964 13.0623 15.5264C13.0323 15.3864 13.0123 15.2264 13.0123 15.0864C13.0123 14.6764 13.2323 14.2964 13.7723 14.2964C14.1523 14.2964 14.4123 14.4564 14.5923 14.8664C14.8123 15.3664 15.1423 15.6864 15.6223 15.6864C16.8323 15.6864 17.0023 13.5664 17.0023 12.1764V11.9364H16.9723C16.7123 12.9264 16.0123 13.5964 15.0223 13.5964ZM9.5723 17.1164C9.1423 17.1164 8.6723 16.8664 8.6723 16.1964V15.1064H6.1323C5.4723 15.1064 5.0623 14.6964 5.0623 14.0664C5.0623 13.6764 5.1323 13.3264 5.3323 12.8464L7.2823 8.5064C7.6323 7.6764 8.0423 7.1164 9.0123 7.1164C9.8823 7.1164 10.4523 7.5964 10.4523 8.4964V13.6164H10.8323C11.3323 13.6164 11.5523 13.9364 11.5523 14.3564C11.5523 14.7764 11.3323 15.1064 10.8123 15.1064H10.4523V16.1964C10.4523 16.8264 10.0523 17.1164 9.5723 17.1164ZM15.6323 12.1864C16.4223 12.1864 16.7823 11.2964 16.7823 10.3864C16.7823 9.4764 16.4423 8.5264 15.6323 8.5264C14.8623 8.5264 14.4923 9.4664 14.4923 10.3864C14.4923 11.2464 14.8223 12.1864 15.6323 12.1864ZM8.7223 13.6564V8.6864H8.6723L6.6323 13.5864V13.6564Z" />
        </svg>
    