
        <svg xmlns="http://www.w3.org/2000/svg" viewBox="0 0 100 100">
            <path d="M12.3723 24.7459C19.2023 24.7459 24.7523 19.2059 24.7523 12.3759C24.7523 5.5459 19.2023 -0.0041 12.3723 -0.0041C5.5423 -0.0041 0.0023 5.5459 0.0023 12.3759C0.0023 19.2059 5.5423 24.7459 12.3723 24.7459ZM12.3723 21.6659C7.2423 21.6659 3.0823 17.5059 3.0823 12.3759C3.0823 7.2259 7.2423 3.0859 12.3723 3.0859C17.5223 3.0859 21.6723 7.2259 21.6723 12.3759C21.6723 17.5059 17.5223 21.6659 12.3723 21.6659ZM9.5023 17.0859C10.0223 17.0859 10.4323 16.7959 10.4323 16.1259V15.2659H10.6923C11.2423 15.2659 11.4423 14.9059 11.4423 14.4859C11.4423 14.0159 11.2023 13.7059 10.6923 13.7059H10.4323V9.1259C10.4323 8.2059 9.8323 7.6959 8.9323 7.6959C7.7923 7.6959 7.3923 8.4459 7.0423 9.3659L5.5323 12.9259C5.3523 13.3959 5.2623 13.7859 5.2623 14.1759C5.2623 14.8559 5.6823 15.2659 6.3823 15.2659H8.5623V16.1259C8.5623 16.8059 9.0223 17.0859 9.5023 17.0859ZM13.3023 17.0859C13.8623 17.0859 14.1823 16.7859 14.2823 16.1759L14.5223 15.0459H16.6923L16.9423 16.1959C17.0623 16.8259 17.4123 17.0859 17.9523 17.0859C18.5023 17.0859 18.8623 16.6759 18.8623 16.1359C18.8623 15.9559 18.8323 15.6659 18.7823 15.4959L17.1423 8.9059C16.9423 8.0159 16.3523 7.6959 15.5823 7.6959C14.8323 7.6959 14.2723 8.0459 14.0823 8.9059L12.4523 15.5059C12.4223 15.6459 12.3623 15.9759 12.3623 16.1359C12.3623 16.6959 12.7023 17.0859 13.3023 17.0859ZM8.6123 13.7559H6.8923V13.6759L8.5823 9.2959H8.6123ZM14.8123 13.5659L15.5423 9.9359H15.6223L16.3823 13.5659Z" />
        </svg>
    