
        <svg xmlns="http://www.w3.org/2000/svg" viewBox="0 0 100 100">
            <path d="M12.1023 24.2064C18.7823 24.2064 24.2123 18.7864 24.2123 12.1064C24.2123 5.4264 18.7823 -0.0036 12.1023 -0.0036C5.4223 -0.0036 0.0023 5.4264 0.0023 12.1064C0.0023 18.7864 5.4223 24.2064 12.1023 24.2064ZM12.1023 21.8164C6.7223 21.8164 2.3823 17.4864 2.3823 12.1064C2.3823 6.7264 6.7223 2.3764 12.1023 2.3764C17.4823 2.3764 21.8323 6.7264 21.8323 12.1064C21.8323 17.4864 17.4823 21.8164 12.1023 21.8164ZM13.1623 16.9264C13.6523 16.9264 14.0623 16.5264 14.0623 16.0064V12.7764H16.7023V16.0064C16.7023 16.5264 17.1123 16.9264 17.6123 16.9264C18.1123 16.9264 18.5123 16.5264 18.5123 16.0064V8.1764C18.5123 7.6864 18.1123 7.2764 17.6123 7.2764C17.1123 7.2764 16.7023 7.6864 16.7023 8.1764V11.2764H14.0623V8.1764C14.0623 7.6864 13.6523 7.2764 13.1623 7.2764C12.6523 7.2764 12.2423 7.6864 12.2423 8.1764V16.0064C12.2423 16.5264 12.6523 16.9264 13.1623 16.9264ZM8.9923 16.9364C9.4523 16.9364 9.8323 16.6564 9.8323 16.0464V14.9864H10.1923C10.6923 14.9864 10.8823 14.6764 10.8823 14.2764C10.8823 13.8664 10.6723 13.5564 10.1923 13.5564H9.8323V8.6164C9.8323 7.7664 9.2823 7.2964 8.4623 7.2964C7.5223 7.2964 7.1323 7.8364 6.7923 8.6364L4.9123 12.8164C4.7223 13.2764 4.6523 13.6164 4.6523 13.9964C4.6523 14.6064 5.0523 14.9864 5.6723 14.9864H8.1323V16.0464C8.1323 16.6864 8.5823 16.9364 8.9923 16.9364ZM8.1723 13.6064H6.1623V13.5264L8.1323 8.8164H8.1723Z" />
        </svg>
    