
        <svg xmlns="http://www.w3.org/2000/svg" viewBox="0 0 100 100">
            <path d="M12.2223 24.4436C18.9723 24.4436 24.4423 18.9636 24.4423 12.2236C24.4423 5.4736 18.9723 0.0036 12.2223 0.0036C5.4823 0.0036 0.0023 5.4736 0.0023 12.2236C0.0023 18.9636 5.4823 24.4436 12.2223 24.4436ZM13.3823 17.2036C12.8223 17.2036 12.3823 16.7736 12.3823 16.1936V8.2236C12.3823 7.6636 12.8223 7.2436 13.3823 7.2436C13.9423 7.2436 14.3623 7.6636 14.3623 8.2236V11.3336H16.9223V8.2236C16.9223 7.6636 17.3523 7.2436 17.9223 7.2436C18.4723 7.2436 18.9023 7.6636 18.9023 8.2236V16.1936C18.9023 16.7736 18.4723 17.2036 17.9223 17.2036C17.3523 17.2036 16.9223 16.7736 16.9223 16.1936V12.9736H14.3623V16.1936C14.3623 16.7736 13.9423 17.2036 13.3823 17.2036ZM9.0323 17.2136C8.5623 17.2136 8.0823 16.9436 8.0823 16.2536V15.2436H5.6623C4.9523 15.2436 4.5323 14.8236 4.5323 14.1536C4.5323 13.7436 4.6123 13.3736 4.8123 12.8936L6.6023 8.8136C6.9623 7.9236 7.3823 7.2536 8.4523 7.2536C9.3523 7.2536 9.9623 7.7736 9.9623 8.6936V13.6836H10.2823C10.8123 13.6836 11.0423 14.0036 11.0423 14.4636C11.0423 14.8936 10.8123 15.2436 10.2823 15.2436H9.9623V16.2536C9.9623 16.9136 9.5423 17.2136 9.0323 17.2136ZM8.1323 13.7336V8.8836H8.0823L6.1723 13.6536V13.7336Z" />
        </svg>
    