
        <svg xmlns="http://www.w3.org/2000/svg" viewBox="0 0 100 100">
            <path d="M2.3817 18.3719H25.1617C26.6717 18.3719 27.5417 17.5119 27.5417 15.9919V2.3819C27.5417 0.8719 26.6717 0.0019 25.1617 0.0019H2.3817C0.8717 0.0019 0.0017 0.8719 0.0017 2.3819V15.9919C0.0017 17.5119 0.8717 18.3719 2.3817 18.3719ZM2.4217 17.5119C1.4317 17.5119 0.8717 16.9619 0.8717 15.9619V2.4119C0.8717 1.4219 1.4317 0.8719 2.4217 0.8719H25.1217C26.1117 0.8719 26.6717 1.4219 26.6717 2.4119V15.9619C26.6717 16.9619 26.1117 17.5119 25.1217 17.5119ZM10.9617 14.0519C11.1917 14.0519 11.3817 13.8519 11.3817 13.5919V11.7419H12.0917C12.3417 11.7419 12.4817 11.5819 12.4817 11.3419C12.4817 11.1219 12.3317 10.9719 12.0917 10.9719H11.3817V5.0019C11.3817 4.5019 11.0517 4.3019 10.7017 4.3019C10.2517 4.3019 10.0417 4.5619 9.8417 4.9719L7.0517 10.5319C6.9517 10.7819 6.9017 10.9719 6.9017 11.1719C6.9017 11.5119 7.1217 11.7419 7.4917 11.7419H10.5117V13.5919C10.5117 13.8819 10.7117 14.0519 10.9617 14.0519ZM14.5917 14.0719C14.8717 14.0719 15.0617 13.8619 15.0617 13.6019V10.8119L16.0117 9.4019L18.6717 13.7319C18.8017 13.9419 18.9017 14.0619 19.1517 14.0619C19.3917 14.0619 19.5617 13.8819 19.5617 13.6319C19.5617 13.5019 19.5217 13.4219 19.4417 13.2819L16.6217 8.6919L19.0817 5.1519C19.1517 5.0519 19.2217 4.9319 19.2217 4.7919C19.2217 4.5619 19.0617 4.3719 18.8117 4.3719C18.6017 4.3719 18.4817 4.4719 18.3917 4.6319L15.0917 9.4619H15.0517V4.8119C15.0517 4.5719 14.8617 4.3619 14.5917 4.3619C14.3217 4.3619 14.1317 4.5619 14.1317 4.8119V13.6019C14.1317 13.8719 14.3317 14.0719 14.5917 14.0719ZM10.5117 10.9819H7.7217V10.9319L10.4717 5.2819H10.5117ZM8.1717 21.4219H19.3717C19.6217 21.4219 19.8117 21.2319 19.8117 20.9919C19.8117 20.7319 19.6217 20.5419 19.3717 20.5419H8.1717C7.9217 20.5419 7.7217 20.7319 7.7217 20.9919C7.7217 21.2319 7.9217 21.4219 8.1717 21.4219Z" />
        </svg>
    