
        <svg xmlns="http://www.w3.org/2000/svg" viewBox="0 0 100 100">
            <path d="M12.7923 25.5978C19.8723 25.5978 25.6023 19.8678 25.6023 12.7978C25.6023 5.7278 19.8723 -0.0022 12.7923 -0.0022C5.7323 -0.0022 0.0023 5.7278 0.0023 12.7978C0.0023 19.8678 5.7323 25.5978 12.7923 25.5978ZM15.0623 17.5278C14.2823 17.5278 13.8623 17.0278 13.8623 16.2378V9.2578C13.8623 8.4578 14.2723 7.9678 15.0723 7.9678C15.8923 7.9678 16.3023 8.4478 16.3023 9.2578V15.5478H17.7923C18.4023 15.5478 18.8323 15.8978 18.8323 16.5378C18.8323 17.2378 18.3123 17.5278 17.7923 17.5278ZM10.6323 17.6578C9.9923 17.6578 9.4923 17.2978 9.4923 16.4978V15.9278H7.6323C6.7023 15.9278 6.2323 15.4678 6.2323 14.5978C6.2323 14.1478 6.3523 13.6178 6.5323 13.1178L7.5223 10.3378C7.9423 9.1378 8.3823 7.9678 9.9223 7.9678C11.0523 7.9678 11.7823 8.5878 11.7823 9.7178V14.0278H11.8823C12.4923 14.0278 12.7723 14.3778 12.7723 14.9778C12.7723 15.4578 12.5723 15.9278 11.8723 15.9278H11.7823V16.4978C11.7823 17.3278 11.2723 17.6578 10.6323 17.6578ZM9.5623 14.0978V9.8078H9.5123L8.1823 14.0178V14.0978Z" />
        </svg>
    