
        <svg xmlns="http://www.w3.org/2000/svg" viewBox="0 0 100 100">
            <path d="M11.9523 23.9041C18.5523 23.9041 23.9023 18.5541 23.9023 11.9541C23.9023 5.3541 18.5523 0.0041 11.9523 0.0041C5.3523 0.0041 0.0023 5.3541 0.0023 11.9541C0.0023 18.5541 5.3523 23.9041 11.9523 23.9041ZM11.9523 21.9141C6.4423 21.9141 1.9923 17.4641 1.9923 11.9541C1.9923 6.4441 6.4423 1.9941 11.9523 1.9941C17.4623 1.9941 21.9123 6.4441 21.9123 11.9541C21.9123 17.4641 17.4623 21.9141 11.9523 21.9141ZM11.8723 17.5341C14.2523 17.5341 15.8823 16.0441 15.8823 13.7841C15.8823 11.7041 14.3923 10.2641 12.2423 10.2641C11.2923 10.2641 10.3123 10.6841 9.8923 11.2741H9.8123L10.0923 8.0841H14.7623C15.1623 8.0841 15.4523 7.7841 15.4523 7.3641C15.4523 6.9341 15.1723 6.6441 14.7623 6.6441H9.9123C9.1523 6.6441 8.6523 7.0641 8.6023 7.7441L8.2723 11.6441C8.2223 12.3141 8.6223 12.7641 9.2723 12.7641C9.7023 12.7641 9.9623 12.6641 10.4323 12.3141C10.9923 11.8341 11.4423 11.6641 12.0323 11.6641C13.2823 11.6641 14.1123 12.5241 14.1123 13.8141C14.1123 15.1041 13.1323 16.0641 11.8323 16.0641C10.8723 16.0641 10.0523 15.5841 9.6723 14.8141C9.4523 14.4341 9.1723 14.2541 8.8323 14.2541C8.3623 14.2541 8.0523 14.5741 8.0523 15.0241C8.0523 15.2241 8.1023 15.4141 8.1723 15.5841C8.6323 16.7841 9.9923 17.5341 11.8723 17.5341Z" />
        </svg>
    