
        <svg xmlns="http://www.w3.org/2000/svg" viewBox="0 0 100 100">
            <path d="M11.7523 23.5048C18.2423 23.5048 23.5123 18.2448 23.5123 11.7548C23.5123 5.2648 18.2423 0.0048 11.7523 0.0048C5.2623 0.0048 0.0023 5.2648 0.0023 11.7548C0.0023 18.2448 5.2623 23.5048 11.7523 23.5048ZM11.7523 21.9848C6.0923 21.9848 1.5223 17.4148 1.5223 11.7548C1.5223 6.0948 6.0923 1.5148 11.7523 1.5148C17.4123 1.5148 21.9923 6.0948 21.9923 11.7548C21.9923 17.4148 17.4123 21.9848 11.7523 21.9848ZM11.6823 17.2348C13.9723 17.2348 15.5423 15.7848 15.5423 13.5948C15.5423 11.5648 14.0823 10.1448 12.0123 10.1448C11.0523 10.1448 10.0623 10.5848 9.5823 11.2348H9.5123L9.8223 7.6548H14.5823C14.9023 7.6548 15.1423 7.4048 15.1423 7.0648C15.1423 6.7348 14.9023 6.4948 14.5823 6.4948H9.6423C9.0623 6.4948 8.6723 6.8248 8.6223 7.3748L8.2823 11.6148C8.2523 12.1248 8.5523 12.4848 9.0623 12.4848C9.4123 12.4848 9.6123 12.3948 9.9523 12.1248C10.5923 11.4948 11.1223 11.2748 11.8523 11.2748C13.2223 11.2748 14.1423 12.2248 14.1423 13.6148C14.1423 15.0248 13.1023 16.0648 11.6923 16.0648C10.6023 16.0648 9.6823 15.5048 9.3423 14.6448C9.1923 14.3348 8.9623 14.1748 8.6823 14.1748C8.3223 14.1748 8.0723 14.4348 8.0723 14.7848C8.0723 14.9448 8.1123 15.0948 8.1523 15.2248C8.5823 16.4448 9.8823 17.2348 11.6823 17.2348Z" />
        </svg>
    