
        <svg xmlns="http://www.w3.org/2000/svg" viewBox="0 0 100 100">
            <path d="M12.7923 25.5978C19.8723 25.5978 25.6023 19.8678 25.6023 12.7978C25.6023 5.7278 19.8723 -0.0022 12.7923 -0.0022C5.7323 -0.0022 0.0023 5.7278 0.0023 12.7978C0.0023 19.8678 5.7323 25.5978 12.7923 25.5978ZM12.7623 18.5578C10.3823 18.5578 8.8023 17.8578 8.3223 16.7478C8.2223 16.5078 8.1823 16.2778 8.1823 16.0078C8.1823 15.1378 8.7923 14.5778 9.8623 14.5778C10.6723 14.5778 11.0523 14.7978 11.3623 15.0278C11.7223 15.2978 12.0223 15.5278 12.6523 15.5278C13.2923 15.5278 13.7723 15.0678 13.7723 14.4978C13.7723 13.8778 13.3623 13.4678 12.7523 13.4678C12.3423 13.4678 12.0723 13.6078 11.7423 13.7478C11.3823 13.9178 10.9823 14.0778 10.2923 14.0778C8.8323 14.0778 8.1223 13.3778 8.2023 12.0678L8.3823 9.2078C8.4423 8.1178 9.2023 7.3478 10.3123 7.3478H15.5423C16.6323 7.3478 17.2123 7.8378 17.2123 8.7578C17.2123 9.6578 16.5823 10.1878 15.5423 10.1878H11.5223L11.3923 11.9078H11.5923C11.9523 11.2278 12.9423 10.7978 14.0623 10.7978C16.2923 10.7978 17.7223 12.1778 17.7223 14.3678C17.7223 16.9578 15.8323 18.5578 12.7623 18.5578Z" />
        </svg>
    