
        <svg xmlns="http://www.w3.org/2000/svg" viewBox="0 0 100 100">
            <path d="M0.0017 17.093C0.0017 17.733 0.5117 18.243 1.1517 18.243C1.7817 18.243 2.3017 17.733 2.3017 17.093V1.153C2.3017 0.513 1.7817 0.003 1.1517 0.003C0.5117 0.003 0.0017 0.513 0.0017 1.153ZM19.5817 17.093C19.5817 17.733 20.1017 18.243 20.7317 18.243C21.3517 18.243 21.8817 17.733 21.8817 17.093V1.153C21.8817 0.513 21.3517 0.003 20.7317 0.003C20.1017 0.003 19.5817 0.513 19.5817 1.153ZM10.9917 14.593C13.0917 14.593 14.3917 13.063 14.3917 10.973C14.3917 9.203 13.4017 7.673 11.6617 7.673C10.7917 7.673 10.0517 8.073 9.7017 8.763H9.6417L9.8717 5.883H13.1517C13.6417 5.883 13.9417 5.553 13.9417 5.073C13.9417 4.583 13.6417 4.263 13.1517 4.263H9.3017C8.5817 4.263 8.2417 4.663 8.2017 5.393L7.9417 9.163C7.9017 9.773 8.2217 10.253 8.8617 10.253C9.2917 10.253 9.5017 10.103 9.7717 9.773C10.0817 9.373 10.4917 9.113 10.9917 9.113C11.9717 9.113 12.4417 10.033 12.4417 11.013C12.4417 12.093 11.9317 12.993 10.9817 12.993C10.2417 12.993 9.7517 12.513 9.5017 11.883C9.3017 11.483 9.0117 11.283 8.6417 11.283C8.1317 11.283 7.8117 11.603 7.8117 12.103C7.8117 12.343 7.8917 12.573 8.0017 12.763C8.3917 13.923 9.7717 14.593 10.9917 14.593Z" />
        </svg>
    