
        <svg xmlns="http://www.w3.org/2000/svg" viewBox="0 0 100 100">
            <path d="M4.5917 23.2359H18.6417C21.5417 23.2359 23.2417 21.5459 23.2417 18.6459V4.5959C23.2417 1.6959 21.5417 -0.0041 18.6417 -0.0041H4.5917C1.7017 -0.0041 0.0017 1.6959 0.0017 4.5959V18.6459C0.0017 21.5459 1.7017 23.2359 4.5917 23.2359ZM11.7317 17.3859C9.3417 17.3859 7.7717 16.6859 7.2917 15.5759C7.1917 15.3359 7.1517 15.1059 7.1517 14.8359C7.1517 13.9659 7.7617 13.4059 8.8317 13.4059C9.6317 13.4059 10.0217 13.6259 10.3217 13.8559C10.6717 14.1259 10.9917 14.3559 11.6117 14.3559C12.2617 14.3559 12.7217 13.8959 12.7217 13.3259C12.7217 12.7059 12.3317 12.2959 11.7217 12.2959C11.3017 12.2959 11.0417 12.4359 10.7117 12.5759C10.3517 12.7459 9.9517 12.9059 9.2617 12.9059C7.7917 12.9059 7.0817 12.2059 7.1717 10.8959L7.3517 8.0359C7.4017 6.9459 8.1517 6.1759 9.2817 6.1759H14.5117C15.5817 6.1759 16.1717 6.6659 16.1717 7.5859C16.1717 8.4859 15.5417 9.0159 14.5117 9.0159H10.4917L10.3517 10.7359H10.5517C10.9117 10.0559 11.9017 9.6259 13.0317 9.6259C15.2417 9.6259 16.6717 11.0059 16.6717 13.1959C16.6717 15.7859 14.7917 17.3859 11.7317 17.3859Z" />
        </svg>
    