
        <svg xmlns="http://www.w3.org/2000/svg" viewBox="0 0 100 100">
            <path d="M3.8417 21.8745H18.0317C20.5617 21.8745 21.8817 20.5745 21.8817 18.0745V3.8045C21.8817 1.3145 20.5617 0.0045 18.0317 0.0045H3.8417C1.3117 0.0045 0.0017 1.3045 0.0017 3.8045V18.0745C0.0017 20.5745 1.3117 21.8745 3.8417 21.8745ZM10.9017 16.6845C8.8917 16.6845 7.4517 15.9245 6.9717 14.7145C6.8917 14.5145 6.8417 14.3345 6.8417 14.0945C6.8417 13.5545 7.2217 13.1845 7.8117 13.1845C8.2517 13.1845 8.5517 13.3945 8.7917 13.7445C9.1717 14.4445 9.9217 14.8945 10.8617 14.8945C12.0617 14.8945 12.9717 14.0045 12.9717 12.8045C12.9717 11.6045 12.2017 10.8045 11.0417 10.8045C10.4617 10.8045 10.0317 10.9845 9.5017 11.4145C9.0517 11.7345 8.7517 11.8445 8.2617 11.8445C7.4417 11.8445 6.9817 11.3545 7.0417 10.5345L7.3517 6.7245C7.3917 5.9545 7.9617 5.4445 8.8117 5.4445H13.8517C14.3917 5.4445 14.7417 5.7845 14.7417 6.3245C14.7417 6.8445 14.3817 7.1945 13.8517 7.1945H9.1617L8.9217 10.1845H9.0217C9.4417 9.5745 10.4517 9.1445 11.4617 9.1445C13.6717 9.1445 15.1917 10.6045 15.1917 12.7645C15.1917 15.1445 13.4617 16.6845 10.9017 16.6845Z" />
        </svg>
    