
        <svg xmlns="http://www.w3.org/2000/svg" viewBox="0 0 100 100">
            <path d="M12.2223 24.4436C18.9723 24.4436 24.4423 18.9736 24.4423 12.2236C24.4423 5.4736 18.9723 0.0036 12.2223 0.0036C5.4723 0.0036 0.0023 5.4736 0.0023 12.2236C0.0023 18.9736 5.4723 24.4436 12.2223 24.4436ZM12.2223 21.7636C6.9523 21.7636 2.6823 17.4936 2.6823 12.2236C2.6823 6.9536 6.9523 2.6836 12.2223 2.6836C17.4923 2.6836 21.7623 6.9536 21.7623 12.2236C21.7623 17.4936 17.4923 21.7636 12.2223 21.7636ZM15.7523 17.0936C18.0623 17.0936 18.7623 14.5436 18.7623 12.2336C18.7623 9.9336 18.0623 7.3836 15.7523 7.3836C13.4323 7.3836 12.7423 9.9336 12.7423 12.2336C12.7423 14.5436 13.4323 17.0936 15.7523 17.0936ZM8.7323 17.0936C10.5423 17.0936 11.5123 15.5936 11.5123 13.7536C11.5123 12.2336 10.8423 10.7436 9.3523 10.7436C8.6223 10.7436 8.0623 11.1236 7.8023 11.7236H7.7623L7.9223 9.1136H10.4623C10.9223 9.1136 11.1723 8.8036 11.1723 8.3836C11.1723 7.9436 10.9023 7.6336 10.4623 7.6336H7.3523C6.7123 7.6336 6.4323 8.0436 6.3823 8.6736L6.2323 11.6936C6.2223 11.8436 6.2123 12.0436 6.2123 12.1836C6.2123 12.7036 6.4823 13.1136 7.0423 13.1136C7.3923 13.1136 7.5823 12.9936 7.8123 12.6636C8.0423 12.3236 8.2923 12.0536 8.7023 12.0536C9.4423 12.0536 9.7223 13.0236 9.7223 13.8036C9.7223 14.6436 9.4523 15.6136 8.6923 15.6136C8.1323 15.6136 7.8323 15.1836 7.6423 14.6436C7.5023 14.2536 7.2023 14.0536 6.8523 14.0536C6.4023 14.0536 6.1023 14.3436 6.1023 14.8136C6.1023 15.0536 6.1623 15.2936 6.2423 15.5136C6.6123 16.4436 7.6323 17.0936 8.7323 17.0936ZM15.7523 15.5836C14.9323 15.5836 14.6223 14.2036 14.6223 12.2336C14.6223 10.2736 14.9323 8.8936 15.7523 8.8936C16.5623 8.8936 16.8623 10.2736 16.8623 12.2336C16.8623 14.2036 16.5623 15.5836 15.7523 15.5836Z" />
        </svg>
    