
        <svg xmlns="http://www.w3.org/2000/svg" viewBox="0 0 100 100">
            <path d="M3.9717 22.1117H18.1317C20.7317 22.1117 22.1017 20.7417 22.1017 18.1717V3.9417C22.1017 1.3717 20.7317 0.0017 18.1317 0.0017H3.9717C1.3817 0.0017 0.0017 1.3717 0.0017 3.9417V18.1717C0.0017 20.7417 1.3817 22.1117 3.9717 22.1117ZM14.7817 16.1317C12.3617 16.1317 11.6417 13.4717 11.6417 11.0617C11.6417 8.6517 12.3617 5.9917 14.7817 5.9917C17.2017 5.9917 17.9417 8.6517 17.9417 11.0617C17.9417 13.4717 17.2017 16.1317 14.7817 16.1317ZM7.4517 16.1317C6.3017 16.1317 5.2417 15.4617 4.8517 14.4817C4.7617 14.2617 4.7017 14.0117 4.7017 13.7617C4.7017 13.2617 5.0017 12.9617 5.4917 12.9617C5.8617 12.9617 6.1617 13.1717 6.3117 13.5917C6.5017 14.1417 6.8317 14.5817 7.4217 14.5817C8.2017 14.5817 8.4717 13.5717 8.4717 12.7017C8.4717 11.8817 8.2017 10.8817 7.4217 10.8817C6.9917 10.8817 6.7217 11.1717 6.4917 11.5117C6.2417 11.8617 6.0617 11.9717 5.6917 11.9717C5.1017 11.9717 4.8117 11.5517 4.8117 11.0017C4.8117 10.8617 4.8317 10.6517 4.8417 10.5017L4.9917 7.3517C5.0417 6.6917 5.3417 6.2417 6.0017 6.2417H9.2617C9.7117 6.2417 10.0117 6.5717 10.0117 7.0317C10.0117 7.4917 9.7417 7.8317 9.2617 7.8317H6.6017L6.4317 10.5317H6.4917C6.7617 9.9017 7.3517 9.5017 8.1117 9.5017C9.6517 9.5017 10.3617 11.0617 10.3617 12.6517C10.3617 14.5617 9.3517 16.1317 7.4517 16.1317ZM14.7817 14.5517C15.6217 14.5517 15.9417 13.1217 15.9417 11.0617C15.9417 9.0117 15.6217 7.5817 14.7817 7.5817C13.9417 7.5817 13.6217 9.0117 13.6217 11.0617C13.6217 13.1217 13.9417 14.5517 14.7817 14.5517Z" />
        </svg>
    