
        <svg xmlns="http://www.w3.org/2000/svg" viewBox="0 0 100 100">
            <path d="M4.3817 22.8467H18.4717C21.2617 22.8467 22.8517 21.2667 22.8517 18.4767V4.3667C22.8517 1.5867 21.2617 -0.0033 18.4717 -0.0033H4.3817C1.5917 -0.0033 0.0017 1.5867 0.0017 4.3667V18.4767C0.0017 21.2667 1.5917 22.8467 4.3817 22.8467ZM4.8717 19.2267C4.0417 19.2267 3.6217 18.8567 3.6217 17.9767V4.8867C3.6217 4.0067 4.0417 3.6367 4.8717 3.6367H17.9717C18.8017 3.6367 19.2217 4.0067 19.2217 4.8867V17.9767C19.2217 18.8567 18.8017 19.2267 17.9717 19.2267ZM11.4517 16.8267C14.2617 16.8267 16.0817 15.1867 16.0817 12.9567C16.0817 11.0867 14.7917 9.6867 12.8417 9.6867C12.0317 9.6867 11.3817 9.9767 11.0417 10.2667L10.9017 10.2567C11.0817 9.9867 11.2417 9.7867 11.4517 9.5167C11.7417 9.1367 12.1917 8.5667 12.5317 8.1367C12.7417 7.8467 12.8417 7.5567 12.8417 7.2567C12.8317 6.6167 12.3417 6.0267 11.4717 6.0267C10.6317 6.0267 10.2417 6.4967 9.8317 6.9867C9.4217 7.4867 8.7317 8.3867 8.3817 8.8567C7.4217 10.0967 6.8017 11.4167 6.8017 12.7467C6.8017 15.2667 8.5817 16.8267 11.4517 16.8267ZM11.4517 14.4067C10.5617 14.4067 9.9017 13.8667 9.9017 13.1367C9.9017 12.4067 10.5617 11.8967 11.4517 11.8967C12.3617 11.8967 13.0217 12.4067 13.0217 13.1367C13.0217 13.8667 12.3617 14.4067 11.4517 14.4067Z" />
        </svg>
    