
        <svg xmlns="http://www.w3.org/2000/svg" viewBox="0 0 100 100">
            <path d="M12.6023 25.1986C19.5623 25.1986 25.2023 19.5586 25.2023 12.5986C25.2023 5.6386 19.5623 -0.0014 12.6023 -0.0014C5.6323 -0.0014 0.0023 5.6386 0.0023 12.5986C0.0023 19.5586 5.6323 25.1986 12.6023 25.1986ZM12.6023 21.5386C7.6523 21.5386 3.6523 17.5386 3.6523 12.5986C3.6523 7.6486 7.6523 3.6586 12.6023 3.6586C17.5423 3.6586 21.5423 7.6486 21.5423 12.5986C21.5423 17.5386 17.5423 21.5386 12.6023 21.5386ZM12.7123 17.9986C15.3523 17.9986 17.1223 16.5586 17.1223 14.2186C17.1223 12.2686 15.7223 11.0586 13.8523 11.0586C12.7023 11.0586 11.7623 11.6086 11.3423 12.3086H11.2423C11.2123 12.1686 11.2023 12.0386 11.2023 11.9086C11.2023 10.5486 11.8623 9.5886 12.9623 9.5886C13.5023 9.5886 13.8023 9.8086 14.1223 10.0386C14.4623 10.2686 14.7623 10.4786 15.3423 10.4786C16.0823 10.4786 16.5623 10.0386 16.5623 9.3886C16.5623 9.0786 16.4623 8.8086 16.2923 8.5386C15.8123 7.7386 14.5323 7.1986 12.9823 7.1986C9.8423 7.1986 7.9723 9.0986 7.9723 12.5786C7.9723 14.0186 8.2523 15.1786 8.8023 16.0386C9.6023 17.3186 10.9423 17.9986 12.7123 17.9986ZM12.5523 15.5986C11.7923 15.5986 11.2523 15.0586 11.2523 14.2886C11.2523 13.5486 11.7823 13.0086 12.5523 13.0086C13.3123 13.0086 13.8423 13.5386 13.8423 14.2986C13.8423 15.0686 13.3223 15.5986 12.5523 15.5986Z" />
        </svg>
    