
        <svg xmlns="http://www.w3.org/2000/svg" viewBox="0 0 100 100">
            <path d="M12.2223 24.4436C18.9723 24.4436 24.4423 18.9636 24.4423 12.2236C24.4423 5.4736 18.9723 0.0036 12.2223 0.0036C5.4823 0.0036 0.0023 5.4736 0.0023 12.2236C0.0023 18.9636 5.4823 24.4436 12.2223 24.4436ZM12.3323 17.9736C10.7223 17.9736 9.3423 17.3836 8.5323 16.0536C7.9923 15.2036 7.7023 13.9836 7.7023 12.3636C7.7023 8.4736 9.5623 6.4536 12.6323 6.4536C14.2223 6.4536 15.5623 7.1636 16.0123 8.0536C16.1223 8.2636 16.1823 8.4836 16.1823 8.7336C16.1823 9.2736 15.7723 9.6336 15.2123 9.6336C14.7223 9.6336 14.4423 9.4236 14.0623 9.0936C13.7223 8.7436 13.3123 8.4336 12.5723 8.4336C11.1323 8.4336 10.1823 9.7836 10.1823 11.8236C10.1823 11.9036 10.1823 11.9836 10.1923 12.0836H10.3023C10.7123 11.2536 11.6823 10.5336 13.1323 10.5336C15.0823 10.5336 16.7123 11.8236 16.7123 14.0236C16.7123 16.5036 14.9323 17.9736 12.3323 17.9736ZM12.2123 16.0536C13.3823 16.0536 14.1423 15.2836 14.1423 14.1136C14.1423 12.9936 13.3523 12.2136 12.2223 12.2136C11.0823 12.2136 10.2923 12.9936 10.2923 14.0936C10.2923 15.2336 11.1023 16.0536 12.2123 16.0536Z" />
        </svg>
    