
        <svg xmlns="http://www.w3.org/2000/svg" viewBox="0 0 100 100">
            <path d="M12.3723 24.7459C19.2023 24.7459 24.7523 19.2059 24.7523 12.3759C24.7523 5.5459 19.2023 -0.0041 12.3723 -0.0041C5.5423 -0.0041 0.0023 5.5459 0.0023 12.3759C0.0023 19.2059 5.5423 24.7459 12.3723 24.7459ZM12.4923 18.1359C10.7723 18.1359 9.3623 17.4859 8.5423 16.1459C7.9823 15.2559 7.6723 14.0259 7.6723 12.4459C7.6723 8.6259 9.6023 6.6059 12.7923 6.6059C14.4023 6.6059 15.7523 7.2659 16.2323 8.1459C16.3723 8.3759 16.4523 8.6259 16.4523 8.9059C16.4523 9.5159 15.9923 9.9259 15.3423 9.9259C14.8023 9.9259 14.4923 9.7059 14.1323 9.4059C13.7923 9.1059 13.4223 8.8359 12.7523 8.8359C11.4223 8.8359 10.5723 10.0459 10.5723 11.8359C10.5723 11.9459 10.5823 12.0459 10.5923 12.1659H10.7023C11.1323 11.3659 12.1123 10.7059 13.4723 10.7059C15.4423 10.7059 17.0023 11.9959 17.0023 14.1459C17.0023 16.6259 15.1723 18.1359 12.4923 18.1359ZM12.3523 15.9459C13.3723 15.9459 14.0523 15.2559 14.0523 14.2259C14.0523 13.2459 13.3623 12.5459 12.3523 12.5459C11.3523 12.5459 10.6523 13.2559 10.6523 14.2259C10.6523 15.2359 11.3523 15.9459 12.3523 15.9459Z" />
        </svg>
    