
        <svg xmlns="http://www.w3.org/2000/svg" viewBox="0 0 100 100">
            <path d="M4.3817 22.8467H18.4717C21.2617 22.8467 22.8517 21.2667 22.8517 18.4767V4.3667C22.8517 1.5867 21.2617 -0.0033 18.4717 -0.0033H4.3817C1.5917 -0.0033 0.0017 1.5867 0.0017 4.3667V18.4767C0.0017 21.2667 1.5917 22.8467 4.3817 22.8467ZM11.6617 17.1867C9.7717 17.1867 8.3317 16.4667 7.4917 15.1067C6.9017 14.1667 6.5817 12.9267 6.5817 11.3867C6.5817 7.6767 8.5917 5.6567 11.9617 5.6567C13.6017 5.6567 14.9617 6.2367 15.4917 7.0967C15.6717 7.3867 15.7717 7.6767 15.7717 8.0067C15.7717 8.6967 15.2617 9.1767 14.4617 9.1767C13.8517 9.1767 13.5217 8.9567 13.1617 8.7067C12.8217 8.4567 12.5017 8.2367 11.9217 8.2367C10.7717 8.2367 10.0617 9.2467 10.0617 10.6767C10.0617 10.8167 10.0817 10.9567 10.1017 11.1067H10.2217C10.6617 10.3567 11.6717 9.7967 12.8917 9.7967C14.8917 9.7967 16.3717 11.0867 16.3717 13.1467C16.3717 15.6467 14.4717 17.1867 11.6617 17.1867ZM11.4817 14.6167C12.3017 14.6167 12.8517 14.0467 12.8517 13.2267C12.8517 12.4367 12.2917 11.8667 11.4817 11.8667C10.6717 11.8667 10.1117 12.4467 10.1117 13.2267C10.1117 14.0367 10.6717 14.6167 11.4817 14.6167Z" />
        </svg>
    