
        <svg xmlns="http://www.w3.org/2000/svg" viewBox="0 0 100 100">
            <path d="M3.6817 21.5722H17.8917C20.3517 21.5722 21.5717 20.3722 21.5717 17.9522V3.6322C21.5717 1.2222 20.3517 0.0022 17.8917 0.0022H3.6817C1.2317 0.0022 0.0017 1.2222 0.0017 3.6322V17.9522C0.0017 20.3722 1.2317 21.5722 3.6817 21.5722ZM3.7017 19.6922C2.5317 19.6922 1.8917 19.0622 1.8917 17.8522V3.7422C1.8917 2.5222 2.5317 1.8822 3.7017 1.8822H17.8717C19.0317 1.8822 19.6917 2.5222 19.6917 3.7422V17.8522C19.6917 19.0622 19.0317 19.6922 17.8717 19.6922ZM10.8917 16.3622C13.2417 16.3622 14.9017 14.9922 14.9017 12.5822C14.9017 10.3622 13.2217 9.1122 11.3717 9.1122C9.8017 9.1122 8.8917 9.9122 8.5117 10.7622H8.4117V10.6422C8.4117 8.2422 9.5117 6.6922 11.1217 6.6922C11.9317 6.6922 12.4017 7.0522 12.7417 7.4622C13.1017 7.8422 13.3317 8.0422 13.7317 8.0422C14.1317 8.0422 14.4517 7.7622 14.4517 7.3522C14.4517 7.1622 14.4017 6.9922 14.3317 6.8322C13.9717 5.9622 12.7017 5.2022 11.1817 5.2022C8.4117 5.2022 6.6917 7.1322 6.6917 11.0422C6.6917 12.6522 6.9817 13.8322 7.4717 14.6122C8.2217 15.8522 9.5017 16.3622 10.8917 16.3622ZM10.8117 14.9522C9.5017 14.9522 8.5617 13.9922 8.5617 12.6522C8.5617 11.3622 9.4917 10.4522 10.8117 10.4522C12.1517 10.4522 13.0617 11.3522 13.0617 12.6722C13.0617 14.0522 12.1917 14.9522 10.8117 14.9522Z" />
        </svg>
    