
        <svg xmlns="http://www.w3.org/2000/svg" viewBox="0 0 100 100">
            <path d="M11.7523 25.7594C18.2423 25.7594 23.5123 20.4994 23.5123 14.0094C23.5123 8.2394 19.3523 3.4494 13.9123 2.4494V0.6794C13.9123 0.0094 13.4423 -0.1906 12.8923 0.1994L9.2423 2.7594C8.7923 3.0894 8.7923 3.5394 9.2423 3.8594L12.8923 6.4194C13.4423 6.7994 13.9123 6.6094 13.9123 5.9294V3.9994C18.5123 4.9894 21.9923 9.0794 21.9923 14.0094C21.9923 19.6694 17.4123 24.2394 11.7523 24.2394C6.0923 24.2394 1.5223 19.6694 1.5223 14.0094C1.5223 10.4494 3.3423 7.3194 6.0923 5.5094C6.4523 5.2394 6.5723 4.8094 6.3523 4.4494C6.1323 4.0794 5.6223 3.9794 5.2223 4.2694C2.0723 6.3694 0.0023 9.9294 0.0023 14.0094C0.0023 20.4994 5.2623 25.7594 11.7523 25.7594ZM15.5523 18.8394C17.8323 18.8394 18.6023 16.4094 18.6023 14.1694C18.6023 11.8994 17.8123 9.5094 15.5523 9.5094C13.2523 9.5094 12.4923 11.9294 12.4923 14.1694C12.4923 16.4494 13.2923 18.8394 15.5523 18.8394ZM8.2223 18.8594C9.9623 18.8594 11.1223 17.5094 11.1223 15.7194C11.1223 14.0794 10.1323 12.7894 8.5823 12.7894C7.4723 12.7894 6.6423 13.4694 6.3623 14.4494H6.3323C6.3323 13.5394 6.4023 12.8694 6.5523 12.3194C6.7923 11.4094 7.2923 10.5994 8.2423 10.5994C8.9323 10.5994 9.4223 10.9694 9.6923 11.5894C9.8323 11.8494 9.9923 12.0494 10.3023 12.0494C10.6723 12.0494 10.8523 11.7794 10.8523 11.4994C10.8523 11.3094 10.8023 11.1294 10.7223 10.9494C10.3523 10.0694 9.3723 9.5194 8.2623 9.5194C6.3123 9.5194 5.4823 11.2294 5.2623 13.0694C5.0523 14.1394 5.1023 15.4594 5.3623 16.3994C5.7823 17.7894 6.7423 18.8594 8.2223 18.8594ZM15.5523 17.7594C14.3223 17.7594 13.8023 16.0394 13.8023 14.1694C13.8023 12.2994 14.3223 10.5994 15.5523 10.5994C16.7823 10.5994 17.2823 12.3094 17.2823 14.1694C17.2823 16.0394 16.7923 17.7594 15.5523 17.7594ZM8.2123 17.7694C7.1723 17.7694 6.5523 16.7594 6.5523 15.7094C6.5523 14.6794 7.2323 13.8094 8.2123 13.8094C9.2423 13.8094 9.8523 14.7094 9.8523 15.7694C9.8523 16.8294 9.2223 17.7694 8.2123 17.7694Z" />
        </svg>
    