
        <svg xmlns="http://www.w3.org/2000/svg" viewBox="0 0 100 100">
            <path d="M12.1023 26.3881C18.7823 26.3881 24.2123 20.9681 24.2123 14.2881C24.2123 10.4281 22.3823 6.9781 19.4923 4.7481C18.8823 4.2281 18.0823 4.3581 17.7023 4.8881C17.2923 5.4581 17.4723 6.1381 18.0223 6.6081C20.3323 8.3781 21.8323 11.1381 21.8323 14.2881C21.8323 19.6681 17.4823 23.9981 12.1023 23.9981C6.7223 23.9981 2.3823 19.6681 2.3823 14.2881C2.3823 9.7181 5.5123 5.9281 9.7023 4.8781V6.3981C9.7023 7.2681 10.3623 7.4881 11.0023 7.0181L14.8023 4.2981C15.3123 3.9281 15.3323 3.3381 14.8023 2.9681L11.0123 0.2481C10.3623 -0.2319 9.7023 -0.0119 9.7023 0.8681V2.4281C4.1923 3.5181 0.0023 8.4181 0.0023 14.2881C0.0023 20.9681 5.4223 26.3881 12.1023 26.3881ZM15.9223 19.1081C18.2423 19.1081 19.0623 16.7881 19.0623 14.4581C19.0623 12.1381 18.2323 9.8381 15.9223 9.8381C13.6023 9.8381 12.7823 12.1581 12.7823 14.4581C12.7823 16.7981 13.6323 19.1081 15.9223 19.1081ZM8.5623 19.1181C10.2923 19.1181 11.5123 17.8381 11.5123 15.9881C11.5123 14.3681 10.6023 13.1281 9.0923 13.1281C8.0723 13.1281 7.3523 13.7281 7.0623 14.6281H7.0323C7.0323 13.8581 7.0823 13.2781 7.1823 12.7981C7.3723 12.0181 7.7423 11.2481 8.5423 11.2481C9.0823 11.2481 9.4323 11.5381 9.6823 11.9981C9.8623 12.3181 10.1023 12.5181 10.4723 12.5181C11.0023 12.5181 11.2023 12.1381 11.2023 11.7881C11.2023 11.5681 11.1523 11.3581 11.0623 11.1581C10.6923 10.3581 9.6923 9.8481 8.5823 9.8481C6.3123 9.8481 5.4923 11.9481 5.4123 14.0981C5.3323 15.0981 5.4523 16.1281 5.7323 16.9281C6.2023 18.2081 7.1223 19.1181 8.5623 19.1181ZM15.9223 17.6881C15.0323 17.6881 14.5823 16.3381 14.5823 14.4581C14.5823 12.5981 15.0323 11.2781 15.9223 11.2781C16.8323 11.2781 17.2823 12.5981 17.2823 14.4581C17.2823 16.3381 16.8323 17.6881 15.9223 17.6881ZM8.5323 17.7081C7.7023 17.7081 7.2523 16.8581 7.2523 16.0081C7.2523 15.1381 7.7423 14.4281 8.5423 14.4281C9.3723 14.4281 9.8123 15.1981 9.8123 16.0581C9.8123 16.9081 9.3423 17.7081 8.5323 17.7081Z" />
        </svg>
    