
        <svg xmlns="http://www.w3.org/2000/svg" viewBox="0 0 100 100">
            <path d="M12.1023 24.2064C18.7823 24.2064 24.2123 18.7864 24.2123 12.1064C24.2123 5.4264 18.7823 -0.0036 12.1023 -0.0036C5.4223 -0.0036 0.0023 5.4264 0.0023 12.1064C0.0023 18.7864 5.4223 24.2064 12.1023 24.2064ZM10.5923 17.8464C9.9423 17.8464 9.4423 17.4364 9.4423 16.8164C9.4423 16.5464 9.5123 16.3364 9.6423 16.0864L13.8823 8.5264V8.4364H9.0123C8.4723 8.4364 8.1023 8.0764 8.1023 7.5364C8.1023 6.9864 8.4623 6.6164 9.0123 6.6164H14.8823C15.8123 6.6164 16.4023 7.1864 16.4023 7.9664C16.4023 8.3164 16.3223 8.6264 16.0523 9.1164L11.7223 17.0664C11.4023 17.6364 11.0823 17.8464 10.5923 17.8464Z" />
        </svg>
    