
        <svg xmlns="http://www.w3.org/2000/svg" viewBox="0 0 100 100">
            <path d="M12.2223 24.4436C18.9723 24.4436 24.4423 18.9636 24.4423 12.2236C24.4423 5.4736 18.9723 0.0036 12.2223 0.0036C5.4823 0.0036 0.0023 5.4736 0.0023 12.2236C0.0023 18.9636 5.4823 24.4436 12.2223 24.4436ZM10.7923 17.9636C10.0523 17.9636 9.5023 17.5036 9.5023 16.8236C9.5023 16.5136 9.5823 16.2736 9.7423 16.0236L13.8123 8.9036V8.8036H9.1523C8.4923 8.8036 8.0723 8.3936 8.0723 7.7736C8.0723 7.1436 8.4923 6.7536 9.1523 6.7536H14.9723C16.0123 6.7536 16.6523 7.3436 16.6523 8.2236C16.6523 8.6336 16.5623 9.0036 16.2523 9.5236L12.0623 17.0836C11.6823 17.7436 11.3423 17.9636 10.7923 17.9636Z" />
        </svg>
    