
        <svg xmlns="http://www.w3.org/2000/svg" viewBox="0 0 100 100">
            <path d="M4.5917 23.2359H18.6417C21.5417 23.2359 23.2417 21.5459 23.2417 18.6459V4.5959C23.2417 1.6959 21.5417 -0.0041 18.6417 -0.0041H4.5917C1.7017 -0.0041 0.0017 1.6959 0.0017 4.5959V18.6459C0.0017 21.5459 1.7017 23.2359 4.5917 23.2359ZM10.7317 17.3859C9.5617 17.3859 8.7817 16.7059 8.7817 15.6559C8.7817 15.2059 8.9017 14.8159 9.1317 14.4559L12.4617 9.5359V9.4059H8.7617C7.6217 9.4059 6.9217 8.7959 6.9217 7.7959C6.9217 6.7859 7.6217 6.1759 8.7617 6.1759H14.4017C15.9517 6.1759 16.8617 6.9959 16.8617 8.3159C16.8617 9.0459 16.6717 9.6459 16.2317 10.3759L12.7017 16.0459C12.0517 17.0759 11.6017 17.3859 10.7317 17.3859Z" />
        </svg>
    