
        <svg xmlns="http://www.w3.org/2000/svg" viewBox="0 0 100 100">
            <path d="M3.6817 21.5722H17.8917C20.3517 21.5722 21.5717 20.3722 21.5717 17.9522V3.6322C21.5717 1.2222 20.3517 0.0022 17.8917 0.0022H3.6817C1.2317 0.0022 0.0017 1.2222 0.0017 3.6322V17.9522C0.0017 20.3722 1.2317 21.5722 3.6817 21.5722ZM9.1617 16.5222C8.6417 16.5222 8.2017 16.1622 8.2017 15.6422C8.2017 15.4022 8.2617 15.2322 8.3817 15.0222L12.8117 6.8922V6.7922H7.6917C7.2617 6.7922 6.9617 6.4822 6.9617 6.0422C6.9617 5.6022 7.2517 5.2922 7.6917 5.2922H13.5917C14.3917 5.2922 14.9217 5.8022 14.9217 6.4722C14.9217 6.7222 14.8617 6.9722 14.6217 7.4222L10.1217 15.8522C9.8817 16.3222 9.5817 16.5222 9.1617 16.5222Z" />
        </svg>
    