
        <svg xmlns="http://www.w3.org/2000/svg" viewBox="0 0 100 100">
            <path d="M0.0017 16.7134C0.0017 17.2234 0.4217 17.6634 0.9417 17.6634C1.4617 17.6634 1.8917 17.2234 1.8917 16.7134V0.9334C1.8917 0.4234 1.4617 0.0034 0.9417 0.0034C0.4217 0.0034 0.0017 0.4234 0.0017 0.9334ZM19.6917 16.7134C19.6917 17.2234 20.1217 17.6634 20.6417 17.6634C21.1517 17.6634 21.5717 17.2234 21.5717 16.7134V0.9334C21.5717 0.4234 21.1517 0.0034 20.6417 0.0034C20.1217 0.0034 19.6917 0.4234 19.6917 0.9334ZM10.7817 14.3634C12.6817 14.3634 14.3717 13.3334 14.3717 11.4034C14.3717 10.0634 13.5017 9.0634 12.2917 8.8034V8.7734C13.3117 8.4734 14.0517 7.6134 14.0517 6.5134C14.0517 4.8134 12.6117 3.7834 10.7817 3.7834C9.0017 3.7834 7.5117 4.8134 7.5117 6.5034C7.5117 7.6134 8.2617 8.4734 9.3017 8.7734V8.8034C8.1117 9.0434 7.2117 10.0634 7.2117 11.3934C7.2117 13.2934 8.8317 14.3634 10.7817 14.3634ZM10.7817 8.1934C9.9117 8.1934 9.3517 7.5434 9.3517 6.6934C9.3517 5.8034 9.9017 5.1534 10.7917 5.1534C11.7317 5.1534 12.2317 5.8434 12.2317 6.6934C12.2317 7.5634 11.6617 8.1934 10.7817 8.1934ZM10.7817 12.9834C9.7817 12.9834 9.1417 12.2334 9.1417 11.2634C9.1417 10.3034 9.7817 9.5734 10.7817 9.5734C11.8017 9.5734 12.4317 10.2734 12.4317 11.2634C12.4317 12.2534 11.7917 12.9834 10.7817 12.9834Z" />
        </svg>
    