
        <svg xmlns="http://www.w3.org/2000/svg" viewBox="0 0 100 100">
            <path d="M3.0117 20.5048H17.4917C19.4517 20.5048 20.5117 19.4248 20.5117 17.4948V3.0148C20.5117 1.0748 19.4517 0.0048 17.4917 0.0048H3.0117C1.0417 0.0048 0.0017 1.0448 0.0017 3.0148V17.4948C0.0017 19.4648 1.0417 20.5048 3.0117 20.5048ZM10.2517 15.5548C8.1517 15.5548 6.6717 14.2948 6.6717 12.5548C6.6717 11.3348 7.6017 10.2448 8.8717 9.9848V9.9248C7.8117 9.6048 7.0617 8.6848 7.0617 7.6448C7.0617 6.0748 8.4117 4.9448 10.2517 4.9448C12.1017 4.9448 13.4517 6.0748 13.4517 7.6448C13.4517 8.6848 12.7017 9.6248 11.6417 9.9248V9.9848C12.9117 10.2448 13.8517 11.3348 13.8517 12.5548C13.8517 14.2848 12.3417 15.5548 10.2517 15.5548ZM10.2517 9.7048C11.7417 9.7048 12.8217 8.8348 12.8217 7.6148C12.8217 6.3848 11.7817 5.5148 10.2517 5.5148C8.7417 5.5148 7.6917 6.3848 7.6917 7.6148C7.6917 8.8348 8.7817 9.7048 10.2517 9.7048ZM10.2517 14.9848C12.0117 14.9848 13.2817 13.9848 13.2817 12.5748C13.2817 11.2148 12.0117 10.2448 10.2517 10.2448C8.5117 10.2448 7.2417 11.2148 7.2417 12.5748C7.2417 13.9848 8.5117 14.9848 10.2517 14.9848Z" />
        </svg>
    