
        <svg xmlns="http://www.w3.org/2000/svg" viewBox="0 0 100 100">
            <path d="M3.8417 21.8745H18.0317C20.5617 21.8745 21.8817 20.5745 21.8817 18.0745V3.8045C21.8817 1.3145 20.5617 0.0045 18.0317 0.0045H3.8417C1.3117 0.0045 0.0017 1.3045 0.0017 3.8045V18.0745C0.0017 20.5745 1.3117 21.8745 3.8417 21.8745ZM6.5817 9.0945C6.5817 6.7945 8.3517 5.1845 10.9917 5.1845C13.6317 5.1845 15.4017 6.7945 15.4017 9.2145C15.4017 10.6045 14.8517 11.8245 13.7217 13.3445C13.1617 14.0845 12.3417 15.1545 11.7617 15.8745C11.3817 16.3545 11.1217 16.6745 10.5517 16.6745C9.9417 16.6745 9.5517 16.2545 9.5517 15.8045C9.5517 15.5145 9.6817 15.2445 9.9017 15.0045C10.5217 14.2345 11.2117 13.4045 11.8017 12.6545C12.0617 12.3545 12.2617 12.0945 12.3617 11.9045H12.2017C11.7917 12.3245 10.9717 12.5845 10.1817 12.5845C8.1117 12.5845 6.5817 11.1045 6.5817 9.0945ZM8.6717 8.9845C8.6717 10.1645 9.6717 10.9945 10.9917 10.9945C12.3017 10.9945 13.3017 10.1645 13.3017 9.0045C13.3017 7.8445 12.2917 6.9745 10.9817 6.9745C9.6717 6.9745 8.6717 7.8245 8.6717 8.9845Z" />
        </svg>
    