
        <svg xmlns="http://www.w3.org/2000/svg" viewBox="0 0 100 100">
            <path d="M3.8417 21.8745H18.0317C20.5617 21.8745 21.8817 20.5745 21.8817 18.0745V3.8045C21.8817 1.3145 20.5617 0.0045 18.0317 0.0045H3.8417C1.3117 0.0045 0.0017 1.3045 0.0017 3.8045V18.0745C0.0017 20.5745 1.3117 21.8745 3.8417 21.8745ZM3.9817 19.5845C2.8917 19.5845 2.3017 19.0145 2.3017 17.8845V4.0045C2.3017 2.8745 2.8917 2.2945 3.9817 2.2945H17.8917C18.9717 2.2945 19.5817 2.8745 19.5817 4.0045V17.8845C19.5817 19.0145 18.9717 19.5845 17.8917 19.5845ZM6.7417 9.1545C6.7417 11.1045 8.2017 12.5245 10.2117 12.5245C10.9617 12.5245 11.7517 12.2645 12.1517 11.8545H12.3017C12.1917 12.0445 12.0117 12.2945 11.7617 12.5945C11.1917 13.3145 10.5217 14.1045 9.9117 14.8545C9.7117 15.0945 9.5817 15.3545 9.5817 15.6345C9.5817 16.0545 9.9517 16.4545 10.5317 16.4545C11.0717 16.4545 11.3217 16.1445 11.6817 15.6945C12.2417 15.0045 13.0417 13.9645 13.5817 13.2445C14.6717 11.7845 15.2017 10.6045 15.2017 9.2645C15.2017 6.9445 13.5017 5.3945 10.9617 5.3945C8.4517 5.3945 6.7417 6.9445 6.7417 9.1545ZM8.7317 9.0545C8.7317 7.9445 9.6817 7.1145 10.9617 7.1145C12.2317 7.1145 13.1917 7.9445 13.1917 9.0745C13.1917 10.1945 12.2417 11.0045 10.9717 11.0045C9.6817 11.0045 8.7317 10.1845 8.7317 9.0545Z" />
        </svg>
    