
        <svg xmlns="http://www.w3.org/2000/svg" viewBox="0 0 100 100">
            <path d="M0.0017 18.8652C0.0017 20.0152 0.9417 20.9452 2.0817 20.9452C3.2217 20.9452 4.1617 20.0152 4.1617 18.8652V2.0852C4.1617 0.9352 3.2217 -0.0048 2.0817 -0.0048C0.9417 -0.0048 0.0017 0.9352 0.0017 2.0852ZM19.0817 18.8652C19.0817 20.0152 20.0117 20.9452 21.1517 20.9452C22.3017 20.9452 23.2417 20.0152 23.2417 18.8652V2.0852C23.2417 0.9352 22.3017 -0.0048 21.1517 -0.0048C20.0117 -0.0048 19.0817 0.9352 19.0817 2.0852ZM11.4017 15.5052C14.2217 15.5052 15.2317 13.0652 15.2317 10.3552C15.2317 7.4952 14.0617 5.2252 11.4617 5.2252C9.6117 5.2252 8.0317 6.4252 8.0317 8.7552C8.0317 10.4452 8.9317 11.8352 10.5717 11.8352C11.5817 11.8352 12.2917 11.2352 12.5617 10.2852H12.6017V10.3952C12.6017 11.3952 12.6317 13.4052 11.5217 13.4052C11.2017 13.4052 10.9917 13.2352 10.6217 12.7852C10.3117 12.4052 9.9917 12.2452 9.5317 12.2452C8.7517 12.2452 8.4117 12.8352 8.4117 13.3552C8.4117 13.8552 8.6717 14.3552 9.0517 14.7152C9.6417 15.2852 10.5517 15.5052 11.4017 15.5052ZM11.4817 9.9252C10.9317 9.9252 10.6517 9.3252 10.6517 8.6252C10.6517 8.0152 10.9017 7.3352 11.5117 7.3352C12.0617 7.3352 12.3317 7.9852 12.3317 8.6552C12.3317 9.1952 12.1417 9.9252 11.4817 9.9252Z" />
        </svg>
    