
        <svg xmlns="http://www.w3.org/2000/svg" viewBox="0 0 100 100">
            <path d="M0.0017 18.3519C0.0017 19.3519 0.8117 20.1719 1.8117 20.1719C2.8117 20.1719 3.6217 19.3519 3.6217 18.3519V1.8019C3.6217 0.8119 2.8117 0.0019 1.8117 0.0019C0.8117 0.0019 0.0017 0.8119 0.0017 1.8019ZM19.2217 18.3519C19.2217 19.3519 20.0417 20.1719 21.0317 20.1719C22.0317 20.1719 22.8517 19.3519 22.8517 18.3519V1.8019C22.8517 0.8119 22.0317 0.0019 21.0317 0.0019C20.0417 0.0019 19.2217 0.8119 19.2217 1.8019ZM11.2017 15.2319C14.0317 15.2319 15.0017 12.7219 15.0017 10.0219C15.0017 7.2119 13.8617 4.8719 11.2617 4.8719C9.3917 4.8719 7.8517 6.1319 7.8517 8.4019C7.8517 10.1219 8.7917 11.5419 10.4617 11.5419C11.5317 11.5419 12.2717 10.9119 12.5517 9.9519H12.5717C12.5717 9.9819 12.5717 10.0219 12.5717 10.0519C12.5717 11.2019 12.5317 13.2819 11.3217 13.2819C10.9117 13.2819 10.6417 13.0519 10.2917 12.5819C10.0117 12.2119 9.7117 12.0419 9.2417 12.0419C8.5417 12.0419 8.2217 12.5719 8.2217 13.0619C8.2217 13.5319 8.4717 14.0419 8.8317 14.3819C9.4317 14.9619 10.3217 15.2319 11.2017 15.2319ZM11.2817 9.7519C10.6317 9.7519 10.2817 9.0719 10.2817 8.2919C10.2817 7.5919 10.6017 6.8319 11.3117 6.8319C11.9717 6.8319 12.3117 7.5719 12.3117 8.3319C12.3117 8.9919 12.0217 9.7519 11.2817 9.7519Z" />
        </svg>
    