
        <svg xmlns="http://www.w3.org/2000/svg" viewBox="0 0 100 100">
            <path d="M0.0017 17.178C0.0017 17.348 0.1317 17.468 0.2817 17.468C0.4417 17.468 0.5717 17.348 0.5717 17.178V0.288C0.5717 0.128 0.4417 -0.002 0.2817 -0.002C0.1317 -0.002 0.0017 0.128 0.0017 0.288ZM19.9317 17.178C19.9317 17.348 20.0617 17.468 20.2117 17.468C20.3817 17.468 20.5117 17.348 20.5117 17.178V0.288C20.5117 0.128 20.3817 -0.002 20.2117 -0.002C20.0617 -0.002 19.9317 0.128 19.9317 0.288ZM10.0617 13.898C12.6517 13.898 13.4417 11.048 13.4417 8.538C13.4417 6.028 12.4617 3.658 10.1117 3.658C8.3117 3.658 7.0317 5.148 7.0317 7.078C7.0317 8.898 8.2417 10.348 10.0317 10.348C11.2817 10.348 12.3917 9.518 12.7517 8.348C12.7517 8.368 12.7517 8.388 12.7517 8.428C12.8017 10.418 12.2217 13.238 10.0617 13.238C8.9317 13.238 8.2817 12.578 7.9717 11.688C7.8917 11.418 7.8017 11.288 7.5817 11.288C7.3817 11.288 7.2517 11.418 7.2517 11.618C7.2517 11.708 7.2917 11.848 7.3517 12.058C7.6617 12.998 8.5817 13.898 10.0617 13.898ZM10.1217 9.678C8.6617 9.678 7.7617 8.468 7.7617 7.068C7.7617 5.648 8.6417 4.328 10.1217 4.328C11.5317 4.328 12.5417 5.568 12.5417 7.118C12.5417 8.528 11.4717 9.678 10.1217 9.678Z" />
        </svg>
    