
        <svg xmlns="http://www.w3.org/2000/svg" viewBox="0 0 100 100">
            <path d="M4.3817 22.8467H18.4717C21.2617 22.8467 22.8517 21.2667 22.8517 18.4767V4.3667C22.8517 1.5867 21.2617 -0.0033 18.4717 -0.0033H4.3817C1.5917 -0.0033 0.0017 1.5867 0.0017 4.3667V18.4767C0.0017 21.2667 1.5917 22.8467 4.3817 22.8467ZM4.8717 19.2267C4.0417 19.2267 3.6217 18.8567 3.6217 17.9767V4.8867C3.6217 4.0067 4.0417 3.6367 4.8717 3.6367H17.9717C18.8017 3.6367 19.2217 4.0067 19.2217 4.8867V17.9767C19.2217 18.8567 18.8017 19.2267 17.9717 19.2267ZM11.3317 16.8267C14.3517 16.8267 16.1117 14.8267 16.1117 11.3167C16.1117 7.9567 14.3517 6.0267 11.4117 6.0267C8.8117 6.0267 6.9717 7.5667 6.9717 9.8067C6.9717 11.8267 8.3917 13.0567 10.3817 13.0567C11.5917 13.0567 12.4117 12.5167 12.7717 11.7067H12.8917C13.0417 13.2767 12.3717 14.4167 11.3217 14.4167C10.7817 14.4167 10.4317 14.2067 10.0617 13.8967C9.7817 13.6967 9.4817 13.5067 8.8717 13.5067C8.1717 13.5067 7.5917 14.0267 7.5917 14.6967C7.5917 14.9067 7.6417 15.1167 7.7417 15.3067C8.1517 16.1367 9.3417 16.8267 11.3317 16.8267ZM11.5417 11.0367C10.7717 11.0367 10.2117 10.4967 10.2117 9.7267C10.2117 8.9567 10.7617 8.4067 11.5417 8.4067C12.3017 8.4067 12.8717 8.9667 12.8717 9.7367C12.8717 10.4867 12.3317 11.0367 11.5417 11.0367Z" />
        </svg>
    