
        <svg xmlns="http://www.w3.org/2000/svg" viewBox="0 0 100 100">
            <path d="M11.7523 25.7594C18.2423 25.7594 23.5123 20.4994 23.5123 14.0094C23.5123 8.2394 19.3523 3.4494 13.9123 2.4494V0.6794C13.9123 0.0094 13.4423 -0.1906 12.8923 0.1994L9.2423 2.7594C8.7923 3.0894 8.7923 3.5394 9.2423 3.8594L12.8923 6.4194C13.4423 6.7994 13.9123 6.6094 13.9123 5.9294V3.9994C18.5123 4.9894 21.9923 9.0794 21.9923 14.0094C21.9923 19.6694 17.4123 24.2394 11.7523 24.2394C6.0923 24.2394 1.5223 19.6694 1.5223 14.0094C1.5223 10.4494 3.3423 7.3194 6.0923 5.5094C6.4523 5.2394 6.5723 4.8094 6.3523 4.4494C6.1323 4.0794 5.6223 3.9794 5.2223 4.2694C2.0723 6.3694 0.0023 9.9294 0.0023 14.0094C0.0023 20.4994 5.2623 25.7594 11.7523 25.7594ZM15.7223 18.8394C18.0123 18.8394 18.7723 16.4094 18.7723 14.1694C18.7723 11.8994 17.9923 9.5094 15.7223 9.5094C13.4323 9.5094 12.6723 11.9294 12.6723 14.1694C12.6723 16.4494 13.4623 18.8394 15.7223 18.8394ZM8.0423 18.8394C10.4723 18.8394 11.2223 16.3894 11.2223 14.0394C11.2223 11.7094 10.3223 9.5194 8.0823 9.5194C6.3723 9.5194 5.1923 10.8394 5.1923 12.6394C5.1923 14.2394 6.1923 15.5794 7.7623 15.5794C8.8723 15.5794 9.7023 14.8594 9.9823 13.9194C9.9823 13.9494 9.9823 13.9894 9.9823 14.0294C10.0123 15.5994 9.6523 17.7694 8.0823 17.7694C7.3323 17.7694 6.8923 17.3494 6.6123 16.7494C6.4523 16.4494 6.3023 16.3094 6.0023 16.3094C5.6523 16.3094 5.4523 16.5394 5.4523 16.8394C5.4523 17.1094 5.6023 17.4194 5.8123 17.6794C6.2223 18.3394 7.0223 18.8394 8.0423 18.8394ZM8.1023 14.5494C7.0523 14.5494 6.4523 13.6194 6.4523 12.5994C6.4523 11.5694 7.0623 10.5894 8.1123 10.5894C9.1123 10.5894 9.7823 11.5594 9.7823 12.6394C9.7823 13.6694 9.0823 14.5494 8.1023 14.5494ZM15.7223 17.7594C14.4923 17.7594 13.9823 16.0394 13.9823 14.1694C13.9823 12.2994 14.4923 10.5994 15.7223 10.5994C16.9523 10.5994 17.4623 12.3094 17.4623 14.1694C17.4623 16.0394 16.9723 17.7594 15.7223 17.7594Z" />
        </svg>
    