
        <svg xmlns="http://www.w3.org/2000/svg" viewBox="0 0 100 100">
            <path d="M12.1023 24.2064C18.7823 24.2064 24.2123 18.7864 24.2123 12.1064C24.2123 5.4264 18.7823 -0.0036 12.1023 -0.0036C5.4223 -0.0036 0.0023 5.4264 0.0023 12.1064C0.0023 18.7864 5.4223 24.2064 12.1023 24.2064ZM17.6323 15.9964C16.5923 15.9964 15.8823 15.4664 15.6023 14.5664C15.5623 14.4264 15.5323 14.2764 15.5323 14.1464C15.5323 13.7564 15.7823 13.4864 16.1623 13.4864C16.5223 13.4864 16.7423 13.6664 16.8523 14.0064C16.9523 14.4564 17.1823 14.8164 17.6323 14.8164C18.1023 14.8164 18.3723 14.4264 18.3723 13.9264C18.3723 13.2864 18.0023 13.0164 17.4223 12.7364L17.0023 12.5164C16.1823 12.0964 15.5423 11.5164 15.5423 10.3464C15.5423 8.9664 16.4623 8.2064 17.6123 8.2064C18.5723 8.2064 19.2823 8.7564 19.5423 9.5764C19.6023 9.7364 19.6523 9.9064 19.6523 10.0764C19.6523 10.4164 19.4423 10.6764 19.0523 10.6764C18.7123 10.6764 18.4423 10.5164 18.3623 10.2064C18.2323 9.7464 18.0623 9.3864 17.6123 9.3864C17.1823 9.3864 16.9723 9.7764 16.9723 10.2264C16.9723 10.8564 17.3323 11.1364 17.8923 11.4064L18.3123 11.6264C19.1623 12.0364 19.8123 12.5664 19.8123 13.7764C19.8123 15.1064 19.0423 15.9964 17.6323 15.9964ZM5.0423 15.9364C4.6523 15.9364 4.3523 15.7164 4.3523 15.2364C4.3523 15.0864 4.3823 14.9164 4.4323 14.7664L5.6923 9.1864C5.8323 8.5464 6.2223 8.2664 6.7923 8.2664C7.4323 8.2664 7.8123 8.5664 7.9523 9.1864L9.2323 14.7664C9.2723 14.8864 9.3023 15.1564 9.3023 15.2364C9.3023 15.6364 9.0123 15.9364 8.6223 15.9364C8.2223 15.9364 7.9823 15.7464 7.8823 15.2764L7.6523 14.2164H5.9723L5.7623 15.2664C5.6923 15.6764 5.4623 15.9364 5.0423 15.9364ZM11.0023 15.8164C10.5123 15.8164 10.2623 15.5264 10.2623 15.0464V9.1564C10.2623 8.6264 10.5623 8.3764 11.0023 8.3764H12.7523C13.8623 8.3764 14.4923 9.1064 14.4923 10.2264C14.4923 10.9364 14.1223 11.6964 13.3723 11.8564V11.8964C14.1723 11.9564 14.6923 12.8564 14.6923 13.7064C14.6923 14.8664 14.0523 15.8164 12.8123 15.8164ZM11.7323 11.4964H12.2223C12.8423 11.4964 13.1123 11.0764 13.1123 10.4664C13.1123 9.8664 12.8923 9.4664 12.3123 9.4664H11.7323ZM6.1723 13.1264H7.4523L6.8223 9.9864H6.7723ZM11.7323 14.7264H12.3123C12.9723 14.7264 13.2223 14.2364 13.2223 13.5964C13.2223 12.9364 12.9423 12.4664 12.2923 12.4664H11.7323Z" />
        </svg>
    