
        <svg xmlns="http://www.w3.org/2000/svg" viewBox="0 0 100 100">
            <path d="M25.8123 23.0174C25.9323 23.1174 26.1223 23.1174 26.2423 23.0174C26.3923 22.8574 26.3523 22.7074 26.2423 22.5974L3.7423 0.0974C3.6323 -0.0126 3.4723 -0.0526 3.3123 0.0974C3.2023 0.1974 3.2023 0.3874 3.3123 0.5074ZM14.6923 1.1674C20.3523 1.1674 24.9623 5.7774 24.9623 11.4374C24.9623 13.8574 24.1123 16.0774 22.7223 17.8374L23.1123 18.2174C24.6323 16.3674 25.5323 14.0074 25.5323 11.4374C25.5323 5.4874 20.6523 0.5974 14.6923 0.5974C12.1323 0.5974 9.7623 1.4974 7.9123 3.0174L8.2923 3.4074C10.0523 2.0174 12.2723 1.1674 14.6923 1.1674ZM25.7323 2.1774C25.6023 2.2674 25.5923 2.4474 25.7023 2.5874C27.6523 5.0074 28.8123 8.0874 28.8123 11.4374C28.8123 14.7774 27.6723 17.8274 25.7423 20.2474L26.1423 20.6474C28.1623 18.1274 29.3923 14.9274 29.3923 11.4374C29.3923 7.9474 28.1623 4.7174 26.1423 2.2174C26.0323 2.0774 25.8723 2.0574 25.7323 2.1774ZM3.6523 20.6974C3.7823 20.5874 3.8123 20.4274 3.6923 20.2774C1.7423 17.8674 0.5723 14.7874 0.5723 11.4374C0.5723 8.0974 1.7223 5.0374 3.6423 2.6074L3.2423 2.2174C1.2323 4.7474 0.0023 7.9374 0.0023 11.4374C0.0023 14.9274 1.2323 18.1374 3.2423 20.6474C3.3623 20.7974 3.5123 20.8074 3.6523 20.6974ZM14.6923 22.2674C17.2523 22.2674 19.5923 21.3574 21.4523 19.8774L21.0623 19.4774C19.3123 20.8674 17.1023 21.6874 14.6923 21.6874C9.0323 21.6874 4.4323 17.0974 4.4323 11.4374C4.4323 9.0374 5.2623 6.8174 6.6523 5.0774L6.2423 4.6774C4.7723 6.5374 3.8623 8.8774 3.8623 11.4374C3.8623 17.3774 8.7523 22.2674 14.6923 22.2674ZM20.6523 14.6974L21.1323 15.1874C21.8423 14.8974 22.3223 14.2474 22.3223 13.3274C22.3223 12.1774 21.6723 11.5874 20.4223 11.0974C19.5223 10.7174 18.8223 10.4374 18.8223 9.5174C18.8223 8.7074 19.4023 8.1974 20.1723 8.1974C20.9923 8.1974 21.4923 8.7074 21.5723 9.6274C21.5823 9.8174 21.7523 9.9274 21.9123 9.9274C22.0623 9.9274 22.2223 9.8174 22.2223 9.6074C22.2223 9.4874 22.2023 9.3774 22.1823 9.2674C22.0423 8.3174 21.2623 7.6174 20.1723 7.6174C19.0823 7.6174 18.1623 8.3274 18.1623 9.5274C18.1623 10.5374 18.7123 11.0474 19.7923 11.5174C20.8523 11.9974 21.7023 12.2674 21.7023 13.3574C21.7023 14.0074 21.3123 14.5574 20.6523 14.6974ZM7.1323 15.3774C7.2623 15.3774 7.4023 15.2874 7.4523 15.1274L8.0623 12.9674H10.5223L11.1323 15.1274C11.1823 15.2874 11.3223 15.3574 11.4523 15.3574C11.6723 15.3574 11.8023 15.1474 11.7423 14.9474L10.1723 9.6174L9.3123 8.7374L10.3523 12.3974H8.2423L9.2823 8.7074L8.8223 8.2474L6.8423 14.9474C6.7823 15.1274 6.8623 15.3774 7.1323 15.3774Z" />
        </svg>
    