
        <svg xmlns="http://www.w3.org/2000/svg" viewBox="0 0 100 100">
            <path d="M19.7223 23.7103C26.2823 23.7103 31.5823 18.4103 31.5823 11.8603C31.5823 5.3103 26.2823 0.0003 19.7223 0.0003C13.1723 0.0003 7.8723 5.3103 7.8723 11.8603C7.8723 18.4103 13.1723 23.7103 19.7223 23.7103ZM39.4423 11.8703C39.4423 7.9203 38.1323 4.1403 35.8023 1.0803C35.0623 0.1203 33.7823 0.0603 32.8623 0.8403C31.9123 1.6303 31.9123 2.8103 32.6523 3.8303C34.3323 6.1303 35.2723 8.9303 35.2723 11.8703C35.2723 14.8003 34.3323 17.6003 32.6623 19.9003C31.9323 20.9103 31.9323 22.1003 32.8623 22.8703C33.7923 23.6503 35.0723 23.6003 35.8123 22.6403C38.1323 19.5903 39.4423 15.8203 39.4423 11.8703ZM0.0023 11.8703C0.0023 15.8203 1.3023 19.5903 3.6323 22.6403C4.3623 23.6003 5.6523 23.6503 6.5823 22.8703C7.5023 22.1003 7.5123 20.9103 6.7723 19.9003C5.1123 17.6003 4.1723 14.8003 4.1723 11.8703C4.1723 8.9303 5.1123 6.1303 6.7823 3.8303C7.5323 2.8103 7.5323 1.6303 6.5823 0.8403C5.6623 0.0603 4.3823 0.1203 3.6423 1.0803C1.3023 4.1403 0.0023 7.9203 0.0023 11.8703ZM19.7223 19.5303C15.4923 19.5303 12.0423 16.0903 12.0423 11.8603C12.0423 7.6203 15.4923 4.1703 19.7223 4.1703C23.9623 4.1703 27.4123 7.6203 27.4123 11.8603C27.4123 16.0903 23.9623 19.5303 19.7223 19.5303ZM24.3123 14.9103C25.5423 14.9103 26.2223 14.2103 26.2223 13.0903C26.2223 12.0803 25.6723 11.6903 25.1023 11.4103L24.7123 11.2303C24.3123 11.0403 24.0723 10.9003 24.0723 10.4603C24.0723 10.2503 24.1423 10.0903 24.3323 10.0903C24.4923 10.0903 24.5823 10.2103 24.6523 10.4503C24.7923 10.8503 25.0923 10.9703 25.4323 10.9703C25.9123 10.9703 26.1023 10.6403 26.1023 10.3003C26.1023 10.1403 26.0623 9.9803 26.0023 9.8403C25.7723 9.2203 25.0923 8.8203 24.3323 8.8203C23.2123 8.8203 22.4623 9.4903 22.4623 10.6303C22.4623 11.4303 22.8423 11.9903 23.5623 12.3303L23.9523 12.5203C24.3123 12.6903 24.6223 12.8403 24.6223 13.2403C24.6223 13.4603 24.5323 13.6403 24.3123 13.6403C24.1523 13.6403 24.0423 13.5003 23.9723 13.3403C23.8523 12.9603 23.5923 12.7803 23.1923 12.7803C22.8323 12.7803 22.5023 13.0503 22.5023 13.4803C22.5023 13.6303 22.5323 13.8203 22.6423 14.0003C22.9423 14.6503 23.5923 14.9103 24.3123 14.9103ZM13.9123 14.8403C14.4023 14.8403 14.6523 14.5303 14.7223 14.0503L14.7523 13.7903H15.7523L15.8123 14.0903C15.9023 14.5903 16.1323 14.8403 16.6423 14.8403C17.1023 14.8403 17.3923 14.5103 17.3923 14.0403C17.3923 13.8903 17.3423 13.6503 17.3223 13.5003L16.5323 9.8803C16.3923 9.2003 15.9223 8.8803 15.2223 8.8803C14.6323 8.8803 14.1323 9.1603 13.9823 9.8803L13.2223 13.5003C13.1823 13.6603 13.1523 13.8703 13.1523 14.0403C13.1523 14.5503 13.4023 14.8403 13.9123 14.8403ZM18.8923 14.7403H20.4823C21.4223 14.7403 21.9523 14.0203 21.9523 13.0703C21.9523 12.4103 21.4723 11.7103 20.8523 11.6903V11.6703C21.4223 11.5803 21.8523 11.0903 21.8523 10.4303C21.8523 9.5203 21.3123 8.9903 20.4123 8.9903H18.8923C18.3623 8.9903 18.0823 9.3003 18.0823 9.8403V13.8703C18.0823 14.4103 18.3623 14.7403 18.8923 14.7403ZM19.7123 11.3003V10.1203H19.8823C20.2423 10.1203 20.3323 10.3603 20.3323 10.7103C20.3323 11.0303 20.2023 11.3003 19.8523 11.3003ZM14.9323 12.6303L15.2123 10.7003H15.2323L15.5623 12.6303ZM19.7123 13.6103V12.2603H19.8623C20.2123 12.2603 20.3223 12.5603 20.3223 12.9103C20.3223 13.2703 20.2123 13.6103 19.8623 13.6103Z" />
        </svg>
    