
        <svg xmlns="http://www.w3.org/2000/svg" viewBox="0 0 100 100">
            <path d="M11.3523 22.7064C17.6323 22.7064 22.7123 17.6264 22.7123 11.3564C22.7123 5.0764 17.6323 -0.0036 11.3523 -0.0036C5.0823 -0.0036 0.0023 5.0764 0.0023 11.3564C0.0023 17.6264 5.0823 22.7064 11.3523 22.7064ZM11.3523 22.1364C5.3923 22.1364 0.5723 17.3164 0.5723 11.3564C0.5723 5.3864 5.3923 0.5764 11.3523 0.5764C17.3223 0.5764 22.1323 5.3864 22.1323 11.3564C22.1323 17.3164 17.3223 22.1364 11.3523 22.1364ZM16.3923 15.2664C17.6523 15.2664 18.1723 14.3164 18.1723 13.2064C18.1723 12.0164 17.6223 11.5564 16.7023 11.0664L16.3523 10.8664C15.6523 10.4864 15.2323 10.1264 15.2323 9.3164C15.2323 8.5664 15.6423 7.9764 16.3323 7.9764C17.0723 7.9764 17.4023 8.5764 17.5223 9.3064C17.5523 9.4664 17.6523 9.5364 17.8023 9.5364C18.0023 9.5364 18.0623 9.3864 18.0623 9.2964C18.0623 9.1764 18.0323 9.0264 18.0023 8.8864C17.8623 8.2164 17.3423 7.4264 16.3323 7.4264C15.2623 7.4264 14.6623 8.2864 14.6623 9.3364C14.6623 10.4564 15.1623 10.8964 16.1223 11.4364L16.5023 11.6464C17.2423 12.0564 17.5923 12.3964 17.5923 13.2464C17.5923 14.0664 17.2423 14.7264 16.4023 14.7264C15.6723 14.7264 15.2123 14.1064 15.0923 13.2864C15.0823 13.1364 15.0023 13.0264 14.8323 13.0264C14.6623 13.0264 14.5623 13.1864 14.5623 13.3464C14.5623 13.4664 14.5923 13.5664 14.6023 13.6264C14.8223 14.5464 15.3323 15.2664 16.3923 15.2664ZM4.6723 15.2464C4.8423 15.2464 4.9423 15.1764 4.9823 15.0164L5.4523 12.9764H7.6123L8.0823 15.0164C8.1223 15.1864 8.2223 15.2464 8.3923 15.2464C8.5523 15.2464 8.6723 15.1264 8.6723 14.9764C8.6723 14.9164 8.6523 14.8664 8.6323 14.8164L6.9823 7.8864C6.9223 7.6264 6.8123 7.4664 6.5423 7.4664C6.2823 7.4664 6.1523 7.6064 6.0823 7.8864L4.4323 14.8164C4.4223 14.8564 4.3923 14.9164 4.3923 14.9764C4.3923 15.1364 4.5123 15.2464 4.6723 15.2464ZM10.1123 15.1564H11.6823C12.9223 15.1564 13.5023 14.2364 13.5023 13.0864C13.5023 12.2264 13.0923 11.2964 12.2723 11.1864V11.1564C12.9823 10.9364 13.2523 10.0564 13.2523 9.4264C13.2523 8.4364 12.7423 7.5564 11.6523 7.5564H10.1123C9.9223 7.5564 9.8223 7.6864 9.8223 7.8764V14.8364C9.8223 15.0264 9.9223 15.1564 10.1123 15.1564ZM10.4023 10.9664V8.0964H11.5223C12.3023 8.0964 12.6723 8.6964 12.6723 9.4764C12.6723 10.3264 12.2723 10.9664 11.4423 10.9664ZM5.5623 12.4564L6.5123 8.2864H6.5323L7.5023 12.4564ZM10.4023 14.6164V11.4964H11.5223C12.4523 11.4964 12.9023 12.1264 12.9023 13.0664C12.9023 13.9264 12.5123 14.6164 11.5623 14.6164Z" />
        </svg>
    