
        <svg xmlns="http://www.w3.org/2000/svg" viewBox="0 0 100 100">
            <path d="M11.9523 23.9041C18.5523 23.9041 23.9023 18.5541 23.9023 11.9541C23.9023 5.3541 18.5523 0.0041 11.9523 0.0041C5.3523 0.0041 0.0023 5.3541 0.0023 11.9541C0.0023 18.5541 5.3523 23.9041 11.9523 23.9041ZM11.9523 21.9141C6.4423 21.9141 1.9923 17.4641 1.9923 11.9541C1.9923 6.4441 6.4423 1.9941 11.9523 1.9941C17.4623 1.9941 21.9123 6.4441 21.9123 11.9541C21.9123 17.4641 17.4623 21.9141 11.9523 21.9141ZM11.9423 7.2141C12.7823 7.2141 13.4623 6.5241 13.4623 5.6941C13.4623 4.8541 12.7823 4.1741 11.9423 4.1741C11.1023 4.1741 10.4223 4.8541 10.4223 5.6941C10.4223 6.5241 11.1023 7.2141 11.9423 7.2141ZM11.9423 7.9941C10.2823 7.9941 7.9123 7.7141 6.7723 7.5341C6.6723 7.5241 6.5723 7.4841 6.4523 7.4841C6.1623 7.4841 5.8623 7.7341 5.8623 8.1541C5.8623 8.4741 6.0623 8.7441 6.3523 8.8241C6.7423 8.9441 9.4023 9.2441 9.7423 9.3041C10.0623 9.3741 10.2623 9.6541 10.2823 10.0541C10.2923 10.6641 10.2823 12.6141 10.1223 13.5041C9.9823 14.3741 8.9623 18.6141 8.9223 18.7941C8.7923 19.2541 9.0723 19.6541 9.5323 19.6541C9.8523 19.6541 10.0823 19.4741 10.2023 19.0341C10.4023 18.1741 11.1423 15.2441 11.3823 14.5441C11.5223 14.0241 11.6523 13.8541 11.9423 13.8541C12.2223 13.8541 12.3523 14.0241 12.5123 14.5441C12.7123 15.2441 13.4723 18.1741 13.6723 19.0341C13.7923 19.4741 14.0323 19.6541 14.3523 19.6541C14.8123 19.6541 15.0823 19.2541 14.9523 18.7941C14.9223 18.6141 13.8823 14.3741 13.7423 13.5041C13.6123 12.6141 13.6123 10.6641 13.6123 10.0541C13.6123 9.6541 13.8023 9.3741 14.1423 9.3041C14.4723 9.2441 17.1423 8.9441 17.5223 8.8241C17.8223 8.7441 18.0223 8.4741 18.0223 8.1541C18.0223 7.7341 17.7023 7.4841 17.4123 7.4841C17.3123 7.4841 17.2023 7.5241 17.1023 7.5341C15.9723 7.7141 13.6123 7.9941 11.9423 7.9941Z" />
        </svg>
    