
        <svg xmlns="http://www.w3.org/2000/svg" viewBox="0 0 100 100">
            <path d="M3.8317 31.9219C4.8017 31.9219 5.4917 31.2219 5.4917 30.2419V29.0119H16.2417V30.2419C16.2417 31.2219 16.9317 31.9219 17.9017 31.9219C18.8817 31.9219 19.5817 31.2219 19.5817 30.2419V28.5019C20.9617 27.7819 21.7417 26.3819 21.7417 24.4219V11.6319C21.8317 11.6219 21.9417 11.6219 22.0417 11.6219C22.6017 11.6219 23.0417 11.7419 23.6217 11.9919C24.0817 12.1919 24.5817 12.1219 24.8817 11.7119C25.2317 11.2119 25.0617 10.5719 24.5017 10.2419C23.7417 9.8119 22.9117 9.5719 22.0417 9.5719C21.9417 9.5719 21.8317 9.5819 21.7417 9.5819V11.6319C19.4917 11.8319 18.0217 14.1919 15.0717 14.1919C14.1917 14.1919 13.3717 13.9719 12.6217 13.5319C12.0617 13.2219 11.8917 12.5719 12.2417 12.0819C12.5017 11.6519 13.0217 11.5819 13.5017 11.7919C14.0717 12.0219 14.5117 12.2119 15.0717 12.2119C17.4217 12.2119 18.8517 9.7619 21.7417 9.5819V8.5519C21.8317 8.5419 21.9417 8.5419 22.0417 8.5419C22.6017 8.5419 23.0417 8.6719 23.6217 8.9219C24.0817 9.1319 24.5817 9.0619 24.8817 8.6519C25.2317 8.1419 25.0617 7.5019 24.5117 7.1719C23.7417 6.7419 22.9117 6.5119 22.0417 6.5119C21.9417 6.5119 21.8317 6.5119 21.7417 6.5119V8.5519C19.4917 8.7519 18.0217 11.1319 15.0717 11.1319C14.2017 11.1319 13.3717 10.9019 12.6217 10.4619C12.0617 10.1519 11.8917 9.5019 12.2417 9.0119C12.5017 8.5919 13.0117 8.5219 13.5017 8.7219C14.0717 8.9519 14.5117 9.1419 15.0717 9.1419C17.4217 9.1419 18.8517 6.6919 21.7417 6.5119V5.4819C21.8317 5.4719 21.9417 5.4719 22.0417 5.4719C22.6017 5.4719 23.0417 5.6019 23.6217 5.8619C24.0817 6.0619 24.5817 5.9919 24.8817 5.5819C25.2317 5.0719 25.0617 4.4419 24.5017 4.1019C23.7417 3.6719 22.9117 3.4419 22.0417 3.4419C21.9017 3.4419 21.7717 3.4419 21.6317 3.4619C21.7017 3.8119 21.7417 4.1919 21.7417 4.5919V5.4819C19.4917 5.6919 18.0217 8.0619 15.0717 8.0619C14.1917 8.0619 13.3717 7.8419 12.6017 7.3919C12.0617 7.0619 11.8917 6.4419 12.2417 5.9419C12.5017 5.5219 13.0117 5.4519 13.5017 5.6519C14.0717 5.8819 14.5117 6.0619 15.0717 6.0619C17.4017 6.0619 18.8317 3.6819 21.6317 3.4619C21.2317 1.2519 19.6317 0.0019 17.1317 0.0019H4.6017C1.7017 0.0019 0.0017 1.7019 0.0017 4.5919V24.4219C0.0017 26.3819 0.7717 27.7819 2.1517 28.5019V30.2419C2.1517 31.2219 2.8617 31.9219 3.8317 31.9219ZM6.8017 8.3319C5.6717 8.3319 4.7817 7.4219 4.7817 6.3019C4.7817 5.2019 5.6717 4.2919 6.8017 4.2919C7.9117 4.2919 8.8117 5.2019 8.8117 6.3019C8.8117 7.4219 7.9117 8.3319 6.8017 8.3319ZM5.8717 18.5719C5.2517 18.5719 4.7817 18.0819 4.7817 17.4719C4.7817 16.8619 5.2517 16.3619 5.8717 16.3619H8.8217C9.4417 16.3619 9.9217 16.8619 9.9217 17.4719C9.9217 18.0819 9.4417 18.5719 8.8217 18.5719ZM12.9017 18.5719C12.2917 18.5719 11.8117 18.0819 11.8117 17.4719C11.8117 16.8619 12.2917 16.3619 12.9017 16.3619H15.8717C16.4917 16.3619 16.9617 16.8619 16.9617 17.4719C16.9617 18.0819 16.4917 18.5719 15.8717 18.5719ZM5.8717 21.6419C5.2517 21.6419 4.7817 21.1619 4.7817 20.5419C4.7817 19.9319 5.2517 19.4519 5.8717 19.4519H8.8217C9.4417 19.4519 9.9217 19.9319 9.9217 20.5419C9.9217 21.1619 9.4417 21.6419 8.8217 21.6419ZM12.9017 21.6419C12.2917 21.6419 11.8117 21.1619 11.8117 20.5419C11.8117 19.9319 12.2917 19.4519 12.9017 19.4519H15.8717C16.4917 19.4519 16.9617 19.9319 16.9617 20.5419C16.9617 21.1619 16.4917 21.6419 15.8717 21.6419ZM5.8717 24.7219C5.2517 24.7219 4.7817 24.2319 4.7817 23.6319C4.7817 23.0119 5.2517 22.5219 5.8717 22.5219H8.8217C9.4417 22.5219 9.9217 23.0119 9.9217 23.6319C9.9217 24.2319 9.4417 24.7219 8.8217 24.7219ZM12.9017 24.7219C12.2917 24.7219 11.8117 24.2319 11.8117 23.6319C11.8117 23.0119 12.2917 22.5219 12.9017 22.5219H15.8717C16.4917 22.5219 16.9617 23.0119 16.9617 23.6319C16.9617 24.2319 16.4917 24.7219 15.8717 24.7219Z" />
        </svg>
    