
        <svg xmlns="http://www.w3.org/2000/svg" viewBox="0 0 100 100">
            <path d="M0.0017 3.3703V11.2403C0.0017 13.3603 1.2517 14.6103 3.3517 14.6103H26.4917C28.5917 14.6103 29.8517 13.3603 29.8517 11.2403V3.3703C29.8517 1.2703 28.5917 0.0003 26.4917 0.0003H3.3517C1.2517 0.0003 0.0017 1.2703 0.0017 3.3703ZM19.7217 7.9303C19.7217 7.5203 20.0617 7.1803 20.4717 7.1803H25.1617C25.5517 7.1803 25.9017 7.5203 25.9017 7.9303C25.9017 8.3403 25.5517 8.6703 25.1617 8.6703H20.4717C20.0617 8.6703 19.7217 8.3403 19.7217 7.9303ZM11.8617 7.9303C11.8617 7.5203 12.1917 7.1803 12.6217 7.1803H17.3017C17.6917 7.1803 18.0317 7.5203 18.0317 7.9303C18.0317 8.3403 17.6917 8.6703 17.3017 8.6703H12.6217C12.1917 8.6703 11.8617 8.3403 11.8617 7.9303ZM3.9817 7.9303C3.9817 7.5203 4.3217 7.1803 4.7217 7.1803H9.4017C9.8217 7.1803 10.1517 7.5203 10.1517 7.9303C10.1517 8.3403 9.8217 8.6703 9.4017 8.6703H4.7217C4.3217 8.6703 3.9817 8.3403 3.9817 7.9303ZM19.7217 10.6803C19.7217 10.2503 20.0617 9.9303 20.4717 9.9303H25.1617C25.5517 9.9303 25.9017 10.2503 25.9017 10.6803C25.9017 11.0903 25.5517 11.4103 25.1617 11.4103H20.4717C20.0617 11.4103 19.7217 11.0903 19.7217 10.6803ZM11.8617 10.6803C11.8617 10.2503 12.1917 9.9303 12.6217 9.9303H17.3017C17.6917 9.9303 18.0317 10.2503 18.0317 10.6803C18.0317 11.0903 17.6917 11.4103 17.3017 11.4103H12.6217C12.1917 11.4103 11.8617 11.0903 11.8617 10.6803ZM3.9817 10.6803C3.9817 10.2503 4.3217 9.9303 4.7217 9.9303H9.4017C9.8217 9.9303 10.1517 10.2503 10.1517 10.6803C10.1517 11.0903 9.8217 11.4103 9.4017 11.4103H4.7217C4.3217 11.4103 3.9817 11.0903 3.9817 10.6803ZM16.3817 19.6403C16.3817 23.1303 19.1017 24.8203 19.1017 27.6203C19.1017 28.2503 18.9617 28.7703 18.5817 29.4403C18.2917 29.9603 18.4617 30.5203 18.8817 30.8203C19.4017 31.1803 20.1217 31.0703 20.4817 30.4103C20.9917 29.5503 21.2417 28.6103 21.2417 27.6203C21.2417 24.1103 18.5117 22.4203 18.5117 19.6403C18.5117 19.0103 18.6717 18.4903 19.0317 17.8203C19.3517 17.3003 19.1717 16.7203 18.7117 16.4303C18.2017 16.0903 17.4917 16.2203 17.1417 16.8403C16.6317 17.6903 16.3817 18.6603 16.3817 19.6403ZM8.5917 19.6403C8.5917 23.1303 11.3017 24.8203 11.3017 27.6203C11.3017 28.2503 11.1717 28.7703 10.7817 29.4403C10.5017 29.9603 10.6517 30.5203 11.0817 30.8203C11.6017 31.1803 12.3317 31.0703 12.6917 30.4103C13.1917 29.5503 13.4417 28.6103 13.4417 27.6203C13.4417 24.1103 10.7217 22.4203 10.7217 19.6403C10.7217 19.0103 10.8617 18.4903 11.2417 17.8203C11.5417 17.3003 11.3717 16.7203 10.9217 16.4303C10.4017 16.0903 9.7017 16.2203 9.3417 16.8403C8.8317 17.6903 8.5917 18.6603 8.5917 19.6403ZM12.4917 19.6503C12.4917 23.1303 15.2017 24.8303 15.2017 27.6203C15.2017 28.2703 15.0717 28.7703 14.6817 29.4503C14.4017 29.9603 14.5517 30.5303 14.9717 30.8303C15.5017 31.1803 16.2317 31.0703 16.5917 30.4203C17.1017 29.5503 17.3417 28.6103 17.3417 27.6203C17.3417 24.1203 14.6217 22.4203 14.6217 19.6503C14.6217 19.0103 14.7617 18.4903 15.1417 17.8203C15.4417 17.3103 15.2717 16.7203 14.8217 16.4303C14.3117 16.0903 13.6017 16.2203 13.2417 16.8503C12.7217 17.7103 12.4917 18.6603 12.4917 19.6503ZM20.5517 20.1703C20.5517 20.5203 20.8517 20.7703 21.2117 20.7103L22.1617 20.5903L21.5817 21.3603C21.3717 21.6403 21.4217 22.0203 21.7117 22.1903C22.0217 22.3803 22.4317 22.2403 22.5517 21.8903L22.9117 21.0503L23.3017 21.9103C23.4417 22.2403 23.7917 22.3803 24.1017 22.2103C24.4017 22.0403 24.4617 21.6403 24.2417 21.3503L23.6917 20.6003L24.6117 20.7203C24.9717 20.7703 25.2817 20.5303 25.2817 20.1703C25.2817 19.8003 24.9817 19.5603 24.6117 19.6103L23.6917 19.7103L24.2417 18.9503C24.4617 18.6703 24.4017 18.2803 24.1017 18.1203C23.7917 17.9403 23.4217 18.0803 23.2817 18.4103L22.9217 19.2803L22.5517 18.4103C22.4217 18.0703 22.0317 17.9303 21.7117 18.1203C21.4217 18.2803 21.3617 18.6603 21.5817 18.9503L22.1517 19.7103L21.2117 19.6203C20.8517 19.5703 20.5517 19.8203 20.5517 20.1703ZM4.5917 27.6303C4.5917 28.0003 4.8917 28.2403 5.2617 28.1803L6.1917 28.0803L5.6417 28.8403C5.4117 29.1303 5.4617 29.5103 5.7817 29.6803C6.0817 29.8603 6.4317 29.7303 6.5717 29.3903L6.9617 28.5303L7.3217 29.3803C7.4517 29.7203 7.8417 29.8603 8.1517 29.6803C8.4617 29.5203 8.5117 29.1403 8.2817 28.8503L7.7217 28.0703L8.6617 28.1803C9.0217 28.2303 9.3317 28.0003 9.3317 27.6303C9.3317 27.2803 9.0217 27.0303 8.6617 27.0803L7.7317 27.1903L8.2817 26.4403C8.4917 26.1603 8.4517 25.7803 8.1517 25.6103C7.8617 25.4103 7.4617 25.5503 7.3217 25.9003L6.9517 26.7703L6.5817 25.8903C6.4617 25.5603 6.0817 25.4203 5.7817 25.5903C5.4717 25.7503 5.4017 26.1603 5.6217 26.4503L6.1717 27.1903L5.2717 27.0803C4.9117 27.0203 4.5917 27.2803 4.5917 27.6303Z" />
        </svg>
    