
        <svg xmlns="http://www.w3.org/2000/svg" viewBox="0 0 100 100">
            <path d="M3.4017 27.5522C3.9617 27.5522 4.3317 27.1622 4.3317 26.6022V25.4922H13.4617V26.6022C13.4617 27.1622 13.8417 27.5522 14.4017 27.5522C14.9717 27.5522 15.3517 27.1622 15.3517 26.6022V25.3722C16.9717 25.0222 17.8017 23.8522 17.8017 21.9122V10.6122C18.4717 10.3122 19.1717 10.1022 19.9717 10.1022C20.6017 10.1022 21.1317 10.2322 21.8117 10.6022C22.2317 10.8422 22.6017 10.6722 22.7917 10.4022C23.0117 10.0622 23.0017 9.5522 22.4917 9.2622C21.7017 8.8022 20.8617 8.5822 19.9717 8.5822C19.1617 8.5822 18.4417 8.7422 17.8017 8.9922V10.6122C16.1617 11.3622 14.7117 12.6422 12.4817 12.6422C11.5917 12.6422 10.7317 12.4422 9.9617 11.9622C9.4717 11.6822 9.4417 11.1722 9.6517 10.8422C9.8417 10.5322 10.2417 10.3822 10.6417 10.6022C11.3217 10.9922 11.8517 11.1322 12.4817 11.1322C14.4817 11.1322 15.8917 9.7122 17.8017 8.9922V7.3622C18.4717 7.0522 19.1717 6.8322 19.9717 6.8322C20.6117 6.8322 21.1417 6.9622 21.8217 7.3522C22.2317 7.5822 22.6217 7.4222 22.8017 7.1322C23.0117 6.8122 23.0117 6.2822 22.5117 5.9922C21.7117 5.5322 20.8617 5.3122 19.9717 5.3122C19.1617 5.3122 18.4417 5.4722 17.8017 5.7322V7.3622C16.1717 8.1122 14.7117 9.3822 12.4917 9.3822C11.6017 9.3822 10.7417 9.1722 9.9717 8.7022C9.4717 8.4222 9.4417 7.9122 9.6517 7.5822C9.8417 7.2822 10.2517 7.1122 10.6517 7.3522C11.3217 7.7222 11.8517 7.8722 12.4917 7.8722C14.4917 7.8722 15.9017 6.4522 17.8017 5.7322V4.0922C18.4717 3.7822 19.1717 3.5722 19.9717 3.5722C20.6017 3.5722 21.1317 3.7022 21.8117 4.0822C22.2317 4.3122 22.6017 4.1522 22.7917 3.8822C23.0117 3.5422 23.0017 3.0222 22.4917 2.7322C21.7017 2.2722 20.8617 2.0522 19.9717 2.0522C19.1117 2.0522 18.3717 2.2222 17.6917 2.4922C17.7617 2.8222 17.8017 3.1722 17.8017 3.5622V4.0922C16.1617 4.8422 14.7117 6.1122 12.4817 6.1122C11.5917 6.1122 10.7317 5.9222 9.9617 5.4422C9.4717 5.1522 9.4417 4.6422 9.6517 4.3122C9.8417 4.0122 10.2417 3.8522 10.6417 4.0822C11.3217 4.4622 11.8517 4.6022 12.4817 4.6022C14.4517 4.6022 15.8417 3.2322 17.6917 2.4922C17.3717 0.8422 16.1717 0.0022 14.1917 0.0022H3.6217C1.2517 0.0022 0.0017 1.1922 0.0017 3.5622V21.9122C0.0017 23.8522 0.8317 25.0222 2.4517 25.3722V26.6022C2.4517 27.1622 2.8317 27.5522 3.4017 27.5522ZM4.7417 6.4922C3.8117 6.4922 3.0517 5.7222 3.0517 4.7722C3.0517 3.8422 3.8117 3.0822 4.7417 3.0822C5.6817 3.0822 6.4617 3.8422 6.4617 4.7722C6.4617 5.7222 5.6817 6.4922 4.7417 6.4922ZM3.7417 16.3022C3.3117 16.3022 2.9717 15.9722 2.9717 15.5422C2.9717 15.1122 3.3117 14.7822 3.7417 14.7822H7.2517C7.6917 14.7822 8.0317 15.1122 8.0317 15.5422C8.0317 15.9722 7.6917 16.3022 7.2517 16.3022ZM10.5517 16.3022C10.1117 16.3022 9.7717 15.9722 9.7717 15.5422C9.7717 15.1122 10.1117 14.7822 10.5517 14.7822H14.0617C14.4817 14.7822 14.8217 15.1122 14.8217 15.5422C14.8217 15.9722 14.4817 16.3022 14.0617 16.3022ZM3.7417 19.3222C3.3117 19.3222 2.9717 18.9922 2.9717 18.5622C2.9717 18.1322 3.3117 17.8022 3.7417 17.8022H7.2517C7.6917 17.8022 8.0317 18.1322 8.0317 18.5622C8.0317 18.9922 7.6917 19.3222 7.2517 19.3222ZM10.5517 19.3222C10.1117 19.3222 9.7717 18.9922 9.7717 18.5622C9.7717 18.1322 10.1117 17.8022 10.5517 17.8022H14.0617C14.4817 17.8022 14.8217 18.1322 14.8217 18.5622C14.8217 18.9922 14.4817 19.3222 14.0617 19.3222ZM3.7417 22.3522C3.3117 22.3522 2.9717 22.0122 2.9717 21.5822C2.9717 21.1522 3.3117 20.8122 3.7417 20.8122H7.2517C7.6917 20.8122 8.0317 21.1522 8.0317 21.5822C8.0317 22.0122 7.6917 22.3522 7.2517 22.3522ZM10.5517 22.3522C10.1117 22.3522 9.7717 22.0122 9.7717 21.5822C9.7717 21.1522 10.1117 20.8122 10.5517 20.8122H14.0617C14.4817 20.8122 14.8217 21.1522 14.8217 21.5822C14.8217 22.0122 14.4817 22.3522 14.0617 22.3522Z" />
        </svg>
    