
        <svg xmlns="http://www.w3.org/2000/svg" viewBox="0 0 100 100">
            <path d="M3.6117 29.732C4.3817 29.732 4.9217 29.192 4.9217 28.432V27.242H14.8517V28.432C14.8517 29.192 15.3917 29.732 16.1617 29.732C16.9217 29.732 17.4617 29.192 17.4617 28.432V26.962C18.9617 26.422 19.7717 25.122 19.7717 23.172V11.062C20.1517 10.932 20.5617 10.862 21.0117 10.862C21.6017 10.862 22.0917 10.982 22.7117 11.292C23.1517 11.522 23.5917 11.402 23.8317 11.062C24.1317 10.642 24.0317 10.052 23.4917 9.752C22.7217 9.302 21.8917 9.082 21.0117 9.082C20.5617 9.082 20.1517 9.132 19.7717 9.222V11.062C17.8617 11.662 16.3517 13.422 13.7817 13.422C12.8917 13.422 12.0517 13.202 11.2817 12.752C10.7617 12.452 10.6617 11.872 10.9417 11.462C11.1817 11.102 11.6417 10.982 12.0717 11.192C12.6917 11.512 13.1817 11.672 13.7817 11.672C15.9717 11.672 17.4117 9.762 19.7717 9.222V7.882C20.1517 7.762 20.5617 7.692 21.0117 7.692C21.6117 7.692 22.0917 7.812 22.7217 8.132C23.1517 8.352 23.6017 8.242 23.8517 7.882C24.1317 7.472 24.0517 6.892 23.5117 6.582C22.7317 6.142 21.8917 5.902 21.0117 5.902C20.5617 5.902 20.1517 5.962 19.7717 6.062V7.882C17.8617 8.482 16.3517 10.252 13.7817 10.252C12.9017 10.252 12.0617 10.042 11.3017 9.582C10.7617 9.282 10.6617 8.702 10.9417 8.292C11.1817 7.932 11.6417 7.812 12.0717 8.032C12.6917 8.342 13.1817 8.512 13.7817 8.512C15.9817 8.512 17.4217 6.602 19.7717 6.062V4.722C20.1517 4.592 20.5617 4.522 21.0117 4.522C21.6017 4.522 22.0917 4.652 22.7117 4.972C23.1517 5.192 23.5917 5.062 23.8317 4.722C24.1317 4.312 24.0317 3.722 23.4917 3.422C22.7217 2.972 21.8917 2.742 21.0117 2.742C20.5217 2.742 20.0717 2.812 19.6517 2.922C19.7317 3.272 19.7717 3.652 19.7717 4.082V4.722C17.8617 5.322 16.3517 7.092 13.7817 7.092C12.8917 7.092 12.0517 6.882 11.2817 6.422C10.7617 6.122 10.6617 5.542 10.9417 5.132C11.1817 4.772 11.6217 4.652 12.0717 4.862C12.6917 5.172 13.1817 5.332 13.7817 5.332C15.9417 5.332 17.3817 3.482 19.6517 2.922C19.2617 1.022 17.8717 0.002 15.6517 0.002H4.1117C1.4717 0.002 0.0017 1.442 0.0017 4.082V23.172C0.0017 25.122 0.8117 26.422 2.3117 26.962V28.432C2.3117 29.192 2.8517 29.732 3.6117 29.732ZM5.7617 7.422C4.7417 7.422 3.9117 6.572 3.9117 5.542C3.9117 4.522 4.7417 3.692 5.7617 3.692C6.8017 3.692 7.6317 4.522 7.6317 5.542C7.6317 6.572 6.8017 7.422 5.7617 7.422ZM4.8017 17.442C4.2817 17.442 3.8817 17.032 3.8817 16.512C3.8817 15.982 4.2817 15.572 4.8017 15.572H8.0417C8.5617 15.572 8.9717 15.982 8.9717 16.512C8.9717 17.032 8.5617 17.442 8.0417 17.442ZM11.7317 17.442C11.2017 17.442 10.7917 17.032 10.7917 16.512C10.7917 15.982 11.2017 15.572 11.7317 15.572H14.9617C15.4917 15.572 15.8917 15.982 15.8917 16.512C15.8917 17.032 15.4917 17.442 14.9617 17.442ZM4.8017 20.482C4.2817 20.482 3.8817 20.072 3.8817 19.562C3.8817 19.032 4.2817 18.622 4.8017 18.622H8.0417C8.5617 18.622 8.9717 19.032 8.9717 19.562C8.9717 20.072 8.5617 20.482 8.0417 20.482ZM11.7317 20.482C11.2017 20.482 10.7917 20.072 10.7917 19.562C10.7917 19.032 11.2017 18.622 11.7317 18.622H14.9617C15.4917 18.622 15.8917 19.032 15.8917 19.562C15.8917 20.072 15.4917 20.482 14.9617 20.482ZM4.8017 23.542C4.2817 23.542 3.8817 23.122 3.8817 22.602C3.8817 22.092 4.2817 21.672 4.8017 21.672H8.0417C8.5617 21.672 8.9717 22.092 8.9717 22.602C8.9717 23.122 8.5617 23.542 8.0417 23.542ZM11.7317 23.542C11.2017 23.542 10.7917 23.122 10.7917 22.602C10.7917 22.092 11.2017 21.672 11.7317 21.672H14.9617C15.4917 21.672 15.8917 22.092 15.8917 22.602C15.8917 23.122 15.4917 23.542 14.9617 23.542Z" />
        </svg>
    