
        <svg xmlns="http://www.w3.org/2000/svg" viewBox="0 0 100 100">
            <path d="M7.1017 20.4397H19.4317C24.2217 20.4397 26.5317 18.1397 26.5317 13.3697V7.0697C26.5317 2.2997 24.2217 -0.0003 19.4317 -0.0003H7.1017C2.3217 -0.0003 0.0017 2.2997 0.0017 7.0697V13.3697C0.0017 18.1397 2.3217 20.4397 7.1017 20.4397ZM17.9617 5.8697H8.5817C7.9917 5.8697 7.5017 6.1897 7.2917 6.6797H1.9017C2.0017 3.3797 3.6317 1.8897 7.1017 1.8897H19.4317C22.9017 1.8897 24.5317 3.3797 24.6417 6.6797H19.2517C19.0417 6.1897 18.5617 5.8697 17.9617 5.8697ZM7.1017 18.5497C3.5017 18.5497 1.8917 16.9497 1.8917 13.3697V7.8597H7.2917C7.5017 8.3597 7.9917 8.6697 8.5817 8.6697H17.9617C18.5617 8.6697 19.0417 8.3597 19.2517 7.8597H24.6417V13.3697C24.6417 16.9497 23.0417 18.5497 19.4317 18.5497ZM13.2617 12.6697C13.8917 12.6597 14.4017 12.1397 14.4017 11.5497C14.4017 10.9297 13.8917 10.4197 13.2617 10.4197C12.6417 10.4197 12.1417 10.9297 12.1417 11.5497C12.1417 12.1597 12.6417 12.6797 13.2617 12.6697Z" />
        </svg>
    