
        <svg xmlns="http://www.w3.org/2000/svg" viewBox="0 0 100 100">
            <path d="M3.0217 22.1517H13.6717C15.6417 22.1517 16.6917 21.1017 16.6917 19.1517V3.0117C16.6917 1.0417 15.6417 0.0017 13.6717 0.0017H3.0217C1.0517 0.0017 0.0117 1.0417 0.0117 3.0117V6.4717H0.0017V7.0517H0.0117V19.1517C0.0117 21.1017 1.0517 22.1517 3.0217 22.1517ZM3.0517 21.5717C1.4317 21.5717 0.5817 20.7417 0.5817 19.1117V7.0517H3.1317C4.6217 7.0517 5.3917 6.2717 5.3917 4.7817V0.6117H4.8017V4.7617C4.8017 5.8817 4.2217 6.4717 3.0917 6.4717H0.5817V3.0517C0.5817 1.4217 1.4317 0.5717 3.0517 0.5717H13.6417C15.2717 0.5717 16.1117 1.4217 16.1117 3.0517V19.1117C16.1117 20.7417 15.2717 21.5717 13.6417 21.5717Z" />
        </svg>
    