
        <svg xmlns="http://www.w3.org/2000/svg" viewBox="0 0 100 100">
            <path d="M11.7523 23.5031C18.2323 23.5031 23.5123 18.2331 23.5123 11.7531C23.5123 5.2731 18.2323 0.0031 11.7523 0.0031C5.2723 0.0031 0.0023 5.2731 0.0023 11.7531C0.0023 18.2331 5.2723 23.5031 11.7523 23.5031ZM19.5323 11.7531C19.5323 12.5131 18.5123 13.1031 17.2623 13.1031H14.6823C14.3623 13.1031 14.2623 13.1531 14.0623 13.3631L9.8823 17.9331C9.7423 18.0931 9.5423 18.1731 9.3523 18.1731H8.6223C8.4023 18.1731 8.2723 17.9731 8.3623 17.7531L10.4923 13.0931L7.3723 12.7531L6.2723 14.7631C6.1623 14.9431 6.0123 15.0231 5.7823 15.0231H5.4923C5.2923 15.0231 5.1523 14.8931 5.1523 14.6831V8.8231C5.1523 8.6131 5.2923 8.4831 5.4923 8.4831H5.7823C6.0123 8.4831 6.1623 8.5631 6.2723 8.7531L7.3723 10.7731L10.4923 10.4331L8.3623 5.7631C8.2723 5.5331 8.4023 5.3331 8.6223 5.3331H9.3523C9.5423 5.3331 9.7423 5.4231 9.8823 5.5731L14.0623 10.1531C14.2623 10.3731 14.3623 10.4131 14.6823 10.4131H17.2623C18.5123 10.4131 19.5323 10.9931 19.5323 11.7531Z" />
        </svg>
    