
        <svg xmlns="http://www.w3.org/2000/svg" viewBox="0 0 100 100">
            <path d="M4.5517 27.1958H17.1817C20.1317 27.1958 21.7217 25.6258 21.7217 22.7158V4.4858C21.7217 1.5658 20.1317 -0.0042 17.1817 -0.0042H4.5517C1.5917 -0.0042 0.0017 1.5658 0.0017 4.4858V22.7158C0.0017 25.6258 1.5917 27.1958 4.5517 27.1958ZM4.5817 3.6258H6.8817V7.0358C6.8817 7.6558 6.5617 7.9658 5.9617 7.9658H3.6217V4.6058C3.6217 3.9458 3.9617 3.6258 4.5817 3.6258ZM4.5817 23.5758C3.9617 23.5758 3.6217 23.2358 3.6217 22.5958V10.1858H6.0017C8.0417 10.1858 9.0917 9.1358 9.0917 7.1458V3.6258H17.1417C17.7617 3.6258 18.1017 3.9458 18.1017 4.6058V22.5958C18.1017 23.2358 17.7617 23.5758 17.1417 23.5758Z" />
        </svg>
    