
        <svg xmlns="http://www.w3.org/2000/svg" viewBox="0 0 100 100">
            <path d="M10.1717 -0.0035C8.1417 -0.0335 5.9017 0.9865 4.5217 3.1065C4.3317 3.3765 4.1617 3.6665 3.9817 4.0665C6.4317 4.4765 8.4017 6.6065 8.4017 9.0365C8.4017 9.6965 8.2817 10.3065 8.0617 10.8565C9.4317 10.6365 10.3117 10.3365 11.1317 9.9065C13.1217 8.8165 14.6517 6.9965 14.6517 4.4865C14.6517 1.6965 12.7017 0.0265 10.1717 -0.0035ZM10.6617 4.6765C10.4617 4.8365 10.1417 4.8265 9.9617 4.6065C9.7817 4.3965 9.8117 4.0765 10.0317 3.8865L11.6617 2.5165C11.8817 2.3465 12.2017 2.3665 12.3617 2.5865C12.5417 2.8065 12.5417 3.1165 12.3117 3.2965ZM4.0917 12.2665C5.8917 12.2665 7.3517 11.1465 7.3517 9.0365C7.3517 7.0565 5.5317 5.0365 3.1417 5.0365C1.1917 5.0365 0.0017 6.5665 0.0017 8.2365C0.0017 10.6065 2.0117 12.2665 4.0917 12.2665ZM3.5617 10.6565C3.2317 10.9265 2.6717 10.6365 2.0317 9.8365C1.3817 9.0365 1.1917 8.4765 1.5117 8.2065C1.8417 7.9265 2.3817 8.2065 3.0317 8.9965C3.6817 9.8165 3.8717 10.3865 3.5617 10.6565ZM8.4917 20.1265H9.4217C10.0817 20.1265 10.4717 19.7965 10.4717 19.1565V11.3765C9.6017 11.6965 8.6017 11.9065 7.4317 11.9965V19.1565C7.4317 19.7965 7.8417 20.1265 8.4917 20.1265Z" />
        </svg>
    