
        <svg xmlns="http://www.w3.org/2000/svg" viewBox="0 0 100 100">
            <path d="M12.7923 25.5961C19.8723 25.5961 25.6023 19.8661 25.6023 12.7961C25.6023 5.7261 19.8723 -0.0039 12.7923 -0.0039C5.7323 -0.0039 0.0023 5.7261 0.0023 12.7961C0.0023 19.8661 5.7323 25.5961 12.7923 25.5961ZM20.5823 12.8361C20.5823 13.7561 19.4023 14.5461 18.0623 14.5461H15.5423C15.3323 14.5461 15.2923 14.5561 15.1123 14.7261L11.1423 18.8561C10.9823 19.0561 10.7223 19.1761 10.4523 19.1761H9.4423C9.0723 19.1761 8.8523 18.7861 9.0023 18.4361L10.9123 14.5161L8.5223 14.2461L7.5323 15.8161C7.4023 16.0561 7.1723 16.1961 6.9023 16.1961H6.6223C6.2423 16.1961 5.9723 15.9261 5.9723 15.5761V10.0761C5.9723 9.7261 6.2423 9.4661 6.6223 9.4661H6.9023C7.1723 9.4661 7.4023 9.5961 7.5323 9.8361L8.5223 11.4061L10.9123 11.1361L9.0023 7.2161C8.8523 6.8661 9.0723 6.4761 9.4423 6.4761H10.4523C10.7223 6.4761 10.9823 6.6061 11.1423 6.7961L15.1123 10.9261C15.2923 11.0961 15.3323 11.1061 15.5423 11.1061H18.0623C19.4023 11.1061 20.5823 11.8961 20.5823 12.8361Z" />
        </svg>
    