
        <svg xmlns="http://www.w3.org/2000/svg" viewBox="0 0 100 100">
            <path d="M8.1317 -0.0039C4.3717 -0.0039 0.0017 3.7161 0.0017 7.2861C0.0017 10.2461 2.9617 12.6661 5.4517 12.6561C8.8617 12.6461 13.3917 8.7461 13.3917 5.5061C13.3917 2.3761 10.9817 0.0161 8.1317 -0.0039ZM7.6217 5.6161C7.2317 5.0761 7.3617 4.3461 7.8917 3.9561L9.5417 2.7761C10.0617 2.3861 10.7917 2.5161 11.1717 3.0561C11.5617 3.5961 11.4617 4.3161 10.9117 4.7061L9.2817 5.8661C8.7317 6.2661 7.9917 6.1561 7.6217 5.6161ZM4.3717 10.8561C3.7017 10.8561 2.6517 10.0061 2.0017 8.9461C1.3617 7.8761 1.3917 7.0461 2.0617 7.0461C2.7217 7.0461 3.7717 7.8761 4.4217 8.9461C5.0617 10.0061 5.0417 10.8561 4.3717 10.8561ZM8.7217 21.1561H10.1417C11.0117 21.1561 11.5817 20.6761 11.5817 19.8161V11.2861C10.3117 12.4261 8.7917 13.2861 7.2617 13.6961V19.8161C7.2617 20.6761 7.8417 21.1561 8.7217 21.1561Z" />
        </svg>
    