
        <svg xmlns="http://www.w3.org/2000/svg" viewBox="0 0 100 100">
            <path d="M9.4723 6.4995H16.6123C16.7323 6.0595 17.1423 5.7495 17.6123 5.7495H26.4423C26.9223 5.7495 27.3023 6.0595 27.4323 6.4995H34.5823V6.2595C34.5823 2.1395 32.3823 -0.0005 28.1823 -0.0005H15.8623C11.6623 -0.0005 9.4723 2.1395 9.4723 6.2595ZM3.5123 17.1595C3.6123 17.0395 3.5623 16.8495 3.4523 16.7295C1.6523 14.9395 0.5723 12.5295 0.5723 9.8095C0.5723 7.0795 1.6523 4.6795 3.4523 2.8695C3.5623 2.7695 3.6123 2.5795 3.5123 2.4595C3.4023 2.3295 3.2023 2.3395 3.0723 2.4695C1.1723 4.3695 0.0023 6.9395 0.0023 9.8095C0.0023 12.6795 1.1723 15.2495 3.0723 17.1395C3.2023 17.2695 3.4023 17.2895 3.5123 17.1595ZM40.5323 17.1595C40.6523 17.2895 40.8523 17.2695 40.9823 17.1395C42.8823 15.2495 44.0523 12.6795 44.0523 9.8095C44.0523 6.9395 42.8823 4.3695 40.9823 2.4695C40.8523 2.3395 40.6523 2.3295 40.5323 2.4595C40.4423 2.5795 40.4723 2.7695 40.5923 2.8695C42.4023 4.6795 43.4723 7.0795 43.4723 9.8095C43.4723 12.5295 42.4023 14.9395 40.5923 16.7295C40.4723 16.8495 40.4423 17.0395 40.5323 17.1595ZM6.6123 13.9695C6.7023 13.8495 6.6823 13.6595 6.5523 13.5595C5.5223 12.6595 5.0423 11.2695 5.0423 9.8095C5.0423 8.3295 5.5223 6.9595 6.5523 6.0595C6.6823 5.9395 6.7023 5.7495 6.6123 5.6495C6.4923 5.5195 6.2923 5.5295 6.1623 5.6595C5.0823 6.7295 4.4623 8.1895 4.4623 9.8095C4.4623 11.4295 5.0823 12.8795 6.1623 13.9595C6.2923 14.0895 6.4923 14.0995 6.6123 13.9695ZM37.4423 13.9695C37.5623 14.0995 37.7623 14.0895 37.8823 13.9595C38.9623 12.8795 39.5823 11.4295 39.5823 9.8095C39.5823 8.1895 38.9623 6.7295 37.8823 5.6595C37.7623 5.5295 37.5623 5.5195 37.4423 5.6495C37.3523 5.7495 37.3723 5.9395 37.5023 6.0595C38.5323 6.9595 39.0123 8.3295 39.0123 9.8095C39.0123 11.2695 38.5323 12.6595 37.5023 13.5595C37.3723 13.6595 37.3523 13.8495 37.4423 13.9695ZM15.8623 19.6195H28.1823C32.3823 19.6195 34.5723 17.4695 34.5723 13.3695V7.0895H27.4323C27.3023 7.5495 26.9223 7.8395 26.4423 7.8395H17.6123C17.1423 7.8395 16.7323 7.5495 16.6123 7.0895H9.4723V13.3695C9.4723 17.4695 11.6723 19.6195 15.8623 19.6195ZM22.0223 11.4695C21.5323 11.4795 21.1323 11.0695 21.1323 10.5895C21.1323 10.0995 21.5323 9.6995 22.0223 9.6995C22.5123 9.6995 22.9223 10.0995 22.9223 10.5895C22.9223 11.0895 22.5123 11.4595 22.0223 11.4695Z" />
        </svg>
    