
        <svg xmlns="http://www.w3.org/2000/svg" viewBox="0 0 100 100">
            <path d="M5.1717 -0.0044C2.3817 0.0156 0.0017 2.3156 0.0017 5.4056C0.0017 8.6056 4.5117 12.4456 7.8517 12.4556C10.2617 12.4656 13.1917 10.1056 13.1917 7.1856C13.1917 3.6556 8.8617 -0.0244 5.1717 -0.0044ZM5.6817 5.4956C5.3217 6.0356 4.5917 6.1456 4.0517 5.7556L2.4117 4.5956C1.8717 4.1956 1.7717 3.5056 2.1817 2.9656C2.5317 2.4356 3.2617 2.3056 3.7717 2.6856L5.4117 3.8656C5.9417 4.2456 6.0717 4.9656 5.6817 5.4956ZM8.9417 10.7356C8.2817 10.7356 8.2617 9.9056 8.8917 8.8456C9.5317 7.8056 10.5717 6.9756 11.2117 6.9756C11.8817 6.9756 11.9217 7.8056 11.2717 8.8456C10.6417 9.9056 9.6117 10.7356 8.9417 10.7356ZM4.5917 20.8856C5.4017 20.8856 5.9417 20.4356 5.9417 19.6556V13.3856C4.4717 12.9656 3.0217 12.1056 1.8017 11.0256V19.6556C1.8017 20.4356 2.3317 20.8856 3.1517 20.8856Z" />
        </svg>
    