
        <svg xmlns="http://www.w3.org/2000/svg" viewBox="0 0 100 100">
            <path d="M11.3523 22.7147C17.6023 22.7147 22.7123 17.6047 22.7123 11.3547C22.7123 5.1047 17.6023 0.0047 11.3523 0.0047C5.1123 0.0047 0.0023 5.1047 0.0023 11.3547C0.0023 17.6047 5.1123 22.7147 11.3523 22.7147ZM19.0123 11.3447C19.0123 12.0247 18.0723 12.5347 16.9323 12.5347H14.3823C14.0623 12.5347 13.9423 12.5747 13.7323 12.8047L9.7923 17.1247C9.6823 17.2547 9.5123 17.3347 9.3523 17.3347H8.6623C8.5223 17.3347 8.4223 17.1947 8.4923 17.0247L10.5323 12.5347L7.2023 12.2147L6.1323 14.1447C6.0323 14.2947 5.9523 14.3547 5.7523 14.3547H5.4723C5.3323 14.3547 5.2423 14.2847 5.2423 14.1247V8.5647C5.2423 8.4047 5.3323 8.3347 5.4723 8.3347H5.7523C5.9523 8.3347 6.0323 8.3947 6.1323 8.5347L7.2023 10.4747L10.5323 10.1447L8.4923 5.6447C8.4223 5.4847 8.5223 5.3547 8.6623 5.3547H9.3523C9.5123 5.3547 9.6823 5.4247 9.7923 5.5647L13.7323 9.8747C13.9423 10.1047 14.0623 10.1447 14.3823 10.1447H16.9323C18.0723 10.1447 19.0123 10.6547 19.0123 11.3447Z" />
        </svg>
    