
        <svg xmlns="http://www.w3.org/2000/svg" viewBox="0 0 100 100">
            <path d="M10.3823 6.6708H17.6023C17.7623 6.1608 18.2323 5.8408 18.7923 5.8408H28.0123C28.5823 5.8408 29.0423 6.1608 29.2123 6.6708H36.4223V6.3408C36.4223 2.1108 33.9923 0.0008 29.5523 0.0008H17.2523C12.8123 0.0008 10.3823 2.1108 10.3823 6.3408ZM4.1823 17.8808C4.4623 17.5508 4.3823 17.1308 4.0523 16.7708C2.4123 15.0108 1.4623 12.6808 1.4623 10.0908C1.4623 7.5008 2.4123 5.1708 4.0523 3.4008C4.3823 3.0508 4.4623 2.6108 4.1823 2.3008C3.9023 1.9608 3.4023 1.9708 3.0423 2.3408C1.1223 4.3808 0.0023 7.1108 0.0023 10.0908C0.0023 13.0708 1.1223 15.8008 3.0423 17.8408C3.4023 18.2108 3.9023 18.2108 4.1823 17.8808ZM42.6423 17.8808C42.9423 18.2108 43.4423 18.2108 43.7823 17.8408C45.7123 15.8008 46.8323 13.0708 46.8323 10.0908C46.8323 7.1108 45.7123 4.3808 43.7823 2.3408C43.4423 1.9708 42.9423 1.9608 42.6423 2.3008C42.3623 2.6108 42.4523 3.0508 42.7723 3.4008C44.4223 5.1708 45.3623 7.5008 45.3623 10.0908C45.3623 12.6808 44.4223 15.0108 42.7723 16.7708C42.4523 17.1308 42.3623 17.5508 42.6423 17.8808ZM39.4223 14.5908C39.7223 14.9308 40.2523 14.9308 40.5823 14.5308C41.6123 13.3408 42.2123 11.7808 42.2123 10.0908C42.2123 8.4008 41.6123 6.8408 40.5823 5.6508C40.2523 5.2508 39.7223 5.2508 39.4223 5.5808C39.1423 5.9108 39.2623 6.3208 39.5523 6.6908C40.3623 7.5708 40.7423 8.7908 40.7423 10.0908C40.7423 11.3908 40.3623 12.6108 39.5523 13.4908C39.2623 13.8608 39.1423 14.2708 39.4223 14.5908ZM7.4023 14.5908C7.6923 14.2708 7.5723 13.8608 7.2923 13.4908C6.4823 12.6108 6.0823 11.3908 6.0823 10.0908C6.0823 8.7908 6.4823 7.5708 7.2923 6.6908C7.5723 6.3208 7.6923 5.9108 7.4023 5.5808C7.1123 5.2508 6.5723 5.2508 6.2623 5.6508C5.2123 6.8408 4.6123 8.4008 4.6123 10.0908C4.6123 11.7808 5.2123 13.3408 6.2623 14.5308C6.5723 14.9308 7.1123 14.9308 7.4023 14.5908ZM17.2523 20.1708H29.5823C34.1723 20.1708 36.4423 17.9308 36.4423 13.3808V7.5708H29.2223C29.0523 8.0708 28.5923 8.4008 28.0223 8.4008H18.8223C18.2623 8.4008 17.7823 8.0708 17.6123 7.5708H10.3823V13.3808C10.3823 17.9308 12.6723 20.1708 17.2523 20.1708ZM23.4123 12.5908C22.8623 12.6108 22.4023 12.1308 22.4023 11.5908C22.4023 11.0408 22.8623 10.5808 23.4123 10.5808C23.9723 10.5808 24.4323 11.0408 24.4323 11.5908C24.4323 12.1308 23.9723 12.5708 23.4123 12.5908Z" />
        </svg>
    