
        <svg xmlns="http://www.w3.org/2000/svg" viewBox="0 0 100 100">
            <path d="M12.1023 24.2064C18.7823 24.2064 24.2123 18.7864 24.2123 12.1064C24.2123 5.4264 18.7823 -0.0036 12.1023 -0.0036C5.4223 -0.0036 0.0023 5.4264 0.0023 12.1064C0.0023 18.7864 5.4223 24.2064 12.1023 24.2064ZM12.1023 21.8164C6.7223 21.8164 2.3823 17.4864 2.3823 12.1064C2.3823 6.7264 6.7223 2.3764 12.1023 2.3764C17.4823 2.3764 21.8323 6.7264 21.8323 12.1064C21.8323 17.4864 17.4823 21.8164 12.1023 21.8164ZM12.1023 6.1864C8.8623 6.1864 6.2023 8.8564 6.2023 12.1064C6.2023 13.6764 6.7923 15.1564 7.8823 16.2464L8.5423 15.5164C7.6623 14.5864 7.1623 13.3664 7.1623 12.1064C7.1623 9.3964 9.4023 7.1464 12.1023 7.1464C14.8123 7.1464 17.0623 9.3964 17.0623 12.1064C17.0623 13.3664 16.5623 14.5864 15.6823 15.5164L16.3223 16.2464C17.4123 15.1564 18.0223 13.6764 18.0223 12.1064C18.0223 8.8564 15.3523 6.1864 12.1023 6.1864ZM12.1023 7.8164C9.7523 7.8164 7.8423 9.7464 7.8423 12.1064C7.8423 13.1864 8.2423 14.2164 8.9723 15.0164L9.6323 14.2764C9.1023 13.6764 8.8223 12.9164 8.8223 12.1064C8.8223 10.2864 10.3023 8.7964 12.1023 8.7964C13.9123 8.7964 15.4023 10.2864 15.4023 12.1064C15.4023 12.9164 15.1123 13.6764 14.5623 14.2664L15.2323 15.0164C15.9723 14.2064 16.3823 13.1864 16.3823 12.1064C16.3823 9.7464 14.4623 7.8164 12.1023 7.8164ZM12.1023 9.4564C10.6623 9.4564 9.4723 10.6664 9.4723 12.1064C9.4723 12.7364 9.6923 13.2964 10.0823 13.7664L10.7423 13.0164C10.5423 12.7364 10.4523 12.4264 10.4523 12.1064C10.4523 11.1864 11.1923 10.4364 12.1023 10.4364C13.0223 10.4364 13.7723 11.1864 13.7723 12.1064C13.7723 12.4264 13.6623 12.7364 13.4623 13.0064L14.1323 13.7564C14.5223 13.2964 14.7523 12.7264 14.7523 12.1064C14.7523 10.6664 13.5423 9.4564 12.1023 9.4564ZM8.7523 17.8864H15.4523C15.8423 17.8864 16.0323 17.4464 15.7723 17.1564L12.4723 13.4164C12.2923 13.2064 11.9423 13.2164 11.7523 13.4164L8.4523 17.1564C8.1823 17.4464 8.3823 17.8864 8.7523 17.8864Z" />
        </svg>
    