
        <svg xmlns="http://www.w3.org/2000/svg" viewBox="0 0 100 100">
            <path d="M6.5517 19.8033H18.8817C23.2017 19.8033 25.4317 17.6233 25.4317 13.3733V6.4233C25.4317 2.1833 23.2017 0.0033 18.8817 0.0033H6.5517C2.2217 0.0033 0.0017 2.1833 0.0017 6.4233V13.3733C0.0017 17.6233 2.2217 19.8033 6.5517 19.8033ZM17.1817 5.7933H8.2417C7.7317 5.7933 7.3117 6.0833 7.1717 6.5533H0.8717V6.4233C0.8717 2.7433 2.7817 0.8633 6.5517 0.8633H18.8817C22.6417 0.8633 24.5517 2.7433 24.5517 6.4233V6.5533H18.2617C18.1217 6.0833 17.7117 5.7933 17.1817 5.7933ZM6.5517 18.9233C2.7817 18.9233 0.8717 17.0533 0.8717 13.3733V7.2633H7.1717C7.3117 7.7233 7.7317 8.0233 8.2417 8.0233H17.1817C17.7117 8.0233 18.1217 7.7233 18.2617 7.2633H24.5517V13.3733C24.5517 17.0533 22.6417 18.9233 18.8817 18.9233ZM12.7117 11.7533C13.2317 11.7433 13.6617 11.3333 13.6617 10.8133C13.6617 10.3033 13.2317 9.8633 12.7117 9.8633C12.1917 9.8633 11.7617 10.3033 11.7617 10.8133C11.7617 11.3233 12.1917 11.7633 12.7117 11.7533Z" />
        </svg>
    