
        <svg xmlns="http://www.w3.org/2000/svg" viewBox="0 0 100 100">
            <path d="M27.6917 12.2119C27.6817 10.8119 25.7817 9.5719 23.3417 9.5719H18.3717C17.7217 9.5719 17.4817 9.4319 17.0717 9.0119L9.0017 0.4219C8.7317 0.1419 8.4217 0.0019 8.0817 0.0019H6.3517C6.0517 0.0019 5.8617 0.2819 6.0117 0.6019L10.2117 9.5519L4.1117 10.2219L1.9317 6.4719C1.7617 6.1719 1.5017 6.0419 1.1217 6.0419H0.5717C0.2317 6.0419 0.0017 6.2819 0.0017 6.6119V17.8119C0.0017 18.1419 0.2317 18.3719 0.5717 18.3719H1.1217C1.5017 18.3719 1.7617 18.2319 1.9317 17.9519L4.1117 14.2019L10.2117 14.8719L6.0117 23.8119C5.8617 24.1419 6.0517 24.4219 6.3517 24.4219H8.0817C8.4217 24.4219 8.7317 24.2819 9.0017 24.0019L17.0717 15.4119C17.4817 14.9719 17.7217 14.8519 18.3717 14.8519H23.3417C25.7817 14.8519 27.6817 13.6019 27.6917 12.2119Z" />
        </svg>
    