
        <svg xmlns="http://www.w3.org/2000/svg" viewBox="0 0 100 100">
            <path d="M6.8717 20.1708H17.3917C21.9817 20.1708 24.2617 17.9308 24.2617 13.3808V6.8008C24.2617 2.2508 21.9817 0.0008 17.3917 0.0008H6.8717C2.2717 0.0008 0.0017 2.2508 0.0017 6.8008V13.3808C0.0017 17.9308 2.2717 20.1708 6.8717 20.1708ZM16.7317 5.8408H7.5317C6.9817 5.8408 6.5317 6.1508 6.3417 6.6308H1.4517C1.5117 3.1208 3.2417 1.4508 6.8717 1.4508H17.3917C21.0117 1.4508 22.7617 3.1208 22.8117 6.6308H17.9317C17.7417 6.1508 17.3017 5.8408 16.7317 5.8408ZM6.8717 18.7308C3.1917 18.7308 1.4517 17.0008 1.4517 13.3808V7.6208H6.3417C6.5317 8.1008 6.9817 8.4008 7.5317 8.4008H16.7317C17.3017 8.4008 17.7517 8.1008 17.9317 7.6208H22.8117V13.3808C22.8117 17.0008 21.0717 18.7308 17.3917 18.7308ZM12.1317 12.2808C12.7117 12.2708 13.1817 11.8008 13.1817 11.2408C13.1817 10.6608 12.7117 10.1908 12.1317 10.1908C11.5517 10.1908 11.0717 10.6608 11.0717 11.2408C11.0717 11.8108 11.5517 12.2908 12.1317 12.2808Z" />
        </svg>
    