
        <svg xmlns="http://www.w3.org/2000/svg" viewBox="0 0 100 100">
            <path d="M0.0017 7.4131H7.8117C8.0517 6.9231 8.6017 6.5831 9.2317 6.5831H19.0517C19.6917 6.5831 20.2217 6.9231 20.4717 7.4131H28.2917V7.1731C28.2917 2.2731 25.7817 0.0031 20.6917 0.0031H7.5917C2.5117 0.0031 0.0017 2.2731 0.0017 7.1731ZM7.5917 21.9831H20.7117C25.9017 21.9831 28.3017 19.5831 28.3017 14.4031V8.8031H20.4717C20.2517 9.2931 19.7217 9.6331 19.0517 9.6331H9.2317C8.6017 9.6331 8.0617 9.2931 7.8317 8.8031H0.0017V14.4031C0.0017 19.5831 2.4017 21.9831 7.5917 21.9831ZM14.1417 14.2731C13.4517 14.2831 12.8817 13.7131 12.8817 13.0231C12.8817 12.3131 13.4517 11.7531 14.1417 11.7531C14.8517 11.7531 15.4117 12.3131 15.4117 13.0231C15.4117 13.7031 14.8517 14.2631 14.1417 14.2731Z" />
        </svg>
    