
        <svg xmlns="http://www.w3.org/2000/svg" viewBox="0 0 100 100">
            <path d="M10.5917 0.0007C8.5817 -0.0193 6.3417 0.9607 4.8517 3.0507C4.6317 3.3307 4.4317 3.6407 4.2217 4.1107C6.7617 4.5707 8.8217 6.8207 8.8217 9.3307C8.8217 10.0407 8.6817 10.7007 8.4417 11.2807C9.9817 11.0607 10.9417 10.7107 11.8217 10.2207C13.7617 9.1107 15.2817 7.3007 15.2817 4.7107C15.2817 1.7207 13.1717 0.0207 10.5917 0.0007ZM11.0417 5.0307C10.8017 5.2307 10.4417 5.2007 10.2517 4.9607C10.0417 4.7107 10.0817 4.3607 10.3217 4.1607L12.0517 2.7107C12.2817 2.5107 12.6317 2.5407 12.8317 2.7907C13.0317 3.0207 13.0217 3.3707 12.7717 3.5707ZM4.2617 12.7307C6.0817 12.7307 7.7017 11.6007 7.7017 9.3307C7.7017 7.3007 5.7917 5.1607 3.3017 5.1607C1.2117 5.1607 0.0017 6.8207 0.0017 8.5207C0.0017 11.0607 2.1717 12.7307 4.2617 12.7307ZM3.6817 10.9407C3.3517 11.2407 2.7917 10.9407 2.1017 10.1107C1.4217 9.2807 1.2417 8.7107 1.5717 8.4307C1.9117 8.1207 2.4617 8.4007 3.1617 9.2507C3.8317 10.1007 4.0117 10.6607 3.6817 10.9407ZM8.9017 20.7307H9.8217C10.5517 20.7307 11.0117 20.3607 11.0117 19.6307V11.8907C10.0417 12.2507 8.9417 12.4607 7.6917 12.5207V19.6307C7.6917 20.3607 8.1717 20.7307 8.9017 20.7307Z" />
        </svg>
    