
        <svg xmlns="http://www.w3.org/2000/svg" viewBox="0 0 100 100">
            <path d="M11.4923 22.977C17.8323 22.977 22.9823 17.847 22.9823 11.497C22.9823 5.147 17.8323 -0.003 11.4923 -0.003C5.1423 -0.003 0.0023 5.147 0.0023 11.497C0.0023 17.847 5.1423 22.977 11.4923 22.977ZM11.4923 22.087C5.6323 22.087 0.8923 17.357 0.8923 11.497C0.8923 5.637 5.6323 0.887 11.4923 0.887C17.3523 0.887 22.0923 5.637 22.0923 11.497C22.0923 17.357 17.3523 22.087 11.4923 22.087ZM19.1323 11.487C19.1323 10.777 18.1723 10.257 17.0123 10.257H14.4723C14.1523 10.257 14.0423 10.207 13.8323 9.987L9.8323 5.617C9.7123 5.477 9.5423 5.387 9.3623 5.387H8.6723C8.4923 5.387 8.4023 5.557 8.4823 5.727L10.5223 10.257L7.2923 10.577L6.2123 8.627C6.1123 8.477 6.0123 8.407 5.8023 8.407H5.5223C5.3523 8.407 5.2523 8.497 5.2523 8.667V14.297C5.2523 14.477 5.3523 14.567 5.5223 14.567H5.8023C6.0123 14.567 6.1123 14.497 6.2123 14.347L7.2923 12.387L10.5223 12.717L8.4823 17.237C8.4023 17.417 8.4923 17.577 8.6723 17.577H9.3623C9.5423 17.577 9.7123 17.497 9.8323 17.357L13.8323 12.987C14.0423 12.757 14.1523 12.717 14.4723 12.717H17.0123C18.1723 12.717 19.1323 12.187 19.1323 11.487Z" />
        </svg>
    