
        <svg xmlns="http://www.w3.org/2000/svg" viewBox="0 0 100 100">
            <path d="M4.9317 9.0817C7.5717 9.1017 9.7817 7.0317 9.7617 4.5217C9.7417 2.0517 7.5717 0.0017 4.9317 0.0017C2.6817 0.0017 1.1517 1.3117 0.3317 2.5417C0.0917 2.8917 0.0017 3.2717 0.0017 3.6917V5.3917C0.0017 5.8117 0.1017 6.1917 0.3317 6.5417C1.1417 7.7617 2.6817 9.0517 4.9317 9.0817ZM1.9917 6.2617C1.7117 6.2617 1.5017 6.0517 1.5017 5.7617V3.3017C1.5017 3.0217 1.7117 2.8117 1.9917 2.8117C2.2717 2.8117 2.4817 3.0217 2.4817 3.3017V5.7617C2.4817 6.0517 2.2717 6.2617 1.9917 6.2617ZM5.6117 18.4617H8.6417V8.8917C7.7917 9.5517 6.7417 9.9817 5.6117 10.0917ZM6.6317 22.0817H7.6017C8.2617 22.0817 8.6417 21.7617 8.6417 21.1517V19.5517H5.6117V21.1517C5.6117 21.7617 6.0017 22.0817 6.6317 22.0817Z" />
        </svg>
    