
        <svg xmlns="http://www.w3.org/2000/svg" viewBox="0 0 100 100">
            <path d="M11.4923 22.977C17.8323 22.977 22.9823 17.847 22.9823 11.497C22.9823 5.147 17.8323 -0.003 11.4923 -0.003C5.1423 -0.003 0.0023 5.147 0.0023 11.497C0.0023 17.847 5.1423 22.977 11.4923 22.977ZM11.5523 21.817C5.8523 21.817 1.2323 17.207 1.2323 11.497C1.2323 5.787 5.8523 1.167 11.5523 1.167C17.2623 1.167 21.8823 5.787 21.8823 11.497C21.8823 17.207 17.2623 21.817 11.5523 21.817ZM11.4923 20.867C16.6623 20.867 20.8723 16.667 20.8723 11.497C20.8723 6.317 16.6623 2.107 11.4923 2.107C6.3123 2.107 2.1123 6.317 2.1123 11.497C2.1123 16.667 6.3123 20.867 11.4923 20.867ZM12.7523 7.767C12.4523 8.147 11.9423 8.417 11.5323 8.417C11.4823 8.417 11.4423 8.407 11.4023 8.407C11.4023 8.377 11.3923 8.307 11.3923 8.237C11.3923 7.767 11.6523 7.317 11.8923 7.017C12.2223 6.637 12.7523 6.337 13.2223 6.327C13.2323 6.377 13.2323 6.447 13.2323 6.507C13.2323 6.987 13.0323 7.427 12.7523 7.767ZM11.5923 14.977C10.9123 14.977 10.6523 15.347 10.1023 15.347C9.5323 15.347 9.1423 14.837 8.6923 14.207C8.1823 13.467 7.7623 12.317 7.7623 11.217C7.7623 9.467 8.8923 8.527 10.0223 8.527C10.6123 8.527 11.1123 8.927 11.4823 8.927C11.8523 8.927 12.3823 8.517 13.0623 8.517C13.3223 8.517 14.2523 8.527 14.8523 9.397C14.8023 9.457 13.8823 9.957 13.8823 11.137C13.8823 12.467 15.0623 12.937 15.0923 12.947C15.0923 12.977 14.9223 13.607 14.4823 14.227C14.1023 14.777 13.6723 15.337 13.0623 15.337C12.4523 15.337 12.3023 14.977 11.5923 14.977Z" />
        </svg>
    