
        <svg xmlns="http://www.w3.org/2000/svg" viewBox="0 0 100 100">
            <path d="M11.8623 23.7203C18.4123 23.7203 23.7023 18.4103 23.7023 11.8603C23.7023 5.3103 18.4123 0.0003 11.8623 0.0003C5.3123 0.0003 0.0023 5.3103 0.0023 11.8603C0.0023 18.4103 5.3123 23.7203 11.8623 23.7203ZM30.2123 19.8403C30.7223 20.4803 31.6323 20.5803 32.4023 19.7903C34.3023 17.8403 35.2423 14.9403 35.2423 11.8603C35.2423 8.8003 34.1823 5.8103 32.4023 3.9403C31.6523 3.1403 30.7423 3.2603 30.2123 3.8803C29.7323 4.4603 29.8823 5.1803 30.4123 5.7503C31.8023 7.2903 32.5623 9.4803 32.5623 11.8603C32.5623 14.2503 31.7923 16.4403 30.4123 17.9603C29.8923 18.5503 29.7423 19.2703 30.2123 19.8403ZM11.8623 20.1803C7.2523 20.1803 3.5323 16.4603 3.5323 11.8603C3.5323 7.2503 7.2523 3.5303 11.8623 3.5303C16.4523 3.5303 20.1823 7.2503 20.1823 11.8603C20.1823 16.4603 16.4523 20.1803 11.8623 20.1803ZM13.0123 8.0403C13.2923 7.6903 13.5023 7.2503 13.5023 6.7803C13.5023 6.7103 13.5023 6.6403 13.4723 6.6103C13.0123 6.6103 12.4723 6.9103 12.1523 7.2903C11.8923 7.5803 11.6523 8.0403 11.6523 8.5103C11.6523 8.5803 11.6723 8.6503 11.6723 8.6803C11.7023 8.6803 11.7323 8.6903 11.7923 8.6903C12.2023 8.6903 12.7123 8.4103 13.0123 8.0403ZM26.3523 16.4303C26.8523 17.0703 27.8323 17.1103 28.5223 16.3703C29.4823 15.3203 29.9923 13.6403 29.9923 11.8603C29.9923 10.0803 29.4823 8.3903 28.5223 7.3403C27.8323 6.6003 26.8523 6.6403 26.3523 7.2903C25.9223 7.8503 26.0623 8.5303 26.4823 9.1303C26.9523 9.7703 27.3023 10.9003 27.3023 11.8603C27.3023 12.8203 26.9523 13.9403 26.4823 14.5803C26.0623 15.1803 25.9223 15.8603 26.3523 16.4303ZM11.8523 15.2703C12.5623 15.2703 12.7123 15.6203 13.3223 15.6203C13.9323 15.6203 14.3423 15.0503 14.7423 14.5103C15.1923 13.8903 15.3623 13.2703 15.3623 13.2303C15.3123 13.2203 14.1423 12.7403 14.1423 11.4003C14.1423 10.2403 15.0723 9.7403 15.1123 9.6803C14.5223 8.8003 13.5823 8.7903 13.3223 8.7903C12.6423 8.7903 12.1023 9.2003 11.7323 9.2003C11.3523 9.2003 10.8723 8.8003 10.2823 8.8003C9.1423 8.8003 8.0123 9.7503 8.0123 11.4803C8.0123 12.6003 8.4423 13.7503 8.9523 14.4803C9.4023 15.1303 9.7923 15.6303 10.3723 15.6303C10.9123 15.6303 11.1823 15.2703 11.8523 15.2703Z" />
        </svg>
    