
        <svg xmlns="http://www.w3.org/2000/svg" viewBox="0 0 100 100">
            <path d="M10.2923 20.57C15.9623 20.57 20.5623 15.97 20.5623 10.29C20.5623 4.61 15.9623 0 10.2923 0C4.6023 0 0.0023 4.61 0.0023 10.29C0.0023 15.97 4.6023 20.57 10.2923 20.57ZM10.2923 18.68C5.6523 18.68 1.8823 14.93 1.8823 10.29C1.8823 5.65 5.6523 1.89 10.2923 1.89C14.9223 1.89 18.6823 5.65 18.6823 10.29C18.6823 14.93 14.9223 18.68 10.2923 18.68ZM26.7223 18.3C27.1023 18.74 27.7523 18.74 28.2023 18.25C30.1523 16.12 31.2523 13.32 31.2523 10.29C31.2523 7.25 30.1523 4.44 28.2023 2.33C27.7523 1.84 27.1023 1.83 26.7223 2.27C26.3423 2.7 26.4623 3.25 26.8923 3.73C28.4623 5.47 29.3423 7.77 29.3423 10.29C29.3423 12.81 28.4623 15.11 26.8923 16.85C26.4623 17.33 26.3423 17.88 26.7223 18.3ZM11.4123 6.57C11.6823 6.25 11.8823 5.8 11.8823 5.33C11.8823 5.27 11.8823 5.21 11.8723 5.17C11.4123 5.18 10.8823 5.46 10.5723 5.84C10.3223 6.13 10.0823 6.57 10.0823 7.04C10.0823 7.1 10.0923 7.17 10.0923 7.2C10.1223 7.2 10.1623 7.21 10.2023 7.21C10.6123 7.21 11.1223 6.94 11.4123 6.57ZM23.4423 14.96C23.8223 15.4 24.5323 15.41 24.9523 14.88C25.9723 13.62 26.5523 12.01 26.5523 10.29C26.5523 8.57 25.9723 6.96 24.9523 5.7C24.5323 5.17 23.8223 5.17 23.4423 5.61C23.0623 6.04 23.2223 6.56 23.5923 7.07C24.2923 7.93 24.6423 9.07 24.6423 10.29C24.6423 11.51 24.2923 12.63 23.5923 13.51C23.2223 14.02 23.0623 14.54 23.4423 14.96ZM10.2823 13.66C10.9723 13.66 11.1223 14.02 11.7223 14.02C12.3323 14.02 12.7223 13.46 13.1123 12.93C13.5323 12.3 13.7123 11.7 13.7123 11.67C13.6723 11.66 12.5323 11.19 12.5323 9.88C12.5323 8.73 13.4323 8.23 13.4723 8.18C12.8923 7.32 11.9723 7.31 11.7223 7.31C11.0623 7.31 10.5223 7.71 10.1623 7.71C9.7923 7.71 9.3123 7.32 8.7323 7.32C7.6123 7.32 6.5023 8.25 6.5023 9.96C6.5023 11.04 6.9223 12.18 7.4323 12.9C7.8623 13.52 8.2523 14.03 8.8123 14.03C9.3523 14.03 9.6023 13.66 10.2823 13.66Z" />
        </svg>
    