
        <svg xmlns="http://www.w3.org/2000/svg" viewBox="0 0 100 100">
            <path d="M3.3617 27.2698H11.1117V28.6098C11.1117 29.5398 11.8817 30.2898 12.8217 30.2898C13.7417 30.2898 14.5217 29.5398 14.5217 28.6098V27.2698H22.2617C24.3317 27.2698 25.6317 25.9798 25.6317 23.9498V19.4098C25.6317 17.3798 24.3317 16.0898 22.2617 16.0898H14.5217V14.1698H18.4017C20.4617 14.1698 21.7617 12.8798 21.7617 10.8398V6.2898C21.7617 4.2698 20.4617 2.9798 18.4017 2.9798H14.5217V1.6898C14.5217 0.7598 13.7417 -0.0002 12.8217 -0.0002C11.8817 -0.0002 11.1117 0.7598 11.1117 1.6898V2.9798H7.2217C5.1717 2.9798 3.8517 4.2698 3.8517 6.2898V10.8398C3.8517 12.8798 5.1717 14.1698 7.2217 14.1698H11.1117V16.0898H3.3617C1.3017 16.0898 0.0017 17.3798 0.0017 19.4098V23.9498C0.0017 25.9798 1.3017 27.2698 3.3617 27.2698Z" />
        </svg>
    