
        <svg xmlns="http://www.w3.org/2000/svg" viewBox="0 0 100 100">
            <path d="M22.7117 24.6673C22.8717 24.6673 23.0017 24.5273 23.0017 24.3773V0.2973C23.0017 0.1273 22.8717 -0.0027 22.7117 -0.0027C22.5617 -0.0027 22.4317 0.1273 22.4317 0.2973V24.3773C22.4317 24.5273 22.5617 24.6673 22.7117 24.6673ZM18.5317 10.7973C19.4217 10.7973 20.0317 10.1973 20.0317 9.2973V4.2573C20.0317 3.3473 19.4217 2.7373 18.5317 2.7373H8.9617C8.0717 2.7373 7.4617 3.3473 7.4617 4.2573V9.2973C7.4617 10.1973 8.0717 10.7973 8.9617 10.7973ZM18.5317 21.8573C19.4217 21.8573 20.0317 21.2473 20.0317 20.3573V15.3073C20.0317 14.4173 19.4217 13.8073 18.5317 13.8073H1.5017C0.6117 13.8073 0.0017 14.4173 0.0017 15.3073V20.3573C0.0017 21.2473 0.6117 21.8573 1.5017 21.8573Z" />
        </svg>
    