
        <svg xmlns="http://www.w3.org/2000/svg" viewBox="0 0 100 100">
            <path d="M6.1417 24.2856H10.5217C12.4417 24.2856 13.6017 23.0956 13.6017 21.1556V3.1256C13.6017 1.1756 12.4417 -0.0044 10.5217 -0.0044H6.1417C4.2217 -0.0044 3.0617 1.1756 3.0617 3.1256V21.1556C3.0617 23.0956 4.2217 24.2856 6.1417 24.2856ZM6.6817 21.4256C6.2017 21.4256 5.9217 21.1356 5.9217 20.6756V3.6056C5.9217 3.1356 6.2017 2.8556 6.6817 2.8556H9.9817C10.4617 2.8556 10.7417 3.1356 10.7417 3.6056V20.6756C10.7417 21.1356 10.4617 21.4256 9.9817 21.4256ZM18.7417 24.2856H23.1217C25.0317 24.2856 26.2017 23.0956 26.2017 21.1556V11.0556C26.2017 9.1056 25.0317 7.9256 23.1217 7.9256H18.7417C16.8117 7.9256 15.6417 9.1056 15.6417 11.0556V21.1556C15.6417 23.0956 16.8117 24.2856 18.7417 24.2856ZM19.2817 21.4256C18.7817 21.4256 18.5017 21.1356 18.5017 20.6756V11.5456C18.5017 11.0656 18.7817 10.7856 19.2817 10.7856H22.5717C23.0617 10.7856 23.3417 11.0656 23.3417 11.5456V20.6756C23.3417 21.1356 23.0617 21.4256 22.5717 21.4256ZM1.3917 29.1256H27.8317C28.5917 29.1256 29.2117 28.4656 29.2117 27.7056C29.2117 26.9256 28.5917 26.2856 27.8317 26.2856H1.3917C0.6217 26.2856 0.0017 26.9256 0.0017 27.7056C0.0017 28.4656 0.6217 29.1256 1.3917 29.1256Z" />
        </svg>
    