
        <svg xmlns="http://www.w3.org/2000/svg" viewBox="0 0 100 100">
            <path d="M1.4217 29.2125C2.1817 29.2125 2.8317 28.5925 2.8317 27.8325V1.3925C2.8317 0.6225 2.1817 0.0025 1.4217 0.0025C0.6417 0.0025 0.0017 0.6225 0.0017 1.3925V27.8325C0.0017 28.5925 0.6417 29.2125 1.4217 29.2125ZM7.9417 13.5825H18.3117C20.2717 13.5825 21.4417 12.4125 21.4417 10.4925V6.1025C21.4417 4.1925 20.2717 3.0225 18.3117 3.0225H7.9417C6.0017 3.0225 4.8117 4.1925 4.8117 6.1025V10.4925C4.8117 12.4125 6.0017 13.5825 7.9417 13.5825ZM8.4217 10.7225C7.9617 10.7225 7.6717 10.4425 7.6717 9.9525V6.6525C7.6717 6.1625 7.9617 5.8825 8.4217 5.8825H17.8317C18.3017 5.8825 18.5817 6.1625 18.5817 6.6525V9.9525C18.5817 10.4425 18.3017 10.7225 17.8317 10.7225ZM7.9417 26.1725H26.2517C28.1917 26.1725 29.3717 25.0125 29.3717 23.0825V18.7025C29.3717 16.7825 28.1917 15.6225 26.2517 15.6225H7.9417C6.0017 15.6225 4.8117 16.7825 4.8117 18.7025V23.0825C4.8117 25.0125 6.0017 26.1725 7.9417 26.1725ZM8.4217 23.3125C7.9617 23.3125 7.6717 23.0225 7.6717 22.5425V19.2425C7.6717 18.7625 7.9617 18.4825 8.4217 18.4825H25.7617C26.2417 18.4825 26.5217 18.7625 26.5217 19.2425V22.5425C26.5217 23.0225 26.2417 23.3125 25.7617 23.3125Z" />
        </svg>
    