
        <svg xmlns="http://www.w3.org/2000/svg" viewBox="0 0 100 100">
            <path d="M0.8217 12.1175H3.1017V19.8175C3.1017 21.5675 4.0317 22.5275 5.7417 22.5275H9.8217C11.5317 22.5275 12.4617 21.5675 12.4617 19.8175V12.1175H14.7217V15.6675C14.7217 17.4175 15.6517 18.3475 17.3717 18.3475H21.4417C23.1417 18.3475 24.0817 17.4175 24.0817 15.6675V12.1175H26.3517C26.8117 12.1175 27.1617 11.7075 27.1617 11.2475C27.1617 10.7975 26.8117 10.3975 26.3517 10.3975H24.0817V6.8275C24.0817 5.0875 23.1417 4.1475 21.4417 4.1475H17.3717C15.6517 4.1475 14.7217 5.0875 14.7217 6.8275V10.3975H12.4617V2.6875C12.4617 0.9375 11.5317 -0.0025 9.8217 -0.0025H5.7417C4.0317 -0.0025 3.1017 0.9375 3.1017 2.6875V10.3975H0.8217C0.3517 10.3975 0.0017 10.7975 0.0017 11.2475C0.0017 11.7075 0.3517 12.1175 0.8217 12.1175ZM5.8517 20.7375C5.2117 20.7375 4.8717 20.3875 4.8717 19.7975V2.7075C4.8717 2.1075 5.2117 1.7675 5.8517 1.7675H9.7117C10.3517 1.7675 10.6917 2.1075 10.6917 2.7075V19.7975C10.6917 20.3875 10.3517 20.7375 9.7117 20.7375ZM17.4617 16.5775C16.8417 16.5775 16.4917 16.2375 16.4917 15.6475V6.8675C16.4917 6.2575 16.8417 5.9175 17.4617 5.9175H21.3417C21.9617 5.9175 22.3117 6.2575 22.3117 6.8675V15.6475C22.3117 16.2375 21.9617 16.5775 21.3417 16.5775Z" />
        </svg>
    