
        <svg xmlns="http://www.w3.org/2000/svg" viewBox="0 0 100 100">
            <path d="M0.4217 25.2303C0.6417 25.2303 0.8317 25.0503 0.8317 24.8203V0.4103C0.8317 0.1903 0.6417 0.0003 0.4217 0.0003C0.1917 0.0003 0.0017 0.1903 0.0017 0.4103V24.8203C0.0017 25.0503 0.1917 25.2303 0.4217 25.2303ZM4.9417 11.1803H14.3417C15.4317 11.1803 16.1117 10.5003 16.1117 9.4103V4.5903C16.1117 3.5003 15.4317 2.8203 14.3417 2.8203H4.9417C3.8717 2.8203 3.1717 3.5003 3.1717 4.5903V9.4103C3.1717 10.5003 3.8717 11.1803 4.9417 11.1803ZM4.9417 22.3603H21.9917C23.0817 22.3603 23.7617 21.6803 23.7617 20.6003V15.7703C23.7617 14.6903 23.0817 14.0203 21.9917 14.0203H4.9417C3.8717 14.0203 3.1717 14.6903 3.1717 15.7703V20.6003C3.1717 21.6803 3.8717 22.3603 4.9417 22.3603Z" />
        </svg>
    