
        <svg xmlns="http://www.w3.org/2000/svg" viewBox="0 0 100 100">
            <path d="M27.0717 28.4792C27.7217 28.4792 28.2917 27.9492 28.2917 27.2892V1.1792C28.2917 0.5292 27.7217 -0.0008 27.0717 -0.0008C26.4117 -0.0008 25.8617 0.5292 25.8617 1.1792V27.2892C25.8617 27.9492 26.4117 28.4792 27.0717 28.4792ZM20.8517 13.1692C22.7117 13.1692 23.8117 12.0892 23.8117 10.2492V5.9792C23.8117 4.1392 22.7117 3.0592 20.8517 3.0592H11.0317C9.1517 3.0592 8.0617 4.1392 8.0617 5.9792V10.2492C8.0617 12.0892 9.1517 13.1692 11.0317 13.1692ZM20.8517 25.4092C22.7117 25.4092 23.8117 24.3292 23.8117 22.4892V18.2092C23.8117 16.3692 22.7117 15.2892 20.8517 15.2892H2.9617C1.0917 15.2892 0.0017 16.3692 0.0017 18.2092V22.4892C0.0017 24.3292 1.0917 25.4092 2.9617 25.4092Z" />
        </svg>
    