
        <svg xmlns="http://www.w3.org/2000/svg" viewBox="0 0 100 100">
            <path d="M0.8517 27.1647C1.3217 27.1647 1.7217 26.8147 1.7217 26.3547V0.8047C1.7217 0.3547 1.3217 0.0047 0.8517 0.0047C0.4017 0.0047 0.0017 0.3547 0.0017 0.8047V26.3547C0.0017 26.8147 0.4017 27.1647 0.8517 27.1647ZM6.5617 12.4547H15.4117C17.1517 12.4547 18.0917 11.5347 18.0917 9.8247V5.7447C18.0917 4.0347 17.1517 3.1047 15.4117 3.1047H6.5617C4.8317 3.1047 3.8817 4.0347 3.8817 5.7447V9.8247C3.8817 11.5347 4.8317 12.4547 6.5617 12.4547ZM6.5617 24.0747H23.7117C25.4517 24.0747 26.3917 23.1447 26.3917 21.4347V17.3547C26.3917 15.6547 25.4517 14.7147 23.7117 14.7147H6.5617C4.8317 14.7147 3.8817 15.6547 3.8817 17.3547V21.4347C3.8817 23.1447 4.8317 24.0747 6.5617 24.0747Z" />
        </svg>
    