
        <svg xmlns="http://www.w3.org/2000/svg" viewBox="0 0 100 100">
            <path d="M18.1292 1.4745C18.5392 1.4745 18.8692 1.1645 18.8692 0.7345C18.8692 0.3245 18.5392 0.0045 18.1292 0.0045C17.7192 0.0045 17.3892 0.3245 17.3892 0.7345C17.3892 1.1645 17.7192 1.4745 18.1292 1.4745ZM11.7792 3.8245C12.1892 3.8245 12.5192 3.4945 12.5192 3.0845C12.5192 2.6745 12.1892 2.3445 11.7792 2.3445C11.3692 2.3445 11.0392 2.6745 11.0392 3.0845C11.0392 3.4945 11.3692 3.8245 11.7792 3.8245ZM24.7492 4.2745C25.1692 4.2745 25.4892 3.9645 25.4892 3.5345C25.4892 3.1245 25.1692 2.8045 24.7492 2.8045C24.3392 2.8045 24.0092 3.1245 24.0092 3.5345C24.0092 3.9645 24.3392 4.2745 24.7492 4.2745ZM18.0492 14.8545C20.8392 14.8545 23.0992 12.5845 23.0992 9.7945C23.0992 7.0145 20.8392 4.7445 18.0492 4.7445C15.2592 4.7445 12.9892 7.0145 12.9892 9.7945C12.9892 12.5845 15.2592 14.8545 18.0492 14.8545ZM9.3892 10.4845C9.8092 10.4845 10.1292 10.1645 10.1292 9.7545C10.1292 9.3445 9.8092 9.0145 9.3892 9.0145C8.9792 9.0145 8.6492 9.3445 8.6492 9.7545C8.6492 10.1645 8.9792 10.4845 9.3892 10.4845ZM27.0892 10.6745C27.4992 10.6745 27.8292 10.3445 27.8292 9.9345C27.8292 9.5145 27.4992 9.1945 27.0892 9.1945C26.6792 9.1945 26.3592 9.5145 26.3592 9.9345C26.3592 10.3445 26.6792 10.6745 27.0892 10.6745ZM3.5592 13.1445C3.9692 13.1445 4.2992 12.8245 4.2992 12.3945C4.2992 11.9845 3.9692 11.6645 3.5592 11.6645C3.1392 11.6645 2.8292 11.9845 2.8292 12.3945C2.8292 12.8245 3.1392 13.1445 3.5592 13.1445ZM9.3092 22.9145C11.7092 22.9145 13.6392 20.9745 13.6392 18.5645C13.6392 16.1945 11.6792 14.2645 9.3092 14.2645C6.9092 14.2645 4.9892 16.1945 4.9892 18.5645C4.9892 20.9645 6.9092 22.9145 9.3092 22.9145ZM24.2792 17.2845C24.6892 17.2845 25.0192 16.9545 25.0192 16.5445C25.0192 16.1345 24.6892 15.8045 24.2792 15.8045C23.8692 15.8045 23.5392 16.1345 23.5392 16.5445C23.5392 16.9545 23.8692 17.2845 24.2792 17.2845ZM0.7392 19.2345C1.1492 19.2345 1.4792 18.9045 1.4792 18.4945C1.4792 18.0745 1.1492 17.7445 0.7392 17.7445C0.3292 17.7445 -0.0008 18.0745 -0.0008 18.4945C-0.0008 18.9045 0.3292 19.2345 0.7392 19.2345ZM17.9292 19.3345C18.3492 19.3345 18.6692 19.0045 18.6692 18.5945C18.6692 18.1845 18.3492 17.8545 17.9292 17.8545C17.5192 17.8545 17.1892 18.1845 17.1892 18.5945C17.1892 19.0045 17.5192 19.3345 17.9292 19.3345ZM15.3892 25.1945C15.8092 25.1945 16.1292 24.8645 16.1292 24.4545C16.1292 24.0345 15.8092 23.7145 15.3892 23.7145C14.9792 23.7145 14.6492 24.0345 14.6492 24.4545C14.6492 24.8645 14.9792 25.1945 15.3892 25.1945ZM3.4292 25.3745C3.8392 25.3745 4.1692 25.0445 4.1692 24.6245C4.1692 24.2145 3.8392 23.8845 3.4292 23.8845C3.0092 23.8845 2.6792 24.2145 2.6792 24.6245C2.6792 25.0445 3.0092 25.3745 3.4292 25.3745ZM9.2092 27.8745C9.6192 27.8745 9.9492 27.5545 9.9492 27.1445C9.9492 26.7345 9.6192 26.4045 9.2092 26.4045C8.7892 26.4045 8.4692 26.7345 8.4692 27.1445C8.4692 27.5545 8.7892 27.8745 9.2092 27.8745Z" />
        </svg>
    