
        <svg xmlns="http://www.w3.org/2000/svg" viewBox="0 0 100 100">
            <path d="M11.4923 22.977C17.8323 22.977 22.9823 17.847 22.9823 11.497C22.9823 5.147 17.8323 -0.003 11.4923 -0.003C5.1423 -0.003 0.0023 5.147 0.0023 11.497C0.0023 17.847 5.1423 22.977 11.4923 22.977ZM11.4923 22.087C5.6323 22.087 0.8923 17.357 0.8923 11.497C0.8923 5.637 5.6323 0.887 11.4923 0.887C17.3523 0.887 22.0923 5.637 22.0923 11.497C22.0923 17.357 17.3523 22.087 11.4923 22.087ZM17.2023 6.637C17.0323 6.107 16.9123 5.987 16.3823 5.817C15.1623 5.437 13.8023 5.427 12.4723 5.727L17.2823 10.547C17.6123 9.207 17.5823 7.847 17.2023 6.637ZM14.8523 14.847C15.9223 13.767 16.6723 12.517 17.1023 11.217L11.8023 5.927C10.5023 6.327 9.2423 7.097 8.1723 8.167C7.1023 9.237 6.3523 10.497 5.9323 11.787L11.2123 17.077C12.5323 16.667 13.7823 15.907 14.8523 14.847ZM10.5823 14.167C10.4723 14.257 10.3323 14.247 10.2223 14.157L8.8223 12.797C8.7423 12.717 8.7323 12.537 8.8223 12.437C8.9423 12.327 9.1023 12.337 9.1923 12.437L9.7123 12.977L10.2823 12.407L9.7423 11.887C9.6423 11.797 9.6423 11.627 9.7423 11.527C9.8323 11.437 9.9823 11.437 10.0823 11.527L10.6023 12.067L11.1823 11.507L10.6423 10.977C10.5423 10.887 10.5423 10.707 10.6423 10.627C10.7323 10.527 10.9023 10.527 10.9923 10.617L11.5123 11.157L12.0823 10.597L11.5523 10.077C11.4623 9.987 11.4623 9.807 11.5523 9.717C11.6523 9.617 11.8123 9.617 11.8923 9.717L12.4223 10.257L12.9823 9.687L12.4723 9.167C12.3723 9.057 12.3523 8.917 12.4523 8.817C12.5423 8.727 12.6923 8.717 12.7823 8.817L14.1923 10.197C14.2823 10.287 14.2823 10.467 14.1923 10.557C14.0823 10.667 13.9223 10.657 13.8423 10.557L13.3223 10.027L12.7623 10.597L13.2923 11.107C13.3823 11.187 13.3823 11.367 13.2923 11.477C13.1923 11.567 13.0123 11.557 12.9223 11.457L12.4223 10.947L11.8623 11.507L12.3723 12.007C12.4823 12.097 12.4823 12.267 12.3723 12.367C12.2923 12.457 12.1323 12.467 12.0323 12.377L11.5123 11.847L10.9423 12.407L11.4723 12.927C11.5823 13.007 11.5523 13.187 11.4723 13.267C11.3923 13.347 11.2423 13.387 11.1323 13.277L10.6023 12.737L10.0423 13.317L10.5823 13.837C10.6623 13.917 10.6623 14.077 10.5823 14.167ZM6.6423 17.187C7.8723 17.567 9.2223 17.587 10.5623 17.287L5.7423 12.457C5.4223 13.797 5.4523 15.157 5.8323 16.367C5.9923 16.897 6.1123 17.027 6.6423 17.187Z" />
        </svg>
    