
        <svg xmlns="http://www.w3.org/2000/svg" viewBox="0 0 100 100">
            <path d="M11.9523 23.9041C18.5523 23.9041 23.9023 18.5341 23.9023 11.9541C23.9023 5.3541 18.5523 0.0041 11.9523 0.0041C5.3623 0.0041 0.0023 5.3541 0.0023 11.9541C0.0023 18.5341 5.3623 23.9041 11.9523 23.9041ZM17.9023 7.1041C18.2323 8.2241 18.2723 9.4941 18.0123 10.7541L13.1323 5.8841C14.4023 5.6341 15.6723 5.6641 16.7923 5.9841C17.4723 6.2141 17.6823 6.4241 17.9023 7.1041ZM15.4523 15.4541C14.4423 16.4841 13.2623 17.2241 12.0223 17.6641L6.2323 11.8741C6.6823 10.6441 7.4023 9.4541 8.4423 8.4541C9.4423 7.4141 10.6323 6.6841 11.8623 6.2441L17.6623 12.0341C17.2123 13.2741 16.4923 14.4541 15.4523 15.4541ZM11.1123 14.4841C11.2023 14.3641 11.2023 14.1941 11.1123 14.0741L10.6723 13.6241L11.1123 13.2041L11.5223 13.6241C11.6523 13.7741 11.8323 13.7541 11.9423 13.6241C12.0723 13.5241 12.0723 13.3241 11.9423 13.2041L11.5123 12.7841L11.9523 12.3641L12.3823 12.7741C12.4923 12.8941 12.6923 12.9041 12.7923 12.7741C12.9223 12.6841 12.9023 12.4641 12.7923 12.3641L12.3623 11.9341L12.7923 11.4941L13.2323 11.9141C13.3623 12.0341 13.5323 12.0441 13.6523 11.9341C13.7723 11.8141 13.7723 11.6141 13.6523 11.5241L13.2223 11.0841L13.6523 10.6541L14.0723 11.0741C14.2123 11.1941 14.3923 11.1941 14.5123 11.0841C14.6123 10.9541 14.6223 10.7741 14.5123 10.6541L13.2323 9.3841C13.1123 9.2741 12.9523 9.2841 12.8123 9.3841C12.7023 9.5041 12.7123 9.6941 12.8123 9.8241L13.2423 10.2441L12.7923 10.6641L12.3723 10.2441C12.2823 10.1241 12.0923 10.1241 11.9623 10.2441C11.8523 10.3641 11.8523 10.5541 11.9623 10.6641L12.4023 11.0841L11.9523 11.5341L11.5223 11.0941C11.4123 10.9641 11.2223 10.9641 11.1223 11.1141C10.9923 11.2041 11.0023 11.4041 11.1223 11.5041L11.5323 11.9341L11.1123 12.3741L10.6923 11.9441C10.5723 11.8241 10.3723 11.8241 10.2623 11.9541C10.1323 12.0541 10.1323 12.2741 10.2623 12.3741L10.6923 12.7841L10.2523 13.2141L9.8323 12.7941C9.7123 12.6941 9.5423 12.6941 9.4123 12.7941C9.2923 12.9241 9.2923 13.1141 9.4123 13.2141L10.6723 14.4741C10.8023 14.5941 10.9823 14.6041 11.1123 14.4841ZM7.1023 17.9141C6.4123 17.6941 6.2023 17.4841 5.9923 16.8041C5.6623 15.6841 5.6223 14.4041 5.8723 13.1441L10.7623 18.0241C9.4923 18.2741 8.2223 18.2441 7.1023 17.9141Z" />
        </svg>
    