
        <svg xmlns="http://www.w3.org/2000/svg" viewBox="0 0 100 100">
            <path d="M17.5009 17.507C21.9009 13.107 23.4709 7.027 21.9109 2.007C21.6209 1.067 21.4409 0.887 20.4909 0.597C15.4909 -0.973 9.3909 0.597 4.9909 4.997C0.5909 9.397 -0.9791 15.507 0.5909 20.507C0.8709 21.437 1.0609 21.627 2.0009 21.907C7.0309 23.467 13.0909 21.907 17.5009 17.507ZM17.1009 17.107C12.7809 21.407 7.0309 22.867 2.1609 21.367C1.3809 21.127 1.3809 21.127 1.1309 20.327C-0.3791 15.497 1.1009 9.697 5.3909 5.397C9.7009 1.097 15.4909 -0.383 20.3209 1.137C21.1109 1.387 21.1109 1.387 21.3709 2.187C22.8709 7.037 21.3809 12.807 17.1009 17.107ZM6.1809 13.597L8.8809 16.297C9.0209 16.417 9.1909 16.417 9.3209 16.297C9.4309 16.167 9.4309 15.997 9.3209 15.867L8.2009 14.727L9.5009 13.437L10.6109 14.567C10.7509 14.667 10.9409 14.667 11.0609 14.567C11.1809 14.437 11.1809 14.247 11.0609 14.117L9.9309 12.997L11.2509 11.687L12.3709 12.817C12.4909 12.937 12.6809 12.937 12.8209 12.817C12.9109 12.677 12.9109 12.497 12.8209 12.367L11.6809 11.247L12.9809 9.947L14.1009 11.077C14.2309 11.177 14.4109 11.177 14.5509 11.077C14.6709 10.937 14.6709 10.767 14.5509 10.637L13.4309 9.507L14.7309 8.197L15.8509 9.327C15.9709 9.437 16.1709 9.437 16.2809 9.327C16.4009 9.207 16.4009 9.017 16.2809 8.907L13.5909 6.187C13.4709 6.087 13.2709 6.087 13.1609 6.187C13.0409 6.327 13.0409 6.497 13.1609 6.627L14.3009 7.777L12.9909 9.077L11.8509 7.937C11.7109 7.827 11.5409 7.827 11.4109 7.937C11.3009 8.057 11.3009 8.247 11.4109 8.387L12.5609 9.527L11.2609 10.827L10.1009 9.677C9.9809 9.567 9.7909 9.567 9.6809 9.677C9.5609 9.807 9.5609 9.977 9.6809 10.117L10.8209 11.267L9.5109 12.567L8.3609 11.417C8.2309 11.307 8.0609 11.307 7.9209 11.417C7.8209 11.547 7.8209 11.737 7.9209 11.857L9.0809 13.017L7.7809 14.317L6.6309 13.167C6.5009 13.047 6.3009 13.047 6.1809 13.167C6.0709 13.297 6.0709 13.477 6.1809 13.597Z" />
        </svg>
    