
        <svg xmlns="http://www.w3.org/2000/svg" viewBox="0 0 100 100">
            <path d="M12.6023 25.1986C19.5623 25.1986 25.2023 19.5586 25.2023 12.5986C25.2023 5.6386 19.5623 -0.0014 12.6023 -0.0014C5.6523 -0.0014 0.0023 5.6386 0.0023 12.5986C0.0023 19.5586 5.6523 25.1986 12.6023 25.1986ZM18.1923 8.1986C18.4423 9.0986 18.5023 10.0686 18.3623 11.0786L14.1323 6.8486C15.1423 6.6886 16.1123 6.7586 17.0023 7.0086C17.7023 7.2386 17.9623 7.4986 18.1923 8.1986ZM15.9223 15.8986C15.0023 16.8486 13.9023 17.5186 12.7623 17.9286L7.2623 12.4286C7.6923 11.3086 8.3523 10.1986 9.3023 9.2786C10.2023 8.3486 11.3123 7.6786 12.4523 7.2586L17.9423 12.7486C17.5323 13.8886 16.8623 14.9986 15.9223 15.8986ZM11.9423 15.1486C12.0923 14.9886 12.0923 14.7686 11.9423 14.6086L11.5423 14.1986L11.8123 13.9286L12.2123 14.3486C12.3523 14.4986 12.6023 14.4986 12.7523 14.3486C12.8923 14.1886 12.9023 13.9486 12.7523 13.7886L12.3323 13.3986L12.6123 13.1386L13.0123 13.5386C13.1723 13.6886 13.3923 13.6786 13.5423 13.5386C13.7023 13.3686 13.7023 13.1486 13.5423 12.9886L13.1523 12.5886L13.4223 12.3186L13.8323 12.7286C13.9823 12.8686 14.2123 12.8786 14.3623 12.7286C14.5223 12.5786 14.5223 12.3286 14.3623 12.1886L13.9723 11.7786L14.2223 11.5086L14.6323 11.9086C14.7823 12.0686 15.0223 12.0686 15.1723 11.9086C15.3123 11.7686 15.3323 11.5186 15.1723 11.3586L13.8323 10.0286C13.6723 9.8786 13.4423 9.8786 13.2923 10.0286C13.1323 10.1786 13.1323 10.4186 13.2923 10.5686L13.7023 10.9786L13.4223 11.2386L13.0223 10.8386C12.8823 10.6786 12.6323 10.6786 12.4823 10.8386C12.3323 10.9786 12.3323 11.2286 12.4823 11.3686L12.8923 11.7786L12.6123 12.0486L12.2123 11.6486C12.0423 11.4986 11.8223 11.4986 11.6723 11.6486C11.5223 11.8086 11.5223 12.0386 11.6723 12.1886L12.0623 12.5886L11.8123 12.8686L11.4023 12.4486C11.2623 12.3086 11.0023 12.3086 10.8623 12.4486C10.7023 12.6086 10.7023 12.8586 10.8623 12.9986L11.2623 13.3986L10.9923 13.6686L10.5923 13.2686C10.4423 13.1086 10.2023 13.1086 10.0423 13.2686C9.9023 13.4186 9.9123 13.6486 10.0423 13.8086L11.4023 15.1486C11.5523 15.2886 11.7923 15.2886 11.9423 15.1486ZM8.2123 18.1786C7.5123 17.9486 7.2423 17.6986 7.0223 16.9886C6.7723 16.0986 6.7023 15.1186 6.8623 14.1186L11.0823 18.3386C10.0923 18.4886 9.1023 18.4286 8.2123 18.1786Z" />
        </svg>
    