
        <svg xmlns="http://www.w3.org/2000/svg" viewBox="0 0 100 100">
            <path d="M25.0174 3.2375C24.5274 1.6475 23.9074 1.0275 22.3274 0.5275C20.4974 0.0075 18.4874 -0.1225 16.4374 0.1175L25.4374 9.1175C25.6774 7.0675 25.5474 5.0575 25.0174 3.2375ZM20.0774 20.0775C22.1074 18.0475 23.5674 15.6575 24.4874 13.1775L12.3774 1.0675C9.8974 1.9875 7.5074 3.4575 5.4874 5.4775C3.4574 7.5075 1.9874 9.8975 1.0774 12.3775L13.1874 24.4675C15.6574 23.5675 18.0474 22.0975 20.0774 20.0775ZM11.4174 18.5175C11.0574 18.8575 10.4674 18.8575 10.1174 18.5175L7.0374 15.4375C6.6974 15.0875 6.6874 14.4975 7.0374 14.1375C7.3974 13.7775 7.9974 13.7775 8.3474 14.1375L9.2274 15.0275L9.7074 14.5475L8.8174 13.6675C8.4474 13.3075 8.4474 12.7275 8.8174 12.3675C9.1774 12.0075 9.7774 12.0075 10.1174 12.3575L11.0074 13.2475L11.4774 12.7775L10.5974 11.8875C10.2374 11.5275 10.2374 10.9475 10.5974 10.5875C10.9574 10.2175 11.5374 10.2175 11.8974 10.5875L12.7774 11.4675L13.2674 10.9675L12.3874 10.0775C12.0374 9.7275 12.0374 9.1475 12.3874 8.7875C12.7574 8.4275 13.3374 8.4275 13.6874 8.7875L14.5674 9.6575L15.0474 9.1975L14.1574 8.3275C13.8174 7.9575 13.8074 7.3575 14.1574 7.0075C14.5174 6.6575 15.1174 6.6575 15.4574 7.0075L18.5374 10.0675C18.9074 10.4375 18.9074 11.0275 18.5374 11.3775C18.1774 11.7475 17.5974 11.7475 17.2274 11.3775L16.3474 10.4875L15.8774 10.9675L16.7574 11.8475C17.1274 12.2175 17.1274 12.8075 16.7574 13.1475C16.3974 13.5175 15.8274 13.5175 15.4574 13.1475L14.5674 12.2775L14.0874 12.7775L14.9674 13.6575C15.3274 14.0175 15.3174 14.5975 14.9674 14.9575C14.6074 15.3075 14.0274 15.3175 13.6674 14.9575L12.7774 14.0775L12.3074 14.5475L13.1974 15.4375C13.5474 15.7775 13.5474 16.3775 13.1974 16.7375C12.8374 17.0875 12.2474 17.0975 11.8874 16.7375L11.0074 15.8575L10.5274 16.3275L11.4174 17.2075C11.7774 17.5575 11.7774 18.1575 11.4174 18.5175ZM3.2374 25.0075C5.0574 25.5475 7.0674 25.6775 9.1174 25.4375L0.1174 16.4375C-0.1226 18.4875 0.0074 20.4975 0.5374 22.3175C1.0174 23.8975 1.6574 24.5275 3.2374 25.0075Z" />
        </svg>
    