
        <svg xmlns="http://www.w3.org/2000/svg" viewBox="0 0 100 100">
            <path d="M11.4923 22.977C17.8123 22.977 22.9823 17.827 22.9823 11.497C22.9823 5.167 17.8123 -0.003 11.4923 -0.003C5.1723 -0.003 0.0023 5.167 0.0023 11.497C0.0023 17.827 5.1723 22.977 11.4923 22.977ZM17.2423 6.597C17.6123 7.827 17.6523 9.197 17.3223 10.537L12.4823 5.697C13.8323 5.377 15.1923 5.407 16.4223 5.777C16.9423 5.957 17.0623 6.067 17.2423 6.597ZM14.8723 14.867C13.7923 15.937 12.5323 16.697 11.2123 17.107L5.8923 11.787C6.3123 10.487 7.0623 9.227 8.1423 8.147C9.2223 7.067 10.4923 6.307 11.8023 5.887L17.1323 11.217C16.7123 12.527 15.9523 13.797 14.8723 14.867ZM10.5823 14.177C10.6523 14.097 10.6523 13.937 10.5823 13.847L10.0423 13.327L10.6023 12.747L11.1223 13.287C11.2423 13.397 11.3923 13.357 11.4723 13.277C11.5523 13.197 11.5823 13.007 11.4723 12.927L10.9423 12.407L11.5123 11.847L12.0423 12.377C12.1323 12.467 12.2923 12.457 12.3823 12.367C12.4823 12.267 12.4823 12.107 12.3823 12.027L11.8623 11.507L12.4223 10.937L12.9423 11.457C13.0223 11.557 13.2023 11.567 13.3023 11.477C13.3923 11.367 13.3923 11.187 13.3023 11.107L12.7723 10.597L13.3323 10.027L13.8523 10.557C13.9323 10.657 14.1023 10.667 14.2123 10.557C14.3123 10.457 14.3123 10.277 14.2123 10.197L12.7923 8.787C12.7023 8.697 12.5523 8.707 12.4523 8.787C12.3523 8.907 12.3723 9.047 12.4723 9.157L12.9823 9.677L12.4223 10.247L11.8923 9.707C11.8123 9.607 11.6523 9.607 11.5523 9.707C11.4623 9.797 11.4623 9.977 11.5523 10.067L12.0823 10.597L11.5123 11.157L10.9823 10.617C10.8823 10.527 10.7323 10.527 10.6423 10.617C10.5423 10.707 10.5423 10.887 10.6423 10.977L11.1823 11.507L10.6023 12.067L10.0823 11.527C9.9823 11.437 9.8223 11.437 9.7223 11.527C9.6323 11.627 9.6323 11.817 9.7223 11.897L10.2623 12.407L9.7023 12.977L9.1723 12.447C9.0923 12.347 8.9323 12.337 8.8123 12.447C8.7023 12.547 8.7223 12.717 8.8123 12.797L10.2223 14.177C10.3223 14.277 10.4623 14.287 10.5823 14.177ZM6.6223 17.227C6.0823 17.067 5.9523 16.937 5.7923 16.407C5.4023 15.177 5.3923 13.807 5.6923 12.467L10.5423 17.317C9.2123 17.637 7.8423 17.597 6.6223 17.227Z" />
        </svg>
    