
        <svg xmlns="http://www.w3.org/2000/svg" viewBox="0 0 100 100">
            <path d="M22.1702 2.1448C21.8502 1.1248 21.6202 0.8848 20.6102 0.5748C18.2902 -0.1452 15.7102 -0.1752 13.1902 0.4148L22.3202 9.5448C22.9302 7.0248 22.8802 4.4448 22.1702 2.1448ZM17.7002 17.7048C19.7302 15.6748 21.1602 13.2948 21.9702 10.8248L11.9102 0.7848C9.4402 1.5648 7.0602 3.0048 5.0202 5.0348C3.0002 7.0548 1.5802 9.4448 0.7702 11.9148L10.8202 21.9548C13.3002 21.1748 15.6802 19.7348 17.7002 17.7048ZM9.5002 16.3548C9.3602 16.4848 9.1502 16.4848 9.0102 16.3448L6.3802 13.7148C6.2402 13.5748 6.2402 13.3648 6.3802 13.2248C6.5002 13.0848 6.7302 13.0848 6.8602 13.2248L7.9502 14.3148L9.1702 13.0748L8.0902 11.9948C7.9602 11.8648 7.9602 11.6448 8.0902 11.5148C8.2202 11.3748 8.4402 11.3748 8.5702 11.5148L9.6602 12.6048L10.8902 11.3648L9.8202 10.2848C9.6802 10.1448 9.6802 9.9348 9.8202 9.7948C9.9302 9.6648 10.1702 9.6648 10.2802 9.7948L11.3702 10.8848L12.6002 9.6448L11.5102 8.5748C11.4002 8.4348 11.4002 8.2148 11.5102 8.0848C11.6602 7.9448 11.8702 7.9448 12.0102 8.0848L13.1002 9.1748L14.3202 7.9348L13.2502 6.8548C13.1102 6.7148 13.1102 6.5048 13.2502 6.3648C13.3702 6.2448 13.5902 6.2448 13.7202 6.3648L16.3502 9.0048C16.4802 9.1348 16.4802 9.3648 16.3502 9.4848C16.2302 9.6248 16.0002 9.6148 15.8702 9.4748L14.8102 8.4248L13.5702 9.6448L14.6402 10.7148C14.7802 10.8648 14.7802 11.0748 14.6402 11.2148C14.5002 11.3248 14.2902 11.3248 14.1502 11.1948L13.1002 10.1348L11.8502 11.3648L12.9302 12.4348C13.0602 12.5548 13.0602 12.7848 12.9302 12.9248C12.7902 13.0648 12.5802 13.0548 12.4402 12.9148L11.3702 11.8548L10.1402 13.0748L11.2102 14.1548C11.3502 14.2748 11.3502 14.5048 11.2102 14.6448C11.0802 14.7648 10.8602 14.7648 10.7202 14.6348L9.6602 13.5648L8.4302 14.7948L9.5002 15.8648C9.6302 15.9948 9.6302 16.2148 9.5002 16.3548ZM2.1302 22.1648C4.4602 22.8748 7.0302 22.9348 9.5602 22.3348L0.4202 13.1948C-0.1798 15.7248 -0.1498 18.3048 0.5802 20.6148C0.8902 21.6148 1.1202 21.8548 2.1302 22.1648Z" />
        </svg>
    