
        <svg xmlns="http://www.w3.org/2000/svg" viewBox="0 0 100 100">
            <path d="M11.3523 22.7064C17.6023 22.7064 22.7123 17.6064 22.7123 11.3564C22.7123 5.1064 17.6023 -0.0036 11.3523 -0.0036C5.1123 -0.0036 0.0023 5.1064 0.0023 11.3564C0.0023 17.6064 5.1123 22.7064 11.3523 22.7064ZM17.0523 6.4464C17.4423 7.7064 17.4723 9.0964 17.1223 10.4664L12.2923 5.6364C13.6523 5.2964 15.0423 5.3164 16.3023 5.7064C16.7923 5.8664 16.8823 5.9564 17.0523 6.4464ZM14.6923 14.6864C13.6023 15.7664 12.3123 16.5464 10.9823 16.9464L5.7923 11.7564C6.2123 10.4264 6.9723 9.1364 8.0623 8.0464C9.1623 6.9564 10.4523 6.1764 11.7823 5.7764L16.9823 10.9664C16.5623 12.3064 15.7923 13.5964 14.6923 14.6864ZM10.4323 14.0764C10.5023 14.0064 10.5023 13.8564 10.4323 13.7764L9.8523 13.2264L10.4523 12.6064L11.0123 13.1864C11.1123 13.2864 11.2623 13.2464 11.3323 13.1764C11.4123 13.0864 11.4223 12.9164 11.3323 12.8464L10.7823 12.2964L11.3823 11.6964L11.9423 12.2564C12.0223 12.3364 12.1723 12.3264 12.2723 12.2364C12.3523 12.1564 12.3523 11.9864 12.2723 11.9064L11.7023 11.3664L12.3123 10.7664L12.8523 11.3164C12.9223 11.4164 13.1023 11.4164 13.1923 11.3164C13.2923 11.2364 13.2923 11.0464 13.1923 10.9764L12.6423 10.4364L13.2423 9.8464L13.7823 10.3964C13.8523 10.4864 14.0123 10.4964 14.1223 10.3964C14.2123 10.2964 14.2123 10.1264 14.1223 10.0564L12.6723 8.6164C12.5823 8.5164 12.4323 8.5464 12.3623 8.6164C12.2623 8.7164 12.2823 8.8464 12.3723 8.9564L12.9123 9.5164L12.3123 10.1164L11.7523 9.5364C11.6823 9.4564 11.5223 9.4564 11.4223 9.5364C11.3423 9.6364 11.3423 9.7964 11.4223 9.8764L11.9923 10.4364L11.3823 11.0364L10.8323 10.4764C10.7323 10.3864 10.5923 10.3864 10.5023 10.4664C10.4023 10.5564 10.4023 10.7264 10.5023 10.8164L11.0723 11.3664L10.4523 11.9664L9.9023 11.4064C9.8123 11.3064 9.6523 11.3064 9.5723 11.4064C9.4823 11.4864 9.4823 11.6764 9.5723 11.7464L10.1323 12.2964L9.5423 12.9064L8.9923 12.3264C8.9023 12.2364 8.7423 12.2264 8.6523 12.3264C8.5423 12.4364 8.5523 12.5964 8.6523 12.6664L10.0823 14.0764C10.1823 14.1664 10.3223 14.1764 10.4323 14.0764ZM6.4823 17.0164C5.9923 16.8664 5.8823 16.7664 5.7323 16.2764C5.3323 15.0164 5.3223 13.6264 5.6523 12.2564L10.4923 17.1064C9.1323 17.4364 7.7323 17.4064 6.4823 17.0164Z" />
        </svg>
    