
        <svg xmlns="http://www.w3.org/2000/svg" viewBox="0 0 100 100">
            <path d="M12.2223 24.4436C18.9723 24.4436 24.4423 18.9736 24.4423 12.2236C24.4423 5.4736 18.9723 0.0036 12.2223 0.0036C5.4723 0.0036 0.0023 5.4736 0.0023 12.2236C0.0023 18.9736 5.4723 24.4436 12.2223 24.4436ZM12.2223 21.7636C6.9523 21.7636 2.6823 17.4936 2.6823 12.2236C2.6823 6.9536 6.9523 2.6836 12.2223 2.6836C17.4923 2.6836 21.7623 6.9536 21.7623 12.2236C21.7623 17.4936 17.4923 21.7636 12.2223 21.7636ZM17.7823 7.7536C17.5623 7.1036 17.3423 6.8836 16.6923 6.6636C15.6923 6.3736 14.6023 6.3436 13.4923 6.5436L17.9023 10.9536C18.1023 9.8436 18.0723 8.7536 17.7823 7.7536ZM15.5023 15.5036C16.4523 14.5636 17.1223 13.4636 17.5423 12.3136L12.1323 6.9036C10.9823 7.3136 9.8823 7.9936 8.9423 8.9436C7.9923 9.8836 7.3223 10.9836 6.9023 12.1136L12.3123 17.5436C13.4623 17.1236 14.5623 16.4536 15.5023 15.5036ZM11.4823 14.6636C11.3423 14.7736 11.1723 14.7636 11.0323 14.6436L9.7823 13.4136C9.6723 13.2936 9.6723 13.1036 9.7823 12.9636C9.9223 12.8436 10.1123 12.8436 10.2423 12.9636L10.6323 13.3636L10.9923 13.0036L10.5823 12.6236C10.4623 12.5036 10.4623 12.2936 10.5823 12.1636C10.7123 12.0336 10.9123 12.0336 11.0423 12.1536L11.4423 12.5736L11.7823 12.2136L11.3923 11.8136C11.2623 11.6936 11.2623 11.4936 11.3923 11.3636C11.5123 11.2336 11.7023 11.2336 11.8223 11.3636L12.2323 11.7636L12.6023 11.4136L12.1923 11.0036C12.0623 10.8936 12.0623 10.6836 12.1923 10.5736C12.3123 10.4436 12.5123 10.4436 12.6323 10.5736L13.0323 10.9536L13.3923 10.6136L12.9823 10.2236C12.8623 10.0936 12.8623 9.8936 12.9823 9.7636C13.1123 9.6536 13.3123 9.6436 13.4323 9.7636L14.6823 10.9936C14.8023 11.1336 14.7923 11.3336 14.6823 11.4636C14.5523 11.5736 14.3523 11.5736 14.2223 11.4536L13.8323 11.0536L13.4723 11.4136L13.8723 11.8136C14.0023 11.9336 14.0023 12.1336 13.8723 12.2536C13.7423 12.3836 13.5623 12.3736 13.4323 12.2536L13.0323 11.8436L12.6823 12.2136L13.0623 12.6136C13.1923 12.7336 13.1923 12.9336 13.0623 13.0536C12.9523 13.1836 12.7523 13.1836 12.6323 13.0536L12.2323 12.6636L11.8723 13.0036L12.2823 13.4036C12.4123 13.5236 12.4123 13.7336 12.2823 13.8536C12.1523 13.9836 11.9523 13.9836 11.8223 13.8536L11.4423 13.4536L11.0823 13.8036L11.4823 14.2136C11.6023 14.3336 11.6023 14.5236 11.4823 14.6636ZM7.7623 17.7736C8.7523 18.0736 9.8523 18.1036 10.9523 17.9036L6.5423 13.4836C6.3423 14.5936 6.3823 15.6936 6.6723 16.6836C6.8823 17.3436 7.1023 17.5636 7.7623 17.7736Z" />
        </svg>
    