
        <svg xmlns="http://www.w3.org/2000/svg" viewBox="0 0 100 100">
            <path d="M12.1023 24.2064C18.7823 24.2064 24.2123 18.7864 24.2123 12.1064C24.2123 5.4264 18.7823 -0.0036 12.1023 -0.0036C5.4223 -0.0036 0.0023 5.4264 0.0023 12.1064C0.0023 18.7864 5.4223 24.2064 12.1023 24.2064ZM17.9723 7.3564C18.2823 8.4364 18.3323 9.6364 18.0923 10.8364L13.3723 6.1064C14.5823 5.8864 15.7723 5.9164 16.8423 6.2364C17.5323 6.4564 17.7523 6.6764 17.9723 7.3564ZM15.5623 15.5664C14.5823 16.5864 13.4023 17.2964 12.2023 17.7264L6.4823 11.9964C6.9123 10.7964 7.6323 9.6364 8.6323 8.6464C9.6223 7.6264 10.7923 6.9164 12.0023 6.4764L17.7223 12.1964C17.2823 13.4164 16.5723 14.5764 15.5623 15.5664ZM11.2923 14.6464C11.4123 14.5064 11.4123 14.3364 11.2923 14.2064L10.8723 13.7664L11.2723 13.3864L11.6823 13.7964C11.8123 13.9364 12.0123 13.9364 12.1423 13.8064C12.2623 13.6764 12.2723 13.4664 12.1423 13.3464L11.7023 12.9264L12.1023 12.5464L12.5423 12.9564C12.6523 13.0764 12.8523 13.0764 12.9723 12.9464C13.1123 12.8464 13.0923 12.6364 12.9723 12.5164L12.5523 12.0864L12.9523 11.6964L13.3723 12.1064C13.5023 12.2364 13.7023 12.2464 13.8123 12.1164C13.9423 11.9864 13.9423 11.7864 13.8123 11.6764L13.3923 11.2464L13.7923 10.8564L14.2123 11.2764C14.3423 11.3864 14.5423 11.4064 14.6623 11.2864C14.7923 11.1464 14.7923 10.9464 14.6623 10.8164L13.3723 9.5364C13.2523 9.4064 13.0623 9.4264 12.9223 9.5364C12.8123 9.6664 12.8123 9.8664 12.9223 9.9964L13.3523 10.4164L12.9523 10.7964L12.5323 10.3864C12.4223 10.2564 12.2223 10.2564 12.0823 10.3864C11.9623 10.5164 11.9623 10.7264 12.0823 10.8264L12.5123 11.2464L12.1023 11.6564L11.6823 11.2264C11.5623 11.0964 11.3623 11.0964 11.2523 11.2364C11.1223 11.3464 11.1323 11.5564 11.2523 11.6764L11.6623 12.0864L11.2723 12.4964L10.8523 12.0564C10.7323 11.9364 10.5223 11.9364 10.4023 12.0664C10.2623 12.1864 10.2623 12.4064 10.4023 12.5264L10.8323 12.9264L10.4323 13.3264L10.0123 12.9064C9.8823 12.7964 9.6923 12.7864 9.5623 12.9064C9.4323 13.0464 9.4323 13.2464 9.5623 13.3564L10.8523 14.6364C10.9823 14.7564 11.1723 14.7664 11.2923 14.6464ZM7.3623 17.9764C6.6723 17.7564 6.4423 17.5264 6.2323 16.8564C5.9323 15.7764 5.8823 14.5664 6.1023 13.3664L10.8323 18.1064C9.6323 18.3264 8.4223 18.2964 7.3623 17.9764Z" />
        </svg>
    