
        <svg xmlns="http://www.w3.org/2000/svg" viewBox="0 0 100 100">
            <path d="M0.0017 21.1589C0.0017 22.1489 0.8217 22.9689 1.8117 22.9689H28.2817C29.2617 22.9689 30.0817 22.1489 30.0817 21.1589C30.0817 20.1589 29.2617 19.3389 28.2817 19.3389H19.3017C19.0217 15.8989 17.6917 12.6489 15.5417 9.9889L22.4417 3.0889C23.1417 2.3789 23.1317 1.2389 22.4417 0.5189C21.7217 -0.1711 20.5817 -0.1811 19.8717 0.5189L0.5517 19.8789C0.2217 20.2089 0.0017 20.6889 0.0017 21.1589ZM6.1917 19.3389L12.9617 12.5689C14.4717 14.5289 15.4217 16.8489 15.6717 19.3389Z" />
        </svg>
    