
        <svg xmlns="http://www.w3.org/2000/svg" viewBox="0 0 100 100">
            <path d="M1.4982 27.4952C1.7782 27.4952 1.9982 27.2952 1.9582 26.9852L0.9782 20.8552C0.8182 19.8752 1.1482 19.3352 2.0682 19.1052L3.6182 18.7152C3.1282 19.3752 2.8682 20.2152 2.8682 21.2952C2.8682 25.1152 5.8282 28.5952 8.9882 28.5952C12.1382 28.5952 15.0882 25.1152 15.0882 21.2952C15.0882 20.2152 14.8482 19.3752 14.3482 18.7152L15.8882 19.1052C16.8082 19.3352 17.1482 19.8752 16.9882 20.8552L16.0182 26.9852C15.9682 27.2952 16.1782 27.4952 16.4582 27.4952C16.7682 27.4952 16.8882 27.3152 16.9282 27.0152L17.9282 20.7152C18.1382 19.3452 17.5882 18.5852 16.0982 18.2352L11.5982 17.1552V17.0352C12.2982 16.6952 12.6982 15.9152 12.7682 15.1052L15.4782 14.7352C16.9882 14.5152 17.5982 13.8752 17.5982 12.5052V8.6352C17.5982 8.3252 17.4382 8.1552 17.1382 8.1552C16.8582 8.1552 16.6882 8.3452 16.6882 8.6352V12.3552C16.6882 13.3052 16.2882 13.6952 15.2982 13.8352L12.6982 14.2252C12.5782 13.7652 12.3382 13.3752 11.9482 13.1152V12.9952C13.9582 12.6452 14.9582 11.4252 14.9582 9.6452C14.9582 7.8352 14.1482 6.1952 12.8982 5.0852L13.1082 4.9252C14.1782 4.0652 14.1982 3.1052 13.3982 2.0052L12.0982 0.2652C11.9682 0.0852 11.8282 -0.0048 11.6682 -0.0048C11.4382 -0.0048 11.2582 0.1552 11.2582 0.3852C11.2582 0.5052 11.2782 0.5852 11.3882 0.7452L12.7182 2.4752C13.2382 3.1652 13.2782 3.7652 12.5482 4.3352L12.2382 4.5752C11.2982 3.9352 10.1682 3.5652 8.9882 3.5652C7.7982 3.5652 6.6782 3.9252 5.7282 4.5752L5.4182 4.3352C4.7082 3.7652 4.7382 3.1652 5.2482 2.4752L6.5782 0.7452C6.6882 0.5852 6.7182 0.5052 6.7182 0.3852C6.7182 0.1552 6.5482 -0.0048 6.3082 -0.0048C6.1382 -0.0048 5.9982 0.0852 5.8682 0.2652L4.5682 2.0052C3.7782 3.1052 3.7982 4.0652 4.8582 4.9252L5.0682 5.0852C3.8182 6.1952 3.0082 7.8352 3.0082 9.6452C3.0082 11.4252 4.0082 12.6452 6.0082 12.9952V13.1152C5.6382 13.3752 5.3882 13.7652 5.2682 14.2252L2.6682 13.8352C1.6882 13.6952 1.2882 13.3052 1.2882 12.3552V8.6352C1.2882 8.3452 1.1082 8.1552 0.8282 8.1552C0.5282 8.1552 0.3582 8.3252 0.3582 8.6352V12.5052C0.3582 13.8752 0.9682 14.5152 2.4882 14.7352L5.1982 15.1052C5.2582 15.9152 5.6682 16.6952 6.3682 17.0352V17.1552L1.8682 18.2352C0.3882 18.5852 -0.1718 19.3452 0.0482 20.7152L1.0282 27.0152C1.0882 27.3152 1.2082 27.4952 1.4982 27.4952ZM6.5282 12.0952C5.0682 12.0952 3.9582 11.0252 3.9582 9.6452C3.9582 6.8752 6.3482 4.4852 8.9882 4.4852C11.6182 4.4852 14.0082 6.8752 14.0082 9.6452C14.0082 11.0252 12.8982 12.0952 11.4482 12.0952ZM6.0982 14.8552C6.0982 13.8052 6.7782 13.0452 7.7582 13.0452H10.2182C11.1782 13.0452 11.8582 13.8052 11.8582 14.8552C11.8582 16.2352 10.8082 17.2452 9.3982 17.2452H8.5582C7.1582 17.2452 6.0982 16.2352 6.0982 14.8552ZM8.9882 27.6252C6.3582 27.6252 3.8482 24.4652 3.8482 21.2952C3.8482 19.3252 5.1282 18.0852 7.1782 18.0852H10.7882C12.8382 18.0852 14.1182 19.3252 14.1182 21.2952C14.1182 24.4652 11.6082 27.6252 8.9882 27.6252Z" />
        </svg>
    