
        <svg xmlns="http://www.w3.org/2000/svg" viewBox="0 0 100 100">
            <path d="M2.0438 27.8039C2.6538 27.8039 3.1238 27.3739 3.0038 26.6239L2.1538 21.1039C2.0438 20.3739 2.3038 20.0539 3.1538 19.8139L3.8438 19.6239C3.7438 20.0139 3.6938 20.4539 3.6938 20.9439C3.6938 24.8439 6.6238 28.4739 9.9938 28.4739C13.3838 28.4739 16.3138 24.8439 16.3138 20.9439C16.3138 20.4639 16.2638 20.0139 16.1638 19.6239L16.8438 19.8139C17.7138 20.0539 17.9538 20.3739 17.8538 21.1039L17.0038 26.6239C16.8938 27.3739 17.3538 27.8039 17.9638 27.8039C18.6138 27.8039 18.9038 27.4139 19.0138 26.7639L19.9638 20.7339C20.1938 19.2439 19.5938 18.4439 17.9738 18.0739L12.7538 16.8439V16.7239C13.2338 16.4839 13.5738 16.0639 13.7638 15.5739L17.2738 15.1039C18.8538 14.9039 19.5638 13.9939 19.5638 12.4339V8.4139C19.5638 7.7839 19.1938 7.4039 18.5638 7.4039C17.9338 7.4039 17.5638 7.7839 17.5638 8.4139V12.0139C17.5638 12.9039 17.0838 13.1839 16.2838 13.2939L13.8038 13.6139C13.6638 13.2639 13.4438 12.9539 13.1238 12.7339V12.6239C15.1638 12.2439 16.1838 11.0139 16.1838 9.2139C16.1838 7.7739 15.6738 6.4339 14.8238 5.3639L14.9538 5.2839C16.1638 4.4139 16.3738 3.1639 15.6038 1.7739L14.9238 0.6339C14.6838 0.1839 14.4038 0.0039 13.9938 0.0039C13.4738 0.0039 13.0838 0.3839 13.0838 0.8939C13.0838 1.1139 13.1138 1.2439 13.2438 1.4839L13.8338 2.4039C14.2238 3.0539 14.1738 3.6339 13.5838 4.0539L13.4938 4.1239C12.4938 3.4339 11.2838 3.0239 9.9938 3.0239C8.7238 3.0239 7.5238 3.4239 6.5338 4.1139L6.4638 4.0539C5.8738 3.6339 5.8138 3.0539 6.2138 2.4039L6.8038 1.4839C6.9438 1.2439 6.9638 1.1139 6.9638 0.8939C6.9638 0.3839 6.5738 0.0039 6.0538 0.0039C5.6538 0.0039 5.3538 0.1839 5.1238 0.6339L4.4438 1.7739C3.6738 3.1639 3.8838 4.4139 5.0838 5.2839L5.1938 5.3539C4.3338 6.4139 3.8238 7.7539 3.8238 9.2139C3.8238 11.0139 4.8438 12.2439 6.8838 12.6239V12.7339C6.5638 12.9539 6.3438 13.2639 6.2038 13.6139L3.7238 13.2939C2.9238 13.1839 2.4438 12.9039 2.4438 12.0139V8.4139C2.4438 7.7839 2.0738 7.4039 1.4438 7.4039C0.8138 7.4039 0.4338 7.7839 0.4338 8.4139V12.4339C0.4338 13.9939 1.1538 14.9039 2.7338 15.1039L6.2338 15.5739C6.4338 16.0639 6.7738 16.4839 7.2438 16.7239V16.8439L2.0338 18.0739C0.4138 18.4439 -0.1862 19.2439 0.0538 20.7339L0.9938 26.7639C1.1038 27.4139 1.3938 27.8039 2.0438 27.8039ZM7.9238 10.7839C6.6738 10.7839 5.9538 10.1739 5.9538 9.1239C5.9538 6.9939 7.8438 5.1639 9.9938 5.1639C12.1538 5.1639 14.0538 6.9939 14.0538 9.1239C14.0538 10.1739 13.3338 10.7839 12.0738 10.7839ZM7.9638 14.4739C7.9638 13.4139 8.6038 12.8039 9.7238 12.8039H10.2938C11.4038 12.8039 12.0538 13.4139 12.0538 14.4739C12.0538 15.7739 11.1738 16.8739 10.1138 16.8739H9.8938C8.8338 16.8739 7.9638 15.7739 7.9638 14.4739ZM9.9938 26.2339C7.6338 26.2339 5.8238 23.4639 5.8238 21.1839C5.8238 19.6739 6.7038 18.7539 8.4138 18.7539H11.5938C13.3038 18.7539 14.1738 19.6739 14.1738 21.1839C14.1738 23.4639 12.3738 26.2339 9.9938 26.2339Z" />
        </svg>
    