
        <svg xmlns="http://www.w3.org/2000/svg" viewBox="0 0 100 100">
            <path d="M9.7624 27.9975C13.0824 27.9975 15.9724 24.4375 15.9724 20.5975C15.9724 20.0075 15.8724 19.4975 15.6524 19.0875C15.9924 19.1875 16.3324 19.2675 16.6624 19.3575C17.4724 19.5775 17.7124 19.8975 17.6024 20.5975L16.7424 26.2175C16.6424 26.8875 17.0524 27.2775 17.6024 27.2775C18.1724 27.2775 18.4324 26.9275 18.5324 26.3475L19.4924 20.2575C19.7124 18.8875 19.1524 18.1375 17.6524 17.7875L12.3624 16.5575L12.3524 16.4375C12.8524 16.1975 13.1924 15.7175 13.3524 15.1875L16.9424 14.6675C18.4124 14.4775 19.0624 13.6475 19.0624 12.2075V8.1575C19.0624 7.5775 18.7424 7.2575 18.1724 7.2575C17.6124 7.2575 17.2824 7.5975 17.2824 8.1575V11.8475C17.2824 12.6775 16.8424 12.9475 16.0824 13.0575L13.3924 13.4175C13.2624 13.0575 13.0324 12.7275 12.7124 12.5175V12.3975C14.7224 12.0475 15.8324 10.8275 15.8324 9.0475C15.8324 7.5475 15.2724 6.1775 14.3524 5.1175L14.4624 5.0375C15.6024 4.2175 15.8124 3.0075 15.0724 1.7075L14.3824 0.5775C14.1524 0.1775 13.9024 -0.0025 13.5324 -0.0025C13.0424 -0.0025 12.6924 0.3475 12.6924 0.8075C12.6924 1.0175 12.7224 1.1375 12.8524 1.3675L13.4624 2.2975C13.8424 2.9075 13.8424 3.4375 13.3624 3.8575C13.2924 3.9175 13.2324 3.9575 13.1624 4.0075C12.1924 3.3475 11.0124 2.9675 9.7624 2.9675C8.5324 2.9675 7.3724 3.3475 6.4124 3.9975C6.3424 3.9575 6.2724 3.8975 6.2124 3.8475C5.7424 3.4375 5.7324 2.9075 6.1224 2.2975L6.7224 1.3675C6.8524 1.1375 6.8924 1.0175 6.8924 0.8075C6.8924 0.3475 6.5324 -0.0025 6.0524 -0.0025C5.6824 -0.0025 5.4224 0.1775 5.2024 0.5775L4.5124 1.7075C3.7724 3.0075 3.9824 4.2175 5.1224 5.0375L5.2024 5.0975C4.2824 6.1475 3.6924 7.5375 3.6924 9.0475C3.6924 10.8275 4.8124 12.0475 6.8224 12.3975V12.5175C6.4924 12.7275 6.2724 13.0575 6.1424 13.4175L3.4624 13.0575C2.6824 12.9475 2.2524 12.6775 2.2524 11.8475V8.1575C2.2524 7.5975 1.9224 7.2575 1.3624 7.2575C0.8024 7.2575 0.4724 7.5775 0.4724 8.1575V12.2075C0.4724 13.6475 1.1224 14.4775 2.5924 14.6675L6.1924 15.1875C6.3424 15.7175 6.6724 16.1975 7.1824 16.4375V16.5575L1.8924 17.7875C0.3724 18.1375 -0.1776 18.8875 0.0524 20.2575L1.0124 26.3475C1.0924 26.9275 1.3624 27.2775 1.9324 27.2775C2.4824 27.2775 2.8924 26.8875 2.7924 26.2175L1.9324 20.5975C1.8124 19.8975 2.0624 19.5775 2.8724 19.3575C3.2024 19.2675 3.5424 19.1875 3.8724 19.0875C3.6724 19.4975 3.5624 20.0075 3.5624 20.5975C3.5624 24.4375 6.4624 27.9975 9.7624 27.9975Z" />
        </svg>
    