
        <svg xmlns="http://www.w3.org/2000/svg" viewBox="0 0 100 100">
            <path d="M10.1866 28.84C13.6066 28.84 16.5866 25.16 16.5866 21.21C16.5866 20.74 16.5066 20.34 16.3666 20C16.6266 20.09 16.9066 20.14 17.1566 20.23C17.9266 20.46 18.1466 20.8 18.0266 21.5L17.1966 26.93C17.0766 27.75 17.5866 28.22 18.2466 28.22C18.9466 28.22 19.2666 27.8 19.3766 27.09L20.3166 21.08C20.5566 19.52 19.9366 18.67 18.2266 18.28L12.9066 17.06L12.8966 16.95C13.3366 16.73 13.6466 16.32 13.8066 15.88L17.5366 15.43C19.1866 15.23 19.9466 14.25 19.9466 12.6V8.61C19.9466 7.92 19.5366 7.52 18.8566 7.52C18.1766 7.52 17.7866 7.93 17.7866 8.61V12.15C17.7866 13.08 17.2766 13.38 16.4366 13.48L13.9466 13.78C13.8066 13.43 13.5866 13.11 13.2666 12.9V12.79C15.3366 12.42 16.4466 11.17 16.4466 9.34C16.4466 7.93 15.9566 6.63 15.1466 5.6L15.3366 5.47C16.5866 4.58 16.8166 3.29 16.0166 1.83L15.3466 0.68C15.0866 0.21 14.7966 0 14.3566 0C13.7966 0 13.3766 0.42 13.3766 0.95C13.3766 1.2 13.4066 1.34 13.5566 1.58L14.1166 2.48C14.4766 3.09 14.4466 3.66 13.9366 4.07C13.8766 4.11 13.8366 4.16 13.7666 4.21C12.7466 3.49 11.5166 3.07 10.1866 3.07C8.8766 3.07 7.6466 3.49 6.6266 4.21C6.5766 4.16 6.5066 4.11 6.4466 4.07C5.9566 3.66 5.9066 3.09 6.2866 2.48L6.8466 1.58C6.9866 1.34 7.0266 1.2 7.0266 0.95C7.0266 0.42 6.6066 0 6.0566 0C5.6166 0 5.3166 0.21 5.0566 0.68L4.3866 1.83C3.5766 3.29 3.8166 4.58 5.0766 5.47L5.2466 5.59C4.4266 6.62 3.9266 7.92 3.9266 9.34C3.9266 11.17 5.0466 12.42 7.1066 12.79V12.9C6.7866 13.11 6.5666 13.43 6.4266 13.78L3.9266 13.48C3.0966 13.38 2.5866 13.08 2.5866 12.15V8.61C2.5866 7.93 2.1966 7.52 1.5066 7.52C0.8266 7.52 0.4266 7.92 0.4266 8.61V12.6C0.4266 14.25 1.1766 15.23 2.8366 15.43L6.5566 15.88C6.7266 16.32 7.0366 16.73 7.4766 16.95V17.06L2.1366 18.28C0.4266 18.67 -0.1934 19.52 0.0566 21.08L0.9966 27.09C1.1066 27.8 1.4266 28.22 2.1266 28.22C2.7866 28.22 3.2966 27.75 3.1666 26.93L2.3366 21.5C2.2266 20.79 2.4566 20.46 3.2266 20.21C3.4866 20.14 3.7466 20.09 4.0166 20C3.8566 20.34 3.7866 20.74 3.7866 21.21C3.7866 25.16 6.7666 28.84 10.1866 28.84Z" />
        </svg>
    