
        <svg xmlns="http://www.w3.org/2000/svg" viewBox="0 0 100 100">
            <path d="M12.3723 24.7459C19.2023 24.7459 24.7523 19.2059 24.7523 12.3759C24.7523 5.5459 19.2023 -0.0041 12.3723 -0.0041C5.5423 -0.0041 0.0023 5.5459 0.0023 12.3759C0.0023 19.2059 5.5423 24.7459 12.3723 24.7459ZM12.3723 21.6659C7.2423 21.6659 3.0823 17.5059 3.0823 12.3759C3.0823 7.2259 7.2423 3.0859 12.3723 3.0859C17.5223 3.0859 21.6723 7.2259 21.6723 12.3759C21.6723 17.5059 17.5223 21.6659 12.3723 21.6659ZM7.2023 15.5959L7.6623 18.5859C7.7323 18.9759 7.9223 19.2059 8.2823 19.2059C8.6623 19.2059 8.9323 18.9359 8.8723 18.4959L8.4623 15.8159C8.4123 15.4959 8.5123 15.3159 8.8523 15.1959C8.9623 15.1659 9.0723 15.1259 9.1923 15.1059C9.1423 15.2559 9.1123 15.4359 9.1123 15.6259C9.1123 17.6259 10.6123 19.4959 12.3723 19.4959C14.1323 19.4959 15.6323 17.6259 15.6323 15.6259C15.6323 15.4359 15.6123 15.2559 15.5623 15.1059C15.6823 15.1259 15.7823 15.1659 15.9023 15.1959C16.2423 15.3159 16.3323 15.4959 16.2923 15.8159L15.8823 18.4959C15.8123 18.9359 16.0923 19.2059 16.4623 19.2059C16.8323 19.2059 17.0123 18.9759 17.0823 18.5859L17.5423 15.5959C17.6723 14.7759 17.3423 14.3159 16.4423 14.1059L13.8123 13.5159C13.9923 13.4459 14.1823 13.2459 14.2723 12.9859L16.0923 12.7759C16.9723 12.6759 17.3623 12.1359 17.3623 11.2759V9.2859C17.3623 8.9159 17.1423 8.6859 16.7723 8.6859C16.3923 8.6859 16.1823 8.9159 16.1823 9.2859V11.0159C16.1823 11.5059 15.9123 11.6459 15.4923 11.6959L14.3323 11.8359C14.2823 11.6559 14.1523 11.4559 14.0123 11.3659C15.0323 11.1759 15.5523 10.5459 15.5523 9.6059C15.5523 8.9459 15.3423 8.3059 14.9623 7.7959L15.0623 7.7259C15.7123 7.2559 15.8423 6.5859 15.4123 5.8159L15.0923 5.2459C14.9523 4.9959 14.7923 4.8759 14.5423 4.8759C14.2523 4.8759 14.0123 5.0959 14.0123 5.3859C14.0123 5.5159 14.0423 5.6059 14.1123 5.7259L14.3823 6.1759C14.5523 6.4559 14.5623 6.7359 14.3523 6.9059L14.2023 7.0059C13.6723 6.6459 13.0123 6.4259 12.3723 6.4259C11.7423 6.4259 11.0723 6.6459 10.5423 7.0059L10.3923 6.9059C10.1823 6.7359 10.2023 6.4559 10.3723 6.1759L10.6323 5.7259C10.7123 5.6059 10.7323 5.5159 10.7323 5.3859C10.7323 5.0959 10.5023 4.8759 10.1923 4.8759C9.9623 4.8759 9.7923 4.9759 9.6523 5.2459L9.3423 5.8159C8.9223 6.5859 9.0323 7.2559 9.6923 7.7259L9.7823 7.7959C9.4123 8.3059 9.2023 8.9459 9.2023 9.6059C9.2023 10.5359 9.7123 11.1759 10.7323 11.3559C10.5923 11.4559 10.4623 11.6559 10.4223 11.8359L9.2623 11.6959C8.8323 11.6559 8.5623 11.5059 8.5623 11.0159V9.2859C8.5623 8.9159 8.3523 8.6859 7.9823 8.6859C7.6023 8.6859 7.3723 8.9059 7.3723 9.2859V11.2759C7.3723 12.1359 7.7823 12.6759 8.6623 12.7759L10.4723 12.9859C10.5723 13.2459 10.7623 13.4459 10.9323 13.5159L8.3123 14.1059C7.4023 14.3159 7.0823 14.7759 7.2023 15.5959Z" />
        </svg>
    