
        <svg xmlns="http://www.w3.org/2000/svg" viewBox="0 0 100 100">
            <path d="M12.6023 25.1969C19.5623 25.1969 25.2023 19.5569 25.2023 12.5969C25.2023 5.6369 19.5623 -0.0031 12.6023 -0.0031C5.6523 -0.0031 0.0023 5.6369 0.0023 12.5969C0.0023 19.5569 5.6523 25.1969 12.6023 25.1969ZM18.2623 12.2669C18.2623 10.9769 17.8623 9.8069 17.1123 8.9869C16.7323 8.5869 16.7023 8.1069 16.9923 7.7669C17.3623 7.3169 17.9623 7.3169 18.4323 7.7769C19.4423 8.8569 20.0523 10.5369 20.0523 12.2669C20.0523 14.0769 19.4623 15.6769 18.4323 16.7769C17.9623 17.2269 17.3623 17.2369 17.0023 16.7969C16.7023 16.4369 16.7323 15.9769 17.1123 15.5469C17.8623 14.7469 18.2623 13.5869 18.2623 12.2669ZM5.1523 12.2669C5.1523 10.5369 5.7623 8.8569 6.7723 7.7769C7.2323 7.3169 7.8323 7.3169 8.2023 7.7669C8.5123 8.1069 8.4623 8.5869 8.1023 8.9869C7.3523 9.8069 6.9523 10.9769 6.9523 12.2669C6.9523 13.5869 7.3523 14.7469 8.1023 15.5469C8.4623 15.9769 8.5123 16.4369 8.2023 16.7969C7.8323 17.2369 7.2323 17.2269 6.7723 16.7769C5.7423 15.6769 5.1523 14.0769 5.1523 12.2669ZM15.4823 12.2669C15.4823 11.7769 15.2823 11.1869 15.0623 10.8669C14.7623 10.4169 14.7523 9.9969 15.0023 9.6469C15.3423 9.1969 15.9923 9.2069 16.4223 9.6669C16.9523 10.2769 17.2723 11.2269 17.2723 12.2669C17.2723 13.3269 16.9423 14.2869 16.4223 14.8669C15.9923 15.3269 15.3323 15.3369 15.0023 14.8869C14.7523 14.5569 14.7623 14.1169 15.0623 13.6869C15.2823 13.3569 15.4823 12.7869 15.4823 12.2669ZM7.9223 12.2669C7.9223 11.2269 8.2423 10.2769 8.7923 9.6669C9.2123 9.2069 9.8623 9.1969 10.2023 9.6469C10.4523 9.9969 10.4323 10.4169 10.1523 10.8669C9.9123 11.1869 9.7123 11.7769 9.7123 12.2669C9.7123 12.7469 9.8623 13.2669 10.1023 13.6169C10.3923 14.0969 10.4923 14.5469 10.2023 14.8869C9.8423 15.3169 9.2123 15.3269 8.7923 14.8669C8.2523 14.2869 7.9223 13.3269 7.9223 12.2669ZM11.0323 12.2669C11.0323 11.3869 11.7223 10.6769 12.6023 10.6769C13.4923 10.6769 14.1823 11.3869 14.1823 12.2669C14.1823 12.8369 13.8823 13.3169 13.4623 13.5969V18.7769C13.4623 19.3569 13.1223 19.7369 12.6023 19.7369C12.0823 19.7369 11.7323 19.3469 11.7323 18.7769V13.5969C11.3123 13.3169 11.0323 12.8369 11.0323 12.2669Z" />
        </svg>
    