
        <svg xmlns="http://www.w3.org/2000/svg" viewBox="0 0 100 100">
            <path d="M12.2223 24.4419C18.9723 24.4419 24.4423 18.9719 24.4423 12.2219C24.4423 5.4819 18.9723 0.0019 12.2223 0.0019C5.4823 0.0019 0.0023 5.4819 0.0023 12.2219C0.0023 18.9719 5.4823 24.4419 12.2223 24.4419ZM17.0123 17.8719L6.5523 7.4219C6.2923 7.1619 6.2923 6.7419 6.5523 6.4919C6.8123 6.2219 7.2323 6.2219 7.4923 6.4919L17.9423 16.9419C18.2123 17.2019 18.2123 17.6019 17.9423 17.8719C17.6923 18.1319 17.2723 18.1219 17.0123 17.8719ZM19.7623 11.8619C19.7623 13.4719 19.2623 14.9719 18.3723 16.1219L17.2423 14.9919C17.8623 14.1219 18.1923 13.0419 18.1923 11.8619C18.1923 10.4619 17.7223 9.1919 16.8623 8.2519C16.5223 7.8719 16.4923 7.4319 16.7623 7.1119C17.0823 6.7419 17.6123 6.7519 17.9923 7.1519C19.1123 8.3719 19.7623 10.0619 19.7623 11.8619ZM4.6923 11.8619C4.6923 10.4019 5.1123 9.0319 5.8223 7.9719L6.9723 9.1019C6.5023 9.9119 6.2623 10.8419 6.2623 11.8619C6.2623 13.2619 6.7223 14.5319 7.5923 15.4619C7.9223 15.8719 7.9523 16.2919 7.6723 16.6019C7.3623 16.9919 6.8323 16.9619 6.4523 16.5719C5.3223 15.3519 4.6923 13.6919 4.6923 11.8619ZM16.8723 11.8619C16.8723 12.6519 16.6723 13.4219 16.3023 14.0619L15.0923 12.8519C15.2323 12.5519 15.3023 12.2219 15.3023 11.8619C15.3023 11.2519 15.1023 10.6419 14.7823 10.1919C14.4823 9.7719 14.4623 9.3819 14.6923 9.0719C15.0223 8.6819 15.6023 8.7119 15.9423 9.1219C16.5323 9.8419 16.8723 10.8119 16.8723 11.8619ZM7.5723 11.8619C7.5723 11.2219 7.7023 10.6219 7.9323 10.0619L9.2323 11.3519C9.1723 11.5319 9.1523 11.7219 9.1523 11.9019C9.1523 12.5119 9.3323 13.0819 9.6423 13.5019C9.9523 13.9419 10.0123 14.3319 9.7523 14.6519C9.4423 15.0219 8.8523 15.0019 8.5123 14.6019C7.9123 13.8819 7.5723 12.9019 7.5723 11.8619ZM11.4723 13.5919L12.9723 15.0919V18.9419C12.9723 19.4319 12.6823 19.7719 12.2223 19.7719C11.7823 19.7719 11.4723 19.4219 11.4723 18.9419Z" />
        </svg>
    