
        <svg xmlns="http://www.w3.org/2000/svg" viewBox="0 0 100 100">
            <path d="M18.3623 14.7892C18.4823 14.9192 18.6823 14.9192 18.8123 14.7892C20.7023 12.8892 21.8623 10.3192 21.8623 7.4492C21.8623 4.5692 20.7023 1.9992 18.8123 0.0992C18.6823 -0.0308 18.4823 -0.0308 18.3623 0.0992C18.2623 0.2092 18.3023 0.3992 18.4223 0.5092C20.2123 2.3092 21.3023 4.7092 21.3023 7.4492C21.3023 10.1592 20.2123 12.5792 18.4223 14.3692C18.3023 14.4892 18.2623 14.6792 18.3623 14.7892ZM0.0023 7.4492C0.0023 10.3192 1.1723 12.8892 3.0723 14.7892C3.2023 14.9192 3.4023 14.9192 3.5123 14.7892C3.6123 14.6792 3.5623 14.4892 3.4523 14.3692C1.6523 12.5792 0.5723 10.1592 0.5723 7.4492C0.5723 4.7092 1.6523 2.3092 3.4523 0.5092C3.5623 0.3992 3.6123 0.2092 3.5123 0.0992C3.4023 -0.0308 3.2023 -0.0308 3.0723 0.0992C1.1723 1.9992 0.0023 4.5692 0.0023 7.4492ZM15.2723 11.6092C15.3823 11.7292 15.5823 11.7292 15.7123 11.6092C16.7923 10.5392 17.4123 9.0592 17.4123 7.4492C17.4123 5.8292 16.7923 4.3492 15.7123 3.2692C15.5823 3.1592 15.3823 3.1592 15.2723 3.2792C15.1723 3.3892 15.2123 3.5692 15.3323 3.6992C16.2323 4.7092 16.8423 5.9692 16.8423 7.4492C16.8423 8.9092 16.3623 10.2892 15.3323 11.1992C15.2023 11.2992 15.1723 11.4892 15.2723 11.6092ZM4.4623 7.4492C4.4623 9.0592 5.0723 10.5392 6.1523 11.6092C6.2823 11.7292 6.4823 11.7292 6.6023 11.6092C6.7023 11.4892 6.6723 11.2992 6.5423 11.1992C5.5223 10.2892 5.0423 8.9092 5.0423 7.4492C5.0423 5.9692 5.6323 4.7092 6.5423 3.6992C6.6523 3.5692 6.7023 3.3892 6.6023 3.2792C6.4823 3.1592 6.2823 3.1592 6.1523 3.2692C5.0723 4.3492 4.4623 5.8292 4.4623 7.4492ZM9.5623 7.4492C9.5623 8.1092 10.0223 8.6592 10.6523 8.7892V20.1592C10.6523 20.3492 10.7623 20.4792 10.9323 20.4792C11.1123 20.4792 11.2223 20.3492 11.2223 20.1592V8.7892C11.8523 8.6592 12.3123 8.1092 12.3123 7.4492C12.3123 6.6692 11.7023 6.0592 10.9323 6.0592C10.1723 6.0592 9.5623 6.6692 9.5623 7.4492Z" />
        </svg>
    