
        <svg xmlns="http://www.w3.org/2000/svg" viewBox="0 0 100 100">
            <path d="M11.3523 22.7147C17.6023 22.7147 22.7123 17.6047 22.7123 11.3547C22.7123 5.1047 17.6023 0.0047 11.3523 0.0047C5.1123 0.0047 0.0023 5.1047 0.0023 11.3547C0.0023 17.6047 5.1123 22.7147 11.3523 22.7147ZM17.9923 10.8247C17.9923 9.1447 17.3423 7.5847 16.1523 6.4147C16.0323 6.2947 16.0223 6.1047 16.1123 5.9847C16.2223 5.8547 16.4223 5.8547 16.5623 5.9847C17.8623 7.2847 18.5723 9.0247 18.5723 10.8247C18.5723 12.6547 17.8623 14.3747 16.5623 15.6947C16.4223 15.8247 16.2323 15.8247 16.1123 15.6747C16.0223 15.5647 16.0223 15.3947 16.1523 15.2647C17.3423 14.0847 17.9923 12.5347 17.9923 10.8247ZM4.1323 10.8247C4.1323 9.0247 4.8623 7.2847 6.1623 5.9847C6.2923 5.8547 6.4923 5.8547 6.6023 5.9847C6.7023 6.1047 6.6923 6.2947 6.5723 6.4147C5.3623 7.5847 4.7223 9.1447 4.7223 10.8247C4.7223 12.5347 5.3623 14.0847 6.5723 15.2647C6.7023 15.3947 6.7023 15.5647 6.6023 15.6747C6.4823 15.8247 6.2923 15.8247 6.1623 15.6947C4.8623 14.3747 4.1323 12.6547 4.1323 10.8247ZM7.0423 10.8247C7.0423 9.7947 7.4423 8.7747 8.1723 8.0547C8.2923 7.9247 8.4823 7.9247 8.6123 8.0647C8.7223 8.1647 8.6723 8.3747 8.5823 8.4747C7.9423 9.1947 7.6323 9.9747 7.6323 10.8247C7.6323 11.8147 7.9423 12.6047 8.5423 13.1647C8.7023 13.3047 8.7323 13.4747 8.6123 13.6247C8.4923 13.7447 8.2923 13.7547 8.1723 13.6247C7.4423 12.8747 7.0423 11.8847 7.0423 10.8247ZM15.0923 10.8247C15.0923 9.9747 14.7823 9.1947 14.1423 8.4747C14.0423 8.3747 13.9923 8.1647 14.1023 8.0647C14.2223 7.9247 14.4123 7.9247 14.5523 8.0547C15.2723 8.7747 15.6823 9.7947 15.6823 10.8247C15.6823 11.8847 15.2723 12.8747 14.5523 13.6247C14.4123 13.7547 14.2123 13.7447 14.1023 13.6247C13.9823 13.4747 14.0123 13.3047 14.1723 13.1647C14.7823 12.6047 15.0923 11.8147 15.0923 10.8247ZM10.3523 10.8247C10.3523 10.2647 10.7923 9.8347 11.3523 9.8347C11.9223 9.8347 12.3623 10.2647 12.3623 10.8247C12.3623 11.2947 12.0723 11.6747 11.6523 11.7847V19.1147C11.6523 19.2847 11.5323 19.4147 11.3523 19.4147C11.1823 19.4147 11.0623 19.2847 11.0623 19.1147V11.7847C10.6523 11.6647 10.3523 11.2947 10.3523 10.8247Z" />
        </svg>
    