
        <svg xmlns="http://www.w3.org/2000/svg" viewBox="0 0 100 100">
            <path d="M22.1823 22.064C22.3523 22.234 22.6323 22.234 22.7923 22.064C22.9723 21.874 22.9523 21.624 22.7923 21.444L1.4623 0.124C1.3123 -0.026 1.0323 -0.056 0.8523 0.124C0.6923 0.294 0.6923 0.574 0.8523 0.734ZM20.1423 17.344C21.6523 15.494 22.5423 13.144 22.5423 10.594C22.5423 7.684 21.4023 5.054 19.4923 3.104C19.2923 2.894 18.9823 2.894 18.8123 3.094C18.6423 3.284 18.7123 3.554 18.8923 3.744C20.6323 5.534 21.6823 7.904 21.6823 10.594C21.6823 12.924 20.8823 15.034 19.5223 16.714ZM3.7423 18.094C3.9023 17.904 3.8423 17.634 3.6523 17.444C1.9123 15.654 0.8823 13.274 0.8823 10.594C0.8823 8.234 1.6923 6.104 3.0723 4.414L2.4523 3.794C0.9123 5.644 0.0023 8.014 0.0023 10.594C0.0023 13.494 1.1523 16.134 3.0623 18.084C3.2623 18.294 3.5623 18.294 3.7423 18.094ZM16.9023 14.084C17.6023 13.104 17.9923 11.884 17.9923 10.594C17.9923 8.954 17.3823 7.454 16.3123 6.324C16.1123 6.114 15.7923 6.114 15.6223 6.314C15.4723 6.504 15.5423 6.744 15.7023 6.964C16.5623 7.954 17.1123 9.174 17.1123 10.594C17.1123 11.644 16.8423 12.664 16.2823 13.464ZM6.9223 14.874C7.0923 14.694 7.0323 14.424 6.8423 14.224C5.8923 13.334 5.4523 12.014 5.4523 10.594C5.4523 9.504 5.7923 8.534 6.3423 7.684L5.6823 7.044C4.9523 8.034 4.5723 9.284 4.5723 10.594C4.5723 12.234 5.1823 13.744 6.2423 14.854C6.4323 15.084 6.7523 15.074 6.9223 14.874ZM11.2723 23.714C11.5323 23.714 11.7023 23.534 11.7023 23.244V13.054L10.8523 12.194V23.244C10.8523 23.534 11.0323 23.714 11.2723 23.714Z" />
        </svg>
    