
        <svg xmlns="http://www.w3.org/2000/svg" viewBox="0 0 100 100">
            <path d="M20.3523 16.3515C20.7323 16.7815 21.3823 16.7815 21.8323 16.2915C23.7823 14.1815 24.8823 11.3715 24.8823 8.3315C24.8823 5.3015 23.7823 2.4815 21.8323 0.3815C21.3823 -0.1185 20.7323 -0.1185 20.3523 0.3215C19.9823 0.7415 20.1023 1.2915 20.5223 1.7715C22.0923 3.5215 22.9723 5.8115 22.9723 8.3315C22.9723 10.8515 22.0923 13.1515 20.5223 14.8915C20.1023 15.3815 19.9823 15.9315 20.3523 16.3515ZM0.0023 8.3315C0.0023 11.3715 1.1023 14.1815 3.0423 16.2915C3.4923 16.7815 4.1523 16.7815 4.5223 16.3515C4.9023 15.9315 4.7823 15.3815 4.3623 14.8915C2.7923 13.1515 1.9123 10.8515 1.9123 8.3315C1.9123 5.8115 2.7923 3.5215 4.3623 1.7715C4.7823 1.2915 4.9023 0.7415 4.5223 0.3215C4.1523 -0.1185 3.4923 -0.1185 3.0423 0.3815C1.1023 2.4815 0.0023 5.3015 0.0023 8.3315ZM4.9323 8.3315C4.9323 10.0515 5.5223 11.6615 6.5423 12.9315C6.9523 13.4715 7.6523 13.4515 8.0423 13.0115C8.4123 12.5915 8.2623 12.0615 7.8823 11.5515C7.1823 10.6915 6.8423 9.5515 6.8423 8.3315C6.8423 7.1115 7.2223 6.0115 7.8823 5.1115C8.2523 4.5915 8.4123 4.0815 8.0423 3.6615C7.6523 3.2115 6.9523 3.2015 6.5423 3.7415C5.5223 5.0015 4.9323 6.6115 4.9323 8.3315ZM16.8423 13.0115C17.2223 13.4515 17.9323 13.4715 18.3423 12.9315C19.3623 11.6615 19.9423 10.0515 19.9423 8.3315C19.9423 6.6115 19.3623 5.0015 18.3423 3.7415C17.9323 3.2015 17.2223 3.2115 16.8423 3.6615C16.4623 4.0815 16.6323 4.5915 16.9923 5.1115C17.6623 6.0115 18.0323 7.1115 18.0323 8.3315C18.0323 9.5515 17.6923 10.6915 16.9923 11.5515C16.6123 12.0615 16.4623 12.5915 16.8423 13.0115ZM10.3323 8.3315C10.3323 9.1815 10.8123 9.9015 11.5423 10.2315V20.7715C11.5423 21.3615 11.9023 21.7715 12.4423 21.7715C12.9923 21.7715 13.3323 21.3815 13.3323 20.7715V10.2315C14.0523 9.9015 14.5423 9.1615 14.5423 8.3315C14.5423 7.1615 13.6123 6.2115 12.4423 6.2115C11.2623 6.2115 10.3323 7.1615 10.3323 8.3315Z" />
        </svg>
    