
        <svg xmlns="http://www.w3.org/2000/svg" viewBox="0 0 100 100">
            <path d="M20.7617 1.5355C19.5517 0.3155 17.8917 -0.0045 15.5417 -0.0045H6.7417C4.3917 -0.0045 2.7417 0.3155 1.5217 1.5355C0.3017 2.7555 0.0017 4.3855 0.0017 6.7355V15.5355C0.0017 17.9055 0.2917 19.5455 1.5217 20.7555C2.7417 21.9755 4.3917 22.2855 6.7517 22.2855H15.5417C17.8917 22.2855 19.5517 21.9755 20.7617 20.7555C21.9917 19.5355 22.2917 17.9055 22.2917 15.5355V6.7455C22.2917 4.3755 21.9917 2.7455 20.7617 1.5355ZM19.2617 6.4255V15.8655C19.2617 17.0955 19.1017 17.9855 18.5517 18.5355C18.0017 19.0855 17.1017 19.2655 15.8717 19.2655H6.4217C5.1917 19.2655 4.2917 19.0855 3.7417 18.5355C3.1917 17.9855 3.0217 17.0955 3.0217 15.8655V6.4455C3.0217 5.1955 3.1917 4.3055 3.7417 3.7455C4.2917 3.1955 5.2017 3.0255 6.4417 3.0255H15.8717C17.1017 3.0255 18.0017 3.1955 18.5517 3.7455C19.1017 4.3055 19.2617 5.1955 19.2617 6.4255Z" />
        </svg>
    