
        <svg xmlns="http://www.w3.org/2000/svg" viewBox="0 0 100 100">
            <path d="M20.4217 1.4328C19.2217 0.2228 17.5517 0.0028 15.4217 0.0028H6.4017C4.3017 0.0028 2.6217 0.2328 1.4317 1.4328C0.2217 2.6328 0.0017 4.2928 0.0017 6.4028V15.4128C0.0017 17.5528 0.2217 19.2028 1.4217 20.4128C2.6417 21.6128 4.3017 21.8428 6.4317 21.8428H15.4217C17.5517 21.8428 19.2217 21.6128 20.4217 20.4128C21.6317 19.2028 21.8517 17.5528 21.8517 15.4128V6.4228C21.8517 4.2928 21.6317 2.6328 20.4217 1.4328ZM3.0917 3.1028C3.7517 2.4528 4.9017 2.2828 6.1317 2.2828H10.1517V6.6428C9.4017 5.2228 8.1417 4.3628 6.7217 4.3628C5.0517 4.3628 3.8017 5.6128 3.8017 7.3028C3.8017 8.7028 4.7317 9.8828 6.1017 10.5428H2.3017V6.1328C2.3017 4.8828 2.4517 3.7628 3.0917 3.1028ZM19.5617 6.1028V10.5428H15.7517C17.1117 9.8828 18.0517 8.7028 18.0517 7.3028C18.0517 5.6128 16.7917 4.3628 15.1217 4.3628C13.7017 4.3628 12.4417 5.2228 11.6917 6.6428V2.2828H15.7517C16.9617 2.2828 18.0917 2.4628 18.7517 3.1128C19.4017 3.7628 19.5617 4.8828 19.5617 6.1028ZM9.6217 10.3828C7.4417 10.3828 5.5817 8.8628 5.5817 7.4628C5.5817 6.6428 6.0817 6.1328 6.8817 6.1328C8.5117 6.1328 9.9417 7.9828 9.9417 10.0628V10.3828ZM12.2317 10.3828H11.9017V10.0628C11.9017 7.9828 13.3317 6.1328 14.9617 6.1328C15.7617 6.1328 16.2617 6.6428 16.2617 7.4628C16.2617 8.8628 14.4117 10.3828 12.2317 10.3828ZM15.7517 19.5428H11.6917V12.9228H11.7917C12.5617 15.2528 15.2117 17.2128 16.9817 17.4928C17.7217 17.6128 18.1517 17.0728 18.1517 16.5128C18.1517 15.9128 17.7917 15.5228 17.1417 15.4228C15.6117 15.2228 13.5217 13.3128 12.8717 11.9728H19.5617V15.7428C19.5617 16.9528 19.3917 18.0728 18.7517 18.7228C18.0917 19.3828 16.9617 19.5428 15.7517 19.5428ZM6.1017 19.5428C4.9017 19.5428 3.7617 19.3828 3.1017 18.7228C2.4517 18.0728 2.3017 16.9528 2.3017 15.7428V11.9728H8.9917C8.3217 13.3128 6.2417 15.2228 4.7117 15.4228C4.0517 15.5228 3.6917 15.9128 3.6917 16.5128C3.6917 17.0728 4.1417 17.6128 4.8717 17.4928C6.6317 17.2128 9.2917 15.2528 10.0617 12.9228H10.1517V19.5428Z" />
        </svg>
    