
        <svg xmlns="http://www.w3.org/2000/svg" viewBox="0 0 100 100">
            <path d="M19.0217 1.1925C19.8717 2.0425 20.1917 3.2025 20.1917 5.5825V9.7925H13.4317C15.3417 9.1425 17.0417 7.6625 17.0417 5.9525C17.0417 4.3725 16.0917 3.4325 14.6717 3.4325C12.9517 3.4325 11.1717 5.0025 10.4017 7.0925V0.0025H14.6117C16.9817 0.0025 18.1417 0.3325 19.0217 1.1925ZM9.3717 9.8325C6.5317 9.8325 3.8017 7.9325 3.8017 6.0125C3.8017 4.8325 4.5517 4.0525 5.5617 4.0525C7.6217 4.0525 9.7017 6.6525 9.7017 9.5425V9.8325ZM10.8617 9.8325H10.5317V9.5425C10.5317 6.6525 12.6217 4.0525 14.6717 4.0525C15.6917 4.0525 16.4517 4.8325 16.4517 6.0125C16.4517 7.9325 13.7117 9.8325 10.8617 9.8325ZM0.0017 9.7925V5.4225C0.0017 3.2225 0.3317 2.0725 1.1917 1.2025C2.0517 0.3525 3.2417 0.0025 5.4217 0.0025H9.8417V7.0925C9.0817 5.0025 7.2917 3.4325 5.5617 3.4325C4.1517 3.4325 3.2017 4.3725 3.2017 5.9525C3.2017 7.6625 4.9117 9.1425 6.8117 9.7925ZM16.7717 15.8925C15.2617 15.6025 12.1717 13.1725 10.7617 10.3625H20.1917V14.6125C20.1917 17.0025 19.8717 18.1425 19.0217 19.0125C18.1517 19.8625 16.9817 20.2025 14.6117 20.2025H10.4017V10.9325H10.4317C12.2417 14.4525 15.2717 16.2525 16.8117 16.6325C17.0717 16.6825 17.2117 16.4625 17.2117 16.2725C17.2117 16.0825 17.1217 15.9525 16.7717 15.8925ZM1.1817 19.0125C0.3117 18.1625 0.0017 17.0025 0.0017 14.6125V10.3625H9.4817C8.0617 13.1725 4.9817 15.6025 3.4817 15.8925C3.1217 15.9525 3.0217 16.0825 3.0217 16.2725C3.0217 16.4625 3.1617 16.6825 3.4317 16.6325C4.9817 16.2525 7.9917 14.4525 9.8117 10.9325H9.8417V20.2025H5.5817C3.2117 20.2025 2.0517 19.8625 1.1817 19.0125Z" />
        </svg>
    