
        <svg xmlns="http://www.w3.org/2000/svg" viewBox="0 0 100 100">
            <path d="M2.8217 7.2772C2.8217 9.2772 4.0917 10.6972 6.5117 11.4272L12.8317 13.3472C14.8617 13.9572 15.9217 15.1072 15.9217 16.6772V17.2972H14.8617C14.1717 17.2972 13.7417 17.3872 13.4317 17.6972C13.1217 18.0072 13.0317 18.4172 13.0317 19.1272V22.0672C13.0317 22.8072 13.1217 23.2272 13.4317 23.5272C13.7417 23.8372 14.1517 23.9272 14.8917 23.9272H17.8217C18.5517 23.9272 18.9717 23.8372 19.2917 23.5272C19.5817 23.2272 19.6717 22.8072 19.6717 22.0672V19.1572C19.6717 18.4172 19.5817 17.9972 19.2917 17.6972C18.9717 17.3872 18.5517 17.2972 17.8217 17.2972H16.7917V16.6772C16.7917 14.6672 15.5317 13.2572 13.1017 12.5272L6.7717 10.6072C4.7617 9.9972 3.6917 8.8472 3.6917 7.2772V6.6472H4.7917C5.5217 6.6472 5.9417 6.5372 6.2617 6.2472C6.5617 5.9372 6.6417 5.5172 6.6417 4.7672V1.8672C6.6417 1.1272 6.5617 0.7072 6.2617 0.3972C5.9417 0.0972 5.5217 -0.0028 4.7917 -0.0028H1.8317C1.1417 -0.0028 0.7117 0.0972 0.4017 0.3972C0.0917 0.7172 0.0017 1.1272 0.0017 1.8272V4.7672C0.0017 5.5172 0.0917 5.9372 0.4017 6.2472C0.7117 6.5372 1.1217 6.6472 1.8617 6.6472H2.8217Z" />
        </svg>
    