
        <svg xmlns="http://www.w3.org/2000/svg" viewBox="0 0 100 100">
            <path d="M0.0017 21.6516C0.0017 24.3416 1.4517 25.7916 4.1117 25.7916H16.6617C19.3217 25.7916 20.7817 24.3416 20.7817 21.6516V4.1416C20.7817 1.4616 19.3217 0.0016 16.6617 0.0016H4.1117C1.4517 0.0016 0.0017 1.4616 0.0017 4.1416ZM13.4017 11.8516C11.9617 11.8516 10.8317 10.7816 10.8317 8.9416C10.8317 7.9916 11.1317 7.0616 11.7917 6.3916C12.4117 5.7316 13.3317 5.2616 14.1217 5.2616C14.4417 5.2616 14.6417 5.4416 14.6417 5.6916C14.6417 5.9616 14.4917 6.1216 14.1217 6.1916C13.5917 6.2916 13.1417 6.5116 12.7817 6.8216C12.4217 7.1416 12.1617 7.5016 12.0817 7.8916H12.3317C12.6717 7.4616 13.1517 7.2816 13.7617 7.2816C14.9417 7.2816 15.8017 8.1716 15.8017 9.5016C15.8017 10.9116 14.8017 11.8516 13.4017 11.8516ZM7.5517 11.8616C6.1017 11.8616 4.9717 10.7816 4.9717 8.9516C4.9717 7.9916 5.2717 7.0816 5.9317 6.3916C6.6017 5.6916 7.4917 5.2616 8.2617 5.2616C8.5817 5.2616 8.7817 5.4516 8.7817 5.7116C8.7817 5.9916 8.5917 6.1416 8.2517 6.2016C7.7117 6.2816 7.2617 6.5316 6.9017 6.8316C6.5417 7.1416 6.3017 7.5216 6.2217 7.8916H6.4717C6.8117 7.4716 7.2817 7.2916 7.9017 7.2916C9.0817 7.2916 9.9417 8.1816 9.9417 9.5116C9.9417 10.9116 8.9417 11.8616 7.5517 11.8616ZM6.0617 16.6416C5.5617 16.6416 5.2017 16.2616 5.2017 15.7816C5.2017 15.3316 5.5617 14.9616 6.0617 14.9616H14.7317C15.2117 14.9616 15.5717 15.3316 15.5717 15.7816C15.5717 16.2616 15.2117 16.6416 14.7317 16.6416ZM6.0617 20.0716C5.5617 20.0716 5.2017 19.7116 5.2017 19.2516C5.2017 18.7616 5.5617 18.3916 6.0617 18.3916H10.4317C10.9117 18.3916 11.2717 18.7616 11.2717 19.2516C11.2717 19.7116 10.9117 20.0716 10.4317 20.0716Z" />
        </svg>
    