
        <svg xmlns="http://www.w3.org/2000/svg" viewBox="0 0 100 100">
            <path d="M0.0017 21.5197C0.0017 23.7997 1.1617 24.9697 3.4217 24.9697H15.9517C18.2217 24.9697 19.3717 23.7997 19.3717 21.5197V3.4497C19.3717 1.1597 18.2217 -0.0003 15.9517 -0.0003H3.4217C1.1617 -0.0003 0.0017 1.1597 0.0017 3.4497ZM12.8917 11.7897C11.3817 11.7897 10.1817 10.6897 10.1817 8.7497C10.1817 7.7097 10.5617 6.7597 11.2417 6.0197C11.8917 5.2997 12.9217 4.7897 13.7017 4.7897C13.9917 4.7897 14.1417 4.9597 14.1417 5.1697C14.1417 5.3997 13.9917 5.5197 13.6517 5.5997C13.0517 5.7197 12.5417 5.9397 12.1017 6.3497C11.6617 6.7397 11.3717 7.2197 11.2517 7.6997H11.4617C11.8817 7.1797 12.4717 6.9597 13.1117 6.9597C14.4417 6.9597 15.3617 7.8997 15.3617 9.3397C15.3617 10.7697 14.3217 11.7897 12.8917 11.7897ZM6.7417 11.7997C5.2417 11.7997 4.0417 10.6897 4.0417 8.7697C4.0417 7.7097 4.4017 6.7597 5.0817 6.0197C5.7617 5.2897 6.7717 4.7997 7.5517 4.7997C7.8417 4.7997 7.9917 4.9597 7.9917 5.1797C7.9917 5.3997 7.8417 5.5297 7.4917 5.5997C6.9117 5.7197 6.4217 5.9397 5.9617 6.3397C5.5217 6.7297 5.2117 7.2197 5.1017 7.7097H5.3117C5.7317 7.1997 6.3117 6.9697 6.9717 6.9697C8.3017 6.9697 9.2117 7.9097 9.2117 9.3397C9.2117 10.7797 8.1717 11.7997 6.7417 11.7997ZM4.9417 16.0897C4.5817 16.0897 4.3217 15.8197 4.3217 15.4897C4.3217 15.1597 4.5817 14.9097 4.9417 14.9097H14.4817C14.8217 14.9097 15.0817 15.1597 15.0817 15.4897C15.0817 15.8197 14.8217 16.0897 14.4817 16.0897ZM4.9417 19.7497C4.5817 19.7497 4.3217 19.4897 4.3217 19.1597C4.3217 18.8197 4.5817 18.5597 4.9417 18.5597H9.5117C9.8717 18.5597 10.1217 18.8197 10.1217 19.1597C10.1217 19.4897 9.8717 19.7497 9.5117 19.7497Z" />
        </svg>
    