
        <svg xmlns="http://www.w3.org/2000/svg" viewBox="0 0 100 100">
            <path d="M3.0117 20.5048H24.0617C26.0117 20.5048 27.0617 19.4248 27.0617 17.4948V3.0148C27.0617 1.0748 26.0117 0.0048 24.0617 0.0048H3.0117C1.0417 0.0048 0.0017 1.0448 0.0017 3.0148V17.4948C0.0017 19.4648 1.0417 20.5048 3.0117 20.5048ZM4.5117 8.3948L7.9417 6.3248L4.5117 4.2548C4.0917 3.9948 4.4517 3.4848 4.8317 3.7148L8.3917 5.9448C8.6517 6.1048 8.6817 6.5248 8.3917 6.7048L4.8317 8.9248C4.4517 9.1648 4.1117 8.6248 4.5117 8.3948ZM9.0117 9.3248C9.0117 9.1548 9.1317 9.0348 9.3017 9.0348H13.7617C13.9317 9.0348 14.0517 9.1548 14.0517 9.3248C14.0517 9.5048 13.9317 9.6248 13.7617 9.6248H9.3017C9.1317 9.6248 9.0117 9.5048 9.0117 9.3248Z" />
        </svg>
    