
        <svg xmlns="http://www.w3.org/2000/svg" viewBox="0 0 100 100">
            <path d="M-0.0016 19.1563C-0.0016 21.0163 0.6784 22.3563 2.0784 23.2663C2.7884 23.7163 3.2184 24.2263 3.5084 24.9263L4.2184 26.6363C4.5384 27.4463 5.2384 27.8863 6.1784 27.8863H11.8784C12.8184 27.8863 13.5084 27.4563 13.8284 26.6363L14.5384 24.9263C14.8284 24.2263 15.2584 23.7163 15.9584 23.2663C17.3684 22.3563 18.0484 21.0263 18.0484 19.1563V13.2863C18.8284 13.2563 19.3684 12.6663 19.3684 11.8163V10.1263C19.3684 9.2963 18.8284 8.6962 18.0484 8.6463C18.0284 6.8363 17.3484 5.5162 15.9584 4.6262C15.2584 4.1762 14.8284 3.6762 14.5384 2.9662L13.8284 1.2563C13.5284 0.4462 12.8184 -0.0038 11.8784 -0.0038H6.1784C5.2384 -0.0038 4.5384 0.4462 4.2184 1.2563L3.5084 2.9662C3.1984 3.7063 2.7584 4.2162 2.0784 4.6262C0.6784 5.5263 -0.0016 6.8763 -0.0016 8.7463ZM3.0984 18.3963V9.4963C3.0984 7.8963 3.9884 6.9563 5.5184 6.9563H12.5284C14.0584 6.9563 14.9684 7.8963 14.9684 9.4963V18.3963C14.9684 19.9963 14.0584 20.9163 12.5284 20.9163H5.5184C3.9884 20.9163 3.0984 20.0063 3.0984 18.3963ZM5.5284 11.3363C5.0984 11.8263 5.1584 12.5963 5.6684 13.0163L7.8784 14.8663C8.5284 15.4063 9.2384 15.4063 9.8284 14.8663L13.5984 11.5863C14.1084 11.1463 14.1184 10.3563 13.6284 9.8763C13.1884 9.4363 12.4684 9.4263 11.9784 9.8563L8.8484 12.5663L7.1984 11.1763C6.7184 10.7663 5.9884 10.8263 5.5284 11.3363Z" />
        </svg>
    