
        <svg xmlns="http://www.w3.org/2000/svg" viewBox="0 0 100 100">
            <path d="M2.3226 8.0591H9.2626L6.8126 0.7691C6.6426 0.2791 6.3126 -0.0009 5.8126 -0.0009C5.2826 -0.0009 4.9126 0.2791 4.7426 0.7691ZM0.9526 23.1591C1.4626 23.1591 1.8626 22.7891 1.8926 22.2091L2.1826 16.5091L3.3726 11.4391H8.2526L9.4626 16.5091L9.7426 22.2091C9.7726 22.7891 10.1626 23.1591 10.6926 23.1591C11.2026 23.1591 11.6626 22.7691 11.6226 22.1391L11.3526 16.4191C11.3426 16.2691 11.3326 16.1491 11.2826 16.0091L9.7826 10.1491C9.7126 9.8591 9.4726 9.6691 9.1726 9.6691H2.4526C2.1526 9.6691 1.9226 9.8591 1.8426 10.1491L0.3426 16.0091C0.2926 16.1491 0.2826 16.2691 0.2826 16.4191L0.0026 22.1391C-0.0274 22.7691 0.4226 23.1591 0.9526 23.1591Z" />
        </svg>
    