
        <svg xmlns="http://www.w3.org/2000/svg" viewBox="0 0 100 100">
            <path d="M13.9517 15.1171L15.9917 17.1571L16.7817 16.7371L30.6517 2.9071C31.3117 2.2371 31.3017 1.1571 30.6317 0.5071C29.9717 -0.1629 28.8917 -0.1629 28.2317 0.4871L14.3817 14.3171ZM0.2417 15.6871C-0.7383 18.0771 1.4817 19.2771 3.4217 17.8771C4.1417 17.3571 4.8417 16.8371 5.5817 16.2971C5.1617 17.1971 4.9617 18.0371 4.9617 18.7671C4.9617 21.6571 7.9317 23.1171 11.0417 21.5171C11.9917 21.0371 11.5917 18.8271 9.9117 19.5971C8.1617 20.3671 7.0817 20.0171 7.0817 18.6471C7.0817 17.2871 8.1317 14.9271 10.4917 11.8071C11.3817 10.6471 9.9317 9.1271 8.7117 10.4071C7.0817 12.0971 4.8617 13.7871 2.7917 15.4671L7.7817 3.3171C8.2417 2.1771 6.2117 1.1671 5.5817 2.6971ZM12.3217 18.0771C12.0817 18.5171 12.5917 18.9471 12.9617 18.7471L14.8617 17.7371L13.3417 16.2171Z" />
        </svg>
    