
        <svg xmlns="http://www.w3.org/2000/svg" viewBox="0 0 100 100">
            <path d="M0.0017 23.2778C0.0017 24.7778 0.8317 25.5978 2.3517 25.5978H9.0317C10.5617 25.5978 11.3917 24.7778 11.3917 23.2778V2.3278C11.3917 0.8278 10.5617 -0.0022 9.0317 -0.0022H2.3517C0.8317 -0.0022 0.0017 0.8278 0.0017 2.3278ZM0.8417 23.2178V2.3778C0.8417 1.3678 1.3817 0.8278 2.4017 0.8278H8.9917C10.0117 0.8278 10.5517 1.3678 10.5517 2.3778V23.2178C10.5517 24.2378 10.0117 24.7578 8.9917 24.7578H2.4017C1.3817 24.7578 0.8417 24.2378 0.8417 23.2178ZM5.6917 10.5578C7.7917 10.5578 9.4817 8.8478 9.4817 6.7778C9.4817 4.6778 7.7917 2.9778 5.6917 2.9778C3.6117 2.9778 1.9217 4.6778 1.9217 6.7778C1.9217 8.8478 3.6117 10.5578 5.6917 10.5578ZM5.7117 8.2978C4.8617 8.2978 4.1717 7.6178 4.1717 6.7778C4.1717 5.9178 4.8617 5.2378 5.7117 5.2378C6.5617 5.2378 7.2417 5.9178 7.2417 6.7778C7.2417 7.6178 6.5617 8.2978 5.7117 8.2978ZM5.6917 14.9578C6.5017 14.9578 7.1617 14.2978 7.1617 13.4978C7.1617 12.6678 6.5017 12.0078 5.6917 12.0078C4.8617 12.0078 4.2117 12.6678 4.2117 13.4978C4.2117 14.2978 4.8617 14.9578 5.6917 14.9578Z" />
        </svg>
    