
        <svg xmlns="http://www.w3.org/2000/svg" viewBox="0 0 100 100">
            <path d="M24.6323 23.7734C24.7923 23.9334 25.0823 23.9334 25.2423 23.7734C25.4223 23.5834 25.4223 23.3234 25.2423 23.1534L2.2123 0.1234C2.0623 -0.0266 1.7823 -0.0566 1.6023 0.1234C1.4323 0.3034 1.4323 0.5734 1.6023 0.7434ZM10.6323 1.5034C10.1923 1.5034 9.7723 1.5434 9.3523 1.6134C8.9423 1.5434 8.5223 1.5034 8.0823 1.5034C7.1523 1.5034 6.2423 1.6834 5.4423 1.9934L6.0923 2.6634C6.3123 2.5934 6.5423 2.5334 6.7623 2.4934C6.6023 2.5934 6.4223 2.7134 6.2623 2.8334L8.0723 4.6334C8.7823 3.9034 9.6423 3.3434 10.6323 2.9834C14.2223 4.3034 15.8123 8.1834 14.8323 11.3934L15.6823 12.2434C16.0123 11.4234 16.1823 10.5334 16.1823 9.5934C16.1823 6.6634 14.6023 4.0934 12.2723 2.6934C14.6123 3.2434 16.5123 4.9634 17.3123 7.2034C17.5523 7.0234 17.8723 6.8834 18.2123 6.8034C17.5623 5.0834 16.3523 3.6234 14.8023 2.6934C16.9123 3.1834 18.6423 4.6134 19.5423 6.5134L20.5523 6.3034C19.2923 3.4734 16.4523 1.5034 13.1623 1.5034C12.7223 1.5034 12.3023 1.5434 11.8823 1.6134C11.4823 1.5434 11.0623 1.5034 10.6323 1.5034ZM10.6323 17.6934C11.0623 17.6934 11.4823 17.6534 11.8823 17.5834C12.3023 17.6534 12.7223 17.6934 13.1623 17.6934C14.2723 17.6634 15.3423 17.4434 16.3523 16.9534L14.7423 15.3434C14.0423 15.8834 13.2023 16.2734 12.3023 16.4834C13.0423 16.0534 13.7023 15.4834 14.2423 14.8434L13.5323 14.1234C12.7723 15.0534 11.7623 15.7834 10.6123 16.2034C6.8823 14.8234 5.2423 10.6434 6.5723 7.1534L5.7823 6.3734C5.3223 7.3534 5.0623 8.4434 5.0623 9.5934C5.0623 12.5134 6.6223 15.0734 8.9523 16.4834C5.8223 15.7334 3.5323 12.9334 3.5323 9.5934C3.5323 8.0434 4.0323 6.6134 4.8723 5.4534L4.1623 4.7534C3.1323 6.1034 2.5323 7.7734 2.5323 9.5934C2.5323 12.5234 4.0823 15.0734 6.4123 16.4834C3.2923 15.7334 0.9923 12.9434 0.9923 9.5934C0.9923 7.4034 1.9823 5.4334 3.5423 4.1334L2.8323 3.4434C1.1023 4.9134 0.0023 7.1334 0.0023 9.5934C0.0023 14.0734 3.6223 17.6934 8.0823 17.6934C8.5223 17.6934 8.9423 17.6534 9.3523 17.5834C9.7723 17.6534 10.1923 17.6934 10.6323 17.6934ZM17.7823 14.3534L18.7723 15.3334V14.2934C18.7823 13.6434 18.9823 13.4134 19.6323 13.2734L24.2723 12.2534C24.5723 12.1834 24.7523 11.9734 24.7523 11.6634V7.6034C24.7523 7.1234 24.3723 6.8034 23.8923 6.9034L18.5523 8.0534C18.0223 8.1734 17.7423 8.4834 17.7423 8.9634ZM14.8623 24.7334C16.4523 24.7334 18.7223 23.6334 18.7623 20.5534V19.3434L17.5223 18.1134C17.2923 18.3734 16.9923 18.5534 16.6023 18.6234L15.0323 18.9534C12.9123 19.4134 11.8923 20.4234 11.8923 22.0534C11.8923 23.6334 13.1023 24.7334 14.8623 24.7334Z" />
        </svg>
    