
        <svg xmlns="http://www.w3.org/2000/svg" viewBox="0 0 100 100">
            <path d="M12.1023 24.2064C18.7823 24.2064 24.2123 18.7864 24.2123 12.1064C24.2123 5.4264 18.7823 -0.0036 12.1023 -0.0036C5.4223 -0.0036 0.0023 5.4264 0.0023 12.1064C0.0023 18.7864 5.4223 24.2064 12.1023 24.2064ZM12.1023 21.8164C6.7223 21.8164 2.3823 17.4864 2.3823 12.1064C2.3823 6.7264 6.7223 2.3764 12.1023 2.3764C17.4823 2.3764 21.8323 6.7264 21.8323 12.1064C21.8323 17.4864 17.4823 21.8164 12.1023 21.8164ZM11.8623 16.1164C12.2123 16.1164 12.5123 15.8064 12.5123 15.4564V12.9964C16.0223 12.7364 18.2723 10.2964 18.2423 6.7264C18.2423 6.3364 17.9923 6.0664 17.5523 6.0664C14.8323 6.0364 12.7523 7.4864 11.7823 9.9364C10.8623 8.2764 9.1123 7.4364 7.2823 7.4364C6.9123 7.4364 6.7223 7.6764 6.7423 8.0364C6.7923 9.6664 7.7223 12.6564 11.1923 12.9964V15.4564C11.1923 15.8064 11.5123 16.1164 11.8623 16.1164ZM12.6723 11.6564C13.1523 9.2264 14.6923 7.6564 16.9023 7.4264C16.6923 9.7364 15.0723 11.3564 12.6723 11.6564ZM11.0823 11.6464C9.4223 11.4164 8.4723 10.2564 8.1523 8.8664C9.4723 9.1164 10.7123 9.9864 11.0823 11.6464ZM10.0223 16.3464C10.3723 16.3464 10.6623 16.0264 10.6623 15.6864C10.6623 15.3364 10.3723 15.0464 10.0223 15.0464C9.6723 15.0464 9.3523 15.3364 9.3523 15.6864C9.3523 16.0264 9.6723 16.3464 10.0223 16.3464ZM13.7023 16.3464C14.0523 16.3464 14.3523 16.0264 14.3523 15.6864C14.3523 15.3364 14.0523 15.0464 13.7023 15.0464C13.3323 15.0464 13.0323 15.3364 13.0323 15.6864C13.0323 16.0264 13.3323 16.3464 13.7023 16.3464ZM8.2423 16.9464C8.5923 16.9464 8.9023 16.6364 8.9023 16.2864C8.9023 15.9364 8.5923 15.6164 8.2423 15.6164C7.8723 15.6164 7.5923 15.9364 7.5923 16.2864C7.5923 16.6364 7.8823 16.9464 8.2423 16.9464ZM15.4523 16.9464C15.8123 16.9464 16.1123 16.6364 16.1123 16.2864C16.1123 15.9364 15.8123 15.6164 15.4523 15.6164C15.1023 15.6164 14.8023 15.9364 14.8023 16.2864C14.8023 16.6364 15.1023 16.9464 15.4523 16.9464ZM6.6823 17.9564C7.0223 17.9564 7.3523 17.6464 7.3523 17.2964C7.3523 16.9564 7.0223 16.6364 6.6823 16.6364C6.3123 16.6364 6.0223 16.9564 6.0223 17.2964C6.0223 17.6464 6.3123 17.9564 6.6823 17.9564ZM17.0423 17.9564C17.3823 17.9564 17.6823 17.6464 17.6823 17.2964C17.6823 16.9564 17.3823 16.6364 17.0423 16.6364C16.6723 16.6364 16.3723 16.9564 16.3723 17.2964C16.3723 17.6464 16.6723 17.9564 17.0423 17.9564Z" />
        </svg>
    