
        <svg xmlns="http://www.w3.org/2000/svg" viewBox="0 0 100 100">
            <path d="M3.6817 21.5722H23.9517C26.4117 21.5722 27.6317 20.3722 27.6317 17.9522V3.6322C27.6317 1.2222 26.4117 0.0022 23.9517 0.0022H3.6817C1.2317 0.0022 0.0017 1.2222 0.0017 3.6322V17.9522C0.0017 20.3722 1.2317 21.5722 3.6817 21.5722ZM4.8717 9.1022L7.7817 7.3322L4.8717 5.5922C3.9117 5.0022 4.7217 3.5722 5.7817 4.2322L9.2417 6.4022C9.9017 6.8222 9.9417 7.8522 9.2417 8.2822L5.7817 10.4622C4.7217 11.1222 3.9217 9.6722 4.8717 9.1022ZM9.9717 10.4422C9.9717 10.0122 10.3117 9.6522 10.7417 9.6522H15.3517C15.8017 9.6522 16.1417 10.0122 16.1417 10.4422C16.1417 10.8722 15.8017 11.2222 15.3517 11.2222H10.7417C10.3117 11.2222 9.9717 10.8722 9.9717 10.4422Z" />
        </svg>
    