
        <svg xmlns="http://www.w3.org/2000/svg" viewBox="0 0 100 100">
            <path d="M2.8317 25.7616H8.9717C10.7417 25.7616 11.8117 24.7116 11.8117 23.0016V2.7416C11.8117 1.0316 10.7417 0.0016 8.9717 0.0016H2.8317C1.0617 0.0016 0.0017 1.0316 0.0017 2.7416V23.0016C0.0017 24.7116 1.0617 25.7616 2.8317 25.7616ZM2.9917 24.4216C1.9617 24.4216 1.3517 23.8316 1.3517 22.8316V2.9216C1.3517 1.9216 1.9617 1.3316 2.9917 1.3316H8.8317C9.8717 1.3316 10.4617 1.9216 10.4617 2.9216V22.8316C10.4617 23.8316 9.8717 24.4216 8.8317 24.4216ZM3.9517 10.3916C4.7217 10.3916 5.3517 9.7616 5.3517 9.0016C5.3517 8.2016 4.7217 7.5716 3.9517 7.5716C3.1517 7.5716 2.5217 8.2016 2.5217 9.0016C2.5217 9.7616 3.1517 10.3916 3.9517 10.3916ZM7.9017 10.3916C8.6717 10.3916 9.3117 9.7616 9.3117 9.0016C9.3117 8.2016 8.6717 7.5716 7.9017 7.5716C7.1117 7.5716 6.4817 8.2016 6.4817 9.0016C6.4817 9.7616 7.1117 10.3916 7.9017 10.3916ZM3.9517 14.3116C4.7217 14.3116 5.3517 13.6716 5.3517 12.8916C5.3517 12.0916 4.7217 11.4616 3.9517 11.4616C3.1517 11.4616 2.5217 12.0916 2.5217 12.8916C2.5217 13.6716 3.1517 14.3116 3.9517 14.3116ZM7.9017 18.1916C8.6517 18.1916 9.2717 17.5816 9.2717 16.8116V12.8416C9.2717 12.0716 8.6517 11.4616 7.9017 11.4616C7.1417 11.4616 6.5317 12.0716 6.5317 12.8416V16.8116C6.5317 17.5816 7.1417 18.1916 7.9017 18.1916ZM3.9517 18.1916C4.7217 18.1916 5.3517 17.5516 5.3517 16.7816C5.3517 15.9916 4.7217 15.3616 3.9517 15.3616C3.1517 15.3616 2.5217 15.9916 2.5217 16.7816C2.5217 17.5516 3.1517 18.1916 3.9517 18.1916Z" />
        </svg>
    