
        <svg xmlns="http://www.w3.org/2000/svg" viewBox="0 0 100 100">
            <path d="M11.5923 24.6056C17.7923 24.6056 22.8023 19.1056 22.8023 12.3056C22.8023 5.5056 17.7923 -0.0044 11.5923 -0.0044C8.2623 -0.0044 5.2423 1.5956 3.1723 4.1856C2.9623 4.4456 2.8823 4.6856 2.8823 4.9256C2.8823 5.4256 3.3423 5.7756 3.8323 5.7756C4.1123 5.7756 4.4023 5.6556 4.6123 5.3856C6.3323 3.2156 8.8623 1.8856 11.5923 1.8856C16.7323 1.8856 20.9023 6.5556 20.9023 12.3056C20.9023 18.0556 16.7323 22.7256 11.5923 22.7256C8.8623 22.7256 6.3323 21.3856 4.6123 19.2156C4.4023 18.9456 4.1123 18.8356 3.8323 18.8356C3.3423 18.8356 2.8823 19.1856 2.8823 19.6856C2.8823 19.9056 2.9623 20.1656 3.1723 20.4256C5.2423 23.0156 8.2623 24.6056 11.5923 24.6056ZM0.0023 18.3056C0.0023 19.7956 1.1823 20.9656 2.5923 21.0356C2.2123 20.5656 2.0323 20.1256 2.0323 19.7156C2.0323 18.7356 2.9323 17.9756 3.8623 17.9756C4.6023 17.9756 4.9823 18.3556 5.4723 18.9456C5.5223 18.7356 5.5423 18.5256 5.5423 18.3056V6.2956C5.5423 6.0656 5.5223 5.8756 5.4723 5.6556C5.0023 6.2256 4.6323 6.6256 3.8823 6.6256C2.9323 6.6256 2.0323 5.8756 2.0323 4.8956C2.0323 4.4856 2.2123 4.0556 2.5923 3.5756C1.1923 3.6456 0.0023 4.8056 0.0023 6.2956ZM2.7923 10.7856C1.9223 10.7856 1.2323 10.0756 1.2323 9.2256C1.2323 8.3656 1.9223 7.6756 2.7923 7.6756C3.6423 7.6756 4.3323 8.3656 4.3323 9.2256C4.3323 10.0756 3.6423 10.7856 2.7923 10.7856ZM2.7923 10.0656C3.2423 10.0656 3.6223 9.6756 3.6223 9.2256C3.6223 8.7656 3.2423 8.3856 2.7923 8.3856C2.3323 8.3856 1.9423 8.7656 1.9423 9.2256C1.9423 9.6756 2.3323 10.0656 2.7923 10.0656ZM2.7923 16.8256C2.0623 16.8256 1.4723 16.2556 1.4723 15.5256V13.0556C1.4723 12.3256 2.0623 11.7556 2.7923 11.7556C3.5123 11.7556 4.0923 12.3256 4.0923 13.0556V15.5256C4.0923 16.2556 3.5123 16.8256 2.7923 16.8256ZM2.7923 16.1156C3.1023 16.1156 3.3723 15.8456 3.3723 15.5256V13.0556C3.3723 12.7356 3.1023 12.4656 2.7923 12.4656C2.4623 12.4656 2.1923 12.7356 2.1923 13.0556V15.5256C2.1923 15.8456 2.4623 16.1156 2.7923 16.1156Z" />
        </svg>
    