
        <svg xmlns="http://www.w3.org/2000/svg" viewBox="0 0 100 100">
            <path d="M3.6117 28.4458H11.1117C13.3817 28.4458 14.7217 27.1658 14.7217 24.9958V3.4458C14.7217 1.2758 13.3817 -0.0042 11.1117 -0.0042H3.7517C1.3917 -0.0042 0.0017 1.2758 0.0017 3.4458V24.9958C0.0017 27.1658 1.3317 28.4458 3.6117 28.4458ZM4.9217 11.1058C3.9717 11.1058 3.1917 10.3458 3.1917 9.4058C3.1917 8.4458 3.9617 7.6758 4.9217 7.6758C5.8517 7.6758 6.6117 8.4458 6.6117 9.4058C6.6117 10.3458 5.8317 11.1058 4.9217 11.1058ZM9.8417 11.1058C8.8917 11.1058 8.1117 10.3458 8.1117 9.4058C8.1117 8.4458 8.8817 7.6758 9.8417 7.6758C10.7717 7.6758 11.5317 8.4458 11.5317 9.4058C11.5317 10.3458 10.7617 11.1058 9.8417 11.1058ZM4.9217 15.9158C3.9617 15.9158 3.1917 15.1658 3.1917 14.2158C3.1917 13.2558 3.9617 12.4758 4.9217 12.4758C5.8517 12.4758 6.6117 13.2558 6.6117 14.2158C6.6117 15.1358 5.8517 15.9158 4.9217 15.9158ZM9.8417 20.7158C9.0017 20.7158 8.3117 20.0258 8.3117 19.1558V14.0358C8.3117 13.1958 9.0117 12.4758 9.8417 12.4758C10.7317 12.4758 11.4117 13.1758 11.4117 14.0358V19.1558C11.4117 20.0658 10.7417 20.7158 9.8417 20.7158ZM4.9217 20.7158C3.9617 20.7158 3.1917 19.9658 3.1917 19.0158C3.1917 18.0558 3.9617 17.2858 4.9217 17.2858C5.8517 17.2858 6.6117 18.0658 6.6117 19.0158C6.6117 19.9458 5.8517 20.7158 4.9217 20.7158Z" />
        </svg>
    