
        <svg xmlns="http://www.w3.org/2000/svg" viewBox="0 0 100 100">
            <path d="M3.1617 20.742H24.0317C26.1117 20.742 27.1917 19.642 27.1917 17.592V3.152C27.1917 1.102 26.1117 0.002 24.0317 0.002H3.1617C1.0917 0.002 0.0017 1.082 0.0017 3.152V17.592C0.0017 19.662 1.0917 20.742 3.1617 20.742ZM4.5917 8.552L7.9117 6.552L4.5917 4.562C4.0517 4.222 4.5117 3.502 5.0417 3.832L8.5917 6.042C8.9317 6.272 8.9617 6.822 8.5917 7.052L5.0417 9.282C4.5117 9.612 4.0817 8.862 4.5917 8.552ZM9.2317 9.572C9.2317 9.342 9.4017 9.172 9.6317 9.172H14.1217C14.3517 9.172 14.5217 9.342 14.5217 9.572C14.5217 9.812 14.3517 9.982 14.1217 9.982H9.6317C9.4017 9.982 9.2317 9.812 9.2317 9.572Z" />
        </svg>
    