
        <svg xmlns="http://www.w3.org/2000/svg" viewBox="0 0 100 100">
            <path d="M4.0917 29.358H12.6817C15.0617 29.358 16.7717 27.618 16.7717 25.258V3.918C16.7717 1.608 15.0817 -0.002 12.6717 -0.002H4.1017C1.6917 -0.002 0.0017 1.608 0.0017 3.918V25.258C0.0017 27.618 1.7017 29.358 4.0917 29.358ZM12.6817 21.168H4.0917C3.9517 21.168 3.8217 21.168 3.6917 21.178V4.338C3.6917 3.948 3.9817 3.688 4.4217 3.688H12.3517C12.7817 3.688 13.0617 3.948 13.0617 4.338V21.178C12.9517 21.168 12.8117 21.168 12.6817 21.168ZM8.3817 8.438C9.3717 8.438 10.1717 7.648 10.1717 6.658C10.1717 5.688 9.3717 4.878 8.3817 4.878C7.3917 4.878 6.6017 5.688 6.6017 6.658C6.6017 7.648 7.3917 8.438 8.3817 8.438ZM4.0917 25.818C3.7617 25.818 3.5317 25.578 3.5317 25.258C3.5317 24.938 3.7617 24.708 4.0917 24.708H12.6817C12.9917 24.708 13.2317 24.938 13.2317 25.258C13.2317 25.578 12.9917 25.818 12.6817 25.818Z" />
        </svg>
    