
        <svg xmlns="http://www.w3.org/2000/svg" viewBox="0 0 100 100">
            <path d="M2.8017 20.8755H12.9617C14.0317 20.8755 14.9917 21.2255 15.7617 21.8055V3.7155C15.7617 1.5155 14.1817 -0.0045 11.8717 -0.0045H3.8917C1.5817 -0.0045 0.0017 1.5155 0.0017 3.7155V21.8055C0.7517 21.2255 1.7217 20.8755 2.8017 20.8755ZM7.8917 6.8555C6.9517 6.8555 6.1917 6.0955 6.1917 5.1555C6.1917 4.2255 6.9517 3.4555 7.8917 3.4555C8.8217 3.4555 9.5717 4.2255 9.5717 5.1555C9.5717 6.0955 8.8217 6.8555 7.8917 6.8555ZM2.8017 28.2355H12.9617C14.5617 28.2355 15.7617 27.0255 15.7617 25.4255C15.7617 23.8255 14.5617 22.6155 12.9617 22.6155H2.8017C1.1917 22.6155 0.0017 23.8255 0.0017 25.4255C0.0017 27.0255 1.1917 28.2355 2.8017 28.2355Z" />
        </svg>
    