
        <svg xmlns="http://www.w3.org/2000/svg" viewBox="0 0 100 100">
            <path d="M10.7723 22.6964C16.4423 22.6964 21.0623 17.6264 21.0623 11.3564C21.0623 5.0864 16.4423 -0.0036 10.7723 -0.0036C7.6923 -0.0036 4.7623 1.5264 2.8023 4.1564C2.7523 4.2264 2.7323 4.2964 2.7323 4.3564C2.7323 4.5264 2.8623 4.6564 3.0223 4.6564C3.1123 4.6564 3.2223 4.6064 3.3123 4.4864C5.1323 2.0164 7.8623 0.5964 10.7723 0.5964C16.1523 0.5964 20.4723 5.4064 20.4723 11.3564C20.4723 17.3064 16.1523 22.1164 10.7723 22.1164C7.8623 22.1164 5.1323 20.6964 3.3123 18.2264C3.2223 18.1064 3.1123 18.0564 3.0223 18.0564C2.8623 18.0564 2.7323 18.1764 2.7323 18.3264C2.7323 18.3964 2.7523 18.4764 2.8023 18.5464C4.7623 21.1764 7.6923 22.6964 10.7723 22.6964ZM0.0023 17.6164C0.0023 19.0864 1.5323 20.0864 2.8523 19.5564C2.4623 19.0864 2.1223 18.7364 2.1223 18.3264C2.1223 17.8464 2.5623 17.4464 3.0423 17.4464C3.5723 17.4464 3.6423 17.7264 4.0823 18.2264C4.1323 18.0364 4.1623 17.8264 4.1623 17.6164V5.0964C4.1623 4.8864 4.1323 4.6764 4.0823 4.4864C3.6723 4.9364 3.5723 5.2664 3.0423 5.2664C2.5623 5.2664 2.1223 4.8664 2.1223 4.3664C2.1223 4.0064 2.4123 3.6564 2.8523 3.1564C1.5623 2.6364 0.0023 3.5864 0.0023 5.0964ZM2.0823 9.6064C1.2523 9.6064 0.5823 8.9364 0.5823 8.1164C0.5823 7.2964 1.2523 6.6164 2.0823 6.6164C2.9023 6.6164 3.5723 7.2964 3.5723 8.1164C3.5723 8.9364 2.9023 9.6064 2.0823 9.6064ZM2.0823 9.0264C2.5823 9.0264 2.9723 8.6164 2.9723 8.1164C2.9723 7.6264 2.5823 7.2164 2.0823 7.2164C1.5823 7.2164 1.1823 7.6264 1.1823 8.1164C1.1823 8.6164 1.5823 9.0264 2.0823 9.0264ZM2.0823 15.8064C1.4423 15.8064 0.9123 15.2964 0.9123 14.6464V11.7564C0.9123 11.1064 1.4423 10.5864 2.0823 10.5864C2.7223 10.5864 3.2423 11.1064 3.2423 11.7564V14.6464C3.2423 15.2964 2.7223 15.8064 2.0823 15.8064ZM2.0823 15.2064C2.3923 15.2064 2.6523 14.9664 2.6523 14.6464V11.7564C2.6523 11.4364 2.3923 11.1764 2.0823 11.1764C1.7723 11.1764 1.5123 11.4364 1.5123 11.7564V14.6464C1.5123 14.9664 1.7723 15.2064 2.0823 15.2064Z" />
        </svg>
    