
        <svg xmlns="http://www.w3.org/2000/svg" viewBox="0 0 100 100">
            <path d="M19.9017 0.0009H10.6717C8.7417 0.0009 7.1717 0.6809 6.1417 1.8909H12.4217C13.7917 1.8509 15.0317 2.1809 16.0617 2.8109H19.9417C21.8817 2.8109 23.0317 4.0009 23.0317 6.0009V18.0609C23.0317 20.0709 21.8817 21.2609 19.9417 21.2609H19.1617C18.8317 22.3809 18.2117 23.3309 17.3917 24.0509H19.9017C23.4817 24.0509 25.8117 21.6709 25.8117 18.0109V10.9409H26.0117C26.8817 10.9409 27.4417 10.3509 27.4417 9.4109V7.4509C27.4417 6.5109 26.8817 5.9109 26.0117 5.9109H25.8117C25.7717 2.3109 23.4417 0.0009 19.9017 0.0009ZM5.0817 24.0509H13.0117C16.0917 24.0509 18.0917 22.0109 18.0917 18.8509V12.8909H18.2117C18.9917 12.8909 19.5017 12.3509 19.5017 11.5209V9.7409C19.5017 8.8909 18.9917 8.3509 18.2117 8.3509H18.0917C18.0017 5.3309 16.0217 3.3909 13.0117 3.3909H5.0817C2.0017 3.3909 0.0017 5.4209 0.0017 8.5509V18.8509C0.0017 22.0109 2.0017 24.0509 5.0817 24.0509ZM5.0517 21.2609C3.6417 21.2609 2.8017 20.3709 2.8017 18.9009V8.5409C2.8017 7.0909 3.6417 6.2009 5.0517 6.2009H13.0417C14.4517 6.2009 15.3017 7.0909 15.3017 8.5409V18.9009C15.3017 20.3709 14.4517 21.2609 13.0417 21.2609Z" />
        </svg>
    