
        <svg xmlns="http://www.w3.org/2000/svg" viewBox="0 0 100 100">
            <path d="M8.3923 16.7972C8.9423 16.7972 9.4823 16.7372 10.0123 16.6372C10.5323 16.7372 11.0723 16.7972 11.6223 16.7972C12.1723 16.7972 12.7123 16.7372 13.2323 16.6372C13.7623 16.7372 14.2923 16.7972 14.8523 16.7972C14.9923 16.7972 15.1323 16.7772 15.2723 16.7672C15.6823 16.6672 16.1023 16.5472 17.1223 16.2672V14.8372C17.0423 14.8572 16.9723 14.8872 16.9023 14.9072C16.9723 14.8472 17.0423 14.7872 17.1223 14.7172V12.5072C16.2523 13.6572 15.0423 14.5272 13.6423 14.9572C15.5623 13.4172 16.7923 11.0472 16.7923 8.3872C16.7923 5.7272 15.5623 3.3672 13.6323 1.8272C15.7623 2.4772 17.4623 4.1372 18.1523 6.2472C18.5323 5.9672 18.9823 5.7172 19.5623 5.6272C19.0323 4.1172 18.0923 2.8172 16.8723 1.8272C18.6723 2.3772 20.1423 3.6572 20.9623 5.3072L22.5123 4.9672C21.2123 2.0372 18.2723 -0.0028 14.8523 -0.0028C14.2923 -0.0028 13.7623 0.0472 13.2423 0.1572C12.7123 0.0472 12.1723 -0.0028 11.6223 -0.0028C11.0723 -0.0028 10.5323 0.0472 10.0123 0.1572C9.4823 0.0472 8.9423 -0.0028 8.3923 -0.0028C3.7523 -0.0028 0.0023 3.7472 0.0023 8.3872C0.0023 13.0472 3.7523 16.7972 8.3923 16.7972ZM1.5323 8.3872C1.5323 5.2972 3.5723 2.6872 6.3823 1.8272C4.4623 3.3672 3.2223 5.7272 3.2223 8.3872C3.2223 11.0472 4.4523 13.4172 6.3823 14.9572C3.5723 14.0972 1.5323 11.4872 1.5323 8.3872ZM4.7723 8.3872C4.7723 5.3072 6.7923 2.7072 9.6023 1.8372C7.6723 3.3772 6.4423 5.7272 6.4423 8.3872C6.4423 11.0472 7.6623 13.4072 9.5823 14.9572C6.7823 14.0872 4.7723 11.4772 4.7723 8.3872ZM7.9823 8.3872C7.9823 5.7672 9.4423 3.4772 11.6123 2.3272C13.7823 3.4772 15.2623 5.7672 15.2623 8.3872C15.2623 11.0172 13.7823 13.2972 11.6123 14.4572C9.4423 13.2972 7.9823 11.0172 7.9823 8.3872ZM16.3223 24.2772C17.9223 24.2772 20.3123 23.0872 20.3123 19.9372V13.5472C20.3123 12.9872 20.3923 12.9072 20.8923 12.7872L25.8423 11.6972C26.2123 11.5972 26.4523 11.3172 26.4523 10.9572V6.8872C26.4523 6.3172 25.9723 5.9172 25.4023 6.0372L19.8623 7.2572C19.1623 7.4072 18.7723 7.7972 18.7723 8.4172L18.7823 16.9372C18.7823 17.4472 18.6023 17.7672 18.1523 17.8572L16.4423 18.2372C14.2523 18.7072 13.2323 19.7972 13.2323 21.4472C13.2323 23.0972 14.5223 24.2772 16.3223 24.2772Z" />
        </svg>
    