
        <svg xmlns="http://www.w3.org/2000/svg" viewBox="0 0 100 100">
            <path d="M3.3417 26.0873H10.5217C12.4717 26.0873 13.8517 24.6873 13.8517 22.7473V3.3273C13.8517 1.3273 12.4817 -0.0027 10.3717 -0.0027H3.4817C1.3717 -0.0027 0.0017 1.3273 0.0017 3.3273V22.7473C0.0017 24.6873 1.3817 26.0873 3.3417 26.0873ZM2.4617 3.6673C2.4617 2.9173 2.9417 2.4573 3.7417 2.4573H10.1117C10.9117 2.4573 11.3917 2.9173 11.3917 3.6673V19.5073C11.1217 19.4373 10.8317 19.4073 10.5217 19.4073H3.3417C3.0217 19.4073 2.7417 19.4373 2.4617 19.5073ZM6.9417 6.6873C7.7817 6.6873 8.4617 6.0073 8.4617 5.1673C8.4617 4.3273 7.7817 3.6373 6.9417 3.6373C6.0917 3.6373 5.4017 4.3273 5.4017 5.1673C5.4017 6.0073 6.0917 6.6873 6.9417 6.6873ZM3.3417 23.7573C2.7417 23.7573 2.3317 23.3273 2.3317 22.7473C2.3317 22.1573 2.7417 21.7473 3.3417 21.7473H10.5217C11.1117 21.7473 11.5217 22.1573 11.5217 22.7473C11.5217 23.3273 11.1117 23.7573 10.5217 23.7573Z" />
        </svg>
    