
        <svg xmlns="http://www.w3.org/2000/svg" viewBox="0 0 100 100">
            <path d="M7.0217 24.4202H17.4217C19.9817 24.4202 21.6217 24.0502 22.8517 22.8002C24.0817 21.5702 24.4417 19.9802 24.4417 17.4002V7.0202C24.4417 4.4502 24.0817 2.8402 22.8517 1.6202C21.6117 0.3902 19.9817 0.0002 17.4217 0.0002H7.0117C4.4617 0.0002 2.8317 0.3902 1.5917 1.6202C0.3617 2.8502 0.0017 4.4502 0.0017 7.0202V17.4002C0.0017 19.9802 0.3617 21.5902 1.5917 22.8002C2.8517 24.0502 4.4617 24.4202 7.0217 24.4202ZM7.2317 9.7402C7.1917 8.8702 7.8617 8.0702 8.7517 8.0302C8.8517 8.8402 8.1117 9.8302 7.2317 9.7402ZM13.3217 8.5902V9.9002H14.4417V10.7902H13.3217V13.9102C13.3217 14.4002 13.5617 14.5902 14.0417 14.5902C14.1517 14.5902 14.3417 14.5902 14.3917 14.5802V15.5002C14.3117 15.5302 14.0417 15.5502 13.7717 15.5502C12.6317 15.5502 12.1917 15.1402 12.1917 14.0402V10.7902H11.3917V9.9002H12.1917V8.5902ZM10.3117 13.6102C10.1417 14.1402 9.7717 14.8802 9.2717 15.3002C9.1017 15.4302 8.8917 15.5502 8.6217 15.5502C8.3717 15.5502 8.2117 15.4502 7.9817 15.3902C7.8317 15.3502 7.6417 15.2502 7.4017 15.2502C6.8517 15.2502 6.6117 15.5702 6.1517 15.5702C5.8517 15.5702 5.5917 15.3902 5.2617 15.0002C4.6217 14.2802 4.1917 13.1602 4.1917 12.1902C4.1917 11.6102 4.3617 11.0302 4.7017 10.5702C5.0317 10.1602 5.5217 9.9302 6.1017 9.9302C6.6717 9.9302 6.9817 10.2702 7.2617 10.2702C7.5917 10.2702 8.0017 9.9002 8.6817 9.9002C9.2817 9.9002 9.7817 10.1502 10.1117 10.6302C9.6917 10.9002 9.5317 11.2002 9.4317 11.4502C9.2917 11.8202 9.2617 12.2502 9.4317 12.7002C9.5717 13.1102 9.8717 13.3902 10.3117 13.6102ZM18.2217 15.5002H17.0017L14.9517 9.9002H16.1717L17.6017 14.4002L18.9817 9.9002H20.2217Z" />
        </svg>
    