
        <svg xmlns="http://www.w3.org/2000/svg" viewBox="0 0 100 100">
            <path d="M3.4617 21.2264H23.9917C26.2817 21.2264 27.4417 20.0464 27.4417 17.7964V3.4264C27.4417 1.1764 26.2817 -0.0036 23.9917 -0.0036H3.4617C1.1717 -0.0036 0.0017 1.1564 0.0017 3.4264V17.7964C0.0017 20.0664 1.1717 21.2264 3.4617 21.2264ZM4.7617 8.8564L7.8417 7.0064L4.7617 5.1464C3.9717 4.6664 4.6417 3.5364 5.4617 4.0564L8.9617 6.2464C9.4917 6.5864 9.5117 7.4164 8.9617 7.7564L5.4617 9.9464C4.6417 10.4664 3.9817 9.3164 4.7617 8.8564ZM9.6517 10.0664C9.6517 9.7264 9.9217 9.4564 10.2617 9.4564H14.8217C15.1717 9.4564 15.4417 9.7264 15.4417 10.0664C15.4417 10.4164 15.1717 10.6964 14.8217 10.6964H10.2617C9.9217 10.6964 9.6517 10.4164 9.6517 10.0664Z" />
        </svg>
    