
        <svg xmlns="http://www.w3.org/2000/svg" viewBox="0 0 100 100">
            <path d="M12.1023 24.2064C18.7823 24.2064 24.2123 18.7864 24.2123 12.1064C24.2123 5.4264 18.7823 -0.0036 12.1023 -0.0036C5.4223 -0.0036 0.0023 5.4264 0.0023 12.1064C0.0023 18.7864 5.4223 24.2064 12.1023 24.2064ZM11.8623 16.2764C11.4823 16.2764 11.1723 15.9564 11.1723 15.5864V13.0264C7.5623 12.6764 6.6123 9.5864 6.5423 7.8764C6.5423 7.4964 6.7223 7.2664 7.1023 7.2664C9.0123 7.2664 10.8323 8.1364 11.7823 9.8464C12.7923 7.3164 14.9523 5.8164 17.7623 5.8364C18.2223 5.8364 18.4923 6.1164 18.4923 6.5264C18.5123 10.2264 16.1723 12.7664 12.5423 13.0264V15.5864C12.5423 15.9564 12.2323 16.2764 11.8623 16.2764ZM12.7123 11.6364C15.1923 11.3364 16.8723 9.6564 17.0723 7.2564C14.8123 7.4964 13.2023 9.1264 12.7123 11.6364ZM11.0523 11.6264C10.6623 9.9164 9.3723 9.0164 8.0323 8.7664C8.3523 10.1964 9.3423 11.3764 11.0523 11.6264ZM9.9423 16.5264C9.5723 16.5264 9.2623 16.1864 9.2623 15.8364C9.2623 15.4564 9.5723 15.1564 9.9423 15.1564C10.3123 15.1564 10.6123 15.4564 10.6123 15.8364C10.6123 16.1864 10.3123 16.5264 9.9423 16.5264ZM13.7723 16.5264C13.3923 16.5264 13.0823 16.1864 13.0823 15.8364C13.0823 15.4564 13.3923 15.1564 13.7723 15.1564C14.1323 15.1564 14.4523 15.4564 14.4523 15.8364C14.4523 16.1864 14.1323 16.5264 13.7723 16.5264ZM8.1023 17.1364C7.7323 17.1364 7.4223 16.8064 7.4223 16.4564C7.4223 16.0864 7.7223 15.7464 8.1023 15.7464C8.4723 15.7464 8.8023 16.0864 8.8023 16.4564C8.8023 16.8164 8.4723 17.1364 8.1023 17.1364ZM15.6023 17.1364C15.2323 17.1364 14.9023 16.8164 14.9023 16.4564C14.9023 16.0864 15.2323 15.7464 15.6023 15.7464C15.9723 15.7464 16.2923 16.0864 16.2923 16.4564C16.2923 16.8064 15.9723 17.1364 15.6023 17.1364ZM6.4723 18.1864C6.0923 18.1864 5.7923 17.8564 5.7923 17.4964C5.7923 17.1464 6.0923 16.8164 6.4723 16.8164C6.8323 16.8164 7.1723 17.1464 7.1723 17.4964C7.1723 17.8564 6.8323 18.1864 6.4723 18.1864ZM17.2423 18.1864C16.8623 18.1864 16.5423 17.8564 16.5423 17.4964C16.5423 17.1464 16.8623 16.8164 17.2423 16.8164C17.6023 16.8164 17.9223 17.1464 17.9223 17.4964C17.9223 17.8564 17.6023 18.1864 17.2423 18.1864Z" />
        </svg>
    