
        <svg xmlns="http://www.w3.org/2000/svg" viewBox="0 0 100 100">
            <path d="M7.9923 15.9919C8.3923 15.9919 8.7923 15.9719 9.1623 15.9119C9.5523 15.9719 9.9523 15.9919 10.3523 15.9919C10.7323 15.9919 11.1323 15.9719 11.5123 15.9119C11.8823 15.9719 12.2823 15.9919 12.6823 15.9919C13.0623 15.9919 13.4423 15.9719 13.8323 15.9219C14.7223 15.7819 15.5623 15.5119 16.3323 15.1019L16.3223 14.1419C15.6923 14.5219 14.9923 14.8019 14.2523 14.9719C15.0223 14.5319 15.7123 13.9719 16.3023 13.3119V11.9619C15.3023 13.4619 13.7423 14.5619 11.9323 14.9619C14.3623 13.5919 16.0123 10.9819 16.0123 7.9919C16.0123 4.9919 14.3423 2.3719 11.8823 0.9919C14.2823 1.5219 16.2423 3.2419 17.0623 5.5319C17.2823 5.3819 17.5523 5.2619 17.8223 5.1919C17.1523 3.4019 15.8623 1.9219 14.2123 0.9919C16.4023 1.4719 18.2123 2.9419 19.1323 4.9119L19.9823 4.7319C18.7223 1.9319 15.9423 0.0019 12.6823 0.0019C12.2823 0.0019 11.8823 0.0219 11.5123 0.0819C11.1223 0.0219 10.7323 0.0019 10.3523 0.0019C9.9523 0.0019 9.5523 0.0219 9.1623 0.0819C8.7923 0.0219 8.3923 0.0019 7.9923 0.0019C3.5823 0.0019 0.0023 3.5819 0.0023 7.9919C0.0023 12.4119 3.5823 15.9919 7.9923 15.9919ZM0.8423 7.9919C0.8423 4.5419 3.2323 1.7019 6.4523 0.9919C3.9923 2.3719 2.3323 4.9919 2.3323 7.9919C2.3323 10.9819 3.9723 13.5919 6.4123 14.9719C3.2123 14.2519 0.8423 11.4119 0.8423 7.9919ZM3.1723 7.9919C3.1723 4.5619 5.5623 1.7019 8.7923 0.9919C6.3423 2.3719 4.6623 4.9919 4.6623 7.9919C4.6623 10.9819 6.3123 13.5919 8.7523 14.9619C5.5423 14.2519 3.1723 11.4119 3.1723 7.9919ZM5.5223 7.9919C5.5223 4.8419 7.5223 2.1919 10.3323 1.2219C13.1523 2.1919 15.1523 4.8419 15.1523 7.9919C15.1523 11.1319 13.1523 13.7919 10.3323 14.7519C7.5223 13.7919 5.5223 11.1319 5.5223 7.9919ZM14.4223 22.9119C16.0423 22.9119 18.3123 21.8119 18.3123 18.6719V12.6719C18.3123 11.8919 18.5323 11.6219 19.2623 11.4619L23.8223 10.4519C24.1023 10.3919 24.2723 10.2119 24.2723 9.9219V5.8619C24.2723 5.3919 23.9023 5.1119 23.4623 5.2019L18.1723 6.3419C17.6923 6.4319 17.4523 6.7219 17.4523 7.1719L17.5223 15.4419C17.5223 16.1819 17.1323 16.7019 16.4623 16.8319L14.6223 17.2219C12.5323 17.6719 11.5223 18.6519 11.5223 20.2719C11.5223 21.8419 12.6923 22.9119 14.4223 22.9119Z" />
        </svg>
    