
        <svg xmlns="http://www.w3.org/2000/svg" viewBox="0 0 100 100">
            <path d="M3.0617 25.8836H7.7717C9.6317 25.8836 10.8117 24.7336 10.8117 22.9736V2.9136C10.8117 1.1436 9.6317 0.0036 7.7717 0.0036H3.0617C1.1817 0.0036 0.0017 1.1436 0.0017 2.9136V22.9736C0.0017 24.7336 1.1817 25.8836 3.0617 25.8836ZM3.2617 24.1736C2.3217 24.1736 1.7317 23.6136 1.7317 22.7236V3.1736C1.7317 2.2736 2.3217 1.7136 3.2617 1.7136H7.5617C8.4917 1.7136 9.0817 2.2736 9.0817 3.1736V22.7236C9.0817 23.6136 8.4917 24.1736 7.5617 24.1736ZM5.4117 10.0036C7.2317 10.0036 8.7117 8.5536 8.7117 6.7236C8.7117 4.9136 7.2317 3.4536 5.4117 3.4536C3.6017 3.4536 2.1217 4.9136 2.1217 6.7236C2.1217 8.5536 3.6017 10.0036 5.4117 10.0036ZM3.7817 13.2436C4.4417 13.2436 4.9817 12.7036 4.9817 12.0436C4.9817 11.4036 4.4517 10.8636 3.7817 10.8636C3.1217 10.8636 2.6017 11.4036 2.6017 12.0436C2.6017 12.7036 3.1217 13.2436 3.7817 13.2436ZM7.0517 13.2436C7.7017 13.2436 8.2217 12.7036 8.2217 12.0436C8.2217 11.4036 7.7017 10.8636 7.0517 10.8636C6.3917 10.8636 5.8317 11.4036 5.8317 12.0436C5.8317 12.7036 6.3917 13.2436 7.0517 13.2436ZM3.7817 16.3836C4.4517 16.3836 4.9817 15.8536 4.9817 15.1836C4.9817 14.5336 4.4517 13.9936 3.7817 13.9936C3.1217 13.9936 2.6017 14.5436 2.6017 15.1836C2.6017 15.8536 3.1217 16.3836 3.7817 16.3836ZM7.0317 19.5236C7.6517 19.5236 8.1717 19.0236 8.1717 18.4236V15.1336C8.1717 14.5036 7.6517 13.9936 7.0317 13.9936C6.4117 13.9936 5.9317 14.4936 5.9317 15.1336V18.4236C5.9317 19.0236 6.4217 19.5236 7.0317 19.5236ZM3.7817 19.5236C4.4517 19.5236 4.9817 18.9936 4.9817 18.3436C4.9817 17.6736 4.4417 17.1336 3.7817 17.1336C3.1217 17.1336 2.6017 17.6736 2.6017 18.3436C2.6017 18.9936 3.1217 19.5236 3.7817 19.5236Z" />
        </svg>
    