
        <svg xmlns="http://www.w3.org/2000/svg" viewBox="0 0 100 100">
            <path d="M0.0017 23.3536C0.0017 24.9036 1.0317 25.8836 2.6717 25.8836H9.9617C11.6017 25.8836 12.6317 24.9036 12.6317 23.3536V2.5336C12.6317 0.9936 11.6017 0.0036 9.9617 0.0036H2.6717C1.0317 0.0036 0.0017 0.9936 0.0017 2.5336ZM1.7317 23.1136V2.7736C1.7317 2.1236 2.1717 1.7136 2.8717 1.7136H9.7617C10.4717 1.7136 10.9017 2.1236 10.9017 2.7736V23.1136C10.9017 23.7636 10.4717 24.1736 9.7617 24.1736H2.8717C2.1717 24.1736 1.7317 23.7636 1.7317 23.1136ZM6.3317 11.2136C8.3717 11.2136 10.0217 9.5536 10.0217 7.5236C10.0217 5.4836 8.3717 3.8236 6.3317 3.8236C4.2917 3.8236 2.6217 5.4836 2.6217 7.5236C2.6217 9.5536 4.2917 11.2136 6.3317 11.2136ZM6.3317 9.0136C5.4917 9.0136 4.8317 8.3436 4.8317 7.5236C4.8317 6.6936 5.4917 6.0236 6.3317 6.0236C7.1617 6.0236 7.8117 6.6936 7.8117 7.5236C7.8117 8.3436 7.1617 9.0136 6.3317 9.0136ZM6.3317 15.2136C7.0817 15.2136 7.6917 14.6036 7.6917 13.8536C7.6917 13.0936 7.0817 12.4836 6.3317 12.4836C5.5617 12.4836 4.9417 13.0936 4.9417 13.8536C4.9417 14.6036 5.5617 15.2136 6.3317 15.2136Z" />
        </svg>
    