
        <svg xmlns="http://www.w3.org/2000/svg" viewBox="0 0 100 100">
            <path d="M4.0617 19.7298H25.3017C27.7417 19.7298 29.3717 18.1598 29.3717 15.8098V4.2098C29.3717 1.6898 27.7417 -0.0002 25.3117 -0.0002H4.0517C1.6317 -0.0002 0.0017 1.6898 0.0017 4.2098V15.8098C0.0017 18.1598 1.6317 19.7298 4.0617 19.7298ZM5.6217 15.5698C4.9417 15.5698 4.5117 15.1298 4.5117 14.4698V5.2698C4.5117 4.5898 4.9117 4.1598 5.6117 4.1598H23.7517C24.4617 4.1598 24.8517 4.5898 24.8517 5.2698V14.4698C24.8517 15.1298 24.4217 15.5698 23.7417 15.5698ZM6.1917 7.5198H7.4217C7.6917 7.5198 7.8617 7.3398 7.8617 7.0698V5.8798C7.8617 5.5798 7.6917 5.3898 7.4217 5.3898H6.1917C5.9217 5.3898 5.7417 5.5798 5.7417 5.8798V7.0698C5.7417 7.3398 5.9217 7.5198 6.1917 7.5198ZM9.6217 7.5198H10.8517C11.1217 7.5198 11.3117 7.3398 11.3117 7.0698V5.8798C11.3117 5.5798 11.1217 5.3898 10.8517 5.3898H9.6217C9.3517 5.3898 9.1717 5.5798 9.1717 5.8798V7.0698C9.1717 7.3398 9.3517 7.5198 9.6217 7.5198ZM13.0517 7.5198H14.3017C14.5617 7.5198 14.7417 7.3398 14.7417 7.0698V5.8798C14.7417 5.5798 14.5617 5.3898 14.3017 5.3898H13.0517C12.8017 5.3898 12.6117 5.5798 12.6117 5.8798V7.0698C12.6117 7.3398 12.8017 7.5198 13.0517 7.5198ZM16.5017 7.5198H17.7317C18.0017 7.5198 18.1717 7.3398 18.1717 7.0698V5.8798C18.1717 5.5798 18.0017 5.3898 17.7317 5.3898H16.5017C16.2317 5.3898 16.0417 5.5798 16.0417 5.8798V7.0698C16.0417 7.3398 16.2317 7.5198 16.5017 7.5198ZM21.9517 7.5198H23.1817C23.4517 7.5198 23.6217 7.3398 23.6217 7.0698V5.8798C23.6217 5.5798 23.4517 5.3898 23.1817 5.3898H21.9517C21.6817 5.3898 21.5017 5.5798 21.5017 5.8798V7.0698C21.5017 7.3398 21.6817 7.5198 21.9517 7.5198ZM6.1917 10.9298H7.4217C7.6917 10.9298 7.8617 10.7598 7.8617 10.4898V9.2898C7.8617 8.9998 7.6917 8.7998 7.4217 8.7998H6.1917C5.9217 8.7998 5.7417 8.9998 5.7417 9.2898V10.4898C5.7417 10.7598 5.9217 10.9298 6.1917 10.9298ZM9.6217 10.9298H10.8517C11.1217 10.9298 11.3117 10.7598 11.3117 10.4898V9.2898C11.3117 8.9998 11.1217 8.7998 10.8517 8.7998H9.6217C9.3517 8.7998 9.1717 8.9998 9.1717 9.2898V10.4898C9.1717 10.7598 9.3517 10.9298 9.6217 10.9298ZM13.0517 10.9298H14.3017C14.5617 10.9298 14.7417 10.7598 14.7417 10.4898V9.2898C14.7417 8.9998 14.5617 8.7998 14.3017 8.7998H13.0517C12.8017 8.7998 12.6117 8.9998 12.6117 9.2898V10.4898C12.6117 10.7598 12.8017 10.9298 13.0517 10.9298ZM21.9517 10.9298H23.1817C23.4517 10.9298 23.6217 10.7598 23.6217 10.4898V9.2898C23.6217 8.9998 23.4517 8.7998 23.1817 8.7998H21.9517C21.6817 8.7998 21.5017 8.9998 21.5017 9.2898V10.4898C21.5017 10.7598 21.6817 10.9298 21.9517 10.9298ZM21.9517 14.3298H23.1817C23.4517 14.3298 23.6217 14.1598 23.6217 13.8898V12.6998C23.6217 12.3998 23.4517 12.2098 23.1817 12.2098H21.9517C21.6817 12.2098 21.5017 12.3998 21.5017 12.6998V13.8898C21.5017 14.1598 21.6817 14.3298 21.9517 14.3298Z" />
        </svg>
    