
        <svg xmlns="http://www.w3.org/2000/svg" viewBox="0 0 100 100">
            <path d="M0.0017 21.1713C0.0017 23.0013 1.1617 24.1313 3.0517 24.1313H11.2217C13.1117 24.1313 14.2717 23.0013 14.2717 21.1713V2.9612C14.2717 1.1412 13.1117 0.0012 11.2217 0.0012H3.0517C1.1617 0.0012 0.0017 1.1412 0.0017 2.9612ZM1.4517 20.9613V3.1612C1.4517 2.0313 2.0417 1.4513 3.2117 1.4513H11.0617C12.2317 1.4513 12.8317 2.0313 12.8317 3.1612V20.9613C12.8317 22.1112 12.2317 22.6913 11.0617 22.6913H3.2117C2.0417 22.6913 1.4517 22.1112 1.4517 20.9613ZM3.6217 5.2813H4.7017C4.9617 5.2813 5.1417 5.1113 5.1417 4.8613V3.7613C5.1417 3.5113 4.9617 3.3412 4.7017 3.3412H3.6217C3.3717 3.3412 3.2017 3.5113 3.2017 3.7613V4.8613C3.2017 5.1113 3.3717 5.2813 3.6217 5.2813ZM6.5717 5.2813H7.6517C7.9217 5.2813 8.1117 5.1113 8.1117 4.8613V3.7613C8.1117 3.5113 7.9217 3.3412 7.6517 3.3412H6.5717C6.3317 3.3412 6.1517 3.5113 6.1517 3.7613V4.8613C6.1517 5.1113 6.3317 5.2813 6.5717 5.2813ZM9.5317 5.2813H10.6017C10.8717 5.2813 11.0617 5.1113 11.0617 4.8613V3.7613C11.0617 3.5113 10.8717 3.3412 10.6017 3.3412H9.5317C9.2817 3.3412 9.1217 3.5113 9.1217 3.7613V4.8613C9.1217 5.1113 9.2817 5.2813 9.5317 5.2813ZM3.6217 8.4012H4.7017C4.9617 8.4012 5.1417 8.2313 5.1417 7.9813V6.8813C5.1417 6.6313 4.9617 6.4613 4.7017 6.4613H3.6217C3.3717 6.4613 3.2017 6.6313 3.2017 6.8813V7.9813C3.2017 8.2313 3.3717 8.4012 3.6217 8.4012ZM6.5717 8.4012H7.6517C7.9217 8.4012 8.1117 8.2313 8.1117 7.9813V6.8813C8.1117 6.6313 7.9217 6.4613 7.6517 6.4613H6.5717C6.3317 6.4613 6.1517 6.6313 6.1517 6.8813V7.9813C6.1517 8.2313 6.3317 8.4012 6.5717 8.4012ZM9.5317 8.4012H10.6017C10.8717 8.4012 11.0617 8.2313 11.0617 7.9813V6.8813C11.0617 6.6313 10.8717 6.4613 10.6017 6.4613H9.5317C9.2817 6.4613 9.1217 6.6313 9.1217 6.8813V7.9813C9.1217 8.2313 9.2817 8.4012 9.5317 8.4012ZM3.6217 11.5313H4.7017C4.9617 11.5313 5.1417 11.3513 5.1417 11.1013V9.9913C5.1417 9.7413 4.9617 9.5712 4.7017 9.5712H3.6217C3.3717 9.5712 3.2017 9.7413 3.2017 9.9913V11.1013C3.2017 11.3513 3.3717 11.5313 3.6217 11.5313ZM6.5717 11.5313H7.6517C7.9217 11.5313 8.1117 11.3513 8.1117 11.1013V9.9913C8.1117 9.7413 7.9217 9.5712 7.6517 9.5712H6.5717C6.3317 9.5712 6.1517 9.7413 6.1517 9.9913V11.1013C6.1517 11.3513 6.3317 11.5313 6.5717 11.5313ZM3.6217 20.9613H4.7017C4.9617 20.9613 5.1417 20.8013 5.1417 20.5513V19.4413C5.1417 19.1913 4.9617 19.0212 4.7017 19.0212H3.6217C3.3717 19.0212 3.2017 19.1913 3.2017 19.4413V20.5513C3.2017 20.8013 3.3717 20.9613 3.6217 20.9613ZM6.5717 20.9613H7.6517C7.9217 20.9613 8.1117 20.8013 8.1117 20.5513V19.4413C8.1117 19.1913 7.9217 19.0212 7.6517 19.0212H6.5717C6.3317 19.0212 6.1517 19.1913 6.1517 19.4413V20.5513C6.1517 20.8013 6.3317 20.9613 6.5717 20.9613ZM9.5317 20.9613H10.6017C10.8717 20.9613 11.0617 20.8013 11.0617 20.5513V19.4413C11.0617 19.1913 10.8717 19.0212 10.6017 19.0212H9.5317C9.2817 19.0212 9.1217 19.1913 9.1217 19.4413V20.5513C9.1217 20.8013 9.2817 20.9613 9.5317 20.9613Z" />
        </svg>
    