
        <svg xmlns="http://www.w3.org/2000/svg" viewBox="0 0 100 100">
            <path d="M3.0117 20.4997H24.0617C26.0117 20.4997 27.0617 19.4297 27.0617 17.4797V3.0097C27.0617 1.0697 26.0117 -0.0003 24.0617 -0.0003H3.0117C1.0417 -0.0003 0.0017 1.0397 0.0017 3.0097V17.4797C0.0017 19.4497 1.0417 20.4997 3.0117 20.4997ZM3.0317 19.9197C1.4217 19.9197 0.5717 19.0797 0.5717 17.4597V3.0397C0.5717 1.4097 1.4217 0.5697 3.0317 0.5697H24.0217C25.5817 0.5697 26.4817 1.4097 26.4817 3.0397V17.4597C26.4817 19.0797 25.5817 19.9197 24.0217 19.9197ZM4.2617 5.5297H5.5317C5.8117 5.5297 6.0517 5.3197 6.0517 5.0397V3.7597C6.0517 3.4697 5.8117 3.2697 5.5317 3.2697H4.2617C3.9817 3.2697 3.8017 3.4697 3.8017 3.7597V5.0397C3.8017 5.3197 3.9817 5.5297 4.2617 5.5297ZM8.5917 5.5297H9.8517C10.1517 5.5297 10.3717 5.3197 10.3717 5.0397V3.7597C10.3717 3.4697 10.1517 3.2697 9.8517 3.2697H8.5917C8.3117 3.2697 8.1217 3.4697 8.1217 3.7597V5.0397C8.1217 5.3197 8.3117 5.5297 8.5917 5.5297ZM12.9117 5.5297H14.1517C14.4617 5.5297 14.6817 5.3197 14.6817 5.0397V3.7597C14.6817 3.4697 14.4617 3.2697 14.1517 3.2697H12.9117C12.6217 3.2697 12.4217 3.4697 12.4217 3.7597V5.0397C12.4217 5.3197 12.6217 5.5297 12.9117 5.5297ZM17.2217 5.5297H18.4717C18.7717 5.5297 18.9717 5.3197 18.9717 5.0397V3.7597C18.9717 3.4697 18.7717 3.2697 18.4717 3.2697H17.2217C16.9317 3.2697 16.7317 3.4697 16.7317 3.7597V5.0397C16.7317 5.3197 16.9317 5.5297 17.2217 5.5297ZM21.5417 5.5297H22.7717C23.0717 5.5297 23.2817 5.3197 23.2817 5.0397V3.7597C23.2817 3.4697 23.0717 3.2697 22.7717 3.2697H21.5417C21.2317 3.2697 21.0517 3.4697 21.0517 3.7597V5.0397C21.0517 5.3197 21.2317 5.5297 21.5417 5.5297ZM4.2617 9.5897H5.5317C5.8117 9.5897 6.0517 9.3797 6.0517 9.0897V7.8197C6.0517 7.5197 5.8117 7.3197 5.5317 7.3197H4.2617C3.9817 7.3197 3.8017 7.5197 3.8017 7.8197V9.0897C3.8017 9.3797 3.9817 9.5897 4.2617 9.5897ZM8.5917 9.5897H9.8517C10.1517 9.5897 10.3717 9.3797 10.3717 9.0897V7.8197C10.3717 7.5197 10.1517 7.3197 9.8517 7.3197H8.5917C8.3117 7.3197 8.1217 7.5197 8.1217 7.8197V9.0897C8.1217 9.3797 8.3117 9.5897 8.5917 9.5897ZM12.9117 9.5897H14.1517C14.4617 9.5897 14.6817 9.3797 14.6817 9.0897V7.8197C14.6817 7.5197 14.4617 7.3197 14.1517 7.3197H12.9117C12.6217 7.3197 12.4217 7.5197 12.4217 7.8197V9.0897C12.4217 9.3797 12.6217 9.5897 12.9117 9.5897ZM17.2217 9.5897H18.4717C18.7717 9.5897 18.9717 9.3797 18.9717 9.0897V7.8197C18.9717 7.5197 18.7717 7.3197 18.4717 7.3197H17.2217C16.9317 7.3197 16.7317 7.5197 16.7317 7.8197V9.0897C16.7317 9.3797 16.9317 9.5897 17.2217 9.5897ZM4.2617 17.2297H5.5317C5.8117 17.2297 6.0517 17.0197 6.0517 16.7297V15.4597C6.0517 15.1597 5.8117 14.9697 5.5317 14.9697H4.2617C3.9817 14.9697 3.8017 15.1597 3.8017 15.4597V16.7297C3.8017 17.0197 3.9817 17.2297 4.2617 17.2297ZM8.5917 17.2297H9.8517C10.1517 17.2297 10.3717 17.0197 10.3717 16.7297V15.4597C10.3717 15.1597 10.1517 14.9697 9.8517 14.9697H8.5917C8.3117 14.9697 8.1217 15.1597 8.1217 15.4597V16.7297C8.1217 17.0197 8.3117 17.2297 8.5917 17.2297ZM12.9117 17.2297H14.1517C14.4617 17.2297 14.6817 17.0197 14.6817 16.7297V15.4597C14.6817 15.1597 14.4617 14.9697 14.1517 14.9697H12.9117C12.6217 14.9697 12.4217 15.1597 12.4217 15.4597V16.7297C12.4217 17.0197 12.6217 17.2297 12.9117 17.2297ZM17.2217 17.2297H18.4717C18.7717 17.2297 18.9717 17.0197 18.9717 16.7297V15.4597C18.9717 15.1597 18.7717 14.9697 18.4717 14.9697H17.2217C16.9317 14.9697 16.7317 15.1597 16.7317 15.4597V16.7297C16.7317 17.0197 16.9317 17.2297 17.2217 17.2297ZM21.5417 17.2297H22.7717C23.0717 17.2297 23.2817 17.0197 23.2817 16.7297V15.4597C23.2817 15.1597 23.0717 14.9697 22.7717 14.9697H21.5417C21.2317 14.9697 21.0517 15.1597 21.0517 15.4597V16.7297C21.0517 17.0197 21.2317 17.2297 21.5417 17.2297Z" />
        </svg>
    