
        <svg xmlns="http://www.w3.org/2000/svg" viewBox="0 0 100 100">
            <path d="M12.0908 2.4725C12.8008 2.4725 13.3208 1.9425 13.3208 1.2425C13.3208 0.5525 12.7808 0.0025 12.0908 0.0025C11.4308 0.0025 10.8608 0.5525 10.8608 1.2425C10.8608 1.9325 11.4008 2.4725 12.0908 2.4725ZM6.6708 5.6125C7.3708 5.6125 7.9008 5.0725 7.9008 4.3625C7.9008 3.6825 7.3608 3.1325 6.6708 3.1325C5.9908 3.1325 5.4408 3.6925 5.4408 4.3625C5.4408 5.0625 5.9808 5.6125 6.6708 5.6125ZM17.5208 5.6125C18.2208 5.6125 18.7608 5.0725 18.7608 4.3625C18.7608 3.6825 18.2108 3.1325 17.5208 3.1325C16.8508 3.1325 16.2908 3.6925 16.2908 4.3625C16.2908 5.0625 16.8408 5.6125 17.5208 5.6125ZM12.0908 9.1625C13.0008 9.1625 13.7108 8.4525 13.7108 7.5425C13.7108 6.6525 12.9808 5.9325 12.0908 5.9325C11.2008 5.9325 10.4808 6.6525 10.4808 7.5425C10.4808 8.4325 11.2008 9.1625 12.0908 9.1625ZM1.2408 8.7725C1.9408 8.7725 2.4708 8.2525 2.4708 7.5425C2.4708 6.8525 1.9208 6.3125 1.2408 6.3125C0.5508 6.3125 0.0008 6.8525 0.0008 7.5425C0.0008 8.2425 0.5508 8.7725 1.2408 8.7725ZM22.9108 8.7725C23.6108 8.7725 24.1408 8.2525 24.1408 7.5425C24.1408 6.8425 23.6108 6.3125 22.9108 6.3125C22.2408 6.3125 21.6808 6.8625 21.6808 7.5425C21.6808 8.2425 22.2208 8.7725 22.9108 8.7725ZM6.6708 12.3125C7.5808 12.3125 8.2808 11.6025 8.2808 10.6825C8.2808 9.7925 7.5608 9.0625 6.6708 9.0625C5.7908 9.0625 5.0508 9.8125 5.0508 10.6825C5.0508 11.5925 5.7608 12.3125 6.6708 12.3125ZM17.5208 12.3125C18.4408 12.3125 19.1508 11.6025 19.1508 10.6825C19.1508 9.7925 18.4108 9.0625 17.5208 9.0625C16.6508 9.0625 15.9008 9.8125 15.9008 10.6825C15.9008 11.5925 16.6308 12.3125 17.5208 12.3125ZM12.0908 15.7025C13.1208 15.7025 13.9608 14.8825 13.9608 13.8525C13.9608 12.8325 13.1108 11.9925 12.0908 11.9925C11.0908 11.9925 10.2408 12.8325 10.2408 13.8525C10.2408 14.8725 11.0708 15.7025 12.0908 15.7025ZM1.2408 15.0825C1.9408 15.0825 2.4708 14.5525 2.4708 13.8525C2.4708 13.1625 1.9208 12.6225 1.2408 12.6225C0.5508 12.6225 0.0008 13.1625 0.0008 13.8525C0.0008 14.5425 0.5508 15.0825 1.2408 15.0825ZM23.9208 14.5925C24.0608 14.3625 24.1508 14.1125 24.1508 13.8525C24.1508 13.1525 23.6108 12.6225 22.9208 12.6225C22.2408 12.6225 21.6808 13.1725 21.6808 13.8525C21.6808 14.0625 21.7508 14.3225 21.8808 14.5225C22.1808 14.3925 22.5008 14.3225 22.8308 14.3225C23.2308 14.3225 23.5908 14.4225 23.9208 14.5925ZM18.0308 26.7025H27.6408C28.4908 26.7025 29.0508 26.0225 29.0508 25.2725C29.0508 25.0425 28.9908 24.8225 28.8608 24.5725L24.0508 16.0425C23.7808 15.5825 23.3108 15.3325 22.8408 15.3325C22.3608 15.3325 21.8908 15.5825 21.6108 16.0425L16.7908 24.5825C16.6808 24.8225 16.6208 25.0425 16.6208 25.2725C16.6208 26.0225 17.1908 26.7025 18.0308 26.7025ZM6.6708 18.6325C7.5608 18.6325 8.2808 17.9225 8.2808 17.0125C8.2808 16.1125 7.5608 15.3825 6.6708 15.3825C5.7808 15.3825 5.0508 16.1225 5.0508 17.0125C5.0508 17.9025 5.7808 18.6325 6.6708 18.6325ZM17.5208 18.6325C17.9108 18.6325 18.2508 18.5025 18.4808 18.2925L19.1208 17.1525V16.9125C19.0908 16.0925 18.4108 15.3825 17.5208 15.3825C16.6408 15.3825 15.9008 16.1225 15.9008 17.0125C15.9008 17.9025 16.6408 18.6325 17.5208 18.6325ZM22.8308 22.5625C22.5508 22.5625 22.3208 22.3325 22.3208 22.0425L22.2608 18.5425C22.2508 18.2125 22.4908 17.9625 22.8308 17.9625C23.1708 17.9625 23.4008 18.2125 23.3908 18.5425L23.3308 22.0425C23.3308 22.3325 23.1108 22.5625 22.8308 22.5625ZM12.0908 21.7725C13.0008 21.7725 13.7108 21.0625 13.7108 20.1525C13.7108 19.2625 12.9808 18.5425 12.0908 18.5425C11.2308 18.5425 10.4808 19.2725 10.4808 20.1525C10.4808 21.0625 11.1908 21.7725 12.0908 21.7725ZM1.2408 21.3825C1.9408 21.3825 2.4708 20.8625 2.4708 20.1525C2.4708 19.4625 1.9208 18.9225 1.2408 18.9225C0.5608 18.9225 0.0008 19.4725 0.0008 20.1525C0.0008 20.8625 0.5408 21.3825 1.2408 21.3825ZM6.6708 24.5725C7.3708 24.5725 7.9008 24.0325 7.9008 23.3325C7.9008 22.6525 7.3608 22.0925 6.6708 22.0925C5.9908 22.0925 5.4408 22.6525 5.4408 23.3325C5.4408 24.0225 5.9808 24.5725 6.6708 24.5725ZM22.8308 24.9525C22.3808 24.9525 22.0308 24.6025 22.0308 24.1525C22.0308 23.7325 22.3908 23.3625 22.8308 23.3625C23.2708 23.3625 23.6508 23.7425 23.6408 24.1525C23.6208 24.6025 23.2608 24.9525 22.8308 24.9525ZM12.0908 27.7025C12.8008 27.7025 13.3208 27.1725 13.3208 26.4625C13.3208 25.7725 12.7808 25.2325 12.0908 25.2325C11.4308 25.2325 10.8608 25.7825 10.8608 26.4625C10.8608 27.1625 11.4008 27.7025 12.0908 27.7025Z" />
        </svg>
    