
        <svg xmlns="http://www.w3.org/2000/svg" viewBox="0 0 100 100">
            <path d="M12.9394 3.2783C13.8594 3.2783 14.5794 2.5783 14.5794 1.6383C14.5794 0.7383 13.8494 -0.0017 12.9394 -0.0017C12.0494 -0.0017 11.2994 0.7483 11.2994 1.6383C11.2994 2.5583 12.0394 3.2783 12.9394 3.2783ZM7.2894 6.5483C8.2194 6.5483 8.9294 5.8383 8.9294 4.9083C8.9294 3.9983 8.1894 3.2683 7.2894 3.2683C6.3894 3.2683 5.6494 4.0083 5.6494 4.9083C5.6494 5.8083 6.3794 6.5483 7.2894 6.5483ZM18.5994 6.5483C19.5194 6.5483 20.2294 5.8383 20.2294 4.9083C20.2294 3.9983 19.4994 3.2683 18.5994 3.2683C17.6994 3.2683 16.9594 4.0083 16.9594 4.9083C16.9594 5.8283 17.6794 6.5483 18.5994 6.5483ZM12.9394 10.2983C14.1094 10.2983 15.0194 9.3783 15.0194 8.2183C15.0194 7.0683 14.0894 6.1283 12.9394 6.1283C11.7994 6.1283 10.8494 7.0783 10.8494 8.2183C10.8494 9.3583 11.7894 10.2983 12.9394 10.2983ZM1.6294 9.8583C2.5594 9.8583 3.2694 9.1383 3.2694 8.2183C3.2694 7.2983 2.5394 6.5783 1.6294 6.5783C0.7394 6.5783 -0.0006 7.3083 -0.0006 8.2183C-0.0006 9.1183 0.7294 9.8583 1.6294 9.8583ZM24.1994 9.8583C25.1294 9.8583 25.8394 9.1283 25.8394 8.2183C25.8394 7.2983 25.1094 6.5783 24.1994 6.5783C23.3094 6.5783 22.5594 7.3083 22.5594 8.2183C22.5594 9.1183 23.2894 9.8583 24.1994 9.8583ZM7.2894 13.5683C8.4594 13.5683 9.3794 12.6583 9.3794 11.4883C9.3794 10.3383 8.4394 9.3983 7.2894 9.3983C6.1494 9.3983 5.1994 10.3483 5.1994 11.4883C5.1994 12.6283 6.1394 13.5683 7.2894 13.5683ZM18.5994 13.5683C19.7594 13.5683 20.6794 12.6583 20.6794 11.4883C20.6794 10.3383 19.7394 9.3983 18.5994 9.3983C17.4594 9.3983 16.4994 10.3483 16.4994 11.4883C16.4994 12.6283 17.4394 13.5683 18.5994 13.5683ZM12.9394 17.1583C14.2694 17.1583 15.3294 16.0983 15.3294 14.7783C15.3294 13.4683 14.2494 12.3883 12.9394 12.3883C11.6394 12.3883 10.5594 13.4783 10.5594 14.7783C10.5594 16.0883 11.6294 17.1583 12.9394 17.1583ZM1.6294 16.4183C2.5594 16.4183 3.2694 15.6983 3.2694 14.7783C3.2694 13.8583 2.5394 13.1383 1.6294 13.1383C0.7394 13.1383 -0.0006 13.8783 -0.0006 14.7783C-0.0006 15.6783 0.7294 16.4183 1.6294 16.4183ZM25.5494 15.7183C25.7594 15.4483 25.8794 15.1183 25.8794 14.7783C25.8794 13.8583 25.1494 13.1383 24.2394 13.1383C23.3394 13.1383 22.5894 13.8883 22.5894 14.7783C22.5894 14.9683 22.6294 15.2183 22.7594 15.4583C23.1494 15.3183 23.5094 15.2583 23.8694 15.2583C24.4894 15.2583 25.0894 15.4383 25.5494 15.7183ZM7.2894 20.1583C8.4494 20.1583 9.3794 19.2283 9.3794 18.0683C9.3794 16.9083 8.4394 15.9683 7.2894 15.9683C6.1494 15.9683 5.1994 16.9383 5.1994 18.0683C5.1994 19.2183 6.1394 20.1583 7.2894 20.1583ZM18.5994 20.1583C18.8594 20.1583 19.0094 20.1083 19.1494 20.0383L20.5694 17.5083V17.4483C20.3594 16.6983 19.5894 15.9683 18.5994 15.9683C17.4494 15.9683 16.4994 16.9383 16.4994 18.0683C16.4994 19.2183 17.4394 20.1583 18.5994 20.1583ZM18.8994 29.0083H28.8294C29.8094 29.0083 30.4494 28.2883 30.4494 27.3983C30.4494 27.1283 30.3794 26.8583 30.2194 26.5983L25.2494 17.7183C24.9494 17.1683 24.4094 16.8983 23.8694 16.8983C23.3294 16.8983 22.7794 17.1783 22.4794 17.7183L17.5194 26.5983C17.3794 26.8583 17.2994 27.1283 17.2994 27.3983C17.2994 28.2883 17.9294 29.0083 18.8994 29.0083ZM12.9394 23.4283C14.1094 23.4283 15.0194 22.4983 15.0194 21.3383C15.0194 20.1883 14.0894 19.2583 12.9394 19.2583C11.8094 19.2583 10.8494 20.1983 10.8494 21.3383C10.8494 22.4883 11.7894 23.4283 12.9394 23.4283ZM23.8694 24.4683C23.4294 24.4683 23.1094 24.1483 23.0994 23.7283L22.9994 20.5383C22.9894 20.0383 23.3594 19.6783 23.8694 19.6783C24.3894 19.6783 24.7494 20.0283 24.7394 20.5383L24.6494 23.7283C24.6294 24.1483 24.3094 24.4683 23.8694 24.4683ZM1.6294 22.9783C2.5594 22.9783 3.2694 22.2783 3.2694 21.3383C3.2694 20.4283 2.5394 19.6983 1.6294 19.6983C0.7394 19.6983 -0.0006 20.4483 -0.0006 21.3383C-0.0006 22.2583 0.7294 22.9783 1.6294 22.9783ZM7.2894 26.2883C8.2194 26.2883 8.9294 25.5683 8.9294 24.6483C8.9294 23.7283 8.1994 23.0083 7.2894 23.0083C6.3894 23.0083 5.6494 23.7583 5.6494 24.6483C5.6494 25.5583 6.3794 26.2883 7.2894 26.2883ZM23.8694 27.2683C23.2994 27.2683 22.8294 26.8283 22.8294 26.2483C22.8294 25.6783 23.3094 25.2283 23.8694 25.2283C24.4494 25.2283 24.9094 25.6883 24.9094 26.2483C24.9094 26.8283 24.4594 27.2683 23.8694 27.2683ZM12.9394 29.5383C13.8594 29.5383 14.5794 28.8283 14.5794 27.8983C14.5794 26.9883 13.8494 26.2583 12.9394 26.2583C12.0494 26.2583 11.2994 27.0083 11.2994 27.8983C11.2994 28.8183 12.0394 29.5383 12.9394 29.5383Z" />
        </svg>
    