
        <svg xmlns="http://www.w3.org/2000/svg" viewBox="0 0 100 100">
            <path d="M6.1317 19.1328C6.7017 19.1328 7.1517 18.8828 7.1517 18.4928V9.3428C9.2717 8.8628 10.8417 6.9728 10.8417 4.7028C10.8417 2.0928 8.7217 0.0028 6.1317 0.0028C3.5317 0.0028 1.3917 2.1228 1.3917 4.7028C1.3917 6.9828 3.0017 8.8828 5.1317 9.3428V18.4928C5.1317 18.8828 5.5617 19.1328 6.1317 19.1328ZM6.1617 23.3428C9.6517 23.3428 12.3017 21.1628 12.3017 18.3028C12.3017 16.0828 10.7117 14.2828 8.3517 13.5928V15.1628C9.8817 15.7228 10.8517 16.8728 10.8517 18.3028C10.8517 20.3528 8.8517 21.8928 6.1617 21.8928C3.4717 21.8928 1.4517 20.3528 1.4517 18.3028C1.4517 16.8828 2.4217 15.7428 3.9217 15.2028V13.6028C1.5717 14.3128 0.0017 16.0928 0.0017 18.3028C0.0017 21.1628 2.6517 23.3428 6.1617 23.3428Z" />
        </svg>
    