
        <svg xmlns="http://www.w3.org/2000/svg" viewBox="0 0 100 100">
            <path d="M8.23 21.5998C9.43 21.5998 10.24 21.0498 10.24 20.2198V10.1798C12.16 9.3898 13.51 7.4898 13.51 5.2798C13.51 2.3598 11.13 0.0098 8.23 0.0098C5.32 0.0098 2.94 2.3998 2.94 5.2798C2.94 7.5198 4.3 9.3998 6.23 10.1898V20.2198C6.23 21.0498 7.05 21.5998 8.23 21.5998ZM24.12 12.2098C25.09 12.2098 25.85 11.4298 25.85 10.4598V6.9798H27.81C29.1 6.9798 29.61 5.7398 28.79 4.7898L25.02 0.4398C24.52 -0.1502 23.71 -0.1502 23.19 0.4398L19.44 4.7898C18.64 5.7098 19.15 6.9798 20.38 6.9798H22.38V10.4598C22.38 11.4298 23.14 12.2098 24.12 12.2098ZM8.3 27.5898C12.94 27.5898 16.57 24.4998 16.57 20.4298C16.57 17.4598 14.61 14.9798 11.74 13.8798V17.1298C12.91 17.8898 13.64 19.0498 13.64 20.4298C13.64 22.8698 11.4 24.6598 8.3 24.6598C5.19 24.6598 2.93 22.8698 2.93 20.4298C2.93 19.0998 3.61 17.9498 4.73 17.1898V13.9298C1.91 15.0398 0 17.4898 0 20.4298C0 24.4998 3.63 27.5898 8.3 27.5898Z" />
        </svg>
    