
        <svg xmlns="http://www.w3.org/2000/svg" viewBox="0 0 100 100">
            <path d="M4.8584 21.0861H28.3284C31.7784 21.0861 33.5684 18.8661 33.1284 15.1861L31.8584 4.6261C31.5084 1.6361 29.7884 -0.0039 27.0584 -0.0039H6.1384C3.4084 -0.0039 1.6884 1.6361 1.3284 4.6261L0.0684 15.1861C-0.3816 18.8661 1.4184 21.0861 4.8584 21.0861ZM8.6484 13.9561C8.1884 13.9561 7.8284 13.7461 7.8284 13.4461V10.0661C6.5484 9.6961 5.5984 8.5161 5.5984 7.1261C5.5984 5.4561 6.9584 4.0861 8.6484 4.0861C10.3084 4.0861 11.6784 5.4461 11.6784 7.1261C11.6784 8.5061 10.7284 9.6961 9.4684 10.0361V13.4461C9.4684 13.7461 9.0884 13.9561 8.6484 13.9561ZM15.6984 9.7861C14.7284 9.7861 13.9384 8.9961 13.9384 8.0261C13.9384 7.0461 14.7284 6.2561 15.6984 6.2561C16.6884 6.2561 17.4684 7.0461 17.4684 8.0261C17.4684 8.9961 16.6884 9.7861 15.6984 9.7861ZM20.8084 9.7861C19.8384 9.7861 19.0484 8.9961 19.0484 8.0261C19.0484 7.0461 19.8384 6.2561 20.8084 6.2561C21.7784 6.2561 22.5784 7.0461 22.5784 8.0261C22.5784 8.9961 21.7784 9.7861 20.8084 9.7861ZM25.9084 9.7861C24.9384 9.7861 24.1384 8.9961 24.1384 8.0261C24.1384 7.0461 24.9384 6.2561 25.9084 6.2561C26.8684 6.2561 27.6684 7.0461 27.6684 8.0261C27.6684 8.9961 26.8684 9.7861 25.9084 9.7861ZM8.6484 16.5261C6.1884 16.5261 4.4484 15.2061 4.4484 13.3461C4.4484 12.0361 5.2984 11.0061 6.6484 10.4961V12.0861C6.1984 12.3861 5.9284 12.8161 5.9284 13.3461C5.9284 14.4461 7.0384 15.2261 8.6484 15.2261C10.2384 15.2261 11.3384 14.4461 11.3384 13.3461C11.3384 12.8361 11.0784 12.3961 10.6384 12.0961V10.4961C11.9684 11.0161 12.8184 12.0361 12.8184 13.3461C12.8184 15.2061 11.0984 16.5261 8.6484 16.5261ZM17.4084 14.8661C16.4284 14.8661 15.6384 14.0861 15.6384 13.1161C15.6384 12.1361 16.4284 11.3461 17.4084 11.3461C18.3684 11.3461 19.1584 12.1361 19.1584 13.1161C19.1584 14.0861 18.3684 14.8661 17.4084 14.8661ZM22.5084 14.8661C21.5384 14.8661 20.7484 14.0861 20.7484 13.1161C20.7484 12.1361 21.5384 11.3461 22.5084 11.3461C23.4784 11.3461 24.2784 12.1361 24.2784 13.1161C24.2784 14.0861 23.4784 14.8661 22.5084 14.8661ZM27.6084 14.8661C26.6384 14.8661 25.8484 14.0861 25.8484 13.1161C25.8484 12.1361 26.6384 11.3461 27.6084 11.3461C28.5884 11.3461 29.3784 12.1361 29.3784 13.1161C29.3784 14.0861 28.5884 14.8661 27.6084 14.8661Z" />
        </svg>
    