
        <svg xmlns="http://www.w3.org/2000/svg" viewBox="0 0 100 100">
            <path d="M1.6617 4.8886H21.0117C22.0517 4.8886 22.6617 4.2086 22.6617 3.1686V1.7386C22.6617 0.6886 22.0517 -0.0014 21.0117 -0.0014H1.6617C0.6317 -0.0014 0.0017 0.6886 0.0017 1.7386V3.1686C0.0017 4.2086 0.6117 4.8886 1.6617 4.8886ZM4.7317 20.7386H17.9317C19.9817 20.7386 21.0617 19.6386 21.0617 17.6286V5.9286H1.6017V17.6286C1.6017 19.6686 2.6917 20.7386 4.7317 20.7386ZM7.2917 9.6986C6.8917 9.6986 6.6717 9.4586 6.6717 9.0586V8.7386C6.6717 8.3486 6.8917 8.0886 7.2917 8.0886H15.3917C15.7817 8.0886 15.9917 8.3486 15.9917 8.7386V9.0586C15.9917 9.4586 15.7817 9.6986 15.3917 9.6986Z" />
        </svg>
    