
        <svg xmlns="http://www.w3.org/2000/svg" viewBox="0 0 100 100">
            <path d="M12.7923 25.5978C19.8723 25.5978 25.6023 19.8678 25.6023 12.7978C25.6023 5.7278 19.8723 -0.0022 12.7923 -0.0022C5.7323 -0.0022 0.0023 5.7278 0.0023 12.7978C0.0023 19.8678 5.7323 25.5978 12.7923 25.5978ZM12.7923 21.4178C8.0323 21.4178 4.1723 17.5678 4.1723 12.7978C4.1723 8.0278 8.0323 4.1678 12.7923 4.1678C17.5623 4.1678 21.4323 8.0278 21.4323 12.7978C21.4323 17.5678 17.5623 21.4178 12.7923 21.4178ZM8.1123 10.8278H17.5123C18.3323 10.8278 18.7423 10.3978 18.7423 9.5878V8.9878C18.7423 8.1878 18.3323 7.7478 17.5123 7.7478H8.1123C7.3023 7.7478 6.8623 8.1878 6.8623 8.9878V9.5878C6.8623 10.3978 7.2923 10.8278 8.1123 10.8278ZM9.8523 18.3478H15.7423C17.0523 18.3478 17.8323 17.5878 17.8323 16.2678V11.8678H7.7723V16.2678C7.7723 17.5878 8.5523 18.3478 9.8523 18.3478ZM11.2523 14.6478C10.8823 14.6478 10.5823 14.3578 10.5823 13.9778V13.8078C10.5823 13.4178 10.8623 13.1378 11.2523 13.1378H14.3523C14.7323 13.1378 15.0223 13.4178 15.0223 13.8078V13.9778C15.0223 14.3578 14.7323 14.6478 14.3523 14.6478Z" />
        </svg>
    