
        <svg xmlns="http://www.w3.org/2000/svg" viewBox="0 0 100 100">
            <path d="M5.5917 22.1H18.4417C20.9317 22.1 22.3117 20.75 22.3117 18.27V7.11C23.4017 6.76 24.0317 5.79 24.0317 4.46V2.8C24.0317 1.11 23.0117 0 21.3117 0H2.7217C1.0817 0 0.0017 1.11 0.0017 2.8V4.46C0.0017 5.79 0.6317 6.76 1.7217 7.11V18.27C1.7217 20.75 3.1017 22.1 5.5917 22.1ZM3.1517 4.89C2.6517 4.89 2.4117 4.64 2.4117 4.14V3.13C2.4117 2.62 2.6517 2.38 3.1517 2.38H20.8817C21.3917 2.38 21.6217 2.62 21.6217 3.13V4.14C21.6217 4.64 21.3917 4.89 20.8817 4.89ZM5.7817 19.58C4.8417 19.58 4.3317 19.09 4.3317 18.13V7.27H19.7017V18.13C19.7017 19.09 19.1817 19.58 18.2617 19.58ZM8.3117 12.09H15.7417C16.3317 12.09 16.7817 11.65 16.7817 11.04V10.66C16.7817 10.04 16.3517 9.62 15.7417 9.62H8.3117C7.7017 9.62 7.2617 10.04 7.2617 10.66V11.04C7.2617 11.65 7.7117 12.09 8.3117 12.09Z" />
        </svg>
    