
        <svg xmlns="http://www.w3.org/2000/svg" viewBox="0 0 100 100">
            <path d="M12.0617 6.2409C12.7717 6.2409 13.3017 5.6709 13.3017 4.9009V3.1709L14.4617 3.7809C15.0317 4.0609 15.7117 3.9409 16.0417 3.4509C16.4617 2.8409 16.3117 1.9909 15.5017 1.5709L13.4617 0.4109C12.4317 -0.1391 11.6817 -0.1391 10.6417 0.4109L8.6017 1.5709C7.8017 1.9909 7.6417 2.8409 8.0717 3.4509C8.4017 3.9409 9.0717 4.0609 9.6417 3.7809L10.8017 3.1509V4.9009C10.8017 5.6709 11.3317 6.2409 12.0617 6.2409ZM22.9117 12.3709C23.6017 12.3709 24.1017 11.8009 24.1017 11.0309V8.1709C24.1017 6.7609 23.6817 6.1009 22.5117 5.4509L20.2617 4.1909C19.5517 3.8009 18.7717 3.8309 18.3117 4.4009C17.8517 4.9809 18.0717 5.8509 18.7817 6.2509L20.3417 7.1309L18.6817 8.0609C17.9717 8.4509 17.7117 9.2109 18.0817 9.8209C18.4717 10.4609 19.1917 10.6509 19.8517 10.2909L21.7117 9.2409V11.0309C21.7117 11.8009 22.2117 12.3709 22.9117 12.3709ZM1.1917 12.3709C1.9017 12.3709 2.4017 11.8009 2.4017 11.0309V9.2409L4.2617 10.2909C4.9117 10.6509 5.6417 10.4609 6.0217 9.8209C6.4017 9.2109 6.1317 8.4509 5.4217 8.0609L3.7617 7.1309L5.3217 6.2509C6.0517 5.8509 6.2617 4.9809 5.7917 4.4009C5.3417 3.8309 4.5717 3.8009 3.8517 4.1909L1.5917 5.4509C0.5317 6.0509 0.0017 6.8509 0.0017 8.1709V11.0309C0.0017 11.8009 0.5117 12.3709 1.1917 12.3709ZM12.0617 17.5109C12.7717 17.5109 13.3017 16.9509 13.3017 16.1709V13.9409L15.3017 12.8109C15.9917 12.4409 16.2417 11.6609 15.8717 11.0409C15.4917 10.4209 14.7917 10.2109 14.1217 10.5809L12.0617 11.7309L9.9917 10.5809C9.3117 10.2109 8.6117 10.4209 8.2417 11.0409C7.8717 11.6609 8.1117 12.4409 8.8117 12.8109L10.8017 13.9409V16.1709C10.8017 16.9509 11.3317 17.5109 12.0617 17.5109ZM3.1017 21.5509C3.8317 21.9609 4.6317 21.7609 4.9617 21.1409C5.2717 20.5609 5.0717 19.8709 4.5617 19.5109L3.7117 18.9909L5.1717 18.1709C5.8617 17.7709 6.1217 17.0209 5.7417 16.4109C5.3717 15.7809 4.6517 15.5609 3.9717 15.9409L2.4117 16.8109L2.3817 15.7509C2.3117 15.0709 1.8317 14.5909 1.1917 14.5909C0.4917 14.5909 0.0017 15.1509 0.0017 15.9309V17.7909C0.0017 19.4709 0.5517 20.1309 1.7417 20.8009ZM21.0017 21.5509L22.3617 20.8009C23.5517 20.1309 24.1017 19.4709 24.1017 17.7909V15.9309C24.1017 15.1509 23.6117 14.5909 22.9117 14.5909C22.2817 14.5909 21.8017 15.0709 21.7217 15.7509L21.6817 16.8109L20.1317 15.9409C19.4517 15.5609 18.7517 15.7809 18.3717 16.4109C18.0017 17.0209 18.2617 17.7709 18.9517 18.1709L20.4017 18.9909L19.5517 19.5109C19.0417 19.8709 18.8417 20.5609 19.1517 21.1409C19.4917 21.7609 20.2717 21.9609 21.0017 21.5509ZM11.0117 25.9209C11.7317 26.3209 12.3717 26.3209 13.0917 25.9209L16.3817 24.1109C17.0717 23.7309 17.2617 23.0109 16.9317 22.3709C16.6017 21.7409 15.8317 21.5609 15.1517 21.9409L13.3017 22.9909V20.9409C13.3017 20.1709 12.7717 19.6109 12.0617 19.6109C11.3317 19.6109 10.8017 20.1709 10.8017 20.9409V22.9909L8.9517 21.9409C8.2717 21.5609 7.5017 21.7409 7.1717 22.3709C6.8417 23.0109 7.0417 23.7309 7.7217 24.1109Z" />
        </svg>
    