
        <svg xmlns="http://www.w3.org/2000/svg" viewBox="0 0 100 100">
            <path d="M0.4879 16.6881H2.5979V17.5081C2.5979 21.5781 5.2479 24.2181 9.2979 24.2181C13.3779 24.2181 16.0279 21.5781 16.0279 17.5081V6.7181C16.0279 2.6481 13.3779 -0.0019 9.2979 -0.0019C5.2479 -0.0019 2.5979 2.6481 2.5979 6.7181V9.1281C2.5979 9.3781 2.7979 9.5581 3.0379 9.5581C3.2779 9.5581 3.4779 9.3781 3.4779 9.1281V6.7181C3.4779 3.2481 5.8279 0.8681 9.2979 0.8681C12.7779 0.8681 15.1479 3.2481 15.1479 6.7181V17.5081C15.1479 20.9781 12.7779 23.3481 9.2979 23.3481C5.8279 23.3481 3.4779 20.9781 3.4779 17.5081V16.6881H5.5579C6.0379 16.6881 6.2079 16.3581 5.8979 15.9381L3.4379 12.4081C3.1979 12.0581 2.8679 12.0581 2.6179 12.4081L0.1479 15.9381C-0.1421 16.3581 0.0179 16.6881 0.4879 16.6881Z" />
        </svg>
    