
        <svg xmlns="http://www.w3.org/2000/svg" viewBox="0 0 100 100">
            <path d="M4.3817 22.855H23.7617C26.5617 22.855 28.1517 21.265 28.1517 18.485V4.375C28.1517 1.585 26.5617 -0.005 23.7617 -0.005H4.3817C1.5917 -0.005 0.0017 1.585 0.0017 4.375V18.485C0.0017 21.265 1.5917 22.855 4.3817 22.855ZM15.5717 4.675C16.1817 4.675 16.6317 5.145 16.6317 5.755V6.785L16.5517 8.055L17.5417 6.745L19.3917 4.895C19.7017 4.595 20.0417 4.465 20.3717 4.465C21.0317 4.465 21.5617 4.995 21.5617 5.645C21.5617 5.965 21.4217 6.295 21.1517 6.575L19.2517 8.465L17.9417 9.455L19.1517 9.335H20.2617C20.8717 9.335 21.3417 9.805 21.3417 10.405C21.3417 11.005 20.8717 11.465 20.2717 11.465H16.0117C15.0817 11.465 14.5217 10.925 14.5217 9.975V5.755C14.5217 5.155 14.9617 4.675 15.5717 4.675ZM12.5817 18.175C11.9717 18.175 11.5217 17.705 11.5217 17.095V16.065L11.6117 14.805L10.6017 16.115L8.7517 17.955C8.4517 18.255 8.1217 18.385 7.7917 18.385C7.1117 18.385 6.5817 17.855 6.5817 17.205C6.5817 16.885 6.7417 16.555 6.9917 16.285L8.9017 14.395L10.2217 13.395L9.0017 13.515H7.8917C7.2817 13.515 6.8217 13.045 6.8217 12.445C6.8217 11.845 7.2817 11.395 7.8917 11.395H12.1417C13.0617 11.395 13.6417 11.925 13.6417 12.875V17.095C13.6417 17.705 13.1817 18.175 12.5817 18.175Z" />
        </svg>
    