
        <svg xmlns="http://www.w3.org/2000/svg" viewBox="0 0 100 100">
            <path d="M17.2466 25.0566C17.8666 25.0566 18.3866 24.6066 18.3866 23.9766V1.0866C18.3866 0.4566 17.8566 -0.0034 17.2466 -0.0034C16.6666 -0.0034 16.1166 0.4566 16.1166 1.0866V23.9766C16.1166 24.6066 16.6566 25.0566 17.2466 25.0566ZM31.6766 19.7066C32.9866 20.5166 34.5166 19.8866 34.5166 18.2266V6.8466C34.5166 5.2066 33.0266 4.5266 31.6766 5.3466L22.5966 10.8866C21.2466 11.6966 21.2466 13.3566 22.5966 14.1766ZM11.9166 14.1766C13.2566 13.3566 13.2666 11.6966 11.9166 10.8866L2.8366 5.3466C1.4866 4.5266 -0.0034 5.2066 -0.0034 6.8466V18.2266C-0.0034 19.8866 1.5266 20.5166 2.8366 19.7066ZM31.9366 17.3766L24.3566 12.7166C24.2066 12.6366 24.1366 12.4766 24.3566 12.3366L31.9366 7.6866C32.0366 7.6166 32.2666 7.5966 32.2666 7.8366V17.2166C32.2666 17.4466 32.0466 17.4566 31.9366 17.3766ZM10.1566 12.7166L2.5766 17.3766C2.4566 17.4566 2.2366 17.4466 2.2366 17.2166V7.8366C2.2366 7.5966 2.4766 7.6166 2.5766 7.6866L10.1566 12.3366C10.3666 12.4766 10.2966 12.6366 10.1566 12.7166Z" />
        </svg>
    