
        <svg xmlns="http://www.w3.org/2000/svg" viewBox="0 0 100 100">
            <path d="M3.1617 20.742H17.5917C19.6617 20.742 20.7417 19.642 20.7417 17.592V3.152C20.7417 1.102 19.6617 0.002 17.5917 0.002H3.1617C1.0917 0.002 0.0017 1.082 0.0017 3.152V17.592C0.0017 19.662 1.0917 20.742 3.1617 20.742ZM3.1917 19.872C1.6617 19.872 0.8717 19.082 0.8717 17.552V3.202C0.8717 1.662 1.6617 0.872 3.1917 0.872H17.5517C19.0317 0.872 19.8717 1.662 19.8717 3.202V17.552C19.8717 19.082 19.0317 19.872 17.5517 19.872ZM6.0117 5.312H14.7417C14.9617 5.312 15.1317 5.132 15.1317 4.912C15.1317 4.672 14.9617 4.512 14.7417 4.512H6.0117C5.7917 4.512 5.6217 4.672 5.6217 4.912C5.6217 5.132 5.7917 5.312 6.0117 5.312ZM10.3717 16.722C10.6017 16.722 10.7717 16.562 10.7717 16.322V9.892L10.7217 7.702L12.7517 9.822L14.2817 11.342C14.3917 11.452 14.4917 11.512 14.6217 11.512C14.8817 11.512 15.0317 11.332 15.0317 11.122C15.0317 10.952 14.9417 10.842 14.8217 10.732L10.6717 6.602C10.5917 6.502 10.4717 6.452 10.3717 6.452C10.2617 6.452 10.1617 6.502 10.0817 6.602L5.8717 10.782C5.8017 10.862 5.7217 10.982 5.7217 11.112C5.7217 11.342 5.8817 11.512 6.1317 11.512C6.2717 11.512 6.3617 11.452 6.4717 11.342L7.8317 9.952L10.0217 7.702L9.9717 9.892V16.322C9.9717 16.562 10.1417 16.722 10.3717 16.722Z" />
        </svg>
    