
        <svg xmlns="http://www.w3.org/2000/svg" viewBox="0 0 100 100">
            <path d="M15.2717 0.0008C10.2217 0.0008 8.1017 2.2708 8.1017 7.2408V17.5408L8.1417 20.3108L5.7217 17.8008L0.7717 12.8708C0.7017 12.7808 0.5717 12.7508 0.4417 12.7508C0.2017 12.7508 0.0017 12.9408 0.0017 13.1908C0.0017 13.3208 0.0517 13.4308 0.1417 13.5208L8.2117 21.5508C8.3117 21.6408 8.4117 21.6908 8.5417 21.6908C8.6717 21.6908 8.7817 21.6408 8.8717 21.5508L16.9417 13.5208C17.0417 13.4308 17.0817 13.3208 17.0817 13.1908C17.0817 12.9408 16.8917 12.7508 16.6517 12.7508C16.5217 12.7508 16.3917 12.7808 16.3117 12.8708L11.3817 17.8008L8.9417 20.3108L8.9917 17.5408V7.2608C8.9917 2.8508 10.8417 0.9008 15.3317 0.9008C16.0617 0.9008 16.5517 0.9208 16.7417 0.9208C17.0117 0.9208 17.2117 0.7508 17.2117 0.4808C17.2117 0.2008 17.0117 0.0808 16.7817 0.0308C16.5617 0.0008 15.9517 0.0008 15.2717 0.0008Z" />
        </svg>
    