
        <svg xmlns="http://www.w3.org/2000/svg" viewBox="0 0 100 100">
            <path d="M11.3523 22.7064C17.6323 22.7064 22.7123 17.6264 22.7123 11.3564C22.7123 5.0764 17.6323 -0.0036 11.3523 -0.0036C5.0823 -0.0036 0.0023 5.0764 0.0023 11.3564C0.0023 17.6264 5.0823 22.7064 11.3523 22.7064ZM11.3523 22.1364C5.3923 22.1364 0.5723 17.3164 0.5723 11.3564C0.5723 5.3864 5.3923 0.5764 11.3523 0.5764C17.3223 0.5764 22.1323 5.3864 22.1323 11.3564C22.1323 17.3164 17.3223 22.1364 11.3523 22.1364ZM11.3523 18.3964C11.5323 18.3964 11.7223 18.3664 12.0623 17.9964L17.1123 12.5664C17.2223 12.4364 17.3323 12.2764 17.3323 12.0964C17.3323 11.8164 17.1223 11.6564 16.8523 11.6564H13.6923V5.5564C13.6923 4.7364 13.2623 4.2964 12.4823 4.2964H10.1623C9.3623 4.2964 8.9523 4.7364 8.9523 5.5564V11.6564H5.8623C5.5923 11.6564 5.3923 11.8164 5.3923 12.0964C5.3923 12.2764 5.4923 12.4364 5.6123 12.5664L10.6523 17.9964C11.0023 18.3664 11.1823 18.3964 11.3523 18.3964Z" />
        </svg>
    