
        <svg xmlns="http://www.w3.org/2000/svg" viewBox="0 0 100 100">
            <path d="M11.3922 21.6516C11.3922 24.3416 12.8422 25.7916 15.5022 25.7916H28.0522C30.7122 25.7916 32.1722 24.3416 32.1722 21.6516V4.1416C32.1722 1.4616 30.7122 0.0016 28.0522 0.0016H15.5022C12.8422 0.0016 11.3922 1.4616 11.3922 4.1416ZM14.4122 21.3316V4.4716C14.4122 3.5316 14.8722 3.0216 15.8822 3.0216H27.6922C28.6922 3.0216 29.1422 3.5316 29.1422 4.4716V21.3316C29.1422 22.2616 28.6922 22.7716 27.6922 22.7716H15.8822C14.8722 22.7716 14.4122 22.2616 14.4122 21.3316ZM21.7822 12.4216C23.3922 12.4316 24.6922 11.0616 24.6922 9.2416C24.6922 7.5516 23.3922 6.1416 21.7822 6.1416C20.1722 6.1416 18.8722 7.5516 18.8722 9.2416C18.8722 11.0616 20.1722 12.4216 21.7822 12.4216ZM0.3422 11.2516C-0.3578 12.0516 0.0822 13.1216 1.1422 13.1216H3.1422V17.4516C3.1422 18.1716 3.7422 18.7116 4.4922 18.7116C5.2422 18.7116 5.8222 18.1716 5.8222 17.4516V13.1216H7.8022C8.9022 13.1216 9.3322 12.0516 8.6222 11.2516L5.2622 7.4416C4.8122 6.9216 4.1422 6.9216 3.6822 7.4416ZM16.8922 18.6216H26.6722C27.2622 18.6216 27.5522 18.2116 27.5522 17.6816C27.5522 16.4416 25.7722 13.2916 21.7822 13.2916C17.7922 13.2916 16.0122 16.4416 16.0122 17.6816C16.0122 18.2116 16.3022 18.6216 16.8922 18.6216Z" />
        </svg>
    