
        <svg xmlns="http://www.w3.org/2000/svg" viewBox="0 0 100 100">
            <path d="M15.5117 11.9564H23.8917C24.9417 11.9564 25.6917 11.2164 25.6917 10.1764V1.7764C25.6917 0.7464 24.9417 -0.0036 23.8917 -0.0036H15.5117C14.4817 -0.0036 13.7417 0.7464 13.7417 1.7764V10.1764C13.7417 11.2164 14.4817 11.9564 15.5117 11.9564ZM15.5117 11.1364C14.9617 11.1364 14.5617 10.7364 14.5617 10.1764V1.7764C14.5617 1.2164 14.9617 0.8164 15.5117 0.8164H23.8917C24.4717 0.8164 24.8717 1.2164 24.8717 1.7764V10.1764C24.8717 10.7364 24.4717 11.1364 23.8917 11.1364ZM15.5117 25.6964H23.8917C24.9417 25.6964 25.6917 24.9564 25.6917 23.9264V15.5264C25.6917 14.4964 24.9417 13.7464 23.8917 13.7464H15.5117C14.4817 13.7464 13.7417 14.4964 13.7417 15.5264V23.9264C13.7417 24.9564 14.4817 25.6964 15.5117 25.6964ZM29.2817 25.6964H37.6617C38.6917 25.6964 39.4417 24.9564 39.4417 23.9264V15.5264C39.4417 14.4964 38.6917 13.7464 37.6617 13.7464H29.2817C28.2417 13.7464 27.5017 14.4964 27.5017 15.5264V23.9264C27.5017 24.9564 28.2417 25.6964 29.2817 25.6964ZM1.7717 25.6964H10.1517C11.1917 25.6964 11.9417 24.9564 11.9417 23.9264V15.5264C11.9417 14.4964 11.1917 13.7464 10.1517 13.7464H1.7717C0.7417 13.7464 0.0017 14.4964 0.0017 15.5264V23.9264C0.0017 24.9564 0.7417 25.6964 1.7717 25.6964ZM15.5117 24.8764C14.9617 24.8764 14.5617 24.4764 14.5617 23.9264V15.5264C14.5617 14.9764 14.9617 14.5764 15.5117 14.5764H23.8917C24.4717 14.5764 24.8717 14.9764 24.8717 15.5264V23.9264C24.8717 24.4764 24.4717 24.8764 23.8917 24.8764ZM29.2817 24.8764C28.7217 24.8764 28.3217 24.4764 28.3217 23.9264V15.5264C28.3217 14.9764 28.7217 14.5764 29.2817 14.5764H37.6617C38.2217 14.5764 38.6217 14.9764 38.6217 15.5264V23.9264C38.6217 24.4764 38.2217 24.8764 37.6617 24.8764ZM8.3217 22.7764C8.3217 23.1064 7.9317 23.3064 7.6017 23.1064L2.7317 20.1364C2.4117 19.9364 2.4117 19.4964 2.7317 19.2964L7.6017 16.3464C7.9417 16.1464 8.3217 16.3364 8.3217 16.6664Z" />
        </svg>
    