
        <svg xmlns="http://www.w3.org/2000/svg" viewBox="0 0 100 100">
            <path d="M18.1518 24.8077C18.7018 24.8077 19.1718 24.3977 19.1718 23.8477V0.9577C19.1718 0.4077 18.7018 -0.0023 18.1518 -0.0023C17.6218 -0.0023 17.1418 0.4077 17.1418 0.9577V23.8477C17.1418 24.3977 17.6118 24.8077 18.1518 24.8077ZM35.6718 13.5977C36.5418 13.0777 36.5318 11.7777 35.6718 11.2777L25.8218 5.4677C24.8918 4.9177 23.7718 5.4877 23.7718 6.5377V18.3177C23.7718 19.3577 24.8918 19.8877 25.8218 19.3477ZM0.6418 13.5977L10.5018 19.3477C11.4318 19.8877 12.5518 19.3577 12.5518 18.3177V6.5377C12.5518 5.4877 11.4318 4.9177 10.5018 5.4677L0.6418 11.2777C-0.2082 11.7777 -0.2182 13.0777 0.6418 13.5977Z" />
        </svg>
    