
        <svg xmlns="http://www.w3.org/2000/svg" viewBox="0 0 100 100">
            <path d="M3.4617 21.2264H17.7617C20.0517 21.2264 21.2217 20.0464 21.2217 17.7964V3.4264C21.2217 1.1764 20.0517 -0.0036 17.7617 -0.0036H3.4617C1.1717 -0.0036 0.0017 1.1564 0.0017 3.4264V17.7964C0.0017 20.0664 1.1717 21.2264 3.4617 21.2264ZM15.8417 10.3264C15.4717 10.3264 15.1617 10.0164 15.1617 9.6364V8.9064L15.2417 6.8764L12.3417 9.9064C12.0517 10.2064 11.5817 10.1964 11.3017 9.9064C11.0117 9.6164 11.0317 9.1564 11.3117 8.8664L14.3217 5.9764L12.3717 6.0464L11.5917 6.0564C11.2117 6.0564 10.9117 5.7564 10.9117 5.3764C10.9117 4.9964 11.2117 4.6864 11.5917 4.6864H15.7517C16.2317 4.6864 16.5317 4.9264 16.5317 5.4764V9.6364C16.5317 10.0164 16.2317 10.3264 15.8417 10.3264ZM9.6417 16.5264H5.4817C4.9917 16.5264 4.7017 16.2864 4.7017 15.7364V11.5664C4.7017 11.1864 5.0017 10.8864 5.3917 10.8864C5.7617 10.8864 6.0717 11.1864 6.0717 11.5664V12.2964L5.9917 14.3364L8.8917 11.3064C9.1917 11.0064 9.6517 11.0164 9.9417 11.3064C10.2217 11.5864 10.2117 12.0564 9.9217 12.3264L6.9117 15.2364L8.8517 15.1564H9.6417C10.0217 15.1564 10.3217 15.4564 10.3217 15.8364C10.3217 16.2164 10.0217 16.5264 9.6417 16.5264Z" />
        </svg>
    