
        <svg xmlns="http://www.w3.org/2000/svg" viewBox="0 0 100 100">
            <path d="M11.7523 23.5048C18.2423 23.5048 23.5123 18.2448 23.5123 11.7548C23.5123 5.2648 18.2423 0.0048 11.7523 0.0048C5.2623 0.0048 0.0023 5.2648 0.0023 11.7548C0.0023 18.2448 5.2623 23.5048 11.7523 23.5048ZM11.7523 21.9848C6.0923 21.9848 1.5223 17.4148 1.5223 11.7548C1.5223 6.0948 6.0923 1.5148 11.7523 1.5148C17.4123 1.5148 21.9923 6.0948 21.9923 11.7548C21.9923 17.4148 17.4123 21.9848 11.7523 21.9848ZM7.7123 6.1648L4.6523 9.2548C4.5323 9.3848 4.4623 9.5548 4.4623 9.7048C4.4623 10.0448 4.7223 10.3048 5.0523 10.3048C5.2123 10.3048 5.3823 10.2348 5.4923 10.1048L6.8823 8.6948L7.5723 7.9648L7.5423 8.7148V16.9348C7.5423 17.2748 7.8123 17.5348 8.1523 17.5348C8.5123 17.5348 8.7523 17.2748 8.7523 16.9348V8.7048L8.7323 7.9648L9.4223 8.6948L10.8023 10.1148C10.9323 10.2348 11.0823 10.3048 11.2523 10.3048C11.5823 10.3048 11.8323 10.0548 11.8323 9.7048C11.8323 9.5348 11.7623 9.3748 11.6523 9.2548L8.5923 6.1648C8.3623 5.9448 7.9823 5.8948 7.7123 6.1648ZM15.7823 17.3548L18.8323 14.2648C18.9623 14.1448 19.0323 13.9648 19.0323 13.8148C19.0323 13.4648 18.7823 13.2148 18.4423 13.2148C18.2723 13.2148 18.1123 13.2848 18.0023 13.4048L16.6123 14.8248L15.9223 15.5348L15.9523 14.8048V6.5848C15.9523 6.2348 15.6823 5.9848 15.3423 5.9848C15.0023 5.9848 14.7423 6.2448 14.7423 6.5848V14.8148L14.7623 15.5348L14.0723 14.8248L12.6923 13.4048C12.5623 13.2748 12.4123 13.2148 12.2423 13.2148C11.8923 13.2148 11.6623 13.4648 11.6623 13.8148C11.6623 13.9648 11.7223 14.1348 11.8323 14.2648L14.8923 17.3548C15.1123 17.5748 15.5423 17.6048 15.7823 17.3548Z" />
        </svg>
    