
        <svg xmlns="http://www.w3.org/2000/svg" viewBox="0 0 100 100">
            <path d="M4.08 22.2026L6.56 18.9126C7.08 18.2326 6.8 17.3526 5.89 17.3526H4.29V5.1826H5.89C6.78 5.1826 7.1 4.3326 6.56 3.6426L4.08 0.3326C3.72 -0.1274 3.08 -0.0974 2.74 0.3326L0.26 3.6426C-0.27 4.3426 0.05 5.1826 0.94 5.1826H2.54V17.3526H0.94C0.05 17.3526 -0.27 18.2026 0.26 18.9126L2.74 22.2026C3.09 22.6626 3.72 22.6726 4.08 22.2026ZM11.72 3.2826H30.95C31.6 3.2826 32.13 2.7326 32.13 2.0826C32.13 1.4226 31.6 0.8826 30.95 0.8826H11.72C11.05 0.8826 10.53 1.4226 10.53 2.0826C10.53 2.7226 11.06 3.2826 11.72 3.2826ZM11.72 9.4326H30.95C31.6 9.4326 32.13 8.8726 32.13 8.2226C32.13 7.5626 31.6 7.0226 30.95 7.0226H11.72C11.05 7.0226 10.53 7.5726 10.53 8.2226C10.53 8.8626 11.06 9.4326 11.72 9.4326ZM11.72 15.5726H30.95C31.6 15.5726 32.13 15.0126 32.13 14.3726C32.13 13.7026 31.6 13.1826 30.95 13.1826H11.72C11.05 13.1826 10.53 13.7126 10.53 14.3726C10.53 15.0126 11.06 15.5726 11.72 15.5726ZM11.72 21.7126H23.47C24.14 21.7126 24.67 21.1626 24.67 20.5126C24.67 19.8426 24.14 19.3226 23.47 19.3226H11.72C11.05 19.3226 10.53 19.8526 10.53 20.5126C10.53 21.1626 11.06 21.7126 11.72 21.7126Z" />
        </svg>
    