
        <svg xmlns="http://www.w3.org/2000/svg" viewBox="0 0 100 100">
            <path d="M12.6023 25.1986C19.5623 25.1986 25.2023 19.5586 25.2023 12.5986C25.2023 5.6386 19.5623 -0.0014 12.6023 -0.0014C5.6523 -0.0014 0.0023 5.6386 0.0023 12.5986C0.0023 19.5586 5.6523 25.1986 12.6023 25.1986ZM19.9423 12.5986C19.9423 13.0786 19.7723 13.4486 19.4323 13.7686L16.3723 16.6986C16.0623 16.9786 15.7723 17.0886 15.4423 17.0886C14.7623 17.0886 14.3223 16.5986 14.3223 15.8786C14.3223 15.4886 14.5623 15.1886 14.8223 14.9286L15.1023 14.6486L16.1923 13.8586L14.0323 14.0186H11.1723L9.0023 13.8586L10.0923 14.6486L10.3723 14.9286C10.6123 15.1886 10.8723 15.4886 10.8723 15.8786C10.8723 16.5986 10.4223 17.0886 9.7523 17.0886C9.4223 17.0886 9.1323 16.9786 8.8223 16.6986L5.7523 13.7686C5.4223 13.4486 5.2423 13.0786 5.2423 12.5986C5.2423 12.1186 5.4223 11.7386 5.7523 11.4286L8.8223 8.4986C9.1323 8.2186 9.4223 8.1086 9.7523 8.1086C10.4223 8.1086 10.8723 8.5986 10.8723 9.3186C10.8723 9.6986 10.6323 10.0086 10.3723 10.2686L10.0923 10.5386L8.9923 11.3286L11.1723 11.1786H14.0323L16.2023 11.3286L15.1023 10.5386L14.8223 10.2686C14.5623 10.0086 14.3223 9.6986 14.3223 9.3186C14.3223 8.5986 14.7623 8.1086 15.4423 8.1086C15.7723 8.1086 16.0623 8.2186 16.3723 8.4986L19.4323 11.4286C19.7723 11.7386 19.9423 12.1186 19.9423 12.5986Z" />
        </svg>
    