
        <svg xmlns="http://www.w3.org/2000/svg" viewBox="0 0 100 100">
            <path d="M17.9494 11.8741C18.5194 12.0241 19.0194 11.9741 19.4894 11.7041C19.9694 11.4241 20.2494 11.0341 20.3994 10.4441L21.3294 6.7241C21.5594 5.7841 21.0494 4.9341 20.1894 4.7241C19.4094 4.5341 18.6294 4.9141 18.3194 5.6741L16.2394 1.9641C15.4894 0.6441 14.1894 0.0041 12.8694 0.0041C11.5294 0.0041 10.2294 0.6241 9.4694 1.9641L7.1394 6.1241C6.5894 7.1141 6.7994 8.2241 7.7894 8.7741C8.7994 9.3241 9.8994 9.0541 10.4394 8.0741L12.3294 4.6641C12.4194 4.4741 12.6594 4.4041 12.8394 4.4041C13.0394 4.4041 13.2494 4.4841 13.3594 4.6741L15.0394 7.7241C14.1194 7.5141 13.2894 8.0041 13.0794 8.8641C12.8794 9.7141 13.3394 10.5541 14.2594 10.8141ZM4.1294 23.8441H8.6694C9.7994 23.8441 10.6194 23.0241 10.6194 21.9041C10.6194 20.7741 9.7994 19.9541 8.6694 19.9541H4.8394C4.4994 19.9541 4.2894 19.7941 4.2894 19.5041C4.2894 19.3241 4.3994 19.0941 4.4894 18.9241L5.9394 16.2841C6.2794 17.0641 7.0594 17.4541 7.8394 17.2241C8.6794 16.9841 9.1794 16.1441 8.9394 15.2241L8.0194 11.5041C7.8594 10.9241 7.5694 10.5141 7.0994 10.2541C6.6194 9.9741 6.1394 9.9141 5.5394 10.0941L1.8594 11.1441C0.9394 11.4041 0.4594 12.2941 0.6994 13.1241C0.9494 13.9441 1.7194 14.4341 2.5894 14.2641L0.7294 17.5941C0.3394 18.2841 -0.0006 18.9341 -0.0006 19.7941C-0.0006 21.9641 1.4394 23.8441 4.1294 23.8441ZM15.7194 26.0641C16.3494 26.6641 17.3394 26.6341 17.9494 26.0041C18.5294 25.4041 18.5594 24.5141 18.0094 23.8441H21.5894C24.2694 23.8441 25.7094 21.9641 25.7094 19.7941C25.7094 18.9341 25.3794 18.3141 24.9894 17.5941L22.8994 13.8741C22.3594 12.8941 21.2394 12.5941 20.2494 13.1341C19.2794 13.6841 18.9694 14.8641 19.4994 15.7941L21.2194 18.9241C21.3194 19.0941 21.4194 19.3241 21.4194 19.5041C21.4194 19.7941 21.2094 19.9541 20.8694 19.9541H18.0094C18.5694 19.2741 18.5394 18.3641 17.9294 17.7841C17.3094 17.1841 16.3394 17.1541 15.6594 17.8241L12.8994 20.4841C12.4694 20.9041 12.2594 21.3641 12.2594 21.9041C12.2594 22.4541 12.4694 22.9141 12.8994 23.3341Z" />
        </svg>
    