
        <svg xmlns="http://www.w3.org/2000/svg" viewBox="0 0 100 100">
            <path d="M20.4217 1.4328C19.2217 0.2228 17.5517 0.0028 15.4217 0.0028H6.4017C4.3017 0.0028 2.6217 0.2328 1.4317 1.4328C0.2217 2.6328 0.0017 4.2928 0.0017 6.4028V15.4128C0.0017 17.5528 0.2217 19.2028 1.4217 20.4128C2.6417 21.6128 4.3017 21.8428 6.4317 21.8428H15.4217C17.5517 21.8428 19.2217 21.6128 20.4217 20.4128C21.6317 19.2028 21.8517 17.5528 21.8517 15.4128V6.4228C21.8517 4.2928 21.6317 2.6328 20.4217 1.4328ZM19.5617 6.1028V15.7428C19.5617 16.9528 19.3917 18.0728 18.7517 18.7228C18.0917 19.3828 16.9617 19.5428 15.7517 19.5428H6.1017C4.9017 19.5428 3.7617 19.3828 3.1017 18.7228C2.4517 18.0728 2.3017 16.9528 2.3017 15.7428V6.1328C2.3017 4.8828 2.4517 3.7628 3.0917 3.1028C3.7517 2.4528 4.9017 2.2828 6.1317 2.2828H15.7517C16.9617 2.2828 18.0917 2.4628 18.7517 3.1128C19.4017 3.7628 19.5617 4.8828 19.5617 6.1028ZM14.5917 13.9728C15.1617 13.9728 15.5517 13.5328 15.5517 12.9128V7.4628C15.5517 6.6528 15.0917 6.2928 14.3717 6.2928H8.8817C8.2617 6.2928 7.8517 6.6728 7.8517 7.2528C7.8517 7.8428 8.2617 8.2128 8.8917 8.2128H10.8717L12.4817 8.0228L10.7417 9.6228L6.6317 13.7328C6.4317 13.9328 6.3017 14.2028 6.3017 14.4828C6.3017 15.0928 6.7417 15.5028 7.3217 15.5028C7.6517 15.5028 7.9017 15.3828 8.1217 15.1728L12.2117 11.0828L13.7917 9.3628L13.6217 11.0528V12.9228C13.6217 13.5728 14.0017 13.9728 14.5917 13.9728Z" />
        </svg>
    