
        <svg xmlns="http://www.w3.org/2000/svg" viewBox="0 0 100 100">
            <path d="M18.8217 5.0194C18.8217 3.8594 17.9317 2.9294 16.8417 2.9294C15.7517 2.9294 14.9317 3.8294 14.9317 5.0194V9.5494L15.0617 12.3594L13.2817 10.3794L3.5717 0.6894C3.1217 0.2594 2.6017 -0.0006 2.0517 -0.0006C0.9817 -0.0006 0.0017 0.9994 0.0017 2.0494C0.0017 2.5994 0.2617 3.1294 0.7017 3.5694L10.3817 13.2794L12.3617 15.0494L9.4917 14.9294H5.0017C3.8317 14.9294 2.9217 15.7594 2.9217 16.8394C2.9217 17.9294 3.8217 18.8194 5.0017 18.8194H16.7117C17.9717 18.8194 18.8317 17.9694 18.8317 16.7094Z" />
        </svg>
    