
        <svg xmlns="http://www.w3.org/2000/svg" viewBox="0 0 100 100">
            <path d="M11.3523 22.7064C17.6023 22.7064 22.7123 17.6064 22.7123 11.3564C22.7123 5.1064 17.6023 -0.0036 11.3523 -0.0036C5.1123 -0.0036 0.0023 5.1064 0.0023 11.3564C0.0023 17.6064 5.1123 22.7064 11.3523 22.7064ZM11.3523 17.0464C11.2823 17.0464 11.2123 17.0164 11.1523 16.9564L7.1623 12.9564C7.1023 12.9064 7.0823 12.8464 7.0823 12.7764C7.0823 12.6364 7.1923 12.5064 7.3323 12.5064C7.4023 12.5064 7.4923 12.5464 7.5423 12.6064L10.0223 15.0864L11.0823 16.1464L11.0723 14.5464V5.9564C11.0723 5.7864 11.2023 5.6564 11.3523 5.6564C11.5223 5.6564 11.6523 5.7864 11.6523 5.9564V14.5464L11.6223 16.1364L12.6823 15.0864L15.1523 12.6064C15.2123 12.5464 15.2923 12.5064 15.3623 12.5064C15.4923 12.5064 15.6223 12.6364 15.6223 12.7764C15.6223 12.8464 15.6023 12.9064 15.5423 12.9564L11.5523 16.9564C11.4923 17.0164 11.4223 17.0464 11.3523 17.0464Z" />
        </svg>
    