
        <svg xmlns="http://www.w3.org/2000/svg" viewBox="0 0 100 100">
            <path d="M4.3817 22.8367H18.4717C21.2617 22.8367 22.8517 21.2567 22.8517 18.4767V4.3567C22.8517 1.5867 21.2617 -0.0033 18.4717 -0.0033H4.3817C1.5917 -0.0033 0.0017 1.5867 0.0017 4.3567V18.4767C0.0017 21.2567 1.5917 22.8367 4.3817 22.8367ZM10.1017 17.7667C7.1017 17.7667 5.1117 15.7567 5.1117 12.7467V10.9467C5.1117 10.1267 5.6117 9.5767 6.3617 9.5767C7.0917 9.5767 7.5817 10.1267 7.5817 10.9467V12.7467C7.5817 14.2467 8.5917 15.2567 10.1017 15.2567C11.5917 15.2567 12.6017 14.2467 12.6017 12.7267V9.1967L12.6817 8.3467L12.2317 8.9967L11.2217 10.2267C11.0317 10.4767 10.7417 10.5967 10.4617 10.5967C9.8317 10.5967 9.3017 10.0567 9.3017 9.4467C9.3017 9.1567 9.4217 8.8567 9.6217 8.6467L12.9717 5.3367C13.2217 5.0967 13.5217 4.9767 13.8117 4.9767C14.1117 4.9767 14.4017 5.1067 14.6417 5.3367L17.9917 8.6467C18.2117 8.8667 18.3317 9.1367 18.3317 9.4267C18.3317 10.0167 17.7917 10.5867 17.1817 10.5867C16.8917 10.5867 16.6017 10.4667 16.4017 10.2267L15.3617 9.0667L14.8317 8.3467L14.9317 9.1967V12.7267C14.9317 15.7467 12.9917 17.7667 10.1017 17.7667Z" />
        </svg>
    