
        <svg xmlns="http://www.w3.org/2000/svg" viewBox="0 0 100 100">
            <path d="M12.2223 24.4419C18.9723 24.4419 24.4423 18.9719 24.4423 12.2219C24.4423 5.4819 18.9723 0.0019 12.2223 0.0019C5.4823 0.0019 0.0023 5.4819 0.0023 12.2219C0.0023 18.9719 5.4823 24.4419 12.2223 24.4419ZM12.2223 19.2919C11.9723 19.2919 11.6723 19.1919 11.4423 18.9419L6.6323 13.8019C6.3123 13.4519 6.1623 13.1719 6.1623 12.7919C6.1623 12.2619 6.5523 11.8619 7.1023 11.8619H9.4423V6.8219C9.4423 5.7819 10.0323 5.1819 11.0523 5.1819H13.3623C14.3823 5.1819 14.9923 5.7819 14.9923 6.8219V11.8619H17.3223C17.8523 11.8619 18.2823 12.2619 18.2823 12.8219C18.2823 13.1719 18.1423 13.4219 17.7823 13.8019L13.0223 18.9419C12.7623 19.1919 12.4923 19.2919 12.2223 19.2919Z" />
        </svg>
    