
        <svg xmlns="http://www.w3.org/2000/svg" viewBox="0 0 100 100">
            <path d="M12.6023 25.1986C19.5623 25.1986 25.2023 19.5586 25.2023 12.5986C25.2023 5.6386 19.5623 -0.0014 12.6023 -0.0014C5.6523 -0.0014 0.0023 5.6386 0.0023 12.5986C0.0023 19.5586 5.6523 25.1986 12.6023 25.1986ZM18.7823 12.5986C18.7823 13.0286 18.6323 13.4786 18.2223 13.9086L14.4423 17.8486C14.1723 18.1186 13.8823 18.2686 13.4623 18.2686C12.6923 18.2686 12.1523 17.5886 12.1523 16.8986C12.1523 16.4886 12.3123 16.1086 12.6123 15.8486L13.9423 14.5786L14.8923 14.0786L13.1323 14.2286H7.8123C6.9523 14.2286 6.2123 13.4986 6.2123 12.5986C6.2123 11.6686 6.9523 10.9586 7.8123 10.9586H13.1323L14.8923 11.1086L13.9423 10.6086L12.6123 9.3386C12.3123 9.0686 12.1523 8.7086 12.1523 8.2986C12.1523 7.5986 12.6923 6.9186 13.4623 6.9186C13.8823 6.9186 14.1723 7.0686 14.4423 7.3386L18.2223 11.2686C18.6323 11.7086 18.7823 12.1486 18.7823 12.5986Z" />
        </svg>
    