
        <svg xmlns="http://www.w3.org/2000/svg" viewBox="0 0 100 100">
            <path d="M0.0017 25.7008C0.0017 28.0008 1.1617 29.1608 3.4217 29.1608H14.6017C16.8717 29.1608 18.0217 27.9808 18.0217 25.7008V23.4808H20.2717C22.5517 23.4808 23.7117 22.3108 23.7117 20.0308V3.4608C23.7117 1.1708 22.5517 0.0008 20.2717 0.0008H9.1017C6.8417 0.0008 5.6717 1.1608 5.6717 3.4608V5.6808H3.4217C1.1617 5.6808 0.0017 6.8408 0.0017 9.1408ZM11.2817 3.1508V2.9208C11.2817 2.6008 11.4917 2.3108 11.9617 2.3108H17.4217C17.8817 2.3108 18.0917 2.6008 18.0917 2.9208V3.1508C18.0917 3.4708 17.8817 3.7608 17.4217 3.7608H11.9617C11.4917 3.7608 11.2817 3.4708 11.2817 3.1508ZM1.4517 25.6808V9.1608C1.4517 7.8408 2.1417 7.1208 3.4917 7.1208H14.5317C15.8817 7.1208 16.5817 7.8408 16.5817 9.1608V25.6808C16.5817 27.0008 15.8817 27.7108 14.5317 27.7108H3.4917C2.1417 27.7108 1.4517 27.0008 1.4517 25.6808ZM9.0617 12.1408C7.7317 12.1408 6.5317 12.6408 5.6717 13.3908C5.3117 13.6708 5.3117 14.0608 5.4917 14.3008C5.6717 14.5208 6.0117 14.6008 6.3917 14.3208C7.0917 13.7108 8.0017 13.3108 9.0617 13.3108C11.0517 13.3108 12.7117 14.7408 13.0817 16.6408H12.0917C11.7317 16.6408 11.6517 16.9808 11.8517 17.2608L13.3017 19.3508C13.5517 19.7008 13.9317 19.7108 14.1817 19.3508L15.6217 17.2608C15.8117 16.9808 15.7217 16.6408 15.3717 16.6408H14.2717C13.9017 14.1008 11.7117 12.1408 9.0617 12.1408ZM2.7317 18.2008H3.8317C4.2117 20.7408 6.4117 22.6908 9.0617 22.6908C10.3717 22.6908 11.5817 22.1908 12.4317 21.4308C12.8017 21.1508 12.8017 20.7608 12.6117 20.5308C12.4317 20.3108 12.0917 20.2308 11.7217 20.5108C11.0117 21.1308 10.1017 21.5108 9.0617 21.5108C7.0517 21.5108 5.3917 20.0908 5.0317 18.2008H6.0117C6.3717 18.2008 6.4617 17.8608 6.2617 17.5808L4.8017 15.4808C4.5617 15.1308 4.1717 15.1208 3.9217 15.4808L2.4817 17.5808C2.3017 17.8508 2.3817 18.2008 2.7317 18.2008Z" />
        </svg>
    