
        <svg xmlns="http://www.w3.org/2000/svg" viewBox="0 0 100 100">
            <path d="M12.2223 24.4436C18.9723 24.4436 24.4423 18.9736 24.4423 12.2236C24.4423 5.4736 18.9723 0.0036 12.2223 0.0036C5.4723 0.0036 0.0023 5.4736 0.0023 12.2236C0.0023 18.9736 5.4723 24.4436 12.2223 24.4436ZM12.2223 21.7636C6.9523 21.7636 2.6823 17.4936 2.6823 12.2236C2.6823 6.9536 6.9523 2.6836 12.2223 2.6836C17.4923 2.6836 21.7623 6.9536 21.7623 12.2236C21.7623 17.4936 17.4923 21.7636 12.2223 21.7636ZM9.6923 16.9136C10.1123 16.9136 10.4023 16.6636 10.4623 16.4036V16.1936L6.8223 12.8436C6.4323 12.4836 6.2123 12.0236 6.2123 11.5336C6.2123 11.0536 6.4223 10.5936 6.8223 10.2336L10.4623 6.8836V6.6836C10.4023 6.3936 10.1123 6.1536 9.6923 6.1536C9.3723 6.1536 9.1523 6.2836 8.8123 6.5936L4.2523 10.8436C4.0223 11.0536 3.9423 11.2936 3.9423 11.5336C3.9423 11.7536 4.0223 12.0036 4.2523 12.2236L8.8123 16.4736C9.1423 16.7836 9.3723 16.9136 9.6923 16.9136ZM12.8423 16.9136C13.3023 16.9136 13.6523 16.5736 13.6523 16.0936V14.0836H13.7923C15.8523 14.0836 17.1223 14.7236 17.9523 16.3336C18.1723 16.7536 18.4723 16.8736 18.8123 16.8736C19.2523 16.8736 19.5423 16.4536 19.5423 15.6536C19.5423 11.5036 17.6923 9.0236 13.7923 9.0236H13.6523V6.9936C13.6523 6.5436 13.3023 6.1536 12.8423 6.1536C12.5323 6.1536 12.3023 6.2936 11.9623 6.5936L7.4023 10.8436C7.1723 11.0636 7.0823 11.2936 7.0823 11.5336C7.0823 11.7536 7.1823 12.0036 7.4023 12.2236L11.9623 16.4736C12.2823 16.7836 12.5423 16.9136 12.8423 16.9136Z" />
        </svg>
    