
        <svg xmlns="http://www.w3.org/2000/svg" viewBox="0 0 100 100">
            <path d="M3.0117 20.5048H17.4917C19.4517 20.5048 20.5117 19.4248 20.5117 17.4948V3.0148C20.5117 1.0748 19.4517 0.0048 17.4917 0.0048H3.0117C1.0417 0.0048 0.0017 1.0448 0.0017 3.0148V17.4948C0.0017 19.4648 1.0417 20.5048 3.0117 20.5048ZM14.3317 7.5248C14.4817 7.5248 14.6017 7.6248 14.6017 7.8148V14.2948C14.6017 14.4748 14.4917 14.5748 14.3317 14.5748H7.8417C7.6517 14.5748 7.5517 14.4848 7.5517 14.3348C7.5517 14.1548 7.6517 14.0348 7.8417 14.0348H13.6617L12.5617 12.9648L6.0017 6.3948C5.9417 6.3348 5.8917 6.2648 5.8917 6.1648C5.8917 5.9848 6.0117 5.8748 6.1917 5.8748C6.3017 5.8748 6.3717 5.9148 6.4317 5.9748L12.9717 12.5248L14.0417 13.6248V7.8148C14.0417 7.6448 14.1517 7.5248 14.3317 7.5248Z" />
        </svg>
    