
        <svg xmlns="http://www.w3.org/2000/svg" viewBox="0 0 100 100">
            <path d="M3.9717 22.1H23.8817C26.4717 22.1 27.8517 20.73 27.8517 18.16V3.94C27.8517 1.37 26.4717 0 23.8817 0H3.9717C1.3817 0 0.0017 1.36 0.0017 3.94V18.16C0.0017 20.74 1.3817 22.1 3.9717 22.1ZM20.5917 10.56C20.0417 10.56 19.6417 10.15 19.6417 9.57V8.3L19.7717 6.86L18.4817 8.32L16.2617 10.54C16.0317 10.76 15.7717 10.87 15.4817 10.87C14.8917 10.87 14.4717 10.45 14.4717 9.87C14.4717 9.61 14.6017 9.34 14.8117 9.13L17.0517 6.88L18.5417 5.6L17.1717 5.74H15.7817C15.2117 5.74 14.8117 5.34 14.8117 4.79C14.8117 4.24 15.2117 3.84 15.7717 3.84H20.3417C21.0717 3.84 21.5317 4.24 21.5317 5.03V9.56C21.5317 10.12 21.1417 10.56 20.5917 10.56ZM7.2617 11.54C7.8117 11.54 8.2017 11.95 8.2017 12.53V13.8L8.0717 15.25L9.3617 13.78L11.5917 11.57C11.8117 11.34 12.0717 11.23 12.3717 11.23C12.9517 11.23 13.3817 11.65 13.3817 12.23C13.3817 12.49 13.2417 12.76 13.0417 12.97L10.8017 15.22L9.3017 16.5L10.6917 16.36H12.0617C12.6317 16.36 13.0417 16.76 13.0417 17.31C13.0417 17.86 12.6317 18.26 12.0817 18.26H7.5017C6.7817 18.26 6.3117 17.86 6.3117 17.07V12.54C6.3117 11.98 6.7017 11.54 7.2617 11.54Z" />
        </svg>
    