
        <svg xmlns="http://www.w3.org/2000/svg" viewBox="0 0 100 100">
            <path d="M4.3817 22.8467H18.4717C21.2617 22.8467 22.8517 21.2667 22.8517 18.4767V4.3667C22.8517 1.5867 21.2617 -0.0033 18.4717 -0.0033H4.3817C1.5917 -0.0033 0.0017 1.5867 0.0017 4.3667V18.4767C0.0017 21.2667 1.5917 22.8467 4.3817 22.8467ZM6.3517 11.7667C5.6917 11.7667 5.1717 11.2467 5.1717 10.5967V6.7067C5.1717 5.6867 5.7217 5.1067 6.7717 5.1067H10.6517C11.3017 5.1067 11.8217 5.6367 11.8217 6.2967C11.8217 6.9467 11.3017 7.4667 10.6517 7.4667H10.2317L9.0817 7.2667L11.0817 9.0867C11.6617 9.5867 11.6217 10.4767 11.1017 11.0267C10.5517 11.5567 9.6417 11.5867 9.1517 11.0167L7.3217 8.9967L7.5217 10.1467V10.5967C7.5217 11.2467 6.9917 11.7667 6.3517 11.7667ZM12.3617 17.7667C11.7217 17.7667 11.1817 17.2367 11.1817 16.5867C11.1817 15.9267 11.7217 15.4067 12.3617 15.4067H12.7717L13.9317 15.6067L11.9217 13.8067C11.3417 13.2867 11.3817 12.3967 11.9217 11.8567C12.4617 11.3167 13.3617 11.2867 13.8617 11.8567L15.6917 13.8767L15.4817 12.7267V12.2967C15.4817 11.6367 16.0117 11.1067 16.6517 11.1067C17.3117 11.1067 17.8517 11.6367 17.8517 12.2967V16.1767C17.8517 17.2067 17.2817 17.7667 16.2317 17.7667Z" />
        </svg>
    