
        <svg xmlns="http://www.w3.org/2000/svg" viewBox="0 0 100 100">
            <path d="M11.7523 23.5048C18.2423 23.5048 23.5123 18.2448 23.5123 11.7548C23.5123 5.2648 18.2423 0.0048 11.7523 0.0048C5.2623 0.0048 0.0023 5.2648 0.0023 11.7548C0.0023 18.2448 5.2623 23.5048 11.7523 23.5048ZM11.7523 21.9848C6.0923 21.9848 1.5223 17.4148 1.5223 11.7548C1.5223 6.0948 6.0923 1.5148 11.7523 1.5148C17.4123 1.5148 21.9923 6.0948 21.9923 11.7548C21.9923 17.4148 17.4123 21.9848 11.7523 21.9848ZM5.7623 16.8048C6.0123 16.8048 6.2323 16.7248 6.4223 16.3748C7.4623 14.2848 9.1123 13.5748 11.8223 13.5748H12.0623V16.1648C12.0623 16.5248 12.3023 16.8048 12.6823 16.8048C12.9523 16.8048 13.1723 16.6748 13.4023 16.4548L18.4923 11.6948C18.7723 11.4348 18.8423 11.2148 18.8423 11.0148C18.8423 10.8048 18.7723 10.5948 18.4923 10.3348L13.4023 5.5848C13.1523 5.3448 12.9623 5.2148 12.6823 5.2148C12.3023 5.2148 12.0623 5.5148 12.0623 5.8848V8.4848H11.8223C7.4523 8.4848 5.1923 11.1448 5.1923 16.1048C5.1923 16.5448 5.4623 16.8048 5.7623 16.8048Z" />
        </svg>
    