
        <svg xmlns="http://www.w3.org/2000/svg" viewBox="0 0 100 100">
            <path d="M19.2917 1.2348C18.3417 0.2948 17.0717 0.0048 14.7817 0.0048H5.6117C3.4717 0.0048 2.1717 0.3048 1.2317 1.2448C0.2917 2.1748 0.0017 3.4548 0.0017 5.6048V14.7748C0.0017 17.0748 0.2817 18.3548 1.2217 19.2748C2.1717 20.2148 3.4417 20.5048 5.7317 20.5048H14.7817C17.0717 20.5048 18.3517 20.2148 19.2917 19.2748C20.2217 18.3348 20.5217 17.0748 20.5217 14.7748V5.7348C20.5217 3.4348 20.2217 2.1548 19.2917 1.2348ZM14.2717 13.0048C14.0117 13.0048 13.8417 12.8348 13.8417 12.5648V9.2548L13.8917 7.1748L12.6717 8.4448L6.6017 14.5148C6.5117 14.6048 6.4117 14.6648 6.2417 14.6648C6.0017 14.6648 5.8217 14.4848 5.8217 14.2248C5.8217 14.0948 5.8817 13.9948 5.9617 13.9148L12.0517 7.8248L13.3317 6.5948L11.6817 6.6348H7.9317C7.6517 6.6348 7.4717 6.4648 7.4717 6.2148C7.4717 5.9648 7.6517 5.8148 7.9217 5.8148H14.2417C14.5117 5.8148 14.6817 5.9648 14.6817 6.2548V12.5548C14.6817 12.8348 14.5117 13.0048 14.2717 13.0048Z" />
        </svg>
    