
        <svg xmlns="http://www.w3.org/2000/svg" viewBox="0 0 100 100">
            <path d="M12.1023 24.2064C18.7823 24.2064 24.2123 18.7864 24.2123 12.1064C24.2123 5.4264 18.7823 -0.0036 12.1023 -0.0036C5.4223 -0.0036 0.0023 5.4264 0.0023 12.1064C0.0023 18.7864 5.4223 24.2064 12.1023 24.2064ZM12.1023 21.8164C6.7223 21.8164 2.3823 17.4864 2.3823 12.1064C2.3823 6.7264 6.7223 2.3764 12.1023 2.3764C17.4823 2.3764 21.8323 6.7264 21.8323 12.1064C21.8323 17.4864 17.4823 21.8164 12.1023 21.8164ZM10.4923 18.1364C13.3023 18.1364 15.0323 16.1364 15.0323 13.3664V9.9164L14.9723 8.6364L15.6723 9.5264L16.7923 10.7064C16.9423 10.8764 17.1823 10.9964 17.4223 10.9964C17.9323 10.9964 18.3323 10.5864 18.3323 10.0864C18.3323 9.8464 18.2423 9.6364 18.0623 9.4564L14.8923 6.3364C14.6923 6.1364 14.4523 6.0264 14.1723 6.0264C13.8823 6.0264 13.6423 6.1364 13.4423 6.3364L10.2523 9.4664C10.0823 9.6464 9.9923 9.8564 9.9923 10.1064C9.9923 10.5964 10.3923 10.9964 10.9023 10.9964C11.1223 10.9964 11.3623 10.8964 11.5323 10.7264L12.8323 9.3164L13.3223 8.6364L13.2623 9.9164V13.3664C13.2623 15.0264 12.2923 16.2764 10.5723 16.2764C8.8123 16.2764 7.7123 15.0564 7.7123 13.3664V11.7164C7.7123 11.1664 7.3823 10.7464 6.8123 10.7464C6.2223 10.7464 5.8823 11.1664 5.8823 11.7464V13.3664C5.8823 16.1264 7.6623 18.1364 10.4923 18.1364Z" />
        </svg>
    