
        <svg xmlns="http://www.w3.org/2000/svg" viewBox="0 0 100 100">
            <path d="M4.5917 23.2359H18.6417C21.5417 23.2359 23.2417 21.5459 23.2417 18.6459V4.5959C23.2417 1.6959 21.5417 -0.0041 18.6417 -0.0041H4.5917C1.7017 -0.0041 0.0017 1.6959 0.0017 4.5959V18.6459C0.0017 21.5459 1.7017 23.2359 4.5917 23.2359ZM15.9717 17.2459C15.5417 17.7059 14.8517 17.6959 14.4217 17.2459L11.5417 14.2659C11.3417 14.0659 11.2117 13.7959 11.2117 13.5259C11.2117 12.9159 11.6517 12.4759 12.2417 12.4759C12.5317 12.4759 12.8017 12.5759 12.9817 12.7859L14.1217 13.9659L14.1417 14.0059V6.6759C14.1417 6.0959 14.5917 5.6359 15.2017 5.6359C15.7817 5.6359 16.2517 6.0959 16.2517 6.6759V14.0059L16.2817 13.9659L17.4117 12.7859C17.6017 12.5759 17.8617 12.4759 18.1417 12.4759C18.7417 12.4759 19.1717 12.9159 19.1717 13.5259C19.1717 13.8059 19.0517 14.0659 18.8817 14.2659ZM7.5517 5.9859C7.9817 5.5159 8.6717 5.5459 9.1017 5.9859L11.9917 8.9759C12.1717 9.1659 12.3317 9.4359 12.3317 9.7159C12.3317 10.3259 11.8817 10.7459 11.2717 10.7459C10.9917 10.7459 10.7317 10.6659 10.5317 10.4559L9.4017 9.2559L9.3917 9.2359V16.5459C9.3917 17.1459 8.9417 17.6059 8.3317 17.6059C7.7417 17.6059 7.2617 17.1459 7.2617 16.5459V9.2359L7.2517 9.2559L6.1217 10.4559C5.9217 10.6659 5.6717 10.7459 5.3917 10.7459C4.7817 10.7459 4.3617 10.3259 4.3617 9.7159C4.3617 9.4359 4.4717 9.1759 4.6617 8.9759Z" />
        </svg>
    