
        <svg xmlns="http://www.w3.org/2000/svg" viewBox="0 0 100 100">
            <path d="M1.9417 0.0008C1.2617 0.0008 0.6517 0.0008 0.4317 0.0308C0.2017 0.0808 0.0017 0.2008 0.0017 0.4808C0.0017 0.7508 0.2017 0.9208 0.4717 0.9208C0.6517 0.9208 1.1517 0.9008 1.8917 0.9008C6.3717 0.9008 8.2217 2.8508 8.2217 7.2608V17.5408L8.2617 20.3108L5.8317 17.8008L0.8917 12.8708C0.8217 12.7808 0.6917 12.7508 0.5617 12.7508C0.3117 12.7508 0.1317 12.9408 0.1317 13.1908C0.1317 13.3208 0.1617 13.4308 0.2617 13.5208L8.3317 21.5508C8.4217 21.6408 8.5317 21.6908 8.6717 21.6908C8.8017 21.6908 8.9017 21.6408 9.0017 21.5508L17.0717 13.5208C17.1717 13.4308 17.2117 13.3208 17.2117 13.1908C17.2117 12.9408 17.0117 12.7508 16.7717 12.7508C16.6417 12.7508 16.5117 12.7808 16.4417 12.8708L11.4917 17.8008L9.0717 20.3108L9.1217 17.5408V7.2408C9.1217 2.2708 6.9917 0.0008 1.9417 0.0008Z" />
        </svg>
    