
        <svg xmlns="http://www.w3.org/2000/svg" viewBox="0 0 100 100">
            <path d="M11.9523 23.9041C18.5523 23.9041 23.9023 18.5341 23.9023 11.9541C23.9023 5.3541 18.5523 0.0041 11.9523 0.0041C5.3623 0.0041 0.0023 5.3541 0.0023 11.9541C0.0023 18.5341 5.3623 23.9041 11.9523 23.9041ZM8.1523 8.9541C8.6923 8.9541 9.0423 9.3141 9.0423 9.9041V11.9741L8.8723 13.8641L10.6123 12.0041L15.0323 7.5741C15.2123 7.3941 15.4423 7.2841 15.7423 7.2841C16.2623 7.2841 16.6323 7.6441 16.6323 8.1941C16.6323 8.4241 16.5123 8.6741 16.3323 8.8441L11.8923 13.2641L10.0123 15.0341L11.8023 14.8441H13.9823C14.5623 14.8441 14.9423 15.2041 14.9423 15.7241C14.9423 16.2641 14.5823 16.6141 14.0023 16.6141H8.2823C7.6623 16.6141 7.2623 16.3341 7.2623 15.6241V9.9241C7.2623 9.3541 7.6323 8.9541 8.1523 8.9541Z" />
        </svg>
    