
        <svg xmlns="http://www.w3.org/2000/svg" viewBox="0 0 100 100">
            <path d="M3.8417 21.8745H18.0317C20.5617 21.8745 21.8817 20.5745 21.8817 18.0745V3.8045C21.8817 1.3145 20.5617 0.0045 18.0317 0.0045H3.8417C1.3117 0.0045 0.0017 1.3045 0.0017 3.8045V18.0745C0.0017 20.5745 1.3117 21.8745 3.8417 21.8745ZM3.9817 19.5845C2.8917 19.5845 2.3017 19.0145 2.3017 17.8845V4.0045C2.3017 2.8745 2.8917 2.2945 3.9817 2.2945H17.8917C18.9717 2.2945 19.5817 2.8745 19.5817 4.0045V17.8845C19.5817 19.0145 18.9717 19.5845 17.8917 19.5845ZM10.9617 5.0245C10.6717 5.0245 10.4217 5.1245 10.1517 5.3945L6.3317 9.0745C6.1317 9.2645 6.0117 9.4645 6.0117 9.7545C6.0117 10.2845 6.4317 10.6745 6.9617 10.6745C7.2317 10.6745 7.5017 10.5745 7.6917 10.3545L9.3417 8.6045L9.9717 7.8445L9.8917 9.5745V15.7845C9.8917 16.3545 10.3717 16.8445 10.9617 16.8445C11.5417 16.8445 12.0217 16.3545 12.0217 15.7845V9.5745L11.9317 7.8445L12.5717 8.6045L14.2117 10.3545C14.4017 10.5745 14.6717 10.6745 14.9317 10.6745C15.4617 10.6745 15.8917 10.2845 15.8917 9.7545C15.8917 9.4645 15.7717 9.2645 15.5817 9.0745L11.7617 5.3945C11.4817 5.1245 11.2417 5.0245 10.9617 5.0245Z" />
        </svg>
    