
        <svg xmlns="http://www.w3.org/2000/svg" viewBox="0 0 100 100">
            <path d="M23.1523 20.3638C26.6923 20.3638 29.4623 17.7738 29.4623 14.5538C29.4623 12.0938 28.0423 9.9637 25.7623 9.0038C25.7823 3.7738 22.0223 0.0038 17.2223 0.0038C14.0523 0.0038 11.7923 1.7037 10.3823 3.7538C7.5023 2.9037 4.3623 5.0938 4.3023 8.3837C1.6523 8.8038 0.0023 11.1638 0.0023 14.0238C0.0023 17.4738 3.0123 20.3638 7.0223 20.3638ZM11.8523 8.4738C11.5123 8.1138 11.6323 7.6138 12.0823 7.2538C12.9023 6.5638 14.1023 6.1438 15.2823 6.1438C17.9923 6.1438 20.1323 7.9637 20.6023 10.6038H21.5423C21.9823 10.6038 22.0923 11.0238 21.8423 11.3837L20.3223 13.5238C20.0523 13.8938 19.5923 13.8638 19.3323 13.5238L17.8023 11.3837C17.5323 11.0238 17.6623 10.6038 18.1023 10.6038H19.1523C18.7223 8.9338 17.1723 7.6638 15.2823 7.6638C14.3623 7.6638 13.6723 7.9338 12.9923 8.4838C12.6223 8.7638 12.1723 8.8138 11.8523 8.4738ZM8.6823 11.5738L10.2023 9.4238C10.4723 9.0438 10.9323 9.0838 11.1923 9.4238L12.7223 11.5738C12.9923 11.9138 12.8623 12.3538 12.4223 12.3538H11.4223C11.8623 14.0238 13.4323 15.2838 15.2923 15.2838C16.2223 15.2838 16.9023 15.0038 17.5623 14.4638C17.9723 14.1838 18.4023 14.1338 18.7423 14.4738C19.0823 14.8438 18.9623 15.3438 18.5023 15.7038C17.6723 16.3938 16.4923 16.8038 15.2923 16.8038C12.6023 16.8038 10.4523 14.9738 9.9823 12.3538H8.9923C8.5423 12.3538 8.4423 11.9138 8.6823 11.5738Z" />
        </svg>
    