
        <svg xmlns="http://www.w3.org/2000/svg" viewBox="0 0 100 100">
            <path d="M0.0017 12.9259C0.0017 13.5559 0.4917 14.0359 1.0617 14.0359C1.6417 14.0359 2.1217 13.5259 2.1217 12.9759V8.6359L1.9117 3.1659L3.8417 5.3559L15.4717 16.9759C15.6917 17.2059 15.9517 17.2959 16.2117 17.2959C16.7917 17.2959 17.3117 16.7659 17.3117 16.2059C17.3117 15.9459 17.1917 15.6759 16.9817 15.4659L5.3717 3.8359L3.1917 1.9259L8.9017 2.1059H12.9817C13.5317 2.1059 14.0417 1.6259 14.0417 1.0659C14.0417 0.5059 13.5917 -0.0041 12.9417 -0.0041H1.1517C0.4417 -0.0041 0.0117 0.4659 0.0117 1.1359Z" />
        </svg>
    