
        <svg xmlns="http://www.w3.org/2000/svg" viewBox="0 0 100 100">
            <path d="M8.8317 20.4497C9.2917 20.4497 9.6217 20.1297 9.6217 19.6597V6.5297L9.5617 3.9997L12.7517 7.4097L16.1917 10.8397C16.3517 10.9897 16.5717 11.0697 16.7917 11.0697C17.2417 11.0697 17.5617 10.7497 17.5617 10.2997C17.5617 10.0497 17.4617 9.8597 17.2717 9.6597L9.4217 1.8297C9.3117 1.7097 9.1717 1.6297 9.0317 1.5797H16.8717C17.3417 1.5797 17.6617 1.2497 17.6617 0.7897C17.6617 0.3297 17.3417 -0.0003 16.8717 -0.0003H0.7717C0.3117 -0.0003 0.0017 0.3297 0.0017 0.7897C0.0017 1.2497 0.3117 1.5797 0.7717 1.5797H8.6217C8.4817 1.6297 8.3517 1.7097 8.2417 1.8297L0.4017 9.6597C0.2117 9.8597 0.1017 10.0497 0.1017 10.2997C0.1017 10.7497 0.4317 11.0697 0.8817 11.0697C1.1017 11.0697 1.3217 10.9897 1.4717 10.8397L4.9117 7.4097L8.1117 3.9797L8.0417 6.5297V19.6597C8.0417 20.1297 8.3717 20.4497 8.8317 20.4497Z" />
        </svg>
    