
        <svg xmlns="http://www.w3.org/2000/svg" viewBox="0 0 100 100">
            <path d="M11.7523 23.5048C18.2323 23.5048 23.5123 18.2348 23.5123 11.7548C23.5123 5.2748 18.2323 0.0048 11.7523 0.0048C5.2723 0.0048 0.0023 5.2748 0.0023 11.7548C0.0023 18.2348 5.2723 23.5048 11.7523 23.5048ZM15.6323 8.8448C16.0423 8.8448 16.3123 9.1548 16.3123 9.5948V15.5348C16.3123 16.0748 16.0223 16.3048 15.5523 16.3048H9.5723C9.1323 16.3048 8.8523 16.0448 8.8523 15.6348C8.8523 15.2148 9.1423 14.9448 9.5823 14.9448H12.4423L14.1823 15.0748L12.5523 13.5348L7.4023 8.3948C7.2623 8.2648 7.1823 8.0748 7.1823 7.8848C7.1823 7.4548 7.4523 7.1848 7.8623 7.1848C8.1023 7.1848 8.2723 7.2648 8.4123 7.4048L13.5423 12.5348L15.0623 14.1548L14.9423 12.1848V9.5748C14.9423 9.1248 15.2223 8.8448 15.6323 8.8448Z" />
        </svg>
    