
        <svg xmlns="http://www.w3.org/2000/svg" viewBox="0 0 100 100">
            <path d="M11.3523 22.7064C17.6323 22.7064 22.7123 17.6264 22.7123 11.3564C22.7123 5.0764 17.6323 -0.0036 11.3523 -0.0036C5.0823 -0.0036 0.0023 5.0764 0.0023 11.3564C0.0023 17.6264 5.0823 22.7064 11.3523 22.7064ZM11.3523 22.1364C5.3923 22.1364 0.5723 17.3164 0.5723 11.3564C0.5723 5.3864 5.3923 0.5764 11.3523 0.5764C17.3223 0.5764 22.1323 5.3864 22.1323 11.3564C22.1323 17.3164 17.3223 22.1364 11.3523 22.1364ZM12.7523 6.0164C10.4223 6.0164 8.8623 7.6964 8.8623 10.2164V15.0164L8.8923 16.2464L8.4523 15.6864L6.0923 13.3264C6.0223 13.2564 5.9523 13.1964 5.8523 13.1964C5.6723 13.1964 5.5423 13.2964 5.5423 13.4864C5.5423 13.5964 5.5923 13.6664 5.6523 13.7264L8.8123 16.8364C8.9023 16.9264 9.0223 16.9764 9.1523 16.9764C9.2823 16.9764 9.4023 16.9264 9.4923 16.8364L12.6523 13.7264C12.7123 13.6664 12.7623 13.5964 12.7623 13.4964C12.7623 13.2964 12.6323 13.1964 12.4523 13.1964C12.3523 13.1964 12.2823 13.2564 12.2123 13.3264L9.8523 15.6864L9.4123 16.2464L9.4423 15.0164V10.2164C9.4423 8.0364 10.7623 6.5864 12.7623 6.5864C14.7523 6.5864 16.0623 8.0364 16.0623 10.2164V12.1664C16.0623 12.3364 16.1823 12.4564 16.3623 12.4564C16.5323 12.4564 16.6423 12.3364 16.6423 12.1664V10.2164C16.6423 7.6964 15.0923 6.0164 12.7523 6.0164Z" />
        </svg>
    