
        <svg xmlns="http://www.w3.org/2000/svg" viewBox="0 0 100 100">
            <path d="M12.2017 22.638C12.5817 22.638 13.1717 22.298 13.7117 21.948C20.1517 17.738 24.3917 12.728 24.3917 7.698C24.3917 3.098 21.1917 -0.002 17.3517 -0.002C14.9517 -0.002 13.2317 1.308 12.2017 3.238C11.1717 1.328 9.4317 -0.002 7.0417 -0.002C3.2117 -0.002 0.0017 3.098 0.0017 7.698C0.0017 12.728 4.2317 17.738 10.6917 21.948C11.2117 22.298 11.8017 22.638 12.2017 22.638ZM13.2617 7.978V11.188L13.1517 12.948L13.9117 12.128L14.5317 11.468C14.7217 11.228 15.0617 11.058 15.3917 11.058C16.0317 11.058 16.5317 11.528 16.5317 12.178C16.5317 12.538 16.4217 12.798 16.1217 13.058L12.9917 15.888C12.6717 16.188 12.3517 16.358 11.9417 16.358C11.5317 16.358 11.2117 16.188 10.8917 15.888L7.7617 13.058C7.4617 12.798 7.3517 12.538 7.3517 12.178C7.3517 11.528 7.8417 11.058 8.5117 11.058C8.8217 11.058 9.1517 11.228 9.3517 11.468L9.9817 12.128L10.7317 12.948L10.6217 11.188V7.978C10.6217 7.258 11.2117 6.748 11.9417 6.748C12.6717 6.748 13.2617 7.258 13.2617 7.978Z" />
        </svg>
    