
        <svg xmlns="http://www.w3.org/2000/svg" viewBox="0 0 100 100">
            <path d="M3.0117 20.5048H24.0617C26.0117 20.5048 27.0617 19.4248 27.0617 17.4948V3.0148C27.0617 1.0748 26.0117 0.0048 24.0617 0.0048H3.0117C1.0417 0.0048 0.0017 1.0448 0.0017 3.0148V17.4948C0.0017 19.4648 1.0417 20.5048 3.0117 20.5048ZM3.0317 19.9348C1.4217 19.9348 0.5717 19.0948 0.5717 17.4648V3.0348C0.5717 1.4148 1.4217 0.5748 3.0317 0.5748H24.0217C25.5817 0.5748 26.4817 1.4148 26.4817 3.0348V17.4648C26.4817 19.0948 25.5817 19.9348 24.0217 19.9348ZM14.9217 3.2948C14.7617 3.2948 14.6417 3.4248 14.6417 3.5848V8.8548C14.6417 9.0248 14.7417 9.1448 14.9017 9.1448H20.1917C20.3517 9.1448 20.4817 9.0148 20.4817 8.8548C20.4817 8.6948 20.3517 8.5648 20.1917 8.5648H17.1917L15.5717 8.5848L16.6917 7.5148L21.3017 2.8948C21.3617 2.8348 21.4117 2.7648 21.4117 2.6648C21.4117 2.4848 21.2917 2.3648 21.1217 2.3648C21.0017 2.3648 20.9317 2.4148 20.8717 2.4748L16.2617 7.0748L15.2017 8.1948L15.2117 6.0348V3.5848C15.2117 3.4248 15.0817 3.2948 14.9217 3.2948ZM12.1417 17.2148C12.3017 17.2148 12.4317 17.0848 12.4317 16.9248V11.6448C12.4317 11.4748 12.3117 11.3548 12.1617 11.3548H6.8717C6.7017 11.3548 6.5717 11.4848 6.5717 11.6448C6.5717 11.8048 6.7017 11.9448 6.8717 11.9448H9.8717L11.4817 11.9048L10.3717 12.9948L5.7517 17.6148C5.6917 17.6748 5.6617 17.7448 5.6617 17.8448C5.6617 18.0148 5.7817 18.1248 5.9417 18.1248C6.0617 18.1248 6.1317 18.0948 6.1917 18.0348L10.7917 13.4248L11.8617 12.3148L11.8517 14.4648V16.9248C11.8517 17.0848 11.9917 17.2148 12.1417 17.2148Z" />
        </svg>
    