
        <svg xmlns="http://www.w3.org/2000/svg" viewBox="0 0 100 100">
            <path d="M10.2917 -0.0041C10.0117 -0.0041 9.8317 0.1759 9.8317 0.4459V6.7359L9.8717 9.2459L6.1917 5.4959C6.0917 5.3859 5.9517 5.3459 5.8117 5.3459C5.5417 5.3459 5.3417 5.5359 5.3417 5.7859C5.3417 5.9659 5.4417 6.0959 5.5617 6.2359L9.9417 10.5659C10.0317 10.6659 10.1517 10.7259 10.2917 10.7259C10.4217 10.7259 10.5317 10.6659 10.6317 10.5659L15.0117 6.2359C15.1417 6.0959 15.2317 5.9659 15.2317 5.7859C15.2317 5.5359 15.0317 5.3459 14.7817 5.3459C14.6417 5.3459 14.4917 5.3859 14.3917 5.4959L10.7017 9.2459L10.7417 6.7359V0.4459C10.7417 0.1759 10.5617 -0.0041 10.2917 -0.0041ZM0.0017 12.8559C0.0017 13.1159 0.2017 13.3159 0.4617 13.3159H20.1217C20.3717 13.3159 20.5617 13.1159 20.5617 12.8559C20.5617 12.5959 20.3717 12.3959 20.1217 12.3959H0.4617C0.2017 12.3959 0.0017 12.5959 0.0017 12.8559ZM10.2917 25.7159C10.5617 25.7159 10.7417 25.5259 10.7417 25.2559V18.9759L10.7017 16.4659L14.3917 20.2159C14.4917 20.3159 14.6417 20.3659 14.7817 20.3659C15.0317 20.3659 15.2317 20.1759 15.2317 19.9259C15.2317 19.7359 15.1417 19.6159 15.0117 19.4759L10.6317 15.1359C10.5317 15.0459 10.4217 14.9859 10.2917 14.9859C10.1517 14.9859 10.0317 15.0459 9.9417 15.1359L5.5617 19.4759C5.4417 19.6159 5.3417 19.7359 5.3417 19.9259C5.3417 20.1759 5.5417 20.3659 5.8117 20.3659C5.9517 20.3659 6.0917 20.3159 6.1917 20.2159L9.8717 16.4659L9.8317 18.9759V25.2559C9.8317 25.5259 10.0117 25.7159 10.2917 25.7159Z" />
        </svg>
    