
        <svg xmlns="http://www.w3.org/2000/svg" viewBox="0 0 100 100">
            <path d="M4.3817 22.8467H18.4717C21.2617 22.8467 22.8517 21.2667 22.8517 18.4767V4.3667C22.8517 1.5867 21.2617 -0.0033 18.4717 -0.0033H4.3817C1.5917 -0.0033 0.0017 1.5867 0.0017 4.3667V18.4767C0.0017 21.2667 1.5917 22.8467 4.3817 22.8467ZM18.8817 11.4267C18.8817 11.9067 18.7017 12.2767 18.3617 12.5967L15.3017 15.5267C15.0017 15.8067 14.7117 15.9167 14.3817 15.9167C13.7017 15.9167 13.2517 15.4267 13.2517 14.7067C13.2517 14.3167 13.5017 14.0167 13.7617 13.7567L14.0417 13.4767L15.1317 12.6867L12.9617 12.8467H10.1017L7.9317 12.6867L9.0217 13.4767L9.3017 13.7567C9.5517 14.0167 9.8117 14.3167 9.8117 14.7067C9.8117 15.4267 9.3517 15.9167 8.6817 15.9167C8.3517 15.9167 8.0617 15.8067 7.7617 15.5267L4.6917 12.5967C4.3617 12.2767 4.1717 11.9067 4.1717 11.4267C4.1717 10.9467 4.3617 10.5667 4.6917 10.2567L7.7617 7.3267C8.0617 7.0467 8.3517 6.9367 8.6817 6.9367C9.3517 6.9367 9.8117 7.4267 9.8117 8.1467C9.8117 8.5267 9.5617 8.8367 9.3017 9.0967L9.0217 9.3667L7.9217 10.1567L10.1017 10.0067H12.9617L15.1417 10.1567L14.0417 9.3667L13.7617 9.0967C13.5017 8.8367 13.2517 8.5267 13.2517 8.1467C13.2517 7.4267 13.7017 6.9367 14.3817 6.9367C14.7117 6.9367 15.0017 7.0467 15.3017 7.3267L18.3617 10.2567C18.7017 10.5667 18.8817 10.9467 18.8817 11.4267Z" />
        </svg>
    