
        <svg xmlns="http://www.w3.org/2000/svg" viewBox="0 0 100 100">
            <path d="M0.8438 17.9838H2.6238V18.0238C2.6238 22.3738 5.4938 25.2438 9.8238 25.2438C14.1838 25.2438 17.0538 22.3738 17.0538 18.0238V7.2338C17.0538 2.8738 14.1838 0.0038 9.8238 0.0038C5.4938 0.0038 2.6238 2.8738 2.6238 7.2338V9.5538C2.6238 10.0738 3.0438 10.5038 3.5738 10.5038C4.0938 10.5038 4.5038 10.0738 4.5038 9.5538V7.2338C4.5038 4.0437 6.6538 1.8837 9.8238 1.8837C13.0238 1.8837 15.1738 4.0437 15.1738 7.2338V18.0238C15.1738 21.2138 13.0238 23.3537 9.8238 23.3537C6.6538 23.3537 4.5038 21.2138 4.5038 18.0238V17.9838H6.2138C7.0538 17.9838 7.2638 17.4138 6.8138 16.7738L4.1938 13.0338C3.8138 12.4938 3.2538 12.4838 2.8638 13.0338L0.2438 16.7538C-0.2262 17.4138 -0.0062 17.9838 0.8438 17.9838Z" />
        </svg>
    