
        <svg xmlns="http://www.w3.org/2000/svg" viewBox="0 0 100 100">
            <path d="M12.1023 24.2064C18.7823 24.2064 24.2123 18.7864 24.2123 12.1064C24.2123 5.4264 18.7823 -0.0036 12.1023 -0.0036C5.4223 -0.0036 0.0023 5.4264 0.0023 12.1064C0.0023 18.7864 5.4223 24.2064 12.1023 24.2064ZM12.1023 21.8164C6.7223 21.8164 2.3823 17.4864 2.3823 12.1064C2.3823 6.7264 6.7223 2.3764 12.1023 2.3764C17.4823 2.3764 21.8323 6.7264 21.8323 12.1064C21.8323 17.4864 17.4823 21.8164 12.1023 21.8164ZM17.2923 12.6364C17.2923 9.8364 15.0323 7.6064 12.4823 7.5364C12.3723 7.5364 12.2623 7.5364 12.1723 7.5464L12.8823 6.8364C12.9923 6.6864 13.1023 6.4964 13.1023 6.2664C13.1023 5.8364 12.7623 5.4564 12.2923 5.4564C12.0423 5.4564 11.8323 5.5764 11.6823 5.7264L9.5023 7.9564C9.2023 8.2664 9.1923 8.8364 9.5023 9.1364L11.7023 11.3564C11.8523 11.4964 12.0723 11.5864 12.2823 11.5864C12.7423 11.5864 13.0923 11.2664 13.0923 10.7964C13.0923 10.5864 13.0223 10.3964 12.8923 10.2564L11.9323 9.3064C12.0423 9.2964 12.1923 9.2964 12.3323 9.3064C14.1223 9.3564 15.5323 10.8364 15.5323 12.6664C15.5323 14.5764 14.0023 16.1164 12.0923 16.1164C10.1923 16.1164 8.6623 14.5764 8.6623 12.6664C8.6623 12.1864 8.2623 11.7964 7.7823 11.7964C7.3023 11.7964 6.9023 12.1864 6.9023 12.6664C6.9023 15.5364 9.2223 17.8864 12.0923 17.8864C14.9623 17.8864 17.2923 15.5364 17.2923 12.6364Z" />
        </svg>
    