
        <svg xmlns="http://www.w3.org/2000/svg" viewBox="0 0 100 100">
            <path d="M3.9883 18.918H16.9583C19.5283 18.918 20.9383 17.498 20.9383 14.958V12.328L25.8883 16.328C26.3183 16.668 26.7183 16.888 27.1683 16.888C27.8983 16.888 28.4083 16.358 28.4083 15.478V3.438C28.4083 2.558 27.8983 2.028 27.1683 2.028C26.7183 2.028 26.3183 2.248 25.8883 2.588L20.9383 6.588V3.958C20.9383 1.418 19.5283 -0.002 16.9583 -0.002H3.9883C1.4483 -0.002 -0.0017 1.418 -0.0017 3.958V14.958C-0.0017 17.498 1.4283 18.918 3.9883 18.918ZM4.1683 18.098C1.9783 18.098 0.8783 16.978 0.8783 14.768V4.138C0.8783 1.938 1.9783 0.818 4.1683 0.818H16.7683C18.9683 0.818 20.0783 1.938 20.0783 4.138V14.768C20.0783 16.978 18.9683 18.098 16.7683 18.098ZM26.3783 15.628L20.9383 11.308V7.598L26.3783 3.278C26.6483 3.068 26.8683 2.918 27.0783 2.918C27.3783 2.918 27.5483 3.128 27.5483 3.548V15.368C27.5483 15.778 27.3783 15.988 27.0783 15.988C26.8683 15.988 26.6483 15.828 26.3783 15.628ZM6.3383 14.208C6.4883 14.208 6.5883 14.128 6.6583 14.058L12.4583 8.248L14.3283 6.328L14.2183 9.558V12.538C14.2183 12.758 14.3683 12.928 14.5983 12.928C14.8583 12.928 15.0083 12.758 15.0083 12.538V5.538C15.0083 5.248 14.8783 5.118 14.5683 5.118H7.4883C7.2683 5.118 7.0783 5.308 7.0783 5.538C7.0783 5.778 7.2583 5.938 7.4883 5.938H10.5683L13.8183 5.798L11.8683 7.678L6.0783 13.478C5.9883 13.578 5.9283 13.688 5.9283 13.808C5.9283 14.048 6.1083 14.208 6.3383 14.208Z" />
        </svg>
    