
        <svg xmlns="http://www.w3.org/2000/svg" viewBox="0 0 100 100">
            <path d="M4.5917 23.2359H18.6417C21.5417 23.2359 23.2417 21.5459 23.2417 18.6459V4.5959C23.2417 1.6959 21.5417 -0.0041 18.6417 -0.0041H4.5917C1.7017 -0.0041 0.0017 1.6959 0.0017 4.5959V18.6459C0.0017 21.5459 1.7017 23.2359 4.5917 23.2359ZM5.2217 19.0759C4.5117 19.0759 4.1617 18.7859 4.1617 18.0159V5.2359C4.1617 4.4659 4.5117 4.1759 5.2217 4.1759H18.0117C18.7217 4.1759 19.0817 4.4659 19.0817 5.2359V18.0159C19.0817 18.7859 18.7217 19.0759 18.0117 19.0759ZM5.7417 11.6259C5.7417 12.0859 5.8917 12.5759 6.3317 13.0159L9.8217 16.6559C10.1017 16.9359 10.3917 17.0959 10.8117 17.0959C11.6217 17.0959 12.1717 16.3759 12.1717 15.6659C12.1717 15.2359 12.0017 14.8759 11.7117 14.5859L10.6417 13.5859L9.6917 13.1559L11.3117 13.3159H15.8317C16.7317 13.3159 17.5117 12.5759 17.5117 11.6259C17.5117 10.6559 16.7317 9.9259 15.8317 9.9259H11.3117L9.6917 10.0859L10.6417 9.6659L11.7117 8.6459C12.0017 8.3759 12.1717 8.0159 12.1717 7.5859C12.1717 6.8659 11.6217 6.1559 10.8117 6.1559C10.3917 6.1559 10.1017 6.3059 9.8217 6.5859L6.3317 10.2259C5.8917 10.6759 5.7417 11.1559 5.7417 11.6259Z" />
        </svg>
    