
        <svg xmlns="http://www.w3.org/2000/svg" viewBox="0 0 100 100">
            <path d="M26.682 2.0667C26.682 0.6667 25.862 -0.0033 24.822 -0.0033C24.292 -0.0033 23.832 0.1667 23.372 0.4567L9.612 9.4567C8.792 9.9767 8.422 10.7567 8.422 11.5267C8.422 12.6567 9.212 13.6767 10.602 13.6767H24.372C25.942 13.6767 26.682 12.9267 26.682 11.3567ZM5.642 22.1467H4.142V6.7067H5.642C6.542 6.7067 6.782 5.9267 6.262 5.2267L3.902 2.0667C3.532 1.5467 3.022 1.5667 2.652 2.0667L0.282 5.2267C-0.258 5.9267 -0.008 6.7067 0.922 6.7067H2.392V22.1467H0.922C-0.008 22.1467 -0.258 22.9067 0.282 23.6267L2.652 26.7867C3.022 27.2767 3.532 27.2967 3.912 26.7867L6.272 23.6267C6.782 22.9267 6.542 22.1467 5.642 22.1467ZM26.682 26.7767V17.4967C26.682 15.9167 25.942 15.1767 24.372 15.1767H10.602C9.212 15.1767 8.422 16.1967 8.422 17.3167C8.422 18.0867 8.792 18.8767 9.612 19.3967L23.372 28.3867C23.832 28.6867 24.292 28.8367 24.822 28.8367C25.862 28.8367 26.682 28.1767 26.682 26.7767Z" />
        </svg>
    