
        <svg xmlns="http://www.w3.org/2000/svg" viewBox="0 0 100 100">
            <path d="M22.4317 9.227C22.4317 8.827 22.2617 8.427 21.9717 8.147L14.3017 0.477C13.9717 0.157 13.6217 -0.003 13.2517 -0.003C12.4117 -0.003 11.8117 0.597 11.8117 1.397C11.8117 1.817 11.9917 2.167 12.2617 2.437L14.8817 5.087L17.9617 7.907L15.3117 7.757H1.5017C0.6117 7.757 0.0017 8.357 0.0017 9.227C0.0017 10.087 0.6117 10.687 1.5017 10.687H15.3117L17.9717 10.537L14.8817 13.357L12.2617 16.007C11.9917 16.267 11.8117 16.617 11.8117 17.047C11.8117 17.837 12.4117 18.437 13.2517 18.437C13.6217 18.437 13.9717 18.297 14.2817 17.987L21.9717 10.297C22.2617 10.017 22.4317 9.617 22.4317 9.227Z" />
        </svg>
    