
        <svg xmlns="http://www.w3.org/2000/svg" viewBox="0 0 100 100">
            <path d="M11.4923 22.9836C17.8123 22.9836 22.9823 17.8136 22.9823 11.4836C22.9823 5.1536 17.8123 0.0036 11.4923 0.0036C5.1723 0.0036 0.0023 5.1536 0.0023 11.4836C0.0023 17.8136 5.1723 22.9836 11.4923 22.9836ZM5.2523 16.5936C4.9923 16.5936 4.7823 16.3936 4.7823 16.0536C4.7823 10.7036 7.4223 8.2936 11.6223 8.2936H11.9223V5.4136C11.9223 5.1236 12.0923 4.8836 12.4023 4.8836C12.6223 4.8836 12.7823 4.9936 12.9623 5.1536L18.2323 10.0536C18.5623 10.3636 18.6223 10.5436 18.6223 10.7436C18.6223 10.9336 18.5523 11.1236 18.2323 11.4236L12.9623 16.3336C12.7923 16.4836 12.6223 16.5936 12.4023 16.5936C12.0923 16.5936 11.9223 16.3636 11.9223 16.0736V13.2336H11.6223C8.5423 13.2336 6.7423 14.0736 5.7523 16.2036C5.6123 16.5036 5.4723 16.5936 5.2523 16.5936Z" />
        </svg>
    