
        <svg xmlns="http://www.w3.org/2000/svg" viewBox="0 0 100 100">
            <path d="M7.057 28.0222H17.937C20.277 28.0222 21.617 26.8822 21.717 24.5422L22.437 8.3622H23.237C24.257 8.3622 24.997 7.6922 24.997 6.6722C24.997 5.6722 24.257 4.9922 23.237 4.9922H18.637V3.3822C18.637 1.1722 17.297 0.0022 14.727 0.0022H10.267C7.697 0.0022 6.367 1.1722 6.367 3.3822V4.9922H1.757C0.737 4.9922 -0.003 5.6722 -0.003 6.6722C-0.003 7.6922 0.737 8.3622 1.757 8.3622H2.557L3.277 24.5422C3.387 26.8822 4.727 28.0222 7.057 28.0222ZM9.887 3.4522C9.887 3.1322 10.117 2.9422 10.537 2.9422H14.457C14.887 2.9422 15.107 3.1322 15.107 3.4522V4.9922H9.887ZM12.507 11.3222C12.917 11.3222 13.327 11.4622 13.737 11.8322L16.907 14.8822C17.157 15.1122 17.287 15.3722 17.287 15.7622C17.287 16.4622 16.657 16.9522 16.047 16.9522C15.657 16.9522 15.327 16.7822 15.097 16.5322L14.217 15.6122L13.867 14.7922L14.007 16.1922V20.1222C14.007 20.9222 13.347 21.6122 12.507 21.6122C11.667 21.6122 11.007 20.9222 11.007 20.1222V16.1922L11.147 14.7922L10.797 15.6122L9.917 16.5322C9.677 16.7822 9.347 16.9522 8.967 16.9522C8.357 16.9522 7.727 16.4622 7.727 15.7622C7.727 15.3722 7.847 15.1122 8.097 14.8822L11.277 11.8322C11.687 11.4622 12.097 11.3222 12.507 11.3222Z" />
        </svg>
    