
        <svg xmlns="http://www.w3.org/2000/svg" viewBox="0 0 100 100">
            <path d="M2.3017 6.215H28.1017C29.5117 6.215 30.3917 5.375 30.3917 3.875V2.345C30.3917 0.845 29.5117 -0.005 28.1017 -0.005H2.3017C0.9217 -0.005 0.0017 0.845 0.0017 2.345V3.875C0.0017 5.375 0.9017 6.215 2.3017 6.215ZM8.7517 22.855H21.6417C24.3917 22.855 25.5517 21.245 25.9817 18.525L27.6217 8.275H2.7817L4.4017 18.525C4.8417 21.255 6.0017 22.855 8.7517 22.855ZM16.7317 18.555C16.7317 19.405 16.0517 19.955 15.2017 19.955C14.3517 19.955 13.6617 19.405 13.6617 18.555V15.965L13.8117 14.305L13.1917 15.015L12.8017 15.445C12.5717 15.715 12.2117 15.925 11.8317 15.925C11.0717 15.925 10.5117 15.385 10.5117 14.675C10.5117 14.245 10.6417 13.965 10.9917 13.665L13.9417 11.005C14.3217 10.675 14.6917 10.455 15.2017 10.455C15.7017 10.455 16.0917 10.675 16.4617 11.005L19.4217 13.665C19.7717 13.965 19.8917 14.245 19.8917 14.675C19.8917 15.385 19.3217 15.925 18.5717 15.925C18.2117 15.925 17.8117 15.715 17.6117 15.445L17.2217 15.015L16.5917 14.305L16.7317 15.965Z" />
        </svg>
    