
        <svg xmlns="http://www.w3.org/2000/svg" viewBox="0 0 100 100">
            <path d="M3.1617 20.742H17.5917C19.6617 20.742 20.7417 19.642 20.7417 17.592V3.152C20.7417 1.102 19.6617 0.002 17.5917 0.002H3.1617C1.0917 0.002 0.0017 1.082 0.0017 3.152V17.592C0.0017 19.662 1.0917 20.742 3.1617 20.742ZM3.1917 19.872C1.6617 19.872 0.8717 19.082 0.8717 17.552V3.202C0.8717 1.662 1.6617 0.872 3.1917 0.872H17.5517C19.0317 0.872 19.8717 1.662 19.8717 3.202V17.552C19.8717 19.082 19.0317 19.872 17.5517 19.872ZM10.3817 3.762C10.2817 3.762 10.1717 3.812 10.0817 3.902L6.5717 7.402C6.4917 7.492 6.4317 7.582 6.4317 7.712C6.4317 7.942 6.6117 8.112 6.8317 8.112C6.9717 8.112 7.0617 8.052 7.1517 7.952L8.5317 6.572L10.0117 5.072L9.9517 6.832V13.862L10.0117 15.632L8.5317 14.132L7.1517 12.752C7.0617 12.652 6.9717 12.602 6.8317 12.602C6.6117 12.602 6.4317 12.762 6.4317 12.982C6.4317 13.122 6.4917 13.222 6.5717 13.302L10.0817 16.802C10.1717 16.902 10.2817 16.942 10.3817 16.942C10.4917 16.942 10.5917 16.902 10.6917 16.802L14.1917 13.302C14.2717 13.222 14.3317 13.122 14.3317 12.982C14.3317 12.762 14.1517 12.602 13.9317 12.602C13.8017 12.602 13.7117 12.652 13.6217 12.752L12.2317 14.132L10.7617 15.632L10.8117 13.862V6.832L10.7617 5.072L12.2317 6.572L13.6217 7.952C13.7117 8.052 13.8017 8.112 13.9317 8.112C14.1517 8.112 14.3317 7.942 14.3317 7.712C14.3317 7.582 14.2717 7.492 14.1917 7.402L10.6917 3.902C10.5917 3.812 10.4917 3.762 10.3817 3.762Z" />
        </svg>
    