
        <svg xmlns="http://www.w3.org/2000/svg" viewBox="0 0 100 100">
            <path d="M12.2223 24.4436C18.9723 24.4436 24.4423 18.9636 24.4423 12.2236C24.4423 5.4736 18.9723 0.0036 12.2223 0.0036C5.4823 0.0036 0.0023 5.4736 0.0023 12.2236C0.0023 18.9636 5.4823 24.4436 12.2223 24.4436ZM6.5723 8.0236L9.5823 5.0936C9.7623 4.9336 9.9823 4.8236 10.2023 4.8236C10.7123 4.8236 11.0723 5.1836 11.0723 5.6836C11.0723 5.9336 10.9923 6.1436 10.8123 6.3036L9.5723 7.5136L9.2323 7.8136L9.8423 7.8036H17.2723C17.7623 7.8036 18.1423 8.1836 18.1423 8.6836C18.1423 9.1736 17.7623 9.5536 17.2723 9.5536H9.8323L9.2223 9.5236L9.5723 9.8536L10.8123 11.0536C10.9923 11.2236 11.0723 11.4336 11.0723 11.6736C11.0723 12.1736 10.7123 12.5236 10.2023 12.5236C9.9923 12.5236 9.7623 12.4236 9.5823 12.2736L6.5723 9.3236C6.2123 8.9736 6.2123 8.3836 6.5723 8.0236ZM17.8623 16.4336L14.8523 19.3836C14.6623 19.5336 14.4423 19.6536 14.2123 19.6536C13.7223 19.6536 13.3623 19.2736 13.3623 18.7836C13.3623 18.5536 13.4523 18.3436 13.6123 18.1736L14.8723 16.9736L15.2123 16.6636L14.5923 16.6736H7.1623C6.6723 16.6736 6.2923 16.2936 6.2923 15.7936C6.2923 15.2936 6.6723 14.9136 7.1623 14.9136H14.6023L15.2123 14.9436L14.8723 14.6236L13.6023 13.4136C13.4423 13.2536 13.3623 13.0436 13.3623 12.8036C13.3623 12.3036 13.7123 11.9536 14.2123 11.9536C14.4523 11.9536 14.6823 12.0536 14.8523 12.2136L17.8623 15.1636C18.2123 15.5136 18.2323 16.0736 17.8623 16.4336Z" />
        </svg>
    