
        <svg xmlns="http://www.w3.org/2000/svg" viewBox="0 0 100 100">
            <path d="M4.5917 23.9105H25.1917C28.1017 23.9105 29.8017 22.2105 29.8017 19.3105V6.8905C29.8017 4.0005 28.1017 2.3005 25.1917 2.3005H22.6217C21.7217 2.3005 21.3517 2.2305 20.6217 1.6005L19.7417 0.8305C19.0217 0.2105 18.3417 0.0005 17.2017 0.0005H12.5817C11.4617 0.0005 10.7717 0.2105 10.0517 0.8305L9.1617 1.6005C8.4417 2.2305 8.0717 2.3005 7.1717 2.3005H4.5917C1.7017 2.3005 0.0017 4.0005 0.0017 6.8905V19.3105C0.0017 22.2105 1.7017 23.9105 4.5917 23.9105ZM5.2217 19.7505C4.5117 19.7505 4.1617 19.4405 4.1617 18.6705V7.5305C4.1617 6.7605 4.5117 6.4605 5.2217 6.4605H8.7317C9.7817 6.4605 10.2217 6.3205 10.8317 5.7105L11.6117 4.9205C12.2117 4.3205 12.6317 4.1605 13.6017 4.1605H16.1817C17.1717 4.1605 17.5817 4.3405 18.1317 4.8905L18.9717 5.7105C19.5817 6.3005 20.0117 6.4605 21.0617 6.4605H24.5617C25.2917 6.4605 25.6417 6.7605 25.6417 7.5305V18.6705C25.6417 19.4405 25.2917 19.7505 24.5617 19.7505ZM11.4017 9.1605C11.7317 9.7405 12.4217 10.0905 13.2117 9.6105C13.7817 9.2705 14.3317 9.1205 14.8917 9.1205C16.3317 9.1205 17.5117 9.9105 18.0017 11.1605H17.4017C16.7017 11.1605 16.4217 11.8905 16.8717 12.4605L18.6717 14.7705C19.0617 15.2805 19.7617 15.2705 20.1417 14.7705L21.9217 12.4605C22.3717 11.8705 22.0917 11.1605 21.3917 11.1605H20.6717C20.1217 8.5105 17.7817 6.5905 14.8917 6.5905C13.6717 6.5905 12.7017 6.8805 11.9417 7.3905C11.2017 7.8905 11.1017 8.6105 11.4017 9.1605ZM7.8717 12.4305C7.4217 13.0205 7.7017 13.7505 8.4117 13.7505H9.1317C9.6817 16.3905 12.0217 18.3205 14.9017 18.3205C16.1217 18.3205 17.1017 18.0105 17.8617 17.5105C18.6017 17.0205 18.7017 16.2805 18.3917 15.7305C18.0717 15.1505 17.3817 14.8005 16.5817 15.2905C16.0217 15.6305 15.4717 15.7805 14.9017 15.7805C13.4617 15.7805 12.2917 14.9805 11.8017 13.7505H12.3917C13.1017 13.7505 13.3717 13.0105 12.9117 12.4305L11.1217 10.1205C10.7217 9.6105 10.0317 9.6205 9.6417 10.1205Z" />
        </svg>
    