
        <svg xmlns="http://www.w3.org/2000/svg" viewBox="0 0 100 100">
            <path d="M11.3523 22.7064C17.6323 22.7064 22.7123 17.6264 22.7123 11.3564C22.7123 5.0764 17.6323 -0.0036 11.3523 -0.0036C5.0823 -0.0036 0.0023 5.0764 0.0023 11.3564C0.0023 17.6264 5.0823 22.7064 11.3523 22.7064ZM11.3523 22.1364C5.3923 22.1364 0.5723 17.3164 0.5723 11.3564C0.5723 5.3864 5.3923 0.5764 11.3523 0.5764C17.3223 0.5764 22.1323 5.3864 22.1323 11.3564C22.1323 17.3164 17.3223 22.1364 11.3523 22.1364ZM7.0123 6.1564H15.7023C15.8623 6.1564 15.9823 6.0364 15.9823 5.8864C15.9823 5.7064 15.8623 5.5864 15.7023 5.5864H7.0123C6.8423 5.5864 6.7223 5.7064 6.7223 5.8864C6.7223 6.0364 6.8423 6.1564 7.0123 6.1564ZM11.3523 17.5464C11.5323 17.5464 11.6523 17.4364 11.6523 17.2664V10.5164L11.6123 8.3164L13.6423 10.3564L15.3823 12.1164C15.4823 12.1964 15.5523 12.2464 15.6723 12.2464C15.8523 12.2464 15.9723 12.1264 15.9723 11.9764C15.9723 11.8264 15.8623 11.7264 15.7823 11.6464L11.5623 7.4864C11.5223 7.4164 11.4223 7.3864 11.3523 7.3864C11.2823 7.3864 11.1923 7.4164 11.1323 7.4864L6.8623 11.7064C6.8123 11.7664 6.7423 11.8464 6.7423 11.9564C6.7423 12.1264 6.8523 12.2464 7.0423 12.2464C7.1623 12.2464 7.2323 12.1964 7.3223 12.1164L8.8823 10.5264L11.1023 8.3164L11.0623 10.5164V17.2664C11.0623 17.4364 11.1823 17.5464 11.3523 17.5464Z" />
        </svg>
    