
        <svg xmlns="http://www.w3.org/2000/svg" viewBox="0 0 100 100">
            <path d="M12.6023 25.1986C19.5623 25.1986 25.2023 19.5586 25.2023 12.5986C25.2023 5.6386 19.5623 -0.0014 12.6023 -0.0014C5.6323 -0.0014 0.0023 5.6386 0.0023 12.5986C0.0023 19.5586 5.6323 25.1986 12.6023 25.1986ZM12.6023 21.5386C7.6523 21.5386 3.6523 17.5386 3.6523 12.5986C3.6523 7.6486 7.6523 3.6586 12.6023 3.6586C17.5423 3.6586 21.5423 7.6486 21.5423 12.5986C21.5423 17.5386 17.5423 21.5386 12.6023 21.5386ZM18.3823 12.5986C18.3823 12.1886 18.2423 11.7686 17.8623 11.3686L14.3223 7.6786C14.0623 7.4186 13.7923 7.2786 13.4023 7.2786C12.6823 7.2786 12.1723 7.9086 12.1723 8.5686C12.1723 8.9486 12.3423 9.2886 12.6023 9.5386L13.8623 10.7386L14.7523 11.2186L13.1123 11.0786H8.1023C7.3023 11.0786 6.6023 11.7286 6.6023 12.5986C6.6023 13.4386 7.3023 14.1086 8.1023 14.1086H13.1123L14.7523 13.9686L13.8623 14.4486L12.6023 15.6486C12.3423 15.8886 12.1723 16.2386 12.1723 16.6186C12.1723 17.2686 12.6823 17.9086 13.4023 17.9086C13.7923 17.9086 14.0623 17.7686 14.3223 17.5086L17.8623 13.8186C18.2423 13.4186 18.3823 12.9986 18.3823 12.5986Z" />
        </svg>
    