
        <svg xmlns="http://www.w3.org/2000/svg" viewBox="0 0 100 100">
            <path d="M12.7923 25.5978C19.8723 25.5978 25.6023 19.8678 25.6023 12.7978C25.6023 5.7278 19.8723 -0.0022 12.7923 -0.0022C5.7323 -0.0022 0.0023 5.7278 0.0023 12.7978C0.0023 19.8678 5.7323 25.5978 12.7923 25.5978ZM19.7423 13.8278C19.7423 14.4478 19.2523 14.9278 18.6423 14.9278L14.4823 14.8478C14.2123 14.8478 13.9323 14.7578 13.7323 14.5578C13.3023 14.1478 13.3023 13.5378 13.7423 13.0878C13.9423 12.8978 14.1923 12.7778 14.4623 12.7878L16.1123 12.8178L16.1523 12.8278L15.6423 12.3278L10.9823 7.6478C10.5623 7.2378 10.5623 6.5978 10.9823 6.1778C11.4023 5.7378 12.0423 5.7378 12.4523 6.1778L17.1423 10.8378L17.6223 11.3178L17.6123 11.2878L17.5923 9.6478C17.5923 9.3678 17.7023 9.1278 17.8923 8.9178C18.3323 8.5078 18.9423 8.5078 19.3623 8.9178C19.5623 9.1178 19.6723 9.4078 19.6723 9.6678ZM5.8323 11.7978C5.8123 11.1778 6.3123 10.7078 6.9423 10.7078L11.1023 10.7778C11.3623 10.7778 11.6523 10.8778 11.8623 11.0578C12.2823 11.4878 12.2723 12.1078 11.8223 12.5378C11.6323 12.7378 11.4023 12.8678 11.1223 12.8578L9.4523 12.8078H9.4223L9.9423 13.3078L14.6023 17.9778C15.0223 18.3978 15.0223 19.0278 14.6023 19.4678C14.1823 19.8878 13.5223 19.8878 13.1123 19.4678L8.4423 14.7878L7.9423 14.2978L7.9523 14.3278L7.9823 15.9878C7.9923 16.2678 7.8823 16.4978 7.6723 16.7078C7.2423 17.1178 6.6323 17.1178 6.2223 16.7078C6.0223 16.5278 5.9223 16.2178 5.9223 15.9578Z" />
        </svg>
    