
        <svg xmlns="http://www.w3.org/2000/svg" viewBox="0 0 100 100">
            <path d="M12.7923 25.5978C19.8723 25.5978 25.6023 19.8678 25.6023 12.7978C25.6023 5.7278 19.8723 -0.0022 12.7923 -0.0022C5.7323 -0.0022 0.0023 5.7278 0.0023 12.7978C0.0023 19.8678 5.7323 25.5978 12.7923 25.5978ZM18.0023 12.9378H14.4223C13.2523 12.9378 12.6423 12.2778 12.6423 11.1678V7.6078C12.6423 6.8778 13.2223 6.3278 13.9223 6.3278C14.6123 6.3278 15.1923 6.8778 15.1923 7.6078V7.8278L14.9523 8.7278L16.7123 6.7578C17.2523 6.1678 18.2323 6.1878 18.8323 6.7578C19.4223 7.3578 19.4523 8.3478 18.8323 8.8978L16.8723 10.6278L17.8023 10.4078H18.0023C18.7023 10.4078 19.2823 10.9578 19.2823 11.6578C19.2823 12.3778 18.7023 12.9378 18.0023 12.9378ZM11.6623 19.2678C10.9723 19.2678 10.3923 18.7078 10.3923 17.9878V17.7578L10.6323 16.8678L8.8723 18.8178C8.3323 19.4278 7.3523 19.4078 6.7523 18.8178C6.1623 18.2178 6.1323 17.2378 6.7523 16.6978L8.7023 14.9578L7.7823 15.1878H7.5823C6.8823 15.1878 6.3023 14.6278 6.3023 13.9178C6.3023 13.2178 6.8823 12.6478 7.5823 12.6478H11.1523C12.3323 12.6478 12.9423 13.2978 12.9423 14.4278V17.9878C12.9423 18.7078 12.3623 19.2678 11.6623 19.2678Z" />
        </svg>
    