
        <svg xmlns="http://www.w3.org/2000/svg" viewBox="0 0 100 100">
            <path d="M3.1617 20.742H24.0317C26.1117 20.742 27.1917 19.642 27.1917 17.592V3.152C27.1917 1.102 26.1117 0.002 24.0317 0.002H3.1617C1.0917 0.002 0.0017 1.082 0.0017 3.152V17.592C0.0017 19.662 1.0917 20.742 3.1617 20.742ZM15.0117 3.412C15.2417 3.412 15.4217 3.602 15.4217 3.842V6.072L15.3717 8.102L16.5517 6.872L20.6717 2.742C20.7517 2.662 20.8617 2.612 21.0117 2.612C21.2617 2.612 21.4217 2.782 21.4217 3.022C21.4217 3.162 21.3617 3.272 21.2817 3.352L17.1517 7.492L15.9217 8.662L17.5117 8.602H20.1917C20.4417 8.602 20.6217 8.792 20.6217 9.022C20.6217 9.262 20.4417 9.442 20.1917 9.442H15.0117C14.7617 9.442 14.5917 9.282 14.5917 9.002V3.842C14.5917 3.602 14.7617 3.412 15.0117 3.412ZM12.1917 17.332C11.9517 17.332 11.7617 17.142 11.7617 16.912V14.672L11.8117 12.652L10.6417 13.872L6.5317 18.002C6.4417 18.082 6.3417 18.142 6.1917 18.142C5.9317 18.142 5.7617 17.962 5.7617 17.722C5.7617 17.582 5.8217 17.472 5.9017 17.392L10.0417 13.252L11.2717 12.082L9.6817 12.142H6.9917C6.7517 12.142 6.5717 11.952 6.5717 11.722C6.5717 11.482 6.7517 11.312 6.9917 11.312H12.1717C12.4317 11.312 12.6017 11.462 12.6017 11.742V16.902C12.6017 17.142 12.4217 17.332 12.1917 17.332Z" />
        </svg>
    