
        <svg xmlns="http://www.w3.org/2000/svg" viewBox="0 0 100 100">
            <path d="M3.0117 20.5048H17.4917C19.4517 20.5048 20.5117 19.4248 20.5117 17.4948V3.0148C20.5117 1.0748 19.4517 0.0048 17.4917 0.0048H3.0117C1.0417 0.0048 0.0017 1.0448 0.0017 3.0148V17.4948C0.0017 19.4648 1.0417 20.5048 3.0117 20.5048ZM10.2517 15.9448C10.1817 15.9448 10.1117 15.9148 10.0517 15.8548L6.0617 11.8548C6.0117 11.8048 5.9717 11.7448 5.9717 11.6748C5.9717 11.5348 6.0917 11.4048 6.2317 11.4048C6.3017 11.4048 6.4017 11.4448 6.4617 11.5048L8.9217 13.9848L9.9817 15.0448L9.9717 13.4448V4.8548C9.9717 4.6848 10.1017 4.5548 10.2517 4.5548C10.4217 4.5548 10.5517 4.6848 10.5517 4.8548V13.4448L10.5317 15.0348L11.5917 13.9848L14.0517 11.5048C14.1117 11.4448 14.1917 11.4048 14.2617 11.4048C14.3917 11.4048 14.5217 11.5348 14.5217 11.6748C14.5217 11.7448 14.4917 11.8048 14.4417 11.8548L10.4517 15.8548C10.4017 15.9148 10.3217 15.9448 10.2517 15.9448Z" />
        </svg>
    