
        <svg xmlns="http://www.w3.org/2000/svg" viewBox="0 0 100 100">
            <path d="M11.9523 23.9041C18.5523 23.9041 23.9023 18.5541 23.9023 11.9541C23.9023 5.3541 18.5523 0.0041 11.9523 0.0041C5.3523 0.0041 0.0023 5.3541 0.0023 11.9541C0.0023 18.5541 5.3523 23.9041 11.9523 23.9041ZM11.9523 21.9141C6.4423 21.9141 1.9923 17.4641 1.9923 11.9541C1.9923 6.4441 6.4423 1.9941 11.9523 1.9941C17.4623 1.9941 21.9123 6.4441 21.9123 11.9541C21.9123 17.4641 17.4623 21.9141 11.9523 21.9141ZM7.8623 15.5641H16.0323C16.5923 15.5641 16.8423 14.9441 16.5123 14.3941L12.5823 7.7141C12.2823 7.2041 11.6023 7.2341 11.3223 7.7141L7.3723 14.3941C7.0623 14.8941 7.3023 15.5641 7.8623 15.5641Z" />
        </svg>
    