
        <svg xmlns="http://www.w3.org/2000/svg" viewBox="0 0 100 100">
            <path d="M3.6817 21.5722H17.8917C20.3517 21.5722 21.5717 20.3722 21.5717 17.9522V3.6322C21.5717 1.2222 20.3517 0.0022 17.8917 0.0022H3.6817C1.2317 0.0022 0.0017 1.2222 0.0017 3.6322V17.9522C0.0017 20.3722 1.2317 21.5722 3.6817 21.5722ZM3.7017 19.6922C2.5317 19.6922 1.8917 19.0622 1.8917 17.8522V3.7422C1.8917 2.5222 2.5317 1.8822 3.7017 1.8822H17.8717C19.0317 1.8822 19.6917 2.5222 19.6917 3.7422V17.8522C19.6917 19.0622 19.0317 19.6922 17.8717 19.6922ZM10.7817 14.5422C11.0017 14.5422 11.2017 14.4422 11.3717 14.2722L15.3417 10.2422C15.5317 10.0622 15.6017 9.8622 15.6017 9.6422C15.6017 9.2222 15.2817 8.8822 14.8517 8.8822C14.6417 8.8822 14.4217 8.9522 14.2717 9.1022L13.5317 9.8522L11.4417 12.2222L11.5617 10.0922V4.7122C11.5617 4.2522 11.2417 3.9222 10.7817 3.9222C10.3117 3.9222 9.9917 4.2522 9.9917 4.7122V10.0922L10.1217 12.2322L7.9917 9.8422L7.3217 9.1022C7.1717 8.9522 6.9917 8.8822 6.7617 8.8822C6.3017 8.8822 6.0017 9.2022 6.0017 9.6422C6.0017 9.8322 6.0917 10.0822 6.2317 10.2322L10.1917 14.2722C10.3617 14.4522 10.5717 14.5422 10.7817 14.5422ZM6.4017 17.0022H15.2017C15.6517 17.0022 15.9717 16.6722 15.9717 16.2222C15.9717 15.7722 15.6517 15.4422 15.2017 15.4422H6.4017C5.9417 15.4422 5.6217 15.7722 5.6217 16.2222C5.6217 16.6722 5.9417 17.0022 6.4017 17.0022Z" />
        </svg>
    