
        <svg xmlns="http://www.w3.org/2000/svg" viewBox="0 0 100 100">
            <path d="M4.6723 23.8606C5.9923 23.8606 9.0723 22.5506 11.1223 21.2106C11.3323 21.0706 11.4923 21.0206 11.6623 21.0306C11.9623 21.0606 12.2723 21.0806 12.5723 21.0806C20.5523 21.0806 26.1523 16.3406 26.1523 10.5306C26.1523 4.7206 20.3523 0.0006 13.0823 0.0006C5.8023 0.0006 0.0023 4.7206 0.0023 10.5306C0.0023 14.2606 2.2823 17.5506 5.9323 19.4606C6.1323 19.5706 6.1923 19.7506 6.0823 19.9306C5.5223 20.9106 4.5223 22.0406 4.0823 22.6006C3.6123 23.1806 3.8223 23.8606 4.6723 23.8606ZM13.0923 16.5806C12.9023 16.5806 12.7423 16.5206 12.5523 16.3406L8.5623 12.4406C8.4223 12.3006 8.3423 12.1506 8.3423 11.9506C8.3423 11.5806 8.6223 11.3006 9.0123 11.3006C9.1923 11.3006 9.4023 11.3806 9.5323 11.5306L11.5823 13.6506L12.4023 14.5106L12.3523 12.7606V5.3806C12.3523 4.9806 12.6823 4.6506 13.0923 4.6506C13.4923 4.6506 13.8323 4.9806 13.8323 5.3806V12.7606L13.7723 14.5006L14.5923 13.6506L16.6423 11.5306C16.7723 11.3806 16.9723 11.3006 17.1523 11.3006C17.5223 11.3006 17.8223 11.5806 17.8223 11.9506C17.8223 12.1506 17.7423 12.3006 17.6023 12.4406L13.6123 16.3406C13.4423 16.5206 13.2823 16.5806 13.0923 16.5806Z" />
        </svg>
    