
        <svg xmlns="http://www.w3.org/2000/svg" viewBox="0 0 100 100">
            <path d="M3.1617 20.742H17.5917C19.6617 20.742 20.7417 19.642 20.7417 17.592V3.152C20.7417 1.102 19.6617 0.002 17.5917 0.002H3.1617C1.0917 0.002 0.0017 1.082 0.0017 3.152V17.592C0.0017 19.662 1.0917 20.742 3.1617 20.742ZM3.1917 19.872C1.6617 19.872 0.8717 19.082 0.8717 17.552V3.202C0.8717 1.662 1.6617 0.872 3.1917 0.872H17.5517C19.0317 0.872 19.8717 1.662 19.8717 3.202V17.552C19.8717 19.082 19.0317 19.872 17.5517 19.872ZM15.1217 9.912C15.3417 9.912 15.5317 9.722 15.5317 9.502C15.5317 9.282 15.3417 9.092 15.1217 9.092L14.1017 9.102L12.1417 9.132L15.8717 5.472C16.0317 5.312 16.0317 5.042 15.8717 4.872C15.7017 4.702 15.4217 4.702 15.2417 4.872L11.5917 8.602L11.6417 6.492V5.612C11.6417 5.392 11.4517 5.202 11.2217 5.202C10.9917 5.202 10.8117 5.392 10.8117 5.612V9.472C10.8117 9.762 10.9917 9.912 11.2517 9.912ZM9.5417 15.502C9.7617 15.502 9.9517 15.312 9.9517 15.082V11.222C9.9517 10.942 9.7617 10.792 9.5017 10.792H5.6417C5.4117 10.792 5.2217 10.972 5.2217 11.202C5.2217 11.422 5.4117 11.612 5.6417 11.612L6.6517 11.602L8.6117 11.582L4.9017 15.222C4.7317 15.382 4.7217 15.652 4.9017 15.832C5.0617 16.012 5.3317 16.012 5.5117 15.822L9.1617 12.092L9.1317 14.212V15.082C9.1317 15.312 9.3117 15.502 9.5417 15.502Z" />
        </svg>
    