
        <svg xmlns="http://www.w3.org/2000/svg" viewBox="0 0 100 100">
            <path d="M3.9717 22.1034H18.1317C20.7317 22.1034 22.1017 20.7334 22.1017 18.1634V3.9234C22.1017 1.3634 20.7317 0.0034 18.1317 0.0034H3.9717C1.3817 0.0034 0.0017 1.3634 0.0017 3.9234V18.1634C0.0017 20.7334 1.3817 22.1034 3.9717 22.1034ZM17.2017 12.4534C17.2017 15.3434 15.2617 17.2334 12.3517 17.2334H10.6917C10.0217 17.2334 9.5617 16.8134 9.5617 16.2034C9.5617 15.5934 10.0117 15.1834 10.6717 15.1834H12.3517C14.0117 15.1834 15.1417 14.0934 15.1417 12.4534C15.1417 10.8934 14.0317 9.8534 12.3517 9.8534H8.8817L7.8317 9.7934L8.4217 10.2034L9.7617 11.4234C9.9617 11.6134 10.0817 11.8634 10.0817 12.1134C10.0817 12.6834 9.6317 13.1234 9.0917 13.1234C8.8117 13.1234 8.5617 13.0334 8.3917 12.8434L5.2117 9.6234C4.9817 9.3834 4.8917 9.1034 4.8917 8.8334C4.8917 8.5534 5.0017 8.2834 5.2117 8.0634L8.3817 4.8534C8.5817 4.6534 8.8017 4.5634 9.0817 4.5634C9.6217 4.5634 10.0617 5.0134 10.0617 5.5634C10.0617 5.8234 9.9617 6.0734 9.7617 6.2434L8.5917 7.3434L7.8117 7.9334L8.8817 7.8634H12.3517C15.2617 7.8634 17.2017 9.7034 17.2017 12.4534Z" />
        </svg>
    