
        <svg xmlns="http://www.w3.org/2000/svg" viewBox="0 0 100 100">
            <path d="M11.4923 22.9836C17.8123 22.9836 22.9823 17.8136 22.9823 11.4836C22.9823 5.1536 17.8123 0.0036 11.4923 0.0036C5.1723 0.0036 0.0023 5.1536 0.0023 11.4836C0.0023 17.8136 5.1723 22.9836 11.4923 22.9836ZM8.6923 16.5536C8.4723 16.5536 8.3123 16.4436 8.1523 16.2936L2.9023 11.4236C2.5823 11.1236 2.5323 10.9236 2.5323 10.7436C2.5323 10.5436 2.5823 10.3636 2.9023 10.0536L8.1523 5.1836C8.3223 5.0236 8.4723 4.9236 8.6923 4.9236C9.0023 4.9236 9.1923 5.1436 9.1923 5.4036V6.4736L5.7623 9.6336C5.3323 10.0336 5.1723 10.3836 5.1723 10.7436C5.1723 11.0936 5.3123 11.4236 5.7623 11.8436L9.1923 14.9836V16.0736C9.1923 16.3336 9.0023 16.5536 8.6923 16.5536ZM11.9423 16.5536C11.7323 16.5536 11.5523 16.4536 11.3923 16.2936L6.1523 11.4236C5.8223 11.1136 5.7923 10.9236 5.7923 10.7436C5.7923 10.5436 5.8223 10.3736 6.1523 10.0536L11.3923 5.1836C11.5623 5.0136 11.7223 4.9236 11.9423 4.9236C12.2423 4.9236 12.4323 5.1536 12.4323 5.4536V8.3236H12.7023C16.8823 8.3236 19.5023 10.7036 19.5023 16.0236C19.5023 16.3636 19.3123 16.5536 19.0523 16.5536C18.8423 16.5536 18.6523 16.4636 18.5423 16.1736C17.6523 14.0436 15.7723 13.2236 12.7023 13.2236H12.4323V16.0436C12.4323 16.3336 12.2423 16.5536 11.9423 16.5536Z" />
        </svg>
    