
        <svg xmlns="http://www.w3.org/2000/svg" viewBox="0 0 100 100">
            <path d="M0.0017 10.6298C0.0017 11.2498 0.2817 11.8798 0.7217 12.2998L9.1517 20.2898C9.8717 20.9398 10.5217 21.2598 11.3017 21.2598C12.4917 21.2598 13.4317 20.3298 13.4317 19.1498V15.9598H20.4117C22.6017 15.9598 24.0017 14.5798 24.0017 12.4298V8.7998C24.0017 6.6298 22.6217 5.2998 20.4117 5.2998H13.4317V2.1798C13.4317 0.9598 12.4817 -0.0002 11.2817 -0.0002C10.5217 -0.0002 9.9917 0.2598 9.1517 1.0398L0.7217 8.9298C0.2617 9.3798 0.0017 9.9998 0.0017 10.6298ZM51.0017 10.6398C51.0017 10.0098 50.7317 9.3898 50.2617 8.9398L41.8317 1.0698C40.9917 0.2798 40.4717 0.0098 39.7117 0.0098C38.5117 0.0098 37.5617 0.9698 37.5617 2.1898V5.3098H30.5717C28.3717 5.3098 26.9917 6.6398 26.9917 8.8098V12.4498C26.9917 14.5898 28.3817 15.9698 30.5717 15.9698H37.5617V19.1698C37.5617 20.3398 38.4917 21.2698 39.6917 21.2698C40.4717 21.2698 41.1317 20.9698 41.8317 20.2998L50.2617 12.3198C50.7217 11.8898 51.0017 11.2698 51.0017 10.6398ZM4.3017 10.8898C4.1117 10.7098 4.1117 10.5198 4.3017 10.3498L10.0917 4.7998C10.1817 4.7298 10.3117 4.7798 10.3117 4.8898V7.6098C10.3117 8.2598 10.7417 8.7098 11.4217 8.7098H20.2717C20.4717 8.7098 20.6017 8.8398 20.6017 9.0598V12.2098C20.6017 12.4198 20.4717 12.5498 20.2717 12.5498H11.4217C10.7417 12.5498 10.3117 12.9998 10.3117 13.6498V16.2898C10.3117 16.4098 10.1817 16.4398 10.0917 16.3698ZM30.7117 12.5598C30.5317 12.5598 30.3917 12.4298 30.3917 12.2198V9.0798C30.3917 8.8498 30.5317 8.7198 30.7117 8.7198H39.5717C40.2417 8.7198 40.6917 8.2698 40.6917 7.6198V4.9098C40.6917 4.7898 40.8117 4.7498 40.9017 4.8198L46.6917 10.3698C46.8717 10.5498 46.8717 10.7198 46.6917 10.8998L40.9017 16.3798C40.8117 16.4598 40.6917 16.4198 40.6917 16.2998V13.6598C40.6917 13.0098 40.2417 12.5598 39.5717 12.5598Z" />
        </svg>
    