
        <svg xmlns="http://www.w3.org/2000/svg" viewBox="0 0 100 100">
            <path d="M12.3723 24.7459C19.2023 24.7459 24.7523 19.2059 24.7523 12.3759C24.7523 5.5459 19.2023 -0.0041 12.3723 -0.0041C5.5423 -0.0041 0.0023 5.5459 0.0023 12.3759C0.0023 19.2059 5.5423 24.7459 12.3723 24.7459ZM12.3723 21.6659C7.2423 21.6659 3.0823 17.5059 3.0823 12.3759C3.0823 7.2259 7.2423 3.0859 12.3723 3.0859C17.5223 3.0859 21.6723 7.2259 21.6723 12.3759C21.6723 17.5059 17.5223 21.6659 12.3723 21.6659ZM13.6623 6.3659C10.8623 6.3659 9.0923 8.3459 9.0923 11.1459V14.5559L9.1523 15.5959L8.5523 14.7959L7.5023 13.6659C7.3223 13.4659 7.0823 13.3559 6.8223 13.3559C6.2823 13.3559 5.8223 13.8159 5.8223 14.3559C5.8223 14.6159 5.9223 14.8459 6.1123 15.0359L9.2923 18.1659C9.5023 18.3759 9.7623 18.4959 10.0523 18.4959C10.3223 18.4959 10.5923 18.3759 10.8023 18.1659L13.9923 15.0259C14.1823 14.8359 14.2723 14.5859 14.2723 14.3359C14.2723 13.8059 13.8323 13.3459 13.2823 13.3459C13.0323 13.3459 12.7723 13.4459 12.6023 13.6559L11.4823 14.9459L11.0023 15.5959L11.0723 14.5559V11.1459C11.0723 9.6059 12.0223 8.5059 13.6123 8.5059C15.2123 8.5059 16.2323 9.5859 16.2323 11.1359V12.8159C16.2323 13.4759 16.6123 13.9559 17.2623 13.9559C17.9223 13.9559 18.3123 13.4859 18.3123 12.8059V11.1359C18.3123 8.3459 16.5023 6.3659 13.6623 6.3659Z" />
        </svg>
    