
        <svg xmlns="http://www.w3.org/2000/svg" viewBox="0 0 100 100">
            <path d="M12.8017 13.1394C13.8117 13.1394 14.4917 12.4294 14.4917 11.3794V6.8994L14.3917 4.9094L16.7317 7.5094C17.0317 7.8594 17.4017 8.0494 17.9217 8.0494C18.8317 8.0494 19.5017 7.3994 19.5017 6.4494C19.5017 6.0094 19.3017 5.5794 18.9617 5.2494L14.0517 0.5294C13.7317 0.2094 13.2917 -0.0006 12.8017 -0.0006C12.3017 -0.0006 11.8617 0.2094 11.5417 0.5294L6.6317 5.2494C6.2917 5.5794 6.0917 6.0094 6.0917 6.4494C6.0917 7.3994 6.7717 8.0494 7.6917 8.0494C8.1917 8.0494 8.5617 7.8594 8.8617 7.5094L11.2017 4.9094L11.1017 6.8994V11.3794C11.1017 12.4294 11.7817 13.1394 12.8017 13.1394ZM0.0017 15.9094C0.0017 16.8294 0.7017 17.5394 1.6317 17.5394H23.9617C24.8917 17.5394 25.5917 16.8294 25.5917 15.9094C25.5917 14.9894 24.8917 14.2694 23.9617 14.2694H1.6317C0.7017 14.2694 0.0017 14.9894 0.0017 15.9094ZM12.8017 18.6794C11.7817 18.6794 11.1017 19.3794 11.1017 20.4394V24.9094L11.2017 26.9094L8.8617 24.3094C8.5617 23.9494 8.1917 23.7694 7.6917 23.7694C6.7717 23.7694 6.0917 24.4194 6.0917 25.3694C6.0917 25.8094 6.2917 26.2394 6.6317 26.5694L11.5417 31.2894C11.8617 31.6094 12.3017 31.8194 12.8017 31.8194C13.2917 31.8194 13.7317 31.6094 14.0517 31.2894L18.9617 26.5694C19.3017 26.2394 19.5017 25.8094 19.5017 25.3694C19.5017 24.4194 18.8317 23.7694 17.9217 23.7694C17.4017 23.7694 17.0317 23.9494 16.7317 24.3094L14.3917 26.9094L14.4917 24.9094V20.4394C14.4917 19.3794 13.8117 18.6794 12.8017 18.6794Z" />
        </svg>
    