
        <svg xmlns="http://www.w3.org/2000/svg" viewBox="0 0 100 100">
            <path d="M3.8417 21.8745H18.0317C20.5617 21.8745 21.8817 20.5745 21.8817 18.0745V3.8045C21.8817 1.3145 20.5617 0.0045 18.0317 0.0045H3.8417C1.3117 0.0045 0.0017 1.3045 0.0017 3.8045V18.0745C0.0017 20.5745 1.3117 21.8745 3.8417 21.8745ZM3.9817 19.5845C2.8917 19.5845 2.3017 19.0145 2.3017 17.8845V4.0045C2.3017 2.8745 2.8917 2.2945 3.9817 2.2945H17.8917C18.9717 2.2945 19.5817 2.8745 19.5817 4.0045V17.8845C19.5817 19.0145 18.9717 19.5845 17.8917 19.5845ZM10.9317 14.5045C11.1817 14.5045 11.4117 14.4045 11.5917 14.2245L15.4717 10.3345C15.6717 10.1345 15.7517 9.9145 15.7517 9.6845C15.7517 9.1945 15.4017 8.8245 14.9217 8.8245C14.6617 8.8245 14.4417 8.9145 14.2717 9.0945L13.5317 9.8345L11.6817 11.9345L11.8117 9.9345V5.0545C11.8117 4.5345 11.4517 4.1645 10.9317 4.1645C10.4017 4.1645 10.0417 4.5345 10.0417 5.0545V9.9345L10.1817 11.9445L8.3117 9.8345L7.6217 9.0945C7.4517 8.9045 7.2517 8.8245 6.9817 8.8245C6.4917 8.8245 6.1417 9.1745 6.1417 9.6945C6.1417 9.8945 6.2417 10.1645 6.4117 10.3245L10.2817 14.2245C10.4517 14.4145 10.6917 14.5045 10.9317 14.5045ZM6.6517 17.0745H15.2317C15.7217 17.0745 16.0917 16.6945 16.0917 16.1945C16.0917 15.7045 15.7217 15.3445 15.2317 15.3445H6.6517C6.1617 15.3445 5.8017 15.7045 5.8017 16.1945C5.8017 16.6945 6.1617 17.0745 6.6517 17.0745Z" />
        </svg>
    