
        <svg xmlns="http://www.w3.org/2000/svg" viewBox="0 0 100 100">
            <path d="M17.7494 -0.0016C17.1594 -0.0016 16.6194 0.2084 15.7994 0.6084L1.9494 7.3384C0.7294 7.9384 -0.0006 8.7984 -0.0006 9.9484C-0.0006 11.1084 0.7294 11.9684 1.9494 12.5584L15.7994 19.2884C16.6194 19.6884 17.1594 19.9084 17.7494 19.9084C19.0294 19.9084 20.2294 18.9284 20.2294 17.2184V2.6984C20.2294 0.9684 19.0294 -0.0016 17.7494 -0.0016ZM15.8994 5.4284C15.9594 5.4284 15.9894 5.4684 15.9894 5.5384V14.3684C15.9894 14.4484 15.9594 14.4884 15.8994 14.4884C15.8694 14.4884 15.8394 14.4684 15.7894 14.4484L6.0694 10.0584C6.0094 10.0184 5.9894 9.9984 5.9894 9.9484C5.9894 9.8984 6.0094 9.8784 6.0694 9.8584L15.7894 5.4684C15.8394 5.4384 15.8694 5.4284 15.8994 5.4284Z" />
        </svg>
    