
        <svg xmlns="http://www.w3.org/2000/svg" viewBox="0 0 100 100">
            <path d="M17.7094 -0.0044C17.2394 -0.0044 16.8594 0.1956 16.3694 0.4456L1.3094 7.7556C0.3194 8.2456 -0.0006 8.6956 -0.0006 9.3156C-0.0006 9.9356 0.3194 10.3956 1.3094 10.8856L16.3694 18.1856C16.8794 18.4356 17.2494 18.6356 17.7194 18.6356C18.5894 18.6356 19.1094 17.9756 19.1094 16.9556V1.6756C19.1094 0.6556 18.5694 -0.0044 17.7094 -0.0044ZM17.1094 2.2256C17.1794 2.2256 17.2294 2.2856 17.2294 2.3656L17.2394 16.2656C17.2394 16.3556 17.1894 16.4056 17.1194 16.4056C17.0694 16.4056 17.0294 16.3856 16.9794 16.3556L2.6294 9.4456C2.5694 9.4256 2.5194 9.3756 2.5194 9.3156C2.5194 9.2556 2.5694 9.2156 2.6294 9.1856L16.9694 2.2856C17.0194 2.2456 17.0594 2.2256 17.1094 2.2256Z" />
        </svg>
    