
        <svg xmlns="http://www.w3.org/2000/svg" viewBox="0 0 100 100">
            <path d="M3.8417 21.8628H23.9217C26.4517 21.8628 27.7617 20.5628 27.7617 18.0728V3.7928C27.7617 1.3028 26.4517 0.0028 23.9217 0.0028H3.8417C1.3117 0.0028 0.0017 1.2928 0.0017 3.7928V18.0728C0.0017 20.5628 1.3117 21.8628 3.8417 21.8628ZM7.1417 10.3328C6.6117 10.3328 6.2317 9.9228 6.2317 9.3728V4.7328C6.2317 3.9928 6.6717 3.6528 7.3217 3.6528H12.0017C12.5417 3.6528 12.9417 4.0328 12.9417 4.5628C12.9417 5.0928 12.5417 5.4728 11.9717 5.4728H10.5217L9.0917 5.3228L10.6417 6.7028L12.9817 9.0428C13.1717 9.2328 13.3017 9.4928 13.3017 9.7428C13.3017 10.3028 12.9017 10.6828 12.3517 10.6828C12.0617 10.6828 11.8217 10.5828 11.6217 10.3828L9.2917 8.0528L7.9117 6.5228L8.0517 8.0228V9.3828C8.0517 9.9528 7.6717 10.3328 7.1417 10.3328ZM20.6117 11.5328C21.1517 11.5328 21.5317 11.9428 21.5317 12.4928V17.1328C21.5317 17.8628 21.0917 18.2128 20.4417 18.2128H15.7617C15.2117 18.2128 14.8217 17.8328 14.8217 17.2928C14.8217 16.7728 15.2117 16.3928 15.7817 16.3928H17.2417L18.6717 16.5428L17.1117 15.1628L14.7617 12.8228C14.5917 12.6228 14.4617 12.3728 14.4617 12.1128C14.4617 11.5628 14.8617 11.1828 15.4017 11.1828C15.6917 11.1828 15.9217 11.2828 16.1417 11.4828L18.4717 13.8128L19.8517 15.3328L19.7117 13.8328V12.4828C19.7117 11.9228 20.0717 11.5328 20.6117 11.5328Z" />
        </svg>
    