
        <svg xmlns="http://www.w3.org/2000/svg" viewBox="0 0 100 100">
            <path d="M15.1217 21.5722C15.7817 21.5722 16.4217 21.5722 16.5917 21.5522C16.7717 21.5122 16.9017 21.4422 16.9017 21.2622C16.9017 21.0822 16.7717 20.9722 16.5917 20.9722C16.4617 20.9722 15.9517 21.0022 15.1517 21.0022C10.5717 21.0022 8.7217 18.8922 8.7217 14.4422V3.4922L8.6817 0.8522L11.1417 3.3422L16.4017 8.6022C16.4417 8.6322 16.5317 8.6722 16.6217 8.6722C16.7617 8.6722 16.8917 8.5522 16.8917 8.3822C16.8917 8.2922 16.8617 8.2422 16.8017 8.1822L8.6517 0.0822C8.5917 0.0222 8.5317 0.0022 8.4517 0.0022C8.3517 0.0022 8.3117 0.0222 8.2517 0.0822L0.0917 8.1822C0.0317 8.2422 0.0017 8.2922 0.0017 8.3822C0.0017 8.5522 0.1317 8.6722 0.2717 8.6722C0.3617 8.6722 0.4417 8.6322 0.4917 8.6022L5.7517 3.3422L8.2017 0.8522L8.1817 3.4922V14.4422C8.1817 19.2622 10.1717 21.5722 15.1217 21.5722Z" />
        </svg>
    