
        <svg xmlns="http://www.w3.org/2000/svg" viewBox="0 0 100 100">
            <path d="M4.5917 23.2425H23.7217C26.6117 23.2425 28.3117 21.5425 28.3117 18.6425V4.5925C28.3117 1.6825 26.6117 0.0025 23.7217 0.0025H4.5917C1.7017 0.0025 0.0017 1.6825 0.0017 4.5925V18.6425C0.0017 21.5425 1.7017 23.2425 4.5917 23.2425ZM12.9417 16.9325C12.1417 16.9325 11.6517 16.3525 11.6517 15.4725V14.4225L11.7917 13.4425L10.7917 14.6625L8.1017 17.3425C7.7217 17.7225 7.3517 17.8725 6.9217 17.8725C6.0717 17.8725 5.3717 17.2625 5.3717 16.3325C5.3717 15.9525 5.5417 15.5225 5.8517 15.2125L8.6017 12.4725L9.8217 11.4725L8.8817 11.6325H7.7417C6.8717 11.6325 6.2917 11.1525 6.2917 10.3625C6.2917 9.5725 6.8817 9.1025 7.7817 9.1025H12.3417C13.5017 9.1025 14.1917 9.7725 14.1917 10.9325V15.4925C14.1917 16.3625 13.7117 16.9325 12.9417 16.9325Z" />
        </svg>
    