
        <svg xmlns="http://www.w3.org/2000/svg" viewBox="0 0 100 100">
            <path d="M3.1617 20.742H17.5917C19.6617 20.742 20.7417 19.642 20.7417 17.592V3.152C20.7417 1.102 19.6617 0.002 17.5917 0.002H3.1617C1.0917 0.002 0.0017 1.082 0.0017 3.152V17.592C0.0017 19.662 1.0917 20.742 3.1617 20.742ZM3.1917 19.872C1.6617 19.872 0.8717 19.082 0.8717 17.552V3.202C0.8717 1.662 1.6617 0.872 3.1917 0.872H17.5517C19.0317 0.872 19.8717 1.662 19.8717 3.202V17.552C19.8717 19.082 19.0317 19.872 17.5517 19.872ZM5.0617 15.132C5.3017 15.132 5.4617 14.972 5.4617 14.742V6.022C5.4617 5.792 5.3017 5.632 5.0617 5.632C4.8317 5.632 4.6617 5.792 4.6617 6.022V14.742C4.6617 14.972 4.8317 15.132 5.0617 15.132ZM16.8717 10.382C16.8717 10.152 16.7117 9.982 16.4717 9.982H10.0417L7.8617 10.032L10.1017 7.842L11.4917 6.482C11.6017 6.382 11.6617 6.272 11.6617 6.132C11.6617 5.882 11.4817 5.722 11.2617 5.722C11.1317 5.722 11.0017 5.802 10.9317 5.882L6.7517 10.082C6.6517 10.162 6.6117 10.282 6.6117 10.382C6.6117 10.492 6.6517 10.602 6.7517 10.692L10.8917 14.832C10.9917 14.942 11.1117 15.042 11.2717 15.042C11.4917 15.042 11.6617 14.882 11.6617 14.632C11.6617 14.482 11.6017 14.382 11.4917 14.282L10.0617 12.882L7.8517 10.732L10.0417 10.792H16.4717C16.7117 10.792 16.8717 10.632 16.8717 10.382Z" />
        </svg>
    