
        <svg xmlns="http://www.w3.org/2000/svg" viewBox="0 0 100 100">
            <path d="M12.7923 25.5978C19.8723 25.5978 25.6023 19.8678 25.6023 12.7978C25.6023 5.7278 19.8723 -0.0022 12.7923 -0.0022C5.7323 -0.0022 0.0023 5.7278 0.0023 12.7978C0.0023 19.8678 5.7323 25.5978 12.7923 25.5978ZM12.7923 21.4178C8.0323 21.4178 4.1723 17.5678 4.1723 12.7978C4.1723 8.0278 8.0323 4.1678 12.7923 4.1678C17.5623 4.1678 21.4323 8.0278 21.4323 12.7978C21.4323 17.5678 17.5623 21.4178 12.7923 21.4178ZM12.7923 5.9978C12.5023 5.9978 12.1323 6.1478 11.9023 6.3878L7.6523 11.0178C7.2623 11.4178 7.1023 11.7578 7.1023 12.1878C7.1023 12.8678 7.6323 13.3978 8.3123 13.3978H9.8423V17.2278C9.8423 18.3478 10.5023 19.0178 11.6223 19.0178H13.9223C15.0323 19.0178 15.7123 18.3478 15.7123 17.2278V13.3978H17.2823C17.9623 13.3978 18.4923 12.8678 18.4923 12.1778C18.4923 11.7878 18.3523 11.4578 17.9423 11.0178L13.7023 6.3878C13.4523 6.1378 13.1223 5.9978 12.7923 5.9978Z" />
        </svg>
    