
        <svg xmlns="http://www.w3.org/2000/svg" viewBox="0 0 100 100">
            <path d="M3.3006 22.3523C3.8106 22.3523 4.0806 22.0623 4.0806 21.5523V13.5923C5.4406 15.9623 8.1106 17.8123 11.2206 18.7423C11.7406 18.9123 12.1406 18.6523 12.2706 18.2923C12.4106 17.9423 12.2906 17.5123 11.7806 17.3023C7.6006 15.8623 4.0806 12.7723 4.0806 8.6423V5.0023H5.9306C6.6106 5.0023 6.8006 4.5423 6.4206 3.9823L3.8706 0.3423C3.5406 -0.1177 3.0806 -0.1177 2.7506 0.3423L0.2006 3.9823C-0.1894 4.5423 0.0006 5.0023 0.6906 5.0023H2.5306V21.5523C2.5306 22.0623 2.8106 22.3523 3.3006 22.3523Z" />
        </svg>
    