
        <svg xmlns="http://www.w3.org/2000/svg" viewBox="0 0 100 100">
            <path d="M3.8248 18.8645H16.8648C19.3148 18.8645 20.6748 17.5145 20.6748 15.0745V3.7945C20.6748 1.3445 19.3348 0.0045 16.8848 0.0045H3.8248C1.3848 0.0045 0.0048 1.3445 0.0048 3.7945V15.0745C0.0048 17.5145 1.3548 18.8645 3.8248 18.8645ZM21.7248 12.8645L25.9248 16.2745C26.3448 16.6045 26.7148 16.8145 27.1648 16.8145C27.8748 16.8145 28.3548 16.3145 28.3548 15.4545V3.3945C28.3548 2.5545 27.8748 2.0345 27.1648 2.0345C26.7148 2.0345 26.3448 2.2545 25.9248 2.5945L21.7248 5.9745ZM6.1748 14.2145C5.9448 14.2145 5.7648 14.0545 5.7648 13.8045C5.7648 13.6845 5.8248 13.5845 5.9148 13.4745L11.7448 7.6445L13.6948 5.7645L10.4248 5.8945H7.3448C7.1048 5.8945 6.9248 5.7345 6.9248 5.4945C6.9248 5.2545 7.1148 5.0645 7.3448 5.0645H14.4648C14.7748 5.0645 14.9148 5.2045 14.9148 5.4945V12.5345C14.9148 12.7645 14.7548 12.9345 14.4948 12.9345C14.2648 12.9345 14.0948 12.7545 14.0948 12.5345V9.5545L14.2148 6.2845L12.3448 8.2245L6.5048 14.0745C6.4348 14.1445 6.3448 14.2145 6.1748 14.2145Z" />
        </svg>
    