
        <svg xmlns="http://www.w3.org/2000/svg" viewBox="0 0 100 100">
            <path d="M3.0117 20.5048H17.4917C19.4517 20.5048 20.5117 19.4248 20.5117 17.4948V3.0148C20.5117 1.0748 19.4517 0.0048 17.4917 0.0048H3.0117C1.0417 0.0048 0.0017 1.0448 0.0017 3.0148V17.4948C0.0017 19.4648 1.0417 20.5048 3.0117 20.5048ZM16.6417 10.2148C16.6417 10.2748 16.6217 10.3748 16.5617 10.4148L13.0117 13.9548C12.9517 14.0148 12.8917 14.0548 12.8017 14.0548C12.6317 14.0548 12.5417 13.9448 12.5417 13.7948C12.5417 13.6948 12.5717 13.6448 12.6517 13.5748L14.1717 12.0448L15.7017 10.4748L14.1417 10.5248H6.3517L4.8017 10.4748L6.3317 12.0448L7.8517 13.5748C7.9217 13.6448 7.9717 13.6948 7.9717 13.7948C7.9717 13.9448 7.8617 14.0548 7.7117 14.0548C7.6017 14.0548 7.5517 14.0148 7.4917 13.9548L3.9517 10.4148C3.8917 10.3748 3.8717 10.2748 3.8717 10.2148C3.8717 10.1648 3.8917 10.0748 3.9517 10.0148L7.4917 6.4948C7.5517 6.4348 7.6017 6.3848 7.7117 6.3848C7.8617 6.3848 7.9717 6.5048 7.9717 6.6448C7.9717 6.7548 7.9217 6.8048 7.8517 6.8748L6.3317 8.4048L4.8017 9.9648L6.3517 9.9148H14.1417L15.7017 9.9648L14.1717 8.4048L12.6517 6.8748C12.5717 6.8048 12.5417 6.7548 12.5417 6.6448C12.5417 6.5048 12.6317 6.3848 12.8017 6.3848C12.8917 6.3848 12.9517 6.4348 13.0117 6.4948L16.5617 10.0148C16.6217 10.0748 16.6417 10.1648 16.6417 10.2148Z" />
        </svg>
    