
        <svg xmlns="http://www.w3.org/2000/svg" viewBox="0 0 100 100">
            <path d="M0.0017 7.0755C0.0017 12.0655 4.1817 16.9755 10.7917 21.1955C11.0417 21.3555 11.4017 21.5155 11.6417 21.5155C11.8817 21.5155 12.2317 21.3555 12.4917 21.1955C19.1017 16.9755 23.2817 12.0655 23.2817 7.0755C23.2817 2.9255 20.4417 -0.0045 16.6317 -0.0045C14.4617 -0.0045 12.7017 1.0355 11.6417 2.6155C10.5917 1.0455 8.8217 -0.0045 6.6417 -0.0045C2.8517 -0.0045 0.0017 2.9255 0.0017 7.0755ZM1.8917 7.0755C1.8917 3.9655 3.9017 1.8855 6.6217 1.8855C8.8317 1.8855 10.0917 3.2555 10.8517 4.4255C11.1717 4.8955 11.3717 5.0255 11.6417 5.0255C11.9217 5.0255 12.0917 4.8855 12.4317 4.4255C13.2417 3.2855 14.4617 1.8855 16.6517 1.8855C19.3817 1.8855 21.4017 3.9655 21.4017 7.0755C21.4017 11.4355 16.7917 16.1355 11.8817 19.3955C11.7617 19.4755 11.6817 19.5355 11.6417 19.5355C11.6017 19.5355 11.5217 19.4755 11.4017 19.3955C6.4917 16.1355 1.8917 11.4355 1.8917 7.0755ZM12.4417 7.5155C12.4417 7.0355 12.0217 6.6355 11.5417 6.6355C11.0617 6.6355 10.6517 7.0355 10.6517 7.5155V11.7555L10.7217 13.6655L9.7217 12.6355L8.6917 11.5855C8.5417 11.4155 8.3017 11.3155 8.0717 11.3155C7.5917 11.3155 7.2517 11.6555 7.2517 12.1255C7.2517 12.3955 7.3617 12.5955 7.5517 12.7655L10.8917 15.8355C11.1317 16.0655 11.3217 16.1355 11.5417 16.1355C11.7617 16.1355 11.9517 16.0655 12.2017 15.8355L15.5417 12.7655C15.7217 12.5955 15.8317 12.3955 15.8317 12.1255C15.8317 11.6555 15.4817 11.3155 15.0117 11.3155C14.7817 11.3155 14.5517 11.4155 14.3917 11.5855L13.3617 12.6355L12.3617 13.6655L12.4417 11.7555Z" />
        </svg>
    