
        <svg xmlns="http://www.w3.org/2000/svg" viewBox="0 0 100 100">
            <path d="M11.8317 21.917C12.1417 21.917 12.5717 21.707 12.9217 21.467C19.4717 17.247 23.6817 12.307 23.6817 7.297C23.6817 2.997 20.7117 -0.003 16.9717 -0.003C14.6417 -0.003 12.8917 1.287 11.8317 3.207C10.8017 1.287 9.0517 -0.003 6.7117 -0.003C2.9717 -0.003 0.0017 2.997 0.0017 7.297C0.0017 12.307 4.2117 17.247 10.7617 21.467C11.1117 21.707 11.5417 21.917 11.8317 21.917ZM7.5317 11.697C7.5317 9.707 9.0217 7.997 10.9017 7.667V6.727C10.9017 6.237 11.4117 6.047 11.7917 6.367L13.7417 8.017C14.1017 8.307 14.0817 8.727 13.7417 9.037L11.7917 10.707C11.4217 11.027 10.9017 10.837 10.9017 10.347V9.277C9.8517 9.607 9.1017 10.577 9.1017 11.707C9.1017 13.137 10.2517 14.287 11.6817 14.287C13.1117 14.287 14.2617 13.137 14.2617 11.707C14.2617 11.277 14.6217 10.917 15.0517 10.917C15.4717 10.917 15.8317 11.277 15.8317 11.707C15.8317 14.017 13.9817 15.877 11.6817 15.877C9.3917 15.877 7.5317 14.017 7.5317 11.697Z" />
        </svg>
    