
        <svg xmlns="http://www.w3.org/2000/svg" viewBox="0 0 100 100">
            <path d="M11.3523 22.7064C17.6323 22.7064 22.7123 17.6264 22.7123 11.3564C22.7123 5.0764 17.6323 -0.0036 11.3523 -0.0036C5.0823 -0.0036 0.0023 5.0764 0.0023 11.3564C0.0023 17.6264 5.0823 22.7064 11.3523 22.7064ZM11.3523 22.1364C5.3923 22.1364 0.5723 17.3164 0.5723 11.3564C0.5723 5.3864 5.3923 0.5764 11.3523 0.5764C17.3223 0.5764 22.1323 5.3864 22.1323 11.3564C22.1323 17.3164 17.3223 22.1364 11.3523 22.1364ZM11.3523 4.9364C11.2923 4.9364 11.2123 4.9664 11.1523 5.0264L7.6323 8.5664C7.5723 8.6264 7.5223 8.6864 7.5223 8.7864C7.5223 8.9364 7.6423 9.0464 7.7823 9.0464C7.8823 9.0464 7.9323 8.9964 8.0123 8.9264L9.5423 7.4064L11.1023 5.8864L11.0523 7.4264V15.2364L11.1023 16.7764L9.5423 15.2564L8.0123 13.7364C7.9323 13.6664 7.8823 13.6164 7.7823 13.6164C7.6423 13.6164 7.5223 13.7064 7.5223 13.8764C7.5223 13.9764 7.5723 14.0264 7.6323 14.0864L11.1523 17.6364C11.2123 17.6964 11.2923 17.7164 11.3523 17.7164C11.4123 17.7164 11.4923 17.6964 11.5523 17.6364L15.0923 14.0864C15.1523 14.0264 15.1923 13.9764 15.1923 13.8764C15.1923 13.7064 15.0823 13.6164 14.9323 13.6164C14.8323 13.6164 14.7823 13.6664 14.7023 13.7364L13.1823 15.2564L11.6123 16.7764L11.6623 15.2364V7.4264L11.6123 5.8864L13.1823 7.4064L14.7023 8.9264C14.7823 8.9964 14.8323 9.0464 14.9323 9.0464C15.0823 9.0464 15.1923 8.9364 15.1923 8.7864C15.1923 8.6864 15.1523 8.6264 15.0923 8.5664L11.5523 5.0264C11.4923 4.9664 11.4123 4.9364 11.3523 4.9364Z" />
        </svg>
    