
        <svg xmlns="http://www.w3.org/2000/svg" viewBox="0 0 100 100">
            <path d="M21.9617 14.2023C21.9617 9.9023 19.0117 6.9723 14.0617 6.9723H5.0417L2.3717 7.0623L4.7017 4.9823L8.4017 1.3223C8.5317 1.1923 8.6117 1.0123 8.6117 0.7823C8.6117 0.3323 8.3017 0.0023 7.8317 0.0023C7.6317 0.0023 7.4017 0.0923 7.2517 0.2423L0.2617 7.1723C0.0817 7.3523 0.0017 7.5423 0.0017 7.7623C0.0017 7.9823 0.0817 8.1823 0.2617 8.3523L7.2517 15.2823C7.4017 15.4323 7.6317 15.5223 7.8317 15.5223C8.3017 15.5223 8.6117 15.2023 8.6117 14.7423C8.6117 14.5223 8.5317 14.3323 8.4017 14.2023L4.7017 10.5423L2.3717 8.4623L5.0417 8.5523H14.1717C18.1217 8.5523 20.3817 10.8123 20.3817 14.1223C20.3817 17.4223 18.1217 19.7923 14.1717 19.7923H10.9617C10.4717 19.7923 10.1617 20.1423 10.1617 20.5823C10.1617 21.0123 10.4717 21.3623 10.9617 21.3623H14.1917C19.0617 21.3623 21.9617 18.5023 21.9617 14.2023Z" />
        </svg>
    