
        <svg xmlns="http://www.w3.org/2000/svg" viewBox="0 0 100 100">
            <path d="M23.3917 15.0686C23.3917 9.8786 19.8917 6.2886 14.6517 6.2886H8.8117L6.2317 6.4086L7.7617 5.1786L9.6017 3.3986C9.9717 3.0186 10.2617 2.5786 10.2617 1.9286C10.2617 0.8286 9.4717 -0.0014 8.3017 -0.0014C7.7617 -0.0014 7.2417 0.2386 6.8317 0.6286L0.5817 6.8286C0.2217 7.1986 0.0017 7.7786 0.0017 8.3286C0.0017 8.8786 0.2217 9.4786 0.5817 9.8486L6.8317 16.0286C7.2417 16.4286 7.7617 16.6686 8.3017 16.6686C9.4717 16.6686 10.2617 15.8186 10.2617 14.7286C10.2617 14.0886 9.9717 13.6386 9.6017 13.2686L7.7617 11.4886L6.2317 10.2686L8.8117 10.3786H14.3817C17.4417 10.3786 19.4017 12.3186 19.4017 15.0386C19.4017 17.7586 17.4417 19.6486 14.3817 19.6486H11.5517C10.3817 19.6486 9.4817 20.5686 9.4817 21.6886C9.4817 22.8286 10.3817 23.7386 11.5517 23.7386H14.7117C19.9117 23.7386 23.3917 20.3786 23.3917 15.0686Z" />
        </svg>
    