
        <svg xmlns="http://www.w3.org/2000/svg" viewBox="0 0 100 100">
            <path d="M12.7923 25.5978C19.8723 25.5978 25.6023 19.8678 25.6023 12.7978C25.6023 5.7278 19.8723 -0.0022 12.7923 -0.0022C5.7323 -0.0022 0.0023 5.7278 0.0023 12.7978C0.0023 19.8678 5.7323 25.5978 12.7923 25.5978ZM12.7923 21.4178C8.0323 21.4178 4.1723 17.5678 4.1723 12.7978C4.1723 8.0278 8.0323 4.1678 12.7923 4.1678C17.5623 4.1678 21.4323 8.0278 21.4323 12.7978C21.4323 17.5678 17.5623 21.4178 12.7923 21.4178ZM8.3223 17.7778C8.8523 17.7778 9.1923 17.5278 9.5323 16.9178C10.0223 16.0478 10.8023 15.2178 12.3823 15.2178H12.4323V16.7178C12.4323 17.3878 12.9423 17.9178 13.6123 17.9178C14.0523 17.9178 14.3623 17.7578 14.7923 17.3678L19.3623 13.1678C19.6023 12.9478 19.7423 12.5778 19.7423 12.2778C19.7423 11.9678 19.5923 11.6278 19.3623 11.3978L14.7923 7.1978C14.3423 6.7978 14.0323 6.6478 13.6123 6.6478C12.9423 6.6478 12.4323 7.1678 12.4323 7.8378V9.3978H12.3823C9.0923 9.3978 7.1223 11.5478 7.1223 15.3678C7.1223 16.9778 7.5323 17.7778 8.3223 17.7778Z" />
        </svg>
    