
        <svg xmlns="http://www.w3.org/2000/svg" viewBox="0 0 100 100">
            <path d="M3.6817 21.5722H17.8917C20.3517 21.5722 21.5717 20.3722 21.5717 17.9522V3.6322C21.5717 1.2222 20.3517 0.0022 17.8917 0.0022H3.6817C1.2317 0.0022 0.0017 1.2222 0.0017 3.6322V17.9522C0.0017 20.3722 1.2317 21.5722 3.6817 21.5722ZM15.1317 16.4422C14.8117 16.7622 14.2617 16.7622 13.9617 16.4422L10.9917 13.4222C10.8417 13.2422 10.7617 13.0322 10.7617 12.8422C10.7617 12.3822 11.0617 12.0722 11.5217 12.0722C11.7417 12.0722 11.9317 12.1422 12.0817 12.3022L13.3217 13.5722L13.7717 14.0722L13.7417 13.5122V5.6722C13.7417 5.2222 14.0817 4.9022 14.5417 4.9022C14.9917 4.9022 15.3317 5.2222 15.3317 5.6722V13.5022L15.3017 14.0622L15.7617 13.5722L17.0017 12.3022C17.1417 12.1622 17.3417 12.0722 17.5517 12.0722C18.0217 12.0722 18.3417 12.3822 18.3417 12.8422C18.3417 13.0422 18.2217 13.2522 18.0817 13.4222ZM6.4717 5.1422C6.8117 4.8022 7.3117 4.8322 7.6317 5.1422L10.5917 8.1822C10.7317 8.3222 10.8417 8.5422 10.8417 8.7422C10.8417 9.2022 10.5117 9.5322 10.0617 9.5322C9.8517 9.5322 9.6517 9.4422 9.5117 9.3022L8.2717 8.0022L7.8117 7.5122L7.8517 8.0822V15.9122C7.8517 16.3522 7.5117 16.6722 7.0417 16.6722C6.6017 16.6722 6.2717 16.3522 6.2717 15.9122V8.1022L6.2817 7.5122L5.8217 8.0022L4.5817 9.2822C4.4417 9.4322 4.2417 9.5322 4.0417 9.5322C3.5817 9.5322 3.2417 9.1922 3.2417 8.7422C3.2417 8.5622 3.3617 8.3422 3.4917 8.1822Z" />
        </svg>
    