
        <svg xmlns="http://www.w3.org/2000/svg" viewBox="0 0 100 100">
            <path d="M3.6317 25.1234H16.0817C18.5017 25.1234 19.7117 23.8934 19.7117 21.4534V10.8134C19.7117 9.3034 19.5317 8.6434 18.6017 7.6834L12.1417 1.1134C11.2517 0.2034 10.5117 0.0034 9.2017 0.0034H3.6317C1.2217 0.0034 0.0017 1.2434 0.0017 3.6834V21.4534C0.0017 23.9034 1.2117 25.1234 3.6317 25.1234ZM3.7117 23.2334C2.5117 23.2334 1.8917 22.5934 1.8917 21.4234V3.7134C1.8917 2.5534 2.5117 1.8834 3.7217 1.8834H8.9417V8.6934C8.9417 10.1734 9.6817 10.8934 11.1417 10.8934H17.8217V21.4234C17.8217 22.5934 17.2017 23.2334 15.9817 23.2334ZM11.3517 9.1334C10.8917 9.1334 10.7117 8.9434 10.7117 8.4734V2.2534L17.4617 9.1334ZM10.7417 20.8834V16.6334L10.6717 14.7234L11.6717 15.7534L12.7217 16.8234C12.8917 17.0034 13.1217 17.0934 13.3617 17.0934C13.8317 17.0934 14.1817 16.7534 14.1817 16.2934C14.1817 16.0234 14.0717 15.8234 13.8917 15.6534L10.5117 12.5534C10.2617 12.3234 10.0817 12.2434 9.8517 12.2434C9.6317 12.2434 9.4417 12.3234 9.2017 12.5534L5.8217 15.6534C5.6417 15.8234 5.5317 16.0234 5.5317 16.2934C5.5317 16.7534 5.8717 17.0934 6.3517 17.0934C6.5717 17.0934 6.8217 17.0034 6.9817 16.8234L8.0417 15.7534L9.0317 14.7234L8.9617 16.6334V20.8834C8.9617 21.3634 9.3717 21.7534 9.8517 21.7534C10.3317 21.7534 10.7417 21.3634 10.7417 20.8834Z" />
        </svg>
    