
        <svg xmlns="http://www.w3.org/2000/svg" viewBox="0 0 100 100">
            <path d="M11.7523 23.5031C18.2323 23.5031 23.5123 18.2331 23.5123 11.7531C23.5123 5.2731 18.2323 0.0031 11.7523 0.0031C5.2723 0.0031 0.0023 5.2731 0.0023 11.7531C0.0023 18.2331 5.2723 23.5031 11.7523 23.5031ZM7.2823 6.8531C6.9123 6.8531 6.6523 6.5831 6.6523 6.2231C6.6523 5.8431 6.9123 5.5731 7.2823 5.5731H16.2323C16.5923 5.5731 16.8523 5.8431 16.8523 6.2231C16.8523 6.5831 16.5923 6.8531 16.2323 6.8531ZM11.7423 18.5631C11.3523 18.5631 11.1023 18.3031 11.1023 17.9331V11.9931L11.2023 9.7731L9.0023 12.1631L8.0323 13.1931C7.9023 13.3331 7.7423 13.3931 7.5323 13.3931C7.1723 13.3931 6.9123 13.1331 6.9123 12.7631C6.9123 12.6131 7.0123 12.4031 7.1223 12.2831L11.2623 8.0931C11.4023 7.9431 11.5623 7.8731 11.7423 7.8731C11.9223 7.8731 12.0923 7.9531 12.2223 8.0931L16.3523 12.2531C16.5123 12.4131 16.5923 12.5731 16.5923 12.7731C16.5923 13.1231 16.3523 13.3931 15.9723 13.3931C15.7823 13.3931 15.6123 13.3331 15.4823 13.1931L14.4523 12.1431L12.2823 9.7831L12.3723 11.9931V17.9331C12.3723 18.3031 12.1123 18.5631 11.7423 18.5631Z" />
        </svg>
    