
        <svg xmlns="http://www.w3.org/2000/svg" viewBox="0 0 100 100">
            <path d="M12.2223 24.4436C18.9723 24.4436 24.4423 18.9636 24.4423 12.2236C24.4423 5.4736 18.9723 0.0036 12.2223 0.0036C5.4823 0.0036 0.0023 5.4736 0.0023 12.2236C0.0023 18.9636 5.4823 24.4436 12.2223 24.4436ZM5.2623 13.2536L5.3223 9.0436C5.3223 8.8236 5.4123 8.5636 5.5823 8.4136C5.9323 8.0636 6.4323 8.0636 6.7823 8.4136C6.9623 8.5736 7.0523 8.7936 7.0423 9.0236L7.0223 10.7736L7.0123 11.2236L7.4023 10.7836L12.6723 5.5336C13.0223 5.1836 13.5623 5.1836 13.9023 5.5336C14.2623 5.8836 14.2523 6.4136 13.9023 6.7636L8.6523 12.0236L8.2023 12.4436L8.6723 12.4236L10.4223 12.3936C10.6423 12.3836 10.8523 12.4836 11.0323 12.6536C11.3823 13.0036 11.3823 13.5136 11.0123 13.8536C10.8623 14.0136 10.6323 14.1136 10.3923 14.1236L6.1723 14.1636C5.6823 14.1836 5.2623 13.7536 5.2623 13.2536ZM19.1923 11.2136L19.1323 15.4336C19.1223 15.6636 19.0423 15.9136 18.8923 16.0636C18.5323 16.4136 18.0223 16.4136 17.6723 16.0636C17.4923 15.8936 17.4123 15.6936 17.4123 15.4436L17.4523 13.7036L17.4723 13.2436L17.0523 13.6836L11.7923 18.9336C11.4423 19.3036 10.9123 19.2936 10.5623 18.9336C10.2023 18.5736 10.2023 18.0536 10.5623 17.7236L15.8123 12.4536L16.2623 12.0336L15.7923 12.0436L14.0423 12.0836C13.8123 12.0936 13.6023 12.0036 13.4423 11.8236C13.0823 11.4736 13.0823 10.9736 13.4423 10.6136C13.6023 10.4536 13.8523 10.3636 14.0623 10.3636L18.2823 10.3136C18.7823 10.3136 19.1923 10.7036 19.1923 11.2136Z" />
        </svg>
    