
        <svg xmlns="http://www.w3.org/2000/svg" viewBox="0 0 100 100">
            <path d="M3.1617 20.742H17.5917C19.6617 20.742 20.7417 19.642 20.7417 17.592V3.152C20.7417 1.102 19.6617 0.002 17.5917 0.002H3.1617C1.0917 0.002 0.0017 1.082 0.0017 3.152V17.592C0.0017 19.662 1.0917 20.742 3.1617 20.742ZM10.3717 14.482C10.2617 14.482 10.1717 14.442 10.0617 14.342L5.8517 10.132C5.7617 10.052 5.6817 9.922 5.6817 9.812C5.6817 9.562 5.8517 9.402 6.1017 9.402C6.2417 9.402 6.3617 9.452 6.4417 9.562L7.8017 10.952L10.0217 13.222L9.9617 11.012V4.562C9.9617 4.312 10.1217 4.152 10.3717 4.152C10.6217 4.152 10.7817 4.312 10.7817 4.562V11.012L10.7317 13.222L12.8917 10.992L14.3117 9.562C14.4017 9.452 14.5217 9.402 14.6617 9.402C14.9017 9.402 15.0717 9.572 15.0717 9.792C15.0717 9.962 14.9717 10.082 14.8617 10.182L10.6717 14.342C10.5817 14.442 10.4917 14.482 10.3717 14.482ZM5.9917 16.452C5.7517 16.452 5.5917 16.282 5.5917 16.042C5.5917 15.812 5.7517 15.642 5.9917 15.642H14.7617C15.0017 15.642 15.1617 15.812 15.1617 16.042C15.1617 16.282 15.0017 16.452 14.7617 16.452Z" />
        </svg>
    