
        <svg xmlns="http://www.w3.org/2000/svg" viewBox="0 0 100 100">
            <path d="M3.9717 22.1H23.8817C26.4717 22.1 27.8517 20.73 27.8517 18.16V3.94C27.8517 1.37 26.4717 0 23.8817 0H3.9717C1.3817 0 0.0017 1.36 0.0017 3.94V18.16C0.0017 20.74 1.3817 22.1 3.9717 22.1ZM4.1917 19.49C3.1617 19.49 2.6117 18.97 2.6117 17.89V4.21C2.6117 3.13 3.1617 2.61 4.1917 2.61H23.6617C24.6817 2.61 25.2417 3.13 25.2417 4.21V17.89C25.2417 18.97 24.6817 19.49 23.6617 19.49ZM11.6217 16.83C12.2017 16.83 12.5717 16.39 12.5717 15.76V10.76C12.5717 9.95 12.1217 9.56 11.3717 9.56H6.3417C5.6917 9.56 5.2817 9.94 5.2817 10.51C5.2817 11.1 5.7117 11.47 6.3417 11.47H8.0317L9.4817 11.3L7.8717 12.75L4.6517 15.98C4.4517 16.18 4.3117 16.46 4.3117 16.73C4.3117 17.37 4.7617 17.79 5.3717 17.79C5.6817 17.79 5.9417 17.67 6.1617 17.45L9.3717 14.24L10.8117 12.66L10.6517 14.19V15.77C10.6517 16.41 11.0317 16.83 11.6217 16.83Z" />
        </svg>
    