
        <svg xmlns="http://www.w3.org/2000/svg" viewBox="0 0 100 100">
            <path d="M0.2817 16.8831C0.4417 16.8831 0.5717 16.7531 0.5717 16.5931V8.5631C0.5817 8.5931 0.6017 8.6131 0.6217 8.6331L8.7217 16.7931C8.7817 16.8531 8.8317 16.8831 8.9217 16.8831C9.0917 16.8831 9.2117 16.7531 9.2117 16.6131C9.2117 16.5231 9.1717 16.4431 9.1417 16.3931L3.8517 11.1131L1.3917 8.6831L3.8817 8.7031H21.8817C22.0217 8.7031 22.1517 8.6031 22.1517 8.4331C22.1517 8.2831 22.0217 8.1631 21.8817 8.1631H3.8817L1.3917 8.1931L3.8517 5.7631L9.1417 0.4831C9.1717 0.4431 9.2117 0.3531 9.2117 0.2731C9.2117 0.1331 9.0917 0.0031 8.9217 0.0031C8.8317 0.0031 8.7817 0.0231 8.7217 0.0831L0.6217 8.2431C0.6017 8.2631 0.5817 8.2831 0.5717 8.3231V0.2831C0.5717 0.1331 0.4417 0.0031 0.2817 0.0031C0.1317 0.0031 0.0017 0.1331 0.0017 0.2831V16.5931C0.0017 16.7531 0.1317 16.8831 0.2817 16.8831Z" />
        </svg>
    