
        <svg xmlns="http://www.w3.org/2000/svg" viewBox="0 0 100 100">
            <path d="M0.6869 9.5948C0.0069 9.5948 -0.1931 10.0648 0.2069 10.6148L2.7569 14.2648C3.0869 14.7148 3.5469 14.7148 3.8569 14.2648L6.4169 10.6148C6.7969 10.0648 6.6069 9.5948 5.9369 9.5948H3.9969C4.9869 4.9848 9.0869 1.5148 14.0069 1.5148C19.6669 1.5148 24.2369 6.0948 24.2369 11.7548C24.2369 17.4148 19.6669 21.9848 14.0069 21.9848C10.4569 21.9848 7.2869 20.1548 5.5169 17.4148C5.2469 17.0548 4.8069 16.9348 4.4369 17.1548C4.0869 17.3648 3.9769 17.8748 4.2669 18.2648C6.3469 21.4248 9.9569 23.5048 14.0069 23.5048C20.4969 23.5048 25.7669 18.2448 25.7669 11.7548C25.7669 5.2648 20.4969 0.0048 14.0069 0.0048C8.2569 0.0048 3.4569 4.1348 2.4469 9.5948Z" />
        </svg>
    