
        <svg xmlns="http://www.w3.org/2000/svg" viewBox="0 0 100 100">
            <path d="M12.6023 25.1969C19.5623 25.1969 25.2023 19.5569 25.2023 12.5969C25.2023 5.6369 19.5623 -0.0031 12.6023 -0.0031C5.6523 -0.0031 0.0023 5.6369 0.0023 12.5969C0.0023 19.5569 5.6523 25.1969 12.6023 25.1969ZM12.6023 15.7969C12.2223 15.7969 11.8823 15.6469 11.6523 15.4069L7.8523 11.7769C7.5823 11.5269 7.4423 11.1869 7.4423 10.8869C7.4423 10.1369 7.9723 9.6169 8.6623 9.6169C9.0623 9.6169 9.3323 9.7969 9.5723 10.0469L10.3523 10.8169L11.4623 12.1169L11.3223 10.4869V7.0269C11.3223 6.2269 11.8223 5.6669 12.6023 5.6669C13.3623 5.6669 13.8723 6.2269 13.8723 7.0269V10.4869L13.7323 12.1169L14.8323 10.8169L15.6223 10.0469C15.8623 9.7969 16.1623 9.6169 16.5723 9.6169C17.2423 9.6169 17.7523 10.1469 17.7523 10.8869C17.7523 11.1869 17.6323 11.5269 17.3623 11.7769L13.5423 15.4069C13.3123 15.6369 12.9723 15.7969 12.6023 15.7969ZM8.4223 18.8669C7.7423 18.8669 7.2023 18.3169 7.2023 17.6369C7.2023 16.9569 7.7423 16.4069 8.4223 16.4069H16.7723C17.4523 16.4069 18.0023 16.9569 18.0023 17.6369C18.0023 18.3169 17.4523 18.8669 16.7723 18.8669Z" />
        </svg>
    