
        <svg xmlns="http://www.w3.org/2000/svg" viewBox="0 0 100 100">
            <path d="M12.6023 25.1986C19.5623 25.1986 25.2023 19.5586 25.2023 12.5986C25.2023 5.6386 19.5623 -0.0014 12.6023 -0.0014C5.6323 -0.0014 0.0023 5.6386 0.0023 12.5986C0.0023 19.5586 5.6323 25.1986 12.6023 25.1986ZM12.6023 21.5386C7.6523 21.5386 3.6523 17.5386 3.6523 12.5986C3.6523 7.6486 7.6523 3.6586 12.6023 3.6586C17.5423 3.6586 21.5423 7.6486 21.5423 12.5986C21.5423 17.5386 17.5423 21.5386 12.6023 21.5386ZM16.9523 17.6586C17.5923 17.6586 18.1023 17.1486 18.1023 16.5086V8.6686C18.1023 8.0386 17.5923 7.5386 16.9523 7.5386C16.3223 7.5386 15.8223 8.0386 15.8223 8.6686V16.5086C15.8223 17.1486 16.3223 17.6586 16.9523 17.6586ZM5.7423 12.5986C5.7423 13.3286 6.2623 13.7886 6.9923 13.7886H10.2823L11.8123 13.6486L10.5823 14.7186L9.8423 15.4286C9.6223 15.6586 9.4523 15.9286 9.4523 16.2986C9.4523 16.9486 9.9223 17.4286 10.6323 17.4286C10.9123 17.4286 11.2423 17.3086 11.4623 17.0586L14.8823 13.4886C15.0923 13.2686 15.2323 12.9486 15.2323 12.5986C15.2323 12.2486 15.0923 11.9286 14.8823 11.7186L11.4623 8.1286C11.2123 7.8886 10.9223 7.7586 10.6323 7.7586C9.9423 7.7586 9.4523 8.2386 9.4523 8.8986C9.4523 9.2586 9.6123 9.5286 9.8423 9.7486L10.5823 10.4886L11.8123 11.5386L10.2823 11.3986H6.9923C6.2623 11.3986 5.7423 11.8786 5.7423 12.5986Z" />
        </svg>
    