
        <svg xmlns="http://www.w3.org/2000/svg" viewBox="0 0 100 100">
            <path d="M17.6617 13.1217V1.3617C17.6617 0.5517 17.1217 0.0017 16.2917 0.0017H4.5217C3.7417 0.0017 3.1917 0.5817 3.1917 1.2817C3.1917 1.9617 3.7817 2.5217 4.4917 2.5217H8.6617L13.7117 2.3517L11.5817 4.2317L0.4117 15.4117C0.1417 15.6817 0.0017 16.0117 0.0017 16.3317C0.0017 17.0117 0.6217 17.6517 1.3217 17.6517C1.6517 17.6517 1.9717 17.5217 2.2417 17.2517L13.4217 6.0717L15.3117 3.9417L15.1217 8.7917V13.1617C15.1217 13.8617 15.6817 14.4717 16.3817 14.4717C17.0717 14.4717 17.6617 13.8817 17.6617 13.1217Z" />
        </svg>
    