
        <svg xmlns="http://www.w3.org/2000/svg" viewBox="0 0 100 100">
            <path d="M3.6817 21.5722H17.8917C20.3517 21.5722 21.5717 20.3722 21.5717 17.9522V3.6322C21.5717 1.2222 20.3517 0.0022 17.8917 0.0022H3.6817C1.2317 0.0022 0.0017 1.2222 0.0017 3.6322V17.9522C0.0017 20.3722 1.2317 21.5722 3.6817 21.5722ZM3.7017 19.6922C2.5317 19.6922 1.8917 19.0622 1.8917 17.8522V3.7422C1.8917 2.5222 2.5317 1.8822 3.7017 1.8822H17.8717C19.0317 1.8822 19.6917 2.5222 19.6917 3.7422V17.8522C19.6917 19.0622 19.0317 19.6922 17.8717 19.6922ZM16.8517 12.2122C16.8517 9.4022 14.8117 7.6922 12.0817 7.6922H8.5817L7.1917 7.7222L8.1217 6.9922L9.3317 5.8222C9.4917 5.6822 9.6017 5.4622 9.6017 5.2122C9.6017 4.7322 9.2317 4.3722 8.7517 4.3722C8.5117 4.3722 8.3217 4.4422 8.1517 4.6122L5.0417 7.7822C4.8517 7.9822 4.7317 8.2222 4.7317 8.4922C4.7317 8.7822 4.8517 9.0122 5.0417 9.2122L8.1717 12.4022C8.3317 12.5622 8.5217 12.6422 8.7617 12.6422C9.2317 12.6422 9.6017 12.2822 9.6017 11.7922C9.6017 11.5822 9.5117 11.3422 9.3417 11.1922L7.8717 9.7822L7.1917 9.2722L8.5817 9.3322H12.0817C13.8017 9.3322 15.1317 10.3122 15.1317 12.1122C15.1317 13.9722 13.8417 15.1022 12.0717 15.1022H10.4417C9.9417 15.1022 9.5517 15.4022 9.5517 15.9522C9.5517 16.4922 9.9417 16.7822 10.4617 16.7822H12.0717C14.8017 16.7822 16.8517 15.0222 16.8517 12.2122Z" />
        </svg>
    