
        <svg xmlns="http://www.w3.org/2000/svg" viewBox="0 0 100 100">
            <path d="M3.0117 20.5048H17.4917C19.4517 20.5048 20.5117 19.4248 20.5117 17.4948V3.0148C20.5117 1.0748 19.4517 0.0048 17.4917 0.0048H3.0117C1.0417 0.0048 0.0017 1.0448 0.0017 3.0148V17.4948C0.0017 19.4648 1.0417 20.5048 3.0117 20.5048ZM3.0317 19.9348C1.4217 19.9348 0.5717 19.0948 0.5717 17.4648V3.0348C0.5717 1.4148 1.4217 0.5748 3.0317 0.5748H17.4617C19.0317 0.5748 19.9317 1.4148 19.9317 3.0348V17.4648C19.9317 19.0948 19.0317 19.9348 17.4617 19.9348ZM10.2517 3.8348C10.2117 3.8348 10.1117 3.8648 10.0517 3.9248L6.5317 7.4648C6.4717 7.5248 6.4217 7.5848 6.4217 7.6848C6.4217 7.8348 6.5417 7.9448 6.6817 7.9448C6.7817 7.9448 6.8417 7.8948 6.9117 7.8248L8.4417 6.3048L9.9917 4.7848L9.9517 6.3248V14.1348L9.9917 15.6748L8.4417 14.1548L6.9117 12.6348C6.8417 12.5648 6.7817 12.5148 6.6817 12.5148C6.5417 12.5148 6.4217 12.6048 6.4217 12.7748C6.4217 12.8748 6.4717 12.9248 6.5317 12.9848L10.0517 16.5348C10.1117 16.5948 10.2117 16.6148 10.2517 16.6148C10.3117 16.6148 10.4017 16.5948 10.4517 16.5348L13.9917 12.9848C14.0517 12.9248 14.1017 12.8748 14.1017 12.7748C14.1017 12.6048 13.9817 12.5148 13.8417 12.5148C13.7317 12.5148 13.6717 12.5648 13.6017 12.6348L12.0817 14.1548L10.5217 15.6748L10.5617 14.1348V6.3248L10.5217 4.7848L12.0817 6.3048L13.6017 7.8248C13.6717 7.8948 13.7317 7.9448 13.8417 7.9448C13.9817 7.9448 14.1017 7.8348 14.1017 7.6848C14.1017 7.5848 14.0517 7.5248 13.9917 7.4648L10.4517 3.9248C10.4017 3.8648 10.3117 3.8348 10.2517 3.8348Z" />
        </svg>
    