
        <svg xmlns="http://www.w3.org/2000/svg" viewBox="0 0 100 100">
            <path d="M0.0117 5.0194L0.0017 16.7094C0.0017 17.9694 0.8517 18.8194 2.1217 18.8194H13.8317C15.0117 18.8194 15.9117 17.9294 15.9117 16.8394C15.9117 15.7594 15.0017 14.9294 13.8317 14.9294H9.3417L6.4717 15.0494L8.4517 13.2794L18.1417 3.5694C18.5717 3.1294 18.8317 2.5994 18.8317 2.0494C18.8317 0.9994 17.8517 -0.0006 16.7817 -0.0006C16.2317 -0.0006 15.7117 0.2594 15.2617 0.6894L5.5517 10.3794L3.7717 12.3594L3.9117 9.5494V5.0194C3.9117 3.8294 3.0817 2.9294 1.9917 2.9294C0.9017 2.9294 0.0117 3.8594 0.0117 5.0194Z" />
        </svg>
    