
        <svg xmlns="http://www.w3.org/2000/svg" viewBox="0 0 100 100">
            <path d="M12.1023 24.2064C15.9123 24.2064 19.5123 22.3464 21.6323 19.4764C22.1323 18.8564 22.0323 18.0964 21.4923 17.7064C20.9223 17.2964 20.2423 17.4764 19.7723 18.0264C18.0223 20.3364 15.2423 21.8164 12.1023 21.8164C6.7223 21.8164 2.3823 17.4864 2.3823 12.1064C2.3823 6.7264 6.7223 2.3764 12.1023 2.3764C16.6723 2.3764 20.5123 5.5264 21.5523 9.7864H19.9523C19.1023 9.7864 18.8823 10.4364 19.3523 11.0864L22.0623 14.8864C22.4323 15.3964 23.0123 15.4064 23.4023 14.8864L26.1223 11.0964C26.6023 10.4364 26.3623 9.7864 25.5023 9.7864H23.9923C22.9023 4.2064 17.9923 -0.0036 12.1023 -0.0036C5.4123 -0.0036 0.0023 5.4264 0.0023 12.1064C0.0023 18.7864 5.4123 24.2064 12.1023 24.2064Z" />
        </svg>
    