
        <svg xmlns="http://www.w3.org/2000/svg" viewBox="0 0 100 100">
            <path d="M7.7617 22.4889C12.4117 22.4889 15.6117 19.3489 15.6117 14.0289V6.5889L15.4917 3.8689L17.2417 5.9289L20.1817 8.9489C20.4017 9.1789 20.6817 9.3289 21.0717 9.3289C21.7817 9.3289 22.3117 8.8289 22.3117 8.0589C22.3117 7.7489 22.1617 7.3989 21.9117 7.1389L15.2817 0.4089C15.0217 0.1389 14.6817 -0.0011 14.3317 -0.0011C13.9817 -0.0011 13.6417 0.1389 13.3817 0.4089L6.7517 7.1389C6.5017 7.3989 6.3517 7.7489 6.3517 8.0589C6.3517 8.8289 6.8817 9.3289 7.6017 9.3289C7.9817 9.3289 8.2617 9.1789 8.4917 8.9489L11.4217 5.9289L13.1717 3.8689L13.0517 6.5889V14.0989C13.0517 17.8689 10.9117 19.9589 7.8517 19.9589C4.8017 19.9589 2.5617 17.8689 2.5617 14.0989V11.3789C2.5617 10.6089 1.9917 10.0689 1.2817 10.0689C0.5717 10.0689 0.0017 10.6089 0.0017 11.3789V14.1789C0.0017 19.4189 3.0817 22.4889 7.7617 22.4889Z" />
        </svg>
    