
        <svg xmlns="http://www.w3.org/2000/svg" viewBox="0 0 100 100">
            <path d="M12.1023 24.2064C18.7823 24.2064 24.2123 18.7864 24.2123 12.1064C24.2123 5.4264 18.7823 -0.0036 12.1023 -0.0036C5.4223 -0.0036 0.0023 5.4264 0.0023 12.1064C0.0023 18.7864 5.4223 24.2064 12.1023 24.2064ZM12.1023 21.8164C6.7223 21.8164 2.3823 17.4864 2.3823 12.1064C2.3823 6.7264 6.7223 2.3764 12.1023 2.3764C17.4823 2.3764 21.8323 6.7264 21.8323 12.1064C21.8323 17.4864 17.4823 21.8164 12.1023 21.8164ZM7.0223 15.6164C7.0223 16.3364 7.4023 16.7964 8.0723 16.7964C8.7423 16.7764 9.1423 16.3364 9.1423 15.6164V12.6464C9.1423 11.7064 9.6023 11.2664 10.4723 11.2664H13.3523V13.0764C13.3523 13.8664 14.2223 14.2264 14.8823 13.6564L17.7623 11.1164C18.4523 10.5264 18.4523 9.8764 17.7623 9.2764L14.8823 6.7664C14.2223 6.1864 13.3523 6.5364 13.3523 7.3364V9.1364H10.2523C8.0823 9.1364 7.0223 10.2064 7.0223 12.3564Z" />
        </svg>
    