
        <svg xmlns="http://www.w3.org/2000/svg" viewBox="0 0 100 100">
            <path d="M11.9523 23.9041C18.5523 23.9041 23.9023 18.5541 23.9023 11.9541C23.9023 5.3541 18.5523 0.0041 11.9523 0.0041C5.3523 0.0041 0.0023 5.3541 0.0023 11.9541C0.0023 18.5541 5.3523 23.9041 11.9523 23.9041ZM11.9523 21.9141C6.4423 21.9141 1.9923 17.4641 1.9923 11.9541C1.9923 6.4441 6.4423 1.9941 11.9523 1.9941C17.4623 1.9941 21.9123 6.4441 21.9123 11.9541C21.9123 17.4641 17.4623 21.9141 11.9523 21.9141ZM7.5423 7.3441H16.3523C16.8023 7.3441 17.1223 7.0241 17.1223 6.5741C17.1223 6.1041 16.8023 5.7741 16.3523 5.7741H7.5423C7.0923 5.7741 6.7623 6.1041 6.7623 6.5741C6.7623 7.0241 7.0923 7.3441 7.5423 7.3441ZM11.9323 18.8641C12.3723 18.8641 12.7123 18.5241 12.7123 18.0841V12.7041L12.5823 10.5541L14.6523 12.9041L15.4123 13.6741C15.5723 13.8441 15.7823 13.9141 15.9923 13.9141C16.4323 13.9141 16.7323 13.5541 16.7323 13.1341C16.7323 12.9241 16.6723 12.7241 16.4923 12.5341L12.5123 8.5241C12.3523 8.3441 12.1423 8.2541 11.9323 8.2541C11.7223 8.2541 11.5123 8.3341 11.3423 8.5241L7.3823 12.5541C7.2423 12.7141 7.1523 12.9541 7.1523 13.1341C7.1523 13.5841 7.4523 13.9141 7.9023 13.9141C8.1423 13.9141 8.3223 13.8441 8.4723 13.6741L9.1423 12.9341L11.2723 10.5441L11.1423 12.7041V18.0841C11.1423 18.5241 11.4623 18.8641 11.9323 18.8641Z" />
        </svg>
    