
        <svg xmlns="http://www.w3.org/2000/svg" viewBox="0 0 100 100">
            <path d="M3.8417 21.8745H18.0317C20.5617 21.8745 21.8817 20.5745 21.8817 18.0745V3.8045C21.8817 1.3145 20.5617 0.0045 18.0317 0.0045H3.8417C1.3117 0.0045 0.0017 1.3045 0.0017 3.8045V18.0745C0.0017 20.5745 1.3117 21.8745 3.8417 21.8745ZM16.2817 10.8245H12.2017C11.4717 10.8245 11.0617 10.4845 11.0617 9.6945V5.6045C11.0617 5.0745 11.4717 4.6645 12.0017 4.6645C12.5017 4.6645 12.9117 5.0745 12.9117 5.6045V6.1145L12.7817 7.8545L15.6817 4.8045C16.0617 4.3945 16.7117 4.4045 17.1117 4.8045C17.5117 5.2045 17.4917 5.8445 17.1017 6.2345L14.0717 9.1145L15.7617 8.9745H16.2817C16.8017 8.9745 17.2117 9.3845 17.2117 9.9045C17.2117 10.4145 16.8017 10.8245 16.2817 10.8245ZM9.9417 17.1945C9.4317 17.1945 9.0117 16.7845 9.0117 16.2545V15.7345L9.1517 14.0045L6.2617 17.0545C5.8717 17.4645 5.2217 17.4445 4.8317 17.0545C4.4217 16.6645 4.4317 16.0045 4.8417 15.6245L7.8517 12.7345L6.1717 12.8745H5.6517C5.1317 12.8745 4.7217 12.4645 4.7217 11.9545C4.7217 11.4345 5.1317 11.0245 5.6517 11.0245H9.7217C10.4617 11.0245 10.8717 11.3745 10.8717 12.1645V16.2545C10.8717 16.7845 10.4617 17.1945 9.9417 17.1945Z" />
        </svg>
    