
        <svg xmlns="http://www.w3.org/2000/svg" viewBox="0 0 100 100">
            <path d="M3.8417 21.8745H18.0317C20.5617 21.8745 21.8817 20.5745 21.8817 18.0745V3.8045C21.8817 1.3145 20.5617 0.0045 18.0317 0.0045H3.8417C1.3117 0.0045 0.0017 1.3045 0.0017 3.8045V18.0745C0.0017 20.5745 1.3117 21.8745 3.8417 21.8745ZM3.9817 19.5845C2.8917 19.5845 2.3017 19.0145 2.3017 17.8845V4.0045C2.3017 2.8745 2.8917 2.2945 3.9817 2.2945H17.8917C18.9717 2.2945 19.5817 2.8745 19.5817 4.0045V17.8845C19.5817 19.0145 18.9717 19.5845 17.8917 19.5845ZM5.0417 10.9245C5.0417 11.2045 5.1317 11.4645 5.4017 11.7345L9.0817 15.5545C9.2817 15.7545 9.4917 15.8545 9.7717 15.8545C10.3117 15.8545 10.6917 15.4445 10.6917 14.9045C10.6917 14.6445 10.5817 14.3645 10.3717 14.1945L8.6217 12.5345L7.8617 11.9045L9.5817 11.9845H15.8117C16.3717 11.9845 16.8517 11.5045 16.8517 10.9245C16.8517 10.3345 16.3717 9.8545 15.8117 9.8545H9.5817L7.8617 9.9345L8.6217 9.3045L10.3717 7.6645C10.5817 7.4745 10.6917 7.2045 10.6917 6.9445C10.6917 6.4245 10.3117 5.9845 9.7717 5.9845C9.4917 5.9845 9.2817 6.0945 9.0817 6.2945L5.4017 10.1145C5.1317 10.3945 5.0417 10.6445 5.0417 10.9245Z" />
        </svg>
    