
        <svg xmlns="http://www.w3.org/2000/svg" viewBox="0 0 100 100">
            <path d="M3.6817 21.5722H23.9517C26.4117 21.5722 27.6317 20.3722 27.6317 17.9522V3.6322C27.6317 1.2222 26.4117 0.0022 23.9517 0.0022H3.6817C1.2317 0.0022 0.0017 1.2222 0.0017 3.6322V17.9522C0.0017 20.3722 1.2317 21.5722 3.6817 21.5722ZM3.7017 19.6922C2.5317 19.6922 1.8917 19.0622 1.8917 17.8522V3.7422C1.8917 2.5222 2.5317 1.8822 3.7017 1.8822H23.9317C25.0917 1.8822 25.7417 2.5222 25.7417 3.7422V17.8522C25.7417 19.0622 25.0917 19.6922 23.9317 19.6922ZM12.3717 4.0222C11.8817 4.0222 11.5517 4.3822 11.5517 4.9022V6.3122L11.6917 7.8522L10.2417 6.3122L7.8317 3.8922C7.6617 3.7222 7.4517 3.6322 7.1817 3.6322C6.7017 3.6322 6.3617 3.9722 6.3617 4.4722C6.3617 4.7022 6.4817 4.9222 6.6317 5.0722L9.0517 7.5122L10.6217 8.9522L9.1617 8.8122H7.6417C7.1117 8.8122 6.7617 9.1422 6.7617 9.6322C6.7617 10.1222 7.1117 10.4622 7.6217 10.4622H12.2817C12.8417 10.4622 13.2117 10.1822 13.2117 9.5422V4.9222C13.2117 4.4022 12.8717 4.0222 12.3717 4.0222ZM15.2617 17.5522C15.7517 17.5522 16.0817 17.2022 16.0817 16.6922V15.2722L15.9417 13.7222L17.3917 15.2722L19.8017 17.6822C19.9717 17.8522 20.1817 17.9422 20.4517 17.9422C20.9317 17.9422 21.2817 17.6122 21.2817 17.1122C21.2817 16.8822 21.1617 16.6522 21.0117 16.5022L18.5817 14.0722L17.0117 12.6322L18.4717 12.7722H19.9917C20.5217 12.7722 20.8817 12.4422 20.8817 11.9522C20.8817 11.4622 20.5217 11.1222 20.0117 11.1222H15.3617C14.8017 11.1222 14.4217 11.3922 14.4217 12.0422V16.6622C14.4217 17.1822 14.7617 17.5522 15.2617 17.5522Z" />
        </svg>
    