
        <svg xmlns="http://www.w3.org/2000/svg" viewBox="0 0 100 100">
            <path d="M11.3523 22.7064C17.6323 22.7064 22.7123 17.6264 22.7123 11.3564C22.7123 5.0764 17.6323 -0.0036 11.3523 -0.0036C5.0823 -0.0036 0.0023 5.0764 0.0023 11.3564C0.0023 17.6264 5.0823 22.7064 11.3523 22.7064ZM11.3523 22.1364C5.3923 22.1364 0.5723 17.3164 0.5723 11.3564C0.5723 5.3864 5.3923 0.5764 11.3523 0.5764C17.3223 0.5764 22.1323 5.3864 22.1323 11.3564C22.1323 17.3164 17.3223 22.1364 11.3523 22.1364ZM11.3523 5.6564C11.2823 5.6564 11.2123 5.6864 11.1523 5.7464L7.1623 9.7364C7.1023 9.7964 7.0823 9.8564 7.0823 9.9264C7.0823 10.0764 7.1923 10.2064 7.3323 10.2064C7.4023 10.2064 7.4923 10.1564 7.5423 10.1064L10.0223 7.6264L11.0823 6.5464L11.0723 8.1664V16.7564C11.0723 16.9264 11.2023 17.0464 11.3523 17.0464C11.5223 17.0464 11.6523 16.9264 11.6523 16.7564V8.1664L11.6323 6.5764L12.6823 7.6264L15.1523 10.1064C15.2123 10.1564 15.2923 10.2064 15.3623 10.2064C15.4923 10.2064 15.6223 10.0764 15.6223 9.9264C15.6223 9.8564 15.6023 9.7964 15.5423 9.7364L11.5523 5.7464C11.4923 5.6864 11.4223 5.6564 11.3523 5.6564Z" />
        </svg>
    