
        <svg xmlns="http://www.w3.org/2000/svg" viewBox="0 0 100 100">
            <path d="M0.0017 8.0427C0.0017 13.0927 4.2517 18.1427 10.6317 22.3627C11.3117 22.8127 12.0117 23.2427 12.4917 23.2427C12.9617 23.2427 13.6617 22.8127 14.3517 22.3627C20.7217 18.1427 24.9717 13.0927 24.9717 8.0427C24.9717 3.2027 21.5817 0.0027 17.6417 0.0027C15.2217 0.0027 13.5017 1.0127 12.4917 2.4327C11.4817 1.0227 9.7617 0.0027 7.3517 0.0027C3.4017 0.0027 0.0017 3.2027 0.0017 8.0427ZM3.9017 7.9927C3.9017 5.4827 5.6517 3.7427 7.9617 3.7427C9.8017 3.7427 10.7417 4.7327 11.4517 5.6827C11.7917 6.1627 12.0917 6.4027 12.4917 6.4027C12.8917 6.4027 13.1617 6.1627 13.5217 5.6827C14.2617 4.7327 15.1917 3.7427 17.0317 3.7427C19.3217 3.7427 21.0817 5.4827 21.0817 7.9927C21.0817 11.4627 17.6717 15.6527 12.6417 18.9927C12.5717 19.0427 12.5417 19.0827 12.4917 19.0827C12.4417 19.0827 12.4017 19.0427 12.3317 18.9927C7.3017 15.6527 3.9017 11.4627 3.9017 7.9927ZM8.3317 12.3027C8.3317 14.4227 10.0417 16.1527 12.1517 16.1527C14.2617 16.1527 15.9717 14.4227 15.9717 12.3127C15.9717 11.8327 15.5817 11.4527 15.1017 11.4527C14.6217 11.4527 14.2417 11.8327 14.2417 12.3127C14.2417 13.4727 13.3017 14.4027 12.1517 14.4027C10.9917 14.4027 10.0617 13.4727 10.0617 12.3127C10.0617 11.4827 10.5317 10.7827 11.2817 10.4327V11.1827C11.2817 11.7327 11.8717 11.9527 12.3017 11.5927L14.1317 10.0827C14.5217 9.7527 14.5117 9.2427 14.1317 8.9327L12.3017 7.4327C11.8617 7.0627 11.2817 7.3027 11.2817 7.8427V8.6027C9.6317 9.0427 8.3317 10.5627 8.3317 12.3027Z" />
        </svg>
    