
        <svg xmlns="http://www.w3.org/2000/svg" viewBox="0 0 100 100">
            <path d="M0.0017 16.5947C0.0017 16.7947 0.0917 17.0147 0.2417 17.1647L5.4617 22.4447C5.6217 22.6147 5.8217 22.6947 6.0517 22.6947C6.2717 22.6947 6.4717 22.6147 6.6317 22.4447L11.8617 17.1647C12.0117 17.0147 12.1017 16.7947 12.1017 16.5947C12.1017 16.1147 11.7817 15.8047 11.3217 15.8047C11.1017 15.8047 10.9017 15.8747 10.7717 16.0147L8.8317 18.0147L6.7517 20.2947L6.8317 17.6647V5.0347L6.7517 2.4047L8.8317 4.6847L10.7717 6.6747C10.9017 6.8247 11.1017 6.8947 11.3217 6.8947C11.7817 6.8947 12.1017 6.5847 12.1017 6.1047C12.1017 5.9047 12.0117 5.6847 11.8617 5.5347L6.6317 0.2547C6.4717 0.0847 6.2717 0.0047 6.0517 0.0047C5.8217 0.0047 5.6217 0.0847 5.4617 0.2547L0.2417 5.5347C0.0917 5.6847 0.0017 5.9047 0.0017 6.1047C0.0017 6.5847 0.3317 6.8947 0.7717 6.8947C1.0117 6.8947 1.1917 6.8047 1.3217 6.6747L3.2717 4.6847L5.3417 2.4047L5.2617 5.0347V17.6647L5.3417 20.2947L3.2717 18.0147L1.3217 16.0147C1.1917 15.8947 1.0117 15.8047 0.7717 15.8047C0.3317 15.8047 0.0017 16.1147 0.0017 16.5947ZM14.5217 8.1447C14.5217 8.4347 14.7217 8.6647 15.0317 8.6947C20.6217 9.2647 21.3317 9.9047 21.9917 15.6747C22.0417 15.9847 22.2817 16.1747 22.5517 16.1747C22.8317 16.1747 23.0617 15.9847 23.1117 15.6747C23.7817 9.9047 24.4817 9.2647 30.0717 8.6947C30.3917 8.6647 30.5817 8.4347 30.5817 8.1447C30.5817 7.8647 30.3917 7.6447 30.0717 7.6047C24.4817 7.0347 23.7817 6.3847 23.1117 0.6047C23.0617 0.3147 22.8417 0.1147 22.5517 0.1147C22.2617 0.1147 22.0417 0.3147 21.9917 0.6047C21.2717 6.3547 20.6217 6.8747 15.0217 7.6047C14.7217 7.6447 14.5217 7.8647 14.5217 8.1447ZM13.5017 18.3547C13.5017 18.5547 13.6417 18.7147 13.8517 18.7647C16.9117 19.3347 16.9117 19.2647 17.3217 22.1947C17.3517 22.4147 17.5117 22.5747 17.7217 22.5747C17.9317 22.5747 18.0917 22.4147 18.1317 22.1947C18.5717 19.1047 18.7217 19.2147 21.5817 18.7647C21.8017 18.7247 21.9417 18.5647 21.9417 18.3547C21.9417 18.1647 21.8017 18.0047 21.5817 17.9547C18.7017 17.3947 18.5717 17.5547 18.1317 14.5047C18.0917 14.2947 17.9317 14.1447 17.7217 14.1447C17.5117 14.1447 17.3517 14.2947 17.3217 14.5147C16.9117 17.4447 16.9017 17.4247 13.8917 17.9547C13.6517 18.0047 13.5017 18.1447 13.5017 18.3547Z" />
        </svg>
    