
        <svg xmlns="http://www.w3.org/2000/svg" viewBox="0 0 100 100">
            <path d="M3.6817 21.5722H17.8917C20.3517 21.5722 21.5717 20.3722 21.5717 17.9522V3.6322C21.5717 1.2222 20.3517 0.0022 17.8917 0.0022H3.6817C1.2317 0.0022 0.0017 1.2222 0.0017 3.6322V17.9522C0.0017 20.3722 1.2317 21.5722 3.6817 21.5722ZM4.7017 10.7722C4.7017 10.5122 4.7817 10.3122 5.0317 10.0622L8.8717 6.0822C9.0517 5.8922 9.2417 5.8022 9.5017 5.8022C9.9917 5.8022 10.3617 6.1722 10.3617 6.6822C10.3617 6.9122 10.2617 7.1722 10.0617 7.3322L8.1117 9.1722L7.3717 9.8822L9.1717 9.7922H15.9617C16.4717 9.7922 16.9017 10.2422 16.9017 10.7722C16.9017 11.2922 16.4717 11.7322 15.9617 11.7322H9.1717L7.3617 11.6622L8.1117 12.3622L10.0617 14.2022C10.2617 14.3622 10.3617 14.6322 10.3617 14.8722C10.3617 15.3722 9.9917 15.7422 9.5017 15.7422C9.2417 15.7422 9.0517 15.6422 8.8717 15.4522L5.0317 11.4722C4.7817 11.2222 4.7017 11.0122 4.7017 10.7722Z" />
        </svg>
    