
        <svg xmlns="http://www.w3.org/2000/svg" viewBox="0 0 100 100">
            <path d="M12.6023 25.1969C19.5623 25.1969 25.2023 19.5569 25.2023 12.5969C25.2023 5.6369 19.5623 -0.0031 12.6023 -0.0031C5.6523 -0.0031 0.0023 5.6369 0.0023 12.5969C0.0023 19.5569 5.6523 25.1969 12.6023 25.1969ZM10.1523 17.4469C9.7723 17.4469 9.5023 17.2869 9.1323 16.9469L4.6923 12.8469C4.4523 12.6169 4.3523 12.3069 4.3523 12.0569C4.3523 11.7669 4.4523 11.4769 4.6923 11.2769L9.1323 7.1669C9.5323 6.8069 9.8123 6.6669 10.1523 6.6669C10.5923 6.6669 10.9223 6.9069 11.0623 7.1969V7.2769L7.4723 10.5569C7.0523 10.9469 6.7923 11.4969 6.7923 12.0569C6.7923 12.6169 7.0523 13.1669 7.4723 13.5569L11.0623 16.8369V16.9169C10.9223 17.2169 10.5923 17.4469 10.1523 17.4469ZM13.5923 17.4469C13.2423 17.4469 12.9523 17.2969 12.5723 16.9469L8.1323 12.8469C7.9123 12.6369 7.7723 12.3069 7.7723 12.0569C7.7723 11.7669 7.8823 11.4869 8.1323 11.2769L12.5723 7.1669C12.9723 6.8169 13.2423 6.6669 13.5923 6.6669C14.1723 6.6669 14.6223 7.1369 14.6223 7.6969V9.3969H14.7023C18.1123 9.3969 19.9923 11.5969 19.9923 15.4069C19.9923 16.6969 19.6423 17.3569 19.0123 17.3569C18.5523 17.3569 18.2223 17.1569 17.9423 16.6269C17.3423 15.5169 16.4023 14.7869 14.7023 14.7869H14.6223V16.4169C14.6223 16.9969 14.1723 17.4469 13.5923 17.4469Z" />
        </svg>
    