
        <svg xmlns="http://www.w3.org/2000/svg" viewBox="0 0 100 100">
            <path d="M17.5917 21.7994C18.2217 21.7994 18.7217 21.5394 19.3317 20.9794L28.6217 12.2594C29.0717 11.8194 29.2517 11.3194 29.2517 10.8994C29.2517 10.4494 29.0717 9.9694 28.6217 9.5394L19.3317 0.8794C18.6517 0.2594 18.2217 -0.0006 17.6017 -0.0006C16.6917 -0.0006 16.0217 0.7294 16.0217 1.6194V5.9194H8.7817C6.6017 5.9194 5.6617 6.8694 5.6617 9.0094V11.2394H3.0517C0.9717 11.2394 0.0017 12.1894 0.0017 14.2194V18.7294C0.0017 20.7794 0.9617 21.6894 3.0517 21.6894H10.1417C12.2617 21.6894 13.1817 20.7794 13.1817 18.6794V16.2294H16.0217V20.2394C16.0217 21.1294 16.6917 21.7994 17.5917 21.7994ZM11.5617 18.8094L7.1417 16.9494C5.9917 16.4394 5.5117 15.7994 5.4617 14.7794C5.4517 14.5294 5.7217 14.4794 5.8117 14.7194C6.1517 15.6294 6.9917 16.2294 8.4117 16.2294H11.7117V18.7394C11.7117 18.8194 11.6417 18.8394 11.5617 18.8094Z" />
        </svg>
    