
        <svg xmlns="http://www.w3.org/2000/svg" viewBox="0 0 100 100">
            <path d="M8.8817 0.0034C8.2717 0.0034 7.8417 0.4234 7.8417 1.0334V16.4634L7.9317 18.9734L4.4217 15.1134L1.7417 12.4934C1.5717 12.3034 1.2917 12.2134 1.0117 12.2134C0.4217 12.2134 0.0017 12.6534 0.0017 13.2334C0.0017 13.5134 0.1017 13.7534 0.3317 13.9934L8.1017 21.7834C8.3217 22.0234 8.5917 22.1334 8.8817 22.1334C9.1717 22.1334 9.4417 22.0234 9.6717 21.7834L17.4517 13.9934C17.6717 13.7534 17.7617 13.5134 17.7617 13.2334C17.7617 12.6534 17.3417 12.2134 16.7617 12.2134C16.4717 12.2134 16.2117 12.3034 16.0217 12.4934L13.3517 15.1134L9.8417 18.9634L9.9217 16.4634V1.0334C9.9217 0.4234 9.4917 0.0034 8.8817 0.0034Z" />
        </svg>
    