
        <svg xmlns="http://www.w3.org/2000/svg" viewBox="0 0 100 100">
            <path d="M13.8127 21.497C14.3927 21.497 14.8627 21.257 15.4227 20.727L24.6727 11.997C25.1127 11.577 25.2627 11.137 25.2627 10.747C25.2627 10.347 25.1227 9.917 24.6727 9.477L15.4227 0.827C14.8027 0.247 14.4127 -0.003 13.8427 -0.003C13.0227 -0.003 12.4327 0.647 12.4327 1.427V5.857H12.0927C3.6727 5.857 0.0027 11.257 0.0027 19.917C0.0027 20.927 0.5727 21.497 1.2027 21.497C1.7027 21.497 2.2427 21.377 2.6527 20.627C4.6827 16.797 7.5627 15.647 12.0927 15.647H12.4327V20.117C12.4327 20.907 13.0227 21.497 13.8127 21.497ZM14.4827 18.977C14.3927 18.977 14.3227 18.907 14.3227 18.797V14.257C14.3227 13.997 14.2027 13.877 13.9327 13.877H12.3627C6.7927 13.877 3.2427 15.807 1.8627 18.747C1.8327 18.827 1.8027 18.867 1.7427 18.867C1.7027 18.867 1.6627 18.827 1.6627 18.737C1.9027 13.207 4.3127 7.627 12.3627 7.627H13.9327C14.2027 7.627 14.3227 7.507 14.3227 7.247V2.587C14.3227 2.497 14.3927 2.427 14.4927 2.427C14.5627 2.427 14.6327 2.477 14.6927 2.517L23.0427 10.527C23.1227 10.607 23.1527 10.677 23.1527 10.747C23.1527 10.817 23.1327 10.877 23.0427 10.967L14.6827 18.867C14.6227 18.937 14.5527 18.977 14.4827 18.977Z" />
        </svg>
    