
        <svg xmlns="http://www.w3.org/2000/svg" viewBox="0 0 100 100">
            <path d="M12.2223 24.4436C18.9723 24.4436 24.4423 18.9736 24.4423 12.2236C24.4423 5.4736 18.9723 0.0036 12.2223 0.0036C5.4723 0.0036 0.0023 5.4736 0.0023 12.2236C0.0023 18.9736 5.4723 24.4436 12.2223 24.4436ZM12.2223 21.7636C6.9523 21.7636 2.6823 17.4936 2.6823 12.2236C2.6823 6.9536 6.9523 2.6836 12.2223 2.6836C17.4923 2.6836 21.7623 6.9536 21.7623 12.2236C21.7623 17.4936 17.4923 21.7636 12.2223 21.7636ZM12.2223 6.3136C11.9223 6.3136 11.6223 6.4236 11.3223 6.7136L7.5223 10.3736C7.3123 10.5836 7.1923 10.8036 7.1923 11.1136C7.1923 11.6936 7.6623 12.1036 8.2223 12.1036C8.5223 12.1036 8.8123 11.9736 9.0123 11.7536L10.5423 10.1236L11.1423 9.3236L11.0523 11.0436V16.9736C11.0523 17.5936 11.5823 18.1336 12.2223 18.1336C12.8823 18.1336 13.3923 17.5936 13.3923 16.9736V11.0436L13.3023 9.3236L13.9023 10.1236L15.4323 11.7536C15.6323 11.9736 15.9123 12.1036 16.2023 12.1036C16.7723 12.1036 17.2523 11.6936 17.2523 11.1136C17.2523 10.8036 17.1323 10.5836 16.9223 10.3736L13.1223 6.7136C12.8323 6.4236 12.5423 6.3136 12.2223 6.3136Z" />
        </svg>
    