
        <svg xmlns="http://www.w3.org/2000/svg" viewBox="0 0 100 100">
            <path d="M12.6023 25.1986C19.5623 25.1986 25.2023 19.5586 25.2023 12.5986C25.2023 5.6386 19.5623 -0.0014 12.6023 -0.0014C5.6323 -0.0014 0.0023 5.6386 0.0023 12.5986C0.0023 19.5586 5.6323 25.1986 12.6023 25.1986ZM12.6023 21.5386C7.6523 21.5386 3.6523 17.5386 3.6523 12.5986C3.6523 7.6486 7.6523 3.6586 12.6023 3.6586C17.5423 3.6586 21.5423 7.6486 21.5423 12.5986C21.5423 17.5386 17.5423 21.5386 12.6023 21.5386ZM7.5023 13.1086C7.5023 15.9486 9.7823 18.2486 12.6023 18.2486C15.4123 18.2486 17.6923 15.9486 17.6923 13.1286C17.6923 12.5086 17.1923 12.0086 16.5823 12.0086C15.9523 12.0086 15.4423 12.5086 15.4423 13.1286C15.4423 14.7186 14.1823 15.9886 12.6023 15.9886C11.0023 15.9886 9.7523 14.7086 9.7523 13.1286C9.7523 11.8586 10.5323 10.7386 11.6123 10.5486C11.7023 10.5186 11.8123 10.4986 11.9023 10.4686L11.5523 10.8386C11.4723 10.9686 11.4223 11.1586 11.4223 11.3686C11.4223 12.0086 11.8823 12.3786 12.4723 12.3786C12.7523 12.3786 13.0423 12.2586 13.2223 12.0686L15.2123 10.0686C15.6223 9.6586 15.6123 8.9486 15.2223 8.5686L13.2323 6.5486C13.0323 6.3486 12.7623 6.1786 12.4323 6.1786C11.7823 6.1786 11.4023 6.6586 11.4023 7.1386C11.4023 7.4486 11.5423 7.6286 11.6623 7.8086L11.9423 8.0986C11.8723 8.1086 11.7823 8.1086 11.6923 8.1186C9.3823 8.4286 7.5023 10.5686 7.5023 13.1086Z" />
        </svg>
    