
        <svg xmlns="http://www.w3.org/2000/svg" viewBox="0 0 100 100">
            <path d="M11.3523 22.7064C17.6323 22.7064 22.7123 17.6264 22.7123 11.3564C22.7123 5.0764 17.6323 -0.0036 11.3523 -0.0036C5.0823 -0.0036 0.0023 5.0764 0.0023 11.3564C0.0023 17.6264 5.0823 22.7064 11.3523 22.7064ZM11.3523 22.1364C5.3923 22.1364 0.5723 17.3164 0.5723 11.3564C0.5723 5.3864 5.3923 0.5764 11.3523 0.5764C17.3223 0.5764 22.1323 5.3864 22.1323 11.3564C22.1323 17.3164 17.3223 22.1364 11.3523 22.1364ZM6.4323 10.4964C6.6023 10.4964 6.7223 10.3664 6.7223 10.2064V9.2464L6.7123 7.0564L10.1023 10.4964C10.2323 10.6264 10.4223 10.6264 10.5323 10.4964C10.6423 10.3864 10.6423 10.1964 10.5323 10.0764L7.0923 6.6864H9.0923L10.2423 6.7164C10.4023 6.7164 10.5323 6.5764 10.5323 6.4264C10.5323 6.2564 10.4023 6.1264 10.2423 6.1264H6.4323C6.2823 6.1264 6.1523 6.2464 6.1523 6.4264V10.2064C6.1523 10.3664 6.2823 10.4964 6.4323 10.4964ZM12.4723 16.5364H16.2823C16.4323 16.5364 16.5723 16.4164 16.5723 16.2464V12.4464C16.5723 12.2964 16.4323 12.1664 16.2823 12.1664C16.1123 12.1664 15.9823 12.2964 15.9823 12.4464V13.4164L15.9923 15.6064L12.6223 12.1664C12.4923 12.0364 12.3023 12.0364 12.1923 12.1664C12.0723 12.2764 12.0723 12.4664 12.1923 12.5864L15.6223 15.9564L13.6123 15.9764L12.4723 15.9464C12.3023 15.9464 12.1723 16.0764 12.1723 16.2464C12.1723 16.4064 12.3023 16.5364 12.4723 16.5364Z" />
        </svg>
    