
        <svg xmlns="http://www.w3.org/2000/svg" viewBox="0 0 100 100">
            <path d="M3.6817 21.5756H17.8917C20.3517 21.5756 21.5717 20.3556 21.5717 17.9456V3.6256C21.5717 1.2056 20.3517 -0.0044 17.8917 -0.0044H3.6817C1.2317 -0.0044 0.0017 1.2056 0.0017 3.6256V17.9456C0.0017 20.3556 1.2317 21.5756 3.6817 21.5756ZM3.7017 19.6856C2.5317 19.6856 1.8917 19.0556 1.8917 17.8356V3.7256C1.8917 2.5056 2.5317 1.8756 3.7017 1.8756H17.8717C19.0317 1.8756 19.6917 2.5056 19.6917 3.7256V17.8356C19.6917 19.0556 19.0317 19.6856 17.8717 19.6856ZM16.8517 12.1956C16.8517 9.3856 14.8117 7.6756 12.0817 7.6756H8.5817L7.1917 7.7256L8.1217 6.9856L9.3317 5.8156C9.4917 5.6756 9.6017 5.4456 9.6017 5.2156C9.6017 4.7256 9.2317 4.3556 8.7517 4.3556C8.5117 4.3556 8.3217 4.4456 8.1517 4.6156L5.0417 7.7656C4.8517 7.9656 4.7317 8.2156 4.7317 8.4956C4.7317 8.7656 4.8517 8.9956 5.0417 9.1956L8.1717 12.3956C8.3317 12.5656 8.5217 12.6356 8.7617 12.6356C9.2317 12.6356 9.6017 12.2656 9.6017 11.7856C9.6017 11.5656 9.5117 11.3356 9.3417 11.1756L7.8717 9.7756L7.1917 9.2656L8.5817 9.3156H12.0817C13.8017 9.3156 15.1317 10.3056 15.1317 12.1056C15.1317 13.9556 13.8417 15.0956 12.0717 15.0956H10.4417C9.9417 15.0956 9.5517 15.3956 9.5517 15.9356C9.5517 16.4756 9.9417 16.7656 10.4617 16.7656H12.0717C14.8017 16.7656 16.8517 15.0256 16.8517 12.1956Z" />
        </svg>
    