
        <svg xmlns="http://www.w3.org/2000/svg" viewBox="0 0 100 100">
            <path d="M12.7923 25.5978C19.8723 25.5978 25.6023 19.8678 25.6023 12.7978C25.6023 5.7278 19.8723 -0.0022 12.7923 -0.0022C5.7323 -0.0022 0.0023 5.7278 0.0023 12.7978C0.0023 19.8678 5.7323 25.5978 12.7923 25.5978ZM12.7923 21.4178C8.0323 21.4178 4.1723 17.5678 4.1723 12.7978C4.1723 8.0278 8.0323 4.1678 12.7923 4.1678C17.5623 4.1678 21.4323 8.0278 21.4323 12.7978C21.4323 17.5678 17.5623 21.4178 12.7923 21.4178ZM17.8623 13.2978C17.8623 10.8678 16.1223 8.7578 13.9123 8.3578C13.8423 8.3478 13.7423 8.3278 13.7023 8.3178L13.7923 8.1878C13.9123 8.0178 14.0723 7.8478 14.0723 7.4878C14.0723 6.9978 13.6923 6.4678 12.9523 6.4678C12.5823 6.4678 12.2923 6.6678 12.0723 6.8778L10.1623 8.8078C9.7423 9.2378 9.7223 9.9878 10.1723 10.4278L12.0923 12.3478C12.2823 12.5578 12.6023 12.6878 12.9023 12.6878C13.5423 12.6878 14.0523 12.3178 14.0523 11.5878C14.0523 11.3878 14.0123 11.2078 13.9423 11.0778L13.8323 10.9178C13.9323 10.9778 14.0123 11.0278 14.0823 11.0478C14.8823 11.2978 15.4223 12.2678 15.4223 13.3078C15.4223 14.7578 14.2623 15.9278 12.7923 15.9278C11.3523 15.9278 10.1823 14.7778 10.1823 13.3078C10.1823 12.6278 9.6423 12.0978 8.9523 12.0978C8.2823 12.0978 7.7323 12.6278 7.7323 13.3078C7.7323 16.0978 10.0223 18.3878 12.7923 18.3878C15.5823 18.3878 17.8623 16.0978 17.8623 13.2978Z" />
        </svg>
    