
        <svg xmlns="http://www.w3.org/2000/svg" viewBox="0 0 100 100">
            <path d="M16.3017 12.4603H24.6417C25.8317 12.4603 26.7117 11.5803 26.7117 10.3903V2.0703C26.7117 0.8903 25.8317 0.0003 24.6417 0.0003H16.3017C15.1317 0.0003 14.2617 0.8903 14.2617 2.0703V10.3903C14.2617 11.5803 15.1317 12.4603 16.3017 12.4603ZM17.6217 9.1403C17.2017 9.1403 16.9317 8.6503 17.1817 8.2303L19.9417 3.5703C20.1817 3.1803 20.7517 3.1803 20.9917 3.5603L23.7917 8.2303C24.0217 8.6403 23.7617 9.1403 23.3517 9.1403ZM2.0517 26.7203H10.3917C11.5617 26.7203 12.4617 25.8403 12.4617 24.6603V16.3203C12.4617 15.1403 11.5617 14.2503 10.3917 14.2503H2.0517C0.8817 14.2503 0.0017 15.1403 0.0017 16.3203V24.6603C0.0017 25.8403 0.8817 26.7203 2.0517 26.7203ZM16.3017 26.7203H24.6417C25.8317 26.7203 26.7117 25.8403 26.7117 24.6603V16.3203C26.7117 15.1403 25.8317 14.2503 24.6417 14.2503H16.3017C15.1317 14.2503 14.2617 15.1403 14.2617 16.3203V24.6603C14.2617 25.8403 15.1317 26.7203 16.3017 26.7203ZM30.5717 26.7203H38.9217C40.0917 26.7203 40.9817 25.8403 40.9817 24.6603V16.3203C40.9817 15.1403 40.0917 14.2503 38.9217 14.2503H30.5717C29.4017 14.2503 28.5217 15.1403 28.5217 16.3203V24.6603C28.5217 25.8403 29.4017 26.7203 30.5717 26.7203ZM8.6517 23.3403C8.6517 23.7803 8.1417 24.0503 7.7217 23.7903L3.0717 21.0103C2.6717 20.7803 2.6717 20.1903 3.0617 19.9603L7.7217 17.1803C8.1417 16.9303 8.6517 17.1903 8.6517 17.6203ZM32.3217 23.3403V17.6203C32.3217 17.1903 32.8217 16.9303 33.2417 17.1803L37.9117 19.9603C38.3017 20.1903 38.3017 20.7803 37.9017 21.0103L33.2417 23.7903C32.8217 24.0503 32.3217 23.7803 32.3217 23.3403ZM19.9417 23.1403L17.1817 18.4903C16.9417 18.0703 17.2017 17.5703 17.6217 17.5703H23.3517C23.7617 17.5703 24.0217 18.0803 23.7917 18.4903L20.9917 23.1603C20.7517 23.5403 20.1817 23.5303 19.9417 23.1403Z" />
        </svg>
    