
        <svg xmlns="http://www.w3.org/2000/svg" viewBox="0 0 100 100">
            <path d="M1.0117 18.5652C0.4117 18.5652 0.0017 18.9952 0.0017 19.6052C0.0017 20.2152 0.4117 20.6652 1.0117 20.6652H16.8117C17.4217 20.6652 17.8517 20.2152 17.8517 19.6052C17.8517 18.9952 17.4217 18.5652 16.8117 18.5652H9.1617C9.3617 18.5052 9.5517 18.3952 9.7117 18.2252L17.4617 10.4652C17.6917 10.2152 17.8117 9.9652 17.8117 9.6752C17.8117 9.0952 17.3817 8.6452 16.7917 8.6452C16.5117 8.6452 16.2317 8.7552 16.0417 8.9452L13.4217 11.5352L9.8917 15.3852L9.9717 12.8752V1.0452C9.9717 0.4352 9.5417 -0.0048 8.9317 -0.0048C8.3117 -0.0048 7.8717 0.4352 7.8717 1.0452V12.8752L7.9717 15.3952L4.4417 11.5352L1.8117 8.9452C1.6217 8.7552 1.3517 8.6452 1.0617 8.6452C0.4717 8.6452 0.0517 9.0952 0.0517 9.6752C0.0517 9.9652 0.1617 10.2152 0.3917 10.4652L8.1417 18.2252C8.3017 18.3952 8.4817 18.5052 8.6817 18.5652Z" />
        </svg>
    