
        <svg xmlns="http://www.w3.org/2000/svg" viewBox="0 0 100 100">
            <path d="M4.113 19.4909H16.293C18.913 19.4909 20.403 18.0309 20.403 15.4809V4.0209C20.403 1.4609 18.993 0.0009 16.373 0.0009H4.113C1.573 0.0009 0.003 1.4609 0.003 4.0209V15.6009C0.003 18.1509 1.493 19.4909 4.113 19.4909ZM22.193 13.7009L26.053 17.0109C26.593 17.4709 27.133 17.7809 27.653 17.7809C28.643 17.7809 29.323 17.0709 29.323 16.0209V3.5709C29.323 2.5209 28.643 1.8209 27.653 1.8209C27.113 1.8209 26.593 2.1209 26.053 2.5709L22.193 5.8809ZM6.233 14.8009C5.593 14.8009 5.113 14.3509 5.113 13.7509C5.113 13.4309 5.213 13.1409 5.463 12.9009L10.253 8.2009L11.973 6.6809L9.133 6.8809H7.373C6.783 6.8809 6.303 6.4309 6.303 5.8209C6.303 5.2109 6.763 4.7109 7.363 4.7109H13.973C14.843 4.7109 15.303 5.1909 15.303 6.0709V12.5709C15.303 13.1709 14.823 13.6209 14.203 13.6209C13.593 13.6209 13.153 13.1509 13.153 12.5709V10.9009L13.343 8.0809L11.813 9.7709L7.033 14.4609C6.793 14.6809 6.553 14.8009 6.233 14.8009Z" />
        </svg>
    