
        <svg xmlns="http://www.w3.org/2000/svg" viewBox="0 0 100 100">
            <path d="M17.3117 13.0748H25.5517C26.9417 13.0748 27.9717 12.0348 27.9717 10.6148V2.4848C27.9717 1.0548 26.9417 0.0048 25.5517 0.0048H17.3117C15.9117 0.0048 14.8917 1.0548 14.8917 2.4848V10.6148C14.8917 12.0348 15.9117 13.0748 17.3117 13.0748ZM18.8117 9.4448C18.2417 9.4448 17.9217 8.8148 18.2217 8.2948L20.7817 3.9348C21.0617 3.4548 21.7817 3.4448 22.0617 3.9248L24.6417 8.2948C24.9417 8.8048 24.6217 9.4448 24.0717 9.4448ZM2.4117 27.9848H10.6517C12.0317 27.9848 13.0817 26.9448 13.0817 25.5148V17.3748C13.0817 15.9648 12.0317 14.9048 10.6517 14.9048H2.4117C1.0217 14.9048 0.0017 15.9648 0.0017 17.3748V25.5148C0.0017 26.9448 1.0217 27.9848 2.4117 27.9848ZM17.3117 27.9848H25.5517C26.9417 27.9848 27.9717 26.9448 27.9717 25.5148V17.3748C27.9717 15.9648 26.9417 14.9048 25.5517 14.9048H17.3117C15.9117 14.9048 14.8917 15.9648 14.8917 17.3748V25.5148C14.8917 26.9448 15.9117 27.9848 17.3117 27.9848ZM32.2217 27.9848H40.4517C41.8517 27.9848 42.8717 26.9448 42.8717 25.5148V17.3748C42.8717 15.9648 41.8517 14.9048 40.4517 14.9048H32.2217C30.8317 14.9048 29.8017 15.9648 29.8017 17.3748V25.5148C29.8017 26.9448 30.8317 27.9848 32.2217 27.9848ZM8.9717 24.0548C8.9717 24.6248 8.3417 24.9448 7.8317 24.6448L3.4817 22.1048C3.0017 21.8048 2.9917 21.0848 3.4717 20.8048L7.8317 18.2348C8.3517 17.9248 8.9717 18.2548 8.9717 18.8048ZM33.8917 24.0548V18.8048C33.8917 18.2548 34.5217 17.9248 35.0417 18.2348L39.4017 20.8048C39.8817 21.0848 39.8817 21.8048 39.3917 22.1048L35.0417 24.6448C34.5217 24.9448 33.8917 24.6248 33.8917 24.0548ZM20.7817 24.0448L18.2217 19.6848C17.9317 19.1748 18.2417 18.5348 18.8117 18.5348H24.0717C24.6217 18.5348 24.9417 19.1848 24.6417 19.6848L22.0617 24.0548C21.7817 24.5348 21.0617 24.5248 20.7817 24.0448Z" />
        </svg>
    