
        <svg xmlns="http://www.w3.org/2000/svg" viewBox="0 0 100 100">
            <path d="M20.3717 22.6413C21.4417 22.6413 22.3117 21.7813 22.3117 20.6913V1.9413C22.3117 0.8513 21.4417 0.0012 20.3717 0.0012C19.2917 0.0012 18.4217 0.8513 18.4217 1.9413V20.6913C18.4217 21.7813 19.2917 22.6413 20.3717 22.6413ZM0.0017 11.3212C0.0017 12.5513 0.8517 13.3613 2.1417 13.3613H8.5317L10.6217 13.1813L7.8017 15.9913C7.4217 16.3813 7.1417 16.8313 7.1417 17.4613C7.1417 18.5613 7.9317 19.3913 9.1517 19.3913C9.6417 19.3913 10.1617 19.1813 10.5717 18.7513L16.1617 12.8212C16.5117 12.4413 16.7617 11.9213 16.7617 11.3212C16.7617 10.7113 16.5117 10.1913 16.1617 9.8212L10.5717 3.8813C10.1617 3.4613 9.6417 3.2413 9.1517 3.2413C7.9317 3.2413 7.1417 4.0813 7.1417 5.1713C7.1417 5.8012 7.4217 6.2613 7.8017 6.6413L10.6217 9.4613L8.5317 9.2713H2.1417C0.8517 9.2713 0.0017 10.0913 0.0017 11.3212ZM40.7317 11.3212C40.7317 10.0913 39.8817 9.2713 38.5917 9.2713H32.2017L30.1217 9.4613L32.9317 6.6413C33.3117 6.2613 33.6017 5.8012 33.6017 5.1713C33.6017 4.0813 32.8017 3.2413 31.5817 3.2413C31.0917 3.2413 30.5717 3.4613 30.1617 3.8813L24.5817 9.8212C24.2217 10.1913 23.9717 10.7113 23.9717 11.3212C23.9717 11.9213 24.2217 12.4413 24.5817 12.8212L30.1617 18.7513C30.5717 19.1813 31.0917 19.3913 31.5817 19.3913C32.8017 19.3913 33.6017 18.5613 33.6017 17.4613C33.6017 16.8313 33.3117 16.3813 32.9317 15.9913L30.1217 13.1813L32.2017 13.3613H38.5917C39.8817 13.3613 40.7317 12.5513 40.7317 11.3212Z" />
        </svg>
    