
        <svg xmlns="http://www.w3.org/2000/svg" viewBox="0 0 100 100">
            <path d="M0.0017 26.6938C0.0017 29.6038 1.7017 31.2938 4.5917 31.2938H15.3517C18.2417 31.2938 19.9417 29.5938 19.9417 26.6938V24.5438H21.6517C24.5617 24.5438 26.2517 22.8438 26.2517 19.9438V4.5938C26.2517 1.6838 24.5617 0.0038 21.6517 0.0038H10.9117C8.0017 0.0038 6.3117 1.6838 6.3117 4.5938V6.7538H4.5917C1.7017 6.7538 0.0017 8.4338 0.0017 11.3438ZM12.9117 4.0038V3.6938C12.9117 3.3438 13.2317 2.7037 13.9017 2.7037H18.6817C19.3517 2.7037 19.6617 3.3438 19.6617 3.6938V4.0038C19.6617 4.5238 19.2217 4.9937 18.6817 4.9937H13.9017C13.3517 4.9937 12.9117 4.5238 12.9117 4.0038ZM4.1617 26.0638V11.9738C4.1617 11.2638 4.4517 10.9138 5.2417 10.9138H14.7117C15.4817 10.9138 15.7717 11.2638 15.7717 11.9738V26.0638C15.7717 26.7738 15.4817 27.1338 14.7117 27.1338H5.2417C4.4517 27.1338 4.1617 26.7738 4.1617 26.0638ZM9.9717 14.7438C9.1617 14.7438 8.4017 14.9638 7.7717 15.3538C7.1717 15.7038 7.1217 16.2738 7.3717 16.6838C7.6217 17.0738 8.1317 17.2838 8.6917 16.9438C9.0617 16.7138 9.4917 16.5838 9.9717 16.5838C10.9717 16.5838 11.8317 17.1938 12.2117 18.0538H11.8017C11.2817 18.0538 11.0817 18.5838 11.4117 19.0038L12.7217 20.6838C13.0117 21.0538 13.5017 21.0538 13.7917 20.6838L15.0817 19.0038C15.4117 18.5838 15.2117 18.0538 14.6917 18.0538H14.1317C13.7017 16.1638 12.0017 14.7438 9.9717 14.7438ZM5.2417 19.9638H5.8017C6.2317 21.8838 7.9317 23.2838 9.9717 23.2838C10.7717 23.2838 11.5317 23.0638 12.1617 22.6838C12.7717 22.3337 12.8117 21.7538 12.5617 21.3438C12.3117 20.9538 11.8017 20.7438 11.2417 21.0938C10.8717 21.3138 10.4417 21.4538 9.9717 21.4538C8.9617 21.4538 8.1017 20.8338 7.7217 19.9638H8.1317C8.6517 19.9638 8.8517 19.4438 8.5217 19.0238L7.2117 17.3438C6.9217 16.9838 6.4317 16.9638 6.1417 17.3438L4.8517 19.0238C4.5217 19.4438 4.7217 19.9638 5.2417 19.9638Z" />
        </svg>
    