
        <svg xmlns="http://www.w3.org/2000/svg" viewBox="0 0 100 100">
            <path d="M3.6817 21.5722H23.9517C26.4117 21.5722 27.6317 20.3722 27.6317 17.9522V3.6322C27.6317 1.2222 26.4117 0.0022 23.9517 0.0022H3.6817C1.2317 0.0022 0.0017 1.2222 0.0017 3.6322V17.9522C0.0017 20.3722 1.2317 21.5722 3.6817 21.5722ZM3.7017 19.6922C2.5317 19.6922 1.8917 19.0622 1.8917 17.8522V3.7422C1.8917 2.5222 2.5317 1.8822 3.7017 1.8822H23.9317C25.0917 1.8822 25.7417 2.5222 25.7417 3.7422V17.8522C25.7417 19.0622 25.0917 19.6922 23.9317 19.6922ZM20.4517 10.0822C20.9417 10.0822 21.2817 9.6922 21.2817 9.1722V4.5622C21.2817 3.9122 20.9017 3.6322 20.3417 3.6322H15.6917C15.1917 3.6322 14.8217 3.9722 14.8217 4.4622C14.8217 4.9522 15.1917 5.2822 15.7117 5.2822H17.2417L18.6917 5.1422L17.1217 6.5822L14.6917 9.0222C14.5417 9.1722 14.4217 9.4022 14.4217 9.6222C14.4217 10.1222 14.7817 10.4622 15.2617 10.4622C15.5317 10.4622 15.7217 10.3722 15.9017 10.2022L18.3117 7.7822L19.7717 6.2422L19.6317 7.7822V9.2022C19.6317 9.7122 19.9617 10.0822 20.4517 10.0822ZM7.1817 11.5122C6.6917 11.5122 6.3617 11.8822 6.3617 12.4022V17.0322C6.3617 17.6722 6.7217 17.9422 7.2917 17.9422H11.9517C12.4617 17.9422 12.8117 17.6122 12.8117 17.1222C12.8117 16.6322 12.4617 16.2922 11.9317 16.2922H10.3917L8.9517 16.4422L10.5117 15.0022L12.9417 12.5622C13.0917 12.4122 13.2117 12.1922 13.2117 11.9622C13.2117 11.4522 12.8717 11.1222 12.3717 11.1222C12.1017 11.1222 11.9017 11.2122 11.7417 11.3822L9.3117 13.7922L7.8617 15.3422L8.0117 13.8022V12.3722C8.0117 11.8622 7.6717 11.5122 7.1817 11.5122Z" />
        </svg>
    