
        <svg xmlns="http://www.w3.org/2000/svg" viewBox="0 0 100 100">
            <path d="M0.0017 6.5716C0.0017 11.3216 4.3817 15.9616 10.5917 20.0616C10.7417 20.1716 10.9717 20.2616 11.1317 20.2616C11.3117 20.2616 11.5217 20.1716 11.6817 20.0616C17.8817 15.9616 22.2617 11.3216 22.2617 6.5716C22.2617 2.7416 19.6217 0.0016 16.0617 0.0016C14.0117 0.0016 12.0717 1.1616 11.1317 2.9716C10.2117 1.1616 8.2517 0.0016 6.2017 0.0016C2.6517 0.0016 0.0017 2.7416 0.0017 6.5716ZM0.8817 6.5716C0.8817 3.2116 3.1317 0.8716 6.1917 0.8716C8.3317 0.8716 9.8017 2.1916 10.6717 3.7616C10.8317 4.0316 10.9617 4.1416 11.1317 4.1416C11.3117 4.1416 11.4217 4.0316 11.6017 3.7616C12.4717 2.1916 13.9317 0.8716 16.0817 0.8716C19.1417 0.8716 21.4017 3.2116 21.4017 6.5716C21.4017 11.0016 16.8317 15.5816 11.2817 19.2916C11.2217 19.3216 11.1817 19.3616 11.1317 19.3616C11.0817 19.3616 11.0417 19.3216 10.9817 19.2916C5.4417 15.5816 0.8817 11.0016 0.8817 6.5716ZM11.1817 6.2816C11.1817 6.0516 10.9917 5.8616 10.7617 5.8616C10.5217 5.8616 10.3317 6.0516 10.3317 6.2816V12.2016L10.3717 14.6216L8.1517 12.3716L7.3117 11.5116C7.2417 11.4416 7.1217 11.3816 7.0117 11.3816C6.7717 11.3816 6.6017 11.5516 6.6017 11.8016C6.6017 12.0116 6.7117 12.1016 6.8317 12.2216L10.4417 15.7616C10.5517 15.8516 10.6517 15.9016 10.7617 15.9016C10.8617 15.9016 10.9817 15.8516 11.0717 15.7616L14.6817 12.2216C14.8017 12.1016 14.9217 12.0116 14.9217 11.8016C14.9217 11.5516 14.7417 11.3816 14.5117 11.3816C14.3917 11.3816 14.2717 11.4416 14.2017 11.5116L13.3617 12.3716L11.1417 14.6216L11.1817 12.2016Z" />
        </svg>
    