
        <svg xmlns="http://www.w3.org/2000/svg" viewBox="0 0 100 100">
            <path d="M2.2417 -0.0047C0.8717 -0.0047 0.2917 1.1353 0.1517 2.0153C0.0217 2.8253 0.0017 3.5153 0.0017 4.1953C0.0017 9.2253 2.3317 11.9253 7.3317 11.9253H13.7217L16.2817 11.7853L14.2617 13.5653L11.6417 16.1853C11.2517 16.5553 10.9717 17.0153 10.9717 17.6453C10.9717 18.7353 11.7817 19.5753 12.9817 19.5753C13.4717 19.5753 13.9817 19.3553 14.4017 18.9353L21.9517 11.3953C22.3217 11.0253 22.5617 10.4453 22.5617 9.8953C22.5617 9.3353 22.3217 8.7453 21.9517 8.3753L14.4017 0.8453C13.9817 0.4253 13.4717 0.2153 12.9817 0.2153C11.7817 0.2153 10.9717 1.0453 10.9717 2.1353C10.9717 2.7653 11.2517 3.2353 11.6417 3.5953L14.2617 6.2153L16.2917 7.9953L13.7217 7.8353H7.6917C5.1017 7.8353 4.1017 6.7953 4.1017 4.1853C4.1017 3.2553 4.1817 2.5553 4.1817 2.0053C4.1817 0.7953 3.4217 -0.0047 2.2417 -0.0047Z" />
        </svg>
    