
        <svg xmlns="http://www.w3.org/2000/svg" viewBox="0 0 100 100">
            <path d="M11.4923 22.977C17.8323 22.977 22.9823 17.847 22.9823 11.497C22.9823 5.147 17.8323 -0.003 11.4923 -0.003C5.1423 -0.003 0.0023 5.147 0.0023 11.497C0.0023 17.847 5.1423 22.977 11.4923 22.977ZM11.4923 22.087C5.6323 22.087 0.8923 17.357 0.8923 11.497C0.8923 5.637 5.6323 0.887 11.4923 0.887C17.3523 0.887 22.0923 5.637 22.0923 11.497C22.0923 17.357 17.3523 22.087 11.4923 22.087ZM6.4223 16.227C6.6423 16.227 6.8223 16.067 6.8223 15.847V7.127C6.8223 6.887 6.6423 6.727 6.4223 6.727C6.1923 6.727 6.0223 6.887 6.0223 7.127V15.847C6.0223 16.067 6.1923 16.227 6.4223 16.227ZM18.2323 11.487C18.2323 11.247 18.0723 11.087 17.8323 11.087H11.4023L9.2123 11.137L11.4623 8.937L12.8523 7.567C12.9623 7.487 13.0223 7.367 13.0223 7.227C13.0223 6.987 12.8423 6.817 12.6223 6.817C12.4923 6.817 12.3623 6.887 12.2923 6.987L8.1123 11.177C8.0123 11.257 7.9723 11.377 7.9723 11.487C7.9723 11.587 8.0123 11.707 8.1123 11.787L12.2423 15.937C12.3523 16.027 12.4723 16.137 12.6323 16.137C12.8523 16.137 13.0223 15.987 13.0223 15.737C13.0223 15.587 12.9623 15.477 12.8523 15.387L11.4223 13.977L9.2123 11.837L11.4023 11.887H17.8323C18.0723 11.887 18.2323 11.727 18.2323 11.487Z" />
        </svg>
    