
        <svg xmlns="http://www.w3.org/2000/svg" viewBox="0 0 100 100">
            <path d="M12.2223 24.4436C18.9723 24.4436 24.4423 18.9736 24.4423 12.2236C24.4423 5.4736 18.9723 0.0036 12.2223 0.0036C5.4723 0.0036 0.0023 5.4736 0.0023 12.2236C0.0023 18.9736 5.4723 24.4436 12.2223 24.4436ZM12.2223 21.7636C6.9523 21.7636 2.6823 17.4936 2.6823 12.2236C2.6823 6.9536 6.9523 2.6836 12.2223 2.6836C17.4923 2.6836 21.7623 6.9536 21.7623 12.2236C21.7623 17.4936 17.4923 21.7636 12.2223 21.7636ZM7.5623 13.0536L13.9423 16.8136C14.6523 17.2336 15.4523 16.8836 15.4523 16.1036V8.3336C15.4523 7.5536 14.6223 7.2236 13.9423 7.6136L7.5623 11.3936C6.9223 11.7636 6.9123 12.6636 7.5623 13.0536Z" />
        </svg>
    