
        <svg xmlns="http://www.w3.org/2000/svg" viewBox="0 0 100 100">
            <path d="M3.9717 22.1117H18.1317C20.7317 22.1117 22.1017 20.7417 22.1017 18.1717V3.9417C22.1017 1.3717 20.7317 0.0017 18.1317 0.0017H3.9717C1.3817 0.0017 0.0017 1.3717 0.0017 3.9417V18.1717C0.0017 20.7417 1.3817 22.1117 3.9717 22.1117ZM18.0617 12.0817C18.0617 12.5817 17.6417 13.0117 17.1417 12.9917L12.9217 12.9517C12.6917 12.9417 12.4617 12.8417 12.3017 12.6817C11.9417 12.3417 11.9417 11.8317 12.2917 11.4817C12.4717 11.3117 12.6817 11.2117 12.9017 11.2217L14.6517 11.2517L15.1217 11.2717L14.6717 10.8517L9.4217 5.5917C9.0717 5.2417 9.0617 4.7117 9.4217 4.3617C9.7617 4.0117 10.2917 4.0117 10.6417 4.3617L15.9117 9.6117L16.3117 10.0517L16.3017 9.6017L16.2817 7.8517C16.2617 7.6217 16.3617 7.4017 16.5317 7.2417C16.8917 6.8917 17.3917 6.8917 17.7417 7.2417C17.9017 7.3917 18.0017 7.6517 18.0017 7.8717ZM4.1217 10.0417C4.1217 9.5317 4.5317 9.1417 5.0317 9.1417L9.2617 9.1917C9.4717 9.1917 9.7117 9.2817 9.8817 9.4417C10.2417 9.8017 10.2417 10.3017 9.8817 10.6517C9.7017 10.8317 9.5017 10.9217 9.2817 10.9117L7.5217 10.8717L7.0517 10.8617L7.5017 11.2817L12.7617 16.5517C13.1117 16.8817 13.1117 17.4017 12.7617 17.7617C12.4117 18.1217 11.8817 18.1317 11.5317 17.7617L6.2717 12.5117L5.8517 12.0717L5.8717 12.5317L5.8917 14.2717C5.9017 14.5217 5.8217 14.7217 5.6517 14.8917C5.3017 15.2417 4.7917 15.2417 4.4317 14.8917C4.2817 14.7417 4.1917 14.4917 4.1817 14.2617Z" />
        </svg>
    