
        <svg xmlns="http://www.w3.org/2000/svg" viewBox="0 0 100 100">
            <path d="M0.0017 25.9572C0.0017 28.4872 1.3017 29.7972 3.8117 29.7972H14.7817C17.2817 29.7972 18.5717 28.4772 18.5717 25.9572V23.7872H20.5617C23.0717 23.7872 24.3717 22.4772 24.3717 19.9472V3.8472C24.3717 1.3172 23.0717 -0.0028 20.5617 -0.0028H9.6017C7.1017 -0.0028 5.7917 1.2972 5.7917 3.8472V5.9972H3.8117C1.3017 5.9972 0.0017 7.3172 0.0017 9.8472ZM11.5217 3.4472V3.1772C11.5217 2.8272 11.7817 2.4372 12.3117 2.4372H17.8617C18.4017 2.4372 18.6517 2.8272 18.6517 3.1772V3.4472C18.6517 3.8272 18.3717 4.1872 17.8617 4.1872H12.3117C11.7917 4.1872 11.5217 3.8272 11.5217 3.4472ZM2.3017 25.8172V9.9872C2.3017 8.8972 2.8617 8.2972 3.9917 8.2972H14.5817C15.7117 8.2972 16.2817 8.8972 16.2817 9.9872V25.8172C16.2817 26.9072 15.7117 27.5072 14.5817 27.5072H3.9917C2.8617 27.5072 2.3017 26.9072 2.3017 25.8172ZM9.3017 12.9572C9.0717 12.9572 8.8517 13.0572 8.6017 13.2772L5.4517 16.3272C5.2717 16.4872 5.1817 16.6772 5.1817 16.9172C5.1817 17.3872 5.5517 17.7372 6.0117 17.7372C6.2317 17.7372 6.4817 17.6372 6.6417 17.4572L8.0117 15.9972L8.4417 15.4872L8.3717 16.7572V21.9272C8.3717 22.4172 8.8017 22.8372 9.3017 22.8372C9.8117 22.8372 10.2417 22.4172 10.2417 21.9272V16.7572L10.1817 15.4872L10.5917 15.9972L11.9617 17.4572C12.1317 17.6372 12.3617 17.7372 12.6017 17.7372C13.0417 17.7372 13.4417 17.3872 13.4417 16.9172C13.4417 16.6772 13.3317 16.4872 13.1617 16.3272L10.0117 13.2772C9.7717 13.0572 9.5417 12.9572 9.3017 12.9572Z" />
        </svg>
    