
        <svg xmlns="http://www.w3.org/2000/svg" viewBox="0 0 100 100">
            <path d="M3.6817 21.5722H17.8917C20.3517 21.5722 21.5717 20.3722 21.5717 17.9522V3.6322C21.5717 1.2222 20.3517 0.0022 17.8917 0.0022H3.6817C1.2317 0.0022 0.0017 1.2222 0.0017 3.6322V17.9522C0.0017 20.3722 1.2317 21.5722 3.6817 21.5722ZM3.7017 19.6922C2.5317 19.6922 1.8917 19.0622 1.8917 17.8522V3.7422C1.8917 2.5222 2.5317 1.8822 3.7017 1.8822H17.8717C19.0317 1.8822 19.6917 2.5222 19.6917 3.7422V17.8522C19.6917 19.0622 19.0317 19.6922 17.8717 19.6922ZM10.8017 4.8722C10.5717 4.8722 10.3617 4.9422 10.1217 5.1822L6.2717 8.9022C6.0817 9.0822 5.9917 9.2722 5.9917 9.5322C5.9917 9.9922 6.3417 10.3522 6.8317 10.3522C7.0517 10.3522 7.3117 10.2522 7.4717 10.0622L9.2617 8.1522L9.9517 7.4422L9.8817 9.1922V15.7822C9.8817 16.2822 10.3017 16.6922 10.8017 16.6922C11.3117 16.6922 11.7417 16.2822 11.7417 15.7822V9.1922L11.6617 7.4422L12.3517 8.1522L14.1317 10.0622C14.3017 10.2522 14.5417 10.3522 14.7617 10.3522C15.2617 10.3522 15.6217 9.9922 15.6217 9.5322C15.6217 9.2722 15.5317 9.0822 15.3517 8.9022L11.4817 5.1822C11.2517 4.9422 11.0517 4.8722 10.8017 4.8722Z" />
        </svg>
    