
        <svg xmlns="http://www.w3.org/2000/svg" viewBox="0 0 100 100">
            <path d="M3.8417 21.8745H18.0317C20.5617 21.8745 21.8817 20.5745 21.8817 18.0745V3.8045C21.8817 1.3145 20.5617 0.0045 18.0317 0.0045H3.8417C1.3117 0.0045 0.0017 1.3045 0.0017 3.8045V18.0745C0.0017 20.5745 1.3117 21.8745 3.8417 21.8745ZM3.9817 19.5845C2.8917 19.5845 2.3017 19.0145 2.3017 17.8845V4.0045C2.3017 2.8745 2.8917 2.2945 3.9817 2.2945H17.8917C18.9717 2.2945 19.5817 2.8745 19.5817 4.0045V17.8845C19.5817 19.0145 18.9717 19.5845 17.8917 19.5845ZM10.9617 16.8445C11.2417 16.8445 11.4817 16.7445 11.7617 16.4745L15.5817 12.7945C15.7717 12.5945 15.8917 12.3845 15.8917 12.1045C15.8917 11.5645 15.4617 11.1945 14.9317 11.1945C14.6717 11.1945 14.4017 11.2945 14.2117 11.5045L12.5717 13.2545L11.9317 14.0145L12.0217 12.2945V6.0745C12.0217 5.5045 11.5417 5.0245 10.9617 5.0245C10.3717 5.0245 9.8917 5.5045 9.8917 6.0745V12.2945L9.9717 14.0145L9.3417 13.2545L7.6917 11.5045C7.5017 11.2945 7.2317 11.1945 6.9617 11.1945C6.4317 11.1945 6.0117 11.5645 6.0117 12.1045C6.0117 12.3845 6.1317 12.5945 6.3317 12.7945L10.1517 16.4745C10.4217 16.7445 10.6717 16.8445 10.9617 16.8445Z" />
        </svg>
    