
        <svg xmlns="http://www.w3.org/2000/svg" viewBox="0 0 100 100">
            <path d="M23.5823 21.1197C27.3023 21.1197 30.2623 18.3797 30.2623 14.9497C30.2623 12.4297 28.8323 10.1697 26.4823 9.1997C26.4823 3.8597 22.6323 -0.0003 17.6523 -0.0003C14.5523 -0.0003 12.1723 1.5597 10.6623 3.7297C7.6323 2.9697 4.5123 5.1897 4.3723 8.5097C1.6623 9.0197 0.0023 11.4597 0.0023 14.4397C0.0023 18.0797 3.1923 21.1197 7.3523 21.1197ZM23.5823 18.5197L7.3623 18.4997C4.6623 18.4997 2.6523 16.6297 2.6523 14.4397C2.6523 12.1097 4.1123 10.4397 6.4523 10.4397C6.6223 10.4397 6.7023 10.3497 6.6923 10.1697C6.5723 6.7497 9.0123 5.5097 11.6023 6.2897C11.7523 6.3397 11.8523 6.2997 11.9323 6.1797C13.1023 4.1397 14.7823 2.6097 17.6223 2.6097C21.2223 2.6097 23.8023 5.4497 23.9723 8.8097C24.0123 9.4897 23.9623 10.2097 23.9023 10.7797C23.8823 10.9597 23.9523 11.0497 24.1123 11.0697C26.2423 11.4497 27.6023 12.9097 27.6023 14.9497C27.6023 16.9197 25.8423 18.5197 23.5823 18.5197ZM12.4123 8.9697C12.7123 9.3397 13.1723 9.3897 13.6323 9.0797C14.2223 8.6297 14.8223 8.3997 15.5723 8.3997C17.1923 8.3997 18.5123 9.4597 18.9423 10.8797H18.0923C17.6123 10.8797 17.4623 11.3597 17.7523 11.7297L19.2323 13.7497C19.5023 14.1097 19.9823 14.1097 20.2523 13.7497L21.7223 11.7297C21.9923 11.3397 21.8523 10.8797 21.3823 10.8797H20.5823C20.1223 8.4597 18.1023 6.7597 15.5723 6.7597C14.4723 6.7597 13.4323 7.1097 12.7023 7.6997C12.2123 8.0697 12.1023 8.5797 12.4123 8.9697ZM9.4023 11.8597C9.1323 12.2297 9.2723 12.6997 9.7423 12.6997H10.5823C11.0523 15.1297 13.0523 16.8297 15.5823 16.8297C16.6923 16.8297 17.7223 16.4797 18.4723 15.8897C18.9623 15.5297 19.0623 14.9997 18.7623 14.6297C18.4523 14.2497 18.0023 14.1897 17.5323 14.4997C16.9323 14.9397 16.3323 15.1797 15.5823 15.1797C13.9823 15.1797 12.6423 14.1297 12.2223 12.6997H13.0323C13.5123 12.6997 13.6623 12.2297 13.3723 11.8597L11.8923 9.8397C11.6223 9.4797 11.1423 9.4697 10.8723 9.8397Z" />
        </svg>
    