
        <svg xmlns="http://www.w3.org/2000/svg" viewBox="0 0 100 100">
            <path d="M12.7923 27.3721C19.8723 27.3721 25.6023 21.6221 25.6023 14.5721C25.6023 8.5721 21.4423 3.5121 15.8523 2.1521V1.0121C15.8523 -0.0179 14.8523 -0.2679 14.1523 0.2821L10.1223 3.4521C9.6523 3.8021 9.6523 4.4921 10.1223 4.8521L14.1523 8.0121C14.8523 8.5521 15.8523 8.3121 15.8523 7.2921V6.4921C19.1223 7.7421 21.4323 10.8721 21.4323 14.5721C21.4323 19.3421 17.5623 23.1921 12.7923 23.1921C8.0323 23.1921 4.1723 19.3421 4.1723 14.5721C4.1723 12.2721 4.9923 10.3521 6.5123 8.6721C7.3723 7.6921 7.6623 6.4521 6.7423 5.5021C5.9323 4.6821 4.6323 4.6321 3.5723 5.7121C1.1923 8.1421 0.0023 11.4321 0.0023 14.5721C0.0023 21.6221 5.7323 27.3721 12.7923 27.3721Z" />
        </svg>
    