
        <svg xmlns="http://www.w3.org/2000/svg" viewBox="0 0 100 100">
            <path d="M0.0023 14.2994C0.0023 17.8094 1.5223 20.9994 3.9723 23.1894C4.5023 23.6694 5.1923 23.5094 5.5123 23.0594C5.7823 22.6894 5.8023 22.1694 5.2823 21.6894C3.2423 19.8694 1.9923 17.2194 1.9923 14.2994C1.9923 9.4594 5.4423 5.4394 10.0123 4.5594V6.2094C10.0123 7.0294 10.5823 7.2594 11.2123 6.8094L14.9523 4.1894C15.4923 3.8094 15.5023 3.2494 14.9523 2.8594L11.2223 0.2394C10.5823 -0.2206 10.0123 -0.0106 10.0123 0.8294V2.5194C4.3323 3.4394 0.0023 8.3694 0.0023 14.2994ZM23.9023 14.2994C23.9023 10.7794 22.3823 7.5994 19.9323 5.3994C19.4023 4.9194 18.7123 5.0894 18.4023 5.5194C18.1323 5.9094 18.1023 6.4094 18.6323 6.8894C20.6623 8.7294 21.9123 11.3694 21.9123 14.2994C21.9123 19.1394 18.4723 23.1594 13.9023 24.0394V22.3794C13.9023 21.5494 13.3223 21.3394 12.6923 21.7894L8.9523 24.4094C8.4123 24.7894 8.4023 25.3494 8.9523 25.7394L12.6823 28.3494C13.3223 28.8194 13.9023 28.5994 13.9023 27.7494V26.0794C19.5723 25.1594 23.9023 20.2294 23.9023 14.2994Z" />
        </svg>
    