
        <svg xmlns="http://www.w3.org/2000/svg" viewBox="0 0 100 100">
            <path d="M16.8917 12.735L16.8417 0.485C16.8417 0.195 16.6417 -0.005 16.3617 -0.005H4.0917C3.8117 -0.005 3.6117 0.215 3.6117 0.455C3.6117 0.705 3.8217 0.895 4.0817 0.895H10.4717L15.4617 0.825L13.5517 2.645L0.1417 16.055C0.0517 16.145 0.0017 16.265 0.0017 16.375C0.0017 16.615 0.2117 16.835 0.4717 16.835C0.5817 16.835 0.6817 16.795 0.7817 16.685L14.1917 3.295L16.0117 1.395L15.9517 5.365V12.745C15.9517 13.005 16.1517 13.235 16.4017 13.235C16.6717 13.235 16.8917 13.015 16.8917 12.735Z" />
        </svg>
    