
        <svg xmlns="http://www.w3.org/2000/svg" viewBox="0 0 100 100">
            <path d="M18.3094 18.028C18.3094 17.728 18.1894 17.518 18.0194 17.168L10.1494 0.798C9.8794 0.248 9.5694 -0.002 9.1494 -0.002C8.7294 -0.002 8.4294 0.248 8.1694 0.798L0.2794 17.168C0.1194 17.528 -0.0006 17.728 -0.0006 18.028C-0.0006 18.588 0.4094 18.948 1.0994 18.948H17.2194C17.8994 18.948 18.3094 18.588 18.3094 18.028ZM17.3394 17.848C17.3394 17.988 17.2394 18.068 17.0294 18.068H1.2794C1.0594 18.068 0.9694 17.988 0.9694 17.848C0.9694 17.738 1.0194 17.648 1.0694 17.558L8.8194 1.348C8.8794 1.218 8.9994 1.068 9.1494 1.068C9.3094 1.068 9.4194 1.218 9.4894 1.348L17.2394 17.558C17.2894 17.648 17.3394 17.738 17.3394 17.848Z" />
        </svg>
    