
        <svg xmlns="http://www.w3.org/2000/svg" viewBox="0 0 100 100">
            <path d="M3.6817 21.5722H23.9517C26.4117 21.5722 27.6317 20.3722 27.6317 17.9522V3.6322C27.6317 1.2222 26.4117 0.0022 23.9517 0.0022H3.6817C1.2317 0.0022 0.0017 1.2222 0.0017 3.6322V17.9522C0.0017 20.3722 1.2317 21.5722 3.6817 21.5722ZM6.9817 10.0622C6.4717 10.0622 6.1317 9.6722 6.1317 9.1322V4.3722C6.1317 3.7022 6.5117 3.4122 7.0917 3.4122H11.8917C12.4217 3.4122 12.7817 3.7622 12.7817 4.2822C12.7817 4.7922 12.4217 5.1322 11.8717 5.1322H10.3017L8.8117 4.9822L10.4317 6.4722L12.9117 8.9622C13.0617 9.1322 13.1917 9.3522 13.1917 9.5822C13.1917 10.1122 12.8417 10.4622 12.3317 10.4622C12.0517 10.4622 11.8517 10.3622 11.6717 10.1922L9.1917 7.7122L7.6917 6.1322L7.8517 7.7022V9.1522C7.8517 9.6922 7.5017 10.0622 6.9817 10.0622ZM20.6517 11.5222C21.1617 11.5222 21.5117 11.9022 21.5117 12.4422V17.2122C21.5117 17.8822 21.1217 18.1622 20.5417 18.1622H15.7517C15.2217 18.1622 14.8517 17.8222 14.8517 17.3122C14.8517 16.7922 15.2217 16.4422 15.7717 16.4422H17.3317L18.8317 16.6022L17.2017 15.1122L14.7217 12.6222C14.5617 12.4522 14.4417 12.2322 14.4417 12.0022C14.4417 11.4622 14.8017 11.1222 15.3017 11.1222C15.5817 11.1222 15.7817 11.2222 15.9717 11.3922L18.4417 13.8622L19.9417 15.4522L19.7917 13.8822V12.4222C19.7917 11.8822 20.1317 11.5222 20.6517 11.5222Z" />
        </svg>
    