
        <svg xmlns="http://www.w3.org/2000/svg" viewBox="0 0 100 100">
            <path d="M16.7217 21.7611C16.7217 23.5911 18.0117 24.8111 19.9217 24.8111H28.6017C30.5117 24.8111 31.7917 23.5911 31.7917 21.7611V3.0511C31.7917 1.2211 30.5117 0.0011 28.6017 0.0011H19.9217C18.0117 0.0011 16.7217 1.2211 16.7217 3.0511ZM18.6117 21.4611V3.3511C18.6117 2.4111 19.1717 1.8911 20.1517 1.8911H28.3617C29.3417 1.8911 29.9017 2.4111 29.9017 3.3511V21.4611C29.9017 22.3911 29.3417 22.9211 28.3617 22.9211H20.1517C19.1717 22.9211 18.6117 22.3911 18.6117 21.4611ZM1.0417 22.0211C1.6517 22.0211 2.0817 21.6011 2.0817 20.9911V19.2111C2.0817 14.8511 4.7417 13.4411 8.1517 13.4411H8.9317L11.4417 13.3611L8.9917 15.5811L7.7017 16.6911C7.4317 16.9111 7.3617 17.2011 7.3617 17.4811C7.3617 18.0611 7.8017 18.4911 8.3817 18.4911C8.6617 18.4911 8.9017 18.3911 9.1617 18.1411L14.1217 13.1911C14.3517 12.9711 14.4817 12.7011 14.4817 12.4111C14.4817 12.1211 14.3517 11.8511 14.1217 11.6211L9.1417 6.6611C8.9017 6.4211 8.6617 6.3311 8.3817 6.3311C7.8017 6.3311 7.3617 6.7511 7.3617 7.3311C7.3617 7.6211 7.4317 7.9111 7.7017 8.1311L8.9917 9.2311L11.4417 11.4611L8.9317 11.3811H8.1517C3.9917 11.3811 0.0017 13.2911 0.0017 19.2111V20.9911C0.0017 21.6011 0.4317 22.0211 1.0417 22.0211Z" />
        </svg>
    