
        <svg xmlns="http://www.w3.org/2000/svg" viewBox="0 0 100 100">
            <path d="M4.7023 25.0148C6.1323 25.0148 9.5623 23.5048 11.6723 22.0148C11.8923 21.8548 12.0823 21.7948 12.2723 21.8048C12.4123 21.8048 12.5523 21.8248 12.6823 21.8248C21.1423 21.8248 27.1423 17.1748 27.1423 10.9148C27.1423 4.8648 21.1023 0.0048 13.5723 0.0048C6.0323 0.0048 0.0023 4.8648 0.0023 10.9148C0.0023 14.6848 2.2723 18.0448 6.1023 20.1248C6.3323 20.2348 6.3823 20.4148 6.2723 20.6248C5.5923 21.7548 4.4523 23.0248 3.9823 23.6248C3.4723 24.2848 3.7623 25.0148 4.7023 25.0148ZM13.5823 17.1548C13.2823 17.1548 13.0223 17.0648 12.7223 16.7648L8.7523 12.9448C8.5523 12.7548 8.4423 12.5248 8.4423 12.2248C8.4423 11.6748 8.8823 11.2748 9.4223 11.2748C9.7023 11.2748 9.9923 11.3748 10.1823 11.6048L11.8923 13.4048L12.5523 14.2048L12.4523 12.3948V5.9648C12.4523 5.3648 12.9623 4.8648 13.5823 4.8648C14.2023 4.8648 14.7023 5.3648 14.7023 5.9648V12.3948L14.6123 14.2048L15.2623 13.4048L16.9723 11.6048C17.1523 11.3748 17.4423 11.2748 17.7223 11.2748C18.2623 11.2748 18.7123 11.6748 18.7123 12.2248C18.7123 12.5248 18.6023 12.7548 18.4023 12.9448L14.4223 16.7648C14.1323 17.0648 13.8723 17.1548 13.5823 17.1548Z" />
        </svg>
    