
        <svg xmlns="http://www.w3.org/2000/svg" viewBox="0 0 100 100">
            <path d="M12.7923 25.5978C19.8723 25.5978 25.6023 19.8678 25.6023 12.7978C25.6023 5.7278 19.8723 -0.0022 12.7923 -0.0022C5.7323 -0.0022 0.0023 5.7278 0.0023 12.7978C0.0023 19.8678 5.7323 25.5978 12.7923 25.5978ZM12.7923 21.4178C8.0323 21.4178 4.1723 17.5678 4.1723 12.7978C4.1723 8.0278 8.0323 4.1678 12.7923 4.1678C17.5623 4.1678 21.4323 8.0278 21.4323 12.7978C21.4323 17.5678 17.5623 21.4178 12.7923 21.4178ZM14.2923 6.8078C11.5223 6.8078 9.6723 8.7378 9.6723 11.5878V14.9078L9.7523 15.6178L9.2923 14.9378L8.3523 13.8878C8.1423 13.6478 7.8623 13.5478 7.5923 13.5478C6.9923 13.5478 6.4523 14.0978 6.4523 14.6878C6.4523 14.9578 6.5623 15.2378 6.7823 15.4378L9.9823 18.6078C10.2023 18.8178 10.4723 18.9378 10.7823 18.9378C11.0523 18.9378 11.3423 18.8278 11.5623 18.6078L14.7523 15.4378C14.9623 15.2178 15.0723 14.9378 15.0723 14.6478C15.0723 14.0778 14.5423 13.5078 13.9323 13.5078C13.6623 13.5078 13.3823 13.6278 13.1823 13.8878L12.3523 14.9778L11.9023 15.6178L12.0023 14.9078V11.5878C12.0023 10.2578 12.9023 9.3678 14.2823 9.3678C15.6323 9.3678 16.5323 10.2278 16.5323 11.5678V13.2978C16.5323 14.1278 17.0123 14.6978 17.7523 14.6978C18.5123 14.6978 19.0323 14.1478 19.0323 13.3078V11.5678C19.0323 8.7278 17.1323 6.8078 14.2923 6.8078Z" />
        </svg>
    