
        <svg xmlns="http://www.w3.org/2000/svg" viewBox="0 0 100 100">
            <path d="M0.5717 16.9906V8.7606C0.5817 8.8006 0.6117 8.8206 0.6417 8.8606L8.6117 16.8706C8.7217 16.9806 8.8017 17.0706 8.9517 17.0706C9.1317 17.0706 9.2317 16.9406 9.2317 16.7706C9.2317 16.6606 9.2017 16.5706 9.1217 16.4906L4.0117 11.4306L1.4517 8.8906L4.0317 8.9306H19.7917C19.9717 8.9306 20.0717 8.8106 20.0717 8.6406C20.0717 8.4706 19.9717 8.3506 19.7917 8.3506H4.0317L1.4517 8.3906L4.0117 5.8606L9.1217 0.7706C9.2017 0.7006 9.2317 0.6006 9.2317 0.5006C9.2317 0.3306 9.1317 0.2006 8.9517 0.2006C8.8017 0.2006 8.7217 0.2906 8.6117 0.3906L0.6417 8.4306C0.6117 8.4606 0.5817 8.4806 0.5717 8.5206V0.2906C0.5717 0.1206 0.4617 0.0006 0.2817 0.0006C0.1217 0.0006 0.0017 0.1206 0.0017 0.2906V16.9906C0.0017 17.1706 0.1217 17.2806 0.2817 17.2806C0.4617 17.2806 0.5717 17.1706 0.5717 16.9906Z" />
        </svg>
    