
        <svg xmlns="http://www.w3.org/2000/svg" viewBox="0 0 100 100">
            <path d="M0.0017 13.2923C0.0017 14.1423 0.6717 14.8023 1.4517 14.8023C2.2417 14.8023 2.8717 14.1323 2.8717 13.3123V8.8923L2.6817 4.5323L4.5617 6.6323L15.3917 17.4523C15.7017 17.7623 16.0617 17.9323 16.4517 17.9323C17.2417 17.9323 17.9417 17.2023 17.9417 16.4423C17.9417 16.0623 17.7617 15.6823 17.4617 15.3723L6.6417 4.5423L4.5517 2.6823L9.0817 2.8523H13.3317C14.1417 2.8523 14.8117 2.2123 14.8117 1.4423C14.8117 0.6523 14.1817 0.0023 13.3117 0.0023H1.5517C0.6217 0.0023 0.0117 0.6223 0.0117 1.5323Z" />
        </svg>
    