
        <svg xmlns="http://www.w3.org/2000/svg" viewBox="0 0 100 100">
            <path d="M21.3323 15.2936C21.3323 9.3936 16.5623 4.6336 10.6623 4.6336C10.2823 4.6336 9.9023 4.6736 9.5723 4.7336L11.9023 2.4836C12.1623 2.2236 12.3123 1.9136 12.3123 1.5036C12.3123 0.6636 11.6723 0.0036 10.8623 0.0036C10.4523 0.0036 10.1023 0.1536 9.8423 0.4336L5.0523 5.3036C4.7623 5.6136 4.5823 5.9836 4.5823 6.3936C4.5823 6.8236 4.7323 7.1736 5.0523 7.4836L9.8423 12.3436C10.1123 12.5936 10.4423 12.7336 10.8523 12.7336C11.6723 12.7336 12.3123 12.0936 12.3123 11.2736C12.3123 10.8636 12.1623 10.5536 11.9023 10.3036L9.3323 7.7536C9.7123 7.6736 10.1723 7.6436 10.6623 7.6436C14.8823 7.6436 18.3123 11.0636 18.3123 15.2936C18.3123 19.5136 14.8823 22.9336 10.6623 22.9336C6.4423 22.9336 3.0123 19.5136 3.0123 15.2936C3.0123 14.3636 2.4023 13.7336 1.5323 13.7336C0.6323 13.7336 0.0023 14.3636 0.0023 15.2936C0.0023 21.1836 4.7723 25.9536 10.6623 25.9536C16.5623 25.9536 21.3323 21.1836 21.3323 15.2936Z" />
        </svg>
    