
        <svg xmlns="http://www.w3.org/2000/svg" viewBox="0 0 100 100">
            <path d="M4.3236 19.1134H16.8736C19.6036 19.1134 21.2036 17.5634 21.2036 14.8334V12.7934L25.8536 16.6534C26.2936 17.0134 26.7636 17.2634 27.2336 17.2634C28.1336 17.2634 28.7336 16.6034 28.7336 15.6134V3.5134C28.7336 2.5234 28.1336 1.8634 27.2336 1.8634C26.7636 1.8634 26.2936 2.1134 25.8536 2.4734L21.2036 6.3234V4.2934C21.2036 1.5634 19.6036 0.0034 16.8736 0.0034H4.3236C1.6736 0.0034 0.0036 1.5634 0.0036 4.2934V14.8334C0.0036 17.5634 1.5936 19.1134 4.3236 19.1134ZM4.5836 17.7534C2.5536 17.7534 1.4536 16.7134 1.4536 14.6034V4.5234C1.4536 2.4034 2.5536 1.3634 4.5836 1.3634H16.6136C18.6436 1.3634 19.7436 2.4034 19.7436 4.5234V14.6034C19.7436 16.7134 18.6436 17.7534 16.6136 17.7534ZM26.5636 15.4434L21.2036 11.0834V8.0434L26.5636 3.6834C26.7436 3.5434 26.8736 3.4434 27.0236 3.4434C27.2236 3.4434 27.3436 3.5934 27.3436 3.8634V15.2434C27.3436 15.5134 27.2236 15.6634 27.0236 15.6634C26.8736 15.6634 26.7436 15.5734 26.5636 15.4434ZM14.6036 5.0034C14.3936 5.0034 14.2536 5.0734 14.1236 5.2034L8.8936 10.4534L7.0536 12.3934L7.2236 9.0934V6.9134C7.2236 6.5634 6.9636 6.2734 6.5936 6.2734C6.2136 6.2734 5.9336 6.5534 5.9336 6.9134V13.6434C5.9336 14.1134 6.1536 14.3434 6.6436 14.3434H13.4036C13.7836 14.3434 14.0636 14.0434 14.0636 13.6734C14.0636 13.3034 13.7736 13.0434 13.4036 13.0434H11.1636L7.8636 13.2234L9.8336 11.3834L15.0436 6.1434C15.2036 5.9834 15.2836 5.8334 15.2836 5.6334C15.2836 5.2734 14.9836 5.0034 14.6036 5.0034Z" />
        </svg>
    