
        <svg xmlns="http://www.w3.org/2000/svg" viewBox="0 0 100 100">
            <path d="M12.6023 25.1969C19.5623 25.1969 25.2023 19.5569 25.2023 12.5969C25.2023 5.6369 19.5623 -0.0031 12.6023 -0.0031C5.6523 -0.0031 0.0023 5.6369 0.0023 12.5969C0.0023 19.5569 5.6523 25.1969 12.6023 25.1969ZM12.6023 19.6369C12.3023 19.6369 11.9423 19.5069 11.6923 19.2469L7.0423 14.2069C6.6523 13.8069 6.4923 13.4669 6.4923 13.0469C6.4923 12.3769 6.9923 11.8569 7.6623 11.8569H9.5623V7.4169C9.5623 6.2569 10.2223 5.5869 11.3823 5.5869H13.7823C14.9223 5.5869 15.6123 6.2569 15.6123 7.4169V11.8569H17.5223C18.1923 11.8569 18.7123 12.3769 18.7123 13.0569C18.7123 13.4569 18.5523 13.7569 18.1523 14.2069L13.5123 19.2469C13.2523 19.5269 12.9223 19.6369 12.6023 19.6369Z" />
        </svg>
    