
        <svg xmlns="http://www.w3.org/2000/svg" viewBox="0 0 100 100">
            <path d="M11.4923 22.977C17.8323 22.977 22.9823 17.847 22.9823 11.497C22.9823 5.147 17.8323 -0.003 11.4923 -0.003C5.1423 -0.003 0.0023 5.147 0.0023 11.497C0.0023 17.847 5.1423 22.977 11.4923 22.977ZM11.4923 22.087C5.6323 22.087 0.8923 17.357 0.8923 11.497C0.8923 5.637 5.6323 0.887 11.4923 0.887C17.3523 0.887 22.0923 5.637 22.0923 11.497C22.0923 17.357 17.3523 22.087 11.4923 22.087ZM5.7323 7.707C5.5823 7.867 5.5923 8.117 5.7323 8.287L9.0223 11.577C9.1123 11.667 9.2123 11.697 9.3423 11.697C9.5523 11.697 9.7223 11.527 9.7223 11.317C9.7223 11.217 9.6723 11.087 9.5823 11.007L7.9423 9.377L6.9123 8.367L7.9023 8.387H16.9423C17.1723 8.387 17.3423 8.227 17.3423 8.007C17.3423 7.777 17.1823 7.597 16.9423 7.597H7.9023L6.9123 7.627L7.9423 6.607L9.5823 4.997C9.6723 4.897 9.7223 4.777 9.7223 4.677C9.7223 4.467 9.5523 4.287 9.3423 4.287C9.2223 4.287 9.1123 4.337 9.0223 4.427ZM17.2223 15.327C17.3923 15.167 17.3823 14.927 17.2223 14.767L13.9423 11.477C13.8523 11.377 13.7623 11.347 13.6323 11.347C13.4023 11.347 13.2423 11.507 13.2423 11.727C13.2423 11.847 13.2923 11.957 13.3723 12.047L15.0223 13.667L16.0523 14.687L15.0723 14.647H6.0223C5.8023 14.647 5.6223 14.817 5.6223 15.037C5.6223 15.257 5.7923 15.447 6.0223 15.447H15.0723L16.0523 15.417L15.0223 16.427L13.3723 18.057C13.3023 18.137 13.2423 18.257 13.2423 18.367C13.2423 18.577 13.4223 18.747 13.6323 18.747C13.7423 18.747 13.8523 18.707 13.9423 18.617Z" />
        </svg>
    