
        <svg xmlns="http://www.w3.org/2000/svg" viewBox="0 0 100 100">
            <path d="M4.9223 26.9041C6.4023 26.9041 9.6123 25.5141 12.1023 23.7941C12.4023 23.5941 12.6223 23.5341 12.8923 23.5341C13.0223 23.5441 13.1223 23.5441 13.1823 23.5441C21.6823 23.5241 28.9323 19.4441 28.9323 11.7641C28.9323 5.2541 22.5023 0.0041 14.4723 0.0041C6.4323 0.0041 0.0023 5.2541 0.0023 11.7641C0.0023 15.5841 2.1423 19.1941 6.2423 21.4541C6.5823 21.6441 6.6423 21.8241 6.4923 22.1241C5.7023 23.4241 4.6523 24.6541 4.1523 25.3041C3.4323 26.1641 3.8523 26.9041 4.9223 26.9041ZM14.4723 5.5241C14.9223 5.5241 15.3523 5.6741 15.7823 6.0841L19.7223 9.8541C19.9923 10.1341 20.1523 10.4141 20.1523 10.8441C20.1523 11.6141 19.4623 12.1541 18.7723 12.1541C18.3623 12.1541 18.0023 11.9741 17.7323 11.6941L16.4623 10.3641L15.9523 9.4141L16.1023 11.1641V16.4841C16.1023 17.3541 15.3823 18.0941 14.4723 18.0941C13.5623 18.0941 12.8423 17.3541 12.8423 16.4841V11.1641L12.9823 9.4141L12.4823 10.3641L11.2123 11.6941C10.9423 11.9741 10.5823 12.1541 10.1723 12.1541C9.4723 12.1541 8.7923 11.6141 8.7923 10.8441C8.7923 10.4141 8.9423 10.1341 9.2123 9.8541L13.1523 6.0841C13.5823 5.6741 14.0323 5.5241 14.4723 5.5241Z" />
        </svg>
    