
        <svg xmlns="http://www.w3.org/2000/svg" viewBox="0 0 100 100">
            <path d="M14.3936 -0.0014C8.2736 -0.0014 3.1636 4.3686 2.0336 10.1486H0.9736C-0.0164 10.1486 -0.2564 11.0586 0.2836 11.7386L3.3136 15.6986C3.6736 16.1786 4.3336 16.1786 4.6936 15.6986L7.7336 11.7386C8.2436 11.0586 8.0136 10.1486 7.0436 10.1486H5.8036C6.8536 6.4086 10.3036 3.6586 14.3936 3.6586C16.3836 3.6586 18.1936 4.3386 19.6236 5.4586C20.7436 6.1886 21.7136 5.8586 22.2436 5.1786C22.8136 4.4386 22.8336 3.2486 21.8236 2.5386C19.7936 0.9586 17.2136 -0.0014 14.3936 -0.0014ZM14.3936 25.1986C20.5136 25.1986 25.6236 20.8286 26.7536 15.0386H27.8036C28.7936 15.0386 29.0336 14.1286 28.5136 13.4386L25.4636 9.4786C25.1136 8.9986 24.4536 9.0086 24.0936 9.4786L21.0536 13.4486C20.5436 14.1286 20.7736 15.0386 21.7436 15.0386H22.9836C21.9336 18.7886 18.4936 21.5386 14.3936 21.5386C12.4036 21.5386 10.5836 20.8586 9.1636 19.7386C8.0536 19.0086 7.0636 19.3386 6.5536 20.0086C5.9636 20.7586 5.9436 21.9386 6.9736 22.6486C8.9936 24.2386 11.5736 25.1986 14.3936 25.1986Z" />
        </svg>
    