
        <svg xmlns="http://www.w3.org/2000/svg" viewBox="0 0 100 100">
            <path d="M12.2223 24.4436C18.9723 24.4436 24.4423 18.9636 24.4423 12.2236C24.4423 5.4736 18.9723 0.0036 12.2223 0.0036C5.4823 0.0036 0.0023 5.4736 0.0023 12.2236C0.0023 18.9636 5.4823 24.4436 12.2223 24.4436ZM6.0423 12.2136C6.0423 11.8836 6.1523 11.5736 6.4723 11.2536L10.2923 7.2936C10.5123 7.0636 10.7423 6.9536 11.0623 6.9536C11.6823 6.9536 12.1123 7.4536 12.1123 8.0436C12.1123 8.3436 11.9923 8.6436 11.7523 8.8636L10.0523 10.4536L9.2223 11.0736L11.0123 10.9736H17.1823C17.8523 10.9736 18.4023 11.5236 18.4023 12.2136C18.4023 12.9036 17.8523 13.4536 17.1823 13.4536H11.0123L9.2223 13.3436L10.0523 13.9736L11.7523 15.5736C11.9923 15.7836 12.1123 16.0936 12.1123 16.3936C12.1123 16.9836 11.6823 17.4836 11.0623 17.4836C10.7423 17.4836 10.5123 17.3536 10.2923 17.1336L6.4723 13.1736C6.1523 12.8436 6.0423 12.5436 6.0423 12.2136Z" />
        </svg>
    