
        <svg xmlns="http://www.w3.org/2000/svg" viewBox="0 0 100 100">
            <path d="M0.0017 7.4788C0.0017 12.4888 4.2217 17.4587 10.7217 21.6788C11.1517 21.9588 11.6617 22.2287 12.0017 22.2287C12.3317 22.2287 12.8317 21.9588 13.2617 21.6788C19.7717 17.4587 23.9917 12.4888 23.9917 7.4788C23.9917 3.0487 20.9217 -0.0012 17.0517 -0.0012C14.7817 -0.0012 13.0317 1.0188 12.0017 2.5388C10.9617 1.0287 9.2117 -0.0012 6.9417 -0.0012C3.0717 -0.0012 0.0017 3.0487 0.0017 7.4788ZM2.7317 7.4488C2.7317 4.5887 4.6317 2.6588 7.1817 2.6588C9.2317 2.6588 10.3617 3.8688 11.1017 4.9588C11.4217 5.4288 11.6617 5.5988 12.0017 5.5988C12.3317 5.5988 12.5417 5.4187 12.8917 4.9588C13.6617 3.8888 14.7617 2.6588 16.8017 2.6588C19.3617 2.6588 21.2617 4.5887 21.2617 7.4488C21.2617 11.4488 17.1517 15.9388 12.2017 19.2288C12.1017 19.2987 12.0317 19.3388 12.0017 19.3388C11.9517 19.3388 11.8817 19.2987 11.7917 19.2288C6.8317 15.9388 2.7317 11.4488 2.7317 7.4488ZM12.9117 8.0488C12.9117 7.4388 12.4117 6.9988 11.8017 6.9988C11.1917 6.9988 10.6717 7.4388 10.6717 8.0488V11.5588L10.7817 13.3088L9.9617 12.4288L9.2017 11.6488C9.0117 11.4488 8.7317 11.3088 8.4617 11.3088C7.8917 11.3088 7.4617 11.7188 7.4617 12.2688C7.4617 12.5888 7.5717 12.8088 7.8117 13.0287L10.9217 15.8688C11.2117 16.1288 11.4717 16.2588 11.8017 16.2588C12.1317 16.2588 12.3917 16.1288 12.6717 15.8688L15.7717 13.0287C16.0217 12.8088 16.1217 12.5888 16.1217 12.2688C16.1217 11.7188 15.7017 11.3088 15.1417 11.3088C14.8617 11.3088 14.5617 11.4488 14.4017 11.6488L13.6417 12.4288L12.8117 13.3088L12.9117 11.5588Z" />
        </svg>
    