
        <svg xmlns="http://www.w3.org/2000/svg" viewBox="0 0 100 100">
            <path d="M19.2117 14.1333H27.0217C28.9417 14.1333 30.1717 12.8333 30.1717 10.8033V3.3233C30.1717 1.2933 28.9417 0.0033 27.0217 0.0033H19.2117C17.2817 0.0033 16.0517 1.2933 16.0517 3.3233V10.8033C16.0517 12.8333 17.2817 14.1333 19.2117 14.1333ZM19.5517 10.9533C19.3717 10.9533 19.2517 10.8433 19.2517 10.6633V3.4533C19.2517 3.2833 19.3717 3.1733 19.5517 3.1733H26.7417C26.9017 3.1733 27.0217 3.2833 27.0217 3.4533V10.6633C27.0217 10.8433 26.9017 10.9533 26.7417 10.9533ZM21.0217 9.5733H25.1817C25.9417 9.5733 26.2817 8.8133 25.9217 8.1933L23.8917 4.7433C23.5417 4.1533 22.6917 4.1533 22.3317 4.7433L20.3117 8.1933C19.9317 8.8233 20.2817 9.5733 21.0217 9.5733ZM3.1517 30.2033H10.9717C12.8917 30.2033 14.1217 28.9033 14.1217 26.8733V19.3933C14.1217 17.3533 12.8917 16.0633 10.9717 16.0633H3.1517C1.2317 16.0633 0.0017 17.3533 0.0017 19.3933V26.8733C0.0017 28.9033 1.2317 30.2033 3.1517 30.2033ZM19.2117 30.2033H27.0217C28.9417 30.2033 30.1717 28.9033 30.1717 26.8733V19.3933C30.1717 17.3533 28.9417 16.0633 27.0217 16.0633H19.2117C17.2817 16.0633 16.0517 17.3533 16.0517 19.3933V26.8733C16.0517 28.9033 17.2817 30.2033 19.2117 30.2033ZM35.2617 30.2033H43.0817C45.0017 30.2033 46.2317 28.9033 46.2317 26.8733V19.3933C46.2317 17.3533 45.0017 16.0633 43.0817 16.0633H35.2617C33.3417 16.0633 32.1117 17.3533 32.1117 19.3933V26.8733C32.1117 28.9033 33.3417 30.2033 35.2617 30.2033ZM3.4717 27.0233C3.2917 27.0233 3.1717 26.9033 3.1717 26.7333V19.5333C3.1717 19.3633 3.2917 19.2433 3.4717 19.2433H10.6517C10.8317 19.2433 10.9417 19.3633 10.9417 19.5333V26.7333C10.9417 26.9033 10.8317 27.0233 10.6517 27.0233ZM19.5517 27.0233C19.3717 27.0233 19.2517 26.9033 19.2517 26.7333V19.5333C19.2517 19.3633 19.3717 19.2433 19.5517 19.2433H26.7417C26.9017 19.2433 27.0217 19.3633 27.0217 19.5333V26.7333C27.0217 26.9033 26.9017 27.0233 26.7417 27.0233ZM35.5817 27.0233C35.4017 27.0233 35.2817 26.9033 35.2817 26.7333V19.5333C35.2817 19.3633 35.4017 19.2433 35.5817 19.2433H42.7617C42.9417 19.2433 43.0517 19.3633 43.0517 19.5333V26.7333C43.0517 26.9033 42.9417 27.0233 42.7617 27.0233ZM9.4717 25.1933V21.0333C9.4717 20.2933 8.7317 19.9433 8.1017 20.3233L4.6417 22.3433C4.0417 22.7033 4.0417 23.5533 4.6517 23.9033L8.1017 25.9333C8.7217 26.2933 9.4717 25.9533 9.4717 25.1933ZM36.7617 25.1933C36.7617 25.9533 37.5117 26.2933 38.1317 25.9333L41.5817 23.9033C42.1917 23.5533 42.1917 22.7033 41.5817 22.3433L38.1317 20.3233C37.5017 19.9433 36.7617 20.2933 36.7617 21.0333ZM22.3317 25.4433C22.6917 26.0433 23.5417 26.0533 23.8917 25.4433L25.9217 21.9933C26.2817 21.3733 25.9417 20.6233 25.1817 20.6233H21.0217C20.2817 20.6233 19.9317 21.3633 20.3117 21.9933Z" />
        </svg>
    