
        <svg xmlns="http://www.w3.org/2000/svg" viewBox="0 0 100 100">
            <path d="M3.7517 22.9491H10.9317C13.5217 22.9491 14.6817 21.6791 14.6817 19.0891V17.6791H16.7117V20.7291C16.7117 22.1091 17.7817 23.1791 19.1717 23.1791C20.0617 23.1791 20.7317 22.8491 21.5717 22.0691L30.9817 13.4291C31.4917 12.9491 31.7717 12.1991 31.7717 11.5891C31.7717 10.9491 31.5017 10.2391 30.9917 9.7691L21.5717 1.1291C20.6617 0.2891 20.0117 -0.0009 19.1717 -0.0009C17.7817 -0.0009 16.7117 1.0791 16.7117 2.4591V5.6591H11.1417C8.2817 5.6591 7.0217 7.0591 7.0217 9.9091V11.1691H3.7517C1.4717 11.1691 0.0017 12.5791 0.0017 14.7691V19.3591C0.0017 21.6491 1.3717 22.9491 3.7517 22.9491ZM20.2017 18.1091C20.0817 18.1091 19.9817 17.9991 19.9817 17.8591V13.8391C19.9817 13.5791 19.8717 13.4791 19.6217 13.4791H11.8717C11.4217 13.4791 11.1817 13.2191 11.1817 12.7591V9.9291C11.1817 9.4691 11.4217 9.1991 11.8717 9.1991H19.6217C19.8717 9.1991 19.9817 9.0891 19.9817 8.8391V5.3191C19.9817 5.1791 20.0817 5.0991 20.2017 5.0991C20.2617 5.0991 20.3217 5.1091 20.3817 5.1591L27.0117 11.3891C27.0917 11.4691 27.1217 11.5191 27.1217 11.5891C27.1217 11.6491 27.0917 11.7091 27.0117 11.7891L20.3817 18.0091C20.3217 18.0691 20.2617 18.1091 20.2017 18.1091ZM4.4017 19.7791C4.0117 19.7791 3.7617 19.5591 3.7617 19.1391V14.9991C3.7617 14.5791 4.0117 14.3391 4.4017 14.3391H7.3317V14.4491C7.3317 15.2391 7.7017 15.9091 8.4617 16.6991L10.9117 19.0791V19.1391C10.9117 19.5591 10.6717 19.7791 10.2817 19.7791Z" />
        </svg>
    