
        <svg xmlns="http://www.w3.org/2000/svg" viewBox="0 0 100 100">
            <path d="M3.4617 21.2264H17.7617C20.0517 21.2264 21.2217 20.0464 21.2217 17.7964V3.4264C21.2217 1.1764 20.0517 -0.0036 17.7617 -0.0036H3.4617C1.1717 -0.0036 0.0017 1.1564 0.0017 3.4264V17.7964C0.0017 20.0664 1.1717 21.2264 3.4617 21.2264ZM5.3917 15.7164C5.0117 15.7164 4.7417 15.4564 4.7417 15.0864V6.1264C4.7417 5.7664 5.0117 5.5064 5.3917 5.5064C5.7517 5.5064 6.0217 5.7664 6.0217 6.1264V15.0864C6.0217 15.4564 5.7517 15.7164 5.3917 15.7164ZM17.7317 10.6164C17.7317 11.0064 17.4617 11.2664 17.1017 11.2664H11.1517L8.9417 11.1564L11.3117 13.3364L12.3617 14.3464C12.5017 14.4564 12.5617 14.6264 12.5617 14.8264C12.5617 15.1964 12.3017 15.4464 11.9417 15.4464C11.7517 15.4464 11.5517 15.3364 11.4217 15.2064L7.2617 11.0964C7.1117 10.9564 7.0417 10.7964 7.0417 10.6164C7.0417 10.4364 7.1217 10.2764 7.2617 10.1364L11.4517 5.9864C11.5817 5.8364 11.7517 5.7764 11.9317 5.7764C12.2917 5.7764 12.5617 6.0264 12.5617 6.3864C12.5617 6.5764 12.5017 6.7464 12.3617 6.8764L11.3317 7.8864L8.9517 10.0764L11.1517 9.9864H17.1017C17.4617 9.9864 17.7317 10.2564 17.7317 10.6164Z" />
        </svg>
    