
        <svg xmlns="http://www.w3.org/2000/svg" viewBox="0 0 100 100">
            <path d="M12.4917 23.2295C12.9617 23.2295 13.6617 22.8095 14.3517 22.3495C20.7217 18.1395 24.9717 13.0795 24.9717 8.0295C24.9717 3.1895 21.5817 -0.0005 17.6717 -0.0005C15.2217 -0.0005 13.5017 1.3395 12.4917 3.2495C11.4817 1.3495 9.7617 -0.0005 7.3117 -0.0005C3.4017 -0.0005 0.0017 3.1895 0.0017 8.0295C0.0017 13.0795 4.2517 18.1395 10.6317 22.3495C11.3117 22.8095 12.0117 23.2295 12.4917 23.2295ZM8.0717 12.2795C8.0717 10.4295 9.4717 8.7995 11.2217 8.3395V7.5395C11.2217 6.9495 11.8317 6.6995 12.3317 7.0895L14.2617 8.6795C14.6717 9.0095 14.6817 9.5495 14.2617 9.8995L12.3317 11.5195C11.8517 11.9095 11.2217 11.6695 11.2217 11.0895V10.2895C10.4417 10.6495 9.9417 11.4095 9.9417 12.2895C9.9417 13.5195 10.9117 14.5095 12.1517 14.5095C13.3817 14.5095 14.3817 13.5195 14.3817 12.2895C14.3817 11.7695 14.7917 11.3595 15.2917 11.3595C15.8117 11.3595 16.2317 11.7695 16.2317 12.2895C16.2317 14.5395 14.4017 16.3695 12.1517 16.3695C9.9017 16.3695 8.0717 14.5395 8.0717 12.2795Z" />
        </svg>
    