
        <svg xmlns="http://www.w3.org/2000/svg" viewBox="0 0 100 100">
            <path d="M9.0317 23.7659C14.4517 23.7659 18.1917 20.1259 18.1917 14.9159V9.7059L18.0717 7.2159L19.0917 8.4959L20.4117 9.8559C20.8517 10.2959 21.3617 10.6359 22.1017 10.6359C23.3517 10.6359 24.3117 9.7359 24.3117 8.3759C24.3117 7.7659 24.0617 7.1759 23.5817 6.7059L17.5517 0.6659C17.1517 0.2559 16.4617 -0.0041 15.8317 -0.0041C15.2017 -0.0041 14.5217 0.2559 14.1117 0.6659L8.1017 6.7059C7.6317 7.1759 7.3717 7.7659 7.3717 8.3759C7.3717 9.7359 8.3317 10.6359 9.5817 10.6359C10.3217 10.6359 10.8417 10.2959 11.2717 9.8559L12.5817 8.4959L13.6017 7.2159L13.4917 9.7059V14.5159C13.4917 17.2859 11.6417 19.1959 9.0517 19.1959C6.4617 19.1959 4.7017 17.2859 4.7017 14.5159V11.6459C4.7017 10.3159 3.6517 9.2659 2.3517 9.2659C1.0417 9.2659 0.0017 10.3159 0.0017 11.6459V14.9459C0.0017 20.1359 3.4817 23.7659 9.0317 23.7659Z" />
        </svg>
    