
        <svg xmlns="http://www.w3.org/2000/svg" viewBox="0 0 100 100">
            <path d="M0.0025 11.0166C0.0025 11.4766 0.2025 12.0266 0.6525 12.4566L9.9625 21.1666C10.6025 21.7666 11.1425 22.0266 11.8225 22.0266C12.8125 22.0266 13.5325 21.3066 13.5325 20.3166V16.2866H22.4025C24.4525 16.2866 25.6525 15.0966 25.6525 13.0766V9.0166C25.6525 6.9866 24.4525 5.7966 22.4025 5.7966H13.5325V1.7666C13.5325 0.7866 12.8125 -0.0034 11.8025 -0.0034C11.1425 -0.0034 10.6725 0.2666 9.9625 0.9266L0.6525 9.5766C0.1925 10.0166 0.0025 10.5366 0.0025 11.0166ZM2.9225 11.0166C2.9225 10.9466 2.9525 10.8866 3.0325 10.8066L10.8425 3.3666C10.9025 3.3166 10.9525 3.2766 11.0225 3.2766C11.1325 3.2766 11.2125 3.3466 11.2125 3.4666V7.7666C11.2125 8.0266 11.3325 8.1466 11.5925 8.1466H22.2025C22.9225 8.1466 23.3125 8.5166 23.3125 9.2466V12.8366C23.3125 13.5566 22.9225 13.9366 22.2025 13.9366H11.5925C11.3325 13.9366 11.2125 14.0466 11.2125 14.3166V18.5066C11.2125 18.6166 11.1325 18.7066 11.0225 18.7066C10.9725 18.7066 10.9025 18.6666 10.8425 18.6066L3.0325 11.2366C2.9425 11.1466 2.9225 11.0866 2.9225 11.0166Z" />
        </svg>
    