
        <svg xmlns="http://www.w3.org/2000/svg" viewBox="0 0 100 100">
            <path d="M11.7523 23.5048C18.2323 23.5048 23.5123 18.2348 23.5123 11.7548C23.5123 5.2748 18.2323 0.0048 11.7523 0.0048C5.2723 0.0048 0.0023 5.2748 0.0023 11.7548C0.0023 18.2348 5.2723 23.5048 11.7523 23.5048ZM18.8923 11.7448C18.8923 11.9448 18.8123 12.0948 18.6323 12.2848L15.1323 15.7948C15.0023 15.9248 14.8323 15.9948 14.6223 15.9948C14.2523 15.9948 13.9723 15.7048 13.9723 15.3148C13.9723 15.1048 14.0523 14.9448 14.1823 14.8148L15.2923 13.6948L16.7723 12.3748L14.5523 12.4548H8.9423L6.7123 12.3748L8.2023 13.6948L9.3123 14.8148C9.4423 14.9448 9.5323 15.1048 9.5323 15.3148C9.5323 15.7048 9.2423 15.9948 8.8623 15.9948C8.6623 15.9948 8.4923 15.9248 8.3623 15.7948L4.8623 12.2848C4.6923 12.0948 4.6023 11.9448 4.6023 11.7448C4.6023 11.5448 4.6923 11.3748 4.8623 11.2048L8.3623 7.6948C8.4923 7.5748 8.6623 7.4848 8.8623 7.4848C9.2423 7.4848 9.5323 7.7948 9.5323 8.1648C9.5323 8.3748 9.4523 8.5448 9.3123 8.6848L8.2023 9.7848L6.7123 11.1248L8.9423 11.0348H14.5523L16.7823 11.1248L15.2923 9.7848L14.1823 8.6848C14.0423 8.5448 13.9723 8.3748 13.9723 8.1648C13.9723 7.7948 14.2523 7.4848 14.6223 7.4848C14.8323 7.4848 15.0023 7.5748 15.1323 7.6948L18.6323 11.2048C18.8123 11.3748 18.8923 11.5448 18.8923 11.7448Z" />
        </svg>
    