
        <svg xmlns="http://www.w3.org/2000/svg" viewBox="0 0 100 100">
            <path d="M3.9717 22.1152H18.1317C20.7317 22.1152 22.1017 20.7452 22.1017 18.1752V3.9352C22.1017 1.3752 20.7317 -0.0048 18.1317 -0.0048H3.9717C1.3817 -0.0048 0.0017 1.3752 0.0017 3.9352V18.1752C0.0017 20.7452 1.3817 22.1152 3.9717 22.1152ZM9.7817 17.1052C6.9117 17.1052 5.0117 15.1652 5.0117 12.2552V10.5952C5.0117 9.9152 5.4217 9.4652 6.0517 9.4652C6.6417 9.4652 7.0517 9.9152 7.0517 10.5852V12.2552C7.0517 13.9252 8.1417 15.0352 9.7817 15.0352C11.3417 15.0352 12.3917 13.9352 12.3917 12.2552V8.7852L12.4617 7.7352L12.0317 8.3252L10.8117 9.6652C10.6417 9.8652 10.3917 9.9852 10.1217 9.9852C9.5717 9.9852 9.1217 9.5252 9.1217 8.9952C9.1217 8.7152 9.2117 8.4752 9.4017 8.2952L12.6317 5.1052C12.8517 4.8852 13.1417 4.7852 13.4017 4.7852C13.6917 4.7852 13.9617 4.8952 14.1917 5.1052L17.3917 8.2852C17.5917 8.4752 17.6817 8.7052 17.6817 8.9752C17.6817 9.5152 17.2217 9.9752 16.6917 9.9752C16.4317 9.9752 16.1717 9.8652 15.9917 9.6652L14.8917 8.4952L14.3117 7.7252L14.3817 8.7852V12.2552C14.3817 15.1652 12.5417 17.1052 9.7817 17.1052Z" />
        </svg>
    