
        <svg xmlns="http://www.w3.org/2000/svg" viewBox="0 0 100 100">
            <path d="M0.0017 13.9403C0.0017 17.9903 2.8117 20.6803 7.2117 20.6803H11.1217C11.3917 20.6803 11.5817 20.5003 11.5817 20.2403C11.5817 19.9903 11.4017 19.7903 11.1417 19.7903H7.2317C3.3517 19.7903 0.8917 17.4103 0.8917 13.9103C0.8917 10.4203 3.3517 8.0603 7.2317 8.0603H17.7917L20.3417 8.0203L17.9017 10.3503L13.7717 14.4703C13.6917 14.5403 13.6517 14.6603 13.6517 14.8003C13.6517 15.0503 13.8317 15.2303 14.1017 15.2303C14.2217 15.2303 14.3417 15.1903 14.4217 15.0903L21.5617 7.9403C21.6517 7.8503 21.7017 7.7503 21.7017 7.6203C21.7017 7.4903 21.6517 7.3803 21.5617 7.2903L14.4217 0.1403C14.3417 0.0503 14.2217 0.0003 14.1017 0.0003C13.8317 0.0003 13.6517 0.2003 13.6517 0.4403C13.6517 0.5703 13.6917 0.6903 13.7717 0.7703L17.9017 4.8903L20.3417 7.2303L17.7917 7.1703H7.2417C2.8317 7.1703 0.0017 9.8903 0.0017 13.9403Z" />
        </svg>
    