
        <svg xmlns="http://www.w3.org/2000/svg" viewBox="0 0 100 100">
            <path d="M15.5717 21.9497C16.2517 21.9497 16.8417 21.9497 17.1317 21.8797C17.5117 21.8097 17.8217 21.5897 17.8217 21.1297C17.8217 20.6597 17.4817 20.3697 17.0317 20.3697C16.7217 20.3697 16.2917 20.3897 15.6717 20.3897C11.3517 20.3897 9.5117 18.7397 9.5117 14.4297L9.5317 5.4397L9.4417 2.4397L11.8317 4.9797L16.1517 9.2897C16.2917 9.4297 16.5017 9.4997 16.7117 9.4997C17.1417 9.4997 17.4717 9.1797 17.4717 8.7297C17.4717 8.5197 17.4017 8.3297 17.2217 8.1597L9.3317 0.2697C9.1617 0.0897 8.9617 -0.0003 8.7417 -0.0003C8.5217 -0.0003 8.3217 0.0897 8.1417 0.2697L0.2417 8.1597C0.0817 8.3297 0.0017 8.5197 0.0017 8.7297C0.0017 9.1797 0.3317 9.4997 0.7617 9.4997C0.9717 9.4997 1.1917 9.4297 1.3217 9.2897L5.6517 4.9797L8.0117 2.4397L7.9617 5.4397V14.4997C7.9617 19.7497 10.3217 21.9497 15.5717 21.9497Z" />
        </svg>
    