
        <svg xmlns="http://www.w3.org/2000/svg" viewBox="0 0 100 100">
            <path d="M6.7123 24.2181C10.7823 24.2181 13.4223 21.5781 13.4223 17.4981V15.0781C13.4223 14.8481 13.2323 14.6481 12.9823 14.6481C12.7523 14.6481 12.5523 14.8481 12.5523 15.0781V17.4981C12.5523 20.9781 10.1823 23.3481 6.7123 23.3481C3.2423 23.3481 0.8823 20.9781 0.8823 17.4981V6.7181C0.8823 3.2481 3.2423 0.8681 6.7123 0.8681C10.1823 0.8681 12.5523 3.2481 12.5523 6.7181V7.5281H10.4523C9.9823 7.5281 9.8223 7.8681 10.1123 8.2781L12.5823 11.7981C12.8323 12.1481 13.1623 12.1481 13.4023 11.7981L15.8823 8.2881C16.1723 7.8681 16.0123 7.5281 15.5423 7.5281H13.4223V6.7181C13.4223 2.6481 10.7823 -0.0019 6.7123 -0.0019C2.6523 -0.0019 0.0023 2.6481 0.0023 6.7181V17.4981C0.0023 21.5781 2.6523 24.2181 6.7123 24.2181Z" />
        </svg>
    