
        <svg xmlns="http://www.w3.org/2000/svg" viewBox="0 0 100 100">
            <path d="M12.6023 25.1986C19.5623 25.1986 25.2023 19.5586 25.2023 12.5986C25.2023 5.6386 19.5623 -0.0014 12.6023 -0.0014C5.6323 -0.0014 0.0023 5.6386 0.0023 12.5986C0.0023 19.5586 5.6323 25.1986 12.6023 25.1986ZM12.6023 21.5386C7.6523 21.5386 3.6523 17.5386 3.6523 12.5986C3.6523 7.6486 7.6523 3.6586 12.6023 3.6586C17.5423 3.6586 21.5423 7.6486 21.5423 12.5986C21.5423 17.5386 17.5423 21.5386 12.6023 21.5386ZM16.5823 17.8786L19.3023 15.0686C19.4623 14.8986 19.5823 14.6586 19.5823 14.4186C19.5823 13.8886 19.1923 13.4986 18.6723 13.4986C18.4123 13.4986 18.1923 13.5786 18.0223 13.7586L16.9323 14.9086L16.8023 15.0386L16.8123 14.3986V7.9286C16.8123 7.4086 16.4023 7.0086 15.8923 7.0086C15.3523 7.0086 14.9623 7.4086 14.9623 7.9286V15.0386L14.8523 14.9086L13.7623 13.7586C13.5923 13.5786 13.3623 13.4986 13.1123 13.4986C12.5723 13.4986 12.2023 13.8886 12.2023 14.4186C12.2023 14.6486 12.3123 14.8986 12.4823 15.0686L15.2123 17.8786C15.5723 18.2586 16.1823 18.2786 16.5823 17.8786ZM8.6223 7.3086L5.8923 10.1286C5.7323 10.2986 5.6123 10.5386 5.6123 10.7786C5.6123 11.3086 6.0023 11.6786 6.5323 11.6786C6.7823 11.6786 6.9923 11.5986 7.1723 11.4286L8.2623 10.2886L8.3923 10.1486L8.3823 10.7786V17.2586C8.3823 17.7786 8.7923 18.1886 9.3023 18.1886C9.8423 18.1886 10.2323 17.7786 10.2323 17.2586V10.1486L10.3523 10.2886L11.4423 11.4286C11.6023 11.6086 11.8323 11.6786 12.0823 11.6786C12.6123 11.6786 13.0123 11.3086 13.0123 10.7786C13.0123 10.5386 12.8823 10.2886 12.7123 10.1286L9.9823 7.3086C9.6123 6.9386 9.0123 6.8986 8.6223 7.3086Z" />
        </svg>
    