
        <svg xmlns="http://www.w3.org/2000/svg" viewBox="0 0 100 100">
            <path d="M13.9803 -0.003C10.6103 -0.003 7.4503 1.487 5.3203 3.947C5.1303 4.167 5.1803 4.467 5.3803 4.607C5.5603 4.757 5.8103 4.737 6.0003 4.507C7.9803 2.247 10.8603 0.887 13.9803 0.887C19.5703 0.887 24.1303 5.217 24.5303 10.677H22.4103C21.9403 10.677 21.7803 11.017 22.0703 11.437L24.5403 14.967C24.7803 15.307 25.1103 15.317 25.3603 14.967L27.8203 11.437C28.1303 11.017 27.9603 10.677 27.4803 10.677H25.4303C25.0203 4.727 20.0603 -0.003 13.9803 -0.003ZM13.9803 22.977C17.3703 22.977 20.5203 21.497 22.6503 19.047C22.8403 18.807 22.7903 18.527 22.6003 18.377C22.4203 18.227 22.1603 18.257 21.9703 18.467C19.9903 20.747 17.1103 22.087 13.9803 22.087C8.4003 22.087 3.8503 17.777 3.4503 12.307H5.5703C6.0403 12.307 6.2003 11.977 5.9103 11.557L3.4403 8.027C3.2003 7.677 2.8603 7.677 2.6103 8.027L0.1503 11.557C-0.1497 11.977 0.0103 12.307 0.4903 12.307H2.5403C2.9503 18.267 7.9103 22.977 13.9803 22.977Z" />
        </svg>
    