
        <svg xmlns="http://www.w3.org/2000/svg" viewBox="0 0 100 100">
            <path d="M4.6277 20.1373H16.2077C19.2077 20.1373 20.8277 18.5273 20.8277 15.6873V4.4273C20.8277 1.6073 19.2577 -0.0027 16.2377 -0.0027H4.6277C1.6477 -0.0027 -0.0023 1.6073 -0.0023 4.4373V15.9773C-0.0023 18.8073 1.6177 20.1373 4.6277 20.1373ZM22.8877 14.7173L26.1777 17.5173C26.8977 18.1173 27.5277 18.5173 28.2277 18.5173C29.3077 18.5173 30.0977 17.7773 30.0977 16.5673V3.7873C30.0977 2.5773 29.3077 1.8473 28.2277 1.8473C27.5277 1.8473 26.8977 2.2473 26.1777 2.8473L22.8877 5.6473ZM6.5277 15.2273C5.6877 15.2273 5.0877 14.6573 5.0877 13.8873C5.0877 13.4673 5.2177 13.0873 5.5277 12.8073L10.1177 8.4573L11.3777 7.3973L9.3877 7.5773H7.4777C6.7177 7.5773 6.1277 7.0073 6.1277 6.2073C6.1277 5.4373 6.7077 4.8073 7.4377 4.8073H13.8777C15.0977 4.8073 15.7577 5.4973 15.7577 6.7173V12.9273C15.7577 13.6773 15.1477 14.2273 14.3677 14.2273C13.5677 14.2273 12.9977 13.6473 12.9977 12.9173V11.1773L13.1977 9.2573L12.1177 10.4873L7.5377 14.7973C7.2377 15.0673 6.9177 15.2273 6.5277 15.2273Z" />
        </svg>
    