
        <svg xmlns="http://www.w3.org/2000/svg" viewBox="0 0 100 100">
            <path d="M3.8417 21.8745H18.0317C20.5617 21.8745 21.8817 20.5745 21.8817 18.0745V3.8045C21.8817 1.3145 20.5617 0.0045 18.0317 0.0045H3.8417C1.3117 0.0045 0.0017 1.3045 0.0017 3.8045V18.0745C0.0017 20.5745 1.3117 21.8745 3.8417 21.8745ZM3.9817 19.5845C2.8917 19.5845 2.3017 19.0145 2.3017 17.8845V4.0045C2.3017 2.8745 2.8917 2.2945 3.9817 2.2945H17.8917C18.9717 2.2945 19.5817 2.8745 19.5817 4.0045V17.8845C19.5817 19.0145 18.9717 19.5845 17.8917 19.5845ZM16.8317 10.9245C16.8317 10.6445 16.7317 10.3945 16.4617 10.1145L12.7817 6.2945C12.5817 6.0945 12.3917 5.9845 12.1017 5.9845C11.5617 5.9845 11.1817 6.4245 11.1817 6.9445C11.1817 7.2045 11.2817 7.4745 11.4917 7.6645L13.2517 9.3045L14.0117 9.9345L12.2817 9.8545H6.0717C5.4917 9.8545 5.0117 10.3345 5.0117 10.9245C5.0117 11.5045 5.4917 11.9845 6.0717 11.9845H12.2817L14.0117 11.9045L13.2517 12.5345L11.4917 14.1945C11.2817 14.3645 11.1817 14.6445 11.1817 14.9045C11.1817 15.4445 11.5617 15.8545 12.1017 15.8545C12.3917 15.8545 12.5817 15.7545 12.7817 15.5545L16.4617 11.7345C16.7317 11.4645 16.8317 11.2045 16.8317 10.9245Z" />
        </svg>
    