
        <svg xmlns="http://www.w3.org/2000/svg" viewBox="0 0 100 100">
            <path d="M3.1617 20.742H17.5917C19.6617 20.742 20.7417 19.642 20.7417 17.592V3.152C20.7417 1.102 19.6617 0.002 17.5917 0.002H3.1617C1.0917 0.002 0.0017 1.082 0.0017 3.152V17.592C0.0017 19.662 1.0917 20.742 3.1617 20.742ZM3.1917 19.872C1.6617 19.872 0.8717 19.082 0.8717 17.552V3.202C0.8717 1.662 1.6617 0.872 3.1917 0.872H17.5517C19.0317 0.872 19.8717 1.662 19.8717 3.202V17.552C19.8717 19.082 19.0317 19.872 17.5517 19.872ZM4.6317 6.582C4.4617 6.742 4.4717 6.992 4.6317 7.162L7.9117 10.452C8.0017 10.542 8.1017 10.572 8.2217 10.572C8.4417 10.572 8.6117 10.402 8.6117 10.192C8.6117 10.092 8.5617 9.962 8.4717 9.882L6.8417 8.252L5.8017 7.242L6.7817 7.262H15.8317C16.0517 7.262 16.2317 7.102 16.2317 6.882C16.2317 6.652 16.0617 6.472 15.8317 6.472H6.7817L5.8117 6.502L6.8417 5.482L8.4717 3.872C8.5617 3.772 8.6117 3.652 8.6117 3.552C8.6117 3.342 8.4417 3.162 8.2217 3.162C8.1117 3.162 8.0017 3.212 7.9117 3.302ZM16.1217 14.202C16.2917 14.042 16.2617 13.802 16.1217 13.642L12.8317 10.352C12.7517 10.252 12.6517 10.222 12.5117 10.222C12.2917 10.222 12.1317 10.382 12.1317 10.602C12.1317 10.722 12.1717 10.832 12.2617 10.922L13.9117 12.542L14.9417 13.562L13.9717 13.522H4.9117C4.6917 13.522 4.5217 13.692 4.5217 13.912C4.5217 14.132 4.6717 14.322 4.9117 14.322H13.9617L14.9417 14.292L13.9117 15.302L12.2717 16.932C12.1917 17.012 12.1317 17.132 12.1317 17.242C12.1317 17.452 12.3017 17.622 12.5117 17.622C12.6317 17.622 12.7417 17.582 12.8317 17.492Z" />
        </svg>
    