
        <svg xmlns="http://www.w3.org/2000/svg" viewBox="0 0 100 100">
            <path d="M3.6817 21.5722H17.8917C20.3517 21.5722 21.5717 20.3722 21.5717 17.9522V3.6322C21.5717 1.2222 20.3517 0.0022 17.8917 0.0022H3.6817C1.2317 0.0022 0.0017 1.2222 0.0017 3.6322V17.9522C0.0017 20.3722 1.2317 21.5722 3.6817 21.5722ZM16.1817 10.7822C15.6917 10.7822 15.3017 10.3922 15.3017 9.9022V9.2922L15.4217 7.3322L12.7517 10.1522C12.3717 10.5422 11.7817 10.5322 11.4017 10.1622C11.0417 9.7922 11.0517 9.1722 11.4117 8.8222L14.2117 6.1622L12.3117 6.2822H11.7117C11.2117 6.2822 10.8117 5.8922 10.8117 5.4022C10.8117 4.9122 11.2117 4.5122 11.7117 4.5122H16.0317C16.6917 4.5122 17.0717 4.8022 17.0717 5.5522V9.9022C17.0717 10.3922 16.6717 10.7822 16.1817 10.7822ZM9.8917 17.0722H5.5517C4.9017 17.0722 4.5217 16.7822 4.5217 16.0322V11.6822C4.5217 11.1922 4.9117 10.8022 5.4017 10.8022C5.8917 10.8022 6.2917 11.1922 6.2917 11.6822V12.2922L6.1717 14.2522L8.8517 11.4422C9.2117 11.0422 9.8217 11.0522 10.1817 11.4222C10.5517 11.7922 10.5317 12.4122 10.1717 12.7622L7.3817 15.4222L9.2817 15.3022H9.8917C10.3817 15.3022 10.7717 15.6922 10.7717 16.1822C10.7717 16.6722 10.3817 17.0722 9.8917 17.0722Z" />
        </svg>
    