
        <svg xmlns="http://www.w3.org/2000/svg" viewBox="0 0 100 100">
            <path d="M11.8225 22.0266C12.8125 22.0266 13.5325 21.3066 13.5325 20.3166V16.2866H13.7925C17.9225 16.2866 20.3825 17.6166 22.1025 20.7866C22.6025 21.7066 23.1925 21.9466 23.8825 21.9466C24.8225 21.9466 25.4725 21.0466 25.4725 19.2866C25.4725 10.8766 21.6925 5.7966 13.7925 5.7966H13.5325V1.7666C13.5325 0.7866 12.8125 -0.0034 11.8025 -0.0034C11.1425 -0.0034 10.6725 0.2666 9.9625 0.9266L0.6525 9.5766C0.1925 10.0166 0.0025 10.5366 0.0025 11.0166C0.0025 11.4766 0.2025 12.0266 0.6525 12.4566L9.9625 21.1666C10.6025 21.7666 11.1425 22.0266 11.8225 22.0266ZM11.0225 18.7066C10.9725 18.7066 10.9025 18.6666 10.8425 18.6066L3.0325 11.2366C2.9425 11.1466 2.9225 11.0866 2.9225 11.0166C2.9225 10.9466 2.9525 10.8866 3.0325 10.8066L10.8425 3.3666C10.9025 3.3166 10.9525 3.2766 11.0225 3.2766C11.1325 3.2766 11.2125 3.3466 11.2125 3.4666V7.7466C11.2125 8.0166 11.3325 8.1366 11.5925 8.1366H13.0525C20.3325 8.1366 23.1025 12.7866 23.2725 18.3866C23.2725 18.4566 23.2425 18.5066 23.1925 18.5066C23.1425 18.5066 23.1125 18.4666 23.0725 18.3866C21.6825 15.4666 18.3125 13.9066 13.0525 13.9066H11.5925C11.3325 13.9066 11.2125 14.0266 11.2125 14.2966V18.5066C11.2125 18.6166 11.1325 18.7066 11.0225 18.7066Z" />
        </svg>
    