
        <svg xmlns="http://www.w3.org/2000/svg" viewBox="0 0 100 100">
            <path d="M3.8417 21.878H18.0317C20.5617 21.878 21.8817 20.568 21.8817 18.068V3.798C21.8817 1.298 20.5617 -0.002 18.0317 -0.002H3.8417C1.3117 -0.002 0.0017 1.298 0.0017 3.798V18.068C0.0017 20.578 1.3117 21.878 3.8417 21.878ZM9.6917 16.898C6.8417 16.898 4.9817 14.968 4.9817 12.098V10.468C4.9817 9.848 5.3717 9.418 5.9417 9.418C6.5117 9.418 6.8917 9.848 6.8917 10.458V12.098C6.8917 13.808 8.0117 14.968 9.6917 14.968C11.2617 14.968 12.3317 13.828 12.3317 12.108V8.648L12.3917 7.538L11.9717 8.108L10.7017 9.488C10.5217 9.668 10.2917 9.788 10.0217 9.788C9.4917 9.788 9.0617 9.368 9.0617 8.848C9.0617 8.578 9.1517 8.348 9.3317 8.178L12.5117 5.038C12.7517 4.818 13.0217 4.708 13.2917 4.708C13.5617 4.708 13.8317 4.828 14.0517 5.038L17.2117 8.168C17.4017 8.348 17.4917 8.568 17.4917 8.838C17.4917 9.348 17.0617 9.778 16.5317 9.778C16.2817 9.778 16.0417 9.668 15.8717 9.488L14.7517 8.308L14.1417 7.528L14.2017 8.648V12.108C14.2017 14.978 12.4017 16.898 9.6917 16.898Z" />
        </svg>
    