
        <svg xmlns="http://www.w3.org/2000/svg" viewBox="0 0 100 100">
            <path d="M3.1617 20.742H17.5917C19.6617 20.742 20.7417 19.642 20.7417 17.592V3.152C20.7417 1.102 19.6617 0.002 17.5917 0.002H3.1617C1.0917 0.002 0.0017 1.082 0.0017 3.152V17.592C0.0017 19.662 1.0917 20.742 3.1617 20.742ZM15.4017 15.162C15.1717 15.162 15.0117 15.002 15.0117 14.782V5.992C15.0117 5.762 15.1717 5.602 15.4017 5.602C15.6417 5.602 15.8117 5.762 15.8117 5.992V14.782C15.8117 15.002 15.6417 15.162 15.4017 15.162ZM3.5017 10.382C3.5017 10.152 3.6817 9.982 3.9117 9.982H10.3817L12.5817 10.032L10.3117 7.812L8.9217 6.452C8.8117 6.362 8.7617 6.242 8.7617 6.102C8.7617 5.852 8.9317 5.692 9.1617 5.692C9.2917 5.692 9.4217 5.762 9.4917 5.852L13.7017 10.082C13.7917 10.162 13.8417 10.282 13.8417 10.382C13.8417 10.492 13.8017 10.602 13.7017 10.692L9.5417 14.862C9.4417 14.962 9.3117 15.072 9.1517 15.072C8.9317 15.072 8.7617 14.902 8.7617 14.662C8.7617 14.512 8.8117 14.402 8.9217 14.312L10.3617 12.902L12.5817 10.742L10.3817 10.792H3.9117C3.6817 10.792 3.5017 10.632 3.5017 10.382Z" />
        </svg>
    