
        <svg xmlns="http://www.w3.org/2000/svg" viewBox="0 0 100 100">
            <path d="M4.3236 19.1134H16.8736C19.6036 19.1134 21.2036 17.5634 21.2036 14.8334V12.7934L25.8536 16.6534C26.2936 17.0134 26.7636 17.2634 27.2336 17.2634C28.1336 17.2634 28.7336 16.6034 28.7336 15.6134V3.5134C28.7336 2.5234 28.1336 1.8634 27.2336 1.8634C26.7636 1.8634 26.2936 2.1134 25.8536 2.4734L21.2036 6.3234V4.2934C21.2036 1.5634 19.6036 0.0034 16.8736 0.0034H4.3236C1.6736 0.0034 0.0036 1.5634 0.0036 4.2934V14.8334C0.0036 17.5634 1.5936 19.1134 4.3236 19.1134ZM4.5836 17.7534C2.5536 17.7534 1.4536 16.7134 1.4536 14.6034V4.5234C1.4536 2.4034 2.5536 1.3634 4.5836 1.3634H16.6136C18.6436 1.3634 19.7436 2.4034 19.7436 4.5234V14.6034C19.7436 16.7134 18.6436 17.7534 16.6136 17.7534ZM26.5636 15.4434L21.2036 11.0834V8.0434L26.5636 3.6834C26.7436 3.5434 26.8736 3.4434 27.0236 3.4434C27.2236 3.4434 27.3436 3.5934 27.3436 3.8634V15.2434C27.3436 15.5134 27.2236 15.6634 27.0236 15.6634C26.8736 15.6634 26.7436 15.5734 26.5636 15.4434ZM6.5936 14.3434C6.8136 14.3434 6.9536 14.2734 7.0736 14.1434L12.3136 8.8934L14.1436 6.9534L13.9836 10.2534V12.4334C13.9836 12.7834 14.2336 13.0734 14.6036 13.0734C14.9836 13.0734 15.2836 12.8134 15.2836 12.4334V5.7034C15.2836 5.2334 15.0436 5.0034 14.5636 5.0034H7.7936C7.4136 5.0034 7.1336 5.3134 7.1336 5.6834C7.1336 6.0434 7.4336 6.3034 7.7936 6.3034H10.0336L13.3436 6.1334L11.3836 7.9734L6.1536 13.2034C6.0036 13.3634 5.9336 13.5234 5.9336 13.7234C5.9336 14.0834 6.2136 14.3434 6.5936 14.3434Z" />
        </svg>
    