
        <svg xmlns="http://www.w3.org/2000/svg" viewBox="0 0 100 100">
            <path d="M3.8417 21.8745H18.0317C20.5617 21.8745 21.8817 20.5745 21.8817 18.0745V3.8045C21.8817 1.3145 20.5617 0.0045 18.0317 0.0045H3.8417C1.3117 0.0045 0.0017 1.3045 0.0017 3.8045V18.0745C0.0017 20.5745 1.3117 21.8745 3.8417 21.8745ZM16.2317 16.2745C15.7217 16.2745 15.3317 15.9045 15.3317 15.3845V6.4845C15.3317 5.9545 15.7217 5.5745 16.2317 5.5745C16.7617 5.5745 17.1517 5.9545 17.1517 6.4845V15.3845C17.1517 15.9045 16.7617 16.2745 16.2317 16.2745ZM3.7217 10.9345C3.7217 10.4045 4.1117 10.0145 4.6617 10.0145H9.7017L11.7817 10.1445L9.6017 8.2245L8.8317 7.4745C8.6517 7.3045 8.5517 7.0645 8.5517 6.8045C8.5517 6.2945 8.9517 5.9345 9.4717 5.9345C9.7017 5.9345 9.9417 6.0145 10.1417 6.2245L14.1817 10.2545C14.3517 10.4445 14.4817 10.6745 14.4817 10.9345C14.4817 11.2045 14.3817 11.4345 14.1817 11.6245L10.1417 15.6345C9.9617 15.8245 9.6917 15.9245 9.4717 15.9245C8.9317 15.9245 8.5517 15.5645 8.5517 15.0445C8.5517 14.7645 8.6517 14.5445 8.8317 14.3745L9.6017 13.6645L11.7917 11.7345L9.7017 11.8745H4.6617C4.1117 11.8745 3.7217 11.4945 3.7217 10.9345Z" />
        </svg>
    