
        <svg xmlns="http://www.w3.org/2000/svg" viewBox="0 0 100 100">
            <path d="M12.6023 25.1986C19.5623 25.1986 25.2023 19.5586 25.2023 12.5986C25.2023 5.6386 19.5623 -0.0014 12.6023 -0.0014C5.6323 -0.0014 0.0023 5.6386 0.0023 12.5986C0.0023 19.5586 5.6323 25.1986 12.6023 25.1986ZM12.6023 21.5386C7.6523 21.5386 3.6523 17.5386 3.6523 12.5986C3.6523 7.6486 7.6523 3.6586 12.6023 3.6586C17.5423 3.6586 21.5423 7.6486 21.5423 12.5986C21.5423 17.5386 17.5423 21.5386 12.6023 21.5386ZM18.6523 13.8786C18.6523 11.0886 16.7023 9.2686 13.8723 9.2686H10.5123L9.6423 9.3486L10.3823 8.8286L11.4723 7.8286C11.6923 7.6386 11.8023 7.3686 11.8023 7.0986C11.8023 6.5386 11.2823 6.0386 10.7323 6.0386C10.4623 6.0386 10.2023 6.1286 10.0123 6.3386L6.8523 9.5286C6.6423 9.7486 6.5323 10.0186 6.5323 10.3086C6.5323 10.5786 6.6323 10.8586 6.8523 11.0886L10.0123 14.2686C10.2023 14.4686 10.4723 14.5686 10.7623 14.5686C11.3123 14.5686 11.8123 14.0786 11.8123 13.4986C11.8123 13.2386 11.7023 12.9686 11.4723 12.7886L10.3023 11.8086L9.6423 11.3586L10.5123 11.4386H13.8723C15.3023 11.4386 16.2923 12.3586 16.2923 13.8386C16.2923 15.3086 15.3323 16.2686 13.8823 16.2686H12.1923C11.4223 16.2686 10.9023 16.6986 10.9023 17.3886C10.9023 18.1086 11.4223 18.5586 12.1723 18.5586H13.8823C16.7023 18.5586 18.6523 16.7086 18.6523 13.8786Z" />
        </svg>
    