
        <svg xmlns="http://www.w3.org/2000/svg" viewBox="0 0 100 100">
            <path d="M14.3165 -0.0036C8.3465 -0.0036 3.3765 4.3464 2.4165 10.0464H0.8665C-0.0035 10.0464 -0.2335 10.6864 0.2465 11.3564L2.9665 15.1264C3.3465 15.6664 3.9365 15.6564 4.2965 15.1264L7.0165 11.3464C7.4865 10.6864 7.2665 10.0464 6.4065 10.0464H4.8465C5.7765 5.6564 9.6565 2.3764 14.3165 2.3764C17.0265 2.3764 19.4765 3.5064 21.2065 5.3164C21.8465 5.8964 22.4565 5.7864 22.8765 5.4264C23.3465 5.0164 23.4765 4.2064 22.8665 3.6364C20.7165 1.3964 17.6665 -0.0036 14.3165 -0.0036ZM14.3165 24.2064C20.2965 24.2064 25.2665 19.8664 26.2265 14.1664H27.7765C28.6565 14.1664 28.8765 13.5164 28.3965 12.8564L25.6765 9.0664C25.2865 8.5464 24.7065 8.5564 24.3365 9.0664L21.6165 12.8664C21.1565 13.5164 21.3765 14.1664 22.2265 14.1664H23.7865C22.8665 18.5364 18.9865 21.8164 14.3165 21.8164C11.6165 21.8164 9.1665 20.7064 7.4265 18.8864C6.7965 18.3164 6.1865 18.4064 5.7665 18.7864C5.2965 19.1964 5.1665 20.0064 5.7765 20.5764C7.9165 22.8164 10.9665 24.2064 14.3165 24.2064Z" />
        </svg>
    