
        <svg xmlns="http://www.w3.org/2000/svg" viewBox="0 0 100 100">
            <path d="M10.7117 21.9394C11.2717 21.9394 11.6617 21.6594 11.8317 21.1094C13.0817 17.4094 15.0017 15.9994 18.1517 15.9994L18.5317 16.0094V20.2394C18.5317 21.1294 19.1917 21.7994 20.1017 21.7994C20.7317 21.7994 21.2317 21.5394 21.8417 20.9794L31.1217 12.2594C31.5817 11.8194 31.7617 11.3194 31.7617 10.8994C31.7617 10.4494 31.5817 9.9694 31.1217 9.5394L21.8417 0.8794C21.1717 0.2594 20.7417 -0.0006 20.1217 -0.0006C19.1917 -0.0006 18.5317 0.7294 18.5317 1.6194V5.8194H18.2317C14.6717 5.8194 11.5617 7.8394 10.7617 12.1194H10.6517C9.7717 7.4494 6.4817 5.8194 3.2717 5.8194H2.4717C0.7517 5.8194 0.0017 6.5594 0.0017 8.3994V13.8494C0.0017 15.3394 0.7517 16.0294 2.3817 16.0294H3.7017C6.7517 16.0294 8.7417 18.1094 9.6117 21.1094C9.7717 21.6594 10.1517 21.9394 10.7117 21.9394Z" />
        </svg>
    