
        <svg xmlns="http://www.w3.org/2000/svg" viewBox="0 0 100 100">
            <path d="M11.3523 22.7064C17.6323 22.7064 22.7123 17.6264 22.7123 11.3564C22.7123 5.0764 17.6323 -0.0036 11.3523 -0.0036C5.0823 -0.0036 0.0023 5.0764 0.0023 11.3564C0.0023 17.6264 5.0823 22.7064 11.3523 22.7064ZM11.3523 22.1364C5.3923 22.1364 0.5723 17.3164 0.5723 11.3564C0.5723 5.3864 5.3923 0.5764 11.3523 0.5764C17.3223 0.5764 22.1323 5.3864 22.1323 11.3564C22.1323 17.3164 17.3223 22.1364 11.3523 22.1364ZM5.5323 7.6564C5.4123 7.7664 5.4223 7.9464 5.5323 8.0464L8.9223 11.4764C8.9923 11.5564 9.0423 11.5664 9.1623 11.5664C9.3023 11.5664 9.4423 11.4364 9.4423 11.2864C9.4423 11.2164 9.4023 11.1064 9.3323 11.0364L7.5823 9.2964L6.3823 8.1064L7.4923 8.1464H16.9523C17.1223 8.1464 17.2523 8.0264 17.2523 7.8664C17.2523 7.7064 17.1323 7.5564 16.9523 7.5564H7.4923L6.3823 7.5964L7.5823 6.4064L9.3323 4.6664C9.4023 4.5964 9.4423 4.4864 9.4423 4.4164C9.4423 4.2764 9.3023 4.1464 9.1623 4.1464C9.0623 4.1464 8.9923 4.1764 8.9223 4.2464ZM17.1823 15.1164C17.2923 14.9964 17.2723 14.8264 17.1823 14.7064L13.7923 11.2964C13.7123 11.2164 13.6523 11.2064 13.5323 11.2064C13.3823 11.2064 13.2623 11.3164 13.2623 11.4864C13.2623 11.5664 13.2923 11.6564 13.3723 11.7264L15.1323 13.4764L16.3223 14.6464L15.2223 14.6264H5.7423C5.5923 14.6264 5.4623 14.7464 5.4623 14.8964C5.4623 15.0564 5.5623 15.1964 5.7423 15.1964H15.2223L16.3223 15.1764L15.1323 16.3564L13.3723 18.1064C13.3123 18.1764 13.2623 18.2564 13.2623 18.3564C13.2623 18.4964 13.3923 18.6164 13.5323 18.6164C13.6423 18.6164 13.7123 18.5964 13.7923 18.5264Z" />
        </svg>
    