
        <svg xmlns="http://www.w3.org/2000/svg" viewBox="0 0 100 100">
            <path d="M4.3717 26.1356H16.9817C19.7617 26.1356 21.3417 24.5556 21.3417 21.7456V11.7456H11.6817C10.3217 11.7456 9.6217 11.0356 9.6217 9.6756V-0.0044H4.3717C1.5817 -0.0044 0.0017 1.5856 0.0017 4.3756V21.7456C0.0017 24.5556 1.5817 26.1356 4.3717 26.1356ZM12.4617 9.6756H21.2417C21.2117 9.0256 20.6717 8.3756 19.9117 7.6156L13.7017 1.3756C12.9917 0.6656 12.3517 0.1256 11.6817 0.0856V8.9156C11.6817 9.4356 11.9417 9.6756 12.4617 9.6756ZM10.6717 23.1656C9.9217 23.1656 9.3117 22.6656 9.3117 21.9156V18.8756L9.4617 17.4156L8.8817 18.0356L8.1117 18.8356C7.9017 19.0556 7.5817 19.2556 7.2617 19.2556C6.6017 19.2556 6.0917 18.7856 6.0917 18.1556C6.0917 17.7856 6.2117 17.5356 6.5017 17.2656L9.5617 14.4756C9.9017 14.1756 10.2317 13.9956 10.6717 13.9956C11.1117 13.9956 11.4517 14.1756 11.7817 14.4756L14.8317 17.2656C15.1317 17.5356 15.2417 17.7856 15.2417 18.1556C15.2417 18.7856 14.7417 19.2556 14.0717 19.2556C13.7617 19.2556 13.4417 19.0556 13.2317 18.8356L12.4717 18.0356L11.8917 17.4156L12.0217 18.8756V21.9156C12.0217 22.6656 11.4117 23.1656 10.6717 23.1656Z" />
        </svg>
    