
        <svg xmlns="http://www.w3.org/2000/svg" viewBox="0 0 100 100">
            <path d="M18.4894 17.8348C18.4894 17.4448 18.3294 17.1448 18.1194 16.7148L10.5694 1.0848C10.1694 0.2848 9.7894 0.0048 9.2494 0.0048C8.7094 0.0048 8.3294 0.2848 7.9294 1.0848L0.3794 16.7148C0.1594 17.1448 -0.0006 17.4448 -0.0006 17.8448C-0.0006 18.5748 0.5494 19.0448 1.4294 19.0448L17.0594 19.0348C17.9394 19.0348 18.4894 18.5748 18.4894 17.8348ZM16.8094 17.4248C16.8094 17.5148 16.7394 17.5848 16.5894 17.5848H1.8994C1.7594 17.5848 1.6894 17.5148 1.6894 17.4248C1.6894 17.3548 1.7194 17.2848 1.7594 17.2148L9.0394 2.0748C9.0694 1.9848 9.1394 1.8848 9.2494 1.8848C9.3494 1.8848 9.4194 1.9848 9.4694 2.0748L16.7394 17.2148C16.7694 17.2848 16.8094 17.3548 16.8094 17.4248Z" />
        </svg>
    