
        <svg xmlns="http://www.w3.org/2000/svg" viewBox="0 0 100 100">
            <path d="M10.2517 21.3078C10.6617 21.3078 10.9317 21.0978 11.0317 20.7278C12.2717 16.6378 14.3517 15.1778 18.0217 15.1778L18.6217 15.1878V19.8678C18.6217 20.5478 19.0917 21.0478 19.7817 21.0478C20.2717 21.0478 20.6717 20.8278 21.1217 20.4178L30.3417 11.7578C30.8417 11.2878 30.9717 10.8878 30.9717 10.5278C30.9717 10.1578 30.8417 9.7578 30.3417 9.2978L21.1217 0.6778C20.6217 0.2178 20.2817 -0.0022 19.7917 -0.0022C19.0917 -0.0022 18.6217 0.5478 18.6217 1.2278V5.9078H18.2217C14.0817 5.9078 11.0017 8.2178 10.2917 13.1878H10.1917C9.4217 7.9078 6.3017 5.9078 2.5217 5.9078H1.9217C0.5817 5.9078 0.0017 6.4478 0.0017 7.9078V13.5278C0.0017 14.7078 0.5817 15.2078 1.8517 15.2078H2.7917C6.3717 15.2078 8.5317 17.1778 9.4917 20.7178C9.5717 21.0978 9.8417 21.3078 10.2517 21.3078Z" />
        </svg>
    