
        <svg xmlns="http://www.w3.org/2000/svg" viewBox="0 0 100 100">
            <path d="M15.2817 -0.0041C9.8717 -0.0041 6.1317 3.6459 6.1317 8.8459V14.0659L6.2417 16.5559L5.2217 15.2659L3.9017 13.9059C3.4717 13.4659 2.9517 13.1259 2.2117 13.1259C0.9617 13.1259 0.0017 14.0359 0.0017 15.3859C0.0017 15.9959 0.2617 16.5959 0.7217 17.0659L6.7517 23.0959C7.1617 23.5059 7.8517 23.7659 8.4717 23.7659C9.1017 23.7659 9.8017 23.5059 10.1917 23.0959L16.2117 17.0659C16.6917 16.5959 16.9417 15.9959 16.9417 15.3859C16.9417 14.0359 15.9817 13.1259 14.7317 13.1259C13.9817 13.1259 13.4617 13.4659 13.0417 13.9059L11.7317 15.2659L10.7117 16.5559L10.8317 14.0659V9.2559C10.8317 6.4959 12.6817 4.5659 15.2717 4.5659C17.8517 4.5659 19.6017 6.4959 19.6017 9.2559V12.1159C19.6017 13.4559 20.6617 14.4959 21.9617 14.4959C23.2617 14.4959 24.3117 13.4559 24.3117 12.1159V8.8259C24.3117 3.6359 20.8317 -0.0041 15.2817 -0.0041Z" />
        </svg>
    