
        <svg xmlns="http://www.w3.org/2000/svg" viewBox="0 0 100 100">
            <path d="M28.0221 16.1383L27.9021 7.6983C27.9021 7.1683 27.6721 6.5883 27.2821 6.2083C26.4421 5.3683 25.2221 5.3683 24.3621 6.2083C23.9721 6.6083 23.7421 7.0883 23.7621 7.6483L23.8521 11.0083L23.8721 11.2283L22.7321 10.0883L13.2821 0.6283C12.4321 -0.2117 11.1821 -0.2117 10.3521 0.6283C9.5021 1.4683 9.5021 2.7183 10.3521 3.5583L19.8021 13.0183L20.9421 14.1583L20.7221 14.1283L17.3721 14.0483C16.8021 14.0283 16.3221 14.2583 15.9221 14.6483C15.0821 15.5083 15.0821 16.7183 15.9221 17.5683C16.3021 17.9483 16.8921 18.1883 17.4121 18.1883L25.8521 18.3083C27.0821 18.3383 28.0521 17.3683 28.0221 16.1383ZM0.0021 11.9183L0.1221 20.3483C0.1221 20.8783 0.3521 21.4583 0.7421 21.8283C1.5821 22.6883 2.8021 22.6883 3.6521 21.8283C4.0421 21.4483 4.2821 20.9483 4.2621 20.3883L4.1721 17.0483L4.1521 16.8283L5.2821 17.9483L14.7421 27.4183C15.5821 28.2683 16.8421 28.2683 17.6721 27.4183C18.5121 26.5783 18.5121 25.3383 17.6721 24.4883L8.2121 15.0283L7.0821 13.8983L7.3121 13.9183L10.6521 14.0083C11.2121 14.0183 11.6921 13.7883 12.0921 13.3983C12.9521 12.5483 12.9521 11.3183 12.0921 10.4883C11.7221 10.0983 11.1421 9.8683 10.6021 9.8683L2.1721 9.7483C0.9421 9.7183 -0.0279 10.6883 0.0021 11.9183Z" />
        </svg>
    