
        <svg xmlns="http://www.w3.org/2000/svg" viewBox="0 0 100 100">
            <path d="M11.3523 22.7064C17.6323 22.7064 22.7123 17.6264 22.7123 11.3564C22.7123 5.0764 17.6323 -0.0036 11.3523 -0.0036C5.0823 -0.0036 0.0023 5.0764 0.0023 11.3564C0.0023 17.6264 5.0823 22.7064 11.3523 22.7064ZM11.3523 22.1364C5.3923 22.1364 0.5723 17.3164 0.5723 11.3564C0.5723 5.3864 5.3923 0.5764 11.3523 0.5764C17.3223 0.5764 22.1323 5.3864 22.1323 11.3564C22.1323 17.3164 17.3223 22.1364 11.3523 22.1364ZM18.5623 11.3564C18.5623 11.1764 18.5123 10.9964 18.1523 10.6564L12.7123 5.6064C12.5823 5.4864 12.4323 5.3764 12.2423 5.3764C11.9623 5.3764 11.8123 5.5864 11.8123 5.8564V9.0264H5.7223C4.9023 9.0264 4.4623 9.4464 4.4623 10.2264V12.5464C4.4623 13.3464 4.9023 13.7564 5.7223 13.7564H11.8123V16.8564C11.8123 17.1164 11.9623 17.3164 12.2423 17.3164C12.4323 17.3164 12.5823 17.2164 12.7123 17.0964L18.1523 12.0564C18.5123 11.7064 18.5623 11.5264 18.5623 11.3564Z" />
        </svg>
    