
        <svg xmlns="http://www.w3.org/2000/svg" viewBox="0 0 100 100">
            <path d="M2.0617 5.5428H26.4017C27.7517 5.5428 28.4617 4.7428 28.4617 3.3828V2.1528C28.4617 0.7928 27.7517 0.0028 26.4017 0.0028H2.0617C0.7817 0.0028 0.0017 0.7928 0.0017 2.1528V3.3828C0.0017 4.7428 0.7217 5.5428 2.0617 5.5428ZM8.0117 21.8828H20.4517C22.8617 21.8828 23.8317 20.5628 24.2117 18.1828L25.8617 7.2528H2.6017L4.2617 18.1828C4.6317 20.5828 5.6017 21.8828 8.0117 21.8828ZM15.3117 18.1328C15.3117 18.7028 14.8217 19.1328 14.2417 19.1328C13.6517 19.1328 13.1717 18.7028 13.1717 18.1328V14.2028L13.2617 12.3128L12.3417 13.2728L11.4417 14.2028C11.2517 14.4028 10.9817 14.5328 10.7217 14.5328C10.1517 14.5328 9.7517 14.1428 9.7517 13.5928C9.7517 13.2928 9.8717 13.0628 10.0917 12.8528L13.4317 9.8228C13.7117 9.5628 13.9417 9.4428 14.2417 9.4428C14.5417 9.4428 14.7817 9.5628 15.0617 9.8228L18.3917 12.8528C18.6117 13.0628 18.7417 13.2928 18.7417 13.5928C18.7417 14.1428 18.3017 14.5328 17.7617 14.5328C17.4917 14.5328 17.2217 14.4028 17.0417 14.2028L16.1417 13.2728L15.2217 12.3128L15.3117 14.2028Z" />
        </svg>
    