
        <svg xmlns="http://www.w3.org/2000/svg" viewBox="0 0 100 100">
            <path d="M22.6617 14.6834C22.6617 9.9034 19.4417 6.6134 14.1317 6.6134H7.1117L4.4317 6.7234L6.3617 5.1134L9.1017 2.4334C9.3617 2.1634 9.5417 1.8534 9.5417 1.4034C9.5417 0.5934 8.9717 0.0034 8.1217 0.0034C7.7417 0.0034 7.3617 0.1634 7.0617 0.4534L0.4417 6.9834C0.1617 7.2634 0.0017 7.6634 0.0017 8.0634C0.0017 8.4634 0.1617 8.8734 0.4417 9.1534L7.0617 15.6634C7.3617 15.9634 7.7417 16.1234 8.1217 16.1234C8.9717 16.1234 9.5417 15.5234 9.5417 14.7234C9.5417 14.2734 9.3617 13.9534 9.1017 13.6834L6.3617 11.0234L4.4317 9.4134L7.1117 9.5234H14.1217C17.7317 9.5234 19.7817 11.6234 19.7817 14.5934C19.7817 17.5634 17.7317 19.7334 14.1217 19.7334H11.3817C10.5117 19.7334 9.8917 20.3834 9.8917 21.1834C9.8917 21.9934 10.5117 22.6534 11.3817 22.6534H14.2617C19.5017 22.6534 22.6617 19.5034 22.6617 14.6834Z" />
        </svg>
    