
        <svg xmlns="http://www.w3.org/2000/svg" viewBox="0 0 100 100">
            <path d="M3.6817 21.5722H17.8917C20.3517 21.5722 21.5717 20.3722 21.5717 17.9522V3.6322C21.5717 1.2222 20.3517 0.0022 17.8917 0.0022H3.6817C1.2317 0.0022 0.0017 1.2222 0.0017 3.6322V17.9522C0.0017 20.3722 1.2317 21.5722 3.6817 21.5722ZM5.4817 16.1222C4.9917 16.1222 4.6517 15.7922 4.6517 15.3322V6.2422C4.6517 5.7822 4.9917 5.4422 5.4817 5.4422C5.9417 5.4422 6.2817 5.7822 6.2817 6.2422V15.3322C6.2817 15.7922 5.9417 16.1222 5.4817 16.1222ZM18.1617 10.7922C18.1617 11.2822 17.8117 11.6222 17.3417 11.6222H11.8117L9.5817 11.4722L12.0517 13.6622L12.8117 14.3622C12.9817 14.5122 13.0517 14.7022 13.0517 14.9522C13.0517 15.4122 12.7117 15.7422 12.2417 15.7422C12.0617 15.7422 11.8017 15.6322 11.6417 15.4722L7.4917 11.4022C7.2917 11.2222 7.2117 11.0322 7.2117 10.7922C7.2117 10.5722 7.3117 10.3622 7.4917 10.1822L11.6617 6.0822C11.8217 5.8922 12.0317 5.8322 12.2417 5.8322C12.6917 5.8322 13.0517 6.1522 13.0517 6.6122C13.0517 6.8322 12.9817 7.0422 12.8117 7.2022L12.0617 7.9322L9.6017 10.1122L11.8117 9.9922H17.3417C17.8117 9.9922 18.1617 10.3322 18.1617 10.7922Z" />
        </svg>
    