
        <svg xmlns="http://www.w3.org/2000/svg" viewBox="0 0 100 100">
            <path d="M4.5917 23.2359H18.6417C21.5417 23.2359 23.2417 21.5459 23.2417 18.6459V4.5959C23.2417 1.6959 21.5417 -0.0041 18.6417 -0.0041H4.5917C1.7017 -0.0041 0.0017 1.6959 0.0017 4.5959V18.6459C0.0017 21.5459 1.7017 23.2359 4.5917 23.2359ZM5.2217 19.0759C4.5117 19.0759 4.1617 18.7859 4.1617 18.0159V5.2359C4.1617 4.4659 4.5117 4.1759 5.2217 4.1759H18.0117C18.7217 4.1759 19.0817 4.4659 19.0817 5.2359V18.0159C19.0817 18.7859 18.7217 19.0759 18.0117 19.0759ZM16.6917 12.1259C16.6917 9.6959 14.9517 7.5859 12.7417 7.1859C12.6717 7.1759 12.5717 7.1559 12.5117 7.1459L12.6217 7.0159C12.7417 6.8459 12.9017 6.6759 12.9017 6.3159C12.9017 5.8259 12.5117 5.2959 11.7817 5.2959C11.4117 5.2959 11.1217 5.4959 10.9017 5.7059L8.9917 7.6359C8.5617 8.0659 8.5517 8.8159 9.0017 9.2559L10.9117 11.1759C11.1117 11.3859 11.4217 11.5159 11.7317 11.5159C12.3717 11.5159 12.8717 11.1459 12.8717 10.4159C12.8717 10.2159 12.8317 10.0359 12.7717 9.9059L12.6517 9.7459C12.7517 9.8059 12.8417 9.8559 12.9117 9.8759C13.7017 10.1259 14.2417 11.0959 14.2417 12.1359C14.2417 13.5859 13.0917 14.7559 11.6217 14.7559C10.1817 14.7559 9.0117 13.6059 9.0117 12.1359C9.0117 11.4559 8.4617 10.9259 7.7817 10.9259C7.1017 10.9259 6.5617 11.4559 6.5617 12.1359C6.5617 14.9259 8.8517 17.2159 11.6217 17.2159C14.4017 17.2159 16.6917 14.9259 16.6917 12.1259Z" />
        </svg>
    