
        <svg xmlns="http://www.w3.org/2000/svg" viewBox="0 0 100 100">
            <path d="M4.1417 22.4041H18.2717C20.9517 22.4041 22.4017 20.9541 22.4017 18.3041V4.1141C22.4017 1.4641 20.9517 0.0041 18.2717 0.0041H4.1417C1.4617 0.0041 0.0017 1.4541 0.0017 4.1141V18.3041C0.0017 20.9541 1.4617 22.4041 4.1417 22.4041ZM4.4617 19.3841C3.5317 19.3841 3.0217 18.9241 3.0217 17.9341V4.4841C3.0217 3.4941 3.5317 3.0241 4.4617 3.0241H17.9417C18.8817 3.0241 19.3817 3.4941 19.3817 4.4841V17.9341C19.3817 18.9241 18.8817 19.3841 17.9417 19.3841ZM5.3117 11.1941C5.3117 11.5441 5.4217 11.8941 5.7617 12.2341L9.3717 15.9841C9.6017 16.2041 9.8417 16.3341 10.1717 16.3341C10.8317 16.3341 11.2717 15.8041 11.2717 15.2141C11.2717 14.8741 11.1317 14.5641 10.8917 14.3441L9.4117 12.9541L8.5817 12.3941L10.2617 12.5041H15.8217C16.5117 12.5041 17.1117 11.9341 17.1117 11.1941C17.1117 10.4541 16.5117 9.8741 15.8217 9.8741H10.2617L8.5817 9.9941L9.4117 9.4441L10.8917 8.0541C11.1317 7.8241 11.2717 7.5241 11.2717 7.1941C11.2717 6.5941 10.8317 6.0441 10.1717 6.0441C9.8417 6.0441 9.6017 6.1741 9.3717 6.4141L5.7617 10.1641C5.4217 10.5041 5.3117 10.8441 5.3117 11.1941Z" />
        </svg>
    