
        <svg xmlns="http://www.w3.org/2000/svg" viewBox="0 0 100 100">
            <path d="M15.7017 0.002C10.3917 0.002 7.7917 2.192 7.7917 7.522V15.232L7.8917 18.292L5.7817 15.952L2.1317 12.302C1.9117 12.072 1.5817 11.932 1.2317 11.932C0.5317 11.932 0.0017 12.452 0.0017 13.192C0.0017 13.512 0.1317 13.832 0.4017 14.112L8.1217 21.832C8.3817 22.102 8.7217 22.252 9.0717 22.252C9.4217 22.252 9.7717 22.102 10.0317 21.832L17.7417 14.112C18.0117 13.832 18.1417 13.512 18.1417 13.192C18.1417 12.452 17.6217 11.932 16.9217 11.932C16.5617 11.932 16.2417 12.072 16.0117 12.302L12.3617 15.952L10.2517 18.292L10.3617 15.232L10.3517 7.692C10.3317 3.842 12.0017 2.532 15.7817 2.532C16.4217 2.532 16.8717 2.562 17.3117 2.562C18.0617 2.562 18.5817 2.102 18.5817 1.352C18.5817 0.572 17.9917 0.202 17.4417 0.102C16.9717 0.022 16.3717 0.002 15.7017 0.002Z" />
        </svg>
    