
        <svg xmlns="http://www.w3.org/2000/svg" viewBox="0 0 100 100">
            <path d="M12.1023 24.2147C18.7823 24.2147 24.2123 18.7847 24.2123 12.1047C24.2123 5.4247 18.7823 0.0047 12.1023 0.0047C5.4223 0.0047 0.0023 5.4247 0.0023 12.1047C0.0023 18.7847 5.4223 24.2147 12.1023 24.2147ZM19.4423 12.1047C19.4423 12.3447 19.3523 12.6447 19.0923 12.8747L13.7923 17.8447C13.4523 18.1647 13.1623 18.3147 12.7923 18.3147C12.3023 18.3147 11.9223 17.9447 11.9223 17.4247V14.8847H6.5523C5.5323 14.8847 4.9323 14.2947 4.9323 13.2847V10.9547C4.9323 9.9347 5.5323 9.3547 6.5523 9.3547H11.9223V6.8247C11.9223 6.3147 12.3023 5.9047 12.8323 5.9047C13.1623 5.9047 13.4223 6.0447 13.7923 6.4147L19.0923 11.3347C19.3523 11.5747 19.4423 11.8547 19.4423 12.1047Z" />
        </svg>
    