
        <svg xmlns="http://www.w3.org/2000/svg" viewBox="0 0 100 100">
            <path d="M12.1023 24.2064C18.7823 24.2064 24.2123 18.7864 24.2123 12.1064C24.2123 5.4264 18.7823 -0.0036 12.1023 -0.0036C5.4223 -0.0036 0.0023 5.4264 0.0023 12.1064C0.0023 18.7864 5.4223 24.2064 12.1023 24.2064ZM12.1023 21.8164C6.7223 21.8164 2.3823 17.4864 2.3823 12.1064C2.3823 6.7264 6.7223 2.3764 12.1023 2.3764C17.4823 2.3764 21.8323 6.7264 21.8323 12.1064C21.8323 17.4864 17.4823 21.8164 12.1023 21.8164ZM16.9823 17.2464C17.4823 17.2464 17.8523 16.8864 17.8523 16.3864V7.8164C17.8523 7.3164 17.4823 6.9464 16.9823 6.9464C16.4923 6.9464 16.1123 7.3164 16.1123 7.8164V16.3864C16.1123 16.8864 16.4923 17.2464 16.9823 17.2464ZM4.9423 12.1064C4.9423 12.6464 5.3123 12.9964 5.8323 12.9964H10.7223L12.7223 12.8564L10.6123 14.7264L9.8623 15.4264C9.6923 15.5864 9.6023 15.7964 9.6023 16.0664C9.6023 16.5564 9.9623 16.9064 10.4623 16.9064C10.6723 16.9064 10.9423 16.7964 11.1223 16.6264L15.0023 12.7764C15.1923 12.5864 15.2923 12.3664 15.2923 12.1064C15.2923 11.8564 15.1923 11.6364 15.0023 11.4464L11.1123 7.5664C10.9223 7.3664 10.7023 7.2864 10.4623 7.2864C9.9723 7.2864 9.6023 7.6364 9.6023 8.1364C9.6023 8.3764 9.6923 8.6064 9.8623 8.7764L10.6023 9.5064L12.7123 11.3664L10.7223 11.2364H5.8323C5.3123 11.2364 4.9423 11.6064 4.9423 12.1064Z" />
        </svg>
    