
        <svg xmlns="http://www.w3.org/2000/svg" viewBox="0 0 100 100">
            <path d="M4.5917 23.2359H18.6417C21.5417 23.2359 23.2417 21.5459 23.2417 18.6459V4.5959C23.2417 1.6959 21.5417 -0.0041 18.6417 -0.0041H4.5917C1.7017 -0.0041 0.0017 1.6959 0.0017 4.5959V18.6459C0.0017 21.5459 1.7017 23.2359 4.5917 23.2359ZM16.2517 17.0359C15.5117 17.0359 14.9017 16.4259 14.9017 15.6759V7.5659C14.9017 6.8159 15.5117 6.2059 16.2517 6.2059C17.0017 6.2059 17.6117 6.8159 17.6117 7.5659V15.6759C17.6117 16.4259 17.0017 17.0359 16.2517 17.0359ZM4.5217 11.6259C4.5217 10.7659 5.1317 10.2059 6.0317 10.2059H8.8617L10.3117 10.3459L9.3717 9.5659L8.5917 8.7659C8.3117 8.4959 8.1117 8.2059 8.1117 7.7559C8.1117 6.9859 8.6817 6.4059 9.5117 6.4059C9.8517 6.4059 10.2217 6.5459 10.5017 6.8559L13.9717 10.5859C14.2017 10.8259 14.3817 11.2059 14.3817 11.6259C14.3817 12.0459 14.2017 12.4259 13.9717 12.6659L10.5017 16.4059C10.2317 16.7059 9.8517 16.8359 9.5117 16.8359C8.6817 16.8359 8.1117 16.2659 8.1117 15.5159C8.1117 15.0559 8.3217 14.7559 8.5917 14.4759L9.3717 13.6859L10.3117 12.9059L8.8617 13.0559H6.0317C5.1317 13.0559 4.5217 12.4759 4.5217 11.6259Z" />
        </svg>
    