
        <svg xmlns="http://www.w3.org/2000/svg" viewBox="0 0 100 100">
            <path d="M10.9613 21.5727C10.9613 24.1627 12.3313 25.5427 14.8913 25.5427H27.4113C29.9913 25.5427 31.3513 24.1627 31.3513 21.5727V3.9627C31.3513 1.3727 29.9913 0.0027 27.4113 0.0027H14.8913C12.3313 0.0027 10.9613 1.3727 10.9613 3.9627ZM13.5713 21.3527V4.1827C13.5713 3.1627 14.1013 2.6027 15.1713 2.6027H27.1413C28.2213 2.6027 28.7413 3.1627 28.7413 4.1827V21.3527C28.7413 22.3827 28.2213 22.9327 27.1413 22.9327H15.1713C14.1013 22.9327 13.5713 22.3827 13.5713 21.3527ZM26.5913 18.1427C27.0813 18.1427 27.4613 17.8727 27.4613 17.3327V7.2027C27.4613 6.6727 27.0813 6.4027 26.5913 6.4027C25.3313 6.4027 22.1113 8.2427 22.1113 12.2727C22.1113 16.3127 25.3313 18.1427 26.5913 18.1427ZM0.3113 11.0027C-0.3387 11.7427 0.0813 12.7627 1.0613 12.7627H3.0713V17.3627C3.0713 18.0227 3.6013 18.5127 4.2613 18.5127C4.9213 18.5127 5.4413 18.0227 5.4413 17.3627V12.7627H7.4213C8.4613 12.7627 8.8313 11.7327 8.1913 11.0027L4.9913 7.3727C4.5613 6.8927 3.9413 6.8927 3.5013 7.3727ZM18.0013 15.2227C19.8413 15.2227 21.2313 13.9027 21.2213 12.2727C21.2113 10.6427 19.8413 9.3327 18.0013 9.3327C16.2813 9.3327 14.8513 10.6427 14.8513 12.2727C14.8513 13.9027 16.2813 15.2227 18.0013 15.2227Z" />
        </svg>
    