
        <svg xmlns="http://www.w3.org/2000/svg" viewBox="0 0 100 100">
            <path d="M3.1617 20.742H17.5917C19.6617 20.742 20.7417 19.642 20.7417 17.592V3.152C20.7417 1.102 19.6617 0.002 17.5917 0.002H3.1617C1.0917 0.002 0.0017 1.082 0.0017 3.152V17.592C0.0017 19.662 1.0917 20.742 3.1617 20.742ZM3.1917 19.872C1.6617 19.872 0.8717 19.082 0.8717 17.552V3.202C0.8717 1.662 1.6617 0.872 3.1917 0.872H17.5517C19.0317 0.872 19.8717 1.662 19.8717 3.202V17.552C19.8717 19.082 19.0317 19.872 17.5517 19.872ZM15.7617 15.132C16.0117 15.132 16.1717 14.972 16.1717 14.742V6.022C16.1717 5.792 16.0117 5.632 15.7617 5.632C15.5417 5.632 15.3717 5.792 15.3717 6.022V14.742C15.3717 14.972 15.5417 15.132 15.7617 15.132ZM3.9617 10.382C3.9617 10.632 4.1217 10.792 4.3617 10.792H10.7917L12.9817 10.732L10.7717 12.882L9.3417 14.282C9.2317 14.382 9.1717 14.482 9.1717 14.632C9.1717 14.882 9.3417 15.042 9.5617 15.042C9.7217 15.042 9.8417 14.942 9.9517 14.832L14.0817 10.692C14.1817 10.602 14.2217 10.492 14.2217 10.382C14.2217 10.282 14.1817 10.162 14.0817 10.082L9.9017 5.882C9.8317 5.802 9.7017 5.722 9.5717 5.722C9.3517 5.722 9.1717 5.882 9.1717 6.132C9.1717 6.272 9.2317 6.382 9.3417 6.482L10.7317 7.842L12.9717 10.032L10.7917 9.982H4.3617C4.1217 9.982 3.9617 10.152 3.9617 10.382Z" />
        </svg>
    