
        <svg xmlns="http://www.w3.org/2000/svg" viewBox="0 0 100 100">
            <path d="M12.5544 21.8597C12.5544 24.7597 14.2444 26.4597 17.1444 26.4597H29.8044C32.6944 26.4597 34.3944 24.7597 34.3944 21.8597V4.6097C34.3944 1.6997 32.6944 -0.0003 29.8044 -0.0003H17.1444C14.2444 -0.0003 12.5544 1.6997 12.5544 4.6097ZM16.7144 21.2197V5.2397C16.7144 4.5097 17.0044 4.1597 17.7844 4.1597H29.1544C29.9444 4.1597 30.2344 4.5097 30.2344 5.2397V21.2197C30.2344 21.9497 29.9444 22.2997 29.1544 22.2997H17.7844C17.0044 22.2997 16.7144 21.9497 16.7144 21.2197ZM0.3944 11.9197C-0.4156 12.8597 0.0944 14.1197 1.3344 14.1197H3.3544V17.6397C3.3544 18.5897 4.1444 19.2497 5.1244 19.2497C6.0944 19.2497 6.8844 18.5897 6.8844 17.6397V14.1197H8.8644C10.1544 14.1197 10.6744 12.8797 9.8444 11.9197L6.0244 7.5697C5.5144 6.9797 4.7144 6.9797 4.1944 7.5697ZM28.4044 18.1597C29.0344 18.1597 29.5444 17.7997 29.5444 17.0997V8.2397C29.5444 7.5397 29.0344 7.1697 28.4044 7.1697C27.2144 7.1697 24.2244 8.7997 24.2244 12.6697C24.2244 16.5397 27.2144 18.1597 28.4044 18.1597ZM20.3844 15.4797C22.1444 15.4797 23.4544 14.2197 23.4544 12.6697C23.4544 11.1097 22.1444 9.8597 20.3844 9.8597C18.7444 9.8597 17.3844 11.1097 17.3844 12.6697C17.3844 14.2197 18.7444 15.4797 20.3844 15.4797Z" />
        </svg>
    