
        <svg xmlns="http://www.w3.org/2000/svg" viewBox="0 0 100 100">
            <path d="M5.1331 22.9503C6.2231 22.9503 6.9431 22.1403 6.9431 20.9203V16.1903C8.1031 17.3603 9.5631 18.2803 11.4931 19.0903C12.6931 19.6003 13.6931 18.9903 14.0331 18.1103C14.3431 17.2903 14.0731 16.2603 12.8431 15.6803C9.4631 14.1103 6.9431 12.2703 6.9431 8.1703V7.5803H9.1031C10.2631 7.5803 10.6431 6.5203 9.8431 5.4503L6.2831 0.6203C5.6631 -0.2197 4.6231 -0.1997 4.0131 0.6203L0.4231 5.4403C-0.3569 6.5103 -0.0269 7.5803 1.1731 7.5803H3.3431V20.9203C3.3431 22.1403 4.0531 22.9503 5.1331 22.9503Z" />
        </svg>
    