
        <svg xmlns="http://www.w3.org/2000/svg" viewBox="0 0 100 100">
            <path d="M19.9483 26.2225C20.8983 26.2225 21.6683 25.5925 21.6683 24.5725V1.6525C21.6683 0.6525 20.8583 0.0025 19.9483 0.0025C19.0583 0.0025 18.2083 0.6725 18.2083 1.6525V24.5725C18.2083 25.5825 19.0283 26.2225 19.9483 26.2225ZM36.0283 21.0825C37.7783 22.1525 39.8783 21.1825 39.8783 19.0225V7.2025C39.8783 5.0525 37.8283 4.0525 36.0283 5.1425L26.5083 10.8825C24.7983 11.9225 24.7783 14.2825 26.5083 15.3425ZM13.3683 15.3425C15.1083 14.2825 15.0783 11.9225 13.3683 10.8825L3.8583 5.1425C2.0483 4.0525 -0.0017 5.0525 -0.0017 7.2025V19.0225C-0.0017 21.1825 2.0983 22.1525 3.8583 21.0825ZM36.3283 17.4025L29.3583 13.1825C29.2883 13.1525 29.2783 13.0625 29.3583 13.0325L36.3283 8.8225C36.3983 8.7725 36.4883 8.8225 36.4883 8.9025V17.3225C36.4883 17.4125 36.3883 17.4525 36.3283 17.4025ZM10.5383 13.1825L3.5483 17.4025C3.4883 17.4525 3.3883 17.4125 3.3883 17.3225V8.9025C3.3883 8.8225 3.4783 8.7725 3.5483 8.8225L10.5383 13.0325C10.6083 13.0625 10.5983 13.1525 10.5383 13.1825Z" />
        </svg>
    