
        <svg xmlns="http://www.w3.org/2000/svg" viewBox="0 0 100 100">
            <path d="M24.4923 22.7236C28.6123 22.7236 31.9523 19.6536 31.9523 15.7936C31.9523 13.1436 30.5123 10.6436 28.0423 9.6236C28.0223 4.0236 23.9323 0.0036 18.5423 0.0036C15.6423 0.0036 12.9923 1.2436 11.2423 3.6636C7.9123 3.0836 4.8523 5.3936 4.5123 8.7936C1.7023 9.4836 0.0023 12.1036 0.0023 15.3036C0.0023 19.3936 3.5623 22.7236 8.0523 22.7236ZM24.5023 18.5636H8.0723C5.9423 18.5636 4.3023 17.0836 4.3023 15.3036C4.3023 13.0236 5.8623 11.7636 7.8723 11.7636C8.0723 11.7636 8.1823 11.6436 8.1523 11.4336C7.7723 8.4036 9.8923 6.7736 12.8623 7.5936C13.0323 7.6336 13.1623 7.5936 13.2523 7.4436C14.4923 5.3636 16.0423 4.1636 18.4523 4.1636C21.5423 4.1636 23.9523 6.5636 24.0823 9.6836C24.1323 10.6436 24.0423 11.5436 23.9523 12.1736C23.9323 12.3836 24.0123 12.4836 24.2223 12.5036C26.3323 12.6836 27.6523 13.9336 27.6523 15.7936C27.6523 17.3336 26.2623 18.5636 24.5023 18.5636ZM13.3823 9.8036C13.6523 10.2736 14.1923 10.5536 14.8523 10.1636C15.3023 9.8836 15.7523 9.7636 16.2023 9.7636C17.3823 9.7636 18.3023 10.4136 18.7123 11.4236H18.2323C17.6623 11.4236 17.4523 12.0136 17.8123 12.4836L19.2523 14.3436C19.5823 14.7536 20.1423 14.7536 20.4523 14.3436L21.9023 12.4836C22.2623 12.0036 22.0323 11.4236 21.4523 11.4236H20.8823C20.4223 9.2836 18.5423 7.7236 16.2023 7.7236C15.2123 7.7236 14.4223 7.9536 13.8123 8.3836C13.2023 8.7736 13.1323 9.3636 13.3823 9.8036ZM10.5123 12.4436C10.1523 12.9336 10.3723 13.5136 10.9423 13.5136H11.5323C11.9923 15.6536 13.8723 17.2136 16.2023 17.2136C17.2023 17.2136 17.9923 16.9836 18.6023 16.5536C19.2023 16.1636 19.3023 15.5736 19.0323 15.1336C18.7723 14.6636 18.2223 14.3836 17.5823 14.7636C17.1223 15.0436 16.6623 15.1636 16.2023 15.1636C15.0423 15.1636 14.1123 14.5036 13.7023 13.5136H14.1723C14.7523 13.5136 14.9623 12.9236 14.6023 12.4436L13.1523 10.5836C12.8323 10.1736 12.2723 10.1836 11.9523 10.5836Z" />
        </svg>
    