
        <svg xmlns="http://www.w3.org/2000/svg" viewBox="0 0 100 100">
            <path d="M3.8417 21.8628H23.9217C26.4517 21.8628 27.7617 20.5628 27.7617 18.0728V3.7928C27.7617 1.3028 26.4517 0.0028 23.9217 0.0028H3.8417C1.3117 0.0028 0.0017 1.2928 0.0017 3.7928V18.0728C0.0017 20.5628 1.3117 21.8628 3.8417 21.8628ZM21.0617 9.6428C21.0617 7.7328 20.0117 6.6928 18.0717 6.6928H2.3017V3.9928C2.3017 2.8628 2.8917 2.2828 3.9817 2.2828H23.7817C24.8517 2.2828 25.4617 2.8628 25.4617 3.9928V17.8728C25.4617 19.0028 24.8517 19.5728 23.7817 19.5728H21.0617ZM3.9817 19.5728C2.8917 19.5728 2.3017 19.0028 2.3017 17.8728V8.6128H12.6417V19.5728ZM17.8817 8.6128C18.6817 8.6128 19.1417 9.0828 19.1417 9.8928V19.5728H14.5617V8.6128Z" />
        </svg>
    