
        <svg xmlns="http://www.w3.org/2000/svg" viewBox="0 0 100 100">
            <path d="M12.1023 24.2064C18.7823 24.2064 24.2123 18.7864 24.2123 12.1064C24.2123 5.4264 18.7823 -0.0036 12.1023 -0.0036C5.4223 -0.0036 0.0023 5.4264 0.0023 12.1064C0.0023 18.7864 5.4223 24.2064 12.1023 24.2064ZM12.1323 18.2664C11.4023 18.2664 10.9923 17.7964 11.0423 17.0964L11.2023 13.7064L8.1923 15.7164C7.9923 15.8664 7.7623 15.9464 7.4923 15.9464C6.9423 15.9464 6.4323 15.5064 6.4323 14.8364C6.4323 14.4064 6.6723 14.0864 7.1123 13.8664L10.3223 12.1664L7.1023 10.4764C6.6523 10.2564 6.4323 9.9264 6.4323 9.4964C6.4323 8.8364 6.9423 8.3864 7.4923 8.3864C7.7623 8.3864 8.0023 8.4764 8.1923 8.6264L11.2023 10.6164L11.0423 7.1264C10.9923 6.3864 11.4523 5.9364 12.1323 5.9364C12.7923 5.9364 13.2223 6.3664 13.1723 7.1164L13.0123 10.6164L16.0223 8.6164C16.2223 8.4564 16.4523 8.3764 16.7323 8.3764C17.2723 8.3764 17.7823 8.8164 17.7823 9.4764C17.7823 9.9164 17.5523 10.2464 17.1023 10.4664L13.8723 12.1564L17.1023 13.8764C17.5523 14.0964 17.7623 14.4164 17.7623 14.8564C17.7623 15.5164 17.2723 15.9564 16.7323 15.9564C16.4523 15.9564 16.2223 15.8764 16.0223 15.7264L13.0223 13.7064L13.1823 17.0964C13.2323 17.8164 12.8423 18.2664 12.1323 18.2664Z" />
        </svg>
    