
        <svg xmlns="http://www.w3.org/2000/svg" viewBox="0 0 100 100">
            <path d="M0.0023 12.5152C0.0023 20.1252 5.2923 25.0052 13.0123 25.0052C14.8923 25.0052 16.1523 24.8452 16.9423 24.5552C17.6323 24.2852 17.9323 23.8852 17.9323 23.2452C17.9323 22.5452 17.4923 22.0652 16.6023 22.0652C16.3623 22.0652 16.1223 22.0752 15.8523 22.1152C15.1323 22.2452 14.4223 22.3352 13.4223 22.3352C7.0923 22.3352 3.0023 18.5752 3.0023 12.5852C3.0023 6.6652 6.9623 2.6552 12.7523 2.6552C18.1423 2.6552 21.9223 6.0552 21.9223 11.6352C21.9223 14.3252 21.0823 16.1152 19.7123 16.1152C18.8123 16.1152 18.3023 15.4552 18.3023 14.3352V8.1752C18.3023 7.0652 17.7023 6.4452 16.6123 6.4452C15.5523 6.4452 14.9423 7.0652 14.9423 8.1752V8.6052H14.6723C14.0823 7.2352 12.7823 6.4452 11.1223 6.4452C8.1823 6.4452 6.1923 8.8852 6.1923 12.5552C6.1923 16.3252 8.2623 18.8752 11.3623 18.8752C13.1023 18.8752 14.2723 18.0452 14.8923 16.5252H15.1523C15.5823 17.9852 16.9823 18.8452 18.9023 18.8452C22.6023 18.8452 24.8623 15.8552 24.8623 11.2352C24.8623 4.5152 19.9123 -0.0048 12.7623 -0.0048C5.2423 -0.0048 0.0023 5.0752 0.0023 12.5152ZM12.2923 15.9252C10.8523 15.9252 9.9723 14.6952 9.9723 12.6552C9.9723 10.6152 10.8623 9.3752 12.3023 9.3752C13.7423 9.3752 14.6523 10.6152 14.6523 12.6452C14.6523 14.6852 13.7423 15.9252 12.2923 15.9252Z" />
        </svg>
    