
        <svg xmlns="http://www.w3.org/2000/svg" viewBox="0 0 100 100">
            <path d="M11.7523 23.5048C18.2323 23.5048 23.5123 18.2348 23.5123 11.7548C23.5123 5.2748 18.2323 0.0048 11.7523 0.0048C5.2723 0.0048 0.0023 5.2748 0.0023 11.7548C0.0023 18.2348 5.2723 23.5048 11.7523 23.5048ZM11.8623 18.9348C7.6123 18.9348 4.7223 16.0148 4.7223 11.7348C4.7223 7.4848 7.6623 4.5248 11.8723 4.5248C15.9523 4.5248 18.7823 7.1948 18.7823 11.0748C18.7823 13.7948 17.6123 15.5748 15.7523 15.5748C14.7523 15.5748 14.0123 15.0748 13.7123 14.2748C13.2423 15.0948 12.4723 15.5648 11.4823 15.5648C9.6423 15.5648 8.3623 14.0148 8.3623 11.7848C8.3623 9.5848 9.6423 8.0248 11.4623 8.0248C12.3123 8.0248 13.0823 8.4348 13.5323 9.0548V8.5648C13.5323 8.3048 13.7823 8.0248 14.1323 8.0248C14.5123 8.0248 14.7623 8.2948 14.7623 8.6948V13.1748C14.7623 13.9548 15.1523 14.4048 15.8523 14.4048C16.8823 14.4048 17.5423 13.1448 17.5423 11.0948C17.5423 7.9148 15.2323 5.7448 11.8623 5.7448C8.4123 5.7448 6.0223 8.2148 6.0223 11.7548C6.0223 15.3648 8.3623 17.7048 12.0023 17.7048C12.9223 17.7048 13.6423 17.5748 14.3523 17.4348C14.4923 17.4048 14.6223 17.3648 14.7323 17.3648C15.0423 17.3648 15.2923 17.6048 15.2923 17.9248C15.2923 18.2448 15.0823 18.4848 14.6923 18.6048C14.0623 18.8248 13.0423 18.9348 11.8623 18.9348ZM11.6723 14.2948C12.8323 14.2948 13.5823 13.3048 13.5823 11.7048C13.5823 10.1748 12.8423 9.2248 11.6823 9.2248C10.5423 9.2248 9.7623 10.2448 9.7623 11.7648C9.7623 13.3048 10.5223 14.2948 11.6723 14.2948Z" />
        </svg>
    