
        <svg xmlns="http://www.w3.org/2000/svg" viewBox="0 0 100 100">
            <path d="M27.0823 13.4978C27.0823 6.4078 21.6123 0.5678 14.6723 0.0078C14.2923 -0.0422 14.0123 0.2378 14.0123 0.6178V4.0278C14.0123 4.3378 14.2423 4.5878 14.5623 4.6178C19.0123 5.1278 22.4623 8.9078 22.4623 13.4978C22.4623 15.5878 21.7523 17.5278 20.5123 19.0578C20.3123 19.3078 20.3123 19.6078 20.5423 19.8378L22.9823 22.2678C23.2523 22.5178 23.6323 22.5178 23.8823 22.2378C25.8723 19.8778 27.0823 16.8178 27.0823 13.4978ZM0.0023 13.4978C0.0023 16.8378 1.2223 19.9078 3.2223 22.2578C3.4523 22.5378 3.8323 22.5178 4.1023 22.2678L6.5423 19.8378C6.7723 19.6078 6.7723 19.3078 6.5723 19.0578C5.3323 17.5278 4.6123 15.5878 4.6123 13.4978C4.6123 8.9078 8.0723 5.1278 12.5123 4.6178C12.8423 4.5878 13.0623 4.3378 13.0623 4.0278V0.6178C13.0623 0.2378 12.7823 -0.0422 12.4123 0.0078C5.4723 0.5678 0.0023 6.4078 0.0023 13.4978ZM9.4323 15.7878C9.4323 15.9278 9.5523 16.0478 9.6923 16.0478H10.5323L9.8123 18.1678C9.7723 18.2478 9.7523 18.3378 9.7523 18.4178C9.7523 18.6278 9.9123 18.7678 10.1523 18.7678C10.3623 18.7678 10.4723 18.6578 10.5323 18.4578L11.3423 16.0478H15.7423L16.5623 18.4578C16.6023 18.6378 16.7223 18.7678 16.9323 18.7678C17.1223 18.7678 17.3423 18.6478 17.3423 18.4178C17.3423 18.3378 17.3223 18.2478 17.2923 18.1678L16.5423 16.0478H17.4023C17.5323 16.0478 17.6623 15.9278 17.6623 15.7878C17.6623 15.6478 17.5323 15.5278 17.4023 15.5278H16.3723L15.8623 14.0778H17.4023C17.5323 14.0778 17.6623 13.9578 17.6623 13.8178C17.6623 13.6778 17.5323 13.5678 17.4023 13.5678H15.6823L14.0623 8.9478C13.9723 8.6778 13.8123 8.5478 13.5323 8.5478C13.2623 8.5478 13.0923 8.7078 13.0123 8.9478L11.4023 13.5678H9.6923C9.5523 13.5678 9.4323 13.6778 9.4323 13.8178C9.4323 13.9578 9.5523 14.0778 9.6923 14.0778H11.2223L10.7223 15.5278H9.6923C9.5523 15.5278 9.4323 15.6478 9.4323 15.7878ZM13.5123 9.5978H13.5723L14.8923 13.5678H12.1723ZM11.5223 15.5278L12.0123 14.0778H15.0723L15.5623 15.5278Z" />
        </svg>
    