
        <svg xmlns="http://www.w3.org/2000/svg" viewBox="0 0 100 100">
            <path d="M0.8844 9.8536C-0.0156 9.8536 -0.2356 10.5736 0.2544 11.2236L3.0444 15.0536C3.4244 15.5736 4.0244 15.5636 4.3944 15.0536L7.1944 11.2236C7.6744 10.5736 7.4344 9.8536 6.5444 9.8536H5.0444C6.1044 5.7336 9.8444 2.6836 14.2944 2.6836C19.5644 2.6836 23.8344 6.9536 23.8344 12.2236C23.8344 17.4936 19.5644 21.7636 14.2944 21.7636C11.2944 21.7636 8.6544 20.3836 6.9244 18.2036C6.3744 17.6036 5.5844 17.4136 4.9544 17.9036C4.3644 18.3536 4.2844 19.1936 4.8744 19.9136C6.9544 22.6636 10.5944 24.4436 14.2944 24.4436C21.0444 24.4436 26.5144 18.9736 26.5144 12.2236C26.5144 5.4736 21.0444 0.0036 14.2944 0.0036C8.3544 0.0036 3.3944 4.2436 2.2944 9.8536ZM9.6344 14.6136C9.6344 14.8136 9.7944 14.9736 9.9944 14.9736H10.6644L10.2244 16.3436C10.1844 16.4836 10.1444 16.6136 10.1444 16.7536C10.1444 17.2636 10.5344 17.5436 11.0344 17.5436C11.4944 17.5436 11.7544 17.3236 11.8844 16.8636L12.4444 14.9736H16.1444L16.7044 16.8736C16.8244 17.2936 17.0844 17.5436 17.5644 17.5436C18.0544 17.5436 18.4344 17.2636 18.4344 16.7536C18.4344 16.6036 18.4044 16.4636 18.3644 16.3136L17.9244 14.9736H18.5944C18.7944 14.9736 18.9544 14.8136 18.9544 14.6136C18.9544 14.4136 18.7944 14.2536 18.5944 14.2536H17.6944L17.2844 12.9736H18.5944C18.7944 12.9736 18.9544 12.8036 18.9544 12.6136C18.9544 12.4236 18.7944 12.2536 18.5944 12.2536H17.0444L15.6444 7.8636C15.4344 7.1836 15.0244 6.8536 14.2944 6.8536C13.5844 6.8536 13.1444 7.2036 12.9344 7.8636L11.5444 12.2536H9.9944C9.7944 12.2536 9.6344 12.4236 9.6344 12.6136C9.6344 12.8036 9.7944 12.9736 9.9944 12.9736H11.3044L10.8944 14.2536H9.9944C9.7944 14.2536 9.6344 14.4136 9.6344 14.6136ZM14.2744 8.7736H14.3144L15.3544 12.2536H13.2444ZM12.6544 14.2536L13.0244 12.9736H15.5644L15.9344 14.2536Z" />
        </svg>
    