
        <svg xmlns="http://www.w3.org/2000/svg" viewBox="0 0 100 100">
            <path d="M2.5617 25.2211H27.8517V23.9111C27.8517 23.2011 27.4117 22.7811 26.7217 22.7811H26.3517V9.9111H27.2717C28.3217 9.9111 28.9617 9.1011 28.9617 8.3211C28.9617 7.7411 28.6317 7.2111 27.9617 6.8111L17.0617 0.5311C16.5017 0.2011 15.8317 0.0011 15.2117 0.0011C14.5917 0.0011 13.9217 0.2011 13.3617 0.5311L2.4617 6.8111C1.7917 7.2111 1.4617 7.7411 1.4617 8.3211C1.4617 9.1011 2.1017 9.9111 3.1617 9.9111H4.0617V22.7811H3.7017C3.0117 22.7811 2.5617 23.2011 2.5617 23.9111ZM6.8317 22.7811V8.0311L15.0217 3.4611C15.0917 3.4211 15.1617 3.4111 15.2117 3.4111C15.2817 3.4111 15.3317 3.4211 15.4017 3.4611L23.5917 8.0311V22.7811ZM10.2817 16.7811C10.2817 16.9411 10.4217 17.0811 10.5717 17.0811H11.1417L10.9817 17.6211C10.9217 17.8311 10.9017 17.9911 10.9017 18.2111C10.9017 18.9911 11.4117 19.3811 12.2117 19.3811C12.8817 19.3811 13.2817 19.0511 13.4517 18.4011L13.7917 17.0811H16.6517L17.0017 18.4011C17.1717 19.0511 17.5917 19.3811 18.2817 19.3811C19.0417 19.3811 19.5517 18.9711 19.5517 18.2111C19.5517 17.9911 19.5217 17.8211 19.4617 17.6211L19.3017 17.0811H19.8717C20.0417 17.0811 20.1717 16.9411 20.1717 16.7811C20.1717 16.6311 20.0417 16.4911 19.8717 16.4911H19.1217L18.7817 15.3311H19.8717C20.0417 15.3311 20.1717 15.1911 20.1717 15.0211C20.1717 14.8711 20.0417 14.7311 19.8717 14.7311H18.6017L17.4717 10.9211C17.1317 9.7611 16.4317 9.2411 15.2317 9.2411C14.0417 9.2411 13.3217 9.7711 12.9717 10.9211L11.8517 14.7311H10.5717C10.4217 14.7311 10.2817 14.8711 10.2817 15.0211C10.2817 15.1911 10.4217 15.3311 10.5717 15.3311H11.6717L11.3217 16.4911H10.5717C10.4217 16.4911 10.2817 16.6311 10.2817 16.7811ZM15.1917 11.7211H15.2617L16.0417 14.7311H14.4017ZM13.9417 16.4911L14.2517 15.3311H16.1917L16.5017 16.4911ZM1.6017 29.3211H28.4417C29.3017 29.3211 30.0617 28.6211 30.0617 27.7111C30.0617 26.8511 29.3017 26.1111 28.4417 26.1111H1.6017C0.7417 26.1111 0.0017 26.8511 0.0017 27.7111C0.0017 28.6011 0.7417 29.3211 1.6017 29.3211Z" />
        </svg>
    