
        <svg xmlns="http://www.w3.org/2000/svg" viewBox="0 0 100 100">
            <path d="M27.0823 13.4978C27.0823 6.4078 21.6123 0.5678 14.6723 0.0078C14.2923 -0.0422 14.0123 0.2378 14.0123 0.6178V4.0278C14.0123 4.3378 14.2423 4.5878 14.5623 4.6178C19.0123 5.1278 22.4623 8.9078 22.4623 13.4978C22.4623 15.5878 21.7523 17.5278 20.5123 19.0578C20.3123 19.3078 20.3123 19.6078 20.5423 19.8378L22.9823 22.2678C23.2523 22.5178 23.6323 22.5178 23.8823 22.2378C25.8723 19.8778 27.0823 16.8178 27.0823 13.4978ZM0.0023 13.4978C0.0023 16.8378 1.2223 19.9078 3.2223 22.2578C3.4523 22.5378 3.8323 22.5178 4.1023 22.2678L6.5423 19.8378C6.7723 19.6078 6.7723 19.3078 6.5723 19.0578C5.3323 17.5278 4.6123 15.5878 4.6123 13.4978C4.6123 8.9078 8.0723 5.1278 12.5123 4.6178C12.8423 4.5878 13.0623 4.3378 13.0623 4.0278V0.6178C13.0623 0.2378 12.7823 -0.0422 12.4123 0.0078C5.4723 0.5678 0.0023 6.4078 0.0023 13.4978ZM16.8723 19.4078C17.0023 19.4078 17.1123 19.3078 17.1123 19.1778V18.1478C18.4923 18.0678 19.3323 17.1578 19.3323 15.9178C19.3323 14.5678 18.4823 13.9778 17.4523 13.4678L17.1123 13.3078V9.7878C18.0223 9.8978 18.4323 10.5778 18.5123 11.5478C18.5523 11.7478 18.6823 11.8478 18.8523 11.8478C19.0623 11.8478 19.2023 11.7278 19.2023 11.4978C19.2023 11.4278 19.2023 11.3478 19.1823 11.2078C19.0223 9.9678 18.2023 9.2678 17.1123 9.1678V8.1978C17.1123 8.0778 17.0023 7.9578 16.8723 7.9578C16.7423 7.9578 16.6423 8.0778 16.6423 8.1978V9.1678C15.4523 9.2478 14.5123 9.9978 14.5123 11.2878C14.5123 12.4978 15.2323 13.1678 16.3823 13.7178L16.6423 13.8478V17.5278C15.6023 17.4178 15.1723 16.6578 15.0623 15.6578C15.0223 15.4278 14.8723 15.3478 14.7223 15.3478C14.5323 15.3478 14.3623 15.4578 14.3623 15.6878C14.3623 15.7578 14.3623 15.8378 14.3823 15.9678C14.5323 17.1478 15.3323 18.0378 16.6423 18.1478V19.1778C16.6423 19.3078 16.7423 19.4078 16.8723 19.4078ZM7.7423 18.4078C7.9423 18.4078 8.0523 18.3078 8.1123 18.1078L8.7623 15.5678H11.8523L12.5323 18.1078C12.5723 18.3078 12.6823 18.4078 12.8923 18.4078C13.0923 18.4078 13.2423 18.2878 13.2423 18.0678C13.2423 17.9778 13.2323 17.9078 13.2023 17.8278L10.8623 9.3878C10.7823 9.0978 10.6323 8.9078 10.3223 8.9078C9.9923 8.9078 9.8423 9.0978 9.7623 9.4078L7.4223 17.8278C7.4023 17.9078 7.3823 17.9778 7.3823 18.0678C7.3823 18.2878 7.5423 18.4078 7.7423 18.4078ZM15.2123 11.2578C15.2123 10.3378 15.8423 9.8578 16.6423 9.7878V13.0678C15.8223 12.6578 15.2123 12.1378 15.2123 11.2578ZM8.9323 14.9578L10.2623 9.8978H10.3323L11.6923 14.9578ZM18.6423 15.9778C18.6423 16.9278 18.0123 17.4578 17.1123 17.5278V14.0778C17.9723 14.4878 18.6423 14.9978 18.6423 15.9778Z" />
        </svg>
    