
        <svg xmlns="http://www.w3.org/2000/svg" viewBox="0 0 100 100">
            <path d="M0.7217 24.497H24.6217C25.0217 24.497 25.3517 24.167 25.3517 23.767C25.3517 23.367 25.0217 23.037 24.6217 23.037H24.0017V22.247C24.0017 21.887 23.7917 21.677 23.4217 21.677H22.6717V7.597H23.7517C24.2417 7.597 24.5317 7.247 24.5317 6.867C24.5317 6.607 24.3917 6.367 24.0617 6.177L14.0017 0.377C13.5717 0.127 13.1117 -0.003 12.6717 -0.003C12.2317 -0.003 11.7617 0.127 11.3417 0.377L1.2917 6.177C0.9617 6.367 0.8217 6.607 0.8217 6.867C0.8217 7.247 1.0917 7.597 1.5917 7.597H2.6717V21.677H1.9217C1.5717 21.677 1.3517 21.887 1.3517 22.247V23.037H0.7217C0.3317 23.037 0.0017 23.367 0.0017 23.767C0.0017 24.167 0.3317 24.497 0.7217 24.497ZM16.1017 18.947C15.9517 18.947 15.8217 18.817 15.8217 18.667V17.707C14.5517 17.597 13.6617 16.797 13.4917 15.687C13.4617 15.577 13.4517 15.457 13.4517 15.367C13.4517 15.047 13.6717 14.867 13.9617 14.867C14.1917 14.867 14.3817 14.997 14.4517 15.317C14.5517 16.117 14.9417 16.727 15.8217 16.837V13.597L15.4917 13.437C14.3017 12.877 13.5817 12.227 13.5817 10.997C13.5817 9.657 14.5517 8.887 15.8217 8.777V7.867C15.8217 7.707 15.9517 7.577 16.1017 7.577C16.2517 7.577 16.3917 7.707 16.3917 7.867V8.787C17.4917 8.867 18.3017 9.537 18.5317 10.677C18.5617 10.827 18.5717 10.957 18.5717 11.067C18.5717 11.357 18.3717 11.547 18.0817 11.547C17.8217 11.547 17.6717 11.387 17.6017 11.137C17.4717 10.317 17.1417 9.747 16.3917 9.657V12.777L16.7717 12.957C17.8917 13.497 18.7217 14.067 18.7217 15.407C18.7217 16.767 17.7817 17.627 16.3917 17.717V18.667C16.3917 18.817 16.2517 18.947 16.1017 18.947ZM6.8317 17.987C6.5517 17.987 6.3017 17.827 6.3017 17.497C6.3017 17.377 6.3417 17.277 6.3617 17.177L8.6117 9.177C8.7317 8.757 8.9717 8.507 9.4117 8.507C9.8517 8.507 10.0817 8.747 10.2117 9.167L12.4617 17.177C12.4917 17.287 12.5117 17.407 12.5117 17.497C12.5117 17.827 12.2717 17.987 12.0117 17.987C11.7117 17.987 11.5517 17.847 11.4617 17.547L10.8917 15.327H7.9217L7.3517 17.547C7.2817 17.847 7.1017 17.987 6.8317 17.987ZM14.5917 10.937C14.5917 11.687 15.1317 12.157 15.8217 12.497V9.647C15.1217 9.727 14.5917 10.157 14.5917 10.937ZM8.1417 14.477H10.6617L9.4317 9.827H9.3517ZM16.3917 16.847C17.1917 16.777 17.7217 16.327 17.7217 15.507C17.7217 14.667 17.1417 14.237 16.3917 13.877Z" />
        </svg>
    