
        <svg xmlns="http://www.w3.org/2000/svg" viewBox="0 0 100 100">
            <path d="M25.7717 26.3645C26.1517 26.3645 26.4717 26.0545 26.4717 25.6745V23.5945C30.0017 23.3545 32.7617 21.4145 32.7617 17.8345C32.7617 14.5045 30.4917 13.1945 27.6117 12.0945L26.4717 11.6645V5.4745C27.9217 5.7045 28.8617 6.6445 29.2217 8.1645C29.4817 8.8745 29.9517 9.3445 30.7717 9.3445C31.7217 9.3445 32.3517 8.7845 32.3417 7.8745C32.3417 7.6045 32.3117 7.3345 32.2217 7.0545C31.5217 4.3445 29.1917 2.9545 26.4717 2.7445V0.6945C26.4717 0.3145 26.1517 0.0045 25.7717 0.0045C25.3817 0.0045 25.0617 0.3145 25.0617 0.6945V2.7345C21.7117 2.9545 18.9617 4.9245 18.9617 8.3645C18.9617 11.4645 21.0817 12.9945 23.9717 14.0845L25.0617 14.4945V20.8845C23.3817 20.6945 22.3017 19.7645 21.9017 18.0445C21.6317 17.2845 21.1417 16.8545 20.3517 16.8545C19.4317 16.8545 18.7817 17.4245 18.7817 18.3045C18.7817 18.5945 18.8417 18.9045 18.9217 19.1945C19.6417 22.0245 22.1417 23.4145 25.0617 23.6045V25.6745C25.0617 26.0545 25.3817 26.3645 25.7717 26.3645ZM1.6917 24.2445C2.6917 24.2445 3.2017 23.7045 3.4317 22.7245L4.6917 18.4645H11.7417L13.0217 22.7545C13.2817 23.7445 13.7817 24.2445 14.8017 24.2445C15.7617 24.2445 16.4717 23.6045 16.4717 22.6145C16.4717 22.2845 16.3917 21.8745 16.2917 21.5345L10.8617 4.1445C10.4617 2.7845 9.6317 2.0745 8.2017 2.0745C6.8217 2.0745 6.0017 2.8145 5.6017 4.1645L0.2117 21.5345C0.1017 21.8545 0.0017 22.2845 0.0017 22.6245C0.0017 23.6345 0.6717 24.2445 1.6917 24.2445ZM22.2517 8.0545C22.2517 6.5145 23.5317 5.6345 25.0617 5.4445V11.1245C23.4217 10.4545 22.2517 9.6045 22.2517 8.0545ZM5.3817 15.7645L8.1117 6.0445H8.2617L11.0417 15.7645ZM29.4817 18.1745C29.4817 19.8545 28.1717 20.6945 26.4717 20.8845V15.0245C28.1617 15.6845 29.4817 16.4445 29.4817 18.1745Z" />
        </svg>
    