
        <svg xmlns="http://www.w3.org/2000/svg" viewBox="0 0 100 100">
            <path d="M24.2817 26.2125C24.6117 26.2125 24.8817 25.9325 24.8817 25.6025V23.3325C28.2217 23.1425 30.8417 21.2725 30.8417 17.9625C30.8417 14.7425 28.4217 13.4325 25.7617 12.4725L24.8817 12.1625V4.2625C26.9917 4.4625 28.4717 5.7425 28.8117 7.9525C28.9017 8.3825 29.1417 8.6925 29.6617 8.6925C30.1917 8.6925 30.5117 8.3425 30.5017 7.8525C30.5017 7.6825 30.4917 7.4925 30.4417 7.2725C29.8817 4.4025 27.6417 2.9025 24.8817 2.7325V0.6025C24.8817 0.2725 24.6117 0.0025 24.2817 0.0025C23.9517 0.0025 23.6817 0.2725 23.6817 0.6025V2.7325C20.6617 2.9525 18.1017 4.8125 18.1017 7.8725C18.1017 10.8325 20.3917 12.3025 23.0717 13.2625L23.6817 13.4925V21.7725C21.3117 21.5625 19.7217 20.2225 19.4017 17.8225C19.3117 17.3825 19.0217 17.0725 18.5517 17.0725C18.0517 17.0725 17.7317 17.4225 17.7317 17.9025C17.7317 18.1025 17.7517 18.3425 17.7917 18.5125C18.3417 21.5425 20.7417 23.1125 23.6817 23.3225V25.6025C23.6817 25.9325 23.9517 26.2125 24.2817 26.2125ZM0.8717 23.9325C1.3517 23.9325 1.6017 23.6925 1.7317 23.2425L3.6717 17.2025H11.7617L13.6917 23.2425C13.8317 23.6925 14.0817 23.9325 14.5617 23.9325C15.0517 23.9325 15.4317 23.6225 15.4317 23.1325C15.4317 22.9925 15.3717 22.7725 15.3317 22.6125L8.9317 3.1125C8.7417 2.5125 8.3817 2.1325 7.7317 2.1325C7.0817 2.1325 6.7017 2.5125 6.5017 3.1425L0.1217 22.6125C0.0617 22.7825 0.0017 22.9725 0.0017 23.1325C0.0017 23.6225 0.3917 23.9325 0.8717 23.9325ZM19.8317 7.7825C19.8317 5.6825 21.5817 4.4625 23.6817 4.2625V11.7325C21.7717 11.0625 19.8317 9.9325 19.8317 7.7825ZM4.1117 15.7025L7.6617 4.5225H7.7617L11.3117 15.7025ZM25.0517 13.9825C27.2617 14.7425 29.1417 15.7525 29.1417 18.0925C29.1417 20.4125 27.2817 21.6325 24.8817 21.7825V13.9225Z" />
        </svg>
    