
        <svg xmlns="http://www.w3.org/2000/svg" viewBox="0 0 100 100">
            <path d="M1.5617 22.2148H24.6117V21.4348C24.6117 20.9648 24.3417 20.6848 23.8617 20.6848H23.1117V8.0348H24.1417C24.7817 8.0348 25.1617 7.5748 25.1617 7.0848C25.1617 6.7348 24.9617 6.4348 24.5317 6.1848L14.5217 0.4148C14.0517 0.1448 13.5617 0.0048 13.0817 0.0048C12.6017 0.0048 12.0917 0.1448 11.6517 0.4148L1.6417 6.1848C1.1917 6.4348 1.0117 6.7348 1.0117 7.0848C1.0117 7.5748 1.3817 8.0348 2.0317 8.0348H3.0617V20.6848H2.3217C1.8417 20.6848 1.5617 20.9648 1.5617 21.4348ZM4.8317 20.6848V6.5348L12.6217 2.1648C12.7617 2.0848 12.9217 2.0348 13.0817 2.0348C13.2317 2.0348 13.3917 2.0848 13.5517 2.1648L21.3417 6.5348V20.6848ZM16.3517 17.5648C16.5117 17.5648 16.6417 17.4248 16.6417 17.2648V16.4248C17.9517 16.3348 18.9117 15.5748 18.9117 14.2148C18.9117 12.9348 18.1617 12.4448 17.0517 11.9048L16.6417 11.7148V9.0448C17.2217 9.1548 17.5117 9.5948 17.6617 10.2648C17.7417 10.5348 17.9217 10.6948 18.2017 10.6948C18.5417 10.6948 18.7617 10.5048 18.7617 10.1648C18.7617 10.0448 18.7517 9.8948 18.7017 9.7348C18.4417 8.7448 17.6917 8.1548 16.6417 8.0648V7.2348C16.6417 7.0648 16.5117 6.9248 16.3517 6.9248C16.1717 6.9248 16.0417 7.0648 16.0417 7.2348V8.0648C14.7917 8.1648 13.8617 8.9248 13.8617 10.2048C13.8617 11.3648 14.5317 11.9748 15.6817 12.5148L16.0417 12.6748V15.4348C15.3317 15.3148 15.0217 14.8248 14.8917 14.2248C14.8017 13.8748 14.6017 13.7348 14.3317 13.7348C14.0117 13.7348 13.7717 13.9348 13.7717 14.2848C13.7717 14.4048 13.7817 14.5148 13.8017 14.6348C14.0017 15.6048 14.8817 16.3148 16.0417 16.4148V17.2648C16.0417 17.4248 16.1717 17.5648 16.3517 17.5648ZM7.5317 16.6948C7.8417 16.6948 8.0517 16.5248 8.1317 16.1848L8.6017 14.3248H11.3117L11.8017 16.1848C11.8917 16.5248 12.0717 16.6948 12.4217 16.6948C12.7217 16.6948 12.9917 16.5148 12.9917 16.1248C12.9917 16.0148 12.9817 15.9048 12.9417 15.7548L10.8717 8.5348C10.7317 8.0348 10.4717 7.7948 9.9617 7.7948C9.4717 7.7948 9.1917 8.0648 9.0517 8.5448L6.9917 15.7548C6.9617 15.8748 6.9417 16.0048 6.9417 16.1248C6.9417 16.5148 7.2217 16.6948 7.5317 16.6948ZM15.0217 10.1348C15.0217 9.5048 15.4417 9.1248 16.0417 9.0448V11.4248C15.4917 11.1348 15.0217 10.7548 15.0217 10.1348ZM8.8617 13.3448L9.9017 9.2648H9.9817L11.0517 13.3448ZM17.7517 14.3248C17.7517 15.0048 17.3317 15.3648 16.6417 15.4448V12.9748C17.2617 13.2748 17.7517 13.6248 17.7517 14.3248ZM0.9417 25.0048H25.2217C25.7317 25.0048 26.1717 24.5748 26.1717 24.0548C26.1717 23.5448 25.7317 23.1248 25.2217 23.1248H0.9417C0.4217 23.1248 0.0017 23.5448 0.0017 24.0548C0.0017 24.5748 0.4217 25.0048 0.9417 25.0048Z" />
        </svg>
    