
        <svg xmlns="http://www.w3.org/2000/svg" viewBox="0 0 100 100">
            <path d="M11.9523 23.9041C18.5523 23.9041 23.9023 18.5341 23.9023 11.9541C23.9023 5.3541 18.5523 0.0041 11.9523 0.0041C5.3623 0.0041 0.0023 5.3541 0.0023 11.9541C0.0023 18.5341 5.3623 23.9041 11.9523 23.9041ZM8.4723 17.5741C8.0823 17.5741 7.7723 17.3341 7.7723 16.9441C7.7723 16.8541 7.7923 16.7441 7.8323 16.6041L8.4223 14.8041H7.6723C7.4523 14.8041 7.2823 14.6141 7.2823 14.4041C7.2823 14.1841 7.4523 13.9941 7.6723 13.9941H8.6923L9.1423 12.6241H7.6723C7.4523 12.6241 7.2823 12.4341 7.2823 12.2241C7.2823 11.9841 7.4523 11.8141 7.6723 11.8141H9.4123L10.9723 7.0041C11.1223 6.5641 11.4523 6.2941 11.9523 6.2941C12.4723 6.2941 12.7523 6.5541 12.9123 7.0041L14.4923 11.8141H16.2223C16.4423 11.8141 16.6323 11.9841 16.6323 12.2241C16.6323 12.4341 16.4423 12.6241 16.2223 12.6241H14.7523L15.2123 13.9941H16.2223C16.4423 13.9941 16.6323 14.1841 16.6323 14.4041C16.6323 14.6141 16.4423 14.8041 16.2223 14.8041H15.4823L16.0523 16.5741C16.1023 16.6841 16.1223 16.8241 16.1223 16.9441C16.1223 17.3541 15.8123 17.5741 15.4323 17.5741C15.0323 17.5741 14.8323 17.3641 14.7423 17.0341L14.0623 14.8041H9.8423L9.1523 17.0241C9.0423 17.3941 8.8523 17.5741 8.4723 17.5741ZM10.7623 11.8141H13.1323L11.9723 8.0041H11.9323ZM10.0923 13.9941H13.8123L13.3823 12.6241H10.5123Z" />
        </svg>
    