
        <svg xmlns="http://www.w3.org/2000/svg" viewBox="0 0 100 100">
            <path d="M1.1517 26.3763H26.2517C26.8717 26.3763 27.4017 25.8663 27.4017 25.2263C27.4017 24.5963 26.8717 24.0863 26.2517 24.0863H25.6417V23.1163C25.6417 22.5863 25.3117 22.2563 24.7717 22.2563H24.1517V8.6363H25.1417C25.9117 8.6363 26.3717 8.0663 26.3717 7.4863C26.3717 7.0663 26.1217 6.6763 25.6217 6.3863L15.3317 0.4563C14.8317 0.1663 14.2817 -0.0038 13.7617 -0.0038C13.2317 -0.0038 12.6817 0.1663 12.1917 0.4563L1.9017 6.3863C1.3817 6.6763 1.1617 7.0663 1.1617 7.4863C1.1617 8.0663 1.6017 8.6363 2.3917 8.6363H3.3917V22.2563H2.7517C2.2117 22.2563 1.8917 22.5863 1.8917 23.1163V24.0863H1.1517C0.5317 24.0863 0.0017 24.5963 0.0017 25.2263C0.0017 25.8663 0.5317 26.3763 1.1517 26.3763ZM10.3717 19.8563C9.8217 19.8563 9.4217 19.5563 9.4217 19.0163C9.4217 18.8763 9.4617 18.7463 9.5017 18.5863L9.9617 17.1662H9.2617C9.0617 17.1662 8.8817 16.9963 8.8817 16.7963C8.8817 16.5963 9.0617 16.4162 9.2617 16.4162H10.2117L10.6417 15.0863H9.2617C9.0617 15.0863 8.8817 14.9063 8.8817 14.7063C8.8817 14.4963 9.0617 14.3363 9.2617 14.3363H10.8717L12.3317 9.7463C12.5517 9.0463 13.0217 8.6763 13.7717 8.6763C14.5317 8.6763 14.9617 9.0363 15.2017 9.7463L16.6617 14.3363H18.2717C18.4817 14.3363 18.6517 14.4963 18.6517 14.7063C18.6517 14.9063 18.4817 15.0863 18.2717 15.0863H16.9017L17.3317 16.4162H18.2717C18.4817 16.4162 18.6517 16.5963 18.6517 16.7963C18.6517 16.9963 18.4817 17.1662 18.2717 17.1662H17.5617L18.0217 18.5463C18.0717 18.7163 18.1017 18.8663 18.1017 19.0163C18.1017 19.5563 17.7117 19.8563 17.1917 19.8563C16.6717 19.8563 16.4017 19.5963 16.2817 19.1463L15.6917 17.1662H11.8317L11.2517 19.1363C11.1217 19.6163 10.8417 19.8563 10.3717 19.8563ZM12.6717 14.3363H14.8617L13.7917 10.6863H13.7317ZM12.0617 16.4162H15.4717L15.0817 15.0863H12.4617Z" />
        </svg>
    