
        <svg xmlns="http://www.w3.org/2000/svg" viewBox="0 0 100 100">
            <path d="M0.4317 23.8172H23.8217C24.0717 23.8172 24.2617 23.6172 24.2617 23.3672C24.2617 23.1372 24.0717 22.9372 23.8217 22.9372H23.1917V22.2172C23.1917 22.0172 23.0617 21.8872 22.8517 21.8872H22.1117V7.0172H23.2417C23.5417 7.0172 23.6917 6.8172 23.6917 6.5872C23.6917 6.4472 23.6117 6.2772 23.4217 6.1672L13.3217 0.3372C12.9417 0.1172 12.5317 -0.0028 12.1317 -0.0028C11.7317 -0.0028 11.3217 0.1172 10.9417 0.3372L0.8417 6.1672C0.6417 6.2772 0.5617 6.4472 0.5617 6.5872C0.5617 6.8172 0.7117 7.0172 1.0317 7.0172H2.1517V21.8872H1.4017C1.2117 21.8872 1.0817 22.0172 1.0817 22.2172V22.9372H0.4317C0.2017 22.9372 0.0017 23.1372 0.0017 23.3672C0.0017 23.6172 0.2017 23.8172 0.4317 23.8172ZM15.6217 19.1972C15.4817 19.1972 15.3717 19.0772 15.3717 18.9472V17.8572C14.0017 17.7572 13.1717 16.8372 13.0217 15.6072C13.0117 15.4672 12.9917 15.3872 12.9917 15.3172C12.9917 15.0772 13.1717 14.9572 13.3717 14.9572C13.5317 14.9572 13.7017 15.0472 13.7217 15.2972C13.8417 16.3372 14.3017 17.1072 15.3717 17.2172V13.3972L15.1017 13.2672C13.9117 12.6872 13.1517 11.9872 13.1517 10.7372C13.1517 9.3772 14.1317 8.6172 15.3717 8.5172V7.5072C15.3717 7.3872 15.4817 7.2672 15.6217 7.2672C15.7517 7.2672 15.8717 7.3872 15.8717 7.5072V8.5272C17.0017 8.6272 17.8617 9.3472 18.0217 10.6572C18.0517 10.7972 18.0517 10.8772 18.0517 10.9572C18.0517 11.1772 17.9017 11.3172 17.6817 11.3172C17.4917 11.3172 17.3517 11.2072 17.3317 11.0072C17.2417 9.9772 16.8317 9.2672 15.8717 9.1772V12.8172L16.2117 12.9972C17.3017 13.5272 18.1917 14.1572 18.1917 15.5472C18.1917 16.8372 17.3117 17.7872 15.8717 17.8672V18.9472C15.8717 19.0772 15.7517 19.1972 15.6217 19.1972ZM6.0917 18.1572C5.8917 18.1572 5.7317 18.0272 5.7317 17.7772C5.7317 17.6972 5.7417 17.6172 5.7617 17.5472L8.2017 8.7672C8.3017 8.4472 8.4517 8.2572 8.7917 8.2572C9.1217 8.2572 9.2717 8.4372 9.3617 8.7572L11.8017 17.5472C11.8217 17.6272 11.8317 17.6972 11.8317 17.7772C11.8317 18.0272 11.6717 18.1572 11.4717 18.1572C11.2517 18.1572 11.1317 18.0372 11.0717 17.8272L10.3717 15.1872H7.1717L6.4817 17.8272C6.4217 18.0372 6.3017 18.1572 6.0917 18.1572ZM13.8917 10.6872C13.8917 11.5972 14.5217 12.1572 15.3717 12.5972V9.1772C14.5417 9.2472 13.8917 9.7372 13.8917 10.6872ZM7.3317 14.5472H10.2117L8.8017 9.2772H8.7317ZM15.8717 17.2272C16.7917 17.1572 17.4617 16.5972 17.4617 15.6072C17.4617 14.5972 16.7817 14.0772 15.8717 13.6372Z" />
        </svg>
    