
        <svg xmlns="http://www.w3.org/2000/svg" viewBox="0 0 100 100">
            <path d="M11.9523 23.9041C18.5523 23.9041 23.9023 18.5541 23.9023 11.9541C23.9023 5.3541 18.5523 0.0041 11.9523 0.0041C5.3523 0.0041 0.0023 5.3541 0.0023 11.9541C0.0023 18.5541 5.3523 23.9041 11.9523 23.9041ZM11.9523 21.9141C6.4423 21.9141 1.9923 17.4641 1.9923 11.9541C1.9923 6.4441 6.4423 1.9941 11.9523 1.9941C17.4623 1.9941 21.9123 6.4441 21.9123 11.9541C21.9123 17.4641 17.4623 21.9141 11.9523 21.9141ZM8.5423 8.5441C6.7523 10.3341 5.7223 13.0041 5.9323 15.3441C6.0423 16.8241 7.0523 17.8241 8.5423 17.9541C10.8723 18.1741 13.5623 17.1441 15.3523 15.3541C17.1423 13.5541 18.1723 10.8741 17.9523 8.5441C17.8223 7.0541 16.8323 6.0441 15.3423 5.9341C13.0123 5.7141 10.3323 6.7541 8.5423 8.5441ZM13.1923 9.4441L14.4423 10.6741C14.5423 10.7941 14.5323 10.9841 14.4423 11.0941C14.3223 11.2041 14.1423 11.2041 14.0323 11.0841L13.6123 10.6741L13.1823 11.0941L13.6023 11.5341C13.7023 11.6241 13.7123 11.8041 13.6023 11.9141C13.4923 12.0341 13.3123 12.0241 13.2023 11.9041L12.7823 11.4941L12.3623 11.9141L12.7723 12.3541C12.8823 12.4441 12.8923 12.6441 12.7723 12.7341C12.6723 12.8641 12.4923 12.8341 12.3823 12.7341L11.9623 12.3441L11.5223 12.7541L11.9523 13.1741C12.0723 13.2741 12.0723 13.4641 11.9523 13.5741C11.8323 13.6841 11.6623 13.6841 11.5423 13.5541L11.1423 13.1641L10.7123 13.5841L11.1223 14.0041C11.2423 14.1141 11.2223 14.2841 11.1223 14.4141C11.0023 14.5041 10.8423 14.5041 10.7223 14.4041L9.4823 13.1741C9.3723 13.0641 9.3723 12.8941 9.4823 12.7641C9.6123 12.6541 9.7823 12.6541 9.8923 12.7641L10.3023 13.1841L10.7323 12.7541L10.3123 12.3541C10.1923 12.2241 10.1923 12.0441 10.3123 11.9441C10.4323 11.8141 10.6023 11.8141 10.7223 11.9341L11.1323 12.3541L11.5523 11.9141L11.1423 11.5041C11.0423 11.3741 11.0123 11.2141 11.1423 11.1241C11.2523 10.9941 11.4223 10.9941 11.5323 11.1141L11.9523 11.5341L12.4023 11.0941L11.9623 10.6841C11.8623 10.5741 11.8523 10.3941 11.9623 10.2841C12.0923 10.1741 12.2423 10.1741 12.3623 10.2841L12.7823 10.6841L13.2223 10.2741L12.7823 9.8641C12.6923 9.7541 12.6923 9.5641 12.7823 9.4441C12.9123 9.3541 13.1023 9.3441 13.1923 9.4441Z" />
        </svg>
    