
        <svg xmlns="http://www.w3.org/2000/svg" viewBox="0 0 100 100">
            <path d="M3.9717 22.1117H18.1317C20.7317 22.1117 22.1017 20.7417 22.1017 18.1717V3.9417C22.1017 1.3717 20.7317 0.0017 18.1317 0.0017H3.9717C1.3817 0.0017 0.0017 1.3717 0.0017 3.9417V18.1717C0.0017 20.7417 1.3817 22.1117 3.9717 22.1117ZM4.1917 19.5017C3.1617 19.5017 2.6117 18.9817 2.6117 17.9017V4.2217C2.6117 3.1417 3.1617 2.6117 4.1917 2.6117H17.9217C18.9217 2.6117 19.5017 3.1417 19.5017 4.2217V17.9017C19.5017 18.9817 18.9217 19.5017 17.9217 19.5017ZM14.5317 16.4317C14.6917 16.4317 14.8217 16.3017 14.8217 16.1517V15.2817C16.2317 15.1917 17.3317 14.4017 17.3317 12.9217C17.3317 11.6117 16.5617 11.0717 15.3517 10.5317L14.8217 10.3017V7.9217C15.3417 8.0117 15.6017 8.4017 15.7617 8.9717C15.8817 9.3017 16.1017 9.4817 16.4417 9.4817C16.8617 9.4817 17.1417 9.2317 17.1417 8.8317C17.1417 8.6717 17.1217 8.5317 17.0717 8.3717C16.7717 7.3517 15.9417 6.7817 14.8217 6.7017V5.8517C14.8217 5.6917 14.6917 5.5617 14.5317 5.5617C14.3817 5.5617 14.2517 5.6917 14.2517 5.8517V6.7017C12.8817 6.8117 11.8217 7.6217 11.8217 9.0117C11.8217 10.2317 12.5317 10.8717 13.7417 11.4017L14.2517 11.6217V14.0617C13.6017 13.9717 13.3117 13.5617 13.1717 13.0117C13.0517 12.6217 12.8117 12.4617 12.4617 12.4617C12.0717 12.4617 11.7617 12.7017 11.7617 13.1117C11.7617 13.2617 11.7917 13.4017 11.8217 13.5317C12.0717 14.5317 13.0517 15.1917 14.2517 15.2817V16.1517C14.2517 16.3017 14.3817 16.4317 14.5317 16.4317ZM5.3117 15.5617C5.7517 15.5617 5.9917 15.3117 6.0917 14.8517L6.4817 13.3217H9.0717L9.4717 14.8617C9.5817 15.3117 9.8217 15.5617 10.3017 15.5617C10.7117 15.5617 11.0417 15.2917 11.0417 14.8117C11.0417 14.6217 11.0317 14.4817 10.9717 14.3017L9.0117 7.3917C8.8217 6.7517 8.4517 6.4317 7.7717 6.4317C7.1217 6.4317 6.7417 6.7617 6.5617 7.3917L4.6217 14.3017C4.5717 14.4617 4.5317 14.6317 4.5317 14.8117C4.5317 15.2917 4.8617 15.5617 5.3117 15.5617ZM13.3017 8.8917C13.3017 8.3317 13.7117 7.9917 14.2517 7.9117V10.0417C13.7217 9.7717 13.3017 9.4417 13.3017 8.8917ZM6.7617 12.1017L7.7017 8.2217H7.8017L8.7917 12.1017ZM15.8417 13.0817C15.8417 13.7017 15.4317 14.0017 14.8217 14.0717V11.8717C15.4017 12.1417 15.8417 12.4617 15.8417 13.0817Z" />
        </svg>
    