
        <svg xmlns="http://www.w3.org/2000/svg" viewBox="0 0 100 100">
            <path d="M1.3517 22.137H24.0017V21.497C24.0017 21.137 23.7917 20.927 23.4217 20.927H22.6717V7.597H23.7517C24.2417 7.597 24.5317 7.247 24.5317 6.867C24.5317 6.607 24.3917 6.367 24.0617 6.177L14.0017 0.377C13.5717 0.127 13.1117 -0.003 12.6717 -0.003C12.2317 -0.003 11.7617 0.127 11.3417 0.377L1.2917 6.177C0.9617 6.367 0.8217 6.607 0.8217 6.867C0.8217 7.247 1.0917 7.597 1.5917 7.597H2.6717V20.927H1.9217C1.5717 20.927 1.3517 21.137 1.3517 21.497ZM4.0417 20.927V6.277L12.1217 1.727C12.2817 1.627 12.4817 1.567 12.6717 1.567C12.8717 1.567 13.0517 1.627 13.2317 1.727L21.3017 6.277V20.927ZM9.3017 17.557C9.6017 17.557 9.7517 17.417 9.8417 17.137L10.5717 14.847H14.7917L15.5317 17.137C15.6017 17.387 15.7517 17.557 16.0617 17.557C16.3517 17.557 16.6217 17.387 16.6217 17.067C16.6217 16.957 16.5917 16.847 16.5617 16.747L15.9217 14.847H16.7017C16.8717 14.847 17.0317 14.707 17.0317 14.517C17.0317 14.347 16.8717 14.187 16.7017 14.187H15.6917L15.2217 12.797H16.7017C16.8717 12.797 17.0317 12.647 17.0317 12.467C17.0317 12.277 16.8717 12.127 16.7017 12.127H15.0017L13.4317 7.497C13.3117 7.127 13.0817 6.927 12.6817 6.927C12.2817 6.927 12.0217 7.147 11.9217 7.497L10.3617 12.127H8.6617C8.4817 12.127 8.3317 12.277 8.3317 12.467C8.3317 12.647 8.4817 12.797 8.6617 12.797H10.1417L9.6717 14.187H8.6617C8.4817 14.187 8.3317 14.347 8.3317 14.517C8.3317 14.707 8.4817 14.847 8.6617 14.847H9.4417L8.8017 16.767C8.7617 16.877 8.7417 16.967 8.7417 17.067C8.7417 17.367 8.9917 17.557 9.3017 17.557ZM12.6517 8.327H12.7017L13.9217 12.127H11.4417ZM10.7817 14.187L11.2217 12.797H14.1317L14.5817 14.187ZM0.7217 24.497H24.6217C25.0217 24.497 25.3517 24.167 25.3517 23.767C25.3517 23.367 25.0217 23.037 24.6217 23.037H0.7217C0.3317 23.037 0.0017 23.367 0.0017 23.767C0.0017 24.167 0.3317 24.497 0.7217 24.497Z" />
        </svg>
    