
        <svg xmlns="http://www.w3.org/2000/svg" viewBox="0 0 100 100">
            <path d="M23.9917 25.9319C24.2017 25.9319 24.3717 25.7619 24.3717 25.5519V22.9719C27.7117 22.8519 30.5317 21.0019 30.5317 17.7619C30.5317 14.5819 27.8817 13.2419 25.3017 12.4719L24.3717 12.1919V3.6019C26.8917 3.7219 28.9017 5.1219 29.1717 7.7219C29.2017 8.0119 29.3517 8.1919 29.6717 8.1919C29.9617 8.1919 30.1617 7.9919 30.1617 7.7119C30.1617 7.5819 30.1617 7.4319 30.1217 7.2119C29.5917 4.2619 27.2417 2.8119 24.3717 2.6819V0.3819C24.3717 0.1719 24.2017 0.0019 23.9917 0.0019C23.7917 0.0019 23.6117 0.1719 23.6117 0.3819V2.6819C20.6017 2.8219 17.8617 4.6519 17.8617 7.6219C17.8617 10.4919 20.2817 11.9419 22.9917 12.7719L23.6117 12.9619V22.0419C20.7917 21.9019 18.6317 20.3219 18.4117 17.4819C18.3617 17.2219 18.2017 17.0319 17.9017 17.0319C17.5917 17.0319 17.4117 17.2519 17.4117 17.5319C17.4117 17.6919 17.4517 17.9019 17.4717 18.0619C17.9917 21.2119 20.5417 22.8319 23.6117 22.9719V25.5519C23.6117 25.7619 23.7917 25.9319 23.9917 25.9319ZM0.5317 23.5219C0.8117 23.5219 0.9517 23.3719 1.0317 23.1019L3.3017 16.4219H11.9617L14.2117 23.1019C14.3017 23.3719 14.4517 23.5219 14.7317 23.5219C15.0117 23.5219 15.2617 23.3319 15.2617 23.0519C15.2617 22.9619 15.2117 22.8319 15.1717 22.7219L8.3017 2.6719C8.2017 2.3419 7.9817 2.1519 7.6417 2.1519C7.3017 2.1519 7.0817 2.3419 6.9617 2.6919L0.0817 22.7219C0.0317 22.8319 0.0017 22.9419 0.0017 23.0519C0.0017 23.3319 0.2317 23.5219 0.5317 23.5219ZM23.3417 11.8819C21.2217 11.2619 18.8717 10.0119 18.8717 7.5819C18.8717 5.1319 21.0917 3.7119 23.6117 3.6019V11.9619ZM3.5817 15.5319L7.5817 3.6919H7.6717L11.6717 15.5319ZM24.9517 13.3619C27.4117 14.1019 29.5317 15.2319 29.5317 17.8219C29.5317 20.5319 27.1517 21.9519 24.3717 22.0519V13.1919Z" />
        </svg>
    