
        <svg xmlns="http://www.w3.org/2000/svg" viewBox="0 0 100 100">
            <path d="M28.9023 14.3955C28.9023 6.8555 23.1423 0.6755 15.7823 0.0055C15.3523 -0.0445 15.0223 0.2755 15.0223 0.7055V4.6555C15.0223 5.0155 15.2823 5.2855 15.6423 5.3355C20.1223 5.9255 23.5823 9.7455 23.5823 14.3955C23.5823 16.5155 22.8623 18.4755 21.5823 20.0755C21.3823 20.3355 21.3823 20.6655 21.6223 20.8855L24.4723 23.7355C24.7723 24.0555 25.2223 24.0355 25.5023 23.7255C27.6223 21.1955 28.9023 17.9455 28.9023 14.3955ZM0.0023 14.3955C0.0023 17.9455 1.2823 21.1955 3.4123 23.7255C3.6823 24.0355 4.1223 24.0355 4.4323 23.7355L7.2823 20.8855C7.5123 20.6555 7.5123 20.3355 7.3123 20.0755C6.0423 18.4755 5.3223 16.5155 5.3223 14.3955C5.3223 9.7455 8.7923 5.9255 13.2623 5.3355C13.6123 5.2855 13.8723 5.0155 13.8723 4.6555V0.7055C13.8723 0.2755 13.5423 -0.0445 13.1123 0.0055C5.7623 0.6755 0.0023 6.8555 0.0023 14.3955ZM17.8023 19.6455C17.9523 19.6455 18.0823 19.5155 18.0823 19.3655V18.5355C19.4423 18.4355 20.5123 17.6855 20.5123 16.2555C20.5123 14.9955 19.7623 14.4755 18.5823 13.9655L18.0823 13.7355V11.4255C18.5723 11.5355 18.8323 11.8955 18.9823 12.4455C19.1023 12.7655 19.3123 12.9455 19.6423 12.9455C20.0523 12.9455 20.3323 12.7055 20.3323 12.3055C20.3323 12.1555 20.2923 12.0255 20.2523 11.8655C19.9723 10.8755 19.1623 10.3355 18.0823 10.2655V9.4355C18.0823 9.2855 17.9523 9.1555 17.8023 9.1555C17.6523 9.1555 17.5323 9.2855 17.5323 9.4355V10.2555C16.2023 10.3555 15.1923 11.1355 15.1923 12.4855C15.1923 13.6655 15.8823 14.2855 17.0423 14.7955L17.5323 15.0055V17.3555C16.9123 17.2655 16.6123 16.8655 16.4923 16.3355C16.3823 15.9655 16.1323 15.8055 15.7923 15.8055C15.4223 15.8055 15.1423 16.0455 15.1423 16.4355C15.1423 16.5855 15.1623 16.7155 15.2023 16.8555C15.4323 17.8155 16.3823 18.4455 17.5323 18.5355V19.3655C17.5323 19.5155 17.6523 19.6455 17.8023 19.6455ZM8.9023 18.8055C9.3323 18.8055 9.5623 18.5655 9.6723 18.1255L10.0323 16.6455H12.5423L12.9223 18.1355C13.0323 18.5755 13.2523 18.8055 13.7223 18.8055C14.1223 18.8055 14.4423 18.5555 14.4423 18.0755C14.4423 17.8955 14.4223 17.7655 14.3623 17.5955L12.4723 10.9255C12.2923 10.3055 11.9323 10.0055 11.2823 10.0055C10.6523 10.0055 10.2823 10.3155 10.1123 10.9255L8.2423 17.5955C8.1923 17.7355 8.1523 17.9155 8.1523 18.0755C8.1523 18.5555 8.4823 18.8055 8.9023 18.8055ZM16.6123 12.3755C16.6123 11.8255 17.0023 11.5055 17.5323 11.4255V13.4855C17.0123 13.2255 16.6123 12.9055 16.6123 12.3755ZM10.3123 15.4755L11.2123 11.7255H11.3223L12.2623 15.4755ZM19.0823 16.4155C19.0823 17.0055 18.6723 17.3055 18.0823 17.3755V15.2555C18.6423 15.5055 19.0823 15.8155 19.0823 16.4155Z" />
        </svg>
    