
        <svg xmlns="http://www.w3.org/2000/svg" viewBox="0 0 100 100">
            <path d="M8.6017 8.333C8.6017 10.613 8.7917 12.423 9.2817 14.133C9.7817 15.923 11.1317 16.663 13.1417 16.663H13.5317C19.1717 16.663 25.0217 12.813 25.0217 8.333C25.0217 3.853 19.1717 0.003 13.5317 0.003H13.1417C11.1317 0.003 9.7817 0.743 9.2817 2.523C8.7917 4.243 8.6017 6.033 8.6017 8.333ZM9.1017 8.333C9.1017 6.043 9.3017 4.363 9.7717 2.653C10.2217 1.123 11.3817 0.503 13.1417 0.503H13.5317C18.8517 0.503 24.5017 4.133 24.5017 8.333C24.5017 12.513 18.8517 16.153 13.5317 16.153H13.1417C11.2517 16.153 10.1817 15.453 9.7717 14.003C9.3017 12.303 9.1017 10.613 9.1017 8.333ZM0.0017 2.563C0.0017 2.733 0.1317 2.823 0.2617 2.823H7.6217C7.6717 2.663 7.7117 2.483 7.7717 2.313H0.2617C0.1317 2.313 0.0017 2.433 0.0017 2.563ZM12.5817 12.553C12.7517 12.553 12.8217 12.473 12.8917 12.303L13.9717 9.443H18.0917L19.1717 12.303C19.2417 12.473 19.3117 12.553 19.5017 12.553C19.6617 12.553 19.7917 12.433 19.7917 12.283C19.7917 12.203 19.7817 12.183 19.7417 12.093L16.4217 3.353C16.3517 3.163 16.2217 3.073 16.0317 3.073C15.8417 3.073 15.7117 3.163 15.6417 3.353L12.3117 12.093C12.2817 12.183 12.2717 12.203 12.2717 12.273C12.2717 12.443 12.3917 12.553 12.5817 12.553ZM14.1817 8.863L16.0317 3.993L17.8817 8.863ZM0.0017 6.413C0.0017 6.563 0.1317 6.663 0.2617 6.663H7.0817C7.1017 6.503 7.1117 6.313 7.1217 6.153H0.2617C0.1317 6.153 0.0017 6.283 0.0017 6.413ZM0.0017 10.253C0.0017 10.383 0.1317 10.513 0.2617 10.513H7.1217C7.1117 10.333 7.1017 10.163 7.0817 9.993H0.2617C0.1317 9.993 0.0017 10.103 0.0017 10.253ZM0.0017 14.083C0.0017 14.213 0.1317 14.343 0.2617 14.343H7.7717C7.7117 14.163 7.6717 14.003 7.6217 13.833H0.2617C0.1317 13.833 0.0017 13.933 0.0017 14.083Z" />
        </svg>
    