
        <svg xmlns="http://www.w3.org/2000/svg" viewBox="0 0 100 100">
            <path d="M3.7117 29.8723H13.0517C15.4617 29.8723 16.7717 28.6023 16.7717 26.3323V3.5523C16.7717 1.2623 15.4617 0.0023 13.0517 0.0023H3.7117C1.3117 0.0023 0.0017 1.2623 0.0017 3.5523V26.3323C0.0017 28.6023 1.3117 29.8723 3.7117 29.8723ZM4.4017 26.4623C3.8317 26.4623 3.4717 26.1223 3.4717 25.6023V4.2623C3.4717 3.7523 3.8317 3.4123 4.4017 3.4123H12.3617C12.9417 3.4123 13.3017 3.7523 13.3017 4.2623V25.6023C13.3017 26.1223 12.9417 26.4623 12.3617 26.4623ZM9.1217 6.4823H11.6017C12.0617 6.4823 12.4417 6.1023 12.4417 5.6323C12.4417 5.1723 12.0617 4.7923 11.6017 4.7923H9.1217C8.6617 4.7923 8.2717 5.1723 8.2717 5.6323C8.2717 6.1023 8.6617 6.4823 9.1217 6.4823ZM5.5817 11.0523C6.2717 11.0523 6.8217 10.4923 6.8217 9.8123C6.8217 9.1423 6.2717 8.5623 5.5817 8.5623C4.8917 8.5623 4.3317 9.1423 4.3317 9.8123C4.3317 10.4923 4.8917 11.0523 5.5817 11.0523ZM8.3917 11.0523C9.0817 11.0523 9.6317 10.4923 9.6317 9.8123C9.6317 9.1423 9.0917 8.5623 8.3917 8.5623C7.6917 8.5623 7.1517 9.1423 7.1517 9.8123C7.1517 10.4923 7.6917 11.0523 8.3917 11.0523ZM11.2117 11.0523C11.8917 11.0523 12.4617 10.4923 12.4617 9.8123C12.4617 9.1423 11.8917 8.5623 11.2117 8.5623C10.5117 8.5623 9.9717 9.1423 9.9717 9.8123C9.9717 10.4923 10.5217 11.0523 11.2117 11.0523ZM5.5817 14.2923C6.2717 14.2923 6.8217 13.7423 6.8217 13.0523C6.8217 12.3823 6.2717 11.8123 5.5817 11.8123C4.8917 11.8123 4.3317 12.3823 4.3317 13.0523C4.3317 13.7423 4.8917 14.2923 5.5817 14.2923ZM8.3917 14.2923C9.0817 14.2923 9.6317 13.7423 9.6317 13.0523C9.6317 12.3823 9.0917 11.8123 8.3917 11.8123C7.6917 11.8123 7.1517 12.3823 7.1517 13.0523C7.1517 13.7423 7.6917 14.2923 8.3917 14.2923ZM11.2117 14.2923C11.8917 14.2923 12.4617 13.7423 12.4617 13.0523C12.4617 12.3823 11.8917 11.8123 11.2117 11.8123C10.5117 11.8123 9.9717 12.3823 9.9717 13.0523C9.9717 13.7423 10.5217 14.2923 11.2117 14.2923ZM5.5817 17.5423C6.2717 17.5423 6.8217 16.9923 6.8217 16.3023C6.8217 15.6223 6.2717 15.0623 5.5817 15.0623C4.8917 15.0623 4.3317 15.6223 4.3317 16.3023C4.3317 16.9923 4.8917 17.5423 5.5817 17.5423ZM8.3917 17.5423C9.0817 17.5423 9.6317 16.9823 9.6317 16.3023C9.6317 15.6123 9.0817 15.0623 8.3917 15.0623C7.6917 15.0623 7.1517 15.6123 7.1517 16.3023C7.1517 16.9823 7.6917 17.5423 8.3917 17.5423ZM11.2117 17.5423C11.8917 17.5423 12.4617 16.9823 12.4617 16.3023C12.4617 15.6123 11.8917 15.0623 11.2117 15.0623C10.5217 15.0623 9.9717 15.6123 9.9717 16.3023C9.9717 16.9823 10.5217 17.5423 11.2117 17.5423ZM5.3317 24.8523C5.8617 24.8523 6.3117 24.4023 6.3117 23.8723V19.9823C6.3117 19.4423 5.8617 18.9823 5.3317 18.9823C4.7717 18.9823 4.3317 19.4423 4.3317 19.9823V23.8723C4.3317 24.4023 4.7717 24.8523 5.3317 24.8523ZM11.4617 24.8523C12.0117 24.8523 12.4617 24.4023 12.4617 23.8723V19.9823C12.4617 19.4423 12.0117 18.9823 11.4617 18.9823C10.9217 18.9823 10.4717 19.4423 10.4717 19.9823V23.8723C10.4717 24.4023 10.9217 24.8523 11.4617 24.8523ZM7.8117 21.6223H8.9517C9.4217 21.6223 9.6717 21.3123 9.6717 20.8823V20.1223C9.6717 19.7023 9.4217 19.4023 8.9517 19.4023H7.8117C7.3717 19.4023 7.1017 19.7023 7.1017 20.1223V20.8823C7.1017 21.3123 7.3717 21.6223 7.8117 21.6223ZM7.8117 24.4323H8.9517C9.4217 24.4323 9.6717 24.1523 9.6717 23.7223V22.9723C9.6717 22.5223 9.4217 22.2323 8.9517 22.2323H7.8117C7.3717 22.2323 7.1017 22.5223 7.1017 22.9723V23.7223C7.1017 24.1523 7.3817 24.4323 7.8117 24.4323Z" />
        </svg>
    