
        <svg xmlns="http://www.w3.org/2000/svg" viewBox="0 0 100 100">
            <path d="M2.8317 26.8823H10.0117C11.7817 26.8823 12.8417 25.8423 12.8417 24.1423V2.7423C12.8417 1.0323 11.7817 0.0023 10.0117 0.0023H2.8317C1.0617 0.0023 0.0017 1.0323 0.0017 2.7423V24.1423C0.0017 25.8423 1.0617 26.8823 2.8317 26.8823ZM2.9917 25.5423C1.9617 25.5423 1.3517 24.9623 1.3517 23.9523V2.9223C1.3517 1.9223 1.9617 1.3323 2.9917 1.3323H9.8517C10.9017 1.3323 11.4917 1.9223 11.4917 2.9223V23.9523C11.4917 24.9623 10.9017 25.5423 9.8517 25.5423ZM7.0917 4.1723H9.6017C9.9917 4.1723 10.3017 3.8623 10.3017 3.4723C10.3017 3.0623 9.9917 2.7523 9.6017 2.7523H7.0917C6.6917 2.7523 6.3917 3.0623 6.3917 3.4723C6.3917 3.8623 6.6917 4.1723 7.0917 4.1723ZM3.5117 8.6623C4.1517 8.6623 4.6417 8.1723 4.6417 7.5323C4.6417 6.9223 4.1517 6.4223 3.5117 6.4223C2.8917 6.4223 2.4017 6.9223 2.4017 7.5323C2.4017 8.1723 2.8917 8.6623 3.5117 8.6623ZM6.4217 8.6623C7.0417 8.6623 7.5317 8.1723 7.5317 7.5323C7.5317 6.9223 7.0417 6.4223 6.4217 6.4223C5.7917 6.4223 5.3117 6.9223 5.3117 7.5323C5.3117 8.1723 5.7917 8.6623 6.4217 8.6623ZM9.3317 8.6623C9.9617 8.6623 10.4517 8.1723 10.4517 7.5323C10.4517 6.9223 9.9617 6.4223 9.3317 6.4223C8.7117 6.4223 8.2117 6.9223 8.2117 7.5323C8.2117 8.1723 8.7117 8.6623 9.3317 8.6623ZM3.5117 11.9323C4.1517 11.9323 4.6417 11.4523 4.6417 10.8123C4.6417 10.2023 4.1517 9.7023 3.5117 9.7023C2.8917 9.7023 2.4017 10.2023 2.4017 10.8123C2.4017 11.4523 2.8917 11.9323 3.5117 11.9323ZM6.4217 11.9323C7.0417 11.9323 7.5317 11.4523 7.5317 10.8123C7.5317 10.2023 7.0417 9.7023 6.4217 9.7023C5.7917 9.7023 5.3117 10.2023 5.3117 10.8123C5.3117 11.4523 5.7917 11.9323 6.4217 11.9323ZM9.3317 11.9323C9.9617 11.9323 10.4517 11.4523 10.4517 10.8123C10.4517 10.2023 9.9617 9.7023 9.3317 9.7023C8.7117 9.7023 8.2117 10.2023 8.2117 10.8123C8.2117 11.4523 8.7117 11.9323 9.3317 11.9323ZM3.5117 15.2123C4.1517 15.2123 4.6417 14.7223 4.6417 14.0823C4.6417 13.4723 4.1517 12.9723 3.5117 12.9723C2.8917 12.9723 2.4017 13.4723 2.4017 14.0823C2.4017 14.7223 2.8917 15.2123 3.5117 15.2123ZM6.4217 15.2123C7.0417 15.2123 7.5317 14.7023 7.5317 14.0823C7.5317 13.4623 7.0417 12.9723 6.4217 12.9723C5.7917 12.9723 5.3117 13.4623 5.3117 14.0823C5.3117 14.7023 5.7917 15.2123 6.4217 15.2123ZM9.3317 15.2123C9.9617 15.2123 10.4517 14.7023 10.4517 14.0823C10.4517 13.4623 9.9617 12.9723 9.3317 12.9723C8.7117 12.9723 8.2117 13.4623 8.2117 14.0823C8.2117 14.7023 8.7117 15.2123 9.3317 15.2123ZM3.2717 22.9823C3.7517 22.9823 4.1217 22.6023 4.1217 22.1223V17.9423C4.1217 17.4623 3.7517 17.0723 3.2717 17.0723C2.7917 17.0723 2.4017 17.4623 2.4017 17.9423V22.1223C2.4017 22.6023 2.7917 22.9823 3.2717 22.9823ZM9.5817 22.9823C10.0617 22.9823 10.4517 22.6023 10.4517 22.1223V17.9423C10.4517 17.4623 10.0617 17.0723 9.5817 17.0723C9.1017 17.0723 8.7317 17.4623 8.7317 17.9423V22.1223C8.7317 22.6023 9.1017 22.9823 9.5817 22.9823ZM5.8517 19.5423H6.9817C7.3817 19.5423 7.5817 19.3323 7.5817 18.9623V18.1923C7.5817 17.8123 7.3817 17.6023 6.9817 17.6023H5.8517C5.4717 17.6023 5.2617 17.8123 5.2617 18.1923V18.9623C5.2617 19.3323 5.4717 19.5423 5.8517 19.5423ZM5.8517 22.4623H6.9817C7.3817 22.4623 7.5817 22.2423 7.5817 21.8623V21.1023C7.5817 20.7323 7.3817 20.5223 6.9817 20.5223H5.8517C5.4717 20.5223 5.2617 20.7323 5.2617 21.1023V21.8623C5.2617 22.2423 5.4717 22.4623 5.8517 22.4623Z" />
        </svg>
    