
        <svg xmlns="http://www.w3.org/2000/svg" viewBox="0 0 100 100">
            <path d="M3.2117 28.0266H10.9717C12.9617 28.0266 14.1817 26.8566 14.1817 24.9566V3.0666C14.1817 1.1766 12.9617 -0.0034 10.9717 -0.0034H3.2117C1.2217 -0.0034 0.0017 1.1766 0.0017 3.0666V24.9566C0.0017 26.8566 1.2217 28.0266 3.2117 28.0266ZM3.5317 25.9266C2.6717 25.9266 2.1417 25.4066 2.1417 24.6066V3.4366C2.1417 2.6266 2.6717 2.1066 3.5317 2.1066H10.6517C11.5117 2.1066 12.0317 2.6266 12.0317 3.4366V24.6066C12.0317 25.4066 11.5117 25.9266 10.6517 25.9266ZM7.8017 4.9666H10.3017C10.7217 4.9666 11.0617 4.6366 11.0617 4.2166C11.0617 3.7866 10.7217 3.4566 10.3017 3.4566H7.8017C7.3817 3.4566 7.0517 3.7866 7.0517 4.2166C7.0517 4.6366 7.3817 4.9666 7.8017 4.9666ZM4.2417 9.3866C4.8917 9.3866 5.4017 8.8666 5.4017 8.2266C5.4017 7.5966 4.8917 7.0666 4.2417 7.0666C3.6017 7.0666 3.0817 7.5966 3.0817 8.2266C3.0817 8.8666 3.6017 9.3866 4.2417 9.3866ZM7.0917 9.3866C7.7317 9.3866 8.2517 8.8666 8.2517 8.2266C8.2517 7.5966 7.7417 7.0666 7.0917 7.0666C6.4317 7.0666 5.9317 7.5966 5.9317 8.2266C5.9317 8.8666 6.4317 9.3866 7.0917 9.3866ZM9.9517 9.3866C10.6017 9.3866 11.1117 8.8666 11.1117 8.2266C11.1117 7.5966 10.6017 7.0666 9.9517 7.0666C9.3017 7.0666 8.7917 7.5966 8.7917 8.2266C8.7917 8.8666 9.3017 9.3866 9.9517 9.3866ZM4.2417 12.6566C4.8917 12.6566 5.4017 12.1366 5.4017 11.4966C5.4017 10.8666 4.8917 10.3266 4.2417 10.3266C3.6017 10.3266 3.0817 10.8666 3.0817 11.4966C3.0817 12.1366 3.6017 12.6566 4.2417 12.6566ZM7.0917 12.6566C7.7317 12.6566 8.2517 12.1366 8.2517 11.4966C8.2517 10.8666 7.7417 10.3266 7.0917 10.3266C6.4317 10.3266 5.9317 10.8666 5.9317 11.4966C5.9317 12.1366 6.4317 12.6566 7.0917 12.6566ZM9.9517 12.6566C10.6017 12.6566 11.1117 12.1366 11.1117 11.4966C11.1117 10.8666 10.6017 10.3266 9.9517 10.3266C9.3017 10.3266 8.7917 10.8666 8.7917 11.4966C8.7917 12.1366 9.3017 12.6566 9.9517 12.6566ZM4.2417 15.9266C4.8917 15.9266 5.4017 15.4066 5.4017 14.7666C5.4017 14.1166 4.8917 13.6066 4.2417 13.6066C3.6017 13.6066 3.0817 14.1166 3.0817 14.7666C3.0817 15.4066 3.6017 15.9266 4.2417 15.9266ZM7.0917 15.9266C7.7317 15.9266 8.2517 15.3966 8.2517 14.7666C8.2517 14.1066 7.7317 13.6066 7.0917 13.6066C6.4317 13.6066 5.9317 14.1066 5.9317 14.7666C5.9317 15.3966 6.4317 15.9266 7.0917 15.9266ZM9.9517 15.9266C10.6017 15.9266 11.1117 15.3966 11.1117 14.7666C11.1117 14.1066 10.6017 13.6066 9.9517 13.6066C9.3017 13.6066 8.7917 14.1066 8.7917 14.7666C8.7917 15.3966 9.3017 15.9266 9.9517 15.9266ZM3.9817 23.5866C4.4917 23.5866 4.9017 23.1766 4.9017 22.6866V18.5966C4.9017 18.0966 4.4917 17.6966 3.9817 17.6966C3.4817 17.6966 3.0817 18.0966 3.0817 18.5966V22.6866C3.0817 23.1766 3.4817 23.5866 3.9817 23.5866ZM10.2117 23.5866C10.7117 23.5866 11.1117 23.1766 11.1117 22.6866V18.5966C11.1117 18.0966 10.7117 17.6966 10.2117 17.6966C9.7017 17.6966 9.2917 18.0966 9.2917 18.5966V22.6866C9.2917 23.1766 9.7017 23.5866 10.2117 23.5866ZM6.5117 20.2266H7.6517C8.0717 20.2266 8.3017 19.9766 8.3017 19.5966V18.8366C8.3017 18.4366 8.0717 18.1866 7.6517 18.1866H6.5117C6.1217 18.1866 5.8817 18.4366 5.8817 18.8366V19.5966C5.8817 19.9766 6.1217 20.2266 6.5117 20.2266ZM6.5117 23.0866H7.6517C8.0717 23.0866 8.3017 22.8566 8.3017 22.4566V21.6866C8.3017 21.2966 8.0717 21.0566 7.6517 21.0566H6.5117C6.1217 21.0566 5.8817 21.2966 5.8817 21.6866V22.4566C5.8817 22.8566 6.1317 23.0866 6.5117 23.0866Z" />
        </svg>
    