
        <svg xmlns="http://www.w3.org/2000/svg" viewBox="0 0 100 100">
            <path d="M3.0617 27.4536H10.3217C12.2017 27.4536 13.3817 26.3136 13.3817 24.5436V2.9036C13.3817 1.1336 12.2017 0.0036 10.3217 0.0036H3.0617C1.1817 0.0036 0.0017 1.1336 0.0017 2.9036V24.5436C0.0017 26.3136 1.1817 27.4536 3.0617 27.4536ZM7.4317 4.2336C7.0117 4.2336 6.6717 3.9036 6.6717 3.4836C6.6717 3.0536 7.0117 2.7236 7.4317 2.7236H10.0117C10.4317 2.7236 10.7617 3.0536 10.7617 3.4836C10.7617 3.9036 10.4317 4.2336 10.0117 4.2336ZM3.7417 8.7336C3.0917 8.7336 2.5617 8.2136 2.5617 7.5436C2.5617 6.9136 3.0917 6.3736 3.7417 6.3736C4.3917 6.3736 4.9217 6.9136 4.9217 7.5436C4.9217 8.2136 4.3917 8.7336 3.7417 8.7336ZM6.6917 8.7336C6.0317 8.7336 5.5217 8.2136 5.5217 7.5436C5.5217 6.9136 6.0317 6.3736 6.6917 6.3736C7.3517 6.3736 7.8617 6.9136 7.8617 7.5436C7.8617 8.2136 7.3517 8.7336 6.6917 8.7336ZM9.6517 8.7336C9.0017 8.7336 8.4817 8.2136 8.4817 7.5436C8.4817 6.9136 9.0017 6.3736 9.6517 6.3736C10.3017 6.3736 10.8317 6.9136 10.8317 7.5436C10.8317 8.2136 10.3017 8.7336 9.6517 8.7336ZM3.7417 12.1036C3.0917 12.1036 2.5617 11.5936 2.5617 10.9336C2.5617 10.3036 3.0917 9.7636 3.7417 9.7636C4.3917 9.7636 4.9217 10.3036 4.9217 10.9336C4.9217 11.5936 4.3917 12.1036 3.7417 12.1036ZM6.6917 12.1036C6.0317 12.1036 5.5217 11.5936 5.5217 10.9336C5.5217 10.3036 6.0317 9.7636 6.6917 9.7636C7.3517 9.7636 7.8617 10.3036 7.8617 10.9336C7.8617 11.5936 7.3517 12.1036 6.6917 12.1036ZM9.6517 12.1036C9.0017 12.1036 8.4817 11.5936 8.4817 10.9336C8.4817 10.3036 9.0017 9.7636 9.6517 9.7636C10.3017 9.7636 10.8317 10.3036 10.8317 10.9336C10.8317 11.5936 10.3017 12.1036 9.6517 12.1036ZM3.7417 15.4836C3.0917 15.4836 2.5617 14.9736 2.5617 14.3036C2.5617 13.6636 3.0917 13.1336 3.7417 13.1336C4.3917 13.1336 4.9217 13.6636 4.9217 14.3036C4.9217 14.9736 4.3917 15.4836 3.7417 15.4836ZM6.6917 15.4836C6.0317 15.4836 5.5217 14.9536 5.5217 14.3036C5.5217 13.6536 6.0317 13.1336 6.6917 13.1336C7.3517 13.1336 7.8617 13.6536 7.8617 14.3036C7.8617 14.9536 7.3517 15.4836 6.6917 15.4836ZM9.6517 15.4836C9.0017 15.4836 8.4817 14.9536 8.4817 14.3036C8.4817 13.6536 9.0017 13.1336 9.6517 13.1336C10.3017 13.1336 10.8317 13.6536 10.8317 14.3036C10.8317 14.9536 10.3017 15.4836 9.6517 15.4836ZM3.4817 23.5036C2.9717 23.5036 2.5617 23.0936 2.5617 22.5936V18.3136C2.5617 17.8136 2.9717 17.4136 3.4817 17.4136C3.9817 17.4136 4.3817 17.8136 4.3817 18.3136V22.5936C4.3817 23.0936 3.9817 23.5036 3.4817 23.5036ZM9.9117 23.5036C9.4117 23.5036 9.0117 23.0936 9.0117 22.5936V18.3136C9.0117 17.8136 9.4117 17.4136 9.9117 17.4136C10.4217 17.4136 10.8317 17.8136 10.8317 18.3136V22.5936C10.8317 23.0936 10.4217 23.5036 9.9117 23.5036ZM6.0917 20.0036C5.7117 20.0036 5.4717 19.7536 5.4717 19.3736V18.5836C5.4717 18.1836 5.7117 17.9436 6.0917 17.9436H7.2817C7.6917 17.9436 7.9117 18.1836 7.9117 18.5836V19.3736C7.9117 19.7536 7.6917 20.0036 7.2817 20.0036ZM6.0917 22.9536C5.7117 22.9536 5.4717 22.7336 5.4717 22.3336V21.5536C5.4717 21.1536 5.7117 20.9136 6.0917 20.9136H7.2817C7.6917 20.9136 7.9117 21.1536 7.9117 21.5536V22.3336C7.9117 22.7336 7.6917 22.9536 7.2817 22.9536Z" />
        </svg>
    