
        <svg xmlns="http://www.w3.org/2000/svg" viewBox="0 0 100 100">
            <path d="M8.7814 14.6399C8.8714 14.6299 8.9614 14.6299 9.0614 14.6299C9.1614 14.6299 9.2414 14.6299 9.3514 14.6399V3.7199H13.7314L13.3014 4.8999C13.0614 5.5699 13.2614 6.0699 13.8914 6.2999L15.1514 6.7699C15.8114 6.9999 16.3014 6.7499 16.5314 6.0899L18.0214 1.9599C18.2814 1.2799 18.0614 0.7899 17.4114 0.5599L16.1514 0.0899C15.5114 -0.1501 15.0514 0.0999 14.7914 0.7899L13.9314 3.1399H4.4214L4.8414 1.9599C5.1014 1.2799 4.8714 0.7899 4.2314 0.5599L2.9714 0.0899C2.3214 -0.1501 1.8514 0.0999 1.5914 0.7899L0.1014 4.8899C-0.1486 5.5699 0.0714 6.0599 0.7014 6.2999L1.9714 6.7699C2.6214 6.9999 3.1214 6.7499 3.3514 6.0899L4.2114 3.7199H8.7814ZM7.0814 23.7699H11.0514C11.6714 23.7699 11.9714 23.4699 11.9714 22.7699V19.4899C11.9714 18.8099 11.6914 18.5199 11.1214 18.4799V17.8099C11.1214 16.4899 10.3014 15.6099 9.0714 15.6099C7.8314 15.6099 6.9814 16.4899 6.9814 17.8099V18.4799C6.4214 18.5199 6.1314 18.8099 6.1314 19.4899V22.7699C6.1314 23.4699 6.4414 23.7699 7.0814 23.7699ZM7.5714 18.4999V17.8099C7.5714 16.8199 8.1714 16.1999 9.0714 16.1999C9.9614 16.1999 10.5514 16.8199 10.5514 17.8099V18.4999ZM1.7914 22.9699H3.1514C3.8314 22.9699 4.1914 22.5699 4.1914 21.8699V19.9699H5.3014V19.8199C5.3014 19.6799 5.3114 19.5299 5.3314 19.3999H4.1914V17.4899C4.1914 16.7899 3.8314 16.3899 3.1514 16.3899H1.7914C1.1114 16.3899 0.7414 16.7899 0.7414 17.4899V21.8699C0.7414 22.5699 1.1114 22.9699 1.7914 22.9699ZM12.8214 19.9699H13.9314V21.8699C13.9314 22.5699 14.3114 22.9699 14.9714 22.9699H16.3214C17.0114 22.9699 17.3814 22.5699 17.3814 21.8699V17.4899C17.3814 16.7899 17.0114 16.3899 16.3214 16.3899H14.9714C14.3114 16.3899 13.9314 16.7899 13.9314 17.4899V19.3999H12.8014C12.8114 19.5299 12.8214 19.6799 12.8214 19.8199Z" />
        </svg>
    