
        <svg xmlns="http://www.w3.org/2000/svg" viewBox="0 0 100 100">
            <path d="M0.801 6.6399L1.971 7.0799C2.681 7.3299 3.241 7.0399 3.511 6.3099L4.351 4.0199H8.991V17.7099C9.031 17.7499 9.071 17.7799 9.101 17.8199L9.411 18.1299L9.721 17.7999C9.771 17.7499 9.811 17.7199 9.851 17.6799V4.0199H14.191L13.811 5.0799C13.551 5.8099 13.791 6.3999 14.481 6.6399L15.651 7.0799C16.371 7.3299 16.941 7.0399 17.201 6.3099L18.721 2.1099C19.011 1.3599 18.751 0.7999 18.051 0.5299L16.861 0.0899C16.171 -0.1701 15.611 0.1299 15.341 0.8699L14.511 3.1499H4.661L5.041 2.1099C5.311 1.3599 5.051 0.7999 4.361 0.5299L3.171 0.0899C2.461 -0.1701 1.911 0.1299 1.641 0.8699L0.101 5.0699C-0.169 5.8099 0.091 6.3799 0.801 6.6399ZM1.941 23.4799H3.201C3.951 23.4799 4.381 23.0099 4.381 22.2399V20.4499H7.101C7.121 20.4099 7.161 20.3799 7.181 20.3399L7.531 19.9999L7.231 19.6999C7.191 19.6599 7.151 19.6199 7.121 19.5699H4.381V17.7599C4.381 16.9899 3.951 16.5199 3.201 16.5199H1.941C1.191 16.5199 0.761 16.9899 0.761 17.7599V22.2399C0.761 23.0099 1.191 23.4799 1.941 23.4799ZM15.631 23.4799H16.901C17.641 23.4799 18.071 23.0099 18.071 22.2399V17.7599C18.071 16.9899 17.641 16.5199 16.901 16.5199H15.631C14.891 16.5199 14.461 16.9899 14.461 17.7599V19.5699H11.721C11.691 19.5999 11.651 19.6499 11.611 19.6899L11.281 20.0099L11.591 20.3299C11.621 20.3499 11.661 20.4099 11.691 20.4499H14.461V22.2399C14.461 23.0099 14.891 23.4799 15.631 23.4799ZM7.421 21.9899C7.581 22.1499 7.801 22.1499 7.961 22.0099L9.421 20.5499L10.891 22.0299C11.041 22.1799 11.271 22.1799 11.441 22.0299C11.591 21.8899 11.591 21.6399 11.441 21.4999L9.951 20.0099L11.401 18.5699C11.551 18.4299 11.541 18.1999 11.391 18.0199C11.221 17.8599 10.991 17.8599 10.851 18.0099L9.411 19.4599L7.911 17.9699C7.771 17.8299 7.521 17.8199 7.381 17.9699C7.221 18.1299 7.231 18.3499 7.381 18.4999L8.871 19.9999L7.421 21.4599C7.251 21.6199 7.251 21.8299 7.421 21.9899Z" />
        </svg>
    