
        <svg xmlns="http://www.w3.org/2000/svg" viewBox="0 0 100 100">
            <path d="M1.1619 8.1536L2.1919 8.5336C3.1719 8.8936 4.1019 8.4336 4.4619 7.4236L5.1919 5.4236H10.0319V18.0636C10.2219 18.1336 10.3919 18.2336 10.5519 18.3836L11.1119 18.9336L11.7319 18.2836C11.8919 18.1236 12.0819 18.0136 12.2819 17.9636V5.4236H16.3219L16.1719 5.8536C15.8019 6.8636 16.2219 7.8036 17.1919 8.1536L18.2219 8.5336C19.2119 8.8936 20.1319 8.4336 20.4919 7.4236L22.1819 2.7936C22.5619 1.7836 22.1419 0.8536 21.1519 0.5036L20.1219 0.1236C19.1419 -0.2364 18.2219 0.2136 17.8519 1.2236L17.1319 3.1936H6.0119L6.1519 2.7936C6.5319 1.7836 6.1019 0.8536 5.1219 0.5036L4.0919 0.1236C3.1019 -0.2364 2.1919 0.2136 1.8119 1.2236L0.1319 5.8536C-0.2381 6.8636 0.1919 7.8036 1.1619 8.1536ZM2.6019 25.9536H3.7419C4.7819 25.9536 5.4919 25.2036 5.4919 24.1336V22.8036H7.4319C7.4919 22.6136 7.5919 22.4336 7.7419 22.2836L8.4019 21.6436L7.8519 21.0836C7.7019 20.9236 7.5819 20.7536 7.5219 20.5536H5.4919V19.2136C5.4919 18.1436 4.7819 17.3936 3.7419 17.3936H2.6019C1.5619 17.3936 0.8419 18.1436 0.8419 19.2136V24.1336C0.8419 25.2036 1.5619 25.9536 2.6019 25.9536ZM18.5719 25.9536H19.7219C20.7619 25.9536 21.4819 25.2036 21.4819 24.1336V19.2136C21.4819 18.1436 20.7619 17.3936 19.7219 17.3936H18.5719C17.5419 17.3936 16.8319 18.1436 16.8319 19.2136V20.5536H14.8319C14.7819 20.7236 14.6619 20.9136 14.5119 21.0636L13.8619 21.6936L14.4119 22.2636C14.5619 22.4236 14.6819 22.6036 14.7419 22.8036H16.8319V24.1336C16.8319 25.2036 17.5419 25.9536 18.5719 25.9536ZM8.4919 24.3136C8.8019 24.6136 9.2919 24.6636 9.6119 24.3336L11.1719 22.7836L12.6319 24.2536C12.9419 24.5436 13.4219 24.5336 13.7119 24.2536C14.0019 23.9636 14.0019 23.4636 13.7119 23.1736L12.2419 21.6936L13.7919 20.1636C14.1219 19.8336 14.0719 19.3536 13.7719 19.0336C13.4519 18.7336 12.9619 18.6836 12.6419 19.0036L11.1119 20.5536L9.6319 19.0836C9.3419 18.8036 8.8519 18.8136 8.5519 19.0936C8.2519 19.3736 8.2619 19.8736 8.5519 20.1736L10.0219 21.6436L8.4719 23.1836C8.1419 23.5136 8.1919 24.0036 8.4919 24.3136Z" />
        </svg>
    