
        <svg xmlns="http://www.w3.org/2000/svg" viewBox="0 0 100 100">
            <path d="M0.801 6.6399L1.971 7.0799C2.681 7.3299 3.241 7.0399 3.511 6.3099L4.351 4.0199H8.971V9.4999C9.021 9.5499 9.071 9.5799 9.121 9.6299L9.411 9.9099L9.711 9.6099C9.751 9.5599 9.801 9.5299 9.841 9.4799V4.0199H14.191L13.811 5.0799C13.551 5.8099 13.791 6.3999 14.481 6.6399L15.651 7.0799C16.371 7.3299 16.941 7.0399 17.201 6.3099L18.721 2.1099C19.011 1.3599 18.751 0.7999 18.051 0.5299L16.861 0.0899C16.171 -0.1701 15.611 0.1299 15.341 0.8699L14.511 3.1499H4.661L5.041 2.1099C5.311 1.3599 5.051 0.7999 4.361 0.5299L3.171 0.0899C2.461 -0.1701 1.911 0.1299 1.641 0.8699L0.101 5.0699C-0.169 5.8099 0.091 6.3799 0.801 6.6399ZM7.421 13.7899C7.581 13.9399 7.801 13.9399 7.961 13.7899L9.421 12.3399L10.891 13.8299C11.041 13.9699 11.271 13.9699 11.441 13.8299C11.591 13.6699 11.591 13.4299 11.441 13.2899L9.951 11.7999L11.401 10.3599C11.551 10.2199 11.541 9.9799 11.391 9.8099C11.221 9.6399 10.991 9.6399 10.851 9.7999L9.411 11.2599L7.911 9.7599C7.771 9.6199 7.521 9.6199 7.381 9.7599C7.221 9.9199 7.231 10.1499 7.381 10.2999L8.871 11.7899L7.421 13.2399C7.251 13.3999 7.251 13.6299 7.421 13.7899ZM1.941 23.4799H3.201C3.951 23.4799 4.381 23.0099 4.381 22.2399V20.4499H14.461V22.2399C14.461 23.0099 14.891 23.4799 15.631 23.4799H16.901C17.641 23.4799 18.071 23.0099 18.071 22.2399V17.7599C18.071 16.9899 17.641 16.5199 16.901 16.5199H15.631C14.891 16.5199 14.461 16.9899 14.461 17.7599V19.5699H9.841V14.0799C9.801 14.0499 9.741 13.9899 9.691 13.9399L9.421 13.6899L9.131 13.9799C9.081 14.0099 9.021 14.0699 8.971 14.1099V19.5699H4.381V17.7599C4.381 16.9899 3.951 16.5199 3.201 16.5199H1.941C1.191 16.5199 0.761 16.9899 0.761 17.7599V22.2399C0.761 23.0099 1.191 23.4799 1.941 23.4799Z" />
        </svg>
    