
        <svg xmlns="http://www.w3.org/2000/svg" viewBox="0 0 100 100">
            <path d="M2.2432 24.4497H3.3032C4.1832 24.4497 4.7432 23.8597 4.7432 22.9597V21.3497H7.3932C7.7032 22.5597 8.7932 23.4397 10.1132 23.4397C11.4232 23.4397 12.5132 22.5597 12.8232 21.3497H15.4932V22.9597C15.4932 23.8597 16.0532 24.4497 16.9232 24.4497H17.9932C18.8732 24.4497 19.4332 23.8597 19.4332 22.9597V18.2897C19.4332 17.3797 18.8732 16.7897 17.9932 16.7897H16.9232C16.0532 16.7897 15.4932 17.3797 15.4932 18.2897V19.8997H12.8232C12.5632 18.9297 11.8132 18.1797 10.8432 17.9197V6.6097C11.8132 6.3497 12.5632 5.5897 12.8232 4.6197H15.1032L14.8132 5.4197C14.4932 6.2697 14.8232 7.0097 15.6432 7.2997L16.6532 7.6797C17.4732 7.9697 18.2032 7.6097 18.5132 6.7597L20.1132 2.3697C20.4232 1.5097 20.1032 0.7697 19.2632 0.4697L18.2632 0.1097C17.4432 -0.2003 16.7232 0.1697 16.4032 1.0197L15.6332 3.1697H12.8232C12.5032 1.9597 11.4232 1.0897 10.1132 1.0897C8.7932 1.0897 7.7132 1.9597 7.3932 3.1697H5.1332L5.4232 2.3697C5.7432 1.5097 5.4032 0.7697 4.5832 0.4697L3.5732 0.1097C2.7532 -0.2003 2.0332 0.1697 1.7132 1.0197L0.1232 5.3997C-0.1968 6.2697 0.1332 6.9997 0.9632 7.2997L1.9732 7.6797C2.7932 7.9697 3.5132 7.6097 3.8332 6.7597L4.6032 4.6197H7.3932C7.6532 5.5897 8.4132 6.3497 9.3932 6.6097V17.9197C8.4132 18.1797 7.6532 18.9297 7.3932 19.8997H4.7432V18.2897C4.7432 17.3797 4.1832 16.7897 3.3032 16.7897H2.2432C1.3632 16.7897 0.8032 17.3797 0.8032 18.2897V22.9597C0.8032 23.8597 1.3632 24.4497 2.2432 24.4497ZM10.1132 5.4697C9.2232 5.4697 8.5232 4.7697 8.5232 3.8797C8.5232 2.9997 9.2232 2.3097 10.1132 2.3097C11.0032 2.3097 11.6932 2.9997 11.6932 3.8797C11.6932 4.7697 11.0032 5.4697 10.1132 5.4697ZM10.1132 22.2197C9.2232 22.2197 8.5232 21.5197 8.5232 20.6397C8.5232 19.7497 9.2232 19.0597 10.1132 19.0597C11.0032 19.0597 11.6932 19.7497 11.6932 20.6397C11.6932 21.5197 11.0032 22.2197 10.1132 22.2197Z" />
        </svg>
    