
        <svg xmlns="http://www.w3.org/2000/svg" viewBox="0 0 100 100">
            <path d="M11.3523 22.7064C17.6323 22.7064 22.7123 17.6264 22.7123 11.3564C22.7123 5.0764 17.6323 -0.0036 11.3523 -0.0036C5.0823 -0.0036 0.0023 5.0764 0.0023 11.3564C0.0023 17.6264 5.0823 22.7064 11.3523 22.7064ZM11.3523 22.1364C5.3923 22.1364 0.5723 17.3164 0.5723 11.3564C0.5723 5.3864 5.3923 0.5764 11.3523 0.5764C17.3223 0.5764 22.1323 5.3864 22.1323 11.3564C22.1323 17.3164 17.3223 22.1364 11.3523 22.1364ZM8.2223 16.6064H11.6723C13.8823 16.6064 15.2323 15.5264 15.2323 13.7364C15.2323 12.3264 14.3323 11.3364 12.9223 11.1364V11.0864C13.9123 10.8664 14.6123 9.8764 14.6123 8.7064C14.6123 7.2164 13.3623 6.1364 11.6123 6.1364H8.2223C8.0423 6.1364 7.9323 6.2664 7.9323 6.4664V16.2764C7.9323 16.4764 8.0423 16.6064 8.2223 16.6064ZM8.5423 10.9364V6.7264H11.5223C13.0923 6.7264 13.9823 7.4864 13.9823 8.8264C13.9823 10.0264 12.8823 10.9364 11.4123 10.9364ZM8.5423 16.0164V11.5164H11.9423C13.5723 11.5164 14.5823 12.3764 14.5823 13.7664C14.5823 15.2564 13.5023 16.0164 11.3923 16.0164Z" />
        </svg>
    