
        <svg xmlns="http://www.w3.org/2000/svg" viewBox="0 0 100 100">
            <path d="M11.4923 22.977C17.8123 22.977 22.9823 17.827 22.9823 11.497C22.9823 5.167 17.8123 -0.003 11.4923 -0.003C5.1723 -0.003 0.0023 5.167 0.0023 11.497C0.0023 17.827 5.1723 22.977 11.4923 22.977ZM8.4123 16.777C8.1223 16.777 7.9423 16.577 7.9423 16.277V6.687C7.9423 6.377 8.1223 6.187 8.4123 6.187H11.8323C13.6623 6.187 14.9423 7.267 14.9423 8.787C14.9423 9.957 14.2223 10.947 13.1923 11.177V11.237C14.6523 11.427 15.5623 12.437 15.5623 13.867C15.5623 15.677 14.1523 16.777 11.8823 16.777ZM8.8523 10.957H11.4823C12.9723 10.957 14.0323 10.117 14.0323 8.957C14.0323 7.687 13.1723 6.957 11.6723 6.957H8.8523ZM8.8523 16.007H11.4823C13.5723 16.007 14.6223 15.277 14.6223 13.867C14.6223 12.527 13.6523 11.707 12.0423 11.707H8.8523Z" />
        </svg>
    