
        <svg xmlns="http://www.w3.org/2000/svg" viewBox="0 0 100 100">
            <path d="M5.2023 26.0298H11.9323C15.4923 26.0298 17.1723 24.2898 17.1323 20.7098C17.0823 16.2798 17.0623 13.0698 16.9623 10.6598C16.7023 4.8798 15.3923 2.6398 11.1223 2.0998C10.9723 0.8598 9.8823 -0.0002 8.5823 -0.0002C7.2623 -0.0002 6.1923 0.8598 6.0223 2.0998C1.7623 2.6398 0.4323 4.8598 0.1723 10.6598C0.0723 13.0698 0.0523 16.2798 0.0023 20.7098C-0.0377 24.2898 1.6423 26.0298 5.2023 26.0298ZM8.5623 1.9598C7.8623 1.9598 7.2223 1.9798 6.6223 2.0398C6.8023 1.1598 7.6223 0.5698 8.5823 0.5698C9.5423 0.5698 10.3523 1.1598 10.5223 2.0398C9.9223 1.9798 9.2823 1.9598 8.5623 1.9598ZM5.2023 25.3698C2.0323 25.3698 0.6223 23.9498 0.6523 20.7098C0.7023 16.2798 0.7223 13.0798 0.8323 10.7098C1.1123 4.2198 2.6623 2.6298 8.5623 2.6298C14.4723 2.6298 16.0223 4.2198 16.3023 10.7098C16.4023 13.0798 16.4323 16.2798 16.4723 20.7098C16.5123 23.9498 15.1023 25.3698 11.9323 25.3698ZM5.2223 21.7498H11.9023C12.8023 21.7498 13.3923 21.1498 13.3923 20.2498V15.2298C13.3923 14.3298 12.8023 13.7298 11.9023 13.7298H5.2223C4.3323 13.7298 3.7423 14.3298 3.7423 15.2298V20.2498C3.7423 21.1498 4.3323 21.7498 5.2223 21.7498ZM4.3123 15.1798C4.3123 14.6598 4.6623 14.3098 5.1923 14.3098H11.9423C12.4723 14.3098 12.8223 14.6598 12.8223 15.1798V16.6798H4.3123ZM5.1923 21.1798C4.6623 21.1798 4.3123 20.8198 4.3123 20.3098V17.2598H12.8223V20.3098C12.8223 20.8198 12.4723 21.1798 11.9423 21.1798Z" />
        </svg>
    