
        <svg xmlns="http://www.w3.org/2000/svg" viewBox="0 0 100 100">
            <path d="M12.7923 25.5961C19.8723 25.5961 25.6023 19.8661 25.6023 12.7961C25.6023 5.7261 19.8723 -0.0039 12.7923 -0.0039C5.7323 -0.0039 0.0023 5.7261 0.0023 12.7961C0.0023 19.8661 5.7323 25.5961 12.7923 25.5961ZM11.1823 19.5461C9.0923 19.5461 8.0123 18.4261 8.0423 16.3461C8.0523 14.2061 8.0623 12.6461 8.1123 11.4561C8.2523 8.6461 8.9523 7.3161 10.8123 6.8461C10.9423 5.7861 11.6923 5.1361 12.7923 5.1361C13.9123 5.1361 14.6523 5.7861 14.7923 6.8461C16.6523 7.3161 17.3523 8.6461 17.4823 11.4561C17.5523 12.6461 17.5523 14.2061 17.5623 16.3461C17.5823 18.4261 16.5023 19.5461 14.4223 19.5461ZM12.1323 6.6661C12.3423 6.6561 12.5623 6.6361 12.7923 6.6361C13.0323 6.6361 13.2623 6.6561 13.4923 6.6661C13.3523 6.4261 13.1123 6.2861 12.7923 6.2861C12.4923 6.2861 12.2423 6.4261 12.1323 6.6661ZM10.1123 14.2461H15.4823V13.5861C15.4823 13.0061 15.0823 12.6061 14.4923 12.6061H11.1123C10.5223 12.6061 10.1123 13.0161 10.1123 13.5861ZM11.1123 17.2161H14.4923C15.0823 17.2161 15.4823 16.8061 15.4823 16.2261V15.2961H10.1123V16.2261C10.1123 16.8061 10.5223 17.2161 11.1123 17.2161Z" />
        </svg>
    