
        <svg xmlns="http://www.w3.org/2000/svg" viewBox="0 0 100 100">
            <path d="M12.1023 24.2064C18.7823 24.2064 24.2123 18.7864 24.2123 12.1064C24.2123 5.4264 18.7823 -0.0036 12.1023 -0.0036C5.4223 -0.0036 0.0023 5.4264 0.0023 12.1064C0.0023 18.7864 5.4223 24.2064 12.1023 24.2064ZM12.1023 21.8164C6.7223 21.8164 2.3823 17.4864 2.3823 12.1064C2.3823 6.7264 6.7223 2.3764 12.1023 2.3764C17.4823 2.3764 21.8323 6.7264 21.8323 12.1064C21.8323 17.4864 17.4823 21.8164 12.1023 21.8164ZM10.3223 19.0664H13.8623C15.9023 19.0664 16.9223 18.0264 16.9123 15.9564C16.8723 13.6264 16.8623 11.9364 16.8023 10.6864C16.6723 7.7264 15.9823 6.4064 14.0123 5.9764C13.8723 5.0464 13.1323 4.4064 12.0923 4.4064C11.0623 4.4064 10.3123 5.0464 10.1823 5.9764C8.2023 6.4064 7.5123 7.7264 7.3823 10.6864C7.3223 11.9364 7.3123 13.6264 7.2923 15.9564C7.2823 18.0264 8.2923 19.0664 10.3223 19.0664ZM12.0923 5.8164C11.7623 5.8164 11.4623 5.8264 11.1823 5.8464C11.3423 5.5164 11.6823 5.3064 12.0923 5.3064C12.5123 5.3064 12.8523 5.5164 13.0223 5.8464C12.7223 5.8264 12.4223 5.8164 12.0923 5.8164ZM9.3323 12.9364C9.3323 12.4264 9.6723 12.0864 10.1823 12.0864H14.0023C14.5323 12.0864 14.8623 12.4264 14.8623 12.9364V13.6664H9.3323ZM10.1823 16.7464C9.6723 16.7464 9.3323 16.3964 9.3323 15.8864V14.4464H14.8623V15.8864C14.8623 16.3964 14.5323 16.7464 14.0023 16.7464Z" />
        </svg>
    