
        <svg xmlns="http://www.w3.org/2000/svg" viewBox="0 0 100 100">
            <path d="M24.7739 21.5405C26.2639 21.5405 27.3439 20.4805 27.3439 19.0505V2.4805C27.3439 1.0505 26.2639 0.0005 24.7739 0.0005C23.2739 0.0005 22.2039 1.0505 22.2039 2.4805V19.0505C22.2039 20.4805 23.2739 21.5405 24.7739 21.5405ZM19.3139 18.8005V2.7405C19.3139 0.9505 18.1639 0.0005 16.8039 0.0005C16.2339 0.0005 15.6439 0.1605 15.0739 0.4905L1.8539 8.1905C0.7539 8.8205 0.0039 9.5905 0.0039 10.7705C0.0039 11.9405 0.7539 12.7105 1.8539 13.3505L15.0739 21.0505C15.6439 21.3705 16.2339 21.5405 16.8039 21.5405C18.1639 21.5405 19.3139 20.5805 19.3139 18.8005ZM15.1539 15.9105C15.1539 16.0905 15.0339 16.2105 14.8739 16.2105C14.8339 16.2105 14.7739 16.1905 14.7139 16.1605L5.7739 11.0205C5.6639 10.9605 5.6139 10.8505 5.6139 10.7705C5.6139 10.6805 5.6639 10.5805 5.7739 10.5205L14.7139 5.3805C14.7739 5.3405 14.8339 5.3305 14.8739 5.3305C15.0339 5.3305 15.1539 5.4505 15.1539 5.6205Z" />
        </svg>
    