
        <svg xmlns="http://www.w3.org/2000/svg" viewBox="0 0 100 100">
            <path d="M11.4923 22.977C17.8123 22.977 22.9823 17.827 22.9823 11.497C22.9823 5.167 17.8123 -0.003 11.4923 -0.003C5.1723 -0.003 0.0023 5.167 0.0023 11.497C0.0023 17.827 5.1723 22.977 11.4923 22.977ZM2.9223 11.517C2.9223 11.277 3.0623 11.087 3.2923 10.957L9.4523 7.327C9.6023 7.227 9.7823 7.167 9.9723 7.167C10.3023 7.167 10.6023 7.397 10.6023 7.917V11.307C10.6523 11.157 10.7723 11.037 10.9123 10.957L17.0823 7.327C17.2423 7.227 17.4423 7.167 17.6023 7.167C17.9223 7.167 18.2423 7.397 18.2423 7.917V15.127C18.2423 15.657 17.9223 15.887 17.6023 15.887C17.4423 15.887 17.2423 15.827 17.0823 15.727L10.9123 12.107C10.7723 12.007 10.6523 11.897 10.6023 11.757V15.127C10.6023 15.657 10.3023 15.887 9.9723 15.887C9.7823 15.887 9.6023 15.827 9.4523 15.727L3.2923 12.107C3.0623 11.967 2.9223 11.777 2.9223 11.517Z" />
        </svg>
    