
        <svg xmlns="http://www.w3.org/2000/svg" viewBox="0 0 100 100">
            <path d="M5.0517 20.6469C6.4417 20.6469 7.1017 19.9569 7.1017 18.5969V11.0069C7.3217 11.6869 7.8917 12.1869 8.6917 12.6569L21.7017 20.2269C22.2217 20.5269 22.7617 20.6769 23.2617 20.6769C24.4817 20.6769 25.5117 19.8269 25.5117 18.1969V10.8469C25.7017 11.6169 26.2817 12.1569 27.1517 12.6569L40.1617 20.2269C40.6717 20.5269 41.2117 20.6769 41.7217 20.6769C42.9417 20.6769 43.9717 19.8269 43.9717 18.1969V2.4769C43.9717 0.8469 42.9417 -0.0031 41.7217 -0.0031C41.2117 -0.0031 40.6717 0.1369 40.1617 0.4469L27.1517 8.0169C26.2817 8.5069 25.7017 9.0569 25.5117 9.8069V2.4769C25.5117 0.8469 24.4817 -0.0031 23.2617 -0.0031C22.7617 -0.0031 22.2217 0.1369 21.7017 0.4469L8.6917 8.0169C7.8917 8.4869 7.3217 8.9869 7.1017 9.6669V2.0669C7.1017 0.7069 6.4117 0.0069 5.0517 0.0069H2.0517C0.6917 0.0069 0.0017 0.7269 0.0017 2.0669V18.5969C0.0017 19.9569 0.6917 20.6469 2.0517 20.6469Z" />
        </svg>
    