
        <svg xmlns="http://www.w3.org/2000/svg" viewBox="0 0 100 100">
            <path d="M1.2917 18.5522C2.0117 18.5522 2.5617 18.0122 2.5617 17.3122V9.7422C2.7217 10.1922 3.1317 10.5622 3.8317 10.9722L16.3017 18.2322C16.6917 18.4422 17.0717 18.5522 17.4517 18.5522C18.3117 18.5522 19.0417 17.9622 19.0417 16.7322V1.8322C19.0417 0.6022 18.3117 0.0022 17.4517 0.0022C17.0717 0.0022 16.6917 0.1022 16.3017 0.3322L3.8317 7.5922C3.1317 8.0022 2.7217 8.3622 2.5617 8.8222V1.2522C2.5617 0.5422 2.0117 0.0022 1.2917 0.0022C0.5517 0.0022 0.0017 0.5422 0.0017 1.2522V17.3122C0.0017 18.0122 0.5517 18.5522 1.2917 18.5522ZM16.7617 15.4522C16.7617 15.6022 16.6617 15.6922 16.5317 15.6922C16.4917 15.6922 16.4417 15.6822 16.3917 15.6522L5.8117 9.4722C5.7217 9.4222 5.6817 9.3522 5.6817 9.2822C5.6817 9.2122 5.7217 9.1422 5.8117 9.0922L16.3917 2.9022C16.4417 2.8822 16.4917 2.8622 16.5317 2.8622C16.6617 2.8622 16.7617 2.9622 16.7617 3.1022Z" />
        </svg>
    