
        <svg xmlns="http://www.w3.org/2000/svg" viewBox="0 0 100 100">
            <path d="M7.0221 32.2036H14.3021C18.9021 32.2036 21.3521 29.7036 21.3121 25.0536C21.2721 20.2636 21.2621 16.7436 21.1221 14.1236C20.8521 7.8436 19.2621 4.8536 15.0721 3.8236C14.7821 1.4536 13.1221 0.0036 10.6421 0.0036C8.1721 0.0036 6.5021 1.4636 6.2121 3.8336C2.0421 4.8636 0.4721 7.8536 0.2021 14.1236C0.0721 16.7436 0.0521 20.2636 0.0021 25.0536C-0.0379 29.7036 2.4021 32.2036 7.0221 32.2036ZM10.6421 2.5436C11.3321 2.5436 11.8721 2.8636 12.1621 3.4236C11.6821 3.3936 11.1821 3.3836 10.6521 3.3836C10.1221 3.3836 9.6121 3.3936 9.1321 3.4236C9.4221 2.8636 9.9521 2.5436 10.6421 2.5436ZM4.6421 18.9136C4.6421 17.6336 5.5521 16.7036 6.8721 16.7036H14.4521C15.7721 16.7036 16.6721 17.6236 16.6721 18.9136V20.3836H4.6421ZM4.6421 22.7236H16.6721V24.7936C16.6721 26.0936 15.7721 27.0136 14.4521 27.0136H6.8721C5.5521 27.0136 4.6421 26.0736 4.6421 24.7936Z" />
        </svg>
    