
        <svg xmlns="http://www.w3.org/2000/svg" viewBox="0 0 100 100">
            <path d="M11.3523 22.7064C17.6323 22.7064 22.7123 17.6264 22.7123 11.3564C22.7123 5.0764 17.6323 -0.0036 11.3523 -0.0036C5.0823 -0.0036 0.0023 5.0764 0.0023 11.3564C0.0023 17.6264 5.0823 22.7064 11.3523 22.7064ZM11.3523 22.1364C5.3923 22.1364 0.5723 17.3164 0.5723 11.3564C0.5723 5.3864 5.3923 0.5764 11.3523 0.5764C17.3223 0.5764 22.1323 5.3864 22.1323 11.3564C22.1323 17.3164 17.3223 22.1364 11.3523 22.1364ZM9.8923 15.7264C10.1723 15.7264 10.4723 15.5064 10.4723 15.0264V11.5464C10.5223 11.6864 10.6123 11.7864 10.7623 11.8564L17.0423 15.5664C17.1723 15.6364 17.3623 15.7264 17.5123 15.7264C17.8023 15.7264 18.0923 15.5064 18.0923 15.0264V7.6964C18.0923 7.2164 17.8023 6.9964 17.5123 6.9964C17.3623 6.9964 17.1723 7.0864 17.0423 7.1564L10.7623 10.8664C10.6123 10.9364 10.5223 11.0364 10.4723 11.1664V7.6964C10.4723 7.2164 10.1723 6.9964 9.8923 6.9964C9.7223 6.9964 9.5523 7.0864 9.4223 7.1564L3.1323 10.8664C2.9523 10.9664 2.8223 11.1364 2.8223 11.3564C2.8223 11.5864 2.9523 11.7564 3.1323 11.8564L9.4223 15.5664C9.5523 15.6364 9.7223 15.7264 9.8923 15.7264Z" />
        </svg>
    