
        <svg xmlns="http://www.w3.org/2000/svg" viewBox="0 0 100 100">
            <path d="M18.5184 18.1969V11.0069C18.7384 11.6869 19.3084 12.1869 20.1084 12.6569L33.1284 20.2269C33.6484 20.5269 34.1684 20.6769 34.6884 20.6769C35.9084 20.6769 36.9384 19.8269 36.9384 18.1969V2.4769C36.9384 0.8469 35.9084 -0.0031 34.6884 -0.0031C34.1684 -0.0031 33.6484 0.1369 33.1284 0.4469L20.1084 8.0169C19.3084 8.4869 18.7384 8.9869 18.5184 9.6669V2.4769C18.5184 0.8469 17.4884 -0.0031 16.2684 -0.0031C15.7584 -0.0031 15.2184 0.1369 14.7084 0.4469L1.6984 8.0169C0.6484 8.6269 -0.0016 9.2969 -0.0016 10.3369C-0.0016 11.3769 0.6484 12.0469 1.6984 12.6569L14.7084 20.2269C15.2184 20.5269 15.7584 20.6769 16.2684 20.6769C17.4884 20.6769 18.5184 19.8269 18.5184 18.1969Z" />
        </svg>
    