
        <svg xmlns="http://www.w3.org/2000/svg" viewBox="0 0 100 100">
            <path d="M6.8021 31.5538H14.0421C18.5321 31.5538 20.8721 29.1838 20.8321 24.6338C20.7921 19.8638 20.7621 16.3738 20.6421 13.7738C20.3521 7.5538 18.8321 4.6537 14.6821 3.6638C14.4021 1.4337 12.7821 0.0038 10.4021 0.0038C8.0321 0.0038 6.4121 1.4337 6.1321 3.6638C2.0021 4.6638 0.4821 7.5738 0.2021 13.7738C0.0721 16.3738 0.0521 19.8638 0.0021 24.6338C-0.0379 29.1838 2.3121 31.5538 6.8021 31.5538ZM10.4021 2.3438C11.1721 2.3438 11.7421 2.6938 12.0521 3.2937C11.5321 3.2737 10.9921 3.2437 10.4221 3.2437C9.8421 3.2437 9.2921 3.2737 8.7621 3.2937C9.0721 2.6938 9.6521 2.3438 10.4021 2.3438ZM6.8021 28.4838C4.0121 28.4838 3.0321 27.4938 3.0621 24.6538C3.1021 19.8838 3.1321 16.4538 3.2621 13.9138C3.5321 7.5338 4.7021 6.3137 10.4221 6.3137C16.1421 6.3137 17.3121 7.5338 17.5821 13.9138C17.7121 16.4538 17.7321 19.8838 17.7821 24.6538C17.8021 27.4938 16.8321 28.4838 14.0421 28.4838ZM6.7121 26.3538H14.1221C15.3521 26.3538 16.1721 25.5338 16.1721 24.3138V18.5838C16.1721 17.3838 15.3521 16.5438 14.1221 16.5438H6.7121C5.4921 16.5438 4.6621 17.3938 4.6621 18.5838V24.3138C4.6621 25.5238 5.4921 26.3538 6.7121 26.3538ZM6.9421 19.1037C6.9421 18.9237 7.0521 18.8038 7.2321 18.8038H13.6021C13.7821 18.8038 13.9021 18.9237 13.9021 19.1037V19.9938H6.9421ZM7.2321 24.1038C7.0521 24.1038 6.9421 23.9838 6.9421 23.8138V22.0738H13.9021V23.8138C13.9021 23.9838 13.7821 24.1038 13.6021 24.1038Z" />
        </svg>
    