
        <svg xmlns="http://www.w3.org/2000/svg" viewBox="0 0 100 100">
            <path d="M12.2223 24.4419C18.9723 24.4419 24.4423 18.9719 24.4423 12.2219C24.4423 5.4819 18.9723 0.0019 12.2223 0.0019C5.4823 0.0019 0.0023 5.4819 0.0023 12.2219C0.0023 18.9719 5.4823 24.4419 12.2223 24.4419ZM10.4223 19.3919C8.3123 19.3919 7.2423 18.2919 7.2523 16.1619C7.2823 13.7919 7.3023 12.0719 7.3523 10.7819C7.4923 7.7619 8.2023 6.4019 10.2223 5.9519C10.3623 4.9619 11.1323 4.2919 12.2123 4.2919C13.3023 4.2919 14.0723 4.9619 14.2023 5.9519C16.2323 6.4019 16.9423 7.7619 17.0723 10.7819C17.1323 12.0719 17.1423 13.7919 17.1723 16.1619C17.1923 18.2919 16.1223 19.3919 14.0123 19.3919ZM11.3223 5.7919C11.6023 5.7819 11.8923 5.7619 12.2123 5.7619C12.5423 5.7619 12.8323 5.7819 13.1223 5.7919C12.9623 5.4819 12.6323 5.2719 12.2123 5.2719C11.8023 5.2719 11.4723 5.4819 11.3223 5.7919ZM9.3723 13.8319H15.0623V13.0819C15.0623 12.5519 14.7023 12.1919 14.1423 12.1919H10.2823C9.7223 12.1919 9.3723 12.5519 9.3723 13.0819ZM10.2823 16.9919H14.1423C14.7023 16.9919 15.0623 16.6219 15.0623 16.0819V14.6819H9.3723V16.0819C9.3723 16.6219 9.7223 16.9919 10.2823 16.9919Z" />
        </svg>
    