
        <svg xmlns="http://www.w3.org/2000/svg" viewBox="0 0 100 100">
            <path d="M15.9478 16.2741V9.3441C16.0778 9.7241 16.4378 10.0441 17.1078 10.4441L29.4278 17.6141C29.7678 17.8041 30.1078 17.9041 30.4478 17.9041C31.1978 17.9041 31.8378 17.3741 31.8378 16.2741V1.6141C31.8378 0.5141 31.1978 0.0041 30.4478 0.0041C30.1078 0.0041 29.7678 0.0941 29.4278 0.2941L17.1078 7.4641C16.4378 7.8541 16.0778 8.1641 15.9478 8.5641V1.6141C15.9478 0.5141 15.3178 0.0041 14.5578 0.0041C14.2278 0.0041 13.8778 0.0941 13.5378 0.2941L1.2278 7.4641C0.3378 7.9841 -0.0022 8.3641 -0.0022 8.9541C-0.0022 9.5341 0.3378 9.9241 1.2278 10.4441L13.5378 17.6141C13.8778 17.8041 14.2278 17.9041 14.5578 17.9041C15.3178 17.9041 15.9478 17.3741 15.9478 16.2741ZM29.9578 15.3541C29.9578 15.4841 29.8578 15.5841 29.7378 15.5841C29.6978 15.5841 29.6478 15.5641 29.5978 15.5341L18.6678 9.1241C18.5778 9.0841 18.5478 9.0141 18.5478 8.9541C18.5478 8.8841 18.5778 8.8241 18.6678 8.7741L29.5978 2.3641C29.6478 2.3341 29.6978 2.3241 29.7378 2.3241C29.8578 2.3241 29.9578 2.4141 29.9578 2.5541ZM14.0578 15.3541C14.0578 15.4841 13.9778 15.5841 13.8678 15.5841C13.8078 15.5841 13.7678 15.5641 13.7178 15.5341L2.7778 9.1241C2.6978 9.0841 2.6578 9.0141 2.6578 8.9541C2.6578 8.8841 2.6978 8.8241 2.7778 8.7741L13.7178 2.3641C13.7678 2.3341 13.8078 2.3241 13.8678 2.3241C13.9778 2.3241 14.0578 2.4141 14.0578 2.5541Z" />
        </svg>
    