
        <svg xmlns="http://www.w3.org/2000/svg" viewBox="0 0 100 100">
            <path d="M18.5122 18.1969V2.4769C18.5122 0.8469 17.4822 -0.0031 16.2622 -0.0031C15.7522 -0.0031 15.2122 0.1369 14.7022 0.4469L1.6922 8.0169C0.6422 8.6269 0.0022 9.2969 0.0022 10.3369C0.0022 11.3769 0.6422 12.0469 1.6922 12.6569L14.7022 20.2269C15.2122 20.5269 15.7522 20.6769 16.2622 20.6769C17.4822 20.6769 18.5122 19.8269 18.5122 18.1969ZM26.6322 20.6469C28.0322 20.6469 28.6922 19.9569 28.6922 18.5969V2.0669C28.6922 0.7069 27.9922 0.0069 26.6322 0.0069H23.6322C22.2822 0.0069 21.5822 0.7269 21.5822 2.0669V18.5969C21.5822 19.9569 22.2822 20.6469 23.6322 20.6469Z" />
        </svg>
    