
        <svg xmlns="http://www.w3.org/2000/svg" viewBox="0 0 100 100">
            <path d="M3.4617 23.0839H17.1817C19.2317 23.0839 20.4017 21.9139 20.4017 19.6639V7.3839C20.4017 5.1339 19.2317 3.9639 16.9417 3.9639H14.5817C14.3517 1.7139 12.5317 0.0039 10.1917 0.0039C7.8617 0.0039 6.0317 1.7139 5.8217 3.9639H3.4617C1.1717 3.9639 0.0017 5.1239 0.0017 7.3839V19.6639C0.0017 21.9239 1.1717 23.0839 3.4617 23.0839ZM10.1917 1.3839C11.7617 1.3839 12.9217 2.4539 13.1117 3.9639H7.2817C7.4717 2.4539 8.6417 1.3839 10.1917 1.3839ZM3.4817 21.6339C2.1717 21.6339 1.4517 20.9339 1.4517 19.5839V7.4639C1.4517 6.1039 2.1717 5.4139 3.4817 5.4139H16.9117C18.2117 5.4139 18.9517 6.1039 18.9517 7.4639V19.5839C18.9517 20.9339 18.2117 21.6339 17.1417 21.6339Z" />
        </svg>
    