
        <svg xmlns="http://www.w3.org/2000/svg" viewBox="0 0 100 100">
            <path d="M11.3523 22.7064C17.6323 22.7064 22.7123 17.6264 22.7123 11.3564C22.7123 5.0764 17.6323 -0.0036 11.3523 -0.0036C5.0823 -0.0036 0.0023 5.0764 0.0023 11.3564C0.0023 17.6264 5.0823 22.7064 11.3523 22.7064ZM11.3523 22.1364C5.3923 22.1364 0.5723 17.3164 0.5723 11.3564C0.5723 5.3864 5.3923 0.5764 11.3523 0.5764C17.3223 0.5764 22.1323 5.3864 22.1323 11.3564C22.1323 17.3164 17.3223 22.1364 11.3523 22.1364ZM7.6923 16.8264H15.0223C16.1023 16.8264 16.6623 16.2464 16.6623 15.1964V8.4164C16.6623 7.3664 16.1023 6.7864 15.0223 6.7864H13.6423C13.6323 5.7164 12.8123 4.6564 11.3523 4.6564C9.9023 4.6564 9.0923 5.7164 9.0723 6.7864H7.6923C6.6223 6.7864 6.0423 7.3364 6.0423 8.4164V15.1964C6.0423 16.2564 6.6223 16.8264 7.6923 16.8264ZM9.5823 6.7864C9.6023 5.7564 10.2623 5.1364 11.3523 5.1364C12.4523 5.1364 13.1123 5.7564 13.1223 6.7864Z" />
        </svg>
    