
        <svg xmlns="http://www.w3.org/2000/svg" viewBox="0 0 100 100">
            <path d="M15.1723 5.9423C17.2523 5.9423 19.1623 6.6223 20.7023 7.7823C21.0623 8.0423 21.5023 8.0123 21.8223 7.6923L24.7823 4.7123C25.1823 4.3223 25.1723 3.7423 24.7423 3.4023C22.1223 1.2723 18.7923 0.0023 15.1723 0.0023C11.5523 0.0023 8.2223 1.2723 5.6223 3.4023C5.1923 3.7423 5.1723 4.3223 5.5623 4.7123L8.5323 7.6923C8.8523 8.0123 9.3123 8.0423 9.6823 7.7723C11.2123 6.6223 13.1223 5.9423 15.1723 5.9423ZM30.3523 15.1723C30.3523 11.5423 29.0723 8.1923 26.9223 5.5623C26.6023 5.1823 26.0423 5.1823 25.6423 5.5623L22.6623 8.5323C22.3223 8.8723 22.3223 9.3123 22.5923 9.6823C23.7323 11.2223 24.4123 13.1223 24.4123 15.1723C24.4123 17.3323 23.6823 19.3223 22.4223 20.9023C22.1323 21.2823 22.1323 21.7423 22.4623 22.0623L25.4423 25.0423C25.8123 25.4223 26.3823 25.4223 26.7423 25.0123C28.9923 22.3623 30.3523 18.9423 30.3523 15.1723ZM0.0023 15.1723C0.0023 18.9523 1.3823 22.4023 3.6523 25.0523C3.9823 25.4423 4.5323 25.4223 4.9223 25.0423L7.8823 22.0623C8.2123 21.7423 8.2223 21.2823 7.9323 20.9023C6.6823 19.3223 5.9423 17.3323 5.9423 15.1723C5.9423 13.1223 6.6223 11.2223 7.7623 9.6823C8.0323 9.3123 8.0323 8.8723 7.6923 8.5323L4.7123 5.5623C4.3223 5.1823 3.7423 5.1923 3.3823 5.6223C1.2623 8.2223 0.0023 11.5523 0.0023 15.1723ZM12.4723 19.8523H14.6023V20.7523C14.6023 20.9423 14.7223 21.0423 14.9023 21.0423C15.0923 21.0423 15.2023 20.9423 15.2023 20.7523V19.8523H15.9523C17.8923 19.8523 19.4023 18.8423 19.4023 17.0123C19.4023 15.6923 18.3323 14.7323 16.9823 14.6723V14.6223C18.1123 14.4823 18.9623 13.6023 18.9623 12.5023C18.9623 10.7423 17.4223 10.0523 15.7923 10.0523H15.2023V9.1323C15.2023 8.9423 15.0923 8.8223 14.9023 8.8223C14.7223 8.8223 14.6023 8.9423 14.6023 9.1323V10.0523H12.4723C11.5523 10.0523 11.0723 10.6123 11.0723 11.5123V18.4123C11.0723 19.3023 11.5523 19.8523 12.4723 19.8523ZM13.7623 14.0023V11.9623H14.6023V14.0023ZM16.3823 12.9723C16.3823 13.6423 15.8523 13.9723 15.2023 13.9923V11.9623C15.8523 11.9623 16.3823 12.2923 16.3823 12.9723ZM13.7623 17.9523V15.6123H14.6023V17.9523ZM15.2223 15.6123C16.0423 15.6123 16.6023 15.9423 16.6023 16.7623C16.6023 17.6123 16.0923 17.9523 15.2123 17.9523H15.2023V15.6123Z" />
        </svg>
    