
        <svg xmlns="http://www.w3.org/2000/svg" viewBox="0 0 100 100">
            <path d="M4.5917 23.2359H18.6417C21.5417 23.2359 23.2417 21.5459 23.2417 18.6459V4.5959C23.2417 1.6959 21.5417 -0.0041 18.6417 -0.0041H4.5917C1.7017 -0.0041 0.0017 1.6959 0.0017 4.5959V18.6459C0.0017 21.5459 1.7017 23.2359 4.5917 23.2359ZM5.2217 19.0759C4.5117 19.0759 4.1617 18.7859 4.1617 18.0159V5.2359C4.1617 4.4659 4.5117 4.1759 5.2217 4.1759H18.0117C18.7217 4.1759 19.0817 4.4659 19.0817 5.2359V18.0159C19.0817 18.7859 18.7217 19.0759 18.0117 19.0759ZM8.9217 16.4759H11.0517V17.3659C11.0517 17.5559 11.1717 17.6759 11.3517 17.6759C11.5417 17.6759 11.6517 17.5559 11.6517 17.3659V16.4759H12.4017C14.3417 16.4759 15.8517 15.4659 15.8517 13.6359C15.8517 12.3159 14.7817 11.3559 13.4317 11.2959V11.2459C14.5617 11.1059 15.4117 10.2259 15.4117 9.1259C15.4117 7.3759 13.8717 6.6759 12.2417 6.6759H11.6517V5.7459C11.6517 5.5559 11.5417 5.4459 11.3517 5.4459C11.1717 5.4459 11.0517 5.5559 11.0517 5.7459V6.6759H8.9217C8.0017 6.6759 7.5217 7.2459 7.5217 8.1359V15.0259C7.5217 15.9259 8.0017 16.4759 8.9217 16.4759ZM10.2117 10.6159V8.5859H11.0517V10.6159ZM12.8317 9.5959C12.8317 10.2659 12.3017 10.5959 11.6517 10.6159V8.5859C12.3017 8.5859 12.8317 8.9059 12.8317 9.5959ZM10.2117 14.5759V12.2359H11.0517V14.5759ZM11.6717 12.2359C12.4917 12.2359 13.0517 12.5659 13.0517 13.3859C13.0517 14.2359 12.5417 14.5759 11.6617 14.5759H11.6517V12.2359Z" />
        </svg>
    