
        <svg xmlns="http://www.w3.org/2000/svg" viewBox="0 0 100 100">
            <path d="M3.1617 20.742H17.5917C19.6617 20.742 20.7417 19.642 20.7417 17.592V3.152C20.7417 1.102 19.6617 0.002 17.5917 0.002H3.1617C1.0917 0.002 0.0017 1.082 0.0017 3.152V17.592C0.0017 19.662 1.0917 20.742 3.1617 20.742ZM8.0617 15.302C7.7417 15.302 7.5517 15.102 7.5517 14.792V5.952C7.5517 5.622 7.7417 5.412 8.0617 5.412H10.1117V4.292C10.1117 4.112 10.2217 4.012 10.3817 4.012C10.5317 4.012 10.6417 4.112 10.6417 4.292V5.412H10.9117C12.4717 5.412 13.8017 6.262 13.8017 7.842C13.8017 8.952 12.9817 9.942 11.9017 10.082V10.172C13.2317 10.312 14.3317 11.192 14.3317 12.632C14.3317 14.452 12.8117 15.302 10.9417 15.302H10.6417V16.442C10.6417 16.622 10.5317 16.722 10.3817 16.722C10.2217 16.722 10.1117 16.622 10.1117 16.442V15.302ZM8.3417 9.872H10.1117V6.122H8.3417ZM10.6417 9.852C11.9917 9.832 13.0117 9.222 13.0117 7.922C13.0117 6.682 12.0217 6.132 10.6417 6.122ZM8.3417 14.612H10.1117V10.562H8.3417ZM10.6417 14.612H10.8617C12.3317 14.612 13.5217 14.042 13.5217 12.602C13.5217 11.122 12.2217 10.562 10.7417 10.562H10.6417Z" />
        </svg>
    