
        <svg xmlns="http://www.w3.org/2000/svg" viewBox="0 0 100 100">
            <path d="M11.3523 22.7064C17.6323 22.7064 22.7123 17.6264 22.7123 11.3564C22.7123 5.0764 17.6323 -0.0036 11.3523 -0.0036C5.0823 -0.0036 0.0023 5.0764 0.0023 11.3564C0.0023 17.6264 5.0823 22.7064 11.3523 22.7064ZM11.3523 22.1364C5.3923 22.1364 0.5723 17.3164 0.5723 11.3564C0.5723 5.3864 5.3923 0.5764 11.3523 0.5764C17.3223 0.5764 22.1323 5.3864 22.1323 11.3564C22.1323 17.3164 17.3223 22.1364 11.3523 22.1364ZM9.0723 16.1864H11.1323V17.3664C11.1323 17.5064 11.2223 17.6064 11.3523 17.6064C11.4923 17.6064 11.5823 17.5064 11.5823 17.3664V16.1864H11.9323C13.7323 16.1864 15.2223 15.3364 15.2223 13.5964C15.2223 12.1664 14.1023 11.3064 12.8223 11.1864V11.0864C13.8723 10.9564 14.7023 9.9964 14.7023 8.8664C14.7023 7.3664 13.4223 6.5264 11.8823 6.5264H11.5823V5.3764C11.5823 5.2264 11.4923 5.1464 11.3523 5.1464C11.2223 5.1464 11.1323 5.2264 11.1323 5.3764V6.5264H9.0723C8.8223 6.5264 8.6623 6.6864 8.6623 6.9564V15.7764C8.6623 16.0164 8.8223 16.1864 9.0723 16.1864ZM9.2723 10.9264V7.0864H11.1323V10.9264ZM11.7523 7.0864C13.0423 7.0864 14.0723 7.6564 14.0723 8.9264C14.0723 10.2864 13.0123 10.9264 11.5823 10.9264V7.0864ZM9.2723 15.6164V11.4864H11.1323V15.6164ZM11.7023 11.4864C13.2323 11.4864 14.6023 12.0564 14.6023 13.5664C14.6023 15.0364 13.3523 15.6164 11.8323 15.6164H11.5823V11.4864Z" />
        </svg>
    