
        <svg xmlns="http://www.w3.org/2000/svg" viewBox="0 0 100 100">
            <path d="M1.4717 23.7311H5.3417V25.6311C5.3417 26.1011 5.6617 26.4011 6.1317 26.4011C6.5817 26.4011 6.8817 26.1011 6.8817 25.6311V23.7311H7.2117C11.3017 23.7311 14.3117 21.8211 14.3117 17.9611C14.3117 15.2611 12.5017 13.1711 9.4617 12.8011V12.6911C11.7117 12.2911 13.2317 10.2211 13.2317 8.0511C13.2317 4.7311 10.5517 2.8811 7.1817 2.8811H6.8817V0.7811C6.8817 0.3211 6.5817 0.0011 6.1317 0.0011C5.6617 0.0011 5.3417 0.3211 5.3417 0.7811V2.8811H1.4717C0.6717 2.8811 0.0017 3.3411 0.0017 4.3711V22.2411C0.0017 23.2011 0.6217 23.7311 1.4717 23.7311ZM2.3017 4.8911H5.3417V11.9811H2.3017ZM10.9217 8.3011C10.9217 10.6411 9.2017 11.7311 6.8817 11.9411V4.9011C9.2117 4.9611 10.9217 6.0111 10.9217 8.3011ZM2.3017 21.7311V13.9811H5.3417V21.7311ZM11.9617 17.8511C11.9617 20.5811 9.7717 21.7111 6.8817 21.7311V13.9811C9.7717 14.0611 11.9617 15.1411 11.9617 17.8511Z" />
        </svg>
    