
        <svg xmlns="http://www.w3.org/2000/svg" viewBox="0 0 100 100">
            <path d="M0.0023 15.1128C0.0023 18.8628 1.3523 22.2828 3.6023 24.9328C3.9523 25.3328 4.5223 25.3428 4.9123 24.9528L7.8723 21.9628C8.2023 21.6428 8.2023 21.1828 7.9223 20.8028C6.6823 19.2428 5.9423 17.2528 5.9423 15.1128C5.9423 10.4728 9.3623 6.6428 13.8023 5.9728C14.2623 5.9028 14.5823 5.5728 14.5823 5.1128V0.9128C14.5823 0.3528 14.1523 -0.0572 13.6023 0.0028C5.9723 0.8028 0.0023 7.2628 0.0023 15.1128ZM30.3523 15.1128C30.3523 7.2628 24.3823 0.8028 16.7423 0.0028C16.1923 -0.0572 15.7723 0.3528 15.7723 0.9128V5.1128C15.7723 5.5728 16.1023 5.9028 16.5423 5.9728C21.0023 6.6428 24.4123 10.4728 24.4123 15.1128C24.4123 17.2528 23.6823 19.2428 22.4223 20.8228C22.1323 21.1928 22.1323 21.6528 22.4623 21.9828L25.4423 24.9628C25.8123 25.3628 26.3923 25.3428 26.7423 24.9428C29.0023 22.2828 30.3523 18.8628 30.3523 15.1128ZM12.4723 19.8228H14.6023V20.7228C14.6023 20.9128 14.7223 21.0128 14.9023 21.0128C15.0923 21.0128 15.2023 20.9128 15.2023 20.7228V19.8228H15.9523C17.8923 19.8228 19.4023 18.8128 19.4023 16.9828C19.4023 15.6628 18.3323 14.7028 16.9823 14.6428V14.5928C18.1123 14.4528 18.9623 13.5728 18.9623 12.4728C18.9623 10.7128 17.4223 10.0228 15.7923 10.0228H15.2023V9.1028C15.2023 8.9128 15.0923 8.7928 14.9023 8.7928C14.7223 8.7928 14.6023 8.9128 14.6023 9.1028V10.0228H12.4723C11.5523 10.0228 11.0723 10.5828 11.0723 11.4828V18.3828C11.0723 19.2728 11.5523 19.8228 12.4723 19.8228ZM13.7623 13.9728V11.9328H14.6023V13.9728ZM16.3823 12.9428C16.3823 13.6128 15.8523 13.9428 15.2023 13.9628V11.9328C15.8523 11.9328 16.3823 12.2628 16.3823 12.9428ZM13.7623 17.9228V15.5828H14.6023V17.9228ZM15.2223 15.5828C16.0423 15.5828 16.6023 15.9128 16.6023 16.7328C16.6023 17.5828 16.0923 17.9228 15.2123 17.9228H15.2023V15.5828Z" />
        </svg>
    