
        <svg xmlns="http://www.w3.org/2000/svg" viewBox="0 0 100 100">
            <path d="M12.6023 25.1986C19.5623 25.1986 25.2023 19.5586 25.2023 12.5986C25.2023 5.6386 19.5623 -0.0014 12.6023 -0.0014C5.6523 -0.0014 0.0023 5.6386 0.0023 12.5986C0.0023 19.5586 5.6523 25.1986 12.6023 25.1986ZM9.7923 17.8586C8.9223 17.8586 8.4423 17.3186 8.4423 16.4486V8.6686C8.4423 7.8086 8.9223 7.2686 9.7923 7.2686H12.0323V6.2486C12.0323 6.0386 12.1523 5.8986 12.3623 5.8986C12.5723 5.8986 12.7123 6.0386 12.7123 6.2486V7.2686H13.2423C14.9623 7.2686 16.6023 8.0286 16.6023 9.8986C16.6023 11.0786 15.7023 12.0586 14.5123 12.1986V12.2686C15.9623 12.3486 17.0823 13.3686 17.0823 14.8086C17.0823 16.8086 15.4523 17.8586 13.3723 17.8586H12.7123V18.8186C12.7123 19.0286 12.5823 19.1586 12.3623 19.1586C12.1523 19.1586 12.0323 19.0286 12.0323 18.8186V17.8586ZM10.9823 11.5986H12.0323V9.1086H10.9823ZM12.7123 11.5886C13.5023 11.5286 14.1323 11.1486 14.1323 10.3286C14.1323 9.5286 13.5323 9.1386 12.7123 9.1086ZM10.9823 16.0086H12.0323V13.1986H10.9823ZM12.7123 16.0086H12.7623C13.7823 16.0086 14.4423 15.5986 14.4423 14.5886C14.4423 13.5986 13.7323 13.2086 12.7623 13.2086H12.7123Z" />
        </svg>
    