
        <svg xmlns="http://www.w3.org/2000/svg" viewBox="0 0 100 100">
            <path d="M1.5129 21.4503C3.7829 23.7403 7.3429 23.3403 9.7629 20.9003L12.9229 17.7303L17.7129 12.9303L20.8929 9.7703C23.3329 7.3503 23.6829 3.8003 21.4129 1.5203C19.1329 -0.7697 15.5929 -0.3797 13.1729 2.0603L10.0029 5.2303L5.2229 10.0303L2.0329 13.1903C-0.3871 15.6003 -0.7471 19.1703 1.5129 21.4503ZM17.7329 9.8403L13.1029 5.2203C12.5929 4.7103 12.1129 4.4403 11.6229 4.4103L13.5929 2.4403C15.7929 0.2303 18.8329 -0.1897 21.0229 1.9303C23.2129 4.0403 22.7129 7.1503 20.5029 9.3603L18.5329 11.3403C18.5129 10.8503 18.2429 10.3503 17.7329 9.8403ZM12.6229 5.5303L17.4329 10.3403C18.2429 11.1503 18.1629 11.7103 17.2929 12.5903H17.2829L12.5729 17.2803H12.5629C11.6929 18.1503 11.1429 18.2503 10.3129 17.4303L5.5129 12.6303C4.6829 11.8103 4.7829 11.2303 5.6429 10.3703L10.3729 5.6803C11.2329 4.8003 11.8129 4.7203 12.6229 5.5303ZM11.4729 9.8303C11.9029 9.8303 12.2329 9.4903 12.2429 9.0603C12.2529 8.6503 11.9029 8.2903 11.4729 8.2903C11.0529 8.2903 10.7129 8.6503 10.7129 9.0903C10.7129 9.4803 11.0729 9.8303 11.4729 9.8303ZM9.0929 12.2503C9.4929 12.2503 9.8429 11.8803 9.8429 11.4903C9.8429 11.0603 9.4929 10.7103 9.0929 10.7103C8.6429 10.7103 8.3229 11.0603 8.3229 11.4803C8.3229 11.8903 8.6229 12.2503 9.0929 12.2503ZM13.8629 12.2403C14.2929 12.2403 14.6329 11.8803 14.6329 11.4703C14.6329 11.0503 14.2929 10.7103 13.8629 10.7103C13.4629 10.7103 13.1029 11.0603 13.1029 11.4403C13.1029 11.8803 13.4529 12.2403 13.8629 12.2403ZM1.9229 21.0303C-0.2671 18.9103 0.2229 15.8003 2.4229 13.6003L4.4129 11.6103C4.4329 12.1103 4.6929 12.6003 5.2029 13.1203L9.8329 17.7403C10.3429 18.2503 10.8229 18.5203 11.3229 18.5303L9.3529 20.5103C7.1329 22.7203 4.1129 23.1403 1.9229 21.0303ZM11.4829 14.6403C11.8829 14.6403 12.2429 14.2903 12.2429 13.8603C12.2429 13.4703 11.8829 13.1003 11.4829 13.1003C11.0229 13.1003 10.7129 13.4603 10.7129 13.8703C10.7129 14.2903 11.0329 14.6403 11.4829 14.6403Z" />
        </svg>
    