
        <svg xmlns="http://www.w3.org/2000/svg" viewBox="0 0 100 100">
            <path d="M1.7134 22.1544C4.1234 24.5744 7.6634 24.4244 10.2734 21.8044L13.7134 18.3544L18.3534 13.7144L21.8034 10.2744C24.4234 7.6544 24.5534 4.1344 22.1434 1.7144C19.7334 -0.6956 16.2034 -0.5556 13.5934 2.0644L10.1434 5.5144L5.5134 10.1444L2.0634 13.5944C-0.5566 16.2044 -0.6966 19.7344 1.7134 22.1544ZM18.3634 9.9444L13.9134 5.5044C13.5834 5.1744 13.2534 4.9344 12.9334 4.7644L14.6134 3.0944C16.6034 1.1044 19.2634 0.7844 21.1834 2.6744C23.1234 4.5644 22.7634 7.2644 20.7734 9.2444L19.1034 10.9344C18.9334 10.6044 18.6934 10.2844 18.3634 9.9444ZM13.0334 6.5444L17.3234 10.8344C18.0334 11.5544 17.9634 12.0844 17.2034 12.8344L12.8234 17.1944C12.0734 17.9544 11.5534 18.0344 10.8434 17.3044L6.5534 13.0344C5.8334 12.3044 5.9034 11.7844 6.6634 11.0344L11.0334 6.6644C11.7834 5.9044 12.3134 5.8344 13.0334 6.5444ZM11.9334 10.5144C12.4534 10.5144 12.8434 10.1044 12.8534 9.5944C12.8634 9.0944 12.4434 8.6744 11.9334 8.6744C11.4234 8.6744 11.0234 9.0944 11.0234 9.6244C11.0234 10.0744 11.4434 10.5144 11.9334 10.5144ZM9.6334 12.8444C10.1234 12.8444 10.5334 12.4044 10.5334 11.9444C10.5334 11.4244 10.1234 11.0044 9.6234 11.0044C9.0934 11.0044 8.6934 11.4244 8.6934 11.9244C8.6934 12.4344 9.0934 12.8444 9.6334 12.8444ZM14.2534 12.8444C14.7634 12.8444 15.1734 12.4244 15.1634 11.9144C15.1634 11.4244 14.7634 11.0044 14.2334 11.0044C13.7534 11.0044 13.3334 11.4344 13.3334 11.9044C13.3334 12.4244 13.7434 12.8444 14.2534 12.8444ZM2.6734 21.1844C0.7534 19.2944 1.1034 16.6044 3.0934 14.6144L4.7634 12.9244C4.9334 13.2544 5.1834 13.5844 5.5034 13.9044L9.9634 18.3644C10.2834 18.6944 10.6034 18.9344 10.9334 19.0844L9.2534 20.7744C7.2634 22.7544 4.6034 23.0844 2.6734 21.1844ZM11.9434 15.1744C12.4334 15.1744 12.8534 14.7544 12.8534 14.2344C12.8534 13.7644 12.4334 13.3344 11.9534 13.3344C11.4034 13.3344 11.0134 13.7544 11.0134 14.2444C11.0134 14.7544 11.4134 15.1744 11.9434 15.1744Z" />
        </svg>
    