
        <svg xmlns="http://www.w3.org/2000/svg" viewBox="0 0 100 100">
            <path d="M21.2347 13.4627L23.2047 11.3227C25.9647 8.3027 25.9247 4.6527 23.2947 1.9927C20.6847 -0.6673 16.9947 -0.6973 13.9647 2.0927L11.8347 4.0527C13.2847 3.4627 14.5647 4.1227 15.7647 5.3227L20.0147 9.5727C21.2247 10.7827 21.8247 12.0027 21.2347 13.4627ZM10.9647 18.5227C12.2347 19.7927 13.4447 19.8127 14.7347 18.5227L18.4947 14.7627C19.8047 13.4527 19.7847 12.2527 18.5147 10.9927L14.2947 6.7727C13.0347 5.5227 11.8347 5.4827 10.5347 6.7927L6.7647 10.5527C5.4747 11.8427 5.5047 13.0527 6.7647 14.3227ZM11.7747 10.8827C11.2847 10.3927 11.2847 9.6227 11.7647 9.1527C12.2547 8.6627 13.0147 8.6627 13.5147 9.1527C13.9847 9.6227 14.0047 10.3827 13.4847 10.8827C13.0147 11.3427 12.2447 11.3527 11.7747 10.8827ZM9.1147 13.5227C8.6247 13.0327 8.6247 12.2827 9.1147 11.7827C9.5947 11.2927 10.3747 11.3027 10.8647 11.8127C11.3047 12.2727 11.3347 13.0327 10.8647 13.5127C10.3447 14.0227 9.5947 14.0027 9.1147 13.5227ZM16.1447 13.5227C15.6647 14.0027 14.8947 14.0027 14.4047 13.5127C13.9447 13.0527 13.9447 12.2527 14.4047 11.8127C14.9147 11.3027 15.6647 11.3027 16.1447 11.7827C16.6247 12.2727 16.6247 13.0327 16.1447 13.5227ZM1.9647 23.3227C4.5947 25.9827 8.2847 26.0027 11.3047 23.2127L13.4347 21.2427C11.9747 21.8427 10.7247 21.1827 9.5247 19.9927L5.2647 15.7327C4.0547 14.5327 3.4547 13.3127 4.0447 11.8427L2.0747 13.9827C-0.7053 16.9927 -0.6453 20.6627 1.9647 23.3227ZM11.7647 16.1727C11.2847 15.6927 11.2647 14.9427 11.7747 14.4227C12.2547 13.9527 13.0347 13.9627 13.4847 14.4227C13.9647 14.9327 14.0047 15.6927 13.5147 16.1727C13.0047 16.6627 12.2547 16.6627 11.7647 16.1727Z" />
        </svg>
    