
        <svg xmlns="http://www.w3.org/2000/svg" viewBox="0 0 100 100">
            <path d="M0.0017 17.1955C0.0017 17.5755 0.2317 17.8055 0.6117 17.8055H28.2217C28.6017 17.8055 28.8417 17.5755 28.8417 17.1955V0.6055C28.8417 0.2355 28.6017 -0.0045 28.2217 -0.0045H0.6117C0.2317 -0.0045 0.0017 0.2355 0.0017 0.6055ZM1.8717 15.4955V2.3155C1.8717 2.0255 2.0317 1.8755 2.3117 1.8755H26.5217C26.8017 1.8755 26.9617 2.0255 26.9617 2.3155V15.4955C26.9617 15.7755 26.8017 15.9355 26.5217 15.9355H2.3117C2.0317 15.9355 1.8717 15.7755 1.8717 15.4955ZM2.6017 15.0355C2.6017 15.1555 2.6617 15.2155 2.7817 15.2155H12.3417C10.8317 14.1555 9.9117 11.8755 9.9117 8.8955C9.9117 5.9155 10.8117 3.6555 12.3117 2.6055H2.7817C2.6617 2.6055 2.6017 2.6555 2.6017 2.7755ZM16.5117 15.2155H26.0617C26.1817 15.2155 26.2417 15.1555 26.2417 15.0355V2.7755C26.2417 2.6555 26.1817 2.6055 26.0617 2.6055H16.5217C18.0117 3.6555 18.9217 5.9155 18.9217 8.8955C18.9217 11.8755 18.0117 14.1555 16.5117 15.2155ZM10.6717 8.8955C10.6717 12.6255 12.1717 15.1255 14.4117 15.1255C16.6617 15.1255 18.1517 12.6255 18.1517 8.8955C18.1517 5.1555 16.6617 2.6755 14.4117 2.6755C12.1717 2.6755 10.6717 5.1555 10.6717 8.8955Z" />
        </svg>
    