
        <svg xmlns="http://www.w3.org/2000/svg" viewBox="0 0 100 100">
            <path d="M12.1023 24.2064C18.7823 24.2064 24.2123 18.7864 24.2123 12.1064C24.2123 5.4264 18.7823 -0.0036 12.1023 -0.0036C5.4223 -0.0036 0.0023 5.4264 0.0023 12.1064C0.0023 18.7864 5.4223 24.2064 12.1023 24.2064ZM12.1123 18.5364C11.8223 18.5364 11.5523 18.5264 11.2723 18.4764C11.4223 17.9964 11.5323 17.4864 11.5923 16.9764H11.8723C12.1123 16.9964 12.2923 16.7764 12.3023 16.5464C12.3023 16.3264 12.1323 16.1164 11.8823 16.1064H11.6123C11.6023 15.7764 11.5623 15.4364 11.5123 15.1064L11.7623 15.0364C11.9923 14.9764 12.1323 14.7264 12.0723 14.4864C12.0023 14.2764 11.7623 14.1364 11.5423 14.1764L11.2923 14.2664C11.1923 13.9364 11.0723 13.6064 10.9123 13.2864L11.1723 13.1464C11.3923 13.0164 11.4523 12.7464 11.3223 12.5464C11.2023 12.3364 10.9523 12.2564 10.7423 12.3864L10.4723 12.5264C10.2623 12.2264 10.0323 11.9364 9.7823 11.6864L10.0223 11.4364C10.1923 11.2764 10.1823 11.0164 10.0123 10.8564C9.8123 10.6764 9.5723 10.6764 9.4123 10.8364L9.1623 11.0664C8.9323 10.8764 8.6723 10.6864 8.3923 10.5264L8.5223 10.3164C8.6323 10.1064 8.5523 9.8364 8.3423 9.7264C8.1323 9.6064 7.8823 9.6664 7.7623 9.8864L7.6423 10.1064C7.1723 9.8764 6.7023 9.7264 6.2023 9.6064C7.1823 7.3164 9.4823 5.6764 12.1023 5.6764C12.3723 5.6764 12.6323 5.6864 12.9023 5.7164C12.7623 6.2264 12.6423 6.7264 12.6023 7.2464L12.3623 7.2264C12.1023 7.2264 11.9223 7.4264 11.9023 7.6664C11.9023 7.8964 12.0823 8.1064 12.3323 8.1064L12.5823 8.1164C12.5823 8.4264 12.6223 8.7464 12.6923 9.0564L12.3523 9.1364C12.1023 9.1964 12.0023 9.4464 12.0623 9.6664C12.1123 9.8864 12.3323 10.0464 12.5623 9.9764L12.8823 9.8864C12.9823 10.2264 13.1223 10.5664 13.2923 10.9064L13.0323 11.0464C12.8323 11.1564 12.7723 11.4164 12.8823 11.6364C12.9923 11.8364 13.2523 11.9164 13.4623 11.7964L13.7123 11.6464C13.9123 11.9364 14.1223 12.2264 14.3623 12.4964L14.1823 12.6664C14.0123 12.8364 14.0423 13.1064 14.2123 13.2664C14.3823 13.4164 14.6523 13.4364 14.8123 13.2664L15.0023 13.0864C15.2623 13.2964 15.5423 13.5164 15.8223 13.6764L15.6923 13.8964C15.5723 14.1164 15.6423 14.3764 15.8523 14.4964C16.0623 14.6264 16.3323 14.5264 16.4423 14.3164L16.5823 14.0864C17.0423 14.3064 17.5323 14.4564 18.0423 14.5764C17.0623 16.8964 14.7523 18.5364 12.1123 18.5364ZM18.5523 12.1064C18.5523 12.7164 18.4823 13.2764 18.3023 13.8264C17.8523 13.7364 17.3923 13.5964 16.9523 13.3964L17.0723 13.1864C17.1923 12.9764 17.1223 12.7264 16.9123 12.5964C16.7123 12.4764 16.4423 12.5764 16.3223 12.7864L16.2223 12.9864C15.9823 12.8464 15.7723 12.6764 15.5723 12.5064L15.7423 12.3364C15.9123 12.1564 15.8823 11.8864 15.7423 11.7264C15.5523 11.5664 15.3023 11.5264 15.1123 11.7464L14.9523 11.8964C14.7823 11.6964 14.6023 11.4564 14.4423 11.2364L14.6023 11.1464C14.8023 11.0264 14.8723 10.7964 14.7523 10.5664C14.6523 10.3564 14.3823 10.2764 14.1723 10.3964L14.0123 10.4864C13.8823 10.2164 13.7823 9.9464 13.6723 9.6864L13.8423 9.6364C14.0623 9.5764 14.2023 9.3564 14.1323 9.1264C14.0623 8.8864 13.8523 8.7464 13.6023 8.8164L13.4723 8.8364C13.4423 8.6064 13.4023 8.3664 13.3923 8.1364H13.6423C13.8823 8.1464 14.0623 7.9464 14.0623 7.6964C14.0623 7.4664 13.8823 7.2664 13.6523 7.2564H13.3923C13.4523 6.7864 13.5423 6.3264 13.6923 5.8664C16.4523 6.5964 18.5523 9.1364 18.5523 12.1064ZM5.6823 12.1064C5.6823 11.5064 5.7623 10.9264 5.9323 10.3564C6.3823 10.4664 6.8223 10.6064 7.2423 10.8164L7.1323 11.0264C7.0123 11.2464 7.0923 11.5164 7.3023 11.6264C7.5123 11.7264 7.7623 11.6764 7.8823 11.4464L8.0023 11.2364C8.2023 11.3564 8.4023 11.5064 8.5923 11.6564L8.4723 11.7664C8.3123 11.9264 8.3223 12.2064 8.4823 12.3764C8.6723 12.5364 8.9223 12.5364 9.0923 12.3764L9.2023 12.2664C9.4123 12.4664 9.5723 12.7164 9.7523 12.9364L9.6023 13.0264C9.3823 13.1464 9.3123 13.4264 9.4423 13.6164C9.5623 13.8364 9.8123 13.8964 10.0223 13.7964L10.1723 13.6864C10.3023 13.9464 10.4023 14.2064 10.5023 14.4564L10.2823 14.5064C10.0523 14.5764 9.9123 14.8264 9.9723 15.0564C10.0323 15.2764 10.2623 15.4264 10.5023 15.3664L10.7123 15.3064C10.7623 15.5764 10.7823 15.8364 10.7923 16.0864L10.5823 16.0764C10.3323 16.0664 10.1523 16.2864 10.1523 16.5164C10.1523 16.7464 10.3223 16.9564 10.5723 16.9564L10.7823 16.9664C10.7323 17.4264 10.6523 17.8864 10.5023 18.3264C7.7623 17.5864 5.6823 15.0564 5.6823 12.1064Z" />
        </svg>
    