
        <svg xmlns="http://www.w3.org/2000/svg" viewBox="0 0 100 100">
            <path d="M11.3403 7.0346L16.2203 10.4346C17.0603 11.0246 18.2303 10.9946 19.1203 10.3846L23.9203 7.0346C25.1103 6.2046 25.1403 4.6846 23.9203 3.8246L19.0603 0.4346C18.2003 -0.1454 17.0803 -0.1454 16.2203 0.4346L11.3403 3.8246C10.1203 4.6746 10.1603 6.2046 11.3403 7.0346ZM21.8003 14.9846L26.6003 18.3346C27.4803 18.9446 28.6403 18.9746 29.4903 18.3846L34.3703 14.9846C35.5803 14.1346 35.5803 12.6246 34.3703 11.7946L29.4903 8.3946C28.6403 7.7946 27.5103 7.7946 26.6703 8.3946L21.8003 11.7946C20.5803 12.6246 20.6103 14.1646 21.8003 14.9846ZM0.9003 14.9846L5.7803 18.3846C6.6203 18.9646 7.7903 18.9646 8.6803 18.3346L13.4903 14.9846C14.6703 14.1646 14.6903 12.6246 13.4903 11.7946L8.6103 8.3946C7.7603 7.7946 6.6203 7.7946 5.7803 8.3946L0.9003 11.7946C-0.3097 12.6246 -0.2897 14.1346 0.9003 14.9846ZM6.0703 27.6746C7.9203 27.6746 9.4203 26.1746 9.4203 24.3246C9.4203 22.4746 7.9203 20.9546 6.0703 20.9546C4.2203 20.9546 2.7203 22.4746 2.7203 24.3246C2.7203 26.1746 4.2203 27.6746 6.0703 27.6746ZM17.6403 27.6746C19.4703 27.6746 21.0003 26.1746 21.0003 24.3246C21.0003 22.4746 19.4703 20.9546 17.6403 20.9546C15.7803 20.9546 14.2703 22.4746 14.2703 24.3246C14.2703 26.1746 15.7803 27.6746 17.6403 27.6746ZM29.2103 27.6746C31.0603 27.6746 32.5603 26.1746 32.5603 24.3246C32.5603 22.4746 31.0603 20.9546 29.2103 20.9546C27.3603 20.9546 25.8503 22.4746 25.8503 24.3246C25.8503 26.1746 27.3603 27.6746 29.2103 27.6746Z" />
        </svg>
    