
        <svg xmlns="http://www.w3.org/2000/svg" viewBox="0 0 100 100">
            <path d="M11.7523 23.5048C18.2323 23.5048 23.5123 18.2348 23.5123 11.7548C23.5123 5.2748 18.2323 0.0048 11.7523 0.0048C5.2723 0.0048 0.0023 5.2748 0.0023 11.7548C0.0023 18.2348 5.2723 23.5048 11.7523 23.5048ZM11.7623 18.1448C11.4623 18.1448 11.1923 18.1248 10.9023 18.0848C11.0623 17.5848 11.1823 17.0748 11.2523 16.5448L11.5223 16.5748C11.7423 16.5848 11.8923 16.4048 11.9023 16.2048C11.9223 15.9948 11.7623 15.8048 11.5523 15.7948L11.2823 15.7848C11.2823 15.4248 11.2623 15.0448 11.1923 14.6848L11.4623 14.6148C11.6623 14.5648 11.7923 14.3548 11.7323 14.1348C11.6823 13.9348 11.4723 13.8148 11.2723 13.8648L11.0123 13.9348C10.9123 13.5748 10.7723 13.2148 10.5923 12.8648L10.8323 12.7348C11.0323 12.6248 11.0823 12.3848 10.9823 12.2148C10.8723 12.0248 10.6623 11.9448 10.4623 12.0548L10.2023 12.1948C9.9823 11.8548 9.7223 11.5548 9.4523 11.2748L9.6723 11.0548C9.8223 10.8948 9.8123 10.6648 9.6323 10.5248C9.4723 10.3848 9.2623 10.3748 9.1123 10.5248L8.8923 10.7348C8.6223 10.5148 8.3323 10.3048 8.0123 10.1248L8.1323 9.9248C8.2123 9.7348 8.1323 9.4948 7.9523 9.4148C7.7723 9.3248 7.5623 9.3848 7.4523 9.5748L7.3523 9.7748C6.8823 9.5648 6.3823 9.4148 5.8823 9.3048C6.8423 7.0148 9.1423 5.3648 11.7523 5.3648C12.0323 5.3648 12.3023 5.3748 12.5823 5.4148C12.4223 5.9248 12.2923 6.4448 12.2323 6.9648L12.0023 6.9448C11.7823 6.9248 11.6023 7.1148 11.6023 7.3148C11.5923 7.5248 11.7323 7.6948 11.9523 7.7148L12.2123 7.7248C12.2123 8.0748 12.2323 8.4348 12.3023 8.8048L11.9923 8.8748C11.7623 8.9248 11.6623 9.1448 11.7223 9.3348C11.7623 9.5348 11.9623 9.6648 12.1623 9.6048L12.4723 9.5348C12.5723 9.9148 12.7223 10.2748 12.9023 10.6448L12.6723 10.7648C12.4823 10.8648 12.4323 11.0948 12.5323 11.2848C12.6223 11.4448 12.8423 11.5348 13.0423 11.4248L13.2823 11.2948C13.5023 11.6148 13.7423 11.9248 14.0123 12.2148L13.8323 12.3848C13.6723 12.5548 13.7123 12.7848 13.8623 12.9248C14.0323 13.0648 14.2623 13.0648 14.3923 12.9248L14.5823 12.7348C14.8623 12.9748 15.1723 13.1948 15.4923 13.3748L15.3823 13.5848C15.2823 13.7848 15.3623 14.0148 15.5523 14.1048C15.7423 14.2048 15.9523 14.1248 16.0523 13.9348L16.1723 13.7248C16.6423 13.9348 17.1323 14.0848 17.6623 14.1748C16.6723 16.4848 14.3823 18.1448 11.7623 18.1448ZM18.1523 11.7548C18.1523 12.3748 18.0723 12.9648 17.8823 13.5248C17.4023 13.4548 16.9323 13.3148 16.4723 13.1148L16.6023 12.8548C16.7023 12.6548 16.6323 12.4448 16.4423 12.3348C16.2623 12.2448 16.0323 12.3248 15.9423 12.5148L15.8223 12.7648C15.5523 12.6048 15.3023 12.4348 15.0623 12.2348L15.2423 12.0448C15.4123 11.8848 15.3723 11.6348 15.2323 11.5048C15.0723 11.3548 14.8623 11.3448 14.6923 11.5048L14.5223 11.6948C14.2923 11.4748 14.1023 11.2048 13.9123 10.9448L14.1023 10.8348C14.2923 10.7348 14.3523 10.5248 14.2523 10.3348C14.1523 10.1448 13.9323 10.0648 13.7323 10.1748L13.5423 10.2848C13.3823 9.9848 13.2623 9.6748 13.1623 9.3748L13.3623 9.3148C13.5623 9.2648 13.6923 9.0748 13.6323 8.8748C13.5723 8.6448 13.3823 8.5348 13.1723 8.5748L12.9823 8.6148C12.9523 8.3348 12.9123 8.0548 12.9023 7.7548L13.1723 7.7848C13.3923 7.8048 13.5423 7.6248 13.5623 7.4048C13.5723 7.2048 13.4223 7.0148 13.2023 7.0048L12.9223 6.9848C12.9923 6.5048 13.1023 6.0248 13.2823 5.5548C16.0423 6.2548 18.1523 8.8048 18.1523 11.7548ZM5.3823 11.7548C5.3823 11.1448 5.4723 10.5348 5.6523 9.9648C6.1323 10.0548 6.5823 10.1948 7.0323 10.4048L6.9023 10.6648C6.7923 10.8648 6.8623 11.0948 7.0623 11.1948C7.2423 11.2748 7.4623 11.2148 7.5723 11.0148L7.7023 10.7548C7.9423 10.8948 8.1923 11.0648 8.4123 11.2548L8.2623 11.3948C8.1123 11.5548 8.1323 11.8048 8.2723 11.9448C8.4423 12.0748 8.6623 12.0848 8.8123 11.9448L8.9523 11.7748C9.1923 12.0148 9.3823 12.2848 9.5823 12.5548L9.4023 12.6548C9.2023 12.7648 9.1323 12.9948 9.2423 13.1648C9.3423 13.3548 9.5723 13.4148 9.7523 13.3248L9.9523 13.2048C10.1023 13.5048 10.2223 13.7948 10.3223 14.0948L10.0923 14.1548C9.8923 14.2048 9.7723 14.4148 9.8223 14.6248C9.8523 14.8148 10.0623 14.9648 10.2823 14.9048L10.5023 14.8448C10.5423 15.1548 10.5823 15.4448 10.5823 15.7548L10.3523 15.7248C10.1123 15.7148 9.9523 15.9048 9.9523 16.1048C9.9423 16.3048 10.0823 16.4848 10.3023 16.5048L10.5623 16.5248C10.5023 17.0048 10.3923 17.4848 10.2223 17.9448C7.4723 17.2248 5.3823 14.6948 5.3823 11.7548Z" />
        </svg>
    