
        <svg xmlns="http://www.w3.org/2000/svg" viewBox="0 0 100 100">
            <path d="M12.6023 25.1986C19.5623 25.1986 25.2023 19.5586 25.2023 12.5986C25.2023 5.6386 19.5623 -0.0014 12.6023 -0.0014C5.6523 -0.0014 0.0023 5.6386 0.0023 12.5986C0.0023 19.5586 5.6523 25.1986 12.6023 25.1986ZM10.5723 9.4686C10.4623 8.2986 10.6123 7.4886 11.0123 6.6186C11.5223 6.4786 12.3023 6.4086 12.7523 6.3986C11.7023 6.9286 11.1823 7.8586 11.1823 8.8386C11.1823 8.9886 11.1823 9.0786 11.1923 9.1986C10.9823 9.2786 10.7823 9.3486 10.5723 9.4686ZM12.1623 8.9286C12.1623 8.0186 12.8123 6.9986 14.2823 6.6286C15.8323 7.0786 17.1323 8.0986 17.9323 9.4586C16.8423 8.9786 15.5523 8.6786 14.2623 8.6786C13.5323 8.6786 12.8423 8.7586 12.1623 8.9286ZM9.3023 10.0986C9.1423 9.3886 8.6923 8.5986 7.9823 8.4586C8.5223 7.8586 9.1723 7.3686 9.8823 7.0086C9.5423 8.0186 9.5423 8.9086 9.6823 9.8886C9.5423 9.9586 9.4223 10.0386 9.3023 10.0986ZM6.4023 12.8586C6.3023 11.7786 6.7223 10.2586 7.3823 9.2486C8.0623 9.4486 8.4023 9.9986 8.4023 10.7386C7.6123 11.3486 6.9623 12.0586 6.4023 12.8586ZM12.5023 9.8486C13.0623 9.7286 13.6623 9.6586 14.2623 9.6586C15.8123 9.6586 17.1923 10.0686 18.5523 10.8886C18.7223 11.4286 18.8123 12.0086 18.8123 12.6086C18.8123 13.5086 18.6223 14.3786 18.2623 15.1386C17.3823 12.4286 13.6123 11.5286 12.5023 9.8486ZM10.7123 10.4386C10.9723 10.3086 11.2223 10.2186 11.4823 10.1386C12.6823 12.3986 17.1923 13.2086 17.5423 16.3486C16.8423 17.3086 15.8323 18.0486 14.6923 18.4686C12.2623 15.6586 11.1123 12.6486 10.7123 10.4386ZM9.3623 11.2286C9.5023 11.1286 9.6523 11.0186 9.8423 10.8986C10.2823 13.2086 11.4523 16.0786 13.6523 18.7386C13.3023 18.8086 12.9623 18.8186 12.6023 18.8186C11.9023 18.8186 11.2423 18.6986 10.6323 18.4686C8.2423 16.0286 9.2823 13.8086 9.3623 11.2286ZM6.6423 14.3186C7.1123 13.4786 7.6523 12.7486 8.2923 12.1286C8.1323 13.8586 7.8523 15.8186 8.6623 17.3886C7.7123 16.5986 6.9923 15.5286 6.6423 14.3186Z" />
        </svg>
    