
        <svg xmlns="http://www.w3.org/2000/svg" viewBox="0 0 100 100">
            <path d="M11.7523 23.5048C18.2423 23.5048 23.5123 18.2448 23.5123 11.7548C23.5123 5.2648 18.2423 0.0048 11.7523 0.0048C5.2623 0.0048 0.0023 5.2648 0.0023 11.7548C0.0023 18.2448 5.2623 23.5048 11.7523 23.5048ZM11.7523 21.9848C6.0923 21.9848 1.5223 17.4148 1.5223 11.7548C1.5223 6.0948 6.0923 1.5148 11.7523 1.5148C17.4123 1.5148 21.9923 6.0948 21.9923 11.7548C21.9923 17.4148 17.4123 21.9848 11.7523 21.9848ZM9.2223 8.4748C9.5523 8.3048 9.9023 8.1648 10.2623 8.0348C10.2423 7.9248 10.2423 7.7948 10.2423 7.6548C10.2423 6.7848 10.6423 6.0248 11.3123 5.5048C10.7323 5.5548 9.9723 5.7148 9.3523 5.9848C9.2123 6.4948 9.0923 7.3248 9.2223 8.4748ZM10.9823 7.8348C11.7823 7.6148 12.6323 7.5148 13.5123 7.5148C14.6223 7.5148 15.7423 7.6948 16.7423 8.0348C15.7723 6.7548 14.3223 5.8248 12.6723 5.5748C11.5323 6.0248 10.8723 6.8048 10.9823 7.8348ZM7.9523 9.1648C8.1523 9.0348 8.3523 8.9048 8.5623 8.8048C8.4523 7.8048 8.4723 6.9748 8.5823 6.3848C8.0023 6.7248 7.5023 7.1648 7.0523 7.6548C7.5423 7.8948 7.8423 8.6248 7.9523 9.1648ZM11.1423 8.5148C12.1023 10.5448 16.2623 11.4948 17.4723 14.2248C17.8123 13.4648 18.0123 12.6348 18.0123 11.7548C18.0123 10.8048 17.7823 9.9048 17.3623 9.0948C16.1523 8.5148 14.9023 8.2148 13.5123 8.2148C12.7023 8.2148 11.9023 8.3248 11.1423 8.5148ZM5.5123 11.3748C6.0323 10.7348 6.6223 10.1448 7.3023 9.6348C7.2823 9.1748 7.0323 8.3948 6.6123 8.2348C5.9723 9.1448 5.5523 10.3248 5.5123 11.3748ZM9.3023 9.2148C9.6923 11.5548 10.8723 14.7448 13.3523 17.7848C14.8623 17.3748 16.1623 16.4048 16.9823 15.1148C16.4323 12.3048 11.5423 11.3348 10.4523 8.7348C10.0623 8.8548 9.6923 9.0248 9.3023 9.2148ZM8.0123 9.9848C8.0323 12.5848 6.9823 15.4948 8.9223 17.1648C9.7223 17.6948 10.7123 18.0148 11.7523 18.0148C12.0323 18.0148 12.3023 17.9848 12.5723 17.9548C10.2823 15.0348 9.1023 11.9648 8.6823 9.5748C8.4523 9.6948 8.2423 9.8448 8.0123 9.9848ZM5.5523 12.5548C5.7323 13.8748 6.3423 15.0848 7.2323 16.0148C6.7523 14.3348 7.1923 12.3148 7.3023 10.5748C6.6323 11.1548 6.0423 11.8048 5.5523 12.5548Z" />
        </svg>
    