
        <svg xmlns="http://www.w3.org/2000/svg" viewBox="0 0 100 100">
            <path d="M8.5223 6.2469C8.9423 6.0669 9.3623 5.8969 9.7923 5.7569C9.7623 5.5169 9.7523 5.2869 9.7523 5.0269C9.7523 2.9869 10.8723 1.0769 13.0423 0.0269C12.8423 0.0069 12.6423 -0.0031 12.4423 -0.0031C11.4123 0.0069 10.4223 0.1569 9.4723 0.4169C8.6123 2.2469 8.3223 3.8769 8.5223 6.2469ZM11.7323 5.2069C13.0923 4.8869 14.4923 4.7269 15.9623 4.7269C18.6123 4.7269 21.2623 5.3069 23.4923 6.3169C21.8923 3.5369 19.2523 1.4269 16.1223 0.5169C13.1123 1.2269 11.5823 3.3969 11.7223 5.0269C11.7323 5.1469 11.7323 5.1769 11.7323 5.2069ZM5.9523 7.5869C6.2023 7.4269 6.4523 7.2869 6.7123 7.1369C6.4723 5.1369 6.4323 3.2669 7.1923 1.2269C5.6723 1.9569 4.3223 2.9769 3.2123 4.2069C4.7223 4.4769 5.6223 6.1069 5.9523 7.5869ZM0.0323 13.2469C1.1623 11.5869 2.5523 10.0969 4.1223 8.8569C4.1223 8.7569 4.1223 8.6269 4.1223 8.5169C4.1123 7.7469 3.7223 6.2969 2.0123 5.7769C0.7623 7.7269 0.0223 10.0069 0.0023 12.4669C0.0023 12.7369 0.0123 12.9969 0.0323 13.2469ZM24.0623 17.8169C24.7823 16.2169 25.2023 14.4569 25.2023 12.5969C25.2023 11.4169 25.0223 10.2569 24.6923 9.1769C21.9523 7.5069 19.1123 6.7069 15.9623 6.7069C14.7323 6.7069 13.5423 6.8169 12.4123 7.0569C14.7023 10.4669 22.3623 12.2669 24.0623 17.8169ZM10.4023 7.6069C9.8423 7.7969 9.3123 8.0169 8.7923 8.2469C9.6123 12.7169 11.9623 18.8169 16.8823 24.4369C19.1723 23.6169 21.1623 22.1269 22.6123 20.2069C21.9123 13.8069 12.7723 12.1969 10.4023 7.6069ZM6.0623 9.8469C5.9023 15.0569 3.7923 19.5469 8.6723 24.5469C9.9023 24.9769 11.2223 25.1969 12.6023 25.1969C13.3323 25.1969 14.0623 25.1269 14.7823 25.0069C10.3123 19.6569 7.9523 13.8269 7.0423 9.1869C6.7023 9.3969 6.3823 9.6069 6.0623 9.8469ZM3.9423 11.6469C2.6323 12.9469 1.4923 14.4369 0.5623 16.1669C1.2923 18.6469 2.7523 20.7969 4.7223 22.3969C2.9723 19.2069 3.6223 15.1969 3.9423 11.6469Z" />
        </svg>
    