
        <svg xmlns="http://www.w3.org/2000/svg" viewBox="0 0 100 100">
            <path d="M10.2417 8.9692C10.2417 9.2292 10.4517 9.3992 10.7117 9.3992H14.8017L12.6117 15.3092C12.3617 15.9792 13.0517 16.3392 13.4917 15.7992L20.0817 7.5192C20.2017 7.3592 20.2617 7.2192 20.2617 7.0892C20.2617 6.8392 20.0617 6.6592 19.8017 6.6592H15.7117L17.9017 0.7492C18.1517 0.0892 17.4617 -0.2808 17.0317 0.2592L10.4317 8.5492C10.3017 8.7092 10.2417 8.8392 10.2417 8.9692ZM6.0217 15.6392H11.4017C11.2717 15.1692 11.3417 14.7792 11.5617 14.1792H5.7117C4.3317 14.1792 3.0917 13.9692 2.3717 13.2492C1.6517 12.5292 1.4517 11.3092 1.4517 9.9292V6.2092C1.4517 4.7692 1.6517 3.5292 2.3717 2.7992C3.0817 2.0792 4.3517 1.8792 5.7917 1.8792H13.9917L15.1517 0.4292H5.9517C3.9117 0.4292 2.4017 0.6692 1.3117 1.7492C0.2317 2.8392 0.0017 4.3392 0.0017 6.3792V9.6092C0.0017 11.7492 0.2217 13.2292 1.3017 14.3092C2.4017 15.3992 3.9017 15.6392 6.0217 15.6392ZM15.3617 15.6392H24.2217C26.3417 15.6392 27.8517 15.3992 28.9417 14.3092C30.0217 13.2292 30.2417 11.7492 30.2417 9.6092V6.4592C30.2417 4.3292 30.0217 2.8292 28.9417 1.7492C27.8517 0.6592 26.3417 0.4292 24.2217 0.4292H19.1217C19.2317 0.8692 19.1717 1.2592 18.9517 1.8792H24.5417C25.9217 1.8792 27.1617 2.0992 27.8817 2.8192C28.5917 3.5292 28.8017 4.7492 28.8017 6.1392V9.9292C28.8017 11.3092 28.5917 12.5292 27.8817 13.2492C27.1617 13.9692 25.9217 14.1792 24.5417 14.1792H16.5217ZM5.3117 12.9792H12.0217L12.8417 10.7592H10.7217C9.7017 10.7592 8.8917 9.9892 8.8917 8.9692C8.8917 8.5092 9.0717 8.0792 9.3617 7.7092L13.0317 3.0892H5.3817C4.2517 3.0892 3.6117 3.2492 3.2217 3.6392C2.8317 4.0292 2.6617 4.6792 2.6617 5.7892V10.3392C2.6617 11.4092 2.8317 12.0192 3.2217 12.4292C3.6217 12.8092 4.2617 12.9792 5.3117 12.9792ZM17.4817 12.9792H24.9617C26.0117 12.9792 26.6417 12.8192 27.0317 12.4292C27.4317 12.0192 27.6017 11.3792 27.6017 10.3392V5.7192C27.6017 4.6692 27.4317 4.0492 27.0317 3.6492C26.6417 3.2492 26.0017 3.0892 24.9617 3.0892H18.5017L17.6817 5.2992H19.8017C20.8217 5.2992 21.6317 6.0692 21.6317 7.0892C21.6317 7.5492 21.4617 7.9992 21.1617 8.3492ZM31.6217 10.8892C32.4817 10.8292 33.6517 9.7192 33.6517 8.0292C33.6517 6.3492 32.4817 5.2292 31.6217 5.1792Z" />
        </svg>
    