
        <svg xmlns="http://www.w3.org/2000/svg" viewBox="0 0 100 100">
            <path d="M11.7523 23.5048C18.2423 23.5048 23.5123 18.2448 23.5123 11.7548C23.5123 5.2648 18.2423 0.0048 11.7523 0.0048C5.2623 0.0048 0.0023 5.2648 0.0023 11.7548C0.0023 18.2448 5.2623 23.5048 11.7523 23.5048ZM11.7523 21.9848C6.0923 21.9848 1.5223 17.4148 1.5223 11.7548C1.5223 6.0948 6.0923 1.5148 11.7523 1.5148C17.4123 1.5148 21.9923 6.0948 21.9923 11.7548C21.9923 17.4148 17.4123 21.9848 11.7523 21.9848ZM7.4423 15.2648H15.3323C16.2623 15.2648 16.9823 15.1748 17.4923 14.6748C18.0023 14.1448 18.1123 13.4248 18.1123 12.5048V11.0048C18.1123 10.0748 18.0023 9.3648 17.4923 8.8348C16.9823 8.3348 16.2423 8.2148 15.3323 8.2148H7.4423C6.5123 8.2148 5.7823 8.3348 5.2623 8.8348C4.7623 9.3648 4.6523 10.0748 4.6523 11.0048V12.5048C4.6523 13.4248 4.7623 14.1448 5.2623 14.6748C5.7823 15.1748 6.4923 15.2648 7.4423 15.2648ZM7.2923 14.2148C6.7023 14.2148 6.2823 14.1048 6.0423 13.8848C5.8123 13.6748 5.7323 13.2448 5.7323 12.6448V10.8548C5.7323 10.2548 5.8123 9.8348 6.0423 9.6248C6.2823 9.3848 6.7123 9.2848 7.2923 9.2848H15.4723C16.0423 9.2848 16.4923 9.3948 16.7223 9.6248C16.9423 9.8448 17.0523 10.2848 17.0523 10.8548V12.6448C17.0523 13.2148 16.9423 13.6648 16.7223 13.8748C16.4923 14.1048 16.0523 14.2148 15.4723 14.2148ZM7.3323 13.6048H15.4423C15.8423 13.6048 16.0923 13.5448 16.2323 13.4048C16.3723 13.2648 16.4523 13.0048 16.4523 12.6248V10.8748C16.4523 10.4848 16.3723 10.2348 16.2323 10.0848C16.0823 9.9448 15.8323 9.8748 15.4423 9.8748H7.3323C6.9423 9.8748 6.6923 9.9348 6.5323 10.0848C6.4023 10.2148 6.3323 10.4648 6.3323 10.8748V12.6248C6.3323 13.0348 6.4023 13.2748 6.5323 13.4048C6.6823 13.5448 6.9423 13.6048 7.3323 13.6048ZM18.6523 13.1848C19.0923 13.1448 19.6723 12.5848 19.6723 11.7548C19.6723 10.9248 19.0923 10.3548 18.6523 10.3248Z" />
        </svg>
    