
        <svg xmlns="http://www.w3.org/2000/svg" viewBox="0 0 100 100">
            <path d="M4.5917 21.2225H21.1417C24.0517 21.2225 25.7417 19.5225 25.7417 16.6325V7.7025C25.7417 4.8025 24.0517 3.1025 21.1417 3.1025H20.6117V2.1425C20.6117 0.7925 19.8417 0.0025 18.5017 0.0025H16.2617C14.9217 0.0025 14.1317 0.7925 14.1317 2.1425V3.1025H11.6717V2.1425C11.6717 0.7925 10.9017 0.0025 9.5517 0.0025H7.3017C5.9717 0.0025 5.1917 0.7925 5.1917 2.1425V3.1025H4.5917C1.7017 3.1025 0.0017 4.8025 0.0017 7.7025V16.6325C0.0017 19.5225 1.7017 21.2225 4.5917 21.2225ZM3.0617 23.2225C3.1917 24.5425 3.9717 25.3725 5.5417 25.3725H20.2017C21.7717 25.3725 22.5617 24.5425 22.6917 23.2225ZM5.3217 27.2125C5.4417 28.4625 6.2817 29.1925 7.5917 29.1925H18.1417C19.4517 29.1925 20.3117 28.4625 20.4217 27.2125Z" />
        </svg>
    