
        <svg xmlns="http://www.w3.org/2000/svg" viewBox="0 0 100 100">
            <path d="M12.7923 25.5978C19.8723 25.5978 25.6023 19.8678 25.6023 12.7978C25.6023 5.7278 19.8723 -0.0022 12.7923 -0.0022C5.7323 -0.0022 0.0023 5.7278 0.0023 12.7978C0.0023 19.8678 5.7323 25.5978 12.7923 25.5978ZM12.7923 21.4178C8.0323 21.4178 4.1723 17.5678 4.1723 12.7978C4.1723 8.0278 8.0323 4.1678 12.7923 4.1678C17.5623 4.1678 21.4323 8.0278 21.4323 12.7978C21.4323 17.5678 17.5623 21.4178 12.7923 21.4178ZM8.8923 16.2078H16.0923C16.8423 16.2078 17.6523 16.1578 18.2023 15.5878C18.7723 15.0278 18.8323 14.2278 18.8323 13.4778V12.1178C18.8323 11.3678 18.7723 10.5578 18.2023 9.9878C17.6523 9.4378 16.8423 9.3778 16.0923 9.3778H8.8923C8.1423 9.3778 7.3223 9.4378 6.7423 9.9878C6.1723 10.5578 6.1323 11.3678 6.1323 12.1178V13.4778C6.1323 14.2278 6.1723 15.0278 6.7423 15.5878C7.3223 16.1578 8.1423 16.2078 8.8923 16.2078ZM8.7423 14.8478C8.2523 14.8478 7.9123 14.7578 7.7423 14.5978C7.5823 14.4478 7.5123 14.1178 7.5123 13.6078V11.9678C7.5123 11.4678 7.5823 11.1278 7.7423 10.9778C7.9123 10.8278 8.2523 10.7178 8.7423 10.7178H16.2323C16.7123 10.7178 17.0623 10.8278 17.2423 10.9778C17.3823 11.1278 17.4623 11.4878 17.4623 11.9678V13.6078C17.4623 14.1078 17.3823 14.4478 17.2423 14.5978C17.0623 14.7578 16.7123 14.8478 16.2323 14.8478ZM8.8223 14.1578H16.1723C16.4023 14.1578 16.5223 14.1278 16.6323 14.0278C16.7423 13.9178 16.7823 13.7978 16.7823 13.5778V11.9978C16.7823 11.7878 16.7423 11.6478 16.6323 11.5478C16.5223 11.4378 16.4023 11.4278 16.1723 11.4278H8.8223C8.5823 11.4278 8.4423 11.4378 8.3323 11.5478C8.2523 11.6478 8.2023 11.7878 8.2023 11.9978V13.5778C8.2023 13.7978 8.2523 13.9178 8.3323 14.0278C8.4423 14.1278 8.5823 14.1578 8.8223 14.1578ZM19.2923 14.0178C19.6523 13.9878 20.1723 13.5278 20.1723 12.7978C20.1723 12.0678 19.6523 11.5978 19.2923 11.5778Z" />
        </svg>
    