
        <svg xmlns="http://www.w3.org/2000/svg" viewBox="0 0 100 100">
            <path d="M6.0217 15.2147H24.2217C26.3417 15.2147 27.8517 14.9747 28.9417 13.8847C30.0217 12.8047 30.2417 11.3247 30.2417 9.1847V6.0347C30.2417 3.9047 30.0217 2.4047 28.9417 1.3247C27.8517 0.2347 26.3417 0.0047 24.2217 0.0047H5.9517C3.9117 0.0047 2.4017 0.2447 1.3117 1.3247C0.2317 2.4147 0.0017 3.9147 0.0017 5.9547V9.1847C0.0017 11.3247 0.2217 12.8047 1.3017 13.8847C2.4017 14.9747 3.9017 15.2147 6.0217 15.2147ZM5.7117 13.7547C4.3317 13.7547 3.0917 13.5447 2.3717 12.8247C1.6517 12.1047 1.4517 10.8847 1.4517 9.5047V5.7847C1.4517 4.3447 1.6517 3.1047 2.3717 2.3747C3.0817 1.6547 4.3517 1.4547 5.7917 1.4547H24.5417C25.9217 1.4547 27.1617 1.6747 27.8817 2.3947C28.5917 3.1047 28.8017 4.3247 28.8017 5.7147V9.5047C28.8017 10.8847 28.5917 12.1047 27.8817 12.8247C27.1617 13.5447 25.9217 13.7547 24.5417 13.7547ZM5.3117 12.5547H24.9517C26.0017 12.5547 26.6417 12.3947 27.0217 12.0047C27.4217 11.5947 27.6017 10.9547 27.6017 9.9147V5.2947C27.6017 4.2447 27.4217 3.6247 27.0317 3.2247C26.6417 2.8247 25.9917 2.6647 24.9517 2.6647H5.3817C4.2517 2.6647 3.6017 2.8247 3.2217 3.2147C2.8217 3.6047 2.6617 4.2547 2.6617 5.3647V9.9147C2.6617 10.9847 2.8217 11.5947 3.2217 12.0047C3.6217 12.3847 4.2517 12.5547 5.3117 12.5547ZM31.6217 10.4647C32.4817 10.4047 33.6517 9.2947 33.6517 7.6047C33.6517 5.9247 32.4817 4.8047 31.6217 4.7547Z" />
        </svg>
    