
        <svg xmlns="http://www.w3.org/2000/svg" viewBox="0 0 100 100">
            <path d="M0.0949 9.6081C-0.1751 10.3381 0.1749 10.9681 0.7449 11.1781C1.1949 11.3481 1.6149 11.1681 2.0849 10.8881C3.0549 10.1981 3.9949 9.9081 5.0849 10.2981C6.1749 10.6981 6.6449 11.5081 6.8849 12.7181C6.9949 13.1581 7.1749 13.5181 7.5649 13.6581C7.9749 13.8081 8.3449 13.6581 8.7049 13.3881C9.3049 12.8781 10.1149 12.6181 10.8849 12.6481L5.8849 26.3581C5.6749 26.9681 5.9749 27.6381 6.5849 27.8581C7.1849 28.0681 7.8649 27.7481 8.0749 27.1581L13.0749 13.4481C13.6749 13.9281 14.1149 14.6381 14.2449 15.4081C14.3749 15.8481 14.5449 16.1981 14.9449 16.3381C15.3349 16.4881 15.7049 16.3281 16.0649 16.0681C17.0349 15.3081 17.9149 14.9781 19.0049 15.3681C20.1049 15.7781 20.6349 16.5981 20.9249 17.7581C21.1149 18.2681 21.3149 18.6681 21.7749 18.8381C22.3349 19.0281 23.0349 18.7781 23.2849 18.0481C24.8649 13.6981 23.7849 6.3881 16.8049 3.1981L17.3649 1.6181C17.6149 0.9481 17.3349 0.3181 16.6849 0.0681C16.0549 -0.1519 15.4349 0.1581 15.1849 0.8181L14.6149 2.4181C7.2049 0.3581 1.6749 5.2481 0.0949 9.6081ZM3.2649 8.1981C5.1949 5.3881 8.6849 3.6381 12.5649 4.2081C10.7949 5.4181 9.1049 7.4581 7.9749 10.0781C7.5149 9.2481 6.7749 8.6581 5.8149 8.3081C4.9549 8.0081 4.1149 7.9581 3.2649 8.1981ZM9.5749 10.7581C10.8849 7.7081 13.0549 5.5681 14.9849 4.7481C15.9549 6.6181 16.2449 9.6581 15.2949 12.8481C14.7249 11.9181 13.8149 11.1681 12.7949 10.7981C11.7649 10.4181 10.5949 10.4081 9.5749 10.7581ZM16.9449 13.3381C17.7749 10.6081 17.7849 7.9581 17.2149 5.9081C20.5549 7.9581 22.0849 11.5581 21.7449 14.9181C21.2549 14.2081 20.5749 13.6881 19.7349 13.3881C18.7749 13.0281 17.8349 12.9981 16.9449 13.3381Z" />
        </svg>
    