
        <svg xmlns="http://www.w3.org/2000/svg" viewBox="0 0 100 100">
            <path d="M5.2017 17.0069H11.6417L11.4517 18.7869C11.4117 19.1569 11.5417 19.4269 11.7417 19.5869L11.4817 22.1869H12.4317L12.7017 19.6669C12.9517 19.5469 13.1417 19.3369 13.1617 19.0169L13.3717 17.0069H13.9817C14.2717 17.0069 14.4917 16.8069 14.5317 16.4869L14.9517 12.1769C14.9917 11.7869 14.7517 11.5469 14.3417 11.5469H13.9217L14.4217 6.4469C14.8517 2.3169 13.1217 -0.0031 9.6817 -0.0031C4.7017 -0.0031 0.0017 4.5469 0.0017 11.0069C0.0017 15.2669 1.3717 21.1069 3.6217 21.1669C4.2117 21.1669 4.5617 20.5169 4.5617 19.3269C4.5617 18.8169 4.5217 18.3469 4.3917 17.8569C2.7517 17.4969 1.5317 16.0269 1.5317 14.2969C1.5317 13.6669 1.7017 13.0669 1.9717 12.5269C1.8417 12.0369 1.7617 11.5169 1.7617 10.9769C1.7617 5.8569 5.9417 1.7469 9.5717 1.7469C11.8717 1.7469 13.0217 3.5669 12.7017 6.5169L12.1917 11.5469H5.2017C3.6917 11.5469 2.4817 12.7769 2.4817 14.2969C2.4817 15.7869 3.6917 17.0069 5.2017 17.0069ZM5.2017 16.1569C4.1517 16.1569 3.2917 15.3169 3.2917 14.2569C3.2917 13.2169 4.1517 12.3469 5.2017 12.3469C6.2617 12.3469 7.1017 13.2169 7.1017 14.2569C7.1017 15.3169 6.2617 16.1569 5.2017 16.1569ZM5.2017 15.5169C5.9017 15.5169 6.4617 14.9669 6.4617 14.2569C6.4617 13.5669 5.9017 13.0069 5.2017 13.0069C4.5117 13.0069 3.9417 13.5669 3.9417 14.2569C3.9417 14.9669 4.5117 15.5169 5.2017 15.5169Z" />
        </svg>
    