
        <svg xmlns="http://www.w3.org/2000/svg" viewBox="0 0 100 100">
            <path d="M9.7517 0.0012C4.3917 0.0012 0.0017 6.1412 0.0017 13.6613C0.0017 17.2113 0.9517 21.1413 2.0017 21.1413C3.0217 21.1413 3.7717 19.8213 3.8117 18.6112C2.1117 18.1313 0.8517 16.5613 0.8517 14.7113C0.8517 13.6313 1.2517 12.6713 1.9817 11.8913C2.3217 6.6113 5.7117 1.9612 9.6217 1.9612C11.9417 1.9612 13.0117 3.6813 13.0117 6.8913L3.7617 11.7313C2.4117 12.4313 1.8017 13.5213 1.8017 14.7113C1.8017 16.3913 3.1717 17.8013 4.9017 17.8013C5.7417 17.8013 6.3517 17.5813 7.5517 16.9213L12.2017 14.3713C14.2417 13.2513 14.9517 11.9013 14.9517 9.0513V6.5613C14.9517 2.5313 13.1917 0.0012 9.7517 0.0012ZM4.8717 16.7613C3.7417 16.7613 2.8117 15.8313 2.8117 14.6813C2.8117 13.5513 3.7417 12.6113 4.8717 12.6113C6.0117 12.6113 6.9517 13.5513 6.9517 14.6813C6.9517 15.8213 6.0117 16.7613 4.8717 16.7613ZM4.8717 16.1112C5.6617 16.1112 6.3017 15.4713 6.3017 14.6813C6.3017 13.9013 5.6617 13.2513 4.8717 13.2513C4.0917 13.2513 3.4617 13.9013 3.4617 14.6813C3.4617 15.4713 4.0917 16.1112 4.8717 16.1112Z" />
        </svg>
    