
        <svg xmlns="http://www.w3.org/2000/svg" viewBox="0 0 100 100">
            <path d="M12.9917 24.4002V20.3102C13.8917 19.4302 14.5517 16.2202 14.5517 13.2902C14.5517 5.9602 10.2817 0.0002 5.0717 0.0002C1.7217 0.0002 0.0017 2.4702 0.0017 6.3702V8.8502C0.0017 11.6202 0.7017 12.9502 2.6717 14.0402L7.2117 16.5202C8.3517 17.1402 8.9217 17.3602 9.7417 17.3602C11.4117 17.3602 12.8017 15.9702 12.8017 14.3002C12.8017 13.1502 12.2017 12.0702 10.8917 11.3902L1.9117 6.7002C1.9117 3.5902 2.9317 1.9002 5.1917 1.9002C8.9417 1.9002 12.2217 6.3402 12.6017 11.3802C13.3917 12.1802 13.8317 13.1702 13.8317 14.3002C13.8317 16.1502 12.5617 17.7302 10.8517 18.2302C10.9117 19.1102 11.3317 19.9802 11.9217 20.3602V24.4002ZM9.8117 16.2202C8.7517 16.2202 7.8717 15.3402 7.8717 14.2802C7.8717 13.2202 8.7517 12.3502 9.8117 12.3502C10.8917 12.3502 11.7517 13.2202 11.7517 14.2802C11.7517 15.3402 10.8917 16.2202 9.8117 16.2202ZM9.8117 15.4702C10.4617 15.4702 10.9917 14.9302 10.9917 14.2802C10.9917 13.6402 10.4617 13.1002 9.8117 13.1002C9.1617 13.1002 8.6217 13.6402 8.6217 14.2802C8.6217 14.9302 9.1617 15.4702 9.8117 15.4702Z" />
        </svg>
    