
        <svg xmlns="http://www.w3.org/2000/svg" viewBox="0 0 100 100">
            <path d="M11.7929 11.8852C13.4929 11.1452 14.3029 9.2052 13.5629 7.5052L11.1529 2.0452C10.4029 0.3452 8.4629 -0.4548 6.7729 0.2652C5.0829 0.9852 4.2829 2.9852 5.0029 4.6452L7.4229 10.1152C8.1429 11.7852 10.1029 12.6052 11.7929 11.8852ZM0.2629 8.3352C-0.6271 11.4152 0.8229 14.2752 3.9029 15.4852L6.1529 16.3752C10.0329 17.8952 13.7729 16.9352 15.2229 12.8552C15.9929 10.7352 15.8429 8.9252 14.9029 7.6252C15.5429 9.7752 14.4429 12.1252 12.2929 13.0752C9.9729 14.0452 7.2629 12.9652 6.2429 10.6352L3.8329 5.1652C3.7129 4.8952 3.6229 4.6252 3.5629 4.3252C2.3029 5.3852 0.8529 6.3552 0.2629 8.3352ZM10.5329 10.9052C9.3729 10.9052 8.4529 9.9752 8.4529 8.8252C8.4529 7.6652 9.3729 6.7452 10.5329 6.7452C11.6829 6.7452 12.6129 7.6652 12.6129 8.8252C12.6129 9.9752 11.6929 10.9052 10.5329 10.9052ZM10.5329 9.9652C11.1829 9.9652 11.6729 9.4452 11.6729 8.8252C11.6729 8.1952 11.1829 7.6752 10.5329 7.6752C9.8929 7.6752 9.4029 8.1952 9.4029 8.8252C9.4029 9.4452 9.8929 9.9652 10.5329 9.9652ZM16.4329 13.2952C15.5829 15.6652 14.0029 17.2452 11.9929 17.9352C12.8529 18.7052 13.9629 19.1452 15.2829 19.1452C18.2029 19.1452 20.5629 16.7652 20.5629 13.8252C20.5629 11.4252 19.0329 9.4452 16.8329 8.8052C17.1329 10.3252 16.9929 11.7852 16.4329 13.2952Z" />
        </svg>
    