
        <svg xmlns="http://www.w3.org/2000/svg" viewBox="0 0 100 100">
            <path d="M7.8117 23.3628H9.7417V13.3228C10.3917 13.2528 10.8017 12.8428 10.8017 12.1528V10.2328C12.7417 9.4228 14.1017 7.5028 14.1017 5.3128C14.1017 2.3828 11.6617 0.0028 8.7817 0.0028C8.2517 0.0028 7.7917 0.0428 7.3717 0.1728V3.1828C7.7917 2.8828 8.2717 2.7228 8.7817 2.7228C10.1517 2.7228 11.3317 3.9028 11.3317 5.3128C11.3317 6.7028 10.1817 7.8428 8.7817 7.8428C7.3317 7.8428 6.2217 6.7228 6.2217 5.3128V0.6328C4.5317 1.5828 3.4617 3.3328 3.4617 5.3128C3.4617 7.5428 4.8117 9.4428 6.7517 10.2328V12.1528C6.7517 12.8428 7.1717 13.2528 7.8117 13.3228ZM21.6817 23.3628V13.3228C22.3217 13.2528 22.7417 12.8428 22.7417 12.1528V10.2328C24.6817 9.4228 26.0417 7.5028 26.0417 5.3128C26.0417 2.3828 23.6017 0.0028 20.7217 0.0028C20.2017 0.0028 19.7317 0.0428 19.3117 0.1728V3.1828C19.7317 2.8828 20.2117 2.7228 20.7217 2.7228C22.0917 2.7228 23.2717 3.9028 23.2717 5.3128C23.2717 6.7028 22.1217 7.8428 20.7217 7.8428C19.2917 7.8428 18.1617 6.7228 18.1617 5.3128V0.6328C16.4717 1.5828 15.4017 3.3328 15.4017 5.3128C15.4017 7.5428 16.7617 9.4428 18.6917 10.2328V12.1528C18.6917 12.8428 19.1017 13.2528 19.7617 13.3228V23.3628ZM2.4617 5.3228C2.4617 3.2328 3.4817 1.3828 5.0417 0.2328C2.1917 0.3328 0.0017 2.5028 0.0017 5.3228C0.0017 8.1228 2.1517 10.3228 5.0417 10.4028C3.4817 9.2728 2.4617 7.4228 2.4617 5.3228ZM27.0317 5.3228C27.0317 7.4228 26.0117 9.2728 24.4617 10.4028C27.3017 10.3228 29.4917 8.1428 29.4917 5.3228C29.4917 2.5328 27.3417 0.3328 24.4617 0.2328C26.0117 1.3828 27.0317 3.2328 27.0317 5.3228ZM8.7817 6.7128C9.5317 6.7128 10.1717 6.0628 10.1717 5.3128C10.1717 4.5928 9.5017 3.9128 8.7817 3.9128C8.0417 3.9128 7.3817 4.5628 7.3817 5.3128C7.3817 6.0728 8.0117 6.7128 8.7817 6.7128ZM20.7217 6.7128C21.4717 6.7128 22.1117 6.0628 22.1117 5.3128C22.1117 4.5928 21.4617 3.9128 20.7217 3.9128C19.9917 3.9128 19.3217 4.5628 19.3217 5.3128C19.3217 6.0728 19.9617 6.7128 20.7217 6.7128Z" />
        </svg>
    