
        <svg xmlns="http://www.w3.org/2000/svg" viewBox="0 0 100 100">
            <path d="M7.1817 23.2777H16.1817C20.9317 23.2777 23.4017 20.8077 23.4017 16.0877V7.1877C23.4017 2.4577 20.9317 -0.0023 16.1817 -0.0023H7.1817C2.4617 -0.0023 0.0017 2.4577 0.0017 7.1877V16.0877C0.0017 20.8077 2.4617 23.2777 7.1817 23.2777ZM6.9217 21.3877C3.6117 21.3877 1.8917 19.6477 1.8917 16.3477V6.9277C1.8917 3.6077 3.6117 1.8877 6.9217 1.8877H16.5117C19.7917 1.8877 21.5117 3.5977 21.5117 6.8577V16.4177C21.5117 19.6777 19.7917 21.3877 16.5117 21.3877ZM11.6917 17.1777C14.7617 17.1777 17.2417 14.6577 17.2417 11.6377C17.2417 8.5777 14.7117 6.1177 11.6917 6.1177C11.1517 6.1177 10.6617 6.1677 10.2317 6.2977V9.4377C10.6617 9.1177 11.1817 8.9377 11.6917 8.9377C13.1417 8.9377 14.3717 10.1877 14.3717 11.6377C14.3717 13.0877 13.1617 14.2777 11.6917 14.2777C10.2117 14.2777 9.0317 13.1177 9.0317 11.6377V6.7777C7.2817 7.7577 6.1617 9.5877 6.1617 11.6377C6.1617 14.7177 8.6417 17.1777 11.6917 17.1777ZM11.6917 13.0977C12.4817 13.0977 13.1517 12.4077 13.1517 11.6377C13.1517 10.8877 12.4617 10.1977 11.6917 10.1977C10.9317 10.1977 10.2517 10.8477 10.2517 11.6377C10.2517 12.4477 10.9117 13.0977 11.6917 13.0977Z" />
        </svg>
    