
        <svg xmlns="http://www.w3.org/2000/svg" viewBox="0 0 100 100">
            <path d="M0.0023 10.1845C0.0023 16.6445 4.5923 20.3645 12.6523 20.3645H24.6523C32.7223 20.3645 37.3123 16.6445 37.3123 10.1845C37.3123 3.7145 32.7223 0.0045 24.6523 0.0045H12.6523C4.5923 0.0045 0.0023 3.7145 0.0023 10.1845ZM27.0123 8.1345H10.3023C9.6923 8.1345 9.2023 8.4445 8.9723 8.9545H2.6923C3.2823 4.8845 6.8123 2.6145 12.6723 2.6145H24.6523C30.5023 2.6145 34.0323 4.8845 34.6123 8.9545H28.3523C28.1223 8.4445 27.6323 8.1345 27.0123 8.1345ZM10.3023 11.0145H27.0123C27.6223 11.0145 28.1023 10.7145 28.3223 10.2345H34.7023C34.7023 15.0145 31.0623 17.7545 24.6523 17.7545H12.6723C6.2723 17.7545 2.6323 15.0345 2.6123 10.2345H8.9923C9.2223 10.7145 9.7123 11.0145 10.3023 11.0145ZM18.6523 14.5345C19.3323 14.5045 19.8823 13.9445 19.8823 13.3145C19.8823 12.6345 19.3323 12.0845 18.6523 12.0845C17.9923 12.0845 17.4223 12.6345 17.4223 13.3145C17.4223 13.9645 17.9923 14.5445 18.6523 14.5345Z" />
        </svg>
    