
        <svg xmlns="http://www.w3.org/2000/svg" viewBox="0 0 100 100">
            <path d="M0.0023 9.3408C0.0023 15.4108 4.4323 18.6808 11.7923 18.6808H23.3523C30.7023 18.6808 35.1423 15.4108 35.1423 9.3408C35.1423 3.2608 30.7023 0.0008 23.3523 0.0008H11.7923C4.4323 0.0008 0.0023 3.2608 0.0023 9.3408ZM25.5223 7.5208H9.6223C9.0823 7.5208 8.6323 7.8208 8.4623 8.2708H1.5123C2.0323 3.8008 5.8123 1.4508 11.7923 1.4508H23.3523C29.3323 1.4508 33.1123 3.8008 33.6223 8.2708H26.6823C26.5123 7.8208 26.0723 7.5208 25.5223 7.5208ZM1.4523 9.3408C1.4523 9.2708 1.4523 9.2608 1.4523 9.2608H8.4623C8.6523 9.7308 9.0823 10.0108 9.6223 10.0108H25.5223C26.0723 10.0108 26.5123 9.7308 26.6823 9.2608H33.6823C33.6823 9.3408 33.6823 9.3408 33.6823 9.3408C33.6823 14.5108 29.7923 17.2308 23.3523 17.2308H11.7923C5.3523 17.2308 1.4523 14.5108 1.4523 9.3408ZM17.5623 13.4808C18.2123 13.4608 18.7223 12.9208 18.7223 12.3408C18.7223 11.6908 18.2123 11.1808 17.5623 11.1808C16.9323 11.1808 16.4023 11.6908 16.4023 12.3408C16.4023 12.9608 16.9323 13.5008 17.5623 13.4808Z" />
        </svg>
    