
        <svg xmlns="http://www.w3.org/2000/svg" viewBox="0 0 100 100">
            <path d="M1.4023 5.0506H27.7923C26.8723 3.4606 25.4623 2.1306 23.6223 1.2506C21.8323 0.3706 19.5423 0.0006 16.2923 0.0006H12.9123C9.6523 0.0006 7.3723 0.3706 5.5823 1.2506C3.7423 2.1306 2.3323 3.4606 1.4023 5.0506ZM12.9123 20.8706H16.2923C19.5423 20.8706 21.8323 20.5006 23.6223 19.6206C27.3123 17.8506 29.2023 14.3506 29.2023 10.4306C29.2023 8.8706 28.9123 7.3806 28.3023 6.0306H0.9023C0.3023 7.3806 0.0023 8.8706 0.0023 10.4306C0.0023 14.3506 1.8823 17.8506 5.5823 19.6206C7.3723 20.5006 9.6523 20.8706 12.9123 20.8706ZM14.6123 14.6206C13.2623 14.6206 12.2223 13.5906 12.2223 12.2906V8.8606L13.3023 8.3906V10.2906C13.7023 10.0006 14.1323 9.8706 14.6123 9.8706C15.9023 9.8706 17.0023 10.9706 17.0023 12.2906C17.0023 13.5706 15.9223 14.6206 14.6123 14.6206ZM14.6123 13.5706C15.3123 13.5706 15.9023 12.9806 15.9023 12.2906C15.9023 11.5906 15.3123 10.9906 14.6123 10.9906C13.9123 10.9906 13.3023 11.5806 13.3023 12.2906C13.3023 12.9806 13.9023 13.5706 14.6123 13.5706Z" />
        </svg>
    