
        <svg xmlns="http://www.w3.org/2000/svg" viewBox="0 0 100 100">
            <path d="M1.1623 4.9792H26.4523C25.5723 3.3492 24.2023 2.0392 22.4223 1.1792C20.7423 0.3592 18.6123 -0.0008 15.4523 -0.0008H12.1723C9.0023 -0.0008 6.8623 0.3592 5.1923 1.1792C3.4223 2.0392 2.0423 3.3492 1.1623 4.9792ZM12.1723 19.4992H15.4523C18.6123 19.4992 20.7423 19.1392 22.4223 18.3192C25.7023 16.7492 27.6123 13.6092 27.6123 9.7492C27.6123 8.2292 27.3123 6.8192 26.7423 5.5692H0.8623C0.3023 6.8192 0.0023 8.2292 0.0023 9.7492C0.0023 13.6092 1.9123 16.7492 5.1923 18.3192C6.8623 19.1392 9.0023 19.4992 12.1723 19.4992ZM13.8123 13.7392C12.5423 13.7392 11.5523 12.7492 11.5523 11.5292V8.3092L12.5823 7.8492V9.6492C12.9523 9.3592 13.3723 9.2492 13.8123 9.2492C15.0323 9.2492 16.0923 10.2892 16.0923 11.5292C16.0923 12.7392 15.0623 13.7392 13.8123 13.7392ZM13.8123 12.7392C14.4823 12.7392 15.0323 12.1892 15.0323 11.5292C15.0323 10.8792 14.4823 10.2992 13.8123 10.2992C13.1623 10.2992 12.5823 10.8592 12.5823 11.5292C12.5823 12.1892 13.1323 12.7392 13.8123 12.7392Z" />
        </svg>
    