
        <svg xmlns="http://www.w3.org/2000/svg" viewBox="0 0 100 100">
            <path d="M8.7917 11.8852C10.4617 12.6052 12.4217 11.7852 13.1517 10.1152L15.5617 4.6452C16.2917 2.9852 15.4917 0.9852 13.7917 0.2652C12.1017 -0.4548 10.1617 0.3452 9.4117 2.0452L7.0117 7.5052C6.2717 9.2052 7.0817 11.1452 8.7917 11.8852ZM20.3117 8.3352C19.7117 6.3552 18.2717 5.3852 17.0017 4.3252C16.9417 4.6252 16.8517 4.8952 16.7317 5.1652L14.3217 10.6352C13.3017 12.9652 10.5917 14.0452 8.2717 13.0752C6.1317 12.1252 5.0317 9.7752 5.6617 7.6252C4.7217 8.9252 4.5717 10.7352 5.3417 12.8552C6.8017 16.9352 10.5317 17.8952 14.4117 16.3752L16.6617 15.4852C19.7417 14.2752 21.2017 11.4152 20.3117 8.3352ZM10.0317 10.9052C8.8717 10.9052 7.9617 9.9752 7.9617 8.8252C7.9617 7.6652 8.8817 6.7452 10.0317 6.7452C11.1917 6.7452 12.1217 7.6652 12.1217 8.8252C12.1217 9.9752 11.1917 10.9052 10.0317 10.9052ZM10.0317 9.9652C10.6917 9.9652 11.1717 9.4452 11.1717 8.8252C11.1717 8.1952 10.6917 7.6752 10.0317 7.6752C9.3917 7.6752 8.8917 8.1952 8.8917 8.8252C8.8917 9.4452 9.3917 9.9652 10.0317 9.9652ZM4.1417 13.2952C3.5817 11.7852 3.4317 10.3252 3.7417 8.8052C1.5317 9.4452 0.0017 11.4252 0.0017 13.8252C0.0017 16.7652 2.3717 19.1452 5.3017 19.1452C6.6117 19.1452 7.7117 18.7052 8.5817 17.9352C6.5617 17.2452 4.9817 15.6652 4.1417 13.2952Z" />
        </svg>
    