
        <svg xmlns="http://www.w3.org/2000/svg" viewBox="0 0 100 100">
            <path d="M12.0117 23.0939V19.0739C12.8517 18.5139 13.5617 15.3139 13.5617 12.3939C13.5617 5.5739 9.5717 0.0039 4.7217 0.0039C1.5917 0.0039 0.0017 2.2939 0.0017 5.9439V8.2039C0.0017 10.8039 0.6517 12.0239 2.4817 13.0439L6.7117 15.3439C7.8017 15.9339 8.3517 16.1439 9.1317 16.1439C10.6717 16.1439 11.9317 14.8639 11.9317 13.3339C11.9317 12.2739 11.3817 11.2639 10.1617 10.6439L1.7617 6.2439C1.7617 3.3439 2.7317 1.7739 4.8417 1.7739C8.3917 1.7739 11.4517 6.0039 11.7617 10.7839C12.4317 11.4839 12.7817 12.3639 12.7817 13.3339C12.7817 15.0239 11.6617 16.4439 10.1017 16.8739C10.1217 17.8139 10.6317 18.8039 11.3417 19.0939V23.0939ZM9.1417 15.2039C8.1117 15.2039 7.2617 14.3539 7.2617 13.3239C7.2617 12.2939 8.1117 11.4239 9.1417 11.4239C10.1817 11.4239 11.0117 12.2939 11.0117 13.3239C11.0117 14.3639 10.1817 15.2039 9.1417 15.2039ZM9.1417 14.6139C9.8517 14.6139 10.4317 14.0239 10.4317 13.3239C10.4317 12.6139 9.8517 12.0239 9.1417 12.0239C8.4417 12.0239 7.8517 12.6139 7.8517 13.3239C7.8517 14.0239 8.4417 14.6139 9.1417 14.6139Z" />
        </svg>
    