
        <svg xmlns="http://www.w3.org/2000/svg" viewBox="0 0 100 100">
            <path d="M10.4317 0.0009C4.7217 0.0009 0.0017 6.6109 0.0017 14.5009C0.0017 18.3009 1.0217 22.5109 2.4517 22.5109C3.4617 22.5109 4.2917 21.3209 4.5117 20.3309C2.2017 19.9109 0.6117 17.9409 0.6117 15.6009C0.6117 14.0609 1.3517 12.7109 2.6217 11.7609C3.2317 6.7309 6.5617 2.4609 10.3217 2.4609C12.6017 2.4609 13.6017 4.1009 13.6017 7.4109L4.0417 12.4109C2.6117 13.1609 1.9317 14.3509 1.9317 15.6009C1.9317 17.5109 3.3617 19.0809 5.3417 19.0809C6.2417 19.0809 6.8317 18.8509 8.1317 18.1509L13.1117 15.4109C15.2917 14.2109 16.0617 12.7609 16.0617 9.6809V6.8709C16.0617 2.6709 14.1817 0.0009 10.4317 0.0009ZM23.4217 0.0009C19.6717 0.0009 17.7917 2.6709 17.7917 6.8709V9.6809C17.7917 12.7609 18.5617 14.2109 20.7417 15.4109L25.7217 18.1509C27.0217 18.8509 27.6117 19.0809 28.5117 19.0809C30.3917 19.0809 31.9217 17.5109 31.9217 15.6009C31.9217 14.3509 31.2417 13.1609 29.8117 12.4109L20.2517 7.4109C20.2517 4.1009 21.2617 2.4609 23.5317 2.4609C27.2917 2.4609 30.6217 6.7309 31.2317 11.7609C32.5117 12.7109 33.2417 14.0609 33.2417 15.6009C33.2417 17.9409 31.5517 19.9209 29.3417 20.3309C29.5617 21.3209 30.4017 22.5109 31.4017 22.5109C32.8317 22.5109 33.8517 18.3009 33.8517 14.5009C33.8517 6.6109 29.1317 0.0009 23.4217 0.0009ZM5.3117 17.7409C4.1217 17.7409 3.1717 16.7809 3.1717 15.6009C3.1717 14.4209 4.1217 13.4609 5.3117 13.4609C6.4817 13.4609 7.4417 14.4209 7.4417 15.6009C7.4417 16.7809 6.4817 17.7409 5.3117 17.7409ZM28.5517 17.7409C27.3717 17.7409 26.4117 16.7809 26.4117 15.6009C26.4117 14.4209 27.3717 13.4609 28.5517 13.4609C29.7317 13.4609 30.6817 14.4209 30.6817 15.6009C30.6817 16.7809 29.7317 17.7409 28.5517 17.7409ZM5.3117 16.7009C5.9217 16.7009 6.4117 16.2109 6.4117 15.6009C6.4117 15.0009 5.9217 14.5009 5.3117 14.5009C4.7017 14.5009 4.1917 15.0009 4.1917 15.6009C4.1917 16.2109 4.7017 16.7009 5.3117 16.7009ZM28.5517 16.7009C29.1517 16.7009 29.6617 16.2109 29.6617 15.6009C29.6617 15.0009 29.1517 14.5009 28.5517 14.5009C27.9417 14.5009 27.4417 15.0009 27.4417 15.6009C27.4417 16.2109 27.9417 16.7009 28.5517 16.7009Z" />
        </svg>
    