
        <svg xmlns="http://www.w3.org/2000/svg" viewBox="0 0 100 100">
            <path d="M14.9517 15.1138C16.4917 15.1138 18.1517 14.2038 18.5117 12.2338L19.1417 8.8738C19.7817 5.3637 17.1317 2.7538 12.8717 1.2737C10.3317 0.3938 7.8617 0.0038 5.3717 0.0038C4.6217 0.0038 4.3617 0.2737 4.3617 0.7638C4.3617 1.9638 4.9917 2.8737 6.2017 3.0437C8.1817 3.3538 9.6817 3.7538 11.2617 4.5038C11.8917 4.7937 12.1417 5.2238 12.0217 5.8737L11.2617 10.4738C10.8317 13.0938 12.5817 15.1138 14.9517 15.1138ZM14.9517 16.2538C11.8117 16.2538 9.6017 13.5238 10.1517 10.2938L10.6017 7.5238C8.1017 8.1638 6.2817 9.2338 5.5217 10.8638C6.1917 13.8438 7.2617 16.5938 8.7817 19.2338C9.5117 19.6038 10.2917 19.7438 11.3317 19.7438C15.3417 19.7438 18.8717 17.8038 19.1117 13.8938C18.2917 15.3438 16.7417 16.2538 14.9517 16.2538ZM14.9517 13.3238C13.8617 13.3238 12.9917 12.4538 12.9917 11.3638C12.9917 10.2738 13.8617 9.4138 14.9517 9.4138C16.0417 9.4138 16.9117 10.2638 16.9117 11.3638C16.9117 12.4638 16.0417 13.3238 14.9517 13.3238ZM14.9517 12.4938C15.5817 12.4938 16.0817 12.0038 16.0817 11.3638C16.0817 10.7438 15.5817 10.2438 14.9517 10.2438C14.3217 10.2438 13.8317 10.7438 13.8317 11.3638C13.8317 12.0038 14.3217 12.4938 14.9517 12.4938ZM0.0017 15.7638C0.0017 18.7538 1.9817 20.7538 4.9617 20.7538C6.1417 20.7538 7.2217 20.3638 7.8617 19.9138C6.2417 17.1338 5.1017 14.1538 4.3717 10.9938C2.1517 11.2138 0.0017 13.0338 0.0017 15.7638Z" />
        </svg>
    