
        <svg xmlns="http://www.w3.org/2000/svg" viewBox="0 0 100 100">
            <path d="M5.6717 0.0002C1.9217 0.0002 0.0017 2.7402 0.0017 7.0802V9.8602C0.0017 12.9602 0.7817 14.4402 2.9917 15.6602L8.0317 18.4202C9.3417 19.1202 9.9417 19.3602 10.8517 19.3602C12.7417 19.3602 14.2817 17.8002 14.2817 15.9002C14.2817 14.6402 13.6017 13.4402 12.1517 12.6702L2.2117 7.4902C2.2117 4.0402 3.3317 2.2102 5.7917 2.2102C9.8917 2.2102 13.4617 7.0102 13.9417 12.5202C14.9317 13.4102 15.4817 14.5902 15.4817 15.9002C15.4817 18.0602 13.9917 19.8902 12.0017 20.4002C12.1317 21.6202 12.9417 22.8902 13.9117 22.8902C15.2017 22.8902 16.2417 18.6402 16.2417 14.7902C16.2417 6.6702 11.4617 0.0002 5.6717 0.0002ZM10.9217 18.0602C9.7417 18.0602 8.7617 17.0902 8.7617 15.9002C8.7617 14.7202 9.7417 13.7502 10.9217 13.7502C12.1317 13.7502 13.0917 14.7202 13.0917 15.9002C13.0917 17.1002 12.1317 18.0602 10.9217 18.0602ZM10.9217 17.1702C11.6417 17.1702 12.2017 16.5902 12.2017 15.9002C12.2017 15.2102 11.6417 14.6402 10.9217 14.6402C10.2317 14.6402 9.6517 15.2102 9.6517 15.9002C9.6517 16.5902 10.2317 17.1702 10.9217 17.1702Z" />
        </svg>
    