
        <svg xmlns="http://www.w3.org/2000/svg" viewBox="0 0 100 100">
            <path d="M1.1817 22.4792H2.0117C2.7217 22.4792 3.2017 22.0192 3.2017 21.3092V19.8092C3.3417 19.8492 3.8517 19.8892 4.2317 19.8892H28.0117C28.3817 19.8892 28.9017 19.8492 29.0417 19.8092V21.3092C29.0417 22.0192 29.5217 22.4792 30.2217 22.4792H31.0517C31.7417 22.4792 32.2417 22.0192 32.2417 21.3092V12.3592C32.2417 10.0992 31.2117 8.7192 29.2617 8.3292V3.7692C29.2617 1.3092 27.9217 -0.0008 25.4317 -0.0008H6.8117C4.3117 -0.0008 2.9717 1.3092 2.9717 3.7692V8.3292C1.0317 8.7192 0.0017 10.0992 0.0017 12.3592V21.3092C0.0017 22.0192 0.4917 22.4792 1.1817 22.4792ZM6.4217 6.1092C6.4217 4.8192 7.1017 4.1492 8.4017 4.1492H13.0117C14.3117 4.1492 14.9917 4.8192 14.9917 6.1092V8.2192H6.4217ZM17.2517 6.1092C17.2517 4.8192 17.9317 4.1492 19.2317 4.1492H23.8317C25.1417 4.1492 25.8117 4.8192 25.8117 6.1092V8.2192H17.2517ZM3.9917 16.6992C3.6517 16.6992 3.4817 16.5092 3.4817 16.1492V12.6792C3.4817 11.9092 3.9917 11.3992 4.7417 11.3992H27.4917C28.2417 11.3992 28.7617 11.9092 28.7617 12.6792V16.1492C28.7617 16.5092 28.5817 16.6992 28.2417 16.6992Z" />
        </svg>
    