
        <svg xmlns="http://www.w3.org/2000/svg" viewBox="0 0 100 100">
            <path d="M2.8917 6.7377H5.9517V5.1077C5.9517 3.9877 6.5717 3.3777 7.7217 3.3777H12.0617C13.1917 3.3777 13.8317 3.9877 13.8317 5.1077V6.7377H16.4617V5.1077C16.4617 3.9877 17.0817 3.3777 18.2817 3.3777H22.3917C23.5917 3.3777 24.2217 3.9877 24.2217 5.1077V6.7377H27.2817V3.3777C27.2817 1.1477 26.0817 -0.0023 23.9017 -0.0023H6.2617C4.0917 -0.0023 2.8917 1.1477 2.8917 3.3777ZM0.0017 19.2277C0.0017 19.8677 0.4117 20.2577 1.0317 20.2577H1.7617C2.3817 20.2577 2.7917 19.8677 2.7917 19.2277V17.5477C2.9217 17.5777 3.3317 17.5977 3.6217 17.5977H26.5317C26.8217 17.5977 27.2317 17.5777 27.3717 17.5477V19.2277C27.3717 19.8677 27.7817 20.2577 28.4017 20.2577H29.1217C29.7517 20.2577 30.1517 19.8677 30.1517 19.2277V12.1177C30.1517 9.7977 28.8717 8.5277 26.5317 8.5277H3.6217C1.2817 8.5277 0.0017 9.7977 0.0017 12.1177Z" />
        </svg>
    