
        <svg xmlns="http://www.w3.org/2000/svg" viewBox="0 0 100 100">
            <path d="M0.7617 17.8706H1.2917C1.7817 17.8706 2.0517 17.6006 2.0517 17.1006V15.1606C2.1517 15.1906 2.3117 15.2006 2.4517 15.2006H25.8617C26.0017 15.2006 26.1517 15.1906 26.2617 15.1606V17.1006C26.2617 17.6006 26.5317 17.8706 27.0217 17.8706H27.5517C28.0517 17.8706 28.3117 17.6006 28.3117 17.1006V9.1506C28.3117 7.5806 27.4717 6.6806 25.9917 6.6806H25.4417V2.8006C25.4417 0.8806 24.4417 0.0006 22.8617 0.0006H5.4517C3.8717 0.0006 2.8717 0.8806 2.8717 2.8006V6.6806H2.3217C0.8417 6.6806 0.0017 7.5806 0.0017 9.1506V17.1006C0.0017 17.6006 0.2617 17.8706 0.7617 17.8706ZM5.7517 4.3606C5.7517 3.4006 6.3417 2.7906 7.2917 2.7906H11.5117C12.4417 2.7906 13.0417 3.4006 13.0417 4.3606V6.6806H5.7517ZM15.2717 4.3606C15.2717 3.4006 15.8717 2.7906 16.8017 2.7906H21.0217C21.9717 2.7906 22.5617 3.4006 22.5617 4.3606V6.6806H15.2717ZM1.2217 14.3506C1.0117 14.3506 0.8817 14.2106 0.8817 13.9806V9.0806C0.8817 8.1106 1.4017 7.5106 2.3017 7.5106H26.0117C26.9017 7.5106 27.4317 8.1106 27.4317 9.0806V13.9806C27.4317 14.2106 27.3017 14.3506 27.0917 14.3506Z" />
        </svg>
    