
        <svg xmlns="http://www.w3.org/2000/svg" viewBox="0 0 100 100">
            <path d="M11.9523 23.9023C18.5523 23.9023 23.9023 18.5523 23.9023 11.9523C23.9023 5.3623 18.5523 0.0023 11.9523 0.0023C5.3623 0.0023 0.0023 5.3623 0.0023 11.9523C0.0023 18.5523 5.3623 23.9023 11.9523 23.9023ZM6.0423 10.3523V8.7023C6.0423 7.6523 6.6123 7.1023 7.6423 7.1023H16.2623C17.2923 7.1023 17.8723 7.6523 17.8723 8.7023V10.3523H16.4023V9.5423C16.4023 9.0023 16.1123 8.6923 15.5123 8.6923H13.5123C12.9423 8.6923 12.6423 9.0023 12.6423 9.5423V10.3523H11.3323V9.5423C11.3323 9.0023 11.0423 8.6923 10.5023 8.6923H8.3523C7.7923 8.6923 7.5123 9.0023 7.5123 9.5423V10.3523ZM4.6523 16.3023V12.8823C4.6523 11.7923 5.2723 11.1723 6.3723 11.1723H17.5323C18.6323 11.1723 19.2523 11.7923 19.2523 12.8823V16.3023C19.2523 16.6023 19.0523 16.7923 18.7523 16.7923H18.4223C18.1323 16.7923 17.9323 16.6023 17.9323 16.3023V15.4523C17.8623 15.4723 17.6723 15.4723 17.5323 15.4723H6.3723C6.2323 15.4723 6.0423 15.4723 5.9723 15.4523V16.3023C5.9723 16.6023 5.7823 16.7923 5.4823 16.7923H5.1523C4.8623 16.7923 4.6523 16.6023 4.6523 16.3023Z" />
        </svg>
    