
        <svg xmlns="http://www.w3.org/2000/svg" viewBox="0 0 100 100">
            <path d="M3.6817 21.5722H17.8917C20.3517 21.5722 21.5717 20.3722 21.5717 17.9522V3.6322C21.5717 1.2222 20.3517 0.0022 17.8917 0.0022H3.6817C1.2317 0.0022 0.0017 1.2222 0.0017 3.6322V17.9522C0.0017 20.3722 1.2317 21.5722 3.6817 21.5722ZM5.4917 15.1422C4.8617 15.1422 4.5017 14.8122 4.5017 14.3422C4.5017 13.6622 5.1817 13.0822 5.7517 12.4722C6.2017 12.0022 6.3017 11.0522 6.3517 10.3022C6.4017 7.7122 7.0917 5.9422 8.8617 5.2822C9.1417 4.4322 9.8217 3.7222 10.8017 3.7222C11.7917 3.7222 12.4817 4.4322 12.7517 5.2822C14.5217 5.9422 15.2217 7.7122 15.2717 10.3022C15.3117 11.0522 15.4017 12.0022 15.8517 12.4722C16.4517 13.0622 17.1117 13.6622 17.1117 14.3422C17.1117 14.8122 16.7417 15.1422 16.1217 15.1422ZM10.8017 17.9422C9.6717 17.9422 8.8517 17.1222 8.7617 16.1522H12.8517C12.7717 17.1222 11.9417 17.9422 10.8017 17.9422Z" />
        </svg>
    