
        <svg xmlns="http://www.w3.org/2000/svg" viewBox="0 0 100 100">
            <path d="M10.9033 -0.0005C9.2733 -0.0005 8.0833 1.1595 7.7233 2.7295C6.9933 2.9395 6.3833 3.2795 5.8833 3.7295L21.5233 19.3895C21.7033 19.2195 21.7833 18.9695 21.7833 18.6795C21.7833 17.4995 20.6533 16.4795 19.6633 15.4295C18.7133 14.3995 18.6233 12.2895 18.4233 10.4495C18.2233 6.5195 17.0533 3.6895 14.0633 2.7295C13.7033 1.1595 12.5233 -0.0005 10.9033 -0.0005ZM0.2133 1.8795L21.5233 23.1695C21.7933 23.4395 22.2533 23.4395 22.5133 23.1695C22.7933 22.8895 22.7933 22.4495 22.5133 22.1795L1.2033 0.8795C0.9333 0.6095 0.5033 0.5995 0.2133 0.8795C-0.0567 1.1495 -0.0567 1.6095 0.2133 1.8795ZM1.3733 19.8195H16.3733L3.8233 7.2395C3.5733 8.1995 3.4233 9.2695 3.3733 10.4495C3.1733 12.2895 3.0833 14.3995 2.1233 15.4295C1.1533 16.4795 0.0033 17.4995 0.0033 18.6795C0.0033 19.3595 0.5233 19.8195 1.3733 19.8195ZM10.9033 24.1195C12.7933 24.1195 14.1433 22.7595 14.3533 21.1895H7.4433C7.6533 22.7595 9.0033 24.1195 10.9033 24.1195Z" />
        </svg>
    