
        <svg xmlns="http://www.w3.org/2000/svg" viewBox="0 0 100 100">
            <path d="M4.3817 22.8467H18.4717C21.2617 22.8467 22.8517 21.2667 22.8517 18.4767V4.3667C22.8517 1.5867 21.2617 -0.0033 18.4717 -0.0033H4.3817C1.5917 -0.0033 0.0017 1.5867 0.0017 4.3667V18.4767C0.0017 21.2667 1.5917 22.8467 4.3817 22.8467ZM4.8717 19.2267C4.0417 19.2267 3.6217 18.8567 3.6217 17.9767V4.8867C3.6217 4.0067 4.0417 3.6367 4.8717 3.6367H17.9717C18.8017 3.6367 19.2217 4.0067 19.2217 4.8867V17.9767C19.2217 18.8567 18.8017 19.2267 17.9717 19.2267ZM6.6917 15.1867H16.1817C16.9217 15.1867 17.4017 14.7167 17.4017 14.0467C17.4017 13.3367 16.9217 12.7967 16.3317 12.3267C15.8517 11.9367 15.7817 11.0867 15.6217 10.0467C15.4117 8.1567 14.6917 6.7267 13.2817 6.2067C12.9817 5.4267 12.3017 4.8967 11.4417 4.8967C10.5617 4.8967 9.8917 5.4267 9.5817 6.2067C8.1817 6.7267 7.4317 8.1567 7.2417 10.0467C7.0917 11.0867 7.0117 11.9367 6.5317 12.3267C5.9517 12.7967 5.4717 13.3367 5.4717 14.0467C5.4717 14.7167 5.9517 15.1867 6.6917 15.1867ZM11.4417 17.9667C12.6017 17.9667 13.4417 17.1767 13.5117 16.2167H9.3617C9.4217 17.1767 10.2817 17.9667 11.4417 17.9667Z" />
        </svg>
    