
        <svg xmlns="http://www.w3.org/2000/svg" viewBox="0 0 100 100">
            <path d="M11.4777 -0.0048C9.7377 -0.0048 8.4177 1.1752 7.9077 2.7152C7.3277 2.9252 6.7977 3.2152 6.3377 3.5752L22.4377 19.6852C22.7577 19.3952 22.9477 18.9752 22.9477 18.4552C22.9477 17.1752 21.8477 16.1152 20.7777 15.1152C19.9177 14.3352 19.7377 12.6352 19.5477 10.9652C19.3077 6.7952 18.0077 3.7952 15.0277 2.7152C14.5177 1.1752 13.2077 -0.0048 11.4777 -0.0048ZM0.4677 2.5752L21.9277 23.9952C22.2977 24.3752 22.9077 24.3752 23.2777 23.9952C23.6377 23.6252 23.6477 23.0252 23.2777 22.6552L1.8277 1.2152C1.4677 0.8552 0.8477 0.8452 0.4677 1.2152C0.1077 1.5852 0.1077 2.2152 0.4677 2.5752ZM2.0577 20.2452H16.0277L3.7477 7.9652C3.5477 8.8552 3.4377 9.8652 3.3977 10.9652C3.1977 12.6352 3.0277 14.3352 2.1677 15.1152C1.0877 16.1152 -0.0023 17.1752 -0.0023 18.4552C-0.0023 19.5252 0.7977 20.2452 2.0577 20.2452ZM11.4777 25.1652C13.6077 25.1652 15.1477 23.6652 15.3077 21.9152H7.6277C7.7777 23.6652 9.3377 25.1652 11.4777 25.1652Z" />
        </svg>
    