
        <svg xmlns="http://www.w3.org/2000/svg" viewBox="0 0 100 100">
            <path d="M11.4923 22.9836C17.8123 22.9836 22.9823 17.8136 22.9823 11.4836C22.9823 5.1536 17.8123 0.0036 11.4923 0.0036C5.1723 0.0036 0.0023 5.1536 0.0023 11.4836C0.0023 17.8136 5.1723 22.9836 11.4923 22.9836ZM8.4823 7.0236C8.8323 6.6336 9.2823 6.3636 9.8423 6.2136C9.9923 5.3036 10.6423 4.6836 11.4823 4.6836C12.3323 4.6836 12.9723 5.3036 13.1223 6.2136C14.6923 6.6436 15.3723 8.0236 15.5623 9.8436C15.7523 11.2536 15.7023 12.7836 16.3823 13.5336C16.9223 14.1236 17.5123 14.6736 17.5123 15.3236C17.5123 15.5236 17.3623 15.6636 17.1523 15.6936ZM17.4523 17.9636L5.0023 5.5036C4.8723 5.3636 4.8523 5.1436 5.0023 4.9936C5.1423 4.8536 5.3823 4.8536 5.5223 4.9936L17.9623 17.4536C18.1023 17.6036 18.1023 17.8136 17.9623 17.9636C17.8223 18.1136 17.5923 18.1036 17.4523 17.9636ZM14.3323 15.7736H5.9023C5.6223 15.7736 5.4623 15.5936 5.4623 15.3436C5.4623 14.6736 6.0623 14.1236 6.5823 13.5336C7.2523 12.7736 7.2023 11.2536 7.4023 9.8436C7.4323 9.5236 7.4723 9.2436 7.5323 8.9636ZM11.4823 18.2136C10.4723 18.2136 9.8123 17.5636 9.6823 16.5736H13.3023C13.1623 17.5636 12.4923 18.2136 11.4823 18.2136Z" />
        </svg>
    