
        <svg xmlns="http://www.w3.org/2000/svg" viewBox="0 0 100 100">
            <path d="M11.4923 22.977C17.8323 22.977 22.9823 17.847 22.9823 11.497C22.9823 5.147 17.8323 -0.003 11.4923 -0.003C5.1423 -0.003 0.0023 5.147 0.0023 11.497C0.0023 17.847 5.1423 22.977 11.4923 22.977ZM11.4923 22.087C5.6323 22.087 0.8923 17.357 0.8923 11.497C0.8923 5.637 5.6323 0.887 11.4923 0.887C17.3523 0.887 22.0923 5.637 22.0923 11.497C22.0923 17.357 17.3523 22.087 11.4923 22.087ZM8.5123 7.057L17.1123 15.677C17.3323 15.657 17.4723 15.517 17.4723 15.317C17.4723 14.657 16.8823 14.107 16.3523 13.537C15.6723 12.787 15.7223 11.247 15.5423 9.847C15.3523 8.067 14.6723 6.677 13.1123 6.257C12.9623 5.357 12.3123 4.747 11.4823 4.747C10.6423 4.747 10.0123 5.357 9.8523 6.257C9.2923 6.407 8.8523 6.677 8.5123 7.057ZM17.4123 17.927C17.5523 18.067 17.7823 18.077 17.9223 17.927C18.0623 17.777 18.0623 17.567 17.9223 17.427L5.5523 5.047C5.4123 4.907 5.1923 4.907 5.0523 5.047C4.9023 5.187 4.9123 5.417 5.0523 5.547ZM14.3123 15.747L7.5623 8.987C7.5023 9.257 7.4523 9.537 7.4323 9.847C7.2323 11.247 7.2923 12.777 6.6123 13.537C6.0923 14.117 5.4923 14.657 5.4923 15.327C5.4923 15.577 5.6623 15.747 5.9323 15.747ZM11.4823 18.177C12.4823 18.177 13.1523 17.547 13.2823 16.547H9.6823C9.8223 17.547 10.4923 18.177 11.4823 18.177Z" />
        </svg>
    