
        <svg xmlns="http://www.w3.org/2000/svg" viewBox="0 0 100 100">
            <path d="M0.8272 19.6063H20.5172C21.0272 19.6063 21.3472 19.2963 21.3472 18.8363C21.3472 17.6463 20.2772 16.6563 19.3372 15.6163C18.1572 14.2963 18.1972 11.6163 17.8572 9.1063C17.5272 5.9262 16.3572 3.4662 13.5572 2.7063C13.2972 1.0862 12.1772 -0.0038 10.6772 -0.0038C9.1772 -0.0038 8.0472 1.0862 7.7972 2.7063C4.9972 3.4662 3.8172 5.9262 3.4772 9.1063C3.1572 11.6163 3.1972 14.2963 2.0072 15.6163C1.0772 16.6563 -0.0028 17.6463 -0.0028 18.8363C-0.0028 19.2963 0.3272 19.6063 0.8272 19.6063ZM10.6772 23.3763C12.4572 23.3763 13.6772 22.1462 13.9472 20.6563H7.4072C7.6772 22.1462 8.8972 23.3763 10.6772 23.3763Z" />
        </svg>
    