
        <svg xmlns="http://www.w3.org/2000/svg" viewBox="0 0 100 100">
            <path d="M10.9323 18.8364C10.9323 20.2764 11.9423 21.2364 13.5023 21.2364H17.9323C18.0223 23.4464 20.0523 25.7064 23.3123 25.7064C26.5623 25.7064 28.5923 23.4464 28.7023 21.2364H33.1123C34.6723 21.2364 35.6923 20.2764 35.6923 18.8364C35.6923 17.3564 34.6923 16.2464 33.4923 15.2764C32.4923 14.4864 32.3323 13.0164 32.0023 10.5464C31.6123 6.6764 30.0323 3.7664 27.1423 2.7264C26.5423 1.0764 25.1123 -0.0036 23.3123 -0.0036C21.5023 -0.0036 20.0823 1.0764 19.4723 2.7264C16.5823 3.7664 15.0023 6.6764 14.6123 10.5464C14.2823 13.0164 14.1223 14.4864 13.1223 15.2764C11.9323 16.2464 10.9323 17.3564 10.9323 18.8364ZM15.4223 17.8664V17.7564C16.0123 17.4464 16.6123 17.0164 17.0823 16.4164C17.7823 15.5464 18.0923 13.2864 18.2823 11.2664C18.5323 7.6764 19.7923 6.2364 21.3023 5.8364C21.5623 5.7664 21.7223 5.6464 21.7823 5.2664C21.9023 4.1764 22.4523 3.5364 23.3123 3.5364C24.1623 3.5364 24.7123 4.1764 24.8323 5.2664C24.8923 5.6464 25.0523 5.7664 25.3123 5.8364C26.8223 6.2364 28.0923 7.6764 28.3523 11.2664C28.5223 13.2864 28.8623 15.5464 29.5323 16.4164C29.9923 17.0164 30.5023 17.4464 31.1023 17.7564V17.8664ZM41.5923 20.8364C42.1023 21.4764 43.0123 21.5764 43.7823 20.7864C45.6823 18.8364 46.6123 15.9364 46.6123 12.8564C46.6123 9.7964 45.5623 6.8064 43.7823 4.9364C43.0323 4.1364 42.1123 4.2564 41.5923 4.8764C41.1123 5.4564 41.2623 6.1764 41.7923 6.7464C43.1723 8.2764 43.9423 10.4764 43.9423 12.8564C43.9423 15.2464 43.1723 17.4364 41.7923 18.9564C41.2723 19.5464 41.1223 20.2664 41.5923 20.8364ZM5.0323 20.8364C5.5123 20.2664 5.3523 19.5464 4.8323 18.9564C3.4523 17.4364 2.6823 15.2464 2.6823 12.8564C2.6823 10.4764 3.4423 8.2764 4.8323 6.7464C5.3623 6.1764 5.5123 5.4564 5.0323 4.8764C4.5023 4.2564 3.5823 4.1364 2.8323 4.9364C1.0623 6.8064 0.0023 9.7964 0.0023 12.8564C0.0023 15.9364 0.9423 18.8364 2.8323 20.7864C3.6123 21.5764 4.5123 21.4764 5.0323 20.8364ZM37.7323 17.4264C38.2223 18.0664 39.2123 18.1064 39.9023 17.3664C40.8623 16.3164 41.3623 14.6364 41.3623 12.8564C41.3623 11.0764 40.8623 9.3864 39.9023 8.3364C39.2123 7.5964 38.2223 7.6364 37.7323 8.2864C37.3023 8.8464 37.4423 9.5264 37.8623 10.1264C38.3323 10.7664 38.6823 11.8964 38.6823 12.8564C38.6823 13.8164 38.3323 14.9364 37.8623 15.5764C37.4323 16.1764 37.3023 16.8564 37.7323 17.4264ZM8.8823 17.4264C9.3123 16.8564 9.1923 16.1764 8.7523 15.5764C8.2823 14.9364 7.9323 13.8164 7.9323 12.8564C7.9323 11.8964 8.2823 10.7664 8.7523 10.1264C9.1723 9.5264 9.3123 8.8464 8.8823 8.2864C8.4023 7.6364 7.4023 7.5964 6.7123 8.3364C5.7523 9.3864 5.2523 11.0764 5.2523 12.8564C5.2523 14.6364 5.7523 16.3164 6.7123 17.3664C7.4023 18.1064 8.4023 18.0664 8.8823 17.4264ZM21.3723 21.2364H25.2423C25.1623 22.3364 24.3723 23.0964 23.3123 23.0964C22.2423 23.0964 21.4523 22.3364 21.3723 21.2364Z" />
        </svg>
    