
        <svg xmlns="http://www.w3.org/2000/svg" viewBox="0 0 100 100">
            <path d="M12.2223 24.4436C18.9723 24.4436 24.4423 18.9736 24.4423 12.2236C24.4423 5.4736 18.9723 0.0036 12.2223 0.0036C5.4723 0.0036 0.0023 5.4736 0.0023 12.2236C0.0023 18.9736 5.4723 24.4436 12.2223 24.4436ZM12.2223 21.7636C6.9523 21.7636 2.6823 17.4936 2.6823 12.2236C2.6823 6.9536 6.9523 2.6836 12.2223 2.6836C17.4923 2.6836 21.7623 6.9536 21.7623 12.2236C21.7623 17.4936 17.4923 21.7636 12.2223 21.7636ZM9.5823 7.3636L18.0823 15.8536C18.1923 15.7136 18.2623 15.5436 18.2623 15.3236C18.2623 14.6436 17.6823 14.0936 17.1123 13.5536C16.6523 13.1336 16.5723 12.2336 16.4723 11.3636C16.3623 9.1336 15.6523 7.5336 14.0723 6.9536C13.8023 6.1336 13.1223 5.5236 12.2123 5.5236C11.2823 5.5236 10.6123 6.1336 10.3323 6.9536C10.0423 7.0536 9.7923 7.1836 9.5823 7.3636ZM17.3323 18.2336C17.5623 18.4736 17.9723 18.4736 18.2123 18.2336C18.4523 17.9836 18.4523 17.6036 18.2123 17.3536L7.0923 6.2236C6.8423 5.9736 6.4323 5.9736 6.1923 6.2236C5.9523 6.4536 5.9523 6.8636 6.1923 7.1036ZM13.9923 16.2536L8.0123 10.2936C7.9523 10.7036 7.9123 11.1336 7.9023 11.6136C7.8323 12.3536 7.7223 13.1636 7.3123 13.5536C6.7423 14.0936 6.1523 14.6436 6.1523 15.3236C6.1523 15.8836 6.5623 16.2536 7.2223 16.2536ZM12.2123 18.9936C13.3323 18.9936 14.1523 18.2136 14.2223 17.2636H10.1823C10.2523 18.2136 11.0823 18.9936 12.2123 18.9936Z" />
        </svg>
    