
        <svg xmlns="http://www.w3.org/2000/svg" viewBox="0 0 100 100">
            <path d="M-0.0028 18.8394C-0.0028 19.2994 0.3272 19.6094 0.8272 19.6094H7.1572C7.2072 21.7194 8.6372 23.2894 10.6772 23.2894C12.7072 23.2894 14.1472 21.7194 14.1872 19.6094H20.5172C21.0272 19.6094 21.3472 19.2994 21.3472 18.8394C21.3472 17.6494 20.2772 16.6494 19.3372 15.6194C18.1572 14.2994 18.1972 11.6094 17.8572 9.1094C17.5272 5.8994 16.3572 3.4694 13.5572 2.7094C13.3172 1.0894 12.1772 -0.0006 10.6772 -0.0006C9.1772 -0.0006 8.0372 1.0894 7.7972 2.7094C4.9972 3.4694 3.8172 5.8994 3.4772 9.1094C3.1572 11.6094 3.1972 14.2994 2.0072 15.6194C1.0772 16.6494 -0.0028 17.6494 -0.0028 18.8394ZM1.0072 18.7594V18.6494C1.0572 17.9994 1.9572 16.9794 2.6972 16.1994C4.0572 14.7794 3.9772 11.9194 4.3472 9.2494C4.7372 5.9094 5.8472 4.1494 7.9172 3.5894C8.3272 3.4694 8.5672 3.3294 8.6172 2.9494C8.7672 1.7794 9.4772 0.8394 10.6772 0.8394C11.8672 0.8394 12.5872 1.7794 12.7372 2.9494C12.7872 3.3294 13.0172 3.4694 13.4172 3.5894C15.5072 4.1494 16.6072 5.9094 16.9972 9.2494C17.3672 11.9194 17.2972 14.7794 18.6472 16.1994C19.3972 16.9794 20.2972 17.9994 20.3472 18.6494V18.7594ZM8.0172 19.6094H13.3272C13.2472 21.3594 12.1572 22.4894 10.6772 22.4894C9.1972 22.4894 8.1072 21.3594 8.0172 19.6094Z" />
        </svg>
    