
        <svg xmlns="http://www.w3.org/2000/svg" viewBox="0 0 100 100">
            <path d="M12.9923 20.4058H31.9523C33.3123 20.4058 34.1823 19.5958 34.1823 18.4058C34.1823 17.0658 33.1423 15.9858 32.0423 15.0258C31.1323 14.2358 30.9623 12.5358 30.7223 10.6858C30.4123 6.6958 29.0423 3.7458 26.1323 2.7058C25.5923 1.1358 24.2123 -0.0042 22.4723 -0.0042C20.7423 -0.0042 19.3623 1.1358 18.8223 2.7058C15.9123 3.7458 14.5423 6.6958 14.2223 10.6858C13.9923 12.5358 13.8123 14.2358 12.9123 15.0258C11.8123 15.9858 10.7723 17.0658 10.7723 18.4058C10.7723 19.5958 11.6323 20.4058 12.9923 20.4058ZM4.8523 20.7058C5.2923 20.1758 5.1523 19.5258 4.6623 18.9858C3.2223 17.3758 2.4123 15.1558 2.4123 12.7158C2.4123 10.2858 3.2123 8.0458 4.6623 6.4558C5.1723 5.9058 5.2923 5.2458 4.8523 4.7258C4.3823 4.1558 3.5523 4.0858 2.9023 4.7858C1.0823 6.7358 0.0023 9.6558 0.0023 12.7158C0.0023 15.7758 0.9923 18.6458 2.9023 20.6558C3.5723 21.3358 4.3823 21.2858 4.8523 20.7058ZM40.1023 20.7058C40.5723 21.2858 41.3923 21.3358 42.0423 20.6558C43.9523 18.6458 44.9523 15.7758 44.9523 12.7158C44.9523 9.6558 43.8723 6.7358 42.0423 4.7858C41.4023 4.0858 40.5723 4.1558 40.1023 4.7258C39.6523 5.2458 39.7923 5.9058 40.2923 6.4558C41.7423 8.0458 42.5423 10.2858 42.5423 12.7158C42.5423 15.1558 41.7323 17.3758 40.2923 18.9858C39.7923 19.5258 39.6523 20.1758 40.1023 20.7058ZM36.4323 17.3158C36.8923 17.8958 37.7823 17.9158 38.3823 17.2458C39.3623 16.1258 39.8923 14.4758 39.8923 12.7158C39.8923 10.9458 39.3623 9.2958 38.3823 8.1658C37.7823 7.4958 36.8923 7.5358 36.4323 8.1058C36.0223 8.6258 36.1723 9.2458 36.5723 9.8058C37.1223 10.5358 37.4723 11.6558 37.4723 12.7158C37.4723 13.7558 37.1223 14.8958 36.5723 15.6058C36.1723 16.1758 36.0223 16.8058 36.4323 17.3158ZM8.5223 17.3158C8.9323 16.8058 8.7823 16.1758 8.3823 15.6058C7.8323 14.8958 7.4723 13.7558 7.4723 12.7158C7.4723 11.6558 7.8323 10.5358 8.3823 9.8058C8.7823 9.2458 8.9323 8.6258 8.5223 8.1058C8.0623 7.5358 7.1723 7.4958 6.5723 8.1658C5.5923 9.2958 5.0623 10.9458 5.0623 12.7158C5.0623 14.4758 5.5923 16.1258 6.5723 17.2458C7.1723 17.9158 8.0623 17.8958 8.5223 17.3158ZM22.4723 25.4558C24.6923 25.4558 26.3123 23.9158 26.4523 22.1058H18.5023C18.6423 23.9158 20.2623 25.4558 22.4723 25.4558Z" />
        </svg>
    