
        <svg xmlns="http://www.w3.org/2000/svg" viewBox="0 0 100 100">
            <path d="M7.9117 25.4175C11.7917 25.4175 15.0217 22.6175 15.6817 18.9275H17.4917C17.9717 19.7975 18.9017 20.3675 19.9817 20.3675C21.5417 20.3675 22.7917 19.1175 22.7917 17.5675C22.7917 16.9575 22.5917 16.3875 22.2617 15.9275L28.0117 9.8075L28.3817 10.7575C26.0817 12.1375 24.5617 14.6475 24.5617 17.5175C24.5617 21.8875 28.1017 25.4175 32.4817 25.4175C36.8317 25.4175 40.3717 21.8775 40.3717 17.5175C40.3717 13.1475 36.8417 9.6175 32.4817 9.6175C31.8417 9.6175 31.2217 9.7075 30.6317 9.8475L27.0617 0.9975C26.7817 0.3075 26.2817 -0.0025 25.4517 -0.0025H21.7017C21.0217 -0.0025 20.4717 0.5475 20.4717 1.2275C20.4717 1.9175 21.0217 2.4775 21.7017 2.4775H24.9117C25.0317 2.4775 25.0617 2.4975 25.1017 2.5875L27.0917 7.5475L16.5317 8.9375L15.0017 6.1075H16.3717C17.0517 6.1075 17.6017 5.5575 17.6017 4.8775C17.6017 4.1975 17.0517 3.6475 16.3717 3.6475H10.7617C10.0917 3.6475 9.5317 4.1975 9.5317 4.8775C9.5317 5.5575 10.0817 6.1075 10.7617 6.1075H12.3017L13.9917 9.2775L12.3917 11.0075C11.1217 10.1375 9.5717 9.6175 7.9117 9.6175C3.5117 9.6175 0.0017 13.1475 0.0017 17.5175C0.0017 21.8875 3.5417 25.4175 7.9117 25.4175ZM19.9817 14.7575C19.8917 14.7575 19.7917 14.7675 19.7017 14.7675L17.7117 11.0975L24.6017 10.1975L20.1917 14.7675C20.1217 14.7575 20.0517 14.7575 19.9817 14.7575ZM15.7617 16.6175C15.5817 15.1075 15.0017 13.7375 14.1017 12.6075L15.1517 11.4875L17.5817 16.0675C17.4717 16.2375 17.3917 16.4175 17.3217 16.6175ZM7.9117 22.9375C4.9117 22.9375 2.5117 20.5275 2.5117 17.5175C2.5117 14.5275 4.9217 12.1175 7.9117 12.1175C8.9217 12.1175 9.8517 12.3875 10.6617 12.8675L8.0717 15.6575C8.0117 15.6475 7.9717 15.6475 7.9117 15.6475C6.8717 15.6475 6.0517 16.4575 6.0317 17.5075C6.0217 18.5475 6.8517 19.3975 7.9117 19.3975C8.3917 19.3975 8.8117 19.2175 9.1417 18.9275H13.1417C12.5117 21.2375 10.4217 22.9375 7.9117 22.9375ZM32.4817 22.9375C29.4717 22.9375 27.0617 20.5275 27.0617 17.5175C27.0617 15.7075 27.9617 14.0975 29.3317 13.1275L30.7717 16.7275C30.6717 16.9575 30.6017 17.2275 30.6017 17.5075C30.5817 18.5575 31.4217 19.3975 32.4817 19.3975C33.5117 19.3975 34.3517 18.5575 34.3517 17.5175C34.3517 16.6475 33.8017 15.9375 33.0017 15.7275L31.5817 12.1875C31.8717 12.1375 32.1817 12.1175 32.4817 12.1175C35.4617 12.1175 37.8717 14.5475 37.8717 17.5175C37.8717 20.5175 35.4617 22.9375 32.4817 22.9375ZM10.3317 16.6175L12.3617 14.4475C12.8117 15.0975 13.1117 15.8175 13.2417 16.6175ZM19.9817 18.3875C19.5117 18.3875 19.1417 18.0275 19.1417 17.5875C19.1417 17.1375 19.5217 16.7475 19.9817 16.7475C20.4417 16.7475 20.8017 17.1075 20.8017 17.5875C20.8017 18.0375 20.4517 18.3875 19.9817 18.3875Z" />
        </svg>
    