
        <svg xmlns="http://www.w3.org/2000/svg" viewBox="0 0 100 100">
            <path d="M11.9523 23.9041C18.5523 23.9041 23.9023 18.5341 23.9023 11.9541C23.9023 5.3541 18.5523 0.0041 11.9523 0.0041C5.3623 0.0041 0.0023 5.3541 0.0023 11.9541C0.0023 18.5341 5.3623 23.9041 11.9523 23.9041ZM4.1723 14.6441C4.1723 14.2041 4.2223 13.7941 4.4623 13.1941L7.0123 7.3041C7.3523 6.5141 8.0723 6.0441 8.9923 6.0441C10.1723 6.0441 10.9323 6.7941 10.9323 7.9141V8.5341C11.2423 8.4241 11.5923 8.3741 11.9423 8.3741C12.3123 8.3741 12.6523 8.4141 12.9523 8.5041V7.9141C12.9523 6.7941 13.7123 6.0441 14.8923 6.0441C15.8123 6.0441 16.5423 6.5141 16.8823 7.3041L19.4223 13.1941C19.6523 13.7941 19.7123 14.2041 19.7123 14.6441C19.7123 16.3441 18.2023 17.6241 16.3223 17.6241C14.4723 17.6241 12.9523 16.3441 12.9523 14.6441V13.0341C12.6823 12.9341 12.3423 12.8941 11.9423 12.8941C11.5823 12.8941 11.2123 12.9641 10.9323 13.0741V14.6441C10.9323 16.3441 9.4123 17.6241 7.5423 17.6241C5.6723 17.6241 4.1723 16.3441 4.1723 14.6441ZM10.9323 11.2641C11.2123 11.1241 11.5823 11.0641 11.9423 11.0641C12.3423 11.0641 12.6823 11.1141 12.9523 11.1941V10.3341C12.6523 10.2541 12.3123 10.2041 11.9423 10.2041C11.5923 10.2041 11.2223 10.2641 10.9323 10.3641ZM5.4223 14.6441C5.4223 15.6841 6.2823 16.3941 7.5423 16.3941C8.8323 16.3941 9.7023 15.6841 9.7023 14.6441C9.7023 13.6041 8.8323 12.8941 7.5423 12.8941C6.2823 12.8941 5.4223 13.6041 5.4223 14.6441ZM14.1723 14.6441C14.1723 15.6841 15.0423 16.3941 16.3223 16.3941C17.5923 16.3941 18.4523 15.6841 18.4523 14.6441C18.4523 13.6041 17.5923 12.8941 16.3223 12.8941C15.0423 12.8941 14.1723 13.6041 14.1723 14.6441Z" />
        </svg>
    