
        <svg xmlns="http://www.w3.org/2000/svg" viewBox="0 0 100 100">
            <path d="M0.0017 16.8406C0.0017 20.2806 3.0317 22.8906 6.8517 22.8906C10.6517 22.8906 13.6717 20.2806 13.6717 16.8406V14.3906C14.2417 14.2006 14.8917 14.1006 15.5817 14.1006C16.3517 14.1006 16.9617 14.1806 17.4817 14.3506V16.8606C17.4817 20.3006 20.5117 22.9006 24.3017 22.9006C28.1117 22.9006 31.1617 20.3006 31.1617 16.8606C31.1617 16.0206 30.9817 15.1006 30.5817 14.1406L25.9317 2.9606C25.1517 1.0506 23.6117 0.0106 21.6117 0.0106C19.1017 0.0106 17.4817 1.6406 17.4817 4.1406V4.8506C16.9117 4.7106 16.2817 4.6406 15.5817 4.6406C14.9317 4.6406 14.2817 4.7306 13.6717 4.8906V4.1106C13.6717 1.6306 12.0617 0.0006 9.5517 0.0006C7.5517 0.0006 6.0117 1.0306 5.2217 2.9406L0.5717 14.1206C0.1617 15.0906 0.0017 16.0106 0.0017 16.8406ZM4.8417 11.2006L7.9317 3.7706C8.2117 3.0906 8.7817 2.7206 9.4417 2.7206C10.2817 2.7206 10.8517 3.2806 10.8517 4.1206V12.0806C9.7817 11.2806 8.3717 10.8006 6.8517 10.8006C6.1617 10.8006 5.4617 10.9406 4.8417 11.2006ZM26.3217 11.2106C25.6917 10.9706 24.9917 10.8206 24.3017 10.8206C22.7917 10.8206 21.3717 11.3006 20.3017 12.0906V4.1406C20.3017 3.2906 20.8817 2.7306 21.7117 2.7306C22.3817 2.7306 22.9317 3.1006 23.2117 3.8006ZM15.5817 6.8306C16.3517 6.8306 16.9617 6.9106 17.4817 7.0906V8.4806C16.9117 8.3406 16.2817 8.2806 15.5817 8.2806C14.9317 8.2806 14.2817 8.3706 13.6717 8.5306V7.1206C14.2417 6.9406 14.8917 6.8306 15.5817 6.8306ZM15.5817 10.4806C16.3517 10.4806 16.9617 10.5506 17.4817 10.7206V12.1006C16.9117 11.9606 16.2817 11.8906 15.5817 11.8906C14.9317 11.8906 14.2817 11.9906 13.6717 12.1506V10.7706C14.2417 10.5806 14.8917 10.4806 15.5817 10.4806ZM2.8817 16.8406C2.8817 14.9106 4.5617 13.6006 6.8517 13.6006C9.1417 13.6006 10.8517 14.9106 10.8517 16.8406C10.8517 18.7806 9.1417 20.0906 6.8517 20.0906C4.5617 20.0906 2.8817 18.7706 2.8817 16.8406ZM28.2817 16.8606C28.2817 18.8006 26.6017 20.1006 24.3017 20.1006C22.0217 20.1006 20.3117 18.8006 20.3117 16.8606C20.3117 14.9206 22.0217 13.6206 24.3017 13.6206C26.6017 13.6206 28.2817 14.9206 28.2817 16.8606Z" />
        </svg>
    