
        <svg xmlns="http://www.w3.org/2000/svg" viewBox="0 0 100 100">
            <path d="M21.8193 8.1349C21.6193 8.1349 21.4293 8.1449 21.2593 8.1749C19.4993 4.6449 17.1393 2.1149 14.1493 0.3649C12.7593 -0.4351 11.3493 0.0949 10.9393 1.7049C10.5193 3.3549 10.2493 4.8949 10.2393 6.4449C7.6993 5.2249 4.9593 4.3949 2.2193 4.1849C0.3093 4.0649 0.0593 5.6649 0.0193 6.5349C-0.3507 12.8249 4.3493 18.5449 10.3993 19.6349C8.6193 22.9749 6.0093 25.5949 3.0293 27.8549C2.1493 28.5149 2.5393 29.6049 2.9193 30.2049C4.7193 33.0549 10.5193 35.1949 13.9093 34.0149C15.0493 33.6249 15.2093 32.8749 15.2093 32.1949V28.3249C18.6793 27.8749 23.8793 25.0149 23.1893 17.8849L23.1493 17.5349C24.4893 17.1249 25.6193 16.4249 26.3793 15.5549L29.6493 16.0349C30.8793 16.2149 31.4193 14.5149 30.1893 13.9849L27.4393 12.8149C27.3393 10.4749 24.7993 8.1349 21.8193 8.1349ZM13.5293 3.9949C13.5793 3.7649 13.7193 3.7049 13.9193 3.8449C15.7993 5.2249 17.2793 7.0349 18.5393 9.5449C18.0993 9.9949 17.7093 10.5749 17.3393 11.2749C16.1593 10.1749 14.8093 9.1349 13.3593 8.1949C13.1793 6.7849 13.2593 5.4649 13.5293 3.9949ZM21.9493 11.0349C23.4493 11.0349 24.6693 12.0949 24.6693 12.9749C24.6693 13.7249 23.7593 14.6249 21.1993 14.9949C20.3993 15.1049 20.0093 15.6049 20.0693 16.3049L20.1893 17.9649C20.6193 24.1249 15.9593 25.0449 13.2793 25.2849C12.5693 25.3349 12.1493 25.8649 12.1493 26.4649V31.1849C12.1493 31.4449 12.0993 31.5649 11.7593 31.5849C10.4893 31.6749 6.9893 30.4249 6.1493 29.3149C5.9993 29.0849 6.0193 28.9649 6.1293 28.8749C9.2693 26.5249 12.2293 23.1349 14.0393 18.8549C14.4693 17.8749 13.9293 17.0349 12.9893 17.0349C7.5893 17.0149 3.5093 13.0649 3.0893 7.6349C3.0793 7.3949 3.1893 7.3549 3.3893 7.3949C8.2093 8.2049 12.6393 10.9749 15.4993 13.6549C16.2393 14.3549 16.7093 14.6249 17.3893 14.6249C18.4893 14.6249 19.0493 14.1249 19.6193 12.9649C20.1393 11.8749 20.6593 11.0349 21.9493 11.0349ZM22.6693 13.4449C23.1093 13.4449 23.4793 13.0949 23.4793 12.6449C23.4793 12.2149 23.1093 11.8249 22.6693 11.8249C22.2293 11.8249 21.8493 12.2149 21.8493 12.6449C21.8493 13.0949 22.2293 13.4449 22.6693 13.4449Z" />
        </svg>
    