
        <svg xmlns="http://www.w3.org/2000/svg" viewBox="0 0 100 100">
            <path d="M11.3523 22.7147C17.6023 22.7147 22.7123 17.6047 22.7123 11.3547C22.7123 5.1047 17.6023 0.0047 11.3523 0.0047C5.1123 0.0047 0.0023 5.1047 0.0023 11.3547C0.0023 17.6047 5.1123 22.7147 11.3523 22.7147ZM10.2623 6.3447C10.2423 5.3547 10.3823 4.4147 10.6523 3.6247C10.7423 3.3947 10.9423 3.3047 11.2023 3.4447C12.6823 4.2647 13.7323 5.3947 14.5223 7.0147C14.0623 7.1947 13.5923 7.5847 13.0923 8.3547C12.3623 7.6447 11.3923 6.9247 10.2623 6.3447ZM15.3323 7.3847C16.5623 7.3847 17.4823 8.3747 17.5323 9.2647L18.8423 9.7747C19.0923 9.8747 19.0223 10.2347 18.7723 10.1947L17.2523 9.9947C16.9023 10.4047 16.2523 10.7847 15.3823 10.9647L15.5423 11.7147C16.1723 15.0147 13.4923 16.0047 11.5523 15.9947V18.5347C11.5523 18.7847 11.4523 18.8447 11.2823 18.9047C9.8423 19.3947 7.7323 18.7947 7.0823 17.7447C6.9423 17.5647 6.9523 17.3947 7.0923 17.2847C8.7423 15.7347 10.2223 13.5447 11.0323 11.6347C7.5923 11.3647 5.0523 8.9447 5.2923 5.8047C5.3123 5.5447 5.4423 5.4147 5.7223 5.4247C8.7623 5.6647 11.7623 7.5047 13.1923 9.1747C13.9823 7.6247 14.6023 7.3847 15.3323 7.3847ZM15.6023 8.9147C15.6023 9.1047 15.7523 9.2447 15.9223 9.2447C16.0923 9.2447 16.2523 9.1047 16.2523 8.9147C16.2523 8.7547 16.0923 8.6147 15.9223 8.6147C15.7523 8.6147 15.6023 8.7547 15.6023 8.9147Z" />
        </svg>
    