
        <svg xmlns="http://www.w3.org/2000/svg" viewBox="0 0 100 100">
            <path d="M17.1673 6.7722C15.6773 3.7622 13.7073 1.6522 10.9673 0.1222C10.5173 -0.1278 10.1173 0.0222 9.9673 0.4622C9.4673 1.9122 9.2173 3.7022 9.2573 5.4922C11.3273 6.5822 13.1573 7.9222 14.4873 9.2422C15.4073 7.8022 16.2873 7.0922 17.1673 6.7722ZM18.6673 7.4222C17.2973 7.4222 16.1373 7.9022 14.6673 10.7322C12.0273 7.6622 6.4873 4.2522 0.7973 3.8322C0.3073 3.8022 0.0573 4.0322 0.0273 4.4922C-0.4227 10.3522 4.2773 14.8122 10.6573 15.3122C9.1673 18.8422 6.4273 22.9022 3.3673 25.7922C3.1273 26.0122 3.0873 26.3122 3.3073 26.6622C4.5673 28.5922 8.4673 29.7322 11.1673 28.7822C11.4473 28.6922 11.6373 28.5822 11.6373 28.1422V23.3922C15.2273 23.4022 20.2173 21.5722 19.0173 15.4622L18.7473 14.0722C20.3373 13.7622 21.5373 13.0822 22.1773 12.3122L25.0073 12.6422C25.4673 12.7122 25.6273 12.0622 25.1473 11.8722L22.7173 10.9122C22.6273 9.2822 20.8973 7.4222 18.6673 7.4222ZM19.7573 10.9122C19.4273 10.9122 19.1573 10.6422 19.1573 10.3122C19.1573 9.9822 19.4273 9.7122 19.7573 9.7122C20.0773 9.7122 20.3473 9.9822 20.3473 10.3122C20.3473 10.6422 20.0773 10.9122 19.7573 10.9122Z" />
        </svg>
    