
        <svg xmlns="http://www.w3.org/2000/svg" viewBox="0 0 100 100">
            <path d="M19.9998 7.6374C19.7298 7.6374 19.4598 7.6574 19.2098 7.7074C17.5898 4.3074 15.4098 1.9074 12.5398 0.2474C11.5498 -0.3126 10.5498 0.0974 10.2598 1.1774C9.7998 2.9374 9.5498 4.5974 9.6098 6.3074C7.0998 5.0174 4.3498 4.1274 1.5798 3.9174C0.2598 3.8374 0.0598 4.8774 0.0198 5.6074C-0.3502 11.5474 4.2298 16.7774 10.1198 17.5174C8.5298 20.9374 6.3598 24.0974 3.4398 26.7574C2.8998 27.2274 3.0798 27.9174 3.3898 28.3874C4.8398 30.6474 9.4298 32.0674 12.4298 31.0274C13.2198 30.7574 13.3498 30.3074 13.3498 29.7474V25.4874C16.5898 25.2574 21.6798 23.0074 20.8698 16.3974L20.7798 15.6574C22.1198 15.3074 23.2398 14.6574 23.9498 13.8574L27.2398 14.3274C28.1098 14.4574 28.5298 13.1774 27.6298 12.8074L24.8398 11.6174C24.7398 9.6574 22.5798 7.6374 19.9998 7.6374ZM11.9298 2.5874C11.9598 2.3574 12.1598 2.2874 12.3498 2.4074C14.4898 3.8374 16.1498 5.7674 17.4698 8.5274C16.8598 9.0374 16.3298 9.8074 15.8798 10.8074C14.6698 9.6274 13.2398 8.4774 11.6598 7.4774C11.4198 5.7874 11.5398 4.2374 11.9298 2.5874ZM20.1198 9.5374C21.7498 9.5374 22.9698 10.7174 22.9698 11.7674C22.9698 12.6374 21.8298 13.6474 19.5098 13.9774C19.0798 14.0174 18.7998 14.3274 18.8298 14.7174L18.9698 16.4474C19.4698 22.4974 14.8098 23.3574 12.0898 23.5174C11.6798 23.5374 11.3998 23.8174 11.3998 24.2174V29.2674C11.3998 29.4174 11.3498 29.5174 11.1798 29.5374C9.0898 29.8874 6.4298 28.9874 5.3198 27.7874C5.2198 27.6874 5.1998 27.5574 5.2998 27.4774C8.4598 24.5674 10.7698 20.9374 12.4098 16.9974C12.6798 16.3774 12.4098 15.8574 11.7898 15.8474C6.2298 15.7274 2.0698 11.6574 1.9598 6.1374C1.9598 5.9474 1.9998 5.8974 2.1898 5.9374C7.1198 6.5674 11.7498 9.3674 14.4698 12.1374C14.9898 12.6474 15.3598 12.8974 15.8698 12.8974C16.6898 12.8974 17.0798 12.4974 17.5098 11.6574C18.1498 10.2974 18.7398 9.5374 20.1198 9.5374ZM20.8698 12.1074C21.2698 12.1074 21.6098 11.7874 21.6098 11.3874C21.6098 10.9874 21.2698 10.6374 20.8698 10.6374C20.4698 10.6374 20.1298 10.9874 20.1298 11.3874C20.1298 11.7874 20.4698 12.1074 20.8698 12.1074Z" />
        </svg>
    