
        <svg xmlns="http://www.w3.org/2000/svg" viewBox="0 0 100 100">
            <path d="M1.1117 27.554H27.0517C27.6517 27.554 28.1517 27.054 28.1517 26.444C28.1517 25.834 27.6517 25.324 27.0517 25.324H26.1717V19.244C26.1717 16.764 24.8817 15.484 22.3717 15.484H22.0617V13.154C22.0617 10.674 20.7817 9.404 18.2617 9.404H14.8617V4.584C15.4117 4.284 15.7717 3.634 15.7717 2.874C15.7717 1.804 15.4417 1.104 14.8517 0.424C14.4117 -0.126 13.8017 -0.126 13.3617 0.344C12.7717 1.054 12.3717 1.764 12.3717 2.874C12.3717 3.624 12.7417 4.254 13.2817 4.574V9.404H9.8917C7.3817 9.404 6.0817 10.674 6.0817 13.154V15.484H5.7917C3.2817 15.484 1.9817 16.764 1.9817 19.244V25.324H1.1117C0.5017 25.324 0.0017 25.834 0.0017 26.444C0.0017 27.054 0.5017 27.554 1.1117 27.554ZM8.3117 13.264C8.3117 12.164 8.8817 11.614 9.9217 11.614H18.2317C19.2817 11.614 19.8517 12.164 19.8517 13.264V15.484H8.3117ZM14.0717 19.764C12.3517 19.764 11.7917 21.124 10.3917 21.124C9.2417 21.124 8.6117 19.764 6.9117 19.764C5.7217 19.764 4.9617 20.444 4.2117 20.854V19.354C4.2117 18.264 4.7817 17.714 5.8217 17.714H22.3317C23.3817 17.714 23.9517 18.264 23.9517 19.354V20.854C23.2017 20.454 22.4317 19.764 21.2317 19.764C19.5317 19.764 18.9117 21.124 17.7517 21.124C16.3717 21.124 15.8017 19.764 14.0717 19.764ZM14.0717 21.724C15.1417 21.724 15.9617 23.084 17.7517 23.084C19.4917 23.084 20.2517 21.724 21.2317 21.724C22.0417 21.724 22.7017 22.634 23.9517 22.974V25.324H4.2117V22.974C5.4517 22.634 6.1217 21.724 6.9117 21.724C7.9017 21.724 8.6717 23.084 10.3917 23.084C12.1917 23.084 13.0217 21.724 14.0717 21.724Z" />
        </svg>
    