
        <svg xmlns="http://www.w3.org/2000/svg" viewBox="0 0 100 100">
            <path d="M5.7617 13.3872H20.6117V12.0472C20.6117 10.0072 19.5117 8.9172 17.4517 8.9172H13.7017V4.0472C14.2417 3.8172 14.6117 3.2272 14.6117 2.5272C14.6117 1.6072 14.3217 0.9972 13.7417 0.3172C13.4017 -0.0928 13.0217 -0.0928 12.6917 0.2672C12.1017 0.9572 11.7617 1.5672 11.7617 2.5272C11.7617 3.2172 12.1317 3.7872 12.6317 4.0272V8.9172H8.9417C6.8817 8.9172 5.7617 10.0072 5.7617 12.0472ZM21.3917 14.7472H5.0017C2.9417 14.7472 1.8317 15.8572 1.8317 17.8872V20.2372H2.2017C3.8517 20.2372 4.5917 18.8972 6.1517 18.8972C7.6717 18.8972 8.3017 20.2372 9.6017 20.2372C11.0417 20.2372 11.6117 18.8972 13.1717 18.8972C14.7317 18.8972 15.2917 20.2372 16.7417 20.2372C18.0517 20.2372 18.6517 18.8972 20.2017 18.8972C21.7417 18.8972 22.4717 20.2372 24.1317 20.2372H24.5517V17.8872C24.5517 15.8572 23.4517 14.7472 21.3917 14.7472ZM0.7217 25.8472H25.6517C26.0517 25.8472 26.3817 25.5172 26.3817 25.1272C26.3817 24.7272 26.0517 24.3972 25.6517 24.3972H24.5517V21.4572H24.1317C22.0417 21.4572 21.2817 20.1272 20.2017 20.1272C19.1117 20.1272 18.3517 21.4572 16.7417 21.4572C15.0917 21.4572 14.3017 20.1272 13.1717 20.1272C12.0517 20.1272 11.2417 21.4572 9.6017 21.4572C7.9917 21.4572 7.2217 20.1272 6.1517 20.1272C5.0617 20.1272 4.2917 21.4572 2.2017 21.4572H1.8317V24.3972H0.7217C0.3317 24.3972 0.0017 24.7272 0.0017 25.1272C0.0017 25.5172 0.3317 25.8472 0.7217 25.8472Z" />
        </svg>
    