
        <svg xmlns="http://www.w3.org/2000/svg" viewBox="0 0 100 100">
            <path d="M7.1817 16.211H26.2517V15.541C26.2517 12.311 24.5417 10.621 21.2717 10.621H18.1517V5.971C18.7717 5.481 19.1617 4.691 19.1617 3.771C19.1617 2.421 18.7117 1.471 18.0017 0.671C17.3117 -0.199 16.2117 -0.209 15.4917 0.571C14.8217 1.391 14.2817 2.331 14.2817 3.771C14.2817 4.671 14.6717 5.471 15.2817 5.961V10.621H12.1617C8.9017 10.621 7.1817 12.301 7.1817 15.541ZM25.8917 18.141H7.5617C4.2917 18.141 2.5617 19.811 2.5617 23.061V24.681H3.1717C5.0617 24.681 6.1617 22.961 8.0617 22.961C9.9617 22.961 10.8717 24.681 12.3717 24.681C13.9117 24.681 14.8117 22.961 16.7217 22.961C18.6217 22.961 19.5317 24.681 21.0617 24.681C22.5617 24.681 23.4817 22.961 25.3817 22.961C27.2717 22.961 28.3717 24.681 30.2717 24.681H30.8717V23.061C30.8717 19.831 29.1517 18.141 25.8917 18.141ZM1.8717 32.131H31.5617C32.6017 32.131 33.4317 31.291 33.4317 30.261C33.4317 29.211 32.6017 28.381 31.5617 28.381H30.8717V26.621H30.2717C27.7817 26.621 26.8217 24.901 25.3817 24.901C24.0617 24.901 22.9817 26.621 21.0617 26.621C19.1417 26.621 18.0517 24.901 16.7217 24.901C15.3917 24.901 14.3017 26.621 12.3717 26.621C10.4617 26.621 9.3917 24.901 8.0617 24.901C6.6117 24.901 5.6517 26.621 3.1717 26.621H2.5617V28.381H1.8717C0.8317 28.381 0.0017 29.211 0.0017 30.261C0.0017 31.291 0.8317 32.131 1.8717 32.131Z" />
        </svg>
    