
        <svg xmlns="http://www.w3.org/2000/svg" viewBox="0 0 100 100">
            <path d="M3.6817 21.5722H17.8917C20.3517 21.5722 21.5717 20.3722 21.5717 17.9522V3.6322C21.5717 1.2222 20.3517 0.0022 17.8917 0.0022H3.6817C1.2317 0.0022 0.0017 1.2222 0.0017 3.6322V17.9522C0.0017 20.3722 1.2317 21.5722 3.6817 21.5722ZM3.7017 19.6922C2.5317 19.6922 1.8917 19.0622 1.8917 17.8522V3.7422C1.8917 2.5222 2.5317 1.8822 3.7017 1.8822H17.8717C19.0317 1.8822 19.6917 2.5222 19.6917 3.7422V17.8522C19.6917 19.0622 19.0317 19.6922 17.8717 19.6922ZM8.3517 15.9522H9.0017V17.1022C9.0017 17.3222 9.1617 17.4822 9.4017 17.4822C9.6217 17.4822 9.7817 17.3222 9.7817 17.1022V15.9522H10.9017V17.1022C10.9017 17.3222 11.0617 17.4822 11.2817 17.4822C11.5317 17.4822 11.6817 17.3222 11.6817 17.1022V15.9422C13.5217 15.8122 14.8317 14.8622 14.8317 13.0622C14.8317 11.6922 13.8717 10.7022 12.4117 10.5322V10.4622C13.5617 10.2822 14.3117 9.2422 14.3117 8.2122C14.3117 6.7022 13.1817 5.8222 11.6817 5.6722V4.5322C11.6817 4.2922 11.5317 4.1222 11.2817 4.1222C11.0617 4.1222 10.9017 4.2922 10.9017 4.5322V5.6522H9.7817V4.5322C9.7817 4.2922 9.6217 4.1222 9.4017 4.1222C9.1617 4.1222 9.0017 4.2922 9.0017 4.5322V5.6522H8.3517C7.8517 5.6522 7.5017 6.0022 7.5017 6.5022V15.0922C7.5017 15.6122 7.8517 15.9522 8.3517 15.9522ZM8.8817 10.0822V6.7922H10.9117C12.0317 6.7922 12.9217 7.2422 12.9217 8.3822C12.9217 9.6422 11.8617 10.0822 10.5817 10.0822ZM8.8817 14.7922V11.2022H10.9017C12.2717 11.2022 13.4417 11.6322 13.4417 12.9922C13.4417 14.3322 12.3517 14.7922 11.0117 14.7922Z" />
        </svg>
    