
        <svg xmlns="http://www.w3.org/2000/svg" viewBox="0 0 100 100">
            <path d="M12.2223 24.4436C18.9723 24.4436 24.4423 18.9736 24.4423 12.2236C24.4423 5.4736 18.9723 0.0036 12.2223 0.0036C5.4723 0.0036 0.0023 5.4736 0.0023 12.2236C0.0023 18.9736 5.4723 24.4436 12.2223 24.4436ZM12.2223 21.7636C6.9523 21.7636 2.6823 17.4936 2.6823 12.2236C2.6823 6.9536 6.9523 2.6836 12.2223 2.6836C17.4923 2.6836 21.7623 6.9536 21.7623 12.2236C21.7623 17.4936 17.4923 21.7636 12.2223 21.7636ZM9.7723 17.2836H10.5223V18.4236C10.5223 18.6336 10.6723 18.7836 10.8823 18.7836C11.1023 18.7836 11.2523 18.6336 11.2523 18.4236V17.2836H12.3623V18.4236C12.3623 18.6336 12.5123 18.7836 12.7223 18.7836C12.9423 18.7836 13.0923 18.6336 13.0923 18.4236V17.2836C14.9923 17.2136 16.3923 16.2436 16.3923 14.4236C16.3923 13.0636 15.3823 12.0836 13.9823 11.9536V11.8936C15.1123 11.7236 15.9023 10.7336 15.9023 9.6836C15.9023 8.0936 14.6523 7.2536 13.0923 7.1636V6.0336C13.0923 5.8136 12.9423 5.6636 12.7223 5.6636C12.5123 5.6636 12.3623 5.8136 12.3623 6.0336V7.1636H11.2523V6.0336C11.2523 5.8136 11.1023 5.6636 10.8823 5.6636C10.6723 5.6636 10.5223 5.8136 10.5223 6.0336V7.1636H9.7723C9.1423 7.1636 8.7523 7.5736 8.7523 8.2036V16.2436C8.7523 16.8736 9.1423 17.2836 9.7723 17.2836ZM10.5723 11.4236V8.5436H12.3423C13.3523 8.5436 14.1023 8.9636 14.1023 9.9336C14.1023 11.0236 13.1823 11.4236 12.0923 11.4236ZM10.5723 15.8936V12.7036H12.3723C13.5723 12.7036 14.5523 13.1136 14.5523 14.2936C14.5523 15.4736 13.6523 15.8936 12.4523 15.8936Z" />
        </svg>
    