
        <svg xmlns="http://www.w3.org/2000/svg" viewBox="0 0 100 100">
            <path d="M13.8623 4.8473C15.9723 4.8473 17.9223 5.5773 19.4523 6.7973C19.7023 6.9873 20.0023 6.9573 20.2223 6.7373L22.8123 4.1573C23.0823 3.8873 23.0723 3.5073 22.7923 3.2573C20.3823 1.2273 17.2623 -0.0027 13.8623 -0.0027C10.4723 -0.0027 7.3523 1.2273 4.9423 3.2573C4.6523 3.5073 4.6523 3.8873 4.9223 4.1573L7.5123 6.7373C7.7323 6.9573 8.0523 6.9873 8.3123 6.7773C9.8423 5.5773 11.7823 4.8473 13.8623 4.8473ZM0.0023 13.8773C0.0023 17.2773 1.2323 20.4073 3.2723 22.8173C3.5123 23.0973 3.9023 23.1073 4.1723 22.8373L6.7923 20.2073C6.9823 19.9873 7.0123 19.7273 6.8323 19.4973C5.5823 17.9073 4.8523 15.9773 4.8523 13.8773C4.8523 11.7673 5.5623 9.8473 6.7823 8.3073C6.9723 8.0473 6.9723 7.7373 6.7423 7.5073L4.1623 4.9173C3.9023 4.6673 3.5023 4.6473 3.2723 4.9473C1.2223 7.3573 0.0023 10.4773 0.0023 13.8773ZM27.7423 13.8773C27.7423 10.4773 26.5123 7.3573 24.4723 4.9473C24.2323 4.6473 23.8323 4.6673 23.5623 4.9173L20.9923 7.5073C20.7623 7.7373 20.7523 8.0473 20.9523 8.3073C22.1623 9.8473 22.8823 11.7673 22.8823 13.8773C22.8823 15.9773 22.1623 17.9073 20.9023 19.4973C20.7323 19.7273 20.7423 19.9873 20.9423 20.2073L23.5623 22.8373C23.8223 23.1073 24.2223 23.0973 24.4523 22.8173C26.5123 20.4073 27.7423 17.2773 27.7423 13.8773ZM11.4423 19.0673H12.2123V20.2773C12.2123 20.4573 12.3523 20.5973 12.5523 20.5973C12.7423 20.5973 12.8923 20.4573 12.8923 20.2773V19.0673H14.0123V20.2773C14.0123 20.4573 14.1723 20.5973 14.3523 20.5973C14.5523 20.5973 14.6923 20.4573 14.6923 20.2773V19.0573C16.5023 18.9473 17.8123 18.0373 17.8123 16.2973C17.8123 14.9073 16.8023 13.9573 15.3823 13.8073V13.7273C16.5223 13.5473 17.2823 12.5673 17.2823 11.4973C17.2823 10.0173 16.1723 9.1673 14.6923 9.0273V7.8673C14.6923 7.6773 14.5523 7.5273 14.3523 7.5273C14.1723 7.5273 14.0123 7.6773 14.0123 7.8673V9.0073H12.8923V7.8673C12.8923 7.6773 12.7423 7.5273 12.5523 7.5273C12.3523 7.5273 12.2123 7.6773 12.2123 7.8673V9.0073H11.4423C11.0123 9.0073 10.7323 9.2973 10.7323 9.7273V18.3673C10.7323 18.7873 11.0123 19.0673 11.4423 19.0673ZM11.8623 13.4173V9.9473H14.0323C15.2023 9.9473 16.1523 10.4373 16.1523 11.6273C16.1523 12.9173 15.0623 13.4173 13.7423 13.4173ZM11.8623 18.1173V14.3473H14.0023C15.4323 14.3473 16.6623 14.8373 16.6623 16.2273C16.6623 17.6173 15.5123 18.1173 14.1323 18.1173Z" />
        </svg>
    