
        <svg xmlns="http://www.w3.org/2000/svg" viewBox="0 0 100 100">
            <path d="M3.0117 20.5048H17.4917C19.4517 20.5048 20.5117 19.4248 20.5117 17.4948V3.0148C20.5117 1.0748 19.4517 0.0048 17.4917 0.0048H3.0117C1.0417 0.0048 0.0017 1.0448 0.0017 3.0148V17.4948C0.0017 19.4648 1.0417 20.5048 3.0117 20.5048ZM7.8617 15.0548C7.6317 15.0548 7.4517 14.8848 7.4517 14.6348V5.9048C7.4517 5.6448 7.6317 5.4748 7.8617 5.4748H8.9017V4.2848C8.9017 4.1748 9.0117 4.0648 9.1317 4.0648C9.2417 4.0648 9.3517 4.1748 9.3517 4.2848V5.4748H10.5317V4.2848C10.5317 4.1748 10.6317 4.0648 10.7617 4.0648C10.8717 4.0648 10.9717 4.1748 10.9717 4.2848V5.4848C12.4217 5.5848 13.5017 6.4148 13.5017 7.8048C13.5017 8.9248 12.7117 9.8348 11.6017 9.9948V10.1048C12.9217 10.2148 14.0117 11.0748 14.0117 12.4948C14.0117 14.1348 12.7117 14.9848 10.9717 15.0548V16.3548C10.9717 16.4748 10.8717 16.5848 10.7617 16.5848C10.6317 16.5848 10.5317 16.4748 10.5317 16.3548V15.0548H9.3517V16.3548C9.3517 16.4748 9.2417 16.5848 9.1317 16.5848C9.0117 16.5848 8.9017 16.4748 8.9017 16.3548V15.0548ZM8.0717 9.8448H10.3617C11.7417 9.8448 12.8717 9.2248 12.8717 7.8648C12.8717 6.5848 11.8017 6.0148 10.5317 6.0148H8.0717ZM8.0717 14.5048H10.6417C12.1017 14.5048 13.3817 13.9348 13.3817 12.4648C13.3817 10.9648 12.0217 10.3948 10.5017 10.3948H8.0717Z" />
        </svg>
    