
        <svg xmlns="http://www.w3.org/2000/svg" viewBox="0 0 100 100">
            <path d="M1.0617 25.7816H25.8017C26.3817 25.7816 26.8717 25.3016 26.8717 24.7116C26.8717 24.1416 26.3817 23.6616 25.8017 23.6616H25.1917V22.7416C25.1917 22.2316 24.8917 21.9216 24.3717 21.9216H23.6917V8.3716H24.7017C25.4217 8.3716 25.8417 7.8516 25.8417 7.3116C25.8417 6.9216 25.6217 6.5716 25.1517 6.2916L14.9717 0.4216C14.4917 0.1516 13.9717 0.0016 13.4617 0.0016C12.9617 0.0016 12.4217 0.1516 11.9517 0.4216L1.7817 6.2916C1.3017 6.5716 1.0917 6.9216 1.0917 7.3116C1.0917 7.8516 1.5117 8.3716 2.2217 8.3716H3.2417V21.9216H2.5617C2.0517 21.9216 1.7417 22.2316 1.7417 22.7416V23.6616H1.0617C0.4817 23.6616 0.0017 24.1416 0.0017 24.7116C0.0017 25.3016 0.4817 25.7816 1.0617 25.7816ZM10.9217 19.2116C10.3117 19.2116 9.9217 18.8116 9.9217 18.1916V9.6116C9.9217 8.9916 10.3117 8.5916 10.9217 8.5916H11.6517V7.4216C11.6517 7.1816 11.8117 7.0316 12.0517 7.0316C12.2717 7.0316 12.4317 7.1816 12.4317 7.4216V8.5916H13.5917V7.4216C13.5917 7.1816 13.7617 7.0316 13.9817 7.0316C14.2117 7.0316 14.3817 7.1816 14.3817 7.4216V8.6116C15.9717 8.7416 17.2217 9.6316 17.2217 11.2216C17.2217 12.3316 16.4217 13.3716 15.2317 13.5516V13.6216C16.7217 13.7716 17.7517 14.7916 17.7517 16.2216C17.7517 18.0816 16.3617 19.0816 14.3817 19.1916V20.3916C14.3817 20.6116 14.2117 20.7816 13.9817 20.7816C13.7617 20.7816 13.5917 20.6116 13.5917 20.3916V19.2116H12.4317V20.3916C12.4317 20.6116 12.2717 20.7816 12.0517 20.7816C11.8117 20.7816 11.6517 20.6116 11.6517 20.3916V19.2116ZM11.6417 13.1016H13.2917C14.5117 13.1016 15.5117 12.6716 15.5117 11.4616C15.5117 10.3816 14.6717 9.9216 13.5817 9.9216H11.6417ZM11.6417 17.8616H13.7117C15.0017 17.8616 16.0217 17.3916 16.0217 16.1016C16.0217 14.8016 14.9217 14.3516 13.6017 14.3516H11.6417Z" />
        </svg>
    