
        <svg xmlns="http://www.w3.org/2000/svg" viewBox="0 0 100 100">
            <path d="M24.5317 17.3294C28.7417 17.3294 31.3517 14.7994 31.3517 11.1194V1.0794C31.3517 0.4194 30.9117 -0.0006 30.2617 -0.0006C29.6017 -0.0006 29.1817 0.4194 29.1817 1.0794V10.9494C29.1817 13.5594 27.4617 15.3294 24.5317 15.3294C21.6017 15.3294 19.8717 13.5594 19.8717 10.9494V1.0794C19.8717 0.4194 19.4317 -0.0006 18.7717 -0.0006C18.1217 -0.0006 17.7117 0.4194 17.7117 1.0794V11.1194C17.7117 14.7994 20.3117 17.3294 24.5317 17.3294ZM1.9817 17.0294H8.0817C11.6717 17.0294 13.9317 15.1394 13.9317 12.2494C13.9317 9.9594 12.2817 8.3094 9.9017 8.1794V8.0894C11.8517 7.8194 13.1717 6.3494 13.1717 4.4894C13.1717 1.8794 11.1717 0.2694 7.9217 0.2694H1.9817C0.7217 0.2694 0.0017 1.0094 0.0017 2.2994V15.0094C0.0017 16.2894 0.7217 17.0294 1.9817 17.0294ZM3.8717 7.2294V3.0194H6.7517C8.3917 3.0194 9.3617 3.7694 9.3617 5.0594C9.3617 6.4194 8.2817 7.2294 6.4617 7.2294ZM3.8717 14.3194V9.6694H6.8117C8.8617 9.6694 10.0117 10.4694 10.0117 11.9694C10.0117 13.4994 8.9017 14.3194 6.8917 14.3194ZM18.4017 20.9294H30.6517C31.0317 20.9294 31.3517 20.6394 31.3517 20.2394C31.3517 19.8394 31.0317 19.5394 30.6517 19.5394H18.4017C18.0217 19.5394 17.7117 19.8394 17.7117 20.2394C17.7117 20.6394 18.0217 20.9294 18.4017 20.9294Z" />
        </svg>
    