
        <svg xmlns="http://www.w3.org/2000/svg" viewBox="0 0 100 100">
            <path d="M24.9817 17.5331C29.3117 17.5331 32.0317 14.9931 32.0317 11.2431V1.3231C32.0317 0.5031 31.4917 0.0031 30.6717 0.0031C29.8517 0.0031 29.3317 0.5031 29.3317 1.3231V10.9931C29.3317 13.4931 27.7217 15.1431 24.9817 15.1431C22.2417 15.1431 20.6517 13.4931 20.6517 10.9931V1.3231C20.6517 0.5031 20.1117 0.0031 19.2917 0.0031C18.4717 0.0031 17.9517 0.5031 17.9517 1.3231V11.2431C17.9517 14.9931 20.6617 17.5331 24.9817 17.5331ZM2.1017 17.2231H8.3017C11.9317 17.2231 14.2417 15.3031 14.2417 12.3631C14.2417 10.0631 12.5317 8.3931 10.1217 8.2731V8.1631C12.1017 7.9131 13.4617 6.4231 13.4617 4.5331C13.4617 1.8831 11.4417 0.2731 8.1017 0.2731H2.1017C0.7717 0.2731 0.0017 1.0431 0.0017 2.3931V15.1031C0.0017 16.4531 0.7717 17.2231 2.1017 17.2231ZM4.2217 7.2631V3.1631H6.7717C8.3717 3.1631 9.3117 3.9031 9.3117 5.1631C9.3117 6.4831 8.2717 7.2631 6.5117 7.2631ZM4.2217 14.3631V9.7931H6.8517C8.8517 9.7931 9.9517 10.5931 9.9517 12.0631C9.9517 13.5631 8.9317 14.3631 6.9617 14.3631ZM18.7717 21.2531H31.1817C31.6517 21.2531 32.0317 20.9031 32.0317 20.4331C32.0317 19.9731 31.6517 19.6131 31.1817 19.6131H18.7717C18.3117 19.6131 17.9417 19.9731 17.9417 20.4331C17.9417 20.9031 18.3117 21.2531 18.7717 21.2531Z" />
        </svg>
    