
        <svg xmlns="http://www.w3.org/2000/svg" viewBox="0 0 100 100">
            <path d="M1.0817 16.8984H6.7617C10.4217 16.8984 12.6317 15.1084 12.6317 12.1784C12.6317 9.8884 10.9817 8.2684 8.6217 8.0184V7.9484C10.4317 7.6284 11.7617 6.0384 11.7617 4.1884C11.7617 1.6684 9.7417 -0.0016 6.7217 -0.0016H1.0817C0.4117 -0.0016 0.0017 0.4184 0.0017 1.0984V15.7984C0.0017 16.4784 0.4117 16.8984 1.0817 16.8984ZM2.2017 7.3284V1.8584H6.2117C8.3217 1.8584 9.5617 2.8284 9.5617 4.4984C9.5617 6.2784 8.1717 7.3284 5.7317 7.3284ZM2.2017 15.0384V9.0684H6.1617C8.9017 9.0684 10.3717 10.1284 10.3717 12.0484C10.3717 13.9684 8.9617 15.0384 6.3617 15.0384Z" />
        </svg>
    