
        <svg xmlns="http://www.w3.org/2000/svg" viewBox="0 0 100 100">
            <path d="M42.4817 18.4584C47.3017 18.4584 50.4917 15.8484 50.4917 11.7984V2.4584C50.4917 0.8984 49.5017 -0.0016 47.9417 -0.0016C46.3917 -0.0016 45.4017 0.8984 45.4017 2.4584V11.2484C45.4017 13.2084 44.3517 14.2984 42.4817 14.2984C40.6017 14.2984 39.5717 13.2084 39.5717 11.2484V2.4584C39.5717 0.8984 38.5817 -0.0016 37.0317 -0.0016C35.4817 -0.0016 34.4917 0.8984 34.4917 2.4584V11.7984C34.4917 15.8484 37.6717 18.4584 42.4817 18.4584ZM2.6117 18.1184H9.2217C13.1417 18.1184 15.6717 16.0584 15.6717 12.9384C15.6717 10.5784 13.6417 8.7684 11.1417 8.6984V8.5984C13.2617 8.3284 14.8317 6.7884 14.8317 4.7484C14.8317 1.9684 12.6417 0.2884 8.9417 0.2884H2.6117C1.0317 0.2884 0.0017 1.2184 0.0017 2.8384V15.5784C0.0017 17.1984 1.0317 18.1184 2.6117 18.1184ZM19.2917 18.1184H27.1517C28.3917 18.1184 29.2217 17.4284 29.2217 16.2084C29.2217 15.0084 28.4217 14.3184 27.1517 14.3184H25.7617L27.9617 4.0984H29.3417C30.6017 4.0984 31.4317 3.4084 31.4317 2.1984C31.4317 0.9984 30.6217 0.2884 29.3417 0.2884H21.4817C20.2017 0.2884 19.3917 0.9984 19.3917 2.1984C19.3917 3.4084 20.2417 4.0984 21.4817 4.0984H22.8717L20.6717 14.3184H19.2817C18.0117 14.3184 17.1917 15.0084 17.1917 16.2084C17.1917 17.4284 18.0317 18.1184 19.2917 18.1184ZM5.8517 7.4484V3.8184H6.9117C8.3017 3.8184 9.1417 4.4984 9.1417 5.6384C9.1417 6.7484 8.2517 7.4484 6.8017 7.4484ZM5.8517 14.5984V10.4284H7.0617C8.7417 10.4284 9.7217 11.1784 9.7217 12.4684C9.7217 13.8484 9.0317 14.5984 7.3117 14.5984ZM35.9217 22.7484H49.0417C49.8917 22.7484 50.4917 22.1684 50.4917 21.3584C50.4917 20.5684 49.8917 19.9784 49.0417 19.9784H35.9217C35.0717 19.9784 34.4617 20.5684 34.4617 21.3584C34.4617 22.1684 35.0717 22.7484 35.9217 22.7484Z" />
        </svg>
    