
        <svg xmlns="http://www.w3.org/2000/svg" viewBox="0 0 100 100">
            <path d="M9.7417 23.6705C9.9217 23.6705 10.2317 23.6005 10.5217 23.4405C17.1917 19.7005 19.4717 18.1205 19.4717 13.8405V4.8705C19.4717 3.6405 18.9517 3.2605 17.9517 2.8405C16.5717 2.2605 12.1017 0.6605 10.7217 0.1805C10.4017 0.0705 10.0617 0.0005 9.7417 0.0005C9.4117 0.0005 9.0717 0.0905 8.7617 0.1805C7.3817 0.5705 2.9017 2.2705 1.5217 2.8405C0.5417 3.2505 0.0017 3.6405 0.0017 4.8705V13.8405C0.0017 18.1205 2.3017 19.6905 8.9517 23.4405C9.2617 23.6005 9.5517 23.6705 9.7417 23.6705ZM9.7417 21.5505C9.5517 21.5505 9.3617 21.4805 9.0117 21.2705C3.6017 17.9905 1.8617 17.0305 1.8617 13.4105V5.2405C1.8617 4.8405 1.9317 4.6905 2.2617 4.5605C4.0417 3.8505 7.5017 2.6905 9.2717 1.9905C9.4617 1.9105 9.6117 1.8905 9.7417 1.8905C9.8717 1.8905 10.0217 1.9205 10.2117 1.9905C11.9717 2.6905 15.4117 3.9405 17.2217 4.5605C17.5417 4.6805 17.6117 4.8405 17.6117 5.2405V13.4105C17.6117 17.0305 15.8817 17.9805 10.4617 21.2705C10.1217 21.4805 9.9217 21.5505 9.7417 21.5505ZM4.8617 12.0305C4.8617 12.3205 5.0817 12.5205 5.3717 12.5205H9.1517L7.1417 17.9305C6.8717 18.6405 7.6317 19.0405 8.1017 18.4705L14.2117 10.7905C14.3317 10.6405 14.4017 10.4905 14.4017 10.3505C14.4017 10.0705 14.1717 9.8705 13.8917 9.8705H10.1117L12.1217 4.4405C12.4017 3.7305 11.6417 3.3405 11.1717 3.9105L5.0517 11.5905C4.9217 11.7305 4.8617 11.8905 4.8617 12.0305Z" />
        </svg>
    