
        <svg xmlns="http://www.w3.org/2000/svg" viewBox="0 0 100 100">
            <path d="M0.699 11.4947C-1.111 13.7147 0.869 16.4147 3.499 15.0447L11.769 10.7347L19.979 15.4647C20.679 15.8747 21.349 16.0547 21.989 16.0547C22.999 16.0547 23.939 15.5347 24.749 14.5647L32.939 4.5547C34.749 2.3547 32.789 -0.3753 30.139 1.0047L21.869 5.3047L13.659 0.5947C12.959 0.1947 12.309 0.0047 11.659 0.0047C10.639 0.0047 9.699 0.5247 8.899 1.5047ZM4.889 11.0747C4.769 11.1647 4.629 11.0147 4.749 10.8947L11.659 3.7847C11.789 3.6347 11.919 3.6047 12.069 3.7047L21.739 9.2247C22.069 9.4147 22.179 9.3647 22.469 9.1747L28.759 4.9947C28.879 4.8947 29.019 5.0547 28.899 5.1647L21.989 12.4347C21.859 12.5747 21.729 12.6047 21.569 12.5147L11.909 7.1347C11.569 6.9447 11.459 7.0047 11.179 7.1847Z" />
        </svg>
    