
        <svg xmlns="http://www.w3.org/2000/svg" viewBox="0 0 100 100">
            <path d="M0.3257 11.4697C-0.5643 12.5997 0.5457 13.5597 1.6157 12.9497L10.0657 8.0697L20.5057 13.6797C20.8657 13.8597 21.1857 13.9697 21.4757 13.9697C21.9057 13.9697 22.2857 13.7697 22.6457 13.3097L31.1757 2.5097C31.9557 1.5397 31.0257 0.3497 29.8657 1.0097L21.4557 5.8897L10.9857 0.2797C10.6357 0.0897 10.3057 -0.0003 10.0157 -0.0003C9.5957 -0.0003 9.2157 0.1997 8.8657 0.6597ZM2.3757 11.1397C2.2557 11.2197 2.1957 11.1097 2.2857 11.0197L9.9057 1.6397C10.0357 1.4897 10.1557 1.4697 10.3357 1.5497L21.0457 7.2797C21.4757 7.5097 21.6257 7.4497 21.9957 7.2297L29.1557 2.7797C29.2557 2.7197 29.3357 2.8197 29.2657 2.9197L21.5957 12.3297C21.4757 12.4797 21.3457 12.4997 21.1857 12.4097L10.4657 6.6897C10.0257 6.4597 9.8757 6.5197 9.5257 6.7297Z" />
        </svg>
    