
        <svg xmlns="http://www.w3.org/2000/svg" viewBox="0 0 100 100">
            <path d="M0.0023 11.5087C0.0023 17.8588 5.1523 23.0188 11.5123 23.0188C17.8623 23.0188 23.0123 17.8588 23.0123 11.5087C23.0123 5.6288 18.5623 0.7488 12.8623 0.0888C13.1223 0.3987 13.3023 0.8087 13.3023 1.2587C13.3023 1.7787 13.0623 2.2488 12.7023 2.5888C17.1023 3.1687 20.5123 6.9388 20.5123 11.5087C20.5123 16.4787 16.4723 20.5088 11.5123 20.5088C6.5423 20.5088 2.5123 16.4787 2.5123 11.5087C2.5123 6.5388 6.5423 2.5087 11.5123 2.5087C12.2023 2.5087 12.7623 1.9488 12.7623 1.2587C12.7623 0.5587 12.2023 -0.0012 11.5123 -0.0012C5.1523 -0.0012 0.0023 5.1587 0.0023 11.5087ZM6.8323 12.3487C6.8323 12.5388 6.9623 12.6488 7.1623 12.6488H10.8623L8.8623 18.0688C8.6723 18.5588 9.1723 18.8188 9.4923 18.4288L15.4923 10.8988C15.6023 10.7788 15.6223 10.6788 15.6223 10.5788C15.6223 10.3988 15.4923 10.2788 15.2923 10.2788H11.5923L13.5923 4.8588C13.7823 4.3688 13.2823 4.1088 12.9623 4.4987L6.9623 12.0388C6.8523 12.1488 6.8323 12.2587 6.8323 12.3487Z" />
        </svg>
    