
        <svg xmlns="http://www.w3.org/2000/svg" viewBox="0 0 100 100">
            <path d="M4.1417 22.4041H23.8317C26.5217 22.4041 27.9717 20.9541 27.9717 18.2941V7.3141C27.9717 4.6541 26.5217 3.2041 23.8317 3.2041H22.5517V1.8841C22.5517 0.7041 21.8717 0.0041 20.6817 0.0041H17.7217C16.5317 0.0041 15.8517 0.7041 15.8517 1.8841V3.2041H12.1217V1.8841C12.1217 0.7041 11.4417 0.0041 10.2517 0.0041H7.2917C6.1017 0.0041 5.4217 0.7041 5.4217 1.8841V3.2041H4.1417C1.4617 3.2041 0.0017 4.6541 0.0017 7.3141V18.2941C0.0017 20.9541 1.4617 22.4041 4.1417 22.4041ZM10.2817 13.5041C10.2817 13.3641 10.3317 13.2141 10.4417 13.1041L15.1617 7.3141C15.6017 6.7841 16.3217 7.1641 16.0617 7.8141L14.5817 11.7541H17.3817C17.6517 11.7541 17.8717 11.9541 17.8717 12.2241C17.8717 12.3641 17.8117 12.5041 17.7117 12.6241L12.9917 18.4141C12.5517 18.9341 11.8317 18.5541 12.0817 17.9041L13.5817 13.9641H10.7717C10.5017 13.9641 10.2817 13.7741 10.2817 13.5041Z" />
        </svg>
    