
        <svg xmlns="http://www.w3.org/2000/svg" viewBox="0 0 100 100">
            <path d="M12.2223 24.4419C18.9723 24.4419 24.4423 18.9719 24.4423 12.2219C24.4423 5.4819 18.9723 0.0019 12.2223 0.0019C5.4823 0.0019 0.0023 5.4819 0.0023 12.2219C0.0023 18.9719 5.4823 24.4419 12.2223 24.4419ZM4.6123 14.2419L8.5223 9.2619C8.8123 8.8919 9.1123 8.7319 9.4423 8.7319C9.6823 8.7319 9.9223 8.8119 10.1823 8.9619L14.9623 11.5619L18.8523 9.5319C19.7323 9.0719 20.4523 9.9219 19.8523 10.7019L15.9223 15.6919C15.6323 16.0519 15.3123 16.2219 15.0023 16.2219C14.7523 16.2219 14.5223 16.1319 14.2523 15.9919L9.4723 13.3819L5.6023 15.4319C4.7423 15.8719 3.9723 15.0419 4.6123 14.2419Z" />
        </svg>
    