
        <svg xmlns="http://www.w3.org/2000/svg" viewBox="0 0 100 100">
            <path d="M0.0023 11.3798C0.0023 17.6498 5.1023 22.7498 11.3623 22.7498C17.6523 22.7498 22.7423 17.6498 22.7423 11.3798C22.7423 5.5298 18.2823 0.6898 12.6023 0.0798C12.8623 0.3798 13.0523 0.7898 13.0523 1.2298C13.0523 1.7298 12.8123 2.1998 12.4523 2.5098C16.8623 3.0498 20.2923 6.7998 20.2923 11.3798C20.2923 16.3098 16.3023 20.2998 11.3623 20.2998C6.4323 20.2998 2.4523 16.3098 2.4523 11.3798C2.4523 6.4498 6.4323 2.4498 11.3623 2.4498C12.0423 2.4498 12.6023 1.8998 12.6023 1.2298C12.6023 0.5598 12.0423 -0.0002 11.3623 -0.0002C5.1023 -0.0002 0.0023 5.0998 0.0023 11.3798ZM6.7423 12.2498C6.7423 12.4098 6.8423 12.4898 7.0223 12.4898H10.7223L8.7023 17.9598C8.5423 18.3898 8.9723 18.6098 9.2623 18.2698L15.2623 10.7298C15.3523 10.6198 15.3723 10.5198 15.3723 10.4498C15.3723 10.2898 15.2723 10.1998 15.0923 10.1998H11.3823L13.4023 4.7298C13.5623 4.3098 13.1323 4.0898 12.8523 4.4298L6.8523 11.9598C6.7523 12.0798 6.7423 12.1798 6.7423 12.2498Z" />
        </svg>
    