
        <svg xmlns="http://www.w3.org/2000/svg" viewBox="0 0 100 100">
            <path d="M3.0117 20.5048H24.0617C26.0117 20.5048 27.0617 19.4248 27.0617 17.4948V6.0048C27.0617 4.0648 26.0117 2.9848 24.0617 2.9848H21.9517V1.0648C21.9517 0.3948 21.5717 0.0048 20.8317 0.0048H16.7817C16.0417 0.0048 15.6717 0.3948 15.6717 1.0648V2.9848H11.3917V1.0648C11.3917 0.3948 11.0317 0.0048 10.2817 0.0048H6.2217C5.4817 0.0048 5.1117 0.3948 5.1117 1.0648V2.9848H3.0117C1.0417 2.9848 0.0017 4.0348 0.0017 6.0048V17.4948C0.0017 19.4648 1.0417 20.5048 3.0117 20.5048ZM0.5717 17.4648V6.0348C0.5717 4.4048 1.4217 3.5648 3.0317 3.5648H24.0217C25.5817 3.5648 26.4817 4.4048 26.4817 6.0348V17.4648C26.4817 19.0948 25.5817 19.9348 24.0217 19.9348H3.0317C1.4217 19.9348 0.5717 19.0948 0.5717 17.4648ZM9.8717 12.6648C9.8717 12.7848 9.9717 12.8548 10.1017 12.8548H13.2617L11.5417 17.4948C11.3917 17.8548 11.7617 18.0448 12.0017 17.7548L17.0717 11.3648C17.1517 11.2648 17.1917 11.1948 17.1917 11.1248C17.1917 11.0048 17.1017 10.9148 16.9617 10.9148H13.8017L15.5317 6.2848C15.6517 5.9248 15.2817 5.7348 15.0517 6.0348L9.9717 12.4148C9.9017 12.5148 9.8717 12.5848 9.8717 12.6648Z" />
        </svg>
    