
        <svg xmlns="http://www.w3.org/2000/svg" viewBox="0 0 100 100">
            <path d="M12.6023 25.1986C19.5623 25.1986 25.2023 19.5586 25.2023 12.5986C25.2023 5.6386 19.5623 -0.0014 12.6023 -0.0014C5.6323 -0.0014 0.0023 5.6386 0.0023 12.5986C0.0023 19.5586 5.6323 25.1986 12.6023 25.1986ZM12.6023 21.5386C7.6523 21.5386 3.6523 17.5386 3.6523 12.5986C3.6523 7.6486 7.6523 3.6586 12.6023 3.6586C17.5423 3.6586 21.5423 7.6486 21.5423 12.5986C21.5423 17.5386 17.5423 21.5386 12.6023 21.5386ZM6.7623 16.1386C6.7623 16.4986 7.0523 16.7886 7.4223 16.7886H8.0023C8.3823 16.7886 8.6623 16.4986 8.6623 16.1386V15.2686C9.6923 15.3386 11.2823 15.3986 12.6023 15.3986C13.9223 15.3986 15.5023 15.3486 16.5423 15.2686V16.1386C16.5423 16.4986 16.8323 16.7886 17.2023 16.7886H17.7923C18.1523 16.7886 18.4423 16.4986 18.4423 16.1386V13.2186C18.4423 12.3186 18.3423 11.7986 17.8723 11.2386L17.4123 10.7086C17.2423 9.8686 16.9323 9.0086 16.7723 8.6686C16.4923 8.0786 15.9523 7.6986 15.2423 7.6086C14.8523 7.5486 13.9223 7.5186 12.6023 7.5186C11.2823 7.5186 10.3623 7.5486 9.9623 7.6086C9.2723 7.6986 8.7023 8.0786 8.4423 8.6686C8.2723 9.0086 7.9723 9.8686 7.7923 10.7086L7.3523 11.2386C6.8623 11.7986 6.7623 12.3186 6.7623 13.2186ZM10.7323 11.8586C10.7323 11.7686 10.7723 11.6786 10.8323 11.6286L12.9823 9.0486C13.2323 8.7386 13.6523 8.9486 13.5023 9.3386L12.9123 10.8986H14.2023C14.3523 10.8986 14.4823 11.0286 14.4823 11.1786C14.4823 11.2486 14.4523 11.3486 14.3923 11.4186L12.2423 13.9786C11.9923 14.2886 11.5523 14.0786 11.7023 13.6786L12.3023 12.1186H11.0323C10.8623 12.1186 10.7323 12.0086 10.7323 11.8586Z" />
        </svg>
    