
        <svg xmlns="http://www.w3.org/2000/svg" viewBox="0 0 100 100">
            <path d="M12.6023 25.1986C19.5623 25.1986 25.2023 19.5586 25.2023 12.5986C25.2023 5.6386 19.5623 -0.0014 12.6023 -0.0014C5.6323 -0.0014 0.0023 5.6386 0.0023 12.5986C0.0023 19.5586 5.6323 25.1986 12.6023 25.1986ZM12.6023 21.5386C7.6523 21.5386 3.6523 17.5386 3.6523 12.5986C3.6523 7.6486 7.6523 3.6586 12.6023 3.6586C17.5423 3.6586 21.5423 7.6486 21.5423 12.5986C21.5423 17.5386 17.5423 21.5386 12.6023 21.5386ZM7.7323 13.2986C7.7323 13.6786 8.0423 13.9686 8.4123 13.9686H11.8823L10.0423 18.7886C9.7023 19.6886 10.6723 20.2186 11.3123 19.4886L17.2823 12.2586C17.4223 12.1086 17.4923 11.9086 17.4923 11.7186C17.4923 11.3486 17.1923 11.0486 16.8123 11.0486H13.3523L15.1923 6.2386C15.5323 5.3286 14.5523 4.8086 13.9323 5.5286L7.9423 12.7586C7.8023 12.9186 7.7323 13.1086 7.7323 13.2986Z" />
        </svg>
    