
        <svg xmlns="http://www.w3.org/2000/svg" viewBox="0 0 100 100">
            <path d="M11.3523 22.7147C17.6023 22.7147 22.7123 17.6047 22.7123 11.3547C22.7123 5.1047 17.6023 0.0047 11.3523 0.0047C5.1123 0.0047 0.0023 5.1047 0.0023 11.3547C0.0023 17.6047 5.1123 22.7147 11.3523 22.7147ZM13.7723 3.6647L11.3123 10.1347L9.2923 8.1347L13.1323 3.3047C13.4623 2.9047 13.9423 3.1747 13.7723 3.6647ZM17.4023 17.8047L4.8723 5.2647C4.7623 5.1447 4.7423 4.9647 4.8723 4.8447C4.9923 4.7247 5.1823 4.7247 5.2923 4.8447L17.8223 17.3747C17.9423 17.4947 17.9423 17.6747 17.8223 17.8047C17.7023 17.9447 17.5223 17.9147 17.4023 17.8047ZM10.9423 11.9647L10.9323 11.9547V11.9647H10.9423L13.1223 14.1247L8.9623 19.3447C8.6323 19.7447 8.1423 19.4747 8.3323 18.9947L10.9323 11.9647H6.9123C6.7123 11.9647 6.5823 11.8547 6.5823 11.6847C6.5823 11.5947 6.6223 11.4847 6.7423 11.3447L8.3223 9.3647ZM11.3223 10.1447H15.6123C15.8123 10.1447 15.9423 10.2547 15.9423 10.4247C15.9423 10.5247 15.9023 10.6147 15.7823 10.7647L14.1023 12.9347Z" />
        </svg>
    