
        <svg xmlns="http://www.w3.org/2000/svg" viewBox="0 0 100 100">
            <path d="M9.7417 23.4539C9.9417 23.4539 10.2417 23.3639 10.5517 23.2139C17.2617 19.7539 19.4717 17.9439 19.4717 13.7439V5.0139C19.4717 3.6539 18.9417 3.1639 17.8017 2.6839C16.5117 2.1539 12.2017 0.6239 10.9317 0.2039C10.5617 0.0839 10.1217 0.0039 9.7417 0.0039C9.3417 0.0039 8.9217 0.0939 8.5317 0.2039C7.2617 0.5939 2.9617 2.1539 1.6717 2.6839C0.5317 3.1539 0.0017 3.6539 0.0017 5.0139V13.7439C0.0017 17.9439 2.3117 19.5939 8.9317 23.2139C9.2317 23.3839 9.5317 23.4539 9.7417 23.4539ZM4.4717 12.0239C4.4717 11.8739 4.5517 11.6839 4.6917 11.5339L11.2517 3.3639C11.7917 2.7039 12.6817 3.1639 12.3617 3.9739L10.2317 9.6639H14.2217C14.5617 9.6639 14.8217 9.9139 14.8217 10.2439C14.8217 10.4039 14.7517 10.5939 14.6217 10.7439L8.0617 18.9039C7.5117 19.5739 6.6317 19.1139 6.9417 18.2939L9.0817 12.5939H5.0717C4.7317 12.5939 4.4717 12.3639 4.4717 12.0239Z" />
        </svg>
    