
        <svg xmlns="http://www.w3.org/2000/svg" viewBox="0 0 100 100">
            <path d="M12.7923 25.5961C19.8723 25.5961 25.6023 19.8661 25.6023 12.7961C25.6023 5.7261 19.8723 -0.0039 12.7923 -0.0039C5.7323 -0.0039 0.0023 5.7261 0.0023 12.7961C0.0023 19.8661 5.7323 25.5961 12.7923 25.5961ZM6.6923 16.5361V13.4461C6.6923 12.4961 6.7923 11.9461 7.2923 11.3561L7.7823 10.8061C7.9723 9.9461 8.2623 9.0861 8.4423 8.7261C8.7323 8.0961 9.3323 7.6861 10.0623 7.5861C10.5123 7.5261 11.4123 7.4961 12.7923 7.4961C14.2023 7.4961 15.1123 7.5261 15.5523 7.5861C16.2923 7.6861 16.8623 8.0961 17.1823 8.7261C17.3423 9.0861 17.6523 9.9461 17.8323 10.8061L18.3323 11.3561C18.8223 11.9461 18.9023 12.4961 18.9023 13.4461V16.5361C18.9023 16.9261 18.6123 17.2161 18.2123 17.2161H17.6123C17.2123 17.2161 16.9323 16.9261 16.9323 16.5361V15.6061C15.8523 15.7061 14.2023 15.7461 12.7923 15.7461C11.4023 15.7461 9.7523 15.6961 8.6823 15.6061V16.5361C8.6823 16.9261 8.4023 17.2161 8.0023 17.2161H7.3823C7.0123 17.2161 6.6923 16.9261 6.6923 16.5361ZM10.8023 12.0361C10.8023 12.2061 10.9523 12.3361 11.1423 12.3361H12.4423L11.8623 13.8861C11.6823 14.3161 12.1623 14.5661 12.4723 14.2161L14.7223 11.6061C14.7823 11.5361 14.8123 11.4261 14.8123 11.3461C14.8123 11.1661 14.6623 11.0261 14.4823 11.0261H13.1623L13.7623 9.4961C13.9223 9.0561 13.4523 8.8161 13.1723 9.1561L10.9223 11.7761C10.8523 11.8361 10.8023 11.9461 10.8023 12.0361Z" />
        </svg>
    