
        <svg xmlns="http://www.w3.org/2000/svg" viewBox="0 0 100 100">
            <path d="M11.3523 22.7147C17.6023 22.7147 22.7123 17.6047 22.7123 11.3547C22.7123 5.1047 17.6023 0.0047 11.3523 0.0047C5.1123 0.0047 0.0023 5.1047 0.0023 11.3547C0.0023 17.6047 5.1123 22.7147 11.3523 22.7147ZM4.7123 15.6547V12.5247C4.7123 11.4647 5.0023 10.9647 5.4123 10.4147L5.9423 9.7347C6.1523 8.6647 6.5623 7.5347 6.7523 7.1047C7.0623 6.4347 7.6623 6.1547 8.2923 6.0747C8.6923 6.0247 10.0823 5.9847 11.3523 5.9847C12.6523 5.9847 14.0423 6.0247 14.4423 6.0747C15.0723 6.1547 15.6723 6.4347 15.9823 7.1047C16.1723 7.5347 16.5623 8.6647 16.7823 9.7347L17.3123 10.4147C17.7323 10.9647 18.0123 11.4647 18.0123 12.5247V15.6547C18.0123 16.0547 17.6923 16.3747 17.2823 16.3747H16.6423C16.2323 16.3747 15.9023 16.0547 15.9023 15.6547V14.7347C14.6123 14.8047 12.7723 14.8547 11.3523 14.8547C9.9523 14.8547 8.1123 14.8047 6.8123 14.7347V15.6547C6.8123 16.0547 6.4923 16.3747 6.0923 16.3747H5.4423C5.0323 16.3747 4.7123 16.0547 4.7123 15.6547ZM9.5823 10.7447C9.5823 10.8147 9.6423 10.8547 9.7123 10.8547H11.2123L10.3823 13.0147C10.3123 13.2347 10.5023 13.3447 10.6423 13.1747L13.0523 10.0347C13.1023 9.9647 13.1123 9.9247 13.1123 9.8747C13.1123 9.8047 13.0523 9.7647 12.9823 9.7647H11.5123L12.3323 7.6047C12.4023 7.3947 12.2023 7.2747 12.0623 7.4547L9.6423 10.6147C9.6023 10.6547 9.5823 10.6947 9.5823 10.7447Z" />
        </svg>
    