
        <svg xmlns="http://www.w3.org/2000/svg" viewBox="0 0 100 100">
            <path d="M0.1582 10.9541C-0.2718 11.5241 0.2382 12.0541 0.8282 11.7041L9.1782 6.7941L20.3582 12.8041C20.5182 12.8941 20.6582 12.9341 20.7882 12.9341C20.9782 12.9341 21.1382 12.8541 21.2882 12.6441L29.6282 2.0341C30.0782 1.4741 29.6082 0.8641 28.9682 1.2441L20.6982 6.1441L9.4782 0.0941C9.3482 0.0241 9.2182 0.0041 9.1082 0.0041C8.9182 0.0041 8.7382 0.0841 8.5982 0.2741ZM1.0282 10.9241C0.9482 10.9641 0.9282 10.8941 0.9682 10.8441L9.0482 0.6841C9.0782 0.6241 9.1282 0.5941 9.1982 0.6441L20.3282 6.6141C20.6382 6.7741 20.7982 6.7341 21.0782 6.5741L28.8282 1.9641C28.9282 1.9141 28.9782 2.0041 28.9282 2.0641L20.8382 12.2541C20.7882 12.3141 20.7482 12.3241 20.6682 12.2941L9.5482 6.3241C9.2482 6.1641 9.0682 6.2041 8.7882 6.3641Z" />
        </svg>
    