
        <svg xmlns="http://www.w3.org/2000/svg" viewBox="0 0 100 100">
            <path d="M12.6023 25.1969C19.5623 25.1969 25.2023 19.5569 25.2023 12.5969C25.2023 5.6369 19.5623 -0.0031 12.6023 -0.0031C5.6523 -0.0031 0.0023 5.6369 0.0023 12.5969C0.0023 19.5569 5.6523 25.1969 12.6023 25.1969ZM6.3723 16.4069V13.2769C6.3723 12.3269 6.4923 11.7769 6.9923 11.1769L7.4923 10.6169C7.6723 9.7269 7.9923 8.8169 8.1523 8.4469C8.4623 7.8069 9.0423 7.4069 9.7823 7.3169C10.2223 7.2569 11.2023 7.2169 12.6023 7.2169C14.0123 7.2169 15.0023 7.2569 15.4223 7.3169C16.1623 7.4169 16.7323 7.8069 17.0523 8.4469C17.2223 8.8169 17.5423 9.7269 17.7323 10.6169L18.2123 11.1769C18.7123 11.7769 18.8323 12.3269 18.8323 13.2769V16.4069C18.8323 16.7969 18.5123 17.0969 18.1123 17.0969H17.5123C17.1123 17.0969 16.8023 16.7969 16.8023 16.4069V15.4769C15.6923 15.5669 14.0023 15.6069 12.6023 15.6069C11.1923 15.6069 9.5023 15.5469 8.4023 15.4769V16.4069C8.4023 16.7969 8.1123 17.0969 7.7123 17.0969H7.0823C6.6923 17.0969 6.3723 16.7969 6.3723 16.4069ZM10.6023 11.8369C10.6023 11.9969 10.7423 12.1269 10.9223 12.1269H12.2823L11.6523 13.7769C11.4823 14.2069 11.9423 14.4269 12.2223 14.0969L14.5223 11.3669C14.5623 11.2969 14.6023 11.1869 14.6023 11.1169C14.6023 10.9569 14.4723 10.8169 14.2923 10.8169H12.9423L13.5723 9.1669C13.7223 8.7569 13.2823 8.5169 13.0123 8.8469L10.7223 11.5869C10.6523 11.6569 10.6023 11.7569 10.6023 11.8369Z" />
        </svg>
    