
        <svg xmlns="http://www.w3.org/2000/svg" viewBox="0 0 100 100">
            <path d="M9.0317 22.5797C9.3017 22.5797 9.6117 22.4297 9.8017 22.3097C16.1717 18.3897 18.0817 17.2597 18.0817 13.7097V4.9197C18.0817 3.6197 17.7617 3.1897 16.5117 2.7097C14.2717 1.8597 12.1217 0.9597 9.8817 0.1797C9.5717 0.0697 9.3317 -0.0003 9.0317 -0.0003C8.7517 -0.0003 8.5117 0.0697 8.2017 0.1797C5.9717 1.0197 3.8017 1.8597 1.5717 2.7097C0.3017 3.1597 0.0017 3.6197 0.0017 4.9197V13.7097C0.0017 17.2597 1.9717 18.2997 8.2717 22.3097C8.4717 22.4297 8.7617 22.5797 9.0317 22.5797ZM3.7417 11.7097C3.7417 11.6097 3.7817 11.5097 3.8917 11.3597L10.8317 2.6397C11.1517 2.2397 11.6617 2.4997 11.4717 2.9897L9.1217 9.3297H13.4317C13.6217 9.3297 13.7617 9.4197 13.7617 9.6097C13.7617 9.6897 13.7117 9.7997 13.6017 9.9497L6.6517 18.6697C6.3317 19.0797 5.8217 18.8097 6.0217 18.3197L8.3817 11.9897H4.0617C3.8717 11.9897 3.7417 11.8797 3.7417 11.7097Z" />
        </svg>
    