
        <svg xmlns="http://www.w3.org/2000/svg" viewBox="0 0 100 100">
            <path d="M19.7223 23.7103C26.2823 23.7103 31.5823 18.4103 31.5823 11.8603C31.5823 5.3103 26.2823 0.0003 19.7223 0.0003C13.1723 0.0003 7.8723 5.3103 7.8723 11.8603C7.8723 18.4103 13.1723 23.7103 19.7223 23.7103ZM39.4423 11.8703C39.4423 7.9203 38.1323 4.1403 35.8023 1.0803C35.0623 0.1203 33.7823 0.0603 32.8623 0.8403C31.9123 1.6303 31.9123 2.8103 32.6523 3.8303C34.3323 6.1303 35.2723 8.9303 35.2723 11.8703C35.2723 14.8003 34.3323 17.6003 32.6623 19.9003C31.9323 20.9103 31.9323 22.1003 32.8623 22.8703C33.7923 23.6503 35.0723 23.6003 35.8123 22.6403C38.1323 19.5903 39.4423 15.8203 39.4423 11.8703ZM0.0023 11.8703C0.0023 15.8203 1.3023 19.5903 3.6323 22.6403C4.3623 23.6003 5.6523 23.6503 6.5823 22.8703C7.5023 22.1003 7.5123 20.9103 6.7723 19.9003C5.1123 17.6003 4.1723 14.8003 4.1723 11.8703C4.1723 8.9303 5.1123 6.1303 6.7823 3.8303C7.5323 2.8103 7.5323 1.6303 6.5823 0.8403C5.6623 0.0603 4.3823 0.1203 3.6423 1.0803C1.3023 4.1403 0.0023 7.9203 0.0023 11.8703ZM19.7223 19.5303C15.4923 19.5303 12.0423 16.0903 12.0423 11.8603C12.0423 7.6203 15.4923 4.1703 19.7223 4.1703C23.9623 4.1703 27.4123 7.6203 27.4123 11.8603C27.4123 16.0903 23.9623 19.5303 19.7223 19.5303ZM15.3723 12.4803C15.3723 12.8403 15.6723 13.1203 16.0423 13.1203H19.0523L17.4523 17.2603C17.1323 18.1303 18.0723 18.6403 18.6723 17.9403L24.0023 11.6003C24.1323 11.4503 24.2023 11.2603 24.2023 11.0703C24.2023 10.7103 23.9023 10.4303 23.5323 10.4303H20.5123L22.1123 6.2903C22.4423 5.4303 21.5023 4.9103 20.8923 5.6103L15.5723 11.9503C15.4323 12.1103 15.3723 12.2903 15.3723 12.4803Z" />
        </svg>
    