
        <svg xmlns="http://www.w3.org/2000/svg" viewBox="0 0 100 100">
            <path d="M4.5917 23.2359H18.6417C21.5417 23.2359 23.2417 21.5459 23.2417 18.6459V4.5959C23.2417 1.6959 21.5417 -0.0041 18.6417 -0.0041H4.5917C1.7017 -0.0041 0.0017 1.6959 0.0017 4.5959V18.6459C0.0017 21.5459 1.7017 23.2359 4.5917 23.2359ZM6.6117 12.3659C6.6117 12.1359 6.6917 11.9159 6.8417 11.7459L13.1417 4.2459C13.8517 3.4259 14.9617 4.0359 14.5917 5.0459L12.6817 9.9459H16.2517C16.6917 9.9459 17.0417 10.2759 17.0417 10.7059C17.0417 10.9259 16.9617 11.1459 16.8017 11.3159L10.5217 18.8159C9.8017 19.6559 8.6817 19.0359 9.0717 18.0159L10.9717 13.1259H7.3917C6.9617 13.1259 6.6117 12.7859 6.6117 12.3659Z" />
        </svg>
    