
        <svg xmlns="http://www.w3.org/2000/svg" viewBox="0 0 100 100">
            <path d="M3.4617 21.2064H23.9917C26.2817 21.2064 27.4417 20.0364 27.4417 17.7864V6.4064C27.4417 4.1564 26.2817 2.9864 23.9917 2.9864H22.2117V1.2964C22.2117 0.4764 21.7417 -0.0036 20.8917 -0.0036H17.2417C16.3917 -0.0036 15.9217 0.4764 15.9217 1.2964V2.9864H11.5217V1.2964C11.5217 0.4764 11.0517 -0.0036 10.2117 -0.0036H6.5517C5.7117 -0.0036 5.2417 0.4764 5.2417 1.2964V2.9864H3.4617C1.1717 2.9864 0.0017 4.1364 0.0017 6.4064V17.7864C0.0017 20.0664 1.1717 21.2064 3.4617 21.2064ZM9.9517 12.9264C9.9517 12.8164 9.9917 12.7264 10.0917 12.6064L15.0017 6.4364C15.3317 6.0264 15.8517 6.2964 15.6717 6.7964L14.0317 11.1864H17.0717C17.2617 11.1864 17.4417 11.3364 17.4417 11.5164C17.4417 11.6264 17.3817 11.7264 17.2817 11.8364L12.3717 18.0164C12.0517 18.4264 11.5217 18.1564 11.7117 17.6464L13.3517 13.2464H10.3017C10.1117 13.2464 9.9517 13.1164 9.9517 12.9264Z" />
        </svg>
    