
        <svg xmlns="http://www.w3.org/2000/svg" viewBox="0 0 100 100">
            <path d="M12.7923 25.5961C19.8723 25.5961 25.6023 19.8661 25.6023 12.7961C25.6023 5.7261 19.8723 -0.0039 12.7923 -0.0039C5.7323 -0.0039 0.0023 5.7261 0.0023 12.7961C0.0023 19.8661 5.7323 25.5961 12.7923 25.5961ZM9.7923 19.1261C8.4123 19.1261 7.6023 18.3161 7.6023 16.9361V8.6861C7.6023 7.2961 8.4123 6.4961 9.7923 6.4961H15.8323C17.2123 6.4961 18.0223 7.2961 18.0223 8.6861V13.9761C18.0223 14.5761 17.9423 14.8661 17.3923 15.2861C16.6423 15.8361 16.7423 16.9261 17.3523 17.3561C17.7223 17.5861 18.0323 17.7961 18.0323 18.2961C18.0323 18.7961 17.7023 19.1261 17.2023 19.1261ZM9.9023 14.3561C10.1323 14.3561 10.3323 14.1661 10.3323 13.9361V8.1961C10.3323 7.9461 10.1323 7.7561 9.9023 7.7561C9.6723 7.7561 9.4723 7.9461 9.4723 8.1961V13.9361C9.4723 14.1661 9.6723 14.3561 9.9023 14.3561ZM10.3523 17.4561H15.3323C15.0623 16.8561 15.0723 16.1061 15.3823 15.4761H10.3623C9.6223 15.4761 9.2723 15.9561 9.2723 16.4661C9.2723 16.9961 9.6223 17.4561 10.3523 17.4561Z" />
        </svg>
    