
        <svg xmlns="http://www.w3.org/2000/svg" viewBox="0 0 100 100">
            <path d="M12.1023 24.2064C18.7823 24.2064 24.2123 18.7864 24.2123 12.1064C24.2123 5.4264 18.7823 -0.0036 12.1023 -0.0036C5.4223 -0.0036 0.0023 5.4264 0.0023 12.1064C0.0023 18.7864 5.4223 24.2064 12.1023 24.2064ZM12.1023 21.8164C6.7223 21.8164 2.3823 17.4864 2.3823 12.1064C2.3823 6.7264 6.7223 2.3764 12.1023 2.3764C17.4823 2.3764 21.8323 6.7264 21.8323 12.1064C21.8323 17.4864 17.4823 21.8164 12.1023 21.8164ZM9.0723 18.2464H16.4223C16.7223 18.2464 16.9523 17.9964 16.9523 17.7064C16.9523 17.4464 16.7823 17.2464 16.5823 17.1664C15.8923 16.8564 15.7623 15.9164 16.4523 15.2564C16.7323 14.9964 16.9523 14.7064 16.9523 14.1464V7.8564C16.9523 6.6164 16.3223 5.9764 15.1123 5.9764H9.0923C7.8723 5.9764 7.2523 6.6064 7.2523 7.8564V16.3964C7.2523 17.6164 7.8723 18.2464 9.0723 18.2464ZM8.9923 14.4964C8.8023 14.4964 8.6323 14.3464 8.6323 14.1164V7.3564C8.6323 7.1464 8.8023 6.9964 8.9923 6.9964C9.2023 6.9964 9.3623 7.1564 9.3623 7.3564V14.1164C9.3623 14.3464 9.2023 14.4964 8.9923 14.4964ZM9.2223 17.1664C8.6323 17.1664 8.3223 16.8264 8.3223 16.3164C8.3223 15.8164 8.6823 15.4664 9.2623 15.4664H14.9223C14.9623 15.4664 15.0123 15.4664 15.0623 15.4664C14.8223 16.0464 14.8523 16.6564 15.1023 17.1664Z" />
        </svg>
    