
        <svg xmlns="http://www.w3.org/2000/svg" viewBox="0 0 100 100">
            <path d="M12.2223 24.4419C18.9723 24.4419 24.4423 18.9719 24.4423 12.2219C24.4423 5.4819 18.9723 0.0019 12.2223 0.0019C5.4823 0.0019 0.0023 5.4819 0.0023 12.2219C0.0023 18.9719 5.4823 24.4419 12.2223 24.4419ZM13.0423 17.1319V6.8419C13.0423 6.3319 13.3223 6.0319 13.8523 6.0319H15.0323C15.5523 6.0319 15.8423 6.3319 15.8423 6.8419V7.8719L16.7823 7.6519C17.2823 7.5319 17.6323 7.7919 17.7323 8.2919L19.4323 16.8019C19.5223 17.3119 19.3023 17.6619 18.7923 17.7519L18.0323 17.9319C17.5423 18.0319 17.1823 17.8019 17.1023 17.3119L15.8423 11.1419V17.1319C15.8423 17.6319 15.5523 17.9419 15.0323 17.9419H13.8523C13.3223 17.9419 13.0423 17.6319 13.0423 17.1319ZM5.2923 17.1319V8.3719C5.2923 7.8519 5.5923 7.5619 6.1123 7.5619H7.1123C7.6123 7.5619 7.9123 7.8519 7.9123 8.3719V17.1319C7.9123 17.6319 7.6123 17.9419 7.1123 17.9419H6.1123C5.5923 17.9419 5.2923 17.6319 5.2923 17.1319ZM8.6623 17.1319V10.2919C8.6623 9.7819 8.9623 9.4819 9.4723 9.4819H11.4723C11.9923 9.4819 12.2723 9.7819 12.2723 10.2919V17.1319C12.2723 17.6319 11.9923 17.9419 11.4723 17.9419H9.4723C8.9623 17.9419 8.6623 17.6319 8.6623 17.1319ZM9.5523 11.1519C9.5523 11.3519 9.7123 11.5419 9.9223 11.5419H11.0323C11.2523 11.5419 11.4123 11.3519 11.4123 11.1519C11.4123 10.9319 11.2723 10.7719 11.0323 10.7719H9.9223C9.7023 10.7719 9.5523 10.9319 9.5523 11.1519ZM9.5523 16.2619C9.5523 16.4919 9.7023 16.6619 9.9223 16.6619H11.0323C11.2523 16.6619 11.4123 16.4919 11.4123 16.2619C11.4123 16.0419 11.2523 15.8819 11.0323 15.8819H9.9223C9.7123 15.8819 9.5523 16.0419 9.5523 16.2619Z" />
        </svg>
    