
        <svg xmlns="http://www.w3.org/2000/svg" viewBox="0 0 100 100">
            <path d="M1.7617 22.7064C2.4217 22.7064 2.7917 22.4964 3.5317 22.0764C4.8417 21.2264 6.4017 20.7764 7.9617 20.7764C9.5317 20.7764 11.0717 21.2464 12.4117 22.2864C10.9317 20.1464 11.3417 17.2964 13.7017 15.4464V3.7964C13.7017 3.4364 13.6417 3.2464 13.3917 2.8564C12.2717 1.1264 9.8117 -0.0036 7.0517 -0.0036C4.2917 -0.0036 1.4517 1.3364 0.3617 3.1964C0.0917 3.6764 0.0017 3.9864 0.0017 4.7464V20.9464C0.0017 22.1064 0.6517 22.7064 1.7617 22.7064ZM15.7417 13.9364C16.9717 13.0664 18.2817 12.2264 18.9617 11.5464C19.9117 10.5964 18.7617 7.5364 21.4817 4.9364C23.6417 2.9064 26.9317 2.6564 29.3917 4.1464C29.3417 3.7464 29.2617 3.5164 29.0717 3.1964C27.9817 1.3364 25.1517 -0.0036 22.3817 -0.0036C19.6317 -0.0036 17.1817 1.1264 16.0517 2.8564C15.8017 3.2464 15.7417 3.4364 15.7417 3.7964ZM14.4017 21.7964C15.7517 23.1464 17.7517 23.1764 19.0917 21.6464C20.2817 20.2464 21.8917 17.3464 23.8517 15.3864C24.7117 14.5164 25.7017 14.2764 26.8717 14.2764C29.8217 14.2764 31.1517 11.6964 30.6117 9.5464L26.9417 10.6364L26.7217 9.7964C26.5917 9.3164 26.8117 8.9064 27.3117 8.7664L30.2017 7.9264C30.0817 7.5164 29.8117 6.9064 29.3717 6.4464C27.5817 4.6164 24.5717 4.5564 22.7617 6.2764C20.1417 8.7864 21.9417 11.1864 20.6417 12.4964C18.7617 14.3664 16.0517 15.7764 14.5517 17.1164C13.0217 18.4664 13.0517 20.4564 14.4017 21.7964ZM22.0117 20.8164C23.3917 20.8964 24.7417 21.3264 25.9117 22.0764C26.6617 22.4964 27.0117 22.7064 27.6817 22.7064C28.7817 22.7064 29.4417 22.1064 29.4417 20.9464V15.6164C26.9417 16.8864 25.5617 16.2964 25.1217 16.7364C23.9617 17.8964 22.9717 19.4064 22.0117 20.8164ZM16.7217 20.2364C16.3117 20.2364 15.9617 19.8964 15.9617 19.4864C15.9617 19.0664 16.3117 18.7264 16.7217 18.7264C17.1417 18.7264 17.4717 19.0664 17.4717 19.4864C17.4717 19.8964 17.1417 20.2364 16.7217 20.2364Z" />
        </svg>
    