
        <svg xmlns="http://www.w3.org/2000/svg" viewBox="0 0 100 100">
            <path d="M19.3148 16.7695V3.5495C19.3148 1.2295 18.0948 -0.0005 15.8048 -0.0005H6.4848C5.1848 -0.0005 4.2748 0.4095 3.7448 1.2195ZM21.3848 23.4495C21.7448 23.8095 22.3448 23.8095 22.6948 23.4495C23.0548 23.0895 23.0548 22.4995 22.6948 22.1395L1.5848 1.0195C1.2248 0.6595 0.6248 0.6595 0.2648 1.0195C-0.0852 1.3695 -0.0852 1.9895 0.2648 2.3395ZM2.9748 7.1495V23.9895C2.9748 25.0295 3.5448 25.6795 4.4748 25.6795C5.1048 25.6795 5.5048 25.3395 6.5148 24.3495L11.0348 19.8795C11.0948 19.8295 11.1848 19.8295 11.2448 19.8795L15.7648 24.3595C16.7848 25.3395 17.1748 25.6795 17.8048 25.6795C18.7048 25.6795 19.2748 25.0695 19.3048 24.0695V23.4995Z" />
        </svg>
    