
        <svg xmlns="http://www.w3.org/2000/svg" viewBox="0 0 100 100">
            <path d="M0.0017 20.6734C0.0017 22.0734 0.9417 22.9434 2.2517 22.9434C2.8317 22.9434 3.2417 22.7134 3.9917 22.2934C5.2617 21.5034 6.5717 21.0934 7.8717 21.1034C9.3617 21.1334 10.7317 21.6534 11.8817 22.7034C12.5517 23.3334 13.1817 23.6134 13.8917 23.6134C14.5817 23.6134 15.2117 23.3334 15.8917 22.7034C17.0417 21.6534 18.4117 21.1334 19.9017 21.1034C21.2017 21.0934 22.5117 21.5034 23.7617 22.2934C24.5317 22.7134 24.9417 22.9434 25.5117 22.9434C26.8217 22.9434 27.7617 22.0734 27.7617 20.6734V4.7534C27.7617 4.4134 27.6917 4.1034 27.5417 3.8334C26.2717 1.5834 23.2217 0.0034 19.8417 0.0034C17.5217 0.0034 15.2917 0.7934 13.8917 2.0734C12.4717 0.7934 10.2517 0.0034 7.9317 0.0034C4.5517 0.0034 1.5017 1.5834 0.2317 3.8334C0.0817 4.1034 0.0017 4.4134 0.0017 4.7534ZM3.6217 18.4134V5.3434C4.4917 4.3034 6.1617 3.6234 7.9317 3.6234C9.7417 3.6234 11.3517 4.3034 12.0717 5.3534V18.5034C10.9017 17.8834 9.4117 17.4834 7.9317 17.4834C6.3617 17.4834 4.8417 17.8234 3.6217 18.4134ZM15.6917 18.5034V5.3534C16.4217 4.3034 18.0317 3.6234 19.8417 3.6234C21.6017 3.6234 23.2817 4.3034 24.1417 5.3434V18.4134C22.9317 17.8234 21.4017 17.4834 19.8417 17.4834C18.3617 17.4834 16.8717 17.8834 15.6917 18.5034Z" />
        </svg>
    