
        <svg xmlns="http://www.w3.org/2000/svg" viewBox="0 0 100 100">
            <path d="M12.2223 24.4436C18.9723 24.4436 24.4423 18.9736 24.4423 12.2236C24.4423 5.4736 18.9723 0.0036 12.2223 0.0036C5.4723 0.0036 0.0023 5.4736 0.0023 12.2236C0.0023 18.9736 5.4723 24.4436 12.2223 24.4436ZM12.2223 21.7636C6.9523 21.7636 2.6823 17.4936 2.6823 12.2236C2.6823 6.9536 6.9523 2.6836 12.2223 2.6836C17.4923 2.6836 21.7623 6.9536 21.7623 12.2236C21.7623 17.4936 17.4923 21.7636 12.2223 21.7636ZM8.9323 18.3736C9.2623 18.3736 9.4723 18.2136 9.9523 17.7436L12.1623 15.5436C12.1923 15.5036 12.2323 15.5036 12.2723 15.5436L14.4823 17.7436C14.9623 18.2136 15.1723 18.3736 15.5023 18.3736C15.9823 18.3736 16.3023 18.0236 16.3023 17.4736V7.9136C16.3023 6.7536 15.6823 6.1136 14.5223 6.1136H9.9023C8.7523 6.1136 8.1323 6.7536 8.1323 7.9136V17.4736C8.1323 18.0236 8.4523 18.3736 8.9323 18.3736Z" />
        </svg>
    