
        <svg xmlns="http://www.w3.org/2000/svg" viewBox="0 0 100 100">
            <path d="M20.8052 17.4161V4.1561C20.8052 1.5261 19.2852 -0.0039 16.6552 -0.0039H6.8452C5.7352 -0.0039 4.8352 0.2861 4.2052 0.8361ZM22.6552 24.5261C23.0652 24.9161 23.7252 24.9261 24.1252 24.5261C24.5052 24.1161 24.5252 23.4761 24.1252 23.0761L1.7652 0.7261C1.3652 0.3161 0.6952 0.3161 0.2952 0.7261C-0.0948 1.1161 -0.0948 1.7961 0.2952 2.1761ZM2.7052 6.9861V24.9061C2.7052 26.4061 3.6552 27.3961 5.0552 27.3961C5.8752 27.3961 6.4752 27.0561 7.3152 26.2061L11.6652 21.8461C11.7152 21.7961 11.7952 21.7961 11.8452 21.8461L16.2052 26.2161C17.0552 27.0561 17.6152 27.3961 18.4552 27.3961C19.7452 27.3961 20.6552 26.5561 20.7852 25.2461V25.0661Z" />
        </svg>
    