
        <svg xmlns="http://www.w3.org/2000/svg" viewBox="0 0 100 100">
            <path d="M12.6023 25.1986C19.5623 25.1986 25.2023 19.5586 25.2023 12.5986C25.2023 5.6386 19.5623 -0.0014 12.6023 -0.0014C5.6323 -0.0014 0.0023 5.6386 0.0023 12.5986C0.0023 19.5586 5.6323 25.1986 12.6023 25.1986ZM12.6023 21.5386C7.6523 21.5386 3.6523 17.5386 3.6523 12.5986C3.6523 7.6486 7.6523 3.6586 12.6023 3.6586C17.5423 3.6586 21.5423 7.6486 21.5423 12.5986C21.5423 17.5386 17.5423 21.5386 12.6023 21.5386ZM9.5423 8.0886C8.4423 8.0886 7.2923 8.6086 6.8623 9.3586C6.7523 9.5486 6.7223 9.6686 6.7223 9.9586V16.4486C6.7223 16.8986 6.9823 17.1286 7.3923 17.1286C7.6623 17.1286 7.8023 17.0486 8.0823 16.8886C8.6023 16.5386 9.2423 16.3486 9.8823 16.3486C10.5223 16.3486 11.1523 16.5486 11.6923 16.9686C11.7823 17.0386 11.8523 17.0786 11.9223 17.0786C12.0723 17.0786 12.1623 16.9686 12.1623 16.8386V9.5786C12.1623 9.4486 12.1423 9.3586 12.0423 9.2186C11.6023 8.5386 10.6123 8.0886 9.5423 8.0886ZM15.6523 8.0886C14.5823 8.0886 13.5823 8.5386 13.1323 9.2186C13.0423 9.3586 13.0223 9.4486 13.0223 9.5786V16.8386C13.0223 16.9686 13.1223 17.0786 13.2623 17.0786C13.3323 17.0786 13.4223 17.0386 13.5023 16.9686C14.0423 16.5486 14.6723 16.3486 15.3023 16.3486C15.9423 16.3486 16.5823 16.5386 17.1023 16.8886C17.3923 17.0486 17.5323 17.1286 17.7923 17.1286C18.2123 17.1286 18.4523 16.8986 18.4523 16.4486V9.9586C18.4523 9.6686 18.4323 9.5486 18.3123 9.3586C17.8923 8.6086 16.7423 8.0886 15.6523 8.0886Z" />
        </svg>
    