
        <svg xmlns="http://www.w3.org/2000/svg" viewBox="0 0 100 100">
            <path d="M7.0517 -0.0036C4.2917 -0.0036 1.4517 1.3364 0.3617 3.1964C0.0817 3.6764 0.0017 3.9864 0.0017 4.7464V20.9464C0.0017 22.1064 0.6517 22.7064 1.7617 22.7064C2.4217 22.7064 2.7817 22.4964 3.5317 22.0764C4.8417 21.2264 6.4017 20.7764 7.9617 20.7764C9.5817 20.7764 11.1517 21.3064 12.4617 22.3464C12.6517 22.4964 12.8817 22.5664 13.0817 22.5664C13.4217 22.5664 13.6917 22.3364 13.6917 21.9764V3.7964C13.6917 3.4364 13.6317 3.2464 13.3817 2.8564C12.2617 1.1264 9.8017 -0.0036 7.0517 -0.0036ZM22.3817 -0.0036C19.6317 -0.0036 17.1717 1.1264 16.0417 2.8564C15.8017 3.2464 15.7417 3.4364 15.7417 3.7964V21.9764C15.7417 22.3364 16.0117 22.5664 16.3617 22.5664C16.5517 22.5664 16.7817 22.4964 16.9717 22.3464C18.2717 21.3064 19.8517 20.7764 21.4817 20.7764C23.0317 20.7764 24.5817 21.2264 25.9017 22.0764C26.6517 22.4964 27.0117 22.7064 27.6817 22.7064C28.7817 22.7064 29.4417 22.1064 29.4417 20.9464V4.7464C29.4417 3.9864 29.3417 3.6764 29.0617 3.1964C27.9817 1.3364 25.1517 -0.0036 22.3817 -0.0036Z" />
        </svg>
    