
        <svg xmlns="http://www.w3.org/2000/svg" viewBox="0 0 100 100">
            <path d="M0.3417 19.4558C0.5317 19.4558 0.6217 19.3758 0.7117 19.2658C2.1017 17.8758 4.2817 17.2758 6.5017 17.2758C8.4617 17.2758 9.9417 18.0158 10.8917 18.7158C10.3017 17.2058 11.0017 15.7758 12.0617 14.9858V2.7558C12.0617 2.5058 12.0117 2.3858 11.8817 2.2458C10.4717 0.6958 8.4817 -0.0042 6.5017 -0.0042C4.0417 -0.0042 1.3517 0.9758 0.1517 2.8458C0.0317 3.0258 0.0017 3.1058 0.0017 3.3258V19.0758C0.0017 19.2858 0.1317 19.4558 0.3417 19.4558ZM12.6417 14.5358C14.1517 13.3958 16.3117 12.1058 17.6917 10.6958C19.0217 9.3858 17.0117 7.4058 19.8517 4.6758C21.1417 3.4458 23.0617 3.1558 24.7017 3.7658C24.7017 3.1058 24.6717 3.0258 24.5517 2.8458C23.3517 0.9758 20.6617 -0.0042 18.2017 -0.0042C16.2217 -0.0042 14.2217 0.6958 12.8217 2.2458C12.6917 2.3858 12.6417 2.5058 12.6417 2.7558ZM12.3117 19.2758C13.3217 20.2858 14.7617 20.3058 15.8217 19.1358C17.0417 17.7758 18.5517 14.9658 20.5317 12.9958C21.1717 12.3558 22.3217 11.9458 23.5217 11.9458C26.2617 11.9458 26.9417 9.9058 26.9517 8.6858L23.7117 9.5258L23.2017 7.8058C23.0317 7.2658 23.1417 6.7258 23.8817 6.5258L26.1717 5.9158C26.0517 5.7858 25.9317 5.6258 25.7717 5.4658C24.3417 4.0158 21.9017 3.9358 20.4517 5.3058C18.3317 7.3558 20.1017 9.5358 18.3317 11.3358C16.6417 13.0358 13.8317 14.6058 12.4817 15.7958C11.2817 16.8258 11.3017 18.2658 12.3117 19.2758ZM18.2817 17.2758C20.4717 17.2858 22.6217 17.9058 23.9917 19.2658C24.0917 19.3758 24.1717 19.4558 24.3617 19.4558C24.5717 19.4558 24.7017 19.2858 24.7017 19.0758V12.8158C23.2517 13.2658 22.5017 12.2658 20.5617 14.2058C20.0617 14.7158 19.1417 16.0558 18.2817 17.2758ZM14.0517 18.3058C13.6317 18.3058 13.2917 17.9758 13.2917 17.5558C13.2917 17.1658 13.6317 16.8358 14.0517 16.8358C14.4517 16.8358 14.7617 17.1658 14.7617 17.5558C14.7617 17.9758 14.4517 18.3058 14.0517 18.3058Z" />
        </svg>
    