
        <svg xmlns="http://www.w3.org/2000/svg" viewBox="0 0 100 100">
            <path d="M20.4717 26.3934H22.6517C24.1317 26.3934 24.9917 25.5234 24.9917 24.0634V9.0134L26.5317 24.4034C26.6617 25.8634 27.6317 26.6134 29.1017 26.4734L30.5017 26.3234C31.9617 26.1634 32.7117 25.1934 32.5817 23.7434L30.7617 5.6834C30.6317 4.2234 29.6617 3.4534 28.1917 3.6134L26.7917 3.7634C25.9317 3.8434 25.3217 4.2234 24.9917 4.8034V2.3334C24.9917 0.8634 24.1317 0.0034 22.6517 0.0034H20.4717C19.0117 0.0034 18.1417 0.8634 18.1417 2.3334V24.0634C18.1417 25.5234 19.0117 26.3934 20.4717 26.3934ZM2.3317 26.3934H4.4217C5.8817 26.3934 6.7517 25.5234 6.7517 24.0634V5.8334C6.7517 4.3634 5.8817 3.4934 4.4217 3.4934H2.3317C0.8717 3.4934 0.0017 4.3634 0.0017 5.8334V24.0634C0.0017 25.5234 0.8717 26.3934 2.3317 26.3934ZM10.5517 26.3934H14.3317C15.8117 26.3934 16.6717 25.5234 16.6717 24.0634V10.4434C16.6717 8.9634 15.8117 8.0934 14.3317 8.0934H10.5517C9.0817 8.0934 8.2117 8.9634 8.2117 10.4434V24.0634C8.2117 25.5234 9.0817 26.3934 10.5517 26.3934ZM11.3717 13.0634C10.8117 13.0634 10.3817 12.6434 10.3817 12.1034C10.3817 11.5534 10.8017 11.1334 11.3717 11.1334H13.5817C14.2217 11.1334 14.5417 11.5534 14.5417 12.1034C14.5417 12.6434 14.1217 13.0634 13.5817 13.0634ZM11.3717 23.3634C10.8017 23.3634 10.3817 22.9434 10.3817 22.3934C10.3817 21.8534 10.8117 21.4234 11.3717 21.4234H13.5817C14.1217 21.4234 14.5417 21.8534 14.5417 22.3934C14.5417 22.9434 14.1217 23.3634 13.5817 23.3634Z" />
        </svg>
    