
        <svg xmlns="http://www.w3.org/2000/svg" viewBox="0 0 100 100">
            <path d="M17.7371 16.5723V2.8523C17.7371 0.9823 16.7671 0.0023 14.8971 0.0023H5.9571C4.3871 0.0023 3.4671 0.7023 3.2471 2.0823ZM20.6771 22.1123C20.8571 22.2923 21.1271 22.2923 21.2871 22.1123C21.4771 21.9423 21.4671 21.6823 21.2871 21.5023L0.7471 0.9523C0.5771 0.7923 0.3071 0.7723 0.1271 0.9523C-0.0429 1.1123 -0.0429 1.3923 0.1271 1.5623ZM3.1271 5.9723V22.9523C3.1271 23.5223 3.4471 23.8823 3.9471 23.8823C4.2571 23.8823 4.5071 23.7323 4.9271 23.3123L10.3571 17.7023C10.3971 17.6623 10.4671 17.6623 10.5171 17.7023L15.9471 23.3123C16.3571 23.7223 16.5871 23.8823 16.9271 23.8823C17.4171 23.8823 17.7371 23.5223 17.7371 22.9523V20.6023Z" />
        </svg>
    