
        <svg xmlns="http://www.w3.org/2000/svg" viewBox="0 0 100 100">
            <path d="M3.0117 20.5048H17.4917C19.4517 20.5048 20.5117 19.4248 20.5117 17.4948V3.0148C20.5117 1.0748 19.4517 0.0048 17.4917 0.0048H3.0117C1.0417 0.0048 0.0017 1.0448 0.0017 3.0148V17.4948C0.0017 19.4648 1.0417 20.5048 3.0117 20.5048ZM6.6317 16.4548C6.4017 16.4548 6.2317 16.2648 6.2317 16.0048V5.8848C6.2317 4.8848 6.7717 4.3448 7.7617 4.3448H12.7617C13.7417 4.3448 14.2717 4.8848 14.2717 5.8848V16.0048C14.2717 16.2648 14.1217 16.4548 13.8717 16.4548C13.7317 16.4548 13.6317 16.3848 13.4917 16.2448L10.3017 12.9348C10.2817 12.9048 10.2417 12.9048 10.2217 12.9348L7.0317 16.2448C6.8917 16.3848 6.7817 16.4548 6.6317 16.4548Z" />
        </svg>
    