
        <svg xmlns="http://www.w3.org/2000/svg" viewBox="0 0 100 100">
            <path d="M11.3523 22.7064C17.6023 22.7064 22.7123 17.6064 22.7123 11.3564C22.7123 5.1064 17.6023 -0.0036 11.3523 -0.0036C5.1123 -0.0036 0.0023 5.1064 0.0023 11.3564C0.0023 17.6064 5.1123 22.7064 11.3523 22.7064ZM7.7323 17.5564C7.5023 17.5564 7.3323 17.3664 7.3323 17.1064V6.9864C7.3323 5.9864 7.8723 5.4464 8.8623 5.4464H13.8523C14.8323 5.4464 15.3723 5.9864 15.3723 6.9864V17.1064C15.3723 17.3664 15.2123 17.5564 14.9723 17.5564C14.8323 17.5564 14.7323 17.4864 14.5923 17.3464L11.4023 14.0364C11.3623 14.0064 11.3423 14.0064 11.3123 14.0364L8.1323 17.3464C7.9923 17.4864 7.8823 17.5564 7.7323 17.5564Z" />
        </svg>
    