
        <svg xmlns="http://www.w3.org/2000/svg" viewBox="0 0 100 100">
            <path d="M3.3517 24.9697H18.6517C19.0617 24.9697 19.3717 24.6597 19.3717 24.2497C19.3717 23.9397 19.1717 23.6597 18.8917 23.5597C17.3117 22.7797 16.9617 20.8197 18.4617 19.2397C18.9117 18.7597 19.3717 18.1297 19.3717 17.0197V3.4597C19.3717 1.1697 18.2217 -0.0003 15.9517 -0.0003H3.4217C1.1617 -0.0003 0.0017 1.1597 0.0017 3.4597V21.6597C0.0017 23.8197 1.1617 24.9697 3.3517 24.9697ZM3.0217 18.1897C2.7317 18.1897 2.4817 17.9497 2.4817 17.6497V2.1897C2.4817 1.8897 2.7317 1.6397 3.0217 1.6397C3.3317 1.6397 3.5717 1.8897 3.5717 2.1897V17.6497C3.5717 17.9497 3.3317 18.1897 3.0217 18.1897ZM3.4317 23.5197C2.1517 23.5197 1.4517 22.8297 1.4517 21.6297C1.4517 20.4997 2.2217 19.7697 3.4917 19.7697H15.7817C16.0517 19.7697 16.2817 19.7497 16.4917 19.6897C15.7817 21.0497 15.9617 22.4797 16.8517 23.5197Z" />
        </svg>
    