
        <svg xmlns="http://www.w3.org/2000/svg" viewBox="0 0 100 100">
            <path d="M11.4923 22.977C17.8323 22.977 22.9823 17.847 22.9823 11.497C22.9823 5.147 17.8323 -0.003 11.4923 -0.003C5.1423 -0.003 0.0023 5.147 0.0023 11.497C0.0023 17.847 5.1423 22.977 11.4923 22.977ZM11.4923 22.087C5.6323 22.087 0.8923 17.357 0.8923 11.497C0.8923 5.637 5.6323 0.887 11.4923 0.887C17.3523 0.887 22.0923 5.637 22.0923 11.497C22.0923 17.357 17.3523 22.087 11.4923 22.087ZM13.0623 17.367H14.1523C14.6723 17.367 14.8923 17.107 14.8923 16.637V10.657L16.0223 16.777C16.1023 17.247 16.3623 17.447 16.8623 17.357L17.5123 17.247C18.0123 17.177 18.1923 16.847 18.0923 16.387L16.5123 7.667C16.4223 7.187 16.1523 6.947 15.6523 7.057L15.0123 7.197C14.9623 7.207 14.9323 7.217 14.8923 7.227V5.957C14.8923 5.487 14.6723 5.217 14.1523 5.217H13.0623C12.5523 5.217 12.3323 5.487 12.3323 5.957V16.637C12.3323 17.107 12.5523 17.367 13.0623 17.367ZM5.9323 17.367H6.7723C7.2823 17.367 7.5123 17.107 7.5123 16.637V7.257C7.5123 6.787 7.2823 6.537 6.7723 6.537H5.9323C5.4023 6.537 5.1823 6.787 5.1823 7.257V16.637C5.1823 17.107 5.4023 17.367 5.9323 17.367ZM8.8923 17.367H10.9323C11.4623 17.367 11.6723 17.107 11.6723 16.637V9.167C11.6723 8.697 11.4623 8.427 10.9323 8.427H8.8923C8.4023 8.427 8.1723 8.697 8.1723 9.167V16.637C8.1723 17.107 8.4023 17.367 8.8923 17.367ZM9.2023 10.067C9.0323 10.067 8.9423 9.957 8.9423 9.817C8.9423 9.677 9.0423 9.567 9.2023 9.567H10.6623C10.8023 9.567 10.9123 9.677 10.9123 9.817C10.9123 9.947 10.8023 10.067 10.6623 10.067ZM9.2023 16.227C9.0423 16.227 8.9423 16.127 8.9423 15.987C8.9423 15.827 9.0323 15.727 9.2023 15.727H10.6623C10.8023 15.727 10.9123 15.847 10.9123 15.987C10.9123 16.127 10.8023 16.227 10.6623 16.227Z" />
        </svg>
    