
        <svg xmlns="http://www.w3.org/2000/svg" viewBox="0 0 100 100">
            <path d="M4.5917 23.2359H18.6417C21.5417 23.2359 23.2417 21.5459 23.2417 18.6459V4.5959C23.2417 1.6959 21.5417 -0.0041 18.6417 -0.0041H4.5917C1.7017 -0.0041 0.0017 1.6959 0.0017 4.5959V18.6459C0.0017 21.5459 1.7017 23.2359 4.5917 23.2359ZM8.6617 18.1159C7.9217 18.1159 7.4017 17.5759 7.4017 16.7959V7.1859C7.4017 5.9059 8.1717 5.1359 9.4417 5.1359H14.0717C15.3617 5.1359 16.1217 5.9059 16.1217 7.1859V16.7959C16.1217 17.5759 15.6117 18.1159 14.8717 18.1159C14.4617 18.1159 14.1717 17.9459 13.7917 17.5859L11.8017 15.5859C11.7817 15.5459 11.7417 15.5459 11.7317 15.5859L9.7517 17.5859C9.3717 17.9459 9.0717 18.1159 8.6617 18.1159Z" />
        </svg>
    