
        <svg xmlns="http://www.w3.org/2000/svg" viewBox="0 0 100 100">
            <path d="M12.1023 24.2147C18.7823 24.2147 24.2123 18.7847 24.2123 12.1047C24.2123 5.4247 18.7823 0.0047 12.1023 0.0047C5.4223 0.0047 0.0023 5.4247 0.0023 12.1047C0.0023 18.7847 5.4223 24.2147 12.1023 24.2147ZM12.9223 17.1547V6.5747C12.9223 6.0847 13.1823 5.8147 13.6723 5.8147H14.9523C15.4323 5.8147 15.7023 6.0847 15.7023 6.5747V7.6747L16.6423 7.4447C17.1123 7.3347 17.4223 7.5747 17.5223 8.0547L19.3123 16.8147C19.3923 17.2947 19.1823 17.6247 18.7123 17.7047L17.8923 17.9047C17.4423 18.0147 17.1123 17.7847 17.0123 17.3247L15.7023 10.9147V17.1547C15.7023 17.6347 15.4323 17.9047 14.9523 17.9047H13.6723C13.1823 17.9047 12.9223 17.6347 12.9223 17.1547ZM5.1923 17.1547V8.0947C5.1923 7.6147 5.4723 7.3447 5.9623 7.3447H6.9823C7.4623 7.3447 7.7323 7.6147 7.7323 8.0947V17.1547C7.7323 17.6347 7.4623 17.9047 6.9823 17.9047H5.9623C5.4723 17.9047 5.1923 17.6347 5.1923 17.1547ZM8.5123 17.1547V10.0147C8.5123 9.5547 8.8023 9.2447 9.2723 9.2447H11.3923C11.8723 9.2447 12.1323 9.5547 12.1323 10.0147V17.1547C12.1323 17.6347 11.8723 17.9047 11.3923 17.9047H9.2723C8.8023 17.9047 8.5123 17.6347 8.5123 17.1547ZM9.3823 10.9347C9.3823 11.1247 9.5523 11.3047 9.7623 11.3047H10.9123C11.1323 11.3047 11.2823 11.1247 11.2823 10.9347C11.2823 10.7147 11.1423 10.5447 10.9123 10.5447H9.7623C9.5523 10.5447 9.3823 10.7147 9.3823 10.9347ZM9.3823 16.2547C9.3823 16.4747 9.5523 16.6447 9.7623 16.6447H10.9123C11.1323 16.6447 11.2823 16.4747 11.2823 16.2547C11.2823 16.0447 11.1323 15.8647 10.9123 15.8647H9.7623C9.5523 15.8647 9.3823 16.0347 9.3823 16.2547Z" />
        </svg>
    