
        <svg xmlns="http://www.w3.org/2000/svg" viewBox="0 0 100 100">
            <path d="M19.0223 23.5048C25.5123 23.5048 30.7723 18.2448 30.7723 11.7548C30.7723 5.2648 25.5123 0.0048 19.0223 0.0048C12.5323 0.0048 7.2623 5.2648 7.2623 11.7548C7.2623 18.2448 12.5323 23.5048 19.0223 23.5048ZM35.4923 6.8248C36.3823 6.4548 36.9623 5.5048 36.3423 4.2848C35.8323 3.1948 35.2023 2.1448 34.4723 1.1748C33.8323 0.3248 32.7023 0.2648 31.8823 0.9448C31.0623 1.6448 31.0523 2.6848 31.7023 3.5648C32.1823 4.2148 32.6023 4.9248 33.1323 6.0048C33.6023 6.9248 34.6523 7.1448 35.4923 6.8248ZM2.5323 6.8248C3.3723 7.1448 4.4323 6.9248 4.9023 6.0048C5.4223 4.9248 5.8523 4.2148 6.3323 3.5648C6.9723 2.6848 6.9623 1.6448 6.1423 0.9448C5.3223 0.2648 4.1923 0.3248 3.5523 1.1748C2.8223 2.1448 2.1923 3.1948 1.6923 4.2848C1.0623 5.5048 1.6423 6.4548 2.5323 6.8248ZM19.0223 19.8548C14.5523 19.8548 10.9223 16.2148 10.9223 11.7548C10.9223 7.2848 14.5523 3.6548 19.0223 3.6548C23.4823 3.6548 27.1123 7.2848 27.1123 11.7548C27.1123 16.2148 23.4823 19.8548 19.0223 19.8548ZM2.2823 15.3548C3.2623 15.1648 3.7523 14.5348 3.7223 13.5848C3.7023 13.0748 3.6723 12.5848 3.6723 11.7648C3.6723 10.9348 3.7023 10.4548 3.7223 9.9348C3.7523 8.9848 3.2623 8.3648 2.2823 8.1748C1.1223 7.9648 0.2423 8.6448 0.0823 9.7948C0.0223 10.2648 0.0023 10.8348 0.0023 11.7648C0.0023 12.6948 0.0223 13.2648 0.0823 13.7248C0.2423 14.8748 1.1323 15.5548 2.2823 15.3548ZM35.7423 15.3548C36.8923 15.5548 37.7823 14.8748 37.9423 13.7248C38.0023 13.2648 38.0323 12.6948 38.0323 11.7648C38.0323 10.8348 38.0023 10.2648 37.9423 9.7948C37.7823 8.6448 36.9023 7.9648 35.7423 8.1748C34.7723 8.3648 34.2823 8.9848 34.3023 9.9348C34.3323 10.4548 34.3623 10.9348 34.3623 11.7648C34.3623 12.5848 34.3323 13.0748 34.3023 13.5848C34.2823 14.5348 34.7723 15.1648 35.7423 15.3548ZM31.8823 22.5748C32.7023 23.2548 33.8323 23.1948 34.4723 22.3448C35.2023 21.3748 35.8323 20.3248 36.3423 19.2348C36.9623 18.0148 36.3823 17.0648 35.4923 16.6948C34.6523 16.3748 33.6023 16.5948 33.1323 17.5148C32.6023 18.5948 32.1823 19.3048 31.7023 19.9548C31.0523 20.8448 31.0623 21.8748 31.8823 22.5748ZM6.1423 22.5748C6.9623 21.8748 6.9723 20.8448 6.3323 19.9548C5.8523 19.3048 5.4223 18.5948 4.9023 17.5148C4.4323 16.5948 3.3723 16.3748 2.5323 16.6948C1.6423 17.0648 1.0623 18.0148 1.6923 19.2348C2.1923 20.3248 2.8223 21.3748 3.5523 22.3448C4.1923 23.1948 5.3223 23.2548 6.1423 22.5748Z" />
        </svg>
    