
        <svg xmlns="http://www.w3.org/2000/svg" viewBox="0 0 100 100">
            <path d="M16.7223 22.8467C23.0423 22.8467 28.1623 17.7267 28.1623 11.4267C28.1623 5.1067 23.0423 -0.0033 16.7223 -0.0033C10.4223 -0.0033 5.2923 5.1067 5.2923 11.4267C5.2923 17.7267 10.4223 22.8467 16.7223 22.8467ZM31.6723 6.6467C32.2423 6.4567 32.5323 5.9067 32.3123 5.3167C31.7823 3.9567 31.0823 2.6767 30.2023 1.5067C29.8323 1.0167 29.2123 0.9567 28.7423 1.3367C28.3123 1.6967 28.2823 2.2767 28.6023 2.7167C29.3523 3.7267 29.9623 4.8367 30.4323 6.0067C30.6423 6.5467 31.1523 6.7967 31.6723 6.6467ZM1.7723 6.6467C2.3123 6.7967 2.8023 6.5467 3.0223 6.0067C3.4923 4.8367 4.1023 3.7267 4.8423 2.7167C5.1823 2.2767 5.1323 1.6967 4.7023 1.3367C4.2323 0.9567 3.6123 1.0167 3.2423 1.5067C2.3823 2.6767 1.6723 3.9567 1.1523 5.3167C0.9123 5.9067 1.2023 6.4567 1.7723 6.6467ZM16.7223 20.8567C11.5223 20.8567 7.2923 16.6267 7.2923 11.4267C7.2923 6.2067 11.5223 1.9767 16.7223 1.9767C21.9423 1.9767 26.1723 6.2067 26.1723 11.4267C26.1723 16.6267 21.9423 20.8567 16.7223 20.8567ZM32.0623 14.7567C32.6323 14.8867 33.1723 14.5467 33.2623 13.9367C33.3823 13.1167 33.4423 12.2767 33.4423 11.4267C33.4423 10.5867 33.3823 9.7467 33.2623 8.9167C33.1723 8.2967 32.6523 7.9667 32.0723 8.0867C31.5123 8.2167 31.2023 8.6867 31.2823 9.2467C31.3923 9.9567 31.4423 10.6767 31.4423 11.4267C31.4423 12.1567 31.3923 12.8867 31.2823 13.5867C31.2023 14.1567 31.5123 14.6367 32.0623 14.7567ZM1.3823 14.7567C1.9323 14.6367 2.2523 14.1567 2.1723 13.5867C2.0523 12.8867 2.0023 12.1567 2.0023 11.4267C2.0023 10.6767 2.0523 9.9567 2.1723 9.2467C2.2523 8.6867 1.9323 8.2167 1.3723 8.0867C0.8123 7.9667 0.2823 8.2967 0.1923 8.9167C0.0623 9.7467 0.0023 10.5867 0.0023 11.4267C0.0023 12.2767 0.0623 13.1167 0.1923 13.9367C0.2823 14.5467 0.8223 14.8867 1.3823 14.7567ZM28.7423 21.5067C29.2123 21.8767 29.8323 21.8167 30.2023 21.3167C31.0823 20.1567 31.7823 18.8667 32.3123 17.5067C32.5323 16.9267 32.2423 16.3867 31.6723 16.1967C31.1523 16.0267 30.6423 16.2767 30.4323 16.8167C29.9623 17.9867 29.3523 19.0967 28.6023 20.1067C28.2823 20.5667 28.3123 21.1267 28.7423 21.5067ZM4.7023 21.5067C5.1323 21.1267 5.1823 20.5667 4.8423 20.1067C4.1023 19.0967 3.4923 17.9867 3.0223 16.8167C2.8023 16.2767 2.3123 16.0267 1.7723 16.1967C1.2023 16.3867 0.9123 16.9267 1.1523 17.5067C1.6723 18.8667 2.3823 20.1567 3.2423 21.3167C3.6123 21.8167 4.2323 21.8767 4.7023 21.5067Z" />
        </svg>
    