
        <svg xmlns="http://www.w3.org/2000/svg" viewBox="0 0 100 100">
            <path d="M28.9023 14.3955C28.9023 6.8555 23.1423 0.6755 15.7823 0.0055C15.3523 -0.0445 15.0223 0.2755 15.0223 0.7055V4.6555C15.0223 5.0155 15.2823 5.2855 15.6423 5.3355C20.1223 5.9255 23.5823 9.7455 23.5823 14.3955C23.5823 16.5155 22.8623 18.4755 21.5823 20.0755C21.3823 20.3355 21.3823 20.6655 21.6223 20.8855L24.4723 23.7355C24.7723 24.0555 25.2223 24.0355 25.5023 23.7255C27.6223 21.1955 28.9023 17.9455 28.9023 14.3955ZM0.0023 14.3955C0.0023 17.9455 1.2823 21.1955 3.4123 23.7255C3.6823 24.0355 4.1223 24.0355 4.4323 23.7355L7.2823 20.8855C7.5123 20.6555 7.5123 20.3355 7.3123 20.0755C6.0423 18.4755 5.3223 16.5155 5.3223 14.3955C5.3223 9.7455 8.7923 5.9255 13.2623 5.3355C13.6123 5.2855 13.8723 5.0155 13.8723 4.6555V0.7055C13.8723 0.2755 13.5423 -0.0445 13.1123 0.0055C5.7623 0.6755 0.0023 6.8555 0.0023 14.3955ZM17.8523 19.7955C18.0223 19.7955 18.1323 19.6755 18.1323 19.5155V18.6455C19.6323 18.5555 20.6623 17.7155 20.6623 16.2955C20.6623 14.9355 19.7923 14.3955 18.6823 13.9055L18.1323 13.6655V11.2855C18.6923 11.3955 18.9623 11.8255 19.0823 12.3455C19.1823 12.6055 19.3923 12.8455 19.7823 12.8455C20.2223 12.8455 20.4723 12.5655 20.4723 12.2055C20.4723 12.0755 20.4423 11.8955 20.3923 11.7855C20.0623 10.6455 19.1823 10.1555 18.1323 10.0755V9.2155C18.1323 9.0555 18.0223 8.9355 17.8523 8.9355C17.6823 8.9355 17.5823 9.0555 17.5823 9.2155V10.0755C16.2023 10.1655 15.1423 10.9755 15.1423 12.3755C15.1423 13.6055 15.8423 14.2355 17.0723 14.7655L17.5823 15.0055V17.4255C16.9523 17.3455 16.6423 16.9855 16.5023 16.3355C16.3923 15.9855 16.1323 15.8255 15.8123 15.8255C15.3823 15.8255 15.0923 16.0555 15.0923 16.4855C15.0923 16.5855 15.1323 16.7355 15.1623 16.8655C15.4723 18.0655 16.4423 18.5755 17.5823 18.6455V19.5155C17.5823 19.6755 17.6823 19.7955 17.8523 19.7955ZM9.3823 18.9155C9.8923 18.9155 10.1823 18.6055 10.1823 18.0855V15.4055H11.3223L12.5323 18.2755C12.7023 18.6755 12.8923 18.9155 13.3523 18.9155C13.8023 18.9155 14.1223 18.6155 14.1223 18.1555C14.1223 17.9555 14.0423 17.7455 13.9523 17.5555L12.8623 15.0855C13.7323 14.6555 14.1923 13.7355 14.1923 12.6655C14.1923 10.8755 13.0623 9.9255 11.3323 9.9255H9.3723C8.8823 9.9255 8.5823 10.2155 8.5823 10.7555V18.0855C8.5823 18.5855 8.8323 18.9155 9.3823 18.9155ZM10.1823 14.2055V11.1955H11.1923C12.0823 11.1955 12.5623 11.8155 12.5623 12.6955C12.5623 13.5755 12.1323 14.2055 11.1923 14.2055ZM16.6323 12.2655C16.6323 11.6855 17.0323 11.3555 17.5823 11.2755V13.4155C17.0323 13.1255 16.6323 12.8055 16.6323 12.2655ZM19.1623 16.4455C19.1623 17.0555 18.7923 17.3755 18.1323 17.4455V15.2555C18.6923 15.5155 19.1623 15.8155 19.1623 16.4455Z" />
        </svg>
    