
        <svg xmlns="http://www.w3.org/2000/svg" viewBox="0 0 100 100">
            <path d="M1.5617 22.2148H24.6117V21.4348C24.6117 20.9648 24.3417 20.6848 23.8617 20.6848H23.1117V8.0348H24.1417C24.7817 8.0348 25.1617 7.5748 25.1617 7.0848C25.1617 6.7348 24.9617 6.4348 24.5317 6.1848L14.5217 0.4148C14.0517 0.1448 13.5617 0.0048 13.0817 0.0048C12.6017 0.0048 12.0917 0.1448 11.6517 0.4148L1.6417 6.1848C1.1917 6.4348 1.0117 6.7348 1.0117 7.0848C1.0117 7.5748 1.3817 8.0348 2.0317 8.0348H3.0617V20.6848H2.3217C1.8417 20.6848 1.5617 20.9648 1.5617 21.4348ZM4.8317 20.6848V6.5348L12.6217 2.1648C12.7617 2.0848 12.9217 2.0348 13.0817 2.0348C13.2317 2.0348 13.3917 2.0848 13.5517 2.1648L21.3417 6.5348V20.6848ZM16.2217 17.3948C16.3917 17.3948 16.5017 17.2748 16.5017 17.1048V16.2848C17.8517 16.1948 18.7417 15.3948 18.7417 14.1248C18.7417 12.8648 17.9617 12.3748 16.9217 11.8748L16.5017 11.6848V9.0848C17.1317 9.1848 17.4017 9.6948 17.5117 10.2648C17.5517 10.4748 17.7317 10.6848 18.0617 10.6848C18.3717 10.6848 18.6017 10.5048 18.6017 10.1748C18.6017 10.0848 18.5717 9.9448 18.5517 9.8648C18.2917 8.6848 17.4817 8.1948 16.5017 8.1248V7.3148C16.5017 7.1348 16.3917 7.0148 16.2217 7.0148C16.0417 7.0148 15.9217 7.1348 15.9217 7.3148V8.1248C14.6917 8.2148 13.8017 8.9748 13.8017 10.2148C13.8017 11.3348 14.4417 11.9248 15.5717 12.4648L15.9217 12.6348V15.3148C15.2717 15.2248 14.9317 14.8048 14.8017 14.0848C14.7417 13.7948 14.5217 13.6548 14.2717 13.6548C13.9417 13.6548 13.7117 13.8348 13.7117 14.1748C13.7117 14.2648 13.7317 14.3948 13.7617 14.4948C14.0317 15.6948 14.8917 16.2048 15.9217 16.2848V17.1048C15.9217 17.2748 16.0417 17.3948 16.2217 17.3948ZM8.4017 16.5348C8.7817 16.5348 9.0017 16.2848 9.0017 15.9148V13.0548H10.3117L11.6017 16.1048C11.7317 16.3948 11.9017 16.5348 12.2217 16.5348C12.5617 16.5348 12.7817 16.3148 12.7817 15.9748C12.7817 15.8248 12.7217 15.6748 12.6717 15.5348L11.4717 12.7948C12.4017 12.3948 12.8117 11.4648 12.8117 10.4848C12.8117 8.8748 11.7917 7.9648 10.2417 7.9648H8.3917C8.0117 7.9648 7.8017 8.2048 7.8017 8.5748V15.9148C7.8017 16.2648 7.9917 16.5348 8.4017 16.5348ZM9.0017 12.0948V8.9648H10.1217C11.0817 8.9648 11.6017 9.5748 11.6017 10.5148C11.6017 11.4448 11.1417 12.0948 10.1417 12.0948ZM14.9317 10.1448C14.9317 9.5148 15.3417 9.1648 15.9217 9.0748V11.4048C15.3517 11.0948 14.9317 10.7448 14.9317 10.1448ZM17.6017 14.2248C17.6017 14.9048 17.2017 15.2548 16.5017 15.3248V12.9148C17.1117 13.2048 17.6017 13.5448 17.6017 14.2248ZM0.9417 25.0048H25.2217C25.7317 25.0048 26.1717 24.5748 26.1717 24.0548C26.1717 23.5448 25.7317 23.1248 25.2217 23.1248H0.9417C0.4217 23.1248 0.0017 23.5448 0.0017 24.0548C0.0017 24.5748 0.4217 25.0048 0.9417 25.0048Z" />
        </svg>
    