
        <svg xmlns="http://www.w3.org/2000/svg" viewBox="0 0 100 100">
            <path d="M0.9217 21.9814H22.7817V21.6014C22.7817 21.4914 22.6917 21.4014 22.5617 21.4014H21.8217V6.7314H22.9717C23.1817 6.7314 23.2717 6.6014 23.2717 6.4314C23.2717 6.3514 23.2217 6.2314 23.1017 6.1614L12.9717 0.3114C12.6117 0.1014 12.2217 0.0014 11.8617 0.0014C11.4817 0.0014 11.1017 0.1014 10.7317 0.3114L0.6117 6.1614C0.4817 6.2314 0.4317 6.3514 0.4317 6.4314C0.4317 6.6014 0.5317 6.7314 0.7417 6.7314H1.9017V21.4014H1.1517C1.0217 21.4014 0.9217 21.4914 0.9217 21.6014ZM2.4717 21.4014V5.7614L11.0817 0.8414C11.3317 0.7014 11.5817 0.6314 11.8617 0.6314C12.1317 0.6314 12.3917 0.7014 12.6217 0.8414L21.2317 5.7614V21.4014ZM15.0117 17.5614C15.1417 17.5614 15.2117 17.4814 15.2117 17.3714V16.3114C16.5317 16.2414 17.3017 15.3514 17.3017 14.2114C17.3017 13.0114 16.5517 12.3514 15.5317 11.8714L15.2117 11.7214V8.1914C16.1917 8.2814 16.5817 9.0114 16.6517 9.9914C16.6617 10.1614 16.7717 10.2514 16.9017 10.2514C17.0617 10.2514 17.1717 10.1214 17.1717 9.9714C17.1717 9.9214 17.1717 9.8514 17.1517 9.7314C17.0417 8.4214 16.2517 7.7914 15.2117 7.7114V6.7614C15.2117 6.6414 15.1417 6.5614 15.0117 6.5614C14.8917 6.5614 14.8117 6.6414 14.8117 6.7614V7.7114C13.7217 7.7814 12.8217 8.4714 12.8217 9.6914C12.8217 10.7814 13.4917 11.4614 14.6017 12.0114L14.8117 12.1214V15.8314C13.7317 15.7414 13.3017 14.9514 13.2117 13.9014C13.1917 13.6914 13.0317 13.6514 12.9417 13.6514C12.8017 13.6514 12.6817 13.7214 12.6817 13.9114C12.6817 13.9714 12.6817 14.0314 12.6917 14.1514C12.8317 15.5114 13.6417 16.2314 14.8117 16.3114V17.3714C14.8117 17.4814 14.8917 17.5614 15.0117 17.5614ZM7.3317 16.5514C7.5017 16.5514 7.6017 16.4414 7.6017 16.2514V12.5814H9.4117L11.0517 16.3714C11.1217 16.5214 11.2117 16.5514 11.3117 16.5514C11.4717 16.5514 11.5917 16.4414 11.5917 16.2914C11.5917 16.2214 11.5517 16.1414 11.5317 16.0814L9.9417 12.4414C10.9817 12.1614 11.5117 11.1814 11.5117 10.0514C11.5117 8.5514 10.6217 7.5714 9.1017 7.5714H7.3317C7.1717 7.5714 7.0517 7.6914 7.0517 7.8614V16.2514C7.0517 16.4414 7.1617 16.5514 7.3317 16.5514ZM7.6017 12.1014V8.0714H9.0617C10.3217 8.0714 10.9717 8.8814 10.9717 10.0814C10.9717 11.2614 10.3217 12.1014 9.0717 12.1014ZM13.3517 9.6714C13.3517 8.7414 13.9917 8.2514 14.8117 8.1914V11.5314C13.9917 11.1314 13.3517 10.6014 13.3517 9.6714ZM15.2317 12.3114C16.1217 12.7514 16.7717 13.2614 16.7717 14.2514C16.7717 15.2214 16.1117 15.7714 15.2117 15.8314V12.3114ZM0.2817 23.4614H23.4217C23.5817 23.4614 23.7117 23.3314 23.7117 23.1714C23.7117 23.0114 23.5817 22.8914 23.4217 22.8914H0.2817C0.1317 22.8914 0.0017 23.0114 0.0017 23.1714C0.0017 23.3314 0.1317 23.4614 0.2817 23.4614Z" />
        </svg>
    