
        <svg xmlns="http://www.w3.org/2000/svg" viewBox="0 0 100 100">
            <path d="M12.6023 25.1986C19.5623 25.1986 25.2023 19.5586 25.2023 12.5986C25.2023 5.6386 19.5623 -0.0014 12.6023 -0.0014C5.6523 -0.0014 0.0023 5.6386 0.0023 12.5986C0.0023 19.5586 5.6523 25.1986 12.6023 25.1986ZM16.1223 17.8686C15.9923 17.8686 15.8923 17.7786 15.8923 17.6386V16.7786C14.6923 16.7386 13.6723 16.2686 13.3123 15.1986C13.2523 15.0486 13.2023 14.8686 13.2023 14.7386C13.2023 14.1986 13.6023 13.9086 14.1423 13.9086C14.5523 13.9086 14.8523 14.1086 15.0023 14.5086C15.1523 14.9686 15.4323 15.2086 15.8923 15.2586V13.4886L15.1723 13.2186C13.9323 12.7186 13.1823 12.1086 13.1823 10.8086C13.1823 9.2686 14.4523 8.4686 15.8923 8.3886V7.5486C15.8923 7.3986 15.9923 7.3086 16.1223 7.3086C16.2623 7.3086 16.3623 7.3986 16.3623 7.5486V8.3886C17.4223 8.4586 18.3423 8.9186 18.7523 9.8586C18.8323 10.0186 18.9023 10.2186 18.9023 10.4386C18.9023 10.8086 18.6323 11.2286 18.0023 11.2286C17.5623 11.2286 17.3123 10.9686 17.1223 10.6286C16.9923 10.2786 16.7623 10.0086 16.3623 9.9286V11.6786L17.0723 11.9486C18.2023 12.3986 19.1223 12.9386 19.1223 14.3286C19.1223 15.8286 17.9423 16.6886 16.3623 16.7786V17.6386C16.3623 17.7786 16.2623 17.8686 16.1223 17.8686ZM7.4223 17.0486C6.7023 17.0486 6.3523 16.6386 6.3523 15.9486V9.3786C6.3523 8.5986 6.7623 8.2586 7.4023 8.2586H9.3523C11.2423 8.2586 12.4023 9.1986 12.4023 11.0786C12.4023 12.2186 11.9223 13.0186 11.2423 13.4386L12.0323 15.2086C12.1523 15.4586 12.2823 15.7586 12.2823 16.0186C12.2823 16.6486 11.8223 17.0486 11.2423 17.0486C10.5923 17.0486 10.3723 16.6686 10.1523 16.1086L9.2123 13.8386H8.4623V15.9486C8.4623 16.6286 8.1023 17.0486 7.4223 17.0486ZM8.4623 12.3886H9.1623C9.8923 12.3886 10.2323 11.8286 10.2323 11.1286C10.2323 10.4286 9.8623 9.8586 9.1623 9.8586H8.4623ZM15.1323 10.6286C15.1323 11.0186 15.4423 11.2586 15.8923 11.4886V9.8986C15.4723 9.9586 15.1323 10.1986 15.1323 10.6286ZM16.3623 15.2686C16.9023 15.2086 17.1823 14.9786 17.1823 14.5586C17.1823 14.0786 16.8023 13.8786 16.3623 13.6886Z" />
        </svg>
    