
        <svg xmlns="http://www.w3.org/2000/svg" viewBox="0 0 100 100">
            <path d="M2.0617 23.723H26.2417V22.673C26.2417 22.083 25.8717 21.743 25.2917 21.743H24.7417V8.973H25.7017C26.5517 8.973 27.0617 8.343 27.0617 7.713C27.0617 7.243 26.8017 6.823 26.2517 6.493L15.8017 0.473C15.2817 0.173 14.6917 0.003 14.1417 0.003C13.5917 0.003 13.0117 0.173 12.5017 0.473L2.0517 6.493C1.4917 6.823 1.2417 7.243 1.2417 7.713C1.2417 8.343 1.7317 8.973 2.5917 8.973H3.5617V21.743H3.0117C2.4217 21.743 2.0617 22.083 2.0617 22.673ZM5.8317 21.743V7.293L13.8317 2.813C13.9217 2.753 14.0517 2.723 14.1417 2.723C14.2517 2.723 14.3717 2.753 14.4717 2.813L22.4617 7.293V21.743ZM17.3417 18.243C17.4817 18.243 17.5917 18.143 17.5917 18.003V17.203C18.9917 17.123 20.0017 16.333 20.0017 15.003C20.0017 13.733 19.1717 13.243 18.1417 12.813L17.5917 12.563V10.593C18.0317 10.683 18.2717 11.043 18.3917 11.453C18.5117 11.703 18.7217 11.943 19.1017 11.943C19.5817 11.943 19.8117 11.633 19.8117 11.293C19.8117 11.143 19.7717 10.983 19.7117 10.853C19.3817 9.863 18.5517 9.433 17.5917 9.363V8.583C17.5917 8.433 17.4817 8.333 17.3417 8.333C17.2017 8.333 17.1017 8.433 17.1017 8.583V9.363C15.8117 9.443 14.7517 10.193 14.7517 11.533C14.7517 12.683 15.4217 13.253 16.5617 13.743L17.1017 13.973V15.983C16.5817 15.913 16.3017 15.623 16.1717 15.093C16.0617 14.753 15.8117 14.583 15.4817 14.583C15.0517 14.583 14.7417 14.813 14.7417 15.243C14.7417 15.363 14.7817 15.513 14.8117 15.633C15.1217 16.703 16.0317 17.153 17.1017 17.203V18.003C17.1017 18.143 17.2017 18.243 17.3417 18.243ZM9.4417 17.453C9.9717 17.453 10.2617 17.123 10.2617 16.593V14.323H11.1817L12.2017 16.753C12.3717 17.183 12.5617 17.453 13.0517 17.453C13.5217 17.453 13.8617 17.143 13.8617 16.653C13.8617 16.453 13.7717 16.233 13.6717 16.033L12.7717 13.993C13.5117 13.593 13.9417 12.813 13.9417 11.793C13.9417 10.103 12.8917 9.233 11.2517 9.233H9.4317C8.9317 9.233 8.6117 9.523 8.6117 10.093V16.593C8.6117 17.123 8.8817 17.453 9.4417 17.453ZM10.2617 13.123V10.523H11.1017C11.8517 10.523 12.2617 11.073 12.2617 11.823C12.2617 12.573 11.8817 13.123 11.1017 13.123ZM16.2917 11.403C16.2917 10.913 16.6417 10.653 17.1017 10.583V12.353C16.6317 12.113 16.2917 11.833 16.2917 11.403ZM18.4617 15.163C18.4617 15.653 18.1517 15.923 17.5917 15.983V14.183C18.0617 14.403 18.4617 14.633 18.4617 15.163ZM1.2817 27.163H26.8317C27.5117 27.163 28.1117 26.603 28.1117 25.883C28.1117 25.193 27.5117 24.623 26.8317 24.623H1.2817C0.5817 24.623 0.0017 25.193 0.0017 25.883C0.0017 26.593 0.5817 27.163 1.2817 27.163Z" />
        </svg>
    