
        <svg xmlns="http://www.w3.org/2000/svg" viewBox="0 0 100 100">
            <path d="M24.1717 26.3863C24.5817 26.3863 24.8717 26.0963 24.8717 25.6863V23.6063C28.4217 23.3763 31.2117 21.4363 31.2117 17.8463C31.2117 14.5663 28.9917 13.2263 26.0417 12.1063L24.8717 11.6563V5.4763C26.3517 5.6962 27.3017 6.6463 27.6717 8.1763C27.9217 8.9263 28.4517 9.3563 29.2517 9.3563C30.1517 9.3563 30.7817 8.8263 30.7817 7.9363C30.7817 7.6763 30.7417 7.3163 30.6417 7.0063C29.9517 4.3463 27.6017 2.9563 24.8717 2.7463V0.7063C24.8717 0.2963 24.5817 -0.0038 24.1717 -0.0038C23.7517 -0.0038 23.4617 0.2963 23.4617 0.7063V2.7463C20.1417 2.9763 17.4017 4.9262 17.4017 8.3763C17.4017 11.4863 19.5017 13.0063 22.4017 14.0963L23.4617 14.4963V20.8863C21.8017 20.6963 20.7217 19.8063 20.3317 18.0563C20.1117 17.2963 19.5817 16.8663 18.8017 16.8663C17.8017 16.8663 17.2217 17.4763 17.2217 18.3363C17.2217 18.6463 17.2717 18.9263 17.3717 19.2063C18.0917 22.0063 20.5317 23.4163 23.4617 23.6063V25.6863C23.4617 26.0963 23.7517 26.3863 24.1717 26.3863ZM1.7817 24.2463C2.8917 24.2463 3.5317 23.5463 3.5317 22.4163V15.5863H6.6917C6.8017 15.5863 6.9017 15.5863 6.9917 15.5763L10.4717 23.0663C10.8417 23.8563 11.3317 24.2463 12.2317 24.2463C13.2617 24.2463 13.9217 23.5563 13.9217 22.5863C13.9217 22.1462 13.7617 21.7362 13.5517 21.3063L10.4317 14.9063C12.8117 13.9063 14.0517 11.6263 14.0517 8.9763C14.0517 4.7662 11.2617 2.4063 6.9717 2.4063H1.7617C0.7117 2.4063 0.0017 3.1262 0.0017 4.2162V22.4163C0.0017 23.5563 0.6517 24.2463 1.7817 24.2463ZM3.5317 12.9163V5.2362H6.6217C9.0017 5.2362 10.4617 6.6763 10.4617 9.0563C10.4617 11.3763 9.1517 12.9163 6.6717 12.9163ZM20.6817 8.1063C20.6817 6.5463 21.9517 5.6762 23.4617 5.4763V11.1063C22.0317 10.5163 20.6817 9.7163 20.6817 8.1063ZM27.9117 18.1863C27.9117 19.8863 26.5817 20.7163 24.8717 20.8962V15.0363C26.6417 15.7163 27.9117 16.4663 27.9117 18.1863Z" />
        </svg>
    