
        <svg xmlns="http://www.w3.org/2000/svg" viewBox="0 0 100 100">
            <path d="M28.6023 14.2549C28.6023 6.7749 22.8823 0.6449 15.5823 0.0049C15.1923 -0.0351 14.8723 0.2649 14.8723 0.6749V4.5749C14.8723 4.9149 15.1123 5.1749 15.4523 5.2049C19.9323 5.7849 23.4123 9.6049 23.4123 14.2549C23.4123 16.3649 22.7023 18.3149 21.4123 19.9349C21.2323 20.1749 21.2323 20.4649 21.4423 20.6749L24.2723 23.4949C24.5623 23.7849 24.9823 23.7849 25.2423 23.4749C27.3523 20.9749 28.6023 17.7549 28.6023 14.2549ZM0.0023 14.2549C0.0023 17.7549 1.2623 20.9749 3.3623 23.4749C3.6223 23.7849 4.0423 23.7849 4.3323 23.4849L7.1623 20.6649C7.3723 20.4649 7.3823 20.1749 7.1923 19.9249C5.9223 18.3149 5.1923 16.3649 5.1923 14.2549C5.1923 9.6049 8.6723 5.7849 13.1523 5.2049C13.4923 5.1749 13.7323 4.9149 13.7323 4.5749V0.6749C13.7323 0.2649 13.4323 -0.0351 13.0223 0.0049C5.7323 0.6449 0.0023 6.7749 0.0023 14.2549ZM17.7323 19.8049C17.9223 19.8049 18.0323 19.6949 18.0323 19.5149V18.6349C19.5223 18.5349 20.5423 17.6749 20.5423 16.2549C20.5423 14.8849 19.6723 14.3349 18.5423 13.8149L18.0323 13.5849V10.9949C18.6523 11.1049 18.9223 11.5949 19.0523 12.1549C19.1323 12.4049 19.3323 12.6449 19.7123 12.6449C20.1223 12.6449 20.3623 12.3849 20.3623 12.0349C20.3623 11.9249 20.3323 11.7549 20.2923 11.6349C19.9923 10.4349 19.0923 9.9149 18.0323 9.8349V8.9649C18.0323 8.7849 17.9223 8.6649 17.7323 8.6649C17.5523 8.6649 17.4423 8.7849 17.4423 8.9649V9.8349C16.0623 9.9449 15.0323 10.7749 15.0323 12.1549C15.0323 13.3849 15.7423 14.0349 16.9823 14.5949L17.4423 14.8049V17.4749C16.7723 17.3849 16.4323 16.9749 16.2923 16.2549C16.2023 15.9249 15.9523 15.7649 15.6423 15.7649C15.2423 15.7649 14.9623 15.9849 14.9623 16.3849C14.9623 16.4949 14.9923 16.6449 15.0223 16.7649C15.3323 18.0149 16.3023 18.5549 17.4423 18.6349V19.5149C17.4423 19.6949 17.5523 19.8049 17.7323 19.8049ZM9.1723 18.9049C9.6423 18.9049 9.9123 18.6049 9.9123 18.1349V15.2349H11.1923L12.4923 18.3149C12.6523 18.6949 12.8423 18.9049 13.2523 18.9049C13.6723 18.9049 13.9723 18.6249 13.9723 18.2049C13.9723 18.0149 13.8823 17.8249 13.8123 17.6549L12.6223 14.9349C13.5723 14.4849 14.0123 13.5249 14.0123 12.4449C14.0123 10.6549 12.8923 9.6849 11.1723 9.6849H9.1623C8.7023 9.6849 8.4223 9.9649 8.4223 10.4449V18.1349C8.4223 18.5849 8.6623 18.9049 9.1723 18.9049ZM9.9123 14.1049V10.8749H11.0323C12.0023 10.8749 12.5123 11.5249 12.5123 12.4849C12.5123 13.4249 12.0623 14.1049 11.0423 14.1049ZM16.4223 12.0449C16.4223 11.4249 16.8423 11.0649 17.4423 10.9849V13.3049C16.8523 12.9949 16.4223 12.6449 16.4223 12.0449ZM19.1323 16.3849C19.1323 17.0649 18.7423 17.4149 18.0323 17.4849V15.0849C18.6323 15.3749 19.1323 15.7049 19.1323 16.3849Z" />
        </svg>
    