
        <svg xmlns="http://www.w3.org/2000/svg" viewBox="0 0 100 100">
            <path d="M12.2223 24.4436C18.9723 24.4436 24.4423 18.9736 24.4423 12.2236C24.4423 5.4736 18.9723 0.0036 12.2223 0.0036C5.4723 0.0036 0.0023 5.4736 0.0023 12.2236C0.0023 18.9736 5.4723 24.4436 12.2223 24.4436ZM12.2223 21.7636C6.9523 21.7636 2.6823 17.4936 2.6823 12.2236C2.6823 6.9536 6.9523 2.6836 12.2223 2.6836C17.4923 2.6836 21.7623 6.9536 21.7623 12.2236C21.7623 17.4936 17.4923 21.7636 12.2223 21.7636ZM10.0123 7.5236C10.0123 7.2936 10.1723 7.1336 10.4323 7.1336H14.0323C14.2823 7.1336 14.4523 7.2936 14.4523 7.5236V8.0836H10.0123ZM12.2223 11.4936C14.4523 11.4936 16.5723 11.1436 18.6223 10.2936V9.9136C18.6223 8.7036 18.0023 8.0836 16.7823 8.0836H15.6923V7.4736C15.6923 6.5536 15.0923 6.0136 14.1023 6.0136H10.3523C9.3523 6.0136 8.7523 6.5536 8.7523 7.4736V8.0836H7.6623C6.4423 8.0836 5.8223 8.7036 5.8223 9.9136V10.2936C7.8723 11.1436 9.9923 11.4936 12.2223 11.4936ZM7.6623 17.2336H16.7823C18.0023 17.2336 18.6223 16.6136 18.6223 15.4136V11.4536C16.9023 12.0836 15.3623 12.3736 13.8023 12.4836V12.9236C13.8023 13.3736 13.5423 13.6036 13.1023 13.6036H11.3423C10.9023 13.6036 10.6423 13.3736 10.6423 12.9236V12.4836C9.0823 12.3736 7.5623 12.0836 5.8223 11.4536V15.4136C5.8223 16.6136 6.4423 17.2336 7.6623 17.2336Z" />
        </svg>
    