
        <svg xmlns="http://www.w3.org/2000/svg" viewBox="0 0 100 100">
            <path d="M11.9523 23.9023C18.5523 23.9023 23.9023 18.5523 23.9023 11.9523C23.9023 5.3623 18.5523 0.0023 11.9523 0.0023C5.3623 0.0023 0.0023 5.3623 0.0023 11.9523C0.0023 18.5523 5.3623 23.9023 11.9523 23.9023ZM5.0823 9.9223V9.4423C5.0823 8.1823 5.7223 7.5623 6.9823 7.5623H8.2723V6.9523C8.2723 5.9923 8.9023 5.4023 9.8923 5.4023H14.0423C15.0223 5.4023 15.6523 5.9923 15.6523 6.9523V7.5623H16.9423C18.2123 7.5623 18.8523 8.1823 18.8523 9.4423V9.9223C16.5723 10.8523 14.3623 11.1823 11.9623 11.1823C9.5623 11.1823 7.3623 10.8523 5.0823 9.9223ZM9.4323 7.5623H14.4923V7.0123C14.4923 6.6923 14.2823 6.5023 13.9523 6.5023H9.9723C9.6323 6.5023 9.4323 6.6923 9.4323 7.0123ZM5.0823 15.4523V11.0023C6.8923 11.6623 8.5923 11.9723 10.3223 12.0923V12.5823C10.3223 13.0223 10.5723 13.2723 10.9923 13.2723H12.9423C13.3623 13.2723 13.6023 13.0223 13.6023 12.5823V12.0923C15.3423 11.9723 17.0423 11.6623 18.8523 11.0023V15.4523C18.8523 16.7323 18.2123 17.3523 16.9423 17.3523H6.9823C5.7223 17.3523 5.0823 16.7323 5.0823 15.4523Z" />
        </svg>
    