
        <svg xmlns="http://www.w3.org/2000/svg" viewBox="0 0 100 100">
            <path d="M8.2517 2.3428V4.1828H17.5917V2.3428C17.5917 1.3928 16.9817 0.8328 15.9417 0.8328H9.8817C8.8517 0.8328 8.2517 1.3928 8.2517 2.3428ZM12.9117 11.1328C8.1317 11.1328 3.9717 10.5328 0.0017 8.8628V7.1228C0.0017 5.1428 0.9817 4.1828 2.9617 4.1828H7.3917V2.3828C7.3917 0.8428 8.3417 0.0028 9.9117 0.0028H15.9117C17.5217 0.0028 18.4417 0.8428 18.4417 2.3828V4.1828H22.8717C24.8517 4.1828 25.8417 5.1428 25.8417 7.1228V8.8628C21.8817 10.5328 17.7217 11.1328 12.9117 11.1328ZM2.9617 21.8428C0.9817 21.8428 0.0017 20.8828 0.0017 18.9028V9.7728C3.3517 11.0228 6.6817 11.6828 10.0817 11.8828V12.8128C10.0817 13.5028 10.4717 13.9028 11.1917 13.9028H14.6517C15.3517 13.9028 15.7617 13.5028 15.7617 12.8128V11.8828C19.1717 11.6828 22.4917 11.0228 25.8417 9.7728V18.9028C25.8417 20.8828 24.8517 21.8428 22.8717 21.8428Z" />
        </svg>
    