
        <svg xmlns="http://www.w3.org/2000/svg" viewBox="0 0 100 100">
            <path d="M4.5517 26.0188H25.7817C28.6617 26.0188 30.3117 24.3588 30.3117 21.4788V9.6888C30.3117 6.8088 28.6617 5.1588 25.7817 5.1588H22.1817V3.4488C22.1817 1.1687 20.8117 -0.0012 18.2217 -0.0012H12.0717C9.4917 -0.0012 8.1417 1.1687 8.1417 3.4488V5.1588H4.5517C1.6517 5.1588 0.0017 6.8088 0.0017 9.6888V21.4788C0.0017 24.3588 1.6517 26.0188 4.5517 26.0188ZM11.6617 4.0287C11.6617 3.4088 11.9717 3.0888 12.6017 3.0888H17.7217C18.3417 3.0888 18.6517 3.4187 18.6517 4.0287V5.1588H11.6617ZM4.1617 9.6788C4.1617 9.1888 4.4317 8.9088 4.9217 8.9088H25.4017C25.8917 8.9088 26.1517 9.1888 26.1517 9.6788V11.1588C23.0617 12.2587 19.3317 12.8188 15.1617 12.8188C10.9917 12.8188 7.2517 12.2587 4.1617 11.1588ZM4.9217 22.2688C4.4317 22.2688 4.1617 21.9988 4.1617 21.5088V14.6488C6.3917 15.3088 8.8217 15.7488 11.3717 15.9688V16.8088C11.3717 17.9787 12.0517 18.5888 13.3017 18.5888H17.0117C18.2817 18.5888 18.9517 17.9787 18.9517 16.8088V15.9688C21.5017 15.7488 23.9317 15.3088 26.1517 14.6488V21.5088C26.1517 21.9988 25.8917 22.2688 25.4017 22.2688Z" />
        </svg>
    