
        <svg xmlns="http://www.w3.org/2000/svg" viewBox="0 0 100 100">
            <path d="M11.9523 23.9023C18.5523 23.9023 23.9023 18.5523 23.9023 11.9523C23.9023 5.3623 18.5523 0.0023 11.9523 0.0023C5.3623 0.0023 0.0023 5.3623 0.0023 11.9523C0.0023 18.5523 5.3623 23.9023 11.9523 23.9023ZM14.9723 18.9123C14.7423 18.9123 14.5823 18.8123 14.3123 18.5423L12.1523 16.5823H8.1123C6.3623 16.5823 5.3923 15.6023 5.3923 13.8523V9.2923C5.3923 7.5723 6.3623 6.5823 8.1123 6.5823H15.7923C17.5423 6.5823 18.5123 7.5723 18.5123 9.2923V13.8523C18.5123 15.6023 17.5423 16.5823 15.7923 16.5823H15.5023V18.3023C15.5023 18.6723 15.3023 18.9123 14.9723 18.9123Z" />
        </svg>
    