
        <svg xmlns="http://www.w3.org/2000/svg" viewBox="0 0 100 100">
            <path d="M18.8317 22.9605C19.2117 22.9605 19.4617 22.6905 19.4617 22.2505V18.9405H20.4617C23.2217 18.9405 24.9217 17.2305 24.9217 14.4705V4.4605C24.9217 1.7105 23.2217 0.0005 20.4617 0.0005H4.4617C1.7017 0.0005 0.0017 1.7305 0.0017 4.4605V14.4705C0.0017 17.2005 1.7017 18.9405 4.4617 18.9405H13.8517L18.0717 22.5605C18.3417 22.8005 18.5617 22.9605 18.8317 22.9605ZM18.6317 21.9805L14.6217 18.4205C14.3217 18.1305 14.1317 18.0705 13.7617 18.0705H4.4917C2.2817 18.0705 0.8717 16.6805 0.8717 14.4505V4.4905C0.8717 2.2605 2.2817 0.8705 4.4917 0.8705H20.4417C22.6917 0.8705 24.0517 2.2605 24.0517 4.4905V14.4505C24.0517 16.6805 22.6917 18.0705 20.4417 18.0705H19.0617C18.7617 18.0705 18.6317 18.1905 18.6317 18.4905Z" />
        </svg>
    