
        <svg xmlns="http://www.w3.org/2000/svg" viewBox="0 0 100 100">
            <path d="M11.7523 23.5031C18.2323 23.5031 23.5123 18.2331 23.5123 11.7531C23.5123 5.2731 18.2323 0.0031 11.7523 0.0031C5.2723 0.0031 0.0023 5.2731 0.0023 11.7531C0.0023 18.2331 5.2723 23.5031 11.7523 23.5031ZM14.9423 18.6331C14.7523 18.6331 14.6123 18.5531 14.4023 18.3531L12.2023 16.3931H7.7423C6.1323 16.3931 5.1823 15.4431 5.1823 13.8231V8.9531C5.1823 7.3431 6.1323 6.4031 7.7423 6.4031H15.7723C17.3823 6.4031 18.3323 7.3431 18.3323 8.9531V13.8231C18.3323 15.4431 17.3823 16.3931 15.7723 16.3931H15.3723V18.1531C15.3723 18.4431 15.2023 18.6331 14.9423 18.6331Z" />
        </svg>
    