
        <svg xmlns="http://www.w3.org/2000/svg" viewBox="0 0 100 100">
            <path d="M12.7017 -0.0002C12.2817 -0.0002 11.8917 0.1898 11.5317 0.7998L9.3117 4.3898H4.9817C1.8017 4.3898 0.0017 6.2198 0.0017 9.3598V18.7998C0.0017 21.9398 1.8017 23.7698 4.9817 23.7698H20.4617C23.6417 23.7698 25.4417 21.9298 25.4417 18.7998V9.3598C25.4417 6.2298 23.6417 4.3898 20.4617 4.3898H16.0917L13.8717 0.7998C13.5117 0.1898 13.1217 -0.0002 12.7017 -0.0002ZM12.7017 1.4798L14.8117 5.1298C15.1017 5.6998 15.3117 5.8398 15.9517 5.8398H20.4517C22.7417 5.8398 23.9917 7.1298 23.9917 9.3898V18.7698C23.9917 21.0398 22.7417 22.3198 20.4517 22.3198H4.9917C2.6717 22.3198 1.4517 21.0398 1.4517 18.7698V9.3898C1.4517 7.1298 2.6717 5.8398 4.9917 5.8398H9.4617C10.0917 5.8398 10.3017 5.6998 10.5917 5.1298Z" />
        </svg>
    