
        <svg xmlns="http://www.w3.org/2000/svg" viewBox="0 0 100 100">
            <path d="M0.0017 14.7867C0.0017 18.3067 2.1417 20.3867 5.4717 20.3867H5.8917V23.5867C5.8917 24.5167 6.3917 25.0967 7.2317 25.0967C7.8317 25.0967 8.2717 24.8167 8.9917 24.1867L12.1517 21.4267C11.6217 20.4267 11.3317 19.2267 11.3317 17.8867V11.0067C11.3317 6.7267 14.0417 4.0067 18.4117 4.0067H25.7917V3.8567C25.2317 1.4067 23.3417 -0.0033 20.4517 -0.0033H5.6017C2.0617 -0.0033 0.0017 2.0867 0.0017 5.5967ZM18.4117 22.9467H22.3317L26.4517 26.4767C27.1717 27.0967 27.6117 27.3867 28.1917 27.3867C29.0317 27.3867 29.5217 26.7967 29.5217 25.8767V22.9467H29.7217C33.0117 22.9467 34.8617 21.0967 34.8617 17.8667V11.0067C34.8617 7.7067 32.9517 5.7967 29.5817 5.7967H18.4117C15.0317 5.7967 13.1217 7.7067 13.1217 11.0067V17.8867C13.1217 21.0967 15.0317 22.9467 18.4117 22.9467ZM19.9317 13.2967C19.3317 13.2967 18.8917 12.8167 18.8917 12.2467C18.8917 11.6467 19.3217 11.1767 19.9317 11.1767H28.1217C28.7217 11.1767 29.1717 11.6367 29.1717 12.2467C29.1717 12.8067 28.7117 13.2967 28.1217 13.2967ZM19.9317 17.7767C19.3317 17.7767 18.8917 17.3167 18.8917 16.7367C18.8917 16.1467 19.3217 15.6567 19.9317 15.6567H25.8317C26.4117 15.6567 26.8817 16.1467 26.8817 16.7367C26.8817 17.3167 26.4117 17.7767 25.8317 17.7767Z" />
        </svg>
    