
        <svg xmlns="http://www.w3.org/2000/svg" viewBox="0 0 100 100">
            <path d="M18.7717 25.0034C19.8017 25.0034 20.4117 24.3034 20.4117 23.1634V20.3934H21.0917C24.4317 20.3934 26.5817 18.3034 26.5817 14.7934V5.6134C26.5817 2.0934 24.5117 0.0034 20.9617 0.0034H5.6017C2.0617 0.0034 0.0017 2.0934 0.0017 5.6134V14.7934C0.0017 18.2934 2.0617 20.3934 5.6017 20.3934H12.6317L16.6317 23.9034C17.5117 24.6834 18.0617 25.0034 18.7717 25.0034ZM18.1317 22.1034L14.4417 18.4534C13.9117 17.9134 13.5517 17.7734 12.8017 17.7734H5.7217C3.6317 17.7734 2.6117 16.7234 2.6117 14.6734V5.7334C2.6117 3.6634 3.6317 2.6134 5.7217 2.6134H20.8517C22.9617 2.6134 23.9617 3.6634 23.9617 5.7334V14.6734C23.9617 16.7234 22.9617 17.7734 20.8517 17.7734H19.1517C18.4617 17.7734 18.1317 18.0634 18.1317 18.7934Z" />
        </svg>
    