
        <svg xmlns="http://www.w3.org/2000/svg" viewBox="0 0 100 100">
            <path d="M0.0017 14.5086C0.0017 17.0586 1.6417 18.6986 4.1917 18.6986H5.3317V22.0886C5.3317 22.3986 5.5217 22.5786 5.7617 22.5786C5.9517 22.5786 6.1017 22.4686 6.2717 22.3386L10.0517 19.1086C9.8717 18.6186 9.7617 18.0586 9.7617 17.4186V9.3086C9.7617 6.7886 11.2817 5.2586 13.8117 5.2586H24.6517V4.2186C24.6717 1.6786 23.0317 -0.0014 20.4617 -0.0014H4.1917C1.6417 -0.0014 0.0017 1.6386 0.0017 4.1986ZM13.8117 20.5086H20.7817L24.2917 23.5286C24.4117 23.6386 24.5717 23.7186 24.7117 23.7186C24.9217 23.7186 25.0917 23.5586 25.0917 23.3086V20.5086H26.1017C28.1217 20.5086 29.2517 19.4086 29.2517 17.3786V9.3086C29.2517 7.2786 28.1217 6.1486 26.1017 6.1486H13.8117C11.7617 6.1486 10.6417 7.2786 10.6417 9.3086V17.4186C10.6417 19.4286 11.7617 20.5086 13.8117 20.5086ZM19.9617 14.3986C19.7817 14.3986 19.6517 14.2486 19.6517 14.0286L19.5917 9.2386C19.5917 9.0086 19.7317 8.8586 19.9617 8.8586C20.1817 8.8586 20.3217 9.0086 20.3217 9.2386L20.2617 14.0286C20.2617 14.2486 20.1317 14.3986 19.9617 14.3986ZM19.9617 16.9786C19.6017 16.9786 19.3217 16.6686 19.3217 16.3386C19.3217 15.9986 19.6017 15.6986 19.9617 15.6986C20.3217 15.6986 20.5917 15.9986 20.5917 16.3386C20.5917 16.6686 20.3217 16.9786 19.9617 16.9786Z" />
        </svg>
    