
        <svg xmlns="http://www.w3.org/2000/svg" viewBox="0 0 100 100">
            <path d="M7.4517 6.512C7.6317 6.512 7.7617 6.412 7.7917 6.232C8.1917 3.952 8.1317 4.042 10.4317 3.602C10.6017 3.552 10.7117 3.422 10.7117 3.262C10.7117 3.092 10.6017 2.962 10.4317 2.932C8.1317 2.482 8.1917 2.562 7.7917 0.292C7.7617 0.122 7.6317 0.002 7.4517 0.002C7.2917 0.002 7.1617 0.122 7.1217 0.292C6.7117 2.562 6.7817 2.482 4.4917 2.932C4.3117 2.962 4.1917 3.092 4.1917 3.262C4.1917 3.422 4.3117 3.552 4.4917 3.602C6.7817 4.042 6.7117 3.952 7.1217 6.232C7.1617 6.412 7.2917 6.512 7.4517 6.512ZM23.5917 6.922C23.5917 4.012 21.2217 1.632 18.2917 1.632C15.6517 1.632 13.4717 3.572 13.0917 6.092C13.2617 6.072 13.4617 6.062 13.6517 6.062C16.6017 6.062 19.0117 8.462 19.0117 11.422C19.0117 11.672 18.9917 11.922 18.9617 12.142C21.5617 11.822 23.5917 9.622 23.5917 6.922ZM2.8817 12.742C4.4417 12.742 5.7417 11.452 5.7417 9.872C5.7417 8.292 4.4417 6.992 2.8817 6.992C1.2917 6.992 0.0017 8.292 0.0017 9.872C0.0017 11.452 1.2917 12.742 2.8817 12.742ZM13.6517 15.582C15.9517 15.582 17.8017 13.732 17.8017 11.422C17.8017 9.132 15.9517 7.262 13.6517 7.262C11.3417 7.262 9.4917 9.132 9.4917 11.422C9.4917 13.732 11.3417 15.582 13.6517 15.582ZM19.9817 23.732C20.1817 23.732 20.3417 23.592 20.3817 23.372C20.8017 20.452 20.7817 20.512 23.8317 19.922C24.0517 19.872 24.1917 19.722 24.1917 19.522C24.1917 19.312 24.0517 19.162 23.8217 19.112C20.8017 18.632 20.7917 18.642 20.3817 15.682C20.3517 15.452 20.1917 15.312 19.9817 15.312C19.7617 15.312 19.5917 15.472 19.5717 15.682C19.1617 18.612 19.1617 18.542 16.1117 19.112C15.8917 19.162 15.7617 19.322 15.7617 19.522C15.7617 19.732 15.9017 19.872 16.1417 19.922C19.1617 20.452 19.1617 20.442 19.5717 23.352C19.5917 23.582 19.7617 23.732 19.9817 23.732ZM7.3917 23.202C9.0817 23.202 10.4717 21.812 10.4717 20.102C10.4717 18.412 9.0717 17.002 7.3917 17.002C5.6817 17.002 4.2817 18.412 4.2817 20.102C4.2817 21.812 5.6817 23.202 7.3917 23.202Z" />
        </svg>
    