
        <svg xmlns="http://www.w3.org/2000/svg" viewBox="0 0 100 100">
            <path d="M7.1417 6.6248C7.2617 6.6248 7.3717 6.5348 7.3817 6.4148C7.8017 3.9248 7.7317 4.0548 10.2317 3.5648C10.3617 3.5248 10.4417 3.4348 10.4417 3.3148C10.4417 3.1848 10.3617 3.0948 10.2317 3.0548C7.7317 2.5748 7.8017 2.6948 7.3817 0.2148C7.3717 0.0948 7.2617 0.0048 7.1417 0.0048C7.0117 0.0048 6.9017 0.0948 6.8917 0.2148C6.4717 2.6948 6.5417 2.5748 4.0417 3.0548C3.9117 3.0948 3.8217 3.1848 3.8217 3.3148C3.8217 3.4348 3.9117 3.5248 4.0417 3.5648C6.5417 4.0548 6.4717 3.9248 6.8917 6.4148C6.9017 6.5348 7.0117 6.6248 7.1417 6.6248ZM13.1717 15.4348C15.2017 15.4348 16.8917 13.8948 17.1217 11.9148C17.3217 11.9448 17.5217 11.9548 17.7217 11.9548C20.4617 11.9548 22.6917 9.7548 22.6917 7.0348C22.6917 4.2848 20.4617 2.0748 17.7217 2.0748C14.9917 2.0748 12.7617 4.2848 12.7617 7.0348C12.7617 7.1748 12.7717 7.3248 12.7817 7.4748C10.7617 7.6648 9.1917 9.3648 9.1917 11.4448C9.1917 13.6548 10.9617 15.4348 13.1717 15.4348ZM13.6217 7.0348C13.6217 4.7448 15.4417 2.9148 17.7217 2.9148C20.0017 2.9148 21.8317 4.7448 21.8317 7.0348C21.8317 9.2848 19.9917 11.0948 17.7217 11.0948C17.5217 11.0948 17.3217 11.0848 17.1317 11.0648C16.9417 9.1848 15.4817 7.6948 13.6417 7.4748C13.6217 7.3348 13.6217 7.1848 13.6217 7.0348ZM2.5817 12.4948C3.9717 12.4948 5.1417 11.3248 5.1417 9.9148C5.1417 8.5148 3.9717 7.3448 2.5817 7.3448C1.1617 7.3448 0.0017 8.5048 0.0017 9.9148C0.0017 11.3348 1.1617 12.4948 2.5817 12.4948ZM2.5817 11.6348C1.6217 11.6348 0.8417 10.8548 0.8417 9.9148C0.8417 8.9648 1.6317 8.1948 2.5817 8.1948C3.5317 8.1948 4.3017 8.9648 4.3017 9.9148C4.3017 10.8548 3.5317 11.6348 2.5817 11.6348ZM13.1717 14.5848C11.4217 14.5848 10.0317 13.1948 10.0317 11.4448C10.0317 9.7048 11.4217 8.2948 13.1717 8.2948C14.8917 8.2948 16.3017 9.7048 16.3017 11.4448C16.3017 13.1948 14.8917 14.5848 13.1717 14.5848ZM19.3817 23.4948C19.5217 23.4948 19.6417 23.3948 19.6617 23.2548C20.1517 20.1648 20.0817 20.2948 23.2217 19.6748C23.3817 19.6448 23.4717 19.5448 23.4717 19.3948C23.4717 19.2548 23.3817 19.1448 23.2217 19.1148C20.1017 18.5348 20.1517 18.6448 19.6617 15.5548C19.6417 15.3948 19.5317 15.3048 19.3817 15.3048C19.2317 15.3048 19.1117 15.4148 19.1017 15.5548C18.6117 18.6348 18.6717 18.5048 15.5317 19.1148C15.3717 19.1448 15.2817 19.2548 15.2817 19.3948C15.2817 19.5448 15.3917 19.6448 15.5417 19.6748C18.6717 20.2748 18.6117 20.1648 19.1017 23.2348C19.1117 23.3948 19.2317 23.4948 19.3817 23.4948ZM7.0217 22.7648C8.5417 22.7648 9.8017 21.5148 9.8017 19.9648C9.8017 18.4548 8.5317 17.1748 7.0217 17.1748C5.4717 17.1748 4.2117 18.4448 4.2117 19.9648C4.2117 21.5148 5.4717 22.7648 7.0217 22.7648ZM7.0217 21.9148C5.9217 21.9148 5.0517 21.0448 5.0517 19.9648C5.0517 18.9048 5.9417 18.0248 7.0217 18.0248C8.0617 18.0248 8.9417 18.9048 8.9417 19.9648C8.9417 21.0348 8.0617 21.9148 7.0217 21.9148Z" />
        </svg>
    