
        <svg xmlns="http://www.w3.org/2000/svg" viewBox="0 0 100 100">
            <path d="M12.3723 24.7459C19.2023 24.7459 24.7523 19.2059 24.7523 12.3759C24.7523 5.5459 19.2023 -0.0041 12.3723 -0.0041C5.5423 -0.0041 0.0023 5.5459 0.0023 12.3759C0.0023 19.2059 5.5423 24.7459 12.3723 24.7459ZM12.3723 21.6659C7.2423 21.6659 3.0823 17.5059 3.0823 12.3759C3.0823 7.2259 7.2423 3.0859 12.3723 3.0859C17.5223 3.0859 21.6723 7.2259 21.6723 12.3759C21.6723 17.5059 17.5223 21.6659 12.3723 21.6659ZM7.3923 9.7859H17.3323C17.7223 9.7859 17.9423 9.5059 17.9423 9.2059C17.9423 9.0259 17.8123 8.8159 17.5823 8.6859L13.0923 6.0959C12.8623 5.9559 12.6023 5.8859 12.3723 5.8859C12.1323 5.8859 11.8723 5.9559 11.6523 6.0959L7.1623 8.6859C6.9123 8.8159 6.7923 9.0259 6.7923 9.2059C6.7923 9.5059 7.0223 9.7859 7.3923 9.7859ZM7.2523 15.6959C7.2523 15.9459 7.4023 16.1159 7.6623 16.1159H9.0823C9.3423 16.1159 9.5023 15.9459 9.5023 15.6959V15.6259C9.5023 15.3659 9.3323 15.2059 9.0823 15.2059H8.8823V11.0259H9.0823C9.3323 11.0259 9.5023 10.8759 9.5023 10.6159V10.5359C9.5023 10.2759 9.3423 10.1159 9.0823 10.1159H7.6623C7.4023 10.1159 7.2523 10.2759 7.2523 10.5359V10.6159C7.2523 10.8759 7.4223 11.0259 7.6623 11.0259H7.8623V15.2059H7.6623C7.4223 15.2059 7.2523 15.3659 7.2523 15.6259ZM9.9123 15.6959C9.9123 15.9459 10.0823 16.1159 10.3323 16.1159H11.7423C12.0023 16.1159 12.1623 15.9459 12.1623 15.6959V15.6259C12.1623 15.3659 11.9923 15.2059 11.7423 15.2059H11.5423V11.0259H11.7423C11.9923 11.0259 12.1623 10.8759 12.1623 10.6159V10.5359C12.1623 10.2759 12.0023 10.1159 11.7423 10.1159H10.3323C10.0823 10.1159 9.9123 10.2759 9.9123 10.5359V10.6159C9.9123 10.8759 10.0823 11.0259 10.3323 11.0259H10.5223V15.2059H10.3323C10.0823 15.2059 9.9123 15.3659 9.9123 15.6259ZM12.5723 15.6959C12.5723 15.9459 12.7423 16.1159 12.9923 16.1159H14.4023C14.6623 16.1159 14.8223 15.9459 14.8223 15.6959V15.6259C14.8223 15.3659 14.6623 15.2059 14.4023 15.2059H14.2123V11.0259H14.4023C14.6623 11.0259 14.8223 10.8759 14.8223 10.6159V10.5359C14.8223 10.2759 14.6623 10.1159 14.4023 10.1159H12.9923C12.7423 10.1159 12.5723 10.2759 12.5723 10.5359V10.6159C12.5723 10.8759 12.7423 11.0259 12.9923 11.0259H13.1923V15.2059H12.9923C12.7423 15.2059 12.5723 15.3659 12.5723 15.6259ZM15.2323 15.6959C15.2323 15.9459 15.4023 16.1159 15.6523 16.1159H17.0623C17.3223 16.1159 17.4823 15.9459 17.4823 15.6959V15.6259C17.4823 15.3659 17.3223 15.2059 17.0623 15.2059H16.8723V11.0259H17.0623C17.3223 11.0259 17.4823 10.8759 17.4823 10.6159V10.5359C17.4823 10.2759 17.3223 10.1159 17.0623 10.1159H15.6523C15.4023 10.1159 15.2323 10.2759 15.2323 10.5359V10.6159C15.2323 10.8759 15.4123 11.0259 15.6523 11.0259H15.8423V15.2059H15.6523C15.4123 15.2059 15.2323 15.3659 15.2323 15.6259ZM6.2823 17.0159C6.2823 17.3159 6.5423 17.5759 6.8423 17.5759H17.8123C18.1323 17.5759 18.3823 17.3359 18.3823 17.0159C18.3823 16.7059 18.1323 16.4459 17.8123 16.4459H6.8423C6.5423 16.4459 6.2823 16.7059 6.2823 17.0159Z" />
        </svg>
    