
        <svg xmlns="http://www.w3.org/2000/svg" viewBox="0 0 100 100">
            <path d="M11.7523 23.5048C18.2423 23.5048 23.5123 18.2448 23.5123 11.7548C23.5123 5.2648 18.2423 0.0048 11.7523 0.0048C5.2623 0.0048 0.0023 5.2648 0.0023 11.7548C0.0023 18.2448 5.2623 23.5048 11.7523 23.5048ZM11.7523 21.9848C6.0923 21.9848 1.5223 17.4148 1.5223 11.7548C1.5223 6.0948 6.0923 1.5148 11.7523 1.5148C17.4123 1.5148 21.9923 6.0948 21.9923 11.7548C21.9923 17.4148 17.4123 21.9848 11.7523 21.9848ZM6.2023 9.0248H17.2923C17.5923 9.0248 17.7523 8.8148 17.7523 8.5748C17.7523 8.4248 17.6723 8.2648 17.4823 8.1648L12.4523 5.2648C12.2323 5.1248 11.9723 5.0648 11.7423 5.0648C11.5223 5.0648 11.2523 5.1348 11.0423 5.2648L6.0123 8.1648C5.8223 8.2648 5.7423 8.4248 5.7423 8.5748C5.7423 8.8148 5.9023 9.0248 6.2023 9.0248ZM6.3123 15.8648C6.3123 16.0748 6.4423 16.2048 6.6523 16.2048H8.2023C8.4023 16.2048 8.5423 16.0748 8.5423 15.8648V15.7848C8.5423 15.5848 8.4023 15.4448 8.2023 15.4448H7.8523V10.1648H8.2023C8.4023 10.1648 8.5423 10.0348 8.5423 9.8048V9.7248C8.5423 9.5248 8.4023 9.3848 8.2023 9.3848H6.6523C6.4423 9.3848 6.3123 9.5248 6.3123 9.7248V9.8048C6.3123 10.0348 6.4423 10.1648 6.6523 10.1648H7.0123V15.4448H6.6523C6.4423 15.4448 6.3123 15.5848 6.3123 15.7848ZM9.1923 15.8648C9.1923 16.0748 9.3323 16.2048 9.5423 16.2048H11.0723C11.2823 16.2048 11.4223 16.0748 11.4223 15.8648V15.7848C11.4223 15.5848 11.2823 15.4448 11.0723 15.4448H10.7323V10.1648H11.0723C11.2823 10.1648 11.4223 10.0348 11.4223 9.8048V9.7248C11.4223 9.5248 11.2823 9.3848 11.0723 9.3848H9.5423C9.3323 9.3848 9.1923 9.5248 9.1923 9.7248V9.8048C9.1923 10.0348 9.3323 10.1648 9.5423 10.1648H9.8923V15.4448H9.5423C9.3323 15.4448 9.1923 15.5848 9.1923 15.7848ZM12.0723 15.8648C12.0723 16.0748 12.2123 16.2048 12.4223 16.2048H13.9723C14.1723 16.2048 14.3123 16.0748 14.3123 15.8648V15.7848C14.3123 15.5848 14.1723 15.4448 13.9723 15.4448H13.6123V10.1648H13.9723C14.1723 10.1648 14.3123 10.0348 14.3123 9.8048V9.7248C14.3123 9.5248 14.1723 9.3848 13.9723 9.3848H12.4223C12.2123 9.3848 12.0723 9.5248 12.0723 9.7248V9.8048C12.0723 10.0348 12.2123 10.1648 12.4223 10.1648H12.7723V15.4448H12.4223C12.2123 15.4448 12.0723 15.5848 12.0723 15.7848ZM14.9523 15.8648C14.9523 16.0748 15.0923 16.2048 15.3023 16.2048H16.8423C17.0523 16.2048 17.1923 16.0748 17.1923 15.8648V15.7848C17.1923 15.5848 17.0523 15.4448 16.8423 15.4448H16.5023V10.1648H16.8423C17.0523 10.1648 17.1923 10.0348 17.1923 9.8048V9.7248C17.1923 9.5248 17.0523 9.3848 16.8423 9.3848H15.3023C15.0923 9.3848 14.9523 9.5248 14.9523 9.7248V9.8048C14.9523 10.0348 15.0923 10.1648 15.3023 10.1648H15.6423V15.4448H15.3023C15.0923 15.4448 14.9523 15.5848 14.9523 15.7848ZM5.3423 17.0248C5.3423 17.2748 5.5423 17.4648 5.7823 17.4648H17.7223C17.9523 17.4648 18.1523 17.2748 18.1523 17.0248C18.1523 16.7848 17.9523 16.5848 17.7223 16.5848H5.7823C5.5423 16.5848 5.3423 16.7848 5.3423 17.0248Z" />
        </svg>
    