
        <svg xmlns="http://www.w3.org/2000/svg" viewBox="0 0 100 100">
            <path d="M2.2217 8.3716H24.7017C25.4217 8.3716 25.8417 7.8516 25.8417 7.3116C25.8417 6.9216 25.6217 6.5716 25.1517 6.2916L14.9717 0.4216C14.4917 0.1516 13.9717 0.0016 13.4617 0.0016C12.9617 0.0016 12.4217 0.1516 11.9517 0.4216L1.7817 6.2916C1.3017 6.5716 1.0917 6.9216 1.0917 7.3116C1.0917 7.8516 1.5117 8.3716 2.2217 8.3716ZM2.8617 22.7616H6.0517C6.5417 22.7616 6.8217 22.4816 6.8217 21.9816V21.8216C6.8217 21.3416 6.5317 21.0616 6.0517 21.0616H5.4217V10.9716H6.0517C6.5317 10.9716 6.8217 10.7016 6.8217 10.2116V10.0416C6.8217 9.5516 6.5417 9.2716 6.0517 9.2716H2.8617C2.3817 9.2716 2.1017 9.5516 2.1017 10.0416V10.2116C2.1017 10.7016 2.3817 10.9716 2.8617 10.9716H3.4817V21.0616H2.8617C2.3817 21.0616 2.1017 21.3416 2.1017 21.8216V21.9816C2.1017 22.4816 2.3817 22.7616 2.8617 22.7616ZM8.8717 22.7616H12.0617C12.5417 22.7616 12.8317 22.4816 12.8317 21.9816V21.8216C12.8317 21.3416 12.5417 21.0616 12.0617 21.0616H11.4417V10.9716H12.0617C12.5417 10.9716 12.8317 10.7016 12.8317 10.2116V10.0416C12.8317 9.5516 12.5417 9.2716 12.0617 9.2716H8.8717C8.3817 9.2716 8.1017 9.5516 8.1017 10.0416V10.2116C8.1017 10.7016 8.3917 10.9716 8.8717 10.9716H9.4817V21.0616H8.8717C8.3917 21.0616 8.1017 21.3416 8.1017 21.8216V21.9816C8.1017 22.4816 8.3817 22.7616 8.8717 22.7616ZM14.8817 22.7616H18.0617C18.5517 22.7616 18.8317 22.4816 18.8317 21.9816V21.8216C18.8317 21.3416 18.5517 21.0616 18.0617 21.0616H17.4517V10.9716H18.0617C18.5517 10.9716 18.8317 10.7016 18.8317 10.2116V10.0416C18.8317 9.5516 18.5517 9.2716 18.0617 9.2716H14.8817C14.3917 9.2716 14.1117 9.5516 14.1117 10.0416V10.2116C14.1117 10.7016 14.3917 10.9716 14.8817 10.9716H15.5017V21.0616H14.8817C14.3917 21.0616 14.1117 21.3416 14.1117 21.8216V21.9816C14.1117 22.4816 14.3917 22.7616 14.8817 22.7616ZM20.8817 22.7616H24.0717C24.5517 22.7616 24.8417 22.4816 24.8417 21.9816V21.8216C24.8417 21.3416 24.5517 21.0616 24.0717 21.0616H23.4617V10.9716H24.0717C24.5517 10.9716 24.8417 10.7016 24.8417 10.2116V10.0416C24.8417 9.5516 24.5517 9.2716 24.0717 9.2716H20.8817C20.4017 9.2716 20.1117 9.5516 20.1117 10.0416V10.2116C20.1117 10.7016 20.4017 10.9716 20.8817 10.9716H21.5117V21.0616H20.8817C20.4017 21.0616 20.1117 21.3416 20.1117 21.8216V21.9816C20.1117 22.4816 20.4017 22.7616 20.8817 22.7616ZM1.0617 25.7816H25.8017C26.3817 25.7816 26.8717 25.3016 26.8717 24.7116C26.8717 24.1416 26.3817 23.6616 25.8017 23.6616H1.0617C0.4817 23.6616 0.0017 24.1416 0.0017 24.7116C0.0017 25.3016 0.4817 25.7816 1.0617 25.7816Z" />
        </svg>
    