
        <svg xmlns="http://www.w3.org/2000/svg" viewBox="0 0 100 100">
            <path d="M11.7523 23.5031C18.2323 23.5031 23.5123 18.2331 23.5123 11.7531C23.5123 5.2731 18.2323 0.0031 11.7523 0.0031C5.2723 0.0031 0.0023 5.2731 0.0023 11.7531C0.0023 18.2331 5.2723 23.5031 11.7523 23.5031ZM11.7523 21.9931C8.8123 21.9931 6.1723 20.7631 4.3123 18.7831V7.8731C4.3123 6.9931 4.7923 6.4831 5.6323 6.4831H13.4223C14.2723 6.4831 14.7323 6.9931 14.7323 7.8731V21.5531C13.7923 21.8431 12.7923 21.9931 11.7523 21.9931ZM7.1023 10.3631H8.4223C8.5623 10.3631 8.6623 10.2531 8.6623 10.1131V8.8231C8.6623 8.6831 8.5623 8.5731 8.4223 8.5731H7.1023C6.9723 8.5731 6.8623 8.6831 6.8623 8.8231V10.1131C6.8623 10.2531 6.9723 10.3631 7.1023 10.3631ZM10.5723 10.3631H11.8923C12.0223 10.3631 12.1323 10.2531 12.1323 10.1131V8.8231C12.1323 8.6831 12.0223 8.5731 11.8923 8.5731H10.5723C10.4323 8.5731 10.3323 8.6831 10.3323 8.8231V10.1131C10.3323 10.2531 10.4323 10.3631 10.5723 10.3631ZM15.5423 21.2731V9.5131H18.8923C19.7323 9.5131 20.2023 10.0231 20.2023 10.9031V17.4831C19.0823 19.1731 17.4623 20.5031 15.5423 21.2731ZM17.2823 13.0531H18.4423C18.5523 13.0531 18.6323 12.9631 18.6323 12.8431V11.7231C18.6323 11.6131 18.5523 11.5231 18.4423 11.5231H17.2823C17.1723 11.5231 17.0823 11.6131 17.0823 11.7231V12.8431C17.0823 12.9631 17.1723 13.0531 17.2823 13.0531ZM7.1023 13.4131H8.4223C8.5623 13.4131 8.6623 13.3131 8.6623 13.1731V11.8831C8.6623 11.7431 8.5623 11.6331 8.4223 11.6331H7.1023C6.9723 11.6331 6.8623 11.7431 6.8623 11.8831V13.1731C6.8623 13.3131 6.9723 13.4131 7.1023 13.4131ZM10.5723 13.4131H11.8923C12.0223 13.4131 12.1323 13.3131 12.1323 13.1731V11.8831C12.1323 11.7431 12.0223 11.6331 11.8923 11.6331H10.5723C10.4323 11.6331 10.3323 11.7431 10.3323 11.8831V13.1731C10.3323 13.3131 10.4323 13.4131 10.5723 13.4131ZM17.2823 15.8331H18.4423C18.5523 15.8331 18.6323 15.7431 18.6323 15.6231V14.4931C18.6323 14.3931 18.5523 14.3131 18.4423 14.3131H17.2823C17.1723 14.3131 17.0823 14.3931 17.0823 14.4931V15.6231C17.0823 15.7431 17.1723 15.8331 17.2823 15.8331ZM7.1023 16.5031H8.4223C8.5623 16.5031 8.6623 16.3931 8.6623 16.2531V14.9631C8.6623 14.8231 8.5623 14.7231 8.4223 14.7231H7.1023C6.9723 14.7231 6.8623 14.8231 6.8623 14.9631V16.2531C6.8623 16.3931 6.9723 16.5031 7.1023 16.5031ZM10.5723 16.5031H11.8923C12.0223 16.5031 12.1323 16.3931 12.1323 16.2531V14.9631C12.1323 14.8231 12.0223 14.7231 11.8923 14.7231H10.5723C10.4323 14.7231 10.3323 14.8231 10.3323 14.9631V16.2531C10.3323 16.3931 10.4323 16.5031 10.5723 16.5031ZM17.2823 18.6131H18.4423C18.5523 18.6131 18.6323 18.5131 18.6323 18.4131V17.2831C18.6323 17.1831 18.5523 17.0731 18.4423 17.0731H17.2823C17.1723 17.0731 17.0823 17.1831 17.0823 17.2831V18.4131C17.0823 18.5131 17.1723 18.6131 17.2823 18.6131ZM7.1023 19.5831H8.4223C8.5623 19.5831 8.6623 19.4731 8.6623 19.3231V18.0431C8.6623 17.9031 8.5623 17.8031 8.4223 17.8031H7.1023C6.9723 17.8031 6.8623 17.9031 6.8623 18.0431V19.3231C6.8623 19.4731 6.9723 19.5831 7.1023 19.5831ZM10.5723 19.5831H11.8923C12.0223 19.5831 12.1323 19.4731 12.1323 19.3231V18.0431C12.1323 17.9031 12.0223 17.8031 11.8923 17.8031H10.5723C10.4323 17.8031 10.3323 17.9031 10.3323 18.0431V19.3231C10.3323 19.4731 10.4323 19.5831 10.5723 19.5831Z" />
        </svg>
    