
        <svg xmlns="http://www.w3.org/2000/svg" viewBox="0 0 100 100">
            <path d="M1.8417 27.4219H20.9617C22.1017 27.4219 22.8017 26.6219 22.8017 25.4019V7.6519C22.8017 6.4119 22.1017 5.6219 20.9617 5.6219H16.8617V2.0119C16.8617 0.7819 16.1617 0.0019 15.0217 0.0019H1.8417C0.7017 0.0019 0.0017 0.7819 0.0017 2.0119V25.4019C0.0017 26.6219 0.7017 27.4219 1.8417 27.4219ZM2.4217 25.6319C2.0017 25.6319 1.7817 25.4319 1.7817 24.9919V2.4219C1.7817 1.9919 2.0017 1.7819 2.4217 1.7819H14.4417C14.8717 1.7819 15.0817 1.9919 15.0817 2.4219V24.9919C15.0817 25.4319 14.8717 25.6319 14.4417 25.6319H11.8817V22.3319C11.8817 21.3819 11.4717 20.9319 10.5517 20.9319H6.3317C5.4017 20.9319 4.9917 21.3819 4.9917 22.3319V25.6319ZM4.7817 8.2419H7.0517C7.3517 8.2419 7.5317 8.0519 7.5317 7.7619V5.5419C7.5317 5.2619 7.3517 5.0619 7.0517 5.0619H4.7817C4.4917 5.0619 4.3117 5.2619 4.3117 5.5419V7.7619C4.3117 8.0519 4.4917 8.2419 4.7817 8.2419ZM9.8017 8.2419H12.0717C12.3617 8.2419 12.5517 8.0519 12.5517 7.7619V5.5419C12.5517 5.2619 12.3617 5.0619 12.0717 5.0619H9.8017C9.5117 5.0619 9.3317 5.2619 9.3317 5.5419V7.7619C9.3317 8.0519 9.5117 8.2419 9.8017 8.2419ZM16.8617 25.4019V21.5319H18.5717C18.8117 21.5319 18.9617 21.3819 18.9617 21.1619V19.4219C18.9617 19.1819 18.8117 19.0419 18.5717 19.0419H16.8617V17.2819H18.5717C18.8117 17.2819 18.9617 17.1319 18.9617 16.9119V15.1619C18.9617 14.9419 18.8117 14.7919 18.5717 14.7919H16.8617V13.0319H18.5717C18.8117 13.0319 18.9617 12.8819 18.9617 12.6519V10.9119C18.9617 10.6919 18.8117 10.5319 18.5717 10.5319H16.8617V7.4019H20.3817C20.8117 7.4019 21.0217 7.6219 21.0217 8.0519V24.9919C21.0217 25.4319 20.8117 25.6319 20.3817 25.6319H16.8617C16.8617 25.5619 16.8617 25.4719 16.8617 25.4019ZM4.7817 12.8819H7.0517C7.3517 12.8819 7.5317 12.6919 7.5317 12.4019V10.1819C7.5317 9.9019 7.3517 9.7019 7.0517 9.7019H4.7817C4.4917 9.7019 4.3117 9.9019 4.3117 10.1819V12.4019C4.3117 12.6919 4.4917 12.8819 4.7817 12.8819ZM9.8017 12.8819H12.0717C12.3617 12.8819 12.5517 12.6919 12.5517 12.4019V10.1819C12.5517 9.9019 12.3617 9.7019 12.0717 9.7019H9.8017C9.5117 9.7019 9.3317 9.9019 9.3317 10.1819V12.4019C9.3317 12.6919 9.5117 12.8819 9.8017 12.8819ZM4.7817 17.5219H7.0517C7.3517 17.5219 7.5317 17.3219 7.5317 17.0419V14.8219C7.5317 14.5319 7.3517 14.3419 7.0517 14.3419H4.7817C4.4917 14.3419 4.3117 14.5319 4.3117 14.8219V17.0419C4.3117 17.3219 4.4917 17.5219 4.7817 17.5219ZM9.8017 17.5219H12.0717C12.3617 17.5219 12.5517 17.3219 12.5517 17.0419V14.8219C12.5517 14.5319 12.3617 14.3419 12.0717 14.3419H9.8017C9.5117 14.3419 9.3317 14.5319 9.3317 14.8219V17.0419C9.3317 17.3219 9.5117 17.5219 9.8017 17.5219ZM6.4417 22.7419C6.4417 22.5119 6.5517 22.3919 6.8117 22.3919H10.0617C10.3117 22.3919 10.4317 22.5119 10.4317 22.7419V25.6319H6.4417Z" />
        </svg>
    