
        <svg xmlns="http://www.w3.org/2000/svg" viewBox="0 0 100 100">
            <path d="M1.5117 25.8467H13.4417C14.4517 25.8467 14.9517 25.3267 14.9517 24.3067V1.5467C14.9517 0.5167 14.4517 -0.0033 13.4417 -0.0033H1.5117C0.5017 -0.0033 0.0017 0.5167 0.0017 1.5467V24.3067C0.0017 25.3267 0.5017 25.8467 1.5117 25.8467ZM3.2417 6.9567V4.3367C3.2417 4.1267 3.3717 3.9767 3.6017 3.9767H6.2417C6.4717 3.9767 6.6117 4.1267 6.6117 4.3367V6.9567C6.6117 7.1767 6.4717 7.3267 6.2417 7.3267H3.6017C3.3717 7.3267 3.2417 7.1767 3.2417 6.9567ZM8.3717 6.9567V4.3367C8.3717 4.1267 8.5117 3.9767 8.7217 3.9767H11.3817C11.6017 3.9767 11.7317 4.1267 11.7317 4.3367V6.9567C11.7317 7.1767 11.6017 7.3267 11.3817 7.3267H8.7217C8.5117 7.3267 8.3717 7.1767 8.3717 6.9567ZM3.2417 12.1267V9.5067C3.2417 9.2967 3.3717 9.1367 3.6017 9.1367H6.2417C6.4717 9.1367 6.6117 9.2967 6.6117 9.5067V12.1267C6.6117 12.3467 6.4717 12.4967 6.2417 12.4967H3.6017C3.3717 12.4967 3.2417 12.3467 3.2417 12.1267ZM8.3717 12.1267V9.5067C8.3717 9.2967 8.5117 9.1367 8.7217 9.1367H11.3817C11.6017 9.1367 11.7317 9.2967 11.7317 9.5067V12.1267C11.7317 12.3467 11.6017 12.4967 11.3817 12.4967H8.7217C8.5117 12.4967 8.3717 12.3467 8.3717 12.1267ZM3.2417 17.2967V14.6867C3.2417 14.4567 3.3717 14.3067 3.6017 14.3067H6.2417C6.4717 14.3067 6.6117 14.4567 6.6117 14.6867V17.2967C6.6117 17.5167 6.4717 17.6767 6.2417 17.6767H3.6017C3.3717 17.6767 3.2417 17.5167 3.2417 17.2967ZM8.3717 17.2967V14.6867C8.3717 14.4567 8.5117 14.3067 8.7217 14.3067H11.3817C11.6017 14.3067 11.7317 14.4567 11.7317 14.6867V17.2967C11.7317 17.5167 11.6017 17.6767 11.3817 17.6767H8.7217C8.5117 17.6767 8.3717 17.5167 8.3717 17.2967ZM4.8517 25.0167V21.9067C4.8517 21.1567 5.1917 20.7967 5.9517 20.7967H9.0117C9.7717 20.7967 10.1117 21.1567 10.1117 21.9067V25.0167Z" />
        </svg>
    