
        <svg xmlns="http://www.w3.org/2000/svg" viewBox="0 0 100 100">
            <path d="M12.6023 25.1986C19.5623 25.1986 25.2023 19.5586 25.2023 12.5986C25.2023 5.6386 19.5623 -0.0014 12.6023 -0.0014C5.6323 -0.0014 0.0023 5.6386 0.0023 12.5986C0.0023 19.5586 5.6323 25.1986 12.6023 25.1986ZM12.6023 21.5386C7.6523 21.5386 3.6523 17.5386 3.6523 12.5986C3.6523 7.6486 7.6523 3.6586 12.6023 3.6586C17.5423 3.6586 21.5423 7.6486 21.5423 12.5986C21.5423 17.5386 17.5423 21.5386 12.6023 21.5386ZM7.8023 9.9886H17.3823C17.7823 9.9886 18.0123 9.6886 18.0123 9.3886C18.0123 9.1786 17.8823 8.9786 17.6323 8.8386L13.3123 6.3386C13.0923 6.1986 12.8223 6.1286 12.6023 6.1286C12.3623 6.1286 12.0923 6.1986 11.8823 6.3386L7.5423 8.8386C7.3023 8.9786 7.1723 9.1786 7.1723 9.3886C7.1723 9.6886 7.4223 9.9886 7.8023 9.9886ZM7.6123 15.6486C7.6123 15.9186 7.7723 16.0686 8.0523 16.0686H9.4123C9.6823 16.0686 9.8423 15.9186 9.8423 15.6486V15.5786C9.8423 15.3086 9.6723 15.1486 9.4123 15.1486H9.2623V11.2386H9.4123C9.6723 11.2386 9.8423 11.0986 9.8423 10.8286V10.7486C9.8423 10.4886 9.6823 10.3086 9.4123 10.3086H8.0523C7.7723 10.3086 7.6123 10.4886 7.6123 10.7486V10.8286C7.6123 11.0986 7.7823 11.2386 8.0523 11.2386H8.2023V15.1486H8.0523C7.7823 15.1486 7.6123 15.3086 7.6123 15.5786ZM10.1923 15.6486C10.1923 15.9186 10.3623 16.0686 10.6123 16.0686H11.9923C12.2623 16.0686 12.4123 15.9186 12.4123 15.6486V15.5786C12.4123 15.3086 12.2423 15.1486 11.9923 15.1486H11.8223V11.2386H11.9923C12.2423 11.2386 12.4123 11.0986 12.4123 10.8286V10.7486C12.4123 10.4886 12.2623 10.3086 11.9923 10.3086H10.6123C10.3623 10.3086 10.1923 10.4886 10.1923 10.7486V10.8286C10.1923 11.0986 10.3623 11.2386 10.6123 11.2386H10.7823V15.1486H10.6123C10.3623 15.1486 10.1923 15.3086 10.1923 15.5786ZM12.7723 15.6486C12.7723 15.9186 12.9223 16.0686 13.1923 16.0686H14.5623C14.8223 16.0686 14.9923 15.9186 14.9923 15.6486V15.5786C14.9923 15.3086 14.8223 15.1486 14.5623 15.1486H14.4023V11.2386H14.5623C14.8223 11.2386 14.9923 11.0986 14.9923 10.8286V10.7486C14.9923 10.4886 14.8223 10.3086 14.5623 10.3086H13.1923C12.9223 10.3086 12.7723 10.4886 12.7723 10.7486V10.8286C12.7723 11.0986 12.9223 11.2386 13.1923 11.2386H13.3623V15.1486H13.1923C12.9223 15.1486 12.7723 15.3086 12.7723 15.5786ZM15.3423 15.6486C15.3423 15.9186 15.5023 16.0686 15.7723 16.0686H17.1323C17.4023 16.0686 17.5623 15.9186 17.5623 15.6486V15.5786C17.5623 15.3086 17.4023 15.1486 17.1323 15.1486H16.9823V11.2386H17.1323C17.4023 11.2386 17.5623 11.0986 17.5623 10.8286V10.7486C17.5623 10.4886 17.4023 10.3086 17.1323 10.3086H15.7723C15.5023 10.3086 15.3423 10.4886 15.3423 10.7486V10.8286C15.3423 11.0986 15.5123 11.2386 15.7723 11.2386H15.9423V15.1486H15.7723C15.5123 15.1486 15.3423 15.3086 15.3423 15.5786ZM6.6423 17.0086C6.6423 17.3286 6.9123 17.5986 7.2323 17.5986H17.8523C18.1723 17.5986 18.4423 17.3486 18.4423 17.0086C18.4423 16.6886 18.1723 16.4086 17.8523 16.4086H7.2323C6.9123 16.4086 6.6423 16.6886 6.6423 17.0086Z" />
        </svg>
    