
        <svg xmlns="http://www.w3.org/2000/svg" viewBox="0 0 100 100">
            <path d="M1.0317 7.0172H23.2417C23.5417 7.0172 23.6917 6.8172 23.6917 6.5872C23.6917 6.4472 23.6117 6.2772 23.4217 6.1672L13.3217 0.3372C12.9417 0.1172 12.5317 -0.0028 12.1317 -0.0028C11.7217 -0.0028 11.3117 0.1272 10.9417 0.3372L0.8417 6.1672C0.6417 6.2772 0.5617 6.4472 0.5617 6.5872C0.5617 6.8172 0.7117 7.0172 1.0317 7.0172ZM11.4417 1.1472C11.6517 1.0172 11.8917 0.9472 12.1317 0.9472C12.3717 0.9472 12.6117 1.0172 12.8317 1.1472L21.6717 6.1772H2.6017ZM2.2017 22.0472H5.2417C5.4417 22.0472 5.5517 21.9172 5.5517 21.7172V21.5472C5.5517 21.3672 5.4417 21.2472 5.2417 21.2472H4.1517V8.7172H5.2417C5.4417 8.7172 5.5517 8.5872 5.5517 8.3872V8.2272C5.5517 8.0372 5.4417 7.9172 5.2417 7.9172H2.2017C2.0017 7.9172 1.8917 8.0372 1.8917 8.2272V8.3872C1.8917 8.5872 2.0017 8.7172 2.2017 8.7172H3.3017V21.2472H2.2017C2.0017 21.2472 1.8917 21.3672 1.8917 21.5472V21.7172C1.8917 21.9172 2.0017 22.0472 2.2017 22.0472ZM7.8117 22.0472H10.8517C11.0517 22.0472 11.1717 21.9172 11.1717 21.7172V21.5472C11.1717 21.3672 11.0517 21.2472 10.8517 21.2472H9.7617V8.7172H10.8517C11.0517 8.7172 11.1717 8.5872 11.1717 8.3872V8.2272C11.1717 8.0372 11.0517 7.9172 10.8517 7.9172H7.8117C7.6217 7.9172 7.4917 8.0372 7.4917 8.2272V8.3872C7.4917 8.5872 7.6217 8.7172 7.8117 8.7172H8.9217V21.2472H7.8117C7.6217 21.2472 7.4917 21.3672 7.4917 21.5472V21.7172C7.4917 21.9172 7.6217 22.0472 7.8117 22.0472ZM13.4317 22.0472H16.4517C16.6517 22.0472 16.7817 21.9172 16.7817 21.7172V21.5472C16.7817 21.3672 16.6517 21.2472 16.4517 21.2472H15.3717V8.7172H16.4517C16.6517 8.7172 16.7817 8.5872 16.7817 8.3872V8.2272C16.7817 8.0372 16.6517 7.9172 16.4517 7.9172H13.4317C13.2317 7.9172 13.1017 8.0372 13.1017 8.2272V8.3872C13.1017 8.5872 13.2317 8.7172 13.4317 8.7172H14.5317V21.2472H13.4317C13.2317 21.2472 13.1017 21.3672 13.1017 21.5472V21.7172C13.1017 21.9172 13.2317 22.0472 13.4317 22.0472ZM19.0417 22.0472H22.0617C22.2617 22.0472 22.3917 21.9172 22.3917 21.7172V21.5472C22.3917 21.3672 22.2617 21.2472 22.0617 21.2472H20.9917V8.7172H22.0617C22.2617 8.7172 22.3917 8.5872 22.3917 8.3872V8.2272C22.3917 8.0372 22.2617 7.9172 22.0617 7.9172H19.0417C18.8417 7.9172 18.7117 8.0372 18.7117 8.2272V8.3872C18.7117 8.5872 18.8417 8.7172 19.0417 8.7172H20.1417V21.2472H19.0417C18.8417 21.2472 18.7117 21.3672 18.7117 21.5472V21.7172C18.7117 21.9172 18.8417 22.0472 19.0417 22.0472ZM0.4317 23.8172H23.8217C24.0717 23.8172 24.2617 23.6172 24.2617 23.3672C24.2617 23.1372 24.0717 22.9372 23.8217 22.9372H0.4317C0.2017 22.9372 0.0017 23.1372 0.0017 23.3672C0.0017 23.6172 0.2017 23.8172 0.4317 23.8172Z" />
        </svg>
    