
        <svg xmlns="http://www.w3.org/2000/svg" viewBox="0 0 100 100">
            <path d="M0.0023 11.7548C0.0023 18.1848 5.3223 23.5048 11.7523 23.5048C18.1923 23.5048 23.5123 18.1848 23.5123 11.7548C23.5123 5.3048 18.1923 0.0048 11.7423 0.0048C5.3123 0.0048 0.0023 5.3048 0.0023 11.7548ZM1.5223 11.7648H11.7423L6.6223 2.8848C8.1223 2.0048 9.8823 1.5148 11.7423 1.5148C13.6123 1.5148 15.3623 2.0048 16.8623 2.8848L11.7423 11.7648H21.9923C21.9923 15.5648 19.9323 18.8648 16.8623 20.6248L11.7423 11.7648L6.6323 20.6248C3.5723 18.8548 1.5323 15.5548 1.5223 11.7648Z" />
        </svg>
    