
        <svg xmlns="http://www.w3.org/2000/svg" viewBox="0 0 100 100">
            <path d="M29.5794 15.4675C30.3094 15.1475 30.6694 14.5975 30.6694 14.0775C30.6694 13.5375 30.3094 13.0075 29.5794 12.7475L24.1394 10.8375L26.3794 5.8275C26.4994 5.5875 26.5394 5.3175 26.5394 5.0875C26.5394 4.3575 25.9894 3.7875 25.2194 3.7875C24.9694 3.7875 24.6894 3.8275 24.4294 3.9775L19.2894 6.6175L16.7594 1.0475C16.4394 0.3075 15.8594 -0.0025 15.3394 -0.0025C14.8094 -0.0025 14.2294 0.3075 13.9094 1.0475L11.3794 6.6175L6.2494 3.9775C5.9794 3.8275 5.6994 3.7875 5.4494 3.7875C4.6794 3.7875 4.1294 4.3575 4.1294 5.0875C4.1294 5.3175 4.1694 5.5875 4.2894 5.8275L6.5294 10.8375L1.0994 12.7475C0.3594 13.0075 -0.0006 13.5475 -0.0006 14.0775C-0.0006 14.5975 0.3594 15.1475 1.0994 15.4675L6.3594 17.8375L3.7694 23.7075C3.6594 23.9775 3.5994 24.2375 3.5994 24.4875C3.5994 25.1575 4.0794 25.6975 4.7794 25.6975C5.0394 25.6975 5.3294 25.6175 5.5994 25.4675L11.9894 21.7075L13.9894 27.3875C14.2594 28.1275 14.8194 28.4375 15.3394 28.4375C15.8394 28.4375 16.4094 28.1275 16.6794 27.3875L18.6794 21.7075L25.0694 25.4675C25.3494 25.6175 25.6294 25.6875 25.8894 25.6875C26.5794 25.6875 27.0794 25.1675 27.0794 24.4875C27.0794 24.2475 27.0094 23.9775 26.8994 23.7075L24.3094 17.8375Z" />
        </svg>
    