
        <svg xmlns="http://www.w3.org/2000/svg" viewBox="0 0 100 100">
            <path d="M6.6217 18.2309C5.8217 18.0709 5.4517 17.5709 5.4517 16.6409V5.1709C5.4517 4.1909 5.8517 3.6809 6.6717 3.5309C10.2517 2.8909 19.2917 2.9409 23.0817 3.5409C23.9217 3.6709 24.3017 4.1809 24.3017 5.1709V16.6409C24.3017 17.5909 23.9317 18.0909 23.1317 18.2209C19.2217 18.8509 10.2917 18.9509 6.6217 18.2309ZM4.5017 30.4609H6.0117C7.4317 30.4609 8.1717 29.7209 8.1717 28.3109V26.7409C10.1717 26.9109 12.3917 26.9609 14.8717 26.9609C17.3717 26.9609 19.5717 26.9109 21.5717 26.7509V28.3109C21.5717 29.7209 22.3117 30.4609 23.7417 30.4609H25.2417C26.6717 30.4609 27.4117 29.7209 27.4117 28.3109V14.1409H27.9617C28.9817 14.1409 29.7517 13.4509 29.7517 12.4709V6.8109C29.7517 5.8209 28.9817 5.1209 27.9617 5.1209H27.4117V4.2209C27.4117 2.1909 26.3217 0.8509 24.2217 0.5309C21.8917 0.1609 18.6017 0.0009 14.8717 0.0009C11.1217 0.0009 7.8617 0.1409 5.5317 0.5309C3.4317 0.8809 2.3417 2.2009 2.3417 4.2209V5.1209H1.7817C0.7717 5.1209 0.0017 5.8209 0.0017 6.8109V12.4709C0.0017 13.4509 0.7717 14.1409 1.7817 14.1409H2.3417V28.3109C2.3417 29.7209 3.0817 30.4609 4.5017 30.4609ZM7.4517 23.8509C6.5517 23.8509 5.8617 23.1409 5.8617 22.2409C5.8617 21.3409 6.5517 20.6409 7.4517 20.6409C8.3517 20.6409 9.0617 21.3409 9.0617 22.2409C9.0617 23.1409 8.3517 23.8509 7.4517 23.8509ZM22.2917 23.8509C21.3917 23.8509 20.6917 23.1409 20.6917 22.2409C20.6917 21.3409 21.3917 20.6409 22.2917 20.6409C23.1917 20.6409 23.8917 21.3409 23.8917 22.2409C23.8917 23.1409 23.1917 23.8509 22.2917 23.8509ZM12.3517 23.4709C11.6217 23.4709 11.1017 22.9409 11.1017 22.2309C11.1017 21.4909 11.6217 20.9909 12.3517 20.9909H17.3917C18.1217 20.9909 18.6417 21.4909 18.6417 22.2309C18.6417 22.9409 18.1217 23.4709 17.3917 23.4709Z" />
        </svg>
    