
        <svg xmlns="http://www.w3.org/2000/svg" viewBox="0 0 100 100">
            <path d="M3.6317 28.0311H4.9817C5.8317 28.0311 6.4917 27.3711 6.4917 26.5311V24.6811C8.3317 24.8111 10.3117 24.8811 12.0717 24.8811C13.8417 24.8811 15.8317 24.8111 17.6717 24.6811V26.5311C17.6717 27.3711 18.3317 28.0311 19.1817 28.0311H20.5317C21.3917 28.0311 22.0417 27.3611 22.0417 26.5311V23.6911C22.4417 23.3111 22.6417 22.7411 22.6417 22.0311V13.4811H23.1817C23.7917 13.4811 24.1617 13.1111 24.1617 12.5611V8.4111C24.1617 7.8611 23.7917 7.5111 23.1817 7.5111H22.6417V2.8511C22.6417 1.3911 21.7817 0.6111 20.3117 0.4411C17.8817 0.1611 14.7317 0.0011 12.0717 0.0011C9.4117 0.0011 6.2717 0.1611 3.8517 0.4411C2.3817 0.6111 1.5217 1.3911 1.5217 2.8511V7.5111H0.9817C0.3717 7.5111 0.0017 7.8611 0.0017 8.4111V12.5611C0.0017 13.1111 0.3717 13.4811 0.9817 13.4811H1.5217V22.0311C1.5217 22.7411 1.7217 23.3111 2.1217 23.6911V26.5311C2.1217 27.3611 2.7817 28.0311 3.6317 28.0311ZM12.0717 23.6611C9.3317 23.6611 6.2917 23.5111 4.1517 23.2511C3.1217 23.1211 2.7317 22.6311 2.7317 21.7311V3.1511C2.7317 2.2511 3.1217 1.7611 4.1517 1.6411C6.2917 1.3711 9.3317 1.2211 12.0717 1.2311C14.7417 1.2311 17.7617 1.3711 20.0117 1.6411C21.0317 1.7611 21.4217 2.2511 21.4217 3.1511V21.7311C21.4217 22.6311 21.0317 23.1211 20.0117 23.2511C17.7617 23.5111 14.7417 23.6611 12.0717 23.6611ZM3.9517 9.4011H20.2117V4.2211C20.2117 3.4111 19.8317 2.9611 18.9817 2.8711C14.4917 2.4011 9.7117 2.4011 5.1817 2.8711C4.3517 2.9611 3.9517 3.4111 3.9517 4.2211ZM3.9517 10.7611V15.8811C3.9517 16.6011 4.3017 17.0111 4.9917 17.1211C8.9417 17.6711 15.0917 17.7111 19.1717 17.1211C19.8017 17.0111 20.2117 16.6011 20.2117 15.8811V10.7611ZM5.7617 21.6411C6.4817 21.6411 7.0117 21.1011 7.0117 20.4011C7.0117 19.7011 6.4817 19.1611 5.7617 19.1611C5.0617 19.1611 4.5217 19.7011 4.5217 20.4011C4.5217 21.1011 5.0617 21.6411 5.7617 21.6411ZM18.3917 21.6411C19.1017 21.6411 19.6417 21.1011 19.6417 20.4011C19.6417 19.7011 19.1017 19.1611 18.3917 19.1611C17.6817 19.1611 17.1517 19.7011 17.1517 20.4011C17.1517 21.1011 17.6817 21.6411 18.3917 21.6411ZM9.7017 21.3211H14.4117C14.9417 21.3211 15.3317 20.9311 15.3317 20.3911C15.3317 19.8611 14.9517 19.4911 14.4117 19.4911H9.7017C9.1617 19.4911 8.7917 19.8611 8.7917 20.3911C8.7917 20.9311 9.1617 21.3211 9.7017 21.3211Z" />
        </svg>
    