
        <svg xmlns="http://www.w3.org/2000/svg" viewBox="0 0 100 100">
            <path d="M0.0017 7.7306V22.1406C0.0017 26.8806 3.0617 29.8606 7.9317 29.8606H12.4817C16.7917 29.8606 19.5717 26.8206 19.5717 22.1406V20.6006L15.9617 17.4006V22.1406C15.9617 24.6006 14.5817 26.2506 12.4817 26.2506C10.3717 26.2506 8.9917 24.6006 8.9917 22.1406V7.7306C8.9917 5.2706 10.3717 3.6206 12.4817 3.6206C14.5817 3.6206 15.9617 5.2706 15.9617 7.7306V12.4606L19.5717 9.2806V7.7306C19.5717 3.0506 16.7917 0.0106 12.4817 0.0006H7.9317C3.0617 0.0006 0.0017 2.9906 0.0017 7.7306ZM5.3817 7.7306V22.1406C5.3817 23.5806 5.6417 24.8706 6.1317 25.9606C4.5617 25.3806 3.6217 24.0206 3.6217 22.1406V7.7306C3.6217 5.8506 4.5617 4.4906 6.1317 3.9106C5.6417 5.0006 5.3817 6.2906 5.3817 7.7306ZM16.9317 15.8006L21.1217 19.4606C22.0117 20.2606 23.2117 19.7806 23.2117 18.5406V16.5106H28.9617C29.9217 16.5106 30.5417 15.8106 30.5417 14.9306C30.5417 14.0406 29.9217 13.3406 28.9617 13.3406H23.2117V11.2706C23.2117 10.1106 21.9917 9.6106 21.1217 10.3706L16.9317 14.0406C16.3717 14.5406 16.3717 15.2906 16.9317 15.8006Z" />
        </svg>
    