
        <svg xmlns="http://www.w3.org/2000/svg" viewBox="0 0 100 100">
            <path d="M4.5917 23.2359H18.6417C21.5417 23.2359 23.2417 21.5459 23.2417 18.6459V4.5959C23.2417 1.6959 21.5417 -0.0041 18.6417 -0.0041H4.5917C1.7017 -0.0041 0.0017 1.6959 0.0017 4.5959V18.6459C0.0017 21.5459 1.7017 23.2359 4.5917 23.2359ZM5.2217 19.0759C4.5117 19.0759 4.1617 18.7859 4.1617 18.0159V5.2359C4.1617 4.4659 4.5117 4.1759 5.2217 4.1759H18.0117C18.7217 4.1759 19.0817 4.4659 19.0817 5.2359V18.0159C19.0817 18.7859 18.7217 19.0759 18.0117 19.0759ZM11.6117 17.6359C14.9317 17.6359 17.6117 14.9559 17.6117 11.6359C17.6117 8.3159 14.9317 5.6359 11.6117 5.6359C8.3117 5.6359 5.6217 8.3159 5.6217 11.6359C5.6217 14.9559 8.3117 17.6359 11.6117 17.6359ZM11.6117 15.5359C9.4617 15.5359 7.7117 13.7959 7.7117 11.6359C7.7117 9.4759 9.4617 7.7359 11.6117 7.7359C13.7817 7.7359 15.5317 9.4759 15.5317 11.6359C15.5317 13.7959 13.7817 15.5359 11.6117 15.5359ZM11.6117 14.2059C13.0317 14.2059 14.1817 13.0559 14.1817 11.6359C14.1817 10.2259 13.0317 9.0859 11.6117 9.0859C10.2117 9.0859 9.0617 10.2259 9.0617 11.6359C9.0617 13.0559 10.2117 14.2059 11.6117 14.2059Z" />
        </svg>
    