
        <svg xmlns="http://www.w3.org/2000/svg" viewBox="0 0 100 100">
            <path d="M15.7817 13.5911L19.4617 9.4211C20.2517 8.5211 19.7817 7.3211 18.5417 7.3211H16.5117V1.5811C16.5117 0.6211 15.8117 0.0011 14.9217 0.0011C14.0417 0.0011 13.3317 0.6211 13.3317 1.5811V7.3211H11.2717C10.1017 7.3211 9.6017 8.5311 10.3717 9.4211L14.0417 13.5911C14.5317 14.1711 15.2917 14.1711 15.7817 13.5911ZM7.7317 30.5411H22.1217C26.8717 30.5411 29.8617 27.4711 29.8617 22.6011V18.0511C29.8617 13.7411 26.8217 10.9611 22.1217 10.9611H20.5917L17.3917 14.5811H22.1217C24.6017 14.5811 26.2517 15.9611 26.2517 18.0611C26.2517 20.1611 24.6017 21.5411 22.1217 21.5411H7.7317C5.2617 21.5411 3.6117 20.1611 3.6117 18.0611C3.6117 15.9611 5.2617 14.5811 7.7317 14.5811H12.4617L9.2817 10.9611H7.7317C3.0517 10.9611 0.0117 13.7311 0.0017 18.0511V22.6011C0.0017 27.4711 2.9917 30.5411 7.7317 30.5411ZM7.7317 25.1611H22.1217C23.5817 25.1611 24.8517 24.8911 25.9417 24.4011C25.3817 25.9811 24.0117 26.9111 22.1217 26.9111H7.7317C5.8517 26.9111 4.4717 25.9811 3.9117 24.4011C5.0017 24.8911 6.2817 25.1611 7.7317 25.1611Z" />
        </svg>
    