
        <svg xmlns="http://www.w3.org/2000/svg" viewBox="0 0 100 100">
            <path d="M26.7917 6.6219C26.7917 2.5819 24.1317 0.0019 19.9417 0.0019H16.3717C12.6917 0.0019 10.3317 2.7219 10.3317 6.6219V9.2919L12.6317 11.3119V6.6219C12.6317 4.1319 14.1017 2.2919 16.3717 2.2919C18.6417 2.2919 20.1117 4.1319 20.1117 6.6219V22.2919C20.1117 24.7719 18.6417 26.6119 16.3717 26.6119C14.1017 26.6119 12.6317 24.7719 12.6317 22.2919V17.5919L10.3317 19.6219V22.2919C10.3317 26.1819 12.6917 28.9019 16.3717 28.9019H19.9417C24.1317 28.9019 26.7917 26.3319 26.7917 22.2919ZM22.3917 6.6219C22.3917 4.9719 21.9717 3.5419 21.2117 2.4219C23.2517 2.8719 24.4917 4.4219 24.4917 6.6219V22.2919C24.4917 24.4919 23.2517 26.0319 21.2117 26.4719C21.9717 25.3719 22.3917 23.9319 22.3917 22.2919ZM12.8117 15.2019C13.3217 14.7519 13.3117 14.1219 12.8117 13.6919L9.1217 10.4219C8.3517 9.7519 7.3317 10.1819 7.3317 11.1919V13.3119H1.1417C0.4817 13.3119 0.0017 13.8119 0.0017 14.4619C0.0017 15.0919 0.4817 15.6019 1.1417 15.6019H7.3317V17.6919C7.3317 18.7519 8.3917 19.1319 9.1217 18.4719Z" />
        </svg>
    