
        <svg xmlns="http://www.w3.org/2000/svg" viewBox="0 0 100 100">
            <path d="M0.0017 6.8773V22.2373C0.0017 26.4473 2.7517 29.1173 7.1017 29.1173H10.9117C14.7317 29.1173 17.1917 26.3273 17.1917 22.2373V19.8373L14.5817 17.5473V22.2373C14.5817 24.7273 13.1417 26.5173 10.9117 26.5173C8.6717 26.5173 7.2317 24.7273 7.2317 22.2373V6.8773C7.2317 4.3973 8.6717 2.5973 10.9117 2.5973C13.1417 2.5973 14.5817 4.3973 14.5817 6.8773V11.5773L17.1917 9.2773V6.8773C17.1917 2.7973 14.7317 -0.0027 10.9117 -0.0027H7.1017C2.7517 -0.0027 0.0017 2.6673 0.0017 6.8773ZM4.6317 6.8773V22.2373C4.6317 23.8373 5.0017 25.2373 5.6817 26.3573C3.7717 25.8673 2.6117 24.3673 2.6117 22.2373V6.8773C2.6117 4.7573 3.7717 3.2573 5.6817 2.7673C5.0017 3.8773 4.6317 5.2873 4.6317 6.8773ZM14.6717 15.3373L18.4917 18.7073C19.2517 19.3973 20.3417 18.9873 20.3417 17.8873V15.8073H26.4217C27.1617 15.8073 27.6817 15.2573 27.6817 14.5673C27.6817 13.8673 27.1617 13.3173 26.4217 13.3173H20.3417V11.2073C20.3417 10.1573 19.2817 9.7173 18.4917 10.4073L14.6717 13.7573C14.1517 14.2173 14.1517 14.8873 14.6717 15.3373Z" />
        </svg>
    