
        <svg xmlns="http://www.w3.org/2000/svg" viewBox="0 0 100 100">
            <path d="M12.8917 9.9658L15.4317 6.7758C15.7017 6.4558 15.5417 5.9858 15.1317 5.9858H12.7517V0.3058C12.7517 0.1158 12.6217 -0.0042 12.4417 -0.0042C12.2617 -0.0042 12.1417 0.1158 12.1417 0.3058V5.9858H9.7617C9.3517 5.9858 9.1917 6.4558 9.4617 6.7758L12.0017 9.9658C12.2217 10.2458 12.6317 10.2658 12.8917 9.9658ZM4.7017 18.2858H20.1917C22.9617 18.2858 24.8917 16.3558 24.8917 13.6258C24.8917 10.8858 22.9617 8.9658 20.1917 8.9658H14.8217L13.5817 10.5158C12.9717 11.2858 11.8817 11.2258 11.3117 10.4958L10.0617 8.9658H4.7017C1.9317 8.9658 0.0017 10.8858 0.0017 13.6258C0.0017 16.3558 1.9317 18.2858 4.7017 18.2858ZM4.7017 20.8958H20.1917C22.9117 20.8958 24.8317 19.7158 24.8917 16.7558C23.9017 18.2358 22.2317 19.1558 20.1917 19.1558H4.7017C2.6517 19.1558 0.9717 18.2358 0.0017 16.7558C0.0517 19.7158 1.9717 20.8958 4.7017 20.8958Z" />
        </svg>
    