
        <svg xmlns="http://www.w3.org/2000/svg" viewBox="0 0 100 100">
            <path d="M13.6317 24.9931C17.7517 24.9931 20.3917 22.3631 20.3917 18.2331V12.1831C20.3917 10.6531 19.9317 9.4231 18.9817 8.5431L11.5817 1.7431C10.1717 0.4531 8.6917 0.0031 6.9117 0.0031H3.3017C1.2917 0.0031 0.0017 1.2931 0.0017 3.3231V21.6931C0.0017 23.7631 1.2317 24.9931 3.3317 24.9931ZM13.5917 23.5431H3.3617C2.0517 23.5431 1.4517 23.0031 1.4517 21.6531V3.3531C1.4517 2.1831 2.1417 1.4531 3.3417 1.4531H6.8717C8.3517 1.4531 9.4917 1.8131 10.5817 2.8131L17.9617 9.5831C18.6417 10.2031 18.9517 11.0131 18.9517 12.2231V18.2031C18.9517 21.5731 16.9717 23.5431 13.5917 23.5431Z" />
        </svg>
    