
        <svg xmlns="http://www.w3.org/2000/svg" viewBox="0 0 100 100">
            <path d="M2.1717 22.387H2.3317V23.867C2.3317 24.187 2.5617 24.417 2.8917 24.417C3.2217 24.417 3.4617 24.187 3.4617 23.867V22.387H7.8717V-0.003H2.1717C0.8717 -0.003 0.0017 0.937 0.0017 2.347V20.037C0.0017 21.447 0.8717 22.387 2.1717 22.387ZM13.8917 24.417C14.2117 24.417 14.4517 24.187 14.4517 23.867V22.387H14.6217C15.9217 22.387 16.7917 21.447 16.7917 20.037V2.347C16.7917 0.937 15.9217 -0.003 14.6217 -0.003H8.9217V22.387H13.3317V23.867C13.3317 24.187 13.5717 24.417 13.8917 24.417ZM5.3117 12.637C4.7417 12.637 4.2817 12.167 4.2817 11.597C4.2817 11.027 4.7417 10.567 5.3117 10.567C5.8817 10.567 6.3417 11.027 6.3417 11.597C6.3417 12.167 5.8817 12.637 5.3117 12.637ZM11.4517 12.637C10.8917 12.637 10.4317 12.167 10.4317 11.597C10.4317 11.027 10.8917 10.567 11.4517 10.567C12.0217 10.567 12.4817 11.027 12.4817 11.597C12.4817 12.167 12.0217 12.637 11.4517 12.637Z" />
        </svg>
    