
        <svg xmlns="http://www.w3.org/2000/svg" viewBox="0 0 100 100">
            <path d="M0.0017 25.4063C0.0017 26.3363 0.7617 27.0963 1.6917 27.0963H5.8317L3.6417 30.6163C3.2317 31.2763 3.5117 32.2163 4.4417 32.2163H5.4017C5.9217 32.2163 6.2217 32.0363 6.4917 31.6063L9.2917 27.0963H18.3417L21.1417 31.6063C21.4117 32.0363 21.7117 32.2163 22.2317 32.2163H22.9817C23.9017 32.2163 24.4017 31.2763 23.8917 30.4763L21.8017 27.0963H26.0417C26.9617 27.0963 27.7217 26.3363 27.7217 25.4063C27.7217 24.4963 26.9917 23.7463 26.0717 23.7263V7.6163C26.0717 5.7763 24.9517 4.6163 22.9617 4.3663C22.3217 4.2862 21.6117 4.2162 20.8617 4.1563V3.0963C21.6017 3.1863 22.2817 2.5063 22.2817 1.7063C22.2817 0.9862 21.6517 0.3962 20.8317 0.3163C19.0617 0.1062 16.5517 -0.0038 13.8617 -0.0038C11.2617 -0.0038 8.6717 0.1163 6.8017 0.3263C6.0017 0.4363 5.4417 0.9962 5.4417 1.7063C5.4417 2.5063 6.1217 3.1863 6.8517 3.0963L6.8717 3.0862V4.1563C6.1017 4.2162 5.3917 4.2862 4.7417 4.3663C2.7817 4.6163 1.6617 5.7763 1.6617 7.6163V23.7263C0.7617 23.7263 0.0017 24.4963 0.0017 25.4063ZM13.8617 3.9163C12.2817 3.9163 10.6717 3.9462 9.1617 4.0162V2.8863C10.5517 2.7963 12.1317 2.7662 13.8617 2.7662C15.5817 2.7662 17.1817 2.7963 18.5617 2.8962V4.0162C17.0517 3.9462 15.4417 3.9163 13.8617 3.9163ZM4.5617 8.1663C4.5617 7.5963 4.8017 7.2963 5.3717 7.2463C7.2617 6.9763 10.3017 6.8463 13.8617 6.8463C17.3817 6.8463 20.4217 6.9763 22.3517 7.2463C22.9617 7.2963 23.1417 7.5263 23.1417 8.1663V23.7263H4.5617ZM11.4017 16.4763C11.4017 16.8663 11.6717 17.1163 12.0817 17.1163H15.6217C16.0317 17.1163 16.3017 16.8663 16.3017 16.4763V10.6163C16.3017 9.1663 15.3117 8.1763 13.8617 8.1763C12.3917 8.1763 11.4017 9.1663 11.4017 10.6163ZM5.7217 16.4763C5.7217 16.8663 6.0017 17.1163 6.3917 17.1163H9.7817C10.1917 17.1163 10.4617 16.8663 10.4617 16.4763V11.0063C10.4617 9.6163 9.4817 8.6363 8.1017 8.6363C6.6917 8.6363 5.7217 9.6163 5.7217 11.0063ZM17.2417 16.4763C17.2417 16.8663 17.5117 17.1163 17.9217 17.1163H21.3117C21.7017 17.1163 21.9817 16.8663 21.9817 16.4763V11.0063C21.9817 9.6163 21.0117 8.6363 19.6217 8.6363C18.2217 8.6363 17.2417 9.6063 17.2417 11.0063ZM13.8617 22.5463C15.0117 22.5463 15.9117 21.6763 15.9117 20.5263C15.9117 19.3663 15.0117 18.4463 13.8617 18.4463C12.6917 18.4463 11.8117 19.3463 11.8117 20.5263C11.8117 21.6763 12.6817 22.5463 13.8617 22.5463Z" />
        </svg>
    