
        <svg xmlns="http://www.w3.org/2000/svg" viewBox="0 0 100 100">
            <path d="M0.0017 22.7028C0.0017 23.0928 0.3317 23.4228 0.7217 23.4228H5.0317L2.8017 27.0028C2.5417 27.4128 2.7617 27.8428 3.2317 27.8428H3.8117C4.1017 27.8428 4.2517 27.7528 4.3917 27.5028L6.9417 23.4228H15.5717L18.1017 27.5028C18.2617 27.7528 18.4117 27.8428 18.7017 27.8428H19.2817C19.7417 27.8428 19.9617 27.4128 19.7017 27.0028L17.4817 23.4228H22.7117C23.1117 23.4228 23.4417 23.0928 23.4417 22.7028C23.4417 22.3028 23.1117 21.9728 22.7117 21.9728H22.2917V5.8328C22.2917 4.5028 21.5117 3.7128 20.0417 3.5428C19.3217 3.4428 18.5317 3.3728 17.6717 3.3028V1.8528C17.8317 1.8628 18.0017 1.8828 18.1517 1.9128C18.6217 1.9728 18.9817 1.5628 18.9817 1.1328C18.9817 0.7128 18.6517 0.3828 18.1617 0.3128C16.4017 0.0928 13.9817 0.0028 11.7117 0.0028C9.4417 0.0028 7.0217 0.0928 5.2617 0.3128C4.7717 0.3828 4.4417 0.7128 4.4417 1.1328C4.4417 1.5628 4.8017 1.9728 5.2717 1.9128C5.4417 1.8828 5.6017 1.8628 5.7817 1.8528V3.3028C4.9117 3.3628 4.1017 3.4428 3.3717 3.5428C1.9117 3.7128 1.1517 4.5028 1.1517 5.8328V21.9728H0.7217C0.3317 21.9728 0.0017 22.3028 0.0017 22.7028ZM11.7117 3.1028C10.1517 3.1028 8.5217 3.1528 6.9817 3.2328V1.7428C8.4117 1.6428 10.0617 1.5928 11.7117 1.5928C13.3617 1.5928 15.0217 1.6428 16.4517 1.7428V3.2328C14.9217 3.1528 13.2817 3.1028 11.7117 3.1028ZM9.1317 14.4028V8.3328C9.1317 6.7828 10.1617 5.7528 11.7117 5.7528C13.2517 5.7528 14.2817 6.7828 14.2817 8.3328V14.4028C14.2817 14.7928 14.0617 15.0428 13.6317 15.0428H9.7817C9.3617 15.0428 9.1317 14.7928 9.1317 14.4028ZM3.4117 14.4028V8.7028C3.4117 7.4228 4.3717 6.4528 5.6717 6.4528C6.9517 6.4528 7.9117 7.4228 7.9117 8.7028V14.4028C7.9117 14.7928 7.6717 15.0428 7.2517 15.0428H4.0817C3.6517 15.0428 3.4117 14.7928 3.4117 14.4028ZM15.5017 14.4028V8.7028C15.5017 7.4228 16.4617 6.4528 17.7517 6.4528C19.0417 6.4528 20.0017 7.4228 20.0017 8.7028V14.4028C20.0017 14.7928 19.7617 15.0428 19.3317 15.0428H16.1717C15.7517 15.0428 15.5017 14.7928 15.5017 14.4028ZM11.7117 20.5628C10.6517 20.5628 9.8817 19.8028 9.8817 18.7728C9.8817 17.7028 10.6517 16.9028 11.7117 16.9028C12.7417 16.9028 13.5617 17.7228 13.5617 18.7728C13.5617 19.8028 12.7517 20.5628 11.7117 20.5628Z" />
        </svg>
    