
        <svg xmlns="http://www.w3.org/2000/svg" viewBox="0 0 100 100">
            <path d="M4.0117 8.9086H4.8917V3.1486C4.8917 1.6486 5.7217 0.8686 7.1617 0.8686H23.8817C25.3817 0.8686 26.1717 1.6486 26.1717 3.1486V8.9086H27.0317V3.1486C27.0317 1.0786 25.9417 -0.0014 23.8717 -0.0014H7.1717C5.1017 -0.0014 4.0117 1.1086 4.0117 3.1486ZM1.1817 2.4986C1.7317 2.4986 2.1917 2.0386 2.1917 1.4886C2.1917 0.9386 1.7317 0.4786 1.1817 0.4786C0.6217 0.4786 0.1717 0.9386 0.1717 1.4886C0.1717 2.0386 0.6217 2.4986 1.1817 2.4986ZM1.1817 6.9286C1.7317 6.9286 2.1917 6.4686 2.1917 5.9186C2.1917 5.3586 1.7317 4.9086 1.1817 4.9086C0.6217 4.9086 0.1717 5.3586 0.1717 5.9186C0.1717 6.4686 0.6217 6.9286 1.1817 6.9286ZM27.4417 10.3586C27.4417 10.1386 27.2617 9.9486 27.0317 9.9486H2.2517C2.1017 9.4886 1.6617 9.1886 1.1717 9.1886C0.5117 9.1886 0.0017 9.6986 0.0017 10.3486C0.0017 10.9886 0.5117 11.5086 1.1717 11.5086C1.6617 11.5086 2.0717 11.2186 2.2417 10.7686H27.0317C27.2617 10.7686 27.4417 10.5786 27.4417 10.3586ZM4.8917 11.8086H4.0117V17.5986C4.0117 19.6386 5.1017 20.7386 7.1717 20.7386H23.8717C25.9417 20.7386 27.0317 19.6686 27.0317 17.5986V11.8086H26.1717V17.5886C26.1717 19.0986 25.3817 19.8786 23.8817 19.8786H7.1617C5.7217 19.8786 4.8917 19.0986 4.8917 17.5886ZM1.1817 15.7686C1.7317 15.7686 2.1917 15.3286 2.1917 14.7686C2.1917 14.2186 1.7317 13.7586 1.1817 13.7586C0.6217 13.7586 0.1717 14.2186 0.1717 14.7686C0.1717 15.3286 0.6217 15.7686 1.1817 15.7686ZM1.1817 20.1986C1.7317 20.1986 2.1917 19.7486 2.1917 19.1986C2.1917 18.6486 1.7317 18.1886 1.1817 18.1886C0.6217 18.1886 0.1717 18.6486 0.1717 19.1986C0.1717 19.7486 0.6217 20.1986 1.1817 20.1986Z" />
        </svg>
    