
        <svg xmlns="http://www.w3.org/2000/svg" viewBox="0 0 100 100">
            <path d="M3.7417 9.0597H4.3117V3.0397C4.3117 1.4197 5.2117 0.5697 6.7717 0.5697H23.6117C25.2417 0.5697 26.0817 1.4197 26.0817 3.0397V9.0597H26.6617V3.0097C26.6617 1.0397 25.6217 -0.0003 23.6517 -0.0003H6.7517C4.7817 -0.0003 3.7417 1.0697 3.7417 3.0097ZM1.0517 2.3797C1.5517 2.3797 1.9417 1.9797 1.9417 1.4897C1.9417 1.0097 1.5517 0.6097 1.0517 0.6097C0.5617 0.6097 0.1617 1.0097 0.1617 1.4897C0.1617 1.9797 0.5617 2.3797 1.0517 2.3797ZM1.0517 6.7397C1.5517 6.7397 1.9417 6.3397 1.9417 5.8597C1.9417 5.3697 1.5517 4.9697 1.0517 4.9697C0.5617 4.9697 0.1617 5.3697 0.1617 5.8597C0.1617 6.3397 0.5617 6.7397 1.0517 6.7397ZM26.9417 10.2297C26.9417 10.0797 26.8117 9.9397 26.6617 9.9397H2.0417C1.9217 9.4897 1.5117 9.1797 1.0417 9.1797C0.4617 9.1797 0.0017 9.6397 0.0017 10.2197C0.0017 10.7897 0.4617 11.2497 1.0417 11.2497C1.5117 11.2497 1.9017 10.9597 2.0417 10.5197H26.6617C26.8117 10.5197 26.9417 10.3897 26.9417 10.2297ZM4.3117 11.3997H3.7417V17.4797C3.7417 19.4297 4.7817 20.4997 6.7517 20.4997H23.6517C25.6217 20.4997 26.6617 19.4497 26.6617 17.4797V11.3997H26.0817V17.4597C26.0817 19.0797 25.2417 19.9197 23.6117 19.9197H6.7717C5.2117 19.9197 4.3117 19.0797 4.3117 17.4597ZM1.0517 15.4697C1.5517 15.4697 1.9417 15.0697 1.9417 14.5797C1.9417 14.0997 1.5517 13.6897 1.0517 13.6897C0.5617 13.6897 0.1617 14.0997 0.1617 14.5797C0.1617 15.0697 0.5617 15.4697 1.0517 15.4697ZM1.0517 19.8297C1.5517 19.8297 1.9417 19.4297 1.9417 18.9397C1.9417 18.4597 1.5517 18.0597 1.0517 18.0597C0.5617 18.0597 0.1617 18.4597 0.1617 18.9397C0.1617 19.4297 0.5617 19.8297 1.0517 19.8297Z" />
        </svg>
    