
        <svg xmlns="http://www.w3.org/2000/svg" viewBox="0 0 100 100">
            <path d="M3.8417 21.8828H19.9717C22.5017 21.8828 23.8117 20.5628 23.8117 18.0728V3.8128C23.8117 1.3028 22.5017 0.0028 19.9717 0.0028H3.8417C1.3117 0.0028 0.0017 1.3028 0.0017 3.8128V18.0728C0.0017 20.5828 1.3117 21.8828 3.8417 21.8828ZM3.8117 19.5828C2.8317 19.5828 2.3017 19.0628 2.3017 18.0428V7.2228C2.3017 6.1828 2.8317 5.6828 3.8117 5.6828H19.9817C20.9617 5.6828 21.5117 6.1828 21.5117 7.2228V18.0428C21.5117 19.0628 20.9617 19.5828 19.9817 19.5828ZM9.6417 9.7528H10.3317C10.7617 9.7528 10.9017 9.6228 10.9017 9.2028V8.5228C10.9017 8.0928 10.7617 7.9728 10.3317 7.9728H9.6417C9.2317 7.9728 9.0917 8.0928 9.0917 8.5228V9.2028C9.0917 9.6228 9.2317 9.7528 9.6417 9.7528ZM13.4917 9.7528H14.1717C14.5917 9.7528 14.7317 9.6228 14.7317 9.2028V8.5228C14.7317 8.0928 14.5917 7.9728 14.1717 7.9728H13.4917C13.0617 7.9728 12.9217 8.0928 12.9217 8.5228V9.2028C12.9217 9.6228 13.0617 9.7528 13.4917 9.7528ZM17.3217 9.7528H18.0017C18.4217 9.7528 18.5617 9.6228 18.5617 9.2028V8.5228C18.5617 8.0928 18.4217 7.9728 18.0017 7.9728H17.3217C16.9017 7.9728 16.7617 8.0928 16.7617 8.5228V9.2028C16.7617 9.6228 16.9017 9.7528 17.3217 9.7528ZM5.8117 13.5228H6.5017C6.9217 13.5228 7.0617 13.3928 7.0617 12.9728V12.2928C7.0617 11.8728 6.9217 11.7428 6.5017 11.7428H5.8117C5.4017 11.7428 5.2617 11.8728 5.2617 12.2928V12.9728C5.2617 13.3928 5.4017 13.5228 5.8117 13.5228ZM9.6417 13.5228H10.3317C10.7617 13.5228 10.9017 13.3928 10.9017 12.9728V12.2928C10.9017 11.8728 10.7617 11.7428 10.3317 11.7428H9.6417C9.2317 11.7428 9.0917 11.8728 9.0917 12.2928V12.9728C9.0917 13.3928 9.2317 13.5228 9.6417 13.5228ZM13.4917 13.5228H14.1717C14.5917 13.5228 14.7317 13.3928 14.7317 12.9728V12.2928C14.7317 11.8728 14.5917 11.7428 14.1717 11.7428H13.4917C13.0617 11.7428 12.9217 11.8728 12.9217 12.2928V12.9728C12.9217 13.3928 13.0617 13.5228 13.4917 13.5228ZM17.3217 13.5228H18.0017C18.4217 13.5228 18.5617 13.3928 18.5617 12.9728V12.2928C18.5617 11.8728 18.4217 11.7428 18.0017 11.7428H17.3217C16.9017 11.7428 16.7617 11.8728 16.7617 12.2928V12.9728C16.7617 13.3928 16.9017 13.5228 17.3217 13.5228ZM5.8117 17.2928H6.5017C6.9217 17.2928 7.0617 17.1728 7.0617 16.7428V16.0628C7.0617 15.6428 6.9217 15.5128 6.5017 15.5128H5.8117C5.4017 15.5128 5.2617 15.6428 5.2617 16.0628V16.7428C5.2617 17.1728 5.4017 17.2928 5.8117 17.2928ZM9.6417 17.2928H10.3317C10.7617 17.2928 10.9017 17.1728 10.9017 16.7428V16.0628C10.9017 15.6428 10.7617 15.5128 10.3317 15.5128H9.6417C9.2317 15.5128 9.0917 15.6428 9.0917 16.0628V16.7428C9.0917 17.1728 9.2317 17.2928 9.6417 17.2928ZM13.4917 17.2928H14.1717C14.5917 17.2928 14.7317 17.1728 14.7317 16.7428V16.0628C14.7317 15.6428 14.5917 15.5128 14.1717 15.5128H13.4917C13.0617 15.5128 12.9217 15.6428 12.9217 16.0628V16.7428C12.9217 17.1728 13.0617 17.2928 13.4917 17.2928Z" />
        </svg>
    