
        <svg xmlns="http://www.w3.org/2000/svg" viewBox="0 0 100 100">
            <path d="M4.1417 22.4023H14.3017C13.8517 21.4323 13.9917 20.3523 14.4617 19.3823H4.3617C3.4917 19.3823 3.0217 18.9623 3.0217 18.0323V7.6123C3.0217 6.6923 3.4917 6.2723 4.3617 6.2723H19.5717C19.7417 6.2723 19.9017 6.2823 20.0517 6.2923C20.8517 5.6223 21.8717 5.2223 22.9617 5.2223C23.5317 5.2223 24.0917 5.3323 24.6017 5.5223V4.1123C24.6017 1.4523 23.1417 0.0023 20.4617 0.0023H4.1417C1.4617 0.0023 0.0017 1.4523 0.0017 4.1123V18.2923C0.0017 20.9523 1.4617 22.4023 4.1417 22.4023ZM22.9617 14.4823C24.8517 14.4823 26.4117 12.8223 26.4117 10.6923C26.4117 8.6323 24.8417 6.9923 22.9617 6.9923C21.0717 6.9923 19.5017 8.6523 19.5017 10.7123C19.5017 12.8223 21.0617 14.4823 22.9617 14.4823ZM10.1017 10.0623H10.7817C11.2117 10.0623 11.3717 9.9423 11.3717 9.5023V8.8123C11.3717 8.3923 11.2117 8.2523 10.7817 8.2523H10.1017C9.6717 8.2523 9.5117 8.3923 9.5117 8.8123V9.5023C9.5117 9.9423 9.6717 10.0623 10.1017 10.0623ZM13.8117 10.0623H14.5117C14.9417 10.0623 15.0917 9.9423 15.0917 9.5023V8.8123C15.0917 8.3923 14.9417 8.2523 14.5117 8.2523H13.8117C13.3917 8.2523 13.2417 8.3923 13.2417 8.8123V9.5023C13.2417 9.9423 13.3917 10.0623 13.8117 10.0623ZM17.5417 10.0623H17.7817C17.8517 9.4223 18.0217 8.8223 18.3017 8.2523H17.5417C17.1217 8.2523 16.9717 8.3923 16.9717 8.8123V9.5023C16.9717 9.9423 17.1217 10.0623 17.5417 10.0623ZM6.3717 13.7323H7.0517C7.4917 13.7323 7.6417 13.6023 7.6417 13.1723V12.4823C7.6417 12.0623 7.4917 11.9223 7.0517 11.9223H6.3717C5.9417 11.9223 5.7917 12.0623 5.7917 12.4823V13.1723C5.7917 13.6023 5.9417 13.7323 6.3717 13.7323ZM10.1017 13.7323H10.7817C11.2117 13.7323 11.3717 13.6023 11.3717 13.1723V12.4823C11.3717 12.0623 11.2117 11.9223 10.7817 11.9223H10.1017C9.6717 11.9223 9.5117 12.0623 9.5117 12.4823V13.1723C9.5117 13.6023 9.6717 13.7323 10.1017 13.7323ZM13.8117 13.7323H14.5117C14.9417 13.7323 15.0917 13.6023 15.0917 13.1723V12.4823C15.0917 12.0623 14.9417 11.9223 14.5117 11.9223H13.8117C13.3917 11.9223 13.2417 12.0623 13.2417 12.4823V13.1723C13.2417 13.6023 13.3917 13.7323 13.8117 13.7323ZM17.5417 13.7323H18.2317C18.3917 13.7323 18.4817 13.7223 18.5517 13.6623C18.2417 13.1323 18.0117 12.5523 17.8917 11.9223H17.5417C17.1217 11.9223 16.9717 12.0623 16.9717 12.4823V13.1723C16.9717 13.6023 17.1217 13.7323 17.5417 13.7323ZM6.3717 17.4023H7.0517C7.4917 17.4023 7.6417 17.2623 7.6417 16.8423V16.1523C7.6417 15.7123 7.4917 15.5823 7.0517 15.5823H6.3717C5.9417 15.5823 5.7917 15.7123 5.7917 16.1523V16.8423C5.7917 17.2623 5.9417 17.4023 6.3717 17.4023ZM10.1017 17.4023H10.7817C11.2117 17.4023 11.3717 17.2623 11.3717 16.8423V16.1523C11.3717 15.7123 11.2117 15.5823 10.7817 15.5823H10.1017C9.6717 15.5823 9.5117 15.7123 9.5117 16.1523V16.8423C9.5117 17.2623 9.6717 17.4023 10.1017 17.4023ZM13.8117 17.4023H14.5117C14.9417 17.4023 15.0917 17.2623 15.0917 16.8423V16.1523C15.0917 15.7123 14.9417 15.5823 14.5117 15.5823H13.8117C13.3917 15.5823 13.2417 15.7123 13.2417 16.1523V16.8423C13.2417 17.2623 13.3917 17.4023 13.8117 17.4023ZM17.4017 22.4023H28.5017C29.5217 22.4023 30.1417 21.9123 30.1417 21.0823C30.1417 18.9123 27.3417 15.9623 22.9617 15.9623C18.5717 15.9623 15.7617 18.9123 15.7617 21.0823C15.7617 21.9123 16.3817 22.4023 17.4017 22.4023Z" />
        </svg>
    