
        <svg xmlns="http://www.w3.org/2000/svg" viewBox="0 0 100 100">
            <path d="M12.3723 24.7542C19.2023 24.7542 24.7523 19.2042 24.7523 12.3742C24.7523 5.5442 19.2023 0.0042 12.3723 0.0042C5.5423 0.0042 0.0023 5.5442 0.0023 12.3742C0.0023 19.2042 5.5423 24.7542 12.3723 24.7542ZM8.1323 18.2142C6.7523 18.2142 5.9923 17.4642 5.9923 16.0942V8.6842C5.9923 7.3042 6.7523 6.5542 8.1323 6.5542H16.6123C18.0023 6.5542 18.7623 7.3042 18.7623 8.6842V16.0942C18.7623 17.4642 18.0023 18.2142 16.6123 18.2142ZM8.2423 16.6442H16.5123C16.9723 16.6442 17.1923 16.4342 17.1923 15.9642V10.5042C17.1923 10.0042 16.9423 9.7942 16.4923 9.7942H8.2623C7.8023 9.7942 7.5623 10.0042 7.5623 10.5042V15.9642C7.5623 16.4342 7.7923 16.6442 8.2423 16.6442ZM11.1923 11.8942C10.9123 11.8942 10.8423 11.8042 10.8423 11.5442V11.1142C10.8423 10.8242 10.9123 10.7442 11.1923 10.7442H11.6223C11.8823 10.7442 11.9723 10.8242 11.9723 11.1142V11.5442C11.9723 11.8042 11.8823 11.8942 11.6223 11.8942ZM13.1323 11.8942C12.8623 11.8942 12.7823 11.8042 12.7823 11.5442V11.1142C12.7823 10.8242 12.8623 10.7442 13.1323 10.7442H13.5623C13.8423 10.7442 13.9223 10.8242 13.9223 11.1142V11.5442C13.9223 11.8042 13.8423 11.8942 13.5623 11.8942ZM15.0923 11.8942C14.8123 11.8942 14.7223 11.8042 14.7223 11.5442V11.1142C14.7223 10.8242 14.8123 10.7442 15.0923 10.7442H15.5023C15.7723 10.7442 15.8623 10.8242 15.8623 11.1142V11.5442C15.8623 11.8042 15.7723 11.8942 15.5023 11.8942ZM9.2423 13.7942C8.9723 13.7942 8.8823 13.7142 8.8823 13.4542V13.0342C8.8823 12.7542 8.9723 12.6642 9.2423 12.6642H9.6723C9.9523 12.6642 10.0323 12.7542 10.0323 13.0342V13.4542C10.0323 13.7142 9.9523 13.7942 9.6723 13.7942ZM11.1923 13.7942C10.9123 13.7942 10.8423 13.7142 10.8423 13.4542V13.0342C10.8423 12.7542 10.9123 12.6642 11.1923 12.6642H11.6223C11.8823 12.6642 11.9723 12.7542 11.9723 13.0342V13.4542C11.9723 13.7142 11.8823 13.7942 11.6223 13.7942ZM13.1323 13.7942C12.8623 13.7942 12.7823 13.7142 12.7823 13.4542V13.0342C12.7823 12.7542 12.8623 12.6642 13.1323 12.6642H13.5623C13.8423 12.6642 13.9223 12.7542 13.9223 13.0342V13.4542C13.9223 13.7142 13.8423 13.7942 13.5623 13.7942ZM15.0923 13.7942C14.8123 13.7942 14.7223 13.7142 14.7223 13.4542V13.0342C14.7223 12.7542 14.8123 12.6642 15.0923 12.6642H15.5023C15.7723 12.6642 15.8623 12.7542 15.8623 13.0342V13.4542C15.8623 13.7142 15.7723 13.7942 15.5023 13.7942ZM9.2423 15.7142C8.9723 15.7142 8.8823 15.6342 8.8823 15.3642V14.9142C8.8823 14.6742 8.9723 14.5642 9.2423 14.5642H9.6723C9.9523 14.5642 10.0323 14.6742 10.0323 14.9142V15.3642C10.0323 15.6342 9.9523 15.7142 9.6723 15.7142ZM11.1923 15.7142C10.9123 15.7142 10.8423 15.6342 10.8423 15.3642V14.9142C10.8423 14.6742 10.9123 14.5642 11.1923 14.5642H11.6223C11.8823 14.5642 11.9723 14.6742 11.9723 14.9142V15.3642C11.9723 15.6342 11.8823 15.7142 11.6223 15.7142ZM13.1323 15.7142C12.8623 15.7142 12.7823 15.6342 12.7823 15.3642V14.9142C12.7823 14.6742 12.8623 14.5642 13.1323 14.5642H13.5623C13.8423 14.5642 13.9223 14.6742 13.9223 14.9142V15.3642C13.9223 15.6342 13.8423 15.7142 13.5623 15.7142Z" />
        </svg>
    