
        <svg xmlns="http://www.w3.org/2000/svg" viewBox="0 0 100 100">
            <path d="M1.9017 3.2825C2.8117 3.2825 3.5417 2.5525 3.5417 1.6425C3.5417 0.7425 2.8117 0.0025 1.9017 0.0025C0.9817 0.0025 0.2617 0.7425 0.2617 1.6425C0.2617 2.5525 0.9817 3.2825 1.9017 3.2825ZM5.4817 8.5525H9.1017V5.0025C9.1017 4.1725 9.5017 3.8225 10.2917 3.8225H25.9217C26.7117 3.8225 27.1017 4.1725 27.1017 5.0025V8.5525H30.7217V4.5625C30.7217 1.7725 29.1317 0.1825 26.3417 0.1825H9.8717C7.0617 0.1825 5.4817 1.7725 5.4817 4.5625ZM1.9017 8.2525C2.8117 8.2525 3.5417 7.5125 3.5417 6.6125C3.5417 5.6925 2.8117 4.9725 1.9017 4.9725C0.9817 4.9725 0.2617 5.6925 0.2617 6.6125C0.2617 7.5125 0.9817 8.2525 1.9017 8.2525ZM31.7117 11.6025C31.7117 11.0225 31.3117 10.6125 30.7217 10.6125H3.4217C3.0917 10.0925 2.5117 9.7525 1.8517 9.7525C0.8317 9.7525 0.0017 10.5825 0.0017 11.6025C0.0017 12.6225 0.8317 13.4525 1.8517 13.4525C2.5117 13.4525 3.0817 13.1125 3.4117 12.6025H30.7217C31.3117 12.6025 31.7117 12.1825 31.7117 11.6025ZM9.1017 14.6625H5.4817V18.6725C5.4817 21.4525 7.0617 23.0425 9.8717 23.0425H26.3417C29.1317 23.0425 30.7217 21.4525 30.7217 18.6725V14.6625H27.1017V18.2225C27.1017 19.0625 26.7117 19.4225 25.9217 19.4225H10.2917C9.5017 19.4225 9.1017 19.0625 9.1017 18.2225ZM1.9017 18.2225C2.8117 18.2225 3.5417 17.4925 3.5417 16.5825C3.5417 15.6725 2.8117 14.9425 1.9017 14.9425C0.9817 14.9425 0.2617 15.6725 0.2617 16.5825C0.2617 17.4925 0.9817 18.2225 1.9017 18.2225ZM1.9017 23.1825C2.8117 23.1825 3.5417 22.4525 3.5417 21.5425C3.5417 20.6325 2.8117 19.9025 1.9017 19.9025C0.9817 19.9025 0.2617 20.6325 0.2617 21.5425C0.2617 22.4525 0.9817 23.1825 1.9017 23.1825Z" />
        </svg>
    