
        <svg xmlns="http://www.w3.org/2000/svg" viewBox="0 0 100 100">
            <path d="M13.2834 25.8068C13.2834 26.6468 13.9534 27.2668 14.8234 27.2668C21.4034 27.2668 27.4734 23.2568 29.4734 17.5768C29.8734 16.4668 29.3334 15.6468 28.1534 15.6468C23.0434 15.6468 18.8134 18.0268 16.3634 21.8068V13.8768C20.5534 13.1968 23.3634 9.7668 23.3634 5.3968C23.3634 3.9668 23.1834 2.5068 22.4734 1.1068C22.0134 0.2068 20.8834 -0.0032 20.1434 0.7468L17.8834 3.0768L15.9534 0.5768C15.3634 -0.1932 14.2834 -0.1932 13.7034 0.5768L11.7634 3.0768L9.4934 0.7468C8.7634 -0.0032 7.6634 0.1968 7.1834 1.1068C6.4834 2.5168 6.2734 3.9768 6.2734 5.3968C6.2734 9.7668 9.0934 13.1968 13.2834 13.8768ZM11.2134 19.4568C8.7534 17.0668 5.3634 15.6468 1.4534 15.6468C0.2734 15.6468 -0.2666 16.4668 0.1334 17.5768C1.7434 22.2268 6.1334 25.8068 11.3934 26.8968C11.2834 26.5568 11.2134 26.1868 11.2134 25.8068Z" />
        </svg>
    