
        <svg xmlns="http://www.w3.org/2000/svg" viewBox="0 0 100 100">
            <path d="M0.0017 15.74C0.0017 18.25 1.3117 19.55 3.8417 19.55H4.4217V11.29C4.4217 7.83 6.4917 5.78 9.9717 5.78H11.6017C11.8817 5.78 11.9617 5.74 12.1517 5.54L13.0117 4.73C13.9817 3.81 15.0117 3.37 16.3617 3.37H20.6517C22.0217 3.37 23.0817 3.81 24.0317 4.76L24.6017 5.32C24.6817 5.41 24.7817 5.52 24.8517 5.55V3.8C24.8517 1.3 23.5317 0 21.0117 0H3.8417C1.3117 0 0.0017 1.29 0.0017 3.8ZM9.9717 25.11H27.0317C29.5817 25.11 30.8817 23.81 30.8817 21.32V11.29C30.8817 8.78 29.5817 7.48 27.0317 7.48H25.4017C24.5317 7.48 24.2317 7.38 23.7217 6.86L22.8417 5.98C22.2117 5.34 21.5817 5.09 20.6517 5.09H16.3617C15.4217 5.09 14.8217 5.36 14.1817 5.98L13.2417 6.86C12.7217 7.34 12.4917 7.48 11.6017 7.48H9.9717C7.4317 7.48 6.1317 8.78 6.1317 11.29V21.32C6.1317 23.81 7.4317 25.11 9.9717 25.11ZM18.4717 21.43C15.3517 21.43 12.8417 18.91 12.8417 15.8C12.8417 12.7 15.3517 10.18 18.4717 10.18C21.5617 10.18 24.0817 12.7 24.0817 15.8C24.0817 18.91 21.5617 21.43 18.4717 21.43ZM25.6417 13.15C24.8917 13.15 24.2917 12.54 24.2917 11.8C24.2917 11.05 24.8917 10.44 25.6417 10.44C26.3917 10.44 27.0017 11.05 27.0017 11.8C27.0017 12.54 26.3917 13.15 25.6417 13.15ZM18.4717 19.38C20.4217 19.38 22.0317 17.78 22.0317 15.8C22.0317 13.83 20.4217 12.22 18.4717 12.22C16.4917 12.22 14.8817 13.83 14.8817 15.8C14.8817 17.78 16.4917 19.38 18.4717 19.38Z" />
        </svg>
    