
        <svg xmlns="http://www.w3.org/2000/svg" viewBox="0 0 100 100">
            <path d="M12.1023 24.2064C18.7823 24.2064 24.2123 18.7864 24.2123 12.1064C24.2123 5.4264 18.7823 -0.0036 12.1023 -0.0036C5.4223 -0.0036 0.0023 5.4264 0.0023 12.1064C0.0023 18.7864 5.4223 24.2064 12.1023 24.2064ZM17.3523 18.2064L6.0023 6.8564C5.7823 6.6364 5.7823 6.2364 6.0023 5.9964C6.2423 5.7664 6.6423 5.7664 6.8823 5.9964L18.2223 17.3464C18.4523 17.5864 18.4523 17.9564 18.2223 18.2064C17.9923 18.4364 17.5923 18.4364 17.3523 18.2064ZM16.2623 8.6564C16.2623 10.1964 15.5523 11.5064 14.3323 12.2264L8.5923 6.4764C8.6023 6.4464 8.6123 6.3964 8.6323 6.3664C8.7823 6.2364 9.0723 6.2464 9.2623 6.4564L10.5823 7.8064L11.7223 6.3364C11.9323 6.0464 12.3023 6.0564 12.5123 6.3364L13.6523 7.8064L14.9623 6.4564C15.2423 6.1764 15.6723 6.2364 15.8223 6.5764C16.1323 7.2764 16.2623 7.9664 16.2623 8.6564ZM12.6923 17.6964C13.0123 17.0764 13.4223 16.4964 13.9223 16.0164L16.3023 18.3864C15.0823 19.1464 13.6323 19.5964 12.1123 19.5964C11.7923 19.5964 11.5423 19.3564 11.5423 19.0464V13.6364L12.6923 14.7864ZM4.9323 14.7964C4.7723 14.3764 4.9423 14.0864 5.4123 14.0864C7.7223 14.0864 9.5723 15.0964 10.7423 16.5864V19.0464C10.7423 19.1864 10.7823 19.3364 10.8323 19.4564C8.1123 19.0464 5.7623 17.2264 4.9323 14.7964ZM19.2823 14.7964C19.0923 15.3764 18.8123 15.9064 18.4723 16.3564L16.5423 14.4364C17.2423 14.2064 17.9923 14.0864 18.7923 14.0864C19.2623 14.0864 19.4423 14.3864 19.2823 14.7964Z" />
        </svg>
    