
        <svg xmlns="http://www.w3.org/2000/svg" viewBox="0 0 100 100">
            <path d="M4.1417 23.1172H25.1517C27.8217 23.1172 29.2817 21.6672 29.2817 19.0072V6.6672C29.2817 4.0172 27.8217 2.5572 25.1517 2.5572H22.1817C21.2817 2.5572 20.9517 2.4372 20.3217 1.8272L19.4017 0.9172C18.7617 0.2772 18.1217 -0.0028 16.9417 -0.0028H12.3017C11.1317 -0.0028 10.4917 0.2772 9.8417 0.9172L8.9317 1.8272C8.3017 2.4272 7.9717 2.5572 7.0617 2.5572H4.1417C1.4617 2.5572 0.0017 4.0172 0.0017 6.6672V19.0072C0.0017 21.6672 1.4617 23.1172 4.1417 23.1172ZM4.4617 20.0972C3.5317 20.0972 3.0217 19.6372 3.0217 18.6472V7.0472C3.0217 6.0472 3.5317 5.5772 4.4617 5.5772H8.0717C9.1317 5.5772 9.6317 5.4172 10.2317 4.7772L11.0817 3.8772C11.7217 3.1972 12.0917 3.0272 13.1017 3.0272H16.1517C17.1517 3.0272 17.5317 3.2072 18.1417 3.8572L19.0217 4.7772C19.6217 5.4072 20.1217 5.5772 21.1717 5.5772H24.8217C25.7617 5.5772 26.2617 6.0472 26.2617 7.0472V18.6472C26.2617 19.6372 25.7617 20.0972 24.8217 20.0972ZM14.6517 18.7772C18.0917 18.7772 20.8617 16.0072 20.8617 12.5372C20.8617 9.0772 18.0917 6.3172 14.6517 6.3172C11.2017 6.3172 8.4417 9.0772 8.4417 12.5372C8.4417 16.0072 11.2017 18.7772 14.6517 18.7772ZM21.2817 8.5172C21.2817 9.3372 21.9517 9.9772 22.7617 9.9772C23.5417 9.9772 24.2117 9.3272 24.2117 8.5172C24.2117 7.7372 23.5417 7.0672 22.7617 7.0672C21.9517 7.0672 21.2817 7.7372 21.2817 8.5172ZM14.6517 16.1272C12.6817 16.1272 11.0717 14.5172 11.0717 12.5372C11.0717 10.5572 12.6717 8.9672 14.6517 8.9672C16.6317 8.9672 18.2117 10.5572 18.2117 12.5372C18.2117 14.5172 16.6317 16.1272 14.6517 16.1272Z" />
        </svg>
    