
        <svg xmlns="http://www.w3.org/2000/svg" viewBox="0 0 100 100">
            <path d="M11.3523 22.7064C17.6023 22.7064 22.7123 17.6064 22.7123 11.3564C22.7123 5.1064 17.6023 -0.0036 11.3523 -0.0036C5.1123 -0.0036 0.0023 5.1064 0.0023 11.3564C0.0023 17.6064 5.1123 22.7064 11.3523 22.7064ZM7.2923 7.5564C7.2923 6.8564 7.4423 6.1764 7.7623 5.4864C7.8023 5.3164 8.0023 5.3064 8.1123 5.4564L9.7723 7.1264L11.1823 5.3064C11.2823 5.1564 11.4423 5.1564 11.5423 5.3064L12.9523 7.1264L14.6123 5.4564C14.7223 5.3064 14.9223 5.3164 14.9623 5.4864C15.2823 6.1764 15.4323 6.8564 15.4323 7.5564C15.4323 9.8564 13.8523 11.5264 11.6223 11.6464V17.8164C12.6923 15.2464 15.1323 13.6064 17.8823 13.6064C18.0723 13.6064 18.1523 13.7664 18.0823 13.9464C17.1723 16.7764 14.4123 18.7764 11.3623 18.7764C11.2123 18.7764 11.1023 18.6564 11.1023 18.5064V11.6464C8.8723 11.5264 7.2923 9.8564 7.2923 7.5564ZM4.6323 13.9464C4.5723 13.7664 4.6523 13.6064 4.8423 13.6064C7.3023 13.6064 9.5123 14.9064 10.7123 17.0164V18.5064C10.7123 18.5864 10.7323 18.6664 10.7623 18.7364C7.9523 18.4964 5.5123 16.5964 4.6323 13.9464Z" />
        </svg>
    