
        <svg xmlns="http://www.w3.org/2000/svg" viewBox="0 0 100 100">
            <path d="M26.4817 9.8048H27.0617V3.0148C27.0617 1.0748 26.0117 0.0048 24.0617 0.0048H13.9917V0.5748H24.0217C25.5817 0.5748 26.4817 1.4148 26.4817 3.0348ZM0.0017 9.8048H0.5717V3.0348C0.5717 1.4148 1.4217 0.5748 3.0317 0.5748H13.1017V0.0048H3.0117C1.0417 0.0048 0.0017 1.0448 0.0017 3.0148ZM13.5617 16.2648C16.8917 16.2648 19.5717 13.5848 19.5717 10.2548C19.5717 6.9248 16.8917 4.2348 13.5617 4.2348C10.2217 4.2348 7.5317 6.9248 7.5317 10.2548C7.5317 13.5848 10.2217 16.2648 13.5617 16.2648ZM13.5617 15.6948C10.5617 15.6948 8.1217 13.2448 8.1217 10.2548C8.1217 7.2548 10.5617 4.8148 13.5617 4.8148C16.5517 4.8148 18.9917 7.2548 18.9917 10.2548C18.9917 13.2448 16.5517 15.6948 13.5617 15.6948ZM13.5617 14.1348C15.7017 14.1348 17.4417 12.3948 17.4417 10.2548C17.4417 8.1048 15.7017 6.3648 13.5617 6.3648C11.4117 6.3648 9.6717 8.1048 9.6717 10.2548C9.6717 12.3948 11.4117 14.1348 13.5617 14.1348ZM3.0117 20.5048H13.1017V19.9348H3.0317C1.4217 19.9348 0.5717 19.0948 0.5717 17.4648V10.6948H0.0017V17.4948C0.0017 19.4648 1.0417 20.5048 3.0117 20.5048ZM13.9917 20.5048H24.0617C26.0117 20.5048 27.0617 19.4248 27.0617 17.4948V10.6948H26.4817V17.4648C26.4817 19.0948 25.5817 19.9348 24.0217 19.9348H13.9917Z" />
        </svg>
    