
        <svg xmlns="http://www.w3.org/2000/svg" viewBox="0 0 100 100">
            <path d="M0.7217 7.1723C1.1917 7.1723 1.4517 6.9023 1.4517 6.4323V3.5023C1.4517 2.1423 2.1717 1.4523 3.4817 1.4523H6.4617C6.9417 1.4523 7.1917 1.1823 7.1917 0.7223C7.1917 0.2623 6.9417 0.0023 6.4617 0.0023H3.4617C1.1717 0.0023 0.0017 1.1623 0.0017 3.4223V6.4323C0.0017 6.9023 0.2617 7.1723 0.7217 7.1723ZM21.7017 7.1723C22.1717 7.1723 22.4317 6.9023 22.4317 6.4323V3.4223C22.4317 1.1723 21.2617 0.0023 18.9717 0.0023H15.9617C15.4917 0.0023 15.2217 0.2623 15.2217 0.7223C15.2217 1.1823 15.4917 1.4523 15.9617 1.4523H18.9417C20.2417 1.4523 20.9717 2.1423 20.9717 3.5023V6.4323C20.9717 6.9023 21.2317 7.1723 21.7017 7.1723ZM5.8817 16.4923H16.5617C17.7117 16.4923 18.3117 15.9023 18.3117 14.7423V8.4723C18.3117 7.3123 17.7117 6.7123 16.5617 6.7123H14.9217C14.4517 6.7123 14.3117 6.6523 14.0117 6.3323L13.5117 5.7723C13.1917 5.4423 12.9417 5.2923 12.3417 5.2923H9.9917C9.4217 5.2923 9.1317 5.4423 8.8217 5.7723L8.3217 6.3323C8.0417 6.6423 7.9017 6.7123 7.4217 6.7123H5.8817C4.7117 6.7123 4.1117 7.3123 4.1117 8.4723V14.7423C4.1117 15.9023 4.7117 16.4923 5.8817 16.4923ZM11.2217 15.0623C9.2817 15.0623 7.7117 13.5123 7.7117 11.5423C7.7117 9.5823 9.2817 8.0223 11.2217 8.0223C13.1717 8.0223 14.7317 9.5823 14.7317 11.5423C14.7317 13.5323 13.1717 15.0623 11.2217 15.0623ZM15.9117 9.8523C15.5117 9.8523 15.1917 9.5423 15.1917 9.1323C15.1917 8.7323 15.5117 8.4023 15.9117 8.4023C16.3117 8.4023 16.6217 8.7323 16.6317 9.1323C16.6317 9.5423 16.3117 9.8523 15.9117 9.8523ZM11.2117 14.2223C12.6917 14.2223 13.9017 13.0323 13.9017 11.5423C13.9017 10.0523 12.6917 8.8623 11.2117 8.8623C9.7417 8.8623 8.5417 10.0523 8.5417 11.5423C8.5417 13.0323 9.7417 14.2223 11.2117 14.2223ZM3.4617 22.4323H6.4617C6.9417 22.4323 7.1917 22.1623 7.1917 21.7023C7.1917 21.2323 6.9417 20.9723 6.4617 20.9723H3.4817C2.1717 20.9723 1.4517 20.2723 1.4517 18.9223V15.9923C1.4517 15.5223 1.1917 15.2623 0.7217 15.2623C0.2417 15.2623 0.0017 15.5223 0.0017 15.9923V18.9923C0.0017 21.2723 1.1717 22.4323 3.4617 22.4323ZM15.9617 22.4323H18.9717C21.2617 22.4323 22.4317 21.2623 22.4317 18.9923V15.9923C22.4317 15.5223 22.1617 15.2623 21.7017 15.2623C21.2217 15.2623 20.9717 15.5223 20.9717 15.9923V18.9223C20.9717 20.2723 20.2417 20.9723 18.9417 20.9723H15.9617C15.4917 20.9723 15.2217 21.2323 15.2217 21.7023C15.2217 22.1623 15.4917 22.4323 15.9617 22.4323Z" />
        </svg>
    