
        <svg xmlns="http://www.w3.org/2000/svg" viewBox="0 0 100 100">
            <path d="M25.4617 10.0828H27.7617V3.7928C27.7617 1.3028 26.4517 0.0028 23.9217 0.0028H14.7417V2.2828H23.7817C24.8517 2.2828 25.4617 2.8628 25.4617 3.9928ZM0.0017 10.0828H2.3017V3.9928C2.3017 2.8628 2.8917 2.2828 3.9817 2.2828H13.0317V0.0028H3.8417C1.3117 0.0028 0.0017 1.2928 0.0017 3.7928ZM18.6117 10.0828H20.3117C19.9017 6.9328 17.1417 4.4628 13.9017 4.4628C10.6217 4.4628 7.8617 6.9328 7.4517 10.0828H9.1517C9.5617 7.8628 11.5417 6.1428 13.9017 6.1428C16.2317 6.1428 18.2117 7.8628 18.6117 10.0828ZM3.8417 21.8628H13.0317V19.5728H3.9817C2.8917 19.5728 2.3017 19.0028 2.3017 17.8728V11.7928H0.0017V18.0728C0.0017 20.5628 1.3117 21.8628 3.8417 21.8628ZM14.7417 21.8628H23.9217C26.4517 21.8628 27.7617 20.5628 27.7617 18.0728V11.7928H25.4617V17.8728C25.4617 19.0028 24.8517 19.5728 23.7817 19.5728H14.7417ZM20.3117 11.7928H18.6017C18.1917 14.0228 16.2317 15.7428 13.9017 15.7428C11.5417 15.7428 9.5717 14.0428 9.1617 11.7928H7.4517C7.8917 14.9628 10.6217 17.4128 13.9017 17.4128C17.1417 17.4128 19.8617 14.9528 20.3117 11.7928Z" />
        </svg>
    