
        <svg xmlns="http://www.w3.org/2000/svg" viewBox="0 0 100 100">
            <path d="M0.0017 14.4103C0.0017 16.4903 1.0917 17.5703 3.1617 17.5703H4.1717C3.7017 16.3503 3.4617 14.9903 3.4617 13.4803C3.4617 7.4203 7.4417 3.4903 13.4217 3.4903H19.8317C20.9317 3.4903 21.9717 3.6303 22.9417 3.8803V3.1503C22.9417 1.0803 21.8517 0.0003 19.7817 0.0003H3.1617C1.0917 0.0003 0.0017 1.0803 0.0017 3.1503ZM13.4217 22.3903H19.8317C25.2317 22.3903 28.7417 18.9503 28.7417 13.4803C28.7417 7.9903 25.2317 4.5503 19.8317 4.5503H13.4217C8.0117 4.5503 4.5017 7.9903 4.5017 13.4803C4.5017 18.9503 8.0117 22.3903 13.4217 22.3903Z" />
        </svg>
    