
        <svg xmlns="http://www.w3.org/2000/svg" viewBox="0 0 100 100">
            <path d="M3.1617 17.5703H5.3017C6.6217 20.6103 9.5317 22.3903 13.4217 22.3903H19.8317C25.2317 22.3903 28.7417 18.9503 28.7417 13.4803C28.7417 9.1303 26.5417 6.0703 22.9417 4.9803V3.1503C22.9417 1.0803 21.8517 0.0003 19.7817 0.0003H3.1617C1.0917 0.0003 0.0017 1.0803 0.0017 3.1503V14.4103C0.0017 16.4903 1.0917 17.5703 3.1617 17.5703ZM3.1917 16.7003C1.7217 16.7003 0.8717 15.9003 0.8717 14.3703V3.2003C0.8717 1.6603 1.6617 0.8703 3.1917 0.8703H19.7417C21.2217 0.8703 22.0617 1.6603 22.0617 3.2003V4.7603C21.3617 4.6203 20.6117 4.5503 19.8317 4.5503H13.4217C8.0117 4.5503 4.5017 7.9903 4.5017 13.4803C4.5017 14.6503 4.6617 15.7303 4.9717 16.7003ZM13.4217 21.5203C8.4417 21.5203 5.3817 18.5203 5.3817 13.4803C5.3817 8.4403 8.4417 5.4103 13.4217 5.4103H19.8317C24.8017 5.4103 27.8717 8.4403 27.8717 13.4803C27.8717 18.5203 24.8017 21.5203 19.8317 21.5203Z" />
        </svg>
    