
        <svg xmlns="http://www.w3.org/2000/svg" viewBox="0 0 100 100">
            <path d="M0.0017 9.5611C0.0017 13.2611 1.6417 16.1511 4.3917 17.7411C4.2317 16.9611 4.1517 16.1111 4.1517 15.2411C4.1517 8.5311 8.8917 3.9711 15.7617 3.9711H21.4617C22.3717 3.9711 23.2517 4.0711 24.0817 4.2211C22.4217 1.5711 19.4217 0.0011 15.6117 0.0011H9.9117C3.9617 0.0011 0.0017 3.8111 0.0017 9.5611ZM5.8517 15.2411C5.8517 21.0111 9.8117 24.8011 15.7617 24.8011H21.4617C27.4017 24.8011 31.3717 21.0111 31.3717 15.2411C31.3717 9.4911 27.4017 5.6811 21.4617 5.6811H15.7617C9.8117 5.6811 5.8517 9.4911 5.8517 15.2411Z" />
        </svg>
    