
        <svg xmlns="http://www.w3.org/2000/svg" viewBox="0 0 100 100">
            <path d="M8.3594 16.7031H16.0294C17.4494 16.7031 18.2594 15.8431 18.2594 14.4931V12.1331H22.9594C23.7794 12.1331 24.3994 11.6331 24.3994 10.8831C24.3994 10.4331 24.1594 10.0531 23.7294 9.6631L13.5594 0.7031C13.0194 0.2331 12.6594 0.0031 12.1994 0.0031C11.7394 0.0031 11.3794 0.2331 10.8394 0.7031L0.6694 9.6831C0.2094 10.0731 -0.0006 10.4331 -0.0006 10.8831C-0.0006 11.6331 0.6194 12.1331 1.4394 12.1331H6.1394V14.4931C6.1394 15.8431 6.9494 16.7031 8.3594 16.7031ZM8.4894 15.3231C7.9894 15.3231 7.6394 14.9931 7.6394 14.4931V11.1131C7.6394 10.8531 7.5394 10.7431 7.2794 10.7431H2.0894C1.9594 10.7431 1.8994 10.6831 1.8994 10.6131C1.8994 10.5431 1.9194 10.4931 1.9894 10.4131L11.7994 1.8531C11.9794 1.6831 12.0694 1.6331 12.1994 1.6331C12.3294 1.6331 12.4194 1.6831 12.5994 1.8531L22.3994 10.4131C22.4794 10.4931 22.4994 10.5431 22.4994 10.6131C22.4994 10.6831 22.4394 10.7431 22.3094 10.7431H17.1194C16.8494 10.7431 16.7594 10.8531 16.7594 11.1131V14.4931C16.7594 14.9931 16.4094 15.3231 15.9094 15.3231ZM7.9294 23.6931H16.3794C17.5694 23.6931 18.2594 23.0431 18.2594 21.8431V20.3231C18.2594 19.1231 17.5694 18.4131 16.3794 18.4131H7.9294C6.7494 18.4131 6.0594 19.1331 6.0594 20.3231V21.8431C6.0594 23.0231 6.7494 23.6931 7.9294 23.6931ZM8.1094 22.3931C7.6894 22.3931 7.4294 22.1731 7.4294 21.7431V20.4231C7.4294 19.9931 7.6894 19.7131 8.1094 19.7131H16.2094C16.6394 19.7131 16.8894 19.9931 16.8894 20.4231V21.7431C16.8894 22.1731 16.6394 22.3931 16.2094 22.3931Z" />
        </svg>
    