
        <svg xmlns="http://www.w3.org/2000/svg" viewBox="0 0 100 100">
            <path d="M0.0017 8.8517C0.0017 12.7717 1.7717 15.6117 4.7117 16.9117C4.3717 15.8317 4.1817 14.6217 4.1817 13.3117C4.1817 7.3717 8.0017 3.5817 13.7917 3.5817H20.5117C21.3417 3.5817 22.1517 3.6717 22.9017 3.8217C21.4417 1.3817 18.8217 0.0017 15.4317 0.0017H8.7217C3.4217 0.0017 0.0017 3.3817 0.0017 8.8517ZM5.0717 13.3117C5.0717 18.7717 8.4817 22.1517 13.7917 22.1517H20.5117C25.8017 22.1517 29.2217 18.7717 29.2217 13.3117C29.2217 7.8517 25.8017 4.4617 20.5117 4.4617H13.7917C8.4817 4.4617 5.0717 7.8517 5.0717 13.3117Z" />
        </svg>
    