
        <svg xmlns="http://www.w3.org/2000/svg" viewBox="0 0 100 100">
            <path d="M6.0917 22.9605C6.3617 22.9605 6.5717 22.8005 6.8517 22.5605L11.0717 18.9405H20.4617C23.2217 18.9405 24.9217 17.2005 24.9217 14.4705V4.4605C24.9217 1.7305 23.2217 0.0005 20.4617 0.0005H4.4617C1.7017 0.0005 0.0017 1.7105 0.0017 4.4605V14.4705C0.0017 17.2305 1.7017 18.9405 4.4617 18.9405H5.4617V22.2505C5.4617 22.6905 5.7217 22.9605 6.0917 22.9605ZM6.2817 21.9805V18.4905C6.2817 18.1905 6.1617 18.0705 5.8617 18.0705H4.4917C2.2417 18.0705 0.8717 16.6805 0.8717 14.4505V4.4905C0.8717 2.2605 2.2417 0.8705 4.4917 0.8705H20.4417C22.6417 0.8705 24.0517 2.2605 24.0517 4.4905V14.4505C24.0517 16.6805 22.6417 18.0705 20.4417 18.0705H11.1717C10.7917 18.0705 10.6017 18.1305 10.3017 18.4205ZM4.1617 10.8005H9.6317C9.8417 10.8005 10.0117 10.6405 10.0117 10.4305C10.0117 10.2205 9.8417 10.0405 9.6317 10.0405H4.1617C3.9617 10.0405 3.7817 10.2205 3.7817 10.4305C3.7817 10.6405 3.9617 10.8005 4.1617 10.8005ZM12.3917 10.8005H20.7817C20.9717 10.8005 21.1517 10.6405 21.1517 10.4305C21.1517 10.2205 20.9717 10.0405 20.7817 10.0405H12.3917C12.1717 10.0405 12.0117 10.2205 12.0117 10.4305C12.0117 10.6405 12.1717 10.8005 12.3917 10.8005ZM4.1617 13.4605H6.2817C6.4917 13.4605 6.6717 13.2905 6.6717 13.0805C6.6717 12.8705 6.4917 12.7005 6.2817 12.7005H4.1617C3.9617 12.7005 3.7817 12.8705 3.7817 13.0805C3.7817 13.2905 3.9617 13.4605 4.1617 13.4605ZM9.0317 13.4605H15.3617C15.5717 13.4605 15.7417 13.2905 15.7417 13.0805C15.7417 12.8705 15.5717 12.7005 15.3617 12.7005H9.0317C8.8217 12.7005 8.6617 12.8705 8.6617 13.0805C8.6617 13.2905 8.8217 13.4605 9.0317 13.4605ZM18.1217 13.4605H20.7817C20.9717 13.4605 21.1517 13.2905 21.1517 13.0805C21.1517 12.8705 20.9717 12.7005 20.7817 12.7005H18.1217C17.9017 12.7005 17.7417 12.8705 17.7417 13.0805C17.7417 13.2905 17.9017 13.4605 18.1217 13.4605Z" />
        </svg>
    