
        <svg xmlns="http://www.w3.org/2000/svg" viewBox="0 0 100 100">
            <path d="M8.6417 26.0845C9.5517 26.0845 10.3117 25.7245 11.4417 24.7545L15.3517 21.3545H21.6817C25.3117 21.3545 27.6217 19.0145 27.6217 15.3945V5.9545C27.6217 2.3345 25.3117 0.0045 21.6817 0.0045H5.9417C2.3117 0.0045 0.0017 2.3245 0.0017 5.9545V15.3945C0.0017 19.0345 2.5217 21.3545 5.6217 21.3545H6.4817V23.7145C6.4817 25.1945 7.3017 26.0845 8.6417 26.0845ZM9.5017 22.0945V18.9145C9.5017 18.0445 9.0517 17.7145 8.3017 17.7145H6.2217C4.5017 17.7145 3.6217 16.8645 3.6217 15.1245V6.2245C3.6217 4.4845 4.5017 3.6345 6.2217 3.6345H21.4017C23.1217 3.6345 24.0017 4.4845 24.0017 6.2245V15.1245C24.0017 16.8645 23.1217 17.7145 21.4017 17.7145H15.0517C14.1517 17.7145 13.7817 17.9045 13.1117 18.5545ZM6.8717 12.1445H10.3917C10.9617 12.1445 11.3917 11.6645 11.3917 11.1245C11.3917 10.5845 10.9617 10.1145 10.3917 10.1145H6.8717C6.3417 10.1145 5.9017 10.5945 5.9017 11.1245C5.9017 11.6645 6.3417 12.1445 6.8717 12.1445ZM12.9717 12.1445H20.7317C21.2917 12.1445 21.7217 11.6645 21.7217 11.1245C21.7217 10.5845 21.2917 10.1145 20.7317 10.1145H12.9717C12.4317 10.1145 12.0117 10.5945 12.0117 11.1245C12.0117 11.6645 12.4417 12.1445 12.9717 12.1445ZM6.8717 15.2845H8.5317C9.0817 15.2845 9.5317 14.8045 9.5317 14.2745C9.5317 13.7145 9.0817 13.2545 8.5317 13.2545H6.8717C6.3417 13.2545 5.9017 13.7245 5.9017 14.2745C5.9017 14.8045 6.3417 15.2845 6.8717 15.2845ZM11.1017 15.2845H15.9417C16.4717 15.2845 16.9217 14.8045 16.9217 14.2745C16.9217 13.7145 16.4717 13.2545 15.9417 13.2545H11.1017C10.5717 13.2545 10.1417 13.7245 10.1417 14.2745C10.1417 14.8045 10.5817 15.2845 11.1017 15.2845ZM18.5017 15.2845H20.7317C21.2817 15.2845 21.7217 14.8045 21.7217 14.2745C21.7217 13.7145 21.2817 13.2545 20.7317 13.2545H18.5017C17.9617 13.2545 17.5417 13.7245 17.5417 14.2745C17.5417 14.8045 17.9717 15.2845 18.5017 15.2845Z" />
        </svg>
    