
        <svg xmlns="http://www.w3.org/2000/svg" viewBox="0 0 100 100">
            <path d="M15.6442 22.98C20.1842 22.98 22.2842 21.76 22.2842 18.97V9.61H22.7742C23.4742 9.61 23.9442 9.08 23.9442 8.31V8.16C23.9442 7.38 23.4742 6.84 22.7742 6.84H22.2842V4.57C22.2842 1.61 19.9142 0 15.6442 0C11.3542 0 9.0042 1.59 9.0042 4.57V6.91H8.5142C7.8042 6.91 7.3242 7.45 7.3242 8.23V8.38C7.3242 9.15 7.8042 9.68 8.5142 9.68H9.0042V18.97C9.0042 21.76 11.0842 22.98 15.6442 22.98ZM15.6442 9.9C14.7542 9.9 13.5342 10.01 13.2442 10.01C12.5042 10.01 12.1642 9.68 12.1042 8.92L11.9442 7.21C11.8142 5.79 12.8542 5.26 15.6442 5.26C18.4142 5.26 19.4642 5.79 19.3342 7.21L19.1742 8.92C19.1142 9.68 18.7742 10.01 18.0342 10.01C17.7342 10.01 16.5342 9.9 15.6442 9.9ZM15.6442 19.34C12.7542 19.34 11.7642 18.84 11.9742 17.4L12.0942 16.58C12.2642 15.41 13.2242 15.06 15.6442 15.06C18.0542 15.06 19.0242 15.41 19.1742 16.58L19.3042 17.4C19.5042 18.84 18.5342 19.34 15.6442 19.34ZM6.2442 24.71C7.3542 25.82 8.7642 26.44 10.0842 26.59C10.9242 26.67 11.5842 26.09 11.5842 25.24C11.5842 24.56 11.1042 24.12 10.1442 23.95C9.4042 23.81 8.6942 23.48 8.0842 22.87C7.4742 22.25 7.1442 21.55 6.9942 20.79C6.8342 19.84 6.4242 19.38 5.7242 19.38C4.8642 19.38 4.2642 20.05 4.3742 20.93C4.5742 22.37 5.1942 23.66 6.2442 24.71ZM2.9942 27.95C4.7942 29.78 7.1042 30.82 9.5642 30.95C10.4542 30.98 11.0442 30.39 11.0442 29.55C11.0342 28.86 10.4742 28.36 9.5442 28.28C7.8042 28.13 6.1742 27.43 4.8442 26.11C3.5142 24.79 2.7842 23.16 2.6842 21.41C2.6042 20.44 2.1142 19.93 1.3842 19.93C0.5742 19.93 -0.0458 20.48 0.0042 21.4C0.1742 23.86 1.1842 26.16 2.9942 27.95Z" />
        </svg>
    