
        <svg xmlns="http://www.w3.org/2000/svg" viewBox="0 0 100 100">
            <path d="M11.3417 1.9083C13.8617 1.9083 16.1617 2.7883 17.9017 4.3583C18.3917 4.7883 18.9417 4.8983 19.3617 4.5383C19.7917 4.1483 19.7917 3.5083 19.3017 3.0483C17.1917 1.0983 14.3817 -0.0017 11.3417 -0.0017C8.3117 -0.0017 5.4917 1.0983 3.3917 3.0483C2.8917 3.5083 2.8917 4.1483 3.3317 4.5383C3.7517 4.8983 4.3017 4.7883 4.7817 4.3583C6.5317 2.7883 8.8217 1.9083 11.3417 1.9083ZM11.3417 6.6083C12.5617 6.6083 13.7017 6.9583 14.5617 7.6683C15.0717 8.0283 15.6017 8.1883 16.0217 7.8183C16.4617 7.4283 16.4717 6.7283 15.9417 6.3083C14.6717 5.2883 13.0617 4.6983 11.3417 4.6983C9.6217 4.6983 8.0117 5.2883 6.7517 6.3083C6.2117 6.7283 6.2217 7.4283 6.6717 7.8183C7.0917 8.1883 7.6017 8.0283 8.1217 7.6683C9.0217 6.9883 10.1217 6.6083 11.3417 6.6083ZM0.0017 26.7183C0.0017 27.4683 0.6017 28.0783 1.3717 28.0783H2.4917C3.2617 28.0783 3.8517 27.4683 3.8517 26.7183V25.4483H18.8317V26.7183C18.8317 27.4683 19.4317 28.0783 20.1917 28.0783H21.3317C22.0917 28.0783 22.6917 27.4683 22.6917 26.7183V20.4383C22.6917 18.8183 22.4717 17.8283 21.4617 16.7183L20.5317 15.6983L19.5217 12.8783C18.9617 11.2783 17.8717 10.5783 16.5217 10.4283C15.8917 10.3483 13.7917 10.2983 11.3417 10.2983C8.8917 10.2983 6.8017 10.3483 6.1617 10.4283C4.8117 10.5783 3.7217 11.2783 3.1617 12.8783L2.1517 15.6983L1.2317 16.7183C0.2117 17.8283 0.0017 18.8183 0.0017 20.4383ZM4.8717 15.6983C4.4917 15.6983 4.3817 15.4683 4.5117 15.0983L5.1117 13.3383C5.3317 12.7183 5.5917 12.5483 6.1417 12.4683C6.8117 12.3783 8.6417 12.2883 11.3417 12.2883C14.0517 12.2883 15.8817 12.3783 16.5317 12.4683C17.0817 12.5483 17.3517 12.7183 17.5817 13.3383L18.1717 15.0983C18.3017 15.4683 18.1917 15.6983 17.8017 15.6983ZM3.5517 21.6283C3.0117 21.6283 2.6517 21.2683 2.6517 20.7383V19.2583C2.6517 18.7283 3.0117 18.3783 3.5517 18.3783C4.0917 18.3783 4.4417 18.7183 4.4417 19.2583V20.7383C4.4417 21.2783 4.0917 21.6283 3.5517 21.6283ZM19.2317 21.6283C18.7017 21.6283 18.3417 21.2683 18.3417 20.7383V19.2583C18.3417 18.7283 18.7017 18.3783 19.2317 18.3783C19.7717 18.3783 20.1317 18.7183 20.1317 19.2583V20.7383C20.1317 21.2783 19.7717 21.6283 19.2317 21.6283ZM9.1717 21.1783C8.7617 21.1783 8.5317 20.9383 8.5317 20.4683V19.5083C8.5317 19.0683 8.7617 18.8283 9.1717 18.8283H13.4717C13.9017 18.8283 14.1317 19.0683 14.1317 19.5083V20.4683C14.1317 20.9383 13.9017 21.1783 13.4717 21.1783Z" />
        </svg>
    