
        <svg xmlns="http://www.w3.org/2000/svg" viewBox="0 0 100 100">
            <path d="M16.1717 7.9088C16.8017 7.9088 17.1717 7.5488 17.1917 6.8788L17.3717 1.1788C17.3917 0.5087 16.8617 -0.0012 16.1617 -0.0012C15.4317 -0.0012 14.9317 0.4887 14.9517 1.1687L15.1217 6.8788C15.1417 7.5488 15.5117 7.9088 16.1717 7.9088ZM0.0017 21.6788V23.6588H2.8117C3.4217 25.0288 4.7917 25.9787 6.4217 25.9787C8.0417 25.9787 9.4017 25.0288 10.0117 23.6588H10.9717C13.3817 23.6588 14.4917 22.4788 14.4917 19.9288V16.9888C14.4917 14.9388 13.4917 13.6688 11.4217 12.9888L9.7517 12.4288C7.5817 10.5488 4.6217 8.4288 0.7417 8.4288H0.0017V10.4188H0.7417C3.4117 10.4188 5.5417 11.4588 8.2417 13.8188C8.7517 14.2688 9.0517 14.3988 9.7017 14.5988L10.8317 14.9688C11.9717 15.3288 12.5317 15.9688 12.5317 17.0288V19.9288C12.5317 21.1288 12.0317 21.6788 10.9717 21.6788H10.3217C10.1517 19.6488 8.4917 18.1188 6.4217 18.1188C4.3317 18.1188 2.6717 19.6488 2.4917 21.6788ZM16.1717 11.7888C16.9217 11.7888 17.5317 11.2488 17.5317 10.4988C17.5317 9.7587 16.9217 9.2188 16.1717 9.2188C15.4117 9.2188 14.8017 9.7688 14.8017 10.4988C14.8017 11.2388 15.4217 11.7888 16.1717 11.7888ZM25.1417 25.9787C26.7617 25.9787 28.1217 25.0288 28.7317 23.6588H32.3317V21.6788H29.0517C28.8717 19.6488 27.2217 18.1188 25.1417 18.1188C23.0517 18.1188 21.4117 19.6488 21.2217 21.6788H20.5817C19.5217 21.6788 19.0317 21.1288 19.0317 19.9288V18.6588C19.0317 17.1188 20.1417 15.9988 22.1617 15.7488L26.4217 15.2388C27.0717 15.1488 27.5417 14.9988 27.9917 14.7088L31.7917 12.3288C31.9717 12.2088 32.1417 12.0887 32.3317 11.9988V9.6988C31.8617 9.9388 31.3917 10.1988 30.9017 10.5087L26.6117 13.2188L21.9117 13.7888C18.8917 14.1588 17.0517 16.0588 17.0517 18.6588V20.0088C17.0517 22.4888 18.1917 23.6588 20.5817 23.6588H21.5517C22.1517 25.0288 23.5117 25.9787 25.1417 25.9787ZM25.1417 24.0988C23.9917 24.0988 23.0717 23.1888 23.0717 22.0388C23.0717 20.8988 23.9917 19.9888 25.1417 19.9888C26.2817 19.9888 27.2017 20.8988 27.2017 22.0388C27.2017 23.1888 26.2817 24.0988 25.1417 24.0988ZM6.4217 24.0988C5.2617 24.0988 4.3517 23.1888 4.3517 22.0388C4.3517 20.8988 5.2617 19.9888 6.4217 19.9888C7.5617 19.9888 8.4717 20.8988 8.4717 22.0388C8.4717 23.1888 7.5617 24.0988 6.4217 24.0988Z" />
        </svg>
    