
        <svg xmlns="http://www.w3.org/2000/svg" viewBox="0 0 100 100">
            <path d="M10.6517 30.7242C16.6717 30.7242 19.2817 29.3342 19.2817 26.0042V12.1742H20.1217C20.8117 12.1742 21.3017 11.6642 21.3017 10.9542V10.4642C21.3017 9.7742 20.8117 9.2542 20.1217 9.2542H19.2817V5.6242C19.2817 2.0542 16.1417 0.0042 10.6517 0.0042C5.1817 0.0042 2.0417 2.0542 2.0417 5.6242V9.2342H1.1917C0.5017 9.2342 0.0017 9.7542 0.0017 10.4442V10.9342C0.0017 11.6342 0.5017 12.1542 1.1917 12.1542H2.0417V26.0042C2.0417 29.3342 4.6417 30.7242 10.6517 30.7242ZM27.7417 9.3542V4.0742C27.7417 3.3842 27.1417 3.0542 26.5417 3.4342L22.3017 6.0142C21.7217 6.3642 21.7117 7.0742 22.3017 7.4342L26.5317 9.9942C27.1417 10.3642 27.7417 10.0642 27.7417 9.3542ZM10.6517 12.7842C9.4917 12.7842 7.7417 12.8742 7.1817 12.8742C6.2717 12.8742 5.8817 12.5242 5.8017 11.5742L5.6017 9.2842C5.4417 7.5342 6.7017 6.8242 10.6517 6.8242C14.6117 6.8242 15.8817 7.5342 15.7117 9.2842L15.5117 11.5742C15.4317 12.5242 15.0317 12.8742 14.1217 12.8742C13.5617 12.8742 11.7617 12.7842 10.6517 12.7842ZM10.6517 25.7242C6.6317 25.7242 5.3817 25.1142 5.6517 23.3242L5.8017 22.2042C6.0017 20.7642 7.2217 20.2642 10.6517 20.2642C14.1017 20.2642 15.3117 20.7642 15.5117 22.2042L15.6717 23.3242C15.9217 25.1142 14.6817 25.7242 10.6517 25.7242Z" />
        </svg>
    