
        <svg xmlns="http://www.w3.org/2000/svg" viewBox="0 0 100 100">
            <path d="M8.3917 22.9555C12.9517 22.9555 15.0617 21.6555 15.0617 18.8155V9.8155H15.5517C16.2917 9.8155 16.7717 9.2555 16.7717 8.4255V8.3655C16.7717 7.5155 16.2917 6.9455 15.5517 6.9455H15.0617V4.6655C15.0617 1.5955 12.7417 -0.0045 8.3917 -0.0045C4.0517 -0.0045 1.7117 1.6055 1.7117 4.6655V6.8555H1.2217C0.4817 6.8555 0.0017 7.4155 0.0017 8.2655V8.3355C0.0017 9.1655 0.4817 9.7255 1.2217 9.7255H1.7117V18.8155C1.7117 21.6555 3.8417 22.9555 8.3917 22.9555ZM8.3917 9.9855C7.4717 9.9855 6.3117 10.0855 6.0717 10.0855C5.3317 10.0855 4.9917 9.7655 4.9217 8.9955L4.7617 7.2755C4.6317 5.8455 5.7217 5.3355 8.3917 5.3355C11.0617 5.3355 12.1417 5.8455 12.0117 7.2755L11.8517 8.9955C11.7917 9.7655 11.4517 10.0855 10.7017 10.0855C10.4517 10.0855 9.2917 9.9855 8.3917 9.9855ZM8.3917 19.3255C5.5617 19.3255 4.5917 18.8355 4.7917 17.3755L4.9117 16.5655C5.0617 15.3955 6.0617 15.0355 8.3917 15.0355C10.7117 15.0355 11.7117 15.3955 11.8617 16.5655L11.9917 17.3755C12.1917 18.8355 11.2017 19.3255 8.3917 19.3255ZM17.8917 24.7655C18.9617 23.7055 19.5917 22.4055 19.7917 20.9655C19.9117 20.0055 19.2517 19.2655 18.3017 19.2655C17.5417 19.2655 17.1017 19.7655 16.9117 20.8155C16.7717 21.5055 16.4517 22.1455 15.8717 22.7355C15.2917 23.3155 14.6417 23.6255 13.9617 23.7755C12.9217 23.9655 12.4017 24.4255 12.4017 25.1755C12.4017 26.1255 13.1417 26.7755 14.0717 26.6555C15.4817 26.4755 16.8117 25.8555 17.8917 24.7655ZM21.2617 28.1155C23.0717 26.3155 24.0817 24.0155 24.2717 21.5555C24.3117 20.5555 23.6417 19.9355 22.7317 19.9355C21.9617 19.9355 21.4117 20.5155 21.3117 21.5655C21.2217 23.2355 20.4917 24.7955 19.2217 26.0855C17.9217 27.3655 16.3717 28.0155 14.6917 28.1855C13.6717 28.2855 13.0617 28.8355 13.0617 29.5855C13.0617 30.5055 13.7017 31.1755 14.6717 31.1255C17.1417 30.9655 19.4517 29.9455 21.2617 28.1155Z" />
        </svg>
    