
        <svg xmlns="http://www.w3.org/2000/svg" viewBox="0 0 100 100">
            <path d="M13.9622 22.2919C17.8722 22.2919 19.9722 21.2619 19.9722 18.9819V8.2119H20.4422C20.8922 8.2119 21.1722 7.9619 21.1722 7.5819V7.0619C21.1722 6.6919 20.8922 6.4219 20.4422 6.4219H19.9722V3.7619C19.9722 1.3719 17.7822 0.0019 13.9622 0.0019C10.1222 0.0019 7.9222 1.3719 7.9222 3.7619V6.4219H7.4422C6.9922 6.4219 6.6922 6.6919 6.6922 7.0619V7.5819C6.6922 7.9619 6.9922 8.2119 7.4422 8.2119H7.9222V18.9819C7.9222 21.2619 10.0322 22.2919 13.9622 22.2919ZM13.9422 9.3519C13.1622 9.3519 11.5522 9.4319 11.1022 9.4319C10.3722 9.4319 10.0322 9.1419 9.9622 8.3519L9.8322 6.8919C9.7222 5.5619 10.3622 4.9319 13.9422 4.9319C17.5322 4.9319 18.1622 5.5619 18.0522 6.8919L17.9322 8.3519C17.8522 9.1419 17.5122 9.4319 16.7922 9.4319C16.3222 9.4319 14.9322 9.3519 13.9422 9.3519ZM13.9422 19.3519C10.7422 19.3519 9.7822 18.8919 9.9222 17.5319L10.0122 16.7219C10.1422 15.6219 11.0422 15.2419 13.9422 15.2419C16.8522 15.2419 17.7522 15.6219 17.8722 16.7219L17.9622 17.5319C18.1022 18.8919 17.1322 19.3519 13.9422 19.3519ZM2.6922 26.2219C4.4222 27.9519 6.6922 28.9219 9.1522 28.9219C9.4622 28.9219 9.6322 28.7219 9.6322 28.4719C9.6122 28.2619 9.4422 28.0819 9.1222 28.0619C6.9422 28.0419 4.9022 27.2119 3.3022 25.6219C1.7122 24.0319 0.8822 21.9819 0.8522 19.8019C0.8422 19.4519 0.6522 19.3119 0.4322 19.3119C0.2022 19.3019 -0.0078 19.4619 0.0022 19.7619C0.0322 22.2219 0.9722 24.5119 2.6922 26.2219ZM5.4722 23.4519C6.4922 24.4719 7.8522 25.0319 9.1422 25.0319C9.4322 25.0319 9.6222 24.8419 9.6122 24.6219C9.6122 24.3319 9.4222 24.1919 9.0722 24.1719C8.0122 24.1719 6.9722 23.7419 6.0722 22.8519C5.1822 21.9519 4.7622 20.9219 4.7422 19.8519C4.7222 19.5119 4.6222 19.3219 4.3122 19.3219C4.0822 19.3119 3.8722 19.5019 3.8922 19.8119C3.9222 21.1919 4.4922 22.4619 5.4722 23.4519Z" />
        </svg>
    