
        <svg xmlns="http://www.w3.org/2000/svg" viewBox="0 0 100 100">
            <path d="M2.5636 3.664L4.3736 0.524C4.5536 0.234 4.3636 -0.016 4.0236 0.004L0.8736 0.154C0.5036 0.164 0.3336 0.484 0.4936 0.804L1.9336 3.624C2.0836 3.914 2.4036 3.954 2.5636 3.664ZM6.0736 7.344L6.6436 7.684C6.7236 7.444 6.8336 7.194 6.9736 6.954C7.9436 5.264 10.0636 4.684 11.7536 5.674C13.4536 6.644 14.0136 8.764 13.0436 10.454C12.9036 10.704 12.7436 10.914 12.5736 11.114L23.0536 17.154C23.1436 16.924 23.2436 16.664 23.3836 16.434C24.3636 14.734 26.4736 14.164 28.1736 15.144C29.8736 16.124 30.4336 18.234 29.4536 19.934C29.3136 20.184 29.1436 20.394 28.9836 20.574L29.5536 20.914C30.9736 21.724 32.0836 21.394 32.9436 19.934L34.2536 17.644C35.0136 16.344 34.8336 15.354 33.7036 14.054L32.6436 12.804C31.4536 9.924 30.4736 7.614 27.4636 5.884L26.4936 5.324C23.4636 3.574 21.7636 3.024 19.2436 3.114L14.7136 3.294L10.6236 1.554C8.6236 0.714 6.8236 1.164 5.9236 2.744L5.2236 3.924C4.3836 5.404 4.6536 6.544 6.0736 7.344ZM8.6136 11.124C9.9636 11.894 11.6436 11.454 12.4236 10.104C13.1936 8.744 12.7536 7.074 11.4036 6.294C10.0436 5.504 8.3836 5.964 7.5936 7.314C6.8136 8.664 7.2536 10.334 8.6136 11.124ZM0.0536 9.014C-0.0464 9.164 0.0036 9.324 0.1436 9.424L28.5536 25.864C28.6736 25.934 28.8336 25.914 28.9136 25.784C29.0036 25.604 28.9436 25.444 28.8136 25.364L0.4236 8.914C0.2936 8.844 0.1236 8.884 0.0536 9.014ZM25.0236 20.594C26.3836 21.374 28.0436 20.934 28.8336 19.574C29.6136 18.224 29.1736 16.544 27.8136 15.774C26.4636 14.984 24.7836 15.434 24.0036 16.794C23.2236 18.144 23.6736 19.814 25.0236 20.594Z" />
        </svg>
    