
        <svg xmlns="http://www.w3.org/2000/svg" viewBox="0 0 100 100">
            <path d="M14.7772 21.0891C18.0172 19.2091 19.3572 17.2491 18.2672 15.3591L12.7972 5.8791L13.1972 5.6491C13.5572 5.4391 13.6472 5.1491 13.4972 4.8591L13.2272 4.4191C13.0672 4.1391 12.7472 4.0591 12.3972 4.2691L11.9872 4.4991L10.6372 2.1591C9.4872 0.1491 6.9772 0.0791 3.7372 1.9491C3.0872 2.3191 2.5272 2.7091 2.0472 3.0891V0.1391C2.0472 0.0591 1.9872 -0.0009 1.9072 -0.0009H1.6172C1.5372 -0.0009 1.4772 0.0591 1.4772 0.1391V3.6091C-0.0128 5.0591 -0.4028 6.6091 0.4272 8.0491L1.7772 10.3791L1.3672 10.6291C1.0172 10.8291 0.9072 11.1491 1.0772 11.4291L1.3472 11.8791C1.5072 12.1591 1.8172 12.2091 2.1772 11.9991L2.5772 11.7791L8.0472 21.2591C9.1372 23.1491 11.5272 22.9691 14.7772 21.0891ZM23.7672 6.2091C23.8472 6.2091 23.9072 6.1491 23.9072 6.0691V0.1591C23.9072 0.0691 23.8472 0.0191 23.7672 0.0191H23.4672C23.3872 0.0191 23.3272 0.0691 23.3272 0.1591V6.0691C23.3272 6.1491 23.3872 6.2091 23.4672 6.2091ZM8.3572 9.9991C7.6872 10.3991 6.2872 11.3091 5.8772 11.5291C5.2572 11.8991 4.7972 11.8391 4.3572 11.1691L3.5472 10.0091C2.7972 8.9291 2.9372 8.0791 6.1772 6.2091C9.4072 4.3491 10.2272 4.6491 10.7772 5.8391L11.3772 7.1291C11.7072 7.8391 11.5472 8.2591 10.9172 8.6291C10.5172 8.8591 9.2472 9.4891 8.3572 9.9991ZM23.7672 14.5691C23.8472 14.5691 23.9072 14.5091 23.9072 14.4291V8.5191C23.9072 8.4291 23.8472 8.3791 23.7672 8.3791H23.4672C23.3872 8.3791 23.3272 8.4291 23.3272 8.5191V14.4291C23.3272 14.5091 23.3872 14.5691 23.4672 14.5691ZM13.4172 18.7491C10.6272 20.3591 9.5472 20.4491 8.9872 19.2191L8.6572 18.4891C8.2072 17.4891 8.8072 16.7091 11.3772 15.2191C13.9572 13.7391 14.9172 13.6191 15.5572 14.4991L16.0372 15.1591C16.8272 16.2491 16.1972 17.1291 13.4172 18.7491ZM1.9072 22.9091C1.9872 22.9091 2.0472 22.8491 2.0472 22.7691V16.8491C2.0472 16.7691 1.9872 16.7091 1.9072 16.7091H1.6172C1.5372 16.7091 1.4772 16.7691 1.4772 16.8491V22.7691C1.4772 22.8491 1.5372 22.9091 1.6172 22.9091ZM23.7672 22.9191C23.8472 22.9191 23.9072 22.8591 23.9072 22.7791V16.8791C23.9072 16.7791 23.8472 16.7391 23.7672 16.7391H23.4672C23.3872 16.7391 23.3272 16.7791 23.3272 16.8791V22.7791C23.3272 22.8591 23.3872 22.9191 23.4672 22.9191Z" />
        </svg>
    