
        <svg xmlns="http://www.w3.org/2000/svg" viewBox="0 0 100 100">
            <path d="M10.8117 1.5765C9.4117 1.5765 8.1817 1.0265 7.1917 0.1665C6.9717 0.0065 6.7217 -0.0635 6.5417 0.0965C6.3417 0.2765 6.3417 0.5765 6.5617 0.7765C7.6717 1.8465 9.1917 2.4565 10.8117 2.4565C12.4617 2.4565 13.9717 1.8465 15.0817 0.7765C15.3017 0.5765 15.3017 0.2765 15.1017 0.0965C14.9217 -0.0635 14.6517 -0.0135 14.4517 0.1665C13.5617 1.1165 12.2317 1.5765 10.8117 1.5765ZM10.7417 6.0965C8.0617 6.0965 5.6817 5.0565 3.9017 3.3065C3.7017 3.1165 3.4317 3.0665 3.2417 3.2265C3.0517 3.3965 3.0517 3.7065 3.2617 3.9065C5.2017 5.8165 7.8417 6.9665 10.7417 6.9665C13.6517 6.9665 16.2917 5.8165 18.2317 3.9065C18.4417 3.7065 18.4417 3.3965 18.2417 3.2265C18.0617 3.0665 17.7917 3.1165 17.5917 3.3065C15.8117 5.0565 13.4317 6.0965 10.7417 6.0965ZM10.9117 24.0365C13.2117 24.0365 16.2117 23.9565 18.3017 23.8165V25.3065C18.3017 25.9765 18.8417 26.4965 19.5117 26.4965H20.6117C21.2817 26.4965 21.8217 25.9765 21.8217 25.3065V20.1965C21.8217 18.4865 21.4217 17.6665 20.6617 16.7065L19.8017 15.6165C19.4717 13.8865 18.8317 12.0665 18.5017 11.3565C17.9917 10.2965 17.0317 9.7765 15.9617 9.6365C15.3017 9.5565 13.1017 9.5065 10.9117 9.5065C8.7217 9.5065 6.5117 9.5565 5.8617 9.6365C4.7917 9.7765 3.8217 10.2965 3.3117 11.3565C2.9917 12.0665 2.3417 13.8865 2.0017 15.6165L1.1517 16.7065C0.4017 17.6665 0.0017 18.4865 0.0017 20.1965V25.3065C0.0017 25.9765 0.5317 26.4965 1.2117 26.4965H2.3117C2.9717 26.4965 3.5017 25.9765 3.5017 25.3065V23.8165C5.6117 23.9565 8.6117 24.0365 10.9117 24.0365ZM3.5317 14.9065C3.8217 13.5765 4.2517 12.3765 4.5617 11.8465C4.8617 11.3365 5.2717 10.9965 6.0117 10.8965C6.7717 10.8065 8.4817 10.7765 10.9117 10.7765C13.3217 10.7765 15.0317 10.7965 15.8117 10.8965C16.5517 10.9965 16.9617 11.3365 17.2617 11.8465C17.5617 12.3765 17.9917 13.5765 18.2817 14.9065C18.3417 15.1565 18.2617 15.3565 17.9017 15.3465C16.2117 15.2265 14.4217 15.1465 10.9117 15.1465C7.3917 15.1465 5.6117 15.2265 3.9017 15.3465C3.5517 15.3565 3.4817 15.1565 3.5317 14.9065ZM3.9917 21.3965C3.2717 21.3965 2.7417 20.8665 2.7417 20.1365C2.7417 19.4065 3.2717 18.8865 3.9917 18.8865C4.7217 18.8865 5.2517 19.4065 5.2517 20.1365C5.2517 20.8665 4.7217 21.3965 3.9917 21.3965ZM17.8217 21.3965C17.0817 21.3965 16.5617 20.8665 16.5617 20.1365C16.5617 19.4065 17.0817 18.8865 17.8217 18.8865C18.5517 18.8865 19.0817 19.4065 19.0817 20.1365C19.0817 20.8665 18.5517 21.3965 17.8217 21.3965ZM8.5417 21.2265C8.0017 21.2265 7.6517 20.8765 7.6517 20.3465C7.6517 19.8065 8.0017 19.4565 8.5417 19.4565H13.2617C13.8117 19.4565 14.1717 19.8065 14.1717 20.3465C14.1717 20.8765 13.8117 21.2265 13.2617 21.2265Z" />
        </svg>
    