
        <svg xmlns="http://www.w3.org/2000/svg" viewBox="0 0 100 100">
            <path d="M8.2117 23.0011C12.7517 23.0011 14.8117 21.8511 14.8117 19.1411V9.5311H15.3117C15.9717 9.5311 16.4417 9.0211 16.4417 8.3311V8.0711C16.4417 7.3711 15.9717 6.8711 15.3117 6.8711H14.8117V4.4511C14.8117 1.5811 12.4217 0.0011 8.2117 0.0011C4.0217 0.0011 1.6217 1.5811 1.6217 4.4511V6.8211H1.1217C0.4717 6.8211 0.0017 7.3211 0.0017 8.0311V8.2711C0.0017 8.9611 0.4717 9.4711 1.1217 9.4711H1.6217V19.1411C1.6217 21.8511 3.6917 23.0011 8.2117 23.0011ZM8.2117 20.7311C5.1417 20.7311 3.9117 20.2411 3.9117 19.0511V4.5011C3.9117 3.0711 5.3817 2.2811 8.2117 2.2811C11.0717 2.2811 12.5317 3.0711 12.5317 4.5011V19.0511C12.5317 20.2411 11.3017 20.7311 8.2117 20.7311ZM8.2117 9.9211C9.0317 9.9211 10.2417 10.0111 10.5717 10.0111C11.2717 10.0111 11.5917 9.7111 11.6617 8.9911L11.8017 7.3711C11.9217 6.0311 10.9717 5.5311 8.2117 5.5311C5.4617 5.5311 4.5117 6.0311 4.6417 7.3711L4.7817 8.9911C4.8417 9.7111 5.1517 10.0111 5.8717 10.0111C6.1917 10.0111 7.3817 9.9211 8.2117 9.9211ZM8.2117 18.9711C11.0417 18.9711 11.9617 18.5111 11.7817 17.1411L11.6617 16.3711C11.4917 15.2711 10.6017 14.9211 8.2117 14.9211C5.8317 14.9211 4.9417 15.2711 4.7817 16.3711L4.6617 17.1411C4.4617 18.5111 5.4017 18.9711 8.2117 18.9711ZM17.4717 24.6311C18.5317 23.6011 19.1417 22.3111 19.3117 20.8711C19.4217 20.0811 18.8917 19.5111 18.1517 19.5111C17.4817 19.5111 17.1317 19.9011 16.9917 20.7411C16.8517 21.6011 16.4917 22.3511 15.8417 23.0011C15.1917 23.6511 14.4417 24.0111 13.6417 24.1411C12.7617 24.2911 12.3417 24.7011 12.3417 25.3111C12.3417 26.0411 12.9017 26.5411 13.6417 26.4811C14.8517 26.3911 16.3317 25.7811 17.4717 24.6311ZM20.6117 27.7611C22.4317 25.9711 23.4117 23.6711 23.5817 21.2011C23.6217 20.3811 23.0717 19.9111 22.3817 19.9111C21.7117 19.9111 21.2817 20.3411 21.2017 21.2311C21.0917 23.0511 20.3417 24.7611 18.9717 26.1311C17.5917 27.5011 15.8817 28.2211 14.0717 28.3611C13.2317 28.4411 12.7417 28.8911 12.7417 29.5111C12.7417 30.2511 13.2517 30.7611 14.0417 30.7411C16.5117 30.6611 18.8117 29.5911 20.6117 27.7611Z" />
        </svg>
    