
        <svg xmlns="http://www.w3.org/2000/svg" viewBox="0 0 100 100">
            <path d="M18.1855 2.1166C19.8455 2.1166 21.3355 2.6966 22.4955 3.7266C23.0755 4.2166 23.6855 4.2566 24.0855 3.8466C24.5555 3.3866 24.5655 2.6966 24.0555 2.2166C22.4855 0.7466 20.4055 -0.0034 18.1855 -0.0034C15.9555 -0.0034 13.8955 0.7466 12.3255 2.2166C11.7955 2.6966 11.8055 3.3866 12.2755 3.8466C12.6755 4.2566 13.2855 4.2166 13.8655 3.7266C15.0455 2.7166 16.5155 2.1166 18.1855 2.1166ZM18.1855 5.9566C18.9755 5.9566 19.6455 6.1866 20.1855 6.5966C20.8255 7.0466 21.3655 7.0666 21.7655 6.6666C22.2355 6.1966 22.2155 5.5066 21.6955 5.0666C20.8755 4.3666 19.5755 3.8366 18.1855 3.8366C16.7855 3.8366 15.4855 4.3666 14.6755 5.0666C14.1455 5.5066 14.1255 6.1966 14.5955 6.6666C14.9955 7.0566 15.5455 7.0466 16.1755 6.5966C16.7255 6.1866 17.3955 5.9566 18.1855 5.9566ZM33.4355 24.8566H35.0255C36.2255 24.8566 36.6055 23.8666 36.1555 23.0366L27.9455 6.9466C27.6855 6.4566 27.2855 6.1966 26.7755 6.1966H25.9555C25.3055 6.1966 24.9755 6.7766 25.2255 7.3866L31.8355 23.7766C32.0755 24.3966 32.5455 24.8566 33.4355 24.8566ZM1.3055 24.8566H2.8955C3.7955 24.8566 4.2555 24.3966 4.5055 23.7766L11.1155 7.3966C11.3655 6.7766 11.0355 6.2066 10.3855 6.2066H9.5655C9.0555 6.2066 8.6555 6.4566 8.3955 6.9566L0.1855 23.0366C-0.2645 23.8866 0.1155 24.8566 1.3055 24.8566ZM10.3755 20.5866C10.3755 21.0866 10.7555 21.4566 11.2455 21.4566H12.0155C12.5055 21.4566 12.8855 21.0866 12.8855 20.5866V19.7466H23.3455V20.5866C23.3455 21.0866 23.7355 21.4566 24.2255 21.4566H25.0055C25.4955 21.4566 25.8655 21.0866 25.8655 20.5866V16.2466C25.8655 15.0666 25.7355 14.3866 25.0855 13.6666L24.4355 12.9466L23.7755 11.0866C23.3355 9.8766 22.5755 9.4266 21.6355 9.3066C21.1355 9.2366 19.8455 9.1966 18.1255 9.1966C16.3855 9.1966 15.0955 9.2366 14.5955 9.3066C13.6655 9.4266 12.8955 9.8766 12.4655 11.0866L11.7955 12.9466L11.1455 13.6666C10.4955 14.3866 10.3755 15.0666 10.3755 16.2466ZM13.9555 13.0966C13.5755 13.0966 13.3955 12.8466 13.5155 12.5066L13.8955 11.4066C14.0555 10.9366 14.3455 10.8066 14.8255 10.7366C15.2055 10.6866 16.3555 10.6566 18.1255 10.6566C19.8955 10.6566 21.0455 10.6866 21.4155 10.7366C21.8855 10.8066 22.1755 10.9366 22.3455 11.4066L22.7155 12.5066C22.8455 12.8466 22.6555 13.0966 22.2755 13.0966ZM13.1155 17.1766C12.6755 17.1766 12.3455 16.8466 12.3455 16.4166V15.4566C12.3455 15.0266 12.6755 14.7066 13.1155 14.7066C13.5555 14.7066 13.8855 15.0266 13.8855 15.4566V16.4166C13.8855 16.8666 13.5555 17.1766 13.1155 17.1766ZM23.1755 17.1766C22.7555 17.1766 22.4155 16.8466 22.4155 16.4166V15.4566C22.4155 15.0266 22.7555 14.7066 23.1755 14.7066C23.6155 14.7066 23.9455 15.0166 23.9455 15.4566V16.4166C23.9455 16.8666 23.6155 17.1766 23.1755 17.1766ZM16.7055 16.8766C16.3455 16.8766 16.1055 16.6166 16.1055 16.2466V15.6366C16.1055 15.2566 16.3455 15.0166 16.7055 15.0166H19.5055C19.8655 15.0166 20.1155 15.2566 20.1155 15.6366V16.2466C20.1155 16.6266 19.8655 16.8766 19.5055 16.8766Z" />
        </svg>
    