
        <svg xmlns="http://www.w3.org/2000/svg" viewBox="0 0 100 100">
            <path d="M8.3117 22.9852C12.8517 22.9852 14.9417 21.7452 14.9417 18.9652V9.6752H15.4417C16.1417 9.6752 16.6217 9.1452 16.6217 8.3752V8.2252C16.6217 7.4452 16.1417 6.9152 15.4417 6.9152H14.9417V4.5552C14.9417 1.5852 12.5817 -0.0048 8.3117 -0.0048C4.0417 -0.0048 1.6717 1.5952 1.6717 4.5552V6.8452H1.1717C0.4817 6.8452 0.0017 7.3752 0.0017 8.1552V8.3052C0.0017 9.0752 0.4817 9.6052 1.1717 9.6052H1.6717V18.9652C1.6717 21.7452 3.7717 22.9852 8.3117 22.9852ZM8.3117 9.9052C7.4217 9.9052 6.2117 9.9952 5.9217 9.9952C5.1817 9.9952 4.8417 9.6652 4.7817 8.9052L4.6217 7.1952C4.4917 5.7752 5.5317 5.2652 8.3117 5.2652C11.0817 5.2652 12.1317 5.7752 12.0017 7.1952L11.8517 8.9052C11.7817 9.6652 11.4517 9.9952 10.7017 9.9952C10.4017 9.9952 9.2117 9.9052 8.3117 9.9052ZM8.3117 19.3252C5.4117 19.3252 4.4417 18.8452 4.6417 17.3952L4.7717 16.5852C4.9217 15.4052 5.8917 15.0452 8.3117 15.0452C10.7217 15.0452 11.6917 15.4052 11.8517 16.5852L11.9717 17.3952C12.1717 18.8452 11.2017 19.3252 8.3117 19.3252ZM8.2817 25.3452C7.4217 25.3452 6.6917 25.0852 6.0717 24.6652C5.2717 24.1152 4.6217 24.0852 4.1417 24.5652C3.5117 25.1752 3.5717 26.0552 4.2417 26.5852C5.2717 27.4352 6.7117 27.9852 8.2817 27.9852C9.8517 27.9852 11.3017 27.4352 12.3317 26.5852C12.9917 26.0552 13.0417 25.1752 12.4317 24.5652C11.9517 24.0852 11.3017 24.1052 10.5017 24.6652C9.8817 25.0852 9.1517 25.3452 8.2817 25.3452ZM8.2817 29.9452C6.4117 29.9452 4.7717 29.2752 3.4417 28.1452C2.7117 27.5352 1.9617 27.5052 1.4617 28.0052C0.8717 28.5852 0.8517 29.4352 1.5217 30.0452C3.3517 31.6952 5.7217 32.5752 8.2817 32.5752C10.8517 32.5752 13.2217 31.7152 15.0517 30.0552C15.7017 29.4352 15.7017 28.5852 15.0917 28.0052C14.6117 27.5052 13.8517 27.5252 13.1217 28.1452C11.8317 29.2952 10.1517 29.9452 8.2817 29.9452Z" />
        </svg>
    