
        <svg xmlns="http://www.w3.org/2000/svg" viewBox="0 0 100 100">
            <path d="M13.9188 30.7242C19.9388 30.7242 22.5488 29.3342 22.5488 26.0042V5.6242C22.5488 2.0542 19.3988 0.0042 13.9188 0.0042C8.4388 0.0042 5.3088 2.0542 5.3088 5.6242V9.1142L0.3288 14.0642C-0.1112 14.4942 -0.1112 15.2142 0.3288 15.6542C0.7588 16.0942 1.4688 16.1042 1.9188 15.6542L5.3088 12.2742V17.9842L0.3288 22.9442C-0.1112 23.3742 -0.1112 24.0942 0.3288 24.5242C0.7588 24.9642 1.4688 24.9742 1.9188 24.5242L5.3088 21.1542V26.0042C5.3088 29.3342 7.8988 30.7242 13.9188 30.7242ZM13.9188 12.7642C12.7488 12.7642 10.9988 12.8542 10.4288 12.8542C9.5088 12.8542 9.1188 12.5042 9.0288 11.5542L8.8288 9.2342C8.6688 7.4742 9.9388 6.7642 13.9188 6.7642C17.8988 6.7642 19.1788 7.4742 19.0188 9.2342L18.8188 11.5542C18.7388 12.5042 18.3388 12.8542 17.4088 12.8542C16.8488 12.8542 15.0488 12.7642 13.9188 12.7642ZM13.9188 25.7842C9.8688 25.7842 8.6088 25.1742 8.8788 23.3642L9.0288 22.2442C9.2288 20.7842 10.4588 20.2942 13.9188 20.2942C17.3888 20.2942 18.6088 20.7842 18.8188 22.2442L18.9688 23.3642C19.2288 25.1742 17.9688 25.7842 13.9188 25.7842Z" />
        </svg>
    