
        <svg xmlns="http://www.w3.org/2000/svg" viewBox="0 0 100 100">
            <path d="M20.3317 20.9323C22.6917 20.9323 23.7917 19.8423 23.7917 17.5223V11.4023C23.7917 9.8823 23.3517 9.0823 22.1917 8.2023L13.3317 1.4723C11.9017 0.4023 10.7717 0.0023 9.0517 0.0023H3.2317C1.1217 0.0023 0.0017 1.1123 0.0017 3.2023V17.5223C0.0017 19.8423 1.1017 20.9323 3.4617 20.9323ZM20.6917 10.3023H3.2717C2.1417 10.3023 1.4517 9.6123 1.4517 8.4623V3.2823C1.4517 2.1023 2.1217 1.4423 3.2717 1.4423H9.0517C10.4617 1.4423 11.3117 1.7023 12.3717 2.5323L21.0217 9.1523C21.5417 9.5523 21.3717 10.3023 20.6917 10.3023ZM28.7917 12.9923C29.2217 12.9923 29.5317 12.6823 29.5517 12.2323L29.7317 3.8323C29.7417 3.2623 29.3717 2.8823 28.7917 2.8823C28.2117 2.8823 27.8317 3.2623 27.8417 3.8323L28.0217 12.2323C28.0417 12.6823 28.3517 12.9923 28.7917 12.9923ZM28.7917 17.9723C29.4917 17.9723 30.0817 17.3923 30.0817 16.7223C30.0817 16.0323 29.4917 15.4723 28.7917 15.4723C28.0617 15.4723 27.4917 16.0323 27.4917 16.7223C27.4917 17.3923 28.0817 17.9723 28.7917 17.9723Z" />
        </svg>
    