
        <svg xmlns="http://www.w3.org/2000/svg" viewBox="0 0 100 100">
            <path d="M29.0679 4.4898H30.4379C31.1579 4.4898 31.7379 3.8398 31.2979 2.9598L30.2679 0.9598C29.9379 0.3198 29.3879 -0.0002 28.7779 -0.0002H27.8979C27.0179 -0.0002 26.5479 0.8098 26.8779 1.6398L27.6079 3.4498C27.9079 4.2098 28.2879 4.4898 29.0679 4.4898ZM8.4579 4.4998H9.8279C10.5979 4.4998 10.9879 4.2198 11.2979 3.4598L12.0179 1.6498C12.3479 0.8198 11.8779 0.0198 10.9979 0.0198H10.1179C9.4979 0.0198 8.9579 0.3298 8.6179 0.9698L7.5979 2.9798C7.1579 3.8598 7.7279 4.4998 8.4579 4.4998ZM11.2979 15.1298C11.2979 15.6398 11.6879 16.0398 12.2079 16.0398H13.0279C13.5479 16.0398 13.9379 15.6398 13.9379 15.1298V14.3398H24.9179V15.1298C24.9179 15.6398 25.3179 16.0398 25.8379 16.0398H26.6479C27.1579 16.0398 27.5679 15.6398 27.5679 15.1298V10.5798C27.5679 9.2898 27.4579 8.5498 26.7979 7.7998L26.1279 7.0398L25.4379 5.1898C24.9379 3.8098 24.0779 3.2998 23.0779 3.1798C22.4979 3.1098 21.2779 3.0598 19.4279 3.0598C17.5779 3.0598 16.3579 3.1098 15.7779 3.1798C14.7779 3.2998 13.9279 3.8098 13.4179 5.1898L12.7379 7.0398L12.0679 7.7998C11.4079 8.5498 11.2979 9.2898 11.2979 10.5798ZM15.3479 7.3098C14.8879 7.3098 14.6179 7.0298 14.7779 6.6198L15.1479 5.5898C15.3379 5.0898 15.6879 4.9498 16.2479 4.8598C16.5779 4.8198 17.6679 4.7998 19.4279 4.7998C21.1879 4.7998 22.2879 4.8198 22.5979 4.8598C23.1679 4.9498 23.5379 5.0898 23.7179 5.5898L24.0779 6.6198C24.2279 7.0298 23.9679 7.3098 23.5079 7.3098ZM31.8279 11.6298H33.8179C34.7279 11.6298 35.2679 10.7698 34.8079 9.8798L33.2779 6.8398C33.0579 6.3998 32.5979 6.1198 32.0779 6.1198H30.3479C29.3779 6.1198 28.9879 6.8898 29.2979 7.6498L30.5479 10.7798C30.7579 11.3198 31.2379 11.6298 31.8279 11.6298ZM5.0779 11.6398H7.0779C7.6479 11.6398 8.1379 11.3298 8.3479 10.7898L9.6079 7.6598C9.9079 6.8998 9.5279 6.1298 8.5479 6.1298H6.8079C6.2979 6.1298 5.8479 6.4098 5.6179 6.8598L4.0779 9.8898C3.6279 10.7798 4.1679 11.6398 5.0779 11.6398ZM14.5279 11.5998C14.0379 11.5998 13.6579 11.2298 13.6579 10.7298V9.7898C13.6579 9.2898 14.0379 8.9298 14.5279 8.9298C15.0179 8.9298 15.3979 9.2898 15.3979 9.7898V10.7298C15.3979 11.2298 15.0179 11.5998 14.5279 11.5998ZM24.3879 11.5998C23.8879 11.5998 23.5179 11.2298 23.5179 10.7298V9.7898C23.5179 9.2998 23.8879 8.9298 24.3879 8.9298C24.8779 8.9298 25.2479 9.2798 25.2479 9.7898V10.7298C25.2479 11.2398 24.8779 11.5998 24.3879 11.5998ZM18.0179 11.2898C17.5979 11.2898 17.3179 10.9798 17.3179 10.5498V9.9698C17.3179 9.5498 17.5979 9.2598 18.0179 9.2598H20.8079C21.2279 9.2598 21.5279 9.5498 21.5279 9.9698V10.5498C21.5279 10.9898 21.2279 11.2898 20.8079 11.2898ZM35.5879 19.7698H37.2279C38.7379 19.7698 39.2279 18.4998 38.6779 17.4398L37.1179 14.3698C36.7079 13.5598 36.1579 13.2898 35.3179 13.2898H33.4679C32.4079 13.2898 31.8979 14.1398 32.2479 15.0098L33.6279 18.4598C33.9179 19.1798 34.5079 19.7698 35.5879 19.7698ZM1.6579 19.7798H3.3079C4.3879 19.7798 4.9779 19.1998 5.2679 18.4698L6.6479 15.0198C7.0079 14.1598 6.4879 13.2998 5.4379 13.2998H3.5779C2.7279 13.2998 2.1879 13.5798 1.7779 14.3798L0.2179 17.4498C-0.3321 18.5198 0.1579 19.7798 1.6579 19.7798Z" />
        </svg>
    