
        <svg xmlns="http://www.w3.org/2000/svg" viewBox="0 0 100 100">
            <path d="M22.4323 2.137C24.9623 2.137 27.2623 2.987 28.9723 4.537C29.4823 4.997 30.0823 5.117 30.5523 4.707C31.0423 4.287 31.0623 3.567 30.4923 3.027C28.3923 1.077 25.5223 -0.003 22.4323 -0.003C19.3523 -0.003 16.4523 1.087 14.3823 3.027C13.8023 3.567 13.8123 4.287 14.3223 4.707C14.7923 5.117 15.3823 4.997 15.9023 4.537C17.6123 2.987 19.9123 2.137 22.4323 2.137ZM22.4523 6.947C23.6223 6.947 24.7623 7.297 25.5923 7.957C26.1223 8.347 26.6923 8.497 27.1623 8.107C27.6523 7.687 27.6823 6.907 27.0923 6.407C25.8623 5.387 24.2123 4.817 22.4523 4.817C20.6923 4.817 19.0423 5.387 17.8123 6.407C17.2223 6.907 17.2423 7.687 17.7423 8.107C18.2123 8.497 18.7723 8.347 19.3123 7.957C20.1523 7.327 21.2823 6.947 22.4523 6.947ZM12.8623 28.597H14.0323C14.7323 28.597 15.2923 28.047 15.2923 27.337V25.867C17.3523 25.997 20.1423 26.077 22.4623 26.077C24.7823 26.077 27.5723 25.997 29.6223 25.867V27.337C29.6223 28.047 30.1923 28.597 30.9023 28.597H32.0623C32.7623 28.597 33.3123 28.027 33.3123 27.337V25.057C33.7623 24.657 33.9923 24.067 33.9923 23.327V21.607C33.9923 19.937 33.6923 18.947 32.7823 17.817L31.9823 16.807C31.6323 15.127 31.0223 13.367 30.6923 12.677C30.1423 11.517 29.0723 10.827 27.7423 10.657C27.0723 10.557 25.0423 10.507 22.4623 10.507C19.9023 10.507 17.8823 10.567 17.2123 10.657C15.8823 10.817 14.8023 11.517 14.2623 12.677C13.9323 13.367 13.3223 15.127 12.9623 16.807L12.1623 17.817C11.2523 18.947 10.9423 19.937 10.9423 21.607V23.327C10.9423 24.057 11.1823 24.637 11.6123 25.027V27.337C11.6123 28.027 12.1523 28.597 12.8623 28.597ZM4.6423 27.577C5.0423 27.117 4.9223 26.527 4.4723 26.027C2.9423 24.327 2.0823 22.067 2.0823 19.567C2.0823 17.087 2.9423 14.817 4.4723 13.117C4.9223 12.607 5.0423 12.027 4.6423 11.567C4.2323 11.087 3.5123 11.047 3.0023 11.627C1.0923 13.677 0.0023 16.527 0.0023 19.567C0.0023 22.617 1.0523 25.437 3.0023 27.517C3.5123 28.087 4.2323 28.067 4.6423 27.577ZM40.2923 27.577C40.7023 28.067 41.4123 28.087 41.9423 27.517C43.8723 25.437 44.9423 22.617 44.9423 19.567C44.9423 16.527 43.8523 13.677 41.9423 11.627C41.4223 11.047 40.7023 11.087 40.2923 11.567C39.8923 12.027 40.0223 12.607 40.4623 13.117C42.0023 14.817 42.8423 17.087 42.8423 19.567C42.8423 22.067 41.9923 24.327 40.4623 26.027C40.0223 26.527 39.8923 27.117 40.2923 27.577ZM22.4623 24.267C19.1823 24.267 15.2023 24.117 13.6923 23.927C12.9723 23.837 12.7423 23.527 12.7423 22.867V21.527C12.7423 20.287 12.9423 19.727 13.5923 18.877L14.6223 17.527C14.8523 16.287 15.4723 14.347 15.8423 13.507C16.1523 12.877 16.6723 12.537 17.4623 12.447C18.0923 12.367 19.9223 12.277 22.4623 12.277C25.0323 12.277 26.8923 12.377 27.4523 12.447C28.2823 12.537 28.7923 12.887 29.1023 13.507C29.4823 14.327 30.0923 16.277 30.3323 17.527L31.3623 18.877C32.0123 19.727 32.2123 20.287 32.2123 21.527V22.867C32.2123 23.527 31.9823 23.857 31.2523 23.927C29.7423 24.107 25.7623 24.267 22.4623 24.267ZM15.7523 16.577C15.6723 16.947 15.8223 17.117 16.2323 17.097C17.6123 17.007 19.3623 16.917 22.4623 16.917C25.5923 16.917 27.3423 17.007 28.7223 17.097C29.1223 17.117 29.2723 16.947 29.1923 16.577C28.9823 15.657 28.5923 14.487 28.3223 13.997C28.0623 13.537 27.7623 13.337 27.2323 13.267C26.5923 13.187 25.0523 13.127 22.4623 13.127C19.8823 13.127 18.3623 13.187 17.7223 13.267C17.1823 13.337 16.8723 13.537 16.6323 13.997C16.3623 14.487 15.9623 15.657 15.7523 16.577ZM8.0623 24.227C8.4523 23.767 8.2923 23.207 7.9123 22.677C7.2623 21.857 6.9123 20.727 6.9123 19.567C6.9123 18.407 7.2623 17.287 7.9123 16.467C8.2923 15.937 8.4523 15.377 8.0623 14.917C7.6523 14.427 6.8823 14.417 6.4023 14.997C5.3923 16.207 4.8323 17.837 4.8323 19.567C4.8323 21.307 5.3923 22.937 6.4023 24.137C6.8823 24.727 7.6523 24.717 8.0623 24.227ZM36.8823 24.227C37.2923 24.717 38.0523 24.727 38.5323 24.137C39.5423 22.937 40.1123 21.307 40.1123 19.567C40.1123 17.837 39.5423 16.207 38.5323 14.997C38.0523 14.417 37.2923 14.427 36.8823 14.917C36.4923 15.377 36.6423 15.937 37.0223 16.467C37.6623 17.287 38.0123 18.407 38.0123 19.567C38.0123 20.727 37.6623 21.857 37.0223 22.677C36.6423 23.207 36.4923 23.767 36.8823 24.227ZM15.6223 23.117C16.5123 23.117 17.1823 22.437 17.1823 21.547C17.1823 20.667 16.5123 19.997 15.6223 19.997C14.7423 19.997 14.0623 20.667 14.0623 21.547C14.0623 22.437 14.7423 23.117 15.6223 23.117ZM29.3223 23.117C30.2123 23.117 30.8923 22.437 30.8923 21.547C30.8923 20.667 30.2123 19.997 29.3223 19.997C28.4323 19.997 27.7623 20.667 27.7623 21.547C27.7623 22.437 28.4323 23.117 29.3223 23.117ZM19.8623 22.727H25.0823C25.7423 22.727 26.2123 22.267 26.2123 21.597C26.2123 20.937 25.7423 20.477 25.0823 20.477H19.8623C19.2023 20.477 18.7423 20.937 18.7423 21.597C18.7423 22.267 19.2023 22.727 19.8623 22.727Z" />
        </svg>
    