
        <svg xmlns="http://www.w3.org/2000/svg" viewBox="0 0 100 100">
            <path d="M3.9017 16.9813H4.5617C4.4717 16.6013 4.4317 16.2213 4.4317 15.8113C4.4317 12.9913 6.6517 10.7713 9.4817 10.7713C12.2917 10.7713 14.5317 12.9913 14.5317 15.8113C14.5317 16.2213 14.4817 16.6013 14.3917 16.9813H28.0317C27.9517 16.6013 27.9017 16.2213 27.9017 15.8113C27.9017 12.9913 30.1417 10.7713 32.9617 10.7713C35.7817 10.7713 38.0117 12.9913 38.0117 15.8113C38.0117 16.2213 37.9617 16.6013 37.8717 16.9813H38.5317C41.1917 16.9813 42.4317 15.6713 42.4317 12.8513V9.5813C42.4317 7.3212 41.3217 5.9012 39.0217 5.1412L37.1817 4.5213C34.8117 2.5113 31.4717 0.0912 27.0017 0.0912H25.1917C20.3317 0.0912 18.2717 0.5813 15.3517 2.4113L11.2617 4.9913L7.2917 1.0212C6.5717 0.3012 5.7217 0.0012 4.5317 0.0012H1.0217C0.4017 0.0012 0.0017 0.4013 0.0017 0.9812C0.0017 1.5712 0.4017 1.9812 1.0217 1.9812H4.6717C5.1517 1.9812 5.4817 2.1112 5.7817 2.4012L8.9717 5.6013L5.3917 6.0512C2.0317 6.4613 0.0017 8.5513 0.0017 11.4413V12.9213C0.0017 15.6913 1.2617 16.9813 3.9017 16.9813ZM9.4817 19.4313C11.4917 19.4313 13.0917 17.8313 13.0917 15.8113C13.0917 13.8013 11.4917 12.2113 9.4817 12.2113C7.4517 12.2113 5.8617 13.8013 5.8617 15.8113C5.8617 17.8313 7.4517 19.4313 9.4817 19.4313ZM32.9617 19.4313C34.9817 19.4313 36.5717 17.8313 36.5717 15.8113C36.5717 13.8013 34.9817 12.2113 32.9617 12.2113C30.9417 12.2113 29.3417 13.8013 29.3417 15.8113C29.3417 17.8313 30.9417 19.4313 32.9617 19.4313Z" />
        </svg>
    