
        <svg xmlns="http://www.w3.org/2000/svg" viewBox="0 0 100 100">
            <path d="M15.4617 7.8738C15.9017 7.8738 16.1617 7.6038 16.1717 7.1138L16.3117 0.8438C16.3117 0.3637 15.9517 0.0038 15.4417 0.0038C14.9417 0.0038 14.5917 0.3538 14.6017 0.8438L14.7317 7.1138C14.7317 7.5938 15.0017 7.8738 15.4617 7.8738ZM0.0017 21.4237V22.7338H2.7817C3.2817 24.0738 4.5617 24.9938 6.0917 24.9938C7.6317 24.9938 8.9017 24.0738 9.4017 22.7338H10.4617C12.6317 22.7338 13.6217 21.6938 13.6217 19.4038V16.4838C13.6217 14.6138 12.7517 13.4738 10.8017 12.8538L9.1017 12.3138C6.6417 10.2438 4.1017 8.4038 0.5717 8.4038H0.0017V9.7137H0.5717C3.2617 9.7137 5.3917 10.8538 8.0117 13.1438C8.4717 13.5438 8.6917 13.6438 9.2117 13.7938L10.4317 14.1838C11.7417 14.6038 12.3117 15.2738 12.3117 16.4838V19.4038C12.3117 20.7738 11.7217 21.4237 10.4617 21.4237H9.6317C9.6317 19.4638 8.0817 17.9138 6.0917 17.9138C4.1217 17.9138 2.5817 19.4538 2.5517 21.4237ZM15.4617 11.5038C16.0417 11.5038 16.5517 11.0238 16.5517 10.4538C16.5517 9.8538 16.0517 9.3938 15.4617 9.3938C14.8617 9.3938 14.3717 9.8638 14.3717 10.4538C14.3717 11.0238 14.8717 11.5038 15.4617 11.5038ZM23.6717 24.9938C25.2117 24.9938 26.4817 24.0738 26.9917 22.7338H30.9117V21.4237H27.2117C27.2117 19.4638 25.6617 17.9138 23.6717 17.9138C21.6917 17.9138 20.1517 19.4538 20.1417 21.4237H19.3017C18.0517 21.4237 17.4617 20.7738 17.4617 19.4038V18.0438C17.4617 16.4138 18.6717 15.2138 20.7317 14.9638L25.0117 14.4538C25.6617 14.3638 26.0017 14.2338 26.4217 13.9838L30.3117 11.5338C30.5317 11.4038 30.7117 11.2738 30.9117 11.1838V9.6538C30.4917 9.8837 30.0617 10.1138 29.6117 10.3938L25.3317 13.0938L20.5817 13.6738C17.8217 14.0138 16.1517 15.7038 16.1517 18.0438V19.4538C16.1517 21.6938 17.1517 22.7338 19.3017 22.7338H20.3717C20.8717 24.0738 22.1417 24.9938 23.6717 24.9938ZM23.6717 23.7538C22.3917 23.7538 21.3717 22.7438 21.3717 21.4538C21.3717 20.1638 22.3917 19.1638 23.6717 19.1638C24.9617 19.1638 25.9817 20.1638 25.9817 21.4538C25.9817 22.7438 24.9617 23.7538 23.6717 23.7538ZM6.0917 23.7538C4.8017 23.7538 3.7817 22.7438 3.7817 21.4538C3.7817 20.1638 4.8017 19.1638 6.0917 19.1638C7.3717 19.1638 8.3917 20.1638 8.3917 21.4538C8.3917 22.7438 7.3717 23.7538 6.0917 23.7538Z" />
        </svg>
    