
        <svg xmlns="http://www.w3.org/2000/svg" viewBox="0 0 100 100">
            <path d="M3.8417 21.7642H21.4617C24.0217 21.7642 25.3017 20.4942 25.3017 17.9642V3.7142C25.3017 1.2742 24.0117 0.0042 21.5417 0.0042H15.8417C13.8717 0.0042 12.6217 0.4242 11.0417 1.6142L1.9117 8.5042C0.4917 9.5842 0.0017 10.5542 0.0017 12.3042V17.9642C0.0017 20.4942 1.2917 21.7642 3.8417 21.7642ZM4.3517 10.8042C3.7217 10.8042 3.6017 10.1342 4.0817 9.7742L12.6217 3.2742C13.5617 2.5342 14.3517 2.2842 15.7417 2.2842H21.4017C22.4317 2.2842 23.0017 2.8442 23.0017 3.9142V9.1842C23.0017 10.2042 22.4217 10.8042 21.4017 10.8042Z" />
        </svg>
    