
        <svg xmlns="http://www.w3.org/2000/svg" viewBox="0 0 100 100">
            <path d="M11.1117 1.4616C13.7017 1.4616 16.0317 2.4116 17.7917 4.0516C18.1517 4.3816 18.5817 4.4616 18.9017 4.1816C19.2417 3.9016 19.2417 3.4016 18.8717 3.0516C16.8317 1.1216 14.0817 0.0016 11.1117 0.0016C8.1317 0.0016 5.3917 1.1216 3.3517 3.0516C2.9717 3.4016 2.9717 3.9016 3.3117 4.1816C3.6317 4.4616 4.0617 4.3816 4.4217 4.0516C6.1917 2.4116 8.5217 1.4616 11.1117 1.4616ZM11.1517 6.0816C12.4617 6.0816 13.6617 6.4816 14.5517 7.2916C14.9317 7.5716 15.3417 7.6916 15.6517 7.4016C15.9917 7.1116 15.9917 6.5716 15.6117 6.2616C14.4017 5.2116 12.8317 4.6216 11.1517 4.6216C9.4717 4.6216 7.9017 5.2116 6.7017 6.2616C6.3017 6.5716 6.3117 7.1116 6.6417 7.4016C6.9717 7.6916 7.3717 7.5716 7.7617 7.2916C8.6917 6.5416 9.8417 6.0816 11.1517 6.0816ZM11.2017 24.7416C13.5617 24.7416 16.5717 24.6516 18.6917 24.5116V26.1116C18.6917 26.7916 19.2317 27.3316 19.9317 27.3316H21.1617C21.8517 27.3316 22.4017 26.7916 22.4017 26.1116V20.7216C22.4017 19.0616 22.0417 18.1916 21.2117 17.1216L20.3917 16.0616C20.0417 14.3316 19.4017 12.5116 19.0817 11.8116C18.5617 10.7316 17.5817 10.1516 16.3917 9.9916C15.7517 9.9116 13.5617 9.8516 11.2017 9.8516C8.8517 9.8516 6.6517 9.9116 6.0117 9.9916C4.8317 10.1516 3.8417 10.7316 3.3317 11.8116C3.0017 12.5116 2.3717 14.3316 2.0117 16.0616L1.1917 17.1216C0.3517 18.1916 0.0017 19.0616 0.0017 20.7216V26.1116C0.0017 26.7916 0.5517 27.3316 1.2417 27.3316H2.4717C3.1717 27.3316 3.7117 26.7916 3.7117 26.1116V24.5116C5.8317 24.6516 8.8517 24.7416 11.2017 24.7416ZM3.8217 15.3016C4.0817 14.1316 4.5317 12.8416 4.8417 12.2916C5.1117 11.8116 5.4517 11.5616 6.0617 11.4816C6.8117 11.3816 8.4717 11.3316 11.2017 11.3316C13.9317 11.3316 15.6017 11.3716 16.3517 11.4816C16.9617 11.5616 17.2817 11.8116 17.5617 12.2916C17.8817 12.8316 18.3017 14.1316 18.5817 15.3016C18.6517 15.6216 18.5417 15.7816 18.1717 15.7616C16.5317 15.6416 14.6917 15.5516 11.2017 15.5516C7.7117 15.5516 5.8717 15.6416 4.2317 15.7616C3.8717 15.7816 3.7517 15.6216 3.8217 15.3016ZM4.2917 22.1416C3.4817 22.1416 2.8717 21.5116 2.8717 20.7116C2.8717 19.9016 3.4817 19.2916 4.2917 19.2916C5.1117 19.2916 5.7117 19.9016 5.7117 20.7116C5.7117 21.5116 5.1117 22.1416 4.2917 22.1416ZM18.1217 22.1416C17.3017 22.1416 16.7017 21.5116 16.7017 20.7116C16.7017 19.9016 17.3017 19.2916 18.1217 19.2916C18.9217 19.2916 19.5317 19.9016 19.5317 20.7116C19.5317 21.5116 18.9217 22.1416 18.1217 22.1416ZM8.7417 21.8416C8.1317 21.8416 7.7217 21.4316 7.7217 20.8316C7.7217 20.2216 8.1317 19.8116 8.7417 19.8116H13.6617C14.2717 19.8116 14.6817 20.2216 14.6817 20.8316C14.6817 21.4316 14.2717 21.8416 13.6617 21.8416Z" />
        </svg>
    