
        <svg xmlns="http://www.w3.org/2000/svg" viewBox="0 0 100 100">
            <path d="M12.1488 9.9492C12.1488 10.3692 12.4888 10.7092 12.9088 10.7092H13.5888C14.0088 10.7092 14.3388 10.3692 14.3388 9.9492V9.2692H23.4388V9.9492C23.4388 10.3692 23.7588 10.7092 24.1888 10.7092H24.8688C25.2888 10.7092 25.6288 10.3692 25.6288 9.9492V6.1792C25.6288 5.1492 25.5188 4.5392 24.9688 3.8992L24.4088 3.2792L23.8288 1.7092C23.4388 0.6092 22.7588 0.1992 21.9188 0.0892C21.4688 0.0392 20.4088 -0.0008 18.8888 -0.0008C17.3688 -0.0008 16.3088 0.0392 15.8488 0.0892C15.0188 0.1992 14.3388 0.6092 13.9388 1.7092L13.3688 3.2792L12.8088 3.8992C12.2588 4.5392 12.1488 5.1492 12.1488 6.1792ZM15.3988 3.4592C15.0288 3.4592 14.8488 3.2392 14.9588 2.9192L15.2788 2.0192C15.4288 1.6092 15.6988 1.4792 16.1488 1.4192C16.4388 1.3792 17.3888 1.3592 18.8888 1.3592C20.3888 1.3592 21.3388 1.3792 21.6288 1.4192C22.0588 1.4792 22.3488 1.6092 22.4988 2.0192L22.8088 2.9192C22.9188 3.2392 22.7288 3.4592 22.3788 3.4592ZM14.6888 7.0092C14.2988 7.0092 13.9988 6.7192 13.9988 6.3292V5.5092C13.9988 5.1192 14.2988 4.8292 14.6888 4.8292C15.0788 4.8292 15.3888 5.1092 15.3888 5.5092V6.3292C15.3888 6.7192 15.0788 7.0092 14.6888 7.0092ZM23.1288 7.0092C22.7388 7.0092 22.4388 6.7192 22.4388 6.3292V5.5092C22.4388 5.1192 22.7388 4.8292 23.1288 4.8292C23.5288 4.8292 23.8188 5.1092 23.8188 5.5092V6.3292C23.8188 6.7292 23.5288 7.0092 23.1288 7.0092ZM17.6888 6.7392C17.3488 6.7392 17.1388 6.4992 17.1388 6.1592V5.6692C17.1388 5.3192 17.3488 5.0992 17.6888 5.0992H20.0588C20.3988 5.0992 20.6188 5.3192 20.6188 5.6692V6.1592C20.6188 6.5192 20.3888 6.7392 20.0588 6.7392ZM31.5688 7.2292C31.2588 6.6492 30.7988 6.3592 30.2188 6.3592H28.8488C28.0888 6.3592 27.6788 7.0592 27.9688 7.7892L32.7788 19.7692C33.0588 20.4492 33.5688 20.9792 34.5688 20.9792H36.1888C37.5588 20.9792 37.9888 19.8492 37.4888 18.8792ZM6.1288 7.2392L0.1988 18.8892C-0.2912 19.8592 0.1388 20.9892 1.4988 20.9892H3.1188C4.1088 20.9892 4.6388 20.4592 4.9088 19.7792L9.7088 7.8092C10.0088 7.0692 9.6088 6.3792 8.8288 6.3792H7.4588C6.8988 6.3792 6.4188 6.6592 6.1288 7.2392ZM20.3288 13.1692L19.7788 15.4692L16.8088 12.4292C16.5288 12.1392 16.0588 12.3892 16.2088 12.8092L17.2588 15.8592L16.0188 15.3092C15.6788 15.1492 15.3688 15.5292 15.5988 15.8292L16.2588 16.6892L12.8188 16.2192C12.3488 16.1492 12.1888 16.6892 12.5688 16.9192L15.8488 18.8992L13.9888 19.5892C13.5588 19.7592 13.6288 20.2892 14.0988 20.3192L16.1788 20.4592L13.2588 22.4392C12.8488 22.7192 13.0288 23.2692 13.5788 23.1592L17.2988 22.3092L17.3388 25.5692C17.3488 26.0292 17.7488 26.0292 17.9388 25.7392L20.4788 21.5792L24.5788 25.2692C24.9488 25.5892 25.4588 25.2192 25.2288 24.7592L22.8088 20.2392L25.3288 19.4892C25.6188 19.4092 25.6388 19.0592 25.3588 18.9292L23.1188 18.0192L24.7188 13.4292C24.8388 13.0892 24.4688 12.7592 24.1488 13.0592L21.6088 15.4792L21.0088 13.1592C20.8988 12.7892 20.4388 12.7492 20.3288 13.1692Z" />
        </svg>
    