
        <svg xmlns="http://www.w3.org/2000/svg" viewBox="0 0 100 100">
            <path d="M20.7217 12.045H26.1517C27.1517 12.045 27.6717 11.515 27.6717 10.445V6.245C27.6717 5.275 27.2317 4.755 26.4017 4.675V3.255C26.4017 2.105 27.1017 1.375 28.1917 1.375C29.2817 1.375 29.9917 2.105 29.9917 3.255V4.525C29.9917 4.915 30.3017 5.215 30.6917 5.215C31.0617 5.215 31.3817 4.915 31.3817 4.525V3.425C31.3817 1.335 30.1317 -0.005 28.1917 -0.005C26.2717 -0.005 25.0217 1.335 25.0217 3.425V4.665H20.7217C19.7317 4.665 19.2217 5.175 19.2217 6.245V10.445C19.2217 11.515 19.7317 12.045 20.7217 12.045ZM39.0217 12.735L37.1817 12.115C35.2217 10.455 32.6417 8.545 29.2817 7.925V10.455C29.2817 12.435 28.0317 13.715 26.1117 13.715H20.6717C18.7617 13.715 17.5117 12.435 17.5117 10.455V8.875C16.7817 9.165 16.1017 9.525 15.3517 10.005L10.5917 12.995L5.3917 13.645C2.0317 14.055 0.0017 16.145 0.0017 19.035V20.515C0.0017 23.285 1.2617 24.575 3.9017 24.575H4.5617C4.4717 24.195 4.4317 23.815 4.4317 23.405C4.4317 20.585 6.6517 18.365 9.4817 18.365C12.2917 18.365 14.5317 20.585 14.5317 23.405C14.5317 23.815 14.4817 24.195 14.3917 24.575H28.0317C27.9517 24.195 27.9017 23.815 27.9017 23.405C27.9017 20.585 30.1417 18.365 32.9617 18.365C35.7817 18.365 38.0117 20.585 38.0117 23.405C38.0117 23.815 37.9617 24.195 37.8717 24.575H38.5317C41.1917 24.575 42.4317 23.265 42.4317 20.445V17.175C42.4317 14.915 41.3217 13.495 39.0217 12.735ZM9.4817 27.025C11.4917 27.025 13.0917 25.425 13.0917 23.405C13.0917 21.395 11.4917 19.805 9.4817 19.805C7.4517 19.805 5.8617 21.395 5.8617 23.405C5.8617 25.425 7.4517 27.025 9.4817 27.025ZM32.9617 27.025C34.9817 27.025 36.5717 25.425 36.5717 23.405C36.5717 21.395 34.9817 19.805 32.9617 19.805C30.9417 19.805 29.3417 21.395 29.3417 23.405C29.3417 25.425 30.9417 27.025 32.9617 27.025Z" />
        </svg>
    