
        <svg xmlns="http://www.w3.org/2000/svg" viewBox="0 0 100 100">
            <path d="M4.193 6.182L6.803 1.672C7.363 0.712 6.563 -0.178 5.583 0.032L1.693 0.832C1.013 0.982 0.693 1.522 0.913 2.172L2.173 5.942C2.483 6.902 3.643 7.142 4.193 6.182ZM12.143 14.652C13.443 15.402 14.963 15.332 16.143 14.582L26.803 20.742C26.733 22.122 27.433 23.482 28.733 24.242C30.053 24.992 31.573 24.922 32.743 24.172L33.533 24.632C35.523 25.782 37.193 25.272 38.413 23.192L39.723 20.912C40.713 19.202 40.423 17.622 39.063 16.042L38.103 14.902C37.303 12.602 35.863 9.452 32.693 7.622L31.393 6.872C27.923 4.872 26.263 4.372 23.403 4.482L18.963 4.652L15.173 3.032C12.493 1.882 10.033 2.612 8.763 4.802L8.183 5.812C6.993 7.862 7.423 9.562 9.403 10.692L10.193 11.152C10.123 12.532 10.833 13.892 12.143 14.652ZM34.783 22.472L34.313 22.202C34.943 20.452 34.283 18.512 32.603 17.552C30.943 16.592 28.913 16.972 27.723 18.392L17.693 12.622C18.343 10.872 17.663 8.922 15.993 7.962C14.323 7.002 12.303 7.392 11.123 8.812L10.643 8.542C10.063 8.202 9.973 7.682 10.373 6.992L10.923 6.042C11.543 4.972 12.673 4.662 14.223 5.332L17.733 6.812C18.273 7.052 18.783 7.152 19.313 7.132L23.493 6.982C25.903 6.902 27.053 7.242 30.143 9.032L31.453 9.782C33.463 10.942 34.603 12.592 35.653 15.622C35.863 16.242 36.073 16.532 36.533 17.032L37.193 17.772C37.783 18.422 37.893 19.112 37.493 19.802L36.263 21.932C35.863 22.622 35.353 22.812 34.783 22.472ZM13.323 12.602C12.603 12.182 12.363 11.282 12.773 10.562C13.193 9.842 14.083 9.602 14.813 10.012C15.533 10.442 15.773 11.332 15.353 12.052C14.943 12.772 14.043 13.012 13.323 12.602ZM0.233 11.712C-0.247 12.542 0.033 13.592 0.833 14.042L31.923 32.002C32.723 32.462 33.773 32.192 34.233 31.382C34.713 30.532 34.423 29.492 33.633 29.032L2.543 11.092C1.743 10.632 0.693 10.902 0.233 11.712ZM29.923 22.182C29.203 21.772 28.973 20.872 29.383 20.152C29.803 19.422 30.693 19.192 31.423 19.602C32.143 20.022 32.383 20.912 31.963 21.642C31.553 22.372 30.643 22.602 29.923 22.182Z" />
        </svg>
    