
        <svg xmlns="http://www.w3.org/2000/svg" viewBox="0 0 100 100">
            <path d="M11.7217 1.3305C10.6417 1.3305 9.4817 0.9405 8.7317 0.4005C8.1417 -0.0195 7.4917 -0.1695 6.9517 0.2605C6.3517 0.7305 6.3117 1.6505 7.0117 2.2705C8.1817 3.2905 9.9017 3.8605 11.7217 3.8605C13.5517 3.8605 15.2717 3.2905 16.4417 2.2705C17.1317 1.6505 17.1017 0.7305 16.5017 0.2605C15.9617 -0.1695 15.3017 -0.0195 14.7117 0.4005C13.9817 0.9605 12.8117 1.3305 11.7217 1.3305ZM11.7117 6.3605C9.1917 6.3605 6.8817 5.5405 5.2217 4.0405C4.6517 3.5305 3.9717 3.3805 3.4217 3.8505C2.8217 4.3405 2.7517 5.1905 3.4817 5.8805C5.4817 7.7905 8.5417 8.9005 11.7117 8.9005C14.8917 8.9005 17.8617 7.8505 19.9417 5.8805C20.6617 5.1905 20.6017 4.3405 20.0017 3.8505C19.4517 3.3805 18.7617 3.5305 18.2017 4.0405C16.5317 5.5405 14.2217 6.3605 11.7117 6.3605ZM11.7317 26.7305C14.2017 26.7305 17.1917 26.6405 19.2917 26.5105V28.3305C19.2917 29.0505 19.8617 29.6105 20.6017 29.6105H22.1617C22.9017 29.6105 23.4717 29.0505 23.4717 28.3305V22.4005C23.4717 20.6405 23.2117 19.6405 22.2917 18.5205L21.4117 17.4505C21.0617 15.7505 20.4417 13.9905 20.1117 13.2905C19.5617 12.1205 18.4817 11.4005 17.1117 11.2205C16.3617 11.1205 14.3817 11.0605 11.7317 11.0605C9.0917 11.0605 7.1117 11.1205 6.3617 11.2205C4.9917 11.4005 3.9117 12.1205 3.3617 13.2905C3.0317 13.9905 2.4117 15.7505 2.0617 17.4505L1.1817 18.5205C0.2417 19.6405 0.0017 20.6405 0.0017 22.4005V28.3305C0.0017 29.0505 0.5717 29.6105 1.3117 29.6105H2.8717C3.6117 29.6105 4.1717 29.0505 4.1717 28.3305V26.5105C6.2817 26.6405 9.2717 26.7305 11.7317 26.7305ZM4.5317 16.5005C4.7217 15.7005 5.0717 14.5905 5.3117 14.1605C5.6117 13.5705 5.9717 13.3505 6.6717 13.2605C7.2617 13.1605 8.8817 13.0805 11.7317 13.0805C14.5917 13.0805 16.2117 13.1505 16.8017 13.2605C17.4917 13.3505 17.8617 13.5705 18.1617 14.1605C18.4017 14.5805 18.7417 15.7005 18.9417 16.5005C19.0617 16.9805 18.8417 17.2505 18.3317 17.2405C17.0517 17.1705 15.2817 17.0805 11.7317 17.0805C8.1917 17.0805 6.4217 17.1705 5.1417 17.2405C4.6317 17.2505 4.4217 16.9805 4.5317 16.5005ZM4.6717 23.9905C3.7217 23.9905 3.0117 23.2705 3.0117 22.3305C3.0117 21.3805 3.7217 20.6605 4.6717 20.6605C5.6217 20.6605 6.3417 21.3805 6.3417 22.3305C6.3417 23.2705 5.6217 23.9905 4.6717 23.9905ZM18.7817 23.9905C17.8517 23.9905 17.1317 23.2705 17.1317 22.3305C17.1317 21.3805 17.8517 20.6605 18.7817 20.6605C19.7317 20.6605 20.4617 21.3805 20.4617 22.3305C20.4617 23.2705 19.7317 23.9905 18.7817 23.9905ZM9.0917 23.5705C8.3817 23.5705 7.8717 23.0605 7.8717 22.3505C7.8717 21.6505 8.3817 21.1405 9.0917 21.1405H14.3817C15.0917 21.1405 15.6017 21.6505 15.6017 22.3505C15.6017 23.0605 15.0917 23.5705 14.3817 23.5705Z" />
        </svg>
    