
        <svg xmlns="http://www.w3.org/2000/svg" viewBox="0 0 100 100">
            <path d="M0 0.2133V17.2233H6.95C6.86 16.8233 6.81 16.4333 6.81 16.0033C6.81 13.1333 9.11 10.8433 11.99 10.8433C14.87 10.8433 17.17 13.1333 17.17 16.0033C17.17 16.4333 17.11 16.8233 17.02 17.2233H17.6C18.96 17.2233 19.96 16.8833 20.64 16.1833H24.4V16.9233C24.4 17.4033 24.77 17.7733 25.25 17.7733C25.73 17.7733 26.1 17.4033 26.1 16.9233V16.1833H27.22C27.7 16.1833 28.08 15.7833 28.08 15.3133C28.08 14.8333 27.7 14.4533 27.22 14.4533H26.1V13.1133H26.32C26.44 13.1133 26.54 13.0633 26.66 12.9933C27.21 12.5433 27.57 11.8833 27.57 11.1333C27.57 9.8633 26.53 8.7933 25.25 8.7933C23.96 8.7933 22.91 9.8633 22.91 11.1333C22.91 11.8833 23.29 12.5433 23.84 12.9933C23.95 13.0633 24.06 13.1133 24.18 13.1133H24.4V14.4533H21.5C21.6 14.0033 21.64 13.5133 21.64 12.9633V9.6633C21.64 7.3333 20.47 5.8933 18.13 5.0933L16.3 4.4733C13.93 2.4533 10.52 0.0033 6.01 0.0033H4.17C2.5 0.0033 1.15 0.0633 0 0.2133ZM11.99 19.6833C14.04 19.6833 15.67 18.0633 15.67 16.0033C15.67 13.9733 14.04 12.3433 11.99 12.3433C9.93 12.3433 8.3 13.9733 8.3 16.0033C8.3 18.0633 9.93 19.6833 11.99 19.6833Z" />
        </svg>
    