
        <svg xmlns="http://www.w3.org/2000/svg" viewBox="0 0 100 100">
            <path d="M14.6772 21.1294C17.9972 19.2094 19.2872 17.2994 18.1772 15.3794L12.8672 6.1794L13.2772 5.9494C13.6472 5.7294 13.7672 5.3794 13.5772 5.0594L13.3172 4.6294C13.1472 4.3094 12.7872 4.2294 12.3972 4.4394L11.9972 4.6794L10.6872 2.3994C9.5172 0.3794 6.9672 0.2894 3.7272 2.1594C3.2272 2.4494 2.7772 2.7394 2.3772 3.0494V0.2694C2.3772 0.1194 2.2572 -0.0006 2.1072 -0.0006H1.7472C1.5872 -0.0006 1.4772 0.1194 1.4772 0.2694V3.8094C-0.0128 5.2894 -0.4028 6.8594 0.4272 8.3194L1.7472 10.5894L1.3472 10.8294C0.9572 11.0494 0.8572 11.4094 1.0272 11.7294L1.2872 12.1594C1.4572 12.4794 1.8372 12.5494 2.2072 12.3294L2.6272 12.1094L7.9172 21.2894C9.0372 23.2194 11.3572 23.0494 14.6772 21.1294ZM23.9572 6.2294C24.1172 6.2294 24.2272 6.1294 24.2272 5.9794V0.2794C24.2272 0.1294 24.1172 0.0094 23.9572 0.0094H23.5972C23.4472 0.0094 23.3272 0.1294 23.3272 0.2794V5.9794C23.3272 6.1294 23.4472 6.2294 23.5972 6.2294ZM8.3072 10.1294C7.6372 10.5094 6.3172 11.3794 5.9272 11.5994C5.3072 11.9494 4.8572 11.8994 4.4272 11.2494L3.5972 10.0594C2.8572 8.9894 3.0772 8.1294 6.1372 6.3594C9.2072 4.5894 10.0672 4.8394 10.6172 6.0094L11.2272 7.3194C11.5372 8.0294 11.3972 8.4394 10.7772 8.7894C10.3772 9.0394 9.1472 9.6494 8.3072 10.1294ZM23.9572 14.6694C24.1172 14.6694 24.2272 14.5694 24.2272 14.3994V8.7094C24.2272 8.5594 24.1172 8.4494 23.9572 8.4494H23.5972C23.4472 8.4494 23.3272 8.5594 23.3272 8.7094V14.3994C23.3272 14.5694 23.4472 14.6694 23.5972 14.6694ZM13.2272 18.6594C10.5072 20.2194 9.4472 20.3094 8.9072 19.0794L8.5872 18.3494C8.1572 17.3394 8.7372 16.5794 11.2072 15.1494C13.6972 13.7194 14.6472 13.6094 15.2872 14.4694L15.7672 15.1194C16.5672 16.2094 15.9472 17.0694 13.2272 18.6594ZM2.1072 23.0894C2.2572 23.0894 2.3772 22.9794 2.3772 22.8294V17.1294C2.3772 16.9794 2.2572 16.8594 2.1072 16.8594H1.7472C1.5872 16.8594 1.4772 16.9794 1.4772 17.1294V22.8294C1.4772 22.9794 1.5872 23.0894 1.7472 23.0894ZM23.9572 23.1094C24.1172 23.1094 24.2272 22.9894 24.2272 22.8394V17.1494C24.2272 16.9894 24.1172 16.8794 23.9572 16.8794H23.5972C23.4472 16.8794 23.3272 16.9894 23.3272 17.1494V22.8394C23.3272 22.9894 23.4472 23.1094 23.5972 23.1094Z" />
        </svg>
    