
        <svg xmlns="http://www.w3.org/2000/svg" viewBox="0 0 100 100">
            <path d="M18.8217 11.1414H24.1717C24.9617 11.1414 25.3517 10.7614 25.3517 9.9014V5.3014C25.3517 4.4314 24.9717 4.0514 24.1917 4.0414V2.8614C24.1917 1.1514 23.1117 0.0014 21.4917 0.0014C19.8917 0.0014 18.8017 1.1514 18.8017 2.8614V4.0414C18.0217 4.0414 17.6417 4.4214 17.6417 5.3014V9.9014C17.6417 10.7614 18.0217 11.1414 18.8217 11.1414ZM19.3817 2.8714C19.3817 1.4914 20.2417 0.5814 21.4917 0.5814C22.7717 0.5814 23.6017 1.4914 23.6017 2.8714V4.0414H19.3817ZM7.7617 24.8414C9.3417 24.8414 10.6417 23.8214 11.0517 22.3914H28.4517C28.8617 23.8214 30.1617 24.8414 31.7417 24.8414C33.3317 24.8414 34.6317 23.8214 35.0417 22.3914H36.5017C38.5117 22.3914 39.5017 21.3514 39.5017 19.2514V16.0114C39.5017 14.1414 38.7117 13.1914 36.6917 12.4914L34.7917 11.8214C32.0517 9.7114 29.7617 7.9914 26.2217 7.6714V8.2514C29.1217 8.4914 31.4217 9.6814 34.1517 12.0814C34.5517 12.4314 34.7017 12.4814 35.0317 12.5814L36.6017 13.0814C38.2817 13.6214 38.9317 14.4014 38.9317 16.0114V19.2514C38.9317 20.9614 38.1217 21.8214 36.5017 21.8214H35.1417C35.1717 21.6914 35.1717 21.5514 35.1717 21.4214C35.1717 19.5014 33.6717 17.9914 31.7417 17.9914C29.8217 17.9914 28.3117 19.5014 28.3117 21.4214C28.3117 21.5514 28.3217 21.6914 28.3317 21.8214H11.1717C11.1817 21.6914 11.1917 21.5514 11.1917 21.4214C11.1917 19.5014 9.6817 17.9914 7.7617 17.9914C5.8317 17.9914 4.3317 19.5014 4.3317 21.4214C4.3317 21.5514 4.3517 21.6914 4.3617 21.8214H3.0117C1.3817 21.8214 0.5717 20.9614 0.5717 19.2514V17.5514C0.5717 15.6214 2.0417 14.2314 4.3617 13.9414L9.1917 13.3614C9.9617 13.2814 10.1517 13.1714 10.5717 12.9114L14.8117 10.2414C15.4817 9.8214 16.1117 9.4814 16.7417 9.2114V8.5614C15.9917 8.8614 15.2617 9.2614 14.4817 9.7414L9.7417 12.7114L4.2917 13.3814C1.6517 13.7114 0.0017 15.3014 0.0017 17.5514V19.2514C0.0017 21.3514 0.9917 22.3914 3.0117 22.3914H4.4717C4.8917 23.8214 6.1717 24.8414 7.7617 24.8414ZM7.7617 24.2714C6.1717 24.2714 4.9117 23.0014 4.9117 21.4214C4.9117 19.8314 6.1717 18.5614 7.7617 18.5614C9.3517 18.5614 10.6217 19.8314 10.6217 21.4214C10.6217 23.0014 9.3517 24.2714 7.7617 24.2714ZM31.7417 24.2714C30.1517 24.2714 28.9017 23.0014 28.9017 21.4214C28.9017 19.8314 30.1517 18.5614 31.7417 18.5614C33.3417 18.5614 34.5917 19.8314 34.5917 21.4214C34.5917 23.0014 33.3417 24.2714 31.7417 24.2714Z" />
        </svg>
    