
        <svg xmlns="http://www.w3.org/2000/svg" viewBox="0 0 100 100">
            <path d="M0.2817 20.9572C0.4417 20.9572 0.5717 20.8372 0.5717 20.6572V13.0972H2.9617V23.3072C2.9617 25.5472 5.5217 26.7972 10.0817 26.7972C14.6517 26.7972 17.2017 25.5472 17.2017 23.3072V4.3672C17.2017 1.5672 14.6617 -0.0028 10.0817 -0.0028C5.5117 -0.0028 2.9617 1.5672 2.9617 4.3672V12.5272H0.5717V11.0972C0.5717 10.9372 0.4417 10.8172 0.2817 10.8172C0.1417 10.8172 0.0017 10.9372 0.0017 11.0872V20.6872C0.0017 20.8372 0.1417 20.9572 0.2817 20.9572ZM10.0917 11.2072C8.8517 11.2072 7.1117 11.3072 6.5517 11.3072C5.7117 11.3072 5.2817 10.9772 5.2117 10.0472L5.0617 8.3472C4.9317 6.7772 5.5817 5.9872 10.0917 5.9872C14.6017 5.9872 15.2417 6.7772 15.1217 8.3472L14.9617 10.0472C14.8917 10.9772 14.4717 11.3072 13.6417 11.3072C13.0617 11.3072 11.0317 11.2072 10.0917 11.2072ZM10.0917 23.4972C6.1717 23.4972 5.0517 22.9572 5.2017 21.3772L5.3017 20.3872C5.4117 19.1172 6.4817 18.6772 10.0917 18.6772C13.7017 18.6772 14.7817 19.1172 14.8917 20.3872L14.9717 21.3772C15.1317 22.9572 14.0017 23.4972 10.0917 23.4972Z" />
        </svg>
    