
        <svg xmlns="http://www.w3.org/2000/svg" viewBox="0 0 100 100">
            <path d="M10.5117 21.5939C12.5017 21.5939 14.1917 20.5339 15.0717 18.9239H30.4917C31.3717 20.5339 33.0717 21.5939 35.0517 21.5939C37.0417 21.5939 38.7417 20.5339 39.6217 18.9239H40.8417C43.8917 18.9239 45.5617 17.1639 45.5617 13.9439V10.5439C45.5617 7.9139 44.1417 6.2939 41.5317 5.3439L39.7517 4.7039C37.4217 2.6639 33.6817 0.0039 28.9117 0.0039H26.9317C21.6917 0.0039 19.4717 0.5139 16.3017 2.5239L14.3817 3.7539L16.6017 6.6339L18.2317 5.6039C20.8617 3.9639 22.3017 3.6139 26.9317 3.6139H28.9117C31.8417 3.6139 34.1417 4.7039 37.2417 7.3939C37.9117 7.9839 38.3717 8.1939 39.2417 8.4739L40.4517 8.8639C41.4217 9.1639 41.9517 9.8639 41.9517 10.8239V13.9439C41.9517 14.8239 41.5617 15.3139 40.8417 15.3139H40.1517C39.6717 12.9339 37.5917 11.2039 35.0517 11.2039C32.5217 11.2039 30.4617 12.9339 29.9717 15.3139H15.5817C15.1017 12.9339 13.0417 11.2039 10.5117 11.2039C7.9817 11.2039 5.9017 12.9339 5.4217 15.3139H4.7217C3.9917 15.3139 3.6117 14.8239 3.6117 13.9439V12.5539C3.6117 11.0239 4.5817 10.0339 6.7017 9.7839L11.2717 9.2239L8.7517 5.9039L6.2317 6.2039C2.3817 6.6539 0.0017 9.1639 0.0017 12.5539V14.0439C0.0017 17.1939 1.6717 18.9239 4.7217 18.9239H5.9417C6.8217 20.5339 8.5217 21.5939 10.5117 21.5939ZM17.2017 10.7839H19.8917V11.6339C19.8917 12.6139 20.7217 12.8939 21.4317 12.4339L24.4117 10.5139C25.0817 10.0939 25.0917 9.2539 24.4117 8.8239L21.4617 6.9239C20.7217 6.4439 19.8917 6.7239 19.8917 7.7239V8.5439H17.2017C16.0617 8.5439 15.6717 8.3339 14.9317 7.3739L11.8517 3.3539C10.7917 1.9539 9.5317 1.4039 7.6317 1.4039H4.8517C4.2417 1.4039 3.7217 1.9139 3.7217 2.5339C3.7217 3.1439 4.2417 3.6439 4.8517 3.6439H7.6317C8.9617 3.6439 9.4117 3.8439 10.0917 4.7239L13.1417 8.7539C14.2117 10.1739 15.4417 10.7839 17.2017 10.7839ZM10.5117 18.1439C9.5317 18.1439 8.7517 17.3739 8.7517 16.4039C8.7517 15.4239 9.5317 14.6439 10.5117 14.6439C11.4817 14.6439 12.2417 15.4239 12.2417 16.4039C12.2417 17.3739 11.4817 18.1439 10.5117 18.1439ZM35.0517 18.1439C34.0817 18.1439 33.3117 17.3739 33.3117 16.4039C33.3117 15.4239 34.0817 14.6439 35.0517 14.6439C36.0317 14.6439 36.8117 15.4239 36.8117 16.4039C36.8117 17.3739 36.0317 18.1439 35.0517 18.1439Z" />
        </svg>
    