
        <svg xmlns="http://www.w3.org/2000/svg" viewBox="0 0 100 100">
            <path d="M1.1417 2.2172H4.9117C5.4117 2.2172 5.7317 2.3472 6.0317 2.6472L9.2417 5.8672L5.7417 6.3072C2.1517 6.7472 0.0517 8.9372 0.0517 12.0572V13.9072C0.0517 16.7372 1.4317 18.0672 4.0817 18.0672H4.8917C4.7917 17.6472 4.7317 17.2172 4.7317 16.7672C4.7317 13.7772 7.1217 11.3872 10.1217 11.3872C13.1217 11.3872 15.5117 13.7772 15.5117 16.7672C15.5117 17.2172 15.4617 17.6472 15.3517 18.0672H22.4417V0.3272C19.8517 0.5972 18.1617 1.2372 16.0417 2.5672L11.8217 5.2272L7.6617 1.0672C6.9117 0.3172 6.0917 -0.0028 4.8017 -0.0028H1.1417C0.4617 -0.0028 0.0017 0.4572 0.0017 1.0972C0.0017 1.7572 0.4417 2.2172 1.1417 2.2172ZM10.1217 20.6572C12.2917 20.6572 14.0317 18.9372 14.0317 16.7672C14.0317 14.5972 12.2917 12.8772 10.1217 12.8772C7.9617 12.8772 6.2217 14.5972 6.2217 16.7672C6.2217 18.9372 7.9617 20.6572 10.1217 20.6572Z" />
        </svg>
    