
        <svg xmlns="http://www.w3.org/2000/svg" viewBox="0 0 100 100">
            <path d="M26.8342 23.6974C26.9542 23.8174 27.1242 23.8274 27.2442 23.6974C27.3942 23.5674 27.3642 23.3974 27.2442 23.2874L4.0542 0.0874C3.9642 -0.0126 3.7842 -0.0426 3.6442 0.0874C3.5342 0.1974 3.5342 0.3874 3.6442 0.5074ZM16.3842 9.8674H19.7742V10.4774C19.7742 10.8574 20.0642 11.1474 20.4542 11.1474H21.0742C21.4642 11.1474 21.7542 10.8574 21.7542 10.4774V7.2574C21.7542 6.2374 21.4842 5.7774 21.0842 5.2374L20.5942 4.5974L19.9442 2.7774C19.6342 1.8874 19.1142 1.4874 18.3742 1.4174C17.9942 1.3574 16.6942 1.3274 15.4642 1.3274C14.2442 1.3274 12.9442 1.3574 12.5642 1.4174C11.8142 1.4874 11.3042 1.8874 10.9842 2.7774L10.5542 4.0174L13.8142 7.3074V6.5074C13.8142 6.2974 13.9242 6.1774 14.1342 6.1774H16.7342C16.9242 6.1774 17.0542 6.2974 17.0542 6.5074V7.2674C17.0542 7.4774 16.9242 7.5974 16.7342 7.5974H14.1142ZM11.4842 4.2474C11.2842 4.2474 11.1942 4.0674 11.2742 3.8374L11.6142 2.8774C11.8242 2.2674 12.1242 2.0074 12.6742 1.9374C13.1142 1.8874 13.9242 1.8574 15.4642 1.8574C17.0042 1.8574 17.8042 1.8874 18.2642 1.9374C18.8142 2.0074 19.1142 2.2674 19.3242 2.8774L19.6642 3.8374C19.7442 4.0674 19.6542 4.2474 19.4442 4.2474ZM20.0442 7.8074C19.7842 7.8074 19.5942 7.6074 19.5942 7.3574V6.4274C19.5942 6.1774 19.7842 5.9774 20.0442 5.9774C20.3142 5.9774 20.4842 6.1674 20.4842 6.4274V7.3574C20.4842 7.6074 20.3142 7.8074 20.0442 7.8074ZM6.1542 6.9174L0.0542 19.6274C-0.0658 19.8774 0.0242 20.0974 0.3042 20.0974H1.4242C1.6942 20.0974 1.8342 20.0074 1.9342 19.7374L7.1042 6.9674C7.1542 6.8674 7.0642 6.7974 6.9742 6.7974H6.3942C6.2742 6.7974 6.2042 6.8174 6.1542 6.9174ZM24.8042 6.9174C24.7542 6.8174 24.6842 6.7974 24.5642 6.7974H23.9742C23.8842 6.7974 23.8142 6.8674 23.8542 6.9674L29.0142 19.7374C29.1242 20.0074 29.2742 20.0974 29.5342 20.0974H30.6442C30.9442 20.0974 31.0242 19.8774 30.9042 19.6274ZM20.8242 23.5074L18.0642 18.3274H18.0542L13.6242 13.9074L14.3842 16.1574L13.2142 15.6374C12.9642 15.5174 12.7642 15.6974 12.9642 15.9674L13.5942 16.8174L10.5742 16.3974C10.2942 16.3474 10.1442 16.6474 10.4242 16.8274L13.2642 18.5574L11.5542 19.1974C11.2442 19.3174 11.2842 19.6174 11.6142 19.6474L13.5242 19.7874L10.9442 21.5274C10.6742 21.7074 10.8142 22.0474 11.1342 21.9774L14.4042 21.2374L14.4442 23.9774C14.4442 24.2374 14.7242 24.2674 14.8242 24.0874L16.9142 20.6574L20.4242 23.8174C20.6942 24.0674 20.9742 23.7774 20.8242 23.5074Z" />
        </svg>
    