
        <svg xmlns="http://www.w3.org/2000/svg" viewBox="0 0 100 100">
            <path d="M21.0317 17.7519C24.5417 17.7519 26.1917 16.7619 26.1917 14.5619V7.5319H26.5817C27.1417 7.5319 27.5117 7.0919 27.5117 6.4419V6.4019C27.5117 5.7419 27.1417 5.3119 26.5817 5.3119H26.1917V3.6119C26.1917 1.2419 24.3917 0.0019 21.0317 0.0019C17.6617 0.0019 15.8717 1.2319 15.8717 3.6119V5.3919H15.4817C14.9217 5.3919 14.5417 5.8119 14.5417 6.4719V6.5319C14.5417 7.1719 14.9217 7.6019 15.4817 7.6019H15.8717V14.5619C15.8717 16.7619 17.5117 17.7519 21.0317 17.7519ZM21.0317 7.7319C20.3317 7.7319 19.4317 7.8019 19.2417 7.8019C18.6717 7.8019 18.4117 7.5619 18.3517 6.9719L18.2217 5.6319C18.1217 4.5319 18.9617 4.1219 21.0317 4.1219C23.1017 4.1219 23.9317 4.5319 23.8217 5.6319L23.7117 6.9719C23.6517 7.5619 23.3917 7.8019 22.8117 7.8019C22.6317 7.8019 21.7217 7.7319 21.0317 7.7319ZM21.0317 14.9619C18.8417 14.9619 18.0817 14.5819 18.2417 13.4519L18.3417 12.8219C18.4717 11.9019 19.2317 11.6319 21.0317 11.6319C22.8317 11.6319 23.5917 11.9019 23.7217 12.8219L23.8117 13.4519C23.9917 14.5819 23.2117 14.9619 21.0317 14.9619ZM13.6017 19.2319C14.4517 20.0719 15.5117 20.5619 16.6217 20.7219C17.4017 20.8119 18.0017 20.2719 18.0017 19.4719C18.0017 18.8519 17.5617 18.4719 16.7417 18.3019C16.2217 18.2019 15.7417 17.9619 15.2917 17.5319C14.8717 17.0819 14.6217 16.6219 14.5217 16.0819C14.3717 15.2719 13.9917 14.8219 13.3617 14.8219C12.5717 14.8219 12.0117 15.4419 12.1217 16.2319C12.2817 17.3719 12.7717 18.4119 13.6017 19.2319ZM11.0017 21.8219C12.4217 23.2419 14.2417 24.0419 16.1517 24.1619C16.9617 24.2119 17.4817 23.6619 17.4817 22.9019C17.4817 22.2619 16.9917 21.8119 16.1617 21.7219C14.8717 21.6119 13.7017 21.1019 12.7117 20.1219C11.7317 19.1319 11.1817 17.9619 11.1117 16.6719C11.0417 15.8419 10.5717 15.3419 9.9217 15.3419C9.1917 15.3419 8.6217 15.8719 8.6617 16.6919C8.8017 18.6119 9.6017 20.4119 11.0017 21.8219ZM11.6517 31.9219V29.8619H12.0317C12.6017 29.8619 12.9717 29.4119 12.9717 28.7819V28.7319C12.9717 28.0819 12.6017 27.6319 12.0317 27.6319H11.6517V25.9319C11.6517 23.5819 9.8417 22.3319 6.4917 22.3319C3.1317 22.3319 1.3217 23.5619 1.3217 25.9319V27.7119H0.9417C0.3717 27.7119 0.0017 28.1519 0.0017 28.8019V28.8619C0.0017 29.4919 0.3717 29.9319 0.9417 29.9319H1.3217V31.9219ZM6.4917 30.0719C5.7917 30.0719 4.8917 30.1419 4.7017 30.1419C4.1217 30.1419 3.8717 29.8819 3.8117 29.3019L3.6817 27.9719C3.5717 26.8619 4.4217 26.4619 6.4917 26.4619C8.5517 26.4619 9.3917 26.8619 9.2917 27.9719L9.1617 29.3019C9.1017 29.8819 8.8617 30.1419 8.2717 30.1419C8.1017 30.1419 7.1817 30.0719 6.4917 30.0719Z" />
        </svg>
    