
        <svg xmlns="http://www.w3.org/2000/svg" viewBox="0 0 100 100">
            <path d="M4.3817 22.8116H22.4617C25.2617 22.8116 26.8517 21.2316 26.8517 18.4416V4.3316C26.8517 1.5716 25.2617 0.0016 22.4917 0.0016H16.7117C14.5517 0.0016 13.1517 0.4816 11.4017 1.7716L2.2417 8.6016C0.5817 9.8316 0.0017 11.0416 0.0017 13.0316V18.4416C0.0017 21.2316 1.5817 22.8116 4.3817 22.8116ZM6.2917 11.3816C5.6917 11.3816 5.5117 10.6716 6.0117 10.3016L13.9317 4.3816C14.6817 3.8116 15.2817 3.6216 16.2917 3.6216H21.9917C22.8017 3.6216 23.2117 3.9816 23.2117 4.8516V10.1416C23.2117 10.8416 22.7917 11.3816 21.9917 11.3816ZM33.1317 17.8216C33.8117 17.8216 34.0817 17.5816 34.6917 16.9916L37.9317 13.7916L41.1817 16.9916C41.7917 17.5616 42.0717 17.8216 42.7417 17.8216C43.6617 17.8216 44.3817 17.1316 44.3817 16.2416C44.3817 15.6316 44.0817 15.2716 43.5817 14.7816L40.2317 11.4016L43.5817 8.0116C44.0717 7.5316 44.3817 7.1616 44.3817 6.5516C44.3817 5.6616 43.6617 4.9816 42.7517 4.9816C42.0717 4.9816 41.7917 5.2116 41.1817 5.8016L37.9317 9.0116L34.6917 5.8016C34.0917 5.2116 33.8017 4.9616 33.0717 4.9616C32.1917 4.9616 31.5017 5.6116 31.5017 6.5116C31.5017 7.1716 31.8017 7.5516 32.2817 8.0316L35.6517 11.4016L32.2817 14.7816C31.7917 15.2816 31.4917 15.6416 31.4917 16.2516C31.4917 17.1316 32.2017 17.8216 33.1317 17.8216Z" />
        </svg>
    