
        <svg xmlns="http://www.w3.org/2000/svg" viewBox="0 0 100 100">
            <path d="M8.3117 22.98C12.8517 22.98 14.9417 21.76 14.9417 18.97V9.68H15.4417C16.1417 9.68 16.6217 9.15 16.6217 8.38V8.23C16.6217 7.45 16.1417 6.91 15.4417 6.91H14.9417V4.57C14.9417 1.59 12.5817 0 8.3117 0C4.0417 0 1.6717 1.61 1.6717 4.57V6.84H1.1717C0.4717 6.84 0.0017 7.38 0.0017 8.16V8.31C0.0017 9.08 0.4717 9.61 1.1717 9.61H1.6717V18.97C1.6717 21.76 3.7717 22.98 8.3117 22.98ZM8.3117 9.9C7.4017 9.9 6.2117 10.01 5.9217 10.01C5.1817 10.01 4.8417 9.68 4.7717 8.92L4.6217 7.21C4.4717 5.79 5.5317 5.26 8.3117 5.26C11.0817 5.26 12.1317 5.79 12.0017 7.21L11.8517 8.92C11.7917 9.68 11.4417 10.01 10.7017 10.01C10.4017 10.01 9.1917 9.9 8.3117 9.9ZM8.3117 19.34C5.4117 19.34 4.4317 18.84 4.6417 17.4L4.7717 16.58C4.9317 15.41 5.8917 15.06 8.3117 15.06C10.7217 15.06 11.6917 15.41 11.8517 16.58L11.9717 17.4C12.1717 18.84 11.2017 19.34 8.3117 19.34ZM17.7117 24.71C18.7517 23.66 19.3717 22.37 19.5717 20.93C19.6717 20.05 19.0817 19.38 18.2317 19.38C17.5217 19.38 17.1117 19.84 16.9417 20.79C16.8017 21.55 16.4617 22.25 15.8517 22.87C15.2417 23.48 14.5417 23.81 13.8017 23.95C12.8417 24.12 12.3717 24.56 12.3717 25.24C12.3717 26.09 13.0217 26.67 13.8717 26.59C15.1917 26.44 16.5917 25.82 17.7117 24.71ZM20.9517 27.95C22.7717 26.16 23.7617 23.86 23.9417 21.4C23.9917 20.48 23.3717 19.93 22.5717 19.93C21.8417 19.93 21.3517 20.44 21.2717 21.41C21.1617 23.16 20.4217 24.79 19.1017 26.11C17.7617 27.43 16.1417 28.13 14.4017 28.28C13.4617 28.36 12.9117 28.86 12.9117 29.55C12.9117 30.39 13.4917 30.98 14.3817 30.95C16.8517 30.82 19.1517 29.78 20.9517 27.95Z" />
        </svg>
    