
        <svg xmlns="http://www.w3.org/2000/svg" viewBox="0 0 100 100">
            <path d="M23.3817 12.7802H29.4017C30.4017 12.7802 30.9117 12.2802 30.9117 11.1902V6.4202C30.9117 5.4702 30.5117 4.9702 29.7517 4.8502V3.4002C29.7517 1.3802 28.3817 0.0002 26.3917 0.0002C24.4017 0.0002 23.0117 1.3802 23.0117 3.4002V4.8502C22.2517 4.9702 21.8717 5.4802 21.8717 6.4202V11.1902C21.8717 12.2802 22.3817 12.7802 23.3817 12.7802ZM24.9417 3.3702C24.9417 2.5002 25.5217 1.8702 26.3917 1.8702C27.2317 1.8702 27.8417 2.5002 27.8417 3.3702V4.8302H24.9417ZM41.5317 12.7502L39.7517 12.1102C38.1117 10.6502 35.7517 8.9102 32.8317 8.0202V11.1902C32.8317 13.3502 31.4617 14.7202 29.4017 14.7202H23.3817C21.3017 14.7202 19.9217 13.3502 19.9217 11.1902V8.1802C18.6917 8.5502 17.5817 9.1302 16.3017 9.9302L11.4817 12.9702L6.2317 13.6102C2.3817 14.0602 0.0017 16.5702 0.0017 19.9602V21.4502C0.0017 24.6002 1.6717 26.3302 4.7217 26.3302H4.9717C4.8417 25.8602 4.7817 25.3702 4.7817 24.8702C4.7817 21.6702 7.3817 19.0802 10.5817 19.0802C13.7717 19.0802 16.3817 21.6702 16.3817 24.8702C16.3817 25.3702 16.3117 25.8602 16.1917 26.3302H29.3817C29.2517 25.8602 29.1917 25.3702 29.1917 24.8702C29.1917 21.6702 31.7917 19.0802 34.9917 19.0802C38.1817 19.0802 40.7917 21.6702 40.7917 24.8702C40.7917 25.3702 40.7117 25.8602 40.5917 26.3302H40.8417C43.8917 26.3302 45.5617 24.5702 45.5617 21.3502V17.9502C45.5617 15.3202 44.1417 13.7002 41.5317 12.7502ZM10.5817 28.9002C12.8017 28.9002 14.6117 27.0902 14.6117 24.8702C14.6117 22.6502 12.8017 20.8502 10.5817 20.8502C8.3717 20.8502 6.5517 22.6502 6.5517 24.8702C6.5517 27.0902 8.3717 28.9002 10.5817 28.9002ZM34.9917 28.9002C37.2117 28.9002 39.0217 27.0902 39.0217 24.8702C39.0217 22.6502 37.2117 20.8502 34.9917 20.8502C32.7817 20.8502 30.9617 22.6502 30.9617 24.8702C30.9617 27.0902 32.7817 28.9002 34.9917 28.9002Z" />
        </svg>
    