
        <svg xmlns="http://www.w3.org/2000/svg" viewBox="0 0 100 100">
            <path d="M10.8017 0.8794C13.4917 0.8794 15.8717 1.9094 17.6617 3.6594C17.8617 3.8394 18.1217 3.8994 18.3017 3.7394C18.5017 3.5694 18.5017 3.2694 18.2917 3.0694C16.3517 1.1594 13.7117 -0.0006 10.8017 -0.0006C7.9017 -0.0006 5.2617 1.1594 3.3317 3.0694C3.1217 3.2694 3.1217 3.5694 3.3117 3.7394C3.4917 3.8994 3.7617 3.8394 3.9617 3.6594C5.7417 1.9094 8.1317 0.8794 10.8017 0.8794ZM10.8017 5.3994C12.2217 5.3994 13.5517 5.8494 14.4417 6.7994C14.6417 6.9794 14.9017 7.0394 15.0917 6.8794C15.2817 6.6994 15.2917 6.3894 15.0717 6.1994C13.9617 5.1294 12.4417 4.5194 10.8017 4.5194C9.1717 4.5194 7.6617 5.1294 6.5517 6.1994C6.3317 6.3894 6.3317 6.6994 6.5317 6.8794C6.7117 7.0394 6.9617 6.9694 7.1817 6.7994C8.1717 5.9494 9.4017 5.3994 10.8017 5.3994ZM0.0017 25.0594C0.0017 25.7194 0.5317 26.2494 1.2117 26.2494H2.2717C2.9417 26.2494 3.4717 25.7194 3.4717 25.0594V23.9894H18.1517V25.0594C18.1517 25.7194 18.6817 26.2494 19.3517 26.2494H20.4017C21.0917 26.2494 21.6217 25.7194 21.6217 25.0594V19.3994C21.6217 17.6994 21.2217 16.8894 20.4617 15.9394L19.6017 14.8494L18.5317 11.8394C17.9917 10.2894 17.0717 9.6294 15.8017 9.4894C15.1417 9.4094 12.9717 9.3594 10.8017 9.3594C8.6517 9.3594 6.4717 9.4094 5.8217 9.4894C4.5517 9.6294 3.6317 10.2894 3.0817 11.8394L2.0117 14.8494L1.1617 15.9394C0.4017 16.8894 0.0017 17.6994 0.0017 19.3994ZM4.1417 14.3894C3.7717 14.3894 3.6317 14.0994 3.7617 13.7194L4.3317 12.0594C4.6517 11.1294 5.1217 10.7494 5.9617 10.6294C6.7117 10.5494 8.1717 10.4894 10.8017 10.4894C13.4417 10.4894 14.9017 10.5494 15.6417 10.6294C16.4917 10.7494 16.9717 11.1294 17.2817 12.0594L17.8617 13.7194C17.9917 14.0994 17.8517 14.3894 17.4817 14.3894ZM3.0517 20.3994C2.5817 20.3994 2.2617 20.0894 2.2617 19.6194V18.0494C2.2617 17.5994 2.5817 17.2694 3.0517 17.2694C3.5017 17.2694 3.8317 17.5894 3.8317 18.0494V19.6194C3.8317 20.0894 3.5017 20.3994 3.0517 20.3994ZM18.5817 20.3994C18.1417 20.3994 17.8117 20.0694 17.8117 19.6194V18.0494C17.8117 17.6094 18.1417 17.2694 18.5817 17.2694C19.0517 17.2694 19.3817 17.5894 19.3817 18.0494V19.6194C19.3817 20.0894 19.0517 20.3994 18.5817 20.3994ZM8.5617 20.0394C8.2117 20.0394 8.0017 19.8294 8.0017 19.4394V18.2094C8.0017 17.8494 8.2117 17.6394 8.5617 17.6394H12.9517C13.3017 17.6394 13.5217 17.8494 13.5217 18.2094V19.4394C13.5217 19.8294 13.3017 20.0394 12.9517 20.0394Z" />
        </svg>
    