
        <svg xmlns="http://www.w3.org/2000/svg" viewBox="0 0 100 100">
            <path d="M20.6217 17.3567C23.6717 17.3567 25.3217 16.5467 25.3217 14.7567V6.4667H25.6417C26.0117 6.4667 26.2617 6.2467 26.2617 5.9267V5.5267C26.2617 5.2167 26.0117 4.9667 25.6417 4.9667H25.3217V2.9767C25.3217 1.0767 23.6017 -0.0033 20.6217 -0.0033C17.6417 -0.0033 15.8817 1.0767 15.8817 2.9767V4.9667H15.5717C15.2117 4.9667 14.9417 5.2067 14.9417 5.5267V5.9267C14.9417 6.2467 15.2117 6.4667 15.5717 6.4667H15.8817V14.7567C15.8817 16.5467 17.5517 17.3567 20.6217 17.3567ZM20.6217 16.5667C18.0017 16.5667 16.6617 16.0167 16.6617 14.7467V2.9767C16.6617 1.5867 18.0517 0.7567 20.6217 0.7567C23.1917 0.7567 24.5417 1.5867 24.5417 2.9767V14.7467C24.5417 16.0167 23.2517 16.5667 20.6217 16.5667ZM20.6117 7.3567C21.3717 7.3567 22.4417 7.4267 22.7917 7.4267C23.3917 7.4267 23.6617 7.1967 23.7217 6.5467L23.8117 5.4267C23.9017 4.3667 23.4017 3.8567 20.6117 3.8567C17.8117 3.8567 17.3117 4.3667 17.4017 5.4267L17.4917 6.5467C17.5517 7.1967 17.8317 7.4267 18.4217 7.4267C18.7717 7.4267 20.0017 7.3567 20.6117 7.3567ZM20.6117 15.0467C23.1017 15.0467 23.8717 14.6867 23.7517 13.6067L23.6817 12.9867C23.5917 12.0867 22.8617 11.7867 20.6117 11.7867C18.3617 11.7867 17.6017 12.0867 17.5317 12.9867L17.4717 13.6067C17.3917 14.6967 18.1317 15.0467 20.6117 15.0467ZM11.8717 20.3867C13.2117 21.7467 15.0017 22.4967 16.9017 22.4967C17.1817 22.4967 17.3217 22.3167 17.3217 22.0967C17.3217 21.9067 17.1717 21.7367 16.8717 21.7267C15.2117 21.7067 13.6517 21.0667 12.4117 19.8467C11.1917 18.6167 10.5517 17.0467 10.5217 15.3867C10.5117 15.0867 10.3617 14.9367 10.1617 14.9367C9.9517 14.9367 9.7617 15.1067 9.7717 15.3667C9.8017 17.2867 10.5217 19.0667 11.8717 20.3867ZM14.0117 18.2467C14.8117 19.0567 15.8817 19.4867 16.9017 19.4867C17.1517 19.4867 17.3217 19.3167 17.3017 19.1167C17.3017 18.8567 17.1317 18.7267 16.8317 18.7167C16.0317 18.7067 15.2617 18.3867 14.5617 17.7067C13.8917 17.0167 13.5717 16.2467 13.5517 15.4067C13.5217 15.1367 13.4317 14.9567 13.1617 14.9667C12.9517 14.9367 12.7517 15.1167 12.7617 15.3867C12.7817 16.4667 13.2417 17.4867 14.0117 18.2467ZM10.3717 30.3467V27.3867H10.6917C11.0617 27.3867 11.3117 27.1667 11.3117 26.8367V26.4467C11.3117 26.1367 11.0617 25.8867 10.6917 25.8867H10.3717V23.8967C10.3717 21.9967 8.6517 20.9167 5.6717 20.9167C2.6817 20.9167 0.9417 21.9967 0.9417 23.8967V25.8867H0.6317C0.2717 25.8867 0.0017 26.1167 0.0017 26.4467V26.8367C0.0017 27.1667 0.2717 27.3867 0.6317 27.3867H0.9417V30.3467H1.7117V23.8967C1.7117 22.4967 3.1017 21.6767 5.6717 21.6767C8.2517 21.6767 9.6017 22.4967 9.6017 23.8967V30.3467ZM5.6617 28.2767C6.4217 28.2767 7.5017 28.3467 7.8517 28.3467C8.4417 28.3467 8.7217 28.1167 8.7817 27.4667L8.8717 26.3367C8.9517 25.2867 8.4617 24.7767 5.6617 24.7767C2.8617 24.7767 2.3717 25.2867 2.4517 26.3367L2.5417 27.4667C2.6017 28.1167 2.8917 28.3467 3.4717 28.3467C3.8317 28.3467 5.0617 28.2767 5.6617 28.2767Z" />
        </svg>
    