
        <svg xmlns="http://www.w3.org/2000/svg" viewBox="0 0 100 100">
            <path d="M7.0317 22.05C10.7717 22.05 12.8917 21.02 12.8917 18.84V7.92H13.3617C13.7717 7.92 14.0017 7.71 14.0017 7.38V6.87C14.0017 6.54 13.7717 6.32 13.3617 6.32H12.8917V3.62C12.8917 1.31 10.7717 0 7.0317 0C3.2617 0 1.1217 1.31 1.1217 3.62V6.32H0.6717C0.2417 6.32 0.0017 6.54 0.0017 6.87V7.38C0.0017 7.71 0.2417 7.92 0.6717 7.92H1.1217V18.84C1.1217 21.02 3.2717 22.05 7.0317 22.05ZM7.0117 9.27C6.2317 9.27 4.5717 9.35 4.1017 9.35C3.3917 9.35 3.0517 9.07 2.9617 8.27L2.8517 6.88C2.7417 5.57 3.2917 4.9 7.0117 4.9C10.7317 4.9 11.2717 5.57 11.1717 6.88L11.0517 8.27C10.9817 9.07 10.6417 9.35 9.9117 9.35C9.4617 9.35 8.0317 9.27 7.0117 9.27ZM7.0117 19.36C3.8017 19.36 2.8317 18.9 2.9517 17.57L3.0217 16.76C3.1317 15.67 4.0417 15.29 7.0117 15.29C9.9717 15.29 10.8917 15.67 10.9917 16.76L11.0617 17.57C11.1817 18.9 10.2317 19.36 7.0117 19.36ZM7.0317 25.11C5.6817 25.11 4.6017 24.64 3.8517 23.85C3.6917 23.67 3.5317 23.61 3.3617 23.78C3.2617 23.87 3.2317 24.06 3.4017 24.22C4.3617 25.18 5.6617 25.71 7.0317 25.71C8.3917 25.71 9.6917 25.18 10.6517 24.22C10.8117 24.06 10.8017 23.87 10.6917 23.78C10.5217 23.61 10.3617 23.67 10.1917 23.85C9.4417 24.64 8.3717 25.11 7.0317 25.11ZM7.0317 28.98C4.7217 28.98 2.6417 28.09 1.0417 26.5C0.8917 26.33 0.7117 26.37 0.6217 26.45C0.5017 26.55 0.4717 26.74 0.6117 26.88C2.3517 28.62 4.6217 29.58 7.0317 29.58C9.4317 29.58 11.7117 28.62 13.4417 26.88C13.5817 26.74 13.5517 26.55 13.4417 26.45C13.3317 26.37 13.1617 26.33 13.0117 26.5C11.4117 28.09 9.3417 28.98 7.0317 28.98Z" />
        </svg>
    