
        <svg xmlns="http://www.w3.org/2000/svg" viewBox="0 0 100 100">
            <path d="M11.0117 21.2655C14.6117 23.3355 16.7017 23.4655 17.8917 21.3955L22.6017 13.2155L23.0017 13.4555C23.4617 13.7255 24.0317 13.5655 24.2817 13.1355L24.4817 12.7755C24.7217 12.3255 24.5817 11.7755 24.1217 11.5055L23.7217 11.2855L24.8917 9.2555C25.7917 7.7155 25.3817 6.0355 23.8717 4.5255V0.6955C23.8717 0.2955 23.5817 -0.0045 23.1817 -0.0045H22.5617C22.1617 -0.0045 21.8717 0.2955 21.8717 0.6955V2.9955C21.8017 2.9555 21.7217 2.9155 21.6417 2.8755C18.4217 1.0155 15.7417 1.1255 14.5117 3.2555L13.3317 5.2855L12.9417 5.0655C12.4817 4.7955 11.9317 4.9355 11.6717 5.3755L11.4617 5.7255C11.2017 6.1655 11.3717 6.7355 11.8117 6.9955L12.2217 7.2155L7.5017 15.3955C6.3017 17.4655 7.4417 19.2055 11.0117 21.2655ZM0.6917 6.3555H1.3217C1.7117 6.3555 2.0017 6.0555 2.0017 5.6555V0.6955C2.0017 0.2955 1.7117 -0.0045 1.3217 -0.0045H0.6917C0.2917 -0.0045 0.0017 0.2955 0.0017 0.6955V5.6555C0.0017 6.0555 0.2917 6.3555 0.6917 6.3555ZM17.2117 10.5455C16.5217 10.1455 15.4317 9.6255 15.0717 9.3855C14.4717 9.0555 14.3717 8.6555 14.6617 8.0355L15.3017 6.6255C15.8717 5.4455 16.8417 5.4455 19.3217 6.8955C21.8317 8.3355 22.3117 9.1755 21.5817 10.2255L20.6817 11.5055C20.2717 12.1055 19.8617 12.1755 19.3017 11.8455C18.9417 11.6355 17.8717 10.9355 17.2117 10.5455ZM0.6917 15.0355H1.3217C1.7117 15.0355 2.0017 14.7455 2.0017 14.3455V9.3855C2.0017 8.9955 1.7117 8.7055 1.3217 8.7055H0.6917C0.2917 8.7055 0.0017 8.9955 0.0017 9.3855V14.3455C0.0017 14.7455 0.2917 15.0355 0.6917 15.0355ZM12.7417 18.3055C10.2617 16.8755 9.6817 16.0555 10.5117 14.9955L10.9917 14.4055C11.6517 13.5555 12.5517 13.6955 14.6817 14.9455C16.8417 16.1755 17.3917 16.8655 16.9917 17.8755L16.7217 18.5855C16.2417 19.8255 15.2217 19.7455 12.7417 18.3055ZM22.5617 23.7355H23.1817C23.5817 23.7355 23.8717 23.4355 23.8717 23.0555V18.0855C23.8717 17.6855 23.5817 17.3955 23.1817 17.3955H22.5617C22.1617 17.3955 21.8717 17.6855 21.8717 18.0855V23.0555C21.8717 23.4355 22.1617 23.7355 22.5617 23.7355ZM0.6917 23.7455H1.3217C1.7117 23.7455 2.0017 23.4455 2.0017 23.0555V18.0855C2.0017 17.6855 1.7117 17.3955 1.3217 17.3955H0.6917C0.2917 17.3955 0.0017 17.6855 0.0017 18.0855V23.0555C0.0017 23.4455 0.2917 23.7455 0.6917 23.7455Z" />
        </svg>
    