
        <svg xmlns="http://www.w3.org/2000/svg" viewBox="0 0 100 100">
            <path d="M1.3017 2.5228H5.0817C5.6217 2.5228 5.9317 2.6628 6.2417 2.9928L9.3717 6.1128L6.0517 6.5228C2.2717 7.0028 0.0717 9.2928 0.0717 12.6228V14.6728C0.0717 17.5828 1.5717 18.9928 4.2817 18.9928H5.1217C5.0117 18.5428 4.9617 18.0628 4.9617 17.5828C4.9617 14.4328 7.4917 11.9228 10.6417 11.9228C13.7817 11.9228 16.3117 14.4328 16.3117 17.5828C16.3117 18.0628 16.2517 18.5428 16.1417 18.9928H22.8117V0.4528C20.3317 0.7528 18.6517 1.4228 16.5717 2.7328L12.3117 5.4028L8.0317 1.1128C7.2417 0.3428 6.4617 0.0028 5.0417 0.0028H1.3017C0.5117 0.0028 0.0017 0.5128 0.0017 1.2528C0.0017 1.9928 0.5117 2.5228 1.3017 2.5228ZM10.6417 21.6928C12.9117 21.6928 14.7417 19.8628 14.7417 17.5828C14.7417 15.3028 12.9117 13.4728 10.6417 13.4728C8.3517 13.4728 6.5117 15.3028 6.5117 17.5828C6.5117 19.8628 8.3517 21.6928 10.6417 21.6928Z" />
        </svg>
    