
        <svg xmlns="http://www.w3.org/2000/svg" viewBox="0 0 100 100">
            <path d="M8.3917 22.9575C12.9517 22.9575 15.0617 21.6675 15.0617 18.8175V9.8275H15.5517C16.2917 9.8275 16.7717 9.2575 16.7717 8.4275V8.3675C16.7717 7.5275 16.2917 6.9575 15.5517 6.9575H15.0617V4.6675C15.0617 1.5975 12.7417 -0.0025 8.3917 -0.0025C4.0517 -0.0025 1.7117 1.6075 1.7117 4.6675V6.8675H1.2217C0.4817 6.8675 0.0017 7.4275 0.0017 8.2775V8.3275C0.0017 9.1675 0.4817 9.7275 1.2217 9.7275H1.7117V18.8175C1.7117 21.6675 3.8417 22.9575 8.3917 22.9575ZM8.3917 20.2375C5.6017 20.2375 4.4417 19.7675 4.4417 18.7375V4.7475C4.4417 3.4175 5.7417 2.7375 8.3917 2.7375C11.0517 2.7375 12.3317 3.4175 12.3317 4.7475V18.7375C12.3317 19.7675 11.1817 20.2375 8.3917 20.2375ZM8.3917 10.1575C9.2217 10.1575 10.3117 10.2575 10.5217 10.2575C11.2217 10.2575 11.5417 9.9475 11.6017 9.2475L11.7517 7.6375C11.8717 6.3275 10.8717 5.8375 8.3917 5.8375C5.9017 5.8375 4.9017 6.3275 5.0117 7.6375L5.1717 9.2475C5.2217 9.9475 5.5417 10.2575 6.2417 10.2575C6.4617 10.2575 7.5517 10.1575 8.3917 10.1575ZM8.3917 18.8275C11.0017 18.8275 11.9017 18.3675 11.7317 17.0275L11.6117 16.2775C11.4617 15.1875 10.5517 14.8375 8.3917 14.8375C6.2317 14.8375 5.3117 15.1875 5.1517 16.2775L5.0517 17.0275C4.8617 18.3675 5.7617 18.8275 8.3917 18.8275ZM8.3517 25.1975C7.5317 25.1975 6.8717 24.9575 6.2717 24.5875C5.4017 23.9975 4.7017 23.9375 4.1717 24.4675C3.4817 25.1475 3.5517 26.1475 4.3017 26.7275C5.4217 27.6075 6.8217 28.1175 8.3517 28.1175C9.8817 28.1175 11.2817 27.6075 12.4217 26.7275C13.1717 26.1475 13.2217 25.1475 12.5417 24.4675C12.0017 23.9375 11.3117 23.9875 10.4417 24.5875C9.8517 24.9575 9.1717 25.1975 8.3517 25.1975ZM8.3517 29.9275C6.5517 29.9275 4.9717 29.2975 3.6817 28.2275C2.8817 27.5675 2.0517 27.5275 1.5217 28.0775C0.8717 28.7275 0.8417 29.6575 1.5817 30.3175C3.4417 31.9475 5.7917 32.8475 8.3517 32.8475C10.9317 32.8475 13.2817 31.9575 15.1417 30.3375C15.8717 29.6575 15.8517 28.7275 15.1917 28.0775C14.6617 27.5275 13.8317 27.5475 13.0317 28.2275C11.7817 29.3475 10.1617 29.9275 8.3517 29.9275Z" />
        </svg>
    