
        <svg xmlns="http://www.w3.org/2000/svg" viewBox="0 0 100 100">
            <path d="M0.0017 0.1742V14.7742H7.2617C7.2117 14.4642 7.1617 14.1342 7.1617 13.7942C7.1617 11.3642 9.0717 9.4542 11.4817 9.4542C13.9017 9.4542 15.8117 11.3642 15.8117 13.7942C15.8117 14.1342 15.7717 14.4642 15.7017 14.7742H16.5317C18.5417 14.7742 19.5317 13.7342 19.5317 11.6342V8.3942C19.5317 6.5242 18.7417 5.5742 16.7217 4.8742L15.4917 4.4442L17.4517 2.2342C17.6917 1.9442 17.8917 1.8442 18.2317 1.8442H20.2617C20.4117 1.8442 20.5417 1.7142 20.5417 1.5442C20.5417 1.3942 20.4117 1.2542 20.2617 1.2542H18.2417C17.6617 1.2542 17.3517 1.4142 16.9717 1.8642L14.8717 4.2342L14.8217 4.2042C11.7817 1.8642 9.3017 0.0042 5.0017 0.0042H3.6317C2.2117 0.0042 1.0217 0.0442 0.0017 0.1742ZM11.4817 17.2242C13.4217 17.2242 14.9317 15.7142 14.9317 13.7942C14.9317 11.8642 13.4217 10.3442 11.4817 10.3442C9.5617 10.3442 8.0517 11.8642 8.0517 13.7942C8.0517 15.7142 9.5617 17.2242 11.4817 17.2242Z" />
        </svg>
    