
        <svg xmlns="http://www.w3.org/2000/svg" viewBox="0 0 100 100">
            <path d="M21.0017 17.7847C24.5117 17.7847 26.1417 16.8247 26.1417 14.6847V7.4447H26.5317C27.0717 7.4447 27.4317 7.0147 27.4317 6.4347V6.3147C27.4317 5.7047 27.0717 5.2847 26.5317 5.2847H26.1417V3.5247C26.1417 1.2447 24.3017 0.0047 21.0017 0.0047C17.6917 0.0047 15.8717 1.2347 15.8717 3.5247V5.3547H15.4817C14.9417 5.3547 14.5617 5.7647 14.5617 6.3647V6.4947C14.5617 7.0747 14.9417 7.5047 15.4817 7.5047H15.8717V14.6847C15.8717 16.8247 17.4817 17.7847 21.0017 17.7847ZM21.0017 7.6647C20.3217 7.6647 19.3817 7.7347 19.1617 7.7347C18.5717 7.7347 18.3117 7.4847 18.2617 6.9047L18.1417 5.5747C18.0317 4.4747 18.8517 4.0647 21.0017 4.0647C23.1517 4.0647 23.9617 4.4747 23.8617 5.5747L23.7417 6.9047C23.6817 7.4847 23.4217 7.7347 22.8517 7.7347C22.6317 7.7347 21.7017 7.6647 21.0017 7.6647ZM21.0017 14.9647C18.7617 14.9647 18.0017 14.5947 18.1617 13.4647L18.2617 12.8347C18.3917 11.9147 19.1417 11.6447 21.0017 11.6447C22.8717 11.6447 23.6117 11.9147 23.7517 12.8347L23.8517 13.4647C24.0117 14.5947 23.2517 14.9647 21.0017 14.9647ZM13.6917 19.1747C14.5417 20.0347 15.6717 20.5147 16.6917 20.6347C17.3917 20.7147 17.9317 20.2247 17.9217 19.5247C17.9217 18.9647 17.5317 18.5947 16.7717 18.4547C16.2117 18.3647 15.6817 18.1047 15.2117 17.6347C14.7517 17.1647 14.4917 16.6547 14.3817 16.0647C14.2517 15.3147 13.9217 14.9247 13.3217 14.9247C12.6317 14.9247 12.1317 15.4847 12.2217 16.1947C12.3717 17.3247 12.8517 18.3547 13.6917 19.1747ZM11.1717 21.6747C12.5817 23.0947 14.3817 23.9147 16.2917 24.0147C17.0317 24.0447 17.5117 23.5547 17.5117 22.8747C17.5117 22.2847 17.0517 21.8747 16.2917 21.8047C14.9617 21.6947 13.7217 21.1647 12.7017 20.1547C11.6917 19.1347 11.1217 17.8947 11.0517 16.5547C10.9817 15.7847 10.5617 15.3547 9.9717 15.3547C9.3117 15.3547 8.8117 15.8247 8.8317 16.5547C8.9717 18.4847 9.7617 20.2747 11.1717 21.6747ZM11.5617 31.6847V29.6647H11.9517C12.4917 29.6647 12.8717 29.2347 12.8717 28.6447V28.5347C12.8717 27.9247 12.4917 27.5047 11.9517 27.5047H11.5617V25.7447C11.5617 23.4447 9.7417 22.2147 6.4317 22.2147C3.1217 22.2147 1.3017 23.4447 1.3017 25.7447V27.5647H0.9117C0.3717 27.5647 0.0017 27.9747 0.0017 28.5847V28.7147C0.0017 29.2947 0.3717 29.7047 0.9117 29.7047H1.3017V31.6847ZM6.4317 29.8947C5.7517 29.8947 4.8017 29.9547 4.5817 29.9547C4.0117 29.9547 3.7517 29.7047 3.6917 29.1247L3.5617 27.7947C3.4717 26.6947 4.2817 26.2847 6.4317 26.2847C8.5917 26.2847 9.3917 26.6947 9.2917 27.7947L9.1717 29.1247C9.1217 29.7047 8.8617 29.9547 8.2717 29.9547C8.0517 29.9547 7.1217 29.8947 6.4317 29.8947Z" />
        </svg>
    