
        <svg xmlns="http://www.w3.org/2000/svg" viewBox="0 0 100 100">
            <path d="M8.4017 2.9158C10.1917 2.9158 11.8117 3.5158 13.0817 4.6258C13.8617 5.2958 14.6917 5.3158 15.2217 4.7858C15.8917 4.1358 15.9017 3.1858 15.1717 2.5158C13.3217 0.8858 10.9717 -0.0042 8.4017 -0.0042C5.8217 -0.0042 3.4817 0.9058 1.6217 2.5358C0.8817 3.1858 0.9017 4.1358 1.5617 4.7858C2.0817 5.3158 2.9217 5.2858 3.7217 4.6258C5.0017 3.5458 6.5817 2.9158 8.4017 2.9158ZM8.4017 7.6558C9.2217 7.6558 9.8917 7.8958 10.4917 8.2658C11.3517 8.8758 12.0517 8.9058 12.5817 8.3758C13.2617 7.6958 13.2117 6.7058 12.4617 6.1158C11.3217 5.2358 9.9217 4.7358 8.4017 4.7358C6.8717 4.7358 5.4617 5.2358 4.3317 6.1158C3.6017 6.7058 3.5317 7.6958 4.2217 8.3758C4.7317 8.9058 5.4517 8.8558 6.3117 8.2658C6.9017 7.8958 7.5817 7.6558 8.4017 7.6558ZM8.3917 33.0258C12.9517 33.0258 15.0617 31.7358 15.0617 28.8858V19.8858H15.5517C16.2917 19.8858 16.7717 19.3258 16.7717 18.4958V18.4358C16.7717 17.5858 16.2917 17.0258 15.5517 17.0258H15.0617V14.7258C15.0617 11.6558 12.7417 10.0658 8.3917 10.0658C4.0517 10.0658 1.7117 11.6758 1.7117 14.7258V16.9258H1.2217C0.4817 16.9258 0.0017 17.4858 0.0017 18.3358V18.3958C0.0017 19.2258 0.4817 19.7958 1.2217 19.7958H1.7117V28.8858C1.7117 31.7358 3.8417 33.0258 8.3917 33.0258ZM8.3917 20.0458C7.4717 20.0458 6.3117 20.1558 6.0717 20.1558C5.3317 20.1558 4.9817 19.8258 4.9217 19.0658L4.7617 17.3458C4.6317 15.9258 5.7217 15.3958 8.3917 15.3958C11.0617 15.3958 12.1417 15.9258 12.0117 17.3458L11.8517 19.0658C11.7917 19.8258 11.4517 20.1558 10.7017 20.1558C10.4517 20.1558 9.2917 20.0458 8.3917 20.0458ZM8.3917 29.3858C5.5617 29.3858 4.5917 28.8958 4.7917 27.4558L4.9117 26.6458C5.0617 25.4658 6.0617 25.1058 8.3917 25.1058C10.7117 25.1058 11.7117 25.4658 11.8617 26.6458L11.9917 27.4558C12.1917 28.8958 11.2017 29.3858 8.3917 29.3858Z" />
        </svg>
    