
        <svg xmlns="http://www.w3.org/2000/svg" viewBox="0 0 100 100">
            <path d="M21.3123 1.465C23.9023 1.465 26.2423 2.415 28.0123 4.055C28.3623 4.385 28.7923 4.465 29.1123 4.185C29.4523 3.905 29.4523 3.395 29.0723 3.045C27.0323 1.125 24.2923 -0.005 21.3123 -0.005C18.3423 -0.005 15.6023 1.125 13.5623 3.045C13.1823 3.395 13.1823 3.905 13.5223 4.185C13.8423 4.465 14.2723 4.385 14.6323 4.055C16.3923 2.415 18.7223 1.465 21.3123 1.465ZM21.3623 6.085C22.6623 6.085 23.8823 6.485 24.7623 7.285C25.1323 7.575 25.5423 7.685 25.8623 7.405C26.2023 7.115 26.2123 6.575 25.8123 6.255C24.6123 5.215 23.0523 4.615 21.3623 4.615C19.6723 4.615 18.1023 5.215 16.9123 6.255C16.5123 6.575 16.5223 7.115 16.8523 7.405C17.1823 7.685 17.5823 7.575 17.9623 7.285C18.9023 6.535 20.0623 6.085 21.3623 6.085ZM12.0623 27.325H13.1923C13.8823 27.325 14.4223 26.805 14.4223 26.125V24.625C16.4723 24.755 19.1923 24.825 21.4123 24.825C23.6223 24.825 26.3423 24.755 28.3923 24.625V26.125C28.3923 26.805 28.9323 27.325 29.6223 27.325H30.7623C31.4423 27.325 31.9723 26.785 31.9723 26.125V23.915C32.3823 23.575 32.6023 23.065 32.6023 22.395V20.665C32.6023 19.005 32.2223 18.105 31.3923 17.035L30.6023 16.015C30.2423 14.325 29.6223 12.565 29.2923 11.875C28.7823 10.755 27.7623 10.165 26.5523 10.005C25.9123 9.915 23.8023 9.855 21.4123 9.855C19.0323 9.855 16.9223 9.925 16.2823 10.005C15.0723 10.145 14.0523 10.755 13.5223 11.875C13.1923 12.565 12.5723 14.325 12.2223 16.015L11.4423 17.035C10.6023 18.105 10.2423 19.005 10.2423 20.665V22.395C10.2423 23.065 10.4523 23.565 10.8523 23.915V26.125C10.8523 26.785 11.3823 27.325 12.0623 27.325ZM4.1823 26.395C4.4623 26.075 4.3823 25.645 4.0523 25.285C2.4123 23.515 1.4623 21.185 1.4623 18.595C1.4623 16.005 2.4123 13.675 4.0523 11.915C4.3823 11.555 4.4623 11.135 4.1823 10.805C3.9023 10.475 3.4023 10.475 3.0423 10.855C1.1223 12.895 0.0023 15.625 0.0023 18.595C0.0023 21.585 1.1223 24.305 3.0423 26.345C3.4023 26.715 3.9023 26.735 4.1823 26.395ZM38.6323 26.395C38.9223 26.735 39.4223 26.715 39.7723 26.345C41.7023 24.305 42.8223 21.585 42.8223 18.595C42.8223 15.625 41.7023 12.895 39.7723 10.855C39.4223 10.475 38.9223 10.475 38.6323 10.805C38.3523 11.135 38.4423 11.555 38.7623 11.915C40.4023 13.675 41.3523 16.005 41.3523 18.595C41.3523 21.185 40.4023 23.515 38.7623 25.285C38.4423 25.645 38.3523 26.075 38.6323 26.395ZM21.4123 23.565C18.2223 23.565 14.1023 23.435 12.5023 23.235C11.7423 23.135 11.4923 22.825 11.4923 22.145V20.665C11.4923 19.385 11.6723 18.765 12.4223 17.805L13.3823 16.545C13.6623 15.075 14.2823 13.215 14.6623 12.425C14.9723 11.755 15.5423 11.355 16.4023 11.265C17.0123 11.175 18.9523 11.095 21.4123 11.095C23.8823 11.095 25.8523 11.175 26.3923 11.265C27.2923 11.365 27.8523 11.765 28.1723 12.425C28.5423 13.215 29.1723 15.075 29.4523 16.545L30.4123 17.805C31.1623 18.765 31.3523 19.385 31.3523 20.665V22.145C31.3523 22.825 31.0923 23.155 30.3323 23.235C28.7323 23.425 24.6123 23.565 21.4123 23.565ZM14.4223 15.695C14.3523 15.985 14.4723 16.145 14.8223 16.125C16.3923 16.005 18.1723 15.935 21.4123 15.935C24.6423 15.935 26.4223 16.005 28.0123 16.125C28.3623 16.145 28.4623 15.985 28.4023 15.695C28.1323 14.555 27.7223 13.345 27.4223 12.805C27.1523 12.365 26.8223 12.105 26.2423 12.035C25.5223 11.945 23.9223 11.885 21.4123 11.885C18.9123 11.885 17.3123 11.945 16.5923 12.035C16.0123 12.105 15.6723 12.365 15.4123 12.805C15.1123 13.345 14.6823 14.555 14.4223 15.695ZM35.4123 23.105C35.7023 23.435 36.2423 23.435 36.5623 23.035C37.6023 21.845 38.2023 20.285 38.2023 18.595C38.2023 16.915 37.6023 15.355 36.5623 14.155C36.2423 13.755 35.7023 13.755 35.4123 14.095C35.1323 14.415 35.2523 14.825 35.5323 15.195C36.3423 16.075 36.7423 17.295 36.7423 18.595C36.7423 19.895 36.3423 21.115 35.5323 21.995C35.2523 22.375 35.1323 22.785 35.4123 23.105ZM7.4023 23.105C7.6923 22.785 7.5723 22.375 7.2923 21.995C6.4823 21.115 6.0823 19.895 6.0823 18.595C6.0823 17.295 6.4823 16.075 7.2923 15.195C7.5723 14.825 7.6923 14.415 7.4023 14.095C7.1123 13.755 6.5723 13.755 6.2623 14.155C5.2123 15.355 4.6123 16.915 4.6123 18.595C4.6123 20.285 5.2123 21.845 6.2623 23.035C6.5723 23.435 7.1123 23.435 7.4023 23.105ZM14.5423 22.055C15.3423 22.055 15.9423 21.455 15.9423 20.645C15.9423 19.855 15.3423 19.255 14.5423 19.255C13.7423 19.255 13.1323 19.855 13.1323 20.645C13.1323 21.455 13.7423 22.055 14.5423 22.055ZM28.2923 22.055C29.0823 22.055 29.6923 21.455 29.6923 20.645C29.6923 19.855 29.0823 19.255 28.2923 19.255C27.4923 19.255 26.8923 19.855 26.8923 20.645C26.8923 21.455 27.4923 22.055 28.2923 22.055ZM18.9223 21.775H23.9023C24.5023 21.775 24.9123 21.365 24.9123 20.775C24.9123 20.175 24.5023 19.785 23.9023 19.785H18.9223C18.3323 19.785 17.9223 20.175 17.9223 20.775C17.9223 21.365 18.3323 21.775 18.9223 21.775Z" />
        </svg>
    