
        <svg xmlns="http://www.w3.org/2000/svg" viewBox="0 0 100 100">
            <path d="M1.5117 21.3364H2.8617C3.7117 21.3364 4.3717 20.6764 4.3717 19.8264V17.9064C6.9617 18.0864 10.6917 18.1864 13.6317 18.1864C16.5617 18.1864 20.2817 18.0864 22.8717 17.9064V19.8264C22.8717 20.6764 23.5417 21.3364 24.3917 21.3364H25.7417C26.5917 21.3364 27.2617 20.6764 27.2617 19.8264V13.2764C27.2617 11.2464 26.8117 10.1964 25.8017 8.8864L24.8017 7.5864C24.3617 5.4764 23.5917 3.2464 23.1817 2.3864C22.5617 1.0664 21.3617 0.3564 19.9117 0.1664C19.1117 0.0564 16.5017 -0.0036 13.6317 -0.0036C10.7617 -0.0036 8.1317 0.0564 7.3517 0.1664C5.8917 0.3364 4.6917 1.0664 4.0617 2.3864C3.6717 3.2464 2.8817 5.4764 2.4617 7.5864L1.4517 8.8864C0.4417 10.1964 0.0017 11.2464 0.0017 13.2764V19.8264C0.0017 20.6764 0.6517 21.3364 1.5117 21.3364ZM4.6017 6.6564C4.9117 5.2164 5.4617 3.6364 5.8517 2.9664C6.1917 2.3864 6.6017 2.0764 7.3517 1.9764C8.2517 1.8564 10.2917 1.7964 13.6317 1.7964C16.9717 1.7964 19.0117 1.8364 19.9117 1.9764C20.6617 2.0764 21.0617 2.3864 21.4117 2.9664C21.8017 3.6364 22.3217 5.2164 22.6517 6.6564C22.7417 7.0264 22.5917 7.2264 22.1517 7.2064C20.1517 7.0664 17.8817 6.9564 13.6317 6.9564C9.3617 6.9564 7.1017 7.0664 5.1017 7.2064C4.6617 7.2264 4.5117 7.0264 4.6017 6.6564ZM5.1817 14.9964C4.1817 14.9964 3.4317 14.2464 3.4317 13.2664C3.4317 12.2664 4.1817 11.5164 5.1817 11.5164C6.1617 11.5164 6.9117 12.2664 6.9117 13.2664C6.9117 14.2464 6.1617 14.9964 5.1817 14.9964ZM22.0817 14.9964C21.0817 14.9964 20.3417 14.2464 20.3417 13.2664C20.3417 12.2664 21.0817 11.5164 22.0817 11.5164C23.0717 11.5164 23.8117 12.2664 23.8117 13.2664C23.8117 14.2464 23.0717 14.9964 22.0817 14.9964ZM10.6217 14.6464C9.8817 14.6464 9.3717 14.1464 9.3717 13.4064C9.3717 12.6664 9.8817 12.1664 10.6217 12.1664H16.6417C17.3817 12.1664 17.8817 12.6664 17.8817 13.4064C17.8817 14.1464 17.3817 14.6464 16.6417 14.6464Z" />
        </svg>
    