
        <svg xmlns="http://www.w3.org/2000/svg" viewBox="0 0 100 100">
            <path d="M8.4389 30.2598C14.3589 30.2598 16.8789 28.9598 16.8789 25.7698V20.6598L20.3389 24.1198C20.7289 24.4998 21.3389 24.4898 21.7289 24.1198C22.0989 23.7298 22.0989 23.0998 21.7289 22.7198L16.8789 17.9098V11.7998L20.3389 15.2598C20.7289 15.6398 21.3389 15.6298 21.7289 15.2598C22.0989 14.8698 22.0989 14.2498 21.7289 13.8598L16.8789 9.0498V5.4298C16.8789 1.9998 13.7689 -0.0002 8.4389 -0.0002C3.1189 -0.0002 -0.0011 1.9998 -0.0011 5.4298V25.7698C-0.0011 28.9598 2.5289 30.2598 8.4389 30.2598ZM8.4489 12.4798C7.2989 12.4798 5.5389 12.5598 4.9189 12.5598C4.0189 12.5598 3.6189 12.2098 3.5289 11.2698L3.3389 8.9998C3.1789 7.2498 4.4089 6.5498 8.4489 6.5498C12.4789 6.5498 13.7089 7.2498 13.5489 8.9998L13.3589 11.2698C13.2689 12.2098 12.8789 12.5598 11.9689 12.5598C11.3589 12.5598 9.5289 12.4798 8.4489 12.4798ZM8.4489 25.3798C4.3689 25.3798 3.1289 24.7698 3.3889 22.9898L3.5389 21.8898C3.7389 20.4498 4.9489 19.9598 8.4489 19.9598C11.9389 19.9598 13.1489 20.4498 13.3489 21.8898L13.4989 22.9898C13.7589 24.7698 12.5189 25.3798 8.4489 25.3798Z" />
        </svg>
    