
        <svg xmlns="http://www.w3.org/2000/svg" viewBox="0 0 100 100">
            <path d="M1.3717 26.5527C2.1517 26.5527 2.7517 25.9827 2.7517 25.1727V17.6727H5.3517V26.4027C5.3517 29.9927 8.0817 31.5327 14.2817 31.5327C20.5117 31.5327 23.2417 29.9927 23.2417 26.4027V5.9727C23.2417 2.1227 20.0617 0.0027 14.2817 0.0027C8.5417 0.0027 5.3517 2.1327 5.3517 5.9727V15.3127H2.7517V13.8327C2.7517 13.0227 2.1517 12.4427 1.3717 12.4427C0.6017 12.4427 0.0017 13.0227 0.0017 13.8127V25.1827C0.0017 25.9827 0.6017 26.5527 1.3717 26.5527ZM14.3017 13.2527C13.0617 13.2527 11.3417 13.3627 10.8617 13.3627C9.9217 13.3627 9.5317 12.9927 9.4417 12.0327L9.2317 9.6427C9.0717 7.8427 10.4017 7.1327 14.3017 7.1327C18.2017 7.1327 19.5317 7.8427 19.3717 9.6427L19.1617 12.0327C19.0817 12.9927 18.6817 13.3627 17.7417 13.3627C17.2617 13.3627 15.4917 13.2527 14.3017 13.2527ZM14.3017 26.4727C10.2817 26.4727 9.0017 25.8527 9.2717 24.0027L9.4317 22.8627C9.6517 21.3727 10.9017 20.8727 14.3017 20.8727C17.7117 20.8727 18.9517 21.3727 19.1617 22.8627L19.3217 24.0027C19.6017 25.8527 18.3117 26.4727 14.3017 26.4727Z" />
        </svg>
    