
        <svg xmlns="http://www.w3.org/2000/svg" viewBox="0 0 100 100">
            <path d="M1.7217 3.3608H5.5517C6.2017 3.3608 6.4717 3.5408 6.8317 3.9008L9.7217 6.8108L6.8917 7.1608C2.6017 7.7008 0.1517 10.2808 0.1517 14.1408V16.7608C0.1517 19.8908 1.9717 21.5308 4.8317 21.5308H5.7917C5.6517 20.9908 5.5517 20.4008 5.5517 19.8208C5.5517 16.2508 8.4717 13.3608 12.0317 13.3608C15.5817 13.3608 18.5017 16.2508 18.5017 19.8208C18.5017 20.4008 18.4217 20.9908 18.2717 21.5308H23.8117V0.7808C21.6717 1.1808 20.0017 1.9108 18.0017 3.1608L13.6617 5.8908L9.0217 1.2608C8.1317 0.3908 7.4617 0.0008 5.6717 0.0008H1.7217C0.7017 0.0008 0.0017 0.7008 0.0017 1.6708C0.0017 2.6508 0.6917 3.3608 1.7217 3.3608ZM12.0317 24.5108C14.6117 24.5108 16.7317 22.3908 16.7317 19.8208C16.7317 17.2308 14.6117 15.1308 12.0317 15.1308C9.4417 15.1308 7.3217 17.2308 7.3217 19.8208C7.3217 22.3908 9.4417 24.5108 12.0317 24.5108Z" />
        </svg>
    