
        <svg xmlns="http://www.w3.org/2000/svg" viewBox="0 0 100 100">
            <path d="M3.7217 16.4548H4.7717C5.3917 17.9548 6.8717 18.9848 8.6217 18.9848C10.3817 18.9848 11.8517 17.9548 12.4717 16.4548H29.2817C29.9017 17.9548 31.3717 18.9848 33.1317 18.9848C34.8917 18.9848 36.3517 17.9548 36.9717 16.4548H38.0317C40.5917 16.4548 41.7517 15.2348 41.7517 12.5148V9.2648C41.7517 7.0848 40.7017 5.7348 38.4717 5.0048L36.6117 4.3848C34.2417 2.3348 30.9817 0.0148 26.5917 0.0148H24.8117C20.0317 0.0148 18.0117 0.4948 15.1417 2.2948L10.9717 4.9148L7.0317 0.9648C6.3517 0.2848 5.4617 0.0048 4.3917 0.0048H0.8717C0.3317 0.0048 0.0017 0.3248 0.0017 0.8348C0.0017 1.3348 0.3317 1.6848 0.8717 1.6848H4.6017C5.0417 1.6848 5.3817 1.7948 5.6617 2.0748L9.0217 5.4348L5.2017 5.9048C1.9617 6.3048 0.0017 8.3248 0.0017 11.0848V12.5848C0.0017 15.2548 1.1817 16.4548 3.7217 16.4548ZM33.1317 10.6548C30.8817 10.6548 29.1017 12.3548 28.9717 14.5648H12.7817C12.6517 12.3548 10.8717 10.6548 8.6217 10.6548C6.3617 10.6548 4.5917 12.3548 4.4617 14.5648H3.7217C2.4617 14.5648 1.8917 13.9248 1.8917 12.5148V11.0848C1.8917 9.3548 3.1717 8.0348 5.4417 7.7648L10.1217 7.1948C10.8317 7.1048 11.3117 6.9348 11.8017 6.6448L16.1517 3.9048C18.7417 2.2848 20.3817 1.8948 24.8117 1.8948H26.5917C29.6617 1.8948 32.1017 3.0348 35.1217 5.6848C35.6717 6.1648 35.9617 6.2948 36.6717 6.5148L37.9117 6.9148C39.2417 7.3448 39.8717 8.0348 39.8717 9.2648V12.5148C39.8717 13.9248 39.2917 14.5648 38.0317 14.5648H37.2917C37.1617 12.3548 35.3817 10.6548 33.1317 10.6548ZM8.6217 17.2148C7.2817 17.2148 6.2217 16.1648 6.2217 14.8248C6.2217 13.4748 7.2817 12.4248 8.6217 12.4248C9.9617 12.4248 11.0117 13.4748 11.0117 14.8248C11.0117 16.1648 9.9617 17.2148 8.6217 17.2148ZM33.1317 17.2148C31.7917 17.2148 30.7217 16.1648 30.7217 14.8248C30.7217 13.4748 31.7917 12.4248 33.1317 12.4248C34.4617 12.4248 35.5317 13.4748 35.5317 14.8248C35.5317 16.1648 34.4617 17.2148 33.1317 17.2148Z" />
        </svg>
    