
        <svg xmlns="http://www.w3.org/2000/svg" viewBox="0 0 100 100">
            <path d="M0 14.7933V17.2233H8.37C9.08 18.7633 10.62 19.8033 12.45 19.8033C14.29 19.8033 15.82 18.7633 16.54 17.2233H17.63C18.98 17.2233 19.99 16.8833 20.66 16.1833H24.4V16.9233C24.4 17.4033 24.77 17.7733 25.25 17.7733C25.73 17.7733 26.1 17.4033 26.1 16.9233V16.1833H27.22C27.7 16.1833 28.08 15.7833 28.08 15.3133C28.08 14.8333 27.7 14.4533 27.22 14.4533H26.1V13.1133H26.32C26.44 13.1133 26.54 13.0633 26.66 12.9933C27.21 12.5433 27.57 11.8833 27.57 11.1333C27.57 9.8633 26.53 8.7933 25.25 8.7933C23.96 8.7933 22.91 9.8633 22.91 11.1333C22.91 11.8833 23.29 12.5433 23.84 12.9933C23.95 13.0633 24.06 13.1133 24.18 13.1133H24.4V14.4533H21.53C21.62 14.0033 21.67 13.5133 21.67 12.9633V9.6633C21.67 7.3333 20.5 5.8933 18.15 5.0933L16.32 4.4733C13.97 2.4533 10.55 0.0033 6.04 0.0033H4.2C2.51 0.0033 1.16 0.0633 0 0.2133V2.6733C1.1 2.4833 2.41 2.4333 4.2 2.4333H6.04C9.06 2.4333 11.45 3.5533 14.51 6.2233C15.09 6.7233 15.45 6.8833 16.2 7.1233L17.43 7.5233C18.64 7.9133 19.24 8.6133 19.24 9.7533V12.9633C19.24 14.2033 18.73 14.7933 17.63 14.7933H16.92C16.66 12.5233 14.8 10.8133 12.45 10.8133C10.1 10.8133 8.24 12.5233 7.99 14.7933ZM12.45 17.4933C11.23 17.4933 10.27 16.5333 10.27 15.3133C10.27 14.0833 11.23 13.1233 12.45 13.1233C13.68 13.1233 14.64 14.0833 14.64 15.3133C14.64 16.5333 13.68 17.4933 12.45 17.4933Z" />
        </svg>
    