
        <svg xmlns="http://www.w3.org/2000/svg" viewBox="0 0 100 100">
            <path d="M1.7617 28.4455C2.7217 28.4455 3.5417 27.6655 3.5417 26.6755V18.8555H6.3417V27.0455C6.3417 31.0155 9.2917 32.8155 15.7817 32.8155C22.3017 32.8155 25.2517 31.0155 25.2517 27.0455V6.5255C25.2517 2.2255 21.9817 -0.0045 15.7817 -0.0045C9.6117 -0.0045 6.3417 2.2655 6.3417 6.5255V15.6955H3.5417V14.1255C3.5417 13.1355 2.7217 12.3555 1.7617 12.3555C0.8117 12.3555 0.0017 13.1355 0.0017 14.1055V26.6955C0.0017 27.6655 0.8117 28.4455 1.7617 28.4455ZM15.7817 29.3155C11.7117 29.3155 9.8517 28.5855 9.8517 26.9155V6.6555C9.8517 4.5855 11.9017 3.5055 15.7817 3.5055C19.6917 3.5055 21.7417 4.6055 21.7417 6.6555V26.9155C21.7417 28.5855 19.8917 29.3155 15.7817 29.3155ZM15.8017 14.2955C17.0117 14.2955 18.6117 14.4155 18.9117 14.4155C19.8117 14.4155 20.1917 14.0655 20.2617 13.1455L20.4717 10.8155C20.6217 9.1055 19.2917 8.4355 15.8017 8.4355C12.3117 8.4355 10.9817 9.1055 11.1317 10.8155L11.3417 13.1455C11.4117 14.0655 11.7917 14.4155 12.6917 14.4155C12.9917 14.4155 14.5817 14.2955 15.8017 14.2955ZM15.8017 26.8455C19.4917 26.8455 20.7117 26.2455 20.4417 24.4755L20.2717 23.3955C20.0717 21.9455 18.8717 21.4755 15.8017 21.4755C12.7417 21.4755 11.5417 21.9455 11.3317 23.3955L11.1717 24.4755C10.9017 26.2455 12.1217 26.8455 15.8017 26.8455Z" />
        </svg>
    