
        <svg xmlns="http://www.w3.org/2000/svg" viewBox="0 0 100 100">
            <path d="M9.2017 32.2125C15.5717 32.2125 18.4217 30.5425 18.4217 26.7525V18.3025H21.1317V25.9725C21.1317 26.8825 21.8417 27.5625 22.7217 27.5625C23.6017 27.5625 24.3017 26.8825 24.3017 25.9825V13.9825C24.3017 13.0925 23.6017 12.4025 22.7217 12.4025C21.8417 12.4025 21.1317 13.0925 21.1317 13.9925V15.5225H18.4217V6.2825C18.4217 2.1825 15.2017 0.0025 9.2017 0.0025C3.2217 0.0025 0.0017 2.2025 0.0017 6.2825V26.7525C0.0017 30.5425 2.8517 32.2125 9.2017 32.2125ZM9.2117 13.6725C7.9317 13.6725 6.2217 13.7825 5.8217 13.7825C4.8617 13.7825 4.4617 13.4225 4.3817 12.4525L4.1717 9.9925C4.0117 8.1525 5.3917 7.4525 9.2117 7.4525C13.0417 7.4525 14.4217 8.1525 14.2617 9.9925L14.0517 12.4525C13.9717 13.4225 13.5717 13.7825 12.6117 13.7825C12.2117 13.7825 10.4717 13.6725 9.2117 13.6725ZM9.2117 27.0625C5.2217 27.0625 3.9117 26.4225 4.2117 24.5425L4.3817 23.3825C4.5917 21.8625 5.8617 21.3525 9.2117 21.3525C12.5717 21.3525 13.8417 21.8625 14.0617 23.3825L14.2217 24.5425C14.5217 26.4225 13.2117 27.0625 9.2117 27.0625Z" />
        </svg>
    