
        <svg xmlns="http://www.w3.org/2000/svg" viewBox="0 0 100 100">
            <path d="M14.7019 21.865C18.3619 19.745 19.5219 17.855 18.2619 15.675L13.6119 7.625L14.0219 7.395C14.5319 7.105 14.6719 6.495 14.3719 5.955L14.2119 5.695C13.9219 5.155 13.3119 4.995 12.8019 5.285L12.4019 5.515L11.2519 3.535C9.9719 1.335 7.3919 1.125 4.1819 2.855V0.935C4.1819 0.415 3.7919 -0.005 3.2519 -0.005H2.4319C1.8919 -0.005 1.4919 0.415 1.4919 0.935V4.795C-0.0581 6.365 -0.4281 8.085 0.5219 9.735L1.6819 11.745L1.2819 11.975C0.7619 12.285 0.6319 12.875 0.9319 13.415L1.0719 13.675C1.3619 14.215 1.9819 14.395 2.4819 14.085L2.8919 13.855L7.5219 21.875C8.8019 24.055 10.9919 24.005 14.7019 21.865ZM25.9919 6.645C26.5219 6.645 26.9219 6.235 26.9219 5.705V0.935C26.9219 0.415 26.5219 0.015 25.9919 0.015H25.1619C24.6319 0.015 24.2219 0.415 24.2219 0.935V5.705C24.2219 6.235 24.6319 6.645 25.1619 6.645ZM8.4119 11.015C7.7219 11.425 6.6919 12.105 6.3919 12.295C5.7919 12.635 5.3719 12.555 4.9619 11.955L4.0219 10.625C3.2619 9.555 3.8119 8.665 6.2519 7.255C8.6719 5.845 9.7119 5.825 10.2819 7.035L10.9519 8.495C11.2519 9.125 11.1419 9.535 10.5219 9.895C10.2219 10.075 9.1419 10.605 8.4119 11.015ZM25.9919 15.395C26.5219 15.395 26.9219 14.985 26.9219 14.465V9.705C26.9219 9.175 26.5219 8.765 25.9919 8.765H25.1619C24.6319 8.765 24.2219 9.175 24.2219 9.705V14.465C24.2219 14.985 24.6319 15.395 25.1619 15.395ZM12.9519 18.855C10.4819 20.285 9.4519 20.355 8.9419 19.085L8.6619 18.365C8.2519 17.325 8.8419 16.605 10.9319 15.395C13.0319 14.175 13.9719 14.025 14.6519 14.895L15.1319 15.505C16.0019 16.595 15.4019 17.435 12.9519 18.855ZM3.2519 24.175C3.7919 24.175 4.1819 23.775 4.1819 23.235V18.445C4.1819 17.915 3.7919 17.505 3.2519 17.505H2.4319C1.8919 17.505 1.4919 17.915 1.4919 18.445V23.235C1.4919 23.775 1.8919 24.175 2.4319 24.175ZM25.9919 24.175C26.5219 24.175 26.9219 23.775 26.9219 23.255V18.445C26.9219 17.915 26.5219 17.515 25.9919 17.515H25.1619C24.6319 17.515 24.2219 17.915 24.2219 18.445V23.255C24.2219 23.775 24.6319 24.175 25.1619 24.175Z" />
        </svg>
    