
        <svg xmlns="http://www.w3.org/2000/svg" viewBox="0 0 100 100">
            <path d="M11.9523 23.9023C18.5523 23.9023 23.9023 18.5523 23.9023 11.9523C23.9023 5.3623 18.5523 0.0023 11.9523 0.0023C5.3623 0.0023 0.0023 5.3623 0.0023 11.9523C0.0023 18.5523 5.3623 23.9023 11.9523 23.9023ZM5.3323 15.9723V12.7523C5.3323 11.8223 5.5223 11.2823 6.0423 10.6123L6.5323 10.0123C6.7423 8.9923 7.0923 7.9323 7.2923 7.5223C7.5923 6.8923 8.1723 6.5123 8.9023 6.4223C9.2923 6.3723 10.5123 6.3423 11.9623 6.3423C13.4023 6.3423 14.6323 6.3723 15.0123 6.4223C15.7623 6.5223 16.3323 6.8923 16.6323 7.5223C16.8323 7.9323 17.1823 8.9923 17.4023 10.0123L17.8723 10.6123C18.4023 11.2823 18.5823 11.8223 18.5823 12.7523V15.9723C18.5823 16.3823 18.2623 16.7123 17.8523 16.7123H17.1823C16.7623 16.7123 16.4323 16.3823 16.4323 15.9723V15.0423C15.1923 15.1123 13.4023 15.1623 11.9623 15.1623C10.5223 15.1623 8.7323 15.1123 7.4923 15.0423V15.9723C7.4923 16.3823 7.1623 16.7123 6.7523 16.7123H6.0823C5.6623 16.7123 5.3323 16.3823 5.3323 15.9723ZM7.9523 9.4823C7.9123 9.6523 7.9823 9.7423 8.1923 9.7223C9.0623 9.6523 10.0823 9.6123 11.9623 9.6123C13.8423 9.6123 14.8723 9.6523 15.7223 9.7223C15.9423 9.7423 16.0223 9.6523 15.9623 9.4823C15.8423 8.8923 15.6023 8.1423 15.4323 7.8623C15.2723 7.6023 15.1323 7.5023 14.8323 7.4623C14.4423 7.3923 13.5423 7.3823 11.9623 7.3823C10.3723 7.3823 9.4823 7.4023 9.0923 7.4623C8.8023 7.5023 8.6523 7.6023 8.4923 7.8623C8.3323 8.1523 8.0823 8.8923 7.9523 9.4823ZM7.0223 12.7623C7.0223 13.2623 7.4223 13.6623 7.9223 13.6623C8.4223 13.6623 8.8223 13.2623 8.8223 12.7623C8.8223 12.2623 8.4223 11.8723 7.9223 11.8723C7.4223 11.8723 7.0223 12.2623 7.0223 12.7623ZM15.1023 12.7623C15.1023 13.2623 15.4923 13.6623 15.9923 13.6623C16.5123 13.6623 16.9123 13.2623 16.9123 12.7623C16.9123 12.2623 16.5123 11.8723 15.9923 11.8723C15.4923 11.8723 15.1023 12.2623 15.1023 12.7623ZM9.8323 12.7923C9.8323 13.1823 10.1023 13.4523 10.4923 13.4523H13.4423C13.8123 13.4523 14.0823 13.1823 14.0823 12.7923C14.0823 12.4223 13.8123 12.1523 13.4423 12.1523H10.4923C10.1023 12.1523 9.8323 12.4223 9.8323 12.7923Z" />
        </svg>
    