
        <svg xmlns="http://www.w3.org/2000/svg" viewBox="0 0 100 100">
            <path d="M22.8617 23.2425C25.7717 23.2425 27.4717 21.5425 27.4717 18.6425V13.3225C27.4717 11.2225 26.8517 9.9325 25.0917 8.6325L15.9117 1.8325C14.1017 0.4925 12.6317 0.0025 10.3917 0.0025H4.5917C1.7017 0.0025 0.0017 1.6825 0.0017 4.5925V18.6425C0.0017 21.5425 1.7017 23.2425 4.5917 23.2425ZM20.3917 11.6025H5.2217C4.5117 11.6025 4.1617 11.0825 4.1617 10.5225V5.2225C4.1617 4.4525 4.5117 4.1625 5.2217 4.1625H10.9617C11.8017 4.1625 12.3317 4.3225 12.9917 4.8325L20.6717 10.5125C21.1917 10.8825 20.9717 11.6025 20.3917 11.6025ZM34.0617 18.0125C34.8517 18.0125 35.1317 17.7225 35.8117 17.0725L38.6617 14.2825L41.5117 17.0725C42.1917 17.7225 42.4917 18.0125 43.2617 18.0125C44.3217 18.0125 45.1217 17.2425 45.1217 16.2325C45.1217 15.5425 44.7517 15.1425 44.2017 14.5825L41.2217 11.6025L44.1917 8.6025C44.7417 8.0625 45.1217 7.6425 45.1217 6.9525C45.1217 5.9425 44.3217 5.1825 43.2617 5.1825C42.4917 5.1825 42.1917 5.4525 41.5117 6.1125L38.6617 8.8925L35.8117 6.1125C35.1317 5.4525 34.8317 5.1425 33.9817 5.1425C32.9917 5.1425 32.2117 5.8725 32.2117 6.9125C32.2117 7.6525 32.5817 8.0625 33.1217 8.6025L36.0917 11.6025L33.1217 14.5825C32.5617 15.1425 32.2117 15.5425 32.2117 16.2325C32.2117 17.2425 33.0117 18.0125 34.0617 18.0125Z" />
        </svg>
    