
        <svg xmlns="http://www.w3.org/2000/svg" viewBox="0 0 100 100">
            <path d="M2.6725 12.0333C2.6725 12.5233 3.0825 12.9133 3.6025 12.9133H4.4025C4.9025 12.9133 5.2825 12.5233 5.2825 12.0333V11.2333H16.6425V12.0333C16.6425 12.5233 17.0325 12.9133 17.5325 12.9133H18.3425C18.8425 12.9133 19.2525 12.5233 19.2525 12.0333V7.7733C19.2525 6.4233 18.8925 5.8433 18.3525 5.1333L17.7225 4.2733L16.8625 1.8833C16.4425 0.7133 15.7725 0.2133 14.8025 0.1033C14.2725 0.0333 12.5725 0.0033 10.9625 0.0033C9.3525 0.0033 7.6525 0.0333 7.1425 0.1033C6.1525 0.2133 5.4825 0.7133 5.0625 1.8833L4.2125 4.2733L3.5725 5.1333C3.0325 5.8433 2.6725 6.4233 2.6725 7.7733ZM5.7325 3.8233C5.4525 3.8233 5.3425 3.5833 5.4525 3.3033L5.8925 2.0133C6.1625 1.2333 6.5725 0.8633 7.2825 0.7833C7.8725 0.7133 8.9325 0.6933 10.9625 0.6933C13.0125 0.6933 14.0525 0.7133 14.6525 0.7833C15.3525 0.8633 15.7625 1.2433 16.0325 2.0133L16.5025 3.3033C16.6025 3.5833 16.4725 3.8233 16.1925 3.8233ZM4.9325 8.5233C4.5925 8.5233 4.3525 8.2633 4.3525 7.9233V6.6833C4.3525 6.3533 4.5925 6.1133 4.9325 6.1133C5.2625 6.1133 5.5225 6.3533 5.5225 6.6833V7.9233C5.5225 8.2633 5.2625 8.5233 4.9325 8.5233ZM16.9825 8.5233C16.6725 8.5233 16.4025 8.2633 16.4025 7.9233V6.6833C16.4025 6.3633 16.6725 6.1133 16.9825 6.1133C17.3225 6.1133 17.5825 6.3533 17.5825 6.6833V7.9233C17.5825 8.2633 17.3225 8.5233 16.9825 8.5233ZM9.2025 8.2633C8.9325 8.2633 8.8025 8.0833 8.8025 7.8033V6.7933C8.8025 6.5233 8.9325 6.3633 9.2025 6.3633H12.6325C12.8925 6.3633 13.0525 6.5233 13.0525 6.7933V7.8033C13.0525 8.0833 12.8925 8.2633 12.6325 8.2633ZM8.2125 14.5433L7.4625 13.9733C7.2125 13.7733 6.8925 13.6733 6.5525 13.6733H5.3225C4.9325 13.6733 4.7825 14.1533 5.1025 14.3833L6.6025 15.4833C7.0825 15.8233 7.0225 16.2933 6.4725 16.5233L1.5625 18.6533C-0.3275 19.4733 -0.5175 20.6933 1.0625 21.8533L1.8125 22.4033C2.1025 22.6133 2.4125 22.7233 2.7525 22.7233H3.9725C4.3725 22.7233 4.5225 22.2433 4.2125 22.0233L2.6825 20.9033C2.2225 20.5633 2.2825 20.1133 2.8225 19.8733L7.7325 17.7433C9.6225 16.9233 9.7825 15.7333 8.2125 14.5433ZM19.6725 14.6333L18.9225 14.0633C18.6425 13.8533 18.3325 13.7733 17.9925 13.7733H16.7725C16.3725 13.7733 16.2225 14.2333 16.5325 14.4733L18.0625 15.5733C18.5125 15.9133 18.4625 16.3733 17.9225 16.6133L13.0125 18.7533C11.1225 19.5733 10.9425 20.7733 12.5325 21.9533L13.2825 22.5033C13.5325 22.7133 13.8525 22.8133 14.1925 22.8133H15.4225C15.8125 22.8133 15.9625 22.3333 15.6425 22.1133L14.1425 21.0033C13.6725 20.6533 13.7225 20.2033 14.2725 19.9733L19.1825 17.8333C21.0725 17.0133 21.2225 15.8133 19.6725 14.6333Z" />
        </svg>
    