
        <svg xmlns="http://www.w3.org/2000/svg" viewBox="0 0 100 100">
            <path d="M8.6131 30.7242C14.6331 30.7242 17.2431 29.3342 17.2431 26.0042V21.1542L20.6131 24.5242C21.0631 24.9742 21.7731 24.9642 22.2031 24.5242C22.6431 24.0942 22.6431 23.3742 22.2031 22.9442L17.2431 17.9842V12.2842L20.6131 15.6542C21.0631 16.1042 21.7731 16.0942 22.2031 15.6542C22.6431 15.2142 22.6431 14.4942 22.2031 14.0642L17.2431 9.1142V5.6242C17.2431 2.0542 14.0931 0.0042 8.6131 0.0042C3.1331 0.0042 0.0031 2.0542 0.0031 5.6242V26.0042C0.0031 29.3342 2.5931 30.7242 8.6131 30.7242ZM8.6131 28.5042C4.1631 28.5042 2.2231 27.7342 2.2231 25.9142V5.6442C2.2231 3.4842 4.5631 2.2342 8.6131 2.2342C12.6631 2.2342 15.0031 3.4842 15.0031 5.6442V25.9142C15.0031 27.7342 13.0631 28.5042 8.6131 28.5042ZM8.6131 12.9042C9.6931 12.9042 11.4331 12.9842 11.9731 12.9842C12.8631 12.9842 13.2431 12.6442 13.3231 11.7342L13.5231 9.5042C13.6631 7.8142 12.4531 7.1342 8.6131 7.1342C4.7831 7.1342 3.5631 7.8142 3.7131 9.5042L3.9131 11.7342C3.9831 12.6442 4.3731 12.9842 5.2531 12.9842C5.8031 12.9842 7.4931 12.9042 8.6131 12.9042ZM8.6131 25.4142C12.5131 25.4142 13.7231 24.8342 13.4731 23.0942L13.3231 22.0242C13.1231 20.6142 11.9531 20.1442 8.6131 20.1442C5.2831 20.1442 4.1031 20.6142 3.9131 22.0242L3.7631 23.0942C3.5131 24.8342 4.7231 25.4142 8.6131 25.4142Z" />
        </svg>
    