
        <svg xmlns="http://www.w3.org/2000/svg" viewBox="0 0 100 100">
            <path d="M23.7223 2.8562C26.2423 2.8562 28.5623 3.6563 30.1723 5.1163C30.7823 5.6762 31.5423 5.8463 32.1723 5.3363C32.8523 4.7763 32.9423 3.8062 32.1123 2.9963C30.0323 1.0063 26.9723 -0.0038 23.7223 -0.0038C20.4823 -0.0038 17.2923 1.1062 15.3423 2.9963C14.5123 3.8062 14.6023 4.7763 15.2823 5.3363C15.9023 5.8463 16.6623 5.6762 17.2723 5.1163C18.8923 3.6563 21.2123 2.8562 23.7223 2.8562ZM23.7323 8.0863C24.7523 8.0863 25.9323 8.4563 26.6023 8.9462C27.2223 9.3962 27.9623 9.5363 28.5623 9.0863C29.2423 8.5562 29.2823 7.5163 28.5123 6.7862C27.4023 5.7662 25.6123 5.2263 23.7323 5.2263C21.8523 5.2263 20.0723 5.7662 18.9623 6.7862C18.1923 7.5163 18.2223 8.5562 18.9123 9.0863C19.5123 9.5363 20.2423 9.3962 20.8723 8.9462C21.5423 8.4563 22.7223 8.0863 23.7323 8.0863ZM23.7423 27.2063C26.2523 27.2063 29.2123 27.1263 31.3023 26.9863V28.8863C31.3023 29.6363 31.8823 30.2063 32.6323 30.2063H34.3023C35.0523 30.2063 35.6323 29.6363 35.6323 28.8863V22.7963C35.6323 20.9563 35.4223 19.9263 34.4723 18.7963L33.5523 17.7063C33.2123 16.0463 32.5923 14.2963 32.2623 13.6063C31.7023 12.3863 30.5723 11.6263 29.1423 11.4363C28.3523 11.3363 26.4623 11.2762 23.7423 11.2762C21.0223 11.2762 19.1223 11.3363 18.3323 11.4363C16.9023 11.6263 15.7823 12.3863 15.2223 13.6063C14.8923 14.2963 14.2723 16.0463 13.9223 17.7063L13.0123 18.7963C12.0423 19.9263 11.8323 20.9563 11.8323 22.7963V28.8863C11.8323 29.6363 12.4223 30.2063 13.1723 30.2063H14.8523C15.6023 30.2063 16.1823 29.6363 16.1823 28.8863V26.9863C18.2723 27.1263 21.2323 27.2063 23.7423 27.2063ZM42.3823 28.8163C42.9023 29.4463 43.8023 29.5463 44.5823 28.7563C46.4723 26.7963 47.4123 23.9063 47.4123 20.8263C47.4123 17.7663 46.3523 14.7763 44.5823 12.9063C43.8323 12.1063 42.9123 12.2263 42.3823 12.8463C41.8923 13.4263 42.0423 14.1463 42.5823 14.7263C43.9823 16.2563 44.7323 18.4463 44.7323 20.8263C44.7323 23.2163 43.9523 25.4063 42.5823 26.9263C42.0623 27.5163 41.9023 28.2263 42.3823 28.8163ZM5.0323 28.8163C5.5123 28.2263 5.3523 27.5163 4.8323 26.9263C3.4523 25.4063 2.6823 23.2163 2.6823 20.8263C2.6823 18.4463 3.4423 16.2463 4.8323 14.7263C5.3623 14.1463 5.5123 13.4263 5.0323 12.8463C4.5023 12.2263 3.5823 12.1063 2.8323 12.9063C1.0623 14.7763 0.0023 17.7663 0.0023 20.8263C0.0023 23.9063 0.9423 26.7963 2.8323 28.7563C3.6123 29.5463 4.5123 29.4463 5.0323 28.8163ZM16.6323 16.6963C16.7923 16.0262 17.1023 15.0363 17.2823 14.6763C17.6123 14.0263 18.0223 13.7763 18.7923 13.6763C19.3323 13.5963 20.9423 13.4963 23.7423 13.4963C26.5323 13.4963 28.1523 13.5863 28.6723 13.6763C29.4523 13.7763 29.8723 14.0263 30.2023 14.6763C30.3823 15.0363 30.6823 16.0262 30.8423 16.6963C30.9823 17.2362 30.7223 17.5763 30.1423 17.5663C29.0423 17.5163 27.3323 17.4263 23.7423 17.4263C20.1523 17.4263 18.4423 17.5163 17.3423 17.5663C16.7423 17.5763 16.4923 17.2362 16.6323 16.6963ZM38.5323 25.3962C39.0123 26.0363 40.0123 26.0763 40.6923 25.3363C41.6623 24.2963 42.1623 22.6063 42.1623 20.8263C42.1623 19.0463 41.6623 17.3663 40.6923 16.2963C40.0123 15.5663 39.0123 15.6063 38.5323 16.2563C38.1023 16.8263 38.2423 17.4963 38.6623 18.0963C39.1323 18.7362 39.4823 19.8663 39.4823 20.8263C39.4823 21.7863 39.1323 22.9063 38.6623 23.5463C38.2223 24.1363 38.1023 24.8363 38.5323 25.3962ZM8.8823 25.3962C9.3123 24.8363 9.1923 24.1363 8.7523 23.5463C8.2823 22.9063 7.9323 21.7863 7.9323 20.8263C7.9323 19.8663 8.2823 18.7362 8.7523 18.0963C9.1723 17.4963 9.3123 16.8263 8.8823 16.2563C8.4023 15.6063 7.4023 15.5663 6.7123 16.2963C5.7523 17.3663 5.2523 19.0463 5.2523 20.8263C5.2523 22.6063 5.7523 24.2963 6.7123 25.3363C7.4023 26.0763 8.4023 26.0363 8.8823 25.3962ZM16.6023 24.3962C15.6223 24.3962 14.8723 23.6462 14.8723 22.6662C14.8723 21.6763 15.6223 20.9463 16.6023 20.9463C17.5923 20.9463 18.3323 21.6763 18.3323 22.6662C18.3323 23.6462 17.5923 24.3962 16.6023 24.3962ZM30.8623 24.3962C29.8923 24.3962 29.1423 23.6462 29.1423 22.6662C29.1423 21.6763 29.8923 20.9463 30.8623 20.9463C31.8623 20.9463 32.6023 21.6763 32.6023 22.6662C32.6023 23.6462 31.8623 24.3962 30.8623 24.3962ZM21.0323 23.9463C20.2923 23.9463 19.7723 23.4263 19.7723 22.6763C19.7723 21.9363 20.2923 21.4263 21.0323 21.4263H26.4423C27.1923 21.4263 27.7123 21.9363 27.7123 22.6763C27.7123 23.4263 27.1923 23.9463 26.4423 23.9463Z" />
        </svg>
    