
        <svg xmlns="http://www.w3.org/2000/svg" viewBox="0 0 100 100">
            <path d="M4.5014 13.3511C4.5014 13.9311 4.9614 14.3811 5.5514 14.3811H6.4414C7.0414 14.3811 7.4914 13.9311 7.4914 13.3511V12.2911H19.7814V13.3511C19.7814 13.9311 20.2214 14.3811 20.8214 14.3811H21.7214C22.3114 14.3811 22.7714 13.9311 22.7714 13.3511V8.2011C22.7714 6.8811 22.6214 6.0711 21.8114 5.2011L21.0514 4.3711L20.2514 2.1111C19.7814 0.7811 18.8914 0.2411 17.8114 0.1211C17.2714 0.0511 15.6414 0.0011 13.6314 0.0011C11.6214 0.0011 9.9914 0.0511 9.4614 0.1211C8.3814 0.2411 7.4914 0.7811 7.0214 2.1111L6.2214 4.3711L5.4614 5.2011C4.6414 6.0711 4.5014 6.8811 4.5014 8.2011ZM8.5214 4.4611C8.1314 4.4611 7.9814 4.1911 8.1114 3.8411L8.5614 2.4511C8.7414 1.9311 9.0314 1.7711 9.5314 1.7011C10.0314 1.6411 11.4714 1.5811 13.6314 1.5811C15.8014 1.5811 17.2214 1.6411 17.7314 1.7011C18.2214 1.7711 18.5114 1.9311 18.6914 2.4511L19.1614 3.8411C19.2814 4.1911 19.1414 4.4611 18.7514 4.4611ZM7.4714 9.2711C6.9814 9.2711 6.6314 8.9211 6.6314 8.4411V7.2511C6.6314 6.7811 6.9814 6.4411 7.4714 6.4411C7.9414 6.4411 8.3014 6.7811 8.3014 7.2511V8.4411C8.3014 8.9211 7.9414 9.2711 7.4714 9.2711ZM19.8714 9.2711C19.4014 9.2711 19.0514 8.9211 19.0514 8.4411V7.2511C19.0514 6.8011 19.4014 6.4411 19.8714 6.4411C20.3514 6.4411 20.7114 6.7711 20.7114 7.2511V8.4411C20.7114 8.9311 20.3514 9.2711 19.8714 9.2711ZM11.9014 8.8911C11.5214 8.8911 11.2814 8.6511 11.2814 8.2311V7.4811C11.2814 7.0711 11.5214 6.8211 11.9014 6.8211H15.3314C15.7114 6.8211 15.9714 7.0711 15.9714 7.4811V8.2311C15.9714 8.6511 15.7114 8.8911 15.3314 8.8911ZM10.5014 16.5211L9.6114 15.8511C9.2714 15.6111 8.8914 15.5011 8.4914 15.5011H6.3614C5.8914 15.5011 5.7214 16.0711 6.0914 16.3311L7.9014 17.6611C8.4614 18.0711 8.3914 18.6211 7.7314 18.9111L1.8614 21.4611C-0.3986 22.4311 -0.6086 23.9111 1.2814 25.3011L2.1814 25.9611C2.5114 26.2011 2.8814 26.3211 3.2914 26.3211H5.4114C5.8914 26.3211 6.0714 25.7611 5.6914 25.4911L3.8814 24.1511C3.3114 23.7511 3.3914 23.2011 4.0414 22.9111L9.9214 20.3711C12.1714 19.3911 12.3914 17.9211 10.5014 16.5211ZM23.0314 16.5511L22.1414 15.8811C21.8014 15.6311 21.4214 15.5111 21.0214 15.5111H18.9014C18.4214 15.5111 18.2414 16.0811 18.6214 16.3511L20.4214 17.6811C20.9914 18.0811 20.9214 18.6311 20.2714 18.9211L14.3914 21.4711C12.1314 22.4411 11.9214 23.9211 13.8014 25.3111L14.7114 25.9811C15.0314 26.2311 15.4114 26.3411 15.8214 26.3411H17.9414C18.4214 26.3411 18.6014 25.7811 18.2214 25.5011L16.4214 24.1711C15.8514 23.7611 15.9114 23.2111 16.5714 22.9311L22.4514 20.3911C24.7014 19.4211 24.9114 17.9311 23.0314 16.5511Z" />
        </svg>
    