
        <svg xmlns="http://www.w3.org/2000/svg" viewBox="0 0 100 100">
            <path d="M20.3317 20.9323C22.6917 20.9323 23.7917 19.8423 23.7917 17.5223V11.4023C23.7917 9.8823 23.3517 9.0823 22.1917 8.2023L13.3317 1.4723C11.9017 0.4023 10.7717 0.0023 9.0517 0.0023H3.2317C1.1217 0.0023 0.0017 1.1123 0.0017 3.2023V17.5223C0.0017 19.8423 1.1017 20.9323 3.4617 20.9323ZM20.6917 10.3023H3.2717C2.1417 10.3023 1.4517 9.6123 1.4517 8.4623V3.2823C1.4517 2.1023 2.1217 1.4423 3.2717 1.4423H9.0517C10.4617 1.4423 11.3117 1.7023 12.3717 2.5323L21.0217 9.1523C21.5417 9.5523 21.3717 10.3023 20.6917 10.3023ZM28.8017 16.7623C29.0717 16.7623 29.2517 16.6623 29.4917 16.4223L34.2517 11.6523L38.9717 16.4023C39.2217 16.6523 39.4017 16.7423 39.6717 16.7423C40.0617 16.7423 40.3917 16.4323 40.3917 16.0423C40.3917 15.7823 40.3117 15.6123 40.0917 15.3823L35.3217 10.5823L40.1017 5.7623C40.3217 5.5323 40.4017 5.3523 40.4017 5.1123C40.4017 4.7323 40.0817 4.4023 39.6917 4.4023C39.4217 4.4023 39.2417 4.5023 38.9917 4.7423L34.2417 9.5123L29.5117 4.7623C29.2617 4.5123 29.0817 4.4223 28.8117 4.4223C28.4217 4.4223 28.0917 4.7323 28.0917 5.1323C28.0917 5.3923 28.1717 5.5623 28.3917 5.7923L33.1717 10.5823L28.3917 15.4023C28.1717 15.6323 28.0917 15.7923 28.0917 16.0623C28.0917 16.4423 28.4217 16.7623 28.8017 16.7623Z" />
        </svg>
    