
        <svg xmlns="http://www.w3.org/2000/svg" viewBox="0 0 100 100">
            <path d="M10.2617 7.2531H11.5317C12.3517 7.2531 12.9817 6.6231 12.9817 5.8031V1.4531C12.9817 0.6331 12.3517 0.0031 11.5317 0.0031H10.2617C9.4417 0.0031 8.8117 0.6331 8.8117 1.4531V5.8031C8.8117 6.6231 9.4417 7.2531 10.2617 7.2531ZM34.8717 7.2531H36.1417C36.9617 7.2531 37.5917 6.6231 37.5917 5.8031V1.4531C37.5917 0.6331 36.9617 0.0031 36.1417 0.0031H34.8717C34.0517 0.0031 33.4217 0.6331 33.4217 1.4531V5.8031C33.4217 6.6231 34.0517 7.2531 34.8717 7.2531ZM23.2017 23.8731C27.7217 23.8731 29.8217 22.5831 29.8217 19.7531V10.8531H30.3117C31.0417 10.8531 31.5217 10.2931 31.5217 9.4731V9.4131C31.5117 8.5631 31.0417 8.0031 30.3017 8.0031H29.8217V5.7331C29.8217 2.6931 27.5117 1.1131 23.2017 1.1131C18.9017 1.1131 16.5817 2.7031 16.5817 5.7331V7.9131H16.1017C15.3617 7.9131 14.8817 8.4731 14.8817 9.3131V9.3731C14.8817 10.1931 15.3617 10.7531 16.0917 10.7531H16.5817V19.7531C16.5817 22.5831 18.6917 23.8731 23.2017 23.8731ZM23.2017 11.0131C22.3017 11.0131 21.1517 11.1231 20.9017 11.1231C20.1717 11.1231 19.8317 10.7931 19.7717 10.0331L19.6017 8.3331C19.4717 6.9131 20.5517 6.4031 23.2017 6.4031C25.8517 6.4031 26.9317 6.9131 26.8017 8.3231L26.6417 10.0431C26.5817 10.7931 26.2417 11.1231 25.4917 11.1231C25.2517 11.1231 24.1017 11.0131 23.2017 11.0131ZM0.0017 15.2531C0.0017 16.2931 0.9617 16.7431 1.8117 16.2431L6.3717 13.5331C7.1917 13.0531 7.1817 11.9431 6.3717 11.4731L1.8117 8.7631C0.9517 8.2531 0.0017 8.7231 0.0017 9.7431ZM46.3917 15.2531V9.7431C46.3917 8.7231 45.4417 8.2531 44.5817 8.7631L40.0117 11.4731C39.2117 11.9431 39.2017 13.0531 40.0117 13.5331L44.5817 16.2431C45.4317 16.7331 46.3917 16.2931 46.3917 15.2531ZM10.2617 16.1531H11.5317C12.3517 16.1531 12.9817 15.5131 12.9817 14.6931V10.3431C12.9817 9.5231 12.3517 8.8931 11.5317 8.8931H10.2617C9.4417 8.8931 8.8117 9.5231 8.8117 10.3431V14.6931C8.8117 15.5131 9.4417 16.1531 10.2617 16.1531ZM34.8717 16.1531H36.1417C36.9617 16.1531 37.5917 15.5131 37.5917 14.6931V10.3431C37.5917 9.5231 36.9617 8.8931 36.1417 8.8931H34.8717C34.0517 8.8931 33.4217 9.5231 33.4217 10.3431V14.6931C33.4217 15.5131 34.0517 16.1531 34.8717 16.1531ZM23.2017 20.2731C20.4117 20.2731 19.4417 19.7931 19.6417 18.3531L19.7617 17.5431C19.9117 16.3731 20.8917 16.0231 23.2017 16.0231C25.5117 16.0231 26.4917 16.3731 26.6517 17.5431L26.7617 18.3531C26.9617 19.7931 25.9917 20.2731 23.2017 20.2731ZM10.2617 25.1031H11.5317C12.3517 25.1031 12.9817 24.4731 12.9817 23.6531V19.2031C12.9817 18.3831 12.3517 17.7531 11.5317 17.7531H10.2617C9.4417 17.7531 8.8117 18.3831 8.8117 19.2031V23.6531C8.8117 24.4731 9.4417 25.1031 10.2617 25.1031ZM34.8717 25.1031H36.1417C36.9617 25.1031 37.5917 24.4731 37.5917 23.6531V19.2031C37.5917 18.3831 36.9617 17.7531 36.1417 17.7531H34.8717C34.0517 17.7531 33.4217 18.3831 33.4217 19.2031V23.6531C33.4217 24.4731 34.0517 25.1031 34.8717 25.1031Z" />
        </svg>
    