
        <svg xmlns="http://www.w3.org/2000/svg" viewBox="0 0 100 100">
            <path d="M2.5914 25.2117L18.1714 15.4317C21.5914 13.2817 22.4014 9.7217 20.1414 7.0517C22.3414 7.6717 25.7614 7.3317 25.5914 5.8517C25.4614 4.8717 23.9614 4.7517 22.3814 5.0917C24.3614 3.7217 25.9214 1.7417 24.8714 0.6917C23.8314 -0.3583 21.8614 1.2017 20.4914 3.1717C20.8314 1.6117 20.7114 0.1317 19.7514 0.0117C18.2514 -0.1783 17.9314 3.1917 18.5114 5.4017C15.8714 3.0317 12.2614 3.8317 10.0614 7.3317L0.2814 22.8917C-0.2186 23.6717 0.0014 24.4617 0.5214 24.9917C1.0114 25.4817 1.8014 25.7117 2.5914 25.2117ZM7.1614 19.6817C7.0014 19.8317 6.9914 20.0817 7.1914 20.2617L7.8814 20.8917L2.1914 24.4617C1.3814 24.9717 0.5114 24.1117 1.0014 23.3017L9.5814 9.6717L10.8014 10.7817C10.9814 10.9417 11.2114 10.9017 11.3414 10.7817C11.5014 10.6217 11.5114 10.3817 11.3214 10.1917L10.0114 8.9917L10.7314 7.8517L12.7714 9.7017C12.9714 9.8617 13.2314 9.8117 13.3514 9.6617C13.4714 9.5017 13.4714 9.2817 13.3014 9.1117L11.1914 7.1817C13.1814 4.5217 16.0914 4.1217 18.2214 6.2817L19.2314 7.2917C21.4814 9.5817 20.8714 12.7317 17.7514 14.6917L10.4514 19.2717L8.9014 17.8517C8.7314 17.6917 8.4714 17.7217 8.3414 17.8917C8.2014 18.0317 8.1914 18.2817 8.3914 18.4417L9.7714 19.7017L8.5714 20.4517L7.7114 19.6717C7.5314 19.4917 7.2814 19.5317 7.1614 19.6817Z" />
        </svg>
    