
        <svg xmlns="http://www.w3.org/2000/svg" viewBox="0 0 100 100">
            <path d="M4.2655 28.6195L20.4055 18.4895C23.9355 16.2795 25.1655 12.8095 23.7355 9.8195C26.4055 9.8695 29.6055 8.7995 29.0655 6.7795C28.8155 5.8395 27.9655 5.4695 26.8955 5.4995C28.1455 4.0795 28.7355 2.5295 27.6555 1.4495C26.5955 0.3895 25.0455 0.9595 23.6355 2.2095C23.6655 1.1495 23.2955 0.2995 22.3555 0.0595C20.3255 -0.4705 19.2655 2.7195 19.3055 5.3895C16.3055 3.9095 12.8255 5.0895 10.5555 8.6595L0.4355 24.7595C-0.2945 25.9095 -0.0645 27.3595 0.8255 28.2495C1.6755 29.0995 3.1055 29.3395 4.2655 28.6195ZM8.0855 20.6195C7.6255 21.0895 7.6255 21.7495 8.0855 22.2295L8.3955 22.5195L4.0555 25.2495C3.8355 25.3895 3.6455 25.2195 3.7955 24.9795L11.0555 13.4595L11.8355 14.2395C12.3055 14.7095 12.9455 14.7195 13.4455 14.2395C13.8955 13.7695 13.9155 13.0895 13.4455 12.6295L12.2955 11.4995L12.9055 10.5095L14.7655 12.3695C15.2355 12.8595 15.9055 12.8395 16.3755 12.3695C16.8455 11.9095 16.8455 11.2495 16.3755 10.7695L14.3355 8.7395C15.8755 7.4195 17.7055 7.4595 19.2555 8.9995L20.0755 9.8195C22.0555 11.7795 21.5155 14.2695 18.8455 15.9495L13.3055 19.4395L12.1055 18.2595C11.6355 17.7995 11.0055 17.7895 10.5155 18.2495C10.0455 18.7295 10.0455 19.3895 10.5155 19.8495L11.3355 20.6695L10.3555 21.2895L9.6955 20.6195C9.2255 20.1395 8.5555 20.1595 8.0855 20.6195Z" />
        </svg>
    