
        <svg xmlns="http://www.w3.org/2000/svg" viewBox="0 0 100 100">
            <path d="M0.2143 20.4247C1.3143 24.4447 2.4443 25.6747 5.0043 25.6747H19.2443C21.1243 25.6747 22.3743 24.6547 22.8443 22.7547L27.3443 4.5247C28.0143 1.8547 26.6643 0.0047 24.1543 0.0047C21.3643 0.0047 19.2443 2.5447 19.6743 5.7647C17.3743 7.7847 16.1543 11.3247 16.3143 15.5647C13.9243 15.1847 11.2043 14.9847 8.4943 14.9847C1.8743 14.9847 -0.8157 16.6847 0.2143 20.4247ZM15.0143 7.8847L16.3143 2.8947C16.5043 2.1747 15.9543 1.6647 15.2243 1.8847L10.5643 3.2847C9.8543 3.4947 9.6543 4.2547 10.1743 4.7647L13.5643 8.2347C14.1043 8.7747 14.8243 8.6347 15.0143 7.8847ZM2.5543 19.7847C2.0843 18.0947 3.4343 17.4247 8.4943 17.4247C12.8043 17.4247 15.8343 18.0247 17.1243 18.0947C17.9943 18.1047 18.5543 17.5147 18.5543 16.6647C18.4943 12.0747 19.5643 8.8947 21.6043 7.2847C22.0843 6.8947 22.2143 6.5347 22.0843 5.7347C21.7643 3.6347 22.8343 2.4347 24.1243 2.4347C24.8443 2.4347 25.2143 2.9847 24.9843 3.9047L20.4643 22.1747C20.2843 22.8747 19.8943 23.2347 19.2443 23.2347H5.0043C3.8343 23.2347 3.4043 22.8847 2.5543 19.7847ZM28.1243 12.2347C27.9443 12.9747 28.4943 13.4547 29.2243 13.2447L33.8843 11.8447C34.5843 11.6347 34.7743 10.8847 34.2543 10.3747L30.8743 6.8747C30.3443 6.3447 29.6143 6.5047 29.4243 7.2447Z" />
        </svg>
    