
        <svg xmlns="http://www.w3.org/2000/svg" viewBox="0 0 100 100">
            <path d="M28.381 21.1181C29.491 17.1281 26.671 15.2481 19.631 15.2481C16.691 15.2481 13.791 15.4781 11.351 15.8881C11.971 11.6281 10.731 8.0981 7.841 6.0081C8.061 2.7181 6.011 -0.0019 3.221 -0.0019C0.881 -0.0019 -0.529 1.9381 0.191 4.8081L4.811 23.5181C5.321 25.5681 6.671 26.6681 8.691 26.6681H23.281C26.011 26.6681 27.211 25.3681 28.381 21.1181ZM19.351 35.0081C19.351 35.9681 20.241 36.3681 21.011 35.9081L25.171 33.4381C25.931 32.9781 25.921 31.9681 25.171 31.5081L21.011 29.0281C20.221 28.5581 19.351 29.0081 19.351 29.9281ZM13.501 35.0181V29.9381C13.501 29.0081 12.631 28.5681 11.851 29.0381L7.691 31.5281C6.921 31.9681 6.911 32.9881 7.691 33.4481L11.831 35.9181C12.621 36.3781 13.501 35.9681 13.501 35.0181Z" />
        </svg>
    