
        <svg xmlns="http://www.w3.org/2000/svg" viewBox="0 0 100 100">
            <path d="M0.2247 20.7689C1.3647 24.8889 2.5347 26.1689 5.1847 26.1689H19.5947C21.5447 26.1689 22.8647 25.0989 23.3447 23.1189L27.9047 4.6889C28.5747 1.9789 27.1647 -0.0011 24.5147 -0.0011C21.6047 -0.0011 19.4647 2.7089 19.8447 5.9489C17.5547 8.0189 16.3547 11.4889 16.5147 15.6589C14.1347 15.2889 11.4447 15.1089 8.7447 15.1089C1.9247 15.1089 -0.8553 16.8889 0.2247 20.7689ZM2.8647 20.0289C2.4247 18.4689 3.7247 17.8489 8.7447 17.8489C13.1247 17.8489 16.1847 18.4689 17.4447 18.5189C18.3947 18.5289 19.0247 17.8689 19.0247 16.9289C18.9747 12.2389 19.9947 9.2689 22.0347 7.6289C22.5247 7.2189 22.6647 6.7989 22.5547 5.9789C22.2347 3.9389 23.2247 2.7489 24.4847 2.7489C25.1147 2.7489 25.4347 3.2189 25.2447 3.9889L20.6647 22.4689C20.5147 23.1089 20.1747 23.4289 19.5947 23.4289H5.1847C4.0847 23.4289 3.7047 23.1089 2.8647 20.0289ZM6.8347 13.4489H12.2047C13.0247 13.4489 13.4047 12.7289 12.9747 12.0189L10.3547 7.6489C9.9547 6.9989 9.0847 6.9889 8.6847 7.6489L6.0647 12.0189C5.6447 12.7189 5.9947 13.4489 6.8347 13.4489ZM6.8247 27.8289C5.9947 27.8289 5.6447 28.5689 6.0547 29.2589L8.6747 33.6289C9.0847 34.3089 9.9547 34.2889 10.3347 33.6289L12.9747 29.2589C13.3947 28.5589 13.0247 27.8289 12.2047 27.8289Z" />
        </svg>
    