
        <svg xmlns="http://www.w3.org/2000/svg" viewBox="0 0 100 100">
            <path d="M26.3276 19.8397C27.2876 16.3397 24.7376 14.8097 18.4676 14.8097C15.7376 14.8097 12.9776 15.0097 10.5676 15.4097C10.7276 11.0297 9.4576 7.3697 7.1376 5.4397C7.6576 2.2297 5.5576 -0.0003 3.0176 -0.0003C0.7476 -0.0003 -0.4724 1.6397 0.1676 4.2297L4.5776 22.1097C5.0076 23.8797 6.1676 24.8197 7.8976 24.8197H21.8176C24.2276 24.8197 25.2976 23.6597 26.3276 19.8397ZM24.5276 19.3397C23.6676 22.5097 23.1276 22.9297 21.8176 22.9297H7.8976C7.1176 22.9297 6.6176 22.4897 6.4176 21.6597L1.9776 3.7397C1.6976 2.5897 2.1676 1.8897 3.0276 1.8897C4.3676 1.8897 5.5876 3.1097 5.2576 5.2997C5.1376 6.1097 5.2176 6.3297 5.6676 6.6897C7.7276 8.2297 8.8876 11.7897 8.7976 16.1997C8.7976 16.9097 9.2376 17.3697 9.9576 17.3597C11.2976 17.2597 14.2976 16.6997 18.4676 16.6997C23.6076 16.6997 25.0276 17.4497 24.5276 19.3397ZM20.1476 13.0297C20.7876 13.0297 21.0576 12.5297 20.7176 11.9797L18.1876 7.8197C17.8576 7.2797 17.2376 7.2897 16.9176 7.8197L14.3676 11.9797C14.0276 12.5297 14.3176 13.0297 14.9376 13.0297ZM20.1476 26.6097H14.9376C14.3176 26.6097 14.0276 27.1297 14.3676 27.6797L16.9176 31.8397C17.2376 32.3597 17.8476 32.3797 18.1876 31.8397L20.7176 27.6797C21.0476 27.1297 20.7876 26.6097 20.1476 26.6097Z" />
        </svg>
    