
        <svg xmlns="http://www.w3.org/2000/svg" viewBox="0 0 100 100">
            <path d="M15.1708 13.3011C15.1708 11.7611 13.7908 10.9111 13.7908 9.8511C13.7908 9.2711 13.9408 8.9411 14.3408 8.4111C14.9008 7.6611 13.8508 6.9111 13.2908 7.6411C12.7208 8.3411 12.4908 8.9911 12.4908 9.7711C12.4908 11.3711 13.8508 12.1511 13.8508 13.3011C13.8508 13.9311 13.4308 14.4611 13.0508 15.0811C12.0208 15.2011 11.0408 15.3411 10.1408 15.5111C10.5508 10.9111 9.1508 7.1011 6.2108 5.1911C6.8208 1.9611 4.6308 0.0011 2.6108 0.0011C0.9208 0.0011 -0.5292 1.3111 0.1908 4.2311L4.5908 22.1111C5.0308 23.8711 6.1908 24.8111 7.9208 24.8111H21.6008C24.0108 24.8111 25.0808 23.6511 26.1108 19.8311C26.8508 17.1611 25.5308 15.6311 22.0908 15.0611C22.4008 14.5711 22.6908 14.0011 22.6908 13.3011C22.6908 11.7611 21.3008 10.9111 21.3008 9.8511C21.3008 9.2711 21.4608 8.9411 21.8508 8.4111C22.4208 7.6611 21.3608 6.9111 20.8008 7.6411C20.2408 8.3411 20.0008 8.9911 20.0008 9.7711C20.0008 11.3711 21.3608 12.1511 21.3608 13.3011C21.3608 13.8711 21.0208 14.3511 20.6808 14.8911C21.1908 14.9311 21.6508 14.9911 22.0908 15.0611C21.7108 15.6711 21.3008 16.1711 21.3008 16.7311C21.3008 17.3411 21.4608 17.6611 21.8408 18.1711C22.4008 18.9211 21.3508 19.6711 20.8008 18.9611C20.2408 18.2711 20.0008 17.6211 20.0008 16.8211C20.0008 16.0311 20.3408 15.4311 20.6808 14.8911C20.0108 14.8311 19.2808 14.8011 18.4908 14.8011C18.7408 14.3711 18.9208 13.8911 18.9208 13.3011C18.9208 11.7611 17.5408 10.9111 17.5408 9.8511C17.5408 9.2711 17.7108 8.9411 18.0908 8.4111C18.6508 7.6611 17.6108 6.9111 17.0508 7.6411C16.4908 8.3411 16.2408 8.9911 16.2408 9.7711C16.2408 11.3711 17.6008 12.1511 17.6008 13.3011C17.6008 13.8411 17.3008 14.3111 16.9708 14.8111C16.1908 14.8311 15.4208 14.8811 14.6608 14.9311C14.2608 15.5811 13.7908 16.1411 13.7908 16.7311C13.7908 17.3411 13.9408 17.6611 14.3308 18.1711C14.8908 18.9211 13.8408 19.6711 13.2808 18.9611C12.7208 18.2711 12.4908 17.6211 12.4908 16.8211C12.4908 16.1211 12.7508 15.5711 13.0508 15.0811C13.5808 15.0211 14.1108 14.9811 14.6608 14.9311C14.9408 14.4711 15.1708 13.9411 15.1708 13.3011ZM17.0408 18.9611C16.4908 18.2711 16.2408 17.6211 16.2408 16.8211C16.2408 15.9911 16.6208 15.3711 16.9708 14.8111C17.4008 14.8011 17.8208 14.8011 18.2408 14.8011C18.3308 14.8011 18.4108 14.8011 18.4908 14.8011C18.0808 15.5111 17.5408 16.0911 17.5408 16.7311C17.5408 17.3411 17.7108 17.6611 18.0908 18.1711C18.6408 18.9211 17.6008 19.6711 17.0408 18.9611Z" />
        </svg>
    