
        <svg xmlns="http://www.w3.org/2000/svg" viewBox="0 0 100 100">
            <path d="M0.1421 18.9931C0.9921 22.4431 2.2521 23.4831 4.3321 23.4831H17.0021C18.5121 23.4831 19.6021 22.5831 19.9821 21.0431L24.3521 3.2131C24.8721 1.0731 23.7521 0.0031 22.2521 0.0031C20.4421 0.0031 18.7121 1.5331 19.1521 4.4431C16.3921 6.1631 14.7821 10.5631 15.1221 15.4031C12.6821 14.9531 9.8321 14.7231 6.9421 14.7231C1.5521 14.7231 -0.5979 15.9831 0.1421 18.9931ZM3.3121 9.9831H8.5921C8.8221 9.9831 8.9721 9.8131 8.9721 9.5931C8.9721 9.3731 8.8121 9.2031 8.5921 9.2031L4.1021 9.2131V9.2031L7.2121 5.7431C8.0721 4.7931 8.5121 4.0331 8.5121 3.0931C8.5121 1.5831 7.4221 0.5831 5.7121 0.5831C4.2421 0.5831 3.0121 1.4931 2.8121 2.7231C2.7921 2.8231 2.7621 2.9131 2.7621 3.0231C2.7621 3.2731 2.9321 3.4231 3.1621 3.4231C3.4121 3.4231 3.5421 3.2931 3.5821 3.0831C3.7021 2.0931 4.5521 1.3631 5.7221 1.3631C6.9121 1.3631 7.7021 2.0531 7.7021 3.1031C7.7021 3.8231 7.3121 4.4631 6.5721 5.2931L3.0721 9.1731C2.9321 9.3131 2.8721 9.4231 2.8721 9.5731C2.8721 9.8231 3.0521 9.9831 3.3121 9.9831ZM0.9721 18.7731C0.4121 16.5131 2.0621 15.5931 6.9421 15.5931C10.2121 15.5931 13.2121 15.9331 15.2221 16.2931C15.7021 16.3431 15.9821 16.0931 15.9621 15.5931C15.6321 11.0231 17.1421 6.6231 19.7721 5.0731C20.0521 4.9031 20.0421 4.7431 19.9921 4.3831C19.7221 2.0031 20.9521 0.8631 22.2321 0.8631C23.1521 0.8631 23.8721 1.5831 23.5221 3.0331L19.1521 20.8231C18.8721 21.9531 18.0721 22.6031 17.0021 22.6031H4.3321C2.7621 22.6031 1.7621 21.9031 0.9721 18.7731Z" />
        </svg>
    