
        <svg xmlns="http://www.w3.org/2000/svg" viewBox="0 0 100 100">
            <path d="M0.2065 20.122C1.2565 24.042 2.3665 25.242 4.8465 25.242H18.7465C20.5465 25.242 21.7465 24.272 22.2065 22.442L26.6565 4.362C27.3865 1.452 25.9265 0.002 24.0865 0.002C21.8865 0.002 19.7265 2.142 20.2465 5.382C17.3165 7.352 15.9665 11.072 16.4265 15.602C15.5465 15.432 14.5765 15.292 13.5565 15.192C13.8365 14.722 14.0665 14.192 14.0665 13.532C14.0665 11.962 12.6865 11.102 12.6865 10.092C12.6865 9.512 12.8265 9.212 13.2265 8.682C13.8365 7.862 12.6865 7.042 12.0665 7.832C11.5065 8.542 11.2565 9.202 11.2565 10.012C11.2565 11.652 12.6165 12.412 12.6165 13.532C12.6165 14.072 12.2965 14.532 11.9665 15.032C12.5065 15.082 13.0365 15.132 13.5565 15.192C13.1565 15.842 12.6865 16.382 12.6865 16.972C12.6865 17.552 12.8265 17.862 13.2165 18.372C13.8265 19.182 12.6765 20.012 12.0665 19.232C11.5065 18.532 11.2565 17.872 11.2565 17.052C11.2565 16.202 11.6165 15.582 11.9665 15.032C11.3065 14.992 10.6165 14.952 9.9165 14.932C10.1365 14.522 10.2965 14.072 10.2965 13.532C10.2965 11.962 8.9165 11.102 8.9165 10.092C8.9165 9.512 9.0665 9.212 9.4565 8.682C10.0565 7.862 8.9165 7.042 8.2965 7.832C7.7265 8.542 7.4865 9.202 7.4865 10.012C7.4865 11.652 8.8465 12.412 8.8465 13.532C8.8465 14.012 8.5865 14.442 8.2965 14.892C8.8165 14.892 9.3665 14.902 9.9165 14.932C9.5065 15.712 8.9165 16.312 8.9165 16.972C8.9165 17.552 9.0665 17.862 9.4365 18.372C10.0465 19.182 8.8965 20.012 8.2965 19.232C7.7265 18.532 7.4865 17.872 7.4865 17.052C7.4865 16.132 7.9165 15.492 8.2965 14.892H8.2665C7.5065 14.892 6.7965 14.922 6.1365 14.962C5.7265 15.742 5.1365 16.322 5.1365 16.972C5.1365 17.552 5.2965 17.862 5.6665 18.372C6.2765 19.182 5.1265 20.012 4.5165 19.232C3.9565 18.532 3.7065 17.872 3.7065 17.052C3.7065 16.282 4.0165 15.692 4.3465 15.172C4.8865 15.082 5.4765 15.012 6.1365 14.962C6.3565 14.552 6.5265 14.082 6.5265 13.532C6.5265 11.962 5.1365 11.102 5.1365 10.092C5.1365 9.512 5.2965 9.212 5.6765 8.682C6.2865 7.862 5.1365 7.042 4.5165 7.832C3.9565 8.542 3.7065 9.202 3.7065 10.012C3.7065 11.652 5.0665 12.412 5.0665 13.532C5.0665 14.122 4.6965 14.602 4.3465 15.172C0.7965 15.772 -0.5535 17.372 0.2065 20.122Z" />
        </svg>
    