
        <svg xmlns="http://www.w3.org/2000/svg" viewBox="0 0 100 100">
            <path d="M14.6036 13.2081C14.6036 11.7581 13.2236 10.8781 13.2236 9.7381C13.2236 9.1381 13.3836 8.7881 13.7936 8.2381C14.2536 7.6281 13.4036 7.0181 12.9236 7.6181C12.3936 8.3081 12.1636 8.9181 12.1636 9.6781C12.1636 11.1981 13.5236 12.1081 13.5236 13.2081C13.5236 13.8181 13.0836 14.3881 12.7036 15.0381C11.6636 15.1481 10.6736 15.2881 9.7636 15.4681C10.1636 10.7481 8.6736 6.6881 5.7436 4.8381C6.2936 1.7481 4.2936 -0.0019 2.4036 -0.0019C0.8536 -0.0019 -0.4764 1.1881 0.1636 3.7881L4.5636 21.6481C4.9636 23.3081 6.0936 24.2381 7.7336 24.2381H20.9536C23.2236 24.2381 24.3736 23.1181 25.3236 19.4681C26.0036 16.8881 24.7036 15.4681 21.2736 14.9681C21.6036 14.4581 21.9036 13.8981 21.9036 13.2081C21.9036 11.7581 20.5236 10.8781 20.5236 9.7381C20.5236 9.1381 20.6836 8.7881 21.0836 8.2381C21.5436 7.6281 20.6936 7.0181 20.2236 7.6181C19.6936 8.3081 19.4536 8.9181 19.4536 9.6781C19.4536 11.1981 20.8236 12.1081 20.8236 13.2081C20.8236 13.7581 20.4636 14.2781 20.1236 14.8381C20.5236 14.8681 20.9036 14.9181 21.2736 14.9681C20.9036 15.5381 20.5236 16.0681 20.5236 16.6481C20.5236 17.2781 20.6836 17.6281 21.0736 18.1381C21.5136 18.7481 20.6736 19.3581 20.2136 18.7881C19.6936 18.1181 19.4536 17.5081 19.4536 16.7081C19.4536 15.9881 19.7836 15.3881 20.1236 14.8381C19.4536 14.7881 18.7136 14.7681 17.9336 14.7681C17.8736 14.7681 17.8136 14.7681 17.7536 14.7681C17.3536 15.4181 16.8736 15.9981 16.8736 16.6481C16.8736 17.2781 17.0436 17.6281 17.4136 18.1381C17.8736 18.7481 17.0336 19.3581 16.5736 18.7881C16.0336 18.1181 15.8136 17.5081 15.8136 16.7081C15.8136 15.9481 16.1636 15.3381 16.5036 14.7781C16.9236 14.7681 17.3336 14.7681 17.7536 14.7681C18.0236 14.3081 18.2436 13.8181 18.2436 13.2081C18.2436 11.7581 16.8736 10.8781 16.8736 9.7381C16.8736 9.1381 17.0436 8.7881 17.4436 8.2381C17.8936 7.6281 17.0536 7.0181 16.5836 7.6181C16.0336 8.3081 15.8136 8.9181 15.8136 9.6781C15.8136 11.1981 17.1736 12.1081 17.1736 13.2081C17.1736 13.7381 16.8436 14.2381 16.5036 14.7781C15.6536 14.7981 14.8236 14.8481 14.0036 14.9181C13.6336 15.5181 13.2236 16.0381 13.2236 16.6481C13.2236 17.2781 13.3836 17.6281 13.7736 18.1381C14.2236 18.7481 13.3736 19.3581 12.9136 18.7881C12.3936 18.1181 12.1636 17.5081 12.1636 16.7081C12.1636 16.0681 12.4136 15.5281 12.7036 15.0381C13.1236 14.9881 13.5636 14.9481 14.0036 14.9181C14.3236 14.4281 14.6036 13.8781 14.6036 13.2081Z" />
        </svg>
    