
        <svg xmlns="http://www.w3.org/2000/svg" viewBox="0 0 100 100">
            <path d="M24.2902 18.9931C25.0302 15.9831 22.8902 14.7231 17.4902 14.7231C14.5602 14.7231 11.6902 14.9631 9.2702 15.4231C9.6702 10.5631 8.0402 6.1331 5.1402 4.4131C5.5802 1.4731 3.8302 0.0031 2.1302 0.0031C0.7602 0.0031 -0.4098 1.0031 0.1402 3.2131L4.5002 21.0431C4.8702 22.5831 5.9602 23.4831 7.4702 23.4831H20.0802C22.1802 23.4831 23.4402 22.4431 24.2902 18.9931ZM20.1302 10.2231C20.4002 10.2231 20.5502 10.0531 20.5502 9.7831V1.0531C20.5502 0.7531 20.3402 0.5831 20.0702 0.5831C19.8602 0.5831 19.7202 0.6431 19.4902 0.8131L17.1402 2.3331C17.0002 2.4231 16.9602 2.5331 16.9602 2.6731C16.9602 2.8731 17.1202 3.0331 17.3102 3.0331C17.3902 3.0331 17.4602 3.0131 17.6202 2.8931L19.6502 1.5931H19.7102V9.7831C19.7102 10.0531 19.8902 10.2231 20.1302 10.2231Z" />
        </svg>
    