
        <svg xmlns="http://www.w3.org/2000/svg" viewBox="0 0 100 100">
            <path d="M27.8418 20.7608C28.9218 16.8908 26.1418 15.0908 19.3318 15.0908C16.6418 15.0908 13.9318 15.2808 11.5518 15.6408C11.7218 11.4708 10.5218 8.0008 8.2218 5.9508C8.6018 2.6908 6.4718 0.0008 3.5518 0.0008C0.9118 0.0008 -0.5082 1.9708 0.1618 4.6908L4.7218 23.1108C5.2118 25.1008 6.5318 26.1708 8.4818 26.1708H22.8918C25.5518 26.1708 26.7218 24.8908 27.8418 20.7608ZM19.0518 11.0908H24.6818C25.2618 11.0908 25.6718 10.6708 25.6718 10.1108C25.6718 9.5408 25.2618 9.1508 24.6818 9.1508H21.2918V9.1208L23.5118 6.9208C24.5018 5.9908 25.1718 5.0908 25.1718 3.9808C25.1718 2.2308 23.7418 1.0708 21.5418 1.0708C19.9118 1.0708 18.4418 1.9208 18.0718 3.2008C18.0318 3.3908 18.0018 3.5508 18.0018 3.7308C18.0018 4.3108 18.4118 4.7108 19.0118 4.7108C19.5318 4.7108 19.8518 4.4508 20.0518 4.0208C20.2818 3.4408 20.7518 2.9608 21.5418 2.9608C22.3518 2.9608 22.8918 3.4308 22.8918 4.1108C22.8918 4.7208 22.4018 5.2608 21.8018 5.8608L18.4918 9.0308C18.1618 9.3408 17.9718 9.6708 17.9718 10.0508C17.9718 10.6708 18.3918 11.0908 19.0518 11.0908ZM25.2118 20.0308C24.3618 23.1108 23.9918 23.4108 22.8918 23.4108H8.4818C7.9018 23.4108 7.5618 23.1008 7.4018 22.4508L2.8218 3.9808C2.6418 3.2208 2.9518 2.7408 3.5818 2.7408C4.8518 2.7408 5.8318 3.9408 5.5218 5.9808C5.4018 6.8008 5.5518 7.2108 6.0318 7.6208C8.0718 9.2708 9.0918 12.2208 9.0518 16.9208C9.0518 17.8708 9.6818 18.5108 10.6318 18.5008C11.8818 18.4708 14.9518 17.8508 19.3318 17.8508C24.3418 17.8508 25.6418 18.4608 25.2118 20.0308Z" />
        </svg>
    