
        <svg xmlns="http://www.w3.org/2000/svg" viewBox="0 0 100 100">
            <path d="M0.1691 19.4813C1.1191 23.1313 2.2691 24.2413 4.5491 24.2413H17.7791C19.3991 24.2413 20.5391 23.3213 20.9391 21.6513L25.3291 3.8012C25.9791 1.1812 24.6391 0.0012 23.0991 0.0012C21.2091 0.0012 19.2091 1.7613 19.7591 4.8513C16.8291 6.6913 15.3391 10.7613 15.7391 15.4813C13.3591 15.0213 10.4491 14.7613 7.5791 14.7613C1.6891 14.7613 -0.6909 16.1813 0.1691 19.4813ZM5.8991 12.9913H11.1391C11.6791 12.9913 11.9191 12.5413 11.6391 12.0813L9.0691 7.9013C8.7991 7.4513 8.2491 7.4413 7.9691 7.9013L5.4191 12.0813C5.1391 12.5313 5.3491 12.9913 5.8991 12.9913ZM5.8991 26.0413C5.3491 26.0413 5.1491 26.4913 5.4191 26.9513L7.9691 31.1413C8.2491 31.5913 8.7991 31.5813 9.0691 31.1413L11.6391 26.9413C11.9191 26.4913 11.6791 26.0413 11.1391 26.0413Z" />
        </svg>
    