
        <svg xmlns="http://www.w3.org/2000/svg" viewBox="0 0 100 100">
            <path d="M27.8418 20.77C28.9218 16.89 26.1418 15.09 19.3318 15.09C16.6418 15.09 13.9318 15.29 11.5518 15.66C11.7218 11.47 10.5218 8 8.2218 5.95C8.6018 2.71 6.4718 0 3.5518 0C0.9118 0 -0.5082 1.98 0.1618 4.69L4.7218 23.12C5.2118 25.1 6.5318 26.17 8.4818 26.17H22.8918C25.5518 26.17 26.7218 24.89 27.8418 20.77ZM25.2118 20.03C24.3618 23.11 23.9918 23.41 22.8918 23.41H8.4818C7.9018 23.41 7.5618 23.11 7.4018 22.46L2.8218 3.98C2.6418 3.22 2.9518 2.75 3.5818 2.75C4.8518 2.75 5.8318 3.94 5.5218 5.98C5.4018 6.8 5.5518 7.22 6.0318 7.62C8.0718 9.27 9.0918 12.22 9.0518 16.93C9.0518 17.87 9.6818 18.52 10.6318 18.52C11.8818 18.47 14.9518 17.85 19.3318 17.85C24.3418 17.85 25.6418 18.47 25.2118 20.03ZM19.0818 34.38C19.0818 35.23 19.8418 35.59 20.5318 35.17L24.6918 32.67C25.3718 32.26 25.3718 31.38 24.6918 30.97L20.5318 28.46C19.8318 28.04 19.0818 28.44 19.0818 29.26ZM13.1518 34.38V29.26C13.1518 28.44 12.4018 28.05 11.6918 28.48L7.5318 30.98C6.8718 31.38 6.8418 32.27 7.5318 32.67L11.6918 35.18C12.4018 35.59 13.1518 35.23 13.1518 34.38Z" />
        </svg>
    