
        <svg xmlns="http://www.w3.org/2000/svg" viewBox="0 0 100 100">
            <path d="M0.1305 18.7539C0.9405 22.0939 2.2405 23.0839 4.2305 23.0839H16.5305C17.9705 23.0839 19.0505 22.2039 19.4005 20.7339L23.7605 2.9139C24.2405 0.9139 23.1505 0.0039 21.8905 0.0039C20.3005 0.0039 18.6705 1.3239 19.0605 4.1739C16.1905 5.8039 14.4705 10.4339 14.8805 15.3939C12.4205 14.9439 9.5505 14.6939 6.6105 14.6939C1.4605 14.6939 -0.5495 15.8939 0.1305 18.7539ZM0.6705 18.6139C0.0905 16.2339 1.8105 15.2739 6.6105 15.2739C9.6105 15.2739 12.6205 15.5539 14.8305 15.9739C15.2405 16.0539 15.4805 15.8439 15.4405 15.4239C15.0605 10.8039 16.6605 6.1539 19.4605 4.5939C19.6705 4.4739 19.6505 4.3439 19.6205 4.1139C19.3705 1.6839 20.6105 0.5739 21.8705 0.5739C22.8005 0.5739 23.5905 1.2939 23.2105 2.8239L18.8705 20.5639C18.5605 21.7839 17.6805 22.5139 16.5305 22.5139H4.2305C2.5805 22.5139 1.4305 21.7239 0.6705 18.6139ZM0.7405 7.6639C0.7405 9.2939 2.1305 10.8739 3.7105 10.8739C4.9105 10.8739 5.6405 9.9339 5.9905 7.8739L6.5005 7.8539V10.2039C6.5005 11.0639 6.9105 11.4939 7.7305 11.4939C9.3605 11.4939 10.9405 10.0939 10.9405 8.5239C10.9405 7.3139 10.0105 6.6139 7.9305 6.2339L7.9105 5.7039H10.2905C11.1505 5.7039 11.5505 5.2939 11.5505 4.4739C11.5505 2.8439 10.1605 1.2639 8.5905 1.2639C7.3805 1.2639 6.6705 2.2039 6.3105 4.2739L5.8005 4.3139V1.9339C5.8005 1.0739 5.3805 0.6439 4.5605 0.6439C2.9205 0.6439 1.3305 2.0539 1.3305 3.6239C1.3305 4.8239 2.2805 5.5339 4.3505 5.8939L4.3705 6.4239H2.0105C1.1505 6.4239 0.7405 6.8439 0.7405 7.6639ZM6.1405 7.2639C5.4805 7.2639 4.9405 6.7239 4.9405 6.0739C4.9405 5.4139 5.4805 4.8739 6.1405 4.8739C6.8005 4.8739 7.3305 5.4139 7.3305 6.0739C7.3305 6.7239 6.8005 7.2639 6.1405 7.2639Z" />
        </svg>
    