
        <svg xmlns="http://www.w3.org/2000/svg" viewBox="0 0 100 100">
            <path d="M0.2068 20.1672C1.2768 24.0972 2.3768 25.2972 4.8668 25.2972H18.9668C20.7868 25.2972 21.9868 24.3172 22.4468 22.4772L26.9168 4.3972C27.5668 1.7572 26.2668 -0.0028 23.8668 -0.0028C21.1868 -0.0028 19.0768 2.4072 19.5468 5.6172C17.2368 7.6072 15.9868 11.1872 16.1568 15.4872C15.4168 15.3772 14.6468 15.2672 13.8468 15.1872C14.1168 14.7272 14.3368 14.2172 14.3368 13.5672C14.3368 11.9972 12.9568 11.1372 12.9568 10.1272C12.9568 9.5472 13.1068 9.2472 13.4968 8.7172C14.1068 7.8972 12.9568 7.0772 12.3368 7.8672C11.7768 8.5772 11.5268 9.2372 11.5268 10.0472C11.5268 11.6872 12.8868 12.4472 12.8868 13.5672C12.8868 14.0972 12.5768 14.5472 12.2568 15.0472C11.5868 14.9972 10.8968 14.9672 10.2068 14.9372C10.4168 14.5472 10.5668 14.0972 10.5668 13.5672C10.5668 11.9972 9.1868 11.1372 9.1868 10.1272C9.1868 9.5472 9.3368 9.2472 9.7168 8.7172C10.3268 7.8972 9.1868 7.0772 8.5568 7.8672C7.9968 8.5772 7.7568 9.2372 7.7568 10.0472C7.7568 11.6872 9.1168 12.4472 9.1168 13.5672C9.1168 14.0472 8.8668 14.4572 8.5768 14.9072C8.4768 14.9072 8.3968 14.9072 8.3068 14.9072C7.6368 14.9072 7.0168 14.9272 6.4268 14.9672C6.6368 14.5572 6.7968 14.1072 6.7968 13.5672C6.7968 11.9972 5.4068 11.1372 5.4068 10.1272C5.4068 9.5472 5.5568 9.2472 5.9468 8.7172C6.5568 7.8972 5.4068 7.0772 4.7868 7.8672C4.2268 8.5772 3.9768 9.2372 3.9768 10.0472C3.9768 11.6872 5.3368 12.4472 5.3368 13.5672C5.3368 14.1172 4.9968 14.5972 4.6568 15.1372C0.8768 15.7072 -0.5832 17.3072 0.2068 20.1672ZM2.3168 19.5772C2.0068 18.4772 2.4168 17.7972 3.9868 17.4372C4.0568 18.0972 4.3068 18.6672 4.7868 19.2672C5.3968 20.0472 6.5468 19.2172 5.9368 18.4072C5.6068 17.9672 5.4568 17.6672 5.4168 17.2172C6.0768 17.1572 6.8468 17.1172 7.7568 17.1072C7.7568 17.9072 7.9968 18.5672 8.5568 19.2672C9.1668 20.0472 10.3168 19.2172 9.7068 18.4072C9.3568 17.9272 9.2068 17.6372 9.1868 17.1072C10.0168 17.1372 10.7968 17.1672 11.5268 17.2172C11.5468 17.9772 11.7968 18.5972 12.3368 19.2672C12.9468 20.0472 14.0968 19.2172 13.4868 18.4072C13.1768 17.9972 13.0268 17.7272 12.9668 17.3272C14.7868 17.5072 16.1168 17.7172 16.8868 17.7672C17.6768 17.7772 18.1968 17.2472 18.1868 16.4572C18.1168 11.9372 19.2268 8.5972 21.2768 7.0172C21.7368 6.6472 21.8368 6.3472 21.7168 5.5472C21.3968 3.3972 22.5268 2.1872 23.8468 2.1872C24.6268 2.1872 25.0368 2.8172 24.7968 3.8172L20.3068 21.9472C20.1168 22.6972 19.6668 23.1072 18.9668 23.1072H4.8668C3.6368 23.1072 3.1568 22.7272 2.3168 19.5772Z" />
        </svg>
    