
        <svg xmlns="http://www.w3.org/2000/svg" viewBox="0 0 100 100">
            <path d="M0.212 20.3667C1.302 24.3667 2.412 25.5867 4.972 25.5867H19.022C20.882 25.5867 22.112 24.5767 22.582 22.6967L27.082 4.4667C27.802 1.5667 26.372 -0.0033 24.402 -0.0033C22.052 -0.0033 19.932 2.2867 20.372 5.5267C17.452 7.5367 16.122 11.2167 16.632 15.6767C14.252 15.2367 11.332 14.9867 8.452 14.9867C1.852 14.9867 -0.808 16.6667 0.212 20.3667ZM8.812 33.8067V28.6567C8.812 27.9067 8.142 27.5467 7.502 27.9467L3.342 30.4667C2.722 30.8467 2.712 31.6267 3.342 32.0067L7.502 34.5267C8.142 34.9067 8.812 34.5867 8.812 33.8067ZM14.792 33.8167C14.792 34.5867 15.462 34.9067 16.102 34.5267L20.262 32.0167C20.892 31.6367 20.882 30.8467 20.262 30.4667L16.102 27.9467C15.462 27.5467 14.792 27.9067 14.792 28.6667Z" />
        </svg>
    