
        <svg xmlns="http://www.w3.org/2000/svg" viewBox="0 0 100 100">
            <path d="M17.112 4.2024C16.942 3.0024 17.472 1.9124 18.492 1.4524C18.892 1.2424 18.982 0.8324 18.852 0.4824C18.712 0.1124 18.272 -0.1576 17.742 0.1124C16.252 0.8424 15.362 2.7124 15.632 4.5124C15.712 5.0124 16.192 5.2424 16.652 5.0824C17.032 4.9224 17.182 4.5824 17.112 4.2024ZM0.212 22.0824C1.302 26.0824 2.412 27.3124 4.972 27.3124H19.022C20.882 27.3124 22.112 26.3024 22.582 24.4124L27.082 6.1824C27.802 3.2824 26.372 1.7224 24.402 1.7224C22.052 1.7224 19.932 4.0124 20.372 7.2424C17.452 9.2524 16.122 12.9324 16.632 17.3924C14.252 16.9624 11.332 16.7024 8.452 16.7024C1.852 16.7024 -0.808 18.3824 0.212 22.0824ZM13.912 13.1524C13.462 11.4724 14.012 9.1824 16.032 8.1024C16.522 7.8324 16.572 7.3524 16.392 7.0224C16.222 6.7024 15.812 6.5224 15.302 6.7624C12.802 7.9524 11.832 11.3024 12.462 13.5724C12.572 14.0524 13.052 14.2224 13.432 14.1224C13.782 14.0324 14.072 13.6924 13.912 13.1524Z" />
        </svg>
    