
        <svg xmlns="http://www.w3.org/2000/svg" viewBox="0 0 100 100">
            <path d="M0.1305 18.7539C0.9405 22.0939 2.2405 23.0839 4.2305 23.0839H16.5305C17.9705 23.0839 19.0505 22.2039 19.4205 20.7339L23.7605 2.9139C24.2605 0.9139 23.1705 0.0039 21.8905 0.0039C20.2805 0.0039 18.6805 1.3239 19.0305 4.1939C16.1805 5.8239 14.4705 10.4639 14.8705 15.3839C12.4205 14.9439 9.5605 14.6939 6.6105 14.6939C1.4605 14.6939 -0.5495 15.8939 0.1305 18.7539ZM13.2305 8.4239L14.4905 3.3039C14.5905 2.9439 14.2805 2.7439 13.9805 2.8439L9.2605 4.3339C8.9305 4.4339 8.8105 4.8439 9.0605 5.0839L12.5505 8.5939C12.7705 8.8039 13.1405 8.7939 13.2305 8.4239ZM24.0705 12.0539C23.9705 12.4339 24.2905 12.6239 24.6005 12.5139L29.3005 11.0639C29.6505 10.9639 29.7405 10.5539 29.4805 10.3139L26.0005 6.7839C25.7905 6.5639 25.4305 6.5739 25.3305 6.9539Z" />
        </svg>
    