
        <svg xmlns="http://www.w3.org/2000/svg" viewBox="0 0 100 100">
            <path d="M29.0709 21.5114C30.2409 17.3814 27.3409 15.3914 20.0509 15.3914C17.1009 15.3914 14.2109 15.6114 11.7509 16.0114C12.4209 11.8214 11.2109 8.3914 8.3409 6.2414C8.4509 2.9214 6.4309 0.0014 3.4109 0.0014C0.8709 0.0014 -0.5291 2.1214 0.1909 4.9714L4.8909 23.9414C5.4109 26.0814 6.8209 27.2314 8.9409 27.2314H23.8109C26.6409 27.2314 27.8709 25.9014 29.0709 21.5114ZM19.8109 35.6214C19.8109 36.6914 20.8209 37.1414 21.6709 36.6414L25.8309 34.1814C26.6609 33.6814 26.6609 32.5514 25.8309 32.0614L21.6709 29.6014C20.8109 29.0814 19.8109 29.5914 19.8109 30.6014ZM14.0409 35.6414V30.6114C14.0409 29.5914 13.0609 29.1014 12.2009 29.6114L8.0509 32.0714C7.2209 32.5514 7.2109 33.7014 8.0509 34.1914L12.2009 36.6514C13.0509 37.1514 14.0409 36.6914 14.0409 35.6414Z" />
        </svg>
    