
        <svg xmlns="http://www.w3.org/2000/svg" viewBox="0 0 100 100">
            <path d="M0.199 19.8428C1.229 23.6628 2.299 24.8228 4.709 24.8228H18.619C20.349 24.8228 21.509 23.8828 21.949 22.1228L26.349 4.2428C26.999 1.6428 25.779 0.0028 23.489 0.0028C20.949 0.0028 18.869 2.2228 19.389 5.4328C17.069 7.3728 15.799 11.0228 15.959 15.4128C13.549 15.0228 10.789 14.8128 8.059 14.8128C1.789 14.8128 -0.761 16.3328 0.199 19.8428ZM6.669 11.1128C7.229 11.1128 7.549 10.7528 7.549 10.1328V1.8728C7.549 1.2428 7.219 0.9028 6.629 0.9028C6.209 0.9028 5.949 1.0028 5.479 1.3328L3.479 2.6828C3.229 2.8428 3.149 3.0228 3.149 3.2828C3.149 3.6228 3.429 3.9128 3.749 3.9128C3.909 3.9128 4.029 3.8828 4.299 3.6928L5.719 2.7628H5.829V10.1328C5.829 10.7428 6.149 11.1128 6.669 11.1128ZM1.999 19.3328C1.489 17.4628 2.919 16.7028 8.059 16.7028C12.229 16.7028 15.229 17.2628 16.569 17.3528C17.279 17.3628 17.729 16.9128 17.719 16.1928C17.639 11.7928 18.799 8.2428 20.849 6.7028C21.289 6.3428 21.389 6.1028 21.259 5.3128C20.939 3.1028 22.159 1.8828 23.489 1.8828C24.359 1.8828 24.829 2.6028 24.549 3.7528L20.109 21.6728C19.909 22.4928 19.399 22.9328 18.619 22.9328H4.709C3.399 22.9328 2.859 22.5128 1.999 19.3328Z" />
        </svg>
    