
        <svg xmlns="http://www.w3.org/2000/svg" viewBox="0 0 100 100">
            <path d="M8.9208 3.9989C8.8708 4.2989 8.9708 4.5289 9.2408 4.6289C9.5508 4.7189 9.8708 4.5689 9.9208 4.2389C10.1808 2.5189 9.3408 0.7789 7.9408 0.0789C7.5708 -0.1111 7.2608 0.0589 7.1508 0.3289C7.0608 0.5689 7.1408 0.8489 7.4008 0.9989C8.5208 1.4989 9.0908 2.7089 8.9208 3.9989ZM25.4708 21.1189C26.3408 17.8189 23.9608 16.4189 18.0708 16.4189C15.2708 16.4189 12.4808 16.6289 10.0408 17.0389C10.2908 12.4589 8.8708 8.4989 6.3608 6.6389C6.8408 3.5689 4.9108 1.6389 2.6808 1.6389C0.7408 1.6389 -0.4392 3.0289 0.1508 5.4389L4.5508 23.2989C4.9608 24.9589 6.0808 25.8889 7.7208 25.8889H21.0908C23.3708 25.8889 24.5108 24.7689 25.4708 21.1189ZM24.0808 20.7289C23.2608 23.8889 22.5108 24.4289 21.0908 24.4289H7.7208C6.8208 24.4289 6.1908 23.8889 5.9508 22.9389L1.5508 5.0689C1.2308 3.7989 1.8008 3.0889 2.6908 3.0889C4.0108 3.0889 5.2408 4.2789 4.9308 6.5489C4.8408 7.1589 4.8908 7.3589 5.2608 7.6389C7.5608 9.1789 8.8708 13.0989 8.6808 17.5789C8.6608 18.1989 9.0508 18.5689 9.6508 18.5389C11.2808 18.3289 14.2808 17.8589 18.0708 17.8589C23.1008 17.8589 24.6208 18.6889 24.0808 20.7289ZM12.2608 12.8189C12.1508 13.1889 12.3408 13.4289 12.5808 13.4989C12.8408 13.5689 13.1708 13.4489 13.2508 13.1189C13.8508 10.9189 12.9408 7.7189 10.5308 6.5889C10.1708 6.4089 9.8908 6.5489 9.7608 6.7689C9.6408 7.0089 9.6908 7.3189 10.0208 7.4989C12.1508 8.6389 12.7208 11.0589 12.2608 12.8189Z" />
        </svg>
    