
        <svg xmlns="http://www.w3.org/2000/svg" viewBox="0 0 100 100">
            <path d="M23.7553 18.7539C24.4353 15.8939 22.4053 14.6939 17.2753 14.6939C14.3353 14.6939 11.4653 14.9439 9.0053 15.3939C9.4053 10.4339 7.6753 5.8039 4.8153 4.1739C5.2053 1.3239 3.5853 0.0039 1.9953 0.0039C0.7153 0.0039 -0.3747 0.9139 0.1253 2.9139L4.4753 20.7339C4.8353 22.2039 5.9053 23.0839 7.3553 23.0839H19.6453C21.6453 23.0839 22.9453 22.0939 23.7553 18.7539ZM15.6453 9.7139H20.8153C20.9953 9.7139 21.1053 9.5739 21.1053 9.4239C21.1053 9.2539 20.9653 9.1239 20.8153 9.1239L16.1753 9.1439V9.1239L19.4553 5.4639C20.3153 4.5239 20.6753 3.7839 20.6753 2.9339C20.6753 1.4639 19.6453 0.4939 18.0253 0.4939C16.5753 0.4939 15.3753 1.3939 15.2153 2.6239C15.2053 2.7039 15.1953 2.8039 15.1953 2.8839C15.1953 3.0739 15.3053 3.1839 15.4853 3.1839C15.6853 3.1839 15.7853 3.0939 15.8053 2.9139C15.8753 1.8239 16.7953 1.0739 18.0253 1.0739C19.2653 1.0739 20.0853 1.8039 20.0853 2.9039C20.0853 3.6139 19.7853 4.2539 19.0153 5.1339L15.4753 9.0739C15.3553 9.2039 15.3053 9.2739 15.3053 9.3839C15.3053 9.5739 15.4453 9.7139 15.6453 9.7139ZM23.2053 18.6139C22.4453 21.7239 21.2953 22.5139 19.6453 22.5139H7.3553C6.1953 22.5139 5.3253 21.7839 5.0153 20.5639L0.6753 2.8239C0.2953 1.2939 1.0853 0.5739 2.0153 0.5739C3.2753 0.5739 4.5153 1.6839 4.2653 4.1139C4.2353 4.3439 4.1953 4.4739 4.4253 4.5939C7.2253 6.1539 8.8253 10.8039 8.4253 15.4239C8.4053 15.8439 8.6453 16.0539 9.0553 15.9739C11.2653 15.5539 14.2753 15.2739 17.2753 15.2739C22.0653 15.2739 23.7953 16.2339 23.2053 18.6139Z" />
        </svg>
    