
        <svg xmlns="http://www.w3.org/2000/svg" viewBox="0 0 100 100">
            <path d="M35.7644 21.2623C36.9044 17.1823 34.0144 15.2623 26.9244 15.2623C24.2344 15.2623 21.5744 15.4323 19.2144 15.7823C19.3644 11.7023 18.2044 8.3223 15.9244 6.2223C16.2244 2.9223 14.0544 0.0023 10.9444 0.0023C8.1244 0.0023 6.6044 2.1523 7.2944 4.9323L11.9344 23.6523C12.4444 25.7423 13.8444 26.8823 15.9144 26.8823H30.5744C33.3644 26.8823 34.5844 25.5423 35.7644 21.2623ZM20.3844 8.7323C20.6144 9.6823 21.5844 9.8523 22.2344 9.2023L25.6444 5.7723C26.2744 5.1723 26.0144 4.1823 25.1744 3.9423L20.5244 2.5423C19.6544 2.2923 18.9044 2.9323 19.1444 3.8223ZM32.6944 20.3923C31.8544 23.4223 31.5744 23.6723 30.5744 23.6723H15.9144C15.4344 23.6723 15.1944 23.4223 15.0544 22.8823L10.3944 4.1123C10.2644 3.5623 10.5044 3.2123 11.0044 3.2123C12.2244 3.2123 13.0944 4.3823 12.7844 6.3423C12.6544 7.1623 12.8444 7.6923 13.3544 8.1123C15.3744 9.8223 16.3244 12.4523 16.3044 17.3223C16.3044 18.3823 17.0444 19.1323 18.1044 19.1223C19.3244 19.1023 22.4244 18.4523 26.9244 18.4523C31.8544 18.4523 33.0844 18.9923 32.6944 20.3923ZM6.8444 13.3023L5.5944 8.3823C5.3744 7.4623 4.4244 7.2623 3.7644 7.9223L0.3544 11.3423C-0.2656 11.9623 -0.0456 12.9423 0.8144 13.1923L5.4644 14.5823C6.3344 14.8223 7.0644 14.2123 6.8444 13.3023Z" />
        </svg>
    