
        <svg xmlns="http://www.w3.org/2000/svg" viewBox="0 0 100 100">
            <path d="M0.2392 21.2611C1.4192 25.5311 2.6492 26.8711 5.4392 26.8711H20.0992C22.1692 26.8711 23.5592 25.7411 24.0792 23.6411L28.7192 4.9211C29.3992 2.1411 27.8892 0.0011 25.0492 0.0011C21.9492 0.0011 19.7792 2.9211 20.0692 6.2211C17.8092 8.3211 16.6392 11.7111 16.7892 15.7811C14.4392 15.4311 11.7592 15.2411 9.0892 15.2411C1.9992 15.2411 -0.9008 17.1811 0.2392 21.2611ZM3.3092 20.3911C2.9292 18.9911 4.1492 18.4611 9.0892 18.4611C13.5892 18.4611 16.6692 19.1011 17.8992 19.1211C18.9692 19.1211 19.6992 18.3711 19.6992 17.3111C19.6892 12.4611 20.6192 9.8111 22.6492 8.1111C23.1492 7.6711 23.3392 7.1611 23.2192 6.3311C22.9192 4.3811 23.7892 3.2011 25.0092 3.2011C25.4992 3.2011 25.7392 3.5511 25.5992 4.1111L20.9492 22.8911C20.8192 23.4211 20.5792 23.6711 20.0992 23.6711H5.4392C4.4392 23.6711 4.1492 23.4211 3.3092 20.3911ZM7.0792 13.6711H12.5292C13.4392 13.6711 13.8692 12.8211 13.3992 12.0311L10.7292 7.5611C10.2892 6.8311 9.2992 6.8111 8.8592 7.5611L6.1992 12.0311C5.7292 12.8111 6.1292 13.6711 7.0792 13.6711ZM7.0592 28.4611C6.1292 28.4611 5.7292 29.3211 6.1892 30.0911L8.8492 34.5711C9.2892 35.3211 10.2892 35.3111 10.7192 34.5711L13.3892 30.0911C13.8592 29.3111 13.4392 28.4611 12.5092 28.4611Z" />
        </svg>
    