
        <svg xmlns="http://www.w3.org/2000/svg" viewBox="0 0 100 100">
            <path d="M25.3236 19.4681C26.1936 16.1681 23.8236 14.7681 17.9336 14.7681C15.0536 14.7681 12.1436 15.0081 9.7636 15.4681C10.1636 10.7481 8.6736 6.6881 5.7436 4.8381C6.2936 1.7481 4.2936 -0.0019 2.4036 -0.0019C0.8536 -0.0019 -0.4764 1.1881 0.1636 3.7881L4.5636 21.6481C4.9636 23.3081 6.0936 24.2381 7.7336 24.2381H20.9536C23.2236 24.2381 24.3736 23.1181 25.3236 19.4681ZM20.8536 10.7081C21.2736 10.7081 21.5336 10.4381 21.5336 9.9681V1.5081C21.5336 1.0181 21.2436 0.7481 20.8036 0.7481C20.4736 0.7481 20.2636 0.8281 19.8936 1.0881L17.7436 2.5181C17.5436 2.6581 17.4736 2.7981 17.4736 2.9981C17.4736 3.2781 17.6936 3.5181 17.9636 3.5181C18.0936 3.5181 18.2036 3.4881 18.4136 3.3381L20.1036 2.2481H20.1936V9.9681C20.1936 10.4281 20.4536 10.7081 20.8536 10.7081Z" />
        </svg>
    