
        <svg xmlns="http://www.w3.org/2000/svg" viewBox="0 0 100 100">
            <path d="M0.243 21.5164C1.463 25.9064 2.683 27.2464 5.523 27.2464H20.383C22.513 27.2464 23.903 26.0964 24.443 23.9564L29.143 4.9764C29.853 2.1164 28.463 -0.0036 25.913 -0.0036C22.903 -0.0036 20.883 2.9264 20.993 6.2564C18.103 8.3864 16.913 11.8364 17.563 16.0064C15.123 15.6064 12.233 15.3864 9.273 15.3864C1.993 15.3864 -0.917 17.3864 0.243 21.5164ZM15.923 9.0264L17.153 4.1464C17.403 3.1764 16.563 2.4764 15.613 2.7464L10.973 4.1264C10.033 4.4064 9.763 5.4964 10.443 6.1664L13.873 9.5664C14.583 10.2664 15.673 10.0764 15.923 9.0264ZM29.693 13.7064C29.453 14.7264 30.283 15.4064 31.233 15.1264L35.873 13.7564C36.813 13.4764 37.053 12.3764 36.373 11.7064L32.953 8.3164C32.243 7.6164 31.173 7.8164 30.923 8.8364Z" />
        </svg>
    