
        <svg xmlns="http://www.w3.org/2000/svg" viewBox="0 0 100 100">
            <path d="M12.6023 25.1986C19.5623 25.1986 25.2023 19.5586 25.2023 12.5986C25.2023 5.6386 19.5623 -0.0014 12.6023 -0.0014C5.6323 -0.0014 0.0023 5.6386 0.0023 12.5986C0.0023 19.5586 5.6323 25.1986 12.6023 25.1986ZM12.6023 21.5386C7.6523 21.5386 3.6523 17.5386 3.6523 12.5986C3.6523 7.6486 7.6523 3.6586 12.6023 3.6586C17.5423 3.6586 21.5423 7.6486 21.5423 12.5986C21.5423 17.5386 17.5423 21.5386 12.6023 21.5386ZM10.6923 16.2286H16.5423C16.9523 16.2286 17.2823 15.9486 17.2823 15.5086C17.2823 15.0586 16.9523 14.7886 16.5423 14.7886H10.9223C10.7623 14.7886 10.6423 14.7086 10.6123 14.5186L10.5623 14.1086H16.7423C17.6623 14.1086 18.1523 13.5786 18.2923 12.6686L18.6123 10.4386C18.6223 10.3586 18.6323 10.2586 18.6323 10.1686C18.6323 9.7386 18.3623 9.4086 17.8023 9.4086H9.8423L9.7723 8.9786C9.6723 8.3886 9.3123 8.0386 8.6223 8.0386H6.8523C6.4123 8.0386 6.0323 8.4186 6.0323 8.8686C6.0323 9.3286 6.4123 9.6986 6.8523 9.6986H8.2923L9.0323 14.7686C9.1723 15.6986 9.7223 16.2286 10.6923 16.2286ZM11.0623 19.0386C11.6823 19.0386 12.1723 18.5586 12.1723 17.9386C12.1723 17.3286 11.6823 16.8286 11.0623 16.8286C10.4623 16.8286 9.9623 17.3286 9.9623 17.9386C9.9623 18.5586 10.4623 19.0386 11.0623 19.0386ZM15.6323 19.0386C16.2423 19.0386 16.7423 18.5586 16.7423 17.9386C16.7423 17.3286 16.2423 16.8286 15.6323 16.8286C15.0223 16.8286 14.5223 17.3286 14.5223 17.9386C14.5223 18.5586 15.0223 19.0386 15.6323 19.0386Z" />
        </svg>
    