
        <svg xmlns="http://www.w3.org/2000/svg" viewBox="0 0 100 100">
            <path d="M9.3394 17.1295H23.2194C23.5594 17.1295 23.8694 16.8395 23.8694 16.4495C23.8694 16.0695 23.5594 15.7695 23.2194 15.7695H9.5394C8.7994 15.7695 8.3394 15.3095 8.2294 14.5095L7.9994 12.9795H23.1194C24.6994 12.9795 25.4694 12.0495 25.6994 10.5095L26.6594 4.1395C26.6794 4.0095 26.7094 3.8095 26.7094 3.7295C26.7094 3.2195 26.3594 2.8895 25.7894 2.8895H6.4894L6.2194 1.0395C6.1194 0.3495 5.8694 -0.0005 4.9294 -0.0005H0.6694C0.3094 -0.0005 -0.0006 0.3095 -0.0006 0.6795C-0.0006 1.0395 0.3094 1.3595 0.6694 1.3595H4.8494L6.8194 14.7195C7.0294 16.2095 7.8194 17.1295 9.3394 17.1295ZM25.1994 4.2495L24.2794 10.3595C24.1494 11.1595 23.7694 11.6295 23.0294 11.6295H7.7894L6.6994 4.2495ZM10.5494 22.7695C11.5694 22.7695 12.3794 21.9595 12.3794 20.9395C12.3794 19.9195 11.5694 19.1095 10.5494 19.1095C9.5294 19.1095 8.7194 19.9195 8.7194 20.9395C8.7194 21.9595 9.5294 22.7695 10.5494 22.7695ZM21.3194 22.7695C22.3394 22.7695 23.1494 21.9595 23.1494 20.9395C23.1494 19.9195 22.3394 19.1095 21.3194 19.1095C20.2994 19.1095 19.4794 19.9195 19.4794 20.9395C19.4794 21.9595 20.2994 22.7695 21.3194 22.7695Z" />
        </svg>
    