
        <svg xmlns="http://www.w3.org/2000/svg" viewBox="0 0 100 100">
            <path d="M11.4923 22.977C17.8323 22.977 22.9823 17.847 22.9823 11.497C22.9823 5.147 17.8323 -0.003 11.4923 -0.003C5.1423 -0.003 0.0023 5.147 0.0023 11.497C0.0023 17.847 5.1423 22.977 11.4923 22.977ZM11.4923 22.087C5.6323 22.087 0.8923 17.357 0.8923 11.497C0.8923 5.637 5.6323 0.887 11.4923 0.887C17.3523 0.887 22.0923 5.637 22.0923 11.497C22.0923 17.357 17.3523 22.087 11.4923 22.087ZM8.9523 15.447H16.2923C16.4923 15.447 16.6323 15.307 16.6323 15.097C16.6323 14.887 16.4923 14.747 16.2923 14.747H9.0623C8.5423 14.747 8.3223 14.577 8.2623 14.117L8.1323 13.097H16.2623C17.0423 13.097 17.3523 12.677 17.4623 11.937L18.0123 8.357C18.0223 8.307 18.0423 8.207 18.0423 8.167C18.0423 7.947 17.9023 7.807 17.6523 7.807H7.3323L7.1823 6.647C7.1523 6.347 6.9123 6.167 6.5823 6.167H4.1923C4.0123 6.167 3.8523 6.317 3.8523 6.527C3.8523 6.727 4.0123 6.877 4.1923 6.877H6.5023L7.6023 14.357C7.7023 15.037 8.1023 15.447 8.9523 15.447ZM9.6223 18.347C10.1623 18.347 10.5823 17.937 10.5823 17.407C10.5823 16.867 10.1623 16.457 9.6223 16.457C9.0923 16.457 8.6723 16.867 8.6723 17.407C8.6723 17.937 9.0923 18.347 9.6223 18.347ZM15.2323 18.347C15.7623 18.347 16.1923 17.937 16.1923 17.407C16.1923 16.867 15.7623 16.457 15.2323 16.457C14.7023 16.457 14.2723 16.867 14.2723 17.407C14.2723 17.937 14.7023 18.347 15.2323 18.347Z" />
        </svg>
    