
        <svg xmlns="http://www.w3.org/2000/svg" viewBox="0 0 100 100">
            <path d="M6.5117 29.0505H8.0817C9.6217 29.0505 10.7017 28.2505 10.7017 26.8505C10.7017 25.8705 9.8117 25.0805 8.7217 24.9105V22.5305C8.7217 21.3005 8.8517 20.5305 9.1517 19.7905C10.8117 20.4505 12.6017 20.7505 14.5117 20.7505C16.4217 20.7505 18.2817 20.5305 19.5817 20.2105C19.7617 20.7705 19.9117 21.6105 19.9117 22.3505C19.9117 23.8605 19.7417 25.0105 19.7417 26.4705C19.7417 28.1505 20.6117 29.0505 22.3817 29.0505H23.8017C25.3117 29.0505 26.4117 28.2405 26.4117 26.8505C26.4117 25.8405 25.5617 25.0705 24.5317 24.9305V23.4005C24.5317 16.8205 29.1117 19.4505 29.3817 10.9305C31.6017 10.6005 33.1417 9.1905 33.1417 7.9805C33.1417 6.3205 31.3717 4.6205 29.7217 3.3405C29.2017 1.7805 28.3817 0.6305 27.7817 0.6305C27.1717 0.6305 26.3217 1.8005 25.7117 3.2705C24.7517 3.9505 23.7117 5.4805 23.0817 6.5705L22.7117 7.2305C22.2617 8.0405 21.8217 8.4605 21.1917 8.4605C16.7017 8.4605 15.0117 7.7905 10.4517 7.7905C8.3517 7.7905 6.9717 8.4405 6.0717 9.3505C5.6017 9.8305 5.2117 10.0405 4.4617 9.6605C3.3017 9.0705 2.5517 7.8605 2.5517 6.3205C2.5517 4.0705 4.2817 2.5705 6.8917 2.5705C7.9117 2.5705 8.8917 2.7705 10.1217 3.2605C11.8617 3.9605 12.7717 1.5605 11.1217 0.8705C9.6017 0.2705 8.1517 0.0005 6.8917 0.0005C2.8717 0.0005 0.0017 2.6105 0.0017 6.3205C0.0017 9.0105 1.3617 11.1605 3.4917 12.0905C4.1417 12.3605 4.3517 12.9505 4.3317 13.4305C4.3317 14.0205 4.3317 14.5005 4.3317 14.8205C4.3317 18.6405 2.5817 19.1005 3.1017 21.1905L4.6517 27.3405C4.9717 28.5805 5.5117 29.0505 6.5117 29.0505ZM29.0117 7.2105C28.5817 7.2105 28.2417 6.8805 28.2417 6.4405C28.2417 6.0305 28.5817 5.6805 29.0117 5.6805C29.4417 5.6805 29.7817 6.0305 29.7817 6.4405C29.7817 6.8805 29.4417 7.2105 29.0117 7.2105Z" />
        </svg>
    