
        <svg xmlns="http://www.w3.org/2000/svg" viewBox="0 0 100 100">
            <path d="M12.1023 24.2147C18.7823 24.2147 24.2123 18.7847 24.2123 12.1047C24.2123 5.4247 18.7823 0.0047 12.1023 0.0047C5.4223 0.0047 0.0023 5.4247 0.0023 12.1047C0.0023 18.7847 5.4223 24.2147 12.1023 24.2147ZM7.7823 18.9347C7.3223 18.9347 7.0223 18.6947 6.8923 18.1747L6.1723 15.5047C5.9323 14.6247 6.7623 14.3547 6.7623 12.5047C6.7623 12.3047 6.7623 12.0547 6.7723 11.7547C6.7823 11.4447 6.6723 11.2147 6.3523 11.0847C5.3323 10.6847 4.7023 9.7147 4.7023 8.4747C4.7023 6.7947 5.9923 5.6147 7.8323 5.6147C8.4423 5.6147 9.0823 5.7347 9.7923 6.0147C10.3923 6.2547 10.0823 7.1447 9.4323 6.8947C8.8323 6.6447 8.3323 6.5347 7.8323 6.5347C6.5323 6.5347 5.6223 7.3247 5.6223 8.4747C5.6223 9.3147 6.0823 9.9747 6.7423 10.2447C7.1023 10.3847 7.2523 10.3147 7.4723 10.0647C7.8623 9.6347 8.5223 9.2947 9.5123 9.2947C11.6323 9.2947 12.4723 9.6047 14.7223 9.6047C14.9923 9.6047 15.1623 9.3847 15.3623 9.0047L15.5823 8.6347C15.8623 8.1247 16.2623 7.5247 16.7323 7.1047C16.9523 6.3947 17.3823 5.8947 17.6523 5.8947C17.9023 5.8947 18.2723 6.4147 18.4723 7.0647C19.3323 7.6947 20.1123 8.4747 20.1123 9.2147C20.1123 9.7347 19.3723 10.4047 18.3423 10.5047C18.2623 14.4147 16.0323 13.4547 16.0323 16.5847V17.2247C16.5123 17.2947 16.7823 17.6047 16.7823 18.0447C16.7823 18.6047 16.3923 18.9347 15.7623 18.9347H15.0923C14.4423 18.9347 14.1023 18.6247 14.1023 17.9847C14.1023 17.4147 14.1823 16.7647 14.1823 16.0947C14.1823 15.5747 14.0523 15.0547 13.9223 14.6247C13.3723 14.7847 12.3723 14.9247 11.4423 14.9247C10.6123 14.9247 9.9223 14.8147 8.9523 14.4347C8.6323 14.9647 8.5323 15.3047 8.5323 15.8747V17.2147C9.1023 17.2947 9.4423 17.6447 9.4423 18.0447C9.4423 18.6247 9.0623 18.9347 8.4223 18.9347ZM18.2723 8.7647C18.4123 8.8047 18.5623 8.7147 18.6023 8.5547C18.6223 8.4047 18.5323 8.2547 18.3823 8.2147C18.2123 8.1747 18.0723 8.2847 18.0323 8.4347C18.0123 8.6047 18.0923 8.7447 18.2723 8.7647Z" />
        </svg>
    