
        <svg xmlns="http://www.w3.org/2000/svg" viewBox="0 0 100 100">
            <path d="M6.0317 26.1753H7.1017C8.3317 26.1753 9.0517 25.5553 9.0517 24.4553C9.0517 23.6453 8.4517 22.9853 7.3317 22.7853V20.0853C7.3317 18.9053 7.6217 18.2253 8.2817 17.1453C10.0617 17.8453 11.5617 18.1153 13.2117 18.1153C14.9917 18.1153 16.9217 17.8453 18.1617 17.5053C18.4117 18.5053 18.7017 19.6153 18.7017 20.5353C18.7017 21.9953 18.5517 23.1753 18.5517 24.3353C18.5517 25.5553 19.1917 26.1753 20.4217 26.1753H21.6217C22.8117 26.1753 23.5617 25.5253 23.5617 24.4553C23.5617 23.5753 23.0617 22.9653 22.0617 22.8053V21.6653C22.0617 15.4853 26.6417 17.2053 26.7117 9.2653C28.8117 9.1653 30.3017 7.7953 30.3017 6.7853C30.3017 5.3753 28.8117 3.9153 27.1017 2.6953C26.7517 1.4253 26.1017 0.3853 25.5317 0.3853C24.9917 0.3853 24.2317 1.2453 23.7217 2.6353C22.8017 3.5053 21.9917 4.6753 21.3617 5.7553L20.7617 6.7353C20.4017 7.3853 20.1117 7.7553 19.6617 7.7553C15.3017 7.7553 13.4717 7.1153 9.3117 7.1153C7.2317 7.1153 5.9617 7.8853 5.2017 8.8953C4.8317 9.3653 4.5617 9.4653 3.9217 9.2253C2.3917 8.7153 1.3217 7.3053 1.3217 5.4853C1.3217 3.0353 3.2817 1.3253 6.0317 1.3253C7.0617 1.3253 8.1217 1.5453 9.3417 2.0353C10.2917 2.4153 10.7317 1.1453 9.8817 0.7953C8.4917 0.2453 7.2117 -0.0047 6.0317 -0.0047C2.4417 -0.0047 0.0017 2.2253 0.0017 5.4853C0.0017 7.8653 1.3317 9.7253 3.3717 10.4253C3.9417 10.6253 4.1117 11.0053 4.0817 11.6153C3.9917 12.5753 3.9917 13.0853 3.9917 13.4453C3.9917 17.0753 2.3517 17.7853 2.8117 19.4453L4.2117 24.6053C4.5017 25.6753 5.1317 26.1753 6.0317 26.1753ZM26.7617 6.0253C26.4017 6.0253 26.1117 5.7453 26.1117 5.3653C26.1117 5.0053 26.4017 4.6953 26.7617 4.6953C27.1317 4.6953 27.4217 5.0053 27.4217 5.3653C27.4217 5.7453 27.1317 6.0253 26.7617 6.0253Z" />
        </svg>
    