
        <svg xmlns="http://www.w3.org/2000/svg" viewBox="0 0 100 100">
            <path d="M12.3723 24.7542C19.2023 24.7542 24.7523 19.2042 24.7523 12.3742C24.7523 5.5442 19.2023 0.0042 12.3723 0.0042C5.5423 0.0042 0.0023 5.5442 0.0023 12.3742C0.0023 19.2042 5.5423 24.7542 12.3723 24.7542ZM8.1423 19.1342C7.7023 19.1342 7.4323 18.9142 7.3023 18.3742L6.5823 15.6642C6.3523 14.7642 7.1523 14.5242 7.1523 12.7542C7.1523 12.5742 7.1623 12.3542 7.1623 12.0542C7.1723 11.8142 7.0623 11.5542 6.7723 11.4342C5.7923 11.0242 5.1723 10.0542 5.1723 8.8342C5.1723 7.1842 6.4423 6.0042 8.2623 6.0042C8.8623 6.0042 9.5023 6.1042 10.1823 6.3942C10.8623 6.6642 10.5023 7.6642 9.7823 7.3742C9.2123 7.1342 8.7323 7.0442 8.2623 7.0442C7.0323 7.0442 6.2123 7.7742 6.2123 8.8342C6.2123 9.6142 6.5823 10.1942 7.1723 10.4642C7.5323 10.6242 7.7023 10.5342 7.9023 10.3142C8.2923 9.8942 8.9423 9.5742 9.9023 9.5742C11.9723 9.5742 12.7723 9.8742 14.8823 9.8742C15.1623 9.8742 15.3523 9.6642 15.5523 9.3042L15.7523 8.9742C16.0223 8.4742 16.4523 7.8242 16.9023 7.4742C17.1523 6.7942 17.5523 6.2842 17.8223 6.2842C18.0823 6.2842 18.4523 6.7942 18.6523 7.4642C19.4723 8.0742 20.2423 8.8442 20.2423 9.5742C20.2423 10.1142 19.5323 10.7542 18.5323 10.8842C18.4223 14.7442 16.3023 13.6742 16.3023 16.6942V17.3542C16.7623 17.4242 17.0823 17.7542 17.0823 18.1942C17.0823 18.7942 16.6523 19.1342 15.9923 19.1342H15.3523C14.6223 19.1342 14.2623 18.7742 14.2623 18.0842C14.2623 17.4742 14.3323 16.8842 14.3323 16.2142C14.3323 15.7942 14.2423 15.3542 14.1323 15.0242C13.5623 15.1742 12.6523 15.2842 11.7623 15.2842C10.9223 15.2842 10.1823 15.1642 9.3323 14.8242C9.1023 15.2442 9.0223 15.5942 9.0223 16.1442V17.3542C9.5423 17.4242 9.9223 17.7842 9.9223 18.1942C9.9223 18.7942 9.4923 19.1342 8.8223 19.1342ZM18.4023 9.1742C18.5623 9.1942 18.7123 9.0942 18.7223 8.9142C18.7523 8.7542 18.6323 8.6042 18.4823 8.5742C18.2923 8.5542 18.1523 8.6842 18.1323 8.8442C18.1123 9.0242 18.2223 9.1542 18.4023 9.1742Z" />
        </svg>
    