
        <svg xmlns="http://www.w3.org/2000/svg" viewBox="0 0 100 100">
            <path d="M1.6017 29.3211H28.4417C29.3017 29.3211 30.0617 28.6211 30.0617 27.7111C30.0617 26.8511 29.3017 26.1111 28.4417 26.1111H27.8517V24.9511C27.8517 24.2311 27.4117 23.8111 26.7217 23.8111H26.3517V9.9111H27.2717C28.3217 9.9111 28.9617 9.1011 28.9617 8.3211C28.9617 7.7411 28.6317 7.2111 27.9617 6.8111L17.0617 0.5311C16.5017 0.2011 15.8317 0.0011 15.2117 0.0011C14.5917 0.0011 13.9217 0.2011 13.3617 0.5311L2.4617 6.8111C1.7917 7.2111 1.4617 7.7411 1.4617 8.3211C1.4617 9.1011 2.1017 9.9111 3.1617 9.9111H4.0617V23.8111H3.7017C3.0117 23.8111 2.5617 24.2311 2.5617 24.9511V26.1111H1.6017C0.7417 26.1111 0.0017 26.8511 0.0017 27.7111C0.0017 28.6011 0.7417 29.3211 1.6017 29.3211ZM15.2217 22.7111C15.0317 22.7111 14.9217 22.5711 14.9217 22.3811V21.4311C11.7817 21.2611 10.1817 19.2211 10.1817 16.1611C10.1817 13.0311 11.9217 11.0311 14.9217 10.8711V9.9111C14.9217 9.7311 15.0317 9.5811 15.2217 9.5811C15.4117 9.5811 15.5417 9.7311 15.5417 9.9111V10.8711C17.1317 10.9411 18.6817 11.5711 19.4717 13.0311C19.6517 13.3511 19.7817 13.7611 19.7817 14.1111C19.7817 14.8711 19.2817 15.3611 18.5117 15.3611C17.8317 15.3611 17.4717 15.0811 17.1817 14.4711C16.8417 13.8211 16.3217 13.3111 15.5417 13.2211V19.1011C16.3317 19.0211 16.8317 18.5611 17.2117 17.8011C17.4717 17.2011 17.8317 16.9011 18.4717 16.9011C19.2917 16.9011 19.8617 17.4011 19.8617 18.2011C19.8617 18.4711 19.8017 18.7711 19.7017 19.0111C19.0617 20.5911 17.2617 21.3911 15.5417 21.4411V22.3811C15.5417 22.5711 15.4117 22.7111 15.2217 22.7111ZM13.2217 16.1511C13.2217 17.4711 13.6217 18.8511 14.9217 19.0811V13.2411C13.6717 13.4611 13.2217 14.7611 13.2217 16.1511Z" />
        </svg>
    