
        <svg xmlns="http://www.w3.org/2000/svg" viewBox="0 0 100 100">
            <path d="M0.9656 10.0786C-0.0144 10.0786 -0.2544 10.9886 0.2756 11.6686L3.3056 15.6286C3.6656 16.1086 4.3256 16.1086 4.6856 15.6286L7.7256 11.6686C8.2356 10.9886 8.0056 10.0786 7.0356 10.0786H5.7956C6.8856 6.3586 10.3156 3.6586 14.3856 3.6586C19.3256 3.6586 23.3256 7.6486 23.3256 12.5986C23.3256 17.5386 19.3256 21.5386 14.3856 21.5386C11.8456 21.5386 9.6656 20.5186 7.9756 18.7886C7.1656 18.0086 6.0656 17.7686 5.2156 18.5386C4.4756 19.2186 4.4656 20.3186 5.3356 21.2886C7.3056 23.6486 11.0556 25.1986 14.3856 25.1986C21.3456 25.1986 26.9756 19.5586 26.9756 12.5986C26.9756 5.6386 21.3456 -0.0014 14.3856 -0.0014C8.2856 -0.0014 3.2056 4.3286 2.0256 10.0786ZM14.3656 18.7486C14.5556 18.7486 14.6956 18.6186 14.6956 18.4286V17.5286C16.3156 17.4686 17.9356 16.7186 18.5056 15.2486C18.5756 15.0186 18.6456 14.7786 18.6456 14.5386C18.6456 13.8886 18.1756 13.4786 17.5256 13.4786C16.9756 13.4786 16.6756 13.7386 16.4656 14.2386C16.1156 15.0086 15.5256 15.4886 14.6956 15.5786V9.4886C15.5156 9.5886 16.1056 10.0986 16.4156 10.8086C16.6556 11.3186 16.9556 11.5686 17.5256 11.5686C18.1556 11.5686 18.5756 11.1586 18.5756 10.5186C18.5756 10.2086 18.4756 9.8586 18.3156 9.5986C17.6156 8.2286 16.1856 7.6086 14.6956 7.5386V6.6286C14.6956 6.4486 14.5556 6.3086 14.3656 6.3086C14.1956 6.3086 14.0656 6.4486 14.0656 6.6286V7.5486C11.3156 7.6986 9.7356 9.6286 9.7356 12.5386C9.7356 15.3786 11.1956 17.3286 14.0656 17.5186V18.4286C14.0656 18.6186 14.1956 18.7486 14.3656 18.7486ZM12.2256 12.5286C12.2256 11.0786 12.7656 9.7286 14.0656 9.5186V15.5486C12.7056 15.3386 12.2256 13.9286 12.2256 12.5286Z" />
        </svg>
    