
        <svg xmlns="http://www.w3.org/2000/svg" viewBox="0 0 100 100">
            <path d="M8.4217 26.0398C8.6617 26.0398 8.8217 25.8598 8.8217 25.6298V22.9898C12.1317 22.9498 15.0517 21.4098 15.9917 18.2198C16.1117 17.9298 16.2117 17.4098 16.2117 17.1798C16.2117 16.8598 16.0317 16.6798 15.7417 16.6798C15.4717 16.6798 15.2917 16.8298 15.2317 17.1198C14.7517 20.2098 12.0817 22.0198 8.8217 22.0798V3.6798C11.9617 3.7498 14.6617 5.7698 15.1917 8.8698C15.2617 9.1498 15.4017 9.2998 15.6817 9.2998C15.9917 9.2998 16.1517 9.1098 16.1517 8.8098C16.1517 8.5298 16.0817 8.1898 15.9717 7.8298C15.0217 4.6998 12.1217 2.7998 8.8217 2.7298V0.4198C8.8217 0.1598 8.6417 -0.0002 8.4217 -0.0002C8.2217 -0.0002 8.0517 0.1598 8.0517 0.4198V2.7498C2.7217 3.0398 0.0017 7.1998 0.0017 12.7498C0.0017 18.3598 2.6817 22.6898 8.0517 22.9798V25.6298C8.0517 25.8798 8.2117 26.0398 8.4217 26.0398ZM1.0617 12.7498C1.0617 7.8298 3.3117 3.9998 8.0517 3.6898V22.0498C3.3117 21.7498 1.0617 17.7398 1.0617 12.7498Z" />
        </svg>
    