
        <svg xmlns="http://www.w3.org/2000/svg" viewBox="0 0 100 100">
            <path d="M12.3723 24.7459C19.2023 24.7459 24.7523 19.2059 24.7523 12.3759C24.7523 5.5459 19.2023 -0.0041 12.3723 -0.0041C5.5423 -0.0041 0.0023 5.5459 0.0023 12.3759C0.0023 19.2059 5.5423 24.7459 12.3723 24.7459ZM12.3723 18.8759C12.1723 18.8759 12.0223 18.7259 12.0223 18.5159V17.5459C9.1023 17.3459 7.6023 15.2359 7.6023 12.3059C7.6023 9.3059 9.2223 7.2459 12.0223 7.0559V6.0959C12.0223 5.8859 12.1723 5.7259 12.3723 5.7259C12.5823 5.7259 12.7423 5.8859 12.7423 6.0959V7.0459C14.2823 7.1159 15.7423 7.8159 16.4423 9.2259C16.5823 9.4759 16.6723 9.7959 16.6723 10.1159C16.6723 10.6859 16.3023 11.0459 15.7423 11.0459C15.2123 11.0459 14.9423 10.8159 14.7323 10.3359C14.4123 9.5259 13.6723 8.9159 12.7423 8.8259V15.7759C13.7023 15.6959 14.4423 15.1359 14.7923 14.2659C14.9723 13.7859 15.2423 13.5359 15.7523 13.5359C16.3523 13.5359 16.7623 13.9059 16.7623 14.4959C16.7623 14.7259 16.7123 14.9659 16.6323 15.1759C16.0423 16.7059 14.4123 17.4859 12.7423 17.5559V18.5159C12.7423 18.7259 12.5823 18.8759 12.3723 18.8759ZM9.8323 12.2959C9.8323 13.9259 10.4523 15.5059 12.0223 15.7459V8.8459C10.5123 9.0959 9.8323 10.6159 9.8323 12.2959Z" />
        </svg>
    