
        <svg xmlns="http://www.w3.org/2000/svg" viewBox="0 0 100 100">
            <path d="M0.4317 23.8172H23.8217C24.0717 23.8172 24.2617 23.6172 24.2617 23.3672C24.2617 23.1372 24.0717 22.9372 23.8217 22.9372H23.1917V22.2172C23.1917 22.0172 23.0617 21.8872 22.8517 21.8872H22.1117V7.0172H23.2417C23.5417 7.0172 23.6917 6.8172 23.6917 6.5872C23.6917 6.4472 23.6117 6.2772 23.4217 6.1672L13.3217 0.3372C12.9417 0.1172 12.5317 -0.0028 12.1317 -0.0028C11.7317 -0.0028 11.3217 0.1172 10.9417 0.3372L0.8417 6.1672C0.6417 6.2772 0.5617 6.4472 0.5617 6.5872C0.5617 6.8172 0.7117 7.0172 1.0317 7.0172H2.1517V21.8872H1.4017C1.2117 21.8872 1.0817 22.0172 1.0817 22.2172V22.9372H0.4317C0.2017 22.9372 0.0017 23.1372 0.0017 23.3672C0.0017 23.6172 0.2017 23.8172 0.4317 23.8172ZM12.1417 19.4872C11.9917 19.4872 11.8817 19.3872 11.8817 19.2272V18.0772C9.3017 17.9072 7.9817 15.7872 7.9817 13.0972C7.9817 10.4172 9.3317 8.3572 11.8817 8.1872V7.1372C11.8817 6.9772 11.9917 6.8672 12.1417 6.8672C12.2917 6.8672 12.4017 6.9772 12.4017 7.1372V8.1772C13.9817 8.2372 15.3417 9.1072 15.8217 10.5272C15.8917 10.7072 15.9217 10.8772 15.9217 11.0172C15.9217 11.2472 15.7817 11.4072 15.5517 11.4072C15.3117 11.4072 15.2217 11.2872 15.1717 11.0772C14.9317 9.9172 13.8117 8.9672 12.4017 8.8972V17.3772C13.8017 17.3172 14.9317 16.5572 15.2217 15.2772C15.2717 15.0572 15.4117 14.9372 15.6117 14.9372C15.8317 14.9372 15.9817 15.0972 15.9817 15.3172C15.9817 15.5072 15.9417 15.6472 15.8817 15.8172C15.4217 17.2772 13.9617 18.0472 12.4017 18.0972V19.2272C12.4017 19.3972 12.2917 19.4872 12.1417 19.4872ZM8.8017 13.0972C8.8017 15.3272 9.7817 17.1672 11.8817 17.3572V8.9172C9.8117 9.1072 8.8017 10.9172 8.8017 13.0972Z" />
        </svg>
    