
        <svg xmlns="http://www.w3.org/2000/svg" viewBox="0 0 100 100">
            <path d="M13.8623 4.8473C15.9723 4.8473 17.9223 5.5773 19.4523 6.7973C19.7023 6.9873 20.0023 6.9573 20.2223 6.7373L22.8123 4.1573C23.0823 3.8873 23.0723 3.5073 22.7923 3.2573C20.3823 1.2273 17.2623 -0.0027 13.8623 -0.0027C10.4723 -0.0027 7.3523 1.2273 4.9423 3.2573C4.6523 3.5073 4.6523 3.8873 4.9223 4.1573L7.5123 6.7373C7.7323 6.9573 8.0523 6.9873 8.3123 6.7773C9.8423 5.5773 11.7823 4.8473 13.8623 4.8473ZM0.0023 13.8773C0.0023 17.2773 1.2323 20.4073 3.2723 22.8173C3.5123 23.0973 3.9023 23.1073 4.1723 22.8373L6.7923 20.2073C6.9823 19.9873 7.0123 19.7273 6.8323 19.4973C5.5823 17.9073 4.8523 15.9773 4.8523 13.8773C4.8523 11.7673 5.5623 9.8473 6.7823 8.3073C6.9723 8.0473 6.9723 7.7373 6.7423 7.5073L4.1623 4.9173C3.9023 4.6673 3.5023 4.6473 3.2723 4.9473C1.2223 7.3573 0.0023 10.4773 0.0023 13.8773ZM27.7423 13.8773C27.7423 10.4773 26.5123 7.3573 24.4723 4.9473C24.2323 4.6473 23.8323 4.6673 23.5623 4.9173L20.9923 7.5073C20.7623 7.7373 20.7523 8.0473 20.9523 8.3073C22.1623 9.8473 22.8823 11.7673 22.8823 13.8773C22.8823 15.9773 22.1623 17.9073 20.9023 19.4973C20.7323 19.7273 20.7423 19.9873 20.9423 20.2073L23.5623 22.8373C23.8223 23.1073 24.2223 23.0973 24.4523 22.8173C26.5123 20.4073 27.7423 17.2773 27.7423 13.8773ZM13.8623 20.4473C14.0523 20.4473 14.1923 20.3073 14.1923 20.1073V19.0673C15.7923 18.9973 17.2523 18.2273 17.7523 16.7573C17.8223 16.5773 17.8623 16.4173 17.8623 16.2173C17.8623 15.9173 17.6623 15.7073 17.3423 15.7073C17.0523 15.7073 16.8823 15.8773 16.8023 16.1573C16.5023 17.2773 15.4523 17.9773 14.1923 18.0573V9.8473C15.4323 9.9373 16.4523 10.7373 16.7323 11.7773C16.8323 12.0673 16.9523 12.2273 17.2723 12.2273C17.5823 12.2273 17.7923 12.0373 17.7923 11.7073C17.7923 11.4973 17.7323 11.2973 17.6523 11.0973C17.1023 9.7273 15.7423 8.9173 14.1923 8.8373V7.8373C14.1923 7.6473 14.0523 7.4973 13.8623 7.4973C13.6623 7.4973 13.5223 7.6473 13.5223 7.8373V8.8473C10.9423 9.0573 9.4923 11.1473 9.4923 13.9373C9.4923 16.6773 10.8723 18.8473 13.5223 19.0573V20.1073C13.5223 20.2973 13.6623 20.4473 13.8623 20.4473ZM10.6623 13.9373C10.6623 11.8573 11.6023 10.0873 13.5223 9.8573V18.0473C11.5623 17.8173 10.6623 15.9973 10.6623 13.9373Z" />
        </svg>
    