
        <svg xmlns="http://www.w3.org/2000/svg" viewBox="0 0 100 100">
            <path d="M27.7423 13.8218C27.7423 6.5518 22.1523 0.5918 15.0423 0.0018C14.6723 -0.0282 14.3923 0.2418 14.3923 0.6118V4.2618C14.3923 4.5718 14.6123 4.8218 14.9423 4.8518C19.4023 5.3818 22.8823 9.1918 22.8823 13.8218C22.8823 15.9218 22.1623 17.8518 20.8923 19.4418C20.7223 19.6718 20.7323 19.9318 20.9323 20.1518L23.5623 22.7718C23.8323 23.0418 24.2323 23.0418 24.4723 22.7618C26.5123 20.3318 27.7423 17.2218 27.7423 13.8218ZM0.0023 13.8218C0.0023 17.2218 1.2323 20.3518 3.2823 22.7718C3.5123 23.0418 3.8923 23.0418 4.1623 22.7718L6.8123 20.1518C7.0123 19.9318 7.0123 19.6718 6.8323 19.4418C5.5623 17.8518 4.8523 15.9218 4.8523 13.8218C4.8523 9.1918 8.3323 5.3818 12.7923 4.8518C13.1123 4.8218 13.3323 4.5718 13.3323 4.2618V0.6118C13.3323 0.2418 13.0523 -0.0282 12.6823 0.0018C5.5923 0.5918 0.0023 6.5518 0.0023 13.8218ZM13.8623 20.3918C14.0523 20.3918 14.1923 20.2518 14.1923 20.0518V19.0118C15.7923 18.9418 17.2523 18.1718 17.7523 16.7018C17.8223 16.5218 17.8623 16.3618 17.8623 16.1618C17.8623 15.8618 17.6623 15.6518 17.3423 15.6518C17.0523 15.6518 16.8823 15.8218 16.8023 16.1018C16.5023 17.2218 15.4523 17.9218 14.1923 18.0018V9.7918C15.4323 9.8818 16.4523 10.6818 16.7323 11.7218C16.8323 12.0118 16.9523 12.1718 17.2723 12.1718C17.5823 12.1718 17.7923 11.9818 17.7923 11.6518C17.7923 11.4418 17.7323 11.2418 17.6523 11.0418C17.1023 9.6718 15.7423 8.8618 14.1923 8.7818V7.7818C14.1923 7.5918 14.0523 7.4418 13.8623 7.4418C13.6623 7.4418 13.5223 7.5918 13.5223 7.7818V8.7918C10.9423 9.0018 9.4923 11.0918 9.4923 13.8818C9.4923 16.6218 10.8723 18.7918 13.5223 19.0018V20.0518C13.5223 20.2418 13.6623 20.3918 13.8623 20.3918ZM10.6623 13.8818C10.6623 11.8018 11.6023 10.0318 13.5223 9.8018V17.9918C11.5623 17.7618 10.6623 15.9418 10.6623 13.8818Z" />
        </svg>
    