
        <svg xmlns="http://www.w3.org/2000/svg" viewBox="0 0 100 100">
            <path d="M3.9717 22.1117H18.1317C20.7317 22.1117 22.1017 20.7417 22.1017 18.1717V3.9417C22.1017 1.3717 20.7317 0.0017 18.1317 0.0017H3.9717C1.3817 0.0017 0.0017 1.3717 0.0017 3.9417V18.1717C0.0017 20.7417 1.3817 22.1117 3.9717 22.1117ZM11.1017 17.5517C10.8917 17.5517 10.7317 17.3917 10.7317 17.1817V16.2117C7.9017 15.9817 6.4217 13.8517 6.4217 10.9717C6.4217 8.0317 8.0017 5.9317 10.7317 5.7317V4.7717C10.7317 4.5617 10.8917 4.3917 11.1017 4.3917C11.3217 4.3917 11.4717 4.5617 11.4717 4.7717V5.7317C13.0117 5.8017 14.4217 6.5317 15.0917 7.9017C15.2217 8.1517 15.3117 8.4217 15.3117 8.7317C15.3117 9.2317 14.9717 9.5517 14.4817 9.5517C14.0117 9.5517 13.7817 9.3317 13.6017 8.8917C13.2917 8.0417 12.4817 7.3917 11.4717 7.3017V14.6317C12.5017 14.5417 13.3217 13.9717 13.6617 13.0417C13.8317 12.6217 14.0717 12.3817 14.5217 12.3817C15.0317 12.3817 15.3917 12.7017 15.3917 13.2217C15.3917 13.4417 15.3517 13.6517 15.2717 13.8517C14.7117 15.3617 13.1417 16.1517 11.4717 16.2217V17.1817C11.4717 17.4017 11.3217 17.5517 11.1017 17.5517ZM8.3717 10.9617C8.3717 12.7117 9.0617 14.3517 10.7317 14.6117V7.3217C9.1217 7.5717 8.3717 9.1717 8.3717 10.9617Z" />
        </svg>
    