
        <svg xmlns="http://www.w3.org/2000/svg" viewBox="0 0 100 100">
            <path d="M9.6917 26.007C10.0817 26.007 10.3517 25.737 10.3517 25.337V23.437C13.6917 23.317 17.0517 21.817 18.2817 18.667C18.4617 18.257 18.5717 17.687 18.5717 17.227C18.5717 15.927 17.6917 15.027 16.2617 15.027C15.1317 15.027 14.5317 15.547 14.0817 16.577C13.4017 18.277 12.0817 19.267 10.3517 19.417V6.617C12.0317 6.797 13.3517 7.817 13.9917 9.397C14.4417 10.407 15.1217 10.947 16.2817 10.947C17.6517 10.947 18.4317 10.057 18.4317 8.827C18.4317 8.207 18.2317 7.537 17.9417 6.977C16.5117 4.137 13.6217 2.747 10.3517 2.597V0.667C10.3517 0.247 10.0417 -0.003 9.6917 -0.003C9.3317 -0.003 9.0217 0.247 9.0217 0.667V2.597C3.3617 2.927 0.0017 6.887 0.0017 13.007C0.0017 19.187 3.2917 23.047 9.0217 23.417V25.337C9.0217 25.747 9.3117 26.007 9.6917 26.007ZM5.1317 12.997C5.1317 9.987 6.2117 7.097 9.0217 6.657V19.387C6.2417 18.927 5.1317 16.117 5.1317 12.997Z" />
        </svg>
    