
        <svg xmlns="http://www.w3.org/2000/svg" viewBox="0 0 100 100">
            <path d="M4.5917 23.2359H18.6417C21.5417 23.2359 23.2417 21.5459 23.2417 18.6459V4.5959C23.2417 1.6959 21.5417 -0.0041 18.6417 -0.0041H4.5917C1.7017 -0.0041 0.0017 1.6959 0.0017 4.5959V18.6459C0.0017 21.5459 1.7017 23.2359 4.5917 23.2359ZM5.2217 19.0759C4.5117 19.0759 4.1617 18.7859 4.1617 18.0159V5.2359C4.1617 4.4659 4.5117 4.1759 5.2217 4.1759H18.0117C18.7217 4.1759 19.0817 4.4659 19.0817 5.2359V18.0159C19.0817 18.7859 18.7217 19.0759 18.0117 19.0759ZM11.6117 17.6759C11.7917 17.6759 11.9017 17.5459 11.9017 17.3659V16.4859C13.5217 16.4459 15.1917 15.7059 15.7817 14.2259C15.8517 13.9959 15.9217 13.7059 15.9217 13.4759C15.9217 12.7259 15.4017 12.2659 14.6517 12.2659C14.0517 12.2659 13.7217 12.5359 13.4717 13.1059C13.1217 13.8059 12.6517 14.2359 11.9017 14.3059V8.8259C12.6517 8.9059 13.1217 9.3759 13.4417 9.9959C13.7117 10.5559 14.0517 10.8259 14.6817 10.8259C15.3917 10.8259 15.8717 10.3759 15.8717 9.6559C15.8717 9.3259 15.7517 8.9459 15.5717 8.6559C14.8517 7.2759 13.3917 6.7159 11.9017 6.6459V5.7459C11.9017 5.5759 11.7917 5.4459 11.6117 5.4459C11.4417 5.4459 11.3317 5.5759 11.3317 5.7459V6.6559C8.5317 6.7859 6.9417 8.6559 6.9417 11.5759C6.9417 14.4259 8.4117 16.3159 11.3317 16.4759V17.3659C11.3317 17.5459 11.4417 17.6759 11.6117 17.6759ZM9.7517 11.5559C9.7517 10.2759 10.1817 9.0459 11.3317 8.8459V14.2859C10.1217 14.0859 9.7517 12.7959 9.7517 11.5559Z" />
        </svg>
    