
        <svg xmlns="http://www.w3.org/2000/svg" viewBox="0 0 100 100">
            <path d="M12.7923 25.5978C19.8723 25.5978 25.6023 19.8678 25.6023 12.7978C25.6023 5.7278 19.8723 -0.0022 12.7923 -0.0022C5.7323 -0.0022 0.0023 5.7278 0.0023 12.7978C0.0023 19.8678 5.7323 25.5978 12.7923 25.5978ZM12.7923 21.4178C8.0323 21.4178 4.1723 17.5678 4.1723 12.7978C4.1723 8.0278 8.0323 4.1678 12.7923 4.1678C17.5623 4.1678 21.4323 8.0278 21.4323 12.7978C21.4323 17.5678 17.5623 21.4178 12.7923 21.4178ZM12.8223 17.9278C12.9823 17.9278 13.1223 17.7878 13.1223 17.6378V16.8278C14.1723 16.7778 15.1623 16.4578 15.8223 15.6878C16.1223 15.3478 16.3523 14.9378 16.3523 14.4678C16.3523 13.7778 15.8123 13.4178 15.1323 13.4178C14.5523 13.4178 14.2623 13.6978 14.0023 14.1078C13.7823 14.4578 13.4923 14.6678 13.1223 14.7378V10.7778C13.4923 10.8478 13.7723 11.0778 13.9823 11.4178C14.2723 11.8478 14.5623 12.0778 15.1023 12.0778C15.7723 12.0778 16.3323 11.7178 16.3323 11.0278C16.3323 10.6778 16.1123 10.2078 15.7823 9.8278C15.1523 9.1378 14.1723 8.7578 13.1223 8.6978V7.8778C13.1223 7.7078 12.9823 7.5778 12.8223 7.5778C12.6723 7.5778 12.5323 7.7078 12.5323 7.8778V8.6878C10.0323 8.7978 8.7323 10.4278 8.7323 12.7478C8.7323 15.2578 10.2023 16.7178 12.5323 16.8278V17.6378C12.5323 17.7878 12.6723 17.9278 12.8223 17.9278ZM11.4723 12.7478C11.4723 11.7678 11.6923 10.9378 12.5323 10.7778V14.7378C11.6923 14.5778 11.4723 13.7378 11.4723 12.7478Z" />
        </svg>
    