
        <svg xmlns="http://www.w3.org/2000/svg" viewBox="0 0 100 100">
            <path d="M8.3517 21.918C8.7217 21.918 9.0117 21.618 9.0117 21.258V19.468C11.0817 19.348 13.1517 18.678 14.4717 17.168C15.1517 16.358 15.6417 15.468 15.6417 14.598C15.6417 13.338 14.6517 12.648 13.4217 12.648C12.4217 12.648 11.8317 13.128 11.3717 13.908C10.8417 14.908 10.0617 15.478 9.0117 15.628V6.278C10.0217 6.448 10.8317 7.058 11.3317 7.988C11.8217 8.838 12.4317 9.268 13.3917 9.268C14.6117 9.268 15.6117 8.568 15.6117 7.298C15.6117 6.458 15.1317 5.568 14.4017 4.748C13.0617 3.278 11.0817 2.578 9.0117 2.448V0.658C9.0117 0.288 8.7217 -0.002 8.3517 -0.002C7.9917 -0.002 7.7017 0.288 7.7017 0.658V2.448C3.0017 2.708 0.0017 5.828 0.0017 10.948C0.0017 15.998 2.9017 19.198 7.7017 19.468V21.258C7.7017 21.618 7.9917 21.918 8.3517 21.918ZM4.9717 10.948C4.9717 8.588 5.6717 6.658 7.7017 6.288V15.608C5.6517 15.248 4.9717 13.298 4.9717 10.948Z" />
        </svg>
    