
        <svg xmlns="http://www.w3.org/2000/svg" viewBox="0 0 100 100">
            <path d="M12.2223 24.4436C18.9723 24.4436 24.4423 18.9636 24.4423 12.2236C24.4423 5.4736 18.9723 0.0036 12.2223 0.0036C5.4823 0.0036 0.0023 5.4736 0.0023 12.2236C0.0023 18.9636 5.4823 24.4436 12.2223 24.4436ZM12.2223 17.8036C12.0023 17.8036 11.8223 17.6236 11.8223 17.4136V16.4436C9.6123 16.2636 8.1523 14.7036 8.1523 12.1536C8.1523 9.7836 9.4723 8.0636 11.8223 7.8836V6.9136C11.8223 6.7036 12.0023 6.5236 12.2223 6.5236C12.4223 6.5236 12.6023 6.7036 12.6023 6.9136V7.8836C13.5923 7.9736 14.5123 8.3336 15.1123 8.9536C15.4823 9.3436 15.7823 9.8636 15.7823 10.2936C15.7823 10.7936 15.4223 11.0836 14.9423 11.0836C14.5523 11.0836 14.2923 10.8836 14.1223 10.5436C13.8123 9.8636 13.2923 9.5036 12.6023 9.4136V14.9136C13.2923 14.8336 13.7923 14.4536 14.1323 13.7836C14.3123 13.5036 14.5223 13.2436 14.9423 13.2436C15.4123 13.2436 15.7923 13.5236 15.7923 14.0236C15.7923 14.4736 15.5123 14.9836 15.1523 15.3736C14.5223 16.0236 13.5823 16.3736 12.6023 16.4436V17.4136C12.6023 17.6236 12.4223 17.8036 12.2223 17.8036ZM10.0523 12.1536C10.0523 13.5836 10.5823 14.6936 11.8223 14.9036V9.4236C10.6023 9.6236 10.0523 10.7236 10.0523 12.1536Z" />
        </svg>
    