
        <svg xmlns="http://www.w3.org/2000/svg" viewBox="0 0 100 100">
            <path d="M6.8217 20.9792C6.9817 20.9792 7.1117 20.8492 7.1117 20.6792V18.2792C8.8317 18.2392 10.5217 17.6092 11.7117 16.3792C12.2917 15.7592 13.0517 14.5192 13.0517 13.8192C13.0517 13.6792 12.9417 13.5592 12.7717 13.5592C12.6117 13.5592 12.5317 13.6492 12.4817 13.8092C11.8117 16.0392 9.8517 17.6392 7.1117 17.7292V3.2492C9.8517 3.3392 11.8117 4.9292 12.4817 7.1692C12.5317 7.3192 12.6117 7.4092 12.7717 7.4092C12.9417 7.4092 13.0517 7.2992 13.0517 7.1592C13.0517 6.4592 12.2917 5.2192 11.7117 4.5792C10.5217 3.3592 8.8317 2.7392 7.1117 2.6992V0.2792C7.1117 0.1292 6.9817 -0.0008 6.8217 -0.0008C6.6717 -0.0008 6.5417 0.1292 6.5417 0.2792V2.6992C2.2417 2.8592 0.0017 6.2092 0.0017 10.4892C0.0017 14.7692 2.2417 18.1192 6.5417 18.2792V20.6792C6.5417 20.8492 6.6717 20.9792 6.8217 20.9792ZM0.6317 10.4892C0.6317 6.4592 2.6517 3.4092 6.5417 3.2492V17.7192C2.6517 17.5592 0.6317 14.5092 0.6317 10.4892Z" />
        </svg>
    