
        <svg xmlns="http://www.w3.org/2000/svg" viewBox="0 0 100 100">
            <path d="M6.0217 9.7144H14.1217V6.9444C14.1217 5.3344 15.2917 4.1644 16.9317 4.1644H17.2117V2.2844C17.2117 0.9144 16.3617 0.0044 15.0917 0.0044H5.0517C3.7817 0.0044 2.9317 0.9144 2.9317 2.2844V4.1644H3.2117C4.8517 4.1644 6.0217 5.3344 6.0217 6.9444ZM0.0017 14.0044C0.0017 15.1044 0.7717 15.8444 1.9117 15.8444H2.5417V17.2644C2.5417 17.7744 2.8017 18.0444 3.3117 18.0444H3.8517C4.3517 18.0444 4.6317 17.7744 4.6317 17.2644V15.8444H15.5117V17.2644C15.5117 17.7744 15.8017 18.0444 16.3017 18.0444H16.8317C17.3417 18.0444 17.6017 17.7744 17.6017 17.2644V15.8444H18.2317C19.3717 15.8444 20.1417 15.1044 20.1417 14.0044V6.9444C20.1417 5.8444 19.3717 5.1044 18.2317 5.1044H17.0317C15.8917 5.1044 15.1217 5.8444 15.1217 6.9444V10.7144H5.0317V6.9444C5.0317 5.8444 4.2517 5.1044 3.1217 5.1044H1.9117C0.7717 5.1044 0.0017 5.8444 0.0017 6.9444Z" />
        </svg>
    