
        <svg xmlns="http://www.w3.org/2000/svg" viewBox="0 0 100 100">
            <path d="M0.0017 13.5394C0.0017 14.5194 0.7117 15.1894 1.7617 15.1894H2.3817V16.5894C2.3817 17.0694 2.6017 17.3094 3.0717 17.3094H3.5517C4.0117 17.3094 4.2417 17.0694 4.2417 16.5894V15.1894H14.9917V16.5894C14.9917 17.0694 15.2217 17.3094 15.6917 17.3094H16.1617C16.6417 17.3094 16.8617 17.0694 16.8617 16.5894V15.1894H17.4717C18.5317 15.1894 19.2317 14.5194 19.2317 13.5394V6.4894C19.2317 5.4994 18.5317 4.8394 17.4717 4.8394H16.4017V2.1994C16.4017 0.8794 15.6117 -0.0006 14.4017 -0.0006H4.8417C3.6317 -0.0006 2.8317 0.8794 2.8317 2.1994V4.8394H1.7617C0.7117 4.8394 0.0017 5.4994 0.0017 6.4894ZM5.2017 10.1994V6.4894C5.2017 5.4994 4.4917 4.8394 3.4417 4.8394H3.4017V2.1694C3.4017 1.2094 3.9617 0.5694 4.8017 0.5694H14.4417C15.2817 0.5694 15.8317 1.2094 15.8317 2.1694V4.8394H15.8017C14.7417 4.8394 14.0317 5.4994 14.0317 6.4894V10.1994ZM0.6017 13.5394V6.4894C0.6017 5.8494 1.0617 5.4294 1.7617 5.4294H3.4417C4.1417 5.4294 4.6017 5.8494 4.6017 6.4894V10.7694H14.6417V6.4894C14.6417 5.8494 15.1017 5.4294 15.8017 5.4294H17.4717C18.1617 5.4294 18.6317 5.8494 18.6317 6.4894V13.5394C18.6317 14.1794 18.1617 14.5994 17.4717 14.5994H1.7617C1.0617 14.5994 0.6017 14.1794 0.6017 13.5394Z" />
        </svg>
    