
        <svg xmlns="http://www.w3.org/2000/svg" viewBox="0 0 100 100">
            <path d="M19.7617 31.4158C21.7717 31.4158 23.4217 29.7558 23.4217 27.7358C23.4217 26.1958 22.4417 24.8458 21.0617 24.3158V22.6358C21.2317 22.5958 21.4117 22.5358 21.5717 22.4658C23.8817 24.0858 26.6517 23.9858 28.4417 22.6558C31.5817 24.8558 36.4217 23.2358 37.3117 19.7358C38.5817 19.3458 39.5117 18.1558 39.5117 16.7858C39.5117 15.0958 38.1117 13.6858 36.4217 13.6858C34.7217 13.6858 33.3417 15.0858 33.3417 16.7858C33.3417 17.8358 33.8817 18.7758 34.7117 19.3358C34.1117 20.9558 31.6317 21.5858 30.0017 20.5858C30.1217 20.2958 30.2017 19.9658 30.2417 19.6358C31.6517 19.1258 32.6617 17.7658 32.6617 16.1958C32.6617 14.1758 30.9917 12.5258 28.9817 12.5258C26.9717 12.5258 25.3117 14.1758 25.3117 16.1958C25.3117 17.7058 26.2517 19.0158 27.5617 19.5858C27.0917 20.9258 25.4217 21.4758 23.8017 20.7558C24.4117 19.9258 24.7617 18.9158 24.7617 17.8158C24.7617 15.5758 23.3017 13.6858 21.2717 13.0458V7.8058C24.0917 7.2458 26.3317 5.1458 26.3317 2.7258C26.3317 1.6358 25.7117 0.9358 24.4417 0.5658C23.1117 0.1858 21.5117 -0.0042 19.7617 -0.0042C17.9917 -0.0042 16.4017 0.1858 15.0717 0.5658C13.7917 0.9358 13.1817 1.6358 13.1817 2.7258C13.1817 5.1458 15.4217 7.2458 18.2417 7.8058V13.0458C16.2217 13.6858 14.7517 15.5758 14.7517 17.8158C14.7517 18.9158 15.1017 19.9258 15.7017 20.7558C14.0817 21.4758 12.4117 20.9258 11.9417 19.5858C13.2617 19.0158 14.2017 17.7058 14.2017 16.1958C14.2017 14.1758 12.5417 12.5258 10.5217 12.5258C8.5117 12.5258 6.8517 14.1758 6.8517 16.1958C6.8517 17.7658 7.8617 19.1258 9.2617 19.6358C9.3117 19.9658 9.4017 20.2958 9.5117 20.5858C7.8917 21.5858 5.4017 20.9558 4.8017 19.3358C5.6217 18.7758 6.1717 17.8358 6.1717 16.7858C6.1717 15.0858 4.7917 13.6858 3.0917 13.6858C1.4017 13.6858 0.0017 15.0958 0.0017 16.7858C0.0017 18.1558 0.9417 19.3458 2.2017 19.7358C3.0917 23.2358 7.9317 24.8558 11.0717 22.6558C12.8717 23.9858 15.6317 24.0858 17.9317 22.4658C18.1017 22.5358 18.2717 22.5958 18.4417 22.6358V24.3158C17.0717 24.8458 16.0917 26.1958 16.0917 27.7358C16.0917 29.7558 17.7417 31.4158 19.7617 31.4158ZM19.7617 5.3358C17.9017 5.3358 16.4717 4.4958 15.9517 3.2158C15.9217 3.1158 15.9617 3.0358 16.0617 2.9958C17.3117 2.7458 18.5417 2.6058 19.7617 2.6058C20.9717 2.6058 22.1917 2.7458 23.4517 2.9958C23.5417 3.0358 23.5917 3.1158 23.5617 3.2158C23.0417 4.4958 21.5817 5.3358 19.7617 5.3358ZM10.5217 17.2458C9.9417 17.2458 9.4717 16.7858 9.4717 16.1958C9.4717 15.6058 9.9417 15.1358 10.5217 15.1358C11.1217 15.1358 11.5817 15.6058 11.5817 16.1958C11.5817 16.7858 11.1217 17.2458 10.5217 17.2458ZM28.9817 17.2458C28.3917 17.2458 27.9217 16.7858 27.9217 16.1958C27.9217 15.6058 28.3917 15.1358 28.9817 15.1358C29.5817 15.1358 30.0317 15.6058 30.0317 16.1958C30.0317 16.7858 29.5817 17.2458 28.9817 17.2458ZM19.7617 20.1958C18.4217 20.1958 17.3717 19.1458 17.3717 17.8158C17.3717 16.4758 18.4217 15.4258 19.7617 15.4258C21.0917 15.4258 22.1417 16.4758 22.1417 17.8158C22.1417 19.1458 21.0917 20.1958 19.7617 20.1958ZM3.0917 17.5458C2.6617 17.5458 2.3217 17.2058 2.3217 16.7858C2.3217 16.3558 2.6617 16.0058 3.0917 16.0058C3.5317 16.0058 3.8517 16.3358 3.8517 16.7858C3.8517 17.2058 3.5117 17.5458 3.0917 17.5458ZM36.4217 17.5458C36.0017 17.5458 35.6517 17.2058 35.6517 16.7858C35.6517 16.3358 35.9917 16.0058 36.4217 16.0058C36.8417 16.0058 37.1917 16.3558 37.1917 16.7858C37.1917 17.2058 36.8417 17.5458 36.4217 17.5458ZM19.7617 28.7958C19.1717 28.7958 18.7017 28.3358 18.7017 27.7358C18.7017 27.1558 19.1717 26.6858 19.7617 26.6858C20.3417 26.6858 20.8117 27.1558 20.8117 27.7358C20.8117 28.3358 20.3417 28.7958 19.7617 28.7958Z" />
        </svg>
    