
        <svg xmlns="http://www.w3.org/2000/svg" viewBox="0 0 100 100">
            <path d="M16.4017 18.3044C17.6617 18.3044 18.4117 17.5944 18.4117 16.3444V15.7244H18.4417C19.1417 17.3244 20.5317 18.3044 22.5317 18.3044C26.0117 18.3044 28.0517 15.7044 28.0517 11.3944C28.0517 7.0544 26.0017 4.4644 22.5217 4.4644C20.6617 4.4644 19.1817 5.4444 18.4817 7.0744H18.4317V2.0044C18.4317 0.7944 17.6417 0.0044 16.4417 0.0044C15.2417 0.0044 14.4517 0.7944 14.4517 1.9944V16.3444C14.4517 17.5944 15.1617 18.3044 16.4017 18.3044ZM36.1617 18.3044C38.8117 18.3044 41.1317 17.0344 41.9617 15.1844C42.1517 14.8144 42.2217 14.4744 42.2217 14.1944C42.2217 13.2444 41.4617 12.6044 40.5217 12.6044C39.6317 12.6044 39.2017 12.9944 38.7217 13.7544C38.1717 14.6944 37.3917 15.3144 36.2317 15.3144C34.5517 15.3144 33.4717 13.8644 33.4717 11.2944C33.4717 8.7644 34.5617 7.3044 36.2617 7.3044C37.3117 7.3044 38.0817 7.8444 38.7317 9.0244C39.1017 9.6944 39.5817 10.0244 40.4217 10.0244C41.3717 10.0244 42.1517 9.4544 42.1517 8.4944C42.1517 8.2044 42.0517 7.8544 41.9317 7.5444C41.1717 5.5944 38.9317 4.3044 36.1317 4.3044C31.9917 4.3044 29.4117 7.0244 29.4117 11.3044C29.4117 15.6444 31.9917 18.3044 36.1617 18.3044ZM4.6017 18.3044C6.2717 18.3044 7.8717 17.4844 8.6217 16.0644V16.6044C8.7117 17.7344 9.4417 18.3144 10.5617 18.3144C11.7317 18.3144 12.5017 17.6644 12.5017 16.3544V8.9044C12.5017 6.1844 10.2317 4.3744 6.6717 4.3744C3.7417 4.3744 1.5617 5.3944 0.9417 7.0544C0.8217 7.3344 0.7717 7.5844 0.7717 7.8744C0.7717 8.7344 1.4217 9.3444 2.4417 9.3444C3.1217 9.3444 3.6317 9.0944 4.0617 8.6144C4.8517 7.5844 5.4817 7.2344 6.5017 7.2344C7.7417 7.2344 8.5817 7.9144 8.5817 9.1444V9.9244L5.3717 10.1144C1.9017 10.3244 0.0017 11.7544 0.0017 14.2144C0.0017 16.6544 1.9717 18.3044 4.6017 18.3044ZM21.2117 15.2344C19.5817 15.2344 18.4217 13.7344 18.4217 11.3944C18.4217 9.0444 19.5817 7.5344 21.2117 7.5344C22.8717 7.5344 23.9717 9.0244 23.9717 11.3944C23.9717 13.7444 22.8717 15.2344 21.2117 15.2344ZM5.8517 15.5544C4.7417 15.5544 3.9717 14.9544 3.9717 13.9944C3.9717 13.0944 4.7017 12.4944 5.9417 12.4144L8.5817 12.2344V13.1944C8.5817 14.5644 7.3817 15.5544 5.8517 15.5544Z" />
        </svg>
    