
        <svg xmlns="http://www.w3.org/2000/svg" viewBox="0 0 100 100">
            <path d="M8.1417 25.4395C8.9417 25.4395 9.5717 25.0995 10.5617 24.2495L14.5217 20.7795H21.2617C24.8417 20.7795 27.0017 18.5895 27.0017 15.0395V5.7395C27.0017 2.1795 24.8417 -0.0005 21.2617 -0.0005H5.7417C2.1517 -0.0005 0.0017 2.1795 0.0017 5.7395V15.0395C0.0017 18.5895 2.3017 20.7795 5.5417 20.7795H6.2917V23.3795C6.2917 24.6595 6.9817 25.4395 8.1417 25.4395ZM8.8717 22.0895V18.8395C8.8717 18.0495 8.4917 17.7495 7.7817 17.7495H5.9317C3.9717 17.7495 3.0217 16.7695 3.0217 14.8495V5.9195C3.0217 3.9995 3.9717 3.0195 5.9317 3.0195H21.0717C23.0117 3.0195 23.9717 3.9995 23.9717 5.9195V14.8495C23.9717 16.7695 23.0117 17.7495 21.0717 17.7495H14.3017C13.4917 17.7495 13.1217 17.9095 12.5417 18.4895ZM9.9817 15.8295C10.6717 15.8295 11.1217 15.4595 11.3217 14.6095L11.8117 13.1295H15.2017L15.6917 14.6095C15.8917 15.4495 16.3317 15.8295 17.0417 15.8295C17.8617 15.8295 18.3617 15.3495 18.3617 14.5695C18.3617 14.3295 18.3017 14.0495 18.1717 13.6495L15.6717 6.5495C15.3017 5.4295 14.5817 4.8895 13.4717 4.8895C12.4117 4.8895 11.7217 5.4095 11.3417 6.5495L8.8317 13.6495C8.7117 14.0495 8.6617 14.3295 8.6617 14.5695C8.6617 15.3495 9.1517 15.8295 9.9817 15.8295ZM12.3417 11.1295L13.4417 7.4195H13.5717L14.6717 11.1295Z" />
        </svg>
    