
        <svg xmlns="http://www.w3.org/2000/svg" viewBox="0 0 100 100">
            <path d="M2.8617 24.6656H18.4317C18.6117 24.6656 18.7017 24.5756 18.7017 24.3856C18.7017 24.2856 18.6517 24.1856 18.5717 24.1256C16.7717 22.9556 16.3317 20.9056 17.9017 19.0856C18.3917 18.5356 18.7017 17.8056 18.7017 16.8056V3.0156C18.7017 1.0456 17.6617 -0.0044 15.7017 -0.0044H3.0117C1.0417 -0.0044 0.0017 1.0456 0.0017 3.0156V21.9656C0.0017 23.6556 1.0517 24.6656 2.8617 24.6656ZM3.0317 0.5756H15.6717C17.3017 0.5756 18.1317 1.4156 18.1317 3.0356V16.7856C18.1317 18.4056 17.2817 19.2556 15.6517 19.2556H2.8617C2.7917 19.2556 2.7217 19.2656 2.6517 19.2656V0.5856C2.7817 0.5756 2.9017 0.5756 3.0317 0.5756ZM0.5717 20.2256V3.0356C0.5717 1.7656 1.0817 0.9856 2.0717 0.6956V19.3256C1.4017 19.4556 0.9517 19.7556 0.5717 20.2256ZM6.5517 15.3256C6.7117 15.3256 6.7817 15.2656 6.8517 15.0656L8.0617 11.8756H12.7017L13.9117 15.0656C13.9817 15.2556 14.0517 15.3256 14.2517 15.3256C14.4017 15.3256 14.5317 15.2156 14.5317 15.0656C14.5317 14.9856 14.5217 14.9656 14.4917 14.8856L10.7817 5.1356C10.7117 4.9356 10.5817 4.8356 10.3917 4.8356C10.1917 4.8356 10.0517 4.9356 9.9817 5.1356L6.2817 14.8856C6.2417 14.9656 6.2317 14.9856 6.2317 15.0456C6.2317 15.2256 6.3517 15.3256 6.5517 15.3256ZM8.2817 11.2856L10.3617 5.8056H10.4017L12.4817 11.2856ZM2.8817 24.0956C1.4317 24.0956 0.5717 23.2956 0.5717 21.9356C0.5717 20.6156 1.4317 19.8256 2.8817 19.8256H15.7017C16.1817 19.8256 16.5917 19.7656 16.9817 19.6556C15.9817 21.2956 16.3217 23.0156 17.7317 24.0956Z" />
        </svg>
    