
        <svg xmlns="http://www.w3.org/2000/svg" viewBox="0 0 100 100">
            <path d="M7.8517 16.3634C7.8517 17.1334 8.3417 17.6034 9.1217 17.6034H11.6517C12.4217 17.6034 12.9117 17.1334 12.9117 16.3634V1.2334C12.9117 0.4734 12.4217 0.0034 11.6517 0.0034H9.1217C8.3417 0.0034 7.8517 0.4734 7.8517 1.2334ZM14.3017 16.3634C14.3017 17.1334 14.7817 17.6034 15.5517 17.6034H18.0917C18.8717 17.6034 19.3617 17.1334 19.3617 16.3634V4.0434C19.3617 3.2734 18.8717 2.8034 18.0917 2.8034H15.5517C14.7817 2.8034 14.3017 3.2734 14.3017 4.0434ZM1.4217 16.3634C1.4217 17.1334 1.9117 17.6034 2.6717 17.6034H5.2117C5.9717 17.6034 6.4817 17.1334 6.4817 16.3634V6.5134C6.4817 5.7634 5.9717 5.2734 5.2117 5.2734H2.6717C1.9117 5.2734 1.4217 5.7634 1.4217 6.5134ZM20.7317 16.3634C20.7317 17.1334 21.2217 17.6034 21.9917 17.6034H24.5417C25.3017 17.6034 25.7917 17.1334 25.7917 16.3634V8.9434C25.7917 8.1834 25.3017 7.6834 24.5417 7.6834H21.9917C21.2217 7.6834 20.7317 8.1834 20.7317 8.9434ZM0.0017 20.8734C0.0017 21.6134 0.5717 22.1534 1.3017 22.1534H25.9117C26.6417 22.1534 27.2117 21.6134 27.2117 20.8734C27.2117 20.1234 26.6417 19.5934 25.9117 19.5934H1.3017C0.5717 19.5934 0.0017 20.1234 0.0017 20.8734Z" />
        </svg>
    