
        <svg xmlns="http://www.w3.org/2000/svg" viewBox="0 0 100 100">
            <path d="M11.4923 22.977C17.8323 22.977 22.9823 17.847 22.9823 11.497C22.9823 5.147 17.8323 -0.003 11.4923 -0.003C5.1423 -0.003 0.0023 5.147 0.0023 11.497C0.0023 17.847 5.1423 22.977 11.4923 22.977ZM11.4923 22.087C5.6323 22.087 0.8923 17.357 0.8923 11.497C0.8923 5.637 5.6323 0.887 11.4923 0.887C17.3523 0.887 22.0923 5.637 22.0923 11.497C22.0923 17.357 17.3523 22.087 11.4923 22.087ZM5.4823 16.277C5.4823 16.667 5.7323 16.917 6.1023 16.917H17.6223C17.8123 16.917 17.9923 16.757 17.9923 16.557C17.9923 16.347 17.8323 16.187 17.6223 16.187H6.3523C6.2423 16.187 6.2223 16.157 6.2223 16.057V11.547H14.5323V13.057C14.5323 13.317 14.7923 13.427 15.0223 13.277L17.7423 11.457C17.9623 11.317 17.9623 11.037 17.7523 10.897L15.0123 9.067C14.7923 8.927 14.5323 9.007 14.5323 9.297V10.797H6.2223V6.317C6.2223 6.117 6.0623 5.937 5.8623 5.937C5.6523 5.937 5.4823 6.117 5.4823 6.317Z" />
        </svg>
    