
        <svg xmlns="http://www.w3.org/2000/svg" viewBox="0 0 100 100">
            <path d="M1.8517 18.0544C2.9317 18.0544 3.5317 17.5744 3.8317 16.4444L4.7717 13.6744H11.0717L12.0117 16.4444C12.3117 17.5744 12.9017 18.0544 13.9917 18.0544C15.1617 18.0544 15.9217 17.3444 15.9217 16.2644C15.9217 15.8444 15.8517 15.4944 15.7117 15.0544L11.0617 2.1544C10.5617 0.6944 9.5717 0.0044 7.9417 0.0044C6.4117 0.0044 5.4217 0.7044 4.9217 2.1444L0.2117 15.1944C0.0717 15.5944 0.0017 15.9744 0.0017 16.3144C0.0017 17.3944 0.7017 18.0544 1.8517 18.0544ZM5.6117 10.7944L7.9117 3.6644H7.9917L10.3017 10.7944Z" />
        </svg>
    