
        <svg xmlns="http://www.w3.org/2000/svg" viewBox="0 0 100 100">
            <path d="M7.2917 22.3289C11.3817 22.3289 14.5917 19.1089 14.5917 15.0389V3.1089C15.2417 2.9189 15.7217 2.3089 15.7217 1.5889C15.7217 0.7189 15.0217 -0.0011 14.1417 -0.0011C13.2517 -0.0011 12.5517 0.7189 12.5517 1.5889C12.5517 2.3089 13.0317 2.9189 13.7017 3.1189V11.4889C12.4717 9.2189 10.0817 7.7189 7.2817 7.7189C3.2017 7.7189 0.0017 10.9289 0.0017 15.0389C0.0017 19.1089 3.2117 22.3289 7.2917 22.3289ZM7.2917 21.4289C3.6417 21.4289 0.8917 18.6789 0.8917 15.0389C0.8917 11.3689 3.6317 8.6089 7.2817 8.6089C10.9417 8.6089 13.7017 11.3689 13.7017 15.0389C13.7017 18.6789 10.9417 21.4289 7.2917 21.4289Z" />
        </svg>
    