
        <svg xmlns="http://www.w3.org/2000/svg" viewBox="0 0 100 100">
            <path d="M11.4923 22.9836C17.8123 22.9836 22.9823 17.8136 22.9823 11.4836C22.9823 5.1536 17.8123 0.0036 11.4923 0.0036C5.1723 0.0036 0.0023 5.1536 0.0023 11.4836C0.0023 17.8136 5.1723 22.9836 11.4923 22.9836ZM5.4723 16.3036V6.2836C5.4723 6.0736 5.6323 5.8936 5.8523 5.8936C6.0623 5.8936 6.2223 6.0736 6.2223 6.2836V8.6136L8.5423 10.8736C8.6723 10.9936 8.7923 10.9936 8.9023 10.8736L11.3523 8.4736C11.5923 8.2336 11.8223 8.1336 12.0923 8.1336C12.3623 8.1336 12.6123 8.2336 12.8223 8.4736L15.5023 11.1936L16.5823 10.1336C16.7823 9.9536 17.0523 10.0336 17.1123 10.2936L17.7623 13.5336C17.8223 13.7936 17.6223 14.0036 17.3523 13.9436L14.1223 13.2936C13.8523 13.2336 13.7623 12.9236 13.9523 12.7636L14.9723 11.7236L12.2823 8.9736C12.1723 8.8636 12.0323 8.8436 11.9023 8.9736L9.4523 11.3936C9.2223 11.6136 9.0023 11.7236 8.7323 11.7236C8.4523 11.7236 8.2223 11.6136 7.9923 11.3936L6.2223 9.6636V16.0536C6.2223 16.1736 6.2623 16.2036 6.3623 16.2036H17.6923C17.8923 16.2036 18.0623 16.3736 18.0623 16.5836C18.0623 16.7836 17.8823 16.9436 17.6923 16.9436H6.1023C5.7223 16.9436 5.4723 16.6836 5.4723 16.3036Z" />
        </svg>
    