
        <svg xmlns="http://www.w3.org/2000/svg" viewBox="0 0 100 100">
            <path d="M0.0017 21.0622C0.0017 21.3822 0.1917 21.5722 0.5117 21.5722H24.3317C24.4717 21.5722 24.6117 21.4922 24.6117 21.3022C24.6117 21.1222 24.4717 21.0322 24.3317 21.0322H0.7517C0.6217 21.0322 0.5717 20.9922 0.5717 20.8622V10.3922H18.4617V13.8822C18.4617 14.1022 18.6317 14.1522 18.8017 14.0422L24.1917 10.3222C24.3717 10.1922 24.3717 10.0122 24.1917 9.8822L18.7817 6.1622C18.6317 6.0622 18.4617 6.1122 18.4617 6.3322V9.8222H0.5717V0.2922C0.5717 0.1522 0.4917 0.0022 0.3017 0.0022C0.0917 0.0022 0.0017 0.1522 0.0017 0.2922Z" />
        </svg>
    