
        <svg xmlns="http://www.w3.org/2000/svg" viewBox="0 0 100 100">
            <path d="M1.3017 17.58C2.0817 17.58 2.4817 17.25 2.7417 16.43L4.0517 12.77H10.7417L12.0517 16.43C12.3017 17.25 12.7117 17.58 13.4917 17.58C14.3117 17.58 14.8317 17.09 14.8317 16.31C14.8317 16.03 14.7917 15.8 14.6817 15.48L9.4917 1.46C9.1317 0.48 8.4717 0 7.4017 0C6.3917 0 5.7217 0.48 5.3817 1.45L0.1517 15.54C0.0517 15.84 0.0017 16.09 0.0017 16.34C0.0017 17.11 0.4917 17.58 1.3017 17.58ZM4.7217 10.61L7.3717 2.99H7.4417L10.0917 10.61Z" />
        </svg>
    