
        <svg xmlns="http://www.w3.org/2000/svg" viewBox="0 0 100 100">
            <path d="M22.2417 21.6542H25.8717C27.1017 21.6542 27.7217 21.0342 27.7217 19.7342V1.9242C27.7217 0.6342 27.1017 0.0042 25.8717 0.0042H22.2417C21.0117 0.0042 20.3917 0.6342 20.3917 1.9242V19.7342C20.3917 21.0342 21.0117 21.6542 22.2417 21.6542ZM22.2417 21.0842C21.3917 21.0842 20.9617 20.6242 20.9617 19.7442V1.9142C20.9617 1.0342 21.3917 0.5842 22.2417 0.5842H25.8717C26.7317 0.5842 27.1517 1.0342 27.1517 1.9142V19.7442C27.1517 20.6242 26.7317 21.0842 25.8717 21.0842ZM12.0517 21.6542H15.6817C16.9117 21.6542 17.5317 21.0342 17.5317 19.7342V5.2842C17.5317 3.9942 16.9117 3.3742 15.6817 3.3742H12.0517C10.8117 3.3742 10.1917 3.9942 10.1917 5.2842V19.7342C10.1917 21.0342 10.8117 21.6542 12.0517 21.6542ZM12.0517 21.0842C11.1917 21.0842 10.7717 20.6242 10.7717 19.7442V5.2842C10.7717 4.3942 11.1917 3.9442 12.0517 3.9442H15.6817C16.5317 3.9442 16.9617 4.3942 16.9617 5.2842V19.7442C16.9617 20.6242 16.5317 21.0842 15.6817 21.0842ZM1.8517 21.6542H5.4817C6.7117 21.6542 7.3317 21.0342 7.3317 19.7342V8.5742C7.3317 7.2742 6.7117 6.6542 5.4817 6.6542H1.8517C0.6217 6.6542 0.0017 7.2742 0.0017 8.5742V19.7342C0.0017 21.0342 0.6217 21.6542 1.8517 21.6542ZM1.8517 21.0842C0.9917 21.0842 0.5717 20.6242 0.5717 19.7442V8.5642C0.5717 7.6842 0.9917 7.2342 1.8517 7.2342H5.4817C6.3417 7.2342 6.7617 7.6842 6.7617 8.5642V19.7442C6.7617 20.6242 6.3417 21.0842 5.4817 21.0842Z" />
        </svg>
    