
        <svg xmlns="http://www.w3.org/2000/svg" viewBox="0 0 100 100">
            <path d="M3.9117 -0.0003C1.9417 -0.0003 0.9017 1.0397 0.9017 3.0097V7.2297C0.9017 7.3897 1.0317 7.5197 1.1917 7.5197C1.3517 7.5197 1.4717 7.3897 1.4717 7.2297V3.0397C1.4717 1.4097 2.3217 0.5697 3.9417 0.5697H24.9217C26.4917 0.5697 27.3917 1.4097 27.3917 3.0397V7.2297C27.3917 7.3897 27.5317 7.5197 27.6817 7.5197C27.8517 7.5197 27.9617 7.3897 27.9617 7.2297V3.0097C27.9617 1.0697 26.9217 -0.0003 24.9617 -0.0003ZM10.6017 15.6097C10.7717 15.6097 10.8417 15.5597 10.9117 15.3497L12.1217 12.1797H16.7417L17.9417 15.3497C18.0217 15.5397 18.0917 15.6097 18.2817 15.6097C18.4317 15.6097 18.5617 15.4997 18.5617 15.3497C18.5617 15.2797 18.5517 15.2597 18.5317 15.1597L14.8217 5.4497C14.7517 5.2397 14.6217 5.1597 14.4417 5.1597C14.2417 5.1597 14.1117 5.2397 14.0317 5.4497L10.3317 15.1597C10.3017 15.2597 10.2917 15.2797 10.2917 15.3397C10.2917 15.5197 10.4017 15.6097 10.6017 15.6097ZM12.3317 11.5897L14.4017 6.1097H14.4517L16.5217 11.5897ZM1.1917 11.3697C1.8317 11.3697 2.3717 10.8497 2.3717 10.1997C2.3717 9.5397 1.8317 9.0097 1.1917 9.0097C0.5417 9.0097 0.0017 9.5397 0.0017 10.1997C0.0017 10.8497 0.5417 11.3697 1.1917 11.3697ZM27.6817 11.3697C28.3217 11.3697 28.8517 10.8497 28.8517 10.1997C28.8517 9.5397 28.3217 9.0097 27.6817 9.0097C27.0217 9.0097 26.4817 9.5397 26.4817 10.1997C26.4817 10.8497 27.0217 11.3697 27.6817 11.3697ZM3.9117 20.4997H24.9617C26.9217 20.4997 27.9617 19.4297 27.9617 17.4797V13.2697C27.9617 13.1097 27.8517 12.9797 27.6817 12.9797C27.5317 12.9797 27.3917 13.1097 27.3917 13.2697V17.4597C27.3917 19.0797 26.4917 19.9197 24.9217 19.9197H3.9417C2.3217 19.9197 1.4717 19.0797 1.4717 17.4597V13.2697C1.4717 13.1097 1.3517 12.9797 1.1917 12.9797C1.0317 12.9797 0.9017 13.1097 0.9017 13.2697V17.4797C0.9017 19.4497 1.9417 20.4997 3.9117 20.4997Z" />
        </svg>
    