
        <svg xmlns="http://www.w3.org/2000/svg" viewBox="0 0 100 100">
            <path d="M0.0017 21.5197C0.0017 23.7997 1.1617 24.9697 3.4217 24.9697H15.9517C18.2217 24.9697 19.3717 23.7997 19.3717 21.5197V3.4497C19.3717 1.1597 18.2217 -0.0003 15.9517 -0.0003H3.4217C1.1617 -0.0003 0.0017 1.1597 0.0017 3.4497ZM3.9817 3.5997H11.3817C11.8117 3.5997 12.0917 3.8897 12.0917 4.3597V6.4997C12.0917 6.9597 11.8117 7.2497 11.3817 7.2497H3.9817C3.5417 7.2497 3.2717 6.9597 3.2717 6.4997V4.3597C3.2717 3.8897 3.5417 3.5997 3.9817 3.5997ZM3.9817 8.2997H15.4117C15.8417 8.2997 16.1217 8.5897 16.1217 9.0497V11.1897C16.1217 11.6597 15.8417 11.9497 15.4117 11.9497H3.9817C3.5417 11.9497 3.2717 11.6597 3.2717 11.1997V9.0497C3.2717 8.5897 3.5417 8.2997 3.9817 8.2997ZM3.9817 12.9997H13.3917C13.8417 12.9997 14.1117 13.2797 14.1117 13.7497V15.8997C14.1117 16.3597 13.8417 16.6497 13.3917 16.6497H3.9817C3.5417 16.6497 3.2717 16.3597 3.2717 15.8997V13.7497C3.2717 13.2797 3.5417 12.9997 3.9817 12.9997ZM3.9817 17.6797H9.4217C9.8517 17.6797 10.1417 17.9797 10.1417 18.4597V20.5997C10.1417 21.0597 9.8517 21.3497 9.4217 21.3497H3.9817C3.5417 21.3497 3.2717 21.0597 3.2717 20.5997V18.4597C3.2717 17.9797 3.5417 17.6797 3.9817 17.6797Z" />
        </svg>
    