
        <svg xmlns="http://www.w3.org/2000/svg" viewBox="0 0 100 100">
            <path d="M0.0017 21.5306C0.0017 24.0606 1.3017 25.3706 3.8117 25.3706H16.2917C18.8017 25.3706 20.1017 24.0606 20.1017 21.5306V3.8406C20.1017 1.3206 18.8017 0.0006 16.2917 0.0006H3.8117C1.3017 0.0006 0.0017 1.3206 0.0017 3.8406ZM4.6317 4.0506H11.6817C12.1717 4.0506 12.4917 4.3806 12.4917 4.9006V6.7706C12.4917 7.2806 12.1717 7.6006 11.6817 7.6006H4.6317C4.1217 7.6006 3.8217 7.2806 3.8217 6.7706V4.9006C3.8217 4.3806 4.1217 4.0506 4.6317 4.0506ZM4.6317 8.6106H15.4817C15.9717 8.6106 16.2817 8.9406 16.2817 9.4606V11.3206C16.2817 11.8406 15.9717 12.1606 15.4817 12.1606H4.6317C4.1217 12.1606 3.8217 11.8406 3.8217 11.3206V9.4606C3.8217 8.9406 4.1217 8.6106 4.6317 8.6106ZM4.6317 13.1706H13.5217C14.0317 13.1706 14.3317 13.4906 14.3317 14.0006V15.8806C14.3317 16.3906 14.0317 16.7206 13.5217 16.7206H4.6317C4.1217 16.7206 3.8217 16.3906 3.8217 15.8806V14.0006C3.8217 13.4906 4.1217 13.1706 4.6317 13.1706ZM4.6317 17.7306H9.8917C10.3817 17.7306 10.7017 18.0606 10.7017 18.5706V20.4406C10.7017 20.9506 10.3817 21.2806 9.8917 21.2806H4.6317C4.1217 21.2806 3.8217 20.9506 3.8217 20.4406V18.5706C3.8217 18.0606 4.1217 17.7306 4.6317 17.7306Z" />
        </svg>
    