
        <svg xmlns="http://www.w3.org/2000/svg" viewBox="0 0 100 100">
            <path d="M0.0017 21.6556C0.0017 23.6256 1.0417 24.6656 3.0117 24.6656H15.7017C17.6617 24.6656 18.7017 23.6256 18.7017 21.6556V3.0156C18.7017 1.0456 17.6617 -0.0044 15.7017 -0.0044H3.0117C1.0417 -0.0044 0.0017 1.0456 0.0017 3.0156ZM3.3117 3.0356H11.1117C11.4917 3.0356 11.7417 3.3056 11.7417 3.7356V6.2456C11.7417 6.6456 11.4917 6.9256 11.1117 6.9256H3.3117C2.9217 6.9256 2.6617 6.6456 2.6617 6.2456V3.7356C2.6617 3.3056 2.9217 3.0356 3.3117 3.0356ZM3.3117 7.9356H15.3917C15.8017 7.9356 16.0417 8.2056 16.0417 8.6156V11.1256C16.0417 11.5456 15.8017 11.8256 15.3917 11.8256H3.3117C2.9217 11.8256 2.6617 11.5456 2.6617 11.1456V8.6156C2.6617 8.2056 2.9217 7.9356 3.3117 7.9356ZM3.3117 12.8356H13.2517C13.6417 12.8356 13.8917 13.0856 13.8917 13.4956V16.0156C13.8917 16.4456 13.6417 16.7256 13.2517 16.7256H3.3117C2.9217 16.7256 2.6617 16.4456 2.6617 16.0156V13.4956C2.6617 13.0856 2.9217 12.8356 3.3117 12.8356ZM3.3117 17.7056H9.0217C9.4117 17.7056 9.6717 17.9756 9.6717 18.4056V20.9156C9.6717 21.3156 9.4117 21.5956 9.0217 21.5956H3.3117C2.9217 21.5956 2.6617 21.3156 2.6617 20.9156V18.4056C2.6617 17.9756 2.9217 17.7056 3.3117 17.7056Z" />
        </svg>
    