
        <svg xmlns="http://www.w3.org/2000/svg" viewBox="0 0 100 100">
            <path d="M17.0317 23.0188C23.3217 23.0188 28.5517 17.7888 28.5517 11.5087C28.5517 5.2288 23.3117 -0.0012 17.0117 -0.0012C13.4517 -0.0012 10.2317 1.6788 8.1217 4.2788C7.6917 4.2088 7.2417 4.1687 6.7617 4.1687C4.1217 4.1687 1.8917 5.3888 1.0317 7.1988C0.8317 7.5688 0.7217 7.9588 0.7217 8.2888C0.7217 8.9688 1.1917 9.4088 1.8417 9.4088C2.3217 9.4088 2.6617 9.2088 2.8817 8.7788C3.6717 7.0988 4.8917 6.3988 6.7117 6.3988H6.7417C6.0217 7.8188 5.5917 9.4088 5.5317 11.0788C2.0017 11.4388 0.0017 13.0087 0.0017 15.6688C0.0017 18.4788 2.1217 20.3688 5.2517 20.3688C6.4717 20.3688 7.6617 19.9788 8.6417 19.3288C10.7417 21.5888 13.7417 23.0188 17.0317 23.0188ZM20.3717 8.2988C20.3717 5.3988 18.8517 3.2787 16.2317 2.3287C16.4917 2.3088 16.7617 2.3088 17.0117 2.3088C22.1417 2.3088 26.2117 6.3888 26.2417 11.5087C26.2517 15.4488 23.8217 18.7888 20.3717 20.0988ZM12.8317 4.4087C15.7017 4.4087 17.3817 5.9488 17.3817 8.5788V10.1988L11.5217 10.5388C10.0917 10.6288 8.8617 10.8988 7.8417 11.3387C7.8917 8.6488 9.0617 6.2587 10.9017 4.6188C11.6017 4.4688 12.1717 4.4087 12.8317 4.4087ZM11.8617 12.8988L17.3817 12.5488V14.3988C17.3817 17.0588 15.2917 19.1788 12.4917 19.5388C10.4917 18.3988 8.9517 16.5188 8.2617 14.2688C9.1017 13.4288 10.3017 13.0087 11.8617 12.8988ZM2.5317 15.6588C2.5317 14.2388 3.6217 13.2988 5.6417 13.0888C5.8817 14.8388 6.5417 16.4787 7.4917 17.8988C6.9517 18.0888 6.3617 18.2087 5.7317 18.2087C3.8217 18.2087 2.5317 17.1888 2.5317 15.6588ZM17.0317 20.7087C16.6517 20.7087 16.2817 20.6788 15.9117 20.6488C16.6217 20.1288 17.1717 19.5188 17.5217 18.8588V20.6988C17.3717 20.7087 17.2017 20.7087 17.0317 20.7087Z" />
        </svg>
    