
        <svg xmlns="http://www.w3.org/2000/svg" viewBox="0 0 100 100">
            <path d="M0.0017 20.8505C0.0017 21.3405 0.3117 21.6405 0.8017 21.6405H24.2817C24.6717 21.6405 25.0117 21.3405 25.0117 20.9305C25.0117 20.5205 24.6717 20.2105 24.2817 20.2105H1.7317C1.5217 20.2105 1.4517 20.1405 1.4517 19.9305V14.2505L6.2817 9.4105C6.4417 9.2505 6.6017 9.1605 6.7517 9.1605C6.9017 9.1605 7.0517 9.2505 7.2317 9.4105L11.7817 13.9805C12.2417 14.4605 12.7117 14.6805 13.2117 14.6805C13.7117 14.6805 14.1817 14.4505 14.6517 13.9805L19.8017 8.7905L21.9217 10.9005C22.2517 11.2305 22.6717 11.0405 22.7917 10.5705L24.3517 3.8505C24.4617 3.4105 24.0917 3.0705 23.6717 3.1805L16.9617 4.7305C16.4917 4.8505 16.3017 5.2705 16.6317 5.6005L18.7217 7.7005L13.6917 12.8105C13.5217 12.9605 13.3717 13.0505 13.2117 13.0505C13.0517 13.0505 12.9017 12.9705 12.7417 12.8105L8.1917 8.2405C7.7117 7.7605 7.2517 7.5305 6.7517 7.5305C6.2617 7.5305 5.8017 7.7505 5.3117 8.2405L1.4517 12.0905V0.7305C1.4517 0.3405 1.1517 0.0005 0.7417 0.0005C0.3117 0.0005 0.0017 0.3405 0.0017 0.7305Z" />
        </svg>
    