
        <svg xmlns="http://www.w3.org/2000/svg" viewBox="0 0 100 100">
            <path d="M11.4923 22.977C17.8323 22.977 22.9823 17.847 22.9823 11.497C22.9823 5.147 17.8323 -0.003 11.4923 -0.003C5.1423 -0.003 0.0023 5.147 0.0023 11.497C0.0023 17.847 5.1423 22.977 11.4923 22.977ZM11.4923 22.087C5.6323 22.087 0.8923 17.357 0.8923 11.497C0.8923 5.717 5.4923 1.027 11.2523 0.907V11.457C11.2523 11.767 11.2923 11.927 11.4823 12.107L18.7023 19.267C16.8123 21.027 14.2823 22.087 11.4923 22.087ZM12.0423 11.177V0.917C15.7723 1.097 18.9823 3.207 20.7223 6.267ZM12.4223 11.907L21.0823 6.987C21.7223 8.357 22.0923 9.877 22.0923 11.497C22.0923 14.287 21.0123 16.827 19.2523 18.717Z" />
        </svg>
    