
        <svg xmlns="http://www.w3.org/2000/svg" viewBox="0 0 100 100">
            <path d="M4.4617 0C1.8717 0 0.4917 1.37 0.4917 3.94V6.22C0.4917 7.03 1.0117 7.55 1.7917 7.55C2.5917 7.55 3.1017 7.03 3.1017 6.22V4.21C3.1017 3.13 3.6517 2.61 4.6917 2.61H24.1517C25.1717 2.61 25.7317 3.13 25.7317 4.21V6.22C25.7317 7.03 26.2517 7.55 27.0317 7.55C27.8417 7.55 28.3517 7.03 28.3517 6.22V3.94C28.3517 1.37 26.9617 0 24.3717 0ZM10.7817 16.51C11.3817 16.51 11.7617 16.2 11.9617 15.47L12.5817 13.61H16.2617L16.8917 15.47C17.0717 16.2 17.4717 16.51 18.0717 16.51C18.7817 16.51 19.2317 16.08 19.2317 15.41C19.2317 15.2 19.1817 14.95 19.0617 14.6L16.2817 6.87C15.9617 5.93 15.3417 5.47 14.4017 5.47C13.4917 5.47 12.8917 5.93 12.5717 6.87L9.7817 14.6C9.6717 14.95 9.6217 15.2 9.6217 15.41C9.6217 16.08 10.0517 16.51 10.7817 16.51ZM13.0917 11.82L14.3517 7.82H14.4817L15.7617 11.82ZM1.7917 12.63C2.7917 12.63 3.6017 11.82 3.6017 10.83C3.6017 9.84 2.7917 9.04 1.7917 9.04C0.8117 9.04 0.0017 9.84 0.0017 10.83C0.0017 11.82 0.8117 12.63 1.7917 12.63ZM27.0317 12.63C28.0217 12.63 28.8317 11.82 28.8317 10.83C28.8317 9.84 28.0217 9.04 27.0317 9.04C26.0517 9.04 25.2417 9.84 25.2417 10.83C25.2417 11.82 26.0517 12.63 27.0317 12.63ZM4.4617 22.1H24.3717C26.9617 22.1 28.3517 20.74 28.3517 18.18V15.47C28.3517 14.66 27.8317 14.14 27.0317 14.14C26.2417 14.14 25.7317 14.66 25.7317 15.47V17.89C25.7317 18.97 25.1717 19.5 24.1517 19.5H4.6917C3.6517 19.5 3.1017 18.97 3.1017 17.89V15.47C3.1017 14.66 2.5917 14.14 1.7917 14.14C1.0117 14.14 0.4917 14.66 0.4917 15.47V18.18C0.4917 20.74 1.8717 22.1 4.4617 22.1Z" />
        </svg>
    