
        <svg xmlns="http://www.w3.org/2000/svg" viewBox="0 0 100 100">
            <path d="M6.6417 17.4634C9.5117 17.4634 11.5517 16.4134 12.5817 14.7634H12.7017C13.7417 16.5034 16.1117 17.6334 18.9517 17.6334C22.3517 17.6334 25.1117 16.4734 26.2417 14.5734C26.4917 14.1434 26.6217 13.7034 26.6217 13.2534C26.6217 11.9634 25.6017 11.2134 24.4317 11.2134C23.7117 11.2134 23.2417 11.4034 22.6217 11.9734C21.4117 13.0734 20.4217 13.5234 19.0317 13.5234C17.2517 13.5234 16.0117 12.2534 16.0117 10.5034V10.1234H24.8317C26.3317 10.1234 27.1617 9.3234 27.1617 7.8734C27.1617 3.3934 23.7517 0.0034 19.1417 0.0034C16.6717 0.0034 14.8617 0.7934 13.7617 1.9834H13.6417C12.6517 0.8834 10.8017 0.0034 8.2117 0.0034C4.5917 0.0034 1.7217 1.3334 1.0617 3.4534C0.9617 3.7634 0.9217 4.0234 0.9217 4.3934C0.9217 5.6434 1.9417 6.5134 3.3417 6.5134C4.2417 6.5134 5.0017 6.2034 5.6917 5.5534C6.7517 4.5034 7.3017 4.2234 8.3317 4.2234C9.6417 4.2234 10.6417 5.0634 10.6417 6.2034V6.9334L6.8917 7.1734C2.3817 7.4634 0.0017 9.2234 0.0017 12.3634C0.0017 15.3534 2.4917 17.4634 6.6417 17.4634ZM16.0917 6.8534C16.2217 5.2934 17.3517 4.2034 18.8517 4.2034C20.4117 4.2034 21.4817 5.2334 21.5817 6.8534ZM7.7217 13.5734C6.5317 13.5734 5.5517 12.9034 5.5517 11.9534C5.5517 11.0634 6.4017 10.4834 7.6517 10.3934L10.6417 10.1734V11.2734C10.6417 12.5034 9.3017 13.5734 7.7217 13.5734Z" />
        </svg>
    