
        <svg xmlns="http://www.w3.org/2000/svg" viewBox="0 0 100 100">
            <path d="M3.9717 22.1117H18.1317C20.7317 22.1117 22.1017 20.7417 22.1017 18.1717V3.9417C22.1017 1.3717 20.7317 0.0017 18.1317 0.0017H3.9717C1.3817 0.0017 0.0017 1.3717 0.0017 3.9417V18.1717C0.0017 20.7417 1.3817 22.1117 3.9717 22.1117ZM4.1917 19.5017C3.1617 19.5017 2.6117 18.9817 2.6117 17.9017V4.2217C2.6117 3.1417 3.1617 2.6117 4.1917 2.6117H17.9217C18.9217 2.6117 19.5017 3.1417 19.5017 4.2217V17.9017C19.5017 18.9817 18.9217 19.5017 17.9217 19.5017ZM7.4217 16.5217C8.0117 16.5217 8.4017 16.2117 8.5917 15.4817L9.2217 13.6217H12.9017L13.5217 15.4817C13.7117 16.2117 14.1117 16.5217 14.7117 16.5217C15.4217 16.5217 15.8717 16.0917 15.8717 15.4217C15.8717 15.2117 15.8117 14.9617 15.6917 14.6117L12.9117 6.8817C12.5817 5.9417 11.9617 5.4817 11.0417 5.4817C10.1217 5.4817 9.5317 5.9417 9.2117 6.8817L6.4217 14.6117C6.3017 14.9617 6.2617 15.2117 6.2617 15.4217C6.2617 16.0917 6.6917 16.5217 7.4217 16.5217ZM9.7217 11.8317L10.9917 7.8317H11.1217L12.4017 11.8317Z" />
        </svg>
    