
        <svg xmlns="http://www.w3.org/2000/svg" viewBox="0 0 100 100">
            <path d="M0.0017 22.0225C0.0017 22.7025 0.4417 23.1425 1.1217 23.1425H24.8917C25.7417 23.1425 26.4217 22.5225 26.4217 21.6425C26.4217 20.7525 25.7417 20.1325 24.8917 20.1325H3.3417C3.1217 20.1325 3.0217 20.0225 3.0217 19.8025V13.4225L7.5117 10.8325C7.9417 11.1725 8.4917 11.3825 9.0917 11.3825C9.5717 11.3825 10.0217 11.2525 10.4017 11.0125L12.5717 12.8325C12.5317 13.0325 12.4917 13.2325 12.4917 13.4525C12.4917 14.8325 13.6217 15.9525 15.0017 15.9525C16.3817 15.9525 17.5117 14.8325 17.5117 13.4525C17.5117 13.3725 17.4917 13.2925 17.4917 13.2225L22.5117 10.1925C22.8917 10.4225 23.3317 10.5425 23.8017 10.5425C25.1817 10.5425 26.3117 9.4225 26.3117 8.0425C26.3117 6.6525 25.1817 5.5425 23.8017 5.5425C22.4217 5.5425 21.2917 6.6525 21.2917 8.0425C21.2917 8.1525 21.3017 8.2625 21.3117 8.3525L16.3617 11.3425C15.9717 11.1025 15.5017 10.9425 15.0017 10.9425C14.6217 10.9425 14.2617 11.0225 13.9417 11.1825L11.5817 9.2025C11.5917 9.0925 11.6017 8.9925 11.6017 8.8825C11.6017 7.5025 10.4717 6.3725 9.0917 6.3725C7.7217 6.3725 6.6217 7.4625 6.5817 8.8325L3.0217 10.9025V1.5325C3.0217 0.6825 2.3917 0.0025 1.5117 0.0025C0.6317 0.0025 0.0017 0.6825 0.0017 1.5325Z" />
        </svg>
    