
        <svg xmlns="http://www.w3.org/2000/svg" viewBox="0 0 100 100">
            <path d="M12.1023 24.2064C18.7823 24.2064 24.2123 18.7864 24.2123 12.1064C24.2123 5.4264 18.7823 -0.0036 12.1023 -0.0036C5.4223 -0.0036 0.0023 5.4264 0.0023 12.1064C0.0023 18.7864 5.4223 24.2064 12.1023 24.2064ZM12.1023 21.8164C6.7223 21.8164 2.3823 17.4864 2.3823 12.1064C2.3823 7.0464 6.2423 2.8964 11.1823 2.4264V12.3564C11.1823 12.6664 11.2723 12.8864 11.4923 13.1164L18.2123 19.6664C16.5423 21.0264 14.4223 21.8164 12.1023 21.8164ZM13.0423 10.9264V2.4264C16.0623 2.7164 18.6823 4.3864 20.2523 6.7964ZM13.8123 12.6364L21.1123 8.4464C21.5723 9.5764 21.8323 10.8164 21.8323 12.1064C21.8323 14.4764 20.9923 16.6364 19.5823 18.3164Z" />
        </svg>
    