
        <svg xmlns="http://www.w3.org/2000/svg" viewBox="0 0 100 100">
            <path d="M12.7923 25.5961C19.8723 25.5961 25.6023 19.8661 25.6023 12.7961C25.6023 5.7261 19.8723 -0.0039 12.7923 -0.0039C5.7323 -0.0039 0.0023 5.7261 0.0023 12.7961C0.0023 19.8661 5.7323 25.5961 12.7923 25.5961ZM6.4023 16.8861V8.1361C6.4023 7.4861 6.8623 7.0161 7.4923 7.0161C8.1023 7.0161 8.5523 7.5161 8.5523 8.1361V11.5861L9.3023 10.8261C9.6323 10.4961 9.9623 10.2961 10.3323 10.2961C10.7223 10.2961 11.0823 10.4761 11.4023 10.8261L12.9623 12.5061C13.0123 12.5461 13.0523 12.5461 13.0923 12.5061L14.8323 10.6761L14.3423 10.1861C13.8723 9.7261 14.1023 8.9961 14.7623 8.8261L17.8923 7.9961C18.5023 7.8261 19.1023 8.3861 18.9223 9.0261L18.0823 12.1261C17.9023 12.7861 17.1523 13.0161 16.7123 12.5761L16.1623 12.0261L14.1023 14.1461C13.7323 14.4761 13.3823 14.6361 13.0223 14.6361C12.6323 14.6361 12.2923 14.4761 11.9623 14.1461L10.4023 12.4461C10.3723 12.3961 10.3223 12.3961 10.2823 12.4461L8.5523 14.2761V15.9961C8.5523 16.0761 8.6023 16.1261 8.6723 16.1261H17.9023C18.5323 16.1261 18.9923 16.5961 18.9923 17.2161C18.9923 17.8261 18.5323 18.2961 17.9023 18.2961H7.7923C6.9523 18.2961 6.4023 17.7261 6.4023 16.8861Z" />
        </svg>
    