
        <svg xmlns="http://www.w3.org/2000/svg" viewBox="0 0 100 100">
            <path d="M5.4723 22.4171H8.4123C8.7023 22.4171 8.9023 22.4871 9.1123 22.6971L11.2123 24.7671C12.3523 25.9071 13.2523 25.8971 14.3923 24.7671L16.4923 22.6971C16.7023 22.4871 16.9023 22.4171 17.1923 22.4171H20.1323C21.7423 22.4171 22.3923 21.7571 22.3923 20.1371V17.1971C22.3923 16.9171 22.4723 16.7071 22.6723 16.4971L24.7623 14.4071C25.8823 13.2571 25.8823 12.3671 24.7623 11.2171L22.6723 9.1371C22.4723 8.9271 22.3923 8.7171 22.3923 8.4271V5.4871C22.3923 3.8771 21.7423 3.2271 20.1323 3.2271H17.1923C16.9023 3.2271 16.7023 3.1471 16.4923 2.9371L14.3923 0.8571C13.2423 -0.2829 12.3523 -0.2829 11.2023 0.8571L9.1123 2.9371C8.9223 3.1371 8.7023 3.2271 8.4123 3.2271H5.4723C3.8623 3.2271 3.2123 3.8771 3.2123 5.4871V8.4271C3.2123 8.7171 3.1323 8.9271 2.9223 9.1371L0.8423 11.2171C-0.2777 12.3671 -0.2777 13.2571 0.8423 14.4071L2.9223 16.4971C3.1323 16.7071 3.2123 16.9171 3.2123 17.1971V20.1371C3.2123 21.7571 3.8623 22.4171 5.4723 22.4171ZM5.4723 21.5471C4.3623 21.5471 4.0823 21.2671 4.0823 20.1371V16.8671C4.0823 16.5571 3.9823 16.3171 3.7623 16.1071L1.4523 13.7971C0.6523 12.9971 0.6523 12.6271 1.4523 11.8271L3.7623 9.5171C3.9823 9.3071 4.0823 9.0771 4.0823 8.7571V5.4871C4.0823 4.3571 4.3523 4.0871 5.4723 4.0871H8.7423C9.0623 4.0871 9.2923 3.9971 9.5123 3.7771L11.8223 1.4671C12.6123 0.6771 12.9823 0.6771 13.7823 1.4671L16.0923 3.7771C16.3123 3.9971 16.5423 4.0871 16.8523 4.0871H20.1323C21.2423 4.0871 21.5323 4.3671 21.5323 5.4871V8.7571C21.5323 9.0771 21.6223 9.3071 21.8423 9.5171L24.1523 11.8271C24.9423 12.6271 24.9423 12.9971 24.1523 13.7971L21.8423 16.1071C21.6223 16.3171 21.5323 16.5571 21.5323 16.8671V20.1371C21.5323 21.2671 21.2423 21.5471 20.1323 21.5471H16.8523C16.5423 21.5471 16.3123 21.6371 16.0923 21.8471L13.7823 24.1571C12.9823 24.9571 12.6123 24.9571 11.8223 24.1571L9.5123 21.8471C9.2923 21.6371 9.0623 21.5471 8.7423 21.5471ZM11.5523 18.3671C11.7323 18.3671 11.8723 18.2771 11.9923 18.1371L18.1323 8.6071C18.1723 8.5171 18.2323 8.3971 18.2323 8.2871C18.2323 8.0571 18.0123 7.8671 17.8023 7.8671C17.6523 7.8671 17.5123 7.9671 17.4023 8.1171L11.5323 17.2571L8.3123 13.4671C8.1923 13.3171 8.0623 13.2571 7.9023 13.2571C7.6723 13.2571 7.4723 13.4471 7.4723 13.6971C7.4723 13.8271 7.5323 13.9471 7.6123 14.0671L11.1123 18.1371C11.2423 18.2971 11.3623 18.3671 11.5523 18.3671Z" />
        </svg>
    