
        <svg xmlns="http://www.w3.org/2000/svg" viewBox="0 0 100 100">
            <path d="M1.358 16.1902L10.758 25.5902C12.548 27.3802 14.388 27.3902 16.158 25.6102L25.608 16.1602C27.388 14.3802 27.378 12.5402 25.578 10.7502L16.178 1.3502C14.388 -0.4398 12.558 -0.4498 10.778 1.3302L1.318 10.7702C-0.462 12.5502 -0.432 14.3902 1.358 16.1902ZM3.078 14.6602C2.298 13.8802 2.268 13.0702 3.088 12.2602L12.268 3.0902C13.078 2.2802 13.878 2.2902 14.658 3.0702L23.858 12.2702C24.628 13.0602 24.658 13.8702 23.848 14.6802L14.668 23.8502C13.858 24.6602 13.038 24.6402 12.268 23.8602ZM12.218 19.0402C12.648 19.0402 13.008 18.8202 13.248 18.4502L18.488 10.2602C18.648 10.0102 18.788 9.7302 18.788 9.4602C18.788 8.8902 18.268 8.5002 17.718 8.5002C17.368 8.5002 17.048 8.6902 16.808 9.0902L12.178 16.5202L9.998 13.7402C9.718 13.3802 9.428 13.2502 9.078 13.2502C8.508 13.2502 8.058 13.7002 8.058 14.2902C8.058 14.5702 8.168 14.8302 8.368 15.0702L11.128 18.4502C11.448 18.8602 11.788 19.0402 12.218 19.0402Z" />
        </svg>
    