
        <svg xmlns="http://www.w3.org/2000/svg" viewBox="0 0 100 100">
            <path d="M5.0823 24.5505C6.6723 24.5505 9.9023 22.9605 12.2823 21.2605C20.4523 21.4805 26.5823 16.7905 26.5823 10.6505C26.5823 4.7605 20.6723 0.0005 13.2923 0.0005C5.9023 0.0005 0.0023 4.7605 0.0023 10.6505C0.0023 14.5005 2.4623 17.9105 6.1623 19.6205C5.6323 20.6405 4.6523 22.0205 4.1223 22.7105C3.5023 23.5305 3.8823 24.5505 5.0823 24.5505ZM6.3123 22.6105C6.2223 22.6405 6.1923 22.5705 6.2423 22.4905C6.9023 21.6805 7.8423 20.4605 8.2423 19.7105C8.5623 19.1005 8.4823 18.5605 7.7323 18.2105C4.0523 16.5005 1.9423 13.7705 1.9423 10.6505C1.9423 5.8505 6.9723 1.9305 13.2923 1.9305C19.6123 1.9305 24.6423 5.8505 24.6423 10.6505C24.6423 15.4405 19.6123 19.3605 13.2923 19.3605C13.0523 19.3605 12.6923 19.3505 12.2223 19.3405C11.7323 19.3405 11.3523 19.4905 10.9123 19.8405C9.4723 20.8805 7.3823 22.1705 6.3123 22.6105ZM12.0123 16.3205C12.4023 16.3205 12.7223 16.1405 12.9623 15.7805L18.3123 7.3505C18.4423 7.1205 18.6023 6.8505 18.6023 6.6005C18.6023 6.0805 18.1323 5.7405 17.6523 5.7405C17.3423 5.7405 17.0523 5.9205 16.8323 6.2705L11.9623 14.0705L9.6523 11.0905C9.3723 10.7105 9.1123 10.6005 8.8023 10.6005C8.2823 10.6005 7.8823 11.0205 7.8823 11.5405C7.8823 11.7905 7.9923 12.0505 8.1523 12.2705L11.0123 15.7805C11.3123 16.1705 11.6223 16.3205 12.0123 16.3205Z" />
        </svg>
    