
        <svg xmlns="http://www.w3.org/2000/svg" viewBox="0 0 100 100">
            <path d="M4.1417 22.4041H18.2717C20.9517 22.4041 22.4017 20.9541 22.4017 18.3041V4.1141C22.4017 1.4641 20.9517 0.0041 18.2717 0.0041H4.1417C1.4617 0.0041 0.0017 1.4541 0.0017 4.1141V18.3041C0.0017 20.9541 1.4617 22.4041 4.1417 22.4041ZM9.9817 17.0841C9.4617 17.0841 9.0517 16.8541 8.6717 16.3941L5.9317 13.1141C5.6617 12.7841 5.5417 12.4941 5.5417 12.1541C5.5417 11.4241 6.1317 10.8541 6.8517 10.8541C7.2817 10.8541 7.5917 11.0141 7.9117 11.3941L9.9617 13.9141L14.5217 6.6441C14.8317 6.1541 15.2117 5.9041 15.6717 5.9041C16.3817 5.9041 17.0117 6.4241 17.0117 7.1441C17.0117 7.4441 16.9017 7.7541 16.6917 8.0641L11.2517 16.3841C10.9417 16.8241 10.4917 17.0841 9.9817 17.0841Z" />
        </svg>
    