
        <svg xmlns="http://www.w3.org/2000/svg" viewBox="0 0 100 100">
            <path d="M12.6023 25.1986C19.5623 25.1986 25.2023 19.5586 25.2023 12.5986C25.2023 5.6386 19.5623 -0.0014 12.6023 -0.0014C5.6523 -0.0014 0.0023 5.6386 0.0023 12.5986C0.0023 19.5586 5.6523 25.1986 12.6023 25.1986ZM11.3223 18.5586C10.7323 18.5586 10.2623 18.2886 9.8623 17.8086L7.2223 14.6986C6.8923 14.3186 6.7823 14.0186 6.7823 13.6286C6.7823 12.7986 7.4623 12.1486 8.2723 12.1486C8.7423 12.1486 9.1023 12.3386 9.4323 12.7286L11.2923 14.9386L15.6323 8.0986C15.9923 7.5386 16.4023 7.2386 16.9423 7.2386C17.7523 7.2386 18.4823 7.8386 18.4823 8.6586C18.4823 8.9786 18.3723 9.3286 18.1423 9.6586L12.7223 17.7786C12.4023 18.2686 11.8823 18.5586 11.3223 18.5586Z" />
        </svg>
    