
        <svg xmlns="http://www.w3.org/2000/svg" viewBox="0 0 100 100">
            <path d="M4.7217 9.4563C7.3017 9.4563 9.4417 7.3363 9.4417 4.7263C9.4417 2.1163 7.3017 -0.0038 4.7217 -0.0038C2.1117 -0.0038 0.0017 2.1363 0.0017 4.7263C0.0017 7.3263 2.1117 9.4563 4.7217 9.4563ZM4.7217 8.8863C2.4417 8.8863 0.5717 6.9863 0.5717 4.7263C0.5717 2.4462 2.4517 0.5663 4.7217 0.5663C6.9817 0.5663 8.8817 2.4763 8.8817 4.7263C8.8817 6.9863 6.9817 8.8863 4.7217 8.8863ZM12.5717 5.0262H24.8317C25.0117 5.0262 25.1217 4.9063 25.1217 4.7363C25.1217 4.5563 25.0117 4.4462 24.8317 4.4462H12.5717C12.4017 4.4462 12.2917 4.5563 12.2917 4.7363C12.2917 4.9063 12.4017 5.0262 12.5717 5.0262ZM4.7217 23.4463C7.3017 23.4463 9.4417 21.3263 9.4417 18.7163C9.4417 16.1163 7.3017 13.9963 4.7217 13.9963C2.1117 13.9963 0.0017 16.1263 0.0017 18.7163C0.0017 21.3163 2.1117 23.4463 4.7217 23.4463ZM4.7217 22.8763C2.4417 22.8763 0.5717 20.9763 0.5717 18.7163C0.5717 16.4463 2.4517 14.5563 4.7217 14.5563C6.9817 14.5563 8.8817 16.4663 8.8817 18.7163C8.8817 20.9763 6.9817 22.8763 4.7217 22.8763ZM12.5717 18.9963H24.8317C25.0117 18.9963 25.1217 18.8863 25.1217 18.7163C25.1217 18.5363 25.0117 18.4263 24.8317 18.4263H12.5717C12.4017 18.4263 12.2917 18.5363 12.2917 18.7163C12.2917 18.8863 12.4017 18.9963 12.5717 18.9963Z" />
        </svg>
    