
        <svg xmlns="http://www.w3.org/2000/svg" viewBox="0 0 100 100">
            <path d="M4.7223 23.0839C5.9323 23.0839 8.4523 22.0639 10.5823 20.8439C10.7923 20.7139 10.9423 20.6939 11.1123 20.7039C11.6123 20.7639 12.1123 20.8039 12.6423 20.8039C20.0023 20.8039 25.6023 16.1139 25.6023 10.3839C25.6023 4.6539 19.9423 0.0039 12.7923 0.0039C5.6623 0.0039 0.0023 4.6539 0.0023 10.3839C0.0023 14.0639 2.2623 17.3539 5.7523 19.1239C5.9723 19.2439 6.0223 19.4039 5.9223 19.6239C5.4623 20.4639 4.7023 21.3839 4.2523 21.9239C3.7823 22.4839 3.9423 23.0839 4.7223 23.0839ZM11.5423 16.0039C11.3523 16.0039 11.2223 15.9339 11.0823 15.7739L7.5823 11.6839C7.4923 11.5639 7.4423 11.4339 7.4423 11.3039C7.4423 11.0539 7.6423 10.8639 7.8723 10.8639C8.0423 10.8639 8.1723 10.9239 8.2823 11.0739L11.5223 14.8839L17.4123 5.6839C17.5223 5.5439 17.6723 5.4539 17.8123 5.4539C18.0423 5.4539 18.2623 5.6339 18.2623 5.8739C18.2623 5.9739 18.2123 6.1039 18.1523 6.2039L11.9923 15.7739C11.8723 15.9239 11.7223 16.0039 11.5423 16.0039Z" />
        </svg>
    