
        <svg xmlns="http://www.w3.org/2000/svg" viewBox="0 0 100 100">
            <path d="M3.9717 22.1117H18.1317C20.7317 22.1117 22.1017 20.7417 22.1017 18.1717V3.9417C22.1017 1.3717 20.7317 0.0017 18.1317 0.0017H3.9717C1.3817 0.0017 0.0017 1.3717 0.0017 3.9417V18.1717C0.0017 20.7417 1.3817 22.1117 3.9717 22.1117ZM4.1917 19.5017C3.1617 19.5017 2.6117 18.9817 2.6117 17.9017V4.2217C2.6117 3.1417 3.1617 2.6117 4.1917 2.6117H17.9217C18.9217 2.6117 19.5017 3.1417 19.5017 4.2217V17.9017C19.5017 18.9817 18.9217 19.5017 17.9217 19.5017ZM9.8217 16.6317C10.2617 16.6317 10.6517 16.3917 10.9117 15.9917L16.0617 7.9917C16.2317 7.7317 16.3717 7.4417 16.3717 7.1717C16.3717 6.5417 15.8117 6.1217 15.2117 6.1217C14.8217 6.1217 14.4817 6.3317 14.2217 6.7517L9.7717 13.9017L7.7017 11.2817C7.4017 10.9217 7.1117 10.7817 6.7517 10.7817C6.1317 10.7817 5.6417 11.2717 5.6417 11.9017C5.6417 12.2017 5.7417 12.4717 5.9617 12.7417L8.6617 16.0117C9.0017 16.4217 9.3517 16.6317 9.8217 16.6317Z" />
        </svg>
    