
        <svg xmlns="http://www.w3.org/2000/svg" viewBox="0 0 100 100">
            <path d="M3.1617 20.742H24.0317C26.1117 20.742 27.1917 19.642 27.1917 17.592V3.152C27.1917 1.102 26.1117 0.002 24.0317 0.002H3.1617C1.0917 0.002 0.0017 1.082 0.0017 3.152V17.592C0.0017 19.662 1.0917 20.742 3.1617 20.742ZM3.1917 19.872C1.6617 19.872 0.8717 19.082 0.8717 17.552V3.202C0.8717 1.662 1.6617 0.872 3.1917 0.872H24.0017C25.4717 0.872 26.3217 1.662 26.3217 3.202V17.552C26.3217 19.082 25.4717 19.872 24.0017 19.872ZM12.3517 15.942C12.5317 15.942 12.6717 15.842 12.7817 15.702L18.9217 6.172C18.9717 6.082 19.0317 5.952 19.0317 5.862C19.0317 5.622 18.8217 5.442 18.6017 5.442C18.4417 5.442 18.3017 5.532 18.2017 5.682L12.3317 14.822L9.1017 11.042C8.9917 10.882 8.8617 10.832 8.7117 10.832C8.4717 10.832 8.2717 11.012 8.2717 11.262C8.2717 11.392 8.3317 11.512 8.4117 11.622L11.9017 15.702C12.0517 15.872 12.1617 15.942 12.3517 15.942Z" />
        </svg>
    