
        <svg xmlns="http://www.w3.org/2000/svg" viewBox="0 0 100 100">
            <path d="M7.2817 24.7242C7.7717 24.7242 8.1317 24.4942 8.7217 23.9642L13.0117 20.0842H20.7517C24.2717 20.0842 26.2517 18.0742 26.2517 14.5942V5.4942C26.2517 2.0142 24.2717 0.0042 20.7517 0.0042H5.5117C1.9817 0.0042 0.0017 2.0142 0.0017 5.4942V14.5942C0.0017 18.0742 2.0317 20.0842 5.4217 20.0842H6.1617V23.4642C6.1617 24.2342 6.5717 24.7242 7.2817 24.7242ZM11.8217 15.8242C11.3817 15.8242 11.0317 15.6342 10.6917 15.1942L7.8117 11.7042C7.6217 11.4442 7.5017 11.1642 7.5017 10.8742C7.5017 10.2742 7.9817 9.7842 8.5817 9.7842C8.9417 9.7842 9.2317 9.9242 9.5317 10.3042L11.7917 13.1742L16.6317 5.4142C16.8917 5.0142 17.2117 4.8042 17.5817 4.8042C18.1617 4.8042 18.7017 5.2142 18.7017 5.8242C18.7017 6.0942 18.5617 6.3842 18.4017 6.6542L12.9117 15.1942C12.6417 15.6142 12.2717 15.8242 11.8217 15.8242Z" />
        </svg>
    