
        <svg xmlns="http://www.w3.org/2000/svg" viewBox="0 0 100 100">
            <path d="M7.5517 24.6642C8.2017 24.6642 8.6817 24.3542 9.4917 23.6442L13.5117 20.0842H20.7517C24.2717 20.0842 26.2517 18.0742 26.2517 14.5942V5.4942C26.2517 2.0142 24.2717 0.0042 20.7517 0.0042H5.5117C1.9817 0.0042 0.0017 2.0142 0.0017 5.4942V14.5942C0.0017 18.0742 2.0317 20.0842 5.4217 20.0842H6.0617V22.9842C6.0617 24.0242 6.6117 24.6642 7.5517 24.6642ZM8.1117 22.0942V18.7542C8.1117 18.0542 7.8317 17.7842 7.1617 17.7842H5.5617C3.3517 17.7842 2.3017 16.6742 2.3017 14.5242V5.5642C2.3017 3.4142 3.3517 2.2942 5.5617 2.2942H20.6817C22.8917 2.2942 23.9517 3.4142 23.9517 5.5642V14.5242C23.9517 16.6742 22.8917 17.7842 20.6817 17.7842H13.3817C12.6717 17.7842 12.3317 17.9042 11.8217 18.4242ZM11.8717 15.6142C12.2917 15.6142 12.6517 15.4142 12.9017 15.0242L18.1517 6.8342C18.3017 6.5842 18.4417 6.3042 18.4417 6.0442C18.4417 5.4642 17.9217 5.0742 17.3817 5.0742C17.0317 5.0742 16.7017 5.2742 16.4617 5.6642L11.8317 13.0942L9.6517 10.3142C9.3717 9.9442 9.0817 9.8242 8.7417 9.8242C8.1717 9.8242 7.7217 10.2842 7.7217 10.8642C7.7217 11.1442 7.8317 11.4042 8.0117 11.6442L10.7917 15.0342C11.1117 15.4342 11.4517 15.6142 11.8717 15.6142Z" />
        </svg>
    