
        <svg xmlns="http://www.w3.org/2000/svg" viewBox="0 0 100 100">
            <path d="M3.6817 21.5722H23.9517C26.4117 21.5722 27.6317 20.3722 27.6317 17.9522V3.6322C27.6317 1.2222 26.4117 0.0022 23.9517 0.0022H3.6817C1.2317 0.0022 0.0017 1.2222 0.0017 3.6322V17.9522C0.0017 20.3722 1.2317 21.5722 3.6817 21.5722ZM12.5117 16.5222C12.1017 16.5222 11.7917 16.3622 11.4717 15.9522L8.5417 12.3422C8.3517 12.1022 8.2617 11.8522 8.2617 11.5822C8.2617 11.0522 8.6617 10.6122 9.2017 10.6122C9.5317 10.6122 9.8017 10.7222 10.0817 11.1122L12.4717 14.1822L17.4717 6.1422C17.6817 5.7922 17.9917 5.6022 18.3017 5.6022C18.8217 5.6022 19.3017 5.9522 19.3017 6.5022C19.3017 6.7622 19.1517 7.0322 19.0117 7.2822L13.4917 15.9522C13.2517 16.3322 12.9117 16.5222 12.5117 16.5222Z" />
        </svg>
    