
        <svg xmlns="http://www.w3.org/2000/svg" viewBox="0 0 100 100">
            <path d="M7.8017 25.0034C8.5217 25.0034 9.0717 24.6834 9.9517 23.9034L13.9417 20.3934H20.9617C24.5117 20.3934 26.5817 18.2934 26.5817 14.7934V5.6134C26.5817 2.0934 24.5117 0.0034 20.9617 0.0034H5.6017C2.0617 0.0034 0.0017 2.0934 0.0017 5.6134V14.7934C0.0017 18.3034 2.1417 20.3934 5.4717 20.3934H6.1517V23.1634C6.1517 24.3034 6.7717 25.0034 7.8017 25.0034ZM8.4417 22.1034V18.7934C8.4417 18.0634 8.1117 17.7734 7.4317 17.7734H5.7217C3.6217 17.7734 2.6117 16.7234 2.6117 14.6734V5.7334C2.6117 3.6634 3.6217 2.6134 5.7217 2.6134H20.8517C22.9417 2.6134 23.9617 3.6634 23.9617 5.7334V14.6734C23.9617 16.7234 22.9417 17.7734 20.8517 17.7734H13.7717C13.0217 17.7734 12.6717 17.9134 12.1317 18.4534ZM12.0517 15.7734C12.4917 15.7734 12.8917 15.5534 13.1517 15.1534L18.3017 7.1334C18.4717 6.8834 18.6017 6.5834 18.6017 6.3134C18.6017 5.6934 18.0517 5.2634 17.4517 5.2634C17.0617 5.2634 16.7217 5.4734 16.4617 5.9034L12.0117 13.0434L9.9217 10.4334C9.6417 10.0634 9.3517 9.9334 8.9917 9.9334C8.3717 9.9334 7.8717 10.4334 7.8717 11.0534C7.8717 11.3534 7.9817 11.6134 8.1917 11.8934L10.9017 15.1634C11.2217 15.5734 11.5917 15.7734 12.0517 15.7734Z" />
        </svg>
    