
        <svg xmlns="http://www.w3.org/2000/svg" viewBox="0 0 100 100">
            <path d="M12.3723 26.7716C19.2023 26.7716 24.7523 21.2216 24.7523 14.4016C24.7523 8.4716 20.5823 3.5116 15.0323 2.3216V0.9216C15.0323 -0.0184 14.2423 -0.2484 13.5723 0.2716L9.6923 3.1616C9.1923 3.5216 9.2023 4.1516 9.6923 4.5216L13.5823 7.4016C14.2423 7.9116 15.0323 7.6716 15.0323 6.7516V5.5216C18.8623 6.6416 21.6723 10.1716 21.6723 14.4016C21.6723 19.5316 17.5223 23.6916 12.3723 23.6916C7.2423 23.6916 3.0823 19.5316 3.0823 14.4016C3.0823 11.5916 4.3123 9.1516 6.3123 7.4116C6.9823 6.7516 7.2023 5.8416 6.6023 5.1316C6.0423 4.4816 5.0623 4.3916 4.2823 5.1316C1.5823 7.4416 0.0023 10.8116 0.0023 14.4016C0.0023 21.2216 5.5423 26.7716 12.3723 26.7716ZM11.1523 19.9816C11.6323 19.9816 12.0623 19.7316 12.3423 19.3116L17.3823 11.5416C17.5623 11.2616 17.6823 10.9716 17.6823 10.6816C17.6823 9.9916 17.0723 9.5116 16.4223 9.5116C15.9823 9.5116 15.6223 9.7516 15.3323 10.2216L11.1223 16.9916L9.1723 14.5916C8.8823 14.2216 8.5623 14.0716 8.1723 14.0716C7.4923 14.0716 6.9423 14.6116 6.9423 15.2916C6.9423 15.6216 7.0523 15.9016 7.3023 16.2016L9.9123 19.3316C10.2623 19.7516 10.6523 19.9816 11.1523 19.9816Z" />
        </svg>
    