
        <svg xmlns="http://www.w3.org/2000/svg" viewBox="0 0 100 100">
            <path d="M3.4617 21.2264H17.7617C20.0517 21.2264 21.2217 20.0464 21.2217 17.7964V3.4264C21.2217 1.1764 20.0517 -0.0036 17.7617 -0.0036H3.4617C1.1717 -0.0036 0.0017 1.1564 0.0017 3.4264V17.7964C0.0017 20.0664 1.1717 21.2264 3.4617 21.2264ZM9.3317 16.2764C9.0117 16.2764 8.7817 16.1464 8.5417 15.8464L5.3517 12.0364C5.2117 11.8464 5.1317 11.6464 5.1317 11.4364C5.1317 11.0264 5.4617 10.6964 5.8617 10.6964C6.1217 10.6964 6.3317 10.7964 6.5417 11.0764L9.2917 14.4564L14.6817 5.9264C14.8517 5.6564 15.0817 5.5064 15.3317 5.5064C15.7117 5.5064 16.0817 5.7864 16.0817 6.2064C16.0817 6.3964 15.9717 6.6064 15.8717 6.7864L10.0817 15.8464C9.8917 16.1364 9.6317 16.2764 9.3317 16.2764Z" />
        </svg>
    