
        <svg xmlns="http://www.w3.org/2000/svg" viewBox="0 0 100 100">
            <path d="M6.5617 23.7403C6.9417 23.7403 7.2117 23.5403 7.6317 23.1603L11.8717 19.3703H20.4617C23.6417 19.3703 25.4417 17.5303 25.4417 14.4003V4.9803C25.4417 1.8403 23.6417 0.0003 20.4617 0.0003H4.9817C1.8017 0.0003 0.0017 1.8303 0.0017 4.9803V14.4003C0.0017 17.5403 1.8017 19.3703 4.9817 19.3703H5.7217V22.7703C5.7217 23.3603 6.0317 23.7403 6.5617 23.7403ZM11.4417 15.3503C11.1217 15.3503 10.8917 15.2303 10.6517 14.9303L7.4617 11.1103C7.3217 10.9203 7.2417 10.7203 7.2417 10.5103C7.2417 10.1003 7.5717 9.7703 7.9717 9.7703C8.2217 9.7703 8.4417 9.8703 8.6517 10.1503L11.4017 13.5303L16.7917 5.0003C16.9617 4.7303 17.1917 4.5903 17.4417 4.5903C17.8217 4.5903 18.2017 4.8703 18.2017 5.2803C18.2017 5.4703 18.0817 5.6803 17.9717 5.8603L12.1917 14.9303C12.0017 15.2103 11.7417 15.3503 11.4417 15.3503Z" />
        </svg>
    