
        <svg xmlns="http://www.w3.org/2000/svg" viewBox="0 0 100 100">
            <path d="M12.2223 24.4436C18.9723 24.4436 24.4423 18.9736 24.4423 12.2236C24.4423 5.4736 18.9723 0.0036 12.2223 0.0036C5.4723 0.0036 0.0023 5.4736 0.0023 12.2236C0.0023 18.9736 5.4723 24.4436 12.2223 24.4436ZM12.2223 21.7636C6.9523 21.7636 2.6823 17.4936 2.6823 12.2236C2.6823 6.9536 6.9523 2.6836 12.2223 2.6836C17.4923 2.6836 21.7623 6.9536 21.7623 12.2236C21.7623 17.4936 17.4923 21.7636 12.2223 21.7636ZM10.9723 17.8036C11.4123 17.8036 11.8123 17.5636 12.0723 17.1636L17.2223 9.1636C17.3923 8.9036 17.5223 8.6136 17.5223 8.3436C17.5223 7.7136 16.9723 7.2936 16.3723 7.2936C15.9823 7.2936 15.6423 7.5036 15.3823 7.9236L10.9323 15.0736L8.8523 12.4536C8.5623 12.0936 8.2723 11.9536 7.9123 11.9536C7.2923 11.9536 6.7823 12.4436 6.7823 13.0736C6.7823 13.3736 6.9023 13.6436 7.1123 13.9136L9.8223 17.1836C10.1523 17.5936 10.5123 17.8036 10.9723 17.8036Z" />
        </svg>
    