
        <svg xmlns="http://www.w3.org/2000/svg" viewBox="0 0 100 100">
            <path d="M5.0117 1.9764H20.1217C20.0017 0.7364 19.1617 -0.0036 17.8517 -0.0036H7.3017C5.9917 -0.0036 5.1317 0.7364 5.0117 1.9764ZM2.7517 5.9764H22.3917C22.2617 4.6664 21.4717 3.8164 19.9017 3.8164H5.2417C3.6717 3.8164 2.8817 4.6664 2.7517 5.9764ZM4.4217 28.6864H20.7217C23.5217 28.6864 25.1517 27.0664 25.1517 24.2664V12.3864C25.1517 9.6064 23.5217 7.9764 20.7217 7.9764H4.4217C1.6317 7.9764 0.0017 9.6064 0.0017 12.3864V24.2664C0.0017 27.0664 1.6317 28.6864 4.4217 28.6864ZM11.3017 24.3764C10.6617 24.3764 10.1517 24.0564 9.7117 23.5664L7.1617 20.6164C6.8017 20.1864 6.6817 19.8664 6.6817 19.4364C6.6817 18.5164 7.4417 17.7964 8.3417 17.7964C8.8617 17.7964 9.2417 18.0264 9.5817 18.3964L11.3017 20.3564L15.4217 13.8764C15.8217 13.2564 16.2817 12.9264 16.8917 12.9264C17.7917 12.9264 18.5817 13.6064 18.5817 14.5064C18.5817 14.8364 18.4917 15.2064 18.2317 15.5764L12.8517 23.5264C12.4817 24.0464 11.9217 24.3764 11.3017 24.3764Z" />
        </svg>
    