
        <svg xmlns="http://www.w3.org/2000/svg" viewBox="0 0 100 100">
            <path d="M1.3109 15.8816L10.7009 25.2716C12.4309 27.0016 14.1509 27.0116 15.8709 25.3016L25.3009 15.8616C27.0109 14.1416 27.0009 12.4216 25.2709 10.6916L15.8909 1.3116C14.1609 -0.4184 12.4509 -0.4484 10.7209 1.2816L1.2809 10.7116C-0.4391 12.4316 -0.4191 14.1416 1.3109 15.8816ZM11.9909 19.0216C11.5809 19.0216 11.2609 18.8616 10.9509 18.4516L8.0209 14.8416C7.8309 14.6016 7.7409 14.3416 7.7409 14.0716C7.7409 13.5516 8.1309 13.1116 8.6709 13.1116C9.0009 13.1116 9.2709 13.2216 9.5509 13.6116L11.9409 16.6816L16.9509 8.6416C17.1609 8.2916 17.4609 8.1016 17.7809 8.1016C18.2909 8.1016 18.7709 8.4516 18.7709 9.0016C18.7709 9.2616 18.6209 9.5316 18.4809 9.7716L12.9609 18.4516C12.7309 18.8316 12.3909 19.0216 11.9909 19.0216Z" />
        </svg>
    