
        <svg xmlns="http://www.w3.org/2000/svg" viewBox="0 0 100 100">
            <path d="M1.5508 17.549L11.0308 27.029C13.0908 29.089 15.4908 29.089 17.5408 27.039L27.0408 17.549C29.1008 15.479 29.0908 13.089 27.0408 11.029L17.5408 1.539C15.4908 -0.511 13.0908 -0.511 11.0408 1.539L1.5408 11.029C-0.5092 13.089 -0.5092 15.479 1.5508 17.549ZM4.9508 15.039C4.4308 14.519 4.3808 14.089 4.9508 13.529L13.5408 4.939C14.1008 4.369 14.5308 4.419 15.0508 4.939L23.6408 13.529C24.1508 14.039 24.2008 14.489 23.6408 15.039L15.0508 23.639C14.4908 24.189 14.0508 24.159 13.5408 23.639ZM13.1108 19.889C13.6908 19.889 14.2308 19.589 14.5608 19.089L19.2708 11.989C19.5008 11.649 19.5908 11.309 19.5908 11.019C19.5908 10.159 18.8608 9.539 18.0208 9.539C17.4608 9.539 17.0208 9.819 16.6508 10.419L13.1108 16.159L11.5208 14.349C11.2008 13.999 10.8508 13.789 10.3808 13.789C9.5308 13.789 8.8208 14.459 8.8208 15.309C8.8208 15.709 8.9408 15.999 9.2708 16.399L11.6508 19.139C12.0508 19.599 12.5208 19.889 13.1108 19.889Z" />
        </svg>
    