
        <svg xmlns="http://www.w3.org/2000/svg" viewBox="0 0 100 100">
            <path d="M0.0017 21.5306C0.0017 24.0606 1.3017 25.3706 3.8117 25.3706H16.2917C18.8017 25.3706 20.1017 24.0606 20.1017 21.5306V3.8406C20.1017 1.3206 18.8017 0.0006 16.2917 0.0006H3.8117C1.3017 0.0006 0.0017 1.3206 0.0017 3.8406ZM2.3017 21.3906V3.9806C2.3017 2.8906 2.8617 2.3006 3.9917 2.3006H16.0917C17.2217 2.3006 17.8017 2.8906 17.8017 3.9806V21.3906C17.8017 22.4806 17.2217 23.0706 16.0917 23.0706H3.9917C2.8617 23.0706 2.3017 22.4806 2.3017 21.3906ZM8.8017 18.2506C9.2217 18.2506 9.5817 18.0306 9.8317 17.6606L15.0717 9.4706C15.2217 9.2206 15.3617 8.9406 15.3617 8.6706C15.3617 8.1006 14.8517 7.7106 14.3017 7.7106C13.9417 7.7106 13.6317 7.9006 13.3817 8.3006L8.7517 15.7306L6.5717 12.9506C6.2917 12.5906 6.0117 12.4606 5.6617 12.4606C5.0817 12.4606 4.6417 12.9106 4.6417 13.5006C4.6417 13.7806 4.7417 14.0406 4.9417 14.2806L7.7117 17.6606C8.0317 18.0706 8.3717 18.2506 8.8017 18.2506Z" />
        </svg>
    