
        <svg xmlns="http://www.w3.org/2000/svg" viewBox="0 0 100 100">
            <path d="M14.0317 22.7727C14.9317 23.0127 15.7617 22.5327 16.0417 21.6227L21.7617 2.0227C22.0117 1.1627 21.5717 0.3227 20.6717 0.0727C19.7817 -0.1773 18.9717 0.2327 18.6917 1.2227L12.9917 20.7327C12.7217 21.6527 13.1017 22.5127 14.0317 22.7727ZM34.6617 11.4027C34.6617 10.9427 34.4617 10.4727 34.0617 10.1227L26.6817 3.4427C25.9617 2.8027 24.9917 2.8227 24.3917 3.5027C23.7817 4.1927 23.8317 5.1527 24.5417 5.7927L30.7417 11.4027L24.5417 17.0127C23.8317 17.6327 23.7817 18.6127 24.3917 19.2927C24.9917 19.9727 25.9617 19.9927 26.6817 19.3427L34.0617 12.6827C34.4617 12.3227 34.6617 11.8627 34.6617 11.4027ZM0.0017 11.4027C0.0017 11.8627 0.2017 12.3227 0.6017 12.6827L7.9917 19.3427C8.7117 19.9927 9.6717 19.9727 10.2817 19.2927C10.8917 18.6127 10.8317 17.6327 10.1217 17.0127L3.9217 11.4027L10.1217 5.7927C10.8317 5.1527 10.8917 4.1927 10.2817 3.5027C9.6717 2.8227 8.7117 2.8027 7.9917 3.4427L0.6017 10.1227C0.2017 10.4727 0.0017 10.9427 0.0017 11.4027Z" />
        </svg>
    