
        <svg xmlns="http://www.w3.org/2000/svg" viewBox="0 0 100 100">
            <path d="M11.4923 22.977C17.8123 22.977 22.9823 17.827 22.9823 11.497C22.9823 5.167 17.8123 -0.003 11.4923 -0.003C5.1723 -0.003 0.0023 5.167 0.0023 11.497C0.0023 17.827 5.1723 22.977 11.4923 22.977ZM5.7323 14.097C5.5523 13.937 5.5423 13.677 5.7423 13.477L10.9423 8.117C11.2823 7.767 11.6723 7.757 12.0223 8.117L17.2423 13.477C17.4423 13.677 17.4223 13.937 17.2523 14.097C17.0823 14.277 16.7923 14.277 16.6323 14.087L11.4823 8.827L6.3523 14.087C6.1723 14.277 5.8923 14.277 5.7323 14.097Z" />
        </svg>
    