
        <svg xmlns="http://www.w3.org/2000/svg" viewBox="0 0 100 100">
            <path d="M9.6317 20.0345C9.8317 20.2345 10.0917 20.3545 10.3917 20.3545C11.0017 20.3545 11.4617 19.8945 11.4617 19.2845C11.4617 18.9945 11.3417 18.7245 11.1517 18.5245L2.6217 10.1845L11.1517 1.8445C11.3417 1.6445 11.4617 1.3545 11.4617 1.0745C11.4617 0.4645 11.0017 0.0045 10.3917 0.0045C10.0917 0.0045 9.8317 0.1145 9.6317 0.3145L0.3517 9.3945C0.1317 9.5845 0.0017 9.8745 0.0017 10.1845C0.0017 10.4745 0.1217 10.7445 0.3417 10.9645ZM20.1017 20.0345C20.3017 20.2345 20.5617 20.3545 20.8617 20.3545C21.4717 20.3545 21.9417 19.8945 21.9417 19.2845C21.9417 18.9945 21.8117 18.7245 21.6217 18.5245L13.1017 10.1845L21.6217 1.8445C21.8117 1.6445 21.9417 1.3545 21.9417 1.0745C21.9417 0.4645 21.4717 0.0045 20.8617 0.0045C20.5617 0.0045 20.3117 0.1145 20.1017 0.3145L10.8117 9.3945C10.5917 9.5845 10.4617 9.8745 10.4617 10.1845C10.4617 10.4745 10.5917 10.7445 10.8117 10.9645Z" />
        </svg>
    