
        <svg xmlns="http://www.w3.org/2000/svg" viewBox="0 0 100 100">
            <path d="M0.0017 19.5352C0.0017 20.9752 1.2517 22.1452 2.6917 22.1452C3.3017 22.1452 3.8317 22.0352 4.5017 21.4352L13.6317 13.1752C14.2017 12.6752 14.4917 12.1552 14.5817 11.5152V19.5952C14.5817 21.0952 15.6817 22.1452 17.0817 22.1452C18.4617 22.1452 19.5817 21.0952 19.5817 19.5952V2.5452C19.5817 1.0452 18.4917 -0.0048 17.0817 -0.0048C15.6817 -0.0048 14.5817 1.0452 14.5817 2.5452V10.6252C14.4917 9.9952 14.2017 9.4652 13.6317 8.9652L4.5017 0.7152C3.8317 0.1152 3.3017 -0.0048 2.6917 -0.0048C1.2517 -0.0048 0.0017 1.1552 0.0017 2.6152C0.0017 3.4552 0.3517 4.1252 0.9017 4.6052L8.1517 11.0752L0.9017 17.5452C0.3617 18.0252 0.0017 18.6752 0.0017 19.5352Z" />
        </svg>
    