
        <svg xmlns="http://www.w3.org/2000/svg" viewBox="0 0 100 100">
            <path d="M11.7523 23.5048C18.2423 23.5048 23.5123 18.2448 23.5123 11.7548C23.5123 5.2648 18.2423 0.0048 11.7523 0.0048C5.2623 0.0048 0.0023 5.2648 0.0023 11.7548C0.0023 18.2448 5.2623 23.5048 11.7523 23.5048ZM11.7523 21.9848C6.0923 21.9848 1.5223 17.4148 1.5223 11.7548C1.5223 6.0948 6.0923 1.5148 11.7523 1.5148C17.4123 1.5148 21.9923 6.0948 21.9923 11.7548C21.9923 17.4148 17.4123 21.9848 11.7523 21.9848ZM5.9923 14.4148C6.2623 14.6948 6.7023 14.6948 6.9723 14.4148L11.7523 9.4348L16.5323 14.4148C16.7923 14.6948 17.2523 14.6948 17.5123 14.4148C17.7823 14.1548 17.7823 13.7448 17.4923 13.4448L12.6323 8.3748C12.0723 7.7848 11.4223 7.7848 10.8623 8.3748L6.0123 13.4448C5.7323 13.7448 5.7323 14.1548 5.9923 14.4148Z" />
        </svg>
    