
        <svg xmlns="http://www.w3.org/2000/svg" viewBox="0 0 100 100">
            <path d="M12.6023 25.1986C19.5623 25.1986 25.2023 19.5586 25.2023 12.5986C25.2023 5.6386 19.5623 -0.0014 12.6023 -0.0014C5.6323 -0.0014 0.0023 5.6386 0.0023 12.5986C0.0023 19.5586 5.6323 25.1986 12.6023 25.1986ZM12.6023 21.5386C7.6523 21.5386 3.6523 17.5386 3.6523 12.5986C3.6523 7.6486 7.6523 3.6586 12.6023 3.6586C17.5423 3.6586 21.5423 7.6486 21.5423 12.5986C21.5423 17.5386 17.5423 21.5386 12.6023 21.5386ZM14.9923 18.2886C15.5423 17.7386 15.5023 16.9086 14.9923 16.4186L10.9123 12.6086L14.9923 8.8086C15.5123 8.3086 15.5023 7.4386 14.9523 6.9386C14.4623 6.4786 13.6623 6.4686 13.1323 6.9686L8.6923 11.1086C7.8423 11.9086 7.8423 13.3286 8.6923 14.1186L13.1323 18.2686C13.6123 18.7286 14.5523 18.7386 14.9923 18.2886Z" />
        </svg>
    