
        <svg xmlns="http://www.w3.org/2000/svg" viewBox="0 0 100 100">
            <path d="M11.7523 23.5048C18.2323 23.5048 23.5123 18.2348 23.5123 11.7548C23.5123 5.2748 18.2323 0.0048 11.7523 0.0048C5.2723 0.0048 0.0023 5.2748 0.0023 11.7548C0.0023 18.2348 5.2723 23.5048 11.7523 23.5048ZM5.8723 14.4848C5.6023 14.2248 5.6123 13.7948 5.9023 13.4848L10.8423 8.3248C11.4223 7.7148 12.0823 7.6948 12.6723 8.3248L17.6123 13.4848C17.9023 13.7948 17.9023 14.2248 17.6323 14.4848C17.3523 14.7748 16.9023 14.7748 16.6423 14.4848L11.7523 9.3948L6.8823 14.4848C6.6123 14.7748 6.1523 14.7748 5.8723 14.4848Z" />
        </svg>
    