
        <svg xmlns="http://www.w3.org/2000/svg" viewBox="0 0 100 100">
            <path d="M17.9017 1.2573C17.9017 1.9473 18.4717 2.4973 19.1617 2.4973C19.8517 2.4973 20.4017 1.9473 20.4017 1.2573C20.4017 0.5673 19.8517 -0.0027 19.1617 -0.0027C18.4717 -0.0027 17.9017 0.5673 17.9017 1.2573ZM0.0017 1.2573C0.0017 1.9473 0.5517 2.4973 1.2417 2.4973C1.9317 2.4973 2.4917 1.9473 2.4917 1.2573C2.4917 0.5673 1.9317 -0.0027 1.2417 -0.0027C0.5517 -0.0027 0.0017 0.5673 0.0017 1.2573ZM15.6717 3.4773C15.6717 4.1673 16.2317 4.7273 16.9217 4.7273C17.6117 4.7273 18.1617 4.1673 18.1617 3.4773C18.1617 2.7873 17.6117 2.2273 16.9217 2.2273C16.2317 2.2273 15.6717 2.7873 15.6717 3.4773ZM2.2417 3.4773C2.2417 4.1673 2.7917 4.7273 3.4817 4.7273C4.1717 4.7273 4.7317 4.1673 4.7317 3.4773C4.7317 2.7873 4.1717 2.2273 3.4817 2.2273C2.7917 2.2273 2.2417 2.7873 2.2417 3.4773ZM13.4317 5.7073C13.4317 6.3973 13.9917 6.9473 14.6817 6.9473C15.3717 6.9473 15.9217 6.3973 15.9217 5.7073C15.9217 5.0173 15.3717 4.4673 14.6817 4.4673C13.9917 4.4673 13.4317 5.0173 13.4317 5.7073ZM4.4717 5.7073C4.4717 6.3973 5.0317 6.9473 5.7217 6.9473C6.4217 6.9473 6.9717 6.3973 6.9717 5.7073C6.9717 5.0173 6.4217 4.4673 5.7217 4.4673C5.0317 4.4673 4.4717 5.0173 4.4717 5.7073ZM11.1917 7.9373C11.1917 8.6273 11.7517 9.1873 12.4417 9.1873C13.1417 9.1873 13.6917 8.6273 13.6917 7.9373C13.6917 7.2373 13.1417 6.6873 12.4417 6.6873C11.7517 6.6873 11.1917 7.2373 11.1917 7.9373ZM6.7117 7.9373C6.7117 8.6273 7.2617 9.1873 7.9717 9.1873C8.6617 9.1873 9.2117 8.6273 9.2117 7.9373C9.2117 7.2373 8.6617 6.6873 7.9717 6.6873C7.2617 6.6873 6.7117 7.2373 6.7117 7.9373ZM8.9517 10.1573C8.9517 10.8473 9.5117 11.4173 10.2117 11.4173C10.9017 11.4173 11.4517 10.8473 11.4517 10.1573C11.4517 9.4673 10.9017 8.9173 10.2117 8.9173C9.5117 8.9173 8.9517 9.4673 8.9517 10.1573ZM17.9017 11.4573C17.9017 12.1473 18.4717 12.7173 19.1617 12.7173C19.8517 12.7173 20.4017 12.1473 20.4017 11.4573C20.4017 10.7673 19.8517 10.2173 19.1617 10.2173C18.4717 10.2173 17.9017 10.7673 17.9017 11.4573ZM0.0017 11.4573C0.0017 12.1473 0.5517 12.7173 1.2417 12.7173C1.9317 12.7173 2.4917 12.1473 2.4917 11.4573C2.4917 10.7673 1.9317 10.2173 1.2417 10.2173C0.5517 10.2173 0.0017 10.7673 0.0017 11.4573ZM15.6717 13.6873C15.6717 14.3773 16.2317 14.9373 16.9217 14.9373C17.6117 14.9373 18.1617 14.3773 18.1617 13.6873C18.1617 12.9973 17.6117 12.4473 16.9217 12.4473C16.2317 12.4473 15.6717 12.9973 15.6717 13.6873ZM2.2417 13.6873C2.2417 14.3773 2.7917 14.9373 3.4817 14.9373C4.1717 14.9373 4.7317 14.3773 4.7317 13.6873C4.7317 12.9973 4.1717 12.4473 3.4817 12.4473C2.7917 12.4473 2.2417 12.9973 2.2417 13.6873ZM13.4317 15.9173C13.4317 16.6073 13.9917 17.1673 14.6817 17.1673C15.3717 17.1673 15.9217 16.6073 15.9217 15.9173C15.9217 15.2273 15.3717 14.6673 14.6817 14.6673C13.9917 14.6673 13.4317 15.2273 13.4317 15.9173ZM4.4717 15.9173C4.4717 16.6073 5.0317 17.1673 5.7217 17.1673C6.4217 17.1673 6.9717 16.6073 6.9717 15.9173C6.9717 15.2273 6.4217 14.6673 5.7217 14.6673C5.0317 14.6673 4.4717 15.2273 4.4717 15.9173ZM11.1917 18.1473C11.1917 18.8473 11.7517 19.3973 12.4417 19.3973C13.1417 19.3973 13.6917 18.8473 13.6917 18.1473C13.6917 17.4473 13.1417 16.8973 12.4417 16.8973C11.7517 16.8973 11.1917 17.4473 11.1917 18.1473ZM6.7117 18.1473C6.7117 18.8473 7.2617 19.3973 7.9717 19.3973C8.6617 19.3973 9.2117 18.8473 9.2117 18.1473C9.2117 17.4473 8.6617 16.8973 7.9717 16.8973C7.2617 16.8973 6.7117 17.4473 6.7117 18.1473ZM8.9517 20.3773C8.9517 21.0673 9.5117 21.6173 10.2117 21.6173C10.9017 21.6173 11.4517 21.0673 11.4517 20.3773C11.4517 19.6873 10.9017 19.1273 10.2117 19.1273C9.5117 19.1273 8.9517 19.6873 8.9517 20.3773Z" />
        </svg>
    