
        <svg xmlns="http://www.w3.org/2000/svg" viewBox="0 0 100 100">
            <path d="M3.0117 20.5048H17.4917C19.4517 20.5048 20.5117 19.4248 20.5117 17.4948V3.0148C20.5117 1.0748 19.4517 0.0048 17.4917 0.0048H3.0117C1.0417 0.0048 0.0017 1.0448 0.0017 3.0148V17.4948C0.0017 19.4648 1.0417 20.5048 3.0117 20.5048ZM7.8317 15.9448C7.7317 15.8348 7.7117 15.6448 7.8417 15.5248L13.2117 10.2548L7.8417 4.9848C7.7117 4.8648 7.7117 4.6548 7.8317 4.5548C7.9617 4.4448 8.1217 4.4048 8.2617 4.5548L13.7017 9.9148C13.9417 10.1348 13.9317 10.3848 13.7017 10.5948L8.2617 15.9448C8.1217 16.0848 7.9417 16.0748 7.8317 15.9448Z" />
        </svg>
    