
        <svg xmlns="http://www.w3.org/2000/svg" viewBox="0 0 100 100">
            <path d="M0.2817 12.9727C0.1317 12.9727 0.0017 13.0927 0.0017 13.2627C0.0017 13.4227 0.1317 13.5427 0.2817 13.5427H12.9017C13.2117 13.5427 13.4217 13.3327 13.4217 13.0327V0.2827C13.4217 0.1327 13.3017 0.0027 13.1217 0.0027C12.9717 0.0027 12.8417 0.1327 12.8417 0.2827V12.9727ZM7.5717 20.4627C7.4017 20.4627 7.2817 20.5627 7.2817 20.7427C7.2817 20.8927 7.4017 21.0227 7.5717 21.0227H20.1817C20.4917 21.0227 20.6917 20.8227 20.6917 20.5127V7.7627C20.6917 7.6027 20.5917 7.4727 20.4117 7.4727C20.2617 7.4727 20.1317 7.6027 20.1317 7.7627V20.4627Z" />
        </svg>
    