
        <svg xmlns="http://www.w3.org/2000/svg" viewBox="0 0 100 100">
            <path d="M3.8417 21.8745H18.0317C20.5617 21.8745 21.8817 20.5745 21.8817 18.0745V3.8045C21.8817 1.3145 20.5617 0.0045 18.0317 0.0045H3.8417C1.3117 0.0045 0.0017 1.3045 0.0017 3.8045V18.0745C0.0017 20.5745 1.3117 21.8745 3.8417 21.8745ZM8.2017 16.9445C7.7817 16.5145 7.8017 15.8645 8.2017 15.4845L13.0217 10.9445L8.2017 6.4245C7.7917 6.0345 7.7917 5.3545 8.2217 4.9545C8.6117 4.5945 9.2417 4.6045 9.6517 5.0045L14.6217 9.6545C15.3617 10.3445 15.3617 11.5545 14.6217 12.2445L9.6517 16.8945C9.2817 17.2645 8.5617 17.2845 8.2017 16.9445Z" />
        </svg>
    