
        <svg xmlns="http://www.w3.org/2000/svg" viewBox="0 0 100 100">
            <path d="M3.8417 21.8745H18.0317C20.5617 21.8745 21.8817 20.5745 21.8817 18.0745V3.8045C21.8817 1.3145 20.5617 0.0045 18.0317 0.0045H3.8417C1.3117 0.0045 0.0017 1.3045 0.0017 3.8045V18.0745C0.0017 20.5745 1.3117 21.8745 3.8417 21.8745ZM12.2817 14.7845C11.4817 15.6345 10.4717 15.6345 9.6817 14.7845L5.0317 9.8345C4.6217 9.3945 4.6017 8.7645 4.9817 8.3745C5.4017 7.9445 6.0717 7.9445 6.4617 8.3645L10.9817 13.1745L15.5017 8.3645C15.9017 7.9445 16.5517 7.9545 16.9917 8.3745C17.3717 8.7545 17.3517 9.3945 16.9417 9.8345Z" />
        </svg>
    