
        <svg xmlns="http://www.w3.org/2000/svg" viewBox="0 0 100 100">
            <path d="M3.6817 21.5722H17.8917C20.3517 21.5722 21.5717 20.3722 21.5717 17.9522V3.6322C21.5717 1.2222 20.3517 0.0022 17.8917 0.0022H3.6817C1.2317 0.0022 0.0017 1.2222 0.0017 3.6322V17.9522C0.0017 20.3722 1.2317 21.5722 3.6817 21.5722ZM13.1117 16.5822C12.8117 16.8722 12.2017 16.8522 11.8717 16.5422L6.9917 11.9422C6.3317 11.3322 6.3317 10.2522 6.9917 9.6422L11.8717 5.0422C12.2317 4.7022 12.7717 4.6922 13.1017 5.0022C13.4617 5.3422 13.4717 5.9322 13.1217 6.2622L8.3117 10.7822L13.1217 15.3322C13.4617 15.6522 13.4717 16.2222 13.1117 16.5822Z" />
        </svg>
    