
        <svg xmlns="http://www.w3.org/2000/svg" viewBox="0 0 100 100">
            <path d="M7.2817 0.5928C7.2817 0.9128 7.5517 1.1828 7.8617 1.1828C8.1917 1.1828 8.4517 0.9128 8.4517 0.5928C8.4517 0.2728 8.1917 0.0028 7.8617 0.0028C7.5517 0.0028 7.2817 0.2728 7.2817 0.5928ZM9.0917 2.3928C9.0917 2.7228 9.3617 2.9928 9.6817 2.9928C10.0117 2.9928 10.2817 2.7228 10.2817 2.3928C10.2817 2.0728 10.0117 1.8028 9.6817 1.8028C9.3617 1.8028 9.0917 2.0728 9.0917 2.3928ZM5.4617 2.3928C5.4617 2.7228 5.7217 2.9928 6.0517 2.9928C6.3717 2.9928 6.6317 2.7228 6.6317 2.3928C6.6317 2.0728 6.3717 1.8028 6.0517 1.8028C5.7217 1.8028 5.4617 2.0728 5.4617 2.3928ZM10.9117 4.1928C10.9117 4.5228 11.1817 4.7928 11.5117 4.7928C11.8217 4.7928 12.0917 4.5228 12.0917 4.1928C12.0917 3.8828 11.8217 3.6128 11.5117 3.6128C11.1817 3.6128 10.9117 3.8828 10.9117 4.1928ZM3.6317 4.1928C3.6317 4.5228 3.9017 4.7928 4.2317 4.7928C4.5517 4.7928 4.8117 4.5228 4.8117 4.1928C4.8117 3.8828 4.5517 3.6128 4.2317 3.6128C3.9017 3.6128 3.6317 3.8828 3.6317 4.1928ZM12.7417 6.0028C12.7417 6.3328 12.9917 6.5928 13.3217 6.5928C13.6417 6.5928 13.9117 6.3328 13.9117 6.0028C13.9117 5.6828 13.6417 5.4128 13.3217 5.4128C12.9917 5.4128 12.7417 5.6828 12.7417 6.0028ZM1.8117 6.0028C1.8117 6.3328 2.0817 6.5928 2.4117 6.5928C2.7317 6.5928 3.0017 6.3328 3.0017 6.0028C3.0017 5.6828 2.7317 5.4128 2.4117 5.4128C2.0817 5.4128 1.8117 5.6828 1.8117 6.0028ZM14.5517 7.8028C14.5517 8.1328 14.8117 8.4028 15.1417 8.4028C15.4717 8.4028 15.7217 8.1328 15.7217 7.8028C15.7217 7.4928 15.4717 7.2228 15.1417 7.2228C14.8117 7.2228 14.5517 7.4928 14.5517 7.8028ZM0.0017 7.8028C0.0017 8.1328 0.2717 8.4028 0.5817 8.4028C0.9117 8.4028 1.1817 8.1328 1.1817 7.8028C1.1817 7.4928 0.9117 7.2228 0.5817 7.2228C0.2717 7.2228 0.0017 7.4928 0.0017 7.8028ZM7.2817 11.0728C7.2817 11.4028 7.5517 11.6728 7.8617 11.6728C8.1917 11.6728 8.4517 11.4028 8.4517 11.0728C8.4517 10.7528 8.1917 10.4928 7.8617 10.4928C7.5517 10.4928 7.2817 10.7528 7.2817 11.0728ZM9.0917 12.8828C9.0917 13.2028 9.3617 13.4728 9.6817 13.4728C10.0117 13.4728 10.2817 13.2028 10.2817 12.8828C10.2817 12.5628 10.0117 12.2928 9.6817 12.2928C9.3617 12.2928 9.0917 12.5628 9.0917 12.8828ZM5.4617 12.8828C5.4617 13.2028 5.7217 13.4728 6.0517 13.4728C6.3717 13.4728 6.6317 13.2028 6.6317 12.8828C6.6317 12.5628 6.3717 12.2928 6.0517 12.2928C5.7217 12.2928 5.4617 12.5628 5.4617 12.8828ZM10.9117 14.6828C10.9117 15.0128 11.1817 15.2728 11.5117 15.2728C11.8217 15.2728 12.0917 15.0128 12.0917 14.6828C12.0917 14.3628 11.8217 14.0928 11.5117 14.0928C11.1817 14.0928 10.9117 14.3628 10.9117 14.6828ZM3.6317 14.6828C3.6317 15.0128 3.9017 15.2728 4.2317 15.2728C4.5517 15.2728 4.8117 15.0128 4.8117 14.6828C4.8117 14.3628 4.5517 14.0928 4.2317 14.0928C3.9017 14.0928 3.6317 14.3628 3.6317 14.6828ZM12.7417 16.4928C12.7417 16.8128 12.9917 17.0728 13.3217 17.0728C13.6417 17.0728 13.9117 16.8128 13.9117 16.4928C13.9117 16.1628 13.6417 15.9028 13.3217 15.9028C12.9917 15.9028 12.7417 16.1628 12.7417 16.4928ZM1.8117 16.4928C1.8117 16.8128 2.0817 17.0728 2.4117 17.0728C2.7317 17.0728 3.0017 16.8128 3.0017 16.4928C3.0017 16.1628 2.7317 15.9028 2.4117 15.9028C2.0817 15.9028 1.8117 16.1628 1.8117 16.4928ZM14.5517 18.2928C14.5517 18.6228 14.8117 18.8828 15.1417 18.8828C15.4717 18.8828 15.7217 18.6228 15.7217 18.2928C15.7217 17.9628 15.4717 17.7028 15.1417 17.7028C14.8117 17.7028 14.5517 17.9628 14.5517 18.2928ZM0.0017 18.2928C0.0017 18.6228 0.2717 18.8828 0.5817 18.8828C0.9117 18.8828 1.1817 18.6228 1.1817 18.2928C1.1817 17.9628 0.9117 17.7028 0.5817 17.7028C0.2717 17.7028 0.0017 17.9628 0.0017 18.2928Z" />
        </svg>
    