
        <svg xmlns="http://www.w3.org/2000/svg" viewBox="0 0 100 100">
            <path d="M0.7417 4.537L9.0117 12.987C9.7517 13.707 10.4317 14.027 11.3017 14.027C12.1717 14.017 12.8417 13.697 13.5817 12.987L21.8317 4.537C22.3517 4.017 22.5817 3.437 22.5817 2.707C22.5817 1.227 21.3617 -0.003 19.9217 -0.003C19.1917 -0.003 18.5017 0.307 17.9417 0.907L11.3217 7.827L4.6517 0.907C4.0817 0.317 3.4017 -0.003 2.6617 -0.003C1.2117 -0.003 0.0017 1.227 0.0017 2.707C0.0017 3.417 0.2417 4.007 0.7417 4.537ZM0.7417 14.997L9.0117 23.447C9.7517 24.187 10.4317 24.497 11.3017 24.497C12.1717 24.477 12.8417 24.167 13.5817 23.447L21.8317 14.997C22.3517 14.487 22.5817 13.897 22.5817 13.167C22.5817 11.697 21.3617 10.477 19.9217 10.477C19.1917 10.477 18.5017 10.777 17.9417 11.367L11.3217 18.297L4.6517 11.367C4.0817 10.797 3.4017 10.477 2.6617 10.477C1.2117 10.477 0.0017 11.697 0.0017 13.167C0.0017 13.887 0.2417 14.477 0.7417 14.997Z" />
        </svg>
    