
        <svg xmlns="http://www.w3.org/2000/svg" viewBox="0 0 100 100">
            <path d="M0.8117 19.5344C1.0417 19.5344 1.2317 19.4444 1.3917 19.2844L10.7417 10.4044C10.9217 10.2144 11.0317 10.0244 11.0317 9.7744C11.0317 9.5244 10.9217 9.3044 10.7317 9.1244L1.3817 0.2444C1.2217 0.0944 1.0417 0.0044 0.8117 0.0044C0.3517 0.0044 0.0017 0.3544 0.0017 0.8044C0.0017 1.0244 0.0817 1.2444 0.2317 1.3944L9.0317 9.7644L0.2317 18.1544C0.0817 18.2944 0.0017 18.5044 0.0017 18.7244C0.0017 19.1844 0.3517 19.5344 0.8117 19.5344ZM11.2817 19.5344C11.5117 19.5344 11.6917 19.4444 11.8617 19.2844L21.2117 10.4044C21.4017 10.2144 21.5017 10.0244 21.5017 9.7744C21.5017 9.5244 21.3917 9.3044 21.2017 9.1244L11.8517 0.2444C11.6917 0.0944 11.5117 0.0044 11.2817 0.0044C10.8117 0.0044 10.4617 0.3544 10.4617 0.8044C10.4617 1.0244 10.5617 1.2444 10.7017 1.3944L19.5117 9.7644L10.7017 18.1544C10.5617 18.2944 10.4617 18.5044 10.4617 18.7244C10.4617 19.1844 10.8117 19.5344 11.2817 19.5344Z" />
        </svg>
    