
        <svg xmlns="http://www.w3.org/2000/svg" viewBox="0 0 100 100">
            <path d="M12.7923 25.5978C19.8723 25.5978 25.6023 19.8678 25.6023 12.7978C25.6023 5.7278 19.8723 -0.0022 12.7923 -0.0022C5.7323 -0.0022 0.0023 5.7278 0.0023 12.7978C0.0023 19.8678 5.7323 25.5978 12.7923 25.5978ZM12.7923 21.4178C8.0323 21.4178 4.1723 17.5678 4.1723 12.7978C4.1723 8.0278 8.0323 4.1678 12.7923 4.1678C17.5623 4.1678 21.4323 8.0278 21.4323 12.7978C21.4323 17.5678 17.5623 21.4178 12.7923 21.4178ZM7.1523 15.6278C7.7623 16.2178 8.6723 16.2178 9.2223 15.6178L12.7923 11.7778L16.3723 15.6178C16.9223 16.2178 17.8323 16.2178 18.4523 15.6278C18.9723 15.1278 18.9723 14.1878 18.4223 13.5978L14.4023 9.2678C13.5623 8.3478 12.0423 8.3678 11.1923 9.2978L7.1723 13.6078C6.6223 14.2078 6.6223 15.1278 7.1523 15.6278Z" />
        </svg>
    