
        <svg xmlns="http://www.w3.org/2000/svg" viewBox="0 0 100 100">
            <path d="M3.5517 19.4798V10.9898C3.6217 11.3998 3.8217 11.7498 4.1817 12.0698L13.3917 20.7398C13.8317 21.1398 14.2217 21.2598 14.6717 21.2598C15.7017 21.2598 16.5617 20.4398 16.5617 19.4198C16.5617 18.8398 16.3217 18.3898 15.9517 18.0398L8.0517 10.6298L15.9517 3.2198C16.3217 2.8798 16.5617 2.4098 16.5617 1.8398C16.5617 0.8098 15.7017 -0.0002 14.6717 -0.0002C14.2217 -0.0002 13.8317 0.1198 13.3917 0.5198L4.1717 9.1898C3.8217 9.4998 3.6217 9.8598 3.5517 10.2698V1.7898C3.5517 0.7398 2.7817 -0.0002 1.7817 -0.0002C0.7717 -0.0002 0.0017 0.7398 0.0017 1.7898V19.4798C0.0017 20.5198 0.7817 21.2598 1.7817 21.2598C2.7817 21.2598 3.5517 20.5198 3.5517 19.4798Z" />
        </svg>
    