
        <svg xmlns="http://www.w3.org/2000/svg" viewBox="0 0 100 100">
            <path d="M3.4617 21.2264H17.7617C20.0517 21.2264 21.2217 20.0464 21.2217 17.7964V3.4264C21.2217 1.1764 20.0517 -0.0036 17.7617 -0.0036H3.4617C1.1717 -0.0036 0.0017 1.1564 0.0017 3.4264V17.7964C0.0017 20.0664 1.1717 21.2264 3.4617 21.2264ZM4.7317 13.3364C4.4617 13.0764 4.4617 12.6464 4.7717 12.3364L9.7017 7.1764C10.2917 6.5664 10.9417 6.5464 11.5317 7.1764L16.4717 12.3364C16.7717 12.6464 16.7717 13.0764 16.5017 13.3364C16.2217 13.6264 15.7617 13.6264 15.4917 13.3364L10.6217 8.2464L5.7417 13.3364C5.4717 13.6264 5.0117 13.6264 4.7317 13.3364Z" />
        </svg>
    