
        <svg xmlns="http://www.w3.org/2000/svg" viewBox="0 0 100 100">
            <path d="M4.1417 22.4041H18.2717C20.9517 22.4041 22.4017 20.9541 22.4017 18.3041V4.1141C22.4017 1.4641 20.9517 0.0041 18.2717 0.0041H4.1417C1.4617 0.0041 0.0017 1.4541 0.0017 4.1141V18.3041C0.0017 20.9541 1.4617 22.4041 4.1417 22.4041ZM4.4617 19.3841C3.5317 19.3841 3.0217 18.9241 3.0217 17.9341V4.4841C3.0217 3.4941 3.5317 3.0241 4.4617 3.0241H17.9417C18.8817 3.0241 19.3817 3.4941 19.3817 4.4841V17.9341C19.3817 18.9241 18.8817 19.3841 17.9417 19.3841ZM5.4917 13.9841C5.9717 14.4641 6.7117 14.4641 7.1617 13.9841L11.2117 9.6541L15.2717 13.9841C15.7117 14.4641 16.4617 14.4641 16.9417 13.9841C17.3717 13.5741 17.3517 12.8341 16.9117 12.3441L12.6017 7.7441C11.8017 6.8941 10.6317 6.9041 9.8317 7.7441L5.5317 12.3541C5.0717 12.8341 5.0717 13.5741 5.4917 13.9841Z" />
        </svg>
    