
        <svg xmlns="http://www.w3.org/2000/svg" viewBox="0 0 100 100">
            <path d="M3.8417 21.8745H18.0317C20.5617 21.8745 21.8817 20.5745 21.8817 18.0745V3.8045C21.8817 1.3145 20.5617 0.0045 18.0317 0.0045H3.8417C1.3117 0.0045 0.0017 1.3045 0.0017 3.8045V18.0745C0.0017 20.5745 1.3117 21.8745 3.8417 21.8745ZM3.9817 19.5845C2.8917 19.5845 2.3017 19.0145 2.3017 17.8845V4.0045C2.3017 2.8745 2.8917 2.2945 3.9817 2.2945H17.8917C18.9717 2.2945 19.5817 2.8745 19.5817 4.0045V17.8845C19.5817 19.0145 18.9717 19.5845 17.8917 19.5845ZM8.3217 16.7145C8.6617 17.0345 9.3417 17.0145 9.7017 16.6745L14.4817 12.1745C15.1917 11.5145 15.1917 10.3745 14.4817 9.7145L9.7017 5.2145C9.3017 4.8445 8.7117 4.8245 8.3317 5.1845C7.9217 5.5645 7.9117 6.2145 8.3117 6.5845L12.9517 10.9345L8.3117 15.3045C7.9217 15.6845 7.9117 16.3045 8.3217 16.7145Z" />
        </svg>
    