
        <svg xmlns="http://www.w3.org/2000/svg" viewBox="0 0 100 100">
            <path d="M12.8359 0.197C12.5759 -0.063 12.2559 -0.063 11.9959 0.197L7.9059 4.287C7.6959 4.497 7.6859 4.727 7.9059 4.927C8.1059 5.137 8.3259 5.127 8.5459 4.917L12.4159 1.047L16.2859 4.917C16.4959 5.127 16.7259 5.137 16.9259 4.927C17.1359 4.727 17.1259 4.497 16.9259 4.287ZM19.9059 16.927C20.1059 17.147 20.3459 17.127 20.5459 16.927L24.6359 12.837C24.8959 12.577 24.8959 12.247 24.6359 11.997L20.5459 7.897C20.3359 7.677 20.0959 7.677 19.8959 7.897C19.6959 8.087 19.7059 8.327 19.9059 8.547L23.7859 12.417L19.9159 16.287C19.7159 16.497 19.7059 16.717 19.9059 16.927ZM4.9359 16.937C5.1359 16.727 5.1359 16.507 4.9259 16.287L1.0459 12.417L4.9159 8.547C5.1259 8.327 5.1359 8.107 4.9359 7.907C4.7259 7.677 4.4859 7.697 4.2859 7.907L0.1959 11.997C-0.0641 12.247 -0.0641 12.577 0.1959 12.827L4.2859 16.937C4.4959 17.137 4.7359 17.147 4.9359 16.937ZM11.9959 24.637C12.2559 24.897 12.5759 24.897 12.8359 24.637L16.9259 20.547C17.1259 20.347 17.1459 20.107 16.9259 19.907C16.7159 19.697 16.5059 19.707 16.2859 19.917L12.4159 23.787L8.5359 19.907C8.3159 19.707 8.0959 19.697 7.8959 19.897C7.6859 20.107 7.6959 20.337 7.8959 20.537Z" />
        </svg>
    