
        <svg xmlns="http://www.w3.org/2000/svg" viewBox="0 0 100 100">
            <path d="M19.0117 1.4923C19.0117 2.3123 19.6617 2.9623 20.4817 2.9623C21.3017 2.9623 21.9717 2.3123 21.9717 1.4923C21.9717 0.6523 21.3017 0.0023 20.4817 0.0023C19.6617 0.0023 19.0117 0.6523 19.0117 1.4923ZM0.0017 1.4923C0.0017 2.3123 0.6517 2.9623 1.4917 2.9623C2.3117 2.9623 2.9617 2.3123 2.9617 1.4923C2.9617 0.6523 2.3117 0.0023 1.4917 0.0023C0.6517 0.0023 0.0017 0.6523 0.0017 1.4923ZM16.6317 3.8523C16.6317 4.6723 17.2817 5.3323 18.1217 5.3323C18.9417 5.3323 19.5917 4.6723 19.5917 3.8523C19.5917 3.0323 18.9417 2.3623 18.1217 2.3623C17.2817 2.3623 16.6317 3.0323 16.6317 3.8523ZM2.3817 3.8523C2.3817 4.6723 3.0317 5.3323 3.8517 5.3323C4.6917 5.3323 5.3417 4.6723 5.3417 3.8523C5.3417 3.0323 4.6917 2.3623 3.8517 2.3623C3.0317 2.3623 2.3817 3.0323 2.3817 3.8523ZM14.2517 6.2223C14.2517 7.0423 14.9217 7.7123 15.7417 7.7123C16.5617 7.7123 17.2117 7.0423 17.2117 6.2223C17.2117 5.4023 16.5617 4.7423 15.7417 4.7423C14.9217 4.7423 14.2517 5.4023 14.2517 6.2223ZM4.7417 6.2223C4.7417 7.0423 5.4117 7.7123 6.2317 7.7123C7.0517 7.7123 7.7217 7.0423 7.7217 6.2223C7.7217 5.4023 7.0517 4.7423 6.2317 4.7423C5.4117 4.7423 4.7417 5.4023 4.7417 6.2223ZM11.8817 8.5923C11.8817 9.4223 12.5417 10.0823 13.3617 10.0823C14.1817 10.0823 14.8517 9.4223 14.8517 8.5923C14.8517 7.7723 14.1817 7.1123 13.3617 7.1123C12.5417 7.1123 11.8817 7.7723 11.8817 8.5923ZM7.1217 8.5923C7.1217 9.4223 7.7817 10.0823 8.6117 10.0823C9.4317 10.0823 10.0917 9.4223 10.0917 8.5923C10.0917 7.7723 9.4317 7.1123 8.6117 7.1123C7.7817 7.1123 7.1217 7.7723 7.1217 8.5923ZM9.5017 10.9723C9.5017 11.7923 10.1617 12.4423 10.9817 12.4423C11.8117 12.4423 12.4717 11.7923 12.4717 10.9723C12.4717 10.1523 11.8117 9.4823 10.9817 9.4823C10.1617 9.4823 9.5017 10.1523 9.5017 10.9723ZM19.0117 11.3223C19.0117 12.1523 19.6617 12.8123 20.4817 12.8123C21.3017 12.8123 21.9717 12.1523 21.9717 11.3223C21.9717 10.5023 21.3017 9.8423 20.4817 9.8423C19.6617 9.8423 19.0117 10.5023 19.0117 11.3223ZM0.0017 11.3223C0.0017 12.1523 0.6517 12.8123 1.4917 12.8123C2.3117 12.8123 2.9617 12.1523 2.9617 11.3223C2.9617 10.5023 2.3117 9.8423 1.4917 9.8423C0.6517 9.8423 0.0017 10.5023 0.0017 11.3223ZM16.6317 13.7023C16.6317 14.5223 17.2817 15.1723 18.1217 15.1723C18.9417 15.1723 19.5917 14.5223 19.5917 13.7023C19.5917 12.8823 18.9417 12.2123 18.1217 12.2123C17.2817 12.2123 16.6317 12.8823 16.6317 13.7023ZM2.3817 13.7023C2.3817 14.5223 3.0317 15.1723 3.8517 15.1723C4.6917 15.1723 5.3417 14.5223 5.3417 13.7023C5.3417 12.8823 4.6917 12.2123 3.8517 12.2123C3.0317 12.2123 2.3817 12.8823 2.3817 13.7023ZM14.2517 16.0623C14.2517 16.8823 14.9217 17.5523 15.7417 17.5523C16.5617 17.5523 17.2117 16.8823 17.2117 16.0623C17.2117 15.2423 16.5617 14.5923 15.7417 14.5923C14.9217 14.5923 14.2517 15.2423 14.2517 16.0623ZM4.7417 16.0623C4.7417 16.8823 5.4117 17.5523 6.2317 17.5523C7.0517 17.5523 7.7217 16.8823 7.7217 16.0623C7.7217 15.2423 7.0517 14.5923 6.2317 14.5923C5.4117 14.5923 4.7417 15.2423 4.7417 16.0623ZM11.8817 18.4323C11.8817 19.2623 12.5417 19.9223 13.3617 19.9223C14.1817 19.9223 14.8517 19.2623 14.8517 18.4323C14.8517 17.6123 14.1817 16.9523 13.3617 16.9523C12.5417 16.9523 11.8817 17.6123 11.8817 18.4323ZM7.1217 18.4323C7.1217 19.2623 7.7817 19.9223 8.6117 19.9223C9.4317 19.9223 10.0917 19.2623 10.0917 18.4323C10.0917 17.6123 9.4317 16.9523 8.6117 16.9523C7.7817 16.9523 7.1217 17.6123 7.1217 18.4323ZM9.5017 20.8123C9.5017 21.6323 10.1617 22.2923 10.9817 22.2923C11.8117 22.2923 12.4717 21.6323 12.4717 20.8123C12.4717 19.9923 11.8117 19.3223 10.9817 19.3223C10.1617 19.3223 9.5017 19.9923 9.5017 20.8123Z" />
        </svg>
    