
        <svg xmlns="http://www.w3.org/2000/svg" viewBox="0 0 100 100">
            <path d="M3.8417 21.8745H18.0317C20.5617 21.8745 21.8817 20.5745 21.8817 18.0745V3.8045C21.8817 1.3145 20.5617 0.0045 18.0317 0.0045H3.8417C1.3117 0.0045 0.0017 1.3045 0.0017 3.8045V18.0745C0.0017 20.5745 1.3117 21.8745 3.8417 21.8745ZM3.9817 19.5845C2.8917 19.5845 2.3017 19.0145 2.3017 17.8845V4.0045C2.3017 2.8745 2.8917 2.2945 3.9817 2.2945H17.8917C18.9717 2.2945 19.5817 2.8745 19.5817 4.0045V17.8845C19.5817 19.0145 18.9717 19.5845 17.8917 19.5845ZM13.2917 16.7145C13.6917 16.3045 13.6717 15.6845 13.2917 15.3045L8.6517 10.9345L13.2917 6.5845C13.6917 6.2145 13.6717 5.5645 13.2617 5.1845C12.8917 4.8245 12.2917 4.8445 11.8917 5.2145L7.1217 9.7145C6.4117 10.3745 6.4117 11.5145 7.1217 12.1745L11.8917 16.6745C12.2617 17.0145 12.9517 17.0345 13.2917 16.7145Z" />
        </svg>
    