
        <svg xmlns="http://www.w3.org/2000/svg" viewBox="0 0 100 100">
            <path d="M0.0017 19.3269C0.0017 20.0869 0.6117 20.6769 1.3717 20.6769C1.7217 20.6769 2.0117 20.5669 2.3217 20.2869L11.5817 11.3569C11.8017 11.1469 11.9417 10.8969 12.0017 10.6269V19.3869C12.0017 20.1469 12.5617 20.6769 13.3117 20.6769C14.0617 20.6769 14.6217 20.1469 14.6217 19.3869V1.2969C14.6217 0.5269 14.0617 -0.0031 13.3117 -0.0031C12.5617 -0.0031 12.0017 0.5269 12.0017 1.2969V10.0469C11.9417 9.7569 11.8017 9.5169 11.5817 9.3169L2.3217 0.3869C2.0117 0.1069 1.7217 -0.0031 1.3617 -0.0031C0.6117 -0.0031 0.0017 0.5769 0.0017 1.3469C0.0017 1.7469 0.1517 2.0769 0.4217 2.3369L8.7317 10.3369L0.4217 18.3369C0.1517 18.6069 0.0017 18.9269 0.0017 19.3269Z" />
        </svg>
    