
        <svg xmlns="http://www.w3.org/2000/svg" viewBox="0 0 100 100">
            <path d="M0.6417 9.5223C0.2117 9.9723 0.0017 10.4923 0.0017 11.1123C0.0017 12.3723 1.0317 13.4223 2.2817 13.4223C2.9217 13.4223 3.5017 13.1523 3.9817 12.6523L11.0517 5.3523L18.0817 12.6523C18.5617 13.1623 19.1517 13.4223 19.7717 13.4223C21.0217 13.4223 22.0517 12.3723 22.0517 11.1123C22.0517 10.4723 21.8517 9.9723 21.4117 9.5223L12.9617 0.8823C12.3517 0.2823 11.7817 0.0123 11.0317 0.0023C10.3017 0.0023 9.7117 0.2723 9.1017 0.8823ZM0.6417 19.9923C0.2117 20.4523 0.0017 20.9523 0.0017 21.5723C0.0017 22.8423 1.0317 23.8923 2.2817 23.8923C2.9217 23.8923 3.5017 23.6223 3.9817 23.1323L11.0517 15.8323L18.0817 23.1323C18.5617 23.6323 19.1517 23.8923 19.7717 23.8923C21.0217 23.8923 22.0517 22.8423 22.0517 21.5723C22.0517 20.9523 21.8517 20.4423 21.4117 20.0023L12.9617 11.3523C12.3517 10.7423 11.7817 10.4723 11.0317 10.4723C10.3017 10.4723 9.7117 10.7323 9.1017 11.3523Z" />
        </svg>
    