
        <svg xmlns="http://www.w3.org/2000/svg" viewBox="0 0 100 100">
            <path d="M2.6217 19.3869V10.6269C2.6817 10.8969 2.8217 11.1469 3.0517 11.3569L12.3017 20.2869C12.6017 20.5669 12.9017 20.6769 13.2517 20.6769C14.0117 20.6769 14.6217 20.0869 14.6217 19.3269C14.6217 18.9269 14.4717 18.6069 14.2017 18.3369L5.8917 10.3369L14.2017 2.3369C14.4717 2.0769 14.6217 1.7469 14.6217 1.3469C14.6217 0.5769 14.0117 -0.0031 13.2617 -0.0031C12.9017 -0.0031 12.6117 0.1069 12.3017 0.3869L3.0517 9.3169C2.8217 9.5169 2.6817 9.7569 2.6217 10.0469V1.2969C2.6217 0.5269 2.0617 -0.0031 1.3117 -0.0031C0.5617 -0.0031 0.0017 0.5269 0.0017 1.2969V19.3869C0.0017 20.1469 0.5617 20.6769 1.3117 20.6769C2.0617 20.6769 2.6217 20.1469 2.6217 19.3869Z" />
        </svg>
    