
        <svg xmlns="http://www.w3.org/2000/svg" viewBox="0 0 100 100">
            <path d="M4.1417 22.4041H18.2717C20.9517 22.4041 22.4017 20.9541 22.4017 18.3041V4.1141C22.4017 1.4641 20.9517 0.0041 18.2717 0.0041H4.1417C1.4617 0.0041 0.0017 1.4541 0.0017 4.1141V18.3041C0.0017 20.9541 1.4617 22.4041 4.1417 22.4041ZM8.5317 17.2541C8.0117 16.7341 8.0517 15.9541 8.5317 15.4841L13.1017 11.2141L8.5317 6.9641C8.0417 6.4941 8.0517 5.6741 8.5617 5.1941C9.0217 4.7541 9.7817 4.7541 10.2817 5.2241L15.1217 9.7541C15.9617 10.5341 15.9517 11.9041 15.1217 12.6941L10.2817 17.2241C9.8317 17.6441 8.9517 17.6641 8.5317 17.2541Z" />
        </svg>
    