
        <svg xmlns="http://www.w3.org/2000/svg" viewBox="0 0 100 100">
            <path d="M2.3117 22.0583C2.9317 22.0583 3.4417 21.8483 3.8917 21.4083L12.5417 12.9483C13.1517 12.3383 13.4217 11.7583 13.4217 11.0283C13.4017 10.2883 13.1417 9.6983 12.5417 9.0983L3.8917 0.6483C3.4417 0.2083 2.9417 -0.0017 2.3117 -0.0017C1.0417 -0.0017 0.0017 1.0383 0.0017 2.2883C0.0017 2.9083 0.2617 3.4883 0.7617 3.9883L8.0617 11.0183L0.7617 18.0683C0.2717 18.5483 0.0017 19.1383 0.0017 19.7783C0.0017 21.0283 1.0417 22.0583 2.3117 22.0583ZM12.7817 22.0583C13.4017 22.0583 13.9117 21.8483 14.3717 21.4083L23.0017 12.9483C23.6217 12.3383 23.8817 11.7583 23.8817 11.0283C23.8817 10.2883 23.6117 9.6983 23.0017 9.0983L14.3717 0.6483C13.9217 0.2083 13.4017 -0.0017 12.7817 -0.0017C11.5217 -0.0017 10.4617 1.0383 10.4617 2.2883C10.4617 2.9083 10.7217 3.4883 11.2217 3.9883L18.5317 11.0183L11.2217 18.0683C10.7317 18.5483 10.4617 19.1383 10.4617 19.7783C10.4617 21.0283 11.5217 22.0583 12.7817 22.0583Z" />
        </svg>
    