
        <svg xmlns="http://www.w3.org/2000/svg" viewBox="0 0 100 100">
            <path d="M13.2217 0.2852C12.8317 -0.0948 12.3317 -0.0948 11.9417 0.2852L7.9417 4.2652C7.5917 4.6152 7.5817 5.0152 7.9417 5.3652C8.3017 5.7352 8.6717 5.7152 9.0517 5.3552L12.5717 1.8252L16.1017 5.3552C16.4617 5.7152 16.8617 5.7152 17.2117 5.3652C17.5617 5.0152 17.5517 4.6152 17.2017 4.2652ZM19.7917 17.2052C20.1417 17.5652 20.5517 17.5452 20.9017 17.1952L24.8817 13.2052C25.2517 12.8452 25.2517 12.3052 24.8917 11.9452L20.8817 7.9252C20.5217 7.5552 20.1117 7.5552 19.7817 7.9052C19.4217 8.2652 19.4217 8.6552 19.7817 9.0252L23.3317 12.5752L19.8017 16.1052C19.4517 16.4652 19.4517 16.8552 19.7917 17.2052ZM5.3917 17.2252C5.7417 16.8752 5.7417 16.4852 5.3817 16.1152L1.8317 12.5752L5.3717 9.0352C5.7217 8.6852 5.7217 8.2852 5.3817 7.9352C5.0117 7.5852 4.6217 7.5952 4.2617 7.9452L0.2817 11.9252C-0.0983 12.3052 -0.0983 12.8452 0.2817 13.2052L4.2817 17.2252C4.6517 17.5852 5.0517 17.5852 5.3917 17.2252ZM11.9417 24.8752C12.3117 25.2552 12.8317 25.2552 13.2217 24.8752L17.2117 20.8952C17.5617 20.5452 17.5617 20.1452 17.2117 19.7952C16.8517 19.4252 16.4717 19.4452 16.1017 19.8052L12.5717 23.3352L9.0217 19.7852C8.6517 19.4152 8.2717 19.4052 7.9117 19.7652C7.5717 20.1252 7.5717 20.5152 7.9217 20.8752Z" />
        </svg>
    