
        <svg xmlns="http://www.w3.org/2000/svg" viewBox="0 0 100 100">
            <path d="M3.1617 20.742H17.5917C19.6617 20.742 20.7417 19.642 20.7417 17.592V3.152C20.7417 1.102 19.6617 0.002 17.5917 0.002H3.1617C1.0917 0.002 0.0017 1.082 0.0017 3.152V17.592C0.0017 19.662 1.0917 20.742 3.1617 20.742ZM3.1917 19.872C1.6617 19.872 0.8717 19.082 0.8717 17.552V3.202C0.8717 1.662 1.6617 0.872 3.1917 0.872H17.5517C19.0317 0.872 19.8717 1.662 19.8717 3.202V17.552C19.8717 19.082 19.0317 19.872 17.5517 19.872ZM12.5317 16.062C12.6917 15.902 12.7017 15.622 12.5117 15.452L7.2817 10.352L12.5117 5.242C12.7017 5.072 12.7017 4.782 12.5317 4.632C12.3517 4.462 12.1017 4.452 11.9017 4.642L6.6017 9.822C6.2617 10.132 6.2717 10.572 6.6017 10.872L11.9017 16.052C12.0917 16.242 12.3717 16.232 12.5317 16.062Z" />
        </svg>
    