
        <svg xmlns="http://www.w3.org/2000/svg" viewBox="0 0 100 100">
            <path d="M4.3817 22.8467H18.4717C21.2617 22.8467 22.8517 21.2667 22.8517 18.4767V4.3667C22.8517 1.5867 21.2617 -0.0033 18.4717 -0.0033H4.3817C1.5917 -0.0033 0.0017 1.5867 0.0017 4.3667V18.4767C0.0017 21.2667 1.5917 22.8467 4.3817 22.8467ZM5.4617 14.4467C4.9617 13.9667 4.9617 13.0667 5.5117 12.4767L9.9217 7.7367C10.8117 6.7867 12.2617 6.7767 13.1517 7.7267L17.5817 12.4667C18.1217 13.0567 18.1217 13.9667 17.6117 14.4467C17.0117 15.0267 16.1117 15.0267 15.5817 14.4467L11.5417 10.1167L7.5017 14.4467C6.9617 15.0267 6.0717 15.0267 5.4617 14.4467Z" />
        </svg>
    