
        <svg xmlns="http://www.w3.org/2000/svg" viewBox="0 0 100 100">
            <path d="M0.8374 9.6941C-0.0126 9.6941 -0.2226 10.2641 0.2374 10.9241L2.8574 14.6441C3.2474 15.1841 3.8074 15.1741 4.1874 14.6441L6.7974 10.9141C7.2574 10.2641 7.0374 9.6941 6.2174 9.6941H4.5274C5.5474 5.2741 9.4974 1.9941 14.2274 1.9941C19.7374 1.9941 24.1874 6.4441 24.1874 11.9541C24.1874 17.4641 19.7374 21.9141 14.2274 21.9141C10.8974 21.9141 7.9374 20.2741 6.1674 17.7841C5.8074 17.3041 5.2474 17.1541 4.7574 17.4541C4.2874 17.7441 4.1474 18.3941 4.5474 18.9141C6.7174 21.9541 10.2674 23.9041 14.2274 23.9041C20.8274 23.9041 26.1774 18.5541 26.1774 11.9541C26.1774 5.3541 20.8274 0.0041 14.2274 0.0041C8.4074 0.0041 3.5374 4.1741 2.4874 9.6941ZM10.8674 14.6741C10.8674 14.8941 11.0374 15.0741 11.2674 15.0741H13.5474V16.7441C13.5474 17.1641 13.8274 17.4541 14.2274 17.4541C14.6274 17.4541 14.9074 17.1641 14.9074 16.7441V15.0741H17.2274C17.4474 15.0741 17.6274 14.8941 17.6274 14.6741C17.6274 14.4541 17.4474 14.2741 17.2274 14.2741H14.9074V13.0441H17.2274C17.4474 13.0441 17.6274 12.8641 17.6274 12.6441C17.6274 12.4141 17.4474 12.2441 17.2274 12.2441H15.3274L18.2474 7.5341C18.3574 7.3641 18.3874 7.2741 18.3874 7.0741C18.3874 6.7141 18.0874 6.4641 17.7074 6.4641C17.4674 6.4641 17.2474 6.5941 17.0974 6.8441L14.2674 11.6741H14.2174L11.3674 6.8441C11.2274 6.5941 11.0574 6.4541 10.7474 6.4541C10.3574 6.4541 10.0674 6.7041 10.0674 7.0741C10.0674 7.2141 10.1174 7.3741 10.2174 7.5341L13.1374 12.2441H11.2674C11.0374 12.2441 10.8674 12.4141 10.8674 12.6441C10.8674 12.8641 11.0374 13.0441 11.2674 13.0441H13.5474V14.2741H11.2674C11.0374 14.2741 10.8674 14.4541 10.8674 14.6741Z" />
        </svg>
    