
        <svg xmlns="http://www.w3.org/2000/svg" viewBox="0 0 100 100">
            <path d="M0.7217 24.497H24.6217C25.0217 24.497 25.3517 24.167 25.3517 23.767C25.3517 23.367 25.0217 23.037 24.6217 23.037H24.0017V22.247C24.0017 21.887 23.7917 21.677 23.4217 21.677H22.6717V7.597H23.7517C24.2417 7.597 24.5317 7.247 24.5317 6.867C24.5317 6.607 24.3917 6.367 24.0617 6.177L14.0017 0.377C13.5717 0.127 13.1117 -0.003 12.6717 -0.003C12.2317 -0.003 11.7617 0.127 11.3417 0.377L1.2917 6.177C0.9617 6.367 0.8217 6.607 0.8217 6.867C0.8217 7.247 1.0917 7.597 1.5917 7.597H2.6717V21.677H1.9217C1.5717 21.677 1.3517 21.887 1.3517 22.247V23.037H0.7217C0.3317 23.037 0.0017 23.367 0.0017 23.767C0.0017 24.167 0.3317 24.497 0.7217 24.497ZM12.6817 18.747C12.3517 18.747 12.1217 18.517 12.1217 18.167V16.277H9.7717C9.5717 16.277 9.4317 16.117 9.4317 15.927C9.4317 15.727 9.5717 15.577 9.7717 15.577H12.1217V14.277H9.7717C9.5717 14.277 9.4317 14.117 9.4317 13.937C9.4317 13.737 9.5717 13.577 9.7717 13.577H11.7417L8.7117 8.757C8.6217 8.617 8.5917 8.487 8.5917 8.367C8.5917 8.047 8.8217 7.837 9.1517 7.837C9.4117 7.837 9.5517 7.957 9.6817 8.167L12.6517 13.117H12.7117L15.7017 8.167C15.8317 7.957 16.0117 7.837 16.2217 7.837C16.5317 7.837 16.7817 8.067 16.7817 8.367C16.7817 8.517 16.7417 8.597 16.6617 8.727L13.6217 13.577H15.6517C15.8517 13.577 16.0117 13.737 16.0117 13.937C16.0117 14.117 15.8517 14.277 15.6517 14.277H13.2517V15.577H15.6517C15.8517 15.577 16.0117 15.727 16.0117 15.927C16.0117 16.117 15.8517 16.277 15.6517 16.277H13.2517V18.167C13.2517 18.517 13.0217 18.747 12.6817 18.747Z" />
        </svg>
    