
        <svg xmlns="http://www.w3.org/2000/svg" viewBox="0 0 100 100">
            <path d="M2.0717 14.538C2.0717 14.688 2.2017 14.808 2.3417 14.808H7.2517V20.098C7.2517 20.258 7.4017 20.418 7.5717 20.418C7.7417 20.418 7.8917 20.258 7.8917 20.098V14.808H13.2217C13.3717 14.808 13.5017 14.688 13.5017 14.538C13.5017 14.398 13.3717 14.258 13.2217 14.258H7.8917V11.388L7.9117 11.358H13.2217C13.3717 11.358 13.5017 11.228 13.5017 11.088C13.5017 10.938 13.3717 10.808 13.2217 10.808H8.2717L15.0117 0.578C15.0717 0.488 15.1317 0.388 15.1317 0.318C15.1317 0.118 14.9917 -0.002 14.8117 -0.002C14.6717 -0.002 14.6017 0.098 14.5317 0.188L7.6217 10.698H7.5217L0.6417 0.238C0.5617 0.098 0.4617 -0.002 0.3117 -0.002C0.1517 -0.002 0.0017 0.108 0.0017 0.318C0.0017 0.418 0.0517 0.488 0.1017 0.578L6.8717 10.808H2.3417C2.2017 10.808 2.0717 10.938 2.0717 11.088C2.0717 11.228 2.2017 11.358 2.3417 11.358H7.2317L7.2517 11.388V14.258H2.3417C2.2017 14.258 2.0717 14.398 2.0717 14.538Z" />
        </svg>
    