
        <svg xmlns="http://www.w3.org/2000/svg" viewBox="0 0 100 100">
            <path d="M0.8706 9.7864C-0.0094 9.7864 -0.2294 10.4364 0.2506 11.0964L2.9706 14.8864C3.3406 15.4064 3.9306 15.3964 4.3006 14.8864L7.0206 11.0864C7.4906 10.4364 7.2706 9.7864 6.4006 9.7864H4.8206C5.8606 5.5264 9.6806 2.3764 14.2606 2.3764C19.6306 2.3764 23.9806 6.7264 23.9806 12.1064C23.9806 17.4864 19.6306 21.8164 14.2606 21.8164C11.1206 21.8164 8.3506 20.3364 6.5906 18.0264C6.1206 17.4764 5.4406 17.2964 4.8606 17.7064C4.3306 18.0964 4.2206 18.8564 4.7206 19.4764C6.8606 22.3464 10.4506 24.2064 14.2606 24.2064C20.9406 24.2064 26.3706 18.7864 26.3706 12.1064C26.3706 5.4264 20.9406 -0.0036 14.2606 -0.0036C8.3706 -0.0036 3.4606 4.2064 2.3806 9.7864ZM10.8106 14.8864C10.8106 15.0964 10.9706 15.2664 11.1806 15.2664H13.4706V16.7364C13.4706 17.2264 13.7806 17.5564 14.2606 17.5564C14.7406 17.5564 15.0706 17.2264 15.0706 16.7364V15.2664H17.3706C17.5806 15.2664 17.7606 15.0964 17.7606 14.8864C17.7606 14.6764 17.5806 14.5064 17.3706 14.5064H15.0706V13.2964H17.3706C17.5806 13.2964 17.7606 13.1264 17.7606 12.9164C17.7606 12.7064 17.5806 12.5364 17.3706 12.5364H15.4906L18.3306 7.9464C18.4506 7.7464 18.5106 7.6264 18.5106 7.4064C18.5106 6.9564 18.1406 6.6564 17.7006 6.6564C17.3806 6.6564 17.1206 6.8164 16.9506 7.1364L14.3006 11.7464H14.2506L11.6006 7.1364C11.4306 6.8164 11.2006 6.6464 10.8406 6.6464C10.3806 6.6464 10.0306 6.9464 10.0306 7.4064C10.0306 7.5864 10.0806 7.7664 10.2006 7.9564L13.0306 12.5364H11.1806C10.9706 12.5364 10.8106 12.7064 10.8106 12.9164C10.8106 13.1264 10.9706 13.2964 11.1806 13.2964H13.4706V14.5064H11.1806C10.9706 14.5064 10.8106 14.6764 10.8106 14.8864Z" />
        </svg>
    