
        <svg xmlns="http://www.w3.org/2000/svg" viewBox="0 0 100 100">
            <path d="M1.6017 29.3211H28.4417C29.3017 29.3211 30.0617 28.6211 30.0617 27.7111C30.0617 26.8511 29.3017 26.1111 28.4417 26.1111H27.8517V24.9511C27.8517 24.2311 27.4117 23.8111 26.7217 23.8111H26.3517V9.9111H27.2717C28.3217 9.9111 28.9617 9.1011 28.9617 8.3211C28.9617 7.7411 28.6317 7.2111 27.9617 6.8111L17.0617 0.5311C16.5017 0.2011 15.8317 0.0011 15.2117 0.0011C14.5917 0.0011 13.9217 0.2011 13.3617 0.5311L2.4617 6.8111C1.7917 7.2111 1.4617 7.7411 1.4617 8.3211C1.4617 9.1011 2.1017 9.9111 3.1617 9.9111H4.0617V23.8111H3.7017C3.0117 23.8111 2.5617 24.2311 2.5617 24.9511V26.1111H1.6017C0.7417 26.1111 0.0017 26.8511 0.0017 27.7111C0.0017 28.6011 0.7417 29.3211 1.6017 29.3211ZM15.2217 21.9011C14.3017 21.9011 13.7217 21.2911 13.7217 20.3811V19.8311H11.3317C11.1517 19.8311 11.0117 19.6911 11.0117 19.5111C11.0117 19.3511 11.1517 19.1811 11.3317 19.1811H13.7217V18.2111L13.6217 18.0111H11.3317C11.1517 18.0111 11.0117 17.8711 11.0117 17.7111C11.0117 17.5311 11.1517 17.3811 11.3317 17.3811H13.2217L10.5817 13.0811C10.4017 12.7611 10.2917 12.4011 10.2917 12.0111C10.2917 11.1011 10.9417 10.5211 11.8617 10.5211C12.6217 10.5211 12.9817 10.8711 13.3117 11.5511L15.2217 15.4711H15.2817L17.2017 11.5411C17.5217 10.8411 18.0017 10.5311 18.6317 10.5311C19.5017 10.5311 20.1517 11.1011 20.1517 11.9911C20.1517 12.3711 20.0317 12.7111 19.8317 13.0711L17.2017 17.3811H19.1017C19.2817 17.3811 19.4217 17.5311 19.4217 17.7111C19.4217 17.8711 19.2817 18.0111 19.1017 18.0111H16.8117L16.7117 18.2111V19.1811H19.1017C19.2817 19.1811 19.4217 19.3511 19.4217 19.5111C19.4217 19.6911 19.2817 19.8311 19.1017 19.8311H16.7117V20.3811C16.7117 21.2911 16.1417 21.9011 15.2217 21.9011Z" />
        </svg>
    