
        <svg xmlns="http://www.w3.org/2000/svg" viewBox="0 0 100 100">
            <path d="M11.3523 22.7064C17.6023 22.7064 22.7123 17.6064 22.7123 11.3564C22.7123 5.1064 17.6023 -0.0036 11.3523 -0.0036C5.1123 -0.0036 0.0023 5.1064 0.0023 11.3564C0.0023 17.6064 5.1123 22.7064 11.3523 22.7064ZM11.3523 16.3864C11.1823 16.3864 11.0523 16.2564 11.0523 16.0664V13.8364H8.7623C8.6523 13.8364 8.5423 13.7364 8.5423 13.6164C8.5423 13.4964 8.6523 13.3964 8.7623 13.3964H11.0523V12.0464H8.7623C8.6523 12.0464 8.5423 11.9364 8.5423 11.8264C8.5423 11.7064 8.6523 11.6064 8.7623 11.6064H10.8023L7.7223 6.8364C7.6723 6.7664 7.6423 6.6864 7.6423 6.6164C7.6423 6.4464 7.7623 6.3264 7.9323 6.3264C8.0623 6.3264 8.1523 6.3964 8.2223 6.5164L11.3323 11.4064H11.3923L14.5123 6.5164C14.5823 6.3964 14.6523 6.3264 14.7823 6.3264C14.9423 6.3264 15.0823 6.4464 15.0823 6.6164C15.0823 6.6864 15.0623 6.7464 15.0223 6.7964L11.9223 11.6064H14.1123C14.2223 11.6064 14.3223 11.7064 14.3223 11.8264C14.3223 11.9364 14.2223 12.0464 14.1123 12.0464H11.6623V13.3964H14.1123C14.2223 13.3964 14.3223 13.4964 14.3223 13.6164C14.3223 13.7364 14.2223 13.8364 14.1123 13.8364H11.6623V16.0664C11.6623 16.2564 11.5323 16.3864 11.3523 16.3864Z" />
        </svg>
    