
        <svg xmlns="http://www.w3.org/2000/svg" viewBox="0 0 100 100">
            <path d="M26.7423 13.3289C26.7423 6.3189 21.3423 0.5589 14.4723 0.0089C14.1123 -0.0411 13.8123 0.2389 13.8123 0.6189V3.8989C13.8123 4.2089 14.0423 4.4689 14.3823 4.4889C18.7923 4.9889 22.2523 8.7589 22.2523 13.3289C22.2523 15.4289 21.5423 17.3589 20.3123 18.8589C20.1023 19.1189 20.1023 19.4389 20.3423 19.6689L22.6723 21.9989C22.9423 22.2589 23.3423 22.2589 23.5823 21.9689C25.5423 19.6389 26.7423 16.6189 26.7423 13.3289ZM0.0023 13.3289C0.0023 16.6389 1.2023 19.6689 3.2023 21.9989C3.4223 22.2689 3.7923 22.2589 4.0623 21.9989L6.4123 19.6689C6.6423 19.4389 6.6423 19.1189 6.4323 18.8589C5.2123 17.3589 4.4923 15.4289 4.4923 13.3289C4.4923 8.7589 7.9423 4.9889 12.3723 4.4889C12.7023 4.4689 12.9223 4.2089 12.9223 3.8989V0.6189C12.9223 0.2389 12.6423 -0.0411 12.2723 0.0089C5.4123 0.5589 0.0023 6.3189 0.0023 13.3289ZM10.5623 15.7389C10.5623 15.8589 10.6623 15.9689 10.7823 15.9689H13.0623V18.1889C13.0623 18.3789 13.1923 18.5089 13.3723 18.5089C13.5423 18.5089 13.6923 18.3789 13.6923 18.1889V15.9689H16.1223C16.2423 15.9689 16.3523 15.8589 16.3523 15.7389C16.3523 15.6289 16.2423 15.5189 16.1223 15.5189H13.6923V14.1689H16.1223C16.2423 14.1689 16.3523 14.0789 16.3523 13.9589C16.3523 13.8289 16.2423 13.7389 16.1223 13.7389H13.9323L17.0523 8.9089C17.0723 8.8789 17.1123 8.8189 17.1123 8.7489C17.1123 8.5689 16.9523 8.4589 16.7923 8.4589C16.6623 8.4589 16.5923 8.5289 16.5223 8.6389L13.4023 13.5289H13.3523L10.2423 8.6389C10.1723 8.5289 10.0823 8.4589 9.9523 8.4589C9.7723 8.4589 9.6523 8.5689 9.6523 8.7489C9.6523 8.8189 9.6923 8.8889 9.7223 8.9589L12.8123 13.7389H10.7823C10.6623 13.7389 10.5623 13.8289 10.5623 13.9589C10.5623 14.0789 10.6623 14.1689 10.7823 14.1689H13.0623V15.5189H10.7823C10.6623 15.5189 10.5623 15.6289 10.5623 15.7389Z" />
        </svg>
    