
        <svg xmlns="http://www.w3.org/2000/svg" viewBox="0 0 100 100">
            <path d="M11.4923 22.977C17.8123 22.977 22.9823 17.827 22.9823 11.497C22.9823 5.167 17.8123 -0.003 11.4923 -0.003C5.1723 -0.003 0.0023 5.167 0.0023 11.497C0.0023 17.827 5.1723 22.977 11.4923 22.977ZM7.3323 9.237C6.4223 9.237 5.6823 8.497 5.6823 7.577C5.6823 6.667 6.4223 5.927 7.3323 5.927C8.2523 5.927 8.9923 6.667 8.9923 7.577C8.9923 8.497 8.2523 9.237 7.3323 9.237ZM11.4923 9.247C10.5823 9.247 9.8423 8.507 9.8423 7.597C9.8423 6.677 10.5823 5.937 11.4923 5.937C12.4123 5.937 13.1523 6.677 13.1523 7.597C13.1523 8.507 12.4123 9.247 11.4923 9.247ZM15.6523 9.257C14.7323 9.257 14.0023 8.517 14.0023 7.607C14.0023 6.687 14.7323 5.957 15.6523 5.957C16.5723 5.957 17.2923 6.687 17.2923 7.607C17.2923 8.517 16.5723 9.257 15.6523 9.257ZM7.3323 13.137C6.4223 13.137 5.6823 12.397 5.6823 11.487C5.6823 10.567 6.4223 9.827 7.3323 9.827C8.2523 9.827 8.9923 10.567 8.9923 11.487C8.9923 12.397 8.2523 13.137 7.3323 13.137ZM11.4923 13.147C10.5823 13.147 9.8423 12.407 9.8423 11.497C9.8423 10.577 10.5823 9.847 11.4923 9.847C12.4123 9.847 13.1523 10.577 13.1523 11.497C13.1523 12.407 12.4123 13.147 11.4923 13.147ZM15.6523 13.157C14.7323 13.157 14.0023 12.417 14.0023 11.507C14.0023 10.597 14.7323 9.857 15.6523 9.857C16.5723 9.857 17.2923 10.597 17.2923 11.507C17.2923 12.417 16.5723 13.157 15.6523 13.157ZM7.3323 17.017C6.4223 17.017 5.6823 16.287 5.6823 15.367C5.6823 14.447 6.4223 13.727 7.3323 13.727C8.2523 13.727 8.9923 14.447 8.9923 15.367C8.9923 16.287 8.2523 17.017 7.3323 17.017ZM11.4923 17.027C10.5823 17.027 9.8423 16.297 9.8423 15.387C9.8423 14.457 10.5823 13.737 11.4923 13.737C12.4123 13.737 13.1523 14.457 13.1523 15.387C13.1523 16.297 12.4123 17.027 11.4923 17.027ZM15.6523 17.037C14.7323 17.037 14.0023 16.317 14.0023 15.397C14.0023 14.477 14.7323 13.747 15.6523 13.747C16.5723 13.747 17.2923 14.477 17.2923 15.397C17.2923 16.317 16.5723 17.037 15.6523 17.037Z" />
        </svg>
    