
        <svg xmlns="http://www.w3.org/2000/svg" viewBox="0 0 100 100">
            <path d="M11.9523 23.9041C18.5523 23.9041 23.9023 18.5341 23.9023 11.9541C23.9023 5.3541 18.5523 0.0041 11.9523 0.0041C5.3623 0.0041 0.0023 5.3541 0.0023 11.9541C0.0023 18.5341 5.3623 23.9041 11.9523 23.9041ZM7.7423 9.6641C6.8223 9.6641 6.0723 8.9341 6.0723 8.0041C6.0723 7.0741 6.8223 6.3241 7.7423 6.3241C8.6623 6.3241 9.4123 7.0741 9.4123 8.0041C9.4123 8.9341 8.6623 9.6641 7.7423 9.6641ZM11.9523 9.6641C11.0323 9.6641 10.2923 8.9341 10.2923 8.0041C10.2923 7.0741 11.0323 6.3441 11.9523 6.3441C12.8823 6.3441 13.6123 7.0741 13.6123 8.0041C13.6123 8.9341 12.8823 9.6641 11.9523 9.6641ZM16.1723 9.6841C15.2423 9.6841 14.4923 8.9341 14.4923 8.0041C14.4923 7.0741 15.2423 6.3441 16.1723 6.3441C17.1023 6.3441 17.8323 7.0741 17.8323 8.0041C17.8323 8.9341 17.1023 9.6841 16.1723 9.6841ZM7.7423 13.6141C6.8223 13.6141 6.0723 12.8641 6.0723 11.9541C6.0723 11.0241 6.8223 10.2741 7.7423 10.2741C8.6623 10.2741 9.4123 11.0241 9.4123 11.9541C9.4123 12.8641 8.6623 13.6141 7.7423 13.6141ZM11.9523 13.6141C11.0323 13.6141 10.2923 12.8741 10.2923 11.9541C10.2923 11.0241 11.0323 10.2741 11.9523 10.2741C12.8823 10.2741 13.6123 11.0241 13.6123 11.9541C13.6123 12.8741 12.8823 13.6141 11.9523 13.6141ZM16.1723 13.6241C15.2423 13.6241 14.4923 12.8741 14.4923 11.9541C14.4923 11.0241 15.2423 10.2841 16.1723 10.2841C17.1023 10.2841 17.8323 11.0241 17.8323 11.9541C17.8323 12.8741 17.1023 13.6241 16.1723 13.6241ZM7.7423 17.5541C6.8223 17.5541 6.0723 16.8041 6.0723 15.8741C6.0723 14.9541 6.8223 14.2141 7.7423 14.2141C8.6623 14.2141 9.4123 14.9541 9.4123 15.8741C9.4123 16.8041 8.6623 17.5541 7.7423 17.5541ZM11.9523 17.5541C11.0323 17.5541 10.2923 16.8041 10.2923 15.8741C10.2923 14.9641 11.0323 14.2141 11.9523 14.2141C12.8823 14.2141 13.6123 14.9641 13.6123 15.8741C13.6123 16.8041 12.8823 17.5541 11.9523 17.5541ZM16.1723 17.5541C15.2423 17.5541 14.4923 16.8141 14.4923 15.8941C14.4923 14.9641 15.2423 14.2141 16.1723 14.2141C17.1023 14.2141 17.8323 14.9641 17.8323 15.8941C17.8323 16.8141 17.1023 17.5541 16.1723 17.5541Z" />
        </svg>
    