
        <svg xmlns="http://www.w3.org/2000/svg" viewBox="0 0 100 100">
            <path d="M0.0017 6.0697H0.5717V3.0397C0.5717 1.4097 1.4217 0.5697 3.0317 0.5697H6.0717V-0.0003H3.0117C1.0417 -0.0003 0.0017 1.0397 0.0017 3.0097ZM27.0617 6.0697V3.0097C27.0617 1.0397 26.0117 -0.0003 24.0617 -0.0003H20.9917V0.5697H24.0217C25.6517 0.5697 26.4817 1.4097 26.4817 3.0397V6.0697ZM6.9617 0.5697H13.0917V-0.0003H6.9617ZM13.9717 0.5697H20.1117V-0.0003H13.9717ZM13.1817 16.2697C16.5117 16.2697 19.1917 13.5797 19.1917 10.2397C19.1917 6.9097 16.5117 4.2297 13.1817 4.2297C9.8517 4.2297 7.1617 6.9097 7.1617 10.2397C7.1617 13.5797 9.8517 16.2697 13.1817 16.2697ZM13.1817 15.6797C10.0917 15.6797 7.7417 13.3397 7.7417 10.2397C7.7417 7.1597 10.0917 4.7997 13.1817 4.7997C16.2617 4.7997 18.6217 7.1597 18.6217 10.2397C18.6217 13.3397 16.2617 15.6797 13.1817 15.6797ZM0.0017 13.5497H0.5717V6.9497H0.0017ZM27.0617 13.5497V6.9497H26.4817V13.5497ZM3.0117 20.4997H6.0717V19.9197H3.0317C1.4217 19.9197 0.5717 19.0797 0.5717 17.4597V14.4297H0.0017V17.4797C0.0017 19.4497 1.0417 20.4997 3.0117 20.4997ZM24.0617 20.4997C26.0117 20.4997 27.0617 19.4497 27.0617 17.4797V14.4297H26.4817V17.4597C26.4817 19.0797 25.6517 19.9197 24.0217 19.9197H20.9917V20.4997ZM6.9617 20.4997H13.0917V19.9197H6.9617ZM13.9717 20.4997H20.1117V19.9197H13.9717Z" />
        </svg>
    