
        <svg xmlns="http://www.w3.org/2000/svg" viewBox="0 0 100 100">
            <path d="M12.6023 25.1986C19.5623 25.1986 25.2023 19.5586 25.2023 12.5986C25.2023 5.6386 19.5623 -0.0014 12.6023 -0.0014C5.6323 -0.0014 0.0023 5.6386 0.0023 12.5986C0.0023 19.5586 5.6323 25.1986 12.6023 25.1986ZM12.6023 21.5386C7.6523 21.5386 3.6523 17.5386 3.6523 12.5986C3.6523 7.6486 7.6523 3.6586 12.6023 3.6586C17.5423 3.6586 21.5423 7.6486 21.5423 12.5986C21.5423 17.5386 17.5423 21.5386 12.6023 21.5386ZM12.6023 8.7186C13.1523 8.7186 13.5823 8.2986 13.5823 7.7386C13.5823 7.1786 13.1523 6.7486 12.6023 6.7486C12.0423 6.7486 11.6123 7.1786 11.6123 7.7386C11.6123 8.2986 12.0423 8.7186 12.6023 8.7186ZM15.0423 9.3586C15.6023 9.3586 16.0323 8.9286 16.0323 8.3786C16.0323 7.8286 15.6023 7.3986 15.0423 7.3986C14.4823 7.3986 14.0523 7.8286 14.0523 8.3786C14.0523 8.9286 14.4823 9.3586 15.0423 9.3586ZM10.1523 9.3586C10.7123 9.3586 11.1423 8.9286 11.1423 8.3786C11.1423 7.8286 10.7123 7.3986 10.1523 7.3986C9.6023 7.3986 9.1623 7.8286 9.1623 8.3786C9.1623 8.9286 9.6023 9.3586 10.1523 9.3586ZM16.8323 11.1586C17.3923 11.1586 17.8123 10.7186 17.8123 10.1686C17.8123 9.6086 17.3923 9.1786 16.8323 9.1786C16.2823 9.1786 15.8423 9.6086 15.8423 10.1686C15.8423 10.7186 16.2823 11.1586 16.8323 11.1586ZM8.3623 11.1586C8.9223 11.1586 9.3523 10.7186 9.3523 10.1686C9.3523 9.6086 8.9223 9.1786 8.3623 9.1786C7.8023 9.1786 7.3823 9.6086 7.3823 10.1686C7.3823 10.7186 7.8023 11.1586 8.3623 11.1586ZM17.4823 13.5786C18.0323 13.5786 18.4723 13.1586 18.4723 12.5986C18.4723 12.0486 18.0323 11.6086 17.4823 11.6086C16.9223 11.6086 16.5023 12.0486 16.5023 12.5986C16.5023 13.1586 16.9223 13.5786 17.4823 13.5786ZM7.7123 13.5786C8.2723 13.5786 8.6923 13.1586 8.6923 12.5986C8.6923 12.0486 8.2723 11.6086 7.7123 11.6086C7.1623 11.6086 6.7223 12.0486 6.7223 12.5986C6.7223 13.1586 7.1623 13.5786 7.7123 13.5786ZM16.8323 16.0186C17.3923 16.0186 17.8123 15.5886 17.8123 15.0386C17.8123 14.4686 17.3923 14.0486 16.8323 14.0486C16.2823 14.0486 15.8423 14.4686 15.8423 15.0386C15.8423 15.5886 16.2823 16.0186 16.8323 16.0186ZM8.3623 16.0186C8.9223 16.0186 9.3523 15.5886 9.3523 15.0386C9.3523 14.4686 8.9223 14.0486 8.3623 14.0486C7.8023 14.0486 7.3823 14.4686 7.3823 15.0386C7.3823 15.5886 7.8023 16.0186 8.3623 16.0186ZM15.0423 17.8086C15.6023 17.8086 16.0323 17.3786 16.0323 16.8286C16.0323 16.2686 15.6023 15.8286 15.0423 15.8286C14.4823 15.8286 14.0523 16.2686 14.0523 16.8286C14.0523 17.3786 14.4823 17.8086 15.0423 17.8086ZM10.1523 17.8086C10.7123 17.8086 11.1423 17.3786 11.1423 16.8286C11.1423 16.2686 10.7123 15.8286 10.1523 15.8286C9.6023 15.8286 9.1623 16.2686 9.1623 16.8286C9.1623 17.3786 9.6023 17.8086 10.1523 17.8086ZM12.6023 18.4486C13.1523 18.4486 13.5823 18.0186 13.5823 17.4586C13.5823 16.9086 13.1523 16.4786 12.6023 16.4786C12.0423 16.4786 11.6123 16.9086 11.6123 17.4586C11.6123 18.0186 12.0423 18.4486 12.6023 18.4486Z" />
        </svg>
    