
        <svg xmlns="http://www.w3.org/2000/svg" viewBox="0 0 100 100">
            <path d="M8.0123 7.6047C10.1223 7.6047 11.8223 5.9047 11.8223 3.7947C11.8223 1.6947 10.1223 0.0047 8.0123 0.0047C5.9023 0.0047 4.2023 1.6947 4.2023 3.7947C4.2023 5.9047 5.9023 7.6047 8.0123 7.6047ZM16.4523 7.6047C18.5523 7.6047 20.2523 5.9047 20.2523 3.7947C20.2523 1.6947 18.5523 0.0047 16.4523 0.0047C14.3423 0.0047 12.6423 1.6947 12.6423 3.7947C12.6423 5.9047 14.3423 7.6047 16.4523 7.6047ZM8.0123 6.1547C6.7123 6.1547 5.6623 5.0947 5.6623 3.7947C5.6623 2.5047 6.7123 1.4447 8.0123 1.4447C9.3123 1.4447 10.3723 2.5047 10.3723 3.7947C10.3723 5.0947 9.3123 6.1547 8.0123 6.1547ZM16.4523 6.1547C15.1523 6.1547 14.0823 5.0947 14.0823 3.7947C14.0823 2.5047 15.1523 1.4447 16.4523 1.4447C17.7423 1.4447 18.8123 2.5047 18.8123 3.7947C18.8123 5.0947 17.7423 6.1547 16.4523 6.1547ZM12.2323 15.1547C14.3323 15.1547 16.0423 13.4547 16.0423 11.3447C16.0423 9.2347 14.3323 7.5347 12.2323 7.5347C10.1223 7.5347 8.4223 9.2347 8.4223 11.3447C8.4223 13.4547 10.1223 15.1547 12.2323 15.1547ZM3.8123 15.1547C5.9023 15.1547 7.6123 13.4547 7.6123 11.3447C7.6123 9.2347 5.9023 7.5347 3.8123 7.5347C1.7023 7.5347 0.0023 9.2347 0.0023 11.3447C0.0023 13.4547 1.7023 15.1547 3.8123 15.1547ZM20.6623 15.1547C22.7623 15.1547 24.4723 13.4547 24.4723 11.3447C24.4723 9.2347 22.7623 7.5347 20.6623 7.5347C18.5523 7.5347 16.8523 9.2347 16.8523 11.3447C16.8523 13.4547 18.5523 15.1547 20.6623 15.1547ZM12.2323 13.6947C10.9323 13.6947 9.8823 12.6447 9.8823 11.3447C9.8823 10.0447 10.9323 8.9847 12.2323 8.9847C13.5223 8.9847 14.5923 10.0447 14.5923 11.3447C14.5923 12.6447 13.5223 13.6947 12.2323 13.6947ZM3.8123 13.6947C2.5123 13.6947 1.4523 12.6447 1.4523 11.3447C1.4523 10.0447 2.5123 8.9847 3.8123 8.9847C5.1123 8.9847 6.1623 10.0447 6.1623 11.3447C6.1623 12.6447 5.1123 13.6947 3.8123 13.6947ZM20.6623 13.6947C19.3623 13.6947 18.3023 12.6447 18.3023 11.3447C18.3023 10.0447 19.3623 8.9847 20.6623 8.9847C21.9523 8.9847 23.0123 10.0447 23.0123 11.3447C23.0123 12.6447 21.9523 13.6947 20.6623 13.6947ZM8.0123 22.6947C10.1223 22.6947 11.8223 21.0047 11.8223 18.8947C11.8223 16.7847 10.1223 15.0847 8.0123 15.0847C5.9023 15.0847 4.2023 16.7847 4.2023 18.8947C4.2023 21.0047 5.9023 22.6947 8.0123 22.6947ZM16.4523 22.6947C18.5523 22.6947 20.2523 21.0047 20.2523 18.8947C20.2523 16.7847 18.5523 15.0847 16.4523 15.0847C14.3423 15.0847 12.6423 16.7847 12.6423 18.8947C12.6423 21.0047 14.3423 22.6947 16.4523 22.6947ZM8.0123 21.2447C6.7123 21.2447 5.6623 20.1947 5.6623 18.8947C5.6623 17.5947 6.7123 16.5347 8.0123 16.5347C9.3123 16.5347 10.3723 17.5947 10.3723 18.8947C10.3723 20.1947 9.3123 21.2447 8.0123 21.2447ZM16.4523 21.2447C15.1523 21.2447 14.0823 20.1947 14.0823 18.8947C14.0823 17.5947 15.1523 16.5347 16.4523 16.5347C17.7423 16.5347 18.8123 17.5947 18.8123 18.8947C18.8123 20.1947 17.7423 21.2447 16.4523 21.2447Z" />
        </svg>
    