
        <svg xmlns="http://www.w3.org/2000/svg" viewBox="0 0 100 100">
            <path d="M3.1617 20.742H17.5917C19.6617 20.742 20.7417 19.642 20.7417 17.592V3.152C20.7417 1.102 19.6617 0.002 17.5917 0.002H3.1617C1.0917 0.002 0.0017 1.082 0.0017 3.152V17.592C0.0017 19.662 1.0917 20.742 3.1617 20.742ZM3.1917 19.872C1.6617 19.872 0.8717 19.082 0.8717 17.552V3.202C0.8717 1.662 1.6617 0.872 3.1917 0.872H17.5517C19.0317 0.872 19.8717 1.662 19.8717 3.202V17.552C19.8717 19.082 19.0317 19.872 17.5517 19.872ZM10.3817 16.582C13.8117 16.582 16.5917 13.802 16.5917 10.372C16.5917 6.942 13.8117 4.162 10.3817 4.162C6.9517 4.162 4.1717 6.942 4.1717 10.372C4.1717 13.802 6.9517 16.582 10.3817 16.582ZM10.3817 15.712C7.4317 15.712 5.0417 13.322 5.0417 10.372C5.0417 7.422 7.4317 5.032 10.3817 5.032C13.3217 5.032 15.7217 7.422 15.7217 10.372C15.7217 13.322 13.3217 15.712 10.3817 15.712Z" />
        </svg>
    