
        <svg xmlns="http://www.w3.org/2000/svg" viewBox="0 0 100 100">
            <path d="M3.4217 6.8353C5.3117 6.8353 6.8417 5.2953 6.8417 3.4053C6.8417 1.5253 5.3117 -0.0047 3.4217 -0.0047C1.5317 -0.0047 0.0117 1.5253 0.0117 3.4053C0.0117 5.2953 1.5317 6.8353 3.4217 6.8353ZM12.0617 6.8353C13.9417 6.8353 15.4717 5.2953 15.4717 3.4053C15.4717 1.5253 13.9417 -0.0047 12.0617 -0.0047C10.1717 -0.0047 8.6417 1.5253 8.6417 3.4053C8.6417 5.2953 10.1717 6.8353 12.0617 6.8353ZM20.6817 6.8353C22.5717 6.8353 24.1017 5.2953 24.1017 3.4053C24.1017 1.5253 22.5717 -0.0047 20.6817 -0.0047C18.8017 -0.0047 17.2717 1.5253 17.2717 3.4053C17.2717 5.2953 18.8017 6.8353 20.6817 6.8353ZM3.4217 14.9053C5.3017 14.9053 6.8317 13.3753 6.8317 11.4953C6.8317 9.6053 5.3017 8.0753 3.4217 8.0753C1.5317 8.0753 0.0017 9.6053 0.0017 11.4953C0.0017 13.3753 1.5317 14.9053 3.4217 14.9053ZM12.0517 14.9053C13.9317 14.9053 15.4717 13.3753 15.4717 11.4953C15.4717 9.6053 13.9317 8.0753 12.0517 8.0753C10.1617 8.0753 8.6217 9.6053 8.6217 11.4953C8.6217 13.3753 10.1617 14.9053 12.0517 14.9053ZM20.6817 14.9053C22.5617 14.9053 24.0917 13.3753 24.0917 11.4953C24.0917 9.6053 22.5617 8.0753 20.6817 8.0753C18.8017 8.0753 17.2617 9.6053 17.2617 11.4953C17.2617 13.3753 18.8017 14.9053 20.6817 14.9053ZM3.4217 22.9853C5.3017 22.9853 6.8317 21.4553 6.8317 19.5653C6.8317 17.6853 5.3017 16.1453 3.4217 16.1453C1.5317 16.1453 0.0017 17.6853 0.0017 19.5653C0.0017 21.4553 1.5317 22.9853 3.4217 22.9853ZM12.0517 22.9853C13.9317 22.9853 15.4717 21.4553 15.4717 19.5653C15.4717 17.6853 13.9317 16.1453 12.0517 16.1453C10.1617 16.1453 8.6217 17.6853 8.6217 19.5653C8.6217 21.4553 10.1617 22.9853 12.0517 22.9853ZM20.6817 22.9853C22.5617 22.9853 24.0917 21.4553 24.0917 19.5653C24.0917 17.6853 22.5617 16.1453 20.6817 16.1453C18.8017 16.1453 17.2617 17.6853 17.2617 19.5653C17.2617 21.4553 18.8017 22.9853 20.6817 22.9853Z" />
        </svg>
    