
        <svg xmlns="http://www.w3.org/2000/svg" viewBox="0 0 100 100">
            <path d="M11.3523 22.7064C17.6323 22.7064 22.7123 17.6264 22.7123 11.3564C22.7123 5.0764 17.6323 -0.0036 11.3523 -0.0036C5.0823 -0.0036 0.0023 5.0764 0.0023 11.3564C0.0023 17.6264 5.0823 22.7064 11.3523 22.7064ZM11.3523 22.1364C5.3923 22.1364 0.5723 17.3164 0.5723 11.3564C0.5723 5.3864 5.3923 0.5764 11.3523 0.5764C17.3223 0.5764 22.1323 5.3864 22.1323 11.3564C22.1323 17.3164 17.3223 22.1364 11.3523 22.1364ZM11.3523 6.7164C11.6823 6.7164 11.9523 6.4464 11.9523 6.1164C11.9523 5.7864 11.6823 5.5164 11.3523 5.5164C11.0323 5.5164 10.7723 5.7864 10.7723 6.1164C10.7723 6.4464 11.0323 6.7164 11.3523 6.7164ZM13.9823 7.4164C14.2923 7.4164 14.5623 7.1464 14.5623 6.8164C14.5623 6.4964 14.2923 6.2264 13.9823 6.2264C13.6523 6.2264 13.3823 6.4964 13.3823 6.8164C13.3823 7.1464 13.6523 7.4164 13.9823 7.4164ZM8.7423 7.4164C9.0723 7.4164 9.3423 7.1464 9.3423 6.8164C9.3423 6.4964 9.0723 6.2264 8.7423 6.2264C8.4123 6.2264 8.1423 6.4964 8.1423 6.8164C8.1423 7.1464 8.4123 7.4164 8.7423 7.4164ZM15.9023 9.3364C16.2323 9.3364 16.5023 9.0864 16.5023 8.7564C16.5023 8.4264 16.2323 8.1564 15.9023 8.1564C15.5723 8.1564 15.3123 8.4264 15.3123 8.7564C15.3123 9.0864 15.5723 9.3364 15.9023 9.3364ZM6.8123 9.3364C7.1323 9.3364 7.4023 9.0864 7.4023 8.7564C7.4023 8.4264 7.1323 8.1564 6.8123 8.1564C6.4823 8.1564 6.2123 8.4264 6.2123 8.7564C6.2123 9.0864 6.4823 9.3364 6.8123 9.3364ZM16.6023 11.9664C16.9323 11.9664 17.2023 11.6964 17.2023 11.3664C17.2023 11.0364 16.9323 10.7664 16.6023 10.7664C16.2823 10.7664 16.0223 11.0364 16.0223 11.3664C16.0223 11.6964 16.2823 11.9664 16.6023 11.9664ZM6.1023 11.9664C6.4323 11.9664 6.7023 11.6964 6.7023 11.3664C6.7023 11.0364 6.4323 10.7664 6.1023 10.7664C5.7823 10.7664 5.5223 11.0364 5.5223 11.3664C5.5223 11.6964 5.7823 11.9664 6.1023 11.9664ZM15.9023 14.5764C16.2323 14.5764 16.5023 14.3064 16.5023 13.9764C16.5023 13.6664 16.2323 13.3964 15.9023 13.3964C15.5723 13.3964 15.3123 13.6664 15.3123 13.9764C15.3123 14.3064 15.5723 14.5764 15.9023 14.5764ZM6.8123 14.5764C7.1323 14.5764 7.4023 14.3064 7.4023 13.9764C7.4023 13.6664 7.1323 13.3964 6.8123 13.3964C6.4823 13.3964 6.2123 13.6664 6.2123 13.9764C6.2123 14.3064 6.4823 14.5764 6.8123 14.5764ZM13.9823 16.5164C14.2923 16.5164 14.5623 16.2464 14.5623 15.9164C14.5623 15.5864 14.2923 15.3164 13.9823 15.3164C13.6523 15.3164 13.3823 15.5864 13.3823 15.9164C13.3823 16.2464 13.6523 16.5164 13.9823 16.5164ZM8.7423 16.5164C9.0723 16.5164 9.3423 16.2464 9.3423 15.9164C9.3423 15.5864 9.0723 15.3164 8.7423 15.3164C8.4123 15.3164 8.1423 15.5864 8.1423 15.9164C8.1423 16.2464 8.4123 16.5164 8.7423 16.5164ZM11.3523 17.2164C11.6823 17.2164 11.9523 16.9464 11.9523 16.6164C11.9523 16.2864 11.6823 16.0164 11.3523 16.0164C11.0323 16.0164 10.7723 16.2864 10.7723 16.6164C10.7723 16.9464 11.0323 17.2164 11.3523 17.2164Z" />
        </svg>
    