
        <svg xmlns="http://www.w3.org/2000/svg" viewBox="0 0 100 100">
            <path d="M0.0017 6.27H2.6117V4.21C2.6117 3.13 3.1617 2.61 4.1917 2.61H6.2217V0H3.9717C1.3817 0 0.0017 1.37 0.0017 3.94ZM27.8517 6.27V3.94C27.8517 1.37 26.4717 0 23.8817 0H21.6217V2.61H23.6617C24.6917 2.61 25.2417 3.13 25.2417 4.21V6.27ZM8.0117 2.61H13.0317V0H8.0117ZM14.8217 2.61H19.8317V0H14.8217ZM13.8917 17.5C17.4517 17.5 20.3317 14.61 20.3317 11.05C20.3317 7.5 17.4517 4.62 13.8917 4.62C10.3317 4.62 7.4517 7.5 7.4517 11.05C7.4517 14.61 10.3317 17.5 13.8917 17.5ZM13.8917 15.69C11.3117 15.69 9.2417 13.63 9.2417 11.05C9.2417 8.47 11.3117 6.41 13.8917 6.41C16.4717 6.41 18.5317 8.47 18.5317 11.05C18.5317 13.63 16.4717 15.69 13.8917 15.69ZM0.0017 14.05H2.6117V8.06H0.0017ZM27.8517 14.05V8.06H25.2417V14.05ZM3.9717 22.1H6.2217V19.5H4.1917C3.1617 19.5 2.6117 18.97 2.6117 17.89V15.84H0.0017V18.18C0.0017 20.74 1.3817 22.1 3.9717 22.1ZM23.8817 22.1C26.4717 22.1 27.8517 20.74 27.8517 18.18V15.84H25.2417V17.89C25.2417 18.97 24.6917 19.5 23.6617 19.5H21.6217V22.1ZM8.0117 22.1H13.0317V19.5H8.0117ZM14.8217 22.1H19.8317V19.5H14.8217Z" />
        </svg>
    