
        <svg xmlns="http://www.w3.org/2000/svg" viewBox="0 0 100 100">
            <path d="M12.2223 24.4436C18.9723 24.4436 24.4423 18.9736 24.4423 12.2236C24.4423 5.4736 18.9723 0.0036 12.2223 0.0036C5.4723 0.0036 0.0023 5.4736 0.0023 12.2236C0.0023 18.9736 5.4723 24.4436 12.2223 24.4436ZM6.1323 18.3036V19.5536C4.0223 17.8136 2.6823 15.1736 2.6823 12.2236C2.6823 6.9536 6.9523 2.6836 12.2223 2.6836C15.1723 2.6836 17.8223 4.0336 19.5723 6.1336H18.3023V7.6536H19.8323V6.4536C20.1123 6.8336 20.3623 7.2336 20.6023 7.6536H19.8323V9.1736H21.2723C21.2923 9.2536 21.3123 9.3236 21.3423 9.4136V10.7036H21.6423C21.7123 11.1936 21.7623 11.6936 21.7623 12.2136H21.3423V13.7436H21.6423C21.5723 14.1836 21.4723 14.6136 21.3423 15.0236V13.7436H19.8323V15.2736H21.2723C21.0823 15.7936 20.8623 16.3036 20.6023 16.7836H19.8323V17.9836C19.7423 18.0936 19.6523 18.2036 19.5723 18.3036H18.3023V19.5836C18.2023 19.6636 18.0923 19.7436 17.9723 19.8236H16.7823V20.6036C16.3023 20.8736 15.7823 21.0936 15.2623 21.2736V19.8236H13.7323V21.3536H15.0023C14.5923 21.4736 14.1723 21.5736 13.7323 21.6436V21.3536H12.2123V21.7636C11.6923 21.7636 11.1923 21.7136 10.6923 21.6336V21.3536H9.4423C9.3523 21.3136 9.2623 21.2936 9.1623 21.2536V19.8236H7.6523V20.5936C7.2323 20.3636 6.8423 20.1136 6.4723 19.8236H7.6523V18.3036ZM16.7823 7.6536V9.1736H18.3023V7.6536ZM15.2623 9.1736V10.7036H16.7823V9.1736ZM18.3023 9.1736V10.7036H19.8323V9.1736ZM13.7323 10.7036V12.2136H15.2623V10.7036ZM19.8323 10.7036V12.2136H21.3423V10.7036ZM16.7823 10.7036V12.2136H18.3023V10.7036ZM18.3023 12.2136V13.7436H19.8323V12.2136ZM15.2623 12.2136V13.7436H16.7823V12.2136ZM12.2123 12.2136V13.7436H13.7323V12.2136ZM13.7323 13.7436V15.2736H15.2623V13.7436ZM16.7823 13.7436V15.2736H18.3023V13.7436ZM10.6923 13.7436V15.2736H12.2123V13.7436ZM12.2123 15.2736V16.7836H13.7323V15.2736ZM9.1623 15.2736V16.7836H10.6923V15.2736ZM18.3023 15.2736V16.7836H19.8323V15.2736ZM15.2623 15.2736V16.7836H16.7823V15.2736ZM7.6523 16.7836V18.3036H9.1623V16.7836ZM10.6923 16.7836V18.3036H12.2123V16.7836ZM13.7323 16.7836V18.3036H15.2623V16.7836ZM16.7823 16.7836V18.3036H18.3023V16.7836ZM9.1623 18.3036V19.8236H10.6923V18.3036ZM12.2123 18.3036V19.8236H13.7323V18.3036ZM15.2623 18.3036V19.8236H16.7823V18.3036ZM10.6923 19.8236V21.3536H12.2123V19.8236Z" />
        </svg>
    