
        <svg xmlns="http://www.w3.org/2000/svg" viewBox="0 0 100 100">
            <path d="M11.7523 23.5048C18.2323 23.5048 23.5123 18.2348 23.5123 11.7548C23.5123 5.2748 18.2323 0.0048 11.7523 0.0048C5.2723 0.0048 0.0023 5.2748 0.0023 11.7548C0.0023 18.2348 5.2723 23.5048 11.7523 23.5048ZM7.5723 9.4848C6.6423 9.4848 5.9023 8.7448 5.9023 7.8148C5.9023 6.9048 6.6423 6.1548 7.5723 6.1548C8.4823 6.1548 9.2223 6.9048 9.2223 7.8148C9.2223 8.7448 8.4823 9.4848 7.5723 9.4848ZM11.7523 9.4848C10.8423 9.4848 10.0923 8.7448 10.0923 7.8248C10.0923 6.9048 10.8423 6.1648 11.7523 6.1648C12.6823 6.1648 13.4223 6.9048 13.4223 7.8248C13.4223 8.7448 12.6823 9.4848 11.7523 9.4848ZM15.9523 9.4948C15.0223 9.4948 14.2823 8.7548 14.2823 7.8248C14.2823 6.9148 15.0223 6.1748 15.9523 6.1748C16.8623 6.1748 17.6023 6.9148 17.6023 7.8248C17.6023 8.7548 16.8623 9.4948 15.9523 9.4948ZM7.5723 13.4048C6.6423 13.4048 5.9023 12.6648 5.9023 11.7448C5.9023 10.8248 6.6423 10.0848 7.5723 10.0848C8.4823 10.0848 9.2223 10.8248 9.2223 11.7448C9.2223 12.6648 8.4823 13.4048 7.5723 13.4048ZM11.7523 13.4148C10.8423 13.4148 10.0923 12.6648 10.0923 11.7548C10.0923 10.8248 10.8423 10.0848 11.7523 10.0848C12.6823 10.0848 13.4223 10.8248 13.4223 11.7548C13.4223 12.6648 12.6823 13.4148 11.7523 13.4148ZM15.9523 13.4148C15.0223 13.4148 14.2823 12.6748 14.2823 11.7548C14.2823 10.8348 15.0223 10.1048 15.9523 10.1048C16.8623 10.1048 17.6023 10.8348 17.6023 11.7548C17.6023 12.6748 16.8623 13.4148 15.9523 13.4148ZM7.5723 17.3248C6.6423 17.3248 5.9023 16.5848 5.9023 15.6548C5.9023 14.7448 6.6423 13.9948 7.5723 13.9948C8.4823 13.9948 9.2223 14.7448 9.2223 15.6548C9.2223 16.5848 8.4823 17.3248 7.5723 17.3248ZM11.7523 17.3248C10.8423 17.3248 10.0923 16.5848 10.0923 15.6648C10.0923 14.7448 10.8423 14.0048 11.7523 14.0048C12.6823 14.0048 13.4223 14.7448 13.4223 15.6648C13.4223 16.5848 12.6823 17.3248 11.7523 17.3248ZM15.9523 17.3348C15.0223 17.3348 14.2823 16.5948 14.2823 15.6648C14.2823 14.7548 15.0223 14.0148 15.9523 14.0148C16.8623 14.0148 17.6023 14.7548 17.6023 15.6648C17.6023 16.5948 16.8623 17.3348 15.9523 17.3348Z" />
        </svg>
    