
        <svg xmlns="http://www.w3.org/2000/svg" viewBox="0 0 100 100">
            <path d="M5.1017 10.192C7.9217 10.192 10.2117 7.922 10.2117 5.102C10.2117 2.272 7.9217 0.002 5.1017 0.002C2.2817 0.002 0.0017 2.272 0.0017 5.102C0.0017 7.922 2.2817 10.192 5.1017 10.192ZM17.9617 10.192C20.7817 10.192 23.0617 7.922 23.0617 5.102C23.0617 2.272 20.7817 0.002 17.9617 0.002C15.1417 0.002 12.8517 2.272 12.8517 5.102C12.8517 7.922 15.1417 10.192 17.9617 10.192ZM5.1017 8.792C3.0617 8.792 1.4017 7.132 1.4017 5.102C1.4017 3.062 3.0617 1.402 5.1017 1.402C7.1517 1.402 8.7917 3.062 8.7917 5.102C8.7917 7.132 7.1517 8.792 5.1017 8.792ZM17.9617 8.792C15.9117 8.792 14.2717 7.132 14.2717 5.102C14.2717 3.062 15.9117 1.402 17.9617 1.402C20.0017 1.402 21.6417 3.062 21.6417 5.102C21.6417 7.132 20.0017 8.792 17.9617 8.792ZM5.1017 22.242C7.9217 22.242 10.2117 19.962 10.2117 17.142C10.2117 14.322 7.9217 12.032 5.1017 12.032C2.2817 12.032 0.0017 14.322 0.0017 17.142C0.0017 19.962 2.2817 22.242 5.1017 22.242ZM17.9617 22.242C20.7817 22.242 23.0617 19.962 23.0617 17.142C23.0617 14.322 20.7817 12.032 17.9617 12.032C15.1417 12.032 12.8517 14.322 12.8517 17.142C12.8517 19.962 15.1417 22.242 17.9617 22.242ZM5.1017 20.832C3.0617 20.832 1.4017 19.182 1.4017 17.142C1.4017 15.092 3.0617 13.452 5.1017 13.452C7.1517 13.452 8.7917 15.092 8.7917 17.142C8.7917 19.182 7.1517 20.832 5.1017 20.832ZM17.9617 20.832C15.9117 20.832 14.2717 19.182 14.2717 17.142C14.2717 15.092 15.9117 13.452 17.9617 13.452C20.0017 13.452 21.6417 15.092 21.6417 17.142C21.6417 19.182 20.0017 20.832 17.9617 20.832Z" />
        </svg>
    