
        <svg xmlns="http://www.w3.org/2000/svg" viewBox="0 0 100 100">
            <path d="M13.0417 7.5569C15.1317 7.5569 16.8117 5.8669 16.8117 3.7869C16.8117 1.6869 15.1317 -0.0031 13.0417 -0.0031C10.9417 -0.0031 9.2617 1.6869 9.2617 3.7869C9.2617 5.8669 10.9417 7.5569 13.0417 7.5569ZM22.2917 7.5569C24.3717 7.5569 26.0617 5.8669 26.0617 3.7869C26.0617 1.6869 24.3717 -0.0031 22.2917 -0.0031C20.1917 -0.0031 18.5017 1.6869 18.5017 3.7869C18.5017 5.8669 20.1917 7.5569 22.2917 7.5569ZM3.7817 7.5669C5.8817 7.5669 7.5717 5.8869 7.5717 3.7869C7.5717 1.6969 5.8817 0.0069 3.7817 0.0069C1.7017 0.0069 0.0117 1.6969 0.0117 3.7869C0.0117 5.8869 1.7017 7.5669 3.7817 7.5669ZM13.0417 5.2369C12.2317 5.2369 11.5817 4.5869 11.5817 3.7869C11.5817 2.9769 12.2317 2.3369 13.0417 2.3369C13.8417 2.3369 14.4917 2.9769 14.4917 3.7869C14.4917 4.5869 13.8417 5.2369 13.0417 5.2369ZM22.2917 5.2369C21.4817 5.2369 20.8317 4.5869 20.8317 3.7869C20.8317 2.9769 21.4817 2.3369 22.2917 2.3369C23.1017 2.3369 23.7417 2.9769 23.7417 3.7869C23.7417 4.5869 23.1017 5.2369 22.2917 5.2369ZM3.7817 5.2369C2.9917 5.2369 2.3317 4.5969 2.3317 3.7869C2.3317 2.9769 2.9917 2.3369 3.7817 2.3369C4.5917 2.3369 5.2417 2.9769 5.2417 3.7869C5.2417 4.5969 4.5917 5.2369 3.7817 5.2369ZM13.0317 16.3669C15.1217 16.3669 16.8117 14.6669 16.8117 12.5869C16.8117 10.4869 15.1217 8.7969 13.0317 8.7969C10.9417 8.7969 9.2417 10.4869 9.2417 12.5869C9.2417 14.6669 10.9417 16.3669 13.0317 16.3669ZM22.2817 16.3669C24.3717 16.3669 26.0617 14.6669 26.0617 12.5869C26.0617 10.4869 24.3717 8.7969 22.2817 8.7969C20.1917 8.7969 18.4917 10.4869 18.4917 12.5869C18.4917 14.6669 20.1917 16.3669 22.2817 16.3669ZM3.7817 16.3669C5.8717 16.3669 7.5617 14.6869 7.5617 12.5869C7.5617 10.4969 5.8717 8.8169 3.7817 8.8169C1.6917 8.8169 0.0017 10.4969 0.0017 12.5869C0.0017 14.6869 1.6917 16.3669 3.7817 16.3669ZM13.0317 14.0369C12.2217 14.0369 11.5817 13.3969 11.5817 12.5869C11.5817 11.7769 12.2217 11.1369 13.0317 11.1369C13.8417 11.1369 14.4817 11.7769 14.4817 12.5869C14.4817 13.3969 13.8417 14.0369 13.0317 14.0369ZM22.2817 14.0369C21.4717 14.0369 20.8217 13.3969 20.8217 12.5869C20.8217 11.7769 21.4717 11.1369 22.2817 11.1369C23.0817 11.1369 23.7317 11.7769 23.7317 12.5869C23.7317 13.3969 23.0817 14.0369 22.2817 14.0369ZM3.7817 14.0469C2.9717 14.0469 2.3317 13.3969 2.3317 12.5869C2.3317 11.7869 2.9717 11.1369 3.7817 11.1369C4.5817 11.1369 5.2417 11.7869 5.2417 12.5869C5.2417 13.3969 4.5817 14.0469 3.7817 14.0469ZM13.0317 25.1769C15.1217 25.1769 16.8117 23.4769 16.8117 21.3869C16.8117 19.2969 15.1217 17.5969 13.0317 17.5969C10.9417 17.5969 9.2417 19.2969 9.2417 21.3869C9.2417 23.4769 10.9417 25.1769 13.0317 25.1769ZM22.2817 25.1769C24.3717 25.1769 26.0617 23.4769 26.0617 21.3869C26.0617 19.2969 24.3717 17.5969 22.2817 17.5969C20.1917 17.5969 18.4917 19.2969 18.4917 21.3869C18.4917 23.4769 20.1917 25.1769 22.2817 25.1769ZM3.7817 25.1769C5.8717 25.1769 7.5617 23.4869 7.5617 21.3969C7.5617 19.2969 5.8717 17.6169 3.7817 17.6169C1.6917 17.6169 0.0017 19.2969 0.0017 21.3969C0.0017 23.4869 1.6917 25.1769 3.7817 25.1769ZM13.0317 22.8369C12.2217 22.8369 11.5817 22.1969 11.5817 21.3869C11.5817 20.5769 12.2217 19.9369 13.0317 19.9369C13.8417 19.9369 14.4817 20.5769 14.4817 21.3869C14.4817 22.1969 13.8417 22.8369 13.0317 22.8369ZM22.2817 22.8369C21.4717 22.8369 20.8217 22.1969 20.8217 21.3869C20.8217 20.5769 21.4717 19.9369 22.2817 19.9369C23.0817 19.9369 23.7317 20.5769 23.7317 21.3869C23.7317 22.1969 23.0817 22.8369 22.2817 22.8369ZM3.7817 22.8469C2.9717 22.8469 2.3317 22.1969 2.3317 21.3969C2.3317 20.5869 2.9717 19.9469 3.7817 19.9469C4.5817 19.9469 5.2417 20.5869 5.2417 21.3969C5.2417 22.1969 4.5817 22.8469 3.7817 22.8469Z" />
        </svg>
    