
        <svg xmlns="http://www.w3.org/2000/svg" viewBox="0 0 100 100">
            <path d="M11.9523 23.9041C18.5523 23.9041 23.9023 18.5341 23.9023 11.9541C23.9023 5.3541 18.5523 0.0041 11.9523 0.0041C5.3623 0.0041 0.0023 5.3541 0.0023 11.9541C0.0023 18.5341 5.3623 23.9041 11.9523 23.9041ZM11.9523 7.4041C11.4623 7.4041 11.1023 7.0441 11.1023 6.5541C11.1023 6.0541 11.4623 5.6941 11.9523 5.6941C12.4423 5.6941 12.8123 6.0541 12.8123 6.5541C12.8123 7.0441 12.4423 7.4041 11.9523 7.4041ZM14.6623 8.1341C14.1723 8.1341 13.8023 7.7741 13.8023 7.2741C13.8023 6.7741 14.1723 6.4141 14.6623 6.4141C15.1623 6.4141 15.5123 6.7741 15.5123 7.2741C15.5123 7.7741 15.1623 8.1341 14.6623 8.1341ZM9.2423 8.1341C8.7523 8.1341 8.3923 7.7741 8.3923 7.2741C8.3923 6.7741 8.7523 6.4141 9.2423 6.4141C9.7423 6.4141 10.1023 6.7741 10.1023 7.2741C10.1023 7.7741 9.7423 8.1341 9.2423 8.1341ZM16.6423 10.1141C16.1523 10.1141 15.7823 9.7541 15.7823 9.2541C15.7823 8.7641 16.1523 8.4041 16.6423 8.4041C17.1423 8.4041 17.5123 8.7641 17.5123 9.2541C17.5123 9.7541 17.1423 10.1141 16.6423 10.1141ZM7.2623 10.1141C6.7623 10.1141 6.4023 9.7541 6.4023 9.2541C6.4023 8.7641 6.7623 8.4041 7.2623 8.4041C7.7623 8.4041 8.1223 8.7641 8.1223 9.2541C8.1223 9.7541 7.7623 10.1141 7.2623 10.1141ZM17.3623 12.8241C16.8723 12.8241 16.5123 12.4541 16.5123 11.9641C16.5123 11.4741 16.8723 11.1141 17.3623 11.1141C17.8623 11.1141 18.2223 11.4741 18.2223 11.9641C18.2223 12.4541 17.8623 12.8241 17.3623 12.8241ZM6.5423 12.8241C6.0423 12.8241 5.6823 12.4541 5.6823 11.9641C5.6823 11.4741 6.0423 11.1141 6.5423 11.1141C7.0323 11.1141 7.3923 11.4741 7.3923 11.9641C7.3923 12.4541 7.0323 12.8241 6.5423 12.8241ZM16.6423 15.5341C16.1523 15.5341 15.7823 15.1741 15.7823 14.6841C15.7823 14.1841 16.1523 13.8141 16.6423 13.8141C17.1423 13.8141 17.5123 14.1841 17.5123 14.6841C17.5123 15.1741 17.1423 15.5341 16.6423 15.5341ZM7.2623 15.5341C6.7623 15.5341 6.4023 15.1741 6.4023 14.6841C6.4023 14.1841 6.7623 13.8141 7.2623 13.8141C7.7623 13.8141 8.1223 14.1841 8.1223 14.6841C8.1223 15.1741 7.7623 15.5341 7.2623 15.5341ZM14.6623 17.5241C14.1723 17.5241 13.8023 17.1541 13.8023 16.6541C13.8023 16.1641 14.1723 15.7941 14.6623 15.7941C15.1623 15.7941 15.5123 16.1641 15.5123 16.6541C15.5123 17.1541 15.1623 17.5241 14.6623 17.5241ZM9.2423 17.5241C8.7523 17.5241 8.3923 17.1541 8.3923 16.6541C8.3923 16.1641 8.7523 15.7941 9.2423 15.7941C9.7423 15.7941 10.1023 16.1641 10.1023 16.6541C10.1023 17.1541 9.7423 17.5241 9.2423 17.5241ZM11.9523 18.2341C11.4623 18.2341 11.1023 17.8741 11.1023 17.3741C11.1023 16.8841 11.4623 16.5241 11.9523 16.5241C12.4423 16.5241 12.8123 16.8841 12.8123 17.3741C12.8123 17.8741 12.4423 18.2341 11.9523 18.2341Z" />
        </svg>
    