
        <svg xmlns="http://www.w3.org/2000/svg" viewBox="0 0 100 100">
            <path d="M0.0017 23.5775C0.0017 25.6175 1.3717 26.9375 3.4817 26.9375H16.6517C18.7617 26.9375 20.1317 25.6175 20.1317 23.5775V3.3675C20.1317 1.3375 18.7617 -0.0025 16.6517 -0.0025H3.4817C1.3717 -0.0025 0.0017 1.3375 0.0017 3.3675ZM2.3017 23.2075V3.7375C2.3017 2.8275 2.8317 2.2975 3.8017 2.2975H16.3517C17.3117 2.2975 17.8317 2.8275 17.8317 3.7375V23.2075C17.8317 24.1175 17.3117 24.6475 16.3517 24.6475H3.8017C2.8317 24.6475 2.3017 24.1175 2.3017 23.2075ZM10.0617 19.2375C13.2417 19.2375 15.8417 16.6475 15.8417 13.4675C15.8417 10.2875 13.2417 7.6975 10.0617 7.6975C6.8917 7.6975 4.2917 10.2875 4.2917 13.4675C4.2917 16.6475 6.8917 19.2375 10.0617 19.2375Z" />
        </svg>
    