
        <svg xmlns="http://www.w3.org/2000/svg" viewBox="0 0 100 100">
            <path d="M3.0117 20.4997H24.0617C26.0117 20.4997 27.0617 19.4297 27.0617 17.4797V3.0097C27.0617 1.0697 26.0117 -0.0003 24.0617 -0.0003H3.0117C1.0417 -0.0003 0.0017 1.0397 0.0017 3.0097V17.4797C0.0017 19.4497 1.0417 20.4997 3.0117 20.4997ZM3.0317 19.9197C1.4217 19.9197 0.5717 19.0797 0.5717 17.4597V3.0397C0.5717 1.4097 1.4217 0.5697 3.0317 0.5697H24.0217C25.5817 0.5697 26.4817 1.4097 26.4817 3.0397V17.4597C26.4817 19.0797 25.5817 19.9197 24.0217 19.9197ZM13.5317 16.0497C16.7317 16.0497 19.3517 13.4497 19.3517 10.2297C19.3517 7.0297 16.7317 4.4297 13.5317 4.4297C10.3317 4.4297 7.7117 7.0297 7.7117 10.2297C7.7117 13.4497 10.3317 16.0497 13.5317 16.0497Z" />
        </svg>
    