
        <svg xmlns="http://www.w3.org/2000/svg" viewBox="0 0 100 100">
            <path d="M0.0017 12.2336C0.0017 12.9236 0.5617 13.5436 1.3017 13.5436H4.7117C5.3717 19.6736 10.5617 24.4436 16.8617 24.4436C23.1517 24.4436 28.3517 19.6736 29.0117 13.5436H32.4217C33.1617 13.5436 33.7117 12.9236 33.7117 12.2336C33.7117 11.5336 33.1617 10.9136 32.4217 10.9136H29.0117C28.3617 4.7836 23.1717 0.0036 16.8617 0.0036C10.5617 0.0036 5.3717 4.7836 4.7117 10.9136H1.3017C0.5617 10.9136 0.0017 11.5336 0.0017 12.2336ZM16.8617 2.6836C21.6917 2.6836 25.6717 6.2536 26.3117 10.9136H7.4217C8.0517 6.2536 12.0317 2.6836 16.8617 2.6836ZM16.8617 21.7636C12.0317 21.7636 8.0617 18.1836 7.4217 13.5436H26.3117C25.6617 18.1836 21.6817 21.7636 16.8617 21.7636Z" />
        </svg>
    