
        <svg xmlns="http://www.w3.org/2000/svg" viewBox="0 0 100 100">
            <path d="M3.0117 20.5048H24.0617C26.0117 20.5048 27.0617 19.4248 27.0617 17.4948V3.0148C27.0617 2.5448 27.0017 2.1348 26.8817 1.7648L26.9017 1.7548L26.8717 1.7248C26.4817 0.5948 25.5217 0.0048 24.0617 0.0048H3.0117C1.0417 0.0048 0.0017 1.0448 0.0017 3.0148V17.4948C0.0017 19.4648 1.0417 20.5048 3.0117 20.5048ZM0.5717 3.0348C0.5717 1.4148 1.4217 0.5748 3.0317 0.5748H9.5017L0.5717 9.5148ZM0.5717 17.4648V10.3348L10.3317 0.5748H18.3317L14.4917 4.4048C14.0717 4.3148 13.6417 4.2648 13.1817 4.2648C9.8517 4.2648 7.1617 6.9448 7.1617 10.2748C7.1617 10.7348 7.2217 11.1748 7.3117 11.6048L0.6517 18.2548C0.6017 18.0148 0.5717 17.7548 0.5717 17.4648ZM24.0217 0.5748C25.0517 0.5748 25.7917 0.9348 26.1817 1.6548L19.0217 8.8148C18.5317 6.8348 17.0517 5.2348 15.1417 4.5948L19.1617 0.5748ZM13.1817 16.3048C16.5117 16.3048 19.1917 13.6148 19.1917 10.2748C19.1917 10.0148 19.1817 9.7648 19.1517 9.5048L26.4017 2.2548C26.4617 2.4948 26.4817 2.7548 26.4817 3.0348V10.1748L16.7317 19.9348H8.7317L12.4117 16.2548C12.6517 16.2848 12.9117 16.3048 13.1817 16.3048ZM13.1817 15.7148C10.0917 15.7148 7.7417 13.3748 7.7417 10.2748C7.7417 7.1948 10.0917 4.8348 13.1817 4.8348C16.2617 4.8348 18.6217 7.1948 18.6217 10.2748C18.6217 13.3748 16.2617 15.7148 13.1817 15.7148ZM26.4817 17.4648C26.4817 19.0948 25.5817 19.9348 24.0217 19.9348H17.5517L26.4817 10.9948ZM3.0317 19.9348C1.9717 19.9348 1.2417 19.5748 0.8717 18.8548L7.4917 12.2448C8.1417 14.1548 9.7417 15.6348 11.7217 16.1248L7.9117 19.9348Z" />
        </svg>
    