
        <svg xmlns="http://www.w3.org/2000/svg" viewBox="0 0 100 100">
            <path d="M3.9717 22.1117H18.1317C20.7317 22.1117 22.1017 20.7417 22.1017 18.1717V3.9417C22.1017 1.3717 20.7317 0.0017 18.1317 0.0017H3.9717C1.3817 0.0017 0.0017 1.3717 0.0017 3.9417V18.1717C0.0017 20.7417 1.3817 22.1117 3.9717 22.1117ZM7.3217 16.0417C6.6417 16.0417 6.1217 15.5117 6.1217 14.8217C6.1217 14.5217 6.2417 14.2117 6.4817 13.9917L9.4017 11.0717L6.4817 8.1417C6.2417 7.9217 6.1217 7.6217 6.1217 7.3117C6.1217 6.6317 6.6417 6.1017 7.3217 6.1017C7.6717 6.1017 7.9417 6.2217 8.1917 6.4617L11.1017 9.3617L14.0417 6.4417C14.2817 6.2017 14.5617 6.0917 14.9017 6.0917C15.5717 6.0917 16.1117 6.6217 16.1117 7.2917C16.1117 7.6217 15.9917 7.9017 15.7517 8.1417L12.8317 11.0717L15.7417 13.9817C15.9817 14.2017 16.1017 14.5117 16.1017 14.8217C16.1017 15.5117 15.5717 16.0417 14.8917 16.0417C14.5317 16.0417 14.2417 15.9217 14.0017 15.6917L11.1017 12.7817L8.2117 15.6917C7.9817 15.9217 7.6717 16.0417 7.3217 16.0417Z" />
        </svg>
    