
        <svg xmlns="http://www.w3.org/2000/svg" viewBox="0 0 100 100">
            <path d="M3.9717 22.1117H18.1317C20.7317 22.1117 22.1017 20.7417 22.1017 18.1717V3.9417C22.1017 1.3717 20.7317 0.0017 18.1317 0.0017H3.9717C1.3817 0.0017 0.0017 1.3717 0.0017 3.9417V18.1717C0.0017 20.7417 1.3817 22.1117 3.9717 22.1117ZM4.1917 19.5017C3.1617 19.5017 2.6117 18.9817 2.6117 17.9017V4.2217C2.6117 3.1417 3.1617 2.6117 4.1917 2.6117H17.9217C18.9217 2.6117 19.5017 3.1417 19.5017 4.2217V17.9017C19.5017 18.9817 18.9217 19.5017 17.9217 19.5017ZM7.3117 15.9517C7.6517 15.9517 7.9317 15.8317 8.1517 15.6117L11.0617 12.6917L13.9817 15.6117C14.2017 15.8317 14.4717 15.9517 14.8117 15.9517C15.4617 15.9517 15.9617 15.4417 15.9617 14.8017C15.9617 14.4817 15.8417 14.2117 15.6217 13.9917L12.6917 11.0717L15.6217 8.1217C15.8517 7.9017 15.9717 7.6317 15.9717 7.3317C15.9717 6.6917 15.4717 6.1917 14.8217 6.1917C14.4917 6.1917 14.2417 6.2917 14.0017 6.5317L11.0617 9.4617L8.1317 6.5417C7.9117 6.3017 7.6517 6.2017 7.3117 6.2017C6.6717 6.2017 6.1717 6.6917 6.1717 7.3317C6.1717 7.6417 6.2917 7.9217 6.5117 8.1317L9.4417 11.0717L6.5117 14.0017C6.2917 14.2117 6.1717 14.4917 6.1717 14.8017C6.1717 15.4417 6.6717 15.9517 7.3117 15.9517Z" />
        </svg>
    