
        <svg xmlns="http://www.w3.org/2000/svg" viewBox="0 0 100 100">
            <path d="M7.0117 6.578H14.1717C14.9517 6.578 15.4217 6.068 15.4217 5.238V3.998C15.4217 3.168 14.9517 2.658 14.1717 2.658H13.4417C13.3317 1.188 12.1017 -0.002 10.5817 -0.002C9.0717 -0.002 7.8417 1.188 7.7317 2.658H7.0117C6.2217 2.658 5.7517 3.168 5.7517 3.998V5.238C5.7517 6.068 6.2217 6.578 7.0117 6.578ZM10.5817 3.858C9.9817 3.858 9.5017 3.368 9.5017 2.778C9.5017 2.188 9.9817 1.698 10.5817 1.698C11.1917 1.698 11.6717 2.188 11.6717 2.778C11.6717 3.368 11.1917 3.858 10.5817 3.858ZM4.3817 29.438H16.7917C19.4917 29.438 21.1717 27.738 21.1717 24.998V7.368C21.1717 4.638 19.5017 2.928 16.8317 2.928H16.6217C16.7617 3.238 16.8417 3.608 16.8417 3.998V5.188C16.8417 5.618 16.7617 6.008 16.6017 6.338H16.7317C17.3817 6.338 17.7617 6.758 17.7617 7.408V24.958C17.7617 25.618 17.3517 26.018 16.6717 26.018H4.5017C3.8217 26.018 3.4117 25.618 3.4117 24.958V7.408C3.4117 6.758 3.8017 6.338 4.4417 6.338H4.5717C4.4217 6.008 4.3317 5.618 4.3317 5.188V3.998C4.3317 3.608 4.4017 3.238 4.5617 2.928H4.3517C1.6717 2.928 0.0017 4.638 0.0017 7.368V24.998C0.0017 27.738 1.6917 29.438 4.3817 29.438Z" />
        </svg>
    