
        <svg xmlns="http://www.w3.org/2000/svg" viewBox="0 0 100 100">
            <path d="M6.1017 5.4508H13.2617C13.8717 5.4508 14.2517 5.0708 14.2517 4.4508V3.2508C14.2517 2.6208 13.8717 2.2508 13.2617 2.2508H12.0317C11.9717 1.0108 10.9417 0.0008 9.6917 0.0008C8.4217 0.0008 7.3917 1.0108 7.3517 2.2508H6.1017C5.4917 2.2508 5.1317 2.6208 5.1317 3.2508V4.4508C5.1317 5.0708 5.4917 5.4508 6.1017 5.4508ZM9.6917 3.3508C9.1017 3.3508 8.6517 2.8708 8.6517 2.3108C8.6517 1.7208 9.1017 1.2608 9.6917 1.2608C10.2617 1.2608 10.7317 1.7208 10.7317 2.3108C10.7317 2.8708 10.2617 3.3508 9.6917 3.3508ZM3.4217 28.0008H15.9517C18.2217 28.0008 19.3717 26.8208 19.3717 24.5408V6.4708C19.3717 4.1708 18.2217 3.0108 16.0317 3.0108H15.4417V4.4508C15.4417 5.7408 14.5517 6.6608 13.2617 6.6608H6.1017C4.8117 6.6608 3.9417 5.7408 3.9417 4.4508V3.0108H3.3517C1.1617 3.0108 0.0017 4.1708 0.0017 6.4708V24.5408C0.0017 26.8208 1.1617 28.0008 3.4217 28.0008Z" />
        </svg>
    