
        <svg xmlns="http://www.w3.org/2000/svg" viewBox="0 0 100 100">
            <path d="M14.4001 -0.0014C8.3301 -0.0014 3.2301 4.3486 2.0401 10.0786H0.9701C-0.0199 10.0786 -0.2499 10.9886 0.2701 11.6686L3.3101 15.6286C3.6701 16.1086 4.3301 16.1086 4.6901 15.6286L7.7301 11.6686C8.2401 10.9886 8.0101 10.0786 7.0401 10.0786H5.8301C6.9001 6.3586 10.3201 3.6686 14.4001 3.6686C16.9401 3.6686 19.1101 4.6886 20.8101 6.4286C21.6101 7.1986 22.7201 7.4386 23.5501 6.6786C24.3001 5.9886 24.2601 4.9186 23.4001 3.9486C21.4301 1.6086 17.9201 -0.0014 14.4001 -0.0014ZM14.4001 5.9686C13.7901 5.9686 13.2901 6.4686 13.2901 7.0686V13.2586C13.2901 13.5386 13.3901 13.8186 13.6001 14.0986L16.2501 17.5786C16.7001 18.1786 17.3401 18.2786 17.9101 17.8786C18.4301 17.5386 18.4601 16.8486 18.0601 16.2986L15.5001 12.8286V7.0686C15.5001 6.4686 14.9901 5.9686 14.4001 5.9686ZM14.4001 25.2086C20.4701 25.2086 25.5501 20.8586 26.7401 15.1286H27.8101C28.8001 15.1286 29.0401 14.2286 28.5201 13.5386L25.4701 9.5786C25.1201 9.0986 24.4601 9.1086 24.0901 9.5786L21.0601 13.5486C20.5501 14.2286 20.7801 15.1286 21.7401 15.1286H22.9601C21.9001 18.8486 18.4701 21.5486 14.4001 21.5486C11.8501 21.5486 9.6801 20.5286 7.9901 18.7886C7.1801 18.0086 6.0601 17.7686 5.2301 18.5386C4.4901 19.2186 4.5301 20.2986 5.4001 21.2686C7.3601 23.6086 10.8601 25.2086 14.4001 25.2086Z" />
        </svg>
    