
        <svg xmlns="http://www.w3.org/2000/svg" viewBox="0 0 100 100">
            <path d="M1.016 10.1978C-0.014 10.1978 -0.264 11.2178 0.286 11.9078L3.446 15.9378C3.806 16.4078 4.496 16.3978 4.856 15.9378L8.006 11.9078C8.546 11.2178 8.306 10.1978 7.296 10.1978H6.206C7.296 6.7078 10.566 4.1678 14.426 4.1678C19.196 4.1678 23.056 8.0278 23.056 12.7978C23.056 17.5678 19.196 21.4178 14.426 21.4178C12.136 21.4178 10.196 20.5978 8.536 19.0878C7.586 18.2378 6.306 17.9678 5.376 18.8678C4.536 19.6778 4.566 20.9078 5.586 22.0278C7.486 24.1678 11.306 25.5978 14.426 25.5978C21.496 25.5978 27.226 19.8678 27.226 12.7978C27.226 5.7278 21.496 -0.0022 14.426 -0.0022C8.256 -0.0022 3.096 4.3678 1.896 10.1978ZM14.426 6.2378C13.806 6.2378 13.286 6.7478 13.286 7.3778V13.4278C13.286 13.7178 13.386 14.0078 13.596 14.2878L16.186 17.6978C16.656 18.3078 17.316 18.4078 17.916 18.0078C18.446 17.6478 18.486 16.9378 18.076 16.3678L15.576 12.9978V7.3778C15.576 6.7478 15.066 6.2378 14.426 6.2378Z" />
        </svg>
    