
        <svg xmlns="http://www.w3.org/2000/svg" viewBox="0 0 100 100">
            <path d="M11.4923 22.977C17.8323 22.977 22.9823 17.847 22.9823 11.497C22.9823 5.147 17.8323 -0.003 11.4923 -0.003C5.1423 -0.003 0.0023 5.147 0.0023 11.497C0.0023 17.847 5.1423 22.977 11.4923 22.977ZM11.4923 22.087C5.6323 22.087 0.8923 17.357 0.8923 11.497C0.8923 5.637 5.6323 0.887 11.4923 0.887C17.3523 0.887 22.0923 5.637 22.0923 11.497C22.0923 17.357 17.3523 22.087 11.4923 22.087ZM11.4923 17.797C14.9523 17.797 17.8023 14.957 17.8023 11.497C17.8023 8.027 14.9523 5.187 11.4823 5.187C8.0323 5.187 5.1823 8.027 5.1823 11.497C5.1823 14.957 8.0323 17.797 11.4923 17.797ZM7.9323 12.167C7.7323 12.167 7.5923 12.007 7.5923 11.817C7.5923 11.597 7.7323 11.457 7.9323 11.457H11.1423V7.197C11.1423 6.997 11.2923 6.847 11.4823 6.847C11.7023 6.847 11.8623 6.997 11.8623 7.197V11.817C11.8623 12.007 11.6823 12.167 11.4823 12.167Z" />
        </svg>
    