
        <svg xmlns="http://www.w3.org/2000/svg" viewBox="0 0 100 100">
            <path d="M12.7923 25.5961C19.8723 25.5961 25.6023 19.8661 25.6023 12.7961C25.6023 5.7261 19.8723 -0.0039 12.7923 -0.0039C5.7323 -0.0039 0.0023 5.7261 0.0023 12.7961C0.0023 19.8661 5.7323 25.5961 12.7923 25.5961ZM9.4923 14.2061C7.9223 14.2061 6.8323 13.1461 6.8323 11.6961C6.8323 10.6361 7.4423 9.7761 8.4923 9.3861C8.8023 7.4261 10.3923 6.1261 12.3423 6.1261C13.8723 6.1261 15.0023 6.7761 15.6523 8.0461C17.4523 8.0461 18.7723 9.3861 18.7723 11.1561C18.7723 12.8661 17.4223 14.2061 15.6823 14.2061ZM15.8623 17.0861C15.7023 17.3661 15.3123 17.4761 15.0323 17.3061C14.7223 17.1361 14.6323 16.7461 14.7923 16.4561L15.3423 15.4961C15.5023 15.2061 15.8923 15.1061 16.1923 15.2661C16.4923 15.4461 16.5823 15.8361 16.4223 16.1261ZM10.4623 17.0861C10.3123 17.3661 9.9223 17.4761 9.6223 17.3061C9.3023 17.1361 9.2323 16.7461 9.3823 16.4561L9.9423 15.4961C10.0923 15.2061 10.4723 15.1061 10.7923 15.2661C11.1023 15.4461 11.1723 15.8361 11.0123 16.1261ZM13.1623 17.1061C13.0223 17.4061 12.6223 17.5061 12.3323 17.3461C12.0123 17.1561 11.9423 16.7661 12.0923 16.4961L12.6423 15.5161C12.7923 15.2361 13.1823 15.1261 13.5023 15.2961C13.7923 15.4761 13.8723 15.8661 13.7123 16.1461ZM8.9023 19.3461C8.4623 19.3461 8.1023 18.9861 8.1023 18.5361C8.1023 18.1061 8.4623 17.7461 8.9023 17.7461C9.3423 17.7461 9.7023 18.1061 9.7023 18.5361C9.7023 18.9861 9.3423 19.3461 8.9023 19.3461ZM14.3223 19.3461C13.8623 19.3461 13.5023 18.9861 13.5023 18.5361C13.5023 18.1061 13.8623 17.7461 14.3223 17.7461C14.7523 17.7461 15.1123 18.1061 15.1123 18.5361C15.1123 18.9861 14.7523 19.3461 14.3223 19.3461ZM11.6123 19.3861C11.1523 19.3861 10.8023 19.0161 10.8023 18.5661C10.8023 18.1261 11.1523 17.7661 11.6123 17.7661C12.0423 17.7661 12.4123 18.1261 12.4123 18.5661C12.4123 19.0161 12.0423 19.3861 11.6123 19.3861Z" />
        </svg>
    