
        <svg xmlns="http://www.w3.org/2000/svg" viewBox="0 0 100 100">
            <path d="M4.9667 20.2585H17.6467C21.0367 20.2585 23.6767 17.7085 23.6767 14.3985C23.6767 14.3685 23.6767 14.3285 23.6567 14.2985C27.4467 14.1685 29.7967 12.0385 30.6667 9.7685C31.0567 8.8385 30.5467 7.9785 29.6367 7.9785C28.9367 7.9785 28.3567 8.2885 27.1167 8.2885C24.1267 8.2885 22.5467 6.6185 22.5467 3.9085C22.5467 2.5785 22.9567 1.8585 22.9567 1.2085C22.9567 0.2285 22.1267 -0.2315 21.0967 0.1185C18.6067 0.9385 16.4967 3.5885 16.4967 6.8185C16.4967 6.9285 16.5167 7.0285 16.5167 7.1385C15.0967 5.4385 13.0767 4.4485 10.7767 4.4485C6.9067 4.4485 3.6567 7.4485 3.2667 11.2985C1.3267 11.9085 -0.0033 13.5885 -0.0033 15.7285C-0.0033 18.3785 1.9967 20.2585 4.9667 20.2585ZM18.2267 6.7885C18.2267 4.5185 19.5667 2.7485 21.1067 1.9085L21.2367 1.9985C21.0367 2.5685 20.8567 3.3485 20.8567 4.2685C20.8567 7.6285 23.3167 9.9485 26.7167 9.9485C27.5467 9.9485 28.3267 9.7985 28.8667 9.6185L28.9467 9.6985C28.2167 11.0885 26.3567 12.5885 23.3767 12.5985C22.6967 10.5385 20.8667 9.0485 18.5167 8.6785C18.3167 8.0885 18.2267 7.4385 18.2267 6.7885ZM4.9267 18.3885C2.9267 18.3885 1.8767 17.2385 1.8767 15.7685C1.8767 14.5385 2.5967 13.4385 4.3267 12.9785C4.8867 12.8285 5.0967 12.5685 5.1467 11.9885C5.4167 8.6985 7.8467 6.3285 10.7767 6.3285C13.0567 6.3285 14.8267 7.5785 15.9167 9.7685C16.1767 10.2785 16.4567 10.4385 17.0467 10.4385C20.0867 10.4385 21.7867 12.2685 21.7867 14.4485C21.7867 16.6385 20.0067 18.3885 17.6867 18.3885ZM14.6767 24.4085H12.3367L13.4167 22.3685C13.5467 22.1085 13.4367 21.9285 13.1867 21.9285H10.7367C10.4167 21.9285 10.3167 22.0585 10.2067 22.2785L8.7067 25.6885C8.5867 25.9685 8.7067 26.1485 9.0167 26.1485H10.9667L9.4667 29.7785C9.3967 29.9285 9.4367 30.0585 9.5367 30.0885C9.6467 30.1385 9.7767 30.1085 9.8867 29.9785L14.8467 24.9685C15.0867 24.7285 14.9967 24.4085 14.6767 24.4085Z" />
        </svg>
    