
        <svg xmlns="http://www.w3.org/2000/svg" viewBox="0 0 100 100">
            <path d="M12.1023 24.2147C18.7823 24.2147 24.2123 18.7847 24.2123 12.1047C24.2123 5.4247 18.7823 0.0047 12.1023 0.0047C5.4223 0.0047 0.0023 5.4247 0.0023 12.1047C0.0023 18.7847 5.4223 24.2147 12.1023 24.2147ZM8.2923 13.7247C6.5823 13.7247 5.5623 12.6047 5.5623 11.2247C5.5623 10.0347 6.3423 9.1147 7.3923 8.8047C7.6023 6.6647 9.3823 5.0147 11.5323 5.0147C13.1923 5.0147 14.4923 5.9047 15.2223 7.3047C17.1523 7.3047 18.6423 8.6647 18.6423 10.5147C18.6423 12.2947 17.2123 13.7247 15.3523 13.7247ZM13.6123 17.1047C13.4623 17.3947 13.1223 17.4747 12.8523 17.3247C12.5623 17.1647 12.4823 16.8147 12.6423 16.5347L13.4623 15.1147C13.6323 14.8447 13.9723 14.7547 14.2423 14.9047C14.5223 15.0747 14.6123 15.4247 14.4523 15.6747ZM8.1823 17.1047C8.0123 17.3947 7.6723 17.4747 7.3923 17.3247C7.1223 17.1647 7.0323 16.8147 7.1923 16.5347L8.0123 15.1147C8.1723 14.8447 8.5123 14.7547 8.7923 14.9047C9.0723 15.0747 9.1523 15.4247 9.0023 15.6747ZM15.3123 18.9147C15.1623 19.1747 14.8123 19.2747 14.5523 19.1247C14.2623 18.9647 14.1823 18.6047 14.3323 18.3447L16.1923 15.1147C16.3523 14.8447 16.6923 14.7547 16.9723 14.9047C17.2523 15.0747 17.3323 15.4147 17.1823 15.6947ZM9.8623 18.9147C9.7123 19.1747 9.3623 19.2747 9.0923 19.1247C8.8123 18.9647 8.7323 18.6047 8.8823 18.3447L10.7423 15.1147C10.9023 14.8447 11.2523 14.7547 11.5123 14.9047C11.8023 15.0747 11.8823 15.4147 11.7323 15.6947Z" />
        </svg>
    