
        <svg xmlns="http://www.w3.org/2000/svg" viewBox="0 0 100 100">
            <path d="M27.2202 14.7221C30.7602 13.7321 32.9202 10.7421 32.9202 8.6621C32.9202 8.1321 32.7002 7.7621 32.2902 7.7621C31.6102 7.7621 30.6702 8.4721 28.9502 8.4821C26.2102 8.5121 24.5202 6.8221 24.5202 4.2921C24.5202 2.5921 25.2102 1.3821 25.2102 0.6521C25.2102 0.2621 24.9302 -0.0079 24.4502 0.0021C22.4302 0.0621 19.3002 2.3321 18.5302 5.7221C19.0302 6.2021 19.4802 6.7821 19.8302 7.5121C23.4602 7.6621 26.8402 10.5321 27.2202 14.7221ZM5.1302 21.8521H19.1802C22.5902 21.8521 25.1802 19.2121 25.1802 15.7021C25.1802 12.0621 22.4402 9.3821 18.6702 9.4021C17.4602 7.1221 15.1602 5.1321 11.5002 5.1321C7.3102 5.1321 3.8702 8.2521 3.5302 12.3521C1.3802 12.9221 0.0002 14.7521 0.0002 17.0321C0.0002 19.9021 2.0702 21.8521 5.1302 21.8521Z" />
        </svg>
    