
        <svg xmlns="http://www.w3.org/2000/svg" viewBox="0 0 100 100">
            <path d="M12.2223 24.4436C18.9723 24.4436 24.4423 18.9736 24.4423 12.2236C24.4423 5.4736 18.9723 0.0036 12.2223 0.0036C5.4723 0.0036 0.0023 5.4736 0.0023 12.2236C0.0023 18.9736 5.4723 24.4436 12.2223 24.4436ZM12.2223 21.7636C6.9523 21.7636 2.6823 17.4936 2.6823 12.2236C2.6823 6.9536 6.9523 2.6836 12.2223 2.6836C17.4923 2.6836 21.7623 6.9536 21.7623 12.2236C21.7623 17.4936 17.4923 21.7636 12.2223 21.7636ZM8.7023 13.6336H15.3523C17.1323 13.6336 18.4923 12.2736 18.4923 10.5536C18.4923 8.8036 17.0823 7.5036 15.2423 7.5036C14.5523 6.1636 13.3223 5.3536 11.7523 5.3536C9.7123 5.3536 8.0423 6.8936 7.8123 8.9036C6.8123 9.2336 6.0923 10.0936 6.0923 11.2236C6.0923 12.5736 7.0823 13.6336 8.7023 13.6336ZM8.3223 16.0636H16.1223C16.4423 16.0636 16.6923 15.8236 16.6923 15.5136C16.6923 15.2036 16.4423 14.9636 16.1223 14.9636H8.3223C8.0123 14.9636 7.7623 15.2136 7.7623 15.5136C7.7623 15.8236 8.0123 16.0636 8.3223 16.0636ZM8.3223 18.3636H16.1223C16.4423 18.3636 16.6923 18.1136 16.6923 17.8136C16.6923 17.5036 16.4423 17.2636 16.1223 17.2636H8.3223C8.0123 17.2636 7.7623 17.5036 7.7623 17.8136C7.7623 18.1136 8.0123 18.3636 8.3223 18.3636Z" />
        </svg>
    