
        <svg xmlns="http://www.w3.org/2000/svg" viewBox="0 0 100 100">
            <path d="M12.7923 25.5961C19.8723 25.5961 25.6023 19.8661 25.6023 12.7961C25.6023 5.7261 19.8723 -0.0039 12.7923 -0.0039C5.7323 -0.0039 0.0023 5.7261 0.0023 12.7961C0.0023 19.8661 5.7323 25.5961 12.7923 25.5961ZM15.2823 7.5561C14.9023 7.5561 14.6123 7.2561 14.6123 6.8661V6.0661C14.6123 5.6761 14.9023 5.3561 15.2823 5.3561C15.6723 5.3561 15.9523 5.6761 15.9523 6.0661V6.8661C15.9523 7.2561 15.6723 7.5561 15.2823 7.5561ZM17.6123 8.5161C17.3223 8.2661 17.3323 7.8161 17.6123 7.5361L18.1623 6.9561C18.4323 6.6961 18.8923 6.6961 19.1223 6.9561C19.4023 7.2161 19.3923 7.6661 19.1123 7.9361L18.5523 8.5161C18.3023 8.7661 17.8523 8.7561 17.6123 8.5161ZM12.0223 8.5061L11.4723 7.9261C11.2123 7.6561 11.1523 7.2161 11.4623 6.9361C11.6923 6.7061 12.1323 6.6961 12.4323 6.9361L13.0123 7.5561C13.2323 7.8161 13.2623 8.2661 13.0123 8.5161C12.7423 8.7561 12.2823 8.7661 12.0223 8.5061ZM17.9423 10.8061C17.9423 11.6761 17.5123 12.4561 16.8823 12.9161C16.5623 11.4061 15.3423 10.2661 13.7623 10.0461C13.5923 9.7961 13.3623 9.5361 13.1123 9.3061C13.5423 8.6361 14.3623 8.1561 15.2923 8.1561C16.7823 8.1561 17.9423 9.3261 17.9423 10.8061ZM7.3623 16.4661C6.0123 16.4661 5.1123 15.5961 5.1123 14.2961C5.1123 13.3161 5.6923 12.5161 6.5823 12.2361C6.7823 10.4761 8.2723 9.1561 10.0923 9.1561C11.7423 9.1561 12.7023 10.0561 13.2023 10.9661C14.8323 10.9761 16.0223 12.1361 16.0223 13.7661C16.0223 15.3061 14.8923 16.4661 13.3923 16.4661ZM19.2323 11.4761C18.8523 11.4761 18.5323 11.1561 18.5323 10.8061C18.5323 10.4261 18.8523 10.1061 19.2323 10.1061H20.0423C20.4223 10.1061 20.7023 10.4261 20.7023 10.8061C20.7023 11.1561 20.4223 11.4761 20.0423 11.4761ZM18.1623 14.6561L17.5923 14.0761C17.3123 13.8061 17.2923 13.3461 17.5823 13.1061C17.8323 12.8461 18.2923 12.8561 18.5723 13.1261L19.1123 13.6761C19.3923 13.9461 19.3923 14.3561 19.1223 14.6361C18.8823 14.9061 18.4323 14.9061 18.1623 14.6561ZM12.4823 18.8561C12.3623 19.1261 12.0323 19.1861 11.8023 19.0361C11.5223 18.8861 11.4623 18.5761 11.5923 18.3361L12.1423 17.3661C12.2823 17.1361 12.6023 17.0361 12.8423 17.1961C13.1023 17.3461 13.1923 17.6361 13.0423 17.9161ZM8.4523 18.8561C8.3123 19.1261 7.9823 19.1861 7.7323 19.0361C7.4923 18.8861 7.4023 18.5761 7.5323 18.3361L8.0823 17.3661C8.2423 17.1361 8.5423 17.0361 8.8023 17.1961C9.0723 17.3461 9.1323 17.6361 8.9923 17.9161ZM14.0423 20.0861C13.8823 20.3461 13.5923 20.4261 13.3223 20.2661C13.0523 20.1361 12.9923 19.8161 13.1123 19.5561L13.6723 18.5961C13.8323 18.3661 14.1523 18.2661 14.4023 18.4261C14.6523 18.5761 14.7223 18.8761 14.6023 19.1461ZM10.1023 20.0861C9.9823 20.3461 9.6523 20.4261 9.4123 20.2661C9.1423 20.1361 9.0623 19.8161 9.2123 19.5561L9.7423 18.5961C9.9023 18.3661 10.2223 18.2661 10.4623 18.4261C10.7223 18.5761 10.8023 18.8761 10.6523 19.1461Z" />
        </svg>
    