
        <svg xmlns="http://www.w3.org/2000/svg" viewBox="0 0 100 100">
            <path d="M11.7523 23.5031C18.2323 23.5031 23.5123 18.2331 23.5123 11.7531C23.5123 5.2731 18.2323 0.0031 11.7523 0.0031C5.2723 0.0031 0.0023 5.2731 0.0023 11.7531C0.0023 18.2331 5.2723 23.5031 11.7523 23.5031ZM7.8123 13.4131C6.1323 13.4131 5.1523 12.3131 5.1523 11.0031C5.1523 9.7831 5.9923 8.8931 7.0423 8.6031C7.2423 6.4231 9.0123 4.7031 11.1723 4.7031C12.8923 4.7031 14.1923 5.6631 14.9323 7.1131C16.8623 7.1131 18.3623 8.4331 18.3623 10.2431C18.3623 12.0131 16.9323 13.4131 15.0823 13.4131ZM7.5323 17.9731C7.3523 17.9731 7.2423 17.8231 7.2423 17.6331L7.2623 16.8631L6.6223 17.2931C6.4723 17.3931 6.2423 17.3531 6.1723 17.1931C6.0923 17.0431 6.1423 16.8531 6.3423 16.7431L7.0123 16.4031L6.3423 16.0531C6.1423 15.9531 6.0923 15.7631 6.1923 15.6131C6.2723 15.4431 6.4723 15.4331 6.6223 15.5231L7.2623 15.9631L7.2423 15.1831C7.2323 14.9931 7.3523 14.8331 7.5323 14.8331C7.7223 14.8331 7.8423 14.9931 7.8323 15.1831L7.8023 15.9631L8.4523 15.5231C8.5923 15.4431 8.8023 15.4531 8.8823 15.6131C8.9723 15.7831 8.9323 15.9531 8.7423 16.0431L8.0623 16.4031L8.7423 16.7431C8.9323 16.8431 8.9923 17.0631 8.8823 17.2031C8.7923 17.3431 8.5823 17.3831 8.4523 17.2931L7.8023 16.8631L7.8323 17.6331C7.8423 17.8231 7.7223 17.9731 7.5323 17.9731ZM11.4623 17.9731C11.2723 17.9731 11.1523 17.8231 11.1723 17.6331L11.1823 16.8631L10.5323 17.2931C10.3823 17.3931 10.1723 17.3531 10.0923 17.1931C10.0123 17.0431 10.0523 16.8531 10.2523 16.7431L10.9323 16.4031L10.2523 16.0531C10.0623 15.9531 10.0123 15.7631 10.1123 15.6131C10.1923 15.4431 10.3923 15.4331 10.5323 15.5231L11.1823 15.9631L11.1523 15.1831C11.1423 14.9931 11.2723 14.8331 11.4623 14.8331C11.6523 14.8331 11.7523 14.9931 11.7523 15.1831L11.7223 15.9631L12.3623 15.5231C12.5023 15.4431 12.7223 15.4531 12.8123 15.6131C12.8923 15.7831 12.8423 15.9531 12.6523 16.0431L11.9723 16.4031L12.6523 16.7431C12.8423 16.8431 12.9123 17.0631 12.8123 17.2031C12.7123 17.3431 12.5023 17.3831 12.3623 17.2931L11.7223 16.8631L11.7523 17.6331C11.7523 17.8231 11.6523 17.9731 11.4623 17.9731ZM15.3723 17.9731C15.1923 17.9731 15.0823 17.8231 15.0823 17.6331L15.1023 16.8631L14.4523 17.2931C14.3123 17.3931 14.0823 17.3531 14.0023 17.1931C13.9323 17.0431 13.9723 16.8531 14.1723 16.7431L14.8523 16.4031L14.1723 16.0531C13.9823 15.9531 13.9223 15.7631 14.0323 15.6131C14.1123 15.4431 14.3123 15.4331 14.4523 15.5231L15.1023 15.9631L15.0823 15.1831C15.0723 14.9931 15.1923 14.8331 15.3723 14.8331C15.5623 14.8331 15.6823 14.9931 15.6723 15.1831L15.6323 15.9631L16.2823 15.5231C16.4323 15.4331 16.6423 15.4531 16.7223 15.6131C16.8123 15.7831 16.7423 15.9531 16.5823 16.0431L15.9023 16.4031L16.5823 16.7431C16.7623 16.8431 16.8323 17.0631 16.7223 17.2031C16.6323 17.3431 16.4223 17.3831 16.2823 17.2931L15.6323 16.8631L15.6723 17.6331C15.6823 17.8231 15.5623 17.9731 15.3723 17.9731Z" />
        </svg>
    