
        <svg xmlns="http://www.w3.org/2000/svg" viewBox="0 0 100 100">
            <path d="M21.4886 4.0997C21.7186 4.0997 21.9186 3.8997 21.9186 3.6897V0.4097C21.9186 0.1897 21.7186 -0.0003 21.4886 -0.0003C21.2586 -0.0003 21.0586 0.1897 21.0586 0.4097V3.6897C21.0586 3.8997 21.2586 4.0997 21.4886 4.0997ZM15.4786 6.3597C15.6486 6.5297 15.9186 6.5297 16.0786 6.3597C16.2286 6.1997 16.2286 5.9297 16.0786 5.7697L13.7586 3.4497C13.5786 3.2797 13.3286 3.2897 13.1586 3.4497C12.9986 3.6097 12.9886 3.8797 13.1586 4.0397ZM26.9086 6.3597C27.0586 6.5297 27.3386 6.5297 27.5086 6.3597L29.8086 4.0397C29.9886 3.8797 29.9786 3.6097 29.8086 3.4497C29.6486 3.2897 29.3886 3.2797 29.2186 3.4497L26.9086 5.7697C26.7386 5.9297 26.7386 6.1997 26.9086 6.3597ZM23.8286 16.9097C25.7386 15.8697 26.9986 14.0197 26.9986 11.7797C26.9986 8.6997 24.5386 6.2497 21.4786 6.2497C19.0986 6.2497 17.1286 7.6897 16.3586 9.7497C16.8286 10.2897 17.2386 10.8597 17.5686 11.4797C21.0986 11.7397 23.3786 13.9797 23.8286 16.9097ZM4.4286 23.0397H17.2686C20.3886 23.0397 22.8386 20.6997 22.8386 17.7097C22.8386 14.6997 20.3286 12.4297 16.9786 12.4297C15.5486 9.6397 13.2286 8.1297 10.4086 8.1297C6.7886 8.1297 3.7186 11.0997 3.4186 14.9297C1.3286 15.4697 -0.0014 17.0597 -0.0014 19.0297C-0.0014 21.3897 1.8186 23.0397 4.4286 23.0397ZM29.5586 12.1997H32.8386C33.0786 12.1997 33.2686 12.0097 33.2686 11.7797C33.2686 11.5397 33.0786 11.3597 32.8386 11.3597H29.5586C29.3186 11.3597 29.1286 11.5397 29.1286 11.7797C29.1286 12.0097 29.3186 12.1997 29.5586 12.1997ZM29.2186 20.1197C29.3886 20.2997 29.6486 20.2697 29.8086 20.1197C29.9786 19.9597 29.9886 19.6897 29.8086 19.5197L27.4886 17.1997C27.3386 17.0497 27.0686 17.0497 26.9086 17.1997C26.7386 17.3697 26.7386 17.6397 26.9086 17.7997ZM13.2686 28.8597L15.0786 25.7097C15.2186 25.4897 15.1686 25.2697 14.9786 25.1597C14.7886 25.0597 14.5786 25.1097 14.4386 25.3497L12.6086 28.4897C12.4886 28.7097 12.5386 28.9297 12.7286 29.0497C12.9286 29.1597 13.1386 29.0897 13.2686 28.8597ZM3.9386 28.8597L5.7586 25.7197C5.8986 25.4897 5.8386 25.2797 5.6386 25.1597C5.4586 25.0597 5.2486 25.1097 5.1086 25.3497L3.2786 28.4897C3.1486 28.7197 3.1986 28.9297 3.3986 29.0497C3.5886 29.1597 3.8086 29.0897 3.9386 28.8597ZM16.9786 32.1397L18.7986 28.9897C18.9386 28.7697 18.8786 28.5497 18.6786 28.4397C18.5086 28.3397 18.2886 28.3897 18.1486 28.6297L16.3286 31.7697C16.2086 31.9897 16.2386 32.2197 16.4386 32.3297C16.6286 32.4397 16.8486 32.3697 16.9786 32.1397ZM7.6386 32.1397L9.4686 28.9997C9.6086 28.7697 9.5386 28.5597 9.3486 28.4397C9.1786 28.3397 8.9486 28.3897 8.8086 28.6297L6.9986 31.7697C6.8686 31.9897 6.9186 32.2197 7.1086 32.3297C7.2986 32.4397 7.5186 32.3697 7.6386 32.1397Z" />
        </svg>
    