
        <svg xmlns="http://www.w3.org/2000/svg" viewBox="0 0 100 100">
            <path d="M11.7523 23.5031C18.2323 23.5031 23.5123 18.2331 23.5123 11.7531C23.5123 5.2731 18.2323 0.0031 11.7523 0.0031C5.2723 0.0031 0.0023 5.2731 0.0023 11.7531C0.0023 18.2331 5.2723 23.5031 11.7523 23.5031ZM19.5123 8.8031C19.5123 9.6931 18.4223 11.2631 16.2623 11.5231C16.1223 9.8231 14.8023 8.5031 13.0223 8.3131C12.9223 8.1831 12.8323 8.0431 12.7123 7.9131C12.8523 6.2931 14.1023 4.8231 15.4023 4.7131C15.6123 4.7031 15.7423 4.7931 15.7423 4.9531C15.7423 5.2131 15.3623 5.7731 15.3623 6.5231C15.3623 7.9131 16.3123 8.8031 17.8023 8.8031C18.5323 8.8031 19.0323 8.4831 19.2823 8.4831C19.4323 8.4831 19.5123 8.6131 19.5123 8.8031ZM6.4523 14.6631C5.0023 14.6631 4.0823 13.7131 4.0823 12.4831C4.0823 11.4131 4.7623 10.6131 5.6923 10.3131C5.8923 8.4631 7.4523 6.9931 9.3023 6.9931C10.7623 6.9931 11.9023 7.7931 12.5723 9.0331C14.2623 9.0831 15.5323 10.2631 15.5323 11.8231C15.5323 13.4031 14.2623 14.6631 12.6323 14.6631ZM8.3323 17.3831L9.1423 15.5431C9.2023 15.4031 9.2823 15.3431 9.4723 15.3431H10.4723C10.6423 15.3431 10.7023 15.4531 10.6123 15.6231L10.0123 16.7931H11.1023C11.3123 16.7931 11.3623 16.9731 11.2423 17.1331L8.9423 19.7531C8.8023 19.9131 8.5623 19.8031 8.6323 19.6131L9.4323 17.6831H8.5223C8.3423 17.6831 8.2523 17.5431 8.3323 17.3831Z" />
        </svg>
    