
        <svg xmlns="http://www.w3.org/2000/svg" viewBox="0 0 100 100">
            <path d="M4.9717 24.6222H16.9417C20.2717 24.6222 22.8617 22.0822 22.8617 18.8322C22.8617 17.6022 22.5017 16.4922 21.8717 15.5722C22.6017 13.5622 24.5417 12.1522 26.8017 12.1522V10.3622C24.0617 10.3622 21.6917 11.9222 20.5217 14.2022C20.3017 14.0422 20.0617 13.9022 19.8317 13.7722C21.1417 11.2622 23.7817 9.5622 26.8017 9.5622V7.7722C22.9917 7.7722 19.6917 9.9622 18.1217 13.1722C17.8517 13.1122 17.5617 13.0822 17.2817 13.0522C18.9417 9.4522 22.5817 6.9722 26.8017 6.9722V5.1822C22.1117 5.1822 18.0517 7.8022 15.9817 11.6622C15.8017 11.4422 15.6117 11.2422 15.4017 11.0522C17.6417 7.0622 21.9017 4.3722 26.8017 4.3722V2.5922C21.2917 2.5922 16.5017 5.5522 13.9317 10.0122C13.7017 9.8822 13.4517 9.7722 13.1917 9.6822C15.8917 4.9522 20.9717 1.7822 26.8017 1.7822V0.0022C20.1217 0.0022 14.3417 3.7422 11.4017 9.2322C11.1017 9.1922 10.7817 9.1722 10.4617 9.1722C6.7417 9.1722 3.6217 11.9622 3.1517 15.6722C1.2517 16.2822 0.0017 17.9422 0.0017 20.0122C0.0017 22.7022 2.0417 24.6222 4.9717 24.6222Z" />
        </svg>
    