
        <svg xmlns="http://www.w3.org/2000/svg" viewBox="0 0 100 100">
            <path d="M12.2223 24.4436C18.9723 24.4436 24.4423 18.9736 24.4423 12.2236C24.4423 5.4736 18.9723 0.0036 12.2223 0.0036C5.4723 0.0036 0.0023 5.4736 0.0023 12.2236C0.0023 18.9736 5.4723 24.4436 12.2223 24.4436ZM12.2223 21.7636C6.9523 21.7636 2.6823 17.4936 2.6823 12.2236C2.6823 6.9536 6.9523 2.6836 12.2223 2.6836C17.4923 2.6836 21.7623 6.9536 21.7623 12.2236C21.7623 17.4936 17.4923 21.7636 12.2223 21.7636ZM19.3823 9.3636C19.3823 9.1536 19.3023 9.0136 19.1223 9.0136C18.8523 9.0136 18.4423 9.3236 17.7223 9.3236C16.4323 9.3236 15.6423 8.5636 15.6423 7.3936C15.6423 6.6836 16.0123 6.1736 16.0123 5.8736C16.0123 5.7036 15.8823 5.5936 15.6723 5.6036C14.6323 5.6336 13.2523 6.8436 13.0623 8.4236C13.2023 8.5736 13.3323 8.7536 13.4523 8.9136C15.1323 9.1336 16.3723 10.3636 16.5423 11.9636C18.3023 11.7236 19.3823 10.3136 19.3823 9.3636ZM7.3123 15.0536H13.0623C14.5823 15.0536 15.7423 13.8936 15.7423 12.3836C15.7423 10.8836 14.5523 9.7536 12.9723 9.7236C12.3823 8.6436 11.3423 7.8836 9.9423 7.8836C8.1923 7.8836 6.7223 9.2236 6.5423 10.9436C5.6723 11.2336 5.0623 12.0036 5.0623 12.9736C5.0623 14.1936 5.9723 15.0536 7.3123 15.0536ZM11.7223 17.4636L12.3423 16.4036C12.4723 16.1836 12.3823 15.9236 12.1623 15.7936C11.9523 15.6636 11.6823 15.7336 11.5623 15.9536L10.9523 17.0136C10.8423 17.2136 10.8823 17.4936 11.1223 17.6236C11.3423 17.7436 11.6023 17.6736 11.7223 17.4636ZM7.9423 17.4736L8.5623 16.4036C8.6923 16.1836 8.6223 15.9236 8.3923 15.7936C8.1923 15.6636 7.9223 15.7536 7.8023 15.9536L7.1823 17.0136C7.0623 17.2236 7.1223 17.5036 7.3523 17.6136C7.5623 17.7436 7.8323 17.6836 7.9423 17.4736ZM9.4523 18.6836L10.0423 17.6636C10.1623 17.4536 10.1023 17.1836 9.8823 17.0536C9.6523 16.9336 9.4023 16.9936 9.2723 17.2136L8.6823 18.2336C8.5523 18.4436 8.6323 18.7136 8.8623 18.8336C9.0723 18.9636 9.3423 18.8936 9.4523 18.6836ZM13.1923 18.6836L13.7923 17.6636C13.9123 17.4536 13.8323 17.1636 13.6123 17.0536C13.4023 16.9336 13.1323 17.0036 13.0123 17.2136L12.4123 18.2336C12.2823 18.4436 12.3623 18.7136 12.6023 18.8336C12.8123 18.9736 13.0823 18.8936 13.1923 18.6836Z" />
        </svg>
    