
        <svg xmlns="http://www.w3.org/2000/svg" viewBox="0 0 100 100">
            <path d="M5.0323 17.0386H19.8123C23.3823 17.0386 26.1523 14.3586 26.1523 10.9786C26.1523 7.5486 23.2623 5.0086 19.5023 5.0086C18.0323 1.9686 15.5523 -0.0014 11.9323 -0.0014C7.7623 -0.0014 4.3323 3.4586 3.9823 7.8086C1.7823 8.3786 0.0023 10.0686 0.0023 12.5086C0.0023 14.9786 1.8523 17.0386 5.0323 17.0386ZM14.1523 22.3086H12.3523L13.9223 19.2986C14.0523 19.0386 13.9423 18.8286 13.6723 18.8286H12.9523C12.6123 18.8286 12.4823 18.9586 12.3723 19.2086L10.7323 22.9686C10.5923 23.2886 10.7923 23.4486 11.0723 23.4486H12.5523L10.9023 27.4686C10.8323 27.6586 10.8723 27.7886 10.9923 27.8286C11.1123 27.8786 11.2623 27.8286 11.3623 27.6686L14.4223 22.8386C14.6023 22.5686 14.4823 22.3086 14.1523 22.3086Z" />
        </svg>
    