
        <svg xmlns="http://www.w3.org/2000/svg" viewBox="0 0 100 100">
            <path d="M5.4519 21.8418H18.2819C21.9019 21.8418 24.7219 19.0718 24.7219 15.5218C24.7219 15.4718 24.7219 15.4118 24.7219 15.3518C28.5019 15.3218 31.2319 13.1918 32.2519 10.3818C32.6819 9.2018 32.1319 8.1818 30.9919 8.1818C30.1419 8.1818 29.4719 8.5418 28.2119 8.5418C25.4519 8.5418 24.0619 7.0418 24.0619 4.3418C24.0619 2.9418 24.4919 2.0818 24.4919 1.4318C24.4919 0.2918 23.4719 -0.2682 22.3119 0.1318C19.4919 1.0618 17.2619 3.9618 17.2619 7.2918C17.2619 7.4118 17.2619 7.5418 17.2719 7.6718C15.8219 6.0118 13.7719 5.0818 11.3419 5.0818C7.3119 5.0818 3.9719 8.0418 3.4219 12.0318C1.3519 12.6918 0.0019 14.4918 0.0019 16.7518C0.0019 19.7118 2.2519 21.8418 5.4519 21.8418ZM19.5219 7.2618C19.5219 5.2118 20.6519 3.4818 22.1319 2.5618L22.2819 2.6618C22.0919 3.2318 21.9119 4.0218 21.9119 4.9418C21.9119 8.2918 24.2619 10.6818 27.6919 10.6818C28.5719 10.6818 29.2619 10.5218 29.7619 10.3418L29.8619 10.4418C29.0519 11.8818 27.1219 13.1518 24.2319 13.0318C23.4719 11.2418 21.8919 9.9018 19.9019 9.4118C19.6519 8.7418 19.5219 8.0118 19.5219 7.2618ZM5.4919 19.1618C3.6319 19.1618 2.6819 18.1518 2.6819 16.7918C2.6819 15.6118 3.4119 14.6618 5.0619 14.2218C5.6919 14.0618 5.8819 13.7718 5.9619 13.1218C6.3819 9.7718 8.6019 7.7518 11.3419 7.7518C13.4319 7.7518 15.1319 8.9418 16.2419 11.0718C16.5219 11.6118 16.8319 11.8018 17.4719 11.8018C20.5219 11.8018 22.0419 13.4918 22.0419 15.5718C22.0419 17.5918 20.4719 19.1618 18.2319 19.1618Z" />
        </svg>
    