
        <svg xmlns="http://www.w3.org/2000/svg" viewBox="0 0 100 100">
            <path d="M12.2223 24.4419C18.9723 24.4419 24.4423 18.9719 24.4423 12.2219C24.4423 5.4819 18.9723 0.0019 12.2223 0.0019C5.4823 0.0019 0.0023 5.4819 0.0023 12.2219C0.0023 18.9719 5.4823 24.4419 12.2223 24.4419ZM8.4823 13.8419C6.7823 13.8419 5.7423 12.7419 5.7423 11.3319C5.7423 10.1519 6.4923 9.2419 7.5623 8.9019C7.7823 6.7919 9.5423 5.1919 11.6723 5.1919C13.3123 5.1919 14.5923 6.0419 15.3123 7.4319C17.2423 7.4319 18.7023 8.7919 18.7023 10.6419C18.7023 12.4219 17.2823 13.8419 15.4223 13.8419ZM13.7323 17.1919C13.5723 17.4719 13.2223 17.5619 12.9523 17.4019C12.6523 17.2519 12.5623 16.8819 12.7423 16.6019L13.5323 15.2219C13.6923 14.9519 14.0423 14.8519 14.3223 15.0119C14.6123 15.1719 14.6923 15.5319 14.5323 15.8119ZM8.3823 17.1919C8.2023 17.4719 7.8623 17.5619 7.5823 17.4019C7.3023 17.2519 7.1923 16.8819 7.3723 16.6019L8.1723 15.2219C8.3223 14.9519 8.6723 14.8519 8.9523 15.0119C9.2423 15.1719 9.3323 15.5319 9.1723 15.8119ZM15.4123 18.9519C15.2623 19.2119 14.9023 19.3219 14.6223 19.1619C14.3323 18.9919 14.2523 18.6319 14.4123 18.3619L16.2223 15.2319C16.3723 14.9519 16.7223 14.8619 17.0023 15.0119C17.2823 15.1919 17.3823 15.5419 17.2223 15.8119ZM10.0523 18.9519C9.8923 19.2119 9.5423 19.3219 9.2723 19.1619C8.9723 18.9919 8.8823 18.6319 9.0323 18.3619L10.8523 15.2319C11.0123 14.9519 11.3623 14.8619 11.6323 15.0119C11.9323 15.1919 12.0123 15.5419 11.8623 15.8119Z" />
        </svg>
    