
        <svg xmlns="http://www.w3.org/2000/svg" viewBox="0 0 100 100">
            <path d="M21.7744 4.4775C22.3144 4.4775 22.7444 4.0275 22.7444 3.5075V0.9775C22.7444 0.4475 22.3144 -0.0025 21.7744 -0.0025C21.2344 -0.0025 20.8044 0.4475 20.8044 0.9775V3.5075C20.8044 4.0275 21.2344 4.4775 21.7744 4.4775ZM14.9744 6.7375C15.3644 7.1275 15.9944 7.1175 16.3644 6.7375C16.7244 6.3675 16.7344 5.7575 16.3644 5.3775L14.5544 3.5775C14.1844 3.1875 13.5744 3.1975 13.1944 3.5775C12.8244 3.9475 12.8044 4.5675 13.1944 4.9475ZM27.1844 6.7375C27.5544 7.1175 28.1844 7.1275 28.5744 6.7375L30.3644 4.9475C30.7344 4.5675 30.7344 3.9475 30.3644 3.5775C29.9844 3.1975 29.3744 3.1875 29.0044 3.5775L27.1844 5.3775C26.8144 5.7575 26.8244 6.3675 27.1844 6.7375ZM24.7844 17.1775C26.5044 16.0075 27.5644 14.2275 27.5644 12.1475C27.5644 8.9275 24.9944 6.3375 21.7744 6.3375C19.6544 6.3375 17.8144 7.4875 16.8444 9.1775C17.3344 9.6875 17.7544 10.2275 18.1044 10.9075C21.9744 11.2275 24.4644 13.6275 24.7844 17.1775ZM4.8544 23.5575H17.5344C20.8644 23.5575 23.4344 21.0375 23.4344 17.7875C23.4344 14.5675 20.8144 12.1275 17.3044 12.1075C15.9344 9.4775 13.5044 7.9675 10.6644 7.9675C6.8544 7.9675 3.6244 10.9175 3.2744 14.7775C1.2644 15.3775 0.0044 17.0575 0.0044 19.1275C0.0044 21.7475 1.9644 23.5575 4.8544 23.5575ZM30.3944 13.1275H32.9444C33.4644 13.1275 33.9044 12.6875 33.9044 12.1475C33.9044 11.6175 33.4644 11.1775 32.9444 11.1775H30.3944C29.8844 11.1775 29.4244 11.6175 29.4244 12.1475C29.4244 12.6875 29.8844 13.1275 30.3944 13.1275ZM29.0044 20.7575C29.3744 21.1275 29.9844 21.1175 30.3644 20.7375C30.7344 20.3675 30.7344 19.7475 30.3644 19.3875L28.5444 17.5875C28.1744 17.2275 27.5644 17.2175 27.1844 17.5875C26.8144 17.9575 26.8144 18.5875 27.1844 18.9575ZM14.0644 29.1775L15.5844 26.5475C15.7944 26.1775 15.6844 25.7675 15.3244 25.5575C14.9744 25.3575 14.5744 25.4775 14.3644 25.8275L12.8344 28.4975C12.6344 28.8275 12.7244 29.2475 13.0944 29.4475C13.4444 29.6475 13.8644 29.5275 14.0644 29.1775ZM4.7344 29.1875L6.2544 26.5575C6.4644 26.1875 6.3644 25.7775 6.0144 25.5675C5.6444 25.3675 5.2544 25.4875 5.0344 25.8375L3.5044 28.5075C3.3044 28.8375 3.4144 29.2575 3.7644 29.4575C4.1144 29.6575 4.5344 29.5475 4.7344 29.1875ZM17.7144 32.4875L19.2544 29.8375C19.4644 29.4875 19.3444 29.0675 18.9944 28.8675C18.6444 28.6475 18.2444 28.7675 18.0244 29.1375L16.4844 31.7975C16.2844 32.1375 16.3944 32.5475 16.7544 32.7575C17.0944 32.9375 17.5344 32.8275 17.7144 32.4875ZM8.4044 32.4975L9.9244 29.8475C10.1344 29.4975 10.0244 29.0775 9.6844 28.8775C9.3144 28.6675 8.9144 28.7775 8.7044 29.1475L7.1744 31.8075C6.9744 32.1475 7.0744 32.5575 7.4344 32.7675C7.7844 32.9575 8.2044 32.8375 8.4044 32.4975Z" />
        </svg>
    