
        <svg xmlns="http://www.w3.org/2000/svg" viewBox="0 0 100 100">
            <path d="M11.7523 23.5031C18.2323 23.5031 23.5123 18.2331 23.5123 11.7531C23.5123 5.2731 18.2323 0.0031 11.7523 0.0031C5.2723 0.0031 0.0023 5.2731 0.0023 11.7531C0.0023 18.2331 5.2723 23.5031 11.7523 23.5031ZM7.3323 16.1131C5.5223 16.1131 4.3623 14.9631 4.3623 13.4031C4.3623 12.0831 5.2623 11.0631 6.5023 10.7331C6.7023 8.2931 8.6923 6.3731 11.1023 6.3731C12.9923 6.3731 14.4823 7.4131 15.2923 9.0831C17.4923 9.0631 19.1523 10.5631 19.1523 12.5731C19.1523 14.5531 17.5423 16.1131 15.4923 16.1131Z" />
        </svg>
    