
        <svg xmlns="http://www.w3.org/2000/svg" viewBox="0 0 100 100">
            <path d="M6.4523 19.633H21.3123C25.5923 19.633 28.8623 16.363 28.8623 12.183C28.8623 7.993 25.6623 4.683 21.3823 4.683C20.0623 2.143 17.5923 0.003 13.2923 0.003C8.4123 0.003 4.7223 3.443 4.0323 7.863C1.7323 8.693 0.0023 10.723 0.0023 13.493C0.0023 16.973 2.6223 19.633 6.4523 19.633ZM6.5823 15.983C4.6023 15.983 3.6323 14.973 3.6323 13.563C3.6323 12.233 4.4923 11.313 6.2923 10.843C7.1023 10.633 7.3023 10.273 7.4323 9.473C8.0523 5.553 10.3523 3.643 13.2923 3.643C15.4823 3.643 17.3423 4.913 18.6423 7.303C18.9923 7.953 19.3723 8.193 20.1923 8.193C23.7023 8.193 25.2323 9.973 25.2323 12.253C25.2323 14.363 23.6723 15.983 21.2023 15.983ZM6.5823 26.323C6.9123 26.323 7.1223 26.043 7.0623 25.703L6.8623 24.593L7.7323 25.313C8.0123 25.543 8.3423 25.513 8.4923 25.223C8.6723 24.933 8.5323 24.593 8.1923 24.453L7.1923 24.093L8.2123 23.703C8.5423 23.583 8.6823 23.263 8.5223 22.983C8.3523 22.703 8.0023 22.643 7.7223 22.873L6.8823 23.543L7.0623 22.493C7.1223 22.133 6.9123 21.863 6.5823 21.863C6.2423 21.863 6.0223 22.133 6.0823 22.493L6.2623 23.543L5.4223 22.853C5.1523 22.643 4.8023 22.703 4.6423 22.983C4.4723 23.263 4.6123 23.583 4.9523 23.703L5.9923 24.083L4.9423 24.473C4.6123 24.613 4.4723 24.923 4.6523 25.223C4.8123 25.513 5.1523 25.543 5.4223 25.313L6.2623 24.633L6.0823 25.703C6.0323 26.043 6.2423 26.323 6.5823 26.323ZM13.0823 26.323C13.4023 26.323 13.6123 26.043 13.5623 25.703L13.3623 24.593L14.2223 25.313C14.5123 25.543 14.8323 25.513 14.9923 25.223C15.1623 24.933 15.0223 24.593 14.6823 24.453L13.6923 24.093L14.7023 23.703C15.0323 23.583 15.1723 23.263 15.0123 22.983C14.8523 22.703 14.4923 22.643 14.2123 22.873L13.3723 23.543L13.5623 22.493C13.6123 22.133 13.4023 21.863 13.0823 21.863C12.7423 21.863 12.5123 22.133 12.5723 22.493L12.7523 23.543L11.9223 22.853C11.6523 22.643 11.2923 22.703 11.1323 22.983C10.9723 23.263 11.1123 23.583 11.4523 23.703L12.4823 24.083L11.4423 24.473C11.1123 24.613 10.9723 24.923 11.1423 25.223C11.3123 25.513 11.6523 25.543 11.9223 25.313L12.7523 24.633L12.5723 25.703C12.5323 26.043 12.7423 26.323 13.0823 26.323ZM19.5723 26.323C19.9023 26.323 20.1123 26.043 20.0523 25.703L19.8523 24.593L20.7223 25.313C21.0023 25.543 21.3123 25.513 21.4823 25.223C21.6523 24.933 21.5123 24.593 21.1723 24.453L20.1823 24.093L21.2023 23.703C21.5323 23.583 21.6723 23.263 21.4923 22.983C21.3423 22.703 20.9923 22.643 20.7023 22.873L19.8623 23.543L20.0523 22.493C20.1123 22.133 19.9023 21.863 19.5723 21.863C19.2323 21.863 19.0123 22.133 19.0623 22.493L19.2423 23.543L18.4123 22.853C18.1423 22.643 17.7923 22.703 17.6223 22.983C17.4623 23.263 17.6023 23.583 17.9423 23.703L18.9723 24.083L17.9323 24.473C17.6023 24.613 17.4623 24.923 17.6323 25.223C17.8023 25.513 18.1423 25.543 18.4123 25.313L19.2423 24.633L19.0623 25.703C19.0223 26.043 19.2323 26.323 19.5723 26.323ZM4.0423 30.713C4.3723 30.713 4.5823 30.433 4.5223 30.093L4.3223 29.003L5.1923 29.703C5.4723 29.943 5.8023 29.903 5.9523 29.613C6.1323 29.333 5.9923 28.993 5.6523 28.863L4.6523 28.493L5.6723 28.103C6.0023 27.973 6.1423 27.673 5.9723 27.373C5.8123 27.093 5.4623 27.033 5.1823 27.273L4.3323 27.933L4.5223 26.883C4.5823 26.543 4.3723 26.263 4.0423 26.263C3.7023 26.263 3.4823 26.543 3.5423 26.883L3.7123 27.933L2.8823 27.253C2.6123 27.033 2.2623 27.093 2.1023 27.373C1.9323 27.673 2.0723 27.973 2.4123 28.103L3.4423 28.473L2.4023 28.873C2.0723 29.003 1.9323 29.333 2.1123 29.613C2.2723 29.903 2.6123 29.943 2.8823 29.703L3.7123 29.023L3.5423 30.093C3.4923 30.433 3.7023 30.713 4.0423 30.713ZM10.5323 30.713C10.8623 30.713 11.0723 30.433 11.0123 30.093L10.8123 29.003L11.6823 29.703C11.9623 29.943 12.2923 29.903 12.4423 29.613C12.6223 29.333 12.4823 28.993 12.1423 28.863L11.1423 28.493L12.1623 28.103C12.4923 27.973 12.6323 27.673 12.4723 27.373C12.3023 27.093 11.9523 27.033 11.6723 27.273L10.8323 27.933L11.0123 26.883C11.0723 26.543 10.8623 26.263 10.5323 26.263C10.1923 26.263 9.9723 26.543 10.0323 26.883L10.2023 27.933L9.3723 27.253C9.1023 27.033 8.7523 27.093 8.5923 27.373C8.4223 27.673 8.5623 27.973 8.9023 28.103L9.9423 28.473L8.8923 28.873C8.5623 29.003 8.4223 29.333 8.6023 29.613C8.7623 29.903 9.1023 29.943 9.3723 29.703L10.2023 29.023L10.0323 30.093C9.9823 30.433 10.1923 30.713 10.5323 30.713ZM17.0323 30.713C17.3523 30.713 17.5623 30.433 17.5123 30.093L17.3123 29.003L18.1723 29.703C18.4523 29.943 18.7723 29.903 18.9423 29.613C19.1123 29.333 18.9723 28.993 18.6323 28.863L17.6323 28.493L18.6523 28.103C18.9823 27.973 19.1223 27.673 18.9523 27.373C18.7923 27.093 18.4423 27.033 18.1623 27.273L17.3223 27.933L17.5123 26.883C17.5623 26.543 17.3523 26.263 17.0323 26.263C16.6923 26.263 16.4623 26.543 16.5223 26.883L16.7023 27.933L15.8623 27.253C15.6023 27.033 15.2423 27.093 15.0823 27.373C14.9223 27.673 15.0623 27.973 15.4023 28.103L16.4323 28.473L15.3823 28.873C15.0623 29.003 14.9223 29.333 15.0923 29.613C15.2623 29.903 15.6023 29.943 15.8623 29.703L16.7023 29.023L16.5223 30.093C16.4723 30.433 16.6923 30.713 17.0323 30.713Z" />
        </svg>
    