
        <svg xmlns="http://www.w3.org/2000/svg" viewBox="0 0 100 100">
            <path d="M24.9044 13.8182C28.5544 13.1682 30.7344 10.2082 30.7344 8.2882C30.7344 7.8282 30.5244 7.4882 30.1544 7.4882C29.5944 7.4882 28.7344 8.2382 27.1144 8.2382C24.2444 8.2382 22.4444 6.5182 22.4444 3.8882C22.4444 2.3482 23.2744 1.2182 23.2744 0.5882C23.2744 0.2182 23.0244 -0.0118 22.5544 -0.0018C20.3944 0.0982 17.6344 2.5082 17.0244 5.6282C17.3944 5.9682 17.7444 6.4182 18.0244 7.0482C21.9744 7.3482 24.8344 10.3282 24.9044 13.8182ZM4.8644 19.7682H17.5444C20.8644 19.7682 23.4344 17.2582 23.4344 14.0182C23.4344 10.7782 20.8144 8.3482 17.3044 8.3182C15.9344 5.7082 13.5044 4.1882 10.6644 4.1882C6.8544 4.1882 3.6244 7.1482 3.2744 10.9882C1.2744 11.5882 0.0044 13.2782 0.0044 15.3382C0.0044 17.9682 1.9844 19.7682 4.8644 19.7682ZM13.9444 25.3682L15.4644 22.7382C15.6844 22.3682 15.5644 21.9582 15.2244 21.7582C14.8644 21.5482 14.4644 21.6682 14.2544 22.0282L12.7144 24.6882C12.5144 25.0282 12.6144 25.4382 12.9744 25.6482C13.3244 25.8382 13.7444 25.7182 13.9444 25.3682ZM4.6144 25.3882L6.1544 22.7482C6.3644 22.3782 6.2444 21.9682 5.8944 21.7782C5.5444 21.5582 5.1444 21.6782 4.9244 22.0482L3.3844 24.7082C3.1844 25.0482 3.2944 25.4582 3.6544 25.6682C3.9944 25.8482 4.4144 25.7382 4.6144 25.3882ZM17.6144 28.6782L19.1344 26.0282C19.3444 25.6782 19.2344 25.2682 18.8744 25.0582C18.5244 24.8582 18.1244 24.9682 17.9144 25.3282L16.3844 27.9982C16.1844 28.3282 16.2744 28.7382 16.6444 28.9482C16.9944 29.1482 17.4144 29.0282 17.6144 28.6782ZM8.2844 28.6882L9.8044 26.0382C10.0344 25.6882 9.9144 25.2782 9.5644 25.0682C9.2144 24.8682 8.8144 24.9882 8.5944 25.3382L7.0544 28.0082C6.8544 28.3382 6.9644 28.7482 7.3244 28.9582C7.6644 29.1582 8.0844 29.0382 8.2844 28.6882Z" />
        </svg>
    