
        <svg xmlns="http://www.w3.org/2000/svg" viewBox="0 0 100 100">
            <path d="M12.3723 24.7542C19.2023 24.7542 24.7523 19.2042 24.7523 12.3742C24.7523 5.5442 19.2023 0.0042 12.3723 0.0042C5.5423 0.0042 0.0023 5.5442 0.0023 12.3742C0.0023 19.2042 5.5423 24.7542 12.3723 24.7542ZM8.7923 13.8242C7.1323 13.8242 6.0923 12.7342 6.0923 11.3442C6.0923 10.1942 6.7923 9.3142 7.8423 8.9642C8.1023 6.9142 9.7923 5.3942 11.8623 5.3942C13.4623 5.3942 14.6923 6.1942 15.3823 7.5342C17.2623 7.5342 18.6823 8.8842 18.6823 10.6942C18.6823 12.4342 17.2823 13.8242 15.4723 13.8242ZM9.6123 16.8642C9.4723 17.1342 9.1023 17.2342 8.8223 17.0742C8.5223 16.9142 8.4523 16.5342 8.5923 16.2642L9.2323 15.1742C9.3723 14.9042 9.7423 14.8042 10.0323 14.9542C10.3223 15.1242 10.3923 15.5042 10.2523 15.7642ZM15.6223 16.8642C15.4823 17.1342 15.1023 17.2342 14.8323 17.0742C14.5423 16.9142 14.4623 16.5342 14.6123 16.2642L15.2423 15.1742C15.3823 14.9042 15.7623 14.8042 16.0423 14.9542C16.3223 15.1242 16.4023 15.5042 16.2523 15.7642ZM12.6223 16.8742C12.4823 17.1442 12.1023 17.2542 11.8223 17.0842C11.5423 16.9242 11.4623 16.5442 11.6123 16.2842L12.2323 15.1842C12.3823 14.9142 12.7523 14.8142 13.0423 14.9742C13.3223 15.1442 13.4023 15.5142 13.2523 15.7742ZM8.1223 19.1842C7.6723 19.1842 7.3123 18.8242 7.3123 18.3742C7.3123 17.9442 7.6723 17.5742 8.1223 17.5742C8.5523 17.5742 8.9223 17.9442 8.9223 18.3742C8.9223 18.8242 8.5523 19.1842 8.1223 19.1842ZM14.1323 19.1842C13.6923 19.1842 13.3223 18.8242 13.3223 18.3742C13.3223 17.9442 13.6923 17.5742 14.1323 17.5742C14.5823 17.5742 14.9423 17.9442 14.9423 18.3742C14.9423 18.8242 14.5823 19.1842 14.1323 19.1842ZM11.1323 19.1942C10.6923 19.1942 10.3223 18.8342 10.3223 18.3842C10.3223 17.9542 10.6923 17.5942 11.1323 17.5942C11.5623 17.5942 11.9323 17.9542 11.9323 18.3842C11.9323 18.8342 11.5623 19.1942 11.1323 19.1942Z" />
        </svg>
    