
        <svg xmlns="http://www.w3.org/2000/svg" viewBox="0 0 100 100">
            <path d="M11.7523 23.5031C18.2323 23.5031 23.5123 18.2331 23.5123 11.7531C23.5123 5.2731 18.2323 0.0031 11.7523 0.0031C5.2723 0.0031 0.0023 5.2731 0.0023 11.7531C0.0023 18.2331 5.2723 23.5031 11.7523 23.5031ZM7.8723 13.2331C6.1923 13.2331 5.2123 12.1431 5.2123 10.8131C5.2123 9.5931 6.0323 8.7031 7.1023 8.4131C7.3023 6.2431 9.0723 4.5131 11.2123 4.5131C12.9423 4.5131 14.2523 5.4831 14.9723 6.9231C16.9223 6.9231 18.4123 8.2531 18.4123 10.0631C18.4123 11.8131 16.9823 13.2331 15.1423 13.2331ZM7.2423 15.8131C6.9923 15.8131 6.7823 15.6131 6.7823 15.3531C6.7823 15.0931 6.9923 14.8831 7.2423 14.8831H16.2623C16.5223 14.8831 16.7223 15.0831 16.7223 15.3531C16.7223 15.6131 16.5223 15.8131 16.2623 15.8131ZM7.2423 18.2331C6.9923 18.2331 6.7823 18.0331 6.7823 17.7731C6.7823 17.5231 6.9923 17.3231 7.2423 17.3231H16.2623C16.5223 17.3231 16.7223 17.5031 16.7223 17.7731C16.7223 18.0331 16.5223 18.2331 16.2623 18.2331Z" />
        </svg>
    