
        <svg xmlns="http://www.w3.org/2000/svg" viewBox="0 0 100 100">
            <path d="M6.2323 19.1703H21.0223C25.1923 19.1703 28.3723 16.0003 28.3723 11.9503C28.3723 7.8603 25.1923 4.7003 21.0023 4.7003C19.6423 2.0703 17.1123 0.0003 13.0223 0.0003C8.2623 0.0003 4.5823 3.4403 3.9623 7.8503C1.7023 8.6203 0.0023 10.6103 0.0023 13.3103C0.0023 16.6203 2.4823 19.1703 6.2323 19.1703ZM6.3323 15.9503C4.2423 15.9503 3.2223 14.8703 3.2223 13.3703C3.2223 12.0203 4.0623 11.0303 5.9223 10.5303C6.6823 10.3403 6.8923 10.0003 6.9923 9.2203C7.5423 5.3203 9.9723 3.2203 13.0223 3.2203C15.3123 3.2203 17.2423 4.5203 18.5323 6.9703C18.8523 7.6103 19.2323 7.8303 20.0123 7.8303C23.5223 7.8303 25.1523 9.6803 25.1523 12.0203C25.1523 14.2403 23.4723 15.9503 20.9523 15.9503ZM21.6523 21.9703H6.9523C6.3723 21.9703 5.9423 22.3703 5.9423 22.9103C5.9423 23.4503 6.3723 23.8603 6.9523 23.8603H21.6523C22.2323 23.8603 22.6623 23.4503 22.6623 22.9103C22.6623 22.3703 22.2323 21.9703 21.6523 21.9703ZM21.6523 25.9503H6.9523C6.3723 25.9503 5.9423 26.3603 5.9423 26.8903C5.9423 27.4303 6.3723 27.8303 6.9523 27.8303H21.6523C22.2323 27.8303 22.6623 27.4303 22.6623 26.8903C22.6623 26.3603 22.2323 25.9503 21.6523 25.9503Z" />
        </svg>
    