
        <svg xmlns="http://www.w3.org/2000/svg" viewBox="0 0 100 100">
            <path d="M11.4923 22.977C17.8323 22.977 22.9823 17.847 22.9823 11.497C22.9823 5.147 17.8323 -0.003 11.4923 -0.003C5.1423 -0.003 0.0023 5.147 0.0023 11.497C0.0023 17.847 5.1423 22.977 11.4923 22.977ZM11.4923 22.087C5.6323 22.087 0.8923 17.357 0.8923 11.497C0.8923 5.637 5.6323 0.887 11.4923 0.887C17.3523 0.887 22.0923 5.637 22.0923 11.497C22.0923 17.357 17.3523 22.087 11.4923 22.087ZM14.2523 5.717C14.4523 5.717 14.5923 5.567 14.5923 5.407V3.757C14.5923 3.577 14.4523 3.437 14.2523 3.437C14.0723 3.437 13.9123 3.577 13.9123 3.757V5.407C13.9123 5.567 14.0723 5.717 14.2523 5.717ZM11.2023 6.797C11.3323 6.937 11.5423 6.937 11.6723 6.807C11.8023 6.677 11.8023 6.457 11.6723 6.327L10.5223 5.177C10.3823 5.037 10.1823 5.047 10.0423 5.167C9.9123 5.287 9.9123 5.507 10.0423 5.637ZM16.8523 6.797C16.9723 6.937 17.1923 6.937 17.3323 6.797L18.4723 5.637C18.6023 5.507 18.5823 5.297 18.4723 5.177C18.3423 5.047 18.1423 5.037 18.0023 5.177L16.8523 6.327C16.7123 6.447 16.7123 6.667 16.8523 6.797ZM17.1123 9.397C17.1123 7.797 15.8323 6.527 14.2523 6.527C13.1523 6.527 12.2023 7.147 11.7223 8.027C12.0123 8.307 12.2623 8.627 12.4823 8.977C14.1723 9.167 15.4723 10.337 15.6523 11.927C16.5323 11.377 17.1123 10.477 17.1123 9.397ZM5.7823 15.167H12.1523C13.7823 15.167 15.0723 13.907 15.0723 12.337C15.0723 10.797 13.7923 9.617 12.1023 9.567C11.4223 8.297 10.2823 7.437 8.7523 7.437C6.8923 7.437 5.3323 8.937 5.1323 10.827C4.1623 11.137 3.4223 11.907 3.4223 13.017C3.4223 14.187 4.3223 15.167 5.7823 15.167ZM18.2423 9.717H19.8623C20.0623 9.717 20.2023 9.577 20.2023 9.397C20.2023 9.197 20.0623 9.057 19.8623 9.057H18.2423C18.0623 9.057 17.9023 9.197 17.9023 9.397C17.9023 9.577 18.0623 9.717 18.2423 9.717ZM18.0023 13.617C18.1323 13.747 18.3423 13.727 18.4723 13.617C18.5823 13.477 18.6123 13.267 18.4723 13.137L17.3323 11.977C17.2023 11.847 16.9723 11.857 16.8523 11.977C16.7123 12.107 16.7123 12.317 16.8523 12.457ZM6.0723 18.107L6.9223 16.627C7.0323 16.467 6.9623 16.277 6.7923 16.167C6.6523 16.087 6.4523 16.147 6.3623 16.297L5.4923 17.787C5.4023 17.937 5.4623 18.137 5.6223 18.237C5.7823 18.317 5.9723 18.267 6.0723 18.107ZM9.8123 18.117L10.6623 16.637C10.7723 16.477 10.7023 16.287 10.5323 16.187C10.3823 16.097 10.1923 16.147 10.1023 16.317L9.2323 17.787C9.1423 17.957 9.2023 18.157 9.3623 18.247C9.5123 18.327 9.7123 18.277 9.8123 18.117ZM7.5323 19.087L8.2523 17.847C8.3423 17.687 8.2923 17.487 8.1223 17.387C7.9723 17.317 7.7823 17.367 7.6723 17.517L6.9623 18.757C6.8523 18.927 6.9223 19.127 7.0923 19.217C7.2323 19.297 7.4423 19.257 7.5323 19.087ZM11.2623 19.097L11.9923 17.857C12.0823 17.697 12.0323 17.487 11.8623 17.407C11.7023 17.327 11.5223 17.377 11.4123 17.527L10.7023 18.777C10.5923 18.937 10.6623 19.137 10.8323 19.227C10.9723 19.317 11.1723 19.267 11.2623 19.097Z" />
        </svg>
    