
        <svg xmlns="http://www.w3.org/2000/svg" viewBox="0 0 100 100">
            <path d="M6.4523 19.633H21.3123C25.5923 19.633 28.8623 16.363 28.8623 12.183C28.8623 7.993 25.6623 4.683 21.3823 4.683C20.0623 2.143 17.5923 0.003 13.2923 0.003C8.4123 0.003 4.7223 3.443 4.0323 7.863C1.7323 8.693 0.0023 10.723 0.0023 13.493C0.0023 16.973 2.6223 19.633 6.4523 19.633ZM6.5823 15.983C4.6023 15.983 3.6323 14.973 3.6323 13.563C3.6323 12.233 4.4923 11.313 6.2923 10.843C7.1023 10.633 7.3023 10.273 7.4323 9.473C8.0523 5.553 10.3523 3.643 13.2923 3.643C15.4823 3.643 17.3423 4.913 18.6423 7.303C18.9923 7.953 19.3723 8.193 20.1923 8.193C23.7023 8.193 25.2323 9.973 25.2323 12.253C25.2323 14.363 23.6723 15.983 21.2023 15.983ZM9.7623 29.333L13.1323 23.523C13.4223 23.023 13.2923 22.403 12.7823 22.113C12.2723 21.813 11.6923 22.023 11.4023 22.533L8.0123 28.343C7.7423 28.833 7.8523 29.453 8.3623 29.743C8.8723 30.033 9.4823 29.813 9.7623 29.333ZM19.0923 29.333L22.4623 23.523C22.7423 23.023 22.6323 22.393 22.1123 22.113C21.6023 21.823 21.0223 22.023 20.7323 22.523L17.3523 28.343C17.0723 28.833 17.1823 29.453 17.6923 29.743C18.2123 30.033 18.8123 29.813 19.0923 29.333ZM5.0623 29.343L8.4423 23.533C8.7223 23.043 8.6023 22.413 8.0823 22.123C7.5723 21.833 6.9923 22.033 6.7023 22.543L3.3323 28.363C3.0423 28.853 3.1523 29.463 3.6723 29.753C4.1823 30.043 4.7823 29.833 5.0623 29.343ZM14.4023 29.343L17.7823 23.533C18.0623 23.043 17.9323 22.413 17.4223 22.123C16.9123 21.833 16.3323 22.033 16.0423 22.543L12.6523 28.363C12.3823 28.853 12.4923 29.463 13.0123 29.753C13.5123 30.043 14.1223 29.833 14.4023 29.343Z" />
        </svg>
    