
        <svg xmlns="http://www.w3.org/2000/svg" viewBox="0 0 100 100">
            <path d="M11.3523 22.7147C17.6023 22.7147 22.7123 17.6047 22.7123 11.3547C22.7123 5.1047 17.6023 0.0047 11.3523 0.0047C5.1123 0.0047 0.0023 5.1047 0.0023 11.3547C0.0023 17.6047 5.1123 22.7147 11.3523 22.7147ZM19.8623 10.1647C19.8623 10.8447 18.9223 12.5347 16.2523 12.9647C16.1323 11.1947 14.7023 9.8747 12.8623 9.6747C12.8123 9.5847 12.7523 9.4947 12.6923 9.3947C12.7023 7.7947 13.5923 6.0047 15.3023 5.7447C15.5523 5.7147 15.6523 5.7847 15.6523 5.9447C15.6523 6.1147 15.3323 6.7247 15.3323 7.5247C15.3323 9.1447 16.4523 10.2147 18.1623 10.2147C18.8223 10.2147 19.5123 9.9647 19.6923 9.9647C19.8023 9.9647 19.8623 10.0347 19.8623 10.1647ZM5.6823 16.1847C4.1223 16.1847 3.1923 15.1447 3.1923 13.9147C3.1923 12.7147 4.0123 11.9047 5.0523 11.5947C5.2723 9.5647 6.9123 7.9447 8.9023 7.9447C10.5723 7.9447 11.7823 8.8847 12.5123 10.2447C14.3123 10.3147 15.6723 11.5547 15.6723 13.1947C15.6723 14.8547 14.2923 16.1847 12.5623 16.1847Z" />
        </svg>
    