
        <svg xmlns="http://www.w3.org/2000/svg" viewBox="0 0 100 100">
            <path d="M6.2323 19.1703H21.0223C25.1923 19.1703 28.3723 16.0003 28.3723 11.9503C28.3723 7.8603 25.1923 4.7003 21.0023 4.7003C19.6423 2.0703 17.1123 0.0003 13.0223 0.0003C8.2623 0.0003 4.5823 3.4403 3.9623 7.8503C1.7023 8.6203 0.0023 10.6103 0.0023 13.3103C0.0023 16.6203 2.4823 19.1703 6.2323 19.1703ZM6.3323 15.9503C4.2423 15.9503 3.2223 14.8703 3.2223 13.3703C3.2223 12.0203 4.0623 11.0303 5.9223 10.5303C6.6823 10.3403 6.8923 10.0003 6.9923 9.2203C7.5423 5.3203 9.9723 3.2203 13.0223 3.2203C15.3123 3.2203 17.2423 4.5203 18.5323 6.9703C18.8523 7.6103 19.2323 7.8303 20.0123 7.8303C23.5223 7.8303 25.1523 9.6803 25.1523 12.0203C25.1523 14.2403 23.4723 15.9503 20.9523 15.9503ZM8.1223 23.4403L8.6723 22.4903C8.9423 22.0303 8.8123 21.4603 8.3423 21.1903C7.8623 20.9203 7.3323 21.0803 7.0523 21.5703L6.5023 22.5303C6.2623 22.9803 6.3523 23.5403 6.8323 23.8203C7.3023 24.0903 7.8623 23.8903 8.1223 23.4403ZM13.2423 25.2403L14.8223 22.5103C15.0823 22.0503 14.9623 21.4803 14.4823 21.2003C14.0123 20.9303 13.4923 21.1103 13.2023 21.5903L11.6223 24.3303C11.3623 24.7703 11.4723 25.3403 11.9423 25.6203C12.4223 25.8903 12.9823 25.6903 13.2423 25.2403ZM20.4023 23.4803L20.9523 22.5303C21.2223 22.0803 21.0923 21.5003 20.6223 21.2303C20.1423 20.9503 19.6123 21.1303 19.3323 21.6203L18.7823 22.5703C18.5323 23.0303 18.6323 23.5903 19.1123 23.8603C19.5823 24.1303 20.1423 23.9403 20.4023 23.4803ZM5.5423 27.4503C6.3523 27.4503 7.0223 26.7803 7.0223 25.9603C7.0223 25.1603 6.3523 24.4903 5.5423 24.4903C4.7323 24.4903 4.0623 25.1603 4.0623 25.9603C4.0623 26.7803 4.7323 27.4503 5.5423 27.4503ZM17.8223 27.4903C18.6323 27.4903 19.3023 26.8203 19.3023 26.0003C19.3023 25.2103 18.6323 24.5403 17.8223 24.5403C17.0123 24.5403 16.3523 25.2103 16.3523 26.0003C16.3523 26.8203 17.0123 27.4903 17.8223 27.4903ZM10.6623 29.2403C11.4623 29.2403 12.1323 28.5703 12.1323 27.7503C12.1323 26.9503 11.4723 26.2803 10.6623 26.2803C9.8523 26.2803 9.1923 26.9503 9.1923 27.7503C9.1923 28.5703 9.8523 29.2403 10.6623 29.2403Z" />
        </svg>
    