
        <svg xmlns="http://www.w3.org/2000/svg" viewBox="0 0 100 100">
            <path d="M5.5123 17.7489H20.0523C23.8923 17.7489 26.7523 14.8389 26.7523 11.2289C26.7523 7.4889 23.7023 4.7589 19.7323 4.7589C18.2723 1.8589 15.5523 -0.0011 12.1623 -0.0011C7.7623 -0.0011 4.1223 3.4589 3.7423 7.8089C1.6123 8.4289 0.0023 10.2689 0.0023 12.7389C0.0023 15.5189 2.0123 17.7489 5.5123 17.7489ZM5.4823 15.8789C3.0823 15.8789 1.8723 14.5289 1.8723 12.7989C1.8723 11.3889 2.6923 10.1289 4.6923 9.5989C5.3323 9.4189 5.5623 9.1189 5.6223 8.4589C5.8923 4.6289 8.7623 1.8789 12.1623 1.8789C14.8023 1.8789 16.8723 3.3289 18.1423 5.9189C18.4123 6.4889 18.7623 6.6889 19.4523 6.6889C22.9223 6.6889 24.8823 8.7789 24.8823 11.2689C24.8823 13.8289 22.8423 15.8789 20.1723 15.8789ZM16.1923 22.0989H13.7923L14.9423 19.8889C15.0823 19.6289 14.9723 19.4289 14.7223 19.4289H12.1723C11.8323 19.4289 11.7223 19.5489 11.6123 19.7889L10.0223 23.4289C9.8923 23.7189 10.0223 23.8989 10.3223 23.8989H12.3623L10.7623 27.7889C10.7023 27.9389 10.7323 28.0689 10.8423 28.1089C10.9423 28.1589 11.0723 28.1289 11.2023 27.9989L16.3823 22.6889C16.6323 22.4289 16.5323 22.0989 16.1923 22.0989ZM3.0623 23.5089C3.4123 23.7089 3.8323 23.5889 4.0323 23.2389L5.5523 20.5989C5.7623 20.2389 5.6523 19.8289 5.2923 19.6189C4.9423 19.4189 4.5423 19.5389 4.3323 19.8889L2.8023 22.5589C2.6023 22.8989 2.6923 23.3089 3.0623 23.5089ZM19.3523 23.5089C19.7023 23.7089 20.1223 23.5889 20.3223 23.2389L21.8423 20.5989C22.0523 20.2389 21.9423 19.8289 21.6023 19.6189C21.2323 19.4189 20.8323 19.5389 20.6223 19.8889L19.0923 22.5589C18.8923 22.8989 18.9823 23.3089 19.3523 23.5089ZM5.3323 26.7889C5.6823 26.9789 6.1023 26.8589 6.3023 26.5189L7.8323 23.8689C8.0423 23.5189 7.9223 23.1089 7.5723 22.8989C7.2223 22.6889 6.8223 22.8089 6.6123 23.1689L5.0623 25.8289C4.8723 26.1689 4.9723 26.5789 5.3323 26.7889ZM21.6223 26.7889C21.9723 26.9789 22.3923 26.8589 22.5923 26.5189L24.1123 23.8689C24.3323 23.5189 24.2123 23.1089 23.8723 22.8989C23.5123 22.6889 23.1123 22.8089 22.9023 23.1689L21.3623 25.8289C21.1623 26.1689 21.2623 26.5789 21.6223 26.7889Z" />
        </svg>
    