
        <svg xmlns="http://www.w3.org/2000/svg" viewBox="0 0 100 100">
            <path d="M11.9523 23.9041C18.5523 23.9041 23.9023 18.5541 23.9023 11.9541C23.9023 5.3541 18.5523 0.0041 11.9523 0.0041C5.3523 0.0041 0.0023 5.3541 0.0023 11.9541C0.0023 18.5541 5.3523 23.9041 11.9523 23.9041ZM11.9523 21.9141C6.4423 21.9141 1.9923 17.4641 1.9923 11.9541C1.9923 6.4441 6.4423 1.9941 11.9523 1.9941C17.4623 1.9941 21.9123 6.4441 21.9123 11.9541C21.9123 17.4641 17.4623 21.9141 11.9523 21.9141ZM14.2723 6.4141C14.5823 6.4141 14.8123 6.1741 14.8123 5.8841V4.7041C14.8123 4.4141 14.5823 4.1741 14.2723 4.1741C13.9923 4.1741 13.7423 4.4141 13.7423 4.7041V5.8841C13.7423 6.1741 13.9923 6.4141 14.2723 6.4141ZM16.6923 7.4041C16.8823 7.6041 17.2523 7.6241 17.4623 7.4141L18.2823 6.5741C18.4823 6.3741 18.4723 6.0241 18.2823 5.8341C18.0723 5.6341 17.7423 5.6241 17.5323 5.8341L16.6923 6.6641C16.4723 6.8641 16.5023 7.2041 16.6923 7.4041ZM11.1223 7.4141C11.3323 7.6241 11.6823 7.6041 11.8823 7.4141C12.0723 7.2141 12.0923 6.8641 11.8823 6.6641L11.0423 5.8341C10.8323 5.6341 10.5023 5.6341 10.2923 5.8341C10.0923 6.0241 10.0923 6.3641 10.2923 6.5741ZM17.0323 9.8241C17.0323 8.2841 15.8123 7.0941 14.2723 7.0941C13.3523 7.0941 12.5123 7.5541 12.0323 8.2741C12.2823 8.4941 12.4823 8.7441 12.6723 9.0341C14.3523 9.2541 15.6423 10.4741 15.8223 12.0941C16.5723 11.5641 17.0323 10.7441 17.0323 9.8241ZM6.4323 15.2541H12.2423C13.8323 15.2541 15.0323 14.0541 15.0323 12.5041C15.0323 10.9941 13.8123 9.8341 12.1923 9.7941C11.5523 8.6241 10.4423 7.8941 9.0923 7.8941C7.3123 7.8941 5.8123 9.2841 5.6123 11.0541C4.7323 11.3441 4.1123 12.1241 4.1123 13.1241C4.1123 14.3441 5.0423 15.2541 6.4323 15.2541ZM18.2223 10.3441H19.3823C19.6923 10.3441 19.9223 10.1141 19.9223 9.8241C19.9223 9.5141 19.6923 9.2941 19.3823 9.2941H18.2223C17.9423 9.2941 17.6923 9.5141 17.6923 9.8241C17.6923 10.1141 17.9423 10.3441 18.2223 10.3441ZM17.5323 13.8241C17.7423 14.0341 18.0723 14.0141 18.2823 13.8141C18.4723 13.6041 18.4823 13.2541 18.2823 13.0641L17.4623 12.2441C17.2523 12.0441 16.9023 12.0441 16.6923 12.2441C16.5023 12.4441 16.4723 12.7941 16.6923 12.9941ZM6.8923 17.7441L7.5623 16.5941C7.6923 16.3841 7.6123 16.1341 7.3923 16.0041C7.1923 15.8941 6.9423 15.9741 6.8223 16.1741L6.1523 17.3241C6.0423 17.5041 6.1023 17.7841 6.3123 17.8841C6.5123 18.0141 6.7723 17.9441 6.8923 17.7441ZM10.6723 17.7441L11.3423 16.5941C11.4623 16.3941 11.3823 16.1341 11.1823 16.0241C10.9723 15.8941 10.7123 15.9641 10.5923 16.1641L9.9423 17.3041C9.8323 17.5041 9.8823 17.7741 10.0923 17.8941C10.3123 18.0041 10.5623 17.9341 10.6723 17.7441ZM8.3923 18.9841L9.0123 17.8941C9.1123 17.7041 9.0723 17.4341 8.8523 17.3241C8.6323 17.2041 8.3923 17.2741 8.2623 17.4841L7.6323 18.5641C7.5123 18.7641 7.5923 19.0341 7.8023 19.1341C8.0023 19.2641 8.2723 19.1841 8.3923 18.9841ZM12.1623 18.9841L12.7923 17.9041C12.9023 17.7041 12.8323 17.4241 12.6223 17.3241C12.4223 17.2141 12.1723 17.2741 12.0423 17.4841L11.4123 18.5641C11.2823 18.7741 11.3623 19.0341 11.5923 19.1441C11.7923 19.2641 12.0423 19.1841 12.1623 18.9841Z" />
        </svg>
    