
        <svg xmlns="http://www.w3.org/2000/svg" viewBox="0 0 100 100">
            <path d="M11.9523 23.9023C18.5523 23.9023 23.9023 18.5523 23.9023 11.9523C23.9023 5.3623 18.5523 0.0023 11.9523 0.0023C5.3623 0.0023 0.0023 5.3623 0.0023 11.9523C0.0023 18.5523 5.3623 23.9023 11.9523 23.9023ZM7.5723 16.4023C5.7323 16.4023 4.5123 15.2723 4.5123 13.6323C4.5123 12.3323 5.3623 11.2623 6.6123 10.9223C6.8223 8.4723 8.8523 6.5723 11.2823 6.5723C13.1323 6.5723 14.6623 7.5723 15.4723 9.2323C17.7223 9.2023 19.3923 10.7323 19.3923 12.7923C19.3923 14.8323 17.7623 16.4023 15.6823 16.4023Z" />
        </svg>
    