
        <svg xmlns="http://www.w3.org/2000/svg" viewBox="0 0 100 100">
            <path d="M4.1117 22.8233H15.9717C18.8717 22.8233 21.1517 20.6333 21.1517 17.8933C21.1517 16.8233 20.8017 15.8533 20.2017 15.0733C20.9417 12.6533 23.1717 10.9033 25.8017 10.9033V10.3233C22.9617 10.3233 20.6217 12.0433 19.7417 14.5533C19.2817 14.0933 18.7017 13.7233 18.0517 13.4533C19.3317 10.4433 22.3317 8.3333 25.8017 8.3333V7.7433C21.9817 7.7433 18.8117 9.9733 17.4617 13.2533C16.9317 13.1033 16.3717 13.0233 15.7717 13.0233C15.7117 12.8933 15.6517 12.7733 15.5817 12.6633C17.2117 8.6133 21.1617 5.7433 25.8017 5.7433V5.1533C21.0117 5.1533 16.9817 7.9533 15.1917 12.0333C14.7817 11.4233 14.3017 10.8833 13.7417 10.4433C16.0317 6.1033 20.5817 3.1533 25.8017 3.1533V2.5733C20.3217 2.5733 15.6317 5.5733 13.2617 10.0733C12.7117 9.7133 12.1317 9.4333 11.4717 9.2433C14.1817 4.1033 19.5917 0.5833 25.8017 0.5833V0.0033C19.2217 0.0033 13.6017 3.6833 10.8517 9.1033C10.4717 9.0333 10.0817 9.0033 9.6717 9.0033C6.2917 9.0033 3.5317 11.7633 3.2017 15.2933C1.4417 15.7333 0.0017 17.1133 0.0017 19.1133C0.0017 21.1333 1.5317 22.8233 4.1117 22.8233Z" />
        </svg>
    