
        <svg xmlns="http://www.w3.org/2000/svg" viewBox="0 0 100 100">
            <path d="M5.5123 17.7489H20.0523C23.8923 17.7489 26.7523 14.8389 26.7523 11.2289C26.7523 7.4889 23.7023 4.7589 19.7323 4.7589C18.2723 1.8589 15.5523 -0.0011 12.1623 -0.0011C7.7623 -0.0011 4.1223 3.4589 3.7423 7.8089C1.6123 8.4289 0.0023 10.2689 0.0023 12.7389C0.0023 15.5189 2.0123 17.7489 5.5123 17.7489ZM16.1923 22.0989H13.7923L14.9423 19.8889C15.0823 19.6289 14.9723 19.4289 14.7223 19.4289H12.1723C11.8323 19.4289 11.7223 19.5489 11.6123 19.7889L10.0223 23.4289C9.8923 23.7189 10.0223 23.8989 10.3223 23.8989H12.3623L10.7623 27.7889C10.7023 27.9389 10.7323 28.0689 10.8423 28.1089C10.9423 28.1589 11.0723 28.1289 11.2023 27.9989L16.3823 22.6889C16.6323 22.4289 16.5323 22.0989 16.1923 22.0989Z" />
        </svg>
    