
        <svg xmlns="http://www.w3.org/2000/svg" viewBox="0 0 100 100">
            <path d="M5.2823 17.8942H20.8023C24.5523 17.8942 27.4823 15.0742 27.4823 11.5342C27.4823 7.9242 24.4323 5.2342 20.4723 5.2542C18.9523 2.0642 16.3323 0.0042 12.5323 0.0042C8.1423 0.0042 4.5623 3.6342 4.1823 8.2142C1.8723 8.8142 0.0023 10.5742 0.0023 13.1242C0.0023 15.7342 1.9323 17.8942 5.2823 17.8942ZM5.2823 17.3242C2.2823 17.3242 0.5823 15.4242 0.5823 13.1242C0.5823 11.0042 2.0423 9.3542 4.2823 8.7842C4.6323 8.6842 4.7323 8.5542 4.7423 8.2742C4.9923 4.0542 8.5523 0.5742 12.5323 0.5742C16.0923 0.5742 18.5623 2.6042 19.9123 5.4042C20.0523 5.7142 20.2523 5.8242 20.6223 5.8242C24.1523 5.8242 26.8923 8.3442 26.8923 11.5542C26.8923 14.7142 24.2223 17.3242 20.8023 17.3242Z" />
        </svg>
    