
        <svg xmlns="http://www.w3.org/2000/svg" viewBox="0 0 100 100">
            <path d="M12.2223 24.4436C18.9723 24.4436 24.4423 18.9736 24.4423 12.2236C24.4423 5.4736 18.9723 0.0036 12.2223 0.0036C5.4723 0.0036 0.0023 5.4736 0.0023 12.2236C0.0023 18.9736 5.4723 24.4436 12.2223 24.4436ZM12.2223 21.7636C6.9523 21.7636 2.6823 17.4936 2.6823 12.2236C2.6823 6.9536 6.9523 2.6836 12.2223 2.6836C17.4923 2.6836 21.7623 6.9536 21.7623 12.2236C21.7623 17.4936 17.4923 21.7636 12.2223 21.7636ZM8.6323 13.6436H15.2923C17.0723 13.6436 18.4223 12.2836 18.4223 10.5736C18.4223 8.8136 17.0123 7.5136 15.1723 7.5136C14.4923 6.1736 13.2623 5.3536 11.6923 5.3536C9.6523 5.3536 7.9823 6.9036 7.7423 8.9136C6.7423 9.2436 6.0223 10.1036 6.0223 11.2336C6.0223 12.5836 7.0123 13.6436 8.6323 13.6436ZM9.3823 16.6336L10.0323 15.5136C10.1723 15.2736 10.1023 14.9036 9.8223 14.7536C9.5623 14.6036 9.2123 14.7036 9.0723 14.9636L8.4223 16.0636C8.2823 16.3236 8.3623 16.6736 8.6323 16.8236C8.9023 16.9836 9.2423 16.8736 9.3823 16.6336ZM15.4223 16.6336L16.0623 15.5136C16.2023 15.2736 16.1223 14.9036 15.8523 14.7536C15.5823 14.6036 15.2423 14.7036 15.1023 14.9636L14.4623 16.0636C14.3223 16.3236 14.3923 16.6736 14.6723 16.8236C14.9323 16.9836 15.2823 16.8736 15.4223 16.6336ZM12.4123 16.6336L13.0423 15.5236C13.1823 15.2736 13.1123 14.9136 12.8423 14.7636C12.5723 14.6136 12.2323 14.7236 12.0923 14.9736L11.4523 16.0736C11.3123 16.3336 11.3823 16.6836 11.6623 16.8436C11.9223 16.9936 12.2723 16.8836 12.4123 16.6336ZM7.9723 18.9036C8.3923 18.9036 8.7423 18.5536 8.7423 18.1136C8.7423 17.6936 8.3923 17.3436 7.9723 17.3436C7.5423 17.3436 7.1823 17.6936 7.1823 18.1136C7.1823 18.5536 7.5423 18.9036 7.9723 18.9036ZM14.0023 18.9036C14.4223 18.9036 14.7823 18.5536 14.7823 18.1136C14.7823 17.6936 14.4223 17.3436 14.0023 17.3436C13.5723 17.3436 13.2223 17.6936 13.2223 18.1136C13.2223 18.5536 13.5723 18.9036 14.0023 18.9036ZM10.9923 18.9036C11.4123 18.9036 11.7623 18.5536 11.7623 18.1336C11.7623 17.6936 11.4123 17.3436 10.9923 17.3436C10.5623 17.3436 10.2023 17.6936 10.2023 18.1336C10.2023 18.5536 10.5623 18.9036 10.9923 18.9036Z" />
        </svg>
    