
        <svg xmlns="http://www.w3.org/2000/svg" viewBox="0 0 100 100">
            <path d="M5.6723 18.093H20.2723C24.2023 18.093 27.1423 15.113 27.1423 11.403C27.1423 7.583 24.0623 4.743 20.0423 4.743C18.6023 1.913 15.9123 0.003 12.3623 0.003C7.8723 0.003 4.2323 3.453 3.7923 7.813C1.6323 8.473 0.0023 10.343 0.0023 12.883C0.0023 15.773 2.1223 18.093 5.6723 18.093ZM5.6823 15.893C3.3523 15.893 2.1923 14.613 2.1923 12.933C2.1923 11.543 3.0123 10.333 4.9823 9.823C5.6523 9.643 5.8823 9.333 5.9423 8.633C6.2823 4.793 9.0623 2.193 12.3623 2.193C14.9223 2.193 16.9523 3.613 18.2223 6.163C18.5123 6.753 18.8623 6.963 19.5823 6.963C23.0623 6.963 24.9423 8.993 24.9423 11.453C24.9423 13.923 22.9923 15.893 20.3523 15.893ZM16.5623 22.423H14.0723L15.1923 20.273C15.3323 20.013 15.2223 19.813 14.9623 19.813H12.2123C11.8823 19.813 11.7523 19.943 11.6523 20.183L10.0223 23.893C9.9023 24.173 10.0223 24.363 10.3323 24.363H12.4123L10.8123 28.203C10.7623 28.373 10.7923 28.503 10.9023 28.543C11.0023 28.593 11.1323 28.563 11.2623 28.433L16.7323 23.013C16.9923 22.753 16.9023 22.423 16.5623 22.423Z" />
        </svg>
    