
        <svg xmlns="http://www.w3.org/2000/svg" viewBox="0 0 100 100">
            <path d="M12.6023 25.1969C19.5623 25.1969 25.2023 19.5569 25.2023 12.5969C25.2023 5.6369 19.5623 -0.0031 12.6023 -0.0031C5.6523 -0.0031 0.0023 5.6369 0.0023 12.5969C0.0023 19.5569 5.6523 25.1969 12.6023 25.1969ZM15.2423 8.3469C14.8823 8.3469 14.5923 8.0469 14.5923 7.6869V6.7569C14.5923 6.3769 14.8823 6.0869 15.2423 6.0869C15.6223 6.0869 15.8923 6.3769 15.8923 6.7569V7.6869C15.8923 8.0469 15.6223 8.3469 15.2423 8.3469ZM17.6523 9.3369C17.3823 9.0969 17.3823 8.6469 17.6523 8.4069L18.2923 7.7369C18.5523 7.4769 18.9923 7.4769 19.2323 7.7369C19.4923 7.9769 19.4923 8.4169 19.2223 8.6669L18.5623 9.3369C18.3323 9.5869 17.8823 9.5769 17.6523 9.3369ZM11.9323 9.3269L11.2923 8.6669C11.0523 8.4069 11.0023 7.9769 11.2823 7.7269C11.5223 7.4869 11.9323 7.4769 12.2223 7.7269L12.8823 8.4069C13.1023 8.6469 13.1223 9.0969 12.8823 9.3369C12.6223 9.5769 12.1723 9.5869 11.9323 9.3269ZM17.9923 11.7069C17.9923 12.6169 17.5423 13.4269 16.8723 13.9069C16.5723 12.3269 15.3123 11.1569 13.6623 10.9169C13.4923 10.6569 13.2523 10.4069 13.0123 10.1669C13.4523 9.4569 14.3123 8.9769 15.2623 8.9769C16.7823 8.9769 17.9923 10.1869 17.9923 11.7069ZM7.1523 17.4469C5.7523 17.4469 4.8123 16.5569 4.8123 15.2469C4.8123 14.2369 5.4223 13.4169 6.3423 13.1269C6.5423 11.3369 8.0723 9.9569 9.9223 9.9569C11.5423 9.9569 12.5623 10.8269 13.1123 11.8269C14.7923 11.8369 15.9923 13.0469 15.9923 14.6669C15.9923 16.2569 14.8323 17.4469 13.2823 17.4469ZM19.2923 12.3669C18.9223 12.3669 18.6223 12.0569 18.6223 11.7069C18.6223 11.3469 18.9223 11.0469 19.2923 11.0469H20.2023C20.5823 11.0469 20.8623 11.3469 20.8623 11.7069C20.8623 12.0569 20.5823 12.3669 20.2023 12.3669ZM18.2923 15.7069L17.6323 15.0369C17.3623 14.7669 17.3623 14.3469 17.6223 14.1069C17.8823 13.8469 18.3123 13.8669 18.5823 14.1169L19.2223 14.7569C19.4923 15.0069 19.4723 15.4169 19.2323 15.6869C18.9823 15.9369 18.5523 15.9469 18.2923 15.7069Z" />
        </svg>
    