
        <svg xmlns="http://www.w3.org/2000/svg" viewBox="0 0 100 100">
            <path d="M12.7923 25.5978C19.8723 25.5978 25.6023 19.8678 25.6023 12.7978C25.6023 5.7278 19.8723 -0.0022 12.7923 -0.0022C5.7323 -0.0022 0.0023 5.7278 0.0023 12.7978C0.0023 19.8678 5.7323 25.5978 12.7923 25.5978ZM12.7923 21.4178C8.0323 21.4178 4.1723 17.5678 4.1723 12.7978C4.1723 8.0278 8.0323 4.1678 12.7923 4.1678C17.5623 4.1678 21.4323 8.0278 21.4323 12.7978C21.4323 17.5678 17.5623 21.4178 12.7923 21.4178ZM15.1023 7.8778C15.4723 7.8778 15.7423 7.5978 15.7423 7.2278V6.4878C15.7423 6.1178 15.4723 5.8378 15.1023 5.8378C14.7623 5.8378 14.4823 6.1178 14.4823 6.4878V7.2278C14.4823 7.5978 14.7623 7.8778 15.1023 7.8778ZM17.2623 8.7678C17.4823 8.9878 17.9223 8.9978 18.1423 8.7678L18.6723 8.2278C18.9223 7.9678 18.9423 7.5478 18.6823 7.3078C18.4523 7.0678 18.0323 7.0678 17.7923 7.3078L17.2623 7.8478C17.0123 8.1078 17.0023 8.5178 17.2623 8.7678ZM12.0823 8.7578C12.3323 8.9978 12.7523 8.9878 12.9923 8.7678C13.2423 8.5178 13.2023 8.1078 12.9923 7.8678L12.4723 7.2978C12.1923 7.0678 11.7923 7.0778 11.5523 7.2978C11.2823 7.5478 11.3323 7.9578 11.5823 8.2078ZM17.5823 10.8778C17.5823 9.5178 16.5023 8.4278 15.1123 8.4278C14.2623 8.4278 13.5023 8.8578 13.1023 9.4878C13.3223 9.7178 13.5323 9.9378 13.7023 10.1678C15.1723 10.3778 16.3023 11.4278 16.5923 12.8478C17.1823 12.4078 17.5823 11.6878 17.5823 10.8778ZM7.7723 16.1378H13.3523C14.7523 16.1378 15.7823 15.0578 15.7823 13.6278C15.7823 12.1278 14.6923 11.0378 13.1823 11.0378C12.7123 10.1878 11.8223 9.3678 10.3023 9.3678C8.6023 9.3678 7.2323 10.5778 7.0523 12.2078C6.2123 12.4778 5.6723 13.2178 5.6723 14.1278C5.6723 15.3278 6.5123 16.1378 7.7723 16.1378ZM18.7623 11.5078H19.5223C19.8723 11.5078 20.1423 11.2178 20.1423 10.8778C20.1423 10.5378 19.8723 10.2378 19.5223 10.2378H18.7623C18.4223 10.2378 18.1323 10.5378 18.1323 10.8778C18.1323 11.2178 18.4223 11.5078 18.7623 11.5078ZM17.7923 14.4478C18.0323 14.6978 18.4423 14.6978 18.6823 14.4378C18.9223 14.1878 18.9223 13.7978 18.6723 13.5478L18.1623 13.0278C17.9023 12.7878 17.4723 12.7778 17.2423 13.0178C16.9823 13.2378 16.9923 13.6678 17.2523 13.9078ZM9.0023 18.3778C8.9423 18.4878 8.9923 18.5878 9.1323 18.5878H10.1223L9.5523 19.9178C9.5023 20.0178 9.6223 20.1278 9.7623 20.0278L12.6223 17.7178C12.7423 17.6278 12.6923 17.4478 12.5323 17.4478H11.3123L11.6123 16.9478C11.6723 16.8478 11.6123 16.7378 11.4923 16.7378H9.8923C9.7523 16.7378 9.7023 16.7978 9.6523 16.8978Z" />
        </svg>
    