
        <svg xmlns="http://www.w3.org/2000/svg" viewBox="0 0 100 100">
            <path d="M11.4923 22.9836C17.8123 22.9836 22.9823 17.8136 22.9823 11.4836C22.9823 5.1536 17.8123 0.0036 11.4923 0.0036C5.1723 0.0036 0.0023 5.1536 0.0023 11.4836C0.0023 17.8136 5.1723 22.9836 11.4923 22.9836ZM14.2623 5.5336C14.0823 5.5336 13.9223 5.3636 13.9223 5.2036V3.5536C13.9223 3.3736 14.0823 3.2236 14.2623 3.2236C14.4723 3.2236 14.6023 3.3736 14.6023 3.5536V5.2036C14.6023 5.3636 14.4723 5.5336 14.2623 5.5336ZM11.1923 6.6136L10.0323 5.4536C9.9023 5.3236 9.9023 5.0836 10.0323 4.9736C10.1723 4.8536 10.3723 4.8436 10.5123 4.9836L11.6723 6.1436C11.8023 6.2536 11.8023 6.4936 11.6723 6.6236C11.5423 6.7536 11.3323 6.7536 11.1923 6.6136ZM16.8723 6.6136C16.7423 6.4836 16.7323 6.2436 16.8723 6.1436L18.0323 4.9836C18.1723 4.8436 18.3823 4.8536 18.5023 4.9836C18.6323 5.0936 18.6323 5.3036 18.5023 5.4536L17.3523 6.6136C17.2223 6.7536 17.0023 6.7536 16.8723 6.6136ZM17.1323 9.2236C17.1323 10.3036 16.5723 11.2136 15.6823 11.7636C15.4923 10.1636 14.1823 8.9836 12.4823 8.8036C12.2623 8.4336 12.0123 8.1336 11.7223 7.8436C12.2023 6.9636 13.1523 6.3436 14.2623 6.3436C15.8523 6.3436 17.1323 7.6136 17.1323 9.2236ZM5.7423 15.0236C4.2823 15.0236 3.3623 14.0536 3.3623 12.8636C3.3623 11.7536 4.1123 10.9736 5.0823 10.6636C5.2923 8.7536 6.8523 7.2536 8.7323 7.2536C10.2623 7.2536 11.4123 8.1136 12.1023 9.3836C13.8023 9.4436 15.0923 10.6336 15.0923 12.1836C15.0923 13.7536 13.8023 15.0236 12.1623 15.0236ZM18.2823 9.5536C18.0923 9.5536 17.9423 9.3936 17.9423 9.2236C17.9423 9.0236 18.0923 8.8836 18.2823 8.8836H19.9123C20.1123 8.8836 20.2623 9.0236 20.2623 9.2236C20.2623 9.3936 20.1123 9.5536 19.9123 9.5536ZM18.0323 13.4636L16.8723 12.3036C16.7323 12.1636 16.7423 11.9536 16.8723 11.8236C17.0023 11.6936 17.2423 11.6836 17.3523 11.8236L18.5023 12.9836C18.6423 13.1136 18.6323 13.3236 18.5023 13.4636C18.3823 13.5836 18.1623 13.5936 18.0323 13.4636ZM8.0623 17.8136L8.8823 15.9736C8.9523 15.8036 9.0323 15.7336 9.2423 15.7336H9.8423C10.0223 15.7336 10.1023 15.8636 9.9923 16.0536L9.3123 17.3436H10.2523C10.4723 17.3436 10.5623 17.5236 10.4323 17.7236L8.6223 20.2036C8.4923 20.4036 8.1723 20.2836 8.2623 20.0436L9.0423 18.1436H8.2923C8.1023 18.1436 7.9823 18.0036 8.0623 17.8136Z" />
        </svg>
    