
        <svg xmlns="http://www.w3.org/2000/svg" viewBox="0 0 100 100">
            <path d="M11.7523 23.5031C18.2323 23.5031 23.5123 18.2331 23.5123 11.7531C23.5123 5.2731 18.2323 0.0031 11.7523 0.0031C5.2723 0.0031 0.0023 5.2731 0.0023 11.7531C0.0023 18.2331 5.2723 23.5031 11.7523 23.5031ZM7.8123 12.9231C6.1323 12.9231 5.1523 11.8331 5.1523 10.5231C5.1523 9.2931 5.9923 8.4031 7.0423 8.1131C7.2423 5.9431 9.0123 4.2231 11.1723 4.2231C12.8923 4.2231 14.1923 5.1831 14.9323 6.6231C16.8623 6.6231 18.3623 7.9431 18.3623 9.7631C18.3623 11.5231 16.9323 12.9231 15.0823 12.9231ZM9.9923 16.3431L10.9823 14.0831C11.0523 13.9231 11.1523 13.8531 11.3623 13.8531H12.6023C12.7723 13.8531 12.8423 14.0031 12.7523 14.1631L12.0023 15.6331H13.2923C13.5323 15.6331 13.6123 15.8431 13.4623 16.0431L10.6723 19.1931C10.6023 19.3131 10.5023 19.3231 10.4323 19.3131C10.3323 19.2531 10.3023 19.1631 10.3623 19.0331L11.3123 16.6831H10.2323C10.0123 16.6831 9.9123 16.5231 9.9923 16.3431Z" />
        </svg>
    