
        <svg xmlns="http://www.w3.org/2000/svg" viewBox="0 0 100 100">
            <path d="M14.1548 14.7269L20.1048 5.7169C20.6948 4.8269 20.7248 4.1669 20.3448 3.3169L19.2648 0.8469C18.9948 0.2469 18.6848 -0.0031 18.1548 -0.0031C17.5648 -0.0031 17.1948 0.4169 17.0448 1.1369ZM13.9048 12.0369L14.4748 8.8369L12.7648 1.1369C12.6148 0.4069 12.2248 -0.0031 11.6548 -0.0031C11.1148 -0.0031 10.8048 0.2369 10.5348 0.8469L9.4648 3.3169C9.0848 4.1669 9.1048 4.8269 9.7048 5.7169ZM14.0148 28.0969H21.0648C23.0448 28.0969 24.2648 26.7769 24.2248 24.7869L24.1348 20.8369L24.5748 22.7569C24.7548 23.5669 25.1548 23.7869 25.8748 23.5769L28.8348 22.7269C29.6448 22.4969 30.0048 21.9469 29.6948 20.8369L25.1248 4.3869C24.8748 3.4769 24.3448 2.9869 23.5548 2.6969L20.4448 1.5569L21.1948 3.2569C21.6148 4.2269 21.5648 5.0069 20.8748 6.0369L14.0148 16.3869ZM8.9348 6.0369C8.2548 5.0169 8.1948 4.2269 8.6148 3.2569L9.3548 1.5569L6.2448 2.6969C5.4448 2.9869 4.9348 3.4769 4.6748 4.3869L0.1048 20.8369C-0.1952 21.9469 0.1548 22.4969 0.9748 22.7369L3.9448 23.5769C4.6648 23.7869 5.0548 23.5669 5.2448 22.7569L5.6848 20.8369L5.5948 24.7869C5.5348 26.7769 6.7648 28.0969 8.7548 28.0969H13.1948V12.4569ZM17.1248 20.5569C16.5948 20.5569 16.1748 20.1369 16.1848 19.5969C16.1848 19.0569 16.5948 18.6369 17.1248 18.6369C17.6648 18.6369 18.0748 19.0669 18.0748 19.5969C18.0748 20.1369 17.6648 20.5569 17.1248 20.5569ZM17.1248 25.5669C16.5948 25.5669 16.1748 25.1369 16.1848 24.5969C16.1848 24.0569 16.5948 23.6369 17.1248 23.6369C17.6648 23.6369 18.0748 24.0669 18.0748 24.5969C18.0748 25.1369 17.6648 25.5669 17.1248 25.5669Z" />
        </svg>
    