
        <svg xmlns="http://www.w3.org/2000/svg" viewBox="0 0 100 100">
            <path d="M0.6869 9.5948C0.0069 9.5948 -0.1931 10.0648 0.2069 10.6148L2.7569 14.2648C3.0869 14.7148 3.5469 14.7148 3.8569 14.2648L6.4169 10.6148C6.7969 10.0648 6.6069 9.5948 5.9369 9.5948H3.9969C4.9869 4.9848 9.0869 1.5148 14.0069 1.5148C19.6669 1.5148 24.2369 6.0948 24.2369 11.7548C24.2369 17.4148 19.6669 21.9848 14.0069 21.9848C10.4569 21.9848 7.2869 20.1548 5.5169 17.4148C5.2469 17.0548 4.8069 16.9348 4.4369 17.1548C4.0869 17.3648 3.9769 17.8748 4.2669 18.2648C6.3469 21.4248 9.9569 23.5048 14.0069 23.5048C20.4969 23.5048 25.7669 18.2448 25.7669 11.7548C25.7669 5.2648 20.4969 0.0048 14.0069 0.0048C8.2569 0.0048 3.4569 4.1348 2.4469 9.5948ZM11.3569 18.3748C11.5269 18.3748 11.6369 18.3048 11.6969 18.1048L12.1469 16.3848C12.5569 16.5848 13.0269 16.7148 13.5369 16.7648L13.2569 17.8548C13.2369 17.9448 13.2369 18.0048 13.2369 18.0548C13.2369 18.2348 13.3769 18.3748 13.5769 18.3748C13.7469 18.3748 13.8669 18.3048 13.9169 18.1048L14.2569 16.8048C15.9669 16.7648 17.4169 15.9348 17.9369 14.4448C18.0069 14.2748 18.0369 14.0848 18.0369 13.9248C18.0369 13.5448 17.7969 13.3948 17.5269 13.3948C17.2169 13.3948 17.0669 13.5748 16.9769 13.8548C16.6569 14.9748 15.6969 15.6648 14.5169 15.7848L16.3769 8.5548C16.6369 8.8448 16.8069 9.1848 16.9069 9.5548C16.9869 9.8248 17.1169 10.0048 17.4469 10.0048C17.7869 10.0048 17.9669 9.7948 17.9669 9.4948C17.9669 9.3348 17.9369 9.1248 17.8669 8.9648C17.6169 8.2948 17.1969 7.7648 16.6769 7.3848L17.1169 5.7048C17.1369 5.6048 17.1469 5.5448 17.1469 5.5048C17.1469 5.3348 17.0069 5.1948 16.8069 5.1948C16.6169 5.1948 16.5069 5.2748 16.4569 5.4648L16.0569 6.9948C15.6269 6.7848 15.1469 6.6548 14.6569 6.5948L14.8869 5.7048C14.9069 5.6048 14.9269 5.5448 14.9269 5.5048C14.9269 5.3348 14.7969 5.1948 14.5869 5.1948C14.3969 5.1948 14.2769 5.2748 14.2269 5.4648L13.9369 6.5748C11.1869 6.6648 9.6769 8.8148 9.6769 11.6748C9.6769 13.5148 10.2969 15.1048 11.5169 16.0048L11.0369 17.8548C11.0169 17.9448 11.0069 18.0048 11.0069 18.0548C11.0069 18.2348 11.1469 18.3748 11.3569 18.3748ZM12.4169 15.3148L14.4069 7.5848C14.9069 7.6248 15.3869 7.7948 15.7869 8.0548L13.7969 15.7848C13.2569 15.7348 12.7969 15.5748 12.4169 15.3148ZM10.8469 11.6748C10.8469 9.5948 11.7669 7.8348 13.6769 7.5948L11.8269 14.8048C11.1569 14.0248 10.8469 12.8748 10.8469 11.6748Z" />
        </svg>
    