
        <svg xmlns="http://www.w3.org/2000/svg" viewBox="0 0 100 100">
            <path d="M5.5317 25.9336C5.8517 25.9336 6.0617 25.7836 6.1317 25.4636L6.7117 22.9736C7.3917 23.1436 8.1117 23.2736 8.8717 23.3336L8.4617 25.0736C8.4417 25.1436 8.4217 25.2636 8.4217 25.3436C8.4217 25.7336 8.6917 25.9336 9.0217 25.9336C9.3417 25.9336 9.5417 25.7836 9.6217 25.4636L10.1017 23.3936C10.1217 23.3936 10.1517 23.3936 10.1717 23.3936C13.8617 23.3936 17.4917 21.7136 18.7017 18.5636C18.9217 18.0336 19.0217 17.5636 19.0217 17.0036C19.0217 15.4236 17.9217 14.4636 16.3217 14.4636C15.0517 14.4636 14.3817 15.0436 13.8417 16.2036C13.2417 17.5236 12.3617 18.3436 11.2117 18.6536L13.4517 9.0736C13.5717 9.2536 13.6717 9.4536 13.7717 9.6536C14.3317 10.8236 15.0917 11.4036 16.3917 11.4036C17.9417 11.4036 18.8917 10.4536 18.8917 8.9536C18.8917 8.1836 18.6517 7.5136 18.3017 6.8536C17.4517 5.2936 16.2117 4.2036 14.7417 3.5236L15.3717 0.8536C15.3917 0.7836 15.4017 0.6836 15.4017 0.5936C15.4017 0.2036 15.1317 0.0036 14.8017 0.0036C14.4917 0.0036 14.2817 0.1636 14.2017 0.4836L13.5917 3.0836C12.9117 2.8736 12.2017 2.7336 11.4717 2.6436L11.8817 0.8536C11.9017 0.7836 11.9217 0.6836 11.9217 0.5936C11.9217 0.2036 11.6517 0.0036 11.3217 0.0036C11.0017 0.0036 10.8017 0.1636 10.7217 0.4836L10.2317 2.5636C10.1517 2.5636 10.0517 2.5636 9.9717 2.5636C3.8317 2.5636 0.0017 6.3836 0.0017 12.9736C0.0017 17.8236 2.0017 21.1336 5.5517 22.5736L4.9717 25.0736C4.9617 25.1436 4.9317 25.2636 4.9317 25.3436C4.9317 25.7336 5.2117 25.9336 5.5317 25.9336ZM7.8517 18.1436L10.4017 7.1736C11.2117 7.2436 11.8917 7.5036 12.4617 7.9436L9.9217 18.8036C9.0817 18.7836 8.3917 18.5436 7.8517 18.1436ZM5.9417 12.9636C5.9417 10.2336 6.8517 7.7536 9.1417 7.2536L6.8517 17.0136C6.2117 15.9236 5.9417 14.4536 5.9417 12.9636Z" />
        </svg>
    