
        <svg xmlns="http://www.w3.org/2000/svg" viewBox="0 0 100 100">
            <path d="M1.6017 29.3211H28.4417C29.3017 29.3211 30.0617 28.6211 30.0617 27.7111C30.0617 26.8511 29.3017 26.1111 28.4417 26.1111H27.8517V24.9511C27.8517 24.2311 27.4117 23.8111 26.7217 23.8111H26.3517V9.9111H27.2717C28.3217 9.9111 28.9617 9.1011 28.9617 8.3211C28.9617 7.7411 28.6317 7.2111 27.9617 6.8111L17.0617 0.5311C16.5017 0.2011 15.8317 0.0011 15.2117 0.0011C14.5917 0.0011 13.9217 0.2011 13.3617 0.5311L2.4617 6.8111C1.7917 7.2111 1.4617 7.7411 1.4617 8.3211C1.4617 9.1011 2.1017 9.9111 3.1617 9.9111H4.0617V23.8111H3.7017C3.0117 23.8111 2.5617 24.2311 2.5617 24.9511V26.1111H1.6017C0.7417 26.1111 0.0017 26.8511 0.0017 27.7111C0.0017 28.6011 0.7417 29.3211 1.6017 29.3211ZM14.7117 22.7611C14.5217 22.7611 14.3917 22.6211 14.3917 22.4311C14.3917 22.4111 14.3917 22.3811 14.4117 22.3211L14.6217 21.4311C14.2417 21.4011 13.8717 21.3411 13.5317 21.2411L13.2417 22.5211C13.2117 22.6911 13.1017 22.7611 12.9417 22.7611C12.7517 22.7611 12.6317 22.6211 12.6317 22.4311C12.6317 22.4111 12.6317 22.3811 12.6417 22.3211L12.9517 21.0311C11.1117 20.3011 10.1017 18.6011 10.1017 16.1611C10.1017 12.9811 11.8817 10.8611 15.3317 10.8611L15.5717 9.8011C15.6017 9.6311 15.7117 9.5511 15.8817 9.5511C16.0617 9.5511 16.1817 9.6911 16.1817 9.8811C16.1817 9.9111 16.1817 9.9411 16.1617 9.9911L15.9517 10.8911C16.3217 10.9311 16.6917 11.0011 17.0417 11.1111L17.3417 9.8011C17.3817 9.6311 17.4817 9.5511 17.6517 9.5511C17.8317 9.5511 17.9517 9.6911 17.9517 9.8811C17.9517 9.9111 17.9517 9.9411 17.9417 9.9911L17.6117 11.3411C18.3617 11.6811 19.0117 12.2311 19.4517 13.0411C19.6417 13.3711 19.7317 13.7411 19.7317 14.1111C19.7317 14.9511 19.1617 15.3611 18.4717 15.3611C17.8017 15.3611 17.4117 15.0711 17.1317 14.4711C17.0617 14.3511 17.0317 14.2811 16.9717 14.1911L15.8217 19.0411C16.4317 18.8811 16.8617 18.4311 17.1517 17.8011C17.4217 17.2111 17.7917 16.9011 18.4317 16.9011C19.2617 16.9011 19.8117 17.4011 19.8117 18.2011C19.8117 18.5111 19.7717 18.7111 19.6517 19.0111C18.9817 20.6711 17.1217 21.4711 15.3317 21.4711H15.2617L15.0117 22.5211C14.9717 22.6911 14.8817 22.7611 14.7117 22.7611ZM14.1217 18.7711C14.3817 18.9811 14.7317 19.1011 15.1617 19.1111L16.4417 13.6011C16.1817 13.3811 15.8417 13.2311 15.4217 13.2111ZM13.1417 16.1511C13.1417 16.8911 13.2617 17.6211 13.6017 18.2011L14.7617 13.2411C13.6017 13.5111 13.1417 14.8111 13.1417 16.1511Z" />
        </svg>
    