
        <svg xmlns="http://www.w3.org/2000/svg" viewBox="0 0 100 100">
            <path d="M4.1417 22.4041H18.2717C20.9517 22.4041 22.4017 20.9541 22.4017 18.3041V4.1141C22.4017 1.4641 20.9517 0.0041 18.2717 0.0041H4.1417C1.4617 0.0041 0.0017 1.4541 0.0017 4.1141V18.3041C0.0017 20.9541 1.4617 22.4041 4.1417 22.4041ZM4.4617 19.3841C3.5317 19.3841 3.0217 18.9241 3.0217 17.9341V4.4841C3.0217 3.4941 3.5317 3.0241 4.4617 3.0241H17.9417C18.8817 3.0241 19.3817 3.4941 19.3817 4.4841V17.9341C19.3817 18.9241 18.8817 19.3841 17.9417 19.3841ZM8.8117 17.6241C8.9917 17.6241 9.1017 17.5341 9.1517 17.3541L9.5017 15.9241C9.8517 16.0541 10.2517 16.1341 10.6617 16.1841L10.4417 17.1241C10.4317 17.1841 10.4217 17.2241 10.4217 17.2841C10.4217 17.4741 10.5617 17.6241 10.7617 17.6241C10.9417 17.6241 11.0517 17.5341 11.1017 17.3541L11.3817 16.2041C13.0817 16.1841 14.7217 15.3941 15.2817 13.8741C15.3717 13.6541 15.4117 13.4641 15.4117 13.2341C15.4117 12.6341 15.0017 12.3041 14.4617 12.3041C13.9817 12.3041 13.7217 12.5641 13.5317 12.9941C13.2317 13.7941 12.6117 14.3241 11.8017 14.4741L13.1917 8.7141C13.3117 8.8841 13.4017 9.0541 13.4717 9.2441C13.6617 9.6941 13.9217 9.9341 14.4217 9.9341C14.9517 9.9341 15.3417 9.6241 15.3417 9.0341C15.3417 8.7841 15.2717 8.5041 15.1417 8.2641C14.8117 7.5541 14.3017 7.0341 13.6917 6.6641L14.0417 5.2341C14.0617 5.1541 14.0717 5.1141 14.0717 5.0741C14.0717 4.8841 13.9317 4.7441 13.7317 4.7441C13.5317 4.7441 13.4317 4.8241 13.3817 5.0041L13.0517 6.3641C12.6817 6.2241 12.2917 6.1241 11.8817 6.0841L12.0917 5.2341C12.1217 5.1541 12.1217 5.1141 12.1217 5.0741C12.1217 4.8841 11.9917 4.7441 11.7917 4.7441C11.5917 4.7441 11.4817 4.8241 11.4417 5.0041L11.1817 6.0441C8.2617 6.0441 6.6017 8.1441 6.6017 11.1341C6.6017 13.2041 7.3717 14.8241 8.8617 15.6341L8.4917 17.1241C8.4717 17.1841 8.4717 17.2241 8.4717 17.2841C8.4717 17.4741 8.6117 17.6241 8.8117 17.6241ZM9.9417 14.1241L11.4817 7.7441C11.9217 7.7941 12.3017 7.9341 12.6217 8.1441L11.0717 14.5041C10.6317 14.4841 10.2517 14.3441 9.9417 14.1241ZM8.7217 11.1241C8.7217 9.5241 9.3517 8.0741 10.7617 7.7941L9.3617 13.5441C8.9217 12.9041 8.7217 12.0241 8.7217 11.1241Z" />
        </svg>
    