
        <svg xmlns="http://www.w3.org/2000/svg" viewBox="0 0 100 100">
            <path d="M28.2323 14.0493C28.2323 6.6693 22.5623 0.6093 15.3423 -0.0007C14.9623 -0.0307 14.6823 0.2393 14.6823 0.6093V4.4493C14.6823 4.7593 14.9023 5.0093 15.2223 5.0293C19.7123 5.5793 23.2023 9.4093 23.2023 14.0493C23.2023 16.1593 22.4723 18.1093 21.2023 19.7393C21.0323 19.9393 21.0423 20.1993 21.2223 20.3793L24.0223 23.1693C24.2823 23.4293 24.6823 23.4293 24.9123 23.1493C26.9923 20.6893 28.2323 17.5093 28.2323 14.0493ZM0.0023 14.0493C0.0023 17.5193 1.2423 20.6993 3.3123 23.1593C3.5523 23.4393 3.9423 23.4293 4.2023 23.1693L7.0123 20.3793C7.1823 20.1993 7.1923 19.9393 7.0323 19.7393C5.7423 18.1093 5.0323 16.1593 5.0323 14.0493C5.0323 9.4093 8.5223 5.5793 13.0123 5.0293C13.3223 5.0093 13.5423 4.7593 13.5423 4.4493V0.6093C13.5423 0.2393 13.2623 -0.0307 12.8923 -0.0007C5.6723 0.6093 0.0023 6.6693 0.0023 14.0493ZM11.4523 20.9793C11.6523 20.9793 11.7923 20.8893 11.8523 20.6593L12.2723 18.9793C12.6723 19.1493 13.1123 19.2693 13.5923 19.3293L13.3223 20.3793C13.3123 20.4493 13.3023 20.5193 13.3023 20.5893C13.3023 20.8193 13.4723 20.9793 13.7023 20.9793C13.9023 20.9793 14.0423 20.8893 14.1023 20.6593L14.4223 19.3593C16.1323 19.2993 17.6323 18.4493 18.1523 16.9693C18.2223 16.7793 18.2623 16.6093 18.2623 16.4193C18.2623 15.9793 17.9523 15.7893 17.6323 15.7893C17.2623 15.7893 17.0823 16.0093 16.9723 16.3293C16.6123 17.3593 15.7723 17.9693 14.7323 18.1093L16.4723 11.1493C16.6623 11.3793 16.8023 11.6393 16.8823 11.9193C16.9923 12.2493 17.1523 12.4593 17.5423 12.4593C17.9423 12.4593 18.1723 12.2093 18.1723 11.8393C18.1723 11.6593 18.1423 11.4493 18.0723 11.2793C17.8023 10.6193 17.3623 10.0893 16.8423 9.7093L17.2623 8.0493C17.2823 7.9493 17.2923 7.8893 17.2923 7.8393C17.2923 7.6293 17.1423 7.4693 16.9123 7.4693C16.6923 7.4693 16.5423 7.5693 16.4923 7.7793L16.1123 9.2693C15.7023 9.0893 15.2623 8.9693 14.7923 8.9093L15.0123 8.0493C15.0323 7.9493 15.0423 7.8893 15.0423 7.8393C15.0423 7.6293 14.8823 7.4693 14.6623 7.4693C14.4423 7.4693 14.2923 7.5693 14.2423 7.7793L13.9723 8.8893C11.2023 9.0193 9.6223 11.1793 9.6223 14.1093C9.6223 16.0093 10.2823 17.6293 11.5423 18.5493L11.0723 20.3793C11.0623 20.4493 11.0523 20.5193 11.0523 20.5893C11.0523 20.8193 11.2123 20.9793 11.4523 20.9793ZM12.6023 17.6793L14.4923 10.1093C14.9623 10.1493 15.4223 10.2993 15.7923 10.5393L13.9023 18.1293C13.3923 18.0893 12.9623 17.9193 12.6023 17.6793ZM11.0623 14.1093C11.0623 12.1793 11.9223 10.4593 13.6523 10.1493L11.9223 17.0393C11.3323 16.2893 11.0623 15.2293 11.0623 14.1093Z" />
        </svg>
    