
        <svg xmlns="http://www.w3.org/2000/svg" viewBox="0 0 100 100">
            <path d="M13.3723 4.4906C15.4723 4.4906 17.3823 5.2106 18.9023 6.4306C19.1523 6.6306 19.4623 6.6006 19.6923 6.3706L22.0123 4.0706C22.2823 3.8006 22.2823 3.4106 21.9923 3.1606C19.6623 1.1906 16.6423 0.0006 13.3723 0.0006C10.1023 0.0006 7.0823 1.1906 4.7423 3.1606C4.4623 3.4106 4.4623 3.8006 4.7323 4.0706L7.0623 6.3706C7.2923 6.6006 7.6123 6.6206 7.8723 6.4106C9.3723 5.2106 11.2923 4.4906 13.3723 4.4906ZM26.7423 13.3706C26.7423 10.0906 25.5723 7.0806 23.5823 4.7506C23.3423 4.4606 22.9323 4.4906 22.6723 4.7306L20.3623 7.0406C20.1423 7.2806 20.1323 7.6006 20.3223 7.8506C21.5423 9.3606 22.2523 11.2806 22.2523 13.3706C22.2523 15.4706 21.5323 17.4006 20.3323 18.9006C20.1223 19.1606 20.1323 19.4806 20.3523 19.7106L22.6623 22.0506C22.9223 22.3206 23.3223 22.3106 23.5623 22.0306C25.5423 19.7006 26.7423 16.6606 26.7423 13.3706ZM0.0023 13.3706C0.0023 16.6606 1.1923 19.7006 3.1923 22.0306C3.4223 22.3106 3.8323 22.3206 4.0823 22.0506L6.3823 19.7106C6.6223 19.4806 6.6323 19.1606 6.4223 18.9006C5.2223 17.4006 4.4923 15.4706 4.4923 13.3706C4.4923 11.2806 5.2123 9.3606 6.4223 7.8506C6.6223 7.6006 6.6023 7.2806 6.3723 7.0406L4.0623 4.7306C3.8123 4.4906 3.4123 4.4606 3.1623 4.7506C1.1823 7.0806 0.0023 10.0906 0.0023 13.3706ZM10.7123 19.8706C10.8323 19.8706 10.9023 19.8306 10.9423 19.6806L11.4423 17.8706C11.8823 18.1306 12.4023 18.2906 12.9823 18.3506L12.6723 19.5006C12.6423 19.6006 12.6423 19.6406 12.6423 19.6606C12.6423 19.7706 12.7223 19.8706 12.8823 19.8706C12.9923 19.8706 13.0623 19.8306 13.1123 19.6806L13.4623 18.3706H13.4923C15.2023 18.3706 16.5623 17.6006 17.0523 16.0906C17.1123 15.9506 17.1323 15.7106 17.1323 15.6006C17.1323 15.4006 17.0123 15.2906 16.8423 15.2906C16.7023 15.2906 16.5623 15.3706 16.5323 15.5706C16.3023 16.9006 15.0923 17.7506 13.6323 17.8006L15.7123 10.0706C16.1223 10.4506 16.3923 10.9606 16.4923 11.5106C16.5023 11.6406 16.5823 11.7906 16.7823 11.7906C17.0123 11.7906 17.1023 11.6406 17.1023 11.4806C17.1023 11.3706 17.0623 11.1806 17.0023 11.0106C16.7923 10.3606 16.4023 9.8206 15.8923 9.4206L16.3623 7.6806C16.3923 7.5706 16.3923 7.5506 16.3923 7.5106C16.3923 7.4206 16.3023 7.3106 16.1623 7.3106C16.0423 7.3106 15.9623 7.3606 15.9223 7.5006L15.4823 9.1406C15.0123 8.8706 14.4823 8.7106 13.9323 8.6506L14.1923 7.6806C14.2223 7.5706 14.2223 7.5506 14.2223 7.5106C14.2223 7.4206 14.1323 7.3106 13.9923 7.3106C13.8723 7.3106 13.7923 7.3606 13.7623 7.5006L13.4523 8.6206C10.7023 8.6206 9.3123 10.7306 9.3123 13.4606C9.3123 15.2106 9.8923 16.7206 11.0123 17.6006L10.5023 19.5006C10.4723 19.6006 10.4723 19.6406 10.4723 19.6606C10.4723 19.7706 10.5623 19.8706 10.7123 19.8706ZM9.9723 13.4606C9.9723 11.1406 11.0523 9.3006 13.2923 9.2006L11.1923 16.9606C10.3623 16.1606 9.9723 14.8806 9.9723 13.4606ZM11.6023 17.2706L13.7823 9.2106C14.3523 9.2606 14.8823 9.4406 15.3123 9.7406L13.1323 17.7906C12.5423 17.7406 12.0223 17.5506 11.6023 17.2706Z" />
        </svg>
    