
        <svg xmlns="http://www.w3.org/2000/svg" viewBox="0 0 100 100">
            <path d="M1.3306 15.9495C-0.4294 17.7095 -0.4494 19.9395 1.3106 21.6895L6.6406 27.0395C7.0806 27.4695 7.8106 27.4695 8.2406 27.0395C8.6806 26.5895 8.6806 25.8895 8.2406 25.4395L5.4806 22.6895L6.5706 21.5995L9.4706 24.5095C9.8006 24.8495 10.3506 24.8495 10.6806 24.5195C11.0206 24.1795 11.0306 23.6295 10.6906 23.2895L7.7906 20.3895L8.8806 19.2895L11.7806 22.2095C12.1106 22.5395 12.6606 22.5395 12.9906 22.2095C13.3206 21.8695 13.3306 21.3195 13.0006 20.9895L10.1006 18.0795L11.1906 16.9795L14.0806 19.8995C14.4206 20.2295 14.9706 20.2295 15.3006 19.8995C15.6306 19.5595 15.6506 19.0095 15.3106 18.6695L12.3906 15.7795L13.4906 14.6895L16.3906 17.5895C16.7306 17.9195 17.2806 17.9295 17.6006 17.5895C17.9206 17.2495 17.9506 16.7095 17.6106 16.3695L14.7006 13.4695L15.7906 12.3895L18.6906 15.2795C19.0106 15.6095 19.5806 15.6195 19.9006 15.2895C20.2306 14.9695 20.2406 14.3995 19.9006 14.0595L17.0006 11.1695L18.0906 10.0795L20.9906 12.9695C21.3206 13.3095 21.8806 13.3095 22.2006 12.9895C22.5406 12.6595 22.5506 12.1095 22.2106 11.7695L19.3106 8.8595L20.4006 7.7695L23.3006 10.6795C23.6306 11.0195 24.1806 11.0195 24.5106 10.6895C24.8506 10.3495 24.8606 9.7995 24.5206 9.4595L21.6106 6.5495L22.7006 5.4595L25.4606 8.2195C25.9006 8.6495 26.6106 8.6695 27.0406 8.2295C27.4706 7.7795 27.4706 7.0795 27.0406 6.6495L21.7006 1.2995C19.9406 -0.4405 17.7206 -0.4305 15.9506 1.3295ZM3.1006 20.3095C2.1706 19.3795 2.1506 18.3095 3.0806 17.3795L17.3806 3.0695C18.3106 2.1495 19.4006 2.1595 20.3306 3.0795L21.1206 3.8795L3.9006 21.1095Z" />
        </svg>
    