
        <svg xmlns="http://www.w3.org/2000/svg" viewBox="0 0 100 100">
            <path d="M1.2833 15.7897C-0.4067 17.4897 -0.4367 19.6697 1.2533 21.3497L6.5233 26.6397C6.8933 26.9997 7.5133 26.9997 7.8733 26.6397C8.2333 26.2697 8.2333 25.6697 7.8733 25.2997L4.9933 22.4297L6.1933 21.2297L9.1733 24.2097C9.4833 24.5197 9.9833 24.5197 10.2833 24.2097C10.5933 23.9097 10.6033 23.3897 10.3033 23.0897L7.3133 20.1097L8.5133 18.9097L11.4933 21.8897C11.8133 22.1997 12.3133 22.1997 12.6033 21.8897C12.9133 21.5797 12.9233 21.0697 12.6233 20.7697L9.6333 17.7897L10.8433 16.5897L13.8133 19.5697C14.1233 19.8797 14.6233 19.8797 14.9333 19.5697C15.2333 19.2597 15.2433 18.7497 14.9433 18.4497L11.9533 15.4697L13.1633 14.2597L16.1333 17.2397C16.4533 17.5597 16.9533 17.5597 17.2533 17.2397C17.5533 16.9397 17.5633 16.4297 17.2633 16.1297L14.2733 13.1497L15.4633 11.9597L18.4433 14.9297C18.7633 15.2397 19.2633 15.2397 19.5533 14.9397C19.8733 14.6297 19.8833 14.1197 19.5733 13.8197L16.5933 10.8297L17.7833 9.6397L20.7633 12.5997C21.0833 12.9197 21.5833 12.9197 21.8733 12.6097C22.1833 12.3097 22.1933 11.7997 21.8933 11.4997L18.9133 8.5097L20.1033 7.3197L23.0833 10.2797C23.4033 10.6097 23.9033 10.6097 24.1933 10.2897C24.5133 9.9897 24.5233 9.4797 24.2133 9.1697L21.2333 6.1897L22.4433 4.9797L25.3133 7.8497C25.6733 8.2197 26.2633 8.2297 26.6233 7.8697C27.0033 7.4997 27.0033 6.9097 26.6233 6.5297L21.3533 1.2597C19.6633 -0.4303 17.4833 -0.4203 15.7833 1.2897ZM2.7833 20.2197C1.7533 19.1897 1.7333 17.9897 2.7533 16.9797L16.9833 2.7597C17.9833 1.7497 19.2033 1.7497 20.2133 2.7697L21.1033 3.6597L3.6633 21.0997Z" />
        </svg>
    