
        <svg xmlns="http://www.w3.org/2000/svg" viewBox="0 0 100 100">
            <path d="M3.9717 22.1117H18.1317C20.7317 22.1117 22.1017 20.7417 22.1017 18.1717V3.9417C22.1017 1.3717 20.7317 0.0017 18.1317 0.0017H3.9717C1.3817 0.0017 0.0017 1.3717 0.0017 3.9417V18.1717C0.0017 20.7417 1.3817 22.1117 3.9717 22.1117ZM8.2717 10.1517H7.4917C6.0317 10.1517 4.8417 8.9717 4.8417 7.5217C4.8417 6.0617 6.0217 4.8717 7.4917 4.8717C8.9417 4.8717 10.1417 6.0717 10.1417 7.5217V8.2817H11.9417V7.5217C11.9417 6.0717 13.1417 4.8717 14.5917 4.8717C16.0517 4.8717 17.2417 6.0617 17.2417 7.5217C17.2417 8.9717 16.0517 10.1517 14.5917 10.1517H13.8117V11.9717H14.5917C16.0517 11.9717 17.2417 13.1517 17.2417 14.6017C17.2417 16.0617 16.0517 17.2517 14.5917 17.2517C13.1417 17.2517 11.9417 16.0517 11.9417 14.6017V13.8417H10.1417V14.6017C10.1417 16.0517 8.9417 17.2517 7.4917 17.2517C6.0217 17.2517 4.8417 16.0617 4.8417 14.6017C4.8417 13.1517 6.0317 11.9717 7.4917 11.9717H8.2717ZM7.5217 8.3417H8.3117V7.5517C8.3117 7.0817 7.9417 6.6917 7.4917 6.6917C7.0417 6.6917 6.6717 7.0617 6.6717 7.5217C6.6717 7.9817 7.0417 8.3417 7.5217 8.3417ZM14.5517 8.3417C15.0317 8.3417 15.4117 7.9817 15.4117 7.5217C15.4117 7.0617 15.0317 6.6917 14.5917 6.6917C14.1417 6.6917 13.7717 7.0817 13.7717 7.5517V8.3417ZM10.0917 12.0317H11.9917V10.0917H10.0917ZM7.5217 13.7717C7.0517 13.7717 6.6717 14.1417 6.6717 14.5917C6.6717 15.0517 7.0417 15.4217 7.4917 15.4217C7.9417 15.4217 8.3117 15.0517 8.3117 14.5617V13.7717ZM14.5517 13.7717H13.7717V14.5617C13.7717 15.0517 14.1417 15.4217 14.5917 15.4217C15.0517 15.4217 15.4117 15.0517 15.4117 14.5917C15.4117 14.1417 15.0217 13.7717 14.5517 13.7717Z" />
        </svg>
    