
        <svg xmlns="http://www.w3.org/2000/svg" viewBox="0 0 100 100">
            <path d="M1.1117 16.9761C0.4717 16.9761 0.0017 17.4361 0.0017 18.0961C0.0017 18.7361 0.4717 19.2161 1.1117 19.2161H3.6117L1.7217 25.5861C1.5717 26.0861 1.6917 26.6061 2.0017 26.9761L1.5217 28.7361C1.3817 29.2861 1.6717 29.7761 2.2117 29.9261C2.7617 30.0561 3.2617 29.7761 3.4017 29.2361L3.8817 27.4361C4.2817 27.2561 4.6017 26.8961 4.7417 26.4061L6.8817 19.2161H8.9417V20.1761C8.9417 20.6861 9.3417 21.0861 9.8417 21.0861C10.3517 21.0861 10.7417 20.6861 10.7417 20.1761V19.2161H12.8117L14.9317 26.4061C15.0817 26.8961 15.4017 27.2561 15.8117 27.4361L16.2917 29.2361C16.4317 29.7761 16.9217 30.0561 17.4717 29.9261C18.0117 29.7761 18.3017 29.2861 18.1517 28.7361L17.6817 26.9761C18.0017 26.6061 18.1017 26.0861 17.9617 25.5861L16.0817 19.2161H18.5617C19.2117 19.2161 19.6917 18.7361 19.6917 18.0961C19.6917 17.4361 19.2117 16.9761 18.5617 16.9761H15.4117L13.4517 10.3961C14.0117 9.6361 14.3517 8.7061 14.3517 7.6961C14.3517 5.6261 12.9517 3.8661 11.0417 3.3561V1.1861C11.0417 0.5161 10.5117 -0.0039 9.8417 -0.0039C9.1917 -0.0039 8.6617 0.5261 8.6617 1.1961V3.3361C6.7417 3.8661 5.3317 5.6261 5.3317 7.6961C5.3317 8.7061 5.6617 9.6361 6.2317 10.3961L4.2817 16.9761ZM9.8417 9.0961C9.0517 9.0961 8.4517 8.4861 8.4517 7.6961C8.4517 6.9061 9.0517 6.3061 9.8417 6.3061C10.6417 6.3061 11.2417 6.9061 11.2417 7.6961C11.2417 8.4861 10.6417 9.0961 9.8417 9.0961ZM10.7417 16.0061C10.7417 15.4961 10.3517 15.1061 9.8417 15.1061C9.3417 15.1061 8.9417 15.4961 8.9417 16.0061V16.9761H7.5517L8.9917 12.1161C9.2617 12.1761 9.5517 12.1961 9.8417 12.1961C10.1417 12.1961 10.4217 12.1761 10.7017 12.1161L12.1417 16.9761H10.7417Z" />
        </svg>
    