
        <svg xmlns="http://www.w3.org/2000/svg" viewBox="0 0 100 100">
            <path d="M-0.0006 19.7497C-0.0006 22.1697 4.7894 24.1097 11.3294 24.1097C17.8594 24.1097 22.6494 22.1697 22.6494 19.7497C22.6494 19.4297 22.5594 19.0897 22.3794 18.7597L12.2194 0.4997C12.0194 0.1597 11.6994 -0.0003 11.3294 -0.0003C10.9694 -0.0003 10.6294 0.1597 10.4294 0.4997L0.2694 18.7597C0.0894 19.0897 -0.0006 19.4297 -0.0006 19.7497ZM0.8594 19.7497C0.8594 19.5097 1.0094 19.2097 1.1294 18.9797L11.0194 1.2397C11.0894 1.1297 11.1894 1.0397 11.3294 1.0397C11.4594 1.0397 11.5794 1.1297 11.6494 1.2397L21.5294 18.9797C21.6594 19.2097 21.7994 19.5097 21.7994 19.7497C21.7994 21.5597 17.0594 23.2497 11.3294 23.2497C5.5894 23.2497 0.8594 21.5597 0.8594 19.7497Z" />
        </svg>
    