
        <svg xmlns="http://www.w3.org/2000/svg" viewBox="0 0 100 100">
            <path d="M9.9717 -0.0022C9.5517 -0.0022 9.2117 0.3378 9.2117 0.7578V5.0378H10.7317V0.7578C10.7317 0.3378 10.3917 -0.0022 9.9717 -0.0022ZM3.4617 25.0578H9.2117V5.0378H3.4617C1.1717 5.0378 0.0017 6.1878 0.0017 8.4578V21.6278C0.0017 23.9078 1.1717 25.0578 3.4617 25.0578ZM16.5117 25.0578C18.8017 25.0578 19.9717 23.8878 19.9717 21.6278V8.4578C19.9717 6.1978 18.8017 5.0378 16.5117 5.0378H10.7317V25.0578ZM9.9717 30.0978C10.3917 30.0978 10.7317 29.7578 10.7317 29.3278V25.0578H9.2117V29.3278C9.2117 29.7578 9.5517 30.0978 9.9717 30.0978Z" />
        </svg>
    