
        <svg xmlns="http://www.w3.org/2000/svg" viewBox="0 0 100 100">
            <path d="M10.7117 0.0027C10.1417 0.0027 9.6717 0.4527 9.6717 1.0427V5.4827H11.7617V1.0427C11.7617 0.4527 11.3017 0.0027 10.7117 0.0027ZM3.9717 26.0427H9.6717V5.4827H3.9717C1.3817 5.4827 0.0017 6.8427 0.0017 9.4227V22.1027C0.0017 24.6827 1.3817 26.0427 3.9717 26.0427ZM17.4517 26.0427C20.0517 26.0427 21.4217 24.6727 21.4217 22.1027V9.4227C21.4217 6.8427 20.0517 5.4827 17.4517 5.4827H11.7617V26.0427ZM10.7117 31.5227C11.3017 31.5227 11.7617 31.0627 11.7617 30.4827V26.0427H9.6717V30.4827C9.6717 31.0627 10.1417 31.5227 10.7117 31.5227Z" />
        </svg>
    