
        <svg xmlns="http://www.w3.org/2000/svg" viewBox="0 0 100 100">
            <path d="M6.8117 4.0037H9.6517C10.9717 4.0037 11.4517 4.2137 12.1217 5.0837L12.6517 5.7937L6.0217 7.0337C2.0417 7.7737 0.0017 9.6637 0.0017 12.9237V14.6737C0.0017 16.6337 0.8817 17.6037 2.8317 17.8437L4.9717 18.0837C4.8417 17.6637 4.7617 17.0137 4.7617 16.4937C4.7617 13.6337 7.0617 11.3237 9.9417 11.3237C12.8117 11.3237 15.1217 13.6337 15.1217 16.4937C15.1217 16.8937 15.0717 17.3137 15.0017 17.6337H29.4817C29.4017 17.3037 29.3417 16.9037 29.3417 16.4937C29.3417 13.6337 31.6517 11.3237 34.5217 11.3237C37.3917 11.3237 39.7017 13.7937 39.7017 16.6737C39.7017 16.8837 39.6917 17.0237 39.6717 17.2237L40.7217 17.1137C43.1617 16.8637 44.3517 15.5137 44.3517 12.9937V10.7037C44.3517 7.7537 43.2317 6.4937 40.4417 5.9537L33.5117 4.6537C32.8217 4.5237 32.1117 4.4737 31.4517 4.5137L18.7717 5.3137L23.2717 2.2437C24.6217 1.3037 23.2817 -0.7263 21.8317 0.2637L14.6517 5.1237L17.7417 9.1537C18.4717 10.1037 18.9017 10.3337 20.0117 10.3337H22.4417V9.3937C22.4417 8.5137 23.1917 8.2537 23.8617 8.6937L26.8017 10.5737C27.4117 10.9737 27.4017 11.7237 26.8017 12.1037L23.8317 13.9937C23.1917 14.4237 22.4417 14.1637 22.4417 13.2937V12.3337H20.0117C18.3317 12.3337 17.1817 11.7437 16.1417 10.3837L12.6517 5.7937L14.0317 5.5337L14.6517 5.1237L13.6717 3.8637C12.6717 2.5237 11.4717 1.9937 9.6517 1.9937H6.8117C6.2717 1.9937 5.8117 2.4537 5.8117 3.0037C5.8117 3.5437 6.2717 4.0037 6.8117 4.0037ZM9.9417 20.1737C11.9917 20.1737 13.6317 18.5537 13.6317 16.4937C13.6317 14.4537 11.9917 12.8237 9.9417 12.8237C7.8917 12.8237 6.2617 14.4537 6.2617 16.4937C6.2617 18.5537 7.8917 20.1737 9.9417 20.1737ZM34.5217 20.1737C36.5717 20.1737 38.2117 18.5537 38.2117 16.4937C38.2117 14.4537 36.5717 12.8237 34.5217 12.8237C32.4717 12.8237 30.8417 14.4537 30.8417 16.4937C30.8417 18.5537 32.4717 20.1737 34.5217 20.1737Z" />
        </svg>
    