
        <svg xmlns="http://www.w3.org/2000/svg" viewBox="0 0 100 100">
            <path d="M2.7217 17.3304L5.1817 17.6204C5.9217 18.9204 7.3217 19.7804 8.9617 19.7804C10.8017 19.7804 12.3417 18.7104 12.9817 17.1404H30.8717C31.5217 18.7104 33.0617 19.7804 34.8917 19.7804C36.8717 19.7804 38.4917 18.5304 39.0517 16.7604L40.3517 16.6204C42.7017 16.3704 43.8517 15.0704 43.8517 12.6404V10.4604C43.8517 7.5704 42.7617 6.3504 40.0317 5.8404L33.1517 4.5304C32.4617 4.3904 31.7817 4.3504 31.1217 4.3904L18.2417 5.1604L22.8617 2.0304C24.1017 1.1904 22.8917 -0.6496 21.5617 0.2404L13.8917 5.4104L5.8817 6.9104C1.9817 7.6304 0.0017 9.4604 0.0017 12.6504V14.3204C0.0017 16.2004 0.8417 17.1404 2.7217 17.3304ZM3.2317 15.1704C2.5317 15.1004 2.2017 14.7604 2.2017 14.1404V12.6504C2.2017 10.7104 3.5017 9.5704 6.1917 9.0504L13.7717 7.6204H13.8017L31.5817 6.5504L39.6517 8.0904C41.1017 8.3704 41.6517 8.9904 41.6517 10.4604V12.6404C41.6517 13.7504 41.1317 14.3604 40.0617 14.4604L39.1517 14.5604C38.7617 12.5504 37.0317 11.0904 34.8917 11.0904C32.6117 11.0904 30.8117 12.7404 30.5617 14.9304H13.2917C13.0417 12.7404 11.2417 11.0904 8.9617 11.0904C6.5617 11.0904 4.6717 12.9304 4.6217 15.3304ZM17.5117 10.5404C17.5117 12.0104 18.6217 13.0304 20.2517 13.0304H24.0717V13.8504C24.0717 14.4204 24.4817 14.6404 24.9717 14.3104L27.1717 12.8704C27.5617 12.6104 27.5717 12.1604 27.1717 11.8904L24.9817 10.4404C24.4817 10.1204 24.0717 10.3304 24.0717 10.9004V11.6704H20.2517C19.4717 11.6704 18.9217 11.2304 18.9217 10.6004C18.9217 9.8804 19.4717 9.3804 20.2717 9.3804H25.8617C26.2817 9.3804 26.5817 9.1104 26.5817 8.7004C26.5817 8.3004 26.2817 8.0104 25.8517 8.0104H20.2717C18.6217 8.0104 17.5117 9.0504 17.5117 10.5404ZM8.9617 17.7104C7.6917 17.7104 6.6817 16.7104 6.6817 15.4404C6.6817 14.1604 7.6917 13.1504 8.9617 13.1504C10.2417 13.1504 11.2417 14.1604 11.2417 15.4404C11.2417 16.7104 10.2417 17.7104 8.9617 17.7104ZM34.8917 17.7104C33.6217 17.7104 32.6117 16.7104 32.6117 15.4404C32.6117 14.1604 33.6217 13.1504 34.8917 13.1504C36.1617 13.1504 37.1717 14.1604 37.1717 15.4404C37.1717 16.7104 36.1617 17.7104 34.8917 17.7104Z" />
        </svg>
    