
        <svg xmlns="http://www.w3.org/2000/svg" viewBox="0 0 100 100">
            <path d="M18.9517 11.8817H24.2617C25.2517 11.8817 25.7717 11.3517 25.7717 10.2917V6.2117C25.7717 5.3417 25.4217 4.8317 24.7517 4.6717V3.4317C24.7517 1.3217 23.5317 0.0017 21.6117 0.0017C19.7017 0.0017 18.4717 1.3217 18.4717 3.4317V4.6717C17.7917 4.8317 17.4517 5.3417 17.4517 6.2117V10.2917C17.4517 11.3517 17.9617 11.8817 18.9517 11.8817ZM19.7417 3.2317C19.7417 2.0417 20.4717 1.2617 21.6117 1.2617C22.7417 1.2617 23.4817 2.0417 23.4817 3.2317V4.6317H19.7417ZM2.5517 20.6917L4.9117 20.9717C4.8117 20.6017 4.7617 19.9417 4.7617 19.5317C4.7617 16.8117 6.9017 14.6617 9.6317 14.6617C12.3617 14.6617 14.5217 16.8117 14.5217 19.5317C14.5217 19.8717 14.4917 20.2617 14.4417 20.4917H28.9717C28.8917 20.2417 28.8517 19.8817 28.8517 19.5317C28.8517 16.8117 31.0117 14.6617 33.7417 14.6617C36.4717 14.6617 38.6217 17.0517 38.6217 19.7717C38.6217 19.9217 38.6217 19.9817 38.6117 20.1217L39.8417 19.9917C42.1017 19.7617 43.1917 18.5017 43.1917 16.1717V14.1317C43.1917 11.3517 42.2017 10.1917 39.5117 9.6817L32.6517 8.3517C31.9817 8.2217 31.3517 8.1717 30.7017 8.2217L27.3617 8.4417V10.2917C27.3617 12.2317 26.1317 13.4917 24.2617 13.4917H18.9517C17.0617 13.4917 15.8317 12.2317 15.8317 10.2917V7.8317L13.7017 9.2417L5.7217 10.7417C1.9117 11.4617 0.0017 13.2217 0.0017 16.3117V17.8717C0.0017 19.6317 0.7817 20.4917 2.5517 20.6917ZM9.6317 23.0517C11.6117 23.0517 13.1617 21.5017 13.1617 19.5317C13.1617 17.5617 11.6117 16.0217 9.6317 16.0217C7.6617 16.0217 6.1217 17.5617 6.1217 19.5317C6.1217 21.5017 7.6617 23.0517 9.6317 23.0517ZM33.7417 23.0517C35.7217 23.0517 37.2617 21.5017 37.2617 19.5317C37.2617 17.5617 35.7217 16.0217 33.7417 16.0217C31.7617 16.0217 30.2117 17.5617 30.2117 19.5317C30.2117 21.5017 31.7617 23.0517 33.7417 23.0517Z" />
        </svg>
    