
        <svg xmlns="http://www.w3.org/2000/svg" viewBox="0 0 100 100">
            <path d="M18.2717 11.1455H23.6217C24.4217 11.1455 24.8117 10.7555 24.8117 9.8955V5.2955C24.8117 4.4155 24.4217 4.0555 23.6517 4.0455V2.8555C23.6517 1.1455 22.5617 -0.0045 20.9517 -0.0045C19.3317 -0.0045 18.2617 1.1455 18.2617 2.8555V4.0455C17.4817 4.0455 17.1017 4.4155 17.1017 5.2955V9.8955C17.1017 10.7555 17.4817 11.1455 18.2717 11.1455ZM18.8317 2.8755C18.8317 1.4855 19.6917 0.5855 20.9517 0.5855C22.2317 0.5855 23.0617 1.4855 23.0617 2.8755V4.0455H18.8317ZM1.7717 18.8755L4.6317 19.2455C5.1517 20.4355 6.3517 21.2555 7.7617 21.2555C9.3917 21.2555 10.7117 20.1755 11.0817 18.6955H30.8117C31.1817 20.1755 32.5117 21.2555 34.1217 21.2555C35.8517 21.2555 37.2317 20.0555 37.5017 18.4255L38.9617 18.2155C40.9917 17.9255 41.8817 16.9355 41.8817 14.9155V12.8655C41.8817 10.7155 40.8317 9.6355 38.2417 9.1855L30.5117 7.8355C30.3517 7.8155 30.2017 7.8055 30.0217 7.8155L25.6717 8.0555V8.5055C25.6717 8.5455 25.6917 8.5855 25.6917 8.6255L30.2117 8.3755L38.1517 9.7655C40.4717 10.1755 41.3117 11.1355 41.3117 12.8655V14.9155C41.3117 16.5955 40.5917 17.4155 38.9417 17.6555L37.5517 17.8555V17.8255C37.5517 15.9055 36.0517 14.4055 34.1217 14.4055C32.2017 14.4055 30.7017 15.9055 30.7017 17.8255C30.7017 17.9255 30.7017 18.0255 30.7117 18.1155H11.1817C11.1817 18.0255 11.1917 17.9255 11.1917 17.8255C11.1917 15.9055 9.6817 14.4055 7.7617 14.4055C5.8317 14.4055 4.3317 15.9055 4.3317 17.8255C4.3317 18.1055 4.3717 18.3755 4.4317 18.6355L1.8317 18.3155C0.9917 18.2155 0.5717 17.7755 0.5717 16.9955V15.5255C0.5717 12.7655 2.1217 11.5155 5.1917 10.9255L13.3117 9.3555L16.2117 9.1955C16.2117 8.9755 16.2117 8.7655 16.2117 8.5455V7.0155L13.6517 8.7255L5.0617 10.3955C1.6917 11.0555 0.0017 12.4555 0.0017 15.5255V17.0055C0.0017 18.1155 0.5717 18.7255 1.7717 18.8755ZM7.7617 20.6755C6.1717 20.6755 4.9117 19.4155 4.9117 17.8255C4.9117 16.2255 6.1717 14.9755 7.7617 14.9755C9.3517 14.9755 10.6217 16.2255 10.6217 17.8255C10.6217 19.4155 9.3517 20.6755 7.7617 20.6755ZM34.1217 20.6755C32.5317 20.6755 31.2817 19.4155 31.2817 17.8255C31.2817 16.2255 32.5317 14.9755 34.1217 14.9755C35.7217 14.9755 36.9717 16.2255 36.9717 17.8255C36.9717 19.4155 35.7217 20.6755 34.1217 20.6755Z" />
        </svg>
    