
        <svg xmlns="http://www.w3.org/2000/svg" viewBox="0 0 100 100">
            <path d="M15.4417 20.8394H29.5217C29.4217 20.5094 29.3817 20.1094 29.3817 19.6994C29.3817 16.8394 31.6917 14.5294 34.5617 14.5294C37.4317 14.5294 39.7417 16.9994 39.7417 19.8794C39.7417 20.0894 39.7217 20.2294 39.7017 20.4294L40.7217 20.3194C43.1617 20.0494 44.3517 18.7194 44.3517 16.1994V13.9094C44.3517 10.9594 43.2317 9.6094 40.4417 9.1594L34.1417 8.1694C33.1717 8.0194 31.3717 7.9594 29.8117 8.0394L27.7817 8.1494L27.7617 9.0794C27.7217 9.8994 27.2017 10.4094 26.4017 10.4094C25.6017 10.4094 25.0817 9.8994 25.0417 9.0894L25.0217 8.2994L27.7817 8.1494L28.0117 1.5894C28.0417 0.6294 27.4017 -0.0006 26.4017 -0.0006C25.3917 -0.0006 24.7517 0.6294 24.7817 1.5894L25.0217 8.2994L17.7317 8.6994L22.1817 5.6494C23.5317 4.6994 22.1917 2.6694 20.7417 3.6594L12.9417 8.9294L6.0217 10.2394C2.0317 10.9894 0.0017 12.8694 0.0017 16.1294V17.8794C0.0017 19.8394 0.8917 20.8194 2.8317 21.0494L5.4117 21.3294C5.2817 20.8794 5.2017 20.2194 5.2017 19.6994C5.2017 16.8394 7.5117 14.5294 10.3817 14.5294C13.2517 14.5294 15.5617 16.8394 15.5617 19.6994C15.5617 20.0994 15.5117 20.5194 15.4417 20.8394ZM26.4017 15.8394C25.3617 15.8394 24.5617 15.0794 24.5617 14.1094C24.5617 13.1394 25.3517 12.3894 26.4017 12.3894C27.4417 12.3894 28.2317 13.1394 28.2317 14.1094C28.2317 15.0794 27.4417 15.8394 26.4017 15.8394ZM10.3817 23.3794C12.4317 23.3794 14.0617 21.7594 14.0617 19.6994C14.0617 17.6594 12.4317 16.0294 10.3817 16.0294C8.3317 16.0294 6.7017 17.6594 6.7017 19.6994C6.7017 21.7594 8.3317 23.3794 10.3817 23.3794ZM34.5617 23.3794C36.6117 23.3794 38.2417 21.7594 38.2417 19.6994C38.2417 17.6594 36.6117 16.0294 34.5617 16.0294C32.5117 16.0294 30.8717 17.6594 30.8717 19.6994C30.8717 21.7594 32.5117 23.3794 34.5617 23.3794Z" />
        </svg>
    