
        <svg xmlns="http://www.w3.org/2000/svg" viewBox="0 0 100 100">
            <path d="M31.1617 6.1981L31.1017 4.4981C33.5117 4.3281 36.5817 4.5381 39.1917 5.6981L38.5617 7.2381C38.2617 8.0481 38.7517 8.4881 39.5617 8.2781L43.9717 7.1481C44.6617 6.9681 44.8517 6.4081 44.4617 5.8581L41.8917 2.0981C41.4517 1.4381 40.8017 1.4281 40.5017 2.2381L39.9217 3.7081C36.9617 2.4381 33.5717 2.2281 31.0517 2.3881L30.9917 0.8581C30.9717 -0.0219 30.3717 -0.2219 29.7317 0.2481L26.0517 2.9281C25.4917 3.3381 25.5017 3.9181 26.0717 4.2981L29.8717 6.8681C30.5817 7.3081 31.1717 7.0681 31.1617 6.1981ZM2.7217 23.1281L5.1817 23.4181C5.9217 24.7181 7.3217 25.5781 8.9617 25.5781C10.8017 25.5781 12.3417 24.5081 12.9817 22.9381H30.8817C31.5217 24.5081 33.0617 25.5781 34.9017 25.5781C36.8717 25.5781 38.4917 24.3281 39.0517 22.5581L40.3517 22.4181C42.7017 22.1681 43.8517 20.8681 43.8517 18.4381V16.2581C43.8517 13.3681 42.7617 12.1481 40.0417 11.6381L33.1517 10.3281C32.4617 10.1881 31.7817 10.1481 31.1217 10.1881L18.2417 10.9581L22.8617 7.8281C24.1017 6.9881 22.8917 5.1481 21.5717 6.0381L13.8917 11.2081L5.8917 12.7081C1.9917 13.4281 0.0017 15.2581 0.0017 18.4481V20.1181C0.0017 21.9981 0.8417 22.9381 2.7217 23.1281ZM3.2417 20.9681C2.5317 20.8981 2.2017 20.5581 2.2017 19.9381V18.4481C2.2017 16.5081 3.5017 15.3681 6.2017 14.8481L13.7717 13.4181H13.8117L31.5817 12.3481L39.6517 13.8881C41.1117 14.1681 41.6617 14.7881 41.6617 16.2581V18.4381C41.6617 19.5481 41.1417 20.1581 40.0817 20.2581L39.1617 20.3581C38.7617 18.3481 37.0317 16.8881 34.9017 16.8881C32.6217 16.8881 30.8117 18.5381 30.5717 20.7281H13.2917C13.0517 18.5381 11.2417 16.8881 8.9617 16.8881C6.5617 16.8881 4.6717 18.7281 4.6217 21.1281ZM8.9617 23.5081C7.6917 23.5081 6.6917 22.5081 6.6917 21.2381C6.6917 19.9581 7.6917 18.9481 8.9617 18.9481C10.2417 18.9481 11.2517 19.9581 11.2517 21.2381C11.2517 22.5081 10.2417 23.5081 8.9617 23.5081ZM34.9017 23.5081C33.6217 23.5081 32.6117 22.5081 32.6117 21.2381C32.6117 19.9581 33.6217 18.9481 34.9017 18.9481C36.1617 18.9481 37.1717 19.9581 37.1717 21.2381C37.1717 22.5081 36.1617 23.5081 34.9017 23.5081Z" />
        </svg>
    