
        <svg xmlns="http://www.w3.org/2000/svg" viewBox="0 0 100 100">
            <path d="M33.1517 4.5304C32.4617 4.3904 31.7817 4.3404 31.1217 4.3904L18.1617 5.2104L22.8617 2.0304C24.0917 1.1904 22.8917 -0.6496 21.5617 0.2404L13.8917 5.4104L5.8817 6.9104C1.9817 7.6304 0.0017 9.4604 0.0017 12.6504V14.3204C0.0017 16.2004 0.8317 17.1204 2.7217 17.3304L4.9317 17.6004C4.8317 17.2104 4.7617 16.5404 4.7617 16.0704C4.7617 13.2704 6.9917 11.0304 9.8117 11.0304C12.6217 11.0304 14.8617 13.2704 14.8617 16.0704C14.8617 16.4404 14.8217 16.8504 14.7517 17.1404H29.2617C29.1817 16.8304 29.1217 16.4604 29.1217 16.0704C29.1217 13.2704 31.3717 11.0304 34.1817 11.0304C36.9817 11.0304 39.2317 13.4704 39.2317 16.2704C39.2317 16.4604 39.2217 16.5604 39.2017 16.7404L40.3517 16.6204C42.7017 16.3904 43.8517 15.0704 43.8517 12.6404V10.4604C43.8517 7.5704 42.7717 6.3704 40.0317 5.8404ZM19.3617 13.9804C18.6717 13.9804 18.3717 13.4104 18.7417 12.8104L21.2317 8.6904C21.5717 8.1104 22.2817 8.1204 22.6017 8.6904L25.1217 12.8104C25.4917 13.4104 25.1717 13.9804 24.4917 13.9804ZM9.8117 19.6904C11.8217 19.6904 13.4217 18.1004 13.4217 16.0704C13.4217 14.0704 11.8217 12.4704 9.8117 12.4704C7.7917 12.4704 6.2017 14.0704 6.2017 16.0704C6.2017 18.1004 7.7917 19.6904 9.8117 19.6904ZM34.1817 19.6904C36.2017 19.6904 37.7917 18.1004 37.7917 16.0704C37.7917 14.0704 36.2017 12.4704 34.1817 12.4704C32.1517 12.4704 30.5617 14.0704 30.5617 16.0704C30.5617 18.1004 32.1517 19.6904 34.1817 19.6904ZM19.2917 18.4704C18.5817 18.4704 18.2817 19.0604 18.6517 19.6704L21.2117 23.9004C21.5717 24.4804 22.2817 24.4704 22.6317 23.9004L25.2117 19.6604C25.5817 19.0604 25.2517 18.4704 24.5617 18.4704Z" />
        </svg>
    