
        <svg xmlns="http://www.w3.org/2000/svg" viewBox="0 0 100 100">
            <path d="M1.4617 1.5999H5.2717C5.7817 1.5999 6.0917 1.7099 6.3917 1.9999L10.1417 5.7499L5.4917 6.6299C1.8417 7.3199 0.0017 8.9599 0.0017 12.0399V13.5799C0.0017 15.1299 0.7117 15.8999 2.2817 16.0899L4.8117 16.3999C4.7117 15.9899 4.6417 15.4099 4.6417 14.9599C4.6417 12.3399 6.7117 10.2599 9.3417 10.2599C11.9617 10.2599 14.0517 12.3399 14.0517 14.9599C14.0517 15.2899 14.0117 15.6399 13.9717 15.8899H22.8617V4.5699L16.5117 4.9499L21.9017 1.3299C22.7217 0.7799 21.9417 -0.4401 21.0317 0.1599L13.6917 5.0699L11.7617 5.4299L7.4617 1.1199C6.8717 0.5199 6.1317 0.2799 5.1317 0.2799H1.4617C1.0517 0.2799 0.7817 0.5499 0.7817 0.9299C0.7817 1.3199 1.0517 1.5999 1.4617 1.5999ZM9.3417 18.4499C11.3117 18.4499 12.8417 16.9199 12.8417 14.9599C12.8417 12.9999 11.3117 11.4699 9.3417 11.4699C7.3817 11.4699 5.8517 12.9999 5.8517 14.9599C5.8517 16.9199 7.3817 18.4499 9.3417 18.4499Z" />
        </svg>
    