
        <svg xmlns="http://www.w3.org/2000/svg" viewBox="0 0 100 100">
            <path d="M26.3123 2.1689C25.7823 2.3589 25.3123 2.5789 24.8823 2.8789L15.8923 8.8889L18.0123 4.5389C18.4723 3.5989 17.1023 2.9189 16.6023 3.9189L13.3723 10.4789L8.3723 14.7689C6.0023 16.8089 5.3723 18.8089 6.6223 20.9889L7.2423 22.0789C7.9623 23.3089 8.8623 23.6089 10.1823 23.0289L11.9423 22.2789C11.7223 22.0489 11.4123 21.6089 11.2523 21.3189C10.1523 19.4189 10.7923 17.0289 12.7023 15.9189C14.6123 14.8189 17.0023 15.4589 18.1023 17.3589C18.2423 17.5889 18.3923 17.8889 18.4323 18.0689L28.6223 12.1889C28.4623 12.0389 28.2923 11.7989 28.1523 11.5689C27.0523 9.6589 27.6923 7.2689 29.6023 6.1689C31.5223 5.0489 34.0123 5.8589 35.1123 7.7689C35.1723 7.8789 35.1923 7.9289 35.2423 8.0289L36.0623 7.4289C37.5523 6.3589 37.8123 5.0289 36.8723 3.3889L36.0323 1.9589C34.9123 0.0189 33.7223 -0.3811 31.6523 0.3289ZM33.0123 12.0489C34.3923 11.2489 34.8523 9.5389 34.0523 8.1589C33.2623 6.7789 31.5523 6.3189 30.1623 7.1189C28.7723 7.9289 28.3123 9.6389 29.1123 11.0089C29.9023 12.3989 31.6223 12.8589 33.0123 12.0489ZM7.3023 30.1989C7.5823 30.6689 8.1523 30.8189 8.5923 30.5689L40.0623 12.4089C40.5023 12.1689 40.6623 11.5789 40.4223 11.1489C40.1423 10.6789 39.5523 10.5289 39.1323 10.7889L7.6423 28.9389C7.2223 29.1989 7.0523 29.7789 7.3023 30.1989ZM16.1023 21.8089C17.4923 21.0189 17.9523 19.2989 17.1523 17.9189C16.3623 16.5389 14.6523 16.0789 13.2523 16.8789C11.8723 17.6789 11.4123 19.3889 12.2123 20.7689C13.0123 22.1489 14.7223 22.6089 16.1023 21.8089ZM5.2723 24.4589L2.8223 20.1989C2.4123 19.4689 1.5823 19.6589 1.3523 20.3589L0.0623 23.9689C-0.1177 24.4689 0.1023 24.8689 0.6323 24.9689L4.3923 25.6589C5.1323 25.8089 5.6923 25.1789 5.2723 24.4589Z" />
        </svg>
    