
        <svg xmlns="http://www.w3.org/2000/svg" viewBox="0 0 100 100">
            <path d="M31.6017 6.3418L31.5617 4.6118C33.9917 4.4518 37.1417 4.6518 39.7817 5.8318L39.1717 7.3918C38.8617 8.2418 39.3717 8.6818 40.2117 8.4618L44.6917 7.3018C45.4017 7.1218 45.5817 6.5418 45.2017 5.9618L42.5617 2.1318C42.1017 1.4618 41.4517 1.4518 41.1317 2.2918L40.5617 3.7718C37.5317 2.4718 34.0517 2.2618 31.5017 2.4218L31.4517 0.8818C31.4317 -0.0282 30.8117 -0.2282 30.1517 0.2418L26.3917 3.0018C25.8017 3.4118 25.8317 4.0118 26.4117 4.4018L30.2817 7.0218C31.0117 7.5118 31.6217 7.2418 31.6017 6.3418ZM33.5317 10.4718C32.8217 10.3418 32.1217 10.2918 31.4517 10.3318L18.7717 11.1318L23.2717 8.0618C24.6317 7.1218 23.2817 5.0918 21.8417 6.0818L14.0317 11.3518L6.0217 12.8518C2.0417 13.5918 0.0017 15.4818 0.0017 18.7418V20.4918C0.0017 22.4518 0.8817 23.4218 2.8517 23.6618L4.9817 23.9018C4.8417 23.4818 4.7717 22.8318 4.7717 22.3118C4.7717 19.4518 7.0617 17.1418 9.9517 17.1418C12.8217 17.1418 15.1217 19.4518 15.1217 22.3118C15.1217 22.7118 15.0817 23.1318 15.0017 23.4518H29.4917C29.4017 23.1218 29.3517 22.7218 29.3517 22.3118C29.3517 19.4518 31.6517 17.1418 34.5317 17.1418C37.4017 17.1418 39.7017 19.6118 39.7017 22.4918C39.7017 22.7018 39.7017 22.8418 39.6717 23.0418L40.7217 22.9318C43.1617 22.6818 44.3517 21.3318 44.3517 18.8118V16.5218C44.3517 13.5718 43.2317 12.3118 40.4417 11.7718ZM9.9517 25.9918C12.0017 25.9918 13.6317 24.3718 13.6317 22.3118C13.6317 20.2718 12.0017 18.6418 9.9517 18.6418C7.8917 18.6418 6.2617 20.2718 6.2617 22.3118C6.2617 24.3718 7.8917 25.9918 9.9517 25.9918ZM34.5317 25.9918C36.5817 25.9918 38.2117 24.3718 38.2117 22.3118C38.2117 20.2718 36.5817 18.6418 34.5317 18.6418C32.4717 18.6418 30.8417 20.2718 30.8417 22.3118C30.8417 24.3718 32.4717 25.9918 34.5317 25.9918Z" />
        </svg>
    