
        <svg xmlns="http://www.w3.org/2000/svg" viewBox="0 0 100 100">
            <path d="M2.4517 20.2877H22.9617C24.5117 20.2877 25.4017 19.3377 25.4017 17.8077V2.4877C25.4017 0.9477 24.5117 -0.0023 22.9617 -0.0023H2.4517C0.8917 -0.0023 0.0017 0.9477 0.0017 2.4877V17.8077C0.0017 19.3377 0.8917 20.2877 2.4517 20.2877ZM2.4217 19.4177C1.4317 19.4177 0.8717 18.7977 0.8717 17.8077V2.4677C0.8717 1.4877 1.4317 0.8777 2.4217 0.8777H22.9817C23.9717 0.8777 24.5417 1.4877 24.5417 2.4677V17.8077C24.5417 18.7977 23.9717 19.4177 22.9817 19.4177ZM6.4817 9.0677C8.1817 9.0677 9.5117 7.7177 9.5117 6.0277C9.5117 4.3277 8.1817 2.9777 6.4817 2.9777C4.7817 2.9777 3.4317 4.3277 3.4317 6.0277C3.4317 7.7177 4.7817 9.0677 6.4817 9.0677ZM14.9717 9.0677C16.6717 9.0677 18.0217 7.7177 18.0217 6.0277C18.0217 4.3277 16.6717 2.9777 14.9717 2.9777C13.2917 2.9777 11.9417 4.3277 11.9417 6.0277C11.9417 7.7177 13.2917 9.0677 14.9717 9.0677ZM6.4817 8.3577C5.1717 8.3577 4.1517 7.3277 4.1517 6.0277C4.1517 4.7077 5.1717 3.6877 6.4817 3.6877C7.7717 3.6877 8.8017 4.7077 8.8017 6.0277C8.8017 7.3277 7.7717 8.3577 6.4817 8.3577ZM14.9717 8.3577C13.6717 8.3577 12.6417 7.3277 12.6417 6.0277C12.6417 4.7077 13.6717 3.6877 14.9717 3.6877C16.2917 3.6877 17.3217 4.7077 17.3217 6.0277C17.3217 7.3277 16.2917 8.3577 14.9717 8.3577ZM6.4817 8.0077C7.6217 8.0077 8.4517 7.1677 8.4517 6.0277C8.4517 4.8777 7.6217 4.0477 6.4817 4.0477C5.3317 4.0477 4.5017 4.8777 4.5017 6.0277C4.5017 7.1677 5.3317 8.0077 6.4817 8.0077ZM14.9717 8.0077C16.1417 8.0077 16.9617 7.1677 16.9617 6.0277C16.9617 4.8777 16.1417 4.0477 14.9717 4.0477C13.8317 4.0477 12.9917 4.8777 12.9917 6.0277C12.9917 7.1677 13.8317 8.0077 14.9717 8.0077ZM21.6817 6.1877C22.1117 6.1877 22.4517 5.8377 22.4517 5.4177C22.4517 4.9777 22.1117 4.6377 21.6817 4.6377C21.2617 4.6377 20.9217 4.9777 20.9217 5.4177C20.9217 5.8377 21.2617 6.1877 21.6817 6.1877ZM21.6817 9.3377C22.1117 9.3377 22.4517 8.9877 22.4517 8.5677C22.4517 8.1477 22.1117 7.7977 21.6817 7.7977C21.2617 7.7977 20.9217 8.1477 20.9217 8.5677C20.9217 8.9877 21.2617 9.3377 21.6817 9.3377ZM21.6817 12.4877C22.1117 12.4877 22.4517 12.1377 22.4517 11.7177C22.4517 11.2977 22.1117 10.9477 21.6817 10.9477C21.2617 10.9477 20.9217 11.2977 20.9217 11.7177C20.9217 12.1377 21.2617 12.4877 21.6817 12.4877ZM6.4817 17.2877C8.1817 17.2877 9.5117 15.9377 9.5117 14.2477C9.5117 12.5477 8.1817 11.2077 6.4817 11.2077C4.7817 11.2077 3.4317 12.5477 3.4317 14.2477C3.4317 15.9377 4.7817 17.2877 6.4817 17.2877ZM14.9717 17.2877C16.6717 17.2877 18.0217 15.9377 18.0217 14.2477C18.0217 12.5477 16.6717 11.2077 14.9717 11.2077C13.2917 11.2077 11.9417 12.5477 11.9417 14.2477C11.9417 15.9377 13.2917 17.2877 14.9717 17.2877ZM6.4817 16.5777C5.1717 16.5777 4.1517 15.5477 4.1517 14.2477C4.1517 12.9377 5.1717 11.9177 6.4817 11.9177C7.7717 11.9177 8.8017 12.9377 8.8017 14.2477C8.8017 15.5477 7.7717 16.5777 6.4817 16.5777ZM14.9717 16.5777C13.6717 16.5777 12.6417 15.5477 12.6417 14.2477C12.6417 12.9377 13.6717 11.9177 14.9717 11.9177C16.2917 11.9177 17.3217 12.9377 17.3217 14.2477C17.3217 15.5477 16.2917 16.5777 14.9717 16.5777ZM6.4817 16.2277C7.6217 16.2277 8.4517 15.3977 8.4517 14.2477C8.4517 13.0977 7.6217 12.2677 6.4817 12.2677C5.3317 12.2677 4.5017 13.0977 4.5017 14.2477C4.5017 15.3977 5.3317 16.2277 6.4817 16.2277ZM14.9717 16.2277C16.1417 16.2277 16.9617 15.3977 16.9617 14.2477C16.9617 13.0977 16.1417 12.2677 14.9717 12.2677C13.8317 12.2677 12.9917 13.0977 12.9917 14.2477C12.9917 15.3977 13.8317 16.2277 14.9717 16.2277ZM21.6817 15.6477C22.1117 15.6477 22.4517 15.3077 22.4517 14.8677C22.4517 14.4477 22.1117 14.0977 21.6817 14.0977C21.2617 14.0977 20.9217 14.4477 20.9217 14.8677C20.9217 15.3077 21.2617 15.6477 21.6817 15.6477Z" />
        </svg>
    