
        <svg xmlns="http://www.w3.org/2000/svg" viewBox="0 0 100 100">
            <path d="M3.5517 23.3945H25.1117C27.4117 23.3945 28.6717 22.1345 28.6717 19.8645V3.5245C28.6717 1.2645 27.4117 0.0045 25.1117 0.0045H3.5517C1.2617 0.0045 0.0017 1.2645 0.0017 3.5245V19.8645C0.0017 22.1345 1.2617 23.3945 3.5517 23.3945ZM7.4017 10.8045C5.4017 10.8045 3.7717 9.1745 3.7717 7.1745C3.7717 5.1645 5.4017 3.5345 7.4017 3.5345C9.4117 3.5345 11.0317 5.1645 11.0317 7.1745C11.0317 9.1745 9.4117 10.8045 7.4017 10.8045ZM16.7117 10.8045C14.7217 10.8045 13.0817 9.1745 13.0817 7.1745C13.0817 5.1645 14.7217 3.5345 16.7117 3.5345C18.7217 3.5345 20.3517 5.1645 20.3517 7.1745C20.3517 9.1745 18.7217 10.8045 16.7117 10.8045ZM7.4017 9.5745C8.7317 9.5745 9.8117 8.5045 9.8117 7.1745C9.8117 5.8345 8.7317 4.7845 7.4017 4.7845C6.0817 4.7845 5.0017 5.8345 5.0017 7.1745C5.0017 8.5045 6.0817 9.5745 7.4017 9.5745ZM16.7117 9.5745C18.0517 9.5745 19.1217 8.5045 19.1217 7.1745C19.1217 5.8345 18.0517 4.7845 16.7117 4.7845C15.4017 4.7845 14.3217 5.8345 14.3217 7.1745C14.3217 8.5045 15.4017 9.5745 16.7117 9.5745ZM7.4017 8.9845C6.3917 8.9845 5.6017 8.2045 5.6017 7.1745C5.6017 6.1545 6.3917 5.3545 7.4017 5.3545C8.4217 5.3545 9.2117 6.1545 9.2117 7.1745C9.2117 8.2045 8.4217 8.9845 7.4017 8.9845ZM16.7117 8.9845C15.6917 8.9845 14.9017 8.2045 14.9017 7.1745C14.9017 6.1545 15.6917 5.3545 16.7117 5.3545C17.7417 5.3545 18.5317 6.1545 18.5317 7.1745C18.5317 8.2045 17.7417 8.9845 16.7117 8.9845ZM24.1617 7.5745C23.5417 7.5745 23.0617 7.0745 23.0617 6.4545C23.0617 5.8545 23.5417 5.3545 24.1617 5.3545C24.7717 5.3545 25.2617 5.8545 25.2617 6.4545C25.2617 7.0745 24.7717 7.5745 24.1617 7.5745ZM24.1617 11.0545C23.5417 11.0545 23.0617 10.5545 23.0617 9.9345C23.0617 9.3445 23.5417 8.8345 24.1617 8.8345C24.7717 8.8345 25.2617 9.3445 25.2617 9.9345C25.2617 10.5545 24.7717 11.0545 24.1617 11.0545ZM24.1617 14.5345C23.5417 14.5345 23.0617 14.0345 23.0617 13.4345C23.0617 12.8045 23.5417 12.3245 24.1617 12.3245C24.7717 12.3245 25.2617 12.8045 25.2617 13.4345C25.2617 14.0345 24.7717 14.5345 24.1617 14.5345ZM7.4017 19.8145C5.4017 19.8145 3.7717 18.1845 3.7717 16.1845C3.7717 14.1845 5.4017 12.5545 7.4017 12.5545C9.4117 12.5545 11.0317 14.1845 11.0317 16.1845C11.0317 18.1845 9.4117 19.8145 7.4017 19.8145ZM16.7117 19.8145C14.7217 19.8145 13.0817 18.1845 13.0817 16.1845C13.0817 14.1845 14.7217 12.5545 16.7117 12.5545C18.7217 12.5545 20.3517 14.1845 20.3517 16.1845C20.3517 18.1845 18.7217 19.8145 16.7117 19.8145ZM7.4017 18.5845C8.7317 18.5845 9.8117 17.5145 9.8117 16.1845C9.8117 14.8445 8.7317 13.7945 7.4017 13.7945C6.0817 13.7945 5.0017 14.8445 5.0017 16.1845C5.0017 17.5145 6.0817 18.5845 7.4017 18.5845ZM16.7117 18.5845C18.0517 18.5845 19.1217 17.5145 19.1217 16.1845C19.1217 14.8445 18.0517 13.7945 16.7117 13.7945C15.4017 13.7945 14.3217 14.8445 14.3217 16.1845C14.3217 17.5145 15.4017 18.5845 16.7117 18.5845ZM7.4017 18.0045C6.3917 18.0045 5.6017 17.2145 5.6017 16.1845C5.6017 15.1645 6.3917 14.3645 7.4017 14.3645C8.4217 14.3645 9.2117 15.1645 9.2117 16.1845C9.2117 17.2145 8.4217 18.0045 7.4017 18.0045ZM16.7117 18.0045C15.6917 18.0045 14.9017 17.2145 14.9017 16.1845C14.9017 15.1645 15.6917 14.3645 16.7117 14.3645C17.7417 14.3645 18.5317 15.1645 18.5317 16.1845C18.5317 17.2145 17.7417 18.0045 16.7117 18.0045ZM24.1617 18.0145C23.5417 18.0145 23.0617 17.5145 23.0617 16.9145C23.0617 16.2845 23.5417 15.8045 24.1617 15.8045C24.7717 15.8045 25.2617 16.2845 25.2617 16.9145C25.2617 17.5145 24.7717 18.0145 24.1617 18.0145Z" />
        </svg>
    