
        <svg xmlns="http://www.w3.org/2000/svg" viewBox="0 0 100 100">
            <path d="M0.0017 14.7027C0.0017 14.8627 0.1317 14.9927 0.2817 14.9927H1.7917V18.7727C1.7917 19.1027 1.9817 19.2927 2.3117 19.2927H6.0617V20.7927C6.0617 20.9527 6.1917 21.0827 6.3417 21.0827C6.5017 21.0827 6.6317 20.9527 6.6317 20.7927V19.2927H10.2517V20.7927C10.2517 20.9527 10.3817 21.0827 10.5317 21.0827C10.7017 21.0827 10.8317 20.9527 10.8317 20.7927V19.2927H14.4517V20.7927C14.4517 20.9527 14.5817 21.0827 14.7317 21.0827C14.8817 21.0827 15.0217 20.9527 15.0217 20.7927V19.2927H18.7717C19.0917 19.2927 19.2917 19.1027 19.2917 18.7727V14.9927H20.7917C20.9417 14.9927 21.0717 14.8627 21.0717 14.7027C21.0717 14.5427 20.9417 14.4127 20.7917 14.4127H19.2917V10.7927H20.7917C20.9417 10.7927 21.0717 10.6627 21.0717 10.5127C21.0717 10.3427 20.9417 10.2227 20.7917 10.2227H19.2917V6.5927H20.7917C20.9417 6.5927 21.0717 6.4727 21.0717 6.3127C21.0717 6.1627 20.9417 6.0227 20.7917 6.0227H19.2917V2.3127C19.2917 1.9827 19.0917 1.7927 18.7717 1.7927H15.0217V0.2927C15.0217 0.1327 14.8817 0.0027 14.7317 0.0027C14.5817 0.0027 14.4517 0.1327 14.4517 0.2927V1.7927H10.8317V0.2927C10.8317 0.1327 10.7017 0.0027 10.5317 0.0027C10.3817 0.0027 10.2517 0.1327 10.2517 0.2927V1.7927H6.6317V0.2927C6.6317 0.1327 6.5017 0.0027 6.3417 0.0027C6.1917 0.0027 6.0617 0.1327 6.0617 0.2927V1.7927H2.3117C1.9817 1.7927 1.7917 1.9827 1.7917 2.3127V6.0227H0.2817C0.1317 6.0227 0.0017 6.1627 0.0017 6.3127C0.0017 6.4727 0.1317 6.5927 0.2817 6.5927H1.7917V10.2227H0.2817C0.1317 10.2227 0.0017 10.3427 0.0017 10.5127C0.0017 10.6627 0.1317 10.7927 0.2817 10.7927H1.7917V14.4127H0.2817C0.1317 14.4127 0.0017 14.5427 0.0017 14.7027ZM2.3717 18.4927V2.5927C2.3717 2.4627 2.4517 2.3627 2.5917 2.3627H18.4917C18.6217 2.3627 18.7117 2.4627 18.7117 2.5927V18.4927C18.7117 18.6227 18.6217 18.7127 18.4917 18.7127H2.5917C2.4517 18.7127 2.3717 18.6227 2.3717 18.4927ZM5.2717 16.3227H15.8117C16.1417 16.3227 16.3217 16.1327 16.3217 15.8127V5.2727C16.3217 4.9427 16.1417 4.7627 15.8117 4.7627H5.2717C4.9617 4.7627 4.7617 4.9427 4.7617 5.2727V15.8127C4.7617 16.1327 4.9617 16.3227 5.2717 16.3227ZM5.3417 15.5127V5.5627C5.3417 5.4227 5.4217 5.3327 5.5617 5.3327H15.5317C15.6517 5.3327 15.7517 5.4227 15.7517 5.5627V15.5127C15.7517 15.6527 15.6517 15.7427 15.5317 15.7427H5.5617C5.4217 15.7427 5.3417 15.6527 5.3417 15.5127Z" />
        </svg>
    