
        <svg xmlns="http://www.w3.org/2000/svg" viewBox="0 0 100 100">
            <path d="M23.9917 -0.0047H4.5917C1.7017 -0.0047 0.0017 1.6953 0.0017 4.5953V5.5053H28.5817V4.5953C28.5817 1.6953 26.8917 -0.0047 23.9917 -0.0047ZM5.3017 17.3353C4.6217 17.3353 4.1517 16.8653 4.1517 16.2053V14.0353C4.1517 13.3853 4.6217 12.9153 5.3017 12.9153H8.1817C8.8617 12.9153 9.3317 13.3853 9.3317 14.0353V16.2053C9.3317 16.8653 8.8617 17.3353 8.1817 17.3353ZM4.5917 21.4653H23.9917C26.8917 21.4653 28.5817 19.7653 28.5817 16.8753V8.6153H0.0017V16.8753C0.0017 19.7653 1.7017 21.4653 4.5917 21.4653Z" />
        </svg>
    