
        <svg xmlns="http://www.w3.org/2000/svg" viewBox="0 0 100 100">
            <path d="M1.3017 8.0863C2.1517 8.0863 2.6117 7.6163 2.6117 6.7663V4.2063C2.6117 3.1262 3.1617 2.6163 4.1917 2.6163H6.8017C7.6517 2.6163 8.1217 2.1462 8.1217 1.2963C8.1217 0.4563 7.6517 -0.0038 6.8017 -0.0038H3.9717C1.3817 -0.0038 0.0017 1.3562 0.0017 3.9363V6.7663C0.0017 7.6163 0.4717 8.0863 1.3017 8.0863ZM22.1217 8.0863C22.9717 8.0863 23.4217 7.6163 23.4217 6.7663V3.9363C23.4217 1.3663 22.0517 -0.0038 19.4517 -0.0038H16.6317C15.7717 -0.0038 15.3017 0.4563 15.3017 1.2963C15.3017 2.1462 15.7717 2.6163 16.6317 2.6163H19.2317C20.2517 2.6163 20.8117 3.1262 20.8117 4.2063V6.7663C20.8117 7.6163 21.2817 8.0863 22.1217 8.0863ZM5.1417 9.2363H18.2917V8.7463C18.2917 7.5363 17.6517 6.9063 16.4317 6.9063H7.0117C5.7917 6.9063 5.1417 7.5363 5.1417 8.7463ZM7.0117 16.5463H16.4317C17.6517 16.5463 18.2917 15.9163 18.2917 14.6963V10.5463H5.1417V14.6963C5.1417 15.9163 5.7917 16.5463 7.0117 16.5463ZM7.4717 14.7663C7.1617 14.7663 6.9417 14.5463 6.9417 14.2363V13.2063C6.9417 12.8863 7.1617 12.6763 7.4717 12.6763H8.8317C9.1517 12.6763 9.3717 12.8863 9.3717 13.2063V14.2363C9.3717 14.5463 9.1517 14.7663 8.8317 14.7663ZM3.9717 23.4263H6.8017C7.6517 23.4263 8.1217 22.9563 8.1217 22.1163C8.1217 21.2863 7.6517 20.8163 6.8017 20.8163H4.1917C3.1617 20.8163 2.6117 20.2963 2.6117 19.2163V16.6563C2.6117 15.8063 2.1417 15.3363 1.3017 15.3363C0.4617 15.3363 0.0017 15.8063 0.0017 16.6563V19.4862C0.0017 22.0563 1.3817 23.4263 3.9717 23.4263ZM16.6317 23.4263H19.4517C22.0517 23.4263 23.4217 22.0563 23.4217 19.4862V16.6563C23.4217 15.8063 22.9617 15.3363 22.1217 15.3363C21.2717 15.3363 20.8117 15.8063 20.8117 16.6563V19.2163C20.8117 20.2963 20.2517 20.8163 19.2317 20.8163H16.6317C15.7717 20.8163 15.3017 21.2863 15.3017 22.1163C15.3017 22.9563 15.7717 23.4263 16.6317 23.4263Z" />
        </svg>
    