
        <svg xmlns="http://www.w3.org/2000/svg" viewBox="0 0 100 100">
            <path d="M3.9717 20.4814H23.9017C26.4917 20.4814 27.8717 19.1114 27.8717 16.5514V3.9414C27.8717 1.3714 26.4917 0.0014 23.9017 0.0014H3.9717C1.3817 0.0014 0.0017 1.3714 0.0017 3.9414V16.5514C0.0017 19.1114 1.3817 20.4814 3.9717 20.4814ZM2.6117 4.2114C2.6117 3.1314 3.1617 2.6114 4.1917 2.6114H23.6817C24.7017 2.6114 25.2617 3.1314 25.2617 4.2114V5.0114H2.6117ZM4.1917 17.8714C3.1617 17.8714 2.6117 17.3414 2.6117 16.2814V7.8114H25.2617V16.2814C25.2617 17.3414 24.7017 17.8714 23.6817 17.8714ZM5.8117 15.8214H8.6817C9.3717 15.8214 9.8317 15.3614 9.8317 14.6914V12.5314C9.8317 11.8714 9.3717 11.4014 8.6817 11.4014H5.8117C5.1217 11.4014 4.6617 11.8714 4.6617 12.5314V14.6914C4.6617 15.3614 5.1217 15.8214 5.8117 15.8214Z" />
        </svg>
    