
        <svg xmlns="http://www.w3.org/2000/svg" viewBox="0 0 100 100">
            <path d="M12.7923 25.5978C19.8723 25.5978 25.6023 19.8678 25.6023 12.7978C25.6023 5.7278 19.8723 -0.0022 12.7923 -0.0022C5.7323 -0.0022 0.0023 5.7278 0.0023 12.7978C0.0023 19.8678 5.7323 25.5978 12.7923 25.5978ZM12.7923 21.4178C8.0323 21.4178 4.1723 17.5678 4.1723 12.7978C4.1723 8.0278 8.0323 4.1678 12.7923 4.1678C17.5623 4.1678 21.4323 8.0278 21.4323 12.7978C21.4323 17.5678 17.5623 21.4178 12.7923 21.4178ZM6.4123 10.4778H19.1823V10.0678C19.1823 8.7778 18.4223 8.0178 17.1223 8.0178H8.4723C7.1823 8.0178 6.4123 8.7778 6.4123 10.0678ZM8.4723 17.5978H17.1223C18.4223 17.5978 19.1823 16.8378 19.1823 15.5478V11.8578H6.4123V15.5478C6.4123 16.8378 7.1823 17.5978 8.4723 17.5978ZM8.7923 15.7378C8.4723 15.7378 8.2623 15.5478 8.2623 15.2478V14.2878C8.2623 13.9778 8.4723 13.7778 8.7923 13.7778H10.0623C10.3723 13.7778 10.5823 13.9778 10.5823 14.2878V15.2478C10.5823 15.5478 10.3723 15.7378 10.0623 15.7378Z" />
        </svg>
    