
        <svg xmlns="http://www.w3.org/2000/svg" viewBox="0 0 100 100">
            <path d="M11.9523 23.9041C18.5523 23.9041 23.9023 18.5341 23.9023 11.9541C23.9023 5.3541 18.5523 0.0041 11.9523 0.0041C5.3623 0.0041 0.0023 5.3541 0.0023 11.9541C0.0023 18.5341 5.3623 23.9041 11.9523 23.9041ZM15.5523 6.6341C15.7623 6.7641 15.9623 6.9241 16.1623 7.0941L7.0623 16.1641C6.8923 15.9741 6.7423 15.7841 6.6123 15.5641L7.8323 14.3441C8.0023 14.1841 7.9923 13.9341 7.8323 13.7741C7.6623 13.6141 7.4323 13.6141 7.2823 13.7741L6.1723 14.8341C5.7323 13.9641 5.4723 12.9941 5.4723 11.9641C5.4723 8.4341 8.4123 5.4841 11.9423 5.4841C12.9723 5.4841 13.9523 5.7541 14.8323 6.2041L13.7623 7.2741C13.6123 7.4441 13.6023 7.6741 13.7623 7.8241C13.9323 8.0041 14.1723 8.0041 14.3223 7.8241ZM17.7023 9.0841C18.1523 9.9541 18.4223 10.9341 18.4223 11.9641C18.4223 15.4941 15.4723 18.4441 11.9423 18.4441C10.9123 18.4441 9.9423 18.1741 9.0623 17.7341L10.1523 16.6141C10.3023 16.4641 10.3023 16.2341 10.1523 16.0641C9.9823 15.9041 9.7523 15.9041 9.5823 16.0641L8.3323 17.2941C8.1223 17.1541 7.9223 17.0041 7.7423 16.8441L16.8123 7.7541C16.9923 7.9541 17.1423 8.1541 17.2823 8.3641L16.0923 9.5641C15.9123 9.7141 15.9123 9.9641 16.0923 10.1241C16.2423 10.2841 16.4723 10.2841 16.6423 10.1241ZM13.3523 8.8141C13.5123 8.6441 13.5123 8.4141 13.3523 8.2541C13.1923 8.0941 12.9523 8.0941 12.7923 8.2541L11.9323 9.1141C11.7523 9.2941 11.7523 9.5341 11.9323 9.6841C12.0823 9.8341 12.3123 9.8341 12.4723 9.6841ZM11.5223 10.6441C11.6623 10.5041 11.6623 10.2441 11.5223 10.1041C11.3523 9.9241 11.1123 9.9241 10.9523 10.1041L10.0823 10.9641C9.9223 11.1341 9.9223 11.3641 10.0823 11.5441C10.2223 11.6841 10.4923 11.6841 10.6323 11.5441ZM15.6723 11.0941C15.8223 10.9441 15.8223 10.6841 15.6723 10.5241C15.5023 10.3841 15.2623 10.3741 15.1023 10.5241L14.2423 11.4241C14.1023 11.5741 14.0823 11.8141 14.2423 11.9641C14.4023 12.1441 14.6223 12.1441 14.8023 11.9641ZM9.6723 12.4841C9.8123 12.3241 9.8223 12.0941 9.6723 11.9441C9.5123 11.7641 9.2823 11.7641 9.1023 11.9441L8.2423 12.8041C8.0823 12.9641 8.0823 13.2141 8.2423 13.3641C8.4023 13.5241 8.6523 13.5341 8.8023 13.3641ZM13.8123 12.9341C13.9923 12.7841 13.9923 12.5341 13.8123 12.3741C13.6723 12.2341 13.4223 12.2341 13.2823 12.3741L12.3723 13.2541C12.2323 13.4041 12.2323 13.6741 12.3723 13.8141C12.5523 13.9641 12.7823 13.9641 12.9523 13.8141ZM11.9723 14.7841C12.1423 14.6141 12.1423 14.3641 11.9723 14.2241C11.8223 14.0741 11.5923 14.0741 11.4423 14.2241L10.5723 15.0941C10.3923 15.2541 10.3923 15.4941 10.5723 15.6541C10.7023 15.8041 10.9523 15.8041 11.1123 15.6541Z" />
        </svg>
    