
        <svg xmlns="http://www.w3.org/2000/svg" viewBox="0 0 100 100">
            <path d="M11.3523 22.7064C17.6023 22.7064 22.7123 17.6064 22.7123 11.3564C22.7123 5.1064 17.6023 -0.0036 11.3523 -0.0036C5.1123 -0.0036 0.0023 5.1064 0.0023 11.3564C0.0023 17.6064 5.1123 22.7064 11.3523 22.7064ZM15.0323 6.4264C15.2023 6.5364 15.3523 6.6664 15.5023 6.7964L6.7923 15.4964C6.6723 15.3564 6.5423 15.1964 6.4123 15.0364L7.5423 13.8964C7.6623 13.7964 7.6623 13.6064 7.5423 13.4864C7.4323 13.3564 7.2423 13.3564 7.1123 13.4864L6.0723 14.5264C5.4923 13.6064 5.1723 12.5064 5.1723 11.3664C5.1723 8.0064 7.9923 5.1664 11.3523 5.1664C12.5123 5.1664 13.5923 5.4964 14.5323 6.0664L13.4923 7.1164C13.3723 7.2264 13.3723 7.4264 13.4923 7.5464C13.6023 7.6664 13.8023 7.6664 13.9023 7.5464ZM16.6323 8.1864C17.2123 9.1164 17.5423 10.2164 17.5423 11.3664C17.5423 14.7164 14.7223 17.5564 11.3523 17.5564C10.2023 17.5564 9.1023 17.2264 8.1823 16.6364L9.2223 15.5964C9.3523 15.4764 9.3523 15.2764 9.2223 15.1664C9.1023 15.0464 8.9223 15.0464 8.8123 15.1664L7.6623 16.2964C7.5123 16.1864 7.3623 16.0464 7.2223 15.9164L15.9123 7.2064C16.0423 7.3564 16.1723 7.5164 16.2923 7.6764L15.1623 8.8164C15.0423 8.9064 15.0423 9.1064 15.1623 9.2264C15.2823 9.3364 15.4823 9.3364 15.6023 9.2264ZM12.9623 8.4864C13.0823 8.3764 13.0823 8.1864 12.9623 8.0764C12.8423 7.9564 12.6423 7.9564 12.5323 8.0764L11.6623 8.9564C11.5423 9.0664 11.5423 9.2464 11.6623 9.3764C11.7823 9.4964 11.9623 9.4964 12.0823 9.3764ZM14.6323 10.1864C14.7523 10.0664 14.7523 9.8664 14.6323 9.7464C14.5223 9.6364 14.3323 9.6364 14.2223 9.7464L13.3323 10.6264C13.2223 10.7464 13.2223 10.9364 13.3323 11.0464C13.4623 11.1664 13.6423 11.1664 13.7623 11.0464ZM11.1523 10.2964C11.2723 10.1964 11.2723 9.9964 11.1523 9.8764C11.0423 9.7664 10.8423 9.7664 10.7323 9.8764L9.8523 10.7564C9.7423 10.8664 9.7423 11.0664 9.8523 11.1764C9.9723 11.2964 10.1523 11.2964 10.2623 11.1764ZM12.8323 11.9764C12.9523 11.8664 12.9523 11.6864 12.8323 11.5564C12.7123 11.4364 12.5123 11.4364 12.4123 11.5564L11.5323 12.4464C11.4123 12.5664 11.4123 12.7364 11.5323 12.8564C11.6523 12.9764 11.8523 12.9764 11.9523 12.8564ZM9.3623 12.0964C9.4823 11.9764 9.4823 11.7764 9.3623 11.6764C9.2623 11.5564 9.0623 11.5564 8.9423 11.6764L8.0623 12.5364C7.9523 12.6564 7.9523 12.8564 8.0623 12.9564C8.1823 13.0764 8.3623 13.0764 8.4923 12.9564ZM11.0423 13.7664C11.1523 13.6564 11.1523 13.4564 11.0423 13.3464C10.9323 13.2264 10.7323 13.2264 10.6123 13.3464L9.7523 14.2264C9.6323 14.3464 9.6323 14.5264 9.7523 14.6464C9.8523 14.7564 10.0523 14.7564 10.1723 14.6464Z" />
        </svg>
    