
        <svg xmlns="http://www.w3.org/2000/svg" viewBox="0 0 100 100">
            <path d="M0.0023 12.7978C0.0023 14.6378 0.4023 16.4078 1.1123 17.9978L3.1723 15.9378C3.5723 15.5478 4.1723 15.5578 4.5623 15.9378C4.9223 16.3478 4.9523 16.9178 4.5623 17.3178L2.1023 19.7978C2.3623 20.2178 2.6723 20.6178 3.0023 20.9878L21.0023 2.9678C20.6223 2.6478 20.2123 2.3578 19.8023 2.0778L17.2923 4.5778C16.9223 4.9678 16.3023 4.9578 15.9123 4.5778C15.5423 4.1978 15.5323 3.6078 15.9123 3.2078L18.0223 1.0878C16.4223 0.3878 14.6623 -0.0022 12.7923 -0.0022C5.7323 -0.0022 0.0023 5.7278 0.0023 12.7978ZM12.7923 25.5978C19.8723 25.5978 25.6023 19.8678 25.6023 12.7978C25.6023 10.9178 25.2023 9.1678 24.4923 7.5678L22.4323 9.6478C22.0423 10.0278 21.4223 10.0278 21.0423 9.6478C20.6723 9.2378 20.6623 8.6478 21.0423 8.2578L23.5223 5.7778C23.2523 5.3778 22.9523 4.9878 22.6423 4.6178L4.6723 22.6478C5.0423 22.9578 5.4123 23.2378 5.8123 23.4978L8.2923 21.0078C8.6923 20.6178 9.3023 20.6278 9.6823 21.0078C10.0623 21.3878 10.0623 21.9978 9.6823 22.3678L7.5923 24.4678C9.1923 25.1978 10.9423 25.5978 12.7923 25.5978ZM15.4023 6.4878L13.7023 8.2178C13.3123 8.6178 12.7023 8.5678 12.3123 8.2178C11.9223 7.8078 11.9223 7.2078 12.3123 6.8178L14.0123 5.1078C14.3923 4.7178 15.0123 4.7178 15.4023 5.1078C15.7823 5.4878 15.7723 6.0978 15.4023 6.4878ZM11.7923 10.0978L10.0623 11.8078C9.6823 12.1978 9.0923 12.1978 8.6923 11.8078C8.3223 11.4178 8.3223 10.8178 8.6923 10.4278L10.4023 8.7178C10.7923 8.3478 11.3923 8.3478 11.7923 8.7178C12.1723 9.1178 12.1923 9.7278 11.7923 10.0978ZM20.5223 11.5478L18.8123 13.2578C18.4123 13.6478 17.8223 13.6378 17.4423 13.2578C17.0623 12.8678 17.0423 12.2678 17.4423 11.8678L19.1323 10.1678C19.5323 9.7778 20.1323 9.7778 20.5223 10.1678C20.9223 10.5578 20.9223 11.1478 20.5223 11.5478ZM8.1523 13.7178L6.4523 15.4178C6.0723 15.8078 5.4623 15.8078 5.0823 15.4178C4.6923 15.0378 4.6923 14.4478 5.0823 14.0478L6.7923 12.3378C7.1823 11.9378 7.7823 11.9378 8.1523 12.3378C8.5423 12.7278 8.5523 13.3278 8.1523 13.7178ZM16.9023 15.1478L15.1923 16.8678C14.8123 17.2478 14.2023 17.2478 13.8023 16.8678C13.4323 16.4778 13.4223 15.8678 13.8023 15.4778L15.5423 13.7678C15.9123 13.3978 16.5123 13.3978 16.9023 13.7678C17.2823 14.1678 17.2823 14.7778 16.9023 15.1478ZM13.2923 18.7778L11.5923 20.4878C11.2023 20.8678 10.5923 20.8678 10.2023 20.4878C9.8123 20.0978 9.8223 19.4978 10.2023 19.0978L11.9023 17.3778C12.2923 16.9778 12.9023 17.0278 13.2923 17.3778C13.6723 17.7878 13.6923 18.3778 13.2923 18.7778Z" />
        </svg>
    