
        <svg xmlns="http://www.w3.org/2000/svg" viewBox="0 0 100 100">
            <path d="M11.9523 23.9041C18.5523 23.9041 23.9023 18.5541 23.9023 11.9541C23.9023 5.3541 18.5523 0.0041 11.9523 0.0041C5.3523 0.0041 0.0023 5.3541 0.0023 11.9541C0.0023 18.5541 5.3523 23.9041 11.9523 23.9041ZM11.9523 21.9141C6.4423 21.9141 1.9923 17.4641 1.9923 11.9541C1.9923 6.4441 6.4423 1.9941 11.9523 1.9941C17.4623 1.9941 21.9123 6.4441 21.9123 11.9541C21.9123 17.4641 17.4623 21.9141 11.9523 21.9141ZM15.4423 6.7941L14.2523 7.9541C14.1023 8.1241 13.8723 8.1241 13.7123 7.9541C13.5623 7.8041 13.5723 7.5841 13.7123 7.4141L14.7523 6.3741C13.9023 5.9441 12.9423 5.6841 11.9423 5.6841C8.5223 5.6841 5.6723 8.5441 5.6723 11.9641C5.6723 12.9641 5.9223 13.9141 6.3523 14.7541L7.4223 13.7241C7.5723 13.5741 7.7923 13.5741 7.9523 13.7241C8.1123 13.8741 8.1223 14.1141 7.9523 14.2741L6.7723 15.4541C6.9023 15.6641 7.0423 15.8541 7.2223 16.0341L16.0323 7.2441C15.8423 7.0741 15.6423 6.9241 15.4423 6.7941ZM17.5323 9.1641L16.5023 10.1841C16.3323 10.3341 16.1123 10.3341 15.9623 10.1841C15.7923 10.0241 15.7923 9.7841 15.9623 9.6341L17.1223 8.4741C16.9823 8.2741 16.8423 8.0741 16.6623 7.8841L7.8723 16.6841C8.0423 16.8541 8.2423 16.9941 8.4423 17.1341L9.6523 15.9341C9.8123 15.7841 10.0423 15.7841 10.1923 15.9341C10.3523 16.1041 10.3523 16.3241 10.1923 16.4741L9.1423 17.5541C9.9923 17.9841 10.9423 18.2441 11.9423 18.2441C15.3623 18.2441 18.2223 15.3841 18.2223 11.9641C18.2223 10.9641 17.9623 10.0041 17.5323 9.1641ZM13.3123 8.9041L12.4523 9.7541C12.3023 9.9041 12.0823 9.9041 11.9323 9.7541C11.7623 9.6141 11.7623 9.3741 11.9323 9.2141L12.7723 8.3641C12.9223 8.2141 13.1623 8.2141 13.3123 8.3641C13.4623 8.5241 13.4623 8.7541 13.3123 8.9041ZM11.5323 10.6841L10.6723 11.5541C10.5323 11.6941 10.2823 11.6941 10.1323 11.5541C9.9823 11.3941 9.9823 11.1541 10.1323 11.0041L10.9823 10.1641C11.1323 9.9941 11.3823 9.9941 11.5323 10.1641C11.6723 10.3041 11.6723 10.5441 11.5323 10.6841ZM15.5523 11.1241L14.7023 11.9641C14.5423 12.1241 14.3223 12.1241 14.1723 11.9641C14.0123 11.8141 14.0323 11.5941 14.1723 11.4341L15.0123 10.5741C15.1523 10.4141 15.4023 10.4341 15.5523 10.5741C15.7023 10.7241 15.7023 10.9641 15.5523 11.1241ZM9.7423 12.4641L8.8923 13.3241C8.7523 13.4841 8.5123 13.4741 8.3523 13.3241C8.2023 13.1841 8.2023 12.9341 8.3523 12.7841L9.2023 11.9441C9.3623 11.7741 9.5823 11.7741 9.7423 11.9441C9.8923 12.0941 9.8823 12.3141 9.7423 12.4641ZM13.7623 12.9041L12.9123 13.7541C12.7623 13.9141 12.5323 13.9141 12.3623 13.7541C12.2223 13.6141 12.2223 13.3641 12.3623 13.2141L13.2323 12.3641C13.3723 12.2241 13.6123 12.2241 13.7623 12.3641C13.9223 12.5141 13.9223 12.7641 13.7623 12.9041ZM11.9723 14.6941L11.1323 15.5341C10.9823 15.6941 10.7323 15.6941 10.6023 15.5341C10.4423 15.3841 10.4423 15.1541 10.6023 15.0041L11.4523 14.1541C11.6023 14.0041 11.8223 14.0041 11.9723 14.1541C12.1323 14.2941 12.1323 14.5341 11.9723 14.6941Z" />
        </svg>
    