
        <svg xmlns="http://www.w3.org/2000/svg" viewBox="0 0 100 100">
            <path d="M20.8817 8.2664C21.0717 8.2664 21.2617 8.0964 21.2617 7.8864V6.5964C21.2617 3.7764 19.3317 1.9964 16.3117 1.9964H16.1517V0.4764C16.1517 0.0064 15.7017 -0.1336 15.3317 0.1364L12.7017 1.9364C12.3117 2.2064 12.3117 2.5264 12.7017 2.7964L15.3317 4.5964C15.7017 4.8664 16.1517 4.7164 16.1517 4.2764V2.7364H16.3117C18.8817 2.7364 20.5117 4.2364 20.5117 6.6164V7.8864C20.5117 8.0964 20.6717 8.2664 20.8817 8.2664ZM0.0017 8.4864C0.0017 8.7364 0.2017 8.9064 0.4317 8.9064H5.9017V17.6364C5.9017 18.0064 6.1417 18.2364 6.5117 18.2364H15.2817V23.6864C15.2817 23.9264 15.4417 24.1464 15.7017 24.1464C15.9617 24.1464 16.1517 23.9264 16.1517 23.6864V18.2364H21.6217C21.8417 18.2364 22.0417 18.0664 22.0417 17.8064C22.0417 17.5464 21.8417 17.3964 21.6217 17.3964H16.1517V8.6664C16.1517 8.2764 15.9117 8.0464 15.5417 8.0464H6.7817V2.6164C6.7817 2.3764 6.6217 2.1664 6.3617 2.1664C6.0917 2.1664 5.9017 2.3764 5.9017 2.6164V8.0464H0.4317C0.2017 8.0464 0.0017 8.2364 0.0017 8.4864ZM7.0317 17.3964C6.8717 17.3964 6.7817 17.3064 6.7817 17.1564V8.9064H15.0317C15.1917 8.9064 15.2817 8.9864 15.2817 9.1464V17.3964ZM1.1817 18.0464C0.9817 18.0464 0.8017 18.2164 0.8017 18.4164V19.7164C0.8017 22.5164 2.7317 24.2964 5.7517 24.2964H5.9017V25.8364C5.9017 26.2964 6.3517 26.4464 6.7417 26.1764L9.3517 24.3664C9.7417 24.0964 9.7417 23.7864 9.3517 23.5164L6.7417 21.7064C6.3517 21.4364 5.9017 21.5764 5.9017 22.0364V23.5764H5.7517C3.1717 23.5764 1.5617 22.0764 1.5617 19.6964V18.4164C1.5617 18.2164 1.3817 18.0464 1.1817 18.0464Z" />
        </svg>
    