
        <svg xmlns="http://www.w3.org/2000/svg" viewBox="0 0 100 100">
            <path d="M0.0017 7.1938C0.0017 8.3238 0.9217 9.2738 2.2217 9.2738H4.7817V20.9838C4.7817 21.7738 5.3117 22.3138 6.1017 22.3138H18.0317V25.3038C18.0317 26.5738 19.0817 27.4338 20.1817 27.4338C21.3017 27.4338 22.3317 26.5738 22.3317 25.3038V22.3138H24.8917C26.1917 22.3138 27.1217 21.3538 27.1217 20.2338C27.1217 19.1138 26.1917 18.1638 24.8917 18.1638H22.3317V6.4438C22.3317 5.6438 21.8117 5.1238 21.0217 5.1238H9.0817V2.1238C9.0817 0.8438 8.0417 0.0038 6.9517 0.0038C5.8217 0.0038 4.7817 0.8438 4.7817 2.1238V5.1238H2.2217C0.9217 5.1238 0.0017 6.0838 0.0017 7.1938ZM9.3917 18.1638C9.2017 18.1638 9.0817 18.0438 9.0817 17.8438V9.2738H17.7317C17.9217 9.2738 18.0317 9.3837 18.0317 9.5738V18.1638Z" />
        </svg>
    