
        <svg xmlns="http://www.w3.org/2000/svg" viewBox="0 0 100 100">
            <path d="M0.0017 7.0411C0.0017 8.0311 0.8017 8.8311 1.9217 8.8311H4.9817V20.5311C4.9817 21.2711 5.4717 21.7611 6.2117 21.7611H18.0717V25.1511C18.0717 26.2611 18.9517 27.0111 19.9217 27.0111C20.9217 27.0111 21.8017 26.2611 21.8017 25.1511V21.7611H24.8517C25.9917 21.7611 26.7917 20.9511 26.7917 19.9711C26.7917 18.9811 25.9917 18.1711 24.8517 18.1711H21.8017V6.4811C21.8017 5.7411 21.3117 5.2511 20.5817 5.2511H8.7117V1.8611C8.7117 0.7511 7.8317 0.0011 6.8517 0.0011C5.8617 0.0011 4.9817 0.7511 4.9817 1.8611V5.2511H1.9217C0.8017 5.2511 0.0017 6.0611 0.0017 7.0411ZM9.0217 18.1711C8.8217 18.1711 8.7117 18.0711 8.7117 17.8611V8.8311H17.7517C17.9617 8.8311 18.0717 8.9411 18.0717 9.1511V18.1711Z" />
        </svg>
    