
        <svg xmlns="http://www.w3.org/2000/svg" viewBox="0 0 100 100">
            <path d="M3.5817 27.3367H12.0817C14.2617 27.3367 15.6517 25.9267 15.6517 23.6967V10.4067C15.6517 8.1667 14.2617 6.7567 12.0817 6.7567H11.5617V5.0467H11.8317C12.9617 5.0467 13.6517 4.3367 13.6517 3.1767V1.8767C13.6517 0.7167 12.9617 -0.0033 11.8317 -0.0033H3.8217C2.6917 -0.0033 2.0017 0.7167 2.0017 1.8767V3.1767C2.0017 4.3367 2.6917 5.0467 3.8217 5.0467H4.0917V6.7567H3.5817C1.3917 6.7567 0.0017 8.1667 0.0017 10.4067V23.6967C0.0017 25.9267 1.3917 27.3367 3.5817 27.3367ZM3.4217 17.8667V16.2267C3.4217 15.7267 3.7517 15.4067 4.2317 15.4067H6.1917V13.4667C6.1917 12.9767 6.5017 12.6367 7.0117 12.6367H8.6517C9.1517 12.6367 9.4717 12.9767 9.4717 13.4667V15.4067H11.4117C11.9017 15.4067 12.2417 15.7267 12.2417 16.2267V17.8667C12.2417 18.3767 11.9017 18.6867 11.4117 18.6867H9.4717V20.6267C9.4717 21.1267 9.1517 21.4567 8.6517 21.4567H7.0117C6.5017 21.4567 6.1917 21.1267 6.1917 20.6267V18.6867H4.2317C3.7517 18.6867 3.4217 18.3767 3.4217 17.8667Z" />
        </svg>
    