
        <svg xmlns="http://www.w3.org/2000/svg" viewBox="0 0 100 100">
            <path d="M12.3723 24.7459C19.2023 24.7459 24.7523 19.2059 24.7523 12.3759C24.7523 5.5459 19.2023 -0.0041 12.3723 -0.0041C5.5423 -0.0041 0.0023 5.5459 0.0023 12.3759C0.0023 19.2059 5.5423 24.7459 12.3723 24.7459ZM12.3723 21.6659C7.2423 21.6659 3.0823 17.5059 3.0823 12.3759C3.0823 7.2259 7.2423 3.0859 12.3723 3.0859C17.5223 3.0859 21.6723 7.2259 21.6723 12.3759C21.6723 17.5059 17.5223 21.6659 12.3723 21.6659ZM7.9723 17.2759H16.7823C17.9723 17.2759 18.6123 16.6359 18.6123 15.4459V10.1559C18.6123 8.9659 17.9723 8.3359 16.7823 8.3359H15.7723V7.7059C15.7723 6.7859 15.1923 6.2459 14.1723 6.2459H10.5723C9.5523 6.2459 8.9623 6.7859 8.9623 7.7059V8.3359H7.9723C6.7623 8.3359 6.1323 8.9659 6.1323 10.1559V15.4459C6.1323 16.6359 6.7623 17.2759 7.9723 17.2759ZM10.2923 7.7559C10.2923 7.5459 10.4323 7.4259 10.6623 7.4259H14.0823C14.3223 7.4259 14.4623 7.5459 14.4623 7.7559V8.3359H10.2923ZM9.7023 13.2259V12.4259C9.7023 12.0559 9.9523 11.8159 10.3123 11.8159H11.3523V10.7859C11.3523 10.4059 11.6023 10.1759 11.9723 10.1759H12.7723C13.1323 10.1759 13.3923 10.4059 13.3923 10.7859V11.8159H14.4223C14.8023 11.8159 15.0423 12.0559 15.0423 12.4259V13.2259C15.0423 13.6059 14.8023 13.8559 14.4223 13.8559H13.3923V14.8859C13.3923 15.2559 13.1323 15.4959 12.7723 15.4959H11.9723C11.6023 15.4959 11.3523 15.2559 11.3523 14.8859V13.8559H10.3123C9.9523 13.8559 9.7023 13.6059 9.7023 13.2259Z" />
        </svg>
    