
        <svg xmlns="http://www.w3.org/2000/svg" viewBox="0 0 100 100">
            <path d="M4.3217 25.242H25.2417C28.0217 25.242 29.5617 23.692 29.5617 20.932V9.232C29.5617 6.472 28.0217 4.922 25.2417 4.922H21.5517V3.402C21.5517 1.132 20.2217 0.002 17.7517 0.002H11.7917C9.3517 0.002 8.0117 1.132 8.0117 3.402V4.922H4.3217C1.5517 4.922 0.0017 6.472 0.0017 9.232V20.932C0.0017 23.692 1.5517 25.242 4.3217 25.242ZM11.1417 3.822C11.1417 3.132 11.5117 2.782 12.1917 2.782H17.3817C18.0617 2.782 18.4317 3.142 18.4317 3.822V4.922H11.1417ZM8.9417 15.812V14.332C8.9417 13.432 9.5517 12.822 10.4517 12.822H12.5417V10.742C12.5417 9.832 13.1517 9.232 14.0517 9.232H15.5317C16.4317 9.232 17.0417 9.832 17.0417 10.742V12.822H19.1217C20.0317 12.822 20.6417 13.432 20.6417 14.332V15.812C20.6417 16.712 20.0317 17.322 19.1217 17.322H17.0417V19.402C17.0417 20.322 16.4317 20.922 15.5317 20.922H14.0517C13.1517 20.922 12.5417 20.322 12.5417 19.402V17.322H10.4517C9.5517 17.322 8.9417 16.712 8.9417 15.812Z" />
        </svg>
    