
        <svg xmlns="http://www.w3.org/2000/svg" viewBox="0 0 100 100">
            <path d="M2.7617 21.5839H22.6917C24.5417 21.5839 25.4517 20.6839 25.4517 18.8339V6.9339C25.4517 5.0839 24.5417 4.1939 22.6917 4.1939H18.1317V2.1239C18.1317 0.7839 17.2717 0.0039 15.8217 0.0039H9.6217C8.1817 0.0039 7.3217 0.7839 7.3217 2.1239V4.1939H2.7617C0.9217 4.1939 0.0017 5.0839 0.0017 6.9339V18.8339C0.0017 20.6839 0.9217 21.5839 2.7617 21.5839ZM7.9017 2.1239C7.9017 1.1439 8.5317 0.5739 9.6017 0.5739H15.8417C16.9317 0.5739 17.5517 1.1439 17.5517 2.1239V4.1939H7.9017ZM7.7317 13.7339V11.9639C7.7317 11.4039 8.1117 11.0139 8.6817 11.0139H10.9017V8.7939C10.9017 8.2239 11.2817 7.8439 11.8617 7.8439H13.6217C14.1917 7.8439 14.5617 8.2239 14.5617 8.7939V11.0139H16.7917C17.3517 11.0139 17.7417 11.4039 17.7417 11.9639V13.7339C17.7417 14.2939 17.3517 14.6839 16.7917 14.6839H14.5617V16.8939C14.5617 17.4739 14.1917 17.8639 13.6217 17.8639H11.8617C11.2817 17.8639 10.9017 17.4739 10.9017 16.8939V14.6839H8.6817C8.1117 14.6839 7.7317 14.2939 7.7317 13.7339Z" />
        </svg>
    