
        <svg xmlns="http://www.w3.org/2000/svg" viewBox="0 0 100 100">
            <path d="M4.5517 26.0188H25.7817C28.6617 26.0188 30.3117 24.3588 30.3117 21.4788V9.6888C30.3117 6.8088 28.6617 5.1588 25.7817 5.1588H22.1817V3.4488C22.1817 1.1687 20.8117 -0.0012 18.2217 -0.0012H12.0717C9.4917 -0.0012 8.1417 1.1687 8.1417 3.4488V5.1588H4.5517C1.6517 5.1588 0.0017 6.8088 0.0017 9.6888V21.4788C0.0017 24.3588 1.6517 26.0188 4.5517 26.0188ZM11.6617 4.0287C11.6617 3.4088 11.9717 3.0888 12.6017 3.0888H17.7217C18.3417 3.0888 18.6517 3.4187 18.6517 4.0287V5.1588H11.6617ZM4.9217 22.2688C4.4317 22.2688 4.1617 21.9988 4.1617 21.5088V9.6788C4.1617 9.1888 4.4317 8.9088 4.9217 8.9088H25.4017C25.8917 8.9088 26.1517 9.1888 26.1517 9.6788V21.5088C26.1517 21.9988 25.8917 22.2688 25.4017 22.2688ZM10.0217 16.1388C10.0217 16.9888 10.5917 17.5788 11.4617 17.5788H13.1717V19.2888C13.1717 20.1588 13.7417 20.7188 14.6117 20.7188H15.7117C16.5817 20.7188 17.1517 20.1588 17.1517 19.2888V17.5788H18.8717C19.7217 17.5788 20.3117 16.9888 20.3117 16.1388V15.0388C20.3117 14.1788 19.7217 13.6088 18.8717 13.6088H17.1517V11.8788C17.1517 11.0188 16.5817 10.4488 15.7117 10.4488H14.6117C13.7417 10.4488 13.1717 11.0188 13.1717 11.8788V13.6088H11.4517C10.5917 13.6088 10.0217 14.1788 10.0217 15.0388Z" />
        </svg>
    