
        <svg xmlns="http://www.w3.org/2000/svg" viewBox="0 0 100 100">
            <path d="M4.5517 30.1078H13.2117C15.9217 30.1078 17.7517 28.2378 17.7517 25.5078V12.5378C17.7517 9.8978 16.0617 8.0878 13.5517 7.9378V7.0078C15.0917 6.9678 16.0117 5.9978 16.0117 4.3778V2.5978C16.0117 0.9678 15.0517 -0.0022 13.4317 -0.0022H4.3217C2.7117 -0.0022 1.7617 0.9678 1.7617 2.5978V4.3778C1.7617 5.9978 2.6717 6.9678 4.2217 7.0078V7.9378C1.6917 8.0878 0.0017 9.8978 0.0017 12.5378V25.5078C0.0017 28.2378 1.8417 30.1078 4.5517 30.1078ZM4.4017 19.5778V18.4578C4.4017 17.7678 4.8717 17.3178 5.5617 17.3178H7.1617V15.7178C7.1617 15.0078 7.6317 14.5578 8.3117 14.5578H9.4417C10.1217 14.5578 10.5917 15.0078 10.5917 15.7178V17.3178H12.2017C12.8917 17.3178 13.3517 17.7678 13.3517 18.4578V19.5778C13.3517 20.2778 12.8917 20.7378 12.2017 20.7378H10.5917V22.3378C10.5917 23.0278 10.1217 23.4878 9.4417 23.4878H8.3117C7.6317 23.4878 7.1617 23.0278 7.1617 22.3378V20.7378H5.5617C4.8717 20.7378 4.4017 20.2778 4.4017 19.5778Z" />
        </svg>
    