
        <svg xmlns="http://www.w3.org/2000/svg" viewBox="0 0 100 100">
            <path d="M13.5323 4.6195C15.6423 4.6195 17.5623 5.3295 19.0923 6.5595C19.3323 6.7495 19.6423 6.7295 19.8623 6.4995L22.2823 4.0895C22.5423 3.8295 22.5423 3.4295 22.2623 3.1995C19.9123 1.2095 16.8523 -0.0005 13.5323 -0.0005C10.2323 -0.0005 7.1723 1.2095 4.8123 3.1995C4.5323 3.4295 4.5323 3.8295 4.7923 4.0895L7.2223 6.4995C7.4423 6.7295 7.7723 6.7395 8.0123 6.5295C9.5423 5.3295 11.4623 4.6195 13.5323 4.6195ZM0.0023 13.5395C0.0023 16.8595 1.2023 19.9295 3.2123 22.2895C3.4523 22.5795 3.8523 22.5895 4.1123 22.3195L6.5323 19.8795C6.7423 19.6495 6.7623 19.3495 6.5623 19.0995C5.3423 17.5695 4.6123 15.6295 4.6123 13.5395C4.6123 11.4495 5.3323 9.5295 6.5423 7.9995C6.7423 7.7495 6.7223 7.4295 6.5023 7.1995L4.1023 4.7895C3.8423 4.5495 3.4423 4.5195 3.2023 4.8195C1.1923 7.1695 0.0023 10.2195 0.0023 13.5395ZM27.0823 13.5395C27.0823 10.2195 25.8823 7.1695 23.8823 4.8195C23.6323 4.5195 23.2423 4.5495 22.9823 4.7895L20.5823 7.1995C20.3523 7.4295 20.3423 7.7495 20.5423 7.9995C21.7523 9.5295 22.4623 11.4495 22.4623 13.5395C22.4623 15.6295 21.7423 17.5695 20.5223 19.0995C20.3223 19.3495 20.3423 19.6495 20.5523 19.8795L22.9723 22.3195C23.2223 22.5895 23.6223 22.5795 23.8723 22.2895C25.8723 19.9295 27.0823 16.8595 27.0823 13.5395ZM13.7423 18.6395C15.5323 18.6395 17.0323 17.7095 17.4223 16.1495C17.4623 16.0295 17.4723 15.8995 17.4723 15.8195C17.4723 15.6095 17.3423 15.4595 17.1223 15.4595C16.9123 15.4595 16.7823 15.5895 16.7323 15.7995C16.4423 17.1195 15.2623 17.9095 13.8023 17.9295V16.0895C13.8023 14.8395 14.5123 13.8995 15.7423 13.8995C16.0923 13.8995 16.2523 13.9895 16.3723 13.9895C16.5323 13.9895 16.6323 13.8995 16.6323 13.7295C16.6323 13.6395 16.5723 13.5595 16.4923 13.5095C16.3223 13.3795 15.9723 13.3395 15.7523 13.3395C14.6823 13.3395 14.0323 14.0695 13.8023 14.7695H13.7823V13.6395C13.7823 13.4695 13.6923 13.3595 13.5323 13.3595C13.3723 13.3595 13.2623 13.4695 13.2623 13.6395V17.9095C11.2623 17.6495 10.3123 15.8295 10.3123 13.6495C10.3123 11.3295 11.4423 9.4295 13.7423 9.4295C15.2023 9.4295 16.3923 10.3595 16.6723 11.6495C16.7323 11.8395 16.8423 11.9795 17.0523 11.9795C17.2823 11.9795 17.4223 11.8395 17.4223 11.6095C17.4223 11.5295 17.4023 11.4095 17.3823 11.3295C16.9823 9.7695 15.4923 8.7195 13.7423 8.7195C10.9523 8.7195 9.4823 10.8495 9.4823 13.6495C9.4823 16.3895 10.8823 18.6395 13.7423 18.6395Z" />
        </svg>
    