
        <svg xmlns="http://www.w3.org/2000/svg" viewBox="0 0 100 100">
            <path d="M12.7923 25.5978C19.8723 25.5978 25.6023 19.8678 25.6023 12.7978C25.6023 5.7278 19.8723 -0.0022 12.7923 -0.0022C5.7323 -0.0022 0.0023 5.7278 0.0023 12.7978C0.0023 19.8678 5.7323 25.5978 12.7923 25.5978ZM12.7923 21.4178C8.0323 21.4178 4.1723 17.5678 4.1723 12.7978C4.1723 8.0278 8.0323 4.1678 12.7923 4.1678C17.5623 4.1678 21.4323 8.0278 21.4323 12.7978C21.4323 17.5678 17.5623 21.4178 12.7923 21.4178ZM12.9423 17.7278C14.5423 17.7278 16.2023 17.0978 16.8123 15.7478C16.8823 15.5878 16.9723 15.3178 16.9723 15.1178C16.9723 14.4278 16.4223 14.0478 15.7423 14.0478C15.1723 14.0478 14.8123 14.3478 14.5423 14.8478C14.2223 15.5078 13.8023 15.8078 13.2423 15.8778V14.8578C13.2423 14.2878 13.4523 13.8678 13.8423 13.5778C14.1323 13.3278 14.4723 13.1878 14.8723 13.1878C15.1323 13.1878 15.2223 13.2178 15.4023 13.1978C15.5823 13.1878 15.7623 13.0778 15.7523 12.8078C15.7423 12.5778 15.5023 12.4578 15.2623 12.4078C14.2923 12.2978 13.5323 12.7078 13.2623 13.5778H13.2023V12.7878C13.2023 12.5578 13.0923 12.4178 12.8823 12.4178C12.6523 12.4178 12.5123 12.5578 12.5123 12.7878V15.8278C11.3523 15.5378 11.0523 14.1078 11.0523 12.7978C11.0523 11.3878 11.5623 10.0578 13.1123 10.0578C13.7923 10.0578 14.2723 10.3278 14.5823 10.9178C14.8623 11.4578 15.1623 11.6678 15.7723 11.6678C16.3923 11.6678 16.9123 11.2978 16.9123 10.6278C16.9123 10.3278 16.7923 9.9978 16.6323 9.7278C15.8523 8.3678 14.3223 7.8878 12.8423 7.8878C10.0923 7.8878 8.2223 9.6878 8.2223 12.8078C8.2223 15.8078 9.8823 17.7278 12.9423 17.7278Z" />
        </svg>
    