
        <svg xmlns="http://www.w3.org/2000/svg" viewBox="0 0 100 100">
            <path d="M3.1617 20.742H17.5917C19.6617 20.742 20.7417 19.642 20.7417 17.592V3.152C20.7417 1.102 19.6617 0.002 17.5917 0.002H3.1617C1.0917 0.002 0.0017 1.082 0.0017 3.152V17.592C0.0017 19.662 1.0917 20.742 3.1617 20.742ZM3.1917 19.872C1.6617 19.872 0.8717 19.082 0.8717 17.552V3.202C0.8717 1.662 1.6617 0.872 3.1917 0.872H17.5517C19.0317 0.872 19.8717 1.662 19.8717 3.202V17.552C19.8717 19.082 19.0317 19.872 17.5517 19.872ZM10.5917 15.312C12.3717 15.312 13.8617 14.382 14.2617 12.832C14.3017 12.712 14.3217 12.582 14.3217 12.492C14.3217 12.292 14.1817 12.142 13.9617 12.142C13.7617 12.142 13.6217 12.262 13.5717 12.472C13.2817 13.792 12.1017 14.592 10.6517 14.612V12.762C10.6517 11.522 11.3517 10.582 12.5717 10.582C12.9417 10.582 13.0917 10.672 13.2217 10.672C13.3717 10.672 13.4617 10.572 13.4617 10.402C13.4617 10.322 13.4217 10.242 13.3317 10.182C13.1617 10.052 12.8117 10.022 12.5817 10.022C11.5217 10.022 10.8617 10.742 10.6517 11.452H10.6217V10.322C10.6217 10.152 10.5217 10.042 10.3717 10.042C10.2217 10.042 10.1117 10.152 10.1117 10.322V14.582C8.1117 14.332 7.1517 12.512 7.1517 10.322C7.1517 8.012 8.2717 6.122 10.5917 6.122C12.0517 6.122 13.2317 7.032 13.5217 8.322C13.5717 8.522 13.6717 8.652 13.9017 8.652C14.1217 8.652 14.2617 8.522 14.2617 8.282C14.2617 8.212 14.2517 8.102 14.2117 8.012C13.8117 6.452 12.3417 5.402 10.5917 5.402C7.7917 5.402 6.3117 7.532 6.3117 10.322C6.3117 13.062 7.7317 15.312 10.5917 15.312Z" />
        </svg>
    