
        <svg xmlns="http://www.w3.org/2000/svg" viewBox="0 0 100 100">
            <path d="M1.7417 22.7616H25.1917V21.8816C25.1917 21.3616 24.8917 21.0616 24.3717 21.0616H23.6917V8.3716H24.7017C25.4217 8.3716 25.8417 7.8516 25.8417 7.3116C25.8417 6.9216 25.6217 6.5716 25.1517 6.2916L14.9717 0.4216C14.4917 0.1516 13.9717 0.0016 13.4617 0.0016C12.9617 0.0016 12.4217 0.1516 11.9517 0.4216L1.7817 6.2916C1.3017 6.5716 1.0917 6.9216 1.0917 7.3116C1.0917 7.8516 1.5117 8.3716 2.2217 8.3716H3.2417V21.0616H2.5617C2.0517 21.0616 1.7417 21.3616 1.7417 21.8816ZM5.1917 21.0616V6.8016L13.0517 2.4016C13.1817 2.3316 13.3317 2.2816 13.4617 2.2816C13.6017 2.2816 13.7417 2.3316 13.8717 2.4016L21.7517 6.8016V21.0616ZM13.5317 17.9216C15.2817 17.9216 16.9117 17.0816 17.4517 15.5816C17.5217 15.4116 17.5517 15.2316 17.5517 15.0516C17.5517 14.6216 17.2517 14.3816 16.8117 14.3816C16.4217 14.3816 16.1917 14.5916 16.0517 14.9516C15.6917 16.0216 14.7517 16.5616 13.7217 16.6016V14.9916C13.7217 13.9816 14.4017 13.2816 15.3717 13.2316C15.5717 13.1816 15.7717 13.1916 15.9217 13.1916C16.1717 13.1916 16.3217 13.1116 16.3517 12.8816C16.3817 12.7516 16.3517 12.6216 16.2217 12.4916C16.1017 12.3616 15.8317 12.3116 15.6117 12.3016C14.7117 12.2816 13.9717 12.8216 13.7317 13.5916H13.7017V12.7216C13.7017 12.4816 13.5517 12.3116 13.3217 12.3116C13.0917 12.3116 12.9217 12.4816 12.9217 12.7216V16.5516C11.3117 16.2116 10.6017 14.5216 10.6017 12.7116C10.6017 10.7116 11.5417 8.9316 13.5717 8.9316C14.7117 8.9316 15.6717 9.5616 16.0117 10.5616C16.1617 10.9416 16.3617 11.1316 16.7417 11.1316C17.1517 11.1316 17.4717 10.8616 17.4717 10.4516C17.4717 10.2916 17.4217 10.0516 17.3417 9.8716C16.7417 8.3816 15.2117 7.5516 13.5117 7.5516C10.6417 7.5516 8.9317 9.6816 8.9317 12.7216C8.9317 15.6516 10.5017 17.9216 13.5317 17.9216ZM1.0617 25.7816H25.8017C26.3817 25.7816 26.8717 25.3016 26.8717 24.7116C26.8717 24.1416 26.3817 23.6616 25.8017 23.6616H1.0617C0.4817 23.6616 0.0017 24.1416 0.0017 24.7116C0.0017 25.3016 0.4817 25.7816 1.0617 25.7816Z" />
        </svg>
    