
        <svg xmlns="http://www.w3.org/2000/svg" viewBox="0 0 100 100">
            <path d="M0.8706 9.7864C-0.0094 9.7864 -0.2294 10.4364 0.2506 11.0964L2.9706 14.8864C3.3406 15.4064 3.9306 15.3964 4.3006 14.8864L7.0206 11.0864C7.4906 10.4364 7.2706 9.7864 6.4006 9.7864H4.8206C5.8606 5.5264 9.6806 2.3764 14.2606 2.3764C19.6306 2.3764 23.9806 6.7264 23.9806 12.1064C23.9806 17.4864 19.6306 21.8164 14.2606 21.8164C11.1206 21.8164 8.3506 20.3364 6.5906 18.0264C6.1206 17.4764 5.4406 17.2964 4.8606 17.7064C4.3306 18.0964 4.2206 18.8564 4.7206 19.4764C6.8606 22.3464 10.4506 24.2064 14.2606 24.2064C20.9406 24.2064 26.3706 18.7864 26.3706 12.1064C26.3706 5.4264 20.9406 -0.0036 14.2606 -0.0036C8.3706 -0.0036 3.4606 4.2064 2.3806 9.7864ZM14.3206 17.3164C16.0706 17.3164 17.7006 16.4964 18.2406 14.9864C18.3206 14.8264 18.3406 14.6464 18.3406 14.4564C18.3406 14.0264 18.0406 13.7964 17.6006 13.7964C17.2006 13.7964 16.9806 14.0064 16.8406 14.3664C16.4806 15.4364 15.5506 15.9764 14.5106 16.0164V14.4064C14.5106 13.3864 15.1906 12.6864 16.1606 12.6464C16.3606 12.5964 16.5706 12.6064 16.7206 12.6064C16.9606 12.6064 17.1106 12.5264 17.1506 12.2964C17.1806 12.1664 17.1506 12.0264 17.0206 11.9064C16.8906 11.7764 16.6206 11.7164 16.4106 11.7164C15.4906 11.6964 14.7706 12.2364 14.5206 12.9964H14.4906V12.1364C14.4906 11.8964 14.3306 11.7264 14.1106 11.7264C13.8806 11.7264 13.7206 11.8964 13.7206 12.1364V15.9564C12.1006 15.6164 11.4006 13.9264 11.4006 12.1264C11.4006 10.1264 12.3306 8.3464 14.3706 8.3464C15.4906 8.3464 16.4506 8.9664 16.7906 9.9764C16.9506 10.3464 17.1506 10.5464 17.5306 10.5464C17.9406 10.5464 18.2606 10.2764 18.2606 9.8664C18.2606 9.7064 18.2206 9.4664 18.1306 9.2764C17.5306 7.7964 16.0006 6.9564 14.3106 6.9564C11.4406 6.9564 9.7206 9.0864 9.7206 12.1364C9.7206 15.0564 11.2906 17.3164 14.3206 17.3164Z" />
        </svg>
    