
        <svg xmlns="http://www.w3.org/2000/svg" viewBox="0 0 100 100">
            <path d="M13.8623 4.8473C15.9723 4.8473 17.9223 5.5773 19.4523 6.7973C19.7023 6.9873 20.0023 6.9573 20.2223 6.7373L22.8123 4.1573C23.0823 3.8873 23.0723 3.5073 22.7923 3.2573C20.3823 1.2273 17.2623 -0.0027 13.8623 -0.0027C10.4723 -0.0027 7.3523 1.2273 4.9423 3.2573C4.6523 3.5073 4.6523 3.8873 4.9223 4.1573L7.5123 6.7373C7.7323 6.9573 8.0523 6.9873 8.3123 6.7773C9.8423 5.5773 11.7823 4.8473 13.8623 4.8473ZM0.0023 13.8773C0.0023 17.2773 1.2323 20.4073 3.2723 22.8173C3.5123 23.0973 3.9023 23.1073 4.1723 22.8373L6.7923 20.2073C6.9823 19.9873 7.0123 19.7273 6.8323 19.4973C5.5823 17.9073 4.8523 15.9773 4.8523 13.8773C4.8523 11.7673 5.5623 9.8473 6.7823 8.3073C6.9723 8.0473 6.9723 7.7373 6.7423 7.5073L4.1623 4.9173C3.9023 4.6673 3.5023 4.6473 3.2723 4.9473C1.2223 7.3573 0.0023 10.4773 0.0023 13.8773ZM27.7423 13.8773C27.7423 10.4773 26.5123 7.3573 24.4723 4.9473C24.2323 4.6473 23.8323 4.6673 23.5623 4.9173L20.9923 7.5073C20.7623 7.7373 20.7523 8.0473 20.9523 8.3073C22.1623 9.8473 22.8823 11.7673 22.8823 13.8773C22.8823 15.9773 22.1623 17.9073 20.9023 19.4973C20.7323 19.7273 20.7423 19.9873 20.9423 20.2073L23.5623 22.8373C23.8223 23.1073 24.2223 23.0973 24.4523 22.8173C26.5123 20.4073 27.7423 17.2773 27.7423 13.8773ZM13.9823 19.1573C15.7523 19.1573 17.3223 18.2673 17.7923 16.7273C17.8523 16.5673 17.8623 16.4273 17.8623 16.2873C17.8623 15.9873 17.6723 15.7973 17.3523 15.7973C17.0623 15.7973 16.9023 15.9573 16.8023 16.2373C16.4723 17.4773 15.3623 18.1373 14.0823 18.1873V16.3973C14.0823 15.2273 14.8323 14.3873 15.9923 14.3873C16.2523 14.3873 16.4223 14.4473 16.5223 14.4473C16.7323 14.4473 16.8623 14.3473 16.8623 14.1173C16.8623 13.9873 16.7923 13.8773 16.6723 13.8073C16.5123 13.6873 16.2023 13.6373 15.9823 13.6373C15.0223 13.6373 14.3223 14.2873 14.1023 15.0073H14.0623V14.0273C14.0623 13.8173 13.9323 13.6673 13.7423 13.6673C13.5323 13.6673 13.4023 13.8173 13.4023 14.0273V18.1373C11.5523 17.8373 10.7023 16.0473 10.7023 14.0273C10.7023 11.8173 11.7623 9.9273 13.9823 9.9273C15.3023 9.9273 16.4323 10.7273 16.7423 11.8973C16.8423 12.1773 16.9823 12.3373 17.2723 12.3373C17.5823 12.3373 17.8023 12.1373 17.8023 11.8373C17.8023 11.7273 17.7823 11.5673 17.7223 11.4273C17.2223 9.8973 15.7123 8.9173 13.9823 8.9173C11.1223 8.9173 9.5323 11.0973 9.5323 14.0273C9.5323 16.8673 11.0123 19.1573 13.9823 19.1573Z" />
        </svg>
    