
        <svg xmlns="http://www.w3.org/2000/svg" viewBox="0 0 100 100">
            <path d="M1.4417 28.2972H27.6817C28.4517 28.2972 29.1317 27.6672 29.1317 26.8572C29.1317 26.0772 28.4517 25.4172 27.6817 25.4172H27.0917V24.3172C27.0917 23.6672 26.6817 23.2772 26.0517 23.2772H25.5917V9.4672H26.5317C27.4917 9.4672 28.0517 8.7572 28.0517 8.0372C28.0517 7.5072 27.7617 7.0272 27.1517 6.6672L16.4617 0.5072C15.9217 0.1972 15.2917 -0.0028 14.7117 -0.0028C14.1217 -0.0028 13.4917 0.1972 12.9517 0.5072L2.2617 6.6672C1.6517 7.0272 1.3617 7.5072 1.3617 8.0372C1.3617 8.7572 1.9217 9.4672 2.8917 9.4672H3.8317V23.2772H3.3717C2.7317 23.2772 2.3317 23.6672 2.3317 24.3172V25.4172H1.4417C0.6717 25.4172 0.0017 26.0772 0.0017 26.8572C0.0017 27.6572 0.6717 28.2972 1.4417 28.2972ZM14.8617 20.8972C11.6017 20.8972 9.8517 18.7372 9.8517 15.5772C9.8517 12.2572 11.8017 10.2272 14.7617 10.2272C16.4017 10.2272 18.0617 10.8672 18.8317 12.3372C18.9817 12.6072 19.0917 12.9272 19.0917 13.2072C19.0917 13.8472 18.6017 14.2172 17.9917 14.2172C17.4117 14.2172 17.1117 14.0072 16.8417 13.4772C16.5117 12.7272 15.8517 12.3272 15.0017 12.3272C13.2217 12.3272 12.5417 13.8872 12.5417 15.5672C12.5417 17.0972 12.9717 18.7072 14.3517 19.0272V15.5472C14.3517 15.3072 14.4917 15.1572 14.7417 15.1572C14.9717 15.1572 15.1017 15.3072 15.1017 15.5472V16.4172H15.1717C15.4417 15.5172 16.2417 15.0372 17.2617 15.1272C17.5217 15.1772 17.7617 15.2772 17.8117 15.5072C17.8617 15.7472 17.7417 15.8572 17.5917 15.9172C17.4417 15.9972 17.3217 15.9972 17.0517 15.9972C16.7117 15.9972 16.3817 16.0972 16.0917 16.3172C15.5017 16.5472 15.1417 17.0772 15.1417 17.8172V19.0772C15.8817 19.0072 16.4917 18.6072 16.8417 17.7972C17.0817 17.3072 17.4417 17.0272 17.9917 17.0272C18.6417 17.0272 19.1517 17.3772 19.1517 18.0372C19.1517 18.2572 19.0817 18.4872 19.0117 18.6772C18.3917 20.1672 16.6217 20.8972 14.8617 20.8972Z" />
        </svg>
    