
        <svg xmlns="http://www.w3.org/2000/svg" viewBox="0 0 100 100">
            <path d="M11.4517 12.2023L22.3517 6.1023C22.1717 5.8923 21.9617 5.7023 21.7117 5.5623L12.6517 0.3323C11.8917 -0.1077 11.0117 -0.1077 10.2517 0.3323L1.1917 5.5623C0.9517 5.7023 0.7417 5.8923 0.5617 6.1123ZM12.2417 13.6123V25.5923C12.3917 25.5423 12.5117 25.4823 12.6517 25.4023L21.7117 20.1623C22.4617 19.7323 22.9117 18.9623 22.9117 18.0923V7.6323ZM10.6517 13.6123L0.0117 7.6423C0.0017 7.6923 0.0017 7.7523 0.0017 7.8123V18.0923C0.0017 18.9623 0.4417 19.7323 1.1917 20.1623L10.2517 25.4023C10.3917 25.4823 10.5117 25.5423 10.6517 25.5923Z" />
        </svg>
    