
        <svg xmlns="http://www.w3.org/2000/svg" viewBox="0 0 100 100">
            <path d="M12.8517 13.2347L24.6717 6.3847C24.4417 6.1647 24.2017 5.9647 23.9217 5.8047L14.8017 0.5247C13.6017 -0.1753 12.2017 -0.1753 11.0017 0.5247L1.8917 5.8047C1.5917 5.9747 1.3117 6.1747 1.0817 6.4147ZM14.1217 15.1947V28.4847C14.3817 28.3947 14.6117 28.2747 14.8617 28.1347L23.9617 22.8747C25.0917 22.2347 25.8017 20.9647 25.8017 19.5947V9.0947C25.8017 8.8947 25.7717 8.6647 25.7417 8.4647ZM11.7417 15.2847L0.0517 8.5147C0.0117 8.7147 0.0017 8.9047 0.0017 9.1047V19.6047C0.0017 20.9847 0.7117 22.2147 1.8917 22.8847L11.0017 28.1447C11.2417 28.2847 11.4817 28.4047 11.7417 28.5047Z" />
        </svg>
    