
        <svg xmlns="http://www.w3.org/2000/svg" viewBox="0 0 100 100">
            <path d="M1.7617 22.3764L10.8617 27.6364C11.9717 28.2964 13.2817 28.2964 14.4017 27.6364L23.5117 22.3764C24.6017 21.7564 25.2617 20.6064 25.2617 19.3264V8.8064C25.2617 7.5164 24.6017 6.3764 23.5117 5.7464L14.4017 0.4864C13.2817 -0.1636 11.9717 -0.1636 10.8617 0.4864L1.7617 5.7464C0.6717 6.3764 0.0017 7.5164 0.0017 8.8064V19.3264C0.0017 20.6064 0.6717 21.7564 1.7617 22.3764ZM12.5717 12.2964L5.0317 7.9464C5.0817 7.8964 5.1217 7.8864 5.2017 7.8264L12.0617 3.8664C12.4217 3.6564 12.8417 3.6564 13.2117 3.8664L20.0617 7.8264C20.1417 7.8864 20.1517 7.8864 20.1917 7.9164ZM14.3917 23.5664V15.3164L21.7517 11.0964V18.6464C21.7517 19.0664 21.5317 19.4364 21.1617 19.6464L14.8117 23.3264C14.6517 23.4164 14.5517 23.4764 14.3917 23.5664ZM10.8717 23.5664C10.7717 23.4964 10.7417 23.4864 10.6417 23.4264L4.0917 19.6464C3.7417 19.4364 3.5117 19.0664 3.5117 18.6464V11.1564L10.8717 15.3864Z" />
        </svg>
    