
        <svg xmlns="http://www.w3.org/2000/svg" viewBox="0 0 100 100">
            <path d="M1.4417 21.1225L10.5217 26.3925C11.4417 26.9225 12.4917 26.9225 13.4017 26.3925L22.5017 21.1225C23.4017 20.6125 23.9317 19.6925 23.9317 18.6425V8.1425C23.9317 7.0825 23.4017 6.1725 22.5017 5.6425L13.4017 0.3925C12.4917 -0.1275 11.4417 -0.1275 10.5217 0.3925L1.4417 5.6425C0.5417 6.1725 0.0017 7.0825 0.0017 8.1425V18.6425C0.0017 19.6925 0.5417 20.6125 1.4417 21.1225ZM11.9517 12.4425L3.0717 7.3725C3.1317 7.3125 3.1617 7.2825 3.2617 7.2225L11.3117 2.5725C11.7217 2.3325 12.2117 2.3325 12.6317 2.5725L20.6717 7.2225C20.7617 7.2825 20.8017 7.3125 20.8517 7.3725ZM13.1017 23.9225V14.4325L21.6517 9.5625V18.2225C21.6517 18.7025 21.4217 19.1225 21.0017 19.3525L13.3917 23.7625C13.2617 23.8325 13.2317 23.8525 13.1017 23.9225ZM10.8317 23.9225C10.7417 23.8825 10.7217 23.8725 10.6317 23.8125L2.9317 19.3525C2.5217 19.1225 2.2717 18.7025 2.2717 18.2225V9.5725L10.8317 14.4425Z" />
        </svg>
    