
        <svg xmlns="http://www.w3.org/2000/svg" viewBox="0 0 100 100">
            <path d="M0.0017 16.5381C0.0017 20.2181 6.3317 22.7481 15.2217 22.7481C24.1317 22.7481 30.4417 20.2181 30.4417 16.5381C30.4417 14.8081 29.0717 13.3381 26.6817 12.2581C28.6917 11.8981 29.8517 10.5681 29.8517 8.5781C29.8517 6.3481 28.3617 4.9481 25.8917 4.8281C25.8917 1.9581 21.5817 -0.0019 15.2217 -0.0019C8.8617 -0.0019 4.5617 1.9581 4.5617 4.8381V7.2881C4.5617 8.8781 4.8417 10.3481 5.3517 11.6481C1.9917 12.7481 0.0017 14.4581 0.0017 16.5381ZM15.2217 7.7781C10.1717 7.7781 6.4417 6.5081 6.4417 4.8381C6.4417 3.1781 10.1717 1.8881 15.2217 1.8881C20.2717 1.8881 24.0017 3.1781 24.0017 4.8381C24.0017 6.5081 20.2717 7.7781 15.2217 7.7781ZM25.8917 7.2881V6.7181C27.2017 6.8181 27.9617 7.4981 27.9617 8.5781C27.9617 9.7481 27.0617 10.4681 25.5317 10.4681H25.4717C25.7417 9.4781 25.8917 8.4181 25.8917 7.2881ZM15.2217 9.6681C19.0517 9.6681 22.1417 8.9681 23.9917 7.7681C23.7917 12.5581 20.6117 15.7981 15.7617 15.7981H14.6717C9.8117 15.7981 6.6517 12.5881 6.4617 7.7681C8.3117 8.9681 11.3917 9.6681 15.2217 9.6681ZM1.8117 16.5381C1.8117 15.3081 3.4617 14.1481 6.2017 13.3081C7.9217 16.0281 10.9217 17.6881 14.6717 17.6881H15.7617C19.5117 17.6881 22.5117 16.0281 24.2317 13.3081C26.9717 14.1481 28.6317 15.3181 28.6317 16.5381C28.6317 18.8181 22.7917 20.9281 15.2217 20.9281C7.6517 20.9281 1.8117 18.8181 1.8117 16.5381Z" />
        </svg>
    