
        <svg xmlns="http://www.w3.org/2000/svg" viewBox="0 0 100 100">
            <path d="M3.0117 20.5048H17.4917C19.4517 20.5048 20.5117 19.4248 20.5117 17.4948V3.0148C20.5117 1.0748 19.4517 0.0048 17.4917 0.0048H3.0117C1.0417 0.0048 0.0017 1.0448 0.0017 3.0148V17.4948C0.0017 19.4648 1.0417 20.5048 3.0117 20.5048ZM8.0317 16.5048C6.7617 16.5048 5.9917 15.8248 5.9917 14.3548V12.2948C5.9917 11.2248 5.6617 10.9148 4.7617 10.6448C4.4017 10.5448 4.3917 9.9648 4.7617 9.8548C5.6617 9.6048 5.9917 9.2648 5.9917 8.2048V6.1548C5.9917 4.6848 6.7617 4.0048 8.0317 4.0048C8.1817 4.0048 8.3117 4.1348 8.3117 4.2848C8.3117 4.4548 8.1817 4.5848 8.0317 4.5848C7.1717 4.5848 6.5617 5.0048 6.5617 6.3148V8.3748C6.5617 9.3848 6.0517 10.1448 5.2717 10.2548C6.0517 10.3548 6.5617 11.1048 6.5617 12.1148V14.1948C6.5617 15.5048 7.1717 15.9148 8.0317 15.9148C8.1817 15.9148 8.3117 16.0548 8.3117 16.2048C8.3117 16.3748 8.1817 16.5048 8.0317 16.5048ZM12.4417 16.5048C12.2917 16.5048 12.1617 16.3748 12.1617 16.2048C12.1617 16.0548 12.2917 15.9148 12.4617 15.9148C13.3117 15.9148 13.9117 15.5048 13.9117 14.1948V12.1148C13.9117 11.1048 14.4417 10.3548 15.2117 10.2548C14.4417 10.1448 13.9117 9.3848 13.9117 8.3748V6.3148C13.9117 5.0048 13.3117 4.5848 12.4617 4.5848C12.2917 4.5848 12.1617 4.4548 12.1617 4.2848C12.1617 4.1348 12.2917 4.0048 12.4417 4.0048C13.7117 4.0048 14.4817 4.6848 14.4817 6.1548V8.2048C14.4817 9.2648 14.8317 9.5748 15.7217 9.8548C16.0817 9.9748 16.0617 10.5548 15.7217 10.6448C14.8217 10.8848 14.4817 11.2248 14.4817 12.2948V14.3548C14.4817 15.8248 13.7117 16.5048 12.4417 16.5048ZM15.4017 10.2448C15.3417 10.2448 15.2717 10.2448 15.2117 10.2548C15.2717 10.2648 15.3417 10.2648 15.4017 10.2648ZM5.0717 10.2448V10.2648C5.1417 10.2648 5.2017 10.2648 5.2717 10.2548C5.2017 10.2448 5.1417 10.2448 5.0717 10.2448Z" />
        </svg>
    