
        <svg xmlns="http://www.w3.org/2000/svg" viewBox="0 0 100 100">
            <path d="M5.6417 25.5814H7.8517C8.4617 25.5814 8.8817 25.1514 8.8817 24.5314V3.6214H21.6717V24.5314C21.6717 25.1514 22.1017 25.5814 22.7017 25.5814H24.9217C25.5317 25.5814 25.9717 25.1514 25.9717 24.5314V3.6214H26.8717C27.2317 4.1014 27.8217 4.4214 28.4617 4.4214C29.6117 4.4214 30.5617 3.4714 30.5617 2.3214C30.5617 1.1714 29.6117 0.2214 28.4617 0.2214C27.8217 0.2214 27.2317 0.5414 26.8717 1.0114H25.9717C25.9717 0.4314 25.5317 0.0014 24.9217 0.0014H22.7017C22.1117 0.0014 21.6917 0.4214 21.6717 1.0114H8.8817C8.8817 0.4314 8.4617 0.0014 7.8517 0.0014H5.6217C5.0417 0.0014 4.6017 0.4214 4.5917 1.0114H3.6817C3.3317 0.5414 2.7417 0.2214 2.1017 0.2214C0.9517 0.2214 0.0017 1.1714 0.0017 2.3214C0.0017 3.4714 0.9517 4.4214 2.1017 4.4214C2.7417 4.4214 3.3417 4.1014 3.6917 3.6214H4.5917V24.5314C4.5917 25.1514 5.0317 25.5814 5.6417 25.5814Z" />
        </svg>
    