
        <svg xmlns="http://www.w3.org/2000/svg" viewBox="0 0 100 100">
            <path d="M0.5717 3.7844C0.5717 5.5444 4.1717 7.0044 9.1917 7.0044C14.1917 7.0044 17.7917 5.5444 17.7917 3.7844C17.7917 2.0344 14.3417 0.5744 9.1917 0.5744C4.0217 0.5744 0.5717 2.0344 0.5717 3.7844ZM9.1917 14.4844C5.4217 14.4844 2.1217 13.5844 0.0017 11.8344V3.7844C0.0017 1.6944 3.6717 0.0044 9.1917 0.0044C14.6917 0.0044 18.3617 1.6944 18.3617 3.7844V11.8344C16.2417 13.5844 12.9417 14.4844 9.1917 14.4844ZM0.0017 18.4144V12.4844C1.9217 14.1844 5.2217 15.0744 9.1917 15.0744C13.1417 15.0744 16.4517 14.1844 18.3617 12.4844V18.4144C18.3617 20.4944 14.5417 22.5444 9.1917 22.5444C3.8217 22.5444 0.0017 20.4944 0.0017 18.4144Z" />
        </svg>
    