
        <svg xmlns="http://www.w3.org/2000/svg" viewBox="0 0 100 100">
            <path d="M11.9523 23.9041C18.5523 23.9041 23.9023 18.5341 23.9023 11.9541C23.9023 5.3541 18.5523 0.0041 11.9523 0.0041C5.3623 0.0041 0.0023 5.3541 0.0023 11.9541C0.0023 18.5341 5.3623 23.9041 11.9523 23.9041ZM8.7923 17.3441C8.1723 17.3441 7.8423 16.9141 7.8423 16.2541V7.4341C7.8423 6.7741 8.1723 6.3441 8.7923 6.3441H11.8723C15.3423 6.3441 17.2523 8.2841 17.2523 11.8141C17.2523 15.3841 15.3023 17.3441 11.8723 17.3441ZM9.7123 15.8441H11.6623C14.0323 15.8441 15.3023 14.5041 15.3023 11.8441C15.3023 9.2441 14.0123 7.8441 11.6623 7.8441H9.7123Z" />
        </svg>
    