
        <svg xmlns="http://www.w3.org/2000/svg" viewBox="0 0 100 100">
            <path d="M11.4923 22.977C17.8123 22.977 22.9823 17.827 22.9823 11.497C22.9823 5.167 17.8123 -0.003 11.4923 -0.003C5.1723 -0.003 0.0023 5.167 0.0023 11.497C0.0023 17.827 5.1723 22.977 11.4923 22.977ZM8.1823 16.727C7.9023 16.727 7.7423 16.527 7.7423 16.217V6.747C7.7423 6.447 7.9023 6.247 8.1823 6.247H11.2823C14.3123 6.247 16.1523 8.217 16.1523 11.437C16.1523 14.827 14.3123 16.727 11.2823 16.727ZM8.6523 15.927H11.1823C13.6423 15.927 15.1723 14.417 15.1723 11.457C15.1723 8.667 13.6123 7.047 11.1823 7.047H8.6523Z" />
        </svg>
    