
        <svg xmlns="http://www.w3.org/2000/svg" viewBox="0 0 100 100">
            <path d="M3.6817 21.5722H17.8917C20.3517 21.5722 21.5717 20.3722 21.5717 17.9522V3.6322C21.5717 1.2222 20.3517 0.0022 17.8917 0.0022H3.6817C1.2317 0.0022 0.0017 1.2222 0.0017 3.6322V17.9522C0.0017 20.3722 1.2317 21.5722 3.6817 21.5722ZM7.6317 16.1722C7.0117 16.1722 6.6817 15.7422 6.6817 15.0822V6.2622C6.6817 5.6022 7.0117 5.1722 7.6317 5.1722H10.7117C14.1817 5.1722 16.0917 7.1122 16.0917 10.6422C16.0917 14.2122 14.1417 16.1722 10.7117 16.1722ZM8.5517 14.6722H10.5017C12.8717 14.6722 14.1417 13.3322 14.1417 10.6722C14.1417 8.0722 12.8517 6.6722 10.5017 6.6722H8.5517Z" />
        </svg>
    