
        <svg xmlns="http://www.w3.org/2000/svg" viewBox="0 0 100 100">
            <path d="M28.2323 14.0493C28.2323 6.6693 22.5623 0.6093 15.3423 -0.0007C14.9623 -0.0307 14.6823 0.2393 14.6823 0.6093V4.4493C14.6823 4.7593 14.9023 5.0093 15.2223 5.0293C19.7123 5.5793 23.2023 9.4093 23.2023 14.0493C23.2023 16.1593 22.4723 18.1093 21.2023 19.7393C21.0323 19.9393 21.0423 20.1993 21.2223 20.3793L24.0223 23.1693C24.2823 23.4293 24.6823 23.4293 24.9123 23.1493C26.9923 20.6893 28.2323 17.5093 28.2323 14.0493ZM0.0023 14.0493C0.0023 17.5193 1.2423 20.6993 3.3123 23.1593C3.5523 23.4393 3.9423 23.4293 4.2023 23.1693L7.0123 20.3793C7.1823 20.1993 7.1923 19.9393 7.0323 19.7393C5.7423 18.1093 5.0323 16.1593 5.0323 14.0493C5.0323 9.4093 8.5223 5.5793 13.0123 5.0293C13.3223 5.0093 13.5423 4.7593 13.5423 4.4493V0.6093C13.5423 0.2393 13.2623 -0.0307 12.8923 -0.0007C5.6723 0.6093 0.0023 6.6693 0.0023 14.0493ZM9.6823 19.0093C10.0523 19.0093 10.3123 18.7393 10.3123 18.3293V16.3493L11.0023 15.6793L13.1523 18.6793C13.2923 18.8793 13.4723 19.0093 13.7223 19.0093C14.0623 19.0093 14.3423 18.7693 14.3423 18.4393C14.3423 18.2693 14.2623 18.1293 14.1523 17.9793L11.9223 14.8893L14.0023 12.6993C14.1523 12.5193 14.2423 12.4293 14.2423 12.2293C14.2423 11.9193 13.9923 11.6593 13.6623 11.6593C13.4923 11.6593 13.2823 11.7793 13.1623 11.9093L10.3523 14.9893H10.3123V9.5893C10.3123 9.1793 10.0523 8.8993 9.6823 8.8993C9.2923 8.8993 9.0223 9.1693 9.0223 9.5793V18.3293C9.0223 18.7393 9.2923 19.0093 9.6823 19.0093ZM16.2823 19.0093C16.5723 19.0093 16.9023 18.8393 16.9023 18.3293V14.6593C16.9023 13.8193 17.2123 12.9093 18.2223 12.9093C18.4523 12.9093 18.6923 12.8693 18.8623 12.7693C19.0223 12.6793 19.1123 12.5393 19.1123 12.3293C19.1123 11.8993 18.7823 11.6593 18.3523 11.6593C17.6023 11.6593 17.0823 12.3193 16.9123 13.0693H16.8423V12.3193C16.8423 11.9493 16.5823 11.6593 16.2523 11.6593C15.9123 11.6593 15.6523 11.9493 15.6523 12.3193V18.3293C15.6523 18.7393 15.8823 19.0093 16.2823 19.0093ZM19.4523 18.8693C19.9323 18.8693 20.2823 18.5293 20.2823 18.0493C20.2823 17.5693 19.9323 17.2193 19.4523 17.2193C18.9623 17.2193 18.6223 17.5693 18.6223 18.0493C18.6223 18.5293 18.9623 18.8693 19.4523 18.8693Z" />
        </svg>
    