
        <svg xmlns="http://www.w3.org/2000/svg" viewBox="0 0 100 100">
            <path d="M0.3912 9.4064C0.0212 9.4064 -0.1188 9.6764 0.1212 10.0264L2.5512 13.4964C2.7512 13.7964 3.0212 13.7964 3.2212 13.4964L5.6412 10.0264C5.8912 9.6764 5.7512 9.4064 5.3712 9.4064H2.9512C3.8612 4.3864 8.2712 0.5764 13.5612 0.5764C19.5312 0.5764 24.3412 5.3864 24.3412 11.3564C24.3412 17.3164 19.5312 22.1364 13.5612 22.1364C9.5612 22.1364 5.9812 19.9064 4.1912 16.6864C4.1112 16.5464 3.9312 16.4964 3.7912 16.5664C3.6612 16.6364 3.6112 16.8064 3.7012 16.9664C5.5812 20.3564 9.3112 22.7064 13.5612 22.7064C19.8312 22.7064 24.9212 17.6264 24.9212 11.3564C24.9212 5.0764 19.8312 -0.0036 13.5612 -0.0036C7.9512 -0.0036 3.2912 4.0664 2.3712 9.4064ZM9.4712 16.4364C9.6512 16.4364 9.7712 16.3164 9.7712 16.1264V13.4064L10.6112 12.5264L13.2812 16.3264C13.3412 16.4064 13.4212 16.4364 13.5212 16.4364C13.6712 16.4364 13.7912 16.3464 13.7912 16.1864C13.7912 16.1264 13.7712 16.0564 13.7212 15.9764L11.0212 12.1564L13.6112 9.3064C13.6712 9.2364 13.7012 9.1864 13.7012 9.1064C13.7012 8.9764 13.5912 8.8564 13.4312 8.8564C13.3612 8.8564 13.2912 8.8864 13.2412 8.9564L9.8212 12.7364H9.7712V6.2364C9.7712 6.0364 9.6512 5.9064 9.4712 5.9064C9.3012 5.9064 9.1812 6.0364 9.1812 6.2364V16.1264C9.1812 16.3164 9.3012 16.4364 9.4712 16.4364ZM15.6712 16.4364C15.8512 16.4364 15.9512 16.3264 15.9512 16.1264V11.7564C15.9512 10.7664 16.3512 9.4364 17.5212 9.4364C17.6812 9.4364 17.8212 9.4564 17.9712 9.4564C18.1312 9.4564 18.2312 9.3764 18.2312 9.2564C18.2312 8.9664 17.8512 8.8564 17.5612 8.8564C16.7212 8.8564 16.2212 9.5264 16.0212 10.3864H15.9212V9.1564C15.9212 8.9764 15.8212 8.8564 15.6612 8.8564C15.5012 8.8564 15.3912 8.9764 15.3912 9.1564V16.1264C15.3912 16.3264 15.5012 16.4364 15.6712 16.4364ZM19.0612 16.4264C19.3512 16.4264 19.5912 16.2064 19.5912 15.9164C19.5912 15.6164 19.3512 15.3864 19.0612 15.3864C18.7712 15.3864 18.5212 15.6164 18.5212 15.9164C18.5212 16.2064 18.7712 16.4264 19.0612 16.4264Z" />
        </svg>
    