
        <svg xmlns="http://www.w3.org/2000/svg" viewBox="0 0 100 100">
            <path d="M12.1023 24.2064C18.7823 24.2064 24.2123 18.7864 24.2123 12.1064C24.2123 5.4264 18.7823 -0.0036 12.1023 -0.0036C5.4223 -0.0036 0.0023 5.4264 0.0023 12.1064C0.0023 18.7864 5.4223 24.2064 12.1023 24.2064ZM12.1023 21.8164C6.7223 21.8164 2.3823 17.4864 2.3823 12.1064C2.3823 6.7264 6.7223 2.3764 12.1023 2.3764C17.4823 2.3764 21.8323 6.7264 21.8323 12.1064C21.8323 17.4864 17.4823 21.8164 12.1023 21.8164ZM7.6323 16.7464C8.0623 16.7464 8.3523 16.4364 8.3523 15.9964V14.2264L8.9923 13.6064L10.9123 16.3364C11.0623 16.5964 11.2723 16.7464 11.5823 16.7464C11.9523 16.7464 12.2723 16.4764 12.2723 16.1164C12.2723 15.9064 12.1923 15.7464 12.0723 15.5864L10.0423 12.7264L11.9323 10.7464C12.1123 10.5564 12.2023 10.4364 12.2023 10.2164C12.2023 9.8764 11.9223 9.5864 11.5523 9.5864C11.3423 9.5864 11.1223 9.7164 10.9823 9.8664L8.3923 12.7264H8.3523V7.6864C8.3523 7.2264 8.0623 6.9164 7.6323 6.9164C7.2023 6.9164 6.9023 7.2164 6.9023 7.6764V15.9964C6.9023 16.4364 7.2023 16.7464 7.6323 16.7464ZM14.2423 16.7464C14.5823 16.7464 14.9223 16.5264 14.9223 15.9964V12.5864C14.9223 11.7864 15.2123 10.9764 16.1323 10.9664C16.3923 10.9664 16.6523 10.9364 16.8423 10.8064C17.0023 10.7064 17.1023 10.5464 17.1023 10.3164C17.1023 9.8564 16.7723 9.5864 16.3223 9.5864C15.5723 9.5864 15.0923 10.2264 14.9423 10.9764H14.8623V10.3164C14.8623 9.9064 14.5923 9.5864 14.2123 9.5864C13.8123 9.5864 13.5423 9.9064 13.5423 10.3164V15.9964C13.5423 16.4364 13.8023 16.7464 14.2423 16.7464ZM17.4723 16.6264C17.9923 16.6264 18.3523 16.2664 18.3523 15.7664C18.3523 15.2464 17.9923 14.8864 17.4723 14.8864C16.9523 14.8864 16.5923 15.2464 16.5923 15.7664C16.5923 16.2664 16.9523 16.6264 17.4723 16.6264Z" />
        </svg>
    