
        <svg xmlns="http://www.w3.org/2000/svg" viewBox="0 0 100 100">
            <path d="M12.3723 24.7459C19.2023 24.7459 24.7523 19.2059 24.7523 12.3759C24.7523 5.5459 19.2023 -0.0041 12.3723 -0.0041C5.5423 -0.0041 0.0023 5.5459 0.0023 12.3759C0.0023 19.2059 5.5423 24.7459 12.3723 24.7459ZM7.5723 16.9659C7.0423 16.9659 6.6523 16.5859 6.6523 16.0159V8.1259C6.6523 7.5559 7.0423 7.1759 7.5723 7.1759C8.1223 7.1759 8.4923 7.5559 8.4923 8.1259V12.7159H8.5323L10.8523 10.1559C11.0323 9.9359 11.3123 9.7859 11.5923 9.7859C12.0623 9.7859 12.4023 10.1359 12.4023 10.5959C12.4023 10.8559 12.2923 11.0359 12.0623 11.2859L10.4323 12.9459L12.1723 15.4759C12.3123 15.7059 12.4223 15.8659 12.4223 16.1759C12.4223 16.6259 12.0123 16.9659 11.5323 16.9659C11.1123 16.9659 10.8423 16.7359 10.6523 16.3959L9.0723 14.0159L8.4923 14.5759V16.0159C8.4923 16.5859 8.1223 16.9659 7.5723 16.9659ZM14.5423 16.9659C14.0023 16.9659 13.6623 16.5959 13.6623 16.0159V10.7059C13.6623 10.1559 14.0023 9.7859 14.5223 9.7859C15.0023 9.7859 15.3323 10.1559 15.3323 10.7059V11.2159H15.4123C15.5523 10.4659 15.9923 9.7859 16.7623 9.7859C17.2823 9.7859 17.6023 10.1259 17.6023 10.6759C17.6023 10.9559 17.4923 11.1759 17.3223 11.3059C17.1023 11.4859 16.7823 11.5359 16.4923 11.5359C15.6323 11.5559 15.4123 12.1959 15.4123 12.9459V16.0159C15.4123 16.6359 15.0123 16.9659 14.5423 16.9659ZM18.0923 16.8859C17.4823 16.8859 17.0623 16.4659 17.0623 15.8659C17.0623 15.2859 17.4823 14.8559 18.0923 14.8559C18.6923 14.8559 19.1123 15.2859 19.1123 15.8659C19.1123 16.4659 18.6923 16.8859 18.0923 16.8859Z" />
        </svg>
    