
        <svg xmlns="http://www.w3.org/2000/svg" viewBox="0 0 100 100">
            <path d="M0.9417 25.0048H25.2217C25.7317 25.0048 26.1717 24.5748 26.1717 24.0548C26.1717 23.5448 25.7317 23.1248 25.2217 23.1248H24.6117V22.2648C24.6117 21.7948 24.3417 21.5148 23.8617 21.5148H23.1117V8.0348H24.1417C24.7817 8.0348 25.1617 7.5748 25.1617 7.0848C25.1617 6.7348 24.9617 6.4348 24.5317 6.1848L14.5217 0.4148C14.0517 0.1448 13.5617 0.0048 13.0817 0.0048C12.6017 0.0048 12.0917 0.1448 11.6517 0.4148L1.6417 6.1848C1.1917 6.4348 1.0117 6.7348 1.0117 7.0848C1.0117 7.5748 1.3817 8.0348 2.0317 8.0348H3.0617V21.5148H2.3217C1.8417 21.5148 1.5617 21.7948 1.5617 22.2648V23.1248H0.9417C0.4217 23.1248 0.0017 23.5448 0.0017 24.0548C0.0017 24.5748 0.4217 25.0048 0.9417 25.0048ZM8.9017 17.9448C8.5317 17.9448 8.2817 17.6848 8.2817 17.2848V8.9748C8.2817 8.5748 8.5317 8.3348 8.9017 8.3348C9.2617 8.3348 9.5117 8.5848 9.5117 8.9848V14.1048H9.5517L12.2117 11.1948C12.3117 11.0648 12.5117 10.9548 12.6917 10.9548C12.9917 10.9548 13.2417 11.2048 13.2417 11.4948C13.2417 11.6848 13.1717 11.7748 13.0217 11.9448L11.0417 14.0148L13.1617 16.9548C13.2617 17.0948 13.3317 17.2348 13.3317 17.4048C13.3317 17.7048 13.0817 17.9448 12.7517 17.9448C12.5117 17.9448 12.3317 17.8248 12.2017 17.6248L10.1617 14.7748L9.5117 15.4248V17.2848C9.5117 17.6848 9.2617 17.9448 8.9017 17.9448ZM15.1917 17.9448C14.7917 17.9448 14.5917 17.6848 14.5917 17.2848V11.5748C14.5917 11.2248 14.8217 10.9548 15.1617 10.9548C15.4817 10.9548 15.7117 11.2248 15.7117 11.5748V12.3048H15.7717C15.9517 11.5748 16.4317 10.9548 17.1417 10.9548C17.5617 10.9548 17.8717 11.1748 17.8717 11.5848C17.8717 11.7848 17.7917 11.9248 17.6517 12.0148C17.4717 12.1148 17.2617 12.1448 17.0317 12.1448C16.0617 12.1448 15.7617 13.0148 15.7617 13.8048V17.2848C15.7617 17.7748 15.4417 17.9448 15.1917 17.9448ZM18.2017 17.8048C17.7217 17.8048 17.3917 17.4848 17.3917 17.0148C17.3917 16.5548 17.7217 16.2348 18.2017 16.2348C18.6517 16.2348 18.9817 16.5548 18.9817 17.0148C18.9817 17.4848 18.6517 17.8048 18.2017 17.8048Z" />
        </svg>
    