
        <svg xmlns="http://www.w3.org/2000/svg" viewBox="0 0 100 100">
            <path d="M0.6869 9.5948C0.0069 9.5948 -0.1931 10.0648 0.2069 10.6148L2.7569 14.2648C3.0869 14.7148 3.5469 14.7148 3.8569 14.2648L6.4169 10.6148C6.7969 10.0648 6.6069 9.5948 5.9369 9.5948H3.9969C4.9869 4.9848 9.0869 1.5148 14.0069 1.5148C19.6669 1.5148 24.2369 6.0948 24.2369 11.7548C24.2369 17.4148 19.6669 21.9848 14.0069 21.9848C10.4569 21.9848 7.2869 20.1548 5.5169 17.4148C5.2469 17.0548 4.8069 16.9348 4.4369 17.1548C4.0869 17.3648 3.9769 17.8748 4.2669 18.2648C6.3469 21.4248 9.9569 23.5048 14.0069 23.5048C20.4969 23.5048 25.7669 18.2448 25.7669 11.7548C25.7669 5.2648 20.4969 0.0048 14.0069 0.0048C8.2569 0.0048 3.4569 4.1348 2.4469 9.5948ZM9.6969 16.6548C9.9969 16.6548 10.2269 16.4248 10.2269 16.0848V13.8648L10.9469 13.1248L13.2869 16.3948C13.3869 16.5548 13.5369 16.6548 13.7369 16.6548C14.0169 16.6548 14.2469 16.4548 14.2469 16.1848C14.2469 16.0548 14.1869 15.9248 14.1069 15.8048L11.7069 12.4648L13.9569 10.0548C14.0769 9.9248 14.1469 9.8448 14.1469 9.6748C14.1469 9.4348 13.9369 9.2248 13.6669 9.2248C13.5269 9.2248 13.3769 9.3048 13.2669 9.4248L10.2569 12.7348H10.2269V6.9648C10.2269 6.6348 9.9969 6.3948 9.6969 6.3948C9.3769 6.3948 9.1669 6.6248 9.1669 6.9448V16.0848C9.1669 16.4248 9.3769 16.6548 9.6969 16.6548ZM16.1669 16.6548C16.4069 16.6548 16.6669 16.4848 16.6669 16.0848V12.1848C16.6669 11.2948 17.0169 10.2448 18.0769 10.2448C18.2869 10.2448 18.4869 10.2348 18.6469 10.1648C18.8169 10.1048 18.9069 9.9848 18.9069 9.7948C18.9069 9.4148 18.5569 9.2248 18.1669 9.2248C17.3969 9.2248 16.8769 9.8748 16.7069 10.6748H16.6169V9.7548C16.6169 9.4548 16.4069 9.2248 16.1369 9.2248C15.8569 9.2248 15.6569 9.4548 15.6569 9.7548V16.0848C15.6569 16.4248 15.8369 16.6548 16.1669 16.6548ZM19.4069 16.5448C19.8369 16.5448 20.1369 16.2548 20.1369 15.8348C20.1369 15.4148 19.8369 15.1048 19.4069 15.1048C18.9869 15.1048 18.6769 15.4148 18.6769 15.8348C18.6769 16.2548 18.9869 16.5448 19.4069 16.5448Z" />
        </svg>
    