
        <svg xmlns="http://www.w3.org/2000/svg" viewBox="0 0 100 100">
            <path d="M4.3817 22.8467H18.4717C21.2617 22.8467 22.8517 21.2667 22.8517 18.4767V4.3667C22.8517 1.5867 21.2617 -0.0033 18.4717 -0.0033H4.3817C1.5917 -0.0033 0.0017 1.5867 0.0017 4.3667V18.4767C0.0017 21.2667 1.5917 22.8467 4.3817 22.8467ZM4.8717 19.2267C4.0417 19.2267 3.6217 18.8567 3.6217 17.9767V4.8867C3.6217 4.0067 4.0417 3.6367 4.8717 3.6367H17.9717C18.8017 3.6367 19.2217 4.0067 19.2217 4.8867V17.9767C19.2217 18.8567 18.8017 19.2267 17.9717 19.2267ZM6.8417 15.5467C7.4217 15.5467 7.8317 15.1367 7.8317 14.5467V13.4667L8.3117 13.0067L9.4817 14.8967C9.6917 15.2767 9.9717 15.5467 10.4417 15.5467C10.9417 15.5467 11.4017 15.1867 11.4017 14.7067C11.4017 14.3567 11.3017 14.1867 11.1417 13.9467L9.7717 11.8967L11.0517 10.6067C11.3117 10.3467 11.4217 10.1367 11.4217 9.8567C11.4217 9.3667 11.0617 8.9967 10.5617 8.9967C10.2417 8.9967 9.9617 9.1667 9.7517 9.4067L7.8517 11.5167H7.8317V7.6667C7.8317 7.0667 7.4217 6.6567 6.8417 6.6567C6.2717 6.6567 5.8617 7.0667 5.8617 7.6667V14.5467C5.8617 15.1367 6.2717 15.5467 6.8417 15.5467ZM13.4417 15.5467C13.9717 15.5467 14.3717 15.1767 14.3717 14.5467V11.9967C14.3717 11.3567 14.5417 10.8767 15.2417 10.8467C15.5417 10.8467 15.8817 10.7967 16.0917 10.6067C16.2817 10.4667 16.3917 10.2267 16.3917 9.9267C16.3917 9.3767 16.0917 8.9967 15.5617 8.9967C14.8617 8.9967 14.4817 9.6467 14.3717 10.3267H14.2817V9.9867C14.2817 9.3967 13.9417 8.9967 13.4217 8.9967C12.8717 8.9967 12.5117 9.3967 12.5117 9.9867V14.5467C12.5117 15.1367 12.8917 15.5467 13.4417 15.5467ZM16.9117 15.5067C17.5217 15.5067 17.9417 15.0867 17.9417 14.4767C17.9417 13.8767 17.5217 13.4367 16.9117 13.4367C16.3017 13.4367 15.8717 13.8767 15.8717 14.4767C15.8717 15.0867 16.3017 15.5067 16.9117 15.5067Z" />
        </svg>
    