
        <svg xmlns="http://www.w3.org/2000/svg" viewBox="0 0 100 100">
            <path d="M12.7923 25.5978C19.8723 25.5978 25.6023 19.8678 25.6023 12.7978C25.6023 5.7278 19.8723 -0.0022 12.7923 -0.0022C5.7323 -0.0022 0.0023 5.7278 0.0023 12.7978C0.0023 19.8678 5.7323 25.5978 12.7923 25.5978ZM7.7623 17.0378C7.0923 17.0378 6.6023 16.5478 6.6023 15.8578V9.0578C6.6023 8.3578 7.0923 7.8678 7.7623 7.8678C8.4623 7.8678 8.9423 8.3578 8.9423 9.0578V12.7078H8.9623L10.7223 10.7478C10.9523 10.4378 11.2923 10.2578 11.6823 10.2578C12.2823 10.2578 12.7123 10.6778 12.7123 11.2778C12.7123 11.5878 12.5723 11.8578 12.2723 12.1778L11.1723 13.2678L12.3423 15.1178C12.5323 15.4078 12.6423 15.5978 12.6423 16.0478C12.6423 16.6078 12.0923 17.0378 11.4923 17.0378C10.9223 17.0378 10.5823 16.6978 10.3323 16.2278L9.3823 14.5678L8.9423 14.9878V15.8578C8.9423 16.5478 8.4623 17.0378 7.7623 17.0378ZM14.8823 17.0378C14.2423 17.0378 13.7823 16.5478 13.7823 15.8578V11.4178C13.7823 10.7078 14.2023 10.2578 14.8623 10.2578C15.4923 10.2578 15.8923 10.7078 15.8923 11.4178V11.6478H15.9823C16.0823 10.9378 16.4423 10.2578 17.1823 10.2578C17.7823 10.2578 18.0923 10.6878 18.0923 11.3278C18.0923 11.6878 17.9723 11.9778 17.7623 12.1378C17.5123 12.3778 17.1123 12.4478 16.7823 12.4478C16.1123 12.4878 15.9823 12.8478 15.9823 13.4778V15.8578C15.9823 16.5578 15.5323 17.0378 14.8823 17.0378ZM18.7123 17.0278C18.0123 17.0278 17.5323 16.5378 17.5323 15.8478C17.5323 15.1478 18.0123 14.6578 18.7123 14.6578C19.4023 14.6578 19.9123 15.1478 19.9123 15.8478C19.9123 16.5378 19.4023 17.0278 18.7123 17.0278Z" />
        </svg>
    