
        <svg xmlns="http://www.w3.org/2000/svg" viewBox="0 0 100 100">
            <path d="M14.4523 5.3178C16.5623 5.3178 18.4923 6.0378 20.0423 7.2278C20.3223 7.4278 20.6623 7.4178 20.9223 7.1578L23.7223 4.3578C24.0223 4.0578 24.0123 3.5978 23.6823 3.3278C21.1723 1.2578 17.9523 -0.0022 14.4523 -0.0022C10.9423 -0.0022 7.7223 1.2578 5.2223 3.3278C4.8823 3.5978 4.8723 4.0578 5.1923 4.3578L7.9823 7.1578C8.2423 7.4178 8.6023 7.4278 8.8923 7.2078C10.4423 6.0378 12.3623 5.3178 14.4523 5.3178ZM28.9023 14.4478C28.9023 10.9378 27.6423 7.7078 25.5623 5.1878C25.2923 4.8778 24.8423 4.8778 24.5423 5.1778L21.7423 7.9778C21.4823 8.2378 21.4723 8.5978 21.6923 8.8778C22.8723 10.4278 23.5823 12.3678 23.5823 14.4478C23.5823 16.5678 22.8623 18.5278 21.5823 20.1478C21.3823 20.3978 21.4023 20.7178 21.6223 20.9578L24.4723 23.7978C24.7723 24.1078 25.2223 24.1078 25.5023 23.7778C27.6223 21.2578 28.9023 17.9978 28.9023 14.4478ZM0.0023 14.4478C0.0023 17.9978 1.2923 21.2678 3.4223 23.7878C3.6923 24.1078 4.1323 24.1078 4.4423 23.7978L7.2823 20.9578C7.5123 20.7178 7.5223 20.3978 7.3123 20.1478C6.0423 18.5278 5.3223 16.5678 5.3223 14.4478C5.3223 12.3678 6.0223 10.4278 7.2223 8.8778C7.4323 8.5978 7.4323 8.2378 7.1723 7.9778L4.3723 5.1778C4.0623 4.8778 3.6123 4.8778 3.3423 5.2178C1.2523 7.7178 0.0023 10.9478 0.0023 14.4478ZM9.9523 19.0178C10.4023 19.0178 10.7323 18.6778 10.7323 18.1978V16.5978L11.3323 16.0078L13.0823 18.5478C13.2423 18.8278 13.4723 19.0178 13.8123 19.0178C14.2223 19.0178 14.5623 18.7178 14.5623 18.3278C14.5623 18.0978 14.4823 17.9278 14.3523 17.7378L12.4823 15.0778L14.2223 13.2678C14.4223 13.0678 14.5223 12.9178 14.5223 12.6778C14.5223 12.3078 14.2223 11.9978 13.8323 11.9978C13.5923 11.9978 13.3523 12.1278 13.1923 12.3178L10.7723 14.9878H10.7323V10.2278C10.7323 9.7478 10.4023 9.4078 9.9523 9.4078C9.4923 9.4078 9.1623 9.7378 9.1623 10.2178V18.1978C9.1623 18.6778 9.4923 19.0178 9.9523 19.0178ZM16.5623 19.0178C16.9323 19.0178 17.2923 18.7478 17.2923 18.1978V14.9978C17.2923 14.2378 17.5523 13.4978 18.4323 13.4978C18.7023 13.4978 18.9723 13.4578 19.1623 13.3078C19.3323 13.2078 19.4323 13.0178 19.4323 12.7778C19.4323 12.2978 19.1123 11.9978 18.6423 11.9978C17.9223 11.9978 17.4523 12.6478 17.3123 13.3678H17.2423V12.7878C17.2423 12.3278 16.9423 11.9978 16.5223 11.9978C16.1023 11.9978 15.8123 12.3278 15.8123 12.7878V18.1978C15.8123 18.6878 16.0923 19.0178 16.5623 19.0178ZM19.8523 18.9178C20.3823 18.9178 20.7623 18.5378 20.7623 18.0078C20.7623 17.4678 20.3823 17.0978 19.8523 17.0978C19.3123 17.0978 18.9223 17.4678 18.9223 18.0078C18.9223 18.5378 19.3123 18.9178 19.8523 18.9178Z" />
        </svg>
    