
        <svg xmlns="http://www.w3.org/2000/svg" viewBox="0 0 100 100">
            <path d="M1.016 10.1978C-0.014 10.1978 -0.264 11.2178 0.286 11.9078L3.446 15.9378C3.806 16.4078 4.496 16.3978 4.856 15.9378L8.006 11.9078C8.546 11.2178 8.306 10.1978 7.296 10.1978H6.206C7.296 6.7078 10.566 4.1678 14.426 4.1678C19.196 4.1678 23.056 8.0278 23.056 12.7978C23.056 17.5678 19.196 21.4178 14.426 21.4178C12.136 21.4178 10.196 20.5978 8.536 19.0878C7.586 18.2378 6.306 17.9678 5.376 18.8678C4.536 19.6778 4.566 20.9078 5.586 22.0278C7.486 24.1678 11.306 25.5978 14.426 25.5978C21.496 25.5978 27.226 19.8678 27.226 12.7978C27.226 5.7278 21.496 -0.0022 14.426 -0.0022C8.256 -0.0022 3.096 4.3678 1.896 10.1978ZM10.446 16.1878C10.996 16.1878 11.386 15.7878 11.386 15.2178V14.5278L11.746 14.1878L12.496 15.5278C12.696 15.9178 12.966 16.1878 13.436 16.1878C13.906 16.1878 14.346 15.8278 14.346 15.3778C14.346 15.0378 14.256 14.8778 14.106 14.6378L13.156 13.1478L14.046 12.2778C14.286 12.0378 14.406 11.8078 14.406 11.5678C14.406 11.0878 14.056 10.7478 13.576 10.7478C13.266 10.7478 12.996 10.8978 12.806 11.1278L11.406 12.7078H11.386V9.7878C11.386 9.2178 10.996 8.8378 10.446 8.8378C9.896 8.8378 9.506 9.2178 9.506 9.7878V15.2178C9.506 15.7878 9.896 16.1878 10.446 16.1878ZM16.146 16.1878C16.646 16.1878 17.016 15.7978 17.016 15.2178V13.3278C17.016 12.8178 17.126 12.5278 17.656 12.5078C17.926 12.5078 18.246 12.4478 18.436 12.2578C18.616 12.1178 18.706 11.8978 18.706 11.5978C18.706 11.0978 18.446 10.7478 17.966 10.7478C17.386 10.7478 17.106 11.2878 17.016 11.8578H16.936V11.6678C16.936 11.1078 16.626 10.7478 16.116 10.7478C15.586 10.7478 15.266 11.1078 15.266 11.6678V15.2178C15.266 15.7878 15.626 16.1878 16.146 16.1878ZM19.196 16.1678C19.766 16.1678 20.146 15.7778 20.146 15.2078C20.146 14.6678 19.766 14.2778 19.196 14.2778C18.636 14.2778 18.246 14.6678 18.246 15.2078C18.246 15.7778 18.636 16.1678 19.196 16.1678Z" />
        </svg>
    