
        <svg xmlns="http://www.w3.org/2000/svg" viewBox="0 0 100 100">
            <path d="M3.6817 21.5722H17.8917C20.3517 21.5722 21.5717 20.3722 21.5717 17.9522V3.6322C21.5717 1.2222 20.3517 0.0022 17.8917 0.0022H3.6817C1.2317 0.0022 0.0017 1.2222 0.0017 3.6322V17.9522C0.0017 20.3722 1.2317 21.5722 3.6817 21.5722ZM6.2317 15.7222C5.8217 15.7222 5.5517 15.4422 5.5517 15.0222V6.0022C5.5517 5.5822 5.8217 5.2922 6.2317 5.2922C6.6217 5.2922 6.8917 5.5922 6.8917 6.0122V11.5622H6.9217L9.8217 8.4122C9.9417 8.2622 10.1517 8.1522 10.3317 8.1522C10.6717 8.1522 10.9317 8.4222 10.9317 8.7322C10.9317 8.9422 10.8517 9.0422 10.6917 9.2122L8.5417 11.4722L10.8517 14.6622C10.9617 14.8122 11.0317 14.9622 11.0317 15.1422C11.0317 15.4822 10.7617 15.7222 10.3917 15.7222C10.1417 15.7222 9.9517 15.6022 9.8117 15.3822L7.5917 12.3022L6.8917 12.9922V15.0222C6.8917 15.4422 6.6217 15.7222 6.2317 15.7222ZM13.0417 15.7222C12.6217 15.7222 12.4017 15.4522 12.4017 15.0222V8.8222C12.4017 8.4522 12.6517 8.1522 13.0217 8.1522C13.3617 8.1522 13.6217 8.4522 13.6217 8.8222V9.6122H13.6917C13.8617 8.8222 14.4017 8.1522 15.1717 8.1522C15.6317 8.1522 15.9517 8.4022 15.9517 8.8322C15.9517 9.0422 15.8717 9.2122 15.7117 9.2922C15.5317 9.4122 15.2917 9.4322 15.0317 9.4322C14.0017 9.4322 13.6617 10.3822 13.6617 11.2422V15.0222C13.6617 15.5522 13.3317 15.7222 13.0417 15.7222ZM16.3117 15.5822C15.8017 15.5822 15.4417 15.2222 15.4417 14.7322C15.4417 14.2222 15.8017 13.8722 16.3117 13.8722C16.8017 13.8722 17.1717 14.2222 17.1717 14.7322C17.1717 15.2222 16.8017 15.5822 16.3117 15.5822Z" />
        </svg>
    