
        <svg xmlns="http://www.w3.org/2000/svg" viewBox="0 0 100 100">
            <path d="M18.2017 3.7284C19.1917 3.7284 20.0017 2.8084 20.0017 1.8584C20.0017 0.8684 19.2117 -0.0016 18.2017 -0.0016H1.8017C0.7817 -0.0016 0.0017 0.8484 0.0017 1.8584C0.0017 2.8484 0.8017 3.7284 1.8017 3.7284ZM18.2017 9.8784C19.1917 9.8784 20.0017 8.9684 20.0017 8.0084C20.0017 7.0184 19.2117 6.1384 18.2017 6.1384H1.8017C0.7817 6.1384 0.0017 6.9884 0.0017 8.0084C0.0017 8.9884 0.8017 9.8784 1.8017 9.8784ZM29.4517 15.9584C30.5317 16.6784 31.7717 16.2784 31.7717 14.9684V7.9484C31.7717 6.5984 30.5717 6.1784 29.4517 6.9384L24.5717 10.2684C23.7217 10.8384 23.6717 12.0984 24.5717 12.6984ZM18.2017 16.0384C19.1917 16.0384 20.0017 15.1184 20.0017 14.1684C20.0017 13.1684 19.2117 12.3084 18.2017 12.3084H1.8017C0.7817 12.3084 0.0017 13.1484 0.0017 14.1684C0.0017 15.1484 0.8017 16.0384 1.8017 16.0384ZM10.8517 22.1884C11.8317 22.1884 12.6417 21.2684 12.6417 20.3184C12.6417 19.3284 11.8617 18.4484 10.8517 18.4484H1.8017C0.7817 18.4484 0.0017 19.2884 0.0017 20.3184C0.0017 21.2884 0.8017 22.1884 1.8017 22.1884Z" />
        </svg>
    