
        <svg xmlns="http://www.w3.org/2000/svg" viewBox="0 0 100 100">
            <path d="M15.6917 1.7659C16.1817 1.7659 16.5717 1.3859 16.5717 0.8759C16.5717 0.3859 16.1817 -0.0041 15.6917 -0.0041H0.8917C0.4017 -0.0041 0.0017 0.3859 0.0017 0.8759C0.0017 1.3859 0.4017 1.7659 0.8917 1.7659ZM15.6917 7.9059C16.1817 7.9059 16.5717 7.5259 16.5717 7.0159C16.5717 6.5259 16.1817 6.1359 15.6917 6.1359H0.8917C0.4017 6.1359 0.0017 6.5259 0.0017 7.0159C0.0017 7.5259 0.4017 7.9059 0.8917 7.9059ZM25.3517 13.6859C26.2017 14.2659 27.1717 13.9359 27.1717 12.8859V7.3359C27.1717 6.2559 26.2517 5.9159 25.3517 6.5259L21.4717 9.1659C20.8017 9.6259 20.7817 10.6259 21.4717 11.0959ZM15.6917 14.0459C16.1817 14.0459 16.5717 13.6559 16.5717 13.1559C16.5717 12.6659 16.1817 12.2859 15.6917 12.2859H0.8917C0.4017 12.2859 0.0017 12.6659 0.0017 13.1559C0.0017 13.6559 0.4017 14.0459 0.8917 14.0459ZM9.7017 20.1759C10.1917 20.1759 10.5817 19.7959 10.5817 19.2959C10.5817 18.8059 10.1917 18.4059 9.7017 18.4059H0.8917C0.4017 18.4059 0.0017 18.8059 0.0017 19.2959C0.0017 19.7959 0.4017 20.1759 0.8917 20.1759Z" />
        </svg>
    