
        <svg xmlns="http://www.w3.org/2000/svg" viewBox="0 0 100 100">
            <path d="M17.6917 21.0509C21.4917 21.0509 24.2317 19.1009 25.1817 16.2109C25.3017 15.8509 25.3717 15.4909 25.3917 15.1409C25.3917 14.6809 25.1017 14.3409 24.6117 14.3409C24.1517 14.3409 23.9217 14.6009 23.7617 15.0709C23.2117 17.7209 20.8217 19.5009 17.7117 19.5009C13.3917 19.5009 10.6917 15.9809 10.6917 10.4309C10.6917 4.9709 13.3817 1.5609 17.6917 1.5609C20.7117 1.5609 23.0817 3.5109 23.6717 6.1309C23.8117 6.6409 24.0517 6.8709 24.5117 6.8709C24.9917 6.8709 25.3017 6.5309 25.2817 6.0509C25.2617 5.7209 25.2117 5.4109 25.1117 5.1109C24.0917 1.9909 21.1917 0.0009 17.6917 0.0009C12.3317 0.0009 8.9317 4.0409 8.9317 10.4309C8.9317 16.9109 12.3317 21.0509 17.6917 21.0509ZM3.3317 7.9109C5.2017 7.9109 6.6717 6.4409 6.6717 4.5709C6.6717 2.6909 5.2017 1.2309 3.3317 1.2309C1.4617 1.2309 0.0017 2.6909 0.0017 4.5709C0.0017 6.4409 1.4617 7.9109 3.3317 7.9109ZM3.3317 6.6109C2.1917 6.6109 1.2917 5.7209 1.2917 4.5709C1.2917 3.4209 2.1917 2.5309 3.3317 2.5309C4.4717 2.5309 5.3717 3.4209 5.3717 4.5709C5.3717 5.7209 4.4717 6.6109 3.3317 6.6109Z" />
        </svg>
    