
        <svg xmlns="http://www.w3.org/2000/svg" viewBox="0 0 100 100">
            <path d="M16.7717 12.7698C19.4217 12.7698 21.1717 11.0498 21.1717 8.4798C21.1717 7.2698 20.6817 6.1498 20.2617 5.2498C19.5817 3.7698 18.4817 1.9698 17.5217 0.4798C17.3017 0.1598 17.0517 -0.0002 16.7717 -0.0002C16.4917 -0.0002 16.2417 0.1598 16.0217 0.4798C15.0517 1.9698 13.9617 3.7698 13.2617 5.2498C12.8517 6.1498 12.3517 7.2698 12.3517 8.4798C12.3517 11.0498 14.1217 12.7698 16.7717 12.7698ZM3.4717 29.2898C4.1117 29.2898 4.5517 28.8498 4.5517 28.2198V27.0698H13.9717V28.2198C13.9717 28.8498 14.4017 29.2898 15.0317 29.2898C15.6817 29.2898 16.1117 28.8498 16.1117 28.2198V26.9098C17.6817 26.4798 18.5017 25.2498 18.5017 23.3198V14.2098C17.7817 14.4398 16.9917 14.3998 16.2117 14.3798V23.1298C16.2117 24.1998 15.6117 24.7698 14.5817 24.7698H3.9217C2.9017 24.7698 2.3017 24.1998 2.3017 23.1298V4.8998C2.3017 3.8198 2.9017 3.2498 3.9217 3.2498H12.4317C12.7817 2.5298 13.2917 1.6998 13.7417 0.9498H3.8017C1.3317 0.9498 0.0017 2.2598 0.0017 4.6998V23.3198C0.0017 25.2498 0.8317 26.4698 2.4017 26.9098V28.2198C2.4017 28.8498 2.8317 29.2898 3.4717 29.2898ZM5.4117 8.1998C6.3417 8.1998 7.1017 7.4398 7.1017 6.4998C7.1017 5.5798 6.3417 4.8198 5.4117 4.8198C4.4917 4.8198 3.7217 5.5798 3.7217 6.4998C3.7217 7.4398 4.4917 8.1998 5.4117 8.1998ZM4.4617 17.3398H7.7417C8.2017 17.3398 8.5417 16.9898 8.5417 16.5498C8.5417 16.0998 8.2017 15.7598 7.7417 15.7598H4.4617C4.0117 15.7598 3.6717 16.0998 3.6717 16.5498C3.6717 16.9898 4.0117 17.3398 4.4617 17.3398ZM10.7617 17.3398H14.0517C14.4917 17.3398 14.8317 16.9898 14.8317 16.5498C14.8317 16.0998 14.4917 15.7598 14.0517 15.7598H10.7617C10.3117 15.7598 9.9717 16.0998 9.9717 16.5498C9.9717 16.9898 10.3117 17.3398 10.7617 17.3398ZM4.4617 20.2498H7.7417C8.2017 20.2498 8.5417 19.9098 8.5417 19.4598C8.5417 19.0198 8.2017 18.6698 7.7417 18.6698H4.4617C4.0117 18.6698 3.6717 19.0198 3.6717 19.4598C3.6717 19.9098 4.0117 20.2498 4.4617 20.2498ZM10.7617 20.2498H14.0517C14.4917 20.2498 14.8317 19.9098 14.8317 19.4598C14.8317 19.0198 14.4917 18.6698 14.0517 18.6698H10.7617C10.3117 18.6698 9.9717 19.0198 9.9717 19.4598C9.9717 19.9098 10.3117 20.2498 10.7617 20.2498ZM4.4617 23.1698H7.7417C8.2017 23.1698 8.5417 22.8198 8.5417 22.3798C8.5417 21.9298 8.2017 21.5898 7.7417 21.5898H4.4617C4.0117 21.5898 3.6717 21.9298 3.6717 22.3798C3.6717 22.8198 4.0117 23.1698 4.4617 23.1698ZM10.7617 23.1698H14.0517C14.4917 23.1698 14.8317 22.8198 14.8317 22.3798C14.8317 21.9298 14.4917 21.5898 14.0517 21.5898H10.7617C10.3117 21.5898 9.9717 21.9298 9.9717 22.3798C9.9717 22.8198 10.3117 23.1698 10.7617 23.1698Z" />
        </svg>
    