
        <svg xmlns="http://www.w3.org/2000/svg" viewBox="0 0 100 100">
            <path d="M14.0817 11.8498C16.4717 11.8498 18.0617 10.3098 18.0617 7.9798C18.0617 6.9798 17.6517 5.8398 17.1017 4.6598C16.4517 3.2798 15.5517 1.7298 14.6417 0.3398C14.4717 0.1098 14.3317 -0.0002 14.0817 -0.0002C13.8417 -0.0002 13.6917 0.1098 13.5317 0.3398C12.6117 1.7298 11.7117 3.2798 11.0617 4.6598C10.5217 5.8398 10.1117 6.9798 10.1117 7.9798C10.1117 10.3098 11.6917 11.8498 14.0817 11.8498ZM2.7117 25.8398C2.9517 25.8398 3.1417 25.6598 3.1417 25.4098V24.1498H12.3517V25.4098C12.3517 25.6598 12.5417 25.8398 12.8017 25.8398C13.0417 25.8398 13.2317 25.6598 13.2317 25.4098V24.1098C14.6117 23.8598 15.4917 22.7898 15.4917 21.2598V12.7398C15.2117 12.8298 14.9317 12.8298 14.6217 12.8898V21.2098C14.6217 22.4498 13.7817 23.2898 12.5517 23.2898H2.9417C1.7117 23.2898 0.8817 22.4498 0.8817 21.2098V4.3498C0.8817 3.1098 1.7117 2.2698 2.9417 2.2698H11.1217C11.2717 1.9898 11.4517 1.6898 11.6217 1.4098H2.9217C1.1517 1.4098 0.0017 2.5498 0.0017 4.3098V21.2598C0.0017 22.7898 0.8817 23.8598 2.2617 24.1098V25.4098C2.2617 25.6598 2.4517 25.8398 2.7117 25.8398ZM3.9917 6.8198C4.7917 6.8198 5.4417 6.1598 5.4417 5.3698C5.4417 4.5898 4.7917 3.9398 3.9917 3.9398C3.2117 3.9398 2.5517 4.5898 2.5517 5.3698C2.5517 6.1598 3.2117 6.8198 3.9917 6.8198ZM2.8217 15.8398H6.4917C6.7817 15.8398 6.9917 15.6198 6.9917 15.3398C6.9917 15.0498 6.7817 14.8198 6.4917 14.8198H2.8217C2.5317 14.8198 2.3117 15.0498 2.3117 15.3398C2.3117 15.6198 2.5317 15.8398 2.8217 15.8398ZM9.0017 15.8398H12.6717C12.9617 15.8398 13.1817 15.6198 13.1817 15.3398C13.1817 15.0498 12.9617 14.8198 12.6717 14.8198H9.0017C8.7217 14.8198 8.4917 15.0498 8.4917 15.3398C8.4917 15.6198 8.7217 15.8398 9.0017 15.8398ZM2.8217 18.5898H6.4917C6.7817 18.5898 6.9917 18.3598 6.9917 18.0798C6.9917 17.7898 6.7817 17.5698 6.4917 17.5698H2.8217C2.5317 17.5698 2.3117 17.7898 2.3117 18.0798C2.3117 18.3598 2.5317 18.5898 2.8217 18.5898ZM9.0017 18.5898H12.6717C12.9617 18.5898 13.1817 18.3598 13.1817 18.0798C13.1817 17.7898 12.9617 17.5698 12.6717 17.5698H9.0017C8.7217 17.5698 8.4917 17.7898 8.4917 18.0798C8.4917 18.3598 8.7217 18.5898 9.0017 18.5898ZM2.8217 21.3298H6.4917C6.7817 21.3298 6.9917 21.1098 6.9917 20.8198C6.9917 20.5298 6.7817 20.3098 6.4917 20.3098H2.8217C2.5317 20.3098 2.3117 20.5298 2.3117 20.8198C2.3117 21.1098 2.5317 21.3298 2.8217 21.3298ZM9.0017 21.3298H12.6717C12.9617 21.3298 13.1817 21.1098 13.1817 20.8198C13.1817 20.5298 12.9617 20.3098 12.6717 20.3098H9.0017C8.7217 20.3098 8.4917 20.5298 8.4917 20.8198C8.4917 21.1098 8.7217 21.3298 9.0017 21.3298Z" />
        </svg>
    