
        <svg xmlns="http://www.w3.org/2000/svg" viewBox="0 0 100 100">
            <path d="M21.7194 21.5705C24.1594 21.5705 25.3994 20.3705 25.3994 17.9405V3.6305C25.3994 1.2105 24.1594 0.0005 21.7194 0.0005H11.5294C10.1594 0.0005 8.9794 0.3505 8.0194 1.3705L1.1094 8.5405C0.3494 9.3305 -0.0006 10.0305 -0.0006 10.7705C-0.0006 11.5005 0.3394 12.2105 1.1094 13.0005L8.0294 20.1305C8.9994 21.1405 10.1694 21.5605 11.5394 21.5605ZM21.6894 19.6905H11.5094C10.6194 19.6905 10.0694 19.4805 9.4494 18.8405L2.5794 11.7505C2.1794 11.3405 2.0594 11.0605 2.0594 10.7705C2.0594 10.4605 2.1894 10.1805 2.5794 9.7705L9.4294 2.6605C10.0394 2.0405 10.6194 1.8905 11.4994 1.8905H21.6894C22.8594 1.8905 23.5094 2.5105 23.5094 3.7305V17.8505C23.5094 19.0705 22.8594 19.6905 21.6894 19.6905ZM10.8494 15.7405C11.1094 15.7405 11.3394 15.6305 11.5194 15.4405L14.8494 12.1005L18.1794 15.4405C18.3494 15.6205 18.5894 15.7405 18.8594 15.7405C19.3694 15.7405 19.7894 15.3005 19.7894 14.7905C19.7894 14.5205 19.6894 14.3005 19.5094 14.1205L16.1794 10.7905L19.5194 7.4405C19.7094 7.2405 19.8094 7.0405 19.8094 6.7805C19.8094 6.2605 19.3794 5.8505 18.8694 5.8505C18.6194 5.8505 18.4094 5.9305 18.2094 6.1305L14.8494 9.4805L11.4994 6.1405C11.3194 5.9505 11.1094 5.8705 10.8494 5.8705C10.3394 5.8705 9.9094 6.2705 9.9094 6.8005C9.9094 7.0505 10.0094 7.2805 10.1994 7.4505L13.5194 10.7905L10.1994 14.1305C10.0094 14.3005 9.9094 14.5305 9.9094 14.7905C9.9094 15.3005 10.3394 15.7405 10.8494 15.7405Z" />
        </svg>
    