
        <svg xmlns="http://www.w3.org/2000/svg" viewBox="0 0 100 100">
            <path d="M3.0117 20.4997H12.7117C13.9417 20.4997 14.7817 19.9897 15.6017 19.1797L22.8717 12.0497C23.5117 11.4397 23.7317 10.8797 23.7317 10.2097C23.7317 9.5297 23.4817 8.9797 22.8717 8.3697L15.6017 1.0097C14.8017 0.1897 13.9417 -0.0003 12.7117 -0.0003H3.0117C1.0417 -0.0003 0.0017 1.0397 0.0017 3.0097V17.4797C0.0017 19.4497 1.0417 20.4997 3.0117 20.4997ZM3.0517 19.9197C1.4217 19.9197 0.5717 19.0797 0.5717 17.4597V3.0397C0.5717 1.4097 1.4217 0.5697 3.0517 0.5697H12.7117C13.7117 0.5697 14.4617 0.6797 15.2017 1.4097L22.4517 8.7797C22.9317 9.2697 23.1217 9.6897 23.1217 10.2097C23.1217 10.7297 22.9417 11.1597 22.4517 11.6497L15.2017 18.7897C14.4617 19.5097 13.7117 19.9197 12.7117 19.9197ZM5.5517 14.8497C5.6717 14.8497 5.7317 14.8197 5.8317 14.7197L9.8217 10.7197L13.8117 14.7197C13.9117 14.8197 13.9917 14.8497 14.0817 14.8497C14.2717 14.8497 14.4217 14.7197 14.4217 14.5397C14.4217 14.4497 14.3917 14.3697 14.3117 14.2897L10.2917 10.2697L14.3117 6.2497C14.3917 6.1497 14.4217 6.0797 14.4217 5.9797C14.4217 5.7997 14.2717 5.6697 14.0817 5.6697C13.9917 5.6697 13.9117 5.7097 13.8117 5.8097L9.8217 9.7997L5.8317 5.8097C5.7317 5.7097 5.6717 5.6697 5.5517 5.6697C5.3717 5.6697 5.2117 5.7997 5.2117 5.9797C5.2117 6.0797 5.2517 6.1497 5.3317 6.2497L9.3617 10.2697L5.3317 14.2897C5.2517 14.3697 5.2117 14.4497 5.2117 14.5397C5.2117 14.7197 5.3717 14.8497 5.5517 14.8497Z" />
        </svg>
    