
        <svg xmlns="http://www.w3.org/2000/svg" viewBox="0 0 100 100">
            <path d="M10.3517 24.2078H14.3117C14.1717 23.8878 14.0817 23.5178 14.0817 23.1478C14.0817 21.6578 15.3017 20.4278 16.8017 20.4278H17.0117V14.5578H2.7417C2.4017 14.5578 2.2517 14.4178 2.2517 14.0578V3.0578C2.2517 2.5578 2.5517 2.2478 3.0617 2.2478H25.3817C25.8917 2.2478 26.1917 2.5578 26.1917 3.0578V7.5978H28.4417V2.9278C28.4417 1.0978 27.3417 -0.0022 25.5117 -0.0022H2.9217C1.1017 -0.0022 0.0017 1.0978 0.0017 2.9278V17.0478C0.0017 18.8778 1.1017 19.9678 2.9217 19.9678H10.3917V22.0878H10.3517C9.7617 22.0878 9.2817 22.5678 9.2817 23.1578C9.2817 23.7278 9.7617 24.2078 10.3517 24.2078ZM15.7517 23.1478C15.7517 23.7278 16.2217 24.2078 16.8017 24.2078L40.9017 24.1978C41.4817 24.1978 41.9617 23.7178 41.9617 23.1378C41.9617 22.5578 41.4817 22.0778 40.9017 22.0778H39.1017V12.0378C39.1017 10.2178 38.1117 9.2478 36.2917 9.2478H21.4917C19.7417 9.2478 18.6817 10.2178 18.6817 12.0378V22.0878H16.8017C16.2217 22.0878 15.7517 22.5678 15.7517 23.1478ZM20.9317 22.0878V12.5978C20.9317 11.8478 21.2917 11.4978 22.0317 11.4978H35.7517C36.4917 11.4978 36.8517 11.8478 36.8517 12.5978V22.0778Z" />
        </svg>
    