
        <svg xmlns="http://www.w3.org/2000/svg" viewBox="0 0 100 100">
            <path d="M13.2917 -0.0005C13.0517 -0.0005 12.8517 0.1895 12.8517 0.4195V11.8395L12.8817 13.4795L12.0017 12.5895L9.5817 10.1395C9.5017 10.0595 9.3717 9.9995 9.2717 9.9995C9.0517 9.9995 8.8817 10.1695 8.8817 10.3895C8.8817 10.4995 8.9317 10.5895 9.0117 10.6795L12.9717 14.6095C13.0817 14.7095 13.1717 14.7495 13.2917 14.7495C13.3917 14.7495 13.5017 14.7095 13.5917 14.6095L17.5417 10.6795C17.6417 10.5895 17.6817 10.4995 17.6817 10.3895C17.6817 10.1695 17.4917 9.9995 17.2817 9.9995C17.1817 9.9995 17.0417 10.0595 16.9717 10.1395L14.5617 12.5895L13.6917 13.4695L13.7217 11.8395V0.4195C13.7217 0.1895 13.5217 -0.0005 13.2917 -0.0005ZM1.6017 22.6895H9.8317V25.6095H9.5817C9.3417 25.6095 9.1417 25.7795 9.1417 26.0395C9.1417 26.2995 9.3417 26.4695 9.5817 26.4695H16.9617C17.2117 26.4695 17.4117 26.2995 17.4117 26.0395C17.4117 25.7795 17.2117 25.6095 16.9617 25.6095H16.7117V22.6895H24.9417C25.9217 22.6895 26.5417 22.0595 26.5417 21.0695V5.9295C26.5417 4.9495 25.9217 4.3195 24.9417 4.3195H15.3517V5.1895H24.9017C25.3717 5.1895 25.6717 5.4995 25.6717 5.9695V17.5395C25.6717 17.9795 25.4617 18.1795 25.0517 18.1795H1.5017C1.0817 18.1795 0.8717 17.9795 0.8717 17.5395V5.9695C0.8717 5.4995 1.1717 5.1895 1.6517 5.1895H11.1917V4.3195H1.6017C0.6317 4.3195 0.0017 4.9495 0.0017 5.9295V21.0695C0.0017 22.0595 0.6317 22.6895 1.6017 22.6895Z" />
        </svg>
    