
        <svg xmlns="http://www.w3.org/2000/svg" viewBox="0 0 100 100">
            <path d="M6.6917 13.5127H14.0817C15.7217 13.5127 16.6017 12.6227 16.6017 10.9827V2.5427C16.6017 0.9127 15.7217 0.0027 14.0817 0.0027H6.6817C5.0517 0.0027 4.1717 0.9127 4.1617 2.5427L4.1717 10.9827C4.1717 12.6227 5.0517 13.5127 6.6917 13.5127ZM6.4017 18.6927H14.3417C14.8817 18.6927 15.2017 18.3827 15.2017 17.9627C15.2017 17.6827 15.0617 17.4327 14.8317 17.1527L12.6517 14.3927H8.1017L5.9017 17.1527C5.6817 17.4227 5.5617 17.6827 5.5617 17.9627C5.5617 18.3827 5.8617 18.6927 6.4017 18.6927ZM0.4317 26.6627H20.3217C20.5917 26.6627 20.7617 26.4627 20.7617 26.2127C20.7617 25.9827 20.5617 25.7827 20.3217 25.7827H0.4317C0.1917 25.7827 0.0017 25.9727 0.0017 26.2127C0.0017 26.4627 0.1917 26.6627 0.4317 26.6627Z" />
        </svg>
    