
        <svg xmlns="http://www.w3.org/2000/svg" viewBox="0 0 100 100">
            <path d="M12.2223 24.4436C18.9723 24.4436 24.4423 18.9736 24.4423 12.2236C24.4423 5.4736 18.9723 0.0036 12.2223 0.0036C5.4723 0.0036 0.0023 5.4736 0.0023 12.2236C0.0023 18.9736 5.4723 24.4436 12.2223 24.4436ZM12.2223 21.7636C6.9523 21.7636 2.6823 17.4936 2.6823 12.2236C2.6823 6.9536 6.9523 2.6836 12.2223 2.6836C17.4923 2.6836 21.7623 6.9536 21.7623 12.2236C21.7623 17.4936 17.4923 21.7636 12.2223 21.7636ZM8.3223 9.8236L11.5823 13.0936C11.9923 13.5036 12.6123 13.5036 13.0223 13.0936L18.0723 8.0236C18.4723 7.6336 18.4823 6.9936 18.0723 6.5936C17.6523 6.2036 17.0423 6.2036 16.6323 6.5936L12.2923 10.9336L9.7623 8.3936C9.3423 7.9836 8.7223 7.9836 8.3223 8.3936C7.9223 8.7936 7.9123 9.4236 8.3223 9.8236ZM0.1023 19.0436V22.3436C0.1023 23.9636 0.9023 24.7536 2.5323 24.7536H6.0923C3.5123 23.4736 1.5223 21.5736 0.1023 19.0436ZM24.4723 19.0436C23.0523 21.5736 21.0623 23.4736 18.4823 24.7536H22.0323C23.6723 24.7536 24.4723 23.9636 24.4723 22.3436Z" />
        </svg>
    