
        <svg xmlns="http://www.w3.org/2000/svg" viewBox="0 0 100 100">
            <path d="M9.9417 22.9947H13.5817C13.4917 22.7647 13.4417 22.5147 13.4417 22.2547C13.4417 21.1047 14.3817 20.1647 15.5417 20.1647H16.0217V14.0947H2.0017C1.6317 14.0947 1.4517 13.9447 1.4517 13.5447V2.2647C1.4517 1.7647 1.7717 1.4547 2.2617 1.4547H25.0617C25.5717 1.4547 25.8917 1.7647 25.8917 2.2647V7.8747H27.3417V2.2247C27.3417 0.8447 26.4817 0.0047 25.1017 0.0047H2.2217C0.8417 0.0047 0.0017 0.8447 0.0017 2.2247V16.7547C0.0017 18.1247 0.8417 18.9847 2.2217 18.9847H10.0817V21.5247H9.9417C9.5317 21.5247 9.2017 21.8547 9.2017 22.2647C9.2017 22.6647 9.5317 22.9947 9.9417 22.9947ZM14.8017 22.2547C14.8017 22.6647 15.1317 22.9947 15.5417 22.9947L38.2117 22.9847C38.6117 22.9847 38.9417 22.6547 38.9417 22.2447C38.9417 21.8447 38.6117 21.5247 38.2117 21.5247H36.4817V11.6247C36.4817 10.0447 35.6517 9.2347 34.0817 9.2347H19.7917C18.2717 9.2347 17.3817 10.0447 17.3817 11.6247V21.5247H15.5417C15.1317 21.5247 14.8017 21.8547 14.8017 22.2547ZM18.8317 21.5247V11.9847C18.8317 11.1247 19.2617 10.6847 20.1417 10.6847H33.7217C34.5917 10.6847 35.0317 11.1247 35.0317 11.9847V21.5247Z" />
        </svg>
    