
        <svg xmlns="http://www.w3.org/2000/svg" viewBox="0 0 100 100">
            <path d="M11.4923 22.977C17.8523 22.977 22.9823 17.847 22.9823 11.497C22.9823 5.147 17.8523 -0.003 11.4923 -0.003C5.1423 -0.003 0.0023 5.147 0.0023 11.497C0.0023 17.847 5.1423 22.977 11.4923 22.977ZM11.4923 22.087C5.6323 22.087 0.8923 17.357 0.8923 11.497C0.8923 5.637 5.6323 0.887 11.4923 0.887C17.3523 0.887 22.0923 5.637 22.0923 11.497C22.0923 17.357 17.3523 22.087 11.4923 22.087ZM7.5923 8.247L11.2023 11.847C11.3823 12.027 11.6323 12.007 11.8023 11.847L17.8523 5.797C18.0123 5.637 18.0123 5.387 17.8323 5.217C17.6823 5.067 17.4423 5.047 17.2723 5.217L11.4923 10.997L8.1923 7.677C8.0023 7.497 7.7623 7.507 7.6123 7.667C7.4523 7.827 7.4323 8.077 7.5923 8.247ZM0.0323 16.477V21.717C0.0323 22.657 0.5023 23.117 1.4423 23.117H6.8423C3.7723 21.907 1.3323 19.507 0.0323 16.477ZM22.9723 16.477C21.6523 19.507 19.2223 21.907 16.1623 23.117H21.5523C22.4923 23.117 22.9723 22.657 22.9723 21.717Z" />
        </svg>
    