
        <svg xmlns="http://www.w3.org/2000/svg" viewBox="0 0 100 100">
            <path d="M3.6817 19.1288H5.6817V20.9188C5.6817 23.3288 6.9017 24.5487 9.3617 24.5487H21.1317C23.5617 24.5487 24.8017 23.3288 24.8017 20.9188V9.0588C24.8017 6.6488 23.5617 5.4288 21.1317 5.4288H19.1117V3.6288C19.1117 1.2188 17.8817 -0.0012 15.4417 -0.0012H3.6817C1.2217 -0.0012 0.0017 1.2188 0.0017 3.6288V15.4888C0.0017 17.9088 1.2217 19.1288 3.6817 19.1288ZM3.7017 17.2388C2.5317 17.2388 1.8917 16.6088 1.8917 15.3888V3.7387C1.8917 2.5188 2.5317 1.8888 3.7017 1.8888H15.4117C16.5717 1.8888 17.2217 2.5188 17.2217 3.7387V5.4288H9.3617C6.9017 5.4288 5.6817 6.6288 5.6817 9.0588V17.2388ZM9.3917 22.6688C8.2217 22.6688 7.5717 22.0288 7.5717 20.8088V9.1688C7.5717 7.9488 8.2217 7.3088 9.3917 7.3088H21.0917C22.2517 7.3088 22.9117 7.9488 22.9117 9.1688V20.8088C22.9117 22.0288 22.2517 22.6688 21.0917 22.6688ZM10.6617 12.0688C11.5617 12.0788 12.3117 11.3288 12.3117 10.4088C12.3117 9.4788 11.5617 8.7587 10.6617 8.7587C9.7517 8.7587 9.0017 9.4788 9.0017 10.4088C9.0017 11.3288 9.7517 12.0588 10.6617 12.0688ZM19.8417 12.0688C20.7417 12.0788 21.4917 11.3288 21.4917 10.4088C21.4917 9.4788 20.7417 8.7587 19.8417 8.7587C18.9217 8.7587 18.1617 9.4788 18.1617 10.4088C18.1617 11.3288 18.9217 12.0588 19.8417 12.0688ZM15.2417 16.6688C16.1517 16.6688 16.9017 15.9188 16.9017 14.9888C16.9017 14.0888 16.1517 13.3488 15.2417 13.3488C14.3317 13.3488 13.5917 14.0888 13.5917 14.9888C13.5917 15.9188 14.3317 16.6688 15.2417 16.6688ZM10.6617 21.2588C11.5617 21.2588 12.3117 20.5088 12.3117 19.5888C12.3117 18.6788 11.5617 17.9388 10.6617 17.9388C9.7517 17.9388 9.0117 18.6788 9.0117 19.5888C9.0117 20.5088 9.7517 21.2588 10.6617 21.2588ZM19.8417 21.2588C20.7417 21.2588 21.4917 20.5088 21.4917 19.5888C21.4917 18.6788 20.7417 17.9388 19.8417 17.9388C18.9217 17.9388 18.1717 18.6788 18.1717 19.5888C18.1717 20.5088 18.9217 21.2588 19.8417 21.2588Z" />
        </svg>
    