
        <svg xmlns="http://www.w3.org/2000/svg" viewBox="0 0 100 100">
            <path d="M0.0017 15.9373C0.0017 18.5473 1.4217 20.0473 4.1417 20.0473H4.4617V10.2173C4.4617 6.5073 6.7717 4.2073 10.5117 4.2073H20.0517V4.0973C20.0517 1.4673 18.5817 -0.0027 15.9117 -0.0027H4.1417C1.4617 -0.0027 0.0017 1.4573 0.0017 4.1173ZM10.5117 26.1573H22.2817C24.9517 26.1573 26.4117 24.7073 26.4117 22.0473V10.2173C26.4117 7.5573 24.9517 6.1073 22.2817 6.1073H10.5117C7.8317 6.1073 6.3617 7.5573 6.3617 10.2173V22.0473C6.3617 24.7073 7.8317 26.1573 10.5117 26.1573ZM11.9317 13.4373C10.9717 13.4273 10.1817 12.6773 10.1817 11.7173C10.1817 10.7673 10.9717 9.9973 11.9317 9.9973C12.8717 9.9973 13.6417 10.7673 13.6417 11.7173C13.6417 12.6773 12.8517 13.4673 11.9317 13.4373ZM20.7517 13.4373C19.8017 13.4273 19.0217 12.6773 19.0217 11.7173C19.0217 10.7673 19.8017 9.9973 20.7517 9.9973C21.7017 9.9973 22.4717 10.7673 22.4717 11.7173C22.4717 12.6773 21.6917 13.4673 20.7517 13.4373ZM16.3317 17.8673C15.3717 17.8673 14.6117 17.0973 14.6117 16.1373C14.6117 15.1873 15.3917 14.4373 16.3317 14.4373C17.2717 14.4373 18.0617 15.1973 18.0617 16.1373C18.0617 17.0873 17.2817 17.8673 16.3317 17.8673ZM11.9217 22.2973C10.9717 22.2973 10.1917 21.5273 10.1917 20.5673C10.1917 19.6173 10.9717 18.8573 11.9217 18.8573C12.8517 18.8573 13.6317 19.6273 13.6317 20.5673C13.6317 21.5273 12.8517 22.2973 11.9217 22.2973ZM20.7517 22.2973C19.8017 22.2973 19.0417 21.5273 19.0417 20.5673C19.0417 19.6173 19.8017 18.8573 20.7517 18.8573C21.6917 18.8573 22.4717 19.6173 22.4717 20.5673C22.4717 21.5273 21.7017 22.2973 20.7517 22.2973Z" />
        </svg>
    