
        <svg xmlns="http://www.w3.org/2000/svg" viewBox="0 0 100 100">
            <path d="M4.5917 23.2359H18.6417C21.5417 23.2359 23.2417 21.5459 23.2417 18.6459V4.5959C23.2417 1.6959 21.5417 -0.0041 18.6417 -0.0041H4.5917C1.7017 -0.0041 0.0017 1.6959 0.0017 4.5959V18.6459C0.0017 21.5459 1.7017 23.2359 4.5917 23.2359ZM16.3517 8.9059C15.2317 8.8959 14.3317 8.0059 14.3317 6.9159C14.3317 5.8259 15.2317 4.9259 16.3517 4.9259C17.4417 4.9259 18.3417 5.8259 18.3417 6.9159C18.3417 8.0259 17.4217 8.9459 16.3517 8.9059ZM6.8917 18.3759C5.8017 18.3759 4.9017 17.4759 4.9017 16.3459C4.9017 15.2659 5.8017 14.3859 6.8917 14.3859C7.9817 14.3859 8.8717 15.2859 8.8717 16.3459C8.8717 17.4559 7.9917 18.3759 6.8917 18.3759Z" />
        </svg>
    