
        <svg xmlns="http://www.w3.org/2000/svg" viewBox="0 0 100 100">
            <path d="M3.9717 22.1117H18.1317C20.7317 22.1117 22.1017 20.7417 22.1017 18.1717V3.9417C22.1017 1.3717 20.7317 0.0017 18.1317 0.0017H3.9717C1.3817 0.0017 0.0017 1.3717 0.0017 3.9417V18.1717C0.0017 20.7417 1.3817 22.1117 3.9717 22.1117ZM4.1917 19.5017C3.1617 19.5017 2.6117 18.9817 2.6117 17.9017V4.2217C2.6117 3.1417 3.1617 2.6117 4.1917 2.6117H17.9217C18.9217 2.6117 19.5017 3.1417 19.5017 4.2217V17.9017C19.5017 18.9817 18.9217 19.5017 17.9217 19.5017ZM6.0817 7.9717C7.1017 7.9817 7.9617 7.1217 7.9617 6.0717C7.9617 5.0317 7.1017 4.1817 6.0817 4.1817C5.0417 4.1817 4.1817 5.0317 4.1817 6.0717C4.1817 7.1117 5.0417 7.9417 6.0817 7.9717ZM16.0417 7.9717C17.0717 7.9817 17.9217 7.1217 17.9217 6.0717C17.9217 5.0317 17.0717 4.1817 16.0417 4.1817C15.0017 4.1817 14.1417 5.0317 14.1417 6.0717C14.1417 7.1117 15.0017 7.9417 16.0417 7.9717ZM6.0717 17.9517C7.1017 17.9517 7.9617 17.1017 7.9617 16.0517C7.9617 15.0217 7.1017 14.1717 6.0717 14.1717C5.0417 14.1717 4.1917 15.0117 4.1917 16.0517C4.1917 17.1017 5.0417 17.9517 6.0717 17.9517ZM16.0417 17.9517C17.0717 17.9517 17.9217 17.1017 17.9217 16.0517C17.9217 15.0117 17.0717 14.1717 16.0417 14.1717C15.0017 14.1717 14.1717 15.0117 14.1717 16.0517C14.1717 17.1017 15.0017 17.9517 16.0417 17.9517Z" />
        </svg>
    