
        <svg xmlns="http://www.w3.org/2000/svg" viewBox="0 0 100 100">
            <path d="M0.0017 13.0791C0.0017 21.2691 2.6917 26.1591 8.4217 26.1591H13.6017C16.6917 26.1591 18.8217 23.5291 19.7617 18.9591L16.2817 15.9091C15.9517 19.7091 14.9717 21.9891 13.6017 21.9891C11.9417 21.9891 10.8317 18.5491 10.8317 13.0791C10.8317 7.6091 11.9417 4.1591 13.6017 4.1591C14.9617 4.1591 15.9517 6.4291 16.2817 10.2291L19.7617 7.2091C18.8317 2.6091 16.6917 -0.0009 13.6017 -0.0009H8.4217C2.6917 -0.0009 0.0017 4.8891 0.0017 13.0791ZM7.0117 20.0491H7.7217C7.9117 20.7491 8.1217 21.3991 8.3817 21.9891C5.5317 21.9491 4.1617 18.5491 4.1617 13.0791C4.1617 7.6091 5.5317 4.2091 8.3817 4.1591C8.1317 4.7491 7.9117 5.3791 7.7317 6.0691H7.0117C6.4817 6.0691 6.0117 6.5291 6.0117 7.0691C6.0117 7.6091 6.4617 8.0491 7.0117 8.0491H7.3117C7.2617 8.3391 7.2217 8.6391 7.1817 8.9391H6.4017C5.8517 8.9391 5.4017 9.3891 5.4017 9.9391C5.4017 10.4891 5.8517 10.9491 6.4017 10.9491H6.9917C6.9817 11.3091 6.9617 11.6791 6.9517 12.0691H6.1517C5.6017 12.0691 5.1817 12.5191 5.1817 13.0691C5.1817 13.6091 5.6017 14.0491 6.1517 14.0491H6.9517C6.9617 14.4391 6.9817 14.8091 6.9917 15.1791H6.4017C5.8517 15.1791 5.4017 15.6291 5.4017 16.1791C5.4017 16.7391 5.8517 17.1791 6.4017 17.1791H7.1817C7.2217 17.4891 7.2517 17.7791 7.3017 18.0691H7.0117C6.4617 18.0691 6.0117 18.5191 6.0117 19.0691C6.0117 19.5891 6.4817 20.0491 7.0117 20.0491ZM17.0317 13.9891L21.4017 17.8391C22.3617 18.6691 23.6217 18.1391 23.6217 16.8391V14.8491H29.1817C30.2717 14.8491 30.9417 14.0591 30.9417 13.0791C30.9417 12.0891 30.2717 11.3091 29.1817 11.3091H23.6217V9.2691C23.6217 8.0291 22.3317 7.4991 21.4017 8.3191L17.0317 12.1391C16.4317 12.6691 16.4317 13.4791 17.0317 13.9891Z" />
        </svg>
    