
        <svg xmlns="http://www.w3.org/2000/svg" viewBox="0 0 100 100">
            <path d="M8.5958 11.5205C8.5958 18.6105 10.5858 23.0405 15.2858 23.0405H16.9658C15.9958 22.2505 15.2158 21.0605 14.6258 19.5105H12.8558C12.5358 19.5105 12.2458 19.2405 12.2458 18.9005C12.2458 18.5705 12.5358 18.2905 12.8558 18.2905H14.2258C13.9958 17.5005 13.8158 16.5905 13.7158 15.9305H12.0258C11.6958 15.9305 11.4158 15.6405 11.4158 15.3205C11.4158 14.9805 11.6958 14.7105 12.0258 14.7105H13.5658C13.4658 13.8305 13.3958 12.7605 13.3958 12.0305H11.7358C11.3958 12.0305 11.1258 11.7705 11.1258 11.4305C11.1258 11.0905 11.3958 10.8205 11.7358 10.8205H13.3958C13.4058 9.9705 13.4658 9.0205 13.5758 8.1405H12.0258C11.6958 8.1405 11.4158 7.8705 11.4158 7.5305C11.4158 7.2105 11.6958 6.9305 12.0258 6.9305H13.7358C13.8758 6.1005 14.0458 5.3105 14.2858 4.5605H12.8558C12.5358 4.5605 12.2458 4.2805 12.2458 3.9505C12.2458 3.6105 12.5358 3.3405 12.8558 3.3405H14.6958C15.2758 1.8705 16.0458 0.7505 16.9658 0.0005H15.2858C10.5858 0.0005 8.5958 4.4305 8.5958 11.5205ZM14.7558 11.5205C14.7558 18.2505 16.8058 22.7305 19.8058 22.7305C22.8158 22.7305 24.8758 18.2505 24.8758 11.5205C24.8758 4.7905 22.8158 0.3005 19.8058 0.3005C16.8058 0.3005 14.7558 4.7905 14.7558 11.5205ZM0.4758 16.9805C-0.1342 17.2005 -0.1342 17.9605 0.3558 18.2805L3.8358 20.5105C4.2858 20.7905 4.7858 20.5905 4.9358 20.1105L6.1658 16.1805C6.3458 15.6305 5.8858 15.0205 5.2458 15.2505L3.5658 15.8505C3.0558 14.0605 2.8058 12.2005 2.8058 10.1905C2.8058 7.6805 3.2058 5.3805 4.0358 3.1405C4.2358 2.5905 3.8258 2.2305 3.4058 2.2305C3.1258 2.2305 2.8558 2.3505 2.7358 2.6705C1.8658 5.0705 1.4258 7.5205 1.4258 10.1905C1.4258 12.3605 1.7158 14.3705 2.2758 16.3205Z" />
        </svg>
    