
        <svg xmlns="http://www.w3.org/2000/svg" viewBox="0 0 100 100">
            <path d="M7.8617 10.8642C7.8617 17.3642 9.7217 21.7142 14.0317 21.7142H16.3917C15.4917 21.1042 14.7617 20.0542 14.2117 18.6342H12.0817C11.9217 18.6342 11.7917 18.5042 11.7917 18.3442C11.7917 18.1842 11.9217 18.0542 12.0817 18.0542H13.9917C13.6517 17.0042 13.4017 15.7642 13.3017 15.0442H11.1717C11.0017 15.0442 10.8717 14.9142 10.8717 14.7542C10.8717 14.5942 11.0017 14.4642 11.1717 14.4642H13.2317C13.0917 13.3442 13.0217 11.8842 13.0217 11.1542H10.8617C10.7117 11.1542 10.5717 11.0242 10.5717 10.8642C10.5717 10.6942 10.7117 10.5742 10.8617 10.5742H13.0217C13.0217 9.5842 13.0917 8.3742 13.2317 7.2642H11.1717C11.0017 7.2642 10.8717 7.1342 10.8717 6.9742C10.8717 6.8242 11.0017 6.6842 11.1717 6.6842H13.3017C13.4717 5.6442 13.6717 4.6242 13.9917 3.6842H12.0817C11.9217 3.6842 11.7917 3.5542 11.7917 3.3842C11.7917 3.2242 11.9217 3.0942 12.0817 3.0942H14.2117C14.7617 1.6742 15.4917 0.6142 16.3917 0.0042H14.0317C9.7217 0.0042 7.8617 4.3642 7.8617 10.8642ZM13.9017 10.8642C13.9017 17.1942 15.6817 21.4242 18.2717 21.4242C20.8617 21.4242 22.6317 17.1942 22.6317 10.8642C22.6317 4.5342 20.8617 0.3042 18.2717 0.3042C15.6817 0.3042 13.9017 4.5342 13.9017 10.8642ZM2.9217 19.4142C3.1017 19.4142 3.2817 19.2442 3.1917 18.9942C2.3217 16.6742 1.9317 14.5342 1.9317 12.1142C1.9317 10.0542 2.2217 8.1842 2.8517 6.2342L4.5217 6.8342C4.9117 6.9742 5.1717 6.6142 5.0717 6.2342L4.1017 2.6442C4.0217 2.3242 3.6217 2.1342 3.2917 2.3542L0.2417 4.4742C-0.0683 4.7142 -0.1083 5.1642 0.2817 5.2942L2.3017 6.0342C1.6517 8.0642 1.3617 10.0042 1.3617 12.1142C1.3617 14.5742 1.7617 16.8042 2.6517 19.2142C2.7117 19.3642 2.8017 19.4142 2.9217 19.4142Z" />
        </svg>
    