
        <svg xmlns="http://www.w3.org/2000/svg" viewBox="0 0 100 100">
            <path d="M10.8517 8.7213C17.1917 8.7213 21.4117 6.9513 21.4117 4.3613C21.4117 1.7712 17.1917 0.0012 10.8517 0.0012C4.5217 0.0012 0.3017 1.7712 0.3017 4.3613C0.3017 6.9513 4.5217 8.7213 10.8517 8.7213ZM10.8517 14.7613C17.3717 14.7613 21.7117 12.9013 21.7117 8.6013V6.2312C21.1017 7.1213 20.0517 7.8613 18.6317 8.4113V10.5513C18.6317 10.7113 18.4917 10.8413 18.3417 10.8413C18.1717 10.8413 18.0517 10.7113 18.0517 10.5513V8.6413C16.9917 8.9813 15.7617 9.2213 15.0317 9.3313V11.4613C15.0317 11.6213 14.9017 11.7513 14.7417 11.7513C14.5917 11.7513 14.4617 11.6213 14.4617 11.4613V9.4012C13.3517 9.5313 11.8817 9.6113 11.1417 9.6113V11.7613C11.1417 11.9213 11.0117 12.0513 10.8617 12.0513C10.7017 12.0513 10.5717 11.9213 10.5717 11.7613V9.6113C9.5717 9.6113 8.3817 9.5313 7.2617 9.4012V11.4613C7.2617 11.6213 7.1217 11.7513 6.9717 11.7513C6.8117 11.7513 6.6817 11.6213 6.6817 11.4613V9.3313C5.6417 9.1413 4.6217 8.9513 3.6717 8.6413V10.5513C3.6717 10.7113 3.5417 10.8413 3.3717 10.8413C3.2217 10.8413 3.0917 10.7113 3.0917 10.5513V8.4113C1.6617 7.8613 0.6117 7.1213 0.0017 6.2312V8.6013C0.0017 12.9013 4.3517 14.7613 10.8517 14.7613ZM2.2617 19.7113C2.2617 19.8313 2.3217 19.9213 2.4617 19.9813C4.8717 20.8612 7.0917 21.2712 9.5517 21.2712C11.6717 21.2712 13.6217 20.9613 15.6517 20.3213L16.2117 22.2912C16.3117 22.6913 16.7717 22.6913 17.0417 22.3713L19.3717 19.4913C19.6017 19.1713 19.4417 18.7712 19.1117 18.6513L15.6317 17.4413C15.2417 17.3213 14.8717 17.5513 14.9717 17.9413L15.4917 19.7613C13.5217 20.4013 11.6417 20.6913 9.5517 20.6913C7.1517 20.6913 5.0017 20.3013 2.6817 19.4313C2.4417 19.3513 2.2617 19.5212 2.2617 19.7113Z" />
        </svg>
    