
        <svg xmlns="http://www.w3.org/2000/svg" viewBox="0 0 100 100">
            <path d="M13.6517 13.5984L17.3317 9.4084C18.1217 8.5184 17.6417 7.3284 16.3917 7.3284H14.3817V1.5784C14.3817 0.6184 13.6717 -0.0016 12.7817 -0.0016C11.8917 -0.0016 11.2017 0.6184 11.2017 1.5784V7.3284H9.1317C7.9617 7.3284 7.4617 8.5284 8.2417 9.4084L11.9017 13.5984C12.4017 14.1584 13.1617 14.1684 13.6517 13.5984ZM10.5117 14.8284L7.7417 11.6684C3.3017 12.4484 0.7717 14.3184 0.7717 16.9384C0.7717 20.4284 5.2717 22.6084 12.7817 22.6084C20.3017 22.6084 24.8017 20.4284 24.8017 16.9384C24.8017 14.3184 22.2617 12.4484 17.8317 11.6684L15.0517 14.8284C13.8117 16.2284 11.7417 16.2284 10.5117 14.8284ZM12.7817 30.0784C20.7817 30.0784 25.5717 27.5284 25.5717 21.9984V20.6384C24.6917 21.7284 23.3817 22.6184 21.7017 23.2684V24.9484C21.7017 25.4684 21.2717 25.8984 20.7617 25.8984C20.2517 25.8984 19.8317 25.4784 19.8317 24.9484V23.8784C19.1817 24.0484 18.5017 24.1784 17.8217 24.2884V25.6084C17.8217 26.1284 17.4017 26.5584 16.8717 26.5584C16.3617 26.5584 15.9217 26.1284 15.9217 25.6084V24.5284C15.2017 24.5984 14.4417 24.6484 13.6717 24.6584V25.8584C13.6717 26.3884 13.2517 26.7984 12.7417 26.7984C12.2217 26.7984 11.8017 26.3884 11.8017 25.8584V24.6584C11.0317 24.6484 10.2817 24.5984 9.5517 24.5284V25.6084C9.5517 26.1284 9.1217 26.5584 8.6017 26.5584C8.0817 26.5584 7.6617 26.1284 7.6617 25.6084V24.2784C6.9617 24.1684 6.2817 24.0184 5.6617 23.8484V24.9484C5.6617 25.4784 5.2417 25.8984 4.7217 25.8984C4.2117 25.8984 3.7717 25.4684 3.7717 24.9484V23.2384C2.1317 22.5784 0.8717 21.6984 0.0017 20.6384V21.9984C0.0017 27.5284 4.7917 30.0784 12.7817 30.0784Z" />
        </svg>
    