
        <svg xmlns="http://www.w3.org/2000/svg" viewBox="0 0 100 100">
            <path d="M0.0017 1.2063C0.0017 1.8663 0.5417 2.4063 1.1917 2.4063H22.8517C23.5117 2.4063 24.0517 1.8663 24.0517 1.2063C24.0517 0.5363 23.5117 -0.0038 22.8517 -0.0038H1.1917C0.5417 -0.0038 0.0017 0.5363 0.0017 1.2063ZM0.0017 7.1863C0.0017 7.8363 0.5417 8.3762 1.1917 8.3762H5.2817C5.9517 8.3762 6.4917 7.8363 6.4917 7.1863C6.4917 6.5263 5.9517 5.9863 5.2817 5.9863H1.1917C0.5417 5.9863 0.0017 6.5263 0.0017 7.1863ZM8.7917 7.1863C8.7917 7.8363 9.3317 8.3762 9.9817 8.3762H14.0617C14.7217 8.3762 15.2617 7.8363 15.2617 7.1863C15.2617 6.5263 14.7217 5.9863 14.0617 5.9863H9.9817C9.3317 5.9863 8.7917 6.5263 8.7917 7.1863ZM17.5517 7.1863C17.5517 7.8363 18.0917 8.3762 18.7617 8.3762H22.7717C23.4417 8.3762 23.9717 7.8363 23.9717 7.1863C23.9717 6.5263 23.4417 5.9863 22.7717 5.9863H18.7617C18.0917 5.9863 17.5517 6.5263 17.5517 7.1863Z" />
        </svg>
    