
        <svg xmlns="http://www.w3.org/2000/svg" viewBox="0 0 100 100">
            <path d="M15.3717 0.0038C14.3717 0.0038 13.5917 0.8337 13.5917 1.7737V11.0138L13.7617 12.6938L13.3217 11.7038L12.2717 10.5938C11.9717 10.2938 11.5817 10.1038 11.1317 10.1038C10.3817 10.1038 9.6417 10.6738 9.6417 11.5338C9.6417 11.9738 9.8017 12.2838 10.0917 12.5738L13.9117 16.2137C14.3917 16.6737 14.8817 16.8537 15.3717 16.8537C15.8717 16.8537 16.3617 16.6737 16.8417 16.2137L20.6617 12.5738C20.9417 12.2838 21.1017 11.9738 21.1017 11.5338C21.1017 10.6738 20.3517 10.1038 19.6017 10.1038C19.1617 10.1038 18.7717 10.2938 18.4817 10.5938L17.4217 11.7038L16.9917 12.6938L17.1517 11.0138V1.7737C17.1517 0.8337 16.3817 0.0038 15.3717 0.0038ZM3.9517 25.3337H11.0117V26.7638C10.1217 26.7638 9.4217 27.5138 9.4217 28.3338C9.4217 29.1538 10.1217 29.9138 11.0117 29.9138H19.7317C20.6217 29.9138 21.3317 29.1538 21.3317 28.3338C21.3317 27.5138 20.6217 26.7638 19.7317 26.7638V25.3337H26.8017C29.2817 25.3337 30.7517 23.8738 30.7517 21.3838V6.9638C30.7517 4.4838 29.2817 3.0237 26.8017 3.0237H19.4017V6.9037H26.2017C26.6117 6.9037 26.8617 7.1438 26.8617 7.5738V20.7938C26.8617 21.2038 26.6117 21.4438 26.2017 21.4438H4.5517C4.1417 21.4438 3.8917 21.2038 3.8917 20.7938V7.5738C3.8917 7.1438 4.1417 6.9037 4.5517 6.9037H11.3417V3.0237H3.9517C1.4617 3.0237 0.0017 4.4838 0.0017 6.9638V21.3838C0.0017 23.8738 1.4617 25.3337 3.9517 25.3337Z" />
        </svg>
    