
        <svg xmlns="http://www.w3.org/2000/svg" viewBox="0 0 100 100">
            <path d="M8.9217 8.387H17.9917C19.4517 8.387 20.2817 7.557 20.2817 6.127V2.257C20.2817 0.817 19.4517 -0.003 17.9917 -0.003H8.9217C7.4517 -0.003 6.6217 0.817 6.6217 2.257V6.127C6.6217 7.557 7.4517 8.387 8.9217 8.387ZM8.9417 7.017C8.3517 7.017 7.9917 6.657 7.9917 6.047V2.327C7.9917 1.737 8.3517 1.367 8.9417 1.367H17.9617C18.5517 1.367 18.9117 1.737 18.9117 2.327V6.047C18.9117 6.657 18.5517 7.017 17.9617 7.017ZM0.6417 11.817H26.2717C26.6217 11.817 26.9017 11.497 26.9017 11.147C26.9017 10.777 26.6217 10.467 26.2717 10.467H0.6417C0.2817 10.467 0.0017 10.777 0.0017 11.147C0.0017 11.497 0.2817 11.817 0.6417 11.817ZM4.9117 24.067H22.0117C23.4617 24.067 24.2917 23.237 24.2917 21.807V17.937C24.2917 16.497 23.4617 15.677 22.0117 15.677H4.9117C3.4417 15.677 2.6117 16.497 2.6117 17.937V21.807C2.6117 23.237 3.4417 24.067 4.9117 24.067ZM4.9317 22.697C4.3517 22.697 3.9817 22.337 3.9817 21.727V18.007C3.9817 17.417 4.3517 17.047 4.9317 17.047H21.9717C22.5717 17.047 22.9217 17.417 22.9217 18.007V21.727C22.9217 22.337 22.5717 22.697 21.9717 22.697ZM0.6417 27.497H26.2717C26.6217 27.497 26.9017 27.177 26.9017 26.827C26.9017 26.457 26.6217 26.147 26.2717 26.147H0.6417C0.2817 26.147 0.0017 26.457 0.0017 26.827C0.0017 27.177 0.2817 27.497 0.6417 27.497Z" />
        </svg>
    