
        <svg xmlns="http://www.w3.org/2000/svg" viewBox="0 0 100 100">
            <path d="M1.7017 3.4083H29.5217C30.4417 3.4083 31.2117 2.6383 31.2117 1.7083C31.2117 0.7783 30.4417 -0.0017 29.5217 -0.0017H1.7017C0.7617 -0.0017 0.0017 0.7783 0.0017 1.7083C0.0017 2.6383 0.7617 3.4083 1.7017 3.4083ZM6.1517 18.3183H25.0517C27.1217 18.3183 28.4217 17.0283 28.4217 14.9983V11.5383C28.4217 9.5183 27.1217 8.2283 25.0517 8.2283H6.1517C4.0917 8.2283 2.7917 9.5183 2.7917 11.5383V14.9983C2.7917 17.0283 4.0917 18.3183 6.1517 18.3183ZM6.8717 14.8983C6.4717 14.8983 6.2217 14.6383 6.2217 14.2283V12.3283C6.2217 11.9083 6.4717 11.6583 6.8717 11.6583H24.3317C24.7417 11.6583 24.9817 11.9083 24.9817 12.3283V14.2283C24.9817 14.6383 24.7417 14.8983 24.3317 14.8983ZM1.7017 23.1283C0.7617 23.1283 0.0017 23.9183 0.0017 24.8483C0.0017 25.7783 0.7617 26.5583 1.7017 26.5583H29.5217C30.4417 26.5583 31.2117 25.7783 31.2117 24.8483C31.2117 23.9183 30.4417 23.1283 29.5217 23.1283Z" />
        </svg>
    