
        <svg xmlns="http://www.w3.org/2000/svg" viewBox="0 0 100 100">
            <path d="M2.6417 24.163H3.8217V26.353C3.8217 26.813 4.2317 27.163 4.6917 27.163C5.1417 27.163 5.5417 26.813 5.5417 26.353V24.163H6.7117C8.4217 24.163 9.3517 23.213 9.3517 21.473V5.693C9.3517 3.953 8.4217 3.013 6.7117 3.013H5.5417V0.813C5.5417 0.353 5.1417 0.003 4.6917 0.003C4.2317 0.003 3.8217 0.353 3.8217 0.813V3.013H2.6417C0.9217 3.013 0.0017 3.953 0.0017 5.693V21.473C0.0017 23.213 0.9217 24.163 2.6417 24.163ZM17.0417 20.683H18.2217V26.353C18.2217 26.813 18.6217 27.163 19.0817 27.163C19.5317 27.163 19.9417 26.813 19.9417 26.353V20.683H21.1217C22.8317 20.683 23.7517 19.743 23.7517 18.003V9.163C23.7517 7.413 22.8317 6.483 21.1217 6.483H19.9417V0.813C19.9417 0.353 19.5317 0.003 19.0817 0.003C18.6217 0.003 18.2217 0.353 18.2217 0.813V6.483H17.0417C15.3317 6.483 14.4017 7.413 14.4017 9.163V18.003C14.4017 19.743 15.3317 20.683 17.0417 20.683Z" />
        </svg>
    