
        <svg xmlns="http://www.w3.org/2000/svg" viewBox="0 0 100 100">
            <path d="M1.0217 2.1236H27.7717C28.3517 2.1236 28.7917 1.6336 28.7917 1.0636C28.7917 0.4936 28.3517 0.0036 27.7717 0.0036H1.0217C0.4617 0.0036 0.0017 0.4936 0.0017 1.0636C0.0017 1.6336 0.4617 2.1236 1.0217 2.1236ZM5.6217 15.9236H23.1817C24.9917 15.9236 26.0117 14.9036 26.0117 13.1236V9.8036C26.0117 8.0236 24.9917 7.0236 23.1817 7.0236H5.6217C3.8017 7.0236 2.7817 8.0236 2.7817 9.8036V13.1236C2.7817 14.9036 3.8017 15.9236 5.6217 15.9236ZM1.0217 20.8236C0.4617 20.8236 0.0017 21.3036 0.0017 21.8836C0.0017 22.4536 0.4617 22.9436 1.0217 22.9436H27.7717C28.3517 22.9436 28.7917 22.4536 28.7917 21.8836C28.7917 21.3036 28.3517 20.8236 27.7717 20.8236Z" />
        </svg>
    