
        <svg xmlns="http://www.w3.org/2000/svg" viewBox="0 0 100 100">
            <path d="M1.7617 22.7703H3.7617V24.8303C3.7617 25.0503 3.9517 25.2303 4.1717 25.2303C4.4017 25.2303 4.5917 25.0503 4.5917 24.8303V22.7703H6.5817C7.6617 22.7703 8.3417 22.0903 8.3417 21.0003V4.2403C8.3417 3.1503 7.6617 2.4703 6.5817 2.4703H4.5917V0.4103C4.5917 0.1903 4.4017 0.0003 4.1717 0.0003C3.9517 0.0003 3.7617 0.1903 3.7617 0.4103V2.4703H1.7617C0.6817 2.4703 0.0017 3.1503 0.0017 4.2403V21.0003C0.0017 22.0903 0.6817 22.7703 1.7617 22.7703ZM15.8917 19.0903H17.8917V24.8303C17.8917 25.0503 18.0817 25.2303 18.3017 25.2303C18.5417 25.2303 18.7217 25.0503 18.7217 24.8303V19.0903H20.7217C21.8017 19.0903 22.4717 18.4103 22.4717 17.3203V7.9203C22.4717 6.8303 21.8017 6.1503 20.7217 6.1503H18.7217V0.4103C18.7217 0.1903 18.5417 0.0003 18.3017 0.0003C18.0817 0.0003 17.8917 0.1903 17.8917 0.4103V6.1503H15.8917C14.8117 6.1503 14.1317 6.8303 14.1317 7.9203V17.3203C14.1317 18.4103 14.8117 19.0903 15.8917 19.0903ZM1.8017 21.9303C1.2317 21.9303 0.8417 21.5503 0.8417 20.9603V4.2703C0.8417 3.6903 1.2317 3.3203 1.8017 3.3203H6.5417C7.1217 3.3203 7.5017 3.6903 7.5017 4.2703V20.9603C7.5017 21.5503 7.1217 21.9303 6.5417 21.9303ZM15.9417 18.2503C15.3517 18.2503 14.9717 17.8603 14.9717 17.2803V7.9603C14.9717 7.3803 15.3517 7.0003 15.9417 7.0003H20.6717C21.2617 7.0003 21.6317 7.3803 21.6317 7.9603V17.2803C21.6317 17.8603 21.2617 18.2503 20.6717 18.2503Z" />
        </svg>
    