
        <svg xmlns="http://www.w3.org/2000/svg" viewBox="0 0 100 100">
            <path d="M2.9217 25.6453H3.8517V27.7853C3.8517 28.4453 4.4017 28.9653 5.0617 28.9653C5.7217 28.9653 6.2817 28.4453 6.2817 27.7853V25.6453H7.1917C9.0317 25.6453 10.1117 24.5553 10.1117 22.6753V6.2953C10.1117 4.4153 9.0317 3.3253 7.1917 3.3253H6.2817V1.1853C6.2817 0.5253 5.7217 -0.0047 5.0617 -0.0047C4.4017 -0.0047 3.8517 0.5253 3.8517 1.1853V3.3253H2.9217C1.0817 3.3253 0.0017 4.4153 0.0017 6.2953V22.6753C0.0017 24.5553 1.0817 25.6453 2.9217 25.6453ZM18.1517 22.1053H19.0817V27.7853C19.0817 28.4453 19.6417 28.9653 20.3017 28.9653C20.9517 28.9653 21.5017 28.4453 21.5017 27.7853V22.1053H22.4317C24.2717 22.1053 25.3517 20.9953 25.3517 19.1353V9.8453C25.3517 7.9653 24.2717 6.8653 22.4317 6.8653H21.5017V1.1853C21.5017 0.5253 20.9517 -0.0047 20.3017 -0.0047C19.6417 -0.0047 19.0817 0.5253 19.0817 1.1853V6.8653H18.1517C16.3117 6.8653 15.2317 7.9653 15.2317 9.8453V19.1353C15.2317 20.9953 16.3117 22.1053 18.1517 22.1053ZM3.3017 23.1753C2.7617 23.1753 2.4617 22.8753 2.4617 22.3553V6.6053C2.4617 6.0953 2.7617 5.7853 3.3017 5.7853H6.8117C7.3517 5.7853 7.6517 6.0953 7.6517 6.6053V22.3553C7.6517 22.8753 7.3517 23.1753 6.8117 23.1753ZM18.5417 19.6453C18.0017 19.6453 17.6917 19.3353 17.6917 18.8053V10.1553C17.6917 9.6353 18.0017 9.3253 18.5417 9.3253H22.0417C22.5817 9.3253 22.8917 9.6353 22.8917 10.1553V18.8053C22.8917 19.3353 22.5817 19.6453 22.0417 19.6453Z" />
        </svg>
    