
        <svg xmlns="http://www.w3.org/2000/svg" viewBox="0 0 100 100">
            <path d="M0.8517 27.163C1.3217 27.163 1.7217 26.813 1.7217 26.353V0.813C1.7217 0.353 1.3217 0.003 0.8517 0.003C0.4017 0.003 0.0017 0.353 0.0017 0.813V26.353C0.0017 26.813 0.4017 27.163 0.8517 27.163ZM17.8817 27.163C18.3417 27.163 18.7417 26.813 18.7417 26.353V0.813C18.7417 0.353 18.3417 0.003 17.8817 0.003C17.4217 0.003 17.0117 0.353 17.0117 0.813V26.353C17.0117 26.813 17.4217 27.163 17.8817 27.163ZM6.2817 24.843H10.3617C12.0717 24.843 12.9917 23.893 12.9917 22.153V5.013C12.9917 3.273 12.0717 2.333 10.3617 2.333H6.2817C4.5817 2.333 3.6417 3.273 3.6417 5.013V22.153C3.6417 23.893 4.5817 24.843 6.2817 24.843ZM23.3117 20.683H27.3917C29.1017 20.683 30.0217 19.743 30.0217 18.003V9.163C30.0217 7.413 29.1017 6.483 27.3917 6.483H23.3117C21.6017 6.483 20.6717 7.413 20.6717 9.163V18.003C20.6717 19.743 21.6017 20.683 23.3117 20.683Z" />
        </svg>
    