
        <svg xmlns="http://www.w3.org/2000/svg" viewBox="0 0 100 100">
            <path d="M12.7923 25.5978C19.8723 25.5978 25.6023 19.8678 25.6023 12.7978C25.6023 5.7278 19.8723 -0.0022 12.7923 -0.0022C5.7323 -0.0022 0.0023 5.7278 0.0023 12.7978C0.0023 19.8678 5.7323 25.5978 12.7923 25.5978ZM12.7923 10.4878C11.6323 10.4878 10.7623 9.7378 10.7623 8.7278C10.7623 7.7078 11.6323 6.9478 12.7923 6.9478C13.9823 6.9478 14.8223 7.7078 14.8223 8.7278C14.8223 9.7378 13.9823 10.4878 12.7923 10.4878ZM8.3823 14.3278C7.5223 14.3278 6.9023 13.6978 6.9023 12.8178C6.9023 11.9678 7.5223 11.3078 8.3823 11.3078H17.2123C18.0723 11.3078 18.6923 11.9678 18.6923 12.8178C18.6923 13.6978 18.0723 14.3278 17.2123 14.3278ZM12.7923 18.6278C11.6323 18.6278 10.7623 17.8978 10.7623 16.8778C10.7623 15.8578 11.6323 15.1078 12.7923 15.1078C13.9823 15.1078 14.8223 15.8578 14.8223 16.8778C14.8223 17.8978 13.9823 18.6278 12.7923 18.6278Z" />
        </svg>
    