
        <svg xmlns="http://www.w3.org/2000/svg" viewBox="0 0 100 100">
            <path d="M11.4923 22.977C17.8123 22.977 22.9823 17.827 22.9823 11.497C22.9823 5.167 17.8123 -0.003 11.4923 -0.003C5.1723 -0.003 0.0023 5.167 0.0023 11.497C0.0023 17.827 5.1723 22.977 11.4923 22.977ZM11.4823 8.017C11.0323 8.017 10.6523 7.687 10.6523 7.227C10.6523 6.757 11.0323 6.387 11.4823 6.387C11.9623 6.387 12.3323 6.747 12.3323 7.217C12.3323 7.667 11.9623 8.017 11.4823 8.017ZM6.2723 11.967C5.9923 11.967 5.7823 11.787 5.7823 11.507C5.7823 11.227 5.9723 11.067 6.2723 11.067H16.7023C16.9923 11.067 17.1923 11.227 17.1923 11.507C17.1923 11.787 16.9923 11.967 16.7023 11.967ZM11.4823 16.627C11.0323 16.627 10.6523 16.287 10.6523 15.847C10.6523 15.377 11.0323 14.997 11.4823 14.997C11.9623 14.997 12.3323 15.367 12.3323 15.827C12.3323 16.277 11.9623 16.627 11.4823 16.627Z" />
        </svg>
    