
        <svg xmlns="http://www.w3.org/2000/svg" viewBox="0 0 100 100">
            <path d="M3.6817 21.5722H17.8917C20.3517 21.5722 21.5717 20.3722 21.5717 17.9522V3.6322C21.5717 1.2222 20.3517 0.0022 17.8917 0.0022H3.6817C1.2317 0.0022 0.0017 1.2222 0.0017 3.6322V17.9522C0.0017 20.3722 1.2317 21.5722 3.6817 21.5722ZM10.7717 7.7822C9.9617 7.7822 9.3317 7.1922 9.3317 6.4422C9.3317 5.5922 9.9617 4.9822 10.7717 4.9822C11.6617 4.9822 12.2617 5.5822 12.2617 6.4422C12.2617 7.1922 11.6517 7.7822 10.7717 7.7822ZM6.0917 11.8122C5.4117 11.8122 4.9417 11.4522 4.9417 10.8022C4.9417 10.1522 5.3917 9.7822 6.0917 9.7822H15.5017C16.2117 9.7822 16.6417 10.1522 16.6417 10.8022C16.6417 11.4522 16.1817 11.8122 15.5017 11.8122ZM10.7717 16.6022C9.9617 16.6022 9.3317 16.0122 9.3317 15.2622C9.3317 14.4022 9.9617 13.8022 10.7717 13.8022C11.6617 13.8022 12.2617 14.4022 12.2617 15.2622C12.2617 16.0122 11.6517 16.6022 10.7717 16.6022Z" />
        </svg>
    