
        <svg xmlns="http://www.w3.org/2000/svg" viewBox="0 0 100 100">
            <path d="M3.8417 21.8745H18.0317C20.5617 21.8745 21.8817 20.5745 21.8817 18.0745V3.8045C21.8817 1.3145 20.5617 0.0045 18.0317 0.0045H3.8417C1.3117 0.0045 0.0017 1.3045 0.0017 3.8045V18.0745C0.0017 20.5745 1.3117 21.8745 3.8417 21.8745ZM3.9817 19.5845C2.8917 19.5845 2.3017 19.0145 2.3017 17.8845V4.0045C2.3017 2.8745 2.8917 2.2945 3.9817 2.2945H17.8917C18.9717 2.2945 19.5817 2.8745 19.5817 4.0045V17.8845C19.5817 19.0145 18.9717 19.5845 17.8917 19.5845ZM10.9217 8.1545C11.8117 8.1545 12.4417 7.5745 12.4417 6.8045C12.4417 5.9545 11.8217 5.3545 10.9217 5.3545C10.0917 5.3545 9.4317 5.9545 9.4317 6.8045C9.4317 7.5745 10.0917 8.1545 10.9217 8.1545ZM6.4717 12.0045H15.4317C16.1117 12.0045 16.5717 11.6145 16.5717 10.9545C16.5717 10.2845 16.1217 9.8945 15.4317 9.8945H6.4717C5.7617 9.8945 5.3117 10.2845 5.3117 10.9545C5.3117 11.6145 5.7817 12.0045 6.4717 12.0045ZM10.9217 16.5345C11.8117 16.5345 12.4417 15.9345 12.4417 15.1745C12.4417 14.3245 11.8217 13.7345 10.9217 13.7345C10.0917 13.7345 9.4317 14.3345 9.4317 15.1745C9.4317 15.9345 10.0917 16.5345 10.9217 16.5345Z" />
        </svg>
    