
        <svg xmlns="http://www.w3.org/2000/svg" viewBox="0 0 100 100">
            <path d="M9.1417 1.9886C9.6817 1.9886 10.1517 1.5186 10.1517 1.0086C10.1517 0.4786 9.6817 -0.0014 9.1417 -0.0014C8.6117 -0.0014 8.1517 0.4786 8.1517 1.0086C8.1517 1.5186 8.6117 1.9886 9.1417 1.9886ZM0.2817 7.6686H18.0017C18.1617 7.6686 18.2917 7.5386 18.2917 7.3686C18.2917 7.2186 18.1617 7.0886 18.0017 7.0886H0.2817C0.1317 7.0886 0.0017 7.2186 0.0017 7.3686C0.0017 7.5386 0.1317 7.6686 0.2817 7.6686ZM9.1417 14.7586C9.6817 14.7586 10.1517 14.2986 10.1517 13.7586C10.1517 13.2586 9.6817 12.7586 9.1417 12.7586C8.6117 12.7586 8.1517 13.2586 8.1517 13.7586C8.1517 14.2986 8.6117 14.7586 9.1417 14.7586Z" />
        </svg>
    