
        <svg xmlns="http://www.w3.org/2000/svg" viewBox="0 0 100 100">
            <path d="M4.5917 23.2359H18.6417C21.5417 23.2359 23.2417 21.5459 23.2417 18.6459V4.5959C23.2417 1.6959 21.5417 -0.0041 18.6417 -0.0041H4.5917C1.7017 -0.0041 0.0017 1.6959 0.0017 4.5959V18.6459C0.0017 21.5459 1.7017 23.2359 4.5917 23.2359ZM11.7517 9.3159C10.5917 9.3159 9.7217 8.5659 9.7217 7.5559C9.7217 6.5359 10.5917 5.7759 11.7517 5.7759C12.9417 5.7759 13.7917 6.5359 13.7917 7.5559C13.7917 8.5659 12.9417 9.3159 11.7517 9.3159ZM7.3317 13.1559C6.4917 13.1559 5.8617 12.5259 5.8617 11.6459C5.8617 10.7959 6.4817 10.1359 7.3317 10.1359H16.1817C17.0417 10.1359 17.6517 10.7959 17.6517 11.6459C17.6517 12.5259 17.0317 13.1559 16.1817 13.1559ZM11.7517 17.4559C10.5917 17.4559 9.7217 16.7259 9.7217 15.7059C9.7217 14.6859 10.5917 13.9359 11.7517 13.9359C12.9417 13.9359 13.7917 14.6859 13.7917 15.7059C13.7917 16.7259 12.9417 17.4559 11.7517 17.4559Z" />
        </svg>
    