
        <svg xmlns="http://www.w3.org/2000/svg" viewBox="0 0 100 100">
            <path d="M3.1617 20.742H24.0317C26.1117 20.742 27.1917 19.642 27.1917 17.592V3.152C27.1917 1.102 26.1117 0.002 24.0317 0.002H3.1617C1.0917 0.002 0.0017 1.082 0.0017 3.152V17.592C0.0017 19.662 1.0917 20.742 3.1617 20.742ZM3.1917 19.872C1.6617 19.872 0.8717 19.082 0.8717 17.552V3.202C0.8717 1.662 1.6617 0.872 3.1917 0.872H24.0017C25.4717 0.872 26.3217 1.662 26.3217 3.202V17.552C26.3217 19.082 25.4717 19.872 24.0017 19.872ZM13.6017 12.582C13.8417 12.582 14.0417 12.382 14.0417 12.162V7.542L13.9917 5.102L16.2217 7.362L17.5317 8.682C17.6117 8.762 17.7217 8.812 17.8317 8.812C18.0917 8.812 18.2717 8.632 18.2717 8.402C18.2717 8.212 18.1517 8.102 18.0117 7.972L13.9217 3.952C13.8317 3.852 13.7217 3.812 13.6017 3.812C13.4717 3.812 13.3917 3.842 13.2817 3.952L9.1917 7.972C9.0617 8.102 8.9417 8.212 8.9417 8.402C8.9417 8.632 9.1017 8.812 9.3617 8.812C9.4817 8.812 9.6017 8.762 9.6817 8.682L10.9917 7.362L13.2117 5.102L13.1717 7.542V12.162C13.1717 12.382 13.3717 12.582 13.6017 12.582ZM4.5317 16.762C4.5317 17.372 4.9617 17.762 5.5917 17.762H21.6317C22.2617 17.762 22.6917 17.372 22.6917 16.762V15.272C22.6917 14.662 22.2617 14.252 21.6317 14.252H5.5917C4.9617 14.252 4.5317 14.662 4.5317 15.272Z" />
        </svg>
    