
        <svg xmlns="http://www.w3.org/2000/svg" viewBox="0 0 100 100">
            <path d="M3.8417 21.8628H23.9217C26.4517 21.8628 27.7617 20.5628 27.7617 18.0728V3.7928C27.7617 1.3028 26.4517 0.0028 23.9217 0.0028H3.8417C1.3117 0.0028 0.0017 1.2928 0.0017 3.7928V18.0728C0.0017 20.5628 1.3117 21.8628 3.8417 21.8628ZM3.9817 19.5728C2.8917 19.5728 2.3017 19.0028 2.3017 17.8728V3.9928C2.3017 2.8628 2.8917 2.2828 3.9817 2.2828H23.7817C24.8517 2.2828 25.4617 2.8628 25.4617 3.9928V17.8728C25.4617 19.0028 24.8517 19.5728 23.7817 19.5728ZM13.8917 4.0628C13.3117 4.0628 12.8717 4.5128 12.8717 5.0628V8.1128L12.9417 9.8928L12.1017 9.0128L10.7117 7.5828C10.5217 7.3828 10.2617 7.2728 10.0217 7.2728C9.4717 7.2728 9.0817 7.6628 9.0817 8.1928C9.0817 8.4828 9.1917 8.7028 9.4017 8.8928L13.1417 12.3828C13.4017 12.6328 13.6217 12.7228 13.8917 12.7228C14.1517 12.7228 14.3717 12.6328 14.6417 12.3828L18.3717 8.8928C18.5817 8.7028 18.6917 8.4828 18.6917 8.1928C18.6917 7.6628 18.2917 7.2728 17.7517 7.2728C17.4917 7.2728 17.2417 7.3828 17.0617 7.5828L15.6817 9.0128L14.8317 9.8928L14.9017 8.1128V5.0628C14.9017 4.5128 14.4517 4.0628 13.8917 4.0628ZM5.2517 16.7528C5.2517 17.4028 5.6917 17.8228 6.3517 17.8228H21.4317C22.0917 17.8228 22.5317 17.4028 22.5317 16.7528V15.0628C22.5317 14.4128 22.0917 13.9928 21.4317 13.9928H6.3517C5.6917 13.9928 5.2517 14.4128 5.2517 15.0628Z" />
        </svg>
    