
        <svg xmlns="http://www.w3.org/2000/svg" viewBox="0 0 100 100">
            <path d="M11.9523 23.9041C18.5523 23.9041 23.9023 18.5541 23.9023 11.9541C23.9023 5.3541 18.5523 0.0041 11.9523 0.0041C5.3523 0.0041 0.0023 5.3541 0.0023 11.9541C0.0023 18.5541 5.3523 23.9041 11.9523 23.9041ZM11.9523 21.9141C6.4423 21.9141 1.9923 17.4641 1.9923 11.9541C1.9923 6.4441 6.4423 1.9941 11.9523 1.9941C17.4623 1.9941 21.9123 6.4441 21.9123 11.9541C21.9123 17.4641 17.4623 21.9141 11.9523 21.9141ZM9.1623 18.2541H15.2823C16.5823 18.2541 17.2223 17.5941 17.2223 16.2741V11.2341H12.5823C11.7823 11.2341 11.3923 10.8641 11.3923 10.0541V5.3341H9.1623C7.8723 5.3341 7.2223 6.0041 7.2223 7.3141V16.2741C7.2223 17.6041 7.8723 18.2541 9.1623 18.2541ZM12.6823 10.2841H17.1523C17.1223 10.0341 16.9323 9.7741 16.6323 9.4641L13.1623 5.9341C12.8623 5.6241 12.6023 5.4341 12.3423 5.4041V9.9541C12.3423 10.1741 12.4523 10.2841 12.6823 10.2841Z" />
        </svg>
    