
        <svg xmlns="http://www.w3.org/2000/svg" viewBox="0 0 100 100">
            <path d="M5.8817 4.3461H7.7617C9.7117 4.3461 11.0617 4.8061 12.3617 6.1061L19.0117 12.7461C20.2617 13.9961 20.6017 15.5061 20.6017 17.3461V23.9161H20.9017C23.0617 23.9161 24.6917 22.6861 24.6917 19.9561V3.9761C24.6917 1.3861 23.3217 -0.0039 20.7517 -0.0039H9.8017C7.2617 -0.0039 5.8817 1.3861 5.8817 3.9361ZM11.7517 3.5461V3.2661C11.7517 2.9161 12.0217 2.4961 12.5717 2.4961H18.0017C18.5617 2.4961 18.8217 2.9161 18.8217 3.2661V3.5461C18.8217 3.9461 18.5117 4.3261 18.0017 4.3261H12.5717C12.0617 4.3261 11.7517 3.9461 11.7517 3.5461ZM0.0017 26.0861C0.0017 28.6861 1.3617 30.0561 3.9417 30.0561H14.8717C17.4417 30.0561 18.8117 28.6761 18.8117 26.0861V17.1061H10.3617C8.8717 17.1061 8.1217 16.3561 8.1217 14.8661V6.1361H3.9417C1.3717 6.1361 0.0017 7.5161 0.0017 10.1061ZM10.5717 15.3161H18.5817C18.4417 14.7861 18.1217 14.2761 17.5817 13.7261L11.4717 7.5361C10.9217 6.9761 10.4417 6.5961 9.9117 6.4361V14.6461C9.9117 15.0861 10.1417 15.3161 10.5717 15.3161Z" />
        </svg>
    