
        <svg xmlns="http://www.w3.org/2000/svg" viewBox="0 0 100 100">
            <path d="M2.1917 25.8984H4.3917C5.7417 25.8984 6.6417 24.9484 6.6417 23.8384C6.6417 23.2384 6.3717 22.4884 5.5617 22.1684C7.9417 21.3484 9.3017 19.8384 9.7017 17.4684C11.3917 18.5784 14.1117 18.7184 16.8517 18.3884C16.7817 19.9484 16.5517 22.4784 16.5517 23.5384C16.5517 25.0784 17.3817 25.9384 18.8717 25.9384H20.8117C22.3217 25.9384 23.2017 24.9484 23.2017 23.6984C23.2017 22.9084 22.8417 21.8784 21.3517 21.3984C21.4117 20.4584 22.1417 17.6684 22.5017 16.6284C23.1117 14.9184 24.2317 13.3284 24.2317 11.0884C24.2317 9.9284 24.5117 9.3884 24.7417 8.9284C25.5617 9.4384 26.2817 9.6184 27.0617 9.6184C29.0317 9.6184 30.9717 7.5084 30.9717 5.4184C30.9717 4.2984 29.2817 3.4584 28.3317 2.8684C27.4117 2.2584 26.6917 1.4784 25.9017 0.9584C25.8517 0.3384 25.4717 -0.0016 24.8217 -0.0016H21.7117C21.0117 -0.0016 20.6217 0.3884 20.6217 1.0984C20.6217 1.3784 20.7417 1.9584 20.9717 2.5684C19.3117 4.3384 19.4917 5.6084 16.8417 6.6084L7.3817 7.4084C7.0417 7.4384 6.7517 7.4884 6.5317 7.5484L5.6417 6.4684C4.1117 4.6484 1.2117 6.8084 2.8817 8.8084L3.8317 9.9384C3.4617 11.0584 3.2617 12.2684 3.2617 13.6784C3.2617 16.1484 3.0717 16.7784 2.2817 17.4184C0.6517 18.6884 0.0017 19.7184 0.0017 21.1984V23.6384C0.0017 24.9884 0.9017 25.8984 2.1917 25.8984ZM23.2617 3.6484C22.5617 3.6484 22.0217 2.0984 21.9417 1.4684C21.9117 1.3384 21.9917 1.2384 22.1617 1.2384H24.3917C24.5417 1.2384 24.6217 1.3384 24.6017 1.4684C24.5117 2.0984 23.9717 3.6484 23.2617 3.6484ZM23.2617 4.8884C24.4617 4.8884 25.2617 3.4684 25.6417 2.3184C26.2017 2.7784 26.7917 3.3884 27.5717 3.8784C28.6317 4.5584 29.5617 4.8284 29.5617 5.5884C29.5617 6.7484 28.3317 8.2184 27.0617 8.2184C26.3817 8.2184 25.8017 8.0284 24.8417 7.3484C24.4917 7.0984 24.1317 7.1584 23.9017 7.4884C23.1017 8.6984 22.8317 9.6484 22.8317 11.0884C22.8317 12.8084 21.8417 14.1684 21.1417 16.2584C20.7617 17.3884 19.9317 20.5184 19.9317 21.7284C19.9317 22.0184 20.0717 22.2784 20.4017 22.3784C21.5717 22.6084 21.7817 23.2384 21.7817 23.6284C21.7817 24.1784 21.4217 24.4884 20.8117 24.4884H18.9217C18.2917 24.4884 17.9617 24.1384 17.9617 23.4984C17.9617 21.3084 18.3717 18.2884 18.3917 17.2184C18.3917 16.8084 18.0117 16.5684 17.5617 16.7184C14.5417 17.6984 11.2617 17.1284 9.3617 15.6584C8.9617 15.3384 8.4617 15.5784 8.4617 16.0384C8.4617 19.0884 6.9417 20.5784 3.7017 21.3784C3.1617 21.5084 3.1617 22.3084 3.7017 22.4084C4.6717 22.5684 5.2217 22.9884 5.2217 23.6284C5.2217 24.1684 4.8317 24.4884 4.2517 24.4884H2.3417C1.7717 24.4884 1.4017 24.0984 1.4017 23.4984V21.1984C1.4017 20.2184 1.7617 19.6184 3.1417 18.5184C4.3617 17.5384 4.6717 16.3684 4.6717 13.6784C4.6717 12.1784 4.8517 10.6984 5.4217 9.8184L3.8917 8.0384C3.3417 7.4084 4.1717 6.7584 4.7117 7.3984L6.1917 9.1184C6.4217 8.9684 6.7117 8.8684 7.0617 8.8484L17.1217 8.0084C20.4717 6.8084 20.8017 5.2684 21.6917 3.9284C22.1017 4.4784 22.6317 4.8884 23.2617 4.8884ZM26.2517 5.5384C26.6717 5.5384 27.0217 5.1884 27.0217 4.7484C27.0217 4.3084 26.6717 3.9684 26.2517 3.9684C25.8017 3.9684 25.4517 4.3084 25.4517 4.7484C25.4517 5.1884 25.8017 5.5384 26.2517 5.5384Z" />
        </svg>
    