
        <svg xmlns="http://www.w3.org/2000/svg" viewBox="0 0 100 100">
            <path d="M11.7523 23.5048C18.2323 23.5048 23.5123 18.2348 23.5123 11.7548C23.5123 5.2748 18.2323 0.0048 11.7523 0.0048C5.2723 0.0048 0.0023 5.2748 0.0023 11.7548C0.0023 18.2348 5.2723 23.5048 11.7523 23.5048ZM16.1823 7.4048C15.3623 7.4048 14.9423 6.0148 14.9423 5.6348C14.9423 5.3248 15.1323 5.1248 15.4423 5.1248H16.9123C17.2423 5.1248 17.4123 5.3248 17.4123 5.6348C17.4123 6.0148 16.9823 7.4048 16.1823 7.4048ZM5.4223 18.2548C4.8323 18.2548 4.4323 17.8248 4.4323 17.2048V16.0348C4.4323 15.2348 4.7423 14.7548 5.5423 14.1348C5.9923 13.7548 6.0923 13.3948 6.0923 12.0948C6.0923 11.2948 6.2223 10.6548 6.4423 10.0548L5.9423 9.4348C5.2723 8.6648 6.3423 7.7548 6.9923 8.5448L7.4623 9.1148C7.5323 9.0748 7.6523 9.0348 7.8123 9.0248L12.9823 8.6048C14.2123 8.1348 14.3623 7.5348 14.8623 6.8548C15.1323 7.3948 15.5623 7.8748 16.1823 7.8748C17.1423 7.8748 17.6923 6.6748 17.8323 5.9748C18.2023 6.1948 18.4423 6.5648 18.9723 6.8948C19.5623 7.2648 20.0623 7.3248 20.0623 7.8748C20.0623 8.8748 19.1523 9.8748 18.2023 9.8748C17.7823 9.8748 17.4123 9.7748 16.9423 9.4848C16.8023 9.6548 16.6123 9.9748 16.6123 10.6248C16.6123 11.7848 16.0523 12.6548 15.6723 13.7548C15.4723 14.3048 15.0723 15.6948 14.9523 16.2748C14.9323 16.4048 15.0023 16.5048 15.1123 16.5348C15.8123 16.6648 15.9923 16.9148 15.9923 17.3548C15.9923 17.8348 15.6223 18.2548 14.9923 18.2548H13.9923C13.3523 18.2548 12.9423 17.8248 12.9423 17.1448C12.9423 16.5348 13.0423 15.1948 13.0823 14.3648C11.7023 14.6148 10.0623 14.4948 9.1723 13.8548C9.0123 15.1748 8.2023 16.0348 6.7623 16.1748C6.5323 16.1948 6.5323 16.5048 6.7823 16.5348C7.2923 16.5748 7.5723 16.8148 7.5723 17.3248C7.5723 17.8348 7.1823 18.2548 6.5523 18.2548ZM18.1523 7.9548C18.3523 7.9548 18.5023 7.7948 18.5023 7.5948C18.5023 7.3848 18.3523 7.2348 18.1523 7.2348C17.9323 7.2348 17.7923 7.3848 17.7923 7.5948C17.7923 7.7948 17.9323 7.9548 18.1523 7.9548Z" />
        </svg>
    