
        <svg xmlns="http://www.w3.org/2000/svg" viewBox="0 0 100 100">
            <path d="M12.7923 25.5978C19.8723 25.5978 25.6023 19.8678 25.6023 12.7978C25.6023 5.7278 19.8723 -0.0022 12.7923 -0.0022C5.7323 -0.0022 0.0023 5.7278 0.0023 12.7978C0.0023 19.8678 5.7323 25.5978 12.7923 25.5978ZM16.6523 9.0778C15.7823 9.0778 15.4023 7.7478 15.4023 7.3478C15.4023 6.9478 15.6123 6.7478 16.0523 6.7478H17.2623C17.6623 6.7478 17.8923 6.9478 17.8923 7.3478C17.8923 7.7478 17.4923 9.0778 16.6523 9.0778ZM7.2623 18.8178C6.6423 18.8178 6.1623 18.3678 6.1623 17.7278V16.7978C6.1623 16.0178 6.5423 15.5578 7.4323 14.8578C7.7023 14.6278 7.7623 14.3678 7.7623 13.1478C7.7623 12.3878 7.8723 11.7678 8.0723 11.2778L7.7223 10.8478C6.9723 10.0078 8.1723 8.9278 8.8923 9.8278L9.2223 10.2178C9.2823 10.1978 9.3323 10.1878 9.4323 10.1878L13.7223 9.8478C14.7223 9.5278 14.9223 9.1378 15.3023 8.6178C15.5723 9.1378 16.0323 9.5778 16.6523 9.5778C17.6623 9.5778 18.2423 8.3978 18.3523 7.6478C18.8123 7.8978 19.1023 8.2978 19.5123 8.5878C19.9823 8.9078 20.4823 8.9078 20.4823 9.5178C20.4823 10.5578 19.5023 11.5178 18.5323 11.5178C18.1023 11.5178 17.8223 11.3778 17.4723 11.1578C17.3823 11.2878 17.3223 11.5278 17.3223 11.9178C17.3223 13.0978 16.7823 13.8278 16.4323 14.9278C16.2623 15.4178 16.0123 16.4578 15.9223 16.8178C15.9123 16.9778 15.9523 17.0478 16.1223 17.0878C16.5623 17.1278 16.8523 17.3678 16.8523 17.9078C16.8523 18.3878 16.4523 18.8178 15.7623 18.8178H14.9323C14.2023 18.8178 13.7423 18.3378 13.7423 17.5878C13.7423 17.0978 13.8523 16.2278 13.8523 15.5178C12.6023 15.6078 11.5223 15.5578 10.7423 15.1178C10.5223 16.1378 9.7223 16.5378 8.5423 16.7978C8.3523 16.8078 8.3423 17.0778 8.5523 17.1178C9.1123 17.1678 9.4023 17.3678 9.4023 17.9078C9.4023 18.3878 9.0223 18.8178 8.3323 18.8178ZM18.6423 9.5878C18.8123 9.5878 18.9523 9.4578 18.9523 9.2778C18.9523 9.0978 18.8123 8.9578 18.6423 8.9578C18.4423 8.9578 18.3123 9.0978 18.3123 9.2778C18.3123 9.4578 18.4423 9.5878 18.6423 9.5878Z" />
        </svg>
    