
        <svg xmlns="http://www.w3.org/2000/svg" viewBox="0 0 100 100">
            <path d="M0.0023 14.581C0.0023 18.191 1.3023 21.481 3.4523 24.041C3.7523 24.391 4.2323 24.391 4.5623 24.061L7.4423 21.171C7.7023 20.921 7.7023 20.561 7.4723 20.281C6.2123 18.671 5.4823 16.711 5.4823 14.581C5.4823 9.941 8.9423 6.111 13.4023 5.501C13.7923 5.451 14.0623 5.161 14.0623 4.781V0.761C14.0623 0.301 13.7123 -0.039 13.2423 0.001C5.8223 0.711 0.0023 6.961 0.0023 14.581ZM29.2823 14.581C29.2823 6.961 23.4723 0.711 16.0423 0.001C15.5823 -0.039 15.2223 0.301 15.2223 0.761V4.781C15.2223 5.161 15.5023 5.451 15.8823 5.501C20.3523 6.111 23.8023 9.941 23.8023 14.581C23.8023 16.711 23.0823 18.671 21.8123 20.281C21.5823 20.571 21.5823 20.921 21.8423 21.181L24.7223 24.061C25.0523 24.401 25.5323 24.391 25.8323 24.041C27.9923 21.481 29.2823 18.181 29.2823 14.581ZM14.6323 20.911C14.8123 20.911 14.9723 20.761 14.9723 20.571V19.601C16.8723 19.491 18.6023 18.571 18.6023 16.591C18.6023 14.821 17.2723 14.161 15.5623 13.771L14.9723 13.631V11.041C15.6823 11.141 16.2323 11.461 16.5023 12.101C16.7223 12.501 17.0323 12.731 17.4623 12.731C17.9223 12.731 18.3523 12.471 18.3523 11.961C18.3523 10.561 16.7423 9.591 14.9723 9.471V8.491C14.9723 8.301 14.8123 8.151 14.6323 8.151C14.4523 8.151 14.2823 8.301 14.2823 8.491V9.461C12.4323 9.551 10.7723 10.561 10.7723 12.401C10.7723 14.151 12.1623 14.891 13.7323 15.231L14.2823 15.341V18.031C13.4523 17.971 12.8923 17.651 12.5723 16.951C12.3523 16.531 12.0923 16.321 11.6523 16.321C11.1223 16.321 10.7223 16.611 10.7223 17.161C10.7223 17.351 10.7723 17.531 10.8523 17.721C11.2923 18.881 12.6923 19.531 14.2823 19.601V20.571C14.2823 20.761 14.4523 20.911 14.6323 20.911ZM12.7423 12.231C12.7423 11.501 13.4323 11.111 14.2823 11.041V13.481C13.3123 13.231 12.7423 12.911 12.7423 12.231ZM16.6423 16.781C16.6423 17.601 15.9123 17.961 14.9723 18.031V15.501C15.8923 15.711 16.6423 15.991 16.6423 16.781Z" />
        </svg>
    