
        <svg xmlns="http://www.w3.org/2000/svg" viewBox="0 0 100 100">
            <path d="M28.9023 14.3955C28.9023 6.8555 23.1423 0.6755 15.7823 0.0055C15.3523 -0.0445 15.0223 0.2755 15.0223 0.7055V4.6555C15.0223 5.0155 15.2823 5.2855 15.6423 5.3355C20.1223 5.9255 23.5823 9.7455 23.5823 14.3955C23.5823 16.5155 22.8623 18.4755 21.5823 20.0755C21.3823 20.3355 21.3823 20.6655 21.6223 20.8855L24.4723 23.7355C24.7723 24.0555 25.2223 24.0355 25.5023 23.7255C27.6223 21.1955 28.9023 17.9455 28.9023 14.3955ZM0.0023 14.3955C0.0023 17.9455 1.2823 21.1955 3.4123 23.7255C3.6823 24.0355 4.1223 24.0355 4.4323 23.7355L7.2823 20.8855C7.5123 20.6555 7.5123 20.3355 7.3123 20.0755C6.0423 18.4755 5.3223 16.5155 5.3223 14.3955C5.3223 9.7455 8.7923 5.9255 13.2623 5.3355C13.6123 5.2855 13.8723 5.0155 13.8723 4.6555V0.7055C13.8723 0.2755 13.5423 -0.0445 13.1123 0.0055C5.7623 0.6755 0.0023 6.8555 0.0023 14.3955ZM14.4423 20.8455C14.6323 20.8455 14.8023 20.6755 14.8023 20.4855V19.4955C16.6723 19.3855 18.3323 18.4655 18.3323 16.5155C18.3323 14.7455 16.9723 14.0755 15.3023 13.7055L14.8023 13.5855V10.7055C15.6023 10.7855 16.1823 11.1855 16.4623 11.8955C16.6423 12.2855 16.9223 12.4955 17.3123 12.4955C17.7023 12.4955 18.1023 12.2655 18.1023 11.7855C18.1023 10.3955 16.4923 9.4055 14.8023 9.2755V8.2855C14.8023 8.0855 14.6323 7.9255 14.4423 7.9255C14.2423 7.9255 14.0723 8.0855 14.0723 8.2855V9.2755C12.2723 9.3755 10.6923 10.3955 10.6923 12.1755C10.6923 13.9255 12.1023 14.6255 13.6323 14.9855L14.0723 15.0755V18.0755C13.1723 18.0055 12.5623 17.6555 12.2323 16.8355C12.0323 16.4355 11.8023 16.2555 11.4023 16.2555C10.9423 16.2555 10.5823 16.5255 10.5823 17.0155C10.5823 17.1755 10.6323 17.3355 10.6923 17.5055C11.1223 18.7555 12.5523 19.4155 14.0723 19.4955V20.4855C14.0723 20.6755 14.2423 20.8455 14.4423 20.8455ZM12.4123 12.0255C12.4123 11.2055 13.1823 10.7855 14.0723 10.6955V13.4255C13.0823 13.1755 12.4123 12.8055 12.4123 12.0255ZM16.6123 16.6755C16.6123 17.6155 15.7823 18.0055 14.8023 18.0755V15.2355C15.7423 15.4455 16.6123 15.7555 16.6123 16.6755Z" />
        </svg>
    