
        <svg xmlns="http://www.w3.org/2000/svg" viewBox="0 0 100 100">
            <path d="M1.8917 23.1763H25.6417V22.2263C25.6417 21.6763 25.3117 21.3563 24.7717 21.3563H24.1517V8.6363H25.1417C25.9117 8.6363 26.3717 8.0663 26.3717 7.4863C26.3717 7.0663 26.1217 6.6763 25.6217 6.3863L15.3317 0.4563C14.8317 0.1663 14.2817 -0.0038 13.7617 -0.0038C13.2317 -0.0038 12.6817 0.1663 12.1917 0.4563L1.9017 6.3863C1.3817 6.6763 1.1617 7.0663 1.1617 7.4863C1.1617 8.0663 1.6017 8.6363 2.3917 8.6363H3.3917V21.3563H2.7517C2.2117 21.3563 1.8917 21.6763 1.8917 22.2263ZM5.4717 21.3563V7.0163L13.3917 2.5763C13.5017 2.5162 13.6417 2.4862 13.7617 2.4862C13.8917 2.4862 14.0117 2.5162 14.1317 2.5763L22.0517 7.0163V21.3563ZM13.7617 19.3663C13.9617 19.3663 14.1217 19.2063 14.1217 19.0063V18.0263C15.9917 17.9162 17.6617 16.9963 17.6617 15.0463C17.6617 13.2763 16.3017 12.6063 14.6217 12.2263L14.1217 12.1063V9.2263C14.9217 9.3163 15.5017 9.7163 15.7817 10.4263C15.9717 10.8163 16.2417 11.0163 16.6417 11.0163C17.0417 11.0163 17.4417 10.7963 17.4417 10.3163C17.4417 8.9163 15.8117 7.9363 14.1217 7.8063V6.8063C14.1217 6.6163 13.9617 6.4563 13.7617 6.4563C13.5717 6.4563 13.4017 6.6163 13.4017 6.8063V7.7963C11.5917 7.9063 10.0117 8.9263 10.0117 10.6962C10.0117 12.4563 11.4217 13.1563 12.9517 13.4963L13.4017 13.6063V16.6063C12.5017 16.5363 11.8817 16.1763 11.5517 15.3663C11.3517 14.9663 11.1217 14.7763 10.7217 14.7763C10.2617 14.7763 9.9117 15.0463 9.9117 15.5363C9.9117 15.7063 9.9517 15.8663 10.0217 16.0263C10.4417 17.2863 11.8717 17.9463 13.4017 18.0263V19.0063C13.4017 19.2063 13.5717 19.3663 13.7617 19.3663ZM11.7317 10.5563C11.7317 9.7363 12.5017 9.3063 13.4017 9.2263V11.9462C12.4117 11.7063 11.7317 11.3363 11.7317 10.5563ZM15.9417 15.2063C15.9417 16.1463 15.1017 16.5363 14.1217 16.6063V13.7663C15.0617 13.9763 15.9417 14.2863 15.9417 15.2063ZM1.1517 26.3763H26.2517C26.8717 26.3763 27.4017 25.8663 27.4017 25.2263C27.4017 24.5963 26.8717 24.0863 26.2517 24.0863H1.1517C0.5317 24.0863 0.0017 24.5963 0.0017 25.2263C0.0017 25.8663 0.5317 26.3763 1.1517 26.3763Z" />
        </svg>
    