
        <svg xmlns="http://www.w3.org/2000/svg" viewBox="0 0 100 100">
            <path d="M0.7217 24.497H24.6217C25.0217 24.497 25.3517 24.167 25.3517 23.767C25.3517 23.367 25.0217 23.037 24.6217 23.037H24.0017V22.247C24.0017 21.887 23.7917 21.677 23.4217 21.677H22.6717V7.597H23.7517C24.2417 7.597 24.5317 7.247 24.5317 6.867C24.5317 6.607 24.3917 6.367 24.0617 6.177L14.0017 0.377C13.5717 0.127 13.1117 -0.003 12.6717 -0.003C12.2317 -0.003 11.7617 0.127 11.3417 0.377L1.2917 6.177C0.9617 6.367 0.8217 6.607 0.8217 6.867C0.8217 7.247 1.0917 7.597 1.5917 7.597H2.6717V21.677H1.9217C1.5717 21.677 1.3517 21.887 1.3517 22.247V23.037H0.7217C0.3317 23.037 0.0017 23.367 0.0017 23.767C0.0017 24.167 0.3317 24.497 0.7217 24.497ZM11.9217 17.177C10.1117 17.177 8.8017 15.737 8.8017 13.747C8.8017 11.687 10.1917 10.327 11.9217 10.327C12.9817 10.327 13.9317 10.807 14.3517 11.767H14.4117V9.177H12.0917C11.9017 9.177 11.7517 9.027 11.7517 8.827C11.7517 8.647 11.9017 8.497 12.0917 8.497H14.4117V7.897C14.4117 7.557 14.6217 7.337 14.9617 7.337C15.3017 7.337 15.5117 7.557 15.5117 7.897V8.497H16.4517C16.6417 8.497 16.7917 8.647 16.7917 8.827C16.7917 9.007 16.6417 9.177 16.4517 9.177H15.5117V16.757C15.5117 17.067 15.2917 17.297 14.9917 17.297C14.6817 17.297 14.4517 17.067 14.4517 16.757V15.727H14.4017C13.9217 16.747 12.9617 17.177 11.9217 17.177ZM12.1917 16.217C13.5017 16.217 14.4117 15.157 14.4117 13.747C14.4117 12.407 13.5717 11.277 12.1917 11.277C10.8517 11.277 9.9417 12.307 9.9417 13.747C9.9417 15.127 10.7817 16.217 12.1917 16.217ZM9.3617 18.457C9.3617 18.257 9.5417 18.107 9.7417 18.107H15.5117C15.7017 18.107 15.8717 18.257 15.8717 18.457C15.8717 18.647 15.7017 18.807 15.5117 18.807H9.7417C9.5417 18.807 9.3617 18.657 9.3617 18.457Z" />
        </svg>
    