
        <svg xmlns="http://www.w3.org/2000/svg" viewBox="0 0 100 100">
            <path d="M6.5417 20.3108C8.4017 20.3108 10.2517 19.6408 10.9917 18.0708H11.1217L11.1317 18.2808C11.3517 19.6908 12.3417 20.4108 13.7917 20.4108C15.3617 20.4108 16.5017 19.5608 16.5017 17.6208V3.5908H18.1317C18.4917 3.5908 18.7717 3.3208 18.7717 2.9608C18.7717 2.6008 18.4917 2.3408 18.1317 2.3408H16.4717L16.4517 2.1608C16.2817 0.6708 15.1917 0.0008 13.7817 0.0008C12.2717 0.0008 11.3217 0.7608 11.1217 2.1708L11.1117 2.3408H7.4017C7.0417 2.3408 6.7617 2.6008 6.7617 2.9608C6.7617 3.3208 7.0417 3.5908 7.4017 3.5908H11.0817V7.7208H10.9817C10.3317 6.0008 8.4417 5.3708 6.5417 5.3708C2.6617 5.3708 0.0017 8.4708 0.0017 12.8008C0.0017 17.1008 2.5617 20.3108 6.5417 20.3108ZM8.3017 16.1708C6.5817 16.1708 5.4917 14.6108 5.4917 12.8008C5.4917 11.0408 6.4717 9.3708 8.3017 9.3708C10.0917 9.3708 11.1017 10.9808 11.1017 12.8008C11.1017 14.6008 10.0217 16.1708 8.3017 16.1708ZM1.1917 22.5508C1.1917 22.9008 1.4617 23.1708 1.8317 23.1708H16.5517C16.9117 23.1708 17.1917 22.9008 17.1917 22.5508C17.1917 22.1808 16.9117 21.9108 16.5517 21.9108H1.8317C1.4617 21.9108 1.1917 22.1808 1.1917 22.5508Z" />
        </svg>
    