
        <svg xmlns="http://www.w3.org/2000/svg" viewBox="0 0 100 100">
            <path d="M13.3723 4.4906C15.4723 4.4906 17.3823 5.2106 18.9023 6.4306C19.1523 6.6306 19.4623 6.6006 19.6923 6.3706L22.0123 4.0706C22.2823 3.8006 22.2823 3.4106 21.9923 3.1606C19.6623 1.1906 16.6423 0.0006 13.3723 0.0006C10.1023 0.0006 7.0823 1.1906 4.7423 3.1606C4.4623 3.4106 4.4623 3.8006 4.7323 4.0706L7.0623 6.3706C7.2923 6.6006 7.6123 6.6206 7.8723 6.4106C9.3723 5.2106 11.2923 4.4906 13.3723 4.4906ZM26.7423 13.3706C26.7423 10.0906 25.5723 7.0806 23.5823 4.7506C23.3423 4.4606 22.9323 4.4906 22.6723 4.7306L20.3623 7.0406C20.1423 7.2806 20.1323 7.6006 20.3223 7.8506C21.5423 9.3606 22.2523 11.2806 22.2523 13.3706C22.2523 15.4706 21.5323 17.4006 20.3323 18.9006C20.1223 19.1606 20.1323 19.4806 20.3523 19.7106L22.6623 22.0506C22.9223 22.3206 23.3223 22.3106 23.5623 22.0306C25.5423 19.7006 26.7423 16.6606 26.7423 13.3706ZM0.0023 13.3706C0.0023 16.6606 1.1923 19.7006 3.1923 22.0306C3.4223 22.3106 3.8323 22.3206 4.0823 22.0506L6.3823 19.7106C6.6223 19.4806 6.6323 19.1606 6.4223 18.9006C5.2223 17.4006 4.4923 15.4706 4.4923 13.3706C4.4923 11.2806 5.2123 9.3606 6.4223 7.8506C6.6223 7.6006 6.6023 7.2806 6.3723 7.0406L4.0623 4.7306C3.8123 4.4906 3.4123 4.4606 3.1623 4.7506C1.1823 7.0806 0.0023 10.0906 0.0023 13.3706ZM12.8523 17.1306C13.8823 17.1306 14.8323 16.6806 15.2923 15.5006H15.3523V16.9006C15.3523 17.0606 15.4923 17.1906 15.6423 17.1906C15.8123 17.1906 15.9423 17.0606 15.9423 16.9006V9.6106H16.9423C17.0623 9.6106 17.1723 9.5006 17.1723 9.3906C17.1723 9.2706 17.0623 9.1606 16.9423 9.1606H15.9423V8.3706C15.9423 8.1806 15.8223 8.0606 15.6423 8.0606C15.4523 8.0606 15.3423 8.1806 15.3423 8.3706V9.1606H13.0123C12.8923 9.1606 12.7823 9.2706 12.7823 9.3906C12.7823 9.5006 12.8923 9.6106 13.0123 9.6106H15.3423V12.4706H15.2723C14.8623 11.4406 13.9723 10.8606 12.8523 10.8606C11.2623 10.8606 10.0223 12.1906 10.0223 14.0006C10.0223 16.0006 11.4023 17.1306 12.8523 17.1306ZM12.9823 16.5906C11.5523 16.5906 10.6423 15.4406 10.6423 14.0006C10.6423 12.5506 11.5623 11.4106 12.9823 11.4106C14.3823 11.4106 15.3123 12.5606 15.3123 14.0006C15.3123 15.4606 14.3623 16.5906 12.9823 16.5906ZM10.4723 18.3706C10.4723 18.5106 10.5823 18.6006 10.7023 18.6006H16.0623C16.1823 18.6006 16.2923 18.4906 16.2923 18.3706C16.2923 18.2606 16.1823 18.1606 16.0623 18.1606H10.7023C10.5823 18.1606 10.4723 18.2606 10.4723 18.3706Z" />
        </svg>
    