
        <svg xmlns="http://www.w3.org/2000/svg" viewBox="0 0 100 100">
            <path d="M12.6023 25.1986C19.5623 25.1986 25.2023 19.5586 25.2023 12.5986C25.2023 5.6386 19.5623 -0.0014 12.6023 -0.0014C5.6523 -0.0014 0.0023 5.6386 0.0023 12.5986C0.0023 19.5586 5.6523 25.1986 12.6023 25.1986ZM11.3323 16.9086C9.3423 16.9086 8.0423 15.3186 8.0423 13.1486C8.0423 10.9886 9.3123 9.4186 11.3323 9.4186C12.3123 9.4186 13.2923 9.7586 13.6523 10.6486H13.7023V8.4486H11.7323C11.5323 8.4486 11.3923 8.3086 11.3923 8.1186C11.3923 7.9286 11.5323 7.7886 11.7323 7.7886H13.7123L13.7223 7.5786C13.8123 6.9286 14.2223 6.5986 14.9223 6.5986C15.6023 6.5986 16.0223 6.9286 16.1023 7.5786L16.1123 7.7886H16.9823C17.1823 7.7886 17.3123 7.9286 17.3123 8.1186C17.3123 8.3086 17.1823 8.4486 16.9823 8.4486H16.1323V15.7386C16.1323 16.5086 15.6923 16.9886 14.9223 16.9886C14.2923 16.9886 13.8423 16.6386 13.7323 16.0186L13.7223 15.7286H13.6623C13.2523 16.5686 12.2823 16.9086 11.3323 16.9086ZM12.1123 15.0186C13.0423 15.0186 13.7023 14.2386 13.7023 13.1486C13.7023 12.0686 13.0823 11.2486 12.1123 11.2486C11.1723 11.2486 10.5023 12.0186 10.5023 13.1486C10.5023 14.2386 11.1423 15.0186 12.1123 15.0186ZM8.6323 18.0986C8.6323 17.8986 8.7823 17.7586 8.9723 17.7586H16.1323C16.3323 17.7586 16.4723 17.8986 16.4723 18.0986C16.4723 18.2886 16.3323 18.4486 16.1323 18.4486H8.9723C8.7823 18.4486 8.6323 18.2886 8.6323 18.0986Z" />
        </svg>
    