
        <svg xmlns="http://www.w3.org/2000/svg" viewBox="0 0 100 100">
            <path d="M0.4317 23.7972C0.7017 23.7972 0.8817 23.6272 0.8817 23.3672V1.4872C0.8817 1.1172 1.1217 0.8772 1.4617 0.8772H24.9517C25.2917 0.8772 25.5317 1.1172 25.5317 1.4872V23.3672C25.5317 23.6272 25.7217 23.7972 25.9817 23.7972C26.2217 23.7972 26.4117 23.6272 26.4117 23.3672V1.3872C26.4117 0.5672 25.8417 -0.0028 24.9717 -0.0028H1.4417C0.5717 -0.0028 0.0017 0.5672 0.0017 1.3872V23.3672C0.0017 23.6272 0.1917 23.7972 0.4317 23.7972ZM2.0817 23.4872H24.3417C24.4617 23.4872 24.5417 23.4072 24.5417 23.2872V2.0772C24.5417 1.9572 24.4617 1.8772 24.3417 1.8772H2.0817C1.9717 1.8772 1.8717 1.9572 1.8717 2.0772V23.2872C1.8717 23.4072 1.9717 23.4872 2.0817 23.4872ZM3.6017 8.2772C3.4317 8.2772 3.3317 8.1672 3.3317 7.9872V3.5772C3.3317 3.3972 3.4317 3.2972 3.6017 3.2972H8.8017C8.9717 3.2972 9.0817 3.3972 9.0817 3.5772V7.9872C9.0817 8.1672 8.9717 8.2772 8.8017 8.2772ZM10.6217 8.2772C10.4517 8.2772 10.3517 8.1672 10.3517 7.9872V3.5772C10.3517 3.3972 10.4517 3.2972 10.6217 3.2972H15.8117C15.9817 3.2972 16.0917 3.3972 16.0917 3.5772V7.9872C16.0917 8.1672 15.9817 8.2772 15.8117 8.2772ZM17.6417 8.2772C17.4717 8.2772 17.3717 8.1672 17.3717 7.9872V3.5772C17.3717 3.3972 17.4717 3.2972 17.6417 3.2972H22.8317C22.9917 3.2972 23.1017 3.3972 23.1017 3.5772V7.9872C23.1017 8.1672 22.9917 8.2772 22.8517 8.2772ZM10.7417 21.4072C10.4617 21.4072 10.2617 21.2072 10.2617 20.9372C10.2617 20.6672 10.4617 20.4572 10.7417 20.4572H15.6817C15.9517 20.4572 16.1517 20.6672 16.1517 20.9372C16.1517 21.2072 15.9517 21.4072 15.6817 21.4072Z" />
        </svg>
    