
        <svg xmlns="http://www.w3.org/2000/svg" viewBox="0 0 100 100">
            <path d="M0.7217 24.4119C1.1417 24.4119 1.4517 24.0919 1.4517 23.6919V2.0719C1.4517 1.7019 1.7017 1.4519 2.0517 1.4519H14.8917C15.2417 1.4519 15.4917 1.7019 15.4917 2.0719V23.6919C15.4917 24.0919 15.8117 24.4119 16.2217 24.4119C16.6317 24.4119 16.9417 24.0919 16.9417 23.6919V1.9619C16.9417 0.7919 16.1417 0.0019 14.9317 0.0019H2.0117C0.8117 0.0019 0.0017 0.7919 0.0017 1.9619V23.6919C0.0017 24.0919 0.3117 24.4119 0.7217 24.4119ZM2.9717 24.0319H13.9717C14.1417 24.0319 14.2817 23.9019 14.2817 23.7319V2.9719C14.2817 2.8019 14.1417 2.6619 13.9717 2.6619H2.9717C2.8017 2.6619 2.6617 2.8019 2.6617 2.9719V23.7319C2.6617 23.9019 2.8017 24.0319 2.9717 24.0319ZM11.5917 14.3719C11.1117 14.3719 10.7317 13.9819 10.7317 13.5019C10.7317 13.0219 11.1117 12.6419 11.5917 12.6419C12.0717 12.6419 12.4417 13.0219 12.4417 13.5019C12.4417 13.9819 12.0717 14.3719 11.5917 14.3719Z" />
        </svg>
    