
        <svg xmlns="http://www.w3.org/2000/svg" viewBox="0 0 100 100">
            <path d="M28.1217 25.1452C28.7617 25.1452 29.2717 24.6352 29.2717 23.9952V2.7152C29.2717 1.0652 28.1917 -0.0048 26.4917 -0.0048H2.7817C1.0917 -0.0048 0.0017 1.0652 0.0017 2.7152V23.9952C0.0017 24.6352 0.5117 25.1452 1.1517 25.1452C1.7817 25.1452 2.3017 24.6352 2.3017 23.9952V2.9252C2.3017 2.5452 2.5417 2.2952 2.9217 2.2952H26.3717C26.7317 2.2952 26.9717 2.5452 26.9717 2.9252V23.9952C26.9717 24.6352 27.4917 25.1452 28.1217 25.1452ZM14.1817 24.6452C14.3917 24.6452 14.5517 24.4852 14.5517 24.2652V4.0652C14.5517 3.8552 14.3917 3.6752 14.1817 3.6752H4.0617C3.8517 3.6752 3.6917 3.8552 3.6917 4.0652V24.2652C3.6917 24.4852 3.8517 24.6452 4.0617 24.6452ZM11.8917 15.8752C11.5417 15.8752 11.2817 15.6352 11.2817 15.2852V13.2152C11.2817 12.8652 11.5417 12.6252 11.8917 12.6252C12.2417 12.6252 12.4917 12.8652 12.4917 13.2152V15.2852C12.4917 15.6352 12.2417 15.8752 11.8917 15.8752Z" />
        </svg>
    