
        <svg xmlns="http://www.w3.org/2000/svg" viewBox="0 0 100 100">
            <path d="M0.7217 24.4119C1.1417 24.4119 1.4517 24.0919 1.4517 23.6919V2.0719C1.4517 1.7019 1.7017 1.4519 2.0517 1.4519H25.6417C25.9917 1.4519 26.2417 1.7019 26.2417 2.0719V23.6919C26.2417 24.0919 26.5517 24.4119 26.9617 24.4119C27.3617 24.4119 27.6917 24.0919 27.6917 23.6919V1.9619C27.6917 0.7919 26.8817 0.0019 25.6717 0.0019H2.0117C0.8117 0.0019 0.0017 0.7919 0.0017 1.9619V23.6919C0.0017 24.0919 0.3117 24.4119 0.7217 24.4119ZM2.9717 24.0319H24.7117C24.8917 24.0319 25.0317 23.9019 25.0317 23.7319V2.9719C25.0317 2.8019 24.8917 2.6619 24.7117 2.6619H2.9717C2.8017 2.6619 2.6617 2.8019 2.6617 2.9719V23.7319C2.6617 23.9019 2.8017 24.0319 2.9717 24.0319ZM4.5517 9.0919C4.3517 9.0919 4.1917 8.9419 4.1917 8.7419V4.4619C4.1917 4.2619 4.3517 4.1119 4.5517 4.1119H9.3617C9.5717 4.1119 9.7217 4.2619 9.7217 4.4619V8.7419C9.7217 8.9419 9.5717 9.0919 9.3617 9.0919ZM11.4517 9.0919C11.2517 9.0919 11.1017 8.9419 11.1017 8.7419V4.4619C11.1017 4.2619 11.2517 4.1119 11.4517 4.1119H16.2617C16.4617 4.1119 16.6217 4.2619 16.6217 4.4619V8.7419C16.6217 8.9419 16.4617 9.0919 16.2617 9.0919ZM18.3517 9.0919C18.1517 9.0919 18.0017 8.9419 18.0017 8.7419V4.4619C18.0017 4.2619 18.1517 4.1119 18.3517 4.1119H23.1417C23.3517 4.1119 23.5117 4.2619 23.5117 4.4619V8.7419C23.5117 8.9419 23.3517 9.0919 23.2117 9.0919ZM11.4817 22.0219C11.1717 22.0219 10.9617 21.8119 10.9617 21.4919C10.9617 21.1919 11.1717 20.9619 11.4817 20.9619H16.2117C16.5217 20.9619 16.7317 21.1919 16.7317 21.4919C16.7317 21.8119 16.5217 22.0219 16.2117 22.0219Z" />
        </svg>
    