
        <svg xmlns="http://www.w3.org/2000/svg" viewBox="0 0 100 100">
            <path d="M0.9417 24.8645C1.4617 24.8645 1.8917 24.4445 1.8917 23.9345V2.5045C1.8917 2.1345 2.1317 1.8845 2.4817 1.8845H26.1717C26.5217 1.8845 26.7617 2.1345 26.7617 2.5045V23.9345C26.7617 24.4445 27.1917 24.8645 27.7017 24.8645C28.2317 24.8645 28.6517 24.4445 28.6517 23.9345V2.3945C28.6517 0.9645 27.6717 0.0045 26.1917 0.0045H2.4517C0.9817 0.0045 0.0017 0.9645 0.0017 2.3945V23.9345C0.0017 24.4445 0.4217 24.8645 0.9417 24.8645ZM3.6517 24.4545H24.9917C25.2217 24.4545 25.3917 24.2745 25.3917 24.0545V3.6445C25.3917 3.4245 25.2217 3.2445 24.9917 3.2445H3.6517C3.4317 3.2445 3.2617 3.4245 3.2617 3.6445V24.0545C3.2617 24.2745 3.4317 24.4545 3.6517 24.4545ZM5.2617 9.7045C5.0317 9.7045 4.8517 9.5245 4.8517 9.2945V5.1445C4.8517 4.9145 5.0317 4.7245 5.2617 4.7245H9.8017C10.0317 4.7245 10.2117 4.9145 10.2117 5.1445V9.2945C10.2117 9.5245 10.0317 9.7045 9.8017 9.7045ZM12.0817 9.7045C11.8517 9.7045 11.6717 9.5245 11.6717 9.2945V5.1445C11.6717 4.9145 11.8517 4.7245 12.0817 4.7245H16.6017C16.8417 4.7245 17.0317 4.9145 17.0317 5.1445V9.2945C17.0317 9.5245 16.8417 9.7045 16.6017 9.7045ZM18.8917 9.7045C18.6517 9.7045 18.4717 9.5245 18.4717 9.2945V5.1445C18.4717 4.9145 18.6517 4.7245 18.8917 4.7245H23.3917C23.6217 4.7245 23.8017 4.9145 23.8017 5.1445V9.2945C23.8017 9.5245 23.6217 9.7045 23.4817 9.7045ZM12.0317 22.4745C11.6917 22.4745 11.4717 22.2445 11.4717 21.9145C11.4717 21.5745 11.6917 21.3445 12.0317 21.3445H16.6217C16.9617 21.3445 17.1817 21.5745 17.1817 21.9145C17.1817 22.2445 16.9617 22.4745 16.6217 22.4745Z" />
        </svg>
    