
        <svg xmlns="http://www.w3.org/2000/svg" viewBox="0 0 100 100">
            <path d="M31.1923 10.615C31.1923 6.665 29.7323 3.045 27.1523 0.355C26.6923 -0.135 26.0523 -0.095 25.6723 0.325C25.3023 0.725 25.3723 1.325 25.8023 1.775C28.0223 4.115 29.2423 7.215 29.2423 10.615C29.2423 14.005 28.0223 17.115 25.8023 19.445C25.3723 19.905 25.3023 20.495 25.6723 20.905C26.0523 21.325 26.6923 21.365 27.1523 20.885C29.7323 18.185 31.1923 14.565 31.1923 10.615ZM0.0023 10.615C0.0023 14.565 1.4623 18.185 4.0423 20.885C4.5023 21.365 5.1423 21.325 5.5223 20.905C5.9023 20.495 5.8223 19.905 5.3923 19.445C3.1723 17.115 1.9523 14.005 1.9523 10.615C1.9523 7.215 3.1723 4.115 5.3923 1.775C5.8223 1.325 5.9023 0.725 5.5223 0.325C5.1423 -0.095 4.5023 -0.135 4.0423 0.355C1.4623 3.045 0.0023 6.665 0.0023 10.615ZM26.9323 10.615C26.9323 7.815 25.9323 5.205 24.1323 3.245C23.6723 2.745 23.0023 2.725 22.6023 3.185C22.2323 3.615 22.3223 4.185 22.7623 4.665C24.2023 6.265 24.9723 8.345 24.9723 10.615C24.9723 12.885 24.2023 14.965 22.7623 16.565C22.3223 17.045 22.2323 17.615 22.6023 18.045C23.0023 18.495 23.6723 18.495 24.1323 17.985C25.9323 16.025 26.9323 13.415 26.9323 10.615ZM4.2623 10.615C4.2623 13.415 5.2623 16.025 7.0623 17.985C7.5223 18.495 8.1923 18.495 8.5923 18.045C8.9723 17.615 8.8723 17.045 8.4423 16.565C7.0123 14.965 6.2223 12.885 6.2223 10.615C6.2223 8.345 7.0123 6.265 8.4423 4.665C8.8723 4.185 8.9723 3.615 8.5923 3.185C8.1923 2.725 7.5223 2.745 7.0623 3.245C5.2623 5.205 4.2623 7.815 4.2623 10.615ZM22.6723 10.615C22.6723 9.025 22.1323 7.525 21.1923 6.335C20.7623 5.795 20.0423 5.795 19.6423 6.255C19.2523 6.675 19.3923 7.195 19.7823 7.735C20.3923 8.515 20.7023 9.515 20.7023 10.615C20.7023 11.715 20.3923 12.715 19.7823 13.495C19.3923 14.035 19.2523 14.555 19.6423 14.975C20.0423 15.435 20.7623 15.435 21.1923 14.885C22.1323 13.695 22.6723 12.195 22.6723 10.615ZM8.5323 10.615C8.5323 12.195 9.0723 13.695 10.0123 14.885C10.4323 15.435 11.1523 15.435 11.5523 14.975C11.9423 14.555 11.8023 14.035 11.4123 13.495C10.8023 12.715 10.4923 11.715 10.4923 10.615C10.4923 9.515 10.8023 8.515 11.4123 7.735C11.8023 7.195 11.9423 6.675 11.5523 6.255C11.1523 5.795 10.4323 5.795 10.0123 6.335C9.0723 7.525 8.5323 9.025 8.5323 10.615ZM13.3723 10.635C13.3723 11.825 14.4023 12.815 15.6223 12.815C16.8323 12.815 17.8223 11.825 17.8223 10.615C17.8223 9.385 16.8423 8.385 15.6223 8.385C14.3923 8.385 13.3723 9.425 13.3723 10.635Z" />
        </svg>
    