
        <svg xmlns="http://www.w3.org/2000/svg" viewBox="0 0 100 100">
            <path d="M0.0017 20.4164C0.0017 20.9064 0.3017 21.2064 0.8017 21.2064H20.4217C20.9017 21.2064 21.2217 20.9064 21.2217 20.4164V0.7864C21.2217 0.3064 20.9017 -0.0036 20.4217 -0.0036H0.8017C0.3017 -0.0036 0.0017 0.3064 0.0017 0.7864ZM1.4517 19.4664V11.3564H5.6517C5.6017 11.1064 5.5817 10.8664 5.5817 10.6064C5.5817 10.3664 5.6017 10.1264 5.6517 9.9064H1.4517V1.7464C1.4517 1.5364 1.5317 1.4364 1.7417 1.4364H9.8817V5.6564C10.1217 5.6164 10.3717 5.5864 10.6317 5.5864C10.8617 5.5864 11.1117 5.6164 11.3317 5.6564V1.4364H19.4617C19.6717 1.4364 19.7717 1.5364 19.7717 1.7464V9.9064H15.5817C15.6317 10.1264 15.6517 10.3664 15.6517 10.6064C15.6517 10.8664 15.6317 11.1064 15.5817 11.3564H19.7717V19.4664C19.7717 19.6764 19.6717 19.7664 19.4617 19.7664H11.3317V15.5864C11.1117 15.6364 10.8617 15.6564 10.6317 15.6564C10.3717 15.6564 10.1217 15.6364 9.8817 15.5864V19.7664H1.7417C1.5317 19.7664 1.4517 19.6764 1.4517 19.4664ZM10.6317 14.2964C12.6317 14.2964 14.3017 12.6564 14.3017 10.6064C14.3017 8.6064 12.6317 6.9564 10.6317 6.9564C8.6017 6.9564 6.9417 8.6064 6.9417 10.6064C6.9417 12.6564 8.6017 14.2964 10.6317 14.2964Z" />
        </svg>
    