
        <svg xmlns="http://www.w3.org/2000/svg" viewBox="0 0 100 100">
            <path d="M12.7923 25.5891C14.2723 25.5891 15.6823 25.3491 17.0023 24.8891L14.3223 21.2791C13.8123 21.3891 13.3123 21.4191 12.7923 21.4191C8.0323 21.4191 4.1723 17.5691 4.1723 12.7991C4.1723 8.0291 8.0323 4.1691 12.7923 4.1691C17.5623 4.1691 21.4123 8.0191 21.4223 12.7691C22.8123 12.5291 24.2023 12.5291 25.6023 12.7891C25.5923 5.7391 19.8523 -0.0009 12.7923 -0.0009C5.7523 -0.0009 0.0023 5.7391 0.0023 12.7991C0.0023 19.8491 5.7523 25.5891 12.7923 25.5891ZM12.8223 16.4091C14.8023 16.4091 16.4423 14.7891 16.4423 12.7691C16.4423 10.7791 14.8023 9.1591 12.8223 9.1591C10.8123 9.1591 9.1723 10.7791 9.1723 12.7691C9.1723 14.7891 10.8123 16.4091 12.8223 16.4091ZM28.4723 27.9691C32.6123 26.4691 34.0823 22.9991 32.5123 18.6491L31.8423 16.8091C31.2623 15.1791 30.0123 14.2691 28.9323 14.6691C28.5923 14.7891 28.4723 15.0691 28.5923 15.3891L28.8523 16.1091C28.9523 16.3691 28.9023 16.5191 28.7623 16.5691C28.6123 16.6291 28.4723 16.5491 28.3823 16.2791L28.2223 15.8191C27.8523 14.7691 26.8823 14.2891 25.9223 14.6291C25.4323 14.7991 25.2423 15.1591 25.4023 15.6091L25.7723 16.6191C25.8623 16.8791 25.8323 17.0191 25.7023 17.0591C25.5423 17.1191 25.4023 17.0491 25.3123 16.7791L24.9723 15.8391C24.5723 14.7491 23.6923 14.2991 22.6923 14.6691C22.2023 14.8391 22.0123 15.1991 22.1723 15.6291L22.9123 17.6591C23.0023 17.9091 22.9523 18.0791 22.8423 18.1091C22.7023 18.1591 22.5623 18.0791 22.4623 17.8291L20.1223 11.4091C19.8323 10.6191 19.1023 10.2391 18.3623 10.4991C17.6123 10.7791 17.2823 11.5291 17.5823 12.3391L20.8723 21.3591C20.9223 21.4991 20.8923 21.6191 20.8023 21.6291C20.7323 21.6691 20.6523 21.6491 20.5823 21.5591L18.4423 19.2391C18.0323 18.7891 17.4823 18.4891 16.7923 18.7491C15.9823 19.0291 15.6123 19.7891 15.8923 20.5791C15.9823 20.8091 16.1023 21.0191 16.2323 21.1891L19.5623 25.2091C22.2023 28.3991 25.1923 29.1691 28.4723 27.9691Z" />
        </svg>
    