
        <svg xmlns="http://www.w3.org/2000/svg" viewBox="0 0 100 100">
            <path d="M15.0823 25.2771C15.6423 25.9171 16.6923 25.9671 17.3323 25.2771C20.3523 21.9971 21.9423 17.6271 21.9423 12.8771C21.9423 8.1571 20.3523 3.7871 17.3323 0.4971C16.6923 -0.1929 15.6423 -0.1429 15.0823 0.4971C14.5323 1.1071 14.5923 1.9271 15.1623 2.5671C17.6723 5.2471 19.0123 8.8871 19.0123 12.8771C19.0123 16.8771 17.6123 20.4771 15.1623 23.2171C14.5923 23.8571 14.5323 24.6571 15.0823 25.2771ZM11.1323 21.3971C11.7023 22.1071 12.7023 22.2171 13.5723 21.3171C15.5523 19.2871 16.5223 16.1971 16.5223 12.8771C16.5223 9.5971 15.4323 6.3371 13.5723 4.4471C12.7023 3.5571 11.7023 3.6671 11.1323 4.3771C10.6123 5.0171 10.8023 5.7771 11.3623 6.4071C12.8123 7.9871 13.5923 10.3571 13.5923 12.8771C13.5923 15.4171 12.8123 17.7871 11.3623 19.3671C10.8023 19.9871 10.6123 20.7671 11.1323 21.3971ZM7.2523 17.6771C7.7723 18.3871 8.8523 18.4471 9.6223 17.6371C10.6123 16.5871 11.1323 14.7971 11.1323 12.8771C11.1323 10.9671 10.6123 9.1771 9.6223 8.1271C8.8523 7.3171 7.7723 7.3671 7.2523 8.0671C6.7923 8.6971 6.9223 9.4171 7.3823 10.0471C7.8023 10.6571 8.2023 11.9171 8.2023 12.8771C8.2023 13.8371 7.8023 15.0871 7.3823 15.6971C6.9223 16.3471 6.7923 17.0571 7.2523 17.6771ZM0.0023 12.8971C0.0023 14.3071 1.2223 15.4771 2.6523 15.4771C4.0823 15.4771 5.2623 14.3071 5.2623 12.8771C5.2623 11.4071 4.1023 10.2371 2.6523 10.2371C1.1923 10.2371 0.0023 11.4571 0.0023 12.8971Z" />
        </svg>
    