
        <svg xmlns="http://www.w3.org/2000/svg" viewBox="0 0 100 100">
            <path d="M2.9217 19.9531H10.3917V22.0831H10.3517C9.7617 22.0831 9.2817 22.5631 9.2817 23.1431C9.2817 23.7231 9.7617 24.2031 10.3517 24.2031H18.0917C18.6817 24.2031 19.1617 23.7231 19.1617 23.1431C19.1617 22.5631 18.6817 22.0831 18.0917 22.0831H18.0517V19.9531H25.5117C27.3417 19.9531 28.4417 18.8631 28.4417 17.0431V2.9131C28.4417 1.0931 27.3417 0.0031 25.5117 0.0031H2.9217C1.1017 0.0031 0.0017 1.0931 0.0017 2.9131V17.0431C0.0017 18.8631 1.1017 19.9531 2.9217 19.9531ZM3.0617 17.7231C2.5517 17.7231 2.2517 17.4031 2.2517 16.9131V3.0431C2.2517 2.5531 2.5517 2.2431 3.0617 2.2431H25.3817C25.8917 2.2431 26.1917 2.5531 26.1917 3.0431V16.9131C26.1917 17.4031 25.8917 17.7231 25.3817 17.7231ZM8.7917 10.5231H9.4617C9.7117 12.7231 11.4717 14.4831 13.6717 14.7331V15.4131C13.6717 15.7431 13.9217 15.9731 14.2217 15.9731C14.5317 15.9731 14.7817 15.7131 14.7817 15.4131V14.7331C16.9817 14.4831 18.7217 12.7231 18.9817 10.5231H19.6617C19.9717 10.5231 20.2217 10.2631 20.2217 9.9731C20.2217 9.6631 19.9717 9.4231 19.6617 9.4231H18.9817C18.7217 7.2231 16.9817 5.4631 14.7617 5.2031V4.5231C14.7617 4.2231 14.5417 3.9731 14.2117 3.9731C13.9217 3.9731 13.6617 4.2231 13.6617 4.5231V5.2031C11.4717 5.4631 9.7117 7.2231 9.4617 9.4231H8.7917C8.4717 9.4231 8.2217 9.6631 8.2217 9.9731C8.2217 10.2731 8.4617 10.5231 8.7917 10.5231ZM16.8517 10.5231H17.7517C17.5317 12.1031 16.3517 13.3031 14.7817 13.5331V12.5931C14.7817 12.3031 14.5517 12.0431 14.2217 12.0431C13.9217 12.0431 13.6717 12.2931 13.6717 12.5931V13.5331C12.1017 13.3031 10.9217 12.1031 10.7017 10.5231H11.6017C11.8917 10.5231 12.1417 10.2731 12.1417 9.9731C12.1417 9.6431 11.8917 9.4231 11.6017 9.4231H10.7017C10.9217 7.8431 12.1017 6.6331 13.6617 6.4131V7.3231C13.6617 7.6531 13.9217 7.8831 14.2117 7.8831C14.5317 7.8831 14.7617 7.6431 14.7617 7.3231V6.4131C16.3317 6.6331 17.5317 7.8431 17.7517 9.4231H16.8517C16.5617 9.4231 16.3017 9.6431 16.3017 9.9731C16.3017 10.2731 16.5617 10.5231 16.8517 10.5231ZM14.2217 10.8031C14.6817 10.8031 15.0617 10.4331 15.0617 9.9631C15.0617 9.5031 14.6817 9.1331 14.2217 9.1331C13.7617 9.1331 13.3917 9.5031 13.3917 9.9631C13.3917 10.4331 13.7617 10.8031 14.2217 10.8031Z" />
        </svg>
    