
        <svg xmlns="http://www.w3.org/2000/svg" viewBox="0 0 100 100">
            <path d="M8.5517 5.7075C8.5517 7.0575 8.6617 7.5075 9.6017 8.4475L11.8817 10.7375C12.8217 11.6675 14.1417 11.6675 15.0817 10.7375L17.3717 8.4475C18.3017 7.5075 18.4117 7.0575 18.4117 5.7075V2.7675C18.4117 1.0175 17.4917 -0.0025 15.9417 -0.0025H11.0317C9.4717 -0.0025 8.5517 1.0175 8.5517 2.7675ZM5.6917 18.3975C7.0517 18.3975 7.5117 18.2975 8.4517 17.3575L10.7317 15.0775C11.6717 14.1475 11.6717 12.8075 10.7317 11.8675L8.4517 9.5875C7.5117 8.6575 7.0517 8.5575 5.6917 8.5575H2.7617C1.0217 8.5575 0.0017 9.4575 0.0017 11.0175V15.9275C0.0017 17.4975 1.0217 18.3975 2.7617 18.3975ZM21.2417 8.5575C19.8917 8.5575 19.4317 8.6575 18.4917 9.5975L16.2117 11.8675C15.2717 12.8075 15.2717 14.1475 16.2117 15.0775L18.4917 17.3575C19.4317 18.2975 19.8917 18.3975 21.2417 18.3975H24.1717C25.9217 18.3975 26.9417 17.4975 26.9417 15.9275V11.0175C26.9417 9.4575 25.9217 8.5575 24.1717 8.5575ZM5.7817 15.9775H3.1517C2.7117 15.9775 2.4417 15.7075 2.4417 15.2575V11.6875C2.4417 11.2375 2.7117 10.9775 3.1517 10.9775H5.7817C6.2117 10.9775 6.4717 11.0575 6.7617 11.3575L8.6517 13.2275C8.8117 13.3975 8.8117 13.5575 8.6517 13.7275L6.7617 15.5975C6.4717 15.8975 6.2017 15.9775 5.7817 15.9775ZM21.1617 10.9775H23.7917C24.2317 10.9775 24.5017 11.2475 24.5017 11.6875V15.2675C24.5017 15.7075 24.2317 15.9775 23.7917 15.9775H21.1617C20.7317 15.9775 20.4617 15.8875 20.1817 15.5975L18.2917 13.7275C18.1317 13.5575 18.1317 13.3975 18.2917 13.2275L20.1817 11.3575C20.4717 11.0475 20.7417 10.9775 21.1617 10.9775ZM18.4017 21.2375C18.4017 19.8875 18.2917 19.4175 17.3717 18.4875L15.0817 16.2075C14.1417 15.2675 12.8217 15.2675 11.8817 16.2075L9.6017 18.4875C8.6617 19.4175 8.5517 19.8875 8.5517 21.2375V24.1675C8.5517 25.9175 9.4617 26.9275 11.0317 26.9275H15.9417C17.4917 26.9275 18.4017 25.9175 18.4017 24.1675ZM15.9717 21.1675V23.7875C15.9717 24.2375 15.7117 24.5075 15.2717 24.5075H11.6917C11.2517 24.5075 10.9817 24.2375 10.9817 23.7875V21.1675C10.9817 20.7275 11.0617 20.4575 11.3517 20.1675L13.2417 18.2975C13.4017 18.1275 13.5617 18.1275 13.7217 18.2975L15.6017 20.1675C15.9017 20.4775 15.9717 20.7275 15.9717 21.1675Z" />
        </svg>
    