
        <svg xmlns="http://www.w3.org/2000/svg" viewBox="0 0 100 100">
            <path d="M8.4217 5.5914C8.4217 6.9114 8.5517 7.3614 9.4317 8.2514L11.7217 10.5214C12.6117 11.4114 13.8617 11.4114 14.7617 10.5214L17.0417 8.2514C17.9317 7.3614 18.0517 6.9114 18.0517 5.5914V2.6514C18.0517 0.9914 17.1517 0.0014 15.6817 0.0014H10.8017C9.3117 0.0014 8.4217 0.9914 8.4217 2.6514ZM5.5917 18.0314C6.9117 18.0314 7.3617 17.9214 8.2517 17.0314L10.5217 14.7514C11.4217 13.8514 11.4217 12.6014 10.5217 11.7114L8.2517 9.4214C7.3617 8.5414 6.9117 8.4114 5.5917 8.4114H2.6517C0.9917 8.4114 0.0017 9.3014 0.0017 10.7914V15.6714C0.0017 17.1414 0.9917 18.0314 2.6517 18.0314ZM20.8717 8.4214C19.5517 8.4214 19.1017 8.5414 18.2117 9.4314L15.9417 11.7114C15.0317 12.6014 15.0317 13.8614 15.9417 14.7514L18.2117 17.0314C19.1017 17.9214 19.5517 18.0314 20.8717 18.0314H23.8017C25.4617 18.0314 26.4617 17.1414 26.4617 15.6714V10.7914C26.4617 9.3114 25.4617 8.4214 23.8017 8.4214ZM18.0517 20.8614C18.0517 19.5314 17.9317 19.0914 17.0417 18.2014L14.7517 15.9214C13.8617 15.0314 12.6117 15.0314 11.7217 15.9214L9.4317 18.2014C8.5417 19.0914 8.4217 19.5314 8.4217 20.8614V23.8014C8.4217 25.4514 9.3117 26.4514 10.7917 26.4514H15.6817C17.1517 26.4514 18.0517 25.4514 18.0517 23.8014Z" />
        </svg>
    