
        <svg xmlns="http://www.w3.org/2000/svg" viewBox="0 0 100 100">
            <path d="M8.0017 5.3128C8.0017 6.3728 8.1517 6.8428 8.8717 7.5628L11.1517 9.8428C11.9317 10.6128 12.9417 10.6128 13.7117 9.8428L15.9917 7.5628C16.7117 6.8428 16.8617 6.3728 16.8617 5.3128V2.1328C16.8617 0.7928 16.1217 0.0028 14.8917 0.0028H9.9617C8.7317 0.0028 8.0017 0.7928 8.0017 2.1328ZM5.3017 16.8528C6.3717 16.8528 6.8417 16.7028 7.5617 15.9828L9.8417 13.7028C10.6217 12.9228 10.6217 11.9228 9.8417 11.1428L7.5617 8.8628C6.8417 8.1428 6.3717 7.9928 5.3017 7.9928H2.1317C0.8017 7.9928 0.0017 8.7228 0.0017 9.9628V14.8928C0.0017 16.1128 0.8017 16.8528 2.1317 16.8528ZM19.5317 7.9928C18.4717 7.9928 18.0017 8.1528 17.2817 8.8728L15.0017 11.1428C14.2217 11.9228 14.2217 12.9328 15.0017 13.7128L17.2817 15.9828C18.0017 16.7028 18.4717 16.8628 19.5317 16.8628H22.7117C24.0517 16.8628 24.8417 16.1228 24.8417 14.8928V9.9628C24.8417 8.7328 24.0517 7.9928 22.7117 7.9928ZM16.8517 19.5328C16.8517 18.4728 16.6917 17.9928 15.9717 17.2728L13.7017 15.0028C12.9217 14.2228 11.9217 14.2228 11.1417 15.0028L8.8617 17.2728C8.1417 17.9928 7.9917 18.4728 7.9917 19.5328V22.7128C7.9917 24.0428 8.7217 24.8328 9.9517 24.8328H14.8917C16.1117 24.8328 16.8517 24.0428 16.8517 22.7128Z" />
        </svg>
    