
        <svg xmlns="http://www.w3.org/2000/svg" viewBox="0 0 100 100">
            <path d="M11.5817 10.1533L13.2117 7.3033L11.9717 6.5633C11.7917 6.4333 11.7217 6.3633 11.7217 6.1533V4.7133C11.7217 4.1733 11.4617 3.8433 11.0017 3.7533V2.5333H14.0817C14.5117 2.5333 14.8017 2.1533 14.8017 1.7733C14.8017 1.3933 14.5117 1.0233 14.0817 1.0233H11.0017V1.0033C11.0017 0.4533 10.5717 0.0033 9.9917 0.0033C9.4617 0.0033 9.0217 0.4533 9.0217 1.0033V1.0233H5.9417C5.5117 1.0233 5.2217 1.3933 5.2217 1.7733C5.2217 2.1533 5.5117 2.5333 5.9417 2.5333H9.0217V3.7633C8.6017 3.8833 8.3717 4.2033 8.3717 4.7133V6.8533C8.3717 7.8833 8.5917 8.3533 9.2717 8.7733ZM25.7817 10.2633L28.1017 8.8733C28.8117 8.4233 29.0317 7.9433 29.0317 6.8833V4.7533C29.0317 4.2033 28.7717 3.8533 28.3117 3.7533V2.5333H31.3917C31.8117 2.5333 32.1117 2.1533 32.1117 1.7733C32.1117 1.3933 31.8117 1.0233 31.3917 1.0233H28.3117V1.0033C28.3117 0.4533 27.8817 0.0033 27.3317 0.0033C26.7617 0.0033 26.3317 0.4533 26.3317 1.0033V1.0233H23.2517C22.8117 1.0233 22.5317 1.3933 22.5317 1.7733C22.5317 2.1533 22.8117 2.5333 23.2517 2.5333H26.3317V3.7333C25.8117 3.8333 25.5317 4.1833 25.5317 4.7533V6.1433C25.5317 6.3633 25.4717 6.4333 25.2617 6.5733L24.0817 7.2733ZM12.3417 14.7733H24.9817C26.0017 14.7733 26.3417 14.0033 25.8017 13.0633L22.0617 6.5033C21.6117 5.7233 20.9617 5.3633 20.2517 5.3633H17.2817C16.3017 5.3633 15.7117 5.7233 15.2717 6.5033L11.5317 13.0633C10.9917 14.0033 11.3317 14.7733 12.3417 14.7733ZM0.7117 16.2033H3.7817V17.4833C3.3617 17.5933 3.1217 17.9333 3.1217 18.4333V21.7133C3.1217 24.0133 4.6717 25.1833 7.2317 24.0833L13.9217 21.2033L14.4017 22.1133C14.7317 22.7233 15.3017 22.9533 15.9717 23.0033V25.1533C15.9717 25.8433 16.3917 26.3533 17.0717 26.3533H20.2617C20.9417 26.3533 21.3617 25.8433 21.3617 25.1533V23.0033C22.0317 22.9733 22.6017 22.7433 22.9317 22.1133L23.4117 21.2033L30.1017 24.0833C32.6817 25.1933 34.2217 24.0133 34.2217 21.7133V18.4333C34.2217 17.9333 33.9817 17.5933 33.5517 17.4833V16.2033H36.6217C37.0517 16.2033 37.3317 15.8333 37.3317 15.4433C37.3317 15.0633 37.0517 14.6933 36.6217 14.6933H33.5517V14.5533C33.5517 14.0133 33.1217 13.5633 32.5817 13.5633C32.0017 13.5633 31.5717 14.0133 31.5717 14.5533V14.6933H28.4717C28.0517 14.6933 27.7617 15.0633 27.7617 15.4433C27.7617 15.8333 28.0517 16.2033 28.4717 16.2033H31.5717V17.4733C31.1117 17.5733 30.8717 17.9133 30.8717 18.4333V20.4133C30.8717 20.6333 30.7617 20.7933 30.4817 20.6633L24.9517 18.2733L25.5517 17.1433C25.7817 16.7133 25.5817 16.3833 25.1617 16.3833H12.1717C11.7617 16.3833 11.5517 16.7133 11.7917 17.1433L12.3917 18.2833L6.8717 20.6633C6.5817 20.7933 6.4717 20.6333 6.4717 20.4133V18.4333C6.4717 17.9133 6.2217 17.5733 5.7617 17.4733V16.2033H8.8617C9.2917 16.2033 9.5717 15.8333 9.5717 15.4433C9.5717 15.0633 9.2917 14.6933 8.8617 14.6933H5.7617V14.5533C5.7617 14.0133 5.3317 13.5633 4.7717 13.5633C4.2217 13.5633 3.7817 14.0133 3.7817 14.5533V14.6933H0.7117C0.2917 14.6933 0.0017 15.0633 0.0017 15.4433C0.0017 15.8333 0.2917 16.2033 0.7117 16.2033ZM18.6817 25.1833C18.2017 25.1833 17.7917 24.7833 17.7917 24.2933C17.7917 23.8333 18.2017 23.4333 18.6817 23.4333C19.1517 23.4333 19.5617 23.8333 19.5617 24.2933C19.5617 24.7833 19.1517 25.1833 18.6817 25.1833Z" />
        </svg>
    