
        <svg xmlns="http://www.w3.org/2000/svg" viewBox="0 0 100 100">
            <path d="M8.1223 23.732C12.9923 23.732 16.2423 20.552 16.2423 15.792C16.2423 13.452 15.3323 11.122 14.6323 9.562C13.3823 6.742 11.4123 3.632 9.7023 0.982C9.2923 0.362 8.8123 0.002 8.1223 0.002C7.4323 0.002 6.9523 0.362 6.5423 0.982C4.8323 3.632 2.8623 6.742 1.6023 9.562C0.9223 11.122 0.0023 13.452 0.0023 15.792C0.0023 20.552 3.2423 23.732 8.1223 23.732ZM3.1123 13.642C2.8123 13.642 2.5123 13.662 2.1823 13.722C2.4523 12.552 2.8923 11.452 3.3123 10.492C4.6323 7.402 6.3623 4.872 8.0023 2.402C8.0823 2.282 8.1823 2.282 8.2523 2.402C9.8823 4.872 11.6223 7.402 12.9123 10.472C13.4323 11.672 14.0023 13.082 14.2223 14.552C13.3323 15.262 12.2723 16.062 10.5723 16.062C7.4023 16.062 6.4323 13.642 3.1123 13.642Z" />
        </svg>
    