
        <svg xmlns="http://www.w3.org/2000/svg" viewBox="0 0 100 100">
            <path d="M18.9452 7.4622C21.0452 7.4622 22.6852 5.8222 22.6852 3.7422C22.6852 1.6422 21.0452 0.0022 18.9452 0.0022C16.8552 0.0022 15.2052 1.6422 15.2052 3.7422C15.2052 5.8222 16.8552 7.4622 18.9452 7.4622ZM18.9452 5.5122C17.9452 5.5122 17.1752 4.7222 17.1752 3.7422C17.1752 2.7422 17.9452 1.9522 18.9452 1.9522C19.9452 1.9522 20.7152 2.7422 20.7152 3.7422C20.7152 4.7222 19.9452 5.5122 18.9452 5.5122ZM5.8752 7.9222L18.4752 20.5122C18.5452 20.1022 18.5852 19.6622 18.5852 19.2022C18.5852 16.8522 17.6552 14.4022 16.7552 12.4722C15.5252 9.7622 13.6852 6.8222 11.9952 4.2222C11.5152 3.4822 10.9152 3.0422 10.0952 3.0422C9.2652 3.0422 8.6752 3.4822 8.1952 4.2222C7.4252 5.4022 6.6252 6.6522 5.8752 7.9222ZM19.9552 26.8122C20.3252 27.1722 20.9452 27.1922 21.3152 26.8122C21.6752 26.4422 21.6852 25.8322 21.3152 25.4622L1.6352 5.8022C1.2652 5.4222 0.6552 5.4222 0.2752 5.8022C-0.0848 6.1622 -0.0948 6.7822 0.2752 7.1522ZM10.0952 27.4922C12.6452 27.4922 14.7652 26.6622 16.2352 25.2022L3.4452 12.4322C2.4652 14.6022 1.6152 16.9422 1.6152 19.2022C1.6152 24.1722 4.9952 27.4922 10.0952 27.4922Z" />
        </svg>
    