
        <svg xmlns="http://www.w3.org/2000/svg" viewBox="0 0 100 100">
            <path d="M12.1023 24.2064C18.7823 24.2064 24.2123 18.7864 24.2123 12.1064C24.2123 5.4264 18.7823 -0.0036 12.1023 -0.0036C5.4223 -0.0036 0.0023 5.4264 0.0023 12.1064C0.0023 18.7864 5.4223 24.2064 12.1023 24.2064ZM12.1023 18.0464C9.6023 18.0464 7.9023 16.4164 7.9023 13.9664C7.9023 12.8064 8.3823 11.7464 8.7823 10.8864C9.4223 9.4664 10.4723 7.7464 11.4023 6.3364C11.6123 6.0264 11.8323 5.8664 12.1023 5.8664C12.3723 5.8664 12.6123 6.0264 12.8223 6.3364C13.7323 7.7464 14.7923 9.4664 15.4423 10.8864C15.8323 11.7464 16.3123 12.8064 16.3123 13.9664C16.3123 16.4164 14.6223 18.0464 12.1023 18.0464Z" />
        </svg>
    