
        <svg xmlns="http://www.w3.org/2000/svg" viewBox="0 0 100 100">
            <path d="M17.0788 6.663C18.9588 6.663 20.4188 5.203 20.4188 3.333C20.4188 1.463 18.9588 0.003 17.0788 0.003C15.2188 0.003 13.7488 1.463 13.7488 3.333C13.7488 5.203 15.2188 6.663 17.0788 6.663ZM17.0788 5.383C15.9488 5.383 15.0588 4.473 15.0588 3.333C15.0588 2.183 15.9488 1.293 17.0788 1.293C18.2288 1.293 19.1288 2.183 19.1288 3.333C19.1288 4.473 18.2288 5.383 17.0788 5.383ZM5.0888 7.973L6.1988 9.063C7.0588 7.563 8.0188 6.063 8.9688 4.613C9.0988 4.413 9.2988 4.413 9.4288 4.613C11.0888 7.133 12.8088 9.763 14.0688 12.663C14.8088 14.283 15.5488 16.293 15.5488 17.433C15.5488 17.763 15.5088 18.033 15.4488 18.313L16.9388 19.803C17.0488 19.323 17.1088 18.823 17.1088 18.283C17.1088 16.123 16.2488 13.803 15.4088 11.963C14.1588 9.213 12.2988 6.203 10.5888 3.563C10.2288 3.013 9.8088 2.693 9.1988 2.693C8.5788 2.693 8.1788 3.013 7.8088 3.563C6.8888 4.973 5.9588 6.473 5.0888 7.973ZM18.5388 25.093C18.8188 25.363 19.2488 25.373 19.5288 25.093C19.7988 24.813 19.7988 24.363 19.5288 24.093L1.1988 5.773C0.9288 5.503 0.4888 5.493 0.2088 5.773C-0.0612 6.033 -0.0712 6.493 0.2088 6.763ZM9.1988 25.993C11.7688 25.993 13.8688 25.063 15.2488 23.503L14.1788 22.433C13.0588 23.743 11.3288 24.503 9.1988 24.503C5.3388 24.503 2.7688 22.023 2.7688 18.283C2.7688 16.473 3.4888 14.543 4.3388 12.613L3.2088 11.473C2.1488 13.803 1.2988 16.123 1.2988 18.283C1.2988 22.903 4.4488 25.993 9.1988 25.993Z" />
        </svg>
    