
        <svg xmlns="http://www.w3.org/2000/svg" viewBox="0 0 100 100">
            <path d="M3.1617 17.5983H21.5117C23.5917 17.5983 24.6717 16.4983 24.6717 14.4483V3.1483C24.6717 1.1083 23.5917 -0.0017 21.5117 -0.0017H3.1617C1.0917 -0.0017 0.0017 1.0783 0.0017 3.1483V14.4483C0.0017 16.5283 1.0917 17.5983 3.1617 17.5983ZM3.1917 16.7383C1.6617 16.7383 0.8717 15.9383 0.8717 14.4183V3.1983C0.8717 1.6683 1.6617 0.8683 3.1917 0.8683H21.4817C22.9617 0.8683 23.8017 1.6683 23.8017 3.1983V14.4183C23.8017 15.9383 22.9617 16.7383 21.4817 16.7383ZM15.1017 6.3383C15.7717 6.3383 16.2917 5.8383 16.2917 5.1583C16.2917 4.4783 15.7717 3.9683 15.1017 3.9683C14.4217 3.9683 13.9117 4.4783 13.9117 5.1583C13.9117 5.8383 14.4217 6.3383 15.1017 6.3383ZM19.1417 6.3383C19.8117 6.3383 20.3217 5.8383 20.3217 5.1583C20.3217 4.4783 19.8117 3.9683 19.1417 3.9683C18.4617 3.9683 17.9517 4.4783 17.9517 5.1583C17.9517 5.8383 18.4617 6.3383 19.1417 6.3383ZM7.7817 13.5683C9.7017 13.5683 10.9817 12.3183 10.9817 10.4383C10.9817 9.6283 10.6517 8.6983 10.2217 7.7583C9.6917 6.6283 8.9517 5.3883 8.2217 4.2683C8.1017 4.0783 7.9717 3.9883 7.7817 3.9883C7.5817 3.9883 7.4517 4.0783 7.3317 4.2683C6.6017 5.3883 5.8617 6.6283 5.3417 7.7583C4.9017 8.6983 4.5717 9.6283 4.5717 10.4383C4.5717 12.3183 5.8517 13.5683 7.7817 13.5683ZM15.1017 9.9583C15.7717 9.9583 16.2917 9.4583 16.2917 8.7783C16.2917 8.0983 15.7717 7.5983 15.1017 7.5983C14.4217 7.5983 13.9117 8.0983 13.9117 8.7783C13.9117 9.4583 14.4217 9.9583 15.1017 9.9583ZM19.1417 9.9583C19.8117 9.9583 20.3217 9.4583 20.3217 8.7783C20.3217 8.0983 19.8117 7.5983 19.1417 7.5983C18.4617 7.5983 17.9517 8.0983 17.9517 8.7783C17.9517 9.4583 18.4617 9.9583 19.1417 9.9583ZM15.1017 13.5783C15.7717 13.5783 16.2917 13.0783 16.2917 12.3983C16.2917 11.7183 15.7717 11.2183 15.1017 11.2183C14.4217 11.2183 13.9117 11.7183 13.9117 12.3983C13.9117 13.0783 14.4217 13.5783 15.1017 13.5783ZM19.1417 13.5783C19.8117 13.5783 20.3217 13.0783 20.3217 12.3983C20.3217 11.7183 19.8117 11.2183 19.1417 11.2183C18.4617 11.2183 17.9517 11.7183 17.9517 12.3983C17.9517 13.0783 18.4617 13.5783 19.1417 13.5783Z" />
        </svg>
    