
        <svg xmlns="http://www.w3.org/2000/svg" viewBox="0 0 100 100">
            <path d="M16.9523 7.3513C19.0223 7.3513 20.6223 5.7312 20.6223 3.6812C20.6223 1.6212 19.0223 0.0012 16.9523 0.0012C14.9023 0.0012 13.2923 1.6212 13.2923 3.6812C13.2923 5.7312 14.9023 7.3513 16.9523 7.3513ZM16.9523 5.5212C15.9223 5.5212 15.1123 4.7113 15.1123 3.6812C15.1123 2.6412 15.9223 1.8313 16.9523 1.8313C17.9923 1.8313 18.7923 2.6412 18.7923 3.6812C18.7923 4.7113 17.9923 5.5212 16.9523 5.5212ZM8.3323 27.1313C13.3223 27.1313 16.6523 23.8713 16.6523 18.9913C16.6523 16.6513 15.7423 14.2413 14.9323 12.4813C13.6923 9.7113 11.7923 6.7013 10.0923 4.0912C9.6323 3.4013 9.0923 3.0012 8.3323 3.0012C7.5623 3.0012 7.0223 3.4013 6.5623 4.0912C4.8523 6.7313 2.9423 9.7513 1.7023 12.5413C0.9123 14.2713 0.0023 16.6613 0.0023 18.9913C0.0023 23.8713 3.3323 27.1313 8.3323 27.1313Z" />
        </svg>
    