
        <svg xmlns="http://www.w3.org/2000/svg" viewBox="0 0 100 100">
            <path d="M4.3817 20.8255H22.5917C25.3917 20.8255 26.9717 19.2455 26.9717 16.4555V4.3555C26.9717 1.5855 25.3917 -0.0045 22.5917 -0.0045H4.3817C1.5917 -0.0045 0.0017 1.5855 0.0017 4.3555V16.4555C0.0017 19.2455 1.5917 20.8255 4.3817 20.8255ZM4.8717 17.1955C4.0417 17.1955 3.6217 16.8255 3.6217 15.9355V4.8755C3.6217 3.9955 4.0417 3.6255 4.8717 3.6255H22.1017C22.9217 3.6255 23.3517 3.9955 23.3517 4.8755V15.9355C23.3517 16.8255 22.9217 17.1955 22.1017 17.1955ZM16.1217 8.4455C16.9017 8.4455 17.5417 7.7855 17.5417 7.0155C17.5417 6.2455 16.9017 5.5855 16.1217 5.5855C15.3517 5.5855 14.7117 6.2455 14.7117 7.0155C14.7117 7.7855 15.3517 8.4455 16.1217 8.4455ZM19.9017 8.4455C20.6617 8.4455 21.3117 7.7855 21.3117 7.0155C21.3117 6.2455 20.6617 5.5855 19.9017 5.5855C19.1217 5.5855 18.4717 6.2455 18.4717 7.0155C18.4717 7.7855 19.1217 8.4455 19.9017 8.4455ZM9.4917 14.8055C11.3717 14.8055 12.6017 13.5955 12.6017 11.7755C12.6017 10.9755 12.2717 10.1455 11.8817 9.3555C11.4417 8.4255 10.7817 7.3955 10.1817 6.4655C9.9817 6.1755 9.7417 5.9955 9.4917 5.9955C9.2417 5.9955 9.0117 6.1755 8.8117 6.4655C8.2117 7.3955 7.5617 8.4255 7.1117 9.3655C6.7217 10.1555 6.3917 10.9755 6.3917 11.7755C6.3917 13.5955 7.6317 14.8055 9.4917 14.8055ZM16.1217 11.8155C16.9017 11.8155 17.5417 11.1655 17.5417 10.3955C17.5417 9.6255 16.9017 8.9755 16.1217 8.9755C15.3517 8.9755 14.7117 9.6255 14.7117 10.3955C14.7117 11.1655 15.3517 11.8155 16.1217 11.8155ZM19.9017 11.8155C20.6617 11.8155 21.3117 11.1655 21.3117 10.3955C21.3117 9.6255 20.6617 8.9755 19.9017 8.9755C19.1217 8.9755 18.4717 9.6255 18.4717 10.3955C18.4717 11.1655 19.1217 11.8155 19.9017 11.8155ZM16.1217 15.1855C16.9017 15.1855 17.5417 14.5455 17.5417 13.7655C17.5417 12.9955 16.9017 12.3355 16.1217 12.3355C15.3517 12.3355 14.7117 12.9955 14.7117 13.7655C14.7117 14.5455 15.3517 15.1855 16.1217 15.1855ZM19.9017 15.1855C20.6617 15.1855 21.3117 14.5455 21.3117 13.7655C21.3117 12.9955 20.6617 12.3355 19.9017 12.3355C19.1217 12.3355 18.4717 12.9955 18.4717 13.7655C18.4717 14.5455 19.1217 15.1855 19.9017 15.1855Z" />
        </svg>
    