
        <svg xmlns="http://www.w3.org/2000/svg" viewBox="0 0 100 100">
            <path d="M12.1023 24.2147C18.7823 24.2147 24.2123 18.7847 24.2123 12.1047C24.2123 5.4247 18.7823 0.0047 12.1023 0.0047C5.4223 0.0047 0.0023 5.4247 0.0023 12.1047C0.0023 18.7847 5.4223 24.2147 12.1023 24.2147ZM16.0123 5.5347C16.9123 5.5347 17.5123 6.1547 17.5123 7.0647V8.7147H6.6323V7.0647C6.6323 6.1547 7.2223 5.5347 8.1223 5.5347ZM8.9023 7.9647C9.2423 7.9647 9.4923 7.6947 9.4923 7.3847C9.4923 7.0447 9.2423 6.7747 8.9023 6.7747C8.5923 6.7747 8.3223 7.0447 8.3223 7.3847C8.3223 7.6947 8.5923 7.9647 8.9023 7.9647ZM10.5923 7.9647C10.9223 7.9647 11.1823 7.6947 11.1823 7.3847C11.1823 7.0447 10.9223 6.7747 10.5923 6.7747C10.2623 6.7747 10.0123 7.0447 10.0123 7.3847C10.0123 7.6947 10.2623 7.9647 10.5923 7.9647ZM14.0623 7.7447H15.5523C15.7723 7.7447 15.9223 7.5947 15.9223 7.3847C15.9223 7.1447 15.7723 7.0047 15.5523 7.0047H14.0623C13.8523 7.0047 13.7023 7.1447 13.7023 7.3847C13.7023 7.5947 13.8523 7.7447 14.0623 7.7447ZM8.1223 18.6447C7.2223 18.6447 6.6323 18.0247 6.6323 17.1047V9.6247H17.5123V17.1047C17.5123 18.0247 16.9123 18.6447 16.0123 18.6447ZM9.6423 16.8647H14.4823C14.9923 16.8647 15.3323 16.5247 15.3323 16.0147V11.8047C15.3323 11.2947 14.9923 10.9447 14.4823 10.9447H9.6423C9.1423 10.9447 8.8023 11.2947 8.8023 11.8047V16.0147C8.8023 16.5247 9.1423 16.8647 9.6423 16.8647ZM9.8223 16.0747C9.6823 16.0747 9.6123 15.9847 9.6123 15.8547V11.9647C9.6123 11.8347 9.6823 11.7447 9.8223 11.7447H14.3123C14.4523 11.7447 14.5323 11.8347 14.5323 11.9647V15.8547C14.5323 15.9847 14.4523 16.0747 14.3123 16.0747Z" />
        </svg>
    