
        <svg xmlns="http://www.w3.org/2000/svg" viewBox="0 0 100 100">
            <path d="M11.3523 22.7064C17.6023 22.7064 22.7123 17.6064 22.7123 11.3564C22.7123 5.1064 17.6023 -0.0036 11.3523 -0.0036C5.1123 -0.0036 0.0023 5.1064 0.0023 11.3564C0.0023 17.6064 5.1123 22.7064 11.3523 22.7064ZM8.4823 16.5264C8.3123 16.5264 8.2023 16.3964 8.2023 16.1964V6.5464C8.2023 6.3564 8.3123 6.2264 8.4823 6.2264H14.2023C14.4123 6.2264 14.4923 6.3564 14.4923 6.5064C14.4923 6.6564 14.4123 6.7964 14.2023 6.7964H8.8123V10.9464H13.9423C14.1423 10.9464 14.2223 11.0764 14.2223 11.2364C14.2223 11.3764 14.1423 11.5264 13.9423 11.5264H8.8123V15.9464H14.2023C14.4123 15.9464 14.4923 16.0864 14.4923 16.2264C14.4923 16.3964 14.4123 16.5264 14.2023 16.5264Z" />
        </svg>
    