
        <svg xmlns="http://www.w3.org/2000/svg" viewBox="0 0 100 100">
            <path d="M11.9523 23.9041C18.5523 23.9041 23.9023 18.5541 23.9023 11.9541C23.9023 5.3541 18.5523 0.0041 11.9523 0.0041C5.3523 0.0041 0.0023 5.3541 0.0023 11.9541C0.0023 18.5541 5.3523 23.9041 11.9523 23.9041ZM11.9523 21.9141C6.4423 21.9141 1.9923 17.4641 1.9923 11.9541C1.9923 6.4441 6.4423 1.9941 11.9523 1.9941C17.4623 1.9941 21.9123 6.4441 21.9123 11.9541C21.9123 17.4641 17.4623 21.9141 11.9523 21.9141ZM9.2423 17.1841H14.7923C15.2323 17.1841 15.5623 16.8841 15.5623 16.4141C15.5623 15.9341 15.2323 15.6441 14.7923 15.6441H10.1923V12.4941H14.4823C14.9323 12.4941 15.2623 12.2341 15.2623 11.7741C15.2623 11.2941 14.9323 11.0241 14.4823 11.0241H10.1923V8.0341H14.7923C15.2323 8.0341 15.5623 7.7341 15.5623 7.2641C15.5623 6.7841 15.2323 6.5041 14.7923 6.5041H9.2423C8.6323 6.5041 8.3223 6.9241 8.3223 7.5541V16.1241C8.3223 16.7541 8.6323 17.1841 9.2423 17.1841Z" />
        </svg>
    