
        <svg xmlns="http://www.w3.org/2000/svg" viewBox="0 0 100 100">
            <path d="M3.8417 21.8745H18.0317C20.5617 21.8745 21.8817 20.5745 21.8817 18.0745V3.8045C21.8817 1.3145 20.5617 0.0045 18.0317 0.0045H3.8417C1.3117 0.0045 0.0017 1.3045 0.0017 3.8045V18.0745C0.0017 20.5745 1.3117 21.8745 3.8417 21.8745ZM8.2517 16.3545C7.4517 16.3545 7.0417 15.8545 7.0417 15.0345V6.6645C7.0417 5.8445 7.4517 5.3345 8.2517 5.3345H13.7917C14.3817 5.3345 14.7617 5.6745 14.7617 6.2545C14.7617 6.8345 14.3817 7.1845 13.7917 7.1845H9.3417V9.9245H13.5317C14.0717 9.9245 14.4517 10.2145 14.4517 10.7845C14.4517 11.3245 14.0717 11.6145 13.5317 11.6145H9.3417V14.5045H13.7917C14.3817 14.5045 14.7617 14.8445 14.7617 15.4345C14.7617 16.0045 14.3817 16.3545 13.7917 16.3545Z" />
        </svg>
    