
        <svg xmlns="http://www.w3.org/2000/svg" viewBox="0 0 100 100">
            <path d="M3.9717 22.1117H18.1317C20.7317 22.1117 22.1017 20.7417 22.1017 18.1717V3.9417C22.1017 1.3717 20.7317 0.0017 18.1317 0.0017H3.9717C1.3817 0.0017 0.0017 1.3717 0.0017 3.9417V18.1717C0.0017 20.7417 1.3817 22.1117 3.9717 22.1117ZM8.4217 16.4917C7.5017 16.4917 7.0317 15.9417 7.0317 14.9917V6.9717C7.0317 6.0217 7.5117 5.4717 8.4217 5.4717H13.8417C14.5117 5.4717 14.9417 5.8517 14.9417 6.4917C14.9417 7.1317 14.5117 7.5217 13.8417 7.5217H9.6017V9.9817H13.6317C14.2217 9.9817 14.6217 10.3217 14.6217 10.9217C14.6217 11.4917 14.2217 11.8217 13.6317 11.8217H9.6017V14.4417H13.8417C14.5117 14.4417 14.9417 14.8117 14.9417 15.4717C14.9417 16.1017 14.5117 16.4917 13.8417 16.4917Z" />
        </svg>
    