
        <svg xmlns="http://www.w3.org/2000/svg" viewBox="0 0 100 100">
            <path d="M0.0017 20.4502C0.0017 24.5402 2.3717 26.8002 6.3517 26.8002C9.3517 26.8002 11.4917 25.2702 12.8817 22.5902L13.8617 20.7102C15.4317 17.6602 19.8617 15.8602 19.8617 9.9502C19.8617 3.9802 15.8817 0.0002 9.9217 0.0002C3.9717 0.0002 0.0017 4.0302 0.0017 10.1002ZM3.3517 20.4402V10.1002C3.3517 6.0502 5.9917 3.3502 9.9217 3.3502C13.8717 3.3502 16.5117 5.9902 16.5117 9.9502C16.5117 14.6202 12.7617 15.4502 10.7217 19.4902L9.9717 20.9802C9.2117 22.5102 8.2117 23.4402 6.5017 23.4402C4.5217 23.4402 3.3517 22.3202 3.3517 20.4402ZM5.9917 15.8602C6.7017 15.8602 7.1917 15.3602 7.1917 14.6402V12.9702H8.6217C9.2317 12.9702 9.6217 13.3202 9.6217 13.8602C9.6217 14.2302 9.4817 14.5302 9.2317 14.8502L8.2417 16.0902C8.0117 16.3702 7.9017 16.6802 7.9017 16.9502C7.9017 17.5802 8.4117 18.0802 9.1017 18.0802C9.4917 18.0802 9.8217 17.8902 10.0517 17.6002L11.1717 16.1802C11.7217 15.5002 12.0517 14.5502 12.0517 13.7702C12.0517 11.8802 10.6517 10.5902 8.5917 10.5902H7.1917V10.0702C7.1917 8.3002 8.2717 7.1402 9.9217 7.1402C11.6817 7.1402 12.8517 8.2602 12.8517 9.9602C12.8517 10.6402 13.3917 11.1702 14.0717 11.1702C14.7317 11.1702 15.2717 10.6402 15.2717 9.9602C15.2717 6.8302 13.1417 4.7302 9.9217 4.7302C6.8417 4.7302 4.7817 6.8702 4.7817 10.0702V14.6402C4.7817 15.3602 5.2617 15.8602 5.9917 15.8602Z" />
        </svg>
    