
        <svg xmlns="http://www.w3.org/2000/svg" viewBox="0 0 100 100">
            <path d="M0.0017 7.5H30.2017V7.16C30.2017 2.3 27.7017 0 22.5817 0H7.6217C2.5217 0 0.0017 2.27 0.0017 7.16ZM7.6217 20.59H22.5817C27.7817 20.59 30.2017 18.19 30.2017 13.02V8.92H0.0017V13.02C0.0017 18.19 2.4117 20.59 7.6217 20.59ZM15.0917 13.52C14.3917 13.54 13.8117 12.95 13.8117 12.25C13.8117 11.53 14.3917 10.96 15.0917 10.96C15.8117 10.96 16.3817 11.53 16.3817 12.25C16.3817 12.95 15.8117 13.51 15.0917 13.52Z" />
        </svg>
    