
        <svg xmlns="http://www.w3.org/2000/svg" viewBox="0 0 100 100">
            <path d="M0.0017 5.5422C0.0017 8.0822 1.7117 10.2222 4.0417 10.9022C3.4617 9.7622 3.1317 8.4822 3.1317 7.1122C3.1317 4.2022 4.6417 1.6422 6.9017 0.1522C6.4817 0.0422 6.0317 0.0022 5.5617 0.0022C2.4817 0.0022 0.0017 2.4822 0.0017 5.5422ZM31.8417 11.1122C34.9117 11.1122 37.3917 8.6122 37.3917 5.5422C37.3917 2.4822 34.9117 0.0022 31.8417 0.0022C28.7817 0.0022 26.2817 2.4822 26.2817 5.5422C26.2817 8.6122 28.7817 11.1122 31.8417 11.1122ZM10.7917 24.6022H12.0517C13.2217 24.6022 13.9717 23.8822 13.9717 22.7822V15.7722C13.9717 14.1022 14.3717 13.2622 15.6817 12.1022C17.0817 10.8722 17.9717 9.1322 17.9717 7.1122C17.9717 3.5022 15.0617 0.5722 11.4217 0.5722C7.7917 0.5722 4.8917 3.5022 4.8917 7.1122C4.8917 9.1322 5.7617 10.8722 7.1717 12.1022C8.4917 13.2622 8.8817 14.1022 8.8817 15.7722V22.7822C8.8817 23.8822 9.6517 24.6022 10.7917 24.6022ZM25.7217 24.6022H26.9717C28.1517 24.6022 28.9017 23.8822 28.9017 22.7822V15.7722C28.9017 14.3822 29.1717 13.5722 30.0517 12.6222C26.8817 11.8222 24.5417 8.9422 24.5417 5.5422C24.5417 3.6222 25.2817 1.8722 26.4917 0.5722H26.3517C22.7217 0.5722 19.8117 3.5022 19.8117 7.1122C19.8117 9.1322 20.6817 10.8722 22.0917 12.1022C23.4217 13.2622 23.8117 14.1022 23.8117 15.7722V22.7822C23.8117 23.8822 24.5817 24.6022 25.7217 24.6022ZM34.1917 7.9922C33.3717 7.9922 32.7517 6.8922 32.7517 5.5422C32.7517 4.2222 33.3717 3.1122 34.1917 3.1122C35.0017 3.1122 35.6217 4.2222 35.6217 5.5422C35.6217 6.8922 35.0017 7.9922 34.1917 7.9922ZM12.9017 9.2422C12.3117 9.2422 11.8517 8.7922 11.8517 8.1922V5.3122C11.8517 4.7322 12.3117 4.2622 12.9017 4.2622C13.4617 4.2622 13.9417 4.7322 13.9417 5.3122V8.1922C13.9417 8.7622 13.4617 9.2422 12.9017 9.2422Z" />
        </svg>
    