
        <svg xmlns="http://www.w3.org/2000/svg" viewBox="0 0 100 100">
            <path d="M4.9317 9.0817C7.5717 9.1017 9.7817 7.0317 9.7817 4.5217C9.7817 2.0517 7.5717 0.0017 4.9317 0.0017C2.6817 0.0017 1.1517 1.3117 0.3317 2.5417C0.0917 2.8917 0.0017 3.2717 0.0017 3.6917V5.3917C0.0017 5.8117 0.1017 6.1917 0.3317 6.5417C1.1417 7.7617 2.6817 9.0517 4.9317 9.0817ZM17.3117 9.0817C19.5617 9.0517 21.1017 7.7617 21.9117 6.5417C22.1417 6.1917 22.2417 5.8117 22.2417 5.3917V3.6917C22.2417 3.2717 22.1517 2.8917 21.9117 2.5417C21.0917 1.3117 19.5617 0.0017 17.3117 0.0017C14.6717 0.0017 12.4617 2.0517 12.4617 4.5217C12.4617 7.0317 14.6717 9.1017 17.3117 9.0817ZM1.9917 6.2617C1.7217 6.2617 1.5117 6.0617 1.5117 5.7817V3.2817C1.5117 3.0117 1.7217 2.8117 1.9917 2.8117C2.2717 2.8117 2.4717 3.0117 2.4717 3.2817V5.7817C2.4717 6.0617 2.2717 6.2617 1.9917 6.2617ZM20.2517 6.2617C19.9717 6.2617 19.7717 6.0617 19.7717 5.7817V3.2817C19.7717 3.0117 19.9717 2.8117 20.2517 2.8117C20.5217 2.8117 20.7317 3.0117 20.7317 3.2817V5.7817C20.7317 6.0617 20.5217 6.2617 20.2517 6.2617ZM6.6317 18.0717V22.0817H7.6217V18.0717C8.2617 18.0717 8.6417 17.7517 8.6417 17.1417V8.8917C7.7917 9.5517 6.7417 9.9817 5.6117 10.0917V17.1417C5.6117 17.7517 6.0017 18.0717 6.6317 18.0717ZM15.6117 22.0817V18.0717C16.2417 18.0717 16.6317 17.7517 16.6317 17.1417V10.0917C15.5017 9.9817 14.4517 9.5517 13.6017 8.8917V17.1417C13.6017 17.7517 13.9717 18.0717 14.6217 18.0717V22.0817Z" />
        </svg>
    