
        <svg xmlns="http://www.w3.org/2000/svg" viewBox="0 0 100 100">
            <path d="M4.6417 8.5195C7.1417 8.5395 9.1717 6.5895 9.1717 4.2395C9.1717 1.9495 7.1417 -0.0005 4.6417 -0.0005C2.7617 -0.0005 1.2317 1.0095 0.3017 2.4095C0.0917 2.7295 0.0017 3.0595 0.0017 3.4495V5.0895C0.0017 5.4695 0.0917 5.8095 0.3017 6.1195C1.2317 7.5195 2.7617 8.4995 4.6417 8.5195ZM16.2117 8.5195C18.0817 8.4995 19.6217 7.5195 20.5517 6.1195C20.7517 5.8095 20.8517 5.4695 20.8517 5.0895V3.4495C20.8517 3.0595 20.7517 2.7295 20.5517 2.4095C19.6217 1.0095 18.0817 -0.0005 16.2117 -0.0005C13.7217 -0.0005 11.6717 1.9495 11.6717 4.2395C11.6717 6.5895 13.7217 8.5395 16.2117 8.5195ZM1.7917 5.7995C1.5717 5.7995 1.4017 5.6395 1.4017 5.3895V3.1095C1.4017 2.8795 1.5717 2.7195 1.7917 2.7195C2.0417 2.7195 2.2017 2.8795 2.2017 3.1095V5.3895C2.2017 5.6395 2.0417 5.7995 1.7917 5.7995ZM19.0517 5.7995C18.8117 5.7995 18.6417 5.6395 18.6417 5.3895V3.1095C18.6417 2.8795 18.8117 2.7195 19.0517 2.7195C19.2817 2.7195 19.4517 2.8795 19.4517 3.1095V5.3895C19.4517 5.6395 19.2817 5.7995 19.0517 5.7995ZM6.2817 17.6395H6.4117V21.0795H7.1217V17.6395H7.2317C7.8017 17.6395 8.1017 17.3695 8.1017 16.8795V8.3195C7.3517 8.8895 6.4217 9.2895 5.4217 9.4195V16.8795C5.4217 17.3695 5.7317 17.6395 6.2817 17.6395ZM13.6317 17.6395H13.7217V21.0795H14.4417V17.6395H14.5617C15.1217 17.6395 15.4217 17.3695 15.4217 16.8795V9.4195C14.4217 9.2895 13.5017 8.8895 12.7517 8.3195V16.8795C12.7517 17.3695 13.0417 17.6395 13.6317 17.6395Z" />
        </svg>
    