
        <svg xmlns="http://www.w3.org/2000/svg" viewBox="0 0 100 100">
            <path d="M12.6023 25.1986C19.5623 25.1986 25.2023 19.5586 25.2023 12.5986C25.2023 5.6386 19.5623 -0.0014 12.6023 -0.0014C5.6523 -0.0014 0.0023 5.6386 0.0023 12.5986C0.0023 19.5586 5.6523 25.1986 12.6023 25.1986ZM7.8623 12.4886C7.1823 12.4886 6.7223 12.0386 6.7123 11.4186C6.7123 11.1186 6.8823 10.7686 7.1523 10.5186L11.3423 6.6186C11.8723 6.1486 12.2023 5.9386 12.6023 5.9386C13.0123 5.9386 13.3223 6.1386 13.8623 6.6186L18.0423 10.5186C18.3123 10.7686 18.4923 11.1186 18.4923 11.4186C18.4923 12.0386 18.0123 12.4886 17.3423 12.4886ZM8.0523 17.6986C7.2923 17.6986 6.7823 17.2486 6.7823 16.4486V15.0686C6.7823 14.3586 7.2923 13.8486 8.0523 13.8486H17.1523C17.9223 13.8486 18.4223 14.3586 18.4223 15.0686V16.4486C18.4223 17.2486 17.9223 17.6986 17.1523 17.6986Z" />
        </svg>
    