
        <svg xmlns="http://www.w3.org/2000/svg" viewBox="0 0 100 100">
            <path d="M2.6223 5.2459C4.0823 5.2459 5.2523 4.0759 5.2523 2.6259C5.2523 1.1759 4.0823 -0.0041 2.6223 -0.0041C1.1723 -0.0041 0.0023 1.1759 0.0023 2.6259C0.0023 4.0759 1.1723 5.2459 2.6223 5.2459ZM11.4723 5.2459C12.9223 5.2459 14.1123 4.0759 14.1123 2.6259C14.1123 1.1759 12.9223 -0.0041 11.4723 -0.0041C10.0323 -0.0041 8.8523 1.1759 8.8523 2.6259C8.8523 4.0759 10.0323 5.2459 11.4723 5.2459ZM20.3323 5.2459C21.7723 5.2459 22.9523 4.0759 22.9523 2.6259C22.9523 1.1759 21.7723 -0.0041 20.3323 -0.0041C18.8823 -0.0041 17.6923 1.1759 17.6923 2.6259C17.6923 4.0759 18.8823 5.2459 20.3323 5.2459Z" />
        </svg>
    