
        <svg xmlns="http://www.w3.org/2000/svg" viewBox="0 0 100 100">
            <path d="M1.3017 8.0863C2.1517 8.0863 2.6117 7.6163 2.6117 6.7663V4.2063C2.6117 3.1262 3.1617 2.6163 4.1917 2.6163H6.8017C7.6517 2.6163 8.1217 2.1462 8.1217 1.2963C8.1217 0.4563 7.6517 -0.0038 6.8017 -0.0038H3.9717C1.3817 -0.0038 0.0017 1.3562 0.0017 3.9363V6.7663C0.0017 7.6163 0.4717 8.0863 1.3017 8.0863ZM22.1217 8.0863C22.9717 8.0863 23.4217 7.6163 23.4217 6.7663V3.9363C23.4217 1.3663 22.0517 -0.0038 19.4517 -0.0038H16.6317C15.7717 -0.0038 15.3017 0.4563 15.3017 1.2963C15.3017 2.1462 15.7717 2.6163 16.6317 2.6163H19.2317C20.2517 2.6163 20.8117 3.1262 20.8117 4.2063V6.7663C20.8117 7.6163 21.2817 8.0863 22.1217 8.0863ZM6.2017 13.5163C7.1917 13.5163 8.0017 12.7063 8.0017 11.7063C8.0017 10.7063 7.1817 9.9063 6.2017 9.9063C5.2017 9.9063 4.3917 10.7063 4.3917 11.7063C4.3917 12.7063 5.2017 13.5163 6.2017 13.5163ZM11.7217 13.5163C12.7117 13.5163 13.5217 12.7063 13.5217 11.7063C13.5217 10.7063 12.7117 9.9063 11.7217 9.9063C10.7217 9.9063 9.9117 10.7063 9.9117 11.7063C9.9117 12.7063 10.7217 13.5163 11.7217 13.5163ZM17.2417 13.5163C18.2317 13.5163 19.0417 12.7063 19.0417 11.7063C19.0417 10.7063 18.2317 9.9063 17.2417 9.9063C16.2417 9.9063 15.4317 10.7063 15.4317 11.7063C15.4317 12.7063 16.2417 13.5163 17.2417 13.5163ZM3.9717 23.4263H6.8017C7.6517 23.4263 8.1217 22.9563 8.1217 22.1163C8.1217 21.2863 7.6517 20.8163 6.8017 20.8163H4.1917C3.1617 20.8163 2.6117 20.2963 2.6117 19.2163V16.6563C2.6117 15.8063 2.1417 15.3363 1.3017 15.3363C0.4617 15.3363 0.0017 15.8063 0.0017 16.6563V19.4862C0.0017 22.0563 1.3817 23.4263 3.9717 23.4263ZM16.6317 23.4263H19.4517C22.0517 23.4263 23.4217 22.0563 23.4217 19.4862V16.6563C23.4217 15.8063 22.9617 15.3363 22.1217 15.3363C21.2717 15.3363 20.8117 15.8063 20.8117 16.6563V19.2163C20.8117 20.2963 20.2517 20.8163 19.2317 20.8163H16.6317C15.7717 20.8163 15.3017 21.2863 15.3017 22.1163C15.3017 22.9563 15.7717 23.4263 16.6317 23.4263Z" />
        </svg>
    