
        <svg xmlns="http://www.w3.org/2000/svg" viewBox="0 0 100 100">
            <path d="M5.7617 22.5847C5.9517 22.5847 6.1217 22.4647 6.2717 22.3347L10.5317 18.7147H20.4617C23.0117 18.7147 24.6517 17.0347 24.6517 14.5047V4.1947C24.6517 1.6747 23.0117 0.0047 20.4617 0.0047H4.1917C1.6417 0.0047 0.0017 1.6447 0.0017 4.1947V14.5047C0.0017 17.0747 1.6417 18.7147 4.1917 18.7147H5.3317V22.0947C5.3317 22.3947 5.5217 22.5847 5.7617 22.5847ZM7.4217 10.5947C6.7217 10.5947 6.1517 10.0447 6.1517 9.3447C6.1517 8.6647 6.7217 8.1047 7.4217 8.1047C8.1017 8.1047 8.6517 8.6647 8.6517 9.3447C8.6517 10.0447 8.1017 10.5947 7.4217 10.5947ZM12.3417 10.5947C11.6417 10.5947 11.0817 10.0447 11.0817 9.3447C11.0817 8.6647 11.6417 8.1047 12.3417 8.1047C13.0217 8.1047 13.5717 8.6647 13.5717 9.3447C13.5717 10.0447 13.0217 10.5947 12.3417 10.5947ZM17.2517 10.5947C16.5617 10.5947 16.0117 10.0447 16.0117 9.3447C16.0117 8.6647 16.5617 8.1047 17.2517 8.1047C17.9417 8.1047 18.5017 8.6647 18.5017 9.3447C18.5017 10.0447 17.9417 10.5947 17.2517 10.5947Z" />
        </svg>
    