
        <svg xmlns="http://www.w3.org/2000/svg" viewBox="0 0 100 100">
            <path d="M8.7317 26.6727C9.3417 26.6727 9.8717 26.4327 10.6017 25.7927L15.1517 21.8527H22.0517C25.7317 21.8527 28.1717 19.4027 28.1717 15.7227V6.1327C28.1717 2.4527 25.7317 0.0027 22.0517 0.0027H6.1217C2.4417 0.0027 0.0017 2.4527 0.0017 6.1327V15.7227C0.0017 19.4027 2.7117 21.8527 5.7117 21.8527H7.2917V25.1027C7.2917 26.0727 7.8517 26.6727 8.7317 26.6727ZM14.0817 8.0827C13.0617 8.0827 12.2417 7.2727 12.2417 6.2427C12.2417 5.2127 13.0617 4.4227 14.0817 4.4227C15.0917 4.4227 15.9117 5.2127 15.9117 6.2427C15.9117 7.2727 15.0917 8.0827 14.0817 8.0827ZM14.0817 12.7627C13.0617 12.7627 12.2417 11.9427 12.2417 10.9327C12.2417 9.9127 13.0617 9.0927 14.0817 9.0927C15.0917 9.0927 15.9117 9.9127 15.9117 10.9327C15.9117 11.9427 15.0917 12.7627 14.0817 12.7627ZM14.0817 17.4527C13.0617 17.4527 12.2417 16.6427 12.2417 15.6127C12.2417 14.5827 13.0617 13.7827 14.0817 13.7827C15.0917 13.7827 15.9117 14.5827 15.9117 15.6127C15.9117 16.6427 15.0917 17.4527 14.0817 17.4527Z" />
        </svg>
    