
        <svg xmlns="http://www.w3.org/2000/svg" viewBox="0 0 100 100">
            <path d="M0.0017 15.1156C0.0017 17.3356 1.2917 18.6056 3.5417 18.6056H25.2117C27.4617 18.6056 28.7417 17.3356 28.7417 15.1156V3.4956C28.7417 1.2656 27.4617 -0.0044 25.2117 -0.0044H3.5417C1.2917 -0.0044 0.0017 1.2656 0.0017 3.4956ZM3.7217 14.0656V4.5356C3.7217 3.7756 4.1517 3.3656 4.9117 3.3656H23.8317C24.6017 3.3656 25.0217 3.7756 25.0217 4.5356V14.0656C25.0217 14.7756 24.6017 15.2356 23.8317 15.2356H4.9117C4.1517 15.2356 3.7217 14.7756 3.7217 14.0656ZM8.8017 11.2656C9.8817 11.2656 10.7617 10.3856 10.7617 9.3056C10.7617 8.2256 9.8817 7.3356 8.8017 7.3356C7.7217 7.3356 6.8317 8.2256 6.8317 9.3056C6.8317 10.3856 7.7217 11.2656 8.8017 11.2656ZM14.3917 11.2656C15.4717 11.2656 16.3517 10.3856 16.3517 9.3056C16.3517 8.2256 15.4717 7.3356 14.3917 7.3356C13.3117 7.3356 12.4317 8.2256 12.4317 9.3056C12.4317 10.3856 13.3117 11.2656 14.3917 11.2656ZM19.9817 11.2656C21.0617 11.2656 21.9417 10.3856 21.9417 9.3056C21.9417 8.2256 21.0617 7.3356 19.9817 7.3356C18.9017 7.3356 18.0217 8.2256 18.0217 9.3056C18.0217 10.3856 18.9017 11.2656 19.9817 11.2656Z" />
        </svg>
    