
        <svg xmlns="http://www.w3.org/2000/svg" viewBox="0 0 100 100">
            <path d="M0.9417 7.4502C1.5617 7.4502 1.8917 7.1002 1.8917 6.4902V3.7302C1.8917 2.5102 2.5317 1.8902 3.7017 1.8902H6.5417C7.1617 1.8902 7.5017 1.5502 7.5017 0.9402C7.5017 0.3302 7.1617 0.0002 6.5417 0.0002H3.6817C1.2317 0.0002 0.0017 1.2102 0.0017 3.6202V6.4902C0.0017 7.1002 0.3417 7.4502 0.9417 7.4502ZM21.9917 7.4502C22.6217 7.4502 22.9417 7.1002 22.9417 6.4902V3.6202C22.9417 1.2102 21.7117 0.0002 19.2617 0.0002H16.3917C15.7817 0.0002 15.4417 0.3302 15.4417 0.9402C15.4417 1.5502 15.7817 1.8902 16.3917 1.8902H19.2317C20.3917 1.8902 21.0617 2.5102 21.0617 3.7302V6.4902C21.0617 7.1002 21.4017 7.4502 21.9917 7.4502ZM6.0117 13.1602C6.9517 13.1602 7.7117 12.4002 7.7117 11.4602C7.7117 10.5202 6.9417 9.7602 6.0117 9.7602C5.0717 9.7602 4.3117 10.5202 4.3117 11.4602C4.3117 12.4002 5.0717 13.1602 6.0117 13.1602ZM11.4817 13.1602C12.4117 13.1602 13.1717 12.4002 13.1717 11.4602C13.1717 10.5202 12.4117 9.7602 11.4817 9.7602C10.5517 9.7602 9.7817 10.5202 9.7817 11.4602C9.7817 12.4002 10.5517 13.1602 11.4817 13.1602ZM16.9417 13.1602C17.8817 13.1602 18.6417 12.4002 18.6417 11.4602C18.6417 10.5202 17.8817 9.7602 16.9417 9.7602C16.0117 9.7602 15.2417 10.5202 15.2417 11.4602C15.2417 12.4002 16.0117 13.1602 16.9417 13.1602ZM3.6817 22.9302H6.5417C7.1617 22.9302 7.5017 22.5902 7.5017 22.0002C7.5017 21.3902 7.1617 21.0502 6.5417 21.0502H3.7017C2.5317 21.0502 1.8917 20.4302 1.8917 19.2102V16.4402C1.8917 15.8202 1.5517 15.4802 0.9417 15.4802C0.3317 15.4802 0.0017 15.8202 0.0017 16.4402V19.3002C0.0017 21.7302 1.2317 22.9302 3.6817 22.9302ZM16.3917 22.9302H19.2617C21.7117 22.9302 22.9417 21.7102 22.9417 19.3002V16.4402C22.9417 15.8202 22.6017 15.4802 21.9917 15.4802C21.3917 15.4802 21.0617 15.8202 21.0617 16.4402V19.2102C21.0617 20.4302 20.3917 21.0502 19.2317 21.0502H16.3917C15.7817 21.0502 15.4417 21.3902 15.4417 22.0002C15.4417 22.5902 15.7817 22.9302 16.3917 22.9302Z" />
        </svg>
    