
        <svg xmlns="http://www.w3.org/2000/svg" viewBox="0 0 100 100">
            <path d="M12.1023 24.2064C18.7823 24.2064 24.2123 18.7864 24.2123 12.1064C24.2123 5.4264 18.7823 -0.0036 12.1023 -0.0036C5.4223 -0.0036 0.0023 5.4264 0.0023 12.1064C0.0023 18.7864 5.4223 24.2064 12.1023 24.2064ZM12.1023 21.8164C6.7223 21.8164 2.3823 17.4864 2.3823 12.1064C2.3823 6.7264 6.7223 2.3764 12.1023 2.3764C17.4823 2.3764 21.8323 6.7264 21.8323 12.1064C21.8323 17.4864 17.4823 21.8164 12.1023 21.8164ZM6.6023 13.8664C7.5723 13.8664 8.3523 13.0664 8.3523 12.0964C8.3523 11.1364 7.5623 10.3364 6.6023 10.3364C5.6323 10.3364 4.8423 11.1364 4.8423 12.0964C4.8423 13.0664 5.6323 13.8664 6.6023 13.8664ZM12.0923 13.8664C13.0623 13.8664 13.8523 13.0664 13.8523 12.0964C13.8523 11.1364 13.0623 10.3364 12.0923 10.3364C11.1323 10.3364 10.3323 11.1364 10.3323 12.0964C10.3323 13.0664 11.1323 13.8664 12.0923 13.8664ZM17.5923 13.8664C18.5623 13.8664 19.3523 13.0664 19.3523 12.0964C19.3523 11.1364 18.5623 10.3364 17.5923 10.3364C16.6323 10.3364 15.8323 11.1364 15.8323 12.0964C15.8323 13.0664 16.6323 13.8664 17.5923 13.8664Z" />
        </svg>
    