
        <svg xmlns="http://www.w3.org/2000/svg" viewBox="0 0 100 100">
            <path d="M5.7617 22.5847C5.9517 22.5847 6.1017 22.4747 6.2717 22.3447L10.5317 18.7147H20.4617C23.0117 18.7147 24.6517 17.0347 24.6517 14.5047V4.1947C24.6517 1.6747 23.0117 0.0047 20.4617 0.0047H4.1917C1.6417 0.0047 0.0017 1.6447 0.0017 4.1947V14.5047C0.0017 17.0747 1.6417 18.7147 4.1917 18.7147H5.3317V22.1047C5.3317 22.3947 5.5217 22.5847 5.7617 22.5847ZM5.8717 21.9647V18.4247C5.8717 18.2247 5.7917 18.1447 5.5917 18.1447H4.2317C2.0117 18.1447 0.5717 16.6947 0.5717 14.4847V4.2347C0.5717 2.0147 2.0117 0.5747 4.2317 0.5747H20.4417C22.5817 0.5747 24.0817 2.0147 24.0817 4.2347V14.4847C24.0817 16.6947 22.5817 18.1447 20.4417 18.1447H10.6617C10.3717 18.1447 10.2317 18.1947 9.9617 18.4347ZM7.4217 10.5947C8.1017 10.5947 8.6517 10.0447 8.6517 9.3447C8.6517 8.6647 8.1017 8.1047 7.4217 8.1047C6.7117 8.1047 6.1517 8.6647 6.1517 9.3447C6.1517 10.0447 6.7117 10.5947 7.4217 10.5947ZM12.3417 10.5947C13.0217 10.5947 13.5717 10.0447 13.5717 9.3447C13.5717 8.6647 13.0217 8.1047 12.3417 8.1047C11.6417 8.1047 11.0817 8.6647 11.0817 9.3447C11.0817 10.0447 11.6417 10.5947 12.3417 10.5947ZM17.2617 10.5947C17.9417 10.5947 18.5017 10.0447 18.5017 9.3447C18.5017 8.6647 17.9417 8.1047 17.2617 8.1047C16.5617 8.1047 16.0117 8.6647 16.0117 9.3447C16.0117 10.0447 16.5617 10.5947 17.2617 10.5947Z" />
        </svg>
    