
        <svg xmlns="http://www.w3.org/2000/svg" viewBox="0 0 100 100">
            <path d="M15.4417 18.6933H14.5617V19.5933C14.5617 21.1333 13.7217 21.9233 12.2617 21.9233H3.1917C1.6717 21.9233 0.8817 21.1333 0.8817 19.5933V3.2033C0.8817 1.6633 1.6717 0.8633 3.1917 0.8633H12.2617C13.7217 0.8633 14.5617 1.6633 14.5617 3.2033V15.0033H15.4417V3.1533C15.4417 1.1033 14.3517 0.0033 12.2817 0.0033H3.1617C1.0917 0.0033 0.0017 1.0733 0.0017 3.1533V19.6433C0.0017 21.7133 1.0917 22.7933 3.1617 22.7933H12.2817C14.3517 22.7933 15.4417 21.6933 15.4417 19.6433ZM4.1817 5.2733C4.9117 5.2733 5.4917 4.7033 5.4917 3.9933C5.4917 3.2433 4.9117 2.6733 4.1817 2.6733C3.4617 2.6733 2.8717 3.2433 2.8717 3.9933C2.8717 4.7033 3.4617 5.2733 4.1817 5.2733ZM7.7217 5.2733C8.4617 5.2733 9.0317 4.7033 9.0317 3.9933C9.0317 3.2433 8.4617 2.6733 7.7217 2.6733C6.9917 2.6733 6.4117 3.2433 6.4117 3.9933C6.4117 4.7033 6.9917 5.2733 7.7217 5.2733ZM11.2617 5.2733C11.9917 5.2733 12.5717 4.7033 12.5717 3.9933C12.5717 3.2433 11.9917 2.6733 11.2617 2.6733C10.5317 2.6733 9.9717 3.2433 9.9717 3.9933C9.9717 4.7033 10.5317 5.2733 11.2617 5.2733ZM4.1817 8.6933C4.9117 8.6933 5.4917 8.1133 5.4917 7.3833C5.4917 6.6433 4.9117 6.0733 4.1817 6.0733C3.4617 6.0733 2.8717 6.6433 2.8717 7.3833C2.8717 8.1133 3.4617 8.6933 4.1817 8.6933ZM7.7217 8.6933C8.4617 8.6933 9.0317 8.1133 9.0317 7.3833C9.0317 6.6433 8.4617 6.0733 7.7217 6.0733C6.9917 6.0733 6.4117 6.6433 6.4117 7.3833C6.4117 8.1133 6.9917 8.6933 7.7217 8.6933ZM11.2617 8.6933C11.9917 8.6933 12.5717 8.1133 12.5717 7.3833C12.5717 6.6433 11.9917 6.0733 11.2617 6.0733C10.5317 6.0733 9.9717 6.6433 9.9717 7.3833C9.9717 8.1133 10.5317 8.6933 11.2617 8.6933ZM4.1817 12.1133C4.9117 12.1133 5.4917 11.5433 5.4917 10.7933C5.4917 10.0733 4.9117 9.4933 4.1817 9.4933C3.4617 9.4933 2.8717 10.0733 2.8717 10.7933C2.8717 11.5433 3.4617 12.1133 4.1817 12.1133ZM7.7217 12.1133C8.4617 12.1133 9.0317 11.5433 9.0317 10.7933C9.0317 10.0733 8.4617 9.4933 7.7217 9.4933C6.9917 9.4933 6.4117 10.0733 6.4117 10.7933C6.4117 11.5433 6.9917 12.1133 7.7217 12.1133ZM11.2617 12.1133C11.9917 12.1133 12.5717 11.5433 12.5717 10.7933C12.5717 10.0733 11.9917 9.4933 11.2617 9.4933C10.5317 9.4933 9.9717 10.0733 9.9717 10.7933C9.9717 11.5433 10.5317 12.1133 11.2617 12.1133ZM7.7217 19.9833C9.0317 19.9833 10.1617 19.1833 10.6317 18.0333H16.7017C17.3517 18.0333 17.8817 17.5033 17.8817 16.8433C17.8817 16.1933 17.3517 15.6533 16.7017 15.6533H10.6317C10.1617 14.5233 9.0317 13.7233 7.7217 13.7233C5.9917 13.7233 4.5817 15.1133 4.5817 16.8433C4.5817 18.5733 5.9917 19.9833 7.7217 19.9833Z" />
        </svg>
    