
        <svg xmlns="http://www.w3.org/2000/svg" viewBox="0 0 100 100">
            <path d="M3.0117 22.2755H12.1417C14.1017 22.2755 15.1417 21.2155 15.1417 19.2655V18.2655H10.0617C9.5317 19.0655 8.6017 19.5655 7.5717 19.5655C5.8917 19.5655 4.5317 18.2155 4.5317 16.5255C4.5317 14.8555 5.8917 13.4955 7.5717 13.4955C8.6217 13.4955 9.5317 14.0155 10.0617 14.8055H15.1417V3.0155C15.1417 1.0755 14.1017 -0.0045 12.1417 -0.0045H3.0117C1.0417 -0.0045 0.0017 1.0555 0.0017 3.0155V19.2655C0.0017 21.2355 1.0417 22.2755 3.0117 22.2755ZM4.0417 5.0755C3.3317 5.0755 2.7617 4.5155 2.7617 3.8155C2.7617 3.0955 3.3317 2.5355 4.0417 2.5355C4.7717 2.5355 5.3317 3.0955 5.3317 3.8155C5.3317 4.5155 4.7717 5.0755 4.0417 5.0755ZM7.5717 5.0755C6.8517 5.0755 6.2917 4.5155 6.2917 3.8155C6.2917 3.0955 6.8517 2.5355 7.5717 2.5355C8.2817 2.5355 8.8617 3.0955 8.8617 3.8155C8.8617 4.5155 8.2817 5.0755 7.5717 5.0755ZM11.1017 5.0755C10.3817 5.0755 9.8317 4.5155 9.8317 3.8155C9.8317 3.0955 10.3817 2.5355 11.1017 2.5355C11.8117 2.5355 12.3917 3.0955 12.3917 3.8155C12.3917 4.5155 11.8117 5.0755 11.1017 5.0755ZM4.0417 8.4855C3.3317 8.4855 2.7617 7.9255 2.7617 7.1955C2.7617 6.4755 3.3317 5.9155 4.0417 5.9155C4.7717 5.9155 5.3317 6.4755 5.3317 7.1955C5.3317 7.9255 4.7717 8.4855 4.0417 8.4855ZM7.5717 8.4855C6.8517 8.4855 6.2917 7.9255 6.2917 7.1955C6.2917 6.4755 6.8517 5.9155 7.5717 5.9155C8.2817 5.9155 8.8617 6.4755 8.8617 7.1955C8.8617 7.9255 8.2817 8.4855 7.5717 8.4855ZM11.1017 8.4855C10.3817 8.4855 9.8317 7.9255 9.8317 7.1955C9.8317 6.4755 10.3817 5.9155 11.1017 5.9155C11.8117 5.9155 12.3917 6.4755 12.3917 7.1955C12.3917 7.9255 11.8117 8.4855 11.1017 8.4855ZM4.0417 11.9055C3.3317 11.9055 2.7617 11.3455 2.7617 10.6055C2.7617 9.9055 3.3317 9.3255 4.0417 9.3255C4.7717 9.3255 5.3317 9.9055 5.3317 10.6055C5.3317 11.3455 4.7717 11.9055 4.0417 11.9055ZM7.5717 11.9055C6.8517 11.9055 6.2917 11.3455 6.2917 10.6055C6.2917 9.9055 6.8517 9.3255 7.5717 9.3255C8.2817 9.3255 8.8617 9.9055 8.8617 10.6055C8.8617 11.3455 8.2817 11.9055 7.5717 11.9055ZM11.1017 11.9055C10.3817 11.9055 9.8317 11.3455 9.8317 10.6055C9.8317 9.9055 10.3817 9.3255 11.1017 9.3255C11.8117 9.3255 12.3917 9.9055 12.3917 10.6055C12.3917 11.3455 11.8117 11.9055 11.1017 11.9055ZM7.5717 17.6755H16.4017C17.0317 17.6755 17.5317 17.1655 17.5317 16.5255C17.5317 15.9055 17.0317 15.3955 16.4017 15.3955H7.5717C6.9517 15.3955 6.4317 15.9055 6.4317 16.5255C6.4317 17.1655 6.9517 17.6755 7.5717 17.6755Z" />
        </svg>
    