
        <svg xmlns="http://www.w3.org/2000/svg" viewBox="0 0 100 100">
            <path d="M17.5617 20.5286H14.9517V21.0586C14.9517 22.0386 14.4117 22.5586 13.4617 22.5586H4.1117C3.1517 22.5586 2.6117 22.0386 2.6117 21.0586V4.1286C2.6117 3.1286 3.1517 2.6086 4.1117 2.6086H13.4617C14.4117 2.6086 14.9517 3.1286 14.9517 4.1286V15.7286H17.5617V3.8586C17.5617 1.3386 16.2317 -0.0014 13.6917 -0.0014H3.8917C1.3517 -0.0014 0.0017 1.3386 0.0017 3.8586V21.3286C0.0017 23.8486 1.3517 25.1686 3.8917 25.1686H13.6917C16.2317 25.1686 17.5617 23.8386 17.5617 21.3286ZM5.2417 6.6586C6.0317 6.6586 6.6717 6.0086 6.6717 5.2486C6.6717 4.4486 6.0317 3.8186 5.2417 3.8186C4.4517 3.8186 3.8217 4.4486 3.8217 5.2486C3.8217 6.0086 4.4517 6.6586 5.2417 6.6586ZM8.7517 6.6586C9.5617 6.6586 10.1917 6.0086 10.1917 5.2486C10.1917 4.4486 9.5617 3.8186 8.7517 3.8186C7.9717 3.8186 7.3317 4.4486 7.3317 5.2486C7.3317 6.0086 7.9717 6.6586 8.7517 6.6586ZM12.2817 6.6586C13.0817 6.6586 13.7117 6.0086 13.7117 5.2486C13.7117 4.4486 13.0817 3.8186 12.2817 3.8186C11.4917 3.8186 10.8617 4.4486 10.8617 5.2486C10.8617 6.0086 11.4917 6.6586 12.2817 6.6586ZM5.2417 10.0386C6.0317 10.0386 6.6717 9.4186 6.6717 8.6286C6.6717 7.8186 6.0317 7.1786 5.2417 7.1786C4.4517 7.1786 3.8217 7.8186 3.8217 8.6286C3.8217 9.4186 4.4517 10.0386 5.2417 10.0386ZM8.7517 10.0386C9.5617 10.0386 10.1917 9.4186 10.1917 8.6286C10.1917 7.8186 9.5617 7.1786 8.7517 7.1786C7.9717 7.1786 7.3317 7.8186 7.3317 8.6286C7.3317 9.4186 7.9717 10.0386 8.7517 10.0386ZM12.2817 10.0386C13.0817 10.0386 13.7117 9.4186 13.7117 8.6286C13.7117 7.8186 13.0817 7.1786 12.2817 7.1786C11.4917 7.1786 10.8617 7.8186 10.8617 8.6286C10.8617 9.4186 11.4917 10.0386 12.2817 10.0386ZM5.2417 13.4386C6.0317 13.4386 6.6717 12.8186 6.6717 12.0086C6.6717 11.2386 6.0317 10.5786 5.2417 10.5786C4.4517 10.5786 3.8217 11.2386 3.8217 12.0086C3.8217 12.8186 4.4517 13.4386 5.2417 13.4386ZM8.7517 13.4386C9.5617 13.4386 10.1917 12.8186 10.1917 12.0086C10.1917 11.2386 9.5617 10.5786 8.7517 10.5786C7.9717 10.5786 7.3317 11.2386 7.3317 12.0086C7.3317 12.8186 7.9717 13.4386 8.7517 13.4386ZM12.2817 13.4386C13.0817 13.4386 13.7117 12.8186 13.7117 12.0086C13.7117 11.2386 13.0817 10.5786 12.2817 10.5786C11.4917 10.5786 10.8617 11.2386 10.8617 12.0086C10.8617 12.8186 11.4917 13.4386 12.2817 13.4386ZM8.7517 21.4586C10.0917 21.4586 11.2417 20.6786 11.7817 19.5586H18.7817C19.5617 19.5586 20.2117 18.9286 20.2117 18.1286C20.2117 17.3486 19.5617 16.6986 18.7817 16.6986H11.7817C11.2417 15.5886 10.0917 14.8086 8.7517 14.8086C6.9117 14.8086 5.4217 16.2886 5.4217 18.1286C5.4217 19.9786 6.9117 21.4586 8.7517 21.4586Z" />
        </svg>
    