
        <svg xmlns="http://www.w3.org/2000/svg" viewBox="0 0 100 100">
            <path d="M3.0117 19.0048H24.0717C26.0017 19.0048 27.0817 17.9248 27.0817 15.9948V3.0148C27.0817 1.0748 26.0017 0.0048 24.0717 0.0048H3.0117C1.0817 0.0048 0.0017 1.0748 0.0017 3.0148V15.9948C0.0017 17.9248 1.0817 19.0048 3.0117 19.0048ZM12.2317 10.8148L1.3917 1.0548C1.8017 0.7348 2.3517 0.5748 3.0317 0.5748H24.0317C24.7117 0.5748 25.2617 0.7348 25.6717 1.0448L14.8117 10.8148C14.3417 11.2348 13.9617 11.4148 13.5217 11.4148C13.0917 11.4148 12.7017 11.2348 12.2317 10.8148ZM26.5117 3.0348V15.9648C26.5117 16.6048 26.3517 17.1448 26.0717 17.5448L17.6117 9.1048L26.1017 1.4848C26.3717 1.8848 26.5117 2.4148 26.5117 3.0348ZM0.5717 15.9648V3.0348C0.5717 2.4148 0.7117 1.9148 0.9717 1.5148L9.4617 9.1148L1.0117 17.5448C0.7217 17.1448 0.5717 16.6048 0.5717 15.9648ZM3.0317 18.4348C2.3817 18.4348 1.8417 18.2648 1.4417 17.9748L9.9017 9.5148L11.8017 11.2148C12.4017 11.7548 12.9117 11.9848 13.5217 11.9848C14.1317 11.9848 14.6617 11.7548 15.2617 11.2148L17.1717 9.5048L25.6417 17.9748C25.2417 18.2648 24.7017 18.4348 24.0317 18.4348Z" />
        </svg>
    