
        <svg xmlns="http://www.w3.org/2000/svg" viewBox="0 0 100 100">
            <path d="M0.2217 25.0002L9.4117 16.7402L3.3017 10.6202C3.0017 10.3202 3.0217 9.9002 3.4017 9.6502L13.3117 2.9002C14.1817 2.3002 14.8217 2.3002 15.6917 2.9002L25.6017 9.6502C25.9717 9.9002 25.9817 10.3402 25.6717 10.6502L19.5817 16.7402L28.7717 25.0102C28.9217 24.5302 29.0017 24.0102 29.0017 23.3802V11.7202C29.0017 9.8302 28.4517 8.7102 27.0717 7.7602L17.1817 1.0002C15.2217 -0.3298 13.7717 -0.3298 11.8117 1.0002L1.9317 7.7602C0.5417 8.7102 0.0017 9.8302 0.0017 11.7202V23.3802C0.0017 23.9902 0.0817 24.5202 0.2217 25.0002ZM3.9717 27.3202H25.0317C26.3117 27.3202 27.1917 26.9902 27.8217 26.4502L16.1017 15.9102C15.5517 15.4002 15.0617 15.1902 14.4917 15.1902C13.9417 15.1902 13.4517 15.4002 12.9017 15.9102L1.1717 26.4402C1.8017 26.9902 2.6817 27.3202 3.9717 27.3202Z" />
        </svg>
    