
        <svg xmlns="http://www.w3.org/2000/svg" viewBox="0 0 100 100">
            <path d="M3.4617 19.7916H24.6517C26.6917 19.7916 27.8817 18.6216 27.8817 16.3716V3.4216C27.8817 1.1716 26.6917 0.0016 24.4217 0.0016H3.2217C1.1717 0.0016 0.0017 1.1716 0.0017 3.4216V16.3716C0.0017 18.6216 1.1817 19.7916 3.4617 19.7916ZM3.4217 18.4116C2.1217 18.4116 1.3817 17.6816 1.3817 16.3616V3.4216C1.3817 2.1116 2.1217 1.3816 3.4217 1.3816H24.4617C25.7617 1.3816 26.4817 2.1116 26.4817 3.4316V16.3716C26.4817 17.6816 25.7617 18.4116 24.4617 18.4116ZM20.5917 7.3916H23.5617C24.0917 7.3916 24.4817 6.9916 24.4817 6.4816V4.3116C24.4817 3.7816 24.0917 3.4016 23.5617 3.4016H20.5917C20.0617 3.4016 19.6717 3.7816 19.6717 4.3116V6.4816C19.6717 6.9916 20.0617 7.3916 20.5917 7.3916ZM9.4417 12.0116H18.4317C18.7617 12.0116 19.0217 11.7516 19.0217 11.4216C19.0217 11.1016 18.7617 10.8416 18.4317 10.8416H9.4417C9.1317 10.8416 8.8617 11.1016 8.8617 11.4216C8.8617 11.7516 9.1317 12.0116 9.4417 12.0116ZM9.4417 14.9716H16.2917C16.6217 14.9716 16.8717 14.7216 16.8717 14.3916C16.8717 14.0716 16.6217 13.8116 16.2917 13.8116H9.4417C9.1317 13.8116 8.8617 14.0716 8.8617 14.3916C8.8617 14.7216 9.1317 14.9716 9.4417 14.9716Z" />
        </svg>
    