
        <svg xmlns="http://www.w3.org/2000/svg" viewBox="0 0 100 100">
            <path d="M6.3517 2.0053L8.7817 4.5153C9.0217 4.7653 9.2617 4.7053 9.3117 4.3953L9.6717 2.6453C11.9317 3.2253 13.2517 4.6953 13.2517 6.5153V6.5853H13.8317V12.3353C13.8317 12.4853 13.7017 12.6153 13.5317 12.6153C13.3817 12.6153 13.2517 12.4853 13.2517 12.3353V6.5853H3.0117C2.1117 6.5853 1.4017 6.8153 0.9417 7.2353L12.2317 17.4053C12.7017 17.8253 13.0917 18.0053 13.5317 18.0053C13.9917 18.0053 14.3817 17.8253 14.8517 17.4053L26.1417 7.2353C25.6717 6.8153 24.9717 6.5853 24.0717 6.5853H13.8317V6.5153C13.8317 4.6953 15.1517 3.2253 17.4117 2.6453L17.7617 4.3953C17.8217 4.7053 18.0617 4.7653 18.3017 4.5153L20.7317 2.0053C20.9317 1.7953 20.8917 1.5953 20.6117 1.4553L17.4417 0.0553C17.1217 -0.0847 16.9217 0.0753 16.9817 0.3553L17.3217 2.1053C14.8717 2.7253 13.9317 4.0453 13.5317 4.9053C13.1517 4.0453 12.2117 2.7253 9.7617 2.1053L10.1017 0.3553C10.1617 0.0753 9.9617 -0.0847 9.6417 0.0553L6.4717 1.4553C6.1917 1.5953 6.1517 1.7953 6.3517 2.0053ZM0.5617 24.5753L9.4617 15.7053L0.5317 7.6653C0.2017 8.1253 0.0017 8.8253 0.0017 9.6053V22.5853C0.0017 23.4053 0.1717 24.0853 0.5617 24.5753ZM26.5217 24.5753C26.9017 24.0853 27.0817 23.4053 27.0817 22.5853V9.6053C27.0817 8.8253 26.8817 8.1253 26.5517 7.6653L17.6217 15.7053ZM3.0117 25.5953H24.0717C25.0617 25.5953 25.6517 25.3553 26.0717 25.0153L17.1917 16.1153L15.2817 17.8053C14.6817 18.3453 14.1717 18.5753 13.5317 18.5753C12.9117 18.5753 12.4017 18.3453 11.8017 17.8053L9.8917 16.1153L1.0117 25.0153C1.4317 25.3553 2.0117 25.5953 3.0117 25.5953Z" />
        </svg>
    