
        <svg xmlns="http://www.w3.org/2000/svg" viewBox="0 0 100 100">
            <path d="M3.6817 20.2008H24.9517C27.0517 20.2008 28.2817 18.9808 28.2817 16.5708V3.6308C28.2817 1.2208 27.0317 0.0008 24.6017 0.0008H3.3317C1.2317 0.0008 0.0017 1.2208 0.0017 3.6308V16.5708C0.0017 18.9808 1.2417 20.2008 3.6817 20.2008ZM3.6117 18.4108C2.4517 18.4108 1.7917 17.7608 1.7917 16.5608V3.6208C1.7917 2.4208 2.4517 1.7908 3.6117 1.7908H24.6517C25.8117 1.7908 26.4817 2.4208 26.4817 3.6308V16.5708C26.4817 17.7608 25.8117 18.4108 24.6517 18.4108ZM20.6917 7.6708H23.6717C24.2017 7.6708 24.5817 7.2908 24.5817 6.7708V4.5908C24.5817 4.0808 24.2017 3.6908 23.6717 3.6908H20.6917C20.1817 3.6908 19.7917 4.0808 19.7917 4.5908V6.7708C19.7917 7.2908 20.1817 7.6708 20.6917 7.6708ZM9.6317 12.1208H18.6317C19.0417 12.1208 19.3717 11.8008 19.3717 11.3908C19.3717 10.9908 19.0417 10.6608 18.6317 10.6608H9.6317C9.2317 10.6608 8.9017 10.9908 8.9017 11.3908C8.9017 11.8008 9.2317 12.1208 9.6317 12.1208ZM9.6317 15.2108H16.4417C16.8517 15.2108 17.1717 14.8808 17.1717 14.4708C17.1717 14.0708 16.8517 13.7608 16.4417 13.7608H9.6317C9.2317 13.7608 8.9017 14.0708 8.9017 14.4708C8.9017 14.8808 9.2317 15.2108 9.6317 15.2108Z" />
        </svg>
    