
        <svg xmlns="http://www.w3.org/2000/svg" viewBox="0 0 100 100">
            <path d="M11.9523 23.9041C18.5523 23.9041 23.9023 18.5541 23.9023 11.9541C23.9023 5.3541 18.5523 0.0041 11.9523 0.0041C5.3523 0.0041 0.0023 5.3541 0.0023 11.9541C0.0023 18.5541 5.3523 23.9041 11.9523 23.9041ZM11.9523 21.9141C6.4423 21.9141 1.9923 17.4641 1.9923 11.9541C1.9923 6.4441 6.4423 1.9941 11.9523 1.9941C17.4623 1.9941 21.9123 6.4441 21.9123 11.9541C21.9123 17.4641 17.4623 21.9141 11.9523 21.9141ZM11.9423 12.5741C12.1323 12.5741 12.3023 12.5041 12.4823 12.3441L18.2623 7.2541C17.9323 7.0541 17.5823 6.9741 17.1123 6.9741H6.7823C6.2923 6.9741 5.9523 7.0541 5.6323 7.2541L11.4023 12.3441C11.5823 12.5041 11.7623 12.5741 11.9423 12.5741ZM5.1223 15.9841L9.3623 11.7141L5.1023 7.9541C5.0423 8.0741 4.9723 8.3741 4.9723 8.7541V15.1541C4.9723 15.5041 5.0323 15.7641 5.1223 15.9841ZM18.7723 15.9741C18.8523 15.7641 18.9023 15.5041 18.9023 15.1541V8.7541C18.9023 8.3741 18.8423 8.0841 18.7823 7.9541L14.5123 11.7141ZM6.6123 16.9341H17.2723C17.6823 16.9341 18.0023 16.8241 18.2223 16.6841L13.8423 12.3141L13.0223 13.0541C12.6823 13.3441 12.3023 13.4841 11.9423 13.4841C11.5823 13.4841 11.2023 13.3441 10.8723 13.0541L10.0423 12.3141L5.6623 16.6841C5.8823 16.8241 6.2023 16.9341 6.6123 16.9341Z" />
        </svg>
    