
        <svg xmlns="http://www.w3.org/2000/svg" viewBox="0 0 100 100">
            <path d="M12.3723 24.7459C19.2023 24.7459 24.7523 19.2059 24.7523 12.3759C24.7523 5.5459 19.2023 -0.0041 12.3723 -0.0041C5.5423 -0.0041 0.0023 5.5459 0.0023 12.3759C0.0023 19.2059 5.5423 24.7459 12.3723 24.7459ZM8.2523 11.3559C7.3723 11.3559 6.7823 10.8959 6.7823 10.1059C6.7823 9.2959 7.3623 8.8259 8.2523 8.8259H16.5023C17.3923 8.8259 17.9523 9.2959 17.9523 10.1059C17.9523 10.8959 17.3623 11.3559 16.4923 11.3559ZM8.2523 15.9559C7.3723 15.9559 6.7823 15.5059 6.7823 14.7059C6.7823 13.8959 7.3623 13.4259 8.2523 13.4259H16.5023C17.3923 13.4259 17.9523 13.8959 17.9523 14.7059C17.9523 15.5059 17.3623 15.9559 16.4923 15.9559Z" />
        </svg>
    