
        <svg xmlns="http://www.w3.org/2000/svg" viewBox="0 0 100 100">
            <path d="M3.8417 21.8745H18.0317C20.5617 21.8745 21.8817 20.5745 21.8817 18.0745V3.8045C21.8817 1.3145 20.5617 0.0045 18.0317 0.0045H3.8417C1.3117 0.0045 0.0017 1.3045 0.0017 3.8045V18.0745C0.0017 20.5745 1.3117 21.8745 3.8417 21.8745ZM3.9817 19.5845C2.8917 19.5845 2.3017 19.0145 2.3017 17.8845V4.0045C2.3017 2.8745 2.8917 2.2945 3.9817 2.2945H17.8917C18.9717 2.2945 19.5817 2.8745 19.5817 4.0045V17.8845C19.5817 19.0145 18.9717 19.5845 17.8917 19.5845ZM6.7017 9.7845H15.1717C15.8517 9.7845 16.3217 9.4345 16.3217 8.7845C16.3217 8.1345 15.8817 7.7645 15.1717 7.7645H6.7017C6.0017 7.7645 5.5517 8.1345 5.5517 8.7845C5.5517 9.4345 6.0217 9.7845 6.7017 9.7845ZM6.7017 14.1245H15.1717C15.8517 14.1245 16.3217 13.7845 16.3217 13.1345C16.3217 12.4845 15.8817 12.1145 15.1717 12.1145H6.7017C6.0017 12.1145 5.5517 12.4645 5.5517 13.1345C5.5517 13.7845 6.0217 14.1245 6.7017 14.1245Z" />
        </svg>
    