
        <svg xmlns="http://www.w3.org/2000/svg" viewBox="0 0 100 100">
            <path d="M11.9523 23.9041C18.5523 23.9041 23.9023 18.5341 23.9023 11.9541C23.9023 5.3541 18.5523 0.0041 11.9523 0.0041C5.3623 0.0041 0.0023 5.3541 0.0023 11.9541C0.0023 18.5341 5.3623 23.9041 11.9523 23.9041ZM7.4023 10.6641C6.7823 10.6641 6.3423 10.3641 6.3423 9.7341C6.3423 9.1141 6.7623 8.8041 7.4023 8.8041H16.4923C17.1323 8.8041 17.5523 9.1141 17.5523 9.7341C17.5523 10.3641 17.1123 10.6641 16.4923 10.6641ZM7.4023 15.1241C6.7823 15.1241 6.3423 14.8241 6.3423 14.2141C6.3423 13.5941 6.7623 13.2641 7.4023 13.2641H16.4923C17.1323 13.2641 17.5523 13.5941 17.5523 14.2141C17.5523 14.8241 17.1123 15.1241 16.4923 15.1241Z" />
        </svg>
    