
        <svg xmlns="http://www.w3.org/2000/svg" viewBox="0 0 100 100">
            <path d="M3.8417 21.8745H18.0317C20.5617 21.8745 21.8817 20.5745 21.8817 18.0745V3.8045C21.8817 1.3145 20.5617 0.0045 18.0317 0.0045H3.8417C1.3117 0.0045 0.0017 1.3045 0.0017 3.8045V18.0745C0.0017 20.5745 1.3117 21.8745 3.8417 21.8745ZM6.5717 9.7345C5.8617 9.7345 5.3717 9.3745 5.3717 8.6945C5.3717 8.0045 5.8317 7.6445 6.5717 7.6445H15.3517C16.0917 7.6445 16.5617 8.0145 16.5617 8.6945C16.5617 9.3745 16.0617 9.7345 15.3517 9.7345ZM6.5717 14.2645C5.8617 14.2645 5.3717 13.8945 5.3717 13.2145C5.3717 12.5245 5.8317 12.1645 6.5717 12.1645H15.3517C16.0917 12.1645 16.5617 12.5245 16.5617 13.2145C16.5617 13.8945 16.0617 14.2645 15.3517 14.2645Z" />
        </svg>
    