
        <svg xmlns="http://www.w3.org/2000/svg" viewBox="0 0 100 100">
            <path d="M4.1771 9.7311L15.1171 20.6611L23.8871 11.8911C25.1771 10.6111 25.1471 8.9711 23.8371 7.6711L17.1671 0.9911C15.8671 -0.3089 14.2271 -0.3389 12.9471 0.9511ZM1.4871 18.5411L6.2971 23.3511C8.2271 25.2811 10.4471 25.3311 12.2871 23.4911L13.6171 22.1611L2.6871 11.2211L1.3471 12.5511C-0.5029 14.3911 -0.4429 16.6111 1.4871 18.5411ZM14.1871 24.4011H22.2371C23.0671 24.4011 23.7471 23.7211 23.7471 22.8911C23.7471 22.0611 23.0671 21.3811 22.2371 21.3811H17.2071ZM26.9571 24.4011H32.5171C33.3571 24.4011 34.0371 23.7211 34.0371 22.8911C34.0371 22.0611 33.3571 21.3811 32.5171 21.3811H26.9571C26.1271 21.3811 25.4471 22.0611 25.4471 22.8911C25.4471 23.7211 26.1271 24.4011 26.9571 24.4011Z" />
        </svg>
    