
        <svg xmlns="http://www.w3.org/2000/svg" viewBox="0 0 100 100">
            <path d="M1.4572 18.3001L6.3572 23.2001C8.2672 25.1001 10.4572 25.1601 12.2572 23.3501L23.7472 11.8601C24.9772 10.6401 24.9472 8.9701 23.7072 7.7301L16.9172 0.9501C15.6672 -0.2999 14.0172 -0.3199 12.7972 0.9001L1.3172 12.4001C-0.4928 14.2001 -0.4328 16.4001 1.4572 18.3001ZM14.3772 3.0101C14.6472 2.7401 15.0172 2.7401 15.2872 3.0001L21.6572 9.3801C21.9172 9.6401 21.9072 10.0001 21.6572 10.2701L13.3772 18.5501L6.1072 11.2801ZM3.3672 16.5201C2.5972 15.7401 2.5472 14.8601 3.2572 14.1301L4.5372 12.8501L11.7872 20.1201L10.5272 21.3801C9.8072 22.1101 8.9172 22.0601 8.1472 21.2901Z" />
        </svg>
    