
        <svg xmlns="http://www.w3.org/2000/svg" viewBox="0 0 100 100">
            <path d="M3.5646 9.7295L13.3746 19.5395L22.3246 10.5795C23.3646 9.5395 23.3446 8.0595 22.2746 6.9995L16.1046 0.8095C15.0346 -0.2605 13.5546 -0.2705 12.5146 0.7695ZM1.3746 17.4795L5.6046 21.7295C7.3746 23.4695 9.3546 23.5395 11.0146 21.8795L12.2446 20.6595L2.4246 10.8495L1.2046 12.0595C-0.4554 13.7295 -0.3954 15.7295 1.3746 17.4795ZM12.5846 22.5695H20.0346C20.5546 22.5695 20.9746 22.1495 20.9746 21.6295C20.9746 21.1195 20.5546 20.6795 20.0346 20.6795H14.4846ZM23.5346 22.5695H29.3546C29.8746 22.5695 30.3046 22.1495 30.3046 21.6295C30.3046 21.1195 29.8746 20.6795 29.3546 20.6795H23.5346C23.0146 20.6795 22.5946 21.1195 22.5946 21.6295C22.5946 22.1495 23.0146 22.5695 23.5346 22.5695Z" />
        </svg>
    