
        <svg xmlns="http://www.w3.org/2000/svg" viewBox="0 0 100 100">
            <path d="M0.8749 15.8335L5.8249 20.7835C6.9949 21.9435 8.6249 21.9635 9.7649 20.8335L21.0849 9.4835C21.8549 8.7335 21.8549 7.6335 21.0949 6.8735L14.7849 0.5835C14.0349 -0.1965 12.9349 -0.1965 12.1749 0.5835L0.8449 11.9135C-0.3051 13.0535 -0.2651 14.6735 0.8749 15.8335ZM12.5849 0.9735C13.1149 0.4535 13.8649 0.4535 14.3949 0.9735L20.6849 7.2835C21.2149 7.8135 21.2149 8.5635 20.6849 9.0835L11.0249 18.7535L2.9149 10.6435ZM1.2849 15.4235C0.3749 14.5135 0.3449 13.2235 1.2549 12.3135L2.5149 11.0535L10.6149 19.1635L9.3649 20.4035C8.4449 21.3235 7.1649 21.3035 6.2449 20.3835Z" />
        </svg>
    