
        <svg xmlns="http://www.w3.org/2000/svg" viewBox="0 0 100 100">
            <path d="M11.9523 23.9041C18.5523 23.9041 23.9023 18.5541 23.9023 11.9541C23.9023 5.3541 18.5523 0.0041 11.9523 0.0041C11.4023 0.0041 10.9523 0.4441 10.9523 0.9941C10.9523 1.5441 11.4023 2.0041 11.9523 2.0041C17.4523 2.0041 21.9023 6.4541 21.9023 11.9541C21.9023 17.4541 17.4523 21.9041 11.9523 21.9041C6.4523 21.9041 2.0023 17.4541 2.0023 11.9541C2.0023 11.4041 1.5623 10.9441 0.9923 10.9441C0.4423 10.9441 0.0023 11.4041 0.0023 11.9541C0.0023 18.5541 5.3523 23.9041 11.9523 23.9041ZM0.4823 7.1841C0.4823 7.7141 0.9123 8.1341 1.4323 8.1341C1.9423 8.1341 2.3623 7.7141 2.3623 7.1841C2.3623 6.6341 2.3623 4.8741 2.2523 3.6641L4.2323 5.9341L10.3523 12.0541C10.5723 12.2841 10.8123 12.3941 11.0823 12.3941C11.6823 12.3941 12.1123 11.9541 12.1123 11.3641C12.1123 11.0941 12.0023 10.8141 11.7923 10.6041L5.6723 4.5041L3.4223 2.4941C4.7223 2.6641 6.3623 2.6441 6.9423 2.6441C7.4623 2.6441 7.8823 2.2141 7.8823 1.6841C7.8823 1.1641 7.4623 0.7341 6.9423 0.7341H1.6723C0.9023 0.7341 0.4823 1.1441 0.4823 1.9241Z" />
        </svg>
    