
        <svg xmlns="http://www.w3.org/2000/svg" viewBox="0 0 100 100">
            <path d="M12.1023 24.2064C18.7823 24.2064 24.2123 18.7864 24.2123 12.1064C24.2123 5.4264 18.7823 -0.0036 12.1023 -0.0036C11.4523 -0.0036 10.9123 0.5364 10.9123 1.1964C10.9123 1.8564 11.4523 2.3864 12.1023 2.3864C17.4723 2.3864 21.8223 6.7364 21.8223 12.1064C21.8223 17.4764 17.4723 21.8164 12.1023 21.8164C6.7423 21.8164 2.3923 17.4764 2.3923 12.1064C2.3923 11.4464 1.8523 10.9064 1.1923 10.9064C0.5423 10.9064 0.0023 11.4464 0.0023 12.1064C0.0023 18.7864 5.4223 24.2064 12.1023 24.2064ZM0.4423 7.2664C0.4423 7.8664 0.9223 8.3464 1.5223 8.3464C2.1023 8.3464 2.5923 7.8664 2.5923 7.2664C2.5923 6.7264 2.5923 5.1664 2.4823 4.0864L4.3123 6.2064L10.2923 12.2064C10.5423 12.4564 10.8423 12.5864 11.1423 12.5864C11.8323 12.5964 12.3523 12.0864 12.3523 11.4064C12.3523 11.0864 12.2123 10.7664 11.9623 10.5264L5.9923 4.5564L3.8623 2.6964C5.0323 2.8364 6.4823 2.8364 7.0523 2.8364C7.6423 2.8364 8.1223 2.3464 8.1223 1.7564C8.1223 1.1464 7.6523 0.6664 7.0523 0.6664H1.8023C0.9123 0.6664 0.4423 1.1464 0.4423 2.0264Z" />
        </svg>
    