
        <svg xmlns="http://www.w3.org/2000/svg" viewBox="0 0 100 100">
            <path d="M0.0017 17.8047C0.0017 20.0647 1.1717 21.2247 3.4617 21.2247H17.8017C20.1017 21.2247 21.2617 20.0547 21.2617 17.8047V3.4347C21.2617 1.1747 20.1017 0.0047 17.8017 0.0047H3.4617C1.1717 0.0047 0.0017 1.1647 0.0017 3.4347ZM1.4517 17.7147V3.5047C1.4517 2.1547 2.1717 1.4547 3.4817 1.4547H4.7617V3.2347C4.7617 3.5647 4.9917 3.7947 5.3217 3.7947C5.6517 3.7947 5.8917 3.5647 5.8917 3.2347V1.4547H8.3017V3.2347C8.3017 3.5647 8.5317 3.7947 8.8617 3.7947C9.1917 3.7947 9.4317 3.5647 9.4317 3.2347V1.4547H11.8317V3.2347C11.8317 3.5647 12.0817 3.7947 12.4117 3.7947C12.7417 3.7947 12.9817 3.5647 12.9817 3.2347V1.4547H15.3717V3.2347C15.3717 3.5647 15.6217 3.7947 15.9517 3.7947C16.2817 3.7947 16.5217 3.5647 16.5217 3.2347V1.4547H17.7617C19.0617 1.4547 19.8017 2.1547 19.8017 3.5047V17.7147C19.8017 19.0747 19.0617 19.7647 17.7617 19.7647H16.5217V18.0047C16.5217 17.6747 16.2817 17.4247 15.9517 17.4247C15.6217 17.4247 15.3717 17.6747 15.3717 18.0047V19.7647H12.9817V18.0047C12.9817 17.6747 12.7417 17.4247 12.4117 17.4247C12.0817 17.4247 11.8317 17.6747 11.8317 18.0047V19.7647H9.4317V18.0047C9.4317 17.6747 9.1917 17.4247 8.8617 17.4247C8.5317 17.4247 8.3017 17.6747 8.3017 18.0047V19.7647H5.8917V18.0047C5.8917 17.6747 5.6517 17.4247 5.3217 17.4247C4.9917 17.4247 4.7617 17.6747 4.7617 18.0047V19.7647H3.4817C2.1717 19.7647 1.4517 19.0747 1.4517 17.7147ZM4.6217 14.2547C4.6217 14.8547 5.0417 15.2547 5.6717 15.2547H15.6017C16.2217 15.2547 16.6417 14.8547 16.6417 14.2547V6.9847C16.6417 6.3747 16.2217 5.9647 15.6017 5.9647H5.6717C5.0417 5.9647 4.6217 6.3747 4.6217 6.9847Z" />
        </svg>
    