
        <svg xmlns="http://www.w3.org/2000/svg" viewBox="0 0 100 100">
            <path d="M0.4317 23.8172H23.8217C24.0717 23.8172 24.2617 23.6172 24.2617 23.3672C24.2617 23.1372 24.0717 22.9372 23.8217 22.9372H23.1917V22.2172C23.1917 22.0172 23.0617 21.8872 22.8517 21.8872H22.1117V7.0172H23.2417C23.5417 7.0172 23.6917 6.8172 23.6917 6.5872C23.6917 6.4472 23.6117 6.2772 23.4217 6.1672L13.3217 0.3372C12.9417 0.1172 12.5317 -0.0028 12.1317 -0.0028C11.7317 -0.0028 11.3217 0.1172 10.9417 0.3372L0.8417 6.1672C0.6417 6.2772 0.5617 6.4472 0.5617 6.5872C0.5617 6.8172 0.7117 7.0172 1.0317 7.0172H2.1517V21.8872H1.4017C1.2117 21.8872 1.0817 22.0172 1.0817 22.2172V22.9372H0.4317C0.2017 22.9372 0.0017 23.1372 0.0017 23.3672C0.0017 23.6172 0.2017 23.8172 0.4317 23.8172ZM13.5817 18.1372C10.9717 18.1372 9.1317 16.7772 8.6617 14.4172H7.1117C6.9717 14.4172 6.8517 14.2972 6.8517 14.1572C6.8517 14.0172 6.9717 13.8972 7.1117 13.8972H8.5917C8.5517 13.6672 8.5417 13.4072 8.5417 13.1572C8.5417 12.9172 8.5517 12.6672 8.5917 12.4472H7.1117C6.9717 12.4472 6.8517 12.3272 6.8517 12.1872C6.8517 12.0472 6.9717 11.9272 7.1117 11.9272H8.6617C9.1317 9.5172 11.0117 8.1772 13.5817 8.1772C13.8917 8.1772 14.2617 8.1872 14.5417 8.2472C14.7817 8.3072 14.9317 8.4172 14.9317 8.6272C14.9317 8.8372 14.7617 8.9672 14.5517 8.9672C14.3717 8.9672 14.0417 8.9072 13.5817 8.9072C11.3417 8.9072 9.9117 10.0472 9.4917 11.9272H13.3517C13.4917 11.9272 13.6217 12.0472 13.6217 12.1872C13.6217 12.3272 13.4917 12.4472 13.3517 12.4472H9.4117C9.3917 12.6672 9.3717 12.9172 9.3717 13.1572C9.3717 13.4172 9.3917 13.6672 9.4117 13.8972H13.3517C13.4917 13.8972 13.6217 14.0172 13.6217 14.1572C13.6217 14.2972 13.4917 14.4172 13.3517 14.4172H9.5017C9.9217 16.2872 11.3717 17.4272 13.5917 17.4272C14.1017 17.4272 14.3417 17.3672 14.5517 17.3672C14.7617 17.3672 14.9317 17.4872 14.9317 17.6972C14.9317 17.9172 14.7617 18.0072 14.5417 18.0672C14.2617 18.1272 13.8617 18.1372 13.5817 18.1372Z" />
        </svg>
    