
        <svg xmlns="http://www.w3.org/2000/svg" viewBox="0 0 100 100">
            <path d="M0.2817 23.4614H23.4217C23.5817 23.4614 23.7117 23.3314 23.7117 23.1714C23.7117 23.0114 23.5817 22.8914 23.4217 22.8914H22.7817V22.1914C22.7817 22.0914 22.6917 21.9914 22.5617 21.9914H21.8217V6.7314H22.9717C23.1817 6.7314 23.2717 6.6014 23.2717 6.4314C23.2717 6.3514 23.2217 6.2314 23.1017 6.1614L12.9717 0.3114C12.6117 0.1014 12.2217 0.0014 11.8617 0.0014C11.4817 0.0014 11.1017 0.1014 10.7317 0.3114L0.6117 6.1614C0.4817 6.2314 0.4317 6.3514 0.4317 6.4314C0.4317 6.6014 0.5317 6.7314 0.7417 6.7314H1.9017V21.9914H1.1517C1.0217 21.9914 0.9217 22.0914 0.9217 22.1914V22.8914H0.2817C0.1317 22.8914 0.0017 23.0114 0.0017 23.1714C0.0017 23.3314 0.1317 23.4614 0.2817 23.4614ZM13.2817 17.9814C10.7217 17.9814 8.9517 16.6214 8.5117 14.3114H6.9117C6.8017 14.3114 6.6917 14.2014 6.6917 14.0814C6.6917 13.9714 6.8017 13.8614 6.9117 13.8614H8.4517C8.4117 13.6314 8.4017 13.3714 8.4017 13.1114C8.4017 12.8514 8.4117 12.6214 8.4517 12.4014H6.9117C6.8017 12.4014 6.6917 12.2914 6.6917 12.1714C6.6917 12.0614 6.8017 11.9514 6.9117 11.9514H8.5117C8.9417 9.6114 10.7217 8.2514 13.2817 8.2514C13.5517 8.2514 13.9317 8.2614 14.2017 8.3214C14.3817 8.3714 14.5117 8.4414 14.5117 8.6114C14.5117 8.7814 14.3817 8.8814 14.2117 8.8814C14.0617 8.8814 13.7417 8.8214 13.2817 8.8214C10.9917 8.8214 9.5517 10.0114 9.1517 11.9514H13.0217C13.1417 11.9514 13.2417 12.0614 13.2417 12.1714C13.2417 12.2914 13.1417 12.4014 13.0217 12.4014H9.0917C9.0617 12.6214 9.0517 12.8514 9.0517 13.1114C9.0517 13.3714 9.0617 13.6314 9.0917 13.8614H13.0217C13.1417 13.8614 13.2417 13.9714 13.2417 14.0814C13.2417 14.2014 13.1417 14.3114 13.0217 14.3114H9.1617C9.5617 16.2314 11.0017 17.4114 13.2817 17.4114C13.7917 17.4114 14.0617 17.3514 14.2117 17.3514C14.3817 17.3514 14.5117 17.4514 14.5117 17.6114C14.5117 17.7914 14.3817 17.8614 14.2017 17.9014C13.9317 17.9614 13.5517 17.9814 13.2817 17.9814Z" />
        </svg>
    