
        <svg xmlns="http://www.w3.org/2000/svg" viewBox="0 0 100 100">
            <path d="M3.1617 20.742H17.5917C19.6617 20.742 20.7417 19.642 20.7417 17.592V3.152C20.7417 1.102 19.6617 0.002 17.5917 0.002H3.1617C1.0917 0.002 0.0017 1.082 0.0017 3.152V17.592C0.0017 19.662 1.0917 20.742 3.1617 20.742ZM3.1917 19.872C1.6617 19.872 0.8717 19.082 0.8717 17.552V3.202C0.8717 1.662 1.6617 0.872 3.1917 0.872H17.5517C19.0317 0.872 19.8717 1.662 19.8717 3.202V17.552C19.8717 19.082 19.0317 19.872 17.5517 19.872ZM5.3017 15.302H9.1317C9.3417 15.302 9.4817 15.162 9.4817 14.962C9.4817 14.752 9.3417 14.612 9.1317 14.612H5.6817V10.642H8.9617C9.1617 10.642 9.2917 10.502 9.2917 10.302C9.2917 10.102 9.1617 9.962 8.9617 9.962H5.6817V6.232H9.1317C9.3417 6.232 9.4817 6.092 9.4817 5.892C9.4817 5.682 9.3417 5.542 9.1317 5.542H5.3017C5.0617 5.542 4.9117 5.702 4.9117 5.952V14.892C4.9117 15.152 5.0417 15.302 5.3017 15.302ZM11.3817 15.302H16.0917C16.2917 15.302 16.4217 15.162 16.4217 14.962C16.4217 14.752 16.2917 14.612 16.0917 14.612H11.8917V14.552L16.1917 6.362C16.2517 6.262 16.3317 6.082 16.3317 5.952C16.3317 5.662 16.0917 5.542 15.9117 5.542H11.3817C11.1817 5.542 11.0417 5.682 11.0417 5.892C11.0417 6.092 11.1817 6.232 11.3817 6.232H15.4317V6.292L11.1017 14.512C11.0317 14.622 10.9817 14.752 10.9817 14.892C10.9817 15.192 11.1917 15.302 11.3817 15.302Z" />
        </svg>
    