
        <svg xmlns="http://www.w3.org/2000/svg" viewBox="0 0 100 100">
            <path d="M12.3723 24.7459C19.2023 24.7459 24.7523 19.2059 24.7523 12.3759C24.7523 5.5459 19.2023 -0.0041 12.3723 -0.0041C5.5423 -0.0041 0.0023 5.5459 0.0023 12.3759C0.0023 19.2059 5.5423 24.7459 12.3723 24.7459ZM7.4023 16.8759C6.8123 16.8759 6.4823 16.5159 6.4823 15.9059V8.8459C6.4823 8.2459 6.8123 7.8759 7.4023 7.8759H10.7723C11.2723 7.8759 11.5923 8.1359 11.5923 8.6259C11.5923 9.1159 11.2723 9.3959 10.7723 9.3959H8.3423V11.6259H10.6723C11.1123 11.6259 11.4123 11.8759 11.4123 12.3259C11.4123 12.7759 11.1223 13.0359 10.6723 13.0359H8.3423V15.3559H10.7723C11.2623 15.3559 11.5923 15.6459 11.5923 16.1259C11.5923 16.6159 11.2723 16.8759 10.7723 16.8759ZM13.7323 16.8759C13.2223 16.8759 12.8123 16.5959 12.8123 16.0359C12.8123 15.7759 12.8923 15.5059 13.0123 15.2959L16.4023 9.4559V9.3959H13.6123C13.1323 9.3959 12.7823 9.1159 12.7823 8.6259C12.7823 8.1459 13.1323 7.8759 13.6123 7.8759H17.5523C18.1423 7.8759 18.4823 8.2159 18.4823 8.7559C18.4823 9.0659 18.3723 9.2959 18.2623 9.4759L14.9023 15.2959V15.3559H17.8923C18.3523 15.3559 18.6223 15.6559 18.6223 16.1259C18.6223 16.5859 18.3523 16.8759 17.8923 16.8759Z" />
        </svg>
    