
        <svg xmlns="http://www.w3.org/2000/svg" viewBox="0 0 100 100">
            <path d="M12.1023 24.2064C18.7823 24.2064 24.2123 18.7864 24.2123 12.1064C24.2123 5.4264 18.7823 -0.0036 12.1023 -0.0036C5.4223 -0.0036 0.0023 5.4264 0.0023 12.1064C0.0023 18.7864 5.4223 24.2064 12.1023 24.2064ZM13.6123 17.4264C10.7623 17.4264 8.6923 16.0264 8.1423 13.4764H6.8523C6.6423 13.4764 6.4723 13.2964 6.4723 13.1064C6.4723 12.8864 6.6423 12.7164 6.8523 12.7164H8.0123C8.0023 12.5064 7.9923 12.2764 7.9923 12.0464C7.9923 11.8164 8.0023 11.6064 8.0123 11.3864H6.8523C6.6423 11.3864 6.4723 11.2164 6.4723 11.0064C6.4723 10.7964 6.6423 10.6164 6.8523 10.6164H8.1323C8.7223 7.9464 10.9823 6.6764 13.6323 6.6764C14.0623 6.6764 14.4723 6.7064 14.7823 6.7864C15.2223 6.9064 15.4523 7.1364 15.4523 7.5264C15.4523 7.9664 15.1423 8.1864 14.6923 8.1864C14.4723 8.1864 14.1523 8.1464 13.8023 8.1464C11.7223 8.1464 10.3823 9.0264 9.9123 10.6164H13.5623C13.7623 10.6164 13.9323 10.7964 13.9323 11.0064C13.9323 11.2164 13.7623 11.3864 13.5623 11.3864H9.7523C9.7223 11.6064 9.7223 11.8264 9.7223 12.0564C9.7223 12.2764 9.7223 12.5064 9.7623 12.7164H13.5623C13.7623 12.7164 13.9323 12.8864 13.9323 13.1064C13.9323 13.2964 13.7623 13.4764 13.5623 13.4764H9.9123C10.3923 15.1064 11.7823 15.9764 13.8123 15.9764C14.2223 15.9764 14.3523 15.9264 14.6823 15.9264C15.1423 15.9264 15.4523 16.1264 15.4523 16.5864C15.4523 16.9764 15.1623 17.1864 14.7823 17.3064C14.4223 17.3864 13.9823 17.4264 13.6123 17.4264Z" />
        </svg>
    