
        <svg xmlns="http://www.w3.org/2000/svg" viewBox="0 0 100 100">
            <path d="M12.3723 24.7459C19.2023 24.7459 24.7523 19.2059 24.7523 12.3759C24.7523 5.5459 19.2023 -0.0041 12.3723 -0.0041C5.5423 -0.0041 0.0023 5.5459 0.0023 12.3759C0.0023 19.2059 5.5423 24.7459 12.3723 24.7459ZM13.8723 17.6859C10.9023 17.6859 8.8323 16.2559 8.3123 13.6859H7.2023C7.0223 13.6859 6.8523 13.5259 6.8523 13.3259C6.8523 13.1359 7.0223 12.9859 7.2023 12.9859H8.2023C8.1823 12.7759 8.1723 12.5459 8.1723 12.3259C8.1723 12.1159 8.1823 11.9159 8.2023 11.7159H7.2023C7.0223 11.7159 6.8523 11.5759 6.8523 11.3759C6.8523 11.1759 7.0223 11.0159 7.2023 11.0159H8.2923C8.8323 8.2759 11.1323 6.9859 13.9023 6.9859C14.3823 6.9859 14.8223 7.0359 15.1723 7.1359C15.6323 7.2759 15.9023 7.5559 15.9023 8.0259C15.9023 8.5859 15.4923 8.8359 14.9323 8.8359C14.7823 8.8359 14.5623 8.8159 14.3323 8.8159C12.2723 8.8159 11.0023 9.5659 10.5623 11.0159H13.9323C14.1223 11.0159 14.2823 11.1759 14.2823 11.3759C14.2823 11.5759 14.1223 11.7159 13.9323 11.7159H10.4223C10.3923 11.9159 10.3823 12.1159 10.3823 12.3259C10.3823 12.5659 10.3923 12.7759 10.4223 12.9859H13.9323C14.1223 12.9859 14.2823 13.1359 14.2823 13.3259C14.2823 13.5259 14.1223 13.6859 13.9323 13.6859H10.5723C11.0323 15.1259 12.3123 15.8659 14.3223 15.8659C14.5923 15.8659 14.6823 15.8359 14.9023 15.8359C15.4723 15.8359 15.9023 16.0659 15.9023 16.6359C15.9023 17.1059 15.5823 17.3659 15.1723 17.5159C14.7923 17.6459 14.2923 17.6859 13.8723 17.6859Z" />
        </svg>
    