
        <svg xmlns="http://www.w3.org/2000/svg" viewBox="0 0 100 100">
            <path d="M4.1417 22.4041H18.2717C20.9517 22.4041 22.4017 20.9541 22.4017 18.3041V4.1141C22.4017 1.4641 20.9517 0.0041 18.2717 0.0041H4.1417C1.4617 0.0041 0.0017 1.4541 0.0017 4.1141V18.3041C0.0017 20.9541 1.4617 22.4041 4.1417 22.4041ZM4.4617 19.3841C3.5317 19.3841 3.0217 18.9241 3.0217 17.9341V4.4841C3.0217 3.4941 3.5317 3.0241 4.4617 3.0241H17.9417C18.8817 3.0241 19.3817 3.4941 19.3817 4.4841V17.9341C19.3817 18.9241 18.8817 19.3841 17.9417 19.3841ZM6.5017 15.4941H9.6917C10.1717 15.4941 10.4617 15.2341 10.4617 14.7641C10.4617 14.3041 10.1617 14.0541 9.6917 14.0541H7.3817V11.8241H9.6117C10.0317 11.8241 10.3017 11.5741 10.3017 11.1541C10.3017 10.7241 10.0217 10.4841 9.6117 10.4841H7.3817V8.3541H9.6917C10.1717 8.3541 10.4617 8.0941 10.4617 7.6441C10.4617 7.1641 10.1717 6.9241 9.6917 6.9241H6.5017C5.9417 6.9241 5.6217 7.2741 5.6217 7.8241V14.5741C5.6217 15.1441 5.9317 15.4941 6.5017 15.4941ZM12.4917 15.4941H16.4517C16.9017 15.4941 17.1417 15.2141 17.1417 14.7641C17.1417 14.3341 16.9017 14.0541 16.4517 14.0541H13.6017V13.9941L16.7917 8.4541C16.9117 8.2641 17.0117 8.0641 17.0117 7.7441C17.0117 7.2541 16.7017 6.9241 16.1417 6.9241H12.3917C11.9317 6.9241 11.6117 7.1741 11.6117 7.6441C11.6117 8.0941 11.9317 8.3541 12.3917 8.3541H15.0617V8.4141L11.8217 13.9941C11.7117 14.1941 11.6217 14.4341 11.6217 14.6841C11.6217 15.2141 12.0117 15.4941 12.4917 15.4941Z" />
        </svg>
    