
        <svg xmlns="http://www.w3.org/2000/svg" viewBox="0 0 100 100">
            <path d="M11.4923 22.977C17.8323 22.977 22.9823 17.847 22.9823 11.497C22.9823 5.147 17.8323 -0.003 11.4923 -0.003C5.1423 -0.003 0.0023 5.147 0.0023 11.497C0.0023 17.847 5.1423 22.977 11.4923 22.977ZM11.4923 22.087C5.6323 22.087 0.8923 17.357 0.8923 11.497C0.8923 5.637 5.6323 0.887 11.4923 0.887C17.3523 0.887 22.0923 5.637 22.0923 11.497C22.0923 17.357 17.3523 22.087 11.4923 22.087ZM6.4123 16.427H10.2423C10.4423 16.427 10.5923 16.287 10.5923 16.087C10.5923 15.877 10.4423 15.737 10.2423 15.737H6.7923V11.767H10.0623C10.2623 11.767 10.3923 11.627 10.3923 11.427C10.3923 11.227 10.2623 11.087 10.0623 11.087H6.7923V7.357H10.2423C10.4423 7.357 10.5923 7.217 10.5923 7.017C10.5923 6.807 10.4423 6.667 10.2423 6.667H6.4123C6.1723 6.667 6.0223 6.827 6.0223 7.077V16.017C6.0223 16.277 6.1523 16.427 6.4123 16.427ZM12.4923 16.427H17.1923C17.4023 16.427 17.5223 16.287 17.5223 16.087C17.5223 15.877 17.4023 15.737 17.1923 15.737H13.0123V15.677L17.3123 7.487C17.3623 7.387 17.4423 7.207 17.4423 7.077C17.4423 6.787 17.2023 6.667 17.0323 6.667H12.4923C12.2923 6.667 12.1423 6.807 12.1423 7.017C12.1423 7.217 12.2923 7.357 12.4923 7.357H16.5423V7.417L12.2123 15.637C12.1423 15.747 12.0923 15.877 12.0923 16.017C12.0923 16.317 12.3023 16.427 12.4923 16.427Z" />
        </svg>
    