
        <svg xmlns="http://www.w3.org/2000/svg" viewBox="0 0 100 100">
            <path d="M14.6523 5.4836C16.7323 5.4836 18.6723 6.1836 20.2123 7.3836C20.5123 7.6036 20.8823 7.5836 21.1623 7.3036L24.0023 4.4536C24.3323 4.1236 24.3123 3.6436 23.9623 3.3536C21.4323 1.2536 18.1923 0.0036 14.6523 0.0036C11.1123 0.0036 7.8623 1.2536 5.3323 3.3536C4.9723 3.6436 4.9523 4.1236 5.2823 4.4536L8.1323 7.3036C8.4023 7.5836 8.7923 7.5936 9.1023 7.3636C10.6423 6.1836 12.5623 5.4836 14.6523 5.4836ZM29.2823 14.6436C29.2823 11.0936 28.0323 7.8436 25.9223 5.2936C25.6423 4.9536 25.1623 4.9536 24.8323 5.2836L21.9823 8.1336C21.7023 8.4136 21.7023 8.7936 21.9223 9.1036C23.1123 10.6536 23.8023 12.5636 23.8023 14.6436C23.8023 16.7836 23.0723 18.7536 21.8123 20.3436C21.5823 20.6336 21.6023 21.0036 21.8423 21.2436L24.7223 24.1336C25.0423 24.4536 25.5223 24.4536 25.8323 24.1036C27.9823 21.5536 29.2823 18.2536 29.2823 14.6436ZM0.0023 14.6436C0.0023 18.2536 1.3123 21.5736 3.4823 24.1336C3.7723 24.4736 4.2423 24.4536 4.5723 24.1336L7.4423 21.2436C7.7023 21.0036 7.7123 20.6336 7.4723 20.3436C6.2123 18.7536 5.4823 16.7836 5.4823 14.6436C5.4823 12.5636 6.1923 10.6536 7.3623 9.1036C7.5923 8.7936 7.5823 8.4136 7.3123 8.1336L4.4623 5.2836C4.1323 4.9536 3.6423 4.9736 3.3523 5.3236C1.2523 7.8636 0.0023 11.1136 0.0023 14.6436ZM9.3523 15.5436C9.3523 15.7236 9.5023 15.8836 9.6923 15.8836H10.7323C11.2223 18.3136 13.1923 19.6736 16.0123 19.6736C16.4223 19.6736 16.8723 19.6336 17.2423 19.5136C17.6323 19.3736 17.9323 19.1336 17.9323 18.6836C17.9323 18.1536 17.5323 17.9436 16.9923 17.9436C16.7723 17.9436 16.6923 17.9636 16.4323 17.9636C14.5123 17.9636 13.2923 17.2636 12.8523 15.8836H16.0623C16.2423 15.8836 16.3923 15.7236 16.3923 15.5436C16.3923 15.3536 16.2423 15.2136 16.0623 15.2136H12.7123C12.6923 15.0136 12.6823 14.8136 12.6823 14.5936C12.6823 14.3936 12.6923 14.2036 12.7123 14.0136H16.0623C16.2423 14.0136 16.3923 13.8636 16.3923 13.6736C16.3923 13.5036 16.2423 13.3436 16.0623 13.3436H12.8523C13.2823 11.9536 14.4823 11.2236 16.4423 11.2236C16.6623 11.2236 16.8723 11.2536 17.0123 11.2536C17.5423 11.2536 17.9323 11.0236 17.9323 10.5036C17.9323 10.0636 17.6723 9.8036 17.2423 9.6636C16.9123 9.5536 16.4923 9.5136 16.0423 9.5136C13.4223 9.5136 11.2423 10.7436 10.7223 13.3436H9.6923C9.5023 13.3436 9.3523 13.5036 9.3523 13.6736C9.3523 13.8636 9.5023 14.0136 9.6923 14.0136H10.6323C10.6123 14.2036 10.6023 14.3936 10.6023 14.5936C10.6023 14.8036 10.6123 15.0136 10.6423 15.2136H9.6923C9.5023 15.2136 9.3523 15.3536 9.3523 15.5436Z" />
        </svg>
    