
        <svg xmlns="http://www.w3.org/2000/svg" viewBox="0 0 100 100">
            <path d="M14.9323 5.7297C17.0023 5.7297 18.9423 6.4197 20.4723 7.5897C20.8023 7.8297 21.2123 7.7997 21.5123 7.5097L24.4223 4.5897C24.7823 4.2297 24.7723 3.6897 24.3623 3.3797C21.7923 1.2697 18.5023 -0.0003 14.9323 -0.0003C11.3423 -0.0003 8.0523 1.2697 5.4823 3.3797C5.0823 3.6897 5.0723 4.2297 5.4423 4.5897L8.3423 7.5097C8.6323 7.7997 9.0723 7.8297 9.4123 7.5697C10.9423 6.4197 12.8523 5.7297 14.9323 5.7297ZM29.8523 14.9297C29.8523 11.3297 28.5823 8.0297 26.4523 5.4397C26.1423 5.0697 25.6123 5.0697 25.2523 5.4397L22.3523 8.3397C22.0323 8.6497 22.0323 9.0697 22.2823 9.4097C23.4423 10.9497 24.1323 12.8597 24.1323 14.9297C24.1323 17.0597 23.4023 19.0497 22.1323 20.6397C21.8823 20.9797 21.8823 21.3897 22.1723 21.6797L25.1023 24.6097C25.4523 24.9597 25.9823 24.9597 26.3123 24.5897C28.5123 21.9797 29.8523 18.6197 29.8523 14.9297ZM0.0023 14.9297C0.0023 18.6197 1.3523 22.0097 3.5723 24.6197C3.8923 24.9797 4.3923 24.9597 4.7623 24.6097L7.6723 21.6797C7.9723 21.3897 7.9823 20.9797 7.7223 20.6397C6.4523 19.0497 5.7323 17.0597 5.7323 14.9297C5.7323 12.8597 6.4123 10.9497 7.5723 9.4097C7.8123 9.0697 7.8123 8.6497 7.5123 8.3397L4.5923 5.4397C4.2323 5.0697 3.6923 5.0897 3.3723 5.4797C1.2623 8.0497 0.0023 11.3397 0.0023 14.9297ZM9.7823 15.6897C9.7823 15.8697 9.9123 16.0097 10.0923 16.0097H10.9823C11.4523 18.4297 13.3923 19.7997 16.2623 19.7997C16.7123 19.7997 17.2023 19.7597 17.5923 19.6097C18.0023 19.4397 18.2923 19.1597 18.2923 18.6697C18.2923 18.0497 17.8223 17.8097 17.2023 17.8097C17.0723 17.8097 17.0123 17.8197 16.8623 17.8197C15.0023 17.8197 13.8723 17.2397 13.4623 16.0097H16.4023C16.5823 16.0097 16.7123 15.8697 16.7123 15.6897C16.7123 15.5297 16.5823 15.3897 16.4023 15.3897H13.3223C13.3023 15.1997 13.2923 14.9997 13.2923 14.7897C13.2923 14.6097 13.3023 14.4397 13.3123 14.2697H16.4023C16.5823 14.2697 16.7123 14.1297 16.7123 13.9597C16.7123 13.7897 16.5823 13.6497 16.4023 13.6497H13.4423C13.8423 12.3997 14.9723 11.7697 16.9023 11.7697C17.0323 11.7697 17.1423 11.7797 17.2423 11.7797C17.8323 11.7797 18.2923 11.5297 18.2923 10.9297C18.2923 10.4297 18.0223 10.1397 17.5923 9.9797C17.2223 9.8397 16.7823 9.8097 16.3023 9.8097C13.6123 9.8097 11.4523 11.0297 10.9523 13.6497H10.0923C9.9123 13.6497 9.7823 13.7897 9.7823 13.9597C9.7823 14.1297 9.9123 14.2697 10.0923 14.2697H10.8823C10.8723 14.4397 10.8623 14.6097 10.8623 14.7997C10.8623 14.9997 10.8723 15.1997 10.8823 15.3897H10.0923C9.9123 15.3897 9.7823 15.5297 9.7823 15.6897Z" />
        </svg>
    