
        <svg xmlns="http://www.w3.org/2000/svg" viewBox="0 0 100 100">
            <path d="M15.1723 5.9423C17.2523 5.9423 19.1623 6.6223 20.7023 7.7823C21.0623 8.0423 21.5023 8.0123 21.8223 7.6923L24.7823 4.7123C25.1823 4.3223 25.1723 3.7423 24.7423 3.4023C22.1223 1.2723 18.7923 0.0023 15.1723 0.0023C11.5523 0.0023 8.2223 1.2723 5.6223 3.4023C5.1923 3.7423 5.1723 4.3223 5.5623 4.7123L8.5323 7.6923C8.8523 8.0123 9.3123 8.0423 9.6823 7.7723C11.2123 6.6223 13.1223 5.9423 15.1723 5.9423ZM30.3523 15.1723C30.3523 11.5423 29.0723 8.1923 26.9223 5.5623C26.6023 5.1823 26.0423 5.1823 25.6423 5.5623L22.6623 8.5323C22.3223 8.8723 22.3223 9.3123 22.5923 9.6823C23.7323 11.2223 24.4123 13.1223 24.4123 15.1723C24.4123 17.3323 23.6823 19.3223 22.4223 20.9023C22.1323 21.2823 22.1323 21.7423 22.4623 22.0623L25.4423 25.0423C25.8123 25.4223 26.3823 25.4223 26.7423 25.0123C28.9923 22.3623 30.3523 18.9423 30.3523 15.1723ZM0.0023 15.1723C0.0023 18.9523 1.3823 22.4023 3.6523 25.0523C3.9823 25.4423 4.5323 25.4223 4.9223 25.0423L7.8823 22.0623C8.2123 21.7423 8.2223 21.2823 7.9323 20.9023C6.6823 19.3223 5.9423 17.3323 5.9423 15.1723C5.9423 13.1223 6.6223 11.2223 7.7623 9.6823C8.0323 9.3123 8.0323 8.8723 7.6923 8.5323L4.7123 5.5623C4.3223 5.1823 3.7423 5.1923 3.3823 5.6223C1.2623 8.2223 0.0023 11.5523 0.0023 15.1723ZM11.1023 18.6723H13.6723C14.2223 18.6723 14.5823 18.4023 14.5823 17.8523C14.5823 17.3323 14.2123 17.0223 13.6723 17.0223H12.1423V15.7423H13.6423C14.1323 15.7423 14.4423 15.4823 14.4423 15.0023C14.4423 14.4823 14.1023 14.2423 13.6423 14.2423H12.1423V12.9623H13.6723C14.2223 12.9623 14.5823 12.6723 14.5823 12.1423C14.5823 11.5923 14.2223 11.3223 13.6723 11.3223H11.1023C10.4323 11.3223 10.0623 11.7423 10.0623 12.4023V17.5923C10.0623 18.2423 10.4323 18.6723 11.1023 18.6723ZM16.5123 18.6723H19.7423C20.2623 18.6723 20.5323 18.3623 20.5323 17.8523C20.5323 17.3323 20.2623 17.0223 19.7423 17.0223H17.7823V16.9723L20.1723 13.0423C20.2823 12.8623 20.3923 12.6423 20.3923 12.2823C20.3923 11.6723 20.0123 11.3223 19.3823 11.3223H16.3523C15.8123 11.3223 15.4323 11.6023 15.4323 12.1423C15.4323 12.6823 15.8123 12.9623 16.3523 12.9623H18.1323V13.0223L15.7023 16.9823C15.5723 17.1923 15.4923 17.4923 15.4923 17.7623C15.4923 18.3623 15.9223 18.6723 16.5123 18.6723Z" />
        </svg>
    