
        <svg xmlns="http://www.w3.org/2000/svg" viewBox="0 0 100 100">
            <path d="M0.8374 9.6941C-0.0126 9.6941 -0.2226 10.2641 0.2374 10.9241L2.8574 14.6441C3.2474 15.1841 3.8074 15.1741 4.1874 14.6441L6.7974 10.9141C7.2574 10.2641 7.0374 9.6941 6.2174 9.6941H4.5274C5.5474 5.2741 9.4974 1.9941 14.2274 1.9941C19.7374 1.9941 24.1874 6.4441 24.1874 11.9541C24.1874 17.4641 19.7374 21.9141 14.2274 21.9141C10.8974 21.9141 7.9374 20.2741 6.1674 17.7841C5.8074 17.3041 5.2474 17.1541 4.7574 17.4541C4.2874 17.7441 4.1474 18.3941 4.5474 18.9141C6.7174 21.9541 10.2674 23.9041 14.2274 23.9041C20.8274 23.9041 26.1774 18.5541 26.1774 11.9541C26.1774 5.3541 20.8274 0.0041 14.2274 0.0041C8.4074 0.0041 3.5374 4.1741 2.4874 9.6941ZM8.6574 12.9341C8.6574 13.1441 8.8374 13.3241 9.0574 13.3241H10.4074C10.9574 15.7741 12.9474 17.1141 15.6574 17.1141C15.9874 17.1141 16.3974 17.0841 16.7174 17.0141C17.0774 16.9241 17.3474 16.7541 17.3474 16.4041C17.3474 16.0341 17.0974 15.8541 16.7274 15.8541C16.3374 15.8541 16.1974 15.9041 15.7274 15.9041C13.7274 15.9041 12.3274 14.9841 11.8474 13.3241H15.5374C15.7474 13.3241 15.9274 13.1441 15.9274 12.9341C15.9274 12.7141 15.7474 12.5341 15.5374 12.5341H11.6974C11.6774 12.3441 11.6574 12.1241 11.6574 11.9041C11.6574 11.6641 11.6774 11.4341 11.6974 11.2141H15.5374C15.7474 11.2141 15.9274 11.0341 15.9274 10.8241C15.9274 10.6141 15.7474 10.4441 15.5374 10.4441H11.8574C12.3274 8.8141 13.6674 7.8841 15.6974 7.8841C16.1174 7.8841 16.4774 7.9341 16.7274 7.9341C17.0974 7.9341 17.3474 7.7441 17.3474 7.3741C17.3474 7.0541 17.1474 6.8541 16.7174 6.7541C16.4474 6.6941 16.0674 6.6541 15.6574 6.6541C13.1574 6.6541 10.9974 7.8741 10.4074 10.4441H9.0574C8.8374 10.4441 8.6574 10.6141 8.6574 10.8241C8.6574 11.0341 8.8374 11.2141 9.0574 11.2141H10.2874C10.2674 11.4341 10.2574 11.6641 10.2574 11.8941C10.2574 12.1141 10.2674 12.3241 10.2874 12.5341H9.0574C8.8374 12.5341 8.6574 12.7141 8.6574 12.9341Z" />
        </svg>
    