
        <svg xmlns="http://www.w3.org/2000/svg" viewBox="0 0 100 100">
            <path d="M4.1417 22.4041H18.2717C20.9517 22.4041 22.4017 20.9541 22.4017 18.3041V4.1141C22.4017 1.4641 20.9517 0.0041 18.2717 0.0041H4.1417C1.4617 0.0041 0.0017 1.4541 0.0017 4.1141V18.3041C0.0017 20.9541 1.4617 22.4041 4.1417 22.4041ZM4.4617 19.3841C3.5317 19.3841 3.0217 18.9241 3.0217 17.9341V4.4841C3.0217 3.4941 3.5317 3.0241 4.4617 3.0241H17.9417C18.8817 3.0241 19.3817 3.4941 19.3817 4.4841V17.9341C19.3817 18.9241 18.8817 19.3841 17.9417 19.3841ZM5.9317 12.1041C5.9317 12.2941 6.0717 12.4441 6.2617 12.4441H7.3017C7.8017 14.8841 9.7717 16.2441 12.5817 16.2441C12.9817 16.2441 13.4517 16.2041 13.8117 16.0741C14.2017 15.9341 14.4917 15.7041 14.4917 15.2441C14.4917 14.7141 14.1017 14.5041 13.5617 14.5041C13.3517 14.5041 13.2517 14.5341 12.9917 14.5341C11.0817 14.5341 9.8717 13.8241 9.4317 12.4441H12.6317C12.8217 12.4441 12.9717 12.2941 12.9717 12.1041C12.9717 11.9341 12.8217 11.7741 12.6317 11.7741H9.2917C9.2717 11.5741 9.2617 11.3741 9.2617 11.1541C9.2617 10.9541 9.2717 10.7741 9.2817 10.5841H12.6317C12.8217 10.5841 12.9717 10.4341 12.9717 10.2541C12.9717 10.0641 12.8217 9.9141 12.6317 9.9141H9.4217C9.8417 8.5241 11.0517 7.7941 13.0117 7.7941C13.2417 7.7941 13.4417 7.8241 13.5817 7.8241C14.1117 7.8241 14.4917 7.5941 14.4917 7.0641C14.4917 6.6341 14.2517 6.3741 13.8117 6.2341C13.4917 6.1241 13.0617 6.0941 12.6117 6.0941C9.9817 6.0941 7.8117 7.3141 7.3017 9.9141H6.2617C6.0717 9.9141 5.9317 10.0641 5.9317 10.2541C5.9317 10.4341 6.0717 10.5841 6.2617 10.5841H7.2117C7.1817 10.7741 7.1817 10.9541 7.1817 11.1541C7.1817 11.3641 7.1917 11.5741 7.2117 11.7741H6.2617C6.0717 11.7741 5.9317 11.9341 5.9317 12.1041Z" />
        </svg>
    