
        <svg xmlns="http://www.w3.org/2000/svg" viewBox="0 0 100 100">
            <path d="M0.0017 25.8502C0.0017 26.7102 0.6917 27.4102 1.5517 27.4102H19.3017C20.1517 27.4102 20.8617 26.7102 20.8617 25.8502C20.8617 25.0102 20.1517 24.3002 19.3017 24.3002H18.8217V11.5402C19.7817 12.1402 20.1717 13.0002 20.1717 14.0002C20.1717 15.8802 19.8717 17.9802 19.8717 20.0002C19.8717 22.1002 21.2017 23.4502 23.2817 23.4502C25.4717 23.4502 26.7217 21.9802 26.7217 19.3902V12.5502C26.7217 11.7502 27.1917 11.4002 27.8317 10.8402C28.6017 10.1702 29.0317 9.3502 29.0317 8.3902V7.1502C29.0317 6.8602 28.8117 6.6402 28.5317 6.6402H27.8417V4.7202C27.8417 4.3602 27.5417 4.0702 27.1717 4.0702C26.8217 4.0702 26.5217 4.3602 26.5217 4.7202V6.6402H25.1617V4.7202C25.1617 4.3602 24.8517 4.0702 24.4917 4.0702C24.1317 4.0702 23.8517 4.3602 23.8517 4.7202V6.6402H23.1117C22.8017 6.6402 22.6017 6.8602 22.6017 7.1502V8.3902C22.6017 9.3502 23.0317 10.1702 23.8017 10.8402C24.4417 11.4002 24.9217 11.7502 24.9217 12.5502V19.3902C24.9217 20.8402 24.3317 21.6402 23.2817 21.6402C22.2817 21.6402 21.6817 21.0302 21.6817 20.0002C21.6817 18.2302 21.9617 16.1202 21.9617 14.0002C21.9617 12.0102 21.0717 10.4502 18.8217 9.5402V3.4902C18.8217 1.2502 17.5617 0.0002 15.3417 0.0002H5.5217C3.2817 0.0002 2.0317 1.2502 2.0317 3.4902V24.3002H1.5517C0.7017 24.3002 0.0017 25.0002 0.0017 25.8502ZM6.1417 11.0202C5.4017 11.0202 4.9117 10.5802 4.9117 9.9402V3.9702C4.9117 3.3202 5.3917 2.8902 6.1417 2.8902H14.7117C15.4617 2.8902 15.9417 3.3202 15.9417 3.9702V9.9402C15.9417 10.5802 15.4417 11.0202 14.7117 11.0202ZM37.9717 12.7002L32.5817 9.5302C31.7417 9.0302 30.8017 9.4802 30.8017 10.4302V16.9702C30.8017 17.9402 31.7617 18.3702 32.5817 17.8802L37.9717 14.7102C38.7517 14.2402 38.7417 13.1602 37.9717 12.7002Z" />
        </svg>
    