
        <svg xmlns="http://www.w3.org/2000/svg" viewBox="0 0 100 100">
            <path d="M0.0017 24.6834C0.0017 24.9134 0.2017 25.1234 0.4217 25.1234H16.9117C17.1417 25.1234 17.3517 24.9134 17.3517 24.6834C17.3517 24.4434 17.1417 24.2534 16.9117 24.2534H15.9417V10.4434C17.1017 11.0834 17.7117 12.1334 17.7117 13.3734C17.7117 15.2034 17.4417 17.4134 17.4417 19.0934C17.4417 20.9634 18.4817 22.1634 20.1517 22.1634C21.8517 22.1634 22.9117 20.9434 22.9117 18.9734V12.2434C22.9117 11.1534 23.5917 10.8134 24.2317 10.2734C24.8217 9.7934 25.2817 9.3034 25.2817 8.3834V6.7334C25.2817 6.4534 25.1417 6.2734 24.9117 6.2734H24.1217V4.2534C24.1217 4.0334 23.9417 3.8534 23.7217 3.8534C23.4917 3.8534 23.3217 4.0334 23.3217 4.2534L23.3317 6.2734H21.7217L21.7417 4.2534C21.7417 4.0334 21.5717 3.8534 21.3517 3.8534C21.1317 3.8534 20.9517 4.0334 20.9517 4.2534V6.2734H20.1217C19.9017 6.2734 19.7617 6.4534 19.7617 6.7334V8.3834C19.7617 9.3034 20.2117 9.7934 20.8017 10.2734C21.4417 10.8134 22.1417 11.1534 22.1417 12.2434V18.9734C22.1417 20.4634 21.3717 21.3834 20.1517 21.3834C18.9517 21.3834 18.1917 20.5034 18.1917 19.0934C18.1917 17.6034 18.4717 15.3734 18.4717 13.3734C18.4717 11.6734 17.6017 10.3434 15.9417 9.5934V2.9134C15.9417 1.0434 14.9017 0.0034 13.0317 0.0034H4.3217C2.4117 0.0034 1.4317 1.0234 1.4317 2.9134V24.2534H0.4217C0.2017 24.2534 0.0017 24.4434 0.0017 24.6834ZM4.1917 10.3934C3.4217 10.3934 2.9017 9.9034 2.9017 9.1434V2.7434C2.9017 1.9834 3.4217 1.4734 4.1917 1.4734H13.1617C13.9317 1.4734 14.4617 1.9834 14.4617 2.7434V9.1434C14.4617 9.9034 13.9317 10.3934 13.1617 10.3934Z" />
        </svg>
    