
        <svg xmlns="http://www.w3.org/2000/svg" viewBox="0 0 100 100">
            <path d="M8.5147 25.1673C8.5147 25.6973 8.9247 26.1373 9.4347 26.1373H26.6247C27.1447 26.1373 27.5747 25.6973 27.5747 25.1673C27.5747 24.6673 27.1447 24.2473 26.6247 24.2473H25.7247V11.1573C26.7847 11.7873 27.2347 12.7173 27.2347 13.8073C27.2347 15.6773 26.9547 17.9673 26.9547 19.9073C26.9547 21.9273 28.1747 23.2073 30.1347 23.2073C32.2147 23.2073 33.4247 21.7873 33.4247 19.3273V11.8473C33.4247 10.7973 34.2147 10.5073 34.7147 10.1173C35.4647 9.5673 35.8547 8.7773 35.8547 7.8673V6.2773C35.8547 6.0373 35.7147 5.8673 35.4947 5.8673H34.7447V3.7473C34.7447 3.4373 34.4747 3.1673 34.1447 3.1673C33.8347 3.1673 33.5547 3.4373 33.5547 3.7473V5.8673H31.9847L31.9947 3.7473C31.9947 3.4373 31.7347 3.1673 31.4047 3.1673C31.0847 3.1673 30.8247 3.4373 30.8247 3.7473V5.8673H29.9347C29.7147 5.8673 29.5547 6.0373 29.5547 6.2773V7.8673C29.5547 8.7773 29.9647 9.5673 30.7047 10.1173C31.2247 10.5073 32.0047 10.7973 32.0047 11.8473V19.3273C32.0047 20.8873 31.3147 21.7773 30.1347 21.7773C29.0547 21.7773 28.3647 21.0573 28.3647 19.9073C28.3647 18.1873 28.6447 15.8973 28.6447 13.8073C28.6447 11.9173 27.7847 10.4373 25.7247 9.5773V2.9773C25.7247 1.0573 24.6747 -0.0027 22.7447 -0.0027H13.3147C11.3847 -0.0027 10.3647 1.0573 10.3647 2.9773V24.2473H9.4347C8.9347 24.2473 8.5147 24.6573 8.5147 25.1673ZM13.6947 10.6173C12.8347 10.6173 12.3347 10.1473 12.3347 9.3673V3.2473C12.3347 2.4473 12.8347 1.9673 13.6947 1.9673H22.3747C23.2247 1.9673 23.7547 2.4473 23.7547 3.2473V9.3673C23.7547 10.1473 23.2247 10.6173 22.3747 10.6173ZM0.3447 12.4873C-0.1053 12.7473 -0.1253 13.3673 0.3447 13.6373L6.3647 17.1873C6.8547 17.4873 7.4347 17.2473 7.4347 16.7473V9.3673C7.4347 8.8673 6.8247 8.6473 6.3647 8.9173Z" />
        </svg>
    