
        <svg xmlns="http://www.w3.org/2000/svg" viewBox="0 0 100 100">
            <path d="M19.2076 17.0647V10.8447C20.3076 11.4847 20.8376 12.4547 20.8376 13.6047C20.8376 15.1247 20.6376 16.9247 20.5976 18.4447L21.7076 19.5547C21.6976 17.8047 21.9676 15.5747 21.9676 13.6047C21.9676 11.8047 21.1076 10.3847 19.2076 9.5747V2.9447C19.2076 1.0447 18.1676 0.0047 16.2676 0.0047H7.1476C5.5076 0.0047 4.5576 0.7647 4.3476 2.2047L5.9776 3.8347V3.0247C5.9776 2.2347 6.4876 1.7447 7.3076 1.7447H16.1176C16.9376 1.7447 17.4476 2.2347 17.4476 3.0247V9.2547C17.4476 10.0447 16.9376 10.5147 16.1176 10.5147H12.6576ZM25.3776 26.9047C25.6576 27.1747 26.0976 27.1747 26.3576 26.9047C26.6376 26.6247 26.6376 26.1847 26.3576 25.9147L1.1976 0.7647C0.9276 0.4947 0.4876 0.4847 0.1976 0.7647C-0.0624 1.0147 -0.0624 1.4747 0.1976 1.7447ZM24.6676 22.5247C25.8876 22.1047 26.5976 20.9047 26.5976 19.1647V12.0147C26.5976 10.9447 27.3476 10.6447 27.9076 10.1747C28.5876 9.6547 29.0076 9.0047 29.0076 8.0747V6.4647C29.0076 6.2147 28.8576 6.0447 28.6476 6.0447H27.8676V3.9647C27.8676 3.6947 27.6476 3.4547 27.3576 3.4547C27.0876 3.4547 26.8476 3.6947 26.8476 3.9647L26.8576 6.0447H25.2676L25.2776 3.9647C25.2776 3.6947 25.0576 3.4547 24.7876 3.4547C24.4976 3.4547 24.2676 3.6947 24.2676 3.9647V6.0447H23.4176C23.1976 6.0447 23.0376 6.2147 23.0376 6.4647V8.0747C23.0376 9.0047 23.4776 9.6547 24.1476 10.1747C24.7176 10.6447 25.4576 10.9447 25.4576 12.0147V19.1647C25.4576 20.5947 24.8276 21.4647 23.7176 21.5847ZM3.2576 25.6847H20.5076C20.7776 25.6847 21.0176 25.5147 21.1276 25.3047L4.2176 8.4147V24.2447H3.2576C2.8776 24.2447 2.5476 24.5647 2.5476 24.9447C2.5476 25.3547 2.8776 25.6847 3.2576 25.6847Z" />
        </svg>
    