
        <svg xmlns="http://www.w3.org/2000/svg" viewBox="0 0 100 100">
            <path d="M10.0223 15.7927C15.0223 15.7927 18.9723 11.8627 18.9723 7.1227C18.9723 4.6527 17.8823 2.3827 16.3223 0.9027C15.6723 0.2827 14.9323 0.0027 13.9423 0.0027H6.0823C5.1123 0.0027 4.3723 0.2827 3.7123 0.9027C2.1423 2.3827 1.0623 4.6527 1.0623 7.1227C1.0623 11.8627 5.0023 15.7927 10.0223 15.7927ZM7.6923 5.0227C6.9123 5.0227 6.2923 4.4227 6.2923 3.6427C6.2923 2.8727 6.9123 2.2527 7.6923 2.2527C8.4623 2.2527 9.0823 2.8727 9.0823 3.6427C9.0823 4.4227 8.4623 5.0227 7.6923 5.0227ZM12.3523 5.0227C11.5823 5.0227 10.9523 4.4227 10.9523 3.6427C10.9523 2.8727 11.5823 2.2527 12.3523 2.2527C13.1123 2.2527 13.7323 2.8727 13.7323 3.6427C13.7323 4.4227 13.1123 5.0227 12.3523 5.0227ZM5.3523 9.0927C4.2523 9.0927 3.3623 8.2027 3.3623 7.0927C3.3623 6.0027 4.2523 5.1127 5.3523 5.1127C6.4523 5.1127 7.3523 6.0027 7.3523 7.0927C7.3523 8.2027 6.4523 9.0927 5.3523 9.0927ZM10.0223 9.0927C8.9023 9.0927 8.0323 8.2027 8.0323 7.0927C8.0323 6.0027 8.9023 5.1127 10.0223 5.1127C11.1223 5.1127 12.0023 6.0027 12.0023 7.0927C12.0023 8.2027 11.1223 9.0927 10.0223 9.0927ZM14.6723 9.0927C13.5723 9.0927 12.6923 8.2027 12.6923 7.0927C12.6923 6.0027 13.5723 5.1127 14.6723 5.1127C15.7823 5.1127 16.6623 6.0027 16.6623 7.0927C16.6623 8.2027 15.7823 9.0927 14.6723 9.0927ZM7.6923 13.1127C6.5823 13.1127 5.6923 12.2327 5.6923 11.1227C5.6923 10.0227 6.5823 9.1427 7.6923 9.1427C8.7923 9.1427 9.6723 10.0227 9.6723 11.1227C9.6723 12.2327 8.7923 13.1127 7.6923 13.1127ZM12.3523 13.1127C11.2423 13.1127 10.3623 12.2327 10.3623 11.1227C10.3623 10.0227 11.2423 9.1427 12.3523 9.1427C13.4523 9.1427 14.3323 10.0227 14.3323 11.1227C14.3323 12.2327 13.4523 13.1127 12.3523 13.1127ZM5.9423 28.4327H14.0723C17.4423 28.4327 20.0323 25.8027 20.0323 22.4727C20.0323 19.1527 17.4423 16.5227 14.0723 16.5227H5.9423C2.5923 16.5227 0.0023 19.1527 0.0023 22.4727C0.0023 25.8027 2.5923 28.4327 5.9423 28.4327ZM5.8023 25.7027C4.0223 25.7027 2.5823 24.2727 2.5823 22.4727C2.5823 20.6827 4.0223 19.2427 5.8023 19.2427C7.5923 19.2427 9.0423 20.6827 9.0423 22.4727C9.0423 24.2727 7.5923 25.7027 5.8023 25.7027ZM14.2123 25.7027C12.4223 25.7027 10.9823 24.2727 10.9823 22.4727C10.9823 20.6827 12.4223 19.2427 14.2123 19.2427C16.0123 19.2427 17.4523 20.6827 17.4523 22.4727C17.4523 24.2727 16.0123 25.7027 14.2123 25.7027Z" />
        </svg>
    