
        <svg xmlns="http://www.w3.org/2000/svg" viewBox="0 0 100 100">
            <path d="M12.4923 22.977C19.3623 22.977 24.9823 17.357 24.9823 10.487C24.9823 6.387 22.9923 2.727 20.1423 0.617C19.5423 0.177 18.9823 -0.003 18.1523 -0.003H6.8323C6.0023 -0.003 5.4223 0.177 4.8323 0.617C1.9923 2.727 0.0023 6.387 0.0023 10.487C0.0023 17.357 5.6123 22.977 12.4923 22.977ZM12.4923 22.407C5.8623 22.407 0.5723 17.117 0.5723 10.487C0.5723 6.527 2.4423 3.117 5.1823 1.077C5.6623 0.707 6.1323 0.577 6.8323 0.577H18.1523C18.8523 0.577 19.3223 0.707 19.8023 1.077C22.5423 3.117 24.4123 6.527 24.4123 10.487C24.4123 17.117 19.1223 22.407 12.4923 22.407ZM8.4523 5.497C9.3623 5.497 10.0923 4.767 10.0923 3.857C10.0923 2.937 9.3623 2.207 8.4523 2.207C7.5323 2.207 6.7923 2.937 6.7923 3.857C6.7923 4.767 7.5323 5.497 8.4523 5.497ZM12.4923 5.497C13.4023 5.497 14.1323 4.767 14.1323 3.857C14.1323 2.937 13.4023 2.207 12.4923 2.207C11.5823 2.207 10.8423 2.937 10.8423 3.857C10.8423 4.767 11.5823 5.497 12.4923 5.497ZM16.5323 5.497C17.4523 5.497 18.1723 4.767 18.1723 3.857C18.1723 2.937 17.4523 2.207 16.5323 2.207C15.6223 2.207 14.8823 2.937 14.8823 3.857C14.8823 4.767 15.6223 5.497 16.5323 5.497ZM12.4923 9.537C13.4023 9.537 14.1323 8.817 14.1323 7.897C14.1323 6.987 13.4023 6.247 12.4923 6.247C11.5823 6.247 10.8423 6.987 10.8423 7.897C10.8423 8.817 11.5823 9.537 12.4923 9.537ZM6.3623 14.077C8.3423 14.077 9.9623 12.477 9.9623 10.487C9.9623 8.497 8.3423 6.887 6.3623 6.887C4.3723 6.887 2.7623 8.497 2.7623 10.487C2.7623 12.477 4.3723 14.077 6.3623 14.077ZM18.6123 14.077C20.6023 14.077 22.2223 12.477 22.2223 10.487C22.2223 8.497 20.6023 6.887 18.6123 6.887C16.6423 6.887 15.0223 8.497 15.0223 10.487C15.0223 12.477 16.6423 14.077 18.6123 14.077ZM12.4923 19.667C13.9023 19.667 15.0323 18.527 15.0323 17.117C15.0323 15.717 13.9023 14.577 12.4923 14.577C11.0823 14.577 9.9523 15.717 9.9523 17.117C9.9523 18.527 11.0823 19.667 12.4923 19.667ZM7.3723 18.607C8.1923 18.607 8.8723 17.937 8.8723 17.117C8.8723 16.287 8.1923 15.617 7.3723 15.617C6.5523 15.617 5.8723 16.287 5.8723 17.117C5.8723 17.937 6.5523 18.607 7.3723 18.607ZM17.6123 18.607C18.4323 18.607 19.1023 17.937 19.1023 17.117C19.1023 16.287 18.4323 15.617 17.6123 15.617C16.7823 15.617 16.1123 16.287 16.1123 17.117C16.1123 17.937 16.7823 18.607 17.6123 18.607Z" />
        </svg>
    