
        <svg xmlns="http://www.w3.org/2000/svg" viewBox="0 0 100 100">
            <path d="M13.2523 25.1352C20.5623 25.1352 26.5123 19.1952 26.5123 11.8852C26.5123 7.0052 23.8723 2.7552 20.1423 0.5852C19.4623 0.1852 18.7723 -0.0048 17.9723 -0.0048H8.5323C7.7323 -0.0048 7.0423 0.1852 6.3623 0.5852C2.6323 2.7552 0.0023 7.0052 0.0023 11.8852C0.0023 19.1952 5.9423 25.1352 13.2523 25.1352ZM9.3323 6.9452C8.4423 6.9452 7.7023 6.2252 7.7023 5.3252C7.7023 4.4152 8.4423 3.6752 9.3323 3.6752C10.2323 3.6752 10.9723 4.4152 10.9723 5.3252C10.9723 6.2252 10.2323 6.9452 9.3323 6.9452ZM13.2523 6.9452C12.3523 6.9452 11.6223 6.2252 11.6223 5.3252C11.6223 4.4152 12.3523 3.6752 13.2523 3.6752C14.1523 3.6752 14.8823 4.4152 14.8823 5.3252C14.8823 6.2252 14.1523 6.9452 13.2523 6.9452ZM17.1823 6.9452C16.2823 6.9452 15.5423 6.2252 15.5423 5.3252C15.5423 4.4152 16.2823 3.6752 17.1823 3.6752C18.0823 3.6752 18.8123 4.4152 18.8123 5.3252C18.8123 6.2252 18.0823 6.9452 17.1823 6.9452ZM13.2523 10.8752C12.3523 10.8752 11.6223 10.1352 11.6223 9.2452C11.6223 8.3452 12.3523 7.6052 13.2523 7.6052C14.1523 7.6052 14.8823 8.3452 14.8823 9.2452C14.8823 10.1352 14.1523 10.8752 13.2523 10.8752ZM7.2523 15.4552C5.2723 15.4552 3.6523 13.8552 3.6523 11.8752C3.6523 9.9052 5.2723 8.2952 7.2523 8.2952C9.2223 8.2952 10.8323 9.9052 10.8323 11.8752C10.8323 13.8552 9.2223 15.4552 7.2523 15.4552ZM19.2523 15.4552C17.2823 15.4552 15.6823 13.8552 15.6823 11.8752C15.6823 9.9052 17.2823 8.2952 19.2523 8.2952C21.2323 8.2952 22.8523 9.9052 22.8523 11.8752C22.8523 13.8552 21.2323 15.4552 19.2523 15.4552ZM13.2523 20.9652C11.8723 20.9652 10.7423 19.8252 10.7423 18.4552C10.7423 17.0752 11.8723 15.9352 13.2523 15.9352C14.6323 15.9352 15.7623 17.0752 15.7623 18.4552C15.7623 19.8252 14.6323 20.9652 13.2523 20.9652ZM8.1823 19.9352C7.3623 19.9352 6.6923 19.2652 6.6923 18.4552C6.6923 17.6452 7.3623 16.9652 8.1823 16.9652C8.9923 16.9652 9.6523 17.6452 9.6523 18.4552C9.6523 19.2652 8.9923 19.9352 8.1823 19.9352ZM18.3423 19.9352C17.5223 19.9352 16.8523 19.2652 16.8523 18.4552C16.8523 17.6452 17.5223 16.9652 18.3423 16.9652C19.1523 16.9652 19.8123 17.6452 19.8123 18.4552C19.8123 19.2652 19.1523 19.9352 18.3423 19.9352Z" />
        </svg>
    