
        <svg xmlns="http://www.w3.org/2000/svg" viewBox="0 0 100 100">
            <path d="M14.6923 25.8784C22.9423 25.8784 29.4023 19.4284 29.4023 11.6484C29.4023 7.5384 27.6123 3.8584 25.0223 1.3784C23.9923 0.4184 22.9123 -0.0016 21.3723 -0.0016H8.0323C6.4923 -0.0016 5.4123 0.4184 4.3823 1.3784C1.7923 3.8584 0.0023 7.5384 0.0023 11.6484C0.0023 19.4284 6.4523 25.8784 14.6923 25.8784ZM14.6923 24.3384C7.0923 24.3384 1.5323 18.7984 1.5323 11.6484C1.5323 7.8984 3.0323 4.7684 5.4523 2.4984C6.1623 1.8284 6.9623 1.5184 8.0323 1.5184H21.3723C22.4423 1.5184 23.2423 1.8284 23.9523 2.4984C26.3623 4.7684 27.8823 7.8984 27.8823 11.6484C27.8823 18.7984 22.3123 24.3384 14.6923 24.3384ZM10.8323 8.1984C12.0723 8.1984 13.0923 7.1884 13.0923 5.9384C13.0923 4.6984 12.0723 3.6784 10.8323 3.6784C9.5823 3.6784 8.5623 4.6984 8.5623 5.9384C8.5623 7.1884 9.5823 8.1984 10.8323 8.1984ZM18.5723 8.1984C19.8323 8.1984 20.8323 7.1884 20.8323 5.9384C20.8323 4.6984 19.8323 3.6784 18.5723 3.6784C17.3323 3.6784 16.3123 4.6984 16.3123 5.9384C16.3123 7.1884 17.3323 8.1984 18.5723 8.1984ZM6.9423 14.7984C8.6823 14.7984 10.1023 13.3984 10.1023 11.6484C10.1023 9.9184 8.6823 8.5084 6.9423 8.5084C5.2123 8.5084 3.7823 9.9184 3.7823 11.6484C3.7823 13.3984 5.2123 14.7984 6.9423 14.7984ZM14.6923 14.7984C16.4323 14.7984 17.8523 13.3984 17.8523 11.6484C17.8523 9.9184 16.4323 8.5084 14.6923 8.5084C12.9723 8.5084 11.5523 9.9184 11.5523 11.6484C11.5523 13.3984 12.9723 14.7984 14.6923 14.7984ZM22.4623 14.7984C24.1923 14.7984 25.6023 13.3984 25.6023 11.6484C25.6023 9.9184 24.1923 8.5084 22.4623 8.5084C20.7223 8.5084 19.3023 9.9184 19.3023 11.6484C19.3023 13.3984 20.7223 14.7984 22.4623 14.7984ZM10.8323 21.4684C12.5623 21.4684 13.9823 20.0584 13.9823 18.3184C13.9823 16.5684 12.5623 15.1684 10.8323 15.1684C9.0923 15.1684 7.6723 16.5684 7.6723 18.3184C7.6723 20.0584 9.0923 21.4684 10.8323 21.4684ZM18.5723 21.4684C20.3123 21.4684 21.7223 20.0584 21.7223 18.3184C21.7223 16.5684 20.3123 15.1684 18.5723 15.1684C16.8423 15.1684 15.4323 16.5684 15.4323 18.3184C15.4323 20.0584 16.8423 21.4684 18.5723 21.4684Z" />
        </svg>
    