
        <svg xmlns="http://www.w3.org/2000/svg" viewBox="0 0 100 100">
            <path d="M13.2923 23.6234C20.7223 23.6234 26.5823 17.7634 26.5823 10.7334C26.5823 7.0234 24.9523 3.6534 22.6723 1.5034C21.5623 0.4734 20.3323 0.0034 18.7423 0.0034H7.8423C6.2423 0.0034 5.0123 0.4734 3.9123 1.5034C1.6323 3.6534 0.0023 7.0234 0.0023 10.7334C0.0023 17.7634 5.8623 23.6234 13.2923 23.6234ZM13.2923 19.4434C7.7123 19.4434 4.1723 15.9134 4.1723 10.7334C4.1723 8.0434 5.0823 6.1134 6.7823 4.5434C7.0623 4.2734 7.3723 4.1734 7.8623 4.1734H18.7223C19.2023 4.1734 19.5323 4.2934 19.7923 4.5434C21.4923 6.1134 22.4023 8.0434 22.4023 10.7334C22.4023 15.9134 18.8823 19.4434 13.2923 19.4434ZM10.5023 8.4334C11.5223 8.4334 12.3423 7.6134 12.3423 6.5934C12.3423 5.5734 11.5223 4.7534 10.5023 4.7534C9.4823 4.7534 8.6623 5.5734 8.6623 6.5934C8.6623 7.6134 9.4823 8.4334 10.5023 8.4334ZM16.0823 8.4334C17.1023 8.4334 17.9323 7.6134 17.9323 6.5934C17.9323 5.5734 17.1023 4.7534 16.0823 4.7534C15.0623 4.7534 14.2423 5.5734 14.2423 6.5934C14.2423 7.6134 15.0623 8.4334 16.0823 8.4334ZM7.7123 13.2534C9.1023 13.2534 10.2323 12.1334 10.2323 10.7334C10.2323 9.3434 9.1023 8.2134 7.7123 8.2134C6.3023 8.2134 5.1823 9.3434 5.1823 10.7334C5.1823 12.1334 6.3023 13.2534 7.7123 13.2534ZM13.2923 13.2534C14.6823 13.2534 15.8123 12.1334 15.8123 10.7334C15.8123 9.3434 14.6823 8.2134 13.2923 8.2134C11.8923 8.2134 10.7723 9.3434 10.7723 10.7334C10.7723 12.1334 11.8923 13.2534 13.2923 13.2534ZM18.8823 13.2534C20.2723 13.2534 21.4023 12.1334 21.4023 10.7334C21.4023 9.3434 20.2723 8.2134 18.8823 8.2134C17.4823 8.2134 16.3523 9.3434 16.3523 10.7334C16.3523 12.1334 17.4823 13.2534 18.8823 13.2534ZM10.5023 18.1634C11.8923 18.1634 13.0223 17.0434 13.0223 15.6434C13.0223 14.2334 11.8923 13.1134 10.5023 13.1134C9.1023 13.1134 7.9823 14.2334 7.9823 15.6434C7.9823 17.0434 9.1023 18.1634 10.5023 18.1634ZM16.0823 18.1634C17.4823 18.1634 18.6123 17.0434 18.6123 15.6434C18.6123 14.2334 17.4823 13.1134 16.0823 13.1134C14.6823 13.1134 13.5623 14.2334 13.5623 15.6434C13.5623 17.0434 14.6823 18.1634 16.0823 18.1634Z" />
        </svg>
    