
        <svg xmlns="http://www.w3.org/2000/svg" viewBox="0 0 100 100">
            <path d="M12.1023 24.2064C18.7823 24.2064 24.2123 18.7864 24.2123 12.1064C24.2123 5.4264 18.7823 -0.0036 12.1023 -0.0036C5.4223 -0.0036 0.0023 5.4264 0.0023 12.1064C0.0023 18.7864 5.4223 24.2064 12.1023 24.2064ZM12.1023 21.8164C6.7223 21.8164 2.3823 17.4864 2.3823 12.1064C2.3823 6.7264 6.7223 2.3764 12.1023 2.3764C17.4823 2.3764 21.8323 6.7264 21.8323 12.1064C21.8323 17.4864 17.4823 21.8164 12.1023 21.8164ZM9.2323 18.7864C9.4823 18.7864 9.6423 18.6864 9.9123 18.4364L11.9923 16.5664H15.7123C17.3923 16.5664 18.3423 15.5964 18.3423 13.9364V9.5664C18.3423 7.9064 17.3923 6.9364 15.7123 6.9364H8.5123C6.8223 6.9364 5.8723 7.9064 5.8723 9.5664V13.9364C5.8723 15.5964 6.8423 16.5664 8.4723 16.5664H8.7023V18.1864C8.7023 18.5464 8.9023 18.7864 9.2323 18.7864ZM12.1123 12.7464C11.7823 12.7464 11.6023 12.5664 11.5823 12.2264L11.5123 9.3664C11.4923 9.0164 11.7423 8.7664 12.0923 8.7664C12.4523 8.7664 12.7223 9.0164 12.7023 9.3664L12.6323 12.2264C12.6223 12.5664 12.4323 12.7464 12.1123 12.7464ZM12.1123 14.6764C11.7423 14.6764 11.4023 14.3864 11.4023 14.0264C11.4023 13.6564 11.7223 13.3564 12.1123 13.3564C12.5023 13.3564 12.8123 13.6364 12.8123 14.0264C12.8123 14.3864 12.4923 14.6764 12.1123 14.6764Z" />
        </svg>
    