
        <svg xmlns="http://www.w3.org/2000/svg" viewBox="0 0 100 100">
            <path d="M14.3165 -0.0036C10.9665 -0.0036 7.9165 1.3964 5.7765 3.6364C5.1665 4.2064 5.2965 5.0164 5.7665 5.4264C6.1865 5.7864 6.7965 5.8964 7.4265 5.3164C9.1665 3.5064 11.6165 2.3764 14.3165 2.3764C18.9865 2.3764 22.8665 5.6564 23.7865 10.0464H22.2265C21.3765 10.0464 21.1565 10.6864 21.6165 11.3464L24.3365 15.1264C24.7065 15.6564 25.2865 15.6664 25.6765 15.1264L28.3965 11.3564C28.8765 10.6864 28.6565 10.0464 27.7765 10.0464H26.2265C25.2665 4.3464 20.2965 -0.0036 14.3165 -0.0036ZM14.3065 14.0664C14.9365 14.0664 15.3065 13.6964 15.3265 13.0264L15.5065 7.3364C15.5265 6.6464 15.0065 6.1564 14.2965 6.1564C13.5665 6.1564 13.0765 6.6464 13.0965 7.3264L13.2665 13.0264C13.2865 13.6864 13.6565 14.0664 14.3065 14.0664ZM14.3165 24.2064C17.6665 24.2064 20.7165 22.8164 22.8665 20.5764C23.4765 20.0064 23.3465 19.1964 22.8765 18.7864C22.4565 18.4064 21.8465 18.3164 21.2065 18.8864C19.4765 20.7064 17.0265 21.8164 14.3165 21.8164C9.6565 21.8164 5.7765 18.5364 4.8465 14.1664H6.4065C7.2665 14.1664 7.4865 13.5164 7.0165 12.8664L4.2965 9.0664C3.9365 8.5564 3.3465 8.5464 2.9665 9.0664L0.2465 12.8564C-0.2335 13.5164 -0.0035 14.1664 0.8665 14.1664H2.4165C3.3765 19.8664 8.3465 24.2064 14.3165 24.2064ZM14.3065 17.9364C15.0565 17.9364 15.6765 17.4064 15.6765 16.6564C15.6765 15.9164 15.0665 15.3764 14.3065 15.3764C13.5465 15.3764 12.9365 15.9264 12.9365 16.6564C12.9365 17.3864 13.5565 17.9364 14.3065 17.9364Z" />
        </svg>
    