
        <svg xmlns="http://www.w3.org/2000/svg" viewBox="0 0 100 100">
            <path d="M2.287 22.4188H13.497C14.887 22.4188 15.787 21.4587 15.787 19.9888V11.2388C15.787 9.8188 14.937 8.8788 13.637 8.8288V6.1788C13.637 2.4288 11.227 -0.0012 7.897 -0.0012C4.567 -0.0012 2.157 2.4288 2.157 6.1788V8.8288C0.857 8.8788 -0.003 9.8188 -0.003 11.2388V19.9888C-0.003 21.4587 0.917 22.4188 2.287 22.4188ZM3.047 6.1488C3.047 2.9688 5.037 0.8388 7.897 0.8388C10.747 0.8388 12.747 2.9688 12.747 6.1488V8.8088H3.047ZM2.257 21.5588C1.457 21.5588 0.887 20.9388 0.887 20.0388V11.1788C0.887 10.2788 1.457 9.6688 2.257 9.6688H13.537C14.347 9.6688 14.897 10.2788 14.897 11.1788V20.0388C14.897 20.9388 14.347 21.5588 13.537 21.5588ZM7.897 17.1188C8.147 17.1188 8.317 16.9188 8.317 16.6188L8.407 11.7088C8.407 11.3988 8.207 11.1888 7.897 11.1888C7.587 11.1888 7.387 11.3988 7.387 11.7088L7.467 16.6188C7.477 16.9188 7.637 17.1188 7.897 17.1188ZM7.897 19.7788C8.337 19.7788 8.687 19.4188 8.687 19.0088C8.687 18.5788 8.337 18.2188 7.897 18.2188C7.457 18.2188 7.117 18.5788 7.117 19.0088C7.117 19.4188 7.457 19.7788 7.897 19.7788Z" />
        </svg>
    