
        <svg xmlns="http://www.w3.org/2000/svg" viewBox="0 0 100 100">
            <path d="M7.2817 24.7242C7.7717 24.7242 8.1317 24.4942 8.7217 23.9642L13.0117 20.0842H20.7517C24.2717 20.0842 26.2517 18.0742 26.2517 14.5942V5.4942C26.2517 2.0142 24.2717 0.0042 20.7517 0.0042H5.5117C1.9817 0.0042 0.0017 2.0142 0.0017 5.4942V14.5942C0.0017 18.0742 2.0317 20.0842 5.4217 20.0842H6.1617V23.4642C6.1617 24.2342 6.5717 24.7242 7.2817 24.7242ZM13.1417 12.0542C12.4417 12.0542 12.0617 11.6842 12.0317 10.9842L11.8717 5.0742C11.8517 4.3642 12.3617 3.8542 13.1217 3.8542C13.8717 3.8542 14.4017 4.3742 14.3917 5.0842L14.2017 10.9842C14.1817 11.6842 13.8017 12.0542 13.1417 12.0542ZM13.1417 16.1042C12.3517 16.1042 11.6917 15.5242 11.6917 14.7642C11.6917 13.9942 12.3417 13.4142 13.1417 13.4142C13.9317 13.4142 14.5617 13.9942 14.5617 14.7642C14.5617 15.5342 13.9217 16.1042 13.1417 16.1042Z" />
        </svg>
    