
        <svg xmlns="http://www.w3.org/2000/svg" viewBox="0 0 100 100">
            <path d="M3.9094 23.5105H21.8094C24.0894 23.5105 25.7094 21.6405 25.7094 19.5805C25.7094 18.9405 25.5594 18.2705 25.2094 17.6505L16.2394 1.9705C15.4794 0.6405 14.1894 0.0005 12.8694 0.0005C11.5294 0.0005 10.2094 0.6705 9.4694 1.9705L0.4994 17.6605C0.1594 18.2705 -0.0006 18.9405 -0.0006 19.5805C-0.0006 21.6405 1.6194 23.5105 3.9094 23.5105ZM12.8794 14.5805C11.8394 14.5805 11.2194 14.0005 11.1494 12.9705L10.9194 9.2205C10.8494 8.0705 11.6494 7.3105 12.8694 7.3105C14.0894 7.3105 14.8794 8.0705 14.8094 9.2205L14.5894 12.9505C14.5194 14.0005 13.9094 14.5805 12.8794 14.5805ZM12.8794 19.1205C11.7194 19.1205 10.8594 18.4905 10.8594 17.4005C10.8594 16.3205 11.7194 15.6905 12.8794 15.6905C14.0494 15.6905 14.8694 16.3405 14.8694 17.4005C14.8694 18.4905 14.0394 19.1205 12.8794 19.1205Z" />
        </svg>
    