
        <svg xmlns="http://www.w3.org/2000/svg" viewBox="0 0 100 100">
            <path d="M11.7523 23.5048C18.2423 23.5048 23.5123 18.2448 23.5123 11.7548C23.5123 5.2648 18.2423 0.0048 11.7523 0.0048C5.2623 0.0048 0.0023 5.2648 0.0023 11.7548C0.0023 18.2448 5.2623 23.5048 11.7523 23.5048ZM11.7523 21.9848C6.0923 21.9848 1.5223 17.4148 1.5223 11.7548C1.5223 6.0948 6.0923 1.5148 11.7523 1.5148C17.4123 1.5148 21.9923 6.0948 21.9923 11.7548C21.9923 17.4148 17.4123 21.9848 11.7523 21.9848ZM8.6223 18.5048C8.8123 18.5048 8.9423 18.4248 9.1523 18.2348L11.3123 16.3248H15.6923C17.2723 16.3248 18.2023 15.3848 18.2023 13.8048V9.0248C18.2023 7.4548 17.2723 6.5148 15.6923 6.5148H7.8123C6.2323 6.5148 5.3123 7.4448 5.3123 9.0248V13.8048C5.3123 15.3848 6.2323 16.3248 7.8123 16.3248H8.2123V18.0348C8.2123 18.3248 8.3623 18.5048 8.6223 18.5048ZM11.7523 12.5348C11.4923 12.5348 11.3423 12.3748 11.3423 12.1148L11.2823 8.8748C11.2723 8.6048 11.4723 8.4048 11.7423 8.4048C12.0223 8.4048 12.2323 8.6048 12.2223 8.8748L12.1623 12.1148C12.1623 12.3748 12.0023 12.5348 11.7523 12.5348ZM11.7523 14.4148C11.4423 14.4148 11.1423 14.1548 11.1423 13.8248C11.1423 13.5148 11.4223 13.2348 11.7523 13.2348C12.0823 13.2348 12.3623 13.5048 12.3623 13.8248C12.3623 14.1548 12.0723 14.4148 11.7523 14.4148Z" />
        </svg>
    