
        <svg xmlns="http://www.w3.org/2000/svg" viewBox="0 0 100 100">
            <path d="M0.0023 11.2234C0.0023 14.2734 1.1823 16.4134 2.5123 18.0734C3.0423 18.7634 3.3123 19.3434 3.3123 20.1234V21.6834C3.3123 21.9034 3.5123 22.1134 3.7423 22.1134C3.9623 22.1134 4.1723 21.9034 4.1723 21.6834V20.9334H6.3823V21.6834C6.3823 21.9034 6.5823 22.1134 6.8123 22.1134C7.0423 22.1134 7.2423 21.9034 7.2423 21.6834V20.9334H9.3123V21.6834C9.3123 21.9034 9.5123 22.1134 9.7423 22.1134C9.9723 22.1134 10.1723 21.9034 10.1723 21.6834V20.9334H12.2423V21.6834C12.2423 21.9034 12.4523 22.1134 12.6723 22.1134C12.8923 22.1134 13.1023 21.9034 13.1023 21.6834V20.9334H15.1723V21.6834C15.1723 21.9034 15.3623 22.1134 15.6023 22.1134C15.8223 22.1134 16.0323 21.9034 16.0323 21.6834V20.9334H18.2323V21.6834C18.2323 21.9034 18.4423 22.1134 18.6723 22.1134C18.9023 22.1134 19.1023 21.9034 19.1023 21.6834V20.1334C19.1023 19.3834 19.3923 18.7634 19.9923 17.9834C21.2823 16.3434 22.4523 14.2334 22.4523 11.2234C22.4523 8.5234 21.4723 5.8934 19.8823 3.7334C19.3723 3.0334 19.2923 2.9034 19.2923 2.3434V0.4234C19.2923 0.2034 19.0923 0.0034 18.8523 0.0034C18.6323 0.0034 18.4223 0.2034 18.4223 0.4234V2.3834C18.4223 3.3034 18.7423 3.6434 19.1723 4.2234C20.6323 6.2234 21.5723 8.6734 21.5723 11.2234C21.5723 14.7634 19.8723 17.0734 17.5323 18.6234H4.8823C2.5823 17.0734 0.8623 14.7634 0.8623 11.2234C0.8623 8.6734 1.8123 6.2234 3.2723 4.2234C3.7023 3.6434 4.0223 3.3034 4.0223 2.3834V0.4234C4.0223 0.2034 3.8223 0.0034 3.6023 0.0034C3.3623 0.0034 3.1623 0.2034 3.1623 0.4234V2.3434C3.1623 2.9034 3.0723 3.0334 2.5523 3.7334C0.9723 5.8934 0.0023 8.5234 0.0023 11.2234ZM11.2223 11.9534C11.5123 11.9534 11.6923 11.7434 11.6923 11.4034L11.8023 6.1434C11.8023 5.7934 11.5623 5.5534 11.2223 5.5534C10.8723 5.5534 10.6523 5.7934 10.6523 6.1434L10.7423 11.4034C10.7623 11.7434 10.9323 11.9534 11.2223 11.9534ZM11.2223 15.1034C11.6923 15.1034 12.0823 14.7034 12.0823 14.2534C12.0823 13.7934 11.6923 13.4034 11.2223 13.4034C10.7423 13.4034 10.3723 13.7934 10.3723 14.2534C10.3723 14.7034 10.7423 15.1034 11.2223 15.1034Z" />
        </svg>
    