
        <svg xmlns="http://www.w3.org/2000/svg" viewBox="0 0 100 100">
            <path d="M2.637 22.98H13.357C15.087 22.98 15.997 22.04 15.997 20.19V12.12C15.997 10.5 15.297 9.57 13.947 9.37V6.54C13.947 2.13 11.067 0 7.997 0C4.937 0 2.047 2.13 2.047 6.54V9.37C0.717 9.57 -0.003 10.49 -0.003 12.12V20.19C-0.003 22.04 0.917 22.98 2.637 22.98ZM3.917 6.29C3.917 3.33 5.797 1.77 7.997 1.77C10.187 1.77 12.097 3.33 12.097 6.29V9.34H3.917ZM2.697 21.21C2.187 21.21 1.897 20.89 1.897 20.32V11.99C1.897 11.41 2.187 11.11 2.697 11.11H13.297C13.817 11.11 14.097 11.41 14.097 11.99V20.32C14.097 20.89 13.817 21.21 13.297 21.21ZM7.997 17.34C8.417 17.34 8.647 17.09 8.657 16.66L8.777 12.91C8.787 12.48 8.447 12.15 7.997 12.15C7.527 12.15 7.197 12.47 7.207 12.9L7.327 16.66C7.337 17.09 7.567 17.34 7.997 17.34ZM7.997 19.92C8.507 19.92 8.927 19.51 8.927 19.02C8.927 18.5 8.507 18.11 7.997 18.11C7.487 18.11 7.077 18.52 7.077 19.02C7.077 19.51 7.497 19.92 7.997 19.92Z" />
        </svg>
    