
        <svg xmlns="http://www.w3.org/2000/svg" viewBox="0 0 100 100">
            <path d="M7.2117 24.2481C7.7817 24.2481 8.1817 23.9381 8.8917 23.3081L12.9417 19.7081H20.4617C23.9517 19.7081 25.8317 17.7781 25.8317 14.3481V5.3681C25.8317 1.9381 23.9517 -0.0019 20.4617 -0.0019H5.3717C1.8717 -0.0019 0.0017 1.9181 0.0017 5.3681V14.3481C0.0017 17.7881 1.8717 19.7081 5.3717 19.7081H5.9317V22.7581C5.9317 23.6581 6.3917 24.2481 7.2117 24.2481ZM7.6917 22.0981V18.6981C7.6917 18.0681 7.4417 17.8281 6.8117 17.8281H5.3717C3.0017 17.8281 1.8917 16.6181 1.8917 14.3281V5.3681C1.8917 3.0781 3.0017 1.8881 5.3717 1.8881H20.4617C22.8117 1.8881 23.9417 3.0781 23.9417 5.3681V14.3281C23.9417 16.6181 22.8117 17.8281 20.4617 17.8281H12.8717C12.2117 17.8281 11.8817 17.9181 11.4417 18.3781ZM12.9117 11.9681C13.4717 11.9681 13.8017 11.6481 13.8117 11.0381L13.9817 4.8481C13.9917 4.2681 13.5217 3.8081 12.9017 3.8081C12.2717 3.8081 11.8217 4.2581 11.8317 4.8381L11.9917 11.0381C12.0017 11.6381 12.3317 11.9681 12.9117 11.9681ZM12.9117 15.7781C13.5917 15.7781 14.1817 15.2481 14.1817 14.5581C14.1817 13.8781 13.6017 13.3481 12.9117 13.3481C12.2217 13.3481 11.6517 13.8881 11.6517 14.5581C11.6517 15.2381 12.2317 15.7781 12.9117 15.7781Z" />
        </svg>
    