
        <svg xmlns="http://www.w3.org/2000/svg" viewBox="0 0 100 100">
            <path d="M12.6023 25.1969C19.5623 25.1969 25.2023 19.5569 25.2023 12.5969C25.2023 5.6369 19.5623 -0.0031 12.6023 -0.0031C5.6523 -0.0031 0.0023 5.6369 0.0023 12.5969C0.0023 19.5569 5.6523 25.1969 12.6023 25.1969ZM9.7823 19.4069C9.4023 19.4069 9.1623 19.1469 9.1623 18.7169V17.1469H9.0623C7.5823 17.1469 6.4023 16.0569 6.4023 14.3569V9.8869C6.4023 8.2069 7.4723 7.0969 9.2023 7.0969H16.0323C17.7423 7.0969 18.8223 8.2069 18.8223 9.8869V14.3569C18.8223 16.0569 17.7423 17.1469 16.0323 17.1469H12.7523L10.6123 19.0169C10.2923 19.2969 10.0623 19.4069 9.7823 19.4069ZM12.6223 12.8569C13.0623 12.8569 13.3123 12.6069 13.3323 12.1569L13.4423 10.0769C13.4623 9.6069 13.1223 9.2769 12.6123 9.2769C12.1023 9.2769 11.7623 9.6069 11.8023 10.0769L11.8923 12.1669C11.9223 12.6069 12.1923 12.8569 12.6223 12.8569ZM12.6223 14.9169C13.1223 14.9169 13.4923 14.6269 13.4923 14.1669C13.4923 13.6969 13.1223 13.4069 12.6223 13.4069C12.1123 13.4069 11.7423 13.6969 11.7423 14.1669C11.7423 14.6269 12.1323 14.9169 12.6223 14.9169Z" />
        </svg>
    