
        <svg xmlns="http://www.w3.org/2000/svg" viewBox="0 0 100 100">
            <path d="M3.3294 22.4909H21.4494C23.4894 22.4909 24.7694 21.0109 24.7694 19.1709C24.7694 18.6109 24.6094 18.0209 24.3094 17.4809L15.2394 1.6609C14.5994 0.5609 13.4994 0.0009 12.3894 0.0009C11.2594 0.0009 10.1594 0.5609 9.5394 1.6609L0.4694 17.4809C0.1494 18.0309 -0.0006 18.6109 -0.0006 19.1709C-0.0006 21.0109 1.2794 22.4909 3.3294 22.4909ZM3.5294 20.2809C2.7894 20.2809 2.3394 19.7109 2.3394 19.0709C2.3394 18.8709 2.3794 18.6109 2.4994 18.3909L11.3694 2.8809C11.5894 2.5009 11.9994 2.3309 12.3894 2.3309C12.7694 2.3309 13.1694 2.5009 13.3994 2.8809L22.2694 18.4109C22.3794 18.6209 22.4294 18.8709 22.4294 19.0709C22.4294 19.7109 21.9594 20.2809 21.2394 20.2809ZM12.3894 14.3909C13.0194 14.3909 13.3994 14.0309 13.4094 13.3509L13.5794 7.6509C13.6094 6.9709 13.0894 6.4809 12.3794 6.4809C11.6594 6.4809 11.1594 6.9609 11.1794 7.6409L11.3394 13.3609C11.3694 14.0109 11.7294 14.3909 12.3894 14.3909ZM12.3894 18.2709C13.1394 18.2709 13.7594 17.7209 13.7594 16.9809C13.7594 16.2409 13.1494 15.7009 12.3894 15.7009C11.6394 15.7009 11.0194 16.2509 11.0194 16.9809C11.0194 17.7209 11.6394 18.2709 12.3894 18.2709Z" />
        </svg>
    