
        <svg xmlns="http://www.w3.org/2000/svg" viewBox="0 0 100 100">
            <path d="M7.5517 24.6642C8.2017 24.6642 8.6817 24.3542 9.4917 23.6442L13.5117 20.0842H20.7517C24.2717 20.0842 26.2517 18.0742 26.2517 14.5942V5.4942C26.2517 2.0142 24.2717 0.0042 20.7517 0.0042H5.5117C1.9817 0.0042 0.0017 2.0142 0.0017 5.4942V14.5942C0.0017 18.0742 2.0317 20.0842 5.4217 20.0842H6.0617V22.9842C6.0617 24.0242 6.6117 24.6642 7.5517 24.6642ZM8.1117 22.0942V18.7542C8.1117 18.0542 7.8317 17.7842 7.1617 17.7842H5.5617C3.3517 17.7842 2.3017 16.6742 2.3017 14.5242V5.5642C2.3017 3.4142 3.3517 2.2942 5.5617 2.2942H20.6817C22.8917 2.2942 23.9517 3.4142 23.9517 5.5642V14.5242C23.9517 16.6742 22.8917 17.7842 20.6817 17.7842H13.3817C12.6717 17.7842 12.3317 17.9042 11.8217 18.4242ZM13.1217 12.0042C13.7617 12.0042 14.1317 11.6342 14.1517 10.9642L14.3317 5.2742C14.3417 4.5942 13.8317 4.0942 13.1117 4.0942C12.4017 4.0942 11.8917 4.5842 11.9217 5.2642L12.0817 10.9642C12.1017 11.6342 12.4817 12.0042 13.1217 12.0042ZM13.1217 15.8742C13.8717 15.8742 14.4917 15.3442 14.4917 14.5942C14.4917 13.8542 13.8917 13.3142 13.1217 13.3142C12.3717 13.3142 11.7517 13.8642 11.7517 14.5942C11.7517 15.3242 12.3917 15.8742 13.1217 15.8742Z" />
        </svg>
    