
        <svg xmlns="http://www.w3.org/2000/svg" viewBox="0 0 100 100">
            <path d="M14.3544 -0.0041C11.2944 -0.0041 8.5144 1.1459 6.4244 3.0359C5.5944 3.6759 5.6644 4.6959 6.1844 5.2959C6.6744 5.8259 7.4744 6.0559 8.3844 5.4059C9.9344 3.9559 12.0444 3.0859 14.3544 3.0859C18.7144 3.0859 22.3444 6.0659 23.3444 10.1059H21.9644C21.0444 10.1059 20.8144 10.8959 21.3044 11.5659L24.2044 15.4459C24.5644 15.9459 25.1944 15.9459 25.5644 15.4459L28.4544 11.5659C28.9544 10.8959 28.7244 10.1059 27.7944 10.1059H26.5144C25.4644 4.3559 20.4144 -0.0041 14.3544 -0.0041ZM14.3344 14.0459C15.0944 14.0459 15.5444 13.6259 15.5744 12.8159L15.7644 7.9959C15.8144 7.1759 15.2044 6.5959 14.3244 6.5959C13.4444 6.5959 12.8444 7.1559 12.8944 7.9959L13.0644 12.8459C13.1044 13.6159 13.5644 14.0459 14.3344 14.0459ZM14.3544 24.7459C17.4144 24.7459 20.2044 23.5859 22.2944 21.7159C23.1244 21.0559 23.0544 20.0459 22.5244 19.4559C22.0544 18.9159 21.2344 18.6959 20.3444 19.3459C18.7744 20.7859 16.6644 21.6659 14.3544 21.6659C10.0144 21.6659 6.3644 18.6759 5.3644 14.6459H6.7544C7.6744 14.6459 7.9044 13.8559 7.4044 13.1859L4.5244 9.3059C4.1544 8.7959 3.5244 8.7959 3.1644 9.3059L0.2644 13.1859C-0.2456 13.8559 -0.0056 14.6459 0.9244 14.6459H2.2044C3.2644 20.3859 8.3144 24.7459 14.3544 24.7459ZM14.3344 18.0559C15.2144 18.0559 15.8944 17.5059 15.8944 16.6559C15.8944 15.8159 15.2244 15.2559 14.3344 15.2559C13.4544 15.2559 12.7644 15.8159 12.7644 16.6559C12.7644 17.4959 13.4544 18.0559 14.3344 18.0559Z" />
        </svg>
    