
        <svg xmlns="http://www.w3.org/2000/svg" viewBox="0 0 100 100">
            <path d="M0.0017 15.7128C0.0017 19.3628 2.5417 21.8828 6.2917 21.8828H23.6817C27.4317 21.8828 29.9717 19.3628 29.9717 15.7128C29.9717 14.5428 29.6617 13.5228 29.2617 12.6228L25.0417 3.2828C24.0917 1.1828 22.3517 0.0028 19.9017 0.0028H10.1017C7.6517 0.0028 5.9017 1.1828 4.9617 3.2828L0.8317 12.4328C0.4017 13.3928 0.0017 14.4628 0.0017 15.7128ZM5.5117 9.6328L8.0417 3.9228C8.3317 3.2228 9.0617 2.8128 9.9417 2.8128H20.0617C20.9417 2.8128 21.6717 3.2228 21.9617 3.9228L24.4917 9.6328C24.2317 9.5828 23.9617 9.5428 23.6817 9.5428H6.2917C6.0217 9.5428 5.7517 9.5828 5.5117 9.6328ZM3.3017 15.7128C3.3017 14.0128 4.5017 12.8528 6.2917 12.8528H23.6817C25.4717 12.8528 26.6717 14.0128 26.6717 15.7128C26.6717 17.4728 25.4717 18.5628 23.6817 18.5628H6.2917C4.5017 18.5628 3.3017 17.4028 3.3017 15.7128ZM21.7617 15.7128C21.7617 16.6528 22.5217 17.4028 23.4717 17.4028C24.4017 17.4028 25.1617 16.6528 25.1617 15.7128C25.1617 14.7928 24.3917 14.0128 23.4717 14.0128C22.5317 14.0128 21.7617 14.7928 21.7617 15.7128Z" />
        </svg>
    