
        <svg xmlns="http://www.w3.org/2000/svg" viewBox="0 0 100 100">
            <path d="M2.3017 23.0348H9.3617C9.6717 24.0848 10.6317 24.8448 11.7517 24.8448C12.8817 24.8448 13.8417 24.0848 14.1417 23.0348H21.2117C21.6117 23.0348 21.9417 22.7148 21.9417 22.3148C21.9417 21.9248 21.6117 21.5948 21.2117 21.5948H14.1217C13.8717 20.8248 13.2517 20.2148 12.4817 19.9648V17.1248H19.2117C21.8117 17.1248 23.7917 15.2248 23.7917 12.7148C23.7917 11.9648 23.5817 11.2948 23.3117 10.6848L19.6917 2.3048C19.0417 0.8048 17.7817 0.0048 16.0517 0.0048H7.7217C6.0117 0.0048 4.7317 0.8048 4.0917 2.3048L0.4717 10.6848C0.1717 11.3448 0.0017 12.0148 0.0017 12.7148C0.0017 15.2248 1.9717 17.1248 4.5817 17.1248H11.0317V19.9648C10.2517 20.2148 9.6417 20.8248 9.3917 21.5948H2.3017C1.9017 21.5948 1.5717 21.9248 1.5717 22.3148C1.5717 22.7148 1.9017 23.0348 2.3017 23.0348ZM3.0017 8.6248L5.4917 2.7148C5.8917 1.7648 6.6717 1.2848 7.7617 1.2848H16.0417C17.1317 1.2848 17.9017 1.7648 18.3017 2.7148L20.8017 8.6248C20.3017 8.4148 19.7617 8.2948 19.2117 8.2948H4.5817C4.0317 8.2948 3.4917 8.4148 3.0017 8.6248ZM1.4417 12.7148C1.4417 11.0048 2.7617 9.7348 4.5817 9.7348H19.2117C21.0117 9.7348 22.3517 11.0048 22.3517 12.7148C22.3517 14.4948 21.0917 15.6748 19.2117 15.6748H4.5817C2.7617 15.6748 1.4417 14.4248 1.4417 12.7148ZM17.8617 12.7148C17.8617 13.4248 18.4417 14.0148 19.1817 14.0148C19.8917 14.0148 20.4817 13.4248 20.4817 12.7148C20.4817 12.0148 19.8717 11.4048 19.1817 11.4048C18.4717 11.4048 17.8617 12.0148 17.8617 12.7148Z" />
        </svg>
    