
        <svg xmlns="http://www.w3.org/2000/svg" viewBox="0 0 100 100">
            <path d="M5.1217 8.9509H23.0317C24.3317 8.9509 25.5017 9.2509 26.5117 9.7709L23.4917 2.9909C22.6517 1.0809 21.0217 0.0009 18.8017 0.0009H9.3617C7.1417 0.0009 5.5217 1.0809 4.6617 2.9909L1.6617 9.7609C2.6617 9.2509 3.8317 8.9509 5.1217 8.9509ZM5.1217 21.0209H23.0317C26.0717 21.0209 28.1517 18.9609 28.1517 15.9409C28.1517 12.9109 26.0717 10.8509 23.0317 10.8509H5.1217C2.0717 10.8509 0.0017 12.9109 0.0017 15.9409C0.0017 18.9609 2.0717 21.0209 5.1217 21.0209ZM21.4617 15.9609C21.4617 15.1209 22.1717 14.4009 23.0317 14.4009C23.8617 14.4009 24.5817 15.1209 24.5817 15.9609C24.5817 16.8209 23.8717 17.5109 23.0317 17.5109C22.1617 17.5209 21.4617 16.8309 21.4617 15.9609Z" />
        </svg>
    