
        <svg xmlns="http://www.w3.org/2000/svg" viewBox="0 0 100 100">
            <path d="M16.0194 20.0822C25.4894 20.0822 32.0294 12.4322 32.0294 10.0422C32.0294 7.6422 25.4794 0.0022 16.0194 0.0022C6.6794 0.0022 -0.0006 7.6422 -0.0006 10.0422C-0.0006 12.4322 6.6694 20.0822 16.0194 20.0822ZM16.0194 18.2322C8.2994 18.2322 2.0494 11.6922 2.0494 10.0422C2.0494 8.6522 8.2994 1.8522 16.0194 1.8522C23.7094 1.8522 29.9794 8.6522 29.9794 10.0422C29.9794 11.6922 23.7094 18.2322 16.0194 18.2322ZM16.0194 16.5922C19.6494 16.5922 22.5894 13.6522 22.5894 10.0222C22.5894 6.3822 19.6494 3.4422 16.0194 3.4422C12.3894 3.4422 9.4294 6.3822 9.4294 10.0222C9.4294 13.6522 12.3894 16.5922 16.0194 16.5922ZM16.0194 12.2122C14.8094 12.2122 13.8394 11.2422 13.8394 10.0322C13.8394 8.8222 14.8094 7.8522 16.0194 7.8522C17.2294 7.8522 18.1994 8.8222 18.1994 10.0322C18.1994 11.2422 17.2294 12.2122 16.0194 12.2122Z" />
        </svg>
    