
        <svg xmlns="http://www.w3.org/2000/svg" viewBox="0 0 100 100">
            <path d="M25.0394 21.1238C25.4094 21.4838 25.9594 21.5138 26.3194 21.1238C26.7094 20.7338 26.6694 20.2138 26.3194 19.8438L6.7294 0.2638C6.3794 -0.0862 5.7994 -0.0862 5.4394 0.2638C5.0994 0.6038 5.0994 1.2038 5.4394 1.5438ZM15.8894 1.0038C13.8994 1.0038 12.0194 1.3638 10.3394 1.9438L13.3594 4.9638C14.1194 4.6138 14.9894 4.4138 15.8894 4.4138C19.4994 4.4138 22.4394 7.3438 22.4394 10.9638C22.4394 11.8638 22.2294 12.7238 21.8894 13.4938L26.1194 17.7138C29.6494 15.3538 31.7694 12.3138 31.7694 10.9638C31.7694 8.5838 25.2694 1.0038 15.8894 1.0038ZM15.8894 20.9238C18.0394 20.9238 20.0394 20.5138 21.8394 19.8738L18.7694 16.8138C17.9194 17.2638 16.9294 17.5138 15.8894 17.5138C12.2694 17.5138 9.3394 14.5738 9.3394 10.9638C9.3394 9.9238 9.5894 8.9438 10.0294 8.0638L5.9794 4.0238C2.2594 6.4138 -0.0006 9.5838 -0.0006 10.9638C-0.0006 13.3338 6.6194 20.9238 15.8894 20.9238ZM19.7094 11.3138C19.9894 9.1238 17.9894 6.8238 15.5294 7.1338ZM15.8894 14.8138C16.1594 14.8138 16.4394 14.7838 16.6994 14.7238L12.1294 10.1538C12.0694 10.4138 12.0394 10.6838 12.0394 10.9638C12.0394 13.0938 13.7594 14.8138 15.8894 14.8138Z" />
        </svg>
    