
        <svg xmlns="http://www.w3.org/2000/svg" viewBox="0 0 100 100">
            <path d="M25.9994 22.4009C26.3994 22.8109 27.0594 22.8109 27.4594 22.4009C27.8594 21.9909 27.8694 21.3409 27.4594 20.9509L6.7994 0.3009C6.3994 -0.0991 5.7294 -0.0991 5.3294 0.3009C4.9494 0.7009 4.9494 1.3609 5.3294 1.7509ZM16.3794 0.9909C14.3694 0.9909 12.4994 1.3309 10.8194 1.8709L13.7694 4.8309C14.5894 4.6509 15.4694 4.5309 16.3794 4.5309C23.1294 4.5309 28.1494 10.1509 28.1494 11.4409C28.1494 12.2609 26.7994 14.0709 24.5894 15.6409L27.3194 18.3609C30.7994 15.8809 32.7694 12.8009 32.7694 11.4409C32.7694 9.0309 26.4394 0.9909 16.3794 0.9909ZM16.3794 21.9109C18.4494 21.9109 20.3394 21.5709 22.0894 21.0109L19.1294 18.0509C18.2594 18.2509 17.3294 18.3709 16.3794 18.3709C9.6194 18.3709 4.6194 13.0109 4.6194 11.4409C4.6194 10.7709 6.0094 8.8809 8.3094 7.2509L5.5694 4.5009C2.0394 6.9909 -0.0006 10.0909 -0.0006 11.4409C-0.0006 13.8609 6.4794 21.9109 16.3794 21.9109ZM16.3994 5.9309C15.9294 5.9309 15.4794 6.0009 15.0694 6.1209L21.6994 12.7709C21.8294 12.3409 21.8994 11.9009 21.8994 11.4309C21.8994 8.3709 19.4694 5.9309 16.3994 5.9309ZM16.3994 16.9509C16.8794 16.9509 17.3594 16.8709 17.7994 16.7309L11.0894 10.0209C10.9494 10.4609 10.8594 10.9409 10.8594 11.4309C10.8594 14.4309 13.3194 16.9509 16.3994 16.9509Z" />
        </svg>
    