
        <svg xmlns="http://www.w3.org/2000/svg" viewBox="0 0 100 100">
            <path d="M11.3523 22.7147C17.6023 22.7147 22.7123 17.6047 22.7123 11.3547C22.7123 5.1047 17.6023 0.0047 11.3523 0.0047C5.1123 0.0047 0.0023 5.1047 0.0023 11.3547C0.0023 17.6047 5.1123 22.7147 11.3523 22.7147ZM17.4023 17.8047L4.8823 5.2647C4.7623 5.1447 4.7423 4.9647 4.8823 4.8447C5.0023 4.7247 5.1923 4.7247 5.3123 4.8447L17.8323 17.3747C17.9523 17.4947 17.9523 17.6747 17.8323 17.8047C17.7223 17.9447 17.5223 17.9147 17.4023 17.8047ZM14.2823 13.1147C14.6123 12.5847 14.8023 11.9847 14.8023 11.3447C14.8023 9.4447 13.2323 7.9247 11.3523 7.9247C10.7123 7.9247 10.1123 8.0947 9.5823 8.4047L7.9923 6.8247C9.0023 6.3947 10.1223 6.1447 11.3523 6.1447C16.0123 6.1447 19.4523 10.1347 19.4523 11.3447C19.4523 12.0547 18.2323 13.7847 16.2223 15.0547ZM14.8123 15.8047C13.7923 16.2547 12.6223 16.5447 11.3523 16.5447C6.6823 16.5447 3.2623 12.5547 3.2623 11.3447C3.2623 10.6047 4.4923 8.8347 6.5323 7.5747L8.4623 9.4947C8.1123 10.0147 7.9223 10.6647 7.9223 11.3447C7.9323 13.1947 9.4523 14.7647 11.3523 14.7647C12.0323 14.7647 12.6723 14.5547 13.2023 14.2047ZM11.2523 10.0747C12.1423 9.9747 12.7623 10.7547 12.6323 11.4747ZM11.5323 12.5347C10.6323 12.6447 10.0223 11.8747 10.1323 11.1547Z" />
        </svg>
    