
        <svg xmlns="http://www.w3.org/2000/svg" viewBox="0 0 100 100">
            <path d="M12.2223 24.4419C18.9723 24.4419 24.4423 18.9719 24.4423 12.2219C24.4423 5.4819 18.9723 0.0019 12.2223 0.0019C5.4823 0.0019 0.0023 5.4819 0.0023 12.2219C0.0023 18.9719 5.4823 24.4419 12.2223 24.4419ZM12.2223 17.1819C7.5823 17.1819 4.3823 13.3919 4.3823 12.2319C4.3823 11.0719 7.5623 7.2919 12.2223 7.2919C16.9123 7.2919 20.0523 11.0719 20.0523 12.2319C20.0523 13.3919 16.9123 17.1819 12.2223 17.1819ZM12.2223 15.4119C13.9823 15.4119 15.4123 13.9619 15.4123 12.2319C15.4123 10.4619 13.9823 9.0419 12.2223 9.0419C10.4623 9.0419 9.0223 10.4619 9.0223 12.2319C9.0223 13.9619 10.4623 15.4119 12.2223 15.4119ZM12.2323 13.6319C11.4623 13.6319 10.8323 12.9819 10.8323 12.2319C10.8323 11.4819 11.4623 10.8419 12.2323 10.8419C12.9823 10.8419 13.6123 11.4819 13.6123 12.2319C13.6123 12.9819 12.9823 13.6319 12.2323 13.6319Z" />
        </svg>
    