
        <svg xmlns="http://www.w3.org/2000/svg" viewBox="0 0 100 100">
            <path d="M20.2947 15.3611L20.7547 14.9011C21.5847 14.0611 21.5747 13.0511 20.7347 12.1711L20.4647 11.9011C22.5447 10.1611 24.6347 10.1711 26.1647 8.6211C28.1847 6.5711 27.9947 3.3911 26.1247 1.5111C24.2647 -0.3889 21.0747 -0.5889 18.9947 1.4411C17.4247 2.9711 17.4647 5.0611 15.7047 7.1311L15.4547 6.8811C14.6747 5.9811 13.5947 6.0311 12.7147 6.8611L12.2447 7.3111C11.2847 8.2011 11.3547 9.1411 12.2847 10.0511L12.6947 10.4611L4.8747 18.2911C0.6447 22.5211 1.4747 23.7711 0.0047 25.6811L1.6447 27.4211C3.5247 25.9111 5.0847 26.8611 9.2547 22.7211L17.1447 14.8911L17.5647 15.3211C18.5047 16.2511 19.3747 16.3011 20.2947 15.3611ZM13.2447 14.4711C12.9647 14.1511 12.9847 13.8811 13.3347 13.5311L14.5447 12.3111L15.3547 13.1111L14.1247 14.3411C13.7947 14.6411 13.4747 14.7011 13.2447 14.4711Z" />
        </svg>
    