
        <svg xmlns="http://www.w3.org/2000/svg" viewBox="0 0 100 100">
            <path d="M8.9023 13.9002C12.7423 13.9002 15.8523 10.7902 15.8523 6.9502C15.8523 6.8202 15.8423 6.7002 15.8423 6.5902C16.5123 6.2102 17.3123 6.0702 17.9423 6.0702C18.5723 6.0702 19.3723 6.2102 20.0423 6.5902C20.0323 6.7002 20.0323 6.8202 20.0323 6.9502C20.0323 10.7902 23.1323 13.9002 26.9723 13.9002C30.7023 13.9002 33.7623 10.9602 33.9423 7.2702H35.2923C35.6823 7.2702 35.8823 7.1002 35.8823 6.7502V6.5702C35.8823 6.2102 35.6823 6.0302 35.2923 6.0302H33.8823C33.4323 2.6202 30.5023 0.0002 26.9723 0.0002C23.5923 0.0002 20.7823 2.4102 20.1523 5.6202V5.5202C19.4723 5.1902 18.6123 5.0502 17.9423 5.0502C17.2623 5.0502 16.3923 5.1902 15.7223 5.5202V5.6202C15.1023 2.4102 12.2923 0.0002 8.9023 0.0002C5.3823 0.0002 2.4523 2.6202 2.0023 6.0302H0.5723C0.1923 6.0302 0.0023 6.2102 0.0023 6.5702V6.7502C0.0023 7.1002 0.1923 7.2702 0.5723 7.2702H1.9423C2.1123 10.9602 5.1723 13.9002 8.9023 13.9002ZM8.9023 13.3202C5.3823 13.3202 2.5123 10.4802 2.5123 6.9502C2.5123 3.4202 5.3823 0.5702 8.9023 0.5702C12.4323 0.5702 15.2823 3.4202 15.2823 6.9502C15.2823 10.4802 12.4323 13.3202 8.9023 13.3202ZM26.9723 13.3202C23.4523 13.3202 20.6023 10.4802 20.6023 6.9502C20.6023 3.4202 23.4523 0.5702 26.9723 0.5702C30.5023 0.5702 33.3623 3.4202 33.3623 6.9502C33.3623 10.4802 30.5023 13.3202 26.9723 13.3202Z" />
        </svg>
    