
        <svg xmlns="http://www.w3.org/2000/svg" viewBox="0 0 100 100">
            <path d="M12.6023 25.1986C19.5623 25.1986 25.2023 19.5586 25.2023 12.5986C25.2023 5.6386 19.5623 -0.0014 12.6023 -0.0014C5.6323 -0.0014 0.0023 5.6386 0.0023 12.5986C0.0023 19.5586 5.6323 25.1986 12.6023 25.1986ZM12.6023 21.5386C7.6523 21.5386 3.6523 17.5386 3.6523 12.5986C3.6523 7.6486 7.6523 3.6586 12.6023 3.6586C17.5423 3.6586 21.5423 7.6486 21.5423 12.5986C21.5423 17.5386 17.5423 21.5386 12.6023 21.5386ZM7.8023 17.1986C7.8023 18.0686 8.6723 18.6086 10.0623 18.6086C11.9223 18.6086 13.1023 17.5086 13.4223 15.5086L13.7223 13.3786H15.9823C16.7223 13.3786 17.2223 12.8886 17.2223 12.1786C17.2223 11.4486 16.7223 10.9486 15.9723 10.9486H14.0823L14.2023 10.1286C14.3223 9.3386 14.6023 9.0186 15.2123 9.0186C15.6423 9.0186 15.9523 9.0986 16.3523 9.0986C16.9723 9.0986 17.3623 8.6086 17.3623 8.0286C17.3623 7.1486 16.5123 6.5986 15.1323 6.6086C13.2923 6.5986 12.0923 7.7086 11.7923 9.7186L11.6123 10.9486H9.7223C9.0023 10.9486 8.4923 11.4486 8.4923 12.1786C8.4923 12.8886 9.0023 13.3786 9.7223 13.3786H11.2623L10.9723 15.3086C10.8823 15.8886 10.6523 16.1786 10.1523 16.1786C9.6323 16.1786 9.4123 16.0986 9.0023 16.0986C8.2823 16.0986 7.8023 16.5486 7.8023 17.1986Z" />
        </svg>
    