
        <svg xmlns="http://www.w3.org/2000/svg" viewBox="0 0 100 100">
            <path d="M11.7523 23.5048C18.2323 23.5048 23.5123 18.2348 23.5123 11.7548C23.5123 5.2748 18.2323 0.0048 11.7523 0.0048C5.2723 0.0048 0.0023 5.2748 0.0023 11.7548C0.0023 18.2348 5.2723 23.5048 11.7523 23.5048ZM6.8623 17.7148C6.8623 17.3548 7.1123 17.0948 7.5023 17.0948C7.8423 17.0948 8.0323 17.2048 8.7623 17.2048C9.8223 17.2048 10.3823 16.6148 10.5723 15.2348L11.0623 11.8848H8.2923C7.8823 11.8848 7.5923 11.6048 7.5923 11.2248C7.5923 10.8248 7.8823 10.5448 8.2723 10.5448H11.2523L11.6123 8.0248C11.8923 6.0148 13.0323 4.9348 14.8723 4.9348C15.9823 4.9348 16.6523 5.2148 16.6523 5.7548C16.6523 6.1148 16.4023 6.3748 16.0323 6.3748C15.7623 6.3748 15.5123 6.2848 14.7623 6.2848C13.7123 6.2848 13.1523 6.8748 12.9623 8.2648L12.6323 10.5448H15.8423C16.2523 10.5448 16.5623 10.8248 16.5623 11.2248C16.5623 11.6148 16.2823 11.8848 15.8523 11.8848H12.4323L11.9223 15.4648C11.6323 17.4848 10.5023 18.5548 8.6623 18.5548C7.4923 18.5548 6.8623 18.2548 6.8623 17.7148Z" />
        </svg>
    