
        <svg xmlns="http://www.w3.org/2000/svg" viewBox="0 0 100 100">
            <path d="M2.7317 20.2047C5.3917 20.2047 7.1517 18.6847 7.5717 15.6247L8.3117 10.2347H13.5517C14.1117 10.2347 14.5117 9.8447 14.5117 9.3047C14.5117 8.7647 14.1017 8.3647 13.5317 8.3647H8.5617L9.0517 4.9247C9.3417 2.7647 10.2517 1.8647 11.8617 1.8647C13.0417 1.8647 13.4017 2.0147 13.8917 2.0147C14.3917 2.0147 14.7417 1.6947 14.7417 1.1447C14.7417 0.2447 13.3717 0.0047 12.0117 0.0047C9.3517 0.0047 7.5917 1.5247 7.1717 4.5847L6.6517 8.3647H2.1217C1.5617 8.3647 1.1617 8.7547 1.1617 9.3047C1.1617 9.8447 1.5717 10.2347 2.1317 10.2347H6.4017L5.7117 15.2947C5.4117 17.4447 4.4917 18.3447 2.8817 18.3447C1.7117 18.3447 1.3617 18.1847 0.8717 18.1847C0.3517 18.1847 0.0017 18.5047 0.0017 19.0547C0.0017 19.9647 1.3717 20.2047 2.7317 20.2047Z" />
        </svg>
    