
        <svg xmlns="http://www.w3.org/2000/svg" viewBox="0 0 100 100">
            <path d="M3.0117 20.5048H17.4917C19.4517 20.5048 20.5117 19.4248 20.5117 17.4948V3.0148C20.5117 1.0748 19.4517 0.0048 17.4917 0.0048H3.0117C1.0417 0.0048 0.0017 1.0448 0.0017 3.0148V17.4948C0.0017 19.4648 1.0417 20.5048 3.0117 20.5048ZM3.0317 19.9348C1.4217 19.9348 0.5717 19.0948 0.5717 17.4648V3.0348C0.5717 1.4148 1.4217 0.5748 3.0317 0.5748H17.4617C19.0317 0.5748 19.9317 1.4148 19.9317 3.0348V17.4648C19.9317 19.0948 19.0317 19.9348 17.4617 19.9348ZM7.6517 15.5048C7.8417 15.5048 7.9617 15.3748 7.9617 15.1948V10.5448H12.8317C13.0317 10.5448 13.1117 10.3948 13.1117 10.2548C13.1117 10.0848 13.0317 9.9648 12.8317 9.9648H7.9617V5.6948H13.2417C13.4517 5.6948 13.5317 5.5448 13.5317 5.4048C13.5317 5.2548 13.4517 5.1048 13.2417 5.1048H7.6217C7.4517 5.1048 7.3517 5.2348 7.3517 5.4348V15.1948C7.3517 15.3748 7.4717 15.5048 7.6517 15.5048Z" />
        </svg>
    