
        <svg xmlns="http://www.w3.org/2000/svg" viewBox="0 0 100 100">
            <path d="M3.4617 21.2264H17.7617C20.0517 21.2264 21.2217 20.0464 21.2217 17.7964V3.4264C21.2217 1.1764 20.0517 -0.0036 17.7617 -0.0036H3.4617C1.1717 -0.0036 0.0017 1.1564 0.0017 3.4264V17.7964C0.0017 20.0664 1.1717 21.2264 3.4617 21.2264ZM7.9717 16.0464C7.5017 16.0464 7.2317 15.7064 7.2317 15.2064V5.9864C7.2317 5.4864 7.4917 5.1464 7.9617 5.1464H13.7017C14.0817 5.1464 14.3317 5.3764 14.3317 5.7764C14.3317 6.1364 14.0817 6.3964 13.7017 6.3964H8.7317V9.9764H13.2517C13.6317 9.9764 13.8917 10.1964 13.8917 10.5864C13.8917 10.9564 13.6317 11.1664 13.2517 11.1664H8.7317V15.2064C8.7317 15.7164 8.4617 16.0464 7.9717 16.0464Z" />
        </svg>
    