
        <svg xmlns="http://www.w3.org/2000/svg" viewBox="0 0 100 100">
            <path d="M11.7423 1.5148C12.8923 1.5148 13.9923 1.7148 15.0323 2.0648L15.6023 0.6548C14.3923 0.2348 13.0923 0.0048 11.7423 0.0048C10.4023 0.0048 9.0923 0.2348 7.8823 0.6548L8.4723 2.0648C9.4923 1.6948 10.6023 1.5148 11.7423 1.5148ZM20.9323 7.2048L22.3123 6.6448C21.1523 4.2748 19.2223 2.3448 16.8623 1.1848L16.2923 2.5748C18.2923 3.5648 19.9323 5.1948 20.9323 7.2048ZM7.1923 2.5748L6.6323 1.1948C4.2623 2.3548 2.3423 4.2748 1.1823 6.6448L2.5823 7.2148C3.5623 5.2148 5.2023 3.5748 7.1923 2.5748ZM11.7423 20.5148C16.5823 20.5148 20.4923 16.6048 20.4923 11.7648C20.4923 6.9348 16.5823 3.0148 11.7423 3.0148C6.9123 3.0148 3.0023 6.9348 3.0023 11.7648C3.0023 16.6048 6.9123 20.5148 11.7423 20.5148ZM21.9923 11.7548C21.9923 12.9048 21.7923 14.0048 21.4523 15.0348L22.8423 15.6248C23.2723 14.4048 23.5123 13.1048 23.5123 11.7548C23.5123 10.4048 23.2723 9.1048 22.8423 7.8948L21.4523 8.4748C21.8123 9.5048 21.9923 10.6048 21.9923 11.7548ZM1.5223 11.7548C1.5223 10.6048 1.7123 9.5048 2.0623 8.4848L0.6523 7.8948C0.2323 9.1048 0.0023 10.4048 0.0023 11.7548C0.0023 13.1048 0.2323 14.4048 0.6723 15.6048L2.0623 15.0248C1.7223 14.0048 1.5223 12.9048 1.5223 11.7548ZM8.5823 10.6448C7.9523 10.6448 7.4223 10.0548 7.4223 9.2848C7.4223 8.4848 7.9523 7.8948 8.5823 7.8948C9.2023 7.8948 9.7423 8.4848 9.7423 9.2848C9.7423 10.0548 9.1923 10.6448 8.5823 10.6448ZM14.9323 10.6448C14.3223 10.6448 13.7723 10.0548 13.7723 9.2848C13.7723 8.4848 14.3123 7.8948 14.9323 7.8948C15.5523 7.8948 16.0923 8.4848 16.0923 9.2848C16.0923 10.0548 15.5423 10.6448 14.9323 10.6448ZM11.7423 16.8648C9.6223 16.8648 8.1523 15.3948 8.1523 14.7448C8.1523 14.5348 8.3523 14.4648 8.5123 14.5548C9.2223 15.0348 10.2223 15.5348 11.7423 15.5348C13.2823 15.5348 14.2723 15.0448 14.9923 14.5548C15.1423 14.4648 15.3423 14.5348 15.3423 14.7448C15.3423 15.3948 13.8823 16.8648 11.7423 16.8648ZM16.2923 20.9248L16.8623 22.3248C19.2323 21.1648 21.1623 19.2348 22.3123 16.8748L20.9323 16.3048C19.9423 18.3048 18.3023 19.9448 16.2923 20.9248ZM2.5823 16.3048L1.1923 16.8748C2.3523 19.2348 4.2823 21.1648 6.6323 22.3148L7.2023 20.9248C5.2023 19.9348 3.5623 18.3048 2.5823 16.3048ZM11.7523 21.9848C10.6023 21.9848 9.4923 21.7948 8.4723 21.4448L7.8823 22.8448C9.1023 23.2748 10.4023 23.5048 11.7523 23.5048C13.1023 23.5048 14.3923 23.2748 15.6123 22.8548L15.0123 21.4548C13.9923 21.7948 12.8923 21.9848 11.7523 21.9848Z" />
        </svg>
    