
        <svg xmlns="http://www.w3.org/2000/svg" viewBox="0 0 100 100">
            <path d="M0.9417 7.4502C1.5617 7.4502 1.8917 7.1002 1.8917 6.4902V3.7302C1.8917 2.5102 2.5317 1.8902 3.7017 1.8902H6.5417C7.1617 1.8902 7.5017 1.5502 7.5017 0.9402C7.5017 0.3302 7.1617 0.0002 6.5417 0.0002H3.6817C1.2317 0.0002 0.0017 1.2102 0.0017 3.6202V6.4902C0.0017 7.1002 0.3417 7.4502 0.9417 7.4502ZM21.9917 7.4502C22.6217 7.4502 22.9417 7.1002 22.9417 6.4902V3.6202C22.9417 1.2102 21.7117 0.0002 19.2617 0.0002H16.3917C15.7817 0.0002 15.4417 0.3302 15.4417 0.9402C15.4417 1.5502 15.7817 1.8902 16.3917 1.8902H19.2317C20.3917 1.8902 21.0617 2.5102 21.0617 3.7302V6.4902C21.0617 7.1002 21.4017 7.4502 21.9917 7.4502ZM10.5317 13.4402H10.6317C11.8117 13.4402 12.4617 12.8002 12.4617 11.6102V7.9202C12.4617 7.4602 12.1517 7.1702 11.7117 7.1702C11.2417 7.1702 10.9317 7.4602 10.9317 7.9202V11.7202C10.9317 11.8402 10.8617 11.8902 10.7617 11.8902H10.3517C9.9217 11.8902 9.6017 12.2202 9.6017 12.6402C9.6017 13.1502 9.9417 13.4402 10.5317 13.4402ZM7.0117 10.6802C7.5617 10.6802 7.9617 10.2902 7.9617 9.7302V8.1302C7.9617 7.5702 7.5617 7.1802 7.0117 7.1802C6.4617 7.1802 6.0717 7.5702 6.0717 8.1302V9.7302C6.0717 10.2902 6.4617 10.6802 7.0117 10.6802ZM15.9017 10.6802C16.4417 10.6802 16.8317 10.2902 16.8317 9.7302V8.1302C16.8317 7.5702 16.4417 7.1802 15.9017 7.1802C15.3417 7.1802 14.9517 7.5702 14.9517 8.1302V9.7302C14.9517 10.2902 15.3417 10.6802 15.9017 10.6802ZM11.4017 17.3802C12.8217 17.3802 14.2517 16.7702 15.2717 15.7502C15.4117 15.6202 15.4817 15.4202 15.4817 15.1902C15.4817 14.7402 15.1517 14.4302 14.7217 14.4302C14.4917 14.4302 14.3317 14.5102 14.1117 14.7402C13.4617 15.4102 12.4417 15.8702 11.4017 15.8702C10.4217 15.8702 9.3917 15.4302 8.7117 14.7402C8.5217 14.5702 8.3717 14.4302 8.0817 14.4302C7.6517 14.4302 7.3217 14.7402 7.3217 15.1902C7.3217 15.3902 7.3917 15.5702 7.5517 15.7402C8.4917 16.8202 9.9817 17.3802 11.4017 17.3802ZM3.6817 22.9302H6.5417C7.1617 22.9302 7.5017 22.5902 7.5017 22.0002C7.5017 21.3902 7.1617 21.0502 6.5417 21.0502H3.7017C2.5317 21.0502 1.8917 20.4302 1.8917 19.2102V16.4402C1.8917 15.8202 1.5517 15.4802 0.9417 15.4802C0.3317 15.4802 0.0017 15.8202 0.0017 16.4402V19.3002C0.0017 21.7302 1.2317 22.9302 3.6817 22.9302ZM16.3917 22.9302H19.2617C21.7117 22.9302 22.9417 21.7102 22.9417 19.3002V16.4402C22.9417 15.8202 22.6017 15.4802 21.9917 15.4802C21.3917 15.4802 21.0617 15.8202 21.0617 16.4402V19.2102C21.0617 20.4302 20.3917 21.0502 19.2317 21.0502H16.3917C15.7817 21.0502 15.4417 21.3902 15.4417 22.0002C15.4417 22.5902 15.7817 22.9302 16.3917 22.9302Z" />
        </svg>
    