
        <svg xmlns="http://www.w3.org/2000/svg" viewBox="0 0 100 100">
            <path d="M0.0023 8.1363C0.0023 12.0463 2.8723 14.7863 7.1823 14.8663C9.0423 17.3463 13.2323 18.8763 18.5823 18.8763C23.9423 18.8763 28.1323 17.3463 30.0023 14.8663C34.2923 14.7963 37.1723 12.0563 37.1723 8.1363C37.1723 5.5063 35.6123 3.8562 33.0423 3.8562H30.5023C29.0723 1.3962 24.8923 -0.0038 18.5823 -0.0038C12.2823 -0.0038 8.1123 1.3962 6.6723 3.8562H4.1223C1.5623 3.8562 0.0023 5.5063 0.0023 8.1363ZM11.9923 6.7863C11.9923 6.1762 12.5023 5.6563 13.1123 5.6563H24.0723C24.6923 5.6563 25.2023 6.1762 25.2023 6.7863C25.2023 7.4163 24.7023 7.9263 24.0723 7.9263H13.1123C12.4923 7.9263 11.9923 7.4163 11.9923 6.7863ZM31.0523 11.7963V6.2363H33.0423C34.1523 6.2363 34.7923 6.9763 34.7923 8.1363C34.7923 10.3863 33.3023 12.0563 31.0223 12.4263C31.0423 12.2263 31.0523 12.0163 31.0523 11.7963ZM2.3823 8.1363C2.3823 6.9763 3.0123 6.2363 4.1223 6.2363H6.1123V11.7963C6.1123 12.0163 6.1323 12.2263 6.1623 12.4263C3.8623 12.0563 2.3823 10.3863 2.3823 8.1363ZM11.9923 11.6063C11.9923 10.9763 12.4923 10.4662 13.1123 10.4662H24.0723C24.7023 10.4662 25.2023 10.9763 25.2023 11.6063C25.2023 12.2263 24.6923 12.7263 24.0723 12.7263H13.1123C12.5023 12.7263 11.9923 12.2263 11.9923 11.6063Z" />
        </svg>
    