
        <svg xmlns="http://www.w3.org/2000/svg" viewBox="0 0 100 100">
            <path d="M12.2223 24.4436C18.9723 24.4436 24.4423 18.9636 24.4423 12.2236C24.4423 5.4736 18.9723 0.0036 12.2223 0.0036C5.4823 0.0036 0.0023 5.4736 0.0023 12.2236C0.0023 18.9636 5.4823 24.4436 12.2223 24.4436ZM8.6123 11.0736C7.8523 11.0736 7.2023 10.3836 7.2023 9.4336C7.2023 8.4636 7.8523 7.7536 8.6123 7.7536C9.3823 7.7536 10.0623 8.4636 10.0623 9.4336C10.0623 10.3836 9.3823 11.0736 8.6123 11.0736ZM15.8223 11.0736C15.0423 11.0736 14.3923 10.3836 14.3923 9.4336C14.3923 8.4636 15.0423 7.7536 15.8223 7.7536C16.5823 7.7536 17.2623 8.4636 17.2623 9.4336C17.2623 10.3836 16.5823 11.0736 15.8223 11.0736ZM12.2223 18.1436C9.6323 18.1436 7.9123 16.4336 7.9123 15.5936C7.9123 15.2936 8.2123 15.1536 8.4823 15.2836C9.3823 15.7536 10.4323 16.3036 12.2223 16.3036C14.0023 16.3036 15.0323 15.7336 15.9523 15.2836C16.2323 15.1636 16.5323 15.2936 16.5323 15.5936C16.5323 16.4336 14.8023 18.1436 12.2223 18.1436Z" />
        </svg>
    