
        <svg xmlns="http://www.w3.org/2000/svg" viewBox="0 0 100 100">
            <path d="M12.1023 24.2064C18.7823 24.2064 24.2123 18.7864 24.2123 12.1064C24.2123 5.4264 18.7823 -0.0036 12.1023 -0.0036C5.4223 -0.0036 0.0023 5.4264 0.0023 12.1064C0.0023 18.7864 5.4223 24.2064 12.1023 24.2064ZM12.1023 21.8164C6.7223 21.8164 2.3823 17.4864 2.3823 12.1064C2.3823 6.7264 6.7223 2.3764 12.1023 2.3764C17.4823 2.3764 21.8323 6.7264 21.8323 12.1064C21.8323 17.4864 17.4823 21.8164 12.1023 21.8164ZM8.6323 11.0464C9.3723 11.0464 10.0323 10.3864 10.0323 9.4564C10.0323 8.5264 9.3823 7.8664 8.6323 7.8664C7.9123 7.8664 7.2823 8.5264 7.2823 9.4564C7.2823 10.3864 7.9123 11.0464 8.6323 11.0464ZM15.5523 11.0464C16.2923 11.0464 16.9423 10.3864 16.9423 9.4564C16.9423 8.5264 16.2923 7.8664 15.5523 7.8664C14.8123 7.8664 14.1923 8.5264 14.1923 9.4564C14.1923 10.3864 14.8223 11.0464 15.5523 11.0464ZM12.0923 17.8664C14.5523 17.8664 16.2023 16.2464 16.2023 15.4564C16.2023 15.1764 15.9223 15.0464 15.6523 15.1664C14.8023 15.6064 13.8023 16.1364 12.0923 16.1364C10.3923 16.1364 9.3823 15.6064 8.5323 15.1664C8.2723 15.0364 7.9923 15.1764 7.9923 15.4564C7.9923 16.2464 9.6423 17.8664 12.0923 17.8664Z" />
        </svg>
    