
        <svg xmlns="http://www.w3.org/2000/svg" viewBox="0 0 100 100">
            <path d="M11.9517 15.8923C12.2117 15.8923 12.4717 15.8623 12.7117 15.8223V21.0823C12.7117 22.8523 13.7317 23.9023 15.4417 23.9023C19.0617 23.9023 22.5317 20.8323 22.5317 17.3823C22.5317 14.7523 20.4917 13.1723 15.8917 12.3623C15.9017 12.2223 15.9117 12.0823 15.9117 11.9423C15.9117 11.6823 15.8917 11.4423 15.8417 11.1923H21.0717C22.8517 11.1923 23.9017 10.1823 23.9017 8.4623C23.9017 4.8523 20.8317 1.3723 17.3817 1.3723C14.7517 1.3723 13.1817 3.4123 12.3617 8.0023C12.2217 7.9923 12.0917 7.9823 11.9517 7.9823C11.6917 7.9823 11.4417 8.0123 11.1917 8.0623V2.8323C11.1917 1.0523 10.1817 0.0023 8.4617 0.0023C4.8517 0.0023 1.3717 3.0723 1.3717 6.5423C1.3717 9.1523 3.4117 10.7323 8.0117 11.5523C8.0017 11.6823 8.0017 11.8123 8.0017 11.9423C8.0017 12.2123 8.0317 12.4723 8.0717 12.7123H2.8317C1.0517 12.7123 0.0017 13.7323 0.0017 15.4423C0.0017 19.0623 3.0717 22.5323 6.5417 22.5323C9.1617 22.5323 10.7317 20.4823 11.5517 15.8823C11.6817 15.8923 11.8217 15.8923 11.9517 15.8923ZM1.9417 6.5423C1.9417 3.3523 5.1717 0.5723 8.4617 0.5723C9.8417 0.5723 10.6617 1.4223 10.6617 2.8323V8.2023C9.4117 8.6323 8.4417 9.6923 8.1117 10.9923C3.8917 10.2523 1.9417 8.8323 1.9417 6.5423ZM17.3817 1.9423C20.5617 1.9423 23.3317 5.1723 23.3317 8.4623C23.3317 9.8423 22.4917 10.6623 21.0717 10.6623H15.7017C15.2717 9.4123 14.2117 8.4223 12.9117 8.1123C13.6617 3.8923 15.0817 1.9423 17.3817 1.9423ZM11.9517 15.3023C10.0917 15.3023 8.5917 13.8023 8.5917 11.9423C8.5917 10.0823 10.0917 8.5823 11.9517 8.5823C13.8117 8.5823 15.3117 10.0823 15.3117 11.9423C15.3117 13.8023 13.8117 15.3023 11.9517 15.3023ZM11.9517 13.6023C12.8717 13.6023 13.6217 12.8523 13.6217 11.9423C13.6217 11.0223 12.8717 10.2723 11.9517 10.2723C11.0417 10.2723 10.2917 11.0223 10.2917 11.9423C10.2917 12.8523 11.0417 13.6023 11.9517 13.6023ZM13.2417 21.0823V15.6823C14.4917 15.2423 15.4617 14.2023 15.7817 12.9123C20.0117 13.6623 21.9617 15.0823 21.9617 17.3823C21.9617 20.5623 18.7417 23.3323 15.4417 23.3323C14.0617 23.3323 13.2417 22.4923 13.2417 21.0823ZM6.5417 21.9623C3.3517 21.9623 0.5717 18.7523 0.5717 15.4423C0.5717 14.0623 1.4217 13.2423 2.8317 13.2423H8.2217C8.6617 14.4923 9.7017 15.4523 10.9917 15.7723C10.2517 20.0123 8.8317 21.9623 6.5417 21.9623Z" />
        </svg>
    