
        <svg xmlns="http://www.w3.org/2000/svg" viewBox="0 0 100 100">
            <path d="M4.5817 24.0444H13.3817C13.5617 24.0444 13.6717 23.9344 13.6717 23.7744C13.6717 23.4744 13.4517 23.1844 12.9717 23.1844H9.2817V17.9644C14.1017 17.8044 17.9617 13.8444 17.9617 8.9744C17.9617 4.0244 13.9417 0.0044 8.9917 0.0044C4.0217 0.0044 0.0017 4.0244 0.0017 8.9744C0.0017 13.8544 3.8817 17.8244 8.7117 17.9644V23.1844H4.9917C4.5117 23.1844 4.3017 23.4744 4.3017 23.7744C4.3017 23.9344 4.4017 24.0444 4.5817 24.0444ZM11.4017 8.5344C11.4517 8.7544 11.4617 9.0244 11.4217 9.2244C14.0117 9.6944 15.2017 10.5944 15.2017 12.1444C15.2017 14.1644 13.1517 15.9744 11.0117 15.9744C9.9517 15.9744 9.4317 15.4344 9.4317 14.3244V11.4044C9.2117 11.4344 8.9317 11.4644 8.7417 11.4244C8.2717 14.0044 7.3717 15.1844 5.8217 15.1844C3.8017 15.1844 1.9817 13.1344 1.9817 11.0144C1.9817 9.9444 2.5217 9.4244 3.6417 9.4244H6.5617C6.5117 9.1944 6.5017 8.9344 6.5417 8.7444C3.9517 8.2644 2.7617 7.3544 2.7617 5.8244C2.7617 3.7944 4.8117 1.9844 6.9517 1.9844C8.0117 1.9844 8.5317 2.5244 8.5317 3.6444V6.5644C8.7617 6.5144 9.0317 6.5044 9.2217 6.5244C9.7017 3.9444 10.5917 2.7644 12.1417 2.7644C14.1717 2.7644 15.9817 4.8144 15.9817 6.9444C15.9817 8.0044 15.4417 8.5344 14.3217 8.5344ZM8.9917 10.6644C9.9117 10.6644 10.6617 9.9144 10.6617 8.9744C10.6617 8.0544 9.9117 7.3044 8.9917 7.3044C8.0517 7.3044 7.3017 8.0544 7.3017 8.9744C7.3017 9.9144 8.0517 10.6644 8.9917 10.6644Z" />
        </svg>
    