
        <svg xmlns="http://www.w3.org/2000/svg" viewBox="0 0 100 100">
            <path d="M2.6617 13.0698C2.6617 16.1398 5.4417 19.3698 8.1717 19.3698C10.2517 19.3698 11.5917 17.7798 12.6417 15.2998H12.7117V16.7898C12.7117 18.7498 13.8317 19.8898 15.7217 19.8898C18.8017 19.8898 22.0317 17.1198 22.0317 14.3798C22.0317 12.3398 20.4017 11.0198 17.9617 9.8998V9.8398H19.4317C21.4017 9.8398 22.5517 8.7298 22.5517 6.8298C22.5517 3.7598 19.7717 0.5298 17.0317 0.5298C14.9617 0.5298 13.6517 2.1098 12.5617 4.5698H12.5017V3.1098C12.5017 1.1398 11.3917 -0.0002 9.4717 -0.0002C6.4217 0.0098 3.1917 2.7798 3.1917 5.5098C3.1917 7.5898 4.7017 8.8898 7.2217 9.9698V10.0398H5.7617C3.8117 10.0398 2.6617 11.1698 2.6617 13.0698ZM12.6017 11.6298C11.6717 11.6298 10.9217 10.8798 10.9217 9.9398C10.9217 9.0098 11.6717 8.2498 12.6017 8.2498C13.5317 8.2498 14.2817 9.0098 14.2817 9.9398C14.2817 10.8798 13.5317 11.6298 12.6017 11.6298ZM4.8517 21.7098L5.0317 22.1598C1.9917 22.8598 0.0017 24.0898 0.0017 25.8398C0.0017 28.7498 5.5917 30.2698 12.6017 30.2698C19.6017 30.2698 25.1917 28.7498 25.1917 25.8398C25.1917 24.0898 23.2017 22.8598 20.1817 22.1598L20.3517 21.7098C20.6117 21.0398 20.1317 20.1398 19.2517 20.3698L16.4317 21.1198C15.6117 21.3398 15.4117 22.0898 15.8217 22.7498L17.3517 25.1998C17.8217 25.9598 18.7217 25.8198 18.9817 25.1498L19.2217 24.5698C21.4017 24.9598 22.5617 25.4798 22.5617 25.8398C22.5617 26.5498 18.6517 27.6298 12.6017 27.6298C6.5417 27.6298 2.6417 26.5498 2.6417 25.8398C2.6417 25.4798 3.8117 24.9598 5.9917 24.5698L6.2117 25.1498C6.4717 25.8198 7.3717 25.9598 7.8417 25.1998L9.3917 22.7498C9.8017 22.0898 9.5817 21.3398 8.7617 21.1198L5.9417 20.3698C5.0617 20.1398 4.5817 21.0398 4.8517 21.7098Z" />
        </svg>
    