
        <svg xmlns="http://www.w3.org/2000/svg" viewBox="0 0 100 100">
            <path d="M4.0917 27.2916H14.6217C15.0617 27.2916 15.3417 26.9816 15.3417 26.5216C15.3417 25.6416 14.6217 25.0216 13.5117 25.0216H10.3017V18.6516C15.0217 18.1716 18.7017 14.2016 18.7017 9.3516C18.7017 4.1916 14.5217 0.0016 9.3517 0.0016C4.1817 0.0016 0.0017 4.1916 0.0017 9.3516C0.0017 14.2016 3.6917 18.1916 8.4117 18.6516V25.0216H5.1917C4.0817 25.0216 3.3617 25.6416 3.3617 26.5216C3.3617 26.9816 3.6417 27.2916 4.0917 27.2916ZM12.0117 8.8916C12.0517 9.0616 12.0617 9.2316 12.0517 9.4716C14.1117 10.2416 15.2617 10.9616 15.2617 12.3516C15.2617 13.9716 13.3217 15.7016 11.4017 15.7016C10.3617 15.7016 9.8117 15.1016 9.8117 14.0616V12.0116C9.6417 12.0516 9.4717 12.0616 9.2417 12.0616C8.4717 14.1116 7.7417 15.2616 6.3617 15.2616C4.7317 15.2616 3.0017 13.3216 3.0017 11.4016C3.0017 10.3616 3.6017 9.8216 4.6517 9.8216H6.6917C6.6717 9.6416 6.6417 9.4716 6.6517 9.2416C4.5917 8.4716 3.4417 7.7416 3.4417 6.3616C3.4417 4.7416 5.3817 3.0016 7.3117 3.0016C8.3417 3.0016 8.8917 3.6016 8.8917 4.6516V6.6916C9.0617 6.6716 9.2317 6.6416 9.4717 6.6516C10.2317 4.5916 10.9617 3.4616 12.3417 3.4616C13.9717 3.4616 15.7017 5.3816 15.7017 7.3116C15.7017 8.3416 15.1017 8.8916 14.0617 8.8916ZM9.3617 10.6516C10.0817 10.6516 10.6617 10.0616 10.6617 9.3516C10.6617 8.6416 10.0817 8.0516 9.3617 8.0516C8.6517 8.0516 8.0617 8.6416 8.0617 9.3516C8.0617 10.0616 8.6517 10.6516 9.3617 10.6516Z" />
        </svg>
    