
        <svg xmlns="http://www.w3.org/2000/svg" viewBox="0 0 100 100">
            <path d="M5.7117 26.2025H17.3217C17.6717 26.2025 17.8917 25.9725 17.8917 25.6025C17.8917 24.9125 17.3417 24.4125 16.4417 24.4125H12.2317V22.9925C18.2417 22.6125 23.0117 17.6225 23.0117 11.5125C23.0117 5.1525 17.8717 0.0025 11.5117 0.0025C5.1417 0.0025 0.0017 5.1425 0.0017 11.5125C0.0017 17.6225 4.7617 22.6325 10.7817 22.9925V24.4125H6.5717C5.6717 24.4125 5.1217 24.9125 5.1217 25.6025C5.1217 25.9725 5.3517 26.2025 5.7117 26.2025ZM12.0817 14.6925C11.8517 14.7425 11.5917 14.7525 11.3317 14.7425C10.4617 17.6025 9.4717 19.1025 7.6417 19.1025C5.4217 19.1025 3.2017 16.6025 3.2017 14.1025C3.2017 12.7625 3.9217 12.0925 5.3017 12.0925H8.3117C8.2717 11.8525 8.2517 11.5825 8.2717 11.3325C5.4017 10.4725 3.9017 9.4725 3.9017 7.6525C3.9017 5.4225 6.4017 3.2125 8.8917 3.2125C10.2417 3.2125 10.9117 3.9225 10.9117 5.3125V8.3125C11.1517 8.2725 11.4117 8.2525 11.6617 8.2725C12.5317 5.4025 13.5217 3.9125 15.3517 3.9125C17.5617 3.9125 19.7917 6.4025 19.7917 8.9025C19.7917 10.2425 19.0617 10.9225 17.6917 10.9225H14.7117C14.7417 11.1425 14.7517 11.4125 14.7417 11.6725C17.6017 12.5425 19.0917 13.5325 19.0917 15.3525C19.0917 17.5825 16.5917 19.7925 14.1017 19.7925C12.7517 19.7925 12.0817 19.0825 12.0817 17.7025ZM11.5117 13.3225C12.5017 13.3225 13.3217 12.5025 13.3217 11.5125C13.3217 10.5025 12.5017 9.6825 11.5117 9.6825C10.5017 9.6825 9.6817 10.5025 9.6817 11.5125C9.6817 12.5025 10.5017 13.3225 11.5117 13.3225Z" />
        </svg>
    