
        <svg xmlns="http://www.w3.org/2000/svg" viewBox="0 0 100 100">
            <path d="M13.3717 18.502C13.6517 18.502 13.9217 18.482 14.1917 18.432V22.852C14.1917 25.322 15.5617 26.742 17.9717 26.742C21.9917 26.742 25.7917 23.472 25.7917 19.622C25.7917 16.332 23.1817 14.552 18.4917 13.642C18.4917 13.542 18.5017 13.462 18.5017 13.372C18.5017 13.092 18.4817 12.822 18.4317 12.552H22.8517C25.3217 12.552 26.7417 11.182 26.7417 8.762C26.7417 4.742 23.4717 0.952 19.6217 0.952C16.3317 0.952 14.5517 3.562 13.6417 8.252C13.5517 8.242 13.4617 8.242 13.3717 8.242C13.0917 8.242 12.8217 8.262 12.5517 8.312V3.892C12.5517 1.422 11.1817 0.002 8.7617 0.002C4.7417 0.002 0.9517 3.272 0.9517 7.122C0.9517 10.392 3.5617 12.192 8.2517 13.102C8.2417 13.182 8.2417 13.282 8.2417 13.372C8.2417 13.652 8.2617 13.922 8.3117 14.192H3.8917C1.4217 14.192 0.0017 15.562 0.0017 17.972C0.0017 21.992 3.2717 25.792 7.1217 25.792C10.3917 25.792 12.1917 23.182 13.1017 18.492C13.1817 18.502 13.2817 18.502 13.3717 18.502ZM13.3717 15.272C12.3117 15.272 11.4717 14.412 11.4717 13.372C11.4717 12.312 12.3117 11.472 13.3717 11.472C14.4117 11.472 15.2717 12.312 15.2717 13.372C15.2717 14.412 14.4117 15.272 13.3717 15.272ZM13.3717 14.782C14.1417 14.782 14.7817 14.142 14.7817 13.372C14.7817 12.602 14.1417 11.962 13.3717 11.962C12.6017 11.962 11.9617 12.602 11.9617 13.372C11.9617 14.142 12.6017 14.782 13.3717 14.782Z" />
        </svg>
    