
        <svg xmlns="http://www.w3.org/2000/svg" viewBox="0 0 100 100">
            <path d="M4.2817 27.8311H15.0017C15.5117 27.8311 15.8317 27.4411 15.8317 26.9211C15.8317 25.9611 15.0317 25.3011 13.8917 25.3011H10.7617V19.2211C15.5617 18.6611 19.2917 14.5911 19.2917 9.6311C19.2917 4.3111 14.9617 0.0011 9.6417 0.0011C4.3117 0.0011 0.0017 4.3111 0.0017 9.6311C0.0017 14.5911 3.7217 18.6611 8.5317 19.2211V25.3011H5.4017C4.2417 25.3011 3.4617 25.9611 3.4617 26.9211C3.4617 27.4411 3.7617 27.8311 4.2817 27.8311ZM9.6517 17.2711C5.4417 17.2711 2.0117 13.8511 2.0117 9.6311C2.0117 5.4111 5.4417 2.0011 9.6517 2.0011C13.8617 2.0011 17.2817 5.4111 17.2817 9.6311C17.2817 13.8511 13.8617 17.2711 9.6517 17.2711ZM12.2817 9.6311C12.2817 9.4911 12.2717 9.3411 12.2417 9.2011H14.1817C15.2217 9.2011 15.8117 8.6611 15.8117 7.6311C15.8117 5.7611 14.1717 3.9111 12.5417 3.9111C11.1817 3.9111 10.4617 5.0111 9.7717 7.0111C9.7217 7.0111 9.6917 7.0111 9.6517 7.0111C9.5017 7.0111 9.3617 7.0211 9.2117 7.0411V5.1111C9.2117 4.0711 8.6717 3.4811 7.6417 3.4811C5.7817 3.4811 3.9217 5.1211 3.9217 6.7511C3.9217 8.1111 5.0417 8.8211 7.0317 9.5111C7.0217 9.5611 7.0217 9.6011 7.0217 9.6311C7.0217 9.7811 7.0317 9.9411 7.0517 10.0811H5.1217C4.0817 10.0811 3.4917 10.6211 3.4917 11.6511C3.4917 13.5111 5.1417 15.3611 6.7617 15.3611C8.1217 15.3611 8.8317 14.2511 9.5417 12.2611C9.5717 12.2711 9.6117 12.2711 9.6517 12.2711C9.8017 12.2711 9.9517 12.2611 10.0917 12.2311V14.1711C10.0917 15.2111 10.6317 15.8011 11.6617 15.8011C13.5217 15.8011 15.3717 14.1411 15.3717 12.5311C15.3717 11.1711 14.2717 10.4511 12.2817 9.7511C12.2817 9.7111 12.2817 9.6811 12.2817 9.6311ZM9.6517 10.9311C8.9417 10.9311 8.3517 10.3511 8.3517 9.6311C8.3517 8.9311 8.9417 8.3411 9.6517 8.3411C10.3717 8.3411 10.9417 8.9311 10.9417 9.6311C10.9417 10.3511 10.3717 10.9311 9.6517 10.9311Z" />
        </svg>
    