
        <svg xmlns="http://www.w3.org/2000/svg" viewBox="0 0 100 100">
            <path d="M5.6517 27.2916H18.0817C18.5317 27.2916 18.8117 26.9816 18.8117 26.5216C18.8117 25.6416 18.0917 25.0216 16.9817 25.0216H12.8117V23.6916C18.9217 23.2116 23.7317 18.1016 23.7317 11.8716C23.7317 5.3216 18.4217 0.0016 11.8717 0.0016C5.3117 0.0016 0.0017 5.3116 0.0017 11.8716C0.0017 18.1016 4.8017 23.2116 10.9217 23.6916V25.0216H6.7617C5.6517 25.0216 4.9317 25.6416 4.9317 26.5216C4.9317 26.9816 5.2117 27.2916 5.6517 27.2916ZM11.8717 21.8416C6.3517 21.8416 1.8917 17.3816 1.8917 11.8716C1.8917 6.3516 6.3517 1.8916 11.8717 1.8916C17.3817 1.8916 21.8417 6.3516 21.8417 11.8716C21.8417 17.3816 17.3817 21.8416 11.8717 21.8416ZM11.8717 15.1916C12.0717 15.1916 12.2617 15.1616 12.4417 15.1416V17.7416C12.4417 19.0916 13.1217 19.8116 14.4417 19.8116C16.8417 19.8116 19.2517 17.6516 19.2517 15.6116C19.2517 13.8616 17.8017 12.9616 15.1917 11.9516C15.1917 11.9316 15.1917 11.8916 15.1917 11.8716C15.1917 11.6716 15.1617 11.4716 15.1317 11.2816H17.7417C19.0817 11.2816 19.8117 10.6016 19.8117 9.2916C19.8117 6.8916 17.6517 4.4716 15.6117 4.4716C13.8617 4.4716 12.9517 5.9316 11.9517 8.5416C11.9217 8.5416 11.8917 8.5416 11.8717 8.5416C11.6617 8.5416 11.4717 8.5616 11.2817 8.6016V5.9916C11.2817 4.6516 10.6017 3.9216 9.2917 3.9216C6.8917 3.9216 4.4717 6.0816 4.4717 8.1316C4.4717 9.8716 5.9317 10.7816 8.5417 11.7816C8.5417 11.8016 8.5417 11.8316 8.5417 11.8716C8.5417 12.0716 8.5617 12.2616 8.6017 12.4616H5.9917C4.6517 12.4616 3.9117 13.1416 3.9117 14.4516C3.9117 16.8416 6.0817 19.2516 8.1217 19.2516C9.8717 19.2516 10.7817 17.8016 11.7817 15.1916C11.8117 15.1916 11.8317 15.1916 11.8717 15.1916ZM11.8717 13.5316C10.9417 13.5316 10.1917 12.7816 10.1917 11.8716C10.1917 10.9416 10.9417 10.1916 11.8717 10.1916C12.7817 10.1916 13.5317 10.9416 13.5317 11.8716C13.5317 12.7816 12.7817 13.5316 11.8717 13.5316Z" />
        </svg>
    