
        <svg xmlns="http://www.w3.org/2000/svg" viewBox="0 0 100 100">
            <path d="M3.6817 22.1344H4.8917V23.2544C4.8917 24.9744 5.7117 25.7344 7.3717 25.7344H19.4217C21.0717 25.7344 21.9017 24.9744 21.9017 23.2544V22.1344H23.1117C25.5017 22.1344 26.7917 20.8944 26.7917 18.5044V7.7244C26.7917 5.3344 25.5017 4.0944 23.1117 4.0944H22.0317V3.4544C22.0317 1.0944 20.8517 0.0044 18.5617 0.0044H8.2217C6.0317 0.0044 4.7417 1.0944 4.7417 3.4544V4.0944H3.6817C1.3817 4.0944 0.0017 5.3344 0.0017 7.7244V18.5044C0.0017 20.8944 1.2917 22.1344 3.6817 22.1344ZM6.8917 3.3044C6.8917 2.4144 7.3517 1.9844 8.2117 1.9844H18.5617C19.4417 1.9844 19.8917 2.4144 19.8917 3.3044V4.0944H6.8917ZM19.4217 15.9644H7.3717C5.7617 15.9644 4.8917 16.7244 4.8917 18.4444V20.0644H3.6717C2.7117 20.0644 2.2017 19.5544 2.2017 18.5944V7.6444C2.2017 6.6844 2.7117 6.1644 3.6717 6.1644H23.1117C24.0717 6.1644 24.5817 6.6844 24.5817 7.6444V18.5944C24.5817 19.5544 24.0717 20.0644 23.1117 20.0644H21.9017V18.4444C21.9017 16.7244 21.0717 15.9644 19.4217 15.9644ZM7.1917 10.2144H8.2717C8.6117 10.2144 8.8217 10.0044 8.8217 9.6644V8.5944C8.8217 8.2544 8.6117 8.0344 8.2717 8.0344H7.1917C6.8517 8.0344 6.6417 8.2544 6.6417 8.5944V9.6644C6.6417 10.0044 6.8517 10.2144 7.1917 10.2144ZM10.9717 10.2144H12.0517C12.3917 10.2144 12.6017 10.0044 12.6017 9.6644V8.5944C12.6017 8.2544 12.3917 8.0344 12.0517 8.0344H10.9717C10.6317 8.0344 10.4217 8.2544 10.4217 8.5944V9.6644C10.4217 10.0044 10.6317 10.2144 10.9717 10.2144ZM14.7417 10.2144H15.8217C16.1617 10.2144 16.3617 10.0044 16.3617 9.6644V8.5944C16.3617 8.2544 16.1617 8.0344 15.8217 8.0344H14.7417C14.4017 8.0344 14.1917 8.2544 14.1917 8.5944V9.6644C14.1917 10.0044 14.4017 10.2144 14.7417 10.2144ZM18.5117 10.2144H19.5917C19.9317 10.2144 20.1317 10.0044 20.1317 9.6644V8.5944C20.1317 8.2544 19.9317 8.0344 19.5917 8.0344H18.5117C18.1717 8.0344 17.9617 8.2544 17.9617 8.5944V9.6644C17.9617 10.0044 18.1717 10.2144 18.5117 10.2144ZM7.1917 14.0844H8.2717C8.6117 14.0844 8.8217 13.8844 8.8217 13.5444V12.4644C8.8217 12.1144 8.6117 11.9144 8.2717 11.9144H7.1917C6.8517 11.9144 6.6417 12.1144 6.6417 12.4644V13.5444C6.6417 13.8844 6.8517 14.0844 7.1917 14.0844ZM10.9717 14.0844H12.0517C12.3917 14.0844 12.6017 13.8844 12.6017 13.5444V12.4644C12.6017 12.1144 12.3917 11.9144 12.0517 11.9144H10.9717C10.6317 11.9144 10.4217 12.1144 10.4217 12.4644V13.5444C10.4217 13.8844 10.6317 14.0844 10.9717 14.0844ZM14.7417 14.0844H15.8217C16.1617 14.0844 16.3617 13.8844 16.3617 13.5444V12.4644C16.3617 12.1144 16.1617 11.9144 15.8217 11.9144H14.7417C14.4017 11.9144 14.1917 12.1144 14.1917 12.4644V13.5444C14.1917 13.8844 14.4017 14.0844 14.7417 14.0844ZM18.5117 14.0844H19.5917C19.9317 14.0844 20.1317 13.8844 20.1317 13.5444V12.4644C20.1317 12.1144 19.9317 11.9144 19.5917 11.9144H18.5117C18.1717 11.9144 17.9617 12.1144 17.9617 12.4644V13.5444C17.9617 13.8844 18.1717 14.0844 18.5117 14.0844ZM7.8617 23.7044C7.2917 23.7044 7.0117 23.4344 7.0117 22.8644V18.8344C7.0117 18.2544 7.2917 17.9844 7.8617 17.9844H18.9417C19.5017 17.9844 19.7717 18.2544 19.7717 18.8344V22.8644C19.7717 23.4344 19.5017 23.7044 18.9417 23.7044ZM8.6517 20.8344C8.6517 21.3744 9.0717 21.7944 9.6117 21.7944H17.1817C17.7117 21.7944 18.1417 21.3744 18.1417 20.8344C18.1417 20.3044 17.7117 19.8744 17.1817 19.8744H9.6117C9.0717 19.8744 8.6517 20.3044 8.6517 20.8344Z" />
        </svg>
    