
        <svg xmlns="http://www.w3.org/2000/svg" viewBox="0 0 100 100">
            <path d="M3.8217 22.4339H5.0017V23.4339C5.0017 25.2739 5.8817 26.1139 7.6717 26.1139H19.3317C21.1317 26.1139 22.0117 25.2739 22.0117 23.4339V22.4339H23.2017C25.6617 22.4339 27.0217 21.1039 27.0217 18.6439V8.0039C27.0217 5.5339 25.6617 4.2139 23.2017 4.2139H22.1817V3.5839C22.1817 1.1339 20.9617 0.0039 18.6017 0.0039H8.4217C6.1417 0.0039 4.8317 1.1339 4.8317 3.5839V4.2139H3.8217C1.4317 4.2139 0.0017 5.5339 0.0017 8.0039V18.6439C0.0017 21.1039 1.3517 22.4339 3.8217 22.4339ZM7.2217 3.3939C7.2217 2.5939 7.6417 2.1839 8.4417 2.1839H18.5717C19.3817 2.1839 19.7917 2.5939 19.7917 3.3939V4.2139H7.2217ZM19.3317 16.0539H7.6717C5.9417 16.0539 5.0017 16.8839 5.0017 18.7239V20.1239H3.8317C2.9217 20.1239 2.4417 19.6439 2.4417 18.7239V7.9239C2.4417 7.0239 2.9217 6.5239 3.8317 6.5239H23.1917C24.0917 6.5239 24.5717 7.0239 24.5717 7.9239V18.7239C24.5717 19.6439 24.0917 20.1239 23.1917 20.1239H22.0117V18.7239C22.0117 16.8839 21.1317 16.0539 19.3317 16.0539ZM7.4017 10.4839H8.4817C8.8317 10.4839 9.0517 10.2739 9.0517 9.9239V8.8339C9.0517 8.4839 8.8317 8.2739 8.4817 8.2739H7.4017C7.0517 8.2739 6.8317 8.4839 6.8317 8.8339V9.9239C6.8317 10.2739 7.0517 10.4839 7.4017 10.4839ZM11.1217 10.4839H12.2017C12.5517 10.4839 12.7617 10.2739 12.7617 9.9239V8.8339C12.7617 8.4839 12.5517 8.2739 12.2017 8.2739H11.1217C10.7617 8.2739 10.5517 8.4839 10.5517 8.8339V9.9239C10.5517 10.2739 10.7617 10.4839 11.1217 10.4839ZM14.8217 10.4839H15.9117C16.2617 10.4839 16.4717 10.2739 16.4717 9.9239V8.8339C16.4717 8.4839 16.2617 8.2739 15.9117 8.2739H14.8217C14.4717 8.2739 14.2617 8.4839 14.2617 8.8339V9.9239C14.2617 10.2739 14.4717 10.4839 14.8217 10.4839ZM18.5417 10.4839H19.6217C19.9817 10.4839 20.1917 10.2739 20.1917 9.9239V8.8339C20.1917 8.4839 19.9817 8.2739 19.6217 8.2739H18.5417C18.1917 8.2739 17.9717 8.4839 17.9717 8.8339V9.9239C17.9717 10.2739 18.1917 10.4839 18.5417 10.4839ZM7.4017 14.3039H8.4817C8.8317 14.3039 9.0517 14.0939 9.0517 13.7439V12.6639C9.0517 12.3139 8.8317 12.1039 8.4817 12.1039H7.4017C7.0517 12.1039 6.8317 12.3139 6.8317 12.6639V13.7439C6.8317 14.0939 7.0517 14.3039 7.4017 14.3039ZM11.1217 14.3039H12.2017C12.5517 14.3039 12.7617 14.0939 12.7617 13.7439V12.6639C12.7617 12.3139 12.5517 12.1039 12.2017 12.1039H11.1217C10.7617 12.1039 10.5517 12.3139 10.5517 12.6639V13.7439C10.5517 14.0939 10.7617 14.3039 11.1217 14.3039ZM14.8217 14.3039H15.9117C16.2617 14.3039 16.4717 14.0939 16.4717 13.7439V12.6639C16.4717 12.3139 16.2617 12.1039 15.9117 12.1039H14.8217C14.4717 12.1039 14.2617 12.3139 14.2617 12.6639V13.7439C14.2617 14.0939 14.4717 14.3039 14.8217 14.3039ZM18.5417 14.3039H19.6217C19.9817 14.3039 20.1917 14.0939 20.1917 13.7439V12.6639C20.1917 12.3139 19.9817 12.1039 19.6217 12.1039H18.5417C18.1917 12.1039 17.9717 12.3139 17.9717 12.6639V13.7439C17.9717 14.0939 18.1917 14.3039 18.5417 14.3039ZM8.1017 23.8939C7.5817 23.8939 7.3117 23.6339 7.3117 23.1139V19.0539C7.3117 18.5439 7.5817 18.2839 8.1017 18.2839H18.9217C19.4417 18.2839 19.7017 18.5439 19.7017 19.0539V23.1139C19.7017 23.6339 19.4417 23.8939 18.9217 23.8939ZM8.8717 21.0739C8.8717 21.6439 9.3117 22.0939 9.8917 22.0939H17.1417C17.6917 22.0939 18.1517 21.6439 18.1517 21.0739C18.1517 20.5039 17.6917 20.0639 17.1417 20.0639H9.8917C9.3117 20.0639 8.8717 20.5039 8.8717 21.0739Z" />
        </svg>
    