
        <svg xmlns="http://www.w3.org/2000/svg" viewBox="0 0 100 100">
            <path d="M0.5535 20.4352L4.3735 27.2952C4.3535 27.3152 4.3235 27.3352 4.2935 27.3552C3.2535 28.1052 2.6235 28.4452 1.7035 28.4452H1.6035C0.8435 28.4452 0.2135 29.0652 0.2135 29.8252C0.2135 30.5852 0.8435 31.2052 1.6035 31.2052H1.7035C5.7535 31.2052 6.0235 28.7552 7.6935 28.7552C9.3735 28.7552 9.7835 31.2052 13.4135 31.2052C17.0535 31.2052 17.4635 28.7552 19.1435 28.7552C20.8235 28.7552 21.0935 31.2052 25.1335 31.2052H25.2235C26.0035 31.2052 26.6235 30.5852 26.6235 29.8252C26.6235 29.0652 26.0035 28.4452 25.2235 28.4452H25.1335C24.2135 28.4452 23.5835 28.1052 22.5435 27.3552C22.5235 27.3352 22.4835 27.3152 22.4635 27.2952L26.2835 20.4352C27.4535 18.3352 26.7035 16.6052 24.7335 15.7452L23.6935 15.2952L22.4235 6.3052C22.1435 4.2652 21.1435 3.3352 19.1635 3.3352H19.0335V2.2752C19.0335 0.8552 18.1735 -0.0048 16.7535 -0.0048H10.0835C8.6635 -0.0048 7.8035 0.8552 7.8035 2.2752V3.3352H7.6735C5.7135 3.3352 4.7135 4.2852 4.4235 6.3852L3.1435 15.2952L2.1035 15.7452C0.1335 16.6052 -0.6165 18.3352 0.5535 20.4352ZM10.6235 2.8552C10.6235 2.6452 10.7635 2.4952 10.9735 2.4952H15.8635C16.0735 2.4952 16.2135 2.6452 16.2135 2.8552V3.3352H10.6235ZM15.7835 11.8452C15.3235 11.6452 14.5235 11.2152 13.4135 11.2152C12.3135 11.2152 11.5135 11.6452 11.0535 11.8452L6.1835 13.9852L7.2235 6.6552C7.2735 6.3252 7.4035 6.1552 7.7535 6.1552H19.0935C19.4435 6.1552 19.5735 6.3052 19.6235 6.6052L20.6635 13.9852ZM9.0235 10.1952H11.9735C12.5035 10.1952 12.8435 9.8952 12.8435 9.4252V7.9352C12.8435 7.4752 12.5035 7.1552 11.9735 7.1552H9.0235C8.5635 7.1552 8.2535 7.4752 8.2535 7.9352V9.4252C8.2535 9.8952 8.5635 10.1952 9.0235 10.1952ZM14.7535 10.1952H17.7135C18.2435 10.1952 18.5835 9.8952 18.5835 9.4252V7.9352C18.5835 7.4752 18.2435 7.1552 17.7135 7.1552H14.7535C14.2935 7.1552 14.0035 7.4752 14.0035 7.9352V9.4252C14.0035 9.8952 14.2935 10.1952 14.7535 10.1952ZM11.1135 27.3752C10.3335 26.8052 9.2135 25.9952 7.6935 25.9952C7.3635 25.9952 7.0635 26.0252 6.7735 26.0952L3.1335 19.4152C2.7835 18.7452 2.9935 18.4252 3.4035 18.2352L12.2035 14.4152C12.7535 14.1652 13.0135 14.0252 13.4135 14.0252C13.8235 14.0252 14.0835 14.1652 14.6335 14.4152L23.4235 18.2352C23.8435 18.4252 24.0535 18.7452 23.7035 19.4152L20.0735 26.0952C19.7735 26.0252 19.4735 25.9952 19.1435 25.9952C17.6135 25.9952 16.5035 26.8052 15.7235 27.3752C14.8735 27.9952 14.3135 28.4452 13.4135 28.4452C12.5235 28.4452 11.9635 27.9952 11.1135 27.3752Z" />
        </svg>
    