
        <svg xmlns="http://www.w3.org/2000/svg" viewBox="0 0 100 100">
            <path d="M0.0017 0.2944C0.0017 0.4444 0.1317 0.5744 0.2817 0.5744H28.9317C29.1017 0.5744 29.2217 0.4444 29.2217 0.2944C29.2217 0.1244 29.1017 0.0044 28.9317 0.0044H0.2817C0.1317 0.0044 0.0017 0.1244 0.0017 0.2944ZM3.3517 10.9144H20.8117V15.6244C20.8117 15.9244 21.2117 16.0644 21.4417 15.8244L26.2117 10.9844C26.5117 10.6644 26.4517 10.1444 25.8917 10.1444H8.4217V5.4344C8.4217 5.1344 8.0317 4.9944 7.8017 5.2344L3.0217 10.0744C2.7317 10.3944 2.7917 10.9144 3.3517 10.9144ZM0.0017 20.7144C0.0017 20.8844 0.1317 21.0144 0.2817 21.0144H28.9317C29.1017 21.0144 29.2217 20.8844 29.2217 20.7144C29.2217 20.5644 29.1017 20.4344 28.9317 20.4344H0.2817C0.1317 20.4344 0.0017 20.5644 0.0017 20.7144Z" />
        </svg>
    