
        <svg xmlns="http://www.w3.org/2000/svg" viewBox="0 0 100 100">
            <path d="M0.7968 8.8375L11.3268 19.3375C12.9068 20.9175 14.6568 20.9275 16.2768 19.3375L26.7768 8.8375C27.8768 7.7475 27.7968 6.3775 26.7668 5.2975C23.6368 2.0175 18.6968 -0.0025 13.7768 -0.0025C8.8668 -0.0025 3.9568 2.0375 0.8068 5.2975C-0.2232 6.3675 -0.3032 7.7475 0.7968 8.8375ZM2.6268 7.4675C2.3668 7.2175 2.3868 6.9375 2.6268 6.7075C5.2668 4.0475 9.4468 2.2975 13.7468 2.2975C18.0468 2.2975 22.1768 4.0775 24.8668 6.7075C25.0968 6.9375 25.1268 7.2075 24.8668 7.4675L14.7168 17.5875C14.0568 18.2475 13.4268 18.2475 12.7568 17.5875Z" />
        </svg>
    