
        <svg xmlns="http://www.w3.org/2000/svg" viewBox="0 0 100 100">
            <path d="M12.2223 24.4436C18.9723 24.4436 24.4423 18.9736 24.4423 12.2236C24.4423 5.4736 18.9723 0.0036 12.2223 0.0036C5.4723 0.0036 0.0023 5.4736 0.0023 12.2236C0.0023 18.9736 5.4723 24.4436 12.2223 24.4436ZM12.2223 21.7636C6.9523 21.7636 2.6823 17.4936 2.6823 12.2236C2.6823 6.9536 6.9523 2.6836 12.2223 2.6836C17.4923 2.6836 21.7623 6.9536 21.7623 12.2236C21.7623 17.4936 17.4923 21.7636 12.2223 21.7636ZM13.3223 9.0236C14.0723 9.0236 14.6923 8.4036 14.6923 7.6336C14.6923 6.8636 14.0723 6.2436 13.3223 6.2436C12.5523 6.2436 11.9323 6.8636 11.9323 7.6336C11.9323 8.4036 12.5523 9.0236 13.3223 9.0236ZM14.2523 13.3236C14.6523 13.3236 14.9523 13.0236 14.9523 12.6436C14.9523 12.2536 14.6523 11.9536 14.2523 11.9536H12.0323V9.6636C12.0323 8.8736 11.3523 8.3536 10.6123 8.5036L6.7823 9.3036C5.3823 9.5836 5.0023 11.2636 6.0123 12.1736L8.3423 14.2536V17.5036C8.3423 17.8836 8.6523 18.2036 9.0323 18.2036C9.4123 18.2036 9.7223 17.8836 9.7223 17.5036V13.9936C9.7223 13.7436 9.6723 13.6136 9.5123 13.4536L7.7623 11.6436C7.6623 11.5536 7.7123 11.4136 7.8323 11.4036L10.3523 10.9236C10.5723 10.8836 10.6523 10.9536 10.6523 11.1536V12.6436C10.6523 13.0236 10.9723 13.3236 11.3423 13.3236ZM17.7423 15.9536H18.7923C19.1623 15.9536 19.4223 15.7036 19.4223 15.3536V9.6836C19.4223 9.3436 19.1623 9.0836 18.8123 9.0836H17.7223C15.4723 9.0836 14.1123 9.6836 12.6323 11.3836H13.9223C14.9923 10.3636 16.0823 9.9936 17.7223 9.9936H18.5023V15.0336H17.7423C17.5423 15.0336 17.4123 14.9536 17.3423 14.7936L16.7723 13.6636C16.6523 13.4136 16.4023 13.3836 16.2223 13.4436C15.9823 13.5236 15.8123 13.7736 15.9523 14.0736L16.5223 15.2136C16.7623 15.6536 17.2223 15.9536 17.7423 15.9536ZM10.3023 15.5236C10.9523 15.0736 11.4623 14.5036 11.9323 13.8936H11.3423C11.1723 13.8936 10.9923 13.8636 10.8423 13.7836C10.6623 13.9936 10.4923 14.1636 10.3023 14.3336ZM5.7623 16.4836H6.8923C7.1923 16.4836 7.5023 16.4736 7.7723 16.4436V15.5136C7.5023 15.5636 7.2023 15.5836 6.8923 15.5836H5.7623C5.5223 15.5836 5.3123 15.7736 5.3123 16.0436C5.3123 16.2736 5.5223 16.4836 5.7623 16.4836Z" />
        </svg>
    