
        <svg xmlns="http://www.w3.org/2000/svg" viewBox="0 0 100 100">
            <path d="M12.4917 22.7977L16.0817 17.8577L18.2817 21.8977C19.0917 25.6877 19.1717 28.5377 19.1717 28.9777C19.1717 29.8977 19.8717 30.5977 20.7317 30.5977C21.6017 30.5977 22.2617 29.8977 22.2617 29.0177C22.2617 28.8977 22.4617 25.4777 21.2917 21.0277L21.2317 20.7977C19.9017 15.7177 16.8917 6.0777 8.3917 0.4177C7.9117 0.1477 7.4917 -0.0023 6.9917 -0.0023H1.5517C0.6917 -0.0023 0.0017 0.7077 0.0017 1.5477C0.0017 2.4177 0.6917 3.1177 1.5517 3.1177H6.8317C8.1117 4.0177 9.2317 4.9777 10.2517 6.0277C10.3317 6.0777 10.3317 6.1077 10.2617 6.2077L5.9717 13.5477C5.3317 14.6477 6.1217 15.8777 7.3117 15.8777H12.7017L9.8417 21.1377L9.7117 21.3777L5.9417 28.2877C5.5317 29.0577 5.8017 30.0277 6.5617 30.4077C7.2517 30.7777 8.2217 30.6077 8.6717 29.7877ZM4.6017 10.2977C6.2317 10.2977 7.5717 8.9777 7.5717 7.3477C7.5717 5.7177 6.2317 4.3877 4.6017 4.3877C2.9717 4.3877 1.6417 5.7177 1.6417 7.3477C1.6417 8.9777 2.9717 10.2977 4.6017 10.2977ZM9.7717 12.9277L10.5917 11.5077C10.7217 11.3077 10.8517 11.3677 10.9317 11.4677L11.9017 12.9277Z" />
        </svg>
    