
        <svg xmlns="http://www.w3.org/2000/svg" viewBox="0 0 100 100">
            <path d="M2.9494 22.1723H21.4294C23.2694 22.1723 24.3794 20.8723 24.3794 19.2523C24.3794 18.7123 24.2194 18.1523 23.9294 17.6323L14.6994 1.4523C14.1294 0.4823 13.1694 0.0023 12.1894 0.0023C11.2194 0.0023 10.2394 0.4823 9.6794 1.4523L0.4494 17.6323C0.1394 18.1623 -0.0006 18.7123 -0.0006 19.2523C-0.0006 20.8723 1.0994 22.1723 2.9494 22.1723ZM12.4094 7.7723C11.6494 7.7723 11.0494 7.1523 11.0494 6.4223C11.0494 5.6623 11.6494 5.0623 12.4094 5.0623C13.1494 5.0623 13.7594 5.6623 13.7594 6.4223C13.7594 7.1523 13.1494 7.7723 12.4094 7.7723ZM13.8894 18.6523L12.5394 15.9123C12.4794 15.8223 12.4694 15.7523 12.3294 15.5723L11.0394 13.9523C10.5494 13.3523 10.3794 13.0123 10.4394 12.2923L10.5494 10.8823C10.5594 10.7023 10.3094 10.6023 10.1394 10.7723L9.6594 11.1823L9.5194 12.8423C9.4794 13.2623 9.2794 13.4623 8.9194 13.4323C8.5794 13.4023 8.3794 13.1623 8.3994 12.7823L8.5094 11.2623C8.5394 10.8523 8.6494 10.5923 8.9694 10.2723L9.9494 9.3123C10.5694 8.7023 11.0294 8.3623 11.6994 8.3623C12.5694 8.3623 13.1294 9.0123 13.0594 9.9123L12.9094 11.7523C12.8694 12.4223 12.7994 12.8223 12.5494 13.4923L12.5194 13.6523L13.3494 14.8523C13.4694 15.0223 13.6094 15.2423 13.6994 15.4323L15.0094 18.0923C15.4494 18.9523 14.2694 19.4423 13.8894 18.6523ZM16.1094 10.8823C16.4894 10.8823 16.7394 11.1023 16.7394 11.4423C16.7394 11.8023 16.4894 12.0023 16.1094 12.0023H14.7194C14.3394 12.0023 14.1694 11.9423 13.9694 11.7323L13.5394 11.3123L13.6394 9.7923L14.6294 10.8823ZM9.1594 18.8223C8.6594 19.4223 7.6994 18.7223 8.2994 18.0123L10.2094 15.7523L10.5194 14.2523L11.5294 15.5223L11.3794 16.0323C11.3094 16.2523 11.2694 16.3123 11.0994 16.5223Z" />
        </svg>
    