
        <svg xmlns="http://www.w3.org/2000/svg" viewBox="0 0 100 100">
            <path d="M10.8914 22.7211H16.9714C18.5414 22.7211 19.4514 21.7811 19.4514 20.1011V11.7311C19.4514 10.3011 18.8014 9.4211 17.6414 9.1711V6.2311C17.6414 3.1711 19.5814 1.3711 22.0514 1.3711C24.5314 1.3711 26.4714 3.1711 26.4714 6.2311V8.8111C26.4714 9.3311 26.8014 9.6011 27.2014 9.6011C27.5714 9.6011 27.9114 9.3511 27.9114 8.8111V6.3911C27.9114 2.2611 25.2314 0.0011 22.0514 0.0011C18.8814 0.0011 16.1914 2.2611 16.1914 6.3911V9.1011H9.2214C9.1814 9.3711 9.1014 9.6111 9.0014 9.8411L10.4614 10.4811H16.9414C17.5814 10.4811 17.9914 10.9211 17.9914 11.6411V20.1911C17.9914 20.9111 17.5814 21.3511 16.9414 21.3511H10.6414L10.8014 22.0311C10.8614 22.2811 10.9014 22.5111 10.8914 22.7211ZM5.9914 10.4311C7.0814 10.4311 7.9214 9.5711 7.9214 8.5111C7.9214 7.4211 7.0814 6.5511 5.9914 6.5511C4.9314 6.5511 4.0414 7.4211 4.0414 8.5111C4.0414 9.5711 4.9314 10.4311 5.9914 10.4311ZM5.9914 17.2411C6.2514 17.2411 6.4614 17.3911 6.5414 17.7111L7.8714 22.7911C8.1714 23.9111 9.6814 23.5211 9.5114 22.5111C9.4414 22.0511 8.3114 17.7411 8.1414 16.7811C8.0314 16.1011 8.0714 14.3511 8.0714 13.3911C8.0714 13.1811 8.2614 13.0411 8.4814 13.1411L10.7914 14.0711C11.3814 14.3211 11.8014 14.0411 11.9214 13.6511C12.0614 13.2811 11.8914 12.8011 11.3214 12.5711L8.9114 11.5811C8.3214 11.3311 7.7614 11.2011 7.1514 11.1311C6.7814 11.2811 6.4114 11.3811 5.9914 11.3811C5.5714 11.3811 5.1814 11.2811 4.8214 11.1311C4.2114 11.2011 3.6414 11.3311 3.0614 11.5811L0.6414 12.5711C0.0714 12.8011 -0.0886 13.2811 0.0514 13.6511C0.1714 14.0411 0.5914 14.3211 1.1714 14.0711L3.4814 13.1411C3.7014 13.0411 3.8914 13.1811 3.8914 13.3911C3.8914 14.3511 3.9414 16.1011 3.8214 16.7811C3.6614 17.7411 2.5214 22.0511 2.4514 22.5111C2.2814 23.5211 3.8014 23.9111 4.0914 22.7911L5.4314 17.7111C5.5114 17.3911 5.7214 17.2411 5.9914 17.2411Z" />
        </svg>
    