
        <svg xmlns="http://www.w3.org/2000/svg" viewBox="0 0 100 100">
            <path d="M11.4923 22.977C17.8123 22.977 22.9823 17.827 22.9823 11.497C22.9823 5.167 17.8123 -0.003 11.4923 -0.003C5.1723 -0.003 0.0023 5.167 0.0023 11.497C0.0023 17.827 5.1723 22.977 11.4923 22.977ZM13.6623 7.707C12.8923 7.707 12.2623 7.077 12.2623 6.317C12.2623 5.527 12.8923 4.907 13.6623 4.907C14.4423 4.907 15.0623 5.527 15.0623 6.317C15.0623 7.077 14.4423 7.707 13.6623 7.707ZM5.4823 10.417C5.2223 10.147 5.2123 9.737 5.4823 9.467L7.4723 7.477C7.6023 7.347 7.7623 7.287 7.9423 7.287H10.8523C11.2923 7.287 11.7223 7.467 12.0223 7.767L16.7123 12.467C16.9723 12.737 16.9723 13.137 16.7123 13.407C16.4523 13.677 16.0323 13.667 15.7723 13.407L12.3323 9.947C12.1923 9.817 12.0123 9.817 11.8723 9.947L10.5023 11.307L12.7023 11.617C13.0923 11.667 13.3023 12.047 13.2423 12.377L12.5723 16.027C12.4123 16.917 11.1123 16.707 11.2723 15.847L11.8023 12.937H8.6523C7.2823 12.937 6.8223 11.457 7.6923 10.597L9.4823 8.817C9.5623 8.717 9.5123 8.617 9.3823 8.617H8.2223L6.4223 10.417C6.1623 10.677 5.7423 10.677 5.4823 10.417ZM4.0623 15.917C4.0623 15.567 4.3523 15.257 4.7323 15.257H7.3323L7.5123 13.077C7.8123 13.287 8.2023 13.407 8.6523 13.407H9.0823L8.6023 15.997C8.5423 16.337 8.2823 16.577 7.9423 16.577H4.7323C4.3523 16.577 4.0623 16.277 4.0623 15.917ZM15.9723 15.827C15.9723 15.407 16.2923 15.067 16.7223 15.067H18.1923V14.617C18.1923 14.377 18.0223 14.227 17.7923 14.227H17.0523C16.9323 14.227 16.8423 14.147 16.8423 14.017C16.8423 13.897 16.9323 13.817 17.0523 13.817H17.7923C18.2723 13.817 18.6023 14.137 18.6023 14.617V15.067H18.7123C19.1323 15.067 19.4623 15.407 19.4623 15.827C19.4623 16.257 19.1323 16.577 18.7123 16.577H16.7223C16.2923 16.577 15.9723 16.257 15.9723 15.827Z" />
        </svg>
    