
        <svg xmlns="http://www.w3.org/2000/svg" viewBox="0 0 100 100">
            <path d="M3.34 6.7183C5.2 6.7183 6.69 5.1983 6.69 3.3783C6.69 1.5083 5.2 -0.0017 3.34 -0.0017C1.48 -0.0017 0 1.5083 0 3.3783C0 5.1683 1.48 6.7183 3.34 6.7183ZM18.93 12.3083C19.57 12.3083 20.07 11.7883 20.07 11.1583V5.8283H22.1C23.11 5.8283 23.55 4.8183 22.88 4.0683L19.69 0.4783C19.24 -0.0117 18.64 -0.0217 18.19 0.4783L14.99 4.0683C14.36 4.7783 14.71 5.8283 15.76 5.8283H17.78V11.1583C17.78 11.7883 18.29 12.3083 18.93 12.3083ZM23.14 24.3683C23.75 23.7583 23.84 22.7383 23.03 21.8983L17.6 16.2683C16.38 15.0083 15.12 14.8283 13.61 15.3883L10.73 16.4283L7.32 10.2283C6.27 8.3083 4.46 7.5983 2.73 8.5583C0.94 9.5283 0.6 11.4383 1.64 13.3483L4.17 17.9483C5.38 20.1483 8.05 21.1183 10.68 20.1183L14.67 18.6183C14.95 18.5083 15.09 18.5483 15.27 18.7383L20.52 24.1683C21.34 25.0083 22.46 25.0683 23.14 24.3683Z" />
        </svg>
    