
        <svg xmlns="http://www.w3.org/2000/svg" viewBox="0 0 100 100">
            <path d="M11.7523 23.5048C18.2423 23.5048 23.5123 18.2448 23.5123 11.7548C23.5123 5.2648 18.2423 0.0048 11.7523 0.0048C5.2623 0.0048 0.0023 5.2648 0.0023 11.7548C0.0023 18.2448 5.2623 23.5048 11.7523 23.5048ZM11.7523 21.9848C6.0923 21.9848 1.5223 17.4148 1.5223 11.7548C1.5223 6.0948 6.0923 1.5148 11.7523 1.5148C17.4123 1.5148 21.9923 6.0948 21.9923 11.7548C21.9923 17.4148 17.4123 21.9848 11.7523 21.9848ZM11.7523 6.8048C12.5123 6.8048 13.1523 6.1848 13.1523 5.4048C13.1523 4.6248 12.5123 3.9948 11.7523 3.9948C10.9723 3.9948 10.3523 4.6248 10.3523 5.4048C10.3523 6.1848 10.9723 6.8048 11.7523 6.8048ZM8.0123 10.1648C7.2423 11.2148 7.9223 12.6548 9.4323 12.4348L11.8023 12.0748L10.8623 14.8748C10.5623 15.7648 11.8323 16.1448 12.1023 15.2848L13.3623 11.5348C13.5123 11.0748 13.2223 10.6448 12.7023 10.6448H10.3623L11.5923 9.0048C11.7023 8.8348 11.7923 8.8248 11.9523 8.8248H16.7923C17.1323 8.8248 17.4423 8.5348 17.4423 8.1748C17.4423 7.8148 17.1423 7.5248 16.7923 7.5248H10.6423C10.1823 7.5248 9.7423 7.7548 9.4523 8.1448ZM8.5923 18.7648C8.5923 19.0348 8.7623 19.1948 9.0423 19.1948H13.9923C14.2623 19.1948 14.4523 19.0348 14.4523 18.7648V16.7148C14.4523 16.4548 14.2623 16.2748 13.9923 16.2748H9.0423C8.7623 16.2748 8.5923 16.4548 8.5923 16.7148Z" />
        </svg>
    