
        <svg xmlns="http://www.w3.org/2000/svg" viewBox="0 0 100 100">
            <path d="M11.3523 22.7064C17.6023 22.7064 22.7123 17.6064 22.7123 11.3564C22.7123 5.1064 17.6023 -0.0036 11.3523 -0.0036C5.1123 -0.0036 0.0023 5.1064 0.0023 11.3564C0.0023 17.6064 5.1123 22.7064 11.3523 22.7064ZM11.3523 5.7064C10.5823 5.7064 9.9523 5.0764 9.9523 4.2964C9.9523 3.5164 10.5823 2.8964 11.3523 2.8964C12.1423 2.8964 12.7623 3.5164 12.7623 4.2964C12.7623 5.0764 12.1423 5.7064 11.3523 5.7064ZM12.2023 16.2864C11.7823 16.1864 11.6623 15.8164 11.7623 15.4964L12.4923 13.0464L9.7823 12.4064C8.7423 12.1764 8.4223 11.5464 8.5423 10.6164L8.8623 8.2364C8.8823 8.1464 8.7823 8.0764 8.6923 8.1164L7.7823 8.6964V10.9364C7.7823 11.2964 7.5023 11.5864 7.1523 11.5864C6.7823 11.5864 6.4823 11.2964 6.4823 10.9364V8.3464C6.4823 8.1064 6.6123 7.8964 6.7823 7.7764L8.8823 6.4764C9.2923 6.2264 9.8323 6.1064 10.4923 6.2064L10.8623 6.2664C11.4623 6.3664 11.9523 6.7764 12.2223 7.3164L13.0623 8.9864H15.2623C15.6223 8.9864 15.9023 9.2964 15.9023 9.6364C15.9023 10.0064 15.6223 10.2764 15.2623 10.2764H12.6523C12.4223 10.2764 12.2123 10.1564 12.0923 9.9364L11.5423 8.8664C11.4723 8.7564 11.3123 8.7764 11.2923 8.9164L10.9823 11.0764L13.5223 11.9564C13.8723 12.0664 14.0423 12.4064 13.9323 12.7364L12.9823 15.8564C12.8623 16.2664 12.4423 16.3564 12.2023 16.2864ZM7.4323 18.6364C7.1123 18.4264 7.0523 18.0264 7.2423 17.7164L9.1023 14.9564L9.2323 12.9264C9.3523 12.9764 9.5023 13.0064 9.6523 13.0464L10.6523 13.2764L10.4023 15.1964C10.3823 15.3664 10.3223 15.4664 10.2423 15.5964L8.3223 18.4364C8.0823 18.7864 7.6623 18.7864 7.4323 18.6364ZM9.4923 19.4964C9.3723 19.4964 9.2723 19.3964 9.2723 19.2764C9.2723 19.1764 9.3623 19.0564 9.4923 19.0564H11.6323V17.6764C11.6323 17.5464 11.7623 17.4564 11.8623 17.4564H14.0023V16.0664C14.0023 15.9464 14.1123 15.8464 14.2223 15.8464H16.3923V14.4464C16.3923 14.3464 16.4723 14.2264 16.6123 14.2264H18.6223C18.7523 14.2264 18.8323 14.3464 18.8323 14.4464C18.8323 14.5664 18.7423 14.6764 18.6223 14.6764H16.8323V16.0664C16.8323 16.1564 16.7423 16.2764 16.6123 16.2764H14.4523V17.6764C14.4523 17.7764 14.3323 17.8964 14.2223 17.8964H12.0823V19.2764C12.0823 19.3964 11.9723 19.4964 11.8623 19.4964Z" />
        </svg>
    