
        <svg xmlns="http://www.w3.org/2000/svg" viewBox="0 0 100 100">
            <path d="M12.6023 25.1986C19.5623 25.1986 25.2023 19.5586 25.2023 12.5986C25.2023 5.6386 19.5623 -0.0014 12.6023 -0.0014C5.6523 -0.0014 0.0023 5.6386 0.0023 12.5986C0.0023 19.5586 5.6523 25.1986 12.6023 25.1986ZM9.6423 9.1886C8.9423 9.1886 8.3423 8.5986 8.3423 7.8886C8.3423 7.1586 8.9323 6.5886 9.6423 6.5886C10.3723 6.5886 10.9423 7.1586 10.9423 7.8886C10.9423 8.5986 10.3523 9.1886 9.6423 9.1886ZM15.5123 9.1886C14.8123 9.1886 14.2223 8.5986 14.2223 7.8886C14.2223 7.1586 14.8023 6.5886 15.5123 6.5886C16.2423 6.5886 16.8323 7.1586 16.8323 7.8886C16.8323 8.5986 16.2323 9.1886 15.5123 9.1886ZM12.5823 10.8086C12.1723 10.7786 11.6923 10.8186 11.4123 10.8586C11.1723 10.9086 11.0723 11.0286 11.0623 11.2886C11.0623 11.7086 11.0623 13.1486 11.1523 13.7886C11.2623 14.4486 12.0323 17.6286 12.0423 17.7586C12.1923 18.1786 11.8923 18.5986 11.4523 18.5986C11.1223 18.5986 10.8823 18.3986 10.7923 18.0086C10.6423 17.3586 10.0923 15.1686 9.9223 14.6486C9.8223 14.3186 9.7623 14.2386 9.6423 14.2386C9.5523 14.2386 9.5023 14.3086 9.4023 14.6586C9.2123 15.1786 8.6723 17.3786 8.5123 18.0086C8.4023 18.4086 8.1823 18.5986 7.8323 18.5986C7.3923 18.5986 7.1023 18.1686 7.2423 17.7386C7.2623 17.6286 8.0323 14.4486 8.1323 13.7886C8.2523 13.1486 8.2623 11.7086 8.2523 11.2586C8.2423 11.0286 8.1323 10.8886 7.9723 10.8586C7.7223 10.8086 5.7423 10.5486 5.4423 10.4786C5.1523 10.4186 4.9423 10.1486 4.9423 9.8286C4.9423 9.4586 5.2123 9.1786 5.5523 9.1786C5.6323 9.1786 5.7323 9.1886 5.8323 9.2386C6.6723 9.3786 8.4223 9.5186 9.6523 9.5586C10.7023 9.5786 11.8823 9.6186 12.6223 9.6186C13.3523 9.6186 14.4823 9.5786 15.5023 9.5586C16.7723 9.4886 18.5023 9.3586 19.3523 9.2086C19.4223 9.1886 19.5223 9.1786 19.6123 9.1786C19.9423 9.1786 20.2223 9.4686 20.2223 9.8286C20.2223 10.1286 20.0623 10.3786 19.7623 10.4786C19.4323 10.5986 17.4423 10.7786 17.2023 10.8486C17.0323 10.8786 16.9323 11.0286 16.9323 11.2586C16.9323 11.7086 16.9223 13.1486 17.0323 13.7886C17.1323 14.4486 17.8923 17.6286 17.9223 17.7586C18.0623 18.1686 17.7623 18.5986 17.3323 18.5986C16.9823 18.5986 16.7623 18.3986 16.6623 18.0086C16.5123 17.3586 15.9623 15.1686 15.7823 14.6486C15.6923 14.3186 15.6423 14.2386 15.5123 14.2386C15.4223 14.2386 15.3723 14.2986 15.2623 14.6586C15.0823 15.1786 14.5523 17.3786 14.3823 18.0086C14.2723 18.3986 14.0523 18.5986 13.7123 18.5986C13.2623 18.5986 12.9723 18.1786 13.1023 17.7386C13.1323 17.6286 13.9023 14.4486 14.0023 13.7886C14.1123 13.1486 14.1323 11.7086 14.1123 11.2886C14.1123 11.0386 14.0123 10.9086 13.7723 10.8586C13.5023 10.8186 13.0623 10.8086 12.5823 10.8086Z" />
        </svg>
    