
        <svg xmlns="http://www.w3.org/2000/svg" viewBox="0 0 100 100">
            <path d="M11.9523 23.9041C18.5523 23.9041 23.9023 18.5341 23.9023 11.9541C23.9023 5.3541 18.5523 0.0041 11.9523 0.0041C5.3623 0.0041 0.0023 5.3541 0.0023 11.9541C0.0023 18.5341 5.3623 23.9041 11.9523 23.9041ZM10.6123 9.9141L11.2923 7.5341C11.3323 7.3941 11.4223 7.2741 11.5223 7.1941V6.1141C11.1523 5.6641 10.7923 4.9641 10.7923 4.4341C10.7923 3.7641 11.2623 3.2841 11.9323 3.2841C12.6023 3.2841 13.0523 3.7641 13.0523 4.4341C13.0523 4.9141 12.7023 5.5941 12.3523 6.0741V7.2041C12.5523 7.3741 12.6423 7.6441 12.5723 7.9241L12.3523 8.6941V9.4341H14.6323C15.7723 9.4341 16.6723 10.3441 16.6723 11.4741V14.1841C16.6723 14.5541 16.3823 14.8641 15.9923 14.8641H13.8123L15.1023 16.0541C15.3423 16.2541 15.3723 16.5841 15.2323 16.8841L13.5623 20.2641C13.3723 20.6241 12.9523 20.7041 12.6423 20.5541C12.3023 20.3741 12.1723 19.9641 12.3423 19.6441L13.7823 16.7541L11.3123 14.9541C10.2423 14.1641 10.3623 12.5641 11.5223 11.9341V10.7741H11.2423C10.7423 10.7741 10.4923 10.3641 10.6123 9.9141ZM17.2823 9.7141C16.4623 9.7141 15.8223 9.0841 15.8223 8.2641C15.8223 7.4541 16.4623 6.8041 17.2823 6.8041C18.0723 6.8041 18.7423 7.4541 18.7423 8.2641C18.7423 9.0841 18.0723 9.7141 17.2823 9.7141ZM12.3523 11.5041L13.6923 10.8241C13.7123 10.8141 13.7023 10.7741 13.6623 10.7741H12.3523ZM13.8723 13.5341H15.3523V12.9741C15.3523 12.9041 15.2823 12.8541 15.2223 12.8741ZM5.6523 17.2341C5.6523 16.8541 5.9523 16.5341 6.3423 16.5341H9.7523L10.3323 14.7641C10.4523 14.9841 10.6623 15.2141 10.9523 15.4241L11.6623 15.9141L10.8623 17.5341C10.7323 17.7641 10.4923 17.9141 10.2323 17.9141H6.3423C5.9523 17.9141 5.6523 17.6141 5.6523 17.2341Z" />
        </svg>
    