
        <svg xmlns="http://www.w3.org/2000/svg" viewBox="0 0 100 100">
            <path d="M2.1017 31.0288C2.9517 31.0288 3.6217 30.3788 3.6217 29.5388V23.7087L6.6717 20.4688C6.8117 20.3088 7.0317 20.3388 7.1417 20.4988L10.1617 24.5188L12.9717 30.1088C13.9217 32.0188 16.6217 30.6188 15.7117 28.8188L9.9017 17.1688C9.3917 16.1587 9.1317 14.7988 9.0017 13.3988C8.9917 13.0788 9.0217 13.0588 9.2717 13.1688L11.4817 14.2988L13.5717 18.4688C14.4717 20.2888 17.2517 19.0388 16.2817 17.0988L13.9717 12.5087C13.8117 12.2088 13.5817 11.9688 13.2917 11.8088L9.9817 10.1588C8.9917 9.6588 7.9317 9.4488 7.0217 9.2188C5.9617 8.9688 5.0817 8.6688 4.5117 7.8288L3.0517 5.7087V1.4887C3.0517 0.6687 2.3417 -0.0012 1.5217 -0.0012C0.6917 -0.0012 0.0017 0.6687 0.0017 1.4887V6.1887C0.0017 6.5287 0.1017 6.7688 0.2717 7.0388L2.9217 10.8387C3.1417 11.1588 3.2417 11.3588 3.2917 11.8488C3.4017 13.2088 3.6817 15.6988 4.2217 17.5688L0.8917 22.2188C0.6717 22.5088 0.6017 22.8188 0.6017 23.1088V29.5388C0.6017 30.3788 1.2517 31.0288 2.1017 31.0288ZM8.0617 8.1187C9.6917 8.1187 11.0117 6.7987 11.0117 5.1687C11.0117 3.5388 9.6917 2.1988 8.0617 2.1988C6.4317 2.1988 5.1017 3.5388 5.1017 5.1687C5.1017 6.7987 6.4317 8.1187 8.0617 8.1187Z" />
        </svg>
    