
        <svg xmlns="http://www.w3.org/2000/svg" viewBox="0 0 100 100">
            <path d="M11.7523 23.5048C18.2323 23.5048 23.5123 18.2348 23.5123 11.7548C23.5123 5.2748 18.2323 0.0048 11.7523 0.0048C5.2723 0.0048 0.0023 5.2748 0.0023 11.7548C0.0023 18.2348 5.2723 23.5048 11.7523 23.5048ZM7.3123 14.1648V9.5148C7.3123 5.3048 8.8823 2.9048 11.7423 2.9048C14.6023 2.9048 16.1823 5.3048 16.1823 9.5148V14.1648C16.1823 14.4148 16.0223 14.6848 15.7623 14.7648C15.4323 14.8748 15.0823 14.6948 14.9523 14.3548C14.7523 13.7648 14.2823 12.4548 13.4923 10.9548C13.4423 10.8848 13.3323 10.9148 13.3323 10.9848V20.1048C13.3323 20.4448 13.0423 20.7448 12.7123 20.7448C12.3623 20.7448 12.0723 20.4448 12.0723 20.1048V16.7348L11.7423 14.1648L11.4223 16.7348V20.1048C11.4223 20.4448 11.1223 20.7448 10.7823 20.7448C10.4523 20.7448 10.1523 20.4448 10.1523 20.1048V10.9848C10.1523 10.9148 10.0523 10.8848 10.0123 10.9548C9.2123 12.4548 8.7423 13.7648 8.5423 14.3548C8.4123 14.6948 8.0623 14.8748 7.7323 14.7648C7.4723 14.6848 7.3123 14.4148 7.3123 14.1648ZM8.0123 12.2148C8.4523 11.1648 9.1023 9.7948 9.8523 8.9648C10.1523 8.6348 10.5723 8.4348 11.0423 8.4348H12.4523C12.9223 8.4348 13.3523 8.6348 13.6423 8.9648C14.3923 9.7948 15.0423 11.1648 15.4823 12.2148V9.5148C15.4823 5.7548 14.1523 3.6048 11.7423 3.6048C9.3423 3.6048 8.0123 5.7548 8.0123 9.5148ZM11.7423 7.7148C10.9423 7.7148 10.3123 7.0648 10.3123 6.2848C10.3123 5.4948 10.9423 4.8548 11.7423 4.8548C12.5323 4.8548 13.1723 5.4948 13.1723 6.2848C13.1723 7.0648 12.5323 7.7148 11.7423 7.7148Z" />
        </svg>
    