
        <svg xmlns="http://www.w3.org/2000/svg" viewBox="0 0 100 100">
            <path d="M12.3723 24.7459C19.2023 24.7459 24.7523 19.2059 24.7523 12.3759C24.7523 5.5459 19.2023 -0.0041 12.3723 -0.0041C5.5423 -0.0041 0.0023 5.5459 0.0023 12.3759C0.0023 19.2059 5.5423 24.7459 12.3723 24.7459ZM12.3723 21.6659C7.2423 21.6659 3.0823 17.5059 3.0823 12.3759C3.0823 7.2259 7.2423 3.0859 12.3723 3.0859C17.5223 3.0859 21.6723 7.2259 21.6723 12.3759C21.6723 17.5059 17.5223 21.6659 12.3723 21.6659ZM10.2323 16.1559C10.5223 16.3759 10.9523 16.2959 11.1723 16.0059L12.5723 14.0459L13.7823 14.2659L12.5123 16.1559C12.3023 16.4659 12.3823 16.9059 12.7123 17.0959C13.0923 17.3159 13.4523 17.2059 13.6423 16.9059L15.4323 14.2159C15.6923 13.8159 15.5523 13.2159 15.0023 13.0759L12.5323 12.4959C12.3323 12.4459 12.2723 12.2859 12.3723 12.1059L13.4023 10.5459C13.4623 10.4759 13.5723 10.4559 13.6523 10.5159L15.1623 11.5559C15.2423 11.6059 15.3323 11.6359 15.4223 11.6559L18.8123 12.2659C19.1323 12.3259 19.5223 12.1259 19.5923 11.7159C19.6523 11.3659 19.4223 11.0159 19.0423 10.9459L15.8123 10.3459L10.8623 6.9859L12.2323 5.9959C12.5523 5.7759 12.6223 5.3659 12.4023 5.0659C12.1923 4.7559 11.7523 4.6759 11.4623 4.8959L9.3023 6.4359C8.9223 6.7159 8.9223 7.2759 9.3123 7.5559L11.1423 8.7959C11.2223 8.8559 11.2523 8.9659 11.1923 9.0359L9.6523 11.2659C9.0023 12.2259 9.4123 13.5459 10.7123 13.7459L11.0723 13.8059L10.0823 15.2059C9.8523 15.5159 9.9123 15.9359 10.2323 16.1559ZM14.4723 8.3359C15.2323 8.3359 15.8523 7.7059 15.8523 6.9559C15.8523 6.2059 15.2323 5.5859 14.4723 5.5859C13.7223 5.5859 13.1023 6.2059 13.1023 6.9559C13.1023 7.7059 13.7223 8.3359 14.4723 8.3359ZM5.7023 17.1059C6.2023 17.1059 6.9223 16.9259 7.5923 16.5159C9.9023 17.9059 12.8823 19.0059 16.0923 19.4159C16.4423 19.4659 16.6423 19.2159 16.6423 18.9759C16.6423 18.7859 16.5123 18.6059 16.2323 18.5759C12.1723 18.0859 8.2423 16.2759 5.9023 14.2059C5.6923 14.0159 5.4523 14.0659 5.3123 14.2159C5.1523 14.3759 5.1123 14.6559 5.3423 14.8759C5.6523 15.1359 5.9723 15.3959 6.3323 15.6659C6.1023 15.9259 5.8923 16.0759 5.5123 16.2859C5.2723 16.4259 5.2023 16.6559 5.2723 16.8259C5.3223 16.9759 5.4823 17.1059 5.7023 17.1059Z" />
        </svg>
    