
        <svg xmlns="http://www.w3.org/2000/svg" viewBox="0 0 100 100">
            <path d="M11.3523 22.7064C17.6323 22.7064 22.7123 17.6264 22.7123 11.3564C22.7123 5.0764 17.6323 -0.0036 11.3523 -0.0036C5.0823 -0.0036 0.0023 5.0764 0.0023 11.3564C0.0023 17.6264 5.0823 22.7064 11.3523 22.7064ZM11.3523 22.1364C5.3923 22.1364 0.5723 17.3164 0.5723 11.3564C0.5723 5.3864 5.3923 0.5764 11.3523 0.5764C17.3223 0.5764 22.1323 5.3864 22.1323 11.3564C22.1323 17.3164 17.3223 22.1364 11.3523 22.1364ZM11.7823 6.6464C12.5623 6.6464 13.1723 6.0264 13.1723 5.2464C13.1723 4.4864 12.5623 3.8564 11.7823 3.8564C11.0123 3.8564 10.3923 4.4864 10.3923 5.2464C10.3923 6.0264 11.0123 6.6464 11.7823 6.6464ZM6.7523 17.2764C6.4023 17.6264 6.4823 18.0564 6.7423 18.2964C6.9823 18.5064 7.3723 18.5464 7.7023 18.2264L10.1623 15.7464C10.2023 15.7064 10.2323 15.6864 10.2623 15.5964L11.5423 13.2064C11.6623 12.9864 12.0423 12.8864 12.3523 13.1164L15.1923 15.2964V18.1164C15.1923 18.5664 15.4523 18.8364 15.8623 18.8364C16.2623 18.8364 16.5223 18.5664 16.5223 18.1164V14.9664C16.5223 14.7664 16.4623 14.6064 16.2823 14.4364L13.1823 11.7864V8.8864C13.1823 8.7164 13.2923 8.6064 13.4923 8.5764L18.0323 7.8864C18.3823 7.8264 18.6323 7.4764 18.5823 7.1264C18.5323 6.7464 18.1923 6.4964 17.8223 6.5464L8.1823 8.0064V6.4464C8.5823 6.2764 8.9623 6.0264 9.2323 5.6764C9.3323 5.5264 9.3323 5.3864 9.2223 5.2464C8.6923 4.5964 7.7923 4.2264 7.0223 4.2264C6.2623 4.2264 5.3423 4.5964 4.8323 5.2464C4.7223 5.3864 4.7223 5.5264 4.8323 5.6764C5.3123 6.2964 6.1323 6.6364 6.8523 6.6764V8.7964C6.8523 9.2064 7.2023 9.5064 7.6123 9.4464L9.8323 9.1064C10.0323 9.0864 10.1823 9.1964 10.1823 9.4064V12.0264L9.1123 14.9264Z" />
        </svg>
    