
        <svg xmlns="http://www.w3.org/2000/svg" viewBox="0 0 100 100">
            <path d="M2.5836 26.6741C3.2036 26.7741 3.7636 26.3941 3.8936 25.7441L4.9236 20.1441L9.3336 17.7441C9.4336 17.6841 9.5436 17.7141 9.5736 17.8141L11.7936 23.1541C11.9236 23.4541 12.1336 23.6441 12.3736 23.7741L17.3336 26.5441C17.9636 26.8941 18.6236 26.6041 18.8936 26.1141C19.1936 25.5541 18.9936 24.8441 18.4436 24.5441L13.8136 21.9841L10.7036 9.4641C10.5136 8.7141 9.8536 8.1841 9.0536 8.1841H2.3436L5.4836 1.5041C5.9236 0.5941 5.2736 0.0041 4.6236 0.0041C4.2436 0.0041 3.8736 0.2041 3.6936 0.6541L0.0736 10.0741C-0.0764 10.4841 0.0136 10.9341 0.3036 11.2241L3.1036 14.0541C3.5436 14.4741 4.2636 14.4741 4.7036 14.0541L5.9436 12.7941C6.1036 12.6341 6.3536 12.6341 6.4236 12.8741L7.1036 15.5741L3.2136 18.4841C2.9436 18.6841 2.8236 19.0041 2.7636 19.3241L1.6636 25.3441C1.5636 25.9441 1.9736 26.5541 2.5836 26.6741ZM8.6436 6.8541C9.9536 6.8541 11.0036 5.8041 11.0036 4.4841C11.0036 3.1741 9.9536 2.1241 8.6436 2.1241C7.3236 2.1241 6.2736 3.1741 6.2736 4.4841C6.2736 5.8041 7.3236 6.8541 8.6436 6.8541ZM5.0636 10.4441L3.9036 11.6141L2.7336 10.4441Z" />
        </svg>
    