
        <svg xmlns="http://www.w3.org/2000/svg" viewBox="0 0 100 100">
            <path d="M21.3117 4.8006C22.6317 4.8006 23.7117 3.7306 23.7117 2.3906C23.7117 1.0806 22.6317 0.0006 21.3117 0.0006C19.9817 0.0006 18.9017 1.0806 18.9017 2.3906C18.9017 3.7306 19.9817 4.8006 21.3117 4.8006ZM13.3217 16.7706C13.9317 16.7706 14.4217 16.2906 14.4217 15.6806V10.1506C14.4217 9.8906 14.3317 9.6406 14.1217 9.4106L11.2417 6.2006C11.0717 6.0006 11.1917 5.7106 11.4717 5.7106H14.9917C15.4117 5.7106 15.5517 6.0106 15.5517 6.3006V9.0306C15.5517 9.6406 16.0417 10.1406 16.6517 10.1406H21.0817C21.6817 10.1406 22.1617 9.6406 22.1617 9.0306C22.1617 8.4406 21.6817 7.9306 21.0817 7.9306H17.7417V4.0706C17.7417 2.8406 16.7717 1.8606 15.5417 1.8606H10.1517C9.0217 1.8606 8.0417 2.5306 7.6017 3.5506C7.1717 4.6006 7.4017 5.7806 8.1917 6.5606L12.2317 10.6206V15.6806C12.2317 16.2906 12.7217 16.7706 13.3217 16.7706ZM5.5917 20.7306C8.7517 20.7306 11.2117 18.2906 11.2117 15.1306C11.2117 11.9806 8.7517 9.5006 5.5917 9.5006C2.4417 9.5006 0.0017 11.9806 0.0017 15.1306C0.0017 18.2906 2.4417 20.7306 5.5917 20.7306ZM5.5917 19.9106C2.9617 19.9106 0.8117 17.7606 0.8117 15.1306C0.8117 12.4906 2.9617 10.3406 5.5917 10.3406C8.2217 10.3406 10.3917 12.4906 10.3917 15.1306C10.3917 17.7606 8.2217 19.9106 5.5917 19.9106ZM24.2417 11.5806C25.1817 12.4406 25.8417 13.7106 25.8417 15.1306C25.8417 17.7606 23.6817 19.9106 21.0617 19.9106C18.4217 19.9106 16.2617 17.7606 16.2617 15.1306C16.2617 14.4706 16.4017 13.8006 16.6517 13.2306C16.7917 12.8806 16.7117 12.6806 16.4617 12.5706C16.2417 12.4806 16.0617 12.5506 15.9417 12.8306C15.6217 13.5706 15.4417 14.3006 15.4417 15.1306C15.4417 18.2906 17.8817 20.7306 21.0617 20.7306C24.2117 20.7306 26.6617 18.2906 26.6617 15.1306C26.6617 13.4206 25.9317 11.9606 24.7417 10.9106C24.4917 10.7106 24.2817 10.7206 24.1017 10.9106C23.9317 11.1006 23.9517 11.3206 24.2417 11.5806Z" />
        </svg>
    