
        <svg xmlns="http://www.w3.org/2000/svg" viewBox="0 0 100 100">
            <path d="M12.1023 24.2064C18.7823 24.2064 24.2123 18.7864 24.2123 12.1064C24.2123 5.4264 18.7823 -0.0036 12.1023 -0.0036C5.4223 -0.0036 0.0023 5.4264 0.0023 12.1064C0.0023 18.7864 5.4223 24.2064 12.1023 24.2064ZM13.9423 7.6964C13.1523 7.6964 12.4923 7.0264 12.4923 6.2364C12.4923 5.4364 13.1523 4.7764 13.9423 4.7764C14.7423 4.7764 15.3823 5.4364 15.3823 6.2364C15.3823 7.0264 14.7423 7.6964 13.9423 7.6964ZM11.6823 13.4064C11.1123 13.0864 10.3723 12.7764 10.7023 11.6464L11.2423 9.7664C11.3123 9.5364 11.1123 9.3964 10.9223 9.4064L10.0123 9.4664L9.7423 11.3764C9.6723 11.7864 9.4223 12.0164 9.0623 11.9764C8.6823 11.9264 8.4723 11.6364 8.5323 11.2264L8.8323 8.8964C8.8923 8.5064 9.1523 8.2464 9.5323 8.2264L11.8223 8.0764C13.0323 7.9764 13.7823 8.3064 14.3823 9.1264L15.5023 10.6864L17.1323 9.9564C17.5123 9.7864 17.8323 9.8864 18.0023 10.2264C18.1623 10.5664 18.0223 10.9064 17.6323 11.0864L15.5723 12.0164C15.2823 12.1264 14.9523 12.0464 14.7923 11.7864L14.0523 10.7364C13.9323 10.5364 13.6623 10.5564 13.6023 10.7964L13.1123 12.4764L15.5723 14.0864C15.9523 14.3364 16.0123 14.9064 15.6823 15.1764L13.4223 17.0964C13.0523 17.4164 12.6523 17.3664 12.4323 17.1064C12.2123 16.8664 12.2223 16.4664 12.5623 16.1764L14.1523 14.7964ZM7.2923 19.0664C7.0123 18.8164 6.9523 18.3764 7.2923 18.0464L9.5023 15.8564L10.2923 13.0764C10.5323 13.4164 10.9323 13.6664 11.3823 13.9264L11.6323 14.0664L10.7223 16.3564C10.6123 16.6564 10.5723 16.6764 10.3823 16.8764L8.2623 18.9764C7.9223 19.2964 7.5423 19.2764 7.2923 19.0664Z" />
        </svg>
    