
        <svg xmlns="http://www.w3.org/2000/svg" viewBox="0 0 100 100">
            <path d="M15.1831 5.275C16.6331 5.275 17.8031 4.085 17.8031 2.625C17.8031 1.185 16.6331 -0.005 15.1831 -0.005C13.7231 -0.005 12.5431 1.185 12.5431 2.625C12.5431 4.085 13.7231 5.275 15.1831 5.275ZM17.0031 13.485C17.7331 13.485 18.3031 12.925 18.3031 12.195C18.3031 11.475 17.7331 10.915 17.0031 10.915H12.7031V6.505C12.7031 4.995 11.4331 4.035 10.0331 4.315L2.7031 5.825C0.0131 6.375 -0.7069 9.565 1.2331 11.285L5.7231 15.285V21.525C5.7231 22.245 6.3031 22.825 7.0231 22.825C7.7231 22.825 8.3131 22.245 8.3131 21.525V14.785C8.3131 14.335 8.2131 14.085 7.9231 13.785L4.5131 10.285C4.3231 10.105 4.4331 9.845 4.6531 9.795L9.5131 8.895C9.9531 8.815 10.1231 8.965 10.1231 9.355V12.195C10.1231 12.925 10.7031 13.485 11.4131 13.485ZM23.6831 18.375H25.6131C26.2531 18.375 26.6831 17.945 26.6831 17.305V6.535C26.6831 5.925 26.2531 5.505 25.6431 5.505H23.6331C19.4031 5.505 16.8331 6.595 14.1431 9.715H16.1131C16.1631 9.715 16.2231 9.715 16.2631 9.715C18.3131 7.755 20.4531 7.035 23.6331 7.035H25.1531V16.825H23.6831C23.2731 16.825 22.9831 16.645 22.8031 16.305L21.7231 14.135C21.5131 13.735 21.1131 13.655 20.7931 13.765C20.4131 13.895 20.1131 14.325 20.3631 14.825L21.4431 16.995C21.8631 17.835 22.7231 18.375 23.6831 18.375ZM9.5031 17.545C10.6331 16.735 11.5331 15.735 12.3431 14.685H11.4131C11.0831 14.685 10.7831 14.615 10.5031 14.495C10.1831 14.855 9.8631 15.215 9.5031 15.525ZM0.7731 19.465H2.8831C3.4831 19.465 4.0331 19.445 4.5331 19.375V17.835C4.0431 17.905 3.4831 17.945 2.8831 17.945H0.7731C0.3531 17.945 0.0031 18.255 0.0031 18.725C0.0031 19.125 0.3531 19.465 0.7731 19.465Z" />
        </svg>
    