
        <svg xmlns="http://www.w3.org/2000/svg" viewBox="0 0 100 100">
            <path d="M11.4923 22.977C17.8123 22.977 22.9823 17.827 22.9823 11.497C22.9823 5.167 17.8123 -0.003 11.4923 -0.003C5.1723 -0.003 0.0023 5.167 0.0023 11.497C0.0023 17.827 5.1723 22.977 11.4923 22.977ZM11.6123 6.857C10.8323 6.857 10.1923 6.227 10.1923 5.437C10.1923 4.657 10.8323 4.017 11.6123 4.017C12.3823 4.017 13.0223 4.657 13.0223 5.437C13.0223 6.227 12.3823 6.857 11.6123 6.857ZM17.1723 8.967H11.9223C11.6723 8.967 11.4623 9.077 11.3323 9.327L10.1023 11.797L12.4123 14.117C12.5323 14.237 12.6023 14.407 12.6023 14.567V18.197C12.6023 18.577 12.3023 18.867 11.9323 18.867C11.5623 18.867 11.2723 18.577 11.2723 18.197V14.907L8.9023 13.087C8.7523 12.987 8.5323 13.017 8.4223 13.167L6.5023 15.987C6.2723 16.317 5.8223 16.357 5.5523 16.077L3.2123 13.727C2.9523 13.467 2.9623 13.047 3.2123 12.787C3.4723 12.537 3.8823 12.527 4.1523 12.787L5.8123 14.447L8.7523 8.557C9.0423 7.967 9.6023 7.637 10.2423 7.637H17.1723C17.5423 7.637 17.8323 7.917 17.8323 8.297C17.8323 8.667 17.5423 8.967 17.1723 8.967ZM16.6623 10.537C16.6623 9.887 17.4123 9.377 18.3123 9.377C19.2423 9.377 19.9823 9.887 19.9823 10.537C19.9823 11.167 19.2423 11.687 18.3123 11.687C17.4123 11.687 16.6623 11.167 16.6623 10.537ZM12.9223 11.927C12.7523 11.927 12.5823 11.867 12.4523 11.747L11.2623 10.537L11.7623 9.547C11.8123 9.447 11.8123 9.447 11.9223 9.447H12.0323L13.2023 10.607H15.5123C15.8923 10.607 16.1823 10.907 16.1823 11.287C16.1823 11.637 15.8923 11.927 15.5123 11.927Z" />
        </svg>
    