
        <svg xmlns="http://www.w3.org/2000/svg" viewBox="0 0 100 100">
            <path d="M6.8163 5.2217C8.2263 5.2217 9.3963 4.0217 9.3963 2.6217C9.3963 1.1817 8.2263 0.0017 6.8163 0.0017C5.3463 0.0017 4.2163 1.1817 4.2163 2.6217C4.2163 4.0417 5.3463 5.2217 6.8163 5.2217ZM24.1063 4.3317H28.7363C29.0863 4.3317 29.1563 3.9617 28.8963 3.7717L26.7963 2.3417C26.5463 2.1917 26.3063 2.1917 26.0663 2.3417L23.9663 3.7717C23.6963 3.9617 23.7563 4.3317 24.1063 4.3317ZM10.7663 7.4417L12.9763 4.9717C13.3563 4.5317 13.3263 4.0517 12.9563 3.7517C12.6063 3.4317 12.1463 3.4217 11.7363 3.8817L9.2463 6.6717C9.7863 6.8817 10.3063 7.1517 10.7663 7.4417ZM17.3563 7.5017V10.3317C17.3563 11.1517 17.9663 11.7617 18.7763 11.7617H21.0263C21.8363 11.7617 22.4463 11.1517 22.4463 10.3317V7.5017C22.4463 6.6817 21.8363 6.0717 21.0263 6.0717H18.7763C17.9663 6.0717 17.3563 6.6817 17.3563 7.5017ZM23.8963 7.5017V10.3317C23.8963 11.1517 24.5063 11.7617 25.3263 11.7617H27.5663C28.3863 11.7617 28.9763 11.1517 28.9763 10.3317V7.5017C28.9763 6.6817 28.3863 6.0717 27.5663 6.0717H25.3263C24.5063 6.0717 23.8963 6.6817 23.8963 7.5017ZM30.4263 7.5017V10.3317C30.4263 11.1517 31.0363 11.7617 31.8563 11.7617H34.0963C34.9163 11.7617 35.5263 11.1517 35.5263 10.3317V7.5017C35.5263 6.6817 34.9163 6.0717 34.0963 6.0717H31.8563C31.0363 6.0717 30.4263 6.6817 30.4263 7.5017ZM1.8063 14.9217L9.2463 6.6717C8.5163 6.3817 7.7163 6.2717 6.8163 6.2717C3.4463 6.2717 1.4663 7.8817 1.4663 10.5917C1.4663 11.2517 1.4963 12.1217 1.5963 13.0117ZM11.7963 14.9217L12.0063 13.0117C12.1063 12.1217 12.1463 11.2517 12.1463 10.5917C12.1463 9.2617 11.6663 8.1817 10.7663 7.4517L4.8563 14.0117C5.5163 13.9117 6.1563 13.8617 6.8163 13.8617C8.4563 13.8617 10.1063 14.0817 11.7963 14.9217ZM19.8763 10.1317C19.2163 10.1317 18.6463 9.5817 18.6463 8.9017C18.6463 8.2517 19.2163 7.7117 19.8763 7.7117C20.5363 7.7117 21.0863 8.2517 21.0863 8.9017C21.0863 9.5817 20.5363 10.1317 19.8763 10.1317ZM26.4063 10.1317C25.7363 10.1317 25.1763 9.5817 25.1763 8.9017C25.1763 8.2517 25.7363 7.7117 26.4063 7.7117C27.0663 7.7117 27.6263 8.2517 27.6263 8.9017C27.6263 9.5817 27.0663 10.1317 26.4063 10.1317ZM32.9463 10.1317C32.2763 10.1317 31.7063 9.5817 31.7063 8.9017C31.7063 8.2517 32.2763 7.7117 32.9463 7.7117C33.5863 7.7117 34.1563 8.2517 34.1563 8.9017C34.1563 9.5817 33.5863 10.1317 32.9463 10.1317ZM17.3563 15.8317V18.6817C17.3563 19.5017 17.9663 20.1117 18.7763 20.1117H21.0263C21.8363 20.1117 22.4463 19.5017 22.4463 18.6817V15.8317C22.4463 15.0117 21.8363 14.4117 21.0263 14.4117H18.7763C17.9663 14.4117 17.3563 15.0117 17.3563 15.8317ZM23.8963 15.8317V18.6817C23.8963 19.5017 24.5063 20.1117 25.3263 20.1117H27.5663C28.3863 20.1117 28.9763 19.5017 28.9763 18.6817V15.8317C28.9763 15.0117 28.3863 14.4117 27.5663 14.4117H25.3263C24.5063 14.4117 23.8963 15.0117 23.8963 15.8317ZM30.4263 15.8317V18.6817C30.4263 19.5017 31.0363 20.1117 31.8563 20.1117H34.0963C34.9163 20.1117 35.5263 19.5017 35.5263 18.6817V15.8317C35.5263 15.0117 34.9163 14.4117 34.0963 14.4117H31.8563C31.0363 14.4117 30.4263 15.0117 30.4263 15.8317ZM0.3663 15.7817C-0.0637 16.0917 -0.0737 16.5817 0.1363 16.9017C0.3163 17.2417 0.7563 17.4017 1.1963 17.1317C1.4763 16.9617 1.7263 16.8017 2.0063 16.6517L1.8063 14.9217C1.2863 15.1517 0.8163 15.4217 0.3663 15.7817ZM3.9263 23.5517C4.6063 23.4617 5.0863 22.9717 4.9863 22.1117L4.5163 17.7917H9.0763L8.6163 22.1117C8.5363 22.9717 8.9763 23.4617 9.6563 23.5517C10.3663 23.6217 10.9063 23.1817 10.9963 22.3617L11.6063 16.6517C11.8763 16.8017 12.1263 16.9617 12.3963 17.1317C12.8363 17.4017 13.2563 17.2517 13.4563 16.9217C13.6663 16.5917 13.6663 16.1017 13.2463 15.7817C12.7863 15.4217 12.3163 15.1517 11.7963 14.9217L11.5963 16.6417C10.0863 15.7717 8.4163 15.4317 6.8163 15.4317C5.1863 15.4317 3.5063 15.7717 2.0063 16.6517L2.6063 22.3617C2.6863 23.1817 3.2263 23.6217 3.9263 23.5517ZM19.8763 18.4717C19.2163 18.4717 18.6463 17.9217 18.6463 17.2417C18.6463 16.5817 19.2163 16.0317 19.8763 16.0317C20.5363 16.0317 21.0863 16.5817 21.0863 17.2417C21.0863 17.9217 20.5363 18.4717 19.8763 18.4717ZM26.4063 18.4717C25.7363 18.4717 25.1763 17.9217 25.1763 17.2417C25.1763 16.5817 25.7363 16.0317 26.4063 16.0317C27.0663 16.0317 27.6263 16.5817 27.6263 17.2417C27.6263 17.9217 27.0663 18.4717 26.4063 18.4717ZM32.9463 18.4717C32.2763 18.4717 31.7063 17.9217 31.7063 17.2417C31.7063 16.5817 32.2763 16.0317 32.9463 16.0317C33.5863 16.0317 34.1563 16.5817 34.1563 17.2417C34.1563 17.9217 33.5863 18.4717 32.9463 18.4717Z" />
        </svg>
    