
        <svg xmlns="http://www.w3.org/2000/svg" viewBox="0 0 100 100">
            <path d="M10.991 4.7327C12.291 4.7327 13.351 3.6827 13.351 2.3627C13.351 1.0527 12.291 0.0027 10.991 0.0027C9.671 0.0027 8.611 1.0527 8.611 2.3627C8.611 3.6827 9.671 4.7327 10.991 4.7327ZM0.871 25.0527C1.301 25.4627 1.981 25.5327 2.471 25.0527L7.281 20.2527C7.571 19.9827 7.621 19.7327 7.591 19.3127L7.311 16.0827C7.301 15.9327 7.431 15.8827 7.521 15.9627L11.061 19.0227L12.851 24.5727C13.061 25.2327 13.721 25.4727 14.271 25.3227C14.921 25.1227 15.221 24.5027 15.021 23.8927L13.161 18.0227C13.101 17.8627 13.011 17.6827 12.881 17.5527L9.171 13.8827L11.551 9.1327C11.661 8.9227 11.881 8.8727 12.051 9.0427L14.721 11.7327C14.831 11.8627 15.021 11.9627 15.191 12.0127L20.531 13.6027C20.971 13.7427 21.711 13.5727 21.951 12.8327C22.121 12.2327 21.781 11.6027 21.171 11.4127L16.121 9.9227L13.231 6.9927C12.571 6.3427 11.811 6.0627 10.911 6.0627H3.281C2.831 6.0627 2.451 6.3027 2.261 6.6827L0.131 10.9427C-0.149 11.4927 0.031 12.1727 0.631 12.4527C1.211 12.7227 1.861 12.5227 2.151 11.9527L3.961 8.3227H6.221C6.481 8.3227 6.631 8.5827 6.501 8.8127L4.851 12.1527C4.261 13.3227 4.091 14.6927 4.421 15.9827L5.211 19.0927L0.851 23.4227C0.411 23.8527 0.431 24.6127 0.871 25.0527ZM20.861 20.0527C22.301 20.0527 23.461 18.8827 23.461 17.4527C23.461 16.0127 22.301 14.8427 20.861 14.8427C19.431 14.8427 18.261 16.0127 18.261 17.4527C18.261 18.8827 19.431 20.0527 20.861 20.0527Z" />
        </svg>
    