
        <svg xmlns="http://www.w3.org/2000/svg" viewBox="0 0 100 100">
            <path d="M12.1023 24.2064C18.7823 24.2064 24.2123 18.7864 24.2123 12.1064C24.2123 5.4264 18.7823 -0.0036 12.1023 -0.0036C5.4223 -0.0036 0.0023 5.4264 0.0023 12.1064C0.0023 18.7864 5.4223 24.2064 12.1023 24.2064ZM12.1023 21.8164C6.7223 21.8164 2.3823 17.4864 2.3823 12.1064C2.3823 6.7264 6.7223 2.3764 12.1023 2.3764C17.4823 2.3764 21.8323 6.7264 21.8323 12.1064C21.8323 17.4864 17.4823 21.8164 12.1023 21.8164ZM12.2423 6.9364C13.0123 6.9364 13.6323 6.3164 13.6323 5.5464C13.6323 4.7664 13.0123 4.1464 12.2423 4.1464C11.4623 4.1464 10.8423 4.7664 10.8423 5.5464C10.8423 6.3164 11.4623 6.9364 12.2423 6.9364ZM6.7823 18.9764C7.0523 19.2064 7.4723 19.1864 7.7323 18.9064L9.7823 16.5564C9.9023 16.4164 9.9723 16.2664 9.9923 16.0764L10.2823 13.3864C10.2923 13.2864 10.3923 13.2464 10.4623 13.3264L12.2223 15.3664V18.5864C12.2223 18.9564 12.5323 19.2664 12.9023 19.2664C13.2623 19.2664 13.5823 18.9564 13.5823 18.5864V15.1264C13.5823 14.9564 13.5123 14.8264 13.4323 14.7064L11.5223 11.9164L12.4523 9.1364C12.4923 8.9964 12.5823 8.9364 12.7223 8.9364H16.8323C16.9723 9.3264 17.3423 9.5964 17.7823 9.5964C18.3123 9.5964 18.7723 9.1564 18.7723 8.5864C18.7723 8.0464 18.3123 7.5964 17.7923 7.5964C17.7823 7.5964 17.7823 7.5964 17.7823 7.5964H10.1823C9.6423 7.5964 9.2023 7.7564 8.7823 8.1764L7.5323 9.4364C7.1023 9.8664 7.3523 10.5864 7.9323 10.5864H9.0823L8.8223 11.3064C8.6923 11.7064 8.6323 12.1264 8.6323 12.5364V15.8364L6.7223 18.0164C6.4723 18.2964 6.5023 18.7164 6.7823 18.9764Z" />
        </svg>
    