
        <svg xmlns="http://www.w3.org/2000/svg" viewBox="0 0 100 100">
            <path d="M11.9523 23.9041C18.5523 23.9041 23.9023 18.5341 23.9023 11.9541C23.9023 5.3541 18.5523 0.0041 11.9523 0.0041C5.3623 0.0041 0.0023 5.3541 0.0023 11.9541C0.0023 18.5341 5.3623 23.9041 11.9523 23.9041ZM13.8623 20.9041C13.6523 20.9041 13.4523 20.7341 13.4523 20.4941V17.3741C13.1923 17.5541 12.8523 17.6741 12.5023 17.6741C11.5123 17.6741 10.7323 16.9841 10.7323 15.8741V14.6341L8.3123 14.2241L6.0723 16.4541C5.8023 16.7241 5.3823 16.7241 5.1223 16.4541C4.8423 16.1741 4.8423 15.7641 5.1223 15.4841L7.5823 13.0041C7.7123 12.8641 7.9223 12.8041 8.1223 12.8041H10.4423C10.5723 12.8041 10.6123 12.6941 10.5323 12.6241L8.4723 10.7741H5.1723C4.7823 10.7741 4.4723 10.4441 4.4723 10.0641C4.4723 9.7041 4.7823 9.3941 5.1723 9.3941H8.7323C8.9223 9.3941 9.0223 9.4241 9.1423 9.5041L10.7323 10.6141V3.2841C10.7323 3.0541 10.9223 2.8741 11.1423 2.8741C11.3523 2.8741 11.5523 3.0441 11.5523 3.2841V11.2041L12.0923 11.5641L13.9023 9.7541C14.0323 9.6241 14.0423 9.4941 13.9023 9.3641L12.1423 7.6141V5.6741L16.2023 9.7241C16.4723 9.9841 16.6123 10.3441 16.6123 10.7841V13.8441C16.6123 14.0141 16.5323 14.1941 16.4223 14.3041L14.3623 16.3741C14.3423 16.3941 14.3223 16.4041 14.2823 16.4341V20.4941C14.2823 20.7341 14.1023 20.9041 13.8623 20.9041ZM16.9923 8.9341C16.1923 8.9341 15.5523 8.2841 15.5523 7.4641C15.5523 6.6841 16.1923 6.0241 16.9923 6.0241C17.7923 6.0241 18.4523 6.6841 18.4523 7.4641C18.4523 8.2841 17.7923 8.9341 16.9923 8.9341ZM14.2823 14.5241L15.2423 13.5541V12.5141C15.2423 12.3141 15.0723 12.2541 14.9323 12.3841L14.2823 13.0341ZM12.5023 16.8541C12.9023 16.8541 13.2023 16.6441 13.3623 16.3141C13.1223 16.0641 13.1323 15.6641 13.3923 15.3941C13.4023 15.3841 13.4423 15.3541 13.4523 15.3441V13.8541L13.3923 13.9141C12.8923 14.4141 12.2323 14.6941 11.5523 14.7041V15.8741C11.5523 16.5141 11.9523 16.8541 12.5023 16.8541Z" />
        </svg>
    