
        <svg xmlns="http://www.w3.org/2000/svg" viewBox="0 0 100 100">
            <path d="M16.4717 5.533C18.0017 5.533 19.2417 4.293 19.2417 2.763C19.2417 1.253 18.0017 0.003 16.4717 0.003C14.9517 0.003 13.7217 1.253 13.7217 2.763C13.7217 4.293 14.9517 5.533 16.4717 5.533ZM2.6017 1.243C2.6017 1.773 3.0217 2.193 3.5617 2.193C4.6217 2.193 5.1917 2.363 5.8317 3.073C6.1417 3.423 6.4917 3.583 6.8517 3.583C7.2217 3.583 7.5717 3.423 7.8617 3.073C8.5217 2.363 9.0817 2.193 10.1517 2.193C10.6717 2.193 11.1017 1.773 11.1017 1.243C11.1017 0.703 10.6717 0.283 10.1517 0.283C8.8017 0.283 7.8417 0.593 6.8517 1.433C5.8617 0.593 4.9117 0.283 3.5617 0.283C3.0217 0.283 2.6017 0.703 2.6017 1.243ZM4.5717 14.423C5.4017 14.803 6.1517 14.433 6.4817 13.783L8.5817 9.573H10.9617C11.1517 9.573 11.2417 9.713 11.1517 9.883L8.9317 14.293C8.0317 16.093 9.1317 18.363 11.4917 18.223L17.2717 17.863L15.1617 22.573C14.8317 23.313 15.1517 24.213 15.8917 24.493C16.6917 24.793 17.4117 24.553 17.7817 23.753L20.9217 16.853C21.3117 15.983 20.7517 14.813 19.6317 14.813H14.4217L16.6717 10.293C16.7617 10.153 16.9117 10.113 17.0417 10.233L19.8317 12.913C20.5117 13.573 21.7117 13.453 22.1717 12.523L24.6517 7.513C25.0117 6.813 24.7817 5.913 24.0117 5.553C23.3017 5.243 22.4217 5.503 22.0517 6.233L20.4617 9.433L19.2317 8.203C18.2317 7.223 17.1717 6.683 15.5417 6.683H7.7017C7.1617 6.683 6.6517 7.003 6.4217 7.473L3.8817 12.503C3.5117 13.223 3.8117 14.063 4.5717 14.423ZM1.0617 26.473C1.5317 27.413 2.5217 27.423 2.9717 27.223L9.2217 24.503C9.5317 24.373 9.8117 24.113 9.9517 23.823L12.0517 19.583L11.5817 19.603C10.4217 19.673 9.4417 19.343 8.7217 18.773L7.5017 22.083L1.8117 24.523C1.0617 24.853 0.7017 25.713 1.0617 26.473ZM22.2817 27.763C23.8217 27.763 25.0617 26.533 25.0617 24.973C25.0617 23.423 23.8217 22.193 22.2817 22.193C20.7317 22.193 19.5017 23.423 19.5017 24.973C19.5017 26.533 20.7317 27.763 22.2817 27.763ZM0.8317 30.813C1.3017 30.813 1.6717 30.433 1.6717 29.973C1.6717 29.503 1.3017 29.133 0.8317 29.133C0.3717 29.133 0.0017 29.503 0.0017 29.973C0.0017 30.433 0.3717 30.813 0.8317 30.813ZM3.0617 30.813C3.5117 30.813 3.8917 30.433 3.8917 29.973C3.8917 29.503 3.5117 29.133 3.0617 29.133C2.5917 29.133 2.2117 29.503 2.2117 29.973C2.2117 30.433 2.5917 30.813 3.0617 30.813ZM5.2717 30.813C5.7317 30.813 6.1017 30.433 6.1017 29.973C6.1017 29.503 5.7317 29.133 5.2717 29.133C4.8017 29.133 4.4317 29.503 4.4317 29.973C4.4317 30.433 4.8017 30.813 5.2717 30.813ZM7.4917 30.813C7.9617 30.813 8.3317 30.433 8.3317 29.973C8.3317 29.503 7.9617 29.133 7.4917 29.133C7.0317 29.133 6.6517 29.503 6.6517 29.973C6.6517 30.433 7.0317 30.813 7.4917 30.813ZM9.7017 30.813C10.1717 30.813 10.5517 30.433 10.5517 29.973C10.5517 29.503 10.1717 29.133 9.7017 29.133C9.2417 29.133 8.8717 29.503 8.8717 29.973C8.8717 30.433 9.2417 30.813 9.7017 30.813ZM11.9317 30.813C12.3917 30.813 12.7617 30.433 12.7617 29.973C12.7617 29.503 12.3917 29.133 11.9317 29.133C11.4617 29.133 11.0817 29.503 11.0817 29.973C11.0817 30.433 11.4617 30.813 11.9317 30.813ZM14.1417 30.813C14.6017 30.813 14.9717 30.433 14.9717 29.973C14.9717 29.503 14.6017 29.133 14.1417 29.133C13.6717 29.133 13.3017 29.503 13.3017 29.973C13.3017 30.433 13.6717 30.813 14.1417 30.813ZM16.3617 30.813C16.8117 30.813 17.1917 30.433 17.1917 29.973C17.1917 29.503 16.8117 29.133 16.3617 29.133C15.8917 29.133 15.5317 29.503 15.5317 29.973C15.5317 30.433 15.8917 30.813 16.3617 30.813ZM18.5717 30.813C19.0417 30.813 19.4217 30.433 19.4217 29.973C19.4217 29.503 19.0417 29.133 18.5717 29.133C18.1217 29.133 17.7417 29.503 17.7417 29.973C17.7417 30.433 18.1217 30.813 18.5717 30.813ZM20.7917 30.813C21.2617 30.813 21.6317 30.433 21.6317 29.973C21.6317 29.503 21.2617 29.133 20.7917 29.133C20.3317 29.133 19.9617 29.503 19.9617 29.973C19.9617 30.433 20.3317 30.813 20.7917 30.813ZM23.0117 30.813C23.4717 30.813 23.8517 30.433 23.8517 29.973C23.8517 29.503 23.4717 29.133 23.0117 29.133C22.5517 29.133 22.1717 29.503 22.1717 29.973C22.1717 30.433 22.5517 30.813 23.0117 30.813ZM25.2317 30.813C25.6917 30.813 26.0617 30.433 26.0617 29.973C26.0617 29.503 25.6917 29.133 25.2317 29.133C24.7617 29.133 24.3917 29.503 24.3917 29.973C24.3917 30.433 24.7617 30.813 25.2317 30.813Z" />
        </svg>
    