
        <svg xmlns="http://www.w3.org/2000/svg" viewBox="0 0 100 100">
            <path d="M12.6023 25.1986C19.5623 25.1986 25.2023 19.5586 25.2023 12.5986C25.2023 5.6386 19.5623 -0.0014 12.6023 -0.0014C5.6323 -0.0014 0.0023 5.6386 0.0023 12.5986C0.0023 19.5586 5.6323 25.1986 12.6023 25.1986ZM12.6023 21.5386C7.6523 21.5386 3.6523 17.5386 3.6523 12.5986C3.6523 7.6486 7.6523 3.6586 12.6023 3.6586C17.5423 3.6586 21.5423 7.6486 21.5423 12.5986C21.5423 17.5386 17.5423 21.5386 12.6023 21.5386ZM9.7923 8.5186C10.5423 8.5186 11.1423 7.9186 11.1423 7.1686C11.1423 6.4286 10.5423 5.8286 9.7923 5.8286C9.0623 5.8286 8.4523 6.4286 8.4523 7.1686C8.4523 7.9186 9.0623 8.5186 9.7923 8.5186ZM13.5823 18.7686H16.8423C17.3423 18.7686 17.4923 18.1286 17.0823 17.8486L16.0823 17.1886C16.1623 17.0386 16.2023 16.8486 16.2623 16.6786L17.5623 11.4686C18.4423 11.3886 19.1623 10.6386 19.1623 9.7286C19.1623 8.7686 18.3623 7.9786 17.4023 7.9786C16.4423 7.9786 15.6423 8.7686 15.6423 9.7286C15.6423 10.3986 16.0323 10.9786 16.5823 11.2686L15.2923 16.4386C15.0823 17.2486 14.4223 17.7786 13.5823 17.7786C13.3023 17.7786 13.0923 18.0086 13.0923 18.2686C13.0923 18.5286 13.3023 18.7686 13.5823 18.7686ZM17.4023 10.4886C16.9523 10.4886 16.6423 10.1586 16.6423 9.7286C16.6423 9.2886 16.9523 8.9486 17.4023 8.9486C17.8323 8.9486 18.1623 9.2886 18.1623 9.7286C18.1623 10.1586 17.8323 10.4886 17.4023 10.4886ZM11.8223 18.3986C12.1423 18.4886 12.5323 18.3286 12.6323 17.9286L13.5123 14.7686C13.6423 14.3086 13.4423 13.9686 12.9823 13.8386L10.5123 13.1386L10.7023 11.1286C10.7023 11.0486 10.7823 11.0286 10.8323 11.0786L11.8823 11.8386C12.1123 11.9986 12.4323 11.9986 12.6823 11.8386L14.7323 10.3686C15.0423 10.1486 15.1123 9.7286 14.8923 9.4186C14.6823 9.1086 14.2523 9.0386 13.9323 9.2586L12.2823 10.4386L10.9323 9.4686C10.6123 9.2486 10.2423 9.0786 9.7723 9.0786C8.9723 9.0786 8.3823 9.5986 8.3323 10.2986L8.1323 13.0586C8.0723 13.9186 8.4923 14.5786 9.4723 14.7186L12.0123 15.0786L11.3323 17.5786C11.2123 17.9786 11.4523 18.3186 11.8223 18.3986ZM7.8823 18.7686H10.3923C10.6923 18.7686 10.9023 18.5286 10.9023 18.2686C10.9023 18.0086 10.6923 17.7786 10.3923 17.7786C10.1023 17.7786 9.8823 17.6086 9.8123 17.2986L9.5723 16.2586L9.9223 16.1786C10.1523 16.1286 10.2823 15.9286 10.2823 15.7286C10.2823 15.5086 10.1123 15.3086 9.9023 15.2686L7.9523 14.9386C7.5023 14.8586 7.3123 15.3086 7.4623 15.6086L7.5723 15.8186C7.7823 16.2286 8.1223 16.4786 8.6023 16.4386L8.7423 17.1186L7.6123 17.8486C7.1923 18.1286 7.3723 18.7686 7.8823 18.7686Z" />
        </svg>
    