
        <svg xmlns="http://www.w3.org/2000/svg" viewBox="0 0 100 100">
            <path d="M12.6023 25.1986C19.5623 25.1986 25.2023 19.5586 25.2023 12.5986C25.2023 5.6386 19.5623 -0.0014 12.6023 -0.0014C5.6523 -0.0014 0.0023 5.6386 0.0023 12.5986C0.0023 19.5586 5.6523 25.1986 12.6023 25.1986ZM8.5823 8.4886C7.7823 8.4886 7.1323 7.8386 7.1323 7.0386C7.1323 6.2586 7.7823 5.6086 8.5823 5.6086C9.3623 5.6086 10.0123 6.2586 10.0123 7.0386C10.0123 7.8386 9.3623 8.4886 8.5823 8.4886ZM5.2423 12.0786C4.9723 11.8286 4.9723 11.3486 5.2423 11.0886L6.6323 9.6886C7.1723 9.1686 7.7723 9.0986 8.2823 9.0986H8.5823C9.4823 9.0986 9.9923 9.6986 9.9923 10.4386V11.2586L17.2823 6.7986C17.5523 6.6286 17.8923 6.7186 18.0623 6.9686C18.2123 7.2286 18.1423 7.5986 17.8823 7.7486L9.9923 12.5786V14.1286L10.8023 16.2186C10.4923 16.1486 10.1123 16.0786 9.6223 16.0786C9.4523 16.0786 9.3023 16.0886 9.1523 16.0886L8.7823 15.3586C8.7523 15.3086 8.6823 15.3086 8.6723 15.3786L8.5523 16.1686C7.7823 16.3086 7.4223 16.6086 7.1123 16.8186V14.3486L6.1723 14.9186C5.9223 15.0786 5.5823 15.0086 5.4123 14.7386C5.2623 14.4886 5.3323 14.1286 5.5923 13.9786L6.5523 13.3686ZM6.6423 11.5886L7.1723 12.1086V11.1986C7.1723 11.1486 7.1023 11.1186 7.0523 11.1686ZM5.9623 18.3286C5.9623 18.0486 6.1923 17.7986 6.4923 17.7986H6.5123C7.5723 17.7986 7.9323 16.8086 9.6223 16.8086C11.1823 16.8086 11.6823 17.7986 12.7223 17.7986C13.7823 17.7986 14.3123 16.8086 15.8423 16.8086C17.5523 16.8086 17.8923 17.7986 18.9523 17.7986H18.9823C19.2623 17.7986 19.5123 18.0486 19.5123 18.3286C19.5123 18.6086 19.2623 18.8586 18.9823 18.8586H18.9523C17.1823 18.8586 16.8623 17.8486 15.8423 17.8486C14.9723 17.8486 14.5123 18.8586 12.7223 18.8586C10.9523 18.8586 10.5023 17.8486 9.6223 17.8486C8.6123 17.8486 8.2923 18.8586 6.5123 18.8586H6.4923C6.1923 18.8586 5.9623 18.6086 5.9623 18.3286Z" />
        </svg>
    