
        <svg xmlns="http://www.w3.org/2000/svg" viewBox="0 0 100 100">
            <path d="M12.6023 25.1986C19.5623 25.1986 25.2023 19.5586 25.2023 12.5986C25.2023 5.6386 19.5623 -0.0014 12.6023 -0.0014C5.6523 -0.0014 0.0023 5.6386 0.0023 12.5986C0.0023 19.5586 5.6523 25.1986 12.6023 25.1986ZM8.3423 15.0086V10.1586C8.3423 6.4686 9.9523 4.2186 12.6023 4.2186C15.2423 4.2186 16.8523 6.4686 16.8523 10.1586V15.0086C16.8523 15.3086 16.6623 15.5786 16.3723 15.6686C16.0223 15.7986 15.6323 15.5986 15.4923 15.2386C15.3123 14.6986 14.8723 13.4686 14.2923 12.3986C14.2623 12.3386 14.1923 12.3386 14.1923 12.4286V20.3786C14.1923 20.7586 13.8623 21.0686 13.5023 21.0686C13.1123 21.0686 12.7923 20.7586 12.7923 20.3786V17.4386L12.6023 15.8286L12.4023 17.4386V20.3786C12.4023 20.7586 12.0823 21.0686 11.6923 21.0686C11.3323 21.0686 11.0023 20.7586 11.0023 20.3786V12.4286C11.0023 12.3386 10.9323 12.3386 10.9023 12.3986C10.3223 13.4686 9.8823 14.6986 9.7023 15.2386C9.5623 15.5986 9.1723 15.7986 8.8223 15.6686C8.5323 15.5786 8.3423 15.3086 8.3423 15.0086ZM9.4023 12.3186C9.7723 11.5286 10.2423 10.6886 10.7623 10.1086C11.0423 9.7886 11.4623 9.5786 11.9423 9.5786H13.2523C13.7323 9.5786 14.1523 9.7886 14.4423 10.1086C14.9523 10.6886 15.4223 11.5286 15.7923 12.3186V10.1586C15.7923 7.1086 14.5923 5.2586 12.6023 5.2586C10.6023 5.2586 9.4023 7.1086 9.4023 10.1586ZM12.6023 9.0586C11.8023 9.0586 11.1723 8.4286 11.1723 7.6386C11.1723 6.8586 11.8023 6.2086 12.6023 6.2086C13.3823 6.2086 14.0323 6.8586 14.0323 7.6386C14.0323 8.4286 13.3823 9.0586 12.6023 9.0586Z" />
        </svg>
    