
        <svg xmlns="http://www.w3.org/2000/svg" viewBox="0 0 100 100">
            <path d="M20.2745 6.7183C22.1445 6.7183 23.6145 5.1683 23.6145 3.3783C23.6145 1.5083 22.1445 -0.0017 20.2745 -0.0017C18.4145 -0.0017 16.9245 1.5083 16.9245 3.3783C16.9245 5.1983 18.4145 6.7183 20.2745 6.7183ZM2.6845 11.4583C3.2845 11.4583 3.6745 11.1483 3.8745 10.4183L4.4945 8.5583H8.1745L8.7945 10.4183C8.9945 11.1483 9.3845 11.4583 9.9745 11.4583C10.6945 11.4583 11.1345 11.0283 11.1345 10.3583C11.1345 10.1483 11.0945 9.8983 10.9745 9.5483L8.1845 1.8183C7.8645 0.8783 7.2445 0.4183 6.3045 0.4183C5.3945 0.4183 4.7945 0.8783 4.4845 1.8183L1.6945 9.5483C1.5745 9.8983 1.5245 10.1483 1.5245 10.3583C1.5245 11.0283 1.9745 11.4583 2.6845 11.4583ZM4.9945 6.7783L6.2745 2.7683H6.3945L7.6645 6.7783ZM0.4745 24.3683C1.1545 25.0683 2.2745 25.0083 3.0945 24.1683L8.3445 18.7383C8.5345 18.5483 8.6645 18.5083 8.9445 18.6183L12.9445 20.1183C15.5645 21.1183 18.2345 20.1483 19.4445 17.9483L21.9745 13.3483C23.0245 11.4383 22.6845 9.5283 20.8945 8.5583C19.1545 7.5983 17.3445 8.3083 16.2945 10.2283L12.8845 16.4283L10.0245 15.3883C8.5145 14.8283 7.2345 15.0083 6.0245 16.2683L0.5945 21.8983C-0.2155 22.7383 -0.1355 23.7583 0.4745 24.3683Z" />
        </svg>
    