
        <svg xmlns="http://www.w3.org/2000/svg" viewBox="0 0 100 100">
            <path d="M11.9523 23.9041C18.5523 23.9041 23.9023 18.5541 23.9023 11.9541C23.9023 5.3541 18.5523 0.0041 11.9523 0.0041C5.3523 0.0041 0.0023 5.3541 0.0023 11.9541C0.0023 18.5541 5.3523 23.9041 11.9523 23.9041ZM11.9523 21.9141C6.4423 21.9141 1.9923 17.4641 1.9923 11.9541C1.9923 6.4441 6.4423 1.9941 11.9523 1.9941C17.4623 1.9941 21.9123 6.4441 21.9123 11.9541C21.9123 17.4641 17.4623 21.9141 11.9523 21.9141ZM12.2323 7.3841C13.0123 7.3841 13.6423 6.7641 13.6423 5.9641C13.6423 5.1941 13.0123 4.5541 12.2323 4.5541C11.4423 4.5541 10.8123 5.1941 10.8123 5.9641C10.8123 6.7641 11.4423 7.3841 12.2323 7.3841ZM17.5823 9.3841C17.9423 9.3841 18.2423 9.0941 18.2423 8.7341C18.2423 8.3541 17.9423 8.0641 17.5823 8.0641H10.8623C10.2323 8.0641 9.6923 8.3941 9.3823 8.9741L6.4523 14.8341L4.8023 13.1941C4.5323 12.9341 4.1223 12.9341 3.8823 13.1941C3.6223 13.4541 3.6123 13.8541 3.8823 14.1241L6.2023 16.4541C6.4823 16.7341 6.9223 16.7041 7.1523 16.3741L9.0623 13.5741C9.1623 13.4041 9.3823 13.3941 9.5423 13.4841L11.8923 15.3041V18.5841C11.8923 18.9541 12.1923 19.2341 12.5523 19.2341C12.9123 19.2341 13.2223 18.9541 13.2223 18.5841V14.9641C13.2223 14.7841 13.1323 14.6241 13.0223 14.5041L10.7223 12.2141L11.9623 9.7341C12.0823 9.5041 12.2923 9.3841 12.5423 9.3841ZM17.0723 10.9341C17.0723 11.5741 17.8123 12.0941 18.7223 12.0941C19.6323 12.0941 20.3623 11.5741 20.3623 10.9341C20.3623 10.3141 19.6323 9.7941 18.7223 9.7941C17.8123 9.7941 17.0723 10.3141 17.0723 10.9341ZM13.5323 12.3441H15.9423C16.3023 12.3441 16.5823 12.0441 16.5823 11.6841C16.5823 11.3241 16.3023 11.0241 15.9423 11.0241H13.8123L12.7423 9.9541H12.5423C12.4923 9.9541 12.4923 9.9541 12.4723 9.9941L11.9523 11.0141L13.0823 12.1541C13.1923 12.2741 13.3723 12.3441 13.5323 12.3441Z" />
        </svg>
    