
        <svg xmlns="http://www.w3.org/2000/svg" viewBox="0 0 100 100">
            <path d="M7.3939 5.3625C8.8739 5.3625 10.0839 4.1725 10.0839 2.6725C10.0839 1.1925 8.8739 0.0025 7.3939 0.0025C5.9239 0.0025 4.7039 1.1925 4.7039 2.6725C4.7039 4.1725 5.9239 5.3625 7.3939 5.3625ZM25.1039 21.9925L17.2439 17.7525L12.6939 14.5925C12.3739 14.3625 12.0939 14.1125 11.8539 13.8125C12.2839 13.5025 12.4639 12.9725 12.3139 12.4425L11.4239 8.8225C11.1139 7.5025 9.9039 6.6025 8.5539 6.6025H5.7139C4.8339 6.6025 4.1939 6.8125 3.6039 7.4025L0.3739 10.6425C-0.0461 11.0525 -0.1161 11.7025 0.1739 12.2225L2.4239 16.1725V23.1425C2.4239 23.8525 3.0239 24.4525 3.7439 24.4525C4.4539 24.4525 5.0539 23.8525 5.0539 23.1425V17.2225L11.8939 17.7325L16.0939 20.1125L23.8739 24.2825C24.6339 24.6925 25.3739 24.3025 25.6539 23.7625C25.9739 23.1225 25.7339 22.3325 25.1039 21.9925ZM2.9439 11.7925L4.9039 9.8125L6.4639 13.8325L5.2539 14.5225H4.5139Z" />
        </svg>
    