
        <svg xmlns="http://www.w3.org/2000/svg" viewBox="0 0 100 100">
            <path d="M12.1023 24.2064C18.7823 24.2064 24.2123 18.7864 24.2123 12.1064C24.2123 5.4264 18.7823 -0.0036 12.1023 -0.0036C5.4223 -0.0036 0.0023 5.4264 0.0023 12.1064C0.0023 18.7864 5.4223 24.2064 12.1023 24.2064ZM12.1023 21.8164C6.7223 21.8164 2.3823 17.4864 2.3823 12.1064C2.3823 6.7264 6.7223 2.3764 12.1023 2.3764C17.4823 2.3764 21.8323 6.7264 21.8323 12.1064C21.8323 17.4864 17.4823 21.8164 12.1023 21.8164ZM13.0923 6.5764C13.7923 6.5764 14.3623 6.0164 14.3623 5.3064C14.3623 4.5864 13.7923 4.0164 13.0923 4.0164C12.3823 4.0164 11.8123 4.5864 11.8123 5.3064C11.8123 6.0164 12.3823 6.5764 13.0923 6.5764ZM11.1023 11.6464L13.2923 12.8664L11.8823 14.0964C11.5623 14.3664 11.5623 14.7064 11.7523 14.9264C11.9623 15.1564 12.3123 15.1864 12.6323 14.9164L14.6323 13.2064C14.9223 12.9764 14.8723 12.4664 14.5323 12.2464L12.3723 10.8264L12.7923 9.3264C12.8523 9.1264 13.0823 9.0964 13.2023 9.2664L13.8423 10.2064C14.0023 10.4364 14.2723 10.5164 14.5323 10.3964L16.3723 9.5864C16.7123 9.4364 16.8323 9.1364 16.6723 8.8364C16.5423 8.5264 16.2523 8.4464 15.9123 8.5864L14.4723 9.2364L13.4723 7.8664C12.9523 7.1364 12.2923 6.8464 11.2223 6.9164L9.1723 7.0564C8.8623 7.0864 8.6323 7.3164 8.5923 7.6364L8.3123 9.7064C8.2623 10.0864 8.4423 10.3464 8.7623 10.3864C9.1023 10.4064 9.3023 10.2064 9.3623 9.8464L9.6123 8.1664L10.4323 8.1064C10.5823 8.0964 10.7723 8.2164 10.7023 8.4264L10.2223 10.0864C9.9523 11.0864 10.5823 11.3564 11.1023 11.6464ZM16.9323 16.2964L17.5823 16.2664C17.6723 16.2664 17.7323 16.2664 17.8023 16.2664L18.7923 10.6064L20.1223 9.9964C20.3323 9.8864 20.4123 9.6164 20.3323 9.4064C20.2423 9.2064 19.9723 9.1164 19.7623 9.2264L16.8423 10.5864C16.6123 10.6864 16.5223 10.9464 16.6323 11.1564C16.7123 11.3664 16.9823 11.4464 17.1923 11.3464L17.8623 11.0364ZM7.2023 16.6364C7.4323 16.8564 7.7723 16.8664 8.0723 16.5664L9.9523 14.7064C10.1023 14.5564 10.1323 14.5064 10.2323 14.2664L10.9923 12.2764L10.7923 12.1764C10.5023 12.0164 10.1123 11.7264 9.8623 11.3464L9.1723 13.8064L7.2223 15.7464C6.9023 16.0564 6.9523 16.4264 7.2023 16.6364ZM5.8823 18.3064H17.8123C18.2223 18.3064 18.5523 17.9764 18.5523 17.5664C18.5523 17.0764 18.1723 16.8064 17.6823 16.8364L5.8823 17.5764C5.6723 17.5864 5.5223 17.7464 5.5223 17.9564C5.5223 18.1364 5.6823 18.3064 5.8823 18.3064Z" />
        </svg>
    