
        <svg xmlns="http://www.w3.org/2000/svg" viewBox="0 0 100 100">
            <path d="M9.8488 18.8302C11.3388 20.6202 13.7388 20.3702 14.9488 18.5502L25.9388 2.0802C26.3688 1.4602 26.1888 0.6202 25.5788 0.2302C24.9688 -0.1898 24.1388 -0.0198 23.7288 0.6002L18.7488 8.0902C18.1988 8.9302 17.2588 9.3502 16.2588 9.3502C15.1888 9.3502 14.1188 8.8702 13.4288 7.8302L8.6188 0.6002C8.2088 -0.0198 7.3888 -0.1898 6.7688 0.2302C6.1588 0.6202 5.9888 1.4602 6.3988 2.0802L12.2888 10.9102C12.5488 11.2902 12.5588 11.7802 12.2888 12.1802L10.7088 14.5802L7.2088 11.5202C6.6688 11.0502 5.8488 11.0202 5.2488 11.6002L0.3988 16.4902C-0.1312 17.0202 -0.1312 17.8402 0.3988 18.3702C0.9688 18.9002 1.7688 18.8502 2.2488 18.3702L6.1988 14.4402ZM3.1988 1.6302H4.9788C4.9088 1.0602 5.0588 0.4702 5.3888 0.0002H3.1988C2.7488 0.0002 2.3888 0.3702 2.3888 0.8202C2.3888 1.2702 2.7488 1.6302 3.1988 1.6302ZM10.7988 1.6302H21.5488L22.4188 0.3502C22.4888 0.2302 22.5788 0.1102 22.6688 0.0002H9.6788C9.7688 0.1102 9.8688 0.2302 9.9488 0.3502ZM27.3688 1.6302H28.5188C28.9688 1.6302 29.3288 1.2702 29.3288 0.8202C29.3288 0.3702 28.9688 0.0002 28.5188 0.0002H26.9588C27.2888 0.4702 27.4388 1.0602 27.3688 1.6302ZM16.2588 8.0902C17.7388 8.0902 18.9488 6.8902 18.9488 5.4002C18.9488 3.9202 17.7388 2.7202 16.2588 2.7202C14.7788 2.7202 13.5688 3.9202 13.5688 5.4002C13.5688 6.8902 14.7788 8.0902 16.2588 8.0902ZM12.9388 28.0602C13.3488 27.4402 13.1788 26.6502 12.5588 26.2402L8.2788 23.3702L10.5188 20.9002C9.9388 20.6302 9.3988 20.1902 8.8988 19.6302L8.0288 18.5902L5.1688 22.8802C4.7688 23.4802 4.9088 24.3202 5.5388 24.7302L11.1088 28.4302C11.7388 28.8402 12.5488 28.6402 12.9388 28.0602Z" />
        </svg>
    