
        <svg xmlns="http://www.w3.org/2000/svg" viewBox="0 0 100 100">
            <path d="M12.5517 4.6973C13.8517 4.6973 14.9217 3.6573 14.9217 2.3273C14.9217 1.0473 13.8517 -0.0027 12.5517 -0.0027C11.2517 -0.0027 10.2117 1.0473 10.2117 2.3273C10.2117 3.6573 11.2517 4.6973 12.5517 4.6973ZM1.6617 17.9773H2.7817C3.0517 17.9773 3.2417 17.7573 3.2417 17.4873V14.6573H5.1417L4.8517 15.2473C4.5817 15.7873 4.8117 16.4373 5.3217 16.6873C5.8617 16.9773 6.5017 16.7573 6.7717 16.2173L7.5517 14.6573H17.5617L18.3317 16.2173C18.6017 16.7573 19.2417 16.9773 19.7817 16.6873C20.2817 16.4373 20.5317 15.7873 20.2617 15.2473L19.9717 14.6573H21.8417V17.4873C21.8417 17.7573 22.0517 17.9773 22.3117 17.9773H23.4217C23.6917 17.9773 23.9017 17.7573 23.9017 17.4873V14.6573H24.8017C24.9617 14.6573 25.0917 14.5173 25.0917 14.3673C25.0917 14.2073 24.9617 14.0773 24.8017 14.0773H23.9017V11.2273C23.9017 10.9573 23.6917 10.7473 23.4217 10.7473H22.3117C22.0517 10.7473 21.8417 10.9573 21.8417 11.2273V14.0773H19.6717L16.3017 7.2573C15.8217 6.3073 14.9417 5.7373 13.8417 5.7373H11.2717C10.1617 5.7373 9.2817 6.3073 8.8017 7.2573L5.4217 14.0773H3.2417V11.2273C3.2417 10.9573 3.0517 10.7473 2.7817 10.7473H1.6617C1.3917 10.7473 1.1817 10.9573 1.1817 11.2273V14.0773H0.2917C0.1317 14.0773 0.0017 14.2073 0.0017 14.3673C0.0017 14.5173 0.1317 14.6573 0.2917 14.6573H1.1817V17.4873C1.1817 17.7573 1.3917 17.9773 1.6617 17.9773ZM10.1917 13.1673H14.9317V10.1473C14.9317 9.9773 15.2117 9.8773 15.3117 10.0973L17.2717 14.0773H7.8317L9.7817 10.0973C9.9117 9.8773 10.1917 9.9573 10.1917 10.1373ZM8.1917 25.9873C8.6917 26.0973 9.2917 25.8273 9.4617 25.0973L10.4617 20.4773L12.5517 16.3173L14.6217 20.4773L15.6417 25.0973C15.8117 25.8773 16.4617 26.1373 17.0017 25.9773C17.4917 25.8273 17.8817 25.3573 17.7317 24.6173L16.7217 19.8673C16.7017 19.7673 16.6717 19.6973 16.6417 19.6073L15.2117 15.5473H9.9117L8.4517 19.6073C8.4117 19.6973 8.4017 19.7673 8.3917 19.8673L7.3717 24.6173C7.2117 25.3973 7.6517 25.8873 8.1917 25.9873Z" />
        </svg>
    