
        <svg xmlns="http://www.w3.org/2000/svg" viewBox="0 0 100 100">
            <path d="M7.2417 5.1252C8.6617 5.1252 9.8117 3.9852 9.8117 2.5652C9.8117 1.1352 8.6617 -0.0048 7.2417 -0.0048C5.8217 -0.0048 4.6917 1.1352 4.6917 2.5652C4.6917 3.9852 5.8217 5.1252 7.2417 5.1252ZM7.0517 21.1552L18.1717 8.4252C18.4417 8.1352 18.5517 7.8652 18.5517 7.5552C18.5517 6.8552 18.0517 6.3552 17.3317 6.3552H6.9917C4.6517 6.3552 2.7317 7.6952 2.1917 9.7152L1.0417 14.0252C0.5317 15.9652 1.7617 17.1952 3.2617 17.1952C3.7517 17.1952 4.2417 17.0752 4.7317 16.8152L9.9617 14.0352L10.0117 14.0652L12.3717 11.3552L11.8717 11.0952C11.3817 10.8552 10.8617 10.8252 10.3617 11.0552L5.5917 13.1152L6.5517 9.7652C6.7217 9.1752 7.2517 8.7652 7.8717 8.7652H16.1517L5.3017 21.1552C5.8217 21.1052 6.5417 21.0752 7.0517 21.1552ZM14.0317 14.8852L18.1417 16.9452C19.0117 17.3752 19.7017 17.0352 19.9617 16.4752C20.2217 15.9452 20.0617 15.1952 19.2417 14.7852L15.6817 13.0052ZM5.1117 19.6552H0.6517C0.2817 19.6552 0.0017 19.9452 0.0017 20.3052C0.0017 20.6752 0.2817 20.9552 0.6517 20.9552H3.9717ZM21.2817 19.6552H9.8417L8.7217 20.9552H21.2817C21.6417 20.9552 21.9417 20.6752 21.9417 20.3052C21.9417 19.9452 21.6417 19.6552 21.2817 19.6552ZM10.9717 25.1452C13.4217 25.1452 14.0817 23.6052 15.7617 23.6052C17.4417 23.6052 18.1217 25.1452 20.5617 25.1452H21.3317C21.6717 25.1452 21.9217 24.9052 21.9217 24.5752C21.9217 24.2352 21.6817 23.9652 21.3317 23.9652H20.5617C18.9417 23.9652 18.2317 22.4152 15.7617 22.4152C13.4217 22.4152 12.6917 23.9652 10.9717 23.9652C9.2317 23.9652 8.5217 22.4152 6.1617 22.4152C3.6917 22.4152 2.9917 23.9652 1.3717 23.9652H0.6017C0.2617 23.9652 0.0117 24.2352 0.0117 24.5752C0.0117 24.9052 0.2617 25.1452 0.6017 25.1452H1.3717C3.8117 25.1452 4.5017 23.6052 6.1617 23.6052C7.8417 23.6052 8.5217 25.1452 10.9717 25.1452Z" />
        </svg>
    