
        <svg xmlns="http://www.w3.org/2000/svg" viewBox="0 0 100 100">
            <path d="M7.2909 4.5495C8.5609 4.5495 9.5709 3.5595 9.5709 2.2895C9.5709 0.9995 8.5609 -0.0005 7.2909 -0.0005C6.0109 -0.0005 5.0309 0.9995 5.0309 2.2895C5.0309 3.5595 6.0109 4.5495 7.2909 4.5495ZM3.4909 24.2095C3.9909 24.2095 4.3209 23.9095 4.4909 23.2695C4.8709 21.9095 6.0509 17.2995 6.3609 16.1695C6.5809 15.3795 6.8109 15.0395 7.2909 15.0395C7.7709 15.0395 8.0009 15.3795 8.2209 16.1695C8.5409 17.2995 9.7109 21.9095 10.0909 23.2695C10.2609 23.9095 10.5909 24.2095 11.1009 24.2095C11.7609 24.2095 12.1609 23.5995 11.9909 22.9295C11.9209 22.6395 10.2609 15.9495 10.0909 14.5695C9.9109 13.1995 9.8309 10.2195 9.8309 9.5195C9.8309 9.3795 10.0109 9.3195 10.1109 9.4595L11.4109 11.2495C11.6409 10.6495 12.2309 10.0595 13.0509 10.0395L11.4609 7.7695C10.3009 6.0895 8.8709 5.8695 7.2909 5.8695C5.7109 5.8695 4.2809 6.0895 3.1209 7.7695L0.5309 11.5095C0.3509 11.7495 0.2209 11.9295 0.1009 12.1395C-0.1191 12.5595 0.0109 13.1095 0.5309 13.3795C0.9609 13.6095 1.4709 13.5395 1.7909 13.1395C2.0709 12.7695 3.8009 10.3695 4.4609 9.4595C4.5709 9.3195 4.7409 9.3795 4.7409 9.5295C4.7409 10.2195 4.6609 13.1995 4.5009 14.5695C4.3109 15.9495 2.6709 22.6395 2.5909 22.9295C2.4109 23.5995 2.8209 24.2095 3.4909 24.2095ZM16.3709 12.2295C17.3209 12.2295 18.0909 11.4695 18.0909 10.5195C18.0909 9.5895 17.3209 8.8095 16.3709 8.8095C15.4209 8.8095 14.6609 9.5895 14.6609 10.5195C14.6609 11.4695 15.4209 12.2295 16.3709 12.2295ZM14.0109 24.2095C14.4109 24.2095 14.7409 23.9895 14.8709 23.4595C15.1009 22.6395 15.7709 19.8095 15.9909 19.1095C16.1609 18.6395 16.1909 18.5895 16.3509 18.5895C16.4909 18.5895 16.5309 18.6395 16.7009 19.1095C16.9109 19.8095 17.5809 22.6395 17.8209 23.4595C17.9509 23.9895 18.2709 24.2095 18.6809 24.2095C19.2609 24.2095 19.6209 23.6795 19.4609 23.1195C19.4009 22.9195 18.4409 18.8595 18.2909 18.0095C18.2109 17.4995 18.1609 16.6295 18.1609 16.0995C18.1609 15.8395 18.4609 15.7895 18.5809 15.9695L19.9709 17.9695C20.2209 18.3295 20.6509 18.3195 20.9309 18.1095C21.1709 17.9195 21.2909 17.5795 21.0709 17.2295L19.3109 14.4995C18.7409 13.6095 17.7309 13.1795 16.7309 13.1795H16.3509C15.6509 13.1795 15.2609 12.9295 14.7509 12.3995L13.5909 11.1695C13.3209 10.8595 12.7709 10.8595 12.4709 11.2295C12.1709 11.5295 12.0809 11.9495 12.3309 12.3095C12.4409 12.4995 13.4509 13.6295 14.2509 14.6295C14.4109 14.8395 14.5309 15.0595 14.5309 15.3895C14.5309 15.9395 14.5109 17.3095 14.3909 18.0095C14.2409 18.8595 13.2909 22.9195 13.2209 23.1195C13.0609 23.6795 13.4309 24.2095 14.0109 24.2095Z" />
        </svg>
    