
        <svg xmlns="http://www.w3.org/2000/svg" viewBox="0 0 100 100">
            <path d="M12.2223 24.4436C18.9723 24.4436 24.4423 18.9636 24.4423 12.2236C24.4423 5.4736 18.9723 0.0036 12.2223 0.0036C5.4823 0.0036 0.0023 5.4736 0.0023 12.2236C0.0023 18.9636 5.4823 24.4436 12.2223 24.4436ZM14.5523 7.6036C13.7623 7.6036 13.1023 6.9636 13.1023 6.1636C13.1023 5.3536 13.7623 4.7136 14.5523 4.7136C15.3523 4.7136 15.9923 5.3536 15.9923 6.1636C15.9923 6.9636 15.3523 7.6036 14.5523 7.6036ZM12.0923 18.9636C9.2023 18.9636 7.2823 17.0136 7.2823 14.1536C7.2823 13.2936 7.5223 12.4936 7.9223 11.8136C8.3923 11.0436 9.3623 11.6136 8.9423 12.3136C8.6123 12.8336 8.4123 13.4636 8.4123 14.1536C8.4123 16.3336 9.8823 17.8236 12.1023 17.8236C14.2723 17.8236 15.7423 16.3736 15.7423 14.2336C15.7423 13.7536 15.4023 13.4636 14.8923 13.4636H12.6323C11.6823 13.4636 11.1123 12.6436 11.4623 11.6736L12.1923 9.6336C12.2823 9.3736 12.1923 9.2036 11.9223 9.1336L10.5223 8.7636L8.1523 10.0036C7.8123 10.1936 7.4423 10.1236 7.2323 9.8336C7.0223 9.5436 7.0923 9.1036 7.4023 8.9136L9.9923 7.4536C10.2323 7.3136 10.4323 7.2736 10.6923 7.3336L13.3523 8.0136C14.2623 8.2336 14.6723 8.9836 14.3923 9.8336L13.8023 11.6336C13.7423 11.8036 13.8323 11.8936 13.9723 11.8936H14.8523C16.1623 11.8936 16.8723 12.7536 16.8723 14.2336C16.8723 17.0536 14.9523 18.9636 12.0923 18.9636ZM16.9123 18.9636C16.5023 18.9636 16.1723 18.6336 16.1723 18.2236C16.1723 17.8136 16.5023 17.4836 16.9123 17.4836C17.3223 17.4836 17.6523 17.8136 17.6523 18.2236C17.6523 18.6336 17.3223 18.9636 16.9123 18.9636Z" />
        </svg>
    