
        <svg xmlns="http://www.w3.org/2000/svg" viewBox="0 0 100 100">
            <path d="M16.9707 4.9484C18.3407 4.9484 19.4407 3.8484 19.4407 2.4684C19.4407 1.0984 18.3407 -0.0016 16.9707 -0.0016C15.6007 -0.0016 14.4907 1.0984 14.4907 2.4684C14.4907 3.8484 15.6007 4.9484 16.9707 4.9484ZM4.6007 16.8384H11.1707L17.2407 17.6984C19.5107 18.0084 21.1407 17.0284 21.1407 14.8584V10.7484C21.1407 10.5484 21.3607 10.4684 21.5007 10.6084L22.6307 11.7384V15.6484C22.6307 16.2984 23.1807 16.8384 23.8107 16.8384C24.4707 16.8384 24.9807 16.2984 24.9807 15.6484V11.2384C24.9807 10.9184 24.8807 10.6284 24.6307 10.4084L21.7607 7.5384C20.9007 6.6984 19.8107 6.2084 18.6007 6.2084H7.3307C6.7007 6.2084 6.1607 6.7584 6.1607 7.3984C6.1607 8.0584 6.6807 8.5784 7.3307 8.5784H15.9907C16.3307 8.5784 16.5907 8.8484 16.5907 9.1784V14.4584H4.6007C3.9407 14.4584 3.4107 14.9884 3.4107 15.6484C3.4107 16.2984 3.9507 16.8384 4.6007 16.8384ZM1.1607 11.7984C2.6407 13.2684 4.3107 13.0984 4.9307 12.4884C5.5407 11.8584 5.5907 10.3284 4.1207 8.8384C2.6207 7.3484 1.0807 7.3784 0.4407 8.0284C-0.1793 8.6484 -0.3193 10.2884 1.1607 11.7984ZM19.1507 26.9284C19.6007 27.3884 20.3507 27.3884 20.8107 26.9284C21.2707 26.4684 21.2607 25.7384 20.8107 25.2684L17.0307 21.4484L18.4107 18.7884C18.0007 18.8084 17.5407 18.7884 17.0807 18.7284L15.4707 18.5084L14.4507 21.2784C14.3007 21.6984 14.3907 22.1684 14.7407 22.5284Z" />
        </svg>
    