
        <svg xmlns="http://www.w3.org/2000/svg" viewBox="0 0 100 100">
            <path d="M11.4923 22.977C17.8123 22.977 22.9823 17.827 22.9823 11.497C22.9823 5.167 17.8123 -0.003 11.4923 -0.003C5.1723 -0.003 0.0023 5.167 0.0023 11.497C0.0023 17.827 5.1723 22.977 11.4923 22.977ZM12.8923 8.097C12.1023 8.097 11.4623 7.457 11.4623 6.667C11.4623 5.897 12.1023 5.247 12.8923 5.247C13.6623 5.247 14.3123 5.897 14.3123 6.667C14.3123 7.457 13.6623 8.097 12.8923 8.097ZM13.7923 12.637H10.7223C10.3523 12.637 10.0423 12.327 10.0423 11.957V10.387C10.0423 10.147 9.9423 10.067 9.6823 10.117L6.9723 10.617C6.8423 10.627 6.7923 10.777 6.9023 10.897L8.8123 12.817C8.9723 12.997 9.0223 13.127 9.0223 13.367V17.077C9.0223 17.437 8.7023 17.757 8.3423 17.757C7.9723 17.757 7.6523 17.437 7.6523 17.077V13.627L5.1523 11.427C4.1123 10.487 4.5023 8.777 5.9523 8.477L9.9723 7.637C10.7223 7.487 11.4023 8.007 11.4023 8.827V11.257H13.7923C14.1823 11.257 14.4723 11.577 14.4723 11.957C14.4723 12.327 14.1823 12.637 13.7923 12.637ZM17.4723 15.097C16.9823 15.097 16.5823 14.847 16.3723 14.417L15.7623 13.227C15.6823 13.047 15.7823 12.917 15.9123 12.857C16.0223 12.807 16.1823 12.847 16.2623 12.997L16.8523 14.177C16.9723 14.407 17.1823 14.547 17.4723 14.547H18.3123V8.957H17.4423C15.4923 8.957 14.2523 9.437 12.9723 10.777H12.2223C13.7423 9.007 15.1123 8.417 17.4423 8.417H18.4823C18.7023 8.417 18.8523 8.577 18.8523 8.777V14.657C18.8523 14.937 18.7023 15.097 18.4123 15.097ZM9.5023 14.827V14.117C9.9023 13.797 10.1923 13.477 10.5123 13.077C10.5923 13.097 10.6923 13.097 10.7423 13.097H11.2023C10.7023 13.757 10.1823 14.347 9.5023 14.827ZM4.9223 15.787C4.7823 15.787 4.6523 15.657 4.6523 15.527C4.6523 15.377 4.7723 15.237 4.9223 15.237H6.0623C6.4423 15.237 6.8123 15.207 7.1823 15.157V15.707C6.8123 15.747 6.4423 15.787 6.0623 15.787Z" />
        </svg>
    