
        <svg xmlns="http://www.w3.org/2000/svg" viewBox="0 0 100 100">
            <path d="M12.6023 25.1986C19.5623 25.1986 25.2023 19.5586 25.2023 12.5986C25.2023 5.6386 19.5623 -0.0014 12.6023 -0.0014C5.6323 -0.0014 0.0023 5.6386 0.0023 12.5986C0.0023 19.5586 5.6323 25.1986 12.6023 25.1986ZM12.6023 21.5386C7.6523 21.5386 3.6523 17.5386 3.6523 12.5986C3.6523 7.6486 7.6523 3.6586 12.6023 3.6586C17.5423 3.6586 21.5423 7.6486 21.5423 12.5986C21.5423 17.5386 17.5423 21.5386 12.6023 21.5386ZM12.6023 8.2986C13.3323 8.2986 13.9323 7.6886 13.9323 6.9486C13.9323 6.1986 13.3323 5.5986 12.6023 5.5986C11.8623 5.5986 11.2523 6.1986 11.2523 6.9486C11.2523 7.6886 11.8623 8.2986 12.6023 8.2986ZM10.9923 17.5686C11.2223 17.4986 11.3823 17.4286 11.4923 17.2186L12.7523 14.9886C12.7723 14.9386 12.8123 14.9186 12.8423 14.9186H15.7923V17.7686C15.7923 18.1386 16.1023 18.4286 16.4723 18.4286C16.8623 18.4286 17.1723 18.1386 17.1723 17.7686V14.3086C17.1723 13.8786 16.9123 13.6086 16.4623 13.5586L13.9323 13.3286V10.1286C13.9323 9.4486 13.4523 8.8586 12.6023 8.8586H12.3123C11.8323 8.8586 11.4523 8.9286 10.9723 9.3086L9.0223 10.7586C8.6523 11.0386 8.6823 11.5986 9.0723 11.8686L11.3923 13.4286V13.5086L10.3923 16.3086L7.9223 16.9886C7.5723 17.0986 7.3523 17.4686 7.4523 17.8286C7.5623 18.2086 7.9123 18.4086 8.2723 18.3086ZM10.6123 11.2586L11.2623 10.7786C11.3223 10.7386 11.3923 10.7686 11.3923 10.8386V11.7886Z" />
        </svg>
    