
        <svg xmlns="http://www.w3.org/2000/svg" viewBox="0 0 100 100">
            <path d="M12.7923 25.5978C19.8723 25.5978 25.6023 19.8678 25.6023 12.7978C25.6023 5.7278 19.8723 -0.0022 12.7923 -0.0022C5.7323 -0.0022 0.0023 5.7278 0.0023 12.7978C0.0023 19.8678 5.7323 25.5978 12.7923 25.5978ZM15.0423 8.9978C14.2823 8.9978 13.6323 8.3578 13.6323 7.5778C13.6323 6.7978 14.2823 6.1378 15.0423 6.1378C15.8423 6.1378 16.4923 6.7978 16.4923 7.5778C16.4923 8.3578 15.8423 8.9978 15.0423 8.9978ZM10.1723 17.1678C9.7923 16.9478 9.6923 16.4678 9.9123 16.0978L10.9223 14.4978C9.5823 14.2178 9.0223 12.7178 9.7823 11.5978L11.1323 9.5878C11.1723 9.5278 11.1423 9.4478 11.0523 9.3978L10.0323 8.7878H7.7323C7.3123 8.7878 6.9723 8.4278 6.9723 8.0178C6.9723 7.6178 7.3123 7.2678 7.7323 7.2678H10.1823C10.4023 7.2678 10.5223 7.2978 10.7023 7.3978L18.5023 12.0778C18.8623 12.3078 18.9623 12.7778 18.7623 13.1378C18.5623 13.4778 18.0623 13.5978 17.7323 13.3778L13.7923 11.0278C13.7123 10.9778 13.6323 11.0078 13.5823 11.0778L12.5323 12.6478C12.4323 12.7978 12.4923 12.9378 12.6423 12.9578L15.2623 13.2278C15.9523 13.2878 16.1923 13.9578 15.9023 14.4378L14.3523 16.8978C14.1223 17.2778 13.6623 17.3778 13.3123 17.1678C12.9523 16.9578 12.8323 16.4678 13.0423 16.0978L13.9523 14.6878L12.6323 14.6278L11.2123 16.9378C11.0023 17.2578 10.5123 17.3778 10.1723 17.1678ZM8.6323 19.0878C7.9423 19.0878 7.3223 18.9278 6.8423 18.5178C6.5523 18.2578 6.6023 17.8778 6.7823 17.6678C6.9823 17.4878 7.2923 17.4278 7.5723 17.6478C7.8723 17.8578 8.1223 17.9778 8.6323 17.9778H16.9023C17.4223 17.9778 17.6723 17.8578 17.9723 17.6478C18.2723 17.4178 18.6223 17.5178 18.7823 17.7378C18.9523 17.9678 18.9723 18.2678 18.6923 18.5178C18.2123 18.9278 17.6023 19.0878 16.9023 19.0878Z" />
        </svg>
    