
        <svg xmlns="http://www.w3.org/2000/svg" viewBox="0 0 100 100">
            <path d="M6.5652 5.0416C7.9552 5.0416 9.0652 3.8816 9.0652 2.5316C9.0652 1.1416 7.9552 0.0016 6.5652 0.0016C5.1652 0.0016 4.0752 1.1416 4.0752 2.5316C4.0752 3.9416 5.1652 5.0416 6.5652 5.0416ZM23.4052 4.1016H28.1152C28.4152 4.1016 28.4952 3.7716 28.2352 3.6016L26.0952 2.1316C25.8652 1.9916 25.6552 1.9916 25.4352 2.1316L23.2952 3.6016C23.0352 3.7716 23.1152 4.1016 23.4052 4.1016ZM10.3152 7.1016L12.4752 4.7116C12.8252 4.3116 12.7952 3.8916 12.4552 3.6016C12.1352 3.3116 11.7252 3.3116 11.3652 3.7216L8.9552 6.4216C9.4352 6.6116 9.9052 6.8416 10.3152 7.1016ZM16.8852 7.1916V9.9816C16.8852 10.7916 17.4652 11.3816 18.2652 11.3816H20.4652C21.2652 11.3816 21.8652 10.7916 21.8652 9.9816V7.1916C21.8652 6.4016 21.2652 5.8116 20.4652 5.8116H18.2652C17.4652 5.8116 16.8852 6.4016 16.8852 7.1916ZM23.2752 7.1916V9.9816C23.2752 10.7916 23.8752 11.3816 24.6852 11.3816H26.8752C27.6752 11.3816 28.2552 10.7916 28.2552 9.9816V7.1916C28.2552 6.4016 27.6752 5.8116 26.8752 5.8116H24.6852C23.8752 5.8116 23.2752 6.4016 23.2752 7.1916ZM29.6752 7.1916V9.9816C29.6752 10.7916 30.2752 11.3816 31.0852 11.3816H33.2752C34.0852 11.3816 34.6652 10.7916 34.6652 9.9816V7.1916C34.6652 6.4016 34.0852 5.8116 33.2752 5.8116H31.0852C30.2752 5.8116 29.6752 6.4016 29.6752 7.1916ZM1.7352 14.4416L8.9552 6.4216C8.2152 6.1416 7.4452 6.0316 6.5652 6.0316C3.3252 6.0316 1.4152 7.5916 1.4152 10.2116C1.4152 10.8416 1.4352 11.6816 1.5252 12.5416ZM11.3952 14.4416L11.5952 12.5416C11.6852 11.6816 11.7252 10.8416 11.7252 10.2116C11.7252 8.8816 11.2652 7.8316 10.3152 7.1116L4.5052 13.6016C5.1952 13.4716 5.8752 13.4316 6.5652 13.4316C8.1652 13.4316 9.7652 13.6416 11.3952 14.4416ZM19.3552 9.8016C18.6952 9.8016 18.1352 9.2616 18.1352 8.5916C18.1352 7.9316 18.6952 7.3916 19.3552 7.3916C20.0052 7.3916 20.5552 7.9316 20.5552 8.5916C20.5552 9.2616 20.0052 9.8016 19.3552 9.8016ZM25.7552 9.8016C25.0952 9.8016 24.5452 9.2616 24.5452 8.5916C24.5452 7.9316 25.0952 7.3916 25.7552 7.3916C26.3952 7.3916 26.9552 7.9316 26.9552 8.5916C26.9552 9.2616 26.3952 9.8016 25.7552 9.8016ZM32.1452 9.8016C31.4952 9.8016 30.9352 9.2616 30.9352 8.5916C30.9352 7.9316 31.4952 7.3916 32.1452 7.3916C32.7952 7.3916 33.3552 7.9316 33.3552 8.5916C33.3552 9.2616 32.7952 9.8016 32.1452 9.8016ZM16.8852 15.3716V18.1516C16.8852 18.9616 17.4652 19.5516 18.2652 19.5516H20.4652C21.2652 19.5516 21.8652 18.9616 21.8652 18.1516V15.3716C21.8652 14.5616 21.2652 13.9816 20.4652 13.9816H18.2652C17.4652 13.9816 16.8852 14.5616 16.8852 15.3716ZM23.2752 15.3716V18.1516C23.2752 18.9616 23.8752 19.5516 24.6852 19.5516H26.8752C27.6752 19.5516 28.2552 18.9616 28.2552 18.1516V15.3716C28.2552 14.5616 27.6752 13.9816 26.8752 13.9816H24.6852C23.8752 13.9816 23.2752 14.5616 23.2752 15.3716ZM29.6752 15.3716V18.1516C29.6752 18.9616 30.2752 19.5516 31.0852 19.5516H33.2752C34.0852 19.5516 34.6652 18.9616 34.6652 18.1516V15.3716C34.6652 14.5616 34.0852 13.9816 33.2752 13.9816H31.0852C30.2752 13.9816 29.6752 14.5616 29.6752 15.3716ZM0.3252 15.2916C-0.0648 15.5816 -0.0648 16.0116 0.1252 16.3116C0.2952 16.6216 0.7052 16.7716 1.1052 16.5116C1.3752 16.3216 1.6452 16.1616 1.9252 16.0116L1.7352 14.4416C1.2252 14.6716 0.7552 14.9516 0.3252 15.2916ZM3.8052 22.7316C4.4552 22.6516 4.9052 22.1716 4.8252 21.3516L4.3652 17.1516H8.7752L8.3352 21.3516C8.2452 22.1716 8.6652 22.6516 9.3352 22.7316C10.0152 22.8016 10.5452 22.3816 10.6252 21.5716L11.2152 16.0116C11.5052 16.1616 11.7552 16.3216 12.0452 16.5116C12.4352 16.7716 12.8352 16.6316 13.0152 16.3216C13.2152 16.0216 13.2152 15.5816 12.8252 15.2916C12.3852 14.9516 11.9252 14.6716 11.3952 14.4416L11.2052 15.9916C9.7452 15.1616 8.1252 14.8316 6.5652 14.8316C5.0052 14.8316 3.3852 15.1616 1.9252 16.0116L2.5152 21.5716C2.5952 22.3816 3.1152 22.8016 3.8052 22.7316ZM19.3552 17.9616C18.6952 17.9616 18.1352 17.4216 18.1352 16.7416C18.1352 16.1016 18.6952 15.5616 19.3552 15.5616C20.0052 15.5616 20.5552 16.1016 20.5552 16.7416C20.5552 17.4216 20.0052 17.9616 19.3552 17.9616ZM25.7552 17.9616C25.0952 17.9616 24.5452 17.4216 24.5452 16.7416C24.5452 16.1016 25.0952 15.5616 25.7552 15.5616C26.3952 15.5616 26.9552 16.1016 26.9552 16.7416C26.9552 17.4216 26.3952 17.9616 25.7552 17.9616ZM32.1452 17.9616C31.4952 17.9616 30.9352 17.4216 30.9352 16.7416C30.9352 16.1016 31.4952 15.5616 32.1452 15.5616C32.7952 15.5616 33.3552 16.1016 33.3552 16.7416C33.3552 17.4216 32.7952 17.9616 32.1452 17.9616Z" />
        </svg>
    