
        <svg xmlns="http://www.w3.org/2000/svg" viewBox="0 0 100 100">
            <path d="M11.4923 22.977C17.8323 22.977 22.9823 17.847 22.9823 11.497C22.9823 5.147 17.8323 -0.003 11.4923 -0.003C5.1423 -0.003 0.0023 5.147 0.0023 11.497C0.0023 17.847 5.1423 22.977 11.4923 22.977ZM11.4923 22.087C5.6323 22.087 0.8923 17.357 0.8923 11.497C0.8923 5.637 5.6323 0.887 11.4923 0.887C17.3523 0.887 22.0923 5.637 22.0923 11.497C22.0923 17.357 17.3523 22.087 11.4923 22.087ZM11.4823 6.607C12.2423 6.607 12.8923 5.977 12.8923 5.187C12.8923 4.427 12.2423 3.787 11.4823 3.787C10.7023 3.787 10.0623 4.427 10.0623 5.187C10.0623 5.977 10.7023 6.607 11.4823 6.607ZM9.6523 16.907C9.9123 16.837 10.0623 16.767 10.1723 16.577L11.6023 14.007C11.6123 13.967 11.6523 13.947 11.6823 13.947H15.1623V17.227C15.1623 17.597 15.4723 17.887 15.8223 17.887C16.1823 17.887 16.4723 17.597 16.4723 17.227V13.367C16.4723 12.937 16.2423 12.687 15.7923 12.647L12.8823 12.377V8.697C12.8823 7.977 12.3623 7.397 11.4823 7.397H11.1823C10.6423 7.397 10.2423 7.487 9.7423 7.877L7.5623 9.507C7.1923 9.777 7.2223 10.317 7.5923 10.567L10.2423 12.337V12.507L9.0923 15.707L5.8823 16.577C5.5423 16.677 5.3323 17.037 5.4223 17.387C5.5423 17.757 5.8623 17.957 6.2323 17.847ZM9.0923 9.987L10.0823 9.247C10.1523 9.197 10.2423 9.237 10.2423 9.337V10.747Z" />
        </svg>
    