
        <svg xmlns="http://www.w3.org/2000/svg" viewBox="0 0 100 100">
            <path d="M10.1617 21.2158L14.5317 24.3958L11.9717 29.4958C11.6617 30.1158 11.9217 30.9258 12.5717 31.2558C13.1717 31.5358 13.9717 31.3458 14.3117 30.6658L17.3317 24.6258C17.5817 24.1158 17.5317 23.4958 17.0517 23.0458L14.9317 21.0458H18.5817C19.3317 21.0458 19.9017 20.4758 19.9017 19.7558V14.8958C19.9017 12.8458 18.2417 11.1658 16.1717 11.1658H12.1417V10.0558L12.5617 8.5658C12.7017 8.0458 12.5317 7.5158 12.1417 7.1958V5.2458C12.8017 4.3458 13.4617 3.0658 13.4617 2.1658C13.4617 0.8858 12.5817 -0.0042 11.3317 -0.0042C10.0517 -0.0042 9.1617 0.8858 9.1617 2.1658C9.1617 3.1558 9.8217 4.4458 10.5017 5.2658V7.2058C10.3017 7.3758 10.1617 7.5958 10.0917 7.8558L8.8717 12.0958C8.6417 12.9458 9.1517 13.7558 10.0617 13.7558H10.5017V15.6958C8.4117 16.8358 8.1917 19.7658 10.1617 21.2158ZM21.0017 11.7058C22.4717 11.7058 23.6817 10.5158 23.6817 9.0158C23.6817 7.5358 22.4717 6.3358 21.0017 6.3358C19.5117 6.3358 18.3017 7.5358 18.3017 9.0158C18.3017 10.5158 19.5117 11.7058 21.0017 11.7058ZM14.0417 13.7558C14.0817 13.7558 14.1217 13.8358 14.0717 13.8758L12.1417 14.8558V13.7558ZM15.0017 18.5458L17.1817 17.5058C17.2817 17.4658 17.4117 17.5358 17.4117 17.6458V18.5458ZM8.3117 21.0458L7.3517 23.9058H1.3217C0.5817 23.9058 0.0017 24.4958 0.0017 25.2058C0.0017 25.9458 0.5817 26.5358 1.3217 26.5358H8.2717C8.7617 26.5358 9.2417 26.2458 9.4717 25.7958L10.7617 23.1758L9.4317 22.2158C8.9617 21.8758 8.6017 21.4758 8.3117 21.0458Z" />
        </svg>
    