
        <svg xmlns="http://www.w3.org/2000/svg" viewBox="0 0 100 100">
            <path d="M12.1023 24.2064C18.7823 24.2064 24.2123 18.7864 24.2123 12.1064C24.2123 5.4264 18.7823 -0.0036 12.1023 -0.0036C5.4223 -0.0036 0.0023 5.4264 0.0023 12.1064C0.0023 18.7864 5.4223 24.2064 12.1023 24.2064ZM16.6923 8.5164C15.8623 8.5164 15.2323 7.8764 15.2323 7.0664C15.2323 6.2564 15.8623 5.6164 16.6923 5.6164C17.4823 5.6164 18.1323 6.2564 18.1323 7.0664C18.1323 7.8764 17.4823 8.5164 16.6923 8.5164ZM11.9423 15.6664C11.5623 15.6664 11.2523 15.3664 11.2523 14.9864V11.9964L8.8623 9.5764C8.3823 9.0964 8.2423 8.3764 8.4923 7.7464C8.7623 7.1364 9.3623 6.7264 10.0323 6.7264H13.2623C13.9923 6.7264 14.6023 7.3164 14.6023 8.0664V10.3464H16.5623C16.9323 10.3464 17.2423 10.6664 17.2423 11.0364C17.2423 11.4064 16.9323 11.7164 16.5623 11.7164H13.9123C13.5423 11.7164 13.2423 11.4064 13.2423 11.0364V9.4064C13.2423 9.2264 13.1623 9.0664 12.9423 9.0664H10.8423C10.7023 9.0664 10.6123 9.2264 10.7223 9.3364L12.4223 11.2464C12.5523 11.3764 12.6223 11.5264 12.6223 11.6964V14.9864C12.6223 15.3664 12.3023 15.6664 11.9423 15.6664ZM7.5223 17.9264C5.7423 17.9264 4.3023 16.4964 4.3023 14.7164C4.3023 12.9264 5.7423 11.4764 7.5223 11.4764C9.3123 11.4764 10.7723 12.9264 10.7723 14.7164C10.7723 16.4964 9.3123 17.9264 7.5223 17.9264ZM17.9023 13.0064C17.6323 12.7664 17.6723 12.5064 17.8123 12.3364C17.9623 12.1864 18.2323 12.1064 18.4523 12.3064C19.1323 12.9064 19.5723 13.7664 19.5723 14.7464C19.5723 16.5364 18.1323 17.9664 16.3323 17.9664C14.5523 17.9664 13.1123 16.5364 13.1123 14.7464C13.1123 14.2764 13.2023 13.8364 13.3923 13.4264C13.5023 13.1464 13.7623 13.0864 13.9523 13.1864C14.1723 13.2564 14.3223 13.4864 14.1823 13.8064C14.0523 14.1064 13.9923 14.4264 13.9923 14.7464C13.9923 16.0464 15.0323 17.0864 16.3323 17.0864C17.6323 17.0864 18.6923 16.0464 18.6923 14.7464C18.6923 14.0464 18.3823 13.4264 17.9023 13.0064ZM7.5223 17.0464C8.8223 17.0464 9.8923 16.0164 9.8923 14.7164C9.8923 13.4064 8.8223 12.3564 7.5223 12.3564C6.2223 12.3564 5.1823 13.4064 5.1823 14.7164C5.1823 16.0164 6.2223 17.0464 7.5223 17.0464Z" />
        </svg>
    