
        <svg xmlns="http://www.w3.org/2000/svg" viewBox="0 0 100 100">
            <path d="M23.6217 4.2508C23.6217 3.6108 23.1117 3.1108 22.4717 3.1108H17.1417V1.0908C17.1417 0.0408 16.1017 -0.3292 15.3917 0.3208L11.8017 3.5108C11.3017 3.9608 11.3117 4.5608 11.8017 5.0108L15.3917 8.2108C16.1417 8.8708 17.1417 8.4408 17.1417 7.4308V5.4108H22.4717C23.1117 5.4108 23.6217 4.8908 23.6217 4.2508ZM3.3517 7.5308C5.2117 7.5308 6.6917 6.0108 6.6917 4.1908C6.6917 2.3208 5.2117 0.8108 3.3517 0.8108C1.4917 0.8108 0.0017 2.3208 0.0017 4.1908C0.0017 5.9808 1.4917 7.5308 3.3517 7.5308ZM23.1417 25.1808C23.7617 24.5708 23.8317 23.5508 23.0317 22.7108L17.6017 17.0808C16.3917 15.8208 15.1217 15.6408 13.6017 16.2008L10.7317 17.2408L7.3317 11.0408C6.2817 9.1208 4.4617 8.4108 2.7317 9.3708C0.9417 10.3408 0.6017 12.2508 1.6417 14.1608L4.1717 18.7608C5.3817 20.9608 8.0517 21.9308 10.6917 20.9308L14.6717 19.4308C14.9517 19.3208 15.0917 19.3608 15.2817 19.5508L20.5217 24.9808C21.3517 25.8208 22.4717 25.8808 23.1417 25.1808Z" />
        </svg>
    