
        <svg xmlns="http://www.w3.org/2000/svg" viewBox="0 0 100 100">
            <path d="M11.7523 23.5048C18.2323 23.5048 23.5123 18.2348 23.5123 11.7548C23.5123 5.2748 18.2323 0.0048 11.7523 0.0048C5.2723 0.0048 0.0023 5.2748 0.0023 11.7548C0.0023 18.2348 5.2723 23.5048 11.7523 23.5048ZM14.2423 8.5348C13.4423 8.5348 12.8123 7.8848 12.8123 7.0748C12.8123 6.2948 13.4423 5.6448 14.2423 5.6448C15.0323 5.6448 15.6823 6.2948 15.6823 7.0748C15.6823 7.8848 15.0323 8.5348 14.2423 8.5348ZM4.7923 8.4448C4.7923 8.0848 5.1023 7.7848 5.4723 7.7848H11.0823C11.5623 7.7848 12.0223 7.9648 12.3623 8.3048L15.2123 11.1548H17.6823C17.7423 11.1548 17.8123 11.1548 17.8723 11.1648V10.2748C17.5523 9.8648 16.7023 8.6348 16.7023 7.5248C16.7023 6.6548 17.3623 6.0048 18.2223 6.0048C19.0923 6.0048 19.7423 6.6548 19.7423 7.5248C19.7423 8.6348 18.8823 9.8948 18.5623 10.2748V11.8348C18.5623 12.2148 18.2623 12.5048 17.8923 12.5048H14.9323C14.7523 12.5048 14.5823 12.4348 14.4623 12.3048L12.9223 10.7848C12.8223 10.6848 12.7023 10.6648 12.5723 10.7248L9.9923 12.0148L12.0323 14.0548C12.2723 14.2848 12.2823 14.5748 12.1623 14.8348L10.4623 18.2148C10.2823 18.5948 9.9023 18.6748 9.6123 18.5748C9.2723 18.4448 9.0223 18.0848 9.2623 17.6148L10.6923 14.7448L8.2123 12.9348C7.7223 12.5748 7.4623 12.0348 7.4623 11.4948C7.4623 10.8648 7.8023 10.2348 8.4723 9.9048L9.7423 9.2848C9.7923 9.2448 9.7723 9.1248 9.7023 9.1248H5.4723C5.1023 9.1248 4.7923 8.8248 4.7923 8.4448ZM17.3923 7.5248C17.3923 8.1748 17.9023 9.0848 18.2223 9.5848C18.5423 9.0848 19.0523 8.1748 19.0523 7.5248C19.0523 7.0448 18.7123 6.7048 18.2223 6.7048C17.7423 6.7048 17.3923 7.0448 17.3923 7.5248ZM3.3423 15.2148C3.3423 14.8348 3.6323 14.5348 4.0123 14.5348H6.6723L7.2623 12.7048C7.3923 12.9048 7.5623 13.1348 7.8823 13.3748L8.5823 13.8848L7.7723 15.5148C7.6623 15.7348 7.4223 15.8748 7.1623 15.8748H4.0123C3.6323 15.8748 3.3423 15.5748 3.3423 15.2148Z" />
        </svg>
    