
        <svg xmlns="http://www.w3.org/2000/svg" viewBox="0 0 100 100">
            <path d="M14.8517 4.1719C15.9917 4.1719 16.9217 3.2419 16.9217 2.0819C16.9217 0.9419 15.9917 0.0019 14.8517 0.0019C13.6717 0.0019 12.7517 0.9419 12.7517 2.0819C12.7517 3.2419 13.6717 4.1719 14.8517 4.1719ZM6.2217 8.7819C7.5217 8.7819 8.5917 7.7319 8.5917 6.4119C8.5917 5.1219 7.5217 4.0819 6.2217 4.0819C4.9317 4.0819 3.8817 5.1219 3.8817 6.4119C3.8817 7.7319 4.9317 8.7819 6.2217 8.7819ZM0.0017 14.0319C0.0017 14.8719 0.8817 15.2619 1.5617 14.9219L5.3217 13.0219C5.4917 12.9419 5.7117 13.0319 5.7517 13.2319L6.8417 17.6219L5.1217 21.9219H1.0517C0.4817 21.9219 0.0017 22.4019 0.0017 22.9819C0.0017 23.5619 0.4817 24.0219 1.0517 24.0219H5.7817C6.2617 24.0219 6.5517 23.8519 6.8017 23.4119L9.0917 19.1719L10.3817 22.5519L6.3017 25.2819C5.8217 25.6019 5.6917 26.2819 6.0017 26.7419C6.3317 27.2219 6.9517 27.3719 7.4617 27.0319L12.2917 23.8319C12.6417 23.5919 12.8317 23.2419 12.6717 22.5919L9.8117 11.2519C9.7517 10.9919 9.8117 10.7819 10.0817 10.6519L17.4217 6.9719C17.9517 6.7119 18.1717 6.0819 17.9017 5.5519C17.6417 5.0319 17.0017 4.8019 16.4717 5.0719L2.1217 12.2619V8.6719C2.1217 8.1019 1.6517 7.6319 1.0517 7.6319C0.4817 7.6319 0.0017 8.1019 0.0017 8.6719Z" />
        </svg>
    