
        <svg xmlns="http://www.w3.org/2000/svg" viewBox="0 0 100 100">
            <path d="M15.4665 4.9838C16.8265 4.9838 17.9365 3.8637 17.9365 2.4838C17.9365 1.1137 16.8265 0.0038 15.4665 0.0038C14.0665 0.0038 12.9565 1.1137 12.9565 2.4838C12.9565 3.8637 14.0665 4.9838 15.4665 4.9838ZM9.6665 22.6638C10.3165 22.6638 10.8565 22.1338 10.8565 21.5038V15.5138C10.8565 15.2338 10.7665 14.9738 10.5865 14.7738L7.8865 11.4637C7.7065 11.2538 7.7665 11.0138 7.9765 10.8938L11.2665 9.2038C11.5165 9.0738 11.7465 9.1538 11.7965 9.4438L12.0765 11.4637C12.1365 11.9038 12.3965 12.2137 12.8665 12.4438L16.1065 14.0638C16.9765 14.4938 17.6765 14.1438 17.8965 13.5738C18.1165 13.0438 17.9465 12.3738 17.2365 12.0138L14.3365 10.5338L13.8565 7.0938C13.6165 5.2538 11.5865 4.1238 9.6365 5.1438L5.3665 7.3738C3.3965 8.4038 3.1265 10.6538 4.5865 12.1138L8.5065 16.0238V21.5038C8.5065 22.1338 9.0465 22.6638 9.6665 22.6638ZM0.5365 15.2838C0.9765 16.0938 1.8065 16.3238 2.6365 16.1338L2.8665 16.0938L5.6665 24.3738L3.4065 25.8638C2.9665 26.1438 3.0965 26.7538 3.5765 26.7538H15.6865C16.1465 26.7538 16.2865 26.1238 15.8765 25.8638L13.6365 24.3938L16.4865 15.8238C16.5865 15.5138 16.4265 15.1838 16.1565 15.1038C15.8365 15.0138 15.5465 15.1738 15.4365 15.4838L13.6965 20.6338C13.3265 19.7338 12.6765 18.9938 11.8265 18.5138V19.9438C12.4765 20.5338 12.8665 21.3738 12.8665 22.3038C12.8665 24.0838 11.4065 25.5238 9.6365 25.5238C7.8965 25.5238 6.4165 24.0438 6.4165 22.3038C6.4165 21.3638 6.8465 20.4938 7.5165 19.8938V18.4938C6.6465 18.9538 5.9665 19.7138 5.5865 20.6338L3.9765 15.8438L5.0965 15.5938C5.4365 15.5238 5.6565 15.2838 5.6565 14.9138C5.6565 14.5638 5.3965 14.3038 5.0665 14.2538L0.8665 13.5238C0.1465 13.3938 -0.2035 13.9638 0.1265 14.5538Z" />
        </svg>
    