
        <svg xmlns="http://www.w3.org/2000/svg" viewBox="0 0 100 100">
            <path d="M11.9523 23.9041C18.5523 23.9041 23.9023 18.5341 23.9023 11.9541C23.9023 5.3541 18.5523 0.0041 11.9523 0.0041C5.3623 0.0041 0.0023 5.3541 0.0023 11.9541C0.0023 18.5341 5.3623 23.9041 11.9523 23.9041ZM12.5423 6.9641C11.7223 6.9641 11.0523 6.2941 11.0523 5.4841C11.0523 4.6741 11.7223 4.0241 12.5423 4.0241C13.3323 4.0241 14.0023 4.6741 14.0023 5.4841C14.0023 6.2941 13.3323 6.9641 12.5423 6.9641ZM14.1123 18.8241L12.6423 15.8441C12.5823 15.7241 12.5723 15.6441 12.4323 15.4841L11.0123 13.7041C10.4923 13.0441 10.3023 12.6541 10.3623 11.8941L10.4723 10.3641C10.4923 10.1441 10.2423 10.0541 10.0523 10.2141L9.5423 10.6641L9.3823 12.4941C9.3423 12.9341 9.1023 13.1741 8.7223 13.1341C8.3323 13.1241 8.1123 12.8341 8.1423 12.4241L8.2623 10.7541C8.2923 10.3241 8.4023 10.0341 8.7523 9.6841L9.8223 8.6241C10.5123 7.9541 11.0023 7.5841 11.7423 7.5841C12.7423 7.5841 13.3023 8.3041 13.2323 9.2941L13.0923 11.2941C13.0423 12.0241 12.9623 12.4541 12.7023 13.1841L12.6323 13.3641L13.5623 14.6741C13.6923 14.8441 13.8323 15.0941 13.9423 15.2941L15.3623 18.2041C15.8423 19.1441 14.5423 19.6841 14.1123 18.8241ZM16.5623 10.3341C16.9823 10.3341 17.2523 10.5741 17.2523 10.9541C17.2523 11.3441 16.9823 11.5741 16.5623 11.5741H15.0423C14.6223 11.5741 14.4423 11.5241 14.2023 11.2841L13.7923 10.8741L13.9223 9.2041L14.9323 10.3341ZM9.0023 19.0041C8.4423 19.6741 7.3623 18.9041 8.0323 18.1141L10.1023 15.6441L10.4523 14.0541L11.5523 15.4841L11.4123 15.9541C11.3323 16.2041 11.2923 16.2641 11.1023 16.5141Z" />
        </svg>
    