
        <svg xmlns="http://www.w3.org/2000/svg" viewBox="0 0 100 100">
            <path d="M24.2117 7.0602C24.4717 6.8002 24.4717 6.3802 24.2017 6.1102L20.9317 2.8402L22.2517 1.5002C22.7417 1.0102 22.4217 0.3402 21.7717 0.3002L17.9017 0.0002C17.4217 -0.0298 17.1217 0.3102 17.1417 0.7802L17.4417 4.6302C17.4817 5.3002 18.1717 5.5902 18.6417 5.1202L19.9817 3.7902L23.2617 7.0602C23.5217 7.3302 23.9517 7.3302 24.2117 7.0602ZM3.0917 10.7602C4.8117 10.7602 6.1917 9.4202 6.1917 7.6802C6.1917 5.9602 4.8117 4.5602 3.0917 4.5602C1.3817 4.5602 0.0017 5.9602 0.0017 7.6802C0.0017 9.3302 1.3817 10.7602 3.0917 10.7602ZM20.3717 9.0402C20.3717 8.6702 20.0617 8.3802 19.6917 8.3802H15.0517V6.4902C15.0517 5.8002 14.3317 5.5602 13.8517 5.9902L10.9217 8.5102C10.5717 8.8302 10.5617 9.2702 10.9217 9.5902L13.8517 12.1202C14.3517 12.5602 15.0517 12.2702 15.0517 11.6002V9.7202H19.6917C20.0617 9.7202 20.3717 9.4202 20.3717 9.0402ZM21.5117 27.1002C22.0517 26.5502 22.1217 25.6302 21.4117 24.8902L16.3017 19.6102C15.2217 18.4902 14.1017 18.3302 12.7517 18.8202L10.0217 19.8202L6.8117 13.9702C5.8317 12.1802 4.1617 11.5102 2.5517 12.4002C0.8817 13.2802 0.5617 15.1002 1.5317 16.8502L3.9117 21.1902C5.0517 23.2402 7.3217 24.1402 9.7817 23.2102L13.7217 21.7202C13.9717 21.6102 14.1017 21.6602 14.2617 21.8302L19.1817 26.9102C19.9117 27.6602 20.9317 27.7202 21.5117 27.1002Z" />
        </svg>
    