
        <svg xmlns="http://www.w3.org/2000/svg" viewBox="0 0 100 100">
            <path d="M12.1023 24.2064C18.7823 24.2064 24.2123 18.7864 24.2123 12.1064C24.2123 5.4264 18.7823 -0.0036 12.1023 -0.0036C5.4223 -0.0036 0.0023 5.4264 0.0023 12.1064C0.0023 18.7864 5.4223 24.2064 12.1023 24.2064ZM8.1523 19.7064C7.7723 19.6364 7.5123 19.2664 7.5723 18.8864L8.1923 15.5664C8.2123 15.3664 8.2923 15.1664 8.4723 15.0364L10.7723 13.3164L10.3723 11.7464C10.3523 11.6064 10.2023 11.6064 10.1123 11.6964L9.3723 12.4364C9.1023 12.7064 8.6623 12.7064 8.3923 12.4364L6.7423 10.7664C6.5623 10.5964 6.4723 10.3264 6.5823 10.0264L8.7523 4.3864C8.8723 4.1064 9.0923 3.9764 9.3323 3.9764C9.7423 3.9764 10.1323 4.3464 9.8623 4.9064L7.9923 8.8864H11.9623C12.4523 8.8864 12.8523 9.2264 12.9623 9.6664L14.8223 17.1464L17.2023 18.4464C17.5423 18.6564 17.6623 19.0764 17.4623 19.4064C17.3123 19.7264 16.9123 19.8964 16.5123 19.6764L13.9223 18.2364C13.7823 18.1664 13.6523 18.0364 13.5823 17.8564L12.2823 14.7064C12.2423 14.6464 12.1623 14.6164 12.0823 14.6564L9.5123 16.0664L8.9523 19.1364C8.8823 19.5364 8.5323 19.7764 8.1523 19.7064ZM11.7023 8.2064C10.9123 8.2064 10.2523 7.5664 10.2523 6.7664C10.2523 5.9664 10.9123 5.3064 11.7023 5.3064C12.5023 5.3064 13.1623 5.9664 13.1623 6.7664C13.1623 7.5664 12.5023 8.2064 11.7023 8.2064ZM9.5623 10.2764H8.2023L8.8923 10.9564Z" />
        </svg>
    