
        <svg xmlns="http://www.w3.org/2000/svg" viewBox="0 0 100 100">
            <path d="M12.3723 24.7459C19.2023 24.7459 24.7523 19.2059 24.7523 12.3759C24.7523 5.5459 19.2023 -0.0041 12.3723 -0.0041C5.5423 -0.0041 0.0023 5.5459 0.0023 12.3759C0.0023 19.2059 5.5423 24.7459 12.3723 24.7459ZM12.3723 21.6659C7.2423 21.6659 3.0823 17.5059 3.0823 12.3759C3.0823 7.2259 7.2423 3.0859 12.3723 3.0859C17.5223 3.0859 21.6723 7.2259 21.6723 12.3759C21.6723 17.5059 17.5223 21.6659 12.3723 21.6659ZM8.5423 19.6659H11.3123C11.7223 19.6659 11.9223 19.4659 11.9723 19.1159L12.5023 16.2559H14.8223L14.3623 18.8559C14.2823 19.3359 14.5923 19.6259 14.9423 19.6659C15.2623 19.6959 15.6323 19.5459 15.7023 19.1159L16.3123 15.7459C16.4023 15.2459 16.1023 14.9459 15.7223 14.8959L13.6023 14.6559L13.7923 12.6759C13.7923 12.5959 13.8623 12.5259 13.9423 12.5259H15.6523C16.0323 12.5259 16.3323 12.2259 16.3323 11.8459V8.4359C16.3323 8.1559 16.1623 7.9059 15.9023 7.8159C15.6523 7.6959 15.3723 7.7559 15.1623 7.9559L14.8323 8.2859L14.5123 7.9959C14.6523 7.7859 14.6023 7.5159 14.4123 7.3459L11.2223 4.4659C11.0023 4.2659 10.6923 4.2859 10.5023 4.5159L10.2023 4.8559C10.0223 5.0759 10.0223 5.3659 10.2423 5.5659L13.4023 8.4259C13.6123 8.6159 13.8723 8.6159 14.0723 8.4459L14.3923 8.7259L11.7623 11.3559C11.4523 11.6759 11.2623 12.0559 11.2123 12.5359L10.6923 18.3059H8.5423C8.1723 18.3059 7.8723 18.5959 7.8723 18.9859C7.8723 19.3559 8.1723 19.6659 8.5423 19.6659ZM11.1823 10.4659C11.9223 10.4659 12.5423 9.8659 12.5423 9.1059C12.5423 8.3559 11.9223 7.7359 11.1823 7.7359C10.4023 7.7359 9.8123 8.3559 9.8123 9.1059C9.8123 9.8659 10.4023 10.4659 11.1823 10.4659ZM15.0123 10.0059V11.1959H13.8123Z" />
        </svg>
    