
        <svg xmlns="http://www.w3.org/2000/svg" viewBox="0 0 100 100">
            <path d="M14.3925 5.7264C15.9725 5.7264 17.2625 4.4364 17.2625 2.8664C17.2625 1.2864 15.9725 -0.0036 14.3925 -0.0036C12.8225 -0.0036 11.5325 1.2864 11.5325 2.8664C11.5325 4.4364 12.8225 5.7264 14.3925 5.7264ZM9.4925 27.2264C15.0625 27.2264 18.8125 23.5264 18.8125 18.2564C18.8125 15.3764 17.4125 13.7664 14.9025 13.7664H13.2625C13.0225 13.7664 12.8925 13.5964 12.9825 13.3264L14.1125 9.9064C14.6625 8.2464 13.8525 6.8464 12.0925 6.3964L7.0525 5.1364C6.5725 5.0164 6.2025 5.0764 5.7225 5.3564L0.8125 8.1164C0.1725 8.4764 0.0325 9.3264 0.4825 9.9164C0.8825 10.4964 1.5825 10.6164 2.2625 10.2664L6.7525 7.8964L9.3525 8.6064C9.8325 8.7264 10.0125 9.0364 9.8425 9.4764L8.4725 13.3564C7.8125 15.2264 8.8725 16.8164 10.7225 16.8164H14.6225C15.5525 16.8164 16.1625 17.3664 16.1625 18.2564C16.1625 21.9264 13.4425 24.5864 9.5025 24.5864C5.3425 24.5864 2.6325 21.7364 2.6325 17.8164C2.6325 16.6964 2.8825 15.6664 3.3725 14.7664C4.1825 13.1964 1.8525 11.9064 0.9425 13.8064C0.3325 15.0164 0.0025 16.3664 0.0025 17.8164C0.0025 23.3564 3.7225 27.2264 9.4925 27.2264ZM18.9225 27.2264C19.7625 27.2264 20.4125 26.5664 20.4125 25.7364C20.4125 24.9064 19.7625 24.2464 18.9225 24.2464C18.0925 24.2464 17.4425 24.9064 17.4425 25.7364C17.4425 26.5664 18.0925 27.2264 18.9225 27.2264Z" />
        </svg>
    