
        <svg xmlns="http://www.w3.org/2000/svg" viewBox="0 0 100 100">
            <path d="M11.0989 22.9917H17.9089C19.6389 22.9917 20.5489 22.0517 20.5489 20.2017V12.1317C20.5489 10.5017 19.8289 9.5817 18.4989 9.4017V6.5517C18.4989 2.1417 15.6189 0.0017 12.5489 0.0017C9.7689 0.0017 7.1489 1.7617 6.6689 5.3517C7.3889 5.4917 8.0089 5.8617 8.4789 6.3817C8.5389 3.2717 10.4089 1.7717 12.5489 1.7717C14.7389 1.7717 16.6489 3.3417 16.6489 6.2917V9.3517H9.4689C9.4189 9.6917 9.3089 10.0217 9.1589 10.3217L11.9089 11.4617C13.2389 12.0017 13.8089 13.2917 13.4589 14.4717C13.0689 15.7817 11.6789 16.5317 10.1789 15.9617L9.6689 15.7617C9.6689 16.2317 9.6689 16.5917 9.7289 16.8817L11.0089 22.1717C11.0789 22.4517 11.1189 22.7317 11.0989 22.9917ZM5.9789 10.7417C7.0689 10.7417 7.9189 9.8917 7.9189 8.8217C7.9189 7.7617 7.0689 6.8917 5.9789 6.8917C4.9289 6.8917 4.0489 7.7617 4.0489 8.8217C4.0489 9.8917 4.9289 10.7417 5.9789 10.7417ZM5.9789 17.6317C6.2289 17.6317 6.4389 17.7917 6.5189 18.0817L7.8289 23.1517C8.1289 24.2817 9.6689 23.8817 9.5189 22.8117C9.4389 22.3917 8.3089 18.1017 8.1489 17.1417C8.0289 16.4417 8.0889 14.6517 8.0889 13.8417C8.0889 13.6217 8.2889 13.4617 8.5289 13.5717L10.7589 14.4717C11.3689 14.7217 11.7989 14.4217 11.9089 14.0317C12.0389 13.6317 11.8689 13.1617 11.2989 12.9417L8.8989 11.9417C8.3289 11.7117 7.8289 11.5917 7.2689 11.5117C6.8689 11.6917 6.4489 11.8117 5.9789 11.8117C5.4989 11.8117 5.0789 11.6917 4.6789 11.5117C4.1189 11.5917 3.6189 11.7117 3.0489 11.9417L0.6489 12.9417C0.0889 13.1617 -0.0911 13.6317 0.0389 14.0317C0.1589 14.4217 0.5789 14.7217 1.1889 14.4717L3.4289 13.5717C3.6589 13.4617 3.8589 13.6217 3.8589 13.8417C3.8589 14.6517 3.9189 16.4417 3.7989 17.1417C3.6389 18.1017 2.5089 22.3917 2.4289 22.8117C2.2789 23.8817 3.8289 24.2817 4.1189 23.1517L5.4289 18.0817C5.5089 17.7917 5.7189 17.6317 5.9789 17.6317Z" />
        </svg>
    