
        <svg xmlns="http://www.w3.org/2000/svg" viewBox="0 0 100 100">
            <path d="M14.4217 4.9831C15.7817 4.9831 16.9117 3.8531 16.9117 2.4931C16.9117 1.1231 15.7817 0.0031 14.4217 0.0031C13.0517 0.0031 11.9317 1.1231 11.9317 2.4931C11.9317 3.8531 13.0517 4.9831 14.4217 4.9831ZM17.6417 24.7431C18.1317 24.5431 18.4917 24.0331 18.2917 23.3431L16.5717 17.3331C16.4917 17.0531 16.3217 16.8231 16.0517 16.6731L12.4617 14.5631L14.1717 9.4831C14.3017 9.0931 14.7117 9.0631 14.9917 9.3431L17.5417 11.8731C17.7617 12.0831 18.0317 12.2131 18.3317 12.2131C18.6317 12.2131 18.9217 12.1031 19.1517 11.8731L22.5817 8.4231C23.0317 7.9831 23.0517 7.2731 22.5817 6.8231C22.1417 6.3731 21.4317 6.3631 20.9717 6.8231L18.3317 9.4531L16.1417 7.1831C15.1217 6.1131 14.0417 5.9031 11.9317 5.9031H2.6517V5.0731C3.6017 4.6031 4.3017 3.5031 4.3017 2.5631C4.3017 1.3631 3.3517 0.4131 2.1417 0.4131C0.9517 0.4131 0.0017 1.3631 0.0017 2.5631C0.0017 3.5031 0.7017 4.6031 1.6517 5.0731V5.9031H1.1517C0.5317 5.9031 0.0017 6.4231 0.0017 7.0631C0.0017 7.6831 0.5317 8.2031 1.1517 8.2031H9.1517C9.4817 8.2031 9.8017 8.4731 9.6317 8.9331L8.3017 12.9231C7.8317 14.3431 8.4917 15.8631 9.8717 16.4631L14.5117 18.4931L16.1017 23.9431C16.3317 24.7531 17.0617 24.9531 17.6417 24.7431ZM18.9017 14.5631H25.9317V13.5131H18.9017C18.6117 13.5131 18.3717 13.7431 18.3717 14.0431C18.3717 14.3331 18.6117 14.5631 18.9017 14.5631ZM3.0917 24.3731C3.4017 24.7931 3.9717 25.0031 4.6017 24.6531L9.7117 21.8231C9.9617 21.6831 10.1517 21.4531 10.2517 21.1631L11.2517 18.2131L9.4417 17.4231C9.2317 17.3231 9.0217 17.2031 8.8117 17.0731L8.1817 20.0431L3.4917 22.6631C2.7417 23.0831 2.7317 23.8731 3.0917 24.3731Z" />
        </svg>
    