
        <svg xmlns="http://www.w3.org/2000/svg" viewBox="0 0 100 100">
            <path d="M3.7517 7.4511C5.8217 7.4511 7.4517 5.7411 7.4517 3.7511C7.4517 1.6611 5.8217 0.0011 3.7517 0.0011C1.6717 0.0011 0.0017 1.6611 0.0017 3.7511C0.0017 5.7411 1.6717 7.4511 3.7517 7.4511ZM23.7517 5.2811C23.7517 4.6311 23.2417 4.1111 22.5717 4.1111H18.6917V2.0811C18.6917 0.9411 17.5517 0.5511 16.7817 1.2411L13.1817 4.5111C12.6417 5.0011 12.6417 5.6211 13.1817 6.0911L16.7817 9.3611C17.6017 10.1011 18.6917 9.6111 18.6917 8.5211V6.4711H22.5717C23.2417 6.4711 23.7517 5.9511 23.7517 5.2811ZM25.8117 7.5111C25.1717 7.5111 24.6417 8.0311 24.6417 8.6911V12.5711H22.6317C21.4717 12.5711 21.0817 13.7111 21.7817 14.4711L25.0417 18.0811C25.5317 18.6111 26.1517 18.6111 26.6217 18.0811L29.8917 14.4711C30.6317 13.6611 30.1517 12.5711 29.0517 12.5711H27.0017V8.6911C27.0017 8.0311 26.4817 7.5111 25.8117 7.5111ZM25.5217 27.0211C26.2717 26.3011 26.3517 25.1111 25.3917 24.1011L19.5517 17.9911C18.0917 16.4811 16.5717 16.2511 14.7817 16.9311L11.7817 18.0611L8.1117 11.4011C6.9217 9.2811 4.9317 8.5111 3.0117 9.5811C1.0417 10.6911 0.6417 12.7411 1.8017 14.8711L4.3517 19.4811C5.7617 22.0511 9.0517 23.3211 11.8917 22.2611L16.0117 20.7411C16.3217 20.6211 16.5017 20.6511 16.7317 20.8811L22.4217 26.7611C23.4017 27.7811 24.7017 27.8411 25.5217 27.0211Z" />
        </svg>
    