
        <svg xmlns="http://www.w3.org/2000/svg" viewBox="0 0 100 100">
            <path d="M21.1419 8.0622C21.0719 7.9922 21.0119 7.9422 20.9419 7.9022V6.4522L22.0919 5.8622C22.4919 5.6622 22.7319 5.2722 22.7319 4.8522V1.1722C22.7319 0.5322 22.2419 0.0022 21.5819 0.0022H18.9819C18.3419 0.0022 17.8219 0.5322 17.8219 1.1722V4.8522C17.8219 5.2722 18.0719 5.6622 18.4819 5.8622L19.6419 6.4522V7.9022C19.5719 7.9422 19.5019 7.9922 19.4419 8.0622L16.5819 10.9022L13.7219 8.0122C13.1619 7.4422 12.2719 7.0922 11.3819 7.0922H3.6819C3.1519 7.0922 2.7219 7.4022 2.5319 7.9222L0.6919 13.4522C0.4119 14.3122 0.9019 14.8922 1.5019 15.0322C2.0519 15.1922 2.7119 14.9522 2.9619 14.2022L4.5519 9.4922H7.0919C7.3219 9.4922 7.4919 9.7022 7.4019 9.9422L5.8519 14.6222C5.3319 16.1522 5.8019 17.6122 7.5119 18.3622L12.5119 20.5522L14.2019 26.4722C14.4119 27.2122 15.0919 27.4322 15.6719 27.2822C16.2519 27.1322 16.7319 26.5922 16.5119 25.8022L14.6619 19.3322C14.5519 18.9922 14.3919 18.7522 13.9919 18.5722L10.0919 16.8522L12.1619 10.6022C12.2619 10.3522 12.5619 10.2522 12.7619 10.4522L15.7219 13.4522C16.1919 13.9222 16.9719 13.9222 17.4419 13.4522L21.1419 9.7622C21.6219 9.2722 21.6219 8.5422 21.1419 8.0622ZM11.3819 5.8622C12.8019 5.8622 13.9319 4.7222 13.9319 3.3022C13.9319 1.8822 12.8019 0.7422 11.3819 0.7422C9.9619 0.7422 8.8119 1.8822 8.8119 3.3022C8.8119 4.7222 9.9619 5.8622 11.3819 5.8622ZM6.2419 18.9522L5.6619 22.2822L0.6219 25.0922C-0.0981 25.4922 -0.1281 26.2422 0.2019 26.7622C0.5019 27.2622 1.1419 27.5622 1.8019 27.1922L7.3519 24.1222C7.6919 23.9222 7.8019 23.6922 7.9219 23.3322L8.9619 20.2222L7.0519 19.3922C6.7619 19.2622 6.4919 19.1122 6.2419 18.9522Z" />
        </svg>
    