
        <svg xmlns="http://www.w3.org/2000/svg" viewBox="0 0 100 100">
            <path d="M12.1017 24.2064C18.7817 24.2064 24.2117 18.7864 24.2117 12.1064C24.2117 5.4264 18.7817 -0.0036 12.1017 -0.0036C5.4217 -0.0036 0.0017 5.4264 0.0017 12.1064C0.0017 18.7864 5.4217 24.2064 12.1017 24.2064ZM12.1017 21.8164C6.7217 21.8164 2.3817 17.4864 2.3817 12.1064C2.3817 6.7264 6.7217 2.3764 12.1017 2.3764C17.4817 2.3764 21.8317 6.7264 21.8317 12.1064C21.8317 17.4864 17.4817 21.8164 12.1017 21.8164ZM13.0317 7.2164C13.8017 7.2164 14.4217 6.5964 14.4217 5.8264C14.4217 5.0464 13.8017 4.4264 13.0317 4.4264C12.2617 4.4264 11.6417 5.0464 11.6417 5.8264C11.6417 6.5964 12.2617 7.2164 13.0317 7.2164ZM11.8717 13.6764V16.2064C11.8717 16.4764 12.0317 16.6164 12.3017 16.6164H14.0317C14.5117 16.6164 14.5217 15.9464 14.1217 15.8064L13.1817 15.5164V13.0764C13.1817 12.7964 12.9917 12.5764 12.7417 12.4464L11.0017 11.6364L11.4717 10.7064L13.9817 13.0564C13.9817 13.4164 14.2717 13.6964 14.6417 13.6964H14.6717L17.3417 16.1964C17.4717 16.3264 17.5517 16.3364 17.6817 16.3364H19.5517C19.7617 16.3364 19.9417 16.1464 19.9417 15.9464V15.6364C19.9417 15.4264 19.7617 15.2364 19.5517 15.2364H17.5117L15.2717 13.1764C15.2817 13.1364 15.2817 13.0864 15.2817 13.0564V10.2964C15.2817 10.0564 15.2117 9.9164 14.9917 9.7464L12.2617 7.7064C11.6717 7.2664 10.9417 7.1564 10.2517 7.4364L8.2417 8.2664C7.6217 8.5164 7.7217 9.1964 8.2217 9.4564L8.9617 9.8564L8.5517 10.6664C7.9817 11.7864 8.4217 12.7764 9.5817 13.0864ZM12.0217 9.6364C12.0717 9.5264 12.1717 9.4964 12.2717 9.5664L13.9817 10.6764V11.9764L11.8317 9.9964ZM8.5217 13.2264L8.2217 14.1164H6.0617C5.8017 14.1164 5.6617 14.2764 5.6617 14.5464V16.2764C5.6617 16.7464 6.3317 16.7564 6.4617 16.3464L6.7617 15.4264H8.7217C8.9917 15.4264 9.1917 15.2664 9.2917 15.0664L9.9417 13.7964L9.4417 13.6664C9.0717 13.5664 8.7617 13.4164 8.5217 13.2264ZM4.6417 14.2864V16.7664C4.6417 16.9364 4.7717 17.0664 4.9217 17.0664C5.0717 17.0664 5.2117 16.9464 5.2117 16.7664V14.2864C5.2117 14.1364 5.0717 14.0064 4.9217 14.0064C4.7717 14.0064 4.6417 14.1364 4.6417 14.2864ZM15.8717 18.0364C15.8717 18.3164 16.3217 18.5364 16.9117 18.5364C17.4817 18.5364 17.9517 18.3164 17.9517 18.0364V17.4964C17.9517 17.2164 17.4817 17.0064 16.9117 17.0064C16.3217 17.0064 15.8717 17.2164 15.8717 17.4964ZM12.0517 17.6364H14.5317C14.6917 17.6364 14.8217 17.5064 14.8217 17.3464C14.8217 17.1864 14.6917 17.0664 14.5317 17.0664H12.0517C11.8817 17.0664 11.7617 17.1864 11.7617 17.3464C11.7617 17.5064 11.8817 17.6364 12.0517 17.6364Z" />
        </svg>
    