
        <svg xmlns="http://www.w3.org/2000/svg" viewBox="0 0 100 100">
            <path d="M23.4567 5.44C24.9567 5.44 26.1767 4.22 26.1767 2.72C26.1767 1.22 24.9567 0 23.4567 0C21.9667 0 20.7367 1.22 20.7367 2.72C20.7367 4.22 21.9667 5.44 23.4567 5.44ZM8.6267 5.94C10.1267 5.94 11.3467 4.71 11.3467 3.22C11.3467 1.72 10.1267 0.5 8.6267 0.5C7.1467 0.5 5.9067 1.72 5.9067 3.22C5.9067 4.71 7.1467 5.94 8.6267 5.94ZM1.3867 9.43L3.8767 9.62C3.9867 9.64 4.0567 9.71 4.0567 9.86V14.46C4.0567 15.43 4.3767 16.42 4.9767 17.17L7.9367 20.98L6.4267 26C6.1967 26.79 6.6467 27.63 7.4067 27.84C8.1467 28.05 8.9967 27.7 9.2467 26.85L10.8767 21.37C10.8967 21.32 10.9167 21.25 10.9167 21.19L15.3367 26.78C15.8267 27.4 16.7867 27.52 17.3967 27C18.0267 26.48 18.1467 25.58 17.6467 24.95L9.3467 14.44L9.7067 10.82C9.7267 10.66 9.8567 10.62 9.9767 10.68L12.8267 12.11C13.0367 12.21 13.4367 12.32 13.7467 12.32H18.7567C19.0667 12.32 19.4467 12.19 19.6967 11.96L21.7567 10.17C21.8567 10.07 21.9967 10.11 22.0467 10.25L23.1567 13.3L18.3567 14.62C17.7667 14.79 17.3267 15.28 17.2667 15.9L16.7367 21.04C16.6467 22.01 17.4867 22.64 18.2067 22.64C18.9567 22.64 19.5867 22.08 19.6667 21.32L20.0867 17.31L23.0467 16.86L21.5367 19.89C21.3367 20.29 21.2267 20.75 21.4067 21.2L23.7167 26.98C24.0367 27.8 24.9467 28.08 25.6367 27.8C26.3767 27.5 26.7567 26.64 26.4567 25.88L24.4367 20.85L27.2067 16.91C27.9567 15.84 28.2367 14.48 28.0167 13.22L27.5767 10.84C27.5567 10.68 27.6767 10.56 27.8467 10.62L29.2567 11.1C30.3967 11.48 31.2967 10.75 31.1867 9.6L30.6067 3.77C30.5167 2.95 29.7867 2.37 28.9867 2.45C28.1967 2.53 27.5767 3.28 27.6567 4.08L28.0167 7.59L24.8467 6.54C23.3767 6.05 21.7667 6.32 20.5467 7.37L18.2067 9.37H13.9367L10.2467 7.54C9.6767 7.24 9.0767 7.07 8.4267 7.03L3.4667 6.64L4.5967 3.25C4.8667 2.47 4.4467 1.63 3.6767 1.37C2.9067 1.14 2.0667 1.54 1.8167 2.31L0.0767 7.5C-0.2333 8.41 0.4267 9.36 1.3867 9.43Z" />
        </svg>
    