
        <svg xmlns="http://www.w3.org/2000/svg" viewBox="0 0 100 100">
            <path d="M0.2661 7.5578C0.6261 7.9278 1.1961 7.9278 1.5661 7.5578L4.7861 4.3378L6.0561 5.6078C6.6561 6.2278 7.5661 5.8578 7.6061 4.9978L7.8461 0.9078C7.8761 0.3278 7.5161 -0.0322 6.9461 -0.0022L2.8361 0.2278C2.0161 0.2678 1.5961 1.1278 2.2461 1.7878L3.4961 3.0478L0.2761 6.2578C-0.0939 6.6278 -0.0939 7.2078 0.2661 7.5578ZM23.0461 11.4678C24.8561 11.4678 26.3161 9.9478 26.3161 8.2078C26.3161 6.3778 24.8561 4.8978 23.0461 4.8978C21.2161 4.8978 19.7661 6.3778 19.7661 8.2078C19.7661 9.9878 21.2161 11.4678 23.0461 11.4678ZM0.2661 11.8178C-0.0939 12.1678 -0.0939 12.7478 0.2761 13.1178L3.4961 16.3278L2.2461 17.5878C1.5961 18.2478 2.0161 19.1078 2.8361 19.1478L6.9461 19.3878C7.5161 19.4078 7.8761 19.0478 7.8461 18.4678L7.6061 14.3778C7.5661 13.5178 6.6561 13.1478 6.0561 13.7678L4.7861 15.0378L1.5661 11.8178C1.1961 11.4678 0.6261 11.4678 0.2661 11.8178ZM3.6461 28.7278C4.2861 29.4078 5.3861 29.3478 6.1661 28.5378L11.3261 23.2078C11.4961 23.0178 11.6261 22.9778 11.8961 23.0878L15.8761 24.5878C18.4661 25.5578 21.0061 24.6578 22.1661 22.5378L24.6961 17.9478C25.7161 16.0778 25.3861 14.1978 23.6461 13.2478C21.9261 12.3078 20.1561 13.0078 19.1261 14.8978L15.7761 20.9978L12.9461 19.9678C11.4861 19.4278 10.2661 19.6078 9.0961 20.8178L3.7561 26.3578C2.9761 27.1578 3.0561 28.1378 3.6461 28.7278Z" />
        </svg>
    