
        <svg xmlns="http://www.w3.org/2000/svg" viewBox="0 0 100 100">
            <path d="M12.6023 25.1986C19.5623 25.1986 25.2023 19.5586 25.2023 12.5986C25.2023 5.6386 19.5623 -0.0014 12.6023 -0.0014C5.6323 -0.0014 0.0023 5.6386 0.0023 12.5986C0.0023 19.5586 5.6323 25.1986 12.6023 25.1986ZM12.6023 21.5386C7.6523 21.5386 3.6523 17.5386 3.6523 12.5986C3.6523 7.6486 7.6523 3.6586 12.6023 3.6586C17.5423 3.6586 21.5423 7.6486 21.5423 12.5986C21.5423 17.5386 17.5423 21.5386 12.6023 21.5386ZM6.6323 15.7586H14.5623L16.9223 13.3986C17.0323 13.2986 17.1923 13.2886 17.2923 13.3986L18.1523 14.2486L17.2123 15.1986C16.5923 15.8086 17.5223 16.7086 18.1323 16.1086L19.5223 14.7086C19.7923 14.4386 19.7923 14.0486 19.5223 13.7886L17.8923 12.1686C17.5623 11.8286 17.1223 11.6386 16.6523 11.6386H12.7023V5.1286C12.7023 4.6086 11.9223 4.4086 11.6123 4.9686L6.1423 14.8486C5.8923 15.3186 6.1623 15.7586 6.6323 15.7586ZM7.4623 14.7786C7.3823 14.7786 7.3723 14.7186 7.4023 14.6686L11.6123 7.0386C11.6323 6.9886 11.7223 6.9986 11.7223 7.0686V14.7786ZM16.2623 11.0586C17.0123 11.0586 17.6123 10.4486 17.6123 9.7186C17.6123 8.9786 17.0123 8.3686 16.2623 8.3686C15.5323 8.3686 14.9223 8.9786 14.9223 9.7186C14.9223 10.4486 15.5323 11.0586 16.2623 11.0586ZM13.6423 12.9386C13.7323 12.9386 13.7623 13.0286 13.7123 13.0886L12.7023 14.0986V12.9386ZM6.7223 18.3886H6.7523C8.3923 18.3886 8.6923 17.4486 9.6723 17.4486C10.6523 17.4486 10.9523 18.3886 12.5823 18.3886C14.2423 18.3886 14.5423 17.4486 15.5123 17.4486C16.4923 17.4486 16.8023 18.3886 18.4323 18.3886H18.4523C18.7023 18.3886 18.9023 18.1786 18.9023 17.9286C18.9023 17.6786 18.7023 17.4886 18.4523 17.4886H18.4323C17.4223 17.4886 17.0823 16.5486 15.5123 16.5486C13.9423 16.5486 13.6023 17.4886 12.5823 17.4886C11.5823 17.4886 11.2423 16.5486 9.6723 16.5486C8.1123 16.5486 7.7723 17.4886 6.7523 17.4886H6.7223C6.4723 17.4886 6.2623 17.6786 6.2623 17.9286C6.2623 18.1786 6.4723 18.3886 6.7223 18.3886Z" />
        </svg>
    