
        <svg xmlns="http://www.w3.org/2000/svg" viewBox="0 0 100 100">
            <path d="M12.3723 24.7459C19.2023 24.7459 24.7523 19.2059 24.7523 12.3759C24.7523 5.5459 19.2023 -0.0041 12.3723 -0.0041C5.5423 -0.0041 0.0023 5.5459 0.0023 12.3759C0.0023 19.2059 5.5423 24.7459 12.3723 24.7459ZM13.4423 7.1759C12.6423 7.1759 11.9923 6.5259 11.9923 5.7259C11.9923 4.9359 12.6423 4.2859 13.4423 4.2859C14.2223 4.2859 14.8823 4.9359 14.8823 5.7259C14.8823 6.5259 14.2223 7.1759 13.4423 7.1759ZM7.2823 14.9259C6.8823 14.9259 6.5723 14.6159 6.5723 14.2259C6.5723 13.8259 6.8823 13.5259 7.2823 13.5259H9.7423L8.6123 12.3759C8.0123 11.7559 8.0423 10.8559 8.6123 10.2759L9.9823 8.9159C10.0623 8.8359 10.0323 8.7259 9.9123 8.7159L8.4923 8.5359L7.1323 9.9059C6.8423 10.1959 6.3723 10.1559 6.1323 9.9059C5.8623 9.6059 5.8523 9.1859 6.1323 8.8959L7.7423 7.2859C7.9023 7.1359 8.1123 7.0659 8.3223 7.1059L17.9623 8.3159C18.3023 8.3659 18.5723 8.6559 18.5723 9.0159C18.5723 9.4559 18.2023 9.7659 17.7823 9.7059L13.1823 9.1159C13.1023 9.1059 13.0423 9.1359 12.9923 9.1859L11.5623 10.6159H17.8923C18.2923 10.6159 18.6123 10.9459 18.6123 11.3359C18.6123 11.7159 18.2923 12.0359 17.8923 12.0359H14.4023L10.7823 12.2659L12.0123 13.7859C12.3723 14.2259 12.0823 14.9259 11.4623 14.9259ZM13.1223 20.0159V13.6559C13.1223 13.3759 13.3523 13.1559 13.6023 13.1559C13.8823 13.1559 14.1023 13.3759 14.1023 13.6559V20.0159C14.1023 20.2859 13.8823 20.4959 13.6023 20.4959C13.3523 20.4959 13.1223 20.2859 13.1223 20.0159Z" />
        </svg>
    