
        <svg xmlns="http://www.w3.org/2000/svg" viewBox="0 0 100 100">
            <path d="M11.9523 23.9041C18.5523 23.9041 23.9023 18.5541 23.9023 11.9541C23.9023 5.3541 18.5523 0.0041 11.9523 0.0041C5.3523 0.0041 0.0023 5.3541 0.0023 11.9541C0.0023 18.5541 5.3523 23.9041 11.9523 23.9041ZM11.9523 21.9141C6.4423 21.9141 1.9923 17.4641 1.9923 11.9541C1.9923 6.4441 6.4423 1.9941 11.9523 1.9941C17.4623 1.9941 21.9123 6.4441 21.9123 11.9541C21.9123 17.4641 17.4623 21.9141 11.9523 21.9141ZM9.8923 8.4041C10.6623 8.4041 11.2923 7.7741 11.2923 6.9741C11.2923 6.2041 10.6623 5.5641 9.8923 5.5641C9.0923 5.5641 8.4723 6.2041 8.4723 6.9741C8.4723 7.7741 9.0923 8.4041 9.8923 8.4041ZM6.4723 13.3141C6.1723 14.3741 6.8523 15.0541 7.6923 15.0541C7.9523 15.0541 8.2223 14.9841 8.4923 14.8441L12.0123 12.9741L15.9023 14.9141C16.3823 15.1641 16.7623 14.9741 16.9023 14.6741C17.0523 14.3741 16.9523 13.9641 16.5123 13.7341L12.4423 11.6941C12.1723 11.5541 11.8823 11.5441 11.6023 11.6741L8.9723 12.8041L9.5023 10.9541C9.6023 10.6241 9.8923 10.4041 10.2323 10.4041H15.4723C15.8323 10.4041 16.1323 10.1141 16.1323 9.7341C16.1323 9.3741 15.8323 9.0841 15.4723 9.0841H9.7523C8.4523 9.0841 7.3923 9.8241 7.0923 10.9341ZM6.2623 17.1641H17.6323C17.8723 17.1641 18.0323 17.0041 18.0323 16.7741C18.0323 16.5441 17.8723 16.3741 17.6323 16.3741H6.2623C6.0223 16.3741 5.8623 16.5441 5.8623 16.7741C5.8623 17.0041 6.0223 17.1641 6.2623 17.1641Z" />
        </svg>
    