
        <svg xmlns="http://www.w3.org/2000/svg" viewBox="0 0 100 100">
            <path d="M11.9523 23.9041C18.5523 23.9041 23.9023 18.5341 23.9023 11.9541C23.9023 5.3541 18.5523 0.0041 11.9523 0.0041C5.3623 0.0041 0.0023 5.3541 0.0023 11.9541C0.0023 18.5341 5.3623 23.9041 11.9523 23.9041ZM16.5823 8.3541C15.7623 8.3541 15.1123 7.7041 15.1123 6.9041C15.1123 6.0841 15.7623 5.4341 16.5823 5.4341C17.3923 5.4341 18.0223 6.0841 18.0223 6.9041C18.0223 7.7041 17.3923 8.3541 16.5823 8.3541ZM11.7623 15.6241C11.3923 15.6241 11.0823 15.3141 11.0823 14.9541V11.8941L8.6323 9.4241C8.1523 8.9441 8.0123 8.2241 8.2723 7.5841C8.5423 6.9741 9.1423 6.5641 9.8223 6.5641H13.1123C13.8423 6.5641 14.4523 7.1441 14.4523 7.8941V10.2541H16.4623C16.8323 10.2541 17.1223 10.5541 17.1223 10.9341C17.1223 11.2841 16.8323 11.6041 16.4623 11.6041H13.7723C13.4023 11.6041 13.1123 11.2841 13.1123 10.9341V9.2741C13.1123 9.0841 13.0223 8.8941 12.7723 8.8941H10.6123C10.4523 8.8941 10.3723 9.0841 10.4923 9.2141L12.2323 11.1541C12.3623 11.2841 12.4223 11.4341 12.4223 11.6041V14.9541C12.4223 15.3141 12.1123 15.6241 11.7623 15.6241ZM7.3223 17.8741C5.5323 17.8741 4.0923 16.4341 4.0923 14.6241C4.0923 12.8241 5.5323 11.3641 7.3223 11.3641C9.1323 11.3641 10.5923 12.8241 10.5923 14.6241C10.5923 16.4341 9.1323 17.8741 7.3223 17.8741ZM17.7923 12.8641C17.5323 12.6241 17.5523 12.3941 17.6923 12.2241C17.8323 12.0941 18.0923 12.0141 18.3023 12.2041C18.9823 12.8041 19.4323 13.6841 19.4323 14.6641C19.4323 16.4641 17.9723 17.9041 16.1723 17.9041C14.3623 17.9041 12.9123 16.4641 12.9123 14.6641C12.9123 14.1941 13.0123 13.7441 13.2023 13.3341C13.3023 13.0641 13.5323 13.0041 13.7223 13.1041C13.9323 13.1741 14.0623 13.3841 13.9323 13.6841C13.8023 14.0041 13.7323 14.3341 13.7323 14.6641C13.7323 15.9941 14.8223 17.0741 16.1723 17.0741C17.5223 17.0741 18.6023 15.9941 18.6023 14.6641C18.6023 13.9441 18.2723 13.3041 17.7923 12.8641ZM7.3223 17.0341C8.6723 17.0341 9.7723 15.9741 9.7723 14.6241C9.7723 13.2741 8.6723 12.1841 7.3223 12.1841C5.9923 12.1841 4.9123 13.2741 4.9123 14.6241C4.9123 15.9741 5.9923 17.0341 7.3223 17.0341Z" />
        </svg>
    