
        <svg xmlns="http://www.w3.org/2000/svg" viewBox="0 0 100 100">
            <path d="M11.7523 23.5048C18.2323 23.5048 23.5123 18.2348 23.5123 11.7548C23.5123 5.2748 18.2323 0.0048 11.7523 0.0048C5.2723 0.0048 0.0023 5.2748 0.0023 11.7548C0.0023 18.2348 5.2723 23.5048 11.7523 23.5048ZM4.8623 6.0048C4.8623 5.0648 5.6023 4.3048 6.5423 4.3048C7.4623 4.3048 8.2023 5.0648 8.2023 6.0048C8.2023 6.7648 7.6623 7.6048 6.8623 8.0248V9.3348C6.9923 9.3248 7.1623 9.3648 7.3023 9.4848L8.8323 10.6948L12.6023 9.1148C12.9223 8.9748 13.1523 8.7848 13.3023 8.4848L15.3323 4.4448C15.4923 4.1148 15.8923 3.9848 16.2223 4.1448C16.5423 4.3148 16.6923 4.7148 16.5123 5.0548L14.4623 9.1648C14.3223 9.4348 14.2823 9.7048 14.3423 9.9948L14.8523 12.7748L17.4523 14.9048C17.6223 15.0448 17.7423 15.2448 17.7423 15.4848V18.7348C17.7423 19.1048 17.4523 19.4048 17.0723 19.4048C16.7023 19.4048 16.4023 19.1048 16.4023 18.7348V15.8348L14.3923 14.4848C14.1823 14.3348 13.8623 14.4948 13.8823 14.7848L14.0623 17.3948C14.0723 17.6848 13.9323 17.9748 13.6423 18.0948L10.3023 19.4248C9.9723 19.5548 9.5823 19.4548 9.4323 19.0648C9.2923 18.7148 9.4723 18.3248 9.8123 18.1848L12.6423 17.0648L11.6223 11.4148C11.5923 11.2148 11.4423 11.0648 11.1523 11.1948L9.0823 12.0348C8.7923 12.1648 8.5423 12.1848 8.3123 12.0048L6.4423 10.5248C6.2823 10.3848 6.2223 10.1948 6.2223 9.9748V8.0248C5.4123 7.6248 4.8623 6.7648 4.8623 6.0048ZM5.5123 6.0048C5.5123 6.5948 5.9223 7.2348 6.5423 7.4748C7.1623 7.2348 7.5623 6.5948 7.5623 6.0048C7.5623 5.4048 7.1123 4.9548 6.5423 4.9548C5.9523 4.9548 5.5123 5.4048 5.5123 6.0048ZM11.2023 8.7648C10.3923 8.7648 9.7523 8.1048 9.7523 7.3248C9.7523 6.5348 10.3923 5.8748 11.2023 5.8748C11.9923 5.8748 12.6323 6.5348 12.6323 7.3248C12.6323 8.1048 11.9923 8.7648 11.2023 8.7648Z" />
        </svg>
    