
        <svg xmlns="http://www.w3.org/2000/svg" viewBox="0 0 100 100">
            <path d="M11.9523 23.9041C18.5523 23.9041 23.9023 18.5541 23.9023 11.9541C23.9023 5.3541 18.5523 0.0041 11.9523 0.0041C5.3523 0.0041 0.0023 5.3541 0.0023 11.9541C0.0023 18.5541 5.3523 23.9041 11.9523 23.9041ZM11.9523 21.9141C6.4423 21.9141 1.9923 17.4641 1.9923 11.9541C1.9923 6.4441 6.4423 1.9941 11.9523 1.9941C17.4623 1.9941 21.9123 6.4441 21.9123 11.9541C21.9123 17.4641 17.4623 21.9141 11.9523 21.9141ZM14.4523 6.8341C15.2423 6.8341 15.8623 6.1841 15.8623 5.4141C15.8623 4.6241 15.2423 3.9941 14.4523 3.9941C13.6723 3.9941 13.0423 4.6241 13.0423 5.4141C13.0423 6.1841 13.6723 6.8341 14.4523 6.8341ZM9.2623 18.5541H13.7823C14.5123 18.5541 15.1023 18.4141 15.5823 18.0041C15.7823 17.8141 15.7823 17.5941 15.6523 17.4241C15.5423 17.2641 15.2823 17.2041 15.0623 17.3741C14.7223 17.6341 14.3823 17.7541 13.7823 17.7541H13.7223V14.1841C13.7223 13.9841 13.6623 13.8041 13.5323 13.6241L11.9023 11.5741L13.3023 9.4541C13.3823 9.3041 13.5823 9.3041 13.6523 9.4641L14.1223 10.3941C14.2223 10.6041 14.4523 10.7541 14.7023 10.7541H17.3623C17.7423 10.7541 18.0323 10.4641 18.0323 10.1041C18.0323 9.7241 17.7423 9.4241 17.3623 9.4241H15.1323L14.4223 8.0141C14.1423 7.4641 13.5723 7.1041 12.9423 7.1041H9.3823C9.1723 7.1041 8.9523 7.2041 8.8323 7.4041L7.5123 9.3941C7.3223 9.6941 7.3823 10.1141 7.7023 10.3141C7.9923 10.5141 8.4223 10.4341 8.6223 10.1241L9.7423 8.4241H10.8323C10.9223 8.4241 10.9723 8.5041 10.9223 8.5941L9.7923 10.2741C9.4523 10.7841 9.5123 11.4941 9.9723 11.9541L12.3823 14.3641V17.7541H9.2623C8.6623 17.7541 8.3223 17.6341 7.9823 17.3741C7.7723 17.2241 7.5323 17.2641 7.4023 17.4141C7.2823 17.5641 7.2423 17.8141 7.4523 18.0041C7.9323 18.4141 8.5323 18.5541 9.2623 18.5541ZM5.9623 12.9241L8.5823 15.2141C8.9723 15.5741 9.4423 15.3741 9.6523 15.0541L10.6723 13.4541L9.5723 12.3441C9.5523 12.3241 9.5523 12.3241 9.5323 12.2941L8.8523 13.6841L6.8423 11.9141C6.5623 11.6841 6.1423 11.6941 5.9023 11.9741C5.6623 12.2541 5.6823 12.6841 5.9623 12.9241ZM9.2623 20.0041C9.5623 20.0041 9.8223 19.7441 9.8223 19.4441C9.8223 19.1341 9.5623 18.8741 9.2623 18.8741C8.9523 18.8741 8.6923 19.1341 8.6923 19.4441C8.6923 19.7441 8.9523 20.0041 9.2623 20.0041ZM13.7823 20.0041C14.0823 20.0041 14.3323 19.7441 14.3323 19.4441C14.3323 19.1341 14.0823 18.8741 13.7823 18.8741C13.4723 18.8741 13.2223 19.1341 13.2223 19.4441C13.2223 19.7441 13.4723 20.0041 13.7823 20.0041Z" />
        </svg>
    