
        <svg xmlns="http://www.w3.org/2000/svg" viewBox="0 0 100 100">
            <path d="M7.2904 5.4491C8.7804 5.4491 9.9904 4.1991 9.9904 2.7391C9.9904 1.2291 8.7804 -0.0009 7.2904 -0.0009C5.7804 -0.0009 4.5804 1.2291 4.5804 2.7391C4.5804 4.2191 5.7804 5.4491 7.2904 5.4491ZM25.7004 4.4691H30.5404C30.9104 4.4691 30.9804 4.0691 30.7004 3.8791L28.5604 2.3991C28.2604 2.1991 27.9804 2.1991 27.6804 2.3991L25.5504 3.8791C25.2504 4.0691 25.3204 4.4691 25.7004 4.4691ZM11.4604 7.8391L13.7404 5.2991C14.1704 4.8091 14.1404 4.2691 13.7104 3.9091C13.3104 3.5591 12.8104 3.5491 12.3504 4.0691L9.7604 6.9691C10.3804 7.1991 10.9604 7.4891 11.4604 7.8391ZM18.4804 7.8191V10.8191C18.4804 11.6691 19.1104 12.3191 19.9804 12.3191H22.3904C23.2504 12.3191 23.8904 11.6691 23.8904 10.8191V7.8191C23.8904 6.9491 23.2504 6.3091 22.3904 6.3091H19.9804C19.1104 6.3091 18.4804 6.9491 18.4804 7.8191ZM25.4304 7.8191V10.8191C25.4304 11.6691 26.0604 12.3191 26.9304 12.3191H29.3304C30.2104 12.3191 30.8304 11.6691 30.8304 10.8191V7.8191C30.8304 6.9491 30.2104 6.3091 29.3304 6.3091H26.9304C26.0604 6.3091 25.4304 6.9491 25.4304 7.8191ZM32.3704 7.8191V10.8191C32.3704 11.6691 33.0104 12.3191 33.8704 12.3191H36.2804C37.1604 12.3191 37.7904 11.6691 37.7904 10.8191V7.8191C37.7904 6.9491 37.1604 6.3091 36.2804 6.3091H33.8704C33.0104 6.3091 32.3704 6.9491 32.3704 7.8191ZM2.0604 15.5191L9.7604 6.9691C9.0204 6.6991 8.2104 6.5791 7.2904 6.5791C3.7804 6.5791 1.7104 8.2591 1.7104 11.0891C1.7104 11.7691 1.7304 12.6791 1.8504 13.6091ZM12.5004 15.5191L12.7104 13.6091C12.8204 12.6791 12.8504 11.7691 12.8504 11.0891C12.8504 9.7191 12.3704 8.6091 11.4604 7.8391L5.4204 14.5591C6.0604 14.4591 6.6704 14.4291 7.2904 14.4291C9.0104 14.4291 10.7304 14.6591 12.5004 15.5191ZM18.4804 16.5191V19.5191C18.4804 20.3791 19.1104 21.0191 19.9804 21.0191H22.3904C23.2504 21.0191 23.8904 20.3791 23.8904 19.5191V16.5191C23.8904 15.6591 23.2504 15.0091 22.3904 15.0091H19.9804C19.1104 15.0091 18.4804 15.6591 18.4804 16.5191ZM25.4304 16.5191V19.5191C25.4304 20.3791 26.0604 21.0191 26.9304 21.0191H29.3304C30.2104 21.0191 30.8304 20.3791 30.8304 19.5191V16.5191C30.8304 15.6591 30.2104 15.0091 29.3304 15.0091H26.9304C26.0604 15.0091 25.4304 15.6591 25.4304 16.5191ZM32.3704 16.5191V19.5191C32.3704 20.3791 33.0104 21.0191 33.8704 21.0191H36.2804C37.1604 21.0191 37.7904 20.3791 37.7904 19.5191V16.5191C37.7904 15.6591 37.1604 15.0091 36.2804 15.0091H33.8704C33.0104 15.0091 32.3704 15.6591 32.3704 16.5191ZM0.4704 16.4791C-0.0796 16.8591 -0.0996 17.4391 0.1604 17.8091C0.3904 18.1791 0.8904 18.3391 1.3904 18.0191C1.6904 17.8291 1.9704 17.6491 2.2704 17.4891L2.0604 15.5191C1.4904 15.7891 0.9604 16.0891 0.4704 16.4791ZM4.3504 24.6091C5.1004 24.4991 5.6004 23.9791 5.4904 23.0391L5.0104 18.5891H9.5404L9.0704 23.0391C8.9604 23.9791 9.4704 24.4991 10.2204 24.6091C10.9904 24.6791 11.5804 24.2091 11.6704 23.2991L12.2904 17.4891C12.6004 17.6491 12.8804 17.8291 13.1604 18.0191C13.6604 18.3391 14.1504 18.1891 14.3904 17.8291C14.6604 17.4591 14.6504 16.8791 14.1104 16.4791C13.6004 16.0891 13.0804 15.7891 12.5004 15.5191L12.2904 17.4891C10.7104 16.5691 8.9604 16.2191 7.2904 16.2191C5.6004 16.2191 3.8404 16.5691 2.2704 17.4891L2.8904 23.2991C2.9904 24.2091 3.5704 24.6791 4.3504 24.6091Z" />
        </svg>
    