
        <svg xmlns="http://www.w3.org/2000/svg" viewBox="0 0 100 100">
            <path d="M4.8917 4.7308C6.2017 4.7308 7.2517 3.6808 7.2517 2.3708C7.2517 1.0508 6.2017 0.0008 4.8917 0.0008C3.5717 0.0008 2.5217 1.0508 2.5217 2.3708C2.5217 3.6808 3.5717 4.7308 4.8917 4.7308ZM0.0017 14.8508C0.0017 15.3608 0.4217 15.7808 0.9217 15.7808C1.4517 15.7808 1.8617 15.3608 1.8617 14.8508V10.5808C1.8617 10.4108 2.0017 10.2608 2.1817 10.2608C2.3517 10.2608 2.4917 10.4108 2.4917 10.5808V23.5808C2.4917 24.1508 2.9617 24.6108 3.5317 24.6108C4.1017 24.6108 4.5617 24.1508 4.5617 23.5808V15.6308C4.5617 15.4608 4.7117 15.3208 4.8917 15.3208C5.0617 15.3208 5.2017 15.4608 5.2017 15.6308V23.5808C5.2017 24.1508 5.6617 24.6108 6.2317 24.6108C6.8117 24.6108 7.2617 24.1508 7.2617 23.5808V10.5808C7.2617 10.4108 7.4017 10.2608 7.5817 10.2608C7.7617 10.2608 7.9017 10.4108 7.9017 10.5808V14.8508C7.9017 15.3608 8.3117 15.7808 8.8317 15.7808C9.3517 15.7808 9.7617 15.3608 9.7617 14.8508V10.1008C9.7617 7.6908 8.0017 6.0808 5.5917 6.0808H4.1717C1.7617 6.0808 0.0017 7.6908 0.0017 10.1008Z" />
        </svg>
    