
        <svg xmlns="http://www.w3.org/2000/svg" viewBox="0 0 100 100">
            <path d="M12.8517 5.9167C14.4717 5.9167 15.8117 4.5967 15.8117 2.9667C15.8117 1.3367 14.4717 -0.0033 12.8517 -0.0033C11.2117 -0.0033 9.8917 1.3367 9.8917 2.9667C9.8917 4.5967 11.2117 5.9167 12.8517 5.9167ZM13.6717 17.9567L20.5117 20.0667L27.0217 23.0067C29.0417 23.9167 30.2317 21.0367 28.3117 20.1667L17.2417 15.1567V9.3167C17.2417 9.0867 17.3317 8.9667 17.5517 8.8667L20.9417 7.4867C21.3117 7.3367 21.4217 7.2467 21.7117 6.8867L25.2817 2.7567C25.8417 2.1067 25.7417 1.1267 25.1017 0.5767C24.4617 -0.0133 23.4617 0.1067 22.9117 0.7367L19.5617 4.6567L3.9717 11.0167C3.6917 11.1367 3.3117 11.3167 3.0517 11.5567H10.9617L11.4417 11.3567C11.5917 11.2867 11.6917 11.3667 11.6917 11.5067V15.2367C11.6917 16.6567 12.3717 17.5567 13.6717 17.9567ZM1.1617 15.3367H10.2317V13.0167H1.1617C0.5117 13.0167 0.0017 13.5467 0.0017 14.1767C0.0017 14.8267 0.5117 15.3367 1.1617 15.3367ZM29.4617 15.3367C30.0917 15.3367 30.6217 14.8267 30.6217 14.1767C30.6217 13.5467 30.0917 13.0167 29.4617 13.0167H18.9817V14.2967L21.2117 15.3367ZM12.3617 28.4367C12.0217 29.6367 12.9817 30.3667 13.9117 30.3667C14.5317 30.3667 15.1517 30.0367 15.3717 29.2467L17.1817 22.6567C17.2217 22.4867 17.2417 22.3367 17.2417 22.2467V20.5867L13.8017 19.5267L14.1117 22.1367Z" />
        </svg>
    