
        <svg xmlns="http://www.w3.org/2000/svg" viewBox="0 0 100 100">
            <path d="M7.2909 4.5495C8.5609 4.5495 9.5709 3.5595 9.5709 2.2895C9.5709 0.9995 8.5609 -0.0005 7.2909 -0.0005C6.0109 -0.0005 5.0309 0.9995 5.0309 2.2895C5.0309 3.5595 6.0109 4.5495 7.2909 4.5495ZM19.8609 4.5495C21.1409 4.5495 22.1409 3.5595 22.1409 2.2895C22.1409 0.9995 21.1409 -0.0005 19.8609 -0.0005C18.5809 -0.0005 17.5909 0.9995 17.5909 2.2895C17.5909 3.5595 18.5809 4.5495 19.8609 4.5495ZM19.8609 15.0395C20.3409 15.0395 20.5609 15.3795 20.7909 16.1695C21.1009 17.2995 22.2809 21.9095 22.6609 23.2695C22.8309 23.9095 23.1509 24.2095 23.6609 24.2095C24.3309 24.2095 24.7209 23.5995 24.5609 22.9295C24.4809 22.6395 22.8409 15.9495 22.6509 14.5695C22.4909 13.1995 22.4009 10.2195 22.4009 9.5195C22.4009 9.3795 22.5709 9.3195 22.6909 9.4595C23.3509 10.3695 25.0809 12.7695 25.3509 13.1395C25.6709 13.5395 26.1909 13.6095 26.6209 13.3795C27.1409 13.1095 27.2709 12.5595 27.0509 12.1395C26.9309 11.9295 26.8009 11.7495 26.6209 11.5095L24.0309 7.7695C22.8709 6.0895 21.4309 5.8695 19.8609 5.8695C18.2809 5.8695 16.8509 6.0895 15.6909 7.7695L13.0909 11.5095C12.9209 11.7495 12.7809 11.9295 12.6809 12.1395C12.4409 12.5595 12.5809 13.1095 13.1009 13.3795C13.5209 13.6095 14.0409 13.5395 14.3709 13.1395C14.6509 12.7695 16.3609 10.3695 17.0409 9.4595C17.1409 9.3195 17.3209 9.3795 17.3209 9.5295C17.3209 10.2195 17.2409 13.1995 17.0609 14.5695C16.8909 15.9495 15.2309 22.6395 15.1609 22.9295C14.9909 23.5995 15.3909 24.2095 16.0509 24.2095C16.5609 24.2095 16.8909 23.9095 17.0609 23.2695C17.4409 21.9095 18.6109 17.2995 18.9209 16.1695C19.1509 15.3795 19.3809 15.0395 19.8609 15.0395ZM2.5909 22.9295C2.4109 23.5995 2.8209 24.2095 3.4909 24.2095C3.9909 24.2095 4.3209 23.9095 4.4909 23.2695C4.8709 21.9095 6.0509 17.2995 6.3609 16.1695C6.5809 15.3795 6.8109 15.0395 7.2909 15.0395C7.7709 15.0395 8.0009 15.3795 8.2209 16.1695C8.5409 17.2995 9.7109 21.9095 10.0909 23.2695C10.2609 23.9095 10.5909 24.2095 11.1009 24.2095C11.7609 24.2095 12.1609 23.5995 11.9909 22.9295C11.9209 22.6395 10.2609 15.9495 10.0909 14.5695C9.9109 13.1995 9.8309 10.2195 9.8309 9.5195C9.8309 9.3795 10.0109 9.3195 10.1109 9.4595C10.6709 10.2295 11.2609 11.0395 11.8309 11.8395C11.8609 11.7695 12.1909 11.2395 12.3409 10.9895L13.0209 10.0195L11.4609 7.7695C10.3009 6.0895 8.8709 5.8695 7.2909 5.8695C5.7109 5.8695 4.2809 6.0895 3.1209 7.7695L0.5309 11.5095C0.3509 11.7495 0.2209 11.9295 0.1009 12.1395C-0.1191 12.5595 0.0109 13.1095 0.5309 13.3795C0.9609 13.6095 1.4709 13.5395 1.7909 13.1395C2.0709 12.7695 3.8009 10.3695 4.4609 9.4595C4.5709 9.3195 4.7409 9.3795 4.7409 9.5295C4.7409 10.2195 4.6609 13.1995 4.5009 14.5695C4.3109 15.9495 2.6709 22.6395 2.5909 22.9295Z" />
        </svg>
    