
        <svg xmlns="http://www.w3.org/2000/svg" viewBox="0 0 100 100">
            <path d="M5.0017 4.6272C6.2917 4.6272 7.3217 3.5972 7.3217 2.3072C7.3217 1.0272 6.2917 -0.0028 5.0017 -0.0028C3.7217 -0.0028 2.6917 1.0272 2.6917 2.3072C2.6917 3.5972 3.7217 4.6272 5.0017 4.6272ZM29.0817 4.6272C30.3717 4.6272 31.4017 3.5972 31.4017 2.3072C31.4017 1.0272 30.3717 -0.0028 29.0817 -0.0028C27.8117 -0.0028 26.7817 1.0272 26.7817 2.3072C26.7817 3.5972 27.8117 4.6272 29.0817 4.6272ZM0.0017 14.3272C0.0017 14.8472 0.4217 15.2672 0.9417 15.2672C1.4617 15.2672 1.8917 14.8472 1.8917 14.3272V10.2272C1.8917 10.0472 2.0417 9.8872 2.2217 9.8872C2.4217 9.8872 2.5817 10.0472 2.5817 10.2272V22.6272C2.5817 23.2072 3.0317 23.6572 3.6117 23.6572C4.1917 23.6572 4.6517 23.2072 4.6517 22.6272V15.0772C4.6517 14.8972 4.8117 14.7272 5.0017 14.7272C5.2017 14.7272 5.3717 14.8972 5.3717 15.0772V22.6272C5.3717 23.2072 5.8217 23.6572 6.4017 23.6572C6.9717 23.6572 7.4417 23.2072 7.4417 22.6272V10.2272C7.4417 10.0472 7.5917 9.8872 7.7817 9.8872C7.9717 9.8872 8.1317 10.0472 8.1317 10.2272V14.3272C8.1317 14.8472 8.5417 15.2672 9.0717 15.2672C9.6017 15.2672 10.0117 14.8472 10.0117 14.3272V9.7472C10.0117 7.3972 8.3017 5.8472 5.7817 5.8472H4.2417C1.7217 5.8472 0.0017 7.3972 0.0017 9.7472ZM24.0817 14.3272C24.0817 14.8472 24.5017 15.2672 25.0217 15.2672C25.5517 15.2672 25.9717 14.8472 25.9717 14.3272V10.2272C25.9717 10.0472 26.1217 9.8872 26.3217 9.8872C26.5117 9.8872 26.6617 10.0472 26.6617 10.2272V22.6272C26.6617 23.2072 27.1217 23.6572 27.6917 23.6572C28.2817 23.6572 28.7317 23.2072 28.7317 22.6272V15.0772C28.7317 14.8972 28.9017 14.7272 29.0817 14.7272C29.2817 14.7272 29.4517 14.8972 29.4517 15.0772V22.6272C29.4517 23.2072 29.9017 23.6572 30.4817 23.6572C31.0517 23.6572 31.5217 23.2072 31.5217 22.6272V10.2272C31.5217 10.0472 31.6717 9.8872 31.8617 9.8872C32.0517 9.8872 32.2117 10.0472 32.2117 10.2272V14.3272C32.2117 14.8472 32.6217 15.2672 33.1517 15.2672C33.6817 15.2672 34.1017 14.8472 34.1017 14.3272V9.7472C34.1017 7.3972 32.3817 5.8472 29.8617 5.8472H28.3217C25.8017 5.8472 24.0817 7.3972 24.0817 9.7472ZM13.1717 12.9172C13.7217 12.9172 14.1817 12.4572 14.1817 11.9072C14.1817 11.3572 13.7217 10.8972 13.1717 10.8972C12.6217 10.8972 12.1617 11.3572 12.1617 11.9072C12.1617 12.4572 12.6217 12.9172 13.1717 12.9172ZM17.0517 12.9172C17.6017 12.9172 18.0617 12.4572 18.0617 11.9072C18.0617 11.3572 17.6017 10.8972 17.0517 10.8972C16.5017 10.8972 16.0417 11.3572 16.0417 11.9072C16.0417 12.4572 16.5017 12.9172 17.0517 12.9172ZM20.9217 12.9172C21.4717 12.9172 21.9217 12.4572 21.9217 11.9072C21.9217 11.3572 21.4717 10.8972 20.9217 10.8972C20.3717 10.8972 19.9117 11.3572 19.9117 11.9072C19.9117 12.4572 20.3717 12.9172 20.9217 12.9172Z" />
        </svg>
    