
        <svg xmlns="http://www.w3.org/2000/svg" viewBox="0 0 100 100">
            <path d="M2.4417 0.7691C2.4417 1.2091 2.7917 1.5591 3.2217 1.5591C4.2817 1.5591 4.8917 1.7491 5.5517 2.4591C5.8217 2.7691 6.1217 2.9191 6.4217 2.9191C6.7417 2.9191 7.0317 2.7691 7.3017 2.4591C7.9717 1.7491 8.5817 1.5591 9.6317 1.5591C10.0617 1.5591 10.4217 1.2091 10.4217 0.7691C10.4217 0.3391 10.0617 -0.0009 9.6317 -0.0009C8.3117 -0.0009 7.4017 0.3091 6.4217 1.1691C5.4517 0.3091 4.5517 -0.0009 3.2217 -0.0009C2.7917 -0.0009 2.4417 0.3391 2.4417 0.7691ZM16.0617 5.4491C17.5217 5.4491 18.7017 4.2691 18.7017 2.8091C18.7017 1.3491 17.5217 0.1591 16.0617 0.1591C14.6017 0.1591 13.4217 1.3491 13.4217 2.8091C13.4217 4.2691 14.6017 5.4491 16.0617 5.4491ZM4.2517 14.1191C5.0117 14.4691 5.7117 14.1291 6.0017 13.5391L8.1317 9.2791H10.6217C10.8617 9.2791 10.9917 9.4891 10.8917 9.6991L8.6517 14.1491C7.7817 15.8591 8.8517 18.0191 11.1017 17.8791L17.0417 17.5091L14.8617 22.3691C14.5517 23.0491 14.8517 23.8691 15.5117 24.1291C16.2517 24.4091 16.9217 24.1891 17.2517 23.4591L20.3817 16.5891C20.7417 15.7991 20.2217 14.7191 19.2117 14.7191H13.8317L16.1817 9.9991C16.2817 9.8191 16.4917 9.7691 16.6417 9.9091L19.4717 12.6291C20.1017 13.2291 21.2017 13.1291 21.6217 12.2791L24.0917 7.2891C24.4217 6.6491 24.2117 5.8391 23.5117 5.5091C22.8517 5.1991 22.0517 5.4591 21.7217 6.1191L20.0517 9.4491L18.7117 8.1091C17.7417 7.1491 16.7117 6.6291 15.1317 6.6291H7.3217C6.8317 6.6291 6.3617 6.9291 6.1517 7.3591L3.6317 12.3591C3.3017 13.0191 3.5617 13.7891 4.2517 14.1191ZM0.8317 26.1591C1.2517 27.0191 2.1517 27.0391 2.5917 26.8491L8.7917 24.1391C9.0817 24.0191 9.3117 23.7991 9.4617 23.5191L11.6517 19.0891L11.1817 19.1291C10.1117 19.1791 9.2117 18.8791 8.5417 18.3591L7.2217 21.9291L1.5217 24.3791C0.8317 24.6791 0.4917 25.4491 0.8317 26.1591ZM21.6017 27.3791C23.0817 27.3791 24.2717 26.1991 24.2717 24.7191C24.2717 23.2491 23.0817 22.0691 21.6017 22.0691C20.1317 22.0691 18.9617 23.2491 18.9617 24.7191C18.9617 26.1991 20.1317 27.3791 21.6017 27.3791ZM0.7517 30.4791C1.1617 30.4791 1.5017 30.1491 1.5017 29.7391C1.5017 29.3191 1.1617 28.9891 0.7517 28.9891C0.3317 28.9891 0.0017 29.3191 0.0017 29.7391C0.0017 30.1491 0.3317 30.4791 0.7517 30.4791ZM2.9317 30.4791C3.3417 30.4791 3.6817 30.1491 3.6817 29.7391C3.6817 29.3191 3.3417 28.9891 2.9317 28.9891C2.5117 28.9891 2.1817 29.3191 2.1817 29.7391C2.1817 30.1491 2.5117 30.4791 2.9317 30.4791ZM5.1117 30.4791C5.5217 30.4791 5.8617 30.1491 5.8617 29.7391C5.8617 29.3191 5.5217 28.9891 5.1117 28.9891C4.6917 28.9891 4.3617 29.3191 4.3617 29.7391C4.3617 30.1491 4.6917 30.4791 5.1117 30.4791ZM7.2917 30.4791C7.7017 30.4791 8.0317 30.1491 8.0317 29.7391C8.0317 29.3191 7.7017 28.9891 7.2917 28.9891C6.8717 28.9891 6.5417 29.3191 6.5417 29.7391C6.5417 30.1491 6.8717 30.4791 7.2917 30.4791ZM9.4717 30.4791C9.8817 30.4791 10.2117 30.1491 10.2117 29.7391C10.2117 29.3191 9.8817 28.9891 9.4717 28.9891C9.0517 28.9891 8.7217 29.3191 8.7217 29.7391C8.7217 30.1491 9.0517 30.4791 9.4717 30.4791ZM11.6517 30.4791C12.0617 30.4791 12.3917 30.1491 12.3917 29.7391C12.3917 29.3191 12.0617 28.9891 11.6517 28.9891C11.2217 28.9891 10.9017 29.3191 10.9017 29.7391C10.9017 30.1491 11.2217 30.4791 11.6517 30.4791ZM13.8317 30.4791C14.2417 30.4791 14.5617 30.1491 14.5617 29.7391C14.5617 29.3191 14.2417 28.9891 13.8317 28.9891C13.4017 28.9891 13.0817 29.3191 13.0817 29.7391C13.0817 30.1491 13.4017 30.4791 13.8317 30.4791ZM16.0117 30.4791C16.4217 30.4791 16.7417 30.1491 16.7417 29.7391C16.7417 29.3191 16.4217 28.9891 16.0117 28.9891C15.5817 28.9891 15.2617 29.3191 15.2617 29.7391C15.2617 30.1491 15.5817 30.4791 16.0117 30.4791ZM18.1917 30.4791C18.6017 30.4791 18.9217 30.1491 18.9217 29.7391C18.9217 29.3191 18.6017 28.9891 18.1917 28.9891C17.7617 28.9891 17.4417 29.3191 17.4417 29.7391C17.4417 30.1491 17.7617 30.4791 18.1917 30.4791ZM20.3717 30.4791C20.7817 30.4791 21.1017 30.1491 21.1017 29.7391C21.1017 29.3191 20.7817 28.9891 20.3717 28.9891C19.9417 28.9891 19.6217 29.3191 19.6217 29.7391C19.6217 30.1491 19.9417 30.4791 20.3717 30.4791ZM22.5517 30.4791C22.9617 30.4791 23.2817 30.1491 23.2817 29.7391C23.2817 29.3191 22.9617 28.9891 22.5517 28.9891C22.1217 28.9891 21.8017 29.3191 21.8017 29.7391C21.8017 30.1491 22.1217 30.4791 22.5517 30.4791ZM24.7217 30.4791C25.1417 30.4791 25.4617 30.1491 25.4617 29.7391C25.4617 29.3191 25.1417 28.9891 24.7217 28.9891C24.3017 28.9891 23.9717 29.3191 23.9717 29.7391C23.9717 30.1491 24.3017 30.4791 24.7217 30.4791Z" />
        </svg>
    