
        <svg xmlns="http://www.w3.org/2000/svg" viewBox="0 0 100 100">
            <path d="M11.4917 22.977C17.8117 22.977 22.9817 17.827 22.9817 11.497C22.9817 5.167 17.8117 -0.003 11.4917 -0.003C5.1717 -0.003 0.0017 5.167 0.0017 11.497C0.0017 17.827 5.1717 22.977 11.4917 22.977ZM14.4417 7.737C13.6517 7.737 13.0117 7.097 13.0117 6.317C13.0117 5.527 13.6517 4.897 14.4417 4.897C15.2117 4.897 15.8517 5.527 15.8517 6.317C15.8517 7.097 15.2117 7.737 14.4417 7.737ZM9.0017 8.697C8.6117 8.317 8.7617 7.807 9.1717 7.667L10.5617 7.127C11.2017 6.877 11.9317 6.977 12.4117 7.417L15.1317 9.947C15.2817 10.097 15.3317 10.257 15.3317 10.427V13.207L18.1017 15.677C18.4417 15.987 18.7417 15.847 18.7417 15.537V15.457C18.7417 15.247 18.9017 15.117 19.0817 15.117C19.2817 15.117 19.4717 15.297 19.4717 15.577C19.4917 16.117 19.0917 16.497 18.5317 16.497C18.1917 16.497 17.9017 16.367 17.6517 16.127L15.1217 13.777C15.0217 13.897 14.8617 13.967 14.6817 13.967C14.3317 13.967 14.0517 13.687 14.0517 13.327V12.797L13.2417 12.047C13.0117 12.187 12.6917 12.137 12.4817 11.957ZM9.2217 17.047C8.9217 16.877 8.7617 16.487 8.9417 16.187L10.3917 13.607L8.0617 11.767C6.9817 10.907 7.3117 9.507 8.4517 8.927L8.5417 8.897C8.5817 8.957 8.6217 8.997 8.6817 9.057L10.4217 10.687L9.8817 10.977L11.6517 12.937C11.8317 13.157 11.9017 13.427 11.7817 13.677L10.0917 16.757C9.8917 17.117 9.4717 17.187 9.2217 17.047ZM12.1217 9.867L13.3717 11.027C13.5517 11.177 13.6017 11.407 13.5617 11.627L14.0517 12.057V10.697L12.9417 9.667C12.8417 9.597 12.7117 9.567 12.5817 9.617ZM3.3517 14.037C3.3517 13.677 3.6317 13.387 3.9917 13.387H6.7217L7.2917 11.647C7.3917 11.827 7.5517 11.977 7.7617 12.137L8.5517 12.757L7.7717 14.327C7.6617 14.527 7.4517 14.687 7.1817 14.687H3.9917C3.6317 14.687 3.3517 14.407 3.3517 14.037ZM14.5917 16.767C14.5917 16.277 14.9717 15.887 15.4417 15.887C15.9217 15.887 16.3117 16.277 16.3117 16.767C16.3117 17.237 15.9217 17.627 15.4417 17.627C14.9717 17.627 14.5917 17.237 14.5917 16.767Z" />
        </svg>
    