
        <svg xmlns="http://www.w3.org/2000/svg" viewBox="0 0 100 100">
            <path d="M7.0775 5.3447C8.5375 5.3447 9.7175 4.1147 9.7175 2.6847C9.7175 1.1947 8.5375 0.0047 7.0775 0.0047C5.5875 0.0047 4.4175 1.1947 4.4175 2.6847C4.4175 4.1347 5.5875 5.3447 7.0775 5.3447ZM25.0075 4.4047H29.7475C30.1275 4.4047 30.1875 4.0147 29.9175 3.8347L27.7975 2.3747C27.5075 2.1947 27.2375 2.1947 26.9675 2.3747L24.8475 3.8347C24.5675 4.0147 24.6375 4.4047 25.0075 4.4047ZM11.1475 7.6547L13.3975 5.1447C13.8075 4.6847 13.7775 4.1747 13.3775 3.8347C13.0075 3.5047 12.5075 3.4947 12.0775 3.9747L9.5375 6.8347C10.1175 7.0447 10.6675 7.3347 11.1475 7.6547ZM17.9975 7.6747V10.6047C17.9975 11.4447 18.6075 12.0747 19.4475 12.0747H21.7975C22.6375 12.0747 23.2575 11.4447 23.2575 10.6047V7.6747C23.2575 6.8247 22.6375 6.1947 21.7975 6.1947H19.4475C18.6075 6.1947 17.9975 6.8247 17.9975 7.6747ZM24.7575 7.6747V10.6047C24.7575 11.4447 25.3775 12.0747 26.2175 12.0747H28.5675C29.4075 12.0747 30.0175 11.4447 30.0175 10.6047V7.6747C30.0175 6.8247 29.4075 6.1947 28.5675 6.1947H26.2175C25.3775 6.1947 24.7575 6.8247 24.7575 7.6747ZM31.5175 7.6747V10.6047C31.5175 11.4447 32.1375 12.0747 32.9975 12.0747H35.3275C36.1875 12.0747 36.7975 11.4447 36.7975 10.6047V7.6747C36.7975 6.8247 36.1875 6.1947 35.3275 6.1947H32.9975C32.1375 6.1947 31.5175 6.8247 31.5175 7.6747ZM1.9375 15.2547L9.5375 6.8347C8.7975 6.5647 7.9875 6.4347 7.0775 6.4347C3.6275 6.4347 1.5975 8.0947 1.5975 10.8647C1.5975 11.5347 1.6275 12.4347 1.7275 13.3347ZM12.1875 15.2547L12.4075 13.3347C12.5075 12.4347 12.5475 11.5347 12.5475 10.8647C12.5475 9.5147 12.0675 8.4147 11.1475 7.6647L5.1775 14.3047C5.8175 14.2147 6.4375 14.1747 7.0775 14.1747C8.7575 14.1747 10.4575 14.4047 12.1875 15.2547ZM17.9975 16.2147V19.1447C17.9975 19.9947 18.6075 20.6247 19.4475 20.6247H21.7975C22.6375 20.6247 23.2575 19.9947 23.2575 19.1447V16.2147C23.2575 15.3747 22.6375 14.7547 21.7975 14.7547H19.4475C18.6075 14.7547 17.9975 15.3747 17.9975 16.2147ZM24.7575 16.2147V19.1447C24.7575 19.9947 25.3775 20.6247 26.2175 20.6247H28.5675C29.4075 20.6247 30.0175 19.9947 30.0175 19.1447V16.2147C30.0175 15.3747 29.4075 14.7547 28.5675 14.7547H26.2175C25.3775 14.7547 24.7575 15.3747 24.7575 16.2147ZM31.5175 16.2147V19.1447C31.5175 19.9947 32.1375 20.6247 32.9975 20.6247H35.3275C36.1875 20.6247 36.7975 19.9947 36.7975 19.1447V16.2147C36.7975 15.3747 36.1875 14.7547 35.3275 14.7547H32.9975C32.1375 14.7547 31.5175 15.3747 31.5175 16.2147ZM0.4175 16.1747C-0.0725 16.5247 -0.0825 17.0647 0.1475 17.4147C0.3575 17.7647 0.8275 17.9247 1.3075 17.6247C1.5875 17.4347 1.8575 17.2747 2.1475 17.1247L1.9375 15.2547C1.3875 15.5047 0.8875 15.7947 0.4175 16.1747ZM4.1575 24.1447C4.8875 24.0447 5.3675 23.5347 5.2675 22.6247L4.7875 18.2347H9.3375L8.8675 22.6247C8.7775 23.5347 9.2575 24.0447 9.9675 24.1447C10.7075 24.2247 11.2775 23.7547 11.3775 22.8847L11.9875 17.1247C12.2775 17.2747 12.5475 17.4347 12.8275 17.6247C13.2975 17.9247 13.7575 17.7747 13.9775 17.4247C14.2175 17.0747 14.2175 16.5347 13.7275 16.1747C13.2475 15.7947 12.7475 15.5047 12.1875 15.2547L11.9875 17.1047C10.4275 16.2147 8.7175 15.8747 7.0775 15.8747C5.4075 15.8747 3.6875 16.2147 2.1475 17.1247L2.7575 22.8847C2.8575 23.7547 3.4175 24.2247 4.1575 24.1447Z" />
        </svg>
    