
        <svg xmlns="http://www.w3.org/2000/svg" viewBox="0 0 100 100">
            <path d="M11.8229 5.918C13.4429 5.918 14.7829 4.598 14.7829 2.968C14.7829 1.338 13.4429 -0.002 11.8229 -0.002C10.1829 -0.002 8.8629 1.338 8.8629 2.968C8.8629 4.598 10.1829 5.918 11.8229 5.918ZM0.5529 30.368C1.1829 30.898 2.1429 30.868 2.7329 30.198L7.1629 25.148C7.4329 24.858 7.5929 24.518 7.6329 24.098L8.0829 19.528C8.1229 19.218 8.4429 19.138 8.6229 19.348L11.5429 22.708V29.188C11.5429 30.038 12.2429 30.748 13.1129 30.748C13.9629 30.748 14.6729 30.038 14.6729 29.188V22.198C14.6729 21.778 14.5329 21.478 14.3429 21.208L10.6529 15.818L12.4629 10.458C12.5129 10.258 12.5729 10.228 12.7829 10.228H20.6829C21.0329 11.008 21.8229 11.538 22.7229 11.538C23.9329 11.538 24.9129 10.558 24.9129 9.318C24.9129 8.108 23.9329 7.118 22.7229 7.118H7.7629C6.6729 7.118 5.7329 7.438 4.8429 8.328L2.4029 10.788C1.3929 11.788 1.9629 13.458 3.3429 13.458H5.2629L4.9029 14.588C4.6329 15.388 4.4929 16.268 4.4929 17.088V23.468L0.3929 28.158C-0.1871 28.808 -0.1171 29.788 0.5529 30.368Z" />
        </svg>
    