
        <svg xmlns="http://www.w3.org/2000/svg" viewBox="0 0 100 100">
            <path d="M20.3317 5.1581C21.7617 5.1581 22.9117 4.0081 22.9117 2.5781C22.9117 1.1481 21.7617 -0.0019 20.3317 -0.0019C18.9017 -0.0019 17.7517 1.1481 17.7517 2.5781C17.7517 4.0081 18.9017 5.1581 20.3317 5.1581ZM4.9217 4.7681H11.6817C12.0917 4.7681 12.4217 4.4281 12.4217 4.0081C12.4217 3.5881 12.0917 3.2381 11.6817 3.2381H4.9217C4.5017 3.2381 4.1817 3.5881 4.1817 4.0081C4.1817 4.4281 4.5017 4.7681 4.9217 4.7681ZM23.1217 25.9681C23.8717 27.5181 26.1417 26.5681 25.3217 24.8981L22.8117 19.8181C22.6317 19.4281 22.3517 19.0181 22.1217 18.6881L20.5217 16.4181L20.6417 16.0881C21.0817 14.8281 21.2217 14.0481 21.3117 12.7881L21.5617 9.2381C21.6817 7.5481 20.6817 6.2581 18.9617 6.2581C17.6617 6.2581 16.7817 6.9181 15.5817 8.0881L13.7117 9.9381C13.0917 10.5481 12.8917 11.0381 12.8317 11.8381L12.6117 14.7381C12.5517 15.4681 12.9617 15.9981 13.6417 16.0181C14.3217 16.0681 14.7317 15.6681 14.8017 14.8781L15.0817 11.6981L15.9817 10.8781C16.3117 10.5781 16.7417 10.7781 16.7117 11.1081L16.5117 13.8181C16.4017 15.1781 16.7217 15.8181 17.6717 16.9881L20.1517 20.1181C20.4017 20.4381 20.4417 20.5681 20.5417 20.7581ZM27.4017 11.0781H24.5517L22.7017 9.0081L22.5117 11.9981L23.2617 12.7481C23.6717 13.1581 24.0217 13.2781 24.7517 13.2781H27.4017C28.1417 13.2781 28.6317 12.8581 28.6317 12.1681C28.6317 11.5081 28.1217 11.0781 27.4017 11.0781ZM0.7217 10.6381H8.7517C9.1717 10.6381 9.4917 10.2981 9.4917 9.8781C9.4917 9.4581 9.1717 9.1081 8.7517 9.1081H0.7217C0.3117 9.1081 0.0017 9.4681 0.0017 9.8781C0.0017 10.2881 0.3117 10.6381 0.7217 10.6381ZM4.2317 16.5081H8.6917C9.1017 16.5081 9.4217 16.1681 9.4217 15.7481C9.4217 15.3281 9.1017 14.9781 8.6917 14.9781H4.2317C3.8117 14.9781 3.4917 15.3281 3.4917 15.7481C3.4917 16.1681 3.8117 16.5081 4.2317 16.5081ZM14.1217 26.3281L17.8117 21.9381C18.1717 21.5181 18.2217 21.3981 18.3617 20.9481L18.6717 20.0481L16.6917 17.5681L16.0617 20.4181L12.4117 24.7381C11.2417 26.1181 13.1517 27.4781 14.1217 26.3281ZM1.1517 22.3081H7.2617C7.6717 22.3081 7.9917 21.9681 7.9917 21.5481C7.9917 21.1281 7.6717 20.7781 7.2617 20.7781H1.1517C0.7417 20.7781 0.4217 21.1281 0.4217 21.5481C0.4217 21.9681 0.7417 22.3081 1.1517 22.3081Z" />
        </svg>
    