
        <svg xmlns="http://www.w3.org/2000/svg" viewBox="0 0 100 100">
            <path d="M11.3523 22.7064C17.6023 22.7064 22.7123 17.6064 22.7123 11.3564C22.7123 5.1064 17.6023 -0.0036 11.3523 -0.0036C5.1123 -0.0036 0.0023 5.1064 0.0023 11.3564C0.0023 17.6064 5.1123 22.7064 11.3523 22.7064ZM9.5123 6.2264C8.9623 6.2264 8.5223 5.7864 8.5223 5.2364C8.5223 4.6964 8.9623 4.2564 9.5123 4.2564C10.0523 4.2564 10.5123 4.6964 10.5123 5.2364C10.5123 5.7864 10.0523 6.2264 9.5123 6.2264ZM13.2323 7.8964C12.4523 7.8964 11.8123 7.2564 11.8123 6.4764C11.8123 5.6964 12.4523 5.0764 13.2323 5.0764C13.9923 5.0764 14.6323 5.6964 14.6323 6.4764C14.6323 7.2564 13.9923 7.8964 13.2323 7.8964ZM3.7923 15.0164C3.4323 15.0164 3.1523 14.7464 3.1523 14.3564C3.1523 14.0164 3.4323 13.7064 3.7923 13.7064H7.0223L9.8623 12.7164C10.1823 12.6064 10.4023 12.3564 10.4923 12.0264L11.0123 9.9964C11.0523 9.8564 10.9723 9.7764 10.8423 9.7764H8.1223C7.7623 9.7764 7.4523 9.4564 7.4523 9.0964V6.7964C7.4523 6.4264 7.7623 6.1364 8.1223 6.1364C8.4723 6.1364 8.7923 6.4264 8.7923 6.7964V8.4464H10.4023C11.6123 8.4464 12.6823 8.6064 14.3623 8.9564L19.6523 10.0064C20.0323 10.0764 20.1823 10.3664 20.1823 10.6564C20.1823 11.0264 19.9023 11.4064 19.4023 11.2964L14.0423 10.2264C13.9423 10.2164 13.8723 10.2664 13.8423 10.3464L12.0623 17.4864C11.9423 17.9764 11.3523 18.0964 10.8823 17.7564L8.7323 16.2264C8.4123 16.0064 8.3523 15.5964 8.5623 15.3064C8.7923 15.0164 9.1923 14.9364 9.4923 15.1564L10.9023 16.1464L11.1323 14.1464C11.1323 14.1164 11.1123 14.0764 11.0623 14.0864L7.4423 14.9764C7.3123 14.9964 7.2323 15.0164 7.0223 15.0164Z" />
        </svg>
    