
        <svg xmlns="http://www.w3.org/2000/svg" viewBox="0 0 100 100">
            <path d="M12.2223 24.4436C18.9723 24.4436 24.4423 18.9736 24.4423 12.2236C24.4423 5.4736 18.9723 0.0036 12.2223 0.0036C5.4723 0.0036 0.0023 5.4736 0.0023 12.2236C0.0023 18.9736 5.4723 24.4436 12.2223 24.4436ZM12.2223 21.7636C6.9523 21.7636 2.6823 17.4936 2.6823 12.2236C2.6823 6.9536 6.9523 2.6836 12.2223 2.6836C17.4923 2.6836 21.7623 6.9536 21.7623 12.2236C21.7623 17.4936 17.4923 21.7636 12.2223 21.7636ZM13.8023 7.3436C14.5823 7.3436 15.1923 6.7236 15.1923 5.9536C15.1923 5.1936 14.5823 4.5736 13.8023 4.5736C13.0423 4.5736 12.4223 5.1936 12.4223 5.9536C12.4223 6.7236 13.0423 7.3436 13.8023 7.3436ZM7.6023 11.8936C7.9923 12.0736 8.3523 11.8936 8.5123 11.5936L9.6423 9.3436H10.9423C11.0823 9.3436 11.1523 9.4536 11.0823 9.5736L9.9123 11.9136C9.4523 12.8036 10.0223 13.9436 11.2023 13.8736L14.3323 13.6736L13.1823 16.2436C13.0323 16.5936 13.1723 17.0236 13.5223 17.1536C13.9123 17.3036 14.2623 17.1836 14.4223 16.8036L16.0623 13.2036C16.2623 12.7836 15.9923 12.2236 15.4523 12.2236H12.6223L13.8723 9.7236C13.9223 9.6236 14.0323 9.6136 14.1123 9.6836L15.6123 11.1136C15.9223 11.4236 16.5123 11.3636 16.7223 10.9336L18.0223 8.3036C18.2023 7.9736 18.0823 7.5436 17.7223 7.3836C17.3823 7.2236 16.9723 7.3436 16.7923 7.7036L15.9023 9.4536L15.2023 8.7536C14.6923 8.2336 14.1523 7.9736 13.3123 7.9736H9.2123C8.9523 7.9736 8.7223 8.1236 8.6023 8.3536L7.2823 10.9736C7.1123 11.3236 7.2423 11.7236 7.6023 11.8936ZM6.3823 17.9736C6.6023 18.4236 7.0623 18.4236 7.3023 18.3236L9.9823 17.1636C10.1223 17.0936 10.2523 16.9836 10.3223 16.8436L11.5123 14.4636L11.2423 14.4736C10.6923 14.5036 10.1823 14.3536 9.8623 14.0736L9.1623 16.0036L6.7423 17.0436C6.3723 17.1936 6.2123 17.6036 6.3823 17.9736ZM16.7123 18.8536C17.4823 18.8536 18.1023 18.2436 18.1023 17.4736C18.1023 16.7036 17.4823 16.0736 16.7123 16.0736C15.9423 16.0736 15.3323 16.7036 15.3323 17.4736C15.3323 18.2436 15.9423 18.8536 16.7123 18.8536Z" />
        </svg>
    