
        <svg xmlns="http://www.w3.org/2000/svg" viewBox="0 0 100 100">
            <path d="M11.7523 23.5048C18.2323 23.5048 23.5123 18.2348 23.5123 11.7548C23.5123 5.2748 18.2323 0.0048 11.7523 0.0048C5.2723 0.0048 0.0023 5.2748 0.0023 11.7548C0.0023 18.2348 5.2723 23.5048 11.7523 23.5048ZM10.4723 6.5848C10.4723 6.4148 10.6323 6.2648 10.8023 6.2648C11.5423 6.2648 12.0223 6.4348 12.5623 6.9448C13.1123 6.4348 13.5923 6.2648 14.3323 6.2648C14.5223 6.2648 14.6623 6.4148 14.6623 6.5848C14.6623 6.7748 14.5223 6.9248 14.3423 6.9248C13.7323 6.9248 13.3623 7.0348 12.9823 7.4548C12.8323 7.6048 12.7123 7.6748 12.5623 7.6748C12.4323 7.6748 12.2923 7.6048 12.1623 7.4548C11.7623 7.0348 11.4023 6.9248 10.8023 6.9248C10.6123 6.9248 10.4723 6.7748 10.4723 6.5848ZM9.6823 12.5948L10.9323 11.7648C11.1323 11.6248 11.1023 11.4248 10.9723 11.2848L9.7723 10.0648L7.6723 11.5548C7.3023 11.8048 6.9223 11.7148 6.7123 11.4748C6.4423 11.2048 6.4123 10.7248 6.8423 10.4148L9.4323 8.5748C9.7823 8.3248 10.2323 8.3548 10.5323 8.6648L14.1723 12.4448C13.1823 12.7548 12.8223 13.4148 11.7523 13.4148C10.8323 13.4148 10.4023 12.9148 9.6823 12.5948ZM15.2323 11.7048C14.4223 11.7048 13.7823 11.0548 13.7823 10.2548C13.7823 9.4548 14.4223 8.8248 15.2323 8.8248C16.0223 8.8248 16.6623 9.4548 16.6623 10.2548C16.6623 11.0548 16.0223 11.7048 15.2323 11.7048ZM4.6723 15.1248C4.5023 15.1248 4.3223 14.9848 4.3223 14.7748C4.3223 14.6048 4.5023 14.4248 4.6723 14.4248H4.7923C6.0923 14.4248 6.5523 13.3148 8.2623 13.3148C9.9823 13.3148 10.4423 14.4248 11.7523 14.4248C13.0623 14.4248 13.5323 13.3148 15.2423 13.3148C16.9523 13.3148 17.4123 14.4248 18.7123 14.4248H18.8323C19.0123 14.4248 19.1823 14.6048 19.1823 14.7748C19.1823 14.9848 19.0123 15.1248 18.8323 15.1248H18.7123C16.9323 15.1248 16.5023 14.0148 15.2423 14.0148C13.9823 14.0148 13.5423 15.1248 11.7523 15.1248C9.9623 15.1248 9.5423 14.0148 8.2623 14.0148C7.0123 14.0148 6.5723 15.1248 4.7923 15.1248ZM4.6723 16.9548C4.5023 16.9548 4.3223 16.7948 4.3223 16.5948C4.3223 16.4048 4.5023 16.2548 4.6723 16.2548H4.7923C6.0923 16.2548 6.5523 15.1448 8.2623 15.1448C9.9823 15.1448 10.4423 16.2548 11.7523 16.2548C13.0623 16.2548 13.5323 15.1448 15.2423 15.1448C16.9523 15.1448 17.4123 16.2548 18.7123 16.2548H18.8323C19.0123 16.2548 19.1823 16.4048 19.1823 16.5948C19.1823 16.7948 19.0123 16.9548 18.8323 16.9548H18.7123C16.9323 16.9548 16.5023 15.8448 15.2423 15.8448C13.9823 15.8448 13.5423 16.9548 11.7523 16.9548C9.9623 16.9548 9.5423 15.8448 8.2623 15.8448C7.0123 15.8448 6.5723 16.9548 4.7923 16.9548Z" />
        </svg>
    