
        <svg xmlns="http://www.w3.org/2000/svg" viewBox="0 0 100 100">
            <path d="M23.488 10.1551C23.488 12.4651 22.708 15.8951 21.628 18.7151C21.398 19.3351 21.678 19.9751 22.248 20.1951C22.848 20.4551 23.488 20.2151 23.758 19.6351C25.038 16.7351 25.808 13.2751 25.808 10.1551C25.808 7.0251 25.038 3.5751 23.758 0.6651C23.488 0.0951 22.848 -0.1549 22.248 0.1051C21.678 0.3251 21.398 0.9651 21.628 1.6051C22.708 4.4051 23.488 7.8351 23.488 10.1551ZM10.668 7.3751C12.298 7.3751 13.638 6.0551 13.638 4.4251C13.638 2.7951 12.298 1.4651 10.668 1.4651C9.048 1.4651 7.708 2.7951 7.708 4.4251C7.708 6.0551 9.048 7.3751 10.668 7.3751ZM20.308 8.5751H7.508C7.618 8.3151 7.618 8.0251 7.548 7.7551C7.368 7.0551 6.698 6.5051 5.598 6.7451L1.938 7.5651C-0.742 8.1751 -0.622 11.6951 2.178 11.6951H6.148C6.408 11.6951 6.538 11.8351 6.538 12.0751V17.1951L2.788 20.9351C2.218 21.4851 1.868 22.0651 1.628 22.9151L0.168 28.3751C-0.122 29.4851 0.548 30.1951 1.348 30.3251C2.058 30.4651 2.918 30.1151 3.158 29.1651L4.528 24.0551C4.658 23.5851 4.728 23.4851 5.058 23.1951L8.068 20.6051C8.548 20.1951 9.408 20.2951 9.718 20.8751L11.528 24.0551L14.418 29.4951C14.948 30.4851 16.038 30.5751 16.728 30.1251C17.338 29.7251 17.618 28.8851 17.178 28.0551L14.258 22.5151L12.618 18.7651C12.348 18.1651 12.228 17.5151 12.228 16.8351V12.0751C12.228 11.8351 12.358 11.6951 12.608 11.6951H20.308C21.148 11.6951 21.868 11.0051 21.868 10.1551C21.868 9.2851 21.148 8.5751 20.308 8.5751Z" />
        </svg>
    