
        <svg xmlns="http://www.w3.org/2000/svg" viewBox="0 0 100 100">
            <path d="M12.1023 24.2064C18.7823 24.2064 24.2123 18.7864 24.2123 12.1064C24.2123 5.4264 18.7823 -0.0036 12.1023 -0.0036C5.4223 -0.0036 0.0023 5.4264 0.0023 12.1064C0.0023 18.7864 5.4223 24.2064 12.1023 24.2064ZM12.0423 6.3964C11.2523 6.3964 10.5923 5.7564 10.5923 4.9564C10.5923 4.1564 11.2523 3.4964 12.0423 3.4964C12.8523 3.4964 13.5023 4.1564 13.5023 4.9564C13.5023 5.7564 12.8523 6.3964 12.0423 6.3964ZM12.8923 17.1664C12.4723 17.0664 12.3323 16.6864 12.4223 16.3364L13.1723 13.8864L10.4523 13.2464C9.3723 12.9964 9.0623 12.3564 9.1723 11.4064L9.4823 9.0164C9.4923 8.9064 9.4023 8.8564 9.3323 8.9064L8.4423 9.4564V11.7164C8.4423 12.0964 8.1323 12.4064 7.7623 12.4064C7.3923 12.4064 7.0823 12.0964 7.0823 11.7164V9.0864C7.0823 8.8464 7.2023 8.6264 7.3923 8.5064L9.5323 7.1764C9.9523 6.9164 10.5123 6.7664 11.1723 6.8864L11.5423 6.9764C12.1623 7.0864 12.6523 7.4864 12.9523 8.0264L13.7923 9.7264H16.0123C16.3823 9.7264 16.6923 10.0264 16.6923 10.4064C16.6923 10.7664 16.3723 11.0764 16.0123 11.0764H13.3723C13.1223 11.0764 12.8923 10.9464 12.7723 10.6964L12.2223 9.6664C12.1923 9.5664 12.0223 9.5864 12.0123 9.7064L11.6923 11.8364L14.2623 12.7264C14.6323 12.8564 14.7923 13.2164 14.6823 13.5664L13.7323 16.7064C13.6023 17.1564 13.1623 17.2464 12.8923 17.1664ZM8.0523 19.5564C7.7223 19.3364 7.6423 18.9164 7.8623 18.5964L9.7223 15.7964L9.8623 13.7664C9.9923 13.8164 10.1523 13.8664 10.3023 13.9064L11.3523 14.1564L11.0823 16.0264C11.0623 16.2064 11.0123 16.3164 10.9223 16.4564L8.9923 19.3464C8.7323 19.7064 8.2923 19.7064 8.0523 19.5564ZM10.7223 20.6464C10.4923 20.6464 10.2923 20.4264 10.2923 20.1864C10.2923 19.9664 10.4923 19.7664 10.7223 19.7664H12.4023V18.5764C12.4023 18.3264 12.6023 18.1264 12.8423 18.1264H14.4923V16.9464C14.4923 16.6964 14.6823 16.4964 14.9423 16.4964H16.6023V15.2964C16.6023 15.0664 16.7923 14.8564 17.0423 14.8564H19.0823C19.3323 14.8564 19.5323 15.0664 19.5323 15.2964C19.5323 15.5364 19.3323 15.7364 19.0823 15.7364H17.4823V16.9464C17.4823 17.1664 17.2923 17.3764 17.0423 17.3764H15.3623V18.5764C15.3623 18.8064 15.1623 19.0064 14.9423 19.0064H13.2823V20.1864C13.2823 20.4264 13.0923 20.6464 12.8423 20.6464Z" />
        </svg>
    