
        <svg xmlns="http://www.w3.org/2000/svg" viewBox="0 0 100 100">
            <path d="M3.7517 7.4511C5.8217 7.4511 7.4517 5.7411 7.4517 3.7511C7.4517 1.6611 5.8217 0.0011 3.7517 0.0011C1.6717 0.0011 0.0017 1.6611 0.0017 3.7511C0.0017 5.7411 1.6717 7.4511 3.7517 7.4511ZM15.9717 13.7911C16.5617 14.5211 17.6517 13.7311 17.0617 12.9711C16.7117 12.4911 16.6417 12.2311 16.6417 11.8811C16.6417 11.3511 16.9417 11.0311 17.2517 10.6411C18.0917 10.2811 19.1417 9.9711 20.0517 9.9111C20.2217 9.6811 20.3717 9.4411 20.3717 9.1311C20.3717 8.2311 19.1617 7.9311 19.1617 6.3611C19.1617 5.7411 19.3717 5.1411 19.8717 4.4811C20.4717 3.7511 21.5517 4.5311 20.9717 5.2811C20.6117 5.7811 20.5417 6.0311 20.5417 6.3611C20.5417 7.4311 21.7217 7.7011 21.7217 9.1311C21.7217 9.5011 21.6517 9.8011 21.5417 10.0411C22.1817 10.1711 22.8517 10.3911 23.4217 10.6311C23.2417 10.9411 23.0817 11.3311 23.0817 11.8811C23.0817 12.5311 23.3017 13.1211 23.8017 13.7911C24.3917 14.5211 25.4717 13.7311 24.8917 12.9711C24.5417 12.4911 24.4717 12.2311 24.4717 11.8811C24.4717 11.2011 24.9717 10.8511 25.3217 10.2911L29.4417 5.0511C30.0617 4.2811 29.9517 3.3911 29.1817 2.7911C27.2917 1.3011 23.8117 0.3211 20.3417 0.3211C16.8717 0.3211 13.3917 1.3011 11.5117 2.7911C10.7317 3.3911 10.6417 4.2811 11.2517 5.0511L15.5617 10.5511C15.5817 10.5611 15.6017 10.5811 15.6217 10.6011C15.4217 10.9211 15.2617 11.3211 15.2617 11.8811C15.2617 12.5311 15.4717 13.1211 15.9717 13.7911ZM16.4717 9.1311C16.4717 8.2311 15.2617 7.9311 15.2617 6.3611C15.2617 5.7411 15.4717 5.1411 15.9717 4.4811C16.5617 3.7511 17.6517 4.5311 17.0617 5.2811C16.7117 5.7811 16.6417 6.0311 16.6417 6.3611C16.6417 7.4311 17.8217 7.7011 17.8217 9.1311C17.8217 9.8411 17.5417 10.2611 17.2517 10.6411C17.1217 10.6911 17.0017 10.7411 16.8917 10.7911C16.4517 10.9911 15.9617 10.9711 15.6217 10.6011C15.9817 10.0411 16.4717 9.7111 16.4717 9.1311ZM23.8017 10.7911C23.6817 10.7411 23.5517 10.6911 23.4217 10.6311C23.7917 10.0511 24.3017 9.7311 24.3017 9.1311C24.3017 8.2311 23.0817 7.9311 23.0817 6.3611C23.0817 5.7411 23.3017 5.1411 23.8017 4.4811C24.3917 3.7511 25.4717 4.5311 24.8917 5.2811C24.5417 5.7811 24.4717 6.0311 24.4717 6.3611C24.4717 7.4311 25.6517 7.7011 25.6517 9.1311C25.6517 9.6311 25.5117 9.9811 25.3217 10.2911L25.1217 10.5511C24.8017 10.9711 24.2617 11.0011 23.8017 10.7911ZM25.5217 27.0211C26.2717 26.3011 26.3517 25.1111 25.3917 24.1011L19.5517 17.9911C18.0917 16.4811 16.5717 16.2511 14.7817 16.9311L11.7817 18.0611L8.1117 11.4011C6.9217 9.2811 4.9317 8.5111 3.0117 9.5811C1.0417 10.6911 0.6417 12.7411 1.8017 14.8711L4.3517 19.4811C5.7617 22.0511 9.0517 23.3211 11.8917 22.2611L16.0117 20.7411C16.3217 20.6211 16.5017 20.6511 16.7317 20.8811L22.4217 26.7611C23.4017 27.7811 24.7017 27.8411 25.5217 27.0211ZM19.8717 13.7911C20.4717 14.5211 21.5517 13.7311 20.9717 12.9711C20.6117 12.4911 20.5417 12.2311 20.5417 11.8811C20.5417 11.1111 21.2017 10.7611 21.5417 10.0411C21.1317 9.9511 20.7217 9.9011 20.3417 9.9011C20.2517 9.9011 20.1417 9.9111 20.0517 9.9111C19.6917 10.3811 19.1617 10.8611 19.1617 11.8811C19.1617 12.5311 19.3717 13.1211 19.8717 13.7911Z" />
        </svg>
    