
        <svg xmlns="http://www.w3.org/2000/svg" viewBox="0 0 100 100">
            <path d="M1.5508 17.549L11.0308 27.029C13.0908 29.089 15.4908 29.089 17.5408 27.039L27.0408 17.549C29.1008 15.479 29.0908 13.089 27.0408 11.029L17.5408 1.539C15.4908 -0.511 13.0908 -0.511 11.0408 1.539L1.5408 11.029C-0.5092 13.089 -0.5092 15.479 1.5508 17.549ZM4.9508 15.039C4.4308 14.519 4.3808 14.089 4.9508 13.529L13.5408 4.939C14.1008 4.369 14.5308 4.419 15.0508 4.939L23.6408 13.529C24.1508 14.039 24.2008 14.489 23.6408 15.039L15.0508 23.639C14.4908 24.189 14.0508 24.159 13.5408 23.639ZM14.8108 9.939C15.5308 9.939 16.1408 9.339 16.1408 8.619C16.1408 7.889 15.5308 7.289 14.8108 7.289C14.0708 7.289 13.4708 7.889 13.4708 8.619C13.4708 9.339 14.0708 9.939 14.8108 9.939ZM15.9408 20.019C16.3608 20.859 17.6308 20.339 17.1808 19.409L15.9708 16.979C15.8908 16.799 15.7608 16.609 15.6308 16.419L14.9208 15.379L14.9308 15.269C15.1208 14.639 15.2208 14.279 15.2708 13.669L15.3908 11.959C15.4508 11.069 14.9108 10.429 14.0308 10.429C13.3808 10.429 12.9308 10.789 12.3508 11.339L11.4408 12.209C11.1508 12.509 11.0408 12.769 11.0008 13.189L10.8908 14.579C10.8508 14.999 11.1108 15.289 11.4908 15.299C11.8708 15.339 12.1208 15.089 12.1508 14.679L12.2808 13.179L12.6108 12.879C12.7008 12.799 12.8608 12.839 12.8408 12.989L12.7608 14.139C12.7008 14.769 12.8408 15.119 13.3408 15.739L14.5208 17.229C14.6408 17.369 14.6608 17.419 14.7108 17.519ZM18.0708 12.739H16.7608L16.0808 11.979L15.9508 13.659L16.0208 13.729C16.2508 13.899 16.4308 13.999 16.8108 13.999H18.0708C18.4808 13.999 18.7608 13.739 18.7608 13.359C18.7608 12.989 18.4808 12.739 18.0708 12.739ZM11.7908 20.209L13.5708 18.109C13.7508 17.889 13.7808 17.799 13.8508 17.609L13.8808 17.519L12.8008 16.159L12.5508 17.249L10.8408 19.319C10.1808 20.079 11.2508 20.859 11.7908 20.209Z" />
        </svg>
    