
        <svg xmlns="http://www.w3.org/2000/svg" viewBox="0 0 100 100">
            <path d="M19.8545 6.567C21.6745 6.567 23.1245 5.047 23.1245 3.307C23.1245 1.477 21.6745 -0.003 19.8545 -0.003C18.0445 -0.003 16.5845 1.477 16.5845 3.307C16.5845 5.087 18.0445 6.567 19.8545 6.567ZM4.4845 12.137C5.0745 12.137 5.5545 11.667 5.5545 11.067V5.707H7.6245C8.6545 5.707 9.0045 4.677 8.3745 3.977L5.2045 0.407C4.7545 -0.093 4.1645 -0.083 3.7345 0.407L0.5545 3.977C-0.1155 4.707 0.3345 5.707 1.3145 5.707H3.3945V11.067C3.3945 11.667 3.8745 12.137 4.4845 12.137ZM0.4645 23.827C1.1045 24.507 2.1945 24.447 2.9845 23.637L8.1345 18.307C8.3145 18.117 8.4445 18.077 8.7245 18.187L12.6845 19.687C15.2745 20.657 17.8145 19.757 18.9745 17.637L21.5045 13.047C22.5245 11.177 22.2045 9.297 20.4545 8.347C18.7445 7.407 16.9845 8.107 15.9545 9.997L12.5945 16.097L9.7545 15.067C8.3045 14.527 7.0845 14.707 5.9245 15.917L0.5645 21.457C-0.2055 22.257 -0.1355 23.237 0.4645 23.827Z" />
        </svg>
    