
        <svg xmlns="http://www.w3.org/2000/svg" viewBox="0 0 100 100">
            <path d="M11.4917 22.977C17.8317 22.977 22.9817 17.847 22.9817 11.497C22.9817 5.147 17.8317 -0.003 11.4917 -0.003C5.1417 -0.003 0.0017 5.147 0.0017 11.497C0.0017 17.847 5.1417 22.977 11.4917 22.977ZM11.4917 22.087C5.6417 22.087 0.8917 17.357 0.8917 11.497C0.8917 5.637 5.6417 0.887 11.4917 0.887C17.3517 0.887 22.0917 5.637 22.0917 11.497C22.0917 17.357 17.3517 22.087 11.4917 22.087ZM14.5517 6.717C15.3117 6.717 15.9617 6.077 15.9617 5.297C15.9617 4.527 15.3117 3.887 14.5517 3.887C13.7717 3.887 13.1417 4.527 13.1417 5.297C13.1417 6.077 13.7717 6.717 14.5517 6.717ZM11.2017 16.797C11.5817 16.797 11.8717 16.497 11.8717 16.137V12.757C11.8717 12.587 11.8217 12.447 11.7317 12.337L10.1917 10.457C10.0917 10.337 10.1217 10.197 10.2417 10.137L12.1217 9.167C12.2417 9.097 12.3717 9.157 12.4017 9.317L12.5617 10.457C12.6017 10.707 12.7517 10.877 13.0117 11.007L14.8517 11.927C15.3317 12.177 15.7417 11.967 15.8517 11.627C15.9817 11.347 15.8917 10.977 15.4817 10.767L13.8517 9.927L13.5817 7.977C13.4317 6.937 12.2917 6.307 11.1917 6.877L8.7617 8.137C7.6517 8.717 7.4917 9.987 8.3317 10.827L10.5517 13.027V16.137C10.5517 16.497 10.8417 16.797 11.2017 16.797ZM7.6917 18.657C7.4617 18.807 7.5517 19.067 7.7617 19.067H14.6117C14.8117 19.067 14.8817 18.777 14.7117 18.657L13.3817 17.797L15.0717 12.827C15.1317 12.657 15.0217 12.517 14.8917 12.467C14.7417 12.417 14.5817 12.507 14.5317 12.667L13.4617 15.797C13.2817 15.267 12.9117 14.837 12.4417 14.557V15.207C12.8317 15.567 13.0817 16.057 13.0817 16.607C13.0817 17.657 12.2317 18.507 11.1917 18.507C10.1617 18.507 9.2917 17.647 9.2917 16.607C9.2917 16.057 9.5617 15.527 9.9717 15.167V14.527C9.4917 14.817 9.1017 15.257 8.9017 15.807L7.9417 12.947L8.6117 12.797C8.8117 12.757 8.9317 12.617 8.9317 12.407C8.9317 12.227 8.7917 12.067 8.6017 12.037L6.2217 11.627C5.8117 11.547 5.6217 11.857 5.8017 12.197L6.0217 12.617C6.2817 13.087 6.7617 13.207 7.2217 13.097L7.3917 13.067L8.9917 17.797Z" />
        </svg>
    