
        <svg xmlns="http://www.w3.org/2000/svg" viewBox="0 0 100 100">
            <path d="M12.1023 24.2064C18.7823 24.2064 24.2123 18.7864 24.2123 12.1064C24.2123 5.4264 18.7823 -0.0036 12.1023 -0.0036C5.4223 -0.0036 0.0023 5.4264 0.0023 12.1064C0.0023 18.7864 5.4223 24.2064 12.1023 24.2064ZM9.0423 20.1664C8.6723 20.1664 8.3923 19.8764 8.3923 19.5164V16.1164C8.3923 15.9764 8.4123 15.8464 8.5123 15.7264L10.3123 13.2164C10.0223 12.2264 9.8623 10.8964 9.8123 10.1764C9.7723 9.8664 9.7023 9.7464 9.5723 9.5764L8.1923 7.5664C8.1023 7.4564 8.0723 7.3364 8.0723 7.1864V4.7064C8.0723 4.3564 8.3823 4.0464 8.7523 4.0464C9.1323 4.0464 9.4323 4.3564 9.4323 4.7064V6.9564L10.2223 8.1164C10.5623 8.6064 11.0523 8.7664 11.6123 8.9164C12.1123 9.0364 12.6423 9.1264 13.1623 9.3864L14.8923 10.2664C15.0323 10.3364 15.1323 10.4364 15.2023 10.5664L16.4223 12.9964C16.8623 13.8764 15.6223 14.4364 15.2223 13.6064L14.1023 11.3764L12.9023 10.7664C12.7023 10.6764 12.5623 10.7564 12.5723 10.9964C12.6423 11.7464 12.7723 12.4764 13.0523 13.0264L16.1223 19.1864C16.5223 20.0064 15.3323 20.6164 14.8923 19.7564L13.4023 16.7964L11.6723 14.4764C11.6523 14.4264 11.5623 14.4264 11.5323 14.4764L9.7423 16.3864V19.5164C9.7423 19.8764 9.4323 20.1664 9.0423 20.1664ZM12.0823 8.2164C11.2723 8.2164 10.6323 7.5664 10.6323 6.7664C10.6323 5.9664 11.2723 5.3164 12.0823 5.3164C12.8623 5.3164 13.5323 5.9664 13.5323 6.7664C13.5323 7.5664 12.8623 8.2164 12.0823 8.2164Z" />
        </svg>
    