
        <svg xmlns="http://www.w3.org/2000/svg" viewBox="0 0 100 100">
            <path d="M24.4639 5.918C26.0839 5.918 27.4139 4.578 27.4139 2.958C27.4139 1.328 26.0839 -0.002 24.4639 -0.002C22.8339 -0.002 21.4939 1.328 21.4939 2.958C21.4939 4.578 22.8339 5.918 24.4639 5.918ZM2.0139 19.418L9.6539 17.528V18.888C9.6539 19.718 10.3639 20.418 11.2039 20.418C12.0339 20.418 12.7439 19.718 12.7439 18.888V16.948L15.8139 16.488C15.2739 16.888 14.9039 17.518 14.9039 18.248C14.9039 19.458 15.8839 20.418 17.0739 20.418H23.4839C24.6839 20.418 25.6539 19.458 25.6539 18.248C25.6539 17.048 24.6839 16.078 23.4839 16.078H18.3939C19.2139 15.868 20.0139 15.468 20.6839 14.968L25.0539 11.668C25.2139 11.538 25.4039 11.568 25.5039 11.758L26.6839 14.208V18.888C26.6839 19.778 27.3539 20.418 28.2439 20.418C29.1239 20.418 29.7639 19.778 29.7639 18.888V13.848C29.7639 13.608 29.6939 13.348 29.5939 13.138L27.4339 8.798C26.9539 7.848 25.9939 7.258 24.9439 7.258H23.8139C22.6739 7.258 21.5439 7.638 20.6239 8.318L17.1239 10.938L11.9539 9.888C10.7139 9.648 9.6539 10.228 9.6539 11.588V14.348L1.2639 16.468C0.2939 16.708 -0.0761 17.468 0.0139 18.188C0.1639 18.958 0.8839 19.698 2.0139 19.418ZM12.7439 13.828V13.168L14.1139 13.468ZM23.4839 19.008C23.0639 19.008 22.7239 18.668 22.7239 18.238C22.7239 17.798 23.0639 17.488 23.4839 17.488C23.9339 17.488 24.2639 17.798 24.2639 18.238C24.2639 18.668 23.9339 19.008 23.4839 19.008Z" />
        </svg>
    