
        <svg xmlns="http://www.w3.org/2000/svg" viewBox="0 0 100 100">
            <path d="M10.0502 6.4931C11.8502 6.4931 13.2902 5.0031 13.2902 3.2531C13.2902 1.4631 11.8502 0.0031 10.0502 0.0031C8.2402 0.0031 6.8202 1.4631 6.8202 3.2531C6.8202 5.0431 8.2402 6.4931 10.0502 6.4931ZM15.0102 9.3131L17.7602 6.2731C18.2602 5.6931 18.2302 5.0831 17.7302 4.6631C17.2802 4.2631 16.7002 4.2631 16.1702 4.8531L13.0502 8.3231C13.7802 8.5731 14.4402 8.9331 15.0102 9.3131ZM3.8002 18.5731L13.0502 8.3231C12.1502 8.0031 11.1702 7.8431 10.0502 7.8431C5.8702 7.8431 3.3902 9.8631 3.3902 13.2431C3.3902 14.0431 3.4302 15.1431 3.5502 16.2531ZM16.3002 18.5831L16.5502 16.2531C16.6602 15.1431 16.7102 14.0431 16.7102 13.2431C16.7102 11.5931 16.1402 10.2531 15.0102 9.3231L7.7402 17.4531C8.5102 17.3231 9.2902 17.2831 10.0502 17.2831C12.1202 17.2831 14.1902 17.5531 16.3002 18.5831ZM0.2902 22.5331C0.7502 23.0031 1.3602 22.9831 1.8702 22.4531C2.5502 21.8131 3.2302 21.2731 4.0502 20.8431L3.8102 18.5731C2.5402 19.1731 1.4502 19.9931 0.4002 20.9931C-0.1098 21.4531 -0.1198 22.0931 0.2902 22.5331ZM19.8002 22.5331C20.2202 22.0931 20.2002 21.4531 19.7102 20.9931C18.6502 19.9931 17.5502 19.1731 16.3002 18.5831L16.0402 20.8631C16.8602 21.2731 17.5402 21.8131 18.2202 22.4531C18.7502 22.9831 19.3602 23.0031 19.8002 22.5331ZM6.5002 29.4131C7.3802 29.2931 7.9702 28.6631 7.8602 27.5731L7.2802 22.2231H12.8202L12.2402 27.5731C12.1302 28.6631 12.7102 29.2931 13.5902 29.4131C14.4902 29.5031 15.1902 28.9431 15.3002 27.8831L16.0402 20.8431C14.1502 19.7531 12.0602 19.3331 10.0502 19.3331C8.0402 19.3331 5.9402 19.7531 4.0502 20.8431L4.7902 27.8831C4.9102 28.9431 5.6002 29.5031 6.5002 29.4131Z" />
        </svg>
    