
        <svg xmlns="http://www.w3.org/2000/svg" viewBox="0 0 100 100">
            <path d="M16.835 28.4792C17.445 28.4792 17.935 28.0092 17.935 27.3992V1.0792C17.935 0.4692 17.445 -0.0008 16.835 -0.0008C16.215 -0.0008 15.735 0.4692 15.735 1.0792V27.3992C15.735 28.0092 16.215 28.4792 16.835 28.4792ZM6.355 7.0092C7.645 7.0092 8.685 5.9692 8.685 4.6592C8.685 3.3792 7.645 2.3292 6.355 2.3292C5.055 2.3292 4.015 3.3792 4.015 4.6592C4.015 5.9692 5.055 7.0092 6.355 7.0092ZM26.745 7.0092C28.045 7.0092 29.075 5.9692 29.075 4.6592C29.075 3.3792 28.045 2.3292 26.745 2.3292C25.445 2.3292 24.405 3.3792 24.405 4.6592C24.405 5.9692 25.445 7.0092 26.745 7.0092ZM4.955 26.0192C5.545 26.0192 6.005 25.5492 6.005 24.9592V20.4392C6.005 20.2392 6.165 20.0992 6.355 20.0992C6.535 20.0992 6.685 20.2392 6.685 20.4392V24.9592C6.685 25.5492 7.155 26.0192 7.735 26.0192C8.335 26.0192 8.815 25.5592 8.815 24.9592V20.4392H10.175C10.765 20.4392 11.025 19.9292 10.835 19.3592L8.705 12.6992C8.535 12.1992 9.215 11.9892 9.385 12.5192L10.715 16.6092C11.165 17.9192 13.055 17.3992 12.625 16.0692L11.385 12.2892C10.545 9.6992 9.715 8.1892 6.795 8.1892H5.915C2.965 8.1892 2.145 9.6992 1.305 12.2892L0.065 16.0692C-0.365 17.3992 1.545 17.9192 1.975 16.6092L3.305 12.5192C3.485 11.9892 4.155 12.1992 3.985 12.6992L1.855 19.3592C1.685 19.9292 1.925 20.4392 2.515 20.4392H3.875V24.9592C3.875 25.5592 4.355 26.0192 4.955 26.0192ZM25.345 26.0192C25.935 26.0192 26.405 25.5492 26.405 24.9592V17.4292C26.405 17.2392 26.555 17.0992 26.745 17.0992C26.925 17.0992 27.085 17.2392 27.085 17.4292V24.9592C27.085 25.5492 27.555 26.0192 28.155 26.0192C28.735 26.0192 29.205 25.5592 29.205 24.9592V12.5992C29.205 12.4092 29.365 12.2692 29.535 12.2692C29.725 12.2692 29.865 12.4092 29.865 12.5992V16.6592C29.865 17.2192 30.295 17.6492 30.845 17.6492C31.385 17.6492 31.825 17.2192 31.825 16.6592V12.1192C31.825 9.7592 30.065 8.1992 27.525 8.1992H25.955C23.415 8.1992 21.675 9.7592 21.675 12.1192V16.6592C21.675 17.2192 22.105 17.6492 22.645 17.6492C23.185 17.6492 23.615 17.2192 23.615 16.6592V12.5992C23.615 12.4092 23.755 12.2692 23.935 12.2692C24.125 12.2692 24.275 12.4092 24.275 12.5992V24.9592C24.275 25.5592 24.745 26.0192 25.345 26.0192Z" />
        </svg>
    