
        <svg xmlns="http://www.w3.org/2000/svg" viewBox="0 0 100 100">
            <path d="M11.3523 22.7064C17.6323 22.7064 22.7123 17.6264 22.7123 11.3564C22.7123 5.0764 17.6323 -0.0036 11.3523 -0.0036C5.0823 -0.0036 0.0023 5.0764 0.0023 11.3564C0.0023 17.6264 5.0823 22.7064 11.3523 22.7064ZM11.3523 22.1364C5.3923 22.1364 0.5723 17.3164 0.5723 11.3564C0.5723 5.3864 5.3923 0.5764 11.3523 0.5764C17.3223 0.5764 22.1323 5.3864 22.1323 11.3564C22.1323 17.3164 17.3223 22.1364 11.3523 22.1364ZM11.9723 6.5964C12.7423 6.5964 13.3723 5.9764 13.3723 5.2164C13.3723 4.4264 12.7423 3.8164 11.9723 3.8164C11.1923 3.8164 10.5823 4.4264 10.5823 5.2164C10.5823 5.9764 11.1923 6.5964 11.9723 6.5964ZM6.0223 18.5764C6.2823 18.8064 6.6823 18.8564 6.9623 18.5764L9.7823 15.7364C9.9723 15.5964 9.9823 15.4464 9.9723 15.1864L9.8123 13.2764C9.8123 13.1964 9.8823 13.1764 9.9223 13.2064L12.0223 15.0264L13.0623 18.2764C13.2023 18.6664 13.5923 18.8164 13.9023 18.7364C14.2723 18.6064 14.4623 18.2364 14.3323 17.8964L13.2423 14.4364C13.2223 14.3364 13.1623 14.2264 13.0823 14.1564L10.9123 11.9964L12.3023 9.2064C12.3623 9.0864 12.4923 9.0564 12.6023 9.1664L14.1523 10.7464C14.2423 10.8164 14.3323 10.8764 14.4423 10.9064L17.5823 11.8364C17.8523 11.9264 18.2723 11.8264 18.4223 11.3864C18.5123 11.0264 18.3123 10.6564 17.9523 10.5464L15.0023 9.6664L13.2923 7.9664C12.9023 7.5664 12.4523 7.3964 11.9323 7.3964H7.4423C7.1723 7.3964 6.9523 7.5464 6.8423 7.7664L5.5923 10.2764C5.4223 10.5964 5.5323 11.0064 5.8823 11.1664C6.2123 11.3364 6.6123 11.2164 6.7823 10.8664L7.8523 8.7464H9.1623C9.3323 8.7464 9.4223 8.8964 9.3423 9.0264L8.3523 10.9764C8.0323 11.6764 7.9223 12.4764 8.1223 13.2464L8.5823 15.0664L6.0223 17.6164C5.7523 17.8664 5.7623 18.3164 6.0223 18.5764ZM17.7823 15.6364C18.6323 15.6364 19.3023 14.9564 19.3023 14.0964C19.3023 13.2464 18.6323 12.5764 17.7823 12.5764C16.9223 12.5764 16.2423 13.2464 16.2423 14.0964C16.2423 14.9564 16.9223 15.6364 17.7823 15.6364Z" />
        </svg>
    