
        <svg xmlns="http://www.w3.org/2000/svg" viewBox="0 0 100 100">
            <path d="M12.1017 3.5934C13.1017 3.5934 13.9017 2.8134 13.9017 1.8034C13.9017 0.8134 13.1017 0.0034 12.1017 0.0034C11.1117 0.0034 10.3017 0.8134 10.3017 1.8034C10.3017 2.8134 11.1117 3.5934 12.1017 3.5934ZM18.7817 6.9234C20.1917 6.9234 21.3417 5.7734 21.3417 4.3434C21.3417 2.9434 20.1917 1.8034 18.7817 1.8034C17.3517 1.8034 16.2217 2.9434 16.2217 4.3434C16.2217 5.7734 17.3517 6.9234 18.7817 6.9234ZM1.1817 19.5734H7.5917C7.9417 19.5734 8.1017 19.5334 8.3517 19.4734L14.8517 17.9034C14.9517 17.8834 15.0517 17.9734 15.0317 18.0834L14.6017 21.6234L12.0617 19.8034C11.5217 19.4134 10.7717 19.5434 10.3917 20.0834C9.9917 20.6234 10.1117 21.3734 10.6517 21.7634L14.5817 24.5234C15.4417 25.1334 16.5017 24.9334 16.7217 24.0434L19.9617 11.0734C20.0017 10.9234 20.1517 10.8234 20.3117 10.8634L30.8817 12.9634C31.7817 13.1434 32.3017 12.4734 32.3017 11.8034C32.3017 11.2834 32.0017 10.7534 31.3517 10.6334L20.9317 8.5334C17.8317 7.9234 15.9117 7.6334 13.7117 7.6334H10.7717V4.6334C10.7717 3.9534 10.2317 3.4334 9.5717 3.4334C8.8917 3.4334 8.3717 3.9534 8.3717 4.6334V8.8134C8.3717 9.4734 8.8917 10.0034 9.5717 10.0034H14.5217C14.7417 10.0034 14.8917 10.2034 14.8317 10.4134L13.8717 14.1234C13.7217 14.7234 13.3117 15.1734 12.7217 15.3834L7.5717 17.1834H1.1817C0.5117 17.1834 0.0017 17.7234 0.0017 18.3834C0.0017 19.0534 0.5117 19.5734 1.1817 19.5734Z" />
        </svg>
    