
        <svg xmlns="http://www.w3.org/2000/svg" viewBox="0 0 100 100">
            <path d="M22.4523 8.8148V7.0048L23.3723 6.5548C23.8923 6.2848 24.1923 5.7748 24.1923 5.2248V1.4848C24.1923 0.6948 23.5523 0.0048 22.7223 0.0048H20.1123C19.2923 0.0048 18.6423 0.6748 18.6423 1.4848V5.2248C18.6423 5.7748 18.9423 6.2848 19.4623 6.5548L20.3823 7.0048V8.8148L17.5423 11.6248L14.6923 8.7648C14.0623 8.1348 13.0923 7.7348 12.1023 7.7348H4.0523C3.4223 7.7348 2.8723 8.1048 2.6623 8.7448L0.7423 14.5348C0.3923 15.5648 0.9923 16.2648 1.7223 16.4548C2.3923 16.6148 3.2023 16.3348 3.5023 15.4348L5.1023 10.6648H7.4023C7.6423 10.6648 7.7623 10.8348 7.6923 11.0748L6.1223 15.7648C5.5523 17.4348 6.0823 19.0748 7.9823 19.9148L13.1123 22.1748L14.8623 28.2548C15.1323 29.1648 15.9623 29.4348 16.6423 29.2548C17.3323 29.0648 17.9523 28.4048 17.6723 27.4448L15.7223 20.6848C15.6223 20.2848 15.4023 19.9648 14.9223 19.7548L11.0323 18.0348L13.0623 11.8848C13.1423 11.6348 13.3823 11.5848 13.5823 11.7748L16.5023 14.7448C17.0723 15.3048 18.0123 15.3148 18.5823 14.7448L22.4523 10.8748C23.0423 10.2848 23.0423 9.3948 22.4523 8.8148ZM12.1023 6.5248C13.6723 6.5248 14.9623 5.2348 14.9623 3.6548C14.9623 2.0848 13.6723 0.7948 12.1023 0.7948C10.5223 0.7948 9.2323 2.0848 9.2323 3.6548C9.2323 5.2348 10.5223 6.5248 12.1023 6.5248ZM6.4723 20.6648L5.9323 23.6948L0.7623 26.5648C-0.1177 27.0548 -0.1477 27.9848 0.2323 28.6148C0.6023 29.2048 1.3723 29.5948 2.2023 29.1248L8.0023 25.9248C8.4123 25.6848 8.5623 25.3848 8.6923 24.9848L9.6223 22.1648L7.4223 21.1848C7.0623 21.0348 6.7623 20.8448 6.4723 20.6648Z" />
        </svg>
    