
        <svg xmlns="http://www.w3.org/2000/svg" viewBox="0 0 100 100">
            <path d="M5.4817 4.8008C6.7817 4.8008 7.8717 3.7108 7.8717 2.3908C7.8717 1.0908 6.7817 0.0008 5.4817 0.0008C4.1617 0.0008 3.0717 1.0908 3.0717 2.3908C3.0717 3.7108 4.1617 4.8008 5.4817 4.8008ZM11.0817 22.3708C11.6017 22.1708 11.9617 21.6108 11.6517 20.8108L9.7117 15.9708C9.6517 15.8108 9.5517 15.7008 9.3017 15.5308L5.7617 12.9008L6.0317 9.0108C6.0517 8.7908 6.2117 8.7208 6.4217 8.7908L8.7117 9.5708C8.9217 9.6408 9.2017 9.6808 9.4617 9.6408L13.7117 9.1608C15.2117 8.9908 14.9417 6.7808 13.4517 6.9508L9.3117 7.4208L5.1117 6.0208C3.5717 5.5108 2.2517 6.3708 2.1317 7.9108L1.8017 11.7508C1.7217 12.9008 2.3217 14.0408 3.3017 14.6008L7.8017 17.2008L9.5717 21.6308C9.8717 22.3708 10.5617 22.5608 11.0817 22.3708ZM9.3417 25.5708L13.6717 24.1308C13.8517 24.0708 13.9617 23.9208 13.9617 23.7408V10.0808C13.8617 10.1008 13.7317 10.1108 13.6017 10.1408L13.2117 10.1708V23.5008L9.1317 24.8408C8.8617 24.9408 8.7817 25.1808 8.8617 25.3608C8.9217 25.5308 9.0917 25.6408 9.3417 25.5708ZM0.8317 24.2608C1.2817 24.5308 1.9117 24.4808 2.3217 23.8608L5.2217 19.5208C5.3117 19.3808 5.3917 19.1808 5.4017 18.9408L5.5317 16.9408L3.0217 15.5008L3.1717 18.5908L0.5017 22.6008C0.0517 23.3008 0.3317 23.9608 0.8317 24.2608ZM0.3717 26.1708H5.2617C5.4617 26.1708 5.6417 26.0008 5.6417 25.7908C5.6417 25.5908 5.4617 25.4308 5.2617 25.4308H0.3717C0.1617 25.4308 0.0017 25.5908 0.0017 25.7908C0.0017 26.0008 0.1617 26.1708 0.3717 26.1708Z" />
        </svg>
    