
        <svg xmlns="http://www.w3.org/2000/svg" viewBox="0 0 100 100">
            <path d="M18.8232 4.9814C20.2032 4.9814 21.3132 3.8814 21.3132 2.4914C21.3132 1.1114 20.2032 0.0014 18.8232 0.0014C17.4432 0.0014 16.3332 1.1114 16.3332 2.4914C16.3332 3.8814 17.4432 4.9814 18.8232 4.9814ZM10.9232 20.3214C11.6032 20.3214 12.1332 19.7714 12.1332 19.0914V13.7914C12.1332 13.2914 11.9032 12.9414 11.6032 12.6314L8.0832 9.0914L12.3532 8.0114C12.5632 7.9714 12.7532 8.1214 12.7532 8.3314V10.6014C12.7532 10.9214 12.8732 11.2414 13.1032 11.4614L16.7332 15.1014C17.2032 15.5714 17.9732 15.5714 18.4632 15.1014C18.9132 14.6414 18.9432 13.8514 18.4632 13.3814L15.1632 10.1114V7.8014L16.9832 9.8814C17.2232 10.1514 17.5532 10.3114 17.8932 10.3114H23.3532C24.0232 10.3114 24.5632 9.7714 24.5632 9.0914C24.5632 8.4114 24.0232 7.8914 23.3532 7.8914H18.4632L15.5532 4.5514C14.6532 3.5014 13.2532 3.0914 11.9332 3.4214L5.7132 4.9814C3.2732 5.6014 2.8532 8.6114 4.7932 10.1914L9.7132 14.2114V19.0914C9.7132 19.7714 10.2532 20.3214 10.9232 20.3214ZM0.3632 19.9614C0.8232 20.4414 1.6032 20.4414 2.0832 19.9614L6.3332 15.7314C6.5532 15.4914 6.6132 15.2914 6.6832 14.9314L6.9632 13.3214L4.2532 11.1214V14.3514L0.3632 18.2314C-0.1268 18.7114 -0.1168 19.4914 0.3632 19.9614Z" />
        </svg>
    