
        <svg xmlns="http://www.w3.org/2000/svg" viewBox="0 0 100 100">
            <path d="M7.0801 5.3447C8.5501 5.3447 9.7201 4.1147 9.7201 2.6847C9.7201 1.1947 8.5501 0.0047 7.0801 0.0047C5.5901 0.0047 4.4201 1.1947 4.4201 2.6847C4.4201 4.1347 5.5901 5.3447 7.0801 5.3447ZM23.5301 3.3847H28.2801C28.6401 3.3847 28.7101 3.0047 28.4301 2.8147L26.3101 1.3547C26.0401 1.1747 25.7701 1.1747 25.5001 1.3547L23.3801 2.8147C23.1001 3.0047 23.1701 3.3847 23.5301 3.3847ZM11.1501 7.6547L13.4001 5.1447C13.8301 4.6847 13.7901 4.1747 13.3801 3.8347C13.0101 3.5047 12.5101 3.4947 12.0801 3.9747L9.5401 6.8347C10.1401 7.0447 10.6701 7.3347 11.1501 7.6547ZM20.9201 6.1447V8.7447C20.9201 9.4547 21.4401 9.9847 22.1501 9.9847H24.1301C24.8401 9.9847 25.3801 9.4547 25.3801 8.7447V6.1447C25.3801 5.4347 24.8401 4.8947 24.1301 4.8947H22.1501C21.4401 4.8947 20.9201 5.4347 20.9201 6.1447ZM26.6201 6.1447V8.7447C26.6201 9.4547 27.1401 9.9847 27.8701 9.9847H29.8301C30.5601 9.9847 31.0901 9.4547 31.0901 8.7447V6.1447C31.0901 5.4347 30.5601 4.8947 29.8301 4.8947H27.8701C27.1401 4.8947 26.6201 5.4347 26.6201 6.1447ZM1.9601 15.2547L9.5401 6.8347C8.8101 6.5647 7.9901 6.4347 7.0801 6.4347C3.6301 6.4347 1.6001 8.0947 1.6001 10.8647C1.6001 11.5347 1.6301 12.4347 1.7301 13.3347ZM12.2001 15.2547L12.4101 13.3347C12.5101 12.4347 12.5501 11.5347 12.5501 10.8647C12.5501 9.5147 12.0701 8.4147 11.1501 7.6647L5.1801 14.3047C5.8201 14.2147 6.4401 14.1747 7.0801 14.1747C8.7601 14.1747 10.4701 14.4047 12.2001 15.2547ZM17.9601 12.9947V15.5947C17.9601 16.3047 18.4901 16.8247 19.2101 16.8247H21.1601C21.8901 16.8247 22.4301 16.3047 22.4301 15.5947V12.9947C22.4301 12.2847 21.8901 11.7547 21.1601 11.7547H19.2101C18.4901 11.7547 17.9601 12.2847 17.9601 12.9947ZM23.6701 12.9947V15.5947C23.6701 16.3047 24.2001 16.8247 24.9101 16.8247H26.8801C27.6201 16.8247 28.1401 16.3047 28.1401 15.5947V12.9947C28.1401 12.2847 27.6201 11.7547 26.8801 11.7547H24.9101C24.2001 11.7547 23.6701 12.2847 23.6701 12.9947ZM29.3901 12.9947V15.5947C29.3901 16.3047 29.9001 16.8247 30.6301 16.8247H32.5901C33.3101 16.8247 33.8401 16.3047 33.8401 15.5947V12.9947C33.8401 12.2847 33.3101 11.7547 32.5901 11.7547H30.6301C29.9001 11.7547 29.3901 12.2847 29.3901 12.9947ZM0.4201 16.1747C-0.0699 16.5247 -0.0799 17.0647 0.1401 17.4147C0.3701 17.7647 0.8301 17.9247 1.3201 17.6247C1.6001 17.4347 1.8601 17.2747 2.1501 17.1247L1.9601 15.2547C1.3901 15.5047 0.8901 15.7947 0.4201 16.1747ZM4.1701 24.1447C4.8901 24.0447 5.3701 23.5347 5.2701 22.6247L4.7901 18.2347H9.3401L8.8701 22.6247C8.7801 23.5347 9.2601 24.0447 9.9701 24.1447C10.7201 24.2247 11.2701 23.7547 11.3901 22.8847L12.0001 17.1247C12.2801 17.2747 12.5501 17.4347 12.8301 17.6247C13.3101 17.9247 13.7601 17.7747 13.9901 17.4247C14.2201 17.0747 14.2201 16.5347 13.7201 16.1747C13.2501 15.7947 12.7501 15.5047 12.2001 15.2547L11.9901 17.1047C10.4401 16.2147 8.7201 15.8747 7.0801 15.8747C5.4201 15.8747 3.6901 16.2147 2.1501 17.1247L2.7601 22.8847C2.8701 23.7547 3.4201 24.2247 4.1701 24.1447ZM17.9601 19.8547V22.4447C17.9601 23.1547 18.4901 23.6747 19.2101 23.6747H21.1601C21.8901 23.6747 22.4301 23.1547 22.4301 22.4447V19.8547C22.4301 19.1347 21.8901 18.6047 21.1601 18.6047H19.2101C18.4901 18.6047 17.9601 19.1347 17.9601 19.8547ZM23.6701 19.8547V22.4447C23.6701 23.1547 24.2001 23.6747 24.9101 23.6747H26.8801C27.6201 23.6747 28.1401 23.1547 28.1401 22.4447V19.8547C28.1401 19.1347 27.6201 18.6047 26.8801 18.6047H24.9101C24.2001 18.6047 23.6701 19.1347 23.6701 19.8547ZM29.3901 19.8547V22.4447C29.3901 23.1547 29.9001 23.6747 30.6301 23.6747H32.5901C33.3101 23.6747 33.8401 23.1547 33.8401 22.4447V19.8547C33.8401 19.1347 33.3101 18.6047 32.5901 18.6047H30.6301C29.9001 18.6047 29.3901 19.1347 29.3901 19.8547Z" />
        </svg>
    