
        <svg xmlns="http://www.w3.org/2000/svg" viewBox="0 0 100 100">
            <path d="M11.9523 23.9041C18.5523 23.9041 23.9023 18.5541 23.9023 11.9541C23.9023 5.3541 18.5523 0.0041 11.9523 0.0041C5.3523 0.0041 0.0023 5.3541 0.0023 11.9541C0.0023 18.5541 5.3523 23.9041 11.9523 23.9041ZM11.9523 21.9141C6.4423 21.9141 1.9923 17.4641 1.9923 11.9541C1.9923 6.4441 6.4423 1.9941 11.9523 1.9941C17.4623 1.9941 21.9123 6.4441 21.9123 11.9541C21.9123 17.4641 17.4623 21.9141 11.9523 21.9141ZM13.7323 7.9541C14.5223 7.9541 15.1523 7.3141 15.1523 6.5341C15.1523 5.7741 14.5223 5.1341 13.7323 5.1341C12.9623 5.1341 12.3323 5.7741 12.3323 6.5341C12.3323 7.3141 12.9623 7.9541 13.7323 7.9541ZM6.8923 5.3541C6.2223 5.3541 5.6823 5.8941 5.6823 6.5841C5.6823 7.0941 6.0323 7.6741 6.5323 7.9541V8.4841H6.3423C5.9723 8.4841 5.6823 8.7741 5.6823 9.1441C5.6823 9.4941 5.9723 9.7841 6.3423 9.7841H10.7423C10.9423 9.7841 11.1223 9.9341 11.0323 10.1941L10.2623 12.4541C9.9823 13.2741 10.3823 14.1241 11.1523 14.4641L13.7823 15.6241L14.6923 18.7241C14.8323 19.1741 15.2323 19.2841 15.5523 19.1741C15.8323 19.0541 16.0423 18.7641 15.9423 18.3741L14.9623 14.9641C14.9223 14.8041 14.8223 14.6841 14.6723 14.5941L12.6323 13.3941L13.5923 10.5141C13.6623 10.2841 13.9123 10.2641 14.0723 10.4341L15.5023 11.8641C15.6323 11.9841 15.7823 12.0541 15.9623 12.0541C16.1223 12.0541 16.3023 12.0041 16.4323 11.8641L18.3723 9.9141C18.6323 9.6541 18.6423 9.2541 18.3723 9.0041C18.1123 8.7441 17.7323 8.7341 17.4623 9.0041L15.9623 10.5041L14.7023 9.2041C14.1423 8.6041 13.5323 8.4841 12.3323 8.4841H7.2623V7.9541C7.7723 7.6641 8.1223 7.0941 8.1223 6.5841C8.1223 5.8941 7.5823 5.3541 6.8923 5.3541ZM16.2823 13.5541H20.0823V12.7541H16.2823C16.0623 12.7541 15.8823 12.9541 15.8823 13.1441C15.8823 13.3741 16.0623 13.5541 16.2823 13.5541ZM7.3023 18.9341C7.4723 19.1841 7.8023 19.3241 8.1723 19.1241L11.0623 17.5041C11.2123 17.4341 11.3223 17.3041 11.3823 17.1341L11.9423 15.4341L10.9323 14.9841C10.7023 14.8841 10.5923 14.8241 10.5723 14.7841L10.1923 16.5141L7.5323 17.9841C7.1223 18.2141 7.1023 18.6541 7.3023 18.9341Z" />
        </svg>
    