
        <svg xmlns="http://www.w3.org/2000/svg" viewBox="0 0 100 100">
            <path d="M11.4923 22.977C17.8123 22.977 22.9823 17.827 22.9823 11.497C22.9823 5.167 17.8123 -0.003 11.4923 -0.003C5.1723 -0.003 0.0023 5.167 0.0023 11.497C0.0023 17.827 5.1723 22.977 11.4923 22.977ZM10.7923 6.047C10.0623 6.047 9.4723 5.477 9.4723 4.747C9.4723 4.017 10.0623 3.437 10.7923 3.437C11.5223 3.437 12.1123 4.017 12.1123 4.747C12.1123 5.477 11.5223 6.047 10.7923 6.047ZM6.9923 10.837L7.1123 9.387C7.1523 8.977 7.2623 8.757 7.5423 8.487L8.4723 7.537C9.0423 6.957 9.4923 6.647 10.1323 6.647C10.9523 6.647 11.4523 7.247 11.4023 8.097L11.2823 9.877C11.2523 10.487 11.1423 10.877 10.9423 11.497L10.8823 11.667L11.6923 12.817C11.8223 12.997 11.9323 13.197 12.0223 13.387L13.1123 15.547C13.5123 16.347 12.4223 16.807 12.0423 16.067L10.9523 13.827C10.9023 13.707 10.8723 13.657 10.7623 13.497L9.5023 11.957C9.0423 11.367 8.9023 11.047 8.9523 10.367L9.0423 9.027C9.0623 8.827 8.8023 8.747 8.6323 8.897L8.1723 9.307L8.0423 10.897C8.0023 11.287 7.8023 11.477 7.4723 11.437C7.1623 11.437 6.9623 11.207 6.9923 10.837ZM11.7923 9.337L11.8723 7.877L12.9123 9.037H14.3323C14.6923 9.037 14.9323 9.247 14.9323 9.567C14.9323 9.877 14.6923 10.077 14.3323 10.077H13.0223C12.6523 10.077 12.5023 10.027 12.2923 9.827ZM16.4223 11.097C16.3523 10.957 16.3823 10.777 16.5723 10.697L19.6323 9.267C19.7923 9.187 19.9323 9.267 19.9923 9.397C20.0523 9.517 20.0023 9.687 19.8523 9.757L18.3723 10.457L17.3123 16.547C17.2123 16.547 17.1923 16.547 17.0123 16.557L16.7323 16.577L17.7823 10.737L16.7823 11.207C16.6123 11.287 16.4623 11.207 16.4223 11.097ZM6.8923 15.847L8.7323 13.677L9.0423 12.137L10.0123 13.327L9.8223 13.917C9.7623 14.147 9.7123 14.187 9.5423 14.407L7.7023 16.617C7.2323 17.157 6.3323 16.507 6.8923 15.847ZM4.6423 18.007C4.6423 17.897 4.7223 17.797 4.8623 17.787L17.3823 17.027C17.8123 16.997 18.1023 17.207 18.1023 17.597C18.1023 17.967 17.8623 18.207 17.5123 18.207H4.8523C4.7323 18.207 4.6423 18.117 4.6423 18.007Z" />
        </svg>
    