
        <svg xmlns="http://www.w3.org/2000/svg" viewBox="0 0 100 100">
            <path d="M11.7523 23.5048C18.2323 23.5048 23.5123 18.2348 23.5123 11.7548C23.5123 5.2748 18.2323 0.0048 11.7523 0.0048C5.2723 0.0048 0.0023 5.2748 0.0023 11.7548C0.0023 18.2348 5.2723 23.5048 11.7523 23.5048ZM11.5623 16.0348L9.6523 19.5048C9.4523 19.8748 9.0423 19.9448 8.7323 19.7648C8.4023 19.6048 8.2923 19.1848 8.4623 18.8548L10.3523 15.4148L10.4023 15.2948L12.0423 12.2848H8.9323C8.4023 12.2848 8.0623 11.7548 8.3423 11.2648L10.6323 7.3548C10.6723 7.2648 10.6623 7.1648 10.5823 7.0748C10.0423 6.5148 9.4223 5.9848 8.7223 5.4948H6.4723C6.1023 5.4948 5.8023 5.1948 5.8023 4.8048C5.8023 4.4248 6.1023 4.1348 6.4723 4.1348H8.7523C9.0023 4.1348 9.2023 4.1948 9.4223 4.3348C13.9023 7.3148 15.4723 12.3848 16.1923 15.0848L16.2223 15.1948C16.6523 16.8248 16.7323 18.4148 16.7323 19.1748C16.7323 19.5548 16.4423 19.8548 16.0623 19.8548C15.6923 19.8548 15.3723 19.5548 15.3723 19.1448C15.3723 18.9148 15.3323 17.6048 14.9023 15.5748L13.6023 13.2048ZM7.9123 9.0948C7.1023 9.0948 6.4823 8.4448 6.4823 7.6548C6.4823 6.8648 7.1023 6.2248 7.9123 6.2248C8.7023 6.2248 9.3423 6.8648 9.3423 7.6548C9.3423 8.4448 8.7023 9.0948 7.9123 9.0948ZM10.1123 10.9248H11.5123L10.9223 10.0448C10.8523 9.9348 10.7023 9.9148 10.6023 10.0548Z" />
        </svg>
    