
        <svg xmlns="http://www.w3.org/2000/svg" viewBox="0 0 100 100">
            <path d="M18.08 11.3867C18.52 11.3867 18.84 11.0567 18.84 10.6267V5.1267H21.08C21.86 5.1267 22.18 4.3267 21.67 3.7467L18.73 0.3167C18.38 -0.0933 17.85 -0.1133 17.46 0.3167L14.52 3.7467C14.03 4.3067 14.31 5.1267 15.12 5.1267H17.33V10.6267C17.33 11.0567 17.66 11.3867 18.08 11.3867ZM3.08 6.2767C4.8 6.2767 6.18 4.9367 6.18 3.1967C6.18 1.4767 4.8 0.0767 3.08 0.0767C1.37 0.0767 0 1.4767 0 3.1967C0 4.8467 1.37 6.2767 3.08 6.2767ZM21.5 22.6167C22.05 22.0667 22.11 21.1467 21.41 20.4067L16.29 15.1267C15.22 14.0067 14.1 13.8467 12.74 14.3367L10.01 15.3367L6.81 9.4867C5.84 7.6967 4.15 7.0267 2.54 7.9167C0.87 8.7967 0.56 10.6167 1.52 12.3667L3.91 16.7067C5.04 18.7567 7.32 19.6567 9.77 18.7267L13.72 17.2367C13.97 17.1267 14.09 17.1767 14.25 17.3467L19.17 22.4267C19.9 23.1767 20.92 23.2367 21.5 22.6167Z" />
        </svg>
    