
        <svg xmlns="http://www.w3.org/2000/svg" viewBox="0 0 100 100">
            <path d="M12.1023 24.2064C18.7823 24.2064 24.2123 18.7864 24.2123 12.1064C24.2123 5.4264 18.7823 -0.0036 12.1023 -0.0036C5.4223 -0.0036 0.0023 5.4264 0.0023 12.1064C0.0023 18.7864 5.4223 24.2064 12.1023 24.2064ZM12.1023 21.8164C6.7223 21.8164 2.3823 17.4864 2.3823 12.1064C2.3823 6.7264 6.7223 2.3764 12.1023 2.3764C17.4823 2.3764 21.8323 6.7264 21.8323 12.1064C21.8323 17.4864 17.4823 21.8164 12.1023 21.8164ZM8.1223 7.8964C8.8823 7.8964 9.5023 7.2764 9.5023 6.4964C9.5023 5.7264 8.8823 5.1064 8.1223 5.1064C7.3323 5.1064 6.7123 5.7264 6.7123 6.4964C6.7123 7.2764 7.3323 7.8964 8.1223 7.8964ZM7.4223 13.0664H10.0223L10.1723 13.2164C10.4923 13.5364 10.9223 13.6964 11.3323 13.6964C11.6923 13.6964 12.0323 13.5964 12.3323 13.3664L15.4823 11.0164L18.6223 9.1264C18.9423 8.9364 19.0423 8.5464 18.8523 8.2264C18.6723 7.9064 18.2623 7.8164 17.9423 8.0064L11.9923 11.5664L10.3823 9.9564C10.3323 9.9264 10.3623 9.8664 10.4023 9.8664H11.8823C12.2623 9.8664 12.5523 9.5764 12.5523 9.1964V7.3264C12.9223 7.1964 13.1923 6.8364 13.1923 6.4264C13.1923 5.8664 12.7523 5.4364 12.2123 5.4364C11.6623 5.4364 11.2223 5.8664 11.2223 6.4264V8.5564H8.0423C7.3323 8.5564 6.7523 9.1264 6.7523 9.8464V12.4064C6.7523 12.7764 7.0423 13.0664 7.4223 13.0664ZM8.0123 11.7964V11.2164C8.0123 11.1364 8.1123 11.0864 8.1723 11.1464L8.8023 11.7964ZM11.4423 20.0964C11.7623 20.1564 12.1423 19.9464 12.2223 19.5664L12.8523 16.3664C12.8823 16.2964 12.8823 16.2264 12.8623 16.1364L12.7523 13.7664C12.3323 14.1064 11.8523 14.2764 11.3323 14.2764C11.2723 14.2764 11.2023 14.2764 11.1323 14.2664L11.5323 16.2464L10.9223 19.3164C10.8423 19.6764 11.0723 20.0264 11.4423 20.0964Z" />
        </svg>
    