
        <svg xmlns="http://www.w3.org/2000/svg" viewBox="0 0 100 100">
            <path d="M11.3517 22.7064C17.6017 22.7064 22.7117 17.6064 22.7117 11.3564C22.7117 5.1064 17.6017 -0.0036 11.3517 -0.0036C5.1117 -0.0036 0.0017 5.1064 0.0017 11.3564C0.0017 17.6064 5.1117 22.7064 11.3517 22.7064ZM7.9217 14.4164V12.4964C7.9217 11.9064 8.3217 11.4964 8.9017 11.4964H11.2217V9.2464C11.2217 9.0564 11.2517 8.9664 11.3817 8.8464L16.1417 4.0864C16.2217 3.9964 16.3717 4.0064 16.4417 4.0864C16.5317 4.1764 16.5317 4.3164 16.4417 4.3964L14.3117 6.5464V10.8364C14.3117 11.2164 14.0117 11.4864 13.6517 11.4864C13.2917 11.4864 12.9817 11.2164 12.9817 10.8364V7.8664L12.5417 8.3364V12.1664C12.5417 12.5164 12.2417 12.8164 11.8817 12.8164H11.0617C10.9717 12.8164 10.9017 12.8864 10.9017 12.9864V16.0864C10.5217 16.2564 10.1617 16.4364 9.8117 16.6864C9.2717 15.7064 8.6117 14.9664 7.9217 14.4164ZM9.0117 10.7964C8.2217 10.7964 7.5917 10.1464 7.5917 9.3764C7.5917 8.6064 8.2217 7.9664 9.0117 7.9664C9.7717 7.9664 10.4217 8.6064 10.4217 9.3764C10.4217 10.1464 9.7717 10.7964 9.0117 10.7964ZM3.4117 14.1364C3.4117 14.0364 3.5317 13.9264 3.6317 13.9264C5.6917 13.9264 8.1017 14.7264 9.4917 18.0964C11.0017 16.6564 12.8217 16.1764 15.2317 16.7664C15.8517 15.5264 17.1017 14.8564 18.4817 14.8564C18.5717 14.8564 18.6917 14.9564 18.6917 15.0864C18.6917 15.1864 18.5717 15.3064 18.4817 15.3064C17.1917 15.3064 16.1017 15.9064 15.5717 17.0964C15.4917 17.2664 15.4617 17.2864 15.2917 17.2664C12.8517 16.5564 11.1317 17.0664 9.6317 18.5464C9.4817 18.7164 9.2317 18.6864 9.1417 18.4064C7.8617 15.1064 5.6417 14.3564 3.6317 14.3564C3.5317 14.3564 3.4117 14.2764 3.4117 14.1364Z" />
        </svg>
    