
        <svg xmlns="http://www.w3.org/2000/svg" viewBox="0 0 100 100">
            <path d="M12.1023 24.2064C18.7823 24.2064 24.2123 18.7864 24.2123 12.1064C24.2123 5.4264 18.7823 -0.0036 12.1023 -0.0036C5.4223 -0.0036 0.0023 5.4264 0.0023 12.1064C0.0023 18.7864 5.4223 24.2064 12.1023 24.2064ZM12.0823 7.3564C11.2923 7.3564 10.6523 6.7164 10.6523 5.9164C10.6523 5.1464 11.2923 4.4964 12.0823 4.4964C12.8623 4.4964 13.5023 5.1464 13.5023 5.9164C13.5023 6.7164 12.8623 7.3564 12.0823 7.3564ZM12.0823 13.4064L10.5323 15.8564L9.3623 19.1164C9.2123 19.4764 8.8523 19.6064 8.5523 19.4864C8.2223 19.3664 8.0523 18.9964 8.1823 18.6864L9.3723 15.3964L10.5423 12.1564V9.1964C10.5423 9.0664 10.4923 8.9564 10.3623 8.8964L6.3623 6.7464C6.0423 6.5864 5.9323 6.2264 6.0923 5.9064C6.2623 5.5864 6.6423 5.4864 6.9423 5.6364L10.8123 7.6964C11.2523 7.9264 11.6723 8.0264 12.0823 8.0264C12.5023 8.0264 12.9223 7.9264 13.3623 7.6964L17.2423 5.6364C17.5323 5.4864 17.9023 5.5864 18.0823 5.9064C18.2423 6.2264 18.1323 6.5864 17.8123 6.7464L13.8123 8.8964C13.6923 8.9564 13.6323 9.0664 13.6323 9.1964V12.1564L14.8023 15.3964L15.9923 18.6864C16.1223 18.9964 15.9523 19.3664 15.6223 19.4864C15.3323 19.6064 14.9623 19.4764 14.8123 19.1164L13.6423 15.8564Z" />
        </svg>
    