
        <svg xmlns="http://www.w3.org/2000/svg" viewBox="0 0 100 100">
            <path d="M11.4717 4.7312C12.7817 4.7312 13.8417 3.6812 13.8417 2.3713C13.8417 1.0413 12.7817 0.0012 11.4717 0.0012C10.1617 0.0012 9.1017 1.0413 9.1017 2.3713C9.1017 3.6812 10.1617 4.7312 11.4717 4.7312ZM7.7417 14.3313L12.0317 16.7313L9.2417 19.1213C8.7317 19.5713 8.6717 20.1913 9.0317 20.6013C9.4217 21.0313 10.0517 21.0313 10.6017 20.5813L14.4017 17.3413C14.9017 16.9113 14.8217 15.9913 14.2217 15.6113L10.0517 12.8713L10.8917 9.9813C11.0117 9.5313 11.5217 9.4713 11.7917 9.8513L13.0117 11.6413C13.2817 12.0313 13.7817 12.1713 14.2417 11.9813L17.7317 10.4012C18.3117 10.1512 18.5517 9.6413 18.2917 9.0913C18.0317 8.5712 17.5317 8.4113 16.9317 8.6813L14.1217 9.9213L12.1917 7.2513C11.1917 5.8713 9.9517 5.3413 7.9717 5.4812L4.0917 5.7613C3.5017 5.8012 3.0817 6.1913 3.0117 6.8113L2.4917 10.7413C2.4017 11.4012 2.7117 11.8513 3.2917 11.9213C3.8817 11.9813 4.2517 11.6413 4.3517 10.9713L4.8317 7.7113L6.4317 7.6013C6.8417 7.5813 7.1617 7.8913 7.0417 8.3013L6.1417 11.4713C5.6217 13.2913 6.7817 13.7813 7.7417 14.3313ZM0.3517 23.8713C0.8017 24.2313 1.4017 24.2113 1.9017 23.7213L5.4717 20.1813C5.7817 19.8713 5.8317 19.8213 6.0117 19.3612L7.5917 15.3313L7.2817 15.1513C6.4117 14.6713 5.8217 14.2113 5.4617 13.7013L4.1017 18.5613L0.3917 22.2813C-0.1383 22.7813 -0.1083 23.4613 0.3517 23.8713Z" />
        </svg>
    