
        <svg xmlns="http://www.w3.org/2000/svg" viewBox="0 0 100 100">
            <path d="M10.4345 22.2467H17.8845C19.1545 22.2467 20.0745 21.2967 20.0745 19.9367V10.9767C20.0745 9.8467 19.4245 8.9967 18.4745 8.7467V6.1167C18.4745 2.8467 20.5045 0.5767 23.5545 0.5767C26.5945 0.5767 28.6245 2.8467 28.6245 6.1167V8.6267C28.6245 8.7967 28.7745 8.9267 28.9145 8.9267C29.0745 8.9267 29.2245 8.7967 29.2245 8.6267V6.0667C29.2245 2.5067 26.9545 -0.0033 23.5545 -0.0033C20.1445 -0.0033 17.8645 2.5067 17.8645 6.0667V8.6767H8.7245C8.6845 8.8567 8.6245 8.9967 8.5545 9.1367L8.6245 9.2467H17.9345C18.8245 9.2467 19.4645 9.9467 19.4645 10.9467V19.9667C19.4645 20.9667 18.8245 21.6667 17.9345 21.6667H10.3645L10.3945 21.8067C10.4145 21.9767 10.4545 22.1167 10.4345 22.2467ZM5.9845 9.8567C7.0845 9.8567 7.9545 8.9867 7.9545 7.9067C7.9545 6.8067 7.0845 5.9367 5.9845 5.9367C4.9345 5.9367 4.0245 6.8067 4.0245 7.9067C4.0245 8.9867 4.9345 9.8567 5.9845 9.8567ZM5.9845 16.4967C6.2545 16.4967 6.5045 16.6667 6.5945 17.0067L7.9545 22.1267C8.2345 23.2167 9.6645 22.8367 9.5245 21.9267C9.4445 21.4067 8.2945 17.0467 8.1345 16.0867C8.0245 15.4567 8.0445 13.8367 8.0445 12.5667C8.0445 12.3667 8.2145 12.2467 8.3945 12.3167L10.8445 13.3267C11.3845 13.5467 11.7745 13.3167 11.9245 12.9767C12.0745 12.6067 11.9245 12.1267 11.3445 11.8967L8.9245 10.8867C8.2945 10.6267 7.6145 10.4867 6.9145 10.4067C6.6145 10.5067 6.3145 10.5567 5.9845 10.5567C5.6645 10.5567 5.3645 10.5067 5.0745 10.4067C4.3645 10.4867 3.6845 10.6267 3.0545 10.8867L0.6345 11.8967C0.0545 12.1267 -0.0955 12.6067 0.0545 12.9767C0.1945 13.3167 0.5945 13.5467 1.1245 13.3267L3.5845 12.3167C3.7545 12.2467 3.9245 12.3667 3.9245 12.5667C3.9245 13.8367 3.9545 15.4567 3.8545 16.0867C3.6845 17.0467 2.5445 21.4067 2.4545 21.9267C2.3045 22.8367 3.7445 23.2167 4.0245 22.1267L5.3845 17.0067C5.4845 16.6667 5.7145 16.4967 5.9845 16.4967Z" />
        </svg>
    