
        <svg xmlns="http://www.w3.org/2000/svg" viewBox="0 0 100 100">
            <path d="M0.0298 11.482L0.7598 15.882C1.0798 17.732 3.6298 17.342 3.3298 15.522L2.7398 11.862L5.1098 10.922C5.3998 10.822 5.6598 10.892 5.7998 11.162L8.0598 15.662C8.7798 17.062 9.3698 17.502 9.9398 17.912L17.3698 23.372C18.8498 24.462 20.6398 22.292 18.9698 21.072L13.1898 16.842C13.0098 16.712 13.0298 16.462 13.2298 16.352L17.0798 14.142L22.1698 16.562C23.8298 17.362 25.1698 14.992 23.2198 14.062L17.7298 11.442C17.0398 11.112 16.3598 11.192 15.7098 11.572L13.1398 13.072C12.8998 13.212 12.7398 13.162 12.6398 12.972L10.5698 8.732C10.4298 8.432 10.4898 8.122 10.7798 7.992L12.6798 7.122C13.3598 6.822 13.6198 6.552 13.7998 5.912L14.9998 1.722C15.5298 -0.068 13.0798 -0.738 12.5598 1.052L11.4098 5.072L0.9698 9.642C0.1998 9.982 -0.1102 10.612 0.0298 11.482ZM4.8698 6.332C6.4598 6.332 7.7398 5.052 7.7398 3.472C7.7398 1.892 6.4598 0.612 4.8698 0.612C3.2998 0.612 2.0098 1.892 2.0098 3.472C2.0098 5.052 3.2998 6.332 4.8698 6.332Z" />
        </svg>
    