
        <svg xmlns="http://www.w3.org/2000/svg" viewBox="0 0 100 100">
            <path d="M4.6417 2.0664H17.2617C17.1417 0.7664 16.2617 -0.0036 14.8917 -0.0036H7.0117C5.6417 -0.0036 4.7617 0.7664 4.6417 2.0664ZM2.7317 6.1864H19.1717C19.0417 4.8364 18.2217 3.9764 16.5917 3.9764H5.3117C3.6817 3.9764 2.8617 4.8364 2.7317 6.1864ZM4.5917 30.2464H17.7817C20.6517 30.2464 22.3317 28.5464 22.3317 25.6564V12.4964C22.3317 9.5964 20.6517 7.8964 17.7417 7.8964H4.5917C1.7017 7.8964 0.0017 9.5964 0.0017 12.4964V25.6564C0.0017 28.5464 1.7017 30.2464 4.5917 30.2464ZM5.2217 26.0764C4.5117 26.0764 4.1617 25.7764 4.1617 25.0064V13.1364C4.1617 12.3564 4.5117 12.0564 5.2217 12.0564H17.1117C17.8217 12.0564 18.1717 12.3564 18.1717 13.1364V25.0064C18.1717 25.7764 17.8217 26.0764 17.1417 26.0764ZM12.8317 15.5864C13.5117 15.5864 14.0817 15.0164 14.0817 14.3164C14.0817 13.6264 13.5117 13.0664 12.8317 13.0664C12.1317 13.0664 11.5617 13.6264 11.5617 14.3164C11.5617 15.0164 12.1317 15.5864 12.8317 15.5864ZM10.9117 20.2464L12.8217 21.3364L11.6117 22.3864C11.3317 22.6364 11.2717 22.9964 11.4917 23.2464C11.7417 23.5164 12.0917 23.5064 12.4117 23.2464L14.2517 21.6764C14.5517 21.4264 14.4917 20.8964 14.1417 20.6764L12.2017 19.4064L12.5817 18.0964C12.6117 17.9764 12.7417 17.9564 12.8117 18.0564L13.4017 18.9264C13.5717 19.1764 13.8717 19.2464 14.1317 19.1264L15.8117 18.3764C16.1717 18.2264 16.3017 17.8964 16.1417 17.5764C15.9917 17.2764 15.6917 17.1664 15.3417 17.3164L14.0717 17.8964L13.1917 16.6764C12.7017 15.9764 12.0617 15.7064 11.0617 15.7764L9.1917 15.9164C8.8617 15.9364 8.6017 16.1564 8.5617 16.5164L8.3117 18.4064C8.2517 18.7864 8.4617 19.0664 8.8117 19.1164C9.1517 19.1364 9.4017 18.9264 9.4417 18.5464L9.6517 17.0764L10.3317 17.0164C10.4517 17.0064 10.5317 17.0964 10.5117 17.2164L10.0817 18.7464C9.8117 19.7264 10.4417 19.9964 10.9117 20.2464ZM7.3317 24.8364C7.5817 25.0764 7.9617 25.0464 8.2217 24.7664L9.9617 23.0664C10.1117 22.8964 10.1617 22.8564 10.2417 22.6164L10.8917 20.9064L10.6217 20.7564C10.2917 20.5564 9.9217 20.3464 9.6917 20.0164L9.1017 22.1364L7.3317 23.8964C7.0317 24.1864 7.0417 24.5964 7.3317 24.8364Z" />
        </svg>
    