
        <svg xmlns="http://www.w3.org/2000/svg" viewBox="0 0 100 100">
            <path d="M12.2223 24.4436C18.9723 24.4436 24.4423 18.9736 24.4423 12.2236C24.4423 5.4736 18.9723 0.0036 12.2223 0.0036C5.4723 0.0036 0.0023 5.4736 0.0023 12.2236C0.0023 18.9736 5.4723 24.4436 12.2223 24.4436ZM12.2223 21.7636C6.9523 21.7636 2.6823 17.4936 2.6823 12.2236C2.6823 6.9536 6.9523 2.6836 12.2223 2.6836C17.4923 2.6836 21.7623 6.9536 21.7623 12.2236C21.7623 17.4936 17.4923 21.7636 12.2223 21.7636ZM12.2123 8.2736C13.0923 8.2736 13.7923 7.5736 13.7923 6.7036C13.7923 5.8236 13.0923 5.1136 12.2123 5.1136C11.3423 5.1136 10.6323 5.8236 10.6323 6.7036C10.6323 7.5736 11.3423 8.2736 12.2123 8.2736ZM12.2023 13.8836C12.4223 13.8836 12.5723 14.0136 12.6423 14.2536L13.7223 18.3736C13.9423 19.3136 15.2323 18.9836 15.1023 18.1036C15.0423 17.7636 14.1223 14.2736 13.9923 13.4836C13.8823 12.9136 13.9323 11.4336 13.9323 10.8136C13.9323 10.6136 14.1023 10.5136 14.2923 10.5936L16.1123 11.3236C16.5923 11.5236 16.9423 11.2836 17.0523 10.9536C17.1523 10.6436 17.0323 10.2436 16.5623 10.0536L14.5923 9.2336C14.1423 9.0736 13.7623 8.9536 13.3123 8.9036C12.9823 9.0736 12.6123 9.1636 12.2023 9.1636C11.8023 9.1636 11.4223 9.0736 11.1023 8.9036C10.6523 8.9536 10.2623 9.0736 9.8223 9.2336L7.8523 10.0536C7.3823 10.2436 7.2523 10.6436 7.3623 10.9536C7.4623 11.2836 7.8123 11.5236 8.2923 11.3236L10.1123 10.5936C10.3123 10.5136 10.4723 10.6136 10.4723 10.8136C10.4723 11.4336 10.5223 12.9136 10.4223 13.4836C10.2923 14.2736 9.3623 17.7636 9.3023 18.1036C9.1723 18.9836 10.4623 19.3136 10.6923 18.3736L11.7623 14.2536C11.8323 14.0136 11.9923 13.8836 12.2023 13.8836Z" />
        </svg>
    