
        <svg xmlns="http://www.w3.org/2000/svg" viewBox="0 0 100 100">
            <path d="M7.5144 5.9181C9.1444 5.9181 10.4644 4.5981 10.4644 2.9681C10.4644 1.3381 9.1444 -0.0019 7.5144 -0.0019C5.8844 -0.0019 4.5544 1.3381 4.5544 2.9681C4.5544 4.5981 5.8844 5.9181 7.5144 5.9181ZM0.0044 1.6381L0.2244 6.0481C0.2744 6.8581 0.6044 7.4281 1.2344 7.8881L3.9644 9.8681C4.2844 10.0881 4.3144 10.2381 4.3144 10.5581V27.2181C4.3144 28.0281 4.9444 28.6681 5.7544 28.6681C6.5544 28.6681 7.1944 28.0181 7.1944 27.2181V18.2181C7.1944 18.0581 7.3344 17.9181 7.5144 17.9181C7.6744 17.9181 7.8144 18.0581 7.8144 18.2181V27.2181C7.8144 28.0181 8.4644 28.6681 9.2644 28.6681C10.0644 28.6681 10.7044 28.0281 10.7044 27.2181V12.5181C10.7044 12.3481 10.8444 12.2081 11.0044 12.2081C11.1844 12.2081 11.3244 12.3481 11.3244 12.5181V17.3281C11.3244 18.0681 11.9244 18.6681 12.6544 18.6681C13.3944 18.6681 13.9844 18.0681 13.9844 17.3281V11.9481C13.9844 9.0581 11.6944 7.1281 8.5344 7.1281H5.7944C5.0844 7.1281 4.6944 7.0081 4.1144 6.5981L2.9044 5.7281L2.6644 1.5081C2.6244 0.7781 1.9944 0.1881 1.2544 0.2481C0.5144 0.3081 -0.0456 0.8981 0.0044 1.6381Z" />
        </svg>
    