
        <svg xmlns="http://www.w3.org/2000/svg" viewBox="0 0 100 100">
            <path d="M11.9523 23.9041C18.5523 23.9041 23.9023 18.5541 23.9023 11.9541C23.9023 5.3541 18.5523 0.0041 11.9523 0.0041C5.3523 0.0041 0.0023 5.3541 0.0023 11.9541C0.0023 18.5541 5.3523 23.9041 11.9523 23.9041ZM11.9523 21.9141C6.4423 21.9141 1.9923 17.4641 1.9923 11.9541C1.9923 6.4441 6.4423 1.9941 11.9523 1.9941C17.4623 1.9941 21.9123 6.4441 21.9123 11.9541C21.9123 17.4641 17.4623 21.9141 11.9523 21.9141ZM16.0223 8.6641C16.7923 8.6641 17.4223 8.0241 17.4223 7.2541C17.4223 6.4541 16.7923 5.8341 16.0223 5.8341C15.2223 5.8341 14.6023 6.4541 14.6023 7.2541C14.6023 8.0241 15.2223 8.6641 16.0223 8.6641ZM11.5323 17.3541C11.9223 17.3541 12.2223 17.0341 12.2223 16.6641V13.6541C12.2223 13.3741 12.0823 13.1741 11.9223 12.9941L9.9123 10.9941L12.3423 10.3741C12.4523 10.3441 12.5623 10.4341 12.5623 10.5541V11.8641C12.5623 12.0241 12.6323 12.2041 12.7723 12.3441L14.8223 14.4041C15.0923 14.6741 15.5423 14.6741 15.8123 14.4041C16.0823 14.1341 16.0823 13.6841 15.8123 13.4141L13.9423 11.5641V10.2541L14.9723 11.4341C15.1023 11.5941 15.3023 11.6741 15.4923 11.6741H18.5823C18.9723 11.6741 19.2823 11.3741 19.2823 10.9941C19.2823 10.5941 18.9723 10.3041 18.5823 10.3041H15.8123L14.1723 8.4041C13.6523 7.8141 12.8523 7.5841 12.1023 7.7741L8.5823 8.6641C7.1923 9.0041 6.9623 10.7241 8.0523 11.6141L10.8423 13.8841V16.6641C10.8423 17.0341 11.1523 17.3541 11.5323 17.3541ZM5.5423 17.1541C5.8123 17.4141 6.2623 17.4141 6.5123 17.1541L8.9223 14.7541C9.0423 14.6241 9.0823 14.5041 9.1323 14.2941L9.2923 13.3441L7.7623 12.0941V13.9841L5.5423 16.1741C5.2723 16.4441 5.2723 16.8841 5.5423 17.1541Z" />
        </svg>
    