
        <svg xmlns="http://www.w3.org/2000/svg" viewBox="0 0 100 100">
            <path d="M11.3517 22.7064C17.6017 22.7064 22.7117 17.6064 22.7117 11.3564C22.7117 5.1064 17.6017 -0.0036 11.3517 -0.0036C5.1117 -0.0036 0.0017 5.1064 0.0017 11.3564C0.0017 17.6064 5.1117 22.7064 11.3517 22.7064ZM12.2017 6.1364C11.4117 6.1364 10.7717 5.5164 10.7717 4.7464C10.7717 3.9564 11.4117 3.3364 12.2017 3.3364C12.9717 3.3364 13.5917 3.9564 13.5917 4.7464C13.5917 5.5164 12.9717 6.1364 12.2017 6.1364ZM11.4217 16.1264C11.1517 16.1264 10.9917 15.9964 10.9917 15.7264V12.9964L8.5817 12.3964C7.3517 12.1064 6.9017 11.0464 7.5017 9.8664L7.9417 8.9764L7.1217 8.5564C6.6017 8.2864 6.5017 7.5864 7.1417 7.3264L9.2817 6.4564C10.0117 6.1664 10.7617 6.2464 11.3917 6.7264L14.2417 8.8964C14.4717 9.0864 14.5417 9.1864 14.5417 9.4364V12.3864C14.5417 12.4964 14.5117 12.5964 14.4817 12.6864L16.9917 15.0264H19.1917C19.3117 15.0264 19.4217 15.1264 19.4217 15.2564V15.5764C19.4217 15.6864 19.3117 15.7864 19.1917 15.7864H17.4117C17.2017 15.7864 17.1017 15.7664 16.9317 15.5964L14.1417 12.9864C13.7917 13.1264 13.1517 12.9364 13.2417 12.1264L10.6417 9.6864L10.0417 10.8864L11.8917 11.7464C12.1617 11.8564 12.3417 12.1064 12.3417 12.3864V15.0464L13.4017 15.3964C13.7717 15.5164 13.7817 16.1264 13.3017 16.1264ZM13.2417 11.5264V9.8564L11.4217 8.6564C11.3117 8.5864 11.1817 8.6264 11.1217 8.7564L10.8317 9.3064ZM4.4217 15.8364V13.9664C4.4217 13.6864 4.5517 13.5364 4.8117 13.5364H7.1217L7.5017 12.3664C7.7317 12.5664 8.0817 12.7264 8.4717 12.8364L8.9917 12.9564L8.2117 14.5164C8.1117 14.7164 7.9017 14.8864 7.6217 14.8864H5.4717L5.1417 15.9464C5.0417 16.2964 4.4217 16.3264 4.4217 15.8364ZM3.5117 16.3364V13.6864C3.5117 13.5864 3.6117 13.4664 3.7417 13.4664C3.8417 13.4664 3.9617 13.5864 3.9617 13.6864V16.3364C3.9617 16.4664 3.8417 16.5564 3.7417 16.5564C3.6217 16.5564 3.5117 16.4564 3.5117 16.3364ZM11.1517 17.0164C11.0417 17.0164 10.9317 16.9264 10.9317 16.7964C10.9317 16.6964 11.0317 16.5664 11.1517 16.5664H13.7917C13.9317 16.5664 14.0117 16.6964 14.0117 16.7964C14.0117 16.9264 13.9117 17.0164 13.7917 17.0164ZM15.2617 17.6764V17.0964C15.2617 16.8264 15.7217 16.6064 16.3217 16.6064C16.9317 16.6064 17.4117 16.8264 17.4117 17.0964V17.6764C17.4117 17.9564 16.9317 18.1764 16.3217 18.1764C15.7217 18.1764 15.2617 17.9564 15.2617 17.6764Z" />
        </svg>
    