
        <svg xmlns="http://www.w3.org/2000/svg" viewBox="0 0 100 100">
            <path d="M12.2223 24.4436C18.9723 24.4436 24.4423 18.9736 24.4423 12.2236C24.4423 5.4736 18.9723 0.0036 12.2223 0.0036C5.4723 0.0036 0.0023 5.4736 0.0023 12.2236C0.0023 18.9736 5.4723 24.4436 12.2223 24.4436ZM12.2223 21.7636C6.9523 21.7636 2.6823 17.4936 2.6823 12.2236C2.6823 6.9536 6.9523 2.6836 12.2223 2.6836C17.4923 2.6836 21.7623 6.9536 21.7623 12.2236C21.7623 17.4936 17.4923 21.7636 12.2223 21.7636ZM8.4923 19.4336C8.8623 19.5036 9.2023 19.2636 9.2823 18.8836L9.8123 15.9936L12.2023 14.6936C12.2823 14.6436 12.3523 14.6736 12.3823 14.7436L13.6023 17.6936C13.6723 17.8636 13.8023 17.9836 13.9423 18.0536L16.3523 19.3936C16.7423 19.6036 17.1223 19.4436 17.2723 19.1336C17.4723 18.8236 17.3523 18.3936 17.0123 18.2136L14.8123 16.9936L13.0623 9.9536C12.9623 9.5136 12.5723 9.2036 12.0923 9.2036H8.3823L10.1523 5.4336C10.4023 4.9136 10.0223 4.5436 9.6223 4.5436C9.4023 4.5436 9.1723 4.6636 9.0723 4.9336L7.0123 10.2736C6.8923 10.5736 6.9823 10.8236 7.1623 11.0036L8.7223 12.5736C8.9723 12.8336 9.4123 12.8336 9.6723 12.5736L10.3623 11.8836C10.4423 11.8036 10.5623 11.8036 10.5823 11.9136L10.9423 13.3836L8.7923 15.0036C8.6223 15.1336 8.5423 15.3236 8.5223 15.5136L7.9423 18.6436C7.8823 19.0036 8.1223 19.3736 8.4923 19.4336ZM11.8623 8.5636C12.6223 8.5636 13.2523 7.9436 13.2523 7.1736C13.2523 6.4236 12.6223 5.8036 11.8623 5.8036C11.1023 5.8036 10.4723 6.4236 10.4723 7.1736C10.4723 7.9436 11.1023 8.5636 11.8623 8.5636ZM9.8223 10.5236L9.2023 11.1536L8.5623 10.5236Z" />
        </svg>
    