
        <svg xmlns="http://www.w3.org/2000/svg" viewBox="0 0 100 100">
            <path d="M12.7923 25.5978C19.8723 25.5978 25.6023 19.8678 25.6023 12.7978C25.6023 5.7278 19.8723 -0.0022 12.7923 -0.0022C5.7323 -0.0022 0.0023 5.7278 0.0023 12.7978C0.0023 19.8678 5.7323 25.5978 12.7923 25.5978ZM16.5123 9.7078C15.7223 9.7078 15.0823 9.0578 15.0823 8.2778C15.0823 7.4778 15.7223 6.8578 16.5123 6.8578C17.2923 6.8578 17.9323 7.4778 17.9323 8.2778C17.9323 9.0578 17.2923 9.7078 16.5123 9.7078ZM12.1523 17.8278C11.7423 17.8278 11.4123 17.4878 11.4123 17.0578V14.5478L8.8523 12.4778C7.7623 11.5778 8.0023 9.8578 9.4023 9.5178L12.6723 8.6978C13.4023 8.4978 14.1823 8.7278 14.6923 9.3078L16.1723 11.0278H18.7023C19.1323 11.0278 19.4723 11.3678 19.4723 11.7778C19.4723 12.2078 19.1323 12.5478 18.7023 12.5478H15.8423C15.6223 12.5478 15.4123 12.4778 15.2723 12.3078L14.5223 11.4578V12.2778L16.2223 13.9578C16.5123 14.2778 16.5123 14.7578 16.2223 15.0578C15.9123 15.3478 15.4323 15.3478 15.1323 15.0578L13.2223 13.1378C13.0823 12.9878 12.9823 12.7778 12.9823 12.5878V11.4978C12.9823 11.3978 12.9423 11.3578 12.8423 11.3778L10.9223 11.8778L12.6123 13.5578C12.7923 13.7478 12.9223 13.9478 12.9223 14.2578V17.0578C12.9223 17.4878 12.6023 17.8278 12.1523 17.8278ZM6.5123 17.5978C6.2223 17.3178 6.2223 16.8078 6.5123 16.5278L8.5223 14.5078V13.0478L10.1523 14.3478L10.0623 14.8978C10.0223 15.0978 9.9923 15.2178 9.8323 15.3778L7.6023 17.5978C7.3123 17.9078 6.8223 17.9078 6.5123 17.5978Z" />
        </svg>
    