
        <svg xmlns="http://www.w3.org/2000/svg" viewBox="0 0 100 100">
            <path d="M12.7923 25.5978C19.8723 25.5978 25.6023 19.8678 25.6023 12.7978C25.6023 5.7278 19.8723 -0.0022 12.7923 -0.0022C5.7323 -0.0022 0.0023 5.7278 0.0023 12.7978C0.0023 19.8678 5.7323 25.5978 12.7923 25.5978ZM12.7923 21.4178C8.0323 21.4178 4.1723 17.5678 4.1723 12.7978C4.1723 8.0278 8.0323 4.1678 12.7923 4.1678C17.5623 4.1678 21.4323 8.0278 21.4323 12.7978C21.4323 17.5678 17.5623 21.4178 12.7923 21.4178ZM13.1823 8.1878C13.9223 8.1878 14.5123 7.5978 14.5123 6.8678C14.5123 6.1278 13.9223 5.5478 13.1823 5.5478C12.4523 5.5478 11.8623 6.1278 11.8623 6.8678C11.8623 7.5978 12.4523 8.1878 13.1823 8.1878ZM14.4123 11.6478C14.6923 11.9278 15.2123 11.9078 15.4523 11.5178L16.8123 9.3478C17.3223 8.5478 16.1523 7.8778 15.6723 8.6378L14.7623 10.0778L14.1023 9.4078C13.3323 8.6478 12.4823 8.5078 11.3323 8.6278L9.3623 8.8478C9.0423 8.8678 8.8123 9.1378 8.7623 9.4378L8.4723 11.6278C8.3523 12.4678 9.7023 12.6878 9.8223 11.7878L10.0323 10.1378L10.9723 10.0278C11.0623 10.0178 11.0723 10.0478 11.0623 10.1378L10.8023 12.2778C10.6623 13.3578 11.3123 14.0078 12.3823 13.9378L14.2623 13.8078L13.7023 15.8778C13.4623 16.7678 14.7823 17.0978 15.0123 16.2178L15.7923 13.2378C15.9223 12.7878 15.6223 12.3978 15.1123 12.3978H13.1323L13.3823 10.7078C13.4023 10.6378 13.4023 10.6378 13.4623 10.6978ZM11.3323 14.3678L11.2123 16.1978L10.1723 18.7978C9.9523 19.3478 10.3723 19.7478 10.7823 19.7478C11.0523 19.7478 11.3123 19.6178 11.4423 19.2778L12.5023 16.5978C12.5123 16.5478 12.5523 16.4878 12.5523 16.4578L12.8423 14.4978L12.4223 14.5278C12.0423 14.5678 11.6723 14.5078 11.3323 14.3678Z" />
        </svg>
    