
        <svg xmlns="http://www.w3.org/2000/svg" viewBox="0 0 100 100">
            <path d="M8.0512 5.0617C9.4612 5.0617 10.5812 3.9417 10.5812 2.5317C10.5812 1.1317 9.4612 0.0017 8.0512 0.0017C6.6412 0.0017 5.5212 1.1317 5.5212 2.5317C5.5212 3.9417 6.6412 5.0617 8.0512 5.0617ZM2.0012 25.7317L5.3312 21.7617C5.6412 21.4017 5.7812 21.1717 6.0112 20.6817L8.1012 16.1617C8.7212 14.8217 8.8212 13.9817 8.9212 12.6017L9.0612 10.7017L10.8912 12.4717C11.2812 12.8517 11.6012 12.9717 12.3012 12.9717H14.9012C15.6112 12.9717 16.0912 12.5717 16.0912 11.9017C16.0912 11.2717 15.6112 10.8617 14.9012 10.8617H12.1212L8.6012 7.0317C8.1012 6.4817 7.4212 6.1517 6.6112 6.1517C6.3912 6.1517 6.1612 6.1717 5.9612 6.2217V6.2017C5.9612 5.3517 5.2612 4.7117 4.3312 4.7117H3.0812C1.8312 4.7117 1.0512 5.4917 1.0512 6.7617V12.6017C1.0512 13.4617 1.6612 14.0817 2.5312 14.0817H4.1912C4.2112 14.8617 4.3912 15.3817 4.8312 16.0317L3.7712 20.1317L0.3612 24.1717C-0.7888 25.5317 1.0812 26.8217 2.0012 25.7317ZM14.9212 7.7617C14.6512 7.7617 14.4112 7.9817 14.4112 8.2617V9.8117H14.9012C15.0512 9.8117 15.2312 9.8317 15.4212 9.8717V8.2617C15.4212 7.9817 15.2012 7.7617 14.9212 7.7617ZM14.9212 26.1317C15.2012 26.1317 15.4212 25.9117 15.4212 25.6317V13.9817C15.2212 14.0117 15.0212 14.0317 14.9012 14.0317H14.4112V25.6317C14.4112 25.9117 14.6412 26.1317 14.9212 26.1317ZM12.7712 24.3317L10.4012 19.5317C10.2212 19.1617 9.9612 18.7517 9.7212 18.4217L8.8112 17.1417L7.6612 19.6217C7.9712 20.0117 8.1012 20.2217 8.2012 20.4517L10.6312 25.3717C11.3712 26.8617 13.5712 25.9317 12.7712 24.3317Z" />
        </svg>
    