
        <svg xmlns="http://www.w3.org/2000/svg" viewBox="0 0 100 100">
            <path d="M13.9895 4.698C15.2895 4.698 16.3295 3.648 16.3295 2.348C16.3295 1.038 15.2895 -0.002 13.9895 -0.002C12.6895 -0.002 11.6395 1.038 11.6395 2.348C11.6395 3.648 12.6895 4.698 13.9895 4.698ZM3.2095 12.608C3.8695 12.898 4.4495 12.618 4.7195 12.098L6.6895 8.168H9.0295C9.2795 8.168 9.4395 8.418 9.3295 8.638L7.2595 12.738C6.4995 14.258 7.4295 16.158 9.4295 16.038L15.0095 15.688L12.9495 20.258C12.6895 20.838 12.9195 21.548 13.5095 21.758C14.1495 22.008 14.7195 21.818 15.0095 21.188L17.8695 14.908C18.1695 14.238 17.7395 13.288 16.8595 13.288H11.8195L14.0495 8.828C14.1395 8.638 14.3795 8.588 14.5295 8.738L17.1695 11.258C17.6895 11.768 18.6295 11.688 18.9895 10.958L21.2595 6.388C21.5495 5.828 21.3895 5.128 20.7595 4.848C20.1995 4.578 19.5095 4.828 19.2295 5.378L17.6495 8.528L16.3595 7.228C15.4795 6.348 14.5495 5.898 13.1395 5.898H5.9895C5.5495 5.898 5.1695 6.148 4.9795 6.528L2.6795 11.098C2.3995 11.658 2.6095 12.318 3.2095 12.608ZM0.1195 23.658C0.4795 24.398 1.2495 24.418 1.6295 24.258L7.2995 21.778C7.5295 21.668 7.7395 21.488 7.8595 21.238L10.0195 16.888L9.4895 16.938C8.6095 17.008 7.8595 16.718 7.2995 16.288L5.9395 19.878L0.6995 22.138C0.1195 22.378 -0.1805 23.058 0.1195 23.658ZM18.8995 24.718C20.2095 24.718 21.2595 23.688 21.2595 22.368C21.2595 21.068 20.2095 20.018 18.8995 20.018C17.5995 20.018 16.5595 21.068 16.5595 22.368C16.5595 23.688 17.5995 24.718 18.8995 24.718Z" />
        </svg>
    