
        <svg xmlns="http://www.w3.org/2000/svg" viewBox="0 0 100 100">
            <path d="M11.3523 22.7064C17.6023 22.7064 22.7123 17.6064 22.7123 11.3564C22.7123 5.1064 17.6023 -0.0036 11.3523 -0.0036C5.1123 -0.0036 0.0023 5.1064 0.0023 11.3564C0.0023 17.6064 5.1123 22.7064 11.3523 22.7064ZM11.4623 8.8164C10.6723 8.8164 10.0423 8.1764 10.0423 7.4064C10.0423 6.6364 10.6723 5.9964 11.4623 5.9964C12.2223 5.9964 12.8623 6.6364 12.8623 7.4064C12.8623 8.1764 12.2223 8.8164 11.4623 8.8164ZM4.5223 7.9764C4.1723 7.7764 4.0323 7.3464 4.2323 6.9864C4.4023 6.6364 4.8523 6.4964 5.2123 6.6864L10.0523 9.2564C10.9923 9.7664 11.7323 9.7164 12.4923 9.3064L17.4423 6.6864C17.7923 6.4964 18.2223 6.6364 18.4323 6.9864C18.6123 7.3464 18.4823 7.7764 18.1123 7.9764L13.1623 10.6364C12.9123 10.7564 12.8423 10.8964 12.7823 11.1164L12.1123 13.5264C11.8823 13.6664 11.6623 13.7664 11.3523 13.7664C10.5323 13.7664 10.2623 13.0264 8.9923 12.7164L9.4823 10.9564C9.5323 10.7664 9.4323 10.6264 9.2723 10.5364ZM11.3523 15.1064C9.6423 15.1064 9.1323 13.9364 7.7423 13.9364C6.3823 13.9364 5.8723 15.1064 4.1623 15.1064H3.8523C3.7423 15.1064 3.6423 14.9964 3.6423 14.8864C3.6423 14.7664 3.7423 14.6564 3.8523 14.6564H4.1623C5.5823 14.6564 6.0923 13.4864 7.7423 13.4864C9.4123 13.4864 9.9123 14.6564 11.3523 14.6564C12.7923 14.6564 13.3123 13.4864 14.9623 13.4864C16.6323 13.4864 17.1323 14.6564 18.5623 14.6564H18.9123C19.0323 14.6564 19.1323 14.7664 19.1323 14.8864C19.1323 14.9964 19.0323 15.1064 18.9123 15.1064H18.5623C16.8423 15.1064 16.3223 13.9364 14.9623 13.9364C13.5823 13.9364 13.0823 15.1064 11.3523 15.1064ZM7.5623 15.9264C7.3823 15.9264 7.2423 15.7964 7.2423 15.6164C7.2423 15.4364 7.3823 15.3064 7.5623 15.3064C7.7323 15.3064 7.8623 15.4364 7.8623 15.6164C7.8623 15.7964 7.7323 15.9264 7.5623 15.9264ZM15.1723 15.9264C15.0023 15.9264 14.8623 15.7964 14.8623 15.6164C14.8623 15.4364 15.0023 15.3064 15.1723 15.3064C15.3523 15.3064 15.4823 15.4364 15.4823 15.6164C15.4823 15.7964 15.3523 15.9264 15.1723 15.9264ZM6.3023 16.2064C6.1123 16.2064 5.9923 16.0764 5.9923 15.9064C5.9923 15.7264 6.1123 15.5864 6.3023 15.5864C6.4823 15.5864 6.6123 15.7264 6.6123 15.9064C6.6123 16.0764 6.4823 16.2064 6.3023 16.2064ZM8.8123 16.2064C8.6323 16.2064 8.4923 16.0764 8.4923 15.9064C8.4923 15.7264 8.6323 15.5864 8.8123 15.5864C8.9923 15.5864 9.1323 15.7264 9.1323 15.9064C9.1323 16.0764 8.9923 16.2064 8.8123 16.2064ZM13.9223 16.2064C13.7323 16.2064 13.6023 16.0764 13.6023 15.9064C13.6023 15.7264 13.7323 15.5864 13.9223 15.5864C14.1023 15.5864 14.2223 15.7264 14.2223 15.9064C14.2223 16.0764 14.1023 16.2064 13.9223 16.2064ZM16.4323 16.2064C16.2523 16.2064 16.1123 16.0764 16.1123 15.9064C16.1123 15.7264 16.2523 15.5864 16.4323 15.5864C16.6023 15.5864 16.7423 15.7264 16.7423 15.9064C16.7423 16.0764 16.6023 16.2064 16.4323 16.2064ZM3.9523 16.6064C3.7723 16.6064 3.6423 16.4664 3.6423 16.2864C3.6423 16.1164 3.7723 15.9764 3.9523 15.9764C4.1223 15.9764 4.2623 16.1164 4.2623 16.2864C4.2623 16.4664 4.1223 16.6064 3.9523 16.6064ZM5.1023 16.6064C4.9223 16.6064 4.7923 16.4664 4.7923 16.2864C4.7923 16.1164 4.9223 15.9764 5.1023 15.9764C5.2823 15.9764 5.4123 16.1164 5.4123 16.2864C5.4123 16.4664 5.2823 16.6064 5.1023 16.6064ZM17.6223 16.6064C17.4523 16.6064 17.3223 16.4664 17.3223 16.2864C17.3223 16.1164 17.4523 15.9764 17.6223 15.9764C17.8023 15.9764 17.9423 16.1164 17.9423 16.2864C17.9423 16.4664 17.8023 16.6064 17.6223 16.6064ZM18.8223 16.6064C18.6423 16.6064 18.5123 16.4664 18.5123 16.2864C18.5123 16.1164 18.6423 15.9764 18.8223 15.9764C19.0123 15.9764 19.1323 16.1164 19.1323 16.2864C19.1323 16.4664 19.0123 16.6064 18.8223 16.6064ZM10.0223 16.7464C9.8423 16.7464 9.7123 16.6164 9.7123 16.4364C9.7123 16.2564 9.8423 16.1264 10.0223 16.1264C10.2023 16.1264 10.3323 16.2564 10.3323 16.4364C10.3323 16.6164 10.2023 16.7464 10.0223 16.7464ZM12.7023 16.7464C12.5323 16.7464 12.4023 16.6164 12.4023 16.4364C12.4023 16.2564 12.5323 16.1264 12.7023 16.1264C12.8823 16.1264 13.0223 16.2564 13.0223 16.4364C13.0223 16.6164 12.8823 16.7464 12.7023 16.7464ZM11.3523 16.9564C11.1823 16.9564 11.0523 16.8264 11.0523 16.6564C11.0523 16.4664 11.1823 16.3364 11.3523 16.3364C11.5323 16.3364 11.6723 16.4664 11.6723 16.6564C11.6723 16.8264 11.5323 16.9564 11.3523 16.9564Z" />
        </svg>
    