
        <svg xmlns="http://www.w3.org/2000/svg" viewBox="0 0 100 100">
            <path d="M3.7517 7.4511C5.8217 7.4511 7.4517 5.7411 7.4517 3.7511C7.4517 1.6611 5.8217 0.0011 3.7517 0.0011C1.6617 0.0011 0.0017 1.6611 0.0017 3.7511C0.0017 5.7411 1.6617 7.4511 3.7517 7.4511ZM15.7517 11.7611C16.7317 11.7611 17.3217 11.2011 17.5417 10.0911L17.6617 9.6111H20.2517L20.3717 10.0911C20.5917 11.2011 21.1917 11.7611 22.1617 11.7611C23.3017 11.7611 23.9417 11.1311 23.9417 10.0411C23.9417 9.7611 23.8717 9.3611 23.6917 8.8111L21.9817 3.4711C21.4617 1.8211 20.4717 1.0511 18.9117 1.0511C17.4017 1.0511 16.4617 1.8011 15.9417 3.4711L14.2117 8.8111C14.0417 9.3611 13.9717 9.7611 13.9717 10.0411C13.9717 11.1311 14.6217 11.7611 15.7517 11.7611ZM18.2417 7.0211L18.8917 4.1211H19.0217L19.6717 7.0211ZM25.5217 27.0211C26.2617 26.3011 26.3517 25.1111 25.3917 24.1011L19.5517 17.9911C18.0917 16.4811 16.5717 16.2511 14.7817 16.9311L11.7617 18.0611L8.1117 11.4011C6.9217 9.2811 4.9217 8.5111 3.0017 9.5811C1.0317 10.6911 0.6417 12.7411 1.8017 14.8711L4.3517 19.4811C5.7617 22.0511 9.0317 23.3211 11.8817 22.2611L15.9917 20.7411C16.3217 20.6211 16.5017 20.6511 16.7317 20.8811L22.4017 26.7611C23.3917 27.7811 24.7017 27.8411 25.5217 27.0211Z" />
        </svg>
    