
        <svg xmlns="http://www.w3.org/2000/svg" viewBox="0 0 100 100">
            <path d="M11.7523 23.5048C18.2323 23.5048 23.5123 18.2348 23.5123 11.7548C23.5123 5.2748 18.2323 0.0048 11.7523 0.0048C5.2723 0.0048 0.0023 5.2748 0.0023 11.7548C0.0023 18.2348 5.2723 23.5048 11.7523 23.5048ZM13.6923 6.4448C12.9223 6.4448 12.3123 5.8248 12.3123 5.0648C12.3123 4.3148 12.9223 3.7048 13.6923 3.7048C14.4423 3.7048 15.0423 4.3148 15.0423 5.0648C15.0423 5.8248 14.4423 6.4448 13.6923 6.4448ZM6.8223 4.0148C6.8223 3.8648 6.9523 3.7348 7.1123 3.7348C7.8023 3.7348 8.2523 3.9048 8.7823 4.4048C9.3023 3.9048 9.7523 3.7348 10.4523 3.7348C10.6123 3.7348 10.7423 3.8648 10.7423 4.0148C10.7423 4.1848 10.6123 4.3048 10.4623 4.3048C9.8923 4.3048 9.5123 4.4148 9.1523 4.8248C9.0123 4.9648 8.8923 5.0148 8.7823 5.0148C8.6623 5.0148 8.5423 4.9648 8.4123 4.8248C8.0523 4.4148 7.6723 4.3048 7.1023 4.3048C6.9423 4.3048 6.8223 4.1848 6.8223 4.0148ZM7.4023 11.0048C7.0623 10.8348 6.9523 10.4648 7.1123 10.1248L8.4523 7.4648C8.5523 7.2548 8.7823 7.1048 9.0323 7.1048H13.1923C14.0123 7.1048 14.5523 7.3748 15.0623 7.8748L15.8123 8.6248L16.7323 6.8048C16.9123 6.4848 17.2923 6.3348 17.6223 6.5048C17.9723 6.6548 18.0823 7.0648 17.9023 7.3948L16.5923 10.0548C16.3923 10.4648 15.8423 10.5248 15.5323 10.2148L14.0023 8.7548C13.9023 8.6648 13.7823 8.6948 13.7123 8.8148L12.4223 11.4048H15.3523C15.8523 11.4048 16.1123 11.9548 15.9423 12.3348L14.2723 15.9948C14.1123 16.3548 13.7823 16.4748 13.4023 16.3248C13.0623 16.2048 12.9223 15.7848 13.0823 15.4548L14.2723 12.7948L11.0423 12.9948C9.8823 13.0748 9.3323 11.9648 9.7723 11.0848L10.9723 8.6948C11.0423 8.5648 10.9523 8.4248 10.8023 8.4248H9.4323L8.2923 10.7148C8.1423 11.0048 7.7923 11.1748 7.4023 11.0048ZM5.6223 17.4348C5.4523 17.0848 5.6223 16.6848 5.9523 16.5448L9.0023 15.2348L9.7723 13.1648C10.1123 13.4148 10.5323 13.5748 11.0723 13.5348L11.3623 13.5248L10.1223 16.0348C10.0523 16.1748 9.9223 16.2748 9.7923 16.3348L6.4923 17.7748C6.2723 17.8748 5.8223 17.8548 5.6223 17.4348ZM16.5323 18.0448C15.7823 18.0448 15.1923 17.4448 15.1923 16.6748C15.1923 15.9248 15.7823 15.3048 16.5323 15.3048C17.2923 15.3048 17.9023 15.9248 17.9023 16.6748C17.9023 17.4448 17.2923 18.0448 16.5323 18.0448ZM6.4823 19.6248C6.3023 19.6248 6.1523 19.4848 6.1523 19.3048C6.1523 19.1048 6.3023 18.9648 6.4823 18.9648C6.6723 18.9648 6.8223 19.1048 6.8223 19.3048C6.8223 19.4848 6.6723 19.6248 6.4823 19.6248ZM7.6523 19.6248C7.4623 19.6248 7.3223 19.4848 7.3223 19.3048C7.3223 19.1048 7.4623 18.9648 7.6523 18.9648C7.8423 18.9648 7.9823 19.1048 7.9823 19.3048C7.9823 19.4848 7.8423 19.6248 7.6523 19.6248ZM8.8223 19.6248C8.6323 19.6248 8.4823 19.4848 8.4823 19.3048C8.4823 19.1048 8.6323 18.9648 8.8223 18.9648C9.0123 18.9648 9.1523 19.1048 9.1523 19.3048C9.1523 19.4848 9.0123 19.6248 8.8223 19.6248ZM9.9923 19.6248C9.7923 19.6248 9.6523 19.4848 9.6523 19.3048C9.6523 19.1048 9.7923 18.9648 9.9923 18.9648C10.1723 18.9648 10.3223 19.1048 10.3223 19.3048C10.3223 19.4848 10.1723 19.6248 9.9923 19.6248ZM11.1523 19.6248C10.9723 19.6248 10.8323 19.4848 10.8323 19.3048C10.8323 19.1048 10.9723 18.9648 11.1523 18.9648C11.3423 18.9648 11.4923 19.1048 11.4923 19.3048C11.4923 19.4848 11.3423 19.6248 11.1523 19.6248ZM12.3323 19.6248C12.1423 19.6248 12.0023 19.4848 12.0023 19.3048C12.0023 19.1048 12.1423 18.9648 12.3323 18.9648C12.5123 18.9648 12.6523 19.1048 12.6523 19.3048C12.6523 19.4848 12.5123 19.6248 12.3323 19.6248ZM13.5023 19.6248C13.3123 19.6248 13.1623 19.4848 13.1623 19.3048C13.1623 19.1048 13.3123 18.9648 13.5023 18.9648C13.6923 18.9648 13.8323 19.1048 13.8323 19.3048C13.8323 19.4848 13.6923 19.6248 13.5023 19.6248ZM14.6723 19.6248C14.4723 19.6248 14.3323 19.4848 14.3323 19.3048C14.3323 19.1048 14.4723 18.9648 14.6723 18.9648C14.8623 18.9648 15.0023 19.1048 15.0023 19.3048C15.0023 19.4848 14.8623 19.6248 14.6723 19.6248ZM15.8323 19.6248C15.6423 19.6248 15.5023 19.4848 15.5023 19.3048C15.5023 19.1048 15.6423 18.9648 15.8323 18.9648C16.0223 18.9648 16.1623 19.1048 16.1623 19.3048C16.1623 19.4848 16.0223 19.6248 15.8323 19.6248ZM17.0023 19.6248C16.8123 19.6248 16.6723 19.4848 16.6723 19.3048C16.6723 19.1048 16.8123 18.9648 17.0023 18.9648C17.1823 18.9648 17.3323 19.1048 17.3323 19.3048C17.3323 19.4848 17.1823 19.6248 17.0023 19.6248Z" />
        </svg>
    