
        <svg xmlns="http://www.w3.org/2000/svg" viewBox="0 0 100 100">
            <path d="M32.154 7.1911C34.154 7.1911 35.764 5.5511 35.764 3.6211C35.764 1.6211 34.154 0.0011 32.154 0.0011C30.144 0.0011 28.564 1.6211 28.564 3.6211C28.564 5.5511 30.144 7.1911 32.154 7.1911ZM19.854 11.7311C20.584 11.7311 21.174 11.1311 21.174 10.4111V5.9611H22.974C24.054 5.9611 24.444 4.9011 23.774 4.1611L20.624 0.6711C20.164 0.1611 19.564 0.1611 19.124 0.6711L15.964 4.1611C15.274 4.9211 15.714 5.9611 16.764 5.9611H18.544V10.4111C18.544 11.1311 19.134 11.7311 19.854 11.7311ZM3.614 11.2111C4.034 11.7311 4.804 11.1811 4.374 10.6311C4.134 10.2911 4.084 10.1011 4.084 9.8311C4.084 9.4311 4.334 9.2011 4.554 8.8911C5.174 8.6411 5.904 8.4511 6.534 8.4111C6.664 8.2411 6.754 8.0711 6.754 7.8611C6.754 7.2211 5.894 6.9811 5.894 5.8711C5.894 5.4111 6.034 4.9911 6.394 4.5111C6.814 4.0111 7.574 4.5511 7.174 5.0811C6.924 5.4411 6.864 5.6211 6.864 5.8711C6.864 6.6311 7.704 6.8311 7.704 7.8611C7.704 8.1111 7.664 8.3211 7.574 8.4811C8.044 8.5811 8.524 8.7311 8.944 8.9111C8.794 9.1411 8.664 9.4211 8.664 9.8311C8.664 10.3111 8.824 10.7411 9.184 11.2111C9.614 11.7311 10.364 11.1811 9.954 10.6311C9.714 10.2911 9.644 10.1011 9.644 9.8311C9.644 9.3211 10.054 9.0711 10.304 8.6211L13.224 4.9411C13.634 4.4211 13.554 3.8311 13.054 3.4411C11.714 2.3911 9.244 1.6711 6.734 1.6711C4.244 1.6711 1.774 2.3911 0.454 3.4411C-0.076 3.8311 -0.146 4.4311 0.264 4.9411L3.374 8.8811L3.384 8.8911C3.234 9.1311 3.114 9.4211 3.114 9.8311C3.114 10.3111 3.264 10.7411 3.614 11.2111ZM9.264 9.0611C9.174 9.0011 9.054 8.9511 8.944 8.9111C9.204 8.5111 9.544 8.2711 9.544 7.8611C9.544 7.2211 8.664 6.9811 8.664 5.8711C8.664 5.4111 8.824 4.9911 9.194 4.5111C9.614 4.0111 10.364 4.5511 9.954 5.0811C9.714 5.4411 9.644 5.6211 9.644 5.8711C9.644 6.6311 10.504 6.8311 10.504 7.8611C10.504 8.1811 10.424 8.4111 10.304 8.6211L10.104 8.8811C9.884 9.1511 9.574 9.1711 9.264 9.0611ZM3.984 7.8611C3.984 7.2211 3.114 6.9811 3.114 5.8711C3.114 5.4111 3.264 4.9911 3.614 4.5111C4.034 4.0111 4.804 4.5511 4.394 5.0811C4.134 5.4411 4.084 5.6211 4.084 5.8711C4.084 6.6311 4.944 6.8311 4.944 7.8611C4.944 8.3411 4.754 8.6411 4.554 8.8911C4.434 8.9511 4.324 9.0011 4.214 9.0611C3.924 9.1711 3.604 9.1611 3.384 8.8911C3.644 8.5111 3.984 8.2711 3.984 7.8611ZM6.394 11.2111C6.814 11.7311 7.574 11.1811 7.174 10.6311C6.924 10.2911 6.864 10.1011 6.864 9.8311C6.864 9.2711 7.344 9.0211 7.574 8.4811C7.294 8.4411 7.004 8.4011 6.734 8.4011C6.674 8.4011 6.604 8.4011 6.534 8.4111C6.274 8.7511 5.894 9.0911 5.894 9.8311C5.894 10.3111 6.034 10.7411 6.394 11.2111ZM11.054 26.1111C11.824 26.8811 13.074 26.8211 13.994 25.8611L19.534 20.1411C19.744 19.9211 19.904 19.9011 20.214 20.0011L24.284 21.5311C27.054 22.5611 30.124 21.4011 31.474 18.9511L34.004 14.3411C35.124 12.2911 34.754 10.2911 32.844 9.2311C30.994 8.1911 29.054 8.9411 27.924 11.0011L24.344 17.4911L21.384 16.3911C19.694 15.7611 18.254 15.9711 16.884 17.3911L11.184 23.3411C10.274 24.2911 10.354 25.4211 11.054 26.1111Z" />
        </svg>
    