
        <svg xmlns="http://www.w3.org/2000/svg" viewBox="0 0 100 100">
            <path d="M6.7986 5.2217C8.2386 5.2217 9.3686 4.0217 9.3686 2.6217C9.3686 1.1817 8.2386 0.0017 6.7986 0.0017C5.3386 0.0017 4.2086 1.1817 4.2086 2.6217C4.2086 4.0417 5.3386 5.2217 6.7986 5.2217ZM19.8586 3.2417H24.4986C24.8486 3.2417 24.9086 2.8717 24.6386 2.6817L22.5486 1.2517C22.3086 1.1017 22.0586 1.1017 21.8186 1.2517L19.7186 2.6817C19.4486 2.8717 19.5186 3.2417 19.8586 3.2417ZM10.7386 7.4417L12.9586 4.9717C13.3586 4.5317 13.3186 4.0517 12.9386 3.7517C12.5786 3.4317 12.1286 3.4217 11.7286 3.8817L9.2286 6.6717C9.7786 6.8817 10.2986 7.1517 10.7386 7.4417ZM17.3086 5.9617V8.5417C17.3086 9.2417 17.8286 9.7617 18.5386 9.7617H20.4486C21.1586 9.7617 21.6886 9.2417 21.6886 8.5417V5.9617C21.6886 5.2617 21.1586 4.7317 20.4486 4.7317H18.5386C17.8286 4.7317 17.3086 5.2617 17.3086 5.9617ZM22.9086 5.9617V8.5417C22.9086 9.2417 23.4186 9.7617 24.1386 9.7617H26.0486C26.7786 9.7617 27.2786 9.2417 27.2786 8.5417V5.9617C27.2786 5.2617 26.7786 4.7317 26.0486 4.7317H24.1386C23.4186 4.7317 22.9086 5.2617 22.9086 5.9617ZM19.5086 8.4517C18.8386 8.4517 18.2886 7.9017 18.2886 7.2317C18.2886 6.5817 18.8386 6.0317 19.5086 6.0317C20.1486 6.0317 20.7186 6.5817 20.7186 7.2317C20.7186 7.9017 20.1486 8.4517 19.5086 8.4517ZM25.0986 8.4517C24.4386 8.4517 23.8786 7.9117 23.8786 7.2317C23.8786 6.5817 24.4386 6.0317 25.0986 6.0317C25.7386 6.0317 26.3086 6.5817 26.3086 7.2317C26.3086 7.9117 25.7386 8.4517 25.0986 8.4517ZM1.7986 14.9217L9.2286 6.6717C8.5086 6.3817 7.6986 6.2717 6.7986 6.2717C3.4286 6.2717 1.4586 7.8817 1.4586 10.5917C1.4586 11.2517 1.4686 12.1217 1.5786 13.0117ZM11.7786 14.9217L11.9986 13.0117C12.0886 12.1217 12.1286 11.2517 12.1286 10.5917C12.1286 9.2617 11.6586 8.1817 10.7386 7.4517L4.8386 14.0117C5.5086 13.9117 6.1386 13.8617 6.7986 13.8617C8.4486 13.8617 10.0986 14.0817 11.7786 14.9217ZM17.3086 12.6817V15.2617C17.3086 15.9617 17.8286 16.4617 18.5486 16.4617H20.4586C21.1886 16.4617 21.6886 15.9617 21.6886 15.2617V12.6817C21.6886 11.9717 21.1886 11.4517 20.4586 11.4517H18.5486C17.8286 11.4517 17.3086 11.9717 17.3086 12.6817ZM22.9086 12.6817V15.2617C22.9086 15.9617 23.4186 16.4617 24.1386 16.4617H26.0486C26.7586 16.4617 27.2686 15.9617 27.2686 15.2617V12.6817C27.2686 11.9717 26.7586 11.4517 26.0486 11.4517H24.1386C23.4186 11.4517 22.9086 11.9717 22.9086 12.6817ZM19.5086 15.1517C18.8486 15.1517 18.2886 14.6117 18.2886 13.9317C18.2886 13.2917 18.8486 12.7517 19.5086 12.7517C20.1486 12.7517 20.7186 13.2917 20.7186 13.9317C20.7186 14.6117 20.1486 15.1517 19.5086 15.1517ZM25.0986 15.1517C24.4386 15.1517 23.8786 14.6117 23.8786 13.9317C23.8786 13.2917 24.4386 12.7517 25.0986 12.7517C25.7386 12.7517 26.3086 13.2917 26.3086 13.9317C26.3086 14.6117 25.7386 15.1517 25.0986 15.1517ZM0.3486 15.7817C-0.0614 16.0917 -0.0714 16.5817 0.1286 16.9017C0.3286 17.2417 0.7386 17.4017 1.2086 17.1317C1.4686 16.9617 1.7086 16.8017 1.9886 16.6517L1.7986 14.9217C1.2786 15.1517 0.7986 15.4217 0.3486 15.7817ZM3.9186 23.5517C4.6186 23.4617 5.0586 22.9717 4.9786 22.1117L4.5086 17.7917H9.0686L8.6086 22.1117C8.5186 22.9717 8.9586 23.4617 9.6486 23.5517C10.3686 23.6217 10.9086 23.1817 10.9886 22.3617L11.5986 16.6517C11.8686 16.8017 12.0986 16.9617 12.3886 17.1317C12.8286 17.4017 13.2386 17.2517 13.4486 16.9217C13.6586 16.5917 13.6586 16.1017 13.2286 15.7817C12.7786 15.4217 12.3086 15.1517 11.7786 14.9217L11.5886 16.6417C10.0886 15.7717 8.3986 15.4317 6.7986 15.4317C5.1786 15.4317 3.4886 15.7717 1.9886 16.6517L2.5886 22.3617C2.6686 23.1817 3.2086 23.6217 3.9186 23.5517ZM17.3086 19.3717V21.9517C17.3086 22.6517 17.8286 23.1717 18.5386 23.1717H20.4486C21.1586 23.1717 21.6886 22.6517 21.6886 21.9517V19.3717C21.6886 18.6717 21.1586 18.1517 20.4486 18.1517H18.5386C17.8286 18.1517 17.3086 18.6717 17.3086 19.3717ZM22.9086 19.3717V21.9517C22.9086 22.6517 23.4186 23.1717 24.1386 23.1717H26.0486C26.7786 23.1717 27.2786 22.6517 27.2786 21.9517V19.3717C27.2786 18.6717 26.7786 18.1517 26.0486 18.1517H24.1386C23.4186 18.1517 22.9086 18.6717 22.9086 19.3717ZM19.5086 21.8717C18.8486 21.8717 18.2886 21.3117 18.2886 20.6517C18.2886 19.9917 18.8486 19.4517 19.5086 19.4517C20.1486 19.4517 20.7186 19.9917 20.7186 20.6517C20.7186 21.3117 20.1486 21.8717 19.5086 21.8717ZM25.0986 21.8717C24.4386 21.8717 23.8786 21.3117 23.8786 20.6517C23.8786 19.9917 24.4386 19.4517 25.0986 19.4517C25.7386 19.4517 26.3086 19.9917 26.3086 20.6517C26.3086 21.3117 25.7386 21.8717 25.0986 21.8717Z" />
        </svg>
    