
        <svg xmlns="http://www.w3.org/2000/svg" viewBox="0 0 100 100">
            <path d="M7.4917 3.4225C8.4217 3.4225 9.2017 2.6625 9.2017 1.7225C9.2017 0.7725 8.4217 0.0025 7.4917 0.0025C6.5417 0.0025 5.7817 0.7725 5.7817 1.7225C5.7817 2.6625 6.5417 3.4225 7.4917 3.4225ZM14.0117 7.5625C15.3317 7.5625 16.4017 6.4825 16.4017 5.1525C16.4017 3.8425 15.3317 2.7525 14.0117 2.7525C12.6917 2.7525 11.6117 3.8425 11.6117 5.1525C11.6117 6.4825 12.6917 7.5625 14.0117 7.5625ZM8.8617 12.7225C11.0417 13.1625 11.8917 14.4925 13.4017 14.4925C13.4717 14.4925 13.5617 14.4925 13.6417 14.4825L14.6617 11.5825C14.7817 11.2225 14.9717 11.0825 15.3417 11.0825H25.1117C25.7417 11.0825 26.2817 10.5625 26.2817 9.9125C26.2817 9.2925 25.7417 8.7525 25.1117 8.7525H6.7217L5.2017 3.7625C5.0017 3.1325 4.3617 2.7625 3.7517 2.9625C3.1417 3.1525 2.8017 3.8225 2.9717 4.3925L4.7017 10.1225C4.8517 10.6625 5.2617 11.0825 5.8317 11.0825H8.9717C9.2217 11.0825 9.3617 11.2825 9.2817 11.5125ZM0.3717 17.0425H1.3817C4.2817 17.0425 5.1017 15.1125 7.3917 15.1125C9.6917 15.1125 10.5217 17.0425 13.4017 17.0425C16.3017 17.0425 17.1217 15.1125 19.4217 15.1125C21.7217 15.1125 22.5517 17.0425 25.4417 17.0425H26.4417C26.6517 17.0425 26.8117 16.8725 26.8117 16.6625C26.8117 16.4625 26.6517 16.2925 26.4417 16.2925H25.4417C23.0417 16.2925 22.2117 14.3625 19.4217 14.3625C16.6417 14.3625 15.8117 16.2925 13.4017 16.2925C11.0117 16.2925 10.1817 14.3625 7.3917 14.3625C4.6217 14.3625 3.7817 16.2925 1.3817 16.2925H0.3717C0.1717 16.2925 0.0017 16.4625 0.0017 16.6625C0.0017 16.8725 0.1717 17.0425 0.3717 17.0425ZM7.0417 18.4125C7.3217 18.4125 7.5517 18.2025 7.5517 17.9225C7.5517 17.6325 7.3217 17.4125 7.0417 17.4125C6.7617 17.4125 6.5517 17.6325 6.5517 17.9225C6.5517 18.2025 6.7617 18.4125 7.0417 18.4125ZM19.8017 18.4125C20.0817 18.4125 20.3017 18.2025 20.3017 17.9225C20.3017 17.6325 20.0817 17.4125 19.8017 17.4125C19.5217 17.4125 19.3017 17.6325 19.3017 17.9225C19.3017 18.2025 19.5217 18.4125 19.8017 18.4125ZM4.9217 18.9025C5.2017 18.9025 5.4117 18.6925 5.4117 18.4125C5.4117 18.1325 5.2017 17.9025 4.9217 17.9025C4.6417 17.9025 4.4217 18.1325 4.4217 18.4125C4.4217 18.6925 4.6417 18.9025 4.9217 18.9025ZM9.1617 18.9025C9.4417 18.9025 9.6717 18.6925 9.6717 18.4125C9.6717 18.1325 9.4417 17.9025 9.1617 17.9025C8.8817 17.9025 8.6717 18.1325 8.6717 18.4125C8.6717 18.6925 8.8817 18.9025 9.1617 18.9025ZM17.6817 18.9025C17.9617 18.9025 18.1717 18.6925 18.1717 18.4125C18.1717 18.1325 17.9617 17.9025 17.6817 17.9025C17.4017 17.9025 17.1817 18.1325 17.1817 18.4125C17.1817 18.6925 17.4017 18.9025 17.6817 18.9025ZM21.9417 18.9025C22.2217 18.9025 22.4317 18.6925 22.4317 18.4125C22.4317 18.1325 22.2217 17.9025 21.9417 17.9025C21.6517 17.9025 21.4317 18.1325 21.4317 18.4125C21.4317 18.6925 21.6517 18.9025 21.9417 18.9025ZM2.9017 19.8125C3.2017 19.8125 3.4117 19.5925 3.4117 19.3125C3.4117 19.0325 3.2017 18.8225 2.9017 18.8225C2.6217 18.8225 2.4117 19.0325 2.4117 19.3125C2.4117 19.5925 2.6217 19.8125 2.9017 19.8125ZM11.2017 19.8125C11.4817 19.8125 11.6917 19.5925 11.6917 19.3125C11.6917 19.0325 11.4817 18.8225 11.2017 18.8225C10.9217 18.8225 10.7017 19.0325 10.7017 19.3125C10.7017 19.5925 10.9217 19.8125 11.2017 19.8125ZM15.6517 19.8125C15.9417 19.8125 16.1517 19.5925 16.1517 19.3125C16.1517 19.0325 15.9417 18.8225 15.6517 18.8225C15.3717 18.8225 15.1517 19.0325 15.1517 19.3125C15.1517 19.5925 15.3717 19.8125 15.6517 19.8125ZM23.9417 19.8125C24.2217 19.8125 24.4317 19.5925 24.4317 19.3125C24.4317 19.0325 24.2217 18.8225 23.9417 18.8225C23.6617 18.8225 23.4417 19.0325 23.4417 19.3125C23.4417 19.5925 23.6617 19.8125 23.9417 19.8125ZM0.7417 20.1825C1.0217 20.1825 1.2417 19.9725 1.2417 19.6925C1.2417 19.4025 1.0217 19.1825 0.7417 19.1825C0.4617 19.1825 0.2317 19.4025 0.2317 19.6925C0.2317 19.9725 0.4617 20.1825 0.7417 20.1825ZM13.4317 20.1825C13.7117 20.1825 13.9217 19.9725 13.9217 19.6925C13.9217 19.4025 13.7117 19.1825 13.4317 19.1825C13.1517 19.1825 12.9217 19.4025 12.9217 19.6925C12.9217 19.9725 13.1517 20.1825 13.4317 20.1825ZM26.0817 20.1825C26.3717 20.1825 26.5917 19.9725 26.5917 19.6925C26.5917 19.4025 26.3717 19.1825 26.0817 19.1825C25.8017 19.1825 25.5817 19.4025 25.5817 19.6925C25.5817 19.9725 25.8017 20.1825 26.0817 20.1825Z" />
        </svg>
    