
        <svg xmlns="http://www.w3.org/2000/svg" viewBox="0 0 100 100">
            <path d="M11.3523 22.7064C17.6023 22.7064 22.7123 17.6064 22.7123 11.3564C22.7123 5.1064 17.6023 -0.0036 11.3523 -0.0036C5.1123 -0.0036 0.0023 5.1064 0.0023 11.3564C0.0023 17.6064 5.1123 22.7064 11.3523 22.7064ZM8.3423 6.8764C7.5623 6.8764 6.9423 6.2564 6.9423 5.4564C6.9423 4.6964 7.5623 4.0564 8.3423 4.0564C9.1123 4.0564 9.7423 4.6964 9.7423 5.4564C9.7423 6.2564 9.1123 6.8764 8.3423 6.8764ZM11.9723 17.5864C11.9723 17.4764 12.0823 17.3664 12.2023 17.3664C13.2823 17.3664 14.1723 16.6664 14.4223 15.6364L15.9423 9.6364C15.3323 9.4064 14.8923 8.8264 14.8923 8.1564C14.8923 7.2864 15.6123 6.5764 16.4723 6.5764C17.3323 6.5764 18.0423 7.2864 18.0423 8.1564C18.0423 9.0264 17.3323 9.7364 16.3923 9.7364L14.8723 15.7364C14.7823 16.0164 14.7023 16.2564 14.5223 16.4864L15.9523 17.4164C16.1123 17.5264 16.0623 17.8264 15.8323 17.8264H12.2023C12.0623 17.8264 11.9723 17.7064 11.9723 17.5864ZM15.3323 8.1564C15.3323 8.8464 15.7823 9.2964 16.4723 9.2964C17.1423 9.2964 17.6123 8.8464 17.6123 8.1564C17.6123 7.4664 17.1423 7.0164 16.4723 7.0164C15.7823 7.0164 15.3323 7.4664 15.3323 8.1564ZM6.5323 12.0264L6.7523 8.9664C6.7923 8.2164 7.4323 7.6864 8.2623 7.6864C8.7523 7.6864 9.1623 7.8564 9.4923 8.1064L11.0623 9.2364L12.9723 7.8564C13.2523 7.6664 13.6723 7.7264 13.8823 8.0164C14.1023 8.3164 14.0123 8.7164 13.7323 8.9264L11.4423 10.5864C11.2123 10.7464 10.9123 10.7464 10.6723 10.5864L9.3523 9.6164C9.2923 9.5764 9.2123 9.6164 9.2123 9.7164L8.9723 12.1864L11.8123 12.9964C12.2723 13.1164 12.4723 13.4564 12.3323 13.8964L11.3523 17.4364C11.2523 17.8264 10.8723 17.9864 10.5723 17.9064C10.2023 17.7964 9.9823 17.4764 10.0923 17.0964L10.8723 14.1864L7.9323 13.7764C6.9023 13.6164 6.4723 12.9364 6.5323 12.0264ZM6.2023 14.6564C6.1123 14.4364 6.1923 14.2164 6.4823 14.2664L8.6723 14.6264C8.8023 14.6464 8.8923 14.7564 8.8923 14.8864C8.8923 15.0364 8.8123 15.1264 8.6823 15.1664L8.0023 15.3064L8.2723 16.5664C8.4123 17.1664 8.7623 17.3664 9.2423 17.3664C9.3823 17.3664 9.4923 17.4364 9.4923 17.5864C9.4923 17.7164 9.3823 17.8264 9.2423 17.8264H6.4523C6.1623 17.8264 6.1723 17.5264 6.3323 17.4264L7.7923 16.4564L7.5723 15.3964L7.3923 15.4364C6.8523 15.5364 6.5323 15.3364 6.3323 14.8964Z" />
        </svg>
    