
        <svg xmlns="http://www.w3.org/2000/svg" viewBox="0 0 100 100">
            <path d="M12.9032 4.7916C14.2232 4.7916 15.3132 3.7216 15.3132 2.3816C15.3132 1.0616 14.2232 0.0016 12.9032 0.0016C11.5832 0.0016 10.5132 1.0616 10.5132 2.3816C10.5132 3.7216 11.5832 4.7916 12.9032 4.7916ZM2.2232 18.0116H9.4732C10.4632 18.0116 10.9132 16.8916 10.3532 16.2116L8.0732 13.4216L14.5532 12.9916H20.6532C21.2632 12.9916 21.7732 12.5016 21.7732 11.8816C21.7732 11.2716 21.2632 10.7716 20.6532 10.7716H9.3932L12.0632 8.1016C12.1732 7.9816 12.3332 7.9216 12.4832 7.9316L20.4532 8.9516C21.1032 9.0516 21.6932 8.5416 21.6932 7.8616C21.6932 7.3116 21.2832 6.8416 20.7232 6.7616L4.0432 4.6616C3.6932 4.6216 3.3732 4.7316 3.1332 4.9716L0.3332 7.7616C-0.1168 8.1916 -0.1068 8.8716 0.3332 9.3116C0.7232 9.7416 1.4632 9.7716 1.9132 9.3116L4.3032 6.9116L6.9032 7.2516C7.1532 7.2816 7.2532 7.5316 7.0832 7.7116L4.6232 10.1516C3.6532 11.0816 3.6132 12.6016 4.6232 13.6216L6.7732 15.8016H2.2232C1.6232 15.8016 1.1132 16.2916 1.1132 16.9016C1.1132 17.5116 1.6232 18.0116 2.2232 18.0116ZM13.2632 27.3016C13.4732 27.3016 13.6432 27.1416 13.6432 26.9316V15.5016C13.6432 15.3016 13.4732 15.1316 13.2632 15.1316C13.0532 15.1316 12.8932 15.3016 12.8932 15.5016V26.9316C12.8932 27.1416 13.0532 27.3016 13.2632 27.3016Z" />
        </svg>
    