
        <svg xmlns="http://www.w3.org/2000/svg" viewBox="0 0 100 100">
            <path d="M0.0017 26.9166C0.0017 27.9266 0.8217 28.7366 1.8117 28.7366C2.8217 28.7366 3.6417 27.9266 3.6417 26.9166V1.8266C3.6417 0.8166 2.8217 -0.0034 1.8117 -0.0034C0.8217 -0.0034 0.0017 0.8166 0.0017 1.8266ZM17.3817 5.7466C18.9617 5.7466 20.2517 4.4566 20.2517 2.8666C20.2517 1.2866 18.9617 -0.0034 17.3817 -0.0034C15.8017 -0.0034 14.5117 1.2866 14.5117 2.8666C14.5117 4.4566 15.8017 5.7466 17.3817 5.7466ZM14.8017 27.8166L17.4917 22.3366C17.6117 22.0966 17.6617 21.9966 17.8917 21.6866L20.5117 18.4066C21.5717 17.0866 21.8817 16.3366 21.7717 14.9366L21.5717 12.3366C21.5417 12.0166 21.9017 11.8966 22.1517 12.1066L22.9217 12.7966L23.2017 16.0866C23.2717 16.9966 23.8017 17.5066 24.6217 17.4466C25.4317 17.4166 25.9417 16.7966 25.8717 15.9266L25.6317 12.8566C25.5617 11.9366 25.3217 11.3766 24.6717 10.7466L22.6717 8.7966C21.4217 7.5666 20.4417 6.8366 19.0117 6.8366C17.1317 6.8366 15.9717 8.2266 16.1017 10.1466L16.3617 13.8966C16.4517 15.2266 16.6717 16.0266 17.0817 17.4166L17.1517 17.6766L15.5517 19.9666C15.2617 20.3766 14.9917 20.7866 14.7917 21.1966L12.1617 26.5466C11.1917 28.5166 13.9017 29.6366 14.8017 27.8166ZM10.1517 11.8966C9.2717 11.8966 8.6617 12.4366 8.6617 13.2266C8.6617 14.0366 9.2417 14.5666 10.1517 14.5666H12.9217C13.7317 14.5666 14.1317 14.4066 14.6017 13.9666L14.9417 13.6366L14.7117 10.0666L13.0417 11.8966ZM23.9717 28.2466C25.1217 29.6166 27.4117 27.9766 26.0117 26.3366L22.2217 21.8166L21.6517 19.1966L19.3217 22.1266L19.4617 22.5366C19.6317 22.9966 19.6917 23.1366 20.0817 23.6166Z" />
        </svg>
    