
        <svg xmlns="http://www.w3.org/2000/svg" viewBox="0 0 100 100">
            <path d="M9.7746 18.6191C11.2246 20.3691 13.5746 20.1191 14.7646 18.3491L25.6746 1.9991C26.0746 1.4091 25.9046 0.6091 25.3246 0.2191C24.7446 -0.1809 23.9346 -0.0209 23.5346 0.5691L18.6046 7.9991C18.0346 8.8491 17.0846 9.2791 16.0946 9.2791C15.0246 9.2791 13.9346 8.7891 13.2546 7.7491L8.4846 0.5691C8.0846 -0.0209 7.3046 -0.1809 6.7046 0.2191C6.1246 0.6091 5.9546 1.4091 6.3546 1.9991L12.1946 10.7591C12.4446 11.1591 12.4646 11.6591 12.1946 12.0691L10.5946 14.4691L7.0946 11.4291C6.5646 10.9691 5.7646 10.9291 5.2046 11.4991L0.3746 16.3491C-0.1254 16.8591 -0.1254 17.6491 0.3746 18.1491C0.9446 18.6691 1.7146 18.6091 2.1746 18.1491L6.1046 14.2291ZM3.1446 1.6291H4.9846C4.9146 1.1191 5.0146 0.5891 5.2746 0.1391H3.1446C2.7246 0.1391 2.3946 0.4791 2.3946 0.8891C2.3946 1.2991 2.7246 1.6291 3.1446 1.6291ZM10.6246 1.6291H21.4046L22.2146 0.4291C22.2646 0.3391 22.3346 0.2291 22.4046 0.1391H9.6146C9.6846 0.2291 9.7546 0.3391 9.8246 0.4291ZM27.0346 1.6291H28.1146C28.5346 1.6291 28.8646 1.2991 28.8646 0.8891C28.8646 0.4791 28.5346 0.1391 28.1146 0.1391H26.7446C27.0146 0.5891 27.1246 1.1091 27.0346 1.6291ZM16.0946 8.0291C17.5446 8.0291 18.7246 6.8591 18.7246 5.3891C18.7246 3.9391 17.5446 2.7691 16.0946 2.7691C14.6446 2.7691 13.4546 3.9391 13.4546 5.3891C13.4546 6.8591 14.6446 8.0291 16.0946 8.0291ZM12.7646 27.7691C13.1646 27.1791 13.0146 26.4091 12.4146 26.0191L8.1246 23.1391L10.4246 20.6091C9.8546 20.3391 9.3346 19.9291 8.8646 19.3791L7.9946 18.3591L5.1246 22.6791C4.7346 23.2491 4.8746 24.0591 5.4746 24.4591L11.0046 28.1191C11.6146 28.5191 12.4046 28.3491 12.7646 27.7691Z" />
        </svg>
    