
        <svg xmlns="http://www.w3.org/2000/svg" viewBox="0 0 100 100">
            <path d="M12.7923 25.5978C19.8723 25.5978 25.6023 19.8678 25.6023 12.7978C25.6023 5.7278 19.8723 -0.0022 12.7923 -0.0022C5.7323 -0.0022 0.0023 5.7278 0.0023 12.7978C0.0023 19.8678 5.7323 25.5978 12.7923 25.5978ZM12.7923 21.4178C8.0323 21.4178 4.1723 17.5678 4.1723 12.7978C4.1723 8.0278 8.0323 4.1678 12.7923 4.1678C17.5623 4.1678 21.4323 8.0278 21.4323 12.7978C21.4323 17.5678 17.5623 21.4178 12.7923 21.4178ZM14.4123 8.5078C15.1323 8.5078 15.7423 7.9078 15.7423 7.1878C15.7423 6.4578 15.1323 5.8578 14.4123 5.8578C13.6723 5.8578 13.0923 6.4578 13.0923 7.1878C13.0923 7.9078 13.6723 8.5078 14.4123 8.5078ZM8.3623 14.4678H11.5623L14.5223 14.8778C15.6923 15.0578 16.5723 14.5278 16.5723 13.3778V11.5078C16.5723 11.4678 16.6023 11.4578 16.6323 11.4978L17.0523 11.9178V13.7578C17.0523 14.1478 17.3823 14.4678 17.7523 14.4678C18.1423 14.4678 18.4323 14.1478 18.4323 13.7578V11.6278C18.4323 11.4278 18.3723 11.2578 18.2323 11.1078L16.8323 9.7278C16.3923 9.2978 15.8223 9.0378 15.2023 9.0378H9.7023C9.3323 9.0378 9.0023 9.3678 9.0023 9.7378C9.0023 10.1278 9.3123 10.4378 9.7023 10.4378H13.9423C14.0523 10.4378 14.1123 10.4878 14.1123 10.6078V13.0678H8.3623C7.9823 13.0678 7.6623 13.3678 7.6623 13.7578C7.6623 14.1478 7.9823 14.4678 8.3623 14.4678ZM6.6023 11.9778C7.3823 12.7378 8.2723 12.6578 8.6123 12.3078C8.9623 11.9678 8.9923 11.1278 8.2223 10.3578C7.4423 9.5878 6.6123 9.5978 6.2623 9.9578C5.9023 10.2978 5.8323 11.1778 6.6023 11.9778ZM16.3623 19.3578C16.6323 19.0878 16.6323 18.6578 16.3623 18.3878L14.5923 16.5678L15.1423 15.5078C14.9023 15.5178 14.6823 15.5178 14.4223 15.4778L13.4923 15.3478L13.0623 16.4678C12.9823 16.7178 13.0323 17.0078 13.2323 17.2178L15.4023 19.3578C15.6523 19.6278 16.0923 19.6278 16.3623 19.3578Z" />
        </svg>
    