
        <svg xmlns="http://www.w3.org/2000/svg" viewBox="0 0 100 100">
            <path d="M11.9523 23.9041C18.5523 23.9041 23.9023 18.5341 23.9023 11.9541C23.9023 5.3541 18.5523 0.0041 11.9523 0.0041C5.3623 0.0041 0.0023 5.3541 0.0023 11.9541C0.0023 18.5341 5.3623 23.9041 11.9523 23.9041ZM11.7223 6.2441C10.9223 6.2441 10.2623 5.6041 10.2623 4.8041C10.2623 3.9841 10.9223 3.3441 11.7223 3.3441C12.5323 3.3441 13.1823 3.9841 13.1823 4.8041C13.1823 5.6041 12.5323 6.2441 11.7223 6.2441ZM6.4923 11.3441C6.1123 11.2841 5.8723 10.9141 5.9523 10.5341L6.6323 7.4741C6.7023 7.1741 6.9723 6.9341 7.3023 6.9341H11.5123C11.9723 6.9341 12.4223 7.0241 12.8323 7.1841L14.1123 7.6641V5.5941C14.1123 5.2141 14.4123 4.9141 14.7923 4.9141C15.1723 4.9141 15.4823 5.2141 15.4823 5.5941V8.7341C15.4823 9.2141 15.0223 9.4541 14.5523 9.2841L12.0723 8.3541C11.9723 8.3041 11.8623 8.3741 11.8223 8.4741L11.2023 10.8941L13.3723 10.6841C13.7823 10.6441 14.2023 11.0241 14.1023 11.5241L13.4323 14.9341C13.3323 15.3241 12.9223 15.5241 12.6123 15.4541C12.2423 15.3741 12.0223 15.0241 12.0923 14.6441L12.5523 12.2941L10.1123 12.8941C8.8023 13.2141 8.1123 12.1841 8.3623 11.1341L9.0423 8.5441C9.0723 8.4241 8.9923 8.3241 8.8623 8.3241H7.8523L7.2923 10.8441C7.1823 11.2341 6.8223 11.4141 6.4923 11.3441ZM9.5523 19.5541C9.1923 19.4841 8.9523 19.1141 9.0223 18.7341L9.6823 15.4341L9.4123 13.5241C9.5523 13.5741 9.8223 13.5541 10.2523 13.4641L11.0423 13.2741V15.4241C11.0423 15.4641 11.0523 15.5341 11.0423 15.6141L10.3623 19.0041C10.2623 19.3941 9.8623 19.6141 9.5523 19.5541ZM12.1523 18.2441C11.9423 18.2441 11.7423 18.0741 11.7423 17.8441C11.7423 17.5941 11.9423 17.4241 12.1523 17.4241H15.6723C15.9023 17.4241 16.0823 17.6141 16.0823 17.8441C16.0823 18.0741 15.9123 18.2441 15.6723 18.2441ZM11.4723 19.7441C11.2223 19.7441 11.0523 19.5741 11.0523 19.3341C11.0523 19.1141 11.2223 18.9241 11.4723 18.9241H16.3523C16.5623 18.9241 16.7623 19.1141 16.7623 19.3341C16.7623 19.5741 16.5623 19.7441 16.3523 19.7441Z" />
        </svg>
    