
        <svg xmlns="http://www.w3.org/2000/svg" viewBox="0 0 100 100">
            <path d="M16.1791 5.3795C17.6691 5.3795 18.8691 4.1695 18.8691 2.6795C18.8691 1.2095 17.6691 -0.0005 16.1791 -0.0005C14.6891 -0.0005 13.4991 1.2095 13.4991 2.6795C13.4991 4.1695 14.6891 5.3795 16.1791 5.3795ZM6.5991 27.2695H14.8891C16.2391 27.2695 17.3791 26.9895 18.2591 26.2295C18.6891 25.8495 18.6491 25.3795 18.4091 25.0695C18.1591 24.7495 17.6691 24.6095 17.2091 24.9595C16.5991 25.4395 15.9791 25.6395 14.8891 25.6495V19.0795C14.8891 18.7195 14.7991 18.3595 14.5491 18.0395L11.5891 14.2695L14.1091 10.4295C14.2491 10.2195 14.5291 10.2195 14.6391 10.4495L15.4791 12.1495C15.6991 12.5895 16.1491 12.8695 16.6391 12.8695H21.5591C22.2891 12.8695 22.8691 12.2895 22.8691 11.5595C22.8691 10.8395 22.2891 10.2395 21.5591 10.2395H17.4591L16.1791 7.6895C15.6691 6.6295 14.5591 5.9495 13.3791 5.9495H6.8291C6.4091 5.9495 5.9591 6.1795 5.7291 6.5395L3.2791 10.2295C2.8891 10.8195 3.0491 11.6395 3.6491 12.0395C4.2391 12.4495 5.0591 12.2695 5.4691 11.6595L7.5291 8.5695H9.3991C9.5391 8.5695 9.6191 8.6995 9.5391 8.8195L7.5191 11.8395C6.8491 12.8295 6.9891 14.1795 7.8491 15.0395L12.2791 19.4795V25.6495H6.5991C5.4891 25.6495 4.8891 25.4395 4.2591 24.9595C3.8291 24.6295 3.3691 24.7395 3.1191 25.0195C2.8191 25.3195 2.7791 25.8395 3.2191 26.2295C4.0991 26.9895 5.2391 27.2695 6.5991 27.2695ZM0.4591 16.8395L5.2691 21.0595C6.0791 21.7695 6.9791 21.3895 7.3791 20.7795L9.1291 18.0795L6.9891 15.9495C6.9691 15.9095 6.9391 15.8795 6.8991 15.8395L5.8091 18.0395L2.1791 14.8595C1.6391 14.3995 0.8091 14.4295 0.3291 14.9895C-0.1509 15.5295 -0.1009 16.3595 0.4591 16.8395ZM6.5991 30.1495C7.2091 30.1495 7.7091 29.6495 7.7091 29.0395C7.7091 28.4295 7.2091 27.9295 6.5991 27.9295C5.9891 27.9295 5.4791 28.4295 5.4791 29.0395C5.4791 29.6495 5.9891 30.1495 6.5991 30.1495ZM14.8891 30.1495C15.4991 30.1495 16.0091 29.6495 16.0091 29.0395C16.0091 28.4295 15.4991 27.9295 14.8891 27.9295C14.2791 27.9295 13.7791 28.4295 13.7791 29.0395C13.7791 29.6495 14.2791 30.1495 14.8891 30.1495Z" />
        </svg>
    