
        <svg xmlns="http://www.w3.org/2000/svg" viewBox="0 0 100 100">
            <path d="M12.7923 25.5978C19.8723 25.5978 25.6023 19.8678 25.6023 12.7978C25.6023 5.7278 19.8723 -0.0022 12.7923 -0.0022C5.7323 -0.0022 0.0023 5.7278 0.0023 12.7978C0.0023 19.8678 5.7323 25.5978 12.7923 25.5978ZM12.7923 21.4178C8.0323 21.4178 4.1723 17.5678 4.1723 12.7978C4.1723 8.0278 8.0323 4.1678 12.7923 4.1678C17.5623 4.1678 21.4323 8.0278 21.4323 12.7978C21.4323 17.5678 17.5623 21.4178 12.7923 21.4178ZM15.1323 8.3678C15.8623 8.3678 16.4523 7.7578 16.4523 7.0478C16.4523 6.3078 15.8623 5.7178 15.1323 5.7178C14.4023 5.7178 13.8023 6.3078 13.8023 7.0478C13.8023 7.7578 14.4023 8.3678 15.1323 8.3678ZM10.6623 18.4478H14.4823C15.1423 18.4478 15.7223 18.3178 16.1523 17.9378C16.4423 17.6878 16.4023 17.3578 16.2023 17.1578C16.0523 16.9778 15.7523 16.9178 15.4823 17.1178C15.2423 17.3178 15.0223 17.3978 14.6123 17.4178V14.8778C14.6123 14.7078 14.5523 14.5078 14.4223 14.3478L13.0923 12.6478L14.2123 10.9078C14.2523 10.8678 14.3123 10.8678 14.3423 10.9078L14.7323 11.6978C14.8523 11.9278 15.0823 12.0578 15.3423 12.0578H17.6223C18.0223 12.0578 18.3123 11.7678 18.3123 11.3778C18.3123 10.9878 18.0223 10.6878 17.6223 10.6878H15.7723L15.2023 9.5278C14.9423 9.0278 14.4023 8.6878 13.8123 8.6878H10.7723C10.5423 8.6878 10.3023 8.7978 10.1823 8.9978L9.0423 10.7078C8.8323 11.0278 8.9323 11.4578 9.2323 11.6678C9.5523 11.8778 9.9823 11.7878 10.2023 11.4578L11.1323 10.0578H11.8623C11.9023 10.0578 11.9423 10.0878 11.9023 10.1378L11.0123 11.4578C10.6923 11.9578 10.7623 12.6278 11.1823 13.0578L13.2223 15.0978V17.4178H10.6623C10.1723 17.4178 9.9223 17.3478 9.6723 17.1178C9.3823 16.9178 9.1023 16.9778 8.9423 17.1578C8.7423 17.3478 8.7023 17.6878 9.0023 17.9378C9.4223 18.3178 10.0123 18.4478 10.6623 18.4478ZM7.7323 13.8978L9.9823 15.8678C10.4023 16.2278 10.8723 16.0278 11.0823 15.7178L11.8023 14.6178L10.7223 13.5078C10.7023 13.4878 10.6923 13.4778 10.6623 13.4578L10.2623 14.2778L8.6523 12.8578C8.3623 12.6078 7.9323 12.6178 7.6723 12.9178C7.4323 13.2078 7.4423 13.6478 7.7323 13.8978ZM10.6623 19.9078C10.9923 19.9078 11.2423 19.6478 11.2423 19.3378C11.2423 19.0078 10.9923 18.7378 10.6623 18.7378C10.3323 18.7378 10.0623 19.0078 10.0623 19.3378C10.0623 19.6478 10.3323 19.9078 10.6623 19.9078ZM14.4823 19.9078C14.8123 19.9078 15.0823 19.6478 15.0823 19.3378C15.0823 19.0078 14.8123 18.7378 14.4823 18.7378C14.1523 18.7378 13.9123 19.0078 13.9123 19.3378C13.9123 19.6478 14.1523 19.9078 14.4823 19.9078Z" />
        </svg>
    