
        <svg xmlns="http://www.w3.org/2000/svg" viewBox="0 0 100 100">
            <path d="M12.6023 25.1986C19.5623 25.1986 25.2023 19.5586 25.2023 12.5986C25.2023 5.6386 19.5623 -0.0014 12.6023 -0.0014C5.6523 -0.0014 0.0023 5.6386 0.0023 12.5986C0.0023 19.5586 5.6523 25.1986 12.6023 25.1986ZM14.2623 20.7286C13.9923 20.7286 13.7423 20.5086 13.7423 20.1986V17.8986C13.5223 17.9986 13.2623 18.0686 13.0123 18.0686C12.0223 18.0686 11.2223 17.3786 11.2223 16.2786V15.1986L9.1623 14.8486L7.1523 16.8786C6.8523 17.1586 6.4123 17.1586 6.1123 16.8786C5.8223 16.5786 5.8323 16.1286 6.1123 15.8286L8.3923 13.5486C8.5423 13.3986 8.7623 13.3486 8.9523 13.3486H10.8523C10.9423 13.3486 11.0023 13.2286 10.9223 13.1486L9.2723 11.6486H6.2323C5.8223 11.6486 5.4923 11.3086 5.4923 10.9086C5.4923 10.4986 5.8223 10.1786 6.2323 10.1786H9.5123C9.7223 10.1786 9.8423 10.2186 9.9623 10.2986L11.2223 11.1886V4.9486C11.2223 4.6486 11.4623 4.4186 11.7523 4.4186C12.0423 4.4186 12.2823 4.6386 12.2823 4.9486V11.9286L12.6123 12.1686L14.2223 10.5586C14.3123 10.4886 14.2923 10.3986 14.2123 10.3086L12.9023 9.0186V6.9486L16.5023 10.5186C16.7623 10.7786 16.9023 11.1486 16.9023 11.5686V14.3886C16.9023 14.5786 16.8123 14.7686 16.6923 14.8786L14.8623 16.7186C14.8323 16.7386 14.8123 16.7586 14.8023 16.7786V20.1986C14.8023 20.5086 14.5623 20.7286 14.2623 20.7286ZM17.3423 9.7386C16.5423 9.7386 15.9023 9.1086 15.9023 8.3086C15.9023 7.5186 16.5423 6.8786 17.3423 6.8786C18.1123 6.8786 18.7723 7.5186 18.7723 8.3086C18.7723 9.1086 18.1123 9.7386 17.3423 9.7386ZM14.8023 14.7286L15.4323 14.0886V13.2186C15.4323 13.1286 15.3423 13.0886 15.2723 13.1586L14.8023 13.6286ZM13.0123 17.0086C13.3123 17.0086 13.5423 16.8786 13.6523 16.6686C13.5023 16.4186 13.5023 16.0986 13.6723 15.8686C13.6923 15.8486 13.7223 15.7986 13.7423 15.7686V14.6586L13.6923 14.7086C13.2923 15.0386 12.7823 15.2486 12.2823 15.2786V16.2786C12.2823 16.7686 12.5623 17.0086 13.0123 17.0086Z" />
        </svg>
    