
        <svg xmlns="http://www.w3.org/2000/svg" viewBox="0 0 100 100">
            <path d="M3.7417 0.0002C1.6517 0.0002 0.0017 1.6802 0.0017 3.7702C0.0017 5.3002 1.0817 6.9102 2.5817 7.8202V12.0702C2.5817 12.5302 2.7817 12.9802 3.1517 13.2802L6.6517 16.0702C7.1217 16.4402 7.7617 16.4402 8.3517 16.2002L12.2717 14.5502C12.5117 14.4402 12.7217 14.5502 12.7617 14.8002L14.6517 25.2002L9.5317 27.2502C8.7417 27.5502 8.3517 28.4402 8.6517 29.2402C8.9917 30.0102 9.8217 30.4202 10.6517 30.0802L16.9417 27.5602C17.6117 27.3002 17.9617 26.6202 17.9217 25.9702L17.5517 21.0802C17.5417 20.7802 17.8317 20.5702 18.1217 20.7502L21.7617 23.2102V28.6802C21.7617 29.5202 22.4517 30.2102 23.3117 30.2102C24.1417 30.2102 24.8317 29.5202 24.8317 28.6802V22.3802C24.8317 21.8302 24.5417 21.4302 24.1717 21.1302L19.3617 17.1602L18.4217 12.0202C18.3317 11.5202 18.4017 11.1002 18.6317 10.6202L22.7317 2.4102C23.1217 1.6502 22.8017 0.7302 22.0417 0.3402C21.2817 -0.0198 20.3517 0.2702 19.9917 1.0202L15.9517 9.1202C15.6917 9.6202 15.3417 9.9602 14.7917 10.1802L7.8117 13.0702L5.0817 10.8602C5.0117 10.8202 4.9717 10.7802 4.9017 10.7302V7.8202C6.4017 6.9102 7.4617 5.3102 7.4617 3.7702C7.4617 1.6802 5.8217 0.0002 3.7417 0.0002ZM3.7417 2.3202C4.5717 2.3202 5.1417 2.9102 5.1417 3.8102C5.1417 4.6902 4.5617 5.5302 3.7417 5.8602C2.9017 5.5302 2.3217 4.6902 2.3217 3.8102C2.3217 2.9102 2.8817 2.3202 3.7417 2.3202ZM12.0717 9.6602C13.7017 9.6602 15.0217 8.3302 15.0217 6.7002C15.0217 5.0702 13.7017 3.7402 12.0717 3.7402C10.4417 3.7402 9.1017 5.0702 9.1017 6.7002C9.1017 8.3302 10.4417 9.6602 12.0717 9.6602Z" />
        </svg>
    