
        <svg xmlns="http://www.w3.org/2000/svg" viewBox="0 0 100 100">
            <path d="M15.8094 5.117C17.2094 5.117 18.3594 3.977 18.3594 2.547C18.3594 1.137 17.2094 -0.003 15.8094 -0.003C14.3794 -0.003 13.2294 1.137 13.2294 2.547C13.2294 3.977 14.3794 5.117 15.8094 5.117ZM9.9394 23.217C10.5994 23.217 11.1694 22.667 11.1694 22.007V15.867C11.1694 15.577 11.0594 15.317 10.8894 15.107L8.1094 11.697C7.9294 11.477 7.9894 11.237 8.1994 11.117L11.5894 9.367C11.8294 9.237 12.0794 9.327 12.1294 9.617L12.4194 11.697C12.4794 12.157 12.7394 12.467 13.2294 12.707L16.5594 14.377C17.4694 14.837 18.1894 14.457 18.4094 13.887C18.6294 13.347 18.4594 12.647 17.7194 12.267L14.7294 10.747L14.2494 7.207C13.9894 5.317 11.8994 4.157 9.9094 5.207L5.5194 7.497C3.4894 8.557 3.2194 10.867 4.7194 12.377L8.7494 16.387V22.007C8.7494 22.667 9.2894 23.217 9.9394 23.217ZM0.5494 15.637C1.0094 16.457 1.8594 16.697 2.7094 16.507L2.8494 16.477L5.7094 24.977L3.4694 26.447C2.9894 26.767 3.1294 27.477 3.6894 27.477H16.1194C16.6694 27.477 16.8094 26.747 16.3594 26.447L14.1394 24.997L17.0094 16.297C17.1294 15.947 16.9394 15.547 16.5994 15.447C16.2194 15.327 15.8794 15.527 15.7494 15.877L14.0994 20.817C13.6594 19.937 12.9694 19.207 12.0994 18.737V20.497C12.7194 21.067 13.0894 21.907 13.0894 22.817C13.0894 24.577 11.6694 25.997 9.8994 25.997C8.1894 25.997 6.7394 24.537 6.7394 22.817C6.7394 21.887 7.1494 21.037 7.7894 20.447V18.717C6.9094 19.157 6.1894 19.897 5.7394 20.797L4.2094 16.187L5.2394 15.947C5.5894 15.877 5.8094 15.617 5.8094 15.247C5.8094 14.887 5.5494 14.627 5.2094 14.567L0.8894 13.817C0.1594 13.687 -0.2106 14.277 0.1294 14.867Z" />
        </svg>
    