
        <svg xmlns="http://www.w3.org/2000/svg" viewBox="0 0 100 100">
            <path d="M12.3723 24.7459C19.2023 24.7459 24.7523 19.2059 24.7523 12.3759C24.7523 5.5459 19.2023 -0.0041 12.3723 -0.0041C5.5423 -0.0041 0.0023 5.5459 0.0023 12.3759C0.0023 19.2059 5.5423 24.7459 12.3723 24.7459ZM12.3723 21.6659C7.2423 21.6659 3.0823 17.5059 3.0823 12.3759C3.0823 7.2259 7.2423 3.0859 12.3723 3.0859C17.5223 3.0859 21.6723 7.2259 21.6723 12.3759C21.6723 17.5059 17.5223 21.6659 12.3723 21.6659ZM11.1423 7.4659C11.1423 7.6959 11.3323 7.8859 11.5523 7.8859C12.0923 7.8859 12.3823 7.9759 12.7123 8.3359C12.8523 8.4959 13.0123 8.5659 13.1723 8.5659C13.3323 8.5659 13.4923 8.4959 13.6423 8.3359C13.9523 7.9759 14.2623 7.8859 14.8023 7.8859C15.0223 7.8859 15.2123 7.6959 15.2123 7.4659C15.2123 7.2459 15.0223 7.0459 14.7923 7.0459C14.1323 7.0459 13.6623 7.2059 13.1723 7.6259C12.6923 7.2059 12.2223 7.0459 11.5523 7.0459C11.3323 7.0459 11.1423 7.2459 11.1423 7.4659ZM10.2923 13.0459C11.1023 13.3159 11.5423 13.8659 12.3723 13.8659C13.3323 13.8659 13.7323 13.1359 14.8323 12.9359L11.3523 9.3259C11.0723 9.0359 10.6423 8.9859 10.2923 9.2459L7.9223 10.9059C7.4923 11.2259 7.5323 11.6959 7.7923 11.9759C8.0023 12.2059 8.3823 12.3059 8.7423 12.0459L10.6323 10.7359L11.6323 11.7759C11.7623 11.9059 11.7823 12.0559 11.6123 12.1759ZM15.6923 12.1759C16.4423 12.1759 17.0523 11.5659 17.0523 10.8159C17.0523 10.0459 16.4423 9.4459 15.6923 9.4459C14.9323 9.4459 14.3223 10.0459 14.3223 10.8159C14.3223 11.5659 14.9323 12.1759 15.6923 12.1759ZM6.1123 15.5959H6.2623C7.9223 15.5959 8.2623 14.6259 9.3123 14.6259C10.2823 14.6259 10.7023 15.5959 12.3723 15.5959C14.0523 15.5959 14.4623 14.6259 15.4323 14.6259C16.4723 14.6259 16.8123 15.5959 18.4923 15.5959H18.6223C18.8523 15.5959 19.0523 15.4259 19.0523 15.1759C19.0523 14.9559 18.8523 14.7559 18.6223 14.7559H18.4923C17.4023 14.7559 17.0423 13.7659 15.4323 13.7659C13.9223 13.7659 13.4523 14.7559 12.3723 14.7559C11.2823 14.7559 10.8123 13.7659 9.3123 13.7659C7.7123 13.7659 7.3323 14.7559 6.2623 14.7559H6.1123C5.8823 14.7559 5.6923 14.9559 5.6923 15.1759C5.6923 15.4259 5.8823 15.5959 6.1123 15.5959ZM6.1123 17.3559H6.2623C7.9223 17.3559 8.2623 16.3859 9.3123 16.3859C10.2823 16.3859 10.7023 17.3559 12.3723 17.3559C14.0523 17.3559 14.4623 16.3859 15.4323 16.3859C16.4723 16.3859 16.8123 17.3559 18.4923 17.3559H18.6223C18.8523 17.3559 19.0523 17.1659 19.0523 16.9459C19.0523 16.7059 18.8523 16.5159 18.6223 16.5159H18.4923C17.4023 16.5159 16.9423 15.5259 15.4323 15.5259C14.0123 15.5259 13.4523 16.5159 12.3723 16.5159C11.2823 16.5159 10.7323 15.5259 9.3123 15.5259C7.7923 15.5259 7.3323 16.5159 6.2623 16.5159H6.1123C5.8823 16.5159 5.6923 16.7059 5.6923 16.9459C5.6923 17.1659 5.8823 17.3559 6.1123 17.3559Z" />
        </svg>
    