
        <svg xmlns="http://www.w3.org/2000/svg" viewBox="0 0 100 100">
            <path d="M19.7817 5.1239C21.2017 5.1239 22.3517 3.9739 22.3517 2.5539C22.3517 1.1339 21.2017 0.0039 19.7817 0.0039C18.3617 0.0039 17.2217 1.1339 17.2217 2.5539C17.2217 3.9739 18.3617 5.1239 19.7817 5.1239ZM11.5517 22.9539C12.0817 23.1439 12.7417 23.0139 13.0817 22.3239L16.0817 16.3239C16.3117 15.8639 16.2517 15.3239 15.8517 14.9439L12.2317 11.3039L16.8117 9.0239C17.0317 8.9039 17.2717 8.9639 17.4417 9.1239L20.1717 11.8339C20.3817 12.0439 20.6817 12.1839 21.0017 12.1839H26.4117C27.0717 12.1839 27.6117 11.6639 27.6117 10.9839V8.2539C28.1517 7.5539 29.7217 5.3239 29.7217 3.3239C29.7217 1.7339 28.5717 0.5939 26.9717 0.5939C25.3817 0.5939 24.2317 1.7339 24.2317 3.3239C24.2317 5.3039 25.7717 7.5339 26.3217 8.2339V9.7839H21.4917L16.4417 4.7239C15.8417 4.1239 15.0217 3.7839 14.1717 3.7839H4.1917C3.5417 3.7839 3.0017 4.3239 3.0017 4.9839C3.0017 5.6439 3.5417 6.1839 4.1917 6.1839H11.7217C11.8517 6.1839 11.8917 6.3839 11.7817 6.4439L9.5417 7.5539C8.3517 8.1439 7.7617 9.2539 7.7617 10.3839C7.7617 11.3539 8.1917 12.3139 9.0817 12.9639L13.4717 16.1639L10.9317 21.2539C10.5317 22.0639 10.9617 22.7239 11.5517 22.9539ZM26.9717 1.8939C27.8217 1.8939 28.4217 2.5039 28.4217 3.3239C28.4217 4.4639 27.5517 5.9839 26.9717 6.9139C26.4017 5.9839 25.5317 4.4639 25.5317 3.3239C25.5317 2.5039 26.1317 1.8939 26.9717 1.8939ZM1.1917 18.1839H7.1917C7.6617 18.1839 8.0717 17.9139 8.2817 17.5339L9.6417 14.7739L8.4217 13.8739C7.9917 13.5539 7.6217 13.1739 7.3317 12.7739L6.3517 15.7839H1.1917C0.5417 15.7839 0.0017 16.3239 0.0017 16.9839C0.0017 17.6339 0.5417 18.1839 1.1917 18.1839Z" />
        </svg>
    