
        <svg xmlns="http://www.w3.org/2000/svg" viewBox="0 0 100 100">
            <path d="M12.6023 25.1986C19.5623 25.1986 25.2023 19.5586 25.2023 12.5986C25.2023 5.6386 19.5623 -0.0014 12.6023 -0.0014C5.6323 -0.0014 0.0023 5.6386 0.0023 12.5986C0.0023 19.5586 5.6323 25.1986 12.6023 25.1986ZM12.6023 21.5386C7.6523 21.5386 3.6523 17.5386 3.6523 12.5986C3.6523 7.6486 7.6523 3.6586 12.6023 3.6586C17.5423 3.6586 21.5423 7.6486 21.5423 12.5986C21.5423 17.5386 17.5423 21.5386 12.6023 21.5386ZM7.3123 12.3886L7.6623 14.4686C7.8023 15.3386 8.9923 15.1486 8.8623 14.2986L8.5823 12.5586L9.7023 12.1286C9.8423 12.0686 9.9723 12.1186 10.0323 12.2386L11.1023 14.3586C11.4423 15.0186 11.7223 15.2386 11.9923 15.4186L15.4923 17.9986C16.1823 18.5086 17.0023 17.4986 16.2323 16.9186L13.5123 14.9286C13.4323 14.8586 13.4323 14.7386 13.5323 14.6986L15.3523 13.6386L17.7423 14.7886C18.5323 15.1486 19.1523 14.0486 18.2423 13.6086L15.6423 12.3786C15.3323 12.2186 15.0123 12.2686 14.7023 12.4486L13.4923 13.1386C13.3723 13.2086 13.2923 13.1986 13.2523 13.0986L12.2823 11.1086C12.2023 10.9586 12.2323 10.8086 12.3723 10.7486L13.2623 10.3386C13.5823 10.1786 13.7123 10.0686 13.8023 9.7586L14.3623 7.7886C14.6023 6.9586 13.4623 6.6486 13.2223 7.4886L12.6823 9.3786L7.7623 11.5286C7.3823 11.6986 7.2523 11.9886 7.3123 12.3886ZM9.6023 9.9586C10.3323 9.9586 10.9423 9.3486 10.9423 8.6286C10.9423 7.8886 10.3323 7.2786 9.6023 7.2786C8.8523 7.2786 8.2623 7.8886 8.2623 8.6286C8.2623 9.3486 8.8523 9.9586 9.6023 9.9586Z" />
        </svg>
    