
        <svg xmlns="http://www.w3.org/2000/svg" viewBox="0 0 100 100">
            <path d="M11.3523 22.7064C17.6023 22.7064 22.7123 17.6064 22.7123 11.3564C22.7123 5.1064 17.6023 -0.0036 11.3523 -0.0036C5.1123 -0.0036 0.0023 5.1064 0.0023 11.3564C0.0023 17.6064 5.1123 22.7064 11.3523 22.7064ZM8.0723 7.0164C7.2923 7.0164 6.6823 6.3964 6.6823 5.6164C6.6823 4.8364 7.2923 4.1964 8.0723 4.1964C8.8623 4.1964 9.4823 4.8364 9.4823 5.6164C9.4823 6.3964 8.8623 7.0164 8.0723 7.0164ZM8.9623 17.6164C8.4623 17.6164 8.4823 17.0064 8.8623 16.8764L9.7523 16.5864L9.2323 14.3564C9.1523 14.0364 9.2023 13.8164 9.3523 13.5564L10.2823 12.0164C9.0123 11.5164 7.7823 10.6364 7.4523 9.3964C7.4023 9.2564 7.3023 9.1564 7.0523 9.1964L4.1923 9.7264C3.7723 9.7964 3.5123 9.5264 3.4323 9.1964C3.3823 8.8964 3.5423 8.5564 3.9623 8.4864L13.6623 6.7064C14.0823 6.6364 14.3623 6.8864 14.4223 7.1964C14.5123 7.5164 14.3423 7.8764 13.9223 7.9464L10.4023 8.5764C10.2623 8.6064 10.1323 8.7664 10.2223 8.9264C10.4623 9.5664 11.5823 10.0464 12.2423 10.1564L14.5623 10.2764L18.3323 9.6164C18.5123 9.5864 18.7123 9.6464 18.7623 9.9164L19.0923 11.7764C19.1823 12.2364 18.5623 12.3364 18.3823 12.0164L17.8523 11.0164L12.4123 11.9964L10.5423 14.2864L11.2023 17.0864C11.2723 17.4164 11.1323 17.6164 10.8423 17.6164ZM20.0623 12.0164C20.0723 12.1264 19.9823 12.2464 19.8623 12.2664C19.7623 12.2964 19.6323 12.2064 19.6123 12.0864L19.1623 9.5664C19.1523 9.4464 19.2223 9.3164 19.3523 9.2964C19.4623 9.2764 19.5923 9.3664 19.6023 9.4764ZM8.5623 18.5064C8.4523 18.5064 8.3423 18.3964 8.3423 18.2764C8.3423 18.1664 8.4523 18.0564 8.5623 18.0564H11.1423C11.2623 18.0564 11.3623 18.1664 11.3623 18.2764C11.3623 18.3964 11.2623 18.5064 11.1423 18.5064Z" />
        </svg>
    