
        <svg xmlns="http://www.w3.org/2000/svg" viewBox="0 0 100 100">
            <path d="M10.3917 19.3991L13.7217 14.8091L15.8317 18.6591C16.5517 21.9591 16.6217 24.4991 16.6217 24.8891C16.6217 25.5491 17.1317 26.0391 17.7317 26.0391C18.3517 26.0391 18.8317 25.5491 18.8317 24.9191C18.8317 24.7991 18.5717 21.9591 17.9717 18.0491L17.9517 17.8591C17.2617 13.3691 14.2017 5.1791 6.9017 0.3291C6.5317 0.0891 6.2117 -0.0009 5.8317 -0.0009H1.1017C0.4917 -0.0009 0.0017 0.4891 0.0017 1.0991C0.0017 1.7191 0.4917 2.2191 1.1017 2.2191H5.7517C6.9017 3.0091 7.9017 3.8791 8.8117 4.8091C8.9417 4.9191 8.9617 5.1191 8.8717 5.2591L5.1517 11.6091C4.6917 12.4191 5.2417 13.2891 6.1017 13.2891H11.1817L8.5117 18.1991L8.4017 18.3991L5.1217 24.3991C4.8317 24.9391 5.0117 25.6191 5.5517 25.9091C6.0617 26.1691 6.7417 26.0491 7.0617 25.4491ZM4.2817 7.9891C5.5617 7.9891 6.6017 6.9591 6.6017 5.6791C6.6017 4.3991 5.5617 3.3591 4.2817 3.3591C3.0017 3.3591 1.9717 4.3991 1.9717 5.6791C1.9717 6.9591 3.0017 7.9891 4.2817 7.9891ZM8.0117 11.0791L8.8317 9.6691C8.9717 9.4291 9.2317 9.4791 9.3517 9.6491L10.3017 11.0791Z" />
        </svg>
    