
        <svg xmlns="http://www.w3.org/2000/svg" viewBox="0 0 100 100">
            <path d="M18.9617 14.2269C22.9117 14.2269 26.1117 10.9669 26.1117 7.1569C26.1117 3.1769 22.9117 -0.0031 18.9617 -0.0031C15.0217 -0.0031 11.8917 3.1769 11.8917 7.1569C11.8917 10.9669 15.0117 14.2269 18.9617 14.2269ZM3.7517 7.8269C5.8217 7.8269 7.4517 6.1269 7.4517 4.1269C7.4517 2.0469 5.8217 0.3769 3.7517 0.3769C1.6617 0.3769 0.0017 2.0469 0.0017 4.1269C0.0017 6.1269 1.6617 7.8269 3.7517 7.8269ZM5.9717 21.7269L10.5117 16.1369L8.1117 11.7869C6.9417 9.6569 4.9217 8.8669 3.0017 9.9569C0.9917 10.9969 0.6317 13.1169 1.8017 15.2469L4.3017 19.7769C4.7817 20.6369 5.4117 21.2769 5.9717 21.7269ZM25.5217 27.3969C26.2617 26.6769 26.3717 25.4869 25.3917 24.4769L19.5517 18.3669C18.1017 16.8469 16.5817 16.6269 14.7817 17.3069L12.6117 18.1169L8.6917 22.9369C9.5817 23.1169 10.7717 23.0769 11.8617 22.6569L15.9917 21.1169C16.3317 20.9969 16.5117 21.0269 16.7317 21.2569L22.4017 27.1369C23.4017 28.1569 24.7017 28.2169 25.5217 27.3969ZM3.2217 27.4469C3.8717 27.9269 4.6717 27.9269 5.3417 27.0869L8.6917 22.9369C7.6417 22.6569 6.7417 22.2569 5.9717 21.7269L3.0917 25.2669C2.4617 26.0669 2.5317 26.8669 3.2217 27.4469Z" />
        </svg>
    