
        <svg xmlns="http://www.w3.org/2000/svg" viewBox="0 0 100 100">
            <path d="M2.4717 0.5986C1.0917 0.5986 0.0017 1.6886 0.0017 3.0686C0.0017 4.2986 0.8717 5.7486 2.1717 6.3486V10.0186C2.1717 10.3886 2.2717 10.6986 2.5517 10.9186L5.5817 13.3286C5.9517 13.6286 6.3617 13.5886 6.8417 13.4086L10.2217 11.9986C10.6717 11.8086 10.9117 12.0586 10.9817 12.3886L12.6417 21.5886L8.0117 23.4386C7.4617 23.6586 7.1817 24.2886 7.4017 24.8486C7.6617 25.4886 8.2817 25.6586 8.8217 25.4486L14.2717 23.2686C14.7517 23.0886 14.9917 22.6186 14.9617 22.1186L14.6617 17.8786C14.6417 17.3986 15.1417 17.1586 15.5017 17.3886L18.7817 19.5786V24.4586C18.7817 25.0486 19.2617 25.5486 19.8717 25.5486C20.4717 25.5486 20.9617 25.0486 20.9617 24.4586V19.0086C20.9617 18.6186 20.7617 18.3186 20.4717 18.0786L16.2417 14.5986L15.4117 10.0486C15.3117 9.5986 15.3717 9.1486 15.6217 8.6786L19.1717 1.5786C19.4417 1.0386 19.2217 0.3886 18.6817 0.1186C18.1417 -0.1514 17.4817 0.0686 17.2117 0.5986L13.7217 7.5886C13.4617 8.1086 13.1117 8.4086 12.5817 8.6386L6.4217 11.2086L3.9217 9.2086C3.5517 8.9086 3.0517 8.9086 2.7517 9.0886V6.3586C4.0517 5.7786 4.9317 4.3086 4.9317 3.0686C4.9317 1.6886 3.8417 0.5986 2.4717 0.5986ZM2.4717 1.1786C3.5117 1.1786 4.3517 1.9986 4.3517 3.0686C4.3517 4.1386 3.6717 5.3486 2.4717 5.8286C1.2817 5.3486 0.5817 4.1386 0.5817 3.0686C0.5817 1.9986 1.4017 1.1786 2.4717 1.1786ZM10.1117 7.9286C11.4017 7.9286 12.4717 6.8786 12.4717 5.5886C12.4717 4.2886 11.4017 3.2286 10.1117 3.2286C8.8217 3.2286 7.7617 4.2886 7.7617 5.5886C7.7617 6.8786 8.8217 7.9286 10.1117 7.9286Z" />
        </svg>
    