
        <svg xmlns="http://www.w3.org/2000/svg" viewBox="0 0 100 100">
            <path d="M9.1634 5.9225C10.7934 5.9225 12.1234 4.5825 12.1234 2.9525C12.1234 1.3225 10.7934 0.0025 9.1634 0.0025C7.5334 0.0025 6.2034 1.3225 6.2034 2.9525C6.2034 4.5825 7.5334 5.9225 9.1634 5.9225ZM14.8634 30.5025C15.7234 30.5025 16.3934 29.8125 16.3934 28.9525V21.9225C16.3934 21.5425 16.2234 21.0225 15.7234 20.6925L11.3234 17.7625V10.5125C11.3234 10.3025 11.4234 10.2025 11.6234 10.2025H21.2034C22.0634 10.2025 22.7434 9.5025 22.7434 8.6525C22.7434 7.8125 22.0634 7.1125 21.2034 7.1125H7.1934C5.9034 7.1125 5.1734 7.6025 4.5334 8.3925L1.2234 12.4525C0.2934 13.6025 1.0534 15.2825 2.3334 15.2825H5.6934V16.7425C5.6934 18.0125 6.4034 19.1925 7.5234 19.7925L13.3134 22.9125V28.9525C13.3134 29.8125 14.0034 30.5025 14.8634 30.5025ZM4.9734 12.4125L5.9034 11.2425V12.4125ZM0.3734 29.9725C0.9534 30.6325 1.9234 30.6825 2.5634 30.1025L7.5534 25.7425C7.8134 25.5225 7.9434 25.3725 8.0634 25.0925L9.1634 22.3525L6.8334 21.0925C6.6034 20.9625 6.3734 20.7425 6.1534 20.4625L5.2634 23.6625L0.5134 27.7925C-0.1166 28.3525 -0.1766 29.3525 0.3734 29.9725Z" />
        </svg>
    