
        <svg xmlns="http://www.w3.org/2000/svg" viewBox="0 0 100 100">
            <path d="M6.9896 5.2694C8.4396 5.2694 9.6196 4.0794 9.6196 2.6394C9.6196 1.1994 8.4396 -0.0006 6.9896 -0.0006C5.5396 -0.0006 4.3596 1.1994 4.3596 2.6394C4.3596 4.0794 5.5396 5.2694 6.9896 5.2694ZM8.7796 23.3994C9.3396 23.4894 9.9496 23.2194 10.1696 22.4794L11.7796 17.1294C11.9996 16.3594 11.6796 15.7194 10.9596 15.4594L6.8496 13.9694L7.4596 9.7494C7.4896 9.5394 7.6596 9.4694 7.8596 9.5594L9.9196 10.4994C10.2096 10.6294 10.4296 10.6594 10.7896 10.6994L16.0196 11.2294C16.7196 11.3094 17.3296 10.8194 17.3796 10.1394C17.4396 9.4694 16.9396 8.8594 16.2796 8.7894L10.9396 8.2594L6.9096 6.4194C5.1496 5.6294 3.3296 6.4994 3.0896 8.2694L2.4396 13.3194C2.2396 14.8194 3.1696 16.1994 4.6396 16.5394L9.0896 17.5694L7.7996 21.7694C7.5296 22.6794 8.1196 23.2894 8.7796 23.3994ZM19.5896 7.5694C19.3996 7.1794 18.9696 7.0294 18.5796 7.2194C18.0596 7.4694 17.6696 7.6794 17.2696 7.8794C17.7596 8.1294 18.1396 8.5294 18.3496 9.0194C18.6096 8.8994 18.8696 8.7494 19.2496 8.5594C19.6196 8.3594 19.7696 7.9194 19.5896 7.5694ZM3.4996 29.3094H7.9196C8.3296 29.3094 8.6596 28.9794 8.6596 28.5694V26.5294H12.3396C12.7396 26.5294 13.0796 26.1894 13.0796 25.7694V23.7294H15.3596C15.7596 23.7294 16.0896 23.4094 16.0996 22.9994L16.5196 12.2894C16.3296 12.3094 16.2796 12.3094 16.1696 12.3094C15.7796 12.3294 15.3896 12.2794 15.0296 12.2294L14.6396 22.2294H12.3396C11.8996 22.2294 11.5896 22.5494 11.5896 22.9794V25.0294H7.9196C7.4996 25.0294 7.1696 25.3594 7.1696 25.7694V27.8294H3.4996C3.0896 27.8294 2.7496 28.1694 2.7496 28.5694C2.7496 28.9694 3.0996 29.3094 3.4996 29.3094ZM0.5996 27.1294C1.1196 27.3994 1.8396 27.3294 2.3196 26.6394L5.5196 21.8394C5.6596 21.6494 5.7396 21.4094 5.7896 21.1194L6.2696 18.1394L4.3896 17.7194C4.0996 17.6494 3.8096 17.5594 3.5396 17.4294L3.3096 20.7194L0.2796 25.2694C-0.2604 26.0694 0.0596 26.8094 0.5996 27.1294Z" />
        </svg>
    