
        <svg xmlns="http://www.w3.org/2000/svg" viewBox="0 0 100 100">
            <path d="M11.7517 23.5048C18.2417 23.5048 23.5117 18.2448 23.5117 11.7548C23.5117 5.2648 18.2417 0.0048 11.7517 0.0048C5.2617 0.0048 0.0017 5.2648 0.0017 11.7548C0.0017 18.2448 5.2617 23.5048 11.7517 23.5048ZM11.7517 21.9848C6.0917 21.9848 1.5217 17.4148 1.5217 11.7548C1.5217 6.0948 6.0917 1.5148 11.7517 1.5148C17.4117 1.5148 21.9917 6.0948 21.9917 11.7548C21.9917 17.4148 17.4117 21.9848 11.7517 21.9848ZM12.6317 6.7248C13.4217 6.7248 14.0517 6.0948 14.0517 5.3048C14.0517 4.5348 13.4217 3.9048 12.6317 3.9048C11.8617 3.9048 11.2117 4.5348 11.2117 5.3048C11.2117 6.0948 11.8617 6.7248 12.6317 6.7248ZM11.4617 13.3748V16.0048C11.4617 16.2748 11.6217 16.4048 11.8917 16.4048H13.6917C14.1717 16.4048 14.1717 15.7748 13.7817 15.6448L12.7817 15.3248V12.7648C12.7817 12.4848 12.6017 12.2548 12.3417 12.1248L10.5317 11.3048L11.0617 10.2548L13.6517 12.6548V12.7648C13.6517 13.1248 13.9317 13.4048 14.2817 13.4048C14.3417 13.4048 14.3917 13.3948 14.4217 13.3948L17.1917 15.9448C17.3217 16.0848 17.4117 16.1048 17.5617 16.1048H19.4417C19.6217 16.1048 19.7617 15.9648 19.7617 15.7948V15.4648C19.7617 15.2948 19.6217 15.1448 19.4417 15.1448H17.2817L14.9017 12.9648C14.9317 12.9048 14.9417 12.8348 14.9417 12.7648V9.9048C14.9417 9.6548 14.8717 9.5348 14.6517 9.3648L11.8317 7.2548C11.2417 6.7948 10.5017 6.6948 9.7817 6.9848L7.7117 7.8248C7.0917 8.0848 7.1817 8.7648 7.6917 9.0348L8.4717 9.4448L8.0417 10.3148C7.4617 11.4648 7.9017 12.4848 9.0917 12.7748ZM11.5917 9.2248C11.6417 9.1048 11.7617 9.0548 11.8717 9.1448L13.6517 10.3048V11.8048L11.3517 9.6948ZM8.0317 12.8648L7.6917 13.8848H5.4517C5.1917 13.8848 5.0517 14.0248 5.0517 14.2948V16.1048C5.0517 16.5748 5.6917 16.5748 5.8217 16.1948L6.1317 15.1948H8.1917C8.4517 15.1948 8.6617 15.0348 8.7617 14.8348L9.4717 13.4448L8.9617 13.3148C8.5917 13.2148 8.2617 13.0548 8.0317 12.8648ZM4.0817 14.0348V16.6048C4.0817 16.7548 4.1917 16.8748 4.3517 16.8748C4.4717 16.8748 4.6017 16.7648 4.6017 16.6048V14.0348C4.6017 13.8948 4.4717 13.7848 4.3517 13.7848C4.1917 13.7848 4.0817 13.8948 4.0817 14.0348ZM11.6217 17.3748H14.1917C14.3417 17.3748 14.4617 17.2648 14.4617 17.1248C14.4617 16.9848 14.3517 16.8548 14.1917 16.8548H11.6217C11.4817 16.8548 11.3717 16.9848 11.3717 17.1248C11.3717 17.2648 11.4817 17.3748 11.6217 17.3748ZM15.6117 17.9048C15.6117 18.1848 16.0617 18.3948 16.6517 18.3948C17.2417 18.3948 17.7117 18.1848 17.7117 17.9048V17.3448C17.7117 17.0748 17.2417 16.8648 16.6517 16.8648C16.0617 16.8648 15.6117 17.0748 15.6117 17.3448Z" />
        </svg>
    