
        <svg xmlns="http://www.w3.org/2000/svg" viewBox="0 0 100 100">
            <path d="M11.3523 22.7064C17.6023 22.7064 22.7123 17.6064 22.7123 11.3564C22.7123 5.1064 17.6023 -0.0036 11.3523 -0.0036C5.1123 -0.0036 0.0023 5.1064 0.0023 11.3564C0.0023 17.6064 5.1123 22.7064 11.3523 22.7064ZM10.5323 19.0264C10.2223 18.8664 10.0923 18.4664 10.2523 18.1564L11.6523 15.3864L9.2723 13.6364C8.1023 12.7764 8.3623 11.2464 9.5023 10.6864L10.8523 10.0264C10.8823 10.0064 10.8623 9.9464 10.8123 9.9464H9.5423C9.3523 9.9464 9.1923 9.8764 9.0723 9.7664L7.1023 7.7964C6.8323 7.5264 6.8623 7.1464 7.0623 6.9364L8.1023 5.8864C8.2823 5.0964 8.5323 4.0564 9.0623 3.5464C9.9523 2.6264 10.5223 2.6364 11.1223 3.1864C11.7323 3.7464 11.6923 4.3664 10.7623 5.2664C10.2623 5.7864 9.1923 6.0564 8.4223 6.1964L7.9023 6.7264L9.7823 8.6464H12.3123C12.6323 8.6464 12.8623 8.7664 13.0923 8.9864L18.1623 14.0464C18.4223 14.3064 18.4023 14.7264 18.1623 14.9764C17.9223 15.2264 17.5223 15.2464 17.2523 14.9764L13.8123 11.5464C13.7223 11.4464 13.5823 11.4364 13.4523 11.4964L10.9523 12.7464L12.8923 14.6764C13.1723 14.9564 13.1523 15.2664 13.0223 15.5364L11.4223 18.7364C11.2423 19.0764 10.8423 19.1764 10.5323 19.0264ZM10.8123 3.4964C10.4023 3.1064 10.0323 3.2264 9.3623 3.8564C8.9323 4.2964 8.7523 5.1564 8.6023 5.7264C9.1323 5.5564 9.9923 5.3864 10.4623 4.9564C11.1023 4.2864 11.2123 3.9064 10.8123 3.4964ZM15.0323 9.1964C14.2623 9.1964 13.6123 8.5564 13.6123 7.7664C13.6123 6.9964 14.2623 6.3764 15.0323 6.3764C15.8223 6.3764 16.4423 6.9964 16.4423 7.7664C16.4423 8.5564 15.8223 9.1964 15.0323 9.1964ZM4.3023 15.8164C4.3023 15.4764 4.6023 15.1664 4.9523 15.1664H7.7423L8.3623 13.3264C8.4123 13.4964 8.6123 13.7064 9.0023 13.9964L9.6423 14.4564L8.8523 16.0464C8.7323 16.2764 8.5123 16.4764 8.2223 16.4764H4.9523C4.6023 16.4764 4.3023 16.1964 4.3023 15.8164Z" />
        </svg>
    