
        <svg xmlns="http://www.w3.org/2000/svg" viewBox="0 0 100 100">
            <path d="M9.3447 21.364C9.8547 21.714 10.5947 21.614 10.9647 21.094L13.6547 17.334L16.1947 17.774L13.7047 21.504C13.3347 22.044 13.4647 22.804 14.0147 23.124C14.6847 23.524 15.3147 23.304 15.6447 22.804L19.0347 17.704C19.4747 17.024 19.2547 15.974 18.2747 15.744L13.5947 14.614C13.1547 14.504 12.9747 14.124 13.2447 13.714L15.2047 10.774C15.3547 10.564 15.6047 10.514 15.8247 10.654L18.6847 12.624C18.8247 12.714 18.9647 12.774 19.1447 12.814L25.5547 13.984C26.1147 14.094 26.7947 13.714 26.9047 13.034C27.0047 12.414 26.5947 11.804 25.9747 11.684L19.8047 10.564L10.3047 4.074L13.0247 2.124C13.5647 1.734 13.6647 1.014 13.3047 0.494C12.9147 -0.036 12.1947 -0.156 11.6747 0.214L7.5947 3.134C6.9147 3.614 6.9147 4.574 7.6047 5.054L11.0747 7.434C11.2747 7.574 11.3247 7.834 11.1947 8.024L8.2847 12.234C7.0847 13.994 7.8347 16.374 10.2147 16.774L11.0747 16.914L9.0747 19.724C8.6847 20.254 8.8047 20.994 9.3447 21.364ZM17.0447 6.674C18.4147 6.674 19.5347 5.544 19.5347 4.184C19.5347 2.814 18.4147 1.694 17.0447 1.694C15.6747 1.694 14.5447 2.814 14.5447 4.184C14.5447 5.544 15.6747 6.674 17.0447 6.674ZM0.8247 22.434C1.7747 22.434 3.0547 22.134 4.1447 21.454C9.6347 24.844 17.2447 27.394 24.9547 27.394C25.2447 27.394 25.4747 27.154 25.4747 26.864C25.4747 26.554 25.2447 26.324 24.9547 26.324C15.4147 26.324 6.0947 22.384 0.9047 17.744C0.6547 17.534 0.3747 17.554 0.1947 17.714C-0.0453 17.924 -0.0953 18.294 0.2147 18.554C0.8347 19.114 1.5247 19.664 2.2747 20.204C1.8047 20.744 1.3347 21.074 0.6247 21.414C0.3347 21.564 0.2247 21.814 0.2947 22.054C0.3347 22.274 0.5347 22.434 0.8247 22.434Z" />
        </svg>
    