
        <svg xmlns="http://www.w3.org/2000/svg" viewBox="0 0 100 100">
            <path d="M9.3139 5.9181C10.9439 5.9181 12.2839 4.5981 12.2839 2.9681C12.2839 1.3381 10.9439 -0.0019 9.3139 -0.0019C7.6939 -0.0019 6.3539 1.3381 6.3539 2.9681C6.3539 4.5981 7.6939 5.9181 9.3139 5.9181ZM11.8339 28.3981C12.7839 30.2881 15.6239 29.1081 14.6139 27.0481L11.9439 21.6181C11.7439 21.2081 11.4739 20.7981 11.1739 20.3581L9.5539 18.0581L9.6239 17.8281C10.0139 16.3981 10.2539 15.5781 10.3539 14.2381L10.6239 10.4181C10.7439 8.4281 9.5439 6.9981 7.6039 6.9981C6.1439 6.9981 5.1339 7.7681 3.8539 9.0281L1.8339 10.9881C1.1639 11.6281 0.9039 12.2181 0.8339 13.1681L0.5839 16.2781C0.5039 17.1881 1.0639 17.8581 1.9039 17.8781C2.7839 17.9481 3.3339 17.3981 3.4039 16.4481L3.6939 13.1381L4.4239 12.4781C4.6439 12.2881 4.9839 12.3981 4.9439 12.7281L4.7639 15.2781C4.6539 16.6881 4.9439 17.4681 6.0539 18.8481L8.6939 22.1881C8.9439 22.4781 8.9739 22.5681 9.0939 22.8281ZM16.6039 12.1381H13.6939L12.0839 10.3981L11.8339 14.1481L12.0539 14.3481C12.5539 14.7781 12.9539 14.9681 13.7939 14.9681H16.6039C17.5439 14.9681 18.1639 14.3981 18.1639 13.5481C18.1639 12.7181 17.5339 12.1381 16.6039 12.1381ZM2.6039 28.8281L6.5539 24.1281C6.9739 23.6281 7.0339 23.4881 7.2139 23.0181L7.3039 22.7681L4.8539 19.6881L4.3039 22.2381L0.4639 26.8281C-1.0061 28.5481 1.3939 30.2681 2.6039 28.8281Z" />
        </svg>
    