
        <svg xmlns="http://www.w3.org/2000/svg" viewBox="0 0 100 100">
            <path d="M17.1517 5.5216C18.6817 5.5216 19.9117 4.2916 19.9117 2.7516C19.9117 1.2316 18.6817 0.0016 17.1517 0.0016C15.6317 0.0016 14.3917 1.2316 14.3917 2.7516C14.3917 4.2916 15.6317 5.5216 17.1517 5.5216ZM8.8717 27.2916C9.6317 27.2916 10.2617 26.6716 10.2617 25.9016V14.6816C13.0217 14.2116 15.3917 12.3716 16.5317 9.8816C16.6217 9.6716 16.8017 9.6016 17.2417 9.7416L23.3417 11.8016C24.2817 12.1216 24.9217 11.5816 25.1417 10.9316C25.3517 10.2816 25.1017 9.4616 24.2317 9.1616L5.9317 3.0716C5.0017 2.7516 4.3317 3.2816 4.1517 3.9216C3.9217 4.5816 4.1817 5.4016 5.0517 5.6816L11.6417 7.8916C11.8717 7.9716 11.9717 8.2116 11.8117 8.4716C11.1317 9.5516 10.1617 10.1716 8.8717 10.1716H2.7817V4.0316C2.7817 3.2216 2.2117 2.6616 1.3817 2.6616C0.5517 2.6616 0.0017 3.2216 0.0017 4.0316V11.4516C0.0017 12.3416 0.4617 12.7816 1.1617 12.9016L6.5817 13.8016L7.4917 19.1516V25.9016C7.4917 26.6716 8.1117 27.2916 8.8717 27.2916Z" />
        </svg>
    