
        <svg xmlns="http://www.w3.org/2000/svg" viewBox="0 0 100 100">
            <path d="M4.7917 3.0627C5.6117 3.0627 6.3117 2.3827 6.3117 1.5227C6.3117 0.6827 5.6117 0.0027 4.7917 0.0027C3.9117 0.0027 3.2617 0.6827 3.2617 1.5227C3.2617 2.3827 3.9117 3.0627 4.7917 3.0627ZM2.1317 26.1027L9.2617 27.8927C10.3017 28.1527 11.0017 27.3727 10.8617 26.4127L10.2117 21.9227H15.7717L20.1517 26.3827C20.6417 26.8627 21.4317 26.8627 21.9217 26.3827C22.4417 25.9127 22.4217 25.0927 21.9217 24.6027L17.2717 19.9227C16.9417 19.5927 16.7917 19.5027 16.2617 19.4427L11.1817 18.9227L9.9017 15.0727C9.8217 14.8127 9.9917 14.5827 10.2617 14.6327L19.5917 16.5127C20.2117 16.6327 20.9317 16.2927 21.0617 15.5227C21.1617 14.8427 20.7617 14.2027 20.0817 14.0627L7.1817 11.4927C6.0517 11.2727 5.4617 11.1127 4.9717 10.6327L2.4917 8.1727V2.6827C2.4917 1.9927 1.9317 1.4427 1.2617 1.4427C0.5417 1.4427 0.0017 1.9927 0.0017 2.6827V8.4927C0.0017 8.9927 0.0617 9.2927 0.4317 9.6527L3.2017 12.4227C3.7617 12.9927 3.8317 13.1827 4.0317 13.7627L7.7317 24.9327L2.7417 23.6727C2.0717 23.4927 1.3917 23.9227 1.2417 24.6027C1.0917 25.2527 1.4717 25.9327 2.1317 26.1027ZM8.4917 10.4727C9.9617 10.4727 11.1317 9.2927 11.1317 7.8427C11.1317 6.3827 9.9617 5.2127 8.4917 5.2127C7.0417 5.2127 5.8717 6.3827 5.8717 7.8427C5.8717 9.2927 7.0417 10.4727 8.4917 10.4727Z" />
        </svg>
    