
        <svg xmlns="http://www.w3.org/2000/svg" viewBox="0 0 100 100">
            <path d="M12.6023 25.1986C19.5623 25.1986 25.2023 19.5586 25.2023 12.5986C25.2023 5.6386 19.5623 -0.0014 12.6023 -0.0014C5.6523 -0.0014 0.0023 5.6386 0.0023 12.5986C0.0023 19.5586 5.6523 25.1986 12.6023 25.1986ZM15.2623 7.6686C14.4623 7.6686 13.8123 7.0086 13.8123 6.2186C13.8123 5.4286 14.4623 4.7786 15.2623 4.7786C16.0423 4.7786 16.6923 5.4286 16.6923 6.2186C16.6923 7.0086 16.0423 7.6686 15.2623 7.6686ZM18.0823 16.4186C17.7923 16.4186 17.5623 16.1786 17.5623 15.8886V10.5386H14.8923C14.7023 10.5386 14.5223 10.4486 14.3923 10.3286L13.3823 9.3086C13.3123 9.2486 13.2423 9.2486 13.1823 9.3086L11.7923 10.6886L13.3523 12.2586C13.4923 12.3986 13.5723 12.5786 13.5723 12.7586V15.7286C13.5723 15.8686 13.5223 15.9986 13.4623 16.0986L16.0323 18.6686C16.3223 18.9586 16.4523 19.0386 16.8123 19.0386C17.1023 19.0386 17.3423 19.2886 17.3423 19.5686C17.3423 19.8586 17.1023 20.0886 16.8123 20.0886C16.2923 20.0886 15.7923 19.9286 15.4023 19.5386L11.7923 15.9186L11.7823 16.0286C11.7523 16.1586 11.6723 16.2886 11.5923 16.3686L14.3223 19.0986C14.6123 19.4086 14.7523 19.4786 15.0023 19.4786C15.2823 19.4786 15.5123 19.7086 15.5123 20.0186C15.5123 20.3086 15.2823 20.5386 14.9523 20.5386C14.4723 20.5386 14.0723 20.3486 13.6923 19.9686L7.0323 13.2886C6.8223 13.0886 6.8123 12.7586 7.0323 12.5486C7.2323 12.3386 7.5423 12.3486 7.7723 12.5586L10.3323 15.1186V14.4586L8.7323 12.8486C8.5323 12.6486 8.5223 12.3086 8.7323 12.1086C8.9323 11.8986 9.2723 11.9086 9.4723 12.1086L10.3323 12.9686V12.4686L9.2723 11.4186C8.7823 10.9486 8.6723 10.1286 9.0923 9.5886L9.1423 9.5286H5.4523C5.1723 9.5286 4.9323 9.2886 4.9323 9.0086C4.9323 8.7286 5.1723 8.4886 5.4523 8.4886H9.8623L9.0623 7.6786C8.6023 7.2086 8.8223 6.4086 9.5523 6.4086H11.8723C12.2923 6.4086 12.7123 6.6086 13.0223 6.8986L15.2023 9.0686H17.8723C18.2723 9.0686 18.6023 9.3986 18.6023 9.7986V15.8886C18.6023 16.1786 18.3723 16.4186 18.0823 16.4186ZM11.8023 14.4386L12.0923 14.7286V13.0786L11.8023 12.7586Z" />
        </svg>
    