
        <svg xmlns="http://www.w3.org/2000/svg" viewBox="0 0 100 100">
            <path d="M7.2871 5.4491C8.7871 5.4491 9.9871 4.1991 9.9871 2.7391C9.9871 1.2291 8.7871 -0.0009 7.2871 -0.0009C5.7771 -0.0009 4.5771 1.2291 4.5771 2.7391C4.5771 4.2191 5.7771 5.4491 7.2871 5.4491ZM24.0971 3.4991H28.9271C29.3071 3.4991 29.3771 3.1091 29.0971 2.9091L26.9571 1.4391C26.6671 1.2391 26.3771 1.2391 26.0771 1.4391L23.9371 2.9091C23.6571 3.1091 23.7171 3.4991 24.0971 3.4991ZM11.4571 7.8391L13.7371 5.2991C14.1771 4.8091 14.1471 4.2691 13.7171 3.9091C13.3071 3.5591 12.8071 3.5491 12.3571 4.0691L9.7671 6.9691C10.3871 7.1991 10.9671 7.4891 11.4571 7.8391ZM21.4371 6.2891V8.9091C21.4371 9.6191 21.9671 10.1591 22.6871 10.1591H24.6971C25.4371 10.1591 25.9771 9.6191 25.9771 8.9091V6.2891C25.9771 5.5791 25.4371 5.0391 24.6971 5.0391H22.6871C21.9671 5.0391 21.4371 5.5791 21.4371 6.2891ZM27.2271 6.2891V8.9091C27.2271 9.6191 27.7571 10.1591 28.4871 10.1591H30.4871C31.2271 10.1591 31.7671 9.6191 31.7671 8.9091V6.2891C31.7671 5.5791 31.2271 5.0391 30.4871 5.0391H28.4871C27.7571 5.0391 27.2271 5.5791 27.2271 6.2891ZM23.7171 8.8491C23.0271 8.8491 22.4371 8.2891 22.4371 7.5691C22.4371 6.8991 23.0271 6.3391 23.7171 6.3391C24.3971 6.3391 24.9671 6.8991 24.9671 7.5691C24.9671 8.2891 24.3971 8.8491 23.7171 8.8491ZM29.5071 8.8491C28.8271 8.8491 28.2371 8.2891 28.2371 7.5691C28.2371 6.8991 28.8271 6.3391 29.5071 6.3391C30.1871 6.3391 30.7671 6.8991 30.7671 7.5691C30.7671 8.2891 30.1871 8.8491 29.5071 8.8491ZM2.0571 15.5191L9.7671 6.9691C9.0271 6.6991 8.2071 6.5791 7.2871 6.5791C3.7771 6.5791 1.7171 8.2591 1.7171 11.0891C1.7171 11.7691 1.7371 12.6791 1.8471 13.6091ZM12.4971 15.5191L12.7071 13.6091C12.8171 12.6791 12.8671 11.7691 12.8671 11.0891C12.8671 9.7191 12.3671 8.6091 11.4571 7.8391L5.4171 14.5591C6.0571 14.4591 6.6771 14.4291 7.2871 14.4291C9.0071 14.4291 10.7371 14.6591 12.4971 15.5191ZM18.4571 13.2691V15.8691C18.4571 16.5791 18.9871 17.1191 19.7171 17.1191H21.7071C22.4471 17.1191 22.9871 16.5791 22.9871 15.8691V13.2691C22.9871 12.5391 22.4471 11.9991 21.7071 11.9991H19.7171C18.9871 11.9991 18.4571 12.5391 18.4571 13.2691ZM24.2371 13.2691V15.8691C24.2371 16.5791 24.7771 17.1191 25.5071 17.1191H27.5071C28.2571 17.1191 28.7771 16.5791 28.7771 15.8691V13.2691C28.7771 12.5391 28.2571 11.9991 27.5071 11.9991H25.5071C24.7771 11.9991 24.2371 12.5391 24.2371 13.2691ZM30.0471 13.2691V15.8691C30.0471 16.5791 30.5771 17.1191 31.3071 17.1191H33.3071C34.0471 17.1191 34.5771 16.5791 34.5771 15.8691V13.2691C34.5771 12.5391 34.0471 11.9991 33.3071 11.9991H31.3071C30.5771 11.9991 30.0471 12.5391 30.0471 13.2691ZM20.7271 15.8091C20.0471 15.8091 19.4571 15.2491 19.4571 14.5391C19.4571 13.8791 20.0471 13.2991 20.7271 13.2991C21.4071 13.2991 21.9871 13.8791 21.9871 14.5391C21.9871 15.2491 21.4071 15.8091 20.7271 15.8091ZM26.5271 15.8091C25.8371 15.8091 25.2471 15.2491 25.2471 14.5391C25.2471 13.8791 25.8371 13.2991 26.5271 13.2991C27.1971 13.2991 27.7771 13.8791 27.7771 14.5391C27.7771 15.2491 27.1971 15.8091 26.5271 15.8091ZM32.3171 15.8091C31.6271 15.8091 31.0371 15.2491 31.0371 14.5391C31.0371 13.8791 31.6271 13.2991 32.3171 13.2991C32.9971 13.2991 33.5671 13.8791 33.5671 14.5391C33.5671 15.2491 32.9971 15.8091 32.3171 15.8091ZM0.4671 16.4791C-0.0729 16.8591 -0.1029 17.4391 0.1571 17.8091C0.3971 18.1791 0.8871 18.3391 1.3971 18.0191C1.6971 17.8291 1.9671 17.6491 2.2671 17.4891L2.0571 15.5191C1.4871 15.7891 0.9571 16.0891 0.4671 16.4791ZM4.3571 24.6091C5.0971 24.4991 5.5971 23.9791 5.4871 23.0391L5.0071 18.5891H9.5471L9.0671 23.0391C8.9671 23.9791 9.4671 24.4991 10.2171 24.6091C10.9871 24.6791 11.5571 24.2091 11.6771 23.2991L12.2971 17.4891C12.5971 17.6491 12.8771 17.8291 13.1571 18.0191C13.6671 18.3391 14.1471 18.1891 14.3971 17.8291C14.6571 17.4591 14.6571 16.8791 14.1071 16.4791C13.5971 16.0891 13.0771 15.7891 12.4971 15.5191L12.2871 17.4891C10.7071 16.5691 8.9571 16.2191 7.2871 16.2191C5.6071 16.2191 3.8371 16.5691 2.2671 17.4891L2.8871 23.2991C2.9971 24.2091 3.5671 24.6791 4.3571 24.6091ZM21.4371 20.2291V22.8291C21.4371 23.5591 21.9671 24.0791 22.6871 24.0791H24.6971C25.4371 24.0791 25.9771 23.5591 25.9771 22.8291V20.2291C25.9771 19.4991 25.4371 18.9591 24.6971 18.9591H22.6871C21.9671 18.9591 21.4371 19.4991 21.4371 20.2291ZM27.2271 20.2291V22.8291C27.2271 23.5591 27.7571 24.0791 28.4871 24.0791H30.4871C31.2271 24.0791 31.7671 23.5591 31.7671 22.8291V20.2291C31.7671 19.4991 31.2271 18.9591 30.4871 18.9591H28.4871C27.7571 18.9591 27.2271 19.4991 27.2271 20.2291ZM23.7171 22.7791C23.0271 22.7791 22.4371 22.2091 22.4371 21.4991C22.4371 20.8391 23.0271 20.2691 23.7171 20.2691C24.3971 20.2691 24.9671 20.8391 24.9671 21.4991C24.9671 22.2091 24.3971 22.7791 23.7171 22.7791ZM29.5071 22.7791C28.8271 22.7791 28.2371 22.2091 28.2371 21.4991C28.2371 20.8391 28.8271 20.2691 29.5071 20.2691C30.1871 20.2691 30.7671 20.8391 30.7671 21.4991C30.7671 22.2091 30.1871 22.7791 29.5071 22.7791Z" />
        </svg>
    