
        <svg xmlns="http://www.w3.org/2000/svg" viewBox="0 0 100 100">
            <path d="M12.6023 25.1986C19.5623 25.1986 25.2023 19.5586 25.2023 12.5986C25.2023 5.6386 19.5623 -0.0014 12.6023 -0.0014C5.6523 -0.0014 0.0023 5.6386 0.0023 12.5986C0.0023 19.5586 5.6523 25.1986 12.6023 25.1986ZM12.5623 8.4886C11.6323 8.4886 10.9023 7.7586 10.9023 6.8286C10.9023 5.9086 11.6323 5.1586 12.5623 5.1586C13.4723 5.1586 14.2123 5.9086 14.2123 6.8286C14.2123 7.7586 13.4723 8.4886 12.5623 8.4886ZM12.5523 14.3786C12.3123 14.3786 12.1523 14.5086 12.0923 14.7586L10.9723 19.0686C10.7323 20.0486 9.3723 19.7086 9.5123 18.7586C9.5723 18.4186 10.5423 14.7786 10.6923 13.9486C10.7823 13.3386 10.7323 11.7786 10.7323 11.1786C10.7323 10.9586 10.5623 10.8386 10.3323 10.9286L8.4623 11.6786C7.9723 11.8786 7.6023 11.6586 7.4923 11.3286C7.3623 11.0086 7.4923 10.5586 7.9923 10.3586L10.0523 9.4886C10.4923 9.3286 10.8723 9.2086 11.3123 9.1686C11.6823 9.3586 12.1023 9.4586 12.5523 9.4586C12.9923 9.4586 13.4323 9.3586 13.8023 9.1686C14.2423 9.2086 14.6223 9.3286 15.0623 9.4886L17.1123 10.3586C17.6223 10.5586 17.7523 11.0086 17.6223 11.3286C17.5123 11.6586 17.1423 11.8786 16.6523 11.6786L14.7823 10.9286C14.5523 10.8386 14.3823 10.9586 14.3823 11.1786C14.3823 11.7786 14.3323 13.3386 14.4223 13.9486C14.5623 14.7786 15.5423 18.4186 15.5823 18.7586C15.7423 19.7086 14.3823 20.0486 14.1323 19.0686L13.0223 14.7586C12.9523 14.5086 12.7823 14.3786 12.5523 14.3786Z" />
        </svg>
    