
        <svg xmlns="http://www.w3.org/2000/svg" viewBox="0 0 100 100">
            <path d="M11.7523 23.5048C18.2323 23.5048 23.5123 18.2348 23.5123 11.7548C23.5123 5.2748 18.2323 0.0048 11.7523 0.0048C5.2723 0.0048 0.0023 5.2748 0.0023 11.7548C0.0023 18.2348 5.2723 23.5048 11.7523 23.5048ZM10.5623 6.3748C9.7623 6.3748 9.1123 5.7148 9.1123 4.9348C9.1123 4.1348 9.7623 3.4948 10.5623 3.4948C11.3423 3.4948 12.0023 4.1348 12.0023 4.9348C12.0023 5.7148 11.3423 6.3748 10.5623 6.3748ZM9.2423 12.6248C8.4423 12.4348 7.9423 11.6848 8.0523 10.8648L8.4123 8.0548C8.5323 7.0848 9.5423 6.5948 10.5023 7.0348L12.7423 8.0648L15.7123 8.3548C16.0823 8.3948 16.3523 8.7148 16.3123 9.0748C16.2923 9.4348 15.9623 9.7048 15.5823 9.6548L12.6723 9.3648C12.4823 9.3548 12.3523 9.3248 12.2023 9.2548L11.0423 8.7348C10.9223 8.6648 10.8023 8.7048 10.7823 8.8448L10.4423 11.2248L12.7623 12.0548C13.1523 12.2148 13.3123 12.5548 13.1823 12.9748L12.2923 15.9448C12.1723 16.3548 11.8223 16.5048 11.5123 16.4248C11.1823 16.3548 10.9023 16.0348 11.0423 15.5648L11.7523 13.1948ZM17.5223 7.6848C17.6023 7.8348 17.5423 8.0348 17.3423 8.1448C17.1223 8.2548 16.9123 8.4048 16.7323 8.4948C16.6123 8.2648 16.4523 8.0748 16.2223 7.9548C16.4423 7.8248 16.7423 7.6548 17.0523 7.5148C17.2223 7.4248 17.4423 7.4848 17.5223 7.6848ZM8.6023 19.7848C8.4123 19.7848 8.2423 19.6248 8.2423 19.4248C8.2423 19.2448 8.4123 19.0748 8.6023 19.0748H10.6923V17.8348C10.6923 17.6448 10.8623 17.4848 11.0423 17.4848H13.1323V16.2548C13.1323 16.0448 13.3023 15.9048 13.4723 15.9048H15.1023L15.3323 10.1448C15.8223 10.1848 15.9123 10.1448 16.0323 10.1048L15.7923 16.2548C15.7823 16.4448 15.6223 16.6048 15.4423 16.6048H13.8423V17.8348C13.8423 18.0348 13.6723 18.1848 13.4723 18.1848H11.3923V19.4248C11.3923 19.6148 11.2223 19.7848 11.0423 19.7848ZM7.0123 18.5248C6.7123 18.3648 6.5423 17.9648 6.8423 17.5348L8.5323 14.9848L8.6623 12.9748C8.7523 13.0148 8.9023 13.0848 9.1323 13.1448L10.1523 13.3748L9.8523 15.1848C9.8223 15.3548 9.7823 15.4648 9.7123 15.5848L7.9223 18.2548C7.6723 18.6248 7.2923 18.6748 7.0123 18.5248Z" />
        </svg>
    