
        <svg xmlns="http://www.w3.org/2000/svg" viewBox="0 0 100 100">
            <path d="M11.9523 23.9041C18.5523 23.9041 23.9023 18.5341 23.9023 11.9541C23.9023 5.3541 18.5523 0.0041 11.9523 0.0041C5.3623 0.0041 0.0023 5.3541 0.0023 11.9541C0.0023 18.5341 5.3623 23.9041 11.9523 23.9041ZM8.6023 7.4341C7.7923 7.4341 7.1323 6.7841 7.1323 5.9641C7.1323 5.1641 7.7923 4.5141 8.6023 4.5141C9.4023 4.5141 10.0623 5.1641 10.0623 5.9641C10.0623 6.7841 9.4023 7.4341 8.6023 7.4341ZM12.1723 18.3641C12.1723 18.1541 12.3523 17.9441 12.5823 17.9441C13.6123 17.9441 14.4723 17.2741 14.7223 16.2841L16.2223 10.2841C15.5823 9.9841 15.1523 9.3441 15.1523 8.6141C15.1523 7.5941 15.9823 6.7541 17.0023 6.7541C18.0123 6.7541 18.8623 7.5941 18.8623 8.6141C18.8623 9.5941 18.0423 10.4341 17.0523 10.4641L15.5323 16.4841C15.4723 16.7341 15.3823 16.9641 15.2623 17.1641L16.5423 18.0141C16.8823 18.2341 16.7723 18.7941 16.3523 18.7941H12.5823C12.3423 18.7941 12.1723 18.5741 12.1723 18.3641ZM15.9723 8.6141C15.9723 9.2041 16.3923 9.6441 17.0023 9.6441C17.5923 9.6441 18.0323 9.2041 18.0323 8.6141C18.0323 8.0241 17.5923 7.5841 17.0023 7.5841C16.3923 7.5841 15.9723 8.0241 15.9723 8.6141ZM6.7223 12.6141L6.9623 9.4441C7.0223 8.6741 7.6523 8.1341 8.5223 8.1341C9.0223 8.1341 9.4323 8.3041 9.7823 8.5641L11.4123 9.7241L13.3823 8.2941C13.6723 8.0841 14.1123 8.1641 14.3323 8.4741C14.5423 8.7741 14.4823 9.1841 14.1723 9.4141L11.8023 11.0941C11.5523 11.2841 11.2523 11.2841 11.0123 11.0941L9.6523 10.1341C9.5823 10.0741 9.5023 10.1241 9.4923 10.2041L9.2423 12.7841L12.1923 13.6141C12.6523 13.7441 12.8423 14.0841 12.7123 14.5441L11.7223 18.2041C11.6123 18.6141 11.2223 18.7741 10.9023 18.6841C10.5223 18.5841 10.3023 18.2441 10.4023 17.8441L11.2423 14.8441L8.1823 14.4241C7.1123 14.2741 6.6523 13.5541 6.7223 12.6141ZM6.2823 15.3841C6.1423 15.1241 6.3023 14.7541 6.7023 14.8141L8.9623 15.1841C9.1323 15.2241 9.2823 15.3941 9.2823 15.5741C9.2823 15.7641 9.1523 15.9241 8.9723 15.9641L8.4523 16.0741L8.7023 17.2641C8.8223 17.7741 9.1323 17.9441 9.5423 17.9441C9.7823 17.9441 9.9623 18.1441 9.9623 18.3641C9.9623 18.5841 9.7823 18.7941 9.5423 18.7941H6.6523C6.1923 18.7941 6.0623 18.2341 6.4123 18.0141L7.8123 17.1141L7.6323 16.2541H7.5923C7.0323 16.3441 6.6723 16.0941 6.4123 15.6241Z" />
        </svg>
    