
        <svg xmlns="http://www.w3.org/2000/svg" viewBox="0 0 100 100">
            <path d="M12.6023 25.1986C19.5623 25.1986 25.2023 19.5586 25.2023 12.5986C25.2023 5.6386 19.5623 -0.0014 12.6023 -0.0014C5.6323 -0.0014 0.0023 5.6386 0.0023 12.5986C0.0023 19.5586 5.6323 25.1986 12.6023 25.1986ZM12.6023 21.5386C7.6523 21.5386 3.6523 17.5386 3.6523 12.5986C3.6523 7.6486 7.6523 3.6586 12.6023 3.6586C17.5423 3.6586 21.5423 7.6486 21.5423 12.5986C21.5423 17.5386 17.5423 21.5386 12.6023 21.5386ZM13.0123 7.8186C13.7623 7.8186 14.3523 7.2086 14.3523 6.4686C14.3523 5.7186 13.7623 5.1186 13.0123 5.1186C12.2723 5.1186 11.6623 5.7186 11.6623 6.4686C11.6623 7.2086 12.2723 7.8186 13.0123 7.8186ZM14.2923 11.3486C14.5823 11.6286 15.0923 11.6086 15.3323 11.2286L16.7423 8.9786C17.2523 8.1786 16.0823 7.5186 15.6123 8.2586L14.6523 9.7986L13.9323 9.0786C13.1523 8.2986 12.2723 8.1486 11.0823 8.2686L9.0323 8.4986C8.7323 8.5286 8.4823 8.7886 8.4523 9.0786L8.1423 11.3586C8.0423 12.1986 9.3623 12.4086 9.4823 11.5186L9.7023 9.7686L10.7023 9.6586C10.8123 9.6486 10.8523 9.6886 10.8323 9.8086L10.5623 12.0386C10.4223 13.1386 11.0723 13.7886 12.1723 13.7086L14.1723 13.5786L13.5723 15.7686C13.3223 16.6686 14.6323 16.9786 14.8723 16.1086L15.6923 13.0186C15.8123 12.5786 15.5123 12.1886 15.0123 12.1886H12.9123L13.1823 10.3986C13.1923 10.2886 13.2423 10.2886 13.3223 10.3686ZM11.1223 14.1486L10.9923 16.0986L9.9123 18.8086C9.6923 19.3586 10.1023 19.7586 10.5123 19.7586C10.7823 19.7586 11.0323 19.6186 11.1723 19.2786L12.2723 16.4986C12.2823 16.4486 12.3023 16.3986 12.3123 16.3586L12.6223 14.2686L12.2123 14.3086C11.8323 14.3286 11.4723 14.2886 11.1223 14.1486Z" />
        </svg>
    