
        <svg xmlns="http://www.w3.org/2000/svg" viewBox="0 0 100 100">
            <path d="M11.3772 23.6633H17.0172C18.8372 23.6633 19.7872 22.7033 19.7872 20.7233V12.2433C19.7872 10.5233 19.0672 9.5833 17.6572 9.3733V6.3833C17.6572 3.8133 19.3172 2.3533 21.3472 2.3533C23.3572 2.3533 25.0472 3.8133 25.0472 6.3833V8.9633C25.0472 9.7733 25.5872 10.2733 26.2772 10.2733C26.9372 10.2733 27.4872 9.7933 27.4872 8.9633V6.5633C27.4872 2.3133 24.6472 0.0033 21.3472 0.0033C18.0372 0.0033 15.2072 2.3133 15.2072 6.5633V9.3233H9.7072C9.6972 9.7533 9.6272 10.1133 9.4672 10.5133L12.0772 11.6733H16.4772C16.9472 11.6733 17.2072 11.9433 17.2072 12.4933V20.4833C17.2072 21.0233 16.9472 21.3033 16.4772 21.3033H10.9372L11.2872 22.7433C11.3772 23.0733 11.4072 23.3833 11.3772 23.6633ZM6.0772 11.0633C7.1772 11.0633 8.0472 10.1833 8.0472 9.1033C8.0472 8.0133 7.1772 7.1333 6.0772 7.1333C4.9972 7.1333 4.1072 8.0133 4.1072 9.1033C4.1072 10.1833 4.9972 11.0633 6.0772 11.0633ZM6.0772 18.0433C6.3472 18.0433 6.5472 18.2133 6.6272 18.5033L7.9472 23.6333C8.2572 24.7933 9.8372 24.3833 9.6772 23.2933C9.6072 22.8733 8.4572 18.5433 8.2772 17.5533C8.1572 16.8433 8.2172 14.9833 8.2172 14.2233C8.2172 13.9833 8.4272 13.8433 8.6772 13.9433L10.9372 14.8633C11.5372 15.1033 11.9672 14.8133 12.0972 14.4133C12.2372 14.0133 12.0672 13.5133 11.4872 13.2733L9.0372 12.2733C8.4872 12.0433 7.9972 11.9133 7.4472 11.8433C7.0372 12.0633 6.5772 12.1733 6.0772 12.1733C5.5672 12.1733 5.1072 12.0633 4.6972 11.8433C4.1372 11.9133 3.6472 12.0433 3.1072 12.2733L0.6572 13.2733C0.0772 13.5133 -0.1028 14.0133 0.0472 14.4133C0.1772 14.8133 0.6072 15.1033 1.2172 14.8633L3.4672 13.9433C3.7172 13.8433 3.9172 13.9833 3.9172 14.2233C3.9172 14.9833 3.9772 16.8433 3.8572 17.5533C3.6972 18.5433 2.5472 22.8733 2.4772 23.2933C2.2972 24.3833 3.8972 24.7933 4.1872 23.6333L5.5272 18.5033C5.5972 18.2133 5.8072 18.0433 6.0772 18.0433Z" />
        </svg>
    