
        <svg xmlns="http://www.w3.org/2000/svg" viewBox="0 0 100 100">
            <path d="M12.2223 24.4436C18.9723 24.4436 24.4423 18.9636 24.4423 12.2236C24.4423 5.4736 18.9723 0.0036 12.2223 0.0036C5.4823 0.0036 0.0023 5.4736 0.0023 12.2236C0.0023 18.9636 5.4823 24.4436 12.2223 24.4436ZM6.1423 11.3036C5.3423 11.3036 4.6723 10.6536 4.6723 9.8536C4.6723 9.0536 5.3423 8.4136 6.1423 8.4136C6.9423 8.4136 7.5823 9.0536 7.5823 9.8536C7.5823 10.6536 6.9423 11.3036 6.1423 11.3036ZM10.3923 15.2336C8.9023 15.2336 7.8423 14.8436 7.1523 14.2636C6.9923 14.1436 6.9023 14.1336 6.6923 14.2136L4.6123 15.1436C4.0123 15.3936 3.4023 15.0336 3.5723 14.3536L4.1823 11.9536C4.2823 11.5936 4.6623 11.3636 5.0523 11.4636C5.4023 11.5436 5.6723 11.9336 5.5523 12.3036L5.2823 13.3036L6.2023 12.8836C7.2223 12.4136 7.8523 11.8736 8.5423 11.0536L9.4423 9.9736H8.6123C8.2123 9.9736 7.9123 9.6536 7.9123 9.2536C7.9123 8.8636 8.2223 8.5536 8.6123 8.5536H10.9223C11.5123 8.5536 11.8323 9.2436 11.4223 9.7236L9.7723 11.7036C9.6523 11.8236 9.6523 11.9536 9.7123 12.0536C9.9823 12.4936 10.4723 12.6936 11.0523 12.6936H12.1123V9.3136C12.1123 8.8436 12.4223 8.5536 12.8223 8.5536H16.2523C16.6423 8.5536 16.9423 8.8636 16.9423 9.2536C16.9423 9.6436 16.6423 9.9736 16.2523 9.9736H13.7023L14.1123 13.3136C14.2423 14.3336 13.8023 15.2336 12.2323 15.2336ZM20.7023 12.3036C21.1023 12.3036 21.4323 12.6236 21.4323 13.0236C21.4323 13.4136 21.1023 13.7336 20.7023 13.7336H17.5323L14.6523 14.3236C14.7523 13.9736 14.7623 13.6136 14.7223 13.2336L14.6223 12.5536L17.2623 12.3136C17.3323 12.3136 17.4023 12.3036 17.4523 12.3036Z" />
        </svg>
    