
        <svg xmlns="http://www.w3.org/2000/svg" viewBox="0 0 100 100">
            <path d="M14.9917 5.7305C16.5617 5.7305 17.8617 4.4405 17.8617 2.8605C17.8617 1.2905 16.5617 0.0005 14.9917 0.0005C13.4017 0.0005 12.1217 1.2905 12.1217 2.8605C12.1217 4.4405 13.4017 5.7305 14.9917 5.7305ZM2.9217 21.3505H3.5317C4.2117 21.3505 4.6917 20.8605 4.6917 20.1705V17.9805H5.9717C5.7217 18.6705 6.0217 19.4605 6.6717 19.7905C7.3817 20.1705 8.2517 19.8605 8.6017 19.1505L9.1717 17.9805H20.8017L21.3717 19.1505C21.7217 19.8605 22.5917 20.1705 23.3217 19.7905C23.9617 19.4605 24.2617 18.6705 24.0017 17.9805H25.2617V20.1705C25.2617 20.8605 25.7617 21.3505 26.4417 21.3505H27.0517C27.7217 21.3505 28.2117 20.8605 28.2117 20.1705V17.9805H28.9217C29.5117 17.9805 29.9617 17.5205 29.9617 16.9405C29.9617 16.3705 29.5117 15.9005 28.9217 15.9005H28.2117V13.7005C28.2117 13.0205 27.7217 12.5305 27.0517 12.5305H26.4417C25.7617 12.5305 25.2617 13.0205 25.2617 13.7005V15.9005H22.9817L19.4417 8.7505C18.8717 7.5905 17.7917 6.9305 16.4517 6.9305H13.5117C12.1917 6.9305 11.1117 7.5905 10.5317 8.7505L6.9917 15.9005H4.6917V13.7005C4.6917 13.0205 4.2117 12.5305 3.5317 12.5305H2.9217C2.2417 12.5305 1.7417 13.0205 1.7417 13.7005V15.9005H1.0417C0.4617 15.9005 0.0017 16.3705 0.0017 16.9405C0.0017 17.5205 0.4617 17.9805 1.0417 17.9805H1.7417V20.1705C1.7417 20.8605 2.2417 21.3505 2.9217 21.3505ZM12.0817 14.5105H17.9017V12.6405C17.9017 12.4905 18.0817 12.4605 18.1517 12.6205L19.7817 15.9005H10.2117L11.8317 12.6205C11.9017 12.4605 12.0817 12.4905 12.0817 12.6405ZM9.9817 30.4005C10.6717 30.5305 11.4717 30.1805 11.6817 29.2005L12.8217 23.9805L14.9917 20.5005L17.1517 23.9805L18.2917 29.2005C18.5117 30.2005 19.3317 30.5405 20.0317 30.3705C20.7317 30.2305 21.3017 29.5805 21.0917 28.5905L19.9317 23.1605C19.9217 23.0505 19.9017 22.9605 19.8517 22.8405L18.6317 19.3805H11.3717L10.1217 22.8405C10.0817 22.9605 10.0517 23.0505 10.0417 23.1605L8.8817 28.5905C8.6617 29.6105 9.2817 30.2605 9.9817 30.4005Z" />
        </svg>
    