
        <svg xmlns="http://www.w3.org/2000/svg" viewBox="0 0 100 100">
            <path d="M12.6023 25.1986C19.5623 25.1986 25.2023 19.5586 25.2023 12.5986C25.2023 5.6386 19.5623 -0.0014 12.6023 -0.0014C5.6323 -0.0014 0.0023 5.6386 0.0023 12.5986C0.0023 19.5586 5.6323 25.1986 12.6023 25.1986ZM12.6023 21.5386C7.6523 21.5386 3.6523 17.5386 3.6523 12.5986C3.6523 7.6486 7.6523 3.6586 12.6023 3.6586C17.5423 3.6586 21.5423 7.6486 21.5423 12.5986C21.5423 17.5386 17.5423 21.5386 12.6023 21.5386ZM13.2823 8.7186C14.0123 8.7186 14.6223 8.1186 14.6223 7.3686C14.6223 6.6286 14.0123 6.0186 13.2823 6.0186C12.5423 6.0186 11.9323 6.6286 11.9323 7.3686C11.9323 8.1186 12.5423 8.7186 13.2823 8.7186ZM11.1823 16.3586C11.4523 16.6286 11.8723 16.6286 12.1423 16.3586L14.5223 13.9786C14.9023 13.5986 14.6623 12.8986 14.0823 12.8486L11.4123 12.5586C11.3123 12.5486 11.2723 12.4586 11.3323 12.3986L12.2823 10.9586C12.3523 10.8486 12.4423 10.8386 12.5623 10.9086L14.2523 12.0186C14.3523 12.0786 14.4823 12.1386 14.6123 12.1386H16.9723C17.3323 12.1386 17.6523 11.8386 17.6523 11.4586C17.6523 11.0886 17.3323 10.7786 16.9723 10.7786H14.8123L9.6923 7.3586C9.5823 7.2886 9.4523 7.2386 9.3023 7.2386H6.9523C6.5823 7.2386 6.2723 7.5586 6.2723 7.9186C6.2723 8.2986 6.5823 8.5986 6.9523 8.5986H9.1123L10.0423 9.2086C10.1523 9.2886 10.1623 9.3886 10.0923 9.5086L8.7023 11.5586C8.0423 12.5586 8.6323 13.9286 9.9423 13.9886L12.4523 14.1286L11.1823 15.3986C10.9223 15.6686 10.9223 16.0986 11.1823 16.3586ZM16.8723 9.8286C16.8723 10.2986 17.6023 10.6686 18.4323 10.6686C19.2923 10.6686 20.0023 10.2986 20.0023 9.8286C20.0023 9.3586 19.2923 9.0086 18.4323 9.0086C17.6023 9.0086 16.8723 9.3586 16.8723 9.8286ZM8.9523 14.3286V16.1686L7.4623 17.9286C7.2223 18.2086 7.2423 18.6586 7.5323 18.8986C7.8623 19.1586 8.2823 19.0686 8.4923 18.8186L10.1523 16.8886C10.2623 16.7486 10.3123 16.5986 10.3223 16.4686L10.6323 14.6286L9.9023 14.5886C9.5523 14.5686 9.2323 14.4686 8.9523 14.3286Z" />
        </svg>
    