
        <svg xmlns="http://www.w3.org/2000/svg" viewBox="0 0 100 100">
            <path d="M11.3523 22.7064C17.6023 22.7064 22.7123 17.6064 22.7123 11.3564C22.7123 5.1064 17.6023 -0.0036 11.3523 -0.0036C5.1123 -0.0036 0.0023 5.1064 0.0023 11.3564C0.0023 17.6064 5.1123 22.7064 11.3523 22.7064ZM13.5623 7.6064C12.7923 7.6064 12.1623 6.9864 12.1623 6.2264C12.1623 5.4464 12.7923 4.8364 13.5623 4.8364C14.3323 4.8364 14.9523 5.4464 14.9523 6.2264C14.9523 6.9864 14.3323 7.6064 13.5623 7.6064ZM5.4223 10.3264C5.1723 10.0564 5.1523 9.6564 5.4223 9.3864L7.3923 7.4064C7.5323 7.2764 7.6923 7.2164 7.8623 7.2164H10.7423C11.1923 7.2164 11.6123 7.3964 11.9223 7.6964L16.5923 12.3864C16.8523 12.6564 16.8523 13.0464 16.5923 13.3164C16.3323 13.5864 15.9223 13.5664 15.6723 13.3164L12.2123 9.8664C12.0823 9.7264 11.8923 9.7264 11.7623 9.8664L10.4023 11.2064L12.5823 11.5064C12.9723 11.5664 13.1823 11.9364 13.1223 12.2664L12.4723 15.9064C12.3023 16.7764 11.0023 16.5664 11.1723 15.7064L11.6823 12.8164H8.5623C7.2023 12.8164 6.7623 11.3564 7.6023 10.4964L9.3823 8.7264C9.4823 8.6364 9.4323 8.5264 9.2923 8.5264H8.1423L6.3523 10.3264C6.0923 10.5864 5.6823 10.5864 5.4223 10.3264ZM3.9023 15.7864C3.9023 15.4264 4.1923 15.1264 4.5623 15.1264H7.2623L7.4423 12.9364C7.7423 13.1464 8.1323 13.2664 8.5623 13.2664H9.0023L8.5223 15.8564C8.4623 16.1964 8.2023 16.4364 7.8623 16.4364H4.5623C4.1923 16.4364 3.9023 16.1364 3.9023 15.7864ZM15.9223 15.7064C15.9223 15.3064 16.2423 14.9764 16.6623 14.9764H18.1423V14.4464C18.1423 14.2064 17.9723 14.0664 17.7323 14.0664H16.9923C16.8823 14.0664 16.8023 13.9764 16.8023 13.8864C16.8023 13.7764 16.8823 13.6964 16.9923 13.6964H17.7323C18.2023 13.6964 18.4923 13.9964 18.4923 14.4464V14.9764H18.6323C19.0523 14.9764 19.3623 15.3064 19.3623 15.7064C19.3623 16.1264 19.0523 16.4364 18.6323 16.4364H16.6623C16.2423 16.4364 15.9223 16.1264 15.9223 15.7064Z" />
        </svg>
    