
        <svg xmlns="http://www.w3.org/2000/svg" viewBox="0 0 100 100">
            <path d="M12.2223 24.4436C18.9723 24.4436 24.4423 18.9636 24.4423 12.2236C24.4423 5.4736 18.9723 0.0036 12.2223 0.0036C5.4823 0.0036 0.0023 5.4736 0.0023 12.2236C0.0023 18.9636 5.4823 24.4436 12.2223 24.4436ZM17.4523 13.4436C17.9623 11.9836 18.2023 10.7436 18.2023 9.5636C18.2023 8.3836 17.9623 7.1336 17.4523 5.6836C17.2423 5.0236 18.1423 4.8136 18.3423 5.3636C18.8623 6.7736 19.1123 8.1136 19.1123 9.5636C19.1123 11.0536 18.8623 12.3736 18.3423 13.7536C18.1323 14.3036 17.2423 14.0736 17.4523 13.4436ZM11.9523 8.1836C11.1523 8.1836 10.5123 7.5336 10.5123 6.7336C10.5123 5.9436 11.1523 5.2936 11.9523 5.2936C12.7623 5.2936 13.4023 5.9436 13.4023 6.7336C13.4023 7.5336 12.7623 8.1836 11.9523 8.1836ZM6.6223 18.9736L7.3523 16.2236C7.4523 15.7936 7.6323 15.5036 7.9223 15.2336L9.9023 13.2636V10.5536C9.9023 10.3936 9.7823 10.2536 9.6123 10.2536H7.5323C6.2023 10.2536 6.1523 8.6036 7.4423 8.3036L9.3423 7.8836C9.8423 7.7736 10.1523 8.0236 10.2323 8.3436C10.2823 8.5236 10.2523 8.6936 10.1323 8.8336H16.9723C17.3523 8.8336 17.6723 9.1636 17.6723 9.5636C17.6723 9.9336 17.3523 10.2536 16.9723 10.2536H12.9723C12.7823 10.2536 12.6723 10.3936 12.6723 10.5536V13.0436C12.6723 13.4036 12.7423 13.7536 12.8823 14.0836L13.7323 16.0436L15.2023 18.8236C15.4123 19.2236 15.2923 19.5836 15.0123 19.7736C14.6823 19.9836 14.1923 19.9336 13.9423 19.4836L12.4923 16.7436L11.5423 15.0936C11.3423 14.7336 10.8323 14.6736 10.5423 14.9336L8.9723 16.2636C8.7923 16.4336 8.7423 16.5236 8.6723 16.7736L7.9823 19.3336C7.8723 19.7536 7.4723 19.9236 7.1523 19.8736C6.7823 19.8036 6.4823 19.4836 6.6223 18.9736Z" />
        </svg>
    