
        <svg xmlns="http://www.w3.org/2000/svg" viewBox="0 0 100 100">
            <path d="M24.783 6.7183C26.643 6.7183 28.123 5.1683 28.123 3.3783C28.123 1.5083 26.643 -0.0017 24.783 -0.0017C22.913 -0.0017 21.433 1.5083 21.433 3.3783C21.433 5.1983 22.913 6.7183 24.783 6.7183ZM6.053 4.8783C6.053 5.4183 6.483 5.8483 7.023 5.8483H11.383V7.7483C11.383 8.6483 12.303 9.0583 12.983 8.4383L16.193 5.5683C16.653 5.1583 16.653 4.6283 16.193 4.2183L12.983 1.3383C12.343 0.7483 11.383 1.0783 11.383 2.0383V3.9283H7.023C6.483 3.9283 6.053 4.3483 6.053 4.8783ZM3.843 6.4883C3.313 6.4883 2.883 6.9283 2.883 7.4683V11.8283L0.993 11.8383C0.053 11.8383 -0.307 12.7583 0.293 13.4183L3.173 16.6383C3.583 17.0983 4.113 17.0883 4.523 16.6383L7.393 13.4183C7.993 12.7483 7.623 11.8283 6.693 11.8283H4.803V7.4683C4.803 6.9283 4.373 6.4883 3.843 6.4883ZM4.983 24.3683C5.663 25.0683 6.783 25.0083 7.603 24.1683L12.853 18.7383C13.033 18.5483 13.173 18.5083 13.453 18.6183L17.453 20.1183C20.073 21.1183 22.743 20.1483 23.953 17.9483L26.483 13.3483C27.533 11.4383 27.193 9.5283 25.393 8.5583C23.663 7.5983 21.853 8.3083 20.803 10.2283L17.393 16.4283L14.523 15.3883C13.013 14.8283 11.743 15.0083 10.523 16.2683L5.103 21.8983C4.293 22.7383 4.373 23.7583 4.983 24.3683Z" />
        </svg>
    