
        <svg xmlns="http://www.w3.org/2000/svg" viewBox="0 0 100 100">
            <path d="M10.1217 7.8385C11.6717 8.3785 12.5017 9.4285 14.2017 9.4285C16.1717 9.4285 16.9117 8.0185 19.0117 7.6085L12.1517 0.4885C11.5917 -0.0915 10.7617 -0.1715 10.0817 0.3185L5.3917 3.6485C4.5317 4.2485 4.6217 5.1585 5.1117 5.6985C5.5317 6.1585 6.2717 6.3485 6.9817 5.8385L10.7217 3.2085L12.7817 5.3185C13.0217 5.5585 13.0617 5.8985 12.7117 6.1385ZM20.7217 6.1285C22.1917 6.1285 23.4017 4.9185 23.4017 3.4285C23.4017 1.9485 22.1917 0.7485 20.7217 0.7485C19.2317 0.7485 18.0217 1.9485 18.0217 3.4285C18.0217 4.9185 19.2317 6.1285 20.7217 6.1285ZM0.7717 12.7785H2.0417C5.3117 12.7785 6.0017 10.8185 8.1217 10.8185C10.1217 10.8185 10.9417 12.7785 14.2017 12.7785C17.4717 12.7785 18.2917 10.8185 20.2817 10.8185C22.4217 10.8185 23.1117 12.7785 26.3717 12.7785H27.6317C28.0617 12.7785 28.4217 12.4385 28.4217 12.0085C28.4217 11.5685 28.0617 11.2185 27.6317 11.2185H26.3717C24.1617 11.2185 23.4217 9.2785 20.2817 9.2785C17.2817 9.2785 16.4217 11.2185 14.2017 11.2185C12.0017 11.2185 11.1217 9.2785 8.1217 9.2785C4.9917 9.2785 4.2517 11.2185 2.0417 11.2185H0.7717C0.3417 11.2185 0.0017 11.5685 0.0017 12.0085C0.0017 12.4385 0.3417 12.7785 0.7717 12.7785ZM7.6317 14.3185C8.0417 14.3185 8.3817 13.9785 8.3817 13.5685C8.3817 13.1385 8.0417 12.8185 7.6317 12.8185C7.2117 12.8185 6.8817 13.1385 6.8817 13.5685C6.8817 13.9785 7.2117 14.3185 7.6317 14.3185ZM20.8117 14.3185C21.2217 14.3185 21.5517 13.9785 21.5517 13.5685C21.5517 13.1385 21.2217 12.8185 20.8117 12.8185C20.3917 12.8185 20.0617 13.1385 20.0617 13.5685C20.0617 13.9785 20.3917 14.3185 20.8117 14.3185ZM5.3817 14.8885C5.7917 14.8885 6.1317 14.5585 6.1317 14.1485C6.1317 13.7285 5.7917 13.3985 5.3817 13.3985C4.9617 13.3985 4.6317 13.7285 4.6317 14.1485C4.6317 14.5585 4.9617 14.8885 5.3817 14.8885ZM9.8717 14.8885C10.2917 14.8885 10.6217 14.5585 10.6217 14.1485C10.6217 13.7285 10.2917 13.3985 9.8717 13.3985C9.4617 13.3985 9.1317 13.7285 9.1317 14.1485C9.1317 14.5585 9.4617 14.8885 9.8717 14.8885ZM18.5617 14.8885C18.9817 14.8885 19.3117 14.5585 19.3117 14.1485C19.3117 13.7285 18.9817 13.3985 18.5617 13.3985C18.1517 13.3985 17.8117 13.7285 17.8117 14.1485C17.8117 14.5585 18.1517 14.8885 18.5617 14.8885ZM23.0617 14.8885C23.4717 14.8885 23.8017 14.5585 23.8017 14.1485C23.8017 13.7285 23.4717 13.3985 23.0617 13.3985C22.6417 13.3985 22.3117 13.7285 22.3117 14.1485C22.3117 14.5585 22.6417 14.8885 23.0617 14.8885ZM3.2817 15.8885C3.7017 15.8885 4.0317 15.5485 4.0317 15.1385C4.0317 14.7185 3.7017 14.3885 3.2817 14.3885C2.8717 14.3885 2.5317 14.7185 2.5317 15.1385C2.5317 15.5485 2.8717 15.8885 3.2817 15.8885ZM11.9717 15.8885C12.4017 15.8885 12.7217 15.5485 12.7217 15.1385C12.7217 14.7185 12.4017 14.3885 11.9717 14.3885C11.5617 14.3885 11.2417 14.7185 11.2417 15.1385C11.2417 15.5485 11.5617 15.8885 11.9717 15.8885ZM16.4517 15.8885C16.8717 15.8885 17.2017 15.5485 17.2017 15.1385C17.2017 14.7185 16.8717 14.3885 16.4517 14.3885C16.0417 14.3885 15.7017 14.7185 15.7017 15.1385C15.7017 15.5485 16.0417 15.8885 16.4517 15.8885ZM25.1517 15.8885C25.5717 15.8885 25.9017 15.5485 25.9017 15.1385C25.9017 14.7185 25.5717 14.3885 25.1517 14.3885C24.7417 14.3885 24.4117 14.7185 24.4117 15.1385C24.4117 15.5485 24.7417 15.8885 25.1517 15.8885ZM1.0317 16.2885C1.4417 16.2885 1.7817 15.9585 1.7817 15.5385C1.7817 15.1285 1.4417 14.7885 1.0317 14.7885C0.6117 14.7885 0.2817 15.1285 0.2817 15.5385C0.2817 15.9585 0.6117 16.2885 1.0317 16.2885ZM14.2117 16.2885C14.6417 16.2885 14.9617 15.9585 14.9617 15.5385C14.9617 15.1285 14.6417 14.7885 14.2117 14.7885C13.8017 14.7885 13.4617 15.1285 13.4617 15.5385C13.4617 15.9585 13.8017 16.2885 14.2117 16.2885ZM27.4017 16.2885C27.8217 16.2885 28.1517 15.9585 28.1517 15.5385C28.1517 15.1285 27.8217 14.7885 27.4017 14.7885C26.9917 14.7885 26.6517 15.1285 26.6517 15.5385C26.6517 15.9585 26.9917 16.2885 27.4017 16.2885Z" />
        </svg>
    