
        <svg xmlns="http://www.w3.org/2000/svg" viewBox="0 0 100 100">
            <path d="M7.9782 5.7556C9.5482 5.7556 10.8482 4.4456 10.8482 2.8956C10.8482 1.2856 9.5482 -0.0044 7.9782 -0.0044C6.3582 -0.0044 5.1082 1.2856 5.1082 2.8956C5.1082 4.4456 6.3582 5.7556 7.9782 5.7556ZM12.4582 8.3756L14.8182 5.7456C15.3282 5.1756 15.2982 4.5656 14.7882 4.1456C14.3282 3.7456 13.7382 3.7256 13.2282 4.3256L10.4982 7.3856C11.2182 7.6256 11.8882 7.9556 12.4582 8.3756ZM24.1882 7.9456H29.2982C29.7182 7.9456 29.7882 7.4956 29.4782 7.2856L27.2982 5.7756C26.9282 5.5156 26.5782 5.5156 26.1982 5.7756L23.9982 7.2856C23.7082 7.4956 23.7582 7.9456 24.1882 7.9456ZM2.4182 16.3556L10.4982 7.3856C9.7482 7.1356 8.9182 6.9956 7.9782 6.9956C4.2582 6.9956 2.0582 8.7856 2.0582 11.7756C2.0582 12.4656 2.1182 13.4556 2.2082 14.4356ZM13.4982 16.3556L13.7182 14.4356C13.8382 13.4556 13.8682 12.4656 13.8682 11.7756C13.8682 10.3456 13.3782 9.1956 12.4582 8.3856L6.2282 15.3056C6.8082 15.2356 7.3982 15.2156 7.9782 15.2156C9.7982 15.2156 11.6382 15.4456 13.4982 16.3556ZM20.0582 11.5556V14.7756C20.0582 15.6956 20.7282 16.3756 21.6782 16.3756H24.3282C25.2482 16.3756 25.9282 15.6956 25.9282 14.7756V11.5556C25.9282 10.6156 25.2482 9.9256 24.3282 9.9256H21.6782C20.7282 9.9256 20.0582 10.6156 20.0582 11.5556ZM27.5682 11.5556V14.7756C27.5682 15.6956 28.2782 16.3756 29.1882 16.3756H31.8382C32.7782 16.3756 33.4582 15.6956 33.4582 14.7756V11.5556C33.4582 10.6156 32.7782 9.9256 31.8382 9.9256H29.1882C28.2782 9.9256 27.5682 10.6156 27.5682 11.5556ZM22.9982 14.5856C22.2082 14.5856 21.5382 13.9456 21.5382 13.1156C21.5382 12.3356 22.2082 11.6856 22.9982 11.6856C23.7882 11.6856 24.4582 12.3356 24.4582 13.1156C24.4582 13.9456 23.7882 14.5856 22.9982 14.5856ZM30.5282 14.5856C29.7282 14.5856 29.0482 13.9456 29.0482 13.1156C29.0482 12.3356 29.7282 11.6856 30.5282 11.6856C31.2982 11.6856 31.9782 12.3356 31.9782 13.1156C31.9782 13.9456 31.2982 14.5856 30.5282 14.5856ZM0.6082 17.4356C-0.1118 17.9456 -0.1218 18.6456 0.2082 19.0756C0.4982 19.4856 1.0882 19.6556 1.6682 19.2556C1.9882 19.0156 2.3182 18.8156 2.6582 18.6456L2.4182 16.3556C1.7782 16.6656 1.1782 17.0056 0.6082 17.4356ZM15.3082 17.4356C14.7482 17.0056 14.1382 16.6656 13.4982 16.3556L13.2582 18.6456C13.6182 18.8156 13.9582 19.0156 14.2582 19.2556C14.8482 19.6556 15.4282 19.4956 15.7182 19.0856C16.0482 18.6556 16.0382 17.9456 15.3082 17.4356ZM4.9382 26.0756C5.7782 25.9656 6.3282 25.3756 6.2082 24.3156L5.7282 19.7156H10.2082L9.7082 24.3156C9.5982 25.3756 10.1582 25.9656 11.0082 26.0756C11.8682 26.1556 12.5082 25.6456 12.6282 24.6056L13.2582 18.6456C11.5882 17.6856 9.7382 17.3056 7.9782 17.3056C6.1982 17.3056 4.3282 17.6856 2.6582 18.6456L3.2982 24.6056C3.4182 25.6456 4.0582 26.1556 4.9382 26.0756Z" />
        </svg>
    