
        <svg xmlns="http://www.w3.org/2000/svg" viewBox="0 0 100 100">
            <path d="M13.1117 4.4397C14.3517 4.4397 15.3417 3.4497 15.3417 2.2197C15.3417 0.9797 14.3517 -0.0003 13.1117 -0.0003C11.8817 -0.0003 10.9017 0.9797 10.9017 2.2197C10.9017 3.4497 11.8817 4.4397 13.1117 4.4397ZM9.6317 13.4397L13.6517 15.6897L11.0417 17.9397C10.5617 18.3497 10.5017 18.9297 10.8417 19.3197C11.2017 19.7297 11.8017 19.7297 12.3117 19.2897L15.8817 16.2497C16.3317 15.8597 16.2617 15.0097 15.7017 14.6497L11.7917 12.0697L12.5717 9.3597C12.6917 8.9297 13.1717 8.8697 13.4217 9.2497L14.5517 10.9097C14.8117 11.2997 15.2917 11.4097 15.7117 11.2297L18.9917 9.7597C19.5517 9.5197 19.7617 9.0497 19.5117 8.5297C19.2917 8.0397 18.8117 7.8897 18.2417 8.1297L15.6017 9.2997L13.7917 6.8097C12.8517 5.5097 11.6917 4.9997 9.8417 5.1397L6.2017 5.3997C5.6517 5.4497 5.2717 5.8097 5.1917 6.3897L4.7117 10.0697C4.6317 10.6997 4.9117 11.1097 5.4617 11.1697C6.0117 11.2297 6.3517 10.9097 6.4417 10.2997L6.9017 7.2297L8.4017 7.1397C8.7917 7.1097 9.0717 7.3897 8.9617 7.7797L8.1317 10.7597C7.6517 12.4697 8.7317 12.9297 9.6317 13.4397ZM21.1017 22.0397L21.5817 22.0197C21.8217 22.0097 21.8317 21.9997 21.8817 22.0097L23.6717 11.7897L26.2117 10.6097C26.4217 10.4997 26.4817 10.2897 26.4217 10.0897C26.3517 9.9097 26.1417 9.7997 25.8917 9.9097L20.6917 12.3397C20.4717 12.4497 20.4017 12.6697 20.4817 12.8397C20.5517 13.0197 20.7917 13.1497 21.0217 13.0297L22.8417 12.1797ZM2.6917 22.3897C3.1217 22.7197 3.6817 22.6997 4.1417 22.2397L7.4917 18.9297C7.7817 18.6397 7.8417 18.5697 8.0017 18.1497L9.4617 14.4297L9.1717 14.2597C8.3017 13.7497 7.8017 13.3897 7.4517 12.8997L6.2217 17.3997L2.7317 20.8897C2.2417 21.3597 2.2617 21.9997 2.6917 22.3897ZM0.3417 24.9497H22.2917C22.8717 24.9497 23.2717 24.5497 23.2717 23.9297C23.2717 23.2597 22.7917 22.8897 22.0517 22.9297L0.3517 24.2497C0.1417 24.2597 0.0017 24.4197 0.0017 24.6097C0.0017 24.7997 0.1517 24.9497 0.3417 24.9497Z" />
        </svg>
    