
        <svg xmlns="http://www.w3.org/2000/svg" viewBox="0 0 100 100">
            <path d="M12.7923 25.5978C19.8723 25.5978 25.6023 19.8678 25.6023 12.7978C25.6023 5.7278 19.8723 -0.0022 12.7923 -0.0022C5.7323 -0.0022 0.0023 5.7278 0.0023 12.7978C0.0023 19.8678 5.7323 25.5978 12.7923 25.5978ZM12.7923 21.4178C8.0323 21.4178 4.1723 17.5678 4.1723 12.7978C4.1723 8.0278 8.0323 4.1678 12.7923 4.1678C17.5623 4.1678 21.4323 8.0278 21.4323 12.7978C21.4323 17.5678 17.5623 21.4178 12.7923 21.4178ZM11.3823 8.6578C12.1023 8.6578 12.7023 8.0478 12.7023 7.3378C12.7023 6.5978 12.1023 6.0078 11.3823 6.0078C10.6523 6.0078 10.0523 6.5978 10.0523 7.3378C10.0523 8.0478 10.6523 8.6578 11.3823 8.6578ZM11.7523 14.0378L14.8123 14.9878L17.7223 16.3078C18.6323 16.7178 19.1723 15.4378 18.3023 15.0378L13.3523 12.7878V10.1678C13.3523 10.0678 13.3823 10.0078 13.4723 9.9678L15.0023 9.3478C15.1623 9.2778 15.2223 9.2478 15.3523 9.0778L16.9423 7.2278C17.2023 6.9378 17.1523 6.5078 16.8723 6.2578C16.5823 5.9878 16.1223 6.0478 15.8923 6.3378L14.3923 8.0878L7.3923 10.9478C7.2423 11.0078 7.0523 11.1078 6.9423 11.2378H10.3923L10.7423 11.0878C10.8123 11.0478 10.8623 11.0978 10.8623 11.1578V12.8278C10.8623 13.4578 11.1723 13.8678 11.7523 14.0378ZM6.1323 12.8678H10.2623V11.8378H6.1323C5.8523 11.8378 5.6123 12.0578 5.6123 12.3478C5.6123 12.6278 5.8523 12.8678 6.1323 12.8678ZM14.9523 12.8678H18.8323C19.1023 12.8678 19.3523 12.6278 19.3523 12.3478C19.3523 12.0578 19.1023 11.8378 18.8323 11.8378H13.9423V12.3778ZM11.1523 18.7478C11.0023 19.2778 11.4423 19.6078 11.8623 19.6078C12.1423 19.6078 12.4223 19.4578 12.5123 19.1178L13.3123 16.1478C13.3323 16.0778 13.3523 16.0178 13.3523 15.9678V15.1478L11.7923 14.6678L11.9423 15.9278Z" />
        </svg>
    