
        <svg xmlns="http://www.w3.org/2000/svg" viewBox="0 0 100 100">
            <path d="M19.8049 7.545C19.6749 7.425 19.5349 7.335 19.3849 7.285V6.175L20.7649 5.465C21.0749 5.295 21.2949 5.015 21.2949 4.735V0.915C21.2949 0.385 20.9349 -0.005 20.4149 -0.005H17.6049C17.0849 -0.005 16.7149 0.385 16.7149 0.915V4.735C16.7149 5.015 16.9249 5.295 17.2249 5.465L18.6349 6.175V7.285C18.4849 7.335 18.3449 7.425 18.2149 7.545L15.5449 10.215L12.8549 7.525C12.3349 6.985 11.4949 6.655 10.6649 6.655H3.4649C2.9549 6.655 2.5449 6.935 2.3849 7.425L0.6549 12.605C0.3749 13.415 0.8449 13.955 1.3949 14.095C1.9349 14.235 2.5349 14.005 2.7649 13.315L4.2649 8.905H6.6349C6.8749 8.905 7.0249 9.095 6.9449 9.315L5.4849 13.715C5.0049 15.145 5.4449 16.515 7.0349 17.205L11.7349 19.265L13.3149 24.805C13.5149 25.505 14.1449 25.715 14.6849 25.575C15.2249 25.415 15.6849 24.915 15.4749 24.185L13.7349 18.115C13.6449 17.805 13.4749 17.575 13.1149 17.405L9.4649 15.795L11.4049 9.935C11.4849 9.695 11.7649 9.605 11.9549 9.805L14.7349 12.605C15.1649 13.055 15.9049 13.055 16.3349 12.605L19.8049 9.155C20.2549 8.695 20.2549 8.005 19.8049 7.545ZM10.6649 5.335C11.9749 5.335 13.0549 4.255 13.0549 2.925C13.0549 1.605 11.9749 0.525 10.6649 0.525C9.3349 0.525 8.2549 1.605 8.2549 2.925C8.2549 4.255 9.3349 5.335 10.6649 5.335ZM5.8749 17.635L5.3049 20.885L0.5749 23.505C-0.0951 23.885 -0.1151 24.585 0.1749 25.075C0.4749 25.535 1.0649 25.825 1.6949 25.475L6.8849 22.595C7.2149 22.415 7.3249 22.205 7.4349 21.865L8.4449 18.855L6.6549 18.075C6.3649 17.955 6.1049 17.785 5.8749 17.635Z" />
        </svg>
    