
        <svg xmlns="http://www.w3.org/2000/svg" viewBox="0 0 100 100">
            <path d="M11.9523 23.9041C18.5523 23.9041 23.9023 18.5341 23.9023 11.9541C23.9023 5.3541 18.5523 0.0041 11.9523 0.0041C5.3623 0.0041 0.0023 5.3541 0.0023 11.9541C0.0023 18.5341 5.3623 23.9041 11.9523 23.9041ZM13.7623 7.8241C12.9623 7.8241 12.3123 7.1641 12.3123 6.3641C12.3123 5.5741 12.9623 4.9141 13.7623 4.9141C14.5623 4.9141 15.2223 5.5741 15.2223 6.3641C15.2223 7.1641 14.5623 7.8241 13.7623 7.8241ZM5.4623 9.0441C5.4623 8.6741 5.7623 8.3641 6.1423 8.3641H6.3323V7.8241C5.8123 7.5341 5.4623 6.9341 5.4623 6.4141C5.4623 5.6941 6.0123 5.1441 6.7023 5.1441C7.4223 5.1441 7.9723 5.6941 7.9723 6.4141C7.9723 6.9241 7.6023 7.5241 7.0923 7.8241V8.3641H12.3123C13.5623 8.3641 14.1823 8.4841 14.7623 9.1041L16.0523 10.4541L17.6023 8.9041C17.8823 8.6341 18.2823 8.6441 18.5523 8.9041C18.8223 9.1641 18.8123 9.5741 18.5523 9.8441L16.5423 11.8441C16.4023 12.0041 16.2323 12.0541 16.0523 12.0541C15.8823 12.0541 15.7123 11.9841 15.5823 11.8441L14.1123 10.3741C13.9423 10.2041 13.6923 10.2341 13.6123 10.4641L12.6223 13.4341L14.7323 14.6641C14.8823 14.7641 14.9923 14.8841 15.0323 15.0441L16.0323 18.5741C16.1523 18.9741 15.9223 19.2641 15.6323 19.3941C15.3023 19.5141 14.8923 19.3941 14.7523 18.9341L13.8023 15.7241L11.1023 14.5341C10.3023 14.1841 9.8923 13.3141 10.1823 12.4641L10.9723 10.1341C11.0623 9.8641 10.8823 9.7141 10.6723 9.7141H6.1423C5.7623 9.7141 5.4623 9.4141 5.4623 9.0441ZM15.9723 13.1841C15.9723 12.9641 16.1723 12.7741 16.3823 12.7741H20.3123V13.6041H16.3823C16.1723 13.6041 15.9723 13.4041 15.9723 13.1841ZM7.1223 19.1441C6.9223 18.8541 6.9523 18.3941 7.3723 18.1741L10.1123 16.6541L10.5023 14.8741C10.5223 14.9041 10.6323 14.9641 10.8723 15.0841L11.9223 15.5341L11.3323 17.2841C11.2723 17.4741 11.1723 17.6041 11.0023 17.6741L8.0123 19.3441C7.6423 19.5441 7.3123 19.4041 7.1223 19.1441Z" />
        </svg>
    