
        <svg xmlns="http://www.w3.org/2000/svg" viewBox="0 0 100 100">
            <path d="M12.2223 24.4436C18.9723 24.4436 24.4423 18.9636 24.4423 12.2236C24.4423 5.4736 18.9723 0.0036 12.2223 0.0036C5.4823 0.0036 0.0023 5.4736 0.0023 12.2236C0.0023 18.9636 5.4823 24.4436 12.2223 24.4436ZM11.6023 6.6136C10.8723 6.6136 10.2923 6.0236 10.2923 5.2936C10.2923 4.5536 10.8723 3.9736 11.6023 3.9736C12.3323 3.9736 12.9223 4.5536 12.9223 5.2936C12.9223 6.0236 12.3323 6.6136 11.6023 6.6136ZM7.8623 11.1936L7.9723 9.7936C8.0023 9.3936 8.1123 9.1536 8.4023 8.8736L9.2923 7.9836C9.8623 7.4136 10.3023 7.1036 10.9323 7.1036C11.7823 7.1036 12.2723 7.7236 12.2123 8.5636L12.1023 10.2536C12.0623 10.8636 11.9623 11.2336 11.7823 11.8636L11.7323 11.9836L12.4823 13.0636C12.6123 13.2436 12.7223 13.4436 12.8123 13.6136L13.8423 15.7036C14.2523 16.5336 13.1123 17.0136 12.7223 16.2436L11.6723 14.0936C11.6123 14.0036 11.5923 13.9236 11.4923 13.8036L10.2923 12.3036C9.8323 11.7336 9.6823 11.3936 9.7223 10.7436L9.8323 9.4936C9.8423 9.3436 9.6423 9.2536 9.5023 9.3736L9.0923 9.7336L8.9623 11.2636C8.9423 11.6436 8.7223 11.8436 8.3823 11.8336C8.0423 11.8236 7.8323 11.5636 7.8623 11.1936ZM12.7123 10.0036L12.8123 8.5036L13.6423 9.3936H14.9723C15.3623 9.3936 15.6223 9.6236 15.6223 9.9536C15.6223 10.3036 15.3623 10.5236 14.9723 10.5236H13.7223C13.3523 10.5236 13.1923 10.4636 12.9823 10.2636ZM16.8023 11.3336C16.7023 11.0836 16.7923 10.8036 17.0423 10.7036L20.0023 9.3036C20.2423 9.2036 20.5223 9.2936 20.6223 9.5236C20.7323 9.7536 20.6323 10.0436 20.4023 10.1436L19.0623 10.7736L18.0623 16.4636C17.9723 16.4636 17.9223 16.4636 17.8123 16.4636L17.1223 16.5136L18.0323 11.2536L17.4223 11.5336C17.1923 11.6336 16.9023 11.5436 16.8023 11.3336ZM7.7623 15.9836L9.5323 13.9136L9.7823 12.6436L10.7823 13.8836L10.6923 14.2036C10.6123 14.4036 10.5823 14.4636 10.4023 14.6636L8.6123 16.7936C8.1323 17.3636 7.1623 16.6736 7.7623 15.9836ZM5.4823 18.2436C5.4823 18.0036 5.6523 17.8336 5.8823 17.8136L17.9023 17.0636C18.4223 17.0436 18.8223 17.3336 18.8223 17.8436C18.8223 18.2936 18.4723 18.6436 18.0323 18.6436H5.8823C5.6623 18.6436 5.4823 18.4536 5.4823 18.2436Z" />
        </svg>
    