
        <svg xmlns="http://www.w3.org/2000/svg" viewBox="0 0 100 100">
            <path d="M11.3523 22.7064C17.6023 22.7064 22.7123 17.6064 22.7123 11.3564C22.7123 5.1064 17.6023 -0.0036 11.3523 -0.0036C5.1123 -0.0036 0.0023 5.1064 0.0023 11.3564C0.0023 17.6064 5.1123 22.7064 11.3523 22.7064ZM5.7023 13.7264L7.7423 8.4564C7.8823 8.1064 8.2623 7.9364 8.6323 8.0764C8.9623 8.2064 9.1423 8.6064 9.0023 8.9364L7.5123 12.7964C7.4423 12.9764 7.4723 13.1264 7.6423 13.2264C8.2623 13.6064 8.7023 13.8064 9.4823 13.8064H10.7123L9.7723 11.1364C9.7523 11.0764 9.7423 11.0064 9.7423 10.9064V5.8964C9.7423 5.5164 10.0223 5.2364 10.3923 5.2364C10.7823 5.2364 11.0823 5.5164 11.0823 5.8964V10.7464L12.7423 13.9464C13.2823 14.9864 12.8423 16.2264 11.2623 16.2264H9.2123C7.9123 16.2264 7.1123 16.0064 6.2223 15.4064C5.6823 15.0364 5.4523 14.3664 5.7023 13.7264ZM4.0623 13.1464C3.2923 13.1464 2.6523 12.5064 2.6523 11.7264C2.6523 10.9664 3.2923 10.3264 4.0623 10.3264C4.8323 10.3264 5.4723 10.9664 5.4723 11.7264C5.4723 12.5064 4.8323 13.1464 4.0623 13.1464ZM13.3723 15.2664C13.4723 14.7064 13.3923 14.2664 13.1523 13.7364L13.0623 13.5864L15.2923 13.1864L19.6023 12.3964C19.9523 12.3364 20.3123 12.5664 20.3823 12.9364C20.4423 13.3164 20.2023 13.6564 19.8423 13.7064L16.0223 14.4064Z" />
        </svg>
    