
        <svg xmlns="http://www.w3.org/2000/svg" viewBox="0 0 100 100">
            <path d="M11.7523 23.5048C18.2323 23.5048 23.5123 18.2348 23.5123 11.7548C23.5123 5.2748 18.2323 0.0048 11.7523 0.0048C5.2723 0.0048 0.0023 5.2748 0.0023 11.7548C0.0023 18.2348 5.2723 23.5048 11.7523 23.5048ZM11.7323 6.8948C10.9123 6.8948 10.2523 6.2348 10.2523 5.4248C10.2523 4.6148 10.9123 3.9648 11.7323 3.9648C12.5523 3.9648 13.1923 4.6148 13.1923 5.4248C13.1923 6.2348 12.5523 6.8948 11.7323 6.8948ZM7.2823 17.9648L9.2723 15.6248L9.8623 13.2448C9.6223 12.8548 9.5123 12.5648 9.5023 12.1148H8.5323C8.0423 12.1148 7.6723 11.7548 7.6723 11.2648V7.8748C7.6723 7.1448 8.1323 6.6948 8.8623 6.6948H9.5723C10.1223 6.6948 10.5223 7.0648 10.5223 7.5748C10.6423 7.5448 10.7723 7.5248 10.9123 7.5248C11.3823 7.5248 11.7523 7.7148 12.0623 8.0248L14.0823 10.2448H15.7023C16.1023 10.2448 16.3723 10.4848 16.3723 10.8548C16.3723 11.2348 16.1023 11.4748 15.7023 11.4748H14.1923C13.7823 11.4748 13.6123 11.4048 13.3723 11.1748L12.3123 10.1648L12.2323 11.2348C12.1923 12.0548 12.1323 12.5348 11.7623 13.3048L10.5623 15.9248C10.4023 16.2148 10.3323 16.3448 10.1623 16.5448L8.2223 18.8548C7.6923 19.5048 6.6223 18.7348 7.2823 17.9648ZM15.4023 9.6648V8.7448C15.4023 8.5748 15.5323 8.4348 15.7023 8.4348C15.8823 8.4348 16.0223 8.5748 16.0223 8.7448V9.7048C15.8823 9.6748 15.7823 9.6648 15.7023 9.6648ZM15.4023 18.8048V12.0548H15.7023C15.7623 12.0548 15.8823 12.0448 16.0223 12.0148V18.8048C16.0223 18.9748 15.8823 19.1148 15.7023 19.1148C15.5423 19.1148 15.4023 18.9748 15.4023 18.8048ZM11.5123 15.3148L12.1723 13.8748L12.6923 14.6248C12.8423 14.8148 12.9823 15.0448 13.0923 15.2648L14.4723 18.0448C14.9323 18.9648 13.6523 19.5148 13.2223 18.6548L11.8223 15.7948C11.7523 15.6648 11.6923 15.5548 11.5123 15.3148Z" />
        </svg>
    