
        <svg xmlns="http://www.w3.org/2000/svg" viewBox="0 0 100 100">
            <path d="M17.4444 5.1C18.8544 5.1 19.9944 3.96 19.9944 2.55C19.9944 1.14 18.8544 0 17.4444 0C16.0244 0 14.8844 1.14 14.8844 2.55C14.8844 3.96 16.0244 5.1 17.4444 5.1ZM4.7344 17.25H11.4844L17.7244 18.13C20.0544 18.46 21.7444 17.44 21.7444 15.21V10.99C21.7444 10.78 21.9644 10.7 22.1044 10.84L23.2644 12.01V16.02C23.2644 16.7 23.8344 17.25 24.4844 17.25C25.1544 17.25 25.6944 16.7 25.6944 16.02V11.5C25.6944 11.18 25.5744 10.86 25.3244 10.63L22.3744 7.69C21.4944 6.83 20.3744 6.33 19.1144 6.33H7.5544C6.8944 6.33 6.3344 6.89 6.3344 7.55C6.3344 8.23 6.8744 8.77 7.5544 8.77H16.4444C16.7944 8.77 17.0544 9.04 17.0544 9.37V14.81H4.7344C4.0444 14.81 3.5044 15.35 3.5044 16.02C3.5044 16.7 4.0644 17.25 4.7344 17.25ZM1.1944 12.07C2.7244 13.58 4.4344 13.42 5.0744 12.79C5.6944 12.13 5.7444 10.55 4.2444 9.02C2.6944 7.49 1.1044 7.54 0.4644 8.19C-0.1856 8.84 -0.3256 10.52 1.1944 12.07ZM19.6944 27.62C20.1544 28.09 20.9244 28.09 21.3944 27.62C21.8744 27.15 21.8544 26.39 21.3944 25.91L17.5144 21.98L18.8944 19.3C18.4844 19.34 18.0244 19.3 17.5544 19.24L15.8844 19.01L14.8644 21.82C14.6944 22.25 14.8044 22.73 15.1544 23.09Z" />
        </svg>
    