
        <svg xmlns="http://www.w3.org/2000/svg" viewBox="0 0 100 100">
            <path d="M8.5808 5.9208C10.2108 5.9208 11.5408 4.5908 11.5408 2.9608C11.5408 1.3408 10.2108 0.0008 8.5808 0.0008C6.9508 0.0008 5.6208 1.3408 5.6208 2.9608C5.6208 4.5908 6.9508 5.9208 8.5808 5.9208ZM4.3008 28.4408C4.9708 28.4408 5.4708 28.0508 5.7208 27.1908C6.1408 25.6608 7.3708 20.4708 7.7908 19.2308C8.0808 18.3608 8.2108 18.1508 8.5808 18.1508C8.9508 18.1508 9.0808 18.3608 9.3708 19.2308C9.6208 19.9308 11.2408 26.4108 11.4508 27.1908C11.6908 28.0508 12.2008 28.4408 12.8708 28.4408C13.8008 28.4408 14.3908 27.5908 14.1408 26.6608C13.3708 23.4608 12.2108 18.4908 12.0008 17.2708C11.8008 16.1208 11.7508 13.9208 11.7408 12.4308C11.7408 12.2908 11.8908 12.2508 11.9708 12.3508L12.8808 13.6508C12.8708 12.5008 13.7908 11.5408 14.9608 11.5208L13.3708 9.1508C12.4008 7.7308 11.2108 6.9108 8.5808 6.9108C5.9508 6.9108 4.7408 7.7508 3.8008 9.1508L0.5008 14.0608C0.4008 14.2308 0.2408 14.4108 0.1608 14.6008C-0.1792 15.1608 0.0108 15.9808 0.7608 16.3908C1.3208 16.7108 2.0308 16.6308 2.4708 16.1408C2.8008 15.7608 4.2108 13.7808 5.1908 12.3508C5.2708 12.2508 5.4208 12.2908 5.4208 12.4308C5.4108 13.9208 5.3708 16.1208 5.1708 17.2708C4.9008 18.8208 3.1208 26.3408 3.0208 26.6608C2.7808 27.5908 3.3608 28.4408 4.3008 28.4408ZM19.0208 13.8608C20.2608 13.8608 21.2708 12.8708 21.2708 11.6208C21.2708 10.3908 20.2608 9.3908 19.0208 9.3908C17.7908 9.3908 16.7908 10.3908 16.7908 11.6208C16.7908 12.8708 17.7908 13.8608 19.0208 13.8608ZM16.2108 28.4408C16.7708 28.4408 17.2408 28.1108 17.4108 27.3908C17.6908 26.4108 18.5008 23.0308 18.7808 22.2108C18.8408 22.0008 18.9008 21.9408 18.9908 21.9408C19.0908 21.9408 19.1508 22.0008 19.2208 22.2108C19.5008 23.0308 20.3008 26.4108 20.5808 27.3908C20.7508 28.1108 21.2208 28.4408 21.7808 28.4408C22.6208 28.4408 23.1408 27.6708 22.9208 26.8708C22.8908 26.7808 21.7008 21.8108 21.5408 20.7908C21.4408 20.2408 21.4208 19.4908 21.4208 19.1108C21.4208 18.9808 21.5708 18.9408 21.6408 19.0408L23.1208 21.1608C23.5208 21.7408 24.1708 21.7608 24.6308 21.4808C25.0908 21.2008 25.3308 20.6108 24.9208 19.9908L22.9608 16.9408C22.0808 15.5908 21.0108 15.1308 19.5608 15.1308H18.9908C18.2408 15.1308 17.8208 14.8808 17.2508 14.2708L15.8008 12.6908C15.4108 12.2808 14.6208 12.2908 14.1308 12.7808C13.7308 13.1808 13.6408 13.8208 13.9708 14.3108C14.1308 14.5308 15.3908 16.0008 16.3508 17.1608C16.5308 17.3508 16.6208 17.6008 16.6208 17.9608C16.6208 18.6308 16.5908 19.9708 16.4508 20.7908C16.2908 21.8108 15.1008 26.7808 15.0808 26.8708C14.8608 27.6708 15.3908 28.4408 16.2108 28.4408Z" />
        </svg>
    