
        <svg xmlns="http://www.w3.org/2000/svg" viewBox="0 0 100 100">
            <path d="M11.3523 22.7064C17.6323 22.7064 22.7123 17.6264 22.7123 11.3564C22.7123 5.0764 17.6323 -0.0036 11.3523 -0.0036C5.0823 -0.0036 0.0023 5.0764 0.0023 11.3564C0.0023 17.6264 5.0823 22.7064 11.3523 22.7064ZM11.3523 22.1364C5.3923 22.1364 0.5723 17.3164 0.5723 11.3564C0.5723 5.3864 5.3923 0.5764 11.3523 0.5764C17.3223 0.5764 22.1323 5.3864 22.1323 11.3564C22.1323 17.3164 17.3223 22.1364 11.3523 22.1364ZM11.3123 5.9564C12.0823 5.9564 12.7123 5.3064 12.7123 4.5264C12.7123 3.7664 12.0823 3.1164 11.3123 3.1164C10.5323 3.1164 9.9023 3.7664 9.9023 4.5264C9.9023 5.3064 10.5323 5.9564 11.3123 5.9564ZM14.2723 18.6364C14.6523 18.6364 14.9323 18.3364 14.9323 17.9664V14.3064C14.9323 14.1464 14.8623 13.9264 14.6523 13.7964L12.2823 12.2364V8.2364C12.2823 8.1464 12.3523 8.0764 12.4423 8.0764H17.5823C17.9423 8.0764 18.2223 7.7764 18.2223 7.4164C18.2223 7.0564 17.9423 6.7664 17.5823 6.7664H10.2923C9.6823 6.7664 9.3423 6.9864 9.0223 7.3664L7.3023 9.4764C6.8823 9.9864 7.2023 10.7064 7.7423 10.7064H9.6423V11.6364C9.6423 12.2364 9.9923 12.7964 10.5323 13.0864L13.6123 14.7264V17.9664C13.6123 18.3364 13.9123 18.6364 14.2723 18.6364ZM8.9723 9.4364L9.6923 8.5664V9.4364ZM6.8523 18.4064C7.1023 18.6764 7.5123 18.7164 7.7923 18.4564L10.3823 16.1964C10.5123 16.0864 10.5623 16.0264 10.6023 15.9164L11.3623 14.0264L10.3223 13.4764C10.1523 13.3864 10.0223 13.2864 9.9823 13.2264L9.4123 15.2764L6.9123 17.4864C6.6423 17.7064 6.6123 18.1364 6.8523 18.4064Z" />
        </svg>
    