
        <svg xmlns="http://www.w3.org/2000/svg" viewBox="0 0 100 100">
            <path d="M12.2223 24.4436C18.9723 24.4436 24.4423 18.9636 24.4423 12.2236C24.4423 5.4736 18.9723 0.0036 12.2223 0.0036C5.4823 0.0036 0.0023 5.4736 0.0023 12.2236C0.0023 18.9636 5.4823 24.4436 12.2223 24.4436ZM11.4823 20.1236C11.1523 19.9536 11.0123 19.5236 11.1823 19.1836L12.5623 16.4436L10.1923 14.7236C9.0023 13.8536 9.2823 12.2936 10.4423 11.7036L11.6323 11.1236C11.6723 11.0936 11.6623 11.0236 11.6123 11.0236H10.4923C10.3023 11.0236 10.1323 10.9536 10.0123 10.8436L8.0723 8.9136C7.8123 8.6636 7.7623 8.2536 8.0523 7.9536L9.0123 6.9936C9.1923 6.2136 9.4523 5.1236 9.9923 4.5836C10.9523 3.6236 11.7323 3.5936 12.3523 4.2336C12.9923 4.8636 12.9723 5.6236 12.0023 6.5936C11.4723 7.1236 10.3823 7.4136 9.6223 7.5736L9.1623 8.0236L10.7723 9.6436H13.2923C13.6023 9.6436 13.8523 9.7736 14.0823 10.0036L19.1623 15.0836C19.4323 15.3536 19.4323 15.7936 19.1623 16.0636C18.9123 16.3236 18.4723 16.3436 18.1923 16.0636L14.7523 12.6336C14.6623 12.5536 14.5523 12.5236 14.4523 12.5836L12.0023 13.8136L13.8723 15.6836C14.1923 15.9936 14.1723 16.3336 14.0323 16.6036L12.4223 19.8136C12.2323 20.1836 11.8123 20.2736 11.4823 20.1236ZM11.7823 4.8236C11.4523 4.5136 11.1823 4.6036 10.5923 5.1836C10.2623 5.5236 10.0923 6.1136 9.9623 6.6436C10.4523 6.4936 11.0723 6.3236 11.4123 6.0036C11.9923 5.4036 12.0823 5.1336 11.7823 4.8236ZM15.9723 10.3136C15.1723 10.3136 14.5223 9.6536 14.5223 8.8636C14.5223 8.0536 15.1723 7.4036 15.9723 7.4036C16.7723 7.4036 17.4123 8.0536 17.4123 8.8636C17.4123 9.6536 16.7723 10.3136 15.9723 10.3136ZM5.2223 16.8736C5.2223 16.4836 5.5423 16.1736 5.9223 16.1736H8.6823L9.2223 14.5636C9.2823 14.7036 9.4223 14.9036 9.8323 15.2036L10.5423 15.7036L9.8423 17.1236C9.7223 17.3636 9.4823 17.5736 9.2023 17.5736H5.9223C5.5423 17.5736 5.2223 17.2736 5.2223 16.8736Z" />
        </svg>
    