
        <svg xmlns="http://www.w3.org/2000/svg" viewBox="0 0 100 100">
            <path d="M11.9523 23.9041C18.5523 23.9041 23.9023 18.5541 23.9023 11.9541C23.9023 5.3541 18.5523 0.0041 11.9523 0.0041C5.3523 0.0041 0.0023 5.3541 0.0023 11.9541C0.0023 18.5541 5.3523 23.9041 11.9523 23.9041ZM11.9523 21.9141C6.4423 21.9141 1.9923 17.4641 1.9923 11.9541C1.9923 6.4441 6.4423 1.9941 11.9523 1.9941C17.4623 1.9941 21.9123 6.4441 21.9123 11.9541C21.9123 17.4641 17.4623 21.9141 11.9523 21.9141ZM15.0223 8.0541C15.8223 8.0541 16.4323 7.4141 16.4323 6.6341C16.4323 5.8341 15.8223 5.2241 15.0223 5.2241C14.2423 5.2241 13.6023 5.8341 13.6023 6.6341C13.6023 7.4141 14.2423 8.0541 15.0223 8.0541ZM10.6323 19.5841C10.9923 19.5841 11.3123 19.2841 11.3123 18.9241V12.8441C12.7723 12.6141 14.0523 11.6341 14.6723 10.3041C14.7323 10.1741 14.8723 10.1041 15.1323 10.1841L18.4123 11.2841C18.8523 11.4341 19.1723 11.1841 19.2823 10.8741C19.3723 10.5541 19.2523 10.1441 18.8323 10.0241L9.0323 6.7341C8.5623 6.5941 8.2623 6.8441 8.1723 7.1641C8.0623 7.4741 8.1823 7.8741 8.6023 8.0141L12.1323 9.2041C12.2923 9.2541 12.3623 9.4441 12.2623 9.6141C11.8923 10.2041 11.3323 10.5541 10.6323 10.5541H7.2923V7.2041C7.2923 6.8041 7.0223 6.5341 6.6123 6.5341C6.2123 6.5341 5.9423 6.8041 5.9423 7.2041V11.1641C5.9423 11.6141 6.1623 11.8241 6.5023 11.8741L9.4723 12.3641L9.9623 15.2941V18.9241C9.9623 19.2841 10.2523 19.5841 10.6323 19.5841Z" />
        </svg>
    