
        <svg xmlns="http://www.w3.org/2000/svg" viewBox="0 0 100 100">
            <path d="M17.9019 5.8714C19.5219 5.8714 20.8619 4.5214 20.8619 2.9514C20.8619 1.3314 19.5219 0.0014 17.9019 0.0014C16.2919 0.0014 15.0019 1.3314 15.0019 2.9514C15.0019 4.7114 16.2919 5.8714 17.9019 5.8714ZM0.3919 21.3414C0.9619 21.9614 1.9319 21.8814 2.6119 21.1614L7.2919 16.3314C7.4519 16.1714 7.5719 16.1214 7.8019 16.2214L11.7519 17.7214C14.0619 18.6014 16.1419 17.5314 17.3119 15.4214L19.4019 11.6014C20.3319 9.9414 20.0119 8.2114 18.4219 7.3814C16.9019 6.5314 15.2919 7.1714 14.3719 8.8714L11.3219 14.4414L8.7419 13.4914C7.4419 13.0114 6.3719 13.1614 5.3719 14.2114L0.4919 19.2514C-0.1781 19.9614 -0.1181 20.8214 0.3919 21.3414Z" />
        </svg>
    