
        <svg xmlns="http://www.w3.org/2000/svg" viewBox="0 0 100 100">
            <path d="M11.3523 22.7064C17.6323 22.7064 22.7123 17.6264 22.7123 11.3564C22.7123 5.0764 17.6323 -0.0036 11.3523 -0.0036C5.0823 -0.0036 0.0023 5.0764 0.0023 11.3564C0.0023 17.6264 5.0823 22.7064 11.3523 22.7064ZM11.3523 22.1364C5.3923 22.1364 0.5723 17.3164 0.5723 11.3564C0.5723 5.3864 5.3923 0.5764 11.3523 0.5764C17.3223 0.5764 22.1323 5.3864 22.1323 11.3564C22.1323 17.3164 17.3223 22.1364 11.3523 22.1364ZM11.1923 6.7164C11.9623 6.7164 12.6023 6.0864 12.6023 5.3064C12.6023 4.5364 11.9623 3.9064 11.1923 3.9064C10.4223 3.9064 9.7723 4.5364 9.7723 5.3064C9.7723 6.0864 10.4223 6.7164 11.1923 6.7164ZM6.8423 8.7764H8.9423C9.0423 8.7764 9.1123 8.8564 9.1023 8.9664L8.9023 11.6864C8.8323 12.6564 9.4023 13.2464 10.2323 13.4164L12.9123 13.9964L13.5023 16.8764C13.5723 17.2764 13.9823 17.4564 14.2723 17.4164C14.6323 17.3464 14.8723 16.9764 14.8023 16.6164L14.1423 13.2964C14.1023 13.0464 13.8723 12.8564 13.6423 12.7764L11.5423 12.1164L11.7223 9.6064C11.7323 9.4064 11.9323 9.3364 12.0823 9.4564L13.0623 10.2764C13.1823 10.3864 13.3223 10.4264 13.4923 10.4264H16.4723C16.8523 10.4264 17.1323 10.1464 17.1323 9.7764C17.1323 9.3964 16.8523 9.1164 16.4723 9.1164H13.7223L12.2923 7.9064C11.9323 7.6164 11.6023 7.4364 11.0723 7.4364H7.7423L8.4723 4.9764C8.5823 4.6264 8.3923 4.2564 8.0423 4.1464C7.6923 4.0464 7.2923 4.2564 7.1823 4.6064L6.2023 7.9064C6.0723 8.3464 6.2923 8.7764 6.8423 8.7764ZM9.6423 19.3564C9.9623 19.4364 10.3623 19.3164 10.4723 18.9164L11.4623 15.6164C11.4923 15.5264 11.4923 15.4264 11.4923 15.3264V14.1364L10.1323 13.8564C10.0423 13.8364 10.0423 13.8364 9.9823 13.8164L10.1623 15.3264L9.1923 18.5364C9.0923 18.8764 9.2923 19.2564 9.6423 19.3564Z" />
        </svg>
    