
        <svg xmlns="http://www.w3.org/2000/svg" viewBox="0 0 100 100">
            <path d="M11.7517 23.5048C18.2417 23.5048 23.5117 18.2448 23.5117 11.7548C23.5117 5.2648 18.2417 0.0048 11.7517 0.0048C5.2617 0.0048 0.0017 5.2648 0.0017 11.7548C0.0017 18.2448 5.2617 23.5048 11.7517 23.5048ZM11.7517 21.9848C6.0917 21.9848 1.5217 17.4148 1.5217 11.7548C1.5217 6.0948 6.0917 1.5148 11.7517 1.5148C17.4117 1.5148 21.9917 6.0948 21.9917 11.7548C21.9917 17.4148 17.4117 21.9848 11.7517 21.9848ZM14.1217 7.8548C14.8917 7.8548 15.5317 7.2348 15.5317 6.4448C15.5317 5.6648 14.8917 5.0248 14.1217 5.0248C13.3317 5.0248 12.7017 5.6648 12.7017 6.4448C12.7017 7.2348 13.3317 7.8548 14.1217 7.8548ZM9.3017 17.2148C9.5517 17.3448 9.9817 17.2848 10.1717 16.9148L11.7917 13.6748C11.9217 13.4248 11.8817 13.1448 11.6717 12.9348L9.7117 10.9848L10.7417 10.4648L13.7917 13.5048V13.7148C13.7917 14.0748 14.0817 14.3548 14.4517 14.3548C14.5117 14.3548 14.5617 14.3548 14.6217 14.3348L17.0717 16.7948C17.2117 16.9348 17.3017 16.9448 17.4517 16.9448H19.2217C19.3817 16.9448 19.5217 16.8148 19.5217 16.6248V16.3148C19.5217 16.1348 19.3917 15.9848 19.2217 15.9848H17.1717L15.0717 13.8848C15.0817 13.8248 15.0917 13.7848 15.0917 13.7148V10.8148C15.0917 10.6448 15.0617 10.4748 14.9017 10.3448L11.9717 7.4448C11.6517 7.1148 11.2117 6.9348 10.7617 6.9348H8.2717C7.6217 6.9348 7.4517 7.6248 7.8417 8.0248L8.6117 8.8048L8.3017 8.9148C7.1117 9.3948 6.7717 10.9448 7.8917 11.7548L10.3817 13.5948L9.0117 16.3448C8.8617 16.6548 8.9917 17.0348 9.3017 17.2148ZM12.1717 9.7548C12.2917 9.6748 12.4317 9.7148 12.5117 9.7948L13.7917 11.0748V12.6048L11.3417 10.1648ZM3.9217 14.6948H7.0117C7.2617 14.6948 7.4717 14.5348 7.5817 14.3348L8.3717 12.7548L7.5717 12.1748C7.3717 12.0248 7.1817 11.8448 7.1017 11.7148L6.5417 13.3948H3.9217C3.5617 13.3948 3.2817 13.6748 3.2817 14.0548C3.2817 14.4048 3.5617 14.6948 3.9217 14.6948Z" />
        </svg>
    