
        <svg xmlns="http://www.w3.org/2000/svg" viewBox="0 0 100 100">
            <path d="M16.0557 8.2207C16.4957 8.2307 16.8357 7.8707 16.8357 7.4407V4.3207H18.4457C19.2157 4.3207 19.5357 3.5707 19.0057 2.9807L16.6357 0.2907C16.2857 -0.0993 15.8457 -0.0993 15.4857 0.2907L13.0757 2.9807C12.5857 3.5207 12.8757 4.3207 13.6757 4.3207H15.2557L15.2657 7.4407C15.2657 7.8807 15.6057 8.2507 16.0557 8.2207ZM31.6657 11.0907C33.4757 11.0907 34.9357 9.5907 34.9357 7.8407C34.9357 6.0107 33.4757 4.5307 31.6657 4.5307C29.8357 4.5307 28.3757 6.0107 28.3757 7.8407C28.3757 9.6207 29.8357 11.0907 31.6657 11.0907ZM3.5357 14.9807C3.9457 15.4907 4.6857 14.9507 4.2857 14.4307C4.0257 14.0707 3.9557 13.8807 3.9557 13.5907C3.9557 13.1307 4.2757 12.8807 4.5357 12.5107C5.1457 12.2807 5.8557 12.1107 6.4757 12.0807C6.5957 11.9307 6.6657 11.7607 6.6657 11.5707C6.6657 10.9207 5.7857 10.6607 5.7857 9.5207C5.7857 9.0707 5.9357 8.6207 6.3057 8.1507C6.7157 7.6507 7.4657 8.1907 7.0657 8.7007C6.7957 9.0707 6.7357 9.2707 6.7357 9.5207C6.7357 10.3207 7.6157 10.5407 7.6157 11.5707C7.6157 11.8007 7.5657 11.9807 7.4957 12.1507C7.9757 12.2307 8.4657 12.3707 8.9057 12.5507C8.7157 12.8007 8.5657 13.1207 8.5657 13.5907C8.5657 14.0707 8.7157 14.5207 9.0757 14.9807C9.4857 15.4907 10.2257 14.9507 9.8257 14.4307C9.5857 14.0707 9.5057 13.8807 9.5057 13.5907C9.5057 13.1007 9.8757 12.8307 10.1357 12.4207L13.1457 8.5907C13.4857 8.1507 13.4257 7.7007 13.0157 7.3807C11.7057 6.3607 9.2457 5.6107 6.6757 5.6107C4.1257 5.6107 1.6457 6.3607 0.3657 7.3807C-0.0643 7.7007 -0.1243 8.1507 0.2157 8.5907L3.3457 12.5707C3.1757 12.8307 3.0257 13.1307 3.0257 13.5907C3.0257 14.0707 3.1757 14.5207 3.5357 14.9807ZM3.3857 12.6307L3.3457 12.5707C3.5957 12.2107 3.9157 11.9607 3.9157 11.5707C3.9157 10.9207 3.0257 10.6607 3.0257 9.5207C3.0257 9.0707 3.1757 8.6207 3.5357 8.1507C3.9457 7.6507 4.6857 8.1907 4.2857 8.7007C4.0257 9.0707 3.9557 9.2707 3.9557 9.5207C3.9557 10.3207 4.8357 10.5407 4.8357 11.5707C4.8357 11.9807 4.6957 12.2807 4.5357 12.5107C4.3457 12.5807 4.1657 12.6607 4.0157 12.7507C3.7957 12.8607 3.5457 12.8307 3.3857 12.6307ZM9.3357 12.7507C9.2057 12.6807 9.0557 12.6107 8.9057 12.5507C9.1657 12.2007 9.4557 11.9507 9.4557 11.5707C9.4557 10.9207 8.5657 10.6607 8.5657 9.5207C8.5657 9.0707 8.7157 8.6207 9.0957 8.1507C9.4857 7.6507 10.2257 8.1907 9.8257 8.7007C9.5857 9.0707 9.5057 9.2707 9.5057 9.5207C9.5057 10.3207 10.3757 10.5407 10.3757 11.5707C10.3757 11.9407 10.2757 12.2007 10.1357 12.4207L9.9657 12.6307C9.8157 12.8307 9.5757 12.8607 9.3357 12.7507ZM16.0357 10.7007C15.6057 10.7007 15.2557 11.0507 15.2557 11.5007V14.6007H13.6757C12.8557 14.6007 12.5857 15.4207 13.0657 15.9507L15.4857 18.6307C15.8457 19.0207 16.2857 19.0407 16.6257 18.6407L19.0057 15.9307C19.5057 15.3607 19.2057 14.6007 18.4457 14.6007H16.8457L16.8357 11.5007C16.8357 11.0607 16.4757 10.7207 16.0357 10.7007ZM6.2857 14.9807C6.7057 15.4907 7.4557 14.9507 7.0657 14.4307C6.7957 14.0707 6.7357 13.8807 6.7357 13.5907C6.7357 12.9907 7.2657 12.7207 7.4957 12.1507C7.2157 12.1007 6.9357 12.0807 6.6757 12.0807C6.6057 12.0807 6.5457 12.0807 6.4757 12.0807C6.2157 12.4507 5.7857 12.8207 5.7857 13.5907C5.7857 14.0707 5.9357 14.5207 6.2857 14.9807ZM12.2657 28.3707C12.8957 29.0407 13.9857 28.9907 14.7857 28.1707L19.9457 22.8507C20.1157 22.6607 20.2457 22.6107 20.5157 22.7207L24.4857 24.2207C27.0757 25.2007 29.6257 24.2907 30.7857 22.1807L33.3157 17.5707C34.3357 15.7107 34.0057 13.8207 32.2457 12.8907C30.5457 11.9407 28.7757 12.6507 27.7457 14.5407L24.3957 20.6407L21.5557 19.6007C20.1057 19.0707 18.8857 19.2507 17.7157 20.4607L12.3757 26.0007C11.5957 26.8007 11.6657 27.7707 12.2657 28.3707Z" />
        </svg>
    