
        <svg xmlns="http://www.w3.org/2000/svg" viewBox="0 0 100 100">
            <path d="M13.5217 4.8008C14.8317 4.8008 15.9117 3.7108 15.9117 2.3908C15.9117 1.0808 14.8317 0.0008 13.5217 0.0008C12.1917 0.0008 11.1117 1.0808 11.1117 2.3908C11.1117 3.7108 12.1917 4.8008 13.5217 4.8008ZM1.7317 3.3208L9.8017 7.6608C10.0617 7.7908 10.2317 8.0708 10.1417 8.3808L9.3417 11.2708C11.1717 11.7908 12.0517 12.9108 13.4017 12.9108C13.8717 12.9108 14.2817 12.7708 14.7117 12.5708L15.7717 8.6608C15.8817 8.2708 15.9817 8.0508 16.3917 7.8408L24.8517 3.3208C25.4617 3.0008 25.6917 2.2408 25.3817 1.6408C25.0317 1.0308 24.2917 0.8008 23.6817 1.1208L15.2817 5.5708C13.9817 6.2708 12.7217 6.3508 11.1417 5.5108L2.9017 1.1208C2.3017 0.8008 1.5317 1.0308 1.2317 1.6408C0.8917 2.2408 1.1217 3.0008 1.7317 3.3208ZM0.3717 15.4608H1.3817C4.2817 15.4608 5.1017 13.5308 7.3917 13.5308C9.6917 13.5308 10.5117 15.4608 13.4017 15.4608C16.3017 15.4608 17.1217 13.5308 19.4217 13.5308C21.7117 13.5308 22.5317 15.4608 25.4317 15.4608H26.4417C26.6517 15.4608 26.8117 15.2908 26.8117 15.0808C26.8117 14.8808 26.6517 14.7208 26.4417 14.7208H25.4317C23.0417 14.7208 22.1917 12.7808 19.4217 12.7808C16.6417 12.7808 15.8117 14.7208 13.4017 14.7208C11.0017 14.7208 10.1717 12.7808 7.3917 12.7808C4.6217 12.7808 3.7717 14.7208 1.3817 14.7208H0.3717C0.1617 14.7208 0.0017 14.8808 0.0017 15.0808C0.0017 15.2908 0.1617 15.4608 0.3717 15.4608ZM7.0417 16.8308C7.3217 16.8308 7.5517 16.6208 7.5517 16.3408C7.5517 16.0508 7.3217 15.8308 7.0417 15.8308C6.7617 15.8308 6.5517 16.0508 6.5517 16.3408C6.5517 16.6208 6.7617 16.8308 7.0417 16.8308ZM19.7917 16.8308C20.0717 16.8308 20.3017 16.6208 20.3017 16.3408C20.3017 16.0508 20.0717 15.8308 19.7917 15.8308C19.5117 15.8308 19.3017 16.0508 19.3017 16.3408C19.3017 16.6208 19.5117 16.8308 19.7917 16.8308ZM4.9117 17.3208C5.1917 17.3208 5.4117 17.1108 5.4117 16.8308C5.4117 16.5508 5.1917 16.3208 4.9117 16.3208C4.6317 16.3208 4.4217 16.5508 4.4217 16.8308C4.4217 17.1108 4.6317 17.3208 4.9117 17.3208ZM9.1617 17.3208C9.4417 17.3208 9.6517 17.1108 9.6517 16.8308C9.6517 16.5508 9.4417 16.3208 9.1617 16.3208C8.8817 16.3208 8.6617 16.5508 8.6617 16.8308C8.6617 17.1108 8.8817 17.3208 9.1617 17.3208ZM17.6817 17.3208C17.9617 17.3208 18.1717 17.1108 18.1717 16.8308C18.1717 16.5508 17.9617 16.3208 17.6817 16.3208C17.4017 16.3208 17.1817 16.5508 17.1817 16.8308C17.1817 17.1108 17.4017 17.3208 17.6817 17.3208ZM21.9217 17.3208C22.2117 17.3208 22.4317 17.1108 22.4317 16.8308C22.4317 16.5508 22.2117 16.3208 21.9217 16.3208C21.6417 16.3208 21.4317 16.5508 21.4317 16.8308C21.4317 17.1108 21.6417 17.3208 21.9217 17.3208ZM2.9017 18.2308C3.1917 18.2308 3.4117 18.0208 3.4117 17.7308C3.4117 17.4508 3.1917 17.2408 2.9017 17.2408C2.6217 17.2408 2.4117 17.4508 2.4117 17.7308C2.4117 18.0208 2.6217 18.2308 2.9017 18.2308ZM11.1917 18.2308C11.4717 18.2308 11.6917 18.0208 11.6917 17.7308C11.6917 17.4508 11.4717 17.2408 11.1917 17.2408C10.9117 17.2408 10.7017 17.4508 10.7017 17.7308C10.7017 18.0208 10.9117 18.2308 11.1917 18.2308ZM15.6417 18.2308C15.9217 18.2308 16.1517 18.0208 16.1517 17.7308C16.1517 17.4508 15.9217 17.2408 15.6417 17.2408C15.3617 17.2408 15.1517 17.4508 15.1517 17.7308C15.1517 18.0208 15.3617 18.2308 15.6417 18.2308ZM23.9317 18.2308C24.2117 18.2308 24.4317 18.0208 24.4317 17.7308C24.4317 17.4508 24.2117 17.2408 23.9317 17.2408C23.6517 17.2408 23.4417 17.4508 23.4417 17.7308C23.4417 18.0208 23.6517 18.2308 23.9317 18.2308ZM0.7417 18.6008C1.0217 18.6008 1.2317 18.3908 1.2317 18.1008C1.2317 17.8208 1.0217 17.6008 0.7417 17.6008C0.4617 17.6008 0.2317 17.8208 0.2317 18.1008C0.2317 18.3908 0.4617 18.6008 0.7417 18.6008ZM13.4217 18.6008C13.7017 18.6008 13.9217 18.3908 13.9217 18.1008C13.9217 17.8208 13.7017 17.6008 13.4217 17.6008C13.1417 17.6008 12.9217 17.8208 12.9217 18.1008C12.9217 18.3908 13.1417 18.6008 13.4217 18.6008ZM26.0817 18.6008C26.3717 18.6008 26.5817 18.3908 26.5817 18.1008C26.5817 17.8208 26.3717 17.6008 26.0817 17.6008C25.8017 17.6008 25.5817 17.8208 25.5817 18.1008C25.5817 18.3908 25.8017 18.6008 26.0817 18.6008Z" />
        </svg>
    