
        <svg xmlns="http://www.w3.org/2000/svg" viewBox="0 0 100 100">
            <path d="M7.3517 32.3648C8.0517 32.3648 8.6417 31.8048 8.6417 31.0748V25.1348L11.2217 21.3248C11.3517 21.1248 11.6417 21.1848 11.6717 21.4348L12.0617 24.7848C12.0917 24.9948 12.1317 25.1148 12.2117 25.3348L14.5617 31.5448C14.8717 32.3448 15.6317 32.5148 16.2217 32.2948C16.8117 32.0748 17.2817 31.4448 16.9817 30.6348L14.6617 24.4848V13.1248C14.6617 11.8348 14.1217 10.4748 12.8517 9.9448L12.0917 9.6348C10.6917 9.0448 9.3517 9.2248 8.1517 10.0748L5.3717 12.0848L2.4217 10.8548L8.6417 2.2348H10.6517C11.2717 2.2348 11.7817 1.7248 11.7817 1.1248C11.7817 0.4948 11.2717 0.0048 10.6517 0.0048H8.6717C8.4217 0.0048 8.1517 0.1148 8.0017 0.3248L0.2917 10.9948C-0.2083 11.6848 -0.0583 12.5948 0.7017 12.9248L5.0117 14.7748C5.2217 14.8548 5.3817 14.8748 5.6517 14.8748H8.5217C8.9317 14.8748 9.0517 15.1048 9.0517 15.4148V18.6948L6.1717 24.1448C6.0717 24.3548 6.0317 24.5248 6.0317 24.7648V31.0748C6.0317 31.8048 6.6117 32.3648 7.3517 32.3648ZM13.5117 8.5848C14.9917 8.5848 16.1917 7.3948 16.1917 5.8948C16.1917 4.4148 14.9917 3.2248 13.5117 3.2248C12.0217 3.2248 10.8117 4.4148 10.8117 5.8948C10.8117 7.3948 12.0217 8.5848 13.5117 8.5848Z" />
        </svg>
    