
        <svg xmlns="http://www.w3.org/2000/svg" viewBox="0 0 100 100">
            <path d="M12.1023 24.2064C18.7823 24.2064 24.2123 18.7864 24.2123 12.1064C24.2123 5.4264 18.7823 -0.0036 12.1023 -0.0036C5.4223 -0.0036 0.0023 5.4264 0.0023 12.1064C0.0023 18.7864 5.4223 24.2064 12.1023 24.2064ZM12.1023 21.8164C6.7223 21.8164 2.3823 17.4864 2.3823 12.1064C2.3823 6.7264 6.7223 2.3764 12.1023 2.3764C17.4823 2.3764 21.8323 6.7264 21.8323 12.1064C21.8323 17.4864 17.4823 21.8164 12.1023 21.8164ZM6.0623 6.4664H6.4823C6.4723 6.2064 6.5423 5.9064 6.7023 5.6864H6.0623C5.8523 5.6864 5.6723 5.8564 5.6723 6.0664C5.6723 6.2964 5.8523 6.4664 6.0623 6.4664ZM9.2823 6.4664H15.1723L15.5823 5.8464C15.6323 5.7864 15.6723 5.7264 15.7123 5.6864H8.7423C8.8023 5.7464 8.8323 5.7964 8.8723 5.8464ZM17.9923 6.4664H18.2823C18.5023 6.4664 18.6823 6.2964 18.6823 6.0664C18.6823 5.8564 18.5023 5.6864 18.2823 5.6864H17.7623C17.9323 5.8864 18.0123 6.1864 17.9923 6.4664ZM9.0323 15.3164C9.8123 16.2564 11.0623 16.1164 11.6923 15.1764L17.3223 6.7464C17.5323 6.4364 17.4423 6.0264 17.1223 5.8164C16.8123 5.6064 16.3823 5.6864 16.1723 5.9964L13.6123 9.8564C13.3123 10.2964 12.8123 10.5364 12.2823 10.5364C11.7223 10.5364 11.1323 10.2664 10.7723 9.7264L8.2823 5.9964C8.0723 5.6864 7.6623 5.6064 7.3523 5.8164C7.0323 6.0264 6.9523 6.4364 7.1623 6.7464L10.2023 11.3164C10.3523 11.5164 10.4523 11.6364 10.2023 12.0164L9.4823 13.1164L7.6023 11.4864C7.3223 11.2464 6.9023 11.2264 6.6023 11.5264L4.2823 13.8664C4.0223 14.1464 4.0223 14.5564 4.2823 14.8164C4.5823 15.0964 4.9823 15.0564 5.2223 14.8164L7.0923 12.9764ZM12.2823 9.8664C13.0423 9.8664 13.6723 9.2464 13.6723 8.4764C13.6723 7.6964 13.0423 7.0664 12.2823 7.0664C11.5123 7.0664 10.8723 7.6964 10.8723 8.4764C10.8723 9.2464 11.5123 9.8664 12.2823 9.8664ZM10.3723 19.9664C10.5823 19.6564 10.5123 19.2564 10.1723 19.0464L8.1723 17.7064L9.4323 16.3364C9.1423 16.2064 8.8523 15.9864 8.5923 15.6864L8.1423 15.1364L6.5823 17.4464C6.3723 17.7464 6.4323 18.1864 6.7623 18.3964L9.4423 20.1564C9.7723 20.3664 10.1723 20.2764 10.3723 19.9664Z" />
        </svg>
    