
        <svg xmlns="http://www.w3.org/2000/svg" viewBox="0 0 100 100">
            <path d="M0.3165 8.0398C0.7765 8.4598 1.5265 8.4598 1.9765 8.0398L5.0965 4.8998L6.2365 6.0698C6.9965 6.8298 8.1265 6.3798 8.1765 5.3098L8.3865 1.0898C8.4165 0.3998 7.9865 -0.0302 7.2865 -0.0002L3.0565 0.1898C2.0465 0.2398 1.5265 1.2998 2.3065 2.1198L3.4665 3.2698L0.3265 6.3798C-0.1035 6.8498 -0.1035 7.5998 0.3165 8.0398ZM25.2765 12.3398C27.3665 12.3398 29.0265 10.6298 29.0265 8.6398C29.0265 6.5498 27.3665 4.8898 25.2765 4.8898C23.2065 4.8898 21.5765 6.5498 21.5765 8.6398C21.5765 10.6298 23.2065 12.3398 25.2765 12.3398ZM4.9865 10.1698C4.9865 10.8398 5.4965 11.3298 6.1665 11.3298H10.5665V12.9898C10.5665 14.0298 11.6565 14.5498 12.4465 13.8298L15.5765 10.9798C16.0765 10.5098 16.1265 9.8798 15.5765 9.3998L12.4465 6.5598C11.6965 5.8998 10.5665 6.2598 10.5665 7.4098V9.0398H6.1665C5.4965 9.0398 4.9865 9.5298 4.9865 10.1698ZM0.3165 12.3098C-0.1035 12.7498 -0.1035 13.4998 0.3265 13.9598L3.4665 17.0598L2.3065 18.2098C1.5265 19.0498 2.0465 20.0998 3.0565 20.1498L7.2865 20.3498C7.9865 20.3698 8.4165 19.9498 8.3865 19.2398L8.1765 15.0398C8.1265 13.9698 6.9965 13.5098 6.2365 14.2598L5.0965 15.4398L1.9765 12.3098C1.5265 11.8698 0.7765 11.8698 0.3165 12.3098ZM3.5065 31.9098C4.3265 32.7298 5.6365 32.6698 6.6065 31.6498L12.2965 25.7698C12.5265 25.5398 12.7065 25.5098 13.0165 25.6298L17.1265 27.1498C19.9765 28.2098 23.2565 26.9398 24.6765 24.3698L27.2165 19.7598C28.3765 17.6298 27.9865 15.5798 26.0165 14.4698C24.0965 13.3998 22.0965 14.1698 20.9165 16.2898L17.2465 22.9498L14.2465 21.8198C12.4565 21.1398 10.9365 21.3698 9.4765 22.8798L3.6265 28.9898C2.6665 29.9998 2.7565 31.1898 3.5065 31.9098Z" />
        </svg>
    