
        <svg xmlns="http://www.w3.org/2000/svg" viewBox="0 0 100 100">
            <path d="M17.4817 4.7037C18.7717 4.7037 19.8317 3.6438 19.8317 2.3438C19.8317 1.0538 18.7717 0.0038 17.4817 0.0038C16.1817 0.0038 15.1317 1.0538 15.1317 2.3438C15.1317 3.6438 16.1817 4.7037 17.4817 4.7037ZM0.2917 7.3837H7.7817L7.0917 8.0738C6.1717 8.9637 6.1717 10.5038 7.0917 11.4038L9.0017 13.3038V15.6238L6.6917 13.3138C6.5417 13.1738 6.4017 13.1738 6.2817 13.3038C6.1517 13.4338 6.1517 13.5838 6.2817 13.7138L9.0017 16.4338V18.9838L3.9117 13.8938C3.7617 13.7538 3.6217 13.7538 3.5017 13.8838C3.3717 14.0138 3.3717 14.1538 3.5017 14.2938L14.9517 25.7438C15.7617 26.5538 16.4017 26.7738 17.1317 26.7738C17.3017 26.7738 17.4217 26.6438 17.4217 26.4838C17.4217 26.3238 17.3017 26.1938 17.1317 26.1938C16.3217 26.1938 16.0617 26.0638 15.3917 25.3738L10.3917 20.3838C10.8517 20.2538 11.1917 19.8138 11.1917 19.3138V18.6238L12.3917 19.8138C12.4117 19.8438 12.4217 19.8538 12.4417 19.8738L17.7317 25.1638C18.5417 25.9738 19.1817 26.1938 19.9117 26.1938C20.0717 26.1938 20.2017 26.0638 20.2017 25.8938C20.2017 25.7438 20.0717 25.6037 19.9117 25.6037C19.1017 25.6037 18.8417 25.4738 18.1617 24.7838L13.5017 20.1238C13.9617 19.9938 14.2817 19.5738 14.2817 19.0538V13.8738C14.2817 13.5838 14.1817 13.2738 13.9917 13.1038L11.1317 10.2638L13.6717 7.7137C13.8417 7.5438 14.0817 7.5438 14.2517 7.7137L16.0317 9.4938C16.2417 9.6938 16.5217 9.7938 16.8017 9.7938H21.9917C22.1217 9.7938 22.2417 9.7838 22.3617 9.7338V19.0338C22.3617 19.1938 22.4917 19.3238 22.6517 19.3238C22.8117 19.3238 22.9417 19.1938 22.9417 19.0338V9.2538C23.0417 9.0938 23.1017 8.9038 23.1017 8.6938C23.1017 8.0938 22.6017 7.6038 21.9917 7.6038H17.2617L13.4017 3.7237C12.9117 3.2338 12.2117 2.9438 11.5217 2.9438H7.4617C6.3517 2.9438 6.0517 4.1638 6.7217 4.8438L8.5317 6.6438L8.3817 6.7938H0.2917C0.1317 6.7938 0.0017 6.9338 0.0017 7.0938C0.0017 7.2538 0.1317 7.3837 0.2917 7.3837ZM11.1917 13.4438L12.0917 14.3238V18.7138L11.1917 17.8238Z" />
        </svg>
    