
        <svg xmlns="http://www.w3.org/2000/svg" viewBox="0 0 100 100">
            <path d="M11.3523 22.7064C17.6323 22.7064 22.7123 17.6264 22.7123 11.3564C22.7123 5.0764 17.6323 -0.0036 11.3523 -0.0036C5.0823 -0.0036 0.0023 5.0764 0.0023 11.3564C0.0023 17.6264 5.0823 22.7064 11.3523 22.7064ZM11.3523 22.1364C5.3923 22.1364 0.5723 17.3164 0.5723 11.3564C0.5723 5.3864 5.3923 0.5764 11.3523 0.5764C17.3223 0.5764 22.1323 5.3864 22.1323 11.3564C22.1323 17.3164 17.3223 22.1364 11.3523 22.1364ZM11.3523 6.5964C12.1123 6.5964 12.7623 5.9564 12.7623 5.1764C12.7623 4.3964 12.1123 3.7764 11.3523 3.7764C10.5823 3.7764 9.9423 4.3964 9.9423 5.1764C9.9423 5.9564 10.5823 6.5964 11.3523 6.5964ZM11.3523 12.6464L12.9123 15.0864L14.0623 18.2764C14.2023 18.6464 14.5423 18.7364 14.8523 18.6464C15.1423 18.5364 15.2923 18.1764 15.1923 17.8664L14.0123 14.6464L12.8523 11.4264V8.5264C12.8523 8.3864 12.9223 8.2664 13.0423 8.2064L16.9923 6.0964C17.2823 5.9364 17.4023 5.5764 17.2423 5.2864C17.0823 5.0064 16.7223 4.8964 16.4423 5.0364L12.6123 7.0664C12.2023 7.2864 11.7823 7.3964 11.3523 7.3964C10.9323 7.3964 10.5223 7.2864 10.1023 7.0664L6.2723 5.0364C5.9923 4.8964 5.6223 5.0064 5.4823 5.2864C5.3123 5.5764 5.4423 5.9364 5.7223 6.0964L9.6723 8.2064C9.7823 8.2664 9.8823 8.3864 9.8823 8.5264V11.4264L8.6923 14.6464L7.5223 17.8664C7.4223 18.1764 7.5723 18.5364 7.8723 18.6464C8.1723 18.7364 8.5223 18.6464 8.6523 18.2764L9.7923 15.0864Z" />
        </svg>
    