
        <svg xmlns="http://www.w3.org/2000/svg" viewBox="0 0 100 100">
            <path d="M11.3523 22.7064C17.6023 22.7064 22.7123 17.6064 22.7123 11.3564C22.7123 5.1064 17.6023 -0.0036 11.3523 -0.0036C5.1123 -0.0036 0.0023 5.1064 0.0023 11.3564C0.0023 17.6064 5.1123 22.7064 11.3523 22.7064ZM11.9723 6.5964C11.1923 6.5964 10.5823 5.9764 10.5823 5.2164C10.5823 4.4364 11.1923 3.8164 11.9723 3.8164C12.7423 3.8164 13.3623 4.4364 13.3623 5.2164C13.3623 5.9764 12.7423 6.5964 11.9723 6.5964ZM6.0223 18.5664C5.7623 18.3064 5.7523 17.8564 6.0223 17.6164L8.5823 15.0664L8.1223 13.2464C7.9223 12.4764 8.0323 11.6764 8.3523 10.9764L9.3423 9.0264C9.4223 8.8964 9.3323 8.7464 9.1623 8.7464H7.8523L6.7823 10.8664C6.6123 11.2164 6.2223 11.3364 5.8923 11.1664C5.5323 11.0064 5.4223 10.5964 5.5923 10.2764L6.8423 7.7664C6.9523 7.5464 7.1723 7.3964 7.4423 7.3964H11.9323C12.4523 7.3964 12.9023 7.5864 13.2923 7.9664L14.9923 9.6664L17.9523 10.5464C18.3123 10.6564 18.5023 11.0264 18.4223 11.3864C18.2723 11.8264 17.8523 11.9264 17.5823 11.8364L14.4423 10.9064C14.3323 10.8864 14.2223 10.8164 14.1523 10.7464L12.6023 9.1664C12.4923 9.0564 12.3623 9.0864 12.3023 9.2064L10.9123 11.9964L13.0823 14.1564C13.1623 14.2264 13.2223 14.3364 13.2423 14.4364L14.3323 17.8964C14.4623 18.2364 14.2723 18.6064 13.9023 18.7264C13.5923 18.8164 13.1923 18.6664 13.0623 18.2764L12.0223 15.0264L9.9223 13.2064C9.8823 13.1764 9.8123 13.1964 9.8123 13.2664L9.9723 15.1864C9.9823 15.4464 9.9723 15.5864 9.7923 15.7364L6.9623 18.5664C6.6823 18.8464 6.2823 18.8064 6.0223 18.5664ZM17.7823 15.6364C16.9223 15.6364 16.2323 14.9364 16.2323 14.0964C16.2323 13.2464 16.9223 12.5764 17.7823 12.5764C18.6223 12.5764 19.3023 13.2464 19.3023 14.0964C19.3023 14.9364 18.6223 15.6364 17.7823 15.6364Z" />
        </svg>
    