
        <svg xmlns="http://www.w3.org/2000/svg" viewBox="0 0 100 100">
            <path d="M12.2223 24.4436C18.9723 24.4436 24.4423 18.9736 24.4423 12.2236C24.4423 5.4736 18.9723 0.0036 12.2223 0.0036C5.4723 0.0036 0.0023 5.4736 0.0023 12.2236C0.0023 18.9736 5.4723 24.4436 12.2223 24.4436ZM12.2223 21.7636C6.9523 21.7636 2.6823 17.4936 2.6823 12.2236C2.6823 6.9536 6.9523 2.6836 12.2223 2.6836C17.4923 2.6836 21.7623 6.9536 21.7623 12.2236C21.7623 17.4936 17.4923 21.7636 12.2223 21.7636ZM17.9723 9.6936C17.9723 10.8236 17.7423 12.0136 17.2523 13.4036C17.0523 14.0136 17.9023 14.2336 18.0923 13.7136C18.6123 12.3836 18.8423 11.1136 18.8423 9.6936C18.8423 8.2836 18.6123 7.0236 18.0923 5.6636C17.9023 5.1336 17.0523 5.3436 17.2523 5.9636C17.7423 7.3636 17.9723 8.5436 17.9723 9.6936ZM11.9923 8.3636C12.7623 8.3636 13.3823 7.7436 13.3823 6.9836C13.3823 6.2236 12.7623 5.6136 11.9923 5.6136C11.2423 5.6136 10.6123 6.2236 10.6123 6.9836C10.6123 7.7436 11.2423 8.3636 11.9923 8.3636ZM16.7923 8.9836H10.2623C10.3623 8.8636 10.3823 8.6836 10.3523 8.5236C10.2623 8.2136 9.9723 7.9836 9.4923 8.0836L7.6723 8.4936C6.4423 8.7736 6.4923 10.3436 7.7723 10.3436H9.7523C9.9123 10.3436 10.0423 10.4736 10.0423 10.6436V13.2436L8.1323 15.1136C7.8623 15.3736 7.6923 15.6536 7.5823 16.0636L6.8923 18.6936C6.7623 19.1836 7.0423 19.4836 7.3923 19.5436C7.7123 19.6036 8.0823 19.4536 8.1923 19.0436L8.8523 16.5836C8.9323 16.3436 8.9623 16.2536 9.1423 16.1036L10.6423 14.8236C10.9223 14.5736 11.4123 14.6336 11.6023 14.9736L12.5123 16.5536L13.9123 19.1836C14.1423 19.6136 14.6123 19.6536 14.9223 19.4636C15.1923 19.2736 15.3023 18.9236 15.1023 18.5536L13.7023 15.8936L12.8823 14.0136C12.7423 13.7036 12.6723 13.3636 12.6723 13.0036V10.6436C12.6723 10.4736 12.7923 10.3436 12.9623 10.3436H16.7923C17.1723 10.3436 17.4723 10.0536 17.4723 9.6936C17.4723 9.3036 17.1723 8.9836 16.7923 8.9836Z" />
        </svg>
    