
        <svg xmlns="http://www.w3.org/2000/svg" viewBox="0 0 100 100">
            <path d="M11.7523 23.5048C18.2323 23.5048 23.5123 18.2348 23.5123 11.7548C23.5123 5.2748 18.2323 0.0048 11.7523 0.0048C5.2723 0.0048 0.0023 5.2748 0.0023 11.7548C0.0023 18.2348 5.2723 23.5048 11.7523 23.5048ZM11.7423 6.4948C10.9423 6.4948 10.3023 5.8448 10.3023 5.0348C10.3023 4.2548 10.9423 3.6048 11.7423 3.6048C12.5423 3.6048 13.1823 4.2548 13.1823 5.0348C13.1823 5.8448 12.5423 6.4948 11.7423 6.4948ZM3.8823 12.4248C3.8823 12.2148 4.0423 12.0748 4.2323 12.0748H4.7823V10.5948C4.7823 10.3548 4.9323 10.1948 5.1723 10.1948H5.6623C5.8823 10.1948 6.0423 10.3548 6.0423 10.5948V12.0748H7.4623L9.4423 8.0648C9.7423 7.4648 10.2823 7.1348 10.9523 7.1348H12.5423C13.2223 7.1348 13.7623 7.4648 14.0523 8.0648L16.0323 12.0748H17.4423V10.5948C17.4423 10.3548 17.6023 10.1948 17.8223 10.1948H18.3123C18.5423 10.1948 18.7023 10.3548 18.7023 10.5948V12.0748H19.2523C19.4423 12.0748 19.6023 12.2148 19.6023 12.4248C19.6023 12.6048 19.4423 12.7648 19.2523 12.7648H18.7023V14.2348C18.7023 14.4648 18.5423 14.6348 18.3123 14.6348H17.8223C17.6023 14.6348 17.4423 14.4648 17.4423 14.2348V12.7648H16.3723L16.4623 12.9648C16.6123 13.3048 16.4923 13.6948 16.1823 13.8548C15.8423 14.0148 15.4423 13.8748 15.2923 13.5548L14.8923 12.7648H8.5923L8.2023 13.5548C8.0423 13.8748 7.6423 14.0148 7.3123 13.8548C7.0123 13.6948 6.8623 13.3048 7.0223 12.9648L7.1223 12.7648H6.0423V14.2348C6.0423 14.4648 5.8823 14.6348 5.6623 14.6348H5.1723C4.9323 14.6348 4.7823 14.4648 4.7823 14.2348V12.7648H4.2323C4.0423 12.7648 3.8823 12.6048 3.8823 12.4248ZM8.9323 12.0748H14.5523L13.4423 9.8048C13.3623 9.6648 13.1923 9.7248 13.1923 9.8348V11.5348H10.3023V9.8348C10.3023 9.7148 10.1323 9.6648 10.0523 9.8048ZM10.0523 13.3048H13.4423L14.2523 15.5848C14.2723 15.6548 14.2823 15.7248 14.2923 15.7848L14.9223 18.7148C15.0223 19.1648 14.7623 19.4548 14.4623 19.5448C14.1323 19.6248 13.7423 19.4748 13.6423 18.9948L13.0223 16.1648L11.7423 13.7448L10.4623 16.1648L9.8423 18.9948C9.7523 19.4548 9.3823 19.6148 9.0723 19.5448C8.7423 19.4848 8.4623 19.1848 8.5623 18.7148L9.1923 15.7848C9.2023 15.7248 9.2223 15.6648 9.2323 15.5848Z" />
        </svg>
    