
        <svg xmlns="http://www.w3.org/2000/svg" viewBox="0 0 100 100">
            <path d="M11.7523 23.5048C18.2423 23.5048 23.5123 18.2448 23.5123 11.7548C23.5123 5.2648 18.2423 0.0048 11.7523 0.0048C5.2623 0.0048 0.0023 5.2648 0.0023 11.7548C0.0023 18.2448 5.2623 23.5048 11.7523 23.5048ZM11.7523 21.9848C6.0923 21.9848 1.5223 17.4148 1.5223 11.7548C1.5223 6.0948 6.0923 1.5148 11.7523 1.5148C17.4123 1.5148 21.9923 6.0948 21.9923 11.7548C21.9923 17.4148 17.4123 21.9848 11.7523 21.9848ZM10.5823 6.4848C11.3523 6.4848 12.0023 5.8348 12.0023 5.0748C12.0023 4.2848 11.3523 3.6548 10.5823 3.6548C9.8123 3.6548 9.1723 4.2848 9.1723 5.0748C9.1723 5.8348 9.8123 6.4848 10.5823 6.4848ZM9.3023 12.5948L11.7623 13.1648L11.0623 15.4948C10.9223 15.9348 11.1923 16.2548 11.5223 16.3248C11.8223 16.3948 12.1723 16.2648 12.2923 15.8648L13.1623 12.9348C13.2823 12.5348 13.1123 12.1848 12.7423 12.0548L10.4723 11.2348L10.8123 8.8948C10.8423 8.7748 10.9423 8.7348 11.0623 8.7848L12.2023 9.3048C12.3523 9.3748 12.4723 9.3948 12.6523 9.4148L15.5123 9.7048C15.8823 9.7348 16.1923 9.4848 16.2223 9.1248C16.2523 8.7748 15.9923 8.4448 15.6423 8.4248L12.7223 8.1348L10.5223 7.1248C9.5823 6.6948 8.6023 7.1848 8.4823 8.1248L8.1323 10.8748C8.0323 11.6848 8.5223 12.4248 9.3023 12.5948ZM17.4123 7.7548C17.3323 7.5848 17.1223 7.5148 16.9423 7.5948C16.6423 7.7348 16.3623 7.8948 16.1323 8.0348C16.3623 8.1548 16.5223 8.3348 16.6423 8.5648C16.8023 8.4648 17.0123 8.3248 17.2223 8.2148C17.4223 8.1048 17.4823 7.9248 17.4123 7.7548ZM8.6623 19.6148H11.0623C11.2423 19.6148 11.4023 19.4548 11.4023 19.2748V18.0548H13.4523C13.6423 18.0548 13.7923 17.9048 13.7923 17.7048V16.5148H15.3823C15.5623 16.5148 15.7123 16.3348 15.7223 16.1648L15.9623 10.1248C15.8323 10.1748 15.7523 10.2048 15.2723 10.1848L15.0423 15.8248H13.4523C13.2823 15.8248 13.1123 15.9648 13.1123 16.1648V17.3648H11.0623C10.8823 17.3648 10.7223 17.5448 10.7223 17.7048V18.9348H8.6623C8.4923 18.9348 8.3223 19.0848 8.3223 19.2748C8.3223 19.4648 8.4923 19.6148 8.6623 19.6148ZM7.1123 18.3848C7.3823 18.5248 7.7623 18.4848 8.0023 18.1148L9.7623 15.5048C9.8323 15.3848 9.8623 15.2848 9.8923 15.1148L10.1823 13.3348L9.1923 13.1148C8.9723 13.0548 8.8123 12.9948 8.7323 12.9348L8.6023 14.9148L6.9523 17.4048C6.6523 17.8348 6.8223 18.2248 7.1123 18.3848Z" />
        </svg>
    