
        <svg xmlns="http://www.w3.org/2000/svg" viewBox="0 0 100 100">
            <path d="M11.9523 23.9041C18.5523 23.9041 23.9023 18.5341 23.9023 11.9541C23.9023 5.3541 18.5523 0.0041 11.9523 0.0041C5.3623 0.0041 0.0023 5.3541 0.0023 11.9541C0.0023 18.5341 5.3623 23.9041 11.9523 23.9041ZM14.3423 8.5941C13.5423 8.5941 12.8923 7.9441 12.8923 7.1241C12.8923 6.3241 13.5423 5.6741 14.3423 5.6741C15.1623 5.6741 15.8123 6.3241 15.8123 7.1241C15.8123 7.9441 15.1623 8.5941 14.3423 8.5941ZM4.8023 8.5041C4.8023 8.1341 5.1123 7.8441 5.4823 7.8441H11.1523C11.6523 7.8441 12.1023 8.0141 12.4423 8.3541L15.3423 11.2341H17.6823C17.7423 11.2341 17.8123 11.2341 17.8723 11.2541V10.3741C17.5323 9.9241 16.6723 8.6841 16.6723 7.5741C16.6723 6.6441 17.3623 5.9741 18.2823 5.9741C19.2023 5.9741 19.8723 6.6441 19.8723 7.5741C19.8723 8.6941 19.0223 9.9641 18.6823 10.3841V11.9341C18.6823 12.3041 18.3623 12.6141 18.0023 12.6141H15.0423C14.8623 12.6141 14.6823 12.5341 14.5623 12.4141L13.0223 10.8641C12.9223 10.7741 12.7823 10.7441 12.6723 10.8041L10.0523 12.1041L12.1123 14.1641C12.3523 14.4041 12.3723 14.7041 12.2623 14.9641L10.5323 18.3741C10.3323 18.7741 9.9723 18.8541 9.6823 18.7541C9.3123 18.6241 9.0723 18.2441 9.3023 17.7741L10.7623 14.8841L8.2523 13.0541C7.7623 12.6841 7.5023 12.1441 7.5023 11.5741C7.5023 10.9441 7.8423 10.3141 8.5223 9.9741L9.7923 9.3541C9.8523 9.3041 9.8323 9.1841 9.7623 9.1841H5.4823C5.1123 9.1841 4.8023 8.8841 4.8023 8.5041ZM17.5123 7.5741C17.5123 8.1841 17.9523 9.0041 18.2823 9.5241C18.6023 9.0041 19.0523 8.1841 19.0523 7.5741C19.0523 7.1241 18.7523 6.7941 18.2823 6.7941C17.8123 6.7941 17.5123 7.1241 17.5123 7.5741ZM3.3723 15.3441C3.3723 14.9641 3.6723 14.6641 4.0423 14.6641H6.6923L7.2923 12.8641C7.3723 13.0041 7.5223 13.2541 7.9023 13.5241L8.6023 14.0341L7.8023 15.6541C7.7023 15.8741 7.4523 16.0241 7.1923 16.0241H4.0423C3.6723 16.0241 3.3723 15.7141 3.3723 15.3441Z" />
        </svg>
    