
        <svg xmlns="http://www.w3.org/2000/svg" viewBox="0 0 100 100">
            <path d="M25.3617 5.7322C26.9417 5.7322 28.2217 4.4422 28.2217 2.8622C28.2217 1.2922 26.9417 0.0022 25.3617 0.0022C23.7817 0.0022 22.4917 1.2922 22.4917 2.8622C22.4917 4.4422 23.7817 5.7322 25.3617 5.7322ZM16.4217 19.1822C17.2017 19.1822 17.8517 18.5522 17.8517 17.7522V11.5922C17.8517 11.2622 17.7217 10.9222 17.4517 10.6122L14.3317 7.1222C14.2217 7.0122 14.3117 6.8422 14.4517 6.8422H18.2717C18.6017 6.8422 18.6817 7.0222 18.6817 7.3022V10.3522C18.6817 11.1322 19.3217 11.7922 20.1217 11.7922H25.0617C25.8417 11.7922 26.4717 11.1322 26.4717 10.3522C26.4717 9.5622 25.8417 8.9222 25.0617 8.9222H21.5517V4.7922C21.5517 3.3022 20.3717 2.1222 18.8717 2.1222H12.8717C11.5217 2.1222 10.3617 2.9222 9.8217 4.1322C9.3117 5.3922 9.6117 6.7722 10.5517 7.7222L14.9717 12.1922V17.7522C14.9717 18.5522 15.6217 19.1822 16.4217 19.1822ZM6.9717 24.5422C10.8117 24.5422 13.9417 21.4122 13.9417 17.5522C13.9417 13.7122 10.8117 10.5822 6.9717 10.5822C3.1217 10.5822 0.0017 13.7122 0.0017 17.5522C0.0017 21.4122 3.1217 24.5422 6.9717 24.5422ZM28.9317 14.1322C29.8817 14.9722 30.4817 16.1822 30.4817 17.5522C30.4817 20.1422 28.4317 22.1822 25.8517 22.1822C23.2717 22.1822 21.2317 20.1422 21.2317 17.5522C21.2317 16.9022 21.3517 16.3022 21.6017 15.7422C21.9717 14.8822 21.5417 14.2422 20.9917 14.0422C20.4717 13.8422 19.8017 14.0122 19.4917 14.7222C19.1017 15.6022 18.8917 16.5722 18.8917 17.5522C18.8917 21.4122 22.0117 24.5422 25.8517 24.5422C29.7117 24.5422 32.8217 21.4122 32.8217 17.5522C32.8217 15.4722 31.9017 13.5922 30.4317 12.3122C29.8317 11.8022 29.1217 11.9522 28.7317 12.3722C28.3317 12.8122 28.2617 13.5222 28.9317 14.1322ZM6.9717 22.1822C4.3917 22.1822 2.3417 20.1422 2.3417 17.5522C2.3417 14.9722 4.3917 12.9422 6.9717 12.9422C9.5517 12.9422 11.5917 14.9722 11.5917 17.5522C11.5917 20.1422 9.5517 22.1822 6.9717 22.1822Z" />
        </svg>
    