
        <svg xmlns="http://www.w3.org/2000/svg" viewBox="0 0 100 100">
            <path d="M11.4923 22.977C17.8123 22.977 22.9823 17.827 22.9823 11.497C22.9823 5.167 17.8123 -0.003 11.4923 -0.003C5.1723 -0.003 0.0023 5.167 0.0023 11.497C0.0023 17.827 5.1723 22.977 11.4923 22.977ZM15.1123 6.777C14.3323 6.777 13.7123 6.157 13.7123 5.367C13.7123 4.597 14.3323 3.957 15.1123 3.957C15.8923 3.957 16.5223 4.597 16.5223 5.367C16.5223 6.157 15.8923 6.777 15.1123 6.777ZM4.7123 9.677C4.7123 8.887 5.3823 8.217 6.1723 8.217C6.1723 7.847 6.4823 7.547 6.8523 7.547H14.6623C15.2123 7.547 15.6823 7.737 16.0623 8.117L17.6923 9.757C17.9523 10.047 17.9523 10.457 17.6923 10.727L16.0123 12.397C15.7523 12.667 15.3123 12.647 15.0623 12.397C14.8023 12.157 14.7923 11.717 15.0623 11.437L16.2823 10.247L15.4023 9.367C15.2723 9.257 15.1023 9.247 15.0023 9.367L12.4423 11.917L14.6723 14.147C14.8523 14.317 14.8923 14.597 14.8123 14.857L13.6623 18.407C13.5223 18.847 13.1623 18.977 12.8523 18.917C12.5123 18.817 12.2223 18.507 12.3723 18.037L13.4023 14.857L10.0923 12.337C9.7023 12.047 9.6223 11.167 10.2023 10.597L11.5123 9.277C11.6723 9.137 11.5523 8.897 11.3423 8.897H7.4023C7.5423 9.117 7.6423 9.387 7.6423 9.677C7.6423 10.477 6.9723 11.147 6.1723 11.147C5.3823 11.147 4.7123 10.477 4.7123 9.677ZM5.7823 15.637C5.7823 15.267 6.0723 14.957 6.4523 14.957H9.5723L9.9423 12.817L11.3823 13.917L10.8023 15.817C10.7123 16.127 10.4623 16.297 10.1123 16.297H6.4523C6.0723 16.297 5.7823 16.007 5.7823 15.637Z" />
        </svg>
    