
        <svg xmlns="http://www.w3.org/2000/svg" viewBox="0 0 100 100">
            <path d="M12.2223 24.4436C18.9723 24.4436 24.4423 18.9736 24.4423 12.2236C24.4423 5.4736 18.9723 0.0036 12.2223 0.0036C5.4723 0.0036 0.0023 5.4736 0.0023 12.2236C0.0023 18.9736 5.4723 24.4436 12.2223 24.4436ZM12.2223 21.7636C6.9523 21.7636 2.6823 17.4936 2.6823 12.2236C2.6823 6.9536 6.9523 2.6836 12.2223 2.6836C17.4923 2.6836 21.7623 6.9536 21.7623 12.2236C21.7623 17.4936 17.4923 21.7636 12.2223 21.7636ZM12.2123 7.3036C12.9723 7.3036 13.5923 6.6936 13.5923 5.9136C13.5923 5.1536 12.9723 4.5336 12.2123 4.5336C11.4423 4.5336 10.8323 5.1536 10.8323 5.9136C10.8323 6.6936 11.4423 7.3036 12.2123 7.3036ZM6.1023 15.0336H6.4523C6.7223 15.0336 6.9223 14.8336 6.9223 14.5436V13.3336H7.7823L7.7423 13.3936C7.5823 13.7236 7.7323 14.1236 8.0423 14.2736C8.3623 14.4536 8.7623 14.3036 8.9323 13.9836L9.2423 13.3336H15.1723L15.5023 13.9836C15.6523 14.3036 16.0523 14.4536 16.3823 14.2736C16.7023 14.1236 16.8323 13.7236 16.6623 13.3936L16.6423 13.3336H17.4923V14.5436C17.4923 14.8336 17.6923 15.0336 17.9623 15.0336H18.3123C18.6023 15.0336 18.7823 14.8336 18.7823 14.5436V13.3336H19.2423C19.4923 13.3336 19.6923 13.1336 19.6923 12.8936C19.6923 12.6436 19.4923 12.4536 19.2423 12.4536H18.7823V11.2336C18.7823 10.9536 18.6023 10.7736 18.3123 10.7736H17.9623C17.6923 10.7736 17.4923 10.9536 17.4923 11.2336V12.4536H16.2023L14.4023 8.7936C14.1223 8.2336 13.6023 7.9136 12.9623 7.9136H11.4723C10.8323 7.9136 10.3023 8.2336 10.0223 8.7936L8.2123 12.4536H6.9223V11.2336C6.9223 10.9536 6.7223 10.7736 6.4523 10.7736H6.1023C5.8223 10.7736 5.6223 10.9536 5.6223 11.2336V12.4536H5.1723C4.9323 12.4536 4.7323 12.6436 4.7323 12.8936C4.7323 13.1336 4.9323 13.3336 5.1723 13.3336H5.6223V14.5436C5.6223 14.8336 5.8223 15.0336 6.1023 15.0336ZM10.8123 11.8836H13.6123V10.5736C13.6123 10.4736 13.7423 10.4436 13.8023 10.5536L14.7423 12.4536H9.6823L10.6323 10.5536C10.6923 10.4436 10.8123 10.4636 10.8123 10.5736ZM9.7023 19.6136C10.0223 19.6836 10.3623 19.5236 10.4623 19.0736L11.0523 16.4336L12.2123 14.3836L13.3723 16.4336L13.9423 19.0736C14.0523 19.5336 14.4423 19.6836 14.7623 19.6136C15.0723 19.5336 15.3123 19.2436 15.2223 18.7836L14.6323 16.0436C14.6223 15.9936 14.6223 15.9536 14.6023 15.9036L13.9123 13.9136H10.5223L9.8223 15.9036C9.7923 15.9536 9.7923 15.9936 9.7723 16.0436L9.1923 18.7836C9.0823 19.2536 9.3723 19.5536 9.7023 19.6136Z" />
        </svg>
    