
        <svg xmlns="http://www.w3.org/2000/svg" viewBox="0 0 100 100">
            <path d="M19.8545 6.567C21.6745 6.567 23.1245 5.047 23.1245 3.307C23.1245 1.477 21.6745 -0.003 19.8545 -0.003C18.0445 -0.003 16.5845 1.477 16.5845 3.307C16.5845 5.087 18.0445 6.567 19.8545 6.567ZM2.4345 11.387C2.9545 11.387 3.3045 11.137 3.4945 10.477L4.2145 8.347H8.1145L8.8445 10.477C9.0245 11.137 9.3845 11.387 9.9045 11.387C10.5445 11.387 10.9345 11.007 10.9345 10.417C10.9345 10.217 10.8945 10.007 10.7845 9.707L7.7845 1.487C7.5045 0.687 6.9545 0.297 6.1545 0.297C5.3645 0.297 4.8345 0.687 4.5545 1.487L1.5545 9.707C1.4445 10.007 1.3945 10.217 1.3945 10.417C1.3945 11.017 1.7945 11.387 2.4345 11.387ZM4.7045 6.727L6.1145 2.487H6.2245L7.6345 6.727ZM0.4645 23.827C1.1045 24.507 2.1945 24.447 2.9845 23.637L8.1345 18.307C8.3145 18.117 8.4445 18.077 8.7145 18.187L12.6845 19.687C15.2745 20.657 17.8145 19.757 18.9745 17.637L21.5045 13.047C22.5245 11.177 22.2045 9.297 20.4545 8.347C18.7445 7.407 16.9745 8.107 15.9545 9.997L12.5945 16.097L9.7545 15.067C8.3045 14.527 7.0845 14.707 5.9245 15.917L0.5645 21.457C-0.2055 22.257 -0.1355 23.237 0.4645 23.827Z" />
        </svg>
    