
        <svg xmlns="http://www.w3.org/2000/svg" viewBox="0 0 100 100">
            <path d="M12.1023 24.2064C18.7823 24.2064 24.2123 18.7864 24.2123 12.1064C24.2123 5.4264 18.7823 -0.0036 12.1023 -0.0036C5.4223 -0.0036 0.0023 5.4264 0.0023 12.1064C0.0023 18.7864 5.4223 24.2064 12.1023 24.2064ZM12.1023 21.8164C6.7223 21.8164 2.3823 17.4864 2.3823 12.1064C2.3823 6.7264 6.7223 2.3764 12.1023 2.3764C17.4823 2.3764 21.8323 6.7264 21.8323 12.1064C21.8323 17.4864 17.4823 21.8164 12.1023 21.8164ZM11.0723 6.9264C11.8323 6.9264 12.4723 6.2964 12.4723 5.5264C12.4723 4.7564 11.8323 4.1364 11.0723 4.1364C10.3023 4.1364 9.6823 4.7564 9.6823 5.5264C9.6823 6.2964 10.3023 6.9264 11.0723 6.9264ZM9.8223 12.9264L12.2023 13.4664L11.5223 15.7164C11.3623 16.1864 11.6823 16.5164 12.0223 16.5664C12.3123 16.6164 12.6523 16.4764 12.7623 16.0864L13.6023 13.2264C13.7323 12.8364 13.5623 12.4764 13.1823 12.3364L10.9923 11.5564L11.3223 9.3064C11.3323 9.1864 11.4223 9.1564 11.5323 9.2064L12.6323 9.7064C12.7823 9.7664 12.9023 9.7964 13.0923 9.8064L15.8923 10.0864C16.2523 10.1264 16.5723 9.8664 16.5923 9.5164C16.6323 9.1664 16.3723 8.8364 16.0123 8.7964L13.1723 8.5164L11.0323 7.5364C10.1023 7.1164 9.1323 7.5964 9.0123 8.5264L8.6623 11.2164C8.5523 12.0164 9.0423 12.7364 9.8223 12.9264ZM17.8123 8.1464C17.7023 7.9064 17.4523 7.8264 17.2423 7.9364C16.9523 8.0664 16.6923 8.2064 16.4523 8.3364C16.7423 8.4564 16.9423 8.6864 17.0723 8.9864C17.2523 8.8864 17.4223 8.7864 17.6023 8.6964C17.8223 8.5764 17.9023 8.3464 17.8123 8.1464ZM9.2123 19.7464H11.5523C11.7923 19.7464 11.9723 19.5564 11.9723 19.3264V18.2664H13.9123C14.1423 18.2664 14.3323 18.0664 14.3323 17.8364V16.7764H15.5423C15.7623 16.7764 15.9523 16.5864 15.9623 16.3564L16.1823 10.6264C16.0623 10.6564 15.9923 10.6664 15.3423 10.6064L15.1323 15.9264H13.9123C13.6723 15.9264 13.4923 16.1064 13.4923 16.3464V17.4164H11.5523C11.3323 17.4164 11.1323 17.6164 11.1323 17.8364V18.9064H9.2123C8.9923 18.9064 8.7823 19.1064 8.7823 19.3264C8.7823 19.5664 8.9923 19.7464 9.2123 19.7464ZM7.6723 18.5664C7.9323 18.7164 8.3323 18.6664 8.5823 18.2964L10.2923 15.7364C10.3623 15.6364 10.3923 15.5164 10.4223 15.3564L10.6923 13.6964L9.6923 13.4764C9.4523 13.4164 9.2923 13.3464 9.2323 13.3164L9.1123 15.1564L7.5023 17.5664C7.2223 18.0164 7.3823 18.3964 7.6723 18.5664Z" />
        </svg>
    