
        <svg xmlns="http://www.w3.org/2000/svg" viewBox="0 0 100 100">
            <path d="M12.6023 25.1986C19.5623 25.1986 25.2023 19.5586 25.2023 12.5986C25.2023 5.6386 19.5623 -0.0014 12.6023 -0.0014C5.6523 -0.0014 0.0023 5.6386 0.0023 12.5986C0.0023 19.5586 5.6523 25.1986 12.6023 25.1986ZM9.6223 6.8686C9.1323 6.8686 8.7523 6.5086 8.7523 6.0086C8.7523 5.5386 9.1323 5.1686 9.6223 5.1686C10.0823 5.1686 10.4923 5.5386 10.4923 6.0086C10.4923 6.5086 10.0823 6.8686 9.6223 6.8686ZM8.1023 18.8686C7.7123 18.7686 7.5023 18.3786 7.5823 17.9986C7.6923 17.6286 8.0623 17.3786 8.4523 17.4586L10.8823 18.0786L9.0123 12.4686C8.9223 12.1786 8.8923 12.0986 8.6023 11.8086L7.1723 10.3986C6.9723 10.1686 6.9423 10.0086 6.9423 9.7486V6.7486C6.9423 6.3586 7.2523 6.0386 7.6623 6.0386C8.0523 6.0386 8.3823 6.3586 8.3823 6.7486V9.5486L9.6223 10.7786C9.8623 11.0186 10.1523 11.0886 10.7223 11.1986L17.3623 12.5286C17.7523 12.6086 17.9923 12.9886 17.9323 13.3686C17.8323 13.8186 17.4423 14.0086 17.0723 13.9486L12.2923 12.9686C12.1923 12.9486 12.1423 12.9986 12.1623 13.0886L12.8323 15.0186L15.3823 15.2886C15.6823 15.3286 15.7723 15.3886 15.9623 15.5586L18.3523 17.9786C18.6323 18.2486 18.6423 18.7186 18.3523 18.9886C18.0723 19.2686 17.6123 19.2686 17.3323 18.9886L15.1023 16.7186H12.3423L12.6823 18.9486C12.7623 19.4986 12.3523 19.9286 11.7623 19.7786ZM11.4723 10.7186C10.6723 10.7186 10.0423 10.0886 10.0423 9.3086C10.0423 8.5186 10.6723 7.8886 11.4723 7.8886C12.2423 7.8886 12.8923 8.5186 12.8923 9.3086C12.8923 10.0886 12.2423 10.7186 11.4723 10.7186Z" />
        </svg>
    