
        <svg xmlns="http://www.w3.org/2000/svg" viewBox="0 0 100 100">
            <path d="M9.9516 5.9177C11.5616 5.9177 12.9016 4.5777 12.9016 2.9677C12.9016 1.3377 11.5616 -0.0023 9.9516 -0.0023C8.3216 -0.0023 6.9816 1.3377 6.9816 2.9677C6.9816 4.5777 8.3216 5.9177 9.9516 5.9177ZM1.5716 10.1977H5.4916C5.5916 10.1977 5.6416 10.2677 5.6416 10.3477L5.2616 15.5077C5.1116 17.5277 6.3416 18.7877 8.0316 19.1377L13.0316 20.1877L14.1116 25.5777C14.2816 26.4977 15.2416 26.9177 15.9416 26.7977C16.7816 26.6377 17.3416 25.8077 17.1716 24.9477L15.8816 18.5777C15.7616 17.9577 15.2616 17.5277 14.7116 17.3577L10.9016 16.1677L11.2216 11.5477C11.2516 11.4177 11.3516 11.3777 11.4516 11.4477L13.3716 13.0477C13.6416 13.2677 13.9816 13.3977 14.3516 13.3977H20.1116C20.9716 13.3977 21.6516 12.6877 21.6516 11.8477C21.6516 10.9777 20.9716 10.2977 20.1116 10.2977H14.9016L12.2216 8.0577C11.5116 7.4577 10.8016 7.0977 9.7116 7.0977H3.6716L4.9716 2.6977C5.2116 1.8777 4.7416 1.0077 3.9416 0.7577C3.1016 0.5277 2.2416 0.9977 1.9916 1.8177L0.0816 8.2077C-0.2084 9.1977 0.2816 10.1977 1.5716 10.1977ZM6.8816 30.5477C7.6216 30.7777 8.5416 30.4477 8.8116 29.5177L10.7216 23.1677C10.7816 22.9677 10.8016 22.7477 10.8016 22.5377V21.2177L7.7216 20.5777C7.6416 20.5677 7.5616 20.5577 7.4716 20.5177L7.6916 22.5077L5.8516 28.6277C5.6016 29.4377 6.0716 30.2977 6.8816 30.5477Z" />
        </svg>
    