
        <svg xmlns="http://www.w3.org/2000/svg" viewBox="0 0 100 100">
            <path d="M6.4717 5.9164C8.1017 5.9164 9.4317 4.5964 9.4317 2.9664C9.4317 1.3364 8.1017 -0.0036 6.4717 -0.0036C4.8417 -0.0036 3.5017 1.3364 3.5017 2.9664C3.5017 4.5964 4.8417 5.9164 6.4717 5.9164ZM0.0017 17.3364C0.0017 18.0664 0.5817 18.6664 1.3217 18.6664C2.0617 18.6664 2.6617 18.0664 2.6617 17.3364V12.5164C2.6617 12.3564 2.8017 12.2064 2.9617 12.2064C3.1417 12.2064 3.2817 12.3564 3.2817 12.5164V27.2364C3.2817 28.0464 3.9117 28.6764 4.7217 28.6764C5.5117 28.6764 6.1617 28.0264 6.1617 27.2364V18.2264C6.1617 18.0564 6.3017 17.9164 6.4717 17.9164C6.6417 17.9164 6.7717 18.0564 6.7717 18.2264V27.2364C6.7717 28.0264 7.4317 28.6764 8.2217 28.6764C9.0317 28.6764 9.6717 28.0464 9.6717 27.2364V12.5164C9.6717 12.3564 9.8017 12.2064 9.9717 12.2064C10.1417 12.2064 10.2817 12.3564 10.2817 12.5164V17.3364C10.2817 18.0664 10.8717 18.6664 11.6117 18.6664C12.3517 18.6664 12.9417 18.0664 12.9417 17.3364V11.9564C12.9417 9.0564 10.6517 7.1364 7.4917 7.1364H5.4517C2.2817 7.1364 0.0017 9.0564 0.0017 11.9564Z" />
        </svg>
    