
        <svg xmlns="http://www.w3.org/2000/svg" viewBox="0 0 100 100">
            <path d="M12.6023 25.1986C19.5623 25.1986 25.2023 19.5586 25.2023 12.5986C25.2023 5.6386 19.5623 -0.0014 12.6023 -0.0014C5.6323 -0.0014 0.0023 5.6386 0.0023 12.5986C0.0023 19.5586 5.6323 25.1986 12.6023 25.1986ZM12.6023 21.5386C7.6523 21.5386 3.6523 17.5386 3.6523 12.5986C3.6523 7.6486 7.6523 3.6586 12.6023 3.6586C17.5423 3.6586 21.5423 7.6486 21.5423 12.5986C21.5423 17.5386 17.5423 21.5386 12.6023 21.5386ZM13.1223 8.1286C13.8623 8.1286 14.4723 7.5186 14.4723 6.7886C14.4723 6.0486 13.8623 5.4386 13.1223 5.4386C12.3723 5.4386 11.7623 6.0486 11.7623 6.7886C11.7623 7.5186 12.3723 8.1286 13.1223 8.1286ZM14.3523 18.5386C14.7623 19.3786 16.0423 18.8686 15.5823 17.9386L14.3423 15.4186C14.2523 15.2386 14.1223 15.0386 13.9923 14.8486L13.2323 13.7586L13.2623 13.6286C13.4623 12.9886 13.5623 12.5986 13.6023 11.9786L13.7323 10.2086C13.7923 9.3086 13.2523 8.6486 12.3523 8.6486C11.6923 8.6486 11.2223 8.9986 10.6323 9.5886L9.6923 10.4986C9.3823 10.7886 9.2823 11.0586 9.2423 11.4686L9.1323 12.9286C9.0923 13.3386 9.3423 13.6286 9.7123 13.6386C10.1023 13.6786 10.3523 13.4286 10.3823 13.0086L10.5123 11.4486L10.8723 11.1186C10.9923 11.0286 11.1723 11.0786 11.1523 11.2386L11.0723 12.4686C11.0123 13.1286 11.1523 13.4786 11.6623 14.1086L12.8923 15.6486C13.0123 15.7986 13.0323 15.8486 13.0823 15.9486ZM16.5423 11.0386H15.1623L14.4123 10.1986L14.2923 11.8586L14.4423 12.0086C14.6723 12.1986 14.8523 12.2786 15.2323 12.2786H16.5423C16.9523 12.2786 17.2423 12.0386 17.2423 11.6586C17.2423 11.2886 16.9523 11.0386 16.5423 11.0386ZM10.0223 18.7286L11.8623 16.5586C12.0323 16.3286 12.0723 16.2586 12.1423 16.0386L12.2023 15.8686L11.1223 14.5186L10.8523 15.6986L9.0623 17.8486C8.4023 18.6086 9.4823 19.3786 10.0223 18.7286Z" />
        </svg>
    