
        <svg xmlns="http://www.w3.org/2000/svg" viewBox="0 0 100 100">
            <path d="M11.3523 22.7064C17.6323 22.7064 22.7123 17.6264 22.7123 11.3564C22.7123 5.0764 17.6323 -0.0036 11.3523 -0.0036C5.0823 -0.0036 0.0023 5.0764 0.0023 11.3564C0.0023 17.6264 5.0823 22.7064 11.3523 22.7064ZM11.3523 22.1364C5.3923 22.1364 0.5723 17.3164 0.5723 11.3564C0.5723 5.3864 5.3923 0.5764 11.3523 0.5764C17.3223 0.5764 22.1323 5.3864 22.1323 11.3564C22.1323 17.3164 17.3223 22.1364 11.3523 22.1364ZM13.0623 6.3264C13.8423 6.3264 14.4523 5.7164 14.4523 4.9364C14.4523 4.1764 13.8423 3.5464 13.0623 3.5464C12.3023 3.5464 11.6723 4.1764 11.6723 4.9364C11.6723 5.7164 12.3023 6.3264 13.0623 6.3264ZM6.0623 13.1464H9.7723L13.2023 13.6364C14.5123 13.8264 15.4223 13.2564 15.4223 12.0264V9.7164C15.4223 9.5864 15.5623 9.5464 15.6323 9.6164L16.2823 10.2664V12.4764C16.2823 12.8564 16.5823 13.1464 16.9323 13.1464C17.3123 13.1464 17.6123 12.8564 17.6123 12.4764V9.9864C17.6123 9.7964 17.5523 9.6464 17.4123 9.5164L15.7823 7.8864C15.2923 7.3964 14.6823 7.1364 13.9923 7.1364H7.6123C7.2523 7.1364 6.9523 7.4564 6.9523 7.8064C6.9523 8.1764 7.2423 8.4864 7.6123 8.4864H12.5023C12.7023 8.4864 12.8523 8.6364 12.8523 8.8164V11.7964H6.0623C5.6823 11.7964 5.3923 12.1064 5.3923 12.4764C5.3923 12.8564 5.6823 13.1464 6.0623 13.1464ZM4.1123 10.2864C4.9523 11.1364 5.8923 11.0364 6.2623 10.6964C6.6023 10.3364 6.6323 9.4664 5.7923 8.6164C4.9423 7.7764 4.0523 7.7964 3.7123 8.1664C3.3523 8.5064 3.2823 9.4464 4.1123 10.2864ZM15.2423 18.8664C15.5023 18.6064 15.4823 18.1864 15.2423 17.9164L13.1023 15.7464L13.9523 14.1064C13.7123 14.1164 13.4423 14.1164 13.1523 14.0864L12.2623 13.9564L11.6323 15.6664C11.5523 15.9164 11.6123 16.1764 11.8023 16.3664L14.3123 18.8664C14.5523 19.1364 14.9723 19.1364 15.2423 18.8664Z" />
        </svg>
    