
        <svg xmlns="http://www.w3.org/2000/svg" viewBox="0 0 100 100">
            <path d="M3.3517 6.7128C5.2117 6.7128 6.7017 5.2028 6.7017 3.3828C6.7017 1.5128 5.2117 0.0028 3.3517 0.0028C1.4917 0.0028 0.0017 1.5128 0.0017 3.3828C0.0017 5.1828 1.4917 6.7128 3.3517 6.7128ZM22.0817 4.2628L25.2117 8.2528C25.0317 8.4928 24.8917 8.8028 24.8917 9.2428C24.8917 9.7228 25.0417 10.1728 25.4017 10.6428C25.8117 11.1428 26.5617 10.5928 26.1717 10.0828C25.9117 9.7128 25.8417 9.5228 25.8417 9.2428C25.8417 8.8028 26.1417 8.5428 26.3917 8.2028C27.0117 7.9528 27.7217 7.7928 28.3517 7.7528C28.4617 7.5928 28.5517 7.4428 28.5517 7.2428C28.5517 6.5828 27.6717 6.3428 27.6717 5.2028C27.6717 4.7428 27.8217 4.3128 28.1717 3.8328C28.5817 3.3428 29.3417 3.8628 28.9417 4.3928C28.6717 4.7528 28.6217 4.9428 28.6217 5.2028C28.6217 5.9928 29.4817 6.2128 29.4817 7.2428C29.4817 7.4728 29.4417 7.6628 29.3817 7.8328C29.8517 7.9128 30.3417 8.0528 30.7717 8.2228C30.5817 8.4828 30.4417 8.7928 30.4417 9.2428C30.4417 9.7228 30.6017 10.1728 30.9617 10.6428C31.3717 11.1428 32.1117 10.5928 31.7117 10.0828C31.4617 9.7128 31.3917 9.5228 31.3917 9.2428C31.3917 8.7428 31.7717 8.4828 32.0317 8.0628L35.0117 4.2628C35.3817 3.8128 35.3117 3.3328 34.8717 2.9928C33.5617 1.9728 31.1017 1.2328 28.5517 1.2328C26.0017 1.2328 23.5317 1.9728 22.2317 2.9928C21.7817 3.3328 21.7217 3.8228 22.0817 4.2628ZM20.8917 5.3228C20.8917 4.7428 20.4417 4.2728 19.8417 4.2728H15.4217V2.4128C15.4217 1.4528 14.4617 1.1228 13.8017 1.7128L10.5117 4.6428C10.0517 5.0528 10.0617 5.5928 10.5117 6.0128L13.8017 8.9428C14.4817 9.5628 15.4217 9.1528 15.4217 8.2428V6.3728H19.8417C20.4417 6.3728 20.8917 5.9028 20.8917 5.3228ZM25.2317 8.2828L25.2117 8.2528C25.4617 7.8728 25.7817 7.6328 25.7817 7.2428C25.7817 6.5828 24.8917 6.3428 24.8917 5.2028C24.8917 4.7428 25.0417 4.3128 25.4017 3.8328C25.8117 3.3428 26.5617 3.8628 26.1717 4.3928C25.9117 4.7528 25.8417 4.9428 25.8417 5.2028C25.8417 5.9928 26.7217 6.2128 26.7217 7.2428C26.7217 7.6628 26.5617 7.9528 26.3917 8.2028C26.2217 8.2728 26.0617 8.3428 25.9117 8.4128C25.6717 8.5328 25.4017 8.5028 25.2317 8.2828ZM31.1717 8.4128C31.0417 8.3528 30.9117 8.2828 30.7717 8.2228C31.0217 7.8628 31.3217 7.6128 31.3217 7.2428C31.3217 6.5828 30.4417 6.3428 30.4417 5.2028C30.4417 4.7428 30.6017 4.3128 30.9617 3.8328C31.3717 3.3428 32.1217 3.8628 31.7217 4.3928C31.4617 4.7528 31.3917 4.9428 31.3917 5.2028C31.3917 5.9928 32.2617 6.2128 32.2617 7.2428C32.2617 7.5928 32.1717 7.8528 32.0317 8.0628L31.8517 8.2828C31.6917 8.4928 31.4317 8.5328 31.1717 8.4128ZM28.1717 10.6428C28.5817 11.1428 29.3317 10.5928 28.9417 10.0828C28.6717 9.7128 28.6217 9.5228 28.6217 9.2428C28.6217 8.6628 29.1317 8.4028 29.3817 7.8328C29.0817 7.7828 28.8017 7.7528 28.5517 7.7528C28.4717 7.7528 28.4217 7.7528 28.3517 7.7528C28.0917 8.1228 27.6717 8.4828 27.6717 9.2428C27.6717 9.7228 27.8217 10.1728 28.1717 10.6428ZM23.1417 24.3728C23.7617 23.7628 23.8517 22.7428 23.0417 21.9128L17.6017 16.2728C16.3917 15.0128 15.1217 14.8328 13.6017 15.3828L10.7417 16.4428L7.3317 10.2428C6.2817 8.3228 4.4717 7.6028 2.7317 8.5628C0.9517 9.5428 0.6117 11.4528 1.6517 13.3628L4.1817 17.9628C5.3917 20.1528 8.0517 21.1128 10.6917 20.1328L14.6817 18.6228C14.9517 18.5128 15.0917 18.5528 15.2817 18.7528L20.5317 24.1728C21.3517 25.0228 22.4717 25.0628 23.1417 24.3728Z" />
        </svg>
    