
        <svg xmlns="http://www.w3.org/2000/svg" viewBox="0 0 100 100">
            <path d="M11.7523 23.5048C18.2423 23.5048 23.5123 18.2448 23.5123 11.7548C23.5123 5.2648 18.2423 0.0048 11.7523 0.0048C5.2623 0.0048 0.0023 5.2648 0.0023 11.7548C0.0023 18.2448 5.2623 23.5048 11.7523 23.5048ZM11.7523 21.9848C6.0923 21.9848 1.5223 17.4148 1.5223 11.7548C1.5223 6.0948 6.0923 1.5148 11.7523 1.5148C17.4123 1.5148 21.9923 6.0948 21.9923 11.7548C21.9923 17.4148 17.4123 21.9848 11.7523 21.9848ZM11.7423 14.1248L12.0623 16.6448V19.9448C12.0623 20.2748 12.3523 20.5648 12.6923 20.5648C13.0223 20.5648 13.3123 20.2748 13.3123 19.9448V10.9948C13.3123 10.9248 13.4023 10.9148 13.4423 10.9848C14.2223 12.4448 14.6923 13.7348 14.8923 14.3048C15.0123 14.6348 15.3623 14.8148 15.6823 14.6948C15.9423 14.6148 16.0923 14.3648 16.0923 14.1248V9.5648C16.0923 5.4348 14.5423 3.0948 11.7423 3.0948C8.9523 3.0948 7.4023 5.4348 7.4023 9.5648V14.1248C7.4023 14.3648 7.5623 14.6148 7.8123 14.6948C8.1323 14.8148 8.4823 14.6348 8.6023 14.3048C8.8023 13.7348 9.2723 12.4448 10.0523 10.9848C10.0923 10.9148 10.1823 10.9248 10.1823 10.9948V19.9448C10.1823 20.2748 10.4723 20.5648 10.8023 20.5648C11.1423 20.5648 11.4423 20.2748 11.4423 19.9448V16.6448ZM11.7423 3.7748C14.1123 3.7748 15.4123 5.8748 15.4123 9.5648V12.1948C14.9623 11.1448 14.3223 9.8448 13.6023 9.0248C13.3123 8.7048 12.9023 8.5048 12.4423 8.5048H11.0523C10.5923 8.5048 10.1723 8.7048 9.8923 9.0248C9.1723 9.8448 8.5323 11.1448 8.0823 12.1948V9.5648C8.0823 5.8748 9.3823 3.7748 11.7423 3.7748ZM11.7423 7.7848C12.5123 7.7848 13.1323 7.1648 13.1323 6.3848C13.1323 5.6148 12.5123 4.9948 11.7423 4.9948C10.9523 4.9948 10.3523 5.6148 10.3523 6.3848C10.3523 7.1648 10.9523 7.7848 11.7423 7.7848Z" />
        </svg>
    