
        <svg xmlns="http://www.w3.org/2000/svg" viewBox="0 0 100 100">
            <path d="M20.8645 5.9806C22.5045 5.9806 23.8545 4.6006 23.8545 3.0106C23.8545 1.3506 22.5045 0.0006 20.8645 0.0006C19.2045 0.0006 17.8945 1.3506 17.8945 3.0106C17.8945 4.7606 19.2045 5.9806 20.8645 5.9806ZM4.7445 4.2206C4.7445 4.4506 4.9145 4.6406 5.1545 4.6406H9.8545V6.6106C9.8545 7.0706 10.3645 7.2506 10.7145 6.9506L13.5045 4.6606C13.8045 4.4106 13.7745 4.0206 13.5045 3.7806L10.7145 1.4906C10.3645 1.1906 9.8545 1.3706 9.8545 1.8406V3.8006H5.1545C4.9145 3.8006 4.7445 3.9806 4.7445 4.2206ZM2.8745 5.3206C2.6445 5.3206 2.4545 5.5006 2.4545 5.7206V10.4206H0.5045C0.0345 10.4306 -0.1555 10.9206 0.1445 11.2806L2.4445 14.0906C2.6945 14.3806 3.1045 14.3406 3.3145 14.0906L5.6045 11.2806C5.9145 10.9106 5.7145 10.4206 5.2545 10.4206H3.2845V5.7206C3.2845 5.5006 3.1045 5.3206 2.8745 5.3206ZM3.0345 21.7406C3.6045 22.3606 4.6045 22.2906 5.2945 21.5606L10.0645 16.6506C10.2245 16.4906 10.3445 16.4406 10.5745 16.5306L14.5145 18.0206C16.8845 18.9306 19.0245 17.9206 20.1745 15.8206L22.3745 11.8406C23.3145 10.1406 23.0045 8.3806 21.3845 7.5306C19.8245 6.6706 18.2045 7.3206 17.2545 9.0506L14.1645 14.7206L11.5245 13.7506C10.2045 13.2606 9.1245 13.4206 8.0945 14.5006L3.1345 19.6206C2.4545 20.3306 2.5145 21.2106 3.0345 21.7406Z" />
        </svg>
    