
        <svg xmlns="http://www.w3.org/2000/svg" viewBox="0 0 100 100">
            <path d="M12.6023 25.1986C19.5623 25.1986 25.2023 19.5586 25.2023 12.5986C25.2023 5.6386 19.5623 -0.0014 12.6023 -0.0014C5.6323 -0.0014 0.0023 5.6386 0.0023 12.5986C0.0023 19.5586 5.6323 25.1986 12.6023 25.1986ZM12.6023 21.5386C7.6523 21.5386 3.6523 17.5386 3.6523 12.5986C3.6523 7.6486 7.6523 3.6586 12.6023 3.6586C17.5423 3.6586 21.5423 7.6486 21.5423 12.5986C21.5423 17.5386 17.5423 21.5386 12.6023 21.5386ZM12.0223 19.6386C12.3323 19.7786 12.7523 19.6986 12.9423 19.3386L14.3623 16.4686C14.5123 16.2086 14.5323 15.8786 14.2223 15.5786L12.6023 13.9486L14.7223 12.8786C14.8023 12.8486 14.8623 12.8486 14.9323 12.9186L18.0123 15.9986C18.2823 16.2686 18.7123 16.2386 18.9523 15.9986C19.2223 15.7286 19.2223 15.2886 18.9523 15.0386L14.4123 10.4886C14.2023 10.2786 13.9523 10.1486 13.6523 10.1486H11.4223L10.0823 8.7886L10.4223 8.4486C11.1123 8.3086 12.0923 8.0486 12.5723 7.5586C13.4623 6.6686 13.4923 5.9386 12.8923 5.3486C12.3023 4.7486 11.5523 4.7786 10.6723 5.6686C10.1923 6.1486 9.9423 7.1286 9.7823 7.8386L8.9223 8.7186C8.6723 8.9686 8.6923 9.3386 8.9323 9.5486L10.6923 11.3086C10.8123 11.4286 10.9723 11.4986 11.1723 11.4986H11.9323C11.9723 11.4986 11.9923 11.5686 11.9423 11.5786L11.0823 11.9986C10.0223 12.5286 9.7623 13.9886 10.8623 14.7886L12.9423 16.3086L11.7323 18.7286C11.5623 19.0586 11.6923 19.4786 12.0223 19.6386ZM12.2723 5.9786C12.5123 6.2186 12.4523 6.4186 11.9423 6.9386C11.6823 7.1786 11.2123 7.3386 10.7923 7.4486C10.9123 7.0286 11.0523 6.5586 11.3223 6.2886C11.8223 5.7886 12.0123 5.7286 12.2723 5.9786ZM16.1123 10.7786C16.8523 10.7786 17.4523 10.1686 17.4523 9.4286C17.4523 8.6786 16.8523 8.0886 16.1123 8.0886C15.3623 8.0886 14.7623 8.6786 14.7623 9.4286C14.7623 10.1686 15.3623 10.7786 16.1123 10.7786ZM6.3823 16.6886C6.3823 17.0486 6.7023 17.3686 7.0623 17.3686H9.9923C10.2823 17.3686 10.5123 17.1586 10.6323 16.9186L11.2023 15.7586L10.5123 15.2586C10.1123 14.9786 9.9923 14.7986 9.9423 14.6786L9.4923 16.0086H7.0623C6.7023 16.0086 6.3823 16.2986 6.3823 16.6886Z" />
        </svg>
    