
        <svg xmlns="http://www.w3.org/2000/svg" viewBox="0 0 100 100">
            <path d="M12.1023 24.2064C18.7823 24.2064 24.2123 18.7864 24.2123 12.1064C24.2123 5.4264 18.7823 -0.0036 12.1023 -0.0036C5.4223 -0.0036 0.0023 5.4264 0.0023 12.1064C0.0023 18.7864 5.4223 24.2064 12.1023 24.2064ZM12.1023 21.8164C6.7223 21.8164 2.3823 17.4864 2.3823 12.1064C2.3823 6.7264 6.7223 2.3764 12.1023 2.3764C17.4823 2.3764 21.8323 6.7264 21.8323 12.1064C21.8323 17.4864 17.4823 21.8164 12.1023 21.8164ZM12.3623 7.6664C13.1323 7.6664 13.7623 7.0464 13.7623 6.2564C13.7623 5.4964 13.1323 4.8764 12.3623 4.8764C11.5923 4.8764 10.9723 5.4964 10.9723 6.2564C10.9723 7.0464 11.5923 7.6664 12.3623 7.6664ZM17.5323 9.6464C17.9023 9.6464 18.2123 9.3564 18.2123 8.9764C18.2123 8.6064 17.9023 8.3164 17.5323 8.3164H11.0423C10.4023 8.3164 9.8623 8.6464 9.5823 9.2264L6.7423 14.9064L5.1423 13.3264C4.8723 13.0564 4.4623 13.0664 4.2023 13.3264C3.9523 13.5864 3.9423 13.9964 4.2023 14.2664L6.4823 16.5364C6.7623 16.8164 7.2023 16.7664 7.4323 16.4364L9.2923 13.7064C9.4023 13.5664 9.6023 13.5464 9.7423 13.6564L12.0223 15.3964V18.5964C12.0223 18.9564 12.3123 19.2564 12.6823 19.2564C13.0523 19.2564 13.3523 18.9564 13.3523 18.5964V15.0564C13.3523 14.8964 13.2823 14.7264 13.1623 14.6064L10.9223 12.3764L12.1323 9.9864C12.2423 9.7464 12.4323 9.6464 12.6823 9.6464ZM17.1323 11.1664C17.1323 11.8164 17.8623 12.3164 18.7523 12.3164C19.6523 12.3164 20.3823 11.8164 20.3823 11.1664C20.3823 10.5364 19.6523 10.0264 18.7523 10.0264C17.8623 10.0264 17.1323 10.5364 17.1323 11.1664ZM13.6423 12.5264H15.9423C16.3123 12.5264 16.5923 12.2264 16.5923 11.8664C16.5923 11.5064 16.3123 11.2064 15.9423 11.2064H13.9223L12.9423 10.2164H12.7123C12.6523 10.2164 12.6523 10.2164 12.6223 10.2664L12.1123 11.2664L13.1823 12.3264C13.3023 12.4564 13.4623 12.5264 13.6423 12.5264Z" />
        </svg>
    