
        <svg xmlns="http://www.w3.org/2000/svg" viewBox="0 0 100 100">
            <path d="M21.9417 11C23.3517 11 24.6517 10.46 25.6317 9.59L26.1217 10.08C26.2417 10.2 26.4217 10.2 26.5317 10.08C26.6517 9.96 26.6517 9.77 26.5317 9.66L26.0417 9.16C26.9317 8.19 27.4617 6.91 27.4617 5.55C27.4617 4.12 26.9317 2.81 26.0417 1.83L26.5317 1.34C26.6517 1.23 26.6517 1.03 26.5317 0.94C26.4217 0.82 26.2417 0.82 26.1217 0.94L25.6317 1.42C24.6517 0.54 23.3517 0 21.9417 0C20.5217 0 19.2417 0.53 18.2817 1.41L17.8117 0.94C17.6917 0.82 17.5117 0.82 17.3917 0.94C17.2717 1.03 17.2717 1.23 17.3917 1.34L17.8717 1.83C16.9917 2.81 16.4617 4.11 16.4617 5.55C16.4617 6.91 16.9917 8.2 17.8717 9.18L17.3917 9.66C17.2717 9.77 17.2717 9.96 17.3917 10.08C17.5117 10.2 17.6917 10.2 17.8117 10.08L18.2917 9.6C19.2517 10.46 20.5217 11 21.9417 11ZM9.5617 6.05C11.1917 6.05 12.4817 4.89 12.4817 3.14C12.4817 1.51 11.1917 0.18 9.5617 0.18C7.9617 0.18 6.6217 1.51 6.6217 3.14C6.6217 4.71 7.9617 6.05 9.5617 6.05ZM21.9417 0.59C23.2017 0.59 24.3517 1.05 25.2217 1.83L21.9617 5.09L18.6917 1.82C19.5517 1.04 20.6817 0.59 21.9417 0.59ZM17.0517 5.55C17.0517 4.28 17.5117 3.11 18.2817 2.24L21.5517 5.5L18.2817 8.77C17.5217 7.91 17.0517 6.79 17.0517 5.55ZM26.8817 5.55C26.8817 6.76 26.4017 7.89 25.6317 8.75L22.3717 5.5L25.6317 2.24C26.4117 3.12 26.8817 4.28 26.8817 5.55ZM21.9417 10.43C20.7117 10.43 19.5717 9.96 18.7017 9.19L21.9617 5.92L25.2217 9.16C24.3417 9.95 23.1817 10.43 21.9417 10.43ZM11.6517 17.33L15.2617 12.97L13.1017 9.04C12.1617 7.34 10.5817 6.69 9.0617 7.55C7.4617 8.38 7.1517 10.09 8.0717 11.77L10.0817 15.39C10.5717 16.28 11.0717 16.96 11.6517 17.33ZM0.4617 21.91H5.6217C5.8017 21.91 5.9217 21.77 5.9217 21.62C5.9217 21.46 5.7817 21.33 5.6217 21.33L0.9817 21.34V21.33L4.2617 17.66C5.1217 16.72 5.4817 15.98 5.4817 15.13C5.4817 13.66 4.4517 12.69 2.8317 12.69C1.3817 12.69 0.1917 13.59 0.0217 14.82C0.0117 14.91 0.0017 15 0.0017 15.08C0.0017 15.27 0.1217 15.39 0.2917 15.39C0.4917 15.39 0.6017 15.29 0.6117 15.12C0.6817 14.03 1.6017 13.28 2.8317 13.28C4.0817 13.28 4.9017 14 4.9017 15.11C4.9017 15.81 4.5917 16.45 3.8217 17.33L0.2817 21.27C0.1617 21.4 0.1217 21.47 0.1217 21.59C0.1217 21.77 0.2617 21.91 0.4617 21.91ZM27.0717 21.49C27.5817 20.96 27.6417 20.1 26.9617 19.39L22.1117 14.38C21.1017 13.32 20.0417 13.17 18.7417 13.65L15.5617 14.81L13.0317 17.96C13.7917 18.16 14.7417 18.25 15.7417 17.87L19.6717 16.38C19.9117 16.29 20.0317 16.34 20.1917 16.5L24.8417 21.32C25.5317 22.03 26.5117 22.1 27.0717 21.49ZM9.1317 21.6C9.4617 21.89 9.8717 21.81 10.1817 21.42L13.0317 17.96C12.5317 17.84 12.0317 17.59 11.6517 17.33L9.0717 20.5C8.7317 20.93 8.7617 21.32 9.1317 21.6Z" />
        </svg>
    