
        <svg xmlns="http://www.w3.org/2000/svg" viewBox="0 0 100 100">
            <path d="M12.1023 24.2064C18.7823 24.2064 24.2123 18.7864 24.2123 12.1064C24.2123 5.4264 18.7823 -0.0036 12.1023 -0.0036C5.4223 -0.0036 0.0023 5.4264 0.0023 12.1064C0.0023 18.7864 5.4223 24.2064 12.1023 24.2064ZM12.1023 21.8164C6.7223 21.8164 2.3823 17.4864 2.3823 12.1064C2.3823 6.7264 6.7223 2.3764 12.1023 2.3764C17.4823 2.3764 21.8323 6.7264 21.8323 12.1064C21.8323 17.4864 17.4823 21.8164 12.1023 21.8164ZM12.7023 7.5964C13.4923 7.5964 14.1123 6.9764 14.1123 6.1964C14.1123 5.4364 13.4923 4.8164 12.7023 4.8164C11.9423 4.8164 11.3223 5.4364 11.3223 6.1964C11.3223 6.9764 11.9423 7.5964 12.7023 7.5964ZM7.7923 17.8564C7.4423 18.2064 7.5123 18.6364 7.7723 18.8664C8.0023 19.0764 8.4123 19.1264 8.7423 18.7964L11.1423 16.3964C11.1923 16.3464 11.2023 16.3264 11.2523 16.2464L12.4423 14.0164C12.6123 13.6964 13.0523 13.6864 13.3523 13.8964L16.0223 15.9364V18.6864C16.0223 19.1364 16.2923 19.4064 16.7023 19.4064C17.1123 19.4064 17.3623 19.1364 17.3623 18.6864V15.5964C17.3623 15.4064 17.2923 15.2464 17.1223 15.0864L14.1023 12.4964V9.6764C14.1023 9.5264 14.2023 9.3964 14.3823 9.3764L18.7823 8.7064C19.1523 8.6464 19.4023 8.2964 19.3523 7.9464C19.2923 7.5564 18.9523 7.3164 18.5723 7.3664L9.2123 8.7864V7.2864C9.5723 7.1264 9.8923 6.9064 10.1323 6.6364C10.3123 6.4364 10.3123 6.1864 10.1323 5.9864C9.6423 5.4364 8.8123 5.0864 8.0623 5.0864C7.3123 5.0864 6.4923 5.4364 6.0023 5.9864C5.8123 6.1864 5.8123 6.4364 6.0023 6.6364C6.4423 7.1464 7.1823 7.4764 7.8723 7.5364V9.5864C7.8723 10.0064 8.2223 10.2864 8.6523 10.2264L10.8023 9.9164C10.9923 9.8764 11.1223 9.9964 11.1223 10.1964V12.7264L10.0923 15.5464Z" />
        </svg>
    