
        <svg xmlns="http://www.w3.org/2000/svg" viewBox="0 0 100 100">
            <path d="M12.6023 25.1986C19.5623 25.1986 25.2023 19.5586 25.2023 12.5986C25.2023 5.6386 19.5623 -0.0014 12.6023 -0.0014C5.6323 -0.0014 0.0023 5.6386 0.0023 12.5986C0.0023 19.5586 5.6323 25.1986 12.6023 25.1986ZM12.6023 21.5386C7.6523 21.5386 3.6523 17.5386 3.6523 12.5986C3.6523 7.6486 7.6523 3.6586 12.6023 3.6586C17.5423 3.6586 21.5423 7.6486 21.5423 12.5986C21.5423 17.5386 17.5423 21.5386 12.6023 21.5386ZM13.5123 7.5786C14.1823 7.5786 14.7223 7.0386 14.7223 6.3886C14.7223 5.7086 14.1823 5.1686 13.5123 5.1686C12.8523 5.1686 12.3023 5.7086 12.3023 6.3886C12.3023 7.0386 12.8523 7.5786 13.5123 7.5786ZM11.6723 12.1486L13.5723 13.2086L12.3623 14.2586C12.0823 14.5086 12.0423 14.8486 12.2423 15.0786C12.4723 15.3186 12.8123 15.3286 13.1123 15.0686L14.9223 13.5486C15.1923 13.3086 15.1423 12.8086 14.8123 12.5886L12.8923 11.3486L13.2623 10.0386C13.3023 9.8986 13.4523 9.8786 13.5423 10.0086L14.1223 10.8386C14.2723 11.0786 14.5523 11.1486 14.8023 11.0386L16.4423 10.2986C16.7823 10.1486 16.9023 9.8586 16.7423 9.5586C16.6123 9.2686 16.3223 9.1886 16.0123 9.3286L14.7523 9.8786L13.8723 8.6786C13.3823 8.0086 12.7723 7.7486 11.8123 7.8186L9.9723 7.9486C9.6723 7.9586 9.4423 8.1686 9.4023 8.5086L9.1423 10.3586C9.0923 10.7186 9.2723 10.9886 9.6123 11.0186C9.9223 11.0486 10.1523 10.8486 10.2023 10.4886L10.4023 9.0386L11.1023 8.9886C11.2223 8.9786 11.3323 9.0686 11.2823 9.2086L10.8623 10.6986C10.6023 11.6386 11.2123 11.8986 11.6723 12.1486ZM16.9523 16.2586L17.6623 16.2186C17.7623 16.2186 17.8623 16.2186 17.9523 16.2186L18.8123 11.3986L19.9423 10.8586C20.2023 10.7486 20.2923 10.4386 20.1923 10.1986C20.0723 9.9586 19.7823 9.8586 19.5223 9.9686L16.9223 11.1886C16.6623 11.3186 16.5623 11.6086 16.6723 11.8586C16.7823 12.0986 17.0823 12.1986 17.3323 12.0786L17.7323 11.9086ZM8.1723 16.6286C8.4123 16.8386 8.7423 16.8286 9.0223 16.5586L10.7123 14.8986C10.8623 14.7386 10.8823 14.6786 10.9823 14.4686L11.5823 12.8886L11.3223 12.7586C11.0323 12.6086 10.7023 12.3786 10.4623 12.0686L9.9223 14.0186L8.1823 15.7486C7.8823 16.0186 7.9123 16.4086 8.1723 16.6286ZM7.1223 18.3886H17.8323C18.2723 18.3886 18.6323 18.0386 18.6323 17.5986C18.6323 17.0786 18.2123 16.7686 17.7023 16.8086L7.1223 17.4586C6.8623 17.4686 6.6723 17.6686 6.6723 17.9286C6.6723 18.1786 6.8823 18.3886 7.1223 18.3886Z" />
        </svg>
    