
        <svg xmlns="http://www.w3.org/2000/svg" viewBox="0 0 100 100">
            <path d="M10.6917 4.4197C11.9217 4.4197 12.9217 3.4497 12.9217 2.2197C12.9217 0.9797 11.9217 -0.0003 10.6917 -0.0003C9.4717 -0.0003 8.4717 0.9797 8.4717 2.2197C8.4717 3.4497 9.4717 4.4197 10.6917 4.4197ZM12.8217 21.3297C13.4417 22.5797 15.2817 21.8097 14.6117 20.4597L12.7717 16.7797C12.6217 16.4797 12.4217 16.1497 12.2017 15.8397L10.8417 13.9197L10.9617 13.6197C11.3417 12.5597 11.4517 11.9197 11.5217 10.8597L11.7217 7.8797C11.8117 6.4297 10.9817 5.3997 9.5817 5.3997C8.5117 5.3997 7.7817 5.9497 6.7817 6.9397L5.2017 8.5097C4.7317 8.9797 4.5317 9.3797 4.4717 10.0497L4.2817 12.4997C4.2317 13.1097 4.5717 13.5097 5.1117 13.5197C5.6717 13.5697 6.0017 13.2497 6.0517 12.6097L6.2717 9.8997L7.0517 9.2197C7.3317 8.9797 7.7717 9.1197 7.7417 9.4497L7.5717 11.7197C7.5017 12.8597 7.7417 13.3897 8.5317 14.3697L10.6317 16.9897C10.8417 17.2597 10.8717 17.3697 10.9617 17.5397ZM16.6717 9.4497H14.2717L12.6717 7.6597L12.5017 10.0697L13.2417 10.7997C13.5717 11.1297 13.8517 11.2297 14.4617 11.2297H16.6717C17.2817 11.2297 17.6717 10.8897 17.6717 10.3397C17.6717 9.7997 17.2717 9.4497 16.6717 9.4497ZM21.1017 22.0397L21.5817 22.0197C21.8217 22.0097 21.8317 21.9997 21.8817 22.0097L23.6717 11.7897L26.2117 10.6097C26.4217 10.4997 26.4817 10.2897 26.4217 10.0897C26.3517 9.9097 26.1417 9.7997 25.8917 9.9097L20.6917 12.3397C20.4717 12.4497 20.4017 12.6697 20.4817 12.8397C20.5517 13.0197 20.7917 13.1497 21.0217 13.0297L22.8417 12.1797ZM5.4617 22.2397L8.5817 18.5297C8.8817 18.1597 8.9417 18.0897 9.0517 17.7097L9.3017 16.8497L7.7117 14.8797L7.1917 17.2997L4.1017 20.9497C3.1717 22.0797 4.6717 23.1697 5.4617 22.2397ZM0.3417 24.9497H22.2917C22.8717 24.9497 23.2717 24.5497 23.2717 23.9297C23.2717 23.2597 22.7917 22.8897 22.0517 22.9297L0.3517 24.2497C0.1417 24.2597 0.0017 24.4197 0.0017 24.6097C0.0017 24.7997 0.1517 24.9497 0.3417 24.9497Z" />
        </svg>
    