
        <svg xmlns="http://www.w3.org/2000/svg" viewBox="0 0 100 100">
            <path d="M3.1617 6.3637C4.9317 6.3637 6.3517 4.9438 6.3517 3.2037C6.3517 1.4337 4.9317 0.0038 3.1617 0.0038C1.4017 0.0038 0.0017 1.4337 0.0017 3.2037C0.0017 4.8938 1.4017 6.3637 3.1617 6.3637ZM21.3017 4.6738C21.3017 4.2037 20.9217 3.8337 20.4217 3.8337H15.8417V2.0138C15.8417 1.1438 14.9717 0.8538 14.3917 1.3837L11.3517 4.0738C10.9317 4.4537 10.9417 4.9338 11.3517 5.3238L14.3917 8.0138C15.0017 8.5638 15.8417 8.2038 15.8417 7.3837V5.5538H20.4217C20.9217 5.5538 21.3017 5.1638 21.3017 4.6738ZM25.4617 6.8038C25.1217 6.4637 24.5817 6.4637 24.2417 6.8038L21.0017 10.0538L19.7117 8.7538C19.1217 8.1838 18.2817 8.5038 18.2317 9.3438L17.9917 13.3938C17.9517 13.9438 18.3017 14.2938 18.8517 14.2638L22.9217 14.0238C23.7117 13.9838 24.1017 13.1738 23.4917 12.5637L22.2217 11.2638L25.4517 8.0238C25.7917 7.6738 25.7917 7.1337 25.4617 6.8038ZM22.0417 23.1338C22.5917 22.5738 22.6617 21.6338 21.9417 20.8838L16.7017 15.4638C15.6017 14.3238 14.4417 14.1538 13.0517 14.6638L10.2617 15.6838L6.9717 9.6938C5.9717 7.8538 4.2617 7.1738 2.6017 8.0738C0.9017 8.9838 0.5817 10.8438 1.5717 12.6337L4.1017 17.2338C5.2117 19.2538 7.5917 20.0837 10.1217 19.1138L14.0617 17.6238C14.3217 17.5238 14.4417 17.5638 14.6017 17.7438L19.6517 22.9438C20.3917 23.7238 21.4317 23.7638 22.0417 23.1338Z" />
        </svg>
    