
        <svg xmlns="http://www.w3.org/2000/svg" viewBox="0 0 100 100">
            <path d="M3.6117 7.1911C5.6117 7.1911 7.1917 5.5511 7.1917 3.6211C7.1917 1.6211 5.6117 0.0011 3.6117 0.0011C1.6017 0.0011 0.0017 1.6211 0.0017 3.6211C0.0017 5.5511 1.6017 7.1911 3.6117 7.1911ZM15.9017 11.7311C16.6317 11.7311 17.2117 11.1311 17.2117 10.4111V5.9611H18.9917C20.0517 5.9611 20.4817 4.9211 19.7917 4.1611L16.6417 0.6711C16.1917 0.1611 15.6017 0.1611 15.1417 0.6711L11.9917 4.1611C11.3217 4.9011 11.7117 5.9611 12.7817 5.9611H14.5817V10.4111C14.5817 11.1311 15.1717 11.7311 15.9017 11.7311ZM22.5317 4.9411L25.6417 8.8811L25.6617 8.8911C25.5017 9.1311 25.3817 9.4211 25.3817 9.8311C25.3817 10.3111 25.5317 10.7411 25.9017 11.2111C26.3117 11.7311 27.0717 11.1811 26.6617 10.6311C26.4117 10.2911 26.3517 10.1011 26.3517 9.8311C26.3517 9.4311 26.6017 9.2011 26.8317 8.8911C27.4617 8.6411 28.1817 8.4511 28.8117 8.4111C28.9317 8.2411 29.0317 8.0711 29.0317 7.8611C29.0317 7.2211 28.1617 6.9811 28.1617 5.8711C28.1617 5.4111 28.3017 4.9911 28.6717 4.5111C29.1017 4.0111 29.8617 4.5511 29.4517 5.0811C29.1917 5.4411 29.1317 5.6211 29.1317 5.8711C29.1317 6.6311 29.9917 6.8311 29.9917 7.8611C29.9917 8.1111 29.9317 8.3211 29.8617 8.4811C30.3317 8.5811 30.8017 8.7311 31.2217 8.9111C31.0617 9.1411 30.9517 9.4211 30.9517 9.8311C30.9517 10.3111 31.1017 10.7411 31.4617 11.2111C31.8917 11.7311 32.6417 11.1811 32.2417 10.6311C31.9817 10.2911 31.9117 10.1011 31.9117 9.8311C31.9117 9.3211 32.3317 9.0711 32.5817 8.6211L35.4917 4.9411C35.9017 4.4211 35.8217 3.8311 35.3217 3.4411C33.9917 2.3911 31.5117 1.6711 29.0117 1.6711C26.5217 1.6711 24.0517 2.3911 22.7217 3.4411C22.2117 3.8311 22.1217 4.4311 22.5317 4.9411ZM31.5517 9.0611C31.4417 9.0011 31.3317 8.9511 31.2217 8.9111C31.4717 8.5111 31.8317 8.2711 31.8317 7.8611C31.8317 7.2211 30.9517 6.9811 30.9517 5.8711C30.9517 5.4111 31.1017 4.9911 31.4617 4.5111C31.8917 4.0111 32.6417 4.5511 32.2417 5.0811C31.9817 5.4411 31.9117 5.6211 31.9117 5.8711C31.9117 6.6311 32.7817 6.8311 32.7817 7.8611C32.7817 8.1811 32.6917 8.4111 32.5817 8.6211L32.3817 8.8811C32.1517 9.1511 31.8517 9.1711 31.5517 9.0611ZM26.2617 7.8611C26.2617 7.2211 25.3817 6.9811 25.3817 5.8711C25.3817 5.4111 25.5317 4.9911 25.9017 4.5111C26.3117 4.0111 27.0717 4.5511 26.6617 5.0811C26.4117 5.4411 26.3517 5.6211 26.3517 5.8711C26.3517 6.6311 27.2117 6.8311 27.2117 7.8611C27.2117 8.3411 27.0217 8.6411 26.8317 8.8911C26.7117 8.9511 26.5917 9.0011 26.4817 9.0611C26.2017 9.1711 25.8917 9.1611 25.6617 8.8911C25.9217 8.5111 26.2617 8.2711 26.2617 7.8611ZM28.6717 11.2111C29.0817 11.7311 29.8517 11.1811 29.4517 10.6311C29.1917 10.2911 29.1317 10.1011 29.1317 9.8311C29.1317 9.2711 29.6117 9.0211 29.8617 8.4811C29.5617 8.4411 29.2717 8.4011 29.0117 8.4011C28.9417 8.4011 28.8717 8.4011 28.8117 8.4111C28.5617 8.7511 28.1617 9.0911 28.1617 9.8311C28.1617 10.3111 28.3017 10.7411 28.6717 11.2111ZM24.7017 26.1111C25.4017 25.4211 25.4917 24.2911 24.5717 23.3411L18.8817 17.3911C17.5117 15.9711 16.0617 15.7611 14.3817 16.3911L11.4117 17.4911L7.8417 11.0011C6.7017 8.9411 4.7717 8.1911 2.9217 9.2311C1.0117 10.2911 0.6317 12.2911 1.7617 14.3411L4.2917 18.9511C5.6417 21.4011 8.7117 22.5611 11.4717 21.5311L15.5517 20.0011C15.8517 19.9011 16.0217 19.9211 16.2317 20.1411L21.7617 25.8611C22.6917 26.8211 23.9317 26.8811 24.7017 26.1111Z" />
        </svg>
    