
        <svg xmlns="http://www.w3.org/2000/svg" viewBox="0 0 100 100">
            <path d="M10.3617 8.3691C12.3717 8.8791 13.4017 10.1791 14.9317 10.1791C16.6917 10.1791 17.7417 8.4991 20.4017 8.2191L13.0317 0.5691C12.4017 -0.1009 11.4217 -0.1909 10.6317 0.3691L5.7517 3.8291C4.7717 4.5191 4.8717 5.5991 5.4517 6.2291C5.9317 6.7691 6.8017 6.9891 7.6417 6.3991L11.3917 3.7391L13.3217 5.7491C13.5817 5.9891 13.5617 6.2891 13.2517 6.4891ZM22.1417 6.5691C23.7617 6.5691 25.1017 5.2391 25.1017 3.6191C25.1017 1.9891 23.7617 0.6491 22.1417 0.6491C20.5117 0.6491 19.1817 1.9891 19.1817 3.6191C19.1817 5.2391 20.5117 6.5691 22.1417 6.5691ZM1.0517 14.0691H2.4717C6.0117 14.0691 6.6517 12.0791 8.7117 12.0791C10.3317 12.0791 11.3817 14.0691 14.9317 14.0691C18.4917 14.0691 19.5317 12.0791 21.1617 12.0791C23.2017 12.0791 23.8617 14.0691 27.4017 14.0691H28.8117C29.4017 14.0691 29.8717 13.6091 29.8717 13.0291C29.8717 12.4391 29.4017 11.9691 28.8117 11.9691H27.4017C25.2817 11.9691 24.5717 9.9791 21.1617 9.9791C18.1617 9.9791 17.0517 11.9691 14.9317 11.9691C12.8217 11.9691 11.7117 9.9791 8.7117 9.9791C5.3017 9.9791 4.5817 11.9691 2.4717 11.9691H1.0517C0.4717 11.9691 0.0017 12.4391 0.0017 13.0291C0.0017 13.6091 0.4717 14.0691 1.0517 14.0691ZM8.0517 15.9691C8.5317 15.9691 8.9317 15.5691 8.9317 15.0891C8.9317 14.5991 8.5317 14.1991 8.0517 14.1991C7.5617 14.1991 7.1617 14.5991 7.1617 15.0891C7.1617 15.5691 7.5617 15.9691 8.0517 15.9691ZM21.8217 15.9691C22.3117 15.9691 22.7117 15.5691 22.7117 15.0891C22.7117 14.5991 22.3117 14.1991 21.8217 14.1991C21.3417 14.1991 20.9417 14.5991 20.9417 15.0891C20.9417 15.5691 21.3417 15.9691 21.8217 15.9691ZM5.7217 16.6691C6.2117 16.6691 6.6117 16.2691 6.6117 15.7891C6.6117 15.2991 6.2117 14.8991 5.7217 14.8991C5.2417 14.8991 4.8417 15.2991 4.8417 15.7891C4.8417 16.2691 5.2417 16.6691 5.7217 16.6691ZM10.3617 16.6691C10.8517 16.6691 11.2517 16.2691 11.2517 15.7891C11.2517 15.2991 10.8517 14.8991 10.3617 14.8991C9.8717 14.8991 9.4817 15.2991 9.4817 15.7891C9.4817 16.2691 9.8717 16.6691 10.3617 16.6691ZM19.5117 16.6691C20.0017 16.6691 20.3917 16.2691 20.3917 15.7891C20.3917 15.2991 20.0017 14.8991 19.5117 14.8991C19.0217 14.8991 18.6217 15.2991 18.6217 15.7891C18.6217 16.2691 19.0217 16.6691 19.5117 16.6691ZM24.1517 16.6691C24.6317 16.6691 25.0317 16.2691 25.0317 15.7891C25.0317 15.2991 24.6317 14.8991 24.1517 14.8991C23.6617 14.8991 23.2617 15.2991 23.2617 15.7891C23.2617 16.2691 23.6617 16.6691 24.1517 16.6691ZM3.5517 17.6991C4.0317 17.6991 4.4317 17.2991 4.4317 16.8091C4.4317 16.3291 4.0317 15.9291 3.5517 15.9291C3.0617 15.9291 2.6617 16.3291 2.6617 16.8091C2.6617 17.2991 3.0617 17.6991 3.5517 17.6991ZM12.5417 17.6991C13.0217 17.6991 13.4217 17.2991 13.4217 16.8091C13.4217 16.3291 13.0217 15.9291 12.5417 15.9291C12.0517 15.9291 11.6517 16.3291 11.6517 16.8091C11.6517 17.2991 12.0517 17.6991 12.5417 17.6991ZM17.3317 17.6991C17.8217 17.6991 18.2217 17.2991 18.2217 16.8091C18.2217 16.3291 17.8217 15.9291 17.3317 15.9291C16.8517 15.9291 16.4517 16.3291 16.4517 16.8091C16.4517 17.2991 16.8517 17.6991 17.3317 17.6991ZM26.3217 17.6991C26.8117 17.6991 27.2117 17.2991 27.2117 16.8091C27.2117 16.3291 26.8117 15.9291 26.3217 15.9291C25.8417 15.9291 25.4417 16.3291 25.4417 16.8091C25.4417 17.2991 25.8417 17.6991 26.3217 17.6991ZM1.1717 18.1091C1.6517 18.1091 2.0517 17.7191 2.0517 17.2291C2.0517 16.7391 1.6517 16.3391 1.1717 16.3391C0.6817 16.3391 0.2817 16.7391 0.2817 17.2291C0.2817 17.7191 0.6817 18.1091 1.1717 18.1091ZM14.9417 18.1091C15.4217 18.1091 15.8217 17.7191 15.8217 17.2291C15.8217 16.7391 15.4217 16.3391 14.9417 16.3391C14.4517 16.3391 14.0517 16.7391 14.0517 17.2291C14.0517 17.7191 14.4517 18.1091 14.9417 18.1091ZM28.7017 18.1091C29.1917 18.1091 29.5917 17.7191 29.5917 17.2291C29.5917 16.7391 29.1917 16.3391 28.7017 16.3391C28.2217 16.3391 27.8217 16.7391 27.8217 17.2291C27.8217 17.7191 28.2217 18.1091 28.7017 18.1091Z" />
        </svg>
    