
        <svg xmlns="http://www.w3.org/2000/svg" viewBox="0 0 100 100">
            <path d="M3.7517 7.4495C5.8217 7.4495 7.4517 5.7495 7.4517 3.7595C7.4517 1.6795 5.8217 -0.0005 3.7517 -0.0005C1.6717 -0.0005 0.0017 1.6795 0.0017 3.7595C0.0017 5.7495 1.6717 7.4495 3.7517 7.4495ZM21.9917 6.2295C21.9917 5.4395 21.3417 4.7795 20.5417 4.7795H16.4217V3.0095C16.4217 1.8595 15.2817 1.4795 14.5117 2.1695L10.9117 5.4395C10.3717 5.9295 10.3717 6.5395 10.9117 7.0195L14.5117 10.2895C15.3317 11.0295 16.4217 10.5395 16.4217 9.4495V7.6895H20.5417C21.3417 7.6895 21.9917 7.0295 21.9917 6.2295ZM23.5817 5.3095L26.6617 9.1995L26.6917 9.2495C26.5517 9.4795 26.4417 9.7495 26.4417 10.1495C26.4417 10.6295 26.5917 11.0495 26.9517 11.5195C27.3717 12.0495 28.1417 11.4795 27.7117 10.9295C27.4817 10.6095 27.4317 10.4095 27.4317 10.1495C27.4317 9.7695 27.6417 9.5495 27.8517 9.2795C28.4917 9.0095 29.2217 8.7995 29.8617 8.7695C29.9917 8.5895 30.0817 8.4295 30.0817 8.1995C30.0817 7.5595 29.2217 7.3395 29.2217 6.2195C29.2217 5.7795 29.3717 5.3595 29.7417 4.8795C30.1617 4.3695 30.9217 4.9195 30.5117 5.4595C30.2717 5.7995 30.2017 5.9895 30.2017 6.2195C30.2017 6.9795 31.0417 7.1695 31.0417 8.1995C31.0417 8.4595 30.9917 8.6695 30.9117 8.8495C31.3717 8.9395 31.8417 9.0895 32.2617 9.2695C32.1217 9.4895 32.0117 9.7695 32.0117 10.1495C32.0117 10.6295 32.1717 11.0495 32.5317 11.5195C32.9617 12.0495 33.7117 11.4795 33.3017 10.9295C33.0617 10.6095 32.9917 10.4095 32.9917 10.1495C32.9917 9.6295 33.4217 9.3895 33.6717 8.9295L36.5517 5.3095C36.9817 4.7495 36.9017 4.0995 36.3617 3.6895C35.0117 2.6295 32.5317 1.9195 30.0617 1.9195C27.5817 1.9195 25.1217 2.6295 23.7817 3.6895C23.2217 4.0995 23.1317 4.7595 23.5817 5.3095ZM32.5417 9.3995C32.4517 9.3495 32.3517 9.3195 32.2617 9.2695C32.5217 8.8595 32.8817 8.6295 32.8817 8.1995C32.8817 7.5595 32.0117 7.3395 32.0117 6.2195C32.0117 5.7795 32.1717 5.3595 32.5317 4.8795C32.9617 4.3695 33.7117 4.9195 33.3017 5.4595C33.0617 5.7995 32.9917 5.9895 32.9917 6.2195C32.9917 6.9795 33.8417 7.1695 33.8417 8.1995C33.8417 8.5095 33.7717 8.7295 33.6717 8.9295L33.4617 9.1995C33.2117 9.4995 32.8717 9.5195 32.5417 9.3995ZM27.3117 8.1995C27.3117 7.5595 26.4417 7.3395 26.4417 6.2195C26.4417 5.7795 26.5917 5.3595 26.9517 4.8795C27.3717 4.3695 28.1417 4.9195 27.7117 5.4595C27.4817 5.7995 27.4317 5.9895 27.4317 6.2195C27.4317 6.9795 28.2817 7.1695 28.2817 8.1995C28.2817 8.7095 28.0617 9.0095 27.8517 9.2795C27.7617 9.3195 27.6717 9.3595 27.5817 9.3995C27.2817 9.5195 26.9417 9.5195 26.6917 9.2495C26.9517 8.8495 27.3117 8.6095 27.3117 8.1995ZM29.7417 11.5195C30.1617 12.0495 30.9217 11.4795 30.5117 10.9295C30.2717 10.6095 30.2017 10.4095 30.2017 10.1495C30.2017 9.5995 30.6717 9.3595 30.9117 8.8495C30.6217 8.7895 30.3317 8.7495 30.0617 8.7495C30.0017 8.7495 29.9317 8.7495 29.8617 8.7695C29.6017 9.0895 29.2217 9.4195 29.2217 10.1495C29.2217 10.6295 29.3717 11.0495 29.7417 11.5195ZM25.5217 27.0395C26.2717 26.2995 26.3517 25.1295 25.3917 24.1195L19.5517 17.9895C18.0917 16.4795 16.5717 16.2695 14.7817 16.9295L11.7817 18.0595L8.1117 11.4095C6.9217 9.2795 4.9317 8.5095 3.0117 9.5895C1.0417 10.6995 0.6417 12.7395 1.8017 14.8695L4.3517 19.4795C5.7617 22.0595 9.0517 23.3295 11.8917 22.2795L16.0117 20.7495C16.3217 20.6395 16.5017 20.6495 16.7317 20.8795L22.4217 26.7695C23.4017 27.7995 24.7017 27.8595 25.5217 27.0395Z" />
        </svg>
    