
        <svg xmlns="http://www.w3.org/2000/svg" viewBox="0 0 100 100">
            <path d="M3.9717 22.1H23.8817C26.4717 22.1 27.8517 20.73 27.8517 18.16V3.94C27.8517 1.37 26.4717 0 23.8817 0H3.9717C1.3817 0 0.0017 1.36 0.0017 3.94V18.16C0.0017 20.74 1.3817 22.1 3.9717 22.1ZM4.1917 19.49C3.1617 19.49 2.6117 18.97 2.6117 17.89V4.21C2.6117 3.13 3.1617 2.61 4.1917 2.61H23.6617C24.6817 2.61 25.2417 3.13 25.2417 4.21V17.89C25.2417 18.97 24.6817 19.49 23.6617 19.49ZM6.6717 6.54H15.9617C16.3917 6.54 16.7217 6.2 16.7217 5.77C16.7217 5.34 16.3917 5.03 15.9617 5.03H6.6717C6.2217 5.03 5.8917 5.34 5.8917 5.77C5.8917 6.2 6.2217 6.54 6.6717 6.54ZM5.6217 13.79H22.2417C23.2517 13.79 23.8317 13.17 23.8317 12.16V9.93C23.8317 8.91 23.2517 8.29 22.2417 8.29H5.6217C4.6217 8.29 4.0317 8.91 4.0317 9.93V12.16C4.0317 13.17 4.6217 13.79 5.6217 13.79ZM6.6817 11.81C6.2217 11.81 5.9017 11.47 5.9017 11.04C5.9017 10.62 6.2217 10.3 6.6817 10.3H12.1517C12.5817 10.3 12.9117 10.62 12.9117 11.04C12.9117 11.47 12.5817 11.81 12.1517 11.81ZM6.6717 17.07H15.9617C16.3917 17.07 16.7217 16.75 16.7217 16.32C16.7217 15.89 16.3917 15.55 15.9617 15.55H6.6717C6.2217 15.55 5.8917 15.89 5.8917 16.32C5.8917 16.75 6.2217 17.07 6.6717 17.07Z" />
        </svg>
    