
        <svg xmlns="http://www.w3.org/2000/svg" viewBox="0 0 100 100">
            <path d="M3.0117 20.5048H24.0617C26.0117 20.5048 27.0617 19.4248 27.0617 17.4948V3.0148C27.0617 1.0748 26.0117 0.0048 24.0617 0.0048H3.0117C1.0417 0.0048 0.0017 1.0448 0.0017 3.0148V17.4948C0.0017 19.4648 1.0417 20.5048 3.0117 20.5048ZM3.0317 19.9348C1.4217 19.9348 0.5717 19.0948 0.5717 17.4648V3.0348C0.5717 1.4148 1.4217 0.5748 3.0317 0.5748H24.0217C25.5817 0.5748 26.4817 1.4148 26.4817 3.0348V17.4648C26.4817 19.0948 25.5817 19.9348 24.0217 19.9348ZM5.1017 5.0248H15.7117C15.9017 5.0248 16.0217 4.9148 16.0217 4.7348C16.0217 4.5548 15.9017 4.4448 15.7117 4.4448H5.1017C4.9117 4.4448 4.7917 4.5548 4.7917 4.7348C4.7917 4.9148 4.9117 5.0248 5.1017 5.0248ZM3.2717 12.7648H23.8117C24.5317 12.7648 24.9917 12.2648 24.9917 11.5448V8.9148C24.9917 8.1948 24.5317 7.6948 23.8117 7.6948H3.2717C2.5517 7.6948 2.0717 8.1948 2.0717 8.9148V11.5448C2.0717 12.2648 2.5517 12.7648 3.2717 12.7648ZM5.1117 10.5448C4.9217 10.5448 4.8017 10.4248 4.8017 10.2548C4.8017 10.0748 4.9217 9.9648 5.1117 9.9648H12.4417C12.6417 9.9648 12.7617 10.0748 12.7617 10.2548C12.7617 10.4248 12.6417 10.5448 12.4417 10.5448ZM5.1017 16.0648H15.7117C15.9017 16.0648 16.0217 15.9448 16.0217 15.7748C16.0217 15.5948 15.9017 15.4848 15.7117 15.4848H5.1017C4.9117 15.4848 4.7917 15.5948 4.7917 15.7748C4.7917 15.9448 4.9117 16.0648 5.1017 16.0648Z" />
        </svg>
    