
        <svg xmlns="http://www.w3.org/2000/svg" viewBox="0 0 100 100">
            <path d="M12.6023 25.1986C19.5623 25.1986 25.2023 19.5586 25.2023 12.5986C25.2023 5.6386 19.5623 -0.0014 12.6023 -0.0014C5.6523 -0.0014 0.0023 5.6386 0.0023 12.5986C0.0023 19.5586 5.6523 25.1986 12.6023 25.1986ZM7.1823 17.8486C6.4223 17.8486 5.9323 17.3686 5.9323 16.6186V8.5786C5.9323 7.8386 6.4223 7.3486 7.1823 7.3486H18.0323C18.7823 7.3486 19.2923 7.8386 19.2923 8.5786V16.6186C19.2923 17.3686 18.7823 17.8486 18.0323 17.8486ZM7.2823 9.7886H8.0723C8.2723 9.7886 8.4123 9.6286 8.4123 9.4586V8.7586C8.4123 8.5586 8.2723 8.3886 8.0723 8.3886H7.2823C7.0423 8.3886 6.9123 8.5586 6.9123 8.7586V9.4586C6.9123 9.6286 7.0423 9.7886 7.2823 9.7886ZM17.1423 9.7886H17.9523C18.1723 9.7886 18.2923 9.6286 18.2923 9.4586V8.7586C18.2923 8.5586 18.1723 8.3886 17.9523 8.3886H17.1423C16.9323 8.3886 16.8023 8.5586 16.8023 8.7586V9.4586C16.8023 9.6286 16.9323 9.7886 17.1423 9.7886ZM9.7423 12.0786H15.4923C15.6923 12.0786 15.8223 11.9386 15.8223 11.7686V8.7586C15.8223 8.5586 15.6923 8.3886 15.4923 8.3886H9.7423C9.5123 8.3886 9.4023 8.5586 9.4023 8.7586V11.7686C9.4023 11.9386 9.5123 12.0786 9.7423 12.0786ZM7.2823 12.0786H8.0723C8.2723 12.0786 8.4123 11.9486 8.4123 11.7686V11.0386C8.4123 10.8186 8.2723 10.7086 8.0723 10.7086H7.2823C7.0423 10.7086 6.9123 10.8186 6.9123 11.0386V11.7686C6.9123 11.9486 7.0423 12.0786 7.2823 12.0786ZM17.1423 12.0786H17.9523C18.1723 12.0786 18.2923 11.9486 18.2923 11.7686V11.0386C18.2923 10.8186 18.1723 10.7086 17.9523 10.7086H17.1423C16.9323 10.7086 16.8023 10.8186 16.8023 11.0386V11.7686C16.8023 11.9486 16.9323 12.0786 17.1423 12.0786ZM7.2823 14.4186H8.0723C8.2723 14.4186 8.4123 14.2586 8.4123 14.0786V13.3786C8.4123 13.1586 8.2723 13.0286 8.0723 13.0286H7.2823C7.0423 13.0286 6.9123 13.1586 6.9123 13.3786V14.0786C6.9123 14.2586 7.0423 14.4186 7.2823 14.4186ZM17.1423 14.4186H17.9523C18.1723 14.4186 18.2923 14.2586 18.2923 14.0786V13.3786C18.2923 13.1586 18.1723 13.0286 17.9523 13.0286H17.1423C16.9323 13.0286 16.8023 13.1586 16.8023 13.3786V14.0786C16.8023 14.2586 16.9323 14.4186 17.1423 14.4186ZM9.7423 16.7886H15.4923C15.6923 16.7886 15.8223 16.6486 15.8223 16.4686V13.4486C15.8223 13.2586 15.6923 13.0986 15.4923 13.0986H9.7423C9.5123 13.0986 9.4023 13.2586 9.4023 13.4486V16.4686C9.4023 16.6486 9.5123 16.7886 9.7423 16.7886ZM7.2823 16.7886H8.0723C8.2723 16.7886 8.4123 16.6486 8.4123 16.4486V15.7386C8.4123 15.5286 8.2723 15.3786 8.0723 15.3786H7.2823C7.0423 15.3786 6.9123 15.5286 6.9123 15.7386V16.4386C6.9123 16.6486 7.0423 16.7886 7.2823 16.7886ZM17.1423 16.7886H17.9523C18.1723 16.7886 18.2923 16.6486 18.2923 16.4386V15.7386C18.2923 15.5286 18.1723 15.3786 17.9523 15.3786H17.1423C16.9323 15.3786 16.8023 15.5286 16.8023 15.7386V16.4486C16.8023 16.6486 16.9323 16.7886 17.1423 16.7886Z" />
        </svg>
    