
        <svg xmlns="http://www.w3.org/2000/svg" viewBox="0 0 100 100">
            <path d="M2.0417 21.2347H25.4017C26.6717 21.2347 27.4417 20.4747 27.4417 19.2347V2.0147C27.4417 0.7747 26.6717 0.0047 25.4017 0.0047H2.0417C0.7717 0.0047 0.0017 0.7747 0.0017 2.0147V19.2347C0.0017 20.4747 0.7717 21.2347 2.0417 21.2347ZM1.9617 4.2747C1.6017 4.2747 1.3717 4.0147 1.3717 3.7147V2.1347C1.3717 1.7247 1.6317 1.4547 2.0517 1.4547H3.7817C4.1217 1.4547 4.3617 1.6947 4.3617 2.0347V3.7147C4.3617 4.0147 4.1217 4.2747 3.7817 4.2747ZM6.2117 9.9047C5.8617 9.9047 5.6617 9.7047 5.6617 9.3547V2.0047C5.6617 1.6547 5.8617 1.4547 6.2117 1.4547H21.2317C21.5817 1.4547 21.7817 1.6547 21.7817 2.0047V9.3547C21.7817 9.7047 21.5817 9.9047 21.2317 9.9047ZM23.6617 4.2747C23.3217 4.2747 23.0817 4.0147 23.0817 3.7147V2.0347C23.0817 1.6947 23.3217 1.4547 23.6617 1.4547H25.3917C25.8117 1.4547 26.0717 1.7247 26.0717 2.1347V3.7147C26.0717 4.0147 25.8417 4.2747 25.4917 4.2747ZM1.9617 8.1747C1.6017 8.1747 1.3717 7.9247 1.3717 7.6147V6.0047C1.3717 5.6447 1.5917 5.4047 1.9617 5.4047H3.7817C4.1217 5.4047 4.3617 5.6447 4.3617 6.0047V7.6147C4.3617 7.9247 4.1217 8.1747 3.7817 8.1747ZM23.6617 8.1747C23.3217 8.1747 23.0817 7.9247 23.0817 7.6147V6.0047C23.0817 5.6447 23.3217 5.4047 23.6617 5.4047H25.4917C25.8517 5.4047 26.0717 5.6447 26.0717 6.0047V7.6147C26.0717 7.9247 25.8417 8.1747 25.4917 8.1747ZM1.9617 12.0047C1.6017 12.0047 1.3717 11.7547 1.3717 11.4347V9.8347C1.3717 9.4647 1.5917 9.2347 1.9617 9.2347H3.7817C4.1217 9.2347 4.3617 9.4647 4.3617 9.8347V11.4347C4.3617 11.7547 4.1217 12.0047 3.7817 12.0047ZM23.6617 12.0047C23.3217 12.0047 23.0817 11.7547 23.0817 11.4347V9.8347C23.0817 9.4647 23.3217 9.2347 23.6617 9.2347H25.4917C25.8517 9.2347 26.0717 9.4647 26.0717 9.8347V11.4347C26.0717 11.7547 25.8417 12.0047 25.4917 12.0047ZM6.2117 19.7947C5.8617 19.7947 5.6617 19.5847 5.6617 19.2347V11.9147C5.6617 11.5647 5.8617 11.3647 6.2117 11.3647H21.2317C21.5817 11.3647 21.7817 11.5647 21.7817 11.9147V19.2347C21.7817 19.5847 21.5817 19.7947 21.2317 19.7947ZM1.9617 15.8547C1.6017 15.8547 1.3717 15.5847 1.3717 15.2847V13.6747C1.3717 13.3147 1.5917 13.0747 1.9617 13.0747H3.7817C4.1217 13.0747 4.3617 13.3147 4.3617 13.6747V15.2847C4.3617 15.5847 4.1217 15.8547 3.7817 15.8547ZM23.6617 15.8547C23.3217 15.8547 23.0817 15.5847 23.0817 15.2847V13.6747C23.0817 13.3147 23.3217 13.0747 23.6617 13.0747H25.4917C25.8517 13.0747 26.0717 13.3147 26.0717 13.6747V15.2847C26.0717 15.5847 25.8417 15.8547 25.4917 15.8547ZM2.0517 19.7947C1.6317 19.7947 1.3717 19.5247 1.3717 19.1147V17.5447C1.3717 17.2147 1.6017 16.9647 1.9617 16.9647H3.7817C4.1217 16.9647 4.3617 17.2147 4.3617 17.5447V19.2047C4.3617 19.5447 4.1217 19.7947 3.7817 19.7947ZM23.6617 19.7947C23.3217 19.7947 23.0817 19.5447 23.0817 19.2047V17.5447C23.0817 17.2147 23.3217 16.9647 23.6617 16.9647H25.4917C25.8417 16.9647 26.0717 17.2147 26.0717 17.5447V19.1147C26.0717 19.5247 25.8117 19.7947 25.3917 19.7947Z" />
        </svg>
    