
        <svg xmlns="http://www.w3.org/2000/svg" viewBox="0 0 100 100">
            <path d="M9.5817 23.3019C9.7717 23.3019 10.0617 23.2219 10.3617 23.0719C17.0317 19.5819 19.1717 17.8319 19.1717 13.6319V4.7919C19.1717 3.5819 18.6517 3.2019 17.6717 2.7919C16.3017 2.2219 11.9217 0.6319 10.5617 0.1619C10.2417 0.0619 9.9117 0.0019 9.5817 0.0019C9.2617 0.0019 8.9317 0.0719 8.6217 0.1619C7.2517 0.6119 2.8717 2.2419 1.5017 2.7919C0.5317 3.1919 0.0017 3.5819 0.0017 4.7919V13.6319C0.0017 17.8319 2.2617 19.3819 8.8117 23.0719C9.1217 23.2419 9.4017 23.3019 9.5817 23.3019ZM10.8617 6.1319C10.8617 5.6019 11.3817 5.4519 11.7617 5.7119L14.7417 7.7319C15.1017 7.9819 15.1217 8.4519 14.7817 8.6719L11.7817 10.7119C11.3817 10.9719 10.8617 10.8019 10.8617 10.2619V8.9919H4.9417C4.5117 8.9919 4.1517 8.6319 4.1517 8.2019C4.1517 7.7719 4.5117 7.4019 4.9417 7.4019H10.8617ZM4.4017 14.8519C4.0617 14.6119 4.0617 14.1419 4.4317 13.9019L7.4217 11.8719C7.7917 11.6219 8.3217 11.7819 8.3217 12.2919V13.5819H14.2417C14.6717 13.5819 15.0217 13.9419 15.0217 14.3819C15.0217 14.8119 14.6717 15.1619 14.2417 15.1619H8.3217V16.4419C8.3217 16.9719 7.7917 17.1319 7.4017 16.8819Z" />
        </svg>
    