
        <svg xmlns="http://www.w3.org/2000/svg" viewBox="0 0 100 100">
            <path d="M1.8 6.7408H29.46C30.47 6.7408 31.18 6.0208 31.18 5.0108V1.7008C31.18 0.7008 30.47 0.0008 29.46 0.0008H1.8C0.8 0.0008 0.09 0.7008 0.09 1.7008V5.0108C0.09 6.0208 0.8 6.7408 1.8 6.7408ZM1.8 27.6608H29.46C30.46 27.6608 31.27 26.8508 31.27 25.8508C31.27 24.8508 30.46 24.0308 29.46 24.0308H28.07V8.4008H3.2V24.0308H1.8C0.81 24.0308 0 24.8508 0 25.8508C0 26.8508 0.81 27.6608 1.8 27.6608ZM8.2 24.0308V12.3508C8.2 11.3408 8.86 10.7008 9.87 10.7008H21.4C22.41 10.7008 23.05 11.3408 23.05 12.3508V24.0308H20.87V13.3808C20.87 13.0708 20.67 12.8708 20.36 12.8708H10.91C10.59 12.8708 10.39 13.0708 10.39 13.3808V24.0308ZM15.49 23.2008C13.65 23.2008 12.4 22.1208 12.4 20.4808C12.4 19.0708 13.05 18.5308 13.05 17.5508C13.05 17.4108 13.05 17.2108 13.05 17.1208C13.05 16.9608 13.16 16.8508 13.34 16.8508C13.7 16.8508 14.1 17.1608 14.32 17.5808C14.32 16.5908 13.86 15.9608 13.41 15.3908C13.1 14.9808 13.36 14.6408 13.93 14.6408C15.98 14.6408 19.01 16.1108 19.01 19.6608C19.01 21.7808 17.63 23.2008 15.49 23.2008ZM15.62 22.1008C16.57 22.1008 17.03 21.4008 17.03 20.6008C17.03 19.5508 16.25 18.7108 15.64 18.5108C15.79 19.2808 15.62 19.8208 15.4 20.1308C15.29 19.8508 15.16 19.6508 14.95 19.5108C14.87 20.0008 14.37 20.2608 14.37 20.9808C14.37 21.6608 14.87 22.1008 15.62 22.1008Z" />
        </svg>
    