
        <svg xmlns="http://www.w3.org/2000/svg" viewBox="0 0 100 100">
            <path d="M0.8117 22.2103H24.8117C25.2117 22.2103 25.5317 21.8803 25.5317 21.4803C25.5317 21.0803 25.2117 20.7503 24.8117 20.7503H23.0717V5.6403H24.4717C25.1617 5.6403 25.6217 5.1803 25.6217 4.4803V1.1503C25.6217 0.4403 25.1617 0.0003 24.4717 0.0003H1.1517C0.4617 0.0003 0.0017 0.4403 0.0017 1.1503V4.4803C0.0017 5.1803 0.4617 5.6403 1.1517 5.6403H2.5417V20.7503H0.8117C0.4117 20.7503 0.0817 21.0803 0.0817 21.4803C0.0817 21.8803 0.4117 22.2103 0.8117 22.2103ZM1.7817 4.1803C1.5917 4.1803 1.4517 4.0403 1.4517 3.8403V1.7903C1.4517 1.5803 1.5917 1.4403 1.7817 1.4403H23.8317C24.0217 1.4403 24.1617 1.5803 24.1617 1.7903V3.8403C24.1617 4.0403 24.0217 4.1803 23.8317 4.1803ZM19.4017 9.2203C19.4017 8.2103 18.7817 7.5903 17.7917 7.5903H7.8317C6.8317 7.5903 6.2117 8.2103 6.2117 9.2203V20.7503H3.9917V5.6403H21.6217V20.7503H19.4017ZM7.3917 9.4903C7.3917 9.0303 7.6617 8.7703 8.1117 8.7703H17.5117C17.9517 8.7703 18.2217 9.0303 18.2217 9.4903V20.7503H7.3917ZM12.6717 19.7803C14.8917 19.7803 16.3717 18.2803 16.3717 16.0103C16.3717 12.2303 13.1617 10.6403 10.8717 10.6403C10.3817 10.6403 10.1817 10.9403 10.4317 11.2803C11.0517 12.0303 11.4817 12.8703 11.3817 13.8603C11.1317 13.3703 10.6317 13.0503 10.2917 13.0503C10.1517 13.0503 10.0617 13.1203 10.0617 13.2703C10.0617 13.3803 10.0917 13.6103 10.0917 13.7803C10.0917 14.8903 9.3617 15.4103 9.3617 16.9203C9.3617 18.6603 10.6717 19.7803 12.6717 19.7803ZM12.7817 18.5903C12.0117 18.5903 11.4817 18.1203 11.4817 17.4103C11.4817 16.7003 12.0117 16.4403 12.0917 15.9303C12.3017 16.0703 12.4717 16.2903 12.5717 16.5603C12.8217 16.1903 12.9417 15.6003 12.8017 14.8903C13.5617 15.2103 14.2417 16.0703 14.2417 17.0403C14.2417 17.8603 13.7617 18.5903 12.7817 18.5903Z" />
        </svg>
    