
        <svg xmlns="http://www.w3.org/2000/svg" viewBox="0 0 100 100">
            <path d="M0.0305 21.7552C0.1205 22.5952 0.7405 23.1052 1.5705 23.0952C4.6205 23.0452 7.2305 21.6752 9.4805 19.2252C11.6805 21.2952 14.1905 22.5952 16.8105 23.2952L16.4205 26.5152C16.2405 27.8752 17.0705 28.7752 18.6405 28.5152C21.9405 28.0252 25.6505 25.5652 27.6105 22.7252C32.3205 21.1652 36.6105 18.1652 36.6105 14.4552C36.6105 10.7452 32.3405 7.7652 27.6505 6.1852C25.9705 0.8052 18.8805 -1.6248 13.8405 1.1652C13.0505 1.5852 12.8805 2.3452 13.5205 3.1952C14.4705 4.4552 14.8305 5.2052 15.0505 6.1652C13.0505 6.9452 11.1905 8.0852 9.4805 9.6752C7.2305 7.2352 4.6205 5.8652 1.5705 5.8052C0.7405 5.7952 0.1205 6.2852 0.0305 7.1452C-0.2095 9.7752 0.9005 12.6052 2.6805 14.4552C0.9005 16.2852 -0.2095 19.1152 0.0305 21.7552ZM29.1905 15.3452C28.3805 15.3452 27.7005 14.6652 27.7005 13.8552C27.7005 13.0352 28.3805 12.3552 29.1905 12.3552C30.0105 12.3552 30.6905 13.0352 30.6905 13.8552C30.6905 14.6652 30.0105 15.3452 29.1905 15.3452Z" />
        </svg>
    