
        <svg xmlns="http://www.w3.org/2000/svg" viewBox="0 0 100 100">
            <path d="M1.0806 23.2225C1.6606 23.2225 2.1606 22.7425 2.1606 22.1525V15.7425C2.4706 15.6225 3.4706 15.2625 4.9806 15.2625C9.2606 15.2625 12.1006 17.3925 16.2306 17.3925C18.0306 17.3925 18.8406 17.1725 19.7606 16.7425C20.5906 16.3725 21.0806 15.6925 21.0806 14.6125V2.9025C21.0806 2.1525 20.5006 1.6725 19.7106 1.6725C19.0406 1.6725 17.9906 2.1325 16.1006 2.1325C12.0206 2.1325 9.1306 0.0025 4.8606 0.0025C3.0806 0.0025 2.2806 0.2125 1.3406 0.6425C0.5206 1.0225 0.0006 1.6325 0.0006 2.6925V22.1525C0.0006 22.7325 0.4906 23.2225 1.0806 23.2225ZM16.1806 15.2025C12.3706 15.2025 9.4606 13.0825 5.0206 13.0825C3.8706 13.0825 2.8206 13.2025 2.2006 13.4525V2.9725C2.4006 2.6325 3.2806 2.1825 4.9006 2.1825C8.8906 2.1825 11.8206 4.3025 16.0706 4.3025C17.2106 4.3025 18.1606 4.1725 18.8906 3.9725V14.4025C18.6906 14.7425 17.8006 15.2025 16.1806 15.2025Z" />
        </svg>
    