
        <svg xmlns="http://www.w3.org/2000/svg" viewBox="0 0 100 100">
            <path d="M11.4923 22.9836C17.8123 22.9836 22.9823 17.8136 22.9823 11.4836C22.9823 5.1536 17.8123 0.0036 11.4923 0.0036C5.1723 0.0036 0.0023 5.1536 0.0023 11.4836C0.0023 17.8136 5.1723 22.9836 11.4923 22.9836ZM6.8923 17.7236C6.6723 17.7236 6.5323 17.5536 6.5323 17.3936V7.2636C6.5323 6.9336 6.7423 6.6636 7.1523 6.4936C7.5323 6.3136 7.9723 6.2036 8.8123 6.2036C11.0023 6.2036 12.2923 7.2936 14.4123 7.2936C15.4323 7.2936 16.0123 7.0036 16.3023 7.0036C16.6023 7.0036 16.7623 7.1836 16.7623 7.4636V13.3436C16.7623 13.7036 16.5723 13.9236 16.1523 14.1236C15.7023 14.3436 15.2423 14.4236 14.4723 14.4236C12.3023 14.4236 11.0123 13.3336 8.8823 13.3336C8.0323 13.3336 7.5123 13.5136 7.2423 13.6136V17.3936C7.2423 17.5536 7.1123 17.7236 6.8923 17.7236ZM7.1723 11.2536C7.2923 11.0236 7.9323 10.7836 8.8923 10.7836C9.1723 10.7836 9.2923 10.7936 9.4523 10.8036V12.7636C10.2923 12.8336 10.9923 13.0436 11.7023 13.2736V11.3336C12.5823 11.6136 13.1623 11.7536 13.9523 11.8236V13.7836C14.1123 13.7936 14.2723 13.8036 14.4423 13.8036C15.4023 13.8036 16.0423 13.5536 16.1623 13.3236V11.5736C15.4523 11.7736 14.9323 11.8336 14.3823 11.8336C14.2123 11.8336 14.0323 11.8236 13.9523 11.8236V9.7736C14.0523 9.7836 14.2223 9.7936 14.3823 9.7936C15.1723 9.7936 15.8423 9.6236 16.1623 9.5436V7.5836C15.4523 7.7936 14.9323 7.8436 14.3823 7.8436C14.2423 7.8436 14.1023 7.8436 13.9523 7.8236V9.7736C13.2623 9.7336 12.4923 9.5636 11.7023 9.3036V7.3436C10.9923 7.1236 10.2923 6.8836 9.4523 6.8236V8.7736C9.2323 8.7536 9.0823 8.7536 8.8923 8.7536C7.9423 8.7536 7.2923 9.0036 7.1723 9.2336ZM9.4523 10.8036V8.7736C10.2923 8.8636 10.9423 9.0436 11.7023 9.3036V11.3336C10.9023 11.0736 10.2823 10.8736 9.4523 10.8036Z" />
        </svg>
    