
        <svg xmlns="http://www.w3.org/2000/svg" viewBox="0 0 100 100">
            <path d="M11.3523 22.7064C17.6323 22.7064 22.7123 17.6264 22.7123 11.3564C22.7123 5.0764 17.6323 -0.0036 11.3523 -0.0036C5.0823 -0.0036 0.0023 5.0764 0.0023 11.3564C0.0023 17.6264 5.0823 22.7064 11.3523 22.7064ZM11.3523 22.1364C5.3923 22.1364 0.5723 17.3164 0.5723 11.3564C0.5723 5.3864 5.3923 0.5764 11.3523 0.5764C17.3223 0.5764 22.1323 5.3864 22.1323 11.3564C22.1323 17.3164 17.3223 22.1364 11.3523 22.1364ZM14.5623 16.6764C14.7023 16.6164 14.7623 16.4564 14.6723 16.2964L8.8723 6.2264C8.7423 6.0164 8.5623 5.9264 8.2423 5.9264C7.8623 5.9264 7.3923 6.1564 7.0323 6.3564C5.7423 7.1264 5.2423 8.2864 3.8923 9.0664C3.3323 9.3964 2.8223 9.5064 2.5823 9.6364C2.3923 9.7464 2.2823 9.9764 2.4223 10.1964L4.6023 14.0064C4.7423 14.2464 4.9723 14.3764 5.2723 14.3764C5.6523 14.3764 6.1123 14.1164 6.4823 13.9364C7.7823 13.1464 8.2823 11.9764 9.6223 11.2164C10.1223 10.9364 10.5623 10.7964 10.8323 10.7264L14.1923 16.5664C14.2623 16.6964 14.4023 16.7464 14.5623 16.6764ZM17.4723 14.3764C17.7823 14.3764 17.9923 14.2464 18.1423 14.0264L20.3323 10.2164C20.4623 9.9764 20.3523 9.7764 20.1723 9.6464C19.9223 9.5064 19.4223 9.3964 18.8523 9.0864C17.5123 8.2864 17.0023 7.1464 15.7123 6.3664C15.3523 6.1764 14.8923 5.9264 14.5223 5.9264C14.1923 5.9264 14.0023 6.0164 13.8723 6.2464L11.7223 9.9964L12.1923 10.8064C13.8723 11.2164 14.9623 13.1464 16.2823 13.9364C16.6323 14.1164 17.1023 14.3764 17.4723 14.3764ZM8.1823 16.6864C8.3223 16.7764 8.4823 16.6964 8.5623 16.5664L11.0323 12.2664L10.7223 11.7264L8.0723 16.3264C8.0023 16.4564 8.0523 16.6264 8.1823 16.6864Z" />
        </svg>
    