
        <svg xmlns="http://www.w3.org/2000/svg" viewBox="0 0 100 100">
            <path d="M12.7923 25.5978C19.8723 25.5978 25.6023 19.8678 25.6023 12.7978C25.6023 5.7278 19.8723 -0.0022 12.7923 -0.0022C5.7323 -0.0022 0.0023 5.7278 0.0023 12.7978C0.0023 19.8678 5.7323 25.5978 12.7923 25.5978ZM12.7923 21.4178C8.0323 21.4178 4.1723 17.5678 4.1723 12.7978C4.1723 8.0278 8.0323 4.1678 12.7923 4.1678C17.5623 4.1678 21.4323 8.0278 21.4323 12.7978C21.4323 17.5678 17.5623 21.4178 12.7923 21.4178ZM8.8723 18.7178C9.3723 18.7178 9.7523 18.3178 9.7523 17.8078V14.9778C9.9823 14.9078 10.3023 14.8678 10.6123 14.8678C12.4223 14.8678 13.6323 15.7978 15.5523 15.7978C16.3623 15.7978 16.7723 15.7278 17.2723 15.5078C17.8823 15.2378 18.1523 14.7578 18.1523 14.0778V8.8078C18.1523 8.2278 17.7823 7.8778 17.1423 7.8778C16.7423 7.8778 16.3023 8.0978 15.5023 8.0978C13.8323 8.0978 12.6023 7.1478 10.5723 7.1478C9.7623 7.1478 9.3523 7.2278 8.8723 7.4578C8.2723 7.7178 7.9723 8.2078 7.9723 8.8678V17.8078C7.9723 18.3078 8.3923 18.7178 8.8723 18.7178ZM9.7623 11.7378V10.4378C9.9423 10.3778 10.1623 10.3278 10.4323 10.3278C10.5723 10.3278 11.0023 10.3478 11.3123 10.3978V9.1878C11.8623 9.2778 12.4123 9.4478 12.9923 9.6078V10.8378C13.5023 11.0078 14.2223 11.1578 14.6723 11.2278V10.0078C14.9623 10.0578 15.2623 10.0778 15.5623 10.0778C15.8123 10.0778 16.0523 10.0778 16.2523 10.0278V11.2478C16.0523 11.2978 15.7923 11.3078 15.5623 11.3078C15.4123 11.3078 15.1023 11.3078 14.6723 11.2278V12.5478C15.1423 12.6178 15.5523 12.6178 15.7623 12.6178C16.0123 12.6178 16.1123 12.5978 16.2523 12.5478V13.7578C16.0923 13.8278 15.8523 13.8678 15.5723 13.8678C15.2623 13.8678 14.9923 13.8278 14.6723 13.7678V12.5478C14.0623 12.4478 13.5323 12.2978 12.9923 12.1378V13.3278C12.4423 13.1678 11.8923 13.0278 11.3123 12.9478V11.7178C11.1123 11.6678 10.8023 11.6278 10.4323 11.6278C10.1623 11.6278 9.9423 11.6878 9.7623 11.7378ZM11.3123 11.7178C11.9223 11.8378 12.4023 11.9678 12.9923 12.1378V10.8378C12.4223 10.6478 11.9223 10.5078 11.3123 10.3978Z" />
        </svg>
    