
        <svg xmlns="http://www.w3.org/2000/svg" viewBox="0 0 100 100">
            <path d="M12.2223 24.4436C18.9723 24.4436 24.4423 18.9736 24.4423 12.2236C24.4423 5.4736 18.9723 0.0036 12.2223 0.0036C5.4723 0.0036 0.0023 5.4736 0.0023 12.2236C0.0023 18.9736 5.4723 24.4436 12.2223 24.4436ZM12.2223 21.7636C6.9523 21.7636 2.6823 17.4936 2.6823 12.2236C2.6823 6.9536 6.9523 2.6836 12.2223 2.6836C17.4923 2.6836 21.7623 6.9536 21.7623 12.2236C21.7623 17.4936 17.4923 21.7636 12.2223 21.7636ZM7.9223 18.3936C8.2923 18.3936 8.5623 18.1136 8.5623 17.7436V14.4936C8.7923 14.4036 9.2123 14.2936 9.7923 14.2936C11.8023 14.2936 13.0823 15.2936 15.0723 15.2936C15.9223 15.2936 16.3123 15.2036 16.7723 15.0036C17.3123 14.7536 17.5423 14.3636 17.5423 13.7936V8.1836C17.5423 7.7536 17.3123 7.4836 16.7823 7.4836C16.4223 7.4836 15.9223 7.7236 15.0123 7.7236C13.1223 7.7236 11.8223 6.7136 9.7523 6.7136C8.8723 6.7136 8.4823 6.8036 8.0523 7.0036C7.5323 7.2436 7.2623 7.6436 7.2623 8.2036V17.7436C7.2623 18.1036 7.5823 18.3936 7.9223 18.3936Z" />
        </svg>
    