
        <svg xmlns="http://www.w3.org/2000/svg" viewBox="0 0 100 100">
            <path d="M12.7923 25.5978C19.8723 25.5978 25.6023 19.8678 25.6023 12.7978C25.6023 5.7278 19.8723 -0.0022 12.7923 -0.0022C5.7323 -0.0022 0.0023 5.7278 0.0023 12.7978C0.0023 19.8678 5.7323 25.5978 12.7923 25.5978ZM15.2423 17.5478C14.9623 17.7278 14.5923 17.6178 14.4123 17.3178L11.7523 12.6878C11.5523 12.7578 11.3523 12.8278 11.1223 12.9878C10.1123 13.5578 9.6923 14.5578 8.4923 15.2578C8.1723 15.4578 7.7723 15.6278 7.3223 15.6278C6.8623 15.6278 6.5723 15.4578 6.3523 15.0578L4.6123 12.0978C4.3723 11.6378 4.5423 11.2078 4.8823 11.0178C5.1023 10.8878 5.4923 10.7678 5.9723 10.5078C6.9823 9.9278 7.3923 8.9678 8.5923 8.2478C8.9423 8.0578 9.3323 7.8778 9.6423 7.8778C10.0323 7.8778 10.4323 7.9878 10.7223 8.4878L15.4723 16.6978C15.6423 16.9778 15.5623 17.3778 15.2423 17.5478ZM18.2723 15.6278C17.8223 15.6278 17.4423 15.4578 17.1123 15.2578C15.9123 14.5578 15.4723 13.5378 14.4423 12.9678L13.3623 11.1178L14.8823 8.4878C15.1623 7.9878 15.5723 7.8778 15.9623 7.8778C16.2823 7.8778 16.6623 8.0578 17.0023 8.2478C18.2123 8.9678 18.6123 9.9278 19.6323 10.5078C20.1123 10.7678 20.4923 10.8878 20.7023 11.0178C21.0423 11.2078 21.2323 11.6378 20.9723 12.0978L19.2423 15.0578C19.0223 15.4578 18.7423 15.6278 18.2723 15.6278ZM10.3523 17.5478C10.0423 17.3778 9.9523 16.9778 10.1223 16.6978L11.5423 14.2578L12.2423 15.4878L11.1823 17.3178C11.0023 17.6178 10.6323 17.7278 10.3523 17.5478Z" />
        </svg>
    