
        <svg xmlns="http://www.w3.org/2000/svg" viewBox="0 0 100 100">
            <path d="M0.6866 22.3789C1.0666 22.3789 1.3666 22.0789 1.3666 21.6889V14.8689C1.7366 14.7789 2.8266 14.3089 4.6566 14.3089C8.9066 14.3089 11.5266 16.4189 15.6366 16.4189C17.3666 16.4189 18.0966 16.2189 18.9266 15.8289C19.6666 15.4989 20.1466 14.9889 20.1466 14.1089V2.4489C20.1466 1.8889 19.7066 1.5789 19.1366 1.5789C18.5866 1.5789 17.5066 2.0989 15.4966 2.0989C11.3766 2.0989 8.7666 -0.0011 4.5166 -0.0011C2.7766 -0.0011 2.0366 0.1989 1.2066 0.5789C0.4766 0.8989 -0.0034 1.4289 -0.0034 2.3089V21.6889C-0.0034 22.0689 0.3166 22.3789 0.6866 22.3789ZM1.3666 9.9589V5.9889C1.5566 5.5789 2.6866 5.0489 4.5166 5.0489C4.8866 5.0489 5.3066 5.0789 5.7166 5.1089V1.4289C7.3166 1.5889 8.7066 2.0389 10.1266 2.4689V6.1489C11.6166 6.6189 13.0466 6.9989 14.5166 7.1089V3.4289C14.8366 3.4589 15.1666 3.4689 15.4966 3.4689C16.6866 3.4689 17.7266 3.3389 18.7666 3.0389V6.7189C18.1766 6.8789 16.9566 7.1489 15.4966 7.1489C15.1566 7.1489 14.8166 7.1289 14.5166 7.1089V11.0889C14.7766 11.1089 15.1166 11.1189 15.4966 11.1189C16.6866 11.1189 17.7266 10.9789 18.7666 10.6889V14.0989C18.5766 14.5089 17.4766 15.0389 15.6366 15.0389C15.2466 15.0389 14.8866 15.0089 14.5166 14.9889V11.0889C12.9466 10.9189 11.7166 10.6389 10.1266 10.1289V13.9489C8.7666 13.5189 7.3566 13.0989 5.7166 12.9689V9.0789C5.3166 9.0489 5.0666 9.0189 4.5166 9.0189C2.6766 9.0189 1.5566 9.5489 1.3666 9.9589ZM5.7166 9.0789C7.3366 9.2489 8.5666 9.6589 10.1266 10.1289V6.1489C8.6566 5.7089 7.3566 5.2689 5.7166 5.1089Z" />
        </svg>
    