
        <svg xmlns="http://www.w3.org/2000/svg" viewBox="0 0 100 100">
            <path d="M4.3817 22.8467H18.4717C21.2617 22.8467 22.8517 21.2667 22.8517 18.4767V4.3667C22.8517 1.5867 21.2617 -0.0033 18.4717 -0.0033H4.3817C1.5917 -0.0033 0.0017 1.5867 0.0017 4.3667V18.4767C0.0017 21.2667 1.5917 22.8467 4.3817 22.8467ZM7.2117 17.8167C6.7417 17.8167 6.3317 17.4267 6.3317 16.9467V7.1867C6.3317 6.5267 6.6317 6.0367 7.2417 5.7667C7.7417 5.5567 8.1817 5.4467 9.0617 5.4467C11.2417 5.4467 12.5717 6.4767 14.4417 6.4767C15.3117 6.4767 15.8217 6.2367 16.2317 6.2367C16.8617 6.2367 17.2117 6.5867 17.2117 7.1467V12.8767C17.2117 13.5667 16.9317 14.0267 16.3117 14.3367C15.8117 14.5667 15.3617 14.6367 14.4817 14.6367C12.4117 14.6367 11.1117 13.6167 9.1017 13.6167C8.6817 13.6167 8.3117 13.6967 8.0617 13.7667V16.9467C8.0617 17.4367 7.7017 17.8167 7.2117 17.8167Z" />
        </svg>
    