
        <svg xmlns="http://www.w3.org/2000/svg" viewBox="0 0 100 100">
            <path d="M12.1023 24.2064C18.7823 24.2064 24.2123 18.7864 24.2123 12.1064C24.2123 5.4264 18.7823 -0.0036 12.1023 -0.0036C5.4223 -0.0036 0.0023 5.4264 0.0023 12.1064C0.0023 18.7864 5.4223 24.2064 12.1023 24.2064ZM12.1023 21.8164C6.7223 21.8164 2.3823 17.4864 2.3823 12.1064C2.3823 6.7264 6.7223 2.3764 12.1023 2.3764C17.4823 2.3764 21.8323 6.7264 21.8323 12.1064C21.8323 17.4864 17.4823 21.8164 12.1023 21.8164ZM12.1423 19.1964C15.4823 19.1964 17.6823 16.9364 17.6823 13.5664C17.6823 7.9564 12.9123 5.6264 9.6123 5.6264C8.9723 5.6264 8.5923 5.8664 8.5923 6.3064C8.5923 6.4764 8.6623 6.6564 8.8023 6.8164C9.5523 7.7364 10.2623 8.7264 10.2823 9.9364C10.2823 10.0664 10.2623 10.1864 10.2323 10.3164C9.8823 9.5464 9.2623 9.1064 8.7023 9.1064C8.4223 9.1064 8.2423 9.3064 8.2423 9.6164C8.2423 9.7964 8.2723 10.1464 8.2723 10.4564C8.2723 11.8664 7.1923 12.6164 7.1923 14.8864C7.1923 17.4564 9.1623 19.1964 12.1423 19.1964ZM12.2923 17.2964C11.1523 17.2964 10.3723 16.6064 10.3723 15.5664C10.3723 14.4964 11.1423 14.1164 11.2423 13.3964C11.2523 13.3164 11.3123 13.2864 11.3623 13.3464C11.6523 13.5864 11.8123 13.8964 11.9723 14.2764C12.3023 13.7964 12.4223 12.8864 12.3023 11.9364C12.2923 11.8364 12.3523 11.8164 12.4223 11.8364C13.7823 12.4564 14.4723 13.7764 14.4723 15.0164C14.4723 16.2464 13.7423 17.2964 12.2923 17.2964Z" />
        </svg>
    