
        <svg xmlns="http://www.w3.org/2000/svg" viewBox="0 0 100 100">
            <path d="M8.8023 24.3097C14.5823 24.3097 18.4523 20.3697 18.4523 14.3397C18.4523 4.3097 9.9623 -0.0003 3.5623 -0.0003C2.8923 -0.0003 2.5923 0.2197 2.5923 0.6197C2.5923 0.7897 2.6623 0.9297 2.8623 1.1697C4.3123 2.8897 5.7323 5.0997 5.7323 7.1097C5.7323 7.7197 5.5623 8.3197 5.2523 8.8397C4.5923 7.4397 3.0423 6.5697 2.2123 6.5697C2.0323 6.5697 1.9323 6.6997 1.9323 6.8897C1.9323 7.2097 2.0123 7.9197 2.0123 8.4597C2.0123 11.7197 0.0023 12.8697 0.0023 16.8497C0.0023 21.3497 3.4323 24.3097 8.8023 24.3097ZM8.9023 20.9997C6.9623 20.9997 5.6923 19.8397 5.6923 18.0897C5.6923 16.2697 6.9623 15.6097 7.1623 14.4397C7.1723 14.3397 7.2323 14.3197 7.3123 14.3797C7.8023 14.7797 8.1823 15.3397 8.4723 15.9297C9.0223 15.1997 9.2923 13.7197 8.9923 11.8897C8.9723 11.8097 9.0323 11.7497 9.1323 11.7897C11.3623 12.9097 12.5723 15.1097 12.5723 17.1297C12.5723 19.1997 11.3823 20.9997 8.9023 20.9997Z" />
        </svg>
    