
        <svg xmlns="http://www.w3.org/2000/svg" viewBox="0 0 100 100">
            <path d="M3.3796 3.0133H15.8496V2.7933C15.8496 0.9633 14.8996 0.0033 13.1196 0.0033H6.1096C4.3296 0.0033 3.3796 0.9633 3.3796 2.7933ZM13.4596 15.2433V12.2233C13.4596 10.9833 13.7096 10.2033 14.1496 9.5433L14.8296 8.4833C15.4096 7.5633 15.8496 6.7033 15.8496 5.5433V4.9233H3.3796V5.1533L9.1696 10.9433C10.5296 10.6333 11.8896 11.6733 11.9096 13.1133V13.7033ZM0.3096 7.6333L17.4096 24.7233C17.8296 25.1533 18.5096 25.1533 18.9196 24.7233C19.3396 24.3033 19.3296 23.6233 18.9196 23.2133L1.8296 6.1133C1.4196 5.7033 0.7296 5.6933 0.3096 6.1133C-0.1004 6.5133 -0.1004 7.2233 0.3096 7.6333ZM8.4996 28.7933H10.7296C12.4996 28.7933 13.4596 27.8433 13.4596 26.0033V23.2833L9.7496 19.5833C9.7196 19.5933 9.6596 19.5933 9.6196 19.5933C8.3096 19.5933 7.2996 18.5833 7.2996 17.2933V17.1333L5.7696 15.5933V26.0033C5.7696 27.8433 6.7196 28.7933 8.4996 28.7933Z" />
        </svg>
    