
        <svg xmlns="http://www.w3.org/2000/svg" viewBox="0 0 100 100">
            <path d="M11.4923 22.9836C17.8123 22.9836 22.9823 17.8136 22.9823 11.4836C22.9823 5.1536 17.8123 0.0036 11.4923 0.0036C5.1723 0.0036 0.0023 5.1536 0.0023 11.4836C0.0023 17.8136 5.1723 22.9836 11.4923 22.9836ZM8.2623 5.1436V4.8536C8.2623 4.0336 8.6723 3.6236 9.4823 3.6236H13.5023C14.3123 3.6236 14.7223 4.0336 14.7223 4.8536V5.1436ZM10.8623 19.3636C10.1223 19.3636 9.6723 18.8936 9.6723 18.1036V10.5136C9.6723 9.7636 9.4723 9.2336 9.2123 8.8236L8.8223 8.2036C8.4923 7.6836 8.2623 7.2336 8.2623 6.6136V5.7636H14.7223V6.6136C14.7223 7.2336 14.4823 7.7036 14.1523 8.2036L13.7623 8.8236C13.4923 9.2236 13.3123 9.7636 13.3123 10.5136V18.1036C13.3123 18.8936 12.8523 19.3636 12.1023 19.3636ZM10.3623 11.0436V12.9136C10.3623 13.5436 10.8523 14.0536 11.4923 14.0536C12.1323 14.0536 12.6223 13.5436 12.6223 12.9136V11.0436C12.6223 10.4036 12.1323 9.9036 11.4923 9.9036C10.8523 9.9036 10.3623 10.4036 10.3623 11.0436ZM11.4923 13.6436C11.0823 13.6436 10.7723 13.3136 10.7723 12.9136C10.7723 12.5136 11.0823 12.1836 11.4923 12.1836C11.8923 12.1836 12.2123 12.5136 12.2123 12.9136C12.2123 13.3136 11.9023 13.6436 11.4923 13.6436Z" />
        </svg>
    