
        <svg xmlns="http://www.w3.org/2000/svg" viewBox="0 0 100 100">
            <path d="M12.2223 24.4436C18.9723 24.4436 24.4423 18.9736 24.4423 12.2236C24.4423 5.4736 18.9723 0.0036 12.2223 0.0036C5.4723 0.0036 0.0023 5.4736 0.0023 12.2236C0.0023 18.9736 5.4723 24.4436 12.2223 24.4436ZM12.2223 21.7636C6.9523 21.7636 2.6823 17.4936 2.6823 12.2236C2.6823 6.9536 6.9523 2.6836 12.2223 2.6836C17.4923 2.6836 21.7623 6.9536 21.7623 12.2236C21.7623 17.4936 17.4923 21.7636 12.2223 21.7636ZM9.1323 6.3436H15.3023V6.1536C15.3023 5.2936 14.8823 4.8736 14.0523 4.8736H10.3823C9.5523 4.8736 9.1323 5.2936 9.1323 6.1536ZM17.0823 17.9736C17.3323 18.2136 17.7323 18.2136 17.9623 17.9736C18.2223 17.7236 18.2223 17.3436 17.9623 17.0836L7.3523 6.4736C7.1023 6.2236 6.7023 6.2236 6.4523 6.4736C6.2123 6.7136 6.2123 7.1136 6.4523 7.3436ZM14.0523 11.9736V11.1336C14.0523 10.4536 14.2023 10.0036 14.4423 9.6336L14.7923 9.0836C15.0923 8.6136 15.3023 8.1936 15.3023 7.6336V7.1236H9.4023V7.3236ZM10.3823 12.4836V18.2836C10.3823 19.1236 10.8323 19.5736 11.6323 19.5736H12.7923C13.6123 19.5736 14.0523 19.1236 14.0523 18.2836V16.1336Z" />
        </svg>
    