
        <svg xmlns="http://www.w3.org/2000/svg" viewBox="0 0 100 100">
            <path d="M2.4494 21.8311H16.4194C17.9694 21.8311 18.8694 20.7311 18.8694 19.4411C18.8694 18.9411 18.7994 18.3611 18.2394 17.5511L12.6294 9.5311V0.5711H12.9594C13.1294 0.5711 13.2494 0.4411 13.2494 0.2811C13.2494 0.1311 13.1294 0.0011 12.9594 0.0011H5.9094C5.7494 0.0011 5.6294 0.1311 5.6294 0.2811C5.6294 0.4411 5.7494 0.5711 5.9094 0.5711H6.2494V9.5311L0.6494 17.5511C0.0694 18.3611 -0.0006 18.9411 -0.0006 19.4411C-0.0006 20.7311 0.8994 21.8311 2.4494 21.8311ZM6.8194 4.0211V3.4311H9.4494C9.6094 3.4311 9.7394 3.5611 9.7394 3.7311C9.7394 3.8911 9.6094 4.0211 9.4494 4.0211ZM6.8194 6.8511V6.2711H9.4494C9.6094 6.2711 9.7394 6.4011 9.7394 6.5611C9.7394 6.7311 9.5994 6.8511 9.4494 6.8511ZM6.8194 9.6811V9.1011H9.4494C9.6094 9.1011 9.7394 9.2311 9.7394 9.4011C9.7394 9.5511 9.5994 9.6811 9.4494 9.6811Z" />
        </svg>
    