
        <svg xmlns="http://www.w3.org/2000/svg" viewBox="0 0 100 100">
            <path d="M1.3717 13.6859C1.3717 19.3959 5.8617 24.1359 12.2117 24.1359C15.3417 24.1359 17.1817 22.7859 17.1817 21.1759C17.1817 20.1459 16.4217 19.5659 15.2717 19.5359C15.0817 19.5259 14.9517 19.5859 14.9417 19.7959C14.8617 21.6359 14.0317 22.7959 12.5017 22.7959C11.4217 22.7959 10.7917 22.1459 10.7917 21.2959C10.7917 18.0359 18.7017 17.8559 18.7017 12.6459C18.7017 10.2059 16.8017 8.6059 14.7817 8.6059C13.1217 8.6059 11.6517 9.3859 10.7717 10.6159C11.1917 8.6559 12.2017 7.1859 12.8317 5.6359C14.0117 6.1659 15.3017 6.5159 16.7317 6.5159C19.0817 6.5159 20.4017 5.3459 20.4017 3.2259C20.4017 2.5359 20.1817 1.6559 19.7917 0.9159C19.5517 0.4259 18.7717 0.7359 19.0517 1.2959C19.3817 1.9259 19.5917 2.6859 19.5917 3.2959C19.5917 4.8959 18.5817 5.6959 16.7317 5.6959C15.4217 5.6959 14.2417 5.3459 13.1217 4.8259C13.2917 4.2759 13.3917 3.7159 13.3917 3.1059C13.3917 1.3159 12.1717 -0.0041 10.5817 -0.0041C9.4217 -0.0041 8.4417 0.6959 8.0517 1.7259C6.6917 0.9259 5.3117 0.3259 3.7817 0.3259C1.3317 0.3259 0.0017 1.8259 0.0017 3.6959C0.0017 4.3859 0.1717 5.1059 0.5617 5.8359C0.8117 6.3159 1.5617 5.9759 1.2917 5.4459C0.9717 4.8259 0.8217 4.2059 0.8217 3.6559C0.8217 2.2059 1.8717 1.1459 3.7817 1.1459C6.6117 1.1459 9.0317 3.6659 12.0717 5.2659C11.4617 6.7259 10.4417 8.2359 9.9817 10.3259C9.5417 8.4059 8.1917 7.2859 6.2817 7.2859C3.4017 7.2859 1.3717 10.1059 1.3717 13.6859ZM10.5817 0.8159C11.7317 0.8159 12.5717 1.6859 12.5717 3.1059C12.5717 3.5659 12.4917 4.0059 12.3617 4.4459C11.1217 3.7659 9.9417 2.9059 8.7517 2.1559C9.0017 1.3759 9.6817 0.8159 10.5817 0.8159ZM2.2117 13.6859C2.2117 10.3559 3.8917 8.1359 6.2417 8.1359C8.4417 8.1359 9.5717 9.7159 9.6517 12.4959C9.6817 12.8659 10.1817 12.8859 10.3117 12.5959C11.2017 10.6059 12.8217 9.4459 14.7617 9.4459C16.4317 9.4459 17.8617 10.6559 17.8617 12.6659C17.8617 17.3459 9.9617 17.1959 9.9617 21.2959C9.9617 22.2859 10.5117 23.0259 11.5317 23.2459C6.0217 22.9759 2.2117 18.9059 2.2117 13.6859Z" />
        </svg>
    