
        <svg xmlns="http://www.w3.org/2000/svg" viewBox="0 0 100 100">
            <path d="M2.0717 15.5831C2.0717 21.3231 6.5017 26.7431 13.8517 26.7431C17.2517 26.7431 19.9617 25.1031 19.9617 22.9931C19.9617 21.9931 19.2517 21.2231 18.0617 21.0731C17.5117 20.9931 17.0817 21.2431 17.0017 21.8131C16.8017 23.2531 15.7717 24.3131 14.3317 24.3131C13.3017 24.3131 12.6817 23.7631 12.6817 23.0131C12.6817 20.3631 20.9717 20.1931 20.9717 14.3831C20.9717 11.6931 19.1017 9.8231 16.5517 9.8231C15.2417 9.8231 14.1217 10.2231 13.2417 10.9431C13.6717 9.7831 14.2717 8.7431 14.7617 7.6731C15.8417 8.0831 17.0017 8.3531 18.2717 8.3531C21.4017 8.3531 23.1717 6.3431 23.1717 3.8331C23.1717 3.0031 22.9617 2.1131 22.5117 1.2531C21.8817 0.0131 19.9717 0.8431 20.6717 2.2131C21.0017 2.8331 21.1517 3.4431 21.1517 3.9931C21.1517 5.3631 20.1217 6.2831 18.2717 6.2831C17.3117 6.2831 16.3917 6.0431 15.5017 5.6731C15.6317 5.1331 15.7117 4.5731 15.7117 3.9731C15.7117 1.7331 14.2117 0.0031 12.1717 0.0031C10.8517 0.0031 9.7117 0.7531 9.2117 1.8731C7.9117 1.1731 6.5717 0.6531 5.1317 0.6531C1.9217 0.6531 0.0017 2.8231 0.0017 5.3331C0.0017 6.1131 0.1917 6.9331 0.6117 7.7331C1.2417 8.9731 3.1317 8.0931 2.4517 6.7831C2.1517 6.2131 2.0317 5.6731 2.0317 5.1631C2.0317 3.7631 3.1717 2.7331 5.1317 2.7331C7.5117 2.7331 9.8817 5.0831 12.8217 6.7431C12.3017 7.8231 11.6617 9.0331 11.2117 10.5031C10.5517 9.2131 9.2717 8.4831 7.7417 8.4831C4.2417 8.4831 2.0717 11.6531 2.0717 15.5831ZM12.1717 2.0731C13.0317 2.0731 13.6417 2.8231 13.6417 3.9231C13.6417 4.1731 13.6217 4.4131 13.5717 4.6631C12.7017 4.1231 11.8317 3.5231 10.9717 2.9531C11.1517 2.4131 11.5917 2.0731 12.1717 2.0731Z" />
        </svg>
    