
        <svg xmlns="http://www.w3.org/2000/svg" viewBox="0 0 100 100">
            <path d="M1.1817 13.2995C1.1817 19.1495 5.8617 23.6595 11.8517 23.6595C14.9417 23.6595 16.5817 22.3695 16.5817 20.8495C16.5817 19.7795 15.7817 19.2495 14.6717 19.2495C14.5117 19.2495 14.4417 19.2795 14.4417 19.4395C14.3917 21.3495 13.6417 22.5095 12.1217 22.5095C11.0117 22.5095 10.4017 21.8695 10.4017 20.9995C10.4017 17.5895 18.2417 17.5395 18.2417 12.3295C18.2417 9.9095 16.3117 8.3595 14.3917 8.3595C12.6417 8.3595 11.0817 9.2595 10.2417 10.6495C10.6317 8.4595 11.7517 6.8995 12.4117 5.2495C13.6217 5.8095 14.9317 6.1895 16.4217 6.1895C18.5817 6.1895 19.8017 5.1995 19.8017 3.1595C19.8017 2.4795 19.5717 1.6095 19.2117 0.8895C19.0317 0.5395 18.4817 0.7695 18.6817 1.1595C19.0117 1.7895 19.2217 2.5895 19.2217 3.1995C19.2217 4.8495 18.2217 5.6095 16.4217 5.6095C15.0217 5.6095 13.7817 5.2295 12.6117 4.6795C12.7817 4.1095 12.9017 3.5395 12.9017 2.9295C12.9017 1.2195 11.7317 -0.0005 10.2317 -0.0005C9.0917 -0.0005 8.1417 0.6795 7.7717 1.7095C6.4117 0.8995 5.0117 0.2895 3.4817 0.2895C1.1917 0.2895 0.0017 1.6395 0.0017 3.3595C0.0017 4.0295 0.1717 4.7495 0.5517 5.4695C0.7217 5.7995 1.2617 5.5595 1.0817 5.1895C0.7517 4.5495 0.6017 3.9295 0.6017 3.3595C0.6017 1.9095 1.6317 0.8695 3.4817 0.8695C6.4017 0.8695 8.8217 3.4095 11.8717 4.9795C11.2417 6.5495 10.1117 8.1195 9.6917 10.3695C9.3117 8.2895 7.9717 7.0295 5.9317 7.0295C3.2417 7.0295 1.1817 9.7495 1.1817 13.2995ZM10.2317 0.5695C11.4417 0.5695 12.3117 1.4495 12.3117 2.9295C12.3117 3.4495 12.2217 3.9295 12.0817 4.4095C10.7417 3.6995 9.5117 2.7995 8.2717 2.0195C8.5217 1.1795 9.2617 0.5695 10.2317 0.5695ZM1.7617 13.2995C1.7617 9.9395 3.5317 7.6095 5.9317 7.6095C8.1917 7.6095 9.3417 9.1595 9.4317 12.1295C9.4417 12.3595 9.8117 12.3895 9.9017 12.1595C10.7617 10.1595 12.3617 8.9295 14.3917 8.9295C16.1117 8.9295 17.6617 10.1795 17.6617 12.3195C17.6617 17.2295 9.8317 16.8895 9.8317 20.9995C9.8317 22.1095 10.4917 22.9295 11.6917 23.0995C6.0017 23.0195 1.7617 18.8595 1.7617 13.2995Z" />
        </svg>
    