
        <svg xmlns="http://www.w3.org/2000/svg" viewBox="0 0 100 100">
            <path d="M7.1417 21.5656C11.7517 21.5656 14.2717 19.1056 14.2717 14.4956V5.8256C14.2717 3.9756 13.2817 2.9756 11.4117 2.9756H0.8717V0.4356C0.8717 0.1956 0.6817 -0.0044 0.4317 -0.0044C0.2017 -0.0044 0.0017 0.1956 0.0017 0.4356V14.4956C0.0017 19.1056 2.5217 21.5656 7.1417 21.5656ZM7.1417 20.7056C3.0817 20.7056 0.8717 18.5956 0.8717 14.6156V3.8556H11.3417C12.7517 3.8556 13.3917 4.4856 13.3917 5.8856V14.6156C13.3917 18.5956 11.1917 20.7056 7.1417 20.7056ZM3.7517 12.9056H10.5117C11.3817 12.9056 11.8617 12.4456 11.8617 11.6256V6.6756C11.8617 5.8456 11.3817 5.4056 10.5117 5.4056H3.7517C2.8817 5.4056 2.4117 5.8456 2.4117 6.6756V11.6256C2.4117 12.4456 2.8817 12.9056 3.7517 12.9056ZM5.3217 18.7956H8.9517C9.2417 18.7956 9.4717 18.5656 9.4717 18.2656C9.4717 17.9756 9.2417 17.7556 8.9517 17.7556H5.3217C5.0317 17.7556 4.8017 17.9756 4.8017 18.2656C4.8017 18.5656 5.0317 18.7956 5.3217 18.7956Z" />
        </svg>
    