
        <svg xmlns="http://www.w3.org/2000/svg" viewBox="0 0 100 100">
            <path d="M4.1417 22.4041H18.2717C20.9517 22.4041 22.4017 20.9541 22.4017 18.3041V4.1141C22.4017 1.4641 20.9517 0.0041 18.2717 0.0041H4.1417C1.4617 0.0041 0.0017 1.4541 0.0017 4.1141V18.3041C0.0017 20.9541 1.4617 22.4041 4.1417 22.4041ZM8.3417 16.6041C7.8517 16.6041 7.3217 16.5341 6.9517 16.3141C6.6417 16.1441 6.4617 15.9241 6.4617 15.5841C6.4617 15.2141 6.6717 14.9641 7.0417 14.9041C7.3817 14.8841 7.5917 14.9141 8.0517 14.9141C9.1017 14.9141 9.5817 14.3641 9.7617 13.3341L10.0517 11.6041H8.0717C7.7017 11.6041 7.4517 11.3641 7.4517 11.0241C7.4517 10.6841 7.7017 10.4541 8.0717 10.4541H10.2417L10.5217 8.8141C10.8717 6.7341 12.0517 5.8141 14.1317 5.8141C14.5517 5.8141 15.1017 5.9041 15.4817 6.0941C15.7717 6.2441 16.0117 6.5041 16.0117 6.8441C16.0117 7.1741 15.8517 7.3641 15.5817 7.4541C15.2917 7.5341 14.9317 7.5141 14.4117 7.5141C13.3817 7.5141 12.8517 8.0241 12.6817 9.0341L12.4417 10.4541H14.6217C14.9917 10.4541 15.2417 10.6841 15.2417 11.0241C15.2417 11.3641 14.9917 11.6041 14.6217 11.6041H12.2717L11.9317 13.5941C11.5817 15.6841 10.4617 16.6041 8.3417 16.6041Z" />
        </svg>
    