
        <svg xmlns="http://www.w3.org/2000/svg" viewBox="0 0 100 100">
            <path d="M3.1617 20.742H17.5917C19.6617 20.742 20.7417 19.642 20.7417 17.592V3.152C20.7417 1.102 19.6617 0.002 17.5917 0.002H3.1617C1.0917 0.002 0.0017 1.082 0.0017 3.152V17.592C0.0017 19.662 1.0917 20.742 3.1617 20.742ZM7.5517 15.422C7.2117 15.422 6.8117 15.372 6.4917 15.262C6.2717 15.162 6.1517 15.042 6.1517 14.862C6.1517 14.692 6.2717 14.582 6.4717 14.582C6.7717 14.582 6.9817 14.722 7.4617 14.722C8.6817 14.722 9.1717 13.992 9.4017 12.812L9.8417 10.382H7.3517C7.1617 10.382 7.0317 10.262 7.0317 10.082C7.0317 9.912 7.1617 9.792 7.3517 9.792H9.9517L10.2917 7.882C10.5617 6.312 11.3717 5.402 12.9617 5.402C13.1717 5.402 13.6317 5.442 14.0017 5.582C14.2017 5.672 14.3417 5.762 14.3417 5.962C14.3417 6.142 14.2117 6.232 14.0417 6.242C13.7817 6.242 13.4917 6.102 13.0217 6.102C11.8217 6.102 11.2617 6.782 11.0617 7.952L10.7317 9.792H13.3617C13.5317 9.792 13.6617 9.912 13.6617 10.082C13.6617 10.262 13.5317 10.382 13.3617 10.382H10.6317L10.1817 12.902C9.9017 14.492 9.1617 15.422 7.5517 15.422Z" />
        </svg>
    