
        <svg xmlns="http://www.w3.org/2000/svg" viewBox="0 0 100 100">
            <path d="M0.8706 9.7864C-0.0094 9.7864 -0.2294 10.4364 0.2506 11.0964L2.9706 14.8864C3.3406 15.4064 3.9306 15.3964 4.3006 14.8864L7.0206 11.0864C7.4906 10.4364 7.2706 9.7864 6.4006 9.7864H4.8206C5.8606 5.5264 9.6806 2.3764 14.2606 2.3764C19.6306 2.3764 23.9806 6.7264 23.9806 12.1064C23.9806 17.4864 19.6306 21.8164 14.2606 21.8164C11.1206 21.8164 8.3506 20.3364 6.5906 18.0264C6.1206 17.4764 5.4406 17.2964 4.8606 17.7064C4.3306 18.0964 4.2206 18.8564 4.7206 19.4764C6.8606 22.3464 10.4506 24.2064 14.2606 24.2064C20.9406 24.2064 26.3706 18.7864 26.3706 12.1064C26.3706 5.4264 20.9406 -0.0036 14.2606 -0.0036C8.3706 -0.0036 3.4606 4.2064 2.3806 9.7864ZM11.4506 17.3164C13.3406 17.3164 14.2906 16.3864 14.5906 14.5264L14.9506 12.3864H17.3806C17.6906 12.3864 17.9106 12.1864 17.9106 11.8964C17.9106 11.6064 17.6906 11.4064 17.3806 11.4064H15.1206L15.3906 9.8064C15.5606 8.7564 16.1006 8.2264 17.1706 8.2264C17.6106 8.2264 17.9206 8.2964 18.1806 8.2764C18.5106 8.2364 18.6806 8.0664 18.6806 7.7564C18.6806 7.4564 18.4506 7.2464 18.1706 7.1164C17.8406 6.9564 17.3506 6.9164 16.9906 6.9164C15.1406 6.9164 14.1106 7.8164 13.8106 9.6564L13.5106 11.4064H11.2506C10.9406 11.4064 10.7106 11.6064 10.7106 11.8964C10.7106 12.1864 10.9406 12.3864 11.2506 12.3864H13.3506L13.0206 14.3464C12.8506 15.4264 12.3606 15.9964 11.2606 15.9964C10.8106 15.9964 10.6406 15.9364 10.2606 15.9464C9.9506 15.9564 9.7506 16.1764 9.7506 16.4664C9.7506 16.7764 9.9406 16.9764 10.2306 17.1064C10.5706 17.2764 11.0506 17.3164 11.4506 17.3164Z" />
        </svg>
    