
        <svg xmlns="http://www.w3.org/2000/svg" viewBox="0 0 100 100">
            <path d="M1.3517 22.137H24.0017V21.497C24.0017 21.137 23.7917 20.927 23.4217 20.927H22.6717V7.597H23.7517C24.2417 7.597 24.5317 7.247 24.5317 6.867C24.5317 6.607 24.3917 6.367 24.0617 6.177L14.0017 0.377C13.5717 0.127 13.1117 -0.003 12.6717 -0.003C12.2317 -0.003 11.7617 0.127 11.3417 0.377L1.2917 6.177C0.9617 6.367 0.8217 6.607 0.8217 6.867C0.8217 7.247 1.0917 7.597 1.5917 7.597H2.6717V20.927H1.9217C1.5717 20.927 1.3517 21.137 1.3517 21.497ZM4.0417 20.927V6.277L12.1217 1.727C12.2817 1.627 12.4817 1.567 12.6717 1.567C12.8717 1.567 13.0517 1.627 13.2317 1.727L21.3017 6.277V20.927ZM9.8517 17.407C11.5917 17.407 12.4117 16.467 12.7017 14.767L13.1117 12.387H15.7117C15.9517 12.387 16.1217 12.237 16.1217 11.997C16.1217 11.767 15.9517 11.597 15.7117 11.597H13.2417L13.5517 9.827C13.7317 8.697 14.3017 8.097 15.4417 8.097C15.8917 8.097 16.1717 8.217 16.4317 8.217C16.7117 8.217 16.8617 8.077 16.8617 7.817C16.8617 7.567 16.6717 7.417 16.4317 7.317C16.0917 7.167 15.6217 7.137 15.3517 7.137C13.6517 7.137 12.7417 8.067 12.4617 9.737L12.1417 11.597H9.6817C9.4317 11.597 9.2617 11.767 9.2617 11.997C9.2617 12.237 9.4317 12.387 9.6817 12.387H12.0117L11.6117 14.637C11.4117 15.787 10.9217 16.437 9.7517 16.437C9.2817 16.437 9.0917 16.337 8.7317 16.337C8.4817 16.337 8.3217 16.497 8.3217 16.727C8.3217 16.977 8.4817 17.137 8.7417 17.237C9.0717 17.367 9.5017 17.407 9.8517 17.407ZM0.7217 24.497H24.6217C25.0217 24.497 25.3517 24.167 25.3517 23.767C25.3517 23.367 25.0217 23.037 24.6217 23.037H0.7217C0.3317 23.037 0.0017 23.367 0.0017 23.767C0.0017 24.167 0.3317 24.497 0.7217 24.497Z" />
        </svg>
    