
        <svg xmlns="http://www.w3.org/2000/svg" viewBox="0 0 100 100">
            <path d="M3.4617 21.2264H17.7617C20.0517 21.2264 21.2217 20.0464 21.2217 17.7964V3.4264C21.2217 1.1764 20.0517 -0.0036 17.7617 -0.0036H3.4617C1.1717 -0.0036 0.0017 1.1564 0.0017 3.4264V17.7964C0.0017 20.0664 1.1717 21.2264 3.4617 21.2264ZM3.4817 19.7664C2.1717 19.7664 1.4517 19.0764 1.4517 17.7164V3.5064C1.4517 2.1464 2.1717 1.4564 3.4817 1.4564H17.7317C19.0317 1.4564 19.7717 2.1464 19.7717 3.5064V17.7164C19.7717 19.0764 19.0317 19.7664 17.7317 19.7664ZM7.7917 15.7664C9.5317 15.7664 10.3517 14.8264 10.6317 13.1164L11.0417 10.7464H13.6517C13.8917 10.7464 14.0617 10.5864 14.0617 10.3464C14.0617 10.1264 13.8917 9.9564 13.6517 9.9564H11.1717L11.4717 8.1864C11.6717 7.0564 12.2317 6.4564 13.3717 6.4564C13.8317 6.4564 14.1117 6.5664 14.3717 6.5664C14.6517 6.5664 14.8017 6.4264 14.8017 6.1764C14.8017 5.9264 14.6117 5.7764 14.3717 5.6764C14.0317 5.5264 13.5617 5.4964 13.2917 5.4964C11.5917 5.4964 10.6717 6.4064 10.3917 8.0964L10.0817 9.9564H7.6017C7.3717 9.9564 7.1917 10.1264 7.1917 10.3464C7.1917 10.5864 7.3717 10.7464 7.6017 10.7464H9.9517L9.5517 12.9864C9.3517 14.1464 8.8617 14.7864 7.6917 14.7864C7.2117 14.7864 7.0317 14.6964 6.6717 14.6964C6.4117 14.6964 6.2617 14.8564 6.2617 15.0864C6.2617 15.3364 6.4117 15.4764 6.6817 15.5864C7.0117 15.7264 7.4417 15.7664 7.7917 15.7664Z" />
        </svg>
    