
        <svg xmlns="http://www.w3.org/2000/svg" viewBox="0 0 100 100">
            <path d="M11.4923 22.977C17.8323 22.977 22.9823 17.847 22.9823 11.497C22.9823 5.147 17.8323 -0.003 11.4923 -0.003C5.1423 -0.003 0.0023 5.147 0.0023 11.497C0.0023 17.847 5.1423 22.977 11.4923 22.977ZM11.4923 22.087C5.6323 22.087 0.8923 17.357 0.8923 11.497C0.8923 5.637 5.6323 0.887 11.4923 0.887C17.3523 0.887 22.0923 5.637 22.0923 11.497C22.0923 17.357 17.3523 22.087 11.4923 22.087ZM8.6723 16.507C10.2823 16.507 11.0123 15.587 11.2923 14.007L11.7423 11.507H14.4523C14.6223 11.507 14.7423 11.387 14.7423 11.217C14.7423 11.047 14.6223 10.917 14.4523 10.917H11.8323L12.1623 9.107C12.3623 7.917 12.9223 7.257 14.1123 7.257C14.5823 7.257 14.8623 7.397 15.1023 7.397C15.3023 7.397 15.4223 7.287 15.4223 7.117C15.4223 6.927 15.2923 6.817 15.0923 6.737C14.7223 6.597 14.2623 6.567 14.0523 6.567C12.4723 6.567 11.6723 7.467 11.4023 9.037L11.0623 10.917H8.4723C8.2923 10.917 8.1723 11.047 8.1723 11.217C8.1723 11.387 8.2923 11.507 8.4723 11.507H10.9523L10.5223 13.907C10.3023 15.097 9.8123 15.817 8.6023 15.817C8.1223 15.817 7.9023 15.667 7.6023 15.667C7.4023 15.667 7.2923 15.797 7.2923 15.957C7.2923 16.137 7.4023 16.267 7.6323 16.347C7.9423 16.467 8.3323 16.507 8.6723 16.507Z" />
        </svg>
    