
        <svg xmlns="http://www.w3.org/2000/svg" viewBox="0 0 100 100">
            <path d="M2.3717 20.1119H11.7517V21.7019H9.8817C9.1717 21.7019 8.9017 22.4019 9.3517 22.9619L11.8617 26.1319C12.1717 26.5219 12.7017 26.5219 13.0217 26.1319L15.5017 22.9619C15.9217 22.4219 15.6717 21.7019 14.9717 21.7019H13.1017V20.1119H22.4617C23.9417 20.1119 24.8417 19.2219 24.8417 17.7619V13.2619C24.8417 11.8219 23.9417 10.9319 22.4617 10.9319H13.0917V9.1919H22.4617C23.9417 9.1919 24.8417 8.2819 24.8417 6.8419V2.3419C24.8417 0.8919 23.9417 0.0019 22.4617 0.0019H2.3717C0.9017 0.0019 0.0017 0.8919 0.0017 2.3419V6.8419C0.0017 8.2819 0.9017 9.1919 2.3717 9.1919H11.7517V10.9319H2.3717C0.9017 10.9319 0.0017 11.8219 0.0017 13.2619V17.7619C0.0017 19.2219 0.9017 20.1119 2.3717 20.1119Z" />
        </svg>
    