
        <svg xmlns="http://www.w3.org/2000/svg" viewBox="0 0 100 100">
            <path d="M1.7917 19.4188H11.7517V20.9888H9.8417C9.3417 20.9888 9.1517 21.5188 9.4617 21.9388L11.6917 24.9188C11.9617 25.2588 12.4217 25.2388 12.6817 24.9188L14.9017 21.9388C15.2217 21.5188 15.0317 20.9888 14.5317 20.9888H12.6117V19.4188H22.5717C23.6617 19.4188 24.3617 18.7188 24.3617 17.6288V12.4088C24.3617 11.3188 23.6617 10.6188 22.5717 10.6188H12.6017V8.7988H22.5717C23.6617 8.7988 24.3617 8.0988 24.3617 7.0188V1.7888C24.3617 0.6988 23.6617 -0.0012 22.5717 -0.0012H1.7917C0.7017 -0.0012 0.0017 0.6988 0.0017 1.7888V7.0188C0.0017 8.0988 0.7017 8.7988 1.7917 8.7988H11.7617V10.6188H1.7917C0.7017 10.6188 0.0017 11.3188 0.0017 12.4088V17.6288C0.0017 18.7188 0.7017 19.4188 1.7917 19.4188ZM1.8317 7.9588C1.2417 7.9588 0.8417 7.5588 0.8417 6.9688V1.8287C0.8417 1.2387 1.2417 0.8388 1.8317 0.8388H22.5317C23.1317 0.8388 23.5217 1.2387 23.5217 1.8287V6.9688C23.5217 7.5588 23.1317 7.9588 22.5317 7.9588ZM1.8317 18.5788C1.2417 18.5788 0.8417 18.1788 0.8417 17.5888V12.4488C0.8417 11.8588 1.2417 11.4588 1.8317 11.4588H22.5317C23.1317 11.4588 23.5217 11.8588 23.5217 12.4488V17.5888C23.5217 18.1788 23.1317 18.5788 22.5317 18.5788Z" />
        </svg>
    