
        <svg xmlns="http://www.w3.org/2000/svg" viewBox="0 0 100 100">
            <path d="M2.9417 21.0842H11.7817V22.6442H9.9817C9.0517 22.6442 8.7117 23.5242 9.2917 24.2242L12.1417 27.6942C12.5117 28.1442 13.1417 28.1342 13.5117 27.6942L16.3317 24.2242C16.9017 23.5342 16.5817 22.6442 15.6717 22.6442H13.8417V21.0842H22.6617C24.4917 21.0842 25.6017 19.9842 25.6017 18.1842V14.2542C25.6017 12.4542 24.4917 11.3542 22.6617 11.3542H13.8417V9.7242H22.6617C24.4917 9.7242 25.6017 8.6242 25.6017 6.8342V2.8942C25.6017 1.1042 24.4917 0.0042 22.6617 0.0042H2.9417C1.1117 0.0042 0.0017 1.1042 0.0017 2.8942V6.8342C0.0017 8.6242 1.1117 9.7242 2.9417 9.7242H11.7917V11.3542H2.9417C1.1117 11.3542 0.0017 12.4542 0.0017 14.2542V18.1842C0.0017 19.9842 1.1117 21.0842 2.9417 21.0842ZM3.1417 7.5742C2.5317 7.5742 2.1517 7.1942 2.1517 6.5742V3.1542C2.1517 2.5442 2.5317 2.1542 3.1417 2.1542H22.4717C23.0717 2.1542 23.4517 2.5442 23.4517 3.1542V6.5742C23.4517 7.1942 23.0717 7.5742 22.4717 7.5742ZM3.1417 18.9242C2.5317 18.9242 2.1517 18.5542 2.1517 17.9342V14.5042C2.1517 13.8942 2.5317 13.5142 3.1417 13.5142H22.4717C23.0717 13.5142 23.4517 13.8942 23.4517 14.5042V17.9342C23.4517 18.5542 23.0717 18.9242 22.4717 18.9242Z" />
        </svg>
    