
        <svg xmlns="http://www.w3.org/2000/svg" viewBox="0 0 100 100">
            <path d="M17.2623 23.0188C23.6223 23.0188 28.7723 17.8588 28.7723 11.5087C28.7723 5.1587 23.6223 -0.0012 17.2623 -0.0012C10.9123 -0.0012 5.7523 5.1587 5.7523 11.5087C5.7523 17.8588 10.9123 23.0188 17.2623 23.0188ZM0.0023 11.5087C0.0023 15.2588 1.2223 18.7388 3.3123 21.5788C3.7523 22.1588 4.4923 22.2088 5.0423 21.7588C5.5523 21.3188 5.6023 20.6388 5.1923 20.0788C3.4223 17.6688 2.3923 14.6988 2.3923 11.5087C2.3923 8.3088 3.4223 5.3387 5.1923 2.9288C5.6023 2.3687 5.5623 1.6988 5.0423 1.2387C4.4923 0.7987 3.7523 0.8588 3.3123 1.4387C1.2223 4.2688 0.0023 7.7587 0.0023 11.5087ZM34.5223 11.5087C34.5223 7.7587 33.3023 4.2688 31.2023 1.4387C30.7823 0.8588 30.0323 0.7987 29.4823 1.2387C28.9523 1.6988 28.9223 2.3687 29.3323 2.9288C31.1023 5.3387 32.1323 8.3088 32.1323 11.5087C32.1323 14.6988 31.1023 17.6688 29.3323 20.0788C28.9323 20.6388 28.9723 21.3188 29.4823 21.7588C30.0323 22.2088 30.7823 22.1588 31.2023 21.5788C33.3023 18.7388 34.5223 15.2588 34.5223 11.5087ZM21.0023 14.0288C20.6823 13.7088 20.3923 13.6988 20.0823 14.0288C19.4323 14.7388 18.3823 15.1988 17.2523 15.1988C16.1123 15.1988 15.0823 14.7388 14.4223 14.0288C14.1123 13.6988 13.8323 13.7088 13.5123 14.0288C12.8223 14.7788 11.8123 15.1988 10.7123 15.1988C9.9723 15.1988 9.2923 15.0088 8.7023 14.6688C8.3423 13.6888 8.1423 12.6188 8.1423 11.5087C8.1423 6.4688 12.2323 2.3788 17.2623 2.3788C22.3023 2.3788 26.3923 6.4688 26.3923 11.5087C26.3923 12.6088 26.1923 13.6788 25.8323 14.6588C25.2423 14.9988 24.5423 15.1988 23.8023 15.1988C22.7023 15.1988 21.6923 14.7788 21.0023 14.0288Z" />
        </svg>
    