
        <svg xmlns="http://www.w3.org/2000/svg" viewBox="0 0 100 100">
            <path d="M3.4617 21.2064H23.9917C26.2817 21.2064 27.4417 20.0364 27.4417 17.7864V6.4064C27.4417 4.1564 26.2817 2.9864 23.9917 2.9864H22.2117V1.2964C22.2117 0.4764 21.7417 -0.0036 20.8917 -0.0036H17.2417C16.3917 -0.0036 15.9217 0.4764 15.9217 1.2964V2.9864H11.5217V1.2964C11.5217 0.4764 11.0517 -0.0036 10.2117 -0.0036H6.5517C5.7117 -0.0036 5.2417 0.4764 5.2417 1.2964V2.9864H3.4617C1.1717 2.9864 0.0017 4.1364 0.0017 6.4064V17.7864C0.0017 20.0664 1.1717 21.2064 3.4617 21.2064ZM17.4717 11.8664C17.2117 11.5764 16.9417 11.5664 16.7017 11.8664C16.0217 12.6464 14.9317 13.1364 13.7217 13.1364C12.5117 13.1364 11.4217 12.6464 10.7417 11.8664C10.5017 11.5664 10.2317 11.5764 9.9717 11.8664C9.2817 12.6664 8.2017 13.1364 7.0217 13.1364C5.8317 13.1364 4.7617 12.6664 4.0617 11.8664C3.8117 11.5764 3.5417 11.5664 3.2917 11.8664C2.8317 12.3964 2.2217 12.7864 1.4517 12.9864V6.4764C1.4517 5.1364 2.1717 4.4264 3.4817 4.4264H23.9617C25.2517 4.4264 25.9917 5.1364 25.9917 6.4764V12.9864C25.2217 12.7864 24.6117 12.3964 24.1517 11.8664C23.9017 11.5664 23.6417 11.5764 23.3817 11.8664C22.6917 12.6664 21.6117 13.1364 20.4217 13.1364C19.2417 13.1364 18.1617 12.6664 17.4717 11.8664Z" />
        </svg>
    