
        <svg xmlns="http://www.w3.org/2000/svg" viewBox="0 0 100 100">
            <path d="M4.5917 23.2359H23.7217C26.6117 23.2359 28.3117 21.5459 28.3117 18.6459V8.0059C28.3117 5.0959 26.6117 3.4059 23.7217 3.4059H22.7717V2.3559C22.7717 0.8759 21.9117 -0.0041 20.4517 -0.0041H17.9717C16.5117 -0.0041 15.6517 0.8759 15.6517 2.3559V3.4059H12.6517V2.3559C12.6517 0.8759 11.8017 -0.0041 10.3317 -0.0041H7.8617C6.4017 -0.0041 5.5417 0.8759 5.5417 2.3559V3.4059H4.5917C1.7017 3.4059 0.0017 5.0959 0.0017 8.0059V18.6459C0.0017 21.5459 1.7017 23.2359 4.5917 23.2359ZM17.6117 13.5559C17.1317 13.1159 16.8617 13.1159 16.3717 13.5559C15.8017 14.0259 15.0117 14.3159 14.1517 14.3159C13.3017 14.3159 12.5117 14.0259 11.9417 13.5559C11.4517 13.1159 11.1817 13.1159 10.6917 13.5559C10.1117 14.0259 9.3317 14.3159 8.4817 14.3159C7.6317 14.3159 6.8317 14.0259 6.2717 13.5559C5.7617 13.1159 5.4917 13.1159 5.0017 13.5559C4.7617 13.7559 4.4617 13.9359 4.1617 14.0659V8.6359C4.1617 7.8659 4.5117 7.5659 5.2217 7.5659H23.0817C23.8017 7.5659 24.1517 7.8659 24.1517 8.6359V14.0659C23.8517 13.9359 23.5517 13.7559 23.3117 13.5559C22.8117 13.1159 22.5517 13.1159 22.0417 13.5559C21.4817 14.0259 20.6717 14.3159 19.8317 14.3159C18.9917 14.3159 18.2017 14.0259 17.6117 13.5559Z" />
        </svg>
    