
        <svg xmlns="http://www.w3.org/2000/svg" viewBox="0 0 100 100">
            <path d="M4.1117 18.2464C5.4417 18.2464 6.2117 17.4464 6.2117 16.0764V7.7664H7.4517C8.3717 7.7664 8.9617 7.1564 8.9617 6.2464C8.9617 5.3464 8.3517 4.7464 7.4517 4.7464H6.1017V4.0464C6.1017 3.1964 6.5617 2.7964 7.6017 2.7664C7.9417 2.7564 8.2517 2.7064 8.4717 2.6164C8.9017 2.4364 9.1317 2.1064 9.1317 1.6264C9.1317 0.5664 8.0417 -0.0036 6.0117 -0.0036C3.2917 -0.0036 2.0117 1.2264 2.0117 3.8364V4.7464H1.5017C0.6017 4.7464 0.0017 5.3564 0.0017 6.2464C0.0017 7.1564 0.6017 7.7664 1.5017 7.7664H2.0117V16.0764C2.0117 17.4464 2.7917 18.2464 4.1117 18.2464ZM12.6917 18.2464C14.0017 18.2464 14.7817 17.4364 14.7817 16.0764V10.4064C14.7817 8.8264 15.7217 7.7664 17.1317 7.7664C18.5817 7.7664 19.3817 8.6764 19.3817 10.2864V16.0764C19.3817 17.4464 20.1517 18.2464 21.4817 18.2464C22.7917 18.2464 23.5617 17.4464 23.5617 16.0764V9.3964C23.5617 6.1964 21.8417 4.3464 18.8817 4.3464C16.8617 4.3464 15.4717 5.2964 14.8217 7.1164H14.7517V6.4364C14.7517 5.1164 13.9317 4.3164 12.6217 4.3164C11.3417 4.3164 10.5917 5.0964 10.5917 6.4264V16.0764C10.5917 17.4364 11.3717 18.2464 12.6917 18.2464Z" />
        </svg>
    