
        <svg xmlns="http://www.w3.org/2000/svg" viewBox="0 0 100 100">
            <path d="M12.3723 24.7459C19.2023 24.7459 24.7523 19.2059 24.7523 12.3759C24.7523 5.5459 19.2023 -0.0041 12.3723 -0.0041C5.5423 -0.0041 0.0023 5.5459 0.0023 12.3759C0.0023 19.2059 5.5423 24.7459 12.3723 24.7459ZM12.3723 21.6659C7.2423 21.6659 3.0823 17.5059 3.0823 12.3759C3.0823 7.2259 7.2423 3.0859 12.3723 3.0859C17.5223 3.0859 21.6723 7.2259 21.6723 12.3759C21.6723 17.5059 17.5223 21.6659 12.3723 21.6659ZM6.1323 10.3859H18.6223V9.8059C18.6223 8.6159 17.9623 7.9659 16.7623 7.9659H11.9723C11.5623 7.9659 11.3323 7.8559 11.0023 7.6059L10.7123 7.3959C10.2923 7.1059 10.0323 6.9759 9.4323 6.9759H7.8723C6.7923 6.9759 6.1323 7.6259 6.1323 8.7959ZM7.9923 17.5159H16.8623C17.9723 17.5159 18.6223 16.8659 18.6223 15.6759V11.3759H6.1323V15.6759C6.1323 16.8659 6.7823 17.5159 7.9923 17.5159Z" />
        </svg>
    