
        <svg xmlns="http://www.w3.org/2000/svg" viewBox="0 0 100 100">
            <path d="M11.4923 22.977C17.8123 22.977 22.9823 17.827 22.9823 11.497C22.9823 5.167 17.8123 -0.003 11.4923 -0.003C5.1723 -0.003 0.0023 5.167 0.0023 11.497C0.0023 17.827 5.1723 22.977 11.4923 22.977ZM8.9223 19.247C8.4123 19.247 8.0323 18.937 8.0423 18.417L8.1823 10.807C8.1823 10.547 8.1123 10.407 7.8823 10.297C7.0123 9.907 6.7223 9.457 6.7723 8.297L6.9523 4.207C6.9723 3.947 7.1123 3.797 7.3723 3.797C7.6323 3.797 7.7723 3.947 7.7723 4.227L7.7323 8.207C7.7323 8.457 7.8723 8.587 8.0823 8.587C8.2823 8.587 8.4523 8.457 8.4523 8.227L8.4923 4.117C8.4923 3.847 8.6723 3.707 8.9223 3.707C9.1723 3.707 9.3423 3.847 9.3423 4.117L9.3823 8.227C9.3823 8.457 9.5523 8.587 9.7623 8.587C9.9523 8.587 10.1023 8.457 10.1023 8.207L10.0623 4.227C10.0623 3.947 10.2223 3.797 10.4623 3.797C10.7223 3.797 10.8623 3.947 10.8723 4.207L11.0723 8.297C11.1323 9.457 10.8323 9.907 9.9623 10.297C9.7423 10.407 9.6723 10.547 9.6723 10.807L9.7923 18.417C9.8123 18.937 9.4323 19.247 8.9223 19.247ZM13.5323 13.807C13.5423 13.427 13.4323 13.197 13.2023 13.017L12.9223 12.807C12.6023 12.537 12.4223 12.257 12.4223 11.717V11.207C12.4223 8.307 13.0823 5.617 14.1823 4.077C14.3523 3.827 14.4923 3.707 14.7223 3.707C14.9423 3.707 15.1123 3.827 15.1123 4.147V18.417C15.1123 18.947 14.7523 19.247 14.2223 19.247C13.7223 19.247 13.3123 18.937 13.3323 18.277Z" />
        </svg>
    