
        <svg xmlns="http://www.w3.org/2000/svg" viewBox="0 0 100 100">
            <path d="M11.7523 23.5048C18.2323 23.5048 23.5123 18.2348 23.5123 11.7548C23.5123 5.2748 18.2323 0.0048 11.7523 0.0048C5.2723 0.0048 0.0023 5.2748 0.0023 11.7548C0.0023 18.2348 5.2723 23.5048 11.7523 23.5048ZM9.1623 19.5948C8.6223 19.5948 8.2523 19.2848 8.2623 18.7548L8.3923 11.0948C8.3923 10.8548 8.3123 10.6848 8.1023 10.5948C7.1923 10.1948 6.8523 9.7748 6.9023 8.5848L7.0923 4.4448C7.1023 4.1648 7.2623 3.9948 7.5323 3.9948C7.8023 3.9948 7.9523 4.1748 7.9523 4.4648L7.9123 8.4948C7.9123 8.7448 8.0623 8.8948 8.2723 8.8948C8.4923 8.8948 8.6623 8.7448 8.6623 8.5148L8.7223 4.3448C8.7223 4.0648 8.8923 3.9148 9.1623 3.9148C9.4223 3.9148 9.6023 4.0648 9.6023 4.3448L9.6523 8.5148C9.6523 8.7448 9.8223 8.8948 10.0423 8.8948C10.2523 8.8948 10.4223 8.7448 10.4223 8.4948L10.3723 4.4648C10.3723 4.1748 10.5223 3.9948 10.7823 3.9948C11.0523 3.9948 11.2023 4.1648 11.2223 4.4448L11.4223 8.5848C11.4823 9.7748 11.1223 10.1948 10.2423 10.5948C10.0223 10.6848 9.9423 10.8548 9.9423 11.0948L10.0523 18.7548C10.0823 19.2848 9.7023 19.5948 9.1623 19.5948ZM13.9323 13.9448C13.9323 13.6448 13.8323 13.4248 13.5823 13.2648L13.2423 13.0148C12.9123 12.7648 12.7223 12.4448 12.7223 11.9448V11.4648C12.7223 8.6748 13.4323 5.8748 14.5323 4.3248C14.7223 4.0448 14.8923 3.9148 15.1323 3.9148C15.3623 3.9148 15.5723 4.0448 15.5723 4.3848V18.7648C15.5723 19.3048 15.2223 19.5948 14.6623 19.5948C14.1223 19.5948 13.7323 19.2848 13.7623 18.6648Z" />
        </svg>
    