
        <svg xmlns="http://www.w3.org/2000/svg" viewBox="0 0 100 100">
            <path d="M6.2924 20.8694C9.9024 20.8694 12.3924 18.7294 12.6124 15.3594C12.8224 15.4494 13.0724 15.4894 13.3424 15.4894H28.5624C28.8424 15.4894 29.0924 15.4494 29.2924 15.3594C29.5124 18.7294 32.0024 20.8694 35.6024 20.8694C39.8824 20.8694 42.3624 18.1994 41.8224 13.8194L40.7824 5.4094C40.3524 1.8594 38.2924 -0.0006 34.7224 -0.0006H7.1724C3.6124 -0.0006 1.5624 1.8594 1.1124 5.4094L0.0724 13.8194C-0.4676 18.1994 2.0324 20.8694 6.2924 20.8694ZM13.6324 12.7594C13.0024 12.7594 12.6324 12.3894 12.6324 11.7194V3.7694C12.6324 3.1094 13.0024 2.7294 13.6324 2.7294H28.2824C28.9024 2.7294 29.2624 3.1094 29.2624 3.7694V11.7194C29.2624 12.3894 28.9024 12.7594 28.2824 12.7594ZM36.8624 14.1194C36.0624 14.1194 35.4324 13.4994 35.4324 12.6994C35.4324 11.8794 36.0624 11.2494 36.8624 11.2494C37.6624 11.2494 38.3124 11.8794 38.3124 12.6994C38.3124 13.4994 37.6624 14.1194 36.8624 14.1194ZM6.3424 16.7894C5.8424 16.7894 5.4824 16.4294 5.4824 15.9294V14.8794H4.3824C3.8824 14.8794 3.5224 14.5294 3.5224 14.0394C3.5224 13.5494 3.8824 13.1994 4.3824 13.1994H5.4824V12.1594C5.4824 11.6594 5.8424 11.2894 6.3424 11.2894C6.8424 11.2894 7.2024 11.6594 7.2024 12.1594V13.1994H8.2124C8.7524 13.1994 9.1524 13.5494 9.1524 14.0394C9.1524 14.5294 8.7524 14.8794 8.2124 14.8794H7.2024V15.9294C7.2024 16.4294 6.8424 16.7894 6.3424 16.7894ZM34.3224 16.6394C33.5324 16.6394 32.8724 15.9994 32.8724 15.1994C32.8724 14.3994 33.5324 13.7694 34.3224 13.7694C35.1324 13.7694 35.7724 14.3994 35.7724 15.1994C35.7724 15.9994 35.1324 16.6394 34.3224 16.6394Z" />
        </svg>
    