
        <svg xmlns="http://www.w3.org/2000/svg" viewBox="0 0 100 100">
            <path d="M0.0017 17.5264C0.0017 18.9764 0.8917 19.7064 1.9617 19.7064C2.4017 19.7064 2.8717 19.5864 3.3317 19.3264L16.0917 11.8864C16.9017 11.4264 17.4017 10.9564 17.5617 10.3364V17.5264C17.5617 18.9764 18.4717 19.7064 19.5217 19.7064C19.9717 19.7064 20.4417 19.5864 20.8917 19.3264L33.6717 11.8864C34.4317 11.4464 34.9217 11.0064 35.1117 10.4264V17.9764C35.1117 18.9764 35.8617 19.7064 36.8917 19.7064C37.9217 19.7064 38.6817 18.9764 38.6817 17.9764V1.7264C38.6817 0.7364 37.9217 -0.0036 36.8917 -0.0036C35.8617 -0.0036 35.1117 0.7364 35.1117 1.7264V9.2764C34.9217 8.7064 34.4317 8.2664 33.6717 7.8164L20.8917 0.3864C20.4417 0.1164 19.9717 -0.0036 19.5217 -0.0036C18.4717 -0.0036 17.5617 0.7264 17.5617 2.1764V9.3764C17.4017 8.7464 16.9017 8.2864 16.0917 7.8164L3.3317 0.3864C2.8717 0.1164 2.4017 -0.0036 1.9617 -0.0036C0.8917 -0.0036 0.0017 0.7264 0.0017 2.1764ZM3.0217 15.6164V4.0764C3.0217 3.9264 3.1317 3.8164 3.2717 3.8164C3.3117 3.8164 3.3617 3.8364 3.4117 3.8664L13.3617 9.6464C13.4517 9.6864 13.4917 9.7764 13.4917 9.8564C13.4917 9.9264 13.4517 10.0064 13.3617 10.0664L3.4117 15.8464C3.3617 15.8664 3.3117 15.8864 3.2717 15.8864C3.1317 15.8864 3.0217 15.7864 3.0217 15.6164ZM20.5917 15.6164V4.0764C20.5917 3.9264 20.6917 3.8164 20.8317 3.8164C20.8817 3.8164 20.9317 3.8364 20.9717 3.8664L30.9217 9.6464C31.0217 9.6864 31.0617 9.7764 31.0617 9.8564C31.0617 9.9264 31.0217 10.0064 30.9217 10.0664L20.9717 15.8464C20.9317 15.8664 20.8817 15.8864 20.8317 15.8864C20.6917 15.8864 20.5917 15.7864 20.5917 15.6164Z" />
        </svg>
    