
        <svg xmlns="http://www.w3.org/2000/svg" viewBox="0 0 100 100">
            <path d="M0.0017 16.2741C0.0017 17.3741 0.6317 17.9041 1.3917 17.9041C1.7217 17.9041 2.0717 17.8041 2.4117 17.6141L14.7217 10.4441C15.4017 10.0441 15.7517 9.7241 15.8917 9.3441V16.9241C15.8917 17.4741 16.3217 17.9041 16.8917 17.9041C17.4517 17.9041 17.8917 17.4741 17.8917 16.9241V0.9841C17.8917 0.4341 17.4517 0.0041 16.8917 0.0041C16.3217 0.0041 15.8917 0.4341 15.8917 0.9841V8.5641C15.7517 8.1641 15.4017 7.8541 14.7217 7.4641L2.4117 0.2941C2.0717 0.0941 1.7217 0.0041 1.3917 0.0041C0.6317 0.0041 0.0017 0.5141 0.0017 1.6141ZM1.8917 15.3541V2.5541C1.8917 2.4141 1.9717 2.3241 2.1017 2.3241C2.1417 2.3241 2.1917 2.3341 2.2217 2.3641L13.1717 8.7741C13.2517 8.8241 13.2917 8.8841 13.2917 8.9541C13.2917 9.0141 13.2517 9.0841 13.1717 9.1241L2.2217 15.5341C2.1917 15.5641 2.1417 15.5841 2.1017 15.5841C1.9717 15.5841 1.8917 15.4841 1.8917 15.3541Z" />
        </svg>
    