
        <svg xmlns="http://www.w3.org/2000/svg" viewBox="0 0 100 100">
            <path d="M0.7642 17.4614C1.1842 17.4614 1.5242 17.1314 1.5242 16.7114V0.7414C1.5242 0.3314 1.1842 0.0014 0.7642 0.0014C0.3242 0.0014 0.0042 0.3314 0.0042 0.7414V16.7114C0.0042 17.1314 0.3242 17.4614 0.7642 17.4614ZM5.3042 16.0514C5.3042 17.0314 5.8842 17.4614 6.5342 17.4614C6.8342 17.4614 7.1242 17.3814 7.4042 17.2114L19.7142 9.9714C20.4142 9.5614 20.7042 9.2314 20.7042 8.7314C20.7042 8.2314 20.4142 7.9014 19.7142 7.4914L7.4042 0.2314C7.1242 0.0814 6.8342 0.0014 6.5342 0.0014C5.8842 0.0014 5.3042 0.4314 5.3042 1.3914ZM6.7642 15.4614V2.0014C6.7642 1.8414 6.8642 1.7314 6.9942 1.7314C7.0542 1.7314 7.1142 1.7414 7.1742 1.7814L18.6242 8.5314C18.7242 8.5914 18.7642 8.6614 18.7642 8.7314C18.7642 8.8014 18.7242 8.8614 18.6242 8.9214L7.1742 15.6814C7.1142 15.7114 7.0542 15.7314 6.9942 15.7314C6.8642 15.7314 6.7642 15.6214 6.7642 15.4614Z" />
        </svg>
    