
        <svg xmlns="http://www.w3.org/2000/svg" viewBox="0 0 100 100">
            <path d="M0.0017 18.8005C0.0017 20.5805 1.1517 21.5405 2.5117 21.5405C3.0817 21.5405 3.6717 21.3705 4.2417 21.0505L17.4617 13.3505C18.3917 12.8205 19.0517 12.2005 19.2517 11.3205V18.8005C19.2517 20.5805 20.4017 21.5405 21.7617 21.5405C22.3217 21.5405 22.9217 21.3705 23.4817 21.0505L36.7117 13.3505C37.5617 12.8505 38.2017 12.2905 38.4517 11.5205V19.0505C38.4517 20.4805 39.5117 21.5405 41.0117 21.5405C42.5017 21.5405 43.5817 20.4805 43.5817 19.0505V2.4805C43.5817 1.0505 42.5017 0.0005 41.0117 0.0005C39.5117 0.0005 38.4517 1.0505 38.4517 2.4805V10.0205C38.2017 9.2505 37.5617 8.6805 36.7117 8.1905L23.4817 0.4905C22.9217 0.1605 22.3217 0.0005 21.7617 0.0005C20.4017 0.0005 19.2517 0.9505 19.2517 2.7405V10.2205C19.0517 9.3405 18.3917 8.7205 17.4617 8.1905L4.2417 0.4905C3.6717 0.1605 3.0817 0.0005 2.5117 0.0005C1.1517 0.0005 0.0017 0.9505 0.0017 2.7405ZM4.1617 15.9105V5.6205C4.1617 5.4505 4.2817 5.3305 4.4417 5.3305C4.4717 5.3305 4.5317 5.3405 4.5917 5.3805L13.5317 10.5205C13.6517 10.5805 13.7017 10.6805 13.7017 10.7705C13.7017 10.8505 13.6517 10.9605 13.5317 11.0205L4.5917 16.1605C4.5317 16.1905 4.4717 16.2105 4.4417 16.2105C4.2817 16.2105 4.1617 16.0905 4.1617 15.9105ZM23.4117 15.9105V5.6205C23.4117 5.4505 23.5317 5.3305 23.6817 5.3305C23.7317 5.3305 23.7917 5.3405 23.8517 5.3805L32.7917 10.5205C32.9017 10.5805 32.9517 10.6805 32.9517 10.7705C32.9517 10.8505 32.9017 10.9605 32.7917 11.0205L23.8517 16.1605C23.7917 16.1905 23.7317 16.2105 23.6817 16.2105C23.5317 16.2105 23.4117 16.0905 23.4117 15.9105Z" />
        </svg>
    