
        <svg xmlns="http://www.w3.org/2000/svg" viewBox="0 0 100 100">
            <path d="M12.7923 25.5978C19.8723 25.5978 25.6023 19.8678 25.6023 12.7978C25.6023 5.7278 19.8723 -0.0022 12.7923 -0.0022C5.7323 -0.0022 0.0023 5.7278 0.0023 12.7978C0.0023 19.8678 5.7323 25.5978 12.7923 25.5978ZM12.7923 21.4178C8.0323 21.4178 4.1723 17.5678 4.1723 12.7978C4.1723 8.0278 8.0323 4.1678 12.7923 4.1678C17.5623 4.1678 21.4323 8.0278 21.4323 12.7978C21.4323 17.5678 17.5623 21.4178 12.7923 21.4178ZM9.0223 16.6178C9.2823 16.6178 9.5123 16.5578 9.7423 16.4278L14.2623 13.7978C14.4923 13.6478 14.6923 13.4978 14.8123 13.3078V15.8978C14.8123 16.4278 15.0823 16.6978 15.6223 16.6978H16.7723C17.3223 16.6978 17.5823 16.4278 17.5823 15.8978V9.7078C17.5823 9.1778 17.3123 8.9078 16.7723 8.9078H15.6223C15.0823 8.9078 14.8123 9.1978 14.8123 9.7078V12.2778C14.6923 12.0978 14.4923 11.9578 14.2623 11.8078L9.7423 9.1778C9.5123 9.0478 9.2823 8.9978 9.0223 8.9978C8.4823 8.9978 8.0323 9.3978 8.0323 10.0878V15.5178C8.0323 16.2078 8.4923 16.6178 9.0223 16.6178Z" />
        </svg>
    