
        <svg xmlns="http://www.w3.org/2000/svg" viewBox="0 0 100 100">
            <path d="M0.0017 15.7702C0.0017 16.5602 0.4917 16.9002 1.0217 16.9002C1.2417 16.9002 1.4617 16.8302 1.6617 16.7202L13.9717 9.3602C14.3017 9.1602 14.5217 8.9902 14.6117 8.7502V15.7702C14.6117 16.5602 15.1017 16.9002 15.6217 16.9002C15.8417 16.9002 16.0817 16.8302 16.2817 16.7202L28.5717 9.3602C28.9117 9.1602 29.1217 8.9902 29.2217 8.7502V15.7302C29.2217 16.5302 29.5617 16.8902 30.3717 16.8902H32.8717C33.6817 16.8902 34.0317 16.5302 34.0317 15.7302V1.1602C34.0317 0.3502 33.6817 0.0102 32.8717 0.0102H30.3717C29.5617 0.0102 29.2217 0.3602 29.2217 1.1602V8.1302C29.1217 7.9102 28.9117 7.7202 28.5717 7.5302L16.2817 0.1802C16.0817 0.0702 15.8417 0.0002 15.6217 0.0002C15.1017 0.0002 14.6117 0.3302 14.6117 1.1102V8.1302C14.5217 7.9102 14.3017 7.7202 13.9717 7.5302L1.6617 0.1802C1.4617 0.0702 1.2417 0.0002 1.0217 0.0002C0.4917 0.0002 0.0017 0.3302 0.0017 1.1102Z" />
        </svg>
    