
        <svg xmlns="http://www.w3.org/2000/svg" viewBox="0 0 100 100">
            <path d="M0.0017 16.7322C0.0017 17.9622 0.7417 18.5522 1.5917 18.5522C1.9717 18.5522 2.3717 18.4422 2.7417 18.2322L15.2217 10.9722C15.9217 10.5622 16.3317 10.1922 16.4917 9.7422V16.7322C16.4917 17.9622 17.2117 18.5522 18.0817 18.5522C18.4617 18.5522 18.8417 18.4422 19.2317 18.2322L31.7017 10.9722C32.6217 10.4322 33.0317 9.9722 33.0317 9.2822C33.0317 8.5822 32.6217 8.1322 31.7017 7.5922L19.2317 0.3322C18.8417 0.1022 18.4617 0.0022 18.0817 0.0022C17.2117 0.0022 16.4917 0.6022 16.4917 1.8322V8.8222C16.3317 8.3622 15.9217 8.0022 15.2217 7.5922L2.7417 0.3322C2.3717 0.1022 1.9717 0.0022 1.5917 0.0022C0.7417 0.0022 0.0017 0.6022 0.0017 1.8322ZM2.3017 15.4522V3.1022C2.3017 2.9622 2.3917 2.8622 2.5217 2.8622C2.5617 2.8622 2.6117 2.8822 2.6617 2.9022L13.2417 9.0922C13.3317 9.1422 13.3717 9.2122 13.3717 9.2822C13.3717 9.3522 13.3317 9.4222 13.2417 9.4722L2.6617 15.6522C2.6117 15.6822 2.5617 15.6922 2.5217 15.6922C2.3917 15.6922 2.3017 15.6022 2.3017 15.4522ZM18.7817 15.4522V3.1022C18.7817 2.9622 18.8817 2.8622 18.9917 2.8622C19.0517 2.8622 19.0917 2.8822 19.1417 2.9022L29.7217 9.0922C29.8117 9.1422 29.8517 9.2122 29.8517 9.2822C29.8517 9.3522 29.8117 9.4222 29.7217 9.4722L19.1417 15.6522C19.0917 15.6822 19.0517 15.6922 18.9917 15.6922C18.8817 15.6922 18.7817 15.6022 18.7817 15.4522Z" />
        </svg>
    