
        <svg xmlns="http://www.w3.org/2000/svg" viewBox="0 0 100 100">
            <path d="M0.0017 15.7702C0.0017 16.5602 0.4917 16.9002 1.0217 16.9002C1.2417 16.9002 1.4617 16.8302 1.6617 16.7202L13.9717 9.3602C14.3017 9.1602 14.5217 8.9902 14.6117 8.7502V16.4502C14.6117 16.7002 14.8117 16.9002 15.0617 16.9002C15.3017 16.9002 15.5017 16.7002 15.5017 16.4502V0.4502C15.5017 0.2002 15.3017 0.0002 15.0617 0.0002C14.8117 0.0002 14.6117 0.2002 14.6117 0.4502V8.1302C14.5217 7.9102 14.3017 7.7202 13.9717 7.5302L1.6617 0.1802C1.4617 0.0702 1.2417 0.0002 1.0217 0.0002C0.4917 0.0002 0.0017 0.3302 0.0017 1.1102ZM0.8717 15.6102V1.2902C0.8717 1.0802 0.9917 0.9602 1.1517 0.9602C1.2217 0.9602 1.3017 0.9702 1.3817 1.0302L13.5017 8.2402C13.6017 8.3102 13.6517 8.3802 13.6517 8.4502C13.6517 8.5202 13.6017 8.5902 13.5017 8.6602L1.3817 15.8702C1.3017 15.9302 1.2217 15.9402 1.1517 15.9402C0.9917 15.9402 0.8717 15.8202 0.8717 15.6102Z" />
        </svg>
    