
        <svg xmlns="http://www.w3.org/2000/svg" viewBox="0 0 100 100">
            <path d="M11.4923 22.977C17.8323 22.977 22.9823 17.847 22.9823 11.497C22.9823 5.147 17.8323 -0.003 11.4923 -0.003C5.1423 -0.003 0.0023 5.147 0.0023 11.497C0.0023 17.847 5.1423 22.977 11.4923 22.977ZM11.4923 22.087C5.6323 22.087 0.8923 17.357 0.8923 11.497C0.8923 5.637 5.6323 0.887 11.4923 0.887C17.3523 0.887 22.0923 5.637 22.0923 11.497C22.0923 17.357 17.3523 22.087 11.4923 22.087ZM5.3923 15.857C5.5523 15.857 5.7523 15.757 5.9023 15.677L12.0223 12.067C12.2023 11.977 12.3123 11.847 12.3623 11.697V15.107C12.3623 15.607 12.6823 15.857 12.9823 15.857C13.1623 15.857 13.3523 15.757 13.5023 15.677L19.6423 12.067C19.8523 11.937 19.9823 11.757 19.9823 11.497C19.9823 11.247 19.8523 11.067 19.6423 10.937L13.5023 7.327C13.3523 7.247 13.1623 7.157 12.9823 7.157C12.6823 7.157 12.3623 7.407 12.3623 7.907V11.307C12.3123 11.157 12.2023 11.027 12.0223 10.937L5.9023 7.327C5.7523 7.247 5.5523 7.157 5.3923 7.157C5.0623 7.157 4.7723 7.407 4.7723 7.907V15.107C4.7723 15.607 5.0623 15.857 5.3923 15.857Z" />
        </svg>
    