
        <svg xmlns="http://www.w3.org/2000/svg" viewBox="0 0 100 100">
            <path d="M0.0017 16.0514C0.0017 17.0314 0.5717 17.4614 1.2317 17.4614C1.5217 17.4614 1.8117 17.3814 2.1017 17.2114L14.4017 9.9714C14.9317 9.6714 15.2217 9.4114 15.3417 9.0814V16.0514C15.3417 17.0314 15.9117 17.4614 16.5717 17.4614C16.8517 17.4614 17.1517 17.3814 17.4417 17.2114L29.7317 9.9714C30.4417 9.5614 30.7417 9.2314 30.7417 8.7314C30.7417 8.2314 30.4417 7.9014 29.7317 7.4914L17.4417 0.2314C17.1517 0.0814 16.8517 0.0014 16.5717 0.0014C15.9117 0.0014 15.3417 0.4314 15.3417 1.3914V8.3714C15.2217 8.0514 14.9317 7.7914 14.4017 7.4914L2.1017 0.2314C1.8117 0.0814 1.5217 0.0014 1.2317 0.0014C0.5717 0.0014 0.0017 0.4314 0.0017 1.3914ZM1.4517 15.4614V2.0014C1.4517 1.8414 1.5617 1.7314 1.6917 1.7314C1.7417 1.7314 1.8017 1.7414 1.8617 1.7814L13.3117 8.5314C13.4017 8.5914 13.4517 8.6614 13.4517 8.7314C13.4517 8.8014 13.4017 8.8614 13.3117 8.9214L1.8617 15.6814C1.8017 15.7114 1.7417 15.7314 1.6917 15.7314C1.5617 15.7314 1.4517 15.6214 1.4517 15.4614ZM16.7917 15.4614V2.0014C16.7917 1.8414 16.9017 1.7314 17.0317 1.7314C17.0817 1.7314 17.1417 1.7414 17.2017 1.7814L28.6517 8.5314C28.7417 8.5914 28.7817 8.6614 28.7817 8.7314C28.7817 8.8014 28.7417 8.8614 28.6517 8.9214L17.2017 15.6814C17.1417 15.7114 17.0817 15.7314 17.0317 15.7314C16.9017 15.7314 16.7917 15.6214 16.7917 15.4614Z" />
        </svg>
    