
        <svg xmlns="http://www.w3.org/2000/svg" viewBox="0 0 100 100">
            <path d="M11.3523 22.7064C17.6323 22.7064 22.7123 17.6264 22.7123 11.3564C22.7123 5.0764 17.6323 -0.0036 11.3523 -0.0036C5.0823 -0.0036 0.0023 5.0764 0.0023 11.3564C0.0023 17.6264 5.0823 22.7064 11.3523 22.7064ZM11.3523 22.1364C5.3923 22.1364 0.5723 17.3164 0.5723 11.3564C0.5723 5.3864 5.3923 0.5764 11.3523 0.5764C17.3223 0.5764 22.1323 5.3864 22.1323 11.3564C22.1323 17.3164 17.3223 22.1364 11.3523 22.1364ZM5.2023 15.7264C5.3523 15.7264 5.5423 15.6364 5.6823 15.5664L11.9623 11.8564C12.0923 11.7864 12.2023 11.6864 12.2423 11.5464V15.0264C12.2423 15.5064 12.5423 15.7264 12.8223 15.7264C12.9823 15.7264 13.1623 15.6364 13.3023 15.5664L19.5923 11.8564C19.7723 11.7564 19.8823 11.5864 19.8823 11.3564C19.8823 11.1364 19.7723 10.9664 19.5923 10.8664L13.3023 7.1564C13.1623 7.0864 12.9823 6.9964 12.8223 6.9964C12.5423 6.9964 12.2423 7.2164 12.2423 7.6964V11.1664C12.2023 11.0364 12.0923 10.9364 11.9623 10.8664L5.6823 7.1564C5.5423 7.0864 5.3523 6.9964 5.2023 6.9964C4.9123 6.9964 4.6323 7.2164 4.6323 7.6964V15.0264C4.6323 15.5064 4.9123 15.7264 5.2023 15.7264Z" />
        </svg>
    