
        <svg xmlns="http://www.w3.org/2000/svg" viewBox="0 0 100 100">
            <path d="M15.0941 25.262C23.6641 25.262 30.1841 19.372 31.9441 11.522C32.2541 10.202 31.3341 9.142 29.9741 9.142H20.5441C20.5441 9.032 20.5441 8.932 20.5441 8.832C20.5441 3.842 16.5141 0.002 11.2341 0.002C4.9241 0.002 0.0041 5.032 0.0041 11.622C0.0041 19.642 6.2041 25.262 15.0941 25.262ZM7.2941 4.232C8.2641 3.672 9.3641 3.312 10.5441 3.222V6.012C10.2041 6.142 9.8741 6.312 9.5841 6.532ZM12.5441 5.752V3.312C13.7041 3.532 14.7041 4.032 15.5041 4.732L13.8941 6.162C13.4841 5.952 13.0341 5.802 12.5441 5.752ZM3.5241 9.122C3.9341 7.692 4.6841 6.422 5.6841 5.452L8.2541 8.032C8.0641 8.352 7.9141 8.732 7.8041 9.122ZM9.8941 10.292C9.8941 8.902 10.7841 7.862 12.0541 7.862C13.0941 7.862 13.6641 8.462 13.6641 9.152C13.6641 9.752 13.3041 10.122 12.8241 10.122C12.5441 10.122 12.3841 10.032 12.2041 9.912C12.0541 9.812 11.8941 9.722 11.6241 9.722C11.1241 9.722 10.7541 10.112 10.7541 10.652C10.7541 11.412 11.4841 12.342 12.8341 12.342C14.4641 12.342 15.8041 11.132 15.8041 9.242C15.8041 8.622 15.6441 8.052 15.3541 7.542L16.7541 6.312C17.1441 7.062 17.3641 7.922 17.3641 8.832C17.3641 11.762 15.2541 13.352 13.2341 13.352C11.4541 13.352 9.8941 12.122 9.8941 10.292ZM3.1841 11.622C3.1841 11.462 3.1841 11.282 3.2041 11.122H7.6841C7.7841 11.882 8.0241 12.602 8.3941 13.232L4.6541 16.982C3.7041 15.442 3.1841 13.642 3.1841 11.622ZM18.5741 13.862C18.9941 13.392 19.3341 12.882 19.6141 12.352H28.4141C27.4841 15.102 25.8841 17.422 23.7941 19.102ZM5.8941 18.572L9.7041 14.762C10.4041 15.342 11.2541 15.742 12.2041 15.942V21.812C9.6241 21.332 7.4541 20.192 5.8941 18.572ZM15.0941 22.082C14.7941 22.082 14.4941 22.062 14.1941 22.052V16.032C15.2941 15.922 16.2341 15.612 17.0141 15.152L22.1141 20.252C20.0741 21.422 17.7041 22.082 15.0941 22.082Z" />
        </svg>
    