
        <svg xmlns="http://www.w3.org/2000/svg" viewBox="0 0 100 100">
            <path d="M0.4317 23.8172H23.8217C24.0717 23.8172 24.2617 23.6172 24.2617 23.3672C24.2617 23.1372 24.0717 22.9372 23.8217 22.9372H23.1917V22.2172C23.1917 22.0172 23.0617 21.8872 22.8517 21.8872H22.1117V7.0172H23.2417C23.5417 7.0172 23.6917 6.8172 23.6917 6.5872C23.6917 6.4472 23.6117 6.2772 23.4217 6.1672L13.3217 0.3372C12.9417 0.1172 12.5317 -0.0028 12.1317 -0.0028C11.7317 -0.0028 11.3217 0.1172 10.9417 0.3372L0.8417 6.1672C0.6417 6.2772 0.5617 6.4472 0.5617 6.5872C0.5617 6.8172 0.7117 7.0172 1.0317 7.0172H2.1517V21.8872H1.4017C1.2117 21.8872 1.0817 22.0172 1.0817 22.2172V22.9372H0.4317C0.2017 22.9372 0.0017 23.1372 0.0017 23.3672C0.0017 23.6172 0.2017 23.8172 0.4317 23.8172ZM10.3617 18.3972C10.1217 18.3972 9.9617 18.2272 9.9617 17.9872V16.3972H8.8517C8.7117 16.3972 8.5917 16.2772 8.5917 16.1372C8.5917 15.9972 8.7117 15.8672 8.8517 15.8672H9.9617V8.7272C9.9617 8.4572 10.1117 8.3072 10.3717 8.3072H15.3917C15.5817 8.3072 15.7517 8.4772 15.7517 8.6672C15.7517 8.8572 15.5817 9.0272 15.3917 9.0272H10.7717V12.8272H14.9617C15.1617 12.8272 15.3317 12.9972 15.3317 13.1872C15.3317 13.3872 15.1617 13.5472 14.9617 13.5472H10.7717V15.8672H13.5517C13.6917 15.8672 13.8017 15.9972 13.8017 16.1372C13.8017 16.2772 13.6917 16.3972 13.5517 16.3972H10.7717V17.9872C10.7717 18.2272 10.5917 18.3972 10.3617 18.3972Z" />
        </svg>
    