
        <svg xmlns="http://www.w3.org/2000/svg" viewBox="0 0 100 100">
            <path d="M1.5617 22.2148H24.6117V21.4348C24.6117 20.9648 24.3417 20.6848 23.8617 20.6848H23.1117V8.0348H24.1417C24.7817 8.0348 25.1617 7.5748 25.1617 7.0848C25.1617 6.7348 24.9617 6.4348 24.5317 6.1848L14.5217 0.4148C14.0517 0.1448 13.5617 0.0048 13.0817 0.0048C12.6017 0.0048 12.0917 0.1448 11.6517 0.4148L1.6417 6.1848C1.1917 6.4348 1.0117 6.7348 1.0117 7.0848C1.0117 7.5748 1.3817 8.0348 2.0317 8.0348H3.0617V20.6848H2.3217C1.8417 20.6848 1.5617 20.9648 1.5617 21.4348ZM4.8317 20.6848V6.5348L12.6217 2.1648C12.7617 2.0848 12.9217 2.0348 13.0817 2.0348C13.2317 2.0348 13.3917 2.0848 13.5517 2.1648L21.3417 6.5348V20.6848ZM11.1017 17.7848C11.4917 17.7848 11.7917 17.5048 11.7917 17.0848V15.8448H14.3017C14.5217 15.8448 14.6817 15.6948 14.6817 15.4548C14.6817 15.2348 14.5217 15.0748 14.3017 15.0748H11.7917V12.9248H15.6717C16.0317 12.9248 16.2917 12.6748 16.2917 12.3248C16.2917 11.9848 16.0317 11.7448 15.6717 11.7448H11.7917V8.3448H16.0817C16.4517 8.3448 16.7117 8.0948 16.7117 7.7448C16.7117 7.3848 16.4517 7.1348 16.0817 7.1348H11.1017C10.6617 7.1348 10.3917 7.4048 10.3917 7.8548V15.0748H9.2717C9.0317 15.0748 8.8717 15.2348 8.8717 15.4548C8.8717 15.6948 9.0317 15.8448 9.2717 15.8448H10.3917V17.0848C10.3917 17.5048 10.6717 17.7848 11.1017 17.7848ZM0.9417 25.0048H25.2217C25.7317 25.0048 26.1717 24.5748 26.1717 24.0548C26.1717 23.5448 25.7317 23.1248 25.2217 23.1248H0.9417C0.4217 23.1248 0.0017 23.5448 0.0017 24.0548C0.0017 24.5748 0.4217 25.0048 0.9417 25.0048Z" />
        </svg>
    