
        <svg xmlns="http://www.w3.org/2000/svg" viewBox="0 0 100 100">
            <path d="M0.8374 9.6941C-0.0126 9.6941 -0.2226 10.2641 0.2374 10.9241L2.8574 14.6441C3.2474 15.1841 3.8074 15.1741 4.1874 14.6441L6.7974 10.9141C7.2574 10.2641 7.0374 9.6941 6.2174 9.6941H4.5274C5.5474 5.2741 9.4974 1.9941 14.2274 1.9941C19.7374 1.9941 24.1874 6.4441 24.1874 11.9541C24.1874 17.4641 19.7374 21.9141 14.2274 21.9141C10.8974 21.9141 7.9374 20.2741 6.1674 17.7841C5.8074 17.3041 5.2474 17.1541 4.7574 17.4541C4.2874 17.7441 4.1474 18.3941 4.5474 18.9141C6.7174 21.9541 10.2674 23.9041 14.2274 23.9041C20.8274 23.9041 26.1774 18.5541 26.1774 11.9541C26.1774 5.3541 20.8274 0.0041 14.2274 0.0041C8.4074 0.0041 3.5374 4.1741 2.4874 9.6941ZM12.2374 17.4141C12.6374 17.4141 12.9274 17.1241 12.9274 16.7141V15.4641H15.4374C15.6574 15.4641 15.8174 15.3041 15.8174 15.0841C15.8174 14.8641 15.6574 14.6941 15.4374 14.6941H12.9274V12.5541H16.8074C17.1674 12.5541 17.4274 12.3041 17.4274 11.9541C17.4274 11.6141 17.1674 11.3641 16.8074 11.3641H12.9274V7.9641H17.2174C17.5874 7.9641 17.8474 7.7141 17.8474 7.3741C17.8474 7.0041 17.5874 6.7541 17.2174 6.7541H12.2374C11.8074 6.7541 11.5374 7.0241 11.5374 7.4641V14.6941H10.4074C10.1774 14.6941 10.0074 14.8641 10.0074 15.0841C10.0074 15.3041 10.1774 15.4641 10.4074 15.4641H11.5374V16.7141C11.5374 17.1241 11.8174 17.4141 12.2374 17.4141Z" />
        </svg>
    