
        <svg xmlns="http://www.w3.org/2000/svg" viewBox="0 0 100 100">
            <path d="M3.9717 22.1117H18.1317C20.7317 22.1117 22.1017 20.7417 22.1017 18.1717V3.9417C22.1017 1.3717 20.7317 0.0017 18.1317 0.0017H3.9717C1.3817 0.0017 0.0017 1.3717 0.0017 3.9417V18.1717C0.0017 20.7417 1.3817 22.1117 3.9717 22.1117ZM4.1917 19.5017C3.1617 19.5017 2.6117 18.9817 2.6117 17.9017V4.2217C2.6117 3.1417 3.1617 2.6117 4.1917 2.6117H17.9217C18.9217 2.6117 19.5017 3.1417 19.5017 4.2217V17.9017C19.5017 18.9817 18.9217 19.5017 17.9217 19.5017ZM9.2017 16.4017C9.7517 16.4017 10.1217 16.0317 10.1217 15.4617V14.5517H12.6017C12.8117 14.5517 12.9617 14.4017 12.9617 14.1917C12.9617 13.9917 12.8117 13.8317 12.6017 13.8317H10.1217V11.8817H13.6317C14.1117 11.8817 14.4417 11.5817 14.4417 11.1317C14.4417 10.7017 14.1117 10.3917 13.6317 10.3917H10.1217V7.5217H13.9817C14.4817 7.5217 14.8117 7.2117 14.8117 6.7517C14.8117 6.2817 14.4817 5.9717 13.9817 5.9717H9.2017C8.6117 5.9717 8.2617 6.3417 8.2617 6.9417V13.8317H7.1517C6.9517 13.8317 6.8017 13.9917 6.8017 14.1917C6.8017 14.4017 6.9517 14.5517 7.1517 14.5517H8.2617V15.4617C8.2617 16.0317 8.6417 16.4017 9.2017 16.4017Z" />
        </svg>
    