
        <svg xmlns="http://www.w3.org/2000/svg" viewBox="0 0 100 100">
            <path d="M0.0023 14.581C0.0023 18.191 1.3023 21.481 3.4523 24.041C3.7523 24.391 4.2323 24.391 4.5623 24.061L7.4423 21.171C7.7023 20.921 7.7023 20.561 7.4723 20.281C6.2123 18.671 5.4823 16.711 5.4823 14.581C5.4823 9.941 8.9423 6.111 13.4023 5.501C13.7923 5.451 14.0623 5.161 14.0623 4.781V0.761C14.0623 0.301 13.7123 -0.039 13.2423 0.001C5.8223 0.711 0.0023 6.961 0.0023 14.581ZM29.2823 14.581C29.2823 6.961 23.4723 0.711 16.0423 0.001C15.5823 -0.039 15.2223 0.301 15.2223 0.761V4.781C15.2223 5.161 15.5023 5.451 15.8823 5.501C20.3523 6.111 23.8023 9.941 23.8023 14.581C23.8023 16.711 23.0823 18.671 21.8123 20.281C21.5823 20.571 21.5823 20.921 21.8423 21.181L24.7223 24.061C25.0523 24.401 25.5323 24.391 25.8323 24.041C27.9923 21.481 29.2823 18.181 29.2823 14.581ZM12.8523 19.891C13.5023 19.891 13.9223 19.461 13.9223 18.791V18.091H16.3723C16.5623 18.091 16.7123 17.931 16.7123 17.751C16.7123 17.551 16.5623 17.391 16.3723 17.391H13.9223V15.571H17.2023C17.7423 15.571 18.1023 15.231 18.1023 14.721C18.1023 14.231 17.7423 13.891 17.2023 13.891H13.9223V11.321H17.5223C18.0923 11.321 18.4723 10.971 18.4723 10.461C18.4723 9.931 18.0923 9.581 17.5223 9.581H12.8623C12.1723 9.581 11.7923 10.001 11.7923 10.691V17.391H10.6923C10.5023 17.391 10.3523 17.551 10.3523 17.751C10.3523 17.931 10.5023 18.091 10.6923 18.091H11.7923V18.791C11.7923 19.461 12.2123 19.891 12.8523 19.891Z" />
        </svg>
    