
        <svg xmlns="http://www.w3.org/2000/svg" viewBox="0 0 100 100">
            <path d="M0.0017 12.6434C0.0017 19.7234 6.6117 24.4434 16.4217 24.4434C26.2617 24.4434 32.8617 19.7334 32.8617 12.6434C32.8617 12.0134 32.6217 11.4134 32.1917 10.8634L38.5517 6.1834C42.0317 3.6234 38.2217 -2.4966 33.5817 1.1134L25.1817 7.6434C22.7017 7.1234 19.7217 6.8434 16.4217 6.8434C6.8517 6.8434 0.0017 9.2134 0.0017 12.6434ZM3.5717 12.6434C3.5717 11.6034 11.1117 10.2634 16.4217 10.2634C21.7417 10.2634 29.2717 11.6034 29.2717 12.6434C29.2717 13.2734 26.3317 14.0034 22.7817 14.4634C22.1717 12.4334 20.2617 11.0634 17.8917 11.0634C16.3917 11.0634 14.9517 11.6534 13.9717 12.6734C13.6617 12.6334 13.3617 12.5934 13.0117 12.5934C11.5217 12.5934 10.1617 13.3034 9.4017 14.3634C6.1517 13.9034 3.5717 13.2434 3.5717 12.6434Z" />
        </svg>
    