
        <svg xmlns="http://www.w3.org/2000/svg" viewBox="0 0 100 100">
            <path d="M8.5588 25.3497C8.5588 25.9497 9.0588 26.4397 9.6388 26.4397H27.4788C28.0588 26.4397 28.5588 25.9497 28.5588 25.3497C28.5588 24.7597 28.0588 24.2697 27.4788 24.2697H26.6688V11.2497C27.6988 11.8797 28.1388 12.7897 28.1388 13.8497C28.1388 15.7297 27.8488 17.9797 27.8488 19.9297C27.8488 21.9797 29.1188 23.2597 31.0988 23.2597C33.2688 23.2597 34.4988 21.8097 34.4988 19.2397C34.4988 16.2997 33.9388 12.8897 32.8188 7.5897L32.5788 6.4197C32.3188 5.2297 31.9588 4.2497 31.2488 3.3797L29.9388 1.7297C29.3088 0.9397 28.0788 1.8597 28.7588 2.7097L30.4088 4.7897C30.5088 4.9197 30.5288 5.0997 30.4288 5.2497L29.4488 7.0697C29.1788 7.5697 29.2388 7.9297 29.6688 8.3997L31.8988 10.7697C32.5988 14.0497 32.9888 16.9597 32.9888 19.2397C32.9888 20.8697 32.3188 21.7497 31.0988 21.7497C30.0488 21.7497 29.3688 21.0697 29.3688 19.9297C29.3688 18.2097 29.6488 15.9597 29.6488 13.8497C29.6488 11.9397 28.7788 10.4497 26.6688 9.5697V3.0897C26.6688 1.0997 25.5688 -0.0003 23.5788 -0.0003H13.5488C11.5388 -0.0003 10.4688 1.0997 10.4688 3.0897V24.2697H9.6388C9.0588 24.2697 8.5588 24.7497 8.5588 25.3497ZM12.6488 3.2197C12.6488 2.5497 12.9788 2.1897 13.6488 2.1897H23.4688C24.1188 2.1897 24.4688 2.5397 24.4688 3.2197V24.2697H12.6488ZM14.5788 10.7697H22.5488C22.9788 10.7697 23.3088 10.4497 23.3088 10.0197V4.0997C23.3088 3.6697 22.9788 3.3497 22.5488 3.3497H14.5788C14.1388 3.3497 13.8088 3.6697 13.8088 4.0997V10.0197C13.8088 10.4497 14.1288 10.7697 14.5788 10.7697ZM0.3988 12.5497C-0.1212 12.8597 -0.1412 13.5697 0.3988 13.8997L6.2688 17.3597C6.8388 17.6997 7.5088 17.4097 7.5088 16.7897V9.6197C7.5088 9.0097 6.8188 8.7397 6.2688 9.0597Z" />
        </svg>
    