
        <svg xmlns="http://www.w3.org/2000/svg" viewBox="0 0 100 100">
            <path d="M0.0017 25.4552C0.0017 26.1052 0.5417 26.6452 1.1817 26.6452H18.6217C19.2817 26.6452 19.8117 26.1052 19.8117 25.4552C19.8117 24.7952 19.2817 24.2552 18.6217 24.2552H17.8817V11.3052C18.9117 11.9252 19.3217 12.8352 19.3217 13.8852C19.3217 15.7452 19.0417 17.9652 19.0417 19.9452C19.0417 21.9952 20.3317 23.2952 22.3217 23.2952C24.5117 23.2952 25.7617 21.8352 25.7617 19.2452C25.7617 16.2852 25.2117 12.8552 24.0817 7.5952L23.8317 6.4552C23.5817 5.2352 23.2017 4.2452 22.4917 3.3552L21.1917 1.7252C20.5317 0.8952 19.2417 1.8652 19.9617 2.7452L21.6117 4.8152C21.7017 4.9452 21.7117 5.1052 21.6217 5.2652L20.6517 7.0652C20.3717 7.5952 20.4217 7.9552 20.8717 8.4452L23.1317 10.8552C23.8217 14.0952 24.1917 16.9652 24.1917 19.2452C24.1917 20.8452 23.5217 21.7152 22.3217 21.7152C21.2817 21.7152 20.6217 21.0552 20.6217 19.9452C20.6217 18.1952 20.9017 15.9952 20.9017 13.8852C20.9017 11.9552 20.0317 10.4452 17.8817 9.5652V3.1852C17.8817 1.1252 16.7417 -0.0048 14.7117 -0.0048H5.1117C3.0517 -0.0048 1.9317 1.1352 1.9317 3.1852V24.2552H1.1817C0.5417 24.2552 0.0017 24.7952 0.0017 25.4552ZM5.5917 10.7852C4.7817 10.7852 4.2817 10.3252 4.2817 9.5952V3.5352C4.2817 2.8152 4.7817 2.3452 5.5917 2.3452H14.2217C15.0317 2.3452 15.5417 2.8152 15.5417 3.5352V9.5952C15.5417 10.3252 15.0217 10.7852 14.2217 10.7852Z" />
        </svg>
    