
        <svg xmlns="http://www.w3.org/2000/svg" viewBox="0 0 100 100">
            <path d="M8.5517 24.6934C8.5517 24.9234 8.7517 25.1234 8.9917 25.1234H25.5817C25.8117 25.1234 26.0117 24.9234 26.0117 24.6934C26.0117 24.4534 25.8117 24.2534 25.5817 24.2534H24.6017V10.4434C25.7717 11.0834 26.3717 12.1334 26.3717 13.3734C26.3717 15.2034 26.1017 17.4134 26.1017 19.0934C26.1017 21.0134 27.2317 22.1634 28.8917 22.1634C30.7617 22.1634 31.8117 20.8934 31.8117 18.6334C31.8117 15.8234 31.2817 12.5534 30.2117 7.4034L29.8217 5.5634C29.6617 4.8234 29.5317 4.4034 28.9917 3.7534L27.4917 1.8634C27.1517 1.4334 26.5417 1.9334 26.8917 2.3834L28.6217 4.5434C28.7317 4.7034 28.7217 4.8634 28.6617 4.9934L27.5517 7.0434C27.4117 7.3234 27.4817 7.5634 27.6517 7.7534L30.0017 10.2634C30.7517 13.8534 31.0617 16.2634 31.0617 18.6334C31.0617 20.4034 30.2817 21.3834 28.8917 21.3834C27.6917 21.3834 26.8617 20.5534 26.8617 19.0934C26.8617 17.6034 27.1317 15.3734 27.1317 13.3734C27.1317 11.6734 26.2617 10.3434 24.6017 9.5934V2.9134C24.6017 1.0434 23.5817 0.0034 21.6817 0.0034H12.9017C10.9917 0.0034 9.9917 1.0234 9.9917 2.9134V24.2534H8.9917C8.7517 24.2534 8.5517 24.4434 8.5517 24.6934ZM10.8517 2.9434C10.8517 1.5834 11.5417 0.8634 12.9217 0.8634H21.6517C22.9817 0.8634 23.7417 1.5934 23.7417 2.9434L23.7517 24.2534H10.8417ZM12.7117 10.3934H21.8717C22.4217 10.3934 22.7917 10.0034 22.7917 9.4734V2.7534C22.7917 2.1934 22.4017 1.8134 21.8717 1.8134H12.7117C12.1717 1.8134 11.8017 2.1934 11.8017 2.7534V9.4734C11.8017 10.0034 12.1617 10.3934 12.7117 10.3934ZM0.2817 12.1034C-0.0983 12.3434 -0.0983 12.8234 0.2817 13.0534L6.4317 16.7534C6.8117 16.9834 7.2517 16.7934 7.2517 16.4034V8.7034C7.2517 8.3334 6.8017 8.1434 6.4317 8.3534Z" />
        </svg>
    