
        <svg xmlns="http://www.w3.org/2000/svg" viewBox="0 0 100 100">
            <path d="M0.0017 25.4552C0.0017 26.1252 0.5417 26.6652 1.1917 26.6652H19.1417C19.7917 26.6652 20.3317 26.1252 20.3317 25.4552C20.3317 24.8052 19.7917 24.2652 19.1417 24.2652H18.4117V11.3052C19.4317 11.9252 19.8517 12.8352 19.8517 13.8852C19.8517 15.7452 19.5717 17.9652 19.5717 19.9452C19.5717 21.9952 20.8517 23.2952 22.8517 23.2952C25.0417 23.2952 26.2717 21.8352 26.2717 19.2452C26.2717 16.2852 25.7217 12.8552 24.6017 7.5952L24.3617 6.4552C24.0917 5.2352 23.7317 4.2452 23.0117 3.3552L21.7117 1.7252C21.0517 0.8952 19.7717 1.8652 20.4717 2.7452L22.1217 4.8152C22.2217 4.9452 22.2317 5.1052 22.1417 5.2652L21.1617 7.0652C20.8817 7.5952 20.9417 7.9552 21.4017 8.4452L23.6517 10.8552C24.3417 14.0952 24.7017 16.9652 24.7017 19.2452C24.7017 20.8452 24.0517 21.7152 22.8517 21.7152C21.8117 21.7152 21.1417 21.0552 21.1417 19.9452C21.1417 18.1952 21.4217 15.9952 21.4217 13.8852C21.4217 11.9552 20.5517 10.4452 18.4117 9.5652V3.1852C18.4117 1.1252 17.2717 -0.0048 15.2217 -0.0048H5.1117C3.0517 -0.0048 1.9317 1.1352 1.9317 3.1852V24.2652H1.1917C0.5417 24.2652 0.0017 24.7952 0.0017 25.4552ZM4.3517 3.3752C4.3517 2.7552 4.6617 2.4152 5.2617 2.4152H15.0617C15.6417 2.4152 15.9817 2.7552 15.9817 3.3752V24.2652H4.3517ZM6.3517 10.8652H13.9717C14.4517 10.8652 14.8017 10.5352 14.8017 10.0752V4.3952C14.8017 3.9252 14.4517 3.5952 13.9717 3.5952H6.3517C5.8717 3.5952 5.5317 3.9252 5.5317 4.3952V10.0752C5.5317 10.5352 5.8817 10.8652 6.3517 10.8652Z" />
        </svg>
    