
        <svg xmlns="http://www.w3.org/2000/svg" viewBox="0 0 100 100">
            <path d="M8.5788 25.3397C8.5788 25.9297 9.0588 26.4397 9.6388 26.4397H26.9688C27.5588 26.4397 28.0588 25.9297 28.0588 25.3397C28.0588 24.7497 27.5588 24.2597 26.9688 24.2597H26.1688V11.2497C27.2088 11.8797 27.6288 12.7897 27.6288 13.8497C27.6288 15.7297 27.3488 17.9797 27.3488 19.9297C27.3488 21.9797 28.6288 23.2597 30.5988 23.2597C32.7588 23.2597 33.9888 21.8097 33.9888 19.2397C33.9888 16.2997 33.4288 12.8897 32.3188 7.5897L32.0688 6.4197C31.8088 5.2297 31.4488 4.2497 30.7488 3.3797L29.4388 1.7297C28.7988 0.9397 27.5688 1.8597 28.2588 2.7097L29.8988 4.7897C30.0088 4.9197 30.0188 5.0997 29.9288 5.2497L28.9588 7.0697C28.6688 7.5697 28.7288 7.9297 29.1688 8.3997L31.3888 10.7697C32.1088 14.0497 32.4788 16.9597 32.4788 19.2397C32.4788 20.8697 31.8088 21.7497 30.5988 21.7497C29.5388 21.7497 28.8588 21.0697 28.8588 19.9297C28.8588 18.2097 29.1388 15.9597 29.1388 13.8497C29.1388 11.9397 28.2788 10.4497 26.1688 9.5697V3.0897C26.1688 1.0997 25.0588 -0.0003 23.0688 -0.0003H13.5488C11.5388 -0.0003 10.4688 1.0997 10.4688 3.0897V24.2597H9.6388C9.0688 24.2597 8.5788 24.7397 8.5788 25.3397ZM13.9788 10.7197C13.1588 10.7197 12.6488 10.2497 12.6488 9.4997V3.4197C12.6488 2.6597 13.1588 2.1897 13.9788 2.1897H22.6388C23.4688 2.1897 23.9888 2.6597 23.9888 3.4197V9.4997C23.9888 10.2497 23.4688 10.7197 22.6388 10.7197ZM0.3988 12.5497C-0.1212 12.8597 -0.1412 13.5697 0.3988 13.8997L6.2688 17.3597C6.8388 17.6997 7.5088 17.4097 7.5088 16.7897V9.6197C7.5088 9.0097 6.8188 8.7397 6.2688 9.0597Z" />
        </svg>
    