
        <svg xmlns="http://www.w3.org/2000/svg" viewBox="0 0 100 100">
            <path d="M17.6526 16.6428L18.1926 17.2028V10.2328C19.3726 10.8728 20.0426 11.9428 20.0426 13.2428C20.0426 15.0328 19.7826 17.1828 19.7726 18.7728L20.3726 19.3728C20.3626 19.2028 20.3426 19.0428 20.3426 18.8528C20.3426 17.4228 20.6026 15.2328 20.6026 13.2428C20.6026 11.6028 19.7426 10.3028 18.1926 9.6128V2.9028C18.1926 1.0528 17.1726 0.0028 15.3026 0.0028H6.8426C4.9426 0.0028 3.9426 1.0328 3.9526 2.9528L4.5226 3.5128V2.9328C4.5226 1.3928 5.3026 0.5728 6.8726 0.5728H15.2626C16.7726 0.5728 17.6426 1.4028 17.6426 2.9328ZM24.8526 25.9228C24.9526 26.0428 25.1426 26.0428 25.2626 25.9228C25.4126 25.7928 25.3726 25.6328 25.2626 25.5128L0.5026 0.7528C0.4026 0.6428 0.2326 0.6228 0.0926 0.7528C-0.0274 0.8628 -0.0274 1.0528 0.0926 1.1728ZM16.7426 9.3428V2.4728C16.7426 1.8728 16.3426 1.4628 15.7526 1.4628H6.3826C5.7926 1.4628 5.4126 1.8728 5.4126 2.4728V4.4028L11.3226 10.3328H15.7526C16.3526 10.3328 16.7426 9.9228 16.7426 9.3428ZM25.2626 18.4528C25.2626 15.6828 24.7226 12.4528 23.6526 7.3628L23.2326 5.3428C23.1026 4.7328 23.0326 4.4628 22.5426 3.8528L20.9826 1.9128C20.7226 1.5728 20.2726 1.9728 20.5326 2.2928L22.2826 4.5028C22.4026 4.6528 22.3926 4.8128 22.3326 4.9328L21.1926 7.0428C21.0726 7.2628 21.1426 7.4728 21.2626 7.6028L23.6626 10.1628C24.4026 13.8128 24.6826 16.0828 24.6826 18.4528C24.6826 20.2728 23.8726 21.2828 22.4326 21.2828C22.3726 21.2828 22.3226 21.2628 22.2726 21.2628L22.8426 21.8328C24.3926 21.6528 25.2626 20.4628 25.2626 18.4528ZM2.9226 24.8428H19.2026C19.2726 24.8428 19.3426 24.8228 19.3726 24.7628L17.6526 23.0628V24.2728H4.4926L4.5226 6.8428L3.9526 6.2828V24.2728H2.9226C2.7626 24.2728 2.6326 24.4028 2.6326 24.5528C2.6326 24.7128 2.7626 24.8428 2.9226 24.8428Z" />
        </svg>
    