
        <svg xmlns="http://www.w3.org/2000/svg" viewBox="0 0 100 100">
            <path d="M12.7923 25.5978C19.8723 25.5978 25.6023 19.8678 25.6023 12.7978C25.6023 5.7278 19.8723 -0.0022 12.7923 -0.0022C5.7323 -0.0022 0.0023 5.7278 0.0023 12.7978C0.0023 19.8678 5.7323 25.5978 12.7923 25.5978ZM12.7223 18.5878C9.3323 18.5878 7.0623 16.2778 7.0623 12.8078C7.0623 9.3378 9.3323 7.0478 12.7223 7.0478C14.9723 7.0478 16.7923 7.8978 17.3923 9.2678C17.5223 9.5378 17.5823 9.8278 17.5823 10.1478C17.5823 11.0178 16.9523 11.5578 15.9123 11.5578C14.8623 11.5578 14.4623 11.1578 14.1223 10.7578C13.8323 10.3778 13.5323 10.0778 12.8923 10.0778C11.8123 10.0778 11.1523 11.1678 11.1523 12.8078C11.1523 14.4978 11.8223 15.7078 12.9023 15.7078C13.7723 15.7078 14.3123 15.1878 14.3123 14.4878V14.3578H13.8823C13.0223 14.3578 12.5623 13.9178 12.5623 13.1878C12.5623 12.4578 13.0123 11.9978 13.8823 11.9978H16.3223C17.4823 11.9978 18.0823 12.6078 18.0823 13.7678V13.9678C18.0823 16.5578 15.9723 18.5878 12.7223 18.5878Z" />
        </svg>
    