
        <svg xmlns="http://www.w3.org/2000/svg" viewBox="0 0 100 100">
            <path d="M3.8417 21.8745H18.0317C20.5617 21.8745 21.8817 20.5745 21.8817 18.0745V3.8045C21.8817 1.3145 20.5617 0.0045 18.0317 0.0045H3.8417C1.3117 0.0045 0.0017 1.3045 0.0017 3.8045V18.0745C0.0017 20.5745 1.3117 21.8745 3.8417 21.8745ZM11.0017 16.6745C7.7717 16.6745 5.6917 14.4145 5.6917 10.8545C5.6917 7.3045 7.7717 5.0145 10.9717 5.0145C13.2417 5.0145 14.8917 6.1045 15.4817 7.6045C15.5617 7.8145 15.6017 8.0045 15.6017 8.2245C15.6017 8.8145 15.2217 9.1745 14.6117 9.1745C14.1217 9.1745 13.8517 8.9545 13.6317 8.5345C13.1617 7.4745 12.2717 6.8745 11.0317 6.8745C9.2317 6.8745 8.0517 8.4845 8.0517 10.8545C8.0517 13.2445 9.2417 14.8345 11.0517 14.8345C12.7117 14.8345 13.5917 13.9545 13.5917 12.6545V11.9845H11.6817C11.1717 11.9845 10.8617 11.6245 10.8617 11.2045C10.8617 10.7245 11.1517 10.4045 11.6817 10.4045H14.6917C15.4317 10.4045 15.8517 10.8245 15.8517 11.5945V12.3545C15.8517 14.8845 14.0417 16.6745 11.0017 16.6745Z" />
        </svg>
    