
        <svg xmlns="http://www.w3.org/2000/svg" viewBox="0 0 100 100">
            <path d="M11.4923 22.977C17.8323 22.977 22.9823 17.847 22.9823 11.497C22.9823 5.147 17.8323 -0.003 11.4923 -0.003C5.1423 -0.003 0.0023 5.147 0.0023 11.497C0.0023 17.847 5.1423 22.977 11.4923 22.977ZM11.4923 22.087C5.6323 22.087 0.8923 17.357 0.8923 11.497C0.8923 5.637 5.6323 0.887 11.4923 0.887C17.3523 0.887 22.0923 5.637 22.0923 11.497C22.0923 17.357 17.3523 22.087 11.4923 22.087ZM5.3423 15.917C5.9623 15.917 6.5323 15.647 6.9723 15.097L8.0723 13.757C8.2523 13.547 8.4123 13.467 8.6223 13.467H14.3523C14.5623 13.467 14.7323 13.547 14.9023 13.757L16.0123 15.097C16.4523 15.647 17.0123 15.917 17.6323 15.917C18.8123 15.917 19.5823 15.117 19.5823 13.907C19.5823 13.397 19.4423 12.777 19.2223 11.997C18.8523 10.817 18.2423 9.227 17.6323 7.937C17.1823 6.977 16.9523 6.597 15.8623 6.347C14.7323 6.097 13.1923 5.937 11.4823 5.937C9.7823 5.937 8.2523 6.097 7.1123 6.347C6.0123 6.597 5.8023 6.977 5.3423 7.937C4.7323 9.227 4.1223 10.817 3.7623 11.997C3.5423 12.777 3.4023 13.397 3.4023 13.907C3.4023 15.117 4.1723 15.917 5.3423 15.917ZM6.7823 9.747C6.7823 9.547 6.9423 9.407 7.1223 9.407H8.4623V8.037C8.4623 7.837 8.5923 7.697 8.7823 7.697C8.9623 7.697 9.1023 7.837 9.1023 8.037V9.407H10.4223C10.6123 9.407 10.7623 9.547 10.7623 9.747C10.7623 9.937 10.6123 10.077 10.4223 10.077H9.1023V11.477C9.1023 11.657 8.9623 11.787 8.7823 11.787C8.5923 11.787 8.4623 11.657 8.4623 11.477V10.077H7.1223C6.9423 10.077 6.7823 9.937 6.7823 9.747ZM15.0623 9.567C14.6623 9.567 14.3323 9.257 14.3323 8.847C14.3323 8.447 14.6623 8.137 15.0623 8.137C15.4723 8.137 15.7723 8.447 15.7723 8.847C15.7723 9.257 15.4723 9.567 15.0623 9.567ZM13.2023 11.327C12.8123 11.327 12.4923 11.027 12.4923 10.627C12.4923 10.217 12.8123 9.907 13.2023 9.907C13.6023 9.907 13.9323 10.217 13.9323 10.627C13.9323 11.027 13.6023 11.327 13.2023 11.327Z" />
        </svg>
    