
        <svg xmlns="http://www.w3.org/2000/svg" viewBox="0 0 100 100">
            <path d="M3.9717 20.2625C5.2217 20.2625 6.3717 19.7225 7.2917 18.6125L9.5417 15.8925C9.8817 15.4725 10.2217 15.3025 10.6317 15.3025H22.2517C22.6717 15.3025 23.0017 15.4725 23.3517 15.8925L25.5917 18.6125C26.5217 19.7225 27.6717 20.2625 28.9117 20.2625C31.3017 20.2625 32.8917 18.6425 32.8917 16.2025C32.8917 15.1325 32.6117 13.8625 32.1417 12.3125C31.4317 9.9125 30.1917 6.6825 28.9417 4.0525C28.0117 2.1025 27.5617 1.3325 25.3317 0.8325C23.0117 0.2925 19.9217 0.0025 16.4417 0.0025C12.9617 0.0025 9.8817 0.2925 7.5617 0.8325C5.3317 1.3325 4.8917 2.1025 3.9517 4.0525C2.7117 6.6825 1.4617 9.9125 0.7417 12.3125C0.2817 13.8625 0.0017 15.1325 0.0017 16.2025C0.0017 18.6425 1.5917 20.2625 3.9717 20.2625ZM7.1117 7.7425C7.1117 7.4925 7.3017 7.3025 7.5717 7.3025H10.4917V4.2725C10.4917 4.0125 10.6617 3.8225 10.9217 3.8225C11.1817 3.8225 11.3517 4.0125 11.3517 4.2725V7.3025H14.2517C14.5317 7.3025 14.7217 7.4925 14.7217 7.7425C14.7217 8.0025 14.5317 8.1925 14.2517 8.1925H11.3517V11.2125C11.3517 11.4825 11.1817 11.6725 10.9217 11.6725C10.6617 11.6725 10.4917 11.4825 10.4917 11.2125V8.1925H7.5717C7.3017 8.1925 7.1117 8.0025 7.1117 7.7425ZM23.6917 7.3725C22.8717 7.3725 22.2317 6.7425 22.2317 5.9225C22.2317 5.0825 22.8717 4.4425 23.6917 4.4425C24.5117 4.4425 25.1717 5.0825 25.1717 5.9225C25.1717 6.7425 24.5117 7.3725 23.6917 7.3725ZM19.9417 10.9525C19.1417 10.9525 18.4817 10.3225 18.4817 9.5025C18.4817 8.6725 19.1417 8.0425 19.9417 8.0425C20.7617 8.0425 21.4217 8.6725 21.4217 9.5025C21.4217 10.3225 20.7617 10.9525 19.9417 10.9525Z" />
        </svg>
    