
        <svg xmlns="http://www.w3.org/2000/svg" viewBox="0 0 100 100">
            <path d="M0.0023 12.2264C0.0023 15.3664 1.2023 18.2464 3.1923 20.4164C3.8123 21.1064 4.8723 21.1264 5.5623 20.4364L7.4723 18.5264C7.9123 18.1064 7.9123 17.3864 7.4723 16.9564C7.0523 16.5364 6.3423 16.5364 5.9223 16.9564L4.7423 18.1264C3.6723 16.7764 2.9623 15.1364 2.7523 13.3264H4.4023C5.0123 13.3264 5.5223 12.8164 5.5223 12.2264C5.5223 11.6164 5.0123 11.1064 4.4023 11.1064H2.7523C2.9623 9.3064 3.6723 7.6564 4.7223 6.3064L5.8923 7.4764C6.3123 7.8964 7.0323 7.8964 7.4523 7.4764C7.8823 7.0464 7.8823 6.3264 7.4523 5.9064L6.2923 4.7364C7.6423 3.6664 9.2923 2.9564 11.1023 2.7464V4.4364C11.1023 5.0464 11.6023 5.5564 12.2123 5.5564C12.8223 5.5564 13.3223 5.0464 13.3223 4.4364V2.7464C15.1323 2.9564 16.7823 3.6664 18.1323 4.7364L16.9723 5.9064C16.5323 6.3264 16.5323 7.0464 16.9723 7.4764C17.3923 7.8964 18.1023 7.8964 18.5323 7.4764L19.7023 6.3064C20.9723 7.9364 21.7223 9.9864 21.7223 12.2264C21.7223 14.4564 20.9623 16.5164 19.6723 18.1264L18.5023 16.9564C18.0823 16.5364 17.3623 16.5364 16.9423 16.9564C16.5123 17.3864 16.5123 18.1064 16.9423 18.5264L18.8523 20.4364C19.5423 21.1264 20.6123 21.1064 21.2323 20.4164C23.2123 18.2464 24.4223 15.3664 24.4223 12.2264C24.4223 5.5164 18.9123 -0.0036 12.2123 -0.0036C5.5123 -0.0036 0.0023 5.5164 0.0023 12.2264ZM29.9523 13.0764C30.7423 13.0764 31.2623 12.5864 31.3023 11.7564L31.5423 4.2664C31.5823 3.3164 30.9423 2.6764 29.9423 2.6764C28.9323 2.6764 28.2923 3.3164 28.3223 4.2664L28.5823 11.7664C28.6123 12.5864 29.1423 13.0764 29.9523 13.0764ZM10.0623 12.2264C10.0623 13.3664 10.9223 14.2264 12.0723 14.2264C12.2723 14.2264 12.6423 14.1664 12.9823 14.0964L19.1323 12.9164C19.5423 12.8364 19.7623 12.5664 19.7623 12.2264C19.7623 11.8964 19.5423 11.6264 19.1323 11.5264L12.9823 10.3564C12.6423 10.2864 12.2723 10.2164 12.0723 10.2164C10.9223 10.2164 10.0623 11.0764 10.0623 12.2264ZM29.9523 18.5164C30.9823 18.5164 31.7723 17.7664 31.7723 16.7964C31.7723 15.8064 30.9923 15.0664 29.9523 15.0664C28.9023 15.0664 28.1023 15.8064 28.1023 16.7964C28.1023 17.7664 28.9023 18.5164 29.9523 18.5164Z" />
        </svg>
    