
        <svg xmlns="http://www.w3.org/2000/svg" viewBox="0 0 100 100">
            <path d="M11.9523 23.9041C18.5523 23.9041 23.9023 18.5541 23.9023 11.9541C23.9023 5.3541 18.5523 0.0041 11.9523 0.0041C5.3523 0.0041 0.0023 5.3541 0.0023 11.9541C0.0023 18.5541 5.3523 23.9041 11.9523 23.9041ZM11.9523 21.9141C6.4423 21.9141 1.9923 17.4641 1.9923 11.9541C1.9923 6.4441 6.4423 1.9941 11.9523 1.9941C17.4623 1.9941 21.9123 6.4441 21.9123 11.9541C21.9123 17.4641 17.4623 21.9141 11.9523 21.9141ZM11.9423 6.2341C12.4923 6.2341 12.9523 5.7741 12.9523 5.2241C12.9523 4.6741 12.4923 4.2141 11.9423 4.2141C11.3923 4.2141 10.9323 4.6741 10.9323 5.2241C10.9323 5.7741 11.3923 6.2341 11.9423 6.2341ZM7.1823 8.2541C7.7323 8.2541 8.1923 7.7941 8.1923 7.2441C8.1923 6.6841 7.7323 6.2341 7.1823 6.2341C6.6323 6.2341 6.1723 6.6841 6.1723 7.2441C6.1723 7.7941 6.6323 8.2541 7.1823 8.2541ZM16.7023 8.2541C17.2523 8.2541 17.7023 7.7941 17.7023 7.2441C17.7023 6.6841 17.2523 6.2341 16.7023 6.2341C16.1523 6.2341 15.6923 6.6841 15.6923 7.2441C15.6923 7.7941 16.1523 8.2541 16.7023 8.2541ZM10.1023 10.1141C9.3423 10.8741 9.3423 11.9841 10.1023 12.7541C10.2423 12.8941 10.5423 13.1141 10.7323 13.2541L16.4223 17.1941C16.7023 17.3941 16.9823 17.3341 17.1523 17.1641C17.3223 16.9941 17.3823 16.7141 17.1823 16.4341L13.2423 10.7441C13.1023 10.5541 12.8923 10.2541 12.7423 10.1141C11.9723 9.3441 10.8723 9.3441 10.1023 10.1141ZM5.2023 12.9641C5.7523 12.9641 6.2123 12.5041 6.2123 11.9541C6.2123 11.4041 5.7523 10.9441 5.2023 10.9441C4.6523 10.9441 4.1923 11.4041 4.1923 11.9541C4.1923 12.5041 4.6523 12.9641 5.2023 12.9641ZM18.6523 12.9641C19.2023 12.9641 19.6623 12.5041 19.6623 11.9541C19.6623 11.4041 19.2023 10.9441 18.6523 10.9441C18.1023 10.9441 17.6523 11.4041 17.6523 11.9541C17.6523 12.5041 18.1023 12.9641 18.6523 12.9641ZM7.1823 17.6741C7.7323 17.6741 8.1923 17.2141 8.1923 16.6641C8.1923 16.1141 7.7323 15.6541 7.1823 15.6541C6.6323 15.6541 6.1723 16.1141 6.1723 16.6641C6.1723 17.2141 6.6323 17.6741 7.1823 17.6741Z" />
        </svg>
    