
        <svg xmlns="http://www.w3.org/2000/svg" viewBox="0 0 100 100">
            <path d="M0.0023 11.3527C0.0023 14.4327 1.2423 17.2527 3.2423 19.3127C3.4123 19.4727 3.6023 19.5127 3.8223 19.3027L6.3823 16.7427C6.5023 16.6427 6.4923 16.4427 6.3823 16.3227C6.2823 16.2327 6.0723 16.2027 5.9723 16.3227L3.5323 18.7827C1.7623 16.9027 0.6423 14.4127 0.5723 11.6527H4.0423C4.1923 11.6527 4.3223 11.5227 4.3223 11.3527C4.3223 11.2027 4.1923 11.0727 4.0423 11.0727H0.5723C0.7223 5.3527 5.3523 0.7227 11.0723 0.5727V4.0427C11.0723 4.2027 11.2023 4.3327 11.3523 4.3327C11.5223 4.3327 11.6523 4.2027 11.6523 4.0427V0.5727C14.4023 0.6527 16.9123 1.7727 18.7723 3.5427L16.3223 5.9727C16.2023 6.0827 16.2223 6.2827 16.3223 6.4027C16.4423 6.4927 16.6423 6.5127 16.7323 6.4027L19.1823 3.9327C20.9523 5.8127 22.0623 8.3227 22.1323 11.0727H18.6723C18.5123 11.0727 18.3823 11.2027 18.3823 11.3527C18.3823 11.5227 18.5123 11.6527 18.6723 11.6527H22.1323C22.0623 14.4127 20.9523 16.9027 19.1823 18.7827L16.7323 16.3227C16.6423 16.2027 16.4423 16.2327 16.3223 16.3227C16.2223 16.4427 16.2023 16.6427 16.3223 16.7427L18.9023 19.3027C19.1123 19.5127 19.3123 19.4727 19.4623 19.3127C21.4723 17.2527 22.7123 14.4327 22.7123 11.3527C22.7123 5.1127 17.6023 0.0027 11.3523 0.0027C5.1123 0.0027 0.0023 5.1127 0.0023 11.3527ZM12.7223 12.4427C13.2323 11.9427 13.2323 11.1127 12.7223 10.6027C12.6723 10.5327 12.5423 10.4327 12.4523 10.3627L6.5823 5.9327C6.4823 5.8427 6.3523 5.8427 6.2323 5.9527C6.1123 6.0727 6.1323 6.2027 6.2223 6.3027L10.6423 12.1627C10.7123 12.2627 10.8123 12.3827 10.8723 12.4427C11.3923 12.9627 12.2123 12.9627 12.7223 12.4427Z" />
        </svg>
    