
        <svg xmlns="http://www.w3.org/2000/svg" viewBox="0 0 100 100">
            <path d="M12.1023 24.2064C18.7823 24.2064 24.2123 18.7864 24.2123 12.1064C24.2123 5.4264 18.7823 -0.0036 12.1023 -0.0036C5.4223 -0.0036 0.0023 5.4264 0.0023 12.1064C0.0023 18.7864 5.4223 24.2064 12.1023 24.2064ZM12.1023 21.8164C6.7223 21.8164 2.3823 17.4864 2.3823 12.1064C2.3823 6.7264 6.7223 2.3764 12.1023 2.3764C17.4823 2.3764 21.8323 6.7264 21.8323 12.1064C21.8323 17.4864 17.4823 21.8164 12.1023 21.8164ZM12.0923 6.6064C12.7023 6.6064 13.1923 6.1164 13.1923 5.5064C13.1923 4.8964 12.7023 4.4064 12.0923 4.4064C11.4923 4.4064 10.9923 4.8964 10.9923 5.5064C10.9923 6.1164 11.4923 6.6064 12.0923 6.6064ZM7.4523 8.6064C8.0623 8.6064 8.5523 8.1064 8.5523 7.4964C8.5523 6.9064 8.0623 6.3964 7.4523 6.3964C6.8523 6.3964 6.3523 6.9064 6.3523 7.4964C6.3523 8.1064 6.8523 8.6064 7.4523 8.6064ZM16.7323 8.6064C17.3423 8.6064 17.8323 8.1064 17.8323 7.4964C17.8323 6.9064 17.3423 6.3964 16.7323 6.3964C16.1323 6.3964 15.6323 6.9064 15.6323 7.4964C15.6323 8.1064 16.1323 8.6064 16.7323 8.6064ZM13.9223 10.2264C13.1323 9.4364 11.9623 9.4364 11.1823 10.2264C11.0423 10.3664 10.8123 10.6864 10.6423 10.9264L6.9423 16.3364C6.7223 16.6564 6.7823 16.9664 6.9823 17.1764C7.1923 17.3764 7.5023 17.4264 7.8323 17.2164L13.2323 13.5164C13.4723 13.3364 13.7823 13.1264 13.9223 12.9864C14.7223 12.1864 14.7223 11.0164 13.9223 10.2264ZM5.5323 13.2064C6.1423 13.2064 6.6323 12.7064 6.6323 12.1064C6.6323 11.4964 6.1423 11.0064 5.5323 11.0064C4.9323 11.0064 4.4323 11.4964 4.4323 12.1064C4.4323 12.7064 4.9323 13.2064 5.5323 13.2064ZM18.6823 13.2064C19.2823 13.2064 19.7823 12.7064 19.7823 12.1064C19.7823 11.4964 19.2823 11.0064 18.6823 11.0064C18.0723 11.0064 17.5823 11.4964 17.5823 12.1064C17.5823 12.7064 18.0723 13.2064 18.6823 13.2064ZM16.7323 17.7964C17.3423 17.7964 17.8323 17.3064 17.8323 16.6964C17.8323 16.1064 17.3423 15.5964 16.7323 15.5964C16.1323 15.5964 15.6323 16.1064 15.6323 16.6964C15.6323 17.3064 16.1323 17.7964 16.7323 17.7964Z" />
        </svg>
    