
        <svg xmlns="http://www.w3.org/2000/svg" viewBox="0 0 100 100">
            <path d="M1.1717 16.6725H2.2017C2.8617 16.6725 3.3717 16.1625 3.3717 15.5025V14.4925H7.6917C7.9217 13.1125 8.3817 11.8125 9.0317 10.6325H8.4017C8.0717 10.6325 7.8717 10.4425 7.8717 10.0625V8.7625C7.8717 8.4125 8.0617 8.2025 8.3917 8.2025H10.7917C12.1617 6.7425 13.9017 5.5925 15.8417 4.9325H3.9117C3.5717 4.9325 3.4117 4.6125 3.5417 4.2425L4.1217 2.6025C4.4917 1.5925 5.0017 1.1325 5.9317 1.0325C6.7017 0.9225 8.0517 0.9025 10.6717 0.9025C13.2917 0.9025 14.6417 0.9225 15.4117 1.0325C16.3517 1.1325 16.8517 1.5925 17.2017 2.6025L17.7917 4.2425C17.8217 4.3225 17.8317 4.3825 17.8317 4.4425C18.2117 4.3825 18.5617 4.3325 18.9417 4.3225L18.2817 2.4525C17.7417 0.9225 16.8717 0.2825 15.6017 0.1325C14.9517 0.0425 12.7517 0.0025 10.6717 0.0025C8.5817 0.0025 6.4017 0.0425 5.7317 0.1325C4.4717 0.2825 3.6117 0.9225 3.0717 2.4525L1.9817 5.5325L1.1217 6.6225C0.4217 7.5225 0.0017 8.3125 0.0017 10.0325V15.5025C0.0017 16.1525 0.5117 16.6725 1.1717 16.6725ZM30.6317 2.3325C30.2917 1.9825 29.9917 2.2525 29.9017 2.5625L28.8917 6.8625C28.8117 7.1725 29.0617 7.4725 29.4217 7.3825L33.7117 6.3725C34.0217 6.3025 34.2917 5.9925 33.9417 5.6525ZM12.4417 16.2425H8.9717C9.0517 13.4925 10.1617 10.9825 11.9417 9.1125L14.3817 11.5625C14.4717 11.6825 14.6717 11.6625 14.7917 11.5625C14.8917 11.4525 14.9017 11.2525 14.7917 11.1425L12.3417 8.7025C14.2017 6.9325 16.7117 5.8225 19.4617 5.7525V9.2125C19.4617 9.3725 19.5917 9.5025 19.7617 9.5025C19.9117 9.5025 20.0417 9.3725 20.0417 9.2125V5.7525C25.7617 5.8925 30.3917 10.5225 30.5417 16.2425H27.0717C26.9217 16.2425 26.7917 16.3725 26.7917 16.5325C26.7917 16.6825 26.9217 16.8125 27.0717 16.8125H30.5417C30.4717 19.5825 29.3517 22.0625 27.5817 23.9525L25.1417 21.4925C25.0417 21.3725 24.8317 21.4025 24.7217 21.4925C24.6217 21.6125 24.6117 21.8125 24.7217 21.9125L27.2917 24.4725C27.5117 24.6925 27.7017 24.6425 27.8717 24.4825C29.8717 22.4225 31.1117 19.6025 31.1117 16.5325C31.1117 10.2725 26.0017 5.1725 19.7617 5.1725C13.5117 5.1725 8.4017 10.2725 8.4017 16.5325C8.4017 19.6025 9.6417 22.4225 11.6517 24.4825C11.8017 24.6425 12.0017 24.6925 12.2217 24.4725L14.7917 21.9125C14.9017 21.8125 14.8917 21.6125 14.7917 21.4925C14.6717 21.4025 14.4717 21.3725 14.3817 21.4925L11.9317 23.9525C10.1617 22.0625 9.0517 19.5825 8.9717 16.8125H12.4417C12.6017 16.8125 12.7217 16.6825 12.7217 16.5325C12.7217 16.3725 12.6017 16.2425 12.4417 16.2425ZM2.8917 10.9725C2.4517 10.9725 2.1417 10.6625 2.1417 10.2325V8.6325C2.1417 8.2025 2.4517 7.8725 2.8917 7.8725C3.3517 7.8725 3.6517 8.2025 3.6517 8.6325V10.2325C3.6517 10.6625 3.3517 10.9725 2.8917 10.9725ZM18.3917 17.6125C18.9017 18.1325 19.7217 18.1325 20.2417 17.6125C20.3017 17.5525 20.4017 17.4225 20.4717 17.3325L24.8917 11.4725C24.9817 11.3625 24.9917 11.2425 24.8817 11.1225C24.7617 11.0125 24.6317 11.0125 24.5317 11.1025L18.6517 15.5225C18.5717 15.6025 18.4417 15.7025 18.3917 15.7725C17.8817 16.2725 17.8817 17.1125 18.3917 17.6125Z" />
        </svg>
    