
        <svg xmlns="http://www.w3.org/2000/svg" viewBox="0 0 100 100">
            <path d="M0.0041 17.0083C0.0041 21.1483 1.6241 24.9083 4.2941 27.6783L3.2041 28.7783C2.9541 29.0083 3.1241 29.2583 3.4241 29.3183L6.4541 29.9883C6.7641 30.0483 6.9541 29.8683 6.8941 29.5683L6.3441 26.4183C6.2841 26.0583 6.0341 25.9383 5.7941 26.1783L4.7241 27.2483C2.1841 24.5783 0.5841 20.9783 0.5841 17.0083C0.5841 8.9383 7.0741 2.3783 15.0941 2.2283V4.0083C15.0941 4.3283 15.3741 4.4083 15.6341 4.2383L18.2741 2.5383C18.5041 2.3783 18.5041 2.1283 18.2741 1.9583L15.6541 0.1183C15.3441 -0.1117 15.0941 0.0083 15.0941 0.3383V1.6283C6.7241 1.7883 0.0041 8.5983 0.0041 17.0083ZM8.0641 16.7183H4.5941C4.7441 10.9983 9.3741 6.3683 15.0941 6.2183V9.6883C15.0941 9.8483 15.2241 9.9783 15.3741 9.9783C15.5441 9.9783 15.6641 9.8483 15.6641 9.6883V5.9583C15.6641 5.7783 15.5241 5.6483 15.3041 5.6483C9.1241 5.6483 4.0241 10.7583 4.0241 16.9983C4.0241 20.0783 5.2641 22.8983 7.2641 24.9583C7.4341 25.1183 7.6241 25.1583 7.8441 24.9483L10.4141 22.3883C10.5341 22.2883 10.5141 22.0883 10.4141 21.9683C10.3041 21.8783 10.1041 21.8483 9.9941 21.9683L7.5541 24.4283C5.7941 22.5483 4.6741 20.0583 4.5941 17.2983H8.0641C8.2241 17.2983 8.3541 17.1683 8.3541 16.9983C8.3541 16.8483 8.2241 16.7183 8.0641 16.7183ZM23.0041 9.3883L23.4341 8.9983C21.5741 7.1483 19.1241 5.9983 16.5241 5.7183C16.5441 5.7883 16.5441 5.8783 16.5441 5.9583V6.2883C18.9941 6.5683 21.2841 7.6583 23.0041 9.3883ZM26.1641 17.0083L26.7441 17.0283C26.7341 15.7283 26.5241 14.3883 26.0441 13.0883C25.5741 11.8083 24.8741 10.6483 24.0241 9.6583L23.6241 10.0283C24.4141 10.9783 25.0641 12.0683 25.5141 13.2983C25.9541 14.5183 26.1641 15.7783 26.1641 17.0083ZM16.7541 18.0883C17.2641 17.5883 17.2641 16.7583 16.7541 16.2483C16.7041 16.1783 16.5741 16.0783 16.4741 16.0083L10.6041 11.5783C10.5141 11.4883 10.3741 11.4883 10.2541 11.5983C10.1341 11.7183 10.1641 11.8483 10.2441 11.9483L14.6641 17.8083C14.7441 17.9083 14.8341 18.0283 14.8941 18.0883C15.4241 18.6083 16.2341 18.6083 16.7541 18.0883ZM23.6141 24.8383C25.3941 22.9383 26.4941 20.5083 26.6941 17.9283L26.1441 17.9083C25.9241 20.3383 24.8941 22.6483 23.1941 24.4283L20.7641 21.9683C20.6641 21.8483 20.4641 21.8783 20.3441 21.9683C20.2541 22.0883 20.2241 22.2883 20.3441 22.3883L22.8641 24.8883C23.1141 25.1383 23.3741 25.0883 23.6141 24.8383Z" />
        </svg>
    