
        <svg xmlns="http://www.w3.org/2000/svg" viewBox="0 0 100 100">
            <path d="M0.0023 12.1092C0.0023 15.2092 1.2023 18.0692 3.1623 20.2192C3.7523 20.8592 4.7323 20.9292 5.4223 20.2392L7.2323 18.4492C7.6423 18.0492 7.6323 17.3792 7.2323 16.9792C6.8323 16.5792 6.1623 16.5792 5.7623 16.9792L4.5423 18.1992C3.4023 16.7892 2.6523 15.0492 2.4523 13.1392H4.1723C4.7323 13.1392 5.2123 12.6692 5.2123 12.0892C5.2123 11.5292 4.7323 11.0592 4.1723 11.0592H2.4523C2.9323 6.4992 6.5023 2.9192 11.0623 2.4392V4.1792C11.0623 4.7492 11.5323 5.2192 12.0923 5.2192C12.6723 5.2192 13.1323 4.7492 13.1323 4.1792V2.4392C15.0423 2.6392 16.7923 3.3892 18.2123 4.5392L16.9923 5.7492C16.5823 6.1492 16.5923 6.8192 16.9923 7.2192C17.3923 7.6192 18.0623 7.6192 18.4523 7.2192L19.6623 5.9992C20.8023 7.4192 21.5423 9.1492 21.7523 11.0592H20.0523C19.4723 11.0592 19.0123 11.5292 19.0123 12.0892C19.0123 12.6692 19.4723 13.1392 20.0523 13.1392H21.7423C21.5423 15.0492 20.7923 16.7892 19.6423 18.1992L18.4223 16.9792C18.0223 16.5792 17.3523 16.5792 16.9523 16.9792C16.5623 17.3792 16.5623 18.0492 16.9523 18.4492L18.7623 20.2392C19.4523 20.9292 20.4523 20.8592 21.0223 20.2192C22.9923 18.0692 24.1923 15.2092 24.1923 12.1092C24.1923 5.4692 18.7223 -0.0008 12.0923 -0.0008C5.4723 -0.0008 0.0023 5.4692 0.0023 12.1092ZM13.6323 13.6792C14.4223 12.8892 14.4223 11.7192 13.6323 10.9292C13.4923 10.7892 13.1823 10.5692 12.9423 10.3992L7.5323 6.6892C7.2223 6.4792 6.9023 6.5392 6.6923 6.7392C6.4923 6.9492 6.4323 7.2492 6.6523 7.5692L10.3523 12.9892C10.5223 13.2292 10.7423 13.5392 10.8823 13.6792C11.6723 14.4692 12.8423 14.4692 13.6323 13.6792Z" />
        </svg>
    