
        <svg xmlns="http://www.w3.org/2000/svg" viewBox="0 0 100 100">
            <path d="M12.3723 24.7459C19.2023 24.7459 24.7523 19.2059 24.7523 12.3759C24.7523 5.5459 19.2023 -0.0041 12.3723 -0.0041C5.5423 -0.0041 0.0023 5.5459 0.0023 12.3759C0.0023 19.2059 5.5423 24.7459 12.3723 24.7459ZM12.3723 21.6659C7.2423 21.6659 3.0823 17.5059 3.0823 12.3759C3.0823 7.2259 7.2423 3.0859 12.3723 3.0859C17.5223 3.0859 21.6723 7.2259 21.6723 12.3759C21.6723 17.5059 17.5223 21.6659 12.3723 21.6659ZM11.8323 18.6959H12.9023C13.3023 18.6959 13.6023 18.4459 13.7023 18.0559L13.9823 16.8759C14.1423 16.8159 14.2923 16.7559 14.4423 16.6859L15.4723 17.3159C15.8123 17.5359 16.2023 17.4959 16.4723 17.2159L17.2123 16.4759C17.4923 16.1959 17.5323 15.7859 17.3223 15.4559L16.7023 14.4259C16.7623 14.2859 16.8123 14.1359 16.8723 13.9759L18.0623 13.7059C18.4423 13.6159 18.6923 13.3159 18.6923 12.9059V11.8559C18.6923 11.4759 18.4423 11.1659 18.0623 11.0759L16.8823 10.7959C16.8323 10.6259 16.7623 10.4659 16.7023 10.3359L17.3323 9.3059C17.5423 8.9659 17.5223 8.5659 17.2223 8.2859L16.4723 7.5459C16.1923 7.2859 15.8323 7.2259 15.4923 7.4159L14.4423 8.0759C14.2923 8.0059 14.1423 7.9459 13.9923 7.8759L13.7023 6.6759C13.5923 6.2959 13.3023 6.0459 12.9023 6.0459H11.8323C11.4423 6.0459 11.1323 6.2959 11.0523 6.6959L10.7623 7.8759C10.5923 7.9259 10.4323 7.9959 10.2923 8.0659L9.2423 7.4159C8.9023 7.2259 8.5423 7.2659 8.2623 7.5459L7.5123 8.2859C7.2323 8.5659 7.1923 8.9659 7.4023 9.3059L8.0423 10.3359C7.9823 10.4659 7.9123 10.6259 7.8523 10.7959L6.6823 11.0759C6.2923 11.1659 6.0423 11.4759 6.0423 11.8559V12.9059C6.0423 13.3159 6.2923 13.6159 6.6823 13.7059L7.8623 13.9759C7.9223 14.1359 7.9823 14.2859 8.0523 14.4259L7.4323 15.4559C7.2023 15.7859 7.2423 16.1959 7.5223 16.4759L8.2623 17.2159C8.5323 17.4959 8.9423 17.5359 9.2723 17.3159L10.3023 16.6859C10.4423 16.7559 10.5923 16.8159 10.7623 16.8759L11.0523 18.0559C11.1323 18.4459 11.4423 18.6959 11.8323 18.6959ZM12.3723 14.3759C11.2623 14.3759 10.3623 13.4759 10.3623 12.3659C10.3623 11.2459 11.2623 10.3459 12.3723 10.3459C13.4723 10.3459 14.3923 11.2459 14.3923 12.3659C14.3923 13.4759 13.4723 14.3759 12.3723 14.3759Z" />
        </svg>
    