
        <svg xmlns="http://www.w3.org/2000/svg" viewBox="0 0 100 100">
            <path d="M7.9823 17.6022H9.6523C10.2423 17.6022 10.6623 17.2822 10.8023 16.7022L11.1823 15.0722C11.3223 15.0222 11.4623 14.9722 11.5823 14.9022L13.0223 15.7822C13.5323 16.1022 14.0523 16.0222 14.4723 15.6122L15.6523 14.4422C16.0823 14.0122 16.1323 13.4922 15.8223 12.9822L14.9423 11.5622C15.0023 11.4222 15.0623 11.2922 15.1123 11.1522L16.7323 10.7722C17.3223 10.6322 17.6323 10.2022 17.6323 9.6222V7.9822C17.6323 7.3922 17.3223 6.9722 16.7323 6.8322L15.1123 6.4522C15.0623 6.3122 15.0023 6.1722 14.9423 6.0322L15.8223 4.6122C16.1323 4.1122 16.0823 3.5822 15.6523 3.1622L14.4723 1.9922C14.0523 1.5822 13.5323 1.5122 13.0223 1.8122L11.5823 2.6922C11.4523 2.6222 11.3223 2.5822 11.1823 2.5322L10.8023 0.9022C10.6623 0.3122 10.2423 0.0022 9.6523 0.0022H7.9823C7.3923 0.0022 6.9723 0.3122 6.8323 0.9022L6.4523 2.5322C6.3123 2.5822 6.1723 2.6222 6.0423 2.6922L4.6123 1.8122C4.1023 1.5122 3.5823 1.5822 3.1623 1.9922L1.9823 3.1622C1.5623 3.5822 1.5023 4.1122 1.8123 4.6122L2.6923 6.0322C2.6323 6.1722 2.5823 6.3122 2.5223 6.4522L0.9023 6.8322C0.3123 6.9722 0.0023 7.3922 0.0023 7.9822V9.6222C0.0023 10.2022 0.3123 10.6322 0.9023 10.7722L2.5223 11.1522C2.5823 11.2922 2.6323 11.4222 2.6923 11.5622L1.8123 12.9822C1.5023 13.4922 1.5623 14.0122 1.9823 14.4422L3.1623 15.6122C3.5823 16.0222 4.1023 16.1022 4.6123 15.7822L6.0623 14.9022C6.1723 14.9722 6.3123 15.0222 6.4523 15.0722L6.8323 16.7022C6.9723 17.2822 7.3923 17.6022 7.9823 17.6022ZM8.0823 16.7822C7.8023 16.7822 7.6523 16.6522 7.5823 16.3622L7.1323 14.4522C6.7223 14.3322 6.3423 14.1522 6.0023 13.9822L4.3323 15.0222C4.0823 15.1722 3.8823 15.1522 3.6723 14.9522L2.6323 13.9322C2.4223 13.7322 2.4123 13.5322 2.5823 13.2822L3.6123 11.6122C3.4423 11.2722 3.2723 10.8722 3.1423 10.4722L1.2423 10.0322C0.9523 9.9622 0.8223 9.8122 0.8223 9.5322V8.0822C0.8223 7.7922 0.9523 7.6422 1.2423 7.5822L3.1423 7.1322C3.2723 6.7222 3.4423 6.3422 3.6123 5.9922L2.5823 4.3322C2.4123 4.0822 2.4223 3.8622 2.6323 3.6722L3.6723 2.6522C3.8823 2.4622 4.0823 2.4222 4.3323 2.5922L6.0023 3.6222C6.3423 3.4422 6.7223 3.2722 7.1323 3.1522L7.5823 1.2522C7.6523 0.9522 7.8023 0.8222 8.0823 0.8222H9.5523C9.8323 0.8222 9.9823 0.9522 10.0523 1.2522L10.5023 3.1522C10.9023 3.2722 11.2923 3.4422 11.6323 3.6222L13.3023 2.5922C13.5623 2.4222 13.7623 2.4622 13.9523 2.6522L15.0023 3.6722C15.2123 3.8622 15.2223 4.0822 15.0423 4.3322L14.0323 5.9922C14.1923 6.3422 14.3623 6.7222 14.4923 7.1322L16.3923 7.5822C16.6923 7.6422 16.8123 7.7922 16.8123 8.0822V9.5322C16.8123 9.8122 16.6923 9.9622 16.3923 10.0322L14.4923 10.4722C14.3623 10.8722 14.1923 11.2722 14.0323 11.6122L15.0423 13.2822C15.2223 13.5322 15.2123 13.7322 15.0023 13.9322L13.9523 14.9522C13.7623 15.1522 13.5623 15.1722 13.3023 15.0222L11.6323 13.9822C11.2923 14.1522 10.9023 14.3322 10.5023 14.4522L10.0523 16.3622C9.9823 16.6522 9.8323 16.7822 9.5523 16.7822ZM8.8123 12.3022C10.7423 12.3022 12.3023 10.7322 12.3023 8.8022C12.3023 6.8622 10.7423 5.3122 8.8123 5.3122C6.8823 5.3122 5.3123 6.8622 5.3123 8.8022C5.3123 10.7322 6.8823 12.3022 8.8123 12.3022ZM8.8123 11.4722C7.3323 11.4722 6.1423 10.2822 6.1423 8.8022C6.1423 7.3222 7.3323 6.1322 8.8123 6.1322C10.2923 6.1322 11.4823 7.3222 11.4823 8.8022C11.4823 10.2822 10.2923 11.4722 8.8123 11.4722ZM22.6423 24.5522H23.8923C24.4723 24.5522 24.8323 24.2822 24.9423 23.8022L25.2023 22.3922C25.3523 22.3522 25.4723 22.3022 25.6023 22.2322L26.8023 23.0122C27.2223 23.2822 27.6723 23.2222 28.0623 22.8122L28.9423 21.9422C29.3423 21.5322 29.4123 21.0822 29.1423 20.6722L28.3623 19.4922C28.4223 19.3622 28.4623 19.2322 28.5223 19.0922L29.9223 18.8122C30.4023 18.7022 30.6823 18.3422 30.6823 17.7622V16.5222C30.6823 15.9522 30.4023 15.5822 29.9223 15.4822L28.5223 15.2022C28.4623 15.0622 28.4223 14.9322 28.3623 14.8122L29.1423 13.6322C29.4123 13.2022 29.3423 12.7622 28.9423 12.3522L28.0623 11.4722C27.6723 11.0622 27.2223 11.0022 26.8023 11.2722L25.6023 12.0622C25.4723 11.9922 25.3523 11.9422 25.2023 11.8922L24.9423 10.4922C24.8323 10.0122 24.4723 9.7422 23.8923 9.7422H22.6423C22.0623 9.7422 21.6923 10.0122 21.6023 10.4922L21.3323 11.8922C21.1923 11.9422 21.0623 11.9922 20.9323 12.0622L19.7323 11.2722C19.3123 11.0022 18.8623 11.0622 18.4723 11.4722L17.5923 12.3522C17.1823 12.7622 17.1223 13.2022 17.3923 13.6322L18.1723 14.8122C18.1123 14.9322 18.0723 15.0622 18.0123 15.2022L16.6123 15.4822C16.1323 15.5822 15.8523 15.9522 15.8523 16.5222V17.7622C15.8523 18.3422 16.1323 18.7022 16.6123 18.8122L18.0123 19.0922C18.0723 19.2322 18.1123 19.3622 18.1723 19.4922L17.3923 20.6722C17.1223 21.0822 17.1823 21.5322 17.5923 21.9422L18.4723 22.8122C18.8623 23.2222 19.3123 23.2822 19.7323 23.0122L20.9323 22.2322C21.0623 22.3022 21.1923 22.3522 21.3323 22.3922L21.6023 23.8022C21.6923 24.2822 22.0623 24.5522 22.6423 24.5522ZM22.7723 23.7522C22.5223 23.7522 22.3823 23.6522 22.3323 23.4522L21.9723 21.7722C21.6023 21.6722 21.2323 21.5122 20.8923 21.3122L19.4723 22.2522C19.3023 22.3622 19.1223 22.3322 18.9523 22.1622L18.2423 21.4522C18.0723 21.2822 18.0423 21.1022 18.1523 20.9322L19.0923 19.5222C18.9223 19.2322 18.7423 18.8322 18.6323 18.4322L16.9723 18.0822C16.7723 18.0322 16.6523 17.8922 16.6523 17.6522V16.6422C16.6523 16.4022 16.7723 16.2522 16.9723 16.2022L18.6323 15.8522C18.7423 15.4522 18.9223 15.0722 19.0923 14.7622L18.1523 13.3622C18.0423 13.1822 18.0723 13.0122 18.2423 12.8322L18.9523 12.1322C19.1223 11.9522 19.3023 11.9322 19.4723 12.0322L20.8923 12.9722C21.2323 12.7722 21.6023 12.6222 21.9723 12.5122L22.3323 10.8522C22.3823 10.6422 22.5223 10.5322 22.7723 10.5322H23.7623C24.0123 10.5322 24.1523 10.6422 24.2023 10.8522L24.5523 12.5122C24.9423 12.6222 25.3023 12.7722 25.6423 12.9722L27.0623 12.0322C27.2323 11.9322 27.4123 11.9522 27.5823 12.1322L28.2923 12.8322C28.4623 13.0122 28.4923 13.1822 28.3823 13.3622L27.4423 14.7622C27.6123 15.0722 27.7923 15.4522 27.9023 15.8522L29.5623 16.2022C29.7623 16.2522 29.8723 16.4022 29.8723 16.6422V17.6522C29.8723 17.8922 29.7623 18.0322 29.5623 18.0822L27.9023 18.4322C27.7923 18.8322 27.6123 19.2322 27.4423 19.5222L28.3823 20.9322C28.4923 21.1022 28.4623 21.2822 28.2923 21.4522L27.5823 22.1622C27.4123 22.3322 27.2323 22.3622 27.0623 22.2522L25.6423 21.3122C25.3023 21.5122 24.9423 21.6722 24.5523 21.7722L24.2023 23.4522C24.1523 23.6522 24.0123 23.7522 23.7623 23.7522ZM23.2623 19.6722C24.6523 19.6722 25.7923 18.5422 25.7923 17.1422C25.7923 15.7522 24.6523 14.6122 23.2623 14.6122C21.8623 14.6122 20.7423 15.7522 20.7423 17.1422C20.7423 18.5422 21.8623 19.6722 23.2623 19.6722ZM23.2623 18.8922C22.3023 18.8922 21.5323 18.1022 21.5323 17.1422C21.5323 16.1822 22.3023 15.4122 23.2623 15.4122C24.2223 15.4122 25.0123 16.1822 25.0123 17.1422C25.0123 18.1022 24.2223 18.8922 23.2623 18.8922Z" />
        </svg>
    