
        <svg xmlns="http://www.w3.org/2000/svg" viewBox="0 0 100 100">
            <path d="M11.9523 23.9041C18.5523 23.9041 23.9023 18.5541 23.9023 11.9541C23.9023 5.3541 18.5523 0.0041 11.9523 0.0041C5.3523 0.0041 0.0023 5.3541 0.0023 11.9541C0.0023 18.5541 5.3523 23.9041 11.9523 23.9041ZM11.9523 21.9141C6.4423 21.9141 1.9923 17.4641 1.9923 11.9541C1.9923 6.4441 6.4423 1.9941 11.9523 1.9941C17.4623 1.9941 21.9123 6.4441 21.9123 11.9541C21.9123 17.4641 17.4623 21.9141 11.9523 21.9141ZM11.3323 18.8241H12.5523C12.8923 18.8241 13.1323 18.6141 13.2023 18.2741L13.5623 16.8241C13.8023 16.7441 14.0623 16.6441 14.2723 16.5341L15.5423 17.3041C15.8323 17.4941 16.1523 17.4741 16.3823 17.2341L17.2123 16.3941C17.4623 16.1641 17.4923 15.8241 17.2923 15.5241L16.5323 14.2741C16.6423 14.0541 16.7323 13.8141 16.8123 13.5741L18.2723 13.2441C18.6123 13.1641 18.8123 12.9141 18.8123 12.5641V11.3741C18.8123 11.0341 18.6123 10.8041 18.2723 10.7241L16.8323 10.3741C16.7323 10.1041 16.6323 9.8641 16.5423 9.6541L17.3223 8.3941C17.4923 8.1141 17.4923 7.7841 17.2423 7.5341L16.3823 6.7041C16.1523 6.4841 15.8423 6.4241 15.5523 6.5941L14.2723 7.3841C14.0623 7.2841 13.8123 7.1841 13.5623 7.1041L13.2023 5.6341C13.1323 5.2941 12.8923 5.0941 12.5523 5.0941H11.3323C10.9923 5.0941 10.7423 5.2941 10.6723 5.6341L10.3223 7.0941C10.0823 7.1741 9.8223 7.2641 9.6023 7.3841L8.3323 6.5941C8.0523 6.4241 7.7423 6.4641 7.5023 6.7041L6.6423 7.5341C6.3823 7.7841 6.3823 8.1141 6.5623 8.3941L7.3323 9.6541C7.2523 9.8641 7.1523 10.1041 7.0523 10.3741L5.6123 10.7241C5.2723 10.8041 5.0823 11.0341 5.0823 11.3741V12.5641C5.0823 12.9141 5.2723 13.1641 5.6123 13.2441L7.0623 13.5741C7.1523 13.8141 7.2423 14.0541 7.3523 14.2741L6.5823 15.5241C6.3823 15.8241 6.4223 16.1641 6.6723 16.3941L7.5023 17.2341C7.7423 17.4741 8.0623 17.4941 8.3423 17.3041L9.6123 16.5341C9.8223 16.6441 10.0823 16.7441 10.3223 16.8241L10.6723 18.2741C10.7423 18.6141 10.9923 18.8241 11.3323 18.8241ZM11.9423 14.2641C10.6623 14.2641 9.6223 13.2141 9.6223 11.9441C9.6223 10.6641 10.6623 9.6241 11.9423 9.6241C13.2223 9.6241 14.2623 10.6641 14.2623 11.9441C14.2623 13.2141 13.2223 14.2641 11.9423 14.2641Z" />
        </svg>
    