
        <svg xmlns="http://www.w3.org/2000/svg" viewBox="0 0 100 100">
            <path d="M8.4223 18.5616H10.1523C10.9123 18.5616 11.5323 18.0916 11.6823 17.3716L11.9623 16.1016C12.0023 15.9716 12.0323 15.9116 12.0623 15.8916L13.3623 16.6616C13.9823 17.0316 14.7523 16.9616 15.2823 16.4316L16.4723 15.2216C17.0323 14.6716 17.1023 13.9116 16.7023 13.2916L15.8823 11.9916C15.8923 11.9616 15.8923 11.9416 15.9023 11.9916L17.3823 11.6216C18.0823 11.4516 18.5723 10.8416 18.5723 10.0816V8.4816C18.5723 7.7216 18.0923 7.1016 17.3823 6.9216L15.9023 6.5716C15.8923 6.5716 15.8923 6.5716 15.8823 6.5716L16.7023 5.2716C17.1023 4.6416 17.0323 3.8916 16.4723 3.3416L15.2823 2.1316C14.7523 1.6016 13.9823 1.5216 13.3623 1.9016L12.0023 2.7116C11.9923 2.7116 11.9623 2.6916 12.0023 2.6916L11.6823 1.1916C11.5323 0.4716 10.9123 0.0016 10.1523 0.0016H8.4223C7.6623 0.0016 7.0423 0.4716 6.8823 1.1916L6.5523 2.6916C6.5623 2.6916 6.5523 2.6916 6.5523 2.7116L5.2123 1.9016C4.5823 1.5216 3.8223 1.6016 3.2923 2.1316L2.1023 3.3416C1.5423 3.8816 1.4723 4.6516 1.8623 5.2716L2.6823 6.5716C2.6823 6.5816 2.6723 6.6116 2.6723 6.5716L1.1923 6.9216C0.4723 7.1016 0.0023 7.7216 0.0023 8.4816V10.0816C0.0023 10.8416 0.4723 11.4516 1.1923 11.6216L2.6723 11.9916C2.6723 11.9716 2.6823 11.9916 2.6823 11.9916L1.8623 13.2916C1.4623 13.9116 1.5423 14.6716 2.1023 15.2216L3.2923 16.4316C3.8223 16.9616 4.5723 17.0316 5.2023 16.6616L6.5023 15.8916C6.5423 15.8916 6.5723 15.9016 6.6123 16.1016L6.8823 17.3716C7.0423 18.0916 7.6623 18.5616 8.4223 18.5616ZM8.6623 16.7716C8.5423 16.7716 8.5423 16.7616 8.5223 16.6416L8.0023 14.5116C7.4023 14.3816 6.8623 14.1116 6.4423 13.8716L4.5823 15.0116C4.4923 15.0716 4.4623 15.0716 4.3823 14.9916L3.5023 14.1316C3.4223 14.0516 3.4323 14.0416 3.4923 13.9416L4.6123 12.0916C4.4723 11.7316 4.1323 11.1816 4.0123 10.5316L1.9023 10.0316C1.7923 10.0116 1.7823 9.9916 1.7823 9.8916V8.6716C1.7823 8.5516 1.7923 8.5416 1.9023 8.5216L4.0123 8.0116C4.1323 7.3716 4.4723 6.8216 4.6123 6.4616L3.4923 4.6216C3.4323 4.5116 3.4223 4.5116 3.5023 4.4316L4.3823 3.5616C4.4623 3.4916 4.4923 3.4916 4.5823 3.5516L6.4423 4.6716C6.8623 4.4416 7.4023 4.1716 8.0023 4.0416L8.5223 1.9116C8.5423 1.8016 8.5423 1.7916 8.6623 1.7916H9.9123C10.0223 1.7916 10.0323 1.8016 10.0523 1.9116L10.5723 4.0416C11.1723 4.1716 11.6923 4.4416 12.1123 4.6716L13.9823 3.5516C14.0823 3.4916 14.1123 3.4916 14.1823 3.5616L15.0623 4.4316C15.1423 4.5116 15.1423 4.5116 15.0823 4.6216L13.9523 6.4616C14.0823 6.8216 14.4423 7.3716 14.5523 8.0116L16.6623 8.5216C16.7823 8.5416 16.7923 8.5516 16.7923 8.6716V9.8916C16.7923 9.9916 16.7823 10.0116 16.6623 10.0316L14.5523 10.5316C14.4423 11.1816 14.0823 11.7316 13.9523 12.0916L15.0823 13.9416C15.1423 14.0416 15.1423 14.0516 15.0623 14.1316L14.1823 14.9916C14.1123 15.0716 14.0823 15.0716 13.9823 15.0116L12.1123 13.8716C11.6923 14.1116 11.1723 14.3816 10.5723 14.5116L10.0523 16.6416C10.0323 16.7616 10.0223 16.7716 9.9123 16.7716ZM9.2823 12.8116C11.2223 12.8116 12.8123 11.2116 12.8123 9.2816C12.8123 7.3316 11.2223 5.7516 9.2823 5.7516C7.3323 5.7516 5.7523 7.3316 5.7523 9.2816C5.7523 11.2116 7.3323 12.8116 9.2823 12.8116ZM9.2823 11.0016C8.3323 11.0016 7.5623 10.2316 7.5623 9.2816C7.5623 8.3216 8.3323 7.5616 9.2823 7.5616C10.2423 7.5616 11.0023 8.3216 11.0023 9.2816C11.0023 10.2316 10.2423 11.0016 9.2823 11.0016ZM23.9523 25.7816H25.3123C26.0123 25.7816 26.6023 25.3616 26.7223 24.7116L26.9423 23.5516C26.9423 23.5416 26.9423 23.5416 26.9423 23.5416L27.9623 24.1716C28.5323 24.5316 29.2223 24.4416 29.7223 23.9416L30.6723 22.9816C31.1623 22.4816 31.2523 21.7816 30.8823 21.2116L30.2323 20.2416C30.2323 20.2116 30.2423 20.2016 30.2423 20.2416L31.4023 20.0016C32.0423 19.8716 32.4623 19.2916 32.4623 18.6016V17.2716C32.4623 16.5816 32.0423 16.0116 31.4023 15.8816L30.2423 15.6316C30.2423 15.6416 30.2323 15.6316 30.2323 15.6316L30.8823 14.6616C31.2523 14.1016 31.1623 13.3916 30.6723 12.8916L29.7223 11.9316C29.2223 11.4216 28.5323 11.3416 27.9623 11.6916L26.9423 12.3416C26.9323 12.3316 26.9023 12.3316 26.9423 12.3116L26.7223 11.1516C26.6023 10.5116 26.0123 10.0916 25.3123 10.0916H23.9523C23.2523 10.0916 22.6623 10.5116 22.5423 11.1516L22.3223 12.3116C22.3223 12.3316 22.3223 12.3316 22.3223 12.3416L21.3023 11.6916C20.7323 11.3416 20.0423 11.4216 19.5423 11.9316L18.6023 12.8916C18.1023 13.3916 18.0123 14.1016 18.3823 14.6616L19.0323 15.6316C19.0323 15.6516 19.0223 15.6716 19.0223 15.6316L17.8623 15.8816C17.2223 16.0116 16.8023 16.5816 16.8023 17.2716V18.6016C16.8023 19.2916 17.2223 19.8716 17.8623 20.0016L19.0223 20.2416H19.0323L18.3823 21.2116C18.0123 21.7816 18.1023 22.4816 18.6023 22.9816L19.5423 23.9416C20.0423 24.4416 20.7323 24.5316 21.3023 24.1716L22.3223 23.5416C22.3323 23.5416 22.3623 23.5416 22.3223 23.5516L22.5423 24.7116C22.6623 25.3616 23.2523 25.7816 23.9523 25.7816ZM24.2823 24.0716C24.1523 24.0716 24.1323 24.0316 24.0923 23.9316L23.6723 22.2216C23.1823 22.1116 22.7423 21.9216 22.2823 21.6216L20.7823 22.5616C20.6923 22.6016 20.6223 22.6216 20.5423 22.5316L20.0123 21.9916C19.9323 21.9116 19.9323 21.8416 19.9823 21.7716L20.8823 20.3216C20.8123 20.0316 20.4523 19.4916 20.3423 18.8916L18.6423 18.4916C18.5423 18.4716 18.4923 18.4216 18.4923 18.3116V17.5516C18.4923 17.4516 18.5423 17.4016 18.6423 17.3916L20.3423 16.9816C20.4523 16.3816 20.8123 15.8516 20.8823 15.5616L19.9823 14.1016C19.9323 14.0316 19.9323 13.9716 20.0123 13.8716L20.5423 13.3316C20.6223 13.2516 20.6923 13.2616 20.7823 13.3116L22.2823 14.2516C22.7423 13.9416 23.1823 13.7716 23.6723 13.6616L24.0923 11.9516C24.1323 11.8316 24.1523 11.8016 24.2823 11.8016H24.9823C25.1123 11.8016 25.1523 11.8316 25.1723 11.9516L25.5923 13.6616C26.0823 13.7716 26.5223 13.9416 26.9923 14.2516L28.4923 13.3116C28.5723 13.2616 28.6423 13.2516 28.7223 13.3316L29.2523 13.8716C29.3323 13.9716 29.3323 14.0316 29.2823 14.1016L28.3823 15.5616C28.4523 15.8516 28.8123 16.3816 28.9223 16.9816L30.6223 17.3916C30.7423 17.4016 30.7723 17.4516 30.7723 17.5516V18.3116C30.7723 18.4216 30.7423 18.4716 30.6223 18.4916L28.9223 18.8916C28.8123 19.4916 28.4523 20.0316 28.3823 20.3216L29.2823 21.7716C29.3323 21.8416 29.3323 21.9116 29.2523 21.9916L28.7223 22.5316C28.6423 22.6216 28.5723 22.6016 28.4923 22.5616L26.9923 21.6216C26.5223 21.9216 26.0823 22.1116 25.5923 22.2216L25.1723 23.9316C25.1523 24.0316 25.1123 24.0716 24.9823 24.0716ZM24.6223 20.6816C26.1323 20.6816 27.3623 19.4516 27.3623 17.9416C27.3623 16.4216 26.1323 15.1916 24.6223 15.1916C23.1123 15.1916 21.8823 16.4216 21.8823 17.9416C21.8823 19.4516 23.1123 20.6816 24.6223 20.6816ZM24.6223 19.1016C23.9923 19.1016 23.4623 18.5716 23.4623 17.9416C23.4623 17.3016 23.9923 16.7716 24.6223 16.7716C25.2623 16.7716 25.7823 17.3016 25.7823 17.9416C25.7823 18.5716 25.2623 19.1016 24.6223 19.1016Z" />
        </svg>
    