
        <svg xmlns="http://www.w3.org/2000/svg" viewBox="0 0 100 100">
            <path d="M11.7523 23.5031C18.2323 23.5031 23.5123 18.2331 23.5123 11.7531C23.5123 5.2731 18.2323 0.0031 11.7523 0.0031C5.2723 0.0031 0.0023 5.2731 0.0023 11.7531C0.0023 18.2331 5.2723 23.5031 11.7523 23.5031ZM11.1123 18.7731C10.7423 18.7731 10.4923 18.5731 10.4023 18.2031L10.0623 16.7431C9.8323 16.6631 9.6023 16.5731 9.4023 16.4931L8.1223 17.2731C7.8123 17.4631 7.4923 17.4531 7.2323 17.1931L6.3323 16.2931C6.0723 16.0331 6.0323 15.6931 6.2423 15.3731L7.0323 14.1131C6.9223 13.9031 6.8423 13.6731 6.7623 13.4531L5.3123 13.1131C4.9323 13.0331 4.7423 12.7731 4.7423 12.4131V11.1331C4.7423 10.7831 4.9323 10.5231 5.3123 10.4431L6.7623 10.1031C6.8423 9.8431 6.9423 9.6231 7.0223 9.4331L6.2323 8.1531C6.0323 7.8431 6.0423 7.5131 6.3123 7.2531L7.2323 6.3531C7.4923 6.0931 7.8023 6.0631 8.1123 6.2531L9.3823 7.0531C9.6023 6.9531 9.8323 6.8631 10.0623 6.7831L10.4023 5.3331C10.4923 4.9531 10.7423 4.7431 11.1123 4.7431H12.4123C12.7623 4.7431 13.0223 4.9531 13.1023 5.3331L13.4423 6.7831C13.6923 6.8631 13.9123 6.9731 14.1123 7.0531L15.4023 6.2531C15.7123 6.0631 16.0223 6.1031 16.2823 6.3531L17.1923 7.2531C17.4623 7.5131 17.4723 7.8431 17.2723 8.1531L16.4923 9.4331C16.5723 9.6231 16.6623 9.8431 16.7423 10.1031L18.2023 10.4431C18.5723 10.5231 18.7623 10.7831 18.7623 11.1331V12.4131C18.7623 12.7731 18.5723 13.0331 18.2023 13.1131L16.7323 13.4531C16.6623 13.6731 16.5823 13.9031 16.4923 14.1131L17.2623 15.3731C17.4723 15.6931 17.4423 16.0331 17.1723 16.2931L16.2823 17.1931C16.0223 17.4331 15.6923 17.4631 15.3823 17.2731L14.1123 16.4931C13.9123 16.5731 13.6723 16.6631 13.4423 16.7431L13.1023 18.2031C13.0223 18.5731 12.7623 18.7731 12.4123 18.7731ZM11.7523 14.1631C13.0923 14.1631 14.1723 13.0731 14.1723 11.7531C14.1723 10.4131 13.0923 9.3431 11.7523 9.3431C10.4323 9.3431 9.3423 10.4131 9.3423 11.7531C9.3423 13.0731 10.4323 14.1631 11.7523 14.1631Z" />
        </svg>
    