
        <svg xmlns="http://www.w3.org/2000/svg" viewBox="0 0 100 100">
            <path d="M29.7317 -0.0002C28.5817 -0.0002 27.6317 0.9498 27.6317 2.0898V10.0298H22.6017V2.0898C22.6017 0.9498 21.6517 -0.0002 20.5217 -0.0002C19.3717 -0.0002 18.4217 0.9498 18.4217 2.0898V10.0298H13.3917V2.0898C13.3917 0.9498 12.4417 -0.0002 11.3117 -0.0002C10.1617 -0.0002 9.2117 0.9498 9.2117 2.0898V10.0298H4.1817V2.0898C4.1817 0.9498 3.2317 -0.0002 2.1017 -0.0002C0.9517 -0.0002 0.0017 0.9498 0.0017 2.0898V12.1298C0.0017 13.2698 0.9517 14.2098 2.1017 14.2098H9.2117V22.1598C9.2117 23.3098 10.1617 24.2598 11.3117 24.2598C12.4417 24.2598 13.3917 23.3098 13.3917 22.1598V14.2098H18.4217V22.1598C18.4217 23.3098 19.3717 24.2598 20.5217 24.2598C21.6517 24.2598 22.6017 23.3098 22.6017 22.1598V14.2098H27.6317V22.1598C27.6317 23.3098 28.5817 24.2598 29.7317 24.2598C30.8717 24.2598 31.8117 23.3098 31.8117 22.1598V2.0898C31.8117 0.9498 30.8717 -0.0002 29.7317 -0.0002Z" />
        </svg>
    