
        <svg xmlns="http://www.w3.org/2000/svg" viewBox="0 0 100 100">
            <path d="M8.3523 18.4244H10.0623C10.8023 18.4244 11.3823 17.9644 11.5423 17.2744L11.8723 15.7744C11.9023 15.7644 11.9523 15.7544 11.9923 15.7344L13.3123 16.5244C13.9123 16.8844 14.6523 16.8144 15.1523 16.3044L16.3523 15.1044C16.8723 14.5744 16.9423 13.8544 16.5723 13.2544L15.7623 11.9744C15.7723 11.9344 15.7923 11.8944 15.8123 11.8444L17.2723 11.4944C17.9623 11.3244 18.4223 10.7344 18.4223 10.0044V8.4144C18.4223 7.6844 17.9723 7.1044 17.2723 6.9244L15.8123 6.5744C15.7923 6.5244 15.7723 6.4944 15.7623 6.4444L16.5723 5.1644C16.9423 4.5544 16.8723 3.8444 16.3523 3.3144L15.1523 2.1244C14.6523 1.6044 13.9123 1.5344 13.3123 1.8944L11.9923 2.6844C11.9423 2.6744 11.9023 2.6644 11.8623 2.6444L11.5423 1.1444C11.3923 0.4544 10.8023 0.0044 10.0623 0.0044H8.3523C7.6123 0.0044 7.0423 0.4544 6.8823 1.1444L6.5523 2.6444C6.5023 2.6644 6.4723 2.6744 6.4223 2.6844L5.1123 1.8944C4.5123 1.5344 3.7723 1.6044 3.2723 2.1244L2.0723 3.3144C1.5423 3.8444 1.4923 4.5744 1.8523 5.1644L2.6623 6.4444C2.6523 6.4944 2.6223 6.5244 2.6123 6.5744L1.1323 6.9244C0.4423 7.1044 0.0023 7.6844 0.0023 8.4144V10.0044C0.0023 10.7344 0.4423 11.3244 1.1323 11.4944L2.6123 11.8444C2.6223 11.8944 2.6523 11.9344 2.6623 11.9744L1.8523 13.2544C1.4723 13.8544 1.5423 14.5744 2.0723 15.1044L3.2723 16.3044C3.7723 16.8144 4.5023 16.8844 5.1023 16.5244L6.4323 15.7344C6.4723 15.7544 6.5123 15.7644 6.5523 15.7744L6.8823 17.2744C7.0423 17.9644 7.6123 18.4244 8.3523 18.4244ZM8.5823 16.7844C8.4623 16.7844 8.4023 16.7244 8.3623 16.5944L7.8623 14.5044C7.3023 14.3744 6.7823 14.1244 6.3723 13.8944L4.5423 15.0144C4.4323 15.0744 4.3523 15.0744 4.2623 14.9844L3.3723 14.1044C3.2923 14.0244 3.2823 13.9444 3.3523 13.8444L4.4523 12.0244C4.3123 11.6744 4.0123 11.1444 3.8623 10.5344L1.8023 10.0444C1.6923 10.0044 1.6323 9.9444 1.6323 9.8344V8.5944C1.6323 8.4744 1.6923 8.4144 1.8023 8.3744L3.8623 7.8844C4.0123 7.2744 4.3123 6.7544 4.4523 6.3944L3.3523 4.5844C3.2823 4.4744 3.2923 4.3944 3.3723 4.3144L4.2623 3.4344C4.3523 3.3544 4.4323 3.3544 4.5423 3.4144L6.3723 4.5244C6.7823 4.3044 7.3023 4.0444 7.8623 3.9144L8.3623 1.8244C8.4023 1.6944 8.4623 1.6444 8.5823 1.6444H9.8423C9.9623 1.6444 10.0223 1.6944 10.0523 1.8244L10.5623 3.9144C11.1223 4.0444 11.6323 4.3044 12.0423 4.5244L13.8723 3.4144C13.9823 3.3544 14.0723 3.3544 14.1523 3.4344L15.0423 4.3144C15.1323 4.3944 15.1423 4.4744 15.0723 4.5844L13.9723 6.3944C14.1123 6.7544 14.4123 7.2744 14.5523 7.8844L16.6123 8.3744C16.7323 8.4144 16.7923 8.4744 16.7923 8.5944V9.8344C16.7923 9.9444 16.7323 10.0044 16.6123 10.0444L14.5523 10.5344C14.4123 11.1444 14.1123 11.6744 13.9723 12.0244L15.0723 13.8444C15.1423 13.9444 15.1323 14.0244 15.0423 14.1044L14.1523 14.9844C14.0723 15.0744 13.9823 15.0744 13.8723 15.0144L12.0423 13.8944C11.6323 14.1244 11.1223 14.3744 10.5623 14.5044L10.0523 16.5944C10.0223 16.7244 9.9623 16.7844 9.8423 16.7844ZM9.2123 12.7544C11.1523 12.7544 12.7523 11.1644 12.7523 9.2144C12.7523 7.2544 11.1523 5.6744 9.2123 5.6744C7.2523 5.6744 5.6623 7.2544 5.6623 9.2144C5.6623 11.1644 7.2523 12.7544 9.2123 12.7544ZM9.2123 11.0644C8.1823 11.0644 7.3523 10.2444 7.3523 9.2144C7.3523 8.1844 8.1823 7.3544 9.2123 7.3544C10.2323 7.3544 11.0623 8.1844 11.0623 9.2144C11.0623 10.2444 10.2323 11.0644 9.2123 11.0644ZM23.7423 25.5344H25.0923C25.7623 25.5344 26.3223 25.1444 26.4223 24.5344L26.6523 23.3544C26.7023 23.3444 26.7423 23.3344 26.7823 23.3244L27.7723 23.9444C28.3123 24.2844 28.9823 24.2144 29.4523 23.7144L30.4023 22.7744C30.8623 22.2844 30.9623 21.6244 30.6023 21.0844L29.9623 20.1244C29.9723 20.0744 29.9923 20.0544 30.0123 20.0044L31.1723 19.7544C31.7723 19.6244 32.1723 19.0944 32.1723 18.4244V17.1044C32.1723 16.4544 31.7723 15.9044 31.1723 15.7744L30.0123 15.5344C29.9923 15.4944 29.9723 15.4544 29.9623 15.4144L30.6023 14.4444C30.9623 13.9144 30.8623 13.2544 30.4023 12.7744L29.4523 11.8144C28.9823 11.3344 28.3123 11.2544 27.7723 11.5944L26.7823 12.2144C26.7423 12.1944 26.7023 12.1844 26.6523 12.1744L26.4223 11.0044C26.3223 10.3844 25.7623 9.9944 25.0923 9.9944H23.7423C23.0723 9.9944 22.5123 10.3844 22.3923 11.0044L22.1723 12.1744C22.1223 12.1844 22.0923 12.1944 22.0423 12.2144L21.0423 11.5944C20.5123 11.2544 19.8523 11.3344 19.3823 11.8144L18.4323 12.7744C17.9623 13.2544 17.8723 13.9144 18.2223 14.4444L18.8523 15.4144C18.8423 15.4544 18.8323 15.4944 18.8223 15.5344L17.6623 15.7744C17.0523 15.9044 16.6523 16.4544 16.6523 17.1044V18.4244C16.6523 19.0944 17.0523 19.6244 17.6623 19.7544L18.8223 20.0044C18.8323 20.0544 18.8423 20.0744 18.8523 20.1244L18.2223 21.0844C17.8723 21.6244 17.9623 22.2844 18.4323 22.7744L19.3823 23.7144C19.8523 24.2144 20.5123 24.2844 21.0423 23.9444L22.0423 23.3244C22.0923 23.3344 22.1223 23.3444 22.1723 23.3544L22.3923 24.5344C22.5123 25.1444 23.0723 25.5344 23.7423 25.5344ZM24.0423 23.9744C23.9023 23.9744 23.8323 23.9044 23.8023 23.7844L23.3923 22.1044C22.9223 21.9944 22.5023 21.8344 22.0523 21.5344L20.5823 22.4644C20.4823 22.5244 20.3623 22.5144 20.2723 22.4344L19.7423 21.8744C19.6423 21.7744 19.6323 21.6844 19.7023 21.5744L20.5923 20.1344C20.4923 19.8544 20.1823 19.3444 20.0623 18.7744L18.3823 18.3844C18.2723 18.3644 18.2023 18.2744 18.2023 18.1544V17.3744C18.2023 17.2644 18.2723 17.1644 18.3823 17.1444L20.0623 16.7544C20.1823 16.1844 20.4923 15.6944 20.5923 15.3944L19.7023 13.9544C19.6323 13.8644 19.6423 13.7544 19.7423 13.6544L20.2723 13.1144C20.3623 13.0244 20.4823 13.0044 20.5823 13.0744L22.0523 13.9944C22.5023 13.7144 22.9223 13.5344 23.3923 13.4344L23.8023 11.7444C23.8323 11.6244 23.9023 11.5544 24.0423 11.5544H24.7723C24.9123 11.5544 24.9823 11.6244 25.0223 11.7444L25.4323 13.4344C25.9023 13.5344 26.3223 13.7144 26.7623 13.9944L28.2423 13.0744C28.3523 13.0044 28.4523 13.0244 28.5423 13.1144L29.0823 13.6544C29.1823 13.7544 29.1923 13.8644 29.1323 13.9544L28.2323 15.3944C28.3323 15.6944 28.6423 16.1844 28.7623 16.7544L30.4323 17.1444C30.5523 17.1644 30.6223 17.2644 30.6223 17.3744V18.1544C30.6223 18.2744 30.5523 18.3644 30.4323 18.3844L28.7623 18.7744C28.6423 19.3444 28.3323 19.8544 28.2323 20.1344L29.1323 21.5744C29.1923 21.6844 29.1823 21.7744 29.0823 21.8744L28.5423 22.4344C28.4523 22.5144 28.3523 22.5244 28.2423 22.4644L26.7623 21.5344C26.3223 21.8344 25.9023 21.9944 25.4323 22.1044L25.0223 23.7844C24.9823 23.9044 24.9123 23.9744 24.7723 23.9744ZM24.4023 20.5244C25.9123 20.5244 27.1523 19.2744 27.1523 17.7644C27.1523 16.2544 25.9123 15.0244 24.4023 15.0244C22.8823 15.0244 21.6523 16.2544 21.6523 17.7644C21.6523 19.2744 22.8823 20.5244 24.4023 20.5244ZM24.4023 19.0344C23.7023 19.0344 23.1423 18.4544 23.1423 17.7644C23.1423 17.0744 23.7023 16.5144 24.4023 16.5144C25.0923 16.5144 25.6623 17.0744 25.6623 17.7644C25.6623 18.4544 25.0923 19.0344 24.4023 19.0344Z" />
        </svg>
    