
        <svg xmlns="http://www.w3.org/2000/svg" viewBox="0 0 100 100">
            <path d="M11.3523 25.0583H13.7223C14.6223 25.0583 15.3323 24.5083 15.5323 23.6383L16.0323 21.4483L16.4023 21.3183L18.3123 22.4883C19.0823 22.9583 19.9523 22.8483 20.6023 22.2083L22.2423 20.5783C22.8823 19.9383 22.9923 19.0383 22.5223 18.2883L21.3323 16.3983L21.4723 16.0383L23.6623 15.5283C24.5123 15.3283 25.0823 14.6083 25.0823 13.7183V11.3983C25.0823 10.5083 24.5323 9.8083 23.6623 9.5983L21.4923 9.0683L21.3423 8.6983L22.5323 6.7983C23.0023 6.0483 22.9123 5.1683 22.2523 4.5083L20.6123 2.8683C19.9823 2.2383 19.1023 2.1183 18.3423 2.5883L16.4323 3.7583L16.0323 3.6083L15.5323 1.4183C15.3323 0.5483 14.6223 -0.0017 13.7223 -0.0017H11.3523C10.4523 -0.0017 9.7523 0.5483 9.5523 1.4183L9.0323 3.6083L8.6323 3.7583L6.7423 2.5883C5.9723 2.1183 5.0823 2.2383 4.4523 2.8683L2.8223 4.5083C2.1723 5.1683 2.0623 6.0483 2.5423 6.7983L3.7223 8.6983L3.5823 9.0683L1.4223 9.5983C0.5523 9.8083 0.0023 10.5083 0.0023 11.3983V13.7183C0.0023 14.6083 0.5623 15.3283 1.4223 15.5283L3.6123 16.0383L3.7423 16.3983L2.5523 18.2883C2.0723 19.0383 2.1923 19.9383 2.8323 20.5783L4.4623 22.2083C5.1123 22.8483 6.0023 22.9583 6.7623 22.4883L8.6623 21.3183L9.0323 21.4483L9.5523 23.6383C9.7523 24.5083 10.4523 25.0583 11.3523 25.0583ZM11.5423 23.2283C11.3423 23.2283 11.2423 23.1483 11.2023 22.9583L10.5023 20.0483C9.7823 19.8783 9.1123 19.5983 8.6123 19.2783L6.0623 20.8483C5.9223 20.9483 5.7523 20.9383 5.6223 20.7883L4.2423 19.4083C4.1123 19.2783 4.1023 19.1383 4.1923 18.9683L5.7623 16.4383C5.4923 15.9483 5.1923 15.2783 5.0023 14.5683L2.1023 13.8783C1.9123 13.8383 1.8323 13.7383 1.8323 13.5383V11.5783C1.8323 11.3683 1.9023 11.2783 2.1023 11.2383L4.9923 10.5383C5.1823 9.7783 5.5323 9.0783 5.7423 8.6483L4.1823 6.1183C4.0823 5.9383 4.0923 5.7983 4.2223 5.6583L5.6123 4.2983C5.7523 4.1583 5.8823 4.1483 6.0623 4.2383L8.5923 5.7783C9.0923 5.4983 9.8123 5.1983 10.5123 5.0083L11.2023 2.0983C11.2423 1.9083 11.3423 1.8283 11.5423 1.8283H13.5323C13.7323 1.8283 13.8423 1.9083 13.8623 2.0983L14.5823 5.0283C15.3023 5.2183 15.9423 5.5083 16.4623 5.7883L19.0123 4.2383C19.1923 4.1483 19.3123 4.1583 19.4623 4.2983L20.8523 5.6583C20.9923 5.7983 20.9923 5.9383 20.8823 6.1183L19.3223 8.6483C19.5423 9.0783 19.8823 9.7783 20.0723 10.5383L22.9823 11.2383C23.1723 11.2783 23.2523 11.3683 23.2523 11.5783V13.5383C23.2523 13.7383 23.1523 13.8383 22.9823 13.8783L20.0623 14.5683C19.8723 15.2783 19.5823 15.9483 19.3023 16.4383L20.8723 18.9683C20.9623 19.1383 20.9623 19.2783 20.8223 19.4083L19.4523 20.7883C19.3123 20.9383 19.1623 20.9483 19.0123 20.8483L16.4523 19.2783C15.9523 19.5983 15.2923 19.8783 14.5823 20.0483L13.8623 22.9583C13.8423 23.1483 13.7323 23.2283 13.5323 23.2283ZM12.5423 16.9883C15.0123 16.9883 17.0023 14.9983 17.0023 12.5283C17.0023 10.0583 15.0123 8.0583 12.5423 8.0583C10.0623 8.0583 8.0723 10.0583 8.0723 12.5283C8.0723 14.9983 10.0623 16.9883 12.5423 16.9883ZM12.5423 15.1783C11.0723 15.1783 9.8923 13.9883 9.8923 12.5283C9.8923 11.0583 11.0723 9.8783 12.5423 9.8783C14.0023 9.8783 15.1923 11.0583 15.1923 12.5283C15.1923 13.9883 14.0023 15.1783 12.5423 15.1783Z" />
        </svg>
    