
        <svg xmlns="http://www.w3.org/2000/svg" viewBox="0 0 100 100">
            <path d="M0.0017 9.8459V3.8059C0.0017 1.2959 1.3117 -0.0041 3.8417 -0.0041H23.8817C26.4117 -0.0041 27.7217 1.2959 27.7217 3.8059V9.8459H19.0417C20.4917 9.1359 21.4817 7.8859 21.4817 6.3859C21.4817 4.5959 20.1417 3.2459 18.3417 3.2459C16.8417 3.2459 15.5017 4.1559 14.7117 5.6559V-0.0041H13.0317V5.6559C12.2317 4.1559 10.9117 3.2459 9.4017 3.2459C7.6017 3.2459 6.2717 4.5959 6.2717 6.3859C6.2717 7.8859 7.2517 9.1359 8.6917 9.8459ZM12.4717 9.6959C10.1517 9.6959 8.1817 8.0859 8.1817 6.5959C8.1817 5.7159 8.7217 5.1759 9.5617 5.1759C11.3017 5.1759 12.8117 7.1359 12.8117 9.3659V9.6959ZM15.2717 9.6959H14.9317V9.3659C14.9317 7.1359 16.4417 5.1759 18.1917 5.1759C19.0317 5.1759 19.5717 5.7159 19.5717 6.5959C19.5717 8.0859 17.5917 9.6959 15.2717 9.6959ZM27.7217 16.4759C27.7217 18.9759 26.4117 20.2759 23.8817 20.2759H14.7117V12.4059H14.8017C15.6117 14.8859 18.4417 17.0059 20.3217 17.2859C21.1217 17.4059 21.6017 16.8159 21.6017 16.2159C21.6017 15.5659 21.2117 15.1359 20.5117 15.0359C18.8717 14.8359 16.6617 12.7959 15.9617 11.3859H27.7217ZM3.8417 20.2759C1.3117 20.2759 0.0017 18.9859 0.0017 16.4759V11.3859H11.7917C11.0817 12.7959 8.8817 14.8159 7.2417 15.0359C6.5417 15.1559 6.1417 15.5659 6.1417 16.2159C6.1417 16.8159 6.6217 17.4059 7.4217 17.2859C9.3017 17.0059 12.1317 14.8859 12.9517 12.4059H13.0317V20.2759H14.7117V20.2859H13.0317V20.2759Z" />
        </svg>
    