
        <svg xmlns="http://www.w3.org/2000/svg" viewBox="0 0 100 100">
            <path d="M4.5917 21.4653H23.9917C26.8917 21.4653 28.5817 19.7653 28.5817 16.8753V4.5953C28.5817 1.6953 26.8917 -0.0047 23.9917 -0.0047H4.5917C1.7017 -0.0047 0.0017 1.6953 0.0017 4.5953V16.8753C0.0017 19.7653 1.7017 21.4653 4.5917 21.4653ZM5.2217 4.1553H13.2917V6.2953C12.6917 5.3953 11.8117 4.8253 10.7217 4.8253C9.1717 4.8253 8.0517 5.9953 8.0517 7.4253C8.0517 8.4753 8.4817 9.3753 9.2417 9.9953H4.1617V5.2353C4.1617 4.4553 4.5117 4.1553 5.2217 4.1553ZM19.3317 9.9953C20.1017 9.3753 20.5417 8.4753 20.5417 7.4253C20.5417 5.9953 19.4217 4.8253 17.8717 4.8253C16.7817 4.8253 15.8917 5.3953 15.2917 6.2953V4.1553H23.3517C24.0717 4.1553 24.4217 4.4553 24.4217 5.2353V9.9953ZM12.9417 9.9753C11.4717 9.9753 10.2417 8.8453 10.2417 7.8853C10.2417 7.3453 10.5817 7.0453 11.1017 7.0453C12.1617 7.0453 13.1117 8.3753 13.1117 9.7653V9.9753ZM15.6417 9.9753H15.4817V9.7653C15.4817 8.3753 16.4217 7.0453 17.4817 7.0453C18.0117 7.0453 18.3517 7.3453 18.3517 7.8853C18.3517 8.8453 17.1217 9.9753 15.6417 9.9753ZM23.3517 17.3053H15.2917V13.3553H15.3717C16.0617 15.1553 17.5317 16.4053 18.9917 16.6853C20.0017 16.8653 20.5517 16.1053 20.5517 15.3653C20.5517 14.6853 20.1117 14.2453 19.3017 13.9953C18.2317 13.6953 17.0417 12.7753 16.5117 11.8853H24.4217V16.2353C24.4217 17.0153 24.0717 17.3053 23.3517 17.3053ZM5.2217 17.3053C4.5117 17.3053 4.1617 17.0153 4.1617 16.2353V11.8853H12.0717C11.5417 12.7753 10.3517 13.6953 9.2917 13.9953C8.4817 14.2453 8.0417 14.6853 8.0417 15.3653C8.0417 16.1053 8.5817 16.8653 9.6017 16.6853C11.0517 16.4053 12.5117 15.1553 13.2217 13.3553H13.2917V17.3053Z" />
        </svg>
    