
        <svg xmlns="http://www.w3.org/2000/svg" viewBox="0 0 100 100">
            <path d="M0.0017 9.8453V4.5953C0.0017 1.6953 1.7017 -0.0047 4.5917 -0.0047H23.9917C26.8917 -0.0047 28.5817 1.6953 28.5817 4.5953V9.8453H20.1517C21.0317 9.1253 21.5517 8.0753 21.5517 6.8753C21.5517 5.2153 20.2417 3.8553 18.4417 3.8553C17.1817 3.8553 16.1517 4.4953 15.4717 5.5553V0.0153H13.1217V5.5553C12.4317 4.4953 11.4117 3.8553 10.1517 3.8553C8.3517 3.8553 7.0417 5.2153 7.0417 6.8753C7.0417 8.0753 7.5617 9.1253 8.4417 9.8453ZM12.7217 9.8353C11.0117 9.8353 9.5817 8.5353 9.5817 7.4053C9.5817 6.7953 9.9817 6.4353 10.5917 6.4353C11.8217 6.4353 12.9117 7.9853 12.9117 9.5853V9.8353ZM15.8717 9.8353H15.6817V9.5853C15.6817 7.9853 16.7617 6.4353 18.0017 6.4353C18.6117 6.4353 19.0117 6.7953 19.0117 7.4053C19.0117 8.5353 17.5617 9.8353 15.8717 9.8353ZM28.5817 16.8753C28.5817 19.7653 26.8917 21.4653 23.9917 21.4653H15.4717V13.7553H15.5417C16.3717 15.8653 18.0617 17.3053 19.7417 17.6353C20.9317 17.8353 21.5617 16.9453 21.5617 16.1053C21.5617 15.2953 21.0517 14.7853 20.1017 14.4953C18.8817 14.1453 17.4817 13.0753 16.8717 12.0553L28.5817 12.0653ZM4.5917 21.4653C1.7017 21.4653 0.0017 19.7653 0.0017 16.8753V12.0653L11.7217 12.0553C11.1117 13.0753 9.7117 14.1453 8.4917 14.4953C7.5517 14.7853 7.0317 15.2953 7.0317 16.1053C7.0317 16.9453 7.6617 17.8353 8.8317 17.6353C10.5317 17.3053 12.2217 15.8653 13.0417 13.7553H13.1217V21.4653H15.4717V21.4853H13.1217V21.4653Z" />
        </svg>
    