
        <svg xmlns="http://www.w3.org/2000/svg" viewBox="0 0 100 100">
            <path d="M4.4717 22.7113H17.0717C18.6217 22.7113 19.5717 21.7613 19.5717 20.2113V11.4213H19.9817C20.9517 11.4213 21.5517 10.7713 21.5517 9.8013V7.3913C21.5517 6.4213 20.9517 5.7813 19.9917 5.7813H15.9217C16.8717 5.1913 17.4217 4.2212 17.4217 2.9913C17.4217 1.1812 16.1517 0.0012 14.2417 0.0012C12.5317 0.0012 11.2517 1.0413 10.7817 2.7112C10.3017 1.0413 9.0217 0.0012 7.3117 0.0012C5.4017 0.0012 4.1217 1.1812 4.1217 2.9913C4.1217 4.2212 4.6717 5.1913 5.6217 5.7813H1.5617C0.6017 5.7813 0.0017 6.4213 0.0017 7.3913V9.8013C0.0017 10.7713 0.6017 11.4213 1.5717 11.4213H1.9817V20.2113C1.9817 21.7613 2.9317 22.7113 4.4717 22.7113ZM10.1217 5.7813H8.9017C6.7517 5.7813 5.3117 4.6512 5.3117 2.9513C5.3117 1.8612 6.1017 1.1513 7.3017 1.1513C9.0017 1.1513 10.1217 2.5313 10.1217 4.6213ZM11.4217 5.7813V4.6213C11.4217 2.5313 12.5517 1.1513 14.2517 1.1513C15.4417 1.1513 16.2417 1.8612 16.2417 2.9513C16.2417 4.6512 14.8017 5.7813 12.6417 5.7813ZM10.0317 10.8413H1.5517C0.9417 10.8413 0.5717 10.4213 0.5717 9.8113V7.3813C0.5717 6.7713 0.9417 6.3513 1.5517 6.3513H10.0317ZM11.5217 10.8413V6.3513H20.0017C20.6117 6.3513 20.9717 6.7713 20.9717 7.3813V9.8113C20.9717 10.4213 20.6117 10.8413 20.0017 10.8413ZM10.0317 22.1713H4.5117C3.2417 22.1713 2.5517 21.4813 2.5517 20.2113V11.4113H10.0317ZM11.5217 22.1713V11.4113H18.9917V20.2113C18.9917 21.4813 18.3017 22.1713 17.0417 22.1713Z" />
        </svg>
    