
        <svg xmlns="http://www.w3.org/2000/svg" viewBox="0 0 100 100">
            <path d="M14.2217 5.9344V0.0044H23.7817C26.0617 0.0044 27.2217 1.1744 27.2217 3.4344V9.5844H18.0517C19.7217 8.9044 21.0017 7.5544 21.0017 5.9544C21.0017 4.2144 19.7917 3.0244 18.1317 3.0244C16.5217 3.0244 15.0117 4.1844 14.2217 5.9344ZM12.4717 9.4644C9.9017 9.4644 7.6017 7.7244 7.6017 6.0444C7.6017 5.0344 8.2217 4.4044 9.1617 4.4044C11.0717 4.4044 12.8217 6.6244 12.8217 9.1244V9.4644ZM14.7817 9.4644H14.4117V9.1244C14.4117 6.6244 16.1717 4.4044 18.0717 4.4044C19.0117 4.4044 19.6317 5.0344 19.6317 6.0444C19.6317 7.7244 17.3417 9.4644 14.7817 9.4644ZM0.0017 9.5844V3.4344C0.0017 1.1644 1.1717 0.0044 3.4617 0.0044H13.0117V5.9344C12.2217 4.1844 10.7117 3.0244 9.1017 3.0244C7.4417 3.0244 6.2317 4.2144 6.2317 5.9544C6.2317 7.5544 7.5117 8.9044 9.1917 9.5844ZM20.3317 15.1144C18.6917 14.9144 16.0917 12.6044 15.1517 10.7144H27.2217V16.1644C27.2217 18.4144 26.0617 19.5844 23.7817 19.5844H14.2217V11.4744H14.3017C15.4217 14.3244 18.4617 16.4344 20.2517 16.7244C20.8117 16.8044 21.1517 16.3944 21.1517 15.9744C21.1517 15.4944 20.8817 15.1744 20.3317 15.1144ZM3.4617 19.5844C1.1717 19.5844 0.0017 18.4244 0.0017 16.1644V10.7144H12.0917C11.1417 12.6044 8.5517 14.8944 6.9017 15.1144C6.3517 15.1844 6.0817 15.4944 6.0817 15.9744C6.0817 16.3944 6.4217 16.8044 6.9817 16.7244C8.7817 16.4344 11.8117 14.3244 12.9517 11.4744H13.0117V19.5844Z" />
        </svg>
    