
        <svg xmlns="http://www.w3.org/2000/svg" viewBox="0 0 100 100">
            <path d="M8.1523 26.8745H16.7123C17.3123 26.8745 17.8023 26.3845 17.8023 25.8045C17.8023 25.2045 17.3123 24.7245 16.7123 24.7245H13.5023V22.8745C16.1523 22.6645 18.5323 21.6245 20.4223 20.0345L21.3723 20.9845C21.7923 21.4045 22.4923 21.4045 22.9123 20.9845C23.3223 20.5645 23.3223 19.8745 22.9123 19.4645L19.2623 15.8145C20.4123 14.3545 21.0923 12.4945 21.0923 10.4945C21.0923 5.7145 17.2123 1.8245 12.4223 1.8245C10.4223 1.8245 8.5823 2.5145 7.1023 3.6545L3.7623 0.3145C3.3423 -0.0955 2.6623 -0.1055 2.2423 0.3145C1.8123 0.7345 1.8123 1.4245 2.2423 1.8445L2.8823 2.4945C1.0823 4.6345 0.0023 7.4245 0.0023 10.4945C0.0023 17.0545 4.9323 22.3445 11.3423 22.8745V24.7245H8.1523C7.5623 24.7245 7.0623 25.2045 7.0623 25.8045C7.0623 26.3845 7.5623 26.8745 8.1523 26.8745ZM12.4223 19.1645C14.4223 19.1645 16.2823 18.4845 17.7423 17.3545L18.9023 18.4945C17.1423 19.9245 14.9023 20.7645 12.4223 20.7645C6.6723 20.7645 2.1723 16.2445 2.1723 10.4945C2.1723 8.0145 3.0023 5.7845 4.4223 4.0245L5.5823 5.1845C4.4323 6.6545 3.7523 8.4945 3.7523 10.4945C3.7523 15.2845 7.6323 19.1645 12.4223 19.1645Z" />
        </svg>
    