
        <svg xmlns="http://www.w3.org/2000/svg" viewBox="0 0 100 100">
            <path d="M11.7523 23.5048C18.2423 23.5048 23.5123 18.2448 23.5123 11.7548C23.5123 5.2648 18.2423 0.0048 11.7523 0.0048C5.2623 0.0048 0.0023 5.2648 0.0023 11.7548C0.0023 18.2448 5.2623 23.5048 11.7523 23.5048ZM11.4923 19.4648C11.4923 19.3248 11.5323 19.2048 11.6723 18.7948C11.7923 18.4248 11.9623 17.9248 11.9523 17.3748C11.9323 16.6848 11.4023 16.1848 9.9923 15.1848C9.7423 15.0148 9.4823 14.8248 9.2223 14.6348C8.8223 14.3348 8.6623 14.0648 8.6623 13.7448C8.6623 13.5848 8.6923 13.4048 8.8123 13.0348C8.9323 12.6548 8.9923 12.3748 8.9923 12.1848C8.9923 11.7048 8.7523 11.3748 8.1823 10.8948C8.1123 10.8348 8.0523 10.7848 7.9723 10.7248L6.0923 9.0448C3.8423 7.0448 3.6823 5.6748 4.6023 4.0648C6.4823 2.3248 8.9923 1.2548 11.7523 1.2548C13.7023 1.2548 15.5123 1.7848 17.0723 2.6948C16.4623 4.2048 13.7923 5.4748 12.4323 6.1848C12.2123 6.2948 12.1123 6.5248 12.3023 6.7848C12.8123 7.4748 13.0123 7.7648 13.0123 8.0648C13.0123 8.3048 12.8223 8.4948 12.5723 8.4948C12.1423 8.4948 10.8723 7.4048 10.2423 7.4048C9.5023 7.4048 8.6623 8.1948 8.6623 8.8848C8.6623 9.8948 10.7723 11.6448 11.8223 11.6448C12.4923 11.6448 13.6423 10.8048 14.0323 10.8048C14.8623 10.8048 17.1023 12.6748 17.1023 13.3748C17.1023 14.8148 13.3023 20.0348 12.2223 20.0348C11.9023 20.0348 11.4923 19.7448 11.4923 19.4648ZM11.7523 22.2548C5.9523 22.2548 1.2523 17.5548 1.2523 11.7548C1.2523 9.5348 1.9323 7.5048 3.1023 5.8048C3.1123 6.9948 3.7723 8.3248 5.4523 9.7848L7.3123 11.4348C7.7423 11.8248 8.0023 12.0048 8.0023 12.2148C8.0023 12.5048 7.6723 13.0548 7.6723 13.7448C7.6723 14.3948 7.9923 14.9448 8.6323 15.4248C10.1123 16.5348 10.9723 17.0348 10.9723 17.4048C10.9823 18.1448 10.5123 18.7348 10.5123 19.5148C10.5123 20.2548 11.4423 21.0248 12.2423 21.0248C13.8623 21.0248 18.0823 15.4648 18.0823 13.3748C18.0823 12.1248 15.4323 9.8348 14.0323 9.8348C13.3923 9.8348 12.4423 10.6648 11.8223 10.6648C11.2423 10.6648 9.6423 9.3948 9.6423 8.8848C9.6423 8.6448 9.9723 8.3948 10.2423 8.3948C10.6423 8.3948 11.7923 9.4848 12.4723 9.4848C13.4023 9.4848 13.9923 8.8748 13.9923 7.9148C13.9923 7.5548 13.8523 7.2348 13.5123 6.7548C14.7623 6.1048 17.1523 4.8348 17.9023 3.2448C20.5423 5.1548 22.2523 8.2548 22.2523 11.7548C22.2523 17.5548 17.5523 22.2548 11.7523 22.2548Z" />
        </svg>
    