
        <svg xmlns="http://www.w3.org/2000/svg" viewBox="0 0 100 100">
            <path d="M11.7523 23.5048C18.2423 23.5048 23.5123 18.2448 23.5123 11.7548C23.5123 5.2648 18.2423 0.0048 11.7523 0.0048C5.2623 0.0048 0.0023 5.2648 0.0023 11.7548C0.0023 18.2448 5.2623 23.5048 11.7523 23.5048ZM11.4023 14.2248C11.1723 12.6548 10.2923 12.9848 9.7823 11.6848L9.2123 10.1848C8.9523 9.5148 8.5123 9.2348 7.9923 9.2348C7.4923 9.2348 7.0523 9.6448 6.8623 9.6448C6.7023 9.6448 6.0823 9.1148 5.7423 8.8148C5.1823 8.3048 4.7323 7.9648 4.2423 7.9648C3.4723 7.9648 2.7623 8.7648 2.7623 9.4648C2.7623 10.6848 5.2223 11.6048 5.2223 12.4148C5.2223 13.3448 4.0923 13.2648 4.0923 14.9448C4.0923 16.2148 3.4423 16.3848 2.4123 16.5448C1.6723 15.1148 1.2523 13.4748 1.2523 11.7548C1.2523 9.5248 1.9423 7.4648 3.1323 5.7748C3.4323 6.3648 3.9623 6.7648 4.5923 6.7648C5.2823 6.7648 5.8523 6.3248 6.0223 5.6648C6.1123 5.3048 6.2223 5.1748 6.4723 5.0148C6.9123 4.7448 7.1523 4.4648 7.1523 3.9248C7.1523 3.5548 6.9223 3.1248 6.5323 2.6448C8.0623 1.7548 9.8523 1.2548 11.7523 1.2548C17.5523 1.2548 22.2523 5.9548 22.2523 11.7548C22.2523 12.8548 22.0823 13.9248 21.7623 14.9248C18.7023 14.6148 19.3123 11.4248 17.2423 11.4248C15.8823 11.4248 13.5423 13.6948 13.5423 15.8748C13.5423 17.3948 13.3723 18.0248 12.8123 18.0248C12.1423 18.0248 11.7923 16.7848 11.4023 14.2248ZM6.1623 3.9048C6.1623 4.3948 5.4223 4.2748 5.2523 5.1648C5.1823 5.5748 4.8823 5.7748 4.5923 5.7748C4.2923 5.7748 3.8523 5.4448 3.7923 4.9148C4.3623 4.2548 5.0023 3.6648 5.7023 3.1648C6.0223 3.5048 6.1623 3.6548 6.1623 3.9048ZM11.7523 22.2548C8.0623 22.2548 4.8023 20.3448 2.9423 17.4648C4.4223 17.1448 5.0723 16.3948 5.0723 15.0148C5.0723 13.7148 6.2123 13.5948 6.2123 12.3148C6.2123 11.7448 5.7823 11.3348 4.7123 10.4748L3.9623 9.8648C3.8323 9.7648 3.7623 9.6248 3.7523 9.4848C3.7523 9.2148 3.9723 8.9648 4.2523 8.9648C4.4623 8.9648 4.6123 9.1248 5.1423 9.5848C5.9923 10.2848 6.3823 10.6548 6.8923 10.6548C7.4223 10.6548 7.5923 10.2848 7.9223 10.2848C8.1423 10.2848 8.2923 10.4448 8.4023 10.7548L8.8223 11.9448C9.3123 13.3348 10.2823 13.3748 10.4523 14.3748C10.9423 17.7648 11.5423 19.0048 12.8123 19.0048C14.0523 19.0048 14.5323 17.8848 14.5323 15.8748C14.5323 14.1548 16.4023 12.4148 17.2423 12.4148C18.1523 12.4148 18.4023 15.3848 21.4123 15.8648C19.8123 19.6148 16.0923 22.2548 11.7523 22.2548Z" />
        </svg>
    