
        <svg xmlns="http://www.w3.org/2000/svg" viewBox="0 0 100 100">
            <path d="M11.9523 23.9041C18.5523 23.9041 23.9023 18.5541 23.9023 11.9541C23.9023 5.3541 18.5523 0.0041 11.9523 0.0041C5.3523 0.0041 0.0023 5.3541 0.0023 11.9541C0.0023 18.5541 5.3523 23.9041 11.9523 23.9041ZM11.9523 22.3141C6.2323 22.3141 1.5923 17.6741 1.5923 11.9541C1.5923 9.6641 2.3323 7.5541 3.5823 5.8441C3.4923 7.0541 4.4323 8.3941 6.0423 9.7841L7.7623 11.2741C8.2923 11.7541 8.6123 11.9741 8.6123 12.2841C8.6123 12.7841 8.0523 13.1341 8.0523 13.7841C8.0523 14.3641 8.3323 14.8741 8.9423 15.3141C10.8423 16.7441 11.2923 16.9441 11.2923 17.3741C11.3123 18.1541 10.8523 18.7341 10.8523 19.4541C10.8523 20.0941 11.6823 20.8141 12.4223 20.8141C13.9223 20.8141 18.0223 15.4241 18.0223 13.4041C18.0223 12.2741 15.4923 10.0541 14.1723 10.0541C13.5923 10.0541 12.6723 10.8741 12.0023 10.8741C11.3323 10.8741 9.8323 9.5641 9.8323 8.9841C9.8323 8.6641 10.1123 8.4741 10.4423 8.4741C11.0123 8.4741 11.9223 9.4341 12.8323 9.4341C13.5923 9.4341 14.0023 8.9041 14.0023 8.1441C14.0023 7.7441 13.7823 7.3441 13.4523 6.8341C14.6523 6.2441 17.0123 5.0041 17.8323 3.4241C20.5423 5.2941 22.3123 8.4141 22.3123 11.9541C22.3123 17.6741 17.6723 22.3141 11.9523 22.3141Z" />
        </svg>
    