
        <svg xmlns="http://www.w3.org/2000/svg" viewBox="0 0 100 100">
            <path d="M11.3523 22.7064C17.6323 22.7064 22.7123 17.6264 22.7123 11.3564C22.7123 5.0764 17.6323 -0.0036 11.3523 -0.0036C5.0823 -0.0036 0.0023 5.0764 0.0023 11.3564C0.0023 17.6264 5.0823 22.7064 11.3523 22.7064ZM10.9423 15.5264C10.9423 13.9964 9.7123 12.8164 8.0723 12.8164C6.5123 12.8164 5.7023 12.0364 5.7023 10.5364C5.7023 8.7064 7.5323 7.0464 9.7623 7.0464C10.9223 7.0464 11.8723 7.8264 12.9223 7.8264C13.6023 7.8264 13.9923 7.0464 13.9923 6.0664C13.9923 5.0764 12.0623 4.0564 11.3423 4.0564C10.9423 4.0564 10.8123 4.2464 10.4723 4.7664L10.2323 4.6264C9.8123 4.3864 9.3323 4.1764 8.9723 4.1764C7.8023 4.1764 7.7623 5.5564 7.0123 5.5564C6.7423 5.5564 6.5823 5.4164 6.5823 5.1764C6.5823 4.4164 7.9123 3.4364 7.9123 1.6064V1.1364C8.9923 0.7764 10.1523 0.5764 11.3523 0.5764C17.3223 0.5764 22.1323 5.3864 22.1323 11.3564C22.1323 11.7764 22.1123 12.1964 22.0623 12.6064C20.9223 11.5864 21.2023 8.4764 20.0823 8.4764C19.5723 8.4764 19.4723 8.9364 19.0523 8.9364C18.7823 8.9364 18.3723 8.5764 17.7423 8.0364C17.3923 7.7664 17.1223 7.4864 16.6023 7.4864C16.0223 7.4864 15.3823 8.2064 15.3823 8.8664C15.3823 10.2164 17.7223 10.4064 17.7223 11.2664C17.7223 11.6164 17.5623 11.8964 17.1023 12.4364C16.6123 12.9764 16.4723 13.2464 16.4723 13.5964C16.4723 13.7764 16.4923 13.9564 16.5023 14.1364C16.5823 15.0864 16.5023 15.4064 16.1623 15.9264C15.5423 16.9064 14.0123 19.4764 12.4423 19.4764C10.7923 19.4764 10.9423 17.2764 10.9423 15.5264ZM11.3523 22.1364C5.4023 22.1364 0.5723 17.3064 0.5723 11.3564C0.5723 6.8164 3.3623 2.9564 7.3223 1.3564V1.6064C7.3223 3.4364 6.0023 4.2764 6.0023 5.1664C6.0023 5.7864 6.3723 6.1364 7.0223 6.1364C8.1823 6.1364 7.9923 4.7364 9.0023 4.7364C9.6723 4.7564 10.1023 5.3664 10.5823 5.3664C11.0023 5.3664 11.1223 5.2264 11.4623 4.6764C12.0923 4.9464 13.4023 5.5764 13.4023 6.1964C13.4023 6.6864 13.2323 7.2464 12.7723 7.2464C12.2023 7.2464 10.8823 6.4464 9.7623 6.4464C7.2223 6.4464 5.1223 8.4164 5.1223 10.5364C5.1223 12.3664 6.2023 13.4164 8.0723 13.4164C9.3823 13.4164 10.3623 14.3064 10.3623 15.5264C10.3623 17.2764 10.1723 20.0764 12.4423 20.0764C14.4923 20.0764 16.2923 16.8164 16.7823 16.0164C17.3223 15.1164 17.0623 14.2164 17.0623 13.5964C17.0623 12.9564 18.3023 12.3764 18.3023 11.2664C18.3023 10.1064 15.8923 9.6864 15.8923 8.8564C15.8923 8.4364 16.2423 7.9364 16.6623 7.9364C17.2723 7.9364 18.4023 9.5764 19.1623 9.5764C19.6023 9.5764 19.5123 9.1664 19.9523 9.1664C20.2523 9.1664 20.7423 12.2664 21.9723 13.2064C21.0923 18.2764 16.6723 22.1364 11.3523 22.1364ZM15.2323 4.2764C15.4523 4.2764 15.6723 4.4964 16.0523 4.4964C16.2923 4.4964 16.4723 4.2764 16.4723 3.9964C16.4723 3.4964 15.9023 3.1064 15.1623 3.1064C14.2623 3.1064 13.7623 3.3864 13.7623 3.9064C13.7623 4.2264 14.0123 4.4764 14.3423 4.4764C14.6823 4.4764 14.8523 4.2764 15.2323 4.2764Z" />
        </svg>
    