
        <svg xmlns="http://www.w3.org/2000/svg" viewBox="0 0 100 100">
            <path d="M11.4923 22.977C17.8323 22.977 22.9823 17.847 22.9823 11.497C22.9823 5.147 17.8323 -0.003 11.4923 -0.003C5.1423 -0.003 0.0023 5.147 0.0023 11.497C0.0023 17.847 5.1423 22.977 11.4923 22.977ZM11.4923 22.167C5.5923 22.167 0.8123 17.407 0.8123 11.497C0.8123 6.957 3.6223 3.097 7.6023 1.537C7.3923 1.817 7.2923 2.157 7.2923 2.547C7.2923 4.207 5.9723 4.577 5.9723 5.487C5.9723 5.987 6.3123 6.327 6.8223 6.327C8.1323 6.327 8.0623 4.907 9.0023 4.907C9.6323 4.917 10.0823 5.577 10.6423 5.577C10.9823 5.577 11.1323 5.407 11.2023 5.207C11.3223 4.977 11.3523 4.847 11.5523 4.847C12.3423 4.847 13.3723 5.747 13.3723 6.337C13.3723 6.827 13.1923 7.347 12.7723 7.347C12.2123 7.347 10.9023 6.587 9.7623 6.587C7.2023 6.587 5.0723 8.527 5.0723 10.677C5.0723 12.527 6.1723 13.597 8.0723 13.597C9.3623 13.597 10.3123 14.477 10.3123 15.667C10.3123 17.417 10.1323 20.247 12.4423 20.247C14.5223 20.247 16.3223 16.967 16.8123 16.187C17.3623 15.267 17.1123 14.347 17.1123 13.737C17.1123 13.147 18.3423 12.497 18.3423 11.407C18.3423 10.267 15.9423 9.757 15.9423 8.987C15.9423 8.577 16.2623 8.117 16.6623 8.117C17.2623 8.117 18.4123 9.747 19.1623 9.747C19.6123 9.747 19.5423 9.347 19.8323 9.347C20.4723 9.347 20.7023 12.307 22.0223 13.327C21.1523 18.347 16.7723 22.167 11.4923 22.167ZM15.2723 4.417C14.8823 4.417 14.7023 4.617 14.3523 4.617C14.0323 4.617 13.7723 4.387 13.7723 4.047C13.7723 3.507 14.2823 3.227 15.2023 3.227C15.9623 3.227 16.5323 3.617 16.5323 4.137C16.5323 4.417 16.3623 4.657 16.1123 4.657C15.7123 4.657 15.5023 4.417 15.2723 4.417Z" />
        </svg>
    