
        <svg xmlns="http://www.w3.org/2000/svg" viewBox="0 0 100 100">
            <path d="M12.7923 25.5978C19.8723 25.5978 25.6023 19.8678 25.6023 12.7978C25.6023 5.7278 19.8723 -0.0022 12.7923 -0.0022C5.7323 -0.0022 0.0023 5.7278 0.0023 12.7978C0.0023 19.8678 5.7323 25.5978 12.7923 25.5978ZM8.4023 14.5478C7.5623 13.4678 6.8623 12.9678 6.1523 12.9678C5.2923 12.9678 4.5923 13.5378 4.0523 14.5178L3.5423 15.4378C3.3023 14.5978 3.1723 13.7078 3.1723 12.7978C3.1723 7.4878 7.4923 3.1678 12.7923 3.1678C13.9023 3.1678 14.9623 3.3478 15.9523 3.6878C15.7223 3.9278 15.6023 4.1978 15.6023 4.4678C15.6023 5.4178 17.2723 6.0678 17.2723 6.4578C17.2723 6.8978 16.3923 7.3378 15.7223 7.7378C14.4123 8.5078 14.5223 8.9878 14.4223 9.1078C14.2023 9.3978 13.7823 8.5078 12.7823 8.5078C12.0923 8.5078 11.5923 8.9878 11.5923 9.6078C11.5923 10.5478 12.6123 11.4278 12.6123 11.9878C12.6123 12.6578 11.7623 13.1278 10.5123 13.1278C9.6723 13.1278 9.1723 13.5378 9.1723 14.2378C9.1723 14.9078 9.8823 15.5078 9.8823 15.7778C9.8823 15.8778 9.8423 15.9378 9.8123 15.9378C9.6223 15.9378 9.0423 15.3878 8.4023 14.5478ZM12.7923 22.4278C9.0923 22.4278 5.8723 20.3178 4.2623 17.2378L5.2223 15.4178C5.5423 14.8378 5.8223 14.5478 6.0723 14.5478C6.3123 14.5478 6.6123 14.7978 7.1523 15.5178C8.3523 17.0578 9.0323 17.6278 9.7723 17.6278C10.5823 17.6278 11.5123 16.5478 11.5123 15.6278C11.5123 15.2978 11.0523 14.8578 10.9123 14.6478C10.8723 14.5878 10.9223 14.5478 10.9823 14.5478C12.5323 14.5478 14.1823 13.2378 14.1823 11.9878C14.1823 10.8678 13.0523 10.0478 13.0523 9.8878C13.0523 9.8478 13.0823 9.8178 13.1123 9.8178C13.1923 9.8178 13.2423 9.8878 13.4523 10.0678C14.8723 11.2578 15.5123 10.4678 15.6823 9.8778C15.7523 9.5878 15.9123 9.4078 16.3523 9.1778C17.8223 8.3678 18.8223 7.3078 18.8223 6.4578C18.8223 5.2178 17.3323 4.7578 17.3323 4.5478C17.3323 4.4878 17.3923 4.4378 17.5123 4.3978C20.4423 6.0478 22.4323 9.1878 22.4323 12.7978C22.4323 13.7578 22.2923 14.6978 22.0223 15.5778C21.6423 15.0378 21.1123 14.7278 20.4823 14.7278C20.1423 14.7278 19.8123 14.7778 19.5423 14.8778C19.3823 14.9278 19.2523 14.9178 19.0923 14.7078C18.5823 14.1578 18.1323 13.9378 17.4423 13.9378C16.2023 13.9378 15.4223 14.6178 14.8823 16.2078C14.7823 16.5578 14.6623 16.6378 13.9423 16.9178L13.4723 17.0978C12.4823 17.4878 12.2123 18.2178 12.5323 19.6478C12.8223 20.9178 13.4723 21.5978 14.4023 21.5978C15.1623 21.5978 15.5823 21.3378 16.0123 21.3378C16.3023 21.3378 16.5123 21.4178 16.7123 21.5978C15.5123 22.1278 14.1923 22.4278 12.7923 22.4278ZM15.5023 12.2078C16.2323 12.2078 16.5623 11.5678 17.3623 11.3278C17.9023 11.1678 18.2023 10.6178 18.2023 10.1378C18.2023 9.7578 18.0123 9.4378 17.5923 9.4378C17.1523 9.4378 16.7423 9.7878 16.4723 10.3478C16.3523 10.6678 16.0923 10.8278 15.5023 10.9878C15.0323 11.1278 14.8723 11.3078 14.8723 11.6578C14.8723 12.0478 15.1523 12.2078 15.5023 12.2078ZM12.1123 17.2478C12.7623 17.2478 13.3823 16.5078 13.3823 15.8578C13.3823 15.0378 13.0323 14.6578 12.6523 14.6578C12.2323 14.6578 11.9623 15.1678 11.9623 15.9178C11.9623 16.3578 11.5823 16.3778 11.5823 16.8178C11.5823 17.0878 11.7923 17.2478 12.1123 17.2478ZM16.0123 19.7578C15.0323 19.7578 15.0023 20.0178 14.4923 20.0178C14.3223 20.0178 14.2123 19.8678 14.0723 19.3078C13.9223 18.7478 13.9423 18.5378 14.1323 18.4878C14.4923 18.3878 15.9123 18.1778 16.4023 16.6678C16.6923 15.7978 16.9223 15.5078 17.3223 15.5078C18.0323 15.5078 18.3423 16.5078 19.2323 16.5078C19.8023 16.5078 20.0623 16.2778 20.3523 16.2778C20.7223 16.2778 20.9623 16.7778 21.0223 17.8078C20.2823 19.0078 19.2923 20.0378 18.1323 20.8078C17.6623 20.2778 17.0323 19.7578 16.0123 19.7578ZM10.3023 19.4378C10.7823 19.4378 11.1023 19.1978 11.1023 18.7778C11.1023 18.4678 10.8523 18.2578 10.5123 18.2578C9.1723 18.2578 9.1123 17.5078 8.4623 17.5078C8.1123 17.5078 7.8523 17.7178 7.8523 18.0278C7.8523 18.2678 8.1123 18.4678 8.4423 18.4678C9.1623 18.4678 8.8123 19.4378 10.3023 19.4378Z" />
        </svg>
    