
        <svg xmlns="http://www.w3.org/2000/svg" viewBox="0 0 100 100">
            <path d="M12.6023 25.1986C19.5623 25.1986 25.2023 19.5586 25.2023 12.5986C25.2023 5.6386 19.5623 -0.0014 12.6023 -0.0014C5.6323 -0.0014 0.0023 5.6386 0.0023 12.5986C0.0023 19.5586 5.6323 25.1986 12.6023 25.1986ZM12.0023 16.4486C12.0023 14.7086 10.6023 13.3986 8.7623 13.3986C7.5723 13.3986 7.0323 12.8586 7.0323 11.7186C7.0323 10.2186 8.6123 9.2086 10.3723 9.2086C11.5223 9.2086 12.4423 9.6686 13.3623 9.6686C14.1423 9.6686 14.8323 8.5386 14.8323 7.5186C14.8323 6.3786 12.4523 5.1286 11.7523 5.1286C11.2223 5.1286 10.9223 5.3886 10.8323 5.8986C10.4923 5.6286 10.1223 5.4386 9.7223 5.4386C8.8823 5.4386 8.2223 6.8186 7.8823 6.8186C7.7923 6.8186 7.7423 6.7586 7.7423 6.6786C7.7423 6.3486 9.0423 5.2886 9.0623 3.9486L9.0723 3.4586C10.1623 3.0186 11.3523 2.7886 12.6023 2.7886C18.0123 2.7886 22.4023 7.1786 22.4023 12.5986C22.4023 12.8486 22.3923 13.0786 22.3723 13.3286C21.4723 12.5586 21.7823 9.2586 20.1523 9.2586C19.6123 9.2586 19.2423 9.7186 19.1823 9.7186C19.1623 9.7186 18.4723 9.1486 18.2623 8.9886C17.9423 8.7286 17.5523 8.3286 16.8523 8.3286C16.0123 8.3286 15.2023 9.2386 15.2023 10.1586C15.2023 11.4186 17.4023 12.2386 17.4023 12.4186C17.4023 12.6086 17.3223 12.7486 16.9523 13.1786C16.4323 13.7686 16.2323 14.1586 16.2323 14.6286C16.2323 14.8286 16.2423 15.0086 16.2523 15.1786C16.3223 15.8586 16.2923 16.0886 16.1123 16.3986C15.6223 17.1486 14.2123 19.6986 12.9123 19.6986C11.8923 19.6986 12.0023 18.1286 12.0023 16.4486ZM12.6023 22.3986C7.1923 22.3986 2.8023 17.9986 2.8023 12.5986C2.8023 9.0086 4.7223 5.8786 7.5923 4.1686C7.5223 5.2386 6.4223 5.7086 6.4223 6.8686C6.4223 7.5186 6.8923 7.9586 7.6023 7.9586C8.7623 7.9586 9.3123 6.6686 9.7723 6.6686C10.0323 6.6786 10.4523 7.3286 11.3223 7.3286C11.6923 7.3286 11.9923 7.0986 12.1323 6.6886C12.8523 7.0086 13.3623 7.3486 13.3623 7.6086C13.3623 7.8086 13.2923 8.1086 13.0923 8.1086C12.7823 8.1086 11.5223 7.6686 10.3723 7.6686C7.7723 7.6686 5.4723 9.3786 5.4723 11.7186C5.4723 13.7386 6.7023 14.9486 8.7623 14.9486C9.7423 14.9486 10.4323 15.5886 10.4323 16.4486C10.4323 18.0986 10.2323 21.2586 12.9123 21.2586C15.1523 21.2586 16.9923 17.9286 17.4523 17.1886C18.0623 16.1486 17.7923 15.1486 17.7923 14.6286C17.7923 14.4386 18.9623 13.4286 18.9623 12.4186C18.9623 11.3286 16.6923 10.3286 16.6923 10.1386C16.6923 9.9886 16.8423 9.7586 16.9123 9.7586C17.2023 9.7586 18.4923 11.3086 19.2823 11.3086C19.8123 11.3086 20.0023 10.9186 20.0323 10.9186C20.1823 10.9186 20.3623 14.2986 22.1223 14.9186C21.0823 19.2086 17.2023 22.3986 12.6023 22.3986ZM15.9823 5.8986C16.1923 5.8986 16.3823 6.1286 16.8823 6.1286C17.2223 6.1286 17.4923 5.8086 17.4923 5.4186C17.4923 4.7686 16.8023 4.2886 15.8923 4.2886C14.8323 4.2886 14.2023 4.6486 14.2023 5.3086C14.2023 5.7686 14.5523 6.0986 15.0023 6.0986C15.4823 6.0986 15.6123 5.8986 15.9823 5.8986Z" />
        </svg>
    