
        <svg xmlns="http://www.w3.org/2000/svg" viewBox="0 0 100 100">
            <path d="M8.2623 27.2793H16.9323C17.5823 27.2793 18.1123 26.7493 18.1123 26.0893C18.1123 25.4493 17.5823 24.9093 16.9323 24.9093H13.7723V23.1693C16.3823 22.9393 18.7423 21.9293 20.6323 20.3593L21.5123 21.2493C21.9823 21.7093 22.7323 21.7093 23.1923 21.2493C23.6623 20.7893 23.6623 20.0293 23.1923 19.5693L19.5323 15.9093C20.6523 14.4493 21.3023 12.6193 21.3023 10.6393C21.3023 5.8293 17.4023 1.9293 12.5823 1.9293C10.6023 1.9293 8.7823 2.5793 7.3223 3.6893L3.9623 0.3393C3.5023 -0.1107 2.7523 -0.1107 2.2923 0.3393C1.8323 0.7993 1.8423 1.5593 2.2923 2.0193L2.8723 2.5893C1.0623 4.7593 0.0023 7.5593 0.0023 10.6393C0.0023 17.2493 4.9523 22.5893 11.4023 23.1693V24.9093H8.2623C7.6123 24.9093 7.0823 25.4493 7.0823 26.0893C7.0823 26.7493 7.6123 27.2793 8.2623 27.2793ZM12.5823 17.0493C8.8623 17.0493 6.1723 14.3693 6.1723 10.6393C6.1723 6.9193 8.8623 4.2293 12.5823 4.2293C16.3123 4.2293 18.9923 6.9193 18.9923 10.6393C18.9923 14.3693 16.3123 17.0493 12.5823 17.0493ZM12.5823 19.3593C14.5623 19.3593 16.3923 18.6893 17.8623 17.5893L18.9523 18.6793C17.2023 20.0493 15.0223 20.8493 12.5823 20.8493C6.8523 20.8493 2.3823 16.3693 2.3823 10.6393C2.3823 8.2093 3.1723 6.0193 4.5423 4.2793L5.6323 5.3693C4.5223 6.8393 3.8623 8.6593 3.8623 10.6393C3.8623 15.4593 7.7723 19.3593 12.5823 19.3593Z" />
        </svg>
    