
        <svg xmlns="http://www.w3.org/2000/svg" viewBox="0 0 100 100">
            <path d="M12.2223 24.4436C18.9723 24.4436 24.4423 18.9736 24.4423 12.2236C24.4423 5.4736 18.9723 0.0036 12.2223 0.0036C5.4723 0.0036 0.0023 5.4736 0.0023 12.2236C0.0023 18.9736 5.4723 24.4436 12.2223 24.4436ZM12.1523 14.7736C11.8923 13.0336 10.9923 13.3936 10.6123 12.3836L9.9623 10.7036C9.7023 10.0336 9.2423 9.7536 8.7023 9.7536C8.2123 9.7536 7.7323 10.1236 7.5423 10.1236C7.3923 10.1236 6.8623 9.6536 6.5723 9.3836C6.0623 8.9336 5.5523 8.5236 4.9923 8.5236C4.1323 8.5236 3.3623 9.3636 3.3623 10.1336C3.3623 11.2836 5.7923 12.3436 5.7923 12.9936C5.7923 13.8436 4.6723 13.6636 4.6723 15.4436C4.6723 16.6336 4.1123 16.7736 3.2623 16.9236C2.5223 15.5136 2.1023 13.9236 2.1023 12.2236C2.1023 10.0736 2.7623 8.0936 3.8923 6.4536C4.2223 7.0936 4.7723 7.5136 5.4123 7.5136C6.1523 7.5136 6.7823 7.0336 6.9723 6.2936C7.0523 6.0036 7.1223 5.8936 7.3323 5.7636C7.8523 5.4836 8.0823 5.1436 8.0823 4.5836C8.0823 4.1736 7.8723 3.7536 7.4923 3.2736C8.9023 2.5236 10.5123 2.0936 12.2223 2.0936C17.8123 2.0936 22.3523 6.6336 22.3523 12.2236C22.3523 13.3036 22.1823 14.3336 21.8623 15.3036C19.2323 14.9036 19.8123 11.9036 17.6923 11.9036C16.3623 11.9036 13.9223 14.2136 13.9223 16.3236C13.9223 17.8636 13.7923 18.3536 13.3723 18.3536C12.8423 18.3536 12.5323 17.2736 12.1523 14.7736ZM6.7923 4.5336C6.7923 4.8636 6.0823 4.8236 5.9023 5.6836C5.8523 6.0436 5.6123 6.2236 5.4123 6.2236C5.2023 6.2236 4.8823 5.9536 4.7423 5.3936C5.2523 4.8536 5.8023 4.3636 6.4023 3.9336C6.6823 4.2036 6.7923 4.3436 6.7923 4.5336ZM12.2223 22.3436C8.8123 22.3436 5.8023 20.6636 3.9623 18.0736C5.2123 17.7236 5.9623 17.0236 5.9623 15.4736C5.9623 14.2736 7.0823 14.2036 7.0823 12.8636C7.0823 12.2536 6.4923 11.7736 5.5423 11.0036L4.7823 10.3836C4.7123 10.3336 4.6623 10.2436 4.6623 10.1636C4.6623 9.9736 4.8123 9.8236 4.9923 9.8236C5.1323 9.8236 5.2623 9.9636 5.7623 10.3936C6.5823 11.0736 7.0223 11.4736 7.5723 11.4736C8.1023 11.4736 8.3223 11.1436 8.5823 11.1436C8.7323 11.1436 8.8223 11.2236 8.9023 11.4636L9.3623 12.7536C9.8623 14.1836 10.7323 14.0236 10.9023 14.9736C11.3923 18.3436 11.9723 19.6436 13.3723 19.6436C14.7323 19.6436 15.2123 18.4536 15.2123 16.3236C15.2123 14.8036 17.0623 13.1936 17.6923 13.1936C18.3623 13.1936 18.7723 15.9136 21.3823 16.5236C19.7723 19.9736 16.2823 22.3436 12.2223 22.3436Z" />
        </svg>
    