
        <svg xmlns="http://www.w3.org/2000/svg" viewBox="0 0 100 100">
            <path d="M11.7523 23.5048C18.2423 23.5048 23.5123 18.2448 23.5123 11.7548C23.5123 5.2648 18.2423 0.0048 11.7523 0.0048C5.2623 0.0048 0.0023 5.2648 0.0023 11.7548C0.0023 18.2448 5.2623 23.5048 11.7523 23.5048ZM11.7523 22.2548C7.7823 22.2548 4.3223 20.0348 2.5423 16.7848C4.1023 15.3548 3.9723 13.3048 4.7023 13.3048C5.0823 13.3048 5.4923 13.6248 6.1123 14.4448C7.2223 15.8548 7.9123 16.5148 8.5823 16.5148C9.2123 16.5148 10.0223 15.5248 10.0223 14.7848C10.0223 14.3648 9.2423 13.9448 9.2423 13.6548C9.2423 13.4748 9.4323 13.3748 9.7223 13.3748C11.5623 13.3748 12.8223 11.8448 12.8223 10.8348C12.8223 10.0548 11.6123 9.3348 11.6123 8.8448C11.6123 8.6648 11.7523 8.5348 11.9423 8.5348C12.0723 8.5348 12.2623 8.6048 12.5523 8.7848C13.7423 9.6648 14.3423 9.3148 14.4123 8.5748C14.4523 8.2748 14.6323 7.9948 15.3423 7.6648C16.6523 7.0348 17.6823 5.9748 17.6823 5.2048C17.6823 4.2748 16.0323 3.6248 16.0323 3.2348C16.0323 3.0548 16.3223 2.8548 16.9523 2.6348C20.1223 4.4448 22.2523 7.8548 22.2523 11.7548C22.2523 12.9148 22.0623 14.0348 21.7123 15.0848C21.3723 14.3448 20.8323 13.9548 20.1723 13.9548C19.9023 13.9548 19.5823 14.0148 19.2623 14.1248C18.8123 14.2648 18.6823 14.2148 18.3323 13.8148C17.8623 13.2748 17.4623 13.0848 16.8323 13.0848C15.6023 13.0848 14.9423 13.6848 14.4123 15.3048C14.2523 15.8348 14.0023 16.0148 13.1223 16.3448L12.6323 16.5248C11.7423 16.8648 11.5223 17.4948 11.8323 18.8748C12.1123 20.0848 12.6823 20.6948 13.4923 20.6948C14.2223 20.6948 14.7023 20.4048 15.2623 20.4048C15.8323 20.4048 16.2023 20.6648 16.5723 21.0848C15.1323 21.8348 13.4923 22.2548 11.7523 22.2548ZM14.3923 11.0148C15.1423 11.0148 15.4823 10.3448 16.3323 10.1048C16.8823 9.9348 17.1823 9.3648 17.1823 8.8848C17.1823 8.4848 16.9923 8.1448 16.5623 8.1448C16.1123 8.1448 15.6923 8.4948 15.4123 9.0848C15.2623 9.4248 15.0123 9.5848 14.3923 9.7548C13.9123 9.9048 13.7323 10.0848 13.7323 10.4548C13.7323 10.8548 14.0423 11.0148 14.3923 11.0148ZM11.0323 16.3848C11.6923 16.3848 12.3423 15.6248 12.3423 14.9248C12.3423 14.0848 11.9923 13.6848 11.5923 13.6848C11.1523 13.6848 10.8723 14.2048 10.8723 15.0048C10.8723 15.4448 10.4723 15.4648 10.4723 15.9248C10.4723 16.1948 10.7023 16.3848 11.0323 16.3848ZM9.0023 18.5048C9.5023 18.5048 9.8323 18.2448 9.8323 17.8148C9.8323 17.4948 9.5723 17.2948 9.2223 17.2948C7.8423 17.2948 7.7823 16.5048 7.1023 16.5048C6.7223 16.5048 6.4723 16.7148 6.4723 17.0348C6.4723 17.2948 6.7223 17.4948 7.0823 17.4948C7.8123 17.4948 7.4623 18.5048 9.0023 18.5048Z" />
        </svg>
    