
        <svg xmlns="http://www.w3.org/2000/svg" viewBox="0 0 100 100">
            <path d="M30.2193 1.4503C30.9593 1.4503 31.7093 1.5503 32.4093 1.7203C33.4393 1.9803 33.8393 0.6003 32.7193 0.3003C32.0593 0.1203 31.1393 0.0003 30.2193 0.0003C27.7093 0.0003 25.3693 0.9003 23.4593 2.4303C21.5493 0.9003 19.2193 0.0003 16.6993 0.0003C14.1893 0.0003 11.8493 0.9003 9.9393 2.4303C8.0293 0.9003 5.6793 0.0003 3.1893 0.0003C2.2593 0.0003 1.3293 0.1203 0.6793 0.3003C-0.4507 0.6003 -0.0507 1.9803 0.9793 1.7203C1.6993 1.5503 2.4393 1.4503 3.1893 1.4503C5.2593 1.4503 7.2193 2.1703 8.8493 3.4003C6.4993 5.7803 5.0293 9.1803 5.0293 12.9003C5.0293 17.5703 6.9793 20.7203 9.9493 20.7203C12.8993 20.7203 14.8493 17.5703 14.8493 12.9003C14.8493 9.1803 13.3693 5.7803 11.0393 3.4103C12.6693 2.1703 14.6093 1.4503 16.6993 1.4503C18.7793 1.4503 20.7393 2.1703 22.3693 3.4103C20.0293 5.7803 18.5493 9.1803 18.5493 12.9003C18.5493 17.5703 20.4893 20.7203 23.4493 20.7203C26.4093 20.7203 28.3693 17.5703 28.3693 12.9003C28.3693 9.1803 26.8893 5.7803 24.5593 3.4003C26.1793 2.1703 28.1393 1.4503 30.2193 1.4503ZM6.4793 12.9003C6.4793 9.5303 7.8293 6.4703 9.9393 4.3603C12.0593 6.4703 13.3993 9.5303 13.3993 12.9003C13.3993 16.7203 11.9993 19.2703 9.9493 19.2703C7.8893 19.2703 6.4793 16.7103 6.4793 12.9003ZM19.9993 12.9003C19.9993 9.5303 21.3493 6.4703 23.4593 4.3603C25.5693 6.4703 26.9193 9.5303 26.9193 12.9003C26.9193 16.7103 25.5093 19.2703 23.4493 19.2703C21.3993 19.2703 19.9993 16.7203 19.9993 12.9003Z" />
        </svg>
    