
        <svg xmlns="http://www.w3.org/2000/svg" viewBox="0 0 100 100">
            <path d="M31.9801 3.6111C32.7101 3.6111 33.3401 3.7011 33.9701 3.8711C36.4101 4.4511 37.2901 1.0111 34.8301 0.3411C34.0601 0.1311 33.0001 0.0011 31.9801 0.0011C29.4501 0.0011 27.0801 0.8111 25.0601 2.2011C23.0601 0.8111 20.6801 0.0011 18.1501 0.0011C15.6101 0.0011 13.2401 0.8111 11.2201 2.2011C9.2201 0.8111 6.8401 0.0011 4.3101 0.0011C3.2901 0.0011 2.2201 0.1311 1.4701 0.3411C-0.9999 1.0111 -0.1199 4.4511 2.3201 3.8711C2.9501 3.7011 3.6001 3.6111 4.3101 3.6111C5.8001 3.6111 7.2301 4.0211 8.4901 4.7411C6.4101 7.2811 5.1301 10.6311 5.1301 14.2611C5.1301 19.6711 7.5801 23.3211 11.2401 23.3211C14.8801 23.3211 17.3201 19.6911 17.3201 14.2611C17.3201 10.6311 16.0501 7.2811 13.9701 4.7411C15.2301 4.0211 16.6501 3.6111 18.1501 3.6111C19.6401 3.6111 21.0601 4.0211 22.3201 4.7411C20.2501 7.2811 18.9701 10.6311 18.9701 14.2611C18.9701 19.6911 21.4101 23.3211 25.0501 23.3211C28.7201 23.3211 31.1601 19.6711 31.1601 14.2611C31.1601 10.6311 29.8801 7.2811 27.8101 4.7411C29.0701 4.0211 30.4901 3.6111 31.9801 3.6111ZM8.7501 14.2611C8.7501 11.5311 9.6901 9.0111 11.2201 7.1111C12.7601 9.0111 13.7101 11.5311 13.7101 14.2611C13.7101 17.4511 12.6701 19.7111 11.2401 19.7111C9.8101 19.7111 8.7501 17.4411 8.7501 14.2611ZM22.5801 14.2611C22.5801 11.5311 23.5301 9.0111 25.0601 7.1111C26.6001 9.0111 27.5501 11.5311 27.5501 14.2611C27.5501 17.4411 26.4801 19.7111 25.0501 19.7111C23.6201 19.7111 22.5801 17.4511 22.5801 14.2611Z" />
        </svg>
    