
        <svg xmlns="http://www.w3.org/2000/svg" viewBox="0 0 100 100">
            <path d="M31.0316 2.2059C31.7716 2.2059 32.4716 2.2859 33.1616 2.4759C34.6716 2.8359 35.2716 0.7459 33.6716 0.3159C32.9716 0.1259 32.0016 -0.0041 31.0316 -0.0041C28.5016 -0.0041 26.1316 0.8759 24.1716 2.3559C22.2116 0.8759 19.8516 -0.0041 17.3116 -0.0041C14.7816 -0.0041 12.4116 0.8759 10.4416 2.3559C8.4816 0.8759 6.1216 -0.0041 3.5816 -0.0041C2.6116 -0.0041 1.6416 0.1259 0.9516 0.3159C-0.6584 0.7459 -0.0484 2.8359 1.4516 2.4759C2.1416 2.2859 2.8616 2.2059 3.5816 2.2059C5.4816 2.2059 7.2616 2.8159 8.7916 3.8659C6.5116 6.3159 5.1016 9.7259 5.1016 13.4559C5.1016 18.3959 7.2316 21.7459 10.4516 21.7459C13.6716 21.7459 15.8016 18.4059 15.8016 13.4559C15.8016 9.7259 14.3816 6.3159 12.1016 3.8659C13.6316 2.8159 15.4116 2.2059 17.3116 2.2059C19.2116 2.2059 20.9916 2.8159 22.5116 3.8659C20.2416 6.3159 18.8216 9.7259 18.8216 13.4559C18.8216 18.4059 20.9416 21.7459 24.1616 21.7459C27.3916 21.7459 29.5216 18.3959 29.5216 13.4559C29.5216 9.7259 28.1016 6.3159 25.8316 3.8659C27.3516 2.8159 29.1316 2.2059 31.0316 2.2059ZM7.3016 13.4559C7.3016 10.2759 8.5216 7.3759 10.4516 5.3059C12.3916 7.3759 13.5916 10.2759 13.5916 13.4559C13.5916 17.1259 12.3016 19.5459 10.4516 19.5459C8.6116 19.5459 7.3016 17.1059 7.3016 13.4559ZM21.0216 13.4559C21.0216 10.2759 22.2416 7.3759 24.1616 5.3059C26.1016 7.3759 27.3116 10.2759 27.3116 13.4559C27.3116 17.1059 26.0016 19.5459 24.1616 19.5459C22.3116 19.5459 21.0216 17.1259 21.0216 13.4559Z" />
        </svg>
    