
        <svg xmlns="http://www.w3.org/2000/svg" viewBox="0 0 100 100">
            <path d="M4.6617 16.9271C4.6617 19.0171 6.0217 20.8271 8.2717 22.0871V22.5371C7.5317 22.7671 7.0817 23.4171 7.0817 24.2971V27.5471C7.0817 28.6671 7.8117 29.4071 8.9317 29.4071H9.6717C10.7817 29.4071 11.5217 28.6671 11.5217 27.5471V24.2971C11.5217 23.9171 11.4417 23.5771 11.2717 23.2971C12.8717 23.7471 14.6817 23.9871 16.6317 23.9871C23.4817 23.9871 28.5917 20.9871 28.5917 16.9271V12.0471L31.7817 10.5971C32.7217 10.1571 33.2717 9.3271 33.2717 8.3871C33.2717 7.4671 32.7217 6.6171 31.7817 6.1871L20.1217 0.8671C18.7817 0.2571 17.6917 -0.0129 16.6317 -0.0029C15.5717 -0.0129 14.4817 0.2571 13.1517 0.8671L1.4917 6.1871C0.5417 6.6171 0.0017 7.4671 0.0017 8.3871C0.0017 9.3271 0.5417 10.1571 1.4917 10.5971L4.6617 12.0471ZM16.6317 13.8071C15.9417 13.8071 15.2717 13.6171 14.3217 13.1871L11.5517 11.9271L15.4017 9.9571C15.7817 10.0771 16.2217 10.1371 16.6617 10.1371C18.1217 10.1371 19.5117 9.4371 19.5117 8.3871C19.5117 7.3571 18.1217 6.6771 16.6617 6.6771C15.2017 6.6771 13.7917 7.3671 13.7917 8.3871C13.7917 8.4771 13.8017 8.5571 13.8117 8.6271L9.3417 10.9271L4.4317 8.6971C4.2817 8.6171 4.1917 8.5171 4.1917 8.3871C4.1917 8.2571 4.2817 8.1671 4.4317 8.0971L14.3217 3.5971C15.2717 3.1671 15.9417 2.9871 16.6317 2.9871C17.3317 2.9871 17.9917 3.1671 18.9517 3.5971L28.8317 8.0971C28.9917 8.1671 29.0617 8.2571 29.0617 8.3871C29.0617 8.5171 28.9917 8.6171 28.8317 8.6971L18.9517 13.1871C17.9917 13.6171 17.3317 13.8071 16.6317 13.8071ZM7.5017 16.9271V13.3371L8.2717 13.6871V18.6771C7.7717 18.1371 7.5017 17.5271 7.5017 16.9271ZM16.6317 16.7771C17.6917 16.8071 18.7817 16.5271 20.1217 15.9171L25.7717 13.3371V16.9271C25.7717 19.1971 22.0417 21.2771 16.6317 21.2771C14.1017 21.2771 11.9217 20.8271 10.3317 20.0971V14.6371L13.1517 15.9171C14.4817 16.5271 15.5717 16.8071 16.6317 16.7771Z" />
        </svg>
    