
        <svg xmlns="http://www.w3.org/2000/svg" viewBox="0 0 100 100">
            <path d="M4.5717 16.6212C4.5717 18.2712 5.5517 19.8012 7.3217 20.9512V22.5512C6.7517 22.7512 6.4017 23.2612 6.4017 23.9612V27.0512C6.4017 27.9712 6.9917 28.5712 7.9217 28.5712H8.2417C9.1617 28.5712 9.7617 27.9712 9.7617 27.0512V23.9612C9.7617 23.2612 9.4117 22.7612 8.8517 22.5512V21.7712C10.7117 22.5912 13.1117 23.0912 15.9217 23.0912C22.8417 23.0912 27.2917 20.1212 27.2917 16.6212V11.1112L30.7117 9.5412C31.4717 9.1912 31.8617 8.5112 31.8617 7.8012C31.8617 7.1112 31.4717 6.4312 30.7117 6.0812L19.1717 0.8112C17.9317 0.2512 16.9317 -0.0088 15.9217 0.0012C14.9317 -0.0088 13.9317 0.2512 12.6817 0.8112L1.1517 6.0812C0.3917 6.4312 0.0017 7.1112 0.0017 7.8012C0.0017 8.5112 0.3917 9.1912 1.1517 9.5412L4.5717 11.1112ZM15.9217 13.7712C15.1517 13.7712 14.3917 13.5712 13.3917 13.1112L10.0617 11.5912L14.9417 9.0112C15.2717 9.0912 15.6217 9.1412 15.9717 9.1412C17.2417 9.1412 18.4617 8.5712 18.4617 7.8012C18.4617 7.0712 17.2417 6.5012 15.9717 6.5012C14.7217 6.5012 13.4717 7.0712 13.4717 7.8012C13.4717 7.9312 13.5117 8.0512 13.5817 8.1712L8.4417 10.8512L2.6017 8.2012C2.3917 8.1112 2.3017 7.9712 2.3017 7.8012C2.3017 7.6512 2.3917 7.5112 2.6017 7.4212L13.3917 2.5112C14.3917 2.0512 15.1517 1.8512 15.9217 1.8512C16.7117 1.8512 17.4617 2.0512 18.4717 2.5112L29.2617 7.4212C29.4617 7.5112 29.5617 7.6512 29.5617 7.8012C29.5617 7.9712 29.4617 8.1112 29.2617 8.2012L18.4717 13.1112C17.4617 13.5712 16.7117 13.7712 15.9217 13.7712ZM6.4617 16.6212V11.9612L7.3217 12.3612V18.6212C6.7617 18.0012 6.4617 17.3112 6.4617 16.6212ZM15.9217 15.6212C16.9317 15.6312 17.9317 15.3712 19.1717 14.8112L25.4017 11.9612V16.6212C25.4017 19.0712 21.7017 21.3212 15.9217 21.3212C12.9417 21.3212 10.5017 20.7112 8.8517 19.7812V13.0512L12.6817 14.8112C13.9317 15.3712 14.9317 15.6312 15.9217 15.6212Z" />
        </svg>
    