
        <svg xmlns="http://www.w3.org/2000/svg" viewBox="0 0 100 100">
            <path d="M11.4923 22.977C17.8323 22.977 22.9823 17.847 22.9823 11.497C22.9823 5.147 17.8323 -0.003 11.4923 -0.003C5.1423 -0.003 0.0023 5.147 0.0023 11.497C0.0023 17.847 5.1423 22.977 11.4923 22.977ZM11.4923 22.087C5.6323 22.087 0.8923 17.357 0.8923 11.497C0.8923 5.637 5.6323 0.887 11.4923 0.887C17.3523 0.887 22.0923 5.637 22.0923 11.497C22.0923 17.357 17.3523 22.087 11.4923 22.087ZM18.9223 8.977L13.0123 6.257C12.3823 5.987 11.9423 5.867 11.4823 5.897C11.0423 5.867 10.5923 5.987 9.9723 6.257L4.0523 8.977C3.7923 9.097 3.6723 9.307 3.6723 9.547C3.6723 9.777 3.7923 9.987 4.0523 10.097L6.9523 11.437L10.2923 9.757C10.2423 9.707 10.2223 9.617 10.2223 9.537C10.2223 9.167 10.8323 8.857 11.4923 8.857C12.1623 8.857 12.7623 9.167 12.7623 9.537C12.7623 9.927 12.1723 10.217 11.4923 10.217C11.2523 10.217 11.0423 10.197 10.8623 10.127L7.6623 11.767L9.9723 12.827C10.6023 13.127 11.0423 13.207 11.4823 13.207C11.9423 13.207 12.3823 13.117 13.0123 12.827L18.9223 10.097C19.1823 9.987 19.3123 9.777 19.3123 9.547C19.3123 9.307 19.1823 9.097 18.9223 8.977ZM11.4823 16.727C14.8323 16.727 16.7723 15.137 16.7723 13.947V11.797L13.2223 13.417C12.5823 13.697 12.0323 13.847 11.4823 13.837C10.9423 13.847 10.3823 13.697 9.7623 13.417L7.6323 12.457V15.797C8.5323 16.337 9.8323 16.727 11.4823 16.727ZM6.2023 11.797V13.947C6.2023 14.367 6.4823 14.867 6.9923 15.327V12.157ZM6.6823 16.707V18.127C6.6823 18.497 6.8823 18.707 7.2523 18.707H7.3823C7.7623 18.707 7.9723 18.497 7.9723 18.127V16.707C7.9723 16.437 7.8523 16.257 7.6323 16.167V15.797C7.4223 15.667 7.1923 15.507 6.9923 15.327V16.187C6.7823 16.257 6.6823 16.437 6.6823 16.707Z" />
        </svg>
    