
        <svg xmlns="http://www.w3.org/2000/svg" viewBox="0 0 100 100">
            <path d="M12.2223 24.4436C18.9723 24.4436 24.4423 18.9736 24.4423 12.2236C24.4423 5.4736 18.9723 0.0036 12.2223 0.0036C5.4723 0.0036 0.0023 5.4736 0.0023 12.2236C0.0023 18.9736 5.4723 24.4436 12.2223 24.4436ZM12.2223 21.7636C6.9523 21.7636 2.6823 17.4936 2.6823 12.2236C2.6823 6.9536 6.9523 2.6836 12.2223 2.6836C17.4923 2.6836 21.7623 6.9536 21.7623 12.2236C21.7623 17.4936 17.4923 21.7636 12.2223 21.7636ZM18.8323 9.3436L13.6723 6.9936C13.1223 6.7336 12.6723 6.6136 12.2123 6.6236C11.7623 6.6136 11.3123 6.7336 10.7423 6.9936L5.6023 9.3436C5.2123 9.5136 5.0123 9.8336 5.0123 10.1736C5.0123 10.5036 5.2123 10.8036 5.6023 10.9836L7.5623 11.8636L11.0123 10.2636C10.9923 10.2336 10.9923 10.1936 10.9923 10.1636C10.9923 9.7336 11.6123 9.4536 12.2323 9.4536C12.8523 9.4536 13.4623 9.7336 13.4623 10.1636C13.4623 10.6036 12.8523 10.8836 12.2323 10.8836C12.0323 10.8836 11.8523 10.8636 11.6723 10.8036L8.4723 12.2936L10.7423 13.3336C11.3123 13.6036 11.7623 13.7136 12.2123 13.7036C12.6723 13.7136 13.1223 13.6036 13.6723 13.3336L18.8323 10.9836C19.2223 10.8036 19.4223 10.5036 19.4223 10.1736C19.4223 9.8336 19.2223 9.5136 18.8323 9.3436ZM12.2123 17.0736C15.3123 17.0736 17.4723 15.7336 17.4723 14.0736V12.5036L14.0123 14.0836C13.3723 14.3836 12.7623 14.5336 12.2123 14.5236C11.6623 14.5336 11.0623 14.3936 10.4223 14.0836L8.4523 13.1836V16.1936C9.3723 16.7436 10.6923 17.0736 12.2123 17.0736ZM6.9523 12.5036V14.0736C6.9523 14.5236 7.1823 15.0436 7.5823 15.4936V12.7836ZM7.1223 17.3436V18.4336C7.1223 18.8936 7.4323 19.1936 7.8823 19.1936H8.1423C8.6023 19.1936 8.9023 18.8936 8.9023 18.4336V17.3436C8.9023 16.9936 8.7323 16.7336 8.4523 16.6336V16.1936C8.1123 15.9936 7.8123 15.7636 7.5823 15.4936V16.6336C7.3023 16.7336 7.1223 16.9936 7.1223 17.3436Z" />
        </svg>
    