
        <svg xmlns="http://www.w3.org/2000/svg" viewBox="0 0 100 100">
            <path d="M12.7923 25.5961C19.8723 25.5961 25.6023 19.8661 25.6023 12.7961C25.6023 5.7261 19.8723 -0.0039 12.7923 -0.0039C5.7323 -0.0039 0.0023 5.7261 0.0023 12.7961C0.0023 19.8661 5.7323 25.5961 12.7923 25.5961ZM5.1523 10.3161C5.1523 9.8061 5.4723 9.3761 5.9523 9.1561L11.1723 6.7861C11.7923 6.5061 12.3023 6.3561 12.7923 6.3561C13.2923 6.3561 13.8123 6.5061 14.4423 6.7861L19.6423 9.1561C20.1323 9.3761 20.4523 9.8061 20.4523 10.3161C20.4523 10.8261 20.1323 11.2661 19.6423 11.4861L14.4423 13.8661C13.8323 14.1461 13.2923 14.2861 12.7923 14.2761C12.3023 14.2861 11.7823 14.1461 11.1723 13.8661L8.6923 12.7361L12.1023 11.1961C12.3023 11.2661 12.5523 11.3061 12.7923 11.3061C13.5723 11.3061 14.2723 10.9261 14.2723 10.3161C14.2723 9.7161 13.5723 9.3561 12.7923 9.3561C12.0423 9.3561 11.3323 9.7161 11.3323 10.3161C11.3323 10.3361 11.3323 10.3461 11.3323 10.3661L7.4923 12.1361L5.9523 11.4861C5.4723 11.2761 5.1523 10.8261 5.1523 10.3161ZM7.0423 14.1461V13.0861L7.4923 13.2861V15.4661C7.2023 15.0661 7.0423 14.6161 7.0423 14.1461ZM8.6823 16.4961V13.8561L10.7623 14.7961C11.4923 15.1361 12.1723 15.2861 12.7923 15.2661C13.4223 15.2861 14.1223 15.1261 14.8523 14.7961L18.5523 13.0861V14.1461C18.5523 16.1061 15.9123 17.4761 12.7923 17.4761C11.2123 17.4761 9.7423 17.1061 8.6823 16.4961ZM6.8323 18.9561V17.9861C6.8323 17.5061 7.0923 17.1461 7.4923 17.0261V15.4661C7.7723 15.8561 8.1923 16.2161 8.6823 16.4961V17.0261C9.0923 17.1461 9.3623 17.5061 9.3623 17.9861V18.9561C9.3623 19.5861 8.9423 19.9661 8.3523 19.9661H7.8323C7.2223 19.9661 6.8323 19.5861 6.8323 18.9561Z" />
        </svg>
    