
        <svg xmlns="http://www.w3.org/2000/svg" viewBox="0 0 100 100">
            <path d="M12.1023 24.2064C18.7823 24.2064 24.2123 18.7864 24.2123 12.1064C24.2123 5.4264 18.7823 -0.0036 12.1023 -0.0036C5.4223 -0.0036 0.0023 5.4264 0.0023 12.1064C0.0023 18.7864 5.4223 24.2064 12.1023 24.2064ZM4.5023 9.9564C4.5023 9.6464 4.6923 9.3164 5.0723 9.1264L10.5623 6.6364C11.1423 6.3764 11.6223 6.2364 12.0923 6.2464C12.5723 6.2364 13.0423 6.3764 13.6323 6.6364L19.1123 9.1264C19.5023 9.3164 19.7023 9.6464 19.7023 9.9564C19.7023 10.2864 19.5023 10.5964 19.1123 10.7664L13.6323 13.2864C13.0423 13.5464 12.5723 13.6764 12.0923 13.6664C11.6223 13.6764 11.1423 13.5564 10.5623 13.2864L8.1723 12.1864L11.5423 10.6064C11.7223 10.6664 11.9223 10.6864 12.1123 10.6864C12.7623 10.6864 13.3823 10.3964 13.3823 9.9464C13.3823 9.5264 12.7623 9.2564 12.1123 9.2564C11.4823 9.2564 10.8323 9.5264 10.8323 9.9464C10.8323 9.9964 10.8423 10.0464 10.8623 10.0764L7.2423 11.7564L5.0723 10.7664C4.6923 10.5964 4.5023 10.2864 4.5023 9.9564ZM6.5623 14.1364V12.3764L7.2823 12.6864V15.6664C6.8223 15.1864 6.5623 14.6164 6.5623 14.1364ZM8.1423 16.3564V13.0864L10.2223 14.0464C10.9023 14.3664 11.5223 14.5164 12.0923 14.4964C12.6723 14.5164 13.3023 14.3664 13.9723 14.0464L17.6223 12.3764V14.1364C17.6223 15.8664 15.4023 17.2864 12.0923 17.2864C10.4723 17.2864 9.1023 16.9464 8.1423 16.3564ZM6.8223 18.7064V17.5164C6.8223 17.1664 6.9923 16.9064 7.2823 16.7964V15.6664C7.5123 15.9364 7.7923 16.1764 8.1423 16.3564V16.8064C8.4123 16.9264 8.5923 17.1764 8.5923 17.5164V18.7064C8.5923 19.1764 8.2723 19.4764 7.8123 19.4764H7.5923C7.1123 19.4764 6.8223 19.1764 6.8223 18.7064Z" />
        </svg>
    