
        <svg xmlns="http://www.w3.org/2000/svg" viewBox="0 0 100 100">
            <path d="M12.7923 25.5978C19.8723 25.5978 25.6023 19.8678 25.6023 12.7978C25.6023 5.7278 19.8723 -0.0022 12.7923 -0.0022C5.7323 -0.0022 0.0023 5.7278 0.0023 12.7978C0.0023 19.8678 5.7323 25.5978 12.7923 25.5978ZM12.7923 21.4178C8.0323 21.4178 4.1723 17.5678 4.1723 12.7978C4.1723 8.0278 8.0323 4.1678 12.7923 4.1678C17.5623 4.1678 21.4323 8.0278 21.4323 12.7978C21.4323 17.5678 17.5623 21.4178 12.7923 21.4178ZM18.9223 9.5578L14.2623 7.4278C13.7123 7.1678 13.2323 7.0578 12.7923 7.0578C12.3623 7.0578 11.8823 7.1678 11.3323 7.4278L6.6823 9.5578C6.2323 9.7778 5.9623 10.1478 5.9623 10.5978C5.9623 11.0478 6.2323 11.4378 6.6823 11.6378L8.0523 12.2178L11.4823 10.6478C11.4823 10.6278 11.4823 10.6178 11.4823 10.5978C11.4823 10.0678 12.1323 9.7278 12.7923 9.7278C13.4723 9.7278 14.1223 10.0678 14.1223 10.5978C14.1223 11.1478 13.4723 11.4678 12.7923 11.4678C12.5823 11.4678 12.3623 11.4478 12.1723 11.3778L9.1323 12.7578L11.3323 13.7678C11.8823 14.0278 12.3623 14.1478 12.7923 14.1178C13.2323 14.1478 13.7123 14.0278 14.2623 13.7678L18.9223 11.6378C19.3623 11.4278 19.6423 11.0478 19.6423 10.5978C19.6423 10.1478 19.3623 9.7778 18.9223 9.5578ZM12.7923 17.0078C15.5823 17.0078 17.9423 15.7778 17.9423 14.0378V13.0778L14.6323 14.5978C13.9823 14.8978 13.3523 15.0478 12.7923 15.0378C12.2423 15.0478 11.6323 14.9078 10.9723 14.5978L9.1323 13.7578V16.1278C10.0623 16.6778 11.3823 17.0078 12.7923 17.0078ZM7.6523 13.0778V14.0378C7.6523 14.4478 7.8023 14.8478 8.0523 15.2078V13.2578ZM7.4623 17.4978V18.3678C7.4623 18.9178 7.8123 19.2678 8.3423 19.2678H8.8223C9.3523 19.2678 9.7223 18.9178 9.7223 18.3678V17.4978C9.7223 17.0778 9.4923 16.7478 9.1323 16.6378V16.1278C8.6723 15.8778 8.3123 15.5578 8.0523 15.2078V16.6378C7.6923 16.7478 7.4623 17.0578 7.4623 17.4978Z" />
        </svg>
    