
        <svg xmlns="http://www.w3.org/2000/svg" viewBox="0 0 100 100">
            <path d="M12.6023 25.1969C19.5623 25.1969 25.2023 19.5469 25.2023 12.5969C25.2023 5.6369 19.5623 -0.0031 12.6023 -0.0031C5.6523 -0.0031 0.0023 5.6369 0.0023 12.5969C0.0023 19.5469 5.6523 25.1969 12.6023 25.1969ZM4.9723 10.2069C4.9723 9.7569 5.2523 9.3469 5.7023 9.1369L10.9923 6.7369C11.6023 6.4569 12.1023 6.3169 12.6023 6.3169C13.0923 6.3169 13.5923 6.4569 14.2023 6.7369L19.4923 9.1369C19.9423 9.3469 20.2223 9.7569 20.2223 10.2069C20.2223 10.6669 19.9423 11.0669 19.4923 11.2769L14.2023 13.6969C13.6023 13.9669 13.0923 14.1069 12.6023 14.0869C12.1023 14.1069 11.5923 13.9669 10.9923 13.6969L8.5423 12.5769L11.9423 11.0169C12.1423 11.0869 12.3723 11.1169 12.6123 11.1169C13.3323 11.1169 14.0123 10.7669 14.0123 10.2069C14.0123 9.6569 13.3323 9.3169 12.6123 9.3169C11.8823 9.3169 11.1923 9.6569 11.1923 10.2069C11.1923 10.2269 11.1923 10.2569 11.1923 10.2769L7.4223 12.0269L5.7023 11.2769C5.2523 11.0769 4.9723 10.6669 4.9723 10.2069ZM6.9123 14.1469V12.8769L7.4323 13.1169V15.5269C7.0923 15.0969 6.9123 14.6169 6.9123 14.1469ZM8.5323 16.4569V13.6269L10.5923 14.5769C11.3223 14.9069 11.9923 15.0569 12.6023 15.0469C13.2023 15.0569 13.8823 14.9069 14.6023 14.5769L18.2823 12.8769V14.1469C18.2823 16.0269 15.7723 17.4169 12.6023 17.4169C11.0023 17.4169 9.5623 17.0669 8.5323 16.4569ZM6.8223 18.8769V17.8469C6.8223 17.4069 7.0523 17.0769 7.4323 16.9569V15.5269C7.7023 15.8769 8.0723 16.2069 8.5323 16.4569V16.9569C8.8923 17.0769 9.1423 17.4169 9.1423 17.8469V18.8769C9.1423 19.4569 8.7523 19.8269 8.2023 19.8269H7.7623C7.1923 19.8269 6.8223 19.4569 6.8223 18.8769Z" />
        </svg>
    