
        <svg xmlns="http://www.w3.org/2000/svg" viewBox="0 0 100 100">
            <path d="M11.9523 23.9041C18.5523 23.9041 23.9023 18.5541 23.9023 11.9541C23.9023 5.3641 18.5523 0.0041 11.9523 0.0041C5.3623 0.0041 0.0023 5.3641 0.0023 11.9541C0.0023 18.5541 5.3623 23.9041 11.9523 23.9041ZM4.3523 9.8641C4.3523 9.5941 4.5223 9.2941 4.8823 9.1241L10.4323 6.5941C11.0123 6.3441 11.4723 6.2141 11.9423 6.2241C12.4123 6.2141 12.8823 6.3441 13.4523 6.5941L19.0123 9.1241C19.3723 9.2941 19.5323 9.5941 19.5323 9.8641C19.5323 10.1641 19.3723 10.4441 19.0123 10.6041L13.4523 13.1641C12.8823 13.4141 12.4123 13.5341 11.9423 13.5241C11.4723 13.5341 11.0123 13.4141 10.4323 13.1641L8.0523 12.0541L11.4223 10.4741C11.5923 10.5241 11.7823 10.5441 11.9623 10.5441C12.5823 10.5441 13.1923 10.2641 13.1923 9.8641C13.1923 9.4841 12.5823 9.2241 11.9623 9.2241C11.3523 9.2241 10.7223 9.4841 10.7223 9.8641C10.7223 9.9141 10.7323 9.9741 10.7623 10.0041L7.1923 11.6641L4.8823 10.6041C4.5223 10.4441 4.3523 10.1641 4.3523 9.8641ZM6.4723 14.1241V12.2141L7.2223 12.5641V15.7141C6.7423 15.2041 6.4723 14.6141 6.4723 14.1241ZM8.0323 16.3341V12.9241L10.1023 13.8841C10.7723 14.1941 11.3823 14.3441 11.9423 14.3341C12.5023 14.3441 13.1123 14.1941 13.7823 13.8841L17.4123 12.2141V14.1241C17.4123 15.8041 15.2923 17.2341 11.9423 17.2341C10.3123 17.2341 8.9623 16.9141 8.0323 16.3341ZM6.8223 18.6341V17.4141C6.8223 17.0841 6.9723 16.8541 7.2223 16.7441V15.7141C7.4523 15.9541 7.7123 16.1641 8.0323 16.3341V16.7541C8.2623 16.8641 8.4223 17.0941 8.4223 17.4141V18.6341C8.4223 19.0741 8.1323 19.3641 7.6923 19.3641H7.5423C7.0923 19.3641 6.8223 19.0741 6.8223 18.6341Z" />
        </svg>
    