
        <svg xmlns="http://www.w3.org/2000/svg" viewBox="0 0 100 100">
            <path d="M3.1617 20.742H17.5917C19.6617 20.742 20.7417 19.642 20.7417 17.592V3.152C20.7417 1.102 19.6617 0.002 17.5917 0.002H3.1617C1.0917 0.002 0.0017 1.082 0.0017 3.152V17.592C0.0017 19.662 1.0917 20.742 3.1617 20.742ZM7.5217 14.622C7.2417 14.622 7.0517 14.442 7.0517 14.172C7.0517 13.952 7.1517 13.812 7.3817 13.702L13.5817 10.402V10.352L7.3817 7.042C7.1517 6.912 7.0517 6.772 7.0517 6.562C7.0517 6.292 7.2417 6.102 7.5117 6.102C7.6417 6.102 7.7117 6.142 7.8317 6.202L14.4617 9.872C14.6817 9.982 14.7917 10.162 14.7917 10.382C14.7917 10.622 14.6817 10.782 14.4617 10.902L7.8317 14.532C7.7117 14.592 7.6417 14.622 7.5217 14.622Z" />
        </svg>
    