
        <svg xmlns="http://www.w3.org/2000/svg" viewBox="0 0 100 100">
            <path d="M4.3817 22.8467H18.4717C21.2617 22.8467 22.8517 21.2667 22.8517 18.4767V4.3667C22.8517 1.5867 21.2617 -0.0033 18.4717 -0.0033H4.3817C1.5917 -0.0033 0.0017 1.5867 0.0017 4.3667V18.4767C0.0017 21.2667 1.5917 22.8467 4.3817 22.8467ZM4.8717 19.2267C4.0417 19.2267 3.6217 18.8567 3.6217 17.9767V4.8867C3.6217 4.0067 4.0417 3.6367 4.8717 3.6367H17.9717C18.8017 3.6367 19.2217 4.0067 19.2217 4.8867V17.9767C19.2217 18.8567 18.8017 19.2267 17.9717 19.2267ZM8.8317 13.4567C9.0217 13.4567 9.2117 13.4167 9.4617 13.2967L15.0017 10.7467C15.6217 10.4667 15.9117 10.0867 15.9117 9.5167C15.9117 8.9267 15.6217 8.4967 15.0017 8.2167L9.4617 5.6567C9.2117 5.5567 9.0217 5.5167 8.8317 5.5167C8.0817 5.5167 7.6217 6.2267 7.6217 6.7967C7.6217 7.2567 7.8917 7.6767 8.3717 7.8867L11.9917 9.4667V9.5067L8.3717 11.0767C7.8917 11.2867 7.6217 11.7067 7.6217 12.1767C7.6217 12.7367 8.0817 13.4567 8.8317 13.4567ZM15.9617 15.9567C15.9617 15.2567 15.4017 14.7167 14.6417 14.7167H8.4717C7.7217 14.7167 7.1617 15.2567 7.1617 15.9567C7.1617 16.6567 7.7217 17.1767 8.4717 17.1767H14.6417C15.4017 17.1767 15.9617 16.6567 15.9617 15.9567Z" />
        </svg>
    