
        <svg xmlns="http://www.w3.org/2000/svg" viewBox="0 0 100 100">
            <path d="M3.9717 22.1117H18.1317C20.7317 22.1117 22.1017 20.7417 22.1017 18.1717V3.9417C22.1017 1.3717 20.7317 0.0017 18.1317 0.0017H3.9717C1.3817 0.0017 0.0017 1.3717 0.0017 3.9417V18.1717C0.0017 20.7417 1.3817 22.1117 3.9717 22.1117ZM4.1917 19.5017C3.1617 19.5017 2.6117 18.9817 2.6117 17.9017V4.2217C2.6117 3.1417 3.1617 2.6117 4.1917 2.6117H17.9217C18.9217 2.6117 19.5017 3.1417 19.5017 4.2217V17.9017C19.5017 18.9817 18.9217 19.5017 17.9217 19.5017ZM8.1717 15.7517C8.4217 15.7517 8.6217 15.7017 8.8517 15.6017L15.4917 12.2217C16.0317 11.9417 16.3017 11.6117 16.3017 11.0717C16.3017 10.5517 16.0317 10.1717 15.4917 9.9017L8.8517 6.4217C8.6217 6.3117 8.4217 6.2717 8.1417 6.2717C7.4717 6.2717 6.9917 6.7517 6.9917 7.4017C6.9917 7.9417 7.2617 8.2817 7.9017 8.5617L12.9717 10.9817V11.0717L7.9017 13.4517C7.2517 13.7317 6.9917 14.0617 6.9917 14.6117C6.9917 15.2717 7.4917 15.7517 8.1717 15.7517Z" />
        </svg>
    