
        <svg xmlns="http://www.w3.org/2000/svg" viewBox="0 0 100 100">
            <path d="M4.1417 22.4041H18.2717C20.9517 22.4041 22.4017 20.9541 22.4017 18.3041V4.1141C22.4017 1.4641 20.9517 0.0041 18.2717 0.0041H4.1417C1.4617 0.0041 0.0017 1.4541 0.0017 4.1141V18.3041C0.0017 20.9541 1.4617 22.4041 4.1417 22.4041ZM4.4617 19.3841C3.5317 19.3841 3.0217 18.9241 3.0217 17.9341V4.4841C3.0217 3.4941 3.5317 3.0241 4.4617 3.0241H17.9417C18.8817 3.0241 19.3817 3.4941 19.3817 4.4841V17.9341C19.3817 18.9241 18.8817 19.3841 17.9417 19.3841ZM8.3917 15.8541C8.6717 15.8541 8.9017 15.7941 9.1417 15.6841L15.6017 12.4441C16.1717 12.1641 16.4617 11.8041 16.4617 11.2341C16.4617 10.6741 16.1717 10.2641 15.6017 9.9841L9.1417 6.6841C8.8917 6.5541 8.6717 6.5041 8.3817 6.5041C7.6517 6.5041 7.1217 7.0341 7.1217 7.7541C7.1217 8.3641 7.4217 8.7341 8.1417 9.0341L12.7117 11.1441V11.2541L8.1417 13.3241C7.4017 13.6141 7.1217 13.9841 7.1217 14.5941C7.1217 15.3241 7.6517 15.8541 8.3917 15.8541Z" />
        </svg>
    