
        <svg xmlns="http://www.w3.org/2000/svg" viewBox="0 0 100 100">
            <path d="M12.1023 24.2064C18.7823 24.2064 24.2123 18.7864 24.2123 12.1064C24.2123 5.4264 18.7823 -0.0036 12.1023 -0.0036C5.4223 -0.0036 0.0023 5.4264 0.0023 12.1064C0.0023 18.7864 5.4223 24.2064 12.1023 24.2064ZM9.1623 14.3364C8.5623 14.3364 8.1723 13.8164 8.1723 13.3364C8.1723 12.9464 8.3923 12.5864 8.7823 12.4264L13.5423 10.3164V10.2764L8.7823 8.1764C8.3923 7.9964 8.1723 7.6364 8.1723 7.2564C8.1723 6.7664 8.5623 6.2664 9.1623 6.2664C9.3123 6.2664 9.4723 6.3064 9.7423 6.4264L15.7123 9.1064C16.3123 9.3764 16.5423 9.7964 16.5423 10.2964C16.5423 10.8564 16.3223 11.2264 15.7123 11.4864L9.7423 14.1664C9.4723 14.2964 9.3123 14.3364 9.1623 14.3364ZM16.6623 17.0464C16.6623 17.5664 16.2223 18.0264 15.6423 18.0264H8.7623C8.1823 18.0264 7.7423 17.5664 7.7423 17.0464C7.7423 16.4964 8.1823 16.0664 8.7623 16.0664H15.6423C16.2223 16.0664 16.6623 16.4964 16.6623 17.0464Z" />
        </svg>
    