
        <svg xmlns="http://www.w3.org/2000/svg" viewBox="0 0 100 100">
            <path d="M1.3617 13.6038C1.6217 13.6038 1.7917 13.5238 1.9817 13.4338L13.3217 8.0038C13.8317 7.7738 14.1917 7.4138 14.1917 6.8538C14.1917 6.3038 13.8117 5.9438 13.3117 5.6938L1.9817 0.1537C1.8017 0.0738 1.6317 0.0038 1.3817 0.0038C0.9217 0.0038 0.6017 0.3137 0.6017 0.7838C0.6017 1.1938 0.8017 1.4438 1.1617 1.5938L12.0717 6.7538V6.8538L1.1617 12.0038C0.8117 12.1638 0.6017 12.3938 0.6017 12.7938C0.6017 13.2938 0.9117 13.6038 1.3617 13.6038ZM14.1917 18.5038C14.1917 18.0738 13.8317 17.7138 13.4017 17.7138H0.8017C0.3617 17.7138 0.0017 18.0738 0.0017 18.5038C0.0017 18.9338 0.3617 19.3038 0.8017 19.3038H13.4017C13.8317 19.3038 14.1917 18.9338 14.1917 18.5038Z" />
        </svg>
    