
        <svg xmlns="http://www.w3.org/2000/svg" viewBox="0 0 100 100">
            <path d="M1.7717 22.7904L14.6817 25.0604C16.7717 25.4404 18.1617 24.3304 18.1617 22.1604V7.5404C18.1617 6.5104 17.8217 5.7604 17.1217 5.2404V2.4304C17.1217 0.5904 15.8517 -0.2996 13.7117 0.0904L1.4317 2.2704C0.5117 2.4204 0.0017 3.0504 0.0017 4.1004V20.6904C0.0017 21.9004 0.5517 22.5804 1.7717 22.7904ZM15.2417 4.5404L3.4717 2.4704L13.8917 0.6404C15.5517 0.3304 16.5517 1.0304 16.5517 2.4704V4.9304C16.1717 4.7604 15.7517 4.6404 15.2417 4.5404ZM1.8517 22.2304C0.9817 22.0804 0.5717 21.5804 0.5717 20.6504V4.2004C0.5717 3.1504 1.2517 2.6304 2.4117 2.8404L15.2317 5.1004C16.8517 5.3904 17.5917 6.1704 17.5917 7.4104V22.1804C17.5917 23.9404 16.4617 24.8004 14.7817 24.5004ZM2.3817 8.1904C2.3817 8.6004 2.9517 8.6104 2.9517 8.1904V6.2904C2.9517 5.6504 3.3117 5.4204 4.0317 5.5404L5.8817 5.8704C6.2417 5.9204 6.3917 5.3404 5.9517 5.2704L4.1617 4.9604C3.0917 4.7804 2.3817 5.1504 2.3817 6.1704ZM15.2117 10.4504C15.2117 10.8104 15.8017 10.8704 15.8017 10.4504V8.7504C15.8017 7.6004 15.1317 6.8904 13.6917 6.6404L12.6417 6.4504C12.2717 6.3804 12.0917 6.9404 12.6217 7.0504L13.6317 7.2404C14.7317 7.4204 15.2117 7.8904 15.2117 8.7404ZM2.9517 17.0804C2.9517 16.7204 2.3817 16.6604 2.3817 17.0804V18.7804C2.3817 19.9304 3.0317 20.6504 4.4717 20.8904L5.5217 21.0804C5.8917 21.1404 6.0717 20.5604 5.5417 20.4804L4.5317 20.2904C3.4417 20.1004 2.9517 19.6404 2.9517 18.7904ZM15.8017 19.3404C15.8017 18.9304 15.2117 18.9204 15.2117 19.3404V21.2404C15.2117 21.8704 14.8517 22.1104 14.1317 21.9904L12.2817 21.6604C11.9217 21.6004 11.7817 22.1904 12.2117 22.2604L14.0017 22.5704C15.0717 22.7504 15.8017 22.3804 15.8017 21.3604Z" />
        </svg>
    