
        <svg xmlns="http://www.w3.org/2000/svg" viewBox="0 0 100 100">
            <path d="M12.1023 24.2064C18.7823 24.2064 24.2123 18.7864 24.2123 12.1064C24.2123 5.4264 18.7823 -0.0036 12.1023 -0.0036C5.4223 -0.0036 0.0023 5.4264 0.0023 12.1064C0.0023 18.7864 5.4223 24.2064 12.1023 24.2064ZM5.1823 14.4564C5.1823 13.9264 5.5523 13.5564 6.1523 13.5564H8.8023V10.6564H6.1523C5.5523 10.6564 5.1823 10.2864 5.1823 9.7364C5.1823 9.1564 5.5523 8.7964 6.1523 8.7964H8.8023V6.1664C8.8023 5.5564 9.1523 5.1864 9.7223 5.1864C10.2823 5.1864 10.6423 5.5564 10.6423 6.1664V8.7964H13.5723V6.1664C13.5723 5.5564 13.9223 5.1864 14.4823 5.1864C15.0623 5.1864 15.4223 5.5564 15.4223 6.1664V8.7964H18.0623C18.6523 8.7964 19.0323 9.1564 19.0323 9.7364C19.0323 10.2864 18.6523 10.6564 18.0623 10.6564H15.4223V13.5564H18.0623C18.6523 13.5564 19.0323 13.9264 19.0323 14.4564C19.0323 15.0464 18.6523 15.3964 18.0623 15.3964H15.4223V18.0464C15.4223 18.6564 15.0623 19.0164 14.4823 19.0164C13.9223 19.0164 13.5723 18.6564 13.5723 18.0464V15.3964H10.6423V18.0464C10.6423 18.6564 10.2823 19.0164 9.7223 19.0164C9.1523 19.0164 8.8023 18.6564 8.8023 18.0464V15.3964H6.1523C5.5523 15.3964 5.1823 15.0464 5.1823 14.4564ZM10.6423 13.5564H13.5723V10.6564H10.6423Z" />
        </svg>
    