
        <svg xmlns="http://www.w3.org/2000/svg" viewBox="0 0 100 100">
            <path d="M13.3723 4.4906C15.4723 4.4906 17.3823 5.2106 18.9023 6.4306C19.1523 6.6306 19.4623 6.6006 19.6923 6.3706L22.0123 4.0706C22.2823 3.8006 22.2823 3.4106 21.9923 3.1606C19.6623 1.1906 16.6423 0.0006 13.3723 0.0006C10.1023 0.0006 7.0823 1.1906 4.7423 3.1606C4.4623 3.4106 4.4623 3.8006 4.7323 4.0706L7.0623 6.3706C7.2923 6.6006 7.6123 6.6206 7.8723 6.4106C9.3723 5.2106 11.2923 4.4906 13.3723 4.4906ZM26.7423 13.3706C26.7423 10.0906 25.5723 7.0806 23.5823 4.7506C23.3423 4.4606 22.9323 4.4906 22.6723 4.7306L20.3623 7.0406C20.1423 7.2806 20.1323 7.6006 20.3223 7.8506C21.5423 9.3606 22.2523 11.2806 22.2523 13.3706C22.2523 15.4706 21.5323 17.4006 20.3323 18.9006C20.1223 19.1606 20.1323 19.4806 20.3523 19.7106L22.6623 22.0506C22.9223 22.3206 23.3223 22.3106 23.5623 22.0306C25.5423 19.7006 26.7423 16.6606 26.7423 13.3706ZM0.0023 13.3706C0.0023 16.6606 1.1923 19.7006 3.1923 22.0306C3.4223 22.3106 3.8323 22.3206 4.0823 22.0506L6.3823 19.7106C6.6223 19.4806 6.6323 19.1606 6.4223 18.9006C5.2223 17.4006 4.4923 15.4706 4.4923 13.3706C4.4923 11.2806 5.2123 9.3606 6.4223 7.8506C6.6223 7.6006 6.6023 7.2806 6.3723 7.0406L4.0623 4.7306C3.8123 4.4906 3.4123 4.4606 3.1623 4.7506C1.1823 7.0806 0.0023 10.0906 0.0023 13.3706ZM13.4523 19.7806C13.5823 19.7806 13.6923 19.6906 13.6923 19.5506V18.3406C15.7023 18.2806 17.1723 17.0106 17.1723 14.5506V13.9006C17.1723 13.6906 17.0423 13.5606 16.8323 13.5606H13.6923V9.1606C15.2023 9.2306 16.3123 10.2306 16.5123 11.4406C16.5323 11.5906 16.6023 11.6706 16.7823 11.6706C16.9423 11.6706 17.0523 11.5506 17.0523 11.3906C17.0523 11.2506 17.0123 11.1206 16.9723 10.9906C16.4723 9.4206 15.0723 8.7106 13.6923 8.6606V7.5606C13.6923 7.4306 13.5823 7.3206 13.4523 7.3206C13.3123 7.3206 13.2323 7.4306 13.2323 7.5606V8.6606C10.7223 8.8106 9.3823 10.7906 9.3823 13.4606C9.3823 16.1206 10.7223 18.1906 13.2323 18.3406V19.5506C13.2323 19.6906 13.3123 19.7806 13.4523 19.7806ZM9.9823 13.4606C9.9823 11.2406 11.0023 9.3306 13.2323 9.1806V17.8206C11.0823 17.6706 9.9823 15.8406 9.9823 13.4606ZM16.6123 14.0406V14.6806C16.6123 16.4406 15.5523 17.7606 13.6923 17.8406V14.0406Z" />
        </svg>
    