
        <svg xmlns="http://www.w3.org/2000/svg" viewBox="0 0 100 100">
            <path d="M1.3517 22.137H24.0017V21.497C24.0017 21.137 23.7917 20.927 23.4217 20.927H22.6717V7.597H23.7517C24.2417 7.597 24.5317 7.247 24.5317 6.867C24.5317 6.607 24.3917 6.367 24.0617 6.177L14.0017 0.377C13.5717 0.127 13.1117 -0.003 12.6717 -0.003C12.2317 -0.003 11.7617 0.127 11.3417 0.377L1.2917 6.177C0.9617 6.367 0.8217 6.607 0.8217 6.867C0.8217 7.247 1.0917 7.597 1.5917 7.597H2.6717V20.927H1.9217C1.5717 20.927 1.3517 21.137 1.3517 21.497ZM4.0417 20.927V6.277L12.1217 1.727C12.2817 1.627 12.4817 1.567 12.6717 1.567C12.8717 1.567 13.0517 1.627 13.2317 1.727L21.3017 6.277V20.927ZM12.7117 18.687C12.9117 18.687 13.0517 18.547 13.0517 18.347V17.307C15.3317 17.187 16.7317 15.747 16.7317 13.227V12.667C16.7317 12.307 16.5117 12.077 16.1717 12.077H13.0517V8.087C14.2617 8.187 15.2617 8.957 15.5317 10.007C15.6317 10.297 15.7617 10.427 16.0617 10.427C16.3617 10.427 16.5617 10.227 16.5617 9.927C16.5617 9.787 16.5317 9.617 16.4617 9.437C15.9517 7.967 14.4917 7.197 13.0517 7.117V6.107C13.0517 5.907 12.9117 5.767 12.7117 5.767C12.5117 5.767 12.3717 5.907 12.3717 6.107V7.117C9.7417 7.297 8.3417 9.437 8.3417 12.187C8.3417 14.997 9.7817 17.097 12.3717 17.297V18.347C12.3717 18.547 12.5117 18.687 12.7117 18.687ZM9.4917 12.177C9.4917 10.147 10.3817 8.307 12.3717 8.097V16.317C10.4517 16.097 9.4917 14.327 9.4917 12.177ZM15.6517 12.987V13.467C15.6517 15.067 14.7217 16.217 13.0517 16.337V12.987ZM0.7217 24.497H24.6217C25.0217 24.497 25.3517 24.167 25.3517 23.767C25.3517 23.367 25.0217 23.037 24.6217 23.037H0.7217C0.3317 23.037 0.0017 23.367 0.0017 23.767C0.0017 24.167 0.3317 24.497 0.7217 24.497Z" />
        </svg>
    