
        <svg xmlns="http://www.w3.org/2000/svg" viewBox="0 0 100 100">
            <path d="M1.4417 28.2972H27.6817C28.4517 28.2972 29.1317 27.6672 29.1317 26.8572C29.1317 26.0772 28.4517 25.4172 27.6817 25.4172H27.0917V24.3172C27.0917 23.6672 26.6817 23.2772 26.0517 23.2772H25.5917V9.4672H26.5317C27.4917 9.4672 28.0517 8.7572 28.0517 8.0372C28.0517 7.5072 27.7617 7.0272 27.1517 6.6672L16.4617 0.5072C15.9217 0.1972 15.2917 -0.0028 14.7117 -0.0028C14.1217 -0.0028 13.4917 0.1972 12.9517 0.5072L2.2617 6.6672C1.6517 7.0272 1.3617 7.5072 1.3617 8.0372C1.3617 8.7572 1.9217 9.4672 2.8917 9.4672H3.8317V23.2772H3.3717C2.7317 23.2772 2.3317 23.6672 2.3317 24.3172V25.4172H1.4417C0.6717 25.4172 0.0017 26.0772 0.0017 26.8572C0.0017 27.6572 0.6717 28.2972 1.4417 28.2972ZM14.8017 21.9072C14.6117 21.9072 14.4617 21.7772 14.4617 21.5772V20.8272C11.4717 20.6372 9.8817 18.6172 9.8817 15.5072C9.8817 12.4372 11.4917 10.3472 14.4617 10.1972V9.4172C14.4617 9.2272 14.6117 9.0972 14.8017 9.0972C14.9917 9.0972 15.1317 9.2272 15.1317 9.4172V10.1972C16.6517 10.2672 18.2617 10.8972 18.9517 12.2572C19.0617 12.4872 19.1217 12.7472 19.1217 12.9872C19.1217 13.6572 18.6917 14.0872 18.0217 14.0872C17.4417 14.0872 17.1217 13.8172 16.8417 13.4172C16.4717 12.7872 15.9117 12.3672 15.1317 12.2672V14.9672H18.2117C19.0217 14.9672 19.4717 15.5272 19.4717 16.3472V16.5272C19.4717 19.0872 17.8017 20.7372 15.1317 20.8372V21.5772C15.1317 21.7772 14.9917 21.9072 14.8017 21.9072ZM12.5617 15.4672C12.5617 16.9872 13.0817 18.4172 14.4617 18.7072V12.3072C13.0117 12.5172 12.5617 13.9772 12.5617 15.4672ZM15.1317 18.7372C16.1917 18.6772 16.8917 18.0272 16.9117 17.0272L16.9317 16.7072H15.1317Z" />
        </svg>
    