
        <svg xmlns="http://www.w3.org/2000/svg" viewBox="0 0 100 100">
            <path d="M11.4923 22.977C17.8323 22.977 22.9823 17.847 22.9823 11.497C22.9823 5.147 17.8323 -0.003 11.4923 -0.003C5.1423 -0.003 0.0023 5.147 0.0023 11.497C0.0023 17.847 5.1423 22.977 11.4923 22.977ZM11.4923 22.087C5.6323 22.087 0.8923 17.357 0.8923 11.497C0.8923 5.637 5.6323 0.887 11.4923 0.887C17.3523 0.887 22.0923 5.637 22.0923 11.497C22.0923 17.357 17.3523 22.087 11.4923 22.087ZM11.5523 17.827C11.7023 17.827 11.8223 17.707 11.8223 17.547V16.397C13.9323 16.317 15.3723 14.987 15.3723 12.507V11.887C15.3723 11.627 15.2123 11.457 14.9523 11.457H11.8223V7.207C13.2323 7.287 14.2923 8.207 14.5323 9.347C14.5823 9.567 14.6723 9.647 14.8923 9.647C15.0923 9.647 15.2323 9.507 15.2323 9.297C15.2323 9.167 15.2123 9.007 15.1523 8.857C14.6523 7.327 13.2323 6.597 11.8223 6.537V5.477C11.8223 5.317 11.7023 5.207 11.5523 5.207C11.3923 5.207 11.2823 5.317 11.2823 5.477V6.537C8.7423 6.707 7.3823 8.727 7.3823 11.437C7.3823 14.147 8.7523 16.217 11.2823 16.397V17.547C11.2823 17.707 11.3923 17.827 11.5523 17.827ZM8.1723 11.437C8.1723 9.267 9.1523 7.387 11.2823 7.207V15.717C9.2223 15.537 8.1723 13.737 8.1723 11.437ZM14.6323 12.077V12.677C14.6323 14.377 13.6123 15.647 11.8223 15.727V12.077Z" />
        </svg>
    