
        <svg xmlns="http://www.w3.org/2000/svg" viewBox="0 0 100 100">
            <path d="M3.8417 21.8745H18.0317C20.5617 21.8745 21.8817 20.5745 21.8817 18.0745V3.8045C21.8817 1.3145 20.5617 0.0045 18.0317 0.0045H3.8417C1.3117 0.0045 0.0017 1.3045 0.0017 3.8045V18.0745C0.0017 20.5745 1.3117 21.8745 3.8417 21.8745ZM11.0117 17.5945C10.7717 17.5945 10.6017 17.4245 10.6017 17.2045V16.2545C7.8317 16.0445 6.2717 13.8845 6.2717 10.8745C6.2717 7.9545 7.7817 5.7145 10.6017 5.5145V4.5845C10.6017 4.3445 10.7717 4.1845 11.0117 4.1845C11.2217 4.1845 11.4017 4.3445 11.4017 4.5845V5.5045C12.9117 5.6245 14.4517 6.3845 15.0217 7.8245C15.1317 8.0545 15.1517 8.2645 15.1517 8.4345C15.1517 8.8745 14.8617 9.1645 14.4117 9.1645C13.9717 9.1645 13.7817 8.9745 13.5917 8.6045C13.2917 7.6845 12.4217 7.0745 11.4017 6.9645V10.5745H14.5517C15.0717 10.5745 15.4017 10.9245 15.4017 11.4745V11.9145C15.4017 14.5345 13.9117 16.1345 11.4017 16.2645V17.2045C11.4017 17.4245 11.2217 17.5945 11.0117 17.5945ZM8.0317 10.8545C8.0317 12.8245 8.8617 14.5145 10.6017 14.7845V6.9745C8.7917 7.2145 8.0317 9.0045 8.0317 10.8545ZM11.4017 14.8045C12.8717 14.6945 13.7217 13.6945 13.7317 12.2645V11.8745H11.4017Z" />
        </svg>
    