
        <svg xmlns="http://www.w3.org/2000/svg" viewBox="0 0 100 100">
            <path d="M9.3717 26.0739C9.7817 26.0739 10.0817 25.7839 10.0817 25.3739V23.4739C15.1717 23.2739 18.2017 20.0639 18.2017 15.0439V14.4239C18.2017 13.0739 17.4517 12.2439 16.2117 12.2439H10.0817V5.9639C11.8217 6.1439 13.3017 7.1339 13.9917 8.7639C14.4417 9.5539 14.9717 9.9639 15.9017 9.9639C16.9217 9.9639 17.6417 9.2339 17.6417 8.1939C17.6417 7.7839 17.5217 7.3039 17.3417 6.9239C16.1617 4.1939 13.0817 2.7639 10.0817 2.6039V0.7039C10.0817 0.2939 9.7817 0.0039 9.3717 0.0039C8.9617 0.0039 8.6717 0.2939 8.6717 0.7039V2.6139C3.1317 2.9539 0.0017 6.9939 0.0017 13.0039C0.0017 18.9539 2.9917 23.0739 8.6717 23.4539V25.3739C8.6717 25.7839 8.9617 26.0739 9.3717 26.0739ZM4.2117 12.9739C4.2117 9.4539 5.5517 6.4239 8.6717 5.9839V20.0539C5.5517 19.5339 4.2117 16.4539 4.2117 12.9739ZM14.2017 15.1239L14.1917 15.8639C14.1717 18.2839 12.6117 19.9439 10.0817 20.1239V15.1239Z" />
        </svg>
    