
        <svg xmlns="http://www.w3.org/2000/svg" viewBox="0 0 100 100">
            <path d="M27.7423 13.8218C27.7423 6.5518 22.1523 0.5918 15.0423 0.0018C14.6723 -0.0282 14.3923 0.2418 14.3923 0.6118V4.2618C14.3923 4.5718 14.6123 4.8218 14.9423 4.8518C19.4023 5.3818 22.8823 9.1918 22.8823 13.8218C22.8823 15.9218 22.1623 17.8518 20.8923 19.4418C20.7223 19.6718 20.7323 19.9318 20.9323 20.1518L23.5623 22.7718C23.8323 23.0418 24.2323 23.0418 24.4723 22.7618C26.5123 20.3318 27.7423 17.2218 27.7423 13.8218ZM0.0023 13.8218C0.0023 17.2218 1.2323 20.3518 3.2823 22.7718C3.5123 23.0418 3.8923 23.0418 4.1623 22.7718L6.8123 20.1518C7.0123 19.9318 7.0123 19.6718 6.8323 19.4418C5.5623 17.8518 4.8523 15.9218 4.8523 13.8218C4.8523 9.1918 8.3323 5.3818 12.7923 4.8518C13.1123 4.8218 13.3323 4.5718 13.3323 4.2618V0.6118C13.3323 0.2418 13.0523 -0.0282 12.6823 0.0018C5.5923 0.5918 0.0023 6.5518 0.0023 13.8218ZM13.9023 20.4018C14.1023 20.4018 14.2423 20.2618 14.2423 20.0618V19.0218C16.5023 18.9218 17.9223 17.4618 17.9223 14.9418V14.3818C17.9223 14.0218 17.6823 13.7918 17.3423 13.7918H14.2423V9.8018C15.4323 9.9018 16.4323 10.6718 16.7123 11.7218C16.8023 12.0118 16.9323 12.1418 17.2523 12.1418C17.5423 12.1418 17.7423 11.9418 17.7423 11.6518C17.7423 11.5118 17.7223 11.3318 17.6323 11.1518C17.1223 9.6818 15.6823 8.9218 14.2423 8.8318V7.8318C14.2423 7.6218 14.1023 7.4818 13.9023 7.4818C13.6923 7.4818 13.5623 7.6218 13.5623 7.8318V8.8318C10.9123 9.0218 9.5123 11.1618 9.5123 13.9018C9.5123 16.7118 10.9723 18.8218 13.5623 19.0118V20.0618C13.5623 20.2618 13.6923 20.4018 13.9023 20.4018ZM10.6723 13.9018C10.6723 11.8718 11.5623 10.0218 13.5623 9.8118V18.0418C11.6323 17.8118 10.6723 16.0418 10.6723 13.9018ZM16.8423 14.7018V15.1918C16.8423 16.7818 15.8923 17.9318 14.2423 18.0518V14.7018Z" />
        </svg>
    