
        <svg xmlns="http://www.w3.org/2000/svg" viewBox="0 0 100 100">
            <path d="M0.2817 23.4614H23.4217C23.5817 23.4614 23.7117 23.3314 23.7117 23.1714C23.7117 23.0114 23.5817 22.8914 23.4217 22.8914H22.7817V22.1914C22.7817 22.0914 22.6917 21.9914 22.5617 21.9914H21.8217V6.7314H22.9717C23.1817 6.7314 23.2717 6.6014 23.2717 6.4314C23.2717 6.3514 23.2217 6.2314 23.1017 6.1614L12.9717 0.3114C12.6117 0.1014 12.2217 0.0014 11.8617 0.0014C11.4817 0.0014 11.1017 0.1014 10.7317 0.3114L0.6117 6.1614C0.4817 6.2314 0.4317 6.3514 0.4317 6.4314C0.4317 6.6014 0.5317 6.7314 0.7417 6.7314H1.9017V21.9914H1.1517C1.0217 21.9914 0.9217 22.0914 0.9217 22.1914V22.8914H0.2817C0.1317 22.8914 0.0017 23.0114 0.0017 23.1714C0.0017 23.3314 0.1317 23.4614 0.2817 23.4614ZM11.9417 19.3814C11.8017 19.3814 11.7217 19.2914 11.7217 19.1514V17.9414C9.2117 17.7914 7.8717 15.7314 7.8717 13.0614C7.8717 10.3914 9.2117 8.4114 11.7217 8.2714V7.1714C11.7217 7.0414 11.8017 6.9414 11.9417 6.9414C12.0717 6.9414 12.1717 7.0414 12.1717 7.1714V8.2614C13.5617 8.3214 14.9517 9.0214 15.4617 10.5914C15.5017 10.7314 15.5317 10.8614 15.5317 10.9914C15.5317 11.1514 15.4317 11.2714 15.2717 11.2714C15.0917 11.2714 15.0217 11.2014 14.9917 11.0414C14.7917 9.8414 13.6717 8.8514 12.1717 8.7814V13.1614H15.3117C15.5117 13.1614 15.6517 13.3014 15.6517 13.5014V14.1714C15.6517 16.6314 14.1817 17.8814 12.1717 17.9514V19.1514C12.1717 19.2914 12.0717 19.3814 11.9417 19.3814ZM8.4717 13.0614C8.4717 15.4614 9.5717 17.2714 11.7217 17.4214V8.7914C9.4917 8.9414 8.4717 10.8514 8.4717 13.0614ZM12.1717 17.4414C14.0317 17.3714 15.0917 16.0414 15.0917 14.3014V13.6514H12.1717Z" />
        </svg>
    