
        <svg xmlns="http://www.w3.org/2000/svg" viewBox="0 0 100 100">
            <path d="M0.1918 23.2778C-0.2682 24.3178 0.0818 25.6078 1.5318 25.6078C2.0518 25.6078 2.4718 25.3978 3.1018 24.8678L6.2418 22.2578C6.3618 22.1578 6.4318 22.1278 6.5018 22.1278C6.5818 22.1278 6.6518 22.1578 6.7718 22.2578L9.9118 24.8678C10.5518 25.3978 10.9718 25.6078 11.4818 25.6078C12.9418 25.6078 13.3018 24.3178 12.8318 23.2778L7.5018 11.2578V5.7178C7.5018 3.0378 7.9618 1.0278 7.9618 0.6278C7.9618 0.2578 7.7118 -0.0022 7.3518 -0.0022C7.1018 -0.0022 6.8918 0.1378 6.6018 0.4778L3.9818 3.4678C3.7418 3.7578 3.8018 4.1378 4.1418 4.2978C5.1818 4.7478 5.5118 4.9078 5.5118 5.7178V11.2778ZM16.3218 25.6178C19.5918 25.6178 21.7818 23.6878 21.7818 20.7378C21.7818 18.2978 20.3218 17.3878 20.3218 16.5378C20.3218 15.5478 21.1418 14.8478 21.1418 13.6278C21.1418 12.7178 20.5118 12.0578 19.6318 12.0578C18.9418 12.0578 18.5318 12.4478 18.2318 12.8078C18.0018 13.0878 17.8118 13.3278 17.6218 13.3278C17.3518 13.3278 17.3018 12.8978 17.3018 12.5478L17.3118 5.2278C17.3118 4.9478 17.3318 4.8878 17.5118 4.8178C17.7818 4.6878 17.8718 4.5478 17.9018 4.2078L18.1418 1.7478C18.1618 1.4978 18.0618 1.2578 17.8718 1.0878L16.8518 0.2078C16.6918 0.0678 16.5018 -0.0022 16.3218 -0.0022C16.1518 -0.0022 15.9618 0.0678 15.8018 0.2078L14.7818 1.0878C14.6018 1.2578 14.4818 1.4978 14.5118 1.7478L14.7418 4.2078C14.7618 4.5478 14.8718 4.7078 15.1418 4.8178C15.3018 4.8778 15.3418 4.9378 15.3418 5.2278L15.3618 12.5478C15.3618 12.9678 15.2618 13.3378 15.0318 13.3378C14.8518 13.3378 14.6618 13.0878 14.4018 12.8078C14.1118 12.4478 13.7118 12.0578 13.0218 12.0578C12.1418 12.0578 11.5118 12.7178 11.5118 13.6278C11.5118 14.8578 12.3318 15.5578 12.3318 16.5378C12.3318 16.9478 11.9418 17.4178 11.5918 18.1078L13.5218 22.4778C13.8418 23.2078 13.9718 23.6678 13.9718 24.1978C13.9718 24.5378 13.9118 24.8578 13.7918 25.1478C14.5518 25.4678 15.4118 25.6178 16.3218 25.6178ZM25.9918 25.5678C29.3118 25.5678 31.4418 23.9678 31.4418 21.4378C31.4418 18.9678 29.8518 18.4478 29.8518 17.3678C29.8518 16.5978 30.2018 15.8978 30.2018 14.8578C30.2018 13.1978 28.9918 12.1178 26.9718 11.8478V4.7478C26.9718 4.2778 27.0318 4.1678 27.2818 3.9878C27.5518 3.8178 27.6418 3.6578 27.6318 3.4178L27.4418 0.4778C27.4318 0.1978 27.2218 -0.0022 26.9618 -0.0022H25.0118C24.7518 -0.0022 24.5518 0.1978 24.5318 0.4778L24.3518 3.4178C24.3418 3.6678 24.4318 3.8078 24.6918 3.9878C24.9518 4.1678 24.9918 4.2878 24.9918 4.7478V11.8478C22.9918 12.1178 21.7818 13.1978 21.7818 14.8578C21.7818 15.8078 22.1218 16.4878 22.1218 17.2178C22.1218 17.3878 22.0618 17.5478 21.9618 17.7078C22.3118 18.3878 22.7418 19.4178 22.7418 20.7378C22.7418 22.0578 22.3618 23.2178 21.6918 24.1378C22.6418 25.0578 24.1318 25.5678 25.9918 25.5678ZM25.9918 18.3778C25.2318 18.3778 24.6218 17.7778 24.6218 17.0278C24.6218 16.2778 25.2418 15.6578 25.9918 15.6578C26.7418 15.6578 27.3518 16.2778 27.3518 17.0278C27.3518 17.7778 26.7418 18.3778 25.9918 18.3778ZM7.8718 17.9278C7.5218 17.9278 7.2318 17.6378 7.2318 17.2978C7.2318 16.9478 7.5218 16.6278 7.8718 16.6278C8.2218 16.6278 8.5218 16.9378 8.5218 17.2978C8.5218 17.6378 8.2218 17.9278 7.8718 17.9278ZM13.7318 20.5478C13.4418 20.4478 13.2818 20.1078 13.3718 19.8278L14.2718 17.1878C14.3718 16.8878 14.6918 16.7178 15.0018 16.8278C15.2918 16.9178 15.4718 17.2578 15.3618 17.5578L14.4818 20.1778C14.3818 20.4878 14.0418 20.6478 13.7318 20.5478ZM18.9018 20.5578C18.6018 20.6378 18.2718 20.4678 18.1718 20.1778L17.2818 17.5578C17.1818 17.2378 17.3718 16.8978 17.6618 16.8278C17.9618 16.7378 18.2818 16.9078 18.3718 17.1878L19.2818 19.8278C19.3718 20.1178 19.1918 20.4678 18.9018 20.5578ZM8.5618 19.5478C8.2218 19.5478 7.9118 19.2578 7.9118 18.8978C7.9118 18.5478 8.2218 18.2478 8.5618 18.2478C8.9218 18.2478 9.2218 18.5378 9.2218 18.8978C9.2218 19.2578 8.9218 19.5478 8.5618 19.5478ZM9.2718 21.1678C8.9218 21.1678 8.6218 20.8578 8.6218 20.5078C8.6218 20.1578 8.9318 19.8478 9.2718 19.8478C9.6318 19.8478 9.9218 20.1578 9.9218 20.5078C9.9218 20.8578 9.6218 21.1678 9.2718 21.1678ZM24.4718 21.7378C24.1318 21.7378 23.8718 21.4678 23.8718 21.1378C23.8718 20.8078 24.1418 20.5478 24.4718 20.5478H27.4918C27.8218 20.5478 28.0918 20.8078 28.0918 21.1378C28.0918 21.4678 27.8218 21.7378 27.4918 21.7378Z" />
        </svg>
    