
        <svg xmlns="http://www.w3.org/2000/svg" viewBox="0 0 100 100">
            <path d="M12.3723 24.7459C19.2023 24.7459 24.7523 19.2059 24.7523 12.3759C24.7523 5.5459 19.2023 -0.0041 12.3723 -0.0041C5.5423 -0.0041 0.0023 5.5459 0.0023 12.3759C0.0023 19.2059 5.5423 24.7459 12.3723 24.7459ZM12.3723 21.6659C7.2423 21.6659 3.0823 17.5059 3.0823 12.3759C3.0823 7.2259 7.2423 3.0859 12.3723 3.0859C17.5223 3.0859 21.6723 7.2259 21.6723 12.3759C21.6723 17.5059 17.5223 21.6659 12.3723 21.6659ZM8.9523 17.7459C9.8923 17.7459 10.4423 17.1359 10.4423 16.1059V13.3759H14.2923V16.1059C14.2923 17.1359 14.8323 17.7459 15.7623 17.7459C16.7023 17.7459 17.2523 17.1359 17.2523 16.1059V8.5559C17.2523 7.5259 16.7023 6.9159 15.7623 6.9159C14.8323 6.9159 14.2923 7.5259 14.2923 8.5559V11.1459H10.4423V8.5559C10.4423 7.5259 9.8923 6.9159 8.9523 6.9159C8.0323 6.9159 7.4723 7.5259 7.4723 8.5559V16.1059C7.4723 17.1359 8.0323 17.7459 8.9523 17.7459Z" />
        </svg>
    