
        <svg xmlns="http://www.w3.org/2000/svg" viewBox="0 0 100 100">
            <path d="M11.9523 23.9041C18.5523 23.9041 23.9023 18.5541 23.9023 11.9541C23.9023 5.3541 18.5523 0.0041 11.9523 0.0041C5.3523 0.0041 0.0023 5.3541 0.0023 11.9541C0.0023 18.5541 5.3523 23.9041 11.9523 23.9041ZM11.9523 21.9141C6.4423 21.9141 1.9923 17.4641 1.9923 11.9541C1.9923 6.4441 6.4423 1.9941 11.9523 1.9941C17.4623 1.9941 21.9123 6.4441 21.9123 11.9541C21.9123 17.4641 17.4623 21.9141 11.9523 21.9141ZM8.2423 17.3241C8.8523 17.3241 9.1923 16.9341 9.1923 16.2741V12.4141H14.6723V16.2741C14.6723 16.9241 15.0223 17.3241 15.6023 17.3241C16.2023 17.3241 16.5423 16.9341 16.5423 16.2741V7.4041C16.5423 6.7541 16.2023 6.3641 15.6023 6.3641C15.0223 6.3641 14.6723 6.7641 14.6723 7.4041V10.9441H9.1923V7.4041C9.1923 6.7541 8.8523 6.3641 8.2423 6.3641C7.6623 6.3641 7.3223 6.7641 7.3223 7.4041V16.2741C7.3223 16.9241 7.6623 17.3241 8.2423 17.3241Z" />
        </svg>
    