
        <svg xmlns="http://www.w3.org/2000/svg" viewBox="0 0 100 100">
            <path d="M3.1617 20.742H17.5917C19.6617 20.742 20.7417 19.642 20.7417 17.592V3.152C20.7417 1.102 19.6617 0.002 17.5917 0.002H3.1617C1.0917 0.002 0.0017 1.082 0.0017 3.152V17.592C0.0017 19.662 1.0917 20.742 3.1617 20.742ZM6.7717 15.682C6.5017 15.682 6.3317 15.492 6.3317 15.202V5.512C6.3317 5.212 6.5017 5.042 6.7717 5.042C7.0517 5.042 7.2317 5.212 7.2317 5.512V9.752H13.5117V5.512C13.5117 5.212 13.6917 5.042 13.9617 5.042C14.2417 5.042 14.4117 5.212 14.4117 5.512V15.202C14.4117 15.492 14.2417 15.682 13.9617 15.682C13.6917 15.682 13.5117 15.492 13.5117 15.202V10.532H7.2317V15.202C7.2317 15.492 7.0517 15.682 6.7717 15.682Z" />
        </svg>
    