
        <svg xmlns="http://www.w3.org/2000/svg" viewBox="0 0 100 100">
            <path d="M14.8017 -0.0045H3.0117C1.0417 -0.0045 0.0017 1.0755 0.0017 3.0155V14.8055C0.0017 16.7355 1.0417 17.8155 3.0117 17.8155H14.8017C16.7617 17.8155 17.8017 16.7655 17.8017 14.8055V3.0155C17.8017 1.0555 16.7617 -0.0045 14.8017 -0.0045ZM5.3717 14.1555C5.1917 14.1555 5.0617 14.0255 5.0617 13.8555V3.9955C5.0617 3.8055 5.1917 3.7055 5.3717 3.7055C5.5517 3.7055 5.6717 3.8055 5.6717 3.9955V8.4155H12.1317V3.9955C12.1317 3.8055 12.2617 3.7055 12.4317 3.7055C12.6217 3.7055 12.7417 3.8055 12.7417 3.9955V13.8555C12.7417 14.0255 12.6217 14.1555 12.4317 14.1555C12.2617 14.1555 12.1317 14.0255 12.1317 13.8555V8.9855H5.6717V13.8555C5.6717 14.0255 5.5517 14.1555 5.3717 14.1555ZM23.4817 7.4855C23.4817 5.5155 22.4417 4.4755 20.4817 4.4755H18.6917V14.8055C18.6917 17.2455 17.2517 18.6955 14.8017 18.6955H5.6817V19.2655C5.6817 21.2155 6.7217 22.2755 8.6917 22.2755H20.4817C22.4417 22.2755 23.4817 21.2355 23.4817 19.2655Z" />
        </svg>
    