
        <svg xmlns="http://www.w3.org/2000/svg" viewBox="0 0 100 100">
            <path d="M3.6817 21.5722H17.8917C20.3517 21.5722 21.5717 20.3722 21.5717 17.9522V3.6322C21.5717 1.2222 20.3517 0.0022 17.8917 0.0022H3.6817C1.2317 0.0022 0.0017 1.2222 0.0017 3.6322V17.9522C0.0017 20.3722 1.2317 21.5722 3.6817 21.5722ZM6.9717 16.3222C6.3717 16.3222 6.0217 15.9122 6.0217 15.2322V6.1022C6.0217 5.4222 6.3717 5.0122 6.9717 5.0122C7.6017 5.0122 7.9617 5.4122 7.9617 6.1022V9.7422H13.6017V6.1022C13.6017 5.4222 13.9717 5.0122 14.5617 5.0122C15.2017 5.0122 15.5517 5.4122 15.5517 6.1022V15.2322C15.5517 15.9222 15.2017 16.3222 14.5617 16.3222C13.9717 16.3222 13.6017 15.9122 13.6017 15.2322V11.2622H7.9617V15.2322C7.9617 15.9222 7.6017 16.3222 6.9717 16.3222Z" />
        </svg>
    