
        <svg xmlns="http://www.w3.org/2000/svg" viewBox="0 0 100 100">
            <path d="M9.7517 5.1933C9.8917 5.1933 9.9817 5.1233 10.0217 4.9733C10.3317 3.2133 10.3317 3.2033 12.1017 2.8733C12.2617 2.8333 12.3517 2.7433 12.3517 2.6033C12.3517 2.4533 12.2617 2.3533 12.1017 2.3233C10.3317 1.9733 10.3917 1.9533 10.0217 0.2333C9.9817 0.0833 9.9017 0.0033 9.7517 0.0033C9.6117 0.0033 9.5017 0.0933 9.4817 0.2333C9.1017 1.9533 9.1617 1.9733 7.3917 2.3233C7.2317 2.3533 7.1517 2.4633 7.1517 2.6033C7.1517 2.7333 7.2317 2.8333 7.3917 2.8733C9.1617 3.2233 9.1517 3.2133 9.4817 4.9733C9.5017 5.1133 9.6117 5.1933 9.7517 5.1933ZM17.5917 8.3533C17.7917 8.3533 17.9317 8.2233 17.9417 8.0133C18.2817 5.2633 18.4117 5.1933 21.2217 4.7233C21.4417 4.7033 21.5717 4.5833 21.5717 4.3833C21.5717 4.1933 21.4417 4.0733 21.2717 4.0433C18.4317 3.5033 18.2817 3.5133 17.9417 0.7633C17.9317 0.5533 17.7917 0.4233 17.5917 0.4233C17.4117 0.4233 17.2717 0.5533 17.2617 0.7533C16.9017 3.5533 16.8017 3.6333 13.9317 4.0433C13.7617 4.0633 13.6317 4.1933 13.6317 4.3833C13.6317 4.5733 13.7617 4.7033 13.9317 4.7233C16.8017 5.2833 16.8917 5.2733 17.2617 8.0433C17.2717 8.2233 17.4117 8.3533 17.5917 8.3533ZM9.4417 27.5533C13.1017 31.2033 17.6517 30.9833 20.9417 27.6933C23.5817 25.0533 24.1017 22.3233 22.9817 19.0233C22.3917 17.1533 21.4117 15.1833 20.2117 12.9633C19.7317 12.0433 19.1617 10.8533 18.7617 10.4533C18.3117 10.0033 17.6917 10.0433 17.2217 10.5133C16.7017 11.0433 16.7217 11.6733 17.1217 12.8433L18.3917 16.4133C18.5417 16.7933 18.5017 17.0233 18.3717 17.1633C18.2017 17.3333 17.9917 17.3533 17.6917 17.0633L9.0017 8.3633C8.5217 7.8833 7.7117 7.8833 7.2317 8.3633C6.7417 8.8633 6.7417 9.6533 7.2317 10.1533L13.4417 16.3633C13.1417 16.5033 12.8217 16.6733 12.5017 16.9033L5.3017 9.6933C4.8017 9.2033 4.0117 9.2033 3.5117 9.6933C3.0217 10.1733 3.0217 10.9833 3.5117 11.4633L10.6417 18.5833C10.3917 18.8633 10.1717 19.1633 9.9617 19.4633L3.4417 12.9533C2.9517 12.4733 2.1517 12.4733 1.6617 12.9533C1.1717 13.4433 1.1717 14.2333 1.6617 14.7333L8.7417 21.8133C8.6017 22.2033 8.5117 22.6033 8.4217 22.9833L3.5017 18.0633C3.0117 17.5633 2.2117 17.5633 1.7217 18.0633C1.2417 18.5433 1.2417 19.3433 1.7217 19.8233ZM15.4817 10.6733L13.1717 8.3633C12.6817 7.8833 11.8717 7.8833 11.3917 8.3633C11.3717 8.3933 11.3517 8.4033 11.3417 8.4333L15.6017 12.7033C15.4617 11.9733 15.4017 11.3133 15.4817 10.6733ZM25.1017 27.7033C27.7417 25.0533 28.2617 22.3133 27.1517 19.0033C26.5517 17.1533 25.5717 15.2033 24.3717 12.9633C23.9017 12.0433 23.3217 10.8533 22.9217 10.4633C22.4717 10.0233 21.8717 10.0433 21.3917 10.5133C21.2217 10.6633 21.1217 10.8533 21.0517 11.0533C21.3017 11.5333 21.5517 12.0233 21.8117 12.4933C22.9417 14.6533 23.9417 16.6733 24.5117 18.5733C25.8017 22.5433 25.0317 25.8733 22.0617 28.8133C21.5617 29.3333 21.0217 29.7633 20.4617 30.1433C22.1217 29.9033 23.7317 29.0633 25.1017 27.7033ZM3.3717 31.2633C3.5417 31.2633 3.6317 31.1633 3.6517 30.9933C4.0917 28.7033 4.0817 28.6533 6.4817 28.1933C6.6417 28.1533 6.7517 28.0633 6.7517 27.8933C6.7517 27.7133 6.6417 27.6333 6.4817 27.5933C4.0817 27.1133 4.1417 27.0733 3.6517 24.7833C3.6317 24.6233 3.5417 24.5133 3.3717 24.5133C3.2117 24.5133 3.1217 24.6233 3.0817 24.7833C2.6017 27.0733 2.6817 27.1133 0.2717 27.5933C0.1017 27.6333 0.0017 27.7133 0.0017 27.8933C0.0017 28.0633 0.1017 28.1533 0.2717 28.1933C2.6817 28.6633 2.6517 28.7033 3.0817 30.9933C3.1217 31.1633 3.2117 31.2633 3.3717 31.2633Z" />
        </svg>
    