
        <svg xmlns="http://www.w3.org/2000/svg" viewBox="0 0 100 100">
            <path d="M9.0813 27.4783C12.2413 27.4783 14.5713 26.3483 16.3313 24.0683C18.1013 21.9883 19.1913 18.3383 19.6513 16.9083C20.1313 15.4383 20.7413 13.5683 20.8913 12.7783C21.0713 11.8683 20.6213 11.1183 19.7913 10.9383C18.8313 10.7383 18.1213 11.2283 17.7113 12.1283L16.0413 15.9183C15.9013 16.2183 15.8013 16.2883 15.5713 16.2983C12.8813 16.3383 11.1913 18.1483 11.1413 20.0483C11.1413 20.5683 10.7313 20.9683 10.2213 20.9483C9.6913 20.9683 9.2713 20.5383 9.2813 20.0283C9.3212 17.6583 10.7313 14.5983 15.4113 14.4283V3.2083C15.4113 2.2583 14.7213 1.5683 13.7813 1.5683C12.8412 1.5683 12.1513 2.2783 12.1513 3.2083V12.8883C11.8913 12.8083 11.6413 12.7283 11.3513 12.6683V1.6283C11.3513 0.6783 10.6713 -0.0017 9.7313 -0.0017C8.7913 -0.0017 8.1113 0.6783 8.1113 1.6283V12.5383C7.8413 12.5783 7.5613 12.5983 7.3013 12.6283V2.5583C7.3013 1.6283 6.6013 0.9183 5.6713 0.9183C4.7312 0.9183 4.0413 1.6283 4.0413 2.5583V13.4483C3.7613 13.5683 3.5013 13.7083 3.2413 13.8383V6.2383C3.2413 5.2883 2.5713 4.5983 1.6312 4.5983C0.6913 4.5983 0.0012 5.2883 0.0012 6.2383V18.5783C0.0012 24.1183 3.9913 27.4783 9.0813 27.4783Z" />
        </svg>
    