
        <svg xmlns="http://www.w3.org/2000/svg" viewBox="0 0 100 100">
            <path d="M12.6023 25.1986C19.5623 25.1986 25.2023 19.5586 25.2023 12.5986C25.2023 5.6386 19.5623 -0.0014 12.6023 -0.0014C5.6323 -0.0014 0.0023 5.6386 0.0023 12.5986C0.0023 19.5586 5.6323 25.1986 12.6023 25.1986ZM12.6023 21.5386C7.6523 21.5386 3.6523 17.5386 3.6523 12.5986C3.6523 7.6486 7.6523 3.6586 12.6023 3.6586C17.5423 3.6586 21.5423 7.6486 21.5423 12.5986C21.5423 17.5386 17.5423 21.5386 12.6023 21.5386ZM8.2523 14.6086C8.2523 17.2686 10.1623 18.9186 12.6223 18.9186C14.1523 18.9186 15.2923 18.3786 16.1623 17.1986C16.9823 16.1986 17.4823 14.5086 17.7323 13.7686C17.9423 13.0786 18.2323 12.1986 18.3023 11.8286C18.3823 11.3886 18.1623 11.0386 17.7523 10.9486C17.3123 10.8586 16.9523 11.1086 16.7723 11.5386L15.9623 13.3686C15.9023 13.5086 15.8523 13.5586 15.7823 13.5586C15.7023 13.5586 15.6523 13.4986 15.6523 13.3586V7.2286C15.6523 6.7886 15.3123 6.4586 14.8723 6.4586C14.4223 6.4586 14.1023 6.7986 14.1023 7.2286V11.8686C13.9823 11.8386 13.8523 11.7986 13.7123 11.7786V6.4586C13.7123 6.0086 13.3723 5.6786 12.9423 5.6786C12.4823 5.6786 12.1523 6.0086 12.1523 6.4586V11.7086C12.0223 11.7286 11.8923 11.7286 11.7823 11.7586V6.9186C11.7823 6.4786 11.4223 6.1286 10.9823 6.1286C10.5323 6.1286 10.2023 6.4786 10.2023 6.9186V12.1486C10.0523 12.2086 9.9523 12.2786 9.8223 12.3386V8.7086C9.8223 8.2386 9.4923 7.9086 9.0423 7.9086C8.6023 7.9086 8.2523 8.2386 8.2523 8.7086Z" />
        </svg>
    