
        <svg xmlns="http://www.w3.org/2000/svg" viewBox="0 0 100 100">
            <path d="M19.2917 1.2348C18.3417 0.2948 17.0717 0.0048 14.7817 0.0048H5.6117C3.4717 0.0048 2.1717 0.3048 1.2317 1.2448C0.2917 2.1748 0.0017 3.4548 0.0017 5.6048V14.7748C0.0017 17.0748 0.2817 18.3548 1.2217 19.2748C2.1717 20.2148 3.4417 20.5048 5.7317 20.5048H14.7817C17.0717 20.5048 18.3517 20.2148 19.2917 19.2748C20.2217 18.3348 20.5217 17.0748 20.5217 14.7748V5.7348C20.5217 3.4348 20.2217 2.1548 19.2917 1.2348ZM5.5417 12.5548V6.0248C5.5417 5.6748 5.8517 5.3648 6.2117 5.3648C6.5817 5.3648 6.8817 5.6748 6.8817 6.0248V10.0048C7.1017 9.8448 7.3517 9.6948 7.6517 9.5548V3.7848C7.6517 3.4248 7.9717 3.1248 8.3217 3.1248C8.6817 3.1248 9.0017 3.4248 9.0017 3.7848V9.1148C9.2817 9.0548 9.5817 9.0248 9.8917 9.0048V2.9748C9.8917 2.6148 10.1917 2.2948 10.5717 2.2948C10.9217 2.2948 11.2217 2.6148 11.2217 2.9748V9.0948C11.4817 9.1648 11.7417 9.2448 11.9917 9.3548V4.3248C11.9917 3.9648 12.2817 3.6548 12.6417 3.6548C13.0117 3.6548 13.3117 3.9648 13.3117 4.3248V11.4948C13.3117 11.8848 13.4917 12.0248 13.7217 12.0248C13.9017 12.0248 14.0817 11.9448 14.2217 11.6048L15.1617 9.2848C15.3417 8.8748 15.5817 8.7148 15.8717 8.7148C16.2117 8.7148 16.4717 8.9448 16.4717 9.2948C16.4717 9.4448 16.4017 9.7048 16.3317 9.9648C16.0117 11.2148 15.6717 12.4248 15.2817 13.5848C14.4117 16.4048 12.6517 17.5648 10.3717 17.5648C7.6717 17.5648 5.5417 15.8948 5.5417 12.5548Z" />
        </svg>
    