
        <svg xmlns="http://www.w3.org/2000/svg" viewBox="0 0 100 100">
            <path d="M7.4582 3.1372C8.3282 3.1372 9.0382 2.4372 9.0382 1.5672C9.0382 0.7172 8.3282 -0.0028 7.4582 -0.0028C6.5982 -0.0028 5.8982 0.7172 5.8982 1.5672C5.8982 2.4372 6.5982 3.1372 7.4582 3.1372ZM17.7282 3.1372C18.5882 3.1372 19.2982 2.4372 19.2982 1.5672C19.2982 0.7172 18.5882 -0.0028 17.7282 -0.0028C16.8682 -0.0028 16.1582 0.7172 16.1582 1.5672C16.1582 2.4372 16.8682 3.1372 17.7282 3.1372ZM10.5982 28.2872C15.6582 28.2872 18.7782 25.1272 18.7782 19.7472V16.9072C18.7782 14.3572 17.4882 12.7472 15.3382 12.6572C14.9882 11.8572 14.2182 11.3772 13.2682 11.3772C13.0082 11.3772 12.7582 11.4172 12.5282 11.4772C12.1382 10.6072 11.4182 10.0972 10.4582 10.0972C10.3382 10.0972 10.2082 10.1272 10.0682 10.1472L10.0782 7.6172C10.0782 5.9872 9.0082 4.8872 7.4582 4.8872C5.8682 4.8872 4.7682 5.9872 4.7682 7.6172V14.9972C4.7682 15.0672 4.6982 15.0972 4.6682 15.0372L4.2982 14.2272C3.8282 13.5472 3.1982 13.0972 2.3882 13.0972C1.0482 13.0972 -0.0018 13.9872 -0.0018 15.4072C-0.0118 15.8172 0.0782 16.2972 0.2382 16.6972L2.1382 21.9572C3.6482 26.1172 6.5482 28.2872 10.5982 28.2872ZM12.9482 8.0372C13.8182 8.0372 14.5182 7.3272 14.5182 6.4672C14.5182 5.5972 13.8182 4.8972 12.9482 4.8972C12.0782 4.8972 11.3882 5.5972 11.3882 6.4672C11.3882 7.3272 12.0782 8.0372 12.9482 8.0372ZM17.7282 8.0372C18.5882 8.0372 19.2982 7.3272 19.2982 6.4672C19.2982 5.5972 18.5882 4.8972 17.7282 4.8972C16.8682 4.8972 16.1582 5.5972 16.1582 6.4672C16.1582 7.3272 16.8682 8.0372 17.7282 8.0372ZM2.0382 8.0472C2.9082 8.0472 3.6082 7.3572 3.6082 6.4872C3.6082 5.6372 2.9082 4.9172 2.0382 4.9172C1.1682 4.9172 0.4682 5.6372 0.4682 6.4872C0.4682 7.3572 1.1682 8.0472 2.0382 8.0472ZM10.6682 25.8972C7.6982 25.8972 5.5982 24.4472 4.3282 21.1372L2.3182 15.9772C2.2782 15.8672 2.2582 15.7872 2.2582 15.6572C2.2582 15.4172 2.4182 15.2372 2.7082 15.2372C2.9082 15.2372 3.0382 15.3672 3.1282 15.5872L4.7082 18.7972C4.9782 19.3572 5.4182 19.5572 5.8582 19.5572C6.4582 19.5572 6.9482 19.1172 6.9482 18.4072L6.9582 7.4872C6.9582 7.2072 7.1482 7.0072 7.4182 7.0072C7.7082 7.0072 7.8982 7.2072 7.8982 7.4872V14.9872C7.8982 15.5172 8.3482 15.9372 8.8682 15.9372C9.3882 15.9372 9.8282 15.5172 9.8282 14.9872V12.4172C9.9482 12.3772 10.0982 12.3472 10.2482 12.3472C10.5582 12.3472 10.7782 12.5772 10.7782 12.9272V15.4372C10.7782 15.9772 11.2182 16.3572 11.7282 16.3572C12.2382 16.3572 12.6682 15.9772 12.6682 15.4372V13.6872C12.7982 13.6572 12.9382 13.6172 13.0782 13.6172C13.4082 13.6172 13.6282 13.8372 13.6282 14.1872V15.8472C13.6282 16.3872 14.0782 16.7972 14.5882 16.7972C15.0982 16.7972 15.5382 16.3872 15.5382 15.8472V15.0672C16.1882 15.1072 16.5282 15.6772 16.5282 16.7972V19.5472C16.5282 23.5972 14.3482 25.8972 10.6682 25.8972Z" />
        </svg>
    