
        <svg xmlns="http://www.w3.org/2000/svg" viewBox="0 0 100 100">
            <path d="M3.4617 21.2158H17.7617C20.0517 21.2158 21.2217 20.0558 21.2217 17.7858V3.4258C21.2217 1.1758 20.0517 -0.0042 17.7617 -0.0042H3.4617C1.1717 -0.0042 0.0017 1.1458 0.0017 3.4258V17.7858C0.0017 20.0658 1.1717 21.2158 3.4617 21.2158ZM3.4817 19.7658C2.1717 19.7658 1.4517 19.0658 1.4517 17.7158V3.4958C1.4517 2.1458 2.1717 1.4458 3.4817 1.4458H17.7317C19.0317 1.4458 19.7717 2.1458 19.7717 3.4958V17.7158C19.7717 19.0658 19.0317 19.7658 17.7317 19.7658ZM5.6417 12.8458C5.6417 15.9758 7.6517 17.7258 10.3717 17.7258C12.5317 17.7258 14.0817 16.7558 15.0017 14.4358C15.4617 13.3558 15.8317 12.1658 16.2117 10.8258C16.3517 10.3958 16.5117 9.8758 16.5117 9.6458C16.5117 9.2658 16.2317 9.0358 15.8717 9.0358C15.4917 9.0358 15.2417 9.2458 14.9917 9.7858L14.0517 11.9158C13.9317 12.1858 13.7917 12.2658 13.6617 12.2658C13.4917 12.2658 13.3617 12.1558 13.3617 11.8758V4.7358C13.3617 4.3458 13.0417 4.0358 12.6517 4.0358C12.2617 4.0358 11.9417 4.3458 11.9417 4.7358V9.7758C11.7417 9.6958 11.5217 9.6258 11.3017 9.5758V3.5958C11.3017 3.2158 10.9817 2.8858 10.5817 2.8858C10.1917 2.8858 9.8817 3.2158 9.8817 3.5958V9.4958C9.6317 9.5158 9.3717 9.5358 9.1517 9.5858V4.2758C9.1517 3.8758 8.8217 3.5758 8.4217 3.5758C8.0517 3.5758 7.7117 3.8758 7.7117 4.2758V10.0458C7.4617 10.1458 7.2517 10.2858 7.0617 10.4158V6.4458C7.0617 6.0558 6.7417 5.7258 6.3517 5.7258C5.9617 5.7258 5.6417 6.0558 5.6417 6.4458Z" />
        </svg>
    