
        <svg xmlns="http://www.w3.org/2000/svg" viewBox="0 0 100 100">
            <path d="M13.8099 15.3986C18.2899 15.3986 21.2799 13.4886 23.3399 9.1186C23.0299 9.0086 22.6899 8.9386 22.3499 8.9086V8.2686C22.3499 3.2186 19.0199 -0.0014 13.8099 -0.0014C8.6099 -0.0014 5.2799 3.2186 5.2799 8.2686V8.9086C4.9299 8.9386 4.5999 9.0086 4.2899 9.1186C6.3499 13.4886 9.3399 15.3986 13.8099 15.3986ZM9.0099 8.2686C9.0099 5.5186 10.8999 3.7486 13.8099 3.7486C16.7299 3.7486 18.6099 5.5186 18.6099 8.2686V8.8986H9.0099ZM27.5799 22.2686L26.5299 13.0586C26.4599 12.5386 26.3199 12.0486 26.1199 11.5986C23.8799 15.6186 20.9699 17.7786 16.9599 18.5786V18.9286C16.9599 20.2886 16.3499 20.8986 14.9699 20.8986H12.6499C11.2699 20.8986 10.6699 20.2886 10.6699 18.9286V18.5786C6.6499 17.7786 3.7599 15.6186 1.5199 11.6086C1.3099 12.0586 1.1699 12.5486 1.1099 13.0586L0.0499 22.2686C-0.3401 25.6186 1.7999 28.1986 4.9699 28.1986H22.6499C25.8099 28.1986 27.9699 25.6186 27.5799 22.2686Z" />
        </svg>
    