
        <svg xmlns="http://www.w3.org/2000/svg" viewBox="0 0 100 100">
            <path d="M3.0117 20.5048H17.4917C19.4517 20.5048 20.5117 19.4248 20.5117 17.4948V3.0148C20.5117 1.0748 19.4517 0.0048 17.4917 0.0048H3.0117C1.0417 0.0048 0.0017 1.0448 0.0017 3.0148V17.4948C0.0017 19.4648 1.0417 20.5048 3.0117 20.5048ZM5.4717 12.5548V6.0348C5.4717 5.6948 5.7517 5.4148 6.0917 5.4148C6.4417 5.4148 6.7417 5.6948 6.7417 6.0348V9.9848C6.9617 9.7948 7.2317 9.6348 7.5617 9.4848V3.7748C7.5617 3.4348 7.8617 3.1548 8.2017 3.1548C8.5417 3.1548 8.8517 3.4348 8.8517 3.7748V9.0748C9.1417 9.0148 9.4917 8.9648 9.8217 8.9448V2.9048C9.8217 2.5548 10.1217 2.2648 10.4617 2.2648C10.8017 2.2648 11.0817 2.5548 11.0817 2.9048V9.0348C11.3817 9.1148 11.6517 9.1948 11.8917 9.3248V4.3448C11.8917 4.0048 12.1917 3.7148 12.5317 3.7148C12.8817 3.7148 13.1617 4.0048 13.1617 4.3448V11.4748C13.1617 11.8948 13.3817 12.0748 13.6317 12.0748C13.8317 12.0748 14.0417 11.9748 14.1917 11.6048L15.1217 9.2148C15.2417 8.8748 15.4917 8.7548 15.7217 8.7548C16.0317 8.7548 16.3017 8.9648 16.3017 9.3148C16.3017 9.4148 16.2917 9.5148 16.2517 9.6948C15.9617 10.8848 15.6417 12.0848 15.3017 13.2748C14.4517 16.3348 12.6217 17.5748 10.2917 17.5748C7.6417 17.5748 5.4717 15.9748 5.4717 12.5548Z" />
        </svg>
    