
        <svg xmlns="http://www.w3.org/2000/svg" viewBox="0 0 100 100">
            <path d="M3.2 0.5187C1.69 2.2587 0.63 4.2487 0.07 6.2587C-0.45 7.9587 2.1 8.8787 2.68 6.9287C3.16 5.2887 4.02 3.7487 5.26 2.3187C6.5 0.9087 4.5 -0.9113 3.2 0.5187ZM23.35 22.5387C28.58 20.6387 30.6 14.8487 29.31 10.0287L28.28 6.1687C27.49 3.2487 25.65 2.5987 23.41 3.1887C22.12 2.0987 20.34 1.9587 18.97 2.4287C17.48 1.2387 15.7 0.7587 13.55 1.4087L9.27 2.7087C5.64 3.8287 6.72 9.4987 11.49 8.3387L14.2 7.6687C14.71 7.5487 15.05 7.6187 15.29 7.9487C16.01 8.9087 16.7 10.6887 16.7 11.5487C16.7 12.7187 15.99 13.3487 14.6 13.3487C14 13.3487 13.38 13.0387 12.75 12.5087L10.12 10.2687C7.39 7.9387 2.89 11.1887 6.03 14.5287L10.04 18.8287C13.59 22.6087 18.76 24.2087 23.35 22.5387ZM22.67 6.1687C23.08 7.5287 25.26 7.1387 24.85 5.5587C25.33 5.7087 25.56 6.1587 25.69 6.6887L26.71 10.6087C27.68 14.3587 26.38 18.5087 22.49 19.9287C19.15 21.1487 15.1 20.3987 12.02 17.1287L7.84 12.6987C7.42 12.2487 7.92 11.7387 8.4 12.1087L10.45 13.7387C12.03 15.0087 13.37 15.8987 14.96 15.8987C17.74 15.8987 19.3 13.9387 19.3 11.4087C19.3 9.9387 18.46 7.5487 17.46 6.2587C16.45 4.9187 15.16 4.7587 13.24 5.2487L10.31 5.9787C9.68 6.1387 9.37 5.2687 10.02 5.0787L13.71 4.0287C16.76 3.1587 17.99 4.5387 19.44 6.9287C20.24 8.2687 22.4 7.2687 21.58 5.7687C21.36 5.3487 21.12 4.9387 20.86 4.5687C21.61 4.6087 22.35 5.0687 22.67 6.1687ZM3.2 18.8287C4.49 20.2587 6.51 18.4787 5.26 17.0187C4.02 15.6187 3.16 14.0587 2.68 12.4287C2.11 10.4787 -0.45 11.3487 0.07 13.0987C0.63 15.1087 1.69 17.0987 3.2 18.8287Z" />
        </svg>
    