
        <svg xmlns="http://www.w3.org/2000/svg" viewBox="0 0 100 100">
            <path d="M19.2253 19.1068C21.8353 16.5068 22.3953 13.5468 20.8353 9.9168C20.1453 8.1168 19.1653 6.2468 18.0353 4.2168C17.6753 3.5468 17.2553 2.6968 16.9453 2.3968C16.5253 1.9668 15.9453 2.0068 15.5153 2.4568C15.0753 2.8868 15.0353 3.4368 15.3753 4.3868L16.7653 7.9568C16.9553 8.4668 16.8753 8.7368 16.6353 9.0268C15.1953 10.6568 14.9353 12.6568 16.3153 14.1468C16.5053 14.3768 16.4953 14.6968 16.2853 14.9068C16.0953 15.1068 15.7453 15.0968 15.5453 14.8868C14.3353 13.5868 13.6453 11.0668 15.6753 8.5268L7.4753 0.3468C7.0453 -0.1132 6.2853 -0.1132 5.8553 0.3468C5.3853 0.7868 5.3853 1.5368 5.8553 1.9868L11.8053 7.9468C11.4553 8.0868 11.1153 8.2768 10.7753 8.4868L3.7253 1.4468C3.2753 0.9968 2.5353 0.9968 2.0753 1.4468C1.6353 1.8868 1.6353 2.6368 2.0753 3.0868L9.0253 10.0468C8.7553 10.3668 8.4953 10.7068 8.2653 11.0268L1.9953 4.7568C1.5353 4.3168 0.7953 4.3168 0.3453 4.7568C-0.1147 5.2168 -0.1147 5.9668 0.3453 6.4168L7.1553 13.2168C6.9853 13.6668 6.8853 14.0868 6.7953 14.4868L2.0853 9.7668C1.6353 9.3068 0.8953 9.3068 0.4353 9.7668C-0.0047 10.2068 -0.0047 10.9568 0.4353 11.4068L7.9753 18.9368C11.6553 22.6168 16.0553 22.2568 19.2253 19.1068Z" />
        </svg>
    