
        <svg xmlns="http://www.w3.org/2000/svg" viewBox="0 0 100 100">
            <path d="M17.1931 24.7865C22.9531 22.6765 25.0931 17.9465 22.9131 11.9265L21.6831 8.5565C20.6531 5.7265 18.5031 4.4665 16.0531 5.2265C15.3431 4.5165 14.2631 4.2965 13.1831 4.6965C12.9431 4.7865 12.7031 4.8965 12.4931 5.0465C11.6931 4.2665 10.7031 4.0065 9.6531 4.3965C9.5731 4.4265 9.4931 4.4665 9.4131 4.5265L8.5931 2.2865C7.9131 0.3865 6.2131 -0.4335 4.4031 0.2265C2.5331 0.9065 1.7131 2.6365 2.4031 4.5365L5.0631 11.8365C5.0831 11.9065 5.0731 11.9565 5.0331 11.9765C4.9931 11.9865 4.9731 11.9765 4.9331 11.9565L4.4931 11.5065C3.7431 10.9765 2.8531 10.8765 1.9831 11.1965C0.3831 11.7665 -0.3969 13.2765 0.2031 14.9165C0.3731 15.3965 0.6531 15.9065 1.0131 16.2965L5.1431 21.2365C8.4731 25.2065 12.6731 26.4365 17.1931 24.7865ZM16.1731 21.7465C12.9431 22.9365 10.1531 22.0865 7.5231 19.1765L3.2731 14.4465C3.1931 14.3665 3.1431 14.2965 3.1131 14.2065C3.0331 14.0065 3.1131 13.7865 3.3731 13.6865C3.5431 13.6165 3.7031 13.6865 3.8431 13.8165L6.8831 16.6365C7.4031 17.1365 7.9931 17.1965 8.4831 17.0065C9.1731 16.7565 9.6031 16.0365 9.2831 15.1665L5.0131 3.3965C4.9231 3.1565 5.0331 2.9065 5.2731 2.8165C5.5331 2.7165 5.7931 2.8365 5.8731 3.0865L8.7531 10.9965C8.9731 11.6165 9.6831 11.9165 10.3031 11.6965C10.9131 11.4765 11.2431 10.7865 11.0131 10.1565L10.0431 7.4865C10.1631 7.4165 10.2931 7.3465 10.4331 7.2965C10.6931 7.2065 10.9731 7.3265 11.0731 7.6065L12.0731 10.3465C12.2931 10.9565 12.9631 11.2665 13.5731 11.0365C14.1831 10.8165 14.4931 10.1565 14.2731 9.5365L13.6331 7.7665C13.7431 7.6965 13.8731 7.6265 14.0131 7.5865C14.2831 7.4765 14.5531 7.5965 14.6631 7.8865L15.3031 9.6665C15.5431 10.2965 16.2431 10.6165 16.8631 10.3865C17.4831 10.1565 17.8131 9.4665 17.5931 8.8365L17.3531 8.2065C17.9631 7.9765 18.4231 8.3165 18.7731 9.2565L20.0331 12.7165C21.5831 16.9965 20.1531 20.3065 16.1731 21.7465Z" />
        </svg>
    