
        <svg xmlns="http://www.w3.org/2000/svg" viewBox="0 0 100 100">
            <path d="M8.1417 5.3698C8.2117 5.3698 8.2617 5.3398 8.2717 5.2598C8.5517 3.2798 8.6217 3.1598 10.7017 2.8198C10.7917 2.7998 10.8317 2.7698 10.8317 2.6798C10.8317 2.5998 10.7917 2.5698 10.7017 2.5398C8.6417 2.1298 8.7417 1.9998 8.2717 0.1098C8.2617 0.0398 8.2117 -0.0002 8.1417 -0.0002C8.0817 -0.0002 8.0417 0.0398 8.0117 0.1098C7.5517 1.9998 7.7017 2.1298 5.6017 2.5398C5.5117 2.5698 5.4617 2.6098 5.4617 2.6798C5.4617 2.7698 5.5117 2.7998 5.6017 2.8198C7.7017 3.2498 7.7117 3.2798 8.0117 5.2598C8.0417 5.3398 8.0817 5.3698 8.1417 5.3698ZM15.8417 8.3198C15.9517 8.3198 16.0217 8.2598 16.0317 8.1598C16.5017 5.1998 16.4917 5.2698 19.4917 4.6898C19.5917 4.6798 19.6717 4.6198 19.6717 4.5098C19.6717 4.4098 19.5917 4.3398 19.5017 4.3198C16.5017 3.7298 16.5017 3.8198 16.0317 0.8698C16.0217 0.7498 15.9517 0.6898 15.8417 0.6898C15.7617 0.6898 15.6817 0.7498 15.6717 0.8698C15.2017 3.8198 15.2417 3.7498 12.2117 4.3198C12.1017 4.3398 12.0317 4.4098 12.0317 4.5098C12.0317 4.6198 12.1017 4.6798 12.2117 4.6898C15.2417 5.2998 15.2017 5.2098 15.6717 8.1698C15.6817 8.2598 15.7617 8.3198 15.8417 8.3198ZM8.8117 25.9898C12.5417 29.7198 16.7717 29.1898 19.7617 26.1998C22.3317 23.6298 22.9617 20.3998 20.8317 16.3398C19.9717 14.6098 18.9917 12.8898 17.9717 11.1198C17.7517 10.7298 17.5317 10.3598 17.3517 10.1798C16.9617 9.7998 16.4217 9.8598 16.0417 10.2298C15.7217 10.5498 15.6217 11.0198 15.8917 11.6598L17.4217 15.2698C17.6517 15.8098 17.5317 16.1098 17.3417 16.3098C17.0817 16.5598 16.7217 16.6098 16.3017 16.1798L8.2817 8.1798C7.8917 7.7698 7.2217 7.7698 6.8117 8.1798C6.4117 8.5798 6.4117 9.2498 6.8117 9.6598L12.4317 15.2698C12.0317 15.4098 11.6617 15.6098 11.3017 15.8298L4.4517 8.9998C4.0517 8.5898 3.3917 8.5898 2.9717 8.9998C2.5817 9.3998 2.5817 10.0698 2.9717 10.4798L9.7117 17.2098C9.3917 17.5798 9.0817 17.9598 8.8217 18.3498L2.8717 12.3998C2.4717 11.9998 1.8017 11.9998 1.3917 12.3998C0.9917 12.7998 0.9917 13.4798 1.3917 13.8798L7.8317 20.3098C7.6417 20.8198 7.5317 21.2798 7.4717 21.6998L3.0217 17.2498C2.6117 16.8398 1.9417 16.8398 1.5517 17.2498C1.1417 17.6498 1.1417 18.3198 1.5517 18.7298ZM14.9517 11.5998L11.5217 8.1798C11.1217 7.7798 10.4517 7.7798 10.0517 8.1798C9.9917 8.2298 9.9617 8.2698 9.9217 8.3398L16.0317 14.4498C15.6517 13.4898 15.2917 12.5398 14.9517 11.5998ZM23.0017 26.1998C25.5717 23.6298 26.1917 20.3998 24.0717 16.3398C23.2017 14.6098 22.2317 12.8998 21.2117 11.1298C20.9917 10.7298 20.7817 10.3598 20.5917 10.1798C20.2017 9.7998 19.6617 9.8698 19.2917 10.2298C19.1417 10.3798 19.0417 10.5498 19.0117 10.7598C19.1717 11.0598 19.3517 11.3698 19.5217 11.6598C20.3417 13.0998 21.1217 14.5098 21.7717 15.8998C23.9417 20.1398 23.5417 23.8898 20.4917 26.9398C19.8117 27.6098 19.1017 28.1598 18.3617 28.5698C20.0517 28.3898 21.6517 27.5398 23.0017 26.1998ZM3.0717 29.1798C3.1417 29.1798 3.1917 29.1398 3.2117 29.0598C3.5317 26.7998 3.6117 26.6598 5.9917 26.2598C6.0817 26.2398 6.1317 26.1998 6.1317 26.0998C6.1317 26.0198 6.0817 25.9798 5.9917 25.9598C3.6217 25.4798 3.7417 25.3398 3.2117 23.1598C3.1917 23.0698 3.1417 23.0398 3.0717 23.0398C3.0017 23.0398 2.9517 23.0698 2.9317 23.1598C2.4017 25.3398 2.5617 25.4798 0.1517 25.9598C0.0617 25.9798 0.0017 26.0198 0.0017 26.0998C0.0017 26.1998 0.0617 26.2398 0.1517 26.2598C2.5617 26.7398 2.5817 26.7998 2.9317 29.0598C2.9517 29.1398 3.0017 29.1798 3.0717 29.1798Z" />
        </svg>
    