
        <svg xmlns="http://www.w3.org/2000/svg" viewBox="0 0 100 100">
            <path d="M4.9699 28.1986H22.6499C25.8099 28.1986 27.9699 25.6186 27.5799 22.2686L26.5299 13.0586C26.2699 10.8486 24.4899 9.1186 22.3499 8.9086V8.2686C22.3499 3.2186 19.0199 -0.0014 13.8099 -0.0014C8.6099 -0.0014 5.2799 3.2186 5.2799 8.2686V8.9086C3.1399 9.1186 1.3699 10.8486 1.1099 13.0586L0.0499 22.2686C-0.3401 25.6186 1.7999 28.1986 4.9699 28.1986ZM9.0099 8.2686C9.0099 5.5186 10.8999 3.7486 13.8099 3.7486C16.7299 3.7486 18.6099 5.5186 18.6099 8.2686V8.8986H9.0099ZM13.8099 15.3986C10.7899 15.3986 8.4499 14.5286 6.6499 12.6186H20.9699C19.1799 14.5286 16.8399 15.3986 13.8099 15.3986ZM4.9599 24.4486C4.1499 24.4486 3.6399 23.7086 3.7499 22.7086L4.5699 15.5586C6.2399 17.1186 8.2599 18.0986 10.6699 18.5786V18.9286C10.6699 20.2886 11.2699 20.8986 12.6499 20.8986H14.9699C16.3499 20.8986 16.9599 20.2886 16.9599 18.9286V18.5786C19.3599 18.0986 21.3599 17.1286 23.0399 15.5886L23.8599 22.7086C23.9699 23.7086 23.4499 24.4486 22.6399 24.4486Z" />
        </svg>
    