
        <svg xmlns="http://www.w3.org/2000/svg" viewBox="0 0 100 100">
            <path d="M8.7436 3.9094C8.8836 3.8794 8.9936 3.7194 8.9536 3.5994L8.2236 0.2194C8.1936 0.0594 8.0536 -0.0206 7.9036 -0.0006C7.7636 0.0394 7.6536 0.1794 7.6936 0.3094L8.4136 3.7094C8.4536 3.8394 8.5936 3.9394 8.7436 3.9094ZM4.9236 5.3194C5.0136 5.4194 5.1936 5.4194 5.2936 5.3194C5.3936 5.2194 5.3936 5.0394 5.2936 4.9494L2.8336 2.4894C2.7336 2.3694 2.5636 2.3994 2.4636 2.4894C2.3636 2.5894 2.3436 2.7494 2.4636 2.8594ZM13.3036 5.4094C13.0236 5.6794 12.8436 6.0294 12.8236 6.4294C12.0436 5.7794 11.1536 5.8394 10.5336 6.4594C10.1936 6.7994 10.0136 7.2294 10.0636 7.7394C9.2736 6.9694 8.2636 6.8394 7.5136 7.5894C6.7636 8.3394 6.8536 9.4494 7.5936 10.1994C7.1036 10.1494 6.6536 10.3394 6.3136 10.6794C5.6336 11.3494 5.6236 12.3294 6.4436 13.1494L7.6536 14.3594C7.1536 14.2994 6.7136 14.5094 6.3736 14.8494C5.6936 15.5294 5.6936 16.4894 6.5136 17.3094L13.3736 24.1694C16.5236 27.3194 19.8736 27.4594 22.5836 25.6994C24.1136 25.4894 25.5636 24.6794 26.8136 23.4394C29.3836 20.9094 29.8236 17.6494 28.1836 14.2394L25.2836 8.1994C24.9236 7.4294 24.2336 7.0794 23.5936 7.0794C22.7136 7.0794 22.0336 7.6194 21.8936 8.4294C21.2336 7.8994 20.3336 7.9494 19.6936 8.5894C19.5436 8.7294 19.4336 8.9094 19.3536 9.1094L15.7736 5.5194C14.9536 4.6994 14.0036 4.7394 13.3036 5.4094ZM20.8836 14.4694L13.3236 6.9094C13.2236 6.5094 13.3136 6.1094 13.6436 5.7894C14.1536 5.2794 14.7836 5.3794 15.3536 5.9494L19.2436 9.8194C19.2536 10.0894 19.3236 10.3794 19.4536 10.6694L21.0236 14.3094C21.0636 14.3994 21.0436 14.4394 21.0136 14.4794C20.9736 14.5194 20.9236 14.5094 20.8836 14.4694ZM23.6636 24.1194C20.9536 26.8194 17.2436 27.2194 13.7836 23.7594L6.9236 16.8994C6.3636 16.3394 6.2736 15.6994 6.7736 15.1794C7.2936 14.6794 8.0036 14.6994 8.5636 15.2594L12.5836 19.2794C12.7936 19.4994 12.9736 19.4694 13.0836 19.3594C13.1936 19.2594 13.2236 19.0894 12.9936 18.8694L6.8636 12.7394C6.2936 12.1794 6.2036 11.5194 6.7136 11.0194C7.2236 10.4994 7.9336 10.5394 8.4936 11.0994L14.2036 16.8094C14.4236 17.0294 14.6036 16.9994 14.7036 16.8994C14.8236 16.7894 14.8336 16.6194 14.6136 16.3994L8.0036 9.7894C7.4436 9.2194 7.3636 8.4694 7.8736 7.9494C8.3536 7.4694 9.0836 7.5894 9.6436 8.1494L16.2636 14.7694C16.4236 14.9194 16.5936 14.9994 16.7636 14.8494C16.9036 14.6994 16.8336 14.5094 16.6736 14.3594L10.9536 8.6394C10.3936 8.0794 10.3636 7.3594 10.8736 6.8594C11.3836 6.3394 12.0336 6.4394 12.6036 6.9994L20.4936 14.8994C20.7936 15.1894 21.1536 15.1494 21.4136 14.8894C21.6336 14.6594 21.6936 14.3994 21.5436 14.0694L19.9836 10.4194C19.6536 9.6694 19.8336 9.0394 20.4436 8.7594C21.0436 8.4694 21.6336 8.7794 21.9836 9.4994L24.9036 15.5394C26.3936 18.6394 26.0036 21.7694 23.6636 24.1194ZM24.0436 24.5094C26.6036 21.9494 27.0436 18.7194 25.4236 15.3094L22.5936 9.3894C22.4936 9.1794 22.4336 8.9694 22.4336 8.7694C22.4336 8.1094 22.8336 7.6494 23.5936 7.6494C24.0436 7.6494 24.4936 7.9094 24.7436 8.4394L27.6736 14.4794C29.1736 17.5694 28.7836 20.7094 26.4436 23.0594C25.5936 23.8994 24.6736 24.5094 23.6736 24.8594C23.8036 24.7394 23.9336 24.6294 24.0436 24.5094ZM3.6136 8.9694C3.7536 8.9894 3.8936 8.9094 3.9136 8.7594C3.9536 8.6194 3.8536 8.4894 3.7136 8.4694L0.3136 7.7294C0.1736 7.6994 0.0136 7.7894 0.0036 7.9294C-0.0064 8.0794 0.0636 8.2194 0.2236 8.2394Z" />
        </svg>
    