
        <svg xmlns="http://www.w3.org/2000/svg" viewBox="0 0 100 100">
            <path d="M26.6994 11.9647C26.6994 7.3947 24.2494 4.1447 19.4894 2.4447L13.3694 0.2447C12.9294 0.0847 12.3994 0.0047 11.9694 0.0047C10.4394 0.0047 9.5194 1.1447 9.5194 2.5547C9.5194 3.4547 9.9894 4.2047 10.8494 4.6647L12.2594 5.2647C12.3094 5.2847 12.3294 5.3247 12.3294 5.3647C12.3294 5.4247 12.2794 5.4447 12.2094 5.4447H2.9294C1.1694 5.4447 -0.0006 6.6247 -0.0006 8.3247C-0.0006 9.9847 1.1694 11.1347 2.9294 11.1347H6.3394C6.2694 11.3447 6.2494 11.5647 6.2494 11.7647C6.2494 12.8547 6.8394 13.6947 7.8394 14.0847C7.7594 14.3947 7.6994 14.7047 7.6994 15.0347C7.6994 16.1147 8.2594 16.9447 9.1794 17.2947C9.2394 19.7147 11.0294 21.1647 13.9494 21.1647H17.0194C23.0694 21.1647 26.6794 17.5947 26.6994 11.9647ZM24.3594 12.0347C24.3594 16.3747 21.6194 18.9647 16.8094 18.9647H13.9494C12.3794 18.9647 11.5194 18.4547 11.5194 17.5447H12.6294C13.1694 17.5447 13.5794 17.1047 13.5794 16.5947C13.5794 16.0647 13.1694 15.6047 12.6294 15.6047H10.7094C10.2094 15.6047 9.8894 15.3047 9.8894 14.8247C9.8894 14.6247 9.9294 14.3947 9.9994 14.2147H12.1494C12.6894 14.2147 13.0894 13.7847 13.0894 13.2647C13.0894 12.7647 12.6894 12.3147 12.1494 12.3147H9.2594C8.7494 12.3147 8.4294 12.0147 8.4294 11.5347C8.4294 11.3247 8.4694 11.0947 8.5394 10.9247H11.6594C12.1894 10.9247 12.6094 10.4747 12.6094 9.9747C12.6094 9.4347 12.1894 9.0047 11.6594 9.0047H2.7894C2.3694 9.0047 2.0694 8.7047 2.0694 8.2947C2.0694 7.8847 2.3694 7.5947 2.7894 7.5947H15.5294C16.2294 7.5947 16.6994 7.1147 16.6994 6.5047C16.6994 6.0247 16.4794 5.5747 15.8594 5.2847L12.1094 3.5147C11.7894 3.3647 11.5894 3.1747 11.5894 2.8447C11.5894 2.4347 11.8794 2.1947 12.2394 2.1947C12.3994 2.1947 12.5194 2.2147 12.6694 2.2747L18.6994 4.5547C22.6994 6.0447 24.3594 8.5747 24.3594 12.0347Z" />
        </svg>
    