
        <svg xmlns="http://www.w3.org/2000/svg" viewBox="0 0 100 100">
            <path d="M8.4759 26.0755C11.9659 26.0755 14.2759 24.6955 15.9159 21.9055C17.1759 20.0255 18.0359 17.2955 18.6559 15.2955C19.0359 14.0955 19.5359 12.5955 19.6059 11.9455C19.6759 11.1955 19.2159 10.6255 18.4959 10.5555C17.6459 10.4755 17.0959 10.9455 16.6059 11.9755L14.9759 15.5255C14.7859 15.9255 14.6359 16.0355 14.2959 16.0555C11.8759 16.2055 10.2059 17.6855 10.1259 19.6655C10.1059 20.0855 9.7659 20.4055 9.3359 20.3955C8.9159 20.4055 8.5659 20.0355 8.5859 19.6155C8.6559 17.5455 10.0559 14.8355 14.1459 14.5355V3.0655C14.1459 2.2655 13.5359 1.6555 12.7359 1.6555C11.9559 1.6555 11.3359 2.2755 11.3359 3.0655V12.2255C11.0359 12.1155 10.7259 12.0255 10.3959 11.9655V1.4155C10.3959 0.6255 9.7759 -0.0045 8.9759 -0.0045C8.1759 -0.0045 7.5659 0.6255 7.5659 1.4155V11.8355C7.2459 11.8755 6.9159 11.9055 6.5859 11.9655V2.3955C6.5859 1.5955 5.9659 0.9755 5.1759 0.9755C4.3859 0.9755 3.7659 1.5955 3.7659 2.3955V12.7755C3.4259 12.9255 3.1159 13.1055 2.8259 13.2755V6.0455C2.8259 5.2455 2.2059 4.6255 1.4159 4.6255C0.6259 4.6255 -0.0041 5.2455 -0.0041 6.0455V17.5655C-0.0041 22.8855 3.6359 26.0755 8.4759 26.0755Z" />
        </svg>
    