
        <svg xmlns="http://www.w3.org/2000/svg" viewBox="0 0 100 100">
            <path d="M9.6783 4.895C10.1183 4.795 10.4283 4.335 10.3283 3.905L9.6283 0.665C9.5383 0.205 9.0883 -0.075 8.6283 0.015C8.1883 0.115 7.8683 0.555 7.9783 1.015L8.6783 4.235C8.7783 4.685 9.2083 4.995 9.6783 4.895ZM5.1383 6.135C5.4683 6.465 5.9983 6.465 6.3083 6.135C6.6283 5.805 6.6483 5.295 6.3083 4.955L3.9683 2.605C3.6283 2.265 3.1083 2.275 2.7883 2.605C2.4583 2.935 2.4483 3.435 2.7883 3.795ZM15.1383 5.615C14.9583 5.795 14.8183 5.995 14.7283 6.215C13.7683 5.545 12.6283 5.665 11.7483 6.545C11.4383 6.865 11.2483 7.265 11.2083 7.675C10.2183 6.995 9.1283 7.075 8.2683 7.915C7.4483 8.745 7.3683 9.875 7.9983 10.845C7.6083 10.865 7.2483 11.045 6.9683 11.335C6.0183 12.275 6.0383 13.575 7.0183 14.545L7.7983 15.335C7.3883 15.345 6.9783 15.545 6.6683 15.865C5.7183 16.815 5.7483 18.175 6.7583 19.175L13.9983 26.425C17.2083 29.615 21.0083 30.265 24.2883 28.495C26.2583 28.415 28.1783 27.535 29.8583 25.855C32.8983 22.795 33.4083 19.025 31.3283 14.655L28.6583 9.025C28.1583 7.935 27.2883 7.305 26.2383 7.315C25.6583 7.315 24.6783 7.625 24.2683 8.535C23.4483 8.025 22.4183 8.095 21.6383 8.735L18.5483 5.645C17.4883 4.585 16.1683 4.615 15.1383 5.615ZM21.5483 12.955L16.0283 7.445C16.0583 7.315 16.1283 7.205 16.2383 7.095C16.5583 6.775 17.0083 6.795 17.3483 7.135L20.8783 10.655C20.8983 10.865 20.9483 11.085 21.0383 11.295L21.6883 12.845C21.6983 12.895 21.7083 12.945 21.6783 12.965C21.6283 13.015 21.5783 13.005 21.5483 12.955ZM3.9383 10.135C4.3683 10.225 4.8283 9.945 4.9083 9.485C4.9983 9.045 4.7183 8.605 4.2583 8.515L1.0183 7.815C0.5283 7.705 0.0783 8.025 0.0083 8.515C-0.0517 8.945 0.2283 9.365 0.6683 9.455ZM25.1683 25.385C22.1983 28.355 18.4983 28.275 15.1883 24.955L8.2383 18.005C7.9183 17.685 7.8983 17.265 8.2083 16.955C8.5183 16.645 8.9483 16.645 9.2683 16.965L13.5283 21.225C13.8783 21.585 14.4183 21.545 14.7483 21.225C15.0783 20.885 15.1083 20.345 14.7583 19.995L8.3583 13.595C8.0483 13.295 8.0383 12.865 8.3383 12.555C8.6483 12.255 9.0883 12.255 9.4083 12.565L15.3683 18.535C15.7183 18.885 16.2483 18.845 16.5783 18.525C16.9083 18.195 16.9483 17.655 16.5983 17.305L9.5783 10.295C9.2683 9.975 9.2583 9.535 9.5583 9.225C9.8583 8.925 10.3083 8.935 10.6283 9.255L17.5383 16.175C17.8783 16.515 18.4183 16.495 18.7483 16.165C19.0883 15.825 19.1083 15.285 18.7683 14.945L12.8983 9.075C12.5783 8.765 12.5783 8.325 12.8883 8.025C13.1883 7.715 13.6283 7.715 13.9383 8.035L22.1883 16.285C22.6583 16.765 23.2383 16.725 23.6183 16.345C23.9483 16.005 24.0883 15.555 23.8483 14.925L22.3783 11.065C22.1883 10.585 22.3683 10.205 22.7283 10.035C23.1183 9.865 23.4783 10.035 23.7183 10.545L26.4183 16.335C28.2183 20.175 27.5683 22.985 25.1683 25.385ZM28.0883 15.535L25.5783 10.245C25.5583 10.145 25.5283 10.035 25.5283 9.925C25.5283 9.585 25.8083 9.245 26.2683 9.245C26.5483 9.245 26.8583 9.435 27.0083 9.775L29.6583 15.455C31.4583 19.285 30.8183 22.115 28.4183 24.495C28.3483 24.565 28.2783 24.635 28.1983 24.695C29.7583 22.045 29.7283 18.975 28.0883 15.535Z" />
        </svg>
    