
        <svg xmlns="http://www.w3.org/2000/svg" viewBox="0 0 100 100">
            <path d="M4.2466 25.9653H21.0466C23.9966 25.9653 25.6166 24.0153 25.2366 20.8553L24.2166 12.0253C23.9566 9.8453 22.4666 8.4953 20.3466 8.4853V7.4453C20.3466 3.1153 17.1266 -0.0047 12.6366 -0.0047C8.1666 -0.0047 4.9366 3.1153 4.9366 7.4453V8.4853C2.8266 8.4853 1.3266 9.8453 1.0866 12.0253L0.0566 20.8553C-0.3234 24.0153 1.2966 25.9653 4.2466 25.9653ZM7.4266 7.4453C7.4266 4.5653 9.6166 2.4853 12.6366 2.4853C15.6766 2.4853 17.8666 4.5653 17.8666 7.4453V8.4853H7.4266ZM12.6366 14.6753C9.3466 14.6753 6.5066 13.5853 4.9666 10.9553H20.3266C18.7766 13.5853 15.9466 14.6753 12.6366 14.6753ZM4.2366 23.4853C2.9666 23.4853 2.3266 22.6253 2.5066 21.1653L3.4566 13.0053C5.0366 15.1553 7.4166 16.3553 10.0466 16.8253V17.5153C10.0466 18.4953 10.5566 18.9953 11.5366 18.9953H13.7566C14.7266 18.9953 15.2366 18.4953 15.2366 17.5153V16.8253C17.8766 16.3553 20.2466 15.1553 21.8366 13.0153L22.7866 21.1653C22.9566 22.6253 22.3066 23.4853 21.0466 23.4853Z" />
        </svg>
    