
        <svg xmlns="http://www.w3.org/2000/svg" viewBox="0 0 100 100">
            <path d="M7.5323 -0.0002C3.2323 -0.0002 0.0023 2.6698 0.0023 8.0198V10.1798C0.0023 12.8698 1.0623 14.3098 3.0723 14.3298C3.2923 15.1298 3.9523 15.6398 4.8823 15.6398C5.2423 15.6398 5.6123 15.5698 5.9923 15.4498C6.2023 16.2498 6.8823 16.7898 7.8323 16.7898C8.1423 16.7898 8.5123 16.7198 8.8523 16.6198V20.8498C8.8523 22.0798 9.6923 22.8298 10.7123 22.8298C11.7923 22.8298 12.6123 22.0798 12.6123 20.8498V10.0298C12.6123 9.9698 12.6423 9.9298 12.7023 9.9298C12.7423 9.9298 12.7823 9.9498 12.8123 10.0198L14.1223 13.3098C14.4723 14.1898 15.1123 14.6098 15.8123 14.6298C16.7823 14.6298 17.6223 13.9598 17.6123 12.8898C17.6023 12.6198 17.5423 12.2798 17.4523 11.9898L15.2623 5.7798C13.9323 2.0298 11.2623 -0.0002 7.5323 -0.0002ZM7.5123 0.7598C10.8323 0.7598 13.3123 2.6298 14.5223 6.0498L16.7023 12.2598C16.7723 12.4598 16.8123 12.6398 16.8123 12.8898C16.8123 13.4198 16.3823 13.8598 15.7823 13.8598C15.3423 13.8598 14.9923 13.5498 14.7523 12.9998L13.2623 9.3398C13.1023 8.9398 12.8423 8.7898 12.5023 8.7898C12.1123 8.7898 11.8123 9.0498 11.8123 9.4898V20.8698C11.8123 21.5998 11.3823 22.0898 10.7123 22.0898C10.0423 22.0898 9.6423 21.5998 9.6423 20.8698V12.8898C9.6423 12.6398 9.5023 12.4198 9.2423 12.4198C8.9923 12.4198 8.8623 12.6398 8.8623 12.8898V15.8698C8.5523 15.9698 8.2023 16.0498 7.9223 16.0498C7.1523 16.0498 6.6923 15.5498 6.6923 14.6798V12.4598C6.6923 12.1198 6.5123 11.9798 6.3023 11.9798C6.1023 11.9798 5.9023 12.1198 5.9023 12.4598V14.7198C5.6123 14.8398 5.2623 14.9098 4.9723 14.9098C4.1923 14.9098 3.7523 14.4098 3.7523 13.5398V11.9998C3.7523 11.6698 3.5623 11.5198 3.3523 11.5198C3.1523 11.5198 2.9623 11.6698 2.9623 11.9998V13.5498C1.5423 13.5498 0.7923 12.3798 0.7923 10.1398V8.0498C0.7923 3.1998 3.6223 0.7598 7.5123 0.7598Z" />
        </svg>
    