
        <svg xmlns="http://www.w3.org/2000/svg" viewBox="0 0 100 100">
            <path d="M12.6023 25.1986C19.5623 25.1986 25.2023 19.5586 25.2023 12.5986C25.2023 5.6386 19.5623 -0.0014 12.6023 -0.0014C5.6523 -0.0014 0.0023 5.6386 0.0023 12.5986C0.0023 19.5586 5.6523 25.1986 12.6023 25.1986ZM16.0623 10.8186C16.0423 12.1986 15.6923 13.1086 14.8623 14.1986C13.9723 15.4086 12.8223 16.7886 11.9423 18.5186C11.6523 19.0686 11.3623 19.3486 10.9223 19.3486C10.3523 19.3486 9.9223 18.9186 9.9223 18.2886C9.9223 17.1886 10.9123 15.7386 10.9123 14.9686C10.9123 14.6386 10.6423 14.4286 10.1823 14.4286H8.1123C7.4323 14.4286 6.9023 13.8986 6.9023 13.2086C6.9023 12.8886 6.9923 12.5886 7.1723 12.3886C7.2423 12.3386 7.2523 12.3086 7.1923 12.2786C7.0623 12.0986 6.9723 11.7986 6.9723 11.4986C6.9723 11.0886 7.1623 10.7486 7.4423 10.5386C7.4623 10.4986 7.4923 10.4486 7.4523 10.4086C7.3523 10.2086 7.2823 9.9886 7.2823 9.7286C7.2823 9.2786 7.5223 8.8986 7.9323 8.6786C7.9723 8.6586 7.9823 8.6286 7.9423 8.5786C7.9023 8.4386 7.8423 8.2586 7.8423 8.0786C7.8423 7.4786 8.2823 7.0786 8.8923 6.9386C9.2623 6.8286 9.8823 6.7686 10.5823 6.7886L11.4023 6.7986C14.2023 6.8486 16.0923 8.5086 16.0623 10.8186ZM19.0923 10.7786C19.0923 12.7186 18.0323 14.1986 16.6023 14.1986H15.9523C16.5623 13.2686 16.9723 12.2186 16.9723 10.8386C17.0023 9.4286 16.4723 8.2286 15.4723 7.3686H16.3923C17.9423 7.3686 19.0923 8.8586 19.0923 10.7786Z" />
        </svg>
    