
        <svg xmlns="http://www.w3.org/2000/svg" viewBox="0 0 100 100">
            <path d="M7.8392 24.6223C11.5292 24.6223 14.0192 22.9323 15.4892 19.2623C16.2492 17.4923 16.8892 15.4923 17.5292 13.2623C17.7492 12.5123 18.0492 11.6223 18.0492 11.1923C18.0492 10.5923 17.5992 10.2023 16.9892 10.2023C16.3692 10.2023 15.9592 10.5823 15.5292 11.4923L13.9792 14.9923C13.7592 15.4923 13.5092 15.6223 13.1392 15.6523C10.9592 15.7923 9.3592 17.0223 9.2792 19.0523C9.2592 19.3623 9.0192 19.5723 8.7292 19.5723C8.4492 19.5723 8.1992 19.3223 8.2292 19.0323C8.2992 17.2623 9.5792 14.9923 12.8092 14.6223V3.0423C12.8092 2.4123 12.2792 1.8823 11.6492 1.8823C10.9992 1.8823 10.4792 2.4123 10.4792 3.0423V11.4723C10.1392 11.3323 9.7592 11.2123 9.3592 11.1423V1.1723C9.3592 0.5223 8.8492 0.0023 8.1992 0.0023C7.5592 0.0023 7.0392 0.5223 7.0392 1.1723V11.0023C6.6092 11.0423 6.1892 11.0823 5.7892 11.1523V2.2923C5.7892 1.6523 5.2592 1.1223 4.6292 1.1223C3.9892 1.1223 3.4592 1.6523 3.4592 2.2923V11.9023C3.0392 12.1123 2.6592 12.3423 2.3292 12.5623V5.8923C2.3292 5.2523 1.8092 4.7223 1.1592 4.7223C0.5292 4.7223 -0.0008 5.2523 -0.0008 5.8923V16.5323C-0.0008 21.7523 3.3792 24.6223 7.8392 24.6223Z" />
        </svg>
    