
        <svg xmlns="http://www.w3.org/2000/svg" viewBox="0 0 100 100">
            <path d="M0.0023 16.38C0.0023 20 2.3623 22.97 5.1723 22.97H8.7423C10.1323 23.7 11.8223 24.12 13.7123 24.12H15.2123C16.5723 24.12 17.7223 24.05 18.4823 23.85C19.8823 23.5 20.7623 22.54 20.7623 21.3C20.7623 20.99 20.7023 20.72 20.6123 20.45C21.3723 19.92 21.8223 19.14 21.8223 18.23C21.8223 17.77 21.7123 17.3 21.5323 16.95C22.0523 16.49 22.3723 15.74 22.3723 14.94C22.3723 14.4 22.2223 13.84 21.9723 13.48C22.3123 13.07 22.5123 12.45 22.5123 11.78C22.5123 10.27 21.3323 9.07 19.8123 9.07H15.7723C15.3423 9.07 15.0823 8.87 15.0823 8.53C15.0823 7.3 16.9323 4.55 16.9323 2.39C16.9323 1 15.9623 0 14.6223 0C13.6423 0 12.9823 0.52 12.3123 1.79C10.9523 4.41 9.5823 6.3 6.8423 9.74H4.7623C2.1423 9.74 0.0023 12.68 0.0023 16.38ZM5.9623 16.36C5.9623 13.97 6.5023 12.46 7.9923 10.46C9.6323 8.26 11.8923 5.65 13.5223 2.4C13.9523 1.56 14.2223 1.35 14.6723 1.35C15.2223 1.35 15.5823 1.73 15.5823 2.39C15.5823 4.18 13.7323 6.87 13.7323 8.53C13.7323 9.69 14.6823 10.42 15.9423 10.42H19.8123C20.5823 10.42 21.1623 11 21.1623 11.78C21.1623 12.3 21.0023 12.66 20.6223 13.02C20.3823 13.23 20.3523 13.5 20.5623 13.73C20.8723 14.14 21.0223 14.5 21.0223 14.94C21.0223 15.48 20.7623 15.94 20.3123 16.28C20.0123 16.48 19.9023 16.77 20.0823 17.12C20.3323 17.55 20.4723 17.82 20.4723 18.23C20.4723 18.83 20.1023 19.31 19.3523 19.69C19.0823 19.83 18.9923 20.05 19.1323 20.32C19.3723 20.87 19.4223 21.02 19.4223 21.3C19.4223 21.89 18.9923 22.34 18.1623 22.55C17.5223 22.71 16.4723 22.78 15.2123 22.78H13.7923C9.1123 22.78 5.9623 20.1 5.9623 16.36ZM1.3523 16.38C1.3523 13.42 2.9623 11.09 4.7623 11.09H5.9523C5.0023 12.71 4.6123 14.31 4.6123 16.34C4.6123 18.46 5.4523 20.29 6.9223 21.62H5.1723C3.1423 21.62 1.3523 19.27 1.3523 16.38Z" />
        </svg>
    