
        <svg xmlns="http://www.w3.org/2000/svg" viewBox="0 0 100 100">
            <path d="M5.9808 16.9206C5.9608 21.3906 9.4908 24.7806 15.1008 24.8006H16.7308C18.2708 24.8006 19.4408 24.6806 20.1208 24.5006C21.1308 24.2606 22.0308 23.6206 22.0308 22.4606C22.0308 22.0206 21.9108 21.6806 21.7708 21.4206C21.6908 21.2906 21.7108 21.1806 21.8308 21.1306C22.6008 20.7806 23.1908 20.0606 23.1908 19.1206C23.1908 18.5906 23.0408 18.1006 22.7808 17.7606C22.6608 17.6006 22.6908 17.4606 22.8708 17.3506C23.4108 17.0106 23.7908 16.3206 23.7908 15.5406C23.7908 14.9606 23.6108 14.3706 23.3108 14.0606C23.1408 13.9106 23.1708 13.8006 23.3408 13.6606C23.7208 13.3206 23.9508 12.7606 23.9508 12.0806C23.9508 10.8706 23.0008 9.8906 21.7608 9.8906H17.5308C16.5108 9.8906 15.8408 9.3706 15.8408 8.5406C15.8408 6.9606 17.8508 4.0106 17.8508 1.8606C17.8508 0.7006 17.1108 0.0006 16.1008 0.0006C15.2208 0.0006 14.7608 0.5706 14.2708 1.5506C12.4808 5.0006 10.1108 7.8206 8.3008 10.2306C6.7108 12.3206 5.9908 14.1106 5.9808 16.9206ZM0.0008 17.0106C0.0008 20.6506 2.2608 23.6506 5.2708 23.6506H7.3108C5.1908 22.0306 4.2508 19.6306 4.2808 16.9006C4.2908 13.9406 5.3408 11.8006 6.4608 10.3406H4.8308C2.1008 10.3406 0.0008 13.2606 0.0008 17.0106Z" />
        </svg>
    