
        <svg xmlns="http://www.w3.org/2000/svg" viewBox="0 0 100 100">
            <path d="M20.5923 21.6023C25.5223 19.8123 27.2023 15.7023 25.2823 10.4423L24.4823 8.2523C23.7623 6.2723 22.3523 5.3623 21.2123 5.7723C20.9423 5.8723 20.8323 6.0823 20.9323 6.3423L21.2823 7.2923C21.4323 7.7123 21.3023 7.9923 21.0623 8.0923C20.7923 8.1923 20.4923 8.0523 20.3423 7.6323L20.1223 7.0123C19.6923 5.8323 18.6323 5.3123 17.5923 5.6923C17.1023 5.8623 16.9423 6.1723 17.1023 6.5923L17.5623 7.8823C17.7323 8.3023 17.6023 8.5823 17.3423 8.6723C17.0723 8.7823 16.7923 8.6423 16.6423 8.2223L16.2023 7.0223C15.7223 5.7023 14.7223 5.3223 13.6923 5.7023C13.2223 5.8623 13.0523 6.1823 13.1923 6.5923L14.1223 9.1323C14.2723 9.5523 14.1423 9.8323 13.9023 9.9323C13.6323 10.0323 13.3523 9.8923 13.1923 9.4723L10.1223 1.0423C9.8123 0.1923 9.0323 -0.1877 8.2923 0.0823C7.5023 0.3823 7.1623 1.1523 7.4723 2.0223L11.9323 14.2523C12.0323 14.5323 11.9223 14.7423 11.7423 14.8123C11.5623 14.8723 11.3923 14.8323 11.1823 14.5923L8.1823 11.3823C7.7123 10.8823 7.2023 10.7123 6.6323 10.9223C5.8223 11.2223 5.4823 11.9723 5.7423 12.6723C5.8323 12.9423 5.9623 13.1523 6.1023 13.3123L9.9723 18.1223C13.1923 22.1423 16.9023 22.9523 20.5923 21.6023ZM5.7823 2.3223C2.2723 4.4523 0.0023 8.4023 0.0023 13.2223C0.0023 13.7023 0.4123 14.1123 0.8523 14.1023C1.3223 14.0923 1.6623 13.7223 1.6723 13.2623C1.7823 9.1023 3.5423 5.8323 6.3723 3.9523Z" />
        </svg>
    