
        <svg xmlns="http://www.w3.org/2000/svg" viewBox="0 0 100 100">
            <path d="M11.3523 22.7064C17.6323 22.7064 22.7123 17.6264 22.7123 11.3564C22.7123 5.0764 17.6323 -0.0036 11.3523 -0.0036C5.0823 -0.0036 0.0023 5.0764 0.0023 11.3564C0.0023 17.6264 5.0823 22.7064 11.3523 22.7064ZM11.3523 22.1364C5.3923 22.1364 0.5723 17.3164 0.5723 11.3564C0.5723 5.3864 5.3923 0.5764 11.3523 0.5764C17.3223 0.5764 22.1323 5.3864 22.1323 11.3564C22.1323 17.3164 17.3223 22.1364 11.3523 22.1364ZM11.3523 11.6864C13.5423 11.6864 15.4223 10.8764 16.2023 8.6564C16.0223 8.6064 15.8123 8.5864 15.5523 8.5864H15.2323V7.9064C15.2323 5.7064 13.6423 4.1964 11.3523 4.1964C9.0823 4.1964 7.4723 5.7064 7.4723 7.9064V8.5864H7.1623C6.9123 8.5864 6.7023 8.6064 6.5123 8.6564C7.3023 10.8764 9.1723 11.6864 11.3523 11.6864ZM8.0823 7.9064C8.0823 6.0664 9.4323 4.7964 11.3523 4.7964C13.2823 4.7964 14.6223 6.0664 14.6223 7.9064V8.5864H8.0823ZM17.7523 14.9264L17.2023 10.0664C17.1523 9.5964 16.9923 9.2464 16.7323 8.9964C15.9823 10.9564 14.3523 11.9164 12.5423 12.1964V12.6064C12.5423 12.9964 12.2823 13.2664 11.8923 13.2664H10.8123C10.4323 13.2664 10.1823 12.9964 10.1823 12.6064V12.1964C8.3623 11.9164 6.7423 10.9564 5.9923 8.9964C5.7423 9.2464 5.5823 9.5964 5.5323 10.0664L4.9723 14.9264C4.7923 16.4264 5.3823 17.1564 6.7623 17.1564H15.9623C17.3323 17.1564 17.9323 16.4264 17.7523 14.9264Z" />
        </svg>
    