
        <svg xmlns="http://www.w3.org/2000/svg" viewBox="0 0 100 100">
            <path d="M4.7207 27.4219H22.1007C25.1907 27.4219 27.1507 25.0619 26.7807 21.7719L25.7207 12.6919C25.4707 10.5019 23.7907 8.8919 21.6507 8.7519V7.9919C21.6507 3.1919 18.3607 0.0019 13.4007 0.0019C8.4607 0.0019 5.1707 3.1919 5.1707 7.9919V8.7519C3.0307 8.8919 1.3607 10.5019 1.1007 12.6919L0.0507 21.7719C-0.3293 25.0619 1.6307 27.4219 4.7207 27.4219ZM8.4607 7.9919C8.4607 5.1919 10.4507 3.3019 13.4007 3.3019C16.3707 3.3019 18.3507 5.1919 18.3507 7.9919V8.7519H8.4607ZM13.4007 15.1519C10.2807 15.1519 7.7707 14.2019 6.0207 12.0419H20.8007C19.0507 14.2019 16.5507 15.1519 13.4007 15.1519ZM4.7107 24.1219C3.7507 24.1219 3.1907 23.3319 3.3107 22.1719L4.1807 14.7119C5.8507 16.4519 7.9807 17.4919 10.4607 17.9619V18.4319C10.4607 19.6619 11.0307 20.2219 12.2707 20.2219H14.5507C15.8007 20.2219 16.3607 19.6619 16.3607 18.4319V17.9619C18.8407 17.4919 20.9607 16.4519 22.6307 14.7319L23.4907 22.1719C23.6207 23.3319 23.0607 24.1219 22.0907 24.1219Z" />
        </svg>
    