
        <svg xmlns="http://www.w3.org/2000/svg" viewBox="0 0 100 100">
            <path d="M9.7517 5.1933C9.8817 5.1933 9.9817 5.1233 10.0217 4.9733C10.3317 3.2133 10.3317 3.2033 12.1017 2.8733C12.2617 2.8333 12.3517 2.7433 12.3517 2.6033C12.3517 2.4533 12.2617 2.3533 12.1017 2.3233C10.3317 1.9733 10.3817 1.9533 10.0217 0.2333C9.9817 0.0833 9.8917 0.0033 9.7517 0.0033C9.6117 0.0033 9.5017 0.0933 9.4817 0.2333C9.1017 1.9533 9.1617 1.9733 7.3817 2.3233C7.2317 2.3533 7.1417 2.4633 7.1417 2.6033C7.1417 2.7333 7.2317 2.8333 7.3817 2.8733C9.1617 3.2233 9.1417 3.2133 9.4817 4.9733C9.5017 5.1133 9.6117 5.1933 9.7517 5.1933ZM17.5917 8.3533C17.7817 8.3533 17.9317 8.2233 17.9417 8.0133C18.2817 5.2633 18.4117 5.1933 21.2117 4.7233C21.4417 4.7033 21.5717 4.5833 21.5717 4.3833C21.5717 4.1933 21.4417 4.0733 21.2617 4.0433C18.4317 3.5033 18.2817 3.5133 17.9417 0.7633C17.9317 0.5533 17.7817 0.4233 17.5917 0.4233C17.4117 0.4233 17.2717 0.5533 17.2617 0.7533C16.8917 3.5533 16.8017 3.6333 13.9317 4.0433C13.7417 4.0633 13.6217 4.1933 13.6217 4.3833C13.6217 4.5733 13.7417 4.7033 13.9317 4.7233C16.8017 5.2833 16.8717 5.2733 17.2617 8.0433C17.2717 8.2233 17.4117 8.3533 17.5917 8.3533ZM9.9817 7.2633C9.7717 7.4533 9.6317 7.6833 9.5417 7.9333C8.6917 7.4333 7.7317 7.5633 6.9817 8.3233C6.6417 8.6633 6.4617 9.0833 6.4417 9.5233C5.4817 8.7933 4.4217 8.8133 3.5817 9.6433C2.7917 10.4433 2.7617 11.5433 3.4617 12.4833C3.0317 12.4833 2.6417 12.6633 2.3317 12.9733C1.4617 13.8233 1.5017 15.0033 2.4117 15.9233L3.3417 16.8433C2.8817 16.8233 2.4217 17.0433 2.0617 17.4033C1.2117 18.2533 1.2517 19.4833 2.1817 20.4133L9.3017 27.5433C12.5317 30.7733 16.3317 31.3133 19.5517 29.3833C21.2717 29.1633 22.9217 28.3233 24.3717 26.8733C27.2917 23.9533 27.7617 20.3233 25.7717 16.1133L23.1217 10.5333C22.6417 9.5033 21.8317 8.9633 20.8717 8.9633C20.2617 8.9633 19.2917 9.3033 18.9417 10.2533C18.1317 9.8233 17.1517 9.9833 16.4717 10.6733L16.4617 10.6833L13.0817 7.3133C12.1017 6.3433 10.9117 6.3433 9.9817 7.2633ZM16.7317 15.0133L10.6517 8.9333C10.6717 8.7633 10.7617 8.6133 10.9017 8.4733C11.2417 8.1333 11.7217 8.1533 12.0717 8.5033L15.9217 12.3633C15.9517 12.5833 16.0217 12.7933 16.1017 13.0333L16.8917 14.8933C16.9017 14.9433 16.9117 14.9833 16.8717 15.0233C16.8317 15.0733 16.7817 15.0633 16.7317 15.0133ZM20.2017 26.8133C17.2617 29.7433 13.5917 29.6533 10.2617 26.3133L3.3917 19.4433C3.0317 19.0933 3.0117 18.6233 3.3617 18.2733C3.7017 17.9333 4.1917 17.9333 4.5517 18.2833L8.7817 22.5233C9.0917 22.8233 9.5417 22.7833 9.8117 22.5133C10.0917 22.2333 10.1417 21.7733 9.8317 21.4733L3.5017 15.1333C3.1517 14.7733 3.1317 14.3133 3.4717 13.9733C3.8117 13.6333 4.3017 13.6333 4.6617 13.9833L10.5717 19.8833C10.8717 20.1933 11.3317 20.1533 11.6017 19.8733C11.8817 19.5933 11.9317 19.1333 11.6217 18.8333L4.6917 11.8933C4.3317 11.5433 4.3117 11.0533 4.6617 10.7133C4.9917 10.3733 5.4817 10.3933 5.8517 10.7433L12.7817 17.6833C13.0617 17.9633 13.5217 17.9533 13.8017 17.6733C14.1017 17.3833 14.1217 16.9233 13.8317 16.6333L7.9217 10.7133C7.5717 10.3633 7.5617 9.8833 7.9017 9.5433C8.2517 9.1833 8.7217 9.2033 9.0817 9.5633L17.2417 17.7233C17.6517 18.1333 18.1317 18.1333 18.4817 17.7733C18.7717 17.4833 18.9017 17.0933 18.6717 16.5033L17.2017 12.6433C17.0017 12.1333 17.1817 11.6933 17.5917 11.5033C18.0217 11.3133 18.4117 11.5033 18.6817 12.0733L21.4017 17.8233C23.2117 21.6633 22.5117 24.4933 20.2017 26.8133ZM22.7717 17.1633L20.1717 11.6833C20.1317 11.5633 20.1017 11.4533 20.1017 11.3133C20.1017 10.9333 20.4117 10.5633 20.9217 10.5633C21.2317 10.5633 21.5617 10.7833 21.7417 11.1533L24.4017 16.7733C26.2117 20.6033 25.5217 23.4533 23.1917 25.7433C23.0717 25.8633 22.9717 25.9733 22.8517 26.0733C24.3917 23.5233 24.3617 20.5333 22.7717 17.1633ZM3.3617 31.2633C3.5417 31.2633 3.6317 31.1633 3.6517 30.9933C4.0817 28.7033 4.0617 28.6533 6.4717 28.1933C6.6417 28.1533 6.7417 28.0633 6.7417 27.8933C6.7417 27.7133 6.6417 27.6333 6.4717 27.5933C4.0817 27.1133 4.1417 27.0733 3.6517 24.7833C3.6317 24.6233 3.5417 24.5133 3.3617 24.5133C3.2017 24.5133 3.1217 24.6233 3.0717 24.7833C2.5917 27.0733 2.6817 27.1133 0.2717 27.5933C0.1017 27.6333 0.0017 27.7133 0.0017 27.8933C0.0017 28.0633 0.1017 28.1533 0.2717 28.1933C2.6817 28.6633 2.6417 28.7033 3.0717 30.9933C3.1217 31.1633 3.2017 31.2633 3.3617 31.2633Z" />
        </svg>
    