
        <svg xmlns="http://www.w3.org/2000/svg" viewBox="0 0 100 100">
            <path d="M11.9523 23.9041C18.5523 23.9041 23.9023 18.5341 23.9023 11.9541C23.9023 5.3541 18.5523 0.0041 11.9523 0.0041C5.3623 0.0041 0.0023 5.3541 0.0023 11.9541C0.0023 18.5341 5.3623 23.9041 11.9523 23.9041ZM15.5623 9.9741C15.5423 11.5241 15.1123 12.4541 14.2923 13.5541C13.3023 14.8841 12.0123 16.4341 11.0323 18.3141C10.7923 18.8041 10.5623 19.1241 10.0923 19.1241C9.5823 19.1241 9.1923 18.7641 9.1923 18.1641C9.1923 17.0241 10.2823 15.4241 10.2823 14.5341C10.2823 14.0541 9.9023 13.7441 9.2923 13.7441H6.9923C6.3623 13.7441 5.8723 13.2341 5.8723 12.5841C5.8723 12.2441 6.0023 11.9341 6.1923 11.7441C6.3023 11.6641 6.3323 11.6041 6.2123 11.5241C6.0423 11.3541 5.9523 11.0141 5.9523 10.7241C5.9523 10.2741 6.1523 9.9341 6.4723 9.7541C6.5723 9.6941 6.5823 9.5941 6.5123 9.4941C6.3623 9.3141 6.2723 9.0441 6.2723 8.7541C6.2723 8.2341 6.6223 7.8541 7.0123 7.7041C7.0823 7.6741 7.0923 7.5941 7.0423 7.5141C6.9723 7.3841 6.9023 7.1741 6.9023 6.9341C6.9023 6.3141 7.4023 6.0241 7.9323 5.8841C8.2823 5.8041 8.9023 5.7341 9.7423 5.7441L10.6423 5.7541C13.6723 5.7841 15.6023 7.5841 15.5623 9.9741ZM18.7523 9.9241C18.7523 11.9141 17.6323 13.5041 16.1723 13.5041H15.2323C15.7723 12.7741 16.4223 11.6241 16.4423 9.9841C16.4623 8.4941 15.9623 7.2041 14.7623 6.3441H15.9423C17.5623 6.3441 18.7523 7.9641 18.7523 9.9241Z" />
        </svg>
    