
        <svg xmlns="http://www.w3.org/2000/svg" viewBox="0 0 100 100">
            <path d="M7.6717 5.4145C7.7217 5.4145 7.7617 5.4045 7.7717 5.3445C8.0417 3.3045 8.1217 3.1545 10.2917 2.8145C10.3617 2.8045 10.3917 2.7645 10.3917 2.7045C10.3917 2.6445 10.3617 2.6245 10.2917 2.6145C8.1417 2.1645 8.2617 2.0145 7.7717 0.0745C7.7617 0.0145 7.7217 0.0045 7.6717 0.0045C7.6417 0.0045 7.6017 0.0145 7.5917 0.0745C7.1017 2.0145 7.2617 2.1645 5.0717 2.6145C5.0017 2.6245 4.9717 2.6445 4.9717 2.7045C4.9717 2.7645 5.0017 2.8045 5.0717 2.8145C7.2617 3.2445 7.3017 3.3045 7.5917 5.3445C7.6017 5.4045 7.6417 5.4145 7.6717 5.4145ZM15.3417 8.3245C15.4117 8.3245 15.4717 8.2745 15.4817 8.2045C15.9717 5.1945 15.9217 5.2945 18.9817 4.6745C19.0517 4.6645 19.1117 4.6145 19.1117 4.5445C19.1117 4.4645 19.0517 4.4145 18.9817 4.4045C15.9217 3.7845 15.9717 3.9145 15.4817 0.9045C15.4717 0.8045 15.4117 0.7745 15.3417 0.7745C15.2817 0.7745 15.2217 0.8045 15.2017 0.9045C14.7117 3.8945 14.7917 3.7845 11.6917 4.4045C11.6217 4.4145 11.5617 4.4645 11.5617 4.5445C11.5617 4.6145 11.6217 4.6645 11.6917 4.6745C14.7917 5.2945 14.7117 5.2045 15.2017 8.2045C15.2217 8.2745 15.2817 8.3245 15.3417 8.3245ZM8.6717 6.6945C8.3817 6.9645 8.2117 7.3145 8.1817 7.7145C7.4017 7.0645 6.5117 7.1245 5.8917 7.7445C5.5517 8.0845 5.3717 8.5145 5.4217 9.0245C4.6317 8.2545 3.6217 8.1245 2.8717 8.8745C2.1217 9.6245 2.2117 10.7345 2.9517 11.4845C2.4617 11.4345 2.0117 11.6245 1.6717 11.9645C0.9917 12.6345 0.9817 13.6145 1.8117 14.4345L3.0117 15.6445C2.5217 15.5845 2.0717 15.7945 1.7317 16.1345C1.0517 16.8145 1.0517 17.7745 1.8917 18.5945L8.7317 25.4545C11.8817 28.6045 15.2317 28.7445 17.9417 26.9845C19.4917 26.7745 20.9217 25.9645 22.1717 24.7245C24.7417 22.1945 25.1817 18.9345 23.5417 15.5245L20.6417 9.4845C20.2817 8.7145 19.5917 8.3645 18.9517 8.3645C18.0717 8.3645 17.4017 8.9045 17.2517 9.7145C16.5917 9.1845 15.6917 9.2345 15.0517 9.8745C14.9017 10.0145 14.7917 10.1945 14.7117 10.3945L11.1317 6.8045C10.3117 5.9845 9.3617 6.0245 8.6717 6.6945ZM16.2417 15.7545L8.6817 8.1945C8.5817 7.7945 8.6817 7.3945 9.0017 7.0745C9.5117 6.5645 10.1417 6.6645 10.7117 7.2345L14.6017 11.1045C14.6117 11.3745 14.6817 11.6645 14.8117 11.9545L16.3917 15.5945C16.4217 15.6845 16.4017 15.7245 16.3817 15.7645C16.3317 15.8045 16.2817 15.7945 16.2417 15.7545ZM19.0217 25.4045C16.3117 28.1045 12.6117 28.5045 9.1417 25.0445L2.2817 18.1845C1.7217 17.6245 1.6317 16.9845 2.1417 16.4645C2.6517 15.9645 3.3617 15.9845 3.9217 16.5445L7.9417 20.5645C8.1717 20.7845 8.3317 20.7545 8.4417 20.6445C8.5517 20.5445 8.5817 20.3745 8.3517 20.1545L2.2217 14.0245C1.6517 13.4645 1.5617 12.8045 2.0717 12.3045C2.5817 11.7845 3.2917 11.8245 3.8517 12.3845L9.5617 18.0945C9.7817 18.3145 9.9617 18.2845 10.0617 18.1845C10.1817 18.0745 10.1917 17.9045 9.9817 17.6845L3.3617 11.0745C2.8017 10.5045 2.7217 9.7545 3.2317 9.2345C3.7117 8.7545 4.4417 8.8745 5.0017 9.4345L11.6217 16.0545C11.7817 16.2045 11.9517 16.2845 12.1217 16.1345C12.2617 15.9845 12.1917 15.7945 12.0317 15.6445L6.3117 9.9245C5.7517 9.3645 5.7217 8.6445 6.2317 8.1445C6.7517 7.6245 7.3917 7.7245 7.9617 8.2845L15.8517 16.1845C16.1517 16.4745 16.5117 16.4345 16.7717 16.1745C16.9917 15.9445 17.0517 15.6845 16.9117 15.3545L15.3417 11.7045C15.0117 10.9545 15.1917 10.3245 15.8017 10.0445C16.4017 9.7545 16.9917 10.0645 17.3417 10.7845L20.2617 16.8245C21.7517 19.9245 21.3717 23.0545 19.0217 25.4045ZM19.4017 25.7945C21.9617 23.2345 22.4017 20.0045 20.7817 16.5945L17.9517 10.6745C17.8517 10.4645 17.7917 10.2545 17.7917 10.0545C17.7917 9.3945 18.1917 8.9345 18.9517 8.9345C19.4017 8.9345 19.8517 9.1945 20.1017 9.7245L23.0317 15.7645C24.5317 18.8545 24.1517 21.9945 21.8017 24.3445C20.9517 25.1845 20.0317 25.7945 19.0317 26.1445C19.1617 26.0245 19.2917 25.9145 19.4017 25.7945ZM2.9917 28.5545C3.0217 28.5545 3.0617 28.5445 3.0817 28.4845C3.3617 26.2545 3.4717 26.0845 5.8517 25.6945C5.9317 25.6845 5.9517 25.6545 5.9517 25.5845C5.9517 25.5245 5.9317 25.4845 5.8517 25.4745C3.4917 24.9945 3.6217 24.8345 3.0817 22.6845C3.0617 22.6245 3.0217 22.6045 2.9917 22.6045C2.9417 22.6045 2.8917 22.6245 2.8817 22.6845C2.3417 24.8345 2.5217 24.9945 0.1217 25.4745C0.0517 25.4845 0.0017 25.5245 0.0017 25.5845C0.0017 25.6545 0.0517 25.6845 0.1217 25.6945C2.5217 26.1845 2.5517 26.2545 2.8817 28.4845C2.8917 28.5445 2.9417 28.5545 2.9917 28.5545Z" />
        </svg>
    