
        <svg xmlns="http://www.w3.org/2000/svg" viewBox="0 0 100 100">
            <path d="M3.0556 0.4015C1.6556 2.0115 0.6256 3.9215 0.0556 5.8915C-0.3344 7.1915 1.5956 7.8815 2.0556 6.3815C2.5456 4.7215 3.4256 3.1515 4.6356 1.7615C5.5956 0.6715 4.0556 -0.6985 3.0556 0.4015ZM18.0556 21.9815C22.5056 21.9815 27.6956 19.1515 27.6956 12.8315C27.6956 9.7315 26.1156 3.2215 23.9656 3.2215C23.5156 3.2215 23.2456 3.4715 23.3856 3.8115L23.6756 4.6015C23.9056 5.2415 23.0756 5.5315 22.8156 4.9215L22.3156 3.7815C21.5656 2.1315 20.1056 1.9415 19.2456 2.3915C18.9856 2.5315 18.9256 2.7715 19.0456 2.9815C19.4456 3.7015 19.7756 4.3815 20.0756 5.0615C20.3956 5.7515 19.4556 6.1915 19.0856 5.4715C18.8056 4.9015 18.4256 4.2015 18.0356 3.7415C16.6956 2.0315 14.3956 1.4615 11.9056 2.1515L8.1856 3.1715C5.7256 3.8515 6.8156 6.8015 9.0156 6.3615L12.6456 5.6315C13.7056 5.4215 14.5956 5.6815 15.0856 6.3215C15.8956 7.3815 16.7656 9.0815 16.7656 10.2715C16.7656 11.9015 15.7856 13.8815 13.6956 13.8815C12.6556 13.8815 11.4656 13.4515 10.1856 12.2115L7.8556 9.9615C6.3156 8.4715 3.7156 10.3815 5.4456 12.4315L9.3756 17.1015C12.2456 20.5315 15.1556 21.9815 18.0556 21.9815ZM3.0556 17.8115C4.0456 18.9215 5.6056 17.5615 4.6356 16.4415C3.4256 15.0915 2.5456 13.5115 2.0556 11.8315C1.5956 10.3415 -0.3344 11.0115 0.0556 12.3315C0.6256 14.3015 1.6556 16.2115 3.0556 17.8115Z" />
        </svg>
    