
        <svg xmlns="http://www.w3.org/2000/svg" viewBox="0 0 100 100">
            <path d="M11.7523 23.5048C18.2423 23.5048 23.5123 18.2448 23.5123 11.7548C23.5123 5.2648 18.2423 0.0048 11.7523 0.0048C5.2623 0.0048 0.0023 5.2648 0.0023 11.7548C0.0023 18.2448 5.2623 23.5048 11.7523 23.5048ZM11.7523 21.9848C6.0923 21.9848 1.5223 17.4148 1.5223 11.7548C1.5223 6.0948 6.0923 1.5148 11.7523 1.5148C17.4123 1.5148 21.9923 6.0948 21.9923 11.7548C21.9923 17.4148 17.4123 21.9848 11.7523 21.9848ZM11.7223 12.0248C13.7623 12.0248 15.5423 11.2348 16.4623 9.1648C16.2323 9.0448 15.9623 9.0048 15.6323 9.0048H15.4823V8.3548C15.4823 6.2648 13.8823 4.7448 11.7223 4.7448C9.5623 4.7448 7.9723 6.2648 7.9723 8.3548V9.0048H7.8123C7.4923 9.0048 7.2223 9.0448 6.9823 9.1648C7.9123 11.2348 9.6923 12.0248 11.7223 12.0248ZM8.8223 8.3548C8.8223 6.7648 10.0523 5.5848 11.7223 5.5848C13.3923 5.5848 14.6223 6.7648 14.6223 8.3548V9.0048H8.8223ZM17.8923 15.1048L17.3623 10.5748C17.3323 10.2348 17.2223 9.9648 17.0723 9.7548C16.1723 11.5848 14.6123 12.5148 12.9123 12.7948V13.1948C12.9123 13.5948 12.6723 13.8548 12.2623 13.8548H11.1823C10.7823 13.8548 10.5323 13.5948 10.5323 13.1948V12.7948C8.8323 12.5148 7.2823 11.5848 6.3723 9.7548C6.2223 9.9648 6.1123 10.2348 6.0823 10.5748L5.5523 15.1048C5.3823 16.6148 6.0223 17.4148 7.4423 17.4148H16.0123C17.4223 17.4148 18.0723 16.6148 17.8923 15.1048Z" />
        </svg>
    