
        <svg xmlns="http://www.w3.org/2000/svg" viewBox="0 0 100 100">
            <path d="M21.7941 23.2347C26.9041 21.3747 28.9541 16.9247 26.9541 11.4047L25.9341 8.6047C24.9641 5.9447 23.0541 4.8047 20.8341 5.5447C20.2141 4.8147 19.2741 4.5947 18.2941 4.9447C17.9841 5.0647 17.7141 5.2047 17.4741 5.3947C16.7941 4.6147 15.8341 4.3447 14.8341 4.7147C14.6641 4.7747 14.4741 4.8747 14.3041 4.9947L13.1841 1.9247C12.6141 0.3147 11.1641 -0.3653 9.6541 0.1847C8.1141 0.7547 7.4141 2.2047 8.0041 3.8047L11.0641 12.2147C11.0841 12.2747 11.0741 12.3247 11.0141 12.3447C10.9841 12.3547 10.9441 12.3447 10.9141 12.3047L9.9241 11.2547C9.2141 10.6047 8.3641 10.4347 7.5441 10.7347C6.2541 11.2047 5.5341 12.4247 6.0341 13.8147C6.1741 14.2147 6.4341 14.6647 6.7341 15.0247L10.7441 19.8547C13.8641 23.6047 17.6341 24.7647 21.7941 23.2347ZM21.0841 21.0847C17.9441 22.2347 15.0941 21.5547 12.4241 18.4247L8.3541 13.7047C8.2541 13.5847 8.1941 13.4747 8.1341 13.3247C8.0241 13.0247 8.1441 12.6847 8.5241 12.5447C8.8041 12.4347 9.0441 12.5447 9.2841 12.7847L12.1241 15.5947C12.6141 16.0647 13.0941 16.1247 13.5241 15.9647C14.0741 15.7647 14.3641 15.1747 14.1341 14.5347L9.9241 2.9647C9.7841 2.5947 9.9541 2.2247 10.3241 2.0847C10.6841 1.9547 11.0441 2.1347 11.1841 2.5047L14.1141 10.5547C14.2841 11.0447 14.8241 11.2747 15.3141 11.0947C15.7841 10.9247 16.0441 10.3947 15.8641 9.9147L14.8341 7.0947C14.9741 6.9747 15.1741 6.8547 15.3541 6.7847C15.7841 6.6247 16.1741 6.8247 16.3341 7.2747L17.2941 9.9047C17.4741 10.4047 18.0141 10.6147 18.4841 10.4447C18.9341 10.2747 19.2041 9.7747 19.0341 9.2847L18.3141 7.3247C18.4541 7.1947 18.6441 7.0747 18.8341 7.0247C19.2641 6.8547 19.6441 7.0447 19.8141 7.5047L20.4541 9.2447C20.6241 9.7547 21.1741 9.9647 21.6541 9.7947C22.1241 9.6247 22.3941 9.1047 22.2041 8.6047L21.8441 7.6047C22.6641 7.3047 23.4041 7.9147 23.9141 9.3247L24.8641 11.9447C26.4641 16.3047 25.0041 19.6547 21.0841 21.0847ZM5.8041 3.0147C2.2741 5.1647 0.0041 9.1647 0.0041 13.9947C0.0041 14.5247 0.4441 14.9647 0.9341 14.9547C1.4441 14.9447 1.8141 14.5447 1.8441 14.0247C1.9341 9.9147 3.6641 6.6547 6.4541 4.7947Z" />
        </svg>
    