
        <svg xmlns="http://www.w3.org/2000/svg" viewBox="0 0 100 100">
            <path d="M9.0113 26.8594C13.4813 26.8594 16.6013 24.4794 18.2813 19.7894L20.3813 13.8894C20.5413 13.4394 20.6213 13.0094 20.6213 12.6094C20.6213 11.1994 19.5813 10.1694 18.1713 10.1694C17.3313 10.1694 16.5313 10.6394 16.1413 11.5394L15.5813 12.8694C15.5713 12.9094 15.5413 12.9394 15.5013 12.9394C15.4413 12.9394 15.4213 12.8994 15.4213 12.8394V4.0894C15.4213 2.5294 14.3913 1.5094 12.8412 1.5094C12.4213 1.5094 12.0313 1.6494 11.7213 1.8894C11.4513 0.6994 10.5712 -0.0006 9.3413 -0.0006C8.1613 -0.0006 7.2513 0.7294 6.9713 1.8594C6.6813 1.6294 6.3212 1.5094 5.9413 1.5094C4.5113 1.5094 3.5313 2.5094 3.5313 3.9494V4.9094C3.2413 4.6594 2.8613 4.5394 2.4513 4.5394C1.0213 4.5394 0.0012 5.5894 0.0012 7.0894V17.4694C0.0012 23.2594 3.6013 26.8594 9.0113 26.8594ZM8.9413 24.6194C4.7113 24.6194 2.1213 21.9394 2.1213 17.2594V7.3494C2.1213 6.9394 2.3913 6.6594 2.7813 6.6594C3.1713 6.6594 3.4613 6.9394 3.4613 7.3494V13.4194C3.4613 13.9594 3.9012 14.3594 4.4213 14.3594C4.9413 14.3594 5.3912 13.9594 5.3912 13.4194V4.2994C5.3912 3.8894 5.6512 3.6094 6.0512 3.6094C6.4413 3.6094 6.7313 3.8894 6.7313 4.2994V12.7994C6.7313 13.3394 7.1713 13.7294 7.6913 13.7294C8.2013 13.7294 8.6512 13.3394 8.6512 12.7994V2.7894C8.6512 2.3894 8.9313 2.0994 9.3313 2.0994C9.7113 2.0994 9.9913 2.3894 9.9913 2.7894V12.5594C9.9913 13.0894 10.4313 13.4994 10.9413 13.4994C11.4813 13.4994 11.9213 13.0894 11.9213 12.5594V4.2994C11.9213 3.8894 12.2013 3.6094 12.5813 3.6094C12.9813 3.6094 13.2513 3.8894 13.2513 4.2994V16.0694C13.2513 16.8094 13.7413 17.2194 14.3413 17.2194C14.8513 17.1994 15.3213 16.9694 15.6013 16.3194L17.2813 12.5394C17.4713 12.1194 17.8513 11.9894 18.1713 12.1194C18.5413 12.2494 18.6713 12.5994 18.5013 13.0694L16.2913 19.0894C14.8313 23.0594 12.4213 24.6194 8.9413 24.6194Z" />
        </svg>
    