
        <svg xmlns="http://www.w3.org/2000/svg" viewBox="0 0 100 100">
            <path d="M8.9253 4.125C9.1153 4.075 9.2753 3.855 9.2253 3.685L8.4853 0.295C8.4553 0.095 8.2553 -0.035 8.0453 0.005C7.8453 0.045 7.7053 0.245 7.7453 0.445L8.4753 3.825C8.5253 4.015 8.7253 4.155 8.9253 4.125ZM4.9853 5.475C5.1253 5.615 5.3653 5.615 5.5153 5.475C5.6553 5.325 5.6553 5.085 5.5153 4.945L3.0653 2.495C2.8953 2.325 2.6753 2.345 2.5253 2.495C2.3853 2.635 2.3653 2.855 2.5253 3.025ZM13.5953 5.435C13.3353 5.695 13.1753 6.005 13.1153 6.365C12.3353 5.765 11.4253 5.835 10.7853 6.495C10.4453 6.825 10.2453 7.265 10.2953 7.755C9.4553 6.995 8.4453 6.885 7.6653 7.665C6.9053 8.425 6.9753 9.525 7.7053 10.335C7.2253 10.285 6.7853 10.475 6.4553 10.805C5.7453 11.525 5.7453 12.545 6.5853 13.395L7.7253 14.525C7.2353 14.485 6.7853 14.695 6.4453 15.035C5.7353 15.755 5.7353 16.775 6.5853 17.635L13.4953 24.535C16.6653 27.715 20.1253 27.935 22.9453 26.145C24.5353 25.915 26.0053 25.115 27.3053 23.835C29.9553 21.205 30.4053 17.865 28.6953 14.285L25.8453 8.325C25.4553 7.505 24.7453 7.115 24.0153 7.115C23.2153 7.115 22.4653 7.605 22.2653 8.435C21.5653 7.945 20.6653 8.015 20.0053 8.665C19.8853 8.785 19.7953 8.915 19.7253 9.055L16.2053 5.545C15.3553 4.685 14.3453 4.705 13.5953 5.435ZM20.9953 14.205L13.7453 6.955C13.6953 6.615 13.7953 6.295 14.0653 6.005C14.5353 5.545 15.1353 5.625 15.6553 6.135L19.5353 10.005C19.5453 10.265 19.6153 10.535 19.7353 10.815L21.1453 14.065C21.1653 14.135 21.1553 14.175 21.1353 14.215C21.0853 14.245 21.0353 14.245 20.9953 14.205ZM23.9253 24.335C21.1653 27.095 17.4653 27.375 14.0353 23.955L7.1753 17.085C6.6553 16.565 6.5753 15.955 7.0553 15.495C7.5253 15.025 8.1853 15.045 8.7053 15.565L12.7653 19.625C13.0153 19.865 13.2453 19.825 13.3853 19.685C13.5353 19.535 13.5653 19.315 13.3253 19.065L7.1553 12.885C6.6353 12.375 6.5553 11.765 7.0253 11.295C7.5053 10.825 8.1553 10.845 8.6753 11.365L14.4253 17.115C14.6753 17.355 14.9053 17.315 15.0453 17.175C15.2053 17.025 15.2253 16.805 14.9953 16.555L8.2953 9.875C7.7853 9.365 7.7253 8.655 8.1953 8.185C8.6353 7.745 9.3053 7.825 9.8353 8.345L16.5253 15.045C16.7053 15.225 16.9453 15.275 17.1353 15.095C17.3153 14.915 17.2653 14.655 17.0753 14.485L11.3253 8.715C10.8053 8.205 10.7753 7.545 11.2553 7.075C11.7253 6.595 12.3353 6.675 12.8453 7.195L20.8053 15.155C21.1153 15.465 21.5153 15.435 21.7853 15.155C22.0353 14.915 22.1053 14.615 21.9453 14.225L20.3953 10.535C20.1053 9.845 20.2753 9.255 20.8353 8.985C21.4153 8.715 21.9553 9.005 22.2953 9.685L25.1553 15.665C26.7253 18.935 26.2653 21.995 23.9253 24.335ZM3.7053 9.175C3.8953 9.205 4.0953 9.095 4.1353 8.895C4.1753 8.685 4.0553 8.495 3.8453 8.455L0.4453 7.725C0.2453 7.685 0.0253 7.815 0.0053 8.025C-0.0247 8.225 0.0953 8.415 0.3053 8.455ZM25.8653 15.335L23.0753 9.495C22.9953 9.305 22.9453 9.125 22.9453 8.965C22.9453 8.355 23.3353 7.915 24.0253 7.915C24.4553 7.915 24.8653 8.175 25.1053 8.665L27.9753 14.595C29.5453 17.865 29.0853 20.935 26.7453 23.275C26.0553 23.965 25.3053 24.505 24.5153 24.865C27.1353 22.255 27.5753 18.925 25.8653 15.335Z" />
        </svg>
    