
        <svg xmlns="http://www.w3.org/2000/svg" viewBox="0 0 100 100">
            <path d="M5.8623 -0.0045C2.6223 -0.0045 0.0023 2.6255 0.0023 5.8555C0.0023 7.2555 0.4923 8.5455 1.3023 9.5555C1.5023 9.7955 1.7323 9.8955 1.9523 9.8955C2.5323 9.8955 3.0223 9.2155 2.5323 8.6255C1.9023 7.8755 1.5323 6.9155 1.5323 5.8555C1.5323 3.4655 3.4723 1.5355 5.8623 1.5355C8.2523 1.5355 10.1723 3.4655 10.1723 5.8555V6.1055C10.1823 6.6355 10.5423 6.8655 10.9223 6.8655C11.2823 6.8655 11.6623 6.6055 11.6923 6.1955C11.7023 6.1155 11.7023 6.0155 11.7023 5.8555C11.7023 2.6255 9.0923 -0.0045 5.8623 -0.0045ZM17.2523 25.2555C22.0323 23.5155 23.6223 19.5455 21.7623 14.4255L21.0023 12.3155C20.2823 10.3855 18.9423 9.5355 17.8823 9.9155C17.6323 10.0055 17.5523 10.1855 17.6323 10.4055L17.9723 11.3455C18.1423 11.7855 18.0023 12.0855 17.7323 12.1855C17.4523 12.2855 17.1423 12.1555 16.9823 11.7055L16.7623 11.0955C16.3323 9.9455 15.3423 9.4655 14.3523 9.8355C13.9123 9.9955 13.7723 10.2555 13.9123 10.6255L14.3823 11.9055C14.5323 12.3555 14.3923 12.6455 14.1323 12.7455C13.8423 12.8555 13.5323 12.7155 13.3723 12.2655L12.9523 11.0955C12.4823 9.8055 11.5223 9.4755 10.5623 9.8355C10.1323 9.9855 9.9823 10.2655 10.1123 10.6255L11.0323 13.1255C11.1923 13.5655 11.0423 13.8655 10.7823 13.9655C10.4923 14.0755 10.1823 13.9355 10.0223 13.4855L6.9823 5.1355C6.6923 4.3155 5.9623 3.9855 5.2723 4.2255C4.5323 4.4955 4.2223 5.2155 4.5123 6.0355L8.9623 18.2655C9.0723 18.5755 8.9423 18.7955 8.7523 18.8655C8.5623 18.9355 8.3623 18.8755 8.1323 18.6255L5.1223 15.3855C4.6723 14.9155 4.2023 14.8055 3.7123 14.9855C2.9623 15.2555 2.6723 15.9455 2.8923 16.5855C2.9923 16.8255 3.1123 17.0155 3.2323 17.1655L6.9623 21.8455C10.1023 25.7855 13.7323 26.5355 17.2523 25.2555Z" />
        </svg>
    