
        <svg xmlns="http://www.w3.org/2000/svg" viewBox="0 0 100 100">
            <path d="M-0.0006 19.8894C-0.0006 20.9994 0.7294 21.8294 2.1194 21.8294H25.9194C27.3194 21.8294 28.0394 20.9994 28.0394 19.8894C28.0394 19.0894 27.5394 18.2794 26.7194 17.8094L14.4494 10.9994V10.4794C14.4494 9.1294 15.2594 8.5194 16.1994 7.7794C17.2194 6.9994 18.3594 6.0794 18.3594 4.0594C18.3594 1.6194 16.6494 -0.0006 14.0694 -0.0006C11.5594 -0.0006 9.8594 1.8094 9.8594 4.4894C9.8594 4.7694 10.0294 4.9494 10.2794 4.9494C10.5194 4.9494 10.6994 4.7694 10.6994 4.5194C10.6994 2.3194 12.0594 0.8594 14.0694 0.8594C16.1494 0.8594 17.5194 2.1294 17.5194 4.0594C17.5194 5.6294 16.6494 6.3894 15.7494 7.0994C14.7194 7.9094 13.5894 8.6694 13.5894 10.4794V10.9994L1.3194 17.8094C0.4894 18.2794 -0.0006 19.0894 -0.0006 19.8894ZM0.8894 19.8494C0.8894 19.3494 1.1794 18.8794 1.7794 18.5394L14.0194 11.7694L26.2594 18.5394C26.8494 18.8794 27.1394 19.3494 27.1394 19.8494C27.1394 20.4994 26.7094 20.9694 25.7694 20.9694H2.2594C1.3394 20.9694 0.8894 20.4994 0.8894 19.8494Z" />
        </svg>
    