
        <svg xmlns="http://www.w3.org/2000/svg" viewBox="0 0 100 100">
            <path d="M11.7523 23.5048C18.2323 23.5048 23.5123 18.2348 23.5123 11.7548C23.5123 5.2748 18.2323 0.0048 11.7523 0.0048C5.2723 0.0048 0.0023 5.2748 0.0023 11.7548C0.0023 18.2348 5.2723 23.5048 11.7523 23.5048ZM12.1623 16.8648C11.7323 16.8648 11.3823 16.7548 10.8323 16.3148L8.5423 14.4948C8.4723 14.4948 8.3823 14.5048 8.2923 14.5048C6.6723 14.5048 5.3223 14.0248 4.5123 12.8748C3.7923 12.8648 3.2723 12.4648 3.2723 11.8048C3.2723 11.2148 3.7223 10.8348 4.3523 10.8148C5.1123 8.7448 6.5423 7.6648 8.4423 7.6648C10.2523 7.6648 11.6023 8.6648 13.3323 9.6548C14.0123 10.0548 14.4223 10.2648 14.8523 10.2648C15.1323 10.2648 15.3823 10.1248 15.7423 9.7748L12.4423 7.8048C11.7223 7.3848 10.8323 6.7848 10.8323 6.3248C10.8323 5.6748 12.0123 5.2048 12.8423 5.2048C13.8723 5.2048 14.9023 5.7448 15.7123 6.8548L17.2123 8.9148C18.8523 8.8348 20.2623 10.2048 20.2623 12.0548C20.2623 13.4648 19.5623 13.8048 18.0323 13.8048C17.2223 13.8048 16.4323 13.5048 15.7923 13.0048C15.2423 13.3448 14.8623 13.6448 14.5223 13.8848C14.1923 13.8348 13.9323 13.8248 13.6023 13.8248C13.1723 13.8248 12.7423 13.8648 12.3623 13.9448L11.9723 12.9748C11.2223 11.1648 10.0223 10.2548 8.3623 10.2548C7.8723 10.2548 7.4223 10.3448 7.4223 10.6648C7.4223 10.8748 7.5423 10.9648 7.7623 10.9648H8.4123C9.7723 10.9648 10.7723 11.7848 11.3823 13.1848L11.9723 14.5548C12.4423 14.4348 12.8223 14.3648 13.6523 14.3648C15.3123 14.3648 16.4523 15.0248 16.4523 15.9948C16.4523 16.5448 16.0123 16.8648 15.1623 16.8648C14.6023 16.8648 14.3923 16.6748 13.6623 16.6748C12.9423 16.6748 12.5523 16.8648 12.1623 16.8648ZM17.8623 11.7548C18.0923 11.7548 18.2923 11.5048 18.2923 11.2748C18.2923 11.0348 18.1023 10.8348 17.8623 10.8348C17.6223 10.8348 17.4223 11.0548 17.4223 11.2948C17.4223 11.5148 17.6123 11.7548 17.8623 11.7548ZM7.9823 17.2348C6.7623 17.2348 6.0423 16.7448 6.0423 15.9948C6.0423 15.5048 6.3823 15.1848 7.0223 15.1848C7.4723 15.1848 7.9823 15.2548 8.2223 15.2548C8.3523 15.2548 8.4423 15.2448 8.5323 15.2448L10.3023 16.6748C9.7223 17.0348 9.0423 17.2348 7.9823 17.2348Z" />
        </svg>
    