
        <svg xmlns="http://www.w3.org/2000/svg" viewBox="0 0 100 100">
            <path d="M11.4923 22.977C17.8123 22.977 22.9823 17.827 22.9823 11.497C22.9823 5.167 17.8123 -0.003 11.4923 -0.003C5.1723 -0.003 0.0023 5.167 0.0023 11.497C0.0023 17.827 5.1723 22.977 11.4923 22.977ZM11.9223 16.507C11.4823 16.507 11.0523 16.367 10.5623 15.997L8.2823 14.307C8.2123 14.307 8.1223 14.307 8.0523 14.307C6.3523 14.307 5.0423 13.807 4.2523 12.657C3.5123 12.637 2.9923 12.257 2.9923 11.567C2.9923 10.977 3.4523 10.617 4.0823 10.567C4.8523 8.547 6.2723 7.477 8.1823 7.477C10.0223 7.477 11.3623 8.517 13.1123 9.507C13.7923 9.917 14.1323 10.057 14.5323 10.057C14.8023 10.057 15.1023 9.877 15.6023 9.397L12.2323 7.467C11.4823 7.047 10.6323 6.507 10.6323 6.047C10.6323 5.417 11.7523 4.947 12.6023 4.947C13.6523 4.947 14.7223 5.487 15.4923 6.597L16.9523 8.707C18.4923 8.547 20.0423 9.957 20.0423 11.907C20.0423 13.227 19.3623 13.577 17.8623 13.577C17.0023 13.577 16.1123 13.227 15.4723 12.647C14.9623 13.127 14.5623 13.437 14.2223 13.697C13.8823 13.637 13.7023 13.627 13.3623 13.627C12.9123 13.627 12.4723 13.657 12.0923 13.757L11.6923 12.757C10.9723 10.957 9.7623 10.047 8.1223 10.047C7.6623 10.047 7.1923 10.137 7.1923 10.427C7.1923 10.627 7.3123 10.707 7.5223 10.707H8.1723C9.4923 10.707 10.5123 11.487 11.1523 12.947L11.7523 14.287C12.2023 14.177 12.5823 14.097 13.4023 14.097C15.0223 14.097 16.2423 14.767 16.2423 15.717C16.2423 16.197 15.7823 16.507 14.9223 16.507C14.3423 16.507 14.1223 16.327 13.4223 16.327C12.7223 16.327 12.2923 16.507 11.9223 16.507ZM17.6323 11.547C17.8523 11.547 18.0423 11.317 18.0423 11.097C18.0423 10.867 17.8823 10.697 17.6323 10.697C17.4223 10.697 17.2223 10.887 17.2223 11.117C17.2223 11.327 17.4123 11.547 17.6323 11.547ZM7.5923 16.767C6.3523 16.767 5.6923 16.287 5.6923 15.547C5.6923 15.097 5.9923 14.787 6.6223 14.787C7.0223 14.787 7.6123 14.857 7.8323 14.857C7.9523 14.857 8.0523 14.847 8.1423 14.847L9.9523 16.247C9.3423 16.607 8.6323 16.767 7.5923 16.767Z" />
        </svg>
    