
        <svg xmlns="http://www.w3.org/2000/svg" viewBox="0 0 100 100">
            <path d="M17.9717 23.1397C18.7117 23.1397 19.6217 22.7697 20.9617 22.7697C22.3617 22.7697 22.8417 23.1397 23.9717 23.1397C25.7117 23.1397 26.6717 22.4797 26.6717 21.5997C26.6717 19.7497 24.1517 18.3897 20.9417 18.3897C19.3117 18.3897 18.5417 18.5397 17.6517 18.7597L16.4617 16.0697C15.1617 13.0897 13.0517 11.5697 10.4417 11.5697H9.1017C8.7117 11.5697 8.4917 11.3997 8.4917 11.0697C8.4917 10.4897 9.4117 10.3397 10.3317 10.3397C13.6217 10.3397 16.0117 12.1397 17.4917 15.7597L18.3117 17.7697C19.0617 17.5897 19.9317 17.5097 20.8317 17.5097C21.5017 17.5097 21.8717 17.5497 22.5617 17.6497C23.2517 17.1297 24.0117 16.4797 25.0117 15.3797C26.2717 16.6497 28.2217 17.3897 29.9717 17.3897C32.9517 17.3897 34.3017 16.6597 34.3017 14.0897C34.3017 10.0997 31.0417 7.2197 28.0817 7.5797L25.1917 3.3497C23.6617 1.0897 21.4617 -0.0003 19.3117 -0.0003C17.6217 -0.0003 15.4217 0.9297 15.4217 2.1897C15.4217 3.1097 17.1117 4.1497 18.6217 4.9997L25.4317 8.8397C24.3017 9.9597 23.6717 10.3397 23.1117 10.3397C22.3817 10.3397 21.7417 10.1097 20.3717 9.2597C16.8617 7.2997 14.1417 5.1997 10.4617 5.1997C6.6117 5.1997 3.7217 7.3097 2.1817 11.3697C0.9217 11.4097 0.0017 12.1397 0.0017 13.3497C0.0017 14.6997 1.0417 15.4697 2.5417 15.5197C4.1117 17.7897 6.6917 18.8697 10.1817 18.8697C10.3317 18.8697 10.5017 18.8697 10.6617 18.8697L15.2217 22.1597C16.1417 22.8297 17.0817 23.1397 17.9717 23.1397ZM29.4817 13.2897C29.0517 13.2897 28.7017 12.9297 28.7017 12.4897C28.7017 12.0497 29.0617 11.6697 29.4817 11.6697C29.9217 11.6697 30.2717 12.0097 30.2717 12.4497C30.2717 12.8897 29.9017 13.2897 29.4817 13.2897ZM9.0817 23.5397C11.2017 23.5397 12.6217 23.2497 13.8917 22.4997L10.2217 19.7697C10.0517 19.7797 9.8417 19.7897 9.5817 19.7897C9.2017 19.7897 7.8917 19.6297 7.1817 19.6297C5.9017 19.6297 5.3417 20.2297 5.3417 21.1097C5.3417 22.5697 6.6517 23.5397 9.0817 23.5397Z" />
        </svg>
    