
        <svg xmlns="http://www.w3.org/2000/svg" viewBox="0 0 100 100">
            <path d="M1.0393 15.9671C3.1493 15.7871 8.7993 14.7971 14.0593 13.4971C17.8293 15.3571 21.8493 17.4571 25.5193 17.4571C28.1793 17.4571 30.1393 15.0671 30.7193 13.7271C31.1893 12.5071 30.9193 12.0371 30.3093 11.8671L23.7193 9.8771C21.4193 4.5871 18.6493 0.1871 10.6193 1.0271L10.5593 0.6871C10.4893 0.1971 10.0993 -0.1029 9.3693 0.0271L8.6693 0.1471C8.0793 0.2571 7.7893 0.6971 7.8893 1.2171L7.9193 1.4871C1.4493 3.1871 -0.9707 9.0571 0.3493 15.4671C0.3993 15.7571 0.5993 15.9871 1.0393 15.9671ZM0.9193 15.4671C-0.4507 8.7271 2.1893 2.8871 9.3493 1.7071C18.0193 0.2771 20.7393 4.4871 23.1693 9.9371C20.4893 11.7371 5.5093 15.1671 0.9193 15.4671ZM30.4093 12.4571C30.1493 14.6071 27.8993 16.8771 25.5193 16.8771C22.6893 16.8771 19.1593 15.4771 14.8893 13.2971C18.4793 12.3771 21.7793 11.3371 23.4893 10.3671Z" />
        </svg>
    