
        <svg xmlns="http://www.w3.org/2000/svg" viewBox="0 0 100 100">
            <path d="M16.0917 20.2875C25.6017 20.2875 32.1817 17.1075 32.1817 12.6475C32.1817 9.5375 28.7917 7.0875 23.8117 6.2475C23.0417 2.3775 20.3917 -0.0025 16.0917 -0.0025C11.8017 -0.0025 9.1417 2.3775 8.3717 6.2475C3.4017 7.0875 0.0017 9.5375 0.0017 12.6475C0.0017 17.1075 6.5717 20.2875 16.0917 20.2875ZM16.0417 14.1075C12.6717 14.1075 9.9517 13.2375 8.4417 11.9275C8.3017 10.8275 8.2817 9.3275 8.3817 8.2575C10.1117 9.7475 13.1117 10.6675 16.0417 10.6675C18.9717 10.6675 21.9817 9.7475 23.7117 8.2575C23.8017 9.3275 23.7917 10.8275 23.6417 11.9275C22.1417 13.2375 19.4317 14.1075 16.0417 14.1075Z" />
        </svg>
    