
        <svg xmlns="http://www.w3.org/2000/svg" viewBox="0 0 100 100">
            <path d="M1.5696 16.8624C7.3196 16.6024 20.4796 14.1824 24.3596 10.4424C21.4596 3.5524 17.8596 0.9124 11.4596 1.5324L11.3696 0.9424C11.2496 0.2624 10.5096 -0.1176 9.6996 0.0324L8.7396 0.2224C7.9096 0.3824 7.4596 1.0424 7.5796 1.7424L7.6596 2.2624C1.4696 4.2524 -0.9404 9.9824 0.3296 15.8324C0.4896 16.6424 0.8696 16.8824 1.5696 16.8624ZM26.7396 19.1824C29.8496 19.1824 31.9796 16.7824 32.7096 15.0524C33.2096 13.7824 32.8196 13.1724 31.9396 12.9024L26.2096 11.2024C24.3696 13.2124 20.7896 14.8824 16.3596 15.9724C19.3496 17.4724 23.3096 19.1824 26.7396 19.1824Z" />
        </svg>
    