
        <svg xmlns="http://www.w3.org/2000/svg" viewBox="0 0 100 100">
            <path d="M1.8739 17.7734C6.8539 17.6434 20.4739 15.6534 24.9039 11.1434C22.0339 4.1734 18.2639 1.3734 12.0539 1.8334L11.9539 1.1334C11.8339 0.3334 10.9839 -0.1266 10.0539 0.0334L8.9339 0.2334C7.9739 0.4034 7.4239 1.1334 7.5339 1.9534L7.6439 2.6834C1.1839 4.8734 -0.8261 11.0034 0.2939 16.3434C0.5439 17.5134 0.9539 17.7934 1.8739 17.7734ZM27.0839 20.5734C30.6939 20.5734 32.9739 17.9034 33.7139 16.1234C34.3039 14.6734 33.7739 13.8934 32.5939 13.5334L27.1339 11.8934C25.3239 14.1534 21.5839 16.1134 16.5339 17.4134C19.7639 19.0334 23.6239 20.5734 27.0839 20.5734Z" />
        </svg>
    