
        <svg xmlns="http://www.w3.org/2000/svg" viewBox="0 0 100 100">
            <path d="M1.6734 17.6862C5.5334 17.4962 11.0834 16.6062 15.8734 15.3062C19.3134 16.9662 23.1334 18.7962 26.7134 18.7962C29.7634 18.7962 31.9634 16.1462 32.5834 14.6462C33.1334 13.2762 32.7834 12.7262 31.9934 12.4862L24.1934 10.1262C22.0634 5.2162 19.2334 0.6562 11.2834 1.3762L11.2434 0.9362C11.1534 0.2862 10.4634 -0.1038 9.6834 0.0262L8.7434 0.1762C7.9734 0.3062 7.5134 0.9162 7.6034 1.5962L7.6634 2.0362C1.2134 4.0562 -1.1366 10.1762 0.5034 16.7662C0.6934 17.4662 1.0334 17.7062 1.6734 17.6862ZM2.5434 15.4962C1.2534 9.6562 3.7134 4.6962 9.9434 3.6662C17.4634 2.4162 19.9734 5.9062 21.9734 10.5562C19.0134 12.8262 8.6734 15.1762 2.5434 15.4962ZM30.2434 14.0662C29.8534 15.3062 28.3234 16.6462 26.5634 16.6462C24.3734 16.6462 21.8434 15.7762 18.8434 14.4062C20.8634 13.7162 22.5934 12.9462 23.7834 12.1262Z" />
        </svg>
    