
        <svg xmlns="http://www.w3.org/2000/svg" viewBox="0 0 100 100">
            <path d="M17.7217 22.8784C28.5917 22.8784 35.4517 18.9884 35.4517 13.6184C35.4517 9.7684 31.3617 6.7184 25.8517 6.1684C24.7717 2.0584 22.0617 -0.0016 17.7217 -0.0016C13.3717 -0.0016 10.6617 2.0584 9.5817 6.1684C4.0817 6.7184 0.0017 9.7684 0.0017 13.6184C0.0017 18.9884 6.8417 22.8784 17.7217 22.8784ZM17.7217 15.8584C14.0517 15.8584 11.1717 14.9784 9.4317 13.5584C9.2317 12.0584 9.2317 10.1384 9.4217 8.7784C12.1617 10.6084 14.8317 11.1084 17.7217 11.1084C20.6117 11.1084 23.2717 10.6084 26.0317 8.7784C26.2117 10.1384 26.2117 12.0584 26.0017 13.5584C24.2817 14.9784 21.3917 15.8584 17.7217 15.8584Z" />
        </svg>
    