
        <svg xmlns="http://www.w3.org/2000/svg" viewBox="0 0 100 100">
            <path d="M2.9494 22.1723H21.4294C23.2694 22.1723 24.3794 20.8723 24.3794 19.2523C24.3794 18.7123 24.2194 18.1523 23.9294 17.6323L14.6994 1.4523C14.1294 0.4823 13.1694 0.0023 12.1894 0.0023C11.2194 0.0023 10.2394 0.4823 9.6794 1.4523L0.4494 17.6323C0.1394 18.1623 -0.0006 18.7123 -0.0006 19.2523C-0.0006 20.8723 1.0994 22.1723 2.9494 22.1723ZM4.0894 19.2323C3.5894 19.2323 3.2894 18.7523 3.5594 18.2723L11.6494 4.0823C11.8994 3.6223 12.4694 3.6223 12.7394 4.0823L20.8094 18.2723C21.0694 18.7423 20.7794 19.2323 20.2894 19.2323ZM5.9394 17.6723H18.4294C18.5394 17.6723 18.6094 17.5623 18.5494 17.4623L12.3094 6.4823C12.2594 6.3823 12.1294 6.3823 12.0694 6.4823L5.8194 17.4223C5.7494 17.5523 5.8394 17.6723 5.9394 17.6723Z" />
        </svg>
    