
        <svg xmlns="http://www.w3.org/2000/svg" viewBox="0 0 100 100">
            <path d="M2.4494 21.9723H21.5594C23.1094 21.9723 24.0094 20.8723 24.0094 19.5723C24.0094 19.0623 23.8794 18.5223 23.5794 18.0123L14.0594 1.1623C13.5894 0.3423 12.7994 0.0023 12.0094 0.0023C11.2194 0.0023 10.4194 0.3423 9.9494 1.1623L0.4294 18.0123C0.1294 18.5223 -0.0006 19.0623 -0.0006 19.5723C-0.0006 20.8723 0.8994 21.9723 2.4494 21.9723ZM2.9394 19.8823C2.4294 19.8823 2.0894 19.3623 2.3894 18.8323L11.4294 2.8223C11.6994 2.3323 12.3194 2.3323 12.6094 2.8223L21.6194 18.8323C21.9294 19.3623 21.5894 19.8823 21.0694 19.8823ZM3.4294 19.0123H20.5994C20.6594 19.0123 20.6994 18.9623 20.6594 18.8923L12.0794 3.6923C12.0494 3.6323 11.9794 3.6323 11.9494 3.6923L3.3594 18.8323C3.2894 18.9223 3.3494 19.0123 3.4294 19.0123Z" />
        </svg>
    