
        <svg xmlns="http://www.w3.org/2000/svg" viewBox="0 0 100 100">
            <path d="M3.9094 23.5105H21.8094C24.0894 23.5105 25.7094 21.6405 25.7094 19.5805C25.7094 18.9405 25.5594 18.2705 25.2094 17.6505L16.2394 1.9705C15.4794 0.6405 14.1894 0.0005 12.8694 0.0005C11.5294 0.0005 10.2094 0.6705 9.4694 1.9705L0.4994 17.6605C0.1594 18.2705 -0.0006 18.9405 -0.0006 19.5805C-0.0006 21.6405 1.6194 23.5105 3.9094 23.5105ZM6.8794 19.0305C6.3094 19.0305 5.9394 18.4205 6.2194 17.9205L12.1994 7.3105C12.4894 6.8005 13.2094 6.8005 13.5094 7.3105L19.4894 17.9205C19.7594 18.4205 19.3994 19.0305 18.8194 19.0305ZM10.4094 16.3405H15.3294C15.4194 16.3405 15.4594 16.2705 15.3994 16.1605L12.9494 11.8405C12.9094 11.7705 12.8294 11.7705 12.7894 11.8405L10.3394 16.1605C10.2794 16.2705 10.3194 16.3405 10.4094 16.3405Z" />
        </svg>
    