
        <svg xmlns="http://www.w3.org/2000/svg" viewBox="0 0 100 100">
            <path d="M3.7494 23.2184H21.6994C23.9194 23.2184 25.4394 21.4584 25.4394 19.4684C25.4394 18.8284 25.2894 18.1884 24.9494 17.5884L15.9494 1.8784C15.2194 0.6084 13.9894 -0.0016 12.7294 -0.0016C11.4594 -0.0016 10.1994 0.6284 9.4794 1.8784L0.4894 17.5984C0.1594 18.1984 -0.0006 18.8284 -0.0006 19.4684C-0.0006 21.4584 1.5194 23.2184 3.7494 23.2184ZM6.3594 18.9984C5.7994 18.9984 5.4594 18.4184 5.7294 17.9284L12.0894 6.6884C12.3794 6.1984 13.0594 6.1984 13.3394 6.6884L19.6994 17.9284C19.9694 18.4184 19.6294 18.9984 19.0794 18.9984ZM9.6494 16.4884H15.8094C15.9094 16.4884 15.9594 16.4084 15.8894 16.2884L12.8194 10.8984C12.7894 10.8184 12.6794 10.8184 12.6294 10.8984L9.5594 16.2884C9.4994 16.4084 9.5494 16.4884 9.6494 16.4884Z" />
        </svg>
    