
        <svg xmlns="http://www.w3.org/2000/svg" viewBox="0 0 100 100">
            <path d="M23.2559 20.6023C24.1159 18.2123 24.6059 15.5823 24.6059 13.1323C24.6059 5.2423 19.7059 0.0023 12.3259 0.0023C9.4259 0.0023 6.9259 0.8223 4.9259 2.2723L6.8659 4.2023C8.3559 3.1623 10.2059 2.6023 12.3259 2.6023C18.1359 2.6023 22.0159 6.8123 22.0159 13.1323C22.0159 13.9923 21.9459 14.8523 21.8159 15.7123C21.5359 15.3023 21.0859 14.9923 20.5059 14.8123C19.6159 14.5523 18.8159 14.7623 18.3259 15.3523L18.2459 15.5823ZM22.7859 24.9523C23.1659 25.3223 23.7759 25.3223 24.1359 24.9523C24.4959 24.5723 24.5159 23.9723 24.1359 23.6023L1.6359 1.1023C1.2759 0.7123 0.6559 0.7223 0.2759 1.1023C-0.0841 1.4623 -0.0941 2.0823 0.2759 2.4523ZM7.3659 25.0323C8.7959 24.5723 9.4459 23.3123 8.9959 21.8823L7.2959 16.4423C6.8559 15.0123 5.6059 14.3823 4.1659 14.8123C3.5959 14.9923 3.1459 15.3023 2.8459 15.7023C2.7159 14.8323 2.6559 13.9823 2.6559 13.1323C2.6559 11.2023 3.0159 9.4723 3.7259 8.0023L1.7159 6.0223C0.6559 8.0023 0.0559 10.4223 0.0559 13.1323C0.0559 16.7123 1.0959 20.6723 2.8459 23.7223C3.2059 24.3723 3.9459 24.5623 4.6159 24.2023C5.2059 25.0423 6.2159 25.3723 7.3659 25.0323ZM17.3159 25.0323C18.3459 25.3523 19.3559 25.1023 19.9759 24.2623L16.1459 20.4423L15.6859 21.8823C15.2259 23.3223 15.8859 24.5723 17.3159 25.0323Z" />
        </svg>
    