
        <svg xmlns="http://www.w3.org/2000/svg" viewBox="0 0 100 100">
            <path d="M0.0017 13.0052C0.0017 16.5552 1.0317 20.4852 2.7617 23.5152C3.0917 24.0952 3.7117 24.2652 4.3017 23.9752C4.8717 24.8252 5.8617 25.1652 6.9717 24.8352C8.3817 24.3952 9.0117 23.1752 8.5917 21.7852L6.9017 16.2152C6.4817 14.8352 5.2817 14.2052 3.8717 14.6152C3.2717 14.7852 2.8117 15.1152 2.5217 15.5552C2.4017 14.6952 2.3317 13.8352 2.3317 13.0052C2.3317 6.5952 6.2417 2.3352 12.1217 2.3352C17.9917 2.3352 21.9117 6.5952 21.9117 13.0052C21.9117 13.8352 21.8517 14.6952 21.7217 15.5552C21.4317 15.1252 20.9717 14.8052 20.3717 14.6152C18.9617 14.2052 17.7617 14.8352 17.3417 16.2152L15.6517 21.7852C15.2217 23.1952 15.8717 24.3952 17.2617 24.8352C18.3917 25.1652 19.3717 24.8252 19.9317 23.9852C20.5317 24.2652 21.1517 24.0952 21.4817 23.5152C23.2117 20.4852 24.2617 16.5552 24.2617 13.0052C24.2617 5.1952 19.4217 -0.0048 12.1217 -0.0048C4.8317 -0.0048 0.0017 5.1952 0.0017 13.0052Z" />
        </svg>
    