
        <svg xmlns="http://www.w3.org/2000/svg" viewBox="0 0 100 100">
            <path d="M12.6023 25.1969C19.5623 25.1969 25.2023 19.5569 25.2023 12.5969C25.2023 5.6369 19.5623 -0.0031 12.6023 -0.0031C5.6523 -0.0031 0.0023 5.6369 0.0023 12.5969C0.0023 19.5569 5.6523 25.1969 12.6023 25.1969ZM6.2823 12.5969C6.2823 8.5469 8.8223 5.8269 12.6223 5.8269C16.4223 5.8269 18.9823 8.5669 18.9823 12.5969C18.9823 14.7969 18.4423 16.3969 17.5423 17.9869C17.2723 18.4369 16.7723 18.5769 16.3123 18.3669C15.9823 18.6869 15.5023 18.8069 14.9623 18.6569C14.1723 18.4469 13.7823 17.7669 14.0023 16.9669L14.8123 14.1169C15.0623 13.3169 15.7523 12.9269 16.5323 13.1469C16.7323 13.2069 16.9223 13.3169 17.0723 13.4169C17.1023 13.1569 17.1123 12.8769 17.1123 12.5969C17.1123 9.6569 15.3123 7.6969 12.6223 7.6969C9.9123 7.6969 8.1523 9.6469 8.1523 12.5969C8.1523 12.8769 8.1523 13.1469 8.1823 13.4069C8.3223 13.2869 8.4923 13.2069 8.6923 13.1469C9.5023 12.9269 10.1923 13.3169 10.4323 14.1169L11.2223 16.9469C11.4623 17.7469 11.0723 18.4469 10.2623 18.6569C9.7423 18.8169 9.2623 18.6869 8.9223 18.3669C8.4623 18.5769 7.9723 18.4169 7.7123 17.9869C6.8123 16.4669 6.2823 14.8569 6.2823 12.5969Z" />
        </svg>
    