
        <svg xmlns="http://www.w3.org/2000/svg" viewBox="0 0 100 100">
            <path d="M9.2017 8.6494C9.2017 10.9194 9.3917 12.7994 9.9017 14.6094C10.4517 16.5194 11.7917 17.2994 13.9817 17.2994H14.4417C20.3417 17.2994 26.2417 13.2994 26.2417 8.6494C26.2417 3.9994 20.3417 -0.0006 14.4417 -0.0006H13.9817C11.8017 -0.0006 10.4517 0.7594 9.9017 2.6794C9.3917 4.4994 9.2017 6.3794 9.2017 8.6494ZM10.0217 8.6494C10.0217 6.3194 10.2117 4.6194 10.6917 2.8994C11.1217 1.4094 12.2117 0.8094 13.9817 0.8094H14.4417C19.8517 0.8094 25.4217 4.4694 25.4217 8.6494C25.4217 12.8294 19.8517 16.4794 14.4417 16.4794H13.9817C12.1017 16.4794 11.1017 15.8294 10.6917 14.3894C10.2117 12.6794 10.0217 10.9694 10.0217 8.6494ZM0.0017 2.7094C0.0017 2.9494 0.2017 3.1194 0.4117 3.1194H8.0817C8.1717 2.7894 8.2117 2.5394 8.3117 2.2994H0.4117C0.2017 2.2994 0.0017 2.4994 0.0017 2.7094ZM0.0017 6.6694C0.0017 6.8994 0.2017 7.0794 0.4117 7.0794H7.5617C7.5717 6.8094 7.5917 6.5294 7.6217 6.2594H0.4117C0.2017 6.2594 0.0017 6.4494 0.0017 6.6694ZM0.0017 10.6294C0.0017 10.8394 0.2017 11.0394 0.4117 11.0394H7.6217C7.5917 10.7694 7.5717 10.4794 7.5617 10.2194H0.4117C0.2017 10.2194 0.0017 10.3994 0.0017 10.6294ZM0.0017 14.5794C0.0017 14.7894 0.2017 14.9894 0.4117 14.9894H8.3017C8.2217 14.7494 8.1517 14.4294 8.0817 14.1694H0.4117C0.2017 14.1694 0.0017 14.3394 0.0017 14.5794Z" />
        </svg>
    