
        <svg xmlns="http://www.w3.org/2000/svg" viewBox="0 0 100 100">
            <path d="M12.2223 24.4436C18.9723 24.4436 24.4423 18.9736 24.4423 12.2236C24.4423 5.4736 18.9723 0.0036 12.2223 0.0036C5.4723 0.0036 0.0023 5.4736 0.0023 12.2236C0.0023 18.9736 5.4723 24.4436 12.2223 24.4436ZM12.2223 21.7636C6.9523 21.7636 2.6823 17.4936 2.6823 12.2236C2.6823 6.9536 6.9523 2.6836 12.2223 2.6836C17.4923 2.6836 21.7623 6.9536 21.7623 12.2236C21.7623 17.4936 17.4923 21.7636 12.2223 21.7636ZM12.2223 6.9236C14.8923 6.9236 16.6123 8.6336 16.6123 11.2636V11.3936C16.5623 11.3636 16.4723 11.3636 16.3923 11.3636C15.8323 11.3636 15.4223 11.8036 15.4223 12.3436V15.6636C15.4223 16.1636 15.7523 16.5536 16.2323 16.6036C16.3123 16.6136 16.3823 16.6136 16.4523 16.6336C16.4023 16.7036 16.3523 16.7236 16.1523 16.7436L13.4223 17.2236C13.2323 17.0736 12.9823 17.0036 12.7423 17.0536L11.6623 17.2336C11.1923 17.3236 10.8723 17.7736 10.9523 18.2536C11.0423 18.7136 11.4823 19.0536 11.9623 18.9636L13.0423 18.7636C13.2923 18.7236 13.5123 18.5536 13.6423 18.3436L16.5023 17.8436C17.2223 17.7236 17.7523 17.3236 17.7523 16.3036V16.1036C18.2123 15.9636 18.4823 15.5936 18.4823 15.1036V12.8436C18.4823 12.4836 18.3323 12.1536 18.0923 11.9536V11.2836C18.0923 7.7936 15.7423 5.4336 12.2223 5.4336C8.7223 5.4336 6.3623 7.7936 6.3523 11.2836V11.9536C6.1023 12.1536 5.9723 12.4936 5.9723 12.8436V14.9836C5.9723 15.8036 6.6523 16.1336 7.1723 16.1436C7.3323 16.4536 7.6523 16.6536 8.0423 16.6536C8.6123 16.6536 9.0323 16.2336 9.0323 15.6636V12.3436C9.0323 11.7736 8.6223 11.3636 8.0423 11.3636C7.9823 11.3636 7.9023 11.3636 7.8323 11.3836L7.8423 11.2736C7.8423 8.6336 9.5623 6.9236 12.2223 6.9236Z" />
        </svg>
    