
        <svg xmlns="http://www.w3.org/2000/svg" viewBox="0 0 100 100">
            <path d="M10.3617 9.2705C10.3617 11.5105 10.5517 13.5205 11.1117 15.5405C11.7417 17.7205 13.0817 18.5305 15.6217 18.5305H16.1817C22.6317 18.5305 28.6317 14.2605 28.6317 9.2705C28.6317 4.2805 22.6317 0.0005 16.1817 0.0005H15.6217C13.0917 0.0005 11.7517 0.8205 11.1117 2.9905C10.5517 5.0205 10.3617 7.0305 10.3617 9.2705ZM11.7917 9.2705C11.7917 6.8705 11.9917 5.1205 12.4717 3.3905C12.9017 1.9605 13.8417 1.4205 15.6217 1.4205H16.1817C21.8117 1.4205 27.2117 5.0905 27.2117 9.2705C27.2117 13.4505 21.8117 17.1105 16.1817 17.1105H15.6217C13.7817 17.1105 12.8817 16.5505 12.4717 15.1505C11.9917 13.4205 11.7917 11.6705 11.7917 9.2705ZM0.0017 2.9905C0.0017 3.4005 0.3317 3.7005 0.7117 3.7005H8.9717C9.1317 3.0305 9.2217 2.6505 9.3517 2.2805H0.7117C0.3317 2.2805 0.0017 2.6105 0.0017 2.9905ZM0.0017 7.1705C0.0017 7.5705 0.3417 7.8705 0.7117 7.8705L8.4717 7.8905C8.4817 7.4105 8.5317 6.9305 8.5817 6.4605H0.7117C0.3317 6.4605 0.0017 6.7805 0.0017 7.1705ZM0.0017 11.3505C0.0017 11.7405 0.3317 12.0605 0.7117 12.0605H8.5817C8.5317 11.6005 8.4917 11.1205 8.4717 10.6405H0.7117C0.3317 10.6405 0.0017 10.9705 0.0017 11.3505ZM0.0017 15.5405C0.0017 15.9105 0.3317 16.2405 0.7117 16.2405H9.3517C9.2217 15.8905 9.0717 15.2505 8.9717 14.8205H0.7117C0.3317 14.8205 0.0017 15.1505 0.0017 15.5405Z" />
        </svg>
    