
        <svg xmlns="http://www.w3.org/2000/svg" viewBox="0 0 100 100">
            <path d="M24.7717 21.0983C25.5817 18.7283 26.0417 16.1683 26.0417 13.7783C26.0417 5.5083 20.8317 -0.0017 13.0217 -0.0017C10.1917 -0.0017 7.7217 0.7383 5.7117 2.0283L8.6017 4.9483C9.8817 4.2683 11.3717 3.8983 13.0217 3.8983C18.5017 3.8983 22.1417 7.8483 22.1417 13.7783C22.1417 14.6883 22.0617 15.5883 21.9217 16.4783C21.6317 16.1883 21.2417 15.9483 20.8117 15.7883C20.2817 15.6183 19.7917 15.5883 19.3617 15.6783ZM23.7417 25.5783C24.1617 25.9783 24.8417 25.9883 25.2517 25.5783C25.6517 25.1583 25.6717 24.4783 25.2517 24.0683L2.2517 1.0783C1.8317 0.6583 1.1417 0.6583 0.7217 1.0783C0.3117 1.4783 0.3117 2.1783 0.7217 2.5883ZM5.5317 25.4183C5.6117 25.3683 5.6917 25.3283 5.7617 25.2783C6.4917 26.1583 7.6417 26.4483 8.8717 26.0283C10.4717 25.4383 11.1717 23.9883 10.5917 22.3783L8.8717 17.5183C8.3017 15.9283 6.8517 15.2383 5.2417 15.7883C4.7817 15.9483 4.4017 16.1683 4.1117 16.4683C3.9717 15.5583 3.9017 14.6683 3.9017 13.7783C3.9017 12.0583 4.1917 10.4983 4.7817 9.1483L1.8117 6.1983C0.6417 8.3083 0.0017 10.8783 0.0017 13.7783C0.0017 17.4583 1.0817 21.5483 2.8717 24.6983C3.4217 25.6483 4.5517 25.9583 5.5317 25.4183ZM17.1717 26.0283C18.3917 26.4483 19.7817 26.1983 20.5417 24.8783L16.1117 20.4683L15.4417 22.3783C14.8817 23.9883 15.5617 25.4383 17.1717 26.0283Z" />
        </svg>
    