
        <svg xmlns="http://www.w3.org/2000/svg" viewBox="0 0 100 100">
            <path d="M1.1217 14.2867C0.5117 14.2867 0.0017 14.7967 0.0017 15.4167C0.0017 16.0467 0.5117 16.5467 1.1217 16.5467H5.3817C5.2017 17.7867 4.7417 18.8667 3.9817 19.6267C2.8017 20.7867 4.3717 22.3467 5.5817 21.2667C6.8317 20.1067 7.5717 18.4467 7.7817 16.5467H10.3717C10.2217 15.7867 10.1017 15.0267 10.0217 14.2867H7.7817C7.7017 13.5267 7.5517 12.7367 7.3117 11.9367H9.8817C9.8517 11.5167 9.8517 10.1167 9.8817 9.6767H6.4817C6.2017 8.8967 6.0217 8.1067 5.9317 7.3567H10.0217C10.1017 6.6667 10.2317 5.7367 10.3717 5.0967H5.9017C6.0717 3.8467 6.5417 2.7667 7.2917 2.0067C8.4817 0.8467 6.9117 -0.7133 5.7117 0.3667C4.4417 1.5267 3.7017 3.1867 3.4917 5.0967H1.1217C0.5117 5.0967 0.0017 5.5967 0.0017 6.2267C0.0017 6.8467 0.5117 7.3467 1.1217 7.3467H3.5017C3.5817 8.1167 3.7417 8.8967 3.9717 9.6767H1.1217C0.5117 9.6767 0.0017 10.2067 0.0017 10.8267C0.0017 11.4367 0.5117 11.9367 1.1217 11.9367H4.8017C5.0817 12.7367 5.2717 13.5267 5.3717 14.2867ZM11.6517 10.8167C11.6217 13.0567 11.8117 15.2767 12.4417 17.5467C13.2117 20.0967 14.6517 21.0367 17.6617 21.0367H18.3317C25.5217 21.0367 31.8117 16.3367 31.8117 10.8167C31.8117 5.2967 25.5217 0.5867 18.3317 0.5867H17.6617C14.6617 0.5867 13.2217 1.5367 12.4417 4.0767C11.8117 6.3467 11.6217 8.5667 11.6517 10.8167Z" />
        </svg>
    