
        <svg xmlns="http://www.w3.org/2000/svg" viewBox="0 0 100 100">
            <path d="M12.6023 25.1969C19.5623 25.1969 25.2023 19.5569 25.2023 12.5969C25.2023 5.6369 19.5623 -0.0031 12.6023 -0.0031C5.6523 -0.0031 0.0023 5.6369 0.0023 12.5969C0.0023 19.5569 5.6523 25.1969 12.6023 25.1969ZM12.5823 7.4669C10.0123 7.4669 8.3423 9.0969 8.3423 11.6469L8.3323 11.7169C8.3923 11.7069 8.4523 11.7069 8.4923 11.7069C9.1423 11.7069 9.6123 12.1769 9.6023 12.7969V16.0569C9.6123 16.6769 9.1123 17.1469 8.4923 17.1469C8.0823 17.1469 7.7423 16.9369 7.5423 16.6269C6.9823 16.6069 6.2623 16.2469 6.2423 15.3369V13.2869C6.2623 12.9069 6.3723 12.5469 6.6423 12.3269V11.6669C6.6523 8.1469 9.0323 5.7569 12.5823 5.7569C16.1623 5.7569 18.5623 8.1469 18.5523 11.6669V12.3269C18.8123 12.5469 18.9623 12.8869 18.9523 13.2869V15.4669C18.9623 15.9969 18.6723 16.4069 18.1623 16.5669V16.7369C18.1723 17.8169 17.6023 18.2469 16.8523 18.3769L13.9923 18.8669C13.8423 19.0869 13.6023 19.2769 13.3223 19.2969L12.2923 19.5069C11.7523 19.6169 11.2623 19.2169 11.1723 18.7269C11.0723 18.1869 11.4223 17.6869 11.9523 17.5869L13.0123 17.4069C13.2623 17.3669 13.5223 17.4369 13.7323 17.5869L16.1823 17.1569C16.3523 17.1369 16.3823 17.1169 16.4423 17.0869C16.3823 17.0669 16.3523 17.0669 16.2523 17.0269C15.8623 16.8969 15.6123 16.5069 15.6023 16.0569V12.7969C15.6123 12.1869 16.0623 11.7069 16.6923 11.7069C16.7423 11.7069 16.8023 11.7069 16.8623 11.7169L16.8523 11.6369C16.8623 9.0969 15.1923 7.4669 12.5823 7.4669Z" />
        </svg>
    