
        <svg xmlns="http://www.w3.org/2000/svg" viewBox="0 0 100 100">
            <path d="M3.0117 20.5048H17.4917C19.4517 20.5048 20.5117 19.4248 20.5117 17.4948V3.0148C20.5117 1.0748 19.4517 0.0048 17.4917 0.0048H3.0117C1.0417 0.0048 0.0017 1.0448 0.0017 3.0148V17.4948C0.0017 19.4648 1.0417 20.5048 3.0117 20.5048ZM3.0317 19.9348C1.4217 19.9348 0.5717 19.0948 0.5717 17.4648V3.0348C0.5717 1.4148 1.4217 0.5748 3.0317 0.5748H17.4617C19.0317 0.5748 19.9317 1.4148 19.9317 3.0348V17.4648C19.9317 19.0948 19.0317 19.9348 17.4617 19.9348ZM5.3117 3.0148C4.3117 3.0148 3.5717 3.7848 3.5717 4.7848C3.5717 6.5848 5.5117 8.2248 6.6217 8.7648C6.6817 8.8048 6.7417 8.8448 6.8017 8.8448C6.8417 8.8448 6.9117 8.8148 6.9817 8.7648C8.0117 8.1548 10.0217 6.5848 10.0217 4.7848C10.0217 3.7848 9.2717 3.0148 8.2617 3.0148C7.6217 3.0148 7.0817 3.4448 6.8017 3.9148C6.5317 3.4448 5.9717 3.0148 5.3117 3.0148ZM3.8817 13.2048H16.0117C16.1817 13.2048 16.3117 13.0748 16.3117 12.9148C16.3117 12.7648 16.1817 12.6348 16.0117 12.6348H3.8817C3.7117 12.6348 3.5717 12.7648 3.5717 12.9148C3.5717 13.0748 3.7117 13.2048 3.8817 13.2048ZM3.8817 16.9548H12.4717C12.6417 16.9548 12.7717 16.8248 12.7717 16.6648C12.7717 16.5148 12.6417 16.3848 12.4717 16.3848H3.8817C3.7117 16.3848 3.5717 16.5148 3.5717 16.6648C3.5717 16.8248 3.7117 16.9548 3.8817 16.9548Z" />
        </svg>
    