
        <svg xmlns="http://www.w3.org/2000/svg" viewBox="0 0 100 100">
            <path d="M11.7523 23.5048C18.2323 23.5048 23.5123 18.2348 23.5123 11.7548C23.5123 5.2748 18.2323 0.0048 11.7523 0.0048C5.2723 0.0048 0.0023 5.2748 0.0023 11.7548C0.0023 18.2348 5.2723 23.5048 11.7523 23.5048ZM8.8823 6.4348C10.1623 6.4348 11.1823 7.1948 11.7523 8.2348C12.3323 7.1948 13.3623 6.4348 14.6223 6.4348C16.6323 6.4348 18.0923 7.9548 18.0923 10.0348C18.0923 13.2848 14.5223 16.1448 12.2723 17.6748C12.1023 17.7848 11.9023 17.9148 11.7623 17.9148C11.6323 17.9148 11.4123 17.7848 11.2223 17.6748C8.9323 16.2148 5.4123 13.2848 5.4123 10.0348C5.4123 7.9548 6.8623 6.4348 8.8823 6.4348Z" />
        </svg>
    