
        <svg xmlns="http://www.w3.org/2000/svg" viewBox="0 0 100 100">
            <path d="M7.4317 19.0573C7.4317 21.8673 9.2917 23.7373 12.0817 23.7373C14.3217 23.7373 16.0817 22.5073 17.0617 20.3973L17.6017 19.2273C20.1417 13.7773 24.2317 14.0973 24.2317 8.5573C24.2317 3.3873 20.9417 -0.0027 15.9617 -0.0027C10.9117 -0.0027 7.4317 3.5473 7.4317 8.7173ZM8.0017 19.0573V8.7173C8.0017 3.8573 11.2117 0.5773 15.9617 0.5773C20.5517 0.5773 23.6617 3.7973 23.6617 8.5573C23.6617 13.7673 19.6917 13.5773 17.1217 18.9373L16.5117 20.2073C15.5817 22.1273 14.0417 23.1673 12.0817 23.1673C9.6417 23.1673 8.0017 21.5173 8.0017 19.0573ZM1.4917 4.8773C2.3217 4.8773 2.9717 4.2173 2.9717 3.3873C2.9717 2.5573 2.3217 1.8973 1.4917 1.8973C0.6517 1.8973 0.0017 2.5573 0.0017 3.3873C0.0017 4.2173 0.6517 4.8773 1.4917 4.8773ZM10.5717 16.0773C10.5717 16.9373 11.2617 17.4973 12.2717 17.4973C13.8117 17.4973 15.0017 16.3173 15.0017 14.7273C15.0017 11.3173 11.1517 10.9573 11.1517 8.1473C11.1517 5.6473 13.0517 3.7573 15.8817 3.7573C18.7517 3.7573 20.5617 5.5973 20.5617 8.4373C20.5617 8.5873 20.6917 8.7173 20.8517 8.7173C21.0117 8.7173 21.1417 8.5873 21.1417 8.4373C21.1417 5.2573 19.0617 3.1873 15.8817 3.1873C12.7417 3.1873 10.5717 5.3273 10.5717 8.1473C10.5717 10.8673 12.8517 11.7773 12.8517 13.0973C12.8517 15.0273 10.5717 14.2973 10.5717 16.0773ZM1.4917 10.8273C2.3217 10.8273 2.9717 10.1673 2.9717 9.3373C2.9717 8.5073 2.3217 7.8473 1.4917 7.8473C0.6517 7.8473 0.0017 8.5073 0.0017 9.3373C0.0017 10.1673 0.6517 10.8273 1.4917 10.8273ZM1.4917 16.7773C2.3217 16.7773 2.9717 16.1273 2.9717 15.2973C2.9717 14.4573 2.3217 13.8073 1.4917 13.8073C0.6517 13.8073 0.0017 14.4573 0.0017 15.2973C0.0017 16.1273 0.6517 16.7773 1.4917 16.7773ZM1.4917 22.7273C2.3217 22.7273 2.9717 22.0773 2.9717 21.2473C2.9717 20.3973 2.3217 19.7573 1.4917 19.7573C0.6517 19.7573 0.0017 20.3973 0.0017 21.2473C0.0017 22.0773 0.6517 22.7273 1.4917 22.7273Z" />
        </svg>
    