
        <svg xmlns="http://www.w3.org/2000/svg" viewBox="0 0 100 100">
            <path d="M4.5917 23.2359H18.6417C21.5417 23.2359 23.2417 21.5459 23.2417 18.6459V4.5959C23.2417 1.6959 21.5417 -0.0041 18.6417 -0.0041H4.5917C1.7017 -0.0041 0.0017 1.6959 0.0017 4.5959V18.6459C0.0017 21.5459 1.7017 23.2359 4.5917 23.2359ZM5.2217 19.0759C4.5117 19.0759 4.1617 18.7859 4.1617 18.0159V5.2359C4.1617 4.4659 4.5117 4.1759 5.2217 4.1759H18.0117C18.7217 4.1759 19.0817 4.4659 19.0817 5.2359V18.0159C19.0817 18.7859 18.7217 19.0759 18.0117 19.0759ZM7.3317 5.8959C6.5617 5.8959 5.9017 6.5259 5.9017 7.4859C5.9017 9.1859 7.9017 10.3459 8.1917 10.4959C8.3017 10.5559 8.4117 10.6259 8.5317 10.6259C8.6517 10.6259 8.7817 10.5459 8.8717 10.4959C9.1517 10.3859 11.1517 9.1859 11.1517 7.4859C11.1517 6.5259 10.5217 5.8959 9.7217 5.8959C9.1417 5.8959 8.7317 6.2559 8.5317 6.5859C8.3417 6.2559 7.9317 5.8959 7.3317 5.8959ZM6.7617 13.8359H16.5017C16.9817 13.8359 17.3317 13.4659 17.3317 12.9859C17.3317 12.5159 16.9817 12.1659 16.5017 12.1659H6.7617C6.2617 12.1659 5.9017 12.5159 5.9017 12.9859C5.9017 13.4659 6.2617 13.8359 6.7617 13.8359ZM6.7617 17.0459H14.2817C14.7617 17.0459 15.1317 16.6959 15.1317 16.2259C15.1317 15.7459 14.7617 15.3759 14.2817 15.3759H6.7617C6.2617 15.3759 5.9017 15.7459 5.9017 16.2259C5.9017 16.6959 6.2617 17.0459 6.7617 17.0459Z" />
        </svg>
    