
        <svg xmlns="http://www.w3.org/2000/svg" viewBox="0 0 100 100">
            <path d="M6.4217 6.1027H13.6417C14.3417 6.1027 14.7817 5.6627 14.7817 4.9027V3.6727C14.7817 2.9027 14.3417 2.4627 13.6417 2.4627H12.6417C12.5617 1.1027 11.4217 0.0027 10.0317 0.0027C8.6417 0.0027 7.5017 1.1027 7.4017 2.4627H6.4217C5.7117 2.4627 5.2817 2.9027 5.2817 3.6727V4.9027C5.2817 5.6627 5.7117 6.1027 6.4217 6.1027ZM10.0317 3.5927C9.4617 3.5927 8.9917 3.1127 8.9917 2.5527C8.9917 1.9927 9.4617 1.5227 10.0317 1.5227C10.6017 1.5227 11.0617 1.9927 11.0617 2.5527C11.0617 3.1127 10.6017 3.5927 10.0317 3.5927ZM3.8117 28.6427H16.2417C18.7417 28.6427 20.0517 27.3027 20.0517 24.7827V7.0427C20.0517 4.5127 18.7417 3.1827 16.3517 3.1827H16.1017C16.1417 3.2827 16.1517 3.4127 16.1517 3.5427V4.9027C16.1517 6.4127 15.1317 7.4927 13.6417 7.4927H6.4217C4.9217 7.4927 3.9017 6.4127 3.9017 4.9027V3.5427C3.9017 3.4127 3.9217 3.2827 3.9617 3.1827H3.7117C1.3217 3.1827 0.0017 4.5127 0.0017 7.0427V24.7827C0.0017 27.3027 1.3217 28.6427 3.8117 28.6427ZM7.2217 16.1527C7.1417 16.1527 7.0117 16.0927 6.9017 16.0227C5.8517 15.2927 4.0917 13.9427 4.0917 12.3327C4.0917 11.2727 4.8117 10.5127 5.7917 10.5127C6.4317 10.5127 6.9217 10.8827 7.2117 11.4127C7.4917 10.8827 7.9917 10.5127 8.6117 10.5127C9.6017 10.5127 10.3317 11.2727 10.3317 12.3327C10.3317 13.9427 8.5917 15.3627 7.5217 16.0227C7.4217 16.0927 7.3117 16.1527 7.2217 16.1527ZM4.7817 19.8427C4.3317 19.8427 3.9917 19.4927 3.9917 19.0527C3.9917 18.6327 4.3317 18.2827 4.7817 18.2827H15.2817C15.7217 18.2827 16.0617 18.6327 16.0617 19.0527C16.0617 19.4927 15.7217 19.8427 15.2817 19.8427ZM4.7817 24.3827C4.3517 24.3827 3.9917 24.0327 3.9917 23.6027C3.9917 23.1727 4.3317 22.8327 4.7817 22.8327H10.8517C11.2817 22.8327 11.6417 23.1727 11.6417 23.6027C11.6417 24.0327 11.2717 24.3827 10.8517 24.3827Z" />
        </svg>
    