
        <svg xmlns="http://www.w3.org/2000/svg" viewBox="0 0 100 100">
            <path d="M12.2223 24.4436C18.9723 24.4436 24.4423 18.9636 24.4423 12.2236C24.4423 5.4736 18.9723 0.0036 12.2223 0.0036C5.4823 0.0036 0.0023 5.4736 0.0023 12.2236C0.0023 18.9636 5.4823 24.4436 12.2223 24.4436ZM17.4423 18.3536L6.0823 7.0036C5.8323 6.7536 5.8323 6.3436 6.0823 6.0936C6.3423 5.8336 6.7523 5.8336 7.0123 6.0936L18.3523 17.4336C18.6123 17.6936 18.6123 18.0936 18.3523 18.3536C18.1023 18.5936 17.6823 18.5936 17.4423 18.3536ZM9.4323 7.1336C9.5023 7.1236 9.6023 7.1136 9.6923 7.1236C10.8323 7.2036 11.7023 7.8836 12.2223 8.8136C12.7623 7.8436 13.7323 7.0936 15.0223 7.0936C16.9523 7.0936 18.4123 8.5736 18.4123 10.6836C18.4123 12.0936 17.7523 13.3936 16.8323 14.5436ZM14.5223 16.7936C13.9023 17.2836 13.3023 17.6936 12.8623 18.0036C12.6723 18.1136 12.4223 18.2836 12.2323 18.2836C12.0623 18.2836 11.7823 18.1136 11.5623 18.0036C9.7023 16.8736 6.0223 14.0536 6.0223 10.6836C6.0223 9.9736 6.2023 9.3236 6.5123 8.7936Z" />
        </svg>
    