
        <svg xmlns="http://www.w3.org/2000/svg" viewBox="0 0 100 100">
            <path d="M3.6817 21.5722H23.9517C26.4117 21.5722 27.6317 20.3722 27.6317 17.9522V3.6322C27.6317 1.2222 26.4117 0.0022 23.9517 0.0022H3.6817C1.2317 0.0022 0.0017 1.2222 0.0017 3.6322V17.9522C0.0017 20.3722 1.2317 21.5722 3.6817 21.5722ZM3.7017 19.6922C2.5317 19.6922 1.8917 19.0622 1.8917 17.8522V3.7422C1.8917 2.5222 2.5317 1.8822 3.7017 1.8822H23.9317C25.0917 1.8822 25.7417 2.5222 25.7417 3.7422V17.8522C25.7417 19.0622 25.0917 19.6922 23.9317 19.6922ZM11.0317 5.6122C9.0317 5.6122 7.6017 7.1122 7.6017 9.1922C7.6017 12.2722 10.8517 15.1022 13.2517 16.6322C13.4517 16.7422 13.7117 16.9122 13.8617 16.9122C14.0017 16.9122 14.2417 16.7622 14.4117 16.6322C16.8017 15.0722 20.0717 12.2722 20.0717 9.1922C20.0717 7.1122 18.6317 5.6122 16.6517 5.6122C15.4117 5.6122 14.4117 6.3322 13.8417 7.3922C13.2517 6.3322 12.2817 5.6122 11.0317 5.6122Z" />
        </svg>
    