
        <svg xmlns="http://www.w3.org/2000/svg" viewBox="0 0 100 100">
            <path d="M12.7923 25.5978C19.8723 25.5978 25.6023 19.8678 25.6023 12.7978C25.6023 5.7278 19.8723 -0.0022 12.7923 -0.0022C5.7323 -0.0022 0.0023 5.7278 0.0023 12.7978C0.0023 19.8678 5.7323 25.5978 12.7923 25.5978ZM10.0123 7.6878C11.3923 7.6878 12.3323 8.4978 12.7823 9.2778C13.2523 8.4978 14.1923 7.6878 15.5723 7.6878C17.4023 7.6878 18.9223 9.1278 18.9223 11.3578C18.9223 15.3278 14.2523 18.0578 13.5823 18.3978C13.3523 18.5178 13.0423 18.6878 12.7923 18.6878C12.5523 18.6878 12.2223 18.5178 11.9923 18.3978C11.3423 18.0378 6.6523 15.3278 6.6523 11.3578C6.6523 9.1278 8.1823 7.6878 10.0123 7.6878Z" />
        </svg>
    