
        <svg xmlns="http://www.w3.org/2000/svg" viewBox="0 0 100 100">
            <path d="M0.0017 6.4192C0.0017 11.0992 4.4317 15.6692 10.5217 19.7392C10.6517 19.8192 10.8417 19.8892 10.9817 19.8892C11.1317 19.8892 11.3117 19.8192 11.4417 19.7392C17.5317 15.6692 21.9617 11.0992 21.9617 6.4192C21.9617 2.6792 19.3817 -0.0008 15.9017 -0.0008C13.8917 -0.0008 11.8717 1.1992 10.9817 3.0692C10.0917 1.1992 8.0717 -0.0008 6.0617 -0.0008C2.5817 -0.0008 0.0017 2.6792 0.0017 6.4192ZM0.5717 6.4192C0.5717 2.9892 2.8917 0.5692 6.0617 0.5692C8.1817 0.5692 9.7117 1.8792 10.6217 3.5492C10.7317 3.7692 10.8417 3.8692 10.9817 3.8692C11.1317 3.8692 11.2417 3.7692 11.3417 3.5492C12.2417 1.8792 13.7817 0.5692 15.9017 0.5692C19.0617 0.5692 21.3917 2.9892 21.3917 6.4192C21.3917 10.8792 16.8417 15.4192 11.1117 19.2392C11.0717 19.2792 11.0317 19.2992 10.9817 19.2992C10.9317 19.2992 10.9017 19.2792 10.8517 19.2392C5.1217 15.4192 0.5717 10.8792 0.5717 6.4192Z" />
        </svg>
    