
        <svg xmlns="http://www.w3.org/2000/svg" viewBox="0 0 100 100">
            <path d="M12.6023 25.1986C19.5623 25.1986 25.2023 19.5586 25.2023 12.5986C25.2023 5.6386 19.5623 -0.0014 12.6023 -0.0014C5.6323 -0.0014 0.0023 5.6386 0.0023 12.5986C0.0023 19.5586 5.6323 25.1986 12.6023 25.1986ZM12.6023 21.5386C7.6523 21.5386 3.6523 17.5386 3.6523 12.5986C3.6523 7.6486 7.6523 3.6586 12.6023 3.6586C17.5423 3.6586 21.5423 7.6486 21.5423 12.5986C21.5423 17.5386 17.5423 21.5386 12.6023 21.5386ZM17.1523 18.2386C17.4523 18.5186 17.9323 18.5286 18.2223 18.2386C18.5123 17.9386 18.5123 17.4586 18.2223 17.1686L8.0523 6.9886C7.7423 6.6886 7.2523 6.6886 6.9623 6.9886C6.6723 7.2786 6.6723 7.7586 6.9623 8.0486ZM10.3223 7.8186L17.1523 14.6486C17.8923 13.6386 18.4223 12.4886 18.4223 11.2286C18.4223 9.1486 17.0023 7.7686 15.2323 7.7686C13.9523 7.7686 13.0623 8.5186 12.6023 9.3286C12.2023 8.6386 11.4923 8.0286 10.5623 7.8486C10.4723 7.8386 10.3923 7.8286 10.3223 7.8186ZM14.6023 17.0986L7.1123 9.6286C6.8923 10.0786 6.7623 10.6286 6.7623 11.2286C6.7623 14.7686 10.8523 17.3686 11.8923 17.9786C12.1023 18.0786 12.3823 18.2486 12.6023 18.2486C12.8223 18.2486 13.0923 18.0786 13.3023 17.9786C13.5423 17.8086 14.0323 17.5186 14.6023 17.0986Z" />
        </svg>
    