
        <svg xmlns="http://www.w3.org/2000/svg" viewBox="0 0 100 100">
            <path d="M6.5617 6.2081H13.7617C14.4817 6.2081 14.9317 5.7581 14.9317 4.9781V3.7381C14.9317 2.9681 14.4817 2.5081 13.7617 2.5081H12.8317C12.7417 1.1281 11.5917 -0.0019 10.1617 -0.0019C8.7317 -0.0019 7.5817 1.1281 7.4917 2.5081H6.5617C5.8317 2.5081 5.3917 2.9681 5.3917 3.7381V4.9781C5.3917 5.7581 5.8317 6.2081 6.5617 6.2081ZM10.1617 3.6581C9.5817 3.6581 9.1217 3.1781 9.1217 2.6181C9.1217 2.0381 9.5817 1.5681 10.1617 1.5681C10.7317 1.5681 11.2017 2.0381 11.2017 2.6181C11.2017 3.1781 10.7317 3.6581 10.1617 3.6581ZM3.9517 28.8281H16.3717C18.9117 28.8281 20.3217 27.4081 20.3217 24.8281V7.1181C20.3217 4.5481 18.9117 3.1181 16.4517 3.1181H16.2317C16.3017 3.2681 16.3217 3.4581 16.3217 3.6281V4.9781C16.3217 6.5181 15.2917 7.6181 13.7617 7.6181H6.5617C5.0317 7.6181 3.9917 6.5181 3.9917 4.9781V3.6281C3.9917 3.4581 4.0217 3.2681 4.0917 3.1181H3.8717C1.4017 3.1181 0.0017 4.5481 0.0017 7.1181V24.8281C0.0017 27.4081 1.4017 28.8281 3.9517 28.8281ZM7.4017 16.2381C7.3117 16.2381 7.1817 16.1881 7.0817 16.0981C6.1517 15.4781 4.3217 14.1481 4.3217 12.4781C4.3217 11.4381 5.0517 10.6881 5.9917 10.6881C6.6417 10.6881 7.1217 11.0781 7.3917 11.5681C7.6617 11.0781 8.1517 10.6881 8.7817 10.6881C9.7517 10.6881 10.4617 11.4381 10.4617 12.4781C10.4617 14.1481 8.6617 15.5381 7.7217 16.0981C7.6217 16.1681 7.5017 16.2381 7.4017 16.2381ZM4.9817 19.9581C4.5217 19.9581 4.1717 19.6081 4.1717 19.1481C4.1717 18.7181 4.5217 18.3681 4.9817 18.3681H15.3517C15.8117 18.3681 16.1617 18.7181 16.1617 19.1481C16.1617 19.6081 15.8117 19.9581 15.3517 19.9581ZM4.9817 24.5281C4.5217 24.5281 4.1717 24.1681 4.1717 23.7181C4.1717 23.2781 4.5217 22.9181 4.9817 22.9181H11.0317C11.4817 22.9181 11.8317 23.2781 11.8317 23.7181C11.8317 24.1681 11.4717 24.5281 11.0317 24.5281Z" />
        </svg>
    