
        <svg xmlns="http://www.w3.org/2000/svg" viewBox="0 0 100 100">
            <path d="M3.8417 21.8745H18.0317C20.5617 21.8745 21.8817 20.5745 21.8817 18.0745V3.8045C21.8817 1.3145 20.5617 0.0045 18.0317 0.0045H3.8417C1.3117 0.0045 0.0017 1.3045 0.0017 3.8045V18.0745C0.0017 20.5745 1.3117 21.8745 3.8417 21.8745ZM8.0817 5.6345C9.4017 5.6345 10.3817 6.3845 10.9717 7.4345C11.5417 6.3845 12.5417 5.6345 13.8517 5.6345C15.8517 5.6345 17.3417 7.1645 17.3417 9.3245C17.3417 12.6345 13.7317 15.4945 11.6017 16.8745C11.4017 17.0045 11.1517 17.1545 10.9817 17.1545C10.8117 17.1545 10.5317 17.0045 10.3217 16.8745C8.1817 15.5145 4.5817 12.6345 4.5817 9.3245C4.5817 7.1645 6.0717 5.6345 8.0817 5.6345Z" />
        </svg>
    