
        <svg xmlns="http://www.w3.org/2000/svg" viewBox="0 0 100 100">
            <path d="M3.1617 20.742H24.0317C26.1117 20.742 27.1917 19.642 27.1917 17.592V3.152C27.1917 1.102 26.1117 0.002 24.0317 0.002H3.1617C1.0917 0.002 0.0017 1.082 0.0017 3.152V17.592C0.0017 19.662 1.0917 20.742 3.1617 20.742ZM10.7717 5.072C12.0217 5.072 13.0617 5.872 13.6017 6.832C14.1417 5.872 15.2017 5.072 16.4317 5.072C18.3917 5.072 19.8117 6.562 19.8117 8.552C19.8117 11.932 15.9917 14.742 14.0117 16.172C13.8717 16.282 13.7117 16.352 13.6017 16.352C13.5017 16.352 13.3317 16.262 13.1917 16.172C11.1217 14.872 7.3817 11.932 7.3817 8.552C7.3817 6.562 8.8117 5.072 10.7717 5.072Z" />
        </svg>
    