
        <svg xmlns="http://www.w3.org/2000/svg" viewBox="0 0 100 100">
            <path d="M22.811 24.3061C23.231 24.7061 23.911 24.7161 24.321 24.3061C24.721 23.8861 24.741 23.2061 24.321 22.7961L1.831 0.3161C1.411 -0.1039 0.721 -0.1039 0.301 0.3161C-0.099 0.7161 -0.099 1.4161 0.301 1.8261ZM22.351 18.3161C24.811 15.5161 26.281 12.5361 26.281 9.5861C26.281 4.5361 22.721 1.2661 18.721 1.2661C16.221 1.2661 14.521 2.2661 13.531 3.6361C12.531 2.2661 10.821 1.2661 8.341 1.2661C7.451 1.2661 6.591 1.4261 5.761 1.7461L9.601 5.5861C9.641 5.5861 9.651 5.5861 9.671 5.5861C10.951 5.5861 11.821 6.5461 12.401 7.3261C12.751 7.8161 13.091 8.0761 13.531 8.0761C13.961 8.0761 14.271 7.8061 14.631 7.3261C15.361 6.4361 16.191 5.5661 17.911 5.5661C20.091 5.5661 21.751 7.2061 21.751 9.5261C21.751 11.2661 20.861 13.2261 19.261 15.2261ZM18.161 22.2061L15.081 19.1261C14.631 19.4661 14.151 19.8061 13.661 20.1361C13.611 20.1661 13.581 20.1961 13.531 20.1961C13.481 20.1961 13.451 20.1661 13.401 20.1361C8.331 16.7561 5.291 12.7161 5.291 9.5261C5.291 9.4661 5.301 9.3961 5.311 9.3361L1.621 5.6461C1.081 6.7861 0.781 8.1061 0.781 9.5861C0.781 14.6561 5.061 19.7561 11.351 23.9761C12.171 24.5161 12.981 25.0361 13.531 25.0361C14.071 25.0361 14.891 24.5161 15.711 23.9761C16.551 23.4061 17.401 22.8061 18.161 22.2061Z" />
        </svg>
    