
        <svg xmlns="http://www.w3.org/2000/svg" viewBox="0 0 100 100">
            <path d="M3.4617 21.2264H17.7617C20.0517 21.2264 21.2217 20.0464 21.2217 17.7964V3.4264C21.2217 1.1764 20.0517 -0.0036 17.7617 -0.0036H3.4617C1.1717 -0.0036 0.0017 1.1564 0.0017 3.4264V17.7964C0.0017 20.0664 1.1717 21.2264 3.4617 21.2264ZM3.4817 19.7664C2.1717 19.7664 1.4517 19.0764 1.4517 17.7164V3.5064C1.4517 2.1464 2.1717 1.4564 3.4817 1.4564H17.7317C19.0317 1.4564 19.7717 2.1464 19.7717 3.5064V17.7164C19.7717 19.0764 19.0317 19.7664 17.7317 19.7664ZM5.7117 3.5864C4.7217 3.5864 4.0117 4.3464 4.0117 5.3564C4.0117 6.9764 5.7417 8.4164 6.8917 9.1364C6.9817 9.1964 7.0817 9.2564 7.1517 9.2564C7.2217 9.2564 7.3017 9.1964 7.4017 9.1364C8.5317 8.4464 10.2617 6.9764 10.2617 5.3564C10.2617 4.3464 9.5417 3.5864 8.5517 3.5864C7.9317 3.5864 7.4217 3.9764 7.1417 4.4864C6.8517 3.9764 6.3517 3.5864 5.7117 3.5864ZM4.6017 13.1564H16.3317C16.6717 13.1564 16.9217 12.9064 16.9217 12.5764C16.9217 12.2464 16.6717 11.9964 16.3317 11.9964H4.6017C4.2517 11.9964 4.0117 12.2464 4.0117 12.5764C4.0117 12.9064 4.2517 13.1564 4.6017 13.1564ZM4.6017 17.0764H13.1017C13.4317 17.0764 13.6917 16.8164 13.6917 16.4964C13.6917 16.1764 13.4317 15.9164 13.1017 15.9164H4.6017C4.2517 15.9164 4.0117 16.1764 4.0117 16.4964C4.0117 16.8164 4.2517 17.0764 4.6017 17.0764Z" />
        </svg>
    