
        <svg xmlns="http://www.w3.org/2000/svg" viewBox="0 0 100 100">
            <path d="M22.4743 23.9232C22.8843 24.3032 23.5443 24.3232 23.9343 23.9232C24.3243 23.5132 24.3343 22.8632 23.9343 22.4532L1.7643 0.3032C1.3543 -0.1068 0.7043 -0.1068 0.2943 0.3032C-0.0957 0.6932 -0.0957 1.3732 0.2943 1.7632ZM21.9043 18.0732C24.3743 15.2832 25.8243 12.3432 25.8243 9.3932C25.8243 4.5532 22.4343 1.3532 18.5143 1.3532C16.0643 1.3532 14.3543 2.6932 13.3343 4.6132C12.3243 2.6932 10.6143 1.3532 8.1543 1.3532C7.2743 1.3532 6.4343 1.5132 5.6343 1.8232ZM17.9243 21.7532L1.6943 5.5232C1.1543 6.6332 0.8543 7.9332 0.8543 9.3932C0.8543 14.4432 5.1043 19.4932 11.4743 23.7132C12.1643 24.1632 12.8643 24.5932 13.3343 24.5932C13.8143 24.5932 14.5143 24.1632 15.1943 23.7132C16.1543 23.0632 17.0843 22.4232 17.9243 21.7532Z" />
        </svg>
    