
        <svg xmlns="http://www.w3.org/2000/svg" viewBox="0 0 100 100">
            <path d="M12.7923 25.5978C19.8723 25.5978 25.6023 19.8678 25.6023 12.7978C25.6023 5.7278 19.8723 -0.0022 12.7923 -0.0022C5.7323 -0.0022 0.0023 5.7278 0.0023 12.7978C0.0023 19.8678 5.7323 25.5978 12.7923 25.5978ZM12.7923 21.4178C8.0323 21.4178 4.1723 17.5678 4.1723 12.7978C4.1723 8.0278 8.0323 4.1678 12.7923 4.1678C17.5623 4.1678 21.4323 8.0278 21.4323 12.7978C21.4323 17.5678 17.5623 21.4178 12.7923 21.4178ZM10.2223 8.0778C8.5223 8.0778 7.1023 9.4178 7.1023 11.4878C7.1023 15.1778 11.4523 17.6978 12.0623 18.0378C12.2723 18.1378 12.5723 18.3078 12.8123 18.3078C13.0323 18.3078 13.3223 18.1378 13.5323 18.0378C14.1723 17.7078 18.5023 15.1778 18.5023 11.4878C18.5023 9.4178 17.0823 8.0778 15.3723 8.0778C14.1023 8.0778 13.2323 8.8378 12.7923 9.5478C12.3623 8.8378 11.5123 8.0778 10.2223 8.0778Z" />
        </svg>
    