
        <svg xmlns="http://www.w3.org/2000/svg" viewBox="0 0 100 100">
            <path d="M4.0917 31.5227H12.5517C15.1617 31.5227 16.6417 30.0427 16.6417 27.4427V4.0827C16.6417 1.4727 15.1617 0.0027 12.5517 0.0027H4.0917C1.4717 0.0027 0.0017 1.4727 0.0017 4.0827V27.4427C0.0017 30.0427 1.4717 31.5227 4.0917 31.5227ZM11.9617 11.0927C11.4717 11.0927 11.0717 10.7127 11.0717 10.2227V5.6227C11.0717 5.1727 11.4717 4.7627 11.9617 4.7627C12.4417 4.7627 12.8217 5.1727 12.8217 5.6227V10.2227C12.8217 10.7127 12.4417 11.0927 11.9617 11.0927ZM8.9717 11.0927C8.5117 11.0927 8.1017 10.7127 8.1017 10.2227V5.6227C8.1017 5.1727 8.5117 4.7627 8.9717 4.7627C9.4617 4.7627 9.8417 5.1727 9.8417 5.6227V10.2227C9.8417 10.7127 9.4617 11.0927 8.9717 11.0927ZM22.0817 14.2527C25.9217 14.2527 27.6917 11.3527 30.5417 11.3527C31.1917 11.3527 31.6717 11.5127 32.3417 11.8727C32.9717 12.2327 33.7117 12.0727 34.1217 11.4927C34.6217 10.7727 34.3917 9.8627 33.6217 9.4327C32.6717 8.8827 31.6317 8.5927 30.5417 8.5927C26.7117 8.5927 24.9417 11.4827 22.0817 11.4827C21.4317 11.4827 20.9517 11.3327 20.2817 10.9727C19.6417 10.5827 18.8717 10.7827 18.4817 11.3827C18.0217 12.0827 18.2317 12.9827 18.9917 13.4027C19.9417 13.9527 20.9917 14.2527 22.0817 14.2527ZM11.9617 18.9227C11.4717 18.9227 11.0717 18.5227 11.0717 18.0327V13.4427C11.0717 12.9727 11.4717 12.5827 11.9617 12.5827C12.4417 12.5827 12.8217 12.9727 12.8217 13.4427V18.0327C12.8217 18.5227 12.4417 18.9227 11.9617 18.9227ZM8.9717 18.9227C8.5117 18.9227 8.1017 18.5227 8.1017 18.0327V13.4427C8.1017 12.9727 8.5117 12.5827 8.9717 12.5827C9.4617 12.5827 9.8417 12.9727 9.8417 13.4427V18.0327C9.8417 18.5227 9.4617 18.9227 8.9717 18.9227ZM22.0917 18.5827C25.9217 18.5827 27.6917 15.7127 30.5417 15.7127C31.1917 15.7127 31.6717 15.8427 32.3517 16.2327C32.9717 16.5727 33.7117 16.4227 34.1217 15.8427C34.6217 15.1427 34.3917 14.2127 33.6217 13.7727C32.6717 13.2327 31.6317 12.9527 30.5417 12.9527C26.7117 12.9527 24.9417 15.8227 22.0917 15.8227C21.4317 15.8227 20.9517 15.6927 20.2817 15.3127C19.6417 14.9327 18.8717 15.1327 18.4817 15.7427C18.0217 16.4427 18.2317 17.3227 19.0117 17.7627C19.9417 18.3027 21.0017 18.5827 22.0917 18.5827ZM22.0817 22.9427C25.9217 22.9427 27.6917 20.0627 30.5417 20.0627C31.1917 20.0627 31.6717 20.2027 32.3417 20.5927C32.9717 20.9327 33.7117 20.7727 34.1217 20.2027C34.6217 19.5027 34.3917 18.5627 33.6217 18.1327C32.6717 17.5827 31.6317 17.2927 30.5417 17.2927C26.7117 17.2927 24.9417 20.1827 22.0817 20.1827C21.4317 20.1827 20.9517 20.0427 20.2817 19.6627C19.6417 19.2927 18.8717 19.4927 18.4817 20.0827C18.0217 20.7927 18.2317 21.6827 18.9917 22.1127C19.9417 22.6627 20.9917 22.9427 22.0817 22.9427ZM11.9617 26.7627C11.4717 26.7627 11.0717 26.3527 11.0717 25.9027V21.2927C11.0717 20.8127 11.4717 20.4127 11.9617 20.4127C12.4417 20.4127 12.8217 20.8127 12.8217 21.2927V25.9027C12.8217 26.3527 12.4417 26.7627 11.9617 26.7627ZM8.9717 26.7627C8.5117 26.7627 8.1017 26.3527 8.1017 25.9027V21.2927C8.1017 20.8127 8.5117 20.4127 8.9717 20.4127C9.4617 20.4127 9.8417 20.8127 9.8417 21.2927V25.9027C9.8417 26.3527 9.4617 26.7627 8.9717 26.7627Z" />
        </svg>
    