
        <svg xmlns="http://www.w3.org/2000/svg" viewBox="0 0 100 100">
            <path d="M18.8576 4.184C18.2776 4.984 18.7676 6.204 19.9076 6.204H20.9276V6.384C20.9276 10.654 23.1776 10.904 23.1776 12.944C23.1776 14.914 20.3176 15.534 20.3176 19.894C20.3176 21.324 20.7676 22.544 21.7876 23.834C23.1076 25.504 25.7576 23.744 24.3776 21.904C23.7376 21.054 23.5476 20.564 23.5476 19.714C23.5476 17.264 26.4076 16.154 26.4076 12.944C26.4076 9.724 24.1376 9.314 24.1376 6.384V6.204H25.1476C26.2676 6.204 26.7976 5.004 26.2076 4.184L23.6676 0.674C23.0376 -0.186 22.0776 -0.266 21.3976 0.674ZM9.6776 4.204C9.1176 4.984 9.6076 6.204 10.7276 6.204H11.7476V6.384C11.7476 10.664 14.0176 10.904 14.0176 12.944C14.0176 14.914 11.1576 15.534 11.1576 19.894C11.1576 21.324 11.5976 22.544 12.6076 23.844C13.9476 25.504 16.5876 23.754 15.1976 21.904C14.5676 21.054 14.3776 20.564 14.3776 19.714C14.3776 17.264 17.2376 16.154 17.2376 12.944C17.2376 9.734 14.9576 9.314 14.9576 6.384V6.204H15.9776C17.0976 6.204 17.6376 5.004 17.0376 4.204L14.4976 0.684C13.8776 -0.186 12.8976 -0.266 12.2176 0.684ZM0.2476 4.204C-0.3424 4.974 0.1776 6.204 1.3076 6.204H2.4576V6.394C2.4576 10.664 4.7076 10.904 4.7076 12.944C4.7076 14.914 1.8576 15.534 1.8576 19.904C1.8576 21.334 2.3076 22.544 3.3176 23.844C4.6476 25.504 7.2976 23.754 5.9076 21.904C5.2676 21.054 5.0876 20.564 5.0876 19.714C5.0876 17.264 7.9476 16.154 7.9476 12.944C7.9476 9.734 5.6676 9.324 5.6676 6.394V6.204H6.6776C7.7976 6.204 8.3376 5.024 7.7476 4.204L5.1976 0.684C4.5776 -0.176 3.6276 -0.246 2.9276 0.684Z" />
        </svg>
    