
        <svg xmlns="http://www.w3.org/2000/svg" viewBox="0 0 100 100">
            <path d="M2.2417 25.292H8.7117C10.1117 25.292 10.9417 24.472 10.9417 23.062V2.222C10.9417 0.822 10.1117 0.002 8.7117 0.002H2.2417C0.8217 0.002 0.0017 0.822 0.0017 2.222V23.062C0.0017 24.472 0.8217 25.292 2.2417 25.292ZM8.1417 8.072C7.8617 8.072 7.6517 7.862 7.6517 7.582V3.032C7.6517 2.762 7.8617 2.552 8.1417 2.552C8.4117 2.552 8.6217 2.762 8.6217 3.032V7.582C8.6217 7.862 8.4117 8.072 8.1417 8.072ZM5.8517 8.072C5.5617 8.072 5.3517 7.862 5.3517 7.582V3.032C5.3517 2.762 5.5617 2.552 5.8517 2.552C6.1217 2.552 6.3317 2.762 6.3317 3.032V7.582C6.3317 7.862 6.1217 8.072 5.8517 8.072ZM15.1517 11.102C17.8617 11.102 19.5117 8.702 22.0617 8.702C22.7917 8.702 23.3317 8.872 23.9717 9.222C24.2217 9.362 24.4317 9.282 24.5417 9.122C24.6417 8.932 24.6217 8.672 24.3617 8.532C23.6417 8.102 22.9017 7.912 22.0617 7.912C19.1517 7.912 17.5517 10.302 15.1517 10.302C14.4217 10.302 13.8617 10.132 13.2417 9.782C13.0217 9.652 12.8017 9.712 12.6917 9.902C12.5717 10.102 12.6117 10.352 12.8417 10.492C13.5517 10.942 14.3117 11.102 15.1517 11.102ZM8.1417 15.282C7.8617 15.282 7.6517 15.072 7.6517 14.792V10.242C7.6517 9.972 7.8617 9.762 8.1417 9.762C8.4117 9.762 8.6217 9.972 8.6217 10.242V14.792C8.6217 15.072 8.4117 15.282 8.1417 15.282ZM5.8517 15.282C5.5617 15.282 5.3517 15.072 5.3517 14.792V10.242C5.3517 9.972 5.5617 9.762 5.8517 9.762C6.1217 9.762 6.3317 9.972 6.3317 10.242V14.792C6.3317 15.072 6.1217 15.282 5.8517 15.282ZM15.1517 14.212C17.8617 14.212 19.5217 11.822 22.0617 11.822C22.7917 11.822 23.3417 12.002 23.9717 12.352C24.2217 12.482 24.4417 12.402 24.5417 12.232C24.6417 12.062 24.6217 11.792 24.3717 11.652C23.6417 11.222 22.9017 11.042 22.0617 11.042C19.1517 11.042 17.5517 13.432 15.1517 13.432C14.4217 13.432 13.8617 13.252 13.2417 12.902C13.0317 12.782 12.8017 12.842 12.6917 13.022C12.5717 13.222 12.6117 13.472 12.8417 13.622C13.5617 14.072 14.3217 14.212 15.1517 14.212ZM15.1517 17.342C17.8617 17.342 19.5117 14.952 22.0617 14.952C22.7917 14.952 23.3317 15.122 23.9717 15.472C24.2217 15.612 24.4317 15.532 24.5417 15.362C24.6417 15.172 24.6217 14.922 24.3617 14.782C23.6417 14.342 22.9017 14.152 22.0617 14.152C19.1517 14.152 17.5517 16.542 15.1517 16.542C14.4217 16.542 13.8617 16.382 13.2417 16.032C13.0217 15.902 12.8017 15.962 12.6917 16.152C12.5717 16.352 12.6117 16.592 12.8417 16.732C13.5517 17.192 14.3117 17.342 15.1517 17.342ZM8.1417 22.472C7.8617 22.472 7.6517 22.262 7.6517 21.992V17.452C7.6517 17.182 7.8617 16.972 8.1417 16.972C8.4117 16.972 8.6217 17.182 8.6217 17.452V21.992C8.6217 22.262 8.4117 22.472 8.1417 22.472ZM5.8517 22.472C5.5617 22.472 5.3517 22.262 5.3517 21.992V17.452C5.3517 17.182 5.5617 16.972 5.8517 16.972C6.1217 16.972 6.3317 17.182 6.3317 17.452V21.992C6.3317 22.262 6.1217 22.472 5.8517 22.472Z" />
        </svg>
    