
        <svg xmlns="http://www.w3.org/2000/svg" viewBox="0 0 100 100">
            <path d="M14.9814 22.6981C15.3614 22.6381 15.5514 22.3581 15.4814 21.9581C15.2814 20.8481 15.1114 19.7881 15.0814 18.3681C15.0614 17.1181 15.0814 15.4181 15.1414 13.8481C16.8514 14.1181 18.7614 14.8481 21.2314 14.8481C24.4214 14.8481 25.6814 14.2981 26.0314 13.5381C26.3014 13.2281 26.2514 12.8581 25.6614 12.2481C25.0514 11.5981 24.7114 10.7381 24.4614 9.3981C23.7314 5.4481 20.8514 2.1781 16.6314 0.7581V3.1881C16.6314 3.5881 16.3414 3.8981 15.9614 3.8981C15.5714 3.8981 15.2914 3.5881 15.2914 3.1981V0.3981C14.6114 0.2381 13.9214 0.1181 13.2114 0.0581V3.7781C13.2114 4.1681 12.9014 4.4781 12.5314 4.4781C12.1414 4.4781 11.8614 4.1681 11.8614 3.7781V-0.0019C11.1214 -0.0019 10.5014 0.0281 9.7914 0.1381V3.1781C9.7914 3.5881 9.5014 3.8881 9.1314 3.8881C8.7514 3.8881 8.4514 3.5881 8.4514 3.1881V0.3981C3.9514 1.5081 0.9114 4.8781 0.1814 8.6981L3.6614 10.2881C4.0214 10.4481 4.1814 10.8281 4.0314 11.1581C3.8714 11.5081 3.4914 11.6381 3.1414 11.4681L0.0114 10.0681C-0.0486 11.2381 0.0914 12.5981 0.3614 13.6681C0.7514 15.2081 3.1514 16.7581 4.8914 16.7581C6.3514 16.7581 7.4114 16.2681 8.4014 15.6781L13.8414 19.3781C13.9214 20.5081 14.0214 21.1681 14.2114 22.1581C14.2914 22.5481 14.6414 22.7581 14.9814 22.6981ZM9.6014 14.9781C10.7314 14.3181 11.9514 13.6981 13.7514 13.6981H13.8314C13.7814 15.0781 13.7314 16.5381 13.7714 17.7881Z" />
        </svg>
    