
        <svg xmlns="http://www.w3.org/2000/svg" viewBox="0 0 100 100">
            <path d="M0.9117 18.9907L9.9217 24.2207C10.5017 24.5607 11.1817 24.5607 11.7617 24.2207L20.7617 18.9907C21.3417 18.6507 21.6817 18.0807 21.6817 17.4107V7.0307C21.6817 6.3607 21.3417 5.7907 20.7617 5.4507L11.7617 0.2507C11.1817 -0.0893 10.5017 -0.0893 9.9217 0.2507L0.9117 5.4507C0.3417 5.7907 0.0017 6.3607 0.0017 7.0307V17.4107C0.0017 18.0807 0.3417 18.6507 0.9117 18.9907ZM0.5717 17.5207V6.9107C0.5717 6.5207 0.7617 6.2007 1.0917 6.0107L10.3217 0.6807C10.6517 0.4807 11.0417 0.4807 11.3717 0.6807L20.5917 6.0107C20.9217 6.2007 21.1017 6.5207 21.1017 6.9107V17.5207C21.1017 17.8907 20.9217 18.2307 20.5917 18.4307L11.3817 23.7707C11.0517 23.9707 10.6317 23.9707 10.3117 23.7707L1.0917 18.4307C0.7617 18.2307 0.5717 17.8907 0.5717 17.5207Z" />
        </svg>
    