
        <svg xmlns="http://www.w3.org/2000/svg" viewBox="0 0 100 100">
            <path d="M3.2717 19.7948H7.9717V17.5748H3.4817C2.6417 17.5748 2.2217 17.1448 2.2217 16.3348V3.4648C2.2217 2.6648 2.6417 2.2148 3.4817 2.2148H11.5817C11.9717 2.2148 12.3017 2.3648 12.4817 2.6748L12.5017 2.7648C12.8517 2.6948 13.2917 2.6748 13.6317 2.6748H14.9717L14.9517 2.4848C14.6817 0.9348 13.6517 0.0048 11.7917 0.0048H3.2717C1.1517 0.0048 0.0017 1.1448 0.0017 3.2948V16.5148C0.0017 18.6448 1.1417 19.7948 3.2717 19.7948ZM5.5117 5.5648C5.5117 6.8248 6.4917 7.8248 7.7417 7.8348C7.8917 7.8348 7.9417 7.8348 8.0317 7.8148C8.0417 7.6748 8.0517 7.5348 8.0617 7.4048C8.1017 7.0648 8.1517 6.7348 8.2217 6.4848C8.1517 6.5248 7.9817 6.5748 7.7817 6.5748C7.2217 6.5748 6.7617 6.1248 6.7617 5.5648C6.7617 5.0048 7.2117 4.5448 7.7817 4.5448C8.1717 4.5448 8.5817 4.8148 8.6717 5.0948C8.8617 4.7248 9.1917 4.3048 9.4617 4.0548C9.1017 3.6048 8.4717 3.2948 7.7817 3.2948C6.5117 3.2948 5.5117 4.3148 5.5117 5.5648ZM9.7417 7.9448V24.4948C9.7417 26.7748 10.9417 28.0148 13.2217 28.0148H24.1917C26.4617 28.0148 27.6817 26.7748 27.6817 24.4948V7.9448C27.6817 5.6748 26.4617 4.4248 24.1917 4.4248H13.2217C10.9417 4.4248 9.7417 5.6748 9.7417 7.9448ZM12.2217 8.1448C12.2217 7.3248 12.6117 6.9248 13.4517 6.9248H23.9517C24.7817 6.9248 25.1817 7.3248 25.1817 8.1448V24.3048C25.1817 25.1148 24.7817 25.5248 23.9517 25.5248H13.4517C12.6217 25.5248 12.2217 25.1148 12.2217 24.3048ZM18.7017 13.6248C20.1417 13.6248 21.3017 12.4648 21.3017 11.0148C21.3017 9.5748 20.1517 8.4348 18.7017 8.4348C17.2617 8.4348 16.1017 9.5648 16.1017 11.0148C16.1017 12.4848 17.2617 13.6248 18.7017 13.6248ZM3.8817 12.5748C3.8817 14.6648 5.5117 16.3548 7.5717 16.4448C7.7317 16.4548 7.8517 16.4548 7.9717 16.4548V14.0548C7.9017 14.0648 7.7817 14.0648 7.6517 14.0648C6.8517 14.0048 6.2617 13.3748 6.2617 12.5748C6.2617 11.7848 6.8717 11.1448 7.6617 11.0948C7.7717 11.0848 7.9017 11.0948 7.9717 11.1048V9.3048C7.9717 9.1048 7.9817 8.9048 7.9817 8.6948C7.9117 8.6948 7.7817 8.6848 7.6217 8.6848C5.5417 8.7548 3.8817 10.4748 3.8817 12.5748ZM18.7017 12.0948C18.1017 12.0948 17.6217 11.6248 17.6217 11.0148C17.6217 10.4048 18.1017 9.9348 18.7017 9.9348C19.2917 9.9348 19.7817 10.4248 19.7817 11.0148C19.7817 11.6248 19.3017 12.0948 18.7017 12.0948ZM18.7017 23.9848C21.1617 23.9848 23.1517 22.0148 23.1517 19.5448C23.1517 17.0748 21.1617 15.1048 18.7017 15.1048C16.2417 15.1048 14.2617 17.0848 14.2617 19.5448C14.2617 22.0048 16.2417 23.9848 18.7017 23.9848ZM18.7017 21.1948C17.7917 21.1948 17.0417 20.4748 17.0417 19.5448C17.0417 18.5948 17.7817 17.8748 18.7017 17.8748C19.6417 17.8748 20.3717 18.5948 20.3717 19.5448C20.3717 20.4748 19.6417 21.1948 18.7017 21.1948Z" />
        </svg>
    