
        <svg xmlns="http://www.w3.org/2000/svg" viewBox="0 0 100 100">
            <path d="M2.5117 20.2347H8.1317C7.8917 19.4447 7.7617 18.7947 7.6417 17.7847C5.3117 17.6447 3.4717 15.7147 3.4717 13.3347C3.4717 10.8747 5.4617 8.8847 7.9317 8.8847C8.7217 8.8847 9.4917 9.0947 10.1217 9.4647C11.5317 7.7947 13.3817 6.8347 15.8417 6.3447V2.5047C15.8417 0.9047 14.9417 0.0047 13.3317 0.0047H2.5117C0.9017 0.0047 0.0017 0.9047 0.0017 2.5047V17.7147C0.0017 19.3247 0.9017 20.2347 2.5117 20.2347ZM7.9217 7.3247C6.6217 7.3147 5.5417 6.2647 5.5417 4.9547C5.5417 3.6547 6.6117 2.5947 7.9217 2.5947C9.2317 2.5947 10.3017 3.6547 10.3017 4.9547C10.3017 6.2647 9.2217 7.3147 7.9217 7.3247ZM7.9217 6.3247C8.6817 6.3247 9.2917 5.7047 9.2917 4.9547C9.2917 4.2047 8.6817 3.5947 7.9217 3.5947C7.1617 3.5947 6.5517 4.2047 6.5517 4.9547C6.5517 5.7047 7.1617 6.3247 7.9217 6.3247ZM19.5017 10.2547C22.5217 10.2547 24.5617 9.6647 24.5617 8.8347C24.5617 7.9847 22.5217 7.3947 19.5017 7.3947C16.4717 7.3947 14.4417 7.9847 14.4417 8.8347C14.4417 9.6647 16.4717 10.2547 19.5017 10.2547ZM19.5017 26.3947C23.5317 26.3947 25.0517 25.8547 26.5217 24.5047C28.6517 22.5447 29.9417 19.6947 29.9417 16.6447C29.9417 13.9347 28.9417 11.5347 27.0617 9.7047C26.7117 9.3147 26.3317 9.3247 26.0117 9.6047C24.8717 10.8447 23.1117 11.5347 19.5017 11.5347C15.8917 11.5347 14.1417 10.8447 12.9817 9.6047C12.6817 9.3247 12.2917 9.3147 11.9417 9.7047C10.0517 11.5347 9.0717 13.9347 9.0717 16.6447C9.0717 19.6947 10.3617 22.5447 12.4917 24.5047C13.9417 25.8547 15.4817 26.3947 19.5017 26.3947ZM5.9017 13.3347C5.9017 14.3747 6.6817 15.2147 7.6717 15.3247C7.8317 13.9347 8.2017 12.6547 8.8117 11.5147C8.5417 11.3947 8.2417 11.3247 7.9317 11.3247C6.8117 11.3247 5.9017 12.2147 5.9017 13.3347Z" />
        </svg>
    