
        <svg xmlns="http://www.w3.org/2000/svg" viewBox="0 0 100 100">
            <path d="M0.0017 3.0938V20.6737C0.0017 22.7238 1.0317 23.7738 3.0717 23.7738H14.3817C16.4017 23.7738 17.4517 22.7238 17.4517 20.6737V3.0938C17.4517 1.0437 16.4217 0.0038 14.3817 0.0038H3.0717C1.0317 0.0038 0.0017 1.0437 0.0017 3.0938ZM1.4517 3.1137C1.4517 2.0138 2.0117 1.4438 3.1217 1.4438H14.3217C15.4317 1.4438 15.9917 2.0138 15.9917 3.1137V20.6438C15.9917 21.7338 15.4217 22.3238 14.3217 22.3238H3.1217C2.0317 22.3238 1.4517 21.7338 1.4517 20.6438ZM8.7217 8.6738C10.1617 8.6738 11.3417 7.5138 11.3317 6.0738C11.3217 4.6337 10.1717 3.5038 8.7217 3.4838C7.2917 3.4638 6.1217 4.6337 6.1217 6.0738C6.1217 7.5238 7.2817 8.6738 8.7217 8.6738ZM8.7217 7.6138C7.8617 7.6138 7.1817 6.9138 7.1817 6.0738C7.1817 5.1938 7.8617 4.5337 8.7217 4.5337C9.5617 4.5337 10.2617 5.2238 10.2617 6.0738C10.2617 6.9138 9.5717 7.6138 8.7217 7.6138ZM8.7217 20.2938C11.3917 20.2938 13.5317 18.1638 13.5317 15.4838C13.5317 12.7938 11.3917 10.6738 8.7217 10.6638C6.0617 10.6538 3.9017 12.7938 3.9017 15.4838C3.9017 18.1638 6.0617 20.2938 8.7217 20.2938ZM8.7217 17.6638C7.5217 17.6638 6.5417 16.6838 6.5417 15.4838C6.5417 14.2238 7.4917 13.2738 8.7217 13.2738C9.9517 13.2738 10.9117 14.2238 10.9117 15.4838C10.9117 16.6838 9.9517 17.6638 8.7217 17.6638Z" />
        </svg>
    