
        <svg xmlns="http://www.w3.org/2000/svg" viewBox="0 0 100 100">
            <path d="M3.3717 21.7306H8.1917V18.2306C8.1317 18.2306 8.0817 18.2306 8.0317 18.2306C5.8017 18.2306 3.9917 16.4406 3.9917 14.2006C3.9917 11.9506 5.8017 10.1806 8.0317 10.1706C8.1017 10.1706 8.1517 10.1706 8.2217 10.1806C8.2617 9.5406 8.3717 8.9206 8.4817 8.3106C8.3517 8.3406 8.2017 8.3506 8.0517 8.3506C6.6817 8.3506 5.5817 7.2906 5.5917 5.9106C5.5917 4.5506 6.6817 3.4606 8.0517 3.4606C8.9217 3.4606 9.6517 3.9006 10.0617 4.5806C10.1017 4.6406 10.1217 4.7006 10.1417 4.7506C11.3417 3.3006 13.1117 2.3306 15.7217 1.7606V1.7206C15.2317 0.6106 14.1917 0.0006 12.6917 0.0006H3.3717C1.2317 0.0006 0.0017 1.2306 0.0017 3.4006V18.3306C0.0017 20.5006 1.2317 21.7306 3.3717 21.7306ZM20.6217 6.1906C23.8317 6.1906 26.2817 5.6206 26.2817 4.6306C26.2817 3.6106 23.8517 3.0706 20.6217 3.0706C17.4817 3.0706 15.0517 3.6106 15.0517 4.6306C15.0517 5.6206 17.4917 6.1906 20.6217 6.1906ZM8.0317 6.7106C8.4817 6.7106 8.8517 6.3506 8.8517 5.9106C8.8517 5.4506 8.4817 5.1006 8.0317 5.1006C7.5917 5.1006 7.2217 5.4606 7.2217 5.9106C7.2217 6.3506 7.5817 6.7106 8.0317 6.7106ZM20.6617 29.2406C27.8917 29.2406 31.1017 26.6606 31.1017 20.9606V11.3806C31.1017 9.7106 30.7817 7.9306 30.0117 6.7406C29.6017 6.1006 28.7817 5.9106 27.9117 6.3406C26.2417 7.2406 23.5617 7.8306 20.6617 7.8306C17.7617 7.8306 15.0917 7.2406 13.4217 6.3406C12.5517 5.9106 11.7317 6.1006 11.3217 6.7406C10.5517 7.9306 10.2317 9.7106 10.2317 11.3806V20.9606C10.2317 26.6606 13.4417 29.2406 20.6617 29.2406ZM8.0317 15.4906C8.0817 15.4906 8.1417 15.4906 8.1917 15.4806V12.9006C8.1417 12.9006 8.0817 12.8906 8.0317 12.8906C7.3117 12.8906 6.7417 13.4606 6.7417 14.2006C6.7417 14.9206 7.3117 15.4906 8.0317 15.4906Z" />
        </svg>
    