
        <svg xmlns="http://www.w3.org/2000/svg" viewBox="0 0 100 100">
            <path d="M0.0017 3.3298V20.9298C0.0017 23.1398 1.1017 24.2598 3.2917 24.2598H14.6817C16.8717 24.2598 17.9617 23.1398 17.9617 20.9298V3.3298C17.9617 1.1098 16.8717 -0.0002 14.6817 -0.0002H3.2917C1.1017 -0.0002 0.0017 1.1098 0.0017 3.3298ZM1.8917 3.3498C1.8917 2.3898 2.3917 1.8898 3.3617 1.8898H14.6117C15.5817 1.8898 16.0817 2.3898 16.0817 3.3498V20.9098C16.0817 21.8598 15.5717 22.3698 14.6117 22.3698H3.3617C2.3917 22.3698 1.8917 21.8598 1.8917 20.9098ZM8.9917 9.0798C10.4517 9.0798 11.6717 7.8998 11.6517 6.4198C11.6417 4.9498 10.4517 3.7898 8.9917 3.7698C7.5117 3.7598 6.3317 4.9298 6.3317 6.4198C6.3317 7.8998 7.5117 9.0798 8.9917 9.0798ZM8.9917 7.7798C8.2217 7.7798 7.6317 7.1598 7.6317 6.4198C7.6317 5.6398 8.2217 5.0598 8.9917 5.0598C9.7217 5.0598 10.3517 5.6698 10.3517 6.4198C10.3517 7.1598 9.7417 7.7798 8.9917 7.7798ZM8.9917 20.4798C11.6417 20.4798 13.7717 18.3598 13.7717 15.6998C13.7717 13.0398 11.6417 10.9298 8.9917 10.9198C6.3417 10.9098 4.2117 13.0398 4.2117 15.6998C4.2117 18.3598 6.3417 20.4798 8.9917 20.4798ZM8.9917 17.7298C7.8717 17.7298 6.9617 16.8298 6.9617 15.6998C6.9617 14.5398 7.8417 13.6598 8.9917 13.6598C10.1217 13.6598 11.0117 14.5398 11.0117 15.6998C11.0117 16.8298 10.1217 17.7298 8.9917 17.7298Z" />
        </svg>
    