
        <svg xmlns="http://www.w3.org/2000/svg" viewBox="0 0 100 100">
            <path d="M3.8417 21.6989H8.3917C8.1517 20.7389 8.0117 19.3989 8.0317 18.4989H4.2917C3.5317 18.4989 3.1917 18.1289 3.1917 17.4189V4.2789C3.1917 3.5589 3.5317 3.1889 4.2917 3.1889H13.1417C13.9017 3.1889 14.2217 3.5589 14.2217 4.2789V7.2989C15.1917 6.8289 16.2517 6.4889 17.4217 6.2489V3.8589C17.4217 1.4089 16.0317 -0.0011 13.5817 -0.0011H3.8417C1.3917 -0.0011 0.0017 1.4089 0.0017 3.8589V17.8489C0.0017 20.2989 1.3917 21.6989 3.8417 21.6989ZM8.7117 8.8389C9.9517 8.8389 10.9717 7.8189 10.9717 6.5789C10.9717 5.3389 9.9517 4.3389 8.7117 4.3389C7.4617 4.3389 6.4617 5.3389 6.4617 6.5789C6.4617 7.8189 7.4717 8.8389 8.7117 8.8389ZM8.7117 7.3389C8.2717 7.3389 7.9317 6.9989 7.9317 6.5789C7.9317 6.1489 8.2717 5.8089 8.7117 5.8089C9.1517 5.8089 9.4817 6.1489 9.4817 6.5789C9.4817 6.9989 9.1517 7.3389 8.7117 7.3389ZM21.7117 10.6689C24.6817 10.6689 26.8817 10.1589 26.8817 9.2489C26.8817 8.3189 24.6917 7.8389 21.7117 7.8389C18.8017 7.8389 16.6017 8.3189 16.6017 9.2489C16.6017 10.1589 18.8117 10.6689 21.7117 10.6689ZM4.9717 13.8489C4.9717 15.6689 6.2917 17.1989 8.0117 17.5189C8.0617 16.6989 8.1917 15.7389 8.3817 14.9389C7.8717 14.8289 7.5217 14.3889 7.5217 13.8489C7.5217 13.1989 8.0617 12.6589 8.7217 12.6589C8.8217 12.6589 8.9517 12.6789 9.0817 12.7389C9.4217 11.9289 9.8417 11.1689 10.3217 10.4789C9.7417 10.2289 9.2417 10.0989 8.7217 10.0989C6.6417 10.0989 4.9717 11.7889 4.9717 13.8489ZM21.7117 29.3689C25.8717 29.3689 27.8217 28.8189 29.6117 27.1389C32.0517 24.9189 33.4717 21.6789 33.4717 18.3089C33.4717 15.6189 32.5817 13.0289 30.9517 10.9489C30.2617 10.0289 29.3217 9.8789 28.2917 10.5089C26.7317 11.5289 24.6517 12.1189 21.7117 12.1189C18.7617 12.1189 16.6917 11.5289 15.1217 10.5089C14.1017 9.8789 13.1617 10.0289 12.4717 10.9489C10.8317 13.0289 9.9517 15.6189 9.9517 18.3089C9.9517 21.6789 11.3517 24.9189 13.8017 27.1389C15.6017 28.8189 17.5417 29.3689 21.7117 29.3689ZM21.7117 25.7789C18.4417 25.7789 17.3017 25.5089 16.2317 24.4889C14.4917 22.8989 13.5217 20.6789 13.5217 18.3089C13.5217 17.0589 13.7717 15.8789 14.5517 14.4289C16.4317 15.2689 18.8417 15.7189 21.7117 15.7189C24.5717 15.7189 26.9917 15.2689 28.8617 14.4189C29.6517 15.8789 29.8817 17.0489 29.8817 18.3089C29.8817 20.6789 28.9217 22.8989 27.1917 24.4889C26.1117 25.5089 24.9717 25.7789 21.7117 25.7789Z" />
        </svg>
    