
        <svg xmlns="http://www.w3.org/2000/svg" viewBox="0 0 100 100">
            <path d="M7.1734 20.1355H3.0134V22.2455C3.0134 25.1255 4.7034 26.8155 7.5834 26.8155H19.8834C22.7734 26.8155 24.4534 25.1255 24.4534 22.2455V4.5655C24.4534 1.6855 22.7734 -0.0045 19.8834 -0.0045H7.5834C4.7034 -0.0045 3.0134 1.6855 3.0134 4.5655V13.6055H7.1734V5.2055C7.1734 4.4955 7.4634 4.1555 8.2134 4.1555H19.2534C20.0034 4.1555 20.2934 4.4955 20.2934 5.2055V21.6055C20.2934 22.3155 20.0034 22.6555 19.2534 22.6555H8.2134C7.4634 22.6555 7.1734 22.3155 7.1734 21.6055ZM13.7234 11.1755C15.3534 11.1755 16.6634 9.8955 16.6534 8.2655C16.6334 6.6355 15.3534 5.3555 13.7234 5.3355C12.1034 5.3355 10.8134 6.6355 10.8134 8.2655C10.8134 9.8955 12.1034 11.1755 13.7234 11.1755ZM13.7334 9.0355C13.3134 9.0355 12.9634 8.6855 12.9634 8.2655C12.9634 7.8055 13.3134 7.4755 13.7334 7.4755C14.1434 7.4755 14.5034 7.8155 14.5034 8.2655C14.5034 8.6855 14.1534 9.0355 13.7334 9.0355ZM1.4634 18.3855H11.6534L12.7034 18.2855L12.2234 18.6055L11.8034 19.0455C11.5534 19.3055 11.3634 19.6855 11.3634 20.0655C11.3634 20.8855 11.9634 21.4755 12.7934 21.4755C13.2034 21.4755 13.5234 21.3355 13.7934 21.0855L16.5334 18.3355C17.0034 17.8755 17.2134 17.3955 17.2134 16.8755C17.2134 16.3555 17.0034 15.8655 16.5334 15.4055L13.7934 12.6555C13.5234 12.4055 13.2034 12.2555 12.7934 12.2555C11.9634 12.2555 11.3634 12.8555 11.3634 13.6755C11.3634 14.0555 11.5434 14.4355 11.8034 14.6955L12.2234 15.1255L12.7034 15.4555L11.6534 15.3555H1.4634C0.6534 15.3555 0.0034 16.0055 0.0034 16.8755C0.0034 17.7255 0.6534 18.3855 1.4634 18.3855Z" />
        </svg>
    