
        <svg xmlns="http://www.w3.org/2000/svg" viewBox="0 0 100 100">
            <path d="M3.283 2.6333V14.7533L12.133 14.7633H12.983L12.113 13.8833L9.433 11.2233C9.373 11.1633 9.333 11.0733 9.333 11.0033C9.333 10.8633 9.453 10.7433 9.593 10.7433C9.683 10.7433 9.723 10.7733 9.783 10.8233L13.793 14.8333C13.853 14.8933 13.873 14.9633 13.873 15.0333C13.873 15.1033 13.853 15.1733 13.793 15.2333L9.783 19.2333C9.723 19.2733 9.683 19.3133 9.593 19.3133C9.453 19.3133 9.333 19.1833 9.333 19.0533C9.333 18.9833 9.373 18.8933 9.433 18.8333L12.113 16.1733L12.973 15.3033H12.133L3.283 15.3133V20.1833C3.283 21.8933 4.193 22.8133 5.903 22.8133H17.063C18.773 22.8133 19.673 21.8933 19.673 20.1833V2.6333C19.673 0.9133 18.783 0.0033 17.063 0.0033H5.903C4.183 0.0033 3.283 0.9133 3.283 2.6333ZM11.483 7.8633C10.093 7.8633 8.993 6.7733 8.993 5.3933C8.993 4.0233 10.113 2.9033 11.483 2.9333C12.863 2.9433 13.983 4.0333 13.983 5.3933C13.983 6.7633 12.853 7.8633 11.483 7.8633ZM11.483 7.3033C12.543 7.3033 13.393 6.4433 13.393 5.3933C13.393 4.3433 12.513 3.4933 11.483 3.4933C10.423 3.4933 9.573 4.3233 9.573 5.3933C9.573 6.4433 10.433 7.3033 11.483 7.3033ZM0.283 15.3233L3.283 15.3133V14.7533H0.283C0.133 14.7533 0.003 14.8833 0.003 15.0333C0.003 15.2033 0.133 15.3233 0.283 15.3233Z" />
        </svg>
    