
        <svg xmlns="http://www.w3.org/2000/svg" viewBox="0 0 100 100">
            <path d="M3.7217 22.227H8.4617V19.047H4.1717C3.4817 19.047 3.1917 18.727 3.1917 18.067V4.157C3.1917 3.517 3.4817 3.187 4.1717 3.187H13.2417C13.9217 3.187 14.2117 3.517 14.2117 4.157V8.077C14.7817 7.977 15.3917 7.937 16.0817 7.937H17.4117V3.727C17.4117 1.357 16.0417 -0.003 13.6917 -0.003H3.7217C1.3617 -0.003 0.0017 1.357 0.0017 3.727V18.507C0.0017 20.867 1.3617 22.227 3.7217 22.227ZM8.7117 8.917C9.9617 8.917 10.9717 7.897 10.9717 6.657C10.9617 5.417 9.9517 4.407 8.7117 4.407C7.4517 4.407 6.4417 5.417 6.4417 6.657C6.4417 7.907 7.4517 8.917 8.7117 8.917ZM8.7117 7.397C8.2817 7.397 7.9617 7.067 7.9617 6.657C7.9617 6.237 8.2717 5.907 8.7117 5.907C9.1317 5.907 9.4617 6.247 9.4617 6.657C9.4617 7.067 9.1317 7.397 8.7117 7.397ZM15.9417 28.877H24.0117C25.9717 28.877 27.2317 28.587 28.1917 27.637C29.1417 26.667 29.4217 25.427 29.4217 23.447V15.407C29.4217 13.427 29.1417 12.187 28.1917 11.247C27.2317 10.287 25.9717 9.997 24.0117 9.997H15.9217C13.9817 9.997 12.7117 10.287 11.7517 11.247C10.8017 12.197 10.5217 13.437 10.5217 15.407V23.447C10.5217 25.427 10.8017 26.687 11.7517 27.637C12.7117 28.587 13.9817 28.877 15.9417 28.877ZM4.9717 14.077C4.9717 16.057 6.5117 17.687 8.4617 17.787C8.4617 16.487 8.4617 15.827 8.4817 15.197C7.9617 15.107 7.5517 14.647 7.5517 14.077C7.5517 13.457 8.0317 12.937 8.7117 12.977C8.9017 12.037 9.2217 11.257 9.7117 10.567C9.4017 10.427 9.0517 10.357 8.6917 10.357C6.6417 10.347 4.9717 12.027 4.9717 14.077ZM16.1117 17.527C16.0817 16.867 16.5917 16.247 17.2817 16.197C17.3517 16.827 16.7917 17.587 16.1117 17.527ZM20.8317 16.627V17.657H21.6917V18.337H20.8317V20.757C20.8317 21.157 21.0217 21.297 21.4017 21.297C21.4817 21.297 21.6217 21.297 21.6517 21.277V21.997C21.6017 22.007 21.4017 22.047 21.1917 22.047C20.3017 22.047 19.9617 21.717 19.9617 20.857V18.337H19.3317V17.657H19.9617V16.627ZM18.4917 20.527C18.3617 20.937 18.0817 21.517 17.6817 21.857C17.5617 21.947 17.4017 22.047 17.1917 22.047C16.9917 22.047 16.8617 21.947 16.6917 21.907C16.5717 21.877 16.4217 21.797 16.2417 21.797C15.8117 21.797 15.6317 22.047 15.2717 22.047C15.0317 22.047 14.8317 21.907 14.5817 21.607C14.0717 21.057 13.7617 20.177 13.7617 19.427C13.7617 18.977 13.8717 18.527 14.1417 18.167C14.3917 17.847 14.7817 17.667 15.2317 17.667C15.6717 17.667 15.9117 17.927 16.1417 17.927C16.3917 17.927 16.7017 17.657 17.2417 17.657C17.6917 17.657 18.0917 17.847 18.3417 18.227C18.0217 18.417 17.8817 18.657 17.8117 18.857C17.7117 19.147 17.6817 19.477 17.8117 19.827C17.9317 20.147 18.1617 20.367 18.4917 20.527ZM24.6317 21.997H23.6817L22.0917 17.657H23.0417L24.1617 21.157L25.2317 17.657H26.1917Z" />
        </svg>
    