
        <svg xmlns="http://www.w3.org/2000/svg" viewBox="0 0 100 100">
            <path d="M12.5423 19.4041C19.5823 19.4041 25.0923 16.2041 25.0923 12.2241V5.8341C25.0923 5.8141 25.0923 5.7841 25.0923 5.7641C25.0923 2.4941 19.5323 0.0041 12.5423 0.0041C5.5423 0.0041 0.0023 2.4941 0.0023 5.7641C0.0023 5.7841 0.0023 5.8141 0.0023 5.8341V12.2241C0.0023 16.2041 5.4923 19.4041 12.5423 19.4041ZM12.5423 9.2041C6.7923 9.2041 2.4623 7.6541 2.4623 5.7641C2.4623 3.9341 6.7923 2.4741 12.5423 2.4741C18.2823 2.4741 22.6123 3.9341 22.6123 5.7641C22.6123 7.6541 18.2723 9.2041 12.5423 9.2041ZM12.5423 11.6841C16.6923 11.6841 20.3323 10.7841 22.6123 9.3441V12.2241C22.6123 14.8241 18.8423 16.9241 12.5423 16.9241C6.2323 16.9241 2.4623 14.8241 2.4623 12.2241V9.3441C4.7323 10.7841 8.3823 11.6841 12.5423 11.6841Z" />
        </svg>
    