
        <svg xmlns="http://www.w3.org/2000/svg" viewBox="0 0 100 100">
            <path d="M12.0323 18.4219C18.8423 18.4219 24.0923 15.3719 24.0923 11.6319V5.4819C24.0923 5.4519 24.0923 5.4119 24.0923 5.3819C24.0923 2.3819 18.7923 0.0019 12.0323 0.0019C5.2823 0.0019 0.0023 2.3819 0.0023 5.3819C0.0023 5.4119 0.0023 5.4619 0.0023 5.4819V11.6319C0.0023 15.3719 5.2423 18.4219 12.0323 18.4219ZM12.0323 9.0319C6.3123 9.0319 1.8723 7.4319 1.8723 5.3819C1.8723 3.4119 6.3123 1.8819 12.0323 1.8819C17.7623 1.8819 22.2023 3.4119 22.2023 5.3819C22.2023 7.4319 17.7623 9.0319 12.0323 9.0319ZM12.0323 10.9219C16.3623 10.9219 20.0823 9.9219 22.2023 8.3919V11.6319C22.2023 14.3419 18.3023 16.5319 12.0323 16.5319C5.7823 16.5319 1.8723 14.3419 1.8723 11.6319V8.3919C3.9923 9.9219 7.7123 10.9219 12.0323 10.9219Z" />
        </svg>
    