
        <svg xmlns="http://www.w3.org/2000/svg" viewBox="0 0 100 100">
            <path d="M13.2323 20.7972C20.6123 20.7972 26.4823 17.4072 26.4823 13.0472V6.3372C26.4823 6.3272 26.4823 6.3172 26.4823 6.3072C26.4823 2.6572 20.5623 -0.0028 13.2323 -0.0028C5.8923 -0.0028 0.0023 2.6572 0.0023 6.3072V6.3372V13.0472C0.0023 17.4072 5.8623 20.7972 13.2323 20.7972ZM13.2323 9.4372C7.4623 9.4372 3.2923 7.9772 3.2923 6.3072C3.2923 4.6872 7.4523 3.3172 13.2323 3.3172C19.0123 3.3172 23.1823 4.6872 23.1823 6.3072C23.1823 7.9772 18.9923 9.4372 13.2323 9.4372ZM13.2323 12.7472C17.2023 12.7472 20.7523 11.9672 23.1823 10.6372V13.0472C23.1823 15.5072 19.5923 17.4872 13.2323 17.4872C6.8623 17.4872 3.2923 15.5072 3.2923 13.0472V10.6372C5.7223 11.9672 9.2723 12.7472 13.2323 12.7472Z" />
        </svg>
    