
        <svg xmlns="http://www.w3.org/2000/svg" viewBox="0 0 100 100">
            <path d="M10.9317 2.7652C13.8917 2.7652 16.0217 2.2152 16.0217 1.3752C16.0217 0.5352 13.9017 -0.0048 10.9317 -0.0048C8.0117 -0.0048 5.8917 0.5352 5.8917 1.3752C5.8917 2.2152 8.0317 2.7652 10.9317 2.7652ZM0.0017 9.7952C0.0017 12.9652 1.3217 15.9452 3.5817 18.0252C4.4317 18.8052 5.3017 19.3152 6.5117 19.6252C6.0917 18.2852 5.8817 16.8652 5.8817 15.4252C5.8817 12.0952 7.0417 8.9752 9.1217 6.5652C9.9517 5.6152 10.7817 4.8652 11.6717 4.2652C11.4417 4.2852 11.2017 4.3052 10.9217 4.3052C7.6717 4.3052 5.7917 3.6752 4.1917 2.5352C3.6017 2.1352 3.0317 2.1552 2.5217 2.8152C0.8517 4.8352 0.0017 7.2652 0.0017 9.7952ZM19.7117 7.6752C22.9817 7.6752 25.3117 7.0652 25.3117 6.1552C25.3117 5.2352 22.9817 4.6452 19.7117 4.6452C16.4717 4.6452 14.1417 5.2352 14.1417 6.1552C14.1417 7.0652 16.4717 7.6752 19.7117 7.6752ZM19.7117 26.7152C24.0817 26.7152 26.0017 26.1552 27.8117 24.4852C30.2917 22.1952 31.7417 18.9052 31.7417 15.4252C31.7417 12.6652 30.8417 9.9852 28.9717 7.7452C28.4217 7.0152 27.8017 6.9952 27.1417 7.4252C25.3717 8.7052 23.2017 9.3552 19.7117 9.3552C16.2217 9.3552 14.0517 8.7052 12.2817 7.4252C11.6217 6.9952 11.0017 7.0152 10.4517 7.7452C8.5917 9.9852 7.6717 12.6652 7.6717 15.4252C7.6717 18.9052 9.1317 22.1952 11.6117 24.4852C13.4217 26.1552 15.3417 26.7152 19.7117 26.7152Z" />
        </svg>
    