
        <svg xmlns="http://www.w3.org/2000/svg" viewBox="0 0 100 100">
            <path d="M11.5817 2.8375C14.5617 2.8375 16.7617 2.3275 16.7617 1.4175C16.7617 0.4875 14.5817 -0.0025 11.5817 -0.0025C8.6717 -0.0025 6.4917 0.4875 6.4917 1.4175C6.4917 2.3275 8.6817 2.8375 11.5817 2.8375ZM0.0017 10.4675C0.0017 13.8075 1.3817 16.9775 3.8017 19.1675C4.5617 19.8875 5.3517 20.3875 6.3717 20.7275C5.9717 19.2975 5.8217 17.9775 5.8617 16.4375C5.6117 16.2875 5.4017 16.1175 5.2017 15.8975C3.9417 14.3975 3.2317 12.4875 3.2317 10.4675C3.2317 9.1275 3.5417 7.8375 4.4217 6.3675C5.6117 6.9775 7.0917 7.3475 8.8017 7.5275C9.6017 6.4175 10.8317 5.1775 11.8917 4.4575C11.7917 4.4575 11.6817 4.4675 11.5517 4.4675C8.8317 4.4675 6.6217 3.9575 4.9217 2.8275C4.0417 2.2875 3.1617 2.2975 2.4817 3.2075C0.8417 5.3175 0.0017 7.8875 0.0017 10.4675ZM20.5817 8.0975C23.8617 8.0975 26.2717 7.5475 26.2717 6.5475C26.2717 5.5275 23.8717 4.9875 20.5817 4.9875C17.3717 4.9875 14.9617 5.5275 14.9617 6.5475C14.9617 7.5475 17.3817 8.0975 20.5817 8.0975ZM20.5817 28.4875C25.1017 28.4875 27.2017 27.8875 29.1417 26.0775C31.7917 23.6575 33.3317 20.1575 33.3317 16.4975C33.3317 13.6775 32.4017 10.8475 30.5817 8.5175C29.8517 7.5075 28.8717 7.4975 27.9117 8.0975C26.1817 9.2475 23.8117 9.8875 20.5817 9.8875C17.3417 9.8875 14.9717 9.2475 13.2417 8.0975C12.2817 7.4975 11.3217 7.5075 10.5717 8.5175C8.7517 10.8475 7.8417 13.6775 7.8417 16.4975C7.8417 20.1575 9.3617 23.6575 12.0117 26.0775C13.9617 27.8875 16.0517 28.4875 20.5817 28.4875ZM20.5817 24.9175C16.9317 24.9175 15.6417 24.5975 14.4217 23.4575C12.4817 21.6675 11.4017 19.1675 11.4017 16.4975C11.4017 15.0575 11.6917 13.6875 12.6417 11.9875C14.7417 12.9775 17.4617 13.4575 20.5817 13.4575C23.6917 13.4575 26.4117 12.9775 28.5117 11.9875C29.4617 13.6875 29.7617 15.0575 29.7617 16.4975C29.7617 19.1675 28.6717 21.6675 26.7317 23.4575C25.5117 24.5975 24.2217 24.9175 20.5817 24.9175Z" />
        </svg>
    