
        <svg xmlns="http://www.w3.org/2000/svg" viewBox="0 0 100 100">
            <path d="M8.9617 3.3942C11.9617 3.3942 14.6617 2.7542 14.6617 1.6942C14.6617 0.6442 11.9617 0.0042 8.9617 0.0042C5.9517 0.0042 3.2717 0.6442 3.2717 1.6942C3.2717 2.7542 5.9517 3.3942 8.9617 3.3942ZM0.0017 16.0242C0.0017 21.4842 3.3317 23.0742 9.2617 23.0742C9.0817 22.7942 8.9317 22.5142 8.7817 22.2042C3.2217 22.1642 0.8717 20.2242 0.8717 15.8542V7.1242C0.8717 5.7542 1.1917 4.5842 2.0717 3.5142C3.2217 4.8042 5.6717 5.3242 8.9617 5.3242C12.2617 5.3242 14.7117 4.8042 15.8517 3.5142C16.5917 4.3742 17.0417 5.4342 17.0417 6.5042V6.5142C17.3317 6.4842 17.6017 6.4542 17.9017 6.4542C17.7617 4.4542 16.9317 3.2542 16.3217 2.6342C16.0517 2.3942 15.7217 2.4142 15.4917 2.7042C14.5517 3.9042 12.1017 4.4442 8.9617 4.4442C5.8217 4.4442 3.3717 3.9042 2.4417 2.7042C2.2017 2.4142 1.8617 2.3942 1.6017 2.6342C0.9217 3.3142 0.0017 4.7142 0.0017 7.1042ZM18.7217 10.5142C21.8717 10.5142 23.8517 9.9342 23.8517 9.0042C23.8517 8.0542 21.8717 7.4742 18.7217 7.4742C15.5717 7.4742 13.5917 8.0542 13.5917 9.0042C13.5917 9.9342 15.5717 10.5142 18.7217 10.5142ZM18.7217 26.2542C22.9617 26.2542 24.3517 25.6442 25.7017 24.3942C27.7817 22.4742 29.1017 19.6542 29.1017 16.5742C29.1017 13.6142 27.9417 11.1342 25.7717 9.4442C25.4617 9.1642 25.0417 9.1942 24.8517 9.4842C24.3017 10.6842 22.5317 11.4942 18.7217 11.4942C14.9017 11.4942 13.1417 10.6842 12.5817 9.4842C12.4017 9.1942 11.9717 9.1642 11.6817 9.4442C9.5017 11.1342 8.3517 13.6042 8.3517 16.5742C8.3517 19.6542 9.6517 22.4742 11.7417 24.3942C13.0917 25.6442 14.4917 26.2542 18.7217 26.2542ZM18.7217 25.3742C15.1217 25.3742 13.7017 24.9942 12.3517 23.7442C10.3717 21.9242 9.2617 19.3342 9.2617 16.5742C9.2617 14.2742 9.9917 12.0842 12.0017 10.3342C12.8017 11.5942 14.9017 12.3942 18.7217 12.3942C22.5317 12.3942 24.6417 11.6042 25.4417 10.3342C27.4417 12.0842 28.2117 14.2742 28.2117 16.5742C28.2117 19.3342 27.0717 21.9242 25.0917 23.7442C23.7417 24.9942 22.3217 25.3742 18.7217 25.3742Z" />
        </svg>
    