
        <svg xmlns="http://www.w3.org/2000/svg" viewBox="0 0 100 100">
            <path d="M8.3717 2.8778C11.1017 2.8778 13.3917 2.2978 13.3917 1.4378C13.3917 0.5878 11.1017 -0.0022 8.3717 -0.0022C5.6517 -0.0022 3.3517 0.5878 3.3517 1.4378C3.3517 2.2978 5.6517 2.8778 8.3717 2.8778ZM0.0017 14.7778C0.0017 19.1478 2.3117 21.1878 7.3917 21.4078C7.3217 20.9778 7.2817 20.5278 7.2617 20.0578C3.0717 19.8278 1.3317 18.1178 1.3317 14.6278V6.7778C1.3317 5.7178 1.5517 4.7678 2.1117 3.9278C3.3617 5.0978 6.1517 5.4978 8.8917 5.4278C9.2617 4.8678 9.6817 4.2978 9.9717 4.0278C9.6717 4.0578 9.0317 4.0978 8.3817 4.0978C5.6417 4.0978 3.1617 3.4678 2.2217 2.4878C1.9617 2.2178 1.5817 2.2278 1.3317 2.5078C0.6417 3.3178 0.0017 4.6278 0.0017 6.7078ZM17.8517 6.5578C20.8517 6.5578 23.3817 5.9078 23.3817 4.9678C23.3817 4.0278 20.8517 3.3878 17.8517 3.3878C14.8317 3.3878 12.3017 4.0278 12.3017 4.9678C12.3017 5.9078 14.8317 6.5578 17.8517 6.5578ZM17.8517 27.0278C24.2117 27.0278 27.0717 24.8078 27.0717 19.6978V10.7778C27.0717 8.4978 26.3717 7.0578 25.6017 6.1678C25.3317 5.8478 24.9417 5.8478 24.6317 6.1278C23.5917 7.2078 20.8717 7.9178 17.8517 7.9178C14.8217 7.9178 12.0917 7.2078 11.0517 6.1278C10.7417 5.8478 10.3517 5.8478 10.0817 6.1678C9.3117 7.0578 8.6117 8.4978 8.6117 10.7778V19.6978C8.6117 24.8078 11.4817 27.0278 17.8517 27.0278ZM17.8517 25.5678C12.3017 25.5678 10.0617 23.7078 10.0617 19.5278V10.8478C10.0617 9.6778 10.3017 8.6278 10.9317 7.6978C12.2117 8.8678 14.7817 9.3778 17.8517 9.3778C20.9217 9.3778 23.4717 8.8678 24.7517 7.6978C25.3817 8.6278 25.6217 9.6778 25.6217 10.8478V19.5278C25.6217 23.7078 23.3817 25.5678 17.8517 25.5678Z" />
        </svg>
    