
        <svg xmlns="http://www.w3.org/2000/svg" viewBox="0 0 100 100">
            <path d="M11.5417 2.9841C14.8017 2.9841 17.0717 2.3341 17.0717 1.4841C17.0717 0.6341 14.8017 0.0041 11.5417 0.0041C8.2717 0.0041 6.0017 0.6341 6.0017 1.4841C6.0017 2.3341 8.2717 2.9841 11.5417 2.9841ZM11.5417 21.0741C15.8017 21.0741 17.5917 20.5341 19.2917 18.9541C21.6817 16.7741 23.0717 13.6141 23.0717 10.2641C23.0717 7.5541 22.1717 4.9841 20.3117 2.8641C19.8717 2.3241 19.4317 2.2741 18.9617 2.6141C17.2217 3.9241 15.2217 4.5841 11.5417 4.5841C7.8517 4.5841 5.8517 3.9241 4.1217 2.6141C3.6517 2.2741 3.2017 2.3241 2.7617 2.8641C0.9117 4.9841 0.0017 7.5541 0.0017 10.2641C0.0017 13.6141 1.3917 16.7741 3.7817 18.9541C5.4817 20.5341 7.2817 21.0741 11.5417 21.0741Z" />
        </svg>
    