
        <svg xmlns="http://www.w3.org/2000/svg" viewBox="0 0 100 100">
            <path d="M13.1117 3.1513C16.4017 3.1513 18.8717 2.6213 18.8717 1.5712C18.8717 0.5012 16.4217 0.0012 13.1117 0.0012C9.9117 0.0012 7.4717 0.5012 7.4717 1.5712C7.4717 2.6213 9.9217 3.1513 13.1117 3.1513ZM13.1117 24.2413C17.7217 24.2413 19.9117 23.6213 21.9417 21.7513C24.6517 19.2613 26.2217 15.6513 26.2217 11.8913C26.2217 9.0213 25.3117 6.1313 23.4417 3.6313C22.6017 2.5113 21.6117 2.5212 20.5817 3.1713C18.7117 4.3813 16.2217 5.0013 13.1117 5.0013C10.0117 5.0013 7.5117 4.3813 5.6517 3.1713C4.6217 2.5212 3.6317 2.5113 2.8017 3.6313C0.9117 6.1313 0.0017 9.0213 0.0017 11.8913C0.0017 15.6513 1.5717 19.2613 4.2917 21.7513C6.3117 23.6213 8.5117 24.2413 13.1117 24.2413Z" />
        </svg>
    