
        <svg xmlns="http://www.w3.org/2000/svg" viewBox="0 0 100 100">
            <path d="M14.503 3.4259C18.153 3.4259 20.283 2.7859 20.283 1.7059C20.283 0.6359 18.153 -0.0041 14.503 -0.0041C10.873 -0.0041 8.733 0.6359 8.733 1.7059C8.733 2.7859 10.873 3.4259 14.503 3.4259ZM14.503 20.3459C19.233 20.3459 20.663 19.6559 22.063 18.3659C24.313 16.2759 25.733 13.2559 25.733 9.8759C25.733 6.7359 24.563 3.8659 21.813 1.9259C21.553 1.7359 21.213 1.8159 21.163 2.0759C20.813 3.4759 18.313 4.2959 14.503 4.2959C10.713 4.2959 8.213 3.4759 7.863 2.0759C7.813 1.8159 7.473 1.7359 7.223 1.9259C4.603 3.7459 3.423 6.4259 3.283 9.7059H3.853C3.973 6.8359 4.953 4.4259 7.393 2.5659C7.943 4.0159 10.563 4.8759 14.503 4.8759C18.453 4.8759 21.073 4.0159 21.633 2.5659C24.233 4.5559 25.163 7.1559 25.163 9.8759C25.163 12.9759 23.903 15.8859 21.683 17.9459C20.143 19.3459 18.543 19.7659 14.503 19.7659C10.493 19.7659 8.883 19.3459 7.343 17.9459C5.953 16.6559 4.943 15.0359 4.373 13.2559H3.773C4.383 15.2359 5.493 17.0159 6.963 18.3659C8.363 19.6559 9.793 20.3459 14.503 20.3459ZM0.293 11.7759L11.223 11.7559H12.073L11.213 12.6059L8.533 15.2859C8.473 15.3359 8.423 15.4259 8.423 15.4959C8.423 15.6259 8.563 15.7459 8.703 15.7459C8.773 15.7459 8.833 15.7259 8.893 15.6659L12.903 11.6859C12.953 11.6259 12.983 11.5559 12.983 11.4759C12.983 11.4059 12.953 11.3359 12.903 11.2759L8.893 7.2759C8.833 7.2159 8.773 7.1859 8.703 7.1859C8.563 7.1859 8.423 7.2959 8.423 7.4459C8.423 7.5259 8.473 7.6059 8.533 7.6659L11.213 10.3359L12.083 11.2059H0.293C0.133 11.2059 0.003 11.3359 0.003 11.4959C0.003 11.6459 0.133 11.7759 0.293 11.7759Z" />
        </svg>
    