
        <svg xmlns="http://www.w3.org/2000/svg" viewBox="0 0 100 100">
            <path d="M16.6306 3.1045C13.4206 3.1045 11.0006 2.5545 11.0006 1.5445C11.0006 0.5345 13.4206 0.0045 16.6306 0.0045C19.9206 0.0045 22.3206 0.5345 22.3206 1.5445C22.3206 2.5545 19.9106 3.1045 16.6306 3.1045ZM16.6306 23.4945C12.1006 23.4945 10.0106 22.8945 8.0506 21.0845C6.2906 19.4745 5.0306 17.3945 4.3806 15.0945H11.7206L12.9006 15.0045L12.3706 15.3945L11.6706 16.0745C11.4506 16.3045 11.2806 16.6645 11.2806 17.0045C11.2806 17.7445 11.8206 18.2845 12.5606 18.2845C12.9406 18.2845 13.2306 18.1545 13.4606 17.9145L16.3706 14.9845C16.7706 14.5745 16.9606 14.1645 16.9606 13.7145C16.9606 13.2645 16.7706 12.8445 16.3706 12.4345L13.4606 9.5045C13.2306 9.2645 12.9406 9.1445 12.5606 9.1445C11.8206 9.1445 11.2806 9.6845 11.2806 10.4145C11.2806 10.7545 11.4406 11.1045 11.6706 11.3545L12.3706 12.0345L12.9006 12.4345L11.7206 12.3245H3.9106C3.8906 12.0545 3.8806 11.7745 3.8806 11.5045C3.8806 8.6845 4.8006 5.8545 6.6706 3.4445C7.4106 2.4645 8.2706 2.4645 9.1806 3.0445C11.0006 4.2745 13.3806 4.8945 16.6306 4.8945C19.8606 4.8945 22.2406 4.2745 24.0806 3.0445C24.9806 2.4645 25.8406 2.4645 26.5806 3.4445C28.4506 5.8545 29.3706 8.6845 29.3706 11.5045C29.3706 15.1645 27.8406 18.6645 25.1906 21.0845C23.2506 22.8945 21.1506 23.4945 16.6306 23.4945ZM1.3506 15.0945C0.6106 15.0945 0.0006 14.4845 0.0006 13.7145C0.0006 12.9345 0.6106 12.3245 1.3506 12.3245H3.9106C3.9706 13.2745 4.1206 14.2045 4.3806 15.0945Z" />
        </svg>
    