
        <svg xmlns="http://www.w3.org/2000/svg" viewBox="0 0 100 100">
            <path d="M0.7217 15.3666C1.1217 15.3666 1.4517 15.0366 1.4517 14.6366V14.0966H3.3517C2.9317 14.6466 2.6817 15.3366 2.6817 16.0766C2.6817 17.8766 4.1417 19.3366 5.9317 19.3366H12.5717C14.3517 19.3366 15.8317 17.8766 15.8317 16.0766C15.8317 15.5966 15.7217 15.1566 15.5417 14.7466C18.6917 15.6466 21.3017 17.6166 24.4017 20.5566C25.7717 21.9866 27.9717 21.3666 27.9717 19.2166V2.0966C27.9717 -0.0434 25.7717 -0.6534 24.4017 0.7766C19.9817 5.0666 16.0417 7.2366 11.2217 7.2366H1.4517V6.6666C1.4517 6.2666 1.1217 5.9466 0.7217 5.9466C0.3317 5.9466 0.0017 6.2666 0.0017 6.6666V14.6366C0.0017 15.0366 0.3317 15.3666 0.7217 15.3666ZM4.1217 16.0766C4.1217 15.0966 4.9417 14.2766 5.9317 14.2766H12.5717C13.5617 14.2766 14.3817 15.0966 14.3817 16.0766C14.3817 17.0666 13.5617 17.8766 12.5717 17.8766H5.9317C4.9417 17.8766 4.1217 17.0666 4.1217 16.0766Z" />
        </svg>
    