
        <svg xmlns="http://www.w3.org/2000/svg" viewBox="0 0 100 100">
            <path d="M0.4317 14.4596C0.6817 14.4596 0.8717 14.2596 0.8717 14.0196V13.3396H2.8317C2.2617 13.8896 1.9017 14.6796 1.9017 15.5196C1.9017 17.1596 3.2317 18.5096 4.8717 18.5096H11.5217C13.1617 18.5096 14.5217 17.1596 14.5217 15.5196C14.5217 14.7896 14.2217 14.0896 13.7717 13.5696C14.0517 13.6096 14.3317 13.6696 14.6117 13.7296C18.2317 14.5496 20.6417 16.7396 24.3717 20.0596C25.3617 20.9996 27.0217 20.7996 27.0217 19.0696V1.5296C27.0217 -0.1804 25.3617 -0.3804 24.3717 0.5496C19.5517 4.8696 16.7217 7.2596 11.1017 7.2596H0.8717V6.5796C0.8717 6.3396 0.6817 6.1496 0.4317 6.1496C0.2017 6.1496 0.0017 6.3396 0.0017 6.5796V14.0196C0.0017 14.2596 0.2017 14.4596 0.4317 14.4596ZM24.8917 19.3596C19.9217 14.9296 16.9117 12.4796 11.1017 12.4796H0.8717V8.1396H11.1017C16.9117 8.1396 19.9217 5.6896 24.8917 1.2496C25.5217 0.6996 26.1517 0.6996 26.1517 1.5296V19.0696C26.1517 19.9196 25.5217 19.9196 24.8917 19.3596ZM2.7617 15.5196C2.7617 14.3796 3.7117 13.3996 4.8717 13.3996H11.5217C12.6817 13.3996 13.6417 14.3796 13.6417 15.5196C13.6417 16.6796 12.6817 17.6396 11.5217 17.6396H4.8717C3.7117 17.6396 2.7617 16.6796 2.7617 15.5196Z" />
        </svg>
    