
        <svg xmlns="http://www.w3.org/2000/svg" viewBox="0 0 100 100">
            <path d="M0.9417 16.0545C1.4617 16.0545 1.8917 15.6245 1.8917 15.1045V14.6745H3.8017C3.4717 15.1945 3.2717 15.8245 3.2717 16.5045C3.2717 18.3945 4.8317 19.9445 6.7217 19.9445H13.3717C15.2717 19.9445 16.8317 18.3945 16.8317 16.5045C16.8317 16.2145 16.7917 15.9445 16.7217 15.6945C19.4017 16.6745 21.9617 18.4145 24.4117 20.9345C26.0717 22.7245 28.6917 21.8045 28.6917 19.3345V2.5345C28.6917 0.0545 26.0717 -0.8555 24.4117 0.9345C20.3017 5.2045 15.5117 7.1945 11.3317 7.1945H1.8917V6.7345C1.8917 6.2245 1.4617 5.8045 0.9417 5.8045C0.4217 5.8045 0.0017 6.2245 0.0017 6.7345V15.1045C0.0017 15.6245 0.4217 16.0545 0.9417 16.0545ZM25.7017 19.5445C21.2417 14.9645 15.9917 12.7845 11.3317 12.7845H1.8917V9.0845H11.3317C15.9917 9.0845 21.2417 6.9045 25.7017 2.3045C26.3217 1.6745 26.8017 1.8045 26.8017 2.5345V19.3345C26.8017 20.0645 26.3217 20.1845 25.7017 19.5445ZM5.1517 16.5045C5.1517 15.6445 5.8717 14.9345 6.7217 14.9345H13.3717C14.2217 14.9345 14.9417 15.6445 14.9417 16.5045C14.9417 17.3545 14.2217 18.0445 13.3717 18.0445H6.7217C5.8717 18.0445 5.1517 17.3545 5.1517 16.5045Z" />
        </svg>
    