
        <svg xmlns="http://www.w3.org/2000/svg" viewBox="0 0 100 100">
            <path d="M2.4917 22.7381H12.3417C13.8717 22.7381 14.8317 21.7981 14.8317 20.2181V20.0281C14.8317 16.9181 11.6817 13.8481 10.4717 12.6481C9.7017 11.8681 9.6917 10.8481 10.4717 10.0581C11.6817 8.8481 14.8317 5.7881 14.8317 2.6681V2.5081C14.8317 0.9381 13.8717 -0.0019 12.3417 -0.0019H2.4917C0.9517 -0.0019 0.0017 0.9381 0.0017 2.5081V2.6681C0.0017 5.7881 3.1517 8.8481 4.3617 10.0581C5.1317 10.8281 5.1417 11.8581 4.3617 12.6481C3.1517 13.8481 0.0017 16.9181 0.0017 20.0281V20.2181C0.0017 21.7981 0.9517 22.7381 2.4917 22.7381ZM3.7717 20.1481C3.1417 20.1481 2.9017 19.4181 3.3517 18.9681L6.6017 15.7181C7.1217 15.1681 7.7117 15.1681 8.2417 15.7181L11.4817 18.9681C11.9317 19.4181 11.6917 20.1481 11.0617 20.1481Z" />
        </svg>
    