
        <svg xmlns="http://www.w3.org/2000/svg" viewBox="0 0 100 100">
            <path d="M2.4917 22.7381H9.1017V20.1481H3.7717C3.1417 20.1481 2.9017 19.4181 3.3517 18.9681L6.3717 15.9281C6.7217 15.5781 6.7817 15.5281 6.7817 14.9281V10.6381C6.7817 9.9381 6.6117 9.5081 6.1017 9.0381C5.4917 8.4681 4.5817 7.6181 3.9917 6.9581C3.5817 6.5181 3.7517 5.9081 4.3917 5.9081H10.4417C11.0817 5.9081 11.2517 6.5181 10.8417 6.9581C10.2517 7.6181 9.3417 8.4681 8.7317 9.0381C8.2217 9.5081 8.0517 9.9381 8.0517 10.6381V14.9281C8.0517 15.5281 8.1117 15.5781 8.4617 15.9281L9.9817 17.4681C10.1017 15.9681 10.7117 14.7181 11.6617 13.8681C11.1917 13.3581 10.7817 12.9481 10.4717 12.6481C9.6917 11.8581 9.7017 10.8281 10.4717 10.0581C11.6817 8.8481 14.8317 5.7881 14.8317 2.6681V2.5081C14.8317 0.9381 13.8717 -0.0019 12.3417 -0.0019H2.4917C0.9517 -0.0019 0.0017 0.9381 0.0017 2.5081V2.6681C0.0017 5.7881 3.1517 8.8481 4.3617 10.0581C5.1317 10.8281 5.1417 11.8581 4.3617 12.6481C3.1517 13.8481 0.0017 16.9181 0.0017 20.0281V20.2181C0.0017 21.7981 0.9517 22.7381 2.4917 22.7381ZM12.1317 26.5181H17.9917C18.9717 26.5181 19.4917 26.0181 19.4917 24.9281V20.3181C19.4917 19.3981 19.1117 18.8781 18.3617 18.7581V17.3581C18.3617 15.3281 17.0317 13.9481 15.0517 13.9481C13.0817 13.9481 11.7317 15.3281 11.7317 17.3581V18.7581C10.9917 18.8881 10.6217 19.3981 10.6217 20.3181V24.9281C10.6217 26.0181 11.1317 26.5181 12.1317 26.5181ZM13.5017 17.2981C13.5017 16.3381 14.1217 15.6781 15.0517 15.6781C15.9717 15.6781 16.6017 16.3381 16.6017 17.2981V18.7281H13.5017Z" />
        </svg>
    