
        <svg xmlns="http://www.w3.org/2000/svg" viewBox="0 0 100 100">
            <path d="M1.3717 20.3763H11.6417C12.4417 20.3763 12.9917 19.8263 12.9917 19.0163V18.5863C12.9917 16.1463 10.0417 12.8163 7.8917 10.6863C7.5617 10.3463 7.5617 10.0063 7.8917 9.6663C10.0417 7.5363 12.9917 4.2163 12.9917 1.7763V1.3663C12.9917 0.5463 12.4417 -0.0038 11.6417 -0.0038H1.3717C0.5517 -0.0038 0.0017 0.5463 0.0017 1.3663V1.7763C0.0017 4.2163 2.9617 7.5363 5.1117 9.6663C5.4517 10.0063 5.4517 10.3563 5.1117 10.6863C2.9617 12.8163 0.0017 16.1463 0.0017 18.5863V19.0163C0.0017 19.8263 0.5517 20.3763 1.3717 20.3763ZM1.9917 19.4963C1.7217 19.4963 1.5717 19.1963 1.8317 18.9363L6.1717 14.4963C6.4117 14.2363 6.5817 14.2363 6.8217 14.4963L11.1717 18.9363C11.4217 19.1963 11.2717 19.4963 11.0117 19.4963Z" />
        </svg>
    