
        <svg xmlns="http://www.w3.org/2000/svg" viewBox="0 0 100 100">
            <path d="M12.2223 24.4436C18.9723 24.4436 24.4423 18.9736 24.4423 12.2236C24.4423 5.4736 18.9723 0.0036 12.2223 0.0036C5.4723 0.0036 0.0023 5.4736 0.0023 12.2236C0.0023 18.9736 5.4723 24.4436 12.2223 24.4436ZM12.2223 21.7636C6.9523 21.7636 2.6823 17.4936 2.6823 12.2236C2.6823 6.9536 6.9523 2.6836 12.2223 2.6836C17.4923 2.6836 21.7623 6.9536 21.7623 12.2236C21.7623 17.4936 17.4923 21.7636 12.2223 21.7636ZM9.2223 18.8836H15.2223C16.0223 18.8836 16.5023 18.4136 16.5023 17.5936V17.4536C16.5023 15.6836 14.6623 13.8436 13.7623 12.9536C13.2823 12.4536 13.3023 11.9336 13.7623 11.4836C14.6623 10.5836 16.5023 8.7636 16.5023 6.9736V6.8536C16.5023 6.0336 16.0223 5.5636 15.2223 5.5636H9.2223C8.4223 5.5636 7.9423 6.0336 7.9423 6.8536V6.9736C7.9423 8.7636 9.7823 10.5836 10.6923 11.4836C11.1423 11.9336 11.1823 12.4536 10.6923 12.9536C9.7823 13.8436 7.9423 15.6836 7.9423 17.4536V17.5936C7.9423 18.4136 8.4223 18.8836 9.2223 18.8836ZM9.8523 17.6936C9.5123 17.6936 9.4323 17.3036 9.6523 17.0836L11.6623 15.0336C11.7823 14.9036 11.8223 14.8736 11.8223 14.6836V11.7436C11.8223 11.3836 11.7423 11.1936 11.4823 10.9436C11.0423 10.5136 10.5223 10.0036 10.1123 9.5636C9.9023 9.3436 10.0123 9.0736 10.2923 9.0736H14.1523C14.4423 9.0736 14.5423 9.3436 14.3323 9.5636C13.9223 10.0036 13.4023 10.5136 12.9623 10.9436C12.7123 11.1936 12.6323 11.3836 12.6323 11.7436V14.6836C12.6323 14.8736 12.6723 14.9036 12.7823 15.0336L14.7923 17.0836C15.0223 17.3036 14.9323 17.6936 14.5923 17.6936Z" />
        </svg>
    