
        <svg xmlns="http://www.w3.org/2000/svg" viewBox="0 0 100 100">
            <path d="M2.6817 23.1056H9.4717V20.2156H4.0617C3.4017 20.2156 3.1317 19.4256 3.6017 18.9456L6.4117 16.0656C6.8217 15.6456 6.8817 15.5956 6.8817 14.8856V10.8756C6.8817 10.1156 6.6817 9.6256 6.1417 9.1156C5.5917 8.6056 4.7317 7.7656 4.1817 7.1456C3.7517 6.6556 3.9117 5.9656 4.6417 5.9656H10.5217C11.2617 5.9656 11.4217 6.6556 10.9917 7.1456C10.4417 7.7656 9.5817 8.6056 9.0217 9.1156C8.4917 9.6256 8.3017 10.1156 8.3017 10.8756V14.8856C8.3017 15.5956 8.3517 15.6456 8.7617 16.0656L10.3017 17.6456C10.4417 16.1356 11.0717 14.8856 12.0317 14.0256C11.5617 13.5356 11.1817 13.1456 10.9017 12.8656C10.1117 12.0856 10.1217 10.9956 10.9017 10.2056C11.9717 9.1256 15.1717 6.0556 15.1717 2.8456V2.6956C15.1717 1.0156 14.1417 -0.0044 12.4917 -0.0044H2.6817C1.0217 -0.0044 0.0017 1.0156 0.0017 2.6956V2.8456C0.0017 6.0556 3.2017 9.1256 4.2617 10.2056C5.0517 10.9956 5.0617 12.0856 4.2617 12.8656C3.2017 13.9456 0.0017 17.0356 0.0017 20.2256V20.4056C0.0017 22.0856 1.0217 23.1056 2.6817 23.1056ZM12.4717 26.8256H18.4817C19.4717 26.8256 19.9917 26.3156 19.9917 25.2256V20.4656C19.9917 19.5156 19.5917 19.0056 18.8417 18.8856V17.4356C18.8417 15.4256 17.4617 14.0356 15.4717 14.0356C13.4717 14.0356 12.0917 15.4256 12.0917 17.4356V18.8856C11.3317 19.0056 10.9417 19.5256 10.9417 20.4656V25.2256C10.9417 26.3156 11.4617 26.8256 12.4717 26.8256ZM14.0117 17.4156C14.0117 16.5356 14.6117 15.9156 15.4717 15.9156C16.3117 15.9156 16.9217 16.5356 16.9217 17.4156V18.8656H14.0117Z" />
        </svg>
    