
        <svg xmlns="http://www.w3.org/2000/svg" viewBox="0 0 100 100">
            <path d="M1.7317 21.163H11.7617C12.8217 21.163 13.4917 20.533 13.4917 19.423V19.113C13.4917 16.433 10.5117 13.313 8.7117 11.523C8.0517 10.873 8.1017 10.223 8.7117 9.613C10.5117 7.813 13.4917 4.723 13.4917 2.013V1.733C13.4917 0.633 12.8217 0.003 11.7617 0.003H1.7317C0.6717 0.003 0.0017 0.633 0.0017 1.733V2.013C0.0017 4.723 2.9917 7.813 4.7917 9.613C5.4017 10.223 5.4417 10.873 4.7917 11.523C2.9917 13.313 0.0017 16.433 0.0017 19.113V19.423C0.0017 20.533 0.6717 21.163 1.7317 21.163ZM2.5417 19.803C2.1117 19.803 1.9917 19.313 2.3017 19.023L6.1917 15.213C6.3417 15.073 6.3717 15.013 6.3717 14.813V9.863C6.3717 9.433 6.3017 9.233 5.9917 8.953C5.0817 8.163 3.9417 7.093 3.1617 6.223C2.9017 5.953 3.0317 5.653 3.3517 5.653H10.1417C10.4517 5.653 10.5917 5.953 10.3317 6.223C9.5617 7.093 8.4117 8.163 7.5017 8.953C7.1817 9.233 7.1117 9.433 7.1117 9.863V14.813C7.1117 15.013 7.1517 15.073 7.3017 15.213L11.1917 19.023C11.5117 19.313 11.3817 19.803 10.9617 19.803Z" />
        </svg>
    