
        <svg xmlns="http://www.w3.org/2000/svg" viewBox="0 0 100 100">
            <path d="M2.0517 21.8328H8.2117V20.0028H3.0317C2.5117 20.0028 2.3717 19.3828 2.7217 19.0428L6.2917 15.5928C6.4917 15.4228 6.5417 15.3628 6.5417 15.0828V10.1028C6.5417 9.5228 6.4217 9.2128 6.0017 8.8428C5.2517 8.1928 4.1917 7.2628 3.5017 6.5228C3.1717 6.1828 3.3417 5.7528 3.7717 5.7528H10.2317C10.6617 5.7528 10.8117 6.1828 10.4917 6.5228C9.8117 7.2628 8.7417 8.1928 7.9917 8.8428C7.5717 9.2128 7.4517 9.5228 7.4517 10.1028V15.0828C7.4517 15.3628 7.5117 15.4228 7.7017 15.5928L9.2117 17.0428C9.2817 15.5728 9.8217 14.3328 10.7317 13.4628C10.2517 12.9328 9.8217 12.4928 9.4317 12.1128C8.6417 11.3128 8.6817 10.4528 9.4317 9.7028C10.9717 8.1828 13.9917 5.1728 13.9917 2.2628V2.0728C13.9917 0.7428 13.2217 0.0028 11.9417 0.0028H2.0517C0.7817 0.0028 0.0017 0.7428 0.0017 2.0728V2.2628C0.0017 5.1728 3.0317 8.1828 4.5717 9.7028C5.3217 10.4528 5.3717 11.3128 4.5717 12.1128C3.0317 13.6328 0.0017 16.6528 0.0017 19.5428V19.7728C0.0017 21.1028 0.7817 21.8328 2.0517 21.8328ZM11.3117 25.8028H16.7417C17.7317 25.8028 18.2417 25.2728 18.2417 24.2128V20.0028C18.2417 19.1228 17.8917 18.6128 17.2017 18.4728V17.1828C17.2017 15.0928 15.9517 13.7528 14.0317 13.7528C12.0917 13.7528 10.8417 15.0928 10.8417 17.1828V18.4728C10.1517 18.6128 9.8017 19.1228 9.8017 20.0028V24.2128C9.8017 25.2728 10.3117 25.8028 11.3117 25.8028ZM12.2317 17.0128C12.2317 15.8828 12.9417 15.1328 14.0317 15.1328C15.1217 15.1328 15.8217 15.8828 15.8217 17.0128V18.4228H12.2317Z" />
        </svg>
    