
        <svg xmlns="http://www.w3.org/2000/svg" viewBox="0 0 100 100">
            <path d="M1.3266 27.4119H37.8066C38.5266 27.4119 39.1266 26.8119 39.1266 26.0819C39.1266 25.3619 38.5266 24.7619 37.8066 24.7619H34.2666V7.3519C34.3466 7.3319 34.4166 7.3319 34.5166 7.3319C36.0566 7.3319 37.2066 8.2219 38.9166 8.2219C39.7166 8.2219 40.0866 8.1419 40.5566 7.9419C41.1366 7.7119 41.3566 7.2819 41.3566 6.6519V1.5219C41.3566 1.0219 41.0466 0.6919 40.4866 0.6919C40.1166 0.6919 39.6666 0.9219 38.8866 0.9219C37.2166 0.9219 36.0266 0.0019 34.0666 0.0019C33.2666 0.0019 32.8966 0.0719 32.4366 0.2819C31.8966 0.5119 31.6166 0.9619 31.6166 1.5619V24.7619H26.2466C26.2766 24.5719 26.2866 24.3719 26.2866 24.1719V14.1319L26.9166 14.4619C29.4366 15.7819 30.9966 12.4719 28.7966 11.2719L16.8566 4.8419C15.5766 4.1519 14.4366 4.1519 13.1466 4.8419L1.2166 11.2719C-0.9834 12.4719 0.5766 15.7819 3.0866 14.4619L3.6566 14.1719V24.1719C3.6566 24.3719 3.6666 24.5719 3.6866 24.7619H1.3266C0.5966 24.7619 -0.0034 25.3619 -0.0034 26.0819C-0.0034 26.8119 0.5966 27.4119 1.3266 27.4119ZM18.5966 17.1819C18.5966 16.6019 18.2366 16.2419 17.6766 16.2419H12.3666C11.7966 16.2419 11.4266 16.6019 11.4266 17.1819V23.8119H8.2966C7.6266 23.8119 7.2566 23.4419 7.2566 22.7719V12.2819L14.7066 8.3819C14.8966 8.2719 15.1266 8.2719 15.3266 8.3819L22.6866 12.2419V22.7719C22.6866 23.4419 22.3166 23.8119 21.6466 23.8119H18.5966Z" />
        </svg>
    