
        <svg xmlns="http://www.w3.org/2000/svg" viewBox="0 0 100 100">
            <path d="M1.5317 13.7019C1.9717 13.7019 2.3917 13.4919 2.7417 13.1819L14.2217 3.5619C14.4217 3.3819 14.6517 3.2919 14.8717 3.2919C15.0817 3.2919 15.3017 3.3819 15.5117 3.5619L27.0017 13.1819C27.3517 13.4919 27.7717 13.7019 28.2117 13.7019C29.1417 13.7019 29.7417 13.0819 29.7417 12.2619C29.7417 11.8219 29.5217 11.3719 29.1317 11.0419L25.9317 8.3519V3.3119C25.9317 2.7819 25.5817 2.4219 25.0317 2.4219H22.8717C22.3317 2.4219 21.9717 2.7819 21.9717 3.3119V5.0319L16.9217 0.7819C16.2917 0.2619 15.5717 0.0019 14.8717 0.0019C14.1517 0.0019 13.4417 0.2619 12.8217 0.7819L0.6117 11.0419C0.2117 11.3719 0.0017 11.8219 0.0017 12.2619C0.0017 13.0819 0.6017 13.7019 1.5317 13.7019ZM4.0317 23.0319C4.0317 24.8119 5.2117 25.9219 7.0917 25.9219H22.6317C24.5017 25.9219 25.6917 24.8119 25.6917 23.0319V14.6719L15.6217 6.2119C15.1417 5.8119 14.5817 5.8219 14.1117 6.2119L4.0317 14.6619ZM11.6717 23.0419V16.5019C11.6717 15.9419 12.0517 15.5719 12.6117 15.5719H17.1417C17.7117 15.5719 18.0717 15.9419 18.0717 16.5019V23.0419Z" />
        </svg>
    