
        <svg xmlns="http://www.w3.org/2000/svg" viewBox="0 0 100 100">
            <path d="M10.6619 12.2563L23.4519 2.2362C23.5919 2.1163 23.7919 2.0362 23.9619 2.0362C24.1519 2.0362 24.3519 2.1163 24.5019 2.2362L37.2819 12.2563C38.4019 13.1463 39.5519 11.6563 38.6119 10.9363L25.4519 0.5862C24.9719 0.2063 24.4819 -0.0038 23.9619 -0.0038C23.4619 -0.0038 22.9719 0.2063 22.4919 0.5862L9.3319 10.9363C8.3919 11.6563 9.5419 13.1463 10.6619 12.2563ZM13.7919 20.4063H34.1519C35.7819 20.4063 36.7119 19.4963 36.7119 17.8962V13.7063C36.3719 13.5963 36.0519 13.4063 35.7219 13.1463L23.9619 3.9362L12.2119 13.1463C11.8919 13.4063 11.5519 13.5963 11.2219 13.7063V17.8962C11.2219 19.4963 12.1719 20.4063 13.7919 20.4063ZM8.3119 9.6063L13.8119 5.2863H9.2119C8.7119 5.2863 8.2719 5.4163 7.9019 5.6762L0.3619 10.9363C-0.3081 11.3863 -0.0281 12.5263 0.9719 12.5263H7.5119C7.1119 11.5863 7.2519 10.4462 8.3119 9.6063ZM39.6419 9.6063C40.6919 10.4462 40.8319 11.5863 40.4319 12.5263H46.9719C47.9619 12.5263 48.2419 11.3863 47.5919 10.9363L40.0319 5.6762C39.6719 5.4163 39.2219 5.2863 38.7319 5.2863H34.1219ZM20.9219 18.5763V13.3563C20.9219 12.8762 21.2619 12.5463 21.7219 12.5463H26.2219C26.7119 12.5463 27.0219 12.8762 27.0219 13.3563V18.5763ZM9.5619 17.8962V14.2063H2.2519V17.8962C2.2519 19.4963 3.1919 20.4063 4.8119 20.4063H10.2919C9.8219 19.7463 9.5619 18.8763 9.5619 17.8962ZM38.3819 17.8962C38.3819 18.8763 38.1119 19.7463 37.6519 20.4063H43.1419C44.7419 20.4063 45.6919 19.4963 45.6919 17.8962V14.2063H38.3819Z" />
        </svg>
    