
        <svg xmlns="http://www.w3.org/2000/svg" viewBox="0 0 100 100">
            <path d="M1.4617 27.9297H39.1317C39.9217 27.9297 40.5817 27.2697 40.5817 26.4597C40.5817 25.6597 39.9217 25.0097 39.1317 25.0097H35.7117V7.4997C35.7617 7.4997 35.8117 7.4997 35.8717 7.4997C37.3117 7.4997 38.4617 8.3897 40.1417 8.3897C40.9317 8.3897 41.3117 8.3097 41.8117 8.0997C42.4217 7.8497 42.6517 7.3797 42.6517 6.7197V1.6197C42.6517 1.0497 42.2917 0.6997 41.6917 0.6997C41.3117 0.6997 40.8617 0.9297 40.1017 0.9297C38.4717 0.9297 37.2917 -0.0003 35.3117 -0.0003C34.5217 -0.0003 34.1417 0.0697 33.6517 0.2897C33.0917 0.5497 32.7817 1.0197 32.7817 1.6597V25.0097H27.3317C27.3517 24.8297 27.3617 24.6397 27.3617 24.4597V16.7997C26.9917 16.7097 26.6117 16.5597 26.2217 16.3597L15.6817 10.9597L5.1317 16.3597C4.7217 16.5697 4.3117 16.7297 3.9117 16.8297V24.4597C3.9117 24.6397 3.9217 24.8297 3.9517 25.0097H1.4617C0.6517 25.0097 0.0017 25.6597 0.0017 26.4597C0.0017 27.2697 0.6517 27.9297 1.4617 27.9297ZM3.6217 14.8597L15.4017 8.6397C15.5717 8.5397 15.7817 8.5397 15.9617 8.6397L27.7117 14.8597C30.5817 16.3697 32.4017 12.5297 29.8617 11.1397L17.6817 4.5397C16.2917 3.7697 15.0517 3.7697 13.6517 4.5397L1.4717 11.1397C-1.0783 12.5297 0.7517 16.3697 3.6217 14.8597ZM12.0517 24.0497V17.6597C12.0517 17.0697 12.4317 16.6997 13.0117 16.6997H18.3717C18.9617 16.6997 19.3317 17.0697 19.3317 17.6597V24.0497Z" />
        </svg>
    