
        <svg xmlns="http://www.w3.org/2000/svg" viewBox="0 0 100 100">
            <path d="M0.6492 23.4866H29.1792C29.3292 23.4866 29.4592 23.3566 29.4592 23.1866C29.4592 23.0366 29.3292 22.9066 29.1792 22.9066H26.0392V5.1866C26.2592 5.1366 26.6092 5.0466 27.1292 5.0466C28.6692 5.0466 29.5992 5.8366 31.1892 5.8366C31.7192 5.8366 32.0692 5.7766 32.3992 5.6366C32.6592 5.4866 32.7992 5.3566 32.7992 5.1366V0.8766C32.7992 0.6766 32.7092 0.5766 32.5292 0.5766C32.3092 0.5766 31.8992 0.7866 31.1492 0.7866C29.5792 0.7866 28.6592 -0.0034 27.0792 -0.0034C26.4792 -0.0034 26.1492 0.0866 25.8892 0.2066C25.5992 0.3066 25.4592 0.4766 25.4592 0.6866V22.9066H20.2192C20.5292 22.5666 20.6792 22.0866 20.6792 21.4666V11.4066C20.4692 11.2966 20.2592 11.1766 20.0492 11.0766L11.6892 6.8166L3.3392 11.0866C3.1392 11.1866 2.9392 11.2866 2.7492 11.3866V21.4666C2.7492 22.0866 2.8992 22.5666 3.1992 22.9066H0.6492C0.4892 22.9066 0.3592 23.0366 0.3592 23.1866C0.3592 23.3566 0.4892 23.4866 0.6492 23.4866ZM0.4392 11.5766L11.1492 6.1066C11.5292 5.9066 11.8592 5.9066 12.2392 6.1066L22.9692 11.5766C23.3692 11.7766 23.5792 11.2666 23.2492 11.0866L12.4992 5.5666C11.9492 5.2966 11.4692 5.2966 10.8992 5.5866L0.1592 11.0866C-0.1708 11.2666 0.0492 11.7766 0.4392 11.5766ZM8.4892 22.9066V15.2966C8.4892 14.9066 8.7392 14.6466 9.1292 14.6466H14.2092C14.5992 14.6466 14.8592 14.9066 14.8592 15.2966V22.9066Z" />
        </svg>
    