
        <svg xmlns="http://www.w3.org/2000/svg" viewBox="0 0 100 100">
            <path d="M11.4923 22.977C17.8123 22.977 22.9823 17.827 22.9823 11.497C22.9823 5.167 17.8123 -0.003 11.4923 -0.003C5.1723 -0.003 0.0023 5.167 0.0023 11.497C0.0023 17.827 5.1723 22.977 11.4923 22.977ZM4.6623 10.287C4.6623 10.157 4.7123 10.067 4.8123 9.987L10.5723 5.157C11.1323 4.687 11.8723 4.687 12.4323 5.157L15.6723 7.887V6.347C15.6723 6.187 15.7723 6.077 15.9223 6.077H16.4023C16.5623 6.077 16.6623 6.187 16.6623 6.347V8.727L18.1523 9.987C18.2623 10.067 18.3023 10.157 18.3023 10.287C18.3023 10.487 18.1423 10.627 17.9523 10.627C17.8623 10.627 17.8023 10.577 17.6923 10.507L12.0023 5.717C11.6323 5.417 11.3623 5.407 11.0023 5.717L5.2723 10.507C5.1923 10.577 5.1223 10.627 5.0123 10.627C4.8123 10.627 4.6623 10.477 4.6623 10.287ZM6.3323 15.937V10.217L11.1023 6.207C11.3623 5.987 11.6123 5.987 11.8823 6.207L16.6623 10.227V15.937C16.6623 16.627 16.2523 17.037 15.5723 17.037H7.4323C6.7423 17.037 6.3323 16.627 6.3323 15.937ZM9.9623 16.347H13.0223V12.507C13.0223 12.267 12.8623 12.137 12.6423 12.137H10.3323C10.1223 12.137 9.9623 12.267 9.9623 12.507Z" />
        </svg>
    