
        <svg xmlns="http://www.w3.org/2000/svg" viewBox="0 0 100 100">
            <path d="M12.7923 25.5961C19.8723 25.5961 25.6023 19.8661 25.6023 12.7961C25.6023 5.7261 19.8723 -0.0039 12.7923 -0.0039C5.7323 -0.0039 0.0023 5.7261 0.0023 12.7961C0.0023 19.8661 5.7323 25.5961 12.7923 25.5961ZM8.2723 13.1361C7.4723 13.8061 6.6123 12.7461 7.3523 12.1261L11.9023 8.3061C12.1723 8.0961 12.5023 7.9761 12.7923 7.9761C13.1023 7.9761 13.4523 8.0961 13.7223 8.3061L18.2723 12.1261C19.0123 12.7661 18.1423 13.8061 17.3323 13.1361L13.1023 9.5861C13.0223 9.5061 12.9123 9.4661 12.7923 9.4661C12.7023 9.4661 12.6023 9.5061 12.5123 9.5861ZM6.9423 11.6261C6.3023 12.1561 6.3023 12.8561 6.6223 13.3361H5.2623C4.5223 13.3361 4.2923 12.5061 4.8623 12.0861L7.5123 10.1761C7.6923 10.0461 7.9023 9.9461 8.1323 9.9461L8.9023 9.9761ZM18.6823 11.6261L16.7023 9.9761L17.4823 9.9461C17.7023 9.9461 17.9323 10.0461 18.1023 10.1761L20.7623 12.0861C21.3323 12.5061 21.1023 13.3361 20.3623 13.3361H18.9823C19.3123 12.8561 19.3023 12.1361 18.6823 11.6261ZM9.1323 16.2261C8.3823 16.2261 7.9223 15.7761 7.9223 15.0561V13.9961C8.1823 13.9661 8.4223 13.8361 8.6923 13.6261L12.7923 10.1861L16.9223 13.6261C17.1823 13.8361 17.4423 13.9661 17.6923 13.9961V15.0561C17.6923 15.7761 17.2123 16.2261 16.4723 16.2261ZM11.6223 14.8261H13.9823V13.2061C13.9823 13.0061 13.8623 12.8861 13.6523 12.8861H11.9623C11.7523 12.8861 11.6223 13.0061 11.6223 13.2061ZM7.2823 15.0561C7.2823 15.5061 7.4023 15.9061 7.6623 16.2261H6.4723C5.7223 16.2261 5.2623 15.7761 5.2623 15.0561V13.9961L7.2823 14.0061ZM18.3423 15.0561V14.0061L20.3623 13.9961V15.0561C20.3623 15.7761 19.9023 16.2261 19.1223 16.2261H17.9523C18.2123 15.9061 18.3423 15.5061 18.3423 15.0561Z" />
        </svg>
    