
        <svg xmlns="http://www.w3.org/2000/svg" viewBox="0 0 100 100">
            <path d="M12.6023 25.1969C19.5623 25.1969 25.2023 19.5569 25.2023 12.5969C25.2023 5.6369 19.5623 -0.0031 12.6023 -0.0031C5.6523 -0.0031 0.0023 5.6369 0.0023 12.5969C0.0023 19.5569 5.6523 25.1969 12.6023 25.1969ZM6.4923 12.6469C5.5423 13.1369 4.9523 11.8969 5.7823 11.4369L10.3923 8.9669C10.8823 8.7069 11.3223 8.7069 11.8123 8.9669L16.2423 11.3469V7.6769C16.2423 7.4369 16.3623 7.2669 16.5623 7.1869C16.7423 7.0969 16.8823 7.0769 17.1923 7.0769C17.9323 7.0769 18.4223 7.4269 19.0523 7.4269C19.3623 7.4269 19.5223 7.3469 19.6723 7.3469C19.9023 7.3469 20.0123 7.4669 20.0123 7.6569V9.6469C20.0123 9.8869 19.9323 10.0469 19.7123 10.1469C19.5323 10.2069 19.3723 10.2569 19.0823 10.2569C18.4023 10.2569 17.9523 9.8869 17.3523 9.8869C17.3223 9.8869 17.2823 9.8869 17.2623 9.9069V16.6269H18.9623C19.2523 16.6269 19.4923 16.8469 19.4923 17.1369C19.4923 17.4069 19.2523 17.6369 18.9623 17.6369H5.8523C5.5823 17.6369 5.3323 17.4069 5.3323 17.1369C5.3323 16.8469 5.5823 16.6269 5.8523 16.6269H6.7723C6.7523 16.5569 6.7523 16.4869 6.7523 16.4169V13.2969C6.8623 13.2569 7.0123 13.1969 7.1523 13.1369L11.1123 11.0969L15.0623 13.1369C15.1923 13.1969 15.3023 13.2569 15.4523 13.2969V16.4169C15.4523 16.4869 15.4523 16.5569 15.4223 16.6269H16.2423V12.7369C16.0823 12.7769 15.8923 12.7369 15.6923 12.6369L11.2223 10.2869C11.1523 10.2569 11.0623 10.2569 10.9823 10.2869ZM9.7123 16.3569H12.4923V13.7769C12.4923 13.5669 12.3423 13.4169 12.1323 13.4169H10.0823C9.8623 13.4169 9.7123 13.5669 9.7123 13.7769Z" />
        </svg>
    