
        <svg xmlns="http://www.w3.org/2000/svg" viewBox="0 0 100 100">
            <path d="M12.2223 24.4436C18.9723 24.4436 24.4423 18.9736 24.4423 12.2236C24.4423 5.4736 18.9723 0.0036 12.2223 0.0036C5.4723 0.0036 0.0023 5.4736 0.0023 12.2236C0.0023 18.9736 5.4723 24.4436 12.2223 24.4436ZM12.2223 21.7636C6.9523 21.7636 2.6823 17.4936 2.6823 12.2236C2.6823 6.9536 6.9523 2.6836 12.2223 2.6836C17.4923 2.6836 21.7623 6.9536 21.7623 12.2236C21.7623 17.4936 17.4923 21.7636 12.2223 21.7636ZM5.0123 11.4036C5.0123 11.7436 5.2723 12.0336 5.6823 12.0336C5.8723 12.0336 6.0423 11.9336 6.2023 11.7936L11.9223 7.0036C12.1123 6.8336 12.3323 6.8436 12.5423 7.0036L18.2323 11.7936C18.4023 11.9336 18.5723 12.0336 18.7623 12.0336C19.1523 12.0336 19.4323 11.7936 19.4323 11.4136C19.4323 11.2036 19.3523 11.0136 19.1823 10.8736L17.5223 9.4836V7.0636C17.5223 6.8036 17.3523 6.6336 17.0823 6.6336H16.2223C15.9623 6.6336 15.7823 6.8036 15.7823 7.0636V8.0136L13.1723 5.8236C12.6023 5.3436 11.8623 5.3436 11.2923 5.8236L5.2623 10.8836C5.1023 11.0236 5.0123 11.2136 5.0123 11.4036ZM6.9523 16.6536C6.9523 17.5036 7.4923 18.0236 8.3823 18.0236H16.0623C16.9423 18.0236 17.4923 17.5036 17.4923 16.6536V12.3036L12.5823 8.1936C12.3523 7.9936 12.0823 8.0036 11.8623 8.1936L6.9523 12.3036ZM13.7623 16.7436H10.6923V13.2736C10.6923 12.9936 10.8723 12.8236 11.1423 12.8236H13.3023C13.5923 12.8236 13.7623 12.9936 13.7623 13.2736Z" />
        </svg>
    