
        <svg xmlns="http://www.w3.org/2000/svg" viewBox="0 0 100 100">
            <path d="M9.4592 11.8716L22.3992 1.7816C22.5792 1.6416 22.7992 1.5316 22.9992 1.5316C23.2192 1.5316 23.4392 1.6416 23.6092 1.7816L36.5592 11.8716C37.4292 12.5516 38.2992 11.4116 37.5692 10.8516L24.3892 0.5516C23.9492 0.2016 23.4792 0.0016 22.9992 0.0016C22.5292 0.0016 22.0592 0.2016 21.6192 0.5516L8.4392 10.8516C7.7192 11.4116 8.5892 12.5516 9.4592 11.8716ZM13.1192 19.7916H32.8892C34.4592 19.7916 35.3192 18.9416 35.3192 17.3816V12.5516C35.0592 12.4316 34.7992 12.2816 34.5292 12.0816L22.9992 3.0916L11.4692 12.0816C11.2092 12.2816 10.9592 12.4316 10.6992 12.5516V17.3816C10.6992 18.9416 11.5592 19.7916 13.1192 19.7916ZM7.5792 9.7416L12.8892 5.5916H9.0192C8.4492 5.5916 8.0292 5.7116 7.6192 5.9716L0.2892 10.8416C-0.2408 11.1916 -0.0308 12.0816 0.7592 12.0816H6.8992C6.5992 11.3216 6.7192 10.3916 7.5792 9.7416ZM38.4492 9.7416C39.2892 10.3916 39.4192 11.3216 39.1192 12.0816H45.2592C46.0392 12.0816 46.2492 11.1916 45.7392 10.8416L38.3992 5.9716C37.9892 5.7116 37.5692 5.5916 36.9892 5.5916H33.1192ZM19.9292 18.3716V12.9016C19.9292 12.4816 20.2392 12.2016 20.6392 12.2016H25.3792C25.7892 12.2016 26.0792 12.4816 26.0792 12.9016V18.3716ZM9.2792 17.3816V13.4916H1.9892V17.3816C1.9892 18.9416 2.8692 19.7916 4.4392 19.7916H10.0192C9.5492 19.1716 9.2792 18.3516 9.2792 17.3816ZM36.7192 17.3816C36.7192 18.3516 36.4692 19.1716 35.9992 19.7916H41.5892C43.1492 19.7916 44.0292 18.9416 44.0292 17.3816V13.4916H36.7192Z" />
        </svg>
    