
        <svg xmlns="http://www.w3.org/2000/svg" viewBox="0 0 100 100">
            <path d="M11.3523 22.7064C17.6023 22.7064 22.7123 17.6064 22.7123 11.3564C22.7123 5.1064 17.6023 -0.0036 11.3523 -0.0036C5.1123 -0.0036 0.0023 5.1064 0.0023 11.3564C0.0023 17.6064 5.1123 22.7064 11.3523 22.7064ZM4.7623 10.0764C4.7623 9.9564 4.8023 9.8764 4.9023 9.8064L10.4023 5.1864C10.9923 4.7064 11.7423 4.7064 12.3123 5.1864L15.5723 7.9464V6.3064C15.5723 6.1764 15.6723 6.0864 15.7823 6.0864H16.1923C16.3123 6.0864 16.3923 6.1764 16.3923 6.3064V8.6364L17.8023 9.8064C17.8823 9.8764 17.9323 9.9564 17.9323 10.0764C17.9323 10.2464 17.8023 10.3564 17.6323 10.3564C17.5823 10.3564 17.5323 10.3264 17.4523 10.2664L11.9323 5.6164C11.5223 5.2664 11.2123 5.2664 10.8023 5.6164L5.2523 10.2664C5.1923 10.3264 5.1323 10.3564 5.0523 10.3564C4.9023 10.3564 4.7623 10.2464 4.7623 10.0764ZM6.3323 15.7164V9.7864L10.9723 5.8964C11.2423 5.6764 11.4723 5.6764 11.7423 5.8964L16.3923 9.8064V15.7164C16.3923 16.3564 16.0323 16.7264 15.4123 16.7264H7.3323C6.6923 16.7264 6.3323 16.3564 6.3323 15.7164ZM9.8523 16.1964H12.8423V12.3564C12.8423 12.1564 12.6923 12.0364 12.5023 12.0364H10.2023C10.0123 12.0364 9.8523 12.1564 9.8523 12.3564Z" />
        </svg>
    