
        <svg xmlns="http://www.w3.org/2000/svg" viewBox="0 0 100 100">
            <path d="M2.0617 14.8964C2.5917 14.8964 3.1617 14.6564 3.6317 14.2464L14.8617 4.8564C15.1517 4.6064 15.4417 4.4764 15.7417 4.4764C16.0417 4.4764 16.3317 4.6064 16.6317 4.8564L27.8517 14.2464C28.3217 14.6564 28.9017 14.8964 29.4217 14.8964C30.6717 14.8964 31.4917 14.1064 31.4917 12.9364C31.4917 12.3564 31.1717 11.7164 30.6417 11.2764L27.3017 8.4764V3.1664C27.3017 2.5764 26.9317 2.2064 26.3517 2.2064H23.2817C22.7117 2.2064 22.3117 2.5764 22.3117 3.1664V4.2864L18.4317 1.0264C17.6217 0.3564 16.6717 -0.0036 15.7417 -0.0036C14.8117 -0.0036 13.8617 0.3564 13.0517 1.0264L0.8417 11.2764C0.3117 11.7164 0.0017 12.3564 0.0017 12.9364C0.0017 14.1064 0.8217 14.8964 2.0617 14.8964ZM4.3917 23.9964C4.3917 25.9264 5.7917 27.1964 7.9017 27.1964H23.5517C25.6617 27.1964 27.0517 25.9264 27.0517 23.9964V16.5864L16.5517 7.7564C16.0417 7.3264 15.4317 7.3364 14.9317 7.7564L4.3917 16.5864ZM12.5017 23.3164V17.1464C12.5017 16.5564 12.8917 16.1964 13.4717 16.1964H18.0217C18.6117 16.1964 18.9817 16.5564 18.9817 17.1464V23.3164Z" />
        </svg>
    