
        <svg xmlns="http://www.w3.org/2000/svg" viewBox="0 0 100 100">
            <path d="M15.1723 5.9423C17.2523 5.9423 19.1623 6.6223 20.7023 7.7823C21.0623 8.0423 21.5023 8.0123 21.8223 7.6923L24.7823 4.7123C25.1823 4.3223 25.1723 3.7423 24.7423 3.4023C22.1223 1.2723 18.7923 0.0023 15.1723 0.0023C11.5523 0.0023 8.2223 1.2723 5.6223 3.4023C5.1923 3.7423 5.1723 4.3223 5.5623 4.7123L8.5323 7.6923C8.8523 8.0123 9.3123 8.0423 9.6823 7.7723C11.2123 6.6223 13.1223 5.9423 15.1723 5.9423ZM30.3523 15.1723C30.3523 11.5423 29.0723 8.1923 26.9223 5.5623C26.6023 5.1823 26.0423 5.1823 25.6423 5.5623L22.6623 8.5323C22.3223 8.8723 22.3223 9.3123 22.5923 9.6823C23.7323 11.2223 24.4123 13.1223 24.4123 15.1723C24.4123 17.3323 23.6823 19.3223 22.4223 20.9023C22.1323 21.2823 22.1323 21.7423 22.4623 22.0623L25.4423 25.0423C25.8123 25.4223 26.3823 25.4223 26.7423 25.0123C28.9923 22.3623 30.3523 18.9423 30.3523 15.1723ZM0.0023 15.1723C0.0023 18.9523 1.3823 22.4023 3.6523 25.0523C3.9823 25.4423 4.5323 25.4223 4.9223 25.0423L7.8823 22.0623C8.2123 21.7423 8.2223 21.2823 7.9323 20.9023C6.6823 19.3223 5.9423 17.3323 5.9423 15.1723C5.9423 13.1223 6.6223 11.2223 7.7623 9.6823C8.0323 9.3123 8.0323 8.8723 7.6923 8.5323L4.7123 5.5623C4.3223 5.1823 3.7423 5.1923 3.3823 5.6223C1.2623 8.2223 0.0023 11.5523 0.0023 15.1723ZM10.5323 14.1323C10.5323 14.2923 10.6723 14.4223 10.8323 14.4223H19.6923C19.8423 14.4223 19.9823 14.2923 19.9823 14.1323C19.9823 13.9723 19.8423 13.8423 19.6923 13.8423H18.7023C18.9123 13.5823 19.0623 13.1623 19.0623 12.6723C19.0623 10.8423 17.1723 9.9623 15.2123 9.9623C13.9823 9.9623 12.5723 10.2523 11.9023 11.2823C11.7623 11.5123 11.6323 11.7423 11.6323 12.1123C11.6323 12.7123 12.1323 13.0923 12.7223 13.0923C13.1923 13.0923 13.5023 12.9123 13.8423 12.6123C14.2623 12.2223 14.6623 12.0623 15.1123 12.0623C15.7723 12.0623 16.3323 12.3623 16.3323 12.9023C16.3323 13.3523 16.0123 13.6923 15.3723 13.8423H10.8323C10.6723 13.8423 10.5323 13.9723 10.5323 14.1323ZM10.5323 15.7423C10.5323 15.8923 10.6723 16.0323 10.8323 16.0323H11.8023C11.5623 16.3323 11.4423 16.8623 11.4423 17.2423C11.4423 19.0423 13.4023 19.9423 15.3023 19.9423C16.7123 19.9423 18.2423 19.5723 18.7923 18.2823C18.8823 18.0923 18.9123 17.9323 18.9123 17.7523C18.9123 17.1823 18.4123 16.7823 17.8223 16.7823C17.3423 16.7823 17.0623 16.9323 16.7123 17.2623C16.3723 17.6123 15.9823 17.8223 15.4123 17.8223C14.7223 17.8223 14.1823 17.5523 14.1823 16.8423C14.1823 16.5923 14.3323 16.1723 14.8723 16.0323H19.6923C19.8423 16.0323 19.9823 15.8923 19.9823 15.7423C19.9823 15.5723 19.8423 15.4323 19.6923 15.4323H10.8323C10.6723 15.4323 10.5323 15.5723 10.5323 15.7423Z" />
        </svg>
    