
        <svg xmlns="http://www.w3.org/2000/svg" viewBox="0 0 100 100">
            <path d="M1.0817 22.0472H23.1917V21.5672C23.1917 21.3772 23.0617 21.2472 22.8517 21.2472H22.1117V7.0172H23.2417C23.5417 7.0172 23.6917 6.8172 23.6917 6.5872C23.6917 6.4472 23.6117 6.2772 23.4217 6.1672L13.3217 0.3372C12.9417 0.1172 12.5317 -0.0028 12.1317 -0.0028C11.7317 -0.0028 11.3217 0.1172 10.9417 0.3372L0.8417 6.1672C0.6417 6.2772 0.5617 6.4472 0.5617 6.5872C0.5617 6.8172 0.7117 7.0172 1.0317 7.0172H2.1517V21.2472H1.4017C1.2117 21.2472 1.0817 21.3772 1.0817 21.5672ZM3.0017 21.2472V5.9372L11.4417 1.1472C11.6517 1.0172 11.8817 0.9472 12.1317 0.9472C12.3717 0.9472 12.6117 1.0172 12.8317 1.1472L21.2617 5.9372V21.2472ZM8.2117 11.0372C8.2117 11.1772 8.3317 11.2972 8.4717 11.2972H15.7817C15.9217 11.2972 16.0417 11.1772 16.0417 11.0372C16.0417 10.8972 15.9217 10.7772 15.7817 10.7772H14.6217C15.0317 10.4272 15.2617 9.9172 15.2617 9.4672C15.2617 7.9072 13.7217 7.0772 12.0817 7.0772C10.9917 7.0772 9.8217 7.5072 9.2417 8.5572C9.1317 8.7772 9.0617 8.9972 9.0617 9.1572C9.0617 9.3472 9.1917 9.4872 9.4117 9.4872C9.6017 9.4872 9.7017 9.4072 9.7617 9.2472C10.1117 8.2272 11.0817 7.7572 12.0917 7.7572C13.3717 7.7572 14.4717 8.3472 14.4717 9.5272C14.4717 9.9472 14.2617 10.4872 13.7717 10.7772H8.4717C8.3317 10.7772 8.2117 10.8972 8.2117 11.0372ZM8.2117 12.8472C8.2117 12.9872 8.3317 13.0972 8.4717 13.0972H9.7017C9.1617 13.4672 8.8317 14.0472 8.8317 14.6872C8.8317 16.2672 10.4417 17.1072 12.1417 17.1072C13.5117 17.1072 14.7417 16.5772 15.2617 15.4472C15.3617 15.2472 15.4617 14.9872 15.4617 14.8372C15.4617 14.6272 15.2917 14.4872 15.0817 14.4872C14.8917 14.4872 14.7817 14.5972 14.7117 14.7872C14.3817 15.9172 13.3317 16.4272 12.1217 16.4272C10.7917 16.4272 9.6117 15.7472 9.6117 14.6472C9.6117 13.9472 10.0217 13.4172 10.6417 13.0972H15.7817C15.9217 13.0972 16.0417 12.9872 16.0417 12.8472C16.0417 12.7072 15.9217 12.5872 15.7817 12.5872H8.4717C8.3317 12.5872 8.2117 12.7072 8.2117 12.8472ZM0.4317 23.8172H23.8217C24.0717 23.8172 24.2617 23.6172 24.2617 23.3672C24.2617 23.1372 24.0717 22.9372 23.8217 22.9372H0.4317C0.2017 22.9372 0.0017 23.1372 0.0017 23.3672C0.0017 23.6172 0.2017 23.8172 0.4317 23.8172Z" />
        </svg>
    