
        <svg xmlns="http://www.w3.org/2000/svg" viewBox="0 0 100 100">
            <path d="M14.4523 5.3178C16.5623 5.3178 18.4923 6.0378 20.0423 7.2278C20.3223 7.4278 20.6623 7.4178 20.9223 7.1578L23.7223 4.3578C24.0223 4.0578 24.0123 3.5978 23.6823 3.3278C21.1723 1.2578 17.9523 -0.0022 14.4523 -0.0022C10.9423 -0.0022 7.7223 1.2578 5.2223 3.3278C4.8823 3.5978 4.8723 4.0578 5.1923 4.3578L7.9823 7.1578C8.2423 7.4178 8.6023 7.4278 8.8923 7.2078C10.4423 6.0378 12.3623 5.3178 14.4523 5.3178ZM28.9023 14.4478C28.9023 10.9378 27.6423 7.7078 25.5623 5.1878C25.2923 4.8778 24.8423 4.8778 24.5423 5.1778L21.7423 7.9778C21.4823 8.2378 21.4723 8.5978 21.6923 8.8778C22.8723 10.4278 23.5823 12.3678 23.5823 14.4478C23.5823 16.5678 22.8623 18.5278 21.5823 20.1478C21.3823 20.3978 21.4023 20.7178 21.6223 20.9578L24.4723 23.7978C24.7723 24.1078 25.2223 24.1078 25.5023 23.7778C27.6223 21.2578 28.9023 17.9978 28.9023 14.4478ZM0.0023 14.4478C0.0023 17.9978 1.2923 21.2678 3.4223 23.7878C3.6923 24.1078 4.1323 24.1078 4.4423 23.7978L7.2823 20.9578C7.5123 20.7178 7.5223 20.3978 7.3123 20.1478C6.0423 18.5278 5.3223 16.5678 5.3223 14.4478C5.3223 12.3678 6.0223 10.4278 7.2223 8.8778C7.4323 8.5978 7.4323 8.2378 7.1723 7.9778L4.3723 5.1778C4.0623 4.8778 3.6123 4.8778 3.3423 5.2178C1.2523 7.7178 0.0023 10.9478 0.0023 14.4478ZM10.0823 13.4178C10.0823 13.6278 10.2423 13.7778 10.4323 13.7778H18.4923C18.6923 13.7778 18.8523 13.6278 18.8523 13.4178C18.8523 13.2078 18.6923 13.0578 18.4923 13.0578H17.4623C17.7623 12.7378 17.9623 12.3178 17.9623 11.8378C17.9623 10.0578 16.1923 9.2178 14.4123 9.2178C13.3623 9.2178 12.0923 9.5078 11.3623 10.5778C11.2123 10.8278 11.1223 11.0478 11.1223 11.3678C11.1223 11.7878 11.4223 12.0578 11.8723 12.0578C12.2223 12.0578 12.4223 11.9078 12.6323 11.6378C13.0423 10.9578 13.6923 10.6878 14.4023 10.6878C15.3123 10.6878 16.1823 11.0978 16.1823 11.9778C16.1823 12.3778 15.9723 12.8178 15.4923 13.0578H10.4323C10.2423 13.0578 10.0823 13.2078 10.0823 13.4178ZM10.0823 15.2178C10.0823 15.4178 10.2423 15.5878 10.4323 15.5878H11.4723C11.0823 15.9378 10.8423 16.4578 10.8423 16.9778C10.8423 18.7478 12.7123 19.6178 14.4823 19.6178C15.8623 19.6178 17.2023 19.1578 17.7923 18.0378C17.9223 17.8078 18.0023 17.5678 18.0023 17.3578C18.0023 16.9378 17.6723 16.6478 17.2423 16.6478C16.8723 16.6478 16.6623 16.7978 16.4623 17.0978C16.0823 17.8278 15.3823 18.1478 14.5123 18.1478C13.5323 18.1478 12.6323 17.6878 12.6323 16.8078C12.6323 16.2778 12.9023 15.8278 13.4223 15.5878H18.4923C18.6923 15.5878 18.8523 15.4178 18.8523 15.2178C18.8523 15.0078 18.6923 14.8578 18.4923 14.8578H10.4323C10.2423 14.8578 10.0823 15.0078 10.0823 15.2178Z" />
        </svg>
    