
        <svg xmlns="http://www.w3.org/2000/svg" viewBox="0 0 100 100">
            <path d="M12.7923 25.5978C19.8723 25.5978 25.6023 19.8678 25.6023 12.7978C25.6023 5.7278 19.8723 -0.0022 12.7923 -0.0022C5.7323 -0.0022 0.0023 5.7278 0.0023 12.7978C0.0023 19.8678 5.7323 25.5978 12.7923 25.5978ZM12.7923 21.4178C8.0323 21.4178 4.1723 17.5678 4.1723 12.7978C4.1723 8.0278 8.0323 4.1678 12.7923 4.1678C17.5623 4.1678 21.4323 8.0278 21.4323 12.7978C21.4323 17.5678 17.5623 21.4178 12.7923 21.4178ZM8.1523 11.9278C8.1523 12.0778 8.2923 12.2178 8.4623 12.2178H17.3123C17.4623 12.2178 17.6023 12.0778 17.6023 11.9278C17.6023 11.7678 17.4623 11.6278 17.3123 11.6278H16.3223C16.5323 11.3778 16.6923 10.9478 16.6923 10.4578C16.6923 8.6378 14.7923 7.7578 12.8323 7.7578C11.6023 7.7578 10.2023 8.0478 9.5323 9.0778C9.4023 9.3078 9.2723 9.5378 9.2723 9.9178C9.2723 10.5078 9.7523 10.8878 10.3523 10.8878C10.8123 10.8878 11.1223 10.7078 11.4623 10.4078C11.8823 10.0178 12.2823 9.8578 12.7423 9.8578C13.3923 9.8578 13.9523 10.1478 13.9523 10.6978C13.9523 11.1478 13.6323 11.4878 12.9923 11.6278H8.4623C8.2923 11.6278 8.1523 11.7678 8.1523 11.9278ZM8.1523 13.5278C8.1523 13.6878 8.2923 13.8278 8.4623 13.8278H9.4223C9.2023 14.1278 9.0623 14.6578 9.0623 15.0378C9.0623 16.8378 11.0323 17.7278 12.9223 17.7278C14.3423 17.7278 15.8623 17.3678 16.4223 16.0778C16.5023 15.8878 16.5323 15.7278 16.5323 15.5478C16.5323 14.9778 16.0323 14.5778 15.4423 14.5778C14.9623 14.5778 14.6923 14.7278 14.3323 15.0578C13.9923 15.3978 13.6023 15.6178 13.0323 15.6178C12.3423 15.6178 11.8023 15.3478 11.8023 14.6378C11.8023 14.3778 11.9623 13.9678 12.4923 13.8278H17.3123C17.4623 13.8278 17.6023 13.6878 17.6023 13.5278C17.6023 13.3678 17.4623 13.2278 17.3123 13.2278H8.4623C8.2923 13.2278 8.1523 13.3678 8.1523 13.5278Z" />
        </svg>
    