
        <svg xmlns="http://www.w3.org/2000/svg" viewBox="0 0 100 100">
            <path d="M0.6869 9.5948C0.0069 9.5948 -0.1931 10.0648 0.2069 10.6148L2.7569 14.2648C3.0869 14.7148 3.5469 14.7148 3.8569 14.2648L6.4169 10.6148C6.7969 10.0648 6.6069 9.5948 5.9369 9.5948H3.9969C4.9869 4.9848 9.0869 1.5148 14.0069 1.5148C19.6669 1.5148 24.2369 6.0948 24.2369 11.7548C24.2369 17.4148 19.6669 21.9848 14.0069 21.9848C10.4569 21.9848 7.2869 20.1548 5.5169 17.4148C5.2469 17.0548 4.8069 16.9348 4.4369 17.1548C4.0869 17.3648 3.9769 17.8748 4.2669 18.2648C6.3469 21.4248 9.9569 23.5048 14.0069 23.5048C20.4969 23.5048 25.7669 18.2448 25.7669 11.7548C25.7669 5.2648 20.4969 0.0048 14.0069 0.0048C8.2569 0.0048 3.4569 4.1348 2.4469 9.5948ZM9.9069 10.6148C9.9069 10.8048 10.0569 10.9448 10.2369 10.9448H17.7569C17.9469 10.9448 18.0969 10.8048 18.0969 10.6148C18.0969 10.4148 17.9469 10.2748 17.7569 10.2748H16.6769C17.0469 9.9348 17.2569 9.4648 17.2569 9.0048C17.2569 7.3348 15.6269 6.5048 13.9469 6.5048C12.9269 6.5048 11.7369 6.8448 11.0569 7.9348C10.9169 8.1648 10.8469 8.3948 10.8469 8.6148C10.8469 8.8948 11.0369 9.0948 11.3369 9.0948C11.5869 9.0948 11.7269 8.9748 11.8269 8.7548C12.2169 7.8548 13.0569 7.4648 13.9769 7.4648C15.1069 7.4648 16.1669 7.9848 16.1669 9.0848C16.1669 9.4848 15.9669 9.9948 15.4969 10.2748H10.2369C10.0569 10.2748 9.9069 10.4148 9.9069 10.6148ZM9.9069 12.4648C9.9069 12.6548 10.0569 12.8048 10.2369 12.8048H11.3369C10.8569 13.1848 10.5769 13.7348 10.5769 14.3348C10.5769 16.0148 12.3069 16.8648 14.0069 16.8648C15.3769 16.8648 16.6169 16.3448 17.1969 15.2548C17.3169 15.0448 17.4169 14.7648 17.4169 14.5648C17.4169 14.2848 17.2069 14.0948 16.9069 14.0948C16.6569 14.0948 16.5069 14.2248 16.3969 14.4648C16.0169 15.4648 15.0969 15.9048 13.9969 15.9048C12.7869 15.9048 11.6769 15.2948 11.6769 14.2748C11.6769 13.6048 12.0269 13.1048 12.6069 12.8048H17.7569C17.9469 12.8048 18.0969 12.6548 18.0969 12.4648C18.0969 12.2648 17.9469 12.1248 17.7569 12.1248H10.2369C10.0569 12.1248 9.9069 12.2648 9.9069 12.4648Z" />
        </svg>
    