
        <svg xmlns="http://www.w3.org/2000/svg" viewBox="0 0 100 100">
            <path d="M4.76 6.3045C9.97 6.3045 12.8 1.8845 17.71 1.8845C18.85 1.8845 19.87 2.1445 21.07 2.8245C21.57 3.1045 22.04 2.9145 22.29 2.5645C22.58 2.1445 22.55 1.5145 21.89 1.1245C20.56 0.3645 19.21 0.0045 17.71 0.0045C12.39 0.0045 9.58 4.4145 4.76 4.4145C3.6 4.4145 2.58 4.1645 1.38 3.4845C0.88 3.1945 0.41 3.3845 0.16 3.7545C-0.11 4.1745 -0.08 4.8045 0.56 5.1845C1.89 5.9445 3.24 6.3045 4.76 6.3045ZM20.14 20.4745C22.96 20.4745 25.21 18.2845 25.21 15.5245C25.21 14.0045 24.44 12.5045 23.78 11.2645L21.12 6.3045C20.89 5.8845 20.56 5.6945 20.14 5.6945C19.71 5.6945 19.38 5.8845 19.16 6.3045L16.51 11.2645C15.84 12.5045 15.09 14.0045 15.09 15.5245C15.09 18.2845 17.33 20.4745 20.14 20.4745ZM4.77 12.5945C9.41 12.5945 12.17 9.0445 16.24 8.3445C16.6 7.6545 16.98 6.9845 17.34 6.2945C12.14 6.5345 9.5 10.7145 4.77 10.7145C3.61 10.7145 2.59 10.4445 1.39 9.7645C0.9 9.4845 0.42 9.6645 0.19 10.0345C-0.1 10.4545 -0.07 11.0845 0.57 11.4645C1.9 12.2245 3.27 12.5945 4.77 12.5945ZM4.76 18.8745C8.3 18.8745 10.76 16.7945 13.53 15.5145C13.47 15.0045 13.62 14.0745 13.83 13.3845C10.71 14.6345 8.27 16.9945 4.76 16.9945C3.6 16.9945 2.58 16.7345 1.38 16.0445C0.88 15.7645 0.41 15.9445 0.16 16.3145C-0.11 16.7345 -0.08 17.3745 0.56 17.7445C1.89 18.5145 3.24 18.8745 4.76 18.8745Z" />
        </svg>
    