
        <svg xmlns="http://www.w3.org/2000/svg" viewBox="0 0 100 100">
            <path d="M8.8517 1.5047C9.2617 1.5047 9.6017 1.1647 9.6017 0.7547C9.6017 0.3447 9.2617 0.0047 8.8517 0.0047C8.4217 0.0047 8.0817 0.3447 8.0817 0.7547C8.0817 1.1647 8.4217 1.5047 8.8517 1.5047ZM2.8917 2.5647C3.3117 2.5647 3.6417 2.2247 3.6417 1.8147C3.6417 1.3947 3.3117 1.0547 2.8917 1.0547C2.4817 1.0547 2.1417 1.3947 2.1417 1.8147C2.1417 2.2247 2.4817 2.5647 2.8917 2.5647ZM14.7917 2.5647C15.2117 2.5647 15.5417 2.2247 15.5417 1.8147C15.5417 1.3947 15.2117 1.0547 14.7917 1.0547C14.3817 1.0547 14.0417 1.3947 14.0417 1.8147C14.0417 2.2247 14.3817 2.5647 14.7917 2.5647ZM8.8517 4.8847C9.2617 4.8847 9.6017 4.5447 9.6017 4.1247C9.6017 3.7147 9.2617 3.3747 8.8517 3.3747C8.4217 3.3747 8.0817 3.7147 8.0817 4.1247C8.0817 4.5447 8.4217 4.8847 8.8517 4.8847ZM4.8517 5.3047C5.2617 5.3047 5.6017 4.9647 5.6017 4.5447C5.6017 4.1347 5.2617 3.7947 4.8517 3.7947C4.4317 3.7947 4.0917 4.1347 4.0917 4.5447C4.0917 4.9647 4.4317 5.3047 4.8517 5.3047ZM12.8417 5.3047C13.2517 5.3047 13.5917 4.9647 13.5917 4.5447C13.5917 4.1347 13.2517 3.7947 12.8417 3.7947C12.4217 3.7947 12.0917 4.1347 12.0917 4.5447C12.0917 4.9647 12.4217 5.3047 12.8417 5.3047ZM3.2317 11.5647H14.3917C13.6417 10.3947 12.8217 9.1947 11.9317 7.9947C11.4517 7.3347 11.0417 6.9247 10.1117 6.9247H7.5117C6.5817 6.9247 6.1917 7.3347 5.6917 7.9947C4.8017 9.1947 3.9817 10.3947 3.2317 11.5647ZM0.0617 18.6447H6.4717C6.7617 17.6247 7.6717 16.8847 8.8117 16.8847C9.9417 16.8847 10.8617 17.6247 11.1517 18.6447H17.5817C17.3417 17.0847 16.5117 15.1147 15.2917 12.9947H2.3317C1.1117 15.1147 0.2917 17.0847 0.0617 18.6447ZM8.8117 20.5647C9.5117 20.5647 10.0317 20.0547 10.0317 19.3447C10.0317 18.6547 9.5117 18.1447 8.8117 18.1447C8.1117 18.1447 7.6017 18.6547 7.6017 19.3447C7.6017 20.0547 8.1117 20.5647 8.8117 20.5647ZM6.4417 25.6847H11.1817C15.2417 25.6847 17.4117 23.5447 17.6417 20.0747H11.1517C10.8617 21.0847 9.9417 21.8247 8.8117 21.8247C7.6717 21.8247 6.7617 21.0847 6.4717 20.0747H0.0017C0.2117 23.5447 2.3917 25.6847 6.4417 25.6847Z" />
        </svg>
    