
        <svg xmlns="http://www.w3.org/2000/svg" viewBox="0 0 100 100">
            <path d="M9.6717 1.9173C10.1917 1.9173 10.6317 1.4973 10.6317 0.9573C10.6317 0.4373 10.1917 -0.0027 9.6717 -0.0027C9.1417 -0.0027 8.7117 0.4373 8.7117 0.9573C8.7117 1.4973 9.1417 1.9173 9.6717 1.9173ZM3.2717 3.1173C3.8017 3.1173 4.2317 2.6873 4.2317 2.1573C4.2317 1.6273 3.8017 1.1973 3.2717 1.1973C2.7417 1.1973 2.3117 1.6273 2.3117 2.1573C2.3117 2.6873 2.7417 3.1173 3.2717 3.1173ZM16.0617 3.1173C16.5917 3.1173 17.0317 2.6873 17.0317 2.1573C17.0317 1.6273 16.5917 1.1973 16.0617 1.1973C15.5317 1.1973 15.1017 1.6273 15.1017 2.1573C15.1017 2.6873 15.5317 3.1173 16.0617 3.1173ZM9.6717 5.5473C10.1917 5.5473 10.6317 5.1073 10.6317 4.5773C10.6317 4.0473 10.1917 3.6173 9.6717 3.6173C9.1417 3.6173 8.7117 4.0473 8.7117 4.5773C8.7117 5.1073 9.1417 5.5473 9.6717 5.5473ZM5.4617 5.9873C5.9917 5.9873 6.4217 5.5673 6.4217 5.0273C6.4217 4.4973 5.9917 4.0673 5.4617 4.0673C4.9217 4.0673 4.4917 4.4973 4.4917 5.0273C4.4917 5.5673 4.9217 5.9873 5.4617 5.9873ZM13.8717 5.9873C14.4017 5.9873 14.8317 5.5673 14.8317 5.0273C14.8317 4.4973 14.4017 4.0673 13.8717 4.0673C13.3517 4.0673 12.9117 4.4973 12.9117 5.0273C12.9117 5.5673 13.3517 5.9873 13.8717 5.9873ZM7.1217 27.6473H12.1617C16.8617 27.6473 19.2917 25.1373 19.2917 20.8873C19.2917 17.5473 16.5117 13.2873 13.2917 9.0073C12.6217 8.1373 12.1517 7.5973 10.8917 7.5973H8.4017C7.1417 7.5973 6.6717 8.1373 6.0017 9.0073C2.7817 13.2873 0.0017 17.5473 0.0017 20.8873C0.0017 25.1373 2.4217 27.6473 7.1217 27.6473ZM7.8717 10.2273C8.0717 9.9773 8.1917 9.8973 8.5117 9.8973H10.7817C11.1017 9.8973 11.2117 9.9773 11.4117 10.2273C11.9917 11.0273 12.5317 11.7773 13.0317 12.4873H6.2617C6.7517 11.7773 7.3017 11.0273 7.8717 10.2273ZM9.6517 17.7373C8.4217 17.7373 7.4017 18.4773 6.9917 19.5373H2.4717C2.8117 18.1373 3.6217 16.5373 4.8117 14.6473H14.4717C15.6717 16.5373 16.4917 18.1373 16.8117 19.5373H12.3017C11.8817 18.4773 10.8617 17.7373 9.6517 17.7373ZM9.6517 21.6373C9.0517 21.6373 8.6117 21.1973 8.6117 20.5873C8.6117 20.0073 9.0517 19.5573 9.6517 19.5573C10.2417 19.5573 10.6917 20.0073 10.6917 20.5873C10.6917 21.1973 10.2417 21.6373 9.6517 21.6373ZM9.6517 23.4573C10.8517 23.4573 11.8717 22.7373 12.2917 21.6873H16.9417C16.6717 24.0573 15.1517 25.3373 12.1617 25.3373H7.1217C4.1417 25.3373 2.6117 24.0573 2.3417 21.6873H7.0117C7.4317 22.7373 8.4417 23.4573 9.6517 23.4573Z" />
        </svg>
    