
        <svg xmlns="http://www.w3.org/2000/svg" viewBox="0 0 100 100">
            <path d="M0.0023 23.3544C0.0023 23.7444 0.3023 24.0444 0.7423 24.0444C7.6023 24.0444 13.0423 19.1144 13.0423 12.0244C13.0423 8.8544 10.4223 6.2444 7.2623 6.2444C5.8623 6.2444 4.5823 6.8244 3.6523 7.7244C5.2523 3.8644 9.1423 1.3744 13.7923 1.3744C14.2223 1.3744 14.5323 1.0644 14.5323 0.6844C14.5323 0.2944 14.2223 0.0044 13.7923 0.0044C6.9223 0.0044 1.5023 4.9244 1.5023 12.0244C1.5023 15.1844 4.1123 17.8044 7.2623 17.8044C8.6723 17.8044 9.9623 17.2244 10.8623 16.3144C9.2723 20.1644 5.3823 22.6744 0.7423 22.6744C0.3023 22.6744 0.0023 22.9644 0.0023 23.3544ZM5.6823 12.0244C5.6823 11.1444 6.4023 10.4444 7.2623 10.4444C8.1423 10.4444 8.8523 11.1444 8.8523 12.0244C8.8523 12.8744 8.1423 13.6044 7.2623 13.6044C6.4023 13.6044 5.6823 12.8944 5.6823 12.0244Z" />
        </svg>
    