
        <svg xmlns="http://www.w3.org/2000/svg" viewBox="0 0 100 100">
            <path d="M11.9523 23.9041C18.5523 23.9041 23.9023 18.5541 23.9023 11.9541C23.9023 5.3541 18.5523 0.0041 11.9523 0.0041C5.3523 0.0041 0.0023 5.3541 0.0023 11.9541C0.0023 18.5541 5.3523 23.9041 11.9523 23.9041ZM11.9523 21.9141C6.4423 21.9141 1.9923 17.4641 1.9923 11.9541C1.9923 6.4441 6.4423 1.9941 11.9523 1.9941C17.4623 1.9941 21.9123 6.4441 21.9123 11.9541C21.9123 17.4641 17.4623 21.9141 11.9523 21.9141ZM8.2123 11.9541C8.2123 14.0041 9.9123 15.7041 11.9523 15.7041C12.5323 15.7041 13.0623 15.5541 13.5223 15.2841C12.4323 17.0841 10.4223 18.1441 7.9923 18.1441C7.5923 18.1441 7.3123 18.4441 7.3123 18.8041C7.3123 19.1741 7.5923 19.4741 7.9923 19.4741C12.3023 19.4741 15.6923 16.5241 15.6923 11.9541C15.6923 9.9041 13.9923 8.2041 11.9523 8.2041C11.3823 8.2041 10.8423 8.3541 10.3823 8.6241C11.4723 6.8241 13.4923 5.7641 15.9223 5.7641C16.3123 5.7641 16.5923 5.4641 16.5923 5.0841C16.5923 4.7241 16.3023 4.4341 15.9223 4.4341C11.6023 4.4341 8.2123 7.3841 8.2123 11.9541ZM10.7923 11.9541C10.7923 11.3241 11.3223 10.7941 11.9523 10.7941C12.5823 10.7941 13.1123 11.3241 13.1123 11.9541C13.1123 12.5741 12.5823 13.1141 11.9523 13.1141C11.3223 13.1141 10.7923 12.5841 10.7923 11.9541Z" />
        </svg>
    