
        <svg xmlns="http://www.w3.org/2000/svg" viewBox="0 0 100 100">
            <path d="M15.6123 17.0466V17.9266H22.8823C26.0323 17.9266 27.8423 15.9866 27.8423 13.3866C27.8423 11.2466 26.6023 9.3666 24.2623 8.6566C24.4323 3.7066 20.9323 -0.0034 16.4523 -0.0034C13.2423 -0.0034 11.1123 1.7966 9.9423 3.9466C7.2923 3.0966 4.1523 5.0066 4.1823 8.1566C1.6923 8.3366 0.0023 10.2766 0.0023 12.8466C0.0023 15.7266 2.0023 17.9266 5.5123 17.9266H11.9523V17.0466H5.4923C2.5123 17.0466 0.8623 15.2266 0.8623 12.8466C0.8623 10.6066 2.3123 8.8966 4.7823 8.8966C4.9123 8.8966 4.9723 8.8166 4.9723 8.6966C4.9723 5.4366 7.5923 4.1266 10.1323 4.8466C10.2523 4.8866 10.3223 4.8666 10.3923 4.7566C11.5623 2.6966 13.3523 0.8666 16.4523 0.8666C20.2823 0.8666 23.1223 3.8766 23.4123 7.7366C23.4423 8.1466 23.4023 8.6266 23.3923 9.0866C23.3923 9.1966 23.4423 9.2666 23.5423 9.3066C25.6623 9.8366 26.9623 11.3866 26.9623 13.3866C26.9623 15.5066 25.5323 17.0466 22.8623 17.0466ZM13.7823 23.9066C14.0123 23.9066 14.2123 23.7066 14.2123 23.4766V11.0366L14.1823 9.4066L15.0423 10.2766L17.4623 12.7266C17.5423 12.8166 17.6723 12.8766 17.7823 12.8766C17.9923 12.8766 18.1623 12.6866 18.1623 12.4766C18.1623 12.3666 18.1323 12.2766 18.0323 12.1866L14.0823 8.2466C13.9923 8.1566 13.8823 8.1166 13.7823 8.1166C13.6623 8.1166 13.5723 8.1566 13.4623 8.2466L9.5023 12.1866C9.4223 12.2766 9.3723 12.3666 9.3723 12.4766C9.3723 12.6866 9.5423 12.8766 9.7623 12.8766C9.8623 12.8766 9.9923 12.8166 10.0823 12.7266L12.4923 10.2766L13.3723 9.3866L13.3523 11.0366V23.4766C13.3523 23.7066 13.5323 23.9066 13.7823 23.9066Z" />
        </svg>
    