
        <svg xmlns="http://www.w3.org/2000/svg" viewBox="0 0 100 100">
            <path d="M19.2623 17.3592V20.9792H24.9623C28.8123 20.9792 31.3723 18.7592 31.3723 15.4092C31.3723 12.5892 29.9323 10.3992 27.5023 9.4692C27.4923 3.9592 23.4723 -0.0008 18.2323 -0.0008C15.2723 -0.0008 12.7123 1.3492 11.0423 3.6792C7.8823 3.0692 4.7323 5.3192 4.4623 8.6792C1.6923 9.2892 0.0023 11.7092 0.0023 14.7092C0.0023 18.1792 2.7323 20.9792 6.8123 20.9792H11.6623V17.3592H6.8223C4.9123 17.3592 3.7223 16.0692 3.7223 14.5292C3.7223 12.4692 5.2523 11.2992 7.3823 11.2992C7.5823 11.2992 7.6723 11.1892 7.6523 10.9992C7.3623 7.8292 9.5823 6.3492 12.4323 7.1392C12.5823 7.1792 12.7223 7.1492 12.7923 6.9992C13.8623 4.9192 15.6123 3.6192 18.1623 3.6192C21.4223 3.6192 23.8923 6.1792 24.0423 9.3792C24.0923 10.2392 24.0123 11.0692 23.9423 11.6992C23.9223 11.8792 23.9923 11.9892 24.1923 11.9992C26.3623 12.2592 27.6323 13.2292 27.6323 14.9892C27.6323 16.4292 26.7623 17.3592 24.7623 17.3592ZM15.4523 26.4692C16.3523 26.4692 17.0423 25.7492 17.0423 24.9092V14.5192L16.7923 12.8192L17.3923 13.7392L18.6223 15.0492C18.8823 15.3192 19.2423 15.4792 19.6323 15.4792C20.3223 15.4792 20.9723 14.9692 20.9723 14.1892C20.9723 13.8092 20.8323 13.5192 20.5623 13.2492L16.7423 9.5892C16.3223 9.1792 15.8923 9.0392 15.4523 9.0392C15.0323 9.0392 14.6023 9.1792 14.1823 9.5892L10.3623 13.2492C10.0923 13.5192 9.9523 13.8092 9.9523 14.1892C9.9523 14.9692 10.5923 15.4792 11.2823 15.4792C11.6823 15.4792 12.0423 15.3192 12.3023 15.0492L13.5323 13.7392L14.1223 12.8092L13.8823 14.5192V24.9092C13.8823 25.7492 14.5623 26.4692 15.4523 26.4692Z" />
        </svg>
    