
        <svg xmlns="http://www.w3.org/2000/svg" viewBox="0 0 100 100">
            <path d="M23.4923 19.6084C26.6523 19.2184 28.7723 16.9884 28.7723 14.2184C28.7723 11.8284 27.4223 9.7284 25.1123 8.8584C25.1923 3.7384 21.5523 -0.0016 16.9023 -0.0016C13.7023 -0.0016 11.4923 1.7384 10.1923 3.8484C9.3823 3.5984 8.5223 3.6184 7.7323 3.8584L9.0823 5.1984C9.5723 5.1284 10.1123 5.1784 10.6423 5.3284C10.7723 5.3684 10.8523 5.3484 10.9123 5.2284C12.0723 3.1884 13.8323 1.4484 16.9023 1.4484C20.7323 1.4484 23.4723 4.4784 23.7023 8.1184C23.7423 8.6084 23.6923 9.1784 23.6723 9.6784C23.6623 9.8184 23.7223 9.8984 23.8523 9.9384C25.9723 10.4384 27.3123 12.0784 27.3123 14.2184C27.3123 16.4984 25.2923 18.2884 22.6723 18.2884H22.1823ZM22.9223 22.8184C23.1923 23.0984 23.6323 23.0984 23.9023 22.8184C24.1723 22.5584 24.1923 22.0984 23.9023 21.8284L4.1823 2.1084C3.9123 1.8384 3.4523 1.8484 3.1923 2.1084C2.9223 2.3784 2.9323 2.8484 3.1923 3.1084ZM6.7523 19.7184H18.0323L16.5723 18.2784H6.7523C3.7123 18.2784 1.4523 16.1884 1.4523 13.6484C1.4523 11.2884 2.8723 9.4184 5.3523 9.4184C5.5123 9.4184 5.5623 9.3384 5.5623 9.1984C5.5623 8.5784 5.6723 8.0484 5.8823 7.6084L4.7123 6.4184C4.4223 6.9584 4.2523 7.5984 4.2523 8.2884C1.6623 8.5984 0.0023 10.8484 0.0023 13.6484C0.0023 17.0084 2.8923 19.7184 6.7523 19.7184Z" />
        </svg>
    