
        <svg xmlns="http://www.w3.org/2000/svg" viewBox="0 0 100 100">
            <path d="M23.4923 19.6084C26.6223 19.2184 28.7723 16.9884 28.7723 14.2184C28.7723 11.8284 27.4223 9.7284 25.1123 8.8584C25.1923 3.7384 21.5523 -0.0016 16.9023 -0.0016C13.7023 -0.0016 11.4923 1.7384 10.1923 3.8484C9.4223 3.5584 8.5223 3.5384 7.6923 3.7984ZM22.9223 22.8184C23.1923 23.0984 23.6323 23.0984 23.9023 22.8184C24.1723 22.5584 24.1923 22.0984 23.9023 21.8284L4.1823 2.1084C3.9123 1.8384 3.4523 1.8484 3.1923 2.1084C2.9223 2.3784 2.9323 2.8484 3.1923 3.1084ZM6.7523 19.7384H18.0323L4.6923 6.4084C4.4223 6.9584 4.2523 7.5984 4.2523 8.2884C1.6623 8.5984 0.0023 10.8484 0.0023 13.6484C0.0023 17.0084 2.8923 19.7384 6.7523 19.7384Z" />
        </svg>
    