
        <svg xmlns="http://www.w3.org/2000/svg" viewBox="0 0 100 100">
            <path d="M18.4323 17.3594V19.9694H24.2223C27.9423 19.9694 30.2623 17.7794 30.2623 14.7294C30.2623 12.1794 28.8323 10.1294 26.4823 9.1994C26.4823 3.8594 22.6323 -0.0006 17.6523 -0.0006C14.5523 -0.0006 12.1723 1.5594 10.6623 3.7294C7.7923 3.0494 4.5123 5.1894 4.3723 8.5094C1.6623 9.0094 0.0023 11.2694 0.0023 14.1494C0.0023 17.3694 2.4723 19.9694 6.4123 19.9694H11.6923V17.3594H6.4123C3.9923 17.3594 2.6523 15.8794 2.6523 14.0694C2.6523 11.8994 4.1123 10.4394 6.4523 10.4394C6.6223 10.4394 6.7023 10.3494 6.6923 10.1694C6.5723 6.7494 9.0123 5.5594 11.6023 6.3094C11.7523 6.3394 11.8623 6.3194 11.9323 6.1794C13.0423 4.1294 14.7823 2.6094 17.6223 2.6094C21.2223 2.6094 23.8023 5.4494 23.9723 8.8194C24.0123 9.4894 23.9623 10.2094 23.9023 10.7894C23.8823 10.9594 23.9523 11.0494 24.1123 11.0694C26.2723 11.4494 27.6023 12.6494 27.6023 14.5594C27.6023 16.2094 26.4723 17.3594 24.1423 17.3594ZM15.0723 25.7594C15.7223 25.7594 16.2623 25.2094 16.2623 24.5694V13.5894L16.1223 11.8594L16.7623 12.6494L18.3323 14.3194C18.5323 14.5394 18.8223 14.6694 19.1123 14.6694C19.6923 14.6694 20.1823 14.2494 20.1823 13.6494C20.1823 13.3394 20.0523 13.1094 19.8423 12.8994L15.9923 9.1994C15.6823 8.8994 15.3823 8.7894 15.0723 8.7894C14.7423 8.7894 14.4523 8.8994 14.1323 9.1994L10.2923 12.8994C10.0823 13.1094 9.9623 13.3394 9.9623 13.6494C9.9623 14.2494 10.4323 14.6694 11.0023 14.6694C11.3123 14.6694 11.6023 14.5394 11.8123 14.3194L13.3823 12.6494L14.0023 11.8594L13.8623 13.5894V24.5694C13.8623 25.2094 14.4023 25.7594 15.0723 25.7594Z" />
        </svg>
    