
        <svg xmlns="http://www.w3.org/2000/svg" viewBox="0 0 100 100">
            <path d="M1.4417 28.2972H27.6817C28.4517 28.2972 29.1317 27.6672 29.1317 26.8572C29.1317 26.0772 28.4517 25.4172 27.6817 25.4172H27.0917V24.3172C27.0917 23.6672 26.6817 23.2772 26.0517 23.2772H25.5917V9.4672H26.5317C27.4917 9.4672 28.0517 8.7572 28.0517 8.0372C28.0517 7.5072 27.7617 7.0272 27.1517 6.6672L16.4617 0.5072C15.9217 0.1972 15.2917 -0.0028 14.7117 -0.0028C14.1217 -0.0028 13.4917 0.1972 12.9517 0.5072L2.2617 6.6672C1.6517 7.0272 1.3617 7.5072 1.3617 8.0372C1.3617 8.7572 1.9217 9.4672 2.8917 9.4672H3.8317V23.2772H3.3717C2.7317 23.2772 2.3317 23.6672 2.3317 24.3172V25.4172H1.4417C0.6717 25.4172 0.0017 26.0772 0.0017 26.8572C0.0017 27.6572 0.6717 28.2972 1.4417 28.2972ZM14.3217 16.8672L13.9417 16.8972L16.2217 19.0572C16.4717 19.2972 16.6717 19.6572 16.6717 19.9672C16.6717 20.6272 16.0417 21.1772 15.4217 21.1772C14.9617 21.1772 14.6617 20.9172 14.3517 20.6172L11.1517 17.4772C10.7617 17.0972 10.4617 16.7672 10.4617 16.2772V16.1972C10.4617 15.4872 10.9917 15.1972 11.6117 15.1972H13.0317C14.0717 15.1972 14.8917 14.8872 15.0517 13.8872H10.9617C10.7617 13.8872 10.6217 13.7272 10.6217 13.5572C10.6217 13.3672 10.7617 13.2172 10.9617 13.2172H15.0317C14.8717 12.2572 14.0117 11.9072 13.0217 11.9072H11.3517C10.8317 11.9072 10.4517 11.5572 10.4517 11.0672V11.0272C10.4517 10.5272 10.8317 10.1672 11.3517 10.1672H18.9017C19.1017 10.1672 19.2317 10.3272 19.2317 10.5072C19.2317 10.6972 19.1017 10.8372 18.9017 10.8372H16.3617C17.1717 11.3872 17.5417 12.2472 17.6017 13.2172H18.9017C19.1017 13.2172 19.2317 13.3672 19.2317 13.5572C19.2317 13.7472 19.1017 13.8872 18.9017 13.8872H17.5917C17.4217 15.3472 16.2617 16.6972 14.3217 16.8672Z" />
        </svg>
    