
        <svg xmlns="http://www.w3.org/2000/svg" viewBox="0 0 100 100">
            <path d="M27.0823 13.4978C27.0823 6.4078 21.6123 0.5678 14.6723 0.0078C14.2923 -0.0422 14.0123 0.2378 14.0123 0.6178V4.0278C14.0123 4.3378 14.2423 4.5878 14.5623 4.6178C19.0123 5.1278 22.4623 8.9078 22.4623 13.4978C22.4623 15.5878 21.7523 17.5278 20.5123 19.0578C20.3123 19.3078 20.3123 19.6078 20.5423 19.8378L22.9823 22.2678C23.2523 22.5178 23.6323 22.5178 23.8823 22.2378C25.8723 19.8778 27.0823 16.8178 27.0823 13.4978ZM0.0023 13.4978C0.0023 16.8378 1.2223 19.9078 3.2223 22.2578C3.4523 22.5378 3.8323 22.5178 4.1023 22.2678L6.5423 19.8378C6.7723 19.6078 6.7723 19.3078 6.5723 19.0578C5.3323 17.5278 4.6123 15.5878 4.6123 13.4978C4.6123 8.9078 8.0723 5.1278 12.5123 4.6178C12.8423 4.5878 13.0623 4.3378 13.0623 4.0278V0.6178C13.0623 0.2378 12.7823 -0.0422 12.4123 0.0078C5.4723 0.5678 0.0023 6.4078 0.0023 13.4978ZM12.1923 14.3478C13.9723 14.3478 15.4923 13.6178 15.6523 11.7978H16.6623C16.8023 11.7978 16.9223 11.6778 16.9223 11.5378C16.9223 11.3978 16.8023 11.2778 16.6623 11.2778H15.6823C15.6223 10.4778 15.2823 9.6878 14.5323 9.2178H16.6623C16.8023 9.2178 16.9223 9.0978 16.9223 8.9578C16.9223 8.8078 16.8023 8.6978 16.6623 8.6978H10.3723C10.1923 8.6978 10.0923 8.8178 10.0923 9.0078V9.0678C10.0923 9.2478 10.1923 9.3678 10.3723 9.3678H12.4223C13.7223 9.3678 14.7423 9.9578 14.8623 11.2778H10.3323C10.1923 11.2778 10.0823 11.3978 10.0823 11.5378C10.0823 11.6778 10.1923 11.7978 10.3323 11.7978H14.8523C14.7223 13.1678 13.6123 13.6578 12.2423 13.6578H10.5323C10.2623 13.6578 10.0923 13.8178 10.0923 14.0678V14.0778C10.0923 14.2778 10.1923 14.4178 10.3623 14.5578L14.6923 18.5778C14.8323 18.6978 14.9323 18.7778 15.0923 18.7778C15.3123 18.7778 15.4523 18.5978 15.4523 18.4278C15.4523 18.2878 15.3723 18.1878 15.2823 18.0978L11.2123 14.3478Z" />
        </svg>
    