
        <svg xmlns="http://www.w3.org/2000/svg" viewBox="0 0 100 100">
            <path d="M0.8706 9.7864C-0.0094 9.7864 -0.2294 10.4364 0.2506 11.0964L2.9706 14.8864C3.3406 15.4064 3.9306 15.3964 4.3006 14.8864L7.0206 11.0864C7.4906 10.4364 7.2706 9.7864 6.4006 9.7864H4.8206C5.8606 5.5264 9.6806 2.3764 14.2606 2.3764C19.6306 2.3764 23.9806 6.7264 23.9806 12.1064C23.9806 17.4864 19.6306 21.8164 14.2606 21.8164C11.1206 21.8164 8.3506 20.3364 6.5906 18.0264C6.1206 17.4764 5.4406 17.2964 4.8606 17.7064C4.3306 18.0964 4.2206 18.8564 4.7206 19.4764C6.8606 22.3464 10.4506 24.2064 14.2606 24.2064C20.9406 24.2064 26.3706 18.7864 26.3706 12.1064C26.3706 5.4264 20.9406 -0.0036 14.2606 -0.0036C8.3706 -0.0036 3.4606 4.2064 2.3806 9.7864ZM13.2306 13.1564C15.0706 13.1264 16.4106 12.0964 16.6306 10.3964H17.6106C17.8406 10.3964 18.0006 10.2264 18.0006 10.0164C18.0006 9.8164 17.8406 9.6564 17.6106 9.6564H16.6506C16.5806 8.8464 16.2606 8.1164 15.6206 7.6164H17.6106C17.8406 7.6164 18.0006 7.4564 18.0006 7.2564C18.0006 7.0264 17.8406 6.8764 17.6106 6.8764H10.9906C10.6506 6.8764 10.4306 7.1164 10.4306 7.4664V7.5364C10.4306 7.8964 10.6506 8.1164 10.9906 8.1164H12.8306C13.9406 8.1164 14.8406 8.5664 15.0006 9.6564H10.8606C10.6406 9.6564 10.4806 9.8164 10.4806 10.0164C10.4806 10.2264 10.6406 10.3964 10.8606 10.3964H15.0006C14.8406 11.5164 13.9606 11.9164 12.8206 11.9164H11.2606C10.7806 11.9164 10.4506 12.1964 10.4506 12.6464V12.6864C10.4506 13.0564 10.6406 13.2764 10.9206 13.5464L14.7006 17.1064C14.9206 17.3164 15.1106 17.4864 15.4406 17.4864C15.8306 17.4864 16.1706 17.1464 16.1706 16.7564C16.1706 16.5164 16.0406 16.3264 15.8606 16.1464L12.6806 13.1564Z" />
        </svg>
    