
        <svg xmlns="http://www.w3.org/2000/svg" viewBox="0 0 100 100">
            <path d="M3.8417 21.8745H18.0317C20.5617 21.8745 21.8817 20.5745 21.8817 18.0745V3.8045C21.8817 1.3145 20.5617 0.0045 18.0317 0.0045H3.8417C1.3117 0.0045 0.0017 1.3045 0.0017 3.8045V18.0745C0.0017 20.5745 1.3117 21.8745 3.8417 21.8745ZM3.9817 19.5845C2.8917 19.5845 2.3017 19.0145 2.3017 17.8845V4.0045C2.3017 2.8745 2.8917 2.2945 3.9817 2.2945H17.8917C18.9717 2.2945 19.5817 2.8745 19.5817 4.0045V17.8845C19.5817 19.0145 18.9717 19.5845 17.8917 19.5845ZM9.9117 11.9845C11.7517 11.9545 13.0917 10.9245 13.3117 9.2245H14.3017C14.5117 9.2245 14.6817 9.0545 14.6817 8.8445C14.6817 8.6445 14.5117 8.4845 14.3017 8.4845H13.3317C13.2617 7.6745 12.9417 6.9445 12.3017 6.4445H14.3017C14.5117 6.4445 14.6817 6.2845 14.6817 6.0845C14.6817 5.8545 14.5117 5.7045 14.3017 5.7045H7.6717C7.3317 5.7045 7.1117 5.9445 7.1117 6.2945V6.3645C7.1117 6.7245 7.3317 6.9445 7.6717 6.9445H9.5117C10.6217 6.9445 11.5217 7.3945 11.6817 8.4845H7.5517C7.3217 8.4845 7.1617 8.6445 7.1617 8.8445C7.1617 9.0545 7.3217 9.2245 7.5517 9.2245H11.6817C11.5217 10.3445 10.6417 10.7445 9.5017 10.7445H7.9417C7.4617 10.7445 7.1417 11.0245 7.1417 11.4745V11.5145C7.1417 11.8845 7.3117 12.1045 7.6017 12.3745L11.3817 15.9345C11.6017 16.1445 11.7917 16.3145 12.1217 16.3145C12.5117 16.3145 12.8517 15.9745 12.8517 15.5845C12.8517 15.3445 12.7217 15.1545 12.5417 14.9745L9.3617 11.9845Z" />
        </svg>
    