
        <svg xmlns="http://www.w3.org/2000/svg" viewBox="0 0 100 100">
            <path d="M11.3523 22.7064C17.6023 22.7064 22.7123 17.6064 22.7123 11.3564C22.7123 5.1064 17.6023 -0.0036 11.3523 -0.0036C5.1123 -0.0036 0.0023 5.1064 0.0023 11.3564C0.0023 17.6064 5.1123 22.7064 11.3523 22.7064ZM9.9823 11.9664H8.8923L13.1223 15.8564C13.1923 15.9264 13.2823 16.0064 13.2823 16.1264C13.2823 16.2564 13.1723 16.3964 12.9823 16.3964C12.8423 16.3964 12.7723 16.3364 12.6523 16.2464L8.2223 12.1564C8.1023 12.0364 8.0023 11.9064 8.0023 11.7564V11.7464C8.0023 11.5264 8.1423 11.4064 8.3623 11.4064H10.0923C11.5223 11.4064 12.6723 10.8864 12.7823 9.4664H8.2123C8.0823 9.4664 7.9923 9.3664 7.9923 9.2464C7.9923 9.1264 8.0823 9.0264 8.2123 9.0264H12.8123C12.7023 7.6664 11.6723 7.0464 10.3223 7.0464H8.2423C8.1023 7.0464 8.0023 6.9364 8.0023 6.7964V6.7464C8.0023 6.6064 8.1023 6.5064 8.2423 6.5064H14.4723C14.5923 6.5064 14.6823 6.5964 14.6823 6.7264C14.6823 6.8464 14.5923 6.9464 14.4723 6.9464H12.2723C13.0523 7.4064 13.4023 8.2364 13.4523 9.0264H14.4723C14.5923 9.0264 14.6823 9.1264 14.6823 9.2464C14.6823 9.3664 14.5923 9.4664 14.4723 9.4664H13.4323C13.2923 11.3064 11.7323 11.9664 9.9823 11.9664Z" />
        </svg>
    