
        <svg xmlns="http://www.w3.org/2000/svg" viewBox="0 0 100 100">
            <path d="M10.15 21.4119C10.91 21.4119 11.52 20.8519 11.52 20.0819C11.52 19.6419 11.3 19.2919 10.95 18.9619L4.1 12.5819H5.41C9.05 12.5319 11.91 10.6019 12.34 7.0419H14.31C14.74 7.0419 15.06 6.7219 15.06 6.3019C15.06 5.8819 14.74 5.5619 14.31 5.5619H12.36C12.23 3.8419 11.52 2.4119 10.25 1.4719L14.31 1.4919C14.74 1.4919 15.06 1.1719 15.06 0.7519C15.06 0.3119 14.74 0.0119 14.31 0.0119L1.03 0.0019C0.4 0.0019 0 0.4219 0 1.1119V1.2519C0 1.9219 0.4 2.3319 1.03 2.3319H4.85C7.21 2.3319 9.05 3.3019 9.36 5.5619H0.81C0.39 5.5619 0.06 5.8819 0.06 6.3019C0.06 6.7219 0.39 7.0419 0.81 7.0419H9.38C9.06 9.3719 7.15 10.2419 4.78 10.2419H1.55C0.73 10.2419 0.05 10.7119 0.05 11.6019V11.6719C0.05 12.3519 0.4 12.7819 0.89 13.2619L8.84 20.7419C9.25 21.1419 9.63 21.4119 10.15 21.4119Z" />
        </svg>
    