
        <svg xmlns="http://www.w3.org/2000/svg" viewBox="0 0 100 100">
            <path d="M10.05 21.4336C10.92 21.4336 11.67 20.7536 11.67 19.8836C11.67 19.3836 11.41 18.9736 11.03 18.5936L4.71 12.7036L5.86 12.6936C9.5 12.5936 12.29 10.5736 12.71 7.0936H14.81C15.23 7.0936 15.54 6.7836 15.54 6.3736C15.54 5.9636 15.23 5.6636 14.81 5.6636H12.74C12.6 3.8936 11.87 2.4136 10.55 1.4436H14.81C15.23 1.4436 15.54 1.1336 15.54 0.7236C15.54 0.3036 15.23 0.0136 14.81 0.0136L1.2 0.0036C0.46 0.0036 0 0.4736 0 1.2336V1.3636C0 2.1136 0.46 2.5636 1.2 2.5636H4.89C7.16 2.5636 8.95 3.4836 9.28 5.6636H0.86C0.43 5.6636 0.12 5.9636 0.12 6.3736C0.12 6.7836 0.43 7.0936 0.86 7.0936H9.29C8.98 9.3436 7.13 10.1636 4.84 10.1636H1.71C0.79 10.1636 0.04 10.6536 0.04 11.6336V11.7336C0.04 12.4836 0.46 12.9736 1 13.4836L8.57 20.6736C9.04 21.1336 9.5 21.4336 10.05 21.4336Z" />
        </svg>
    