
        <svg xmlns="http://www.w3.org/2000/svg" viewBox="0 0 100 100">
            <path d="M9.5817 21.5422C11.0017 21.5422 12.4017 20.3122 12.4017 18.8622C12.4017 18.0822 11.9717 17.4122 11.4117 16.8522L7.7417 13.2922L8.1217 13.2622C11.7217 12.9422 14.2217 10.4022 14.5617 7.3522H17.3017C17.6617 7.3522 17.9417 7.0822 17.9417 6.7222C17.9417 6.3622 17.6617 6.1022 17.3017 6.1022H14.5817C14.4417 4.0822 13.6617 2.3522 12.0217 1.2522H17.3017C17.6617 1.2522 17.9417 0.9822 17.9417 0.6322C17.9417 0.2722 17.6617 0.0022 17.3017 0.0022H2.0117C0.7717 0.0022 0.0017 0.7122 0.0017 1.8522V1.9022C0.0017 3.0322 0.7717 3.7422 2.0117 3.7422H5.1117C6.9617 3.7422 8.5217 4.3222 8.8817 6.1022H1.0517C0.6917 6.1022 0.4117 6.3622 0.4117 6.7222C0.4117 7.0822 0.6917 7.3522 1.0517 7.3522H8.8917C8.5817 9.1522 7.0217 9.7022 5.1117 9.7022H2.5117C1.0617 9.7022 0.0117 10.3522 0.0117 11.8222V11.9722C0.0117 13.1022 0.7617 13.9022 1.5017 14.6322L7.2517 20.3422C8.0117 21.1022 8.8317 21.5422 9.5817 21.5422Z" />
        </svg>
    