
        <svg xmlns="http://www.w3.org/2000/svg" viewBox="0 0 100 100">
            <path d="M1.1517 26.3763H26.2517C26.8717 26.3763 27.4017 25.8663 27.4017 25.2263C27.4017 24.5963 26.8717 24.0863 26.2517 24.0863H25.6417V23.1163C25.6417 22.5863 25.3117 22.2563 24.7717 22.2563H24.1517V8.6363H25.1417C25.9117 8.6363 26.3717 8.0663 26.3717 7.4863C26.3717 7.0663 26.1217 6.6763 25.6217 6.3863L15.3317 0.4563C14.8317 0.1663 14.2817 -0.0038 13.7617 -0.0038C13.2317 -0.0038 12.6817 0.1663 12.1917 0.4563L1.9017 6.3863C1.3817 6.6763 1.1617 7.0663 1.1617 7.4863C1.1617 8.0663 1.6017 8.6363 2.3917 8.6363H3.3917V22.2563H2.7517C2.2117 22.2563 1.8917 22.5863 1.8917 23.1163V24.0863H1.1517C0.5317 24.0863 0.0017 24.5963 0.0017 25.2263C0.0017 25.8663 0.5317 26.3763 1.1517 26.3763ZM12.8517 15.4363L12.3417 15.4463L15.3917 18.3163C15.5817 18.5163 15.7517 18.7463 15.7517 19.0163C15.7517 19.4862 15.3317 19.8863 14.8617 19.8863C14.4817 19.8863 14.2617 19.6863 14.0117 19.4563L10.2617 15.8863C9.9517 15.5863 9.7417 15.3263 9.7417 14.9163V14.8563C9.7417 14.3463 10.1217 14.0463 10.6517 14.0463H12.2217C13.3717 14.0463 14.2617 13.6663 14.4217 12.5363H10.1717C9.9617 12.5363 9.8017 12.3663 9.8017 12.1663C9.8017 11.9563 9.9617 11.7863 10.1717 11.7863H14.4217C14.2517 10.6962 13.3317 10.2663 12.2217 10.2663H10.3717C9.9717 10.2663 9.7117 9.9963 9.7117 9.5963V9.5363C9.7117 9.1263 9.9717 8.8563 10.3717 8.8563H17.4217C17.6517 8.8563 17.8017 9.0262 17.8017 9.2463C17.8017 9.4462 17.6517 9.6063 17.4217 9.6063H15.2317C15.9417 10.1363 16.2817 10.9263 16.3517 11.7863H17.4217C17.6517 11.7863 17.8017 11.9563 17.8017 12.1663C17.8017 12.3763 17.6517 12.5363 17.4217 12.5363H16.3317C16.1117 14.2263 14.7817 15.3763 12.8517 15.4363Z" />
        </svg>
    