
        <svg xmlns="http://www.w3.org/2000/svg" viewBox="0 0 100 100">
            <path d="M11.7523 23.5048C18.2423 23.5048 23.5123 18.2448 23.5123 11.7548C23.5123 5.2648 18.2423 0.0048 11.7523 0.0048C5.2623 0.0048 0.0023 5.2648 0.0023 11.7548C0.0023 18.2448 5.2623 23.5048 11.7523 23.5048ZM11.7523 21.9848C6.0923 21.9848 1.5223 17.4148 1.5223 11.7548C1.5223 6.0948 6.0923 1.5148 11.7523 1.5148C17.4123 1.5148 21.9923 6.0948 21.9923 11.7548C21.9923 17.4148 17.4123 21.9848 11.7523 21.9848ZM3.9423 11.7548C3.9423 13.8748 5.3123 15.3148 7.3223 15.3148C8.4523 15.3148 9.3523 14.8148 10.3723 13.8548L11.7623 12.5348L13.1523 13.8548C14.2223 14.8748 15.1023 15.3148 16.1823 15.3148C18.2123 15.3148 19.5923 13.8748 19.5923 11.7548C19.5923 9.6348 18.2123 8.1748 16.1823 8.1748C15.1023 8.1748 14.2223 8.6248 13.1523 9.6548L11.7623 10.9548L10.3723 9.6548C9.3623 8.6948 8.4523 8.1748 7.3223 8.1748C5.3123 8.1748 3.9423 9.6348 3.9423 11.7548ZM5.1023 11.7548C5.1023 10.3148 6.0023 9.3248 7.3223 9.3248C8.0523 9.3348 8.6723 9.6548 9.5623 10.4848L10.9323 11.7548L9.5623 13.0048C8.7223 13.7948 8.1023 14.1548 7.3223 14.1548C6.0023 14.1548 5.1023 13.1948 5.1023 11.7548ZM12.5823 11.7548L13.9523 10.4848C14.8523 9.6548 15.4723 9.3348 16.1823 9.3248C17.5223 9.3248 18.4323 10.3148 18.4323 11.7548C18.4323 13.1848 17.5323 14.1548 16.1823 14.1548C15.4223 14.1548 14.8023 13.7948 13.9523 13.0048Z" />
        </svg>
    