
        <svg xmlns="http://www.w3.org/2000/svg" viewBox="0 0 100 100">
            <path d="M12.7923 25.5978C19.8723 25.5978 25.6023 19.8678 25.6023 12.7978C25.6023 5.7278 19.8723 -0.0022 12.7923 -0.0022C5.7323 -0.0022 0.0023 5.7278 0.0023 12.7978C0.0023 19.8678 5.7323 25.5978 12.7923 25.5978ZM4.6123 12.7978C4.6123 10.3478 6.1923 8.6578 8.4923 8.6578C9.6723 8.6578 10.7023 9.1478 11.7823 10.1878L12.8223 11.2078L13.8623 10.1878C14.9323 9.1478 15.9623 8.6578 17.1323 8.6578C19.4423 8.6578 21.0223 10.3478 21.0223 12.7978C21.0223 15.2478 19.4423 16.9178 17.1323 16.9178C15.9623 16.9178 14.9423 16.4278 13.8623 15.3978L12.8223 14.3878L11.7823 15.3978C10.7023 16.4278 9.6723 16.9178 8.4923 16.9178C6.1923 16.9178 4.6123 15.2478 4.6123 12.7978ZM6.9423 12.7978C6.9423 13.9178 7.5123 14.5878 8.4923 14.5878C9.0223 14.5878 9.5423 14.3578 10.1723 13.7378L11.1423 12.7978L10.1723 11.8578C9.5423 11.2378 9.0223 11.0078 8.4923 11.0078C7.5123 11.0078 6.9423 11.6578 6.9423 12.7978ZM14.4823 12.7978L15.4523 13.7378C16.1023 14.3578 16.6023 14.5878 17.1323 14.5878C18.1123 14.5878 18.6923 13.9178 18.6923 12.7978C18.6923 11.6578 18.1123 11.0078 17.1323 11.0078C16.6023 11.0078 16.1023 11.2378 15.4523 11.8578Z" />
        </svg>
    