
        <svg xmlns="http://www.w3.org/2000/svg" viewBox="0 0 100 100">
            <path d="M0.0023 6.0127C0.0023 9.6327 2.4223 12.0127 5.7623 12.0127C7.7923 12.0127 9.3123 11.0827 11.1923 9.3027L14.0623 6.6127L16.9123 9.3027C18.7923 11.0827 20.3123 12.0127 22.3323 12.0127C25.6723 12.0127 28.1023 9.6327 28.1023 6.0127C28.1023 2.3927 25.6723 0.0027 22.3323 0.0027C20.3123 0.0027 18.7923 0.9327 16.9123 2.7027L14.0623 5.4127L11.1923 2.7027C9.3123 0.9327 7.7923 0.0027 5.7623 0.0027C2.4223 0.0027 0.0023 2.3927 0.0023 6.0127ZM0.9223 6.0127C0.9223 2.9527 2.9923 0.9227 5.7623 0.9227C7.4923 0.9227 8.8323 1.7827 10.5223 3.3527L13.4223 6.0127L10.5123 8.6727C8.8223 10.2327 7.4723 11.0927 5.7623 11.0927C2.9923 11.0927 0.9223 9.0727 0.9223 6.0127ZM14.6923 6.0127L17.5823 3.3527C19.2623 1.7827 20.6123 0.9227 22.3323 0.9227C25.1123 0.9227 27.1923 2.9527 27.1923 6.0127C27.1923 9.0727 25.1123 11.0927 22.3323 11.0927C20.6223 11.0927 19.2823 10.2327 17.5923 8.6727Z" />
        </svg>
    