
        <svg xmlns="http://www.w3.org/2000/svg" viewBox="0 0 100 100">
            <path d="M3.4617 21.2264H17.7617C20.0517 21.2264 21.2217 20.0464 21.2217 17.7964V3.4264C21.2217 1.1764 20.0517 -0.0036 17.7617 -0.0036H3.4617C1.1717 -0.0036 0.0017 1.1564 0.0017 3.4264V17.7964C0.0017 20.0664 1.1717 21.2264 3.4617 21.2264ZM3.4817 19.7664C2.1717 19.7664 1.4517 19.0764 1.4517 17.7164V3.5064C1.4517 2.1464 2.1717 1.4564 3.4817 1.4564H17.7317C19.0317 1.4564 19.7717 2.1464 19.7717 3.5064V17.7164C19.7717 19.0764 19.0317 19.7664 17.7317 19.7664ZM10.5617 6.2564C11.2717 6.2564 11.8317 5.6864 11.8317 4.9764C11.8317 4.2564 11.2717 3.6764 10.5617 3.6764C9.8417 3.6764 9.2717 4.2564 9.2717 4.9764C9.2717 5.6864 9.8417 6.2564 10.5617 6.2564ZM8.5317 17.0764H13.3217C13.7117 17.0764 13.9917 16.7964 13.9917 16.4164C13.9917 16.0564 13.7117 15.7764 13.3217 15.7764H11.6417V9.1964C11.6417 8.7164 11.3917 8.4064 10.9317 8.4064H8.6817C8.3017 8.4064 8.0017 8.6864 8.0017 9.0464C8.0017 9.4264 8.3017 9.7064 8.6817 9.7064H10.2117V15.7764H8.5317C8.1417 15.7764 7.8517 16.0564 7.8517 16.4164C7.8517 16.7964 8.1417 17.0764 8.5317 17.0764Z" />
        </svg>
    