
        <svg xmlns="http://www.w3.org/2000/svg" viewBox="0 0 100 100">
            <path d="M12.6023 25.1986C19.5623 25.1986 25.2023 19.5586 25.2023 12.5986C25.2023 5.6386 19.5623 -0.0014 12.6023 -0.0014C5.6323 -0.0014 0.0023 5.6386 0.0023 12.5986C0.0023 19.5586 5.6323 25.1986 12.6023 25.1986ZM12.6023 21.5386C7.6523 21.5386 3.6523 17.5386 3.6523 12.5986C3.6523 7.6486 7.6523 3.6586 12.6023 3.6586C17.5423 3.6586 21.5423 7.6486 21.5423 12.5986C21.5423 17.5386 17.5423 21.5386 12.6023 21.5386ZM12.6323 9.4586C13.6023 9.4586 14.4023 8.6486 14.4023 7.6986C14.4023 6.6986 13.6023 5.9186 12.6323 5.9186C11.6823 5.9186 10.8623 6.6986 10.8623 7.6986C10.8623 8.6486 11.6823 9.4586 12.6323 9.4586ZM10.5423 18.6786H15.1023C15.7523 18.6786 16.2523 18.2186 16.2523 17.5386C16.2523 16.9286 15.7523 16.4386 15.1023 16.4386H14.2723V12.2886C14.2723 11.4186 13.8423 10.8386 13.0123 10.8386H10.7823C10.1323 10.8386 9.6323 11.3486 9.6323 11.9486C9.6323 12.6186 10.1323 13.0786 10.7823 13.0786H11.7423V16.4386H10.5423C9.9123 16.4386 9.4123 16.9286 9.4123 17.5386C9.4123 18.2186 9.9123 18.6786 10.5423 18.6786Z" />
        </svg>
    