
        <svg xmlns="http://www.w3.org/2000/svg" viewBox="0 0 100 100">
            <path d="M11.4923 22.977C17.8123 22.977 22.9823 17.827 22.9823 11.497C22.9823 5.167 17.8123 -0.003 11.4923 -0.003C5.1723 -0.003 0.0023 5.167 0.0023 11.497C0.0023 17.827 5.1723 22.977 11.4923 22.977ZM11.4723 6.737C10.9323 6.737 10.4923 6.317 10.4923 5.777C10.4923 5.227 10.9323 4.797 11.4723 4.797C12.0123 4.797 12.4423 5.227 12.4423 5.777C12.4423 6.317 12.0123 6.737 11.4723 6.737ZM9.3323 17.887C9.0723 17.887 8.8823 17.687 8.8823 17.447C8.8823 17.227 9.0723 17.027 9.3323 17.027H11.3123V9.997H9.4123C9.1523 9.997 8.9723 9.797 8.9723 9.567C8.9723 9.337 9.1523 9.137 9.4123 9.137H11.7423C12.0323 9.137 12.2023 9.347 12.2023 9.617V17.027H14.1823C14.4423 17.027 14.6223 17.227 14.6223 17.447C14.6223 17.687 14.4423 17.887 14.1823 17.887Z" />
        </svg>
    