
        <svg xmlns="http://www.w3.org/2000/svg" viewBox="0 0 100 100">
            <path d="M3.1617 20.742H17.5917C19.6617 20.742 20.7417 19.642 20.7417 17.592V3.152C20.7417 1.102 19.6617 0.002 17.5917 0.002H3.1617C1.0917 0.002 0.0017 1.082 0.0017 3.152V17.592C0.0017 19.662 1.0917 20.742 3.1617 20.742ZM3.1917 19.872C1.6617 19.872 0.8717 19.082 0.8717 17.552V3.202C0.8717 1.662 1.6617 0.872 3.1917 0.872H17.5517C19.0317 0.872 19.8717 1.662 19.8717 3.202V17.552C19.8717 19.082 19.0317 19.872 17.5517 19.872ZM10.3617 5.632C10.9017 5.632 11.3317 5.212 11.3317 4.692C11.3317 4.152 10.9017 3.712 10.3617 3.712C9.8317 3.712 9.3917 4.152 9.3917 4.692C9.3917 5.212 9.8317 5.632 10.3617 5.632ZM8.2217 16.712H13.0517C13.3117 16.712 13.4917 16.522 13.4917 16.292C13.4917 16.062 13.3117 15.872 13.0517 15.872H11.0717V8.492C11.0717 8.222 10.9117 8.032 10.6317 8.032H8.3217C8.0617 8.032 7.8917 8.212 7.8917 8.452C7.8917 8.672 8.0617 8.872 8.3217 8.872H10.2117V15.872H8.2217C7.9717 15.872 7.7917 16.062 7.7917 16.292C7.7917 16.522 7.9717 16.712 8.2217 16.712Z" />
        </svg>
    