
        <svg xmlns="http://www.w3.org/2000/svg" viewBox="0 0 100 100">
            <path d="M7.8517 25.4895C8.3817 25.4895 8.8117 25.2495 9.4617 24.6795L13.8517 20.7695H21.2617C24.8417 20.7695 27.0017 18.5895 27.0017 15.0395V5.7395C27.0017 2.1795 24.8417 -0.0005 21.2617 -0.0005H5.7417C2.1517 -0.0005 0.0017 2.1795 0.0017 5.7395V15.0395C0.0017 18.5895 2.3017 20.7695 5.5417 20.7695H6.6017V24.1095C6.6017 24.9495 7.0617 25.4895 7.8517 25.4895ZM13.4917 6.9295C12.5617 6.9295 11.7917 6.1495 11.7917 5.2395C11.7917 4.2795 12.5617 3.5295 13.4917 3.5295C14.4217 3.5295 15.1717 4.2795 15.1717 5.2395C15.1717 6.1495 14.4217 6.9295 13.4917 6.9295ZM11.4517 16.5695C10.8517 16.5695 10.3917 16.1595 10.3917 15.5395C10.3917 14.9695 10.8517 14.5195 11.4517 14.5195H12.7117V10.5495H11.6717C11.0717 10.5495 10.6017 10.1295 10.6017 9.4995C10.6017 8.9395 11.0717 8.4795 11.6717 8.4795H13.8917C14.6517 8.4795 15.0517 9.0095 15.0517 9.8195V14.5195H16.0617C16.6617 14.5195 17.1217 14.9695 17.1217 15.5395C17.1217 16.1595 16.6617 16.5695 16.0617 16.5695Z" />
        </svg>
    