
        <svg xmlns="http://www.w3.org/2000/svg" viewBox="0 0 100 100">
            <path d="M3.449 2.3532C5.169 1.8932 6.459 1.0832 6.269 0.4832C6.089 -0.0868 4.609 -0.1568 2.889 0.3032C1.129 0.7632 -0.131 1.5832 0.009 2.1832C0.139 2.7732 1.699 2.8232 3.449 2.3532ZM11.629 25.2032L11.449 21.1332C11.429 20.5532 11.609 20.2832 12.219 19.6832L15.409 16.6432L12.119 15.9632C11.869 15.9232 11.739 15.8032 11.639 15.4232L8.869 4.9932C8.649 4.1932 8.109 3.8632 7.319 4.0732L6.549 1.3932C6.049 1.9932 4.969 2.5532 3.599 2.9232C2.259 3.2832 1.069 3.3532 0.289 3.1232L1.049 5.7232C0.389 6.0732 0.109 6.8332 0.429 8.0232L4.309 22.1332C4.639 23.3132 5.299 23.9632 6.709 24.2432ZM12.279 25.3332C13.109 25.4932 13.629 25.3332 14.139 24.8332L16.779 22.3332C17.189 21.9532 17.289 21.6532 17.289 21.0032L17.269 18.1332C17.269 17.3032 16.949 16.9632 16.369 16.8432L15.959 16.7632L12.489 20.2232C12.109 20.6032 12.039 20.8332 12.049 21.3432L12.209 25.3232Z" />
        </svg>
    