
        <svg xmlns="http://www.w3.org/2000/svg" viewBox="0 0 100 100">
            <path d="M12.7923 25.5978C19.8723 25.5978 25.6023 19.8678 25.6023 12.7978C25.6023 5.7278 19.8723 -0.0022 12.7923 -0.0022C5.7323 -0.0022 0.0023 5.7278 0.0023 12.7978C0.0023 19.8678 5.7323 25.5978 12.7923 25.5978ZM12.7923 21.4178C8.0323 21.4178 4.1723 17.5678 4.1723 12.7978C4.1723 8.0278 8.0323 4.1678 12.7923 4.1678C17.5623 4.1678 21.4323 8.0278 21.4323 12.7978C21.4323 17.5678 17.5623 21.4178 12.7923 21.4178ZM12.7923 19.1478C16.3123 19.1478 19.1523 16.2978 19.1523 12.7978C19.1523 9.2778 16.3123 6.4478 12.7923 6.4478C9.2923 6.4478 6.4523 9.2778 6.4523 12.7978C6.4523 16.2978 9.2923 19.1478 12.7923 19.1478Z" />
        </svg>
    