
        <svg xmlns="http://www.w3.org/2000/svg" viewBox="0 0 100 100">
            <path d="M0.0017 21.7456C0.0017 24.5556 1.5817 26.1356 4.3717 26.1356H16.9817C19.7617 26.1356 21.3417 24.5556 21.3417 21.7456V4.3756C21.3417 1.5856 19.7617 -0.0044 16.9817 -0.0044H4.3717C1.5817 -0.0044 0.0017 1.5856 0.0017 4.3756ZM3.6217 21.2656V4.8656C3.6217 4.0456 3.9917 3.6256 4.8717 3.6256H16.4617C17.3417 3.6256 17.7217 4.0456 17.7217 4.8656V21.2656C17.7217 22.0856 17.3417 22.5156 16.4617 22.5156H4.8717C3.9917 22.5156 3.6217 22.0856 3.6217 21.2656ZM6.2817 10.6056H15.0717C15.4817 10.6056 15.6517 10.4256 15.6517 10.0156V6.2656C15.6517 5.8556 15.4817 5.6856 15.0717 5.6856H6.2817C5.8617 5.6856 5.6817 5.8556 5.6817 6.2656V10.0156C5.6817 10.4256 5.8617 10.6056 6.2817 10.6056Z" />
        </svg>
    