
        <svg xmlns="http://www.w3.org/2000/svg" viewBox="0 0 100 100">
            <path d="M0.0017 21.5727C0.0017 24.1627 1.3617 25.5427 3.9417 25.5427H16.4517C19.0217 25.5427 20.3917 24.1627 20.3917 21.5727V3.9627C20.3917 1.3727 19.0217 0.0027 16.4517 0.0027H3.9417C1.3617 0.0027 0.0017 1.3727 0.0017 3.9627ZM2.6117 21.3527V4.1827C2.6117 3.1627 3.1317 2.6027 4.2117 2.6027H16.1817C17.2617 2.6027 17.7817 3.1627 17.7817 4.1827V21.3527C17.7817 22.3827 17.2617 22.9327 16.1817 22.9327H4.2117C3.1317 22.9327 2.6117 22.3827 2.6117 21.3527ZM11.0517 12.7627H15.1317C15.7417 12.7627 15.9817 12.5127 15.9817 11.9227V5.2527C15.9817 4.6427 15.7417 4.3927 15.1317 4.3927H11.0517C10.4417 4.3927 10.1917 4.6427 10.1917 5.2527V11.9227C10.1917 12.5127 10.4417 12.7627 11.0517 12.7627Z" />
        </svg>
    