
        <svg xmlns="http://www.w3.org/2000/svg" viewBox="0 0 100 100">
            <path d="M4.5917 23.2425H23.7217C26.6117 23.2425 28.3117 21.5425 28.3117 18.6425V4.5925C28.3117 1.6825 26.6117 0.0025 23.7217 0.0025H4.5917C1.7017 0.0025 0.0017 1.6825 0.0017 4.5925V18.6425C0.0017 21.5425 1.7017 23.2425 4.5917 23.2425ZM5.2217 19.0825C4.5117 19.0825 4.1617 18.7725 4.1617 18.0025V5.2225C4.1617 4.4525 4.5117 4.1625 5.2217 4.1625H23.0817C23.8017 4.1625 24.1517 4.4525 24.1517 5.2225V18.0025C24.1517 18.7725 23.8017 19.0825 23.0817 19.0825ZM6.8317 10.6325H21.4817C21.8017 10.6325 21.9517 10.5025 21.9517 10.1925V6.8225C21.9517 6.5025 21.8217 6.3625 21.5017 6.3625H6.8117C6.4917 6.3625 6.3617 6.5025 6.3617 6.8225V10.1925C6.3617 10.5025 6.5117 10.6325 6.8317 10.6325ZM6.8117 16.8625H12.7517C13.0617 16.8625 13.1917 16.7225 13.1917 16.4025V13.0225C13.1917 12.7025 13.0417 12.5725 12.7217 12.5725H6.8217C6.5017 12.5725 6.3617 12.7025 6.3617 13.0225V16.4025C6.3617 16.7225 6.4917 16.8625 6.8117 16.8625ZM15.5617 16.8625H21.5017C21.8217 16.8625 21.9517 16.7225 21.9517 16.4025V13.0225C21.9517 12.7025 21.8117 12.5725 21.4917 12.5725H15.5717C15.2717 12.5725 15.1217 12.7025 15.1217 13.0225V16.4025C15.1217 16.7225 15.2417 16.8625 15.5617 16.8625Z" />
        </svg>
    