
        <svg xmlns="http://www.w3.org/2000/svg" viewBox="0 0 100 100">
            <path d="M3.0117 20.5048H24.0617C26.0117 20.5048 27.0617 19.4248 27.0617 17.4948V3.0148C27.0617 1.0748 26.0117 0.0048 24.0617 0.0048H3.0117C1.0417 0.0048 0.0017 1.0448 0.0017 3.0148V17.4948C0.0017 19.4648 1.0417 20.5048 3.0117 20.5048ZM3.0317 19.9348C1.4217 19.9348 0.5717 19.0948 0.5717 17.4648V3.0348C0.5717 1.4148 1.4217 0.5748 3.0317 0.5748H24.0217C25.5817 0.5748 26.4817 1.4148 26.4817 3.0348V17.4648C26.4817 19.0948 25.5817 19.9348 24.0217 19.9348ZM3.0217 19.0448H11.9617C12.9817 19.0448 13.5317 18.5048 13.5317 17.4848V3.0248C13.5317 2.0048 12.9817 1.4648 11.9617 1.4648H3.0217C2.0017 1.4648 1.4517 2.0048 1.4517 3.0248V17.4848C1.4517 18.5048 2.0017 19.0448 3.0217 19.0448Z" />
        </svg>
    