
        <svg xmlns="http://www.w3.org/2000/svg" viewBox="0 0 100 100">
            <path d="M0.0017 21.5306C0.0017 24.0606 1.3017 25.3706 3.8117 25.3706H16.2917C18.8017 25.3706 20.1017 24.0606 20.1017 21.5306V3.8406C20.1017 1.3206 18.8017 0.0006 16.2917 0.0006H3.8117C1.3017 0.0006 0.0017 1.3206 0.0017 3.8406ZM2.3017 21.3906V3.9806C2.3017 2.8906 2.8617 2.3006 3.9917 2.3006H16.0917C17.2217 2.3006 17.8017 2.8906 17.8017 3.9806V21.3906C17.8017 22.4806 17.2217 23.0706 16.0917 23.0706H3.9917C2.8617 23.0706 2.3017 22.4806 2.3017 21.3906ZM10.9917 21.3606H15.1517C15.8217 21.3606 16.0917 21.0906 16.0917 20.4406V4.9306C16.0917 4.2806 15.8217 4.0106 15.1517 4.0106H10.9917C10.3217 4.0106 10.0417 4.2806 10.0417 4.9306V20.4406C10.0417 21.0906 10.3217 21.3606 10.9917 21.3606Z" />
        </svg>
    