
        <svg xmlns="http://www.w3.org/2000/svg" viewBox="0 0 100 100">
            <path d="M3.4617 21.2264H23.9917C26.2817 21.2264 27.4417 20.0464 27.4417 17.7964V3.4264C27.4417 1.1764 26.2817 -0.0036 23.9917 -0.0036H3.4617C1.1717 -0.0036 0.0017 1.1564 0.0017 3.4264V17.7964C0.0017 20.0664 1.1717 21.2264 3.4617 21.2264ZM3.4817 19.7664C2.1717 19.7664 1.4517 19.0764 1.4517 17.7164V3.5064C1.4517 2.1464 2.1717 1.4564 3.4817 1.4564H23.9617C25.2517 1.4564 25.9917 2.1464 25.9917 3.5064V17.7164C25.9917 19.0764 25.2517 19.7664 23.9617 19.7664ZM4.0217 18.4064H23.4217C24.2017 18.4064 24.6317 17.9764 24.6317 17.1864V11.8164C24.6317 11.0264 24.2017 10.5964 23.4217 10.5964H4.0217C3.2417 10.5964 2.8117 11.0264 2.8117 11.8164V17.1864C2.8117 17.9764 3.2417 18.4064 4.0217 18.4064Z" />
        </svg>
    