
        <svg xmlns="http://www.w3.org/2000/svg" viewBox="0 0 100 100">
            <path d="M3.6817 21.5722H23.9517C26.4117 21.5722 27.6317 20.3722 27.6317 17.9522V3.6322C27.6317 1.2222 26.4117 0.0022 23.9517 0.0022H3.6817C1.2317 0.0022 0.0017 1.2222 0.0017 3.6322V17.9522C0.0017 20.3722 1.2317 21.5722 3.6817 21.5722ZM3.7017 19.6922C2.5317 19.6922 1.8917 19.0622 1.8917 17.8522V3.7422C1.8917 2.5222 2.5317 1.8822 3.7017 1.8822H23.9317C25.0917 1.8822 25.7417 2.5222 25.7417 3.7422V17.8522C25.7417 19.0622 25.0917 19.6922 23.9317 19.6922ZM4.5117 18.0922H23.1217C23.7817 18.0922 24.1517 17.7022 24.1517 17.0422V11.8222C24.1517 11.1522 23.7817 10.7722 23.1217 10.7722H4.5117C3.8517 10.7722 3.4917 11.1522 3.4917 11.8222V17.0422C3.4917 17.7022 3.8517 18.0922 4.5117 18.0922Z" />
        </svg>
    