
        <svg xmlns="http://www.w3.org/2000/svg" viewBox="0 0 100 100">
            <path d="M11.8323 29.8941C18.7923 29.8941 23.6623 23.6841 23.6623 14.9541C23.6623 6.2141 18.7923 0.0041 11.8323 0.0041C4.8723 0.0041 0.0023 6.2141 0.0023 14.9541C0.0023 23.6841 4.8723 29.8941 11.8323 29.8941ZM11.8323 25.7341C7.3223 25.7341 4.1623 21.2941 4.1623 14.9541C4.1623 8.6141 7.3223 4.1641 11.8323 4.1641C16.3523 4.1641 19.5023 8.6141 19.5023 14.9541C19.5023 21.2941 16.3523 25.7341 11.8323 25.7341ZM11.8323 23.5241C15.1623 23.5241 17.2823 20.2041 17.2823 14.9541C17.2823 9.7041 15.1623 6.3841 11.8323 6.3841C8.4923 6.3841 6.3723 9.7041 6.3723 14.9541C6.3723 20.2041 8.4923 23.5241 11.8323 23.5241Z" />
        </svg>
    