
        <svg xmlns="http://www.w3.org/2000/svg" viewBox="0 0 100 100">
            <path d="M0.0017 21.8597C0.0017 24.7597 1.7017 26.4597 4.5917 26.4597H17.2517C20.1517 26.4597 21.8417 24.7597 21.8417 21.8597V4.6097C21.8417 1.6997 20.1517 -0.0003 17.2517 -0.0003H4.5917C1.7017 -0.0003 0.0017 1.6997 0.0017 4.6097ZM4.1617 21.2197V5.2397C4.1617 4.5097 4.4517 4.1597 5.2417 4.1597H16.6217C17.3917 4.1597 17.6817 4.5097 17.6817 5.2397V21.2197C17.6817 21.9497 17.3917 22.2997 16.6217 22.2997H5.2417C4.4517 22.2997 4.1617 21.9497 4.1617 21.2197ZM6.8117 20.0897H10.4717C10.7917 20.0897 10.9217 19.9497 10.9217 19.6297V6.8297C10.9217 6.5197 10.7917 6.3797 10.4717 6.3797H6.8117C6.4917 6.3797 6.3617 6.5197 6.3617 6.8297V19.6297C6.3617 19.9497 6.4917 20.0897 6.8117 20.0897Z" />
        </svg>
    