
        <svg xmlns="http://www.w3.org/2000/svg" viewBox="0 0 100 100">
            <path d="M3.6817 21.5722H17.8917C20.3517 21.5722 21.5717 20.3722 21.5717 17.9522V3.6322C21.5717 1.2222 20.3517 0.0022 17.8917 0.0022H3.6817C1.2317 0.0022 0.0017 1.2222 0.0017 3.6322V17.9522C0.0017 20.3722 1.2317 21.5722 3.6817 21.5722ZM3.7017 19.6922C2.5317 19.6922 1.8917 19.0622 1.8917 17.8522V3.7422C1.8917 2.5222 2.5317 1.8822 3.7017 1.8822H17.8717C19.0317 1.8822 19.6917 2.5222 19.6917 3.7422V17.8522C19.6917 19.0622 19.0317 19.6922 17.8717 19.6922ZM14.4817 18.0922H17.0417C17.7917 18.0922 18.0917 17.8022 18.0917 17.0722V4.5222C18.0917 3.7822 17.7917 3.4922 17.0417 3.4922H14.4817C13.7317 3.4922 13.4317 3.7822 13.4317 4.5222V17.0722C13.4317 17.8022 13.7317 18.0922 14.4817 18.0922Z" />
        </svg>
    