
        <svg xmlns="http://www.w3.org/2000/svg" viewBox="0 0 100 100">
            <path d="M3.4617 21.2264H17.7617C20.0517 21.2264 21.2217 20.0464 21.2217 17.7964V3.4264C21.2217 1.1764 20.0517 -0.0036 17.7617 -0.0036H3.4617C1.1717 -0.0036 0.0017 1.1564 0.0017 3.4264V17.7964C0.0017 20.0664 1.1717 21.2264 3.4617 21.2264ZM3.4817 19.7664C2.1717 19.7664 1.4517 19.0764 1.4517 17.7164V3.5064C1.4517 2.1464 2.1717 1.4564 3.4817 1.4564H17.7317C19.0317 1.4564 19.7717 2.1464 19.7717 3.5064V17.7164C19.7717 19.0764 19.0317 19.7664 17.7317 19.7664ZM4.0217 18.4264H6.3017C7.1417 18.4264 7.5217 18.0464 7.5217 17.2164V4.0264C7.5217 3.1964 7.1417 2.8264 6.3017 2.8264H4.0217C3.1717 2.8264 2.8017 3.1964 2.8017 4.0264V17.2164C2.8017 18.0464 3.1717 18.4264 4.0217 18.4264Z" />
        </svg>
    