
        <svg xmlns="http://www.w3.org/2000/svg" viewBox="0 0 100 100">
            <path d="M0.0017 21.6142C0.0017 23.6942 1.0817 24.7742 3.1517 24.7742H15.7817C17.8517 24.7742 18.9417 23.6942 18.9417 21.6142V3.1642C18.9417 1.0942 17.8517 0.0042 15.7817 0.0042H3.1517C1.0817 0.0042 0.0017 1.0942 0.0017 3.1642ZM0.8717 21.5842V3.1842C0.8717 1.6642 1.6617 0.8642 3.2017 0.8642H15.7417C17.2717 0.8642 18.0717 1.6642 18.0717 3.1842V21.5842C18.0717 23.1142 17.2717 23.9042 15.7417 23.9042H3.2017C1.6617 23.9042 0.8717 23.1142 0.8717 21.5842ZM3.3617 22.8542H15.5717C16.5317 22.8542 17.0117 22.3742 17.0117 21.4142V17.3242C17.0117 16.3742 16.5317 15.8742 15.5717 15.8742H3.3617C2.4017 15.8742 1.9217 16.3742 1.9217 17.3242V21.4142C1.9217 22.3742 2.4017 22.8542 3.3617 22.8542Z" />
        </svg>
    