
        <svg xmlns="http://www.w3.org/2000/svg" viewBox="0 0 100 100">
            <path d="M3.8417 21.8628H23.9217C26.4517 21.8628 27.7617 20.5628 27.7617 18.0728V3.7928C27.7617 1.3028 26.4517 0.0028 23.9217 0.0028H3.8417C1.3117 0.0028 0.0017 1.2928 0.0017 3.7928V18.0728C0.0017 20.5628 1.3117 21.8628 3.8417 21.8628ZM3.9817 19.5728C2.8917 19.5728 2.3017 19.0028 2.3017 17.8728V3.9928C2.3017 2.8628 2.8917 2.2828 3.9817 2.2828H23.7817C24.8517 2.2828 25.4617 2.8628 25.4617 3.9928V17.8728C25.4617 19.0028 24.8517 19.5728 23.7817 19.5728ZM4.9417 10.0928H22.8017C23.4717 10.0928 23.7517 9.8328 23.7517 9.1628V4.9328C23.7517 4.2728 23.4817 3.9928 22.8317 3.9928H4.9317C4.2617 3.9928 4.0117 4.2728 4.0117 4.9428V9.1628C4.0117 9.8328 4.2817 10.0928 4.9417 10.0928ZM4.9317 17.8628H12.1317C12.7817 17.8628 13.0417 17.5928 13.0417 16.9228V12.7028C13.0417 12.0428 12.7817 11.7628 12.1217 11.7628H4.9317C4.2617 11.7628 4.0117 12.0428 4.0117 12.7128V16.9228C4.0117 17.5928 4.2617 17.8628 4.9317 17.8628ZM15.6317 17.8628H22.8317C23.4817 17.8628 23.7517 17.5928 23.7517 16.9228V12.7028C23.7517 12.0428 23.4817 11.7628 22.8317 11.7628H15.6317C14.9717 11.7628 14.7117 12.0428 14.7117 12.7128V16.9228C14.7117 17.5928 14.9717 17.8628 15.6317 17.8628Z" />
        </svg>
    