
        <svg xmlns="http://www.w3.org/2000/svg" viewBox="0 0 100 100">
            <path d="M3.8417 21.8628H23.9217C26.4517 21.8628 27.7617 20.5628 27.7617 18.0728V3.7928C27.7617 1.3028 26.4517 0.0028 23.9217 0.0028H3.8417C1.3117 0.0028 0.0017 1.2928 0.0017 3.7928V18.0728C0.0017 20.5628 1.3117 21.8628 3.8417 21.8628ZM3.9817 19.5728C2.8917 19.5728 2.3017 19.0028 2.3017 17.8728V3.9928C2.3017 2.8628 2.8917 2.2828 3.9817 2.2828H23.7817C24.8517 2.2828 25.4617 2.8628 25.4617 3.9928V17.8728C25.4617 19.0028 24.8517 19.5728 23.7817 19.5728ZM4.9317 17.8628H12.9717C13.6417 17.8628 13.9017 17.5928 13.9017 16.9228V4.9428C13.9017 4.2728 13.6417 3.9928 12.9717 3.9928H4.9317C4.2617 3.9928 4.0117 4.2728 4.0117 4.9428V16.9228C4.0117 17.5928 4.2617 17.8628 4.9317 17.8628ZM23.4417 10.9228C23.4517 10.4628 23.0617 10.0928 22.6217 10.0928H19.6217L18.0717 10.1528L18.8817 9.3728L20.0717 8.2228C20.2417 8.0828 20.3217 7.8628 20.3217 7.6628C20.3217 7.2028 20.0017 6.8828 19.5717 6.8828C19.3317 6.8828 19.1517 6.9828 18.9917 7.1628L16.0317 10.3128C15.8217 10.5328 15.7517 10.7128 15.7517 10.9228C15.7517 11.1428 15.8217 11.3228 16.0317 11.5428L18.9917 14.6928C19.1517 14.8728 19.3317 14.9628 19.5717 14.9628C19.9917 14.9628 20.3217 14.6328 20.3217 14.2028C20.3217 13.9928 20.2417 13.7728 20.0717 13.6328L18.8817 12.4728L18.0817 11.7028L19.6217 11.7628H22.6217C23.0617 11.7628 23.4217 11.3928 23.4417 10.9228Z" />
        </svg>
    