
        <svg xmlns="http://www.w3.org/2000/svg" viewBox="0 0 100 100">
            <path d="M0.0017 14.2659C0.0017 16.7859 2.0117 18.8059 4.5917 18.8059H21.8717C24.4417 18.8059 26.4717 16.7859 26.4717 14.2659C26.4717 13.4859 26.2217 12.7859 25.9317 12.1259L21.4417 2.2759C20.7817 0.7759 19.5517 -0.0041 17.9217 -0.0041H8.5517C6.9117 -0.0041 5.6917 0.7759 5.0317 2.2759L0.5117 12.1259C0.2317 12.7759 0.0017 13.4859 0.0017 14.2659ZM2.2817 10.3959L5.8617 2.5359C6.3617 1.3859 7.2617 0.7959 8.4617 0.7959H18.0017C19.2117 0.7959 20.1117 1.3859 20.6117 2.5359L24.1617 10.3859C23.5117 9.9759 22.7117 9.7259 21.8717 9.7259H4.5917C3.7417 9.7259 2.9417 9.9759 2.2817 10.3959ZM0.8717 14.2659C0.8717 12.2359 2.4917 10.6059 4.5917 10.6059H21.8717C23.9617 10.6059 25.5917 12.2359 25.5917 14.2659C25.5917 16.3559 23.9617 17.9259 21.8717 17.9259H4.5917C2.4917 17.9259 0.8717 16.2959 0.8717 14.2659ZM10.0417 15.4459C10.0417 15.7159 10.2617 15.9359 10.5517 15.9359C10.8117 15.9359 11.0317 15.7159 11.0317 15.4459V13.0459C11.0317 12.7659 10.8117 12.5459 10.5517 12.5459C10.2617 12.5459 10.0417 12.7659 10.0417 13.0459ZM12.7417 15.4459C12.7417 15.7159 12.9517 15.9359 13.2317 15.9359C13.5117 15.9359 13.7217 15.7159 13.7217 15.4459V13.0459C13.7217 12.7659 13.5117 12.5459 13.2317 12.5459C12.9517 12.5459 12.7417 12.7659 12.7417 13.0459ZM15.4317 15.4459C15.4317 15.7159 15.6417 15.9359 15.9217 15.9359C16.2117 15.9359 16.4217 15.7159 16.4217 15.4459V13.0459C16.4217 12.7659 16.2117 12.5459 15.9217 12.5459C15.6417 12.5459 15.4317 12.7659 15.4317 13.0459ZM18.1317 15.4459C18.1317 15.7159 18.3417 15.9359 18.6217 15.9359C18.8917 15.9359 19.1117 15.7159 19.1117 15.4459V13.0459C19.1117 12.7659 18.8917 12.5459 18.6217 12.5459C18.3417 12.5459 18.1317 12.7659 18.1317 13.0459ZM20.8117 15.4459C20.8117 15.7159 21.0317 15.9359 21.3117 15.9359C21.5817 15.9359 21.8017 15.7159 21.8017 15.4459V13.0459C21.8017 12.7659 21.5817 12.5459 21.3117 12.5459C21.0317 12.5459 20.8117 12.7659 20.8117 13.0459Z" />
        </svg>
    