
        <svg xmlns="http://www.w3.org/2000/svg" viewBox="0 0 100 100">
            <path d="M0.0017 22.0048C0.0017 23.9648 1.1017 25.0448 3.0717 25.0448H15.3617C17.3317 25.0448 18.4317 23.9648 18.4317 22.0048V3.0448C18.4317 1.0848 17.3317 0.0048 15.3617 0.0048H3.0717C1.1017 0.0048 0.0017 1.0848 0.0017 3.0448ZM8.1517 21.8648C7.9317 21.8648 7.7617 21.6948 7.7617 21.4648V3.5748C7.7617 3.3648 7.9317 3.1748 8.1517 3.1748C8.3817 3.1748 8.5517 3.3648 8.5517 3.5748V21.4648C8.5517 21.6948 8.3817 21.8648 8.1517 21.8648ZM13.6617 21.8648C13.4417 21.8648 13.2617 21.6948 13.2617 21.4648V3.5748C13.2617 3.3648 13.4417 3.1748 13.6617 3.1748C13.8917 3.1748 14.0617 3.3648 14.0617 3.5748V21.4648C14.0617 21.6948 13.8917 21.8648 13.6617 21.8648Z" />
        </svg>
    