
        <svg xmlns="http://www.w3.org/2000/svg" viewBox="0 0 100 100">
            <path d="M0.0017 24.4647C0.0017 27.0847 1.6017 28.6747 4.2417 28.6747H17.6917C20.3317 28.6747 21.9417 27.0847 21.9417 24.4647V4.1947C21.9417 1.5947 20.3317 0.0047 17.6917 0.0047H4.2417C1.6017 0.0047 0.0017 1.5947 0.0017 4.1947ZM3.6217 23.8947V4.7847C3.6217 4.0147 3.9817 3.6247 4.8017 3.6247H17.1417C17.9517 3.6247 18.3117 4.0147 18.3117 4.7847V23.8947C18.3117 24.6547 17.9517 25.0447 17.1417 25.0447H4.8017C3.9817 25.0447 3.6217 24.6547 3.6217 23.8947ZM7.1717 23.8347H14.7817C15.2017 23.8347 15.5117 23.5547 15.5117 23.0947C15.5117 22.6547 15.2017 22.3547 14.7817 22.3547H7.1717C6.7517 22.3547 6.4417 22.6547 6.4417 23.0947C6.4417 23.5547 6.7517 23.8347 7.1717 23.8347Z" />
        </svg>
    