
        <svg xmlns="http://www.w3.org/2000/svg" viewBox="0 0 100 100">
            <path d="M0.0017 21.6239C0.0017 23.6039 1.0417 24.6439 3.0117 24.6439H15.0817C17.0617 24.6439 18.1017 23.6039 18.1017 21.6239V3.0239C18.1017 1.0439 17.0617 0.0039 15.0817 0.0039H3.0117C1.0417 0.0039 0.0017 1.0439 0.0017 3.0239ZM0.5717 21.5939V3.0439C0.5717 1.4139 1.4217 0.5739 3.0517 0.5739H15.0617C16.6917 0.5739 17.5317 1.4139 17.5317 3.0439V21.5939C17.5317 23.2239 16.6917 24.0739 15.0617 24.0739H3.0517C1.4217 24.0739 0.5717 23.2239 0.5717 21.5939ZM3.2617 4.4339C3.8917 4.4339 4.4417 3.8739 4.4417 3.2439C4.4417 2.6039 3.8917 2.0639 3.2617 2.0639C2.6017 2.0639 2.0717 2.6039 2.0717 3.2439C2.0717 3.8739 2.6017 4.4339 3.2617 4.4339Z" />
        </svg>
    