
        <svg xmlns="http://www.w3.org/2000/svg" viewBox="0 0 100 100">
            <path d="M11.7523 23.5048C18.2423 23.5048 23.5123 18.2448 23.5123 11.7548C23.5123 5.2648 18.2423 0.0048 11.7523 0.0048C5.2623 0.0048 0.0023 5.2648 0.0023 11.7548C0.0023 18.2448 5.2623 23.5048 11.7523 23.5048ZM18.4823 8.7648C18.4823 7.0348 17.3923 5.9748 15.6123 5.9748H7.9023C6.1023 5.9748 5.0123 7.0348 5.0123 8.7648V19.4648C2.8723 17.5848 1.5223 14.8348 1.5223 11.7548C1.5223 6.0948 6.0923 1.5148 11.7523 1.5148C17.4123 1.5148 21.9923 6.0948 21.9923 11.7548C21.9923 14.8348 20.6323 17.5848 18.4823 19.4748ZM9.8823 7.7648C9.8823 7.5548 10.0223 7.4148 10.2323 7.4148H13.2823C13.4923 7.4148 13.6323 7.5548 13.6323 7.7648C13.6323 7.9948 13.4923 8.1448 13.2823 8.1448H10.2323C10.0223 8.1448 9.8823 7.9948 9.8823 7.7648ZM11.7523 21.9848C9.7723 21.9848 7.9223 21.4248 6.3523 20.4448V9.4848H17.1423V20.4648C15.5823 21.4248 13.7323 21.9848 11.7523 21.9848Z" />
        </svg>
    