
        <svg xmlns="http://www.w3.org/2000/svg" viewBox="0 0 100 100">
            <path d="M15.9006 16.113H13.6206V21.883C13.6206 22.773 13.0806 23.283 12.1506 23.283H3.7606C2.8406 23.283 2.3006 22.773 2.3006 21.883V3.763C2.3006 2.873 2.8406 2.363 3.7606 2.363H12.1506C13.0806 2.363 13.6206 2.873 13.6206 3.763V9.523H15.9006V3.233C15.9006 1.303 14.5806 0.003 12.5906 0.003H3.3706C1.3606 0.003 0.0006 1.303 0.0006 3.233V22.403C0.0006 24.343 1.3606 25.643 3.3706 25.643H12.5906C14.5806 25.643 15.9006 24.343 15.9006 22.403ZM8.1406 12.823C8.1406 13.413 8.6406 13.913 9.2106 13.913H18.6206L20.3706 13.813L19.6206 14.433L17.8406 16.113C17.6206 16.303 17.5206 16.583 17.5206 16.843C17.5206 17.383 17.9106 17.803 18.4406 17.803C18.7306 17.803 18.9406 17.693 19.1406 17.493L22.8506 13.643C23.1206 13.363 23.2106 13.103 23.2106 12.823C23.2106 12.543 23.1206 12.283 22.8506 12.003L19.1406 8.143C18.9406 7.943 18.7306 7.843 18.4406 7.843C17.9106 7.843 17.5206 8.273 17.5206 8.813C17.5206 9.073 17.6206 9.343 17.8406 9.523L19.6206 11.203L20.3706 11.823L18.6206 11.743H9.2106C8.6406 11.743 8.1406 12.223 8.1406 12.823Z" />
        </svg>
    