
        <svg xmlns="http://www.w3.org/2000/svg" viewBox="0 0 100 100">
            <path d="M23.2217 10.382V2.862C23.2217 0.992 22.2317 0.002 20.3917 0.002H2.8617C1.0217 0.002 0.0017 0.992 0.0017 2.862V10.382C0.0017 12.232 1.0217 13.232 2.8617 13.232H20.3917C22.2317 13.232 23.2217 12.232 23.2217 10.382ZM22.3617 10.302C22.3617 11.722 21.7217 12.362 20.3217 12.362H2.9217C1.5117 12.362 0.8917 11.722 0.8917 10.302V8.932C0.8917 8.782 0.9617 8.692 1.1117 8.692H1.2517C1.6217 8.692 1.8917 8.452 1.8917 8.082V5.152C1.8917 4.782 1.6217 4.532 1.2517 4.532H1.1117C0.9617 4.532 0.8917 4.452 0.8917 4.312V2.932C0.8917 1.522 1.5117 0.872 2.9217 0.872H20.3217C21.7217 0.872 22.3617 1.522 22.3617 2.932ZM8.5517 11.592H14.7117C14.9017 11.592 15.0617 11.442 15.0617 11.242C15.0617 11.042 14.9017 10.882 14.7117 10.882H8.5517C8.3517 10.882 8.2017 11.042 8.2017 11.242C8.2017 11.442 8.3517 11.592 8.5517 11.592Z" />
        </svg>
    