
        <svg xmlns="http://www.w3.org/2000/svg" viewBox="0 0 100 100">
            <path d="M11.3523 22.7147C17.6023 22.7147 22.7123 17.6047 22.7123 11.3547C22.7123 5.1047 17.6023 0.0047 11.3523 0.0047C5.1123 0.0047 0.0023 5.1047 0.0023 11.3547C0.0023 17.6047 5.1123 22.7147 11.3523 22.7147ZM7.4223 16.5847V6.1547C7.4223 4.9547 8.0323 4.3347 9.2123 4.3347H13.5123C14.6923 4.3347 15.3023 4.9547 15.3023 6.1547V16.5847C15.3023 17.7747 14.6923 18.3847 13.5123 18.3847H9.2123C8.0323 18.3847 7.4223 17.7747 7.4223 16.5847ZM10.3023 5.4247C10.3023 5.5547 10.4223 5.6747 10.5623 5.6747H12.1623C12.2923 5.6747 12.4223 5.5547 12.4223 5.4247C12.4223 5.2947 12.2923 5.1947 12.1623 5.1947H10.5623C10.4223 5.1947 10.3023 5.2947 10.3023 5.4247ZM8.0023 16.2647H14.7023V6.4547H8.0023ZM4.3623 14.9247C4.2423 15.0847 4.0323 15.0847 3.9023 14.9447C2.9423 13.9847 2.4023 12.6947 2.4023 11.3547C2.4023 10.0347 2.9423 8.7447 3.9023 7.7647C4.0323 7.6247 4.2423 7.6247 4.3623 7.7847C4.4423 7.9147 4.3823 8.0647 4.3023 8.1647C3.4423 9.0747 2.9923 10.1647 2.9923 11.3547C2.9923 12.5547 3.4423 13.6547 4.3023 14.5447C4.3823 14.6447 4.4423 14.8047 4.3623 14.9247ZM18.3623 14.9247C18.2723 14.8047 18.3323 14.6447 18.4223 14.5447C19.2823 13.6547 19.7223 12.5547 19.7223 11.3547C19.7223 10.1647 19.2823 9.0747 18.4223 8.1647C18.3323 8.0647 18.2723 7.9147 18.3623 7.7847C18.4823 7.6247 18.6823 7.6247 18.8223 7.7647C19.7823 8.7447 20.3223 10.0347 20.3223 11.3547C20.3223 12.6947 19.7823 13.9847 18.8223 14.9447C18.6823 15.0847 18.4823 15.0847 18.3623 14.9247ZM16.7623 13.4147C16.6523 13.3047 16.6723 13.1347 16.8023 13.0147C17.2123 12.6647 17.4523 12.0847 17.4523 11.3547C17.4523 10.6447 17.2123 10.0547 16.8023 9.6947C16.6723 9.5747 16.6523 9.4147 16.7623 9.2947C16.8623 9.1447 17.0723 9.1647 17.1923 9.2847C17.7423 9.8447 18.0423 10.5847 18.0423 11.3547C18.0423 12.1447 17.7423 12.8647 17.1923 13.4447C17.0723 13.5547 16.8623 13.5747 16.7623 13.4147ZM5.9523 13.4147C5.8523 13.5747 5.6523 13.5547 5.5323 13.4447C4.9723 12.8647 4.6723 12.1447 4.6723 11.3547C4.6723 10.5847 4.9723 9.8447 5.5323 9.2847C5.6523 9.1647 5.8523 9.1447 5.9523 9.2947C6.0623 9.4147 6.0423 9.5747 5.9023 9.6947C5.5123 10.0547 5.2623 10.6447 5.2623 11.3547C5.2623 12.0847 5.5123 12.6647 5.9023 13.0147C6.0423 13.1347 6.0623 13.3047 5.9523 13.4147ZM11.3523 17.6747C11.5923 17.6747 11.7923 17.4747 11.7923 17.2347C11.7923 17.0047 11.5923 16.8047 11.3523 16.8047C11.1323 16.8047 10.9223 17.0047 10.9223 17.2347C10.9223 17.4747 11.1323 17.6747 11.3523 17.6747Z" />
        </svg>
    