
        <svg xmlns="http://www.w3.org/2000/svg" viewBox="0 0 100 100">
            <path d="M12.1023 24.2147C18.7823 24.2147 24.2123 18.7847 24.2123 12.1047C24.2123 5.4247 18.7823 0.0047 12.1023 0.0047C5.4223 0.0047 0.0023 5.4247 0.0023 12.1047C0.0023 18.7847 5.4223 24.2147 12.1023 24.2147ZM9.4523 19.7347C8.2623 19.7347 7.4523 18.9447 7.4523 17.7847V6.4247C7.4523 5.2647 8.2623 4.4747 9.4523 4.4747H14.7423C15.9423 4.4747 16.7623 5.2647 16.7623 6.4247V17.7847C16.7623 18.9447 15.9423 19.7347 14.7423 19.7347ZM9.6223 18.3647H14.5823C15.1423 18.3647 15.4523 18.0547 15.4523 17.5347V6.6747C15.4523 6.1547 15.1423 5.8447 14.5823 5.8447H13.7023C13.5923 5.8447 13.5423 5.8947 13.5423 6.0047V6.1647C13.5423 6.4847 13.3523 6.6747 13.0423 6.6747H11.1523C10.8623 6.6747 10.6523 6.4847 10.6523 6.1647V6.0047C10.6523 5.8947 10.6123 5.8447 10.5123 5.8447H9.6223C9.0623 5.8447 8.7523 6.1547 8.7523 6.6747V17.5347C8.7523 18.0547 9.0623 18.3647 9.6223 18.3647ZM10.6023 17.8347C10.3923 17.8347 10.2423 17.6847 10.2423 17.4847C10.2423 17.2647 10.3923 17.1247 10.6023 17.1247H13.6023C13.8123 17.1247 13.9723 17.2647 13.9723 17.4847C13.9723 17.6847 13.8123 17.8347 13.6023 17.8347Z" />
        </svg>
    