
        <svg xmlns="http://www.w3.org/2000/svg" viewBox="0 0 100 100">
            <path d="M-0.0009 24.4689C-0.0009 26.7589 1.5891 28.2889 3.9691 28.2889H14.8791C17.1291 28.2889 18.6291 26.7589 18.6291 24.4589V3.8289C18.6291 1.5389 17.1291 -0.0011 14.8791 -0.0011H3.9691C1.5891 -0.0011 -0.0009 1.5389 -0.0009 3.8189ZM3.6191 23.2189V5.0789C3.6191 4.3289 4.0891 3.8889 4.8391 3.8889H13.8091C14.5291 3.8889 14.9991 4.3489 14.9991 5.0889V23.1989C14.9991 23.9389 14.5291 24.3989 13.8091 24.3989H4.8391C4.0891 24.3989 3.6191 23.9689 3.6191 23.2189ZM6.9391 8.9689C7.8891 8.9689 8.6991 8.1589 8.6991 7.1589C8.6991 6.1989 7.8891 5.3889 6.9391 5.3889C5.9391 5.3889 5.1191 6.1989 5.1191 7.1589C5.1191 8.1589 5.9391 8.9689 6.9391 8.9689Z" />
        </svg>
    