
        <svg xmlns="http://www.w3.org/2000/svg" viewBox="0 0 100 100">
            <path d="M12.6023 25.1986C19.5623 25.1986 25.2023 19.5586 25.2023 12.5986C25.2023 5.6386 19.5623 -0.0014 12.6023 -0.0014C5.6323 -0.0014 0.0023 5.6386 0.0023 12.5986C0.0023 19.5586 5.6323 25.1986 12.6023 25.1986ZM12.6023 21.5386C7.6523 21.5386 3.6523 17.5386 3.6523 12.5986C3.6523 7.6486 7.6523 3.6586 12.6023 3.6586C17.5423 3.6586 21.5423 7.6486 21.5423 12.5986C21.5423 17.5386 17.5423 21.5386 12.6023 21.5386ZM17.0723 14.5686V7.3686C17.0723 6.2486 16.2323 5.4486 15.0623 5.4486H10.1223C9.4823 5.4486 8.9523 5.7086 8.6223 6.1186L10.0323 7.5386V7.4886C10.0523 7.3586 10.1623 7.2786 10.3323 7.2786H11.2023C11.2823 7.2786 11.3323 7.3286 11.3323 7.4186V7.6086C11.3323 7.8986 11.5123 8.0786 11.8023 8.0786H13.3923C13.6723 8.0786 13.8623 7.8986 13.8623 7.6086V7.4186C13.8623 7.3286 13.9123 7.2786 13.9923 7.2786H14.8723C15.2423 7.2786 15.4723 7.4986 15.4723 7.8786V12.9486ZM17.0623 18.1386C17.3523 18.4186 17.8323 18.4286 18.1323 18.1386C18.4223 17.8486 18.4223 17.3686 18.1323 17.0786L8.1323 7.0786C7.8423 6.7886 7.3523 6.7886 7.0523 7.0786C6.7623 7.3686 6.7623 7.8486 7.0523 8.1486ZM10.1223 19.7386H15.0623C15.6923 19.7386 16.2023 19.4986 16.5323 19.0886V19.0786L15.1323 17.6686V17.7186C15.0923 17.8486 15.0023 17.9186 14.8323 17.9186H10.3323C9.9523 17.9186 9.7223 17.6986 9.7223 17.3186V12.2686L8.1223 10.6686V17.8086C8.1223 18.9386 8.9623 19.7386 10.1223 19.7386ZM11.2023 17.3786H13.9923C14.1923 17.3786 14.3423 17.2486 14.3423 17.0386C14.3423 16.8186 14.1923 16.6786 13.9923 16.6786H11.2023C11.0023 16.6786 10.8523 16.8186 10.8523 17.0386C10.8523 17.2486 11.0023 17.3786 11.2023 17.3786Z" />
        </svg>
    