
        <svg xmlns="http://www.w3.org/2000/svg" viewBox="0 0 100 100">
            <path d="M11.2517 24.4789C11.2517 26.7689 12.8417 28.2989 15.2217 28.2989H26.1317C28.3817 28.2989 29.8817 26.7689 29.8817 24.4689V3.8289C29.8817 1.5389 28.3817 -0.0011 26.1317 -0.0011H15.2217C12.8417 -0.0011 11.2517 1.5389 11.2517 3.8189ZM0.0017 24.4689C0.0017 26.7389 1.5817 28.2689 3.9117 28.2889H4.7917C3.5617 27.5989 2.8017 26.2389 2.8017 24.5389V3.7489C2.8017 2.0389 3.5617 0.6789 4.7917 -0.0011H3.9117C1.5817 0.0189 0.0017 1.5489 0.0017 3.8189ZM5.6117 24.4689C5.6117 26.7389 7.1817 28.2689 9.5317 28.2889H10.3917C9.1717 27.5989 8.4117 26.2389 8.4117 24.5389V3.7489C8.4117 2.0389 9.1717 0.6789 10.3917 -0.0011H9.5317C7.1817 0.0189 5.6117 1.5489 5.6117 3.8189ZM17.6917 2.9989C17.6917 2.5889 17.9717 2.3189 18.3717 2.3189H22.7717C23.1517 2.3189 23.4517 2.5889 23.4517 2.9989C23.4517 3.3989 23.1517 3.6689 22.7717 3.6689H18.3717C17.9717 3.6689 17.6917 3.3989 17.6917 2.9989ZM14.8717 22.4889V5.8089H26.2617V22.4889ZM20.5817 26.5589C19.8417 26.5589 19.2517 25.9689 19.2517 25.2289C19.2517 24.5189 19.8417 23.9289 20.5817 23.9289C21.3017 23.9289 21.8917 24.5189 21.8917 25.2289C21.8917 25.9689 21.3017 26.5589 20.5817 26.5589Z" />
        </svg>
    