
        <svg xmlns="http://www.w3.org/2000/svg" viewBox="0 0 100 100">
            <path d="M12.1023 24.2064C18.7823 24.2064 24.2123 18.7864 24.2123 12.1064C24.2123 5.4264 18.7823 -0.0036 12.1023 -0.0036C5.4223 -0.0036 0.0023 5.4264 0.0023 12.1064C0.0023 18.7864 5.4223 24.2064 12.1023 24.2064ZM12.1023 21.8164C6.7223 21.8164 2.3823 17.4864 2.3823 12.1064C2.3823 6.7264 6.7223 2.3764 12.1023 2.3764C17.4823 2.3764 21.8323 6.7264 21.8323 12.1064C21.8323 17.4864 17.4823 21.8164 12.1023 21.8164ZM14.6523 4.7664H9.5623C8.7623 4.7664 8.1923 5.1164 7.9123 5.7464V5.7764L9.4423 7.3164V7.2264H15.3123V13.1964L16.5723 14.4464V6.6164C16.5723 5.5164 15.7923 4.7664 14.6523 4.7664ZM10.7423 6.0464C10.7423 5.8664 10.8623 5.7664 11.0123 5.7664H13.1823C13.3523 5.7664 13.4523 5.8664 13.4523 6.0464C13.4523 6.2064 13.3523 6.3164 13.1823 6.3164H11.0123C10.8623 6.3164 10.7423 6.2064 10.7423 6.0464ZM17.1423 17.9764C17.3623 18.1964 17.7423 18.1964 17.9623 17.9764C18.2023 17.7464 18.2023 17.3764 17.9623 17.1564L7.0423 6.2264C6.8123 5.9864 6.4323 5.9864 6.2123 6.2264C5.9723 6.4564 5.9723 6.8364 6.2123 7.0564ZM9.5623 19.4364H14.6523C15.4223 19.4364 16.0123 19.0864 16.2823 18.4764V18.4364L14.7223 16.8764V16.9764H8.8823V11.0364L7.6323 9.7864V17.5864C7.6323 18.6864 8.4023 19.4364 9.5623 19.4364ZM12.1123 18.6864C11.7923 18.6864 11.5123 18.4264 11.5123 18.0964C11.5123 17.7764 11.7923 17.5064 12.1123 17.5064C12.4323 17.5064 12.6923 17.7764 12.6923 18.0964C12.6923 18.4264 12.4323 18.6864 12.1123 18.6864Z" />
        </svg>
    