
        <svg xmlns="http://www.w3.org/2000/svg" viewBox="0 0 100 100">
            <path d="M0.0006 22.423C0.0006 24.353 1.3606 25.653 3.3706 25.653H12.5906C14.5806 25.653 15.9006 24.353 15.9006 22.423V3.233C15.9006 1.303 14.5806 0.003 12.5906 0.003H3.3706C1.3606 0.003 0.0006 1.303 0.0006 3.233ZM5.5806 2.283C5.5806 1.983 5.7906 1.783 6.0806 1.783H9.8406C10.1406 1.783 10.3406 1.983 10.3406 2.283C10.3406 2.583 10.1406 2.773 9.8406 2.773H6.0806C5.7906 2.773 5.5806 2.583 5.5806 2.283ZM2.3006 21.243V4.413H13.6206V21.243ZM7.9706 24.353C7.3606 24.353 6.8806 23.863 6.8806 23.263C6.8806 22.663 7.3606 22.183 7.9706 22.183C8.5706 22.183 9.0506 22.663 9.0506 23.263C9.0506 23.863 8.5706 24.353 7.9706 24.353Z" />
        </svg>
    