
        <svg xmlns="http://www.w3.org/2000/svg" viewBox="0 0 100 100">
            <path d="M10.8617 24.1313H19.0417C20.9317 24.1313 22.0917 23.0013 22.0917 21.1713V2.9612C22.0917 1.1412 20.9317 0.0012 19.0417 0.0012H10.8617C8.9717 0.0012 7.8117 1.1412 7.8117 2.9612V21.1713C7.8117 23.0013 8.9717 24.1313 10.8617 24.1313ZM0.0017 21.1713C0.0017 22.8213 0.9917 23.9313 2.5517 24.0713L2.8317 24.0813C1.8417 23.6013 1.2617 22.5913 1.2617 21.3213V2.8212C1.2617 1.5512 1.8417 0.5413 2.8317 0.0613H2.5517C0.9917 0.2112 0.0017 1.3212 0.0017 2.9612ZM3.8717 21.1713C3.8717 22.8213 4.8617 23.9313 6.4217 24.0713L6.7017 24.0813C5.7217 23.6013 5.1317 22.5913 5.1317 21.3213V2.8212C5.1317 1.5512 5.7217 0.5413 6.7017 0.0613H6.4217C4.8617 0.2112 3.8717 1.3212 3.8717 2.9612ZM11.0317 22.6913C9.8517 22.6913 9.2617 22.1112 9.2617 20.9613V3.1612C9.2617 2.0313 9.8517 1.4513 11.0317 1.4513H18.8817C20.0417 1.4513 20.6417 2.0313 20.6417 3.1612V20.9613C20.6417 22.1112 20.0417 22.6913 18.8817 22.6913ZM13.5817 3.6112H16.3217C16.7117 3.6112 17.0117 3.3012 17.0117 2.9013C17.0117 2.5113 16.7117 2.2013 16.3217 2.2013H13.5817C13.1817 2.2013 12.8817 2.5113 12.8817 2.9013C12.8817 3.3012 13.1817 3.6112 13.5817 3.6112ZM12.5317 21.8513H17.3917C17.6517 21.8513 17.8517 21.6713 17.8517 21.4013C17.8517 21.1213 17.6517 20.9313 17.3917 20.9313H12.5317C12.2617 20.9313 12.0617 21.1213 12.0617 21.4013C12.0617 21.6713 12.2617 21.8513 12.5317 21.8513Z" />
        </svg>
    