
        <svg xmlns="http://www.w3.org/2000/svg" viewBox="0 0 100 100">
            <path d="M2.8617 23.2125H10.3817C12.2317 23.2125 13.2317 22.2025 13.2317 20.3625V2.8325C13.2317 0.9925 12.2317 0.0025 10.3817 0.0025H2.8617C0.9917 0.0025 0.0017 0.9925 0.0017 2.8325V20.3625C0.0017 22.2025 0.9917 23.2125 2.8617 23.2125ZM2.9317 22.3325C1.5217 22.3325 0.8717 21.7125 0.8717 20.3125V2.9025C0.8717 1.5025 1.5217 0.8625 2.9317 0.8625H10.3017C11.7217 0.8625 12.3617 1.5025 12.3617 2.9025V20.3125C12.3617 21.7125 11.7217 22.3325 10.3017 22.3325ZM5.3217 2.5825H7.9217C8.2217 2.5825 8.4517 2.3525 8.4517 2.0525C8.4517 1.7325 8.2217 1.5225 7.9217 1.5225H5.3217C5.0017 1.5225 4.7817 1.7325 4.7817 2.0525C4.7817 2.3525 5.0017 2.5825 5.3217 2.5825ZM4.2617 21.5625H8.9717C9.1617 21.5625 9.3317 21.4125 9.3317 21.2125C9.3317 21.0125 9.1617 20.8625 8.9717 20.8625H4.2617C4.0617 20.8625 3.9117 21.0125 3.9117 21.2125C3.9117 21.4125 4.0617 21.5625 4.2617 21.5625Z" />
        </svg>
    