
        <svg xmlns="http://www.w3.org/2000/svg" viewBox="0 0 100 100">
            <path d="M12.7923 25.5978C19.8723 25.5978 25.6023 19.8678 25.6023 12.7978C25.6023 5.7278 19.8723 -0.0022 12.7923 -0.0022C5.7323 -0.0022 0.0023 5.7278 0.0023 12.7978C0.0023 19.8678 5.7323 25.5978 12.7923 25.5978ZM12.7923 21.4178C8.0323 21.4178 4.1723 17.5678 4.1723 12.7978C4.1723 8.0278 8.0323 4.1678 12.7923 4.1678C17.5623 4.1678 21.4323 8.0278 21.4323 12.7978C21.4323 17.5678 17.5623 21.4178 12.7923 21.4178ZM8.9523 17.2078C8.9523 18.1778 9.6923 18.8778 10.7123 18.8778H14.8923C15.9023 18.8778 16.6523 18.1778 16.6523 17.2078V8.3878C16.6523 7.4178 15.9023 6.7178 14.8923 6.7178H10.7123C9.6923 6.7178 8.9523 7.4178 8.9523 8.3878ZM11.5923 7.9678C11.5923 7.8278 11.6823 7.7478 11.8023 7.7478H13.8023C13.9323 7.7478 14.0123 7.8278 14.0123 7.9678C14.0123 8.0978 13.9323 8.1878 13.8023 8.1878H11.8023C11.6823 8.1878 11.5923 8.0978 11.5923 7.9678ZM10.4623 16.4778V9.1178H15.1423V16.4778ZM18.7523 15.4778C18.9123 15.7078 19.2623 15.7078 19.5123 15.4778C20.1423 14.7678 20.5123 13.8078 20.5123 12.7978C20.5123 11.7778 20.1423 10.8278 19.5123 10.1178C19.2623 9.8778 18.9123 9.8778 18.7523 10.0978C18.5623 10.2978 18.6023 10.5778 18.8123 10.8378C19.2823 11.3678 19.5323 12.0678 19.5323 12.7978C19.5323 13.5278 19.2823 14.2278 18.8123 14.7578C18.6023 14.9978 18.5623 15.2978 18.7523 15.4778ZM6.8523 15.4778C7.0323 15.2978 7.0123 14.9978 6.7923 14.7578C6.3323 14.2278 6.0723 13.5278 6.0723 12.7978C6.0723 12.0678 6.3323 11.3678 6.7923 10.8378C7.0123 10.5778 7.0323 10.2978 6.8523 10.0978C6.6923 9.8778 6.3323 9.8778 6.0923 10.1178C5.4623 10.8278 5.1023 11.7778 5.1023 12.7978C5.1023 13.8078 5.4623 14.7678 6.0923 15.4778C6.3323 15.7078 6.6923 15.7078 6.8523 15.4778ZM8.2523 14.3978C8.4123 14.2078 8.3923 13.9678 8.2123 13.6878C8.0423 13.4678 7.9323 13.1578 7.9323 12.7978C7.9323 12.4178 8.0423 12.1278 8.2123 11.9078C8.3923 11.6278 8.4123 11.3778 8.2523 11.1878C8.0523 10.9178 7.6623 10.9478 7.4623 11.2278C7.1323 11.6678 6.9523 12.2178 6.9523 12.7978C6.9523 13.3578 7.1323 13.9178 7.4623 14.3578C7.6623 14.6478 8.0523 14.6678 8.2523 14.3978ZM17.3523 14.3978C17.5523 14.6678 17.9423 14.6478 18.1323 14.3578C18.4723 13.9178 18.6523 13.3578 18.6523 12.7978C18.6523 12.2178 18.4723 11.6678 18.1323 11.2278C17.9423 10.9478 17.5523 10.9178 17.3523 11.1878C17.1923 11.3778 17.2123 11.6278 17.3923 11.9078C17.5623 12.1278 17.6723 12.4178 17.6723 12.7978C17.6723 13.1578 17.5623 13.4678 17.3923 13.6878C17.2123 13.9678 17.1923 14.2078 17.3523 14.3978ZM12.8223 18.0778C12.5423 18.0778 12.3123 17.8478 12.3123 17.5778C12.3123 17.3078 12.5423 17.0978 12.8223 17.0978C13.0823 17.0978 13.2923 17.3078 13.2923 17.5778C13.2923 17.8478 13.0823 18.0778 12.8223 18.0778Z" />
        </svg>
    