
        <svg xmlns="http://www.w3.org/2000/svg" viewBox="0 0 100 100">
            <path d="M12.2223 24.4419C18.9723 24.4419 24.4423 18.9719 24.4423 12.2219C24.4423 5.4819 18.9723 0.0019 12.2223 0.0019C5.4823 0.0019 0.0023 5.4819 0.0023 12.2219C0.0023 18.9719 5.4823 24.4419 12.2223 24.4419ZM9.9023 19.0219C8.8223 19.0219 8.0723 18.3119 8.0723 17.2719V7.1719C8.0723 6.1319 8.8223 5.4119 9.9023 5.4119H14.6023C15.6923 5.4119 16.4323 6.1319 16.4323 7.1719V17.2719C16.4323 18.3119 15.6923 19.0219 14.6023 19.0219ZM10.0623 17.6819H14.4523C14.9223 17.6819 15.1923 17.4219 15.1923 16.9819V7.4519C15.1923 7.0219 14.9223 6.7619 14.4523 6.7619H10.0623C9.5823 6.7619 9.3323 7.0119 9.3323 7.4519V16.9919C9.3323 17.4419 9.5823 17.6819 10.0623 17.6819ZM11.4723 8.2419C11.2023 8.2419 10.9923 8.0319 10.9923 7.7419C10.9923 7.4719 11.2023 7.2619 11.4723 7.2619H13.0223C13.2923 7.2619 13.4923 7.4719 13.4923 7.7419C13.4923 8.0319 13.2923 8.2419 13.0223 8.2419ZM5.4023 15.5819C5.2223 15.8219 4.9023 15.8219 4.6623 15.5819C3.8523 14.6819 3.4023 13.4919 3.4023 12.2219C3.4023 10.9719 3.8523 9.7719 4.6623 8.8619C4.9023 8.6219 5.2223 8.6219 5.4023 8.8619C5.5823 9.0619 5.5423 9.3319 5.3323 9.5719C4.6923 10.2919 4.3323 11.2219 4.3323 12.2219C4.3323 13.2319 4.6923 14.1519 5.3323 14.8719C5.5423 15.1219 5.5823 15.3819 5.4023 15.5819ZM19.0623 15.5819C18.8923 15.3819 18.9423 15.1219 19.1323 14.8719C19.7823 14.1519 20.1323 13.2319 20.1323 12.2219C20.1323 11.2219 19.7823 10.2919 19.1323 9.5719C18.9423 9.3319 18.8923 9.0619 19.0623 8.8619C19.2423 8.6219 19.5723 8.6219 19.8023 8.8619C20.6223 9.7719 21.0723 10.9719 21.0723 12.2219C21.0723 13.4919 20.6223 14.6819 19.8023 15.5819C19.5723 15.8219 19.2423 15.8219 19.0623 15.5819ZM17.4023 14.2119C17.2223 14.0019 17.2823 13.7619 17.4623 13.5019C17.7323 13.1619 17.8723 12.7119 17.8723 12.2219C17.8723 11.7319 17.7323 11.2819 17.4623 10.9619C17.2823 10.6919 17.2223 10.4419 17.4023 10.2419C17.5923 9.9919 17.9523 10.0119 18.1623 10.2819C18.5823 10.8119 18.8323 11.4919 18.8323 12.2219C18.8323 12.9519 18.5823 13.6319 18.1623 14.1719C17.9523 14.4419 17.5923 14.4519 17.4023 14.2119ZM7.0823 14.2119C6.8823 14.4519 6.5123 14.4419 6.3123 14.1719C5.8823 13.6319 5.6323 12.9519 5.6323 12.2219C5.6323 11.4919 5.8823 10.8119 6.3123 10.2819C6.5123 10.0119 6.8823 9.9919 7.0823 10.2419C7.2423 10.4419 7.1923 10.6919 7.0123 10.9619C6.7523 11.2819 6.6023 11.7319 6.6023 12.2219C6.6023 12.7119 6.7523 13.1619 7.0123 13.5019C7.1923 13.7619 7.2423 14.0019 7.0823 14.2119ZM10.9223 17.2019C10.7323 17.2019 10.5923 17.0719 10.5923 16.8819C10.5923 16.6919 10.7323 16.5619 10.9223 16.5619H13.5923C13.7823 16.5619 13.9123 16.6919 13.9123 16.8819C13.9123 17.0719 13.7823 17.2019 13.5923 17.2019Z" />
        </svg>
    