
        <svg xmlns="http://www.w3.org/2000/svg" viewBox="0 0 100 100">
            <path d="M12.1023 24.2064C18.7823 24.2064 24.2123 18.7864 24.2123 12.1064C24.2123 5.4264 18.7823 -0.0036 12.1023 -0.0036C5.4223 -0.0036 0.0023 5.4264 0.0023 12.1064C0.0023 18.7864 5.4223 24.2064 12.1023 24.2064ZM12.1023 21.8164C6.7223 21.8164 2.3823 17.4864 2.3823 12.1064C2.3823 6.7264 6.7223 2.3764 12.1023 2.3764C17.4823 2.3764 21.8323 6.7264 21.8323 12.1064C21.8323 17.4864 17.4823 21.8164 12.1023 21.8164ZM9.5523 19.4364H14.6323C15.7823 19.4364 16.5723 18.6864 16.5723 17.5664V6.6364C16.5723 5.5164 15.7823 4.7664 14.6323 4.7664H9.5523C8.4023 4.7664 7.6123 5.5164 7.6123 6.6364V17.5664C7.6123 18.6864 8.4023 19.4364 9.5523 19.4364ZM9.7123 18.1364C9.1623 18.1364 8.8723 17.8464 8.8723 17.3364V6.8664C8.8723 6.3564 9.1623 6.0564 9.7123 6.0564H10.5623C10.6623 6.0564 10.7123 6.1164 10.7123 6.2064V6.3764C10.7123 6.6764 10.9023 6.8764 11.1923 6.8764H13.0123C13.3023 6.8764 13.4923 6.6764 13.4923 6.3764V6.2064C13.4923 6.1164 13.5323 6.0564 13.6323 6.0564H14.4723C15.0223 6.0564 15.3323 6.3664 15.3323 6.8764V17.3364C15.3323 17.8464 15.0223 18.1364 14.4723 18.1364ZM10.6523 17.6264H13.5423C13.7423 17.6264 13.8823 17.4964 13.8823 17.2864C13.8823 17.0764 13.7423 16.9364 13.5423 16.9364H10.6523C10.4523 16.9364 10.3123 17.0764 10.3123 17.2864C10.3123 17.4964 10.4523 17.6264 10.6523 17.6264Z" />
        </svg>
    