
        <svg xmlns="http://www.w3.org/2000/svg" viewBox="0 0 100 100">
            <path d="M0.0017 19.9681C0.0017 21.8081 0.9217 22.7481 2.7517 22.7481H9.9417C11.7817 22.7481 12.7017 21.8081 12.7017 19.9681V2.7781C12.7017 0.9381 11.7817 -0.0019 9.9417 -0.0019H2.7517C0.9217 -0.0019 0.0017 0.9381 0.0017 2.7781ZM4.7817 1.6381C4.7817 1.4781 4.9117 1.3481 5.0717 1.3481H7.6317C7.7917 1.3481 7.9217 1.4781 7.9217 1.6381C7.9217 1.8081 7.7917 1.9381 7.6317 1.9381H5.0717C4.9117 1.9381 4.7817 1.8081 4.7817 1.6381ZM0.5717 19.5481V3.1981H12.1317V19.5481ZM6.3617 21.8081C5.9217 21.8081 5.5417 21.4381 5.5417 20.9881C5.5417 20.5381 5.9217 20.1781 6.3617 20.1781C6.8117 20.1781 7.1717 20.5381 7.1717 20.9881C7.1717 21.4381 6.8117 21.8081 6.3617 21.8081Z" />
        </svg>
    