
        <svg xmlns="http://www.w3.org/2000/svg" viewBox="0 0 100 100">
            <path d="M3.6916 27.0913H13.8416C15.9716 27.0913 17.3916 25.6713 17.3916 23.5413V3.5613C17.3916 1.4312 15.9716 0.0012 13.8416 0.0012H3.6916C1.4816 0.0012 0.0016 1.4312 0.0016 3.5613V23.5413C0.0016 25.6713 1.4816 27.0913 3.6916 27.0913ZM4.3516 23.8913C3.5116 23.8913 3.0216 23.4413 3.0216 22.6213V4.4913C3.0216 3.6713 3.5116 3.2112 4.3516 3.2112H5.9416C6.1316 3.2112 6.2316 3.3012 6.2316 3.4913V3.8513C6.2316 4.4013 6.5816 4.7813 7.1416 4.7813H10.2516C10.8016 4.7813 11.1516 4.4013 11.1516 3.8513V3.4913C11.1516 3.3012 11.2616 3.2112 11.4516 3.2112H13.0416C13.8716 3.2112 14.3716 3.6812 14.3716 4.5012V22.6013C14.3716 23.4213 13.8716 23.8913 13.0416 23.8913ZM6.0916 22.8713H11.3016C11.6816 22.8713 11.9616 22.6213 11.9616 22.2113C11.9616 21.8113 11.6816 21.5413 11.3016 21.5413H6.0916C5.7216 21.5413 5.4216 21.8113 5.4216 22.2113C5.4216 22.6213 5.7216 22.8713 6.0916 22.8713Z" />
        </svg>
    