
        <svg xmlns="http://www.w3.org/2000/svg" viewBox="0 0 100 100">
            <path d="M12.3723 24.7459C19.2023 24.7459 24.7523 19.2059 24.7523 12.3759C24.7523 5.5459 19.2023 -0.0041 12.3723 -0.0041C5.5423 -0.0041 0.0023 5.5459 0.0023 12.3759C0.0023 19.2059 5.5423 24.7459 12.3723 24.7459ZM12.3723 21.6659C7.2423 21.6659 3.0823 17.5059 3.0823 12.3759C3.0823 7.2259 7.2423 3.0859 12.3723 3.0859C17.5223 3.0859 21.6723 7.2259 21.6723 12.3759C21.6723 17.5059 17.5223 21.6659 12.3723 21.6659ZM9.8623 19.6059H14.8723C16.0323 19.6059 16.8523 18.8359 16.8523 17.7059V7.0459C16.8523 5.9159 16.0323 5.1459 14.8723 5.1459H9.8623C8.7023 5.1459 7.9023 5.9159 7.9023 7.0459V17.7059C7.9023 18.8359 8.7023 19.6059 9.8623 19.6059ZM10.0523 18.0159C9.6023 18.0159 9.3423 17.7659 9.3423 17.3359V7.4159C9.3423 6.9859 9.6023 6.7259 10.0523 6.7259H10.9123C11.0023 6.7259 11.0523 6.7759 11.0523 6.8759V7.0459C11.0523 7.3459 11.2423 7.5359 11.5223 7.5359H13.2223C13.5123 7.5359 13.7023 7.3459 13.7023 7.0459V6.8759C13.7023 6.7759 13.7423 6.7259 13.8323 6.7259H14.6923C15.1423 6.7259 15.4023 6.9859 15.4023 7.4159V17.3159C15.4023 17.7559 15.1423 18.0159 14.6923 18.0159ZM10.9523 17.4959H13.7923C13.9923 17.4959 14.1323 17.3559 14.1323 17.1559C14.1323 16.9359 13.9923 16.7959 13.7923 16.7959H10.9523C10.7623 16.7959 10.6023 16.9359 10.6023 17.1559C10.6023 17.3559 10.7623 17.4959 10.9523 17.4959Z" />
        </svg>
    