
        <svg xmlns="http://www.w3.org/2000/svg" viewBox="0 0 100 100">
            <path d="M11.3523 22.7147C17.6023 22.7147 22.7123 17.6047 22.7123 11.3547C22.7123 5.1047 17.6023 0.0047 11.3523 0.0047C5.1123 0.0047 0.0023 5.1047 0.0023 11.3547C0.0023 17.6047 5.1123 22.7147 11.3523 22.7147ZM9.0023 19.0747C7.7123 19.0747 7.0423 18.4147 7.0423 17.0947V5.6447C7.0423 4.3347 7.7123 3.6547 9.0023 3.6547H13.7023C14.9923 3.6547 15.6823 4.3347 15.6823 5.6447V17.0947C15.6823 18.4147 14.9923 19.0747 13.7023 19.0747ZM9.0223 18.4947H13.6723C14.6723 18.4947 15.0823 18.0847 15.0823 17.1047V5.6347C15.0823 4.6647 14.6723 4.2447 13.6723 4.2447H9.0223C8.0323 4.2447 7.6323 4.6647 7.6323 5.6347V17.1047C7.6323 18.0847 8.0323 18.4947 9.0223 18.4947ZM10.4723 5.6647C10.2523 5.6647 10.1023 5.5047 10.1023 5.2847C10.1023 5.0647 10.2523 4.9147 10.4723 4.9147H12.2623C12.4823 4.9147 12.6223 5.0647 12.6223 5.2847C12.6223 5.5047 12.4823 5.6647 12.2623 5.6647ZM9.8623 18.0447C9.7023 18.0447 9.5723 17.9147 9.5723 17.7547C9.5723 17.6047 9.7023 17.4447 9.8623 17.4447H12.8323C12.9923 17.4447 13.1323 17.6047 13.1323 17.7547C13.1323 17.9147 12.9923 18.0447 12.8323 18.0447Z" />
        </svg>
    