
        <svg xmlns="http://www.w3.org/2000/svg" viewBox="0 0 100 100">
            <path d="M4.0517 19.7216H25.3117C27.7417 19.7216 29.3717 18.0316 29.3717 15.5116V3.9116C29.3717 1.5616 27.7417 0.0016 25.3017 0.0016H4.0617C1.6317 0.0016 0.0017 1.5616 0.0017 3.9116V15.5116C0.0017 18.0316 1.6317 19.7216 4.0517 19.7216ZM5.6117 15.5616C4.9117 15.5616 4.5117 15.1316 4.5117 14.4516V5.2616C4.5117 4.5916 4.9417 4.1616 5.6217 4.1616H23.7417C24.4217 4.1616 24.8517 4.5916 24.8517 5.2616V14.4516C24.8517 15.1316 24.4617 15.5616 23.7517 15.5616ZM6.8017 12.8216C7.5117 12.8216 8.0317 12.3016 8.0317 11.5916V8.1316C8.0317 7.4216 7.5117 6.9016 6.8017 6.9016C6.0817 6.9016 5.5517 7.4316 5.5517 8.1316V11.5916C5.5517 12.2816 6.0817 12.8216 6.8017 12.8216ZM11.6517 14.3916H17.7217C18.1717 14.3916 18.5017 14.0816 18.5017 13.6016C18.5017 13.1216 18.1717 12.8016 17.7217 12.8016H11.6517C11.2017 12.8016 10.8617 13.1216 10.8617 13.6016C10.8617 14.0816 11.2017 14.3916 11.6517 14.3916Z" />
        </svg>
    