
        <svg xmlns="http://www.w3.org/2000/svg" viewBox="0 0 100 100">
            <path d="M12.2223 24.4436C18.9723 24.4436 24.4423 18.9736 24.4423 12.2236C24.4423 5.4736 18.9723 0.0036 12.2223 0.0036C5.4723 0.0036 0.0023 5.4736 0.0023 12.2236C0.0023 18.9736 5.4723 24.4436 12.2223 24.4436ZM12.2223 21.7636C6.9523 21.7636 2.6823 17.4936 2.6823 12.2236C2.6823 6.9536 6.9523 2.6836 12.2223 2.6836C17.4923 2.6836 21.7623 6.9536 21.7623 12.2236C21.7623 17.4936 17.4923 21.7636 12.2223 21.7636ZM9.6923 19.5136H14.7323C15.8923 19.5136 16.6923 18.7536 16.6923 17.6236V6.8036C16.6923 5.6836 15.8923 4.9236 14.7323 4.9236H9.6923C8.5323 4.9236 7.7323 5.6836 7.7323 6.8036V17.6236C7.7323 18.7536 8.5323 19.5136 9.6923 19.5136ZM9.8623 18.0836C9.3523 18.0836 9.0723 17.8136 9.0723 17.3336V7.1136C9.0723 6.6236 9.3523 6.3536 9.8623 6.3536H10.7123C10.8123 6.3536 10.8523 6.3936 10.8523 6.5036V6.6636C10.8523 6.9636 11.0423 7.1636 11.3323 7.1636H13.0923C13.3823 7.1636 13.5823 6.9636 13.5823 6.6636V6.5036C13.5823 6.3936 13.6323 6.3536 13.7223 6.3536H14.5623C15.0723 6.3536 15.3623 6.6336 15.3623 7.1136V17.3236C15.3623 17.8136 15.0723 18.0836 14.5623 18.0836ZM10.7823 17.5636H13.6523C13.8523 17.5636 13.9923 17.4336 13.9923 17.2236C13.9923 17.0136 13.8523 16.8736 13.6523 16.8736H10.7823C10.5823 16.8736 10.4423 17.0136 10.4423 17.2236C10.4423 17.4336 10.5823 17.5636 10.7823 17.5636Z" />
        </svg>
    