
        <svg xmlns="http://www.w3.org/2000/svg" viewBox="0 0 100 100">
            <path d="M9.9217 22.7481H17.1017C18.9417 22.7481 19.8617 21.8081 19.8617 19.9681V2.7781C19.8617 0.9381 18.9417 -0.0019 17.1017 -0.0019H9.9217C8.0817 -0.0019 7.1617 0.9381 7.1617 2.7781V19.9681C7.1617 21.8081 8.0817 22.7481 9.9217 22.7481ZM0.0017 19.9681C0.0017 21.4081 0.5717 22.3281 1.7217 22.6281L1.7817 22.6381C0.9717 22.1281 0.5717 21.1781 0.5717 19.9681V2.7781C0.5717 1.5681 0.9717 0.6181 1.7817 0.1081L1.7217 0.1281C0.5717 0.4181 0.0017 1.3381 0.0017 2.7781ZM3.5817 19.9681C3.5817 21.4081 4.1517 22.3281 5.3117 22.6281L5.3717 22.6381C4.5617 22.1281 4.1617 21.1781 4.1617 19.9681V2.7781C4.1617 1.5681 4.5617 0.6181 5.3717 0.1081L5.3117 0.1281C4.1517 0.4181 3.5817 1.3381 3.5817 2.7781ZM9.9517 22.1681C8.4117 22.1681 7.7317 21.5181 7.7317 19.9681V2.7781C7.7317 1.2381 8.4117 0.5781 9.9517 0.5781H17.0717C18.6117 0.5781 19.2917 1.2381 19.2917 2.7781V19.9681C19.2917 21.5181 18.6117 22.1681 17.0717 22.1681ZM12.2417 2.0481H14.7817C15.0517 2.0481 15.2217 1.8781 15.2217 1.6181C15.2217 1.3481 15.0517 1.1681 14.7817 1.1681H12.2417C11.9717 1.1681 11.8017 1.3481 11.8017 1.6181C11.8017 1.8781 11.9717 2.0481 12.2417 2.0481ZM11.1917 21.4181H15.8317C15.9817 21.4181 16.1217 21.2881 16.1217 21.1281C16.1217 20.9681 15.9817 20.8381 15.8317 20.8381H11.1917C11.0417 20.8381 10.9017 20.9681 10.9017 21.1281C10.9017 21.2881 11.0417 21.4181 11.1917 21.4181Z" />
        </svg>
    