
        <svg xmlns="http://www.w3.org/2000/svg" viewBox="0 0 100 100">
            <path d="M12.6923 22.423C12.6923 24.353 14.0523 25.653 16.0623 25.653H25.2823C27.2723 25.653 28.5923 24.353 28.5923 22.423V3.233C28.5923 1.303 27.2723 0.003 25.2823 0.003H16.0623C14.0523 0.003 12.6923 1.303 12.6923 3.233ZM18.2723 2.283C18.2723 1.983 18.4823 1.783 18.7723 1.783H22.5323C22.8323 1.783 23.0323 1.983 23.0323 2.283C23.0323 2.583 22.8323 2.773 22.5323 2.773H18.7723C18.4823 2.773 18.2723 2.583 18.2723 2.283ZM0.0023 8.193C0.0023 8.773 0.4723 9.243 1.0523 9.243H5.5623V11.223C5.5623 12.163 6.5123 12.563 7.2223 11.953L10.6723 8.893C11.1423 8.483 11.1423 7.883 10.6723 7.473L7.2223 4.413C6.5423 3.823 5.5623 4.173 5.5623 5.153V7.133H1.0523C0.4723 7.133 0.0023 7.603 0.0023 8.193ZM14.9923 21.243V4.413H26.2923V21.243ZM20.6623 24.353C20.0523 24.353 19.5723 23.863 19.5723 23.263C19.5723 22.663 20.0523 22.183 20.6623 22.183C21.2623 22.183 21.7423 22.663 21.7423 23.263C21.7423 23.863 21.2623 24.353 20.6623 24.353Z" />
        </svg>
    