
        <svg xmlns="http://www.w3.org/2000/svg" viewBox="0 0 100 100">
            <path d="M0.0017 21.7711C0.0017 23.6011 1.2817 24.8211 3.1917 24.8211H11.8717C13.7817 24.8211 15.0617 23.6011 15.0617 21.7711V3.0511C15.0617 1.2211 13.7817 0.0011 11.8717 0.0011H3.1917C1.2817 0.0011 0.0017 1.2211 0.0017 3.0511ZM7.5517 2.6711C7.1617 2.6711 6.8417 2.3511 6.8417 1.9711C6.8417 1.5911 7.1617 1.2911 7.5517 1.2911C7.9217 1.2911 8.2217 1.5911 8.2217 1.9711C8.2217 2.3511 7.9217 2.6711 7.5517 2.6711ZM1.8917 20.8511V3.9711H13.1717V20.8511ZM7.5517 23.6611C6.9817 23.6611 6.5317 23.2011 6.5317 22.6411C6.5317 22.0911 6.9817 21.6311 7.5517 21.6311C8.1017 21.6311 8.5517 22.0911 8.5517 22.6411C8.5517 23.2011 8.1017 23.6611 7.5517 23.6611Z" />
        </svg>
    