
        <svg xmlns="http://www.w3.org/2000/svg" viewBox="0 0 100 100">
            <path d="M0.0017 21.5317C0.0017 23.6517 1.4917 25.0817 3.7017 25.0817H14.0117C16.1517 25.0817 17.5617 23.6517 17.5617 21.5117V3.5617C17.5617 1.4317 16.1517 0.0017 14.0117 0.0017H3.7017C1.4917 0.0017 0.0017 1.4317 0.0017 3.5517ZM2.9717 9.4117V4.2817C2.9717 3.4617 3.4717 3.0017 4.3017 3.0017H13.2617C14.1017 3.0017 14.5917 3.4717 14.5917 4.2817V9.4117C14.5917 10.2217 14.1017 10.7017 13.2617 10.7017H4.3017C3.4717 10.7017 2.9717 10.2317 2.9717 9.4117ZM8.7917 22.4617C6.0917 22.4617 3.9017 20.2817 3.9017 17.5917C3.9017 14.8817 6.0917 12.7117 8.7917 12.7117C11.4817 12.7117 13.6617 14.8817 13.6617 17.5917C13.6617 20.2817 11.4817 22.4617 8.7917 22.4617ZM8.7917 20.3217C10.3017 20.3217 11.5317 19.1017 11.5317 17.5917C11.5317 16.0817 10.3017 14.8517 8.7917 14.8517C7.2617 14.8517 6.0317 16.0817 6.0317 17.5917C6.0317 19.1017 7.2617 20.3217 8.7917 20.3217Z" />
        </svg>
    