
        <svg xmlns="http://www.w3.org/2000/svg" viewBox="0 0 100 100">
            <path d="M2.5317 22.333H7.1517V24.183C7.1517 26.073 8.3117 27.183 10.2617 27.183H14.7917C15.0217 27.183 15.2117 27.003 15.2117 26.763C15.2117 26.543 15.0217 26.353 14.7917 26.353H10.2617C8.7617 26.353 7.9917 25.633 7.9917 24.183V22.333H12.6717C14.3217 22.333 15.2117 21.423 15.2117 19.733V4.183C15.2117 2.483 14.3217 1.583 12.6717 1.583H8.9417V1.333C8.9417 0.573 8.3517 0.003 7.6017 0.003C6.8317 0.003 6.2617 0.573 6.2617 1.333V1.583H2.5317C0.8917 1.583 0.0017 2.483 0.0017 4.183V19.733C0.0017 21.423 0.8917 22.333 2.5317 22.333ZM7.6017 1.903C7.2917 1.903 7.0417 1.653 7.0417 1.333C7.0417 1.033 7.2917 0.783 7.6017 0.783C7.9117 0.783 8.1417 1.033 8.1417 1.333C8.1417 1.653 7.9117 1.903 7.6017 1.903ZM3.8817 19.583C3.2117 19.583 2.7617 19.153 2.7617 18.503V6.593C2.7617 5.953 3.2117 5.523 3.8817 5.523H11.3417C12.0117 5.523 12.4617 5.953 12.4617 6.593V18.503C12.4617 19.153 12.0117 19.583 11.3417 19.583ZM7.6017 12.863C8.6017 12.863 9.4217 12.093 9.4217 11.093C9.4217 10.523 9.1317 9.983 8.8617 9.483L7.8117 7.573C7.7017 7.363 7.5017 7.363 7.3917 7.563L6.3417 9.483C6.0717 9.983 5.7917 10.523 5.7917 11.093C5.7917 12.093 6.6217 12.863 7.6017 12.863ZM5.2417 15.173H10.1117C10.3317 15.173 10.4917 15.013 10.4917 14.813C10.4917 14.613 10.3317 14.453 10.1117 14.453H5.2417C5.0317 14.453 4.8617 14.613 4.8617 14.813C4.8617 15.013 5.0317 15.173 5.2417 15.173ZM6.0217 17.353H9.2117C9.4217 17.353 9.5817 17.203 9.5817 17.003C9.5817 16.793 9.4217 16.633 9.2117 16.633H6.0217C5.8117 16.633 5.6517 16.793 5.6517 17.003C5.6517 17.203 5.8117 17.353 6.0217 17.353Z" />
        </svg>
    