
        <svg xmlns="http://www.w3.org/2000/svg" viewBox="0 0 100 100">
            <path d="M3.9717 19.8844H5.9417V21.6344C5.9417 24.1944 7.3217 25.5744 9.9117 25.5744H21.8517C24.4617 25.5744 25.8317 24.1944 25.8317 21.6344V9.6244C25.8317 7.0444 24.4617 5.6844 21.8517 5.6844H19.8917V3.9344C19.8917 1.3744 18.5117 0.0044 15.9117 0.0044H3.9717C1.3817 0.0044 0.0017 1.3744 0.0017 3.9344V15.9444C0.0017 18.5144 1.3817 19.8844 3.9717 19.8844ZM4.1917 17.2744C3.1717 17.2744 2.6117 16.7544 2.6117 15.6844V4.2044C2.6117 3.1244 3.1717 2.6144 4.1917 2.6144H15.6917C16.7217 2.6144 17.2717 3.1244 17.2717 4.2044V15.6844C17.2717 16.7544 16.7217 17.2744 15.6917 17.2744ZM9.4217 15.3844C11.8817 15.3844 13.2817 14.0644 13.2817 11.6844V5.8544C13.2817 4.9844 12.8217 4.4444 12.0017 4.4444C11.1817 4.4444 10.7317 4.9944 10.7317 5.8544V11.6244C10.7317 12.6844 10.2617 13.2444 9.4417 13.2444C8.7317 13.2444 8.2617 12.8944 8.0317 12.2544C7.8117 11.6944 7.4617 11.4344 6.8717 11.4344C6.1717 11.4344 5.7117 11.9044 5.7117 12.5844C5.7117 12.8044 5.7417 13.0244 5.8017 13.2144C6.2217 14.5444 7.6317 15.3844 9.4217 15.3844ZM10.1417 22.9544C9.1217 22.9544 8.5517 22.4444 8.5517 21.3644V19.8844H15.9117C18.5117 19.8844 19.8917 18.5244 19.8917 15.9444V8.2944H21.6317C22.6617 8.2944 23.2117 8.8144 23.2117 9.8944V21.3644C23.2117 22.4444 22.6617 22.9544 21.6317 22.9544Z" />
        </svg>
    