
        <svg xmlns="http://www.w3.org/2000/svg" viewBox="0 0 100 100">
            <path d="M16.3817 0.0042H4.5917C1.7017 0.0042 0.0017 1.6842 0.0017 4.5942V16.3842C0.0017 19.2742 1.7017 20.9742 4.5917 20.9742H16.3817C19.2917 20.9742 20.9717 19.2742 20.9717 16.3842V4.5942C20.9717 1.6842 19.2917 0.0042 16.3817 0.0042ZM10.0617 15.8742C7.8617 15.8742 6.1917 14.8942 5.7317 13.3442C5.6617 13.1042 5.6117 12.8242 5.6117 12.5342C5.6117 11.4842 6.3317 10.7842 7.3917 10.7742C8.4217 10.7742 9.0017 11.1942 9.2317 12.0342C9.3417 12.3742 9.5617 12.5642 9.9117 12.5642C10.4017 12.5642 10.6017 12.2742 10.6017 11.4742V7.3642C10.6017 5.9642 11.3317 5.1442 12.6017 5.1442C13.8617 5.1442 14.6017 5.9742 14.6017 7.3642V11.6142C14.6017 14.3242 12.8817 15.8742 10.0617 15.8742ZM28.0317 10.8142C28.0317 8.0142 26.4217 6.2242 23.4417 6.2242H23.1917V16.3842C23.1917 20.5042 20.5117 23.1842 16.3817 23.1842H6.5017V23.1942C6.5017 26.0642 8.2017 27.7642 11.1117 27.7642H23.4417C26.3417 27.7642 28.0317 26.0642 28.0317 23.1642Z" />
        </svg>
    