
        <svg xmlns="http://www.w3.org/2000/svg" viewBox="0 0 100 100">
            <path d="M0.8117 17.3345C1.3017 17.3345 1.6417 17.0045 1.6417 16.5045V11.1945L3.8417 8.8445L10.7017 16.8745C10.9917 17.2145 11.1817 17.3345 11.4917 17.3345C11.9517 17.3345 12.2917 17.0045 12.2917 16.5745C12.2917 16.3445 12.1717 16.1245 11.9617 15.8745L5.0117 7.6845L11.2717 1.2645C11.4517 1.0745 11.5317 0.9045 11.5317 0.7045C11.5317 0.3045 11.2117 0.0045 10.8017 0.0045C10.5617 0.0045 10.3717 0.0845 10.1417 0.3145L1.7217 9.0745H1.6417V0.8245C1.6417 0.3145 1.3017 0.0045 0.8117 0.0045C0.3117 0.0045 0.0017 0.3145 0.0017 0.8245V16.5045C0.0017 17.0045 0.3117 17.3345 0.8117 17.3345Z" />
        </svg>
    