
        <svg xmlns="http://www.w3.org/2000/svg" viewBox="0 0 100 100">
            <path d="M12.6023 25.1986C19.5623 25.1986 25.2023 19.5586 25.2023 12.5986C25.2023 5.6386 19.5623 -0.0014 12.6023 -0.0014C5.6323 -0.0014 0.0023 5.6386 0.0023 12.5986C0.0023 19.5586 5.6323 25.1986 12.6023 25.1986ZM12.6023 21.5386C7.6523 21.5386 3.6523 17.5386 3.6523 12.5986C3.6523 7.6486 7.6523 3.6586 12.6023 3.6586C17.5423 3.6586 21.5423 7.6486 21.5423 12.5986C21.5423 17.5386 17.5423 21.5386 12.6023 21.5386ZM9.5123 17.7986C10.5023 17.7986 11.1323 17.1786 11.1323 16.0986V15.1986L12.0723 14.1086L14.1723 16.9886C14.5923 17.5786 14.9723 17.7986 15.5723 17.7986C16.4623 17.7986 17.1323 17.1686 17.1323 16.3386C17.1323 15.9186 17.0423 15.6286 16.7323 15.2086L14.4823 12.1786L16.5423 9.8086C16.9023 9.3986 17.0123 9.1286 17.0123 8.6786C17.0123 7.9286 16.3323 7.3586 15.5023 7.3586C14.9523 7.3586 14.6023 7.5686 14.1723 8.1486L11.2423 11.6586H11.1323V9.1686C11.1323 8.0286 10.5323 7.3586 9.5123 7.3586C8.4823 7.3586 7.9023 8.0186 7.9023 9.1686V16.0086C7.9023 17.1486 8.4823 17.7986 9.5123 17.7986Z" />
        </svg>
    