
        <svg xmlns="http://www.w3.org/2000/svg" viewBox="0 0 100 100">
            <path d="M6.7817 27.4608C6.9117 27.5908 7.0917 27.6008 7.2317 27.4608L10.8317 23.8508C10.9817 23.7108 10.9817 23.5208 10.8317 23.3908L8.4217 21.0008L11.6717 17.7808C11.8017 17.6608 11.7917 17.4608 11.6417 17.3208L8.3317 13.9908C11.9717 12.6708 14.0017 10.1008 14.0017 6.9808C14.0017 3.1208 10.8717 0.0008 6.9917 0.0008C3.1017 0.0008 0.0017 3.1008 0.0017 6.9808C0.0017 9.9708 1.8317 12.6108 4.6517 13.6008V25.0008C4.6517 25.1708 4.7117 25.3708 4.8917 25.5508ZM6.9917 26.8508L5.2417 25.0908V13.1708C2.4717 12.3708 0.5717 9.9008 0.5717 6.9808C0.5717 3.4608 3.4317 0.6008 6.9917 0.6008C10.5517 0.6008 13.4017 3.4308 13.4017 6.9808C13.4017 9.8808 11.5117 12.3708 7.7617 13.5008V14.2808L11.0417 17.5708L7.8917 20.6808V21.2908L10.2217 23.6008ZM6.9917 6.2808C7.9617 6.2808 8.7217 5.5208 8.7217 4.5608C8.7217 3.6108 7.9617 2.8508 6.9917 2.8508C6.0517 2.8508 5.2817 3.6108 5.2817 4.5608C5.2817 5.5208 6.0517 6.2808 6.9917 6.2808Z" />
        </svg>
    