
        <svg xmlns="http://www.w3.org/2000/svg" viewBox="0 0 100 100">
            <path d="M0.4837 7.1613C-0.1263 7.8713 -0.1863 8.8212 0.4637 9.4713L4.0837 13.0913C4.7237 13.7313 5.7337 13.7213 6.3937 13.0813L7.8537 11.6213L10.1537 13.9113C10.7937 14.5413 11.8137 14.5513 12.4637 13.9113L14.4537 11.9313C16.1237 14.9513 18.7837 16.6413 21.8737 16.6413C26.4637 16.6413 30.1737 12.9413 30.1737 8.3212C30.1737 3.6913 26.4737 0.0012 21.8737 0.0012C18.6737 0.0012 15.7737 1.7813 14.3837 4.6512H3.5737C3.0737 4.6512 2.4737 4.8212 2.1137 5.2513ZM3.2437 8.3212L4.4437 7.1213H16.4537C16.9237 4.7013 19.1737 2.7613 21.8737 2.7613C24.9237 2.7613 27.3937 5.2513 27.3937 8.3212C27.3937 11.3913 24.9237 13.8513 21.8737 13.8513C19.1837 13.8513 16.9137 11.9213 16.4237 9.0513H13.3837L11.3037 11.1113L9.2037 8.9913H6.5437L5.2537 10.3013ZM22.0537 8.3212C22.0537 9.3613 22.9137 10.2113 23.9437 10.2113C24.9737 10.2113 25.8137 9.3613 25.8137 8.3212C25.8137 7.2813 24.9837 6.4313 23.9437 6.4313C22.9137 6.4313 22.0537 7.2813 22.0537 8.3212Z" />
        </svg>
    