
        <svg xmlns="http://www.w3.org/2000/svg" viewBox="0 0 100 100">
            <path d="M25.3965 16.1319C25.7365 16.3519 26.1465 16.2819 26.3965 15.9319C27.8965 13.9219 28.8165 11.0519 28.8165 8.1219C28.8165 5.2119 27.9065 2.3219 26.3965 0.3219C26.1465 -0.0181 25.7365 -0.0981 25.3965 0.1319C25.0665 0.3519 25.0065 0.7819 25.2765 1.1519C26.6365 3.0319 27.4165 5.5219 27.4165 8.1219C27.4165 10.7419 26.6265 13.2219 25.2765 15.1119C25.0265 15.4719 25.0665 15.8919 25.3965 16.1319ZM13.7965 15.0419C17.0265 13.6019 18.8265 11.0919 18.8265 8.1119C18.8265 4.0719 15.5665 0.8019 11.4965 0.8019C8.2265 0.8019 5.4965 2.9119 4.5965 5.8519ZM21.2865 13.0619C21.5965 13.2719 22.0265 13.2019 22.2665 12.8619C23.1565 11.6719 23.7365 9.9819 23.7365 8.1219C23.7365 6.2719 23.1565 4.5819 22.2665 3.4019C22.0265 3.0619 21.5965 2.9919 21.2865 3.2119C20.9365 3.4619 20.8765 3.9019 21.1565 4.2819C21.9265 5.3519 22.3265 6.6419 22.3265 8.1219C22.3265 9.6119 21.9165 10.9019 21.1565 11.9819C20.8765 12.3519 20.9365 12.7919 21.2865 13.0619ZM11.4965 7.4719C10.4565 7.4719 9.6265 6.6219 9.6265 5.5819C9.6265 4.5419 10.4565 3.7119 11.4965 3.7119C12.5465 3.7119 13.3865 4.5419 13.3865 5.5819C13.3865 6.6219 12.5465 7.4719 11.4965 7.4719ZM0.2065 5.4319L21.0065 26.2319C21.2865 26.5019 21.7265 26.5019 21.9965 26.2319C22.2665 25.9519 22.2665 25.5119 21.9965 25.2319L1.1965 4.4419C0.9265 4.1719 0.4865 4.1619 0.2065 4.4419C-0.0635 4.7119 -0.0635 5.1719 0.2065 5.4319ZM11.8765 29.1119L15.5465 25.4419C15.7565 25.2219 15.7365 24.9419 15.5465 24.7319L13.2065 22.4219L14.2065 21.4219L8.9365 16.1519V26.4919C8.9365 26.7419 9.0165 26.9719 9.2165 27.1819L11.1365 29.1019C11.3265 29.2919 11.6465 29.3319 11.8765 29.1119Z" />
        </svg>
    