
        <svg xmlns="http://www.w3.org/2000/svg" viewBox="0 0 100 100">
            <path d="M27.5389 7.0087C27.5389 3.1088 24.4189 -0.0013 20.5389 -0.0013C17.5489 -0.0013 14.9289 1.8287 13.9189 4.6488H2.5389C2.3689 4.6488 2.1489 4.7088 1.9789 4.8888L0.1389 6.7288C-0.0411 6.8988 -0.0511 7.1088 0.1289 7.2888L3.6789 10.8388C3.8289 10.9788 4.0089 10.9788 4.1589 10.8388L6.5389 8.4488L9.7489 11.6788C9.8889 11.7988 10.0789 11.7988 10.2289 11.6488L13.5289 8.3588C14.8589 11.9888 17.4389 14.0188 20.5389 14.0188C24.4089 14.0188 27.5389 10.8888 27.5389 7.0087ZM21.2889 7.0087C21.2889 6.0488 22.0489 5.2888 22.9989 5.2888C23.9589 5.2888 24.7189 6.0488 24.7189 7.0087C24.7189 7.9588 23.9589 8.7188 22.9989 8.7188C22.0489 8.7188 21.2889 7.9588 21.2889 7.0087Z" />
        </svg>
    