
        <svg xmlns="http://www.w3.org/2000/svg" viewBox="0 0 100 100">
            <path d="M23.1717 16.4222C23.6917 17.0122 24.5617 17.0722 25.2917 16.3022C27.0617 14.3622 27.9217 11.4622 27.9217 8.4222C27.9217 5.4122 26.9417 2.4222 25.2917 0.5622C24.5817 -0.2078 23.7117 -0.1278 23.1717 0.4522C22.6617 0.9922 22.7617 1.7122 23.2617 2.2822C24.5717 3.8322 25.2817 6.0622 25.2817 8.4222C25.2817 10.8022 24.5417 13.0322 23.2617 14.5822C22.7717 15.1622 22.6717 15.8822 23.1717 16.4222ZM7.1717 29.8222C7.8717 30.4222 8.8217 30.4822 9.4817 29.8322L13.1017 26.2122C13.7417 25.5722 13.7217 24.5622 13.0817 23.9022L11.6217 22.4422L13.9217 20.1422C14.5517 19.5022 14.5517 18.4822 13.9117 17.8322L11.9317 15.8422C14.9617 14.1722 16.6417 11.5122 16.6417 8.4222C16.6417 3.8322 12.9417 0.1122 8.3217 0.1122C3.6917 0.1122 0.0017 3.8222 0.0017 8.4222C0.0017 11.6322 1.7817 14.5322 4.6517 15.9222V26.7222C4.6517 27.2322 4.8317 27.8322 5.2517 28.1922ZM8.3217 27.0422L7.1217 25.8622V13.8522C4.7017 13.3822 2.7817 11.1322 2.7817 8.4222C2.7817 5.3822 5.2517 2.9022 8.3217 2.9022C11.3917 2.9022 13.8517 5.3822 13.8517 8.4222C13.8517 11.1122 11.9217 13.3822 9.0517 13.8822V16.9222L11.1217 19.0122L8.9917 21.1022V23.7522L10.3017 25.0422ZM18.9717 13.0922C19.4617 13.6722 20.4117 13.6922 21.0717 12.9722C21.9917 11.9522 22.4717 10.2322 22.4717 8.4222C22.4717 6.6222 21.9917 4.9122 21.0717 3.8622C20.4117 3.1622 19.4617 3.1722 18.9717 3.7622C18.5117 4.3122 18.5817 5.0022 19.0117 5.5922C19.4617 6.2422 19.8317 7.4322 19.8317 8.4222C19.8317 9.4222 19.4617 10.6022 19.0117 11.2522C18.5717 11.8522 18.5117 12.5522 18.9717 13.0922ZM8.3217 8.2522C9.3617 8.2522 10.2117 7.3922 10.2117 6.3622C10.2117 5.3222 9.3617 4.4722 8.3217 4.4722C7.2817 4.4722 6.4417 5.3122 6.4417 6.3622C6.4417 7.3922 7.2817 8.2522 8.3217 8.2522Z" />
        </svg>
    