
        <svg xmlns="http://www.w3.org/2000/svg" viewBox="0 0 100 100">
            <path d="M22.0523 18.8908C25.3223 18.8908 27.8423 16.6608 27.8423 13.7508C27.8423 11.4608 26.6023 9.4208 24.2623 8.6608C24.4323 3.6908 20.9323 0.0008 16.4523 0.0008C13.2423 0.0008 11.1123 1.7808 9.9423 3.9508C7.2423 2.8208 4.1523 5.0008 4.1823 8.1408C1.6923 8.3308 0.0023 10.4308 0.0023 13.1408C0.0023 16.3708 2.7423 18.8708 6.4023 18.8708ZM19.8823 10.8708C19.8823 12.7108 18.3823 14.2008 16.5623 14.2008C15.0823 14.2008 13.8623 13.2508 13.2323 11.5508L11.6823 13.0808C11.5923 13.1508 11.4923 13.1608 11.4223 13.0908L9.9223 11.5808L8.8123 12.7008C8.7323 12.7808 8.6323 12.7808 8.5423 12.7008L6.8823 11.0008C6.7823 10.9108 6.7823 10.8208 6.8823 10.7208L7.7423 9.8508C7.8423 9.7608 7.9423 9.7308 8.0423 9.7308H13.3923C13.8723 8.3908 15.1323 7.5208 16.5623 7.5208C18.4023 7.5208 19.8823 9.0108 19.8823 10.8708ZM18.2423 10.8708C18.2423 10.2908 17.7923 9.8408 17.2223 9.8408C16.6623 9.8408 16.2023 10.3008 16.2023 10.8708C16.2023 11.4408 16.6623 11.8808 17.2223 11.8808C17.7923 11.8808 18.2423 11.4408 18.2423 10.8708Z" />
        </svg>
    