
        <svg xmlns="http://www.w3.org/2000/svg" viewBox="0 0 100 100">
            <path d="M12.9125 2.785C15.9825 2.785 18.4525 5.265 18.4525 8.305C18.4525 10.715 16.8925 12.795 14.5025 13.555L16.6125 15.665C19.5825 14.005 21.2425 11.365 21.2425 8.305C21.2425 3.715 17.5325 -0.005 12.9125 -0.005C9.6525 -0.005 6.8425 1.865 5.4925 4.575L7.6225 6.695C8.3125 4.425 10.4125 2.785 12.9125 2.785ZM0.2925 4.925L22.4925 27.105C22.9025 27.515 23.5725 27.495 23.9525 27.105C24.3625 26.695 24.3525 26.065 23.9525 25.675L1.7525 3.495C1.3425 3.085 0.6725 3.085 0.2925 3.465C-0.0975 3.855 -0.0975 4.545 0.2925 4.925ZM12.9125 8.135C13.9525 8.135 14.8025 7.275 14.8025 6.245C14.8025 5.205 13.9525 4.355 12.9125 4.355C11.8725 4.355 11.0325 5.195 11.0325 6.245C11.0325 7.275 11.8825 8.135 12.9125 8.135ZM14.0725 29.715L17.6925 26.095C17.9925 25.795 17.9725 25.395 17.7125 25.135L13.5825 20.985V23.635L14.9025 24.925L12.9125 26.925L11.7125 25.745V18.995L9.2425 16.525V26.605C9.2425 27.115 9.4225 27.715 9.8525 28.075L11.7625 29.705C12.4625 30.305 13.4225 30.365 14.0725 29.715Z" />
        </svg>
    