
        <svg xmlns="http://www.w3.org/2000/svg" viewBox="0 0 100 100">
            <path d="M3.4617 18.1747H25.6617C27.9517 18.1747 29.1217 17.0047 29.1217 14.7547V3.4247C29.1217 1.1647 27.9517 0.0047 25.6617 0.0047H3.4617C1.1617 0.0047 0.0017 1.1447 0.0017 3.4247V14.7547C0.0017 17.0147 1.1617 18.1747 3.4617 18.1747ZM3.4817 16.7247C2.1717 16.7247 1.4517 16.0347 1.4517 14.6747V3.4947C1.4517 2.1447 2.1717 1.4447 3.4817 1.4447H25.6317C26.9317 1.4447 27.6717 2.1447 27.6717 3.4947V14.6747C27.6717 16.0347 26.9317 16.7247 25.6317 16.7247ZM4.4617 6.2247H5.2517C5.4517 6.2247 5.5517 6.0947 5.5517 5.8547V4.7147C5.5517 4.4747 5.4517 4.3447 5.2517 4.3447H4.4617C4.2617 4.3447 4.1517 4.4747 4.1517 4.7147V5.8547C4.1517 6.0947 4.2617 6.2247 4.4617 6.2247ZM7.0417 6.2247H7.8317C8.0317 6.2247 8.1317 6.0947 8.1317 5.8547V4.7147C8.1317 4.4747 8.0317 4.3447 7.8317 4.3447H7.0417C6.8317 4.3447 6.7217 4.4747 6.7217 4.7147V5.8547C6.7217 6.0947 6.8317 6.2247 7.0417 6.2247ZM9.6117 6.2247H10.3917C10.5917 6.2247 10.7017 6.0947 10.7017 5.8547V4.7147C10.7017 4.4747 10.5917 4.3447 10.3917 4.3447H9.6117C9.4117 4.3447 9.2917 4.4747 9.2917 4.7147V5.8547C9.2917 6.0947 9.4117 6.2247 9.6117 6.2247ZM12.1717 6.2247H12.9517C13.1617 6.2247 13.2617 6.0947 13.2617 5.8547V4.7147C13.2617 4.4747 13.1617 4.3447 12.9517 4.3447H12.1717C11.9717 4.3447 11.8617 4.4747 11.8617 4.7147V5.8547C11.8617 6.0947 11.9717 6.2247 12.1717 6.2247ZM14.7317 6.2247H15.5417C15.7217 6.2247 15.8417 6.0947 15.8417 5.8547V4.7147C15.8417 4.4747 15.7217 4.3447 15.5417 4.3447H14.7317C14.5417 4.3447 14.4417 4.4747 14.4417 4.7147V5.8547C14.4417 6.0947 14.5417 6.2247 14.7317 6.2247ZM17.3217 6.2247H18.0917C18.3017 6.2247 18.4117 6.0947 18.4117 5.8547V4.7147C18.4117 4.4747 18.3017 4.3447 18.0917 4.3447H17.3217C17.1117 4.3447 17.0017 4.4747 17.0017 4.7147V5.8547C17.0017 6.0947 17.1117 6.2247 17.3217 6.2247ZM20.3717 8.5347C20.0017 8.8847 20.0017 9.2847 20.3717 9.6347L23.9917 13.1247C24.3517 13.4647 24.9217 13.3147 24.9217 12.7847V5.3747C24.9217 4.8547 24.3517 4.6947 23.9917 5.0347ZM4.4617 9.9847H5.2517C5.4517 9.9847 5.5517 9.8647 5.5517 9.6347V8.4847C5.5517 8.2347 5.4517 8.1247 5.2517 8.1247H4.4617C4.2617 8.1247 4.1517 8.2347 4.1517 8.4847V9.6347C4.1517 9.8647 4.2617 9.9847 4.4617 9.9847ZM7.0417 9.9847H7.8317C8.0317 9.9847 8.1317 9.8647 8.1317 9.6347V8.4847C8.1317 8.2347 8.0317 8.1247 7.8317 8.1247H7.0417C6.8317 8.1247 6.7217 8.2347 6.7217 8.4847V9.6347C6.7217 9.8647 6.8317 9.9847 7.0417 9.9847ZM9.6117 9.9847H10.3917C10.5917 9.9847 10.7017 9.8647 10.7017 9.6347V8.4847C10.7017 8.2347 10.5917 8.1247 10.3917 8.1247H9.6117C9.4117 8.1247 9.2917 8.2347 9.2917 8.4847V9.6347C9.2917 9.8647 9.4117 9.9847 9.6117 9.9847ZM12.1717 9.9847H12.9517C13.1617 9.9847 13.2617 9.8647 13.2617 9.6347V8.4847C13.2617 8.2347 13.1617 8.1247 12.9517 8.1247H12.1717C11.9717 8.1247 11.8617 8.2347 11.8617 8.4847V9.6347C11.8617 9.8647 11.9717 9.9847 12.1717 9.9847ZM14.7317 9.9847H15.5417C15.7217 9.9847 15.8417 9.8647 15.8417 9.6347V8.4847C15.8417 8.2347 15.7217 8.1247 15.5417 8.1247H14.7317C14.5417 8.1247 14.4417 8.2347 14.4417 8.4847V9.6347C14.4417 9.8647 14.5417 9.9847 14.7317 9.9847ZM17.3217 9.9847H18.0917C18.3017 9.9847 18.4117 9.8647 18.4117 9.6347V8.4847C18.4117 8.2347 18.3017 8.1247 18.0917 8.1247H17.3217C17.1117 8.1247 17.0017 8.2347 17.0017 8.4847V9.6347C17.0017 9.8647 17.1117 9.9847 17.3217 9.9847ZM4.4617 13.7547H5.2517C5.4517 13.7547 5.5517 13.6447 5.5517 13.3947V12.2447C5.5517 12.0147 5.4517 11.8947 5.2517 11.8947H4.4617C4.2617 11.8947 4.1517 12.0147 4.1517 12.2447V13.3947C4.1517 13.6447 4.2617 13.7547 4.4617 13.7547ZM7.0417 13.7547H15.5417C15.7217 13.7547 15.8417 13.6447 15.8417 13.3947V12.2447C15.8417 12.0147 15.7217 11.8947 15.5417 11.8947H7.0417C6.8317 11.8947 6.7217 12.0147 6.7217 12.2447V13.3947C6.7217 13.6447 6.8317 13.7547 7.0417 13.7547ZM17.3217 13.7547H18.0917C18.3017 13.7547 18.4117 13.6447 18.4117 13.3947V12.2447C18.4117 12.0147 18.3017 11.8947 18.0917 11.8947H17.3217C17.1117 11.8947 17.0017 12.0147 17.0017 12.2447V13.3947C17.0017 13.6447 17.1117 13.7547 17.3217 13.7547Z" />
        </svg>
    