
        <svg xmlns="http://www.w3.org/2000/svg" viewBox="0 0 100 100">
            <path d="M3.1617 17.7438H25.4617C27.5417 17.7438 28.6217 16.6338 28.6217 14.5938V3.1538C28.6217 1.1038 27.5417 0.0038 25.4617 0.0038H3.1617C1.0917 0.0038 0.0017 1.0738 0.0017 3.1538V14.5938C0.0017 16.6538 1.0917 17.7438 3.1617 17.7438ZM3.1917 16.8638C1.6617 16.8638 0.8717 16.0738 0.8717 14.5438V3.2037C0.8717 1.6638 1.6617 0.8637 3.1917 0.8637H25.4317C26.9017 0.8637 27.7517 1.6638 27.7517 3.2037V14.5438C27.7517 16.0738 26.9017 16.8638 25.4317 16.8638ZM4.3617 5.9738H5.2417C5.5617 5.9738 5.7317 5.8138 5.7317 5.4938V4.6038C5.7317 4.2937 5.5617 4.1137 5.2417 4.1137H4.3617C4.0417 4.1137 3.8717 4.2937 3.8717 4.6038V5.4938C3.8717 5.8138 4.0417 5.9738 4.3617 5.9738ZM8.1217 5.9738H9.0117C9.3317 5.9738 9.5017 5.8138 9.5017 5.4938V4.6038C9.5017 4.2937 9.3317 4.1137 9.0117 4.1137H8.1217C7.8017 4.1137 7.6417 4.2937 7.6417 4.6038V5.4938C7.6417 5.8138 7.8017 5.9738 8.1217 5.9738ZM11.8917 5.9738H12.7817C13.1017 5.9738 13.2617 5.8138 13.2617 5.4938V4.6038C13.2617 4.2937 13.1017 4.1137 12.7817 4.1137H11.8917C11.5817 4.1137 11.4017 4.2937 11.4017 4.6038V5.4938C11.4017 5.8138 11.5817 5.9738 11.8917 5.9738ZM15.6717 5.9738H16.5517C16.8617 5.9738 17.0417 5.8138 17.0417 5.4938V4.6038C17.0417 4.2937 16.8617 4.1137 16.5517 4.1137H15.6717C15.3517 4.1137 15.1717 4.2937 15.1717 4.6038V5.4938C15.1717 5.8138 15.3517 5.9738 15.6717 5.9738ZM19.4317 5.9738H20.3217C20.6417 5.9738 20.8117 5.8138 20.8117 5.4938V4.6038C20.8117 4.2937 20.6417 4.1137 20.3217 4.1137H19.4317C19.1117 4.1137 18.9517 4.2937 18.9517 4.6038V5.4938C18.9517 5.8138 19.1117 5.9738 19.4317 5.9738ZM23.2017 5.9738H24.0917C24.4117 5.9738 24.5717 5.8138 24.5717 5.4938V4.6038C24.5717 4.2937 24.4117 4.1137 24.0917 4.1137H23.2017C22.8917 4.1137 22.7117 4.2937 22.7117 4.6038V5.4938C22.7117 5.8138 22.8917 5.9738 23.2017 5.9738ZM4.3617 9.7538H5.2417C5.5617 9.7538 5.7317 9.5738 5.7317 9.2538V8.3837C5.7317 8.0638 5.5617 7.8837 5.2417 7.8837H4.3617C4.0417 7.8837 3.8717 8.0638 3.8717 8.3837V9.2538C3.8717 9.5738 4.0417 9.7538 4.3617 9.7538ZM8.1217 9.7538H9.0117C9.3317 9.7538 9.5017 9.5738 9.5017 9.2538V8.3837C9.5017 8.0638 9.3317 7.8837 9.0117 7.8837H8.1217C7.8017 7.8837 7.6417 8.0638 7.6417 8.3837V9.2538C7.6417 9.5738 7.8017 9.7538 8.1217 9.7538ZM11.8917 9.7538H12.7817C13.1017 9.7538 13.2617 9.5738 13.2617 9.2538V8.3837C13.2617 8.0638 13.1017 7.8837 12.7817 7.8837H11.8917C11.5817 7.8837 11.4017 8.0638 11.4017 8.3837V9.2538C11.4017 9.5738 11.5817 9.7538 11.8917 9.7538ZM15.6717 9.7538H16.5517C16.8617 9.7538 17.0417 9.5738 17.0417 9.2538V8.3837C17.0417 8.0638 16.8617 7.8837 16.5517 7.8837H15.6717C15.3517 7.8837 15.1717 8.0638 15.1717 8.3837V9.2538C15.1717 9.5738 15.3517 9.7538 15.6717 9.7538ZM19.4317 9.7538H20.3217C20.6417 9.7538 20.8117 9.5738 20.8117 9.2538V8.3837C20.8117 8.0638 20.6417 7.8837 20.3217 7.8837H19.4317C19.1117 7.8837 18.9517 8.0638 18.9517 8.3837V9.2538C18.9517 9.5738 19.1117 9.7538 19.4317 9.7538ZM23.2017 9.7538H24.0917C24.4117 9.7538 24.5717 9.5738 24.5717 9.2538V8.3837C24.5717 8.0638 24.4117 7.8837 24.0917 7.8837H23.2017C22.8917 7.8837 22.7117 8.0638 22.7117 8.3837V9.2538C22.7117 9.5738 22.8917 9.7538 23.2017 9.7538ZM4.3617 13.5238H5.2417C5.5617 13.5238 5.7317 13.3438 5.7317 13.0338V12.1438C5.7317 11.8238 5.5617 11.6638 5.2417 11.6638H4.3617C4.0417 11.6638 3.8717 11.8238 3.8717 12.1438V13.0338C3.8717 13.3438 4.0417 13.5238 4.3617 13.5238ZM8.1517 13.5238H20.3017C20.6217 13.5238 20.8117 13.3338 20.8117 13.0038V12.1638C20.8117 11.8338 20.6217 11.6638 20.3017 11.6638H8.1517C7.8117 11.6638 7.6417 11.8338 7.6417 12.1638V13.0038C7.6417 13.3338 7.8117 13.5238 8.1517 13.5238ZM23.2017 13.5238H24.0917C24.4117 13.5238 24.5717 13.3438 24.5717 13.0338V12.1438C24.5717 11.8238 24.4117 11.6638 24.0917 11.6638H23.2017C22.8917 11.6638 22.7117 11.8238 22.7117 12.1438V13.0338C22.7117 13.3438 22.8917 13.5238 23.2017 13.5238Z" />
        </svg>
    