
        <svg xmlns="http://www.w3.org/2000/svg" viewBox="0 0 100 100">
            <path d="M3.0117 17.5183H25.3617C27.3317 17.5183 28.3717 16.4383 28.3717 14.5083V3.0083C28.3717 1.0783 27.3317 -0.0017 25.3617 -0.0017H3.0117C1.0417 -0.0017 0.0017 1.0383 0.0017 3.0083V14.5083C0.0017 16.4783 1.0417 17.5183 3.0117 17.5183ZM10.7317 5.6683C10.5617 5.6683 10.4717 5.5883 10.4717 5.3483V4.5283C10.4717 4.2783 10.5617 4.1983 10.7317 4.1983H11.3517C11.5517 4.1983 11.6117 4.2783 11.6117 4.5283V5.3483C11.6117 5.5883 11.5517 5.6683 11.3517 5.6683ZM13.3017 5.6683C13.1217 5.6683 13.0517 5.5883 13.0517 5.3483V4.5283C13.0517 4.2783 13.1217 4.1983 13.3017 4.1983H13.9417C14.1217 4.1983 14.1817 4.2783 14.1817 4.5283V5.3483C14.1817 5.5883 14.1217 5.6683 13.9417 5.6683ZM15.8817 5.6683C15.7017 5.6683 15.6217 5.5883 15.6217 5.3483V4.5283C15.6217 4.2783 15.7017 4.1983 15.8817 4.1983H16.5017C16.6717 4.1983 16.7617 4.2783 16.7617 4.5283V5.3483C16.7617 5.5883 16.6717 5.6683 16.5017 5.6683ZM18.4317 5.6683C18.2617 5.6683 18.1717 5.5883 18.1717 5.3483V4.5283C18.1717 4.2783 18.2617 4.1983 18.4317 4.1983H19.0517C19.2317 4.1983 19.3117 4.2783 19.3117 4.5283V5.3483C19.3117 5.5883 19.2317 5.6683 19.0517 5.6683ZM20.9917 5.6683C20.8117 5.6683 20.7517 5.5883 20.7517 5.3483V4.5283C20.7517 4.2783 20.8117 4.1983 20.9917 4.1983H21.6317C21.8117 4.1983 21.8817 4.2783 21.8817 4.5283V5.3483C21.8817 5.5883 21.8117 5.6683 21.6317 5.6683ZM23.5817 5.6683C23.3817 5.6683 23.3217 5.5883 23.3217 5.3483V4.5283C23.3217 4.2783 23.3817 4.1983 23.5817 4.1983H24.2017C24.3717 4.1983 24.4417 4.2783 24.4417 4.5283V5.3483C24.4417 5.5883 24.3717 5.6683 24.2017 5.6683ZM8.5617 8.3983C8.8017 8.6483 8.8017 8.8783 8.5617 9.1183L4.5617 13.0383C4.2617 13.3083 3.9117 13.1483 3.9117 12.8283V4.6883C3.9117 4.3683 4.2617 4.2083 4.5617 4.4783ZM10.7317 9.4483C10.5617 9.4483 10.4717 9.3483 10.4717 9.1183V8.2883C10.4717 8.0483 10.5617 7.9583 10.7317 7.9583H11.3517C11.5517 7.9583 11.6117 8.0483 11.6117 8.2883V9.1183C11.6117 9.3483 11.5517 9.4483 11.3517 9.4483ZM13.3017 9.4483C13.1217 9.4483 13.0517 9.3483 13.0517 9.1183V8.2883C13.0517 8.0483 13.1217 7.9583 13.3017 7.9583H13.9417C14.1217 7.9583 14.1817 8.0483 14.1817 8.2883V9.1183C14.1817 9.3483 14.1217 9.4483 13.9417 9.4483ZM15.8817 9.4483C15.7017 9.4483 15.6217 9.3483 15.6217 9.1183V8.2883C15.6217 8.0483 15.7017 7.9583 15.8817 7.9583H16.5017C16.6717 7.9583 16.7617 8.0483 16.7617 8.2883V9.1183C16.7617 9.3483 16.6717 9.4483 16.5017 9.4483ZM18.4317 9.4483C18.2617 9.4483 18.1717 9.3483 18.1717 9.1183V8.2883C18.1717 8.0483 18.2617 7.9583 18.4317 7.9583H19.0517C19.2317 7.9583 19.3117 8.0483 19.3117 8.2883V9.1183C19.3117 9.3483 19.2317 9.4483 19.0517 9.4483ZM20.9917 9.4483C20.8117 9.4483 20.7517 9.3483 20.7517 9.1183V8.2883C20.7517 8.0483 20.8117 7.9583 20.9917 7.9583H21.6317C21.8117 7.9583 21.8817 8.0483 21.8817 8.2883V9.1183C21.8817 9.3483 21.8117 9.4483 21.6317 9.4483ZM23.5817 9.4483C23.3817 9.4483 23.3217 9.3483 23.3217 9.1183V8.2883C23.3217 8.0483 23.3817 7.9583 23.5817 7.9583H24.2017C24.3717 7.9583 24.4417 8.0483 24.4417 8.2883V9.1183C24.4417 9.3483 24.3717 9.4483 24.2017 9.4483ZM10.7317 13.2083C10.5617 13.2083 10.4717 13.1283 10.4717 12.8783V12.0583C10.4717 11.8083 10.5617 11.7283 10.7317 11.7283H11.3517C11.5517 11.7283 11.6117 11.8083 11.6117 12.0583V12.8783C11.6117 13.1283 11.5517 13.2083 11.3517 13.2083ZM13.3017 13.2083C13.1217 13.2083 13.0517 13.1283 13.0517 12.8783V12.0583C13.0517 11.8083 13.1217 11.7283 13.3017 11.7283H21.6317C21.8117 11.7283 21.8817 11.8083 21.8817 12.0583V12.8783C21.8817 13.1283 21.8117 13.2083 21.6317 13.2083ZM23.5817 13.2083C23.3817 13.2083 23.3217 13.1283 23.3217 12.8783V12.0583C23.3217 11.8083 23.3817 11.7283 23.5817 11.7283H24.2017C24.3717 11.7283 24.4417 11.8083 24.4417 12.0583V12.8783C24.4417 13.1283 24.3717 13.2083 24.2017 13.2083Z" />
        </svg>
    