
        <svg xmlns="http://www.w3.org/2000/svg" viewBox="0 0 100 100">
            <path d="M3.0117 17.5183H25.3617C27.3317 17.5183 28.3717 16.4383 28.3717 14.5083V3.0083C28.3717 1.0783 27.3317 -0.0017 25.3617 -0.0017H3.0117C1.0417 -0.0017 0.0017 1.0383 0.0017 3.0083V14.5083C0.0017 16.4783 1.0417 17.5183 3.0117 17.5183ZM4.1717 5.6683C3.9917 5.6683 3.9117 5.5883 3.9117 5.3483V4.5283C3.9117 4.2783 3.9917 4.1983 4.1717 4.1983H4.7917C4.9917 4.1983 5.0517 4.2783 5.0517 4.5283V5.3483C5.0517 5.5883 4.9917 5.6683 4.7917 5.6683ZM6.7417 5.6683C6.5617 5.6683 6.4917 5.5883 6.4917 5.3483V4.5283C6.4917 4.2783 6.5617 4.1983 6.7417 4.1983H7.3817C7.5617 4.1983 7.6217 4.2783 7.6217 4.5283V5.3483C7.6217 5.5883 7.5617 5.6683 7.3817 5.6683ZM9.3117 5.6683C9.1317 5.6683 9.0617 5.5883 9.0617 5.3483V4.5283C9.0617 4.2783 9.1317 4.1983 9.3117 4.1983H9.9417C10.1117 4.1983 10.1817 4.2783 10.1817 4.5283V5.3483C10.1817 5.5883 10.1117 5.6683 9.9417 5.6683ZM11.8717 5.6683C11.6917 5.6683 11.6117 5.5883 11.6117 5.3483V4.5283C11.6117 4.2783 11.6917 4.1983 11.8717 4.1983H12.4917C12.6717 4.1983 12.7517 4.2783 12.7517 4.5283V5.3483C12.7517 5.5883 12.6717 5.6683 12.4917 5.6683ZM14.4217 5.6683C14.2517 5.6683 14.1917 5.5883 14.1917 5.3483V4.5283C14.1917 4.2783 14.2517 4.1983 14.4217 4.1983H15.0617C15.2417 4.1983 15.3117 4.2783 15.3117 4.5283V5.3483C15.3117 5.5883 15.2417 5.6683 15.0617 5.6683ZM17.0117 5.6683C16.8117 5.6683 16.7617 5.5883 16.7617 5.3483V4.5283C16.7617 4.2783 16.8117 4.1983 17.0117 4.1983H17.6417C17.8117 4.1983 17.8817 4.2783 17.8817 4.5283V5.3483C17.8817 5.5883 17.8117 5.6683 17.6417 5.6683ZM19.7717 8.3983L23.7917 4.4783C24.0717 4.2083 24.4217 4.3683 24.4217 4.6883V12.8283C24.4217 13.1483 24.0717 13.3083 23.7917 13.0383L19.7717 9.1183C19.5317 8.8783 19.5317 8.6483 19.7717 8.3983ZM4.1717 9.4483C3.9917 9.4483 3.9117 9.3483 3.9117 9.1183V8.2883C3.9117 8.0483 3.9917 7.9583 4.1717 7.9583H4.7917C4.9917 7.9583 5.0517 8.0483 5.0517 8.2883V9.1183C5.0517 9.3483 4.9917 9.4483 4.7917 9.4483ZM6.7417 9.4483C6.5617 9.4483 6.4917 9.3483 6.4917 9.1183V8.2883C6.4917 8.0483 6.5617 7.9583 6.7417 7.9583H7.3817C7.5617 7.9583 7.6217 8.0483 7.6217 8.2883V9.1183C7.6217 9.3483 7.5617 9.4483 7.3817 9.4483ZM9.3117 9.4483C9.1317 9.4483 9.0617 9.3483 9.0617 9.1183V8.2883C9.0617 8.0483 9.1317 7.9583 9.3117 7.9583H9.9417C10.1117 7.9583 10.1817 8.0483 10.1817 8.2883V9.1183C10.1817 9.3483 10.1117 9.4483 9.9417 9.4483ZM11.8717 9.4483C11.6917 9.4483 11.6117 9.3483 11.6117 9.1183V8.2883C11.6117 8.0483 11.6917 7.9583 11.8717 7.9583H12.4917C12.6717 7.9583 12.7517 8.0483 12.7517 8.2883V9.1183C12.7517 9.3483 12.6717 9.4483 12.4917 9.4483ZM14.4217 9.4483C14.2517 9.4483 14.1917 9.3483 14.1917 9.1183V8.2883C14.1917 8.0483 14.2517 7.9583 14.4217 7.9583H15.0617C15.2417 7.9583 15.3117 8.0483 15.3117 8.2883V9.1183C15.3117 9.3483 15.2417 9.4483 15.0617 9.4483ZM17.0117 9.4483C16.8117 9.4483 16.7617 9.3483 16.7617 9.1183V8.2883C16.7617 8.0483 16.8117 7.9583 17.0117 7.9583H17.6417C17.8117 7.9583 17.8817 8.0483 17.8817 8.2883V9.1183C17.8817 9.3483 17.8117 9.4483 17.6417 9.4483ZM4.1717 13.2083C3.9917 13.2083 3.9117 13.1283 3.9117 12.8783V12.0583C3.9117 11.8083 3.9917 11.7283 4.1717 11.7283H4.7917C4.9917 11.7283 5.0517 11.8083 5.0517 12.0583V12.8783C5.0517 13.1283 4.9917 13.2083 4.7917 13.2083ZM6.7417 13.2083C6.5617 13.2083 6.4917 13.1283 6.4917 12.8783V12.0583C6.4917 11.8083 6.5617 11.7283 6.7417 11.7283H15.0617C15.2417 11.7283 15.3117 11.8083 15.3117 12.0583V12.8783C15.3117 13.1283 15.2417 13.2083 15.0617 13.2083ZM17.0117 13.2083C16.8117 13.2083 16.7617 13.1283 16.7617 12.8783V12.0583C16.7617 11.8083 16.8117 11.7283 17.0117 11.7283H17.6417C17.8117 11.7283 17.8817 11.8083 17.8817 12.0583V12.8783C17.8817 13.1283 17.8117 13.2083 17.6417 13.2083Z" />
        </svg>
    