
        <svg xmlns="http://www.w3.org/2000/svg" viewBox="0 0 100 100">
            <path d="M4.3817 20.3563H26.6017C29.3917 20.3563 30.9817 18.7763 30.9817 15.9963V4.3663C30.9817 1.5862 29.3917 -0.0038 26.6017 -0.0038H4.3817C1.5817 -0.0038 0.0017 1.5862 0.0017 4.3663V15.9963C0.0017 18.7863 1.5817 20.3563 4.3817 20.3563ZM5.5817 7.6063C5.1517 7.6063 4.9117 7.3563 4.9117 6.9462V5.7762C4.9117 5.3562 5.1517 5.1062 5.5817 5.1062H6.7417C7.1617 5.1062 7.3917 5.3562 7.3917 5.7762V6.9462C7.3917 7.3563 7.1617 7.6063 6.7417 7.6063ZM9.3017 7.6063C8.8817 7.6063 8.6517 7.3563 8.6517 6.9462V5.7762C8.6517 5.3562 8.8817 5.1062 9.3017 5.1062H10.4617C10.8917 5.1062 11.1317 5.3562 11.1317 5.7762V6.9462C11.1317 7.3563 10.8917 7.6063 10.4617 7.6063ZM13.0317 7.6063C12.6217 7.6063 12.3717 7.3563 12.3717 6.9462V5.7762C12.3717 5.3562 12.6217 5.1062 13.0317 5.1062H14.2017C14.6117 5.1062 14.8617 5.3562 14.8617 5.7762V6.9462C14.8617 7.3563 14.6117 7.6063 14.2017 7.6063ZM16.7617 7.6063C16.3517 7.6063 16.1017 7.3563 16.1017 6.9462V5.7762C16.1017 5.3562 16.3517 5.1062 16.7617 5.1062H17.9317C18.3417 5.1062 18.5817 5.3562 18.5817 5.7762V6.9462C18.5817 7.3563 18.3417 7.6063 17.9317 7.6063ZM20.6017 7.6063C20.1217 7.6063 19.8317 7.3563 19.8317 6.9462V5.7762C19.8317 5.3562 20.1217 5.1062 20.6017 5.1062H21.6517C22.0817 5.1062 22.3117 5.3562 22.3117 5.7762V6.9462C22.3117 7.3563 22.0817 7.6063 21.6517 7.6063ZM24.2217 7.6063C23.8017 7.6063 23.5517 7.3563 23.5517 6.9462V5.7762C23.5517 5.3562 23.8017 5.1062 24.2217 5.1062H25.3817C25.7917 5.1062 26.0517 5.3562 26.0517 5.7762V6.9462C26.0517 7.3563 25.7917 7.6063 25.3817 7.6063ZM5.5817 11.4462C5.1517 11.4462 4.9117 11.2063 4.9117 10.7963V9.6063C4.9117 9.1962 5.1517 8.9462 5.5817 8.9462H6.7417C7.1617 8.9462 7.3917 9.1962 7.3917 9.6063V10.7963C7.3917 11.2063 7.1617 11.4462 6.7417 11.4462ZM9.3017 11.4462C8.8817 11.4462 8.6517 11.2063 8.6517 10.7963V9.6063C8.6517 9.1962 8.8817 8.9462 9.3017 8.9462H10.4617C10.8917 8.9462 11.1317 9.1962 11.1317 9.6063V10.7963C11.1317 11.2063 10.8917 11.4462 10.4617 11.4462ZM13.0317 11.4462C12.6217 11.4462 12.3717 11.2063 12.3717 10.7963V9.6063C12.3717 9.1962 12.6217 8.9462 13.0317 8.9462H14.2017C14.6117 8.9462 14.8617 9.1962 14.8617 9.6063V10.7963C14.8617 11.2063 14.6117 11.4462 14.2017 11.4462ZM16.7617 11.4462C16.3517 11.4462 16.1017 11.2063 16.1017 10.7963V9.6063C16.1017 9.1962 16.3517 8.9462 16.7617 8.9462H17.9317C18.3417 8.9462 18.5817 9.1962 18.5817 9.6063V10.7963C18.5817 11.2063 18.3417 11.4462 17.9317 11.4462ZM20.6017 11.4462C20.1217 11.4462 19.8317 11.2063 19.8317 10.7963V9.6063C19.8317 9.1962 20.1217 8.9462 20.6017 8.9462H21.6517C22.0817 8.9462 22.3117 9.1962 22.3117 9.6063V10.7963C22.3117 11.2063 22.0817 11.4462 21.6517 11.4462ZM24.2217 11.4462C23.8017 11.4462 23.5517 11.2063 23.5517 10.7963V9.6063C23.5517 9.1962 23.8017 8.9462 24.2217 8.9462H25.3817C25.7917 8.9462 26.0517 9.1962 26.0517 9.6063V10.7963C26.0517 11.2063 25.7917 11.4462 25.3817 11.4462ZM5.5817 15.2963C5.1517 15.2963 4.9117 15.0463 4.9117 14.6263V13.4563C4.9117 13.0463 5.1517 12.7963 5.5817 12.7963H6.7417C7.1617 12.7963 7.3917 13.0463 7.3917 13.4563V14.6263C7.3917 15.0463 7.1617 15.2963 6.7417 15.2963ZM9.3417 15.2963C8.8917 15.2963 8.6517 15.0363 8.6517 14.5863V13.4863C8.6517 13.0463 8.8917 12.7963 9.3417 12.7963H21.6217C22.0517 12.7963 22.3117 13.0463 22.3117 13.4863V14.5863C22.3117 15.0363 22.0517 15.2963 21.6217 15.2963ZM24.2217 15.2963C23.8017 15.2963 23.5517 15.0463 23.5517 14.6263V13.4563C23.5517 13.0463 23.8017 12.7963 24.2217 12.7963H25.3817C25.7917 12.7963 26.0517 13.0463 26.0517 13.4563V14.6263C26.0517 15.0463 25.7917 15.2963 25.3817 15.2963Z" />
        </svg>
    