
        <svg xmlns="http://www.w3.org/2000/svg" viewBox="0 0 100 100">
            <path d="M14.3123 5.1889C16.4223 5.1889 18.3623 5.9089 19.9123 7.1089C20.1723 7.3089 20.4923 7.2889 20.7323 7.0589L23.4923 4.2889C23.7923 3.9989 23.7823 3.5789 23.4723 3.3189C20.9923 1.2389 17.7923 -0.0011 14.3123 -0.0011C10.8323 -0.0011 7.6123 1.2389 5.1423 3.3189C4.8323 3.5789 4.8123 3.9989 5.1123 4.2889L7.8723 7.0589C8.1223 7.2889 8.4623 7.3089 8.7323 7.0989C10.2823 5.9089 12.2123 5.1889 14.3123 5.1889ZM28.6023 14.2989C28.6023 10.8189 27.3623 7.6089 25.2823 5.1189C25.0223 4.8189 24.6023 4.8189 24.3023 5.1089L21.5523 7.8589C21.3023 8.1089 21.3023 8.4489 21.5023 8.7289C22.7123 10.2789 23.4123 12.2089 23.4123 14.2989C23.4123 16.4189 22.6923 18.3589 21.4223 19.9889C21.2323 20.2289 21.2423 20.5189 21.4423 20.7189L24.2723 23.5389C24.5523 23.8389 24.9823 23.8389 25.2423 23.5289C27.3423 21.0389 28.6023 17.8089 28.6023 14.2989ZM0.0023 14.2989C0.0023 17.8089 1.2623 21.0389 3.3723 23.5289C3.6323 23.8389 4.0523 23.8389 4.3323 23.5389L7.1623 20.7189C7.3623 20.5189 7.3823 20.2289 7.1923 19.9889C5.9223 18.3589 5.1923 16.4189 5.1923 14.2989C5.1923 12.2089 5.9023 10.2789 7.1023 8.7289C7.3123 8.4489 7.3123 8.1089 7.0623 7.8589L4.3023 5.1089C4.0123 4.8189 3.5823 4.8189 3.3323 5.1289C1.2423 7.6189 0.0023 10.8189 0.0023 14.2989ZM11.7223 19.7089C12.2123 19.7089 12.5123 19.3989 12.5123 18.8789V14.6389H13.1623L16.5623 19.2789C16.7423 19.5589 16.9423 19.7089 17.2823 19.7089C17.8323 19.7089 18.0423 19.2989 18.0423 19.0089C18.0423 18.7689 17.9723 18.6089 17.8323 18.4089L14.8823 14.6389H17.9623C18.1723 14.6389 18.3523 14.4689 18.3523 14.2589C18.3523 14.0389 18.1723 13.8889 17.9623 13.8889H14.9223L17.8323 10.2389C17.9523 10.0789 18.0223 9.8989 18.0223 9.7389C18.0223 9.3289 17.6723 9.0389 17.2823 9.0389C17.0023 9.0389 16.7723 9.2189 16.6023 9.4489L13.1823 13.8889H12.5123V9.8589C12.5123 9.3489 12.2023 9.0389 11.7023 9.0389C11.2023 9.0389 10.9023 9.3489 10.9023 9.8589V13.8889H10.0623C9.8523 13.8889 9.7023 14.0389 9.7023 14.2589C9.7023 14.4889 9.8523 14.6389 10.0623 14.6389H10.9023V18.8789C10.9023 19.3989 11.2123 19.7089 11.7223 19.7089Z" />
        </svg>
    