
        <svg xmlns="http://www.w3.org/2000/svg" viewBox="0 0 100 100">
            <path d="M1.7417 22.7616H25.1917V21.8816C25.1917 21.3616 24.8917 21.0616 24.3717 21.0616H23.6917V8.3716H24.7017C25.4217 8.3716 25.8417 7.8516 25.8417 7.3116C25.8417 6.9216 25.6217 6.5716 25.1517 6.2916L14.9717 0.4216C14.4917 0.1516 13.9717 0.0016 13.4617 0.0016C12.9617 0.0016 12.4217 0.1516 11.9517 0.4216L1.7817 6.2916C1.3017 6.5716 1.0917 6.9216 1.0917 7.3116C1.0917 7.8516 1.5117 8.3716 2.2217 8.3716H3.2417V21.0616H2.5617C2.0517 21.0616 1.7417 21.3616 1.7417 21.8816ZM5.1917 21.0616V6.8016L13.0517 2.4016C13.1817 2.3316 13.3317 2.2816 13.4617 2.2816C13.6017 2.2816 13.7417 2.3316 13.8717 2.4016L21.7517 6.8016V21.0616ZM10.8917 18.0116C11.3817 18.0116 11.6917 17.6816 11.6917 17.1816V12.9416H12.3417L15.7417 17.5816C15.9217 17.8616 16.1217 18.0116 16.4617 18.0116C17.0117 18.0116 17.2217 17.6016 17.2217 17.3116C17.2217 17.0716 17.1517 16.9116 17.0017 16.7116L14.0617 12.9416H17.1417C17.3517 12.9416 17.5217 12.7716 17.5217 12.5616C17.5217 12.3416 17.3517 12.1916 17.1417 12.1916H14.1017L17.0117 8.5416C17.1317 8.3816 17.2017 8.2016 17.2017 8.0316C17.2017 7.6216 16.8417 7.3316 16.4617 7.3316C16.1817 7.3316 15.9517 7.5216 15.7817 7.7416L12.3617 12.1916H11.6917V8.1516C11.6917 7.6516 11.3817 7.3316 10.8917 7.3316C10.3817 7.3316 10.0817 7.6516 10.0817 8.1516V12.1916H9.2417C9.0317 12.1916 8.8717 12.3416 8.8717 12.5616C8.8717 12.7816 9.0317 12.9416 9.2417 12.9416H10.0817V17.1816C10.0817 17.6816 10.3817 18.0116 10.8917 18.0116ZM1.0617 25.7816H25.8017C26.3817 25.7816 26.8717 25.3016 26.8717 24.7116C26.8717 24.1416 26.3817 23.6616 25.8017 23.6616H1.0617C0.4817 23.6616 0.0017 24.1416 0.0017 24.7116C0.0017 25.3016 0.4817 25.7816 1.0617 25.7816Z" />
        </svg>
    