
        <svg xmlns="http://www.w3.org/2000/svg" viewBox="0 0 100 100">
            <path d="M4.3817 22.8467H18.4717C21.2617 22.8467 22.8517 21.2667 22.8517 18.4767V4.3667C22.8517 1.5867 21.2617 -0.0033 18.4717 -0.0033H4.3817C1.5917 -0.0033 0.0017 1.5867 0.0017 4.3667V18.4767C0.0017 21.2667 1.5917 22.8467 4.3817 22.8467ZM8.9717 16.8867C8.1717 16.8867 7.6617 16.3567 7.6617 15.5467L7.6517 11.4567H6.7217C6.5317 11.4567 6.3917 11.3067 6.3917 11.1167C6.3917 10.9067 6.5317 10.7767 6.7217 10.7767H7.6517V7.2467C7.6517 6.4367 8.1517 5.9167 8.9617 5.9167C9.7617 5.9167 10.2617 6.4367 10.2617 7.2467V10.7767H10.6717L13.5917 6.5867C13.8717 6.1667 14.1517 5.9167 14.6617 5.9167C15.2217 5.9167 15.8717 6.3167 15.8717 6.9767C15.8717 7.2467 15.7617 7.5267 15.6017 7.7667L13.2917 10.7767H15.9717C16.1717 10.7767 16.3117 10.9067 16.3117 11.1067C16.3117 11.3067 16.1717 11.4567 15.9717 11.4567H13.2517L15.6017 14.6967C15.8517 15.0467 15.9417 15.3267 15.9417 15.7267C15.9417 16.1867 15.6217 16.8867 14.6617 16.8867C14.0717 16.8867 13.7417 16.6167 13.4517 16.1167L10.6317 11.4567H10.2617L10.2817 15.5467C10.2817 16.3567 9.7717 16.8867 8.9717 16.8867Z" />
        </svg>
    