
        <svg xmlns="http://www.w3.org/2000/svg" viewBox="0 0 100 100">
            <path d="M3.6817 21.5722H17.8917C20.3517 21.5722 21.5717 20.3722 21.5717 17.9522V3.6322C21.5717 1.2222 20.3517 0.0022 17.8917 0.0022H3.6817C1.2317 0.0022 0.0017 1.2222 0.0017 3.6322V17.9522C0.0017 20.3722 1.2317 21.5722 3.6817 21.5722ZM8.0717 16.3322C7.6317 16.3322 7.3617 16.0522 7.3617 15.6122V11.1122H6.5317C6.2917 11.1122 6.1217 10.9322 6.1217 10.7022C6.1217 10.4522 6.2917 10.2922 6.5317 10.2922H7.3617V5.9022C7.3617 5.4722 7.6317 5.1922 8.0717 5.1922C8.5117 5.1922 8.7817 5.4722 8.7817 5.9022V10.2922H9.5617L13.3017 5.5422C13.4417 5.3622 13.6517 5.1922 13.9017 5.1922C14.2517 5.1922 14.5417 5.4622 14.5417 5.8222C14.5417 5.9722 14.4817 6.1322 14.3517 6.2722L11.1217 10.2922H14.4217C14.6617 10.2922 14.8517 10.4522 14.8517 10.6922C14.8517 10.9222 14.6617 11.1122 14.4217 11.1122H11.1017L14.3517 15.2222C14.4817 15.3822 14.5517 15.5322 14.5517 15.7122C14.5517 15.9822 14.3517 16.3322 13.9017 16.3322C13.6217 16.3322 13.4417 16.1922 13.2817 15.9822L9.5517 11.1122H8.7817V15.6122C8.7817 16.0522 8.5117 16.3322 8.0717 16.3322Z" />
        </svg>
    