
        <svg xmlns="http://www.w3.org/2000/svg" viewBox="0 0 100 100">
            <path d="M11.9523 23.9041C18.5523 23.9041 23.9023 18.5341 23.9023 11.9541C23.9023 5.3541 18.5523 0.0041 11.9523 0.0041C5.3623 0.0041 0.0023 5.3541 0.0023 11.9541C0.0023 18.5341 5.3623 23.9041 11.9523 23.9041ZM9.2323 17.5041C8.7923 17.5041 8.5223 17.2241 8.5223 16.7841V12.2841H7.6923C7.4423 12.2841 7.2823 12.1041 7.2823 11.8741C7.2823 11.6241 7.4423 11.4641 7.6923 11.4641H8.5223V7.0741C8.5223 6.6441 8.7923 6.3641 9.2323 6.3641C9.6523 6.3641 9.9423 6.6441 9.9423 7.0741V11.4641H10.7223L14.4623 6.7141C14.6023 6.5341 14.8123 6.3641 15.0623 6.3641C15.4123 6.3641 15.7023 6.6341 15.7023 6.9941C15.7023 7.1441 15.6323 7.3041 15.5123 7.4441L12.2723 11.4641H15.5823C15.8223 11.4641 16.0123 11.6241 16.0123 11.8641C16.0123 12.0941 15.8223 12.2841 15.5823 12.2841H12.2423L15.5123 16.3941C15.6423 16.5541 15.7123 16.7041 15.7123 16.8841C15.7123 17.1541 15.5123 17.5041 15.0623 17.5041C14.7823 17.5041 14.6023 17.3641 14.4423 17.1541L10.7123 12.2841H9.9423V16.7841C9.9423 17.2241 9.6523 17.5041 9.2323 17.5041Z" />
        </svg>
    