
        <svg xmlns="http://www.w3.org/2000/svg" viewBox="0 0 100 100">
            <path d="M14.1123 5.0248C16.2323 5.0248 18.1723 5.7648 19.7323 6.9748C19.9723 7.1648 20.2723 7.1348 20.4923 6.9148L23.2123 4.1948C23.4823 3.9248 23.4723 3.5348 23.1923 3.3048C20.7423 1.2448 17.5623 0.0048 14.1123 0.0048C10.6623 0.0048 7.4923 1.2448 5.0423 3.3048C4.7623 3.5348 4.7423 3.9248 5.0123 4.1948L7.7323 6.9148C7.9523 7.1348 8.2723 7.1648 8.5323 6.9648C10.0823 5.7648 12.0123 5.0248 14.1123 5.0248ZM0.0023 14.1048C0.0023 17.5648 1.2423 20.7448 3.3123 23.2048C3.5523 23.4948 3.9523 23.4948 4.2023 23.2248L6.9923 20.4348C7.1723 20.2548 7.1923 19.9948 7.0323 19.7948C5.7523 18.1648 5.0323 16.2148 5.0323 14.1048C5.0323 12.0148 5.7423 10.0648 6.9623 8.5148C7.1523 8.2748 7.1523 7.9548 6.9223 7.7348L4.2023 5.0148C3.9423 4.7448 3.5523 4.7448 3.3123 5.0248C1.2423 7.4848 0.0023 10.6648 0.0023 14.1048ZM28.2323 14.1048C28.2323 10.6648 26.9923 7.4848 24.9123 5.0248C24.6823 4.7448 24.2823 4.7448 24.0223 5.0148L21.3023 7.7348C21.0823 7.9548 21.0723 8.2748 21.2723 8.5148C22.4723 10.0648 23.2023 12.0148 23.2023 14.1048C23.2023 16.2148 22.4723 18.1648 21.2023 19.7948C21.0323 19.9948 21.0423 20.2548 21.2223 20.4348L24.0123 23.2248C24.2823 23.4948 24.6723 23.4948 24.9123 23.2048C26.9923 20.7448 28.2323 17.5648 28.2323 14.1048ZM11.4623 19.6548C11.8823 19.6548 12.1423 19.3748 12.1423 18.9448V14.5748H12.8923L16.5123 19.3048C16.6623 19.5248 16.8423 19.6548 17.1123 19.6548C17.5523 19.6548 17.7423 19.3048 17.7423 19.0548C17.7423 18.8648 17.6723 18.7248 17.5523 18.5748L14.3923 14.5748H17.6223C17.8523 14.5748 18.0223 14.4048 18.0223 14.1748C18.0223 13.9548 17.8523 13.7948 17.6223 13.7948H14.4123L17.5623 9.9048C17.6723 9.7548 17.7323 9.5948 17.7323 9.4548C17.7323 9.1048 17.4523 8.8548 17.1123 8.8548C16.8823 8.8548 16.6623 9.0248 16.5323 9.1948L12.9023 13.7948H12.1423V9.5548C12.1423 9.1148 11.8823 8.8548 11.4623 8.8548C11.0423 8.8548 10.7723 9.1148 10.7723 9.5548V13.7948H9.9623C9.7423 13.7948 9.5723 13.9448 9.5723 14.1948C9.5723 14.4148 9.7423 14.5748 9.9623 14.5748H10.7723V18.9448C10.7723 19.3748 11.0423 19.6548 11.4623 19.6548Z" />
        </svg>
    