
        <svg xmlns="http://www.w3.org/2000/svg" viewBox="0 0 100 100">
            <path d="M11.3523 22.7064C17.6323 22.7064 22.7123 17.6264 22.7123 11.3564C22.7123 5.0764 17.6323 -0.0036 11.3523 -0.0036C5.0823 -0.0036 0.0023 5.0764 0.0023 11.3564C0.0023 17.6264 5.0823 22.7064 11.3523 22.7064ZM11.3523 22.1364C5.3923 22.1364 0.5723 17.3164 0.5723 11.3564C0.5723 5.3864 5.3923 0.5764 11.3523 0.5764C17.3223 0.5764 22.1323 5.3864 22.1323 11.3564C22.1323 17.3164 17.3223 22.1364 11.3523 22.1364ZM4.8823 15.2464C5.0823 15.2464 5.2023 15.1264 5.2023 14.9164V12.6064L5.8923 11.4564L7.8423 14.9864C7.9023 15.1064 7.9723 15.2364 8.1423 15.2364C8.3123 15.2364 8.4223 15.0964 8.4223 14.9564C8.4223 14.8864 8.3923 14.8264 8.3323 14.7164L6.2423 10.9364L8.1023 7.9464C8.1323 7.8764 8.1523 7.8264 8.1523 7.7564C8.1523 7.5964 8.0423 7.4764 7.8723 7.4764C7.7423 7.4764 7.6623 7.5464 7.5923 7.6664L5.2223 11.6064H5.2023V7.7764C5.2023 7.5864 5.0723 7.4664 4.8623 7.4664C4.7023 7.4664 4.5823 7.6064 4.5823 7.7764V14.9164C4.5823 15.1064 4.6923 15.2464 4.8823 15.2464ZM14.5623 15.2464C14.7623 15.2464 14.8823 15.1164 14.8823 14.9064V11.5264H17.4923V14.9064C17.4923 15.1164 17.6123 15.2464 17.8023 15.2464C17.9923 15.2464 18.1023 15.1164 18.1023 14.9064V7.8064C18.1023 7.5964 17.9923 7.4664 17.8023 7.4664C17.6123 7.4664 17.4923 7.5964 17.4923 7.8064V10.9764H14.8823V7.8064C14.8823 7.5964 14.7623 7.4664 14.5623 7.4664C14.3923 7.4664 14.2723 7.5964 14.2723 7.8064V14.9064C14.2723 15.1164 14.3923 15.2464 14.5623 15.2464ZM9.7923 15.2064C9.9923 15.2064 10.1123 15.0964 10.1123 14.9064V12.2064H11.1823C12.4823 12.2064 13.0323 11.0664 13.0323 9.8764C13.0323 8.5564 12.3423 7.5564 11.1923 7.5564H9.7823C9.6223 7.5564 9.5023 7.6664 9.5023 7.8764V14.9064C9.5023 15.0964 9.6223 15.2064 9.7923 15.2064ZM10.1123 11.6764V8.0964H11.0423C12.0023 8.0964 12.4423 8.8564 12.4423 9.8764C12.4423 10.8364 12.0023 11.6764 11.0423 11.6764Z" />
        </svg>
    