
        <svg xmlns="http://www.w3.org/2000/svg" viewBox="0 0 100 100">
            <path d="M10.0617 22.4775H18.5017C25.6617 22.4775 28.5717 19.4875 28.5717 12.1675V4.5975C28.5717 1.6975 26.8717 -0.0025 23.9717 -0.0025H4.5917C1.7017 -0.0025 0.0017 1.6975 0.0017 4.5975V12.1675C0.0017 19.4875 2.9017 22.4775 10.0617 22.4775ZM12.5717 16.0875C11.6717 16.0875 11.2117 15.5575 11.2117 14.6475V7.7275C11.2117 6.9575 11.8217 6.3375 12.6017 6.3375C13.3617 6.3375 13.9617 6.9575 13.9617 7.7275V13.8875H16.4017C17.0117 13.8875 17.5117 14.3675 17.5117 14.9775C17.5117 15.5975 17.0117 16.0875 16.4017 16.0875Z" />
        </svg>
    