
        <svg xmlns="http://www.w3.org/2000/svg" viewBox="0 0 100 100">
            <path d="M9.9517 21.4536H17.8517C24.8317 21.4536 27.8017 18.3936 27.8017 11.5436V4.0736C27.8017 1.4536 26.3417 0.0036 23.7117 0.0036H4.1017C1.4517 0.0036 0.0017 1.4436 0.0017 4.0736V11.5436C0.0017 18.3936 2.9617 21.4536 9.9517 21.4536ZM12.0817 15.6536C11.3217 15.6536 10.9217 15.1636 10.9217 14.3936V6.9336C10.9217 6.2336 11.4017 5.6936 12.0917 5.6936C12.7817 5.6936 13.2917 6.2236 13.2917 6.9336V13.7236H16.3717C16.9117 13.7236 17.3517 14.1336 17.3517 14.6836C17.3517 15.2436 16.9117 15.6536 16.3717 15.6536Z" />
        </svg>
    