
        <svg xmlns="http://www.w3.org/2000/svg" viewBox="0 0 100 100">
            <path d="M9.3517 19.9219H17.0417C23.6017 19.9219 26.4017 16.8719 26.4017 10.7719V3.3319C26.4017 1.1519 25.2417 0.0019 23.0417 0.0019H3.3617C1.1517 0.0019 0.0017 1.1219 0.0017 3.3319V10.7719C0.0017 16.8719 2.8017 19.9219 9.3517 19.9219ZM11.2217 14.7819C10.7717 14.7819 10.4917 14.4419 10.4917 13.9719V5.8519C10.4917 5.3719 10.7617 5.0319 11.2217 5.0319C11.6817 5.0319 11.9917 5.3719 11.9917 5.8519V13.4919H15.9817C16.3317 13.4919 16.6417 13.7719 16.6417 14.1319C16.6417 14.5119 16.3517 14.7819 15.9817 14.7819Z" />
        </svg>
    