
        <svg xmlns="http://www.w3.org/2000/svg" viewBox="0 0 100 100">
            <path d="M9.8717 20.8055H17.4417C24.2917 20.8055 27.3017 17.6955 27.3017 11.1355V3.7355C27.3017 1.2755 26.0017 -0.0045 23.5317 -0.0045H3.7817C1.3017 -0.0045 0.0017 1.2755 0.0017 3.7355V11.1355C0.0017 17.6955 3.0117 20.8055 9.8717 20.8055ZM9.9117 18.5055C4.5917 18.5055 2.3017 16.2055 2.3017 11.2155V3.9355C2.3017 2.8455 2.8717 2.2855 3.9217 2.2855H23.3817C24.4317 2.2855 25.0117 2.8455 25.0117 3.9355V11.2155C25.0117 16.2055 22.7117 18.5055 17.3917 18.5055ZM11.8517 15.1755H16.2517C16.7317 15.1755 17.1317 14.8355 17.1317 14.3355C17.1317 13.8355 16.7217 13.4855 16.2517 13.4855H12.8817V6.5755C12.8817 5.9155 12.4717 5.4655 11.8517 5.4655C11.2217 5.4655 10.8517 5.9255 10.8517 6.5755V14.0855C10.8517 14.7455 11.2017 15.1755 11.8517 15.1755Z" />
        </svg>
    