
        <svg xmlns="http://www.w3.org/2000/svg" viewBox="0 0 100 100">
            <path d="M12.2223 24.4436C18.9723 24.4436 24.4423 18.9636 24.4423 12.2236C24.4423 5.4736 18.9723 0.0036 12.2223 0.0036C5.4823 0.0036 0.0023 5.4736 0.0023 12.2236C0.0023 18.9636 5.4823 24.4436 12.2223 24.4436ZM10.0223 17.6636C9.1323 17.6636 8.6523 17.0636 8.6523 16.1136V8.0136C8.6523 7.0636 9.1323 6.4536 10.0223 6.4536C10.9223 6.4536 11.4223 7.0536 11.4223 8.0136V15.4536H15.3323C16.0323 15.4536 16.5023 15.8636 16.5023 16.5536C16.5023 17.2536 16.0423 17.6636 15.3323 17.6636Z" />
        </svg>
    