
        <svg xmlns="http://www.w3.org/2000/svg" viewBox="0 0 100 100">
            <path d="M16.256 -0.0041C10.326 -0.0041 5.246 3.7659 3.286 9.0159C4.066 8.8559 4.866 9.0559 5.456 9.5359C7.186 5.2359 11.356 2.2159 16.256 2.2159C22.716 2.2159 27.926 7.4259 27.926 13.8759C27.926 20.3159 22.716 25.5259 16.256 25.5259C11.366 25.5259 7.186 22.4959 5.456 18.2059C4.866 18.6959 4.086 18.9059 3.286 18.7459C5.266 23.9959 10.336 27.7359 16.256 27.7359C23.926 27.7359 30.136 21.5259 30.136 13.8759C30.136 6.2259 23.906 -0.0041 16.256 -0.0041ZM16.256 23.3559C21.496 23.3559 25.746 19.1059 25.746 13.8759C25.746 8.6359 21.496 4.3859 16.256 4.3859C11.016 4.3859 6.786 8.6359 6.786 13.8759C6.786 19.1059 11.016 23.3559 16.256 23.3559ZM16.256 20.9859C12.316 20.9859 9.146 17.8159 9.146 13.8759C9.146 9.9359 12.316 6.7459 16.256 6.7459C20.206 6.7459 23.396 9.9359 23.396 13.8759C23.396 17.8159 20.206 20.9859 16.256 20.9859ZM14.626 18.2459H18.566C19.006 18.2459 19.396 17.9059 19.396 17.4359C19.396 16.9659 19.006 16.6259 18.566 16.6259H15.626V10.4459C15.626 9.8359 15.226 9.3859 14.636 9.3859C14.056 9.3859 13.676 9.8359 13.676 10.4459V17.1959C13.676 17.8259 14.016 18.2459 14.626 18.2459ZM3.296 10.9959L0.346 13.2159C-0.124 13.5559 -0.104 14.1759 0.346 14.5159L3.306 16.7659C3.966 17.2759 4.816 16.9959 4.816 16.1059V11.6359C4.816 10.7959 3.976 10.4759 3.296 10.9959Z" />
        </svg>
    