
        <svg xmlns="http://www.w3.org/2000/svg" viewBox="0 0 100 100">
            <path d="M9.9823 1.7372L12.6723 5.2472C13.0423 5.7372 13.7423 5.7272 14.1223 5.2472L16.8123 1.7372C17.4123 0.9472 17.0723 -0.0028 16.0523 -0.0028H10.7223C9.7423 -0.0028 9.3823 0.9572 9.9823 1.7372ZM13.3723 23.9372C21.7223 23.9372 26.7423 20.1672 26.7423 15.5172C26.7423 10.8472 21.7223 7.0972 13.3623 7.0972C5.0123 7.0972 0.0023 10.8472 0.0023 15.5172C0.0023 20.1672 5.0123 23.9372 13.3723 23.9372ZM11.8823 19.7072C10.8323 19.7072 10.2223 19.0272 10.2223 17.8872V12.6072C10.2223 11.4572 10.8423 10.7772 11.8823 10.7772C12.9423 10.7772 13.5423 11.4772 13.5423 12.6072V17.0972H15.7123C16.5923 17.0972 17.1323 17.5872 17.1323 18.3972C17.1323 19.2172 16.5923 19.7072 15.7123 19.7072ZM13.3723 30.1072C16.9323 30.1072 19.2023 28.4372 19.2023 25.5772V25.3372C17.4223 25.7672 15.4723 26.0072 13.3723 26.0072C11.2723 26.0072 9.3123 25.7672 7.5423 25.3372V25.5772C7.5423 28.4372 9.8123 30.1072 13.3723 30.1072Z" />
        </svg>
    