
        <svg xmlns="http://www.w3.org/2000/svg" viewBox="0 0 100 100">
            <path d="M11.5223 14.5213C18.7223 14.5213 23.0423 11.2713 23.0423 7.2613C23.0423 3.2413 18.7223 0.0012 11.5123 0.0012C4.3123 0.0012 0.0023 3.2413 0.0023 7.2613C0.0023 11.2713 4.3123 14.5213 11.5223 14.5213ZM11.5223 13.9413C5.0423 13.9413 0.5723 11.1813 0.5723 7.2613C0.5723 3.3513 5.0423 0.5712 11.5123 0.5712C18.0123 0.5712 22.4723 3.3513 22.4723 7.2613C22.4723 11.1813 18.0123 13.9413 11.5223 13.9413ZM9.6023 10.7613H13.4723C13.6423 10.7613 13.7423 10.6612 13.7423 10.4913C13.7423 10.3113 13.6423 10.2113 13.4723 10.2113H9.8923V3.7312C9.8923 3.5712 9.7623 3.4613 9.6023 3.4613C9.4423 3.4613 9.3323 3.5712 9.3323 3.7312V10.4913C9.3323 10.6413 9.4423 10.7613 9.6023 10.7613ZM11.5223 18.6813C14.2623 18.6813 15.8623 17.5813 15.8623 15.7113V14.9813C14.5423 15.2613 13.0923 15.4113 11.5223 15.4113C9.9723 15.4113 8.5123 15.2613 7.1723 14.9813V15.7113C7.1723 17.5813 8.7923 18.6813 11.5223 18.6813Z" />
        </svg>
    