
        <svg xmlns="http://www.w3.org/2000/svg" viewBox="0 0 100 100">
            <path d="M13.8023 17.4623C22.4223 17.4623 27.6223 13.5823 27.6223 8.7323C27.6223 3.8623 22.4223 0.0023 13.7923 0.0023C5.2023 0.0023 0.0023 3.8623 0.0023 8.7323C0.0023 13.5823 5.2023 17.4623 13.8023 17.4623ZM13.8023 13.7023C8.0323 13.7023 4.1823 11.7023 4.1823 8.7323C4.1823 5.7523 8.0323 3.7723 13.7923 3.7723C19.5723 3.7723 23.4423 5.7523 23.4423 8.7323C23.4423 11.7023 19.5923 13.7023 13.8023 13.7023ZM12.6323 12.2923H15.8823C16.7123 12.2923 17.2023 11.8323 17.2023 11.0723C17.2023 10.3023 16.7123 9.8423 15.8823 9.8423H14.2123V6.3323C14.2123 5.2523 13.6423 4.5823 12.6323 4.5823C11.6223 4.5823 11.0623 5.2223 11.0623 6.3323V10.5423C11.0623 11.6623 11.6223 12.2923 12.6323 12.2923ZM13.8023 23.8623C17.6023 23.8623 20.0423 22.0823 20.0423 19.0323V18.9023C18.1623 19.3823 16.0523 19.6423 13.8023 19.6423C11.5623 19.6423 9.4523 19.3823 7.5823 18.9023V19.0323C7.5823 22.0823 10.0223 23.8623 13.8023 23.8623Z" />
        </svg>
    