
        <svg xmlns="http://www.w3.org/2000/svg" viewBox="0 0 100 100">
            <path d="M17.0505 -0.0038C10.9105 -0.0038 5.6505 3.7763 3.4605 9.1163C4.5005 8.8363 5.5805 9.0863 6.3605 9.7263C8.2505 5.6962 12.3305 2.9063 17.0505 2.9063C23.5605 2.9063 28.8605 8.1962 28.8605 14.6963C28.8605 21.1963 23.5605 26.4863 17.0505 26.4863C12.3305 26.4863 8.2505 23.6963 6.3605 19.6763C5.5805 20.3163 4.5005 20.5663 3.4505 20.2763C5.6505 25.6163 10.9405 29.3863 17.0505 29.3863C25.1605 29.3863 31.7605 22.7963 31.7605 14.6963C31.7605 6.5863 25.1605 -0.0038 17.0505 -0.0038ZM17.0505 24.4463C22.4205 24.4463 26.8305 20.0663 26.8305 14.6963C26.8305 9.3163 22.4205 4.9363 17.0505 4.9363C11.6805 4.9363 7.2905 9.3163 7.2905 14.6963C7.2905 20.0663 11.6805 24.4463 17.0505 24.4463ZM15.5005 19.1163C14.6805 19.1163 14.2705 18.6363 14.2705 17.8163V11.5063C14.2705 10.8163 14.8205 10.2563 15.5205 10.2563C16.2205 10.2563 16.7605 10.8163 16.7605 11.5063V17.1063H18.9905C19.5405 17.1063 19.9805 17.5563 19.9805 18.1063C19.9805 18.6763 19.5405 19.1163 18.9905 19.1163ZM3.6105 11.4863L0.3605 13.9963C-0.1295 14.3563 -0.1095 15.0263 0.3605 15.3863L3.6305 17.9063C4.3805 18.4963 5.2905 18.1563 5.2905 17.1662V12.1962C5.2905 11.2463 4.3605 10.9063 3.6105 11.4863Z" />
        </svg>
    