
        <svg xmlns="http://www.w3.org/2000/svg" viewBox="0 0 100 100">
            <path d="M17.5123 3.4978L15.0923 0.3478C14.7423 -0.1222 14.0823 -0.1122 13.7323 0.3478L11.2923 3.5078C10.7423 4.2378 11.0623 5.1278 12.0123 5.1278H16.8023C17.7223 5.1278 18.0423 4.2278 17.5123 3.4978ZM28.8123 16.7778C28.8123 10.7078 25.0423 5.5178 19.7323 3.3978C19.9723 4.3478 19.7323 5.3278 19.1523 6.0378C23.2723 7.8778 26.1523 11.9978 26.1523 16.7778C26.1523 23.2578 20.8923 28.5278 14.4023 28.5278C7.9223 28.5278 2.6623 23.2578 2.6623 16.7778C2.6623 11.9978 5.5323 7.8778 9.6423 6.0378C9.0623 5.3278 8.8223 4.3578 9.0723 3.3778C3.7623 5.5178 0.0023 10.7178 0.0023 16.7778C0.0023 24.7378 6.4523 31.1878 14.4023 31.1878C22.3623 31.1878 28.8123 24.7378 28.8123 16.7778ZM4.7423 16.7778C4.7423 22.0978 9.0823 26.4478 14.4023 26.4478C19.7323 26.4478 24.0723 22.0978 24.0723 16.7778C24.0723 11.4478 19.7323 7.1078 14.4023 7.1078C9.0823 7.1078 4.7423 11.4478 4.7423 16.7778ZM7.7823 16.7778C7.7823 13.1178 10.7423 10.1578 14.4023 10.1578C18.0623 10.1578 21.0323 13.1178 21.0323 16.7778C21.0323 20.4478 18.0623 23.4078 14.4023 23.4078C10.7423 23.4078 7.7823 20.4478 7.7823 16.7778ZM12.9023 20.9678H16.3823C16.8623 20.9678 17.2723 20.5878 17.2723 20.0778C17.2723 19.5878 16.8623 19.1978 16.3823 19.1978H14.0123V13.6578C14.0123 13.0178 13.5323 12.5278 12.9123 12.5278C12.2823 12.5278 11.8123 13.0278 11.8123 13.6578V19.8078C11.8123 20.5378 12.1923 20.9678 12.9023 20.9678Z" />
        </svg>
    