
        <svg xmlns="http://www.w3.org/2000/svg" viewBox="0 0 100 100">
            <path d="M14.4823 2.6742L12.6523 0.2442C12.4123 -0.0858 11.9523 -0.0758 11.7023 0.2442L9.8623 2.6742C9.5723 3.0642 9.7523 3.5942 10.2423 3.5942H14.1123C14.6023 3.5942 14.7823 3.0642 14.4823 2.6742ZM24.3623 14.8442C24.3623 9.3242 20.6723 4.6642 15.6423 3.1742C15.6323 3.4642 15.5423 3.7542 15.3423 3.9942C20.0623 5.3642 23.4823 9.6942 23.4823 14.8442C23.4823 21.0942 18.4423 26.1542 12.1723 26.1542C5.9323 26.1542 0.8623 21.1042 0.8623 14.8442C0.8623 9.7142 4.2923 5.3742 9.0123 3.9942C8.8323 3.7542 8.7223 3.4742 8.7023 3.1742C3.6823 4.6442 0.0023 9.3242 0.0023 14.8442C0.0023 21.5742 5.4523 27.0142 12.1723 27.0142C18.9123 27.0142 24.3623 21.5542 24.3623 14.8442ZM3.2123 14.8442C3.2123 19.8042 7.2223 23.8242 12.1723 23.8242C17.1423 23.8242 21.1523 19.8042 21.1523 14.8442C21.1523 9.8742 17.1423 5.8642 12.1723 5.8642C7.2223 5.8642 3.2123 9.8742 3.2123 14.8442ZM10.1723 19.3342C9.9223 19.3342 9.7423 19.1342 9.7423 18.8742V10.7442C9.7423 10.4742 9.9123 10.2742 10.1723 10.2742C10.4323 10.2742 10.6123 10.4742 10.6123 10.7442V18.5342H14.8723C15.0823 18.5342 15.2823 18.7242 15.2823 18.9342C15.2823 19.1642 15.0923 19.3342 14.8723 19.3342Z" />
        </svg>
    