
        <svg xmlns="http://www.w3.org/2000/svg" viewBox="0 0 100 100">
            <path d="M9.9823 1.7372L12.6723 5.2472C13.0423 5.7372 13.7423 5.7272 14.1223 5.2472L16.8123 1.7372C17.4123 0.9472 17.0723 -0.0028 16.0523 -0.0028H10.7223C9.7423 -0.0028 9.3823 0.9572 9.9823 1.7372ZM13.4023 24.0472C21.7023 24.0472 26.8023 20.3272 26.8023 15.5172C26.8023 10.6972 21.7023 6.9872 13.3823 6.9872C5.1023 6.9872 0.0023 10.6972 0.0023 15.5172C0.0023 20.3272 5.1023 24.0472 13.4023 24.0472ZM13.4023 20.6972C7.5823 20.6972 3.7023 18.6172 3.7023 15.5172C3.7023 12.4172 7.5823 10.3372 13.3823 10.3372C19.2023 10.3372 23.1123 12.4172 23.1123 15.5172C23.1123 18.6172 19.2223 20.6972 13.4023 20.6972ZM12.1123 19.1172H15.4423C16.1923 19.1172 16.6423 18.6772 16.6423 17.9972C16.6423 17.2972 16.1923 16.8872 15.4423 16.8872H13.5323V12.9472C13.5323 11.9772 13.0123 11.3872 12.1123 11.3872C11.2223 11.3872 10.7123 11.9672 10.7123 12.9472V17.5472C10.7123 18.5272 11.2223 19.1172 12.1123 19.1172ZM13.4023 30.1072C16.9723 30.1072 19.2323 28.4372 19.2323 25.5772V25.3672C17.4623 25.8072 15.5023 26.0372 13.4023 26.0372C11.2923 26.0372 9.3423 25.8072 7.5723 25.3672V25.5772C7.5723 28.4372 9.8323 30.1072 13.4023 30.1072Z" />
        </svg>
    