
        <svg xmlns="http://www.w3.org/2000/svg" viewBox="0 0 100 100">
            <path d="M9.8717 20.8055H17.4417C24.2917 20.8055 27.3017 17.6955 27.3017 11.1355V3.7355C27.3017 1.2755 26.0017 -0.0045 23.5317 -0.0045H3.7817C1.3017 -0.0045 0.0017 1.2755 0.0017 3.7355V11.1355C0.0017 17.6955 3.0117 20.8055 9.8717 20.8055ZM17.1317 15.2255C16.6217 15.2255 16.2117 14.8155 16.2117 14.2955V7.4455L15.2317 8.2255C15.0917 8.3355 14.9717 8.3955 14.7817 8.3955C14.4217 8.3955 14.1517 8.1355 14.1517 7.7355C14.1517 7.4055 14.3117 7.1755 14.5417 6.9955L15.7617 6.0455C16.0617 5.8255 16.4717 5.5555 16.9817 5.5555C17.6417 5.5555 18.0517 5.9255 18.0517 6.5855V14.2955C18.0517 14.8155 17.6417 15.2255 17.1317 15.2255ZM10.0217 15.1055C9.4317 15.1055 9.1217 14.7455 9.1217 14.1555V6.4755C9.1217 5.9755 9.5417 5.5655 10.0317 5.5655C10.5317 5.5655 10.9417 5.9755 10.9417 6.4755V13.5855H13.2517C13.6617 13.5855 14.0017 13.9355 14.0017 14.3555C14.0017 14.7655 13.6617 15.1055 13.2517 15.1055Z" />
        </svg>
    