
        <svg xmlns="http://www.w3.org/2000/svg" viewBox="0 0 100 100">
            <path d="M11.7523 23.5048C18.2423 23.5048 23.5123 18.2448 23.5123 11.7548C23.5123 5.2648 18.2423 0.0048 11.7523 0.0048C5.2623 0.0048 0.0023 5.2648 0.0023 11.7548C0.0023 18.2448 5.2623 23.5048 11.7523 23.5048ZM11.7523 21.9848C6.0923 21.9848 1.5223 17.4148 1.5223 11.7548C1.5223 6.0948 6.0923 1.5148 11.7523 1.5148C17.4123 1.5148 21.9923 6.0948 21.9923 11.7548C21.9923 17.4148 17.4123 21.9848 11.7523 21.9848ZM15.1323 16.6148C15.4923 16.6148 15.8123 16.3048 15.8123 15.9248V7.6448C15.8123 7.1748 15.5023 6.8748 15.0323 6.8748C14.6323 6.8748 14.3223 7.0848 14.0823 7.2748L12.6723 8.4148C12.5023 8.5448 12.3723 8.7148 12.3723 8.9648C12.3723 9.2548 12.5723 9.4648 12.8623 9.4648C13.0223 9.4648 13.1123 9.4248 13.2223 9.3548L14.4423 8.3548V15.9248C14.4423 16.3048 14.7523 16.6148 15.1323 16.6148ZM8.1523 16.5048H11.6023C11.9223 16.5048 12.1723 16.2348 12.1723 15.9148C12.1723 15.6048 11.9223 15.3348 11.6023 15.3348H8.8523V7.5548C8.8523 7.1948 8.5323 6.8748 8.1723 6.8748C7.7923 6.8748 7.4923 7.1948 7.4923 7.5548V15.7848C7.4923 16.2348 7.7323 16.5048 8.1523 16.5048Z" />
        </svg>
    