
        <svg xmlns="http://www.w3.org/2000/svg" viewBox="0 0 100 100">
            <path d="M7.8417 26.742H18.2417C20.9617 26.742 22.5817 25.122 22.5817 22.402L22.5917 4.332C22.5917 1.652 20.9417 0.002 18.2417 0.002H14.5917C12.5617 0.002 10.8017 0.532 9.1717 2.032L1.7717 8.832C0.5817 9.922 0.0017 11.462 0.0017 13.292V18.892C0.0017 23.612 3.1217 26.742 7.8417 26.742ZM7.8717 23.122C4.9417 23.122 3.6117 21.782 3.6117 18.872V13.312C3.6117 12.302 3.7717 11.932 4.2617 11.482L11.6517 4.702C12.5517 3.882 13.3017 3.622 14.6117 3.622H17.7517C18.5017 3.622 18.9617 4.092 18.9617 4.832V21.912C18.9617 22.732 18.5617 23.122 17.7417 23.122ZM12.4417 20.412H16.0217C16.5817 20.412 16.8017 20.042 16.8017 19.622C16.8017 19.172 16.5717 18.812 16.0217 18.812H13.9117V18.712L15.1917 17.172C16.1017 16.082 16.6617 15.262 16.6617 14.082C16.6617 12.472 15.5617 11.522 14.0017 11.522C12.6217 11.522 11.4817 12.552 11.4817 13.762C11.4817 14.272 11.7917 14.652 12.3317 14.652C12.7517 14.652 13.0817 14.452 13.2317 13.952C13.3717 13.472 13.5517 13.102 14.0017 13.102C14.5217 13.102 14.7217 13.582 14.7217 14.142C14.7217 14.952 14.1817 15.752 13.5217 16.572L12.0217 18.482C11.6417 18.962 11.4917 19.252 11.4917 19.602C11.4917 20.112 11.8217 20.412 12.4417 20.412ZM7.2817 20.422H9.9617C10.4317 20.422 10.8017 20.042 10.8017 19.582C10.8017 19.112 10.4317 18.722 9.9617 18.722H8.3217V12.642C8.3217 12.072 7.8517 11.612 7.2917 11.612C6.7117 11.612 6.2417 12.072 6.2417 12.642V19.352C6.2417 20.012 6.6117 20.422 7.2817 20.422Z" />
        </svg>
    