
        <svg xmlns="http://www.w3.org/2000/svg" viewBox="0 0 100 100">
            <path d="M9.8317 -0.0003C3.0317 -0.0003 0.0017 3.1297 0.0017 9.5297V16.8797C0.0017 19.2397 1.2217 20.4397 3.6017 20.4397H23.4417C25.8117 20.4397 27.0317 19.2297 27.0317 16.8797V9.5297C27.0317 3.1297 24.0017 -0.0003 17.2017 -0.0003ZM14.8017 15.1197C14.2417 15.1197 13.9717 14.8097 13.9717 14.3997C13.9717 14.0297 14.2017 13.7197 14.4417 13.4397L16.5217 10.7597C17.1517 9.9397 17.8317 8.9497 17.8317 7.9897C17.8317 7.1397 17.4217 6.4897 16.7117 6.4897C16.0217 6.4897 15.7217 7.0097 15.4917 7.8197C15.3617 8.1997 15.1317 8.3897 14.7317 8.3897C14.2517 8.3897 13.9917 8.0697 13.9917 7.6397C13.9917 6.3597 15.1717 5.0897 16.7217 5.0897C18.3917 5.0897 19.4917 6.2697 19.4917 7.9097C19.4917 8.9797 19.1017 9.8597 17.8817 11.3697L16.1417 13.5797V13.6897H18.9917C19.4017 13.6897 19.6917 13.9597 19.6917 14.3997C19.6917 14.8197 19.4217 15.1197 18.9917 15.1197ZM8.8017 15.1297C8.2417 15.1297 7.9317 14.7797 7.9317 14.1997V6.0797C7.9317 5.5897 8.3317 5.1897 8.8117 5.1897C9.2917 5.1897 9.7017 5.5897 9.7017 6.0797V13.6497H12.2817C12.6817 13.6497 13.0117 13.9897 13.0117 14.3897C13.0117 14.7897 12.6817 15.1297 12.2817 15.1297Z" />
        </svg>
    