
        <svg xmlns="http://www.w3.org/2000/svg" viewBox="0 0 100 100">
            <path d="M9.4717 23.2008H19.4217C26.5917 23.2008 28.8917 20.8208 28.8917 13.5108V9.6908C28.8917 2.3808 26.5917 0.0008 19.4217 0.0008H9.4717C2.3117 0.0008 0.0017 2.3808 0.0017 9.6908V13.5108C0.0017 20.8208 2.3117 23.2008 9.4717 23.2008ZM9.7517 16.2908C8.9717 16.2908 8.5317 15.8008 8.5317 15.0108V7.9708C8.5317 7.3008 9.0817 6.7608 9.7717 6.7608C10.4317 6.7608 10.9717 7.3008 10.9717 7.9708V14.3008H12.4917C13.0417 14.3008 13.4917 14.7508 13.4917 15.3008C13.4917 15.8308 13.0417 16.2908 12.4917 16.2908ZM18.6017 16.4408C17.9717 16.4408 17.4517 16.0908 17.4517 15.2808V14.7108H15.6017C14.6717 14.7108 14.2117 14.2508 14.2117 13.3908C14.2117 12.9408 14.3217 12.4108 14.4917 11.9108L15.4917 9.1408C15.9017 7.9408 16.3517 6.7808 17.8817 6.7808C19.0117 6.7808 19.7417 7.4108 19.7417 8.5208V12.8208H19.8417C20.4517 12.8208 20.7317 13.1608 20.7317 13.7608C20.7317 14.2408 20.5417 14.7108 19.8317 14.7108H19.7417V15.2808C19.7417 16.1108 19.2317 16.4408 18.6017 16.4408ZM17.5217 12.8908V8.6108H17.4717L16.1617 12.8008V12.8908Z" />
        </svg>
    