
        <svg xmlns="http://www.w3.org/2000/svg" viewBox="0 0 100 100">
            <path d="M12.1023 24.2147C18.7823 24.2147 24.2123 18.7847 24.2123 12.1047C24.2123 5.4247 18.7823 0.0047 12.1023 0.0047C5.4223 0.0047 0.0023 5.4247 0.0023 12.1047C0.0023 18.7847 5.4223 24.2147 12.1023 24.2147ZM12.1023 9.2847C10.9923 9.2847 9.9223 9.0947 9.2123 8.7547C8.7623 8.5347 8.6523 8.2847 8.6523 7.9247C8.6523 7.0947 9.1123 6.3247 9.9623 5.8547L9.9823 5.6947C10.0323 5.4847 9.9423 5.3447 9.6923 5.2747L9.2623 5.1347C8.5523 4.9447 8.9023 3.8647 9.6223 4.1147L10.1223 4.3147C10.6723 4.5147 11.0123 4.8847 11.0123 5.4047V5.4747C11.3423 5.3947 11.7223 5.3447 12.1023 5.3447C12.4923 5.3447 12.8523 5.3947 13.1923 5.4747L13.1823 5.4047C13.1823 4.8847 13.5223 4.5147 14.0723 4.3147L14.5923 4.1147C15.2923 3.8647 15.6423 4.9447 14.9523 5.1347L14.5223 5.2747C14.2623 5.3447 14.1823 5.4847 14.2123 5.6947L14.2423 5.8447C15.0923 6.3247 15.5623 7.0947 15.5623 7.9247C15.5623 8.2847 15.4323 8.5347 14.9923 8.7547C14.2823 9.0947 13.2023 9.2847 12.1023 9.2847ZM12.1023 11.2147C11.8523 11.2147 11.6623 11.4047 11.6623 11.6647V18.8947C11.6623 19.2347 11.4123 19.3947 10.9823 19.3447C9.6423 19.1747 8.5523 18.5347 7.7623 17.6047L6.9123 18.3047C6.6423 18.5347 6.2923 18.5547 6.0723 18.2847C5.8623 18.0347 5.9323 17.6847 6.2123 17.4647L7.1323 16.6747C6.6923 15.8547 6.4323 14.8747 6.4123 13.7947H5.3323C4.9723 13.7947 4.7623 13.5547 4.7623 13.2447C4.7623 12.9047 4.9723 12.6947 5.3323 12.6947L6.4823 12.6747C6.5823 11.8347 6.8423 10.9847 7.2023 10.3247L6.1723 9.4547C5.8923 9.2447 5.8323 8.8847 6.0323 8.6247C6.2623 8.3547 6.6023 8.3747 6.8923 8.6047L7.9823 9.5047C8.2823 9.2547 8.5123 9.2547 8.6923 9.3547C9.6423 9.7847 10.8523 10.0347 12.1023 10.0347C13.3523 10.0347 14.5523 9.7847 15.5123 9.3547C15.7023 9.2547 15.9123 9.2547 16.2323 9.5047L17.3223 8.6047C17.6023 8.3747 17.9423 8.3547 18.1623 8.6247C18.3723 8.8847 18.3023 9.2447 18.0323 9.4547L16.9923 10.3247C17.3623 10.9847 17.6223 11.8347 17.7323 12.6747L18.8823 12.6947C19.2323 12.6947 19.4523 12.9047 19.4523 13.2447C19.4523 13.5547 19.2323 13.7947 18.8623 13.7947H17.8023C17.7623 14.8747 17.5123 15.8547 17.0723 16.6747L18.0023 17.4647C18.2723 17.6847 18.3423 18.0347 18.1323 18.2847C17.9223 18.5547 17.5623 18.5347 17.2823 18.3047L16.4423 17.6047C15.6523 18.5347 14.5523 19.1747 13.2223 19.3447C12.7823 19.3947 12.5523 19.2347 12.5523 18.8947V11.6647C12.5523 11.4047 12.3623 11.2147 12.1023 11.2147ZM8.2623 12.3947C8.2623 12.9347 8.7023 13.3947 9.2623 13.3947C9.7923 13.3947 10.2523 12.9347 10.2523 12.3947C10.2523 11.8547 9.7923 11.4047 9.2623 11.4047C8.7023 11.4047 8.2623 11.8547 8.2623 12.3947ZM15.9523 12.3947C15.9523 11.8547 15.4923 11.4047 14.9523 11.4047C14.4123 11.4047 13.9523 11.8547 13.9523 12.3947C13.9523 12.9347 14.4123 13.3947 14.9523 13.3947C15.4923 13.3947 15.9523 12.9347 15.9523 12.3947ZM8.2923 15.7147C8.2923 16.3247 8.8023 16.8247 9.4223 16.8247C10.0223 16.8247 10.5423 16.3247 10.5423 15.7147C10.5423 15.0947 10.0223 14.5747 9.4223 14.5747C8.8023 14.5747 8.2923 15.0947 8.2923 15.7147ZM15.9123 15.7147C15.9123 15.0947 15.4123 14.5747 14.7923 14.5747C14.1823 14.5747 13.6523 15.0947 13.6523 15.7147C13.6523 16.3247 14.1923 16.8247 14.7923 16.8247C15.4123 16.8247 15.9123 16.3247 15.9123 15.7147Z" />
        </svg>
    