
        <svg xmlns="http://www.w3.org/2000/svg" viewBox="0 0 100 100">
            <path d="M11.3523 22.7147C17.6023 22.7147 22.7123 17.6047 22.7123 11.3547C22.7123 5.1047 17.6023 0.0047 11.3523 0.0047C5.1123 0.0047 0.0023 5.1047 0.0023 11.3547C0.0023 17.6047 5.1123 22.7147 11.3523 22.7147ZM11.3523 4.5147C11.9723 4.5147 12.5323 4.6247 13.0123 4.8247L12.9823 4.6847C12.8823 4.2347 13.1123 3.9047 13.5623 3.6547L14.4523 3.1747C14.7623 3.0047 14.9923 3.4947 14.6823 3.6547L13.7923 4.1247C13.5423 4.2647 13.5023 4.3747 13.5223 4.6047L13.5823 5.1547C14.3223 5.6647 14.7523 6.4247 14.7523 7.3547C14.7523 7.6847 14.6323 7.8747 14.2623 8.0747C13.5623 8.4147 12.4823 8.6247 11.3523 8.6247C10.7823 8.6247 10.2323 8.5647 9.7123 8.4747L8.0123 6.7647C8.1523 6.1047 8.5423 5.5447 9.1323 5.1547L9.1923 4.6047C9.2223 4.3747 9.1723 4.2647 8.9223 4.1247L8.0323 3.6547C7.7223 3.4947 7.9423 3.0047 8.2623 3.1747L9.1523 3.6547C9.6223 3.9147 9.8423 4.2347 9.7423 4.6847L9.7023 4.8247C10.1823 4.6247 10.7423 4.5147 11.3523 4.5147ZM17.4123 17.8447L4.8723 5.3047C4.7623 5.1747 4.7423 5.0047 4.8723 4.8747C4.9923 4.7547 5.1923 4.7547 5.3123 4.8747L17.8323 17.4247C17.9523 17.5447 17.9523 17.7147 17.8323 17.8447C17.7223 17.9847 17.5323 17.9747 17.4123 17.8447ZM4.2923 12.5047C4.1123 12.5047 3.9923 12.3847 3.9923 12.1947C3.9923 12.0147 4.1123 11.9047 4.2923 11.9047L5.7523 11.9247C5.8323 10.8147 6.1923 9.7347 6.6923 8.9147L5.4523 7.9347C5.3223 7.8247 5.3123 7.6447 5.3923 7.4847C5.4923 7.3547 5.6923 7.3447 5.8523 7.4647L7.0523 8.4247L7.1123 8.3647L11.1823 12.4447V18.0147C11.1823 18.2847 11.0523 18.4547 10.6123 18.4247C9.1023 18.3047 7.8323 17.6247 6.9623 16.5047L5.7323 17.4747C5.5623 17.5747 5.3923 17.5547 5.2923 17.4247C5.1823 17.2947 5.1923 17.1347 5.3423 17.0147L6.6223 15.9947C6.0423 15.0447 5.7223 13.8647 5.7223 12.5047ZM18.4323 11.9247C18.6123 11.9247 18.7223 12.0247 18.7223 12.2247C18.7223 12.3947 18.6023 12.5147 18.4223 12.5147H16.9923C16.9923 13.5347 16.8123 14.4647 16.4723 15.2547L13.8723 12.6347C14.4523 12.5747 14.9323 12.0747 14.9323 11.4847C14.9323 10.8747 14.3923 10.3347 13.7623 10.3347C13.1723 10.3347 12.6823 10.8047 12.6223 11.3747L10.3723 9.1247C10.7023 9.1547 11.0423 9.1747 11.3523 9.1747C12.5023 9.1747 13.7823 9.0247 15.0723 8.2647C15.2323 8.1647 15.4723 8.2347 15.6823 8.4447L16.9023 7.4747C17.0423 7.3547 17.2023 7.3547 17.3223 7.5147C17.4123 7.6547 17.4023 7.8247 17.2623 7.9447L16.0323 8.9447C16.5323 9.7547 16.8723 10.8247 16.9723 11.9447ZM11.5323 12.7847L15.5023 16.7847C14.6523 17.7447 13.4623 18.3247 12.0923 18.4247C11.6623 18.4547 11.5323 18.2847 11.5323 18.0147ZM7.7723 14.6747C7.7723 15.3047 8.2923 15.8247 8.9023 15.8247C9.5423 15.8247 10.0823 15.3047 10.0823 14.6747C10.0823 14.0647 9.5423 13.5247 8.9023 13.5247C8.2923 13.5247 7.7723 14.0647 7.7723 14.6747Z" />
        </svg>
    