
        <svg xmlns="http://www.w3.org/2000/svg" viewBox="0 0 100 100">
            <path d="M11.9523 23.9041C18.5523 23.9041 23.9023 18.5541 23.9023 11.9541C23.9023 5.3541 18.5523 0.0041 11.9523 0.0041C5.3523 0.0041 0.0023 5.3541 0.0023 11.9541C0.0023 18.5541 5.3523 23.9041 11.9523 23.9041ZM11.9523 21.9141C6.4423 21.9141 1.9923 17.4641 1.9923 11.9541C1.9923 6.4441 6.4423 1.9941 11.9523 1.9941C17.4623 1.9941 21.9123 6.4441 21.9123 11.9541C21.9123 17.4641 17.4623 21.9141 11.9523 21.9141ZM11.9423 9.0841C13.0323 9.0841 14.0823 8.8841 14.7923 8.5641C15.2023 8.3741 15.3323 8.1241 15.3323 7.7741C15.3323 6.9341 14.8623 6.2041 14.0323 5.7541L14.0023 5.5741C13.9723 5.3441 14.0423 5.2041 14.3223 5.1241L14.7623 4.9541C15.4023 4.7941 15.0823 3.8241 14.4423 4.0441L13.9223 4.2541C13.3723 4.4541 13.0423 4.8141 13.0623 5.3241L13.0823 5.3941C12.7223 5.2941 12.3423 5.2541 11.9423 5.2541C11.5423 5.2541 11.1723 5.2941 10.8123 5.3941V5.3241C10.8423 4.8241 10.5123 4.4541 9.9623 4.2541L9.4423 4.0441C8.8023 3.8241 8.4823 4.7941 9.1123 4.9541L9.5623 5.1241C9.8423 5.2041 9.9223 5.3441 9.8823 5.5741L9.8523 5.7541C9.3523 6.0241 8.9923 6.4141 8.7823 6.8641L10.9323 9.0141C11.2523 9.0541 11.6023 9.0841 11.9423 9.0841ZM17.2523 18.0041C17.4523 18.2041 17.8023 18.2041 18.0023 18.0041C18.2123 17.7741 18.2123 17.4641 18.0023 17.2541L6.6523 5.9041C6.4423 5.6941 6.1123 5.6941 5.8923 5.9041C5.6923 6.1041 5.6923 6.4541 5.8923 6.6541ZM10.8723 19.0441C11.3123 19.0941 11.5323 18.9341 11.5323 18.6141V13.4441L6.4023 8.3241C6.2823 8.3241 6.1623 8.3641 6.0723 8.4741C5.8723 8.7141 5.9423 9.0441 6.1923 9.2441L7.1823 10.0741C6.7723 10.7841 6.5123 11.6841 6.4123 12.5241L5.2523 12.5341C4.9123 12.5341 4.7123 12.7341 4.7123 13.0341C4.7123 13.3341 4.9123 13.5341 5.2523 13.5341H6.3523C6.3723 14.6341 6.6323 15.6341 7.0823 16.4541L6.1323 17.2641C5.8823 17.4641 5.8123 17.7741 6.0123 18.0141C6.2123 18.2541 6.5323 18.2441 6.7723 18.0341L7.6523 17.3041C8.4423 18.2441 9.5423 18.8741 10.8723 19.0441ZM18.6423 12.5341L17.4723 12.5241C17.3623 11.6841 17.1123 10.8041 16.7423 10.1241L17.7323 9.2941C17.9723 9.0841 18.0423 8.7641 17.8523 8.5241C17.6523 8.2741 17.3423 8.2941 17.0823 8.5241L16.1123 9.3441C15.7623 9.0441 15.5323 9.0341 15.3123 9.1241C14.4623 9.5141 13.4023 9.7641 12.3323 9.8041C12.1323 9.8241 11.9323 9.8241 11.7323 9.8041L13.7623 11.8341C13.9023 11.4741 14.2523 11.2041 14.6623 11.2041C15.2023 11.2041 15.6523 11.6741 15.6523 12.2141C15.6523 12.6241 15.4023 12.9741 15.0423 13.1241L17.2523 15.3241C17.4223 14.7841 17.5223 14.1841 17.5323 13.5341H18.6423C18.9723 13.5341 19.1723 13.3341 19.1723 13.0341C19.1723 12.7341 18.9723 12.5341 18.6423 12.5341ZM13.0123 19.0441C14.1223 18.9041 15.0823 18.4441 15.8223 17.7341L12.3523 14.2741V18.6141C12.3523 18.9341 12.5723 19.0941 13.0123 19.0441ZM8.2223 15.4641C8.2223 14.8741 8.7223 14.3641 9.3323 14.3641C9.9123 14.3641 10.4323 14.8741 10.4323 15.4641C10.4323 16.0741 9.9123 16.5741 9.3323 16.5741C8.7223 16.5741 8.2223 16.0741 8.2223 15.4641Z" />
        </svg>
    