
        <svg xmlns="http://www.w3.org/2000/svg" viewBox="0 0 100 100">
            <path d="M12.2223 24.4419C18.9723 24.4419 24.4423 18.9719 24.4423 12.2219C24.4423 5.4819 18.9723 0.0019 12.2223 0.0019C5.4823 0.0019 0.0023 5.4819 0.0023 12.2219C0.0023 18.9719 5.4823 24.4419 12.2223 24.4419ZM12.2223 9.5019C11.1223 9.5019 10.0623 9.3119 9.3723 8.9719C8.9023 8.7319 8.7823 8.4819 8.7823 8.1319C8.7823 7.3019 9.2423 6.5519 10.0923 6.0719L10.1123 5.9219C10.1523 5.7319 10.0623 5.6019 9.8323 5.5319L9.4223 5.4019C8.6823 5.2119 9.0423 4.0819 9.7923 4.3519L10.2823 4.5219C10.8423 4.7219 11.1723 5.1019 11.1823 5.6119V5.6819C11.5123 5.6119 11.8523 5.5619 12.2223 5.5619C12.5823 5.5619 12.9223 5.6119 13.2523 5.6819V5.6119C13.2623 5.1019 13.6023 4.7219 14.1423 4.5219L14.6523 4.3519C15.3823 4.0919 15.7523 5.2119 15.0123 5.4019L14.6023 5.5319C14.3523 5.6019 14.2823 5.7319 14.3223 5.9219L14.3523 6.0719C15.1923 6.5519 15.6523 7.3019 15.6523 8.1319C15.6523 8.4819 15.5323 8.7319 15.0723 8.9719C14.3823 9.3119 13.3223 9.5019 12.2223 9.5019ZM12.2223 11.4419C11.9523 11.4419 11.7523 11.6319 11.7523 11.8919V18.9419C11.7523 19.2819 11.5123 19.4419 11.0823 19.3919C9.7823 19.2119 8.7223 18.6019 7.9423 17.6819L7.1323 18.3519C6.8423 18.6119 6.4823 18.6219 6.2623 18.3419C6.0423 18.0819 6.1023 17.7119 6.4023 17.4719L7.2823 16.7219C6.8523 15.9219 6.6123 14.9719 6.5723 13.9319H5.5523C5.1823 13.9319 4.9423 13.7019 4.9423 13.3619C4.9423 13.0119 5.1823 12.7819 5.5523 12.7719L6.6523 12.7619C6.7623 11.9619 7.0123 11.1419 7.3723 10.5019L6.3123 9.6319C6.0223 9.4119 5.9623 9.0319 6.1723 8.7619C6.4123 8.4819 6.7623 8.5219 7.0623 8.7419L8.2223 9.6919C8.4923 9.4819 8.6823 9.4919 8.8623 9.5719C9.7923 9.9919 10.9723 10.2419 12.2223 10.2419C13.4623 10.2419 14.6323 9.9919 15.5823 9.5719C15.7523 9.4919 15.9423 9.4919 16.2023 9.6919L17.3823 8.7419C17.6723 8.5219 18.0223 8.4819 18.2623 8.7619C18.4723 9.0319 18.4123 9.4119 18.1123 9.6319L17.0723 10.5019C17.4423 11.1419 17.6823 11.9619 17.7923 12.7619L18.8923 12.7719C19.2623 12.7819 19.4923 13.0119 19.4923 13.3619C19.4923 13.7019 19.2523 13.9319 18.8823 13.9319H17.8623C17.8223 14.9719 17.5823 15.9219 17.1523 16.7219L18.0423 17.4719C18.3323 17.7119 18.4023 18.0819 18.1723 18.3419C17.9523 18.6219 17.5923 18.6119 17.3123 18.3519L16.5023 17.6819C15.7223 18.6019 14.6623 19.2119 13.3623 19.3919C12.9423 19.4419 12.6823 19.2819 12.6823 18.9419V11.8919C12.6823 11.6319 12.4923 11.4419 12.2223 11.4419ZM8.3923 12.5519C8.3923 13.0819 8.8323 13.5419 9.3723 13.5419C9.9123 13.5419 10.3723 13.0819 10.3723 12.5519C10.3723 12.0119 9.9123 11.5519 9.3723 11.5519C8.8323 11.5519 8.3923 12.0119 8.3923 12.5519ZM16.0523 12.5519C16.0523 12.0119 15.6123 11.5519 15.0623 11.5519C14.5323 11.5519 14.0723 12.0119 14.0723 12.5519C14.0723 13.0819 14.5323 13.5419 15.0623 13.5419C15.6123 13.5419 16.0523 13.0819 16.0523 12.5519ZM8.4223 15.7919C8.4223 16.4019 8.9323 16.9119 9.5523 16.9119C10.1523 16.9119 10.6723 16.4019 10.6723 15.7919C10.6723 15.2019 10.1523 14.6819 9.5523 14.6819C8.9323 14.6819 8.4223 15.1919 8.4223 15.7919ZM16.0223 15.7919C16.0223 15.1919 15.5023 14.6819 14.8923 14.6819C14.2823 14.6819 13.7723 15.2019 13.7723 15.7919C13.7723 16.4019 14.2923 16.9119 14.8923 16.9119C15.5023 16.9119 16.0223 16.4019 16.0223 15.7919Z" />
        </svg>
    