
        <svg xmlns="http://www.w3.org/2000/svg" viewBox="0 0 100 100">
            <path d="M12.5117 9.3518C14.7117 9.3518 16.9417 8.8618 18.3017 8.2618C20.0517 9.9418 21.3517 12.9518 21.3517 15.8918C21.3517 17.4518 21.0717 18.8618 20.5617 20.0818L21.2317 20.7618C21.8817 19.3518 22.2217 17.7218 22.2217 15.8918C22.2217 15.8118 22.2217 15.7318 22.2217 15.6618H24.5417C24.8417 15.6618 25.0317 15.4718 25.0317 15.1818C25.0317 14.9118 24.8417 14.7218 24.5517 14.7218L22.1617 14.7318C21.9717 12.9318 21.3717 11.1218 20.4717 9.6218L22.5617 7.9018C22.7917 7.7218 22.8417 7.4718 22.6717 7.2318C22.4917 7.0118 22.1917 7.0118 21.9717 7.1918L19.9617 8.8318C19.5117 8.2218 19.0217 7.6818 18.4717 7.2318C18.4717 5.4618 17.6017 4.0118 16.1817 3.1218L16.0617 2.4518C15.9917 1.9918 16.1617 1.7118 16.6417 1.4918L17.9917 0.8118C18.4917 0.6018 18.1917 -0.2082 17.6517 0.0518L16.2817 0.7618C15.4617 1.1618 15.1217 1.7118 15.2417 2.5018L15.2717 2.6618C14.4617 2.3318 13.5317 2.1518 12.5117 2.1518C11.4917 2.1518 10.5717 2.3318 9.7617 2.6618L9.7817 2.5018C9.9117 1.7118 9.5717 1.1618 8.7517 0.7618L7.3817 0.0518C6.8417 -0.2082 6.5417 0.6018 7.0417 0.8118L8.3917 1.4918C8.8717 1.7118 9.0317 1.9918 8.9617 2.4518L8.8517 3.1318C7.7217 3.8518 6.9417 4.9118 6.6817 6.2118L9.5317 9.0518C10.4617 9.2418 11.4917 9.3518 12.5117 9.3518ZM0.2817 2.4918L24.1217 26.3018C24.2817 26.4718 24.5617 26.4718 24.7217 26.3018C24.9117 26.1218 24.9017 25.8518 24.7217 25.6918L0.9017 1.8818C0.7517 1.7218 0.4717 1.7018 0.2817 1.8818C0.1217 2.0418 0.1217 2.3218 0.2817 2.4918ZM12.5117 26.1018C15.4617 26.1018 17.9017 25.0618 19.5917 23.2318L18.9617 22.6018C17.4917 24.1918 15.4217 25.1418 12.9017 25.2318V16.5418L12.1017 15.7618V25.2218C7.0417 25.0318 3.6817 21.3518 3.6817 15.8918C3.6817 13.5618 4.4617 11.1818 5.6417 9.5618L2.8117 7.1718C2.6717 7.0718 2.4717 7.0818 2.3517 7.2318C2.1917 7.4718 2.2417 7.7218 2.4717 7.9018L4.5617 9.6118C3.6517 11.1118 3.0617 12.9018 2.8717 14.7318L0.4817 14.7218C0.1917 14.7218 0.0017 14.9118 0.0017 15.1818C0.0017 15.4718 0.1917 15.6618 0.4917 15.6618H2.8117C2.8117 15.7318 2.8117 15.8118 2.8117 15.8918C2.8117 18.1518 3.3417 20.1318 4.2917 21.7318L2.3217 23.3318C2.0817 23.5218 2.0417 23.7718 2.2217 24.0018C2.4017 24.2418 2.6817 24.2218 2.9217 24.0418L4.8117 22.5118C6.5017 24.7918 9.1917 26.1018 12.5117 26.1018ZM16.3617 13.6818C17.1517 13.6818 17.8117 12.9918 17.8117 12.1918C17.8117 11.3818 17.1517 10.7218 16.3617 10.7218C15.5417 10.7218 14.8917 11.3818 14.8917 12.1918C14.8917 13.0018 15.5517 13.6818 16.3617 13.6818ZM7.2617 18.4518C8.2017 18.4518 8.9717 17.6718 8.9717 16.7218C8.9717 15.7718 8.2017 15.0118 7.2617 15.0118C6.3117 15.0118 5.5517 15.7718 5.5517 16.7218C5.5517 17.6718 6.3117 18.4518 7.2617 18.4518ZM19.4717 16.7218C19.4717 15.7718 18.7117 15.0118 17.7617 15.0118C17.1417 15.0118 16.6317 15.3818 16.3617 15.8818L18.6217 18.1518C19.1217 17.8718 19.4717 17.3518 19.4717 16.7218ZM8.6717 22.3718C9.3717 22.3718 9.9417 21.8218 9.9417 21.1118C9.9417 20.4018 9.3717 19.8518 8.6717 19.8518C7.9717 19.8518 7.4017 20.4018 7.4017 21.1118C7.4017 21.8218 7.9717 22.3718 8.6717 22.3718Z" />
        </svg>
    