
        <svg xmlns="http://www.w3.org/2000/svg" viewBox="0 0 100 100">
            <path d="M12.7923 25.5961C19.8723 25.5961 25.6023 19.8661 25.6023 12.7961C25.6023 5.7261 19.8723 -0.0039 12.7923 -0.0039C5.7323 -0.0039 0.0023 5.7261 0.0023 12.7961C0.0023 19.8661 5.7323 25.5961 12.7923 25.5961ZM12.7923 10.5561C11.7423 10.5561 10.7623 10.3961 10.1323 10.0361C9.5823 9.7061 9.4723 9.5061 9.4723 9.1861C9.4723 8.3561 9.9023 7.6361 10.6923 7.1561L10.7323 7.0461C10.7423 6.9461 10.7023 6.8761 10.5323 6.8461L10.2323 6.7661C9.3423 6.5661 9.7723 5.1561 10.6723 5.4761L11.0623 5.5861C11.6123 5.7761 11.9423 6.1361 12.0223 6.6461L12.0323 6.7161C12.2723 6.6761 12.5423 6.6661 12.7923 6.6661C13.0523 6.6661 13.2923 6.6761 13.5423 6.7161L13.5623 6.6461C13.6423 6.1261 13.9723 5.7761 14.4923 5.5861L14.9223 5.4761C15.8123 5.1761 16.2423 6.5661 15.3523 6.7661L15.0423 6.8461C14.8723 6.8761 14.8323 6.9461 14.8523 7.0461L14.8923 7.1461C15.6923 7.6261 16.1223 8.3561 16.1223 9.1861C16.1223 9.5061 16.0123 9.7061 15.4523 10.0361C14.8323 10.3961 13.8523 10.5561 12.7923 10.5561ZM12.7923 12.5161C12.4723 12.5161 12.2423 12.7361 12.2423 13.0661V19.1561C12.2423 19.5161 11.9523 19.6861 11.5823 19.6161C10.4623 19.3961 9.5323 18.8861 8.8223 18.1161L8.2123 18.6161C7.8623 18.9261 7.4423 18.9161 7.1723 18.6061C6.9123 18.2961 6.9723 17.8261 7.3223 17.5461L8.0123 16.9561C7.6723 16.2761 7.4723 15.4961 7.4323 14.6361H6.6523C6.2123 14.6361 5.9223 14.3461 5.9223 13.9361C5.9223 13.4961 6.2123 13.2161 6.6523 13.2061L7.5223 13.1961C7.6123 12.5661 7.8323 11.9161 8.1523 11.3661L7.0323 10.5161C6.6723 10.2561 6.6323 9.7661 6.8823 9.4661C7.1623 9.1361 7.5823 9.1661 7.9423 9.4361L9.4723 10.5961C9.5423 10.6061 9.6023 10.6161 9.6523 10.6561C10.5323 11.0761 11.5623 11.2761 12.7923 11.2761C14.0123 11.2761 15.0423 11.0761 15.9423 10.6561C15.9923 10.6161 16.0523 10.6061 16.1323 10.5961L17.6523 9.4361C18.0123 9.1661 18.4323 9.1361 18.7123 9.4661C18.9623 9.7661 18.9223 10.2561 18.5623 10.5161L17.4423 11.3661C17.7623 11.9161 17.9723 12.5661 18.0723 13.1961L18.9423 13.2061C19.3823 13.2161 19.6723 13.4961 19.6723 13.9361C19.6723 14.3461 19.3823 14.6361 18.9423 14.6361H18.1623C18.1123 15.4961 17.9223 16.2761 17.5823 16.9561L18.2723 17.5461C18.6223 17.8261 18.6823 18.2961 18.4223 18.6061C18.1723 18.9161 17.7323 18.9261 17.3823 18.6161L16.7723 18.1161C16.0623 18.8861 15.1323 19.3961 14.0123 19.6161C13.6423 19.6861 13.3523 19.5161 13.3523 19.1561V13.0661C13.3523 12.7361 13.1223 12.5161 12.7923 12.5161ZM9.0123 13.2661C9.0123 13.7861 9.4523 14.2361 9.9723 14.2361C10.5023 14.2361 10.9723 13.7861 10.9723 13.2661C10.9723 12.7361 10.5023 12.2961 9.9723 12.2961C9.4523 12.2961 9.0123 12.7361 9.0123 13.2661ZM16.5823 13.2661C16.5823 12.7361 16.1523 12.2961 15.6223 12.2961C15.0923 12.2961 14.6223 12.7361 14.6223 13.2661C14.6223 13.7861 15.0923 14.2361 15.6223 14.2361C16.1523 14.2361 16.5823 13.7861 16.5823 13.2661ZM9.0923 16.2061C9.0923 16.8061 9.6023 17.3061 10.1923 17.3061C10.7823 17.3061 11.2623 16.8061 11.2623 16.2061C11.2623 15.6661 10.7923 15.1361 10.1923 15.1361C9.6023 15.1361 9.0923 15.6461 9.0923 16.2061ZM16.5023 16.2061C16.5023 15.6461 15.9923 15.1361 15.4023 15.1361C14.8023 15.1361 14.3323 15.6661 14.3323 16.2061C14.3323 16.8061 14.8123 17.3061 15.4023 17.3061C15.9923 17.3061 16.5023 16.8061 16.5023 16.2061Z" />
        </svg>
    