
        <svg xmlns="http://www.w3.org/2000/svg" viewBox="0 0 100 100">
            <path d="M11.3523 22.7064C17.6323 22.7064 22.7123 17.6264 22.7123 11.3564C22.7123 5.0764 17.6323 -0.0036 11.3523 -0.0036C5.0823 -0.0036 0.0023 5.0764 0.0023 11.3564C0.0023 17.6264 5.0823 22.7064 11.3523 22.7064ZM11.3523 22.1364C5.3923 22.1364 0.5723 17.3164 0.5723 11.3564C0.5723 5.3864 5.3923 0.5764 11.3523 0.5764C17.3223 0.5764 22.1323 5.3864 22.1323 11.3564C22.1323 17.3164 17.3223 22.1364 11.3523 22.1364ZM11.3523 8.6064C12.4823 8.6064 13.5623 8.3864 14.2623 8.0464C14.6323 7.8564 14.7523 7.6664 14.7523 7.3364C14.7523 6.3964 14.3223 5.6364 13.5923 5.1364L13.5223 4.5864C13.5023 4.3464 13.5423 4.2464 13.7923 4.1064L14.6823 3.6364C15.0023 3.4664 14.7823 2.9764 14.4523 3.1564L13.5623 3.6364C13.1123 3.8764 12.8823 4.2064 12.9823 4.6664L13.0123 4.8064C12.5323 4.6064 11.9723 4.4864 11.3523 4.4864C10.7423 4.4864 10.1823 4.6064 9.7023 4.8064L9.7423 4.6664C9.8423 4.2064 9.6223 3.8864 9.1523 3.6364L8.2623 3.1564C7.9423 2.9764 7.7223 3.4664 8.0323 3.6364L8.9223 4.1064C9.1723 4.2464 9.2123 4.3464 9.1923 4.5864L9.1323 5.1364C8.3923 5.6364 7.9523 6.3964 7.9523 7.3364C7.9523 7.6664 8.0823 7.8564 8.4523 8.0464C9.1523 8.3864 10.2323 8.6064 11.3523 8.6064ZM11.3523 9.7664C11.4523 9.7664 11.5323 9.8364 11.5323 9.9364V17.9964C11.5323 18.2564 11.6723 18.4464 12.1023 18.4064C13.6123 18.2964 14.8823 17.6064 15.7623 16.4764L16.9923 17.4564C17.1523 17.5564 17.3323 17.5464 17.4123 17.4164C17.5323 17.2764 17.5223 17.1164 17.3823 17.0064L16.1023 15.9764C16.6623 15.0364 17.0023 13.8564 16.9923 12.4764H18.4223C18.6023 12.4764 18.7423 12.3664 18.7423 12.1864C18.7423 11.9964 18.6223 11.8964 18.4423 11.8964L16.9723 11.9064C16.8723 10.7964 16.5323 9.7164 16.0423 8.9064L17.2723 7.9064C17.4023 7.7964 17.4123 7.6164 17.3323 7.4764C17.2123 7.3264 17.0523 7.3264 16.9023 7.4364L15.6823 8.4164C15.4823 8.2064 15.2323 8.1364 15.0723 8.2264C13.7823 8.9864 12.5023 9.1364 11.3523 9.1364C10.2223 9.1364 8.9323 8.9864 7.6523 8.2264C7.4723 8.1164 7.2423 8.1864 7.0423 8.4164L5.8323 7.4364C5.6823 7.3264 5.4923 7.3364 5.3923 7.4764C5.2923 7.6164 5.3223 7.8164 5.4523 7.9064L6.6923 8.9064C6.1923 9.7164 5.8323 10.7964 5.7423 11.9064L4.2923 11.8964C4.1123 11.8964 3.9923 11.9964 3.9923 12.1864C3.9923 12.3664 4.1123 12.4764 4.2923 12.4764H5.7223C5.7223 13.8564 6.0423 15.0364 6.6223 15.9764L5.3423 17.0064C5.1923 17.1164 5.1823 17.2764 5.2923 17.4164C5.3923 17.5464 5.5623 17.5564 5.7323 17.4564L6.9623 16.4764C7.8323 17.6064 9.1023 18.2964 10.6123 18.4064C11.0523 18.4464 11.1823 18.2564 11.1823 17.9964V9.9364C11.1823 9.8364 11.2723 9.7664 11.3523 9.7664ZM7.6723 11.3464C7.6723 10.7764 8.1523 10.3464 8.6923 10.3464C9.2423 10.3464 9.7123 10.7964 9.7123 11.3464C9.7123 11.8864 9.2423 12.3564 8.6923 12.3564C8.1523 12.3564 7.6723 11.8864 7.6723 11.3464ZM15.0423 11.3464C15.0423 11.8864 14.5623 12.3564 14.0423 12.3564C13.4723 12.3564 13.0223 11.8864 13.0223 11.3464C13.0223 10.7964 13.4723 10.3464 14.0423 10.3464C14.5623 10.3464 15.0423 10.7764 15.0423 11.3464ZM7.7723 14.6564C7.7723 14.0364 8.2923 13.4964 8.9023 13.4964C9.5423 13.4964 10.0823 14.0364 10.0823 14.6564C10.0823 15.2764 9.5423 15.8064 8.9023 15.8064C8.2923 15.8064 7.7723 15.2764 7.7723 14.6564ZM14.9623 14.6564C14.9623 15.2764 14.4423 15.8064 13.8323 15.8064C13.1923 15.8064 12.6523 15.2764 12.6523 14.6564C12.6523 14.0364 13.1923 13.4964 13.8323 13.4964C14.4423 13.4964 14.9623 14.0364 14.9623 14.6564Z" />
        </svg>
    