
        <svg xmlns="http://www.w3.org/2000/svg" viewBox="0 0 100 100">
            <path d="M11.7523 23.5031C18.2323 23.5031 23.5123 18.2331 23.5123 11.7531C23.5123 5.2731 18.2323 0.0031 11.7523 0.0031C5.2723 0.0031 0.0023 5.2731 0.0023 11.7531C0.0023 18.2331 5.2723 23.5031 11.7523 23.5031ZM11.7523 8.8731C10.6323 8.8731 9.5423 8.6731 8.8223 8.3331C8.4223 8.1431 8.2923 7.9031 8.2923 7.5431C8.2923 6.6631 8.7523 5.9031 9.5723 5.4231L9.6123 5.1231C9.6523 4.9031 9.5723 4.7431 9.3023 4.6531L8.7023 4.3931C8.1723 4.2231 8.4623 3.3731 9.0123 3.5931L9.6523 3.9031C10.1823 4.1231 10.4923 4.4731 10.4423 4.9831L10.4223 5.0631C10.8323 4.9431 11.2723 4.8631 11.7523 4.8631C12.2323 4.8631 12.6823 4.9431 13.0823 5.0631L13.0623 4.9831C13.0223 4.4731 13.3223 4.1131 13.8423 3.9031L14.4923 3.5931C15.0423 3.3731 15.3423 4.2231 14.8023 4.3931L14.1923 4.6531C13.9223 4.7431 13.8523 4.9031 13.8823 5.1231L13.9223 5.4231C14.7423 5.9031 15.2123 6.6631 15.2123 7.5431C15.2123 7.9031 15.0823 8.1431 14.6723 8.3331C13.9523 8.6731 12.8623 8.8731 11.7523 8.8731ZM11.7523 10.5431C11.5623 10.5431 11.4123 10.6831 11.4123 10.8731V18.5531C11.4123 18.8631 11.2123 19.0331 10.7723 18.9931C9.3423 18.8431 8.1723 18.1731 7.3323 17.1431L6.3323 17.9731C6.1023 18.1531 5.8223 18.1631 5.6623 17.9431C5.4823 17.7531 5.5323 17.4731 5.7523 17.2931L6.8323 16.4031C6.3323 15.5131 6.0423 14.4331 6.0223 13.2331H4.7923C4.5023 13.2331 4.3223 13.0531 4.3223 12.7831C4.3223 12.5131 4.5023 12.3531 4.7923 12.3531H6.0823C6.1923 11.3931 6.4823 10.4331 6.9023 9.6931L5.8023 8.7931C5.5923 8.6231 5.5423 8.3331 5.6923 8.1131C5.8723 7.9031 6.1523 7.9231 6.3723 8.0931L7.4523 8.9931C7.7623 8.7031 8.0023 8.6831 8.2023 8.7931C9.2823 9.3231 10.5323 9.5631 11.7523 9.5631C12.9723 9.5631 14.2123 9.3231 15.3023 8.7931C15.5023 8.6831 15.7523 8.7231 16.0523 8.9931L17.1323 8.0931C17.3523 7.9231 17.6223 7.9031 17.8023 8.1131C17.9623 8.3331 17.9023 8.6131 17.6923 8.7931L16.6023 9.6931C17.0323 10.4331 17.3223 11.3931 17.4223 12.3531H18.7123C19.0123 12.3531 19.1823 12.5131 19.1823 12.7831C19.1823 13.0531 18.9923 13.2331 18.7123 13.2331H17.4723C17.4623 14.4331 17.1723 15.5131 16.6723 16.4031L17.7523 17.2931C17.9623 17.4731 18.0223 17.7531 17.8523 17.9431C17.6823 18.1631 17.4023 18.1531 17.1823 17.9731L16.1623 17.1431C15.3423 18.1731 14.1523 18.8431 12.7223 18.9931C12.2923 19.0331 12.0923 18.8631 12.0923 18.5531V10.8731C12.0923 10.6831 11.9423 10.5431 11.7523 10.5431ZM7.9523 11.9331C7.9523 12.4731 8.4123 12.9231 8.9623 12.9231C9.5123 12.9231 9.9623 12.4731 9.9623 11.9331C9.9623 11.3831 9.5123 10.9231 8.9623 10.9231C8.4123 10.9231 7.9523 11.3631 7.9523 11.9331ZM15.5523 11.9331C15.5523 11.3631 15.0923 10.9231 14.5423 10.9231C14.0023 10.9231 13.5423 11.3831 13.5423 11.9331C13.5423 12.4731 14.0023 12.9231 14.5423 12.9231C15.0923 12.9231 15.5523 12.4731 15.5523 11.9331ZM8.0023 15.2831C8.0023 15.9031 8.5223 16.4131 9.1423 16.4131C9.7523 16.4131 10.2923 15.9031 10.2923 15.2831C10.2923 14.6631 9.7523 14.1431 9.1423 14.1431C8.5223 14.1431 8.0023 14.6631 8.0023 15.2831ZM15.5123 15.2831C15.5123 14.6631 15.0023 14.1431 14.3823 14.1431C13.7623 14.1431 13.2223 14.6631 13.2223 15.2831C13.2223 15.9031 13.7623 16.4131 14.3823 16.4131C15.0023 16.4131 15.5123 15.9031 15.5123 15.2831Z" />
        </svg>
    