
        <svg xmlns="http://www.w3.org/2000/svg" viewBox="0 0 100 100">
            <path d="M12.7923 25.5978C19.8723 25.5978 25.6023 19.8678 25.6023 12.7978C25.6023 5.7278 19.8723 -0.0022 12.7923 -0.0022C5.7323 -0.0022 0.0023 5.7278 0.0023 12.7978C0.0023 19.8678 5.7323 25.5978 12.7923 25.5978ZM12.7923 21.4178C8.0323 21.4178 4.1723 17.5678 4.1723 12.7978C4.1723 8.0278 8.0323 4.1678 12.7923 4.1678C17.5623 4.1678 21.4323 8.0278 21.4323 12.7978C21.4323 17.5678 17.5623 21.4178 12.7923 21.4178ZM13.5223 10.6678C14.2123 10.6078 14.8223 10.4578 15.2723 10.2078C15.7823 9.8978 15.8823 9.7178 15.8823 9.4178C15.8823 8.6578 15.4823 7.9678 14.7423 7.5378L14.7023 7.4278C14.6923 7.3478 14.7323 7.2778 14.8923 7.2378L15.1623 7.1878C16.0123 6.9978 15.6023 5.7078 14.7623 5.9778L14.3923 6.0978C13.8823 6.2578 13.5823 6.5878 13.5023 7.0578L13.4923 7.1378C13.2623 7.0978 13.0423 7.0878 12.7923 7.0878C12.5523 7.0878 12.3123 7.0978 12.1023 7.1378L12.0823 7.0578C12.0023 6.5978 11.6923 6.2578 11.2023 6.0978L10.8423 5.9778C9.9923 5.6978 9.5823 6.9978 10.4223 7.1878L10.7023 7.2378C10.8623 7.2778 10.9023 7.3478 10.8723 7.4278L10.8523 7.5478C10.6523 7.6478 10.4923 7.7978 10.3623 7.9378L13.1123 10.6878C13.2523 10.6878 13.3923 10.6778 13.5223 10.6678ZM16.7723 17.9278C17.0823 18.2378 17.6123 18.2478 17.9323 17.9278C18.2423 17.5978 18.2423 17.0778 17.9323 16.7578L8.8523 7.6778C8.5323 7.3578 7.9923 7.3578 7.6723 7.6778C7.3523 8.0078 7.3523 8.5278 7.6723 8.8478ZM18.4923 13.1578L17.7023 13.1478C17.6123 12.5578 17.4123 11.9578 17.1123 11.4478L18.1523 10.6478C18.4823 10.4078 18.5123 9.9578 18.2823 9.6778C18.0323 9.3878 17.6523 9.3978 17.3123 9.6578L15.9023 10.7378C15.8323 10.7378 15.7623 10.7578 15.7023 10.7778C15.1523 11.0378 14.6123 11.1878 13.9923 11.2778C13.9123 11.2878 13.8323 11.2878 13.7323 11.2978L14.8223 12.3978C15.0123 12.1978 15.2723 12.0578 15.5723 12.0578C16.1223 12.0578 16.5623 12.5278 16.5623 13.0478C16.5623 13.3478 16.4223 13.6078 16.2023 13.7778L17.6723 15.2478C17.7323 14.9978 17.7623 14.7378 17.7823 14.4678H18.4923C18.9023 14.4678 19.1823 14.2078 19.1823 13.8278C19.1823 13.4278 18.9023 13.1678 18.4923 13.1578ZM11.6623 19.0978C12.0123 19.1578 12.2923 18.9978 12.2923 18.6778V14.7178L7.2923 9.7178C7.1923 9.8478 7.1623 9.9878 7.1723 10.1478C7.1723 10.3378 7.2623 10.5078 7.4523 10.6478L8.4823 11.4478C8.1923 11.9578 7.9923 12.5578 7.9023 13.1478L7.1123 13.1578C6.6923 13.1678 6.4123 13.4278 6.4123 13.8278C6.4123 14.2078 6.6923 14.4678 7.1123 14.4678H7.8323C7.8623 15.2678 8.0523 15.9978 8.3523 16.6378L7.7123 17.1778C7.3823 17.4478 7.3323 17.8678 7.5823 18.1678C7.8323 18.4578 8.2223 18.4678 8.5523 18.1878L9.1123 17.7178C9.7623 18.4178 10.6423 18.8978 11.6623 19.0978ZM9.3723 15.9478C9.3723 15.4078 9.8323 14.9578 10.3823 14.9578C10.9423 14.9578 11.3823 15.4378 11.3823 15.9478C11.3823 16.4978 10.9223 16.9578 10.3823 16.9578C9.8323 16.9578 9.3723 16.4978 9.3723 15.9478ZM13.9323 19.0978C14.6623 18.9578 15.3023 18.6678 15.8423 18.2778L13.3023 15.7378V18.6778C13.3023 18.9978 13.5823 19.1578 13.9323 19.0978Z" />
        </svg>
    