
        <svg xmlns="http://www.w3.org/2000/svg" viewBox="0 0 100 100">
            <path d="M13.2817 10.4414C15.3517 10.4414 17.4017 10.0414 18.7417 9.4514C20.1917 10.9614 21.7417 13.6214 21.7417 16.9514C21.7417 18.0014 21.6017 18.9814 21.3317 19.8814L22.8017 21.3514C23.2817 20.1014 23.5517 18.7014 23.5817 17.1614L25.5917 17.1714C26.1817 17.1714 26.5617 16.8014 26.5617 16.2714C26.5617 15.7414 26.1817 15.3814 25.6017 15.3814L23.4717 15.3614C23.2717 13.8214 22.7817 12.2814 22.0617 10.9114L23.9217 9.3514C24.3417 9.0014 24.4817 8.4314 24.1317 8.0014C23.7617 7.5714 23.2017 7.6214 22.7717 7.9814L21.1017 9.3914C20.6417 8.7414 20.1117 8.1614 19.5317 7.6514C19.5217 5.7314 18.6417 4.2514 17.1517 3.3814L17.0417 2.8514C16.9417 2.4314 17.1417 2.1614 17.6517 1.9814L18.4417 1.6914C19.5717 1.3614 19.0217 -0.3386 17.8617 0.0614L16.9317 0.4314C15.8317 0.8314 15.2917 1.6214 15.3617 2.6714C14.7317 2.5214 14.0317 2.4514 13.2817 2.4514C12.5417 2.4514 11.8317 2.5214 11.2017 2.6714C11.2717 1.6214 10.7317 0.8314 9.6317 0.4314L8.7117 0.0614C7.5517 -0.3386 6.9917 1.3614 8.1217 1.6914L8.9217 1.9814C9.4217 2.1614 9.6217 2.4314 9.5317 2.8514L9.4017 3.3914C8.4117 3.9814 7.7017 4.8414 7.3317 5.9114L11.7817 10.3414C12.2617 10.4114 12.7717 10.4414 13.2817 10.4414ZM0.3517 3.4514L24.9217 27.9614C25.2817 28.3114 25.8517 28.3114 26.2017 27.9614C26.5417 27.6014 26.5517 27.0414 26.2017 26.6814L1.6417 2.1714C1.2917 1.8214 0.7017 1.8014 0.3517 2.1714C0.0117 2.5114 0.0117 3.0914 0.3517 3.4514ZM13.2817 27.5314C16.0517 27.5314 18.4017 26.6714 20.1517 25.1514L18.8117 23.8214C17.5417 24.8914 15.9117 25.5514 14.0017 25.6814V19.0114L12.4717 17.4814V25.6814C7.8517 25.3114 4.8117 21.9114 4.8117 16.9514C4.8117 14.8014 5.4717 12.8814 6.3417 11.4414L2.6717 7.8814C2.6017 7.8914 2.5117 7.9214 2.4417 8.0014C2.0817 8.4314 2.2117 9.0014 2.6517 9.3514L4.5117 10.9114C3.7717 12.2714 3.2917 13.8014 3.0917 15.3614L0.9617 15.3814C0.3717 15.3814 0.0017 15.7414 0.0017 16.2714C0.0017 16.8014 0.3717 17.1714 0.9717 17.1714L2.9917 17.1614C3.0217 19.2314 3.4917 21.0714 4.3317 22.6114L2.6017 24.0614C2.1817 24.4114 2.0517 24.9714 2.4017 25.4114C2.7617 25.8414 3.3117 25.7914 3.7617 25.4314L5.3417 24.0914C7.1517 26.2714 9.9117 27.5314 13.2817 27.5314ZM17.0317 14.5414C17.8317 14.5414 18.4917 13.8614 18.4917 13.0514C18.4917 12.2514 17.8317 11.5814 17.0317 11.5814C16.2117 11.5814 15.5517 12.2514 15.5517 13.0514C15.5517 13.8614 16.2117 14.5414 17.0317 14.5414ZM8.1417 19.1814C9.0817 19.1814 9.8517 18.4114 9.8517 17.4614C9.8517 16.5114 9.0817 15.7414 8.1417 15.7414C7.1817 15.7414 6.4117 16.5114 6.4117 17.4614C6.4117 18.4114 7.1817 19.1814 8.1417 19.1814ZM20.1517 17.4614C20.1517 16.5114 19.3717 15.7414 18.4217 15.7414C18.0717 15.7414 17.7517 15.8814 17.5317 16.0914L19.8017 18.3814C20.0117 18.1314 20.1517 17.8114 20.1517 17.4614ZM9.5417 23.1914C10.3017 23.1914 10.9117 22.5814 10.9117 21.8314C10.9117 21.0714 10.3017 20.4614 9.5417 20.4614C8.7917 20.4614 8.1817 21.0714 8.1817 21.8314C8.1817 22.5814 8.7917 23.1914 9.5417 23.1914Z" />
        </svg>
    