
        <svg xmlns="http://www.w3.org/2000/svg" viewBox="0 0 100 100">
            <path d="M6.6717 6.9332C6.6717 7.5132 6.8917 7.8632 7.5217 8.2032C8.7417 8.7932 10.5917 9.1532 12.5117 9.1532C14.4417 9.1532 16.2917 8.7932 17.5117 8.2032C18.1417 7.8632 18.3617 7.5132 18.3617 6.9332C18.3617 5.3232 17.5317 3.9732 16.1817 3.1232L16.0617 2.4532C16.0117 2.0132 16.1617 1.7132 16.6417 1.4832L17.9917 0.8232C18.4917 0.6132 18.1917 -0.1968 17.6517 0.0432L16.2817 0.7632C15.4617 1.1732 15.1217 1.7132 15.2417 2.5032L15.2717 2.6632C14.4617 2.3332 13.5317 2.1532 12.5117 2.1532C11.4917 2.1532 10.5717 2.3332 9.7617 2.6632L9.7817 2.5032C9.9117 1.7132 9.5717 1.1732 8.7517 0.7632L7.3817 0.0432C6.8417 -0.1968 6.5417 0.6132 7.0417 0.8232L8.3917 1.4832C8.8717 1.7132 9.0217 2.0132 8.9617 2.4532L8.8517 3.1232C7.5017 3.9732 6.6717 5.3232 6.6717 6.9332ZM2.8117 15.9932C2.8117 18.2532 3.3417 20.2332 4.2817 21.8432L2.3217 23.4332C2.0817 23.6232 2.0417 23.8732 2.2217 24.1032C2.4017 24.3432 2.6817 24.3232 2.9217 24.1432L4.7917 22.6332C6.2617 24.6232 8.4517 25.8832 11.1017 26.1232C11.8617 26.1932 12.1217 25.8832 12.1217 25.3932V11.8232C12.1217 11.6032 12.2917 11.4232 12.5117 11.4232C12.7417 11.4232 12.9117 11.6032 12.9117 11.8232V25.3932C12.9117 25.8832 13.1717 26.1932 13.9317 26.1232C16.5817 25.8832 18.7717 24.6232 20.2417 22.6332L22.1117 24.1432C22.3517 24.3232 22.6317 24.3432 22.8017 24.1032C22.9917 23.8732 22.9417 23.6232 22.7117 23.4332L20.7517 21.8432C21.6917 20.2332 22.2217 18.2532 22.2217 15.9932C22.2217 15.9132 22.2217 15.8332 22.2217 15.7632H24.5417C24.8417 15.7632 25.0317 15.5732 25.0317 15.2832C25.0317 15.0132 24.8417 14.8232 24.5517 14.8232L22.1617 14.8332C21.9717 12.9532 21.3517 11.0632 20.4617 9.7232L22.5617 8.0232C22.7817 7.8432 22.8517 7.5732 22.6717 7.3332C22.5117 7.1032 22.1917 7.1132 21.9717 7.2932L19.9017 8.9832C19.8717 8.9632 19.8517 8.9432 19.8417 8.9132C19.4617 8.5332 19.0417 8.5232 18.7617 8.6732C16.6917 9.8332 14.5217 10.1432 12.5117 10.1432C10.5117 10.1432 8.3417 9.8332 6.2717 8.6732C5.9917 8.5232 5.5617 8.5332 5.2017 8.9132C5.1817 8.9432 5.1517 8.9632 5.1317 8.9832L3.0617 7.2932C2.8317 7.1132 2.5217 7.1032 2.3517 7.3332C2.1817 7.5732 2.2517 7.8432 2.4717 8.0232L4.5717 9.7232C3.6817 11.0632 3.0617 12.9532 2.8717 14.8332L0.4817 14.8232C0.1917 14.8232 0.0017 15.0132 0.0017 15.2832C0.0017 15.5732 0.1917 15.7632 0.4917 15.7632H2.8117C2.8117 15.8332 2.8117 15.9132 2.8117 15.9932ZM8.4917 13.9932C7.7017 13.9932 7.0317 13.3132 7.0317 12.5132C7.0317 11.7132 7.7017 11.0632 8.4917 11.0632C9.3017 11.0632 9.9617 11.7132 9.9617 12.5132C9.9617 13.3232 9.3017 13.9932 8.4917 13.9932ZM16.5317 13.9932C15.7217 13.9932 15.0717 13.3232 15.0717 12.5132C15.0717 11.7132 15.7217 11.0632 16.5317 11.0632C17.3317 11.0632 18.0017 11.7132 18.0017 12.5132C18.0017 13.3132 17.3317 13.9932 16.5317 13.9932ZM7.1217 18.8432C6.1917 18.8432 5.4117 18.0832 5.4117 17.1232C5.4117 16.2032 6.1917 15.4332 7.1217 15.4332C8.0517 15.4332 8.8217 16.2032 8.8217 17.1232C8.8217 18.0832 8.0517 18.8432 7.1217 18.8432ZM17.9017 18.8432C16.9817 18.8432 16.2117 18.0832 16.2117 17.1232C16.2117 16.2032 16.9817 15.4332 17.9017 15.4332C18.8417 15.4332 19.6217 16.2032 19.6217 17.1232C19.6217 18.0832 18.8417 18.8432 17.9017 18.8432ZM8.5417 22.8632C7.8517 22.8632 7.2917 22.3032 7.2917 21.6132C7.2917 20.9332 7.8517 20.3532 8.5417 20.3532C9.2417 20.3532 9.8017 20.9332 9.8017 21.6132C9.8017 22.3032 9.2417 22.8632 8.5417 22.8632ZM16.4917 22.8632C15.7817 22.8632 15.2317 22.3032 15.2317 21.6132C15.2317 20.9332 15.7817 20.3532 16.4917 20.3532C17.1817 20.3532 17.7417 20.9332 17.7417 21.6132C17.7417 22.3032 17.1817 22.8632 16.4917 22.8632Z" />
        </svg>
    