
        <svg xmlns="http://www.w3.org/2000/svg" viewBox="0 0 100 100">
            <path d="M13.2817 27.5314C16.6517 27.5314 19.4217 26.2714 21.2217 24.0914L22.8017 25.4314C23.2417 25.7914 23.8017 25.8414 24.1617 25.4114C24.5117 24.9714 24.3917 24.4114 23.9517 24.0614L22.2317 22.6114C23.0717 21.0714 23.5417 19.2314 23.5817 17.1614L25.5917 17.1714C26.1817 17.1714 26.5617 16.8014 26.5617 16.2714C26.5617 15.7414 26.1817 15.3814 25.6017 15.3814L23.4717 15.3614C23.2717 13.8214 22.7817 12.2814 22.0617 10.9114L23.9217 9.3514C24.3417 9.0014 24.4817 8.4314 24.1317 8.0014C23.7617 7.5714 23.2017 7.6214 22.7717 7.9814L21.1017 9.3914C20.6417 8.7414 20.1117 8.1614 19.5317 7.6514C19.5217 5.7314 18.6417 4.2514 17.1517 3.3814L17.0417 2.8514C16.9417 2.4314 17.1417 2.1614 17.6517 1.9814L18.4417 1.6914C19.5717 1.3614 19.0217 -0.3386 17.8617 0.0614L16.9317 0.4314C15.8317 0.8314 15.2917 1.6214 15.3617 2.6714C14.7317 2.5214 14.0317 2.4514 13.2817 2.4514C12.5417 2.4514 11.8317 2.5214 11.2017 2.6714C11.2717 1.6214 10.7317 0.8314 9.6317 0.4314L8.7117 0.0614C7.5517 -0.3386 6.9917 1.3614 8.1217 1.6914L8.9217 1.9814C9.4217 2.1614 9.6217 2.4314 9.5317 2.8514L9.4017 3.3814C7.9117 4.2714 7.0417 5.7314 7.0317 7.6614C6.4617 8.1714 5.9317 8.7514 5.4617 9.3914L3.8017 7.9814C3.3617 7.6214 2.8017 7.5714 2.4417 8.0014C2.0817 8.4314 2.2117 9.0014 2.6517 9.3514L4.5017 10.9114C3.7717 12.2814 3.2917 13.8014 3.0917 15.3614L0.9617 15.3814C0.3717 15.3814 0.0017 15.7414 0.0017 16.2714C0.0017 16.8014 0.3717 17.1714 0.9717 17.1714L2.9917 17.1614C3.0217 19.2314 3.4917 21.0714 4.3317 22.6114L2.6017 24.0614C2.1817 24.4114 2.0517 24.9714 2.4017 25.4114C2.7617 25.8414 3.3117 25.7914 3.7617 25.4314L5.3417 24.0914C7.1517 26.2714 9.9117 27.5314 13.2817 27.5314ZM13.2817 10.4414C15.3517 10.4414 17.4017 10.0414 18.7417 9.4514C20.1917 10.9614 21.7417 13.6214 21.7417 16.9514C21.7417 21.9414 18.6817 25.3614 14.0017 25.6814V12.6414C14.0017 12.2214 13.6517 11.8814 13.2317 11.8814C12.8117 11.8814 12.4717 12.2214 12.4717 12.6414V25.6814C7.8517 25.3114 4.8117 21.9114 4.8117 16.9514C4.8117 13.6314 6.3517 10.9814 7.8317 9.4514C9.1617 10.0414 11.2117 10.4414 13.2817 10.4414ZM9.5417 14.5414C10.3617 14.5414 11.0117 13.8614 11.0117 13.0514C11.0117 12.2514 10.3617 11.5814 9.5417 11.5814C8.7317 11.5814 8.0717 12.2514 8.0717 13.0514C8.0717 13.8614 8.7317 14.5414 9.5417 14.5414ZM17.0317 14.5414C17.8317 14.5414 18.4917 13.8614 18.4917 13.0514C18.4917 12.2514 17.8317 11.5814 17.0317 11.5814C16.2117 11.5814 15.5517 12.2514 15.5517 13.0514C15.5517 13.8614 16.2117 14.5414 17.0317 14.5414ZM8.1417 19.1814C9.0817 19.1814 9.8517 18.4114 9.8517 17.4614C9.8517 16.5114 9.0817 15.7414 8.1417 15.7414C7.1817 15.7414 6.4117 16.5114 6.4117 17.4614C6.4117 18.4114 7.1817 19.1814 8.1417 19.1814ZM18.4217 19.1814C19.3717 19.1814 20.1517 18.4114 20.1517 17.4614C20.1517 16.5114 19.3717 15.7414 18.4217 15.7414C17.4817 15.7414 16.7017 16.5114 16.7017 17.4614C16.7017 18.4114 17.4817 19.1814 18.4217 19.1814ZM9.5417 23.1914C10.3017 23.1914 10.9117 22.5814 10.9117 21.8314C10.9117 21.0714 10.3017 20.4614 9.5417 20.4614C8.7917 20.4614 8.1817 21.0714 8.1817 21.8314C8.1817 22.5814 8.7917 23.1914 9.5417 23.1914ZM17.0317 23.1914C17.7817 23.1914 18.3917 22.5814 18.3917 21.8314C18.3917 21.0714 17.7817 20.4614 17.0317 20.4614C16.2617 20.4614 15.6517 21.0714 15.6517 21.8314C15.6517 22.5814 16.2617 23.1914 17.0317 23.1914Z" />
        </svg>
    