
        <svg xmlns="http://www.w3.org/2000/svg" viewBox="0 0 100 100">
            <path d="M7.2117 7.2095C7.2117 7.8495 7.4417 8.3195 8.3317 8.7795C9.6317 9.4195 11.6217 9.7795 13.7017 9.7795C15.7617 9.7795 17.7517 9.4195 19.0517 8.7795C19.9417 8.3195 20.1817 7.8495 20.1817 7.2095C20.1817 5.5895 19.2917 4.1695 17.7117 3.2795L17.6517 3.0195C17.5617 2.6795 17.7217 2.4595 18.1917 2.3095L18.9217 2.0495C20.3117 1.6595 19.6317 -0.4005 18.2317 0.0695L17.3317 0.4095C16.2517 0.7795 15.6517 1.5195 15.6017 2.5295C15.0117 2.4095 14.3817 2.3395 13.7017 2.3395C13.0117 2.3395 12.3717 2.4095 11.7817 2.5295C11.7217 1.5195 11.1217 0.7795 10.0417 0.4095L9.1517 0.0695C7.7417 -0.4005 7.0617 1.6595 8.4517 2.0495L9.1917 2.3095C9.6517 2.4595 9.8217 2.6795 9.7417 3.0195L9.6717 3.2895C8.1017 4.1695 7.2117 5.5995 7.2117 7.2095ZM12.8017 27.5295V14.3395C12.8017 13.8395 13.1917 13.4395 13.7017 13.4395C14.1917 13.4395 14.5917 13.8395 14.5917 14.3395V27.5295C14.5917 28.1695 15.0617 28.4995 15.8517 28.3795C18.3017 28.0195 20.3417 26.8795 21.8117 25.1595L23.2617 26.3995C23.8017 26.8495 24.4817 26.8695 24.9017 26.3495C25.3217 25.8495 25.1817 25.1695 24.6717 24.7295L23.0317 23.3495C23.8217 21.8295 24.2817 20.0495 24.3317 18.0595H26.2117C26.9217 18.0595 27.3917 17.6195 27.3917 16.9695C27.3917 16.3195 26.9217 15.8795 26.2217 15.8795H24.2017C23.9917 14.3795 23.5117 12.8095 22.8017 11.5995L24.8217 9.9595C25.3517 9.5395 25.4917 8.8295 25.0617 8.3395C24.6417 7.8295 23.9717 7.8595 23.4417 8.3095L21.3917 9.9695C20.8917 9.6395 20.5117 9.6695 20.1917 9.8095C18.4017 10.6995 16.1517 11.1995 13.7017 11.1995C11.2417 11.1995 8.9917 10.6995 7.1917 9.8095C6.8917 9.6695 6.5017 9.6395 6.0017 9.9695L3.9517 8.3095C3.4117 7.8595 2.7417 7.8295 2.3217 8.3395C1.9117 8.8295 2.0417 9.5395 2.5617 9.9595L4.5817 11.5995C3.8817 12.8095 3.4017 14.3795 3.1917 15.8795H1.1717C0.4717 15.8795 0.0017 16.3195 0.0017 16.9695C0.0017 17.6195 0.4717 18.0595 1.1717 18.0595H3.0617C3.1217 20.0495 3.5717 21.8395 4.3617 23.3495L2.7317 24.7295C2.2017 25.1695 2.0717 25.8495 2.4917 26.3495C2.9017 26.8695 3.6017 26.8495 4.1217 26.3995L5.5917 25.1595C7.0517 26.8795 9.0817 28.0195 11.5317 28.3795C12.3317 28.4995 12.8017 28.1695 12.8017 27.5295ZM8.8917 15.5595C8.0417 15.5595 7.3317 14.8295 7.3317 13.9895C7.3317 13.1195 8.0417 12.4095 8.8917 12.4095C9.7617 12.4095 10.4717 13.1195 10.4717 13.9895C10.4717 14.8495 9.7617 15.5595 8.8917 15.5595ZM18.4917 15.5595C17.6217 15.5595 16.9117 14.8495 16.9117 13.9895C16.9117 13.1195 17.6217 12.4095 18.4917 12.4095C19.3517 12.4095 20.0517 13.1195 20.0517 13.9895C20.0517 14.8295 19.3517 15.5595 18.4917 15.5595ZM7.6917 20.6895C6.6817 20.6895 5.8717 19.8895 5.8717 18.8695C5.8717 17.8695 6.6817 17.0595 7.6917 17.0595C8.6817 17.0595 9.5117 17.8695 9.5117 18.8695C9.5117 19.8895 8.6817 20.6895 7.6917 20.6895ZM19.7017 20.6895C18.7017 20.6895 17.8817 19.8895 17.8817 18.8695C17.8817 17.8695 18.7017 17.0595 19.7017 17.0595C20.7117 17.0595 21.5117 17.8695 21.5117 18.8695C21.5117 19.8895 20.7117 20.6895 19.7017 20.6895ZM9.2017 25.0095C8.4517 25.0095 7.8417 24.4095 7.8417 23.6595C7.8417 22.8995 8.4517 22.2895 9.2017 22.2895C9.9517 22.2895 10.5617 22.8995 10.5617 23.6595C10.5617 24.4095 9.9517 25.0095 9.2017 25.0095ZM18.1917 25.0095C17.4417 25.0095 16.8317 24.4095 16.8317 23.6595C16.8317 22.8995 17.4417 22.2895 18.1917 22.2895C18.9417 22.2895 19.5617 22.8995 19.5617 23.6595C19.5617 24.4095 18.9417 25.0095 18.1917 25.0095Z" />
        </svg>
    