
        <svg xmlns="http://www.w3.org/2000/svg" viewBox="0 0 100 100">
            <path d="M2.4117 18.4379C2.5917 18.4379 2.7517 18.4279 2.9217 18.3979L5.5117 20.9779C5.4417 21.2079 5.3917 21.4579 5.3917 21.7279C5.3917 22.5279 5.7817 23.2479 6.3717 23.6779V26.1979H2.6817C1.3717 26.1979 0.3117 26.9979 0.3117 28.1779C0.3117 28.9679 0.7217 29.5979 1.5017 29.5979H15.5317C16.3017 29.5979 16.7117 28.9679 16.7117 28.1779C16.7117 26.9979 15.6517 26.1979 14.3417 26.1979H9.2417V23.6779C9.8417 23.2379 10.2317 22.5279 10.2317 21.7279C10.2317 20.3979 9.1917 19.3379 7.8717 19.2979L4.8317 16.2579C4.8317 16.1879 4.8417 16.1079 4.8417 16.0279C4.8417 15.9479 4.8317 15.8779 4.8317 15.8079L10.1817 10.8879C10.3017 12.2279 10.5317 13.4479 10.8717 14.5779C11.3317 15.9579 12.5517 16.4179 13.4917 15.4779L22.9717 6.0079C23.8917 5.0879 23.4217 3.8479 22.0817 3.4279C19.9017 2.7379 17.3317 2.4979 14.1717 2.6779L13.5817 2.0679C12.7817 1.2279 11.7217 0.9779 10.7217 1.3179L9.7817 0.3979C9.2417 -0.1321 8.4117 -0.1321 7.8717 0.3979C7.3517 0.9179 7.3317 1.7679 7.8717 2.3079L8.8017 3.2179C8.4517 4.2279 8.7217 5.3379 9.5717 6.1279L10.1617 6.6579C10.1517 6.7979 10.1517 6.9179 10.1417 7.0479L2.9417 13.6579C2.7817 13.6279 2.6017 13.5979 2.4117 13.5979C1.0617 13.5979 0.0017 14.6679 0.0017 16.0279C0.0017 17.3779 1.0617 18.4379 2.4117 18.4379ZM18.8917 14.9879C20.8517 14.9879 22.4617 13.3779 22.4617 11.4379C22.4617 10.6579 22.2217 9.8979 21.7117 9.2679L16.7217 14.2479C17.3517 14.7379 18.1217 14.9879 18.8917 14.9879Z" />
        </svg>
    