
        <svg xmlns="http://www.w3.org/2000/svg" viewBox="0 0 100 100">
            <path d="M11.7619 28.3246C18.8719 28.3246 23.5819 26.1546 23.5419 22.8746V22.7246C23.4619 19.5546 20.6219 15.7146 17.0519 13.9246C16.4519 12.0046 14.8519 10.5746 12.9219 10.1546V6.9146C15.4719 6.5146 17.4819 4.8046 17.7619 2.5946C17.8919 1.5846 17.3719 0.8446 16.3119 0.5546C13.5619 -0.1854 10.0219 -0.1854 7.2619 0.5546C6.2119 0.8446 5.6819 1.5746 5.8119 2.5946C6.1019 4.8046 8.1119 6.5146 10.6619 6.9146V10.1346C8.7219 10.5546 7.0919 11.9946 6.4919 13.9246C2.9319 15.7146 0.1219 19.5246 0.0019 22.6746V22.8746C-0.0381 26.1546 4.6719 28.3246 11.7619 28.3246ZM2.1419 22.8746C2.1519 20.9246 6.0219 19.5746 11.7619 19.5746C17.5319 19.5746 21.3919 20.9246 21.4019 22.8746C21.3919 24.8446 17.5319 26.1846 11.7619 26.1846C6.0219 26.1846 2.1519 24.8446 2.1419 22.8746ZM11.7619 23.8646C13.9319 23.8646 15.9519 22.6046 16.0419 21.0546C14.7919 20.8546 13.3319 20.7246 11.7619 20.7246C10.2119 20.7246 8.7519 20.8546 7.5019 21.0546C7.5919 22.6046 9.6019 23.8646 11.7619 23.8646Z" />
        </svg>
    