
        <svg xmlns="http://www.w3.org/2000/svg" viewBox="0 0 100 100">
            <path d="M3.5117 27.6694H13.4717C13.8317 27.6694 14.0517 27.4194 14.0517 27.0694C14.0517 26.3694 13.5017 25.8594 12.6017 25.8594H9.2217V15.3894C11.4717 15.3494 13.6017 15.2094 15.2917 14.9694C16.8017 14.7394 17.3017 13.6594 16.8117 12.1294L13.8117 2.2994C13.3317 0.7394 12.1417 -0.0006 10.4717 -0.0006H6.5117C4.8517 -0.0006 3.6517 0.7394 3.1717 2.2994L0.1717 12.1294C-0.3083 13.6594 0.2017 14.7394 1.7017 14.9694C3.3917 15.2094 5.5217 15.3494 7.7717 15.3894V25.8594H4.3917C3.4917 25.8594 2.9417 26.3694 2.9417 27.0694C2.9417 27.4194 3.1617 27.6694 3.5117 27.6694ZM8.4917 14.0394C6.3717 14.0394 4.3717 13.9194 2.1517 13.6794C1.4517 13.5894 1.3017 13.1394 1.5217 12.3894L4.4017 2.7894C4.7017 1.8094 5.4717 1.3394 6.5117 1.3394H10.4717C11.5217 1.3394 12.2917 1.8094 12.5817 2.7894L15.4717 12.3894C15.6917 13.1394 15.5417 13.5894 14.8317 13.6794C12.6217 13.9194 10.6217 14.0394 8.4917 14.0394Z" />
        </svg>
    