
        <svg xmlns="http://www.w3.org/2000/svg" viewBox="0 0 100 100">
            <path d="M2.6017 19.4168C2.7617 19.4168 2.9317 19.3968 3.0817 19.3768L5.5917 21.8568C5.5217 22.1068 5.4817 22.3468 5.4817 22.6068C5.4817 23.4668 5.8717 24.2168 6.4917 24.6768V26.8768H2.7317C1.3617 26.8768 0.2217 27.7068 0.2217 28.9868C0.2217 29.8768 0.6717 30.6068 1.5517 30.6068H16.0517C16.9317 30.6068 17.3917 29.8768 17.3917 28.9868C17.3917 27.7068 16.2417 26.8768 14.8817 26.8768H9.6717V24.6768C10.2917 24.2168 10.6917 23.4668 10.6917 22.6068C10.6917 21.2168 9.5817 20.0768 8.2017 20.0168L5.1917 17.0168C5.2017 16.9468 5.2017 16.8768 5.2017 16.8168C5.2017 16.7568 5.2017 16.6968 5.1917 16.6468L9.5017 12.6768C9.6417 13.7468 9.8717 14.7468 10.1517 15.6668C10.8717 17.9868 13.2417 18.4268 14.6617 17.0168L16.2217 15.4568C17.0117 15.9968 17.9217 16.2468 18.8117 16.2468C21.3417 16.2468 23.5517 14.0868 23.5517 11.5368C23.5517 10.6168 23.2717 9.7068 22.7417 8.9168L24.1917 7.4768C25.7317 5.9268 25.0517 3.6768 22.8717 2.9868C20.6417 2.2768 17.9517 2.0168 14.9617 2.1568L14.7317 1.9268C13.4717 0.6668 11.7917 0.3568 10.3217 1.0368L9.7217 0.4368C9.1417 -0.1532 8.2117 -0.1432 7.6217 0.4368C7.0317 1.0168 7.0317 1.9468 7.6217 2.5468L8.2117 3.1568C7.5217 4.6668 7.8417 6.4068 9.1217 7.5968L9.3417 7.8068C9.3317 8.0668 9.3117 8.3168 9.3117 8.5768L3.1317 14.2668C2.9517 14.2268 2.7817 14.2168 2.6017 14.2168C1.1517 14.2168 0.0017 15.3668 0.0017 16.8168C0.0017 18.2668 1.1517 19.4168 2.6017 19.4168ZM13.0417 14.5668C12.9617 14.6468 12.8417 14.6568 12.7717 14.4768C12.1917 12.5768 12.0217 10.2868 12.2317 7.5468C12.2617 6.9768 12.0217 6.3868 11.5817 5.9768L11.0417 5.4868C10.5617 5.0668 10.5517 4.4468 11.1017 3.9068C11.6517 3.3668 12.2217 3.3668 12.6717 3.8568L13.1617 4.3968C13.5817 4.8668 14.2217 5.1068 14.8117 5.0368C17.4617 4.7268 19.7317 5.0368 21.6217 5.6168C21.8217 5.6868 21.8317 5.8068 21.7417 5.8968ZM20.6917 11.5568C20.6917 12.5568 19.8117 13.3968 18.8317 13.3968C18.6717 13.3968 18.5017 13.3768 18.3417 13.3368L20.6217 11.0568C20.6717 11.2168 20.6917 11.3968 20.6917 11.5568Z" />
        </svg>
    