
        <svg xmlns="http://www.w3.org/2000/svg" viewBox="0 0 100 100">
            <path d="M0.0017 21.4534C0.0017 23.9034 1.2117 25.1234 3.6317 25.1234H14.5917C17.0017 25.1234 18.2117 23.9034 18.2117 21.4534V3.6834C18.2117 1.2434 17.0017 0.0034 14.5917 0.0034H3.6317C1.2117 0.0034 0.0017 1.2434 0.0017 3.6834ZM1.8917 21.4234V3.7134C1.8917 2.5434 2.5117 1.8834 3.7217 1.8834H14.4817C15.7017 1.8834 16.3217 2.5434 16.3217 3.7134V21.4234C16.3217 22.5934 15.7017 23.2334 14.4817 23.2334H3.7217C2.5117 23.2334 1.8917 22.5934 1.8917 21.4234ZM6.3117 4.7434H11.9017C12.3317 4.7434 12.6717 4.4034 12.6717 3.9834C12.6717 3.5634 12.3317 3.2234 11.9017 3.2234H6.3117C5.9017 3.2234 5.5517 3.5634 5.5517 3.9834C5.5517 4.4034 5.9017 4.7434 6.3117 4.7434Z" />
        </svg>
    