
        <svg xmlns="http://www.w3.org/2000/svg" viewBox="0 0 100 100">
            <path d="M25.4617 21.0281C25.5817 21.1481 25.7617 21.1481 25.8917 21.0281C26.0117 20.9181 26.0017 20.7381 25.8917 20.6181L5.4217 0.0981C5.3317 -0.0119 5.1517 -0.0519 5.0017 0.0981C4.9017 0.2181 4.9017 0.3881 5.0017 0.5081ZM25.9417 19.1681H30.1917C30.6217 19.1681 30.9117 18.8581 30.9117 18.4381C30.9117 18.0081 30.6217 17.6981 30.1917 17.6981H27.6317V4.1381C27.6317 2.6781 26.8817 1.9281 25.4217 1.9281H8.7617L9.3417 2.4981H25.3817C26.4917 2.4981 27.0617 3.0381 27.0617 4.1481V17.6981H24.4817ZM20.6917 17.6981H3.8517V4.1481C3.8517 3.0381 4.4217 2.4881 5.5317 2.4981L5.0017 1.9481C3.8517 2.0981 3.2817 2.8381 3.2817 4.1381V17.6981H0.7217C0.2917 17.6981 0.0017 18.0081 0.0017 18.4381C0.0017 18.8581 0.2917 19.1681 0.7217 19.1681H22.1517Z" />
        </svg>
    