
        <svg xmlns="http://www.w3.org/2000/svg" viewBox="0 0 100 100">
            <path d="M11.4923 22.977C17.8123 22.977 22.9823 17.827 22.9823 11.497C22.9823 5.167 17.8123 -0.003 11.4923 -0.003C5.1723 -0.003 0.0023 5.167 0.0023 11.497C0.0023 17.827 5.1723 22.977 11.4923 22.977ZM7.3023 16.427C7.0823 16.427 6.9423 16.297 6.9423 16.097C6.9423 15.907 7.0823 15.757 7.3023 15.757H9.8223V15.717C8.1323 15.047 6.8423 13.277 6.8423 11.107C6.8423 8.957 8.1723 7.277 10.1523 6.737V5.367C10.1523 5.227 10.2623 5.107 10.4023 5.107C10.5623 5.107 10.6723 5.227 10.6723 5.367V6.617C10.9723 6.587 11.2623 6.547 11.5623 6.547C11.8823 6.547 12.2023 6.587 12.5023 6.637V5.367C12.5023 5.227 12.6223 5.107 12.7623 5.107C12.9123 5.107 13.0323 5.227 13.0323 5.367V6.757C14.7823 7.267 16.1823 8.697 16.2223 10.817C16.2223 11.067 16.0823 11.237 15.8323 11.237C15.6123 11.237 15.4523 11.067 15.4523 10.817C15.4123 9.227 14.4423 8.007 13.0323 7.507V10.837C13.0323 10.997 12.9123 11.107 12.7623 11.107C12.6223 11.107 12.5023 10.997 12.5023 10.837V7.357C12.2023 7.287 11.8923 7.267 11.5623 7.267C11.2623 7.267 10.9723 7.287 10.6723 7.347V10.837C10.6723 10.997 10.5623 11.107 10.4023 11.107C10.2623 11.107 10.1523 10.997 10.1523 10.837V7.487C8.6723 8.007 7.6323 9.347 7.6323 11.237C7.6323 13.707 9.6123 15.757 12.4723 15.757H15.1523C15.3523 15.757 15.5023 15.907 15.5023 16.097C15.5023 16.297 15.3523 16.427 15.1523 16.427Z" />
        </svg>
    