
        <svg xmlns="http://www.w3.org/2000/svg" viewBox="0 0 100 100">
            <path d="M0.9656 10.0786C-0.0144 10.0786 -0.2544 10.9886 0.2756 11.6686L3.3056 15.6286C3.6656 16.1086 4.3256 16.1086 4.6856 15.6286L7.7256 11.6686C8.2356 10.9886 8.0056 10.0786 7.0356 10.0786H5.7956C6.8856 6.3586 10.3156 3.6586 14.3856 3.6586C19.3256 3.6586 23.3256 7.6486 23.3256 12.5986C23.3256 17.5386 19.3256 21.5386 14.3856 21.5386C11.8456 21.5386 9.6656 20.5186 7.9756 18.7886C7.1656 18.0086 6.0656 17.7686 5.2156 18.5386C4.4756 19.2186 4.4656 20.3186 5.3356 21.2886C7.3056 23.6486 11.0556 25.1986 14.3856 25.1986C21.3456 25.1986 26.9756 19.5586 26.9756 12.5986C26.9756 5.6386 21.3456 -0.0014 14.3856 -0.0014C8.2856 -0.0014 3.2056 4.3286 2.0256 10.0786ZM10.4656 17.5886H17.9456C18.5956 17.5886 18.9756 17.2386 18.9756 16.6286C18.9756 16.0186 18.5956 15.6686 17.9456 15.6686H15.3656C13.2956 15.6686 11.7656 14.2286 11.7656 12.3586C11.7656 11.1186 12.3256 10.1686 13.2956 9.7386V12.0786C13.2956 12.2586 13.4456 12.3986 13.6156 12.3986C13.7956 12.3986 13.9356 12.2586 13.9356 12.0786V9.5386C14.1356 9.5086 14.3456 9.4786 14.5656 9.4786C14.7956 9.4786 15.0056 9.5086 15.2156 9.5486V12.0786C15.2156 12.2586 15.3556 12.3986 15.5256 12.3986C15.7056 12.3986 15.8556 12.2586 15.8556 12.0786V9.7586C16.5456 10.0886 17.0756 10.7086 17.2256 11.5086C17.3456 12.0086 17.6656 12.4686 18.2556 12.4686C18.8956 12.4686 19.3356 12.1086 19.3356 11.4686C19.3256 9.8786 17.8456 8.2686 15.8556 7.7586V6.6686C15.8556 6.4886 15.7056 6.3486 15.5256 6.3486C15.3556 6.3486 15.2156 6.4886 15.2156 6.6686V7.6386C14.9856 7.6086 14.7656 7.5986 14.5356 7.5986C14.3356 7.5986 14.1356 7.6086 13.9356 7.6286V6.6686C13.9356 6.4886 13.7956 6.3486 13.6156 6.3486C13.4456 6.3486 13.2956 6.4886 13.2956 6.6686V7.7186C11.2356 8.1686 9.5956 9.7286 9.5956 11.9486C9.5956 13.4186 10.1956 14.9286 11.5556 15.6986V15.7686H10.4656C9.8356 15.7686 9.4756 16.0986 9.4756 16.6786C9.4756 17.2586 9.8356 17.5886 10.4656 17.5886Z" />
        </svg>
    