
        <svg xmlns="http://www.w3.org/2000/svg" viewBox="0 0 100 100">
            <path d="M3.8417 21.8745H18.0317C20.5617 21.8745 21.8817 20.5745 21.8817 18.0745V3.8045C21.8817 1.3145 20.5617 0.0045 18.0317 0.0045H3.8417C1.3117 0.0045 0.0017 1.3045 0.0017 3.8045V18.0745C0.0017 20.5745 1.3117 21.8745 3.8417 21.8745ZM6.5117 16.3245C6.0917 16.3245 5.8017 16.0545 5.8017 15.6445C5.8017 15.2445 6.0917 14.9845 6.5117 14.9845H8.4517V14.9445C6.7217 14.0745 5.8617 12.2345 5.8617 10.3845C5.8617 8.0745 7.3917 6.3545 9.5317 5.8045V4.5945C9.5317 4.3545 9.6817 4.2045 9.9017 4.2045C10.1417 4.2045 10.3017 4.3545 10.3017 4.5945V5.6445C10.5617 5.6145 10.8017 5.6045 11.0617 5.6045C11.3317 5.6045 11.6017 5.6145 11.8717 5.6445V4.5945C11.8717 4.3545 12.0317 4.2045 12.2617 4.2045C12.4917 4.2045 12.6517 4.3545 12.6517 4.5945V5.8245C14.6417 6.4245 16.1517 8.0845 16.1617 10.0345C16.1617 10.5045 15.8417 10.8245 15.3917 10.8245C14.9317 10.8245 14.6617 10.4845 14.6117 10.0445C14.5417 8.8245 13.7717 7.8245 12.6517 7.3445V10.2845C12.6517 10.5245 12.4917 10.6845 12.2617 10.6845C12.0317 10.6845 11.8717 10.5245 11.8717 10.2845V7.1045C11.6117 7.0445 11.3417 7.0145 11.0617 7.0145C10.8117 7.0145 10.5617 7.0445 10.3017 7.0745V10.2845C10.3017 10.5245 10.1417 10.6845 9.9017 10.6845C9.6817 10.6845 9.5317 10.5245 9.5317 10.2845V7.3145C8.2717 7.8145 7.4617 9.0045 7.4617 10.6645C7.4617 12.9845 9.3117 14.9545 12.0117 14.9545H14.7417C15.1717 14.9545 15.4717 15.2245 15.4717 15.6345C15.4717 16.0545 15.1717 16.3245 14.7417 16.3245Z" />
        </svg>
    