
        <svg xmlns="http://www.w3.org/2000/svg" viewBox="0 0 100 100">
            <path d="M2.3317 24.5172H27.0917V23.3272C27.0917 22.6772 26.6817 22.2872 26.0517 22.2872H25.5917V9.4672H26.5317C27.4917 9.4672 28.0517 8.7572 28.0517 8.0372C28.0517 7.5072 27.7617 7.0272 27.1517 6.6672L16.4617 0.5072C15.9217 0.1972 15.2917 -0.0028 14.7117 -0.0028C14.1217 -0.0028 13.4917 0.1972 12.9517 0.5072L2.2617 6.6672C1.6517 7.0272 1.3617 7.5072 1.3617 8.0372C1.3617 8.7572 1.9217 9.4672 2.8917 9.4672H3.8317V22.2872H3.3717C2.7317 22.2872 2.3317 22.6772 2.3317 23.3272ZM6.3617 22.2872V7.6872L14.4617 3.1672C14.5417 3.1172 14.6417 3.0972 14.7117 3.0972C14.7917 3.0972 14.8717 3.1172 14.9517 3.1672L23.0617 7.6872V22.2872ZM10.7917 18.8672H18.2817C18.9217 18.8672 19.3117 18.5172 19.3117 17.9072C19.3117 17.2972 18.9217 16.9472 18.2817 16.9472H15.6917C13.6317 16.9472 12.0917 15.5072 12.0917 13.6372C12.0917 12.3972 12.6517 11.4472 13.6317 11.0172V13.3572C13.6317 13.5372 13.7717 13.6772 13.9417 13.6772C14.1217 13.6772 14.2717 13.5372 14.2717 13.3572V10.8172C14.4617 10.7772 14.6717 10.7572 14.8917 10.7572C15.1217 10.7572 15.3417 10.7772 15.5417 10.8272V13.3572C15.5417 13.5372 15.6917 13.6772 15.8717 13.6772C16.0417 13.6772 16.1817 13.5372 16.1817 13.3572V11.0372C16.8917 11.3672 17.4017 11.9872 17.5517 12.7972C17.6717 13.2872 17.9917 13.7472 18.6017 13.7472C19.2217 13.7472 19.6617 13.3872 19.6617 12.7472C19.6617 11.1672 18.1717 9.5472 16.1817 9.0372V7.9472C16.1817 7.7672 16.0417 7.6272 15.8717 7.6272C15.6917 7.6272 15.5417 7.7672 15.5417 7.9472V8.9172C15.3117 8.8872 15.0917 8.8672 14.8617 8.8672C14.6617 8.8672 14.4617 8.8872 14.2717 8.9072V7.9472C14.2717 7.7672 14.1217 7.6272 13.9417 7.6272C13.7717 7.6272 13.6317 7.7672 13.6317 7.9472V8.9972C11.5617 9.4472 9.9417 11.0072 9.9417 13.2272C9.9417 14.6972 10.5217 16.2072 11.8917 16.9772V17.0472H10.7917C10.1717 17.0472 9.8017 17.3772 9.8017 17.9572C9.8017 18.5372 10.1717 18.8672 10.7917 18.8672ZM1.4417 28.2972H27.6817C28.4517 28.2972 29.1317 27.6672 29.1317 26.8572C29.1317 26.0772 28.4517 25.4172 27.6817 25.4172H1.4417C0.6717 25.4172 0.0017 26.0772 0.0017 26.8572C0.0017 27.6572 0.6717 28.2972 1.4417 28.2972Z" />
        </svg>
    