
        <svg xmlns="http://www.w3.org/2000/svg" viewBox="0 0 100 100">
            <path d="M2.0483 23.4839H17.6883C18.9683 23.4839 19.8083 22.7039 19.8083 21.5039C19.8083 20.2839 18.9683 19.5239 17.6883 19.5239H12.2383C8.1083 19.5239 4.6983 16.6139 4.6983 12.5739C4.6983 9.8639 5.9483 7.9139 7.9583 7.0339V11.9739C7.9583 12.3539 8.2483 12.6339 8.6283 12.6339C8.9883 12.6339 9.2783 12.3539 9.2783 11.9739V6.6339C9.6983 6.5539 10.1483 6.5039 10.6183 6.5039C11.0783 6.5039 11.5283 6.5539 11.9683 6.6439V11.9739C11.9683 12.3539 12.2583 12.6339 12.6183 12.6339C12.9983 12.6339 13.2783 12.3539 13.2783 11.9739V7.0639C14.8283 7.7539 15.9883 9.0739 16.2283 10.8139C16.4083 11.8039 17.0583 12.7639 18.3683 12.7639C19.7183 12.7639 20.5683 11.9839 20.5683 10.7339C20.5583 7.4339 17.8583 3.9239 13.2783 2.9039V0.6539C13.2783 0.2839 12.9983 0.0039 12.6183 0.0039C12.2583 0.0039 11.9683 0.2839 11.9683 0.6539V2.6839C11.5083 2.6339 11.0283 2.6139 10.5383 2.6139C10.1183 2.6139 9.6883 2.6339 9.2783 2.6739V0.6539C9.2783 0.2839 8.9883 0.0039 8.6283 0.0039C8.2483 0.0039 7.9583 0.2839 7.9583 0.6539V2.8839C3.6283 3.8339 0.2483 7.1339 0.2483 11.7439C0.2483 14.9139 1.7483 18.2039 4.4183 19.6239V19.7239H2.0483C0.7883 19.7239 -0.0017 20.4739 -0.0017 21.6139C-0.0017 22.7539 0.7983 23.4839 2.0483 23.4839Z" />
        </svg>
    