
        <svg xmlns="http://www.w3.org/2000/svg" viewBox="0 0 100 100">
            <path d="M1.0617 25.7816H25.8017C26.3817 25.7816 26.8717 25.3016 26.8717 24.7116C26.8717 24.1416 26.3817 23.6616 25.8017 23.6616H25.1917V22.7416C25.1917 22.2316 24.8917 21.9216 24.3717 21.9216H23.6917V8.3716H24.7017C25.4217 8.3716 25.8417 7.8516 25.8417 7.3116C25.8417 6.9216 25.6217 6.5716 25.1517 6.2916L14.9717 0.4216C14.4917 0.1516 13.9717 0.0016 13.4617 0.0016C12.9617 0.0016 12.4217 0.1516 11.9517 0.4216L1.7817 6.2916C1.3017 6.5716 1.0917 6.9216 1.0917 7.3116C1.0917 7.8516 1.5117 8.3716 2.2217 8.3716H3.2417V21.9216H2.5617C2.0517 21.9216 1.7417 22.2316 1.7417 22.7416V23.6616H1.0617C0.4817 23.6616 0.0017 24.1416 0.0017 24.7116C0.0017 25.3016 0.4817 25.7816 1.0617 25.7816ZM9.0217 19.2816C8.5917 19.2816 8.3117 19.0116 8.3117 18.6016C8.3117 18.2016 8.5917 17.9416 9.0217 17.9416H10.9617V17.8916C9.2217 17.0316 8.3517 15.1916 8.3517 13.3316C8.3517 11.0316 9.9017 9.3016 12.0217 8.7516V7.5516C12.0217 7.3216 12.1917 7.1616 12.4117 7.1616C12.6417 7.1616 12.8117 7.3216 12.8117 7.5516V8.6016C13.0517 8.5616 13.3117 8.5516 13.5717 8.5516C13.8417 8.5516 14.1117 8.5616 14.3717 8.6016V7.5516C14.3717 7.3216 14.5417 7.1616 14.7517 7.1616C14.9917 7.1616 15.1617 7.3216 15.1617 7.5516V8.7816C17.1417 9.3716 18.6517 11.0416 18.6517 12.9816C18.6517 13.4516 18.3517 13.7816 17.8817 13.7816C17.4217 13.7816 17.1517 13.4416 17.1217 12.9916C17.0517 11.7816 16.2817 10.7816 15.1617 10.3016V13.2516C15.1617 13.4916 14.9917 13.6416 14.7517 13.6416C14.5417 13.6416 14.3717 13.4916 14.3717 13.2516V10.0516C14.1117 10.0116 13.8517 9.9716 13.5717 9.9716C13.3117 9.9716 13.0517 10.0116 12.8117 10.0416V13.2516C12.8117 13.4916 12.6417 13.6416 12.4117 13.6416C12.1917 13.6416 12.0217 13.4916 12.0217 13.2516V10.2816C10.7817 10.7716 9.9717 11.9516 9.9717 13.6216C9.9717 15.9416 11.8117 17.9016 14.5217 17.9016H17.2417C17.6717 17.9016 17.9717 18.1716 17.9717 18.5816C17.9717 19.0116 17.6717 19.2816 17.2417 19.2816Z" />
        </svg>
    