
        <svg xmlns="http://www.w3.org/2000/svg" viewBox="0 0 100 100">
            <path d="M11.7523 23.5048C18.2423 23.5048 23.5123 18.2448 23.5123 11.7548C23.5123 5.2648 18.2423 0.0048 11.7523 0.0048C5.2623 0.0048 0.0023 5.2648 0.0023 11.7548C0.0023 18.2448 5.2623 23.5048 11.7523 23.5048ZM11.7523 21.9848C6.0923 21.9848 1.5223 17.4148 1.5223 11.7548C1.5223 6.0948 6.0923 1.5148 11.7523 1.5148C17.4123 1.5148 21.9923 6.0948 21.9923 11.7548C21.9923 17.4148 17.4123 21.9848 11.7523 21.9848ZM7.4523 16.8248H15.3823C15.6723 16.8248 15.8623 16.6448 15.8623 16.3748C15.8623 16.1048 15.6723 15.9048 15.3823 15.9048H12.7423C9.9423 15.9048 8.0323 13.8748 8.0323 11.4748C8.0323 9.6748 8.9623 8.4348 10.3223 7.9248V11.0848C10.3223 11.2848 10.4623 11.4248 10.6523 11.4248C10.8523 11.4248 10.9923 11.2848 10.9923 11.0848V7.7348C11.2623 7.6848 11.5323 7.6648 11.8123 7.6648C12.1123 7.6648 12.4123 7.6848 12.6823 7.7448V11.0848C12.6823 11.2848 12.8223 11.4248 13.0223 11.4248C13.2023 11.4248 13.3623 11.2848 13.3623 11.0848V7.9448C14.6323 8.4448 15.5323 9.5848 15.5623 11.0048C15.5723 11.3348 15.7723 11.5648 16.0923 11.5648C16.4023 11.5648 16.6123 11.3348 16.6123 11.0048C16.5923 8.9648 15.1723 7.4548 13.3623 6.9048V5.6148C13.3623 5.4248 13.2023 5.2748 13.0223 5.2748C12.8223 5.2748 12.6823 5.4248 12.6823 5.6148V6.7348C12.4023 6.7048 12.1023 6.6648 11.8123 6.6648C11.5323 6.6648 11.2623 6.6948 10.9923 6.7248V5.6148C10.9923 5.4248 10.8523 5.2748 10.6523 5.2748C10.4623 5.2748 10.3223 5.4248 10.3223 5.6148V6.8648C8.3223 7.4248 6.9423 9.1048 6.9423 11.2948C6.9423 13.2848 8.0023 15.1048 9.7423 15.8648V15.9148H7.4523C7.1623 15.9148 6.9623 16.1048 6.9623 16.3748C6.9623 16.6448 7.1623 16.8248 7.4523 16.8248Z" />
        </svg>
    