
        <svg xmlns="http://www.w3.org/2000/svg" viewBox="0 0 100 100">
            <path d="M3.1617 20.742H17.5917C19.6617 20.742 20.7417 19.642 20.7417 17.592V3.152C20.7417 1.102 19.6617 0.002 17.5917 0.002H3.1617C1.0917 0.002 0.0017 1.082 0.0017 3.152V17.592C0.0017 19.662 1.0917 20.742 3.1617 20.742ZM6.1917 15.302C5.9617 15.302 5.8217 15.172 5.8217 14.972C5.8217 14.782 5.9617 14.632 6.1917 14.632H8.7117V14.592C7.0217 13.922 5.7317 12.152 5.7317 9.982C5.7317 7.832 7.0517 6.152 9.0317 5.612V4.242C9.0317 4.102 9.1517 3.982 9.2917 3.982C9.4417 3.982 9.5617 4.102 9.5617 4.242V5.492C9.8517 5.462 10.1517 5.422 10.4517 5.422C10.7717 5.422 11.0817 5.462 11.3917 5.512V4.242C11.3917 4.102 11.5117 3.982 11.6517 3.982C11.8017 3.982 11.9217 4.102 11.9217 4.242V5.632C13.6617 6.142 15.0717 7.572 15.1017 9.692C15.1017 9.942 14.9617 10.112 14.7217 10.112C14.4917 10.112 14.3517 9.942 14.3417 9.692C14.3017 8.102 13.3217 6.882 11.9217 6.382V9.712C11.9217 9.872 11.8017 9.982 11.6517 9.982C11.5117 9.982 11.3917 9.872 11.3917 9.712V6.232C11.0817 6.162 10.7817 6.142 10.4517 6.142C10.1517 6.142 9.8517 6.162 9.5617 6.222V9.712C9.5617 9.872 9.4417 9.982 9.2917 9.982C9.1517 9.982 9.0317 9.872 9.0317 9.712V6.362C7.5617 6.882 6.5117 8.222 6.5117 10.112C6.5117 12.582 8.4917 14.632 11.3517 14.632H14.0417C14.2417 14.632 14.3917 14.782 14.3917 14.972C14.3917 15.172 14.2417 15.302 14.0417 15.302Z" />
        </svg>
    