
        <svg xmlns="http://www.w3.org/2000/svg" viewBox="0 0 100 100">
            <path d="M27.0823 13.4978C27.0823 6.4078 21.6123 0.5678 14.6723 0.0078C14.2923 -0.0422 14.0123 0.2378 14.0123 0.6178V4.0278C14.0123 4.3378 14.2423 4.5878 14.5623 4.6178C19.0123 5.1278 22.4623 8.9078 22.4623 13.4978C22.4623 15.5878 21.7523 17.5278 20.5123 19.0578C20.3123 19.3078 20.3123 19.6078 20.5423 19.8378L22.9823 22.2678C23.2523 22.5178 23.6323 22.5178 23.8823 22.2378C25.8723 19.8778 27.0823 16.8178 27.0823 13.4978ZM0.0023 13.4978C0.0023 16.8378 1.2223 19.9078 3.2223 22.2578C3.4523 22.5378 3.8323 22.5178 4.1023 22.2678L6.5423 19.8378C6.7723 19.6078 6.7723 19.3078 6.5723 19.0578C5.3323 17.5278 4.6123 15.5878 4.6123 13.4978C4.6123 8.9078 8.0723 5.1278 12.5123 4.6178C12.8423 4.5878 13.0623 4.3378 13.0623 4.0278V0.6178C13.0623 0.2378 12.7823 -0.0422 12.4123 0.0078C5.4723 0.5678 0.0023 6.4078 0.0023 13.4978ZM9.3723 18.5478H17.1723C17.3623 18.5478 17.5223 18.4178 17.5223 18.2178C17.5223 18.0178 17.3623 17.8878 17.1723 17.8878H14.5123C11.6623 17.8878 9.7023 15.8478 9.7023 13.3878C9.7023 11.4978 10.7323 10.1778 12.2023 9.6778V12.9978C12.2023 13.1378 12.3123 13.2578 12.4723 13.2578C12.6123 13.2578 12.7223 13.1378 12.7223 12.9978V9.5278C13.0123 9.4778 13.3023 9.4378 13.6023 9.4378C13.9323 9.4378 14.2523 9.4778 14.5423 9.5278V12.9978C14.5423 13.1378 14.6623 13.2578 14.8023 13.2578C14.9523 13.2578 15.0723 13.1378 15.0723 12.9978V9.6878C16.4623 10.1778 17.4423 11.3878 17.4823 12.9678C17.4823 13.2278 17.6223 13.3878 17.8523 13.3878C18.0823 13.3878 18.2323 13.2078 18.2323 12.9678C18.2023 10.8578 16.8023 9.4478 15.0723 8.9478V7.5678C15.0723 7.4278 14.9523 7.3078 14.8023 7.3078C14.6623 7.3078 14.5423 7.4278 14.5423 7.5678V8.8178C14.2423 8.7678 13.9223 8.7378 13.6023 8.7378C13.3023 8.7378 13.0123 8.7578 12.7223 8.8078V7.5678C12.7223 7.4278 12.6123 7.3078 12.4723 7.3078C12.3123 7.3078 12.2023 7.4278 12.2023 7.5678V8.9278C10.2423 9.4578 8.9223 11.1278 8.9223 13.2678C8.9223 15.4278 10.1923 17.1878 11.8823 17.8278V17.8878H9.3723C9.1523 17.8878 9.0123 18.0178 9.0123 18.2178C9.0123 18.4178 9.1523 18.5478 9.3723 18.5478Z" />
        </svg>
    