
        <svg xmlns="http://www.w3.org/2000/svg" viewBox="0 0 100 100">
            <path d="M0.8417 23.0294H16.9917C17.1917 23.0294 17.3217 22.8994 17.3217 22.7194C17.3217 22.5494 17.1917 22.4194 16.9917 22.4194H10.1417C5.6117 22.4194 0.6417 18.7694 0.6417 12.7194C0.6417 8.3794 3.2617 5.2594 6.7417 4.2294V11.8994C6.7417 12.0494 6.8717 12.1894 7.0217 12.1894C7.1817 12.1894 7.3117 12.0494 7.3117 11.8994V4.0794C7.9717 3.9294 8.6517 3.8594 9.3417 3.8594C10.1417 3.8594 10.8917 3.9394 11.6117 4.0894V11.8994C11.6117 12.0494 11.7417 12.1894 11.9017 12.1894C12.0617 12.1894 12.1917 12.0494 12.1917 11.8994V4.2294C15.5517 5.1794 17.8917 7.8894 18.0217 11.9794C18.0317 12.2294 18.1417 12.3294 18.3117 12.3294C18.5117 12.3294 18.6317 12.1894 18.6317 11.9794C18.5517 7.5094 15.9417 4.5694 12.1917 3.6094V0.2894C12.1917 0.1294 12.0617 -0.0006 11.9017 -0.0006C11.7417 -0.0006 11.6117 0.1294 11.6117 0.2894V3.4794C10.8917 3.3394 10.1217 3.2694 9.3417 3.2694C8.6517 3.2694 7.9717 3.3394 7.3117 3.4694V0.2894C7.3117 0.1294 7.1817 -0.0006 7.0217 -0.0006C6.8717 -0.0006 6.7417 0.1294 6.7417 0.2894V3.6094C2.8217 4.6494 0.0017 8.0494 0.0017 12.6894C0.0017 18.8294 4.9617 21.8894 7.0217 22.3594V22.4194H0.8417C0.6317 22.4194 0.5017 22.5494 0.5017 22.7194C0.5017 22.8994 0.6317 23.0294 0.8417 23.0294Z" />
        </svg>
    