
        <svg xmlns="http://www.w3.org/2000/svg" viewBox="0 0 100 100">
            <path d="M1.1417 13.4625C0.5017 13.4625 0.0017 13.9725 0.0017 14.6025C0.0017 15.2325 0.5017 15.7425 1.1417 15.7425H8.8717L3.1217 18.1125C2.5517 18.3625 2.3017 19.0225 2.5317 19.6025C2.7517 20.1825 3.4117 20.4525 4.0117 20.2125L9.7617 17.8325L2.8017 24.7825C2.3517 25.2325 2.3817 25.9425 2.8217 26.3825C3.2617 26.8225 3.9717 26.8325 4.4217 26.3925L11.3517 19.4425L8.9717 25.1925C8.7417 25.7925 9.0117 26.4525 9.5817 26.6825C10.1917 26.9025 10.8517 26.6525 11.0817 26.0725L13.4617 20.3325V28.0625C13.4617 28.7025 13.9717 29.2025 14.6017 29.2025C15.2417 29.2025 15.7517 28.7025 15.7517 28.0625V20.3325L18.1217 26.0825C18.3617 26.6625 19.0317 26.9025 19.6017 26.6725C20.1817 26.4525 20.4517 25.7925 20.2117 25.2225L17.8217 19.4225L24.8117 26.4025C25.2417 26.8325 25.9417 26.8325 26.3917 26.3825C26.8317 25.9425 26.8517 25.2525 26.3917 24.8125L19.4317 17.8325L25.2117 20.2225C25.7817 20.4625 26.4417 20.1825 26.6817 19.6025C26.9217 19.0225 26.6517 18.3725 26.0617 18.1325L20.3017 15.7425H28.0817C28.7117 15.7425 29.2117 15.2325 29.2117 14.6025C29.2117 13.9725 28.7117 13.4625 28.0817 13.4625H20.3417L26.1017 11.0825C26.6617 10.8425 26.9217 10.1825 26.6717 9.6025C26.4517 9.0225 25.7917 8.7525 25.2117 8.9925L19.4417 11.3625L26.4017 4.4025C26.8517 3.9725 26.8517 3.2625 26.3917 2.8125C25.9617 2.3625 25.2417 2.3825 24.8117 2.8125L17.8517 9.7525L20.2417 3.9925C20.4717 3.4125 20.1917 2.7525 19.6217 2.5225C19.0317 2.2825 18.3617 2.5525 18.1217 3.1125L15.7517 8.8625V1.1325C15.7517 0.4925 15.2417 0.0025 14.6017 0.0025C13.9717 0.0025 13.4617 0.4925 13.4617 1.1325V8.8725L11.0817 3.1025C10.8517 2.5425 10.1817 2.2825 9.6117 2.5325C9.0217 2.7525 8.7517 3.3825 8.9917 3.9825L11.3817 9.7725L4.4217 2.7925C3.9717 2.3525 3.2617 2.3625 2.8217 2.8125C2.3817 3.2425 2.3717 3.9525 2.8117 4.3925L9.7817 11.3625L4.0117 8.9625C3.4217 8.7325 2.7817 9.0225 2.5217 9.6025C2.3017 10.1825 2.5617 10.8325 3.1517 11.0725L8.9017 13.4625Z" />
        </svg>
    