
        <svg xmlns="http://www.w3.org/2000/svg" viewBox="0 0 100 100">
            <path d="M0.8317 13.128C0.3617 13.128 0.0017 13.498 0.0017 13.958C0.0017 14.418 0.3617 14.778 0.8317 14.778H9.7817L2.6617 17.728C2.2617 17.908 2.0617 18.378 2.2417 18.808C2.3917 19.228 2.8717 19.418 3.3017 19.258L10.4217 16.308L2.4217 24.298C2.1217 24.618 2.1317 25.138 2.4517 25.468C2.7817 25.778 3.2917 25.768 3.6117 25.468L11.5917 17.498L8.6417 24.608C8.4717 25.048 8.6817 25.528 9.0817 25.688C9.5317 25.848 9.9917 25.648 10.1817 25.238L13.1217 18.118V27.078C13.1217 27.538 13.5017 27.918 13.9617 27.918C14.4117 27.918 14.7817 27.538 14.7817 27.078V18.118L17.7317 25.258C17.9017 25.668 18.4017 25.848 18.8117 25.678C19.2317 25.528 19.4217 25.028 19.2517 24.618L16.3017 17.468L24.3017 25.478C24.6217 25.778 25.1417 25.778 25.4617 25.468C25.7817 25.138 25.7817 24.648 25.4617 24.318L17.4717 16.308L24.6117 19.278C25.0417 19.438 25.5117 19.228 25.6917 18.808C25.8517 18.378 25.6617 17.918 25.2317 17.738L18.0917 14.778H27.0917C27.5617 14.778 27.9117 14.418 27.9117 13.958C27.9117 13.498 27.5617 13.128 27.0917 13.128H18.1217L25.2517 10.168C25.6517 9.998 25.8517 9.528 25.6717 9.108C25.5217 8.688 25.0417 8.488 24.6117 8.648L17.4817 11.598L25.4917 3.608C25.7817 3.288 25.7817 2.778 25.4617 2.448C25.1417 2.128 24.6217 2.148 24.3017 2.448L16.3217 10.418L19.2817 3.308C19.4417 2.868 19.2317 2.388 18.8317 2.228C18.3917 2.058 17.9017 2.258 17.7317 2.658L14.7817 9.788V0.818C14.7817 0.348 14.4117 -0.002 13.9617 -0.002C13.5017 -0.002 13.1217 0.348 13.1217 0.818V9.798L10.1817 2.658C9.9917 2.248 9.5117 2.058 9.1017 2.238C8.6817 2.388 8.4817 2.858 8.6617 3.288L11.6117 10.438L3.6117 2.428C3.2917 2.118 2.7817 2.128 2.4517 2.448C2.1317 2.778 2.1317 3.268 2.4517 3.598L10.4417 11.598L3.3017 8.638C2.8717 8.468 2.4017 8.688 2.2217 9.108C2.0617 9.528 2.2517 9.988 2.6817 10.158L9.8217 13.128Z" />
        </svg>
    