
        <svg xmlns="http://www.w3.org/2000/svg" viewBox="0 0 100 100">
            <path d="M0.0023 10.1962C0.0023 15.4563 4.4723 18.2663 10.0523 18.2663C10.5023 18.2663 10.9523 18.2463 11.4023 18.2063C11.8823 18.4663 12.4923 18.6063 13.1823 18.6063C14.9723 18.6063 16.7823 18.0963 18.3823 17.1963C18.4423 17.4763 18.4823 17.7663 18.4823 18.0863C18.4823 19.6063 17.5823 21.0863 16.1123 21.9363C15.8523 22.1163 15.6723 22.2963 15.6723 22.6263C15.6723 22.9563 15.9223 23.2463 16.3623 23.2463C16.5423 23.2463 16.6923 23.2063 16.8523 23.0963C18.6823 21.9862 19.8423 20.0363 19.8423 18.0363C19.8423 17.4563 19.7623 16.9263 19.5823 16.4162C21.9623 14.6863 23.6223 12.0863 23.6223 9.1962C23.6223 3.7662 18.7623 -0.0038 12.9723 -0.0038C6.6123 -0.0038 0.0023 4.1762 0.0023 10.1962ZM1.3723 10.2063C1.3723 5.0262 7.2923 1.3863 12.9823 1.3863C17.9923 1.3863 22.2523 4.4763 22.2523 9.2063C22.2523 11.5263 20.8923 13.6863 18.9623 15.1763C18.0423 13.8863 16.5023 13.0663 14.7023 13.0663C12.3023 13.0663 10.2223 14.3663 10.2223 16.2763C10.2223 16.4963 10.2423 16.7063 10.3023 16.9063C10.2323 16.9063 10.1623 16.9063 10.0923 16.9063C5.3123 16.9063 1.3723 14.7163 1.3723 10.2063ZM11.6023 16.2463C11.6023 15.1663 13.1823 14.4363 14.8023 14.4363C16.0823 14.4363 17.1723 15.0163 17.8223 15.9363C16.3923 16.7563 14.7623 17.2463 13.1823 17.2463C12.2823 17.2463 11.6023 16.8962 11.6023 16.2463Z" />
        </svg>
    