
        <svg xmlns="http://www.w3.org/2000/svg" viewBox="0 0 100 100">
            <path d="M3.9117 23.7638H24.2217C26.8017 23.7638 28.1517 22.4438 28.1517 19.8838V8.3538C28.1517 5.8038 26.8017 4.4738 24.2217 4.4738H20.3517V3.3038C20.3517 1.0738 19.1217 0.0038 16.8617 0.0038H11.2717C9.0817 0.0038 7.7917 1.0738 7.7917 3.3038V4.4738H3.9117C1.3517 4.4738 0.0017 5.8038 0.0017 8.3538V19.8838C0.0017 22.4438 1.3517 23.7638 3.9117 23.7638ZM10.1517 3.3938C10.1517 2.6038 10.6017 2.1537 11.4217 2.1537H16.7217C17.5417 2.1537 18.0017 2.6038 18.0017 3.3938V4.4738H10.1517ZM22.7117 10.5338C22.7117 9.5838 22.1617 9.0438 21.2117 9.0438H18.3717C17.4217 9.0438 16.8717 9.5838 16.8717 10.5338V10.5538H11.2617V10.5338C11.2617 9.5838 10.7117 9.0438 9.7617 9.0438H6.9217C5.9717 9.0438 5.4217 9.5838 5.4217 10.5338V10.5538H2.6117V8.4138C2.6117 7.4438 3.1217 6.9538 4.0517 6.9538H24.0917C25.0317 6.9538 25.5317 7.4438 25.5317 8.4138V10.5538H22.7117ZM4.0517 21.2938C3.1217 21.2938 2.6117 20.8038 2.6117 19.8238V12.7338H5.4217V12.7638C5.4217 13.7138 5.9717 14.2638 6.9217 14.2638H9.7617C10.7117 14.2638 11.2617 13.7138 11.2617 12.7638V12.7338H16.8717V12.7638C16.8717 13.7138 17.4217 14.2638 18.3717 14.2638H21.2117C22.1617 14.2638 22.7117 13.7138 22.7117 12.7638V12.7338H25.5317V19.8238C25.5317 20.8038 25.0317 21.2938 24.0917 21.2938Z" />
        </svg>
    