
        <svg xmlns="http://www.w3.org/2000/svg" viewBox="0 0 100 100">
            <path d="M1.8534 0.007C1.6434 -0.023 1.5634 0.097 1.5834 0.277C1.6934 0.957 2.0534 1.687 2.4934 2.167C2.9334 2.677 3.6934 3.047 4.3934 3.107C4.5634 3.107 4.6434 3.017 4.6334 2.867C4.5434 2.197 4.1734 1.417 3.7034 0.967C3.2634 0.517 2.5134 0.127 1.8534 0.007ZM7.7934 1.167C7.6934 1.007 7.5434 0.997 7.4234 1.137C6.9934 1.657 6.6834 2.427 6.6434 3.087C6.5834 3.697 6.7834 4.507 7.1534 5.127C7.2534 5.267 7.3934 5.267 7.5234 5.147C7.9934 4.647 8.3234 3.857 8.3434 3.187C8.3934 2.547 8.1534 1.727 7.7934 1.167ZM4.4034 4.797C3.7534 4.677 2.9234 4.757 2.3234 5.017C2.1534 5.087 2.1434 5.257 2.2434 5.397C2.6634 5.897 3.4034 6.327 4.0834 6.487C4.7734 6.657 5.5934 6.557 6.1434 6.187C6.2834 6.107 6.2934 5.967 6.2034 5.877C5.8134 5.397 5.1034 4.957 4.4034 4.797ZM10.3634 5.067C10.2934 4.897 10.1334 4.867 9.9834 4.987C9.5134 5.437 9.1034 6.167 8.9734 6.827C8.8134 7.457 8.8934 8.277 9.2134 8.887C9.2834 9.037 9.4234 9.057 9.5434 8.967C10.0934 8.557 10.5234 7.847 10.6334 7.187C10.7634 6.557 10.6634 5.707 10.3634 5.067ZM6.5034 8.197C5.8934 7.957 5.0634 7.937 4.4434 8.117C4.2834 8.167 4.2234 8.307 4.3034 8.457C4.6134 9.007 5.2734 9.537 5.9534 9.807C6.5734 10.077 7.4334 10.077 8.0634 9.837C8.2034 9.777 8.2534 9.637 8.1534 9.507C7.8034 8.957 7.1534 8.417 6.5034 8.197ZM11.7834 10.507C11.7634 10.317 11.6534 10.257 11.4734 10.327C10.9034 10.547 10.2534 11.077 9.8934 11.667C9.5134 12.257 9.3334 13.077 9.4234 13.707C9.4334 13.867 9.5534 13.947 9.7034 13.897C10.3334 13.717 10.9734 13.197 11.3234 12.587C11.6734 11.947 11.8734 11.117 11.7834 10.507ZM7.1134 12.117C6.6134 11.707 5.8534 11.397 5.1934 11.337C5.0034 11.337 4.9134 11.457 4.9334 11.617C5.1034 12.287 5.5434 13.037 6.0434 13.457C6.5134 13.917 7.3134 14.217 8.0034 14.187C8.1434 14.187 8.2434 14.077 8.2034 13.937C8.0534 13.257 7.6134 12.537 7.1134 12.117ZM5.2134 14.887C5.0334 14.817 4.9134 14.907 4.9134 15.107C4.8734 15.777 5.1134 16.577 5.4834 17.157C5.8534 17.737 6.5434 18.207 7.2034 18.367C7.3834 18.417 7.4734 18.357 7.4934 18.167C7.5234 17.477 7.2834 16.667 6.8834 16.147C6.4434 15.577 5.7934 15.087 5.2134 14.887ZM11.8134 15.787C11.8334 15.587 11.7234 15.487 11.5434 15.517C10.8834 15.627 10.1534 15.987 9.6934 16.437C9.2134 16.867 8.8134 17.597 8.7034 18.287C8.6734 18.447 8.7634 18.557 8.9334 18.537C9.6034 18.507 10.3534 18.177 10.8334 17.697C11.2934 17.217 11.6934 16.457 11.8134 15.787ZM3.5834 17.237C3.4334 17.087 3.3034 17.127 3.2334 17.307C2.9334 17.917 2.8134 18.757 2.9434 19.387C3.0734 20.087 3.5034 20.827 4.0234 21.217C4.1334 21.317 4.2834 21.287 4.3534 21.147C4.6434 20.597 4.7334 19.747 4.5834 19.047C4.4634 18.427 4.0634 17.687 3.5834 17.237ZM1.1934 19.647C1.0934 19.467 0.9434 19.457 0.8134 19.617C0.3734 20.157 0.0634 20.937 0.0134 21.577C-0.0566 22.277 0.1634 23.087 0.5834 23.607C0.6834 23.757 0.8134 23.757 0.9234 23.607C1.3634 23.097 1.6734 22.327 1.7034 21.657C1.7434 21.077 1.5334 20.267 1.1934 19.647ZM7.0434 20.457C6.4334 20.667 5.7834 21.187 5.4034 21.757C5.3134 21.897 5.3534 22.027 5.5134 22.077C6.1134 22.337 6.9634 22.317 7.6334 22.067C8.2434 21.857 8.8934 21.327 9.2734 20.737C9.3534 20.567 9.3134 20.437 9.1534 20.397C8.5534 20.207 7.7034 20.227 7.0434 20.457ZM3.7434 23.627C3.0434 23.687 2.2734 24.017 1.7934 24.457C1.6734 24.577 1.6934 24.717 1.8034 24.797C2.3434 25.217 3.1534 25.437 3.8534 25.337C4.5134 25.297 5.2734 24.957 5.7934 24.467C5.9334 24.347 5.9034 24.187 5.7234 24.087C5.1934 23.757 4.3834 23.577 3.7434 23.627Z" />
        </svg>
    