
        <svg xmlns="http://www.w3.org/2000/svg" viewBox="0 0 100 100">
            <path d="M10.0596 0.0094C9.3996 0.1094 8.6296 0.5094 8.1496 0.9794C7.6696 1.4594 7.2896 2.2494 7.1996 2.9294C7.1796 3.1394 7.2996 3.2694 7.5096 3.2594C8.2196 3.2094 9.0096 2.8294 9.4796 2.3094C9.9496 1.8094 10.3096 1.0394 10.4196 0.3494C10.4496 0.1094 10.3196 -0.0406 10.0596 0.0094ZM4.0596 1.1794C3.6696 1.7694 3.4296 2.6094 3.4796 3.2794C3.4996 3.9694 3.8396 4.7694 4.3496 5.2894C4.4996 5.4294 4.6896 5.4194 4.7996 5.2494C5.1896 4.6494 5.4096 3.8094 5.3496 3.1494C5.3096 2.4794 4.9796 1.6794 4.5396 1.1594C4.3796 0.9694 4.1896 0.9794 4.0596 1.1794ZM7.4996 4.7894C6.7896 4.9294 6.0596 5.3794 5.6296 5.8894C5.5096 6.0394 5.5396 6.2194 5.7196 6.3294C6.2996 6.6994 7.1696 6.8094 7.8596 6.6194C8.5496 6.4694 9.2996 6.0194 9.7396 5.5094C9.8896 5.3294 9.8496 5.1294 9.6296 5.0194C9.0196 4.7594 8.1696 4.6594 7.4996 4.7894ZM1.4696 5.0794C1.1596 5.7294 1.0496 6.5894 1.1796 7.2494C1.3096 7.9494 1.7596 8.6894 2.3296 9.0994C2.4796 9.2294 2.6596 9.1794 2.7496 8.9994C3.0696 8.3894 3.1596 7.5294 3.0096 6.8594C2.8696 6.1794 2.4396 5.4494 1.9496 4.9894C1.7696 4.8394 1.5796 4.8694 1.4696 5.0794ZM5.3796 8.1794C4.7196 8.3994 4.0396 8.9394 3.6696 9.5194C3.5596 9.6994 3.6196 9.8794 3.8096 9.9594C4.4496 10.2294 5.3296 10.2294 5.9896 9.9494C6.6696 9.6894 7.3496 9.1394 7.6896 8.5494C7.7996 8.3594 7.7296 8.1894 7.5096 8.1094C6.8496 7.9194 6.0096 7.9394 5.3796 8.1794ZM0.0196 10.5594C-0.0604 11.2094 0.1396 12.0594 0.4996 12.6794C0.8496 13.3094 1.5296 13.8494 2.1896 14.0394C2.3896 14.0894 2.5396 13.9894 2.5596 13.7794C2.6496 13.1194 2.4596 12.2794 2.0796 11.6694C1.7096 11.0794 1.0496 10.5394 0.4396 10.2994C0.2196 10.1994 0.0396 10.2994 0.0196 10.5594ZM4.7396 12.1094C4.1996 12.5494 3.7596 13.2894 3.6196 13.9694C3.5796 14.1694 3.6896 14.3094 3.8896 14.3194C4.5996 14.3394 5.4196 14.0394 5.9296 13.5594C6.4496 13.1194 6.8996 12.3594 7.0596 11.6794C7.0996 11.4594 6.9696 11.3094 6.7396 11.3094C6.0396 11.3594 5.2596 11.6794 4.7396 12.1094ZM6.6896 14.8694C6.0696 15.0794 5.3796 15.5794 4.9696 16.1494C4.5596 16.6794 4.3096 17.5094 4.3496 18.2194C4.3596 18.4294 4.4996 18.5394 4.7096 18.4894C5.3996 18.3294 6.1096 17.8294 6.4896 17.2394C6.8796 16.6494 7.1196 15.8194 7.0896 15.1394C7.0896 14.8894 6.9196 14.7694 6.6896 14.8694ZM0.0096 15.8294C0.0996 16.5094 0.5096 17.2894 1.0096 17.7894C1.4996 18.2894 2.2796 18.6294 2.9896 18.6494C3.1996 18.6694 3.3096 18.5394 3.2896 18.3294C3.1696 17.6194 2.7596 16.8594 2.2696 16.4194C1.7796 15.9494 1.0196 15.5694 0.3396 15.4894C0.0996 15.4494 -0.0404 15.5894 0.0096 15.8294ZM8.2796 17.2094C7.7896 17.6694 7.3696 18.4194 7.2396 19.0594C7.0996 19.7694 7.1896 20.6294 7.4996 21.2194C7.5896 21.4094 7.7696 21.4494 7.9296 21.3294C8.4796 20.9194 8.9296 20.1694 9.0596 19.4494C9.1896 18.7794 9.0696 17.9294 8.7596 17.3094C8.6596 17.0694 8.4696 17.0394 8.2796 17.2094ZM10.6696 19.6294C10.3196 20.2094 10.0996 21.0394 10.1296 21.6894C10.1796 22.3794 10.4996 23.1894 10.9396 23.6994C11.0996 23.8694 11.2596 23.8694 11.3896 23.6894C11.8296 23.1494 12.0696 22.3094 11.9996 21.5994C11.9496 20.9294 11.6196 20.1294 11.1696 19.5894C10.9996 19.3894 10.8096 19.4194 10.6696 19.6294ZM4.8796 20.4094C4.2296 20.1794 3.3596 20.1494 2.7296 20.3494C2.5096 20.4194 2.4496 20.5994 2.5596 20.8094C2.9396 21.4094 3.6296 21.9494 4.2596 22.1794C4.9196 22.4394 5.7996 22.4394 6.4396 22.1694C6.6396 22.0994 6.6996 21.9294 6.5796 21.7494C6.2096 21.1594 5.5296 20.6294 4.8796 20.4094ZM8.1896 23.5894C7.5196 23.5294 6.6896 23.7194 6.1296 24.0694C5.8996 24.1994 5.8696 24.3794 6.0696 24.5594C6.5796 25.0394 7.3796 25.3894 8.0496 25.4394C8.7596 25.5294 9.6096 25.3194 10.1696 24.8894C10.3296 24.7694 10.3496 24.5994 10.1896 24.4394C9.6896 23.9694 8.8796 23.6294 8.1896 23.5894Z" />
        </svg>
    