
        <svg xmlns="http://www.w3.org/2000/svg" viewBox="0 0 100 100">
            <path d="M8.7317 19.2538H16.8317C23.0717 19.2538 25.5617 16.3138 25.5617 10.5938V3.0337C25.5617 1.0738 24.4917 0.0038 22.5117 0.0038H3.0317C1.0517 0.0038 0.0017 1.0538 0.0017 3.0337V10.5938C0.0017 16.3138 2.4817 19.2538 8.7317 19.2538ZM8.1417 14.3838C7.8717 14.3838 7.6917 14.1938 7.6917 13.8938V5.2338C7.6917 5.0038 7.9117 4.7937 8.1517 4.7937C8.4017 4.7937 8.6117 5.0038 8.6117 5.2338V13.5738H11.6917C11.9017 13.5738 12.0917 13.7538 12.0917 13.9638C12.0917 14.1938 11.9017 14.3838 11.6917 14.3838ZM13.8617 14.3938C13.5817 14.3938 13.4217 14.1938 13.4217 13.9138V5.4038C13.4217 5.1237 13.5717 4.9238 13.8617 4.9238H16.1017C17.4717 4.9238 18.3317 5.8938 18.3317 7.2538C18.3317 8.2338 17.7617 9.2338 16.9117 9.4138V9.4538C18.0617 9.5938 18.6717 10.6438 18.6717 11.8137C18.6717 13.3438 17.7517 14.3938 16.1517 14.3938ZM14.3117 9.1538H15.7417C16.8117 9.1538 17.4217 8.4338 17.4217 7.3738C17.4217 6.3737 16.9017 5.7037 15.8817 5.7037H14.3117ZM14.3117 13.6138H15.9517C17.1117 13.6138 17.7417 12.9138 17.7417 11.7538C17.7417 10.5438 17.0417 9.8837 15.8717 9.8837H14.3117Z" />
        </svg>
    