
        <svg xmlns="http://www.w3.org/2000/svg" viewBox="0 0 100 100">
            <path d="M11.4923 22.977C17.8323 22.977 22.9823 17.847 22.9823 11.497C22.9823 5.147 17.8323 -0.003 11.4923 -0.003C5.1423 -0.003 0.0023 5.147 0.0023 11.497C0.0023 17.847 5.1423 22.977 11.4923 22.977ZM11.4923 22.087C5.6323 22.087 0.8923 17.357 0.8923 11.497C0.8923 5.637 5.6323 0.887 11.4923 0.887C17.3523 0.887 22.0923 5.637 22.0923 11.497C22.0923 17.357 17.3523 22.087 11.4923 22.087ZM6.8323 16.247H10.3923C10.6023 16.247 10.7923 16.057 10.7923 15.827C10.7923 15.617 10.6023 15.437 10.3923 15.437H7.3023V7.077C7.3023 6.847 7.0923 6.637 6.8523 6.637C6.6023 6.637 6.3823 6.847 6.3823 7.077V15.747C6.3823 16.057 6.5723 16.247 6.8323 16.247ZM12.5523 16.257H14.8523C16.4523 16.257 17.3823 15.197 17.3823 13.667C17.3823 12.497 16.7623 11.447 15.6123 11.307V11.257C16.4623 11.087 17.0323 10.077 17.0323 9.097C17.0323 7.747 16.1823 6.777 14.8023 6.777H12.5523C12.2723 6.777 12.1123 6.977 12.1123 7.247V15.777C12.1123 16.047 12.2823 16.257 12.5523 16.257ZM13.0123 11.007V7.537H14.5823C15.6123 7.537 16.1223 8.217 16.1223 9.207C16.1223 10.287 15.5323 11.007 14.4523 11.007ZM13.0123 15.477V11.727H14.5623C15.7423 11.727 16.4523 12.397 16.4523 13.607C16.4523 14.767 15.8223 15.477 14.6523 15.477Z" />
        </svg>
    