
        <svg xmlns="http://www.w3.org/2000/svg" viewBox="0 0 100 100">
            <path d="M12.7923 27.3721C19.8723 27.3721 25.6023 21.6221 25.6023 14.5721C25.6023 11.4321 24.4023 8.1421 22.0223 5.7121C20.9623 4.6321 19.6623 4.6821 18.8523 5.5021C17.9423 6.4521 18.2223 7.6921 19.0823 8.6721C20.6023 10.3521 21.4323 12.2721 21.4323 14.5721C21.4323 19.3421 17.5623 23.1921 12.7923 23.1921C8.0323 23.1921 4.1723 19.3421 4.1723 14.5721C4.1723 10.8721 6.4823 7.7421 9.7423 6.4921V7.2921C9.7423 8.3121 10.7623 8.5521 11.4523 8.0121L15.4823 4.8521C15.9423 4.4921 15.9423 3.8021 15.4823 3.4521L11.4523 0.2821C10.7623 -0.2679 9.7423 -0.0179 9.7423 1.0121V2.1521C4.1523 3.5121 0.0023 8.5721 0.0023 14.5721C0.0023 21.6221 5.7323 27.3721 12.7923 27.3721ZM7.3523 11.1821C7.2523 11.6621 7.1823 12.3321 7.1823 12.7821C7.1823 16.4721 9.4223 18.9021 12.8123 18.9021C14.4023 18.9021 15.3523 18.2621 15.9123 17.7121C16.2423 18.2521 16.3923 18.7821 16.6523 19.5021C16.7323 19.7521 16.9323 19.9021 17.1823 19.9021C17.6223 19.9021 17.9723 19.5121 17.9723 19.0221C17.9723 18.3321 16.9423 17.1421 16.4423 16.6721C14.2223 14.5921 10.9123 15.9021 10.2023 13.7721C10.1723 13.6821 10.2523 13.6321 10.3223 13.6921C12.2923 15.1821 14.2923 14.0421 16.2223 15.8621C16.4923 16.1021 16.8423 15.9921 16.9123 15.6821C16.9323 15.5521 16.9323 15.3521 16.9323 15.1321C16.9323 12.8121 15.3823 11.4421 12.8323 11.4421C12.0323 11.4421 11.0823 11.6621 10.3923 11.6621C9.6823 11.6621 8.9023 11.6321 8.1923 10.9521C7.8723 10.6421 7.4323 10.7421 7.3523 11.1821Z" />
        </svg>
    