
        <svg xmlns="http://www.w3.org/2000/svg" viewBox="0 0 100 100">
            <path d="M11.3523 22.7064C17.6023 22.7064 22.7123 17.6064 22.7123 11.3564C22.7123 5.1064 17.6023 -0.0036 11.3523 -0.0036C5.1123 -0.0036 0.0023 5.1064 0.0023 11.3564C0.0023 17.6064 5.1123 22.7064 11.3523 22.7064ZM14.3123 13.3564C14.2123 13.3564 14.1823 13.3264 14.0823 13.2764L7.5923 10.1164C7.4523 10.0464 7.3723 9.9164 7.3723 9.7464C7.3723 9.5964 7.4523 9.4664 7.5923 9.3964L14.0823 6.2364C14.1823 6.1864 14.2123 6.1564 14.3123 6.1564C14.4923 6.1564 14.6223 6.2664 14.6223 6.4564C14.6223 6.6064 14.5523 6.7264 14.3923 6.7964L8.1723 9.7264V9.7864L14.3923 12.7164C14.5523 12.7864 14.6223 12.9064 14.6223 13.0564C14.6223 13.2464 14.4923 13.3564 14.3123 13.3564ZM7.3823 16.3464C7.3823 16.1964 7.5123 16.0664 7.6623 16.0664H14.5323C14.6823 16.0664 14.8123 16.1964 14.8123 16.3464C14.8123 16.5164 14.6823 16.6364 14.5323 16.6364H7.6623C7.5123 16.6364 7.3823 16.5164 7.3823 16.3464Z" />
        </svg>
    