
        <svg xmlns="http://www.w3.org/2000/svg" viewBox="0 0 100 100">
            <path d="M3.1617 20.742H17.5917C19.6617 20.742 20.7417 19.642 20.7417 17.592V3.152C20.7417 1.102 19.6617 0.002 17.5917 0.002H3.1617C1.0917 0.002 0.0017 1.082 0.0017 3.152V17.592C0.0017 19.662 1.0917 20.742 3.1617 20.742ZM13.2317 14.622C13.1117 14.622 13.0417 14.592 12.9417 14.532L6.2917 10.902C6.0717 10.782 5.9617 10.622 5.9617 10.382C5.9617 10.162 6.0717 9.982 6.2917 9.872L12.9417 6.202C13.0417 6.142 13.1117 6.102 13.2417 6.102C13.5117 6.102 13.7117 6.292 13.7117 6.562C13.7117 6.772 13.6017 6.912 13.3717 7.042L7.1817 10.352V10.402L13.3717 13.702C13.6017 13.812 13.7117 13.952 13.7117 14.172C13.7117 14.442 13.5117 14.622 13.2317 14.622Z" />
        </svg>
    