
        <svg xmlns="http://www.w3.org/2000/svg" viewBox="0 0 100 100">
            <path d="M11.4923 22.977C17.8123 22.977 22.9823 17.827 22.9823 11.497C22.9823 5.167 17.8123 -0.003 11.4923 -0.003C5.1723 -0.003 0.0023 5.167 0.0023 11.497C0.0023 17.827 5.1723 22.977 11.4923 22.977ZM14.3423 15.747C14.2223 15.747 14.1523 15.717 14.0523 15.657L7.4023 12.027C7.1823 11.907 7.0823 11.747 7.0823 11.507C7.0823 11.287 7.1823 11.107 7.4023 10.997L14.0523 7.327C14.1523 7.267 14.2223 7.227 14.3523 7.227C14.6223 7.227 14.8223 7.417 14.8223 7.687C14.8223 7.897 14.7223 8.037 14.4823 8.167L8.2923 11.477V11.527L14.4823 14.827C14.7223 14.937 14.8223 15.077 14.8223 15.297C14.8223 15.567 14.6223 15.747 14.3423 15.747Z" />
        </svg>
    