
        <svg xmlns="http://www.w3.org/2000/svg" viewBox="0 0 100 100">
            <path d="M13.7017 16.4923C15.1917 16.4923 16.1017 15.2223 16.1017 13.7323C16.1017 12.4023 15.5817 11.5923 14.0617 10.9923L7.0917 8.2223V8.1023L14.0517 5.2723C15.4417 4.7223 16.1017 3.9423 16.1017 2.6723C16.1017 1.1723 15.0517 0.0023 13.5517 0.0023C12.8717 0.0023 12.2017 0.1623 11.6217 0.4523L2.7117 4.7723C0.9617 5.6223 0.0017 6.5423 0.0017 8.2123C0.0017 9.9123 0.9517 10.8523 2.7117 11.7023L11.6217 15.9823C12.2617 16.3023 12.9717 16.4923 13.7017 16.4923ZM0.0017 21.2823C0.0017 22.7823 1.0117 23.7923 2.5117 23.7923H13.8117C15.3017 23.7923 16.3117 22.7823 16.3117 21.2823C16.3117 19.7923 15.3017 18.7823 13.8117 18.7823H2.5117C1.0117 18.7823 0.0017 19.7923 0.0017 21.2823Z" />
        </svg>
    