
        <svg xmlns="http://www.w3.org/2000/svg" viewBox="0 0 100 100">
            <path d="M2.7217 10.9219H5.0017V0.0019H2.7217C1.0217 0.0019 0.0017 1.0219 0.0017 2.7219V8.2019C0.0017 9.9019 1.0217 10.9219 2.7217 10.9219ZM5.5917 10.9219H21.4617V0.0019H19.5517C19.2317 3.1419 16.8317 5.1219 13.5317 5.1219C10.2617 5.1219 7.8517 3.1419 7.5117 0.0019H5.5917ZM22.0417 10.9219H24.3317C26.0317 10.9219 27.0517 9.9019 27.0517 8.2019V2.7219C27.0517 1.0219 26.0317 0.0019 24.3317 0.0019H22.0417ZM13.5317 4.5319C16.4517 4.5319 18.6217 2.7919 18.9617 0.0019H16.8617C16.7117 1.7319 15.3617 2.8819 13.5317 2.8819C11.6917 2.8819 10.3517 1.7319 10.2117 0.0019H8.1017C8.4417 2.7919 10.6017 4.5319 13.5317 4.5319Z" />
        </svg>
    