
        <svg xmlns="http://www.w3.org/2000/svg" viewBox="0 0 100 100">
            <path d="M2.7217 10.9219H24.3317C26.0317 10.9219 27.0517 9.9019 27.0517 8.2019V2.7219C27.0517 1.0219 26.0317 0.0019 24.3317 0.0019H2.7217C1.0217 0.0019 0.0017 1.0219 0.0017 2.7219V8.2019C0.0017 9.9019 1.0217 10.9219 2.7217 10.9219ZM2.7417 10.3519C1.3717 10.3519 0.5717 9.5619 0.5717 8.1819V2.7419C0.5717 1.3619 1.3717 0.5719 2.7417 0.5719H5.0017V10.3519ZM13.5317 5.4919C16.7417 5.4919 19.1217 3.6019 19.5217 0.5719H21.4617V10.3519H5.5917V0.5719H7.5317C7.9617 3.6019 10.3317 5.4919 13.5317 5.4919ZM13.5317 3.2619C15.2917 3.2619 16.6017 2.2019 16.8417 0.5719H18.9217C18.5117 3.2419 16.3817 4.9119 13.5317 4.9119C10.6717 4.9119 8.5417 3.2419 8.1317 0.5719H10.2217C10.4517 2.2019 11.7617 3.2619 13.5317 3.2619ZM24.3017 0.5719C25.6717 0.5719 26.4717 1.3619 26.4717 2.7419V8.1819C26.4717 9.5619 25.6717 10.3519 24.3017 10.3519H22.0417V0.5719Z" />
        </svg>
    