
        <svg xmlns="http://www.w3.org/2000/svg" viewBox="0 0 100 100">
            <path d="M2.8217 11.3211H4.9617V0.0011H2.8117C1.0317 0.0011 0.0017 1.0311 0.0017 2.8111V8.5111C0.0017 10.2911 1.0317 11.3211 2.8217 11.3211ZM5.6617 11.3211H21.7517V0.0011H19.8117C19.5117 3.1911 17.0617 5.2111 13.7217 5.2111C10.3917 5.2111 7.9317 3.1911 7.6017 0.0011H5.6617ZM22.4617 11.3211H24.5817C26.3817 11.3211 27.4017 10.2911 27.4117 8.5111V2.8111C27.4117 1.0311 26.3817 0.0011 24.6017 0.0011H22.4617ZM13.7217 4.5211C16.6217 4.5211 18.7717 2.7611 19.0817 0.0011H17.0417C16.8917 1.7311 15.5517 2.8911 13.7217 2.8911C11.8817 2.8911 10.5317 1.7311 10.3817 0.0011H8.3417C8.6517 2.7611 10.8017 4.5211 13.7217 4.5211Z" />
        </svg>
    