
        <svg xmlns="http://www.w3.org/2000/svg" viewBox="0 0 100 100">
            <path d="M3.1617 18.497H26.1217C28.2117 18.497 29.2817 17.387 29.2817 15.347V3.157C29.2817 1.097 28.2117 -0.003 26.1217 -0.003H3.1617C1.0917 -0.003 0.0017 1.077 0.0017 3.157V15.347C0.0017 17.417 1.0917 18.497 3.1617 18.497ZM17.6017 13.727C17.3817 13.727 17.2017 13.607 17.2017 13.357C17.2017 13.247 17.2217 13.147 17.3317 12.987L19.3217 9.737C19.9017 8.837 20.2717 7.827 20.2717 7.047C20.2717 6.007 19.8417 5.367 19.1217 5.367C18.2117 5.367 18.0517 6.327 17.9417 7.097C17.9017 7.337 17.7817 7.467 17.5617 7.467C17.3417 7.467 17.2017 7.317 17.2017 7.077C17.2017 6.277 17.6517 4.637 19.1217 4.637C20.3117 4.637 21.0517 5.567 21.0517 7.017C21.0517 7.947 20.5817 9.127 19.9617 10.127L18.1717 13.007H20.8817C21.0817 13.007 21.2217 13.157 21.2217 13.357C21.2217 13.567 21.0817 13.727 20.8817 13.727ZM24.2717 13.847C22.7217 13.847 22.0917 12.397 22.0917 11.557C22.0917 11.327 22.2217 11.167 22.4617 11.167C22.6917 11.167 22.7717 11.347 22.8117 11.547C23.0017 12.587 23.5217 13.137 24.2717 13.137C25.2517 13.137 25.5817 12.187 25.5817 11.217C25.5817 10.127 25.1217 9.437 24.0717 9.437H23.5917C23.3917 9.437 23.2417 9.277 23.2417 9.067C23.2417 8.867 23.3917 8.727 23.5917 8.727H24.0717C25.0117 8.727 25.3517 7.837 25.3517 6.997C25.3517 6.067 24.9817 5.357 24.1717 5.357C23.4117 5.357 23.0417 6.117 22.9417 6.907C22.9217 7.137 22.7717 7.287 22.5717 7.287C22.3617 7.287 22.2317 7.137 22.2317 6.907C22.2317 5.887 22.9117 4.637 24.1717 4.637C25.4317 4.637 26.1117 5.637 26.1117 6.977C26.1117 7.757 25.8717 8.547 25.1617 9.027C26.0117 9.327 26.3717 10.277 26.3717 11.217C26.3717 12.577 25.6917 13.847 24.2717 13.847ZM2.9917 13.827C2.7517 13.827 2.6017 13.677 2.6017 13.467C2.6017 13.387 2.6117 13.297 2.6417 13.227L4.5517 5.147C4.6017 4.847 4.7917 4.677 5.0617 4.677C5.3817 4.677 5.5417 4.867 5.6117 5.137L7.5317 13.267C7.5517 13.337 7.5617 13.407 7.5617 13.467C7.5617 13.657 7.4217 13.827 7.1717 13.827C6.9517 13.827 6.8217 13.687 6.7817 13.497L6.2417 11.117H3.9217L3.3717 13.497C3.3117 13.707 3.2117 13.827 2.9917 13.827ZM15.8217 13.817C15.6117 13.817 15.4317 13.637 15.4317 13.417V5.767L14.3817 6.687C14.3117 6.757 14.2217 6.807 14.1317 6.807C13.9617 6.807 13.8017 6.677 13.8017 6.477C13.8017 6.377 13.8617 6.267 13.9717 6.167L15.3517 4.887C15.4917 4.757 15.6117 4.697 15.7817 4.697C16.0317 4.697 16.2217 4.867 16.2217 5.117V13.417C16.2217 13.637 16.0417 13.817 15.8217 13.817ZM9.0617 13.827C8.8217 13.827 8.6717 13.677 8.6717 13.417V5.187C8.6717 4.947 8.8217 4.777 9.0517 4.777H10.6717C12.1517 4.777 12.9117 6.097 12.9117 7.567C12.9117 9.067 12.1017 10.327 10.6417 10.327H9.4417V13.417C9.4417 13.677 9.2917 13.827 9.0617 13.827ZM9.4417 9.647H10.5117C11.6117 9.647 12.1217 8.697 12.1217 7.567C12.1217 6.417 11.6417 5.477 10.5117 5.477H9.4417ZM4.0517 10.437H6.1017L5.0817 6.027Z" />
        </svg>
    