
        <svg xmlns="http://www.w3.org/2000/svg" viewBox="0 0 100 100">
            <path d="M3.6817 19.3372H26.0517C28.5117 19.3372 29.7317 18.1172 29.7317 15.7072V3.6372C29.7317 1.2172 28.5117 -0.0028 26.0517 -0.0028H3.6817C1.2317 -0.0028 0.0017 1.2072 0.0017 3.6372V15.7072C0.0017 18.1172 1.2317 19.3372 3.6817 19.3372ZM3.7017 17.4472C2.5317 17.4472 1.8917 16.8172 1.8917 15.5972V3.7272C1.8917 2.5072 2.5317 1.8872 3.7017 1.8872H26.0317C27.1717 1.8872 27.8417 2.5072 27.8417 3.7272V15.5972C27.8417 16.8172 27.1717 17.4472 26.0317 17.4472ZM18.0717 13.4572H20.8617C21.1617 13.4572 21.4317 13.1672 21.4317 12.8472C21.4317 12.5072 21.1617 12.2472 20.8617 12.2472H19.1017L20.2117 10.6072C20.8017 9.7872 21.3317 8.8972 21.3317 7.9072C21.3317 6.6172 20.6017 5.7172 19.3617 5.7172C18.1717 5.7172 17.4117 6.9272 17.4117 7.7672C17.4117 8.1172 17.6517 8.4072 18.0217 8.4072C18.3717 8.4072 18.5717 8.2072 18.6717 7.7972C18.7717 7.2872 18.9417 6.9172 19.3517 6.9172C19.8017 6.9172 19.9917 7.3572 19.9917 7.9372C19.9917 8.5972 19.6317 9.3072 19.0917 10.0872L17.6917 12.1672C17.4717 12.4772 17.4217 12.6572 17.4217 12.8272C17.4217 13.2172 17.7117 13.4572 18.0717 13.4572ZM24.1317 13.5972C25.4317 13.5972 26.2717 12.5972 26.2717 11.3072C26.2717 10.4872 25.9317 9.7472 25.2917 9.4872C25.7717 9.1672 26.0817 8.4972 26.0817 7.8172C26.0817 6.7572 25.4417 5.7372 24.0817 5.7372C22.9617 5.7372 22.1117 6.5972 22.1117 7.6772C22.1117 8.0272 22.3617 8.2872 22.7117 8.2872C23.0417 8.2872 23.2617 8.1172 23.3717 7.7772C23.4917 7.2572 23.7117 6.9272 24.0817 6.9272C24.5117 6.9272 24.7617 7.3172 24.7617 7.9172C24.7617 8.4772 24.5317 9.0072 23.9317 9.0072H23.7217C23.3917 9.0072 23.1517 9.2472 23.1517 9.5672C23.1517 9.8872 23.3917 10.1372 23.7217 10.1372H23.9317C24.6317 10.1372 24.9017 10.5272 24.9017 11.2772C24.9017 11.9372 24.6717 12.3872 24.1317 12.3872C23.7217 12.3872 23.4217 12.1172 23.2717 11.5172C23.1917 11.2972 23.0317 11.0272 22.6517 11.0272C22.2117 11.0272 22.0117 11.3672 22.0117 11.6572C22.0117 12.3972 22.6417 13.5972 24.1317 13.5972ZM3.9517 13.5572C4.3317 13.5572 4.5817 13.2972 4.6417 12.9372L4.9117 11.6872H6.4817L6.7417 12.9472C6.8117 13.3372 7.0417 13.5572 7.4417 13.5572C7.8317 13.5572 8.1017 13.2672 8.1017 12.8772C8.1017 12.7772 8.0817 12.5972 8.0617 12.5072L6.6817 6.5972C6.5717 6.0972 6.2317 5.7772 5.6617 5.7772C5.1717 5.7772 4.8317 6.0572 4.7017 6.6072L3.3317 12.4872C3.3017 12.5972 3.2717 12.7572 3.2717 12.8772C3.2717 13.2672 3.5017 13.5572 3.9517 13.5572ZM15.8317 13.5372C16.2517 13.5372 16.5517 13.2172 16.5517 12.7972V6.5472C16.5517 6.1172 16.2217 5.7872 15.7717 5.7872C15.4617 5.7872 15.2017 5.9172 14.8617 6.1872L14.0017 6.9372C13.8117 7.0972 13.6917 7.2972 13.6917 7.4872C13.6917 7.8072 13.9317 8.0372 14.2417 8.0372C14.3517 8.0372 14.5117 7.9772 14.6017 7.9072L15.1517 7.4572V12.7972C15.1517 13.2172 15.4317 13.5372 15.8317 13.5372ZM9.4817 13.5572C9.9017 13.5572 10.1617 13.2972 10.1617 12.8572V10.9872H10.9417C12.2717 10.9872 13.0817 9.8872 13.0817 8.4472C13.0817 7.1572 12.4017 5.8872 11.0417 5.8872H9.4817C9.0317 5.8872 8.8117 6.1972 8.8117 6.5872V12.8572C8.8117 13.2972 9.0617 13.5572 9.4817 13.5572ZM10.1617 9.9172V6.9772H10.6917C11.4517 6.9772 11.7117 7.6772 11.7117 8.4472C11.7117 9.2372 11.4217 9.9172 10.6917 9.9172ZM5.0617 10.5972L5.6817 7.5972L6.3117 10.5972Z" />
        </svg>
    