
        <svg xmlns="http://www.w3.org/2000/svg" viewBox="0 0 100 100">
            <path d="M11.7523 23.5031C18.2323 23.5031 23.5123 18.2331 23.5123 11.7531C23.5123 5.2731 18.2323 0.0031 11.7523 0.0031C5.2723 0.0031 0.0023 5.2731 0.0023 11.7531C0.0023 18.2331 5.2723 23.5031 11.7523 23.5031ZM3.6523 5.5231C4.1823 4.8031 4.8123 4.1631 5.5223 3.6331L8.1223 6.2331C7.3823 6.7131 6.7423 7.3631 6.2423 8.0931ZM19.8423 5.5531L17.2523 8.1431C16.7723 7.3931 16.1223 6.7631 15.3723 6.2731L17.9723 3.6631C18.6923 4.2031 19.3123 4.8431 19.8423 5.5531ZM11.7523 16.5431C9.0923 16.5431 6.9523 14.4031 6.9523 11.7431C6.9523 9.0831 9.0923 6.9331 11.7523 6.9331C14.4123 6.9331 16.5623 9.0831 16.5623 11.7431C16.5623 14.4031 14.4123 16.5431 11.7523 16.5431ZM19.8623 17.9131C19.3323 18.6331 18.7023 19.2631 17.9923 19.8031L15.4023 17.2031C16.1323 16.7231 16.7823 16.0731 17.2623 15.3231ZM3.6723 17.9531L6.2723 15.3731C6.7523 16.1131 7.3923 16.7531 8.1323 17.2431L5.5423 19.8431C4.8323 19.3131 4.1923 18.6631 3.6723 17.9531Z" />
        </svg>
    