
        <svg xmlns="http://www.w3.org/2000/svg" viewBox="0 0 100 100">
            <path d="M12.7923 25.5961C19.8723 25.5961 25.6023 19.8661 25.6023 12.7961C25.6023 5.7261 19.8723 -0.0039 12.7923 -0.0039C5.7323 -0.0039 0.0023 5.7261 0.0023 12.7961C0.0023 19.8661 5.7323 25.5961 12.7923 25.5961ZM4.3623 7.6561C5.1523 6.3061 6.2823 5.1561 7.6323 4.3461L10.0923 6.8161C8.6723 7.4961 7.5023 8.6861 6.8223 10.1161ZM21.2623 7.6561L18.7723 10.1161C18.0923 8.6861 16.9323 7.4961 15.5023 6.8161L17.9723 4.3461C19.3223 5.1561 20.4523 6.3061 21.2623 7.6561ZM12.8223 16.4061C10.7923 16.4061 9.1723 14.7861 9.1723 12.7861C9.1723 10.7461 10.7923 9.1261 12.8223 9.1261C14.8323 9.1261 16.4523 10.7461 16.4523 12.7861C16.4523 14.7861 14.8523 16.4061 12.8223 16.4061ZM21.2623 17.8961C20.4523 19.2461 19.3223 20.4061 17.9723 21.2061L15.5023 18.7261C16.9323 18.0461 18.0923 16.8761 18.7723 15.4361ZM4.3623 17.8961L6.8223 15.4361C7.5023 16.8761 8.6723 18.0461 10.0923 18.7261L7.6323 21.2061C6.2823 20.4061 5.1523 19.2461 4.3623 17.8961Z" />
        </svg>
    