
        <svg xmlns="http://www.w3.org/2000/svg" viewBox="0 0 100 100">
            <path d="M12.6023 25.1969C19.5623 25.1969 25.2023 19.5569 25.2023 12.5969C25.2023 5.6369 19.5623 -0.0031 12.6023 -0.0031C5.6523 -0.0031 0.0023 5.6369 0.0023 12.5969C0.0023 19.5569 5.6523 25.1969 12.6023 25.1969ZM4.2523 7.2769C5.0023 6.0469 6.0223 5.0069 7.2523 4.2469L9.6923 6.6769C8.4023 7.3269 7.3223 8.4069 6.6823 9.7069ZM20.9523 7.2869L18.5123 9.7169C17.8723 8.4169 16.8023 7.3369 15.5123 6.6769L17.9423 4.2469C19.1723 5.0069 20.2023 6.0569 20.9523 7.2869ZM12.6123 16.3669C10.5023 16.3669 8.8123 14.6869 8.8123 12.5869C8.8123 10.4669 10.5023 8.7769 12.6123 8.7769C14.7323 8.7769 16.4223 10.4669 16.4223 12.5869C16.4223 14.6869 14.7423 16.3669 12.6123 16.3669ZM20.9523 17.8669C20.2023 19.0969 19.1723 20.1469 17.9423 20.9069L15.5123 18.4669C16.8023 17.8269 17.8723 16.7469 18.5123 15.4469ZM4.2523 17.8669L6.6823 15.4469C7.3323 16.7469 8.4023 17.8269 9.6923 18.4669L7.2523 20.9169C6.0323 20.1569 5.0023 19.0969 4.2523 17.8669Z" />
        </svg>
    