
        <svg xmlns="http://www.w3.org/2000/svg" viewBox="0 0 100 100">
            <path d="M11.4923 22.9836C17.8123 22.9836 22.9823 17.8136 22.9823 11.4836C22.9823 5.1536 17.8123 0.0036 11.4923 0.0036C5.1723 0.0036 0.0023 5.1536 0.0023 11.4836C0.0023 17.8136 5.1723 22.9836 11.4923 22.9836ZM3.3123 4.7836C3.7623 4.2336 4.2623 3.7136 4.8123 3.2736L7.7823 6.2436C7.2023 6.6436 6.6923 7.1636 6.2823 7.7336ZM19.6523 4.8436L16.6923 7.7936C16.2823 7.2236 15.7623 6.7136 15.1923 6.3136L18.1523 3.3236C18.7023 3.7836 19.2023 4.2936 19.6523 4.8436ZM11.4823 16.8936C8.4823 16.8936 6.0623 14.4736 6.0623 11.4736C6.0623 8.4736 8.4823 6.0436 11.4823 6.0436C14.4823 6.0436 16.9123 8.4736 16.9123 11.4736C16.9123 14.4736 14.4823 16.8936 11.4823 16.8936ZM19.6723 18.1036C19.2323 18.6536 18.7223 19.1736 18.1723 19.6136L15.2123 16.6436C15.7923 16.2436 16.3023 15.7236 16.7123 15.1536ZM3.3423 18.1636L6.3023 15.2136C6.7123 15.7836 7.2323 16.3036 7.8123 16.7036L4.8423 19.6736C4.2923 19.2336 3.7823 18.7236 3.3423 18.1636Z" />
        </svg>
    