
        <svg xmlns="http://www.w3.org/2000/svg" viewBox="0 0 100 100">
            <path d="M0.0017 24.2677C0.0017 25.8277 0.8817 26.7077 2.4217 26.7077H6.4417C7.9917 26.7077 8.8817 25.8277 8.8817 24.2577V4.9777C8.8817 3.6177 8.2117 2.7777 7.0317 2.5777V0.7777C7.0317 0.3377 6.6917 -0.0023 6.2617 -0.0023C5.8217 -0.0023 5.4817 0.3377 5.4817 0.7777V2.5277H3.4017V0.7777C3.4017 0.3377 3.0517 -0.0023 2.6117 -0.0023C2.1817 -0.0023 1.8517 0.3377 1.8517 0.7777V2.5777C0.6517 2.7777 0.0017 3.6177 0.0017 4.9677ZM11.5117 24.3077C11.5117 25.6477 12.1717 26.4977 13.3617 26.6977V28.4977C13.3617 28.9377 13.7017 29.2577 14.1317 29.2577C14.5617 29.2577 14.9017 28.9377 14.9017 28.4977V26.7377H17.0017V28.4977C17.0017 28.9377 17.3317 29.2577 17.7617 29.2577C18.2017 29.2577 18.5517 28.9377 18.5517 28.4977V26.6977C19.7317 26.4877 20.4017 25.6477 20.4017 24.2977V5.0177C20.4017 3.4477 19.5117 2.5677 17.9517 2.5677H13.9417C12.3917 2.5677 11.5117 3.4477 11.5117 5.0077ZM1.7717 24.1077V5.1377C1.7717 4.5977 2.0817 4.2977 2.6217 4.2977H6.2717C6.8117 4.2977 7.1117 4.5977 7.1117 5.1377V24.1077C7.1117 24.6377 6.8117 24.9377 6.2717 24.9377H2.6217C2.0817 24.9377 1.7717 24.6377 1.7717 24.1077ZM13.2817 24.1377V5.1677C13.2817 4.6277 13.5917 4.3377 14.1317 4.3377H17.7917C18.3317 4.3377 18.6317 4.6277 18.6317 5.1677V24.1377C18.6317 24.6677 18.3317 24.9777 17.7917 24.9777H14.1317C13.5917 24.9777 13.2817 24.6677 13.2817 24.1377ZM4.4417 8.2277C5.0317 8.2277 5.5117 7.7477 5.5117 7.1577C5.5117 6.5777 5.0317 6.0977 4.4417 6.0977C3.8517 6.0977 3.3917 6.5777 3.3917 7.1577C3.3917 7.7477 3.8517 8.2277 4.4417 8.2277ZM15.9517 8.2377C16.5517 8.2377 17.0117 7.7577 17.0117 7.1677C17.0117 6.5877 16.5517 6.1077 15.9517 6.1077C15.3617 6.1077 14.8917 6.5877 14.8917 7.1677C14.8917 7.7577 15.3617 8.2377 15.9517 8.2377ZM4.4417 11.9577C5.0317 11.9577 5.5117 11.4877 5.5117 10.8977C5.5117 10.2977 5.0317 9.8277 4.4417 9.8277C3.8517 9.8277 3.3917 10.2977 3.3917 10.8977C3.3917 11.4877 3.8517 11.9577 4.4417 11.9577ZM15.9517 11.9777C16.5517 11.9777 17.0117 11.4977 17.0117 10.9077C17.0117 10.3277 16.5517 9.8477 15.9517 9.8477C15.3617 9.8477 14.8917 10.3277 14.8917 10.9077C14.8917 11.4977 15.3617 11.9777 15.9517 11.9777ZM4.4417 15.6777C5.0317 15.6777 5.5117 15.2077 5.5117 14.6277C5.5117 14.0377 5.0317 13.5677 4.4417 13.5677C3.8517 13.5677 3.3917 14.0377 3.3917 14.6277C3.3917 15.2077 3.8517 15.6777 4.4417 15.6777ZM15.9517 15.7077C16.5517 15.7077 17.0117 15.2377 17.0117 14.6477C17.0117 14.0577 16.5517 13.5777 15.9517 13.5777C15.3617 13.5777 14.8917 14.0577 14.8917 14.6477C14.8917 15.2377 15.3617 15.7077 15.9517 15.7077ZM4.4417 19.4277C5.0317 19.4277 5.5117 18.9477 5.5117 18.3677C5.5117 17.7777 5.0317 17.2977 4.4417 17.2977C3.8517 17.2977 3.3917 17.7777 3.3917 18.3677C3.3917 18.9477 3.8517 19.4277 4.4417 19.4277ZM15.9517 19.4377C16.5517 19.4377 17.0117 18.9577 17.0117 18.3777C17.0117 17.7877 16.5517 17.3177 15.9517 17.3177C15.3617 17.3177 14.8917 17.7877 14.8917 18.3777C14.8917 18.9577 15.3617 19.4377 15.9517 19.4377ZM4.4417 23.1577C5.0317 23.1577 5.5117 22.6877 5.5117 22.0977C5.5117 21.5077 5.0317 21.0377 4.4417 21.0377C3.8517 21.0377 3.3917 21.5077 3.3917 22.0977C3.3917 22.6877 3.8517 23.1577 4.4417 23.1577ZM15.9517 23.1777C16.5517 23.1777 17.0117 22.6977 17.0117 22.1177C17.0117 21.5277 16.5517 21.0477 15.9517 21.0477C15.3617 21.0477 14.8917 21.5277 14.8917 22.1177C14.8917 22.6977 15.3617 23.1777 15.9517 23.1777Z" />
        </svg>
    