
        <svg xmlns="http://www.w3.org/2000/svg" viewBox="0 0 100 100">
            <path d="M3.6817 21.5722H17.8917C20.3517 21.5722 21.5717 20.3722 21.5717 17.9522V3.6322C21.5717 1.2222 20.3517 0.0022 17.8917 0.0022H3.6817C1.2317 0.0022 0.0017 1.2222 0.0017 3.6322V17.9522C0.0017 20.3722 1.2317 21.5722 3.6817 21.5722ZM3.7017 19.6922C2.5317 19.6922 1.8917 19.0622 1.8917 17.8522V3.7422C1.8917 2.5222 2.5317 1.8822 3.7017 1.8822H17.8717C19.0317 1.8822 19.6917 2.5222 19.6917 3.7422V17.8522C19.6917 19.0622 19.0317 19.6922 17.8717 19.6922ZM7.6617 16.9022H13.9117C14.4017 16.9022 14.7617 16.5322 14.7617 16.0422V5.5522C14.7617 5.0422 14.4017 4.6922 13.9117 4.6922H7.6617C7.1717 4.6922 6.8117 5.0422 6.8117 5.5522V16.0422C6.8117 16.5322 7.1717 16.9022 7.6617 16.9022ZM8.5217 9.7122C8.3017 9.7122 8.1317 9.5422 8.1317 9.3022V6.4122C8.1317 6.1622 8.3017 6.0122 8.5217 6.0122H13.0517C13.2917 6.0122 13.4417 6.1622 13.4417 6.4122V9.3022C13.4417 9.5422 13.2917 9.7122 13.0517 9.7122Z" />
        </svg>
    