
        <svg xmlns="http://www.w3.org/2000/svg" viewBox="0 0 100 100">
            <path d="M10.4517 1.4802C10.8617 1.4802 11.1917 1.1602 11.1917 0.7402C11.1917 0.3302 10.8617 0.0002 10.4517 0.0002C10.0417 0.0002 9.7117 0.3302 9.7117 0.7402C9.7117 1.1602 10.0417 1.4802 10.4517 1.4802ZM3.4117 4.1602C3.8317 4.1602 4.1517 3.8302 4.1517 3.4202C4.1517 3.0002 3.8317 2.6702 3.4117 2.6702C3.0017 2.6702 2.6717 3.0002 2.6717 3.4202C2.6717 3.8302 3.0017 4.1602 3.4117 4.1602ZM17.4917 4.1602C17.9017 4.1602 18.2317 3.8302 18.2317 3.4202C18.2317 3.0002 17.9017 2.6702 17.4917 2.6702C17.0717 2.6702 16.7617 3.0002 16.7617 3.4202C16.7617 3.8302 17.0717 4.1602 17.4917 4.1602ZM10.4517 3.8802C6.7017 3.8802 3.7417 6.8102 3.7417 10.0702C3.7417 13.6202 6.0917 14.8902 6.6917 22.5102C6.7117 22.8302 6.8717 22.9702 7.2517 22.9702H13.6517C14.0417 22.9702 14.1817 22.8302 14.2117 22.5102C14.8117 14.8902 17.1517 13.6202 17.1517 10.0702C17.1517 6.8102 14.2017 3.8802 10.4517 3.8802ZM10.4517 4.4502C13.7917 4.4502 16.6017 7.0302 16.6017 10.0702C16.6017 13.2502 14.3217 14.5202 13.6517 22.3902H7.2517C6.5817 14.5202 4.3117 13.2502 4.3117 10.0702C4.3117 7.0302 7.1117 4.4502 10.4517 4.4502ZM0.7417 11.2302C1.1517 11.2302 1.4717 10.9002 1.4717 10.4902C1.4717 10.0702 1.1517 9.7502 0.7417 9.7502C0.3317 9.7502 0.0017 10.0702 0.0017 10.4902C0.0017 10.9002 0.3317 11.2302 0.7417 11.2302ZM20.1717 11.2302C20.5817 11.2302 20.9017 10.9002 20.9017 10.4902C20.9017 10.0702 20.5817 9.7502 20.1717 9.7502C19.7617 9.7502 19.4317 10.0702 19.4317 10.4902C19.4317 10.9002 19.7617 11.2302 20.1717 11.2302ZM7.3917 24.7502H13.5517C13.7917 24.7502 13.9817 24.5602 13.9817 24.3002C13.9817 24.0602 13.7917 23.8602 13.5517 23.8602H7.3917C7.1517 23.8602 6.9517 24.0602 6.9517 24.3002C6.9517 24.5602 7.1517 24.7502 7.3917 24.7502ZM10.4617 27.5602C12.0917 27.5602 13.2517 26.7802 13.3117 25.6502H7.6217C7.6717 26.7802 8.8317 27.5602 10.4617 27.5602Z" />
        </svg>
    