
        <svg xmlns="http://www.w3.org/2000/svg" viewBox="0 0 100 100">
            <path d="M11.1139 0.0031C8.5939 0.0031 6.4039 1.0431 4.9639 2.6831L16.7939 14.5231C17.8039 11.6531 18.9539 10.1631 18.9539 7.2231C18.9539 3.1731 15.4939 0.0031 11.1139 0.0031ZM19.5939 21.7931C19.9639 22.1731 20.5239 22.1631 20.8739 21.7931C21.2239 21.4431 21.2239 20.8831 20.8739 20.5231L1.5439 1.1831C1.1839 0.8231 0.6039 0.8431 0.2539 1.1831C-0.0861 1.5231 -0.0761 2.1331 0.2539 2.4631ZM7.4439 21.3431H14.7739C15.2239 21.3431 15.4639 21.0731 15.5039 20.6531C15.5339 20.3231 15.5739 20.0231 15.6139 19.7731L3.3239 7.4631C3.3139 7.8431 3.3239 8.2031 3.3639 8.5531C3.8039 12.0331 6.0439 13.6331 6.7039 20.6531C6.7539 21.0731 6.9839 21.3431 7.4439 21.3431ZM7.4039 23.8731H14.8139C15.2039 23.8731 15.5039 23.5631 15.5039 23.1831C15.5039 22.8031 15.2039 22.5031 14.8139 22.5031H7.4039C7.0139 22.5031 6.7239 22.8031 6.7239 23.1831C6.7239 23.5631 7.0139 23.8731 7.4039 23.8731ZM11.1139 27.2731C12.9139 27.2731 14.4439 26.3831 14.5439 25.0331H7.6639C7.7539 26.3831 9.2839 27.2731 11.1139 27.2731Z" />
        </svg>
    