
        <svg xmlns="http://www.w3.org/2000/svg" viewBox="0 0 100 100">
            <path d="M16.8023 20.5383C26.7923 20.5383 33.6423 15.9383 33.6423 10.2783C33.6423 4.6183 26.7923 -0.0017 16.8023 -0.0017C6.8423 -0.0017 0.0023 4.6183 0.0023 10.2783C0.0023 15.9383 6.8423 20.5383 16.8023 20.5383ZM16.8023 17.0183C10.2923 17.0183 5.5323 14.2483 5.5323 10.5683C5.5323 6.9183 10.2923 4.1483 16.8023 4.1483C23.3423 4.1483 28.1123 6.9183 28.1123 10.5683C28.1123 14.2483 23.3323 17.0183 16.8023 17.0183ZM16.8023 15.2483C22.2023 15.2483 26.3123 13.1083 26.3123 10.5683C26.3123 9.5483 25.6523 8.6083 24.5023 7.8483C23.1423 9.8883 20.1923 11.2983 16.7823 11.2983C13.3823 11.2983 10.4423 9.9183 9.0723 7.8883C7.9723 8.6483 7.3323 9.5583 7.3323 10.5683C7.3323 13.1083 11.4123 15.2483 16.8023 15.2483Z" />
        </svg>
    