
        <svg xmlns="http://www.w3.org/2000/svg" viewBox="0 0 100 100">
            <path d="M3.1617 20.742H17.5917C19.6617 20.742 20.7417 19.642 20.7417 17.592V3.152C20.7417 1.102 19.6617 0.002 17.5917 0.002H3.1617C1.0917 0.002 0.0017 1.082 0.0017 3.152V17.592C0.0017 19.662 1.0917 20.742 3.1617 20.742ZM7.2517 4.452H13.4917C13.9117 4.452 14.2017 4.742 14.2017 5.152V15.612C14.2017 16.032 13.9117 16.312 13.4917 16.312H7.2517C6.8317 16.312 6.5417 16.032 6.5417 15.612V5.152C6.5417 4.742 6.8317 4.452 7.2517 4.452ZM7.8517 11.412C7.6617 11.412 7.5317 11.542 7.5317 11.732V15.002C7.5317 15.192 7.6617 15.312 7.8517 15.312H12.8917C13.0817 15.312 13.2117 15.192 13.2117 15.002V11.732C13.2117 11.542 13.0817 11.412 12.8917 11.412Z" />
        </svg>
    