
        <svg xmlns="http://www.w3.org/2000/svg" viewBox="0 0 100 100">
            <path d="M17.1118 10.3358C22.2218 10.3358 25.8018 7.0358 26.2118 2.1058H28.6218C29.1918 2.1058 29.6618 1.6258 29.6618 1.0658C29.6618 0.4958 29.1918 -0.0042 28.6218 -0.0042H5.5918C5.0118 -0.0042 4.5518 0.4958 4.5518 1.0558C4.5518 1.6258 5.0318 2.0958 5.5918 2.1058H8.0018C8.4018 7.0358 11.9918 10.3358 17.1118 10.3358ZM17.1118 8.2358C13.2318 8.2358 10.5118 5.7858 10.1118 2.1058H24.1218C23.7118 5.7858 20.9718 8.2358 17.1118 8.2358ZM1.8118 11.6358L7.3918 6.0458C7.0818 5.3558 6.8418 4.6058 6.6818 3.7858L0.3318 10.1458C-0.1082 10.5858 -0.1082 11.1958 0.3018 11.6258C0.7618 12.0658 1.3718 12.0858 1.8118 11.6358ZM4.7618 14.5758L9.9118 9.4258C9.3918 8.9658 8.9018 8.4358 8.4918 7.8658L3.2718 13.0858C2.8518 13.5358 2.8218 14.1458 3.2618 14.5658C3.7118 15.0258 4.3218 15.0358 4.7618 14.5758ZM7.7018 17.5158L13.7718 11.4458C13.0118 11.2458 12.2918 10.9558 11.6518 10.6058L6.2118 16.0358C5.7918 16.4758 5.7818 17.0758 6.2118 17.5158C6.6518 17.9558 7.2518 17.9658 7.7018 17.5158ZM10.6518 20.4758L19.4218 11.6958C18.2718 11.9258 17.5618 11.9258 16.2818 11.8958L9.1518 18.9858C8.7218 19.4158 8.7318 20.0258 9.1618 20.4758C9.6018 20.9058 10.2118 20.9058 10.6518 20.4758Z" />
        </svg>
    