
        <svg xmlns="http://www.w3.org/2000/svg" viewBox="0 0 100 100">
            <path d="M12.8917 27.163C20.6717 27.163 25.7817 24.403 25.7817 20.093V7.533C25.7817 2.963 20.6517 0.003 12.8917 0.003C5.1417 0.003 0.0017 2.963 0.0017 7.533V20.093C0.0017 24.403 5.1117 27.163 12.8917 27.163ZM3.2017 20.093C3.2017 17.933 7.2217 16.243 12.8917 16.243C18.5617 16.243 22.5817 17.933 22.5817 20.093C22.5817 22.263 18.5617 23.953 12.8917 23.953C7.2217 23.953 3.2017 22.263 3.2017 20.093ZM7.8917 17.993C8.3017 19.643 10.3917 20.883 12.8917 20.883C15.3917 20.883 17.4817 19.643 17.8917 17.993C16.4917 17.633 14.7517 17.423 12.8917 17.423C11.0417 17.423 9.2917 17.633 7.8917 17.993Z" />
        </svg>
    