
        <svg xmlns="http://www.w3.org/2000/svg" viewBox="0 0 100 100">
            <path d="M8.8717 10.8994C13.8617 10.8994 17.7217 8.5394 17.7217 5.4594C17.7217 2.3694 13.8617 -0.0006 8.8717 -0.0006C3.8417 -0.0006 0.0017 2.3694 0.0017 5.4594C0.0017 8.5594 3.8417 10.8994 8.8717 10.8994ZM29.1517 10.8994C34.1717 10.8994 38.0317 8.5594 38.0317 5.4594C38.0317 2.3694 34.1717 -0.0006 29.1517 -0.0006C24.1417 -0.0006 20.3117 2.3694 20.3117 5.4594C20.3117 8.5394 24.1417 10.8994 29.1517 10.8994ZM8.8717 9.7194C4.4417 9.7194 1.1917 7.8294 1.1917 5.4594C1.1917 3.0794 4.4517 1.1694 8.8717 1.1694C13.2817 1.1694 16.5517 3.0794 16.5517 5.4594C16.5517 7.8294 13.2817 9.7194 8.8717 9.7194ZM29.1517 9.7194C24.7417 9.7194 21.4717 7.8294 21.4717 5.4594C21.4717 3.0794 24.7417 1.1694 29.1517 1.1694C33.5617 1.1694 36.8317 3.0794 36.8317 5.4594C36.8317 7.8294 33.5717 9.7194 29.1517 9.7194ZM8.8717 8.7694C12.1317 8.7694 14.5217 7.4394 14.5217 5.6294C14.5217 3.7894 12.1317 2.4594 8.8717 2.4594C5.6217 2.4594 3.2417 3.7894 3.2417 5.6294C3.2417 7.4394 5.6217 8.7694 8.8717 8.7694ZM29.1517 8.7694C32.4017 8.7694 34.7917 7.4394 34.7917 5.6294C34.7917 3.7894 32.4017 2.4594 29.1517 2.4594C25.9017 2.4594 23.5217 3.7894 23.5217 5.6294C23.5217 7.4394 25.9017 8.7694 29.1517 8.7694ZM8.8717 7.7194C6.1517 7.7194 4.2917 6.7994 4.2917 5.6294C4.2917 5.1994 4.5217 4.8094 4.9717 4.4694C5.7117 5.3994 7.1817 6.0194 8.8717 6.0194C10.5517 6.0194 12.0317 5.3894 12.7617 4.4394C13.2217 4.7794 13.4717 5.1894 13.4717 5.6294C13.4717 6.7994 11.5917 7.7194 8.8717 7.7194ZM29.1517 7.7194C26.4417 7.7194 24.5717 6.7994 24.5717 5.6294C24.5717 5.1894 24.8217 4.7894 25.2617 4.4494C26.0017 5.3894 27.4817 6.0194 29.1517 6.0194C30.8417 6.0194 32.3317 5.3894 33.0617 4.4694C33.5017 4.7894 33.7617 5.1894 33.7617 5.6294C33.7617 6.7994 31.8717 7.7194 29.1517 7.7194ZM19.0117 22.1794C24.0317 22.1794 27.8817 19.8294 27.8817 16.7494C27.8817 13.6394 24.0317 11.2694 19.0117 11.2694C14.0017 11.2694 10.1617 13.6394 10.1617 16.7494C10.1617 19.8194 14.0017 22.1794 19.0117 22.1794ZM19.0117 20.9994C14.5917 20.9994 11.3217 19.0994 11.3217 16.7494C11.3217 14.3594 14.6017 12.4494 19.0117 12.4494C23.4117 12.4494 26.6917 14.3594 26.6917 16.7494C26.6917 19.0994 23.4217 20.9994 19.0117 20.9994ZM19.0117 20.0394C22.2617 20.0394 24.6517 18.7194 24.6517 16.8994C24.6517 15.0594 22.2617 13.7294 19.0117 13.7294C15.7617 13.7294 13.3917 15.0594 13.3917 16.8994C13.3917 18.7194 15.7617 20.0394 19.0117 20.0394ZM19.0117 17.2994C20.6917 17.2994 22.1817 16.6594 22.9217 15.7394C23.3717 16.0694 23.6117 16.4694 23.6117 16.8994C23.6117 18.0694 21.7217 19.0094 19.0117 19.0094C16.3017 19.0094 14.4217 18.0694 14.4217 16.8994C14.4217 16.4694 14.6717 16.0594 15.1317 15.7294C15.8517 16.6494 17.3317 17.2994 19.0117 17.2994Z" />
        </svg>
    