
        <svg xmlns="http://www.w3.org/2000/svg" viewBox="0 0 100 100">
            <path d="M0.7565 8.5571C-0.0235 9.0071 -0.2235 9.7771 0.2565 10.5971L1.8965 13.4371C2.2265 13.9971 2.7065 14.2571 3.2265 14.2571H12.8765L5.7765 18.3571C5.0065 18.7971 4.8165 19.5771 5.2865 20.3971H5.2965L3.9965 21.1471C3.8665 21.2171 3.8065 21.3971 3.8965 21.5371C3.9665 21.6671 4.1665 21.7171 4.2765 21.6571L5.5965 20.8971L6.6365 22.7171L5.3265 23.4771C5.2065 23.5371 5.1465 23.7171 5.2365 23.8671C5.3065 24.0071 5.4965 24.0371 5.6265 23.9671L6.9265 23.2171L6.9365 23.2271C7.4065 24.0471 8.1665 24.2771 8.9465 23.8271L23.3665 15.4871C24.1465 15.0371 24.3465 14.2671 23.8565 13.4571L22.2165 10.6071C21.9365 10.1371 21.5665 9.7971 20.8965 9.7971H11.2565L18.3465 5.6971C19.1165 5.2571 19.3065 4.4771 18.8365 3.6571L18.8265 3.6471L20.1265 2.8971C20.2565 2.8271 20.3065 2.6471 20.2265 2.5071C20.1565 2.3771 19.9565 2.3371 19.8565 2.3971L18.5365 3.1571L17.4865 1.3371L18.7965 0.5771C18.9165 0.5171 18.9765 0.3271 18.8765 0.1771C18.8065 0.0471 18.6265 0.0071 18.4965 0.0871L17.1965 0.8271H17.1865C16.7165 0.0071 15.9465 -0.2229 15.1765 0.2271ZM1.0665 9.0371L15.4465 0.7371C15.9265 0.4671 16.4065 0.6271 16.6965 1.1371L18.3165 3.9371C18.6065 4.4371 18.5065 4.9471 18.0265 5.2171L3.6465 13.5071C3.1665 13.7971 2.6765 13.6271 2.3765 13.1271L0.7665 10.3271C0.4865 9.8271 0.5865 9.3271 1.0665 9.0371ZM14.2165 4.4371C14.4365 4.8171 14.9165 4.9571 15.3065 4.7271C15.7165 4.4871 15.8465 4.0071 15.6265 3.6271C15.3965 3.2371 14.9065 3.1071 14.4965 3.3271C14.1065 3.5571 13.9965 4.0471 14.2165 4.4371ZM11.5365 5.9771C11.7565 6.3771 12.2165 6.5071 12.6265 6.2871C13.0065 6.0571 13.1365 5.5671 12.9165 5.1871C12.6965 4.7971 12.1965 4.6571 11.8165 4.8771C11.4165 5.1271 11.3065 5.5971 11.5365 5.9771ZM8.8365 7.5371C9.0765 7.9171 9.5665 8.0371 9.9465 7.8171C10.3365 7.6071 10.4565 7.1171 10.2365 6.7271C10.0065 6.3471 9.5265 6.2171 9.1465 6.4371C8.7565 6.6571 8.6165 7.1471 8.8365 7.5371ZM6.1165 9.1071C6.3565 9.4971 6.8465 9.6071 7.2365 9.3871C7.6265 9.1671 7.7865 8.6771 7.5565 8.2871C7.3365 7.8971 6.8265 7.7571 6.4265 8.0071C6.0365 8.2271 5.8965 8.7171 6.1165 9.1071ZM3.4265 10.6571C3.6465 11.0371 4.1365 11.1871 4.5365 10.9471C4.9265 10.7171 5.0665 10.2471 4.8465 9.8571C4.6165 9.4571 4.1265 9.3271 3.7365 9.5571C3.3265 9.7771 3.1965 10.2671 3.4265 10.6571ZM4.5265 13.6671L10.2065 10.3771H19.5865L13.8865 13.6671ZM6.0965 18.8371L20.4765 10.5371C20.9565 10.2571 21.4565 10.4171 21.7365 10.9171L23.3565 13.7171C23.6365 14.2271 23.5365 14.7171 23.0565 15.0071L8.6765 23.2971C8.1965 23.5671 7.7165 23.4171 7.4165 22.9171L5.8065 20.1071C5.5065 19.6171 5.6165 19.1071 6.0965 18.8371ZM19.2765 14.1971C19.5065 14.5771 19.9965 14.7171 20.3965 14.4971C20.7865 14.2771 20.9165 13.7771 20.6965 13.3871C20.4765 12.9971 19.9865 12.8671 19.5865 13.1071C19.1965 13.3271 19.0565 13.8071 19.2765 14.1971ZM16.5565 15.7671C16.7865 16.1471 17.2965 16.2871 17.6965 16.0471C18.0865 15.8271 18.2265 15.3271 18.0065 14.9471C17.7765 14.5571 17.2865 14.4371 16.8865 14.6671C16.4865 14.8871 16.3365 15.3771 16.5565 15.7671ZM13.8865 17.3271C14.1065 17.7071 14.5965 17.8371 14.9765 17.6171C15.3665 17.3971 15.5065 16.8971 15.2865 16.5171C15.0565 16.1271 14.5665 15.9971 14.1665 16.2371C13.7865 16.4571 13.6665 16.9271 13.8865 17.3271ZM11.2065 18.8671C11.4265 19.2571 11.9165 19.3971 12.3065 19.1771C12.7165 18.9271 12.8065 18.4471 12.5865 18.0571C12.3665 17.6771 11.9065 17.5471 11.4965 17.7671C11.1065 17.9871 10.9865 18.4871 11.2065 18.8671ZM8.4965 20.4271C8.7165 20.8171 9.2165 20.9471 9.6265 20.7171C10.0065 20.4971 10.1265 20.0071 9.9065 19.6171C9.6865 19.2371 9.1965 19.0971 8.8165 19.3171C8.4165 19.5571 8.2765 20.0271 8.4965 20.4271Z" />
        </svg>
    