
        <svg xmlns="http://www.w3.org/2000/svg" viewBox="0 0 100 100">
            <path d="M9.3317 11.8045C14.5317 11.8045 18.6117 9.2345 18.6117 5.9045C18.6117 2.5745 14.5317 0.0045 9.3317 0.0045C4.1017 0.0045 0.0017 2.5645 0.0017 5.9045C0.0017 9.2345 4.1017 11.8045 9.3317 11.8045ZM29.8217 11.8145C35.0117 11.8145 39.1017 9.2345 39.1017 5.9045C39.1017 2.5745 35.0117 0.0045 29.8217 0.0045C24.5817 0.0045 20.4917 2.5745 20.4917 5.9045C20.4917 9.2345 24.5817 11.8145 29.8217 11.8145ZM9.3117 9.2945C6.1217 9.2945 3.6517 7.8545 3.6517 5.9845C3.6517 4.1245 6.1217 2.6945 9.3117 2.6945C12.5417 2.6945 14.9917 4.1245 14.9917 5.9845C14.9917 7.8445 12.5417 9.2945 9.3117 9.2945ZM29.8117 9.3045C26.6017 9.3045 24.1317 7.8545 24.1317 5.9845C24.1317 4.1245 26.6017 2.6945 29.8117 2.6945C33.0317 2.6945 35.4717 4.1245 35.4717 5.9845C35.4717 7.8545 33.0317 9.3045 29.8117 9.3045ZM5.0717 5.9845C5.0717 7.0445 6.9717 7.8745 9.3117 7.8745C11.6817 7.8745 13.5817 7.0445 13.5817 5.9845C13.5817 5.6745 13.4017 5.3645 13.0617 5.0945C12.2717 5.9845 10.8317 6.6245 9.3117 6.6245C7.8117 6.6245 6.3717 6.0145 5.5417 5.1245C5.2517 5.3745 5.0717 5.6745 5.0717 5.9845ZM25.5717 5.9845C25.5717 7.0445 27.4417 7.8745 29.8117 7.8745C32.1817 7.8745 34.0617 7.0445 34.0617 5.9845C34.0617 5.6645 33.8917 5.3645 33.5617 5.0945C32.7517 5.9845 31.3217 6.6245 29.8117 6.6245C28.3117 6.6245 26.8717 6.0245 26.0417 5.1245C25.7317 5.3745 25.5717 5.6845 25.5717 5.9845ZM19.5617 23.7145C24.7617 23.7145 28.8417 21.1445 28.8417 17.8245C28.8417 14.4845 24.7617 11.9145 19.5617 11.9145C14.3217 11.9145 10.2417 14.4845 10.2417 17.8245C10.2417 21.1545 14.3217 23.7145 19.5617 23.7145ZM19.5617 21.2145C16.3517 21.2145 13.8917 19.7545 13.8917 17.9045C13.8917 16.0445 16.3517 14.6045 19.5617 14.6045C22.7717 14.6045 25.2217 16.0445 25.2217 17.9045C25.2217 19.7545 22.7717 21.2145 19.5617 21.2145ZM15.3117 17.9045C15.3117 18.9445 17.2017 19.7845 19.5517 19.7845C21.9117 19.7845 23.8117 18.9445 23.8117 17.9045C23.8117 17.5745 23.6217 17.2745 23.3117 17.0045C22.5017 17.9045 21.0617 18.5245 19.5517 18.5245C18.0517 18.5245 16.6017 17.9345 15.7717 17.0345C15.4917 17.2945 15.3117 17.5945 15.3117 17.9045Z" />
        </svg>
    