
        <svg xmlns="http://www.w3.org/2000/svg" viewBox="0 0 100 100">
            <path d="M15.8217 -0.0034C11.8117 -0.0034 8.6517 2.9766 8.6517 6.6166C8.6517 10.6366 11.1217 11.7666 11.7917 19.1866C11.8317 19.5566 12.0217 19.7766 12.4417 19.7766H19.1817C19.6017 19.7766 19.8017 19.5566 19.8417 19.1866C20.5117 11.7666 22.9917 10.6366 22.9917 6.6166C22.9917 2.9766 19.8317 -0.0034 15.8217 -0.0034ZM6.2117 1.6966C2.7517 1.6966 0.0017 4.2966 0.0017 7.4566C0.0017 10.9466 2.1317 11.9266 2.6917 18.2366C2.7317 18.5766 2.9517 18.8166 3.3017 18.8166H9.1317C9.4817 18.8166 9.7017 18.5766 9.7217 18.2366C9.8217 17.3766 9.9117 16.6266 10.0417 15.9166C9.0817 11.9766 7.4417 10.4766 7.4417 6.6166C7.4417 5.0066 7.9717 3.4966 8.8717 2.2366C8.0617 1.8866 7.1617 1.6966 6.2117 1.6966ZM3.3417 20.8366H9.1017C9.4217 20.8366 9.6917 20.5866 9.6917 20.2666C9.6917 19.9266 9.4217 19.6666 9.1017 19.6666H3.3417C3.0217 19.6666 2.7617 19.9366 2.7617 20.2666C2.7617 20.5766 3.0217 20.8366 3.3417 20.8366ZM12.4717 21.9766H19.1717C19.5117 21.9766 19.7817 21.7166 19.7817 21.3766C19.7817 21.0366 19.5117 20.7766 19.1717 20.7766H12.4717C12.1317 20.7766 11.8717 21.0366 11.8717 21.3766C11.8717 21.7166 12.1317 21.9766 12.4717 21.9766ZM6.2317 23.6166C7.7317 23.6166 8.9617 22.8266 8.9917 21.6866H3.4717C3.4917 22.8266 4.7017 23.6166 6.2317 23.6166ZM15.8217 25.0466C17.5217 25.0466 18.8817 24.2066 18.9517 22.9666H12.6917C12.7617 24.2066 14.1217 25.0466 15.8217 25.0466Z" />
        </svg>
    