
        <svg xmlns="http://www.w3.org/2000/svg" viewBox="0 0 100 100">
            <path d="M12.6817 2.6281C13.4017 2.6281 13.9917 2.0381 13.9917 1.3081C13.9917 0.5881 13.4017 -0.0019 12.6817 -0.0019C11.9517 -0.0019 11.3717 0.5881 11.3717 1.3081C11.3717 2.0381 11.9517 2.6281 12.6817 2.6281ZM4.2117 5.5681C4.9317 5.5681 5.5217 4.9781 5.5217 4.2581C5.5217 3.5281 4.9317 2.9381 4.2117 2.9381C3.4817 2.9381 2.8917 3.5281 2.8917 4.2581C2.8917 4.9781 3.4817 5.5681 4.2117 5.5681ZM21.1517 5.5681C21.8817 5.5681 22.4617 4.9781 22.4617 4.2581C22.4617 3.5281 21.8817 2.9381 21.1517 2.9381C20.4217 2.9381 19.8417 3.5281 19.8417 4.2581C19.8417 4.9781 20.4217 5.5681 21.1517 5.5681ZM21.8817 22.7881C22.4717 22.7881 22.9917 22.2981 22.9917 21.6881C22.9917 21.0981 22.4717 20.5881 21.8817 20.5881H20.4417V12.7981C20.4417 8.4281 17.0517 5.0381 12.6817 5.0381C8.3117 5.0381 4.9317 8.4281 4.9317 12.7981V20.5881H3.4817C2.8817 20.5881 2.3917 21.0981 2.3917 21.6881C2.3917 22.2981 2.8817 22.7881 3.4817 22.7881ZM1.3117 14.0181C2.0417 14.0181 2.6217 13.4381 2.6217 12.6981C2.6217 11.9781 2.0417 11.3881 1.3117 11.3881C0.5817 11.3881 0.0017 11.9781 0.0017 12.6981C0.0017 13.4381 0.5817 14.0181 1.3117 14.0181ZM24.0517 14.0181C24.7717 14.0181 25.3617 13.4381 25.3617 12.6981C25.3617 11.9781 24.7717 11.3881 24.0517 11.3881C23.3217 11.3881 22.7317 11.9781 22.7317 12.6981C22.7317 13.4381 23.3217 14.0181 24.0517 14.0181ZM13.8117 13.0081V20.5881H11.5617V13.0081C11.5617 12.3881 12.0617 11.8681 12.6817 11.8681C13.3017 11.8681 13.8117 12.3881 13.8117 13.0081Z" />
        </svg>
    