
        <svg xmlns="http://www.w3.org/2000/svg" viewBox="0 0 100 100">
            <path d="M10.4776 -0.0033C7.9376 -0.0033 5.7276 1.1967 4.3676 2.9667L4.9776 3.5767C6.1776 1.9367 8.2076 0.8567 10.4776 0.8567C14.0776 0.8567 17.1176 3.5767 17.1176 6.8867C17.1176 9.1967 16.0376 10.5367 15.0776 13.6667L15.7776 14.3767C16.7676 11.0967 17.9576 9.6067 17.9576 6.8867C17.9576 3.1967 14.6576 -0.0033 10.4776 -0.0033ZM19.2976 20.5167C19.4676 20.6867 19.7376 20.6867 19.9076 20.5167C20.0676 20.3567 20.0776 20.0767 19.9076 19.8967L0.7276 0.7267C0.5876 0.5867 0.2876 0.5667 0.1276 0.7267C-0.0424 0.8867 -0.0424 1.1767 0.1276 1.3367ZM6.9276 21.0667H14.0376C14.4576 21.0667 14.6276 20.8967 14.6676 20.5267L15.0176 17.6867L14.3476 17.0267L13.9276 20.2167H7.1076C6.4076 12.3067 4.1676 10.7967 4.0576 7.5867C4.0476 7.2867 4.0576 7.0067 4.1076 6.7267L3.1576 5.7867C3.0676 6.2267 3.0176 6.6667 3.0276 7.1267C3.0976 10.9667 5.6276 12.3867 6.2976 20.5267C6.3376 20.8867 6.5076 21.0667 6.9276 21.0667ZM7.0276 23.1367H13.9376C14.2176 23.1367 14.4476 22.9267 14.4476 22.6367C14.4476 22.3567 14.2176 22.1367 13.9376 22.1367H7.0276C6.7476 22.1367 6.5176 22.3567 6.5176 22.6367C6.5176 22.9267 6.7476 23.1367 7.0276 23.1367ZM10.4776 26.2867C12.2776 26.2867 13.5776 25.4567 13.6576 24.2067H7.3076C7.3776 25.4567 8.6876 26.2867 10.4776 26.2867Z" />
        </svg>
    