
        <svg xmlns="http://www.w3.org/2000/svg" viewBox="0 0 100 100">
            <path d="M8.6617 10.5009C13.5117 10.5009 17.3117 8.1909 17.3117 5.2609C17.3117 2.3209 13.5117 0.0009 8.6617 0.0009C3.7817 0.0009 0.0017 2.3209 0.0017 5.2609C0.0017 8.2009 3.7817 10.5009 8.6617 10.5009ZM29.0817 10.5009C33.9417 10.5009 37.7317 8.2009 37.7317 5.2609C37.7317 2.3309 33.9417 0.0009 29.0817 0.0009C24.2117 0.0009 20.4417 2.3209 20.4417 5.2609C20.4417 8.2009 24.2117 10.5009 29.0817 10.5009ZM8.6417 8.3709C5.4617 8.3709 3.2117 7.1409 3.2117 5.4209C3.2117 3.6909 5.4617 2.4609 8.6417 2.4609C11.8317 2.4609 14.1117 3.6909 14.1117 5.4209C14.1117 7.1409 11.8317 8.3709 8.6417 8.3709ZM29.0717 8.3709C25.8917 8.3709 23.6417 7.1409 23.6417 5.4409C23.6417 3.6909 25.8917 2.4709 29.0717 2.4709C32.2617 2.4709 34.5317 3.6909 34.5317 5.4409C34.5317 7.1409 32.2617 8.3709 29.0717 8.3709ZM3.8817 5.4209C3.8817 6.7409 5.8717 7.6909 8.6417 7.6909C11.4117 7.6909 13.4317 6.7409 13.4317 5.4209C13.4317 4.8909 13.0917 4.4209 12.5317 4.0309C11.8917 4.9809 10.4217 5.6509 8.6417 5.6509C6.8517 5.6509 5.3917 4.9809 4.7617 4.0509C4.1917 4.4309 3.8817 4.9009 3.8817 5.4209ZM24.3017 5.4409C24.3017 6.7409 26.3117 7.7009 29.0717 7.7009C31.8517 7.7009 33.8717 6.7409 33.8717 5.4409C33.8717 4.9009 33.5317 4.4209 32.9517 4.0309C32.3217 4.9809 30.8517 5.6509 29.0717 5.6509C27.2917 5.6509 25.8317 4.9809 25.1817 4.0509C24.6317 4.4309 24.3017 4.9009 24.3017 5.4409ZM18.8817 21.2309C23.7317 21.2309 27.5317 18.9409 27.5317 16.0109C27.5317 13.0709 23.7317 10.7309 18.8817 10.7309C14.0017 10.7309 10.2217 13.0509 10.2217 16.0109C10.2217 18.9409 14.0017 21.2309 18.8817 21.2309ZM18.8517 19.1009C15.6817 19.1009 13.4217 17.8809 13.4217 16.1709C13.4217 14.4409 15.6817 13.2109 18.8517 13.2109C22.0517 13.2109 24.3317 14.4409 24.3317 16.1709C24.3317 17.8709 22.0517 19.1009 18.8517 19.1009ZM14.1017 16.1709C14.1017 17.4709 16.0917 18.4309 18.8517 18.4309C21.6317 18.4309 23.6517 17.4709 23.6517 16.1709C23.6517 15.6309 23.3117 15.1509 22.7417 14.7809C22.1117 15.7309 20.6417 16.3909 18.8517 16.3909C17.0717 16.3909 15.6117 15.7309 14.9617 14.7909C14.4117 15.1609 14.1017 15.6309 14.1017 16.1709Z" />
        </svg>
    