
        <svg xmlns="http://www.w3.org/2000/svg" viewBox="0 0 100 100">
            <path d="M14.5217 4.2319C14.5217 5.2619 15.3717 6.1419 16.4217 6.1419C17.4617 6.1419 18.3117 5.2619 18.3117 4.2319V1.8819C18.3117 0.8719 17.4417 0.0019 16.4217 0.0019C15.3917 0.0019 14.5217 0.8719 14.5217 1.8819ZM6.3317 9.0019C7.0617 9.7419 8.2717 9.7519 9.0117 9.0019C9.7617 8.2619 9.7517 7.0619 9.0117 6.3319L7.3517 4.6619C6.6117 3.9219 5.4017 3.9219 4.6617 4.6619C3.9217 5.4019 3.9217 6.6119 4.6617 7.3519ZM23.8217 6.3319C23.0817 7.0619 23.0717 8.2619 23.8217 9.0019C24.5617 9.7519 25.7617 9.7419 26.4917 9.0019L28.1617 7.3519C28.9017 6.6119 28.9017 5.4019 28.1617 4.6619C27.4217 3.9219 26.2217 3.9219 25.4917 4.6619ZM16.4217 7.5619C12.0917 7.5619 8.4817 10.6519 8.4817 14.9319C8.4817 18.8719 10.6717 20.6119 11.1517 26.7819C11.2217 27.8919 11.9917 28.5619 13.0817 28.5619H19.7617C20.8317 28.5619 21.6017 27.8919 21.6917 26.7819C22.1517 20.6119 24.3517 18.8719 24.3517 14.9519C24.3517 10.6619 20.7317 7.5619 16.4217 7.5619ZM4.2417 18.3019C5.2617 18.3019 6.1517 17.4519 6.1517 16.4019C6.1517 15.3619 5.2617 14.5219 4.2417 14.5219H1.9017C0.8717 14.5219 0.0017 15.3819 0.0017 16.4019C0.0017 17.4419 0.8717 18.3019 1.9017 18.3019ZM30.9417 18.3019C31.9617 18.3019 32.8317 17.4419 32.8317 16.4019C32.8317 15.3819 31.9617 14.5219 30.9417 14.5219H28.5917C27.5617 14.5219 26.6817 15.3619 26.6817 16.4019C26.6817 17.4519 27.5617 18.3019 28.5917 18.3019ZM12.8017 31.8419H20.0417C20.6217 31.8419 21.0917 31.3319 21.0917 30.7919C21.0917 30.2319 20.6217 29.7419 20.0417 29.7419H12.8017C12.2017 29.7419 11.7317 30.2319 11.7317 30.7919C11.7317 31.3319 12.2017 31.8419 12.8017 31.8419ZM16.4217 35.3919C18.3517 35.3919 19.7217 34.4519 19.7917 33.0219H12.9817C13.0617 34.4519 14.4717 35.3919 16.4217 35.3919Z" />
        </svg>
    