
        <svg xmlns="http://www.w3.org/2000/svg" viewBox="0 0 100 100">
            <path d="M0.0017 25.1225C0.0017 26.9425 1.0517 28.0125 2.8617 28.0125H7.1917C8.9917 28.0125 10.0517 26.9425 10.0517 25.1125V5.5525C10.0517 4.0225 9.2917 3.0125 7.9817 2.7425V0.9825C7.9817 0.4325 7.5317 0.0025 6.9817 0.0025C6.4317 0.0025 6.0017 0.4425 6.0017 0.9825V2.6625H4.0517V0.9825C4.0517 0.4425 3.6117 0.0025 3.0617 0.0025C2.5217 0.0025 2.0817 0.4325 2.0817 0.9825V2.7225C0.7217 2.9625 0.0017 3.9825 0.0017 5.5525ZM12.8017 25.1525C12.8017 26.7225 13.5117 27.7225 14.8717 27.9725V29.7025C14.8717 30.2625 15.3017 30.6925 15.8517 30.6925C16.4017 30.6925 16.8517 30.2625 16.8517 29.7225V28.0425H18.8017V29.7225C18.8017 30.2625 19.2317 30.6925 19.7817 30.6925C20.3317 30.6925 20.7617 30.2625 20.7617 29.7025V27.9625C22.0917 27.6825 22.8517 26.6825 22.8517 25.1325V5.5925C22.8517 3.7625 21.7817 2.6825 19.9817 2.6825H15.6517C13.8517 2.6825 12.8017 3.7625 12.8017 5.5825ZM2.2217 24.9525V5.7325C2.2217 5.2025 2.5417 4.9025 3.0817 4.9025H6.9817C7.5217 4.9025 7.8317 5.2025 7.8317 5.7325V24.9525C7.8317 25.4725 7.5217 25.7825 6.9817 25.7825H3.0817C2.5417 25.7825 2.2217 25.4725 2.2217 24.9525ZM15.0217 24.9725V5.7525C15.0217 5.2225 15.3417 4.9225 15.8717 4.9225H19.7817C20.3217 4.9225 20.6217 5.2225 20.6217 5.7525V24.9725C20.6217 25.5025 20.3217 25.8025 19.7817 25.8025H15.8717C15.3417 25.8025 15.0217 25.5025 15.0217 24.9725ZM5.0317 8.8325C5.6617 8.8325 6.1717 8.3325 6.1717 7.7025C6.1717 7.0525 5.6617 6.5525 5.0317 6.5525C4.3917 6.5525 3.8817 7.0525 3.8817 7.7025C3.8817 8.3325 4.3917 8.8325 5.0317 8.8325ZM17.8217 8.8625C18.4617 8.8625 18.9717 8.3425 18.9717 7.7125C18.9717 7.0825 18.4617 6.5625 17.8217 6.5625C17.1917 6.5625 16.6717 7.0825 16.6717 7.7125C16.6717 8.3425 17.1917 8.8625 17.8217 8.8625ZM5.0317 12.6725C5.6617 12.6725 6.1717 12.1525 6.1717 11.5225C6.1717 10.8825 5.6617 10.3725 5.0317 10.3725C4.3917 10.3725 3.8817 10.8825 3.8817 11.5225C3.8817 12.1525 4.3917 12.6725 5.0317 12.6725ZM17.8217 12.6925C18.4617 12.6925 18.9717 12.1725 18.9717 11.5325C18.9717 10.9025 18.4617 10.3925 17.8217 10.3925C17.1917 10.3925 16.6717 10.9025 16.6717 11.5325C16.6717 12.1725 17.1917 12.6925 17.8217 12.6925ZM5.0317 16.4925C5.6617 16.4925 6.1717 15.9725 6.1717 15.3425C6.1717 14.7025 5.6617 14.1925 5.0317 14.1925C4.3917 14.1925 3.8817 14.7025 3.8817 15.3425C3.8817 15.9725 4.3917 16.4925 5.0317 16.4925ZM17.8217 16.5125C18.4617 16.5125 18.9717 15.9925 18.9717 15.3625C18.9717 14.7325 18.4617 14.2125 17.8217 14.2125C17.1917 14.2125 16.6717 14.7325 16.6717 15.3625C16.6717 15.9925 17.1917 16.5125 17.8217 16.5125ZM5.0317 20.3125C5.6617 20.3125 6.1717 19.7925 6.1717 19.1625C6.1717 18.5225 5.6617 18.0125 5.0317 18.0125C4.3917 18.0125 3.8817 18.5225 3.8817 19.1625C3.8817 19.7925 4.3917 20.3125 5.0317 20.3125ZM17.8217 20.3325C18.4617 20.3325 18.9717 19.8125 18.9717 19.1825C18.9717 18.5525 18.4617 18.0325 17.8217 18.0325C17.1917 18.0325 16.6717 18.5525 16.6717 19.1825C16.6717 19.8125 17.1917 20.3325 17.8217 20.3325ZM5.0317 24.1325C5.6617 24.1325 6.1717 23.6225 6.1717 22.9825C6.1717 22.3525 5.6617 21.8425 5.0317 21.8425C4.3917 21.8425 3.8817 22.3525 3.8817 22.9825C3.8817 23.6225 4.3917 24.1325 5.0317 24.1325ZM17.8217 24.1525C18.4617 24.1525 18.9717 23.6325 18.9717 23.0025C18.9717 22.3725 18.4617 21.8525 17.8217 21.8525C17.1917 21.8525 16.6717 22.3725 16.6717 23.0025C16.6717 23.6325 17.1917 24.1525 17.8217 24.1525Z" />
        </svg>
    