
        <svg xmlns="http://www.w3.org/2000/svg" viewBox="0 0 100 100">
            <path d="M12.4717 3.188C12.4717 3.598 12.8117 3.948 13.2317 3.948C13.6617 3.948 14.0117 3.598 14.0117 3.188V0.788C14.0117 0.368 13.6517 -0.002 13.2317 -0.002C12.8117 -0.002 12.4717 0.368 12.4717 0.788ZM5.5617 6.678C5.8617 6.968 6.3517 6.988 6.6517 6.678C6.9617 6.378 6.9617 5.898 6.6517 5.588L4.9717 3.888C4.6717 3.588 4.1817 3.588 3.8817 3.888C3.5817 4.198 3.5817 4.678 3.8817 4.978ZM19.8017 5.588C19.5017 5.898 19.4917 6.378 19.8017 6.678C20.1117 6.988 20.6017 6.988 20.8917 6.678L22.5917 4.978C22.9017 4.678 22.9017 4.198 22.5917 3.888C22.2817 3.588 21.8117 3.588 21.5017 3.888ZM13.2317 6.108C9.2217 6.108 6.0617 9.098 6.0617 12.728C6.0617 16.748 8.5417 17.868 9.2117 25.288C9.2417 25.678 9.4417 25.888 9.8717 25.888H16.6017C17.0317 25.888 17.2117 25.678 17.2617 25.288C17.9317 17.868 20.4017 16.748 20.4017 12.728C20.4017 9.098 17.2417 6.108 13.2317 6.108ZM3.1617 14.018C3.5717 14.018 3.9517 13.668 3.9517 13.258C3.9517 12.828 3.5717 12.468 3.1617 12.468H0.7617C0.3517 12.468 0.0017 12.828 0.0017 13.258C0.0017 13.668 0.3517 14.018 0.7617 14.018ZM25.7017 14.018C26.1117 14.018 26.4817 13.668 26.4817 13.258C26.4817 12.828 26.1117 12.468 25.7017 12.468H23.3017C22.8917 12.468 22.5217 12.828 22.5217 13.258C22.5217 13.668 22.8917 14.018 23.3017 14.018ZM9.8917 28.078H16.5917C16.9317 28.078 17.1917 27.818 17.1917 27.478C17.1917 27.138 16.9317 26.898 16.5917 26.898H9.8917C9.5517 26.898 9.2917 27.138 9.2917 27.478C9.2917 27.818 9.5517 28.078 9.8917 28.078ZM13.2417 31.158C14.9317 31.158 16.2917 30.318 16.3717 29.078H10.1117C10.1817 30.318 11.5417 31.158 13.2417 31.158Z" />
        </svg>
    