
        <svg xmlns="http://www.w3.org/2000/svg" viewBox="0 0 100 100">
            <path d="M4.1417 22.8784H25.3017C27.9817 22.8784 29.4517 21.4184 29.4517 18.7584V4.1084C29.4517 1.4484 27.9817 -0.0016 25.3017 -0.0016H4.1417C1.4617 -0.0016 0.0017 1.4484 0.0017 4.1084V18.7584C0.0017 21.4184 1.4617 22.8784 4.1417 22.8784ZM4.4617 19.8484C3.5317 19.8484 3.0217 19.3984 3.0217 18.3884V4.4784C3.0217 3.4784 3.5317 3.0184 4.4617 3.0184H24.9717C25.9117 3.0184 26.4217 3.4784 26.4217 4.4784V18.3884C26.4217 19.3984 25.9117 19.8484 24.9717 19.8484ZM5.6617 17.9384H23.7817C24.2617 17.9384 24.5117 17.6684 24.5117 17.1884V5.6884C24.5117 5.1884 24.2617 4.9184 23.7817 4.9184H5.6617C5.1817 4.9184 4.9217 5.1884 4.9217 5.6884V17.1884C4.9217 17.6684 5.1817 17.9384 5.6617 17.9384Z" />
        </svg>
    