
        <svg xmlns="http://www.w3.org/2000/svg" viewBox="0 0 100 100">
            <path d="M3.4617 21.2264H17.7617C20.0517 21.2264 21.2217 20.0464 21.2217 17.7964V3.4264C21.2217 1.1764 20.0517 -0.0036 17.7617 -0.0036H3.4617C1.1717 -0.0036 0.0017 1.1564 0.0017 3.4264V17.7964C0.0017 20.0664 1.1717 21.2264 3.4617 21.2264ZM7.4317 16.7564C6.9617 16.7564 6.6217 16.4164 6.6217 15.9464V5.2864C6.6217 4.8164 6.9617 4.4764 7.4317 4.4764H13.7817C14.2617 4.4764 14.5917 4.8164 14.5917 5.2864V15.9464C14.5917 16.4164 14.2617 16.7564 13.7817 16.7564ZM8.1917 9.5364H13.0317C13.2417 9.5364 13.3917 9.3864 13.3917 9.1664V6.0564C13.3917 5.8364 13.2417 5.6864 13.0317 5.6864H8.1917C7.9817 5.6864 7.8317 5.8364 7.8317 6.0564V9.1664C7.8317 9.3864 7.9817 9.5364 8.1917 9.5364Z" />
        </svg>
    