
        <svg xmlns="http://www.w3.org/2000/svg" viewBox="0 0 100 100">
            <path d="M11.9617 25.2538C19.1717 25.2538 23.9417 22.7738 23.9417 18.9038V6.8038C23.9417 2.6838 19.1617 0.0038 11.9617 0.0038C4.7817 0.0038 0.0017 2.6838 0.0017 6.8038V18.9038C0.0017 22.7738 4.7717 25.2538 11.9617 25.2538ZM2.1917 18.9038C2.1917 16.5138 6.1717 14.7538 11.9617 14.7538C17.7617 14.7538 21.7517 16.5138 21.7517 18.9038C21.7517 21.3038 17.7617 23.0638 11.9617 23.0638C6.1717 23.0638 2.1917 21.3038 2.1917 18.9038ZM7.0517 16.4438C7.2117 18.1538 9.3417 19.5238 11.9617 19.5238C14.5917 19.5238 16.7317 18.1538 16.8917 16.4438C15.5017 16.1037 13.8117 15.9038 11.9617 15.9038C10.1217 15.9038 8.4417 16.1037 7.0517 16.4438Z" />
        </svg>
    