
        <svg xmlns="http://www.w3.org/2000/svg" viewBox="0 0 100 100">
            <path d="M3.0117 19.8902H24.0317C25.9917 19.8902 27.0517 18.8202 27.0517 16.8702V3.0102C27.0517 1.0802 25.9917 0.0002 24.0317 0.0002H3.0117C1.0417 0.0002 0.0017 1.0402 0.0017 3.0102V16.8702C0.0017 18.8402 1.0417 19.8902 3.0117 19.8902ZM3.0317 19.3102C1.4217 19.3102 0.5717 18.4802 0.5717 16.8502V3.0502C0.5717 1.4202 1.4217 0.5702 3.0317 0.5702H24.0017C25.5717 0.5702 26.4717 1.4202 26.4717 3.0502V16.8502C26.4717 18.4802 25.5717 19.3102 24.0017 19.3102ZM3.0217 18.4302H24.0117C25.0417 18.4302 25.5817 17.8902 25.5817 16.8602V3.0202C25.5817 2.0002 25.0417 1.4602 24.0117 1.4602H3.0217C2.0017 1.4602 1.4517 2.0002 1.4517 3.0202V16.8602C1.4517 17.8902 2.0017 18.4302 3.0217 18.4302ZM3.0117 17.8502C2.3117 17.8502 2.0417 17.5802 2.0417 16.8902V3.0102C2.0417 2.3202 2.3117 2.0402 3.0117 2.0402H24.0317C24.7217 2.0402 24.9917 2.3202 24.9917 3.0102V16.8902C24.9917 17.5802 24.7217 17.8502 24.0317 17.8502Z" />
        </svg>
    