
        <svg xmlns="http://www.w3.org/2000/svg" viewBox="0 0 100 100">
            <path d="M14.1317 4.0045C14.1317 4.9245 14.8817 5.7045 15.8117 5.7045C16.7417 5.7045 17.5117 4.9245 17.5117 4.0045V1.6845C17.5117 0.7745 16.7217 0.0045 15.8117 0.0045C14.8917 0.0045 14.1317 0.7745 14.1317 1.6845ZM23.0717 6.1745C22.4217 6.8345 22.4017 7.8945 23.0717 8.5545C23.7317 9.2245 24.8017 9.2145 25.4517 8.5545L27.1017 6.9145C27.7617 6.2545 27.7617 5.1945 27.1017 4.5345C26.4417 3.8745 25.3817 3.8745 24.7217 4.5345ZM6.1617 8.5545C6.8217 9.2145 7.9017 9.2245 8.5417 8.5545C9.2217 7.8945 9.2017 6.8345 8.5417 6.1745L6.9017 4.5345C6.2617 3.8745 5.1817 3.8745 4.5217 4.5345C3.8717 5.1945 3.8717 6.2545 4.5217 6.9145ZM15.8117 7.3145C11.5417 7.3145 8.0117 10.3845 8.0117 14.5545C8.0117 18.5645 10.2917 20.1445 10.8117 26.5945C10.8717 27.5245 11.5117 28.1045 12.4417 28.1045H19.1817C20.1117 28.1045 20.7417 27.5245 20.8217 26.5945C21.3417 20.1445 23.6217 18.5645 23.6217 14.5645C23.6217 10.3945 20.0817 7.3145 15.8117 7.3145ZM15.8117 10.2445C18.4617 10.2545 20.6917 11.9745 20.6917 14.5545C20.6917 16.9945 18.9417 17.7645 18.1217 25.1745H13.5117C12.6917 17.7645 10.9417 16.9945 10.9417 14.5545C10.9417 11.9745 13.1617 10.2445 15.8117 10.2445ZM4.0117 17.5045C4.9217 17.5045 5.7117 16.7445 5.7117 15.8245C5.7117 14.8945 4.9217 14.1345 4.0117 14.1345H1.6917C0.7717 14.1345 0.0017 14.9045 0.0017 15.8245C0.0017 16.7345 0.7717 17.5045 1.6917 17.5045ZM29.9417 17.5045C30.8517 17.5045 31.6317 16.7345 31.6317 15.8245C31.6317 14.9045 30.8517 14.1345 29.9417 14.1345H27.6217C26.7117 14.1345 25.9217 14.8945 25.9217 15.8245C25.9217 16.7445 26.7117 17.5045 27.6217 17.5045ZM12.2217 31.1745H19.4017C19.9417 31.1745 20.3817 30.7145 20.3817 30.2145C20.3817 29.6945 19.9417 29.2545 19.4017 29.2545H12.2217C11.6817 29.2545 11.2517 29.6945 11.2517 30.2145C11.2517 30.7145 11.6817 31.1745 12.2217 31.1745ZM15.8117 34.6445C17.7117 34.6445 19.0917 33.7245 19.1717 32.3345H12.4217C12.5017 33.7245 13.9217 34.6445 15.8117 34.6445Z" />
        </svg>
    