
        <svg xmlns="http://www.w3.org/2000/svg" viewBox="0 0 100 100">
            <path d="M15.8223 18.9614C25.1223 18.9614 31.6523 14.7214 31.6523 9.4814C31.6523 4.2314 25.1223 0.0014 15.8223 0.0014C6.5123 0.0014 0.0023 4.2314 0.0023 9.4814C0.0023 14.7214 6.5123 18.9614 15.8223 18.9614ZM15.8223 15.7814C9.6823 15.7814 5.1223 13.2214 5.1223 9.8014C5.1223 6.3714 9.6923 3.8114 15.8223 3.8114C21.9623 3.8114 26.5323 6.3714 26.5323 9.8014C26.5323 13.2114 21.9523 15.7814 15.8223 15.7814ZM15.8223 14.5614C21.1423 14.5614 25.3123 12.4414 25.3123 9.8014C25.3123 8.6514 24.5523 7.6214 23.2423 6.8114C22.0123 8.8514 19.0923 10.2814 15.7723 10.2814C12.4823 10.2814 9.5723 8.8714 8.3323 6.8514C7.0823 7.6514 6.3423 8.6714 6.3423 9.8014C6.3423 12.4414 10.4723 14.5614 15.8223 14.5614Z" />
        </svg>
    