
        <svg xmlns="http://www.w3.org/2000/svg" viewBox="0 0 100 100">
            <path d="M12.1517 19.673C12.6717 19.673 12.9517 19.393 12.9517 18.883V0.793C12.9517 0.283 12.6717 0.003 12.1517 0.003C11.6217 0.003 11.3517 0.283 11.3517 0.793V18.883C11.3517 19.393 11.6217 19.673 12.1517 19.673ZM0.8017 15.153C1.3117 15.153 1.5917 14.873 1.5917 14.353V5.323C1.5917 4.803 1.3117 4.523 0.8017 4.523C0.2817 4.523 0.0017 4.803 0.0017 5.323V14.353C0.0017 14.873 0.2817 15.153 0.8017 15.153ZM23.4917 15.153C24.0217 15.153 24.2917 14.873 24.2917 14.353V5.323C24.2917 4.803 24.0217 4.523 23.4917 4.523C22.9817 4.523 22.7017 4.803 22.7017 5.323V14.353C22.7017 14.873 22.9817 15.153 23.4917 15.153ZM6.4817 12.273C6.9917 12.273 7.2617 12.013 7.2617 11.483V8.193C7.2617 7.663 6.9917 7.403 6.4817 7.403C5.9617 7.403 5.6817 7.663 5.6817 8.193V11.483C5.6817 12.013 5.9617 12.273 6.4817 12.273ZM17.8117 12.273C18.3417 12.273 18.6117 12.013 18.6117 11.483V8.193C18.6117 7.663 18.3417 7.403 17.8117 7.403C17.3017 7.403 17.0417 7.663 17.0417 8.193V11.483C17.0417 12.013 17.3017 12.273 17.8117 12.273Z" />
        </svg>
    