
        <svg xmlns="http://www.w3.org/2000/svg" viewBox="0 0 100 100">
            <path d="M11.9523 23.9041C18.5523 23.9041 23.9023 18.5341 23.9023 11.9541C23.9023 5.3541 18.5523 0.0041 11.9523 0.0041C5.3623 0.0041 0.0023 5.3541 0.0023 11.9541C0.0023 18.5341 5.3623 23.9041 11.9523 23.9041ZM5.3923 9.5541C4.8523 9.5541 4.4623 9.2141 4.4623 8.6941C4.4623 8.1841 4.8523 7.8441 5.3923 7.8441H18.5623C19.0923 7.8441 19.4923 8.1841 19.4923 8.6941C19.4923 9.2141 19.0923 9.5541 18.5623 9.5541ZM7.1823 13.5541C6.6323 13.5541 6.2623 13.2141 6.2623 12.6941C6.2623 12.1741 6.6323 11.8341 7.1823 11.8341H16.7723C17.3123 11.8341 17.6823 12.1741 17.6823 12.6941C17.6823 13.2141 17.3123 13.5541 16.7723 13.5541ZM9.0423 17.5641C8.5123 17.5641 8.1323 17.2141 8.1323 16.7041C8.1323 16.1941 8.5123 15.8541 9.0423 15.8541H14.8923C15.4323 15.8541 15.8223 16.1941 15.8223 16.7041C15.8223 17.2141 15.4323 17.5641 14.8923 17.5641Z" />
        </svg>
    