
        <svg xmlns="http://www.w3.org/2000/svg" viewBox="0 0 100 100">
            <path d="M11.9523 23.9041C18.5523 23.9041 23.9023 18.5341 23.9023 11.9541C23.9023 5.3541 18.5523 0.0041 11.9523 0.0041C5.3623 0.0041 0.0023 5.3541 0.0023 11.9541C0.0023 18.5341 5.3623 23.9041 11.9523 23.9041ZM5.8823 8.8041C5.3323 8.8041 4.9523 8.4641 4.9523 7.9441C4.9523 7.4341 5.3323 7.0941 5.8823 7.0941H18.0723C18.6123 7.0941 18.9923 7.4341 18.9923 7.9441C18.9923 8.4641 18.6123 8.8041 18.0723 8.8041ZM5.8823 12.8041C5.3323 12.8041 4.9523 12.4641 4.9523 11.9441C4.9523 11.4241 5.3323 11.0841 5.8823 11.0841H18.0723C18.6123 11.0841 18.9923 11.4241 18.9923 11.9441C18.9923 12.4641 18.6123 12.8041 18.0723 12.8041ZM5.8823 16.8141C5.3323 16.8141 4.9523 16.4641 4.9523 15.9541C4.9523 15.4441 5.3323 15.1041 5.8823 15.1041H18.0723C18.6123 15.1041 18.9923 15.4441 18.9923 15.9541C18.9923 16.4641 18.6123 16.8141 18.0723 16.8141Z" />
        </svg>
    