
        <svg xmlns="http://www.w3.org/2000/svg" viewBox="0 0 100 100">
            <path d="M14.0717 25.5327C18.4317 25.5327 21.2617 22.7027 21.2617 18.3527V12.6127C21.2617 10.9527 20.7417 9.6127 19.7017 8.6627L12.2917 1.8527C10.8017 0.4827 9.2117 0.0027 7.3317 0.0027H3.7117C1.4617 0.0027 0.0017 1.4727 0.0017 3.7227V21.8227C0.0017 24.1427 1.4017 25.5327 3.7417 25.5327ZM5.7817 13.6127C5.2717 13.6127 4.9217 13.3027 4.9217 12.8227C4.9217 12.3527 5.2717 12.0227 5.7817 12.0227H15.2417C15.7517 12.0227 16.1017 12.3527 16.1017 12.8227C16.1017 13.3027 15.7517 13.6127 15.2417 13.6127ZM5.7817 17.0027C5.2717 17.0027 4.9217 16.6827 4.9217 16.2027C4.9217 15.7427 5.2717 15.4227 5.7817 15.4227H15.2417C15.7517 15.4227 16.1017 15.7427 16.1017 16.2027C16.1017 16.6827 15.7517 17.0027 15.2417 17.0027ZM5.7817 20.4027C5.2717 20.4027 4.9217 20.0827 4.9217 19.6027C4.9217 19.1227 5.2717 18.8127 5.7817 18.8127H15.2417C15.7517 18.8127 16.1017 19.1227 16.1017 19.6027C16.1017 20.0827 15.7517 20.4027 15.2417 20.4027Z" />
        </svg>
    