
        <svg xmlns="http://www.w3.org/2000/svg" viewBox="0 0 100 100">
            <path d="M11.4923 22.977C17.8323 22.977 22.9823 17.847 22.9823 11.497C22.9823 5.147 17.8323 -0.003 11.4923 -0.003C5.1423 -0.003 0.0023 5.147 0.0023 11.497C0.0023 17.847 5.1423 22.977 11.4923 22.977ZM11.4923 22.087C5.6323 22.087 0.8923 17.357 0.8923 11.497C0.8923 5.637 5.6323 0.887 11.4923 0.887C17.3523 0.887 22.0923 5.637 22.0923 11.497C22.0923 17.357 17.3523 22.087 11.4923 22.087ZM4.9723 8.027H18.0423C18.2823 8.027 18.4723 7.867 18.4723 7.617C18.4723 7.367 18.2823 7.207 18.0423 7.207H4.9723C4.7223 7.207 4.5323 7.367 4.5323 7.617C4.5323 7.867 4.7223 8.027 4.9723 8.027ZM4.9723 11.887H18.0423C18.2823 11.887 18.4723 11.717 18.4723 11.477C18.4723 11.227 18.2823 11.067 18.0423 11.067H4.9723C4.7223 11.067 4.5323 11.227 4.5323 11.477C4.5323 11.717 4.7223 11.887 4.9723 11.887ZM4.9723 15.777H18.0423C18.2823 15.777 18.4723 15.607 18.4723 15.367C18.4723 15.117 18.2823 14.957 18.0423 14.957H4.9723C4.7223 14.957 4.5323 15.117 4.5323 15.367C4.5323 15.607 4.7223 15.777 4.9723 15.777Z" />
        </svg>
    