
        <svg xmlns="http://www.w3.org/2000/svg" viewBox="0 0 100 100">
            <path d="M4.5217 0.7394C4.5217 1.2394 4.7817 1.4894 5.2717 1.4894H14.3117C14.8017 1.4894 15.0517 1.2394 15.0517 0.7394C15.0517 0.2494 14.8017 -0.0006 14.3117 -0.0006H5.2717C4.7817 -0.0006 4.5217 0.2494 4.5217 0.7394ZM7.4017 5.8194C7.4017 6.3194 7.6417 6.5594 8.1317 6.5594H11.4417C11.9317 6.5594 12.1717 6.3194 12.1717 5.8194C12.1717 5.3294 11.9317 5.0694 11.4417 5.0694H8.1317C7.6417 5.0694 7.4017 5.3294 7.4017 5.8194ZM0.0017 10.8994C0.0017 11.3894 0.2417 11.6494 0.7517 11.6494H18.8317C19.3217 11.6494 19.5817 11.3894 19.5817 10.8994C19.5817 10.4094 19.3217 10.1494 18.8317 10.1494H0.7517C0.2417 10.1494 0.0017 10.4094 0.0017 10.8994ZM7.4017 15.9594C7.4017 16.4694 7.6417 16.7094 8.1317 16.7094H11.4417C11.9317 16.7094 12.1717 16.4694 12.1717 15.9594C12.1717 15.4694 11.9317 15.2294 11.4417 15.2294H8.1317C7.6417 15.2294 7.4017 15.4694 7.4017 15.9594ZM4.5217 21.0494C4.5217 21.5494 4.7817 21.7994 5.2717 21.7994H14.3117C14.8017 21.7994 15.0517 21.5494 15.0517 21.0494C15.0517 20.5594 14.8017 20.3094 14.3117 20.3094H5.2717C4.7817 20.3094 4.5217 20.5594 4.5217 21.0494Z" />
        </svg>
    