
        <svg xmlns="http://www.w3.org/2000/svg" viewBox="0 0 100 100">
            <path d="M12.1023 24.2064C18.7823 24.2064 24.2123 18.7864 24.2123 12.1064C24.2123 5.4264 18.7823 -0.0036 12.1023 -0.0036C5.4223 -0.0036 0.0023 5.4264 0.0023 12.1064C0.0023 18.7864 5.4223 24.2064 12.1023 24.2064ZM12.1023 21.8164C6.7223 21.8164 2.3823 17.4864 2.3823 12.1064C2.3823 6.7264 6.7223 2.3764 12.1023 2.3764C17.4823 2.3764 21.8323 6.7264 21.8323 12.1064C21.8323 17.4864 17.4823 21.8164 12.1023 21.8164ZM6.5423 9.1564H17.6923C18.2723 9.1564 18.6823 8.7764 18.6823 8.2264C18.6823 7.6764 18.2723 7.3164 17.6923 7.3164H6.5423C5.9523 7.3164 5.5423 7.6764 5.5423 8.2264C5.5423 8.7764 5.9523 9.1564 6.5423 9.1564ZM6.5423 13.0164H17.6923C18.2723 13.0164 18.6823 12.6464 18.6823 12.0964C18.6823 11.5464 18.2723 11.1764 17.6923 11.1764H6.5423C5.9523 11.1764 5.5423 11.5464 5.5423 12.0964C5.5423 12.6464 5.9523 13.0164 6.5423 13.0164ZM6.5423 16.8964H17.6923C18.2723 16.8964 18.6823 16.5264 18.6823 15.9764C18.6823 15.4264 18.2723 15.0564 17.6923 15.0564H6.5423C5.9523 15.0564 5.5423 15.4264 5.5423 15.9764C5.5423 16.5264 5.9523 16.8964 6.5423 16.8964Z" />
        </svg>
    