
        <svg xmlns="http://www.w3.org/2000/svg" viewBox="0 0 100 100">
            <path d="M11.4923 22.9836C17.8123 22.9836 22.9823 17.8136 22.9823 11.4836C22.9823 5.1536 17.8123 0.0036 11.4923 0.0036C5.1723 0.0036 0.0023 5.1536 0.0023 11.4836C0.0023 17.8136 5.1723 22.9836 11.4923 22.9836ZM16.6923 6.0036C18.0123 7.3036 17.9323 8.9836 16.4923 10.4136L13.9123 12.9836C14.1123 12.5236 14.1323 12.1036 14.0623 11.8136L15.9823 9.8636C17.1123 8.8036 17.1323 7.5136 16.1323 6.5436C15.1723 5.5636 13.9023 5.6036 12.8223 6.7036L10.4223 9.0936C9.3123 10.1736 9.2623 11.4836 10.2523 12.4336C10.7623 12.9636 11.2723 13.1636 11.8923 13.1636C11.8023 13.4536 11.5423 13.7236 11.3423 13.8636C10.8023 13.8036 10.2823 13.5236 9.7223 12.9636C8.4023 11.6636 8.4723 9.9736 9.9123 8.5436L12.2823 6.2036C13.7023 4.7836 15.3523 4.7036 16.6923 6.0036ZM5.8123 16.8736C4.4723 15.5736 4.5723 13.8836 6.0023 12.4736L8.5823 9.8936C8.3923 10.3636 8.3623 10.7736 8.4223 11.0736L6.5023 13.0236C5.4023 14.0836 5.3523 15.3736 6.3523 16.3336C7.3223 17.3236 8.6023 17.2736 9.6823 16.1736L12.0723 13.7936C13.1823 12.7036 13.2323 11.4036 12.2323 10.4436C11.7423 9.9236 11.2223 9.7136 10.6023 9.7236C10.7023 9.4236 10.9523 9.1636 11.1523 9.0236C11.6823 9.0836 12.2123 9.3636 12.7623 9.9136C14.1023 11.2136 14.0123 12.9136 12.5723 14.3436L10.2223 16.6736C8.7923 18.1036 7.1323 18.1836 5.8123 16.8736Z" />
        </svg>
    