
        <svg xmlns="http://www.w3.org/2000/svg" viewBox="0 0 100 100">
            <path d="M23.1523 20.3638C26.6923 20.3638 29.4623 17.7738 29.4623 14.5538C29.4623 12.0938 28.0423 9.9637 25.7623 9.0038C25.7823 3.7738 22.0223 0.0038 17.2223 0.0038C14.0523 0.0038 11.7923 1.7037 10.3823 3.7538C7.5023 2.9037 4.3623 5.0938 4.3023 8.3837C1.6523 8.8038 0.0023 11.1638 0.0023 14.0238C0.0023 17.4738 3.0123 20.3638 7.0223 20.3638ZM23.1523 18.4838H7.0223C4.0623 18.4838 1.8823 16.4138 1.8823 14.0238C1.8823 11.6838 3.3023 9.8238 5.7923 9.8238C5.9523 9.8238 6.0123 9.7338 6.0123 9.5838C6.0123 5.9738 8.6123 4.9138 11.0123 5.6938C11.1523 5.7438 11.2423 5.7037 11.3123 5.5738C12.4423 3.5538 14.1923 1.8837 17.2223 1.8837C21.0723 1.8837 23.7323 4.9338 23.9323 8.4138C23.9623 8.9538 23.9323 9.5838 23.8823 10.1337C23.8723 10.2938 23.9323 10.3738 24.0723 10.4038C26.2023 10.8738 27.5723 12.4338 27.5723 14.5538C27.5723 16.7338 25.6523 18.4838 23.1523 18.4838ZM20.0423 5.5538C18.7623 4.2638 16.9323 4.2638 15.6423 5.5437L13.2823 7.9138C12.0023 9.1838 12.0123 11.0138 13.2923 12.3038C13.7023 12.7237 14.1823 12.9538 14.4923 13.0538L15.1123 12.4438C15.3123 12.2138 15.3523 12.1537 15.4523 11.9737C15.0123 11.9838 14.5423 11.7938 14.1723 11.4138C13.3723 10.6138 13.3623 9.5238 14.1823 8.7137L16.4423 6.4438C17.2523 5.6337 18.3623 5.6337 19.1523 6.4338C19.9323 7.2438 19.9423 8.3538 19.1523 9.1538L18.1523 10.1238C18.3023 10.6838 18.2823 11.2938 18.0323 11.9438L20.0423 9.9338C21.3123 8.6438 21.3023 6.8338 20.0423 5.5538ZM10.0323 15.5538C11.3223 16.8238 13.1223 16.8238 14.4223 15.5538L16.7923 13.1838C18.0823 11.9037 18.0723 10.0938 16.7923 8.8038C16.3823 8.3837 15.9223 8.1538 15.5723 8.0538L14.9623 8.6438C14.8523 8.7738 14.6923 8.9438 14.5323 9.1738C15.0223 9.0938 15.5023 9.2838 15.9023 9.6938C16.7023 10.4738 16.7123 11.5738 15.8923 12.3837L13.6323 14.6638C12.8323 15.4538 11.7023 15.4538 10.9223 14.6738C10.1223 13.8638 10.1223 12.7538 10.9223 11.9538L11.9223 10.9538C11.7623 10.4138 11.7923 9.8038 12.0323 9.1638L10.0323 11.1538C8.7523 12.4338 8.7523 14.2638 10.0323 15.5538Z" />
        </svg>
    