
        <svg xmlns="http://www.w3.org/2000/svg" viewBox="0 0 100 100">
            <path d="M11.1933 18.7887L13.9833 16.0187C13.2133 15.8787 12.2833 15.4787 11.7833 14.9887C10.0633 13.2587 10.0433 10.8987 11.7633 9.1887L15.9433 5.0187C17.6633 3.2987 20.0133 3.3087 21.7333 5.0287C23.4633 6.7487 23.4733 9.1187 21.7633 10.8287L21.0533 11.5287C21.6333 12.8787 21.9333 14.6887 21.3833 16.2387L24.3933 13.2687C27.5933 10.1187 27.5633 5.5687 24.3833 2.3887C21.1833 -0.7913 16.6733 -0.7913 13.5033 2.3787L9.1233 6.7387C5.9533 9.9187 5.9633 14.4387 9.1433 17.6187C9.5933 18.0687 10.4633 18.5787 11.1933 18.7887ZM15.5833 7.9087L12.7933 10.6787C13.5533 10.8187 14.4933 11.2287 14.9833 11.7187C16.7233 13.4387 16.7333 15.8087 15.0233 17.5187L10.8433 21.6887C9.1133 23.4087 6.7633 23.3887 5.0533 21.6687C3.3133 19.9487 3.3033 17.5887 5.0133 15.8687L5.7333 15.1687C5.1433 13.8287 4.8433 12.0087 5.4033 10.4687L2.3933 13.4287C-0.8167 16.5787 -0.7767 21.1287 2.4033 24.3087C5.5933 27.5087 10.1033 27.5087 13.2733 24.3287L17.6633 19.9587C20.8333 16.7787 20.8233 12.2587 17.6333 9.0787C17.1933 8.6287 16.3133 8.1187 15.5833 7.9087Z" />
        </svg>
    