
        <svg xmlns="http://www.w3.org/2000/svg" viewBox="0 0 100 100">
            <path d="M12.7923 25.5978C19.8723 25.5978 25.6023 19.8678 25.6023 12.7978C25.6023 5.7278 19.8723 -0.0022 12.7923 -0.0022C5.7323 -0.0022 0.0023 5.7278 0.0023 12.7978C0.0023 19.8678 5.7323 25.5978 12.7923 25.5978ZM12.7923 21.4178C8.0323 21.4178 4.1723 17.5678 4.1723 12.7978C4.1723 8.0278 8.0323 4.1678 12.7923 4.1678C17.5623 4.1678 21.4323 8.0278 21.4323 12.7978C21.4323 17.5678 17.5623 21.4178 12.7923 21.4178ZM17.6623 7.6678C16.1623 6.1478 14.2723 6.3278 12.5323 8.0278L11.3523 9.1678C9.5823 10.8778 9.4823 12.8578 11.0023 14.3178C11.3123 14.6178 11.7023 14.9178 11.9723 15.1078C12.4023 14.7678 12.8523 14.1578 12.9723 13.8278C12.7523 13.6978 12.3123 13.4178 12.1123 13.2078C11.2923 12.3878 11.4223 11.3178 12.5023 10.2578L13.5823 9.1878C14.6723 8.1278 15.7223 7.9778 16.5423 8.7778C17.3523 9.5878 17.2223 10.6878 16.1523 11.7378L15.6023 12.2678C15.8423 12.6178 15.9523 13.6978 15.7823 14.3278L17.2923 12.8178C19.0323 11.0978 19.1623 9.1678 17.6623 7.6678ZM7.5023 17.9578C9.0123 19.4678 10.8823 19.2878 12.6323 17.5878L13.8023 16.4578C15.5723 14.7378 15.6823 12.7578 14.1523 11.2978C13.8523 11.0078 13.4523 10.6978 13.1823 10.5078C12.7623 10.8478 12.3023 11.4478 12.1923 11.7878C12.4123 11.9178 12.8423 12.1978 13.0423 12.4078C13.8623 13.2278 13.7323 14.2978 12.6523 15.3678L11.5823 16.4278C10.5023 17.4878 9.4323 17.6378 8.6223 16.8378C7.8023 16.0278 7.9323 14.9278 9.0123 13.8778L9.5623 13.3478C9.3123 12.9978 9.2123 11.9178 9.3723 11.2878L7.8623 12.7978C6.1323 14.5178 6.0023 16.4578 7.5023 17.9578Z" />
        </svg>
    