
        <svg xmlns="http://www.w3.org/2000/svg" viewBox="0 0 100 100">
            <path d="M26.7423 13.3289C26.7423 6.3189 21.3423 0.5589 14.4723 0.0089C14.1123 -0.0411 13.8123 0.2389 13.8123 0.6189V3.8989C13.8123 4.2089 14.0423 4.4689 14.3823 4.4889C18.7923 4.9889 22.2523 8.7589 22.2523 13.3289C22.2523 15.4289 21.5423 17.3589 20.3123 18.8589C20.1023 19.1189 20.1023 19.4389 20.3423 19.6689L22.6723 21.9989C22.9423 22.2589 23.3423 22.2589 23.5823 21.9689C25.5423 19.6389 26.7423 16.6189 26.7423 13.3289ZM0.0023 13.3289C0.0023 16.6389 1.2023 19.6689 3.2023 21.9989C3.4223 22.2689 3.7923 22.2589 4.0623 21.9989L6.4123 19.6689C6.6423 19.4389 6.6423 19.1189 6.4323 18.8589C5.2123 17.3589 4.4923 15.4289 4.4923 13.3289C4.4923 8.7589 7.9423 4.9889 12.3723 4.4889C12.7023 4.4689 12.9223 4.2089 12.9223 3.8989V0.6189C12.9223 0.2389 12.6423 -0.0411 12.2723 0.0089C5.4123 0.5589 0.0023 6.3189 0.0023 13.3289ZM9.9223 18.2289H16.7423C16.9123 18.2289 17.0323 18.1089 17.0323 17.9589C17.0323 17.8089 16.9123 17.6889 16.7423 17.6889H10.8323V17.5989C11.7923 17.4389 12.4223 16.2589 12.4223 15.1689C12.4223 15.0089 12.4123 14.8489 12.3823 14.6989H15.5023C15.6323 14.6989 15.7523 14.5789 15.7523 14.4589C15.7523 14.3289 15.6323 14.2189 15.5023 14.2189H12.3123C12.2123 13.6589 12.0323 13.1889 11.8923 12.6689H15.5023C15.6323 12.6689 15.7523 12.5589 15.7523 12.4289C15.7523 12.2889 15.6323 12.1889 15.5023 12.1889H11.7923C11.7623 11.9589 11.7323 11.6989 11.7323 11.4389C11.7323 9.8889 12.8823 9.0789 14.4723 9.0789C15.0623 9.0789 15.5423 9.1789 15.7723 9.2589C15.9523 9.3189 16.1823 9.3889 16.3023 9.3889C16.4323 9.3889 16.5123 9.3089 16.5123 9.1789C16.5123 9.0189 16.4223 8.9489 16.2523 8.8689C15.7023 8.6189 15.0423 8.5289 14.4223 8.5289C12.4123 8.5289 11.1023 9.5989 11.1023 11.4889C11.1023 11.7389 11.1223 11.9589 11.1423 12.1889H10.0523C9.9223 12.1889 9.8123 12.2889 9.8123 12.4289C9.8123 12.5589 9.9223 12.6689 10.0523 12.6689H11.2523C11.3923 13.2089 11.5623 13.7089 11.6823 14.2189H10.0523C9.9223 14.2189 9.8123 14.3289 9.8123 14.4589C9.8123 14.5789 9.9223 14.6989 10.0523 14.6989H11.7823C11.7923 14.8689 11.8023 15.0289 11.8023 15.1889C11.8123 16.3889 11.0623 17.3289 9.9123 17.6189C9.7423 17.6689 9.6323 17.7589 9.6323 17.9389C9.6323 18.1389 9.7423 18.2289 9.9223 18.2289Z" />
        </svg>
    