
        <svg xmlns="http://www.w3.org/2000/svg" viewBox="0 0 100 100">
            <path d="M0.8844 9.8536C-0.0156 9.8536 -0.2356 10.5736 0.2544 11.2236L3.0444 15.0536C3.4244 15.5736 4.0244 15.5636 4.3944 15.0536L7.1944 11.2236C7.6744 10.5736 7.4344 9.8536 6.5444 9.8536H5.0444C6.1044 5.7336 9.8444 2.6836 14.2944 2.6836C19.5644 2.6836 23.8344 6.9536 23.8344 12.2236C23.8344 17.4936 19.5644 21.7636 14.2944 21.7636C11.2944 21.7636 8.6544 20.3836 6.9244 18.2036C6.3744 17.6036 5.5844 17.4136 4.9544 17.9036C4.3644 18.3536 4.2844 19.1936 4.8744 19.9136C6.9544 22.6636 10.5944 24.4436 14.2944 24.4436C21.0444 24.4436 26.5144 18.9736 26.5144 12.2236C26.5144 5.4736 21.0444 0.0036 14.2944 0.0036C8.3544 0.0036 3.3944 4.2436 2.2944 9.8536ZM10.8544 17.2236H17.5144C17.9844 17.2236 18.2944 16.9136 18.2944 16.4736C18.2944 16.0436 17.9844 15.7236 17.5144 15.7236H12.6344V15.6636C13.3344 15.3536 13.7044 14.6436 13.8144 13.8436C13.8244 13.7436 13.8344 13.6436 13.8344 13.5336H16.5644C16.7944 13.5336 16.9644 13.3736 16.9644 13.1336C16.9644 12.9136 16.7944 12.7536 16.5644 12.7536H13.7944C13.7244 12.2736 13.5844 11.8836 13.4644 11.4636H16.5644C16.7944 11.4636 16.9644 11.2836 16.9644 11.0636C16.9644 10.8436 16.7944 10.6636 16.5644 10.6636H13.3344C13.3244 10.5536 13.3144 10.4336 13.3144 10.3036C13.3144 9.0436 14.3644 8.4636 15.6344 8.4636C16.0244 8.4636 16.5344 8.5336 16.8044 8.5936C16.9944 8.6336 17.1644 8.6436 17.3044 8.6436C17.7544 8.6436 17.9544 8.3936 17.9544 8.0536C17.9544 7.6436 17.6944 7.4036 17.3344 7.2636C16.7344 7.0336 16.0044 6.9936 15.3744 6.9936C13.1944 6.9936 11.4844 8.0836 11.4844 10.1736C11.4844 10.3436 11.5044 10.5136 11.5144 10.6636H10.4144C10.1844 10.6636 10.0044 10.8436 10.0044 11.0636C10.0044 11.2836 10.1844 11.4636 10.4144 11.4636H11.6544C11.7644 11.9036 11.9044 12.3136 11.9844 12.7536H10.4144C10.1844 12.7536 10.0044 12.9136 10.0044 13.1336C10.0044 13.3736 10.1844 13.5336 10.4144 13.5336H12.0544C12.0644 13.6436 12.0444 13.7936 12.0244 13.9136C11.8944 14.7636 11.3444 15.3536 10.6944 15.6336C10.3344 15.8036 10.0744 16.0436 10.0744 16.4636C10.0744 16.9436 10.4144 17.2236 10.8544 17.2236Z" />
        </svg>
    