
        <svg xmlns="http://www.w3.org/2000/svg" viewBox="0 0 100 100">
            <path d="M15.1723 5.9423C17.2523 5.9423 19.1623 6.6223 20.7023 7.7823C21.0623 8.0423 21.5023 8.0123 21.8223 7.6923L24.7823 4.7123C25.1823 4.3223 25.1723 3.7423 24.7423 3.4023C22.1223 1.2723 18.7923 0.0023 15.1723 0.0023C11.5523 0.0023 8.2223 1.2723 5.6223 3.4023C5.1923 3.7423 5.1723 4.3223 5.5623 4.7123L8.5323 7.6923C8.8523 8.0123 9.3123 8.0423 9.6823 7.7723C11.2123 6.6223 13.1223 5.9423 15.1723 5.9423ZM30.3523 15.1723C30.3523 11.5423 29.0723 8.1923 26.9223 5.5623C26.6023 5.1823 26.0423 5.1823 25.6423 5.5623L22.6623 8.5323C22.3223 8.8723 22.3223 9.3123 22.5923 9.6823C23.7323 11.2223 24.4123 13.1223 24.4123 15.1723C24.4123 17.3323 23.6823 19.3223 22.4223 20.9023C22.1323 21.2823 22.1323 21.7423 22.4623 22.0623L25.4423 25.0423C25.8123 25.4223 26.3823 25.4223 26.7423 25.0123C28.9923 22.3623 30.3523 18.9423 30.3523 15.1723ZM0.0023 15.1723C0.0023 18.9523 1.3823 22.4023 3.6523 25.0523C3.9823 25.4423 4.5323 25.4223 4.9223 25.0423L7.8823 22.0623C8.2123 21.7423 8.2223 21.2823 7.9323 20.9023C6.6823 19.3223 5.9423 17.3323 5.9423 15.1723C5.9423 13.1223 6.6223 11.2223 7.7623 9.6823C8.0323 9.3123 8.0323 8.8723 7.6923 8.5323L4.7123 5.5623C4.3223 5.1823 3.7423 5.1923 3.3823 5.6223C1.2623 8.2223 0.0023 11.5523 0.0023 15.1723ZM11.9523 19.8523H17.9523C18.6823 19.8523 19.1223 19.4023 19.1223 18.7423C19.1223 18.0623 18.6823 17.6223 17.9523 17.6223H14.2823V17.5523C14.7623 17.2223 15.0023 16.7423 15.1023 16.2223C15.1323 16.1623 15.1423 16.0823 15.1423 16.0323H17.4923C17.6723 16.0323 17.8023 15.9023 17.8023 15.7223C17.8023 15.5723 17.6723 15.4423 17.4923 15.4423H15.1623C15.1323 14.9723 15.0023 14.6523 14.8923 14.2723H17.4923C17.6723 14.2723 17.8023 14.1523 17.8023 13.9823C17.8023 13.8123 17.6723 13.6923 17.4923 13.6923H14.7823C14.7623 13.5923 14.7623 13.4923 14.7623 13.3923C14.7623 12.4223 15.6723 12.1023 16.6523 12.1023C16.9523 12.1023 17.4023 12.1523 17.5623 12.1723C17.8123 12.2123 17.9923 12.2123 18.2023 12.2123C18.7623 12.2123 19.1223 11.8823 19.1223 11.3623C19.1223 10.7623 18.7423 10.4323 18.2023 10.2523C17.6223 10.0523 16.8623 9.9923 16.1523 9.9923C14.0623 9.9923 12.0123 10.8623 12.0123 12.9123C12.0123 13.1823 12.0423 13.4323 12.0923 13.6923H10.9223C10.7423 13.6923 10.6123 13.8123 10.6123 13.9823C10.6123 14.1523 10.7423 14.2723 10.9223 14.2723H12.2323C12.3323 14.6623 12.4323 15.0323 12.4723 15.4423H10.9223C10.7423 15.4423 10.6123 15.5723 10.6123 15.7223C10.6123 15.9023 10.7423 16.0323 10.9223 16.0323H12.4723C12.4723 16.0623 12.4523 16.1323 12.4423 16.2023C12.3423 16.7223 12.0723 17.2123 11.5923 17.5823C11.1723 17.8823 10.8123 18.2223 10.8123 18.7523C10.8123 19.4223 11.2923 19.8523 11.9523 19.8523Z" />
        </svg>
    