
        <svg xmlns="http://www.w3.org/2000/svg" viewBox="0 0 100 100">
            <path d="M1.3517 22.137H24.0017V21.497C24.0017 21.137 23.7917 20.927 23.4217 20.927H22.6717V7.597H23.7517C24.2417 7.597 24.5317 7.247 24.5317 6.867C24.5317 6.607 24.3917 6.367 24.0617 6.177L14.0017 0.377C13.5717 0.127 13.1117 -0.003 12.6717 -0.003C12.2317 -0.003 11.7617 0.127 11.3417 0.377L1.2917 6.177C0.9617 6.367 0.8217 6.607 0.8217 6.867C0.8217 7.247 1.0917 7.597 1.5917 7.597H2.6717V20.927H1.9217C1.5717 20.927 1.3517 21.137 1.3517 21.497ZM4.0417 20.927V6.277L12.1217 1.727C12.2817 1.627 12.4817 1.567 12.6717 1.567C12.8717 1.567 13.0517 1.627 13.2317 1.727L21.3017 6.277V20.927ZM9.1617 17.217H16.0917C16.3717 17.217 16.5817 17.007 16.5817 16.737C16.5817 16.467 16.3717 16.267 16.0917 16.267H10.4717V16.197C11.3317 15.937 11.8517 14.997 11.9017 14.017C11.9217 13.887 11.9217 13.757 11.9217 13.617H14.8817C15.0917 13.617 15.2717 13.457 15.2717 13.247C15.2717 13.027 15.0917 12.867 14.8817 12.867H11.8317C11.7517 12.367 11.5917 11.927 11.4617 11.457H14.8817C15.0917 11.457 15.2717 11.287 15.2717 11.077C15.2717 10.867 15.0917 10.707 14.8817 10.707H11.3317C11.3217 10.547 11.3017 10.367 11.3017 10.197C11.3017 8.757 12.4317 8.007 13.8917 8.007C14.3817 8.007 14.8917 8.097 15.1917 8.167C15.3517 8.227 15.5417 8.257 15.6517 8.257C15.9617 8.257 16.0817 8.087 16.0817 7.867C16.0817 7.597 15.9117 7.457 15.6717 7.347C15.0817 7.087 14.3817 7.047 13.7817 7.047C11.6217 7.047 10.1617 8.187 10.1617 10.227C10.1617 10.397 10.1717 10.547 10.1817 10.707H9.1017C8.8817 10.707 8.7217 10.867 8.7217 11.077C8.7217 11.287 8.8817 11.457 9.1017 11.457H10.3117C10.4317 11.957 10.5917 12.397 10.7117 12.867H9.1017C8.8817 12.867 8.7217 13.027 8.7217 13.247C8.7217 13.457 8.8817 13.617 9.1017 13.617H10.8017C10.8117 13.757 10.8017 13.947 10.7917 14.097C10.6917 15.167 9.9817 15.907 9.1217 16.157C8.8317 16.257 8.6617 16.407 8.6617 16.707C8.6617 17.037 8.8817 17.217 9.1617 17.217ZM0.7217 24.497H24.6217C25.0217 24.497 25.3517 24.167 25.3517 23.767C25.3517 23.367 25.0217 23.037 24.6217 23.037H0.7217C0.3317 23.037 0.0017 23.367 0.0017 23.767C0.0017 24.167 0.3317 24.497 0.7217 24.497Z" />
        </svg>
    