
        <svg xmlns="http://www.w3.org/2000/svg" viewBox="0 0 100 100">
            <path d="M1.7417 22.7616H25.1917V21.8816C25.1917 21.3616 24.8917 21.0616 24.3717 21.0616H23.6917V8.3716H24.7017C25.4217 8.3716 25.8417 7.8516 25.8417 7.3116C25.8417 6.9216 25.6217 6.5716 25.1517 6.2916L14.9717 0.4216C14.4917 0.1516 13.9717 0.0016 13.4617 0.0016C12.9617 0.0016 12.4217 0.1516 11.9517 0.4216L1.7817 6.2916C1.3017 6.5716 1.0917 6.9216 1.0917 7.3116C1.0917 7.8516 1.5117 8.3716 2.2217 8.3716H3.2417V21.0616H2.5617C2.0517 21.0616 1.7417 21.3616 1.7417 21.8816ZM5.1917 21.0616V6.8016L13.0517 2.4016C13.1817 2.3316 13.3317 2.2816 13.4617 2.2816C13.6017 2.2816 13.7417 2.3316 13.8717 2.4016L21.7517 6.8016V21.0616ZM9.9817 17.7216H16.7917C17.2017 17.7216 17.4817 17.4416 17.4817 17.0516C17.4817 16.6616 17.2017 16.3816 16.7917 16.3816H11.6517V16.3216C12.4017 16.0116 12.8117 15.2416 12.9017 14.3916C12.9117 14.2816 12.9217 14.1816 12.9217 14.0616H15.7217C15.9617 14.0616 16.1617 13.8916 16.1617 13.6516C16.1617 13.4216 15.9617 13.2416 15.7217 13.2416H12.8717C12.8017 12.7616 12.6417 12.3516 12.5417 11.9216H15.7217C15.9617 11.9216 16.1617 11.7416 16.1617 11.5116C16.1617 11.2616 15.9617 11.0816 15.7217 11.0816H12.4017C12.3717 10.9816 12.3717 10.8516 12.3717 10.7116C12.3717 9.4016 13.4517 8.7516 14.7817 8.7516C15.2017 8.7516 15.7017 8.8316 16.0117 8.8916C16.1817 8.9416 16.3517 8.9616 16.4917 8.9616C16.9017 8.9616 17.0717 8.7216 17.0717 8.4116C17.0717 8.0416 16.8417 7.8316 16.5117 7.7016C15.9117 7.4516 15.1917 7.4216 14.5817 7.4216C12.3717 7.4216 10.7317 8.5516 10.7317 10.6516C10.7317 10.8016 10.7417 10.9416 10.7617 11.0816H9.6717C9.4217 11.0816 9.2317 11.2616 9.2317 11.5116C9.2317 11.7416 9.4217 11.9216 9.6717 11.9216H10.9017C11.0117 12.3916 11.1517 12.8016 11.2517 13.2416H9.6717C9.4217 13.2416 9.2317 13.4216 9.2317 13.6516C9.2317 13.8916 9.4217 14.0616 9.6717 14.0616H11.3317C11.3317 14.1816 11.3217 14.3416 11.3017 14.4816C11.1517 15.4016 10.5517 16.0116 9.8717 16.2616C9.5117 16.4216 9.2817 16.6416 9.2817 17.0316C9.2817 17.4716 9.6017 17.7216 9.9817 17.7216ZM1.0617 25.7816H25.8017C26.3817 25.7816 26.8717 25.3016 26.8717 24.7116C26.8717 24.1416 26.3817 23.6616 25.8017 23.6616H1.0617C0.4817 23.6616 0.0017 24.1416 0.0017 24.7116C0.0017 25.3016 0.4817 25.7816 1.0617 25.7816Z" />
        </svg>
    