
        <svg xmlns="http://www.w3.org/2000/svg" viewBox="0 0 100 100">
            <path d="M3.9717 22.1H23.8817C26.4717 22.1 27.8517 20.73 27.8517 18.16V3.94C27.8517 1.37 26.4717 0 23.8817 0H3.9717C1.3817 0 0.0017 1.36 0.0017 3.94V18.16C0.0017 20.74 1.3817 22.1 3.9717 22.1ZM5.6017 6.57C4.9717 6.57 4.4417 6.04 4.4417 5.4C4.4417 4.77 4.9717 4.23 5.6017 4.23C6.2617 4.23 6.7817 4.75 6.7817 5.4C6.7817 6.05 6.2617 6.57 5.6017 6.57ZM9.2017 6.25C8.7317 6.25 8.3517 5.86 8.3517 5.4C8.3517 4.93 8.7417 4.55 9.2017 4.55H22.6017C23.0617 4.55 23.4517 4.93 23.4517 5.4C23.4517 5.86 23.0717 6.25 22.6017 6.25ZM5.6017 10.29C4.9717 10.29 4.4417 9.75 4.4417 9.11C4.4417 8.46 4.9717 7.93 5.6017 7.93C6.2617 7.93 6.7817 8.46 6.7817 9.11C6.7817 9.76 6.2617 10.29 5.6017 10.29ZM9.2017 9.96C8.7417 9.96 8.3517 9.57 8.3517 9.11C8.3517 8.65 8.7317 8.26 9.2017 8.26H16.6917C17.1517 8.26 17.5417 8.65 17.5417 9.11C17.5417 9.57 17.1517 9.96 16.6917 9.96ZM5.6017 13.97C4.9617 13.97 4.4417 13.45 4.4417 12.81C4.4417 12.16 4.9617 11.65 5.6017 11.65C6.2717 11.65 6.7817 12.16 6.7817 12.81C6.7817 13.45 6.2617 13.97 5.6017 13.97ZM9.2017 13.65C8.7317 13.65 8.3517 13.28 8.3517 12.81C8.3517 12.34 8.7317 11.96 9.2017 11.96H22.6017C23.0717 11.96 23.4517 12.34 23.4517 12.81C23.4517 13.28 23.0717 13.65 22.6017 13.65ZM5.6017 17.86C4.9717 17.86 4.4417 17.32 4.4417 16.69C4.4417 16.05 4.9717 15.52 5.6017 15.52C6.2617 15.52 6.7817 16.04 6.7817 16.69C6.7817 17.34 6.2617 17.86 5.6017 17.86ZM9.2017 17.54C8.7417 17.54 8.3517 17.16 8.3517 16.69C8.3517 16.22 8.7317 15.84 9.2017 15.84H16.6917C17.1717 15.84 17.5417 16.22 17.5417 16.69C17.5417 17.16 17.1517 17.54 16.6917 17.54Z" />
        </svg>
    