
        <svg xmlns="http://www.w3.org/2000/svg" viewBox="0 0 100 100">
            <path d="M4.5917 23.2425H23.7217C26.6117 23.2425 28.3117 21.5425 28.3117 18.6425V4.5925C28.3117 1.6825 26.6117 0.0025 23.7217 0.0025H4.5917C1.7017 0.0025 0.0017 1.6825 0.0017 4.5925V18.6425C0.0017 21.5425 1.7017 23.2425 4.5917 23.2425ZM6.2417 7.1925C5.5617 7.1925 4.9717 6.6225 4.9717 5.9325C4.9717 5.2425 5.5617 4.6525 6.2417 4.6525C6.9717 4.6525 7.5317 5.2125 7.5317 5.9325C7.5317 6.6325 6.9717 7.1925 6.2417 7.1925ZM9.7717 6.9825C9.1717 6.9825 8.7217 6.4925 8.7217 5.9325C8.7217 5.3525 9.2017 4.8725 9.7717 4.8725H22.2617C22.8317 4.8725 23.3117 5.3525 23.3117 5.9325C23.3117 6.4925 22.8417 6.9825 22.2617 6.9825ZM6.2417 10.9425C5.5617 10.9425 4.9717 10.3625 4.9717 9.6525C4.9717 8.9525 5.5617 8.3825 6.2417 8.3825C6.9717 8.3825 7.5317 8.9425 7.5317 9.6525C7.5317 10.3625 6.9717 10.9425 6.2417 10.9425ZM9.7717 10.7225C9.2017 10.7225 8.7217 10.2225 8.7217 9.6525C8.7217 9.0825 9.1717 8.6025 9.7717 8.6025H16.9117C17.4917 8.6025 17.9617 9.0825 17.9617 9.6525C17.9617 10.2225 17.4817 10.7225 16.9117 10.7225ZM6.2417 14.6225C5.5417 14.6225 4.9717 14.0825 4.9717 13.3725C4.9717 12.6725 5.5417 12.1125 6.2417 12.1125C6.9817 12.1125 7.5317 12.6725 7.5317 13.3725C7.5317 14.0825 6.9717 14.6225 6.2417 14.6225ZM9.7717 14.4125C9.1717 14.4125 8.7217 13.9325 8.7217 13.3725C8.7217 12.7825 9.1717 12.3425 9.7717 12.3425H22.2617C22.8417 12.3425 23.3117 12.7825 23.3117 13.3725C23.3117 13.9325 22.8417 14.4125 22.2617 14.4125ZM6.2417 18.5525C5.5617 18.5525 4.9717 17.9625 4.9717 17.2725C4.9717 16.5825 5.5617 15.9925 6.2417 15.9925C6.9717 15.9925 7.5317 16.5725 7.5317 17.2725C7.5317 17.9925 6.9717 18.5525 6.2417 18.5525ZM9.7717 18.3325C9.2017 18.3325 8.7217 17.8525 8.7217 17.2725C8.7217 16.7125 9.1717 16.2225 9.7717 16.2225H16.9117C17.4917 16.2225 17.9617 16.7125 17.9617 17.2725C17.9617 17.8525 17.4817 18.3325 16.9117 18.3325Z" />
        </svg>
    