
        <svg xmlns="http://www.w3.org/2000/svg" viewBox="0 0 100 100">
            <path d="M6.7417 6.3588H13.9217C14.6817 6.3588 15.1317 5.8788 15.1317 5.0888V3.8588C15.1317 3.0487 14.6817 2.5787 13.9217 2.5787H13.0917C12.9817 1.1487 11.8017 -0.0012 10.3317 -0.0012C8.8717 -0.0012 7.6917 1.1487 7.5817 2.5787H6.7417C5.9917 2.5787 5.5417 3.0487 5.5417 3.8588V5.0888C5.5417 5.8788 5.9917 6.3588 6.7417 6.3588ZM10.3317 3.7387C9.7517 3.7387 9.2717 3.2488 9.2717 2.6788C9.2717 2.0987 9.7517 1.6288 10.3317 1.6288C10.9217 1.6288 11.3917 2.0987 11.3917 2.6788C11.3917 3.2488 10.9217 3.7387 10.3317 3.7387ZM4.1217 29.0788H16.5517C19.1517 29.0788 20.6717 27.5388 20.6717 24.8988V7.2188C20.6717 4.5787 19.1517 3.0487 16.6017 3.0487H16.4017C16.5117 3.2587 16.5617 3.5087 16.5617 3.7688V5.0888C16.5617 6.6588 15.4917 7.7888 13.9217 7.7888H6.7417C5.1817 7.7888 4.1117 6.6588 4.1117 5.0888V3.7688C4.1117 3.5087 4.1617 3.2587 4.2517 3.0487H4.0617C1.5217 3.0487 0.0017 4.5787 0.0017 7.2188V24.8988C0.0017 27.5388 1.5217 29.0788 4.1217 29.0788ZM5.3217 13.9788C4.8617 13.9788 4.5017 13.6088 4.5017 13.1588C4.5017 12.6988 4.8617 12.3387 5.3217 12.3387H15.3617C15.8117 12.3387 16.1717 12.6988 16.1717 13.1588C16.1717 13.6088 15.8117 13.9788 15.3617 13.9788ZM5.3217 18.2588C4.8517 18.2588 4.5017 17.8988 4.5017 17.4388C4.5017 16.9787 4.8517 16.6288 5.3217 16.6288H15.3617C15.8217 16.6288 16.1717 16.9787 16.1717 17.4388C16.1717 17.8988 15.8217 18.2588 15.3617 18.2588ZM5.3217 22.7588C4.8617 22.7588 4.5017 22.3788 4.5017 21.9388C4.5017 21.4888 4.8517 21.1288 5.3217 21.1288H10.8417C11.3017 21.1288 11.6617 21.4888 11.6617 21.9388C11.6617 22.3788 11.3017 22.7588 10.8417 22.7588Z" />
        </svg>
    