
        <svg xmlns="http://www.w3.org/2000/svg" viewBox="0 0 100 100">
            <path d="M3.1417 0.0044C0.9417 0.0044 0.0017 1.0544 0.0017 3.1844V8.7144C0.0017 10.8444 0.9417 11.8944 3.1417 11.8944H18.8417C21.0517 11.8944 21.9817 10.8444 21.9817 8.7144V3.1844C21.9817 1.0544 21.0517 0.0044 18.8417 0.0044ZM1.4517 8.7544V3.1444C1.4517 1.9444 1.9417 1.3544 3.1517 1.3544H18.8417C20.0417 1.3544 20.5417 1.9444 20.5417 3.1444V8.7544C20.5417 9.9444 20.0417 10.5344 18.8417 10.5344H3.1517C1.9417 10.5344 1.4517 9.9444 1.4517 8.7544ZM2.6617 15.6944C2.6617 15.0344 2.1217 14.4844 1.4517 14.4844C0.8017 14.4844 0.2617 15.0344 0.2617 15.6944C0.2617 16.3444 0.8017 16.8744 1.4517 16.8744C2.1217 16.8744 2.6617 16.3444 2.6617 15.6944ZM21.6717 15.6944C21.6717 15.2944 21.3417 14.9844 20.9017 14.9844H4.9817C4.5317 14.9844 4.2117 15.2944 4.2117 15.6944C4.2117 16.0744 4.5317 16.3844 4.9817 16.3844H20.9017C21.3417 16.3844 21.6717 16.0744 21.6717 15.6944ZM2.6617 20.1844C2.6617 19.5244 2.1217 18.9744 1.4517 18.9744C0.8017 18.9744 0.2617 19.5244 0.2617 20.1844C0.2617 20.8344 0.8017 21.3744 1.4517 21.3744C2.1217 21.3744 2.6617 20.8344 2.6617 20.1844ZM21.6717 20.1844C21.6717 19.7844 21.3417 19.4744 20.9017 19.4744H4.9817C4.5317 19.4744 4.2117 19.7844 4.2117 20.1844C4.2117 20.5744 4.5317 20.8844 4.9817 20.8844H20.9017C21.3417 20.8844 21.6717 20.5744 21.6717 20.1844Z" />
        </svg>
    