
        <svg xmlns="http://www.w3.org/2000/svg" viewBox="0 0 100 100">
            <path d="M11.4923 22.977C17.8123 22.977 22.9823 17.827 22.9823 11.497C22.9823 5.167 17.8123 -0.003 11.4923 -0.003C5.1723 -0.003 0.0023 5.167 0.0023 11.497C0.0023 17.827 5.1723 22.977 11.4923 22.977ZM5.5223 8.317C5.0323 8.317 4.6323 7.917 4.6323 7.417C4.6323 6.917 5.0323 6.517 5.5223 6.517C6.0223 6.517 6.4323 6.917 6.4323 7.417C6.4323 7.917 6.0223 8.317 5.5223 8.317ZM8.3223 7.817C8.1123 7.817 7.9323 7.637 7.9323 7.417C7.9323 7.207 8.1123 7.027 8.3223 7.027H17.9523C18.1723 7.027 18.3423 7.197 18.3423 7.417C18.3423 7.657 18.1723 7.817 17.9523 7.817ZM5.5223 12.407C5.0323 12.407 4.6323 12.007 4.6323 11.507C4.6323 11.007 5.0323 10.607 5.5223 10.607C6.0223 10.607 6.4323 11.017 6.4323 11.507C6.4323 12.007 6.0223 12.407 5.5223 12.407ZM8.3223 11.897C8.1123 11.897 7.9323 11.717 7.9323 11.507C7.9323 11.297 8.1123 11.117 8.3223 11.117H17.9523C18.1723 11.117 18.3423 11.287 18.3423 11.507C18.3423 11.747 18.1723 11.897 17.9523 11.897ZM5.5223 16.497C5.0323 16.497 4.6323 16.097 4.6323 15.597C4.6323 15.107 5.0323 14.697 5.5223 14.697C6.0223 14.697 6.4323 15.107 6.4323 15.597C6.4323 16.097 6.0223 16.497 5.5223 16.497ZM8.3223 15.987C8.1123 15.987 7.9323 15.817 7.9323 15.597C7.9323 15.387 8.1123 15.207 8.3223 15.207H17.9523C18.1723 15.207 18.3423 15.367 18.3423 15.597C18.3423 15.827 18.1723 15.987 17.9523 15.987Z" />
        </svg>
    