
        <svg xmlns="http://www.w3.org/2000/svg" viewBox="0 0 100 100">
            <path d="M3.8417 21.8628H23.9217C26.4517 21.8628 27.7617 20.5628 27.7617 18.0728V3.7928C27.7617 1.3028 26.4517 0.0028 23.9217 0.0028H3.8417C1.3117 0.0028 0.0017 1.2928 0.0017 3.7928V18.0728C0.0017 20.5628 1.3117 21.8628 3.8417 21.8628ZM5.4717 6.4428C4.8517 6.4428 4.3217 5.9228 4.3217 5.2928C4.3217 4.6628 4.8517 4.1328 5.4717 4.1328C6.1217 4.1328 6.6217 4.6528 6.6217 5.2928C6.6217 5.9328 6.1217 6.4428 5.4717 6.4428ZM9.0917 6.0928C8.6417 6.0928 8.2817 5.7328 8.2817 5.2928C8.2817 4.8428 8.6517 4.4728 9.0917 4.4728H22.6717C23.1117 4.4728 23.4817 4.8428 23.4817 5.2928C23.4817 5.7328 23.1217 6.0928 22.6717 6.0928ZM5.4717 10.1528C4.8517 10.1528 4.3217 9.6228 4.3217 9.0028C4.3217 8.3628 4.8517 7.8428 5.4717 7.8428C6.1217 7.8428 6.6217 8.3528 6.6217 9.0028C6.6217 9.6328 6.1217 10.1528 5.4717 10.1528ZM9.0917 9.8128C8.6517 9.8128 8.2817 9.4328 8.2817 9.0028C8.2817 8.5528 8.6517 8.1828 9.0917 8.1828H16.6517C17.1017 8.1828 17.4617 8.5528 17.4617 9.0028C17.4617 9.4328 17.1017 9.8128 16.6517 9.8128ZM5.4717 13.8328C4.8417 13.8328 4.3217 13.3228 4.3217 12.6828C4.3217 12.0628 4.8417 11.5428 5.4717 11.5428C6.1217 11.5428 6.6217 12.0428 6.6217 12.6828C6.6217 13.3228 6.1217 13.8328 5.4717 13.8328ZM9.0917 13.5028C8.6417 13.5028 8.2817 13.1528 8.2817 12.6828C8.2817 12.2328 8.6417 11.8928 9.0917 11.8928H22.6717C23.1217 11.8928 23.4817 12.2328 23.4817 12.6828C23.4817 13.1528 23.1217 13.5028 22.6717 13.5028ZM5.4717 17.7228C4.8517 17.7228 4.3217 17.1928 4.3217 16.5628C4.3217 15.9328 4.8517 15.4128 5.4717 15.4128C6.1217 15.4128 6.6217 15.9228 6.6217 16.5628C6.6217 17.2028 6.1217 17.7228 5.4717 17.7228ZM9.0917 17.3828C8.6517 17.3828 8.2817 17.0128 8.2817 16.5628C8.2817 16.1228 8.6417 15.7628 9.0917 15.7628H16.6517C17.1117 15.7628 17.4617 16.1228 17.4617 16.5628C17.4617 17.0128 17.1017 17.3828 16.6517 17.3828Z" />
        </svg>
    