
        <svg xmlns="http://www.w3.org/2000/svg" viewBox="0 0 100 100">
            <path d="M5.8617 4.4383H12.8517C13.3117 4.4383 13.5917 4.1983 13.5917 3.7583V2.6383C13.5917 2.2183 13.3117 1.9583 12.8517 1.9583H11.3117C11.3117 0.8783 10.4317 -0.0017 9.3517 -0.0017C8.2817 -0.0017 7.4017 0.8783 7.4017 1.9583H5.8617C5.4017 1.9583 5.1117 2.2183 5.1117 2.6383V3.7583C5.1117 4.1983 5.4017 4.4383 5.8617 4.4383ZM9.3517 3.0383C8.7417 3.0383 8.2617 2.5383 8.2617 1.9483C8.2617 1.3383 8.7417 0.8583 9.3517 0.8583C9.9717 0.8583 10.4517 1.3383 10.4517 1.9483C10.4517 2.5383 9.9717 3.0383 9.3517 3.0383ZM3.0117 27.1883H15.7017C17.6617 27.1883 18.7017 26.1283 18.7017 24.1783V5.5183C18.7017 3.5483 17.6617 2.5083 15.6917 2.5083H14.4817C14.4817 2.5583 14.4817 2.6083 14.4817 2.6583V2.9383C14.4817 2.9883 14.4817 3.0483 14.4817 3.0783H15.6717C17.3017 3.0783 18.1317 3.9283 18.1317 5.5583V24.1383C18.1317 25.7683 17.3017 26.6183 15.6717 26.6183H3.0317C1.4217 26.6183 0.5717 25.7683 0.5717 24.1383V5.5583C0.5717 3.9283 1.4217 3.0783 3.0517 3.0783H4.2317C4.2317 3.0483 4.2317 2.9883 4.2317 2.9383V2.6583C4.2317 2.6083 4.2317 2.5583 4.2317 2.5083H3.0117C1.0417 2.5083 0.0017 3.5483 0.0017 5.5183V24.1783C0.0017 26.1283 1.0417 27.1883 3.0117 27.1883ZM3.7517 11.0083H14.9517C15.1217 11.0083 15.2417 10.8783 15.2417 10.7083C15.2417 10.5583 15.1217 10.4283 14.9517 10.4283H3.7517C3.6017 10.4283 3.4617 10.5583 3.4617 10.7083C3.4617 10.8783 3.6017 11.0083 3.7517 11.0083ZM3.7517 15.3583H14.9517C15.1217 15.3583 15.2417 15.2383 15.2417 15.0683C15.2417 14.9183 15.1217 14.7783 14.9517 14.7783H3.7517C3.6017 14.7783 3.4617 14.9183 3.4617 15.0683C3.4617 15.2383 3.6017 15.3583 3.7517 15.3583ZM3.7517 19.9883H10.1717C10.3317 19.9883 10.4617 19.8583 10.4617 19.6983C10.4617 19.5383 10.3317 19.4083 10.1717 19.4083H3.7517C3.6017 19.4083 3.4617 19.5383 3.4617 19.6983C3.4617 19.8583 3.6017 19.9883 3.7517 19.9883Z" />
        </svg>
    