
        <svg xmlns="http://www.w3.org/2000/svg" viewBox="0 0 100 100">
            <path d="M0.0017 21.4534C0.0017 23.9034 1.2117 25.1234 3.6317 25.1234H16.0817C18.5017 25.1234 19.7117 23.9034 19.7117 21.4534V3.6834C19.7117 1.2434 18.5017 0.0034 16.0817 0.0034H3.6317C1.2117 0.0034 0.0017 1.2434 0.0017 3.6834ZM1.8917 21.4234V3.7134C1.8917 2.5434 2.5117 1.8834 3.7217 1.8834H15.9817C17.2017 1.8834 17.8217 2.5434 17.8217 3.7134V21.4234C17.8217 22.5934 17.2017 23.2334 15.9817 23.2334H3.7217C2.5117 23.2334 1.8917 22.5934 1.8917 21.4234ZM4.7617 6.4234C5.3717 6.4234 5.8517 5.9434 5.8517 5.3334C5.8517 4.7334 5.3717 4.2434 4.7617 4.2434C4.1717 4.2434 3.6717 4.7434 3.6717 5.3334C3.6717 5.9334 4.1717 6.4234 4.7617 6.4234ZM8.0617 6.0734H15.3117C15.7117 6.0734 16.0417 5.7434 16.0417 5.3334C16.0417 4.9334 15.7117 4.6034 15.3117 4.6034H8.0617C7.6617 4.6034 7.3317 4.9334 7.3317 5.3334C7.3317 5.7434 7.6617 6.0734 8.0617 6.0734ZM4.7617 10.0034C5.3717 10.0034 5.8517 9.5134 5.8517 8.9134C5.8517 8.3134 5.3717 7.8434 4.7617 7.8434C4.1617 7.8434 3.6717 8.3234 3.6717 8.9134C3.6717 9.5134 4.1617 10.0034 4.7617 10.0034ZM8.0617 9.6434H15.3117C15.7217 9.6434 16.0417 9.3234 16.0417 8.9134C16.0417 8.5034 15.7217 8.1934 15.3117 8.1934H8.0617C7.6517 8.1934 7.3317 8.5034 7.3317 8.9134C7.3317 9.3234 7.6517 9.6434 8.0617 9.6434ZM4.7617 13.7534C5.3717 13.7534 5.8517 13.2634 5.8517 12.6634C5.8517 12.0634 5.3717 11.5734 4.7617 11.5734C4.1717 11.5734 3.6717 12.0734 3.6717 12.6634C3.6717 13.2534 4.1717 13.7534 4.7617 13.7534ZM8.0617 13.3934H15.3117C15.7117 13.3934 16.0417 13.0634 16.0417 12.6634C16.0417 12.2734 15.7217 11.9434 15.3117 11.9434H8.0617C7.6517 11.9434 7.3317 12.2734 7.3317 12.6634C7.3317 13.0634 7.6617 13.3934 8.0617 13.3934Z" />
        </svg>
    