
        <svg xmlns="http://www.w3.org/2000/svg" viewBox="0 0 100 100">
            <path d="M1.1909 4.1311L2.1409 3.4311L3.0909 4.1311C3.3709 4.3511 3.6809 4.1311 3.5709 3.8211L3.2009 2.6711L4.1509 1.9511C4.3909 1.7711 4.3009 1.4311 3.9809 1.4311H2.8009L2.4109 0.2011C2.3309 -0.0589 1.9709 -0.0689 1.8909 0.2011L1.5009 1.4311H0.3009C-0.0091 1.4311 -0.1091 1.7711 0.1409 1.9511L1.0909 2.6711L0.7209 3.8211C0.6109 4.1311 0.9109 4.3311 1.1909 4.1311ZM7.3009 3.0811H22.4909C22.9009 3.0811 23.2109 2.7611 23.2109 2.3511C23.2109 1.9411 22.9009 1.6411 22.4909 1.6411H7.3009C6.8909 1.6411 6.5709 1.9411 6.5709 2.3511C6.5709 2.7611 6.8909 3.0811 7.3009 3.0811ZM1.1909 11.1211L2.1409 10.4211L3.0909 11.1211C3.3709 11.3411 3.6809 11.1211 3.5709 10.8011L3.2009 9.6511L4.1509 8.9511C4.3909 8.7611 4.3009 8.4211 3.9809 8.4211H2.8009L2.4109 7.1911C2.3309 6.9311 1.9709 6.9211 1.8909 7.1911L1.5009 8.4211H0.3009C-0.0091 8.4211 -0.1091 8.7611 0.1409 8.9511L1.0909 9.6511L0.7209 10.8011C0.6209 11.1211 0.9109 11.3311 1.1909 11.1211ZM7.3009 10.0911H22.4909C22.9009 10.0911 23.2109 9.7711 23.2109 9.3611C23.2109 8.9511 22.9009 8.6311 22.4909 8.6311H7.3009C6.8909 8.6311 6.5709 8.9511 6.5709 9.3611C6.5709 9.7711 6.8909 10.0911 7.3009 10.0911ZM1.1909 18.1411L2.1409 17.4311L3.0909 18.1411C3.3709 18.3611 3.6809 18.1411 3.5709 17.8211L3.2009 16.6711L4.1509 15.9711C4.3909 15.7811 4.3009 15.4411 3.9809 15.4411H2.8009L2.4109 14.2111C2.3309 13.9511 1.9709 13.9411 1.8909 14.2111L1.5009 15.4411H0.3009C-0.0091 15.4411 -0.1091 15.7811 0.1409 15.9711L1.0909 16.6711L0.7209 17.8211C0.6209 18.1411 0.9109 18.3511 1.1909 18.1411ZM7.3009 17.1011H22.4909C22.9009 17.1011 23.2109 16.7811 23.2109 16.3711C23.2109 15.9611 22.9009 15.6411 22.4909 15.6411H7.3009C6.8909 15.6411 6.5709 15.9611 6.5709 16.3711C6.5709 16.7811 6.8909 17.1011 7.3009 17.1011Z" />
        </svg>
    