
        <svg xmlns="http://www.w3.org/2000/svg" viewBox="0 0 100 100">
            <path d="M2.4217 4.8642C3.7617 4.8642 4.8617 3.7642 4.8617 2.4242C4.8617 1.1042 3.7617 0.0042 2.4217 0.0042C1.1017 0.0042 0.0017 1.1042 0.0017 2.4242C0.0017 3.7642 1.1017 4.8642 2.4217 4.8642ZM9.2817 4.3042H24.8017C25.8417 4.3042 26.6717 3.4842 26.6717 2.4242C26.6717 1.3942 25.8517 0.5542 24.8017 0.5542H9.2817C8.2417 0.5542 7.4017 1.3742 7.4017 2.4242C7.4017 3.4642 8.2217 4.3042 9.2817 4.3042ZM5.6917 12.5642C7.0317 12.5642 8.1317 11.4642 8.1317 10.1242C8.1317 8.7842 7.0317 7.6942 5.6917 7.6942C4.3617 7.6942 3.2717 8.7842 3.2717 10.1242C3.2717 11.4642 4.3617 12.5642 5.6917 12.5642ZM12.5417 12.0042H28.0617C29.1017 12.0042 29.9417 11.1842 29.9417 10.1242C29.9417 9.0842 29.1117 8.2542 28.0617 8.2542H12.5417C11.5117 8.2542 10.6617 9.0742 10.6617 10.1242C10.6617 11.1642 11.4817 12.0042 12.5417 12.0042ZM8.9617 20.2542C10.2917 20.2542 11.3917 19.1642 11.3917 17.8242C11.3917 16.4842 10.2917 15.3942 8.9617 15.3942C7.6317 15.3942 6.5317 16.4842 6.5317 17.8242C6.5317 19.1642 7.6317 20.2542 8.9617 20.2542ZM15.8117 19.7042H31.3217C32.3717 19.7042 33.2017 18.8742 33.2017 17.8242C33.2017 16.7842 32.3817 15.9442 31.3217 15.9442H15.8117C14.7617 15.9442 13.9317 16.7742 13.9317 17.8242C13.9317 18.8642 14.7517 19.7042 15.8117 19.7042Z" />
        </svg>
    