
        <svg xmlns="http://www.w3.org/2000/svg" viewBox="0 0 100 100">
            <path d="M0.8817 3.3358L2.7817 2.1958C3.1217 1.9858 3.1217 1.4858 2.7817 1.2858L0.8817 0.1358C0.4417 -0.1342 0.0017 -0.0042 0.0017 0.5258V2.9458C0.0017 3.4558 0.4617 3.5858 0.8817 3.3358ZM6.9417 2.4458H22.4917C22.9017 2.4458 23.2117 2.1258 23.2117 1.7158C23.2117 1.3058 22.9017 1.0058 22.4917 1.0058H6.9417C6.5317 1.0058 6.2117 1.3058 6.2117 1.7158C6.2117 2.1258 6.5317 2.4458 6.9417 2.4458ZM0.8817 10.3158L2.7817 9.1958C3.1217 8.9858 3.1217 8.4758 2.7817 8.2858L0.8817 7.1258C0.4417 6.8658 0.0017 6.9958 0.0017 7.5058V9.9458C0.0017 10.4458 0.4617 10.5658 0.8817 10.3158ZM6.9417 9.4558H22.4917C22.9017 9.4558 23.2117 9.1358 23.2117 8.7258C23.2117 8.3158 22.9017 7.9958 22.4917 7.9958H6.9417C6.5317 7.9958 6.2117 8.3158 6.2117 8.7258C6.2117 9.1358 6.5317 9.4558 6.9417 9.4558ZM0.8817 17.3358L2.7817 16.2158C3.1217 16.0058 3.1217 15.4958 2.7817 15.2958L0.8817 14.1358C0.4417 13.8858 0.0017 14.0158 0.0017 14.5258V16.9658C0.0017 17.4658 0.4617 17.5958 0.8817 17.3358ZM6.9417 16.4658H22.4917C22.9017 16.4658 23.2117 16.1458 23.2117 15.7358C23.2117 15.3258 22.9017 15.0058 22.4917 15.0058H6.9417C6.5317 15.0058 6.2117 15.3258 6.2117 15.7358C6.2117 16.1458 6.5317 16.4658 6.9417 16.4658Z" />
        </svg>
    