
        <svg xmlns="http://www.w3.org/2000/svg" viewBox="0 0 100 100">
            <path d="M1.7817 3.5578C2.7617 3.5578 3.5617 2.7678 3.5617 1.7778C3.5617 0.7978 2.7617 -0.0022 1.7817 -0.0022C0.8017 -0.0022 0.0017 0.7978 0.0017 1.7778C0.0017 2.7678 0.8017 3.5578 1.7817 3.5578ZM7.4917 3.0278H23.3417C24.0317 3.0278 24.5817 2.4678 24.5817 1.7778C24.5817 1.0878 24.0317 0.5378 23.3417 0.5378H7.4917C6.8017 0.5378 6.2417 1.0778 6.2417 1.7778C6.2417 2.4678 6.7817 3.0278 7.4917 3.0278ZM1.7817 10.8378C2.7617 10.8378 3.5617 10.0478 3.5617 9.0578C3.5617 8.0778 2.7617 7.2778 1.7817 7.2778C0.8017 7.2778 0.0017 8.0778 0.0017 9.0578C0.0017 10.0478 0.8017 10.8378 1.7817 10.8378ZM7.4917 10.2978H23.3417C24.0317 10.2978 24.5817 9.7578 24.5817 9.0578C24.5817 8.3678 24.0317 7.8178 23.3417 7.8178H7.4917C6.8017 7.8178 6.2417 8.3678 6.2417 9.0578C6.2417 9.7478 6.7817 10.2978 7.4917 10.2978ZM1.7817 18.1178C2.7617 18.1178 3.5617 17.3178 3.5617 16.3378C3.5617 15.3678 2.7617 14.5578 1.7817 14.5578C0.8017 14.5578 0.0017 15.3678 0.0017 16.3378C0.0017 17.3178 0.8017 18.1178 1.7817 18.1178ZM7.4917 17.5778H23.3417C24.0317 17.5778 24.5817 17.0378 24.5817 16.3378C24.5817 15.6478 24.0317 15.1078 23.3417 15.1078H7.4917C6.8017 15.1078 6.2417 15.6478 6.2417 16.3378C6.2417 17.0278 6.7817 17.5778 7.4917 17.5778Z" />
        </svg>
    