
        <svg xmlns="http://www.w3.org/2000/svg" viewBox="0 0 100 100">
            <path d="M1.1717 2.3978H23.4017C24.0617 2.3978 24.5817 1.8478 24.5817 1.1978C24.5817 0.5378 24.0617 -0.0022 23.4017 -0.0022H1.1717C0.5117 -0.0022 0.0017 0.5378 0.0017 1.1978C0.0017 1.8378 0.5317 2.3978 1.1717 2.3978ZM1.1717 8.5478H8.6617C9.3117 8.5478 9.8417 7.9878 9.8417 7.3378C9.8417 6.6778 9.3317 6.1378 8.6617 6.1378H1.1717C0.5117 6.1378 0.0017 6.6878 0.0017 7.3378C0.0017 7.9778 0.5317 8.5478 1.1717 8.5478ZM13.9217 20.7378H27.8817C29.0017 20.7378 29.7317 20.0178 29.7317 18.8978V8.0578C29.7317 6.9578 29.0017 6.2378 27.8817 6.2378H13.9217C12.8017 6.2378 12.0717 6.9578 12.0717 8.0578V18.8978C12.0717 20.0178 12.8017 20.7378 13.9217 20.7378ZM13.9117 9.8878C13.6917 9.8878 13.5317 9.7478 13.5317 9.5278V8.2178C13.5317 7.9878 13.6917 7.8378 13.9117 7.8378H15.0617C15.2817 7.8378 15.4217 7.9878 15.4217 8.2178V9.5278C15.4217 9.7478 15.2817 9.8878 15.0617 9.8878ZM26.7417 9.8878C26.5217 9.8878 26.3717 9.7478 26.3717 9.5278V8.2178C26.3717 7.9878 26.5217 7.8378 26.7417 7.8378H27.8917C28.1117 7.8378 28.2517 7.9878 28.2517 8.2178V9.5278C28.2517 9.7478 28.1117 9.8878 27.8917 9.8878ZM17.1817 12.5078C16.9317 12.5078 16.7617 12.3378 16.7617 12.0778V8.5978C16.7617 8.3478 16.9317 8.1678 17.1817 8.1678H24.6217C24.8817 8.1678 25.0417 8.3478 25.0417 8.5978V12.0778C25.0417 12.3378 24.8817 12.5078 24.6217 12.5078ZM13.9117 12.9678C13.6917 12.9678 13.5317 12.8078 13.5317 12.6078V11.2978C13.5317 11.0778 13.6917 10.9178 13.9117 10.9178H15.0617C15.2817 10.9178 15.4217 11.0778 15.4217 11.2978V12.6078C15.4217 12.8078 15.2817 12.9678 15.0617 12.9678ZM26.7417 12.9678C26.5217 12.9678 26.3717 12.8078 26.3717 12.6078V11.2978C26.3717 11.0778 26.5217 10.9178 26.7417 10.9178H27.8917C28.1117 10.9178 28.2517 11.0778 28.2517 11.2978V12.6078C28.2517 12.8078 28.1117 12.9678 27.8917 12.9678ZM1.1717 14.6878H8.6617C9.3117 14.6878 9.8417 14.1278 9.8417 13.4878C9.8417 12.8178 9.3317 12.2978 8.6617 12.2978H1.1717C0.5117 12.2978 0.0017 12.8278 0.0017 13.4878C0.0017 14.1278 0.5317 14.6878 1.1717 14.6878ZM13.9117 16.0278C13.6917 16.0278 13.5317 15.8778 13.5317 15.6778V14.3578C13.5317 14.1278 13.6917 13.9778 13.9117 13.9778H15.0617C15.2817 13.9778 15.4217 14.1278 15.4217 14.3578V15.6778C15.4217 15.8778 15.2817 16.0278 15.0617 16.0278ZM26.7417 16.0278C26.5217 16.0278 26.3717 15.8778 26.3717 15.6778V14.3578C26.3717 14.1278 26.5217 13.9778 26.7417 13.9778H27.8917C28.1117 13.9778 28.2517 14.1278 28.2517 14.3578V15.6778C28.2517 15.8778 28.1117 16.0278 27.8917 16.0278ZM17.1817 18.7878C16.9317 18.7878 16.7617 18.6078 16.7617 18.3678V14.8978C16.7617 14.6378 16.9317 14.4578 17.1817 14.4578H24.6217C24.8817 14.4578 25.0417 14.6378 25.0417 14.8978V18.3678C25.0417 18.6078 24.8817 18.7878 24.6217 18.7878ZM13.9117 19.1178C13.6917 19.1178 13.5317 18.9678 13.5317 18.7478V17.4378C13.5317 17.2078 13.6917 17.0578 13.9117 17.0578H15.0617C15.2817 17.0578 15.4217 17.2078 15.4217 17.4378V18.7478C15.4217 18.9678 15.2817 19.1178 15.0617 19.1178ZM26.7417 19.1178C26.5217 19.1178 26.3717 18.9678 26.3717 18.7478V17.4378C26.3717 17.2078 26.5217 17.0578 26.7417 17.0578H27.8917C28.1117 17.0578 28.2517 17.2078 28.2517 17.4378V18.7478C28.2517 18.9678 28.1117 19.1178 27.8917 19.1178ZM1.1717 20.8278H8.6617C9.3117 20.8278 9.8417 20.2778 9.8417 19.6278C9.8417 18.9578 9.3317 18.4378 8.6617 18.4378H1.1717C0.5117 18.4378 0.0017 18.9678 0.0017 19.6278C0.0017 20.2778 0.5317 20.8278 1.1717 20.8278Z" />
        </svg>
    