
        <svg xmlns="http://www.w3.org/2000/svg" viewBox="0 0 100 100">
            <path d="M12.6023 25.1986C19.5623 25.1986 25.2023 19.5586 25.2023 12.5986C25.2023 5.6386 19.5623 -0.0014 12.6023 -0.0014C5.6323 -0.0014 0.0023 5.6386 0.0023 12.5986C0.0023 19.5586 5.6323 25.1986 12.6023 25.1986ZM12.6023 21.5386C7.6523 21.5386 3.6523 17.5386 3.6523 12.5986C3.6523 7.6486 7.6523 3.6586 12.6023 3.6586C17.5423 3.6586 21.5423 7.6486 21.5423 12.5986C21.5423 17.5386 17.5423 21.5386 12.6023 21.5386ZM7.7923 10.3086C8.4023 10.3086 8.9223 9.7986 8.9223 9.1886C8.9223 8.5786 8.4023 8.0586 7.7923 8.0586C7.1823 8.0586 6.6723 8.5786 6.6723 9.1886C6.6723 9.7986 7.1823 10.3086 7.7923 10.3086ZM10.6123 10.0686H17.6323C18.1323 10.0686 18.5123 9.6786 18.5123 9.1886C18.5123 8.6986 18.1323 8.3086 17.6323 8.3086H10.6123C10.1223 8.3086 9.7523 8.6986 9.7523 9.1886C9.7523 9.6786 10.1523 10.0686 10.6123 10.0686ZM7.7923 13.7186C8.4023 13.7186 8.9223 13.2086 8.9223 12.5986C8.9223 11.9886 8.4023 11.4686 7.7923 11.4686C7.1823 11.4686 6.6723 11.9886 6.6723 12.5986C6.6723 13.2086 7.1823 13.7186 7.7923 13.7186ZM10.6123 13.4786H17.6323C18.1323 13.4786 18.5123 13.0886 18.5123 12.5986C18.5123 12.1086 18.1323 11.7186 17.6323 11.7186H10.6123C10.1323 11.7186 9.7523 12.1186 9.7523 12.5986C9.7523 13.0886 10.1523 13.4786 10.6123 13.4786ZM7.7923 17.1286C8.4023 17.1286 8.9223 16.6186 8.9223 16.0086C8.9223 15.4086 8.4023 14.8786 7.7923 14.8786C7.1823 14.8786 6.6723 15.3986 6.6723 16.0086C6.6723 16.6186 7.1823 17.1286 7.7923 17.1286ZM10.6123 16.8886H17.6323C18.1323 16.8886 18.5123 16.4986 18.5123 16.0086C18.5123 15.5186 18.1323 15.1286 17.6323 15.1286H10.6123C10.1523 15.1286 9.7523 15.5286 9.7523 16.0086C9.7523 16.4986 10.1323 16.8886 10.6123 16.8886Z" />
        </svg>
    