
        <svg xmlns="http://www.w3.org/2000/svg" viewBox="0 0 100 100">
            <path d="M13.1523 1.2511C13.5023 1.2511 13.7823 0.9711 13.7823 0.6211C13.7823 0.2811 13.5023 0.0011 13.1523 0.0011C12.8123 0.0011 12.5323 0.2811 12.5323 0.6211C12.5323 0.9711 12.8123 1.2511 13.1523 1.2511ZM15.3323 1.4411C15.6823 1.4411 15.9623 1.1711 15.9623 0.8211C15.9623 0.4711 15.6823 0.2011 15.3323 0.2011C14.9923 0.2011 14.7023 0.4711 14.7023 0.8211C14.7023 1.1711 14.9923 1.4411 15.3323 1.4411ZM10.9723 1.4411C11.3223 1.4411 11.6023 1.1711 11.6023 0.8211C11.6023 0.4711 11.3223 0.2011 10.9723 0.2011C10.6123 0.2011 10.3523 0.4711 10.3523 0.8211C10.3523 1.1711 10.6123 1.4411 10.9723 1.4411ZM17.4423 2.0011C17.7923 2.0011 18.0723 1.7311 18.0723 1.3811C18.0723 1.0311 17.7923 0.7511 17.4423 0.7511C17.0823 0.7511 16.8123 1.0311 16.8123 1.3811C16.8123 1.7311 17.0823 2.0011 17.4423 2.0011ZM8.8723 2.0011C9.2223 2.0011 9.4923 1.7311 9.4923 1.3811C9.4923 1.0311 9.2223 0.7511 8.8723 0.7511C8.5223 0.7511 8.2423 1.0311 8.2423 1.3811C8.2423 1.7311 8.5223 2.0011 8.8723 2.0011ZM19.4223 2.9411C19.7723 2.9411 20.0523 2.6711 20.0523 2.3211C20.0523 1.9711 19.7723 1.7011 19.4223 1.7011C19.0823 1.7011 18.7923 1.9711 18.7923 2.3211C18.7923 2.6711 19.0823 2.9411 19.4223 2.9411ZM6.8823 2.9411C7.2323 2.9411 7.5123 2.6711 7.5123 2.3211C7.5123 1.9711 7.2323 1.7011 6.8823 1.7011C6.5323 1.7011 6.2623 1.9711 6.2623 2.3211C6.2623 2.6711 6.5323 2.9411 6.8823 2.9411ZM21.2123 4.1911C21.5623 4.1911 21.8423 3.9111 21.8423 3.5611C21.8423 3.2111 21.5623 2.9411 21.2123 2.9411C20.8623 2.9411 20.5923 3.2111 20.5923 3.5611C20.5923 3.9111 20.8623 4.1911 21.2123 4.1911ZM5.1023 4.1911C5.4523 4.1911 5.7223 3.9111 5.7223 3.5611C5.7223 3.2111 5.4523 2.9411 5.1023 2.9411C4.7423 2.9411 4.4623 3.2111 4.4623 3.5611C4.4623 3.9111 4.7423 4.1911 5.1023 4.1911ZM13.1723 22.7611C18.4723 22.7611 22.7623 18.4811 22.7623 13.1611C22.7623 7.8911 18.4523 3.5711 13.1723 3.5711C7.8423 3.5711 3.5723 7.8511 3.5723 13.1611C3.5723 18.5011 7.8323 22.7611 13.1723 22.7611ZM22.7623 5.7411C23.1123 5.7411 23.3923 5.4711 23.3923 5.1211C23.3923 4.7711 23.1123 4.4911 22.7623 4.4911C22.4023 4.4911 22.1323 4.7711 22.1323 5.1211C22.1323 5.4711 22.4023 5.7411 22.7623 5.7411ZM3.5523 5.7411C3.8923 5.7411 4.1723 5.4711 4.1723 5.1211C4.1723 4.7711 3.8923 4.4911 3.5523 4.4911C3.2023 4.4911 2.9223 4.7711 2.9223 5.1211C2.9223 5.4711 3.2023 5.7411 3.5523 5.7411ZM13.1723 21.4811C8.5323 21.4811 4.8523 17.8011 4.8523 13.1611C4.8523 8.5511 8.5623 4.8511 13.1723 4.8511C17.7523 4.8511 21.4823 8.5811 21.4823 13.1611C21.4823 17.7611 17.7823 21.4811 13.1723 21.4811ZM24.0123 7.5311C24.3623 7.5311 24.6423 7.2611 24.6423 6.9111C24.6423 6.5611 24.3623 6.2911 24.0123 6.2911C23.6623 6.2911 23.3923 6.5611 23.3923 6.9111C23.3923 7.2611 23.6623 7.5311 24.0123 7.5311ZM2.2923 7.5311C2.6523 7.5311 2.9223 7.2611 2.9223 6.9111C2.9223 6.5611 2.6523 6.2911 2.2923 6.2911C1.9423 6.2911 1.6623 6.5611 1.6623 6.9111C1.6623 7.2611 1.9423 7.5311 2.2923 7.5311ZM13.1523 18.1211C15.8923 18.1211 18.0923 15.9111 18.0923 13.1811C18.0923 10.4511 15.8823 8.2511 13.1523 8.2511C10.4223 8.2511 8.2123 10.4511 8.2123 13.1811C8.2123 15.9211 10.4023 18.1211 13.1523 18.1211ZM24.9423 9.5111C25.2923 9.5111 25.5623 9.2311 25.5623 8.8811C25.5623 8.5311 25.2923 8.2611 24.9423 8.2611C24.5823 8.2611 24.3023 8.5311 24.3023 8.8811C24.3023 9.2311 24.5823 9.5111 24.9423 9.5111ZM1.3723 9.5111C1.7223 9.5111 1.9923 9.2311 1.9923 8.8811C1.9923 8.5311 1.7223 8.2611 1.3723 8.2611C1.0223 8.2611 0.7523 8.5311 0.7523 8.8811C0.7523 9.2311 1.0223 9.5111 1.3723 9.5111ZM25.4923 11.6111C25.8423 11.6111 26.1223 11.3411 26.1223 10.9911C26.1223 10.6411 25.8423 10.3611 25.4923 10.3611C25.1523 10.3611 24.8623 10.6411 24.8623 10.9911C24.8623 11.3411 25.1523 11.6111 25.4923 11.6111ZM0.8123 11.6111C1.1623 11.6111 1.4423 11.3411 1.4423 10.9911C1.4423 10.6411 1.1623 10.3611 0.8123 10.3611C0.4523 10.3611 0.1923 10.6411 0.1923 10.9911C0.1923 11.3411 0.4523 11.6111 0.8123 11.6111ZM13.1523 15.7111C11.7523 15.7111 10.6323 14.5911 10.6323 13.1811C10.6323 11.7911 11.7523 10.6511 13.1523 10.6511C14.5423 10.6511 15.6823 11.8011 15.6823 13.1811C15.6823 14.5811 14.5523 15.7111 13.1523 15.7111ZM0.6223 13.7811C0.9723 13.7811 1.2523 13.5111 1.2523 13.1611C1.2523 12.8111 0.9723 12.5311 0.6223 12.5311C0.2823 12.5311 0.0023 12.8111 0.0023 13.1611C0.0023 13.5111 0.2823 13.7811 0.6223 13.7811ZM25.6723 13.7811C26.0323 13.7811 26.3123 13.5111 26.3123 13.1611C26.3123 12.8111 26.0323 12.5311 25.6723 12.5311C25.3323 12.5311 25.0523 12.8111 25.0523 13.1611C25.0523 13.5111 25.3323 13.7811 25.6723 13.7811ZM0.8123 15.9511C1.1623 15.9511 1.4423 15.6811 1.4423 15.3311C1.4423 14.9811 1.1623 14.6911 0.8123 14.6911C0.4523 14.6911 0.1923 14.9811 0.1923 15.3311C0.1923 15.6811 0.4523 15.9511 0.8123 15.9511ZM25.4923 15.9511C25.8423 15.9511 26.1223 15.6811 26.1223 15.3311C26.1223 14.9811 25.8423 14.6911 25.4923 14.6911C25.1523 14.6911 24.8623 14.9811 24.8623 15.3311C24.8623 15.6811 25.1523 15.9511 25.4923 15.9511ZM1.3723 18.0611C1.7223 18.0611 1.9923 17.7811 1.9923 17.4211C1.9923 17.0711 1.7223 16.8011 1.3723 16.8011C1.0223 16.8011 0.7523 17.0711 0.7523 17.4211C0.7523 17.7811 1.0223 18.0611 1.3723 18.0611ZM24.9423 18.0611C25.2923 18.0611 25.5623 17.7811 25.5623 17.4211C25.5623 17.0711 25.2923 16.8011 24.9423 16.8011C24.5823 16.8011 24.3023 17.0711 24.3023 17.4211C24.3023 17.7811 24.5823 18.0611 24.9423 18.0611ZM2.2923 20.0311C2.6523 20.0311 2.9223 19.7611 2.9223 19.4111C2.9223 19.0511 2.6523 18.7711 2.2923 18.7711C1.9423 18.7711 1.6623 19.0511 1.6623 19.4111C1.6623 19.7611 1.9423 20.0311 2.2923 20.0311ZM24.0123 20.0311C24.3623 20.0311 24.6423 19.7611 24.6423 19.4111C24.6423 19.0511 24.3623 18.7711 24.0123 18.7711C23.6623 18.7711 23.3923 19.0511 23.3923 19.4111C23.3923 19.7611 23.6623 20.0311 24.0123 20.0311ZM3.5523 21.8311C3.8923 21.8311 4.1723 21.5511 4.1723 21.2011C4.1723 20.8511 3.8923 20.5811 3.5523 20.5811C3.2023 20.5811 2.9223 20.8511 2.9223 21.2011C2.9223 21.5511 3.2023 21.8311 3.5523 21.8311ZM22.7623 21.8311C23.1123 21.8311 23.3923 21.5511 23.3923 21.2011C23.3923 20.8511 23.1123 20.5811 22.7623 20.5811C22.4023 20.5811 22.1323 20.8511 22.1323 21.2011C22.1323 21.5511 22.4023 21.8311 22.7623 21.8311ZM5.1023 23.3811C5.4523 23.3811 5.7223 23.1011 5.7223 22.7511C5.7223 22.3911 5.4523 22.1211 5.1023 22.1211C4.7423 22.1211 4.4623 22.3911 4.4623 22.7511C4.4623 23.1011 4.7423 23.3811 5.1023 23.3811ZM21.2123 23.3811C21.5623 23.3811 21.8423 23.1011 21.8423 22.7511C21.8423 22.3911 21.5623 22.1211 21.2123 22.1211C20.8623 22.1211 20.5923 22.3911 20.5923 22.7511C20.5923 23.1011 20.8623 23.3811 21.2123 23.3811ZM6.8823 24.6211C7.2323 24.6211 7.5123 24.3511 7.5123 24.0011C7.5123 23.6511 7.2323 23.3711 6.8823 23.3711C6.5323 23.3711 6.2623 23.6511 6.2623 24.0011C6.2623 24.3511 6.5323 24.6211 6.8823 24.6211ZM19.4223 24.6211C19.7723 24.6211 20.0523 24.3511 20.0523 24.0011C20.0523 23.6511 19.7723 23.3711 19.4223 23.3711C19.0823 23.3711 18.7923 23.6511 18.7923 24.0011C18.7923 24.3511 19.0823 24.6211 19.4223 24.6211ZM8.8723 25.5611C9.2223 25.5611 9.4923 25.2911 9.4923 24.9411C9.4923 24.5811 9.2223 24.3011 8.8723 24.3011C8.5223 24.3011 8.2423 24.5811 8.2423 24.9411C8.2423 25.2911 8.5223 25.5611 8.8723 25.5611ZM17.4423 25.5611C17.7923 25.5611 18.0723 25.2911 18.0723 24.9411C18.0723 24.5811 17.7923 24.3011 17.4423 24.3011C17.0823 24.3011 16.8123 24.5811 16.8123 24.9411C16.8123 25.2911 17.0823 25.5611 17.4423 25.5611ZM10.9723 26.1211C11.3223 26.1211 11.6023 25.8511 11.6023 25.5011C11.6023 25.1511 11.3223 24.8711 10.9723 24.8711C10.6123 24.8711 10.3523 25.1511 10.3523 25.5011C10.3523 25.8511 10.6123 26.1211 10.9723 26.1211ZM15.3323 26.1211C15.6823 26.1211 15.9623 25.8511 15.9623 25.5011C15.9623 25.1511 15.6823 24.8711 15.3323 24.8711C14.9923 24.8711 14.7023 25.1511 14.7023 25.5011C14.7023 25.8511 14.9923 26.1211 15.3323 26.1211ZM13.1523 26.3211C13.5023 26.3211 13.7823 26.0411 13.7823 25.6911C13.7823 25.3311 13.5023 25.0711 13.1523 25.0711C12.8123 25.0711 12.5323 25.3311 12.5323 25.6911C12.5323 26.0411 12.8123 26.3211 13.1523 26.3211Z" />
        </svg>
    