
        <svg xmlns="http://www.w3.org/2000/svg" viewBox="0 0 100 100">
            <path d="M7.8117 19.5009H17.9017C24.0017 19.5009 25.7217 17.2009 25.7217 11.6809V7.8209C25.7217 2.3009 24.0017 0.0009 17.9017 0.0009H7.8117C1.7217 0.0009 0.0017 2.3009 0.0017 7.8209V11.6809C0.0017 17.2009 1.7217 19.5009 7.8117 19.5009ZM6.8217 14.4809C6.6317 14.4809 6.4817 14.3409 6.4817 14.1209V5.2309C6.4817 5.0509 6.6417 4.8909 6.8317 4.8909C7.0117 4.8909 7.1717 5.0509 7.1717 5.2309V13.8609H10.4317C10.5817 13.8609 10.7317 14.0009 10.7317 14.1709C10.7317 14.3409 10.5817 14.4809 10.4317 14.4809ZM12.4217 14.6209C12.2217 14.6209 12.0917 14.4609 12.0917 14.2709V5.4209C12.0917 5.1009 12.2817 4.9109 12.6217 4.9109C12.8717 4.9109 13.0517 5.0809 13.1517 5.3909L15.5017 13.5709H15.5817L17.9217 5.3909C18.0017 5.0609 18.1717 4.9109 18.4717 4.9109C18.8117 4.9109 18.9817 5.0709 18.9817 5.4209V14.2709C18.9817 14.4609 18.8417 14.6209 18.6517 14.6209C18.4717 14.6209 18.3317 14.4809 18.3317 14.2709V6.1309H18.2917L16.0117 14.0709C15.9417 14.3409 15.8217 14.5109 15.5417 14.5109C15.2617 14.5109 15.1417 14.3109 15.0717 14.0709L12.7817 6.1309H12.7417V14.2709C12.7417 14.4709 12.6117 14.6209 12.4217 14.6209Z" />
        </svg>
    