
        <svg xmlns="http://www.w3.org/2000/svg" viewBox="0 0 100 100">
            <path d="M8.1317 19.8467H18.0217C24.2717 19.8467 26.1517 17.4967 26.1517 11.8167V8.0367C26.1517 2.3467 24.2717 -0.0033 18.0217 -0.0033H8.1317C1.8917 -0.0033 0.0017 2.3467 0.0017 8.0367V11.8167C0.0017 17.4967 1.8917 19.8467 8.1317 19.8467ZM6.9217 14.6967C6.6517 14.6967 6.4717 14.5067 6.4717 14.2167V5.4867C6.4717 5.2367 6.6817 5.0267 6.9417 5.0267C7.1817 5.0267 7.3917 5.2367 7.3917 5.4867V13.8767H10.5017C10.7117 13.8767 10.9017 14.0667 10.9017 14.2867C10.9017 14.5067 10.7117 14.6967 10.5017 14.6967ZM12.6717 14.8367C12.4117 14.8367 12.2417 14.6367 12.2417 14.3767V5.7267C12.2417 5.2967 12.5017 5.0367 12.9217 5.0367C13.2817 5.0367 13.5117 5.2467 13.6217 5.6467L15.8217 13.4667H15.8917L18.0717 5.6467C18.1717 5.2367 18.4017 5.0367 18.7817 5.0367C19.2217 5.0367 19.4517 5.2767 19.4517 5.7267V14.3767C19.4517 14.6367 19.2917 14.8367 19.0317 14.8367C18.7717 14.8367 18.6017 14.6567 18.6017 14.3767V6.6067H18.5517L16.4217 14.1867C16.3317 14.5067 16.1817 14.7067 15.8517 14.7067C15.5317 14.7067 15.3617 14.4867 15.2817 14.1867L13.1517 6.6067H13.0917V14.3767C13.0917 14.6467 12.9217 14.8367 12.6717 14.8367Z" />
        </svg>
    