
        <svg xmlns="http://www.w3.org/2000/svg" viewBox="0 0 100 100">
            <path d="M0.7217 7.1723C1.1917 7.1723 1.4517 6.9023 1.4517 6.4323V3.5023C1.4517 2.1423 2.1717 1.4523 3.4817 1.4523H6.4617C6.9417 1.4523 7.1917 1.1823 7.1917 0.7223C7.1917 0.2623 6.9417 0.0023 6.4617 0.0023H3.4617C1.1717 0.0023 0.0017 1.1623 0.0017 3.4223V6.4323C0.0017 6.9023 0.2617 7.1723 0.7217 7.1723ZM21.7017 7.1723C22.1717 7.1723 22.4317 6.9023 22.4317 6.4323V3.4223C22.4317 1.1723 21.2617 0.0023 18.9717 0.0023H15.9617C15.4917 0.0023 15.2217 0.2623 15.2217 0.7223C15.2217 1.1823 15.4917 1.4523 15.9617 1.4523H18.9417C20.2417 1.4523 20.9717 2.1423 20.9717 3.5023V6.4323C20.9717 6.9023 21.2317 7.1723 21.7017 7.1723ZM4.5917 12.3623L10.0417 12.3723L10.0517 17.7423C10.0517 18.4023 10.3717 18.7723 10.9117 18.7723C11.3017 18.7723 11.6217 18.5123 11.8517 18.0223L17.2017 6.5423C17.3117 6.3123 17.3817 6.0823 17.3817 5.8923C17.3817 5.4123 17.0317 5.0523 16.5317 5.0523C16.3317 5.0523 16.1017 5.1223 15.8917 5.2123L4.3317 10.5923C3.8917 10.8023 3.6417 11.1223 3.6417 11.5123C3.6417 12.0423 3.9817 12.3623 4.5917 12.3623ZM5.8717 11.1823L15.9117 6.5223L11.2517 16.5623L11.2617 11.7623C11.2617 11.4023 11.0117 11.1523 10.6417 11.1523ZM3.4617 22.4323H6.4617C6.9417 22.4323 7.1917 22.1623 7.1917 21.7023C7.1917 21.2323 6.9417 20.9723 6.4617 20.9723H3.4817C2.1717 20.9723 1.4517 20.2723 1.4517 18.9223V15.9923C1.4517 15.5223 1.1917 15.2623 0.7217 15.2623C0.2417 15.2623 0.0017 15.5223 0.0017 15.9923V18.9923C0.0017 21.2723 1.1717 22.4323 3.4617 22.4323ZM15.9617 22.4323H18.9717C21.2617 22.4323 22.4317 21.2623 22.4317 18.9923V15.9923C22.4317 15.5223 22.1617 15.2623 21.7017 15.2623C21.2217 15.2623 20.9717 15.5223 20.9717 15.9923V18.9223C20.9717 20.2723 20.2417 20.9723 18.9417 20.9723H15.9617C15.4917 20.9723 15.2217 21.2323 15.2217 21.7023C15.2217 22.1623 15.4917 22.4323 15.9617 22.4323Z" />
        </svg>
    