
        <svg xmlns="http://www.w3.org/2000/svg" viewBox="0 0 100 100">
            <path d="M0.5394 22.695C0.7194 22.695 0.8894 22.625 1.0594 22.455L8.2594 15.285C8.2994 15.235 8.3294 15.215 8.3594 15.215C8.3894 15.215 8.4094 15.235 8.4594 15.285L15.6594 22.455C15.8294 22.625 16.0094 22.695 16.1794 22.695C16.4894 22.695 16.7194 22.455 16.7194 22.115C16.7194 21.995 16.6894 21.895 16.6494 21.765L9.0494 0.635C8.9094 0.245 8.6994 -0.005 8.3594 -0.005C8.0294 -0.005 7.8194 0.245 7.6794 0.635L0.0694 21.765C0.0194 21.895 -0.0006 21.995 -0.0006 22.115C-0.0006 22.455 0.2394 22.695 0.5394 22.695ZM0.6594 21.985C0.6294 21.945 0.6294 21.905 0.6494 21.845L8.1694 0.895C8.1994 0.745 8.2694 0.635 8.3594 0.635C8.4494 0.635 8.5094 0.745 8.5594 0.895L16.0694 21.845C16.0894 21.905 16.0894 21.945 16.0594 21.985C16.0394 21.995 15.9994 22.005 15.9494 21.975L8.7294 14.735C8.5994 14.605 8.4994 14.555 8.3594 14.555C8.2294 14.555 8.1194 14.605 7.9894 14.735L0.7594 21.975C0.7294 22.005 0.6794 21.995 0.6594 21.985Z" />
        </svg>
    