
        <svg xmlns="http://www.w3.org/2000/svg" viewBox="0 0 100 100">
            <path d="M12.2223 24.4419C18.9723 24.4419 24.4423 18.9719 24.4423 12.2219C24.4423 5.4819 18.9723 0.0019 12.2223 0.0019C5.4823 0.0019 0.0023 5.4819 0.0023 12.2219C0.0023 18.9719 5.4823 24.4419 12.2223 24.4419ZM6.7823 17.1219L11.1823 5.9219C11.5823 4.9419 12.8623 4.9219 13.2423 5.9019L17.6623 17.1219C18.0723 18.1619 16.9723 18.8719 16.1523 18.0319L12.5423 14.4219C12.3423 14.2419 12.0923 14.2419 11.9023 14.4219L8.2923 18.0319C7.4623 18.8719 6.3623 18.1619 6.7823 17.1219Z" />
        </svg>
    