
        <svg xmlns="http://www.w3.org/2000/svg" viewBox="0 0 100 100">
            <path d="M1.8117 8.9761C2.9917 8.9761 3.6217 8.3161 3.6217 7.1461V4.8761C3.6217 3.9961 4.0417 3.6161 4.8717 3.6161H7.1617C8.3417 3.6161 8.9917 2.9861 8.9917 1.8161C8.9917 0.6361 8.3417 -0.0039 7.1617 -0.0039H4.3817C1.5917 -0.0039 0.0017 1.5861 0.0017 4.3561V7.1461C0.0017 8.3361 0.6417 8.9761 1.8117 8.9761ZM22.2917 8.9761C23.4617 8.9761 24.1017 8.3361 24.1017 7.1461V4.3561C24.1017 1.5861 22.5117 -0.0039 19.7217 -0.0039H16.9417C15.7517 -0.0039 15.1217 0.6361 15.1217 1.8161C15.1217 2.9861 15.7617 3.6161 16.9417 3.6161H19.2317C20.0517 3.6161 20.4717 3.9961 20.4717 4.8761V7.1461C20.4717 8.3361 21.1217 8.9761 22.2917 8.9761ZM6.8017 12.9461H10.7317C10.9917 12.9461 11.1517 13.1261 11.1517 13.3861V17.2961C11.1517 18.4361 12.5717 18.9061 13.1617 17.6161L17.3517 8.4161C17.8717 7.2861 16.8017 6.2361 15.6817 6.7461L6.4917 10.9561C5.1917 11.5461 5.6717 12.9461 6.8017 12.9461ZM4.3817 24.1061H7.1617C8.3417 24.1061 8.9917 23.4561 8.9917 22.2861C8.9917 21.1161 8.3317 20.4761 7.1617 20.4761H4.8717C4.0417 20.4761 3.6217 20.0961 3.6217 19.2161V16.9561C3.6217 15.7761 2.9917 15.1261 1.8117 15.1261C0.6317 15.1261 0.0017 15.7761 0.0017 16.9561V19.7361C0.0017 22.5261 1.5917 24.1061 4.3817 24.1061ZM16.9417 24.1061H19.7217C22.5117 24.1061 24.1017 22.5261 24.1017 19.7361V16.9561C24.1017 15.7761 23.4617 15.1261 22.2917 15.1261C21.1217 15.1261 20.4717 15.7761 20.4717 16.9561V19.2161C20.4717 20.0961 20.0517 20.4761 19.2317 20.4761H16.9417C15.7517 20.4761 15.1217 21.1161 15.1217 22.2861C15.1217 23.4561 15.7517 24.1061 16.9417 24.1061Z" />
        </svg>
    