
        <svg xmlns="http://www.w3.org/2000/svg" viewBox="0 0 100 100">
            <path d="M8.3894 7.3856C9.1094 7.3856 9.5994 6.8856 9.5994 6.1256V1.2556C9.5994 0.4956 9.1094 -0.0044 8.3894 -0.0044C7.6794 -0.0044 7.1794 0.4956 7.1794 1.2556V6.1256C7.1794 6.8856 7.6794 7.3856 8.3894 7.3856ZM1.7494 29.4356C2.3994 29.4356 3.0794 29.0556 3.6694 28.4856L8.0894 24.2256C8.2194 24.1056 8.2994 24.0456 8.3894 24.0456C8.4894 24.0456 8.5794 24.1056 8.6994 24.2256L13.1294 28.4856C13.6994 29.0556 14.3794 29.4356 15.0394 29.4356C16.0394 29.4356 16.7794 28.6056 16.7794 27.5956C16.7794 27.0356 16.5894 26.4256 16.2894 25.6656L10.4894 11.0956C9.9694 9.8356 9.3494 9.1756 8.3894 9.1756C7.4394 9.1756 6.8194 9.8156 6.2894 11.0956L0.4894 25.6656C0.1894 26.4256 -0.0006 27.0356 -0.0006 27.5956C-0.0006 28.6056 0.7494 29.4356 1.7494 29.4356Z" />
        </svg>
    