
        <svg xmlns="http://www.w3.org/2000/svg" viewBox="0 0 100 100">
            <path d="M11.7523 23.5031C18.2323 23.5031 23.5123 18.2331 23.5123 11.7531C23.5123 5.2731 18.2323 0.0031 11.7523 0.0031C5.2723 0.0031 0.0023 5.2731 0.0023 11.7531C0.0023 18.2331 5.2723 23.5031 11.7523 23.5031ZM6.4923 17.0631L11.0623 5.2931C11.3223 4.6331 12.1923 4.6131 12.4423 5.2831L17.0023 17.0631C17.2623 17.7031 16.5623 18.2331 15.9723 17.6631L12.0223 13.7031C11.8623 13.5331 11.6523 13.5331 11.4823 13.7031L7.5323 17.6631C6.9523 18.2331 6.2323 17.7031 6.4923 17.0631Z" />
        </svg>
    