
        <svg xmlns="http://www.w3.org/2000/svg" viewBox="0 0 100 100">
            <path d="M12.2223 24.4436C18.9723 24.4436 24.4423 18.9636 24.4423 12.2236C24.4423 5.4736 18.9723 0.0036 12.2223 0.0036C5.4823 0.0036 0.0023 5.4736 0.0023 12.2236C0.0023 18.9636 5.4823 24.4436 12.2223 24.4436ZM15.5023 13.0336L11.1823 8.6936L16.4023 6.2436C17.4823 5.7436 18.4423 6.7136 17.9523 7.7936ZM17.0023 17.8736L6.5723 7.4436C6.3123 7.1836 6.3123 6.7636 6.5723 6.5036C6.8423 6.2236 7.2623 6.2336 7.5323 6.5036L17.9623 16.9236C18.2323 17.1836 18.2223 17.6036 17.9623 17.8736C17.7023 18.1336 17.2723 18.1336 17.0023 17.8736ZM5.8123 13.2236C4.6523 13.2236 4.3623 11.8936 5.4123 11.3936L7.8423 10.2536L10.8023 13.2236ZM12.8323 18.7836C12.3623 19.8436 11.0323 19.5536 11.0323 18.3836V13.4436L13.9523 16.3736Z" />
        </svg>
    