
        <svg xmlns="http://www.w3.org/2000/svg" viewBox="0 0 100 100">
            <path d="M3.4617 21.2264H23.9917C26.2817 21.2264 27.4417 20.0464 27.4417 17.7964V3.4264C27.4417 1.1764 26.2817 -0.0036 23.9917 -0.0036H3.4617C1.1717 -0.0036 0.0017 1.1564 0.0017 3.4264V17.7964C0.0017 20.0664 1.1717 21.2264 3.4617 21.2264ZM3.4817 19.7664C2.1717 19.7664 1.4517 19.0764 1.4517 17.7164V3.5064C1.4517 2.1464 2.1717 1.4564 3.4817 1.4564H23.9617C25.2517 1.4564 25.9917 2.1464 25.9917 3.5064V17.7164C25.9917 19.0764 25.2517 19.7664 23.9617 19.7664ZM9.4817 15.2664C9.4817 16.1864 9.8817 16.5964 10.7117 16.5964H16.7417C17.5817 16.5964 17.9917 16.1864 17.9917 15.2664V10.5164C17.9917 9.6364 17.6117 9.2264 16.8517 9.1964V7.6864C16.8517 5.6164 15.6017 4.2264 13.7317 4.2264C11.8617 4.2264 10.6017 5.6164 10.6017 7.6864V9.1964C9.8417 9.2264 9.4817 9.6364 9.4817 10.5164ZM11.6117 9.1864V7.6064C11.6117 6.1664 12.4717 5.2264 13.7317 5.2264C15.0017 5.2264 15.8417 6.1664 15.8417 7.6064V9.1864Z" />
        </svg>
    