
        <svg xmlns="http://www.w3.org/2000/svg" viewBox="0 0 100 100">
            <path d="M12.1023 24.2064C18.7823 24.2064 24.2123 18.7864 24.2123 12.1064C24.2123 5.4264 18.7823 -0.0036 12.1023 -0.0036C5.4223 -0.0036 0.0023 5.4264 0.0023 12.1064C0.0023 18.7864 5.4223 24.2064 12.1023 24.2064ZM12.1023 21.8164C6.7223 21.8164 2.3823 17.4864 2.3823 12.1064C2.3823 6.7264 6.7223 2.3764 12.1023 2.3764C17.4823 2.3764 21.8323 6.7264 21.8323 12.1064C21.8323 17.4864 17.4823 21.8164 12.1023 21.8164ZM7.9023 16.6664C7.9023 17.5564 8.2923 17.9664 9.1123 17.9664H15.0823C15.9023 17.9664 16.3023 17.5564 16.3023 16.6664V12.0864C16.3023 11.2864 15.9723 10.8764 15.3023 10.8164V9.4764C15.3023 7.3264 14.0123 5.8864 12.0923 5.8864C10.1823 5.8864 8.8823 7.3264 8.8823 9.4764V10.8064C8.2223 10.8764 7.9023 11.2864 7.9023 12.0864ZM10.2523 10.7764V9.3664C10.2523 8.0764 10.9923 7.2164 12.0923 7.2164C13.2023 7.2164 13.9423 8.0664 13.9423 9.3664V10.7764Z" />
        </svg>
    