
        <svg xmlns="http://www.w3.org/2000/svg" viewBox="0 0 100 100">
            <path d="M3.8417 21.8628H23.9217C26.4517 21.8628 27.7617 20.5628 27.7617 18.0728V3.7928C27.7617 1.3028 26.4517 0.0028 23.9217 0.0028H3.8417C1.3117 0.0028 0.0017 1.2928 0.0017 3.7928V18.0728C0.0017 20.5628 1.3117 21.8628 3.8417 21.8628ZM3.9817 19.5728C2.8917 19.5728 2.3017 19.0028 2.3017 17.8728V3.9928C2.3017 2.8628 2.8917 2.2828 3.9817 2.2828H23.7817C24.8517 2.2828 25.4617 2.8628 25.4617 3.9928V17.8728C25.4617 19.0028 24.8517 19.5728 23.7817 19.5728ZM9.6817 15.4828C9.6817 16.3728 10.0817 16.7828 10.9117 16.7828H16.8617C17.6917 16.7828 18.0917 16.3728 18.0917 15.4828V10.9128C18.0917 10.1028 17.7617 9.6928 17.1017 9.6328V8.3128C17.1017 6.1528 15.8017 4.7028 13.8917 4.7028C11.9717 4.7028 10.6717 6.1528 10.6717 8.3128V9.6328C10.0117 9.6928 9.6817 10.1028 9.6817 10.9128ZM12.0517 9.6128V8.1828C12.0517 6.8928 12.7717 6.0328 13.8917 6.0328C15.0017 6.0328 15.7217 6.8928 15.7217 8.1828V9.6128Z" />
        </svg>
    