
        <svg xmlns="http://www.w3.org/2000/svg" viewBox="0 0 100 100">
            <path d="M3.8717 0.7931H15.4817C15.4617 0.3431 15.1617 0.0031 14.6717 0.0031H4.6717C4.1817 0.0031 3.8917 0.3431 3.8717 0.7931ZM2.0817 3.4931H17.2617C17.2217 3.0131 16.9417 2.6731 16.4317 2.6731H2.9217C2.4017 2.6731 2.1217 3.0131 2.0817 3.4931ZM3.1617 25.0031H16.2617C18.2717 25.0031 19.3517 23.8931 19.3517 21.8531V8.8131C19.3517 6.7631 18.2617 5.6631 16.1817 5.6631H3.1617C1.0917 5.6631 0.0017 6.7431 0.0017 8.8131V21.8531C0.0017 23.9331 1.0917 25.0031 3.1617 25.0031ZM3.1917 24.1431C1.6617 24.1431 0.8717 23.3431 0.8717 21.8131V8.8431C0.8717 7.3231 1.6617 6.5231 3.1917 6.5231H16.1617C17.6217 6.5231 18.4817 7.3231 18.4817 8.8431V21.8131C18.4817 23.3431 17.6217 24.1431 16.2317 24.1431ZM5.4017 20.0631C5.4017 21.0131 5.8217 21.4331 6.6917 21.4331H12.6717C13.5317 21.4331 13.9617 21.0131 13.9617 20.0631V15.1831C13.9617 14.2431 13.5517 13.8231 12.7017 13.8131V12.1431C12.7017 10.1831 11.4817 8.8931 9.6817 8.8931C7.8717 8.8931 6.6517 10.1831 6.6517 12.1431V13.8131C5.8117 13.8231 5.4017 14.2431 5.4017 15.1831ZM7.3817 13.8131V12.1131C7.3817 10.6031 8.3117 9.6131 9.6817 9.6131C11.0517 9.6131 11.9717 10.6031 11.9717 12.1131V13.8131Z" />
        </svg>
    