
        <svg xmlns="http://www.w3.org/2000/svg" viewBox="0 0 100 100">
            <path d="M2.6917 19.4516H10.2617V21.7116H10.1917C9.6817 21.7116 9.2417 22.1416 9.2417 22.6616C9.2417 23.1916 9.6817 23.6116 10.1917 23.6116H17.7417C18.2617 23.6116 18.6817 23.1916 18.6817 22.6616C18.6817 22.1416 18.2617 21.7116 17.7417 21.7116H17.6717V19.4516H25.2317C26.9217 19.4516 27.9417 18.4316 27.9417 16.7416V2.6916C27.9417 1.0116 26.9217 0.0016 25.2317 0.0016H2.6917C1.0217 0.0016 0.0017 1.0116 0.0017 2.6916V16.7416C0.0017 18.4316 1.0217 19.4516 2.6917 19.4516ZM2.7317 17.5616C2.2117 17.5616 1.8917 17.2416 1.8917 16.7216V2.7316C1.8917 2.2016 2.2117 1.8916 2.7317 1.8916H25.2117C25.7217 1.8916 26.0517 2.2016 26.0517 2.7316V16.7216C26.0517 17.2416 25.7217 17.5616 25.2117 17.5616ZM9.7617 12.6916C9.7617 13.3616 10.0917 13.7016 10.7217 13.7016H14.6917C15.3317 13.7016 15.6417 13.3616 15.6417 12.6916V9.6416C15.6417 9.0816 15.4117 8.7516 14.9517 8.6716V7.6616C14.9517 6.7816 15.4117 6.2316 16.2117 6.2316C17.0017 6.2316 17.4717 6.7816 17.4717 7.6616V8.4816C17.4717 8.8116 17.7317 9.0816 18.0617 9.0816C18.3617 9.0816 18.6317 8.8116 18.6317 8.4816V7.6616C18.6317 6.1916 17.6817 5.1116 16.2117 5.1116C14.7417 5.1116 13.7917 6.1916 13.7917 7.7716V8.6516H10.7217C10.0917 8.6516 9.7617 8.9716 9.7617 9.6416Z" />
        </svg>
    