
        <svg xmlns="http://www.w3.org/2000/svg" viewBox="0 0 100 100">
            <path d="M3.8117 25.3706H16.2917C18.8017 25.3706 20.1017 24.0506 20.1017 21.5306V10.9006C20.1017 9.2706 19.8917 8.5206 18.8717 7.4906L12.7117 1.2306C11.7317 0.2306 10.9217 0.0006 9.4617 0.0006H3.8117C1.3017 0.0006 0.0017 1.3206 0.0017 3.8406V21.5306C0.0017 24.0606 1.3017 25.3706 3.8117 25.3706ZM3.9917 23.0706C2.8617 23.0706 2.3017 22.4806 2.3017 21.3906V3.9806C2.3017 2.9106 2.8617 2.3006 3.9917 2.3006H8.9917V8.7206C8.9917 10.3906 9.8217 11.2006 11.4817 11.2006H17.8017V21.3906C17.8017 22.4806 17.2217 23.0706 16.0917 23.0706ZM11.6917 9.1906C11.2117 9.1906 11.0117 8.9806 11.0117 8.5006V2.6106L17.4817 9.1906ZM7.6617 21.8706H12.4717C13.1217 21.8706 13.4517 21.5406 13.4517 20.8106V17.1306C13.4517 16.4906 13.1817 16.1406 12.6417 16.0906V15.0206C12.6417 13.2906 11.6017 12.1206 10.0617 12.1206C8.5217 12.1206 7.4717 13.2906 7.4717 15.0206V16.0906C6.9417 16.1506 6.6717 16.4906 6.6717 17.1306V20.8106C6.6717 21.5406 6.9917 21.8706 7.6617 21.8706ZM8.5817 16.0806V14.9306C8.5817 13.8706 9.1617 13.1906 10.0517 13.1906C10.9617 13.1906 11.5417 13.8706 11.5417 14.9306V16.0806Z" />
        </svg>
    