
        <svg xmlns="http://www.w3.org/2000/svg" viewBox="0 0 100 100">
            <path d="M4.7717 1.6648H19.6517C19.5717 0.5848 18.9117 0.0048 17.7617 0.0048H6.6517C5.5117 0.0048 4.8517 0.5848 4.7717 1.6648ZM2.4017 5.1448H22.0217C21.8717 4.0048 21.2717 3.3348 19.9717 3.3348H4.4517C3.1517 3.3348 2.5617 4.0048 2.4017 5.1448ZM3.8317 26.4948H20.5817C23.0817 26.4948 24.4117 25.1748 24.4117 22.6848V10.8748C24.4117 8.4048 23.0817 7.0648 20.5817 7.0648H3.8317C1.3217 7.0648 0.0017 8.3948 0.0017 10.8748V22.6848C0.0017 25.1748 1.3217 26.4948 3.8317 26.4948ZM7.8517 21.5048V16.8048C7.8517 15.9848 8.1917 15.5548 8.8517 15.4548V14.1348C8.8517 11.8848 10.2117 10.3748 12.2117 10.3748C14.2217 10.3748 15.5817 11.8848 15.5817 14.1348V15.4648C16.2417 15.5548 16.5717 15.9848 16.5717 16.8048V21.5048C16.5717 22.4448 16.1617 22.8748 15.2817 22.8748H9.1517C8.2717 22.8748 7.8517 22.4448 7.8517 21.5048ZM10.4017 15.4248H14.0317V14.0148C14.0317 12.7348 13.3017 11.8848 12.2117 11.8848C11.1217 11.8848 10.4017 12.7348 10.4017 14.0148Z" />
        </svg>
    