
        <svg xmlns="http://www.w3.org/2000/svg" viewBox="0 0 100 100">
            <path d="M11.1317 4.0358H25.1017V4.0158C24.8817 1.4758 23.2417 -0.0042 20.5317 -0.0042H4.5917C1.7017 -0.0042 0.0017 1.6958 0.0017 4.5958V16.1058C0.0017 18.9058 1.5717 20.5658 4.3017 20.6758H4.3217V10.8258C4.3217 6.7158 7.0117 4.0358 11.1317 4.0358ZM11.1317 26.9158H27.0617C29.9617 26.9158 31.6617 25.2258 31.6617 22.3258V10.8258C31.6617 7.9358 29.9617 6.2358 27.0617 6.2358H11.1317C8.2217 6.2358 6.5317 7.9358 6.5317 10.8258V22.3258C6.5317 25.2258 8.2217 26.9158 11.1317 26.9158ZM14.7517 21.1658V16.7258C14.7517 15.9458 15.0317 15.4958 15.6017 15.3158V14.2058C15.6017 11.8958 17.0117 10.3358 19.1017 10.3358C21.2017 10.3358 22.6217 11.8958 22.6217 14.2058V15.3258C23.1717 15.4958 23.4617 15.9458 23.4617 16.7258V21.1658C23.4617 22.2058 22.9917 22.6658 22.0417 22.6658H16.1817C15.2217 22.6658 14.7517 22.2058 14.7517 21.1658ZM17.7917 15.2358H20.4117V14.1358C20.4117 13.1158 19.9017 12.4958 19.0917 12.4958C18.2917 12.4958 17.7917 13.1358 17.7917 14.1358Z" />
        </svg>
    