
        <svg xmlns="http://www.w3.org/2000/svg" viewBox="0 0 100 100">
            <path d="M3.9417 25.5427H16.4517C19.0217 25.5427 20.3917 24.1627 20.3917 21.5727V11.2027H11.4117C9.9717 11.2027 9.2717 10.4927 9.2717 9.0427V0.0027H3.9417C1.3717 0.0027 0.0017 1.3727 0.0017 3.9627V21.5727C0.0017 24.1627 1.3617 25.5427 3.9417 25.5427ZM11.7517 9.4127H20.2717C20.2117 8.8327 19.7917 8.3127 19.1517 7.6527L12.8017 1.2227C12.1717 0.5927 11.6217 0.1627 11.0617 0.1027V8.7227C11.0617 9.1727 11.3017 9.4127 11.7517 9.4127ZM7.7817 22.8727C7.0917 22.8727 6.7417 22.5227 6.7417 21.7727V18.0627C6.7417 17.3927 7.0117 17.0427 7.5517 16.9827V15.9027C7.5517 14.1327 8.6217 12.9327 10.2117 12.9327C11.7917 12.9327 12.8817 14.1327 12.8817 15.9027V16.9827C13.4017 17.0427 13.6717 17.3927 13.6717 18.0627V21.7727C13.6717 22.5227 13.3317 22.8727 12.6417 22.8727ZM8.7617 16.9527H11.6417V15.8227C11.6417 14.8027 11.0717 14.1327 10.2117 14.1327C9.3317 14.1327 8.7617 14.8027 8.7617 15.8227Z" />
        </svg>
    