
        <svg xmlns="http://www.w3.org/2000/svg" viewBox="0 0 100 100">
            <path d="M0.0019 18.0659C0.0019 19.8959 0.6919 21.2359 2.0519 22.0459C2.7219 22.4259 3.1219 22.8859 3.3819 23.6359L3.8919 25.0859C4.1619 25.8659 4.7619 26.2659 5.6019 26.2659H11.1319C12.0019 26.2659 12.5719 25.8759 12.8419 25.0859L13.3619 23.6359C13.6219 22.8859 14.0119 22.4259 14.6819 22.0459C16.0419 21.2359 16.7419 19.8959 16.7419 18.0659V12.3759H16.8019C17.5119 12.3759 17.9719 11.8859 17.9719 11.1359V9.5059C17.9719 8.7559 17.5119 8.2659 16.8019 8.2659H16.7419V8.1959C16.7419 6.3659 16.0419 5.0259 14.6819 4.2159C14.0119 3.8359 13.6219 3.3759 13.3619 2.6259L12.8419 1.1759C12.6019 0.4059 12.0019 -0.0041 11.1319 -0.0041H5.6019C4.7619 -0.0041 4.1619 0.3959 3.8919 1.1759L3.3819 2.6259C3.1219 3.3759 2.7219 3.8559 2.0519 4.2159C0.7019 5.0059 0.0019 6.3559 0.0019 8.1959ZM2.2819 17.6059V8.6559C2.2819 6.9759 3.2419 5.9759 4.8819 5.9759H11.8619C13.5019 5.9759 14.4619 6.9759 14.4619 8.6559V17.6059C14.4619 19.2759 13.5019 20.2859 11.8619 20.2859H4.8819C3.2419 20.2859 2.2819 19.2859 2.2819 17.6059ZM6.3719 17.1659H10.4419C11.1119 17.1659 11.4519 16.8159 11.4519 16.1059V12.9359C11.4519 12.3359 11.2119 12.0159 10.7419 11.8959V11.1359C10.7419 9.6359 9.8019 8.5859 8.4019 8.5859C7.0219 8.5859 6.0719 9.6359 6.0719 11.1359V11.9059C5.6019 12.0159 5.3719 12.3359 5.3719 12.9359V16.1059C5.3719 16.8159 5.6919 17.1659 6.3719 17.1659ZM7.2919 11.8759V11.0459C7.2919 10.2859 7.7319 9.7759 8.4019 9.7759C9.0719 9.7759 9.5319 10.2859 9.5319 11.0459V11.8759Z" />
        </svg>
    