
        <svg xmlns="http://www.w3.org/2000/svg" viewBox="0 0 100 100">
            <path d="M0.0017 18.387C0.0017 19.277 0.7217 20.007 1.6017 20.007H33.4317C34.3117 20.007 35.0417 19.277 35.0417 18.387C35.0417 17.507 34.3117 16.777 33.4317 16.777H31.0217V3.027C31.0217 1.067 29.9317 -0.003 27.9817 -0.003H7.0617C5.1717 -0.003 4.0217 1.067 4.0217 3.027V16.777H1.6017C0.7217 16.777 0.0017 17.507 0.0017 18.387ZM6.6317 16.777V3.687C6.6317 2.957 6.9917 2.617 7.7117 2.617H27.3317C28.0417 2.617 28.4017 2.957 28.4017 3.687V16.777ZM13.3917 12.777C13.3917 13.467 13.7117 13.807 14.3717 13.807H18.4217C19.0617 13.807 19.3917 13.467 19.3917 12.777V9.687C19.3917 9.057 19.1217 8.727 18.6017 8.657V7.757C18.6017 6.937 19.0217 6.417 19.7817 6.417C20.5417 6.417 20.9617 6.937 20.9617 7.757V8.457C20.9617 8.827 21.2617 9.107 21.6117 9.107C21.9617 9.107 22.2517 8.827 22.2517 8.457V7.757C22.2517 6.247 21.2817 5.177 19.7817 5.177C18.2817 5.177 17.3217 6.247 17.3217 7.837V8.657H14.3717C13.7117 8.657 13.3917 8.987 13.3917 9.687Z" />
        </svg>
    