
        <svg xmlns="http://www.w3.org/2000/svg" viewBox="0 0 100 100">
            <path d="M-0.0009 24.4689C-0.0009 26.7589 1.5891 28.2889 3.9691 28.2889H14.8791C17.1291 28.2889 18.6291 26.7589 18.6291 24.4589V3.8289C18.6291 1.5389 17.1291 -0.0011 14.8791 -0.0011H3.9691C1.5891 -0.0011 -0.0009 1.5389 -0.0009 3.8189ZM3.6191 23.2189V5.0789C3.6191 4.3289 4.0891 3.8889 4.8391 3.8889H13.8091C14.5291 3.8889 14.9991 4.3489 14.9991 5.0889V23.1989C14.9991 23.9389 14.5291 24.3989 13.8091 24.3989H4.8391C4.0891 24.3989 3.6191 23.9689 3.6191 23.2189ZM7.2391 18.2589H11.4191C12.1091 18.2589 12.4491 17.9089 12.4491 17.1489V13.9289C12.4491 13.2789 12.1791 12.9289 11.6391 12.8389V12.0089C11.6391 10.6089 10.6891 9.6089 9.3291 9.6089C7.9591 9.6089 7.0191 10.6089 7.0191 12.0089V12.8389C6.4691 12.9289 6.1991 13.2789 6.1991 13.9289V17.1489C6.1991 17.9089 6.5391 18.2589 7.2391 18.2589ZM8.3091 12.8289V11.9789C8.3091 11.3189 8.7191 10.8789 9.3291 10.8789C9.9291 10.8789 10.3491 11.3189 10.3491 11.9789V12.8289Z" />
        </svg>
    