
        <svg xmlns="http://www.w3.org/2000/svg" viewBox="0 0 100 100">
            <path d="M3.0917 20.3644H10.5017V22.3644H10.4517C9.8217 22.3644 9.3017 22.8944 9.3017 23.5244C9.3017 24.1244 9.8217 24.6544 10.4517 24.6544H18.3717C19.0117 24.6544 19.5217 24.1244 19.5217 23.5244C19.5217 22.8944 19.0117 22.3644 18.3717 22.3644H18.3317V20.3644H25.7317C27.6717 20.3644 28.8317 19.2044 28.8317 17.2744V3.0944C28.8317 1.1644 27.6717 0.0044 25.7317 0.0044H3.0917C1.1617 0.0044 0.0017 1.1644 0.0017 3.0944V17.2744C0.0017 19.2044 1.1617 20.3644 3.0917 20.3644ZM3.0117 14.7544C2.6717 14.7544 2.5217 14.6144 2.5217 14.2744V3.3144C2.5217 2.8244 2.8217 2.5344 3.3017 2.5344H25.5217C26.0017 2.5344 26.3117 2.8244 26.3117 3.3144V14.2744C26.3117 14.6144 26.1517 14.7544 25.8117 14.7544ZM10.2917 11.7144C10.2917 12.4144 10.6017 12.7544 11.2617 12.7544H15.3017C15.9617 12.7544 16.2917 12.4144 16.2917 11.7144V8.6244C16.2917 8.0044 16.0217 7.6644 15.4917 7.6044V6.7044C15.4917 5.8844 15.9117 5.3644 16.6717 5.3644C17.4417 5.3644 17.8617 5.8844 17.8617 6.7044V7.4044C17.8617 7.7544 18.1517 8.0544 18.5017 8.0544C18.8517 8.0544 19.1417 7.7544 19.1417 7.4044V6.7044C19.1417 5.1944 18.1717 4.1144 16.6717 4.1144C15.1717 4.1144 14.2117 5.1944 14.2117 6.7844V7.5944H11.2617C10.6017 7.5944 10.2917 7.9344 10.2917 8.6244Z" />
        </svg>
    