
        <svg xmlns="http://www.w3.org/2000/svg" viewBox="0 0 100 100">
            <path d="M0.0017 21.6239C0.0017 23.6039 1.0417 24.6439 3.0117 24.6439H15.0817C17.0617 24.6439 18.1017 23.6039 18.1017 21.6239V3.0239C18.1017 1.0439 17.0617 0.0039 15.0817 0.0039H3.0117C1.0417 0.0039 0.0017 1.0439 0.0017 3.0239ZM0.5717 21.5939V3.0439C0.5717 1.4139 1.4217 0.5739 3.0517 0.5739H15.0617C16.6917 0.5739 17.5317 1.4139 17.5317 3.0439V21.5939C17.5317 23.2239 16.6917 24.0739 15.0617 24.0739H3.0517C1.4217 24.0739 0.5717 23.2239 0.5717 21.5939ZM5.0517 15.2039C5.0517 15.8439 5.3317 16.1339 5.9417 16.1339H9.8917C10.5017 16.1339 10.7817 15.8439 10.7817 15.2039V12.1439C10.7817 11.4939 10.5017 11.2039 9.8917 11.2039H9.8817V10.2339C9.8817 9.1739 10.4717 8.5239 11.4117 8.5239C12.3617 8.5239 12.9617 9.1739 12.9617 10.2339V10.7739C12.9617 10.9439 13.1017 11.0939 13.2817 11.0939C13.4517 11.0939 13.6017 10.9439 13.6017 10.7739V10.2339C13.6017 8.8139 12.7117 7.8539 11.4117 7.8539C10.1217 7.8539 9.2317 8.8139 9.2317 10.2339V11.2039H5.9417C5.3317 11.2039 5.0517 11.4939 5.0517 12.1439Z" />
        </svg>
    