
        <svg xmlns="http://www.w3.org/2000/svg" viewBox="0 0 100 100">
            <path d="M23.5823 21.1214C27.3023 21.1214 30.2623 18.3714 30.2623 14.9514C30.2623 12.4314 28.8323 10.1814 26.4823 9.2014C26.4823 3.8514 22.6323 0.0014 17.6523 0.0014C14.5523 0.0014 12.1723 1.5614 10.6623 3.7314C7.6323 2.9614 4.5123 5.1914 4.3723 8.5114C1.6623 9.0214 0.0023 11.4614 0.0023 14.4414C0.0023 18.0814 3.1923 21.1214 7.3523 21.1214ZM12.4223 17.0314C11.6323 17.0314 11.2623 16.6314 11.2623 15.7714V11.6514C11.2623 10.9214 11.5523 10.5214 12.1623 10.4514V9.2714C12.1623 7.2614 13.3623 5.9414 15.1323 5.9414C16.9023 5.9414 18.1023 7.2614 18.1023 9.2714V10.4514C18.7023 10.5214 18.9923 10.9214 18.9923 11.6514V15.7714C18.9923 16.6314 18.6223 17.0314 17.8523 17.0314ZM13.5423 10.4314H16.7123V9.1614C16.7123 8.0314 16.0923 7.2914 15.1323 7.2914C14.1823 7.2914 13.5423 8.0314 13.5423 9.1614Z" />
        </svg>
    