
        <svg xmlns="http://www.w3.org/2000/svg" viewBox="0 0 100 100">
            <path d="M3.6817 18.312H5.7917V20.112C5.7917 22.532 7.0117 23.742 9.4717 23.742H25.4717C27.9117 23.742 29.1517 22.522 29.1517 20.112V9.062C29.1517 6.642 27.9117 5.422 25.4717 5.422H23.3717V3.632C23.3717 1.222 22.1217 0.002 19.6917 0.002H3.6817C1.2217 0.002 0.0017 1.222 0.0017 3.632V14.682C0.0017 17.112 1.2217 18.312 3.6817 18.312ZM3.7017 16.432C2.5317 16.432 1.8917 15.812 1.8917 14.592V3.742C1.8917 2.522 2.5317 1.882 3.7017 1.882H19.6517C20.8117 1.882 21.4817 2.522 21.4817 3.742V5.422H9.4717C7.0117 5.422 5.7917 6.642 5.7917 9.062V16.432ZM9.4917 21.852C8.3217 21.852 7.6717 21.232 7.6717 20.012V9.162C7.6717 7.942 8.3217 7.312 9.4917 7.312H25.4417C26.6017 7.312 27.2717 7.942 27.2717 9.162V20.012C27.2717 21.232 26.6017 21.852 25.4417 21.852ZM13.2417 19.202C13.2417 20.082 13.6317 20.492 14.4417 20.492H20.5117C21.3317 20.492 21.7117 20.082 21.7117 19.202V14.542C21.7117 13.722 21.3717 13.312 20.6717 13.262V11.882C20.6717 9.722 19.3817 8.282 17.4717 8.282C15.5717 8.282 14.2717 9.722 14.2717 11.882V13.262C13.5817 13.312 13.2417 13.722 13.2417 14.542ZM15.4917 13.252V11.752C15.4917 10.372 16.2917 9.472 17.4717 9.472C18.6717 9.472 19.4517 10.372 19.4517 11.752V13.252Z" />
        </svg>
    