
        <svg xmlns="http://www.w3.org/2000/svg" viewBox="0 0 100 100">
            <path d="M0.0017 18.387C0.0017 19.277 0.7217 20.007 1.6017 20.007H33.4317C34.3117 20.007 35.0417 19.277 35.0417 18.387C35.0417 17.507 34.3117 16.777 33.4317 16.777H31.0217V3.027C31.0217 1.067 29.9317 -0.003 27.9817 -0.003H7.0617C5.1717 -0.003 4.0217 1.067 4.0217 3.027V16.777H1.6017C0.7217 16.777 0.0017 17.507 0.0017 18.387ZM6.6317 16.777V3.687C6.6317 2.957 6.9917 2.617 7.7117 2.617H27.3317C28.0417 2.617 28.4017 2.957 28.4017 3.687V16.777ZM15.4917 13.807H19.5617C20.2217 13.807 20.5617 13.457 20.5617 12.747V9.597C20.5617 8.997 20.3217 8.667 19.8517 8.557V7.797C19.8517 6.297 18.9117 5.257 17.5317 5.257C16.1517 5.257 15.2017 6.297 15.2017 7.797V8.567C14.7317 8.667 14.4917 8.997 14.4917 9.597V12.747C14.4917 13.457 14.8217 13.807 15.4917 13.807ZM16.4217 8.527V7.727C16.4217 6.947 16.8517 6.437 17.5317 6.437C18.2017 6.437 18.6417 6.947 18.6417 7.727V8.527Z" />
        </svg>
    