
        <svg xmlns="http://www.w3.org/2000/svg" viewBox="0 0 100 100">
            <path d="M1.2917 18.0478H9.7117V21.1478H9.4117C9.2317 21.1478 9.1017 21.2678 9.1017 21.4478C9.1017 21.6178 9.2317 21.7278 9.4117 21.7278H16.7317C16.9117 21.7278 17.0417 21.6178 17.0417 21.4478C17.0417 21.2678 16.9117 21.1478 16.7317 21.1478H16.4317V18.0478H24.8517C25.6317 18.0478 26.1417 17.5278 26.1417 16.7578V1.2878C26.1417 0.5178 25.6317 -0.0022 24.8517 -0.0022H1.2917C0.5117 -0.0022 0.0017 0.5178 0.0017 1.2878V16.7578C0.0017 17.5278 0.5117 18.0478 1.2917 18.0478ZM1.3317 17.4678C0.8717 17.4678 0.5717 17.1678 0.5717 16.7178V1.3278C0.5717 0.8778 0.8717 0.5778 1.3317 0.5778H24.8117C25.2617 0.5778 25.5717 0.8778 25.5717 1.3278V16.7178C25.5717 17.1678 25.2617 17.4678 24.8117 17.4678ZM9.0717 11.9278C9.0717 12.5778 9.3517 12.8678 9.9617 12.8678H13.9117C14.5217 12.8678 14.8017 12.5778 14.8017 11.9278V8.8678C14.8017 8.2278 14.5217 7.9378 13.9117 7.9378V6.9578C13.9117 5.9078 14.4917 5.2478 15.4417 5.2478C16.3817 5.2478 16.9817 5.9078 16.9817 6.9578V7.4978C16.9817 7.6778 17.1217 7.8278 17.3017 7.8278C17.4817 7.8278 17.6217 7.6778 17.6217 7.4978V6.9578C17.6217 5.5478 16.7317 4.5778 15.4417 4.5778C14.1417 4.5778 13.2517 5.5478 13.2517 6.9578V7.9378H9.9617C9.3517 7.9378 9.0717 8.2278 9.0717 8.8678Z" />
        </svg>
    