
        <svg xmlns="http://www.w3.org/2000/svg" viewBox="0 0 100 100">
            <path d="M2.6417 22.9683H13.3617C15.0817 22.9683 15.9917 22.0283 15.9917 20.1783V12.1083C15.9917 10.5383 15.3317 9.6183 14.0717 9.3883V6.2883C14.0717 3.3283 15.9717 1.7683 18.1617 1.7683C20.3517 1.7683 22.2517 3.3283 22.2517 6.2883V8.8983C22.2517 9.5883 22.6617 9.9383 23.1917 9.9383C23.6917 9.9383 24.1217 9.6183 24.1217 8.8983V6.5383C24.1217 2.1283 21.2217 -0.0017 18.1617 -0.0017C15.0917 -0.0017 12.2217 2.1283 12.2217 6.5383V9.3283H2.6417C0.9117 9.3283 0.0017 10.2683 0.0017 12.1083V20.1783C0.0017 22.0283 0.9117 22.9683 2.6417 22.9683ZM2.6917 21.1983C2.1917 21.1983 1.9017 20.8783 1.9017 20.3083V11.9783C1.9017 11.3983 2.1917 11.0983 2.6917 11.0983H13.3017C13.8117 11.0983 14.1017 11.3983 14.1017 11.9783V20.3083C14.1017 20.8783 13.8117 21.1983 13.3017 21.1983Z" />
        </svg>
    