
        <svg xmlns="http://www.w3.org/2000/svg" viewBox="0 0 100 100">
            <path d="M2.2817 22.4188H13.5017C14.8817 22.4188 15.7817 21.4587 15.7817 19.9888V11.2388C15.7817 10.0087 15.1417 9.1388 14.1217 8.8988V6.1687C14.1217 2.9688 16.1217 0.8588 18.9717 0.8588C21.8317 0.8588 23.8217 2.9688 23.8217 6.1687V8.6988C23.8217 8.9788 24.0517 9.1688 24.2717 9.1688C24.4917 9.1688 24.7117 8.9888 24.7117 8.6988V6.1788C24.7117 2.4288 22.3017 -0.0012 18.9717 -0.0012C15.6417 -0.0012 13.2317 2.4288 13.2317 6.1788V8.8088H2.2817C0.9117 8.8088 0.0017 9.7688 0.0017 11.2388V19.9888C0.0017 21.4587 0.9117 22.4188 2.2817 22.4188Z" />
        </svg>
    