
        <svg xmlns="http://www.w3.org/2000/svg" viewBox="0 0 100 100">
            <path d="M0.2824 14.6919C-1.1376 18.8119 2.8724 21.6219 10.5724 21.6219C18.2824 21.6219 22.2924 18.8119 20.8724 14.6919L18.2924 7.1319V3.0219C18.2924 1.3519 15.2224 0.0019 10.5724 0.0019C5.9424 0.0019 2.8724 1.3519 2.8724 3.0219V7.0919ZM4.3224 3.0219C4.3224 2.2019 6.8324 1.3719 10.5724 1.3719C14.3324 1.3719 16.8424 2.2019 16.8424 3.0219C16.8424 3.8419 14.3324 4.6719 10.5724 4.6719C6.8324 4.6719 4.3224 3.8419 4.3224 3.0219ZM1.6524 15.1519L3.7724 9.0019C4.8924 10.1319 7.3124 10.8319 10.5724 10.8319C13.7224 10.8319 16.2424 10.1319 17.3924 9.0019L19.5024 15.1519C20.5124 18.1319 17.0724 20.1719 10.5724 20.1719C4.0824 20.1719 0.6424 18.1319 1.6524 15.1519Z" />
        </svg>
    