
        <svg xmlns="http://www.w3.org/2000/svg" viewBox="0 0 100 100">
            <path d="M0.4793 15.3623C-1.5607 20.6023 3.0293 24.2323 12.1693 24.2323C21.2893 24.2323 25.8493 20.4823 23.8493 15.3523L20.9393 7.8423V4.2523C20.9393 1.7923 17.3693 0.0023 12.1693 0.0023C6.9893 0.0023 3.4093 1.7923 3.4093 4.2523V7.8023ZM6.9593 4.2523C6.9593 3.6823 9.0493 3.0723 12.1693 3.0723C15.2993 3.0723 17.3793 3.6823 17.3793 4.2523C17.3793 4.8123 15.2993 5.4423 12.1693 5.4423C9.0493 5.4423 6.9593 4.8123 6.9593 4.2523ZM3.9193 16.5223L6.0093 11.3123C7.4593 12.0623 9.5793 12.5223 12.1693 12.5223C14.7393 12.5223 16.8893 12.0623 18.3393 11.3123L20.4193 16.5223C21.3093 18.7823 18.1393 20.6123 12.1693 20.6123C6.1893 20.6123 2.9693 18.8823 3.9193 16.5223Z" />
        </svg>
    