
        <svg xmlns="http://www.w3.org/2000/svg" viewBox="0 0 100 100">
            <path d="M28.4617 10.0428V2.8728C28.4617 1.0328 27.4417 0.0028 25.5817 0.0028H2.8717C1.0117 0.0028 0.0017 1.0528 0.0017 2.8828V10.0428C0.0017 12.7528 1.0417 14.2028 3.8317 15.0228L13.8617 17.9928C16.3517 18.7228 17.7217 18.4528 19.9417 17.3228L26.5617 13.9528C28.2417 13.1028 28.4617 12.2828 28.4617 10.0428ZM13.7617 12.6528C12.3717 12.6528 11.4917 11.8028 11.2217 10.5628C11.2017 10.4028 11.2017 10.3328 11.2017 10.2428C11.2017 10.0328 11.3117 9.8628 11.5117 9.8628C11.6517 9.8628 11.7917 9.9328 11.8117 10.1628C11.9317 11.2228 12.6217 12.0428 13.7817 12.0428C14.9217 12.0428 15.5717 11.2128 15.5717 10.1128C15.5717 8.9928 15.0117 8.4928 13.9717 8.0828L13.3617 7.8528C12.0617 7.3328 11.3217 6.6728 11.3217 5.2628C11.3217 3.8428 12.3017 2.8628 13.6617 2.8628C14.8617 2.8628 15.6817 3.5628 16.0117 4.6828C16.0317 4.8028 16.0617 4.9928 16.0617 5.1328C16.0617 5.3228 15.9517 5.4728 15.7417 5.4728C15.5717 5.4728 15.4717 5.3828 15.4317 5.1928C15.3117 4.2428 14.7317 3.4928 13.6617 3.4928C12.6017 3.4928 11.9917 4.2328 11.9917 5.2528C11.9917 6.2828 12.6317 6.8328 13.5817 7.2028L14.1817 7.4428C15.4117 7.9328 16.2417 8.5428 16.2417 10.0528C16.2417 11.5628 15.3917 12.6528 13.7617 12.6528ZM6.2117 12.5028C6.0217 12.5028 5.8717 12.3628 5.8717 12.1428V3.2328C5.8717 3.0628 6.0317 2.9028 6.2217 2.9028C6.4017 2.9028 6.5517 3.0628 6.5517 3.2328V11.8828H9.8217C9.9717 11.8828 10.1217 12.0228 10.1217 12.1828C10.1217 12.3628 9.9717 12.5028 9.8217 12.5028ZM18.2717 12.5228C18.0717 12.5228 17.9517 12.3628 17.9517 12.1628V3.3828C17.9517 3.1828 18.0717 3.0328 18.2717 3.0328H20.4717C21.8417 3.0328 22.6517 4.0428 22.6517 5.3528C22.6517 6.3628 22.1017 7.3628 21.2617 7.5428V7.5828C22.4017 7.7328 23.0017 8.7928 23.0017 9.9728C23.0017 11.4928 22.1017 12.5228 20.5117 12.5228ZM18.6117 7.3328H20.1917C21.3317 7.3328 21.9617 6.5728 21.9617 5.4228C21.9617 4.3628 21.3917 3.6528 20.3217 3.6528H18.6117ZM18.6117 11.9028H20.4017C21.6317 11.9028 22.3217 11.1528 22.3217 9.9228C22.3217 8.6628 21.5717 7.9428 20.3117 7.9428H18.6117Z" />
        </svg>
    