
        <svg xmlns="http://www.w3.org/2000/svg" viewBox="0 0 100 100">
            <path d="M9.9517 0.0036C2.9617 0.0036 0.0017 3.0536 0.0017 9.9136V17.3836C0.0017 20.0136 1.4517 21.4536 4.1017 21.4536H23.7117C26.3417 21.4536 27.8017 20.0036 27.8017 17.3836V9.9136C27.8017 3.0536 24.8317 0.0036 17.8517 0.0036ZM10.0517 3.0236H17.7417C22.6717 3.0236 24.7717 5.1236 24.7717 9.8936V17.0136C24.7717 17.9436 24.2717 18.4336 23.3717 18.4336H4.4317C3.5317 18.4336 3.0217 17.9436 3.0217 17.0136V9.8936C3.0217 5.1236 5.1217 3.0236 10.0517 3.0236ZM9.9517 15.2836H12.9117C13.3617 15.2836 13.7317 14.9136 13.7317 14.4736C13.7317 14.0236 13.3617 13.6536 12.9117 13.6536H10.9417V7.0336C10.9417 6.4836 10.5017 6.0336 9.9617 6.0336C9.4117 6.0336 8.9617 6.4836 8.9617 7.0336V14.2536C8.9617 14.8936 9.3117 15.2836 9.9517 15.2836ZM16.4517 15.4236C16.9917 15.4236 17.4417 14.9736 17.4417 14.4236V7.8036H18.5117C18.9617 7.8036 19.3217 7.4436 19.3217 6.9836C19.3217 6.5536 18.9617 6.1836 18.5117 6.1836H14.3517C13.9017 6.1836 13.5517 6.5536 13.5517 6.9836C13.5517 7.4436 13.9017 7.8036 14.3517 7.8036H15.4617V14.4236C15.4617 14.9736 15.9017 15.4236 16.4517 15.4236Z" />
        </svg>
    