
        <svg xmlns="http://www.w3.org/2000/svg" viewBox="0 0 100 100">
            <path d="M11.7523 23.5048C18.2423 23.5048 23.5123 18.2448 23.5123 11.7548C23.5123 5.2648 18.2423 0.0048 11.7523 0.0048C5.2623 0.0048 0.0023 5.2648 0.0023 11.7548C0.0023 18.2448 5.2623 23.5048 11.7523 23.5048ZM11.7523 21.9848C6.0923 21.9848 1.5223 17.4148 1.5223 11.7548C1.5223 6.0948 6.0923 1.5148 11.7523 1.5148C17.4123 1.5148 21.9923 6.0948 21.9923 11.7548C21.9923 17.4148 17.4123 21.9848 11.7523 21.9848ZM7.7223 16.5048H11.1723C11.4823 16.5048 11.7523 16.2348 11.7523 15.9148C11.7523 15.6048 11.4823 15.3348 11.1723 15.3348H8.4123V7.5548C8.4123 7.1948 8.1023 6.8748 7.7323 6.8748C7.3623 6.8748 7.0523 7.1948 7.0523 7.5548V15.7848C7.0523 16.2348 7.3023 16.5048 7.7223 16.5048ZM14.3823 16.6248C14.7523 16.6248 15.0623 16.3248 15.0623 15.9448V8.1648H16.6023C16.9223 8.1648 17.1823 7.9148 17.1823 7.5848C17.1823 7.2648 16.9223 7.0148 16.6023 7.0148H12.0323C11.7023 7.0148 11.4623 7.2648 11.4623 7.5848C11.4623 7.9148 11.7023 8.1648 12.0323 8.1648H13.7023V15.9448C13.7023 16.3248 14.0023 16.6248 14.3823 16.6248Z" />
        </svg>
    