
        <svg xmlns="http://www.w3.org/2000/svg" viewBox="0 0 100 100">
            <path d="M12.2223 24.4436C18.9723 24.4436 24.4423 18.9736 24.4423 12.2236C24.4423 5.4736 18.9723 0.0036 12.2223 0.0036C5.4723 0.0036 0.0023 5.4736 0.0023 12.2236C0.0023 18.9736 5.4723 24.4436 12.2223 24.4436ZM12.2223 21.7636C6.9523 21.7636 2.6823 17.4936 2.6823 12.2236C2.6823 6.9536 6.9523 2.6836 12.2223 2.6836C17.4923 2.6836 21.7623 6.9536 21.7623 12.2236C21.7623 17.4936 17.4923 21.7636 12.2223 21.7636ZM8.1823 16.8536H11.2923C11.7223 16.8536 12.0723 16.5036 12.0723 16.0736C12.0723 15.6436 11.7223 15.2936 11.2923 15.2936H9.1323V8.4036C9.1323 7.8936 8.7023 7.4636 8.1923 7.4636C7.6723 7.4636 7.2523 7.8936 7.2523 8.4036V15.8636C7.2523 16.4736 7.5823 16.8536 8.1823 16.8536ZM14.8123 16.9936C15.3323 16.9936 15.7523 16.5736 15.7523 16.0436V9.1536H16.9423C17.3623 9.1536 17.7223 8.8136 17.7223 8.3836C17.7223 7.9536 17.3623 7.6136 16.9423 7.6136H12.6323C12.2023 7.6136 11.8623 7.9536 11.8623 8.3836C11.8623 8.8136 12.2023 9.1536 12.6323 9.1536H13.8623V16.0436C13.8623 16.5736 14.2823 16.9936 14.8123 16.9936Z" />
        </svg>
    