
        <svg xmlns="http://www.w3.org/2000/svg" viewBox="0 0 100 100">
            <path d="M5.3697 23.0872L9.4597 22.2972C12.2397 21.7772 13.5597 20.1372 13.5597 17.2172V16.4372L16.9997 15.7072L20.4497 16.4372V17.2172C20.4497 20.1372 21.7697 21.7772 24.5497 22.2972L28.6497 23.0872C32.4897 23.8172 34.7597 21.4572 33.7997 17.7672L30.1997 3.9772C29.5397 1.4272 27.7397 -0.0028 25.1897 -0.0028C22.3897 -0.0028 20.4497 1.7972 20.4497 4.5072V12.8772L18.7397 12.5172V2.0872C18.7397 1.1372 17.9597 0.3472 16.9997 0.3472C16.0497 0.3472 15.2697 1.1372 15.2697 2.0872V12.5172L13.5597 12.8772V4.5072C13.5597 1.7972 11.6097 -0.0028 8.8197 -0.0028C6.2797 -0.0028 4.4697 1.4272 3.8097 3.9772L0.2197 17.7672C-0.7403 21.4572 1.5197 23.8172 5.3697 23.0872ZM7.6497 17.6972C6.7197 17.8972 5.7597 17.2772 5.5897 16.3272C5.3997 15.4072 6.0097 14.4772 6.9397 14.2872L8.6497 13.9372L7.1097 12.5672C6.3997 11.9372 6.3297 10.8172 6.9697 10.0872C7.5997 9.3972 8.7397 9.3372 9.4297 9.9772L12.8197 13.0472L13.5597 12.8772V16.4372ZM26.3697 17.6972L20.4497 16.4372V12.8772L21.1897 13.0472L24.5797 9.9772C25.2597 9.3372 26.4097 9.3972 27.0497 10.0872C27.6797 10.8172 27.6097 11.9372 26.8897 12.5672L25.3697 13.9372L27.0697 14.2872C27.9897 14.4772 28.5997 15.4072 28.4297 16.3272C28.2497 17.2772 27.2897 17.8972 26.3697 17.6972Z" />
        </svg>
    