
        <svg xmlns="http://www.w3.org/2000/svg" viewBox="0 0 100 100">
            <path d="M12.2223 24.4436C18.9723 24.4436 24.4423 18.9636 24.4423 12.2236C24.4423 5.4736 18.9723 0.0036 12.2223 0.0036C5.4823 0.0036 0.0023 5.4736 0.0023 12.2236C0.0023 18.9636 5.4823 24.4436 12.2223 24.4436ZM7.6423 17.8836C6.9723 17.8836 6.5723 17.4536 6.5723 16.7136V7.8736C6.5723 7.0336 7.1623 6.4736 8.0323 6.4736C8.7923 6.4736 9.2923 6.8336 9.5523 7.5536L12.1923 14.5236H12.2623L14.8923 7.5536C15.1523 6.8336 15.6423 6.4736 16.4223 6.4736C17.2823 6.4736 17.8623 7.0336 17.8623 7.8736V16.7136C17.8623 17.4636 17.4623 17.8836 16.7923 17.8836C16.1223 17.8836 15.7423 17.4536 15.7423 16.7136V10.4336H15.6223L13.2623 16.5836C13.0523 17.1136 12.7223 17.3436 12.2023 17.3436C11.6723 17.3436 11.3423 17.0936 11.1523 16.5836L8.8223 10.4336H8.7023V16.7136C8.7023 17.4636 8.3123 17.8836 7.6423 17.8836Z" />
        </svg>
    