
        <svg xmlns="http://www.w3.org/2000/svg" viewBox="0 0 100 100">
            <path d="M3.9717 22.1117H18.1317C20.7317 22.1117 22.1017 20.7417 22.1017 18.1717V3.9417C22.1017 1.3717 20.7317 0.0017 18.1317 0.0017H3.9717C1.3817 0.0017 0.0017 1.3717 0.0017 3.9417V18.1717C0.0017 20.7417 1.3817 22.1117 3.9717 22.1117ZM6.5117 16.7117C5.8517 16.7117 5.4617 16.2817 5.4617 15.5417V6.7017C5.4617 5.8617 6.0317 5.3017 6.9017 5.3017C7.6717 5.3017 8.1717 5.6617 8.4217 6.3817L11.0717 13.3517H11.1417L13.7717 6.3817C14.0317 5.6617 14.5217 5.3017 15.2917 5.3017C16.1617 5.3017 16.7417 5.8617 16.7417 6.7017V15.5417C16.7417 16.2917 16.3317 16.7117 15.6717 16.7117C15.0117 16.7117 14.6117 16.2817 14.6117 15.5417V9.2617H14.4917L12.1417 15.4117C11.9417 15.9417 11.6017 16.1717 11.0717 16.1717C10.5617 16.1717 10.2317 15.9217 10.0317 15.4117L7.7017 9.2617H7.5817V15.5417C7.5817 16.2917 7.1817 16.7117 6.5117 16.7117Z" />
        </svg>
    