
        <svg xmlns="http://www.w3.org/2000/svg" viewBox="0 0 100 100">
            <path d="M7.8117 19.5009H17.9017C24.0017 19.5009 25.7217 17.2009 25.7217 11.6809V7.8209C25.7217 2.3009 24.0017 0.0009 17.9017 0.0009H7.8117C1.7217 0.0009 0.0017 2.3009 0.0017 7.8209V11.6809C0.0017 17.2009 1.7217 19.5009 7.8117 19.5009ZM7.2117 14.6209C7.0217 14.6209 6.8917 14.4609 6.8917 14.2709V5.4209C6.8917 5.1009 7.0817 4.9109 7.4217 4.9109C7.6617 4.9109 7.8517 5.0809 7.9417 5.3909L10.3017 13.5709H10.3817L12.7017 5.3909C12.8017 5.0609 12.9717 4.9109 13.2617 4.9109C13.6017 4.9109 13.7717 5.0709 13.7717 5.4209V14.2709C13.7717 14.4609 13.6417 14.6209 13.4517 14.6209C13.2617 14.6209 13.1117 14.4809 13.1117 14.2709V6.1309H13.0917L10.8017 14.0709C10.7317 14.3409 10.6217 14.5109 10.3317 14.5109C10.0517 14.5109 9.9417 14.3109 9.8717 14.0709L7.5717 6.1309H7.5317V14.2709C7.5317 14.4709 7.3917 14.6209 7.2117 14.6209ZM17.7217 14.5909C17.5317 14.5909 17.3717 14.4209 17.3717 14.2409V5.7909L15.8417 7.0209C15.7817 7.0709 15.7517 7.0909 15.6517 7.0909C15.4817 7.0909 15.3717 6.9609 15.3717 6.8009C15.3717 6.6809 15.4217 6.6109 15.5017 6.5409L17.1917 5.1409C17.3217 5.0309 17.4817 4.9209 17.6817 4.9209C17.8817 4.9209 18.0517 5.0809 18.0517 5.2809V14.2409C18.0517 14.4209 17.8817 14.5909 17.7217 14.5909Z" />
        </svg>
    