
        <svg xmlns="http://www.w3.org/2000/svg" viewBox="0 0 100 100">
            <path d="M9.2317 21.0344H18.4017C25.1917 21.0344 27.6317 18.5144 27.6317 12.2444V8.8044C27.6317 2.5344 25.1917 0.0044 18.4017 0.0044H9.2317C2.4417 0.0044 0.0017 2.5344 0.0017 8.8044V12.2444C0.0017 18.5144 2.4417 21.0344 9.2317 21.0344ZM9.2317 19.1444C3.7017 19.1444 1.8917 17.3544 1.8917 12.2444V8.8044C1.8917 3.6944 3.7017 1.8844 9.2317 1.8844H18.4017C23.9317 1.8844 25.7417 3.6944 25.7417 8.8044V12.2444C25.7417 17.3544 23.9317 19.1444 18.4017 19.1444ZM16.7417 15.2544H20.8117C21.2217 15.2544 21.4717 14.9844 21.4717 14.5744C21.4717 14.1344 21.2117 13.8844 20.8117 13.8844H18.0217V13.7944L19.7317 11.6244C20.9017 10.1744 21.2917 9.3044 21.2917 8.2744C21.2917 6.6944 20.2117 5.5444 18.6017 5.5444C17.1117 5.5444 15.9617 6.7844 15.9617 8.0044C15.9617 8.4344 16.2217 8.7444 16.6617 8.7444C17.0517 8.7444 17.3017 8.5644 17.4117 8.1844C17.6417 7.3944 17.9217 6.9044 18.6017 6.9044C19.3017 6.9044 19.7017 7.5244 19.7017 8.3544C19.7017 9.2944 19.0417 10.2444 18.4217 11.0344L16.3817 13.6444C16.1717 13.9244 15.9517 14.2144 15.9517 14.5744C15.9517 14.9744 16.2117 15.2544 16.7417 15.2544ZM7.1017 15.4344C7.5717 15.4344 7.8617 15.1144 7.8617 14.6144V8.2844H7.9317L9.5317 14.4844C9.6317 14.9344 9.9217 15.2544 10.3917 15.2544C10.8717 15.2544 11.1217 14.9444 11.2517 14.4744L12.8417 8.2844H12.9017V14.6144C12.9017 15.1144 13.1817 15.4344 13.6617 15.4344C14.1517 15.4344 14.4217 15.1144 14.4217 14.6144V6.8444C14.4217 6.0844 13.9617 5.6444 13.2217 5.6444C12.5417 5.6444 12.1617 5.9744 12.0017 6.6344L10.4217 13.0244H10.3617L8.7417 6.6344C8.5817 5.9744 8.1917 5.6444 7.5517 5.6444C6.8117 5.6444 6.3417 6.1044 6.3417 6.8444V14.6144C6.3417 15.1144 6.6317 15.4344 7.1017 15.4344Z" />
        </svg>
    