
        <svg xmlns="http://www.w3.org/2000/svg" viewBox="0 0 100 100">
            <path d="M9.2717 21.4219H18.5817C25.4417 21.4219 27.8517 18.9219 27.8517 12.4719V8.9619C27.8517 2.4919 25.4417 0.0019 18.5817 0.0019H9.2717C2.4117 0.0019 0.0017 2.4919 0.0017 8.9619V12.4719C0.0017 18.9219 2.4117 21.4219 9.2717 21.4219ZM9.2717 19.1219C3.9917 19.1219 2.3017 17.4419 2.3017 12.4719V8.9619C2.3017 3.9819 3.9917 2.2919 9.2717 2.2919H18.5817C23.8617 2.2919 25.5617 3.9819 25.5617 8.9619V12.4719C25.5617 17.4419 23.8617 19.1219 18.5817 19.1219ZM16.8117 15.3819H20.7917C21.2317 15.3819 21.4817 15.0819 21.4817 14.6619C21.4817 14.2219 21.2217 13.9419 20.7917 13.9419H18.1517V13.8519L19.7717 11.8219C20.8817 10.4419 21.3117 9.5819 21.3117 8.5119C21.3117 6.9119 20.2217 5.8019 18.6117 5.8019C17.1317 5.8019 15.9817 7.0119 15.9817 8.2219C15.9817 8.6819 16.2517 9.0119 16.7217 9.0119C17.1217 9.0119 17.3917 8.8219 17.5117 8.4119C17.7217 7.7019 17.9717 7.2219 18.6117 7.2219C19.2617 7.2219 19.6217 7.8119 19.6217 8.5919C19.6217 9.4919 18.9917 10.4219 18.3617 11.2119L16.4417 13.6719C16.1817 14.0019 15.9717 14.2919 15.9717 14.6619C15.9717 15.0819 16.2517 15.3819 16.8117 15.3819ZM7.2917 15.5519C7.7817 15.5519 8.0817 15.2219 8.0817 14.6919V8.6719H8.1517L9.6317 14.5619C9.7417 15.0319 10.0317 15.3719 10.5217 15.3719C11.0117 15.3719 11.2817 15.0619 11.4017 14.5519L12.8817 8.6719H12.9417V14.6919C12.9417 15.2219 13.2217 15.5519 13.7317 15.5519C14.2617 15.5519 14.5317 15.2219 14.5317 14.6919V7.1619C14.5317 6.3519 14.0517 5.9019 13.2617 5.9019C12.5517 5.9019 12.1517 6.2419 12.0017 6.9419L10.5317 12.9719H10.4917L9.0117 6.9419C8.8517 6.2219 8.4217 5.9019 7.7617 5.9019C6.9717 5.9019 6.4917 6.3719 6.4917 7.1619V14.6919C6.4917 15.2219 6.8017 15.5519 7.2917 15.5519Z" />
        </svg>
    