
        <svg xmlns="http://www.w3.org/2000/svg" viewBox="0 0 100 100">
            <path d="M9.2717 21.4219H18.5817C25.4417 21.4219 27.8517 18.9219 27.8517 12.4719V8.9619C27.8517 2.4919 25.4417 0.0019 18.5817 0.0019H9.2717C2.4117 0.0019 0.0017 2.4919 0.0017 8.9619V12.4719C0.0017 18.9219 2.4117 21.4219 9.2717 21.4219ZM9.2717 19.1219C3.9917 19.1219 2.3017 17.4419 2.3017 12.4719V8.9619C2.3017 3.9819 3.9917 2.2919 9.2717 2.2919H18.5817C23.8617 2.2919 25.5617 3.9819 25.5617 8.9619V12.4719C25.5617 17.4419 23.8617 19.1219 18.5817 19.1219ZM18.7617 15.6019C20.4617 15.6019 21.7217 14.5519 21.7217 12.8219C21.7217 11.4219 20.9017 10.7019 19.9217 10.5819V10.5419C20.9217 10.2819 21.4617 9.3719 21.4617 8.3719C21.4617 6.7619 20.2617 5.8519 18.7117 5.8519C17.5217 5.8519 16.4617 6.5019 16.1417 7.5419C16.0817 7.7619 16.0417 7.9719 16.0417 8.1819C16.0417 8.5619 16.3017 8.9019 16.8017 8.9019C17.2117 8.9019 17.4817 8.7419 17.6017 8.3319C17.7617 7.7019 18.1017 7.2619 18.7217 7.2619C19.4417 7.2619 19.7717 7.8519 19.7717 8.5619C19.7717 9.3619 19.3517 9.9719 18.5017 9.9719H18.2617C17.8317 9.9719 17.5817 10.2319 17.5817 10.6319C17.5817 11.0319 17.8317 11.2619 18.2617 11.2619H18.5117C19.4617 11.2619 19.9717 11.7919 19.9717 12.7519C19.9717 13.5019 19.5817 14.1719 18.7617 14.1719C18.0017 14.1719 17.6417 13.6419 17.4917 13.1319C17.3817 12.7419 17.1117 12.5319 16.7117 12.5319C16.2217 12.5319 15.9017 12.8219 15.9017 13.3119C15.9017 13.5219 15.9417 13.7319 15.9917 13.9219C16.3217 15.0019 17.5117 15.6019 18.7617 15.6019ZM7.1717 15.5519C7.6617 15.5519 7.9717 15.2219 7.9717 14.6919V8.6719H8.0417L9.5017 14.5619C9.6217 15.0319 9.9017 15.3719 10.4017 15.3719C10.9017 15.3719 11.1517 15.0619 11.2817 14.5519L12.7517 8.6719H12.8217V14.6919C12.8217 15.2219 13.1017 15.5519 13.6017 15.5519C14.1317 15.5519 14.4117 15.2219 14.4117 14.6919V7.1619C14.4117 6.3519 13.9317 5.9019 13.1517 5.9019C12.4317 5.9019 12.0317 6.2419 11.8717 6.9419L10.4217 12.9719H10.3717L8.8917 6.9419C8.7317 6.2219 8.3117 5.9019 7.6417 5.9019C6.8417 5.9019 6.3617 6.3719 6.3617 7.1619V14.6919C6.3617 15.2219 6.6717 15.5519 7.1717 15.5519Z" />
        </svg>
    