
        <svg xmlns="http://www.w3.org/2000/svg" viewBox="0 0 100 100">
            <path d="M9.2317 21.0344H18.4017C25.1917 21.0344 27.6317 18.5144 27.6317 12.2444V8.8044C27.6317 2.5344 25.1917 0.0044 18.4017 0.0044H9.2317C2.4417 0.0044 0.0017 2.5344 0.0017 8.8044V12.2444C0.0017 18.5144 2.4417 21.0344 9.2317 21.0344ZM20.2117 15.5644C19.8317 15.5644 19.3717 15.3444 19.3717 14.6944V13.5044H16.6617C16.0817 13.5044 15.6717 13.1044 15.6717 12.5144C15.6717 12.1444 15.7517 11.8244 15.9517 11.3544L18.0917 6.6644C18.4317 5.9144 18.8317 5.4844 19.7017 5.4844C20.4817 5.4844 21.0317 5.9544 21.0317 6.7944V12.0944H21.4717C21.9517 12.0944 22.1617 12.3944 22.1617 12.7844C22.1617 13.1944 21.9417 13.5044 21.4717 13.5044H21.0317V14.6944C21.0317 15.2844 20.6717 15.5644 20.2117 15.5644ZM6.5717 15.5844C6.0917 15.5844 5.7917 15.2544 5.7917 14.7444V6.7344C5.7917 5.9644 6.2717 5.4944 7.0417 5.4944C7.7017 5.4944 8.1117 5.8344 8.2817 6.5144L9.9417 13.0944H9.9817L11.6217 6.5144C11.8017 5.8344 12.1917 5.4944 12.8917 5.4944C13.6517 5.4944 14.1317 5.9444 14.1317 6.7344V14.7444C14.1317 15.2544 13.8617 15.5844 13.3317 15.5844C12.8517 15.5844 12.5617 15.2544 12.5617 14.7444V8.2244H12.4917L10.8517 14.5944C10.7317 15.0844 10.4717 15.4144 9.9717 15.4144C9.4817 15.4144 9.1917 15.0744 9.0817 14.6044L7.4417 8.2244H7.3717V14.7444C7.3717 15.2544 7.0517 15.5844 6.5717 15.5844ZM19.4017 12.1244V7.0044H19.3617L17.1717 12.0444V12.1244Z" />
        </svg>
    