
        <svg xmlns="http://www.w3.org/2000/svg" viewBox="0 0 100 100">
            <path d="M1.1217 18.4619H22.0817C21.7717 18.0019 21.5717 17.4519 21.5417 16.8119C21.5317 16.6219 21.5317 16.4019 21.5117 16.1819H5.1317V2.7519C5.1317 1.8719 5.5617 1.4419 6.4417 1.4419H28.8917C28.8417 0.5019 28.2617 0.0019 27.2717 0.0019H6.0917C4.5717 0.0019 3.6817 0.8119 3.6817 2.3919V16.1819H1.1217C0.4917 16.1819 0.0017 16.6919 0.0017 17.3219C0.0017 17.9519 0.4917 18.4619 1.1217 18.4619ZM24.8817 18.5619H30.1317C31.5217 18.5619 32.3117 17.8119 32.3117 16.4419V4.7219C32.3117 3.3619 31.5217 2.5919 30.1317 2.5919H24.8817C23.4817 2.5919 22.7117 3.3619 22.7117 4.7219V16.4419C22.7117 17.8119 23.4817 18.5619 24.8817 18.5619ZM24.9017 17.3419C24.2317 17.3419 23.9317 17.0319 23.9317 16.3519V4.8119C23.9317 4.1319 24.2317 3.8119 24.9017 3.8119H30.1017C30.7717 3.8119 31.0917 4.1319 31.0917 4.8119V16.3519C31.0917 17.0319 30.7717 17.3419 30.1017 17.3419ZM26.5817 5.3719H28.4017C28.6717 5.3719 28.8917 5.1519 28.8917 4.8819C28.8917 4.6019 28.6717 4.4019 28.4017 4.4019H26.5817C26.3117 4.4019 26.1017 4.6019 26.1017 4.8819C26.1017 5.1519 26.3117 5.3719 26.5817 5.3719ZM25.8917 16.7419H29.1117C29.3317 16.7419 29.4917 16.5919 29.4917 16.3719C29.4917 16.1719 29.3217 16.0119 29.1117 16.0119H25.8917C25.6717 16.0119 25.5217 16.1719 25.5217 16.3719C25.5217 16.6019 25.6517 16.7419 25.8917 16.7419Z" />
        </svg>
    