
        <svg xmlns="http://www.w3.org/2000/svg" viewBox="0 0 100 100">
            <path d="M0.0017 17.7266C0.0017 18.4666 0.6017 19.0666 1.3217 19.0666H32.4717C33.2017 19.0666 33.8017 18.4666 33.8017 17.7266C33.8017 16.9966 33.2017 16.3966 32.4717 16.3966H29.9017V2.4866C29.9017 0.8466 29.0317 -0.0034 27.4017 -0.0034H6.4017C4.8517 -0.0034 3.8917 0.8466 3.8917 2.4866V16.3966H1.3217C0.6017 16.3966 0.0017 16.9966 0.0017 17.7266ZM5.7817 16.3966V3.0166C5.7817 2.2666 6.1517 1.8866 6.9017 1.8866H13.6517C13.8317 1.8866 13.9217 1.9666 13.9217 2.1666V2.2966C13.9217 2.7866 14.2517 3.1166 14.7417 3.1166H19.0817C19.5617 3.1166 19.8617 2.7866 19.8617 2.2966V2.1666C19.8617 1.9666 19.9617 1.8866 20.1517 1.8866H26.8917C27.6417 1.8866 28.0217 2.2666 28.0217 3.0166V16.3966Z" />
        </svg>
    