
        <svg xmlns="http://www.w3.org/2000/svg" viewBox="0 0 100 100">
            <path d="M3.0117 12.1195H24.6417C26.6117 12.1195 27.6517 11.0395 27.6517 9.1095V3.0095C27.6517 1.0795 26.6117 -0.0005 24.6417 -0.0005H3.0117C1.0417 -0.0005 0.0017 1.0395 0.0017 3.0095V9.1095C0.0017 11.0695 1.0417 12.1195 3.0117 12.1195ZM3.0317 11.5395C1.4217 11.5395 0.5717 10.6995 0.5717 9.0795V3.0395C0.5717 1.4195 1.4217 0.5695 3.0317 0.5695H24.6117C26.1817 0.5695 27.0817 1.4195 27.0817 3.0395V9.0795C27.0817 10.6995 26.1817 11.5395 24.6117 11.5395ZM22.6917 8.7995C23.3717 8.7895 23.9517 8.2295 23.9517 7.5395C23.9517 6.8395 23.3717 6.2595 22.6917 6.2595C21.9917 6.2595 21.4017 6.8395 21.4017 7.5395C21.4017 8.2295 21.9917 8.8195 22.6917 8.7995Z" />
        </svg>
    