
        <svg xmlns="http://www.w3.org/2000/svg" viewBox="0 0 100 100">
            <path d="M3.0117 15.9966H26.8817C28.8417 15.9966 29.8817 14.9166 29.8817 12.9866V3.0166C29.8817 1.0466 28.8417 -0.0034 26.8817 -0.0034H3.0117C1.0417 -0.0034 0.0017 1.0466 0.0017 3.0166V12.9866C0.0017 14.9566 1.0417 15.9966 3.0117 15.9966ZM3.0317 15.4266C1.4217 15.4266 0.5717 14.5766 0.5717 12.9566V3.0366C0.5717 1.4166 1.4217 0.5766 3.0317 0.5766H26.8517C28.4717 0.5766 29.3117 1.4166 29.3117 3.0366V12.9566C29.3117 14.5766 28.4017 15.4266 26.8517 15.4266ZM4.2117 13.0766C4.5117 13.0766 4.7717 12.8366 4.7717 12.5166V3.3866C4.7717 3.0866 4.5117 2.8366 4.2117 2.8366C3.9117 2.8366 3.6517 3.0966 3.6517 3.3866V12.5166C3.6517 12.8366 3.8917 13.0766 4.2117 13.0766ZM25.6917 13.0766C25.9917 13.0766 26.2217 12.8366 26.2217 12.5166V3.3866C26.2217 3.0966 25.9817 2.8366 25.6917 2.8366C25.3717 2.8366 25.1217 3.0866 25.1217 3.3866V12.5166C25.1217 12.8366 25.3717 13.0766 25.6917 13.0766ZM7.9617 4.6166C8.3817 4.6166 8.7117 4.2866 8.7117 3.8766C8.7117 3.4566 8.3817 3.1266 7.9617 3.1266C7.5517 3.1266 7.2217 3.4566 7.2217 3.8766C7.2217 4.2866 7.5517 4.6166 7.9617 4.6166ZM11.4517 4.6166C11.8717 4.6166 12.2017 4.2866 12.2017 3.8766C12.2017 3.4566 11.8717 3.1266 11.4517 3.1266C11.0417 3.1266 10.7117 3.4566 10.7117 3.8766C10.7117 4.2866 11.0417 4.6166 11.4517 4.6166ZM14.9417 4.6166C15.3617 4.6166 15.6917 4.2866 15.6917 3.8766C15.6917 3.4566 15.3617 3.1266 14.9417 3.1266C14.5317 3.1266 14.2017 3.4566 14.2017 3.8766C14.2017 4.2866 14.5317 4.6166 14.9417 4.6166ZM18.4317 4.6166C18.8517 4.6166 19.1817 4.2866 19.1817 3.8766C19.1817 3.4566 18.8517 3.1266 18.4317 3.1266C18.0217 3.1266 17.6917 3.4566 17.6917 3.8766C17.6917 4.2866 18.0217 4.6166 18.4317 4.6166ZM21.9217 4.6166C22.3517 4.6166 22.6717 4.2866 22.6717 3.8766C22.6717 3.4566 22.3517 3.1266 21.9217 3.1266C21.5117 3.1266 21.1917 3.4566 21.1917 3.8766C21.1917 4.2866 21.5117 4.6166 21.9217 4.6166ZM9.7017 8.7066C10.1117 8.7066 10.4417 8.3866 10.4417 7.9666C10.4417 7.5466 10.1117 7.2266 9.7017 7.2266C9.2817 7.2266 8.9517 7.5466 8.9517 7.9666C8.9517 8.3866 9.2817 8.7066 9.7017 8.7066ZM13.2117 8.7066C13.6217 8.7066 13.9417 8.3866 13.9417 7.9666C13.9417 7.5466 13.6217 7.2266 13.2117 7.2266C12.7817 7.2266 12.4617 7.5466 12.4617 7.9666C12.4617 8.3866 12.7817 8.7066 13.2117 8.7066ZM16.7017 8.7066C17.1117 8.7066 17.4417 8.3866 17.4417 7.9666C17.4417 7.5466 17.1117 7.2266 16.7017 7.2266C16.2817 7.2266 15.9517 7.5466 15.9517 7.9666C15.9517 8.3866 16.2817 8.7066 16.7017 8.7066ZM20.1717 8.7066C20.5917 8.7066 20.9217 8.3866 20.9217 7.9666C20.9217 7.5466 20.5917 7.2266 20.1717 7.2266C19.7617 7.2266 19.4417 7.5466 19.4417 7.9666C19.4417 8.3866 19.7617 8.7066 20.1717 8.7066ZM7.9617 12.7866C8.3817 12.7866 8.7117 12.4666 8.7117 12.0466C8.7117 11.6266 8.3817 11.2966 7.9617 11.2966C7.5517 11.2966 7.2217 11.6266 7.2217 12.0466C7.2217 12.4666 7.5517 12.7866 7.9617 12.7866ZM11.4517 12.7866C11.8717 12.7866 12.2017 12.4666 12.2017 12.0466C12.2017 11.6266 11.8717 11.2966 11.4517 11.2966C11.0417 11.2966 10.7117 11.6266 10.7117 12.0466C10.7117 12.4666 11.0417 12.7866 11.4517 12.7866ZM14.9417 12.7866C15.3617 12.7866 15.6917 12.4666 15.6917 12.0466C15.6917 11.6266 15.3617 11.2966 14.9417 11.2966C14.5317 11.2966 14.2017 11.6266 14.2017 12.0466C14.2017 12.4666 14.5317 12.7866 14.9417 12.7866ZM18.4317 12.7866C18.8517 12.7866 19.1817 12.4666 19.1817 12.0466C19.1817 11.6266 18.8517 11.2966 18.4317 11.2966C18.0217 11.2966 17.6917 11.6266 17.6917 12.0466C17.6917 12.4666 18.0217 12.7866 18.4317 12.7866ZM21.9217 12.7866C22.3517 12.7866 22.6717 12.4666 22.6717 12.0466C22.6717 11.6266 22.3517 11.2966 21.9217 11.2966C21.5117 11.2966 21.1917 11.6266 21.1917 12.0466C21.1917 12.4666 21.5117 12.7866 21.9217 12.7866Z" />
        </svg>
    