
        <svg xmlns="http://www.w3.org/2000/svg" viewBox="0 0 100 100">
            <path d="M3.6817 25.9677H4.4017V27.6677H3.1517C2.6717 27.6677 2.2717 28.0677 2.2717 28.5577C2.2717 29.0477 2.6717 29.4477 3.1517 29.4477H7.4317C7.9217 29.4477 8.3117 29.0477 8.3117 28.5577C8.3117 28.0677 7.9217 27.6677 7.4317 27.6677H6.1717V25.9677H18.0317V27.6677H16.7817C16.3017 27.6677 15.9017 28.0677 15.9017 28.5577C15.9017 29.0477 16.3017 29.4477 16.7817 29.4477H21.0617C21.5517 29.4477 21.9417 29.0477 21.9417 28.5577C21.9417 28.0677 21.5517 27.6677 21.0617 27.6677H19.8017V25.9677H20.5317C22.9817 25.9677 24.2117 24.7477 24.2117 22.3477V6.9577C24.2117 4.5377 22.9817 3.3277 20.5317 3.3277H19.8017V0.8777C19.8017 0.3977 19.4217 -0.0023 18.9217 -0.0023C18.4217 -0.0023 18.0317 0.3977 18.0317 0.8777V3.3277H6.1717V0.8777C6.1717 0.3977 5.7917 -0.0023 5.3017 -0.0023C4.8017 -0.0023 4.4017 0.3977 4.4017 0.8777V3.3277H3.6817C1.2217 3.3277 0.0017 4.5377 0.0017 6.9577V22.3477C0.0017 24.7577 1.2217 25.9677 3.6817 25.9677ZM3.7017 24.0777C2.5317 24.0777 1.8917 23.4577 1.8917 22.2377V7.0577C1.8917 5.8377 2.5317 5.2177 3.7017 5.2177H20.5117C21.6817 5.2177 22.3217 5.8377 22.3217 7.0577V22.2377C22.3217 23.4577 21.6717 24.0777 20.5117 24.0777ZM12.2317 11.8377C12.6217 11.8377 13.1417 11.5577 13.4217 11.1877C13.7017 10.8677 13.8917 10.4177 13.8917 9.9577C13.8917 9.8877 13.8917 9.8277 13.8617 9.7877C13.4217 9.8077 12.9017 10.0777 12.5617 10.4377C12.3017 10.7377 12.1017 11.1877 12.1017 11.6477C12.1017 11.7177 12.1017 11.7877 12.1217 11.7977C12.1417 11.8277 12.1717 11.8377 12.2317 11.8377ZM10.8317 18.5877C11.3717 18.5877 11.6217 18.2377 12.2817 18.2377C12.9717 18.2377 13.1417 18.5877 13.7217 18.5877C14.3317 18.5877 14.7317 18.0277 15.1017 17.4977C15.5417 16.8877 15.6817 16.2777 15.7017 16.2377C15.6717 16.2177 14.5217 15.7777 14.5217 14.4677C14.5217 13.3377 15.4217 12.8177 15.4817 12.7877C14.8717 11.9277 13.9817 11.9077 13.7217 11.9077C13.0517 11.9077 12.5317 12.3177 12.1717 12.3177C11.8117 12.3177 11.3317 11.9277 10.7617 11.9277C9.6517 11.9277 8.5517 12.8277 8.5517 14.5577C8.5517 15.6177 8.9517 16.7477 9.4717 17.4677C9.9017 18.0677 10.2817 18.5877 10.8317 18.5877Z" />
        </svg>
    