
        <svg xmlns="http://www.w3.org/2000/svg" viewBox="0 0 100 100">
            <path d="M0.0017 24.3616C0.0017 25.3116 0.5617 25.8716 1.4917 25.8716H3.2217C3.8417 25.8716 4.3217 25.6016 4.5717 24.9816L5.2217 23.2616H17.1417L17.8117 24.9816C18.0517 25.6016 18.5417 25.8716 19.1617 25.8716H20.8817C21.8217 25.8716 22.3717 25.3116 22.3717 24.3616V1.5116C22.3717 0.5716 21.8217 0.0016 20.8817 0.0016H19.1617C18.5417 0.0016 18.0517 0.2816 17.8117 0.9016L17.1417 2.6116H5.2217L4.5717 0.9016C4.3217 0.2816 3.8417 0.0016 3.2217 0.0016H1.4917C0.5617 0.0016 0.0017 0.5716 0.0017 1.5116ZM11.3117 10.2516C11.2617 10.2516 11.2217 10.2516 11.1917 10.2316C11.1817 10.2216 11.1817 10.1616 11.1817 10.0916C11.1817 9.6816 11.3817 9.2616 11.6117 8.9916C11.9017 8.6616 12.3917 8.4016 12.8017 8.3916C12.8117 8.4416 12.8117 8.4816 12.8117 8.5416C12.8117 8.9616 12.6317 9.3616 12.3917 9.6816C12.1317 10.0116 11.6617 10.2516 11.3117 10.2516ZM10.0217 16.4316C9.5317 16.4316 9.1717 15.9716 8.7817 15.4116C8.3017 14.7416 7.9317 13.7216 7.9317 12.7516C7.9317 11.1816 8.9517 10.3616 9.9617 10.3616C10.4917 10.3616 10.9217 10.7016 11.2617 10.7016C11.5617 10.7016 12.0617 10.3216 12.6717 10.3216C12.9017 10.3216 13.7217 10.3616 14.2617 11.1316C14.2117 11.1516 13.3917 11.6216 13.3917 12.6716C13.3917 13.8616 14.4517 14.2716 14.4817 14.3016C14.4617 14.3216 14.3217 14.8816 13.9217 15.4316C13.5817 15.9116 13.2317 16.4316 12.6717 16.4316C12.1317 16.4316 11.9917 16.1016 11.3417 16.1016C10.7417 16.1016 10.5117 16.4316 10.0217 16.4316Z" />
        </svg>
    