
        <svg xmlns="http://www.w3.org/2000/svg" viewBox="0 0 100 100">
            <path d="M8.6917 3.0655C11.4117 3.0655 13.6317 2.3755 13.6317 1.5355C13.6317 0.6955 11.4117 -0.0045 8.6917 -0.0045C5.9717 -0.0045 3.7517 0.6955 3.7517 1.5355C3.7517 2.3755 5.9717 3.0655 8.6917 3.0655ZM8.6917 28.3155C14.1517 28.3155 17.3917 26.2355 17.3917 22.7155V6.0555C17.3917 4.6955 16.9417 3.5355 16.1917 2.7455C15.7517 2.1455 15.1317 2.0355 14.6517 2.5155C13.9317 3.7355 11.4617 4.4855 8.6917 4.4855C5.9217 4.4855 3.4617 3.7355 2.7417 2.5155C2.2517 2.0355 1.6417 2.1455 1.1917 2.7455C0.4317 3.5355 0.0017 4.6955 0.0017 6.0555V22.7155C0.0017 26.2355 3.2317 28.3155 8.6917 28.3155ZM8.6917 26.0255C4.4617 26.0255 2.2717 24.7255 2.2717 22.5255V6.1755C2.2717 5.8055 2.3717 5.4855 2.5517 5.2155C3.9417 6.2355 6.1917 6.7755 8.6917 6.7755C11.2017 6.7755 13.4417 6.2355 14.8217 5.2155C15.0117 5.4855 15.1217 5.8055 15.1217 6.1755V22.5255C15.1217 24.7255 12.9117 26.0255 8.6917 26.0255Z" />
        </svg>
    