
        <svg xmlns="http://www.w3.org/2000/svg" viewBox="0 0 100 100">
            <path d="M3.1317 32.2686H8.6417C9.4917 32.2686 10.1817 31.5786 10.1817 30.7286C10.1817 29.8486 9.4917 29.1586 8.6417 29.1586H7.4317V27.8786H18.6517V29.1586H17.4617C16.6017 29.1586 15.9117 29.8486 15.9117 30.7286C15.9117 31.5786 16.6017 32.2686 17.4617 32.2686H22.9717C23.8217 32.2686 24.5117 31.5786 24.5117 30.7286C24.5117 29.8486 23.8217 29.1586 22.9717 29.1586H21.7717V27.8786C24.5817 27.8186 26.2217 26.1286 26.2217 23.2886V8.0186C26.2217 5.1686 24.5817 3.4786 21.7717 3.4286V1.5586C21.7717 0.6986 21.0817 -0.0014 20.2217 -0.0014C19.3517 -0.0014 18.6517 0.6986 18.6517 1.5586V3.4186H7.4317V1.5586C7.4317 0.6986 6.7417 -0.0014 5.8817 -0.0014C5.0117 -0.0014 4.3217 0.6986 4.3217 1.5586V3.4286C1.5917 3.5386 0.0017 5.2186 0.0017 8.0186V23.2886C0.0017 26.0886 1.5917 27.7686 4.3217 27.8786V29.1586H3.1317C2.2717 29.1586 1.5717 29.8486 1.5717 30.7286C1.5717 31.5786 2.2717 32.2686 3.1317 32.2686ZM13.1817 12.5386C13.1017 12.5386 13.0617 12.5286 13.0417 12.5086C13.0317 12.4786 13.0317 12.4086 13.0317 12.3286C13.0317 11.8286 13.2517 11.3186 13.5317 10.9886C13.9117 10.5786 14.4917 10.2786 15.0017 10.2586C15.0117 10.2986 15.0117 10.3786 15.0117 10.4486C15.0117 10.9586 14.8017 11.4486 14.4917 11.8286C14.1817 12.2186 13.6217 12.5386 13.1817 12.5386ZM11.6117 20.0486C11.0017 20.0486 10.5717 19.4886 10.1017 18.7986C9.5317 17.9986 9.0817 16.7586 9.0817 15.5586C9.0817 13.6386 10.3017 12.6486 11.5317 12.6486C12.1917 12.6486 12.7017 13.0686 13.1017 13.0686C13.5017 13.0686 14.1017 12.6186 14.8317 12.6186C15.1217 12.6186 16.1017 12.6486 16.7917 13.5986C16.7317 13.6286 15.7217 14.2186 15.7217 15.4786C15.7217 16.9186 17.0017 17.4186 17.0317 17.4486C17.0117 17.4886 16.8517 18.1686 16.3717 18.8486C15.9517 19.4286 15.5017 20.0486 14.8317 20.0486C14.1817 20.0486 14.0017 19.6686 13.2317 19.6686C12.4917 19.6686 12.2117 20.0486 11.6117 20.0486Z" />
        </svg>
    