
        <svg xmlns="http://www.w3.org/2000/svg" viewBox="0 0 100 100">
            <path d="M3.1317 32.2686H8.6417C9.4917 32.2686 10.1817 31.5786 10.1817 30.7286C10.1817 29.8486 9.4917 29.1586 8.6417 29.1586H7.4317V27.8786H18.6517V29.1586H17.4617C16.6017 29.1586 15.9117 29.8486 15.9117 30.7286C15.9117 31.5786 16.6017 32.2686 17.4617 32.2686H22.9717C23.8217 32.2686 24.5117 31.5786 24.5117 30.7286C24.5117 29.8486 23.8217 29.1586 22.9717 29.1586H21.7717V27.8786C24.5817 27.8186 26.2217 26.1286 26.2217 23.2886V8.0186C26.2217 5.1686 24.5817 3.4786 21.7717 3.4286V1.5586C21.7717 0.6986 21.0817 -0.0014 20.2217 -0.0014C19.3517 -0.0014 18.6517 0.6986 18.6517 1.5586V3.4186H7.4317V1.5586C7.4317 0.6986 6.7417 -0.0014 5.8817 -0.0014C5.0117 -0.0014 4.3217 0.6986 4.3217 1.5586V3.4286C1.5917 3.5386 0.0017 5.2186 0.0017 8.0186V23.2886C0.0017 26.0886 1.5917 27.7686 4.3217 27.8786V29.1586H3.1317C2.2717 29.1586 1.5717 29.8486 1.5717 30.7286C1.5717 31.5786 2.2717 32.2686 3.1317 32.2686ZM5.2217 23.7186C4.5117 23.7186 4.1617 23.4286 4.1617 22.6386V8.6586C4.1617 7.8886 4.5117 7.5986 5.2217 7.5986H21.0017C21.7117 7.5986 22.0617 7.8886 22.0617 8.6586V22.6386C22.0617 23.4286 21.7117 23.7186 21.0017 23.7186ZM13.1717 12.7286C13.5717 12.7286 14.1017 12.4486 14.3917 12.0686C14.6817 11.7186 14.8717 11.2586 14.8717 10.7886C14.8717 10.7186 14.8717 10.6686 14.8617 10.6186C14.3917 10.6286 13.8517 10.9186 13.5117 11.2886C13.2417 11.5886 13.0317 12.0686 13.0317 12.5286C13.0317 12.6086 13.0317 12.6786 13.0417 12.6886C13.0617 12.7186 13.1017 12.7286 13.1717 12.7286ZM11.7217 19.6986C12.2717 19.6986 12.5417 19.3386 13.2117 19.3386C13.9317 19.3386 14.1017 19.6986 14.7117 19.6986C15.3417 19.6986 15.7417 19.1086 16.1217 18.5786C16.5817 17.9386 16.7217 17.3186 16.7417 17.2686C16.7117 17.2586 15.5317 16.7886 15.5317 15.4486C15.5317 14.2886 16.4517 13.7486 16.5217 13.7086C15.8917 12.8286 14.9717 12.7986 14.7117 12.7986C14.0117 12.7986 13.4617 13.2186 13.1017 13.2186C12.7417 13.2186 12.2317 12.8286 11.6417 12.8286C10.5017 12.8286 9.3617 13.7586 9.3617 15.5386C9.3617 16.6386 9.7817 17.7986 10.3117 18.5386C10.7617 19.1686 11.1417 19.6986 11.7217 19.6986Z" />
        </svg>
    