
        <svg xmlns="http://www.w3.org/2000/svg" viewBox="0 0 100 100">
            <path d="M2.5617 28.1217H4.3117C5.3717 28.1217 6.0717 27.6217 6.3417 26.6517L6.7817 25.1217H17.8817L18.3317 26.6517C18.6017 27.6217 19.3117 28.1217 20.3517 28.1217H22.1117C23.7517 28.1217 24.6817 27.1617 24.6817 25.4417V2.6817C24.6817 0.9517 23.7517 0.0017 22.1117 0.0017H20.3517C19.3117 0.0017 18.6017 0.5017 18.3317 1.4617L17.8817 3.0017H6.7817L6.3417 1.4617C6.0717 0.5017 5.3717 0.0017 4.3117 0.0017H2.5617C0.9117 0.0017 0.0017 0.9517 0.0017 2.6817V25.4417C0.0017 27.1617 0.9117 28.1217 2.5617 28.1217ZM2.8217 25.8317C2.4917 25.8317 2.3017 25.6317 2.3017 25.3017V2.8217C2.3017 2.4817 2.4917 2.3017 2.8217 2.3017H3.9517C4.1617 2.3017 4.3217 2.4117 4.3817 2.6117L4.9017 4.4017C5.0617 5.0017 5.4517 5.3017 6.1517 5.3017H18.5317C19.2317 5.3017 19.6017 5.0017 19.7817 4.4017L20.3017 2.6117C20.3517 2.4117 20.5217 2.3017 20.7317 2.3017H21.8517C22.1817 2.3017 22.3817 2.4817 22.3817 2.8217V25.3017C22.3817 25.6317 22.1817 25.8317 21.8517 25.8317H20.7317C20.5217 25.8317 20.3517 25.7117 20.3017 25.5017L19.7817 23.7117C19.6017 23.1217 19.2317 22.8317 18.5317 22.8317H6.1517C5.4517 22.8317 5.0617 23.1217 4.9017 23.7117L4.3817 25.5017C4.3217 25.7117 4.1617 25.8317 3.9517 25.8317ZM12.4717 11.2517C12.8717 11.2517 13.3717 10.9817 13.6617 10.6217C13.9317 10.2817 14.1317 9.8317 14.1317 9.3717C14.1317 9.3017 14.1317 9.2417 14.1117 9.2017C13.6617 9.2217 13.1417 9.4917 12.8117 9.8517C12.5417 10.1517 12.3417 10.6217 12.3417 11.0717C12.3417 11.1417 12.3417 11.2117 12.3517 11.2217C12.3617 11.2517 12.4117 11.2517 12.4717 11.2517ZM11.0517 18.0517C11.5917 18.0517 11.8617 17.6917 12.5117 17.6917C13.2117 17.6917 13.3717 18.0517 13.9717 18.0517C14.5817 18.0517 14.9717 17.4817 15.3517 16.9617C15.7817 16.3517 15.9417 15.7217 15.9517 15.6917C15.9217 15.6717 14.7617 15.2217 14.7617 13.9117C14.7617 12.7717 15.6817 12.2417 15.7217 12.2217C15.1217 11.3517 14.2217 11.3317 13.9717 11.3317C13.3017 11.3317 12.7617 11.7417 12.4117 11.7417C12.0517 11.7417 11.5617 11.3517 10.9817 11.3517C9.8817 11.3517 8.7617 12.2617 8.7617 13.9917C8.7617 15.0717 9.1717 16.1917 9.6917 16.9217C10.1217 17.5317 10.5017 18.0517 11.0517 18.0517Z" />
        </svg>
    