
        <svg xmlns="http://www.w3.org/2000/svg" viewBox="0 0 100 100">
            <path d="M2.7217 28.4892H4.5117C5.6417 28.4892 6.4017 27.9392 6.6917 26.8992L7.1017 25.4692H17.9317L18.3417 26.8992C18.6217 27.9392 19.3917 28.4892 20.5217 28.4892H22.3117C24.0517 28.4892 25.0317 27.4592 25.0317 25.6392V2.8492C25.0317 1.0292 24.0517 -0.0008 22.3117 -0.0008H20.5217C19.3917 -0.0008 18.6217 0.5492 18.3417 1.5892L17.9317 3.0192H7.1017L6.6917 1.5892C6.4017 0.5492 5.6417 -0.0008 4.5117 -0.0008H2.7217C0.9717 -0.0008 0.0017 1.0292 0.0017 2.8492V25.6392C0.0017 27.4592 0.9717 28.4892 2.7217 28.4892ZM3.0817 25.8792C2.7917 25.8792 2.6117 25.6992 2.6117 25.3992V3.0892C2.6117 2.7892 2.7917 2.6092 3.0817 2.6092H4.0917C4.2917 2.6092 4.4317 2.7292 4.4917 2.9192L4.9817 4.6392C5.1517 5.3092 5.6017 5.6392 6.3717 5.6392H18.6517C19.4217 5.6392 19.8717 5.3092 20.0517 4.6392L20.5417 2.9192C20.6017 2.7292 20.7417 2.6092 20.9417 2.6092H21.9517C22.2417 2.6092 22.4217 2.7892 22.4217 3.0892V25.3992C22.4217 25.6992 22.2417 25.8792 21.9517 25.8792H20.9417C20.7417 25.8792 20.6017 25.7592 20.5417 25.5692L20.0517 23.8492C19.8717 23.1792 19.4217 22.8492 18.6517 22.8492H6.3717C5.6017 22.8492 5.1517 23.1792 4.9817 23.8492L4.4917 25.5692C4.4317 25.7592 4.2917 25.8792 4.0917 25.8792ZM12.6417 11.4492C13.0417 11.4492 13.5617 11.1792 13.8517 10.8092C14.1217 10.4792 14.3117 10.0192 14.3117 9.5592C14.3117 9.4892 14.3117 9.4292 14.3017 9.3892C13.8517 9.4092 13.3217 9.6792 12.9817 10.0592C12.7117 10.3492 12.5117 10.8092 12.5117 11.2592C12.5117 11.3292 12.5117 11.4092 12.5317 11.4292C12.5517 11.4392 12.5817 11.4492 12.6417 11.4492ZM11.2217 18.2692C11.7617 18.2692 12.0317 17.9192 12.6917 17.9192C13.3917 17.9192 13.5617 18.2692 14.1517 18.2692C14.7617 18.2692 15.1617 17.7092 15.5417 17.1792C15.9817 16.5592 16.1217 15.9492 16.1517 15.8992C16.1117 15.8892 14.9517 15.4292 14.9517 14.1192C14.9517 12.9692 15.8717 12.4492 15.9217 12.4192C15.3117 11.5592 14.4117 11.5292 14.1517 11.5292C13.4717 11.5292 12.9417 11.9392 12.5817 11.9392C12.2217 11.9392 11.7417 11.5592 11.1517 11.5592C10.0417 11.5592 8.9317 12.4692 8.9317 14.1992C8.9317 15.2892 9.3417 16.4192 9.8517 17.1492C10.2917 17.7692 10.6717 18.2692 11.2217 18.2692Z" />
        </svg>
    