
        <svg xmlns="http://www.w3.org/2000/svg" viewBox="0 0 100 100">
            <path d="M3.4717 30.2064H5.4717C6.9617 30.2064 8.0417 29.4264 8.3817 28.0564L8.6217 27.1064H18.1517L18.4017 28.0564C18.7417 29.4264 19.8117 30.2064 21.3017 30.2064H23.3117C25.5017 30.2064 26.7817 28.8664 26.7817 26.5864V3.6164C26.7817 1.3464 25.5017 -0.0036 23.3117 -0.0036H21.3017C19.8117 -0.0036 18.7417 0.7764 18.4017 2.1564L18.1517 3.1064H8.6217L8.3817 2.1564C8.0417 0.7764 6.9617 -0.0036 5.4717 -0.0036H3.4717C1.2817 -0.0036 0.0017 1.3464 0.0017 3.6164V26.5864C0.0017 28.8664 1.2817 30.2064 3.4717 30.2064ZM4.3617 26.0464C4.2417 26.0464 4.1617 25.9764 4.1617 25.8364V4.3664C4.1617 4.2164 4.2417 4.1564 4.3617 4.1564H4.7417C4.9117 4.1564 4.9717 4.2564 5.0017 4.3564L5.3517 5.7264C5.6117 6.7364 6.3917 7.2664 7.4717 7.2664H19.3017C20.3917 7.2664 21.1617 6.7364 21.4217 5.7264L21.7717 4.3564C21.8117 4.2564 21.8717 4.1564 22.0317 4.1564H22.4217C22.5317 4.1564 22.6217 4.2164 22.6217 4.3664V25.8364C22.6217 25.9764 22.5317 26.0464 22.4217 26.0464H22.0317C21.8717 26.0464 21.8117 25.9564 21.7717 25.8564L21.4217 24.4764C21.1617 23.4764 20.3917 22.9464 19.3017 22.9464H7.4717C6.3917 22.9464 5.6117 23.4764 5.3517 24.4764L5.0017 25.8564C4.9717 25.9564 4.9117 26.0464 4.7417 26.0464ZM13.5217 12.3664C13.9217 12.3664 14.4517 12.0864 14.7517 11.7064C15.0317 11.3664 15.2217 10.8964 15.2217 10.4364C15.2217 10.3564 15.2217 10.2964 15.2117 10.2664C14.7517 10.2764 14.2117 10.5564 13.8617 10.9364C13.5917 11.2264 13.3817 11.7064 13.3817 12.1764C13.3817 12.2464 13.3817 12.3264 13.4017 12.3364C13.4217 12.3564 13.4617 12.3664 13.5217 12.3664ZM12.0717 19.3364C12.6217 19.3364 12.8917 18.9864 13.5717 18.9864C14.2817 18.9864 14.4517 19.3364 15.0617 19.3364C15.6917 19.3364 16.1017 18.7664 16.4917 18.2264C16.9317 17.5864 17.0817 16.9564 17.1017 16.9264C17.0617 16.8964 15.8917 16.4364 15.8917 15.0964C15.8917 13.9264 16.8117 13.3864 16.8717 13.3564C16.2417 12.4664 15.3317 12.4464 15.0617 12.4464C14.3817 12.4464 13.8317 12.8664 13.4617 12.8664C13.0917 12.8664 12.6017 12.4664 12.0017 12.4664C10.8617 12.4664 9.7217 13.4064 9.7217 15.1764C9.7217 16.2864 10.1517 17.4364 10.6617 18.1864C11.1117 18.8164 11.5117 19.3364 12.0717 19.3364Z" />
        </svg>
    