
        <svg xmlns="http://www.w3.org/2000/svg" viewBox="0 0 100 100">
            <path d="M9.0017 3.1794C11.8217 3.1794 14.1117 2.4594 14.1117 1.5794C14.1117 0.7194 11.8217 -0.0006 9.0017 -0.0006C6.1917 -0.0006 3.8917 0.7194 3.8917 1.5794C3.8917 2.4594 6.1917 3.1794 9.0017 3.1794ZM0.0017 23.5194C0.0017 27.1594 3.3517 29.3194 9.0017 29.3194C14.6517 29.3194 18.0017 27.1594 18.0017 23.5194V7.0694C18.0017 5.7094 17.6617 4.4794 17.0117 3.5994C16.5217 2.7694 15.7517 2.4594 14.8217 3.0694C13.9117 4.0594 11.5917 4.6794 9.0017 4.6794C6.4117 4.6794 4.0917 4.0594 3.1717 3.0694C2.2517 2.4594 1.4917 2.7694 0.9817 3.5994C0.3417 4.4794 0.0017 5.7094 0.0017 7.0694Z" />
        </svg>
    