
        <svg xmlns="http://www.w3.org/2000/svg" viewBox="0 0 100 100">
            <path d="M3.4617 14.9209H24.9017C27.1917 14.9209 28.3517 13.7509 28.3517 11.5009V3.4309C28.3517 1.1709 27.1917 0.0009 24.9017 0.0009H3.4617C1.1617 0.0009 0.0017 1.1609 0.0017 3.4309V11.5009C0.0017 13.7609 1.1617 14.9209 3.4617 14.9209ZM3.9917 11.5209C3.6417 11.5109 3.3617 11.2409 3.3617 10.8709V8.7409C3.3617 8.3909 3.6417 8.1109 3.9917 8.1209C4.3517 8.1109 4.6317 8.3909 4.6317 8.7409V10.8909C4.6317 11.2309 4.3517 11.5109 3.9917 11.5209ZM6.6917 11.5209C6.3417 11.5109 6.0617 11.2409 6.0617 10.8709V8.7409C6.0617 8.3909 6.3417 8.1109 6.6917 8.1209C7.0317 8.1109 7.3117 8.3909 7.3117 8.7409V10.8909C7.3117 11.2309 7.0417 11.5109 6.6917 11.5209ZM23.7217 11.1709C22.9917 11.1909 22.3617 10.5509 22.3617 9.8309C22.3617 9.0809 22.9917 8.4609 23.7217 8.4609C24.4417 8.4609 25.0517 9.0809 25.0517 9.8309C25.0517 10.5509 24.4417 11.1609 23.7217 11.1709ZM9.6917 10.4409C9.3517 10.4409 9.0717 10.1609 9.0717 9.8109C9.0717 9.4709 9.3517 9.1909 9.6917 9.1909H14.5517C14.8917 9.1909 15.1717 9.4709 15.1717 9.8109C15.1717 10.1609 14.8917 10.4409 14.5517 10.4409Z" />
        </svg>
    