
        <svg xmlns="http://www.w3.org/2000/svg" viewBox="0 0 100 100">
            <path d="M0.0017 17.9405C0.0017 20.3705 1.2317 21.5705 3.6817 21.5705H23.9517C26.4117 21.5705 27.6317 20.3605 27.6317 17.9405V3.6305C27.6317 1.2205 26.4117 0.0005 23.9517 0.0005H3.6817C1.2317 0.0005 0.0017 1.2105 0.0017 3.6305ZM3.7117 4.0005C3.1417 4.0005 2.6717 3.5005 2.6717 2.9505C2.6717 2.4005 3.1417 1.9105 3.7117 1.9105C4.2917 1.9105 4.7717 2.4005 4.7717 2.9505C4.7717 3.5005 4.2917 4.0005 3.7117 4.0005ZM7.0817 4.0005C6.5017 4.0005 6.0317 3.5005 6.0317 2.9505C6.0317 2.4005 6.5017 1.9105 7.0817 1.9105C7.6517 1.9105 8.1317 2.4005 8.1317 2.9505C8.1317 3.5005 7.6517 4.0005 7.0817 4.0005ZM10.4417 4.0005C9.8717 4.0005 9.4017 3.5005 9.4017 2.9505C9.4017 2.4005 9.8717 1.9105 10.4417 1.9105C11.0117 1.9105 11.4817 2.4005 11.4817 2.9505C11.4817 3.5005 11.0117 4.0005 10.4417 4.0005ZM1.8917 17.8505V5.9105H25.7417V17.8505C25.7417 19.0705 25.0917 19.6905 23.9317 19.6905H3.7017C2.5317 19.6905 1.8917 19.0705 1.8917 17.8505Z" />
        </svg>
    