
        <svg xmlns="http://www.w3.org/2000/svg" viewBox="0 0 100 100">
            <path d="M0.0017 23.1027C0.0017 23.9727 0.2717 24.2927 0.9717 24.5227C3.5317 25.3027 6.2717 25.5127 8.3217 25.5227C11.5217 25.5127 15.4717 24.9527 17.5117 23.8527C18.4717 23.3327 18.7617 22.8427 18.7617 21.8127V3.3527C18.7617 2.1727 18.1917 1.5727 17.0117 1.5727H15.8217V1.2327C15.8217 0.3027 15.2917 0.0027 14.6117 0.0027C14.3917 0.0027 14.0817 0.0627 13.7817 0.1527C9.9717 1.3027 5.9417 1.8427 2.2217 1.8427H1.6017C0.5517 1.8427 0.0017 2.4127 0.0017 3.4427ZM2.9017 24.2027C7.4417 24.1427 12.6017 23.3327 15.1717 21.2927C15.6817 20.8927 15.8217 20.6027 15.8217 19.8327V2.4327H17.0317C17.6017 2.4327 17.8917 2.7527 17.8917 3.3727V21.7427C17.8917 22.4427 17.7117 22.7727 17.0717 23.0827C15.1017 24.0627 11.4117 24.6827 8.3217 24.6927C6.2917 24.6827 4.4717 24.5127 2.9017 24.2027ZM3.5017 9.7727V5.8127C3.5017 5.6327 3.6317 5.5127 3.8017 5.5127C6.3617 5.4827 9.1217 5.0127 11.5517 4.3027C11.6917 4.2627 11.9317 4.3127 11.9317 4.5827V8.5327C11.9317 8.6327 11.8717 8.7327 11.7617 8.7727C9.6417 9.6427 6.5617 10.0927 3.8017 10.0327C3.6417 10.0327 3.5017 9.9527 3.5017 9.7727Z" />
        </svg>
    