
        <svg xmlns="http://www.w3.org/2000/svg" viewBox="0 0 100 100">
            <path d="M7.2133 26.4948C11.2833 26.4948 13.7233 24.5248 14.1033 20.5348C14.5333 15.7648 14.5233 10.9248 14.0733 5.7448C13.7333 1.9848 11.2833 0.0048 7.2133 0.0048C3.1333 0.0048 0.6833 1.9848 0.3433 5.7448C-0.1067 10.9248 -0.1167 15.7648 0.3133 20.5348C0.6933 24.5248 3.1333 26.4948 7.2133 26.4948ZM7.0933 18.3548C7.0933 17.7148 7.5533 17.2548 8.0333 17.2548C8.1233 17.7748 7.6533 18.3748 7.0933 18.3548ZM7.1933 21.7648C6.8333 21.7648 6.7033 21.9448 6.4133 21.9448C6.1233 21.9448 5.9333 21.6748 5.6933 21.3548C5.4133 20.9548 5.2033 20.3648 5.2033 19.8048C5.2033 18.8948 5.8033 18.4248 6.3933 18.4248C6.6733 18.4248 6.8933 18.6048 7.1433 18.6048C7.3833 18.6048 7.5933 18.4248 7.9733 18.4248C8.1033 18.4248 8.5833 18.4248 8.8833 18.8548C8.8633 18.8748 8.3933 19.1448 8.3933 19.7548C8.3933 20.4348 8.9933 20.6748 9.0033 20.6948C9.0033 20.7048 8.9233 21.0348 8.6833 21.3648C8.4833 21.6548 8.2733 21.9448 7.9733 21.9448C7.6533 21.9448 7.5633 21.7648 7.1933 21.7648Z" />
        </svg>
    