
        <svg xmlns="http://www.w3.org/2000/svg" viewBox="0 0 100 100">
            <path d="M11.7523 23.5048C18.2423 23.5048 23.5123 18.2448 23.5123 11.7548C23.5123 5.2648 18.2423 0.0048 11.7523 0.0048C5.2623 0.0048 0.0023 5.2648 0.0023 11.7548C0.0023 18.2448 5.2623 23.5048 11.7523 23.5048ZM11.7523 21.9848C6.0923 21.9848 1.5223 17.4148 1.5223 11.7548C1.5223 6.0948 6.0923 1.5148 11.7523 1.5148C17.4123 1.5148 21.9923 6.0948 21.9923 11.7548C21.9923 17.4148 17.4123 21.9848 11.7523 21.9848ZM10.4423 15.1748C11.4523 15.1748 12.3723 14.8748 13.1523 14.3348L16.3723 17.5648C16.5723 17.7748 16.7723 17.8548 17.0523 17.8548C17.5223 17.8548 17.8223 17.5348 17.8223 17.0648C17.8223 16.8248 17.7223 16.6448 17.5523 16.4748L14.3123 13.2048C14.8923 12.4248 15.2323 11.4348 15.2323 10.3848C15.2323 7.7448 13.0823 5.5748 10.4423 5.5748C7.8023 5.5748 5.6323 7.7448 5.6323 10.3848C5.6323 13.0148 7.8023 15.1748 10.4423 15.1748ZM10.4523 13.9248C8.5123 13.9248 6.9023 12.3148 6.9023 10.3848C6.9023 8.4348 8.5123 6.8348 10.4523 6.8348C12.4023 6.8348 13.9823 8.4248 13.9823 10.3848C13.9823 12.3148 12.4023 13.9248 10.4523 13.9248Z" />
        </svg>
    