
        <svg xmlns="http://www.w3.org/2000/svg" viewBox="0 0 100 100">
            <path d="M0.0047 9.0916C0.0047 14.1116 4.0747 18.1916 9.0947 18.1916C11.1547 18.1916 13.0347 17.4916 14.5547 16.3516L20.6647 22.4616C20.8747 22.6716 21.1647 22.7916 21.4547 22.7916C22.1347 22.7916 22.5847 22.2816 22.5847 21.6516C22.5847 21.3516 22.4647 21.0716 22.2647 20.8616L16.1847 14.7616C17.4347 13.2116 18.1847 11.2416 18.1847 9.0916C18.1847 4.0816 14.1047 0.0016 9.0947 0.0016C4.0747 0.0016 0.0047 4.0816 0.0047 9.0916ZM1.5247 9.0916C1.5247 4.9216 4.9247 1.5216 9.0947 1.5216C13.2647 1.5216 16.6647 4.9216 16.6647 9.0916C16.6647 13.2616 13.2647 16.6616 9.0947 16.6616C4.9247 16.6616 1.5247 13.2616 1.5247 9.0916Z" />
        </svg>
    