
        <svg xmlns="http://www.w3.org/2000/svg" viewBox="0 0 100 100">
            <path d="M3.5617 24.8428H14.0617C16.1417 24.8428 17.5217 23.4828 17.5217 21.4428V3.4028C17.5217 1.3628 16.1417 0.0028 14.0617 0.0028H3.5617C1.4217 0.0028 0.0017 1.3628 0.0017 3.3828V21.4528C0.0017 23.4828 1.4217 24.8428 3.5617 24.8428ZM4.0517 22.1128C3.1717 22.1128 2.6117 21.5828 2.6117 20.7528V4.0928C2.6117 3.2528 3.1717 2.7328 4.0517 2.7328H13.4717C14.3417 2.7328 14.9217 3.2728 14.9217 4.0928V20.7428C14.9217 21.5728 14.3417 22.1128 13.4717 22.1128ZM8.7817 14.2128C11.6417 14.2128 13.9717 11.8828 13.9717 9.0128C13.9717 6.1428 11.6417 3.8128 8.7817 3.8128C5.8917 3.8128 3.5617 6.1428 3.5617 9.0128C3.5617 11.8828 5.8917 14.2128 8.7817 14.2128ZM8.7817 12.4728C6.8517 12.4728 5.3117 10.9228 5.3117 9.0128C5.3117 7.1028 6.8517 5.5528 8.7817 5.5528C10.6717 5.5528 12.2217 7.1028 12.2217 9.0128C12.2217 10.9228 10.6717 12.4728 8.7817 12.4728ZM8.7617 19.8328C9.2417 19.8328 9.6417 19.4328 9.6417 18.9528V16.8128C9.6417 16.3328 9.2417 15.9328 8.7617 15.9328C8.2817 15.9328 7.9017 16.3328 7.9017 16.8128V18.9528C7.9017 19.4328 8.2817 19.8328 8.7617 19.8328Z" />
        </svg>
    