
        <svg xmlns="http://www.w3.org/2000/svg" viewBox="0 0 100 100">
            <path d="M3.1017 22.9002H12.7417C14.6017 22.9002 15.8417 21.7302 15.8417 19.9702V2.9302C15.8417 1.1702 14.6017 0.0002 12.7417 0.0002H3.1017C1.2417 0.0002 0.0017 1.1702 0.0017 2.9302V19.9702C0.0017 21.7302 1.2417 22.9002 3.1017 22.9002ZM7.9317 13.1102C4.7617 13.1102 2.1717 10.5502 2.1717 7.3702C2.1717 4.2002 4.7617 1.6302 7.9317 1.6302C11.0817 1.6302 13.6717 4.2002 13.6717 7.3702C13.6717 10.5502 11.0817 13.1102 7.9317 13.1102ZM7.9317 12.3302C10.6517 12.3302 12.8917 10.1002 12.8917 7.3702C12.8917 4.6402 10.6517 2.4102 7.9317 2.4102C5.1917 2.4102 2.9517 4.6302 2.9517 7.3702C2.9517 10.1102 5.1917 12.3302 7.9317 12.3302ZM7.9317 18.6102C7.7117 18.6102 7.5317 18.4202 7.5317 18.2102V15.8402C7.5317 15.6302 7.7117 15.4502 7.9317 15.4502C8.1417 15.4502 8.3317 15.6302 8.3317 15.8402V18.2102C8.3317 18.4202 8.1417 18.6102 7.9317 18.6102Z" />
        </svg>
    