
        <svg xmlns="http://www.w3.org/2000/svg" viewBox="0 0 100 100">
            <path d="M5.3217 1.9794H20.4217C20.3117 0.7294 19.4517 -0.0006 18.1417 -0.0006H7.5917C6.2817 -0.0006 5.4417 0.7294 5.3217 1.9794ZM3.0617 5.9694H22.6917C22.5617 4.6494 21.7717 3.8194 20.2017 3.8194H5.5417C3.9717 3.8194 3.1917 4.6494 3.0617 5.9694ZM4.5917 29.2894H21.1417C24.0517 29.2894 25.7417 27.5894 25.7417 24.6894V12.5594C25.7417 9.6594 24.0517 7.9694 21.1417 7.9694H4.5917C1.7017 7.9694 0.0017 9.6594 0.0017 12.5594V24.6894C0.0017 27.5894 1.7017 29.2894 4.5917 29.2894ZM5.2217 25.1294C4.5117 25.1294 4.1617 24.8294 4.1617 24.0494V13.1994C4.1617 12.4194 4.5117 12.1294 5.2217 12.1294H20.5117C21.2217 12.1294 21.5717 12.4194 21.5717 13.1994V24.0494C21.5717 24.8294 21.2217 25.1294 20.5117 25.1294ZM17.2717 19.3494C18.8117 19.3494 20.0617 18.0894 20.0617 16.5394C20.0617 14.9894 18.8117 13.7294 17.2717 13.7294C15.7117 13.7294 14.4617 14.9894 14.4617 16.5394C14.4617 18.0894 15.7117 19.3494 17.2717 19.3494ZM6.6817 16.3994H11.8217C12.3917 16.3994 12.8217 15.8794 12.8217 15.3794C12.8217 14.7894 12.4017 14.3294 11.8217 14.3294H6.6817C6.1017 14.3294 5.6817 14.8094 5.6817 15.3794C5.6817 15.8894 6.1217 16.3994 6.6817 16.3994ZM6.6817 19.3094H10.2317C10.7817 19.3094 11.2017 18.8194 11.2017 18.2794C11.2017 17.7194 10.7917 17.2494 10.2317 17.2494H6.6817C6.1017 17.2494 5.6817 17.7294 5.6817 18.2794C5.6817 18.8194 6.1217 19.3094 6.6817 19.3094Z" />
        </svg>
    