
        <svg xmlns="http://www.w3.org/2000/svg" viewBox="0 0 100 100">
            <path d="M4.6917 1.208H19.5017C19.4517 0.438 19.0117 -0.002 18.1917 -0.002H6.0117C5.1817 -0.002 4.7317 0.438 4.6917 1.208ZM2.3517 4.208H21.8317C21.7117 3.398 21.3017 2.918 20.4217 2.918H3.7717C2.8817 2.918 2.4717 3.398 2.3517 4.208ZM3.3717 24.918H20.8017C23.0317 24.918 24.1717 23.758 24.1717 21.558V9.558C24.1717 7.368 23.0317 6.218 20.8017 6.218H3.3717C1.1417 6.218 0.0017 7.348 0.0017 9.558V21.558C0.0017 23.768 1.1417 24.918 3.3717 24.918ZM17.7917 15.608C16.2217 15.608 14.9417 14.348 14.9417 12.778C14.9417 11.208 16.2217 9.938 17.7917 9.938C19.3517 9.938 20.6117 11.208 20.6117 12.778C20.6117 14.348 19.3517 15.608 17.7917 15.608ZM4.5217 12.058C4.1517 12.058 3.8717 11.758 3.8717 11.398C3.8717 11.038 4.1517 10.748 4.5217 10.748H12.4717C12.8317 10.748 13.1217 11.038 13.1217 11.398C13.1217 11.758 12.8317 12.058 12.4717 12.058ZM4.5217 15.058C4.1517 15.058 3.8717 14.778 3.8717 14.428C3.8717 14.048 4.1517 13.758 4.5217 13.758H10.0617C10.4217 13.758 10.7117 14.048 10.7117 14.428C10.7117 14.778 10.4217 15.058 10.0617 15.058Z" />
        </svg>
    