
        <svg xmlns="http://www.w3.org/2000/svg" viewBox="0 0 100 100">
            <path d="M3.1617 20.742H24.0317C26.1117 20.742 27.1917 19.642 27.1917 17.592V3.152C27.1917 1.102 26.1117 0.002 24.0317 0.002H3.1617C1.0917 0.002 0.0017 1.082 0.0017 3.152V17.592C0.0017 19.662 1.0917 20.742 3.1617 20.742ZM3.1917 19.872C1.6617 19.872 0.8717 19.082 0.8717 17.552V3.202C0.8717 1.662 1.6617 0.872 3.1917 0.872H24.0017C25.4717 0.872 26.3217 1.662 26.3217 3.202V17.552C26.3217 19.082 25.4717 19.872 24.0017 19.872ZM20.1317 9.552C21.6817 9.552 22.9317 8.292 22.9317 6.742C22.9317 5.182 21.6817 3.922 20.1317 3.922C18.5717 3.922 17.3217 5.182 17.3217 6.742C17.3217 8.292 18.5717 9.552 20.1317 9.552ZM4.6717 5.922H12.9717C13.2117 5.922 13.3817 5.742 13.3817 5.512C13.3817 5.282 13.2117 5.112 12.9717 5.112H4.6717C4.4517 5.112 4.2817 5.282 4.2817 5.512C4.2817 5.742 4.4517 5.922 4.6717 5.922ZM4.6717 8.702H10.7817C11.0017 8.702 11.1917 8.522 11.1917 8.292C11.1917 8.072 11.0017 7.882 10.7817 7.882H4.6717C4.4517 7.882 4.2817 8.072 4.2817 8.292C4.2817 8.522 4.4517 8.702 4.6717 8.702Z" />
        </svg>
    