
        <svg xmlns="http://www.w3.org/2000/svg" viewBox="0 0 100 100">
            <path d="M4.1417 22.4023H23.8317C26.5217 22.4023 27.9717 20.9523 27.9717 18.2923V4.1123C27.9717 1.4523 26.5217 0.0023 23.8317 0.0023H4.1417C1.4617 0.0023 0.0017 1.4523 0.0017 4.1123V18.2923C0.0017 20.9523 1.4617 22.4023 4.1417 22.4023ZM19.8417 11.4823C18.2617 11.4823 16.9717 10.1923 16.9717 8.6123C16.9717 7.0223 18.2617 5.7323 19.8417 5.7323C21.4217 5.7323 22.7017 7.0223 22.7017 8.6123C22.7017 10.1923 21.4217 11.4823 19.8417 11.4823ZM6.2017 8.2123C5.6717 8.2123 5.2717 7.7723 5.2717 7.2623C5.2717 6.7423 5.6617 6.3123 6.2017 6.3123H12.6717C13.1917 6.3123 13.5917 6.7423 13.5917 7.2623C13.5917 7.7723 13.1917 8.2123 12.6717 8.2123ZM6.2017 11.3123C5.6717 11.3123 5.2717 10.8723 5.2717 10.3623C5.2717 9.8423 5.6617 9.4023 6.2017 9.4023H10.8117C11.3417 9.4023 11.7417 9.8323 11.7417 10.3623C11.7417 10.8723 11.3317 11.3123 10.8117 11.3123Z" />
        </svg>
    