
        <svg xmlns="http://www.w3.org/2000/svg" viewBox="0 0 100 100">
            <path d="M3.9717 22.1H23.8817C26.4717 22.1 27.8517 20.73 27.8517 18.16V3.94C27.8517 1.37 26.4717 0 23.8817 0H3.9717C1.3817 0 0.0017 1.36 0.0017 3.94V18.16C0.0017 20.74 1.3817 22.1 3.9717 22.1ZM4.1917 19.49C3.1617 19.49 2.6117 18.97 2.6117 17.89V4.21C2.6117 3.13 3.1617 2.61 4.1917 2.61H23.6617C24.6817 2.61 25.2417 3.13 25.2417 4.21V17.89C25.2417 18.97 24.6817 19.49 23.6617 19.49ZM19.6717 11.1C21.2217 11.1 22.4717 9.84 22.4717 8.29C22.4717 6.73 21.2217 5.47 19.6717 5.47C18.1317 5.47 16.8617 6.73 16.8617 8.29C16.8617 9.84 18.1317 11.1 19.6717 11.1ZM6.2417 7.8H13.0417C13.5317 7.8 13.9117 7.39 13.9117 6.91C13.9117 6.42 13.5317 6.04 13.0417 6.04H6.2417C5.7417 6.04 5.3717 6.42 5.3717 6.91C5.3717 7.39 5.7417 7.8 6.2417 7.8ZM6.2417 10.86H11.1417C11.6217 10.86 12.0217 10.46 12.0217 9.98C12.0217 9.49 11.6417 9.09 11.1417 9.09H6.2417C5.7417 9.09 5.3717 9.5 5.3717 9.98C5.3717 10.46 5.7417 10.86 6.2417 10.86Z" />
        </svg>
    