
        <svg xmlns="http://www.w3.org/2000/svg" viewBox="0 0 100 100">
            <path d="M0.6869 9.5948C0.0069 9.5948 -0.1931 10.0648 0.2069 10.6148L2.7569 14.2648C3.0869 14.7148 3.5469 14.7148 3.8569 14.2648L6.4169 10.6148C6.7969 10.0648 6.6069 9.5948 5.9369 9.5948H3.9969C4.9869 4.9848 9.0869 1.5148 14.0069 1.5148C19.6669 1.5148 24.2369 6.0948 24.2369 11.7548C24.2369 17.4148 19.6669 21.9848 14.0069 21.9848C10.4569 21.9848 7.2869 20.1548 5.5169 17.4148C5.2469 17.0548 4.8069 16.9348 4.4369 17.1548C4.0869 17.3648 3.9769 17.8748 4.2669 18.2648C6.3469 21.4248 9.9569 23.5048 14.0069 23.5048C20.4969 23.5048 25.7669 18.2448 25.7669 11.7548C25.7669 5.2648 20.4969 0.0048 14.0069 0.0048C8.2569 0.0048 3.4569 4.1348 2.4469 9.5948ZM14.1469 15.9148C14.4069 15.9148 14.5869 15.7348 14.5869 15.4848V9.1548H14.6369L16.3969 15.3148C16.4769 15.5848 16.6169 15.7948 16.9469 15.7948C17.2569 15.7948 17.4169 15.6048 17.4969 15.3048L19.2469 9.1548H19.3169V15.4848C19.3169 15.7348 19.4969 15.9148 19.7369 15.9148C19.9869 15.9148 20.1569 15.7348 20.1569 15.4848V8.2748C20.1569 7.8648 19.9069 7.6048 19.4969 7.6048C19.1269 7.6048 18.8969 7.8148 18.7869 8.1748L17.0069 14.5548H16.9169L15.0969 8.1748C15.0069 7.8248 14.7569 7.6048 14.4069 7.6048C13.9969 7.6048 13.7269 7.8648 13.7269 8.2748V15.4848C13.7269 15.7348 13.9069 15.9148 14.1469 15.9148ZM8.3369 15.9048C8.6169 15.9048 8.8069 15.7148 8.8069 15.4348V12.4848H10.1769L11.5169 15.5748C11.6069 15.7948 11.7469 15.9048 11.9669 15.9048C12.2469 15.9048 12.4369 15.7248 12.4369 15.4948C12.4369 15.3748 12.4069 15.2948 12.3369 15.1448L11.0769 12.2648C11.8669 11.9648 12.4269 11.2148 12.4269 10.0748C12.4269 8.6148 11.5369 7.7148 10.0469 7.7148H8.3269C8.0569 7.7148 7.8669 7.8948 7.8669 8.1748V15.4348C7.8669 15.7148 8.0469 15.9048 8.3369 15.9048ZM8.8069 11.7148V8.4948H9.9669C10.9469 8.4948 11.4969 9.1148 11.4969 10.0848C11.4969 11.0648 10.9869 11.7148 9.9769 11.7148Z" />
        </svg>
    