
        <svg xmlns="http://www.w3.org/2000/svg" viewBox="0 0 100 100">
            <path d="M17.3217 21.3467C17.6217 21.3467 17.8117 21.1567 17.8117 20.8367V2.2067H17.9017L24.9917 20.6367C25.1117 20.9767 25.3317 21.1967 25.6717 21.1967C26.0417 21.1967 26.2517 20.9767 26.3717 20.6367L33.4317 2.2067H33.5617V20.8367C33.5617 21.1667 33.7617 21.3467 34.0317 21.3467C34.3317 21.3467 34.5217 21.1567 34.5217 20.8367V0.6867C34.5217 0.2567 34.2617 -0.0033 33.8317 -0.0033C33.4417 -0.0033 33.2217 0.2067 33.0917 0.5867L25.7717 19.7667H25.6217L18.2117 0.5367C18.0917 0.1967 17.8517 -0.0033 17.5217 -0.0033C17.1117 -0.0033 16.8417 0.2967 16.8417 0.6667V20.8367C16.8417 21.1567 17.0417 21.3467 17.3217 21.3467ZM0.5017 21.3067C0.8017 21.3067 1.0117 21.0967 1.0117 20.7967V12.0367H5.9617C6.2217 12.0367 6.4717 11.9967 6.7117 11.9767L11.5617 21.0267C11.6617 21.2367 11.8017 21.3267 12.0317 21.3267C12.3317 21.3267 12.5517 21.1367 12.5517 20.8667C12.5517 20.7567 12.4817 20.6167 12.4217 20.4867L7.7417 11.7867C10.8717 11.0667 12.2817 8.9067 12.2817 6.1067C12.2817 2.3067 9.6717 0.2067 5.9017 0.2067H0.4917C0.2017 0.2067 0.0017 0.4367 0.0017 0.7467V20.7967C0.0017 21.1067 0.2217 21.3067 0.5017 21.3067ZM1.0117 11.1167V1.1367H5.8117C9.0717 1.1367 11.2417 2.8367 11.2417 6.1167C11.2417 9.3667 9.0917 11.1167 5.8317 11.1167Z" />
        </svg>
    