
        <svg xmlns="http://www.w3.org/2000/svg" viewBox="0 0 100 100">
            <path d="M3.0117 20.5048H17.4917C19.4517 20.5048 20.5117 19.4248 20.5117 17.4948V3.0148C20.5117 1.0748 19.4517 0.0048 17.4917 0.0048H3.0117C1.0417 0.0048 0.0017 1.0448 0.0017 3.0148V17.4948C0.0017 19.4648 1.0417 20.5048 3.0117 20.5048ZM10.4917 15.2948C10.3217 15.2948 10.1917 15.1648 10.1917 15.0048V5.7048C10.1917 5.4348 10.3817 5.2248 10.6717 5.2248C10.9717 5.2248 11.1017 5.4048 11.1817 5.6748L13.7017 14.3448H13.8117L16.2917 5.6848C16.3817 5.3648 16.5017 5.2248 16.8017 5.2248C17.1017 5.2248 17.2717 5.4148 17.2717 5.7048V15.0048C17.2717 15.1648 17.1417 15.2948 17.0017 15.2948C16.8417 15.2948 16.7117 15.1648 16.7117 15.0048V6.3848H16.6017L14.1817 14.7848C14.1117 15.0548 14.0017 15.2148 13.7217 15.2148C13.4617 15.2148 13.3917 15.0548 13.3117 14.8148L10.8917 6.3848H10.7817V15.0048C10.7817 15.1648 10.6417 15.2948 10.4917 15.2948ZM3.5317 15.2948C3.3517 15.2948 3.2217 15.1648 3.2217 14.9848V5.6448C3.2217 5.4748 3.3517 5.3348 3.5117 5.3348H5.5117C7.1617 5.3348 8.1817 6.4148 8.1817 8.0948C8.1817 9.5548 7.4517 10.4148 6.4217 10.7448L8.1917 14.7748C8.2417 14.8748 8.2617 14.9548 8.2617 15.0148C8.2617 15.2148 8.1217 15.2948 7.9617 15.2948C7.8117 15.2948 7.7217 15.2348 7.6617 15.1048L5.8317 10.8948H3.8317V14.9848C3.8317 15.1648 3.7017 15.2948 3.5317 15.2948ZM3.8317 10.3548H5.4617C6.8717 10.3548 7.5717 9.4148 7.5717 8.1048C7.5717 6.7748 6.8117 5.8848 5.4517 5.8848H3.8317Z" />
        </svg>
    