
        <svg xmlns="http://www.w3.org/2000/svg" viewBox="0 0 100 100">
            <path d="M0.9656 10.0786C-0.0144 10.0786 -0.2544 10.9886 0.2756 11.6686L3.3056 15.6286C3.6656 16.1086 4.3256 16.1086 4.6856 15.6286L7.7256 11.6686C8.2356 10.9886 8.0056 10.0786 7.0356 10.0786H5.7956C6.8856 6.3586 10.3156 3.6586 14.3856 3.6586C19.3256 3.6586 23.3256 7.6486 23.3256 12.5986C23.3256 17.5386 19.3256 21.5386 14.3856 21.5386C11.8456 21.5386 9.6656 20.5186 7.9756 18.7886C7.1656 18.0086 6.0656 17.7686 5.2156 18.5386C4.4756 19.2186 4.4656 20.3186 5.3356 21.2886C7.3056 23.6486 11.0556 25.1986 14.3856 25.1986C21.3456 25.1986 26.9756 19.5586 26.9756 12.5986C26.9756 5.6386 21.3456 -0.0014 14.3856 -0.0014C8.2856 -0.0014 3.2056 4.3286 2.0256 10.0786ZM14.6056 15.9686C15.0456 15.9686 15.2856 15.6886 15.2856 15.2386V11.5786H15.3556L16.3256 15.2486C16.4156 15.5986 16.6356 15.8486 17.0156 15.8486C17.4056 15.8486 17.5956 15.6186 17.7056 15.2386L18.6656 11.5786H18.7256V15.2386C18.7256 15.6886 18.9756 15.9686 19.4356 15.9686C19.8756 15.9686 20.1256 15.6886 20.1256 15.2386V10.2786C20.1256 9.5786 19.7156 9.2186 19.0456 9.2186C18.4556 9.2186 18.1056 9.4786 17.9656 10.0586L17.0256 13.7586H17.0056L16.0556 10.0586C15.9056 9.4486 15.5156 9.2186 14.9756 9.2186C14.2956 9.2186 13.8956 9.5986 13.8956 10.2786V15.2386C13.8956 15.6886 14.1456 15.9686 14.6056 15.9686ZM9.4456 15.9686C9.9656 15.9686 10.2456 15.6586 10.2456 15.1386V13.5386H10.8056L11.5256 15.2686C11.6856 15.6886 11.9356 15.9686 12.3856 15.9686C12.7956 15.9686 13.1356 15.6886 13.1256 15.2086C13.1256 14.9986 13.0456 14.8086 12.9356 14.5886L12.3256 13.2386C12.9656 12.7986 13.2056 12.1986 13.2056 11.4586C13.2056 10.0086 12.3156 9.3286 10.9256 9.3286H9.4456C8.9356 9.3286 8.6356 9.6486 8.6356 10.1586V15.1386C8.6356 15.6586 8.9356 15.9686 9.4456 15.9686ZM10.2456 12.4486V10.5386H10.7856C11.2856 10.5386 11.5756 10.9086 11.5756 11.4886C11.5756 11.9886 11.3456 12.4486 10.7756 12.4486Z" />
        </svg>
    