
        <svg xmlns="http://www.w3.org/2000/svg" viewBox="0 0 100 100">
            <path d="M3.9717 22.1117H18.1317C20.7317 22.1117 22.1017 20.7417 22.1017 18.1717V3.9417C22.1017 1.3717 20.7317 0.0017 18.1317 0.0017H3.9717C1.3817 0.0017 0.0017 1.3717 0.0017 3.9417V18.1717C0.0017 20.7417 1.3817 22.1117 3.9717 22.1117ZM11.3017 15.8117C10.8317 15.8117 10.5517 15.5017 10.5517 15.0217V7.4417C10.5517 6.7017 10.9917 6.2817 11.7317 6.2817C12.3117 6.2817 12.7517 6.6017 12.9017 7.2317L14.5917 13.4217H14.6717L16.3317 7.2317C16.5017 6.6117 16.9217 6.2817 17.5317 6.2817C18.2617 6.2817 18.7017 6.6917 18.7017 7.4417V15.0217C18.7017 15.5017 18.4217 15.8117 17.9517 15.8117C17.4817 15.8117 17.2017 15.5017 17.2017 15.0217V8.8917H17.1217L15.4617 14.8917C15.3417 15.3517 15.0817 15.6417 14.6417 15.6417C14.1517 15.6417 13.9017 15.3317 13.7917 14.9217L12.1317 8.8917H12.0517V15.0217C12.0517 15.5017 11.7617 15.8117 11.3017 15.8117ZM4.3717 15.8117C3.8217 15.8117 3.5117 15.4717 3.5117 14.9317V7.2917C3.5117 6.7517 3.8317 6.4217 4.3617 6.4217H6.4117C8.2617 6.4217 9.3917 7.4317 9.3917 9.2817C9.3917 10.4617 8.8817 11.3317 8.0017 11.8117L9.1417 14.3717C9.2617 14.6217 9.3317 14.8017 9.3317 15.0117C9.3317 15.4817 9.0017 15.8117 8.5117 15.8117C8.0717 15.8117 7.8117 15.5517 7.6317 15.1217L6.3917 12.1417H5.2017V14.9317C5.2017 15.4717 4.9017 15.8117 4.3717 15.8117ZM5.2017 10.9017H6.2617C7.2217 10.9017 7.6717 10.2217 7.6717 9.3117C7.6717 8.3717 7.1617 7.7617 6.2417 7.7617H5.2017Z" />
        </svg>
    