
        <svg xmlns="http://www.w3.org/2000/svg" viewBox="0 0 100 100">
            <path d="M14.3123 5.1889C16.4223 5.1889 18.3623 5.9089 19.9123 7.1089C20.1723 7.3089 20.4923 7.2889 20.7323 7.0589L23.4923 4.2889C23.7923 3.9989 23.7823 3.5789 23.4723 3.3189C20.9923 1.2389 17.7923 -0.0011 14.3123 -0.0011C10.8323 -0.0011 7.6123 1.2389 5.1423 3.3189C4.8323 3.5789 4.8123 3.9989 5.1123 4.2889L7.8723 7.0589C8.1223 7.2889 8.4623 7.3089 8.7323 7.0989C10.2823 5.9089 12.2123 5.1889 14.3123 5.1889ZM28.6023 14.2989C28.6023 10.8189 27.3623 7.6089 25.2823 5.1189C25.0223 4.8189 24.6023 4.8189 24.3023 5.1089L21.5523 7.8589C21.3023 8.1089 21.3023 8.4489 21.5023 8.7289C22.7123 10.2789 23.4123 12.2089 23.4123 14.2989C23.4123 16.4189 22.6923 18.3589 21.4223 19.9889C21.2323 20.2289 21.2423 20.5189 21.4423 20.7189L24.2723 23.5389C24.5523 23.8389 24.9823 23.8389 25.2423 23.5289C27.3423 21.0389 28.6023 17.8089 28.6023 14.2989ZM0.0023 14.2989C0.0023 17.8089 1.2623 21.0389 3.3723 23.5289C3.6323 23.8389 4.0523 23.8389 4.3323 23.5389L7.1623 20.7189C7.3623 20.5189 7.3823 20.2289 7.1923 19.9889C5.9223 18.3589 5.1923 16.4189 5.1923 14.2989C5.1923 12.2089 5.9023 10.2789 7.1023 8.7289C7.3123 8.4489 7.3123 8.1089 7.0623 7.8589L4.3023 5.1089C4.0123 4.8189 3.5823 4.8189 3.3323 5.1289C1.2423 7.6189 0.0023 10.8189 0.0023 14.2989ZM14.4523 18.6089C14.8123 18.6089 15.0423 18.3589 15.0423 17.9789V12.2789H15.1023L16.6623 17.8589C16.7423 18.1889 16.9723 18.4589 17.3623 18.4589C17.7423 18.4589 17.9523 18.2189 18.0623 17.8389L19.6123 12.2789H19.6723V17.9789C19.6723 18.3589 19.9123 18.6089 20.2723 18.6089C20.6523 18.6089 20.8723 18.3589 20.8723 17.9789V11.1089C20.8723 10.5189 20.5123 10.1789 19.9323 10.1789C19.4423 10.1789 19.1123 10.4689 18.9723 10.9489L17.4123 16.6989H17.3323L15.7423 10.9489C15.6123 10.4489 15.2623 10.1789 14.7923 10.1789C14.2023 10.1789 13.8423 10.5389 13.8423 11.1089V17.9789C13.8423 18.3589 14.0723 18.6089 14.4523 18.6089ZM8.4123 18.5989C8.8223 18.5989 9.0723 18.3289 9.0723 17.9089V15.2889H10.2223L11.3923 18.0789C11.5223 18.4089 11.7423 18.5989 12.0723 18.5989C12.4723 18.5989 12.7223 18.3289 12.7223 17.9889C12.7223 17.8089 12.6823 17.6789 12.5723 17.4689L11.4923 15.0189C12.2723 14.6389 12.7723 13.8789 12.7723 12.7889C12.7723 11.2189 11.8023 10.2989 10.2023 10.2989H8.4023C7.9923 10.2989 7.7323 10.5689 7.7323 10.9889V17.9089C7.7323 18.3289 7.9823 18.5989 8.4123 18.5989ZM9.0723 14.2689V11.3789H10.0823C10.9323 11.3789 11.4123 11.9389 11.4123 12.8189C11.4123 13.6789 10.9823 14.2689 10.0923 14.2689Z" />
        </svg>
    