
        <svg xmlns="http://www.w3.org/2000/svg" viewBox="0 0 100 100">
            <path d="M11.9523 23.9041C18.5523 23.9041 23.9023 18.5541 23.9023 11.9541C23.9023 5.3541 18.5523 0.0041 11.9523 0.0041C5.3523 0.0041 0.0023 5.3541 0.0023 11.9541C0.0023 18.5541 5.3523 23.9041 11.9523 23.9041ZM11.9523 21.9141C6.4423 21.9141 1.9923 17.4641 1.9923 11.9541C1.9923 6.4441 6.4423 1.9941 11.9523 1.9941C17.4623 1.9941 21.9123 6.4441 21.9123 11.9541C21.9123 17.4641 17.4623 21.9141 11.9523 21.9141ZM8.5423 17.0641C8.9723 17.0641 9.2323 16.7841 9.2323 16.3641V12.8041C9.2323 10.8941 9.8323 9.2941 11.4523 9.0241V16.5741C11.4523 16.8741 11.6323 17.0641 11.9423 17.0641C12.2323 17.0641 12.4223 16.8741 12.4223 16.5741V9.0141C14.1123 9.2541 14.6923 10.8941 14.6923 12.8041V16.3641C14.6923 16.7841 14.9523 17.0641 15.3823 17.0641C15.7923 17.0641 16.0623 16.7841 16.0623 16.3641V12.7341C16.0623 10.0241 14.8823 7.9941 12.4223 7.7741V6.4641C12.4223 6.1741 12.2323 5.9841 11.9423 5.9841C11.6323 5.9841 11.4523 6.1741 11.4523 6.4641V7.7741C9.0123 8.0141 7.8623 10.0641 7.8623 12.7341V16.3641C7.8623 16.7841 8.1223 17.0641 8.5423 17.0641Z" />
        </svg>
    