
        <svg xmlns="http://www.w3.org/2000/svg" viewBox="0 0 100 100">
            <path d="M27.0823 13.4978C27.0823 6.4078 21.6123 0.5678 14.6723 0.0078C14.2923 -0.0422 14.0123 0.2378 14.0123 0.6178V4.0278C14.0123 4.3378 14.2423 4.5878 14.5623 4.6178C19.0123 5.1278 22.4623 8.9078 22.4623 13.4978C22.4623 15.5878 21.7523 17.5278 20.5123 19.0578C20.3123 19.3078 20.3123 19.6078 20.5423 19.8378L22.9823 22.2678C23.2523 22.5178 23.6323 22.5178 23.8823 22.2378C25.8723 19.8778 27.0823 16.8178 27.0823 13.4978ZM0.0023 13.4978C0.0023 16.8378 1.2223 19.9078 3.2223 22.2578C3.4523 22.5378 3.8323 22.5178 4.1023 22.2678L6.5423 19.8378C6.7723 19.6078 6.7723 19.3078 6.5723 19.0578C5.3323 17.5278 4.6123 15.5878 4.6123 13.4978C4.6123 8.9078 8.0723 5.1278 12.5123 4.6178C12.8423 4.5878 13.0623 4.3378 13.0623 4.0278V0.6178C13.0623 0.2378 12.7823 -0.0422 12.4123 0.0078C5.4723 0.5678 0.0023 6.4078 0.0023 13.4978ZM10.3023 18.5078C10.5423 18.5078 10.7023 18.3578 10.7023 18.1078V14.3678C10.7023 12.2978 11.4723 10.7678 13.2223 10.5978V18.1878C13.2223 18.3878 13.3523 18.5078 13.5323 18.5078C13.7223 18.5078 13.8423 18.3878 13.8423 18.1878V10.5878C15.6523 10.7378 16.4023 12.3178 16.4023 14.3678V18.1078C16.4023 18.3578 16.5623 18.5078 16.8023 18.5078C17.0523 18.5078 17.2023 18.3578 17.2023 18.1078V14.2878C17.2023 11.8678 16.1023 10.0178 13.8423 9.8578V8.3978C13.8423 8.2078 13.7223 8.0778 13.5323 8.0778C13.3523 8.0778 13.2223 8.2078 13.2223 8.3978V9.8678C10.9723 10.0378 9.9023 11.9078 9.9023 14.2878V18.1078C9.9023 18.3578 10.0523 18.5078 10.3023 18.5078Z" />
        </svg>
    