
        <svg xmlns="http://www.w3.org/2000/svg" viewBox="0 0 100 100">
            <path d="M28.6023 14.2549C28.6023 6.7749 22.8823 0.6449 15.5823 0.0049C15.1923 -0.0351 14.8723 0.2649 14.8723 0.6749V4.5749C14.8723 4.9149 15.1123 5.1749 15.4523 5.2049C19.9323 5.7849 23.4123 9.6049 23.4123 14.2549C23.4123 16.3649 22.7023 18.3149 21.4123 19.9349C21.2323 20.1749 21.2323 20.4649 21.4423 20.6749L24.2723 23.4949C24.5623 23.7849 24.9823 23.7849 25.2423 23.4749C27.3523 20.9749 28.6023 17.7549 28.6023 14.2549ZM0.0023 14.2549C0.0023 17.7549 1.2623 20.9749 3.3623 23.4749C3.6223 23.7849 4.0423 23.7849 4.3323 23.4849L7.1623 20.6649C7.3723 20.4649 7.3823 20.1749 7.1923 19.9249C5.9223 18.3149 5.1923 16.3649 5.1923 14.2549C5.1923 9.6049 8.6723 5.7849 13.1523 5.2049C13.4923 5.1749 13.7323 4.9149 13.7323 4.5749V0.6749C13.7323 0.2649 13.4323 -0.0351 13.0223 0.0049C5.7323 0.6449 0.0023 6.7749 0.0023 14.2549ZM10.9123 19.4449C11.4023 19.4449 11.7223 19.1549 11.7223 18.6249V15.2349C11.7223 13.4549 12.2823 11.9549 13.7923 11.6849V18.9149C13.7923 19.2349 13.9823 19.4349 14.2923 19.4349C14.5923 19.4349 14.7923 19.2349 14.7923 18.9149V11.6749C16.3623 11.9349 16.9023 13.4449 16.9023 15.2349V18.6249C16.9023 19.1249 17.2023 19.4449 17.7023 19.4449C18.2023 19.4449 18.5123 19.1349 18.5123 18.6249V15.2049C18.5123 12.4749 17.2823 10.4549 14.7923 10.2349V8.9649C14.7923 8.6649 14.5923 8.4649 14.2923 8.4649C13.9823 8.4649 13.7923 8.6649 13.7923 8.9649V10.2349C11.3223 10.4749 10.1123 12.5149 10.1123 15.2049V18.6249C10.1123 19.1249 10.4223 19.4449 10.9123 19.4449Z" />
        </svg>
    