
        <svg xmlns="http://www.w3.org/2000/svg" viewBox="0 0 100 100">
            <path d="M3.1617 20.742H17.5917C19.6617 20.742 20.7417 19.642 20.7417 17.592V3.152C20.7417 1.102 19.6617 0.002 17.5917 0.002H3.1617C1.0917 0.002 0.0017 1.082 0.0017 3.152V17.592C0.0017 19.662 1.0917 20.742 3.1617 20.742ZM3.1917 19.872C1.6617 19.872 0.8717 19.082 0.8717 17.552V3.202C0.8717 1.662 1.6617 0.872 3.1917 0.872H17.5517C19.0317 0.872 19.8717 1.662 19.8717 3.202V17.552C19.8717 19.082 19.0317 19.872 17.5517 19.872ZM7.1417 15.232C7.3917 15.232 7.5517 15.082 7.5517 14.822V11.102C7.5517 9.022 8.3217 7.492 10.0617 7.312V14.922C10.0617 15.122 10.1817 15.232 10.3817 15.232C10.5617 15.232 10.6717 15.122 10.6717 14.922V7.312C12.4917 7.462 13.2517 9.042 13.2517 11.102V14.822C13.2517 15.082 13.3917 15.232 13.6417 15.232C13.9017 15.232 14.0517 15.082 14.0517 14.822V11.002C14.0517 8.592 12.9417 6.722 10.6717 6.582V5.122C10.6717 4.922 10.5617 4.802 10.3817 4.802C10.1817 4.802 10.0617 4.922 10.0617 5.122V6.582C7.8117 6.762 6.7517 8.632 6.7517 11.002V14.822C6.7517 15.082 6.8917 15.232 7.1417 15.232Z" />
        </svg>
    