
        <svg xmlns="http://www.w3.org/2000/svg" viewBox="0 0 100 100">
            <path d="M0.9417 25.0048H25.2217C25.7317 25.0048 26.1717 24.5748 26.1717 24.0548C26.1717 23.5448 25.7317 23.1248 25.2217 23.1248H24.6117V22.2648C24.6117 21.7948 24.3417 21.5148 23.8617 21.5148H23.1117V8.0348H24.1417C24.7817 8.0348 25.1617 7.5748 25.1617 7.0848C25.1617 6.7348 24.9617 6.4348 24.5317 6.1848L14.5217 0.4148C14.0517 0.1448 13.5617 0.0048 13.0817 0.0048C12.6017 0.0048 12.0917 0.1448 11.6517 0.4148L1.6417 6.1848C1.1917 6.4348 1.0117 6.7348 1.0117 7.0848C1.0117 7.5748 1.3817 8.0348 2.0317 8.0348H3.0617V21.5148H2.3217C1.8417 21.5148 1.5617 21.7948 1.5617 22.2648V23.1248H0.9417C0.4217 23.1248 0.0017 23.5448 0.0017 24.0548C0.0017 24.5748 0.4217 25.0048 0.9417 25.0048ZM9.5817 18.6448C9.1417 18.6448 8.8817 18.3648 8.8817 17.9148V14.1948C8.8817 11.4248 10.0517 9.3148 12.5717 9.0748V7.7248C12.5717 7.4148 12.7717 7.2348 13.0917 7.2348C13.3917 7.2348 13.5817 7.4148 13.5817 7.7248V9.0748C16.1217 9.2948 17.3417 11.3948 17.3417 14.1948V17.9148C17.3417 18.3648 17.0717 18.6448 16.6317 18.6448C16.1917 18.6448 15.9217 18.3648 15.9217 17.9148V14.2648C15.9217 12.2948 15.3117 10.6048 13.5817 10.3548V18.1448C13.5817 18.4548 13.3917 18.6448 13.0917 18.6448C12.7717 18.6448 12.5717 18.4548 12.5717 18.1448V10.3748C10.9217 10.6548 10.3017 12.3048 10.3017 14.2648V17.9148C10.3017 18.3648 10.0317 18.6448 9.5817 18.6448Z" />
        </svg>
    