
        <svg xmlns="http://www.w3.org/2000/svg" viewBox="0 0 100 100">
            <path d="M2.8917 22.3606C4.6717 22.3606 5.7617 21.3306 5.7617 19.4906V13.9806C5.7617 11.3706 6.4917 9.1906 8.6817 8.6206V20.9206C8.6817 21.7306 9.1417 22.2406 9.8817 22.2406C10.6017 22.2406 11.0617 21.7306 11.0617 20.9206V8.6106C13.2517 9.1606 14.0017 11.3106 14.0017 13.9806V19.4906C14.0017 21.4306 15.2017 22.3606 16.9017 22.3606C18.6717 22.3606 19.7617 21.3306 19.7617 19.4906V14.2106C19.7617 8.3306 16.6917 4.1706 11.0617 3.6606V1.3206C11.0617 0.5106 10.6017 0.0006 9.8817 0.0006C9.1517 0.0006 8.6817 0.5006 8.6817 1.3206V3.6606C3.1417 4.1806 0.0017 8.3206 0.0017 14.2106V19.4906C0.0017 21.4006 1.2117 22.3606 2.8917 22.3606Z" />
        </svg>
    