
        <svg xmlns="http://www.w3.org/2000/svg" viewBox="0 0 100 100">
            <path d="M12.1023 24.2064C18.7823 24.2064 24.2123 18.7864 24.2123 12.1064C24.2123 5.4264 18.7823 -0.0036 12.1023 -0.0036C5.4223 -0.0036 0.0023 5.4264 0.0023 12.1064C0.0023 18.7864 5.4223 24.2064 12.1023 24.2064ZM8.5923 17.4064C8.0623 17.4064 7.7423 17.0764 7.7423 16.5464V12.9964C7.7423 10.1964 9.0023 8.0864 11.5823 7.8364V6.5164C11.5823 6.1864 11.7823 5.9864 12.1023 5.9864C12.4223 5.9864 12.6223 6.1864 12.6223 6.5164V7.8364C15.2123 8.0664 16.5023 10.1564 16.5023 12.9964V16.5464C16.5023 17.0864 16.1723 17.4064 15.6523 17.4064C15.1323 17.4064 14.8023 17.0764 14.8023 16.5464V13.0464C14.8023 11.1764 14.2423 9.5964 12.6223 9.3564V16.8664C12.6223 17.1864 12.4223 17.3864 12.1023 17.3864C11.7823 17.3864 11.5823 17.1864 11.5823 16.8664V9.3664C10.0223 9.6464 9.4423 11.1864 9.4423 13.0464V16.5464C9.4423 17.0964 9.1023 17.4064 8.5923 17.4064Z" />
        </svg>
    