
        <svg xmlns="http://www.w3.org/2000/svg" viewBox="0 0 100 100">
            <path d="M1.1117 22.2464C1.3717 22.2464 1.6317 22.1464 1.9617 21.9764L7.9717 18.6664L14.3717 22.3664C14.7617 22.6064 15.1717 22.7264 15.5617 22.7264C15.9417 22.7264 16.3117 22.6164 16.6717 22.4064L22.7317 18.9164C23.3317 18.5764 23.5917 18.1264 23.5917 17.4364V1.6664C23.5917 0.9164 23.1817 0.4964 22.4717 0.4964C22.2217 0.4964 21.9617 0.5764 21.6417 0.7464L15.4617 4.1564L9.1917 0.3364C8.8117 0.1164 8.4117 -0.0036 8.0117 -0.0036C7.6017 -0.0036 7.1917 0.1164 6.8217 0.3364L0.8717 3.8164C0.2717 4.1564 0.0017 4.5964 0.0017 5.2964V21.0564C0.0017 21.8064 0.4117 22.2464 1.1117 22.2464ZM7.3817 17.2664L1.8017 20.3564C1.7417 20.3864 1.6917 20.4164 1.6317 20.4164C1.5217 20.4164 1.4517 20.3364 1.4517 20.1964V5.6464C1.4517 5.3564 1.5517 5.1564 1.8317 4.9964L6.9817 1.9364C7.1217 1.8664 7.2417 1.7964 7.3817 1.7364ZM8.8317 17.3864V1.8964C8.9517 1.9464 9.0817 2.0164 9.2017 2.0864L14.7617 5.4764V20.8164C14.6117 20.7564 14.4517 20.6764 14.3117 20.5864ZM16.2117 20.9664V5.4064L21.7817 2.3664C21.8417 2.3364 21.9017 2.3064 21.9617 2.3064C22.0617 2.3064 22.1517 2.3864 22.1517 2.5264V17.0864C22.1517 17.3664 22.0417 17.5764 21.7717 17.7464L16.6917 20.7164C16.5217 20.8164 16.3717 20.8964 16.2117 20.9664Z" />
        </svg>
    