
        <svg xmlns="http://www.w3.org/2000/svg" viewBox="0 0 100 100">
            <path d="M9.0317 19.6988L14.6617 22.8388C14.9317 22.9787 15.1617 23.0888 15.4417 23.1588V3.7288L9.9617 0.4088C9.6317 0.2087 9.3117 0.0688 9.0317 -0.0012ZM0.0017 21.2788C0.0017 22.2987 0.6317 22.8488 1.5617 22.8488C1.9017 22.8488 2.2417 22.7488 2.6417 22.5388L7.3317 19.9888V0.1388C7.0617 0.2387 6.7717 0.3788 6.4717 0.5487L1.1517 3.5888C0.3617 4.0188 0.0017 4.6388 0.0017 5.5188ZM17.1517 23.1088C17.2817 23.0588 17.4217 23.0088 17.5517 22.9188L23.5117 19.5588C24.3117 19.1088 24.6817 18.4888 24.6817 17.5988V1.9088C24.6817 0.8687 24.0317 0.3388 23.0517 0.3388C22.7017 0.3388 22.3217 0.4587 21.9117 0.6788L17.1517 3.3188Z" />
        </svg>
    