
        <svg xmlns="http://www.w3.org/2000/svg" viewBox="0 0 100 100">
            <path d="M12.6023 25.1986C19.5623 25.1986 25.2023 19.5586 25.2023 12.5986C25.2023 5.6386 19.5623 -0.0014 12.6023 -0.0014C5.6323 -0.0014 0.0023 5.6386 0.0023 12.5986C0.0023 19.5586 5.6323 25.1986 12.6023 25.1986ZM12.6023 21.5386C7.6523 21.5386 3.6523 17.5386 3.6523 12.5986C3.6523 7.6486 7.6523 3.6586 12.6023 3.6586C17.5423 3.6586 21.5423 7.6486 21.5423 12.5986C21.5423 17.5386 17.5423 21.5386 12.6023 21.5386ZM6.9123 16.8486C6.9123 17.5186 7.3723 17.8286 7.8723 17.8286C8.1023 17.8286 8.3123 17.7686 8.4923 17.6586L10.3023 16.6886V7.2886C10.1123 7.3286 9.9023 7.4186 9.6323 7.5586L7.5823 8.7086C7.1123 8.9686 6.9123 9.3286 6.9123 9.8486ZM11.2023 16.4486L13.3123 17.6386C13.5423 17.7686 13.7323 17.8486 13.9923 17.8986V8.8586L11.9423 7.6786C11.6323 7.5086 11.6023 7.4886 11.2023 7.3086ZM14.8923 17.8486C14.9623 17.8286 15.0423 17.7886 15.1423 17.7386L17.5923 16.3786C18.1023 16.0886 18.2923 15.7486 18.2923 15.2186V8.3586C18.2923 7.6486 17.8223 7.3486 17.2023 7.3486C16.9723 7.3486 16.7023 7.4386 16.4723 7.5586L14.8923 8.4386Z" />
        </svg>
    