
        <svg xmlns="http://www.w3.org/2000/svg" viewBox="0 0 100 100">
            <path d="M12.6023 25.1986C19.5623 25.1986 25.2023 19.5586 25.2023 12.5986C25.2023 5.6386 19.5623 -0.0014 12.6023 -0.0014C5.6323 -0.0014 0.0023 5.6386 0.0023 12.5986C0.0023 19.5586 5.6323 25.1986 12.6023 25.1986ZM12.6023 21.5386C7.6523 21.5386 3.6523 17.5386 3.6523 12.5986C3.6523 7.6486 7.6523 3.6586 12.6023 3.6586C17.5423 3.6586 21.5423 7.6486 21.5423 12.5986C21.5423 17.5386 17.5423 21.5386 12.6023 21.5386ZM9.5123 8.9286C9.5123 10.2186 10.2923 11.3186 11.4023 11.7786V16.9486C11.4023 18.1186 11.9623 19.6486 12.6023 19.6486C13.2223 19.6486 13.7823 18.1386 13.7823 16.9486V11.7886C14.9023 11.3286 15.6823 10.2186 15.6823 8.9286C15.6823 7.2186 14.2823 5.8386 12.6023 5.8486C10.9023 5.8586 9.5123 7.2386 9.5123 8.9286ZM10.9423 8.0786C10.9423 7.5386 11.4023 7.0886 11.9323 7.0886C12.4723 7.0886 12.9123 7.5386 12.9123 8.0786C12.9123 8.6086 12.4723 9.0686 11.9323 9.0686C11.4023 9.0686 10.9423 8.6086 10.9423 8.0786Z" />
        </svg>
    