
        <svg xmlns="http://www.w3.org/2000/svg" viewBox="0 0 100 100">
            <path d="M4.3817 22.8467H18.4717C21.2617 22.8467 22.8517 21.2667 22.8517 18.4767V4.3667C22.8517 1.5867 21.2617 -0.0033 18.4717 -0.0033H4.3817C1.5917 -0.0033 0.0017 1.5867 0.0017 4.3667V18.4767C0.0017 21.2667 1.5917 22.8467 4.3817 22.8467ZM8.2417 7.5267C8.2417 5.7267 9.7117 4.2567 11.5317 4.2467C13.3517 4.2267 14.8217 5.6967 14.8217 7.5267C14.8217 8.9067 13.9917 10.0767 12.8017 10.5667V16.0567C12.8017 17.3167 12.1917 18.9367 11.5317 18.9367C10.8617 18.9367 10.2517 17.2967 10.2517 16.0567V10.5567C9.0717 10.0667 8.2417 8.8967 8.2417 7.5267ZM9.7717 6.6067C9.7717 7.1867 10.2617 7.6767 10.8117 7.6767C11.4017 7.6767 11.8717 7.1867 11.8817 6.6067C11.8817 6.0367 11.4017 5.5567 10.8117 5.5567C10.2617 5.5567 9.7717 6.0367 9.7717 6.6067Z" />
        </svg>
    