
        <svg xmlns="http://www.w3.org/2000/svg" viewBox="0 0 100 100">
            <path d="M3.6817 21.5722H17.8917C20.3517 21.5722 21.5717 20.3722 21.5717 17.9522V3.6322C21.5717 1.2222 20.3517 0.0022 17.8917 0.0022H3.6817C1.2317 0.0022 0.0017 1.2222 0.0017 3.6322V17.9522C0.0017 20.3722 1.2317 21.5722 3.6817 21.5722ZM8.0317 6.2622C8.0317 4.7322 9.2817 3.5022 10.7917 3.5022C12.3117 3.5022 13.5617 4.7322 13.5617 6.2622C13.5617 7.5022 12.7517 8.5322 11.6217 8.8722V14.9322C11.6217 16.7222 11.3517 18.2822 10.7917 18.2822C10.2417 18.2822 9.9517 16.7022 9.9517 14.9322V8.8722C8.8517 8.5222 8.0317 7.4922 8.0317 6.2622ZM9.2117 5.5422C9.2117 6.0222 9.6217 6.4322 10.0817 6.4322C10.5617 6.4322 10.9617 6.0222 10.9617 5.5422C10.9717 5.0722 10.5617 4.6622 10.0817 4.6622C9.6217 4.6622 9.2017 5.0722 9.2117 5.5422Z" />
        </svg>
    