
        <svg xmlns="http://www.w3.org/2000/svg" viewBox="0 0 100 100">
            <path d="M12.7923 25.5961C19.8723 25.5961 25.6023 19.8661 25.6023 12.7961C25.6023 5.7261 19.8723 -0.0039 12.7923 -0.0039C5.7323 -0.0039 0.0023 5.7261 0.0023 12.7961C0.0023 19.8661 5.7323 25.5961 12.7923 25.5961ZM14.6323 11.9861L10.2023 7.4861C10.7823 6.6761 11.7223 6.1661 12.7923 6.1561C14.5523 6.1361 16.0123 7.5661 16.0123 9.3661C16.0123 10.3961 15.5123 11.3561 14.6323 11.9861ZM17.0623 18.2461L7.3723 8.5661C7.0423 8.2361 7.0423 7.7261 7.3723 7.3961C7.6923 7.0761 8.2223 7.0761 8.5423 7.3961L18.2223 17.0761C18.5523 17.3861 18.5523 17.9161 18.2223 18.2461C17.9023 18.5661 17.3823 18.5461 17.0623 18.2461ZM11.5623 8.2161C11.5623 8.6461 11.9323 9.0361 12.3623 9.0361C12.7923 9.0361 13.1623 8.6461 13.1623 8.2161C13.1623 7.7861 12.7923 7.4161 12.3623 7.4161C11.9323 7.4161 11.5623 7.7861 11.5623 8.2161ZM11.4823 14.1461L14.1023 16.7661V17.2361C14.1023 18.2561 13.4423 19.7861 12.7923 19.7861C12.1423 19.7861 11.4823 18.2461 11.4823 17.2361Z" />
        </svg>
    