
        <svg xmlns="http://www.w3.org/2000/svg" viewBox="0 0 100 100">
            <path d="M3.6817 21.5722H17.8917C20.3517 21.5722 21.5717 20.3722 21.5717 17.9522V3.6322C21.5717 1.2222 20.3517 0.0022 17.8917 0.0022H3.6817C1.2317 0.0022 0.0017 1.2222 0.0017 3.6322V17.9522C0.0017 20.3722 1.2317 21.5722 3.6817 21.5722ZM3.7017 19.6922C2.5317 19.6922 1.8917 19.0622 1.8917 17.8522V3.7422C1.8917 2.5222 2.5317 1.8822 3.7017 1.8822H17.8717C19.0317 1.8822 19.6917 2.5222 19.6917 3.7422V17.8522C19.6917 19.0622 19.0317 19.6922 17.8717 19.6922ZM8.1217 6.4022C8.1217 7.5822 8.9017 8.5922 9.9817 8.9322V14.8222C9.9817 16.5322 10.2617 18.0622 10.7917 18.0622C11.3317 18.0622 11.5917 16.5622 11.5917 14.8222V8.9322C12.6917 8.6022 13.4617 7.5922 13.4617 6.4022C13.4617 4.9222 12.2717 3.7222 10.7917 3.7222C9.3317 3.7222 8.1217 4.9222 8.1217 6.4022ZM9.2617 5.7022C9.2417 5.2522 9.6517 4.8522 10.1017 4.8522C10.5717 4.8522 10.9717 5.2522 10.9617 5.7022C10.9617 6.1622 10.5717 6.5622 10.1017 6.5622C9.6517 6.5622 9.2617 6.1622 9.2617 5.7022Z" />
        </svg>
    