
        <svg xmlns="http://www.w3.org/2000/svg" viewBox="0 0 100 100">
            <path d="M11.7523 23.5031C18.2323 23.5031 23.5123 18.2331 23.5123 11.7531C23.5123 5.2731 18.2323 0.0031 11.7523 0.0031C5.2723 0.0031 0.0023 5.2731 0.0023 11.7531C0.0023 18.2331 5.2723 23.5031 11.7523 23.5031ZM12.3823 9.6831L9.3023 6.5831C9.5723 5.5031 10.5623 4.7031 11.7423 4.7031C13.1223 4.7031 14.2723 5.8431 14.2723 7.2331C14.2723 8.4131 13.4723 9.4031 12.3823 9.6831ZM17.3123 17.9531L5.5423 6.1831C5.3623 6.0131 5.3523 5.7331 5.5423 5.5431C5.7223 5.3631 6.0123 5.3631 6.1923 5.5431L17.9523 17.3131C18.1323 17.4931 18.1323 17.7631 17.9523 17.9531C17.7823 18.1431 17.4823 18.1331 17.3123 17.9531ZM10.2923 6.5431C10.3023 6.9731 10.6723 7.3431 11.1023 7.3431C11.5423 7.3431 11.8923 6.9731 11.9023 6.5431C11.9223 6.1031 11.5423 5.7331 11.1023 5.7331C10.6723 5.7331 10.2923 6.1031 10.2923 6.5431ZM11.1123 12.8431L12.3623 14.0931V16.3231C12.3623 17.8631 12.1423 19.0231 11.7423 19.0231C11.3423 19.0231 11.1123 17.8331 11.1123 16.3231Z" />
        </svg>
    