
        <svg xmlns="http://www.w3.org/2000/svg" viewBox="0 0 100 100">
            <path d="M11.3523 22.7147C17.6023 22.7147 22.7123 17.6047 22.7123 11.3547C22.7123 5.1047 17.6023 0.0047 11.3523 0.0047C5.1123 0.0047 0.0023 5.1047 0.0023 11.3547C0.0023 17.6047 5.1123 22.7147 11.3523 22.7147ZM9.2623 6.4147C9.2623 5.2547 10.1923 4.3147 11.3523 4.3147C12.5123 4.3147 13.4523 5.2547 13.4523 6.4147C13.4523 7.4747 12.6523 8.3347 11.6323 8.4847V16.9947C11.6323 18.1047 11.4823 18.5747 11.3523 18.5747C11.2223 18.5747 11.0823 18.0947 11.0823 16.9947V8.4847C10.0523 8.3347 9.2623 7.4747 9.2623 6.4147ZM10.0923 5.8547C10.1023 6.2447 10.4323 6.5747 10.8323 6.5747C11.2123 6.5747 11.5123 6.2447 11.5223 5.8547C11.5423 5.4647 11.2123 5.1347 10.8323 5.1347C10.4323 5.1347 10.0823 5.4647 10.0923 5.8547Z" />
        </svg>
    