
        <svg xmlns="http://www.w3.org/2000/svg" viewBox="0 0 100 100">
            <path d="M3.4617 21.2264H17.7617C20.0517 21.2264 21.2217 20.0464 21.2217 17.7964V3.4264C21.2217 1.1764 20.0517 -0.0036 17.7617 -0.0036H3.4617C1.1717 -0.0036 0.0017 1.1564 0.0017 3.4264V17.7964C0.0017 20.0664 1.1717 21.2264 3.4617 21.2264ZM8.0717 5.9364C8.0717 4.5364 9.2217 3.3964 10.6217 3.3964C12.0117 3.3964 13.1617 4.5364 13.1617 5.9364C13.1617 7.1264 12.3517 8.0964 11.2617 8.3764V15.2464C11.2617 16.8164 11.0317 18.0164 10.6217 18.0164C10.2117 18.0164 9.9617 16.7964 9.9617 15.2464V8.3764C8.8817 8.0964 8.0717 7.1164 8.0717 5.9364ZM9.1417 5.2864C9.1417 5.7264 9.5317 6.1064 9.9617 6.1064C10.4217 6.1064 10.7717 5.7264 10.7817 5.2864C10.7917 4.8364 10.4217 4.4564 9.9617 4.4564C9.5317 4.4564 9.1317 4.8364 9.1417 5.2864Z" />
        </svg>
    