
        <svg xmlns="http://www.w3.org/2000/svg" viewBox="0 0 100 100">
            <path d="M4.4317 -0.0003H1.3317C0.5317 -0.0003 0.0017 0.5397 0.0017 1.3497V7.7197C0.0017 8.4997 0.2217 8.9297 0.8017 9.3297L4.4317 11.8797ZM10.0217 -0.0003H5.2817V12.3797L6.1017 12.9497L6.3317 12.2197C6.7717 10.9197 8.5617 10.9197 9.0117 12.2197L9.2317 12.9097L10.0217 12.3597ZM13.9617 -0.0003H10.8717V11.8797L14.5217 9.3297C15.0817 8.9297 15.3017 8.4697 15.3017 7.7197V1.3497C15.3017 0.5397 14.7617 -0.0003 13.9617 -0.0003ZM4.0517 24.8797L7.6717 22.2397L11.2817 24.8797C11.6617 25.1497 12.1017 24.8897 11.9417 24.3997L10.5517 20.1397L14.1817 17.5397C14.4717 17.3297 14.4017 16.7597 13.9117 16.7597H9.4417L8.0717 12.4997C7.9417 12.0797 7.4017 12.0797 7.2617 12.4997L5.8917 16.7597H1.4317C0.9617 16.7597 0.8217 17.2997 1.1717 17.5697L4.7917 20.1397L3.4217 24.3997C3.2617 24.8897 3.6917 25.1497 4.0517 24.8797Z" />
        </svg>
    