
        <svg xmlns="http://www.w3.org/2000/svg" viewBox="0 0 100 100">
            <path d="M15.2817 -0.0027H2.1217C0.9017 -0.0027 0.0017 0.8973 0.0017 2.1173V9.3173C0.0017 10.3573 0.3117 10.9573 1.1017 11.4973L6.3017 15.0973L6.5517 14.3173C6.7117 13.8173 7.0117 13.4273 7.3517 13.1673L7.1917 13.0673V2.1173H10.2217V13.0673L10.0617 13.1673C10.4217 13.4273 10.6917 13.8173 10.8517 14.3073L11.1117 15.0973L16.3117 11.4973C17.1017 10.9573 17.4017 10.3373 17.4017 9.3173V2.1173C17.4017 0.8973 16.5017 -0.0027 15.2817 -0.0027ZM5.1717 11.7173L2.3717 9.7073C2.2117 9.5973 2.1217 9.4173 2.1217 9.2073V2.6273C2.1217 2.3473 2.3417 2.1173 2.6217 2.1173H5.1717ZM12.2417 11.7173V2.1173H14.7917C15.0617 2.1173 15.2817 2.3473 15.2817 2.6273V9.2073C15.2817 9.4173 15.1917 9.5973 15.0317 9.7073ZM5.3917 27.1173L8.7117 24.6773L12.0217 27.1173C12.7417 27.6473 13.4917 27.1173 13.2117 26.2573L11.8917 22.3473L15.2417 19.9573C15.8817 19.4973 15.7117 18.5273 14.8017 18.5473L10.6917 18.5873L9.4217 14.6473C9.1617 13.8273 8.2417 13.8273 7.9817 14.6473L6.7217 18.5873L2.6117 18.5473C1.7117 18.5273 1.5217 19.4873 2.1717 19.9573L5.5217 22.3473L4.2117 26.2573C3.9217 27.1073 4.6917 27.6473 5.3917 27.1173Z" />
        </svg>
    