
        <svg xmlns="http://www.w3.org/2000/svg" viewBox="0 0 100 100">
            <path d="M4.3917 -0.0006H1.6717C0.6917 -0.0006 0.0017 0.6894 0.0017 1.6794V8.3794C0.0017 9.2694 0.2617 9.7594 0.9117 10.2294L4.3917 12.6494ZM10.3817 -0.0006H5.8117V13.2894L6.2817 13.6294L6.4317 13.1594C7.0117 11.5594 9.1917 11.5594 9.7817 13.1594L9.9217 13.5794L10.3817 13.2694ZM14.5217 -0.0006H11.8017V12.6594L15.2917 10.2294C15.9517 9.7594 16.2117 9.2594 16.2117 8.3794V1.6794C16.2117 0.6894 15.5117 -0.0006 14.5217 -0.0006ZM4.6417 25.9294L8.1117 23.3894L11.5917 25.9294C12.1417 26.3394 12.7417 25.9194 12.5117 25.2494L11.1517 21.1594L14.6617 18.6694C15.1417 18.3194 15.0017 17.5394 14.3017 17.5594L9.9917 17.5794L8.6817 13.4694C8.4817 12.8394 7.7417 12.8394 7.5517 13.4694L6.2317 17.5794L1.9317 17.5594C1.2417 17.5394 1.0517 18.2894 1.5717 18.6694L5.0717 21.1594L3.7117 25.2494C3.4917 25.9194 4.1017 26.3394 4.6417 25.9294Z" />
        </svg>
    