
        <svg xmlns="http://www.w3.org/2000/svg" viewBox="0 0 100 100">
            <path d="M12.4023 28.5889C17.1123 28.5889 20.9423 24.7689 20.9423 20.0489C20.9423 18.6789 20.6123 17.3789 20.0423 16.2289L24.5423 8.0289C24.9023 7.3789 24.8723 6.6089 24.4723 6.0089L21.0123 0.8589C20.6223 0.2789 20.0723 -0.0011 19.3323 -0.0011H5.4523C4.7223 -0.0011 4.1623 0.2789 3.7723 0.8589L0.3323 6.0089C-0.0677 6.6089 -0.1177 7.3789 0.2423 8.0289L4.7623 16.2289C4.1723 17.3789 3.8523 18.6789 3.8523 20.0489C3.8523 24.7689 7.6723 28.5889 12.4023 28.5889ZM7.2223 3.2689H17.5623L16.3923 5.4189H8.4023ZM3.5723 7.0189L4.7823 5.2489L8.5123 12.4489C7.9423 12.7289 7.4223 13.0789 6.9423 13.4789ZM20.0023 5.2489L21.2223 7.0189L17.8523 13.4789C17.3723 13.0789 16.8423 12.7289 16.2923 12.4489ZM12.4023 11.5089C12.1923 11.5089 11.9723 11.5189 11.7823 11.5289L10.0923 8.4689H14.6923L13.0223 11.5289C12.8123 11.5189 12.6123 11.5089 12.4023 11.5089ZM12.4023 25.3289C9.4923 25.3289 7.1223 22.9589 7.1223 20.0489C7.1223 17.1489 9.4923 14.7889 12.4023 14.7889C15.3023 14.7889 17.6623 17.1489 17.6623 20.0489C17.6623 22.9589 15.3023 25.3289 12.4023 25.3289ZM10.5523 23.7089L12.4023 22.3389L14.2423 23.7089C14.7623 24.0889 15.3123 23.6989 15.1223 23.0589L14.3923 20.8789L16.2523 19.5489C16.7423 19.1989 16.5623 18.4989 15.9423 18.5189L13.6423 18.5389L12.9223 16.3489C12.7423 15.7289 12.0623 15.7289 11.8623 16.3489L11.1423 18.5389L8.8623 18.5189C8.2223 18.4989 8.0423 19.1989 8.5323 19.5489L10.3923 20.8989L9.6523 23.0589C9.4623 23.6689 10.0223 24.0789 10.5523 23.7089Z" />
        </svg>
    