
        <svg xmlns="http://www.w3.org/2000/svg" viewBox="0 0 100 100">
            <path d="M3.3074 12.2914C4.3474 10.9914 5.8074 10.0514 7.4874 9.6814L3.0574 0.0014L0.0574 4.7014C-0.0126 4.8114 -0.0126 4.9714 0.0474 5.0814ZM10.8374 9.6814C12.4974 10.0614 13.9574 11.0014 14.9874 12.3014L18.2774 5.0814C18.3374 4.9714 18.3374 4.8114 18.2674 4.7014L15.2574 0.0014ZM6.2574 4.8714H12.0674L14.2674 0.0614H4.0474ZM9.1374 23.5314C12.7774 23.5314 15.7174 20.5914 15.7174 16.9614C15.7174 13.3114 12.7774 10.3714 9.1374 10.3714C5.5074 10.3714 2.5774 13.3114 2.5774 16.9614C2.5774 20.5914 5.5074 23.5314 9.1374 23.5314ZM7.0074 20.6014C6.8374 20.7214 6.6374 20.6014 6.7074 20.3814L7.5174 17.8514L5.3674 16.3114C5.1874 16.1914 5.2774 15.9414 5.4874 15.9414H8.1374L8.9674 13.4014C9.0174 13.2214 9.2774 13.2214 9.3374 13.4014L10.1574 15.9414H12.8074C13.0374 15.9414 13.0474 16.2114 12.9374 16.3014L10.7774 17.8514L11.5974 20.3814C11.6774 20.6014 11.4674 20.7214 11.2974 20.6014L9.1374 19.0314Z" />
        </svg>
    