
        <svg xmlns="http://www.w3.org/2000/svg" viewBox="0 0 100 100">
            <path d="M11.6614 27.4781C16.1014 27.4781 19.7114 23.8781 19.7114 19.4381C19.7114 17.9881 19.3214 16.6281 18.6514 15.4581L23.1314 7.1681C23.4014 6.6781 23.3914 6.0981 23.0714 5.6281L19.7814 0.6481C19.4914 0.2081 19.0814 -0.0019 18.5014 -0.0019H4.8114C4.2414 -0.0019 3.8314 0.2081 3.5414 0.6481L0.2414 5.6281C-0.0586 6.0981 -0.0786 6.6781 0.1914 7.1681L4.6614 15.4681C4.0114 16.6381 3.6214 17.9881 3.6214 19.4381C3.6214 23.8781 7.2214 27.4781 11.6614 27.4781ZM5.9014 2.3881H17.4114L15.8014 5.3981H7.5314ZM2.6114 6.3781L4.2314 3.9481L8.3914 12.0781C7.6014 12.4381 6.8914 12.8981 6.2714 13.4681ZM19.1014 3.9481L20.7114 6.3781L17.0514 13.4681C16.4314 12.8981 15.7114 12.4381 14.9314 12.0781ZM11.6614 11.3881C11.3814 11.3881 11.0814 11.4181 10.8014 11.4381L8.7914 7.7081H14.5414L12.5114 11.4381C12.2314 11.4181 11.9514 11.3881 11.6614 11.3881ZM11.6614 25.0881C8.5514 25.0881 6.0114 22.5581 6.0114 19.4381C6.0114 16.3281 8.5414 13.7881 11.6614 13.7881C14.7814 13.7881 17.3114 16.3081 17.3114 19.4381C17.3114 22.5481 14.7914 25.0881 11.6614 25.0881ZM9.6914 23.1181L11.6714 21.6681L13.6414 23.1181C14.1114 23.4681 14.6014 23.1081 14.4214 22.5581L13.6414 20.2281L15.6314 18.7981C16.0614 18.4881 15.9214 17.8681 15.3514 17.8681L12.8914 17.8981L12.1414 15.5481C11.9614 15.0081 11.3714 15.0081 11.1914 15.5481L10.4314 17.8981L7.9814 17.8681C7.4014 17.8681 7.2514 18.4781 7.6914 18.7981L9.6914 20.2281L8.9014 22.5581C8.7214 23.0981 9.2214 23.4581 9.6914 23.1181Z" />
        </svg>
    