
        <svg xmlns="http://www.w3.org/2000/svg" viewBox="0 0 100 100">
            <path d="M9.3105 6.738H14.8505L18.6005 -0.002H5.5505ZM3.7705 14.278C5.0505 12.378 6.9405 10.948 9.1605 10.268L3.7805 0.578L0.4205 5.578C-0.1495 6.438 -0.1395 7.238 0.4705 8.328ZM15.0005 10.268C17.2205 10.948 19.1105 12.378 20.3805 14.278L23.6905 8.328C24.3005 7.238 24.3005 6.438 23.7305 5.578L20.3805 0.578ZM12.0805 28.098C16.6405 28.098 20.3305 24.408 20.3305 19.838C20.3305 15.278 16.6405 11.578 12.0805 11.578C7.5105 11.578 3.8205 15.278 3.8205 19.838C3.8205 24.408 7.5105 28.098 12.0805 28.098ZM9.8305 24.078C9.2605 24.508 8.6205 24.118 8.8705 23.388L9.7505 20.758L7.4905 19.128C6.9905 18.778 7.0905 17.978 7.8505 17.988L10.6405 18.008L11.4805 15.348C11.6905 14.658 12.4405 14.658 12.6705 15.348L13.5205 18.008L16.3105 17.988C17.1005 17.978 17.1505 18.788 16.6605 19.128L14.4105 20.758L15.2805 23.388C15.5405 24.138 14.9005 24.508 14.3305 24.078L12.0805 22.438Z" />
        </svg>
    