
        <svg xmlns="http://www.w3.org/2000/svg" viewBox="0 0 100 100">
            <path d="M0.0017 12.3155C0.0017 14.7855 1.3117 16.0855 3.8217 16.0855H3.9717L6.6817 22.0155C7.4317 23.6855 8.5517 23.8555 9.6117 23.5755C10.5217 23.3355 11.1417 22.5255 10.8717 21.1055L9.9517 16.2655C13.6617 16.7855 17.8317 17.9555 20.1817 19.9955V20.5555C20.1817 21.6655 20.9217 22.4055 22.0317 22.4055C23.1317 22.4055 23.8717 21.6655 23.8717 20.5555V1.8555C23.8717 0.7355 23.1317 -0.0045 22.0317 -0.0045C20.9217 -0.0045 20.1817 0.7355 20.1817 1.8555V2.3955C17.5117 4.7255 12.4717 5.9055 8.4217 6.3055H3.8217C1.3117 6.3055 0.0017 7.5955 0.0017 10.0655ZM20.7517 20.5555V1.8555C20.7517 1.0755 21.2617 0.5755 22.0317 0.5755C22.7917 0.5755 23.3017 1.0755 23.3017 1.8555V20.5555C23.3017 21.3255 22.7917 21.8355 22.0317 21.8355C21.2617 21.8355 20.7517 21.3255 20.7517 20.5555ZM8.4217 15.5155V6.8755C12.6017 6.4455 17.4117 5.4455 20.1817 3.1055V19.2755C17.4117 16.9455 12.6017 15.9455 8.4217 15.5155ZM3.8217 15.5155C1.6917 15.5155 0.5717 14.4155 0.5717 12.3155V10.0655C0.5717 7.9655 1.6917 6.8755 3.8217 6.8755H7.8517V15.5155ZM7.2517 21.9655L4.6017 16.0855H8.4217C8.7417 16.1155 9.0717 16.1455 9.4017 16.1955L10.3717 21.2355C10.5717 22.2155 10.0917 22.8155 9.4317 23.0555C8.7117 23.3055 7.7817 23.1255 7.2517 21.9655Z" />
        </svg>
    