
        <svg xmlns="http://www.w3.org/2000/svg" viewBox="0 0 100 100">
            <path d="M14.6711 23.9041C21.2711 23.9041 26.6211 18.5341 26.6211 11.9541C26.6211 5.3541 21.2711 0.0041 14.6711 0.0041C8.6211 0.0041 3.6211 4.5041 2.8211 10.3241L1.7711 8.8241C1.5811 8.5541 1.3111 8.3741 0.9611 8.3741C0.4211 8.3741 0.0011 8.7641 0.0011 9.3041C0.0011 9.5341 0.0711 9.7641 0.2111 9.9341L2.6811 12.9741C3.0511 13.4441 3.3511 13.6041 3.8211 13.6041C4.1211 13.6041 4.3611 13.5241 4.6511 13.3141L7.7111 11.0541C7.9711 10.8641 8.1111 10.5841 8.1111 10.2741C8.1111 9.7241 7.6711 9.3241 7.1811 9.3241C6.9611 9.3241 6.7611 9.3941 6.5811 9.5241L4.7611 10.9541C5.2511 5.9141 9.4911 1.9941 14.6711 1.9941C20.1811 1.9941 24.6311 6.4441 24.6311 11.9541C24.6311 17.4641 20.1811 21.9141 14.6711 21.9141C11.0311 21.9141 8.4211 19.9841 7.1511 18.4941C6.8911 18.1841 6.5811 18.0741 6.2911 18.0741C5.8111 18.0741 5.3711 18.4441 5.3711 18.9841C5.3711 19.2541 5.4511 19.5441 5.7111 19.8541C7.0411 21.4241 10.1511 23.9041 14.6711 23.9041ZM11.6611 15.7941C11.6611 16.3241 12.2511 16.5741 12.7611 16.2641L19.0311 12.5541C19.4911 12.2841 19.4811 11.6341 19.0311 11.3641L12.7611 7.6541C12.2811 7.3741 11.6611 7.5841 11.6611 8.1241Z" />
        </svg>
    