
        <svg xmlns="http://www.w3.org/2000/svg" viewBox="0 0 100 100">
            <path d="M4.5917 23.2425H23.7217C26.6117 23.2425 28.3117 21.5425 28.3117 18.6425V4.5925C28.3117 1.6825 26.6117 0.0025 23.7217 0.0025H4.5917C1.7017 0.0025 0.0017 1.6825 0.0017 4.5925V18.6425C0.0017 21.5425 1.7017 23.2425 4.5917 23.2425ZM4.1617 5.2225C4.1617 4.4525 4.5117 4.1625 5.2217 4.1625H23.0817C23.8017 4.1625 24.1517 4.4525 24.1517 5.2225V5.9025H4.1617ZM5.2217 19.0825C4.5117 19.0825 4.1617 18.7725 4.1617 18.0025V8.6725H24.1517V18.0025C24.1517 18.7725 23.8017 19.0825 23.0817 19.0825ZM14.1717 9.3825C13.2617 9.3825 12.6517 9.9725 12.6517 10.8425V13.0825L12.7217 14.0425L12.6517 13.9725L11.8517 12.9225C11.6517 12.6725 11.2617 12.5025 10.9017 12.5025C10.1217 12.5025 9.5117 13.1225 9.5117 13.8825C9.5117 14.2525 9.6517 14.5625 9.9217 14.8125L13.0617 17.8325C13.4217 18.1825 13.7717 18.3125 14.1717 18.3125C14.5617 18.3125 14.9017 18.1825 15.2617 17.8325L18.4217 14.8125C18.6717 14.5825 18.8217 14.2525 18.8217 13.8825C18.8217 13.1125 18.2017 12.5025 17.4217 12.5025C17.0617 12.5025 16.6717 12.6725 16.4717 12.9225L15.6817 13.9725L15.5817 14.0625L15.6717 13.0825V10.8425C15.6717 9.9725 15.0617 9.3825 14.1717 9.3825Z" />
        </svg>
    