
        <svg xmlns="http://www.w3.org/2000/svg" viewBox="0 0 100 100">
            <path d="M11.9523 23.9041C18.5523 23.9041 23.9023 18.5541 23.9023 11.9541C23.9023 5.3541 18.5523 0.0041 11.9523 0.0041C5.3523 0.0041 0.0023 5.3541 0.0023 11.9541C0.0023 18.5541 5.3523 23.9041 11.9523 23.9041ZM11.9523 21.9141C6.4423 21.9141 1.9923 17.4641 1.9923 11.9541C1.9923 6.4441 6.4423 1.9941 11.9523 1.9941C17.4623 1.9941 21.9123 6.4441 21.9123 11.9541C21.9123 17.4641 17.4623 21.9141 11.9523 21.9141ZM11.9423 16.8941C15.5723 16.8941 18.4223 14.5241 18.4223 11.6041C18.4223 8.6841 15.5723 6.3041 11.9423 6.3041C8.3123 6.3041 5.4623 8.6841 5.4623 11.6041C5.4623 13.4441 6.6223 15.0241 8.3423 16.0241C8.4823 16.1041 8.4823 16.2341 8.4123 16.3641C8.2223 16.7441 7.8823 17.1141 7.6423 17.3741C7.3123 17.7541 7.4023 18.1641 7.9223 18.1641C8.5623 18.1641 9.7423 17.6841 10.9023 16.9641C11.0123 16.8941 11.0823 16.8641 11.2123 16.8741C11.4423 16.8841 11.6823 16.8941 11.9423 16.8941Z" />
        </svg>
    