
        <svg xmlns="http://www.w3.org/2000/svg" viewBox="0 0 100 100">
            <path d="M12.3723 24.7459C19.2023 24.7459 24.7523 19.2059 24.7523 12.3759C24.7523 5.5459 19.2023 -0.0041 12.3723 -0.0041C5.5423 -0.0041 0.0023 5.5459 0.0023 12.3759C0.0023 19.2059 5.5423 24.7459 12.3723 24.7459ZM12.3723 21.6659C7.2423 21.6659 3.0823 17.5059 3.0823 12.3759C3.0823 7.2259 7.2423 3.0859 12.3723 3.0859C17.5223 3.0859 21.6723 7.2259 21.6723 12.3759C21.6723 17.5059 17.5223 21.6659 12.3723 21.6659ZM12.3723 16.8859C15.7623 16.8859 18.4023 14.6759 18.4023 11.9159C18.4023 9.1759 15.7623 6.9559 12.3723 6.9559C9.0023 6.9559 6.3623 9.1759 6.3623 11.9159C6.3623 13.5659 7.3523 14.9759 8.8123 15.9259C8.9423 16.0059 8.9323 16.1259 8.8623 16.2759C8.6523 16.6859 8.3423 17.0759 8.1123 17.3659C7.7923 17.7459 7.9223 18.1559 8.4523 18.1559C9.0723 18.1559 10.1723 17.6459 11.3223 16.9559C11.4523 16.8759 11.5423 16.8359 11.6723 16.8559C11.8723 16.8759 12.1123 16.8859 12.3723 16.8859Z" />
        </svg>
    