
        <svg xmlns="http://www.w3.org/2000/svg" viewBox="0 0 100 100">
            <path d="M11.7523 23.5031C18.2323 23.5031 23.5123 18.2331 23.5123 11.7531C23.5123 5.2731 18.2323 0.0031 11.7523 0.0031C5.2723 0.0031 0.0023 5.2731 0.0023 11.7531C0.0023 18.2331 5.2723 23.5031 11.7523 23.5031ZM11.7523 16.8731C11.4623 16.8731 11.1923 16.8631 10.9323 16.8531C10.8123 16.8531 10.7423 16.8731 10.6323 16.9531C9.4523 17.6531 8.2423 18.1331 7.5923 18.1331C7.1023 18.1331 7.0123 17.7431 7.3223 17.3931C7.5723 17.1131 7.9123 16.7031 8.1323 16.3031C8.1923 16.1731 8.1923 16.0431 8.0523 15.9831C6.2423 14.9931 5.0723 13.3131 5.0723 11.4231C5.0723 8.4131 8.0023 5.9731 11.7523 5.9731C15.5023 5.9731 18.4323 8.4131 18.4323 11.4231C18.4323 14.4231 15.5023 16.8731 11.7523 16.8731Z" />
        </svg>
    