
        <svg xmlns="http://www.w3.org/2000/svg" viewBox="0 0 100 100">
            <path d="M11.3994 10.9409V5.7909C11.3994 5.1809 11.7694 4.7809 12.3794 4.7809C12.9894 4.7809 13.3494 5.1809 13.3494 5.7909V12.9009L15.5894 15.1509H22.9594L15.2394 1.6609C14.5994 0.5609 13.4994 0.0009 12.3894 0.0009C11.2594 0.0009 10.1594 0.5609 9.5394 1.6609L6.8294 6.3909ZM10.3394 15.1509H13.2294L3.0594 4.9709C2.6394 4.5309 2.0594 4.5209 1.6194 4.9609C1.1594 5.4109 1.1994 6.0009 1.6194 6.4309ZM4.0594 11.2109L1.8094 15.1409H7.9794ZM24.3094 17.4809L23.9194 16.8009H0.8594L0.4694 17.4809C0.1494 18.0309 -0.0006 18.6109 -0.0006 19.1709C-0.0006 21.0109 1.2794 22.4909 3.3294 22.4909H21.4494C23.4894 22.4909 24.7694 21.0109 24.7694 19.1709C24.7694 18.6109 24.6094 18.0209 24.3094 17.4809Z" />
        </svg>
    