
        <svg xmlns="http://www.w3.org/2000/svg" viewBox="0 0 100 100">
            <path d="M11.7194 14.1023V4.5723C11.7194 4.3923 11.8194 4.2523 12.0094 4.2523C12.1994 4.2523 12.2894 4.3923 12.2894 4.5723V14.6723L14.0594 16.4523H22.7094L14.0594 1.1623C13.5894 0.3423 12.7994 0.0023 12.0094 0.0023C11.2194 0.0023 10.4194 0.3423 9.9494 1.1623L5.9094 8.3123ZM11.9694 16.4523H12.8194L1.9094 5.5423C1.7794 5.4123 1.6094 5.4423 1.4794 5.5623C1.3694 5.6723 1.3594 5.8523 1.4994 5.9723ZM4.7094 10.4323L1.3094 16.4523H10.7094ZM23.5794 18.0123L23.0294 17.0223H0.9894L0.4294 18.0123C0.1294 18.5223 -0.0006 19.0623 -0.0006 19.5723C-0.0006 20.8723 0.8994 21.9723 2.4494 21.9723H21.5594C23.1094 21.9723 24.0094 20.8723 24.0094 19.5723C24.0094 19.0623 23.8794 18.5223 23.5794 18.0123Z" />
        </svg>
    