
        <svg xmlns="http://www.w3.org/2000/svg" viewBox="0 0 100 100">
            <path d="M25.2094 17.6505L16.2394 1.9705C15.4794 0.6405 14.1894 0.0005 12.8694 0.0005C11.5294 0.0005 10.2094 0.6705 9.4694 1.9705L7.3394 5.6805L10.1594 8.5305L12.3394 4.6605C12.4294 4.4805 12.6694 4.4105 12.8694 4.4105C13.0594 4.4105 13.2694 4.4905 13.3694 4.6805L18.8094 14.3005H14.0494V8.3005C14.0494 7.5605 13.6094 7.0805 12.8694 7.0805C12.1294 7.0805 11.6694 7.5605 11.6694 8.3005V12.8205L3.8794 4.9405C3.3094 4.3505 2.5094 4.3205 1.8894 4.9105C1.2494 5.5505 1.2994 6.3605 1.8894 6.9605L9.1394 14.3005H6.4194L3.8894 11.7305L0.4994 17.6605C0.1594 18.2705 -0.0006 18.9405 -0.0006 19.5805C-0.0006 21.6405 1.6194 23.5105 3.9094 23.5105H21.8094C24.0894 23.5105 25.7094 21.6405 25.7094 19.5805C25.7094 18.9405 25.5594 18.2705 25.2094 17.6505ZM4.9694 19.6305C4.6094 19.6305 4.3694 19.3405 4.3694 19.0005C4.3694 18.9105 4.3794 18.7705 4.4294 18.6705L5.2294 17.2705H20.4894L21.2894 18.7005C21.3394 18.8005 21.3494 18.9305 21.3494 19.0005C21.3494 19.3405 21.1194 19.6305 20.7494 19.6305Z" />
        </svg>
    