
        <svg xmlns="http://www.w3.org/2000/svg" viewBox="0 0 100 100">
            <path d="M9.3047 16.8739C11.7047 16.8739 13.5747 15.0739 13.5747 12.3939V4.4739C13.5747 1.8039 11.7047 0.0039 9.3047 0.0039C6.8947 0.0039 5.0247 1.8039 5.0247 4.4739V12.3939C5.0247 15.0739 6.8947 16.8739 9.3047 16.8739ZM0.0047 12.7139C0.0047 17.7139 3.3547 21.0839 8.0847 21.5739V23.7339H3.8247C3.1147 23.7339 2.5447 24.2939 2.5447 24.9839C2.5447 25.6739 3.1147 26.2539 3.8247 26.2539H14.7847C15.4847 26.2539 16.0647 25.6739 16.0647 24.9839C16.0647 24.2939 15.4847 23.7339 14.7847 23.7339H10.5147V21.5739C15.2547 21.0839 18.5947 17.7139 18.5947 12.7139V10.4439C18.5947 9.7539 18.0347 9.2139 17.3347 9.2139C16.6247 9.2139 16.0547 9.7539 16.0547 10.4439V12.6339C16.0547 16.6139 13.2747 19.2439 9.3047 19.2439C5.3247 19.2439 2.5547 16.6139 2.5547 12.6339V10.4439C2.5547 9.7539 1.9647 9.2139 1.2747 9.2139C0.5747 9.2139 0.0047 9.7539 0.0047 10.4439Z" />
        </svg>
    