
        <svg xmlns="http://www.w3.org/2000/svg" viewBox="0 0 100 100">
            <path d="M12.3517 12.0916C12.3517 14.9016 14.2017 16.8716 16.8317 16.8716C19.4617 16.8716 21.3117 14.9016 21.3117 12.0916V4.7916C21.3117 1.9716 19.4617 0.0016 16.8317 0.0016C14.2017 0.0016 12.3517 1.9716 12.3517 4.7916ZM14.5617 12.1316V4.7416C14.5617 3.1916 15.4417 2.1216 16.8317 2.1216C18.2117 2.1216 19.0917 3.1916 19.0917 4.7416V12.1316C19.0917 13.7016 18.2117 14.7516 16.8317 14.7516C15.4417 14.7516 14.5617 13.7016 14.5617 12.1316ZM2.0417 6.3616C3.1617 6.3616 4.0817 5.4516 4.0817 4.3316C4.0817 3.2116 3.1617 2.3016 2.0417 2.3016C0.9117 2.3016 0.0017 3.2116 0.0017 4.3316C0.0017 5.4516 0.9117 6.3616 2.0417 6.3616ZM2.0417 12.5616C3.1617 12.5616 4.0817 11.6516 4.0817 10.5316C4.0817 9.4116 3.1617 8.4916 2.0417 8.4916C0.9117 8.4916 0.0017 9.4116 0.0017 10.5316C0.0017 11.6516 0.9117 12.5616 2.0417 12.5616ZM7.9317 12.6116C7.9317 17.4216 11.1317 20.7316 15.7617 21.1716V23.5816H11.4617C10.8517 23.5816 10.3517 24.0716 10.3517 24.6816C10.3517 25.2816 10.8517 25.7716 11.4617 25.7716H22.2117C22.8117 25.7716 23.3217 25.2816 23.3217 24.6816C23.3217 24.0716 22.8117 23.5816 22.2117 23.5816H17.9017V21.1716C22.5217 20.7316 25.7317 17.4216 25.7317 12.6116V10.2916C25.7317 9.6816 25.2417 9.2016 24.6317 9.2016C24.0217 9.2016 23.5217 9.6816 23.5217 10.2916V12.5316C23.5217 16.5116 20.8217 19.1516 16.8317 19.1516C12.8317 19.1516 10.1417 16.5116 10.1417 12.5316V10.2916C10.1417 9.6816 9.6417 9.2016 9.0317 9.2016C8.4217 9.2016 7.9317 9.6816 7.9317 10.2916ZM2.0417 18.7816C3.1617 18.7816 4.0817 17.8716 4.0817 16.7416C4.0817 15.6216 3.1617 14.7116 2.0417 14.7116C0.9117 14.7116 0.0017 15.6216 0.0017 16.7416C0.0017 17.8716 0.9117 18.7816 2.0417 18.7816ZM2.0417 24.9816C3.1617 24.9816 4.0817 24.0716 4.0817 22.9416C4.0817 21.8216 3.1617 20.9016 2.0417 20.9016C0.9117 20.9016 0.0017 21.8216 0.0017 22.9416C0.0017 24.0716 0.9117 24.9816 2.0417 24.9816Z" />
        </svg>
    