
        <svg xmlns="http://www.w3.org/2000/svg" viewBox="0 0 100 100">
            <path d="M11.3523 22.7064C17.6023 22.7064 22.7123 17.6064 22.7123 11.3564C22.7123 5.1064 17.6023 -0.0036 11.3523 -0.0036C5.1123 -0.0036 0.0023 5.1064 0.0023 11.3564C0.0023 17.6064 5.1123 22.7064 11.3523 22.7064ZM11.3523 5.6464C11.0323 5.6464 10.7723 5.3764 10.7723 5.0464C10.7723 4.7264 11.0323 4.4664 11.3523 4.4664C11.6823 4.4664 11.9523 4.7264 11.9523 5.0464C11.9523 5.3764 11.6823 5.6464 11.3523 5.6464ZM14.5223 6.5064C14.1923 6.5064 13.9223 6.2364 13.9223 5.9064C13.9223 5.5764 14.1923 5.3064 14.5223 5.3064C14.8323 5.3064 15.1023 5.5764 15.1023 5.9064C15.1023 6.2364 14.8323 6.5064 14.5223 6.5064ZM8.2023 6.5064C7.8723 6.5064 7.6023 6.2364 7.6023 5.9064C7.6023 5.5764 7.8723 5.3064 8.2023 5.3064C8.5223 5.3064 8.7923 5.5764 8.7923 5.9064C8.7923 6.2364 8.5223 6.5064 8.2023 6.5064ZM11.3523 15.7164C8.9623 15.7164 7.0223 13.7664 7.0223 11.3664C7.0223 8.9764 8.9623 7.0264 11.3523 7.0264C13.7623 7.0264 15.7023 8.9764 15.7023 11.3664C15.7023 13.7664 13.7623 15.7164 11.3523 15.7164ZM16.8123 8.8264C16.4923 8.8264 16.2323 8.5564 16.2323 8.2264C16.2323 7.8964 16.4923 7.6264 16.8123 7.6264C17.1423 7.6264 17.4123 7.8964 17.4123 8.2264C17.4123 8.5564 17.1423 8.8264 16.8123 8.8264ZM5.8923 8.8264C5.5623 8.8264 5.2923 8.5564 5.2923 8.2264C5.2923 7.8964 5.5623 7.6264 5.8923 7.6264C6.2223 7.6264 6.4923 7.8964 6.4923 8.2264C6.4923 8.5564 6.2223 8.8264 5.8923 8.8264ZM17.6723 11.9564C17.3423 11.9564 17.0723 11.6864 17.0723 11.3564C17.0723 11.0264 17.3423 10.7564 17.6723 10.7564C18.0023 10.7564 18.2723 11.0264 18.2723 11.3564C18.2723 11.6864 18.0023 11.9564 17.6723 11.9564ZM5.0423 11.9564C4.7123 11.9564 4.4523 11.6864 4.4523 11.3564C4.4523 11.0264 4.7123 10.7564 5.0423 10.7564C5.3623 10.7564 5.6323 11.0264 5.6323 11.3564C5.6323 11.6864 5.3623 11.9564 5.0423 11.9564ZM16.8123 15.0664C16.4923 15.0664 16.2323 14.8164 16.2323 14.4864C16.2323 14.1564 16.4923 13.8864 16.8123 13.8864C17.1423 13.8864 17.4123 14.1564 17.4123 14.4864C17.4123 14.8164 17.1423 15.0664 16.8123 15.0664ZM5.8923 15.0664C5.5623 15.0664 5.2923 14.8164 5.2923 14.4864C5.2923 14.1564 5.5623 13.8864 5.8923 13.8864C6.2223 13.8864 6.4923 14.1564 6.4923 14.4864C6.4923 14.8164 6.2223 15.0664 5.8923 15.0664ZM14.5223 17.3864C14.1923 17.3864 13.9223 17.1164 13.9223 16.8064C13.9223 16.4764 14.1923 16.2064 14.5223 16.2064C14.8323 16.2064 15.1023 16.4764 15.1023 16.8064C15.1023 17.1164 14.8323 17.3864 14.5223 17.3864ZM8.2023 17.3864C7.8723 17.3864 7.6023 17.1164 7.6023 16.8064C7.6023 16.4764 7.8723 16.2064 8.2023 16.2064C8.5223 16.2064 8.7923 16.4764 8.7923 16.8064C8.7923 17.1164 8.5223 17.3864 8.2023 17.3864ZM11.3523 18.2464C11.0323 18.2464 10.7723 17.9764 10.7723 17.6464C10.7723 17.3364 11.0323 17.0664 11.3523 17.0664C11.6823 17.0664 11.9523 17.3364 11.9523 17.6464C11.9523 17.9764 11.6823 18.2464 11.3523 18.2464Z" />
        </svg>
    