
        <svg xmlns="http://www.w3.org/2000/svg" viewBox="0 0 100 100">
            <path d="M11.7523 23.5048C18.2323 23.5048 23.5123 18.2348 23.5123 11.7548C23.5123 5.2748 18.2323 0.0048 11.7523 0.0048C5.2723 0.0048 0.0023 5.2748 0.0023 11.7548C0.0023 18.2348 5.2723 23.5048 11.7523 23.5048ZM11.7523 14.0648C10.5723 14.0648 9.7623 13.1348 9.7623 11.9148V6.7248C9.7623 5.5048 10.5723 4.5948 11.7523 4.5948C12.9523 4.5948 13.7423 5.5048 13.7423 6.7248V11.9148C13.7423 13.1348 12.9523 14.0648 11.7523 14.0648ZM8.7923 18.9948C8.5123 18.9948 8.2523 18.7648 8.2523 18.4848C8.2523 18.1848 8.5123 17.9448 8.7923 17.9448H11.2223V16.4048C8.8523 16.1748 7.2323 14.3948 7.2323 12.0148V10.5948C7.2323 10.3148 7.4723 10.0648 7.7623 10.0648C8.0523 10.0648 8.2823 10.3148 8.2823 10.5948V12.0148C8.2823 14.0348 9.6523 15.4248 11.7523 15.4248C13.8523 15.4248 15.2323 14.0348 15.2323 12.0148V10.5948C15.2323 10.3148 15.4723 10.0648 15.7623 10.0648C16.0423 10.0648 16.2823 10.3148 16.2823 10.5948V12.0148C16.2823 14.3948 14.6723 16.1748 12.2923 16.4048V17.9448H14.7223C15.0123 17.9448 15.2623 18.1848 15.2623 18.4848C15.2623 18.7648 15.0023 18.9948 14.7223 18.9948Z" />
        </svg>
    