
        <svg xmlns="http://www.w3.org/2000/svg" viewBox="0 0 100 100">
            <path d="M12.1023 24.2064C18.7823 24.2064 24.2123 18.7864 24.2123 12.1064C24.2123 5.4264 18.7823 -0.0036 12.1023 -0.0036C5.4223 -0.0036 0.0023 5.4264 0.0023 12.1064C0.0023 18.7864 5.4223 24.2064 12.1023 24.2064ZM12.1323 6.9864C11.6123 6.9864 11.2223 6.5964 11.2223 6.0664C11.2223 5.5564 11.6123 5.1664 12.1323 5.1664C12.6423 5.1664 13.0323 5.5564 13.0323 6.0664C13.0323 6.5964 12.6423 6.9864 12.1323 6.9864ZM15.1523 7.7764C14.6223 7.7764 14.2423 7.3964 14.2423 6.8764C14.2423 6.3564 14.6223 5.9664 15.1523 5.9664C15.6723 5.9664 16.0523 6.3564 16.0523 6.8764C16.0523 7.3964 15.6723 7.7764 15.1523 7.7764ZM9.1023 7.7764C8.5923 7.7764 8.2023 7.3964 8.2023 6.8764C8.2023 6.3564 8.5923 5.9664 9.1023 5.9664C9.6323 5.9664 10.0223 6.3564 10.0223 6.8764C10.0223 7.3964 9.6323 7.7764 9.1023 7.7764ZM12.1123 16.1364C9.8923 16.1364 8.0823 14.3364 8.0823 12.1064C8.0823 9.8864 9.8923 8.0764 12.1123 8.0764C14.3323 8.0764 16.1523 9.8864 16.1523 12.1064C16.1523 14.3364 14.3323 16.1364 12.1123 16.1364ZM17.3523 9.9964C16.8323 9.9964 16.4523 9.6064 16.4523 9.0864C16.4523 8.5664 16.8323 8.1764 17.3523 8.1764C17.8723 8.1764 18.2623 8.5664 18.2623 9.0864C18.2623 9.6064 17.8723 9.9964 17.3523 9.9964ZM6.8923 9.9964C6.3723 9.9964 5.9923 9.6064 5.9923 9.0864C5.9923 8.5664 6.3723 8.1764 6.8923 8.1764C7.4223 8.1764 7.8023 8.5664 7.8023 9.0864C7.8023 9.6064 7.4223 9.9964 6.8923 9.9964ZM18.1623 13.0064C17.6323 13.0064 17.2523 12.6164 17.2523 12.1064C17.2523 11.5864 17.6323 11.2064 18.1623 11.2064C18.6823 11.2064 19.0623 11.5864 19.0623 12.1064C19.0623 12.6164 18.6823 13.0064 18.1623 13.0064ZM6.0923 13.0064C5.5823 13.0064 5.1923 12.6164 5.1923 12.1064C5.1923 11.5864 5.5823 11.2064 6.0923 11.2064C6.6223 11.2064 7.0123 11.5864 7.0123 12.1064C7.0123 12.6164 6.6223 13.0064 6.0923 13.0064ZM17.3523 16.0164C16.8323 16.0164 16.4523 15.6364 16.4523 15.1164C16.4523 14.5864 16.8323 14.2064 17.3523 14.2064C17.8723 14.2064 18.2623 14.5864 18.2623 15.1164C18.2623 15.6364 17.8723 16.0164 17.3523 16.0164ZM6.8923 16.0164C6.3723 16.0164 5.9923 15.6364 5.9923 15.1164C5.9923 14.5864 6.3723 14.2064 6.8923 14.2064C7.4223 14.2064 7.8023 14.5864 7.8023 15.1164C7.8023 15.6364 7.4223 16.0164 6.8923 16.0164ZM15.1523 18.2364C14.6223 18.2364 14.2423 17.8464 14.2423 17.3364C14.2423 16.8064 14.6223 16.4164 15.1523 16.4164C15.6723 16.4164 16.0523 16.8064 16.0523 17.3364C16.0523 17.8464 15.6723 18.2364 15.1523 18.2364ZM9.1023 18.2364C8.5923 18.2364 8.2023 17.8464 8.2023 17.3364C8.2023 16.8064 8.5923 16.4164 9.1023 16.4164C9.6323 16.4164 10.0223 16.8064 10.0223 17.3364C10.0223 17.8464 9.6323 18.2364 9.1023 18.2364ZM12.1323 19.0464C11.6123 19.0464 11.2223 18.6564 11.2223 18.1364C11.2223 17.6164 11.6123 17.2264 12.1323 17.2264C12.6423 17.2264 13.0323 17.6164 13.0323 18.1364C13.0323 18.6564 12.6423 19.0464 12.1323 19.0464Z" />
        </svg>
    