
        <svg xmlns="http://www.w3.org/2000/svg" viewBox="0 0 100 100">
            <path d="M11.3523 22.7064C17.6323 22.7064 22.7123 17.6264 22.7123 11.3564C22.7123 5.0764 17.6323 -0.0036 11.3523 -0.0036C5.0823 -0.0036 0.0023 5.0764 0.0023 11.3564C0.0023 17.6264 5.0823 22.7064 11.3523 22.7064ZM11.3523 22.1364C5.3923 22.1364 0.5723 17.3164 0.5723 11.3564C0.5723 5.3864 5.3923 0.5764 11.3523 0.5764C17.3223 0.5764 22.1323 5.3864 22.1323 11.3564C22.1323 17.3164 17.3223 22.1364 11.3523 22.1364ZM11.3523 5.6464C11.6823 5.6464 11.9523 5.3764 11.9523 5.0464C11.9523 4.7264 11.6823 4.4564 11.3523 4.4564C11.0323 4.4564 10.7623 4.7264 10.7623 5.0464C10.7623 5.3764 11.0323 5.6464 11.3523 5.6464ZM14.5223 6.4964C14.8523 6.4964 15.1023 6.2364 15.1023 5.9064C15.1023 5.5764 14.8523 5.3064 14.5223 5.3064C14.1923 5.3064 13.9223 5.5764 13.9223 5.9064C13.9223 6.2364 14.1923 6.4964 14.5223 6.4964ZM8.2023 6.4964C8.5223 6.4964 8.7923 6.2364 8.7923 5.9064C8.7923 5.5764 8.5223 5.3064 8.2023 5.3064C7.8723 5.3064 7.6023 5.5764 7.6023 5.9064C7.6023 6.2364 7.8723 6.4964 8.2023 6.4964ZM11.3523 15.7164C13.7623 15.7164 15.7023 13.7664 15.7023 11.3664C15.7023 8.9764 13.7623 7.0264 11.3523 7.0264C8.9623 7.0264 7.0223 8.9764 7.0223 11.3664C7.0223 13.7664 8.9623 15.7164 11.3523 15.7164ZM16.8323 8.8264C17.1423 8.8264 17.4123 8.5564 17.4123 8.2264C17.4123 7.8964 17.1423 7.6264 16.8323 7.6264C16.5023 7.6264 16.2323 7.8964 16.2323 8.2264C16.2323 8.5564 16.5023 8.8264 16.8323 8.8264ZM5.8923 8.8264C6.2223 8.8264 6.4823 8.5564 6.4823 8.2264C6.4823 7.8964 6.2223 7.6264 5.8923 7.6264C5.5623 7.6264 5.2923 7.8964 5.2923 8.2264C5.2923 8.5564 5.5623 8.8264 5.8923 8.8264ZM17.6723 11.9564C18.0023 11.9564 18.2723 11.6864 18.2723 11.3564C18.2723 11.0264 18.0023 10.7564 17.6723 10.7564C17.3523 10.7564 17.0823 11.0264 17.0823 11.3564C17.0823 11.6864 17.3523 11.9564 17.6723 11.9564ZM5.0423 11.9564C5.3623 11.9564 5.6323 11.6864 5.6323 11.3564C5.6323 11.0264 5.3623 10.7564 5.0423 10.7564C4.7123 10.7564 4.4423 11.0264 4.4423 11.3564C4.4423 11.6864 4.7123 11.9564 5.0423 11.9564ZM16.8323 15.0864C17.1423 15.0864 17.4123 14.8164 17.4123 14.4864C17.4123 14.1564 17.1423 13.8864 16.8323 13.8864C16.5023 13.8864 16.2323 14.1564 16.2323 14.4864C16.2323 14.8164 16.5023 15.0864 16.8323 15.0864ZM5.8923 15.0864C6.2223 15.0864 6.4823 14.8164 6.4823 14.4864C6.4823 14.1564 6.2223 13.8864 5.8923 13.8864C5.5623 13.8864 5.2923 14.1564 5.2923 14.4864C5.2923 14.8164 5.5623 15.0864 5.8923 15.0864ZM14.5223 17.4064C14.8523 17.4064 15.1023 17.1364 15.1023 16.8064C15.1023 16.4764 14.8523 16.2064 14.5223 16.2064C14.1923 16.2064 13.9223 16.4764 13.9223 16.8064C13.9223 17.1364 14.1923 17.4064 14.5223 17.4064ZM8.2023 17.4064C8.5223 17.4064 8.7923 17.1364 8.7923 16.8064C8.7923 16.4764 8.5223 16.2064 8.2023 16.2064C7.8723 16.2064 7.6023 16.4764 7.6023 16.8064C7.6023 17.1364 7.8723 17.4064 8.2023 17.4064ZM11.3523 18.2464C11.6823 18.2464 11.9523 17.9864 11.9523 17.6564C11.9523 17.3364 11.6823 17.0664 11.3523 17.0664C11.0323 17.0664 10.7623 17.3364 10.7623 17.6564C10.7623 17.9864 11.0323 18.2464 11.3523 18.2464Z" />
        </svg>
    