
        <svg xmlns="http://www.w3.org/2000/svg" viewBox="0 0 100 100">
            <path d="M13.3723 4.4906C15.4723 4.4906 17.3823 5.2106 18.9023 6.4306C19.1523 6.6306 19.4623 6.6006 19.6923 6.3706L22.0123 4.0706C22.2823 3.8006 22.2823 3.4106 21.9923 3.1606C19.6623 1.1906 16.6423 0.0006 13.3723 0.0006C10.1023 0.0006 7.0823 1.1906 4.7423 3.1606C4.4623 3.4106 4.4623 3.8006 4.7323 4.0706L7.0623 6.3706C7.2923 6.6006 7.6123 6.6206 7.8723 6.4106C9.3723 5.2106 11.2923 4.4906 13.3723 4.4906ZM26.7423 13.3706C26.7423 10.0906 25.5723 7.0806 23.5823 4.7506C23.3423 4.4606 22.9323 4.4906 22.6723 4.7306L20.3623 7.0406C20.1423 7.2806 20.1323 7.6006 20.3223 7.8506C21.5423 9.3606 22.2523 11.2806 22.2523 13.3706C22.2523 15.4706 21.5323 17.4006 20.3323 18.9006C20.1223 19.1606 20.1323 19.4806 20.3523 19.7106L22.6623 22.0506C22.9223 22.3206 23.3223 22.3106 23.5623 22.0306C25.5423 19.7006 26.7423 16.6606 26.7423 13.3706ZM0.0023 13.3706C0.0023 16.6606 1.1923 19.7006 3.1923 22.0306C3.4223 22.3106 3.8323 22.3206 4.0823 22.0506L6.3823 19.7106C6.6223 19.4806 6.6323 19.1606 6.4223 18.9006C5.2223 17.4006 4.4923 15.4706 4.4923 13.3706C4.4923 11.2806 5.2123 9.3606 6.4223 7.8506C6.6223 7.6006 6.6023 7.2806 6.3723 7.0406L4.0623 4.7306C3.8123 4.4906 3.4123 4.4606 3.1623 4.7506C1.1823 7.0806 0.0023 10.0906 0.0023 13.3706ZM9.7623 16.9906C9.9223 16.9906 10.0523 16.8506 10.0523 16.6806V12.6906C10.0523 11.5906 10.5723 10.5106 11.6623 10.5106C12.6123 10.5106 13.0823 11.2806 13.0823 12.2506L10.3723 19.4306C10.3523 19.4506 10.3323 19.5106 10.3323 19.5706C10.3323 19.6906 10.4323 19.7806 10.5623 19.7806C10.6923 19.7806 10.7323 19.7206 10.7823 19.5906L13.0823 13.5006V16.6806C13.0823 16.8506 13.2223 16.9906 13.3923 16.9906C13.5723 16.9906 13.6923 16.8506 13.6923 16.6806V12.4906C13.6923 11.4306 14.2023 10.5106 15.2723 10.5106C16.2623 10.5106 16.7123 11.3106 16.7123 12.2906V16.6806C16.7123 16.8506 16.8323 16.9906 17.0023 16.9906C17.1823 16.9906 17.2923 16.8506 17.2923 16.6806V12.1406C17.2923 10.8706 16.6423 10.0006 15.4223 10.0006C14.9323 10.0006 14.5623 10.1406 14.2823 10.3406L15.3523 7.5006C15.3623 7.4506 15.3823 7.4106 15.3823 7.3506C15.3823 7.2206 15.3023 7.1506 15.1623 7.1506C15.0623 7.1506 14.9923 7.2206 14.9423 7.3406L13.4523 11.2606C13.2423 10.4806 12.6823 10.0006 11.7923 10.0006C10.8423 10.0006 10.3323 10.5706 10.0923 11.4806H10.0223V10.3406C10.0223 10.1606 9.9023 10.0306 9.7423 10.0306C9.5823 10.0306 9.4523 10.1606 9.4523 10.3406V16.6806C9.4523 16.8506 9.5823 16.9906 9.7623 16.9906Z" />
        </svg>
    