
        <svg xmlns="http://www.w3.org/2000/svg" viewBox="0 0 100 100">
            <path d="M27.7423 13.8218C27.7423 6.5518 22.1523 0.5918 15.0423 0.0018C14.6723 -0.0282 14.3923 0.2418 14.3923 0.6118V4.2618C14.3923 4.5718 14.6123 4.8218 14.9423 4.8518C19.4023 5.3818 22.8823 9.1918 22.8823 13.8218C22.8823 15.9218 22.1623 17.8518 20.8923 19.4418C20.7223 19.6718 20.7323 19.9318 20.9323 20.1518L23.5623 22.7718C23.8323 23.0418 24.2323 23.0418 24.4723 22.7618C26.5123 20.3318 27.7423 17.2218 27.7423 13.8218ZM0.0023 13.8218C0.0023 17.2218 1.2323 20.3518 3.2823 22.7718C3.5123 23.0418 3.8923 23.0418 4.1623 22.7718L6.8123 20.1518C7.0123 19.9318 7.0123 19.6718 6.8323 19.4418C5.5623 17.8518 4.8523 15.9218 4.8523 13.8218C4.8523 9.1918 8.3323 5.3818 12.7923 4.8518C13.1123 4.8218 13.3323 4.5718 13.3323 4.2618V0.6118C13.3323 0.2418 13.0523 -0.0282 12.6823 0.0018C5.5923 0.5918 0.0023 6.5518 0.0023 13.8218ZM10.1923 17.6618C10.5223 17.6618 10.7023 17.4418 10.7023 17.1518V12.9718C10.7023 12.0218 11.1523 11.0918 12.1323 11.0918C12.9923 11.0918 13.3723 11.7618 13.3723 12.6118V12.9518L10.4023 20.0618C10.3723 20.1218 10.3623 20.1818 10.3623 20.2618C10.3623 20.4418 10.5023 20.5718 10.6923 20.5718C10.8623 20.5718 10.9423 20.4918 11.0123 20.3018L13.3723 14.6618V17.1518C13.3723 17.4518 13.5823 17.6618 13.8723 17.6618C14.1823 17.6618 14.3823 17.4518 14.3823 17.1518V12.8618C14.3823 11.9318 14.8323 11.0918 15.7823 11.0918C16.7023 11.0918 17.0523 11.7918 17.0523 12.7018V17.1518C17.0523 17.4518 17.2623 17.6618 17.5623 17.6618C17.8723 17.6618 18.0723 17.4518 18.0723 17.1518V12.4518C18.0723 11.1618 17.4223 10.1618 16.0823 10.1618C15.7423 10.1618 15.4323 10.2318 15.1723 10.3618L16.2323 7.8418C16.2523 7.7718 16.2823 7.7018 16.2823 7.6318C16.2823 7.4418 16.1523 7.3318 15.9523 7.3318C15.7823 7.3318 15.6823 7.4318 15.6223 7.5918L14.0623 11.3218C13.8023 10.5818 13.2523 10.1618 12.4023 10.1618C11.4823 10.1618 10.9223 10.7418 10.7123 11.6018H10.6523V10.7018C10.6523 10.3818 10.4623 10.1818 10.1723 10.1818C9.8823 10.1818 9.6823 10.3818 9.6823 10.7018V17.1518C9.6823 17.4418 9.8623 17.6618 10.1923 17.6618Z" />
        </svg>
    