
        <svg xmlns="http://www.w3.org/2000/svg" viewBox="0 0 100 100">
            <path d="M1.0817 22.0472H23.1917V21.5672C23.1917 21.3772 23.0617 21.2472 22.8517 21.2472H22.1117V7.0172H23.2417C23.5417 7.0172 23.6917 6.8172 23.6917 6.5872C23.6917 6.4472 23.6117 6.2772 23.4217 6.1672L13.3217 0.3372C12.9417 0.1172 12.5317 -0.0028 12.1317 -0.0028C11.7317 -0.0028 11.3217 0.1172 10.9417 0.3372L0.8417 6.1672C0.6417 6.2772 0.5617 6.4472 0.5617 6.5872C0.5617 6.8172 0.7117 7.0172 1.0317 7.0172H2.1517V21.2472H1.4017C1.2117 21.2472 1.0817 21.3772 1.0817 21.5672ZM3.0017 21.2472V5.9372L11.4417 1.1472C11.6517 1.0172 11.8817 0.9472 12.1317 0.9472C12.3717 0.9472 12.6117 1.0172 12.8317 1.1472L21.2617 5.9372V21.2472ZM9.2017 18.5172C9.3517 18.5172 9.4117 18.4472 9.4617 18.2972L11.7817 12.3772V15.3072C11.7817 15.5272 11.9417 15.6772 12.1517 15.6772C12.3717 15.6772 12.5117 15.5272 12.5117 15.3072V11.0872C12.5117 10.0672 13.0217 9.1772 14.0517 9.1772C15.0117 9.1772 15.4317 9.9372 15.4317 10.8972V15.3072C15.4317 15.5272 15.5717 15.6772 15.8017 15.6772C16.0217 15.6772 16.1617 15.5272 16.1617 15.3072V10.7072C16.1617 9.4472 15.5017 8.5172 14.2417 8.5172C13.8017 8.5172 13.4517 8.6372 13.1817 8.7972L14.2517 6.0772C14.2717 6.0272 14.2817 5.9772 14.2817 5.9172C14.2817 5.7672 14.1917 5.6672 14.0317 5.6672C13.9017 5.6672 13.8117 5.7572 13.7717 5.8972L12.2617 9.7472C12.0317 8.9772 11.4717 8.5172 10.5917 8.5172C9.6517 8.5172 9.1317 9.0972 8.9017 9.9872H8.8317V8.9272C8.8317 8.7072 8.6917 8.5572 8.4817 8.5572C8.2817 8.5572 8.1317 8.7072 8.1317 8.9272V15.3072C8.1317 15.5172 8.2717 15.6772 8.5117 15.6772C8.7317 15.6772 8.8717 15.5172 8.8717 15.3072V11.2472C8.8717 10.2072 9.3717 9.1772 10.4217 9.1772C11.3417 9.1772 11.7817 9.9172 11.7817 10.8372V10.9572L8.9717 18.1072C8.9517 18.1572 8.9417 18.2072 8.9417 18.2672C8.9417 18.4072 9.0517 18.5172 9.2017 18.5172ZM0.4317 23.8172H23.8217C24.0717 23.8172 24.2617 23.6172 24.2617 23.3672C24.2617 23.1372 24.0717 22.9372 23.8217 22.9372H0.4317C0.2017 22.9372 0.0017 23.1372 0.0017 23.3672C0.0017 23.6172 0.2017 23.8172 0.4317 23.8172Z" />
        </svg>
    