
        <svg xmlns="http://www.w3.org/2000/svg" viewBox="0 0 100 100">
            <path d="M3.1617 20.742H17.5917C19.6617 20.742 20.7417 19.642 20.7417 17.592V3.152C20.7417 1.102 19.6617 0.002 17.5917 0.002H3.1617C1.0917 0.002 0.0017 1.082 0.0017 3.152V17.592C0.0017 19.662 1.0917 20.742 3.1617 20.742ZM3.1917 19.872C1.6617 19.872 0.8717 19.082 0.8717 17.552V3.202C0.8717 1.662 1.6617 0.872 3.1917 0.872H17.5517C19.0317 0.872 19.8717 1.662 19.8717 3.202V17.552C19.8717 19.082 19.0317 19.872 17.5517 19.872ZM7.4417 16.742C7.5917 16.742 7.6417 16.672 7.7017 16.522L10.0217 10.602V13.532C10.0217 13.762 10.1817 13.912 10.3917 13.912C10.6217 13.912 10.7617 13.762 10.7617 13.532V9.312C10.7617 8.292 11.2617 7.402 12.2917 7.402C13.2517 7.402 13.6717 8.172 13.6717 9.132V13.532C13.6717 13.762 13.8117 13.912 14.0417 13.912C14.2617 13.912 14.4017 13.762 14.4017 13.532V8.942C14.4017 7.672 13.7417 6.752 12.4817 6.752C12.0517 6.752 11.6917 6.872 11.4217 7.032L12.4917 4.312C12.5117 4.252 12.5317 4.202 12.5317 4.132C12.5317 3.992 12.4317 3.902 12.2717 3.902C12.1417 3.902 12.0617 3.982 12.0117 4.122L10.5017 7.982C10.2817 7.202 9.7117 6.752 8.8317 6.752C7.9017 6.752 7.3717 7.322 7.1517 8.212H7.0817V7.162C7.0817 6.942 6.9417 6.782 6.7217 6.782C6.5117 6.782 6.3717 6.942 6.3717 7.162V13.532C6.3717 13.742 6.5117 13.912 6.7517 13.912C6.9717 13.912 7.1117 13.742 7.1117 13.532V9.482C7.1117 8.442 7.6217 7.402 8.6617 7.402C9.5817 7.402 10.0217 8.142 10.0217 9.072V9.192L7.2217 16.332C7.1917 16.382 7.1817 16.442 7.1817 16.502C7.1817 16.642 7.2917 16.742 7.4417 16.742Z" />
        </svg>
    