
        <svg xmlns="http://www.w3.org/2000/svg" viewBox="0 0 100 100">
            <path d="M1.6017 29.3211H28.4417C29.3017 29.3211 30.0617 28.6211 30.0617 27.7111C30.0617 26.8511 29.3017 26.1111 28.4417 26.1111H27.8517V24.9511C27.8517 24.2311 27.4117 23.8111 26.7217 23.8111H26.3517V9.9111H27.2717C28.3217 9.9111 28.9617 9.1011 28.9617 8.3211C28.9617 7.7411 28.6317 7.2111 27.9617 6.8111L17.0617 0.5311C16.5017 0.2011 15.8317 0.0011 15.2117 0.0011C14.5917 0.0011 13.9217 0.2011 13.3617 0.5311L2.4617 6.8111C1.7917 7.2111 1.4617 7.7411 1.4617 8.3211C1.4617 9.1011 2.1017 9.9111 3.1617 9.9111H4.0617V23.8111H3.7017C3.0117 23.8111 2.5617 24.2311 2.5617 24.9511V26.1111H1.6017C0.7417 26.1111 0.0017 26.8511 0.0017 27.7111C0.0017 28.6011 0.7417 29.3211 1.6017 29.3211ZM11.3217 20.6211C10.6617 20.6211 10.1717 20.0811 10.1717 19.4311V13.2911C10.1717 12.6111 10.6217 12.1211 11.2817 12.1211C11.9217 12.1211 12.4017 12.5611 12.4017 13.2911V13.7311H12.4917C12.6717 12.9211 13.3217 12.1211 14.3017 12.1211C15.2117 12.1211 15.7817 12.6211 16.0417 13.5111L17.8117 9.6911C17.8717 9.5811 17.9417 9.5011 18.1017 9.5011C18.2417 9.5011 18.4117 9.5811 18.4117 9.8011C18.4117 9.8411 18.4117 9.8911 18.3717 9.9611L17.3017 12.2811C17.5517 12.1711 17.8117 12.1211 18.1217 12.1211C19.5617 12.1211 20.2717 13.4611 20.2717 14.8911V19.4311C20.2717 20.1011 19.7917 20.6211 19.1217 20.6211C18.4617 20.6211 17.9717 20.1011 17.9717 19.4311V15.6311C17.9717 14.9511 17.8017 14.4211 17.1417 14.4211C16.4517 14.4211 16.3017 15.0811 16.3017 15.6411V19.4311C16.3017 20.0711 15.8717 20.6211 15.2417 20.6211C14.6117 20.6211 14.2017 20.0711 14.2017 19.4311V18.9511L12.4817 22.6311C12.4317 22.7611 12.3317 22.8211 12.2017 22.8211C12.0617 22.8211 11.9017 22.7311 11.9017 22.5211C11.9017 22.4811 11.9217 22.3911 11.9417 22.3611L14.2017 17.4811V15.6211C14.2017 14.8911 13.9017 14.4211 13.3217 14.4211C12.7217 14.4211 12.4617 15.0511 12.4617 15.6411V19.4311C12.4617 20.1211 12.0117 20.6211 11.3217 20.6211Z" />
        </svg>
    