
        <svg xmlns="http://www.w3.org/2000/svg" viewBox="0 0 100 100">
            <path d="M3.4617 21.2264H17.7617C20.0517 21.2264 21.2217 20.0464 21.2217 17.7964V3.4264C21.2217 1.1764 20.0517 -0.0036 17.7617 -0.0036H3.4617C1.1717 -0.0036 0.0017 1.1564 0.0017 3.4264V17.7964C0.0017 20.0664 1.1717 21.2264 3.4617 21.2264ZM3.4817 19.7664C2.1717 19.7664 1.4517 19.0764 1.4517 17.7164V3.5064C1.4517 2.1464 2.1717 1.4564 3.4817 1.4564H17.7317C19.0317 1.4564 19.7717 2.1464 19.7717 3.5064V17.7164C19.7717 19.0764 19.0317 19.7664 17.7317 19.7664ZM7.4417 17.2064C7.6217 17.2064 7.7017 17.1164 7.7717 16.9464L10.1417 11.2964V13.7764C10.1417 14.0864 10.3517 14.3064 10.6317 14.3064C10.9317 14.3064 11.1417 14.0864 11.1417 13.7764V9.4964C11.1417 8.5664 11.5917 7.7264 12.5517 7.7264C13.4517 7.7264 13.8117 8.4264 13.8117 9.3364V13.7764C13.8117 14.0864 14.0117 14.3064 14.3217 14.3064C14.6217 14.3064 14.8217 14.0864 14.8217 13.7764V9.0864C14.8217 7.8064 14.1917 6.8064 12.8317 6.8064C12.4917 6.8064 12.1917 6.8764 11.9317 6.9964L12.9817 4.4764C13.0217 4.4064 13.0317 4.3364 13.0317 4.2764C13.0317 4.0764 12.9017 3.9564 12.7017 3.9564C12.5417 3.9564 12.4417 4.0764 12.3717 4.2264L10.8117 7.9564C10.5717 7.2164 10.0117 6.8064 9.1517 6.8064C8.2417 6.8064 7.6717 7.3864 7.4617 8.2364H7.4217V7.3364C7.4217 7.0264 7.2217 6.8164 6.9217 6.8164C6.6317 6.8164 6.4417 7.0264 6.4417 7.3364V13.7764C6.4417 14.0764 6.6217 14.3064 6.9517 14.3064C7.2817 14.3064 7.4517 14.0764 7.4517 13.7764V9.6164C7.4517 8.6564 7.9117 7.7264 8.8817 7.7264C9.7517 7.7264 10.1417 8.4064 10.1417 9.2564V9.5964L7.1617 16.6964C7.1417 16.7564 7.1117 16.8264 7.1117 16.8964C7.1117 17.0864 7.2517 17.2064 7.4417 17.2064Z" />
        </svg>
    