
        <svg xmlns="http://www.w3.org/2000/svg" viewBox="0 0 100 100">
            <path d="M0.0047 9.3556C0.0047 14.5056 4.1947 18.7056 9.3547 18.7056C11.3947 18.7056 13.2547 18.0456 14.7847 16.9456L20.5547 22.7256C20.8247 22.9956 21.1747 23.1256 21.5547 23.1256C22.3447 23.1256 22.8947 22.5256 22.8947 21.7356C22.8947 21.3656 22.7547 21.0256 22.5147 20.7756L16.7847 15.0156C17.9847 13.4456 18.7047 11.4856 18.7047 9.3556C18.7047 4.1956 14.5047 -0.0044 9.3547 -0.0044C4.1947 -0.0044 0.0047 4.1956 0.0047 9.3556ZM2.0047 9.3556C2.0047 5.2956 5.2947 2.0056 9.3547 2.0056C13.4047 2.0056 16.6947 5.2956 16.6947 9.3556C16.6947 13.4056 13.4047 16.6956 9.3547 16.6956C5.2947 16.6956 2.0047 13.4056 2.0047 9.3556ZM6.3447 10.2056H12.3647C12.8347 10.2056 13.2147 9.8156 13.2147 9.3556C13.2147 8.8856 12.8347 8.4856 12.3647 8.4856H6.3447C5.8747 8.4856 5.4747 8.8856 5.4747 9.3556C5.4747 9.8156 5.8747 10.2056 6.3447 10.2056Z" />
        </svg>
    