
        <svg xmlns="http://www.w3.org/2000/svg" viewBox="0 0 100 100">
            <path d="M0.0017 21.7456C0.0017 24.5556 1.5817 26.1356 4.3717 26.1356H16.9817C19.7617 26.1356 21.3417 24.5556 21.3417 21.7456V4.3756C21.3417 1.5856 19.7617 -0.0044 16.9817 -0.0044H4.3717C1.5817 -0.0044 0.0017 1.5856 0.0017 4.3756ZM3.6217 21.2656V4.8656C3.6217 4.0456 3.9917 3.6256 4.8717 3.6256H16.4617C17.3417 3.6256 17.7217 4.0456 17.7217 4.8656V21.2656C17.7217 22.0856 17.3417 22.5156 16.4617 22.5156H4.8717C3.9917 22.5156 3.6217 22.0856 3.6217 21.2656ZM6.7117 14.5456H14.6517C15.4917 14.5456 16.1117 13.9356 16.1117 13.0756C16.1117 12.2256 15.5017 11.6156 14.6517 11.6156H6.7117C5.8617 11.6156 5.2417 12.2256 5.2417 13.0756C5.2417 13.9356 5.8717 14.5456 6.7117 14.5456Z" />
        </svg>
    