
        <svg xmlns="http://www.w3.org/2000/svg" viewBox="0 0 100 100">
            <path d="M5.3017 22.2755C6.0017 22.2755 6.4117 22.0155 6.9117 21.2855L13.3917 11.5555L19.4017 2.6455C19.6517 2.2655 19.8017 1.9055 19.8017 1.5155C19.8017 0.6355 19.1117 -0.0045 18.2117 -0.0045C17.3817 -0.0045 16.9717 0.3055 16.4717 1.0555L10.2317 10.4255L4.0117 19.6455C3.7717 19.9955 3.6217 20.3055 3.6217 20.8155C3.6217 21.7255 4.4417 22.2755 5.3017 22.2755ZM1.5217 7.4955H7.9717C8.8117 7.4955 9.4917 6.8155 9.4917 5.9755C9.4917 5.1455 8.8117 4.4655 7.9717 4.4655H1.5217C0.6817 4.4655 0.0017 5.1455 0.0017 5.9755C0.0017 6.8155 0.6817 7.4955 1.5217 7.4955ZM13.9917 17.0055C13.9917 17.8455 14.6717 18.5255 15.5117 18.5255H17.2117V20.2355C17.2117 21.0855 17.8917 21.7655 18.7417 21.7655C19.5717 21.7655 20.2517 21.0855 20.2517 20.2355V18.5255H21.9717C22.8017 18.5255 23.4817 17.8455 23.4817 17.0055C23.4817 16.1555 22.8017 15.4755 21.9717 15.4755H20.2517V13.7855C20.2517 12.9455 19.5717 12.2455 18.7417 12.2655C17.8917 12.2655 17.2117 12.9455 17.2117 13.7855V15.4755H15.5117C14.6717 15.4755 13.9917 16.1555 13.9917 17.0055Z" />
        </svg>
    