
        <svg xmlns="http://www.w3.org/2000/svg" viewBox="0 0 100 100">
            <path d="M1.4309 16.7239L10.8609 26.1539C12.7609 28.0439 14.8109 28.0539 16.7009 26.1639L26.1709 16.7039C28.0609 14.8239 28.0409 12.7639 26.1609 10.8639L16.7209 1.4339C14.8209 -0.4661 12.7609 -0.4761 10.8809 1.4139L1.4109 10.8739C-0.4791 12.7639 -0.4691 14.8239 1.4309 16.7239ZM3.8109 14.8139C3.1309 14.1339 3.0909 13.4739 3.8109 12.7639L12.7609 3.8239C13.4809 3.1039 14.1309 3.1239 14.8109 3.8039L23.7709 12.7739C24.4509 13.4439 24.4809 14.1139 23.7709 14.8239L14.8109 23.7639C14.1109 24.4839 13.4409 24.4539 12.7609 23.7739ZM9.6109 15.1139H17.9909C18.7609 15.1139 19.3209 14.5939 19.3209 13.8139C19.3209 13.0439 18.7709 12.5139 17.9909 12.5139H9.6109C8.8209 12.5139 8.2609 13.0439 8.2609 13.8139C8.2609 14.5939 8.8409 15.1139 9.6109 15.1139Z" />
        </svg>
    