
        <svg xmlns="http://www.w3.org/2000/svg" viewBox="0 0 100 100">
            <path d="M4.3817 22.855H23.7617C26.5617 22.855 28.1517 21.265 28.1517 18.485V4.375C28.1517 1.585 26.5617 -0.005 23.7617 -0.005H4.3817C1.5917 -0.005 0.0017 1.585 0.0017 4.375V18.485C0.0017 21.265 1.5917 22.855 4.3817 22.855ZM4.8717 19.235C4.0417 19.235 3.6217 18.855 3.6217 17.965V4.885C3.6217 3.995 4.0417 3.635 4.8717 3.635H23.2817C24.1017 3.635 24.5317 3.995 24.5317 4.885V17.965C24.5317 18.855 24.1017 19.235 23.2817 19.235ZM10.1117 12.915H18.0617C18.9017 12.915 19.5217 12.305 19.5217 11.445C19.5217 10.595 18.9017 9.985 18.0617 9.985H10.1117C9.2717 9.985 8.6517 10.595 8.6517 11.445C8.6517 12.305 9.2717 12.915 10.1117 12.915Z" />
        </svg>
    