
        <svg xmlns="http://www.w3.org/2000/svg" viewBox="0 0 100 100">
            <path d="M1.2279 15.4883L10.6179 24.8683C12.2379 26.4983 13.8779 26.4983 15.4779 24.8983L24.8879 15.4683C26.4879 13.8683 26.4979 12.2283 24.8779 10.6083L15.4979 1.2183C13.8779 -0.4017 12.2479 -0.4017 10.6279 1.2083L1.2079 10.6183C-0.4121 12.2383 -0.4021 13.8683 1.2279 15.4883ZM8.0379 13.8483C7.5379 13.8483 7.1679 13.5483 7.1679 13.0683C7.1679 12.5783 7.5079 12.2883 8.0379 12.2883H18.0679C18.5979 12.2883 18.9279 12.5783 18.9279 13.0683C18.9279 13.5483 18.5679 13.8483 18.0679 13.8483Z" />
        </svg>
    