
        <svg xmlns="http://www.w3.org/2000/svg" viewBox="0 0 100 100">
            <path d="M3.8417 19.6366H20.9217C23.4417 19.6366 24.7617 18.3366 24.7617 15.8466V6.4666C24.7617 3.9766 23.4417 2.6566 20.9217 2.6566H19.9817V1.4166C19.9817 0.5166 19.4617 -0.0034 18.5717 -0.0034H15.6517C14.7517 -0.0034 14.2417 0.5166 14.2417 1.4166V2.6566H10.5517V1.4166C10.5517 0.5166 10.0317 -0.0034 9.1317 -0.0034H6.2017C5.3217 -0.0034 4.8017 0.5166 4.8017 1.4166V2.6566H3.8417C1.3117 2.6566 0.0017 3.9566 0.0017 6.4666V15.8466C0.0017 18.3466 1.3117 19.6366 3.8417 19.6366ZM17.3017 14.3666C16.8017 14.3666 16.4317 13.9966 16.4317 13.4966V11.9966H14.9017C14.4417 11.9966 14.0517 11.6166 14.0517 11.1366C14.0517 10.6666 14.4417 10.2666 14.9017 10.2666H16.4317V8.7566C16.4317 8.2766 16.8017 7.8866 17.3017 7.8866C17.7817 7.8866 18.1617 8.2766 18.1617 8.7566V10.2666H19.6717C20.1417 10.2666 20.5317 10.6666 20.5317 11.1366C20.5317 11.6166 20.1417 11.9966 19.6717 11.9966H18.1617V13.4966C18.1617 13.9966 17.7917 14.3666 17.3017 14.3666ZM5.3817 11.9866C4.9017 11.9866 4.5217 11.5966 4.5217 11.1166C4.5217 10.6566 4.9017 10.2666 5.3817 10.2666H9.5717C10.0517 10.2666 10.4417 10.6566 10.4417 11.1166C10.4417 11.5966 10.0517 11.9866 9.5717 11.9866ZM2.5817 21.5666C2.7417 22.6666 3.3017 23.2966 4.5517 23.2966H20.2217C21.4717 23.2966 22.0317 22.6666 22.1917 21.5666ZM4.9717 24.9366C5.0417 25.9766 5.6617 26.5266 6.7717 26.5266H17.9917C19.1117 26.5266 19.7217 25.9766 19.8017 24.9366Z" />
        </svg>
    