
        <svg xmlns="http://www.w3.org/2000/svg" viewBox="0 0 100 100">
            <path d="M3.0117 18.4689H21.3617C23.3317 18.4689 24.3717 17.3989 24.3717 15.4589V5.7089C24.3717 3.7689 23.3317 2.6989 21.3617 2.6989H19.7717V0.9589C19.7717 0.3489 19.4417 -0.0011 18.7717 -0.0011H15.1217C14.4517 -0.0011 14.1217 0.3489 14.1217 0.9589V2.6989H10.2617V0.9589C10.2617 0.3489 9.9417 -0.0011 9.2617 -0.0011H5.6117C4.9417 -0.0011 4.6017 0.3489 4.6017 0.9589V2.6989H3.0117C1.0417 2.6989 0.0017 3.7389 0.0017 5.7089V15.4589C0.0017 17.4289 1.0417 18.4689 3.0117 18.4689ZM28.8717 14.2589C29.0317 14.2589 29.1517 14.1289 29.1517 13.9689L29.2017 5.3589C29.2017 5.1589 29.0717 5.0289 28.8717 5.0289C28.6717 5.0289 28.5517 5.1589 28.5517 5.3589L28.5917 13.9689C28.5817 14.1289 28.7217 14.2589 28.8717 14.2589ZM16.9417 13.3089C16.7817 13.3089 16.6517 13.1989 16.6517 13.0189V10.8889H14.5117C14.3417 10.8889 14.2117 10.7589 14.2117 10.5889C14.2117 10.4389 14.3317 10.3089 14.5117 10.3089H16.6517V8.1589C16.6517 7.9989 16.7817 7.8789 16.9417 7.8789C17.1017 7.8789 17.2217 7.9989 17.2217 8.1589V10.3089H19.3617C19.5217 10.3089 19.6517 10.4389 19.6517 10.5889C19.6517 10.7589 19.5217 10.8889 19.3617 10.8889H17.2217V13.0189C17.2217 13.1789 17.1017 13.3089 16.9417 13.3089ZM5.0017 10.8789C4.8517 10.8789 4.7217 10.7489 4.7217 10.5789C4.7217 10.4289 4.8517 10.2889 5.0017 10.2889H9.8817C10.0417 10.2889 10.1717 10.4289 10.1717 10.5789C10.1717 10.7489 10.0417 10.8789 9.8817 10.8789ZM28.8717 18.7989C29.3217 18.7989 29.6817 18.4089 29.6817 17.9889C29.6817 17.5289 29.3217 17.1689 28.8717 17.1689C28.4217 17.1689 28.0617 17.5289 28.0617 17.9889C28.0617 18.4089 28.4317 18.7989 28.8717 18.7989ZM2.5917 20.7189C2.5917 21.0189 2.8017 21.3089 3.1217 21.3089H21.2617C21.5717 21.3089 21.8017 21.0189 21.7817 20.7189ZM4.7617 23.2489C4.7617 23.5589 4.9717 23.8389 5.2817 23.8389H19.0917C19.4017 23.8389 19.6317 23.5589 19.6317 23.2489Z" />
        </svg>
    