
        <svg xmlns="http://www.w3.org/2000/svg" viewBox="0 0 100 100">
            <path d="M3.1617 20.742H24.0317C26.1117 20.742 27.1917 19.642 27.1917 17.592V6.142C27.1917 4.092 26.1117 2.992 24.0317 2.992H22.0417V1.152C22.0417 0.432 21.6317 0.002 20.8617 0.002H16.9317C16.1617 0.002 15.7517 0.432 15.7517 1.152V2.992H11.4417V1.152C11.4417 0.432 11.0417 0.002 10.2517 0.002H6.3417C5.5517 0.002 5.1517 0.432 5.1517 1.152V2.992H3.1617C1.0917 2.992 0.0017 4.062 0.0017 6.142V17.592C0.0017 19.662 1.0917 20.742 3.1617 20.742ZM0.8717 17.542V6.192C0.8717 4.652 1.6617 3.852 3.1917 3.852H24.0017C25.4717 3.852 26.3217 4.652 26.3217 6.192V17.542C26.3217 19.082 25.4717 19.872 24.0017 19.872H3.1917C1.6617 19.872 0.8717 19.082 0.8717 17.542ZM18.9017 15.002C19.1417 15.002 19.3217 14.812 19.3217 14.582V12.282H21.6217C21.8517 12.282 22.0317 12.092 22.0317 11.872C22.0317 11.632 21.8517 11.452 21.6217 11.452H19.3217V9.142C19.3217 8.902 19.1417 8.722 18.9017 8.722C18.6817 8.722 18.4917 8.902 18.4917 9.142V11.452H16.1817C15.9417 11.452 15.7617 11.632 15.7617 11.872C15.7617 12.092 15.9517 12.282 16.1817 12.282H18.4917V14.582C18.4917 14.822 18.6817 15.002 18.9017 15.002ZM5.6117 12.282H10.9617C11.1917 12.282 11.3817 12.092 11.3817 11.872C11.3817 11.632 11.1917 11.452 10.9617 11.452H5.6117C5.3917 11.452 5.2017 11.632 5.2017 11.872C5.2017 12.092 5.3917 12.282 5.6117 12.282Z" />
        </svg>
    