
        <svg xmlns="http://www.w3.org/2000/svg" viewBox="0 0 100 100">
            <path d="M25.0617 25.2583C25.4417 25.6383 26.0617 25.6383 26.4217 25.2583C26.7917 24.8883 26.8017 24.2883 26.4217 23.9183L2.7817 0.2783C2.4017 -0.0817 1.7917 -0.1017 1.4217 0.2783C1.0517 0.6383 1.0517 1.2683 1.4217 1.6383ZM27.3417 22.1083C27.6817 21.5183 27.8517 20.7683 27.8517 19.8683V8.7583C27.8517 6.1983 26.4717 4.8283 23.8817 4.8283H22.4617V3.4283C22.4617 2.3383 21.8417 1.7083 20.7617 1.7083H17.6217C16.5517 1.7083 15.9217 2.3383 15.9217 3.4283V4.8283H11.9317V3.4283C11.9317 2.3383 11.3017 1.7083 10.2217 1.7083H7.3717C7.2317 1.7083 7.0917 1.7183 6.9717 1.7583L18.4117 13.1783V11.7183C18.4117 11.1483 18.8717 10.6983 19.4317 10.6983C19.9917 10.6983 20.4517 11.1483 20.4517 11.7183V13.3083H22.0317C22.5917 13.3083 23.0417 13.7583 23.0417 14.3183C23.0417 14.8883 22.5917 15.3383 22.0317 15.3383H20.5617ZM3.9717 23.8083H20.9017L12.2917 15.2083C12.1517 15.2883 11.9917 15.3383 11.8217 15.3383H6.2117C5.6517 15.3383 5.1917 14.8883 5.1917 14.3183C5.1917 13.7583 5.6517 13.3083 6.2117 13.3083H10.3817L2.1917 5.1283C0.7517 5.6483 0.0017 6.8783 0.0017 8.7583V19.8683C0.0017 22.4483 1.3817 23.8083 3.9717 23.8083Z" />
        </svg>
    