
        <svg xmlns="http://www.w3.org/2000/svg" viewBox="0 0 100 100">
            <path d="M1.4923 17.1447L10.9623 26.6147C12.9423 28.5947 15.1823 28.6047 17.1523 26.6247L26.6323 17.1447C28.6123 15.1647 28.5923 12.9247 26.6123 10.9447L17.1623 1.4947C15.1823 -0.4853 12.9423 -0.5053 10.9623 1.4747L1.4823 10.9647C-0.4977 12.9447 -0.4877 15.1647 1.4923 17.1447ZM9.8323 15.6447C8.9323 15.6447 8.2723 14.9947 8.2723 14.0747C8.2723 13.1647 8.9323 12.5047 9.8323 12.5047H18.2823C19.2023 12.5047 19.8423 13.1647 19.8423 14.0747C19.8423 14.9947 19.1823 15.6447 18.2823 15.6447Z" />
        </svg>
    