
        <svg xmlns="http://www.w3.org/2000/svg" viewBox="0 0 100 100">
            <path d="M25.0317 25.1887C25.3917 25.5487 25.9917 25.5587 26.3417 25.1887C26.6917 24.8187 26.7117 24.2387 26.3417 23.8787L2.7317 0.2687C2.3717 -0.0913 1.7717 -0.0913 1.4017 0.2687C1.0417 0.6287 1.0417 1.2287 1.4017 1.5987ZM27.2417 22.0587C27.5817 21.4787 27.7617 20.7487 27.7617 19.8587V8.6487C27.7617 6.1387 26.4517 4.8387 23.9217 4.8387H22.4017V3.3787C22.4017 2.3687 21.8317 1.7887 20.8317 1.7887H17.5517C16.5617 1.7887 15.9817 2.3687 15.9817 3.3787V4.8387H11.7817V3.3787C11.7817 2.3687 11.2017 1.7887 10.1917 1.7887H7.2217C7.1417 1.7887 7.0417 1.7887 6.9717 1.8087L12.3017 7.1387H23.7817C24.8517 7.1387 25.4617 7.6987 25.4617 8.8487V19.5287C25.4617 19.7687 25.4317 19.9787 25.3517 20.1587ZM3.8417 23.6487H20.7817L18.4817 21.3587H3.9817C2.8917 21.3587 2.3017 20.7887 2.3017 19.6587V8.8487C2.3017 7.6987 2.8917 7.1387 3.9817 7.1387H4.2417L2.2017 5.0987H2.1817C0.7417 5.5787 0.0017 6.7687 0.0017 8.6487V19.8587C0.0017 22.3487 1.3117 23.6487 3.8417 23.6487ZM20.3417 15.1687H21.7717C22.2817 15.1687 22.6717 14.7587 22.6717 14.2487C22.6717 13.7387 22.2817 13.3287 21.7617 13.3287H20.1117V11.6787C20.1117 11.1587 19.7017 10.7587 19.1917 10.7587C18.6817 10.7587 18.2717 11.1587 18.2717 11.6587V13.0887ZM7.3317 15.1687H12.2717L10.4417 13.3287H7.3317C6.8217 13.3287 6.4117 13.7387 6.4117 14.2487C6.4117 14.7587 6.8217 15.1687 7.3317 15.1687Z" />
        </svg>
    