
        <svg xmlns="http://www.w3.org/2000/svg" viewBox="0 0 100 100">
            <path d="M3.4617 19.022H21.0317C23.3217 19.022 24.4917 17.862 24.4917 15.602V6.032C24.4917 3.782 23.3217 2.612 21.0317 2.612H19.8117V1.162C19.8117 0.422 19.4017 0.002 18.6417 0.002H15.3917C14.6217 0.002 14.2117 0.422 14.2117 1.162V2.612H10.2917V1.162C10.2917 0.422 9.8717 0.002 9.1217 0.002H5.8517C5.1017 0.002 4.6717 0.422 4.6717 1.162V2.612H3.4617C1.1617 2.612 0.0017 3.762 0.0017 6.032V15.602C0.0017 17.872 1.1617 19.022 3.4617 19.022ZM3.4817 17.582C2.1717 17.582 1.4517 16.872 1.4517 15.532V6.102C1.4517 4.762 2.1717 4.052 3.4817 4.052H21.0017C22.3017 4.052 23.0417 4.762 23.0417 6.102V15.532C23.0417 16.872 22.3017 17.582 21.0017 17.582ZM29.4917 15.172C29.9317 15.172 30.2417 14.862 30.2617 14.412L30.4317 6.012C30.4417 5.442 30.0717 5.062 29.4917 5.062C28.9117 5.062 28.5317 5.442 28.5617 6.012L28.7317 14.412C28.7417 14.862 29.0617 15.172 29.4917 15.172ZM17.0117 13.802C17.3517 13.802 17.6217 13.532 17.6217 13.192V11.412H19.4017C19.7417 11.412 20.0117 11.142 20.0117 10.802C20.0117 10.462 19.7417 10.192 19.4017 10.192H17.6217V8.412C17.6217 8.062 17.3517 7.802 17.0117 7.802C16.6717 7.802 16.4017 8.062 16.4017 8.412V10.192H14.6117C14.2717 10.192 14.0017 10.462 14.0017 10.802C14.0017 11.142 14.2817 11.412 14.6117 11.412H16.4017V13.192C16.4017 13.542 16.6717 13.802 17.0117 13.802ZM5.2617 11.412H9.7017C10.0317 11.412 10.3117 11.132 10.3117 10.792C10.3117 10.462 10.0317 10.182 9.7017 10.182H5.2617C4.9217 10.182 4.6517 10.462 4.6517 10.792C4.6517 11.132 4.9217 11.412 5.2617 11.412ZM29.4917 20.152C30.2017 20.152 30.7817 19.572 30.7817 18.902C30.7817 18.212 30.2117 17.652 29.4917 17.652C28.7817 17.652 28.1917 18.212 28.1917 18.902C28.1917 19.572 28.7917 20.152 29.4917 20.152ZM2.5117 21.032C2.6217 21.842 3.0317 22.332 3.9217 22.332H20.5817C21.4617 22.332 21.8717 21.842 21.9817 21.032ZM4.8417 24.042C4.8917 24.812 5.3317 25.242 6.1617 25.242H18.3417C19.1617 25.242 19.6017 24.812 19.6517 24.042Z" />
        </svg>
    