
        <svg xmlns="http://www.w3.org/2000/svg" viewBox="0 0 100 100">
            <path d="M33.7017 10.2066C33.7017 4.7766 30.5117 1.2666 25.0617 0.6166C21.0317 0.1666 14.1117 -0.0034 10.4217 -0.0034C6.9617 -0.0034 5.1217 1.9266 5.4517 5.0266L5.7917 8.2266C5.8817 9.1066 5.4417 9.5066 4.5917 9.5066H1.8317C0.7617 9.5066 0.0017 10.2666 0.0017 11.3366V16.8666C0.0017 18.4766 1.1417 19.0166 2.6617 18.6166C4.0817 18.2666 5.5317 18.1166 7.3617 18.1166H25.3917C30.5817 18.1166 33.7017 15.2566 33.7017 10.2066ZM31.1517 10.2066C31.1517 13.6566 28.9817 15.5866 25.4217 15.5866H11.8717C9.8517 15.5866 9.1417 14.9766 8.9317 13.1566L7.9917 4.7266C7.8117 3.2066 8.5117 2.5466 10.4217 2.5466C14.0817 2.5466 20.8717 2.7266 24.8117 3.1766C28.8417 3.6366 31.1517 6.2266 31.1517 10.2066Z" />
        </svg>
    