
        <svg xmlns="http://www.w3.org/2000/svg" viewBox="0 0 100 100">
            <path d="M25.1217 17.7491C29.4617 17.7491 32.2817 15.7991 33.0317 12.1591H30.6317C29.9217 14.3391 27.9817 15.4991 25.1617 15.4991H11.6817C9.6117 15.4991 8.8317 14.8491 8.6217 12.9591L7.6917 4.5791C7.5117 2.9891 8.2517 2.2591 10.2217 2.2591C13.8917 2.2591 20.6417 2.4491 24.5417 2.8991C27.4217 3.2191 29.3817 4.5591 30.2717 6.7691H32.7817C31.7617 3.2791 28.9817 1.1291 24.7517 0.6191C20.7817 0.1391 13.9017 0.0091 10.2217 -0.0009C6.8817 -0.0009 5.1317 1.8391 5.4417 4.8391L5.7817 8.1491C5.8817 9.0391 5.4217 9.4491 4.5117 9.4491H1.6417C0.6917 9.4491 0.0017 10.1391 0.0017 11.0891V16.6491C0.0017 18.1091 1.0617 18.6291 2.4617 18.2691C3.8917 17.9191 5.3817 17.7491 7.1917 17.7491ZM37.1817 6.5591V5.0591C37.1817 4.4791 36.7017 4.0091 36.1217 4.0091C35.5417 4.0091 35.0617 4.4791 35.0617 5.0591V6.5591C35.0617 7.7191 34.3017 8.4291 33.0517 8.4291H26.6717V7.2191C26.6717 6.3791 26.0517 6.0491 25.3217 6.5491L22.1017 8.7691C21.5317 9.1591 21.5317 9.8391 22.1017 10.2391L25.3517 12.4591C26.0517 12.9391 26.6717 12.6191 26.6717 11.7791V10.4991H33.0517C35.6217 10.4991 37.1817 9.0091 37.1817 6.5591Z" />
        </svg>
    