
        <svg xmlns="http://www.w3.org/2000/svg" viewBox="0 0 100 100">
            <path d="M0.0017 9.7512C0.0017 14.6813 2.8817 17.2712 7.9017 17.2712H25.7017C27.5017 17.2712 29.0417 17.4513 30.4717 17.8113C31.7017 18.1213 32.6717 17.6112 32.6717 16.3612V10.7413C32.6717 9.9513 32.1017 9.3613 31.2917 9.3613H28.2517C27.2817 9.3613 26.8017 8.9413 26.8917 8.0313L27.2417 4.5913C27.5417 1.7312 25.9117 0.0012 22.7217 0.0012C19.0317 0.0113 12.2217 0.1513 8.3317 0.6112C3.0017 1.2613 0.0017 4.5213 0.0017 9.7512ZM1.8917 9.7512C1.8917 5.6113 4.2417 3.0013 8.4917 2.5113C12.3417 2.0712 19.0417 1.8912 22.7217 1.8912C24.7517 1.8912 25.5717 2.7112 25.3817 4.3813L24.4617 12.7013C24.2317 14.6713 23.3917 15.3913 21.2317 15.3913H7.8617C4.1017 15.3913 1.8917 13.4413 1.8917 9.7512Z" />
        </svg>
    