
        <svg xmlns="http://www.w3.org/2000/svg" viewBox="0 0 100 100">
            <path d="M12.3723 24.7459C19.2023 24.7459 24.7523 19.2059 24.7523 12.3759C24.7523 5.5459 19.2023 -0.0041 12.3723 -0.0041C5.5423 -0.0041 0.0023 5.5459 0.0023 12.3759C0.0023 19.2059 5.5423 24.7459 12.3723 24.7459ZM12.3723 21.6659C7.2423 21.6659 3.0823 17.5059 3.0823 12.3759C3.0823 7.2259 7.2423 3.0859 12.3723 3.0859C17.5223 3.0859 21.6723 7.2259 21.6723 12.3759C21.6723 17.5059 17.5223 21.6659 12.3723 21.6659ZM15.5623 11.6059C15.7223 11.6059 15.8423 11.4859 15.8623 11.3159C16.0923 9.4759 16.1723 9.4259 18.0423 9.1359C18.2323 9.1059 18.3423 8.9959 18.3423 8.8359C18.3423 8.6759 18.2323 8.5559 18.0723 8.5359C16.1723 8.1559 16.1123 8.1459 15.8623 6.3559C15.8423 6.1859 15.7223 6.0559 15.5623 6.0559C15.4123 6.0559 15.2923 6.1859 15.2723 6.3559C15.0123 8.2059 14.9923 8.2759 13.0823 8.5359C12.9023 8.5559 12.7923 8.6759 12.7923 8.8359C12.7923 8.9959 12.9023 9.1059 13.0623 9.1359C14.9923 9.5059 15.0223 9.5159 15.2723 11.3159C15.2923 11.4859 15.4123 11.6059 15.5623 11.6059ZM12.2623 18.7059C14.6623 18.7059 16.7723 17.2359 17.6123 15.2559C17.8623 14.7159 17.4923 14.2359 16.9023 14.5059C16.5123 14.6759 15.8123 14.8159 15.1323 14.8159C12.1723 14.8159 10.2823 12.9859 10.2823 10.0559C10.2823 9.3659 10.4423 8.5159 10.6423 8.0659C10.9423 7.4759 10.4723 7.1159 9.9223 7.3359C7.7423 8.1759 6.3123 10.4559 6.3123 12.8559C6.3123 16.2459 8.8623 18.7059 12.2623 18.7059Z" />
        </svg>
    