
        <svg xmlns="http://www.w3.org/2000/svg" viewBox="0 0 100 100">
            <path d="M11.4917 22.977C17.8317 22.977 22.9817 17.847 22.9817 11.497C22.9817 5.147 17.8317 -0.003 11.4917 -0.003C5.1417 -0.003 0.0017 5.147 0.0017 11.497C0.0017 17.847 5.1417 22.977 11.4917 22.977ZM11.4917 22.087C5.6417 22.087 0.8917 17.357 0.8917 11.497C0.8917 5.637 5.6417 0.887 11.4917 0.887C17.3517 0.887 22.0917 5.637 22.0917 11.497C22.0917 17.357 17.3517 22.087 11.4917 22.087ZM14.3317 9.587C14.5417 9.587 14.7117 9.417 14.7117 9.227V6.207L14.6717 5.517L15.0717 5.917L16.0517 6.937C16.1217 7.007 16.2317 7.047 16.3217 7.047C16.5217 7.047 16.6917 6.887 16.6917 6.677C16.6917 6.587 16.6517 6.497 16.5117 6.367L14.5817 4.457C14.5217 4.397 14.4117 4.347 14.3317 4.347C14.2417 4.347 14.1417 4.397 14.0717 4.457L12.1417 6.367C12.0117 6.477 11.9717 6.587 11.9717 6.677C11.9717 6.887 12.1317 7.047 12.3317 7.047C12.4417 7.047 12.5417 6.987 12.6117 6.917L13.6217 5.907L13.9817 5.527L13.9417 6.207V9.227C13.9417 9.417 14.1117 9.587 14.3317 9.587ZM7.7617 15.337H15.6117C16.0217 14.957 16.3617 14.477 16.6017 13.937C16.7017 13.757 16.6917 13.597 16.5917 13.497C16.5117 13.417 16.3717 13.397 16.1817 13.467C15.6717 13.667 15.0917 13.777 14.3217 13.777C11.2817 13.777 9.4417 11.957 9.4417 8.897C9.4417 8.157 9.5717 7.477 9.8317 6.957C9.9117 6.777 9.9017 6.607 9.8117 6.497C9.6917 6.387 9.5017 6.377 9.3017 6.497C7.5117 7.407 6.3017 9.247 6.3017 11.547C6.3017 13.067 6.8217 14.387 7.7617 15.337ZM4.6417 16.757H18.3417C18.5517 16.757 18.7117 16.607 18.7117 16.407C18.7117 16.187 18.5517 16.047 18.3417 16.047H4.6417C4.4417 16.047 4.2617 16.207 4.2617 16.407C4.2617 16.607 4.4417 16.757 4.6417 16.757Z" />
        </svg>
    