
        <svg xmlns="http://www.w3.org/2000/svg" viewBox="0 0 100 100">
            <path d="M14.7514 5.857C14.9414 5.857 15.0614 5.727 15.0814 5.557C15.4014 3.647 15.4014 3.617 17.3814 3.257C17.5814 3.227 17.6914 3.107 17.6914 2.927C17.6914 2.747 17.5814 2.637 17.4014 2.597C15.3914 2.187 15.4114 2.177 15.0814 0.307C15.0614 0.117 14.9414 -0.003 14.7514 -0.003C14.5814 -0.003 14.4614 0.117 14.4414 0.297C14.1014 2.227 14.1314 2.247 12.1314 2.597C11.9514 2.627 11.8214 2.747 11.8214 2.927C11.8214 3.107 11.9414 3.227 12.1214 3.257C14.1314 3.657 14.1114 3.667 14.4414 5.567C14.4614 5.727 14.5814 5.857 14.7514 5.857ZM11.2114 26.617C15.5714 26.617 19.6614 24.097 21.4714 20.027C21.8514 19.167 21.7314 18.517 21.3414 18.137C20.9614 17.787 20.3214 17.717 19.6314 18.027C18.7614 18.397 17.6414 18.607 16.4014 18.607C11.2514 18.607 8.1214 15.617 8.1214 10.597C8.1214 9.207 8.4114 7.837 8.8114 6.957C9.1514 6.187 9.1014 5.587 8.7514 5.177C8.3714 4.747 7.7014 4.667 6.8914 4.997C2.7514 6.657 0.0014 10.847 0.0014 15.347C0.0014 21.597 4.9414 26.617 11.2114 26.617ZM20.4214 14.187C20.7114 14.187 20.9214 13.997 20.9514 13.697C21.3314 10.627 21.4414 10.537 24.5814 10.057C24.9214 9.997 25.1114 9.817 25.1114 9.527C25.1114 9.247 24.9214 9.057 24.6514 8.997C21.4614 8.357 21.3314 8.407 20.9514 5.347C20.9214 5.047 20.7114 4.847 20.4214 4.847C20.1414 4.847 19.9314 5.047 19.9014 5.327C19.5114 8.477 19.4214 8.567 16.2114 8.997C15.9414 9.037 15.7414 9.247 15.7414 9.527C15.7414 9.797 15.9414 9.997 16.2114 10.057C19.4314 10.697 19.5014 10.667 19.9014 13.727C19.9314 13.997 20.1514 14.187 20.4214 14.187ZM11.2114 23.647C6.5014 23.647 2.9614 20.037 2.9614 15.397C2.9614 13.077 3.9514 10.897 5.6214 9.337C5.4814 9.877 5.4114 10.557 5.4114 11.227C5.4114 17.407 9.3914 21.307 15.7314 21.307C16.2114 21.307 16.6714 21.247 17.0014 21.187C15.6114 22.687 13.5614 23.647 11.2114 23.647Z" />
        </svg>
    