
        <svg xmlns="http://www.w3.org/2000/svg" viewBox="0 0 100 100">
            <path d="M11.4923 22.977C17.8323 22.977 22.9823 17.847 22.9823 11.497C22.9823 5.147 17.8323 -0.003 11.4923 -0.003C5.1423 -0.003 0.0023 5.147 0.0023 11.497C0.0023 17.847 5.1423 22.977 11.4923 22.977ZM11.4923 22.087C5.6323 22.087 0.8923 17.357 0.8923 11.497C0.8923 5.637 5.6323 0.887 11.4923 0.887C17.3523 0.887 22.0923 5.637 22.0923 11.497C22.0923 17.357 17.3523 22.087 11.4923 22.087ZM7.6123 13.427H15.5723C15.9823 13.027 16.3223 12.547 16.5823 12.007C16.6723 11.827 16.6523 11.657 16.5723 11.567C16.4723 11.487 16.3323 11.457 16.1523 11.527C15.6223 11.727 15.0423 11.857 14.2623 11.857C11.1923 11.857 9.3423 9.997 9.3423 6.927C9.3423 6.167 9.4723 5.487 9.7223 4.957C9.8223 4.777 9.7923 4.607 9.7023 4.487C9.6023 4.367 9.4023 4.367 9.1923 4.487C7.3823 5.417 6.1523 7.277 6.1523 9.587C6.1523 11.117 6.6823 12.467 7.6123 13.427ZM4.3123 14.847H18.6523C18.8623 14.847 19.0323 14.697 19.0323 14.487C19.0323 14.257 18.8823 14.117 18.6523 14.117H4.3123C4.1123 14.117 3.9423 14.277 3.9423 14.487C3.9423 14.697 4.1123 14.847 4.3123 14.847ZM5.7223 16.887C5.9623 16.887 6.1623 16.677 6.1623 16.437C6.1623 16.197 5.9623 15.987 5.7223 15.987C5.4723 15.987 5.2723 16.197 5.2723 16.437C5.2723 16.677 5.4723 16.887 5.7223 16.887ZM8.6123 16.887C8.8623 16.887 9.0723 16.677 9.0723 16.437C9.0723 16.197 8.8623 15.987 8.6123 15.987C8.3823 15.987 8.1723 16.197 8.1723 16.437C8.1723 16.677 8.3823 16.887 8.6123 16.887ZM11.4923 16.887C11.7423 16.887 11.9523 16.677 11.9523 16.437C11.9523 16.197 11.7423 15.987 11.4923 15.987C11.2623 15.987 11.0523 16.197 11.0523 16.437C11.0523 16.677 11.2623 16.887 11.4923 16.887ZM14.3923 16.887C14.6223 16.887 14.8323 16.677 14.8323 16.437C14.8323 16.197 14.6223 15.987 14.3923 15.987C14.1423 15.987 13.9323 16.197 13.9323 16.437C13.9323 16.677 14.1423 16.887 14.3923 16.887ZM17.2723 16.887C17.5123 16.887 17.7223 16.677 17.7223 16.437C17.7223 16.197 17.5123 15.987 17.2723 15.987C17.0323 15.987 16.8123 16.197 16.8123 16.437C16.8123 16.677 17.0323 16.887 17.2723 16.887ZM7.1823 18.577C7.4223 18.577 7.6323 18.377 7.6323 18.127C7.6323 17.887 7.4223 17.687 7.1823 17.687C6.9423 17.687 6.7223 17.887 6.7223 18.127C6.7223 18.377 6.9423 18.577 7.1823 18.577ZM10.0823 18.577C10.3123 18.577 10.5223 18.377 10.5223 18.127C10.5223 17.887 10.3123 17.687 10.0823 17.687C9.8323 17.687 9.6223 17.887 9.6223 18.127C9.6223 18.377 9.8323 18.577 10.0823 18.577ZM12.9623 18.577C13.1923 18.577 13.4023 18.377 13.4023 18.127C13.4023 17.887 13.1923 17.687 12.9623 17.687C12.7123 17.687 12.5123 17.887 12.5123 18.127C12.5123 18.377 12.7123 18.577 12.9623 18.577ZM15.8323 18.577C16.0823 18.577 16.2823 18.377 16.2823 18.127C16.2823 17.887 16.0823 17.687 15.8323 17.687C15.5823 17.687 15.3823 17.887 15.3823 18.127C15.3823 18.377 15.5823 18.577 15.8323 18.577Z" />
        </svg>
    