
        <svg xmlns="http://www.w3.org/2000/svg" viewBox="0 0 100 100">
            <path d="M5.0517 13.9445H19.6917C20.0617 13.4745 20.3717 12.9445 20.6117 12.3645C20.8117 11.9045 20.7817 11.5045 20.5317 11.2545C20.3317 11.0445 19.9817 11.0145 19.5717 11.1645C18.7817 11.4745 17.8617 11.6245 16.7217 11.6245C12.1917 11.6245 9.3017 8.8245 9.3017 4.4045C9.3017 3.2345 9.5317 1.9745 9.8417 1.3245C10.0517 0.9145 10.0317 0.5145 9.8217 0.2445C9.6117 -0.0155 9.1917 -0.0855 8.7117 0.1145C5.5117 1.4145 3.3417 4.7545 3.3417 8.5845C3.3417 10.6245 3.9517 12.4745 5.0517 13.9445ZM1.0417 16.7945H24.8417C25.2617 16.7945 25.5817 16.4745 25.5817 16.0545C25.5817 15.6345 25.2617 15.3145 24.8417 15.3145H1.0417C0.6317 15.3145 0.3017 15.6345 0.3017 16.0545C0.3017 16.4745 0.6317 16.7945 1.0417 16.7945ZM2.1017 20.5845C2.4417 20.5845 2.6917 20.3145 2.6917 19.9945C2.6917 19.6545 2.4417 19.3845 2.1017 19.3845C1.7617 19.3845 1.5017 19.6545 1.5017 19.9945C1.5017 20.3145 1.7617 20.5845 2.1017 20.5845ZM7.0417 20.5845C7.3817 20.5845 7.6517 20.3145 7.6517 19.9945C7.6517 19.6545 7.3817 19.3845 7.0417 19.3845C6.7117 19.3845 6.4417 19.6545 6.4417 19.9945C6.4417 20.3145 6.7117 20.5845 7.0417 20.5845ZM12.0017 20.5845C12.3417 20.5845 12.6017 20.3145 12.6017 19.9945C12.6017 19.6545 12.3417 19.3845 12.0017 19.3845C11.6617 19.3845 11.4017 19.6545 11.4017 19.9945C11.4017 20.3145 11.6617 20.5845 12.0017 20.5845ZM16.9417 20.5845C17.2817 20.5845 17.5517 20.3145 17.5517 19.9945C17.5517 19.6545 17.2817 19.3845 16.9417 19.3845C16.6217 19.3845 16.3517 19.6545 16.3517 19.9945C16.3517 20.3145 16.6217 20.5845 16.9417 20.5845ZM21.9017 20.5845C22.2417 20.5845 22.5017 20.3145 22.5017 19.9945C22.5017 19.6545 22.2417 19.3845 21.9017 19.3845C21.5617 19.3845 21.3017 19.6545 21.3017 19.9945C21.3017 20.3145 21.5617 20.5845 21.9017 20.5845ZM0.6017 23.4245C0.9417 23.4245 1.2117 23.1645 1.2117 22.8245C1.2117 22.4845 0.9417 22.2245 0.6017 22.2245C0.2717 22.2245 0.0017 22.4845 0.0017 22.8245C0.0017 23.1645 0.2717 23.4245 0.6017 23.4245ZM5.5517 23.4245C5.8817 23.4245 6.1517 23.1645 6.1517 22.8245C6.1517 22.4845 5.8817 22.2245 5.5517 22.2245C5.2117 22.2245 4.9417 22.4845 4.9417 22.8245C4.9417 23.1645 5.2117 23.4245 5.5517 23.4245ZM10.5017 23.4245C10.8417 23.4245 11.1117 23.1645 11.1117 22.8245C11.1117 22.4845 10.8417 22.2245 10.5017 22.2245C10.1717 22.2245 9.9017 22.4845 9.9017 22.8245C9.9017 23.1645 10.1717 23.4245 10.5017 23.4245ZM15.4617 23.4245C15.7817 23.4245 16.0517 23.1645 16.0517 22.8245C16.0517 22.4845 15.7817 22.2245 15.4617 22.2245C15.1217 22.2245 14.8517 22.4845 14.8517 22.8245C14.8517 23.1645 15.1217 23.4245 15.4617 23.4245ZM20.4017 23.4245C20.7417 23.4245 21.0117 23.1645 21.0117 22.8245C21.0117 22.4845 20.7417 22.2245 20.4017 22.2245C20.0717 22.2245 19.8017 22.4845 19.8017 22.8245C19.8017 23.1645 20.0717 23.4245 20.4017 23.4245ZM25.3617 23.4245C25.6917 23.4245 25.9617 23.1645 25.9617 22.8245C25.9617 22.4845 25.6917 22.2245 25.3617 22.2245C25.0217 22.2245 24.7517 22.4845 24.7517 22.8245C24.7517 23.1645 25.0217 23.4245 25.3617 23.4245ZM4.0517 26.2745C4.3917 26.2745 4.6517 26.0045 4.6517 25.6745C4.6517 25.3345 4.3917 25.0645 4.0517 25.0645C3.7117 25.0645 3.4617 25.3345 3.4617 25.6745C3.4617 26.0045 3.7117 26.2745 4.0517 26.2745ZM9.0117 26.2745C9.3417 26.2745 9.6117 26.0045 9.6117 25.6745C9.6117 25.3345 9.3417 25.0645 9.0117 25.0645C8.6717 25.0645 8.4017 25.3345 8.4017 25.6745C8.4017 26.0045 8.6717 26.2745 9.0117 26.2745ZM13.9617 26.2745C14.3017 26.2745 14.5517 26.0045 14.5517 25.6745C14.5517 25.3345 14.3017 25.0645 13.9617 25.0645C13.6217 25.0645 13.3617 25.3345 13.3617 25.6745C13.3617 26.0045 13.6217 26.2745 13.9617 26.2745ZM18.9117 26.2745C19.2417 26.2745 19.5117 26.0045 19.5117 25.6745C19.5117 25.3345 19.2417 25.0645 18.9117 25.0645C18.5717 25.0645 18.3017 25.3345 18.3017 25.6745C18.3017 26.0045 18.5717 26.2745 18.9117 26.2745ZM23.8617 26.2745C24.2017 26.2745 24.4617 26.0045 24.4617 25.6745C24.4617 25.3345 24.2017 25.0645 23.8617 25.0645C23.5217 25.0645 23.2617 25.3345 23.2617 25.6745C23.2617 26.0045 23.5217 26.2745 23.8617 26.2745Z" />
        </svg>
    