
        <svg xmlns="http://www.w3.org/2000/svg" viewBox="0 0 100 100">
            <path d="M13.8483 5.7681C14.0083 5.7681 14.0983 5.6581 14.1183 5.5181C14.4583 3.5781 14.4483 3.5381 16.4783 3.1481C16.6283 3.1281 16.7183 3.0381 16.7183 2.8781C16.7183 2.7281 16.6283 2.6381 16.4783 2.6181C14.4483 2.1981 14.4983 2.1681 14.1183 0.2581C14.0983 0.1081 14.0083 -0.0019 13.8483 -0.0019C13.6983 -0.0019 13.6083 0.1081 13.5783 0.2481C13.1983 2.1781 13.2583 2.2281 11.2183 2.6181C11.0783 2.6381 10.9683 2.7281 10.9683 2.8781C10.9683 3.0381 11.0583 3.1281 11.2183 3.1481C13.2583 3.5581 13.2183 3.5881 13.5783 5.5181C13.6083 5.6581 13.6983 5.7681 13.8483 5.7681ZM19.4783 13.8381C19.7183 13.8381 19.8883 13.6681 19.9183 13.4181C20.2983 10.2981 20.4383 10.2181 23.5983 9.7181C23.8783 9.6781 24.0583 9.5281 24.0583 9.2681C24.0583 9.0381 23.8783 8.8681 23.6583 8.8381C20.4583 8.2181 20.2983 8.2381 19.9183 5.1281C19.8883 4.8781 19.7183 4.7081 19.4783 4.7081C19.2383 4.7081 19.0683 4.8781 19.0283 5.1181C18.6283 8.2881 18.5283 8.3781 15.3083 8.8381C15.0683 8.8581 14.9083 9.0381 14.9083 9.2681C14.9083 9.5181 15.0683 9.6681 15.2883 9.7181C18.5383 10.3481 18.6183 10.3381 19.0283 13.4381C19.0683 13.6681 19.2383 13.8381 19.4783 13.8381ZM10.3083 25.1481C14.5983 25.1481 18.1783 22.6881 19.7583 19.1881C19.9783 18.6881 19.9383 18.2781 19.6883 18.0381C19.4783 17.8381 19.0883 17.7981 18.6783 17.9681C17.7183 18.3681 16.5583 18.5781 15.2783 18.5781C10.0983 18.5781 6.6883 15.2881 6.6883 10.2181C6.6883 8.8781 7.0383 7.3281 7.4683 6.4581C7.6983 5.9681 7.6883 5.5781 7.4683 5.3181C7.2583 5.0581 6.8283 5.0181 6.3083 5.2281C2.5383 6.8281 -0.0017 10.5781 -0.0017 14.8281C-0.0017 20.5281 4.5083 25.1481 10.3083 25.1481Z" />
        </svg>
    