
        <svg xmlns="http://www.w3.org/2000/svg" viewBox="0 0 100 100">
            <path d="M21.3017 10.0044C21.4717 10.0044 21.6017 9.8744 21.6017 9.7244V3.0544L21.5517 0.9044L22.8917 2.2644L24.9117 4.3344C24.9917 4.4144 25.0617 4.4444 25.1417 4.4444C25.3017 4.4444 25.4317 4.3144 25.4317 4.1344C25.4317 4.0244 25.3717 3.9244 25.2617 3.8344L21.5317 0.0944C21.4717 0.0344 21.3717 0.0044 21.3017 0.0044C21.2317 0.0044 21.1417 0.0344 21.0917 0.0944L17.3417 3.8344C17.2517 3.9244 17.1917 4.0244 17.1917 4.1344C17.1917 4.3144 17.3217 4.4444 17.4717 4.4444C17.5417 4.4444 17.6217 4.4144 17.6917 4.3344L19.7217 2.2644L21.0617 0.9044L21.0217 3.0544V9.7244C21.0217 9.8744 21.1517 10.0044 21.3017 10.0044ZM0.3117 22.5344H29.7217C29.8917 22.5344 30.0317 22.4144 30.0317 22.2644C30.0317 22.1044 29.8917 21.9844 29.7217 21.9844H19.9917C21.7417 21.0444 23.1217 19.6244 24.0517 17.9044C24.3617 17.2944 23.9217 16.8544 23.4117 17.1044C22.4017 17.5444 21.1917 17.8044 19.8517 17.8044C14.1817 17.8044 11.1917 14.8044 11.1917 9.1444C11.1917 7.8044 11.4517 6.5844 11.8817 5.5744C12.1317 5.0744 11.6817 4.6244 11.0817 4.9444C7.9417 6.6244 5.8117 9.8444 5.8117 13.8944C5.8117 17.6044 7.4217 20.4644 10.1217 21.9844H0.3117C0.1417 21.9844 0.0017 22.1044 0.0017 22.2644C0.0017 22.4144 0.1417 22.5344 0.3117 22.5344ZM6.3917 13.8944C6.3917 10.2444 8.5317 7.1344 11.3217 5.4444C10.8717 6.3544 10.6217 7.7544 10.6217 9.1444C10.6217 15.0744 13.9117 18.3744 19.8417 18.3744C21.2117 18.3744 22.6417 18.1144 23.5417 17.6644C22.3917 19.5544 20.5917 21.1544 18.4117 21.9844H11.4917C8.3017 20.7744 6.3917 17.8744 6.3917 13.8944Z" />
        </svg>
    