
        <svg xmlns="http://www.w3.org/2000/svg" viewBox="0 0 100 100">
            <path d="M4.2917 13.4829H21.0117C21.1517 13.2829 21.2617 13.0829 21.3517 12.8629C21.6817 12.1429 21.6317 11.5129 21.2617 11.1329C20.8817 10.8029 20.2817 10.7729 19.6717 11.0429C18.9617 11.3729 18.0317 11.5329 17.0417 11.5329C12.8417 11.5329 10.2117 9.0029 10.2117 4.9529C10.2117 3.9329 10.4217 2.8129 10.7917 1.9629C11.0817 1.2529 11.0617 0.7229 10.7417 0.3329C10.3917 -0.0471 9.8017 -0.1171 9.0517 0.1929C5.5417 1.5929 3.2117 5.1029 3.2117 9.0029C3.2117 10.6329 3.5817 12.1529 4.2917 13.4829ZM1.4317 17.1329H24.7017C25.2817 17.1329 25.7117 16.7329 25.7117 16.2029C25.7117 15.6629 25.2817 15.2629 24.7017 15.2629H1.4317C0.8717 15.2629 0.4317 15.6629 0.4317 16.2029C0.4317 16.7329 0.8717 17.1329 1.4317 17.1329ZM2.2017 20.9329C2.6017 20.9329 2.9017 20.6129 2.9017 20.2329C2.9017 19.8329 2.6017 19.5129 2.2017 19.5129C1.8017 19.5129 1.5017 19.8329 1.5017 20.2329C1.5017 20.6129 1.8017 20.9329 2.2017 20.9329ZM7.1517 20.9329C7.5517 20.9329 7.8617 20.6129 7.8617 20.2329C7.8617 19.8329 7.5517 19.5129 7.1517 19.5129C6.7617 19.5129 6.4417 19.8329 6.4417 20.2329C6.4417 20.6129 6.7617 20.9329 7.1517 20.9329ZM12.1017 20.9329C12.5017 20.9329 12.8117 20.6129 12.8117 20.2329C12.8117 19.8329 12.5017 19.5129 12.1017 19.5129C11.7117 19.5129 11.4017 19.8329 11.4017 20.2329C11.4017 20.6129 11.7117 20.9329 12.1017 20.9329ZM17.0517 20.9329C17.4517 20.9329 17.7617 20.6129 17.7617 20.2329C17.7617 19.8329 17.4517 19.5129 17.0517 19.5129C16.6617 19.5129 16.3517 19.8329 16.3517 20.2329C16.3517 20.6129 16.6617 20.9329 17.0517 20.9329ZM22.0117 20.9329C22.4017 20.9329 22.7117 20.6129 22.7117 20.2329C22.7117 19.8329 22.4017 19.5129 22.0117 19.5129C21.6117 19.5129 21.3017 19.8329 21.3017 20.2329C21.3017 20.6129 21.6117 20.9329 22.0117 20.9329ZM0.7017 23.7729C1.1017 23.7729 1.4217 23.4629 1.4217 23.0629C1.4217 22.6629 1.1017 22.3629 0.7017 22.3629C0.3117 22.3629 0.0017 22.6629 0.0017 23.0629C0.0017 23.4629 0.3117 23.7729 0.7017 23.7729ZM5.6617 23.7729C6.0617 23.7729 6.3617 23.4629 6.3617 23.0629C6.3617 22.6629 6.0617 22.3629 5.6617 22.3629C5.2617 22.3629 4.9417 22.6629 4.9417 23.0629C4.9417 23.4629 5.2617 23.7729 5.6617 23.7729ZM10.6017 23.7729C11.0017 23.7729 11.3217 23.4629 11.3217 23.0629C11.3217 22.6629 11.0017 22.3629 10.6017 22.3629C10.2217 22.3629 9.9017 22.6629 9.9017 23.0629C9.9017 23.4629 10.2217 23.7729 10.6017 23.7729ZM15.5617 23.7729C15.9517 23.7729 16.2617 23.4629 16.2617 23.0629C16.2617 22.6629 15.9517 22.3629 15.5617 22.3629C15.1617 22.3629 14.8517 22.6629 14.8517 23.0629C14.8517 23.4629 15.1617 23.7729 15.5617 23.7729ZM20.5117 23.7729C20.9017 23.7729 21.2217 23.4629 21.2217 23.0629C21.2217 22.6629 20.9017 22.3629 20.5117 22.3629C20.1117 22.3629 19.8017 22.6629 19.8017 23.0629C19.8017 23.4629 20.1117 23.7729 20.5117 23.7729ZM25.4617 23.7729C25.8517 23.7729 26.1717 23.4629 26.1717 23.0629C26.1717 22.6629 25.8517 22.3629 25.4617 22.3629C25.0617 22.3629 24.7517 22.6629 24.7517 23.0629C24.7517 23.4629 25.0617 23.7729 25.4617 23.7729ZM4.1617 26.6129C4.5617 26.6129 4.8617 26.3029 4.8617 25.9129C4.8617 25.5129 4.5617 25.2029 4.1617 25.2029C3.7617 25.2029 3.4617 25.5129 3.4617 25.9129C3.4617 26.3029 3.7617 26.6129 4.1617 26.6129ZM9.1217 26.6129C9.5017 26.6129 9.8217 26.3029 9.8217 25.9129C9.8217 25.5129 9.5017 25.2029 9.1217 25.2029C8.7217 25.2029 8.4017 25.5129 8.4017 25.9129C8.4017 26.3029 8.7217 26.6129 9.1217 26.6129ZM14.0617 26.6129C14.4617 26.6129 14.7617 26.3029 14.7617 25.9129C14.7617 25.5129 14.4617 25.2029 14.0617 25.2029C13.6617 25.2029 13.3617 25.5129 13.3617 25.9129C13.3617 26.3029 13.6617 26.6129 14.0617 26.6129ZM19.0217 26.6129C19.4017 26.6129 19.7217 26.3029 19.7217 25.9129C19.7217 25.5129 19.4017 25.2029 19.0217 25.2029C18.6217 25.2029 18.3017 25.5129 18.3017 25.9129C18.3017 26.3029 18.6217 26.6129 19.0217 26.6129ZM23.9617 26.6129C24.3617 26.6129 24.6717 26.3029 24.6717 25.9129C24.6717 25.5129 24.3617 25.2029 23.9617 25.2029C23.5617 25.2029 23.2617 25.5129 23.2617 25.9129C23.2617 26.3029 23.5617 26.6129 23.9617 26.6129Z" />
        </svg>
    