
        <svg xmlns="http://www.w3.org/2000/svg" viewBox="0 0 100 100">
            <path d="M18.1323 14.8253C12.9823 14.8253 9.7523 11.7553 9.7523 6.7453C9.7523 5.3753 9.9723 4.0353 10.4023 3.2453C10.7123 2.6953 10.8623 2.1753 10.8623 1.6953C10.8623 0.7153 10.2223 -0.0047 9.1423 -0.0047C8.7523 -0.0047 8.3123 0.1053 7.8023 0.3053C3.1023 2.2153 0.0023 6.8353 0.0023 11.9153C0.0023 18.8453 5.6023 24.4453 12.5123 24.4453C17.4723 24.4453 21.9523 21.5353 23.9723 16.9953C24.2323 16.4153 24.3523 15.9053 24.3523 15.4853C24.3523 14.4653 23.7223 13.8353 22.7723 13.8353C22.2823 13.8353 21.7423 14.0553 21.1123 14.2953C20.4423 14.5653 19.2823 14.8253 18.1323 14.8253ZM4.1623 11.9153C4.1623 9.9853 4.8423 8.0753 6.1123 6.5753C6.0723 6.9353 6.0423 7.1153 6.0423 7.4753C6.0423 14.2153 10.3523 18.4653 17.2423 18.4653C17.4023 18.4653 17.5623 18.4553 17.7523 18.4353C16.3323 19.6553 14.4123 20.2953 12.5423 20.2953C7.8723 20.2953 4.1623 16.5653 4.1623 11.9153Z" />
        </svg>
    