
        <svg xmlns="http://www.w3.org/2000/svg" viewBox="0 0 100 100">
            <path d="M11.3517 22.7147C17.6017 22.7147 22.7117 17.6047 22.7117 11.3547C22.7117 5.1047 17.6017 0.0047 11.3517 0.0047C5.1117 0.0047 0.0017 5.1047 0.0017 11.3547C0.0017 17.6047 5.1117 22.7147 11.3517 22.7147ZM14.2017 4.1647C14.3817 4.1647 14.5117 4.2847 14.5117 4.4547V7.5747L14.4717 8.3447L14.9417 7.8747L16.0217 6.7747C16.0817 6.7147 16.1617 6.6947 16.2317 6.6947C16.4017 6.6947 16.5517 6.8247 16.5517 6.9947C16.5517 7.0947 16.5117 7.1647 16.3817 7.2847L14.4017 9.2647C14.3517 9.3147 14.2717 9.3447 14.2017 9.3447C14.1217 9.3447 14.0417 9.3147 13.9917 9.2647L12.0117 7.2847C11.8917 7.1747 11.8517 7.0947 11.8517 6.9947C11.8517 6.8247 11.9917 6.6947 12.1617 6.6947C12.2717 6.6947 12.3417 6.7547 12.4017 6.8047L13.4617 7.8747L13.9217 8.3447L13.8917 7.5747V4.4547C13.8917 4.2847 14.0317 4.1647 14.2017 4.1647ZM7.7017 15.3647C6.6817 14.3947 6.1017 12.9747 6.1017 11.3547C6.1017 9.0347 7.3117 7.2047 9.0917 6.2447C9.2717 6.1247 9.4417 6.1247 9.5517 6.2347C9.6417 6.3447 9.6517 6.4847 9.5817 6.6447C9.3117 7.2047 9.1717 7.8747 9.1717 8.6347C9.1717 11.8347 11.0617 13.7447 14.2217 13.7447C15.0517 13.7447 15.6217 13.6047 16.1617 13.4047C16.3217 13.3347 16.4617 13.3747 16.5317 13.4447C16.6017 13.5147 16.6317 13.6647 16.5317 13.8047C16.2617 14.4147 15.8717 14.9447 15.4017 15.3647ZM4.3017 16.5847C4.1417 16.5847 4.0117 16.4647 4.0117 16.3147C4.0117 16.1447 4.1417 16.0147 4.3017 16.0147H18.4217C18.6017 16.0147 18.7017 16.1347 18.7017 16.3147C18.7017 16.4647 18.6017 16.5847 18.4217 16.5847Z" />
        </svg>
    