
        <svg xmlns="http://www.w3.org/2000/svg" viewBox="0 0 100 100">
            <path d="M12.1023 24.2064C18.7823 24.2064 24.2123 18.7864 24.2123 12.1064C24.2123 5.4264 18.7823 -0.0036 12.1023 -0.0036C5.4223 -0.0036 0.0023 5.4264 0.0023 12.1064C0.0023 18.7864 5.4223 24.2064 12.1023 24.2064ZM12.1023 21.8164C6.7223 21.8164 2.3823 17.4864 2.3823 12.1064C2.3823 6.7264 6.7223 2.3764 12.1023 2.3764C17.4823 2.3764 21.8323 6.7264 21.8323 12.1064C21.8323 17.4864 17.4823 21.8164 12.1023 21.8164ZM8.1123 12.9164H16.4623C16.6523 12.6664 16.7923 12.4064 16.9223 12.1164C17.0523 11.8364 17.0123 11.5864 16.8623 11.4364C16.7323 11.3164 16.5223 11.2964 16.2623 11.3864C15.8423 11.5664 15.3123 11.6464 14.7223 11.6464C12.2223 11.6464 10.6423 10.1264 10.6423 7.6964C10.6423 7.0564 10.7423 6.3764 10.9423 5.9864C11.0723 5.7264 11.0523 5.4964 10.9323 5.3364C10.8023 5.1764 10.5323 5.1464 10.2423 5.2764C8.4423 5.9964 7.2223 7.8764 7.2223 10.0064C7.2223 11.1064 7.5323 12.0964 8.1123 12.9164ZM6.4323 14.6464H18.5323C18.7723 14.6464 18.9723 14.4564 18.9723 14.2164C18.9723 13.9564 18.7723 13.7664 18.5323 13.7664H6.4323C6.1723 13.7664 5.9723 13.9564 5.9723 14.2164C5.9723 14.4564 6.1723 14.6464 6.4323 14.6464ZM5.6723 16.3164H17.7623C18.0223 16.3164 18.2123 16.1264 18.2123 15.8664C18.2123 15.6164 18.0223 15.4364 17.7623 15.4364H5.6723C5.4223 15.4364 5.2223 15.6164 5.2223 15.8664C5.2223 16.1264 5.4223 16.3164 5.6723 16.3164ZM6.4323 17.9764H18.5323C18.7723 17.9764 18.9723 17.7864 18.9723 17.5264C18.9723 17.2864 18.7723 17.0864 18.5323 17.0864H6.4323C6.1723 17.0864 5.9723 17.2864 5.9723 17.5264C5.9723 17.7864 6.1723 17.9764 6.4323 17.9764Z" />
        </svg>
    