
        <svg xmlns="http://www.w3.org/2000/svg" viewBox="0 0 100 100">
            <path d="M2.3717 16.5841H26.4517C26.7817 16.5841 27.0517 16.3341 27.0517 15.9941C27.0517 15.6641 26.7817 15.4141 26.4517 15.4141H19.5217C20.5917 14.6241 21.4417 13.5841 21.9917 12.3241C22.1717 11.9441 22.1417 11.6041 21.9417 11.3941C21.7617 11.2141 21.4617 11.1641 21.1017 11.3041C20.2817 11.6241 19.3517 11.7841 18.1617 11.7841C13.4517 11.7841 10.5217 8.9041 10.5217 4.2541C10.5217 3.0741 10.7317 1.8741 11.1017 1.1341C11.2717 0.7741 11.2717 0.4141 11.0617 0.1941C10.8517 -0.0259 10.5017 -0.0759 10.0617 0.1141C6.9917 1.5041 4.8917 4.6941 4.8917 8.4841C4.8917 11.3541 6.0717 13.8541 8.1417 15.4141H2.3717C2.0317 15.4141 1.7717 15.6641 1.7717 15.9941C1.7717 16.3341 2.0317 16.5841 2.3717 16.5841ZM6.2717 8.4041C6.2717 5.6941 7.6217 3.3441 9.5817 1.8541C9.3417 2.5641 9.2017 3.5541 9.2017 4.5441C9.2017 9.7341 12.6417 13.1241 17.9217 13.1241C18.7517 13.1241 19.6217 12.9941 20.2217 12.8341C19.4517 13.9641 18.2817 14.8741 16.8617 15.4141H10.7817C7.9817 14.2941 6.2717 11.6341 6.2717 8.4041ZM0.6017 21.0941H24.6817C25.0117 21.0941 25.2817 20.8341 25.2817 20.5041C25.2817 20.1641 25.0117 19.9241 24.6817 19.9241H0.6017C0.2717 19.9241 0.0017 20.1641 0.0017 20.5041C0.0017 20.8341 0.2717 21.0941 0.6017 21.0941ZM2.3717 25.5941H26.4517C26.7817 25.5941 27.0517 25.3341 27.0517 25.0041C27.0517 24.6641 26.7817 24.4241 26.4517 24.4241H2.3717C2.0317 24.4241 1.7717 24.6641 1.7717 25.0041C1.7717 25.3341 2.0317 25.5941 2.3717 25.5941Z" />
        </svg>
    