
        <svg xmlns="http://www.w3.org/2000/svg" viewBox="0 0 100 100">
            <path d="M21.3017 0.0044C21.1517 0.0044 21.0217 0.1244 21.0217 0.2844V6.9444L21.0617 9.1144L19.7217 7.7444L17.6917 5.6744C17.6217 5.6044 17.5417 5.5644 17.4717 5.5644C17.3217 5.5644 17.1917 5.6944 17.1917 5.8744C17.1917 5.9844 17.2517 6.0844 17.3417 6.1844L21.0917 9.9144C21.1417 9.9744 21.2317 10.0044 21.3017 10.0044C21.3717 10.0044 21.4717 9.9744 21.5317 9.9144L25.2617 6.1844C25.3717 6.0844 25.4317 5.9844 25.4317 5.8744C25.4317 5.6944 25.3017 5.5644 25.1417 5.5644C25.0617 5.5644 24.9917 5.6044 24.9117 5.6744L22.8917 7.7444L21.5517 9.1144L21.6017 6.9444V0.2844C21.6017 0.1244 21.4717 0.0044 21.3017 0.0044ZM0.3117 22.5344H29.7217C29.8917 22.5344 30.0317 22.4144 30.0317 22.2644C30.0317 22.1044 29.8917 21.9844 29.7217 21.9844H19.9917C21.7417 21.0444 23.1217 19.6244 24.0517 17.9044C24.3617 17.2944 23.9217 16.8544 23.4117 17.1044C22.4017 17.5444 21.1917 17.8044 19.8517 17.8044C14.1817 17.8044 11.1917 14.8044 11.1917 9.1444C11.1917 7.8044 11.4517 6.5844 11.8817 5.5744C12.1317 5.0744 11.6817 4.6244 11.0817 4.9444C7.9417 6.6244 5.8117 9.8444 5.8117 13.8944C5.8117 17.6044 7.4217 20.4644 10.1217 21.9844H0.3117C0.1417 21.9844 0.0017 22.1044 0.0017 22.2644C0.0017 22.4144 0.1417 22.5344 0.3117 22.5344ZM6.3917 13.8944C6.3917 10.2444 8.5317 7.1344 11.3217 5.4444C10.8717 6.3544 10.6217 7.7544 10.6217 9.1444C10.6217 15.0744 13.9117 18.3744 19.8417 18.3744C21.2117 18.3744 22.6417 18.1144 23.5417 17.6644C22.3917 19.5544 20.5917 21.1544 18.4117 21.9844H11.4917C8.3017 20.7744 6.3917 17.8744 6.3917 13.8944Z" />
        </svg>
    