
        <svg xmlns="http://www.w3.org/2000/svg" viewBox="0 0 100 100">
            <path d="M2.6117 16.9328H26.1917C26.6717 16.9328 27.0517 16.5828 27.0517 16.1128C27.0517 15.6328 26.6717 15.2828 26.1917 15.2828H20.4017C21.2217 14.5328 21.8917 13.6128 22.3217 12.5628C22.5817 12.0028 22.5317 11.5028 22.2417 11.2028C21.9717 10.9428 21.5117 10.8928 21.0217 11.1128C20.2617 11.4228 19.3317 11.5928 18.2617 11.5928C13.8617 11.5928 11.0817 8.8928 11.0817 4.6128C11.0817 3.5128 11.3017 2.3228 11.6517 1.5828C11.8917 1.0528 11.8817 0.5728 11.6117 0.2828C11.3217 -0.0272 10.8517 -0.0972 10.2517 0.1428C6.9417 1.4828 4.6917 4.8928 4.6917 8.7528C4.6917 11.3428 5.6517 13.6628 7.3817 15.2828H2.6117C2.1317 15.2828 1.7717 15.6328 1.7717 16.1128C1.7717 16.5828 2.1317 16.9328 2.6117 16.9328ZM6.8417 8.6628C6.8417 6.4528 7.7817 4.4328 9.3017 3.0828C9.1617 3.6628 9.0917 4.4028 9.0917 5.0928C9.0917 10.2028 12.5517 13.5828 17.7817 13.5828C18.2717 13.5828 18.8117 13.5228 19.3017 13.4528C18.6217 14.2528 17.6917 14.8828 16.5817 15.2828H11.2817C8.5417 14.2728 6.8417 11.7428 6.8417 8.6628ZM0.8417 21.4328H24.4317C24.9017 21.4328 25.2817 21.0828 25.2817 20.6128C25.2817 20.1428 24.9017 19.7828 24.4317 19.7828H0.8417C0.3717 19.7828 0.0017 20.1428 0.0017 20.6128C0.0017 21.0828 0.3717 21.4328 0.8417 21.4328ZM2.6117 25.9328H26.1917C26.6717 25.9328 27.0517 25.5828 27.0517 25.1128C27.0517 24.6428 26.6717 24.2928 26.1917 24.2928H2.6117C2.1317 24.2928 1.7717 24.6428 1.7717 25.1128C1.7717 25.5828 2.1317 25.9328 2.6117 25.9328Z" />
        </svg>
    