
        <svg xmlns="http://www.w3.org/2000/svg" viewBox="0 0 100 100">
            <path d="M12.6023 25.1969C19.5623 25.1969 25.2023 19.5569 25.2023 12.5969C25.2023 5.6369 19.5623 -0.0031 12.6023 -0.0031C5.6523 -0.0031 0.0023 5.6369 0.0023 12.5969C0.0023 19.5569 5.6523 25.1969 12.6023 25.1969ZM8.2723 12.6869C7.8823 11.9769 7.6723 11.1469 7.6723 10.2669C7.6723 8.1569 8.9323 6.2669 10.8023 5.5169C11.2023 5.3669 11.5223 5.3869 11.7023 5.5969C11.8723 5.7869 11.8823 6.0869 11.7223 6.4469C11.5223 6.9169 11.4223 7.5069 11.4223 8.0769C11.4223 10.2669 12.8523 11.6269 15.1123 11.6269C15.6523 11.6269 16.1523 11.5469 16.5323 11.3569C16.8623 11.2169 17.1723 11.2369 17.3623 11.4169C17.5623 11.5969 17.5923 11.9569 17.4423 12.3269C17.3823 12.4569 17.3223 12.5769 17.2223 12.6869ZM6.7923 14.7969C6.4723 14.7969 6.2123 14.5469 6.2123 14.2169C6.2123 13.8869 6.4723 13.6369 6.7923 13.6369H18.0023C18.3323 13.6369 18.5823 13.8869 18.5823 14.2169C18.5823 14.5469 18.3323 14.7969 18.0023 14.7969ZM7.1823 16.7669C6.8523 16.7669 6.6123 16.5269 6.6123 16.1969C6.6123 15.8669 6.8523 15.6069 7.1823 15.6069H18.3823C18.7123 15.6069 18.9723 15.8669 18.9723 16.1969C18.9723 16.5269 18.7123 16.7669 18.3823 16.7669ZM6.7923 18.7469C6.4723 18.7469 6.2123 18.4969 6.2123 18.1669C6.2123 17.8469 6.4723 17.5769 6.7923 17.5769H18.0023C18.3323 17.5769 18.5823 17.8469 18.5823 18.1669C18.5823 18.4969 18.3323 18.7469 18.0023 18.7469Z" />
        </svg>
    