
        <svg xmlns="http://www.w3.org/2000/svg" viewBox="0 0 100 100">
            <path d="M22.9117 0.0033C22.1117 0.0033 21.4717 0.6833 21.4717 1.4733L21.4817 6.0933L21.7717 8.2733L21.0917 7.1233L20.2717 6.1333C19.9717 5.7433 19.6217 5.4533 19.0617 5.4533C18.2917 5.4533 17.7217 6.0433 17.7217 6.7633C17.7217 7.2433 18.0117 7.6633 18.3917 8.0133L21.7817 11.2633C22.1617 11.6133 22.4717 11.7533 22.9117 11.7533C23.3417 11.7533 23.6617 11.6133 24.0217 11.2633L27.4217 8.0133C27.8017 7.6633 28.0917 7.2433 28.0917 6.7633C28.0917 6.0433 27.5117 5.4533 26.7417 5.4533C26.2017 5.4533 25.8517 5.7433 25.5517 6.1333L24.7417 7.1133L24.0517 8.2733L24.3317 6.0933L24.3417 1.4733C24.3417 0.6833 23.6917 0.0033 22.9117 0.0033ZM5.6117 20.1433H24.1417C24.3017 19.8233 24.4617 19.5133 24.6017 19.1833C25.1817 17.7233 24.0117 16.4633 22.4617 17.0733C21.4417 17.4833 20.2717 17.7433 19.2117 17.7333C14.9617 17.7333 12.8417 15.5933 12.8417 11.3633C12.8317 10.3033 13.0917 9.1333 13.5017 8.1133C14.1217 6.5433 12.8517 5.3833 11.3917 5.9733C7.4417 7.5633 4.8117 11.4733 4.8117 15.7833C4.8017 17.4033 5.0817 18.8533 5.6117 20.1433ZM1.8117 25.8033H28.2217C29.2417 25.8033 30.0317 24.9133 30.0317 23.9333C30.0317 22.9033 29.2517 22.0533 28.2217 22.0533H1.8117C0.8017 22.0533 0.0017 22.9333 0.0017 23.9333C0.0017 24.8833 0.8117 25.8033 1.8117 25.8033Z" />
        </svg>
    