
        <svg xmlns="http://www.w3.org/2000/svg" viewBox="0 0 100 100">
            <path d="M12.1017 24.2147C18.7817 24.2147 24.2117 18.7847 24.2117 12.1047C24.2117 5.4247 18.7817 0.0047 12.1017 0.0047C5.4217 0.0047 0.0017 5.4247 0.0017 12.1047C0.0017 18.7847 5.4217 24.2147 12.1017 24.2147ZM14.9917 4.9647C15.3617 4.9647 15.6417 5.2947 15.6417 5.6747V8.2147L15.6217 8.6247L15.7217 8.5347L16.3917 7.8147C16.5017 7.6947 16.7017 7.6047 16.8717 7.6047C17.2117 7.6047 17.4717 7.8647 17.4717 8.1947C17.4717 8.3647 17.4017 8.5147 17.2417 8.6747L15.4417 10.3547C15.2917 10.5047 15.1517 10.5547 14.9917 10.5547C14.8217 10.5547 14.6817 10.5047 14.5217 10.3547L12.7417 8.6747C12.5717 8.5147 12.5017 8.3647 12.5017 8.1947C12.5017 7.8647 12.7617 7.6047 13.1017 7.6047C13.2817 7.6047 13.4517 7.6947 13.5817 7.8247L14.3217 8.5647L14.3517 8.6047L14.3317 8.2147V5.6747C14.3317 5.2947 14.6117 4.9647 14.9917 4.9647ZM7.8917 15.3647C7.3117 14.5347 6.9717 13.5147 6.9717 12.3747C6.9717 10.1447 8.2517 8.2047 10.1217 7.4447C10.4317 7.3147 10.7117 7.3447 10.8517 7.5147C10.9717 7.6847 10.9917 7.9247 10.8617 8.1947C10.6517 8.6047 10.5317 9.3147 10.5317 9.9747C10.5317 12.4847 12.1717 14.0747 14.7617 14.0747C15.3917 14.0747 15.9417 13.9847 16.3717 13.7947C16.6417 13.6847 16.8617 13.7247 17.0017 13.8447C17.1517 14.0147 17.1817 14.2747 17.0617 14.5547C16.9317 14.8447 16.7817 15.1247 16.5817 15.3647ZM5.9417 17.6447C5.5517 17.6447 5.2117 17.3447 5.2117 16.9547C5.2117 16.5747 5.5417 16.2547 5.9417 16.2547H18.2717C18.6717 16.2547 18.9917 16.5747 18.9917 16.9547C18.9917 17.3447 18.6517 17.6447 18.2717 17.6447Z" />
        </svg>
    