
        <svg xmlns="http://www.w3.org/2000/svg" viewBox="0 0 100 100">
            <path d="M11.9523 23.9023C18.5523 23.9023 23.9023 18.5523 23.9023 11.9523C23.9023 5.3623 18.5523 0.0023 11.9523 0.0023C5.3623 0.0023 0.0023 5.3623 0.0023 11.9523C0.0023 18.5523 5.3623 23.9023 11.9523 23.9023ZM12.0723 19.0123C8.2923 19.0123 5.2423 15.9523 5.2423 12.1723C5.2423 9.3423 6.9923 6.8923 9.5023 5.8523C9.6023 5.8023 9.7423 5.7723 9.8523 5.7723C10.1023 5.7723 10.2823 5.9423 10.2823 6.1723C10.2823 6.2723 10.2523 6.3523 10.2023 6.4523C9.8923 7.2623 9.7023 8.1423 9.7023 8.9723C9.7023 12.4123 11.9523 14.6523 15.4923 14.6523C16.2923 14.6523 17.0423 14.4623 17.5623 14.3223C17.7323 14.2723 17.8523 14.2523 17.9423 14.2523C18.1323 14.2523 18.3423 14.4123 18.3423 14.6623C18.3423 14.7223 18.3323 14.8723 18.2723 15.0223C17.3123 17.1823 14.9723 19.0123 12.0723 19.0123Z" />
        </svg>
    