
        <svg xmlns="http://www.w3.org/2000/svg" viewBox="0 0 100 100">
            <path d="M11.4923 22.9836C17.8123 22.9836 22.9823 17.8136 22.9823 11.4836C22.9823 5.1536 17.8123 0.0036 11.4923 0.0036C5.1723 0.0036 0.0023 5.1536 0.0023 11.4836C0.0023 17.8136 5.1723 22.9836 11.4923 22.9836ZM7.7323 13.1736C6.7923 12.2236 6.2723 10.8836 6.2723 9.3536C6.2723 7.0436 7.4923 5.1936 9.2923 4.2736C9.4923 4.1636 9.6923 4.1736 9.7923 4.2736C9.8923 4.3936 9.9123 4.5536 9.8323 4.7436C9.5723 5.2636 9.4423 5.9536 9.4423 6.7036C9.4423 9.7636 11.2823 11.6136 14.3423 11.6136C15.1123 11.6136 15.6923 11.4836 16.2223 11.2936C16.3923 11.2136 16.5423 11.2536 16.6323 11.3336C16.7223 11.4136 16.7323 11.5936 16.6423 11.7536C16.3923 12.3036 16.0523 12.7836 15.6423 13.1736ZM5.6323 14.5036C5.4623 14.5036 5.3123 14.3936 5.3123 14.1936C5.3123 14.0136 5.4623 13.8736 5.6323 13.8736H18.7623C18.9523 13.8736 19.0923 14.0036 19.0923 14.1936C19.0923 14.3936 18.9523 14.5036 18.7623 14.5036ZM4.2223 16.0236C4.0423 16.0236 3.8923 15.8936 3.8923 15.7036C3.8923 15.5136 4.0423 15.3836 4.2223 15.3836H17.3423C17.5323 15.3836 17.6723 15.5036 17.6723 15.7036C17.6723 15.8936 17.5323 16.0236 17.3423 16.0236ZM5.6323 17.5236C5.4623 17.5236 5.3123 17.4036 5.3123 17.2036C5.3123 17.0236 5.4623 16.8936 5.6323 16.8936H18.7623C18.9523 16.8936 19.0923 17.0136 19.0923 17.2036C19.0923 17.4036 18.9523 17.5236 18.7623 17.5236Z" />
        </svg>
    