
        <svg xmlns="http://www.w3.org/2000/svg" viewBox="0 0 100 100">
            <path d="M12.8017 25.5961C19.8717 25.5961 25.6017 19.8661 25.6017 12.7961C25.6017 5.7261 19.8717 -0.0039 12.8017 -0.0039C5.7317 -0.0039 0.0017 5.7261 0.0017 12.7961C0.0017 19.8661 5.7317 25.5961 12.8017 25.5961ZM15.5717 11.2761C15.1217 11.2761 14.7417 10.8661 14.7417 10.4161V8.4461L14.7617 8.2061L14.8517 8.0861L14.4517 8.5561C14.3117 8.7561 14.1017 8.9461 13.7717 8.9461C13.3317 8.9461 12.9717 8.5761 12.9717 8.1661C12.9717 7.8661 13.1617 7.6361 13.3517 7.4561L14.9417 5.9261C15.1417 5.7461 15.3417 5.6561 15.5717 5.6561C15.8017 5.6561 15.9917 5.7461 16.1917 5.9261L17.7917 7.4561C17.9717 7.6361 18.1617 7.8661 18.1617 8.1661C18.1617 8.5761 17.8017 8.9461 17.3717 8.9461C17.0417 8.9461 16.8317 8.7561 16.6717 8.5561L16.3017 8.0861L16.3617 8.2061L16.3917 8.4461V10.4161C16.3917 10.8661 16.0117 11.2761 15.5717 11.2761ZM8.1017 15.3161C7.8117 14.6561 7.6317 13.9061 7.6317 13.1361C7.6317 11.0761 8.8917 9.2061 10.7817 8.4561C11.2017 8.2861 11.5417 8.3361 11.7417 8.5561C11.9317 8.7561 11.9417 9.0561 11.7817 9.4561C11.5617 9.9461 11.4617 10.5161 11.4617 11.0161C11.4617 13.0761 12.8017 14.3561 14.9517 14.3561C15.4417 14.3561 15.9217 14.2761 16.2817 14.0861C16.6417 13.9461 16.9917 13.9661 17.2017 14.1661C17.4117 14.3561 17.4417 14.7561 17.2617 15.1561C17.2417 15.2061 17.2117 15.2561 17.1817 15.3161ZM7.3217 18.3561C6.7617 18.3561 6.3017 17.8461 6.3017 17.3161C6.3017 16.7861 6.7517 16.2761 7.3217 16.2761H18.2717C18.8517 16.2761 19.3017 16.7661 19.3017 17.3161C19.3017 17.8561 18.8517 18.3561 18.2717 18.3561Z" />
        </svg>
    