
        <svg xmlns="http://www.w3.org/2000/svg" viewBox="0 0 100 100">
            <path d="M1.2308 18.6866H1.7808C2.3308 21.4666 4.7808 23.5466 7.7308 23.5466C10.6508 23.5466 13.0908 21.4566 13.6408 18.6866H20.9708C21.5408 21.4666 23.9708 23.5466 26.9308 23.5466C30.2708 23.5466 32.9608 20.8366 32.9608 17.5066C32.9608 14.1566 30.2708 11.4366 26.9308 11.4366C26.8208 11.4366 26.7108 11.4366 26.6008 11.4466L24.3308 0.7866C24.2108 0.2066 23.7408 -0.0034 23.0608 -0.0034H20.6408C20.1308 -0.0034 19.7308 0.4066 19.7308 0.9166C19.7308 1.4166 20.1308 1.8166 20.6408 1.8166H22.7208C22.8108 1.8166 22.8608 1.8366 22.8708 1.8966L23.8108 6.3766H21.4008C20.5308 6.3766 20.1108 6.8166 20.1108 7.7366V16.7966H14.8008V10.5466C14.8008 9.6166 14.3908 9.1966 13.5108 9.1966H7.3008C2.0808 9.1966 -0.5792 13.4066 0.1008 17.8566C0.1908 18.3766 0.5008 18.6866 1.2308 18.6866ZM28.2508 8.1466C28.6708 8.1866 28.8708 7.8466 28.7908 7.4366L28.1408 4.2966C28.0508 3.8866 27.7508 3.6866 27.3608 3.9066C27.0608 4.0666 26.7808 4.3266 26.5808 4.6266C25.8708 5.6566 26.1808 7.1166 27.2108 7.7766C27.5008 7.9766 27.8808 8.1166 28.2508 8.1466ZM7.0308 8.3066H13.9308C14.4408 8.3066 14.8308 7.8966 14.8308 7.3966C14.8308 6.9066 14.4208 6.4966 13.9308 6.4966H7.0308C6.5408 6.4966 6.1208 6.9066 6.1208 7.3966C6.1208 7.8966 6.5308 8.3066 7.0308 8.3066ZM21.9908 8.2666H24.2008L24.9408 11.7666C23.7408 12.1866 22.7208 12.9566 21.9908 13.9666ZM1.9308 16.7966C1.6708 13.8166 3.2808 11.0866 7.3008 11.0866H12.9108V16.7966ZM26.8908 19.0166C27.7408 19.0166 28.4208 18.3366 28.4208 17.4966C28.4208 16.8866 28.0908 16.3866 27.6008 16.1266L27.0008 13.3466C29.2508 13.3966 31.0608 15.2266 31.0608 17.4966C31.0608 19.7766 29.2008 21.6366 26.9208 21.6366C24.6108 21.6366 22.7608 19.7966 22.7608 17.4966C22.7608 15.7666 23.8108 14.2766 25.3208 13.6666L25.8908 16.3466C25.5908 16.6266 25.4208 17.0266 25.4008 17.4966C25.3908 18.3366 26.0308 19.0166 26.8908 19.0166ZM7.7208 21.6366C5.8308 21.6366 4.2508 20.4066 3.7408 18.6866H11.6808C11.1708 20.4066 9.5808 21.6366 7.7208 21.6366Z" />
        </svg>
    