
        <svg xmlns="http://www.w3.org/2000/svg" viewBox="0 0 100 100">
            <path d="M35.8117 26.4114C39.7217 26.4114 42.8917 23.2314 42.8917 19.3114C42.8917 15.3914 39.7217 12.1914 35.8117 12.1914C35.5817 12.1914 35.3417 12.2014 35.1117 12.2214L31.7917 1.1114C31.5617 0.3414 30.9017 0.0014 30.0017 0.0014H26.0417C25.2617 0.0014 24.6317 0.6314 24.6317 1.4014C24.6317 2.1814 25.2617 2.8114 26.0417 2.8114H29.3317C29.4517 2.8114 29.5217 2.8514 29.5517 2.9514L32.4817 13.0114C30.2217 14.2014 28.6917 16.5814 28.6917 19.3114C28.6917 23.2414 31.8617 26.4114 35.8117 26.4114ZM37.3817 9.9214C37.9617 9.9714 38.2117 9.5314 38.1117 8.9914L37.2417 4.7914C37.1217 4.2514 36.7117 3.9914 36.2117 4.2614C35.7917 4.5014 35.4217 4.8414 35.1517 5.2414C34.2217 6.6114 34.6217 8.5514 36.0017 9.4314C36.4017 9.7014 36.8917 9.8814 37.3817 9.9214ZM7.1117 26.4114C11.0417 26.4114 14.2017 23.2314 14.2017 19.3114C14.2017 18.1214 13.9117 16.9914 13.3917 16.0114L15.4117 14.4214C17.1217 16.1414 19.2617 17.3414 21.9917 17.5814L20.6017 19.3214C20.4917 19.4614 20.4217 19.5014 20.1917 19.5014H17.3417C16.5717 19.5014 15.9417 20.1314 15.9417 20.9014C15.9417 21.6814 16.5717 22.3014 17.3417 22.3014H20.8317C21.5817 22.3014 21.9717 22.0814 22.3617 21.5714L25.7117 17.2514C28.2917 16.4914 29.8317 14.5814 29.8317 11.9614C29.8317 9.0114 27.9617 6.8914 24.5317 6.8714C21.9517 6.8414 19.5717 7.7714 15.7817 10.7214L11.7217 13.9014C10.4917 12.8314 8.8817 12.1914 7.1117 12.1914C3.1617 12.1914 0.0017 15.3914 0.0017 19.3114C0.0017 23.2414 3.1617 26.4114 7.1117 26.4114ZM8.4717 9.7114H14.4117C15.1917 9.7114 15.8217 9.0914 15.8217 8.3214C15.8217 7.5514 15.1917 6.9114 14.4117 6.9114H8.4717C7.7017 6.9114 7.0617 7.5514 7.0617 8.3214C7.0617 9.0914 7.6917 9.7114 8.4717 9.7114ZM7.1017 21.3514C8.2217 21.3514 9.1317 20.4614 9.1517 19.3214L11.2017 17.7214C11.3917 18.2114 11.4917 18.7414 11.4917 19.2914C11.4917 21.7314 9.5317 23.6814 7.1017 23.6814C4.6617 23.6814 2.7117 21.7414 2.7117 19.2914C2.7117 16.8614 4.6717 14.9214 7.1017 14.9214C7.9917 14.9214 8.8217 15.1714 9.5117 15.6314L7.4217 17.2614C7.3117 17.2514 7.2117 17.2514 7.1017 17.2514C5.9517 17.2514 5.0717 18.1314 5.0617 19.2914C5.0417 20.4414 5.9417 21.3514 7.1017 21.3514ZM35.8017 21.3414C36.9417 21.3414 37.8517 20.4414 37.8517 19.2914C37.8517 18.4614 37.3717 17.7414 36.6717 17.4214L35.9217 14.9214C38.2717 14.9814 40.1817 16.9014 40.1817 19.2914C40.1817 21.7314 38.2117 23.6814 35.8017 23.6814C33.3617 23.6814 31.4017 21.7414 31.4017 19.2914C31.4017 17.8014 32.1417 16.4914 33.2717 15.7014L34.0217 18.2614C33.8517 18.5614 33.7617 18.9014 33.7517 19.2914C33.7417 20.4414 34.6317 21.3414 35.8017 21.3414Z" />
        </svg>
    