
        <svg xmlns="http://www.w3.org/2000/svg" viewBox="0 0 100 100">
            <path d="M0.3117 8.5458C0.3117 9.6358 1.0817 10.6358 2.4817 10.6358H21.3917C22.7917 10.6358 23.5517 9.6358 23.5517 8.5458C23.5517 7.7458 23.2017 6.9058 22.3917 6.3658L14.4417 0.8458C13.6017 0.2658 12.7717 -0.0042 11.9317 -0.0042C11.1017 -0.0042 10.2617 0.2658 9.4317 0.8458L1.4717 6.3658C0.6717 6.9058 0.3117 7.7458 0.3117 8.5458ZM0.0017 14.9558C0.0017 15.9658 0.8317 16.8558 1.8617 16.8558H22.0317C23.0717 16.8558 23.8817 15.9858 23.8817 14.9558C23.8817 13.8958 23.0817 13.0558 22.0317 13.0558H1.8617C0.8217 13.0558 0.0017 13.9058 0.0017 14.9558ZM0.3017 21.3658C0.3017 22.1558 0.6517 23.0058 1.4617 23.5458L9.4217 29.0658C10.2517 29.6258 11.0817 29.9058 11.9317 29.9058C12.7617 29.9058 13.6017 29.6258 14.4417 29.0658L22.3817 23.5458C23.1917 23.0058 23.5517 22.1558 23.5517 21.3658C23.5517 20.2758 22.7817 19.2658 21.3717 19.2658H2.4717C1.0817 19.2658 0.3017 20.2758 0.3017 21.3658Z" />
        </svg>
    