
        <svg xmlns="http://www.w3.org/2000/svg" viewBox="0 0 100 100">
            <path d="M1.7617 9.8831H20.7917C22.4017 9.8831 22.5617 8.0731 21.5817 7.3531L12.9017 0.6931C11.6717 -0.2269 10.8717 -0.2269 9.6417 0.6931L0.9617 7.3531C-0.0083 8.0731 0.1417 9.8831 1.7617 9.8831ZM3.6317 8.1331C3.3517 8.1331 3.2717 7.8031 3.4917 7.6331L10.5617 2.2131C10.9417 1.9231 11.6017 1.9331 11.9717 2.2131L19.0517 7.6331C19.2817 7.8031 19.1917 8.1331 18.9117 8.1331ZM0.9917 14.7231H21.5517C22.0917 14.7231 22.5517 14.2531 22.5517 13.7031C22.5517 13.1531 22.0917 12.6731 21.5517 12.6731H0.9917C0.4617 12.6731 0.0017 13.1531 0.0017 13.7031C0.0017 14.2531 0.4617 14.7231 0.9917 14.7231ZM1.7617 17.5231C0.1417 17.5231 -0.0083 19.3131 0.9617 20.0531L9.6417 26.7131C10.8717 27.6331 11.6717 27.6331 12.9017 26.7131L21.5817 20.0531C22.5617 19.3131 22.4017 17.5231 20.7917 17.5231ZM3.6317 19.2731H18.9117C19.1917 19.2731 19.2817 19.5831 19.0517 19.7731L11.9717 25.1831C11.6017 25.4631 10.9417 25.4831 10.5617 25.1831L3.4917 19.7731C3.2717 19.5831 3.3517 19.2731 3.6317 19.2731Z" />
        </svg>
    