
        <svg xmlns="http://www.w3.org/2000/svg" viewBox="0 0 100 100">
            <path d="M0.14 8.5792C0.14 9.4192 0.73 10.2092 1.86 10.2092H20.85C21.97 10.2092 22.57 9.4192 22.57 8.5792C22.57 7.9792 22.3 7.3592 21.7 6.9392L13.24 0.6792C12.61 0.2192 11.99 -0.0008 11.36 -0.0008C10.72 -0.0008 10.1 0.2192 9.46 0.6792L1.01 6.9392C0.41 7.3592 0.14 7.9792 0.14 8.5792ZM0 14.2292C0 15.0092 0.59 15.6192 1.38 15.6192H21.33C22.13 15.6192 22.72 15.0092 22.72 14.2292C22.72 13.4292 22.14 12.8392 21.33 12.8392H1.38C0.59 12.8392 0 13.4392 0 14.2292ZM0.12 19.8892C0.12 20.4892 0.39 21.1092 0.98 21.5292L9.43 27.7892C10.08 28.2392 10.69 28.4692 11.33 28.4692C11.96 28.4692 12.59 28.2392 13.22 27.7892L21.68 21.5292C22.28 21.1092 22.55 20.4892 22.55 19.8892C22.55 19.0392 21.95 18.2592 20.82 18.2592H1.84C0.7 18.2592 0.12 19.0392 0.12 19.8892Z" />
        </svg>
    