
        <svg xmlns="http://www.w3.org/2000/svg" viewBox="0 0 100 100">
            <path d="M0.8793 7.3719C5.2593 12.6519 9.4393 15.4619 15.2593 15.4619C21.0593 15.4619 25.2393 12.6519 29.6193 7.3719C31.1593 5.5119 30.6693 3.3519 28.3093 3.0719C25.1193 2.7119 23.9193 0.0019 20.2193 0.0019C17.3293 0.0019 15.6293 2.1219 15.2593 2.1219C14.8793 2.1219 13.1693 0.0019 10.2893 0.0019C6.5793 0.0019 5.3893 2.7119 2.1893 3.0719C-0.1707 3.3519 -0.6507 5.5119 0.8793 7.3719ZM14.5993 6.7719C13.9493 6.4019 12.9393 5.7219 11.0493 5.7219C10.4593 5.7219 9.8593 5.8119 9.2793 5.8819C7.0593 6.1419 4.7293 6.0119 2.5293 5.0819L3.2693 4.9319C6.9893 4.2319 8.1793 2.2619 10.4193 2.2619C11.5493 2.2619 12.3693 2.8319 13.1893 3.4319C14.0393 4.0419 14.5793 4.3819 15.2593 4.3819C15.9193 4.3819 16.4693 4.0419 17.3193 3.4319C18.1393 2.8319 18.9493 2.2619 20.0993 2.2619C22.3293 2.2619 23.5093 4.2319 27.2293 4.9319L27.9793 5.0819C25.7993 6.0219 23.4793 6.1419 21.2593 5.8819C20.6493 5.8019 20.0393 5.7219 19.4493 5.7219C17.5593 5.7219 16.5393 6.4019 15.8993 6.7719C15.5993 6.9619 15.3693 7.0519 15.2593 7.0519C15.1293 7.0519 14.8993 6.9619 14.5993 6.7719ZM15.2593 9.1019C16.9393 9.1019 17.2193 7.7619 19.5793 7.7719C21.6493 7.7719 24.1893 8.5419 27.3793 6.8519C24.1593 10.1119 20.4093 13.1919 15.2593 13.1919C10.0893 13.1919 6.3293 10.1019 3.0993 6.8419C6.3093 8.5419 8.8293 7.7719 10.9193 7.7719C13.2793 7.7619 13.5693 9.1019 15.2593 9.1019Z" />
        </svg>
    