
        <svg xmlns="http://www.w3.org/2000/svg" viewBox="0 0 100 100">
            <path d="M0.1867 21.277C-0.3033 22.397 0.2067 23.327 1.4367 23.467L6.3267 24.047C8.0367 24.237 8.9867 22.997 8.1267 21.507L7.5767 20.537L13.5467 17.537L19.5067 20.537L18.9567 21.507C18.1067 22.997 19.0667 24.237 20.7667 24.047L25.6467 23.467C26.8767 23.327 27.3967 22.397 26.9167 21.277L24.9467 16.757C24.2767 15.207 22.6967 15.007 21.8667 16.447L21.1767 17.667L15.2067 14.667V7.527H16.4367C18.1567 7.527 18.7867 6.087 17.7367 4.707L14.7967 0.747C14.0467 -0.253 13.0067 -0.253 12.2667 0.757L9.3367 4.697C8.3167 6.057 8.9367 7.527 10.6167 7.527H11.8767V14.667L5.9167 17.667L5.2267 16.447C4.3967 15.007 2.8067 15.207 2.1467 16.757Z" />
        </svg>
    