
        <svg xmlns="http://www.w3.org/2000/svg" viewBox="0 0 100 100">
            <path d="M0.1327 19.6467C-0.1973 20.3967 0.0927 20.8767 0.8927 20.9667L5.7427 21.4967C6.8227 21.6267 7.4527 20.9567 6.8827 19.9767L6.0627 18.5467L12.2827 15.4167L18.5227 18.5467L17.6827 19.9767C17.1127 20.9567 17.7527 21.6267 18.8227 21.4967L23.6727 20.9667C24.4727 20.8767 24.7627 20.3967 24.4327 19.6467L22.4727 15.1767C22.0327 14.1967 21.1427 13.9967 20.5927 14.9567L19.4527 16.9267L13.2327 13.7967V6.1767H15.1627C16.3127 6.1767 16.5627 5.2967 15.9127 4.4267L13.0327 0.4967C12.5427 -0.1633 12.0027 -0.1733 11.5127 0.4967L8.6427 4.4267C7.9927 5.2867 8.2627 6.1767 9.3927 6.1767H11.3427V13.7967L5.1227 16.9267L3.9927 14.9567C3.4327 13.9967 2.5327 14.1967 2.1127 15.1767Z" />
        </svg>
    