
        <svg xmlns="http://www.w3.org/2000/svg" viewBox="0 0 100 100">
            <path d="M2.1017 17.7103C3.4817 17.7103 4.1717 16.8503 4.1717 15.4703V7.0403H4.2617L5.8917 15.3603C6.1317 16.5303 6.7817 17.3403 7.9817 17.3403C9.1417 17.3403 9.8217 16.6103 10.0517 15.3603L11.6617 7.0403H11.7417V15.4703C11.7417 16.8403 12.4317 17.7103 13.8117 17.7103C15.1917 17.7103 15.9117 16.8503 15.9117 15.4703V3.1903C15.9117 1.1203 14.6917 0.0003 12.6017 0.0003C10.8417 0.0003 9.6917 0.6603 9.3617 2.5003L7.9417 10.4403L6.5017 2.5003C6.1717 0.7303 5.1017 0.0003 3.3017 0.0003C0.9717 0.0003 0.0017 1.3603 0.0017 3.1903V15.4703C0.0017 16.8403 0.7117 17.7103 2.1017 17.7103ZM34.2417 17.7103C35.8317 17.7103 36.6417 16.7703 36.6417 15.1803V10.7203H39.1417V15.1803C39.1417 16.6803 39.9017 17.7103 41.5517 17.7103C43.2417 17.7103 43.9717 16.6603 43.9717 15.1803V2.5403C43.9717 0.9603 43.1517 0.0003 41.5517 0.0003C40.0217 0.0003 39.1417 0.9103 39.1417 2.5403V6.8603H36.6417V2.5403C36.6417 0.6603 35.5317 0.0003 34.2417 0.0003C32.6517 0.0003 31.8117 0.9603 31.8117 2.5403V15.1803C31.8117 16.6203 32.5217 17.7103 34.2417 17.7103ZM20.7917 17.7103C22.5017 17.7103 23.2117 16.6403 23.2117 15.1903V12.6403H24.3917C27.8117 12.6403 29.7917 10.0203 29.7917 6.4903C29.7917 3.0703 28.0817 0.2903 24.7617 0.2903H20.8117C19.2317 0.2903 18.3717 1.2503 18.3717 2.8403V15.1903C18.3717 16.6503 19.1217 17.7103 20.7917 17.7103ZM23.2117 9.0603V3.9603H23.4517C24.7617 3.9603 25.0217 5.1803 25.0217 6.5003C25.0217 7.8503 24.7717 9.0603 23.4217 9.0603Z" />
        </svg>
    