
        <svg xmlns="http://www.w3.org/2000/svg" viewBox="0 0 100 100">
            <path d="M8.0517 24.7777H10.3017C15.2617 24.7777 18.3517 22.1677 18.3517 17.9977V17.7877H19.0517C21.1417 17.7877 22.4717 16.3877 22.4717 14.2877V9.5977C22.4717 7.4877 21.1417 6.0977 19.0517 6.0977H18.3517V3.2477C18.3517 1.1477 14.4417 -0.0023 9.1717 -0.0023C3.9117 -0.0023 0.0017 1.1477 0.0017 3.2477V17.9977C0.0017 22.1677 3.1017 24.7777 8.0517 24.7777ZM9.1717 3.8877C5.0717 3.8877 2.2417 3.4477 2.2417 2.7777C2.2417 2.1077 5.0717 1.6477 9.1717 1.6477C13.2817 1.6477 16.1117 2.1077 16.1117 2.7777C16.1117 3.4477 13.2817 3.8877 9.1717 3.8877ZM8.0517 23.0077C4.1817 23.0077 1.7717 21.0777 1.7717 17.9977V4.6077C3.3917 5.2577 6.0917 5.5477 9.1717 5.5477C12.2617 5.5477 14.9617 5.2577 16.5817 4.6077V17.9977C16.5817 21.0777 14.1717 23.0077 10.3017 23.0077ZM19.0517 7.8677C20.2417 7.8677 20.7117 8.3477 20.7117 9.5977V14.2877C20.7117 15.5277 20.2417 16.0177 19.0517 16.0177H18.3517V7.8677Z" />
        </svg>
    