
        <svg xmlns="http://www.w3.org/2000/svg" viewBox="0 0 100 100">
            <path d="M9.3517 27.4219H11.7217C17.2017 27.4219 20.8017 24.4819 21.0617 19.9119H21.7117C24.2417 19.9119 25.8517 18.2419 25.8517 15.6819V10.9419C25.8517 8.3819 24.2417 6.7219 21.7117 6.7219H21.0717V4.5319C21.0717 1.5719 16.7817 0.0019 10.5317 0.0019C4.2917 0.0019 0.0017 1.5719 0.0017 4.5319V19.3619C0.0017 24.2419 3.6517 27.4219 9.3517 27.4219ZM10.5317 5.0619C6.4717 5.0619 3.6317 4.6219 3.6317 3.9719C3.6317 3.3119 6.4717 2.8719 10.5317 2.8719C14.6017 2.8719 17.4417 3.3119 17.4417 3.9719C17.4417 4.6219 14.6017 5.0619 10.5317 5.0619ZM21.7117 9.6819C22.4717 9.6819 22.9017 10.1319 22.9017 10.9419V15.6819C22.9017 16.5019 22.4717 16.9419 21.7117 16.9419H21.0717V9.6819Z" />
        </svg>
    