
        <svg xmlns="http://www.w3.org/2000/svg" viewBox="0 0 100 100">
            <path d="M0.4303 15.6785C1.0103 16.2685 2.0003 16.2385 2.5603 15.6885L8.0503 10.1985L13.5303 15.6785C14.1103 16.2485 15.0803 16.2485 15.6703 15.6685C16.2503 15.0885 16.2403 14.1085 15.6803 13.5485L10.1903 8.0485L15.6803 2.5685C16.2403 1.9985 16.2503 1.0185 15.6703 0.4485C15.0803 -0.1415 14.1103 -0.1315 13.5303 0.4285L8.0503 5.9185L2.5603 0.4185C2.0003 -0.1315 1.0103 -0.1515 0.4303 0.4285C-0.1497 1.0185 -0.1297 2.0185 0.4203 2.5685L5.9203 8.0485L0.4203 13.5485C-0.1297 14.0985 -0.1497 15.0885 0.4303 15.6785Z" />
        </svg>
    