
        <svg xmlns="http://www.w3.org/2000/svg" viewBox="0 0 100 100">
            <path d="M3.9417 21.6491H27.0817C29.5517 21.6491 31.0317 20.1691 31.0317 17.6991V3.9491C31.0317 1.4691 29.5517 -0.0009 27.0817 -0.0009H3.9417C1.4617 -0.0009 0.0017 1.4691 0.0017 3.9491V17.6991C0.0017 20.1691 1.4617 21.6491 3.9417 21.6491ZM4.3917 18.2491C3.7417 18.2491 3.4017 17.9391 3.4017 17.2491V4.3991C3.4017 3.6991 3.7417 3.3991 4.3917 3.3991H26.6417C27.2817 3.3991 27.6317 3.6991 27.6317 4.3991V17.2491C27.6317 17.9391 27.2817 18.2491 26.6417 18.2491ZM18.8417 9.1591C19.5017 8.9991 19.6717 8.7991 19.6717 8.0991V5.7991C19.6717 5.2291 19.3917 5.0191 18.7417 5.1791L15.3417 6.0191C14.6817 6.1791 14.5317 6.3791 14.5317 7.0991V11.7791C14.5317 12.2191 14.5117 12.2591 14.0017 12.3891L12.9617 12.6691C11.7217 12.9891 10.9217 13.7391 10.9217 14.8491C10.9217 15.9291 11.7617 16.6791 12.9717 16.6791C14.7117 16.6791 15.9117 15.4291 15.9117 13.6791V10.2691C15.9117 9.9091 15.9617 9.8691 16.1617 9.8191ZM9.2017 26.1591H21.8317C22.6317 26.1591 23.2717 25.4791 23.2717 24.7291C23.2717 23.9791 22.6317 23.2991 21.8317 23.2991H9.2017C8.3917 23.2991 7.7617 23.9791 7.7617 24.7291C7.7617 25.4791 8.3917 26.1591 9.2017 26.1591Z" />
        </svg>
    