
        <svg xmlns="http://www.w3.org/2000/svg" viewBox="0 0 100 100">
            <path d="M1.2117 12.9417C1.5717 12.9417 1.8917 12.7517 2.1717 12.5017L13.8117 2.7417C13.9717 2.6017 14.1417 2.5417 14.3117 2.5417C14.4717 2.5417 14.6517 2.6017 14.8117 2.7417L26.4517 12.5017C26.7317 12.7517 27.0617 12.9417 27.4217 12.9417C28.1617 12.9417 28.6217 12.4217 28.6217 11.8117C28.6217 11.4817 28.4617 11.1417 28.1617 10.8817L25.0517 8.2817V3.4217C25.0517 2.9017 24.7117 2.5617 24.2017 2.5617H22.6217C22.0917 2.5617 21.7417 2.9017 21.7417 3.4217V5.5117L15.9517 0.6317C15.4317 0.2117 14.8717 0.0017 14.3117 0.0017C13.7417 0.0017 13.1817 0.2117 12.6717 0.6317L0.4617 10.8817C0.1517 11.1417 0.0017 11.4817 0.0017 11.8117C0.0017 12.4217 0.4617 12.9417 1.2117 12.9417ZM3.8017 22.4017C3.8017 24.0917 4.8517 25.1017 6.5717 25.1017H22.0317C23.7617 25.1017 24.8217 24.0917 24.8217 22.4017V13.4417L15.0217 5.2417C14.5817 4.8517 14.0317 4.8617 13.5817 5.2417L3.8017 13.4417ZM17.4017 14.2217L14.7417 14.8717C14.4917 14.9317 14.4117 15.0117 14.4117 15.4217V19.2117C14.4117 20.8817 13.2917 22.0617 11.6517 22.0617C10.4917 22.0617 9.7417 21.3517 9.7417 20.3517C9.7417 19.2517 10.5817 18.6117 11.6717 18.3317L12.7017 18.0517C13.2617 17.9017 13.3017 17.8217 13.3017 17.3217V12.3017C13.3017 11.6217 13.4417 11.4917 14.0117 11.3417L17.3417 10.5217C17.9617 10.3717 18.1517 10.5717 18.1517 11.0417V13.2817C18.1517 13.9417 17.9717 14.0817 17.4017 14.2217Z" />
        </svg>
    