
        <svg xmlns="http://www.w3.org/2000/svg" viewBox="0 0 100 100">
            <path d="M13.7717 5.1275V0.8375C13.7717 0.2675 13.3217 -0.0825 12.7717 0.0175L6.9917 1.2675C6.3417 1.4175 5.9917 1.7775 5.9917 2.3575L6.0217 15.2175C6.0617 15.8375 5.7517 16.2575 5.1917 16.3775L3.3417 16.7675C1.0617 17.2375 0.0017 18.3575 0.0017 20.0775C0.0017 21.8075 1.3117 22.9975 3.1917 22.9975C4.8717 22.9975 7.3517 21.7775 7.3517 18.4675V7.9175C7.3517 7.2475 7.5017 7.0775 8.1117 6.9475L13.1917 5.8175C13.5617 5.7475 13.7717 5.4775 13.7717 5.1275Z" />
        </svg>
    