
        <svg xmlns="http://www.w3.org/2000/svg" viewBox="0 0 100 100">
            <path d="M3.0117 19.4497H26.2817C28.2917 19.4497 29.3017 18.4797 29.3017 16.4397V3.0097C29.3017 0.9697 28.2917 -0.0003 26.2817 -0.0003H3.0117C1.0217 -0.0003 0.0017 0.9697 0.0017 3.0097V16.4397C0.0017 18.4797 1.0217 19.4497 3.0117 19.4497ZM18.3617 7.4497L15.4817 8.1597C15.2017 8.2197 15.0917 8.3297 15.0917 8.7897V13.0097C15.0917 14.7897 13.9017 16.0397 12.1417 16.0397C10.9117 16.0397 10.1217 15.2797 10.1217 14.2397C10.1217 13.0297 11.0617 12.3597 12.1717 12.0797L13.3117 11.7797C13.9217 11.6297 13.9717 11.5097 13.9717 10.9597V5.4297C13.9717 4.6997 14.1117 4.5797 14.7117 4.4297L18.3117 3.5297C18.9717 3.3597 19.1217 3.5697 19.1217 4.0397V6.4697C19.1217 7.1797 18.9617 7.3097 18.3617 7.4497ZM8.7517 23.4297H20.5417C21.0617 23.4297 21.4917 22.9997 21.4917 22.4797C21.4917 21.9497 21.0617 21.5297 20.5417 21.5297H8.7517C8.2417 21.5297 7.8017 21.9497 7.8017 22.4797C7.8017 22.9997 8.2417 23.4297 8.7517 23.4297Z" />
        </svg>
    