
        <svg xmlns="http://www.w3.org/2000/svg" viewBox="0 0 100 100">
            <path d="M1.5317 13.7019C1.9717 13.7019 2.3917 13.4919 2.7417 13.1819L3.8117 12.3019V22.8819C3.8117 24.7719 4.9717 25.9219 6.9417 25.9219H22.7917C24.7717 25.9219 25.9317 24.7619 25.9317 22.8819V12.3019L27.0017 13.1819C27.3517 13.4919 27.7717 13.7019 28.2117 13.7019C29.1417 13.7019 29.7417 13.0819 29.7417 12.2619C29.7417 11.8219 29.5217 11.3719 29.1317 11.0419L25.9317 8.3519V3.3119C25.9317 2.7819 25.5817 2.4219 25.0317 2.4219H22.8717C22.3317 2.4219 21.9717 2.7819 21.9717 3.3119V5.0319L16.9217 0.7819C16.2917 0.2619 15.5717 0.0019 14.8717 0.0019C14.1517 0.0019 13.4417 0.2619 12.8217 0.7819L0.6117 11.0419C0.2117 11.3719 0.0017 11.8219 0.0017 12.2619C0.0017 13.0819 0.6017 13.7019 1.5317 13.7019ZM7.9117 22.9019C7.2217 22.9019 6.8317 22.5019 6.8317 21.8019V9.7619L14.2217 3.5619C14.4217 3.3819 14.6517 3.2919 14.8717 3.2919C15.0817 3.2919 15.3017 3.3819 15.5117 3.5619L22.9117 9.7619V21.8019C22.9117 22.5019 22.5217 22.9019 21.8217 22.9019ZM18.4417 13.0919C19.0817 12.9419 19.2517 12.7619 19.2517 12.0619V9.7519C19.2517 9.2219 19.0117 9.0119 18.3517 9.1719L14.9417 10.0219C14.3117 10.1719 14.1517 10.3519 14.1517 11.0619V15.9719C14.1517 16.4519 14.1317 16.5119 13.5917 16.6519L12.5417 16.9319C11.3417 17.2419 10.5117 17.9519 10.5117 19.0819C10.5117 20.1319 11.3217 20.8719 12.5317 20.8719C14.2517 20.8719 15.4317 19.6419 15.4317 17.8919V14.2619C15.4317 13.8719 15.5017 13.8019 15.7217 13.7419Z" />
        </svg>
    