
        <svg xmlns="http://www.w3.org/2000/svg" viewBox="0 0 100 100">
            <path d="M12.7217 4.7275V0.6775C12.7217 0.2075 12.3717 -0.0725 11.9317 0.0175L6.6417 1.1575C6.1717 1.2475 5.9217 1.5275 5.9217 1.9775L6.0017 14.4475C6.0017 15.1775 5.6017 15.6875 4.9417 15.8275L3.1017 16.2175C1.0217 16.6475 0.0017 17.6475 0.0017 19.2575C0.0017 20.8275 1.1817 21.8975 2.9017 21.8975C4.5217 21.8975 6.7817 20.7975 6.7817 17.6575V7.4675C6.7817 6.6975 6.9917 6.4275 7.7317 6.2675L12.2817 5.2675C12.5617 5.2075 12.7217 5.0075 12.7217 4.7275Z" />
        </svg>
    