
        <svg xmlns="http://www.w3.org/2000/svg" viewBox="0 0 100 100">
            <path d="M11.7523 23.5048C18.2323 23.5048 23.5123 18.2348 23.5123 11.7548C23.5123 5.2748 18.2323 0.0048 11.7523 0.0048C5.2723 0.0048 0.0023 5.2748 0.0023 11.7548C0.0023 18.2348 5.2723 23.5048 11.7523 23.5048ZM17.2023 5.9048C18.3323 6.9948 18.2723 8.4648 17.1023 9.6448L13.4623 6.0248C14.6523 4.8548 16.0923 4.7948 17.2023 5.9048ZM12.0023 8.8548C11.8723 8.0648 12.1923 7.3048 12.9223 6.5648L16.5423 10.1848C15.8223 10.9248 15.0123 11.2748 14.2223 11.1548L12.3523 12.8648V17.6148C12.3523 17.9548 12.0923 18.2248 11.7423 18.2248C11.3823 18.2248 11.1223 17.9548 11.1223 17.6148V14.0348L7.8823 17.0248C7.5923 17.2848 7.2323 17.2848 6.9423 17.0148L5.9023 17.8348C5.7823 17.9248 5.6223 17.9148 5.4923 17.8048L5.3123 17.6248C5.1823 17.5048 5.1823 17.3348 5.2823 17.2048L6.0923 16.1948C5.8123 15.8748 5.8023 15.5248 6.0823 15.2248ZM6.7823 15.7548L7.3723 16.3348L13.2523 10.7848C13.0823 10.6748 12.9023 10.5348 12.7523 10.3548C12.5823 10.1848 12.4523 10.0048 12.3623 9.8048Z" />
        </svg>
    