
        <svg xmlns="http://www.w3.org/2000/svg" viewBox="0 0 100 100">
            <path d="M3.4017 20.3622H26.6217C28.7317 20.3622 30.0217 19.0922 30.0217 16.9722V3.4022C30.0217 1.2822 28.7317 0.0022 26.6217 0.0022H3.4017C1.2817 0.0022 0.0017 1.2822 0.0017 3.4022V16.9722C0.0017 19.0922 1.2817 20.3622 3.4017 20.3622ZM3.6117 17.8622C2.9217 17.8622 2.5217 17.4722 2.5217 16.7722V3.6022C2.5217 2.8922 2.9217 2.5122 3.6117 2.5122H26.4117C27.1017 2.5122 27.5017 2.8922 27.5017 3.6022V16.7722C27.5017 17.4722 27.1017 17.8622 26.4117 17.8622ZM18.4617 8.2522C19.0617 8.1022 19.2317 7.9422 19.2317 7.2522V4.9522C19.2317 4.4522 19.0217 4.2522 18.3917 4.4022L14.9717 5.2622C14.3517 5.4022 14.2217 5.5522 14.2217 6.2722V11.2922C14.2217 11.7822 14.1917 11.8522 13.6317 12.0022L12.5717 12.2822C11.4217 12.5722 10.5817 13.2522 10.5817 14.3922C10.5817 15.4222 11.3717 16.1622 12.5617 16.1622C14.2617 16.1622 15.4217 14.9422 15.4217 13.2222V9.4422C15.4217 9.0422 15.5017 8.9622 15.7417 8.9022ZM8.9417 24.5622H21.0817C21.7117 24.5622 22.2317 24.0322 22.2317 23.4122C22.2317 22.7922 21.7117 22.2622 21.0817 22.2622H8.9417C8.3017 22.2622 7.7917 22.7922 7.7917 23.4122C7.7917 24.0322 8.3017 24.5622 8.9417 24.5622Z" />
        </svg>
    