
        <svg xmlns="http://www.w3.org/2000/svg" viewBox="0 0 100 100">
            <path d="M0.0023 4.7858C0.0023 8.6858 3.9823 11.6558 8.9523 11.6558C12.4123 11.6558 15.2223 10.4658 16.9323 8.2658C18.6323 10.4658 21.4423 11.6558 24.9023 11.6558C29.8723 11.6558 33.8523 8.6858 33.8523 4.7858C33.8523 3.3958 33.4323 2.4858 32.5323 2.4858C32.2023 2.4858 31.8623 2.6858 31.6523 2.9958C31.0823 3.8458 30.0923 4.2958 28.8623 4.2958C25.4023 4.2958 24.4023 -0.0042 20.0423 -0.0042C18.7423 -0.0042 17.6623 0.4358 16.9323 1.2058C16.1923 0.4358 15.1123 -0.0042 13.8123 -0.0042C9.4523 -0.0042 8.4523 4.2958 4.9923 4.2958C3.8523 4.2958 2.8823 3.8458 2.1923 2.9758C1.9423 2.6858 1.6423 2.4858 1.3223 2.4858C0.4223 2.4858 0.0023 3.3958 0.0023 4.7858Z" />
        </svg>
    