
        <svg xmlns="http://www.w3.org/2000/svg" viewBox="0 0 100 100">
            <path d="M8.6023 11.1914C11.8723 11.1914 14.6023 10.0514 16.1323 8.0314C17.6723 10.0514 20.4023 11.1914 23.6823 11.1914C28.5123 11.1914 32.2823 8.3114 32.2823 4.6614C32.2823 3.5614 31.7623 2.8514 30.8123 2.8514C30.4823 2.8514 30.1323 3.0014 29.8223 3.2214C29.4823 3.4714 28.3923 4.1214 27.3823 4.1214C24.0023 4.1214 23.3623 0.0014 18.9523 0.0014C17.8223 0.0014 16.9023 0.3314 16.1323 0.9914C15.3823 0.3314 14.4523 0.0014 13.3223 0.0014C8.9223 0.0014 8.2823 4.1214 4.9023 4.1214C3.8923 4.1214 2.8023 3.4714 2.4623 3.2214C2.1423 3.0014 1.7923 2.8514 1.4723 2.8514C0.5323 2.8514 0.0023 3.5614 0.0023 4.6614C0.0023 8.3114 3.7723 11.1914 8.6023 11.1914ZM8.6023 10.3114C4.3223 10.3114 0.8623 7.8314 0.8623 4.6014C0.8623 3.8414 1.4923 3.6314 2.0123 3.9814C2.6523 4.4414 3.7823 5.0014 4.9023 5.0014C6.7523 5.0014 7.9723 3.9614 9.1323 2.9814C10.3223 1.9614 11.4823 0.8714 13.3223 0.8714C14.4423 0.8714 15.3623 1.2914 15.9423 2.0414C16.0323 2.1814 16.2323 2.1814 16.3223 2.0414C16.9223 1.2914 17.8523 0.8714 18.9523 0.8714C20.8023 0.8714 21.9623 1.9614 23.1523 2.9814C24.3023 3.9614 25.5323 5.0014 27.3823 5.0014C28.4923 5.0014 29.6223 4.4414 30.2723 3.9714C30.8123 3.6214 31.4023 3.8214 31.4023 4.6014C31.4023 7.8314 27.9623 10.3114 23.6823 10.3114C20.2723 10.3114 17.6123 9.0314 16.3923 6.8714C16.2823 6.6514 15.9923 6.6514 15.8923 6.8714C14.6723 9.0314 12.0123 10.3114 8.6023 10.3114Z" />
        </svg>
    