
        <svg xmlns="http://www.w3.org/2000/svg" viewBox="0 0 100 100">
            <path d="M12.7923 25.5978C19.8723 25.5978 25.6023 19.8678 25.6023 12.7978C25.6023 5.7278 19.8723 -0.0022 12.7923 -0.0022C5.7323 -0.0022 0.0023 5.7278 0.0023 12.7978C0.0023 19.8678 5.7323 25.5978 12.7923 25.5978ZM12.7923 21.4178C8.0323 21.4178 4.1723 17.5678 4.1723 12.7978C4.1723 8.0278 8.0323 4.1678 12.7923 4.1678C17.5623 4.1678 21.4323 8.0278 21.4323 12.7978C21.4323 17.5678 17.5623 21.4178 12.7923 21.4178ZM9.6823 18.1478C10.7123 18.1478 11.3123 17.4878 11.3123 16.3678V13.1278H11.4123L14.5323 17.2278C15.0823 17.9378 15.4523 18.1478 16.1323 18.1478C17.0023 18.1478 17.5423 17.5878 17.5423 16.6778V9.2478C17.5423 8.1278 16.9423 7.4678 15.9123 7.4678C14.8923 7.4678 14.2923 8.1178 14.2923 9.2478V12.3178H14.1823L11.1823 8.4878C10.5423 7.6778 10.2223 7.4678 9.5323 7.4678C8.6323 7.4678 8.0623 8.0978 8.0623 9.0378V16.3678C8.0623 17.4978 8.6523 18.1478 9.6823 18.1478Z" />
        </svg>
    