
        <svg xmlns="http://www.w3.org/2000/svg" viewBox="0 0 100 100">
            <path d="M3.6817 21.5722H17.8917C20.3517 21.5722 21.5717 20.3722 21.5717 17.9522V3.6322C21.5717 1.2222 20.3517 0.0022 17.8917 0.0022H3.6817C1.2317 0.0022 0.0017 1.2222 0.0017 3.6322V17.9522C0.0017 20.3722 1.2317 21.5722 3.6817 21.5722ZM3.7017 19.6922C2.5317 19.6922 1.8917 19.0622 1.8917 17.8522V3.7422C1.8917 2.5222 2.5317 1.8822 3.7017 1.8822H17.8717C19.0317 1.8822 19.6917 2.5222 19.6917 3.7422V17.8522C19.6917 19.0622 19.0317 19.6922 17.8717 19.6922ZM7.2517 16.1522C7.8117 16.1522 8.1417 15.8122 8.1417 15.2122V8.3922H8.2117L13.3217 15.5822C13.6417 16.0222 13.8717 16.1522 14.2617 16.1522C14.8317 16.1522 15.1917 15.7922 15.1917 15.1722V6.1322C15.1917 5.5422 14.8617 5.1922 14.3017 5.1922C13.7617 5.1922 13.4317 5.5622 13.4317 6.1322V13.0822H13.3617L8.2517 5.7522C7.9417 5.3322 7.6917 5.1922 7.3017 5.1922C6.7217 5.1922 6.4017 5.5822 6.4017 6.1722V15.2122C6.4017 15.7822 6.7117 16.1522 7.2517 16.1522Z" />
        </svg>
    