
        <svg xmlns="http://www.w3.org/2000/svg" viewBox="0 0 100 100">
            <path d="M12.6023 25.1986C19.5623 25.1986 25.2023 19.5586 25.2023 12.5986C25.2023 5.6386 19.5623 -0.0014 12.6023 -0.0014C5.6523 -0.0014 0.0023 5.6386 0.0023 12.5986C0.0023 19.5586 5.6523 25.1986 12.6023 25.1986ZM9.6123 18.0586C8.8723 18.0586 8.4623 17.6286 8.4623 16.8586V12.8786H7.7123C7.5323 12.8786 7.3723 12.7386 7.3723 12.5486C7.3723 12.3486 7.5323 12.1986 7.7123 12.1986H8.4623V8.5886C8.4623 7.6186 9.1723 7.0886 10.0623 7.0886C10.9323 7.0886 11.4623 7.5586 11.7423 8.2886L13.3323 12.1986H14.2623V8.2686C14.2623 7.5086 14.6723 7.0886 15.4123 7.0886C16.1523 7.0886 16.5623 7.5186 16.5623 8.2686V12.1986H17.4123C17.5923 12.1986 17.7523 12.3486 17.7523 12.5486C17.7523 12.7386 17.5923 12.8786 17.4123 12.8786H16.5623V16.5486C16.5623 17.4886 15.8923 18.0586 14.9523 18.0586C14.1023 18.0586 13.5723 17.6086 13.2923 16.8586L11.6623 12.8786H10.7623V16.8586C10.7623 17.6286 10.3623 18.0586 9.6123 18.0586ZM10.7623 12.1986H11.3823L10.8023 10.9286H10.7623ZM13.6123 12.8786L14.2023 14.2286H14.2623V12.8786Z" />
        </svg>
    