
        <svg xmlns="http://www.w3.org/2000/svg" viewBox="0 0 100 100">
            <path d="M3.6217 21.5739C4.6317 21.5739 5.2117 20.9639 5.2117 19.9339V11.5039H8.1917L12.2417 19.9439C12.6517 20.9039 13.3717 21.5739 14.5817 21.5739C15.8917 21.5739 16.7717 20.7539 16.7717 19.4739V11.5039H18.1517C18.5517 11.5039 18.8817 11.1939 18.8817 10.7939C18.8817 10.3839 18.5517 10.0639 18.1517 10.0639H16.7717V1.6439C16.7717 0.5939 16.1817 0.0039 15.1717 0.0039C14.1817 0.0039 13.5917 0.5939 13.5917 1.6439V10.0639H10.6017L6.5717 1.6439C6.1217 0.5939 5.4017 0.0039 4.2317 0.0039C2.9517 0.0039 2.0517 0.8039 2.0517 2.0939V10.0639H0.7217C0.3317 10.0639 0.0017 10.3839 0.0017 10.7939C0.0017 11.1939 0.3317 11.5039 0.7217 11.5039H2.0517V19.9339C2.0517 20.9639 2.6217 21.5739 3.6217 21.5739ZM5.2117 5.5339H5.3317L7.5017 10.0639H5.2117ZM13.4717 16.0639L11.3017 11.5039H13.5917V16.0639Z" />
        </svg>
    