
        <svg xmlns="http://www.w3.org/2000/svg" viewBox="0 0 100 100">
            <path d="M12.1023 24.2064C18.7823 24.2064 24.2123 18.7864 24.2123 12.1064C24.2123 5.4264 18.7823 -0.0036 12.1023 -0.0036C5.4223 -0.0036 0.0023 5.4264 0.0023 12.1064C0.0023 18.7864 5.4223 24.2064 12.1023 24.2064ZM9.0223 17.6464C8.5423 17.6464 8.2223 17.3364 8.2223 16.8264V12.4964H7.5823C7.3623 12.4964 7.1823 12.3264 7.1823 12.1064C7.1823 11.8664 7.3623 11.7064 7.5823 11.7064H8.2223V7.5964C8.2223 6.9464 8.6823 6.5364 9.3323 6.5364C9.9023 6.5364 10.2823 6.8564 10.5023 7.3564L12.5723 11.7064H14.1823V7.3564C14.1823 6.8464 14.4823 6.5364 14.9723 6.5364C15.4723 6.5364 15.7723 6.8564 15.7723 7.3564V11.7064H16.4523C16.6723 11.7064 16.8523 11.8664 16.8523 12.1064C16.8523 12.3264 16.6723 12.4964 16.4523 12.4964H15.7723V16.5964C15.7723 17.1564 15.4123 17.6464 14.6723 17.6464C14.1023 17.6464 13.7323 17.3464 13.5023 16.8364L11.4423 12.4964H9.8223V16.8264C9.8223 17.3364 9.5123 17.6464 9.0223 17.6464ZM9.8223 11.7064H11.0523L9.8923 9.3564H9.8223ZM12.9523 12.4964L14.1123 14.8664H14.1823V12.4964Z" />
        </svg>
    