
        <svg xmlns="http://www.w3.org/2000/svg" viewBox="0 0 100 100">
            <path d="M0.3912 9.4064C0.0212 9.4064 -0.1188 9.6764 0.1212 10.0264L2.5512 13.4964C2.7512 13.7964 3.0212 13.7964 3.2212 13.4964L5.6412 10.0264C5.8912 9.6764 5.7512 9.4064 5.3712 9.4064H2.9512C3.8612 4.3864 8.2712 0.5764 13.5612 0.5764C19.5312 0.5764 24.3412 5.3864 24.3412 11.3564C24.3412 17.3164 19.5312 22.1364 13.5612 22.1364C9.5612 22.1364 5.9812 19.9064 4.1912 16.6864C4.1112 16.5464 3.9312 16.4964 3.7912 16.5664C3.6612 16.6364 3.6112 16.8064 3.7012 16.9664C5.5812 20.3564 9.3112 22.7064 13.5612 22.7064C19.8312 22.7064 24.9212 17.6264 24.9212 11.3564C24.9212 5.0764 19.8312 -0.0036 13.5612 -0.0036C7.9512 -0.0036 3.2912 4.0664 2.3712 9.4064ZM10.7612 16.4164C10.9412 16.4164 11.0712 16.2864 11.0712 16.1064V11.6864H13.3812L15.7712 16.0764C15.9012 16.3164 16.0712 16.4164 16.2612 16.4164C16.5012 16.4164 16.7012 16.2564 16.7012 15.9964V11.6864H17.3612C17.4812 11.6864 17.5812 11.5764 17.5812 11.4564C17.5812 11.3464 17.4812 11.2364 17.3612 11.2364H16.7012V6.7364C16.7012 6.5364 16.5612 6.4064 16.3812 6.4064C16.2012 6.4064 16.0712 6.5364 16.0712 6.7364V11.2364H13.8112L11.3712 6.7464C11.2412 6.5164 11.0712 6.4064 10.8812 6.4064C10.6212 6.4064 10.4512 6.5764 10.4512 6.8364V11.2364H9.7812C9.6612 11.2364 9.5612 11.3464 9.5612 11.4564C9.5612 11.5764 9.6612 11.6864 9.7812 11.6864H10.4512V16.1064C10.4512 16.2864 10.5912 16.4164 10.7612 16.4164ZM11.0712 7.6064H11.1512L13.1312 11.2364H11.0712ZM15.9812 15.2464L14.0412 11.6864H16.0712V15.2464Z" />
        </svg>
    