
        <svg xmlns="http://www.w3.org/2000/svg" viewBox="0 0 100 100">
            <path d="M11.7523 23.5048C18.2423 23.5048 23.5123 18.2448 23.5123 11.7548C23.5123 5.2648 18.2423 0.0048 11.7523 0.0048C5.2623 0.0048 0.0023 5.2648 0.0023 11.7548C0.0023 18.2448 5.2623 23.5048 11.7523 23.5048ZM11.7523 21.9848C6.0923 21.9848 1.5223 17.4148 1.5223 11.7548C1.5223 6.0948 6.0923 1.5148 11.7523 1.5148C17.4123 1.5148 21.9923 6.0948 21.9923 11.7548C21.9923 17.4148 17.4123 21.9848 11.7523 21.9848ZM8.8023 17.0348C9.1123 17.0348 9.3523 16.8148 9.3523 16.4748V12.1448H11.2923L13.5223 16.4748C13.7023 16.8348 13.9823 17.0348 14.3423 17.0348C14.8623 17.0348 15.0923 16.6848 15.0923 16.3148V12.1448H15.7223C15.9123 12.1448 16.0623 11.9848 16.0623 11.8048C16.0623 11.6048 15.9123 11.4448 15.7223 11.4448H15.0923V7.0648C15.0923 6.7148 14.8823 6.5048 14.5423 6.5048C14.2123 6.5048 14.0023 6.7148 14.0023 7.0648V11.4448H12.0723L9.8323 7.0648C9.6523 6.7048 9.3723 6.5048 9.0023 6.5048C8.5623 6.5048 8.2623 6.7948 8.2623 7.2348V11.4448H7.6323C7.4423 11.4448 7.2923 11.6048 7.2923 11.8048C7.2923 11.9848 7.4423 12.1448 7.6323 12.1448H8.2623V16.4748C8.2623 16.8148 8.4823 17.0348 8.8023 17.0348ZM9.3523 8.4948H9.4223L10.9423 11.4448H9.3523ZM13.9223 15.0748L12.4223 12.1448H14.0023V15.0748Z" />
        </svg>
    