
        <svg xmlns="http://www.w3.org/2000/svg" viewBox="0 0 100 100">
            <path d="M2.3317 24.5172H27.0917V23.3272C27.0917 22.6772 26.6817 22.2872 26.0517 22.2872H25.5917V9.4672H26.5317C27.4917 9.4672 28.0517 8.7572 28.0517 8.0372C28.0517 7.5072 27.7617 7.0272 27.1517 6.6672L16.4617 0.5072C15.9217 0.1972 15.2917 -0.0028 14.7117 -0.0028C14.1217 -0.0028 13.4917 0.1972 12.9517 0.5072L2.2617 6.6672C1.6517 7.0272 1.3617 7.5072 1.3617 8.0372C1.3617 8.7572 1.9217 9.4672 2.8917 9.4672H3.8317V22.2872H3.3717C2.7317 22.2872 2.3317 22.6772 2.3317 23.3272ZM6.3617 22.2872V7.6872L14.4617 3.1672C14.5417 3.1172 14.6417 3.0972 14.7117 3.0972C14.7917 3.0972 14.8717 3.1172 14.9517 3.1672L23.0617 7.6872V22.2872ZM11.9217 18.9972C12.6017 18.9972 12.9817 18.5872 12.9817 17.8872V14.1472H13.8017L15.3617 17.8872C15.6317 18.5872 16.1417 18.9972 16.9217 18.9972C17.7917 18.9972 18.4217 18.4572 18.4217 17.5872V14.1472H19.2217C19.3917 14.1472 19.5517 13.9872 19.5517 13.8272C19.5517 13.6572 19.3917 13.4972 19.2217 13.4972H18.4217V9.8072C18.4217 9.1072 18.0517 8.7072 17.3517 8.7072C16.6517 8.7072 16.2817 9.1072 16.2817 9.8072V13.4972H15.4317L13.9017 9.8172C13.6417 9.1572 13.1517 8.7072 12.3317 8.7072C11.5117 8.7072 10.8417 9.1972 10.8417 10.0972V13.4972H10.1417C9.9617 13.4972 9.8117 13.6572 9.8117 13.8272C9.8117 13.9872 9.9617 14.1472 10.1417 14.1472H10.8417V17.8872C10.8417 18.5872 11.2117 18.9972 11.9217 18.9972ZM12.9817 12.2972H13.0317L13.5317 13.4972H12.9817ZM16.2317 15.4172L15.7017 14.1472H16.2817V15.4172ZM1.4417 28.2972H27.6817C28.4517 28.2972 29.1317 27.6672 29.1317 26.8572C29.1317 26.0772 28.4517 25.4172 27.6817 25.4172H1.4417C0.6717 25.4172 0.0017 26.0772 0.0017 26.8572C0.0017 27.6572 0.6717 28.2972 1.4417 28.2972Z" />
        </svg>
    