
        <svg xmlns="http://www.w3.org/2000/svg" viewBox="0 0 100 100">
            <path d="M3.6817 21.5722H17.8917C20.3517 21.5722 21.5717 20.3722 21.5717 17.9522V3.6322C21.5717 1.2222 20.3517 0.0022 17.8917 0.0022H3.6817C1.2317 0.0022 0.0017 1.2222 0.0017 3.6322V17.9522C0.0017 20.3722 1.2317 21.5722 3.6817 21.5722ZM3.7017 19.6922C2.5317 19.6922 1.8917 19.0622 1.8917 17.8522V3.7422C1.8917 2.5222 2.5317 1.8822 3.7017 1.8822H17.8717C19.0317 1.8822 19.6917 2.5222 19.6917 3.7422V17.8522C19.6917 19.0622 19.0317 19.6922 17.8717 19.6922ZM7.7817 16.1822C8.1817 16.1822 8.4517 15.9022 8.4517 15.4922V11.1922H10.2217L12.3617 15.5022C12.5617 15.9222 12.8817 16.1822 13.3517 16.1822C13.9917 16.1822 14.2517 15.7422 14.2517 15.3022V11.1922H14.8617C15.0917 11.1922 15.2717 11.0122 15.2717 10.7922C15.2717 10.5722 15.0917 10.3922 14.8617 10.3922H14.2517V6.0422C14.2517 5.6322 13.9917 5.3622 13.5817 5.3622C13.1817 5.3622 12.9217 5.6322 12.9217 6.0422V10.3922H11.1517L9.0117 6.0622C8.8117 5.6222 8.4817 5.3622 8.0117 5.3622C7.4917 5.3622 7.1117 5.7322 7.1117 6.2422V10.3922H6.5117C6.2917 10.3922 6.1217 10.5722 6.1217 10.7922C6.1217 11.0122 6.2917 11.1922 6.5117 11.1922H7.1117V15.4922C7.1117 15.9022 7.3917 16.1822 7.7817 16.1822ZM8.4517 7.7722H8.5217L9.8217 10.3922H8.4517ZM12.8517 13.8022L11.5517 11.1922H12.9217V13.8022Z" />
        </svg>
    