
        <svg xmlns="http://www.w3.org/2000/svg" viewBox="0 0 100 100">
            <path d="M3.6317 24.9697H22.1917C24.4817 24.9697 25.6517 23.8097 25.6517 21.5497V3.4197C25.6517 1.1497 24.4817 -0.0003 22.1917 -0.0003H8.3117C6.0217 -0.0003 4.8617 1.1497 4.8617 3.4197V22.7197C4.8617 23.8897 4.5317 24.5397 3.6317 24.9697ZM9.3717 6.6797C9.0317 6.6797 8.7917 6.4197 8.7917 6.0897C8.7917 5.7797 9.0317 5.5297 9.3717 5.5297H21.1417C21.4817 5.5297 21.7217 5.7797 21.7217 6.0897C21.7217 6.4197 21.4817 6.6797 21.1417 6.6797ZM0.0017 11.3997V22.0797C0.0017 22.9697 0.6817 23.4797 1.4917 23.4797C2.3017 23.4697 2.9517 22.9597 2.9517 22.0797V9.4297H2.0817C0.8017 9.4297 0.0017 10.1597 0.0017 11.3997ZM9.3717 10.8897C9.0317 10.8897 8.7917 10.6297 8.7917 10.3097C8.7917 9.9797 9.0317 9.7297 9.3717 9.7297H21.1417C21.4817 9.7297 21.7217 9.9797 21.7217 10.3097C21.7217 10.6297 21.4817 10.8897 21.1417 10.8897ZM16.6917 15.0897C16.3517 15.0897 16.1017 14.8397 16.1017 14.5197C16.1017 14.1897 16.3517 13.9297 16.6917 13.9297H21.1417C21.4717 13.9297 21.7217 14.1897 21.7217 14.5197C21.7217 14.8397 21.4717 15.0897 21.1417 15.0897ZM10.0917 19.4797C9.2617 19.4797 8.7517 18.9697 8.7517 18.1497V15.2597C8.7517 14.4397 9.2617 13.9297 10.0917 13.9297H13.0617C13.8917 13.9297 14.4017 14.4397 14.4017 15.2597V18.1497C14.4017 18.9697 13.8917 19.4797 13.0617 19.4797ZM16.6917 19.3497C16.3517 19.3497 16.1017 19.0997 16.1017 18.7897C16.1017 18.4597 16.3517 18.1997 16.6917 18.1997H21.1417C21.4717 18.1997 21.7217 18.4597 21.7217 18.7897C21.7217 19.0997 21.4717 19.3497 21.1417 19.3497Z" />
        </svg>
    