
        <svg xmlns="http://www.w3.org/2000/svg" viewBox="0 0 100 100">
            <path d="M12.1023 24.2064C18.7823 24.2064 24.2123 18.7864 24.2123 12.1064C24.2123 5.4264 18.7823 -0.0036 12.1023 -0.0036C5.4223 -0.0036 0.0023 5.4264 0.0023 12.1064C0.0023 18.7864 5.4223 24.2064 12.1023 24.2064ZM12.1023 21.8164C6.7223 21.8164 2.3823 17.4864 2.3823 12.1064C2.3823 6.7264 6.7223 2.3764 12.1023 2.3764C17.4823 2.3764 21.8323 6.7264 21.8323 12.1064C21.8323 17.4864 17.4823 21.8164 12.1023 21.8164ZM7.9023 17.9164H16.4223C17.5823 17.9164 18.1623 17.3464 18.1623 16.1864V8.0364C18.1623 6.8864 17.5823 6.3064 16.4223 6.3064H10.1923C9.0323 6.3064 8.4523 6.8864 8.4523 8.0364V16.8564C8.4523 17.3864 8.3123 17.6964 7.9023 17.9164ZM10.7323 9.6464C10.5023 9.6464 10.3523 9.4764 10.3523 9.2564C10.3523 9.0564 10.5023 8.8964 10.7323 8.8964H15.8923C16.1023 8.8964 16.2623 9.0564 16.2623 9.2564C16.2623 9.4764 16.1023 9.6464 15.8923 9.6464ZM6.0123 11.6164V16.3664C6.0123 16.8164 6.3423 17.0464 6.7023 17.0464C7.0823 17.0464 7.4023 16.8164 7.4023 16.3664V10.4664H7.1723C6.5023 10.4664 6.0123 10.8864 6.0123 11.6164ZM10.7323 11.5164C10.5023 11.5164 10.3523 11.3564 10.3523 11.1364C10.3523 10.9264 10.5023 10.7564 10.7323 10.7564H15.8923C16.1023 10.7564 16.2623 10.9264 16.2623 11.1364C16.2623 11.3564 16.1023 11.5164 15.8923 11.5164ZM14.0023 13.4064C13.7823 13.4064 13.6323 13.2464 13.6323 13.0464C13.6323 12.8164 13.7823 12.6464 14.0023 12.6464H15.8923C16.1023 12.6464 16.2523 12.8164 16.2523 13.0464C16.2523 13.2464 16.1023 13.4064 15.8923 13.4064ZM10.9823 15.2664C10.5723 15.2664 10.3323 15.0264 10.3323 14.6264V13.2964C10.3323 12.9064 10.5723 12.6464 10.9823 12.6464H12.2723C12.6823 12.6464 12.9223 12.9064 12.9223 13.2964V14.6264C12.9223 15.0264 12.6823 15.2664 12.2723 15.2664ZM14.0023 15.2664C13.7823 15.2664 13.6323 15.1064 13.6323 14.8964C13.6323 14.6864 13.7823 14.5164 14.0023 14.5164H15.8923C16.1023 14.5164 16.2523 14.6864 16.2523 14.8964C16.2523 15.1064 16.1023 15.2664 15.8923 15.2664Z" />
        </svg>
    