
        <svg xmlns="http://www.w3.org/2000/svg" viewBox="0 0 100 100">
            <path d="M12.7923 25.5978C19.8723 25.5978 25.6023 19.8678 25.6023 12.7978C25.6023 5.7278 19.8723 -0.0022 12.7923 -0.0022C5.7323 -0.0022 0.0023 5.7278 0.0023 12.7978C0.0023 19.8678 5.7323 25.5978 12.7923 25.5978ZM12.7923 21.4178C8.0323 21.4178 4.1723 17.5678 4.1723 12.7978C4.1723 8.0278 8.0323 4.1678 12.7923 4.1678C17.5623 4.1678 21.4323 8.0278 21.4323 12.7978C21.4323 17.5678 17.5623 21.4178 12.7923 21.4178ZM9.1423 18.1178H16.6023C17.7823 18.1178 18.4423 17.4478 18.4423 16.2778V9.3378C18.4423 8.1678 17.7823 7.4978 16.6023 7.4978H11.3823C10.2023 7.4978 9.5323 8.1678 9.5323 9.3378V17.3878C9.5323 17.7778 9.4123 18.0078 9.1423 18.1178ZM12.0123 10.9878C11.7623 10.9878 11.5923 10.8078 11.5923 10.5678C11.5923 10.3378 11.7623 10.1578 12.0123 10.1578H15.9823C16.2223 10.1578 16.3923 10.3378 16.3923 10.5678C16.3923 10.8078 16.2023 10.9878 15.9823 10.9878ZM7.1323 12.5078V16.4678C7.1323 17.0478 7.5823 17.2278 7.8723 17.2278C8.1723 17.2278 8.6223 17.0478 8.6223 16.4678V10.8278H8.5823C7.9023 10.8278 7.1323 11.3978 7.1323 12.5078ZM12.0123 12.4778C11.7623 12.4778 11.5923 12.3078 11.5923 12.0678C11.5923 11.8278 11.7623 11.6478 12.0123 11.6478H15.9823C16.2023 11.6478 16.3923 11.8278 16.3923 12.0678C16.3923 12.3078 16.2223 12.4778 15.9823 12.4778ZM14.6223 13.9678C14.3823 13.9678 14.1923 13.7978 14.1923 13.5678C14.1923 13.3078 14.3823 13.1378 14.6223 13.1378H15.9823C16.2023 13.1378 16.3823 13.3078 16.3823 13.5678C16.3823 13.7978 16.2023 13.9678 15.9823 13.9678ZM12.2023 15.3978C11.8123 15.3978 11.5823 15.1478 11.5823 14.7878V13.7478C11.5823 13.3778 11.8123 13.1378 12.2023 13.1378H13.1123C13.5023 13.1378 13.7323 13.3778 13.7323 13.7478V14.7878C13.7323 15.1478 13.5023 15.3978 13.1123 15.3978ZM14.6223 15.3978C14.3823 15.3978 14.1923 15.2178 14.1923 14.9778C14.1923 14.7378 14.3823 14.5578 14.6223 14.5578H15.9823C16.2023 14.5578 16.3823 14.7378 16.3823 14.9778C16.3823 15.2178 16.2023 15.3978 15.9823 15.3978Z" />
        </svg>
    