
        <svg xmlns="http://www.w3.org/2000/svg" viewBox="0 0 100 100">
            <path d="M4.2917 25.5427H22.8517C25.4517 25.5427 26.8217 24.1727 26.8217 21.6127V3.9327C26.8217 1.3627 25.4517 0.0027 22.8517 0.0027H9.4017C6.8017 0.0027 5.4217 1.3627 5.4217 3.9327V23.2827C5.4217 24.4427 5.1317 25.1027 4.2917 25.5427ZM10.5917 7.5227C10.1117 7.5227 9.7617 7.1627 9.7617 6.6927C9.7617 6.2327 10.1117 5.8827 10.5917 5.8827H21.6717C22.1417 5.8827 22.4917 6.2327 22.4917 6.6927C22.4917 7.1627 22.1417 7.5227 21.6717 7.5227ZM0.0017 11.7427V22.0227C0.0017 23.0727 0.7817 23.5927 1.5817 23.5927C2.3717 23.5927 3.1417 23.0627 3.1417 22.0227V8.9027H2.7417C1.2317 8.9027 0.0017 9.9027 0.0017 11.7427ZM10.5917 11.5227C10.1117 11.5227 9.7617 11.1727 9.7617 10.7027C9.7617 10.2427 10.1117 9.8627 10.5917 9.8627H21.6717C22.1417 9.8627 22.4917 10.2427 22.4917 10.7027C22.4917 11.1727 22.1417 11.5227 21.6717 11.5227ZM17.6117 15.5127C17.1417 15.5127 16.7817 15.1627 16.7817 14.7027C16.7817 14.2427 17.1317 13.8727 17.6117 13.8727H21.6517C22.1417 13.8727 22.4917 14.2427 22.4917 14.7027C22.4917 15.1627 22.1417 15.5127 21.6517 15.5127ZM11.1717 19.5627C10.2917 19.5627 9.7417 19.0227 9.7417 18.1327V15.2927C9.7417 14.4127 10.2917 13.8727 11.1717 13.8727H13.9017C14.7917 13.8727 15.3317 14.4127 15.3317 15.2927V18.1327C15.3317 19.0227 14.7917 19.5627 13.9017 19.5627ZM17.6117 19.5227C17.1317 19.5227 16.7817 19.1627 16.7817 18.7027C16.7817 18.2327 17.1417 17.8727 17.6117 17.8727H21.6517C22.1417 17.8727 22.4917 18.2327 22.4917 18.7027C22.4917 19.1627 22.1417 19.5227 21.6517 19.5227Z" />
        </svg>
    