
        <svg xmlns="http://www.w3.org/2000/svg" viewBox="0 0 100 100">
            <path d="M0.3912 9.4064C0.0212 9.4064 -0.1188 9.6764 0.1212 10.0264L2.5512 13.4964C2.7512 13.7964 3.0212 13.7964 3.2212 13.4964L5.6412 10.0264C5.8912 9.6764 5.7512 9.4064 5.3712 9.4064H2.9512C3.8612 4.3864 8.2712 0.5764 13.5612 0.5764C19.5312 0.5764 24.3412 5.3864 24.3412 11.3564C24.3412 17.3164 19.5312 22.1364 13.5612 22.1364C9.5612 22.1364 5.9812 19.9064 4.1912 16.6864C4.1112 16.5464 3.9312 16.4964 3.7912 16.5664C3.6612 16.6364 3.6112 16.8064 3.7012 16.9664C5.5812 20.3564 9.3112 22.7064 13.5612 22.7064C19.8312 22.7064 24.9212 17.6264 24.9212 11.3564C24.9212 5.0764 19.8312 -0.0036 13.5612 -0.0036C7.9512 -0.0036 3.2912 4.0664 2.3712 9.4064ZM9.9212 16.4364C10.0912 16.4364 10.2112 16.3164 10.2112 16.1264V13.4064L11.0612 12.5264L13.7312 16.3264C13.7912 16.4064 13.8712 16.4364 13.9612 16.4364C14.1112 16.4364 14.2312 16.3464 14.2312 16.1864C14.2312 16.1264 14.2212 16.0564 14.1612 15.9764L11.4712 12.1564L14.0612 9.3064C14.1112 9.2364 14.1512 9.1864 14.1512 9.1064C14.1512 8.9764 14.0312 8.8564 13.8812 8.8564C13.8112 8.8564 13.7412 8.8864 13.6812 8.9564L10.2712 12.7364H10.2112V6.2364C10.2112 6.0364 10.0912 5.9064 9.9212 5.9064C9.7412 5.9064 9.6312 6.0364 9.6312 6.2364V16.1264C9.6312 16.3164 9.7412 16.4364 9.9212 16.4364ZM16.1212 16.4364C16.2912 16.4364 16.4012 16.3264 16.4012 16.1264V11.7564C16.4012 10.7664 16.8112 9.4364 17.9712 9.4364C18.1212 9.4364 18.2712 9.4564 18.4112 9.4564C18.5812 9.4564 18.6712 9.3764 18.6712 9.2564C18.6712 8.9664 18.3012 8.8564 18.0012 8.8564C17.1612 8.8564 16.6712 9.5264 16.4712 10.3864H16.3612V9.1564C16.3612 8.9764 16.2712 8.8564 16.1112 8.8564C15.9412 8.8564 15.8412 8.9764 15.8412 9.1564V16.1264C15.8412 16.3264 15.9412 16.4364 16.1212 16.4364Z" />
        </svg>
    