
        <svg xmlns="http://www.w3.org/2000/svg" viewBox="0 0 100 100">
            <path d="M1.8917 23.1763H25.6417V22.2263C25.6417 21.6763 25.3117 21.3563 24.7717 21.3563H24.1517V8.6363H25.1417C25.9117 8.6363 26.3717 8.0663 26.3717 7.4863C26.3717 7.0663 26.1217 6.6763 25.6217 6.3863L15.3317 0.4563C14.8317 0.1663 14.2817 -0.0038 13.7617 -0.0038C13.2317 -0.0038 12.6817 0.1663 12.1917 0.4563L1.9017 6.3863C1.3817 6.6763 1.1617 7.0663 1.1617 7.4863C1.1617 8.0663 1.6017 8.6363 2.3917 8.6363H3.3917V21.3563H2.7517C2.2117 21.3563 1.8917 21.6763 1.8917 22.2263ZM5.4717 21.3563V7.0163L13.3917 2.5763C13.5017 2.5162 13.6417 2.4862 13.7617 2.4862C13.8917 2.4862 14.0117 2.5162 14.1317 2.5763L22.0517 7.0163V21.3563ZM9.9117 17.4963C10.3817 17.4963 10.7017 17.1662 10.7017 16.6863V15.0663L11.3117 14.4963L13.0417 17.0263C13.2217 17.3063 13.4417 17.4963 13.7817 17.4963C14.1917 17.4963 14.5417 17.2063 14.5417 16.8163C14.5417 16.5663 14.4517 16.4162 14.3317 16.2263L12.4617 13.5663L14.2017 11.7563C14.4017 11.5463 14.4917 11.4063 14.4917 11.1663C14.4917 10.7963 14.1917 10.4863 13.7917 10.4863C13.5617 10.4863 13.3217 10.6163 13.1717 10.7963L10.7317 13.4763H10.7017V8.7163C10.7017 8.2263 10.3817 7.8863 9.9117 7.8863C9.4617 7.8863 9.1317 8.2263 9.1317 8.7063V16.6863C9.1317 17.1662 9.4617 17.4963 9.9117 17.4963ZM16.5217 17.4963C16.9117 17.4963 17.2617 17.2362 17.2617 16.6863V13.4763C17.2617 12.7263 17.5217 11.9863 18.4017 11.9763C18.6717 11.9763 18.9517 11.9263 19.1417 11.7863C19.3017 11.6863 19.4017 11.5063 19.4017 11.2463C19.4017 10.7663 19.0817 10.4863 18.6117 10.4863C17.8817 10.4863 17.4217 11.1363 17.2717 11.8563H17.2017V11.2762C17.2017 10.8163 16.9117 10.4863 16.5017 10.4863C16.0617 10.4863 15.7717 10.8163 15.7717 11.2762V16.6863C15.7717 17.1662 16.0517 17.4963 16.5217 17.4963ZM1.1517 26.3763H26.2517C26.8717 26.3763 27.4017 25.8663 27.4017 25.2263C27.4017 24.5963 26.8717 24.0863 26.2517 24.0863H1.1517C0.5317 24.0863 0.0017 24.5963 0.0017 25.2263C0.0017 25.8663 0.5317 26.3763 1.1517 26.3763Z" />
        </svg>
    