
        <svg xmlns="http://www.w3.org/2000/svg" viewBox="0 0 100 100">
            <path d="M0.8706 9.7864C-0.0094 9.7864 -0.2294 10.4364 0.2506 11.0964L2.9706 14.8864C3.3406 15.4064 3.9306 15.3964 4.3006 14.8864L7.0206 11.0864C7.4906 10.4364 7.2706 9.7864 6.4006 9.7864H4.8206C5.8606 5.5264 9.6806 2.3764 14.2606 2.3764C19.6306 2.3764 23.9806 6.7264 23.9806 12.1064C23.9806 17.4864 19.6306 21.8164 14.2606 21.8164C11.1206 21.8164 8.3506 20.3364 6.5906 18.0264C6.1206 17.4764 5.4406 17.2964 4.8606 17.7064C4.3306 18.0964 4.2206 18.8564 4.7206 19.4764C6.8606 22.3464 10.4506 24.2064 14.2606 24.2064C20.9406 24.2064 26.3706 18.7864 26.3706 12.1064C26.3706 5.4264 20.9406 -0.0036 14.2606 -0.0036C8.3706 -0.0036 3.4606 4.2064 2.3806 9.7864ZM10.4706 16.6764C10.8906 16.6764 11.1806 16.3664 11.1806 15.9264V14.1864L11.8006 13.5864L13.6906 16.2764C13.8406 16.5164 14.0506 16.6764 14.3506 16.6764C14.7206 16.6764 15.0406 16.4064 15.0406 16.0464C15.0406 15.8464 14.9506 15.6864 14.8406 15.5264L12.8506 12.7264L14.7006 10.7664C14.8706 10.5864 14.9706 10.4664 14.9706 10.2564C14.9706 9.9164 14.6906 9.6364 14.3306 9.6364C14.1206 9.6364 13.9006 9.7464 13.7706 9.9064L11.2206 12.7164H11.1806V7.7564C11.1806 7.3164 10.8906 7.0064 10.4706 7.0064C10.0606 7.0064 9.7506 7.2964 9.7506 7.7464V15.9264C9.7506 16.3664 10.0606 16.6764 10.4706 16.6764ZM16.9706 16.6764C17.3006 16.6764 17.6406 16.4564 17.6406 15.9264V12.5764C17.6406 11.7964 17.9206 10.9964 18.8506 10.9964C19.0906 10.9964 19.3506 10.9564 19.5206 10.8264C19.6806 10.7364 19.7706 10.5664 19.7706 10.3364C19.7706 9.8864 19.4506 9.6364 19.0106 9.6364C18.2806 9.6364 17.8106 10.2664 17.6506 10.9964H17.5806V10.3464C17.5806 9.9364 17.3106 9.6364 16.9406 9.6364C16.5606 9.6364 16.2806 9.9364 16.2806 10.3464V15.9264C16.2806 16.3664 16.5406 16.6764 16.9706 16.6764Z" />
        </svg>
    