
        <svg xmlns="http://www.w3.org/2000/svg" viewBox="0 0 100 100">
            <path d="M3.8417 21.8745H18.0317C20.5617 21.8745 21.8817 20.5745 21.8817 18.0745V3.8045C21.8817 1.3145 20.5617 0.0045 18.0317 0.0045H3.8417C1.3117 0.0045 0.0017 1.3045 0.0017 3.8045V18.0745C0.0017 20.5745 1.3117 21.8745 3.8417 21.8745ZM6.9217 15.7645C6.4917 15.7645 6.1617 15.4445 6.1617 14.9645V6.3545C6.1617 5.8745 6.4917 5.5645 6.9217 5.5645C7.3717 5.5645 7.6917 5.8845 7.6917 6.3645V11.5745H7.7217L10.4017 8.6245C10.5617 8.4645 10.7817 8.3345 11.0117 8.3345C11.4017 8.3345 11.6817 8.6245 11.6817 8.9845C11.6817 9.2245 11.5917 9.3545 11.4117 9.5545L9.4617 11.5945L11.5417 14.5445C11.6717 14.7145 11.7517 14.8745 11.7517 15.1045C11.7517 15.4845 11.4217 15.7645 11.0317 15.7645C10.7117 15.7645 10.5017 15.5945 10.3217 15.3445L8.3417 12.5045L7.6917 13.1445V14.9645C7.6917 15.4445 7.3717 15.7645 6.9217 15.7645ZM13.8017 15.7645C13.3517 15.7645 13.0817 15.4445 13.0817 14.9645V9.0945C13.0817 8.6645 13.3717 8.3345 13.7817 8.3345C14.1717 8.3345 14.4617 8.6645 14.4617 9.0945V9.7745H14.5317C14.6917 9.0045 15.2017 8.3345 15.9717 8.3345C16.4417 8.3345 16.7817 8.6145 16.7817 9.0845C16.7817 9.3245 16.6917 9.5045 16.5017 9.6045C16.3217 9.7345 16.0417 9.7845 15.7717 9.7845C14.8117 9.7845 14.5217 10.6245 14.5217 11.4445V14.9645C14.5217 15.5245 14.1517 15.7645 13.8017 15.7645Z" />
        </svg>
    