
        <svg xmlns="http://www.w3.org/2000/svg" viewBox="0 0 100 100">
            <path d="M0.9417 25.0048H25.2217C25.7317 25.0048 26.1717 24.5748 26.1717 24.0548C26.1717 23.5448 25.7317 23.1248 25.2217 23.1248H24.6117V22.2648C24.6117 21.7948 24.3417 21.5148 23.8617 21.5148H23.1117V8.0348H24.1417C24.7817 8.0348 25.1617 7.5748 25.1617 7.0848C25.1617 6.7348 24.9617 6.4348 24.5317 6.1848L14.5217 0.4148C14.0517 0.1448 13.5617 0.0048 13.0817 0.0048C12.6017 0.0048 12.0917 0.1448 11.6517 0.4148L1.6417 6.1848C1.1917 6.4348 1.0117 6.7348 1.0117 7.0848C1.0117 7.5748 1.3817 8.0348 2.0317 8.0348H3.0617V21.5148H2.3217C1.8417 21.5148 1.5617 21.7948 1.5617 22.2648V23.1248H0.9417C0.4217 23.1248 0.0017 23.5448 0.0017 24.0548C0.0017 24.5748 0.4217 25.0048 0.9417 25.0048ZM9.0717 18.3348C8.6717 18.3348 8.3917 18.0548 8.3917 17.6348V8.6148C8.3917 8.1748 8.6717 7.9148 9.0717 7.9148C9.4617 7.9148 9.7217 8.1948 9.7217 8.6248V14.1748H9.7617L12.6517 11.0148C12.7817 10.8748 12.9817 10.7548 13.1817 10.7548C13.5217 10.7548 13.7817 11.0348 13.7817 11.3448C13.7817 11.5548 13.6917 11.6648 13.5317 11.8248L11.3917 14.0748L13.6917 17.2748C13.8017 17.4248 13.8717 17.5748 13.8717 17.7548C13.8717 18.0948 13.5917 18.3348 13.2417 18.3348C12.9817 18.3348 12.8017 18.2148 12.6417 17.9848L10.4417 14.9048L9.7217 15.5948V17.6348C9.7217 18.0548 9.4617 18.3348 9.0717 18.3348ZM15.8817 18.3348C15.4717 18.3348 15.2317 18.0548 15.2317 17.6348V11.4348C15.2317 11.0648 15.5017 10.7548 15.8517 10.7548C16.1917 10.7548 16.4617 11.0648 16.4617 11.4348V12.2248H16.5317C16.7117 11.4348 17.2517 10.7548 18.0217 10.7548C18.4717 10.7548 18.8117 11.0048 18.8117 11.4448C18.8117 11.6648 18.7117 11.8248 18.5517 11.9048C18.3717 12.0248 18.1317 12.0448 17.8817 12.0448C16.8517 12.0448 16.5217 12.9948 16.5217 13.8548V17.6348C16.5217 18.1548 16.1817 18.3348 15.8817 18.3348Z" />
        </svg>
    