
        <svg xmlns="http://www.w3.org/2000/svg" viewBox="0 0 100 100">
            <path d="M1.7417 22.7616H25.1917V21.8816C25.1917 21.3616 24.8917 21.0616 24.3717 21.0616H23.6917V8.3716H24.7017C25.4217 8.3716 25.8417 7.8516 25.8417 7.3116C25.8417 6.9216 25.6217 6.5716 25.1517 6.2916L14.9717 0.4216C14.4917 0.1516 13.9717 0.0016 13.4617 0.0016C12.9617 0.0016 12.4217 0.1516 11.9517 0.4216L1.7817 6.2916C1.3017 6.5716 1.0917 6.9216 1.0917 7.3116C1.0917 7.8516 1.5117 8.3716 2.2217 8.3716H3.2417V21.0616H2.5617C2.0517 21.0616 1.7417 21.3616 1.7417 21.8816ZM5.1917 21.0616V6.8016L13.0517 2.4016C13.1817 2.3316 13.3317 2.2816 13.4617 2.2816C13.6017 2.2816 13.7417 2.3316 13.8717 2.4016L21.7517 6.8016V21.0616ZM9.6117 17.3316C10.0317 17.3316 10.3217 17.0316 10.3217 16.5816V14.8116L10.9717 14.1916L12.8917 16.9316C13.0417 17.1816 13.2517 17.3316 13.5617 17.3316C13.9317 17.3316 14.2517 17.0616 14.2517 16.7016C14.2517 16.4916 14.1717 16.3316 14.0517 16.1716L12.0217 13.3216L13.9117 11.3416C14.0817 11.1416 14.1817 11.0316 14.1817 10.8016C14.1817 10.4616 13.9017 10.1716 13.5317 10.1716C13.3217 10.1716 13.1017 10.3016 12.9617 10.4516L10.3617 13.3116H10.3217V8.2716C10.3217 7.8316 10.0317 7.5116 9.6117 7.5116C9.1917 7.5116 8.8817 7.8116 8.8817 8.2616V16.5816C8.8817 17.0316 9.1917 17.3316 9.6117 17.3316ZM16.2217 17.3316C16.5617 17.3316 16.9017 17.1116 16.9017 16.5816V13.1716C16.9017 12.3916 17.1917 11.5616 18.1217 11.5516C18.3717 11.5516 18.6317 11.5216 18.8117 11.4016C18.9717 11.3016 19.0617 11.1316 19.0617 10.9016C19.0617 10.4416 18.7517 10.1716 18.2917 10.1716C17.5517 10.1716 17.0717 10.8316 16.9117 11.5616H16.8417V10.9016C16.8417 10.4916 16.5717 10.1716 16.1817 10.1716C15.8017 10.1716 15.5117 10.4916 15.5117 10.9016V16.5816C15.5117 17.0316 15.7717 17.3316 16.2217 17.3316ZM1.0617 25.7816H25.8017C26.3817 25.7816 26.8717 25.3016 26.8717 24.7116C26.8717 24.1416 26.3817 23.6616 25.8017 23.6616H1.0617C0.4817 23.6616 0.0017 24.1416 0.0017 24.7116C0.0017 25.3016 0.4817 25.7816 1.0617 25.7816Z" />
        </svg>
    