
        <svg xmlns="http://www.w3.org/2000/svg" viewBox="0 0 100 100">
            <path d="M0.0023 17.8277C0.0023 20.9177 2.1423 22.9777 5.3823 22.9777C6.4023 22.9777 7.4923 22.6277 8.2623 22.0177C7.5923 21.6477 7.0523 21.1677 6.4323 20.3677C6.1423 20.5077 5.7923 20.5877 5.4423 20.5877C4.4523 20.5877 3.7823 20.0077 3.7823 19.1877C3.7823 18.3877 4.3823 17.8377 5.2523 17.8377C6.0023 17.8377 6.5123 18.2977 7.0923 18.8977C8.2423 20.1577 9.3823 21.6477 12.0123 21.6477C14.6523 21.6477 15.7823 20.1577 16.9423 18.8977C17.5123 18.2977 18.0223 17.8377 18.7723 17.8377C19.6423 17.8377 20.2423 18.3877 20.2423 19.1877C20.2423 20.0077 19.5823 20.5877 18.5823 20.5877C18.2323 20.5877 17.8823 20.5077 17.5923 20.3677C16.9823 21.1677 16.4423 21.6477 15.7723 22.0177C16.5323 22.6277 17.6323 22.9777 18.6523 22.9777C21.8923 22.9777 24.0223 20.9177 24.0223 17.8277C24.0223 14.8677 21.8823 12.6877 18.8123 12.3877C17.6123 9.5877 16.7723 6.5977 16.1323 3.7977C15.5623 1.3077 14.2623 -0.0023 12.0123 -0.0023C9.7723 -0.0023 8.4723 1.3077 7.9023 3.7977C7.2523 6.5977 6.4123 9.5877 5.2223 12.3877C2.1523 12.6877 0.0023 14.8677 0.0023 17.8277Z" />
        </svg>
    