
        <svg xmlns="http://www.w3.org/2000/svg" viewBox="0 0 100 100">
            <path d="M12.2223 24.4436C18.9723 24.4436 24.4423 18.9736 24.4423 12.2236C24.4423 5.4736 18.9723 0.0036 12.2223 0.0036C5.4723 0.0036 0.0023 5.4736 0.0023 12.2236C0.0023 18.9736 5.4723 24.4436 12.2223 24.4436ZM12.2223 2.6836C17.4923 2.6836 21.7623 6.9536 21.7623 12.2236C21.7623 14.4236 21.0123 16.4636 19.7623 18.0836L6.3623 4.6836C7.9823 3.4336 10.0123 2.6836 12.2223 2.6836ZM12.2223 21.7636C6.9523 21.7636 2.6823 17.4936 2.6823 12.2236C2.6823 10.0236 3.4223 7.9936 4.6723 6.3836L18.0623 19.7736C16.4423 21.0136 14.4223 21.7636 12.2223 21.7636Z" />
        </svg>
    