
        <svg xmlns="http://www.w3.org/2000/svg" viewBox="0 0 100 100">
            <path d="M12.3723 24.7459C19.2023 24.7459 24.7523 19.2059 24.7523 12.3759C24.7523 5.5459 19.2023 -0.0041 12.3723 -0.0041C5.5423 -0.0041 0.0023 5.5459 0.0023 12.3759C0.0023 19.2059 5.5423 24.7459 12.3723 24.7459ZM12.3723 3.0859C17.5223 3.0859 21.6723 7.2259 21.6723 12.3759C21.6723 14.4459 20.9923 16.3759 19.8423 17.9159L6.8323 4.9059C8.3823 3.7659 10.3023 3.0859 12.3723 3.0859ZM12.3723 21.6659C7.2423 21.6659 3.0823 17.5059 3.0823 12.3759C3.0823 10.3159 3.7523 8.4059 4.9023 6.8559L17.8923 19.8659C16.3523 20.9959 14.4523 21.6659 12.3723 21.6659Z" />
        </svg>
    