
        <svg xmlns="http://www.w3.org/2000/svg" viewBox="0 0 100 100">
            <path d="M12.6023 25.1986C19.5623 25.1986 25.2023 19.5586 25.2023 12.5986C25.2023 5.6386 19.5623 -0.0014 12.6023 -0.0014C5.6323 -0.0014 0.0023 5.6386 0.0023 12.5986C0.0023 19.5586 5.6323 25.1986 12.6023 25.1986ZM12.6023 3.6586C17.5423 3.6586 21.5423 7.6486 21.5423 12.5986C21.5423 14.4886 20.9623 16.2286 19.9723 17.6686L7.5223 5.2286C8.9623 4.2286 10.7123 3.6586 12.6023 3.6586ZM12.6023 21.5386C7.6523 21.5386 3.6523 17.5386 3.6523 12.5986C3.6523 10.7186 4.2323 8.9886 5.2123 7.5486L17.6523 19.9786C16.2023 20.9686 14.4723 21.5386 12.6023 21.5386Z" />
        </svg>
    