
        <svg xmlns="http://www.w3.org/2000/svg" viewBox="0 0 100 100">
            <path d="M21.3017 1.6753C20.0517 0.4353 18.4417 -0.0047 15.7117 -0.0047H7.2517C4.5317 -0.0047 2.9217 0.4353 1.6617 1.6753C0.4217 2.9153 0.0017 4.4953 0.0017 7.2553V15.7153C0.0017 18.4653 0.4217 20.0553 1.6617 21.2953C2.9317 22.5353 4.5317 22.9653 7.2517 22.9653H15.7117C18.4417 22.9653 20.0617 22.5353 21.3017 21.2953C22.5517 20.0353 22.9717 18.4653 22.9717 15.7153V7.2553C22.9717 4.4953 22.5517 2.9053 21.3017 1.6753ZM11.4917 17.6553C8.0717 17.6553 5.3017 14.8853 5.3017 11.4753C5.3017 8.0553 8.0717 5.2753 11.4917 5.2753C14.9017 5.2753 17.6817 8.0553 17.6817 11.4753C17.6817 14.8853 14.9017 17.6553 11.4917 17.6553ZM10.5617 8.4853L14.4717 12.3953C14.5617 12.1153 14.6217 11.8053 14.6217 11.4753C14.6217 9.7353 13.2217 8.3453 11.4917 8.3453C11.1717 8.3453 10.8517 8.4053 10.5617 8.4853ZM8.3717 11.4753C8.3717 13.1953 9.7617 14.6053 11.4917 14.6053C11.8317 14.6053 12.1617 14.5453 12.4817 14.4353L8.5317 10.4853C8.4217 10.7953 8.3717 11.1253 8.3717 11.4753Z" />
        </svg>
    