
        <svg xmlns="http://www.w3.org/2000/svg" viewBox="0 0 100 100">
            <path d="M4.3817 22.8467H18.4717C21.2617 22.8467 22.8517 21.2667 22.8517 18.4767V4.3667C22.8517 1.5867 21.2617 -0.0033 18.4717 -0.0033H4.3817C1.5917 -0.0033 0.0017 1.5867 0.0017 4.3667V18.4767C0.0017 21.2667 1.5917 22.8467 4.3817 22.8467ZM15.6417 12.3967C16.7217 12.3967 17.4117 12.9867 17.4117 13.9367C17.4117 14.8967 16.7117 15.4667 15.6317 15.4667H10.7317L9.7417 17.2067C9.3617 17.8867 8.6217 18.1267 7.9217 17.7467C7.2617 17.3667 7.0417 16.6667 7.4417 15.9467L7.7417 15.4667H7.4317C6.3517 15.4667 5.6417 14.8967 5.6417 13.9367C5.6417 12.9867 6.3317 12.3967 7.4317 12.3967H9.4017L10.5117 10.5267H7.4317C6.3517 10.5267 5.6417 9.9467 5.6417 8.9867C5.6417 8.0267 6.3317 7.4567 7.4317 7.4567H12.1517L13.3317 5.3767C13.7117 4.6867 14.4217 4.4367 15.1217 4.8267C15.8017 5.2167 15.9917 5.9167 15.6217 6.6167L15.1517 7.4567H15.6417C16.7217 7.4567 17.4117 8.0367 17.4117 8.9867C17.4117 9.9467 16.7117 10.5267 15.6317 10.5267H13.5017L12.3917 12.3967Z" />
        </svg>
    