
        <svg xmlns="http://www.w3.org/2000/svg" viewBox="0 0 100 100">
            <path d="M2.1417 16.5511C2.6617 16.9111 3.3117 16.8011 3.6917 16.2811L5.9717 13.1611H15.2717C15.8317 13.1611 16.3117 12.6911 16.3117 12.1211C16.3117 11.5411 15.8317 11.0611 15.2717 11.0611H7.5217L11.4217 5.7511H15.2717C15.8317 5.7511 16.3117 5.2711 16.3117 4.7011C16.3117 4.1211 15.8317 3.6511 15.2717 3.6511H12.9617L14.4017 1.6911C14.7517 1.2211 14.6717 0.5811 14.1517 0.2311C13.6317 -0.1289 13.0617 -0.0989 12.6217 0.5111L10.3117 3.6511H1.0417C0.4817 3.6511 0.0017 4.1211 0.0017 4.7011C0.0017 5.2711 0.4817 5.7511 1.0417 5.7511H8.7817L4.8717 11.0611H1.0417C0.4817 11.0611 0.0017 11.5411 0.0017 12.1211C0.0017 12.6911 0.4817 13.1611 1.0417 13.1611H3.3417L1.9917 15.0011C1.6017 15.5411 1.5817 16.1711 2.1417 16.5511Z" />
        </svg>
    