
        <svg xmlns="http://www.w3.org/2000/svg" viewBox="0 0 100 100">
            <path d="M4.5917 23.2425H21.2417C24.1417 23.2425 25.8417 21.5425 25.8417 18.6425V4.5925C25.8417 1.6825 24.1417 0.0025 21.2417 0.0025H4.5917C1.7017 0.0025 0.0017 1.6825 0.0017 4.5925V18.6425C0.0017 21.5425 1.7017 23.2425 4.5917 23.2425ZM5.2117 19.0825C4.5017 19.0825 4.1617 18.7825 4.1617 18.0225V8.2125C4.1617 7.4525 4.5017 7.1725 5.2117 7.1725H20.6217C21.3417 7.1725 21.6817 7.4525 21.6817 8.2125V18.0225C21.6817 18.7825 21.3417 19.0825 20.6217 19.0825ZM7.1517 10.7925H18.7117C19.1917 10.7925 19.5617 10.4225 19.5617 9.9325C19.5617 9.4725 19.1917 9.1125 18.7117 9.1125H7.1517C6.6517 9.1125 6.3017 9.4725 6.3017 9.9325C6.3017 10.4225 6.6517 10.7925 7.1517 10.7925ZM7.1517 13.9525H18.7117C19.1917 13.9525 19.5617 13.5925 19.5617 13.1325C19.5617 12.6525 19.1917 12.2825 18.7117 12.2825H7.1517C6.6517 12.2825 6.3017 12.6525 6.3017 13.1325C6.3017 13.5925 6.6517 13.9525 7.1517 13.9525ZM7.1517 17.1325H14.2217C14.7117 17.1325 15.0717 16.7725 15.0717 16.3025C15.0717 15.8225 14.7117 15.4525 14.2217 15.4525H7.1517C6.6517 15.4525 6.3017 15.8225 6.3017 16.3025C6.3017 16.7725 6.6517 17.1325 7.1517 17.1325Z" />
        </svg>
    