
        <svg xmlns="http://www.w3.org/2000/svg" viewBox="0 0 100 100">
            <path d="M3.4617 21.2264H17.7617C20.0517 21.2264 21.2217 20.0464 21.2217 17.7964V3.4264C21.2217 1.1764 20.0517 -0.0036 17.7617 -0.0036H3.4617C1.1717 -0.0036 0.0017 1.1564 0.0017 3.4264V17.7964C0.0017 20.0664 1.1717 21.2264 3.4617 21.2264ZM3.4817 19.7664C2.1717 19.7664 1.4517 19.0764 1.4517 17.7164V3.5064C1.4517 2.1464 2.1717 1.4564 3.4817 1.4564H17.7317C19.0317 1.4564 19.7717 2.1464 19.7717 3.5064V17.7164C19.7717 19.0764 19.0317 19.7664 17.7317 19.7664ZM6.9117 15.6164C7.2817 15.8764 7.6617 15.7764 7.9317 15.3964L9.3717 13.4364H15.2117C15.6717 13.4364 15.9817 13.2064 15.9817 12.7464C15.9817 12.2964 15.6817 12.0464 15.2117 12.0464H10.3817L12.4917 9.1864H15.2117C15.6717 9.1864 15.9817 8.9564 15.9817 8.4964C15.9817 8.0364 15.6817 7.7964 15.2117 7.7964H13.5117L14.4117 6.5764C14.6817 6.1964 14.6817 5.7964 14.3217 5.5464C13.9617 5.2764 13.5817 5.3564 13.3017 5.7464L11.7917 7.7964H6.0117C5.5317 7.7964 5.2217 8.0364 5.2217 8.4964C5.2217 8.9564 5.5517 9.1864 6.0117 9.1864H10.7717L8.6617 12.0464H6.0117C5.5317 12.0464 5.2217 12.2964 5.2217 12.7464C5.2217 13.2064 5.5517 13.4364 6.0117 13.4364H7.6417L6.8117 14.5764C6.5317 14.9664 6.5517 15.3564 6.9117 15.6164Z" />
        </svg>
    