
        <svg xmlns="http://www.w3.org/2000/svg" viewBox="0 0 100 100">
            <path d="M3.8417 21.8628H23.9217C26.4517 21.8628 27.7617 20.5628 27.7617 18.0728V3.7928C27.7617 1.3028 26.4517 0.0028 23.9217 0.0028H3.8417C1.3117 0.0028 0.0017 1.2928 0.0017 3.7928V18.0728C0.0017 20.5628 1.3117 21.8628 3.8417 21.8628ZM20.6517 15.7828C18.9617 15.7828 17.5817 14.9728 17.2817 13.7928C17.2417 13.6428 17.2217 13.5428 17.2217 13.3828C17.2217 12.9228 17.5317 12.5928 18.0317 12.5928C18.4217 12.5928 18.6517 12.7628 18.8417 13.1528C19.1017 13.8728 19.7617 14.2828 20.6717 14.2828C21.7717 14.2828 22.5117 13.7128 22.5117 12.8828C22.5117 12.0228 21.8017 11.4628 20.7217 11.4628H20.0617C19.6417 11.4628 19.3317 11.1728 19.3317 10.7428C19.3317 10.3228 19.6517 10.0428 20.0617 10.0428H20.6617C21.5717 10.0428 22.2317 9.4828 22.2317 8.6928C22.2317 7.9428 21.6317 7.4628 20.7117 7.4628C19.8517 7.4628 19.2217 7.9028 18.9817 8.6228C18.8317 9.0028 18.5817 9.1728 18.1917 9.1728C17.7217 9.1728 17.3917 8.8628 17.3917 8.4228C17.3917 8.2528 17.4117 8.1328 17.4617 7.9728C17.7817 6.7628 19.0817 5.9928 20.7217 5.9928C22.6317 5.9928 23.9617 7.0328 23.9617 8.5028C23.9617 9.5928 23.1517 10.5228 22.1617 10.6628V10.6828C23.3917 10.8028 24.2917 11.7428 24.2917 12.9628C24.2917 14.6628 22.8317 15.7828 20.6517 15.7828ZM6.8117 15.7728C6.2417 15.7728 5.9017 15.3828 5.9017 14.7928V7.9428H5.8117L4.5517 8.7728C4.2917 8.9428 4.1717 8.9628 4.0117 8.9628C3.6517 8.9628 3.3717 8.6628 3.3717 8.2928C3.3717 8.0428 3.4817 7.8528 3.7217 7.6728L5.5417 6.4428C6.0317 6.1328 6.2917 6.0028 6.7417 6.0028C7.3617 6.0028 7.7217 6.3628 7.7217 7.0028V14.7928C7.7217 15.4028 7.3817 15.7728 6.8117 15.7728ZM10.2917 15.6128C9.7717 15.6128 9.4417 15.3128 9.4417 14.8328C9.4417 14.5628 9.5717 14.3228 9.7817 14.1128L13.0517 10.7228C13.6417 10.0928 14.2117 9.5028 14.2117 8.8128C14.2117 8.0428 13.6017 7.5028 12.6917 7.5028C11.7917 7.5028 11.2717 8.0928 11.0317 8.7028C10.8417 9.0428 10.6017 9.2728 10.1917 9.2728C9.7217 9.2728 9.4217 8.9628 9.4217 8.5228C9.4217 8.3628 9.4417 8.2428 9.4917 8.0728C9.8317 6.8628 11.1717 6.0128 12.6517 6.0128C14.6217 6.0128 15.9117 7.0828 15.9117 8.6928C15.9117 9.7928 15.2717 10.6428 14.3417 11.6128L12.0017 14.0528V14.0928L15.5617 14.0828C16.0217 14.0828 16.3517 14.4028 16.3517 14.8428C16.3517 15.2928 16.0317 15.6128 15.5617 15.6128Z" />
        </svg>
    