
        <svg xmlns="http://www.w3.org/2000/svg" viewBox="0 0 100 100">
            <path d="M11.4923 22.977C17.8123 22.977 22.9823 17.827 22.9823 11.497C22.9823 5.167 17.8123 -0.003 11.4923 -0.003C5.1723 -0.003 0.0023 5.167 0.0023 11.497C0.0023 17.827 5.1723 22.977 11.4923 22.977ZM8.7323 16.807C8.4623 16.807 8.2623 16.597 8.3223 16.327L8.8823 13.607H7.4223C7.1923 13.607 7.0423 13.457 7.0423 13.247C7.0423 12.997 7.2023 12.827 7.4623 12.827H9.0723L9.6523 10.027H8.2523C8.0123 10.027 7.8723 9.877 7.8723 9.667C7.8723 9.417 8.0423 9.257 8.2923 9.257H9.8223L10.3823 6.547C10.4423 6.297 10.5823 6.177 10.8423 6.177C11.1123 6.177 11.3123 6.387 11.2523 6.657L10.6923 9.257H13.2623L13.8423 6.547C13.9023 6.297 14.0523 6.177 14.2823 6.177C14.5523 6.177 14.7523 6.387 14.6923 6.657L14.1523 9.257H15.5623C15.7823 9.257 15.9223 9.397 15.9223 9.617C15.9223 9.857 15.7623 10.027 15.5023 10.027H13.9923L13.3923 12.827H14.7323C14.9523 12.827 15.0923 12.977 15.0923 13.197C15.0923 13.427 14.9323 13.607 14.6723 13.607H13.2223L12.6323 16.427C12.5823 16.677 12.4323 16.807 12.1723 16.807C11.9023 16.807 11.7023 16.597 11.7623 16.327L12.3423 13.607H9.7723L9.1723 16.427C9.1123 16.677 8.9723 16.807 8.7323 16.807ZM9.9223 12.857H12.5423L13.1223 9.997H10.5123Z" />
        </svg>
    