
        <svg xmlns="http://www.w3.org/2000/svg" viewBox="0 0 100 100">
            <path d="M3.1617 20.742H24.0317C26.1117 20.742 27.1917 19.642 27.1917 17.592V3.152C27.1917 1.102 26.1117 0.002 24.0317 0.002H3.1617C1.0917 0.002 0.0017 1.082 0.0017 3.152V17.592C0.0017 19.662 1.0917 20.742 3.1617 20.742ZM3.1917 19.872C1.6617 19.872 0.8717 19.082 0.8717 17.552V3.202C0.8717 1.662 1.6617 0.872 3.1917 0.872H24.0017C25.4717 0.872 26.3217 1.662 26.3217 3.202V17.552C26.3217 19.082 25.4717 19.872 24.0017 19.872ZM20.2117 15.412C22.1817 15.412 23.6017 14.252 23.6017 12.602C23.6017 11.332 22.6017 10.302 21.2917 10.172V10.132C22.4217 9.922 23.2517 8.922 23.2517 7.782C23.2517 6.332 21.9717 5.292 20.2217 5.292C18.7117 5.292 17.4417 6.122 17.2617 7.292C17.2417 7.422 17.2217 7.512 17.2217 7.632C17.2217 7.852 17.3717 8.012 17.6017 8.012C17.8517 8.012 17.9617 7.902 18.0017 7.662C18.1517 6.702 19.0417 6.022 20.2117 6.022C21.5417 6.022 22.4317 6.782 22.4317 7.872C22.4317 8.962 21.4917 9.822 20.2717 9.822H19.3617C19.1617 9.822 18.9917 9.962 18.9917 10.182C18.9917 10.402 19.1417 10.562 19.3617 10.562H20.3517C21.7517 10.562 22.7817 11.422 22.7817 12.582C22.7817 13.812 21.7517 14.682 20.2217 14.682C19.0117 14.682 18.0217 14.012 17.8017 13.032C17.7417 12.812 17.6117 12.692 17.4017 12.692C17.1317 12.692 17.0117 12.882 17.0117 13.132C17.0117 13.222 17.0117 13.282 17.0317 13.372C17.2417 14.532 18.7217 15.412 20.2117 15.412ZM9.8417 15.272H15.4417C15.6717 15.272 15.8217 15.102 15.8217 14.882C15.8217 14.672 15.6517 14.512 15.4417 14.512L10.5817 14.522V14.462L13.7717 10.942C14.8917 9.692 15.3717 8.902 15.3717 7.932C15.3717 6.342 14.1917 5.292 12.4017 5.292C10.8617 5.292 9.5417 6.222 9.3317 7.532C9.3117 7.652 9.2917 7.742 9.2917 7.862C9.2917 8.082 9.4317 8.252 9.6817 8.252C9.9017 8.252 10.0417 8.132 10.0917 7.922C10.2117 6.852 11.1217 6.042 12.4117 6.042C13.7217 6.042 14.5617 6.792 14.5617 7.942C14.5617 8.732 14.1517 9.422 13.3617 10.312L9.5617 14.492C9.4617 14.622 9.4117 14.722 9.4117 14.872C9.4117 15.122 9.5817 15.272 9.8417 15.272ZM6.5717 15.412C6.8217 15.412 6.9817 15.242 6.9817 14.992V5.762C6.9817 5.472 6.7717 5.312 6.5017 5.312C6.3017 5.312 6.1717 5.372 5.9417 5.532L3.6217 7.032C3.4917 7.122 3.4317 7.232 3.4317 7.362C3.4317 7.562 3.6017 7.712 3.7717 7.712C3.8517 7.712 3.9217 7.702 4.0917 7.582L6.1017 6.292H6.1617V14.992C6.1617 15.232 6.3317 15.412 6.5717 15.412Z" />
        </svg>
    