
        <svg xmlns="http://www.w3.org/2000/svg" viewBox="0 0 100 100">
            <path d="M12.7923 25.5978C19.8723 25.5978 25.6023 19.8678 25.6023 12.7978C25.6023 5.7278 19.8723 -0.0022 12.7923 -0.0022C5.7323 -0.0022 0.0023 5.7278 0.0023 12.7978C0.0023 19.8678 5.7323 25.5978 12.7923 25.5978ZM12.7923 18.5878C9.5723 18.5878 7.1223 16.4878 7.1223 12.8078C7.1223 9.1278 9.5723 7.0478 12.7923 7.0478C16.0223 7.0478 18.4723 9.1278 18.4723 12.8078C18.4723 16.4878 16.0223 18.5878 12.7923 18.5878ZM12.7923 15.2678C13.6623 15.2678 14.3523 14.4978 14.3523 12.8078C14.3523 11.1178 13.6623 10.3478 12.7923 10.3478C11.9323 10.3478 11.2423 11.1178 11.2423 12.8078C11.2423 14.4978 11.9323 15.2678 12.7923 15.2678Z" />
        </svg>
    