
        <svg xmlns="http://www.w3.org/2000/svg" viewBox="0 0 100 100">
            <path d="M11.3523 22.7064C17.6023 22.7064 22.7123 17.6064 22.7123 11.3564C22.7123 5.1064 17.6023 -0.0036 11.3523 -0.0036C5.1123 -0.0036 0.0023 5.1064 0.0023 11.3564C0.0023 17.6064 5.1123 22.7064 11.3523 22.7064ZM11.3523 16.6764C8.5823 16.6764 6.7223 14.5564 6.7223 11.3664C6.7223 8.1864 8.5823 6.0664 11.3523 6.0664C14.1323 6.0664 15.9723 8.1864 15.9723 11.3664C15.9723 14.5564 14.1323 16.6764 11.3523 16.6764ZM11.3523 16.0864C13.7323 16.0864 15.3723 14.1664 15.3723 11.3664C15.3723 8.5664 13.7323 6.6564 11.3523 6.6564C8.9623 6.6564 7.3223 8.5664 7.3223 11.3664C7.3223 14.1664 8.9623 16.0864 11.3523 16.0864Z" />
        </svg>
    