
        <svg xmlns="http://www.w3.org/2000/svg" viewBox="0 0 100 100">
            <path d="M3.6817 21.5722H17.8917C20.3517 21.5722 21.5717 20.3722 21.5717 17.9522V3.6322C21.5717 1.2222 20.3517 0.0022 17.8917 0.0022H3.6817C1.2317 0.0022 0.0017 1.2222 0.0017 3.6322V17.9522C0.0017 20.3722 1.2317 21.5722 3.6817 21.5722ZM10.7917 16.4522C7.7117 16.4522 5.5617 14.0822 5.5617 10.6722C5.5617 7.2522 7.7117 4.8822 10.7917 4.8822C13.8917 4.8822 16.0317 7.2522 16.0317 10.6722C16.0317 14.0822 13.8917 16.4522 10.7917 16.4522ZM10.7917 14.9322C12.7817 14.9322 14.0817 13.2422 14.0817 10.6722C14.0817 8.1022 12.7817 6.4122 10.7917 6.4122C8.8017 6.4122 7.5017 8.1022 7.5017 10.6722C7.5017 13.2422 8.8017 14.9322 10.7917 14.9322Z" />
        </svg>
    