
        <svg xmlns="http://www.w3.org/2000/svg" viewBox="0 0 100 100">
            <path d="M3.6817 21.5722H17.8917C20.3517 21.5722 21.5717 20.3722 21.5717 17.9522V3.6322C21.5717 1.2222 20.3517 0.0022 17.8917 0.0022H3.6817C1.2317 0.0022 0.0017 1.2222 0.0017 3.6322V17.9522C0.0017 20.3722 1.2317 21.5722 3.6817 21.5722ZM3.7017 19.6922C2.5317 19.6922 1.8917 19.0622 1.8917 17.8522V3.7422C1.8917 2.5222 2.5317 1.8822 3.7017 1.8822H17.8717C19.0317 1.8822 19.6917 2.5222 19.6917 3.7422V17.8522C19.6917 19.0622 19.0317 19.6922 17.8717 19.6922ZM10.7917 16.2822C13.7917 16.2822 15.8717 13.9822 15.8717 10.6722C15.8717 7.3622 13.7917 5.0622 10.7917 5.0622C7.8017 5.0622 5.7317 7.3622 5.7317 10.6722C5.7317 13.9822 7.8017 16.2822 10.7917 16.2822ZM10.7917 14.8022C8.8617 14.8022 7.5917 13.1722 7.5917 10.6722C7.5917 8.1722 8.8617 6.5422 10.7917 6.5422C12.7217 6.5422 13.9917 8.1722 13.9917 10.6722C13.9917 13.1722 12.7217 14.8022 10.7917 14.8022Z" />
        </svg>
    