
        <svg xmlns="http://www.w3.org/2000/svg" viewBox="0 0 100 100">
            <path d="M0.9519 20.564C1.9619 21.574 3.1619 21.814 3.8819 21.084L8.3819 16.574C9.1219 15.824 9.5019 15.114 9.6219 14.364L9.8919 12.714L12.1019 10.494L14.3319 12.714L14.6019 14.364C14.7219 15.114 15.0919 15.824 15.8419 16.574L20.3419 21.084C21.0519 21.814 22.2619 21.574 23.2719 20.564C24.2919 19.564 24.5319 18.344 23.7919 17.624L19.2819 13.134C18.5419 12.384 17.8219 12.014 17.0719 11.884L15.4219 11.614L13.2119 9.404L19.6919 2.924L20.1919 3.424C20.4919 3.724 20.9719 3.714 21.2819 3.424C21.5819 3.104 21.6019 2.634 21.2819 2.324L19.1819 0.224C18.8819 -0.076 18.4019 -0.066 18.0919 0.224C17.7919 0.524 17.7819 1.014 18.0919 1.314L18.6019 1.814L12.1019 8.294L5.6219 1.814L6.1319 1.314C6.4419 1.014 6.4319 0.524 6.1319 0.224C5.8219 -0.066 5.3419 -0.076 5.0419 0.224L2.9419 2.324C2.6219 2.634 2.6419 3.104 2.9419 3.424C3.2419 3.714 3.7219 3.724 4.0319 3.424L4.5319 2.924L11.0119 9.404L8.8019 11.614L7.1419 11.884C6.3919 12.004 5.6819 12.384 4.9319 13.134L0.4219 17.624C-0.3081 18.344 -0.0681 19.564 0.9519 20.564Z" />
        </svg>
    