
        <svg xmlns="http://www.w3.org/2000/svg" viewBox="0 0 100 100">
            <path d="M0.8226 18.5616C1.6926 19.4316 2.6426 19.6216 3.1926 19.0416L7.3626 14.8516C8.0326 14.2016 8.3426 13.6016 8.4526 12.9516L8.7326 11.1816L10.9126 9.0016L13.0926 11.1816L13.3826 12.9516C13.4926 13.6016 13.7926 14.2016 14.4726 14.8516L18.6426 19.0416C19.1926 19.6216 20.1426 19.4316 21.0126 18.5616C21.8926 17.6916 22.0626 16.7416 21.4926 16.1816L17.3126 12.0216C16.6426 11.3516 16.0526 11.0216 15.4126 10.9316L13.6226 10.6216L11.4526 8.4716L18.0226 1.8916L18.7226 2.5916C18.8826 2.7616 19.0926 2.7616 19.2526 2.5916C19.4226 2.4316 19.4226 2.2216 19.2526 2.0716L17.3126 0.1216C17.1526 -0.0384 16.9426 -0.0384 16.7826 0.1216C16.6226 0.2916 16.6226 0.5016 16.7826 0.6516L17.4826 1.3516L10.9126 7.9316L4.3326 1.3516L5.0526 0.6516C5.2026 0.5016 5.2026 0.2916 5.0526 0.1216C4.8926 -0.0384 4.6726 -0.0384 4.5226 0.1216L2.5626 2.0716C2.4126 2.2216 2.4126 2.4316 2.5626 2.5916C2.7326 2.7616 2.9426 2.7616 3.0926 2.5916L3.8026 1.8916L10.3726 8.4716L8.2126 10.6216L6.4226 10.9316C5.7826 11.0216 5.1826 11.3516 4.5226 12.0216L0.3426 16.1816C-0.2474 16.7416 -0.0674 17.6916 0.8226 18.5616Z" />
        </svg>
    