
        <svg xmlns="http://www.w3.org/2000/svg" viewBox="0 0 100 100">
            <path d="M11.3523 22.7064C17.6323 22.7064 22.7123 17.6264 22.7123 11.3564C22.7123 5.0764 17.6323 -0.0036 11.3523 -0.0036C5.0823 -0.0036 0.0023 5.0764 0.0023 11.3564C0.0023 17.6264 5.0823 22.7064 11.3523 22.7064ZM11.3523 22.1364C5.3923 22.1364 0.5723 17.3164 0.5723 11.3564C0.5723 5.3864 5.3923 0.5764 11.3523 0.5764C17.3223 0.5764 22.1323 5.3864 22.1323 11.3564C22.1323 17.3164 17.3223 22.1364 11.3523 22.1364ZM5.4423 16.1964C5.9423 16.7064 6.4723 16.8164 6.7723 16.4864L9.2323 14.0164C9.6323 13.6264 9.8123 13.2964 9.8623 12.9164L10.0323 11.9064L11.3423 10.5964L12.6523 11.9064L12.8223 12.9164C12.8823 13.2964 13.0623 13.6264 13.4623 14.0164L15.9123 16.4864C16.2323 16.8164 16.7623 16.7064 17.2623 16.1964C17.7923 15.6864 17.8723 15.1564 17.5423 14.8364L15.0823 12.3864C14.7023 11.9964 14.3523 11.7964 13.9923 11.7664L12.9523 11.5764L11.6623 10.2764L15.5323 6.4064L15.9523 6.8364C16.0423 6.9264 16.1623 6.9264 16.2523 6.8364C16.3523 6.7264 16.3523 6.6064 16.2523 6.5264L15.1023 5.3764C15.0223 5.2864 14.8823 5.2864 14.8023 5.3764C14.7023 5.4564 14.7023 5.5864 14.8023 5.6864L15.2123 6.0964L11.3423 9.9764L7.4923 6.0964L7.9023 5.6864C7.9823 5.5864 7.9923 5.4564 7.9023 5.3764C7.8023 5.2864 7.6723 5.2864 7.5923 5.3764L6.4323 6.5264C6.3523 6.6064 6.3523 6.7264 6.4323 6.8364C6.5423 6.9264 6.6523 6.9264 6.7523 6.8364L7.1723 6.4064L11.0423 10.2764L9.7423 11.5764L8.7023 11.7664C8.3323 11.7964 7.9923 11.9964 7.6123 12.3864L5.1423 14.8364C4.8123 15.1564 4.9123 15.6864 5.4423 16.1964Z" />
        </svg>
    