
        <svg xmlns="http://www.w3.org/2000/svg" viewBox="0 0 100 100">
            <path d="M8.4217 22.7816H15.0917C16.7817 22.7816 17.4417 22.2216 18.2617 21.3416L22.6017 16.6216C23.3317 15.8316 23.5217 15.3016 23.5217 14.1516V8.6216C23.5217 7.4716 23.3317 6.9616 22.6017 6.1616L18.2617 1.4516C17.4417 0.5616 16.7817 0.0016 15.0917 0.0016H8.4217C6.7417 0.0016 6.0817 0.5616 5.2617 1.4516L0.9117 6.1616C0.1917 6.9616 0.0017 7.4716 0.0017 8.6216V14.1516C0.0017 15.3016 0.1917 15.8316 0.9117 16.6216L5.2617 21.3416C6.0817 22.2216 6.7417 22.7816 8.4217 22.7816ZM8.8517 21.3516C7.4717 21.3516 7.1217 21.0216 6.3517 20.1916L2.2117 15.7216C1.7317 15.2016 1.6417 14.8816 1.6417 14.0116V8.7816C1.6417 7.9016 1.7317 7.5816 2.2117 7.0516L6.3517 2.5916C7.1217 1.7616 7.4717 1.4416 8.8517 1.4416H14.6717C16.0417 1.4416 16.3917 1.7616 17.1717 2.5916L21.3017 7.0516C21.7817 7.5816 21.8917 7.9016 21.8917 8.7816V14.0116C21.8917 14.8816 21.7817 15.2016 21.3017 15.7216L17.1717 20.1916C16.3917 21.0216 16.0417 21.3516 14.6717 21.3516Z" />
        </svg>
    