
        <svg xmlns="http://www.w3.org/2000/svg" viewBox="0 0 100 100">
            <path d="M8.8217 23.8823H16.0417C17.5817 23.8823 18.4717 23.3523 19.3117 22.4223L23.8017 17.3623C24.6417 16.4223 24.8717 15.7923 24.8717 14.5123V9.3723C24.8717 8.0823 24.5817 7.5223 23.7217 6.5123L19.3117 1.4723C18.4817 0.5223 17.5817 0.0023 16.0417 0.0023H8.8217C7.2917 0.0023 6.4017 0.5423 5.5517 1.4723L1.0517 6.5123C0.2117 7.4723 0.0017 8.0823 0.0017 9.3723V14.5123C0.0017 15.7923 0.2117 16.4223 1.0517 17.3623L5.5517 22.4223C6.4017 23.3523 7.2917 23.8823 8.8217 23.8823Z" />
        </svg>
    