
        <svg xmlns="http://www.w3.org/2000/svg" viewBox="0 0 100 100">
            <path d="M8.3217 22.0048H14.1017C16.2117 22.0048 16.7217 21.2848 17.6717 20.2948L21.6117 16.1648C22.2517 15.4948 22.4217 15.0448 22.4217 13.9348V8.0648C22.4217 6.9648 22.2517 6.5148 21.6117 5.8448L17.6717 1.7148C16.7217 0.7248 16.2117 0.0048 14.1017 0.0048H8.3217C6.2117 0.0048 5.6917 0.7248 4.7417 1.7148L0.8117 5.8448C0.1617 6.5148 0.0017 6.9648 0.0017 8.0648V13.9348C0.0017 15.0448 0.1617 15.4948 0.8117 16.1648L4.7417 20.2948C5.6917 21.2848 6.2117 22.0048 8.3217 22.0048ZM11.2017 0.5348H14.1117C15.8917 0.5348 16.2417 1.0048 17.2717 2.0748L21.2317 6.2348C21.7417 6.7748 21.8417 7.1448 21.8417 8.0648V13.9448C21.8417 14.8548 21.7417 15.2348 21.2317 15.7748L17.2717 19.9248C16.2417 20.9848 15.8917 21.4548 14.1117 21.4548H11.2017Z" />
        </svg>
    