
        <svg xmlns="http://www.w3.org/2000/svg" viewBox="0 0 100 100">
            <path d="M0.8838 9.2063L7.0438 18.3163C7.9238 19.6163 9.1338 20.4063 11.1338 20.4063H21.2138C23.2838 20.4063 24.7438 19.8563 25.7038 18.6163L33.4738 8.6763L36.9738 7.7063L38.2838 8.8463C40.2938 10.5563 42.8838 7.8363 40.8738 6.0863L38.9638 4.3963C38.3038 3.7963 37.5938 3.6663 36.5638 3.9462L23.0338 7.6363L21.5038 6.1663C20.8638 5.5563 20.1138 5.2963 19.0638 5.2963H17.0838V3.4663H18.8538C19.8038 3.4663 20.6038 2.6962 20.6038 1.7362C20.6038 0.7862 19.8038 -0.0038 18.8538 -0.0038H11.5638C10.6238 -0.0038 9.8238 0.7862 9.8238 1.7362C9.8238 2.6962 10.6238 3.4663 11.5638 3.4663H13.3338V5.2963H11.1338C10.7338 5.2963 10.3738 5.3163 10.0238 5.3763L4.9138 3.3663C1.2138 1.8863 -1.4662 5.7662 0.8838 9.2063ZM3.6938 7.2563C3.4738 6.9363 3.7538 6.6163 4.1038 6.7663L6.8538 7.8763C6.6438 8.4363 6.5538 9.0963 6.5538 9.8363V11.4363ZM10.2838 15.7663V9.9563C10.2838 9.2762 10.5238 9.0262 11.1738 9.0262H18.5338C18.9738 9.0262 19.0638 9.0563 19.2838 9.2563L21.0338 10.9563C21.6338 11.5563 22.3638 11.7162 23.2138 11.4863L27.4738 10.3163L23.2638 15.6663C22.7138 16.3863 22.1038 16.6763 21.2138 16.6763H11.1738C10.5238 16.6763 10.2838 16.4263 10.2838 15.7663ZM39.5138 20.5063C40.9438 20.5063 42.1338 19.4063 42.1338 17.9763C42.1338 17.1563 41.7238 16.3663 41.3238 15.6463L39.7638 12.7663C39.7038 12.6463 39.6438 12.5763 39.5138 12.5763C39.4038 12.5763 39.3438 12.6463 39.2738 12.7663L37.7138 15.6463C37.3138 16.3663 36.9038 17.1563 36.9038 17.9763C36.9038 19.4063 38.1038 20.5063 39.5138 20.5063Z" />
        </svg>
    