
        <svg xmlns="http://www.w3.org/2000/svg" viewBox="0 0 100 100">
            <path d="M14.8976 16.2389C16.7876 16.2389 18.2876 14.7389 18.2876 12.8389C18.2876 11.5289 17.5576 10.4389 16.4676 9.8589C16.0176 9.6189 15.8776 9.4489 15.8776 8.7689V0.9689C15.8776 0.4289 15.4776 -0.0011 14.8976 -0.0011C14.3376 -0.0011 13.9376 0.4289 13.9376 0.9689V8.7689C13.9376 9.4489 13.7876 9.6189 13.3476 9.8589C12.2576 10.4389 11.5176 11.5289 11.5176 12.8389C11.5176 14.7389 13.0276 16.2389 14.8976 16.2389ZM18.5776 1.5889H20.9176C21.0876 1.5889 21.2376 1.4789 21.2376 1.3089C21.2376 1.1489 21.0876 1.0289 20.9176 1.0289H18.5776C18.4076 1.0289 18.2676 1.1489 18.2676 1.3089C18.2676 1.4789 18.4076 1.5889 18.5776 1.5889ZM18.5776 3.9689H20.9176C21.0876 3.9689 21.2376 3.8589 21.2376 3.6889C21.2376 3.5289 21.0876 3.4089 20.9176 3.4089H18.5776C18.4076 3.4089 18.2676 3.5289 18.2676 3.6889C18.2676 3.8589 18.4076 3.9689 18.5776 3.9689ZM18.5776 6.3489H20.9176C21.0876 6.3489 21.2376 6.2389 21.2376 6.0689C21.2376 5.9089 21.0876 5.7889 20.9176 5.7889H18.5776C18.4076 5.7889 18.2676 5.9089 18.2676 6.0689C18.2676 6.2389 18.4076 6.3489 18.5776 6.3489ZM8.0676 23.3289H18.3376C19.9276 23.3289 20.9376 22.9189 21.8376 21.7689L29.5276 11.8989L35.3076 10.5089L36.7376 11.6689C37.0776 11.9389 37.4976 11.5289 37.1476 11.2289L35.9276 10.2089C35.6576 9.9889 35.4576 9.8989 35.0376 10.0089L20.3376 13.4889L19.1476 12.3389C19.1576 12.4989 19.1776 12.6789 19.1776 12.8389C19.1776 15.2189 17.2676 17.1289 14.8976 17.1289C12.5376 17.1289 10.6376 15.2189 10.6376 12.8389C10.6376 12.0789 10.8576 11.3889 11.1876 10.7889H8.0676C7.5576 10.7889 7.1076 10.8589 6.7176 11.0189L2.7776 9.8589C0.8776 9.2889 -0.7324 10.7189 0.3476 12.6789L5.5876 22.1289C5.9476 22.7889 6.7076 23.3289 8.0676 23.3289ZM0.8876 12.4489C0.0576 10.9589 1.1776 9.9689 2.5376 10.3689L6.0676 11.4189C5.4876 11.9089 5.2076 12.6689 5.2076 13.6889V20.2289ZM36.9176 23.8289C38.5876 23.8289 39.8976 22.4689 39.8976 20.7989C39.8976 19.8589 39.4876 19.0389 39.0176 18.1989L37.1476 14.7989C37.1176 14.7289 37.0176 14.6689 36.9176 14.6689C36.8376 14.6689 36.7576 14.7289 36.7076 14.8089L34.8276 18.1989C34.3676 19.0189 33.9476 19.8589 33.9476 20.7989C33.9476 22.4689 35.2776 23.8289 36.9176 23.8289Z" />
        </svg>
    