
        <svg xmlns="http://www.w3.org/2000/svg" viewBox="0 0 100 100">
            <path d="M14.3094 20.2777C21.9894 20.2777 28.6294 14.8377 28.6294 10.1377C28.6294 5.4377 21.9894 -0.0023 14.3094 -0.0023C6.6594 -0.0023 -0.0006 5.4377 -0.0006 10.1377C-0.0006 14.8377 6.6594 20.2777 14.3094 20.2777ZM14.3094 3.1477C18.9394 3.1477 21.1294 7.2977 21.1594 8.9077C21.1594 9.2777 20.8594 9.6077 20.4694 9.6077C20.1494 9.6077 19.8394 9.3677 19.7794 9.0477C19.2394 6.4577 17.0194 4.5577 14.3094 4.5577C13.1794 4.5577 12.1194 4.8977 11.2394 5.4877C11.1194 5.5677 10.9694 5.6177 10.8394 5.6177C10.4394 5.6177 10.1394 5.2877 10.1394 4.8877C10.1394 4.6677 10.2294 4.4577 10.4394 4.3077C11.5394 3.5577 12.8794 3.1477 14.3094 3.1477ZM14.3094 14.6177C11.7894 14.6177 9.8194 12.6177 9.8194 10.1577C9.8194 7.6777 11.9994 5.8677 13.0694 5.8677C13.4394 5.8677 13.7694 6.1777 13.7694 6.5877C13.7694 6.8577 13.5594 7.1377 13.2894 7.2277C12.0694 7.6477 11.2294 8.7777 11.2294 10.1277C11.2294 11.7877 12.5594 13.2077 14.3694 13.2077C15.1194 13.2077 15.8094 12.9377 16.2994 12.4777C16.4294 12.3677 16.5894 12.3077 16.7694 12.3077C17.1594 12.3077 17.4694 12.6077 17.4694 12.9977C17.4694 13.1977 17.3794 13.4077 17.1794 13.5677C16.4194 14.2077 15.4194 14.6177 14.3094 14.6177ZM18.7694 10.1377C18.7694 10.3977 18.7694 10.6777 18.7294 10.8877C18.6594 11.2477 18.4794 11.5277 18.0194 11.5277C17.6394 11.5277 17.3094 11.2977 17.3094 10.8077C17.3094 10.6677 17.3794 10.3077 17.3794 10.1377C17.3794 8.7777 16.5194 7.6477 15.3294 7.2277C15.0594 7.1377 14.8494 6.8577 14.8494 6.5877C14.8494 6.1777 15.1794 5.8677 15.5694 5.8677C16.6094 5.8677 18.7694 7.6277 18.7694 10.1377ZM7.3194 10.1377C7.3194 8.7077 7.7394 7.3677 8.4894 6.2577C8.6294 6.0577 8.8394 5.9677 9.0494 5.9677C9.4494 5.9677 9.7594 6.2477 9.7594 6.6577C9.7594 6.7977 9.7294 6.9377 9.6494 7.0677C9.0494 7.9477 8.7294 8.9977 8.7294 10.1377C8.7294 11.2777 9.0394 12.3377 9.6494 13.1977C9.7294 13.3377 9.7594 13.4677 9.7594 13.6077C9.7594 14.0577 9.3894 14.2977 9.0494 14.2977C8.8394 14.2977 8.6094 14.2077 8.4594 13.9877C7.7394 12.8877 7.3194 11.5677 7.3194 10.1377ZM14.3094 12.0977C13.2194 12.0977 12.3494 11.2277 12.3494 10.1377C12.3494 9.0477 13.2194 8.1777 14.3094 8.1777C15.3894 8.1777 16.2794 9.0477 16.2794 10.1377C16.2794 11.2277 15.3894 12.0977 14.3094 12.0977ZM14.3094 17.1177C12.8794 17.1177 11.5394 16.7077 10.4394 15.9577C10.2294 15.8177 10.1394 15.6077 10.1394 15.3877C10.1394 14.9977 10.4194 14.6877 10.8194 14.6877C10.9594 14.6877 11.0894 14.7177 11.1994 14.7877C12.1094 15.4077 13.1694 15.7177 14.3094 15.7177C17.0194 15.7177 19.2494 13.8177 19.7794 11.2277C19.8394 10.9077 20.1494 10.6777 20.4694 10.6777C20.8494 10.6777 21.1594 10.9877 21.1594 11.3677C21.1394 12.9377 18.9494 17.1177 14.3094 17.1177Z" />
        </svg>
    