
        <svg xmlns="http://www.w3.org/2000/svg" viewBox="0 0 100 100">
            <path d="M0.0017 14.958C0.0017 18.098 2.3717 20.448 5.7417 20.448H22.4717C25.8517 20.448 28.2217 18.098 28.2217 14.958C28.2217 14.018 27.9417 13.158 27.6217 12.388L23.6017 2.938C22.7817 1.018 21.1517 -0.002 18.9717 -0.002H9.2417C7.0617 -0.002 5.4417 1.018 4.6217 2.938L0.6217 12.338C0.2917 13.128 0.0017 13.988 0.0017 14.958ZM4.1917 9.718L6.7417 3.468C7.1517 2.448 8.0517 1.918 9.2817 1.918H18.9417C20.1717 1.918 21.0717 2.448 21.4817 3.468L24.0217 9.718C23.5417 9.548 23.0317 9.458 22.4717 9.458H5.7417C5.1817 9.458 4.6617 9.548 4.1917 9.718ZM2.2217 14.958C2.2217 13.078 3.6217 11.688 5.7417 11.688H22.4717C24.5817 11.688 25.9917 13.078 25.9917 14.958C25.9917 17.028 24.5817 18.218 22.4717 18.218H5.7417C3.6217 18.218 2.2217 16.828 2.2217 14.958ZM5.2717 14.958C5.2717 15.448 5.6717 15.828 6.1517 15.828H22.0617C22.5517 15.828 22.9317 15.448 22.9317 14.958C22.9317 14.468 22.5517 14.078 22.0617 14.078H6.1517C5.6717 14.078 5.2717 14.468 5.2717 14.958Z" />
        </svg>
    