
        <svg xmlns="http://www.w3.org/2000/svg" viewBox="0 0 100 100">
            <path d="M4.3317 8.9102H21.8017C22.7817 8.9102 23.6917 9.1802 24.4717 9.6602L20.9517 2.1102C20.3217 0.7302 19.2317 0.0002 17.6917 0.0002H8.4217C6.9017 0.0002 5.8117 0.7302 5.1717 2.1102L1.6417 9.6602C2.4217 9.1802 3.3517 8.9102 4.3317 8.9102ZM4.3317 18.4602H21.8017C24.1917 18.4602 26.1317 16.5102 26.1317 14.1302C26.1317 11.7402 24.1917 9.8002 21.8017 9.8002H4.3317C1.9417 9.8002 0.0017 11.7402 0.0017 14.1302C0.0017 16.5102 1.9417 18.4602 4.3317 18.4602ZM4.4717 14.1302C4.4717 13.9702 4.6017 13.8402 4.7617 13.8402H21.3617C21.5317 13.8402 21.6517 13.9702 21.6517 14.1302C21.6517 14.2802 21.5317 14.4102 21.3617 14.4102H4.7617C4.6017 14.4102 4.4717 14.2802 4.4717 14.1302Z" />
        </svg>
    