
        <svg xmlns="http://www.w3.org/2000/svg" viewBox="0 0 100 100">
            <path d="M2.9317 21.0009H21.9817C23.7417 21.0009 24.9217 19.8009 24.9217 18.0609V2.9409C24.9217 1.1809 23.7417 0.0009 21.9817 0.0009H2.9317C1.1817 0.0009 0.0017 1.1809 0.0017 2.9409V18.0609C0.0017 19.8009 1.1817 21.0009 2.9317 21.0009ZM2.2217 3.0909C2.2217 2.5709 2.5517 2.2109 3.0517 2.2109H21.9017C22.3817 2.2109 22.7017 2.5509 22.7017 3.0709V6.0209H2.2217ZM5.4517 5.2409C6.0517 5.2409 6.5417 4.7609 6.5417 4.1609C6.5417 3.5509 6.0517 3.0609 5.4517 3.0609C4.8417 3.0609 4.3517 3.5509 4.3517 4.1609C4.3517 4.7609 4.8417 5.2409 5.4517 5.2409ZM8.5317 5.2409C9.1317 5.2409 9.6217 4.7609 9.6217 4.1609C9.6217 3.5509 9.1317 3.0609 8.5317 3.0609C7.9217 3.0609 7.4317 3.5509 7.4317 4.1609C7.4317 4.7609 7.9217 5.2409 8.5317 5.2409ZM11.6017 5.2409C12.2117 5.2409 12.6917 4.7609 12.6917 4.1609C12.6917 3.5509 12.2117 3.0609 11.6017 3.0609C11.0017 3.0609 10.5117 3.5509 10.5117 4.1609C10.5117 4.7609 11.0017 5.2409 11.6017 5.2409ZM16.9317 4.8409H20.0617C20.4617 4.8409 20.7417 4.5509 20.7417 4.1609C20.7417 3.7609 20.4617 3.4809 20.0617 3.4809H16.9317C16.5517 3.4809 16.2517 3.7609 16.2517 4.1609C16.2517 4.5509 16.5517 4.8409 16.9317 4.8409ZM3.0517 18.7709C2.5517 18.7709 2.2217 18.4209 2.2217 17.9109V7.7009H22.7017V17.9309C22.7017 18.4309 22.3817 18.7709 21.9017 18.7709ZM5.2017 17.3709H19.7317C20.3917 17.3709 20.8217 16.9309 20.8217 16.2609V10.0709C20.8217 9.4009 20.3917 8.9809 19.7317 8.9809H5.2017C4.5317 8.9809 4.1117 9.4009 4.1117 10.0709V16.2609C4.1117 16.9309 4.5317 17.3709 5.2017 17.3709ZM5.5417 10.6709C5.5417 10.5109 5.6717 10.3809 5.8517 10.3809H19.0917C19.2517 10.3809 19.3817 10.5109 19.3817 10.6709V11.5709H5.5417ZM5.8517 15.9209C5.6717 15.9209 5.5417 15.8009 5.5417 15.6309V12.8909H19.3817V15.6309C19.3817 15.8009 19.2517 15.9209 19.0917 15.9209Z" />
        </svg>
    