
        <svg xmlns="http://www.w3.org/2000/svg" viewBox="0 0 100 100">
            <path d="M0.0017 5.5633H21.6517V2.2633C21.6517 0.9033 20.8117 0.0033 19.5617 0.0033H2.0817C0.8317 0.0033 0.0017 0.9033 0.0017 2.2633ZM4.1017 4.1233C3.5317 4.1233 3.0917 3.6833 3.0917 3.1333C3.0917 2.5533 3.5317 2.1133 4.1017 2.1133C4.6717 2.1133 5.1217 2.5533 5.1217 3.1333C5.1217 3.6833 4.6717 4.1233 4.1017 4.1233ZM7.2317 4.1233C6.6517 4.1233 6.2117 3.6833 6.2117 3.1333C6.2117 2.5533 6.6517 2.1133 7.2317 2.1133C7.7917 2.1133 8.2417 2.5533 8.2417 3.1333C8.2417 3.6833 7.7917 4.1233 7.2317 4.1233ZM10.3317 4.1233C9.7617 4.1233 9.3317 3.6833 9.3317 3.1333C9.3317 2.5533 9.7617 2.1133 10.3317 2.1133C10.9117 2.1133 11.3517 2.5533 11.3517 3.1333C11.3517 3.6833 10.9117 4.1233 10.3317 4.1233ZM15.3417 3.4833C15.1317 3.4833 14.9717 3.3133 14.9717 3.1133C14.9717 2.9033 15.1317 2.7533 15.3417 2.7533H18.5017C18.7117 2.7533 18.8717 2.9033 18.8717 3.1133C18.8717 3.3133 18.7117 3.4833 18.5017 3.4833ZM2.0817 18.3133H19.5617C20.8117 18.3133 21.6517 17.4133 21.6517 16.0533V6.3133H0.0017V16.0533C0.0017 17.4133 0.8317 18.3133 2.0817 18.3133ZM3.6717 15.8933C2.9317 15.8933 2.4717 15.4233 2.4717 14.6833V9.3233C2.4717 8.5933 2.9317 8.1233 3.6717 8.1233H17.9717C18.7117 8.1233 19.1717 8.5933 19.1717 9.3233V14.6833C19.1717 15.4233 18.7117 15.8933 17.9717 15.8933ZM3.2217 10.2233H18.4217V9.4233C18.4217 9.0833 18.2117 8.8633 17.8717 8.8633H3.7717C3.4317 8.8633 3.2217 9.0833 3.2217 9.4233ZM3.7717 15.1433H17.8717C18.2117 15.1433 18.4217 14.9333 18.4217 14.5733V10.9733H3.2217V14.5733C3.2217 14.9333 3.4317 15.1433 3.7717 15.1433Z" />
        </svg>
    