
        <svg xmlns="http://www.w3.org/2000/svg" viewBox="0 0 100 100">
            <path d="M12.1023 24.2064C18.7823 24.2064 24.2123 18.7864 24.2123 12.1064C24.2123 5.4264 18.7823 -0.0036 12.1023 -0.0036C5.4223 -0.0036 0.0023 5.4264 0.0023 12.1064C0.0023 18.7864 5.4223 24.2064 12.1023 24.2064ZM9.4723 17.6864C8.7223 17.6864 8.3123 17.1664 8.3123 16.3664V7.8264C8.3123 7.0164 8.7223 6.5064 9.5123 6.5064H12.8523C15.2623 6.5064 16.8623 8.0364 16.8623 10.3264C16.8623 12.6364 15.2723 14.1464 12.8323 14.1464H10.6523V16.3664C10.6523 17.1764 10.2323 17.6864 9.4723 17.6864ZM10.6523 12.3964H12.5123C13.8323 12.3964 14.6023 11.6264 14.6023 10.3264C14.6023 9.0364 13.8123 8.2464 12.5123 8.2464H10.6523Z" />
        </svg>
    