
        <svg xmlns="http://www.w3.org/2000/svg" viewBox="0 0 100 100">
            <path d="M4.3817 22.8467H18.4717C21.2617 22.8467 22.8517 21.2667 22.8517 18.4767V4.3667C22.8517 1.5867 21.2617 -0.0033 18.4717 -0.0033H4.3817C1.5917 -0.0033 0.0017 1.5867 0.0017 4.3667V18.4767C0.0017 21.2667 1.5917 22.8467 4.3817 22.8467ZM4.8717 19.2267C4.0417 19.2267 3.6217 18.8567 3.6217 17.9767V4.8867C3.6217 4.0067 4.0417 3.6367 4.8717 3.6367H17.9717C18.8017 3.6367 19.2217 4.0067 19.2217 4.8867V17.9767C19.2217 18.8567 18.8017 19.2267 17.9717 19.2267ZM8.8217 16.7767C9.9017 16.7767 10.5217 16.0767 10.5217 14.9167V14.0167H12.0017C14.4717 14.0167 16.0617 12.4967 16.0617 10.1267C16.0617 7.7567 14.4917 6.2367 12.0517 6.2367H9.0117C7.7717 6.2367 7.1417 6.9167 7.1417 8.1667V14.9167C7.1417 16.0867 7.7417 16.7767 8.8217 16.7767ZM10.5217 11.5767V8.6767H11.5517C12.4417 8.6767 12.9117 9.1667 12.9117 10.1267C12.9117 11.0767 12.4417 11.5767 11.5517 11.5767Z" />
        </svg>
    