
        <svg xmlns="http://www.w3.org/2000/svg" viewBox="0 0 100 100">
            <path d="M4.5917 23.2359H18.6417C21.5417 23.2359 23.2417 21.5459 23.2417 18.6459V4.5959C23.2417 1.6959 21.5417 -0.0041 18.6417 -0.0041H4.5917C1.7017 -0.0041 0.0017 1.6959 0.0017 4.5959V18.6459C0.0017 21.5459 1.7017 23.2359 4.5917 23.2359ZM8.9417 17.4059C7.6217 17.4059 6.8517 16.5559 6.8517 15.1059V8.4959C6.8517 6.9359 7.6417 6.1259 9.2017 6.1259H12.3917C15.0917 6.1259 16.7817 7.7859 16.7817 10.3959C16.7817 13.0359 15.0517 14.6959 12.3317 14.6959H11.0317V15.1059C11.0317 16.5459 10.2317 17.4059 8.9417 17.4059ZM11.0317 11.7459H11.7817C12.5717 11.7459 12.9517 11.3059 12.9517 10.4059C12.9517 9.5059 12.5817 9.0859 11.7817 9.0859H11.0317Z" />
        </svg>
    