
        <svg xmlns="http://www.w3.org/2000/svg" viewBox="0 0 100 100">
            <path d="M3.0117 20.5048H17.4917C19.4517 20.5048 20.5117 19.4248 20.5117 17.4948V3.0148C20.5117 1.0748 19.4517 0.0048 17.4917 0.0048H3.0117C1.0417 0.0048 0.0017 1.0448 0.0017 3.0148V17.4948C0.0017 19.4648 1.0417 20.5048 3.0117 20.5048ZM7.7217 15.4948C7.5617 15.4948 7.4317 15.3648 7.4317 15.1948V5.4248C7.4317 5.2548 7.5217 5.1248 7.7017 5.1248H10.9717C12.7617 5.1248 14.0817 6.4448 14.0817 8.2248C14.0817 10.0348 12.7717 11.3448 10.9717 11.3448H8.0317V15.1948C8.0317 15.3648 7.9117 15.4948 7.7217 15.4948ZM8.0317 10.7648H11.0017C12.4117 10.7648 13.4717 9.6748 13.4717 8.2248C13.4717 6.7748 12.4317 5.6948 11.0017 5.6948H8.0317Z" />
        </svg>
    