
        <svg xmlns="http://www.w3.org/2000/svg" viewBox="0 0 100 100">
            <path d="M3.1617 20.742H17.5917C19.6617 20.742 20.7417 19.642 20.7417 17.592V3.152C20.7417 1.102 19.6617 0.002 17.5917 0.002H3.1617C1.0917 0.002 0.0017 1.082 0.0017 3.152V17.592C0.0017 19.662 1.0917 20.742 3.1617 20.742ZM7.8417 15.682C7.5617 15.682 7.3817 15.482 7.3817 15.202V5.612C7.3817 5.322 7.5317 5.122 7.8017 5.122H11.1117C13.0217 5.122 14.4017 6.492 14.4017 8.382C14.4017 10.282 13.0317 11.622 11.1117 11.622H8.2817V15.202C8.2817 15.482 8.1217 15.682 7.8417 15.682ZM8.2817 10.842H11.0717C12.4817 10.842 13.5017 9.812 13.5017 8.382C13.5017 6.942 12.4917 5.902 11.0717 5.902H8.2817Z" />
        </svg>
    