
        <svg xmlns="http://www.w3.org/2000/svg" viewBox="0 0 100 100">
            <path d="M3.6817 21.5722H17.8917C20.3517 21.5722 21.5717 20.3722 21.5717 17.9522V3.6322C21.5717 1.2222 20.3517 0.0022 17.8917 0.0022H3.6817C1.2317 0.0022 0.0017 1.2222 0.0017 3.6322V17.9522C0.0017 20.3722 1.2317 21.5722 3.6817 21.5722ZM3.7017 19.6922C2.5317 19.6922 1.8917 19.0622 1.8917 17.8522V3.7422C1.8917 2.5222 2.5317 1.8822 3.7017 1.8822H17.8717C19.0317 1.8822 19.6917 2.5222 19.6917 3.7422V17.8522C19.6917 19.0622 19.0317 19.6922 17.8717 19.6922ZM8.2717 16.1522C8.8917 16.1522 9.2217 15.7422 9.2217 15.0922V12.5322H11.5317C13.8317 12.5322 15.3517 11.1022 15.3517 8.9422C15.3517 6.7822 13.8017 5.3322 11.5417 5.3322H8.2717C7.6617 5.3322 7.3517 5.7522 7.3517 6.3822V15.0922C7.3517 15.7122 7.6717 16.1522 8.2717 16.1522ZM9.2217 11.1022V6.7622H11.2717C12.6417 6.7622 13.5017 7.5922 13.5017 8.9422C13.5017 10.2622 12.6517 11.1022 11.2717 11.1022Z" />
        </svg>
    