
        <svg xmlns="http://www.w3.org/2000/svg" viewBox="0 0 100 100">
            <path d="M9.2717 21.4219H18.5817C25.4417 21.4219 27.8517 18.9219 27.8517 12.4719V8.9619C27.8517 2.4919 25.4417 0.0019 18.5817 0.0019H9.2717C2.4117 0.0019 0.0017 2.4919 0.0017 8.9619V12.4719C0.0017 18.9219 2.4117 21.4219 9.2717 21.4219ZM9.2717 19.1219C3.9917 19.1219 2.3017 17.4419 2.3017 12.4719V8.9619C2.3017 3.9819 3.9917 2.2919 9.2717 2.2919H18.5817C23.8617 2.2919 25.5617 3.9819 25.5617 8.9619V12.4719C25.5617 17.4419 23.8617 19.1219 18.5817 19.1219ZM17.9717 15.5119C18.4717 15.5119 18.8817 15.1019 18.8817 14.6019V6.9119C18.8817 6.2719 18.4817 5.8919 17.8217 5.8919C17.3217 5.8919 16.9217 6.1519 16.6217 6.3819L15.4017 7.3319C15.1617 7.5119 15.0117 7.7419 15.0117 8.0619C15.0117 8.4619 15.2817 8.7119 15.6317 8.7119C15.8217 8.7119 15.9517 8.6519 16.0817 8.5519L17.0617 7.7719V14.6019C17.0617 15.1019 17.4717 15.5119 17.9717 15.5119ZM9.2717 15.5019C9.8717 15.5019 10.1717 15.1419 10.1717 14.5619V12.3519H11.3217C13.1017 12.3519 14.1117 10.9819 14.1117 9.2019C14.1117 7.4319 13.1217 6.0319 11.4217 6.0319H9.2717C8.7317 6.0319 8.3717 6.3719 8.3717 6.9819V14.5619C8.3717 15.1619 8.7117 15.5019 9.2717 15.5019ZM10.1717 10.9319V7.4719H10.9717C11.8917 7.4719 12.3117 8.1719 12.3117 9.2019C12.3117 10.1819 11.9417 10.9319 10.9617 10.9319Z" />
        </svg>
    