
        <svg xmlns="http://www.w3.org/2000/svg" viewBox="0 0 100 100">
            <path d="M9.4717 23.2008H19.4217C26.5917 23.2008 28.8917 20.8208 28.8917 13.5108V9.6908C28.8917 2.3808 26.5917 0.0008 19.4217 0.0008H9.4717C2.3117 0.0008 0.0017 2.3808 0.0017 9.6908V13.5108C0.0017 20.8208 2.3117 23.2008 9.4717 23.2008ZM15.9817 16.2908C15.2717 16.2908 14.8817 15.9508 14.8817 15.3408C14.8817 14.9508 15.0117 14.6208 15.5017 14.0108L16.9917 12.1308C17.7317 11.2008 18.3017 10.3708 18.3017 9.5308C18.3017 8.9808 18.1417 8.5008 17.6417 8.5008C17.1917 8.5008 17.0417 8.8708 16.9017 9.3008C16.7217 9.8908 16.3317 10.1208 15.8517 10.1208C15.2117 10.1208 14.8717 9.6808 14.8717 9.0808C14.8717 7.7308 16.1217 6.6408 17.6417 6.6408C19.3317 6.6408 20.5817 7.6508 20.5817 9.4408C20.5817 10.8008 19.9017 11.7108 18.9617 12.8008L17.6917 14.3208V14.4108H19.8017C20.4817 14.4108 20.7317 14.8708 20.7317 15.3608C20.7317 15.8208 20.4817 16.2908 19.8017 16.2908ZM9.1317 16.4608C8.4517 16.4608 7.9217 16.0808 7.9217 15.1908V8.1908C7.9217 7.3908 8.3517 6.9208 9.1517 6.9208H11.2817C13.0317 6.9208 14.0017 8.4008 14.0017 10.2808C14.0017 12.0808 13.0317 13.5908 11.1217 13.5908H10.3617V15.1908C10.3617 15.9808 9.9217 16.4608 9.1317 16.4608ZM10.3617 11.7508H10.6217C11.3917 11.7508 11.5817 11.0508 11.5817 10.2808C11.5817 9.5008 11.3817 8.7908 10.6317 8.7908H10.3617Z" />
        </svg>
    