
        <svg xmlns="http://www.w3.org/2000/svg" viewBox="0 0 100 100">
            <path d="M7.8117 19.5009H17.9017C24.0017 19.5009 25.7217 17.2009 25.7217 11.6809V7.8209C25.7217 2.3009 24.0017 0.0009 17.9017 0.0009H7.8117C1.7217 0.0009 0.0017 2.3009 0.0017 7.8209V11.6809C0.0017 17.2009 1.7217 19.5009 7.8117 19.5009ZM7.8117 18.9209C2.1017 18.9209 0.5717 16.8309 0.5717 11.6809V7.8209C0.5717 2.6709 2.1017 0.5709 7.8117 0.5709H17.9017C23.6217 0.5709 25.1517 2.6709 25.1517 7.8209V11.6809C25.1517 16.8309 23.6217 18.9209 17.9017 18.9209ZM14.2417 14.4809H18.2417C18.4217 14.4809 18.5617 14.3509 18.5617 14.1809C18.5617 14.0009 18.4217 13.8709 18.2417 13.8709H14.8117V13.8309L17.1417 10.5209C18.0217 9.2709 18.3317 8.4109 18.3317 7.4409C18.3317 6.0109 17.5917 4.8309 16.1217 4.8309C14.7917 4.8309 13.9217 6.0809 13.9217 7.3509C13.9217 7.4809 14.0017 7.6509 14.2217 7.6509C14.3917 7.6509 14.5117 7.5509 14.5217 7.3909C14.6717 6.2609 15.1517 5.4409 16.1517 5.4409C17.2617 5.4409 17.7217 6.5309 17.7217 7.4809C17.7217 8.3409 17.4217 9.0809 16.6617 10.1609L14.0117 13.8509C13.9317 13.9809 13.9117 14.0809 13.9117 14.2009C13.9117 14.3909 14.0517 14.4809 14.2417 14.4809ZM8.0717 14.5909C8.3217 14.5909 8.4217 14.4109 8.4217 14.2509V10.7809H10.0517C11.6417 10.7809 12.5717 9.5609 12.5717 7.8909C12.5717 6.2309 11.6017 5.0009 10.0617 5.0009H8.0717C7.9217 5.0009 7.7417 5.1009 7.7417 5.3709V14.2509C7.7417 14.4609 7.8617 14.5909 8.0717 14.5909ZM8.4217 10.1709V5.6409H9.9117C11.2217 5.6409 11.8817 6.5809 11.8817 7.8909C11.8817 9.2009 11.2217 10.1709 9.9117 10.1709Z" />
        </svg>
    