
        <svg xmlns="http://www.w3.org/2000/svg" viewBox="0 0 100 100">
            <path d="M9.2717 21.4219H18.5817C25.4417 21.4219 27.8517 18.9219 27.8517 12.4719V8.9619C27.8517 2.4919 25.4417 0.0019 18.5817 0.0019H9.2717C2.4117 0.0019 0.0017 2.4919 0.0017 8.9619V12.4719C0.0017 18.9219 2.4117 21.4219 9.2717 21.4219ZM9.2717 19.1219C3.9917 19.1219 2.3017 17.4419 2.3017 12.4719V8.9619C2.3017 3.9819 3.9917 2.2919 9.2717 2.2919H18.5817C23.8617 2.2919 25.5617 3.9819 25.5617 8.9619V12.4719C25.5617 17.4419 23.8617 19.1219 18.5817 19.1219ZM17.4417 15.6019C19.1217 15.6019 20.4017 14.5519 20.4017 12.8219C20.4017 11.4219 19.5717 10.7019 18.5817 10.5819V10.5419C19.5817 10.2819 20.1217 9.3719 20.1217 8.3719C20.1217 6.7619 18.9417 5.8519 17.3917 5.8519C16.1917 5.8519 15.1417 6.5019 14.8117 7.5419C14.7417 7.7619 14.7217 7.9719 14.7217 8.1819C14.7217 8.5619 14.9717 8.9019 15.4717 8.9019C15.8817 8.9019 16.1517 8.7419 16.2617 8.3319C16.4417 7.7019 16.7817 7.2619 17.3917 7.2619C18.1017 7.2619 18.4317 7.8519 18.4317 8.5619C18.4317 9.3619 18.0117 9.9719 17.1817 9.9719H16.9317C16.5017 9.9719 16.2517 10.2319 16.2517 10.6319C16.2517 11.0319 16.5117 11.2619 16.9317 11.2619H17.1917C18.1317 11.2619 18.6317 11.7919 18.6317 12.7519C18.6317 13.5019 18.2617 14.1719 17.4417 14.1719C16.6617 14.1719 16.3117 13.6419 16.1717 13.1319C16.0417 12.7419 15.7817 12.5319 15.3717 12.5319C14.8917 12.5319 14.5817 12.8219 14.5817 13.3119C14.5817 13.5219 14.6017 13.7319 14.6617 13.9219C15.0017 15.0019 16.1817 15.6019 17.4417 15.6019ZM8.5817 15.5019C9.1617 15.5019 9.4817 15.1419 9.4817 14.5619V12.3519H10.6217C12.4017 12.3519 13.4217 10.9819 13.4217 9.2019C13.4217 7.4319 12.4317 6.0319 10.7317 6.0319H8.5617C8.0317 6.0319 7.6617 6.3719 7.6617 6.9819V14.5619C7.6617 15.1619 8.0017 15.5019 8.5817 15.5019ZM9.4817 10.9319V7.4719H10.2617C11.2017 7.4719 11.6217 8.1719 11.6217 9.2019C11.6217 10.1819 11.2417 10.9319 10.2517 10.9319Z" />
        </svg>
    