
        <svg xmlns="http://www.w3.org/2000/svg" viewBox="0 0 100 100">
            <path d="M9.2317 21.0344H18.4017C25.1917 21.0344 27.6317 18.5144 27.6317 12.2444V8.8044C27.6317 2.5344 25.1917 0.0044 18.4017 0.0044H9.2317C2.4417 0.0044 0.0017 2.5344 0.0017 8.8044V12.2444C0.0017 18.5144 2.4417 21.0344 9.2317 21.0344ZM9.2317 19.1444C3.7017 19.1444 1.8917 17.3544 1.8917 12.2444V8.8044C1.8917 3.6944 3.7017 1.8844 9.2317 1.8844H18.4017C23.9317 1.8844 25.7417 3.6944 25.7417 8.8044V12.2444C25.7417 17.3544 23.9317 19.1444 18.4017 19.1444ZM18.7017 15.4144C19.1517 15.4144 19.5017 15.1444 19.5017 14.5744V13.4044H19.9217C20.3817 13.4044 20.5917 13.1144 20.5917 12.7144C20.5917 12.3444 20.3917 12.0444 19.9217 12.0444H19.5017V6.9044C19.5017 6.0944 18.9717 5.6344 18.2117 5.6344C17.3817 5.6344 16.9917 6.0544 16.6617 6.7844L14.5817 11.3344C14.3817 11.7844 14.3117 12.0944 14.3117 12.4544C14.3117 13.0244 14.6917 13.4044 15.2717 13.4044H17.8917V14.5744C17.8917 15.1944 18.3317 15.4144 18.7017 15.4144ZM8.4617 15.3744C9.0117 15.3744 9.3017 15.0344 9.3017 14.4944V12.1144H10.5517C12.3317 12.1144 13.3717 10.7544 13.3717 8.9544C13.3717 7.1744 12.3617 5.7644 10.6417 5.7644H8.4517C7.9617 5.7644 7.5917 6.0944 7.5917 6.6644V14.4944C7.5917 15.0444 7.9117 15.3744 8.4617 15.3744ZM17.9317 12.0844H15.7517V12.0044L17.8817 7.1144H17.9317ZM9.3017 10.7744V7.1444H10.2217C11.2017 7.1444 11.6717 7.8544 11.6717 8.9544C11.6717 9.9944 11.2517 10.7744 10.2117 10.7744Z" />
        </svg>
    