
        <svg xmlns="http://www.w3.org/2000/svg" viewBox="0 0 100 100">
            <path d="M9.2717 21.4219H18.5817C25.4417 21.4219 27.8517 18.9219 27.8517 12.4719V8.9619C27.8517 2.4919 25.4417 0.0019 18.5817 0.0019H9.2717C2.4117 0.0019 0.0017 2.4919 0.0017 8.9619V12.4719C0.0017 18.9219 2.4117 21.4219 9.2717 21.4219ZM18.9117 15.7219C18.4817 15.7219 18.0117 15.4719 18.0117 14.8019V13.7119H15.4717C14.8117 13.7119 14.4017 13.3019 14.4017 12.6719C14.4017 12.2819 14.4717 11.9319 14.6717 11.4519L16.6217 7.1119C16.9717 6.2819 17.3817 5.7219 18.3617 5.7219C19.2217 5.7219 19.7917 6.2019 19.7917 7.1019V12.2219H20.1717C20.6717 12.2219 20.8917 12.5419 20.8917 12.9619C20.8917 13.3819 20.6717 13.7119 20.1517 13.7119H19.7917V14.8019C19.7917 15.4319 19.3917 15.7219 18.9117 15.7219ZM8.4217 15.6919C7.8317 15.6919 7.4617 15.3419 7.4617 14.7119V6.8419C7.4617 6.2119 7.8517 5.8519 8.4117 5.8519H10.6617C12.4217 5.8519 13.4517 7.3019 13.4517 9.1419C13.4517 10.9919 12.4017 12.4319 10.5317 12.4319H9.3617V14.7119C9.3617 15.3119 9.0317 15.6919 8.4217 15.6919ZM18.0617 12.2619V7.2919H18.0117L15.9717 12.1919V12.2619ZM9.3617 10.9319H10.1617C11.1817 10.9319 11.5817 10.1719 11.5817 9.1419C11.5817 8.0719 11.1417 7.3619 10.1717 7.3619H9.3617Z" />
        </svg>
    