
        <svg xmlns="http://www.w3.org/2000/svg" viewBox="0 0 100 100">
            <path d="M0.0017 18.3093C0.0017 22.6693 0.8917 26.0993 2.9617 29.5093C4.1617 31.4593 6.2117 32.0293 8.3017 31.0193L10.6317 29.8893C12.7717 28.8593 13.8117 27.4493 13.8117 25.5593C13.8117 24.7193 13.5317 24.1393 13.5317 23.6293C13.5317 23.0393 13.9217 22.7093 14.6017 22.7093H16.7717C17.5917 22.7093 18.2217 22.0393 18.2217 21.1193V18.3393C18.2217 17.3493 17.5117 16.6193 16.5817 16.6193H13.6917C12.6517 16.6193 12.1617 16.0393 12.1617 15.0493C12.1617 12.4993 12.6217 9.4393 14.4617 5.2693C15.3917 3.1593 14.7217 1.6093 12.4917 0.7293L11.3417 0.2893C9.4717 -0.4507 7.8517 0.3593 6.8017 1.4593C1.9417 6.5393 0.0017 13.3893 0.0017 18.3093Z" />
        </svg>
    