
        <svg xmlns="http://www.w3.org/2000/svg" viewBox="0 0 100 100">
            <path d="M18.5517 18.4774C18.5517 13.5074 16.5917 6.6174 11.7117 1.4974C10.6417 0.3874 8.9517 -0.4726 6.9917 0.2874L5.8617 0.7374C3.5517 1.6474 2.8517 3.2774 3.8117 5.4674C5.6417 9.6274 6.0917 12.6974 6.0917 15.2074C6.0917 16.1374 5.6417 16.6774 4.6617 16.6774H1.7817C0.7817 16.6774 0.0017 17.4574 0.0017 18.5374V21.2874C0.0017 22.2774 0.6917 23.0274 1.5817 23.0274H3.7517C4.3717 23.0274 4.7117 23.3174 4.7117 23.8574C4.7117 24.3474 4.4417 24.8874 4.4417 25.7574C4.4417 27.6874 5.5217 29.1374 7.7117 30.1874L10.0517 31.3174C12.2017 32.3674 14.3317 31.7674 15.5617 29.7674C17.6617 26.3174 18.5517 22.8574 18.5517 18.4774Z" />
        </svg>
    