
        <svg xmlns="http://www.w3.org/2000/svg" viewBox="0 0 100 100">
            <path d="M1.4762 26.3788C3.4362 28.3288 5.7162 28.3588 7.6462 26.4388C9.0562 25.0188 10.5462 21.6788 11.6462 20.3688L14.1462 22.8688C15.0562 23.7988 16.1662 23.7988 17.0562 22.9088L18.5662 21.3888C19.2762 20.6588 19.4162 19.8388 18.9862 19.0688L23.9662 14.0788C25.2662 12.7788 25.2462 11.2288 23.9062 9.8888L14.7062 0.6788C13.4762 -0.5512 11.3462 -0.0712 10.9162 1.8388C9.9662 5.9788 9.7962 6.9188 8.5762 8.7788C7.8762 8.4688 7.1262 8.6488 6.4662 9.2888L4.9562 10.8188C4.0662 11.7088 4.0562 12.7988 4.9862 13.7188L7.4862 16.2188C6.1862 17.3188 2.8462 18.7988 1.4362 20.2088C-0.4938 22.1388 -0.4838 24.4288 1.4762 26.3788ZM16.5462 12.9688C17.1462 13.5688 20.3462 11.8188 21.6362 10.3688L22.4762 11.2088C23.0162 11.7488 23.0162 12.4088 22.5162 12.9088L17.7462 17.6888L10.0462 9.9888C11.4262 7.9188 11.6762 6.4388 12.6562 2.8088C12.8062 2.2088 13.3062 2.0588 13.6962 2.4488L19.1662 7.8988C18.8762 9.8388 17.8362 11.2688 16.5862 12.5288C16.4362 12.6788 16.4462 12.8688 16.5462 12.9688ZM6.5862 11.8588L7.5362 10.9288C7.8462 10.6288 8.1662 10.6188 8.4762 10.9188L16.9462 19.3788C17.2362 19.6888 17.2362 20.0088 16.9262 20.3288L16.0062 21.2588C15.7062 21.5788 15.3562 21.5988 15.0462 21.2688L12.2462 18.4588C11.8162 18.0188 11.2562 18.0688 10.7562 18.5488C9.8462 19.4488 8.2362 23.3088 6.3762 25.1588C5.2562 26.2988 3.8962 26.2988 2.7162 25.1388C1.5762 23.9788 1.5562 22.5988 2.6962 21.4788C4.5562 19.6288 8.4162 18.0188 9.3162 17.1088C9.7862 16.5988 9.8462 16.0388 9.4162 15.6188L6.5862 12.8088C6.2862 12.4988 6.2862 12.1588 6.5862 11.8588ZM4.5162 24.8188C5.3062 24.8188 5.9562 24.1588 5.9562 23.3688C5.9562 22.5688 5.3062 21.9188 4.5162 21.9188C3.7162 21.9188 3.0562 22.5688 3.0562 23.3688C3.0562 24.1588 3.7162 24.8188 4.5162 24.8188Z" />
        </svg>
    