
        <svg xmlns="http://www.w3.org/2000/svg" viewBox="0 0 100 100">
            <path d="M0.4518 20.5538C2.5618 23.1338 7.0918 23.2438 9.2918 21.1838C10.4018 20.1538 10.9818 18.7838 10.7818 17.4138C11.9118 17.3138 12.7318 16.8138 13.8118 15.7338C17.2818 12.2538 23.4618 3.5338 23.9818 2.7538C25.0918 1.0838 23.2218 -0.7862 21.5818 0.3438C20.8118 0.8738 12.0818 7.0238 8.6018 10.5238C7.5218 11.5938 7.0318 12.4038 6.9118 13.5438C5.9418 13.4138 4.9618 13.6738 4.1918 14.3938C2.8418 15.6538 3.2918 17.1038 2.4018 17.9338C1.8618 18.4338 0.9018 18.1138 0.3418 18.6538C-0.0882 19.0538 -0.1782 19.7938 0.4518 20.5538ZM22.0018 1.0438C22.9218 0.3738 23.9118 1.4138 23.2818 2.3238C22.8218 2.9938 17.3718 10.6238 13.8718 14.3938C13.3518 12.6538 11.6618 10.9638 9.9218 10.4538C13.8118 6.8438 21.3218 1.5338 22.0018 1.0438ZM9.5318 14.9738C9.0218 14.4238 8.4218 14.0138 7.8018 13.7638C7.8418 12.8938 8.3318 12.0038 9.2118 11.1238L9.2318 11.1038C10.9518 11.3638 12.9418 13.3438 13.2318 15.0738C13.2118 15.0938 13.1918 15.1038 13.1818 15.1238C12.1418 16.1638 11.3918 16.4938 10.5418 16.5338C10.3318 16.0038 10.0018 15.4738 9.5318 14.9738ZM1.3418 20.2038C0.9818 19.7738 1.0118 19.4038 1.2118 19.2138C1.5418 18.8938 2.3918 19.1538 3.0218 18.5338C4.0918 17.4938 3.7018 16.0738 4.7618 15.0638C5.8918 13.9838 7.7118 14.2438 8.9118 15.5238C10.4818 17.1538 10.1418 19.1938 8.7118 20.5638C6.8918 22.3238 3.1218 22.2738 1.3418 20.2038Z" />
        </svg>
    