
        <svg xmlns="http://www.w3.org/2000/svg" viewBox="0 0 100 100">
            <path d="M2.2617 21.1178C4.6417 21.1178 7.7417 18.3078 15.3717 18.3078C22.9917 18.3078 26.1217 21.1178 28.4917 21.1178C29.9517 21.1178 30.7517 20.1878 30.7517 18.6278V2.4878C30.7517 0.9678 29.9717 0.0778 28.5717 0.0778C26.2517 0.0778 22.9917 2.8278 15.3717 2.8278C7.7617 2.8278 4.4617 -0.0022 2.2617 -0.0022C0.8117 -0.0022 0.0017 0.9278 0.0017 2.4878V18.6478C0.0017 20.2078 0.8117 21.1178 2.2617 21.1178ZM2.9317 18.3078C2.7217 18.3078 2.6117 18.1878 2.6117 17.9178V3.1978C2.6117 2.9378 2.7217 2.8278 2.9317 2.8278C3.9217 2.8278 7.6917 5.2278 15.3717 5.2278C23.0617 5.2278 27.0517 2.8278 27.8217 2.8278C28.0317 2.8278 28.1517 2.9278 28.1517 3.1978V17.9178C28.1517 18.1878 28.0317 18.3078 27.8217 18.3078C26.8717 18.3078 23.0617 15.8978 15.3717 15.8978C7.6717 15.8978 3.7117 18.3078 2.9317 18.3078Z" />
        </svg>
    