
        <svg xmlns="http://www.w3.org/2000/svg" viewBox="0 0 100 100">
            <path d="M1.0517 17.468C3.0317 17.468 6.9917 15.208 13.8517 15.208C20.6217 15.208 24.6917 17.468 26.6417 17.468C27.2417 17.468 27.6917 17.148 27.6917 16.308V1.168C27.6917 0.338 27.2417 0.008 26.6417 0.008C24.6917 0.008 20.6217 2.278 13.8517 2.278C7.0617 2.278 3.0017 -0.002 1.0517 -0.002C0.4417 -0.002 0.0017 0.328 0.0017 1.158V16.308C0.0017 17.148 0.4417 17.468 1.0517 17.468ZM1.1017 16.878C0.7517 16.878 0.5717 16.718 0.5717 16.308V1.158C0.5717 0.748 0.7517 0.598 1.1017 0.598C2.8917 0.598 6.9117 2.848 13.8517 2.848C20.7817 2.848 24.8017 0.608 26.5917 0.608C26.9417 0.608 27.1217 0.758 27.1217 1.168V16.308C27.1217 16.718 26.9417 16.878 26.5917 16.878C24.8017 16.878 20.7817 14.638 13.8517 14.638C6.8217 14.638 2.9217 16.878 1.1017 16.878Z" />
        </svg>
    