
        <svg xmlns="http://www.w3.org/2000/svg" viewBox="0 0 100 100">
            <path d="M2.1317 20.6752C4.4217 20.6752 7.6217 17.9652 15.1517 17.9652C22.6617 17.9652 25.8717 20.6652 28.1617 20.6652C29.5417 20.6652 30.2917 19.8052 30.2917 18.3552V2.3252C30.2917 0.9052 29.5517 0.0452 28.2117 0.0452C25.9617 0.0452 22.6617 2.7152 15.1517 2.7152C7.6317 2.7152 4.3217 -0.0048 2.1317 -0.0048C0.7517 -0.0048 0.0017 0.8652 0.0017 2.3252V18.3652C0.0017 19.8052 0.7517 20.6752 2.1317 20.6752ZM2.6117 18.2352C2.4117 18.2352 2.3017 18.1152 2.3017 17.8752V2.8152C2.3017 2.5652 2.4117 2.4452 2.6117 2.4452C3.6817 2.4452 7.5617 4.8552 15.1517 4.8552C22.7317 4.8552 26.8517 2.4352 27.6817 2.4352C27.8817 2.4352 27.9917 2.5552 27.9917 2.8052V17.8752C27.9917 18.1152 27.8817 18.2352 27.6817 18.2352C26.6417 18.2352 22.7317 15.8352 15.1517 15.8352C7.5517 15.8352 3.4617 18.2352 2.6117 18.2352Z" />
        </svg>
    