
        <svg xmlns="http://www.w3.org/2000/svg" viewBox="0 0 100 100">
            <path d="M12.1023 24.2064C18.7823 24.2064 24.2123 18.7864 24.2123 12.1064C24.2123 5.4264 18.7823 -0.0036 12.1023 -0.0036C5.4223 -0.0036 0.0023 5.4264 0.0023 12.1064C0.0023 18.7864 5.4223 24.2064 12.1023 24.2064ZM12.1023 21.8164C6.7223 21.8164 2.3823 17.4864 2.3823 12.1064C2.3823 6.7264 6.7223 2.3764 12.1023 2.3764C17.4823 2.3764 21.8323 6.7264 21.8323 12.1064C21.8323 17.4864 17.4823 21.8164 12.1023 21.8164ZM7.0223 17.8964C8.6323 19.4864 10.9023 19.4564 12.4823 17.8664L17.1423 13.2164C17.4023 12.9564 17.4123 12.5064 17.1423 12.2464C16.8823 11.9964 16.4423 12.0164 16.1823 12.2664L11.5823 16.8764C10.5123 17.9264 9.0223 17.9264 8.0023 16.9264C6.9723 15.9064 6.9823 14.4264 8.0523 13.3464L14.3523 7.0464C15.0123 6.3864 15.9423 6.3264 16.5323 6.9164C17.1523 7.5364 17.0723 8.4364 16.4023 9.1064L10.2323 15.2764C10.0323 15.4964 9.8123 15.4764 9.6223 15.3064C9.4223 15.1364 9.4223 14.8864 9.6323 14.6864L13.9323 10.3664C14.2223 10.0864 14.2523 9.7064 13.9723 9.4364C13.6923 9.1664 13.3023 9.1764 13.0323 9.4464L8.7023 13.7764C7.9923 14.4964 7.9823 15.5964 8.6523 16.2764C9.3323 16.9964 10.3923 16.9564 11.1323 16.2264L17.3423 10.0164C18.5723 8.7764 18.6123 7.1164 17.4623 5.9664C16.3023 4.8264 14.6223 4.8364 13.3923 6.0664L7.0523 12.4264C5.4623 14.0164 5.4723 16.3664 7.0223 17.8964Z" />
        </svg>
    