
        <svg xmlns="http://www.w3.org/2000/svg" viewBox="0 0 100 100">
            <path d="M12.2223 24.4419C18.9723 24.4419 24.4423 18.9719 24.4423 12.2219C24.4423 5.4819 18.9723 0.0019 12.2223 0.0019C5.4823 0.0019 0.0023 5.4819 0.0023 12.2219C0.0023 18.9719 5.4823 24.4419 12.2223 24.4419ZM6.9923 18.1919C5.4123 16.6219 5.3923 14.1819 7.0423 12.5319L13.5323 6.0119C14.8223 4.7319 16.5623 4.7319 17.7623 5.9219C18.9523 7.1019 18.9223 8.8219 17.6323 10.1019L11.2523 16.5019C10.4923 17.2619 9.3723 17.2919 8.6623 16.5619C7.9723 15.8419 7.9723 14.6819 8.7223 13.9419L13.1523 9.4919C13.4423 9.2119 13.8623 9.2019 14.1523 9.4819C14.4623 9.7719 14.4423 10.1819 14.1323 10.4919L9.7123 14.9219C9.5123 15.1219 9.5123 15.3519 9.6923 15.5019C9.8623 15.6819 10.0823 15.6819 10.2823 15.4819L16.6423 9.1319C17.2923 8.4619 17.4023 7.5419 16.7723 6.9219C16.1723 6.3319 15.2223 6.4119 14.5623 7.0619L8.1223 13.5119C7.0223 14.6119 7.0223 16.1119 8.0623 17.1419C9.0923 18.1619 10.5923 18.1719 11.6823 17.0819L16.3823 12.3819C16.6623 12.1019 17.1323 12.1019 17.4223 12.3719C17.7023 12.6319 17.7023 13.1319 17.4223 13.4019L12.6523 18.1619C11.0123 19.8019 8.6623 19.8119 6.9923 18.1919Z" />
        </svg>
    