
        <svg xmlns="http://www.w3.org/2000/svg" viewBox="0 0 100 100">
            <path d="M14.457 24.1298C15.187 24.1298 15.687 23.5398 16.077 22.5598L23.867 2.1798C24.037 1.7498 24.127 1.3698 24.127 1.0398C24.127 0.3998 23.727 -0.0002 23.087 -0.0002C22.757 -0.0002 22.387 0.0898 21.947 0.2598L1.497 8.0898C0.607 8.4298 -0.003 8.9398 -0.003 9.6698C-0.003 10.5598 0.657 10.8998 1.687 11.1998L10.387 13.7498L12.907 22.3698C13.217 23.4398 13.557 24.1298 14.457 24.1298ZM10.797 12.3798L2.347 9.8398C2.007 9.7498 1.917 9.6698 1.917 9.5498C1.917 9.4298 2.007 9.3398 2.287 9.2298L19.697 2.6098C20.417 2.3398 21.117 1.9898 21.737 1.7098C21.167 2.1698 20.347 2.8098 19.887 3.2698ZM14.577 22.2198C14.457 22.2198 14.377 22.1298 14.287 21.7998L11.757 13.3498L20.857 4.2398C21.317 3.7998 21.977 2.9598 22.437 2.3698C22.147 2.9998 21.797 3.6998 21.517 4.4298L14.897 21.8398C14.787 22.1298 14.707 22.2198 14.577 22.2198Z" />
        </svg>
    