
        <svg xmlns="http://www.w3.org/2000/svg" viewBox="0 0 100 100">
            <path d="M6.4417 26.8386C7.4017 26.8386 8.1717 26.2186 8.1717 25.4386C8.1717 25.0286 8.0717 24.7186 7.8117 24.1886C6.1417 20.7086 5.1717 17.0886 5.1717 13.3286C5.1717 9.7186 5.8917 6.4486 7.7317 2.6486C7.9617 2.1986 8.0717 1.8186 8.0717 1.4086C8.0717 0.6186 7.3217 -0.0014 6.3517 -0.0014C5.2617 -0.0014 4.3617 0.5986 3.3917 1.8886C1.0817 4.9886 0.0017 8.9286 0.0017 13.3486C0.0017 17.7686 1.1017 21.7686 3.4717 24.9586C4.4417 26.2386 5.3417 26.8386 6.4417 26.8386ZM15.5317 26.8386C16.6217 26.8386 17.5317 26.2386 18.4917 24.9586C20.8617 21.7686 21.9617 17.7686 21.9617 13.3486C21.9617 8.9286 20.8917 4.9886 18.5717 1.8886C17.6117 0.5986 16.7017 -0.0014 15.6117 -0.0014C14.6417 -0.0014 13.8917 0.6186 13.8917 1.4086C13.8917 1.8186 14.0117 2.1986 14.2217 2.6486C16.0617 6.4486 16.7917 9.7186 16.7917 13.3286C16.7917 17.0886 15.8317 20.7086 14.1417 24.1886C13.8917 24.7186 13.8017 25.0286 13.8017 25.4386C13.8017 26.2186 14.5517 26.8386 15.5317 26.8386Z" />
        </svg>
    