
        <svg xmlns="http://www.w3.org/2000/svg" viewBox="0 0 100 100">
            <path d="M4.9217 25.9336C5.3417 25.9336 5.6817 25.6436 5.6817 25.2636C5.6817 25.0236 5.6017 24.7936 5.4117 24.5036C3.3917 21.1336 2.3017 16.9336 2.3017 12.9736C2.3017 9.0136 3.3917 4.8136 5.4117 1.4436C5.6017 1.1336 5.6817 0.9236 5.6817 0.6836C5.6817 0.3036 5.3417 0.0036 4.9217 0.0036C4.5017 0.0036 4.1917 0.2436 3.8217 0.8036C1.3017 4.3936 0.0017 8.7536 0.0017 12.9736C0.0017 17.1936 1.3017 21.5536 3.8217 25.1236C4.1917 25.7036 4.5017 25.9336 4.9217 25.9336ZM12.5317 25.9336C12.9517 25.9336 13.2417 25.7036 13.6317 25.1236C16.1517 21.5536 17.4517 17.1936 17.4517 12.9736C17.4517 8.7536 16.1517 4.3936 13.6317 0.8036C13.2417 0.2436 12.9517 0.0036 12.5317 0.0036C12.1017 0.0036 11.7617 0.3036 11.7617 0.6836C11.7617 0.9236 11.8517 1.1336 12.0317 1.4436C14.0617 4.8136 15.1517 9.0136 15.1517 12.9736C15.1517 16.9336 14.0617 21.1336 12.0317 24.5036C11.8517 24.7936 11.7617 25.0236 11.7617 25.2636C11.7617 25.6436 12.1017 25.9336 12.5317 25.9336Z" />
        </svg>
    