
        <svg xmlns="http://www.w3.org/2000/svg" viewBox="0 0 100 100">
            <path d="M0.2817 21.8822C0.4417 21.8822 0.5517 21.7622 0.5517 21.5722V12.4922H6.5617C10.8017 12.4922 13.5017 10.0922 13.5017 6.2722C13.5017 2.4522 10.8017 0.0022 6.5617 0.0022H0.2817C0.1017 0.0022 0.0017 0.1022 0.0017 0.3022V21.5722C0.0017 21.7622 0.1017 21.8822 0.2817 21.8822ZM0.5517 11.9622V0.5322H6.5717C10.4617 0.5322 12.9417 2.7422 12.9417 6.2722C12.9417 9.7822 10.4417 11.9622 6.5717 11.9622ZM26.0817 23.2822C32.3517 23.2822 37.4417 18.2122 37.4417 11.9322C37.4417 5.6622 32.3517 0.5722 26.0817 0.5722C19.8017 0.5722 14.7217 5.6622 14.7217 11.9322C14.7217 18.2122 19.8017 23.2822 26.0817 23.2822ZM16.0817 7.9222C17.6417 3.9722 21.5617 1.1522 26.0817 1.1522C30.6117 1.1522 34.5217 3.9722 36.0917 7.9222C36.2017 8.2022 36.0817 8.4122 35.8517 8.4122H16.3217C16.0817 8.4122 15.9617 8.2022 16.0817 7.9222ZM26.0617 15.5122C24.7517 15.5122 23.6717 14.4522 23.6717 13.1122C23.6717 11.7822 24.7517 10.7222 26.0617 10.7222C27.4117 10.7222 28.4917 11.7822 28.4917 13.1122C28.4917 14.4522 27.4117 15.5122 26.0617 15.5122ZM15.5517 14.2722C15.4817 13.9722 15.5617 13.7322 15.9217 13.7322C20.1917 13.7222 23.6217 17.5122 23.0817 21.6722C23.0617 22.0422 22.8017 22.2022 22.4517 22.0822C19.0217 20.8522 16.3717 17.9022 15.5517 14.2722ZM36.6117 14.2722C35.7917 17.9022 33.1517 20.8522 29.7117 22.0822C29.3517 22.2022 29.1117 22.0422 29.0717 21.6722C28.5617 17.5522 31.9217 13.7222 36.2317 13.7322C36.6017 13.7322 36.6917 13.9722 36.6117 14.2722Z" />
        </svg>
    