
        <svg xmlns="http://www.w3.org/2000/svg" viewBox="0 0 100 100">
            <path d="M12.7923 25.5978C19.8723 25.5978 25.6023 19.8678 25.6023 12.7978C25.6023 5.7278 19.8723 -0.0022 12.7923 -0.0022C5.7323 -0.0022 0.0023 5.7278 0.0023 12.7978C0.0023 19.8678 5.7323 25.5978 12.7923 25.5978ZM9.9723 18.5778C8.6523 18.5778 7.9023 17.7278 7.9023 16.2778V9.6678C7.9023 8.1078 8.6823 7.2978 10.2323 7.2978H13.4323C16.1223 7.2978 17.8123 8.9578 17.8123 11.5678C17.8123 14.2078 16.0923 15.8678 13.3723 15.8678H12.0623V16.2778C12.0623 17.7178 11.2723 18.5778 9.9723 18.5778ZM12.0623 12.9178H12.8223C13.6023 12.9178 13.9823 12.4778 13.9823 11.5778C13.9823 10.6778 13.6323 10.2578 12.8223 10.2578H12.0623Z" />
        </svg>
    