
        <svg xmlns="http://www.w3.org/2000/svg" viewBox="0 0 100 100">
            <path d="M12.3723 24.7459C19.2023 24.7459 24.7523 19.2059 24.7523 12.3759C24.7523 5.5459 19.2023 -0.0041 12.3723 -0.0041C5.5423 -0.0041 0.0023 5.5459 0.0023 12.3759C0.0023 19.2059 5.5423 24.7459 12.3723 24.7459ZM12.3723 21.6659C7.2423 21.6659 3.0823 17.5059 3.0823 12.3759C3.0823 7.2259 7.2423 3.0859 12.3723 3.0859C17.5223 3.0859 21.6723 7.2259 21.6723 12.3759C21.6723 17.5059 17.5223 21.6659 12.3723 21.6659ZM9.7923 17.7459C10.7123 17.7459 11.2423 17.1359 11.2423 16.1459V14.6759H13.0123C15.4123 14.6759 16.9823 13.1859 16.9823 10.8859C16.9823 8.5859 15.4223 7.0859 13.0323 7.0859H9.9123C8.8923 7.0859 8.3623 7.6859 8.3623 8.7159V16.1459C8.3623 17.1359 8.8823 17.7459 9.7923 17.7459ZM11.2423 12.5859V9.1759H12.6223C13.6723 9.1759 14.2723 9.7959 14.2723 10.8859C14.2723 11.9659 13.6723 12.5859 12.6223 12.5859Z" />
        </svg>
    