
        <svg xmlns="http://www.w3.org/2000/svg" viewBox="0 0 100 100">
            <path d="M16.7223 22.8467C23.0423 22.8467 28.1623 17.7267 28.1623 11.4267C28.1623 5.1067 23.0423 -0.0033 16.7223 -0.0033C10.4223 -0.0033 5.2923 5.1067 5.2923 11.4267C5.2923 17.7267 10.4223 22.8467 16.7223 22.8467ZM33.4423 11.4267C33.4423 7.7067 32.2523 4.2867 30.2023 1.5067C29.8323 1.0167 29.2123 0.9567 28.7423 1.3367C28.3123 1.6967 28.2823 2.2767 28.6023 2.7167C30.4023 5.1667 31.4423 8.1667 31.4423 11.4267C31.4423 14.6767 30.4023 17.6867 28.6023 20.1067C28.2823 20.5767 28.3223 21.1367 28.7423 21.5067C29.2123 21.8767 29.8323 21.8367 30.2023 21.3267C32.2523 18.5467 33.4423 15.1367 33.4423 11.4267ZM0.0023 11.4267C0.0023 15.1367 1.2023 18.5467 3.2423 21.3267C3.6123 21.8367 4.2323 21.8767 4.7023 21.5067C5.1223 21.1367 5.1823 20.5767 4.8423 20.1067C3.0623 17.6867 2.0023 14.6767 2.0023 11.4267C2.0023 8.1667 3.0623 5.1667 4.8423 2.7167C5.1823 2.2767 5.1323 1.6967 4.7023 1.3367C4.2323 0.9567 3.6123 1.0167 3.2423 1.5067C1.2023 4.2867 0.0023 7.7067 0.0023 11.4267ZM16.7223 20.8567C11.5223 20.8567 7.2923 16.6267 7.2923 11.4267C7.2923 6.2067 11.5223 1.9767 16.7223 1.9767C21.9423 1.9767 26.1723 6.2067 26.1723 11.4267C26.1723 16.6267 21.9423 20.8567 16.7223 20.8567ZM14.3423 16.7967C14.9523 16.7967 15.2923 16.3867 15.2923 15.7367V13.1767H17.6023C19.8823 13.1767 21.4223 11.7467 21.4223 9.5867C21.4223 7.4267 19.8723 5.9767 17.6123 5.9767H14.3323C13.7323 5.9767 13.4223 6.3967 13.4223 7.0267V15.7367C13.4223 16.3567 13.7423 16.7967 14.3423 16.7967ZM15.2923 11.7467V7.4067H17.3323C18.7123 7.4067 19.5723 8.2367 19.5723 9.5867C19.5723 10.9067 18.7123 11.7467 17.3323 11.7467Z" />
        </svg>
    