
        <svg xmlns="http://www.w3.org/2000/svg" viewBox="0 0 100 100">
            <path d="M10.5221 2.5645C11.2221 2.5645 11.8121 1.9945 11.8121 1.2745C11.8121 0.5745 11.2221 0.0045 10.5221 0.0045C9.8021 0.0045 9.2321 0.5745 9.2321 1.2745C9.2321 1.9945 9.8021 2.5645 10.5221 2.5645ZM17.7621 4.5945C18.9921 4.5945 19.9721 3.6045 19.9721 2.3945C19.9721 1.1445 18.9921 0.1845 17.7621 0.1845C16.5321 0.1845 15.5621 1.1445 15.5621 2.3945C15.5621 3.6045 16.5321 4.5945 17.7621 4.5945ZM27.3321 3.2345C27.8921 3.2345 28.3521 2.7745 28.3521 2.2045C28.3521 1.6245 27.8921 1.1645 27.3321 1.1645C26.7521 1.1645 26.3021 1.6245 26.3021 2.2045C26.3021 2.7745 26.7521 3.2345 27.3321 3.2345ZM23.9421 3.9945L21.7521 6.1845C21.4321 6.5045 21.4421 7.0145 21.7521 7.3345C22.0821 7.6545 22.5921 7.6645 22.9121 7.3345L25.1021 5.1545C25.4221 4.8445 25.4021 4.3145 25.1021 3.9945C24.7821 3.6945 24.2621 3.6845 23.9421 3.9945ZM18.6921 21.9845C20.1521 21.3745 20.2721 19.8945 19.7021 18.2445C21.2421 18.2145 22.7921 18.3445 24.3321 18.6345C24.7721 18.7245 25.1521 18.2945 25.1621 17.8445C25.1721 17.3945 24.8021 17.1045 24.3721 17.0245C22.5621 16.6845 20.7821 16.5545 18.9721 16.6545C18.3621 15.5545 17.5521 14.4345 16.7221 13.5245L20.7421 9.5045C21.0321 9.1945 21.0521 8.6745 20.7421 8.3545C20.4421 8.0345 19.9021 8.0645 19.5921 8.3545L15.5721 12.3745C14.6521 11.5445 13.5521 10.7345 12.4421 10.1345C12.5421 8.3445 12.4121 6.5545 12.0721 4.7545C11.9921 4.3245 11.7121 3.9645 11.2521 3.9645C10.8121 3.9745 10.3721 4.3345 10.4621 4.8045C10.7621 6.3245 10.8921 7.8745 10.8521 9.4345C9.2621 8.8945 7.8521 9.0345 7.2121 10.4545L0.2021 25.9945C-0.5779 27.7145 1.0321 29.3645 2.7621 28.6445ZM15.5421 8.2845C16.1121 8.2845 16.5721 7.8145 16.5721 7.2445C16.5721 6.6845 16.1121 6.2145 15.5421 6.2145C14.9721 6.2145 14.4921 6.6845 14.4921 7.2445C14.4921 7.8145 14.9721 8.2845 15.5421 8.2845ZM23.3521 14.2245C24.4021 14.2245 25.2321 13.4145 25.2321 12.3745C25.2321 11.3445 24.4021 10.5145 23.3521 10.5145C22.3221 10.5145 21.5121 11.3445 21.5121 12.3745C21.5121 13.4145 22.3221 14.2245 23.3521 14.2245ZM11.9621 17.2045C9.1521 14.4045 8.0121 11.7145 8.8021 10.9445C9.1421 10.5945 9.8421 10.6245 10.7721 11.0045C10.7021 11.7345 10.5921 12.4645 10.4621 13.1945C10.3621 13.6545 10.8121 14.0045 11.2421 14.0145C11.6821 14.0145 11.9721 13.6645 12.0621 13.2345C12.1521 12.7645 12.2221 12.2945 12.2821 11.8345C12.9621 12.2645 13.6721 12.8345 14.4121 13.5245L13.6221 14.3245C13.3021 14.6245 13.3121 15.1645 13.6221 15.4845C13.9321 15.7845 14.4721 15.7945 14.7821 15.4845L15.5721 14.6745C16.2821 15.4145 16.8421 16.1345 17.3021 16.8045C16.8321 16.8745 16.3621 16.9445 15.8921 17.0245C15.4721 17.1245 15.1021 17.4145 15.1221 17.8445C15.1221 18.2845 15.4721 18.7345 15.9421 18.6445C16.6621 18.5045 17.4021 18.3945 18.1321 18.3445C18.5421 19.3045 18.5821 20.0345 18.2321 20.3745C17.4521 21.1745 14.7821 20.0245 11.9621 17.2045ZM28.3921 13.7445C29.1121 13.7445 29.6821 13.1745 29.6821 12.4445C29.6821 11.7445 29.1121 11.1645 28.3921 11.1645C27.6721 11.1645 27.1021 11.7445 27.1021 12.4445C27.1021 13.1745 27.6721 13.7445 28.3921 13.7445ZM27.9521 19.7445C28.6621 19.7445 29.2421 19.1845 29.2421 18.4545C29.2421 17.7445 28.6621 17.1645 27.9521 17.1645C27.2321 17.1645 26.6621 17.7445 26.6621 18.4545C26.6621 19.1845 27.2321 19.7445 27.9521 19.7445Z" />
        </svg>
    