
        <svg xmlns="http://www.w3.org/2000/svg" viewBox="0 0 100 100">
            <path d="M10.8269 2.7758C11.5969 2.7758 12.2169 2.1558 12.2169 1.3958C12.2169 0.6258 11.5969 -0.0042 10.8269 -0.0042C10.0369 -0.0042 9.4269 0.6258 9.4269 1.3958C9.4269 2.1558 10.0369 2.7758 10.8269 2.7758ZM18.1469 4.7558C19.4369 4.7558 20.4569 3.7258 20.4569 2.4458C20.4569 1.1458 19.4369 0.1358 18.1469 0.1358C16.8569 0.1358 15.8369 1.1458 15.8369 2.4458C15.8369 3.7258 16.8569 4.7558 18.1469 4.7558ZM27.8269 3.3258C28.4469 3.3258 28.9569 2.8258 28.9569 2.1758C28.9569 1.5558 28.4469 1.0458 27.8269 1.0458C27.1869 1.0458 26.6769 1.5558 26.6769 2.1758C26.6769 2.8258 27.1869 3.3258 27.8269 3.3258ZM24.3069 3.9758L22.1369 6.1658C21.7669 6.5258 21.7769 7.1158 22.1369 7.4758C22.4869 7.8258 23.0769 7.8358 23.4469 7.4758L25.6269 5.2958C25.9869 4.9358 25.9769 4.3358 25.6269 3.9758C25.2569 3.6358 24.6669 3.6258 24.3069 3.9758ZM19.0569 22.4258C20.6169 21.7758 20.7569 20.2458 20.1869 18.5358C21.6869 18.5058 23.1969 18.6358 24.6869 18.9158C25.2069 19.0358 25.6469 18.5358 25.6469 18.0258C25.6569 17.5158 25.2369 17.1958 24.7669 17.0958C22.9669 16.7558 21.1669 16.6258 19.3569 16.7358C18.7569 15.6658 17.9969 14.6158 17.1969 13.7358L21.1969 9.7358C21.5269 9.3958 21.5469 8.7958 21.1969 8.4458C20.8469 8.0758 20.2369 8.1058 19.8969 8.4358L15.8969 12.4258C15.0069 11.6358 13.9569 10.8558 12.8969 10.2658C12.9869 8.4658 12.8769 6.6758 12.5369 4.8858C12.4269 4.4058 12.1169 3.9958 11.5969 3.9958C11.1069 4.0058 10.5969 4.4258 10.7069 4.9558C10.9969 6.4458 11.1269 7.9458 11.1069 9.4558C9.4569 8.9058 7.9769 9.0658 7.2769 10.6158L0.2269 26.2658C-0.6331 28.1958 1.0969 29.9458 3.0169 29.1358ZM15.9169 8.5058C16.5669 8.5058 17.0669 7.9958 17.0669 7.3558C17.0669 6.7358 16.5669 6.2158 15.9169 6.2158C15.2969 6.2158 14.7869 6.7358 14.7869 7.3558C14.7869 7.9958 15.2969 8.5058 15.9169 8.5058ZM23.8169 14.4758C24.9069 14.4758 25.7869 13.6158 25.7869 12.5258C25.7869 11.4358 24.9169 10.5558 23.8169 10.5558C22.7269 10.5558 21.8769 11.4358 21.8769 12.5258C21.8769 13.6158 22.7269 14.4758 23.8169 14.4758ZM12.3269 17.3758C9.4769 14.5558 8.3769 11.9458 9.0969 11.2158C9.4169 10.8858 10.0969 10.9258 10.9969 11.3058C10.9269 11.9658 10.8369 12.6358 10.7069 13.2858C10.5869 13.8158 11.0969 14.2358 11.5969 14.2358C12.0769 14.2358 12.4169 13.8558 12.5269 13.3558C12.5969 12.9958 12.6469 12.6358 12.6969 12.2658C13.2869 12.6758 13.9069 13.1758 14.5469 13.7558L13.8669 14.4458C13.5069 14.7958 13.5169 15.3958 13.8669 15.7658C14.2169 16.1158 14.8169 16.1258 15.1669 15.7658L15.8669 15.0658C16.4569 15.7158 16.9669 16.3358 17.3769 16.9258C17.0069 16.9658 16.6469 17.0358 16.2869 17.0958C15.7969 17.2158 15.4069 17.5458 15.4169 18.0358C15.4169 18.5258 15.8269 19.0358 16.3569 18.9358C17.0269 18.8058 17.6869 18.7158 18.3669 18.6458C18.7669 19.5858 18.8169 20.2858 18.4869 20.6058C17.7469 21.3358 15.1469 20.2258 12.3269 17.3758ZM28.9269 13.9958C29.7069 13.9958 30.3369 13.3858 30.3369 12.5958C30.3369 11.8258 29.7069 11.2058 28.9269 11.2058C28.1469 11.2058 27.5369 11.8258 27.5369 12.5958C27.5369 13.3858 28.1569 13.9958 28.9269 13.9958ZM28.4269 20.0458C29.1869 20.0458 29.8069 19.4458 29.8069 18.6558C29.8069 17.8858 29.1869 17.2658 28.4269 17.2658C27.6469 17.2658 27.0269 17.8858 27.0269 18.6558C27.0269 19.4458 27.6469 20.0458 28.4269 20.0458Z" />
        </svg>
    