
        <svg xmlns="http://www.w3.org/2000/svg" viewBox="0 0 100 100">
            <path d="M10.3613 2.2016C10.9713 2.2016 11.4613 1.7116 11.4613 1.1016C11.4613 0.4916 10.9713 0.0016 10.3613 0.0016C9.7413 0.0016 9.2613 0.4916 9.2613 1.1016C9.2613 1.7116 9.7413 2.2016 10.3613 2.2016ZM17.5113 4.2116C18.6313 4.2116 19.5213 3.3016 19.5213 2.1916C19.5213 1.0616 18.6313 0.1916 17.5113 0.1916C16.3813 0.1916 15.5013 1.0616 15.5013 2.1916C15.5013 3.3016 16.3813 4.2116 17.5113 4.2116ZM26.9413 2.8616C27.4013 2.8616 27.7813 2.4816 27.7813 2.0016C27.7813 1.5316 27.4013 1.1516 26.9413 1.1516C26.4613 1.1516 26.0813 1.5316 26.0813 2.0016C26.0813 2.4816 26.4613 2.8616 26.9413 2.8616ZM23.7213 3.8916L21.5613 6.0616C21.3013 6.3016 21.3113 6.7116 21.5613 6.9616C21.8113 7.2116 22.2213 7.2116 22.4713 6.9616L24.6313 4.8016C24.8813 4.5616 24.8713 4.1416 24.6313 3.8916C24.3713 3.6516 23.9613 3.6416 23.7213 3.8916ZM18.4313 21.4616C19.9013 20.8516 19.9313 19.3316 19.2913 17.6716C20.8713 17.6216 22.4413 17.7416 23.9713 18.0516C24.3413 18.1216 24.6313 17.8016 24.6413 17.4516C24.6513 17.1116 24.3913 16.8616 24.0513 16.7916C22.2513 16.4516 20.4913 16.3316 18.7013 16.4416C18.0613 15.2416 17.1813 14.0616 16.3113 13.1216L20.3213 9.0916C20.5513 8.8516 20.5613 8.4516 20.3213 8.2016C20.0813 7.9616 19.6613 7.9716 19.4313 8.2016L15.4013 12.2216C14.4413 11.3416 13.2613 10.4716 12.0813 9.8416C12.1713 8.0716 12.0613 6.3316 11.7313 4.5516C11.6613 4.1916 11.4113 3.9216 11.0613 3.9416C10.7313 3.9516 10.3913 4.2316 10.4713 4.6016C10.7713 6.1316 10.9013 7.7116 10.8513 9.2916C9.2413 8.6916 7.8113 8.7516 7.1913 10.1416L0.1913 25.6916C-0.5287 27.2716 0.9213 28.7716 2.5313 28.1016ZM15.3013 7.8416C15.7813 7.8416 16.1613 7.4616 16.1613 6.9816C16.1613 6.5116 15.7813 6.1316 15.3013 6.1316C14.8313 6.1316 14.4513 6.5116 14.4513 6.9816C14.4513 7.4616 14.8313 7.8416 15.3013 7.8416ZM11.6713 16.9416C8.8313 14.1216 7.6413 11.3016 8.5113 10.4316C8.9013 10.0216 9.7213 10.0616 10.7813 10.5216C10.7213 11.3116 10.6013 12.0916 10.4613 12.8716C10.3813 13.2416 10.7113 13.5016 11.0513 13.5216C11.3913 13.5316 11.6213 13.2616 11.7113 12.9116C11.8113 12.3316 11.9013 11.7416 11.9713 11.1516C12.7613 11.6516 13.6313 12.3016 14.4913 13.1116L13.5313 14.0716C13.2813 14.3216 13.2913 14.7416 13.5313 14.9916C13.7813 15.2316 14.1913 15.2416 14.4413 14.9916L15.4113 14.0316C16.2313 14.8916 16.9113 15.7516 17.4013 16.5516C16.8313 16.6216 16.2513 16.7016 15.6713 16.8116C15.3113 16.8916 15.0513 17.1316 15.0713 17.4716C15.0813 17.8016 15.3513 18.1316 15.7113 18.0716C16.4913 17.9216 17.2713 17.8116 18.0513 17.7416C18.5513 18.8416 18.6113 19.7216 18.2013 20.1316C17.3313 21.0016 14.5113 19.7916 11.6713 16.9416ZM23.0313 13.7116C23.9613 13.7116 24.7013 12.9716 24.7013 12.0516C24.7013 11.1216 23.9613 10.3716 23.0313 10.3716C22.1013 10.3716 21.3613 11.1216 21.3613 12.0516C21.3613 12.9716 22.1013 13.7116 23.0313 13.7116ZM27.9813 13.2316C28.6013 13.2316 29.1013 12.7516 29.1013 12.1216C29.1013 11.5116 28.6013 11.0116 27.9813 11.0116C27.3613 11.0116 26.8813 11.5116 26.8813 12.1216C26.8813 12.7516 27.3613 13.2316 27.9813 13.2316ZM27.5513 19.1816C28.1713 19.1816 28.6513 18.7016 28.6513 18.0816C28.6513 17.4716 28.1713 16.9816 27.5513 16.9816C26.9413 16.9816 26.4513 17.4716 26.4513 18.0816C26.4513 18.7016 26.9413 19.1816 27.5513 19.1816Z" />
        </svg>
    