
        <svg xmlns="http://www.w3.org/2000/svg" viewBox="0 0 100 100">
            <path d="M1.7717 20.4831H4.5717C5.7317 20.4831 6.3317 19.8831 6.3317 18.7131V1.7531C6.3317 0.5731 5.7317 0.0031 4.5717 0.0031H1.7717C0.6017 0.0031 0.0017 0.5931 0.0017 1.7531V18.7131C0.0017 19.8831 0.5817 20.4831 1.7717 20.4831ZM10.9017 20.4831H13.7017C14.8717 20.4831 15.4717 19.8831 15.4717 18.7131V1.7531C15.4717 0.5731 14.8717 0.0031 13.7017 0.0031H10.9017C9.7417 0.0031 9.1417 0.5931 9.1417 1.7531V18.7131C9.1417 19.8831 9.7117 20.4831 10.9017 20.4831Z" />
        </svg>
    