
        <svg xmlns="http://www.w3.org/2000/svg" viewBox="0 0 100 100">
            <path d="M12.7923 25.5978C19.8723 25.5978 25.6023 19.8678 25.6023 12.7978C25.6023 5.7278 19.8723 -0.0022 12.7923 -0.0022C5.7323 -0.0022 0.0023 5.7278 0.0023 12.7978C0.0023 19.8678 5.7323 25.5978 12.7923 25.5978ZM9.0423 17.9578C8.3223 17.9578 7.8823 17.4978 7.8823 16.8178V8.7878C7.8823 8.1078 8.3223 7.6478 9.0423 7.6478H10.6723C11.4023 7.6478 11.8223 8.1078 11.8223 8.7878V16.8178C11.8223 17.4978 11.4023 17.9578 10.6723 17.9578ZM14.9323 17.9578C14.2023 17.9578 13.7823 17.4978 13.7823 16.8178V8.7878C13.7823 8.1078 14.2023 7.6478 14.9323 7.6478H16.5623C17.2823 7.6478 17.7223 8.1078 17.7223 8.7878V16.8178C17.7223 17.4978 17.2823 17.9578 16.5623 17.9578Z" />
        </svg>
    