
        <svg xmlns="http://www.w3.org/2000/svg" viewBox="0 0 100 100">
            <path d="M3.6817 21.5722H23.9517C26.4117 21.5722 27.6317 20.3722 27.6317 17.9522V3.6322C27.6317 1.2222 26.4117 0.0022 23.9517 0.0022H3.6817C1.2317 0.0022 0.0017 1.2222 0.0017 3.6322V17.9522C0.0017 20.3722 1.2317 21.5722 3.6817 21.5722ZM3.7017 19.6922C2.5317 19.6922 1.8917 19.0622 1.8917 17.8522V3.7422C1.8917 2.5222 2.5317 1.8822 3.7017 1.8822H23.9317C25.0917 1.8822 25.7417 2.5222 25.7417 3.7422V17.8522C25.7417 19.0622 25.0917 19.6922 23.9317 19.6922ZM10.5217 15.3522H11.6717C12.2417 15.3522 12.5117 15.0322 12.5117 14.5822V6.9622C12.5117 6.5122 12.2417 6.2022 11.6717 6.2022H10.5217C9.9417 6.2022 9.6717 6.5122 9.6717 6.9622V14.5822C9.6717 15.0322 9.9417 15.3522 10.5217 15.3522ZM15.9917 15.3522H17.1517C17.7217 15.3522 17.9917 15.0322 17.9917 14.5822V6.9622C17.9917 6.5122 17.7217 6.2022 17.1517 6.2022H15.9917C15.4217 6.2022 15.1417 6.5122 15.1417 6.9622V14.5822C15.1417 15.0322 15.4217 15.3522 15.9917 15.3522Z" />
        </svg>
    