
        <svg xmlns="http://www.w3.org/2000/svg" viewBox="0 0 100 100">
            <path d="M2.0517 22.0383H5.0517C6.4117 22.0383 7.1017 21.3683 7.1017 20.0083V2.0483C7.1017 0.7183 6.4117 -0.0017 5.0517 -0.0017H2.0517C0.6917 -0.0017 0.0017 0.6883 0.0017 2.0483V20.0083C0.0017 21.3683 0.6517 22.0383 2.0517 22.0383ZM12.0617 22.0383H15.0617C16.4217 22.0383 17.1117 21.3683 17.1117 20.0083V2.0483C17.1117 0.7183 16.4217 -0.0017 15.0617 -0.0017H12.0617C10.7017 -0.0017 10.0117 0.6883 10.0117 2.0483V20.0083C10.0117 21.3683 10.6617 22.0383 12.0617 22.0383Z" />
        </svg>
    