
        <svg xmlns="http://www.w3.org/2000/svg" viewBox="0 0 100 100">
            <path d="M12.6023 25.1986C19.5623 25.1986 25.2023 19.5586 25.2023 12.5986C25.2023 5.6386 19.5623 -0.0014 12.6023 -0.0014C5.6523 -0.0014 0.0023 5.6386 0.0023 12.5986C0.0023 19.5586 5.6523 25.1986 12.6023 25.1986ZM8.9323 17.6486C8.2223 17.6486 7.8323 17.2286 7.8323 16.5986V8.6086C7.8323 7.9686 8.2223 7.5486 8.9323 7.5486H10.4523C11.1423 7.5486 11.5323 7.9686 11.5323 8.6086V16.5986C11.5323 17.2286 11.1423 17.6486 10.4523 17.6486ZM14.7523 17.6486C14.0623 17.6486 13.6723 17.2286 13.6723 16.5986V8.6086C13.6723 7.9686 14.0623 7.5486 14.7523 7.5486H16.2923C16.9823 7.5486 17.3823 7.9686 17.3823 8.6086V16.5986C17.3823 17.2286 16.9823 17.6486 16.2923 17.6486Z" />
        </svg>
    