
        <svg xmlns="http://www.w3.org/2000/svg" viewBox="0 0 100 100">
            <path d="M3.0117 20.5048H24.0617C26.0117 20.5048 27.0617 19.4248 27.0617 17.4948V3.0148C27.0617 1.0748 26.0117 0.0048 24.0617 0.0048H3.0117C1.0417 0.0048 0.0017 1.0448 0.0017 3.0148V17.4948C0.0017 19.4648 1.0417 20.5048 3.0117 20.5048ZM3.0317 19.9348C1.4217 19.9348 0.5717 19.0948 0.5717 17.4648V3.0348C0.5717 1.4148 1.4217 0.5748 3.0317 0.5748H24.0217C25.5817 0.5748 26.4817 1.4148 26.4817 3.0348V17.4648C26.4817 19.0948 25.5817 19.9348 24.0217 19.9348ZM10.4017 14.6148H11.6017C12.0617 14.6148 12.2717 14.3648 12.2717 13.9948V6.5048C12.2717 6.1248 12.0617 5.8748 11.6017 5.8748H10.4017C9.9517 5.8748 9.7217 6.1248 9.7217 6.5048V13.9948C9.7217 14.3648 9.9517 14.6148 10.4017 14.6148ZM15.4717 14.6148H16.6617C17.1117 14.6148 17.3317 14.3648 17.3317 13.9948V6.5048C17.3317 6.1248 17.1117 5.8748 16.6617 5.8748H15.4717C15.0217 5.8748 14.8117 6.1248 14.8117 6.5048V13.9948C14.8117 14.3648 15.0217 14.6148 15.4717 14.6148Z" />
        </svg>
    