
        <svg xmlns="http://www.w3.org/2000/svg" viewBox="0 0 100 100">
            <path d="M12.6023 25.1986C19.5623 25.1986 25.2023 19.5586 25.2023 12.5986C25.2023 5.6386 19.5623 -0.0014 12.6023 -0.0014C5.6323 -0.0014 0.0023 5.6386 0.0023 12.5986C0.0023 19.5586 5.6323 25.1986 12.6023 25.1986ZM3.6523 12.5986C3.6523 8.1486 6.9023 4.4486 11.1723 3.7586V11.4586L4.9223 17.1786C4.1123 15.8486 3.6523 14.2686 3.6523 12.5986ZM14.0623 11.4986V3.7686C18.3023 4.4686 21.5423 8.1486 21.5423 12.5986C21.5423 14.2686 21.0823 15.8486 20.2823 17.1886ZM11.1723 15.5286V21.4186C9.5123 21.1686 8.0123 20.4486 6.8123 19.4086ZM14.0623 15.5486L18.4023 19.4086C17.1823 20.4386 15.6923 21.1486 14.0623 21.4186Z" />
        </svg>
    