
        <svg xmlns="http://www.w3.org/2000/svg" viewBox="0 0 100 100">
            <path d="M5.4111 25.1467H16.3811C18.6011 25.1467 19.9311 23.8267 19.9311 21.6267L19.9411 5.3067C19.9411 3.1567 18.7011 1.7267 16.3711 1.1567C13.5811 0.4667 10.7411 0.0767 7.7311 0.0067C3.6411 -0.1033 1.0111 1.4767 0.5011 5.1467C-0.1389 9.9167 -0.1689 16.5367 0.4211 20.8567C0.7611 23.4967 2.6611 25.1467 5.4111 25.1467ZM4.9911 10.1867C4.5511 10.1867 4.1811 9.8367 4.1811 9.4067C4.1811 8.9567 4.5511 8.5967 4.9911 8.5967H15.2311C15.6811 8.5967 16.0411 8.9567 16.0411 9.4067C16.0411 9.8367 15.6811 10.1867 15.2311 10.1867ZM4.9911 14.1967C4.5511 14.1967 4.1811 13.8467 4.1811 13.4067C4.1811 12.9767 4.5511 12.6167 4.9911 12.6167H15.2311C15.6811 12.6167 16.0411 12.9767 16.0411 13.4067C16.0411 13.8467 15.6811 14.1967 15.2311 14.1967ZM4.9911 18.2167C4.5511 18.2167 4.1811 17.8667 4.1811 17.4067C4.1811 16.9767 4.5511 16.6267 4.9911 16.6267H15.2311C15.6811 16.6267 16.0411 16.9767 16.0411 17.4067C16.0411 17.8667 15.6811 18.2167 15.2311 18.2167Z" />
        </svg>
    