
        <svg xmlns="http://www.w3.org/2000/svg" viewBox="0 0 100 100">
            <path d="M4.9124 24.7545H15.7024C17.6524 24.7545 18.7424 23.6445 18.7424 21.7345L18.7524 4.7845C18.7524 2.8045 17.7424 1.6845 15.5624 1.1145C12.9924 0.4445 10.1924 0.0145 6.7824 0.0045C2.9524 -0.0255 0.9524 1.4045 0.4924 4.6845C-0.1376 9.4345 -0.1676 16.6245 0.4224 20.9045C0.7424 23.3545 2.3724 24.7545 4.9124 24.7545ZM4.9724 23.8845C2.8524 23.8845 1.5124 22.8545 1.2924 21.0545C0.7024 16.6845 0.7224 9.4345 1.3624 4.8045C1.7424 2.0545 3.4424 0.8545 6.7524 0.8645C10.1424 0.8945 12.8924 1.2845 15.4324 1.9345C17.1524 2.3945 17.8824 3.2345 17.8824 4.8045L17.8724 21.7045C17.8724 23.1645 17.1024 23.8845 15.6824 23.8845ZM4.6724 9.7245H14.3424C14.5624 9.7245 14.7424 9.5345 14.7424 9.3245C14.7424 9.1045 14.5624 8.9345 14.3424 8.9345H4.6724C4.4524 8.9345 4.2824 9.1045 4.2824 9.3245C4.2824 9.5345 4.4524 9.7245 4.6724 9.7245ZM4.6724 13.6145H14.3424C14.5624 13.6145 14.7424 13.4345 14.7424 13.2145C14.7424 12.9945 14.5624 12.8245 14.3424 12.8245H4.6724C4.4524 12.8245 4.2824 12.9945 4.2824 13.2145C4.2824 13.4345 4.4524 13.6145 4.6724 13.6145ZM4.6724 17.4945H14.3424C14.5624 17.4945 14.7424 17.3245 14.7424 17.0945C14.7424 16.8845 14.5624 16.7145 14.3424 16.7145H4.6724C4.4524 16.7145 4.2824 16.8845 4.2824 17.0945C4.2824 17.3245 4.4524 17.4945 4.6724 17.4945Z" />
        </svg>
    