
        <svg xmlns="http://www.w3.org/2000/svg" viewBox="0 0 100 100">
            <path d="M7.7917 26.742H17.8817C20.6017 26.742 22.2317 25.122 22.2317 22.402L22.2417 4.332C22.2417 1.652 20.5917 0.002 17.9017 0.002H5.8317C2.1317 0.002 0.0017 2.142 0.0017 5.852V8.562C0.0017 12.022 0.8317 13.942 2.7317 16.422L3.4417 17.342V22.402C3.4417 25.122 5.0717 26.742 7.7917 26.742ZM8.2717 23.122C7.5317 23.122 7.0817 22.662 7.0817 21.922V16.092L5.6117 14.192C4.2217 12.362 3.6217 11.202 3.6217 8.492V6.332C3.6217 4.622 4.6217 3.622 6.3317 3.622H17.4217C18.1617 3.622 18.6217 4.082 18.6217 4.832L18.6017 21.922C18.6017 22.662 18.1417 23.122 17.4017 23.122ZM6.7117 9.032H15.9517C16.5217 9.032 16.9817 8.592 16.9817 8.032C16.9817 7.442 16.5217 6.982 15.9517 6.982H6.7117C6.1417 6.982 5.6917 7.442 5.6917 8.032C5.6917 8.592 6.1417 9.032 6.7117 9.032ZM7.8317 12.912H15.9517C16.5217 12.912 16.9817 12.472 16.9817 11.892C16.9817 11.312 16.5217 10.852 15.9517 10.852H7.8317C7.2517 10.852 6.8117 11.312 6.8117 11.892C6.8117 12.472 7.2517 12.912 7.8317 12.912ZM9.7117 16.782H15.9517C16.5217 16.782 16.9817 16.332 16.9817 15.762C16.9817 15.172 16.5217 14.732 15.9517 14.732H9.7117C9.1517 14.732 8.7117 15.172 8.7117 15.762C8.7117 16.332 9.1517 16.782 9.7117 16.782ZM9.7117 20.652H15.9517C16.5217 20.652 16.9817 20.212 16.9817 19.632C16.9817 19.052 16.5217 18.612 15.9517 18.612H9.7117C9.1517 18.612 8.7117 19.052 8.7117 19.632C8.7117 20.212 9.1517 20.652 9.7117 20.652Z" />
        </svg>
    