
        <svg xmlns="http://www.w3.org/2000/svg" viewBox="0 0 100 100">
            <path d="M3.9917 21.2645H17.9917C22.0317 21.2645 23.6417 19.2545 24.1517 14.8745C24.4617 12.2545 24.4617 9.6245 24.0517 6.0845C23.5217 1.4345 21.0017 -0.4455 16.0417 0.0845L4.4717 1.4045C1.5717 1.7145 0.0017 3.4245 0.0017 6.2045V17.2945C0.0017 19.8145 1.4617 21.2645 3.9917 21.2645ZM5.8117 8.0845C5.3017 8.0845 4.8917 7.6745 4.8917 7.1545C4.8917 6.6445 5.3017 6.2345 5.8117 6.2345H18.4217C18.9517 6.2345 19.3617 6.6445 19.3617 7.1545C19.3617 7.6745 18.9517 8.0845 18.4217 8.0845ZM5.8117 12.1845C5.3017 12.1845 4.8917 11.7845 4.8917 11.2645C4.8917 10.7545 5.3017 10.3445 5.8117 10.3445H18.4217C18.9517 10.3445 19.3617 10.7545 19.3617 11.2645C19.3617 11.7845 18.9517 12.1845 18.4217 12.1845ZM5.8117 16.3045C5.3017 16.3045 4.8917 15.8845 4.8917 15.3745C4.8917 14.8645 5.3017 14.4545 5.8117 14.4545H18.4217C18.9517 14.4545 19.3617 14.8645 19.3617 15.3745C19.3617 15.8845 18.9517 16.3045 18.4217 16.3045Z" />
        </svg>
    