
        <svg xmlns="http://www.w3.org/2000/svg" viewBox="0 0 100 100">
            <path d="M4.3917 22.6002H18.7617C23.0017 22.6002 24.9517 20.4602 25.5117 15.6802C25.8417 12.9802 25.8417 10.2502 25.4017 6.6302C24.8417 1.5102 22.1617 -0.4998 16.7417 0.1002L4.8617 1.4502C1.7317 1.8002 0.0017 3.7102 0.0017 6.8102V18.2102C0.0017 21.0102 1.5917 22.6002 4.3917 22.6002ZM4.8717 18.9802C4.0917 18.9802 3.6217 18.5102 3.6217 17.7302V6.8102C3.6217 5.7902 4.1917 5.1502 5.2217 5.0402L17.1317 3.7102C20.0817 3.3802 21.5317 4.3402 21.8217 6.8102C22.2317 10.3302 22.2317 12.8902 21.9217 15.5002C21.6117 18.0202 20.8517 18.9802 18.7617 18.9802ZM6.9617 9.1502H18.7017C19.2917 9.1502 19.7417 8.6902 19.7417 8.1302C19.7417 7.5402 19.2917 7.0902 18.7017 7.0902H6.9617C6.4017 7.0902 5.9517 7.5402 5.9517 8.1302C5.9517 8.6902 6.4017 9.1502 6.9617 9.1502ZM6.9617 12.9502H18.7017C19.2917 12.9502 19.7417 12.4902 19.7417 11.9302C19.7417 11.3402 19.2917 10.8802 18.7017 10.8802H6.9617C6.4017 10.8802 5.9517 11.3402 5.9517 11.9302C5.9517 12.4902 6.4017 12.9502 6.9617 12.9502ZM6.9617 16.7302H18.7017C19.2917 16.7302 19.7417 16.2702 19.7417 15.7002C19.7417 15.1302 19.2917 14.6702 18.7017 14.6702H6.9617C6.4017 14.6702 5.9517 15.1302 5.9517 15.7002C5.9517 16.2702 6.4017 16.7302 6.9617 16.7302Z" />
        </svg>
    