
        <svg xmlns="http://www.w3.org/2000/svg" viewBox="0 0 100 100">
            <path d="M6.2827 26.7308H17.3727C20.1027 26.7308 21.7127 25.1108 21.7127 22.3908L21.7327 5.9908C21.7327 3.4408 20.1727 1.6408 17.4627 1.0008C14.6027 0.3208 11.6727 0.0208 8.5227 0.0008C3.6427 -0.0392 1.0727 1.7708 0.5227 5.9308C-0.1373 10.7608 -0.1773 17.3108 0.4227 21.6808C0.8227 24.7608 3.1127 26.7308 6.2827 26.7308ZM6.3427 23.1108C4.9027 23.1108 4.1727 22.5708 4.0227 21.4808C3.4627 17.1908 3.4827 10.9608 4.1027 6.4108C4.3627 4.4308 5.7327 3.5908 8.2627 3.6008C11.3927 3.6208 14.2527 3.8908 16.8627 4.5108C17.7227 4.7108 18.1127 5.2408 18.1127 6.1208L18.0927 21.9008C18.0927 22.7208 17.7027 23.1108 16.8827 23.1108ZM6.5627 11.3408H15.4227C16.0127 11.3408 16.4527 10.8908 16.4527 10.3208C16.4527 9.7408 16.0127 9.2808 15.4227 9.2808H6.5627C5.9927 9.2808 5.5427 9.7408 5.5427 10.3208C5.5427 10.8908 5.9927 11.3408 6.5627 11.3408ZM6.5627 15.2308H15.4227C16.0127 15.2308 16.4527 14.7808 16.4527 14.2108C16.4527 13.6308 16.0127 13.1708 15.4227 13.1708H6.5627C5.9927 13.1708 5.5427 13.6308 5.5427 14.2108C5.5427 14.7808 5.9927 15.2308 6.5627 15.2308ZM6.5627 19.1208H15.4227C16.0127 19.1208 16.4527 18.6708 16.4527 18.0908C16.4527 17.5208 16.0127 17.0608 15.4227 17.0608H6.5627C5.9927 17.0608 5.5427 17.5208 5.5427 18.0908C5.5427 18.6708 5.9927 19.1208 6.5627 19.1208Z" />
        </svg>
    