
        <svg xmlns="http://www.w3.org/2000/svg" viewBox="0 0 100 100">
            <path d="M0.4417 23.7972C0.7017 23.7972 0.8817 23.6272 0.8817 23.3672V0.4472C0.8817 0.1872 0.7017 -0.0028 0.4417 -0.0028C0.1917 -0.0028 0.0017 0.1872 0.0017 0.4472V23.3672C0.0017 23.6272 0.1917 23.7972 0.4417 23.7972ZM2.5417 21.9372H21.9017C22.3017 21.9372 22.5617 21.6872 22.5617 21.3072V20.1672H23.5617V23.3672C23.5617 23.6272 23.7417 23.7972 24.0117 23.7972C24.2617 23.7972 24.4417 23.6272 24.4417 23.3672V0.4472C24.4417 0.1872 24.2617 -0.0028 24.0117 -0.0028C23.7417 -0.0028 23.5617 0.1872 23.5617 0.4472V3.6472H22.5617V2.4972C22.5617 2.1372 22.3017 1.8872 21.9017 1.8872H2.5417C2.1317 1.8872 1.8717 2.1372 1.8717 2.4972V5.5772C1.8717 5.9672 2.1317 6.2072 2.5417 6.2072H21.9017C22.3017 6.2072 22.5617 5.9672 22.5617 5.5772V4.4372H23.5617V8.8872H22.5617V7.7372C22.5617 7.3672 22.3017 7.1272 21.9017 7.1272H2.5417C2.1317 7.1272 1.8717 7.3672 1.8717 7.7372V10.8272C1.8717 11.2072 2.1317 11.4472 2.5417 11.4472H21.9017C22.3017 11.4472 22.5617 11.2072 22.5617 10.8272V9.6772H23.5617V14.1172H22.5617V12.9872C22.5617 12.6172 22.3017 12.3772 21.9017 12.3772H2.5417C2.1317 12.3772 1.8717 12.6172 1.8717 12.9872V16.0672C1.8717 16.4372 2.1317 16.6872 2.5417 16.6872H21.9017C22.3017 16.6872 22.5617 16.4372 22.5617 16.0672V14.9172H23.5617V19.3672H22.5617V18.2272C22.5617 17.8572 22.3017 17.6172 21.9017 17.6172H2.5417C2.1317 17.6172 1.8717 17.8572 1.8717 18.2272V21.3072C1.8717 21.6872 2.1317 21.9372 2.5417 21.9372Z" />
        </svg>
    