
        <svg xmlns="http://www.w3.org/2000/svg" viewBox="0 0 100 100">
            <path d="M1.8117 26.0822C2.8117 26.0822 3.6217 25.2622 3.6217 24.2722V1.8122C3.6217 0.8122 2.8117 0.0022 1.8117 0.0022C0.8117 0.0022 0.0017 0.8122 0.0017 1.8122V24.2722C0.0017 25.2622 0.8117 26.0822 1.8117 26.0822ZM6.3317 23.7022H24.8117C25.6017 23.7022 26.1417 23.1522 26.1417 22.3722V22.3622H27.5517V24.2722C27.5517 25.2622 28.3717 26.0822 29.3717 26.0822C30.3617 26.0822 31.1817 25.2622 31.1817 24.2722V1.8122C31.1817 0.8122 30.3617 0.0022 29.3717 0.0022C28.3717 0.0022 27.5517 0.8122 27.5517 1.8122V3.7122H26.1417V3.6822C26.1417 2.8922 25.6017 2.3622 24.8117 2.3622H6.3317C5.5417 2.3622 5.0117 2.9022 5.0117 3.6922V5.6822C5.0117 6.4722 5.5417 7.0122 6.3317 7.0122H24.8117C25.6017 7.0122 26.1417 6.4722 26.1417 5.6722V5.6622H27.5517V9.2822H26.1417V9.2422C26.1417 8.4622 25.6017 7.9322 24.8117 7.9322H6.3317C5.5417 7.9322 5.0117 8.4722 5.0117 9.2622V11.2522C5.0117 12.0322 5.5417 12.5722 6.3317 12.5722H24.8117C25.6017 12.5722 26.1417 12.0222 26.1417 11.2422V11.2222H27.5517V14.8522H26.1417V14.8122C26.1417 14.0322 25.6017 13.5022 24.8117 13.5022H6.3317C5.5417 13.5022 5.0117 14.0422 5.0117 14.8222V16.8122C5.0117 17.6022 5.5417 18.1422 6.3317 18.1422H24.8117C25.6017 18.1422 26.1417 17.5922 26.1417 16.8022V16.7922H27.5517V20.4122H26.1417V20.3822C26.1417 19.5922 25.6017 19.0622 24.8117 19.0622H6.3317C5.5417 19.0622 5.0117 19.6022 5.0117 20.3922V22.3822C5.0117 23.1722 5.5417 23.7022 6.3317 23.7022Z" />
        </svg>
    