
        <svg xmlns="http://www.w3.org/2000/svg" viewBox="0 0 100 100">
            <path d="M6.5617 6.2081H13.7717C14.4917 6.2081 14.9317 5.7581 14.9317 4.9781V3.7381C14.9317 2.9681 14.4917 2.5081 13.7717 2.5081H12.8417C12.7517 1.1281 11.5917 -0.0019 10.1617 -0.0019C8.7417 -0.0019 7.5817 1.1281 7.4917 2.5081H6.5617C5.8317 2.5081 5.4017 2.9681 5.4017 3.7381V4.9781C5.4017 5.7581 5.8317 6.2081 6.5617 6.2081ZM10.1617 3.6581C9.5817 3.6581 9.1217 3.1781 9.1217 2.6181C9.1217 2.0381 9.5817 1.5681 10.1617 1.5681C10.7417 1.5681 11.2117 2.0381 11.2117 2.6181C11.2117 3.1781 10.7417 3.6581 10.1617 3.6581ZM3.9517 28.8281H16.3817C18.9117 28.8281 20.3217 27.4081 20.3217 24.8281V15.1081L17.8017 17.6281V24.8081C17.8017 25.7581 17.2617 26.3081 16.2817 26.3081H4.0517C3.0617 26.3081 2.5317 25.7581 2.5317 24.8081V7.1581C2.5317 6.2481 3.0117 5.6481 3.9217 5.6481H4.1417C4.0517 5.4181 4.0117 5.1481 4.0117 4.8681V3.7481C4.0117 3.5281 4.0417 3.3181 4.1117 3.1281H3.8517C1.3817 3.1281 0.0017 4.5981 0.0017 7.1281V24.8281C0.0017 27.4081 1.4017 28.8281 3.9517 28.8281ZM17.8017 8.9881L19.7317 7.0681C19.9017 6.8881 20.0717 6.7481 20.2617 6.6081V6.3281C20.0717 4.3281 18.7417 3.1281 16.4617 3.1281H16.2217C16.2917 3.3181 16.3117 3.5281 16.3117 3.7481V4.8681C16.3117 5.1481 16.2817 5.4181 16.1917 5.6481H16.4017C17.3217 5.6481 17.8017 6.2481 17.8017 7.1581ZM22.6417 10.3981L23.4517 9.5781C23.9517 9.0581 23.9617 8.3581 23.4817 7.8881L23.1417 7.5581C22.7217 7.1381 22.0117 7.2081 21.5317 7.6781L20.7217 8.4681ZM9.7117 21.8681L12.2117 20.8081L21.7417 11.3081L19.8017 9.3981L10.3017 18.8981L9.2117 21.3381C9.0717 21.6581 9.4217 21.9881 9.7117 21.8681ZM4.4317 11.9881C4.4317 12.4781 4.8417 12.8781 5.3317 12.8781H13.9017L15.5417 11.2481C15.4017 11.1481 15.2017 11.0881 15.0017 11.0881H5.3317C4.8417 11.0881 4.4317 11.4881 4.4317 11.9881ZM4.4317 16.1181C4.4317 16.6281 4.8317 17.0181 5.3317 17.0181H9.7617L11.5517 15.2381H5.3317C4.8317 15.2381 4.4317 15.6181 4.4317 16.1181ZM5.3317 21.3881H6.6917C7.1817 21.3881 7.5917 20.9781 7.5917 20.4881C7.5917 19.9881 7.1917 19.5981 6.6917 19.5981H5.3317C4.8317 19.5981 4.4317 19.9881 4.4317 20.4881C4.4317 20.9781 4.8417 21.3881 5.3317 21.3881Z" />
        </svg>
    