
        <svg xmlns="http://www.w3.org/2000/svg" viewBox="0 0 100 100">
            <path d="M0.0117 3.8716H4.1117V1.7016C4.1117 0.6516 3.5117 0.0016 2.5217 0.0016H1.5917C0.6017 0.0016 0.0117 0.6716 0.0117 1.7116ZM13.8617 28.5016H20.2817C22.3117 28.5016 23.6217 27.1416 23.6217 25.1116V3.6816C23.6217 1.6316 22.3117 0.2916 20.2817 0.2916H13.8617C11.8317 0.2916 10.5017 1.6416 10.5017 3.6916V25.1116C10.5017 27.1516 11.8317 28.5016 13.8617 28.5016ZM20.5617 4.9316H16.5517C16.2117 4.9316 15.9517 4.7116 15.9517 4.3616C15.9517 4.0316 16.2117 3.7616 16.5317 3.7616H20.5617ZM20.5617 6.9416H18.0217C17.6817 6.9416 17.4417 6.7016 17.4417 6.3616C17.4417 6.0516 17.6817 5.7616 18.0117 5.7616H20.5617ZM0.0017 25.0516L1.4017 28.1816C1.6617 28.7316 2.4617 28.7016 2.6717 28.2116L4.1017 25.0516V5.8516H0.0017ZM20.5617 8.9516H18.0217C17.6817 8.9516 17.4417 8.7116 17.4417 8.3716C17.4417 8.0516 17.6817 7.7716 18.0117 7.7716H20.5617ZM20.5617 10.9416H18.0217C17.6817 10.9416 17.4417 10.7216 17.4417 10.3816C17.4417 10.0416 17.6817 9.7716 18.0117 9.7716H20.5617ZM20.5617 12.9516H18.0217C17.6817 12.9516 17.4417 12.7216 17.4417 12.3916C17.4417 12.0616 17.6817 11.7816 18.0117 11.7816H20.5617ZM20.5617 14.9516H16.5517C16.2117 14.9516 15.9517 14.7216 15.9517 14.3816C15.9517 14.0616 16.2117 13.7816 16.5317 13.7816H20.5617ZM20.5617 16.9716H18.0217C17.6817 16.9716 17.4417 16.7316 17.4417 16.3816C17.4417 16.0516 17.6817 15.7716 18.0117 15.7716H20.5617ZM20.5617 18.9716H18.0217C17.6817 18.9716 17.4417 18.7416 17.4417 18.4016C17.4417 18.0616 17.6817 17.7916 18.0117 17.7916H20.5617ZM20.5617 20.9616H18.0217C17.6817 20.9616 17.4417 20.7416 17.4417 20.3916C17.4417 20.0716 17.6817 19.7916 18.0117 19.7916H20.5617ZM20.5617 22.9816H18.0217C17.6817 22.9816 17.4417 22.7416 17.4417 22.3916C17.4417 22.0816 17.6817 21.8016 18.0117 21.8016H20.5617ZM20.5617 24.9816H16.5517C16.2117 24.9816 15.9517 24.7516 15.9517 24.4116C15.9517 24.0716 16.2117 23.8016 16.5317 23.8016H20.5617Z" />
        </svg>
    