
        <svg xmlns="http://www.w3.org/2000/svg" viewBox="0 0 100 100">
            <path d="M12.7923 25.5961C19.8723 25.5961 25.6023 19.8661 25.6023 12.7961C25.6023 5.7261 19.8723 -0.0039 12.7923 -0.0039C5.7323 -0.0039 0.0023 5.7261 0.0023 12.7961C0.0023 19.8661 5.7323 25.5961 12.7923 25.5961ZM17.4823 10.0661L15.3723 7.9561L16.2423 7.0561C16.7823 6.5061 17.5323 6.4961 18.0623 7.0161L18.4223 7.3961C18.9423 7.9061 18.9523 8.6561 18.4023 9.2061ZM9.5523 18.0161L7.8323 18.6661C7.1823 18.9061 6.5323 18.2961 6.7823 17.6261L7.4323 15.9061L14.5923 8.6961L16.7323 10.8561Z" />
        </svg>
    