
        <svg xmlns="http://www.w3.org/2000/svg" viewBox="0 0 100 100">
            <path d="M18.2521 4.2468L19.5821 2.9168C20.2321 2.2668 20.2721 1.5368 19.6621 0.9268L19.1721 0.4268C18.5621 -0.1832 17.8121 -0.1232 17.1621 0.5168L15.8321 1.8268ZM17.9621 18.1668C18.3221 18.5268 18.9421 18.5468 19.3121 18.1668C19.6721 17.7968 19.6821 17.1968 19.3121 16.8168L3.4621 0.9868C3.1021 0.6168 2.4721 0.5968 2.1021 0.9868C1.7421 1.3368 1.7421 1.9768 2.1021 2.3368ZM13.5421 8.9368L17.0621 5.4168L14.6621 3.0068L11.1321 6.5268ZM3.5921 18.8668L10.0921 12.3868L7.6721 9.9768L1.1921 16.4668L0.0321 19.3268C-0.1179 19.7268 0.2921 20.1368 0.6621 19.9968Z" />
        </svg>
    