
        <svg xmlns="http://www.w3.org/2000/svg" viewBox="0 0 100 100">
            <path d="M7.0117 6.578H14.1717C14.9517 6.578 15.4217 6.068 15.4217 5.238V3.998C15.4217 3.168 14.9517 2.658 14.1717 2.658H13.4517C13.3317 1.188 12.1217 -0.002 10.5917 -0.002C9.0717 -0.002 7.8417 1.188 7.7317 2.658H7.0117C6.2217 2.658 5.7517 3.168 5.7517 3.998V5.238C5.7517 6.068 6.2217 6.578 7.0117 6.578ZM10.5917 3.858C9.9917 3.858 9.5117 3.368 9.5117 2.778C9.5117 2.188 9.9917 1.698 10.5917 1.698C11.1917 1.698 11.6717 2.188 11.6717 2.778C11.6717 3.368 11.1917 3.858 10.5917 3.858ZM4.3917 29.438H16.7917C19.4917 29.438 21.1717 27.738 21.1717 24.998V15.738L17.7617 19.158V24.958C17.7617 25.618 17.3517 26.018 16.6717 26.018H4.5017C3.8217 26.018 3.4217 25.618 3.4217 24.958V7.408C3.4217 6.758 3.8017 6.338 4.4417 6.338H4.5717C4.4217 6.008 4.3317 5.618 4.3317 5.188V3.998C4.3317 3.608 4.4217 3.238 4.5717 2.928H4.3517C1.6717 2.928 0.0017 4.638 0.0017 7.368V24.998C0.0017 27.738 1.6917 29.438 4.3917 29.438ZM17.7617 9.308L20.2117 6.858C20.4717 6.598 20.7417 6.408 21.0317 6.238L21.0217 6.108C20.5617 4.148 19.1017 2.928 16.8317 2.928H16.6217C16.7717 3.238 16.8417 3.608 16.8417 3.998V5.188C16.8417 5.618 16.7617 6.008 16.6017 6.338H16.7317C17.3817 6.338 17.7617 6.758 17.7617 7.408ZM23.3917 10.908L24.1217 10.188C24.7417 9.558 24.7717 8.688 24.1917 8.118L23.7617 7.708C23.2617 7.228 22.3717 7.338 21.7817 7.908L21.0717 8.598ZM10.7617 21.928L13.4217 20.878L22.4417 11.868L20.1217 9.558L11.1117 18.578L10.0517 21.208C9.8817 21.668 10.3617 22.078 10.7617 21.928ZM5.1017 12.278C5.1017 12.918 5.6117 13.428 6.2317 13.428H13.6317L15.6717 11.398C15.4717 11.238 15.2217 11.148 14.9517 11.148H6.2317C5.6117 11.148 5.1017 11.658 5.1017 12.278ZM5.1017 16.398C5.1017 17.038 5.6017 17.528 6.2317 17.528H9.5117L11.7817 15.268H6.2317C5.6117 15.268 5.1017 15.778 5.1017 16.398ZM6.2317 21.878H7.2117C7.8417 21.878 8.3417 21.368 8.3417 20.728C8.3417 20.108 7.8417 19.618 7.2117 19.618H6.2317C5.6117 19.618 5.1017 20.108 5.1017 20.728C5.1017 21.368 5.6117 21.878 6.2317 21.878Z" />
        </svg>
    