
        <svg xmlns="http://www.w3.org/2000/svg" viewBox="0 0 100 100">
            <path d="M1.826 22.7598C2.996 22.7598 3.536 22.1698 3.746 21.2698L6.036 11.7998H11.566L13.906 21.2698C14.146 22.1698 14.656 22.7598 15.836 22.7598C17.336 22.7598 17.916 21.5498 17.576 20.2498L15.066 10.5398C14.796 9.5198 14.056 8.6698 13.096 8.4298L10.236 0.9998C10.006 0.3798 9.486 -0.0002 8.786 -0.0002C8.056 -0.0002 7.576 0.3798 7.346 0.9998L4.486 8.4298C3.536 8.6698 2.776 9.5198 2.526 10.5198L0.086 20.2498C-0.234 21.5498 0.326 22.7598 1.826 22.7598Z" />
        </svg>
    