
        <svg xmlns="http://www.w3.org/2000/svg" viewBox="0 0 100 100">
            <path d="M33.2012 4.9935L34.7412 3.4735C35.4812 2.7335 35.5012 1.8635 34.8112 1.1635L34.1512 0.4935C33.4612 -0.2065 32.5712 -0.1365 31.8312 0.5735L30.3012 2.0935ZM19.5412 18.6535L31.7712 6.3935L28.8912 3.5035L16.6512 15.7635L15.4312 18.9735C15.2212 19.5335 15.7912 20.0635 16.3112 19.8735ZM0.3412 20.3135C1.6812 24.0635 7.4112 24.6935 13.6912 21.5435L12.4912 18.9635C8.0412 21.1135 3.8212 20.8935 3.2312 18.8935C1.8712 14.4635 14.4912 12.3135 12.6612 6.9735C11.4812 3.5435 5.4312 4.3435 0.8012 7.4535C-0.8188 8.5335 0.3412 10.8035 2.3712 9.8235C4.6012 8.6135 9.4012 6.7935 9.8212 7.8635C10.1212 8.5935 9.3212 9.2135 6.5012 10.8535C3.3312 12.6935 -1.3088 15.6335 0.3412 20.3135Z" />
        </svg>
    