
        <svg xmlns="http://www.w3.org/2000/svg" viewBox="0 0 100 100">
            <path d="M0.0023 10.5825C0.0023 18.7425 7.1023 24.9925 13.8623 25.7825C14.7023 25.9125 15.3523 25.5025 15.3523 24.7025C15.3523 24.0825 14.9723 23.6725 14.2623 23.5125C6.2123 21.9125 2.3523 15.8325 2.3523 10.5125C2.3523 5.7925 5.5123 2.3525 10.3723 2.3525C12.2823 2.3525 14.1923 2.9225 15.8923 3.8625L17.6723 2.0825C15.4723 0.7625 12.9823 0.0025 10.5423 0.0025C4.1323 0.0025 0.0023 4.5825 0.0023 10.5825ZM22.8323 4.0325L23.8623 2.9525C24.4123 2.3925 24.4723 1.5725 23.9223 1.0325L23.5423 0.6725C23.0623 0.2025 22.2423 0.2625 21.7023 0.7825L20.6523 1.8425ZM11.3323 15.5025L21.9423 4.9025L19.7623 2.7225L9.1523 13.3225L8.1023 15.9125C7.9423 16.2925 8.3423 16.6525 8.6923 16.5225ZM25.0923 14.1225C25.0923 11.4725 24.1923 8.9625 22.7223 6.8325L20.9723 8.5825C22.1123 10.2925 22.7923 12.2025 22.7923 14.1125C22.7923 17.2625 20.4723 19.2725 17.6523 19.2725C15.8123 19.2725 13.8523 18.4425 12.2823 17.1325L9.7423 18.1425C11.9223 20.2025 14.9423 21.4525 17.7523 21.4525C22.1023 21.4525 25.0923 18.4525 25.0923 14.1225Z" />
        </svg>
    