
        <svg xmlns="http://www.w3.org/2000/svg" viewBox="0 0 100 100">
            <path d="M17.3366 2.266L18.1466 1.486C18.5866 1.046 18.5866 0.676 18.1766 0.266L18.1566 0.246C17.8066 -0.114 17.3666 -0.074 16.9666 0.326L16.1866 1.106ZM17.1066 16.716C17.2266 16.836 17.4166 16.836 17.5366 16.716C17.6666 16.586 17.6366 16.416 17.5366 16.296L2.5766 1.356C2.4866 1.246 2.2966 1.226 2.1666 1.356C2.0566 1.476 2.0566 1.656 2.1666 1.776ZM11.0566 8.566L16.6066 2.996L15.4666 1.846L9.9066 7.416ZM2.3666 17.226L9.3766 10.226L8.2166 9.076L1.2466 16.046L0.0266 18.186C-0.0634 18.336 0.1166 18.476 0.2466 18.406Z" />
        </svg>
    