
        <svg xmlns="http://www.w3.org/2000/svg" viewBox="0 0 100 100">
            <path d="M0.9443 22.1334C1.4943 22.1334 1.7643 21.8434 1.8543 21.3634L3.9943 10.5034H10.7643L12.8943 21.3634C12.9943 21.8434 13.2643 22.1334 13.8143 22.1334C14.5943 22.1334 14.8643 21.5934 14.7343 20.9634L12.5443 9.8134C12.4043 9.0734 11.7843 8.5334 11.0643 8.5334H11.0143L8.4043 0.7734C8.2343 0.2834 7.9043 0.0034 7.4043 0.0034C6.8743 0.0034 6.5143 0.2834 6.3443 0.7734L3.7443 8.5334H3.6943C2.9843 8.5334 2.3643 9.0734 2.2243 9.8134L0.0343 20.9634C-0.0957 21.5934 0.1843 22.1334 0.9443 22.1334Z" />
        </svg>
    