
        <svg xmlns="http://www.w3.org/2000/svg" viewBox="0 0 100 100">
            <path d="M0.2718 12.5935L3.6918 22.8835C4.3718 24.9035 5.8718 26.0135 8.0018 26.0135H18.9818C21.1318 26.0135 22.6318 24.9035 23.3018 22.8835L26.7218 12.6035C27.4018 10.5535 26.8018 8.7735 25.1118 7.5235L16.1818 0.9535C14.4418 -0.3165 12.5518 -0.3165 10.8118 0.9535L1.8918 7.5235C0.1918 8.7735 -0.3982 10.5535 0.2718 12.5935ZM3.6718 11.7235C3.4618 11.1035 3.6218 10.6235 4.1818 10.2035L12.6918 3.9335C13.2218 3.5435 13.7718 3.5435 14.3018 3.9335L22.8018 10.2035C23.3718 10.6235 23.5418 11.1035 23.3318 11.7235L20.0518 21.5635C19.8518 22.1735 19.3718 22.4935 18.7618 22.4935H8.2418C7.6218 22.4935 7.1518 22.1735 6.9518 21.5635Z" />
        </svg>
    