
        <svg xmlns="http://www.w3.org/2000/svg" viewBox="0 0 100 100">
            <path d="M2.2971 19.4104C2.6671 21.5004 3.9371 22.6504 5.8071 22.6904V10.9804C5.8071 7.3204 8.1671 4.9804 11.8271 4.9804H20.6871L20.3971 3.2904C19.9571 0.8204 18.2971 -0.3396 15.8171 0.0904L3.2971 2.2904C0.8171 2.7404 -0.3429 4.4004 0.0871 6.8704ZM11.8271 27.6504H24.5371C27.0571 27.6504 28.4971 26.2204 28.4971 23.7104V10.9804C28.4971 8.4704 27.0571 7.0404 24.5371 7.0404H11.8271C9.2971 7.0404 7.8671 8.4704 7.8671 10.9804V23.7104C7.8671 26.2204 9.2971 27.6504 11.8271 27.6504ZM18.1871 19.4804C16.1671 19.4804 14.6571 17.7804 14.6571 15.6404C14.6571 13.6104 16.2071 11.8504 18.1871 11.8504C20.1471 11.8504 21.7071 13.6104 21.7071 15.6404C21.7071 17.7804 20.1871 19.4804 18.1871 19.4804ZM12.0871 24.3804C13.0771 22.4104 15.4271 21.0504 18.1871 21.0504C20.9271 21.0504 23.2971 22.4104 24.2771 24.3804Z" />
        </svg>
    