
        <svg xmlns="http://www.w3.org/2000/svg" viewBox="0 0 100 100">
            <path d="M9.7617 10.0552C12.3317 10.0552 14.3317 7.8352 14.3317 4.9652C14.3317 2.2452 12.2917 -0.0048 9.7617 -0.0048C7.2417 -0.0048 5.2017 2.2652 5.2017 4.9852C5.2017 7.8352 7.2117 10.0552 9.7617 10.0552ZM22.0517 10.5952C22.2417 10.5952 22.3717 10.4952 22.5017 10.3552L28.6317 0.8352C28.6917 0.7352 28.7317 0.6252 28.7317 0.5152C28.7317 0.2852 28.5217 0.0952 28.3017 0.0952C28.1517 0.0952 27.9917 0.1752 27.9017 0.3352L22.0417 9.4852L18.8117 5.6952C18.6917 5.5452 18.5717 5.4852 18.4117 5.4852C18.1717 5.4852 17.9717 5.6752 17.9717 5.9152C17.9717 6.0452 18.0217 6.1852 18.1217 6.2952L21.6117 10.3552C21.7517 10.5252 21.8717 10.5952 22.0517 10.5952ZM1.6917 20.6452H17.8017C18.8117 20.6452 19.4717 20.1052 19.4717 19.2752C19.4717 16.2852 15.7417 12.1652 9.7417 12.1652C3.7417 12.1652 0.0017 16.2852 0.0017 19.2752C0.0017 20.1052 0.6717 20.6452 1.6917 20.6452Z" />
        </svg>
    