
        <svg xmlns="http://www.w3.org/2000/svg" viewBox="0 0 100 100">
            <path d="M4.3817 22.855H23.7617C26.5617 22.855 28.1517 21.265 28.1517 18.485V4.375C28.1517 1.585 26.5617 -0.005 23.7617 -0.005H4.3817C1.5917 -0.005 0.0017 1.585 0.0017 4.375V18.485C0.0017 21.265 1.5917 22.855 4.3817 22.855ZM5.4017 16.355C4.2517 16.355 3.6817 15.795 3.6817 14.665V8.195C3.6817 7.055 4.2517 6.495 5.4017 6.495H11.8017C12.9717 6.495 13.5317 7.055 13.5317 8.195V14.665C13.5317 15.795 12.9717 16.355 11.8017 16.355ZM20.3717 16.265C17.4217 16.265 15.5117 14.355 15.5117 11.435C15.5117 8.505 17.4417 6.565 20.3217 6.565C23.0817 6.565 24.9817 8.335 24.9817 10.925C24.9817 12.825 24.0817 14.085 22.6917 14.085C22.1417 14.085 21.6317 13.875 21.3517 13.485C21.0117 13.875 20.5317 14.085 19.9917 14.085C18.6817 14.085 17.7617 13.005 17.7617 11.435C17.7617 9.905 18.6917 8.805 19.9717 8.805C20.3917 8.805 20.7817 8.975 21.1217 9.235V9.215C21.2217 8.965 21.4917 8.805 21.7617 8.805C22.1817 8.805 22.5117 9.115 22.5117 9.555V12.315C22.5117 12.605 22.6217 12.695 22.8117 12.695C23.2617 12.695 23.5817 12.025 23.5817 11.005C23.5817 9.175 22.2617 7.965 20.3217 7.965C18.3417 7.965 17.0317 9.365 17.0317 11.445C17.0317 13.555 18.3317 14.815 20.5317 14.815C21.2817 14.815 21.6017 14.665 21.9717 14.605C22.1017 14.585 22.1917 14.565 22.3117 14.565C22.6917 14.565 22.9617 14.845 22.9617 15.225C22.9617 15.575 22.7317 15.835 22.3317 15.995C21.8817 16.185 21.1617 16.265 20.3717 16.265ZM8.6017 12.305C9.6217 12.305 10.4417 11.425 10.4417 10.275C10.4417 9.215 9.6217 8.335 8.6017 8.335C7.5817 8.335 6.7717 9.215 6.7717 10.275C6.7717 11.425 7.5817 12.305 8.6017 12.305ZM20.2217 12.635C20.7817 12.635 21.1217 12.155 21.1217 11.395C21.1217 10.655 20.7817 10.195 20.2517 10.195C19.6917 10.195 19.3917 10.625 19.3917 11.405C19.3917 12.195 19.6917 12.635 20.2217 12.635ZM5.3417 14.875H11.8717C11.4017 13.925 10.1117 13.235 8.6017 13.235C7.0817 13.235 5.8017 13.925 5.3417 14.875Z" />
        </svg>
    