
        <svg xmlns="http://www.w3.org/2000/svg" viewBox="0 0 100 100">
            <path d="M15.8779 10.3316C18.4679 10.3316 20.6279 8.0416 20.6279 5.1016C20.6279 2.2416 18.4579 0.0016 15.8779 0.0016C13.2979 0.0016 11.1179 2.2716 11.1179 5.1216C11.1179 8.0416 13.2779 10.3316 15.8779 10.3316ZM22.5379 5.1216C22.5379 5.7116 22.9979 6.1616 23.5879 6.1616H26.5379V7.6216C26.5379 8.4916 27.3979 8.8116 28.0979 8.2816L31.3979 5.8016C31.8479 5.4616 31.8479 4.8116 31.3979 4.4716L28.0979 1.9816C27.4079 1.4616 26.5379 1.7416 26.5379 2.6616V4.0916H23.5879C22.9979 4.0916 22.5379 4.5516 22.5379 5.1216ZM0.3379 5.8016L3.6279 8.2816C4.3379 8.8116 5.1879 8.4916 5.1879 7.6216V6.1616H8.1579C8.7279 6.1616 9.1979 5.7116 9.1979 5.1216C9.1979 4.5516 8.7279 4.0916 8.1579 4.0916H5.1879V2.6616C5.1879 1.7416 4.3179 1.4616 3.6279 1.9816L0.3379 4.4716C-0.1021 4.8116 -0.1221 5.4616 0.3379 5.8016ZM8.1179 21.2716H23.6279C24.9879 21.2716 25.8079 20.6116 25.8079 19.5316C25.8079 16.5216 21.9479 12.4016 15.8679 12.4016C9.7979 12.4016 5.9379 16.5216 5.9379 19.5316C5.9379 20.6116 6.7479 21.2716 8.1179 21.2716Z" />
        </svg>
    