
        <svg xmlns="http://www.w3.org/2000/svg" viewBox="0 0 100 100">
            <path d="M10.4717 8.5361C12.6817 8.5561 14.4117 6.6661 14.4117 4.2161C14.4117 1.9261 12.6717 -0.0039 10.4717 -0.0039C8.3017 -0.0039 6.5317 1.9261 6.5417 4.2161C6.5417 6.6661 8.2817 8.5161 10.4717 8.5361ZM3.7117 17.0661H17.2417C18.0517 17.0661 18.5017 16.5661 18.5017 15.8561C18.5017 13.9361 15.7417 9.9561 10.4617 9.9561C5.2017 9.9561 2.4517 13.9361 2.4517 15.8561C2.4517 16.5661 2.9017 17.0661 3.7117 17.0661ZM1.1017 25.5361H19.8517C20.4617 25.5361 20.9517 25.0361 20.9517 24.4361C20.9517 23.8261 20.4617 23.3361 19.8517 23.3361H19.1217V20.8161C19.1217 19.4861 18.4417 18.7261 17.0417 18.7261H3.9117C2.5217 18.7261 1.8317 19.4861 1.8317 20.8161V23.3361H1.1017C0.4917 23.3361 0.0017 23.8261 0.0017 24.4361C0.0017 25.0361 0.4917 25.5361 1.1017 25.5361ZM8.1917 22.9461C7.7417 22.9461 7.4017 22.5961 7.4017 22.1361C7.4017 21.6761 7.7417 21.3361 8.1917 21.3361H12.7717C13.2317 21.3361 13.5617 21.6761 13.5617 22.1361C13.5617 22.5961 13.2317 22.9461 12.7717 22.9461Z" />
        </svg>
    