
        <svg xmlns="http://www.w3.org/2000/svg" viewBox="0 0 100 100">
            <path d="M0.0017 25.1397C0.0017 25.9297 0.5317 26.4597 1.3217 26.4597H20.5217C21.3117 26.4597 21.8417 25.9297 21.8417 25.1397V1.3197C21.8417 0.5297 21.3117 -0.0003 20.5217 -0.0003H1.3217C0.5317 -0.0003 0.0017 0.5297 0.0017 1.3197ZM3.8917 22.2697V4.1997C3.8917 4.0097 4.0117 3.8897 4.1917 3.8897H17.6517C17.8517 3.8897 17.9617 4.0097 17.9617 4.1997V22.2697C17.9617 22.4497 17.8517 22.5697 17.6517 22.5697H4.1917C4.0117 22.5697 3.8917 22.4497 3.8917 22.2697ZM4.8017 21.2797C4.8017 21.5397 4.9217 21.6397 5.1417 21.6397H16.7017C16.9317 21.6397 17.0417 21.5397 17.0417 21.2797V5.1797C17.0417 4.9197 16.9317 4.8197 16.7017 4.8197H5.1417C4.9217 4.8197 4.8017 4.9197 4.8017 5.1797ZM10.9217 15.5697C8.6617 15.5697 7.1617 16.5897 6.3017 17.6797V6.4897C6.3017 6.3897 6.3717 6.3297 6.4717 6.3297H15.3717C15.4817 6.3297 15.5417 6.3897 15.5417 6.4897V17.6797C14.6817 16.5897 13.1917 15.5697 10.9217 15.5697ZM10.9217 14.7997C12.4817 14.8097 13.7317 13.4997 13.7317 11.7297C13.7317 10.0897 12.4817 8.7297 10.9217 8.7297C9.3717 8.7297 8.1117 10.0897 8.1117 11.7297C8.1117 13.4997 9.3717 14.7997 10.9217 14.7997Z" />
        </svg>
    