
        <svg xmlns="http://www.w3.org/2000/svg" viewBox="0 0 100 100">
            <path d="M1.0317 2.0725H27.2117C27.7817 2.0725 28.2517 1.6025 28.2517 1.0325C28.2517 0.4525 27.7817 0.0025 27.2117 0.0025H1.0317C0.4617 0.0025 0.0017 0.4525 0.0017 1.0325C0.0017 1.6025 0.4617 2.0725 1.0317 2.0725ZM14.1217 13.0125C16.3117 13.0125 18.2417 11.0025 18.2417 8.4625C18.2417 5.9225 16.3117 4.0625 14.1217 4.0625C11.9417 4.0625 10.0117 5.9625 10.0117 8.4925C10.0117 11.0025 11.9417 13.0125 14.1217 13.0125ZM1.0317 6.9625H8.5517C8.7317 6.2025 9.0517 5.5125 9.4617 4.9025H1.0317C0.4617 4.9025 0.0017 5.3525 0.0017 5.9325C0.0017 6.5025 0.4617 6.9625 1.0317 6.9625ZM19.7117 6.9625H27.2117C27.7817 6.9625 28.2517 6.5025 28.2517 5.9325C28.2517 5.3525 27.7817 4.9025 27.2117 4.9025H18.8117C19.2317 5.5125 19.5517 6.2025 19.7117 6.9625ZM1.0317 11.8625H9.3017C8.9217 11.2525 8.6417 10.5625 8.4817 9.7925H1.0317C0.4617 9.7925 0.0017 10.2525 0.0017 10.8325C0.0017 11.4025 0.4617 11.8625 1.0317 11.8625ZM18.9417 11.8625H27.2117C27.7817 11.8625 28.2517 11.4025 28.2517 10.8325C28.2517 10.2525 27.7817 9.7925 27.2117 9.7925H19.7617C19.6217 10.5625 19.3317 11.2525 18.9417 11.8625ZM8.0717 21.9525H20.1717C21.9517 21.9525 22.5017 21.4325 22.5017 20.5325C22.5017 17.9525 19.3017 14.4025 14.1217 14.4025C8.9517 14.4025 5.7517 17.9525 5.7517 20.5325C5.7517 21.4325 6.2917 21.9525 8.0717 21.9525ZM1.0317 16.7625H5.5117C6.0517 16.0125 6.7617 15.2825 7.6417 14.6925H1.0317C0.4617 14.6925 0.0017 15.1525 0.0017 15.7225C0.0017 16.3025 0.4617 16.7625 1.0317 16.7625ZM22.7417 16.7625H27.2117C27.7817 16.7625 28.2517 16.3025 28.2517 15.7225C28.2517 15.1525 27.7817 14.6925 27.2117 14.6925H20.6117C21.4917 15.2825 22.2117 16.0125 22.7417 16.7625ZM1.0317 21.6525H4.2817C4.0317 20.9725 4.0617 20.2625 4.2117 19.5925H1.0317C0.4617 19.5925 0.0017 20.0525 0.0017 20.6225C0.0017 21.2025 0.4617 21.6525 1.0317 21.6525ZM23.9717 21.6525H27.2117C27.7817 21.6525 28.2517 21.2025 28.2517 20.6225C28.2517 20.0525 27.7817 19.5925 27.2117 19.5925H24.0517C24.1917 20.2625 24.2217 20.9725 23.9717 21.6525Z" />
        </svg>
    