
        <svg xmlns="http://www.w3.org/2000/svg" viewBox="0 0 100 100">
            <path d="M12.6023 25.1986C19.5623 25.1986 25.2023 19.5586 25.2023 12.5986C25.2023 5.6386 19.5623 -0.0014 12.6023 -0.0014C5.6323 -0.0014 0.0023 5.6386 0.0023 12.5986C0.0023 19.5586 5.6323 25.1986 12.6023 25.1986ZM12.6023 21.5386C7.6523 21.5386 3.6523 17.5386 3.6523 12.5986C3.6523 7.6486 7.6523 3.6586 12.6023 3.6586C17.5423 3.6586 21.5423 7.6486 21.5423 12.5986C21.5423 17.5386 17.5423 21.5386 12.6023 21.5386ZM12.6023 9.7586C13.6623 9.7586 14.4923 8.8486 14.4923 7.6786C14.4923 6.5886 13.6523 5.6386 12.6023 5.6386C11.5323 5.6386 10.6923 6.5886 10.6923 7.6786C10.7023 8.8486 11.5223 9.7586 12.6023 9.7586ZM9.5523 13.9886H15.6423C16.1823 13.9886 16.4923 13.7086 16.4923 13.2586C16.4923 12.1986 15.0323 10.4886 12.6023 10.4886C10.1623 10.4886 8.6923 12.1986 8.6923 13.2586C8.6923 13.7086 9.0123 13.9886 9.5523 13.9886ZM8.2823 18.6486H16.9123C17.3323 18.6486 17.6823 18.2886 17.6823 17.8686C17.6823 17.4386 17.3323 17.0986 16.9123 17.0986H16.8423V16.1986C16.8423 15.4086 16.3323 14.8986 15.5423 14.8986H9.6423C8.8523 14.8986 8.3423 15.4086 8.3423 16.1986V17.0986H8.2823C7.8523 17.0986 7.5123 17.4386 7.5123 17.8686C7.5123 18.2886 7.8523 18.6486 8.2823 18.6486ZM11.5123 17.3186C11.1923 17.3186 10.9423 17.0786 10.9423 16.7586C10.9423 16.4486 11.1923 16.2086 11.5123 16.2086H13.6723C13.9923 16.2086 14.2423 16.4486 14.2423 16.7586C14.2423 17.0786 13.9923 17.3186 13.6723 17.3186Z" />
        </svg>
    