
        <svg xmlns="http://www.w3.org/2000/svg" viewBox="0 0 100 100">
            <path d="M9.2917 10.4834C12.0317 10.4834 14.2017 8.1634 14.2017 5.2134C14.2017 2.3534 11.9917 0.0034 9.2917 0.0034C6.6017 0.0034 4.3817 2.3534 4.3817 5.2134C4.3817 8.1634 6.5417 10.4834 9.2917 10.4834ZM33.8417 10.5034C36.5817 10.5034 38.7517 8.1634 38.7517 5.2134C38.7517 2.3534 36.5417 0.0034 33.8417 0.0034C31.1517 0.0034 28.9317 2.3534 28.9317 5.2134C28.9317 8.1634 31.0917 10.5034 33.8417 10.5034ZM9.2917 7.5934C8.1917 7.5934 7.2917 6.6934 7.2917 5.2034C7.2917 3.8334 8.2217 2.8934 9.2917 2.8934C10.3617 2.8934 11.2817 3.8334 11.2817 5.2134C11.2817 6.6934 10.3917 7.5934 9.2917 7.5934ZM33.8417 7.5934C32.7417 7.5934 31.8417 6.6934 31.8417 5.2034C31.8417 3.8334 32.7917 2.9034 33.8417 2.9034C34.9117 2.9034 35.8317 3.8334 35.8317 5.2134C35.8317 6.6934 34.9417 7.5934 33.8417 7.5934ZM16.9717 10.8734C17.8117 10.8734 18.5017 10.1934 18.5017 9.3434C18.5017 8.4934 17.8117 7.8134 16.9717 7.8134C16.1217 7.8134 15.4317 8.4934 15.4317 9.3434C15.4317 10.1934 16.1217 10.8734 16.9717 10.8734ZM21.5617 10.8734C22.4017 10.8734 23.1017 10.1934 23.1017 9.3434C23.1017 8.4934 22.4017 7.8134 21.5617 7.8134C20.7217 7.8134 20.0317 8.4934 20.0317 9.3434C20.0317 10.1934 20.7217 10.8734 21.5617 10.8734ZM26.1517 10.8734C27.0017 10.8734 27.6917 10.1934 27.6917 9.3434C27.6917 8.4934 27.0017 7.8134 26.1517 7.8134C25.3117 7.8134 24.6217 8.4934 24.6217 9.3434C24.6217 10.1934 25.3117 10.8734 26.1517 10.8734ZM3.2117 20.6234H15.3617C17.4917 20.6234 18.5717 19.8534 18.5717 18.2334C18.5717 14.7634 14.5517 11.4334 9.2917 11.4334C4.0217 11.4334 0.0017 14.7634 0.0017 18.2334C0.0017 19.8534 1.0817 20.6234 3.2117 20.6234ZM27.7617 20.6234H39.9117C42.0517 20.6234 43.1217 19.8534 43.1217 18.2334C43.1217 14.7734 39.1017 11.4334 33.8417 11.4334C28.5717 11.4334 24.5517 14.7734 24.5517 18.2334C24.5517 19.8534 25.6317 20.6234 27.7617 20.6234ZM3.5717 17.7234C3.4417 17.7234 3.4217 17.6234 3.4217 17.5534C3.4217 16.4634 5.5617 14.3334 9.2917 14.3334C13.0117 14.3334 15.1517 16.4634 15.1517 17.5534C15.1517 17.6234 15.1317 17.7234 15.0017 17.7234ZM28.1217 17.7334C27.9917 17.7334 27.9717 17.6234 27.9717 17.5534C27.9717 16.4734 30.1217 14.3434 33.8417 14.3434C37.5617 14.3434 39.7017 16.4734 39.7017 17.5534C39.7017 17.6234 39.6817 17.7334 39.5517 17.7334Z" />
        </svg>
    