
        <svg xmlns="http://www.w3.org/2000/svg" viewBox="0 0 100 100">
            <path d="M23.1717 16.4152C23.6917 17.0152 24.5617 17.0752 25.2917 16.3052C27.0617 14.3652 27.9217 11.4652 27.9217 8.4252C27.9217 5.4152 26.9417 2.4252 25.2917 0.5652C24.5817 -0.2148 23.7117 -0.1248 23.1717 0.4552C22.6617 0.9952 22.7617 1.7152 23.2617 2.2852C24.5717 3.8352 25.2817 6.0552 25.2817 8.4252C25.2817 10.8052 24.5417 13.0352 23.2617 14.5752C22.7717 15.1652 22.6717 15.8752 23.1717 16.4152ZM10.0317 13.7852C12.7417 13.7852 14.8817 11.4352 14.8817 8.4852C14.8817 5.6452 12.7117 3.2852 10.0317 3.2852C7.3617 3.2852 5.1817 5.6552 5.1817 8.4952C5.1817 11.4352 7.3317 13.7852 10.0317 13.7852ZM18.9817 13.1052C19.4617 13.6852 20.4117 13.6852 21.0717 12.9852C21.9917 11.9552 22.4717 10.2352 22.4717 8.4252C22.4717 6.6352 21.9917 4.9052 21.0717 3.8652C20.4117 3.1652 19.4617 3.1752 18.9817 3.7752C18.5117 4.3152 18.5817 5.0052 19.0117 5.5852C19.4617 6.2452 19.8317 7.4252 19.8317 8.4252C19.8317 9.4352 19.4617 10.6052 19.0117 11.2652C18.5717 11.8452 18.5117 12.5552 18.9817 13.1052ZM2.9017 24.8452H17.1517C19.3517 24.8452 20.0617 24.0852 20.0617 22.8552C20.0617 19.8752 16.1017 15.7952 10.0317 15.7952C3.9617 15.7952 0.0017 19.8752 0.0017 22.8552C0.0017 24.0852 0.7117 24.8452 2.9017 24.8452Z" />
        </svg>
    