
        <svg xmlns="http://www.w3.org/2000/svg" viewBox="0 0 100 100">
            <path d="M12.1023 24.2064C18.7823 24.2064 24.2123 18.7864 24.2123 12.1064C24.2123 5.4264 18.7823 -0.0036 12.1023 -0.0036C5.4223 -0.0036 0.0023 5.4264 0.0023 12.1064C0.0023 18.7864 5.4223 24.2064 12.1023 24.2064ZM12.1023 14.0264C9.8123 14.0164 8.0323 12.0964 8.0323 9.5664C8.0123 7.1764 9.8223 5.1764 12.1023 5.1764C14.3823 5.1764 16.1723 7.1764 16.1723 9.5664C16.1723 12.0964 14.3923 14.0464 12.1023 14.0264ZM12.1023 22.2264C9.4823 22.2264 6.6923 21.1364 4.9223 19.2264C6.2623 17.2164 8.9423 16.0564 12.1023 16.0564C15.2323 16.0564 17.9323 17.1864 19.2823 19.2264C17.5123 21.1364 14.7323 22.2264 12.1023 22.2264Z" />
        </svg>
    