
        <svg xmlns="http://www.w3.org/2000/svg" viewBox="0 0 100 100">
            <path d="M13.2109 9.9948C15.7909 9.9948 17.7409 7.8048 17.7409 4.9448C17.7409 2.2748 15.7409 0.0048 13.2109 0.0048C10.6809 0.0048 8.6809 2.2748 8.6809 4.9448C8.6809 7.8048 10.6409 9.9948 13.2109 9.9948ZM19.3109 4.9448C19.3109 5.0948 19.4409 5.2348 19.6109 5.2348H22.7509V7.0348C22.7509 7.4448 23.2009 7.6048 23.5409 7.3448L26.1209 5.3948C26.4309 5.1548 26.4109 4.7248 26.1209 4.5048L23.5409 2.5448C23.2009 2.2848 22.7509 2.4448 22.7509 2.8548V4.6548H19.6109C19.4409 4.6548 19.3109 4.7948 19.3109 4.9448ZM0.2209 5.3948L2.8009 7.3448C3.1409 7.6048 3.6009 7.4448 3.6009 7.0348V5.2348H6.7509C6.9009 5.2348 7.0309 5.0948 7.0309 4.9448C7.0309 4.7948 6.9009 4.6548 6.7509 4.6548H3.6009V2.8548C3.6009 2.4448 3.1409 2.2848 2.8009 2.5448L0.2209 4.5048C-0.0691 4.7248 -0.0791 5.1548 0.2209 5.3948ZM5.0609 20.5148H21.2909C22.2409 20.5148 22.8909 19.9848 22.8909 19.1948C22.8909 16.2148 19.1609 12.1048 13.1809 12.1048C7.2009 12.1048 3.4709 16.2148 3.4709 19.1948C3.4709 19.9848 4.1109 20.5148 5.0609 20.5148Z" />
        </svg>
    