
        <svg xmlns="http://www.w3.org/2000/svg" viewBox="0 0 100 100">
            <path d="M15.6709 10.2847C18.2209 10.2847 20.3909 8.0047 20.3909 5.0747C20.3909 2.1947 18.2109 0.0047 15.6709 0.0047C13.1309 0.0047 10.9509 2.2347 10.9509 5.0947C10.9509 8.0047 13.1109 10.2847 15.6709 10.2847ZM22.2809 5.0947C22.2809 5.6447 22.7209 6.0847 23.2709 6.0847H26.2609V7.5347C26.2609 8.3747 27.0809 8.6847 27.7609 8.1647L30.9909 5.7547C31.4309 5.4247 31.4309 4.8047 30.9909 4.4647L27.7609 2.0347C27.0909 1.5347 26.2609 1.8047 26.2609 2.6947V4.1147H23.2709C22.7209 4.1147 22.2809 4.5447 22.2809 5.0947ZM0.3309 5.7547L3.5609 8.1647C4.2409 8.6847 5.0609 8.3747 5.0609 7.5347V6.0847H8.0509C8.6009 6.0847 9.0409 5.6447 9.0409 5.0947C9.0409 4.5447 8.6009 4.1147 8.0509 4.1147H5.0609V2.6947C5.0609 1.8047 4.2209 1.5347 3.5609 2.0347L0.3309 4.4647C-0.0991 4.8047 -0.1191 5.4247 0.3309 5.7547ZM7.8609 21.1747H23.4609C24.7709 21.1747 25.5609 20.5547 25.5609 19.5247C25.5609 16.5147 21.7409 12.3647 15.6709 12.3647C9.5909 12.3647 5.7709 16.5147 5.7709 19.5247C5.7709 20.5547 6.5509 21.1747 7.8609 21.1747Z" />
        </svg>
    