
        <svg xmlns="http://www.w3.org/2000/svg" viewBox="0 0 100 100">
            <path d="M4.6017 1.6008H16.1917C16.1117 0.5608 15.4917 0.0008 14.3517 0.0008H6.4317C5.3017 0.0008 4.6717 0.5608 4.6017 1.6008ZM2.5917 5.0108H18.2017C18.0317 3.9008 17.4717 3.2608 16.2217 3.2608H4.5717C3.3117 3.2608 2.7517 3.9008 2.5917 5.0108ZM3.8417 27.7508H17.3217C19.5617 27.7508 20.8717 26.4408 20.8717 23.9408V10.6708C20.8717 8.1808 19.5617 6.8808 17.0317 6.8808H3.8417C1.3117 6.8808 0.0017 8.1708 0.0017 10.6708V23.9408C0.0017 26.4508 1.3117 27.7508 3.8417 27.7508ZM13.8917 18.9108C12.4917 18.9108 11.3217 17.6808 11.3217 16.1008C11.3117 14.5408 12.5117 13.3408 13.9017 13.3408C15.2817 13.3408 16.4517 14.5208 16.4517 16.0908C16.4517 17.6808 15.2817 18.9108 13.8917 18.9108ZM6.5117 19.0708C5.3117 19.0708 4.2817 18.0008 4.2817 16.6008C4.2617 15.2508 5.3117 14.2008 6.5117 14.2008C7.7217 14.2008 8.7517 15.2308 8.7517 16.5908C8.7517 18.0008 7.7317 19.0708 6.5117 19.0708ZM3.8817 25.5208C2.7417 25.5208 2.1817 24.9708 2.1817 23.8008V22.4408C2.8917 21.2208 4.4617 20.1408 6.5117 20.1408C7.5017 20.1408 8.2817 20.3808 9.0017 20.8108C7.8617 21.6708 7.1017 23.3208 7.1017 24.5508C7.1017 24.9408 7.1617 25.2808 7.3217 25.5208ZM9.1017 25.5208C8.8917 25.4908 8.5917 25.1608 8.5917 24.6008C8.5917 22.5208 10.6417 20.1708 13.8917 20.1708C16.0217 20.1708 17.8517 21.2308 18.7017 22.6908V23.8008C18.7017 24.9708 18.0217 25.5208 17.0117 25.5208Z" />
        </svg>
    