
        <svg xmlns="http://www.w3.org/2000/svg" viewBox="0 0 100 100">
            <path d="M12.2223 24.4436C18.9723 24.4436 24.4423 18.9736 24.4423 12.2236C24.4423 5.4736 18.9723 0.0036 12.2223 0.0036C5.4723 0.0036 0.0023 5.4736 0.0023 12.2236C0.0023 18.9736 5.4723 24.4436 12.2223 24.4436ZM12.2223 16.3136C9.0323 16.3136 6.5623 17.4236 5.2823 18.7736C3.6823 17.0636 2.6823 14.7636 2.6823 12.2236C2.6823 6.9536 6.9523 2.6836 12.2223 2.6836C17.4923 2.6836 21.7623 6.9536 21.7623 12.2236C21.7623 14.7636 20.7623 17.0636 19.1623 18.7736C17.8823 17.4236 15.4123 16.3136 12.2223 16.3136ZM12.2223 14.4236C14.4923 14.4536 16.2623 12.4936 16.2623 9.9836C16.2623 7.6336 14.4823 5.6336 12.2223 5.6336C9.9623 5.6336 8.1523 7.6336 8.1823 9.9836C8.1823 12.4936 9.9523 14.4136 12.2223 14.4236Z" />
        </svg>
    