
        <svg xmlns="http://www.w3.org/2000/svg" viewBox="0 0 100 100">
            <path d="M27.5117 24.4032C27.6317 24.5132 27.8217 24.5132 27.9217 24.4032C28.0617 24.2732 28.0417 24.1032 27.9217 23.9932L4.0317 0.0832C3.9217 -0.0068 3.7417 -0.0468 3.6117 0.0832C3.4917 0.2032 3.4917 0.3932 3.6117 0.5032ZM22.0617 11.1832C24.7017 11.1832 26.7217 8.9432 26.7217 6.0132C26.7217 3.2332 24.6217 0.9532 22.0617 0.9532C19.5017 0.9532 17.4217 3.2432 17.4217 6.0132C17.4217 8.9432 19.4417 11.1832 22.0617 11.1832ZM22.0617 10.6032C19.7717 10.6032 18.0017 8.6232 18.0017 6.0132C18.0017 3.5632 19.8117 1.5232 22.0617 1.5232C24.3017 1.5232 26.1417 3.5532 26.1417 6.0132C26.1417 8.6232 24.3717 10.6032 22.0617 10.6032ZM8.5817 11.4432C9.8717 11.4432 10.9817 10.8432 11.7117 9.8432L11.3117 9.4432C10.6717 10.3132 9.6917 10.8632 8.5817 10.8632C6.6117 10.8632 5.1117 9.1732 5.1117 6.9232C5.1117 5.8832 5.4817 4.9332 6.1017 4.2432L5.7117 3.8432C4.9817 4.6332 4.5317 5.7332 4.5317 6.9232C4.5317 9.4932 6.2817 11.4432 8.5817 11.4432ZM1.6317 21.7032H12.2017C12.0017 21.6032 11.7617 21.4032 11.6217 21.1432H1.6517C0.8717 21.1432 0.5717 20.8732 0.5717 20.1732C0.5717 16.5832 4.2117 13.5732 8.5517 13.5732C10.7417 13.5732 12.7117 14.2432 14.1817 15.5132C14.3217 15.3932 14.4617 15.2832 14.6017 15.1432C12.9717 13.7432 10.8717 13.0132 8.5517 13.0132C3.2817 13.0132 0.0017 16.8232 0.0017 20.1732C0.0017 21.2132 0.5417 21.7032 1.6317 21.7032ZM31.8617 20.2632C31.8617 17.2432 28.0817 13.0532 22.0417 13.0532C20.8317 13.0532 19.7117 13.2232 18.7017 13.5132L19.1517 13.9732C20.0317 13.7632 20.9917 13.6332 22.0217 13.6332C27.8217 13.6232 31.2917 17.4532 31.2917 20.2632C31.2917 20.8932 30.9817 21.1332 30.0017 21.1332H26.3217L26.8917 21.7032H29.9917C31.2617 21.7132 31.8617 21.2632 31.8617 20.2632ZM14.0717 21.7032H23.5617L22.9917 21.1332H14.0817C13.1017 21.1332 12.8017 20.8932 12.8017 20.2632C12.8017 18.4632 14.2217 16.2532 16.7617 14.8932L16.3517 14.4832C13.7317 15.9832 12.2217 18.3632 12.2217 20.2632C12.2217 21.2632 12.8117 21.7032 14.0717 21.7032Z" />
        </svg>
    