
        <svg xmlns="http://www.w3.org/2000/svg" viewBox="0 0 100 100">
            <path d="M12.7923 25.5978C19.8723 25.5978 25.6023 19.8678 25.6023 12.7978C25.6023 5.7278 19.8723 -0.0022 12.7923 -0.0022C5.7323 -0.0022 0.0023 5.7278 0.0023 12.7978C0.0023 19.8678 5.7323 25.5978 12.7923 25.5978ZM12.7923 21.4178C8.0323 21.4178 4.1723 17.5678 4.1723 12.7978C4.1723 8.0278 8.0323 4.1678 12.7923 4.1678C17.5623 4.1678 21.4323 8.0278 21.4323 12.7978C21.4323 17.5678 17.5623 21.4178 12.7923 21.4178ZM12.7923 8.4178C13.1923 8.4178 13.5923 8.4678 13.9723 8.5678L14.7923 6.5878C14.1523 6.3878 13.4923 6.2678 12.7923 6.2678C12.1123 6.2678 11.4423 6.3878 10.8123 6.5878L11.6323 8.5678C12.0123 8.4678 12.4123 8.4178 12.7923 8.4178ZM16.6123 10.6278L18.6023 9.8078C17.9623 8.6178 17.0023 7.6278 15.7923 7.0078L14.9623 8.9878C15.6723 9.3778 16.2323 9.9478 16.6123 10.6278ZM10.6323 8.9878L9.8123 7.0078C8.6023 7.6278 7.6423 8.6178 6.9923 9.8078L8.9723 10.6278C9.3623 9.9478 9.9423 9.3778 10.6323 8.9878ZM12.7923 14.1578C13.9923 14.1578 14.9023 13.1378 14.9023 11.8678C14.9023 10.6678 13.9823 9.6078 12.7923 9.6078C11.6223 9.6078 10.7023 10.6678 10.7023 11.8678C10.7023 13.1378 11.6123 14.1578 12.7923 14.1578ZM8.4123 12.7978C8.4123 12.3978 8.4723 12.0078 8.5623 11.6278L6.5823 10.8078C6.3723 11.4478 6.2823 12.1078 6.2823 12.7978C6.2823 13.4878 6.3723 14.1578 6.5823 14.7778L8.5623 13.9578C8.4723 13.5778 8.4123 13.2078 8.4123 12.7978ZM17.1923 12.7978C17.1923 13.2078 17.1323 13.5778 17.0323 13.9578L19.0123 14.7778C19.2323 14.1578 19.3223 13.4878 19.3223 12.7978C19.3223 12.1078 19.2323 11.4478 19.0123 10.8078L17.0323 11.6278C17.1323 12.0078 17.1923 12.3978 17.1923 12.7978ZM12.7923 19.3378C15.3123 19.3378 17.4823 17.9178 18.6123 15.7978L16.6123 14.9678C16.3823 15.3778 16.1223 15.7178 15.7923 16.0078C15.0723 15.3878 14.0623 14.9678 12.7923 14.9678C11.5423 14.9678 10.5323 15.3878 9.8123 16.0078C9.4823 15.7178 9.2223 15.3778 8.9723 14.9678L6.9923 15.7978C8.1123 17.9178 10.2923 19.3378 12.7923 19.3378Z" />
        </svg>
    