
        <svg xmlns="http://www.w3.org/2000/svg" viewBox="0 0 100 100">
            <path d="M5.4989 20.5375L6.1589 20.4275V22.0275C6.1589 23.8175 7.1089 24.7675 8.9089 24.7675H21.9289C23.7089 24.7675 24.6689 23.7875 24.6689 22.0275V9.0175C24.6689 7.2675 23.7089 6.2775 21.9289 6.2775H18.9789L18.2789 2.2975C17.9889 0.5575 16.8589 -0.2525 15.1089 0.0675L2.2889 2.3275C0.5289 2.6375 -0.2511 3.7475 0.0689 5.5075L2.3189 18.3275C2.6389 20.0875 3.7389 20.8575 5.4989 20.5375ZM2.8789 18.1975L0.6389 5.4375C0.3889 4.0175 0.9789 3.1475 2.4089 2.8875L15.1789 0.6375C16.5489 0.4075 17.4589 0.9975 17.7189 2.4275L18.4089 6.2775H8.9089C7.1089 6.2775 6.1589 7.2275 6.1589 9.0175V19.8375L5.4289 19.9675C4.0089 20.2275 3.1389 19.6275 2.8789 18.1975ZM6.7389 22.0075V9.0475C6.7389 7.5975 7.4889 6.8475 8.9289 6.8475H21.8889C23.2989 6.8475 24.0789 7.5975 24.0789 9.0475V22.0075C24.0789 23.0875 23.6389 23.7775 22.8289 24.0575C22.4489 21.2675 19.1989 18.6375 15.4289 18.6375C11.6589 18.6375 8.3989 21.2775 8.0289 24.0775C7.1689 23.8075 6.7389 23.1075 6.7389 22.0075ZM15.4089 16.9975C17.3889 16.9975 18.9589 15.3275 18.9589 13.1375C18.9589 11.0475 17.3889 9.3275 15.4089 9.3275C13.4389 9.3275 11.8689 11.0475 11.8689 13.1375C11.8689 15.3275 13.4389 16.9975 15.4089 16.9975Z" />
        </svg>
    