
        <svg xmlns="http://www.w3.org/2000/svg" viewBox="0 0 100 100">
            <path d="M3.1617 20.742H24.0317C26.1117 20.742 27.1917 19.642 27.1917 17.592V3.152C27.1917 1.102 26.1117 0.002 24.0317 0.002H3.1617C1.0917 0.002 0.0017 1.082 0.0017 3.152V17.592C0.0017 19.662 1.0917 20.742 3.1617 20.742ZM3.1917 19.872C1.6617 19.872 0.8717 19.082 0.8717 17.552V3.202C0.8717 1.662 1.6617 0.872 3.1917 0.872H24.0017C25.4717 0.872 26.3217 1.662 26.3217 3.202V17.552C26.3217 19.082 25.4717 19.872 24.0017 19.872ZM8.3817 10.262C9.8517 10.262 11.0417 9.032 11.0417 7.362C11.0417 5.812 9.8517 4.502 8.3817 4.502C6.9017 4.502 5.7117 5.812 5.7117 7.362C5.7117 9.032 6.9017 10.262 8.3817 10.262ZM16.3117 5.692H23.1717C23.3917 5.692 23.5617 5.522 23.5617 5.312C23.5617 5.102 23.3917 4.922 23.1717 4.922H16.3117C16.0917 4.922 15.9117 5.102 15.9117 5.312C15.9117 5.522 16.0917 5.692 16.3117 5.692ZM16.3117 10.782H23.1717C23.3917 10.782 23.5617 10.602 23.5617 10.392C23.5617 10.182 23.3917 10.012 23.1717 10.012H16.3117C16.0917 10.012 15.9117 10.182 15.9117 10.392C15.9117 10.602 16.0917 10.782 16.3117 10.782ZM3.3717 15.872H13.3817C13.6417 15.872 13.7317 15.712 13.7317 15.452C13.7317 14.282 12.0217 11.122 8.3817 11.122C4.7317 11.122 3.0217 14.282 3.0217 15.452C3.0217 15.712 3.1217 15.872 3.3717 15.872ZM16.3117 15.872H23.1717C23.3917 15.872 23.5617 15.702 23.5617 15.482C23.5617 15.272 23.3917 15.092 23.1717 15.092H16.3117C16.0917 15.092 15.9117 15.272 15.9117 15.482C15.9117 15.702 16.0917 15.872 16.3117 15.872Z" />
        </svg>
    