
        <svg xmlns="http://www.w3.org/2000/svg" viewBox="0 0 100 100">
            <path d="M4.6017 1.6852H16.3717C16.2917 0.5952 15.6217 -0.0048 14.4517 -0.0048H6.5317C5.3517 -0.0048 4.7017 0.5952 4.6017 1.6852ZM2.6117 5.2152H18.3617C18.2017 4.0652 17.6017 3.3852 16.2917 3.3852H4.7017C3.3717 3.3852 2.7817 4.0652 2.6117 5.2152ZM3.9717 28.1752H17.4017C19.7417 28.1752 21.1217 26.8052 21.1217 24.2352V10.9952C21.1217 8.4252 19.7317 7.0552 17.1417 7.0552H3.9717C1.3817 7.0552 0.0017 8.4152 0.0017 10.9952V24.2352C0.0017 26.8052 1.3817 28.1752 3.9717 28.1752ZM6.8317 20.5752C4.9117 20.5752 3.3717 21.5552 2.6117 22.7552V11.2652C2.6117 10.1852 3.1617 9.6652 4.1917 9.6652H16.9217C17.9417 9.6652 18.5017 10.1852 18.5017 11.2652V22.3752C17.5917 21.3652 16.1017 20.6052 14.2017 20.6052C10.9017 20.6052 8.8117 22.9252 8.8117 24.7652C8.8117 25.1052 8.8817 25.3752 9.0017 25.5552H7.5317C7.4517 25.3052 7.4217 25.0152 7.4217 24.7252C7.4217 23.4252 8.0517 22.1252 9.1517 21.1252C8.5417 20.7752 7.7617 20.5752 6.8317 20.5752ZM14.2017 19.3052C15.6117 19.3052 16.7717 18.0552 16.7717 16.4652C16.7717 14.9052 15.6017 13.6952 14.2017 13.6952C12.8117 13.6952 11.6217 14.9252 11.6217 16.4752C11.6417 18.0552 12.8017 19.3052 14.2017 19.3052ZM6.8317 19.4452C8.0617 19.4452 9.0817 18.3652 9.0817 16.9852C9.0817 15.6252 8.0517 14.5752 6.8317 14.5752C5.6217 14.5752 4.5917 15.6352 4.5917 16.9852C4.5917 18.3652 5.6117 19.4452 6.8317 19.4452Z" />
        </svg>
    