
        <svg xmlns="http://www.w3.org/2000/svg" viewBox="0 0 100 100">
            <path d="M3.8417 21.8628H23.9217C26.4517 21.8628 27.7617 20.5628 27.7617 18.0728V3.7928C27.7617 1.3028 26.4517 0.0028 23.9217 0.0028H3.8417C1.3117 0.0028 0.0017 1.2928 0.0017 3.7928V18.0728C0.0017 20.5628 1.3117 21.8628 3.8417 21.8628ZM13.8917 12.9828C11.6517 12.9628 9.9117 11.0928 9.9017 8.6228C9.8917 6.2928 11.6617 4.3428 13.8917 4.3428C16.1117 4.3428 17.8717 6.2928 17.8717 8.6228C17.8717 11.0928 16.1217 12.9928 13.8917 12.9828ZM6.2617 19.6828C7.1917 16.8828 10.2317 14.8928 13.8917 14.8928C17.5417 14.8928 20.5817 16.8828 21.5117 19.6828Z" />
        </svg>
    