
        <svg xmlns="http://www.w3.org/2000/svg" viewBox="0 0 100 100">
            <path d="M12.1023 24.2064C18.7823 24.2064 24.2123 18.7864 24.2123 12.1064C24.2123 5.4264 18.7823 -0.0036 12.1023 -0.0036C5.4223 -0.0036 0.0023 5.4264 0.0023 12.1064C0.0023 18.7864 5.4223 24.2064 12.1023 24.2064ZM12.1023 21.8164C6.7223 21.8164 2.3823 17.4864 2.3823 12.1064C2.3823 6.7264 6.7223 2.3764 12.1023 2.3764C17.4823 2.3764 21.8323 6.7264 21.8323 12.1064C21.8323 17.4864 17.4823 21.8164 12.1023 21.8164ZM15.0323 11.5164C16.2423 11.5164 17.2623 10.4264 17.2623 9.0364C17.2623 7.6764 16.2323 6.6364 15.0323 6.6364C13.8123 6.6364 12.7823 7.6964 12.7823 9.0464C12.7823 10.4264 13.8023 11.5164 15.0323 11.5164ZM8.5923 11.6364C9.6523 11.6364 10.5423 10.6964 10.5423 9.4764C10.5423 8.2964 9.6423 7.3864 8.5923 7.3864C7.5423 7.3864 6.6423 8.3164 6.6423 9.4964C6.6423 10.6964 7.5323 11.6364 8.5923 11.6364ZM5.5223 16.6864H9.7023C9.1123 15.8364 9.7723 14.1564 11.0123 13.1864C10.3923 12.7864 9.6023 12.4964 8.5923 12.4964C6.1023 12.4964 4.5023 14.3164 4.5023 15.8364C4.5023 16.3664 4.7823 16.6864 5.5223 16.6864ZM11.5523 16.6864H18.4823C19.4023 16.6864 19.7123 16.4064 19.7123 15.8864C19.7123 14.4764 17.9023 12.5064 15.0323 12.5064C12.1323 12.5064 10.3123 14.4764 10.3123 15.8864C10.3123 16.4064 10.6423 16.6864 11.5523 16.6864Z" />
        </svg>
    