
        <svg xmlns="http://www.w3.org/2000/svg" viewBox="0 0 100 100">
            <path d="M29.6017 27.014C30.0017 27.404 30.6717 27.394 31.0517 26.994C31.4417 26.584 31.4617 25.944 31.0517 25.534L5.8117 0.304C5.4017 -0.106 4.7417 -0.096 4.3317 0.304C3.9517 0.694 3.9517 1.374 4.3317 1.754ZM23.0117 12.874C25.9917 12.874 28.3617 10.314 28.3617 7.114C28.3617 3.994 25.9617 1.454 23.0117 1.454C20.0817 1.454 17.6817 4.004 17.6817 7.124C17.6817 10.324 20.0517 12.874 23.0117 12.874ZM23.0117 10.014C21.6917 10.014 20.5817 8.774 20.5817 7.114C20.5817 5.554 21.7117 4.304 23.0117 4.304C24.3417 4.304 25.4617 5.544 25.4617 7.114C25.4617 8.764 24.3617 10.014 23.0117 10.014ZM9.1917 13.074C10.3117 13.074 11.3417 12.654 12.1417 11.944L10.1517 9.934C9.8817 10.144 9.5517 10.274 9.1917 10.274C8.1717 10.274 7.3117 9.304 7.3117 8.004C7.3117 7.744 7.3617 7.474 7.4617 7.264L5.3717 5.154C4.8317 5.964 4.5017 6.944 4.5017 8.004C4.5017 10.834 6.5817 13.074 9.1917 13.074ZM33.5317 21.484C33.5317 17.834 29.0817 13.964 23.0117 13.964C22.6317 13.964 22.2517 13.994 21.9017 14.024L24.9417 17.064C25.0417 17.054 25.1117 17.064 25.2317 17.074C28.4217 17.674 30.2217 19.694 30.2217 20.854C30.2217 20.984 30.1617 21.084 29.9717 21.084H28.9717L31.6217 23.734L31.8417 23.714C32.9617 23.394 33.5317 22.654 33.5317 21.484ZM2.9517 23.944H11.7517C10.8717 23.394 10.4417 22.124 10.5517 21.124H3.3517C3.1717 21.124 3.1317 21.034 3.1317 20.914C3.1317 18.894 5.8017 16.754 9.1917 16.754C10.0117 16.754 11.2817 17.004 11.9517 17.274C12.4017 16.404 13.0617 15.674 14.0517 15.104C12.6517 14.414 10.6917 13.964 9.1917 13.964C4.1017 13.964 0.0017 17.444 0.0017 21.334C0.0017 23.014 0.9717 23.944 2.9517 23.944ZM15.8917 23.924H24.1517L21.2917 21.084H16.0517C15.8717 21.084 15.8217 20.984 15.8217 20.854C15.8217 20.074 16.6617 18.874 18.2117 17.984L16.1117 15.904C13.8617 17.364 12.5017 19.474 12.5017 21.484C12.5017 23.134 13.6417 23.924 15.8917 23.924Z" />
        </svg>
    