
        <svg xmlns="http://www.w3.org/2000/svg" viewBox="0 0 100 100">
            <path d="M1.1017 2.208H27.2617C27.8817 2.208 28.3617 1.718 28.3617 1.098C28.3617 0.478 27.8817 -0.002 27.2617 -0.002H1.1017C0.4817 -0.002 0.0017 0.478 0.0017 1.098C0.0017 1.718 0.4817 2.208 1.1017 2.208ZM14.1817 13.168C16.3917 13.168 18.3617 11.148 18.3617 8.558C18.3617 5.978 16.3917 4.098 14.1817 4.098C11.9617 4.098 9.9917 6.028 9.9917 8.588C9.9917 11.148 11.9617 13.168 14.1817 13.168ZM1.1017 7.128H8.4817C8.6617 6.308 8.9917 5.558 9.4417 4.918H1.1017C0.4817 4.918 0.0017 5.398 0.0017 6.028C0.0017 6.648 0.4817 7.128 1.1017 7.128ZM19.8917 7.128H27.2617C27.8817 7.128 28.3617 6.648 28.3617 6.028C28.3617 5.398 27.8817 4.918 27.2617 4.918H18.9417C19.3917 5.558 19.7217 6.288 19.8917 7.128ZM1.1017 12.048H9.2817C8.8617 11.388 8.5617 10.648 8.4217 9.848H1.1017C0.4817 9.848 0.0017 10.328 0.0017 10.948C0.0017 11.568 0.4817 12.048 1.1017 12.048ZM19.0617 12.048H27.2617C27.8817 12.048 28.3617 11.568 28.3617 10.948C28.3617 10.328 27.8817 9.848 27.2617 9.848H19.9317C19.7917 10.648 19.5017 11.388 19.0617 12.048ZM8.1017 22.168H20.2617C22.0817 22.168 22.6417 21.628 22.6417 20.698C22.6417 18.098 19.4017 14.498 14.1817 14.498C8.9517 14.498 5.7217 18.098 5.7217 20.698C5.7217 21.628 6.2817 22.168 8.1017 22.168ZM1.1017 16.968H5.3817C5.9417 16.158 6.6917 15.388 7.6317 14.758H1.1017C0.4817 14.758 0.0017 15.248 0.0017 15.868C0.0017 16.488 0.4817 16.968 1.1017 16.968ZM22.9817 16.968H27.2617C27.8817 16.968 28.3617 16.488 28.3617 15.868C28.3617 15.248 27.8817 14.758 27.2617 14.758H20.7317C21.6717 15.388 22.4217 16.158 22.9817 16.968ZM1.1017 21.888H4.2217C3.9417 21.178 3.9817 20.378 4.1417 19.678H1.1017C0.4817 19.678 0.0017 20.168 0.0017 20.788C0.0017 21.408 0.4817 21.888 1.1017 21.888ZM24.1417 21.888H27.2617C27.8817 21.888 28.3617 21.408 28.3617 20.788C28.3617 20.168 27.8817 19.678 27.2617 19.678H24.2217C24.3717 20.378 24.4217 21.178 24.1417 21.888Z" />
        </svg>
    