
        <svg xmlns="http://www.w3.org/2000/svg" viewBox="0 0 100 100">
            <path d="M3.4617 21.2264H17.7617C20.0517 21.2264 21.2217 20.0464 21.2217 17.7964V3.4264C21.2217 1.1764 20.0517 -0.0036 17.7617 -0.0036H3.4617C1.1717 -0.0036 0.0017 1.1564 0.0017 3.4264V17.7964C0.0017 20.0664 1.1717 21.2264 3.4617 21.2264ZM1.4517 17.7164V3.5064C1.4517 2.1464 2.1717 1.4564 3.4817 1.4564H17.7317C19.0317 1.4564 19.7717 2.1464 19.7717 3.5064V17.7164C19.7717 18.7364 19.3517 19.3864 18.5817 19.6364C17.7417 16.6864 14.4917 14.4064 10.6317 14.4064C6.7517 14.4064 3.4917 16.6864 2.6517 19.6564C1.8617 19.4064 1.4517 18.7464 1.4517 17.7164ZM10.6217 12.4564C12.8317 12.4664 14.5817 10.5964 14.5817 8.1164C14.5817 5.7764 12.8317 3.8564 10.6217 3.8564C8.4017 3.8564 6.6417 5.7764 6.6417 8.1164C6.6517 10.5964 8.4017 12.4464 10.6217 12.4564Z" />
        </svg>
    