
        <svg xmlns="http://www.w3.org/2000/svg" viewBox="0 0 100 100">
            <path d="M10.5917 11.5981C13.6317 11.5981 16.0217 9.0281 16.0217 5.7681C16.0217 2.6181 13.5817 -0.0019 10.5917 -0.0019C7.6217 -0.0019 5.1517 2.6181 5.1817 5.7681C5.1917 9.0281 7.5717 11.5981 10.5917 11.5981ZM24.4917 11.5981C27.5317 11.5981 29.9017 9.0281 29.9017 5.7681C29.9017 2.6181 27.4717 -0.0019 24.4917 -0.0019C21.5117 -0.0019 19.0517 2.6181 19.0617 5.7681C19.0817 9.0281 21.4617 11.5981 24.4917 11.5981ZM38.3917 11.5981C41.4217 11.5981 43.8117 9.0281 43.8117 5.7681C43.8117 2.6181 41.3817 -0.0019 38.3917 -0.0019C35.4117 -0.0019 32.9617 2.6181 32.9717 5.7681C32.9917 9.0281 35.3717 11.5981 38.3917 11.5981ZM10.6017 8.4181C9.4017 8.4181 8.3817 7.2981 8.3817 5.7581C8.3817 4.3381 9.4317 3.1881 10.6017 3.1881C11.8017 3.1881 12.8317 4.3381 12.8317 5.7681C12.8317 7.2781 11.8317 8.4181 10.6017 8.4181ZM24.4917 8.4181C23.2717 8.4181 22.2517 7.2981 22.2517 5.7581C22.2517 4.3381 23.3117 3.1881 24.4917 3.1881C25.6717 3.1881 26.7117 4.3381 26.7117 5.7681C26.7117 7.2781 25.7217 8.4181 24.4917 8.4181ZM38.4117 8.4181C37.1917 8.4181 36.1717 7.2981 36.1717 5.7581C36.1717 4.3381 37.2317 3.1881 38.4117 3.1881C39.6017 3.1881 40.6317 4.3381 40.6317 5.7681C40.6317 7.2781 39.6317 8.4181 38.4117 8.4181ZM3.5417 22.7181H17.6617C20.0017 22.7181 21.2017 21.8681 21.2017 20.0981C21.2017 16.2781 16.5817 12.5781 10.5917 12.5781C4.6217 12.5781 0.0017 16.2781 0.0017 20.0981C0.0017 21.8681 1.1917 22.7181 3.5417 22.7181ZM24.4917 12.5781C22.7817 12.5781 21.2017 12.8781 19.7717 13.4081C20.7417 14.1681 21.5617 15.0481 22.1617 16.0281C22.8617 15.8681 23.6517 15.7781 24.4917 15.7781C28.7717 15.7781 31.3317 18.1281 31.3317 19.3481C31.3317 19.4381 31.3017 19.5381 31.1617 19.5381H23.3517C23.4417 20.6881 23.3017 21.7781 22.6617 22.7181H31.5517C33.8917 22.7181 35.0817 21.8681 35.0817 20.0981C35.0817 16.2781 30.4717 12.5781 24.4917 12.5781ZM38.3917 12.5781C36.6817 12.5781 35.0817 12.8781 33.6817 13.4081C34.6417 14.1681 35.4617 15.0481 36.0517 16.0281C36.7617 15.8681 37.5517 15.7781 38.3917 15.7781C42.6817 15.7781 45.2417 18.1281 45.2417 19.3481C45.2417 19.4381 45.2117 19.5381 45.0617 19.5381H37.2517C37.3317 20.6881 37.1817 21.7781 36.5617 22.7181H45.4617C47.8017 22.7181 48.9917 21.8681 48.9917 20.0981C48.9917 16.2781 44.3817 12.5781 38.3917 12.5781ZM3.9217 19.5381C3.7817 19.5381 3.7517 19.4381 3.7517 19.3481C3.7517 18.1281 6.3117 15.7781 10.5917 15.7781C14.8717 15.7781 17.4517 18.1281 17.4517 19.3481C17.4517 19.4381 17.4117 19.5381 17.2617 19.5381Z" />
        </svg>
    