
        <svg xmlns="http://www.w3.org/2000/svg" viewBox="0 0 100 100">
            <path d="M12.2223 24.4419C18.9723 24.4419 24.4423 18.9719 24.4423 12.2219C24.4423 5.4819 18.9723 0.0019 12.2223 0.0019C5.4823 0.0019 0.0023 5.4819 0.0023 12.2219C0.0023 18.9719 5.4823 24.4419 12.2223 24.4419ZM12.2223 11.7919C10.5223 11.7819 9.1423 10.3519 9.1423 8.4219C9.1423 6.6319 10.5223 5.1419 12.2223 5.1419C13.9223 5.1419 15.3023 6.6319 15.3023 8.4219C15.3023 10.3519 13.9223 11.8019 12.2223 11.7919ZM6.9523 18.3019C6.3723 18.3019 6.0923 17.9019 6.0923 17.4019C6.0923 16.0919 8.0023 12.7219 12.2223 12.7219C16.4423 12.7219 18.3523 16.0919 18.3523 17.4019C18.3523 17.9019 18.0823 18.3019 17.5123 18.3019Z" />
        </svg>
    