
        <svg xmlns="http://www.w3.org/2000/svg" viewBox="0 0 100 100">
            <path d="M4.7717 1.6648H19.6517C19.5717 0.5848 18.9117 0.0048 17.7617 0.0048H6.6517C5.5117 0.0048 4.8517 0.5848 4.7717 1.6648ZM2.4017 5.1448H22.0217C21.8717 4.0048 21.2717 3.3348 19.9717 3.3348H4.4517C3.1517 3.3348 2.5617 4.0048 2.4017 5.1448ZM3.8317 26.4948H20.5817C23.0817 26.4948 24.4117 25.1748 24.4117 22.6848V10.8748C24.4117 8.4048 23.0817 7.0648 20.5817 7.0648H3.8317C1.3217 7.0648 0.0017 8.3948 0.0017 10.8748V22.6848C0.0017 25.1748 1.3217 26.4948 3.8317 26.4948ZM12.2417 18.5248C10.2617 18.5148 8.7417 16.8648 8.7317 14.6948C8.7317 12.6448 10.2817 10.9348 12.2417 10.9348C14.2017 10.9348 15.7517 12.6448 15.7517 14.6948C15.7517 16.8648 14.2217 18.5548 12.2417 18.5248ZM5.6817 24.0148C6.6117 21.7048 9.1717 20.1048 12.2417 20.1048C15.3017 20.1048 17.8717 21.7048 18.8117 24.0148Z" />
        </svg>
    