
        <svg xmlns="http://www.w3.org/2000/svg" viewBox="0 0 100 100">
            <path d="M21.657 22.675C21.937 22.945 22.387 22.945 22.657 22.655C22.937 22.375 22.927 21.945 22.657 21.675L1.197 0.205C0.927 -0.065 0.487 -0.075 0.207 0.205C-0.063 0.475 -0.063 0.935 0.207 1.195ZM11.017 2.325C12.927 2.325 14.497 4.025 14.497 6.205C14.497 7.705 13.807 8.985 12.777 9.675L13.777 10.675C15.087 9.725 15.937 8.085 15.937 6.205C15.937 3.285 13.737 0.955 11.017 0.955C9.177 0.955 7.587 2.045 6.757 3.655L7.817 4.715C8.337 3.305 9.577 2.325 11.017 2.325ZM17.847 20.975H3.077C2.547 20.975 2.357 20.835 2.357 20.465C2.357 18.245 5.497 14.575 11.007 14.575C11.157 14.575 11.307 14.575 11.467 14.575L10.127 13.245C4.397 13.615 0.907 17.705 0.907 20.605C0.907 21.795 1.727 22.345 3.447 22.345H18.567C18.797 22.345 18.997 22.315 19.197 22.305Z" />
        </svg>
    