
        <svg xmlns="http://www.w3.org/2000/svg" viewBox="0 0 100 100">
            <path d="M11.4923 22.9836C17.8123 22.9836 22.9823 17.8136 22.9823 11.4836C22.9823 5.1536 17.8123 0.0036 11.4923 0.0036C5.1723 0.0036 0.0023 5.1536 0.0023 11.4836C0.0023 17.8136 5.1723 22.9836 11.4923 22.9836ZM11.4923 11.2836C9.8323 11.2736 8.4923 9.8936 8.4923 8.0136C8.4923 6.2736 9.8323 4.8136 11.4923 4.8136C13.1523 4.8136 14.4823 6.2736 14.4823 8.0136C14.4823 9.8936 13.1523 11.2836 11.4923 11.2836ZM5.8923 17.5636C5.5923 17.5636 5.4823 17.3936 5.4823 17.0936C5.4823 15.7736 7.3923 12.2336 11.4923 12.2336C15.5823 12.2336 17.5123 15.7736 17.5123 17.0936C17.5123 17.3936 17.4023 17.5636 17.1023 17.5636Z" />
        </svg>
    