
        <svg xmlns="http://www.w3.org/2000/svg" viewBox="0 0 100 100">
            <path d="M4.5917 23.2425H23.7217C26.6117 23.2425 28.3117 21.5425 28.3117 18.6425V4.5925C28.3117 1.6825 26.6117 0.0025 23.7217 0.0025H4.5917C1.7017 0.0025 0.0017 1.6825 0.0017 4.5925V18.6425C0.0017 21.5425 1.7017 23.2425 4.5917 23.2425ZM14.1717 14.1025C11.9417 14.1025 10.2917 12.2325 10.2917 9.8925C10.2917 7.6725 11.9917 5.7325 14.1717 5.7325C16.3317 5.7325 18.0317 7.6725 18.0317 9.8925C18.0317 12.2325 16.3817 14.1125 14.1717 14.1025ZM7.7717 19.1025C8.9217 17.0825 11.3517 15.7825 14.1717 15.7825C16.9717 15.7825 19.4017 17.0825 20.5617 19.1025Z" />
        </svg>
    