
        <svg xmlns="http://www.w3.org/2000/svg" viewBox="0 0 100 100">
            <path d="M13.7038 10.3675C16.3738 10.3675 18.4538 8.0775 18.4538 5.1175C18.4538 2.2975 16.3138 -0.0025 13.7038 -0.0025C11.0938 -0.0025 8.9738 2.3175 8.9738 5.1375C8.9738 8.0775 11.0438 10.3675 13.7038 10.3675ZM13.7038 9.5275C11.5338 9.5275 9.8338 7.6175 9.8338 5.1375C9.8338 2.7775 11.5738 0.8475 13.7038 0.8475C15.8338 0.8475 17.5738 2.7575 17.5738 5.1175C17.5738 7.6175 15.8838 9.5275 13.7038 9.5275ZM19.9138 5.1175C19.9138 5.3675 20.1038 5.5575 20.3438 5.5575H23.4538V7.2775C23.4538 7.7775 23.9938 7.9675 24.4038 7.6475L27.0938 5.6175C27.4338 5.3575 27.4238 4.8875 27.0938 4.6375L24.4038 2.5975C23.9938 2.2975 23.4538 2.4775 23.4538 2.9775V4.6975H20.3438C20.1038 4.6975 19.9138 4.8875 19.9138 5.1175ZM0.2538 5.6175L2.9538 7.6475C3.3638 7.9675 3.8938 7.7775 3.8938 7.2775V5.5575H7.0138C7.2438 5.5575 7.4438 5.3675 7.4438 5.1175C7.4438 4.8875 7.2438 4.6975 7.0138 4.6975H3.8938V2.9775C3.8938 2.4775 3.3538 2.2975 2.9538 2.5975L0.2538 4.6375C-0.0762 4.8875 -0.0862 5.3575 0.2538 5.6175ZM5.8538 20.9675H21.5238C22.9238 20.9675 23.5938 20.4875 23.5938 19.4275C23.5938 16.3975 19.7938 12.1475 13.6838 12.1475C7.5738 12.1475 3.7638 16.3975 3.7638 19.4275C3.7638 20.4875 4.4338 20.9675 5.8538 20.9675ZM5.7338 20.1175C4.9038 20.1175 4.6438 19.9175 4.6438 19.3875C4.6438 16.7675 7.9938 12.9975 13.6838 12.9975C19.3738 12.9975 22.7238 16.7675 22.7238 19.3875C22.7238 19.9175 22.4738 20.1175 21.6338 20.1175Z" />
        </svg>
    