
        <svg xmlns="http://www.w3.org/2000/svg" viewBox="0 0 100 100">
            <path d="M27.5017 24.4106C27.6217 24.5306 27.8117 24.5306 27.9217 24.4106C28.0517 24.2806 28.0317 24.1106 27.9217 23.9906L4.0217 0.0806C3.9117 -0.0094 3.7217 -0.0494 3.6017 0.0806C3.4817 0.2006 3.4817 0.3906 3.6017 0.5106ZM21.9617 11.0806C24.5317 11.0806 26.4817 8.8706 26.4817 6.0106C26.4817 3.3406 24.4817 1.0706 21.9617 1.0706C19.4317 1.0706 17.4217 3.3406 17.4217 6.0106C17.4217 8.8706 19.3817 11.0806 21.9617 11.0806ZM8.4617 11.3206C9.7517 11.3206 10.8417 10.7106 11.5517 9.7006L5.7217 3.8706C4.9817 4.6506 4.5317 5.7406 4.5317 6.9306C4.5317 9.4206 6.2217 11.3206 8.4617 11.3206ZM1.5117 21.6006H11.9417C10.6417 20.9106 11.4517 17.3706 14.0817 15.0806C12.8017 13.9606 10.9617 13.1306 8.4417 13.1306C3.2317 13.1306 0.0017 16.8406 0.0017 20.1806C0.0017 21.2106 0.5517 21.6006 1.5117 21.6006ZM31.6317 20.2706C31.6317 17.3006 27.9017 13.1806 21.9217 13.1806C20.7817 13.1806 19.7217 13.3406 18.7617 13.6006L26.7817 21.6006H29.8717C30.9817 21.6006 31.6317 21.2706 31.6317 20.2706ZM13.9617 21.6006H23.4517L16.3917 14.5406C13.7417 16.0106 12.2217 18.3606 12.2217 20.2706C12.2217 21.2706 12.8717 21.6006 13.9617 21.6006Z" />
        </svg>
    