
        <svg xmlns="http://www.w3.org/2000/svg" viewBox="0 0 100 100">
            <path d="M6.635 22.2244L7.425 22.0944V23.2944C7.425 25.6844 8.745 27.0044 11.155 27.0044H23.895C26.325 27.0044 27.645 25.6844 27.645 23.2944V10.4944C27.645 8.0944 26.325 6.7844 23.895 6.7844H20.655L20.005 3.1144C19.595 0.7444 18.065 -0.3356 15.685 0.0944L3.135 2.3044C0.755 2.7244 -0.325 4.2544 0.085 6.6244L2.315 19.2144C2.735 21.5844 4.265 22.6444 6.635 22.2244ZM4.985 18.4144L2.875 6.4744C2.735 5.6544 3.135 5.1244 3.895 4.9844L15.855 2.8744C16.635 2.7544 17.195 3.1144 17.345 3.9244L17.855 6.7844H11.155C8.745 6.7844 7.425 8.0944 7.425 10.4944V19.2844L6.445 19.4644C5.685 19.5944 5.125 19.2144 4.985 18.4144ZM10.185 22.9544V10.8244C10.185 10.0144 10.665 9.5444 11.455 9.5444H23.605C24.375 9.5444 24.875 10.0144 24.875 10.8244V22.9544C24.875 23.6344 24.545 24.0644 23.975 24.1944C22.965 22.0244 20.475 20.5644 17.535 20.5644C14.595 20.5644 12.095 22.0244 11.075 24.1944C10.515 24.0644 10.185 23.6344 10.185 22.9544ZM17.535 18.9644C19.565 18.9644 21.125 17.2544 21.125 15.0544C21.125 12.9644 19.535 11.1944 17.535 11.1944C15.515 11.1944 13.935 12.9644 13.935 15.0544C13.935 17.2544 15.495 18.9644 17.535 18.9644Z" />
        </svg>
    