
        <svg xmlns="http://www.w3.org/2000/svg" viewBox="0 0 100 100">
            <path d="M10.3017 8.582C12.5017 8.602 14.2517 6.712 14.2517 4.242C14.2517 1.932 12.5017 0.002 10.3017 0.002C8.1217 0.002 6.3517 1.932 6.3517 4.242C6.3517 6.712 8.1117 8.562 10.3017 8.582ZM3.3717 17.062H17.2417C17.9517 17.062 18.3417 16.592 18.3417 15.962C18.3417 14.112 15.6517 9.982 10.3017 9.982C4.9317 9.982 2.2617 14.112 2.2617 15.962C2.2617 16.592 2.6617 17.062 3.3717 17.062ZM0.9417 25.182H19.6717C20.1917 25.182 20.6117 24.762 20.6117 24.242C20.6117 23.732 20.1917 23.292 19.6717 23.292H18.9517V20.562C18.9517 19.332 18.3717 18.672 17.0517 18.672H3.5617C2.2517 18.672 1.6617 19.332 1.6617 20.562V23.292H0.9417C0.4217 23.292 0.0017 23.732 0.0017 24.242C0.0017 24.762 0.4217 25.182 0.9417 25.182ZM8.0017 22.642C7.6017 22.642 7.3217 22.332 7.3217 21.942C7.3217 21.552 7.6017 21.262 8.0017 21.262H12.6317C13.0217 21.262 13.3117 21.552 13.3117 21.942C13.3117 22.332 13.0217 22.642 12.6317 22.642Z" />
        </svg>
    