
        <svg xmlns="http://www.w3.org/2000/svg" viewBox="0 0 100 100">
            <path d="M11.7523 23.5048C18.2423 23.5048 23.5123 18.2448 23.5123 11.7548C23.5123 5.2648 18.2423 0.0048 11.7523 0.0048C5.2623 0.0048 0.0023 5.2648 0.0023 11.7548C0.0023 18.2448 5.2623 23.5048 11.7523 23.5048ZM11.7523 21.9848C6.0923 21.9848 1.5223 17.4148 1.5223 11.7548C1.5223 6.0948 6.0923 1.5148 11.7523 1.5148C17.4123 1.5148 21.9923 6.0948 21.9923 11.7548C21.9923 17.4148 17.4123 21.9848 11.7523 21.9848ZM11.7423 5.4748C12.4923 5.4748 13.2223 5.6148 13.8823 5.8448L14.3223 4.7848C13.5223 4.4848 12.6423 4.3148 11.7423 4.3148C10.8623 4.3148 9.9623 4.4848 9.1723 4.7848L9.6323 5.8448C10.2823 5.6048 10.9923 5.4748 11.7423 5.4748ZM17.4223 9.0948L18.5023 8.6348C17.7523 7.0548 16.4523 5.7548 14.8723 4.9948L14.4123 6.0748C15.7423 6.6948 16.8023 7.7648 17.4223 9.0948ZM9.0923 6.0748L8.6223 5.0148C7.0423 5.7548 5.7523 7.0548 5.0023 8.6348L6.0823 9.0948C6.6923 7.7648 7.7723 6.7048 9.0923 6.0748ZM11.7523 13.0648C13.2023 13.0648 14.3623 11.8148 14.3623 10.2048C14.3623 8.6648 13.2023 7.3848 11.7523 7.3848C10.3023 7.3848 9.1323 8.6648 9.1523 10.2048C9.1523 11.8148 10.2923 13.0548 11.7523 13.0648ZM5.4923 11.7548C5.4923 10.9948 5.6123 10.2848 5.8523 9.6348L4.7923 9.1748C4.4923 9.9748 4.3123 10.8548 4.3123 11.7548C4.3123 12.6448 4.4923 13.5248 4.7923 14.3348L5.8523 13.8748C5.6223 13.2148 5.4923 12.4948 5.4923 11.7548ZM18.0323 11.7548C18.0323 12.4948 17.8923 13.2148 17.6623 13.8748L18.7223 14.3348C19.0223 13.5248 19.1923 12.6448 19.1923 11.7548C19.1923 10.8548 19.0223 9.9848 18.7223 9.1848L17.6623 9.6348C17.9023 10.2848 18.0323 10.9948 18.0323 11.7548ZM11.7523 19.1948C14.6823 19.1948 17.3123 17.3948 18.5023 14.8748L17.4223 14.4148C17.1723 14.9548 16.8623 15.4548 16.4623 15.8748C15.7423 14.9848 14.0123 14.0648 11.7523 14.0648C9.5023 14.0648 7.7723 14.9848 7.0423 15.8748C6.6423 15.4448 6.3523 14.9548 6.0823 14.4148L5.0123 14.8748C6.2023 17.3948 8.8223 19.1948 11.7523 19.1948Z" />
        </svg>
    