
        <svg xmlns="http://www.w3.org/2000/svg" viewBox="0 0 100 100">
            <path d="M10.0317 10.5039C12.7217 10.5039 14.8817 8.1539 14.8817 5.2039C14.8817 2.3639 12.7017 0.0039 10.0317 0.0039C7.3517 0.0039 5.1817 2.3739 5.1817 5.2139C5.1817 8.1539 7.3217 10.5039 10.0317 10.5039ZM20.1517 10.1439C20.6017 10.1439 20.9417 10.0039 21.2217 9.7239L23.5517 7.4039L25.9017 9.7239C26.1817 10.0039 26.5217 10.1439 26.9617 10.1439C27.7717 10.1439 28.3917 9.5239 28.3917 8.6939C28.3917 8.3339 28.2417 7.9839 27.9617 7.7139L25.6217 5.3539L27.9617 2.9839C28.2417 2.7039 28.3917 2.3539 28.3917 1.9939C28.3917 1.1739 27.7717 0.5539 26.9617 0.5539C26.5317 0.5539 26.1917 0.6839 25.9117 0.9739L23.5517 3.3039L21.2217 0.9839C20.9417 0.6939 20.6017 0.5639 20.1517 0.5639C19.3517 0.5639 18.7217 1.1739 18.7217 2.0039C18.7217 2.3539 18.8817 2.7139 19.1617 2.9839L21.5117 5.3539L19.1617 7.7139C18.8817 7.9839 18.7217 8.3439 18.7217 8.6939C18.7217 9.5239 19.3517 10.1439 20.1517 10.1439ZM2.4217 21.5639H17.6217C19.1517 21.5639 20.0517 20.8139 20.0517 19.5739C20.0517 16.5939 16.1017 12.5139 10.0317 12.5139C3.9517 12.5139 0.0017 16.5939 0.0017 19.5739C0.0017 20.8139 0.9017 21.5639 2.4217 21.5639Z" />
        </svg>
    