
        <svg xmlns="http://www.w3.org/2000/svg" viewBox="0 0 100 100">
            <path d="M3.8717 0.7931H15.4817C15.4617 0.3431 15.1617 0.0031 14.6717 0.0031H4.6717C4.1817 0.0031 3.8917 0.3431 3.8717 0.7931ZM2.0817 3.4931H17.2617C17.2217 3.0131 16.9417 2.6731 16.4317 2.6731H2.9217C2.4017 2.6731 2.1217 3.0131 2.0817 3.4931ZM3.1617 25.0031H16.2617C18.2717 25.0031 19.3517 23.8931 19.3517 21.8531V8.8131C19.3517 6.7631 18.2617 5.6631 16.1817 5.6631H3.1617C1.0917 5.6631 0.0017 6.7431 0.0017 8.8131V21.8531C0.0017 23.9331 1.0917 25.0031 3.1617 25.0031ZM5.6117 18.5231C3.4417 18.5231 1.6617 19.6731 0.8717 20.8731V8.8431C0.8717 7.3231 1.6617 6.5231 3.1917 6.5231H16.1617C17.6217 6.5231 18.4817 7.3231 18.4817 8.8431V21.0131C17.5417 19.7231 15.9517 18.5531 13.5917 18.5531C10.0417 18.5531 7.8117 21.4231 7.8117 23.1931C7.8117 23.6531 7.9017 23.9431 8.0317 24.1431H6.9617C6.8717 23.8431 6.8217 23.5331 6.8217 23.1931C6.8217 21.8331 7.5517 20.5231 8.6817 19.4931C7.8317 18.8631 6.8717 18.5231 5.6117 18.5231ZM13.6017 17.1131C15.1017 17.1131 16.2817 15.8131 16.2817 14.1131C16.2817 12.5031 15.0817 11.1631 13.6017 11.1631C12.1017 11.1631 10.8917 12.5131 10.9117 14.1131C10.9317 15.8131 12.0717 17.1131 13.6017 17.1131ZM5.6417 17.2631C6.9517 17.2631 7.9717 16.1331 7.9717 14.6531C7.9717 13.2531 6.9217 12.1131 5.6417 12.1131C4.3217 12.1131 3.2817 13.2531 3.2917 14.6631C3.3017 16.1331 4.3117 17.2631 5.6417 17.2631Z" />
        </svg>
    