
        <svg xmlns="http://www.w3.org/2000/svg" viewBox="0 0 100 100">
            <path d="M22.1926 23.5381C22.5626 23.9181 23.1726 23.9081 23.5326 23.5281C23.9026 23.1581 23.9126 22.5581 23.5326 22.1881L1.6326 0.2781C1.2626 -0.0919 0.6526 -0.0919 0.2626 0.2781C-0.0874 0.6481 -0.0874 1.2681 0.2626 1.6281ZM11.4926 3.3281C13.0626 3.3281 14.3626 4.6981 14.3626 6.5881C14.3626 7.8181 13.8326 8.8581 13.0326 9.4481L14.6326 11.0381C15.8726 10.0181 16.6726 8.3981 16.6726 6.5881C16.6726 3.5381 14.3526 1.0981 11.4926 1.0981C9.6826 1.0981 8.1026 2.0981 7.1826 3.5881L8.8526 5.2581C9.3026 4.0981 10.3326 3.3281 11.4926 3.3281ZM17.3126 20.9081H3.9626C3.7126 20.9081 3.6126 20.8281 3.6126 20.6281C3.6126 18.9281 6.4626 15.7281 11.4926 15.7281C11.7026 15.7281 11.9326 15.7281 12.1426 15.7381L9.9926 13.5981C4.5726 14.1781 1.1326 17.9981 1.1326 21.0081C1.1326 22.4581 2.1526 23.1281 4.2226 23.1281H18.7426C19.0126 23.1281 19.2726 23.1181 19.5026 23.0981Z" />
        </svg>
    