
        <svg xmlns="http://www.w3.org/2000/svg" viewBox="0 0 100 100">
            <path d="M7.5517 24.6642C8.2017 24.6642 8.6817 24.3542 9.4917 23.6442L13.5117 20.0842H20.7517C24.2717 20.0842 26.2517 18.0742 26.2517 14.5942V5.4942C26.2517 2.0142 24.2717 0.0042 20.7517 0.0042H5.5117C1.9817 0.0042 0.0017 2.0142 0.0017 5.4942V14.5942C0.0017 18.0742 2.0317 20.0842 5.4217 20.0842H6.0617V22.9842C6.0617 24.0242 6.6117 24.6642 7.5517 24.6642ZM8.1117 22.0942V18.7542C8.1117 18.0542 7.8317 17.7842 7.1617 17.7842H5.5617C3.3517 17.7842 2.3017 16.6742 2.3017 14.5242V5.5642C2.3017 3.4142 3.3517 2.2942 5.5617 2.2942H20.6817C22.8917 2.2942 23.9517 3.4142 23.9517 5.5642V14.5242C23.9517 16.6742 22.8917 17.7842 20.6817 17.7842H13.3817C12.6717 17.7842 12.3317 17.9042 11.8217 18.4242ZM12.9817 9.9942C14.5117 10.0042 15.7417 8.7042 15.7417 6.9842C15.7417 5.3742 14.5117 4.0442 12.9817 4.0442C11.4517 4.0442 10.2217 5.3742 10.2217 6.9842C10.2217 8.7042 11.4517 9.9942 12.9817 9.9942ZM8.1717 15.8042H17.7917C18.2717 15.8042 18.4917 15.4942 18.4917 15.0542C18.4917 13.8842 16.7617 10.8542 12.9817 10.8542C9.2117 10.8542 7.4617 13.8842 7.4617 15.0542C7.4617 15.4942 7.7017 15.8042 8.1717 15.8042Z" />
        </svg>
    