
        <svg xmlns="http://www.w3.org/2000/svg" viewBox="0 0 100 100">
            <path d="M3.0117 20.5048H24.0617C26.0117 20.5048 27.0617 19.4248 27.0617 17.4948V3.0148C27.0617 1.0748 26.0117 0.0048 24.0617 0.0048H3.0117C1.0417 0.0048 0.0017 1.0448 0.0017 3.0148V17.4948C0.0017 19.4648 1.0417 20.5048 3.0117 20.5048ZM4.3117 15.4548C3.3117 15.4548 2.7917 14.9448 2.7917 13.9348V6.6348C2.7917 5.6248 3.3117 5.1048 4.3117 5.1048H11.6217C12.6217 5.1048 13.1517 5.6448 13.1517 6.6348V13.9348C13.1517 14.9148 12.6217 15.4548 11.6217 15.4548ZM19.6917 15.4548C16.7417 15.4548 14.6517 13.2848 14.6517 10.2548C14.6517 7.3248 16.8117 5.1448 19.7317 5.1448C22.6417 5.1448 24.7017 7.1148 24.7017 9.8748C24.7017 11.8748 23.9617 13.0348 22.7217 13.0348C22.0217 13.0348 21.4817 12.6748 21.2617 12.0448C20.8917 12.6948 20.3417 13.0148 19.5917 13.0148C18.2917 13.0148 17.3917 11.9448 17.3917 10.3548C17.3917 8.7848 18.2917 7.6748 19.5917 7.6748C20.2217 7.6748 20.7917 7.9448 21.1417 8.4148V7.9848C21.1417 7.7948 21.2717 7.6748 21.4117 7.6748C21.5717 7.6748 21.6917 7.7948 21.6917 7.9648V11.1948C21.6917 12.0248 22.0617 12.4848 22.7217 12.4848C23.6417 12.4848 24.1217 11.5848 24.1217 9.8748C24.1217 7.4148 22.3317 5.7148 19.7317 5.7148C17.1217 5.7148 15.2317 7.6248 15.2317 10.2548C15.2317 12.9948 17.0517 14.8948 19.6917 14.8948C20.3317 14.8948 20.7217 14.8448 20.9917 14.8048C21.3117 14.7448 21.4717 14.6848 21.6417 14.6848C21.8417 14.6848 21.9117 14.8048 21.9117 14.9448C21.9117 15.0848 21.8417 15.1748 21.6817 15.2348C21.3717 15.3548 20.6817 15.4548 19.6917 15.4548ZM7.9717 11.0848C9.0617 11.0848 9.9217 10.1648 9.9217 8.9448C9.9217 7.7848 9.0617 6.8348 7.9717 6.8348C6.8817 6.8348 6.0117 7.7848 6.0117 8.9448C6.0117 10.1648 6.8817 11.0848 7.9717 11.0848ZM19.5817 12.4848C20.5317 12.4848 21.1417 11.6248 21.1417 10.2748C21.1417 9.0048 20.5517 8.2248 19.5817 8.2248C18.6417 8.2248 17.9417 9.1248 17.9417 10.3548C17.9417 11.6248 18.6117 12.4848 19.5817 12.4848ZM4.1517 14.8748H11.8117C11.8217 13.9348 10.7717 12.0448 7.9817 12.0448C5.2017 12.0448 4.1517 13.9348 4.1517 14.8748Z" />
        </svg>
    