
        <svg xmlns="http://www.w3.org/2000/svg" viewBox="0 0 100 100">
            <path d="M22.7882 24.2332C23.1882 24.6232 23.8582 24.6232 24.2482 24.2332C24.6282 23.8232 24.6582 23.1732 24.2482 22.7732L1.7682 0.3032C1.3582 -0.0968 0.6982 -0.0968 0.2882 0.3032C-0.0918 0.6832 -0.0918 1.3632 0.2882 1.7532ZM16.2382 6.7332C16.2382 3.8932 14.0682 1.5332 11.3882 1.5332C9.8082 1.5332 8.3982 2.3732 7.5182 3.6232L14.5982 10.7132C15.6082 9.7532 16.2382 8.3332 16.2382 6.7332ZM1.3582 21.1032C1.3582 22.3432 2.2682 23.0932 3.7782 23.0932H18.9982C19.0682 23.0932 19.1482 23.0932 19.2282 23.0832L10.2382 14.1032C4.8182 14.5632 1.3582 18.3132 1.3582 21.1032Z" />
        </svg>
    