
        <svg xmlns="http://www.w3.org/2000/svg" viewBox="0 0 100 100">
            <path d="M12.7923 25.5978C19.8723 25.5978 25.6023 19.8678 25.6023 12.7978C25.6023 5.7278 19.8723 -0.0022 12.7923 -0.0022C5.7323 -0.0022 0.0023 5.7278 0.0023 12.7978C0.0023 19.8678 5.7323 25.5978 12.7923 25.5978ZM12.7923 21.4178C8.0323 21.4178 4.1723 17.5678 4.1723 12.7978C4.1723 8.0278 8.0323 4.1678 12.7923 4.1678C17.5623 4.1678 21.4323 8.0278 21.4323 12.7978C21.4323 17.5678 17.5623 21.4178 12.7923 21.4178ZM12.7923 12.2078C14.3523 12.2078 15.6223 10.8978 15.6223 9.1378C15.6223 7.4978 14.3523 6.1378 12.7923 6.1378C11.2523 6.1378 9.9823 7.4978 9.9823 9.1378C9.9823 10.8978 11.2523 12.2078 12.7923 12.2078ZM8.3623 18.3078H17.2223C17.9323 18.3078 18.2923 17.7778 18.2923 17.1678C18.2923 15.9578 16.6623 12.9678 12.7923 12.9678C8.9323 12.9678 7.3023 15.9578 7.3023 17.1678C7.3023 17.7778 7.6623 18.3078 8.3623 18.3078Z" />
        </svg>
    