
        <svg xmlns="http://www.w3.org/2000/svg" viewBox="0 0 100 100">
            <path d="M3.9717 22.1117H18.1317C20.7317 22.1117 22.1017 20.7417 22.1017 18.1717V3.9417C22.1017 1.3717 20.7317 0.0017 18.1317 0.0017H3.9717C1.3817 0.0017 0.0017 1.3717 0.0017 3.9417V18.1717C0.0017 20.7417 1.3817 22.1117 3.9717 22.1117ZM4.1917 19.5017C3.1617 19.5017 2.6117 18.9817 2.6117 17.9017V4.2217C2.6117 3.1417 3.1617 2.6117 4.1917 2.6117H17.9217C18.9217 2.6117 19.5017 3.1417 19.5017 4.2217V17.9017C19.5017 18.9817 18.9217 19.5017 17.9217 19.5017ZM12.1917 17.3117C12.6017 17.3117 12.8317 17.0617 12.8917 16.6017L14.4717 6.9817C14.4817 6.8917 14.5117 6.7717 14.5117 6.6417C14.5117 6.2417 14.2617 5.9617 13.8417 5.9617C13.4317 5.9617 13.1917 6.2117 13.1417 6.6517L11.5517 16.2917C11.5417 16.3817 11.5217 16.4917 11.5217 16.6317C11.5217 17.0317 11.7617 17.3117 12.1917 17.3117ZM8.2517 15.2417C10.1417 15.2417 11.1317 14.1517 11.1317 12.5817C11.1317 11.1017 10.2817 10.5017 9.0717 10.0517L8.3517 9.8017C7.6317 9.5317 7.0917 9.2017 7.0917 8.4117C7.0917 7.7617 7.5017 7.2617 8.2117 7.2617C8.8917 7.2617 9.3117 7.6517 9.5017 8.3317C9.6217 8.6917 9.8717 8.8517 10.2317 8.8517C10.6717 8.8517 10.9117 8.5517 10.9117 8.1817C10.9117 8.0417 10.8917 7.8817 10.8517 7.7717C10.5017 6.6017 9.4817 5.9617 8.2217 5.9617C6.5417 5.9617 5.5117 7.0317 5.5117 8.5217C5.5117 9.8717 6.2717 10.6217 7.5717 11.0817L8.2217 11.3117C9.0217 11.6017 9.5517 11.9617 9.5517 12.7417C9.5517 13.4317 9.0817 13.9417 8.2717 13.9417C7.5617 13.9417 7.0917 13.5617 6.8917 12.8517C6.7617 12.4917 6.5317 12.3317 6.1517 12.3317C5.7317 12.3317 5.4617 12.6317 5.4617 13.0417C5.4617 13.2117 5.4917 13.4217 5.5617 13.5817C5.9717 14.6717 6.9717 15.2417 8.2517 15.2417ZM16.0817 15.1417C16.5917 15.1417 17.0017 14.7517 17.0017 14.2417C17.0017 13.7317 16.5917 13.3317 16.0817 13.3317C15.5617 13.3317 15.1717 13.7317 15.1717 14.2417C15.1717 14.7517 15.5617 15.1417 16.0817 15.1417Z" />
        </svg>
    