
        <svg xmlns="http://www.w3.org/2000/svg" viewBox="0 0 100 100">
            <path d="M15.7017 27.2364C16.1617 27.2364 16.4217 26.9864 16.5117 26.4864L22.0317 1.1364C22.0517 0.9864 22.0817 0.8664 22.0817 0.6664C22.0817 0.3064 21.7217 -0.0036 21.3117 -0.0036C20.8517 -0.0036 20.6017 0.2264 20.5117 0.6664L15.0117 25.8664C14.9617 26.0864 14.9317 26.3064 14.9317 26.4964C14.9317 26.8464 15.2017 27.2364 15.7017 27.2364ZM6.8017 22.2964C10.6017 22.2964 13.4517 20.1564 13.4517 16.3164C13.4517 12.8564 11.1217 11.4864 8.0017 10.5464L6.2017 10.0064C3.9717 9.3564 2.1117 8.2764 2.1117 5.8464C2.1117 3.2464 4.2417 1.8264 6.5817 1.8264C8.8817 1.8264 10.9417 3.0964 11.3417 5.5264C11.4517 5.9764 11.7217 6.2264 12.1717 6.2264C12.6417 6.2264 12.9817 5.9264 12.9817 5.4064C12.9817 5.2264 12.9517 4.9964 12.9017 4.7764C12.2417 1.8564 9.5817 0.2564 6.6117 0.2564C3.1417 0.2564 0.3517 2.4864 0.3517 5.9164C0.3517 9.1964 2.4917 10.7064 5.6417 11.6564L7.4517 12.2064C9.8417 12.9264 11.6917 13.9664 11.6917 16.4664C11.6917 19.1464 9.5817 20.7164 6.8517 20.7164C4.1517 20.7164 2.0517 19.2664 1.6017 16.6864C1.5017 16.1864 1.2317 15.9764 0.8017 15.9764C0.3117 15.9764 0.0017 16.3164 0.0017 16.8164C0.0017 17.1164 0.0517 17.4164 0.1217 17.6764C0.8417 20.6264 3.5617 22.2964 6.8017 22.2964ZM23.5417 22.2964C24.2817 22.2964 24.8717 21.7164 24.8717 20.9664C24.8717 20.2164 24.2817 19.6264 23.5417 19.6264C22.7817 19.6264 22.1917 20.2164 22.1917 20.9664C22.1917 21.7164 22.7817 22.2964 23.5417 22.2964Z" />
        </svg>
    