
        <svg xmlns="http://www.w3.org/2000/svg" viewBox="0 0 100 100">
            <path d="M11.3523 22.7064C17.6323 22.7064 22.7123 17.6264 22.7123 11.3564C22.7123 5.0764 17.6323 -0.0036 11.3523 -0.0036C5.0823 -0.0036 0.0023 5.0764 0.0023 11.3564C0.0023 17.6264 5.0823 22.7064 11.3523 22.7064ZM11.3523 22.1364C5.3923 22.1364 0.5723 17.3164 0.5723 11.3564C0.5723 5.3864 5.3923 0.5764 11.3523 0.5764C17.3223 0.5764 22.1323 5.3864 22.1323 11.3564C22.1323 17.3164 17.3223 22.1364 11.3523 22.1364ZM8.7023 15.8764C10.3223 15.8764 11.2623 14.7964 11.2623 13.1964C11.2623 11.6564 10.3723 11.0264 9.1323 10.4964L8.5223 10.2564C7.4623 9.8064 6.8223 9.2964 6.8223 8.1464C6.8223 7.0164 7.5123 6.2664 8.6023 6.2664C9.7823 6.2664 10.3623 7.0564 10.5223 8.0864C10.5623 8.2664 10.6423 8.3564 10.8023 8.3564C10.9823 8.3564 11.0723 8.2364 11.0723 8.0664C11.0723 7.9564 11.0523 7.8564 11.0423 7.7764C10.8323 6.5964 9.9523 5.7064 8.6223 5.7064C7.2023 5.7064 6.2223 6.7164 6.2223 8.1764C6.2223 9.5964 6.9923 10.2764 8.3123 10.8264L8.9423 11.0764C10.0223 11.5064 10.6623 12.0864 10.6623 13.2564C10.6623 14.2764 10.1123 15.3164 8.7323 15.3164C7.5123 15.3164 6.7623 14.4864 6.6223 13.2964C6.6123 13.1464 6.5323 13.0564 6.3523 13.0564C6.1623 13.0564 6.0723 13.1564 6.0723 13.3264C6.0723 13.4364 6.0823 13.5664 6.1123 13.6964C6.3723 14.9864 7.3023 15.8764 8.7023 15.8764ZM12.3723 18.2264C12.5623 18.2264 12.6323 18.1064 12.6723 17.9364L14.7823 6.2564C14.8023 6.1864 14.8123 6.1064 14.8123 6.0264C14.8123 5.8564 14.7023 5.7564 14.5423 5.7564C14.3523 5.7564 14.2823 5.8664 14.2523 6.0364L12.1423 17.7164C12.1323 17.7964 12.1023 17.8664 12.1023 17.9664C12.1023 18.1164 12.2123 18.2264 12.3723 18.2264ZM16.2323 15.8064C16.5223 15.8064 16.7323 15.6064 16.7323 15.3164C16.7323 15.0364 16.5223 14.8264 16.2323 14.8264C15.9423 14.8264 15.7223 15.0364 15.7223 15.3164C15.7223 15.6064 15.9423 15.8064 16.2323 15.8064Z" />
        </svg>
    