
        <svg xmlns="http://www.w3.org/2000/svg" viewBox="0 0 100 100">
            <path d="M1.8917 23.1763H25.6417V22.2263C25.6417 21.6763 25.3117 21.3563 24.7717 21.3563H24.1517V8.6363H25.1417C25.9117 8.6363 26.3717 8.0663 26.3717 7.4863C26.3717 7.0663 26.1217 6.6763 25.6217 6.3863L15.3317 0.4563C14.8317 0.1663 14.2817 -0.0038 13.7617 -0.0038C13.2317 -0.0038 12.6817 0.1663 12.1917 0.4563L1.9017 6.3863C1.3817 6.6763 1.1617 7.0663 1.1617 7.4863C1.1617 8.0663 1.6017 8.6363 2.3917 8.6363H3.3917V21.3563H2.7517C2.2117 21.3563 1.8917 21.6763 1.8917 22.2263ZM5.4717 21.3563V7.0163L13.3917 2.5763C13.5017 2.5162 13.6417 2.4862 13.7617 2.4862C13.8917 2.4862 14.0117 2.5162 14.1317 2.5763L22.0517 7.0163V21.3563ZM14.8917 19.2463C15.3117 19.2463 15.5417 18.9862 15.6017 18.5363L17.1817 8.9063C17.1917 8.8263 17.2117 8.7063 17.2117 8.5763C17.2117 8.1663 16.9717 7.8863 16.5517 7.8863C16.1417 7.8863 15.9017 8.1463 15.8417 8.5863L14.2617 18.2263C14.2517 18.3063 14.2217 18.4263 14.2217 18.5463C14.2217 18.9563 14.4717 19.2463 14.8917 19.2463ZM10.9617 17.1763C12.8417 17.1763 13.8417 16.0863 13.8417 14.5163C13.8417 13.0262 12.9817 12.4363 11.7817 11.9863L11.0617 11.7263C10.3317 11.4462 9.8017 11.1163 9.8017 10.3363C9.8017 9.6962 10.2117 9.1962 10.9217 9.1962C11.6017 9.1962 12.0217 9.5863 12.2117 10.2663C12.3317 10.6263 12.5717 10.7663 12.9417 10.7663C13.3817 10.7663 13.6217 10.4863 13.6217 10.1063C13.6217 9.9763 13.5917 9.8163 13.5617 9.7063C13.2117 8.5262 12.1917 7.8963 10.9317 7.8963C9.2417 7.8963 8.2117 8.9663 8.2117 10.4563C8.2117 11.7863 8.9717 12.5463 10.2817 13.0063L10.9317 13.2463C11.7317 13.5263 12.2617 13.8863 12.2617 14.6763C12.2617 15.3563 11.7917 15.8663 10.9817 15.8663C10.2617 15.8663 9.8017 15.4963 9.6017 14.7863C9.4717 14.4263 9.2317 14.2663 8.8617 14.2663C8.4417 14.2663 8.1717 14.5563 8.1717 14.9663C8.1717 15.1363 8.2017 15.3563 8.2717 15.5063C8.6817 16.5963 9.6817 17.1763 10.9617 17.1763ZM18.7817 17.0763C19.3017 17.0763 19.7117 16.6763 19.7117 16.1763C19.7117 15.6563 19.3017 15.2563 18.7817 15.2563C18.2717 15.2563 17.8817 15.6563 17.8817 16.1763C17.8817 16.6763 18.2717 17.0763 18.7817 17.0763ZM1.1517 26.3763H26.2517C26.8717 26.3763 27.4017 25.8663 27.4017 25.2263C27.4017 24.5963 26.8717 24.0863 26.2517 24.0863H1.1517C0.5317 24.0863 0.0017 24.5963 0.0017 25.2263C0.0017 25.8663 0.5317 26.3763 1.1517 26.3763Z" />
        </svg>
    