
        <svg xmlns="http://www.w3.org/2000/svg" viewBox="0 0 100 100">
            <path d="M0.4317 23.8172H23.8217C24.0717 23.8172 24.2617 23.6172 24.2617 23.3672C24.2617 23.1372 24.0717 22.9372 23.8217 22.9372H23.1917V22.2172C23.1917 22.0172 23.0617 21.8872 22.8517 21.8872H22.1117V7.0172H23.2417C23.5417 7.0172 23.6917 6.8172 23.6917 6.5872C23.6917 6.4472 23.6117 6.2772 23.4217 6.1672L13.3217 0.3372C12.9417 0.1172 12.5317 -0.0028 12.1317 -0.0028C11.7317 -0.0028 11.3217 0.1172 10.9417 0.3372L0.8417 6.1672C0.6417 6.2772 0.5617 6.4472 0.5617 6.5872C0.5617 6.8172 0.7117 7.0172 1.0317 7.0172H2.1517V21.8872H1.4017C1.2117 21.8872 1.0817 22.0172 1.0817 22.2172V22.9372H0.4317C0.2017 22.9372 0.0017 23.1372 0.0017 23.3672C0.0017 23.6172 0.2017 23.8172 0.4317 23.8172ZM9.4617 17.7072C8.0517 17.7072 7.1017 16.8672 6.8017 15.5772C6.7717 15.4472 6.7517 15.3172 6.7517 15.1872C6.7517 14.9772 6.8917 14.8272 7.1017 14.8272C7.3117 14.8272 7.4317 14.9372 7.4617 15.1272C7.6217 16.2572 8.3317 17.0072 9.4717 17.0072C10.7817 17.0072 11.3317 16.0572 11.3317 15.0672C11.3317 13.9572 10.6917 13.4072 9.6517 12.9972L9.0117 12.7472C7.6917 12.2072 6.8917 11.5072 6.8917 10.0772C6.8917 8.5972 7.8717 7.5572 9.3717 7.5572C10.7217 7.5572 11.6417 8.4272 11.8717 9.6172C11.8817 9.7072 11.8917 9.8072 11.8917 9.9172C11.8917 10.1372 11.7817 10.2772 11.5617 10.2772C11.3717 10.2772 11.2517 10.1872 11.2017 9.9572C11.0317 8.9672 10.4517 8.2472 9.3617 8.2472C8.3117 8.2472 7.6617 8.9772 7.6617 10.0272C7.6617 11.1172 8.3017 11.6272 9.3017 12.0372L9.9217 12.2972C11.1817 12.8072 12.1017 13.4272 12.1017 14.9972C12.1017 16.5972 11.1517 17.7072 9.4617 17.7072ZM13.1717 20.0372C12.9617 20.0372 12.8317 19.8972 12.8317 19.6972C12.8317 19.5972 12.8517 19.5072 12.8717 19.4272L14.9217 7.9472C14.9617 7.7372 15.0617 7.5972 15.2917 7.5972C15.4917 7.5972 15.6217 7.7372 15.6217 7.9372C15.6217 8.0372 15.6117 8.1172 15.6017 8.2072L13.5317 19.6872C13.5017 19.8972 13.3917 20.0372 13.1717 20.0372ZM17.0817 17.6372C16.7417 17.6372 16.5117 17.3872 16.5117 17.0472C16.5117 16.7372 16.7417 16.4872 17.0817 16.4872C17.4217 16.4872 17.6717 16.7372 17.6717 17.0472C17.6717 17.3872 17.4217 17.6372 17.0817 17.6372Z" />
        </svg>
    