
        <svg xmlns="http://www.w3.org/2000/svg" viewBox="0 0 100 100">
            <path d="M27.0823 13.4978C27.0823 6.4078 21.6123 0.5678 14.6723 0.0078C14.2923 -0.0422 14.0123 0.2378 14.0123 0.6178V4.0278C14.0123 4.3378 14.2423 4.5878 14.5623 4.6178C19.0123 5.1278 22.4623 8.9078 22.4623 13.4978C22.4623 15.5878 21.7523 17.5278 20.5123 19.0578C20.3123 19.3078 20.3123 19.6078 20.5423 19.8378L22.9823 22.2678C23.2523 22.5178 23.6323 22.5178 23.8823 22.2378C25.8723 19.8778 27.0823 16.8178 27.0823 13.4978ZM0.0023 13.4978C0.0023 16.8378 1.2223 19.9078 3.2223 22.2578C3.4523 22.5378 3.8323 22.5178 4.1023 22.2678L6.5423 19.8378C6.7723 19.6078 6.7723 19.3078 6.5723 19.0578C5.3323 17.5278 4.6123 15.5878 4.6123 13.4978C4.6123 8.9078 8.0723 5.1278 12.5123 4.6178C12.8423 4.5878 13.0623 4.3378 13.0623 4.0278V0.6178C13.0623 0.2378 12.7823 -0.0422 12.4123 0.0078C5.4723 0.5678 0.0023 6.4078 0.0023 13.4978ZM10.8723 18.1478C12.5623 18.1478 13.5023 17.0278 13.5023 15.4478C13.5023 13.9078 12.5823 13.2678 11.3423 12.7678L10.7223 12.5078C9.7123 12.0978 9.0923 11.6078 9.0923 10.5178C9.0923 9.4578 9.7423 8.7478 10.7823 8.7478C11.8723 8.7478 12.4423 9.4478 12.6223 10.4478C12.6523 10.6578 12.7723 10.7678 12.9723 10.7678C13.1823 10.7678 13.3023 10.6078 13.3023 10.3978C13.3023 10.2978 13.2923 10.1878 13.2823 10.1078C13.0423 8.9078 12.1323 8.0578 10.8023 8.0578C9.3023 8.0578 8.3323 9.0978 8.3323 10.5678C8.3323 11.9778 9.1123 12.6878 10.4423 13.2078L11.0723 13.4578C12.1023 13.8678 12.7423 14.4178 12.7423 15.5178C12.7423 16.5078 12.1923 17.4578 10.9023 17.4578C9.7523 17.4578 9.0423 16.7078 8.8923 15.5878C8.8623 15.4078 8.7523 15.2878 8.5423 15.2878C8.3323 15.2878 8.1923 15.4378 8.1923 15.6378C8.1923 15.7678 8.2123 15.8978 8.2423 16.0278C8.5323 17.2978 9.4823 18.1478 10.8723 18.1478ZM14.5623 20.4578C14.8023 20.4578 14.8923 20.3278 14.9323 20.1178L16.9723 8.6878C16.9923 8.6178 17.0023 8.5378 17.0023 8.4278C17.0023 8.2278 16.8723 8.0878 16.6723 8.0878C16.4423 8.0878 16.3523 8.2278 16.3123 8.4378L14.2623 19.8578C14.2523 19.9378 14.2423 20.0178 14.2423 20.1278C14.2423 20.3278 14.3623 20.4578 14.5623 20.4578ZM18.4523 18.0778C18.7823 18.0778 19.0323 17.8278 19.0323 17.4978C19.0323 17.1778 18.7823 16.9378 18.4523 16.9378C18.1123 16.9378 17.8823 17.1778 17.8823 17.4978C17.8823 17.8278 18.1123 18.0778 18.4523 18.0778Z" />
        </svg>
    