
        <svg xmlns="http://www.w3.org/2000/svg" viewBox="0 0 100 100">
            <path d="M12.7923 25.5978C19.8723 25.5978 25.6023 19.8678 25.6023 12.7978C25.6023 5.7278 19.8723 -0.0022 12.7923 -0.0022C5.7323 -0.0022 0.0023 5.7278 0.0023 12.7978C0.0023 19.8678 5.7323 25.5978 12.7923 25.5978ZM12.7923 21.4178C8.0323 21.4178 4.1723 17.5678 4.1723 12.7978C4.1723 8.0278 8.0323 4.1678 12.7923 4.1678C17.5623 4.1678 21.4323 8.0278 21.4323 12.7978C21.4323 17.5678 17.5623 21.4178 12.7923 21.4178ZM10.6023 17.8578C11.4423 17.8578 11.9723 17.3278 11.9723 16.4678V15.4078H13.4223C15.6323 15.4078 16.9823 13.9178 17.1023 11.8678H17.7623C17.9423 11.8678 18.0623 11.7378 18.0623 11.5778C18.0623 11.4178 17.9423 11.2978 17.7623 11.2978H17.1023C16.9923 9.3378 15.7023 7.8678 13.6123 7.8678H10.7023C9.7523 7.8678 9.2223 8.3878 9.2223 9.3378V11.2978H8.6223C8.4523 11.2978 8.3323 11.4178 8.3323 11.5778C8.3323 11.7378 8.4523 11.8678 8.6223 11.8678H9.2223V16.4678C9.2223 17.3278 9.7523 17.8578 10.6023 17.8578ZM11.9723 9.8278H12.8623C13.7323 9.8278 14.2423 10.3778 14.3223 11.2978H11.9723ZM11.9723 13.4978V11.8678H14.3323C14.2523 12.8478 13.7423 13.4978 12.8423 13.4978Z" />
        </svg>
    