
        <svg xmlns="http://www.w3.org/2000/svg" viewBox="0 0 100 100">
            <path d="M2.3517 20.2477C2.5417 20.2477 2.6717 20.1077 2.6717 19.9177V11.8877H7.5717C11.3417 11.8877 13.9917 9.8677 14.1117 6.1877H15.8417C16.0117 6.1877 16.1417 6.0577 16.1417 5.9077C16.1417 5.7377 16.0117 5.6277 15.8417 5.6277H14.1117C13.9717 2.2077 11.5617 -0.0023 7.5717 -0.0023H2.3417C2.1517 -0.0023 2.0317 0.1477 2.0317 0.3477V5.6277H0.2917C0.1317 5.6277 0.0017 5.7377 0.0017 5.9077C0.0017 6.0577 0.1317 6.1877 0.2917 6.1877H2.0317V19.9177C2.0317 20.1077 2.1717 20.2477 2.3517 20.2477ZM2.6717 0.5877H7.5317C10.9417 0.5877 13.3217 2.3577 13.4617 5.6277H2.6717ZM2.6717 11.3077V6.1877H13.4617C13.3617 9.5177 10.9617 11.3077 7.5317 11.3077Z" />
        </svg>
    