
        <svg xmlns="http://www.w3.org/2000/svg" viewBox="0 0 100 100">
            <path d="M2.6117 20.4948C2.9217 20.4948 3.1317 20.2748 3.1317 19.9648V12.2148H7.9217C11.7217 12.2148 14.3817 10.0748 14.5317 6.4348H16.1417C16.3617 6.4348 16.5317 6.2548 16.5317 6.0348C16.5317 5.8148 16.3617 5.6448 16.1417 5.6448H14.5317C14.3317 2.2148 11.8317 0.0048 7.9217 0.0048H2.6017C2.3117 0.0048 2.1017 0.2248 2.1017 0.5248V5.6448H0.4017C0.1717 5.6448 0.0017 5.8148 0.0017 6.0348C0.0017 6.2548 0.1717 6.4348 0.4017 6.4348H2.1017V19.9648C2.1017 20.2748 2.3217 20.4948 2.6117 20.4948ZM3.1317 0.9048H7.7717C11.0417 0.9048 13.2917 2.5648 13.4917 5.6448H3.1317ZM3.1317 11.3048V6.4348H13.4917C13.3517 9.5948 11.0617 11.3048 7.7717 11.3048Z" />
        </svg>
    