
        <svg xmlns="http://www.w3.org/2000/svg" viewBox="0 0 100 100">
            <path d="M13.8623 4.8473C15.9723 4.8473 17.9223 5.5773 19.4523 6.7973C19.7023 6.9873 20.0023 6.9573 20.2223 6.7373L22.8123 4.1573C23.0823 3.8873 23.0723 3.5073 22.7923 3.2573C20.3823 1.2273 17.2623 -0.0027 13.8623 -0.0027C10.4723 -0.0027 7.3523 1.2273 4.9423 3.2573C4.6523 3.5073 4.6523 3.8873 4.9223 4.1573L7.5123 6.7373C7.7323 6.9573 8.0523 6.9873 8.3123 6.7773C9.8423 5.5773 11.7823 4.8473 13.8623 4.8473ZM0.0023 13.8773C0.0023 17.2773 1.2323 20.4073 3.2723 22.8173C3.5123 23.0973 3.9023 23.1073 4.1723 22.8373L6.7923 20.2073C6.9823 19.9873 7.0123 19.7273 6.8323 19.4973C5.5823 17.9073 4.8523 15.9773 4.8523 13.8773C4.8523 11.7673 5.5623 9.8473 6.7823 8.3073C6.9723 8.0473 6.9723 7.7373 6.7423 7.5073L4.1623 4.9173C3.9023 4.6673 3.5023 4.6473 3.2723 4.9473C1.2223 7.3573 0.0023 10.4773 0.0023 13.8773ZM27.7423 13.8773C27.7423 10.4773 26.5123 7.3573 24.4723 4.9473C24.2323 4.6473 23.8323 4.6673 23.5623 4.9173L20.9923 7.5073C20.7623 7.7373 20.7523 8.0473 20.9523 8.3073C22.1623 9.8473 22.8823 11.7673 22.8823 13.8773C22.8823 15.9773 22.1623 17.9073 20.9023 19.4973C20.7323 19.7273 20.7423 19.9873 20.9423 20.2073L23.5623 22.8373C23.8223 23.1073 24.2223 23.0973 24.4523 22.8173C26.5123 20.4073 27.7423 17.2773 27.7423 13.8773ZM11.4923 19.2873C11.8323 19.2873 12.0623 19.0673 12.0623 18.7273V15.4073H14.2523C16.1323 15.4073 17.4823 14.2373 17.6123 12.4173H18.2123C18.4123 12.4173 18.5623 12.2673 18.5623 12.0773C18.5623 11.8873 18.4123 11.7373 18.2123 11.7373H17.6023C17.4223 9.9773 16.0923 8.8873 14.2623 8.8873H11.5123C11.1523 8.8873 10.9323 9.1073 10.9323 9.4573V11.7373H10.1723C9.9723 11.7373 9.8223 11.8873 9.8223 12.0773C9.8223 12.2673 9.9723 12.4173 10.1723 12.4173H10.9323V18.7273C10.9323 19.0673 11.1523 19.2873 11.4923 19.2873ZM12.0623 9.8173H13.9923C15.3323 9.8173 16.2823 10.4673 16.4423 11.7373H12.0623ZM12.0623 14.4773V12.4173H16.4523C16.3523 13.7573 15.4123 14.4773 13.9823 14.4773Z" />
        </svg>
    