
        <svg xmlns="http://www.w3.org/2000/svg" viewBox="0 0 100 100">
            <path d="M15.1723 5.9423C17.2523 5.9423 19.1623 6.6223 20.7023 7.7823C21.0623 8.0423 21.5023 8.0123 21.8223 7.6923L24.7823 4.7123C25.1823 4.3223 25.1723 3.7423 24.7423 3.4023C22.1223 1.2723 18.7923 0.0023 15.1723 0.0023C11.5523 0.0023 8.2223 1.2723 5.6223 3.4023C5.1923 3.7423 5.1723 4.3223 5.5623 4.7123L8.5323 7.6923C8.8523 8.0123 9.3123 8.0423 9.6823 7.7723C11.2123 6.6223 13.1223 5.9423 15.1723 5.9423ZM30.3523 15.1723C30.3523 11.5423 29.0723 8.1923 26.9223 5.5623C26.6023 5.1823 26.0423 5.1823 25.6423 5.5623L22.6623 8.5323C22.3223 8.8723 22.3223 9.3123 22.5923 9.6823C23.7323 11.2223 24.4123 13.1223 24.4123 15.1723C24.4123 17.3323 23.6823 19.3223 22.4223 20.9023C22.1323 21.2823 22.1323 21.7423 22.4623 22.0623L25.4423 25.0423C25.8123 25.4223 26.3823 25.4223 26.7423 25.0123C28.9923 22.3623 30.3523 18.9423 30.3523 15.1723ZM0.0023 15.1723C0.0023 18.9523 1.3823 22.4023 3.6523 25.0523C3.9823 25.4423 4.5323 25.4223 4.9223 25.0423L7.8823 22.0623C8.2123 21.7423 8.2223 21.2823 7.9323 20.9023C6.6823 19.3223 5.9423 17.3323 5.9423 15.1723C5.9423 13.1223 6.6223 11.2223 7.7623 9.6823C8.0323 9.3123 8.0323 8.8723 7.6923 8.5323L4.7123 5.5623C4.3223 5.1823 3.7423 5.1923 3.3823 5.6223C1.2623 8.2223 0.0023 11.5523 0.0023 15.1723ZM10.7023 13.7823C10.7023 13.9523 10.8323 14.0723 11.0023 14.0723H11.6023V18.6723C11.6023 19.5323 12.1323 20.0623 12.9823 20.0623C13.8123 20.0623 14.3423 19.5323 14.3423 18.6723V17.6223H15.7923C18.0023 17.6223 19.3523 16.1223 19.4723 14.0723H20.1423C20.3123 14.0723 20.4423 13.9523 20.4423 13.7823C20.4423 13.6323 20.3123 13.5023 20.1423 13.5023H19.4723C19.3623 11.5423 18.0823 10.0623 15.9923 10.0623H13.0823C12.1323 10.0623 11.6023 10.6023 11.6023 11.5423V13.5023H11.0023C10.8323 13.5023 10.7023 13.6323 10.7023 13.7823ZM14.3423 12.0323H15.2423C16.1123 12.0323 16.6123 12.6023 16.7023 13.5023H14.3423ZM14.3423 15.7023V14.0723H16.7023C16.6123 15.0423 16.1123 15.7023 15.2223 15.7023Z" />
        </svg>
    