
        <svg xmlns="http://www.w3.org/2000/svg" viewBox="0 0 100 100">
            <path d="M0.9309 9.9459C-0.0091 9.9459 -0.2491 10.7359 0.2609 11.4159L3.1609 15.2959C3.5309 15.7959 4.1509 15.7859 4.5209 15.2959L7.4109 11.4059C7.9009 10.7359 7.6809 9.9459 6.7509 9.9459H5.3609C6.4209 5.9859 10.0309 3.0859 14.3309 3.0859C19.4709 3.0859 23.6309 7.2259 23.6309 12.3759C23.6309 17.5059 19.4709 21.6659 14.3309 21.6659C11.5209 21.6659 9.0709 20.4359 7.3509 18.4359C6.6909 17.7659 5.7809 17.5559 5.0609 18.1659C4.4209 18.7059 4.3609 19.6559 5.0609 20.4759C7.1009 23.0659 10.7809 24.7459 14.3309 24.7459C21.1609 24.7459 26.7109 19.2059 26.7109 12.3759C26.7109 5.5459 21.1609 -0.0041 14.3309 -0.0041C8.3309 -0.0041 3.3209 4.2759 2.1909 9.9459ZM12.0609 17.5859C12.6909 17.5859 13.0909 17.2059 13.0909 16.5559V14.4459H14.9009C16.9609 14.4459 18.3209 13.0859 18.4609 11.1359H19.0709C19.2709 11.1359 19.4209 10.9759 19.4209 10.7859C19.4209 10.6059 19.2709 10.4559 19.0709 10.4559H18.4509C18.2909 8.5659 16.9709 7.2659 15.0009 7.2659H12.1209C11.4309 7.2659 11.0309 7.6659 11.0309 8.3559V10.4559H10.3609C10.1609 10.4559 10.0109 10.6059 10.0109 10.7859C10.0109 10.9959 10.1609 11.1359 10.3609 11.1359H11.0309V16.5559C11.0309 17.2059 11.4309 17.5859 12.0609 17.5859ZM13.0909 8.8259H14.4509C15.5209 8.8259 16.2209 9.3859 16.3609 10.4559H13.0909ZM13.0909 12.9259V11.1359H16.3609C16.2509 12.2559 15.5709 12.9259 14.4409 12.9259Z" />
        </svg>
    