
        <svg xmlns="http://www.w3.org/2000/svg" viewBox="0 0 100 100">
            <path d="M28.2323 14.0493C28.2323 6.6693 22.5623 0.6093 15.3423 -0.0007C14.9623 -0.0307 14.6823 0.2393 14.6823 0.6093V4.4493C14.6823 4.7593 14.9023 5.0093 15.2223 5.0293C19.7123 5.5793 23.2023 9.4093 23.2023 14.0493C23.2023 16.1593 22.4723 18.1093 21.2023 19.7393C21.0323 19.9393 21.0423 20.1993 21.2223 20.3793L24.0223 23.1693C24.2823 23.4293 24.6823 23.4293 24.9123 23.1493C26.9923 20.6893 28.2323 17.5093 28.2323 14.0493ZM0.0023 14.0493C0.0023 17.5193 1.2423 20.6993 3.3123 23.1593C3.5523 23.4393 3.9423 23.4293 4.2023 23.1693L7.0123 20.3793C7.1823 20.1993 7.1923 19.9393 7.0323 19.7393C5.7423 18.1093 5.0323 16.1593 5.0323 14.0493C5.0323 9.4093 8.5223 5.5793 13.0123 5.0293C13.3223 5.0093 13.5423 4.7593 13.5423 4.4493V0.6093C13.5423 0.2393 13.2623 -0.0307 12.8923 -0.0007C5.6723 0.6093 0.0023 6.6693 0.0023 14.0493ZM11.7523 19.5893C12.1723 19.5893 12.4423 19.3293 12.4423 18.9093V15.7493H14.5923C16.5223 15.7493 17.9023 14.5093 18.0423 12.6493H18.6123C18.8323 12.6493 19.0123 12.4693 19.0123 12.2593C19.0123 12.0393 18.8323 11.8593 18.6123 11.8593H18.0323C17.8323 10.0493 16.4623 8.9193 14.6123 8.9193H11.7623C11.3423 8.9193 11.0623 9.1993 11.0623 9.6393V11.8593H10.3123C10.0923 11.8593 9.9123 12.0393 9.9123 12.2593C9.9123 12.4793 10.0923 12.6493 10.3123 12.6493H11.0623V18.9093C11.0623 19.3293 11.3323 19.5893 11.7523 19.5893ZM12.4423 10.0693H14.2623C15.5423 10.0693 16.4423 10.6593 16.6123 11.8593H12.4423ZM12.4423 14.6093V12.6493H16.6323C16.5123 13.9393 15.6323 14.6093 14.2523 14.6093Z" />
        </svg>
    