
        <svg xmlns="http://www.w3.org/2000/svg" viewBox="0 0 100 100">
            <path d="M3.4617 21.2264H17.7617C20.0517 21.2264 21.2217 20.0464 21.2217 17.7964V3.4264C21.2217 1.1764 20.0517 -0.0036 17.7617 -0.0036H3.4617C1.1717 -0.0036 0.0017 1.1564 0.0017 3.4264V17.7964C0.0017 20.0664 1.1717 21.2264 3.4617 21.2264ZM8.2017 15.9864C7.8417 15.9864 7.6317 15.7664 7.6317 15.3964V8.9664H6.8417C6.6317 8.9664 6.4817 8.8164 6.4817 8.6264C6.4817 8.4264 6.6317 8.2764 6.8417 8.2764H7.6317V5.9564C7.6317 5.5764 7.8417 5.3464 8.2017 5.3464H11.0317C12.8917 5.3464 14.2617 6.4664 14.4217 8.2764H15.0617C15.2617 8.2764 15.4217 8.4264 15.4217 8.6264C15.4217 8.8164 15.2617 8.9664 15.0617 8.9664H14.4517C14.3217 10.8264 12.9517 12.0264 11.0117 12.0264H8.7817V15.3964C8.7817 15.7664 8.5517 15.9864 8.2017 15.9864ZM8.7817 8.2764H13.2417C13.0817 6.9864 12.1017 6.3164 10.7417 6.3164H8.7817ZM8.7817 11.0664H10.7317C12.2017 11.0664 13.1417 10.3364 13.2517 8.9664H8.7817Z" />
        </svg>
    