
        <svg xmlns="http://www.w3.org/2000/svg" viewBox="0 0 100 100">
            <path d="M11.3523 22.7064C17.6023 22.7064 22.7123 17.6064 22.7123 11.3564C22.7123 5.1064 17.6023 -0.0036 11.3523 -0.0036C5.1123 -0.0036 0.0023 5.1064 0.0023 11.3564C0.0023 17.6064 5.1123 22.7064 11.3523 22.7064ZM8.9623 16.3864C8.7923 16.3864 8.6623 16.2564 8.6623 16.0764V9.6564H7.8523C7.7223 9.6564 7.6123 9.5664 7.6123 9.4264C7.6123 9.2964 7.7223 9.1964 7.8523 9.1964H8.6623V6.8164C8.6623 6.6164 8.7823 6.5064 8.9623 6.5064H11.5423C13.3223 6.5064 14.5923 7.5364 14.7023 9.1964H15.4123C15.5523 9.1964 15.6523 9.2964 15.6523 9.4264C15.6523 9.5664 15.5523 9.6564 15.4123 9.6564H14.7323C14.6323 11.3864 13.3523 12.4564 11.5423 12.4564H9.2723V16.0764C9.2723 16.2564 9.1423 16.3864 8.9623 16.3864ZM9.2723 9.1964H14.0623C13.9423 7.8164 12.9023 7.0464 11.4123 7.0464H9.2723ZM9.2723 11.8964H11.4123C12.9623 11.8964 13.9923 11.1164 14.0823 9.6564H9.2723Z" />
        </svg>
    