
        <svg xmlns="http://www.w3.org/2000/svg" viewBox="0 0 100 100">
            <path d="M4.3817 22.8467H18.4717C21.2617 22.8467 22.8517 21.2667 22.8517 18.4767V4.3667C22.8517 1.5867 21.2617 -0.0033 18.4717 -0.0033H4.3817C1.5917 -0.0033 0.0017 1.5867 0.0017 4.3667V18.4767C0.0017 21.2667 1.5917 22.8467 4.3817 22.8467ZM4.8717 19.2267C4.0417 19.2267 3.6217 18.8567 3.6217 17.9767V4.8867C3.6217 4.0067 4.0417 3.6367 4.8717 3.6367H17.9717C18.8017 3.6367 19.2217 4.0067 19.2217 4.8867V17.9767C19.2217 18.8567 18.8017 19.2267 17.9717 19.2267ZM9.2417 16.5567C9.9817 16.5567 10.4517 16.0867 10.4517 15.3267V13.8767H12.0717C13.9217 13.8767 15.1617 12.7867 15.5617 11.2167H16.2817C16.4617 11.2167 16.6017 11.0867 16.6017 10.8967C16.6017 10.7267 16.4617 10.5867 16.2817 10.5867H15.6817C15.6917 10.4167 15.7017 10.2567 15.7017 10.0767C15.7017 9.9367 15.6917 9.7967 15.6817 9.6667H16.2817C16.4617 9.6667 16.6017 9.5267 16.6017 9.3467C16.6017 9.1767 16.4617 9.0367 16.2817 9.0367H15.5817C15.2117 7.5067 14.0317 6.3967 12.2217 6.3967H9.3117C8.5317 6.3967 8.0317 6.9067 8.0317 7.6967V9.0367H7.3217C7.1417 9.0367 7.0117 9.1767 7.0117 9.3467C7.0117 9.5267 7.1417 9.6667 7.3217 9.6667H8.0317V10.5867H7.3217C7.1417 10.5867 7.0117 10.7267 7.0117 10.8967C7.0117 11.0867 7.1417 11.2167 7.3217 11.2167H8.0317V15.3267C8.0317 16.0867 8.4917 16.5567 9.2417 16.5567ZM10.4517 8.1767H11.5617C12.2817 8.1767 12.7817 8.4967 13.0417 9.0367H10.4517ZM13.2517 10.0867C13.2517 10.2667 13.2417 10.4267 13.2217 10.5867H10.4517V9.6667H13.2317C13.2517 9.7967 13.2517 9.9367 13.2517 10.0867ZM10.4517 12.1367V11.2167H13.0417C12.7717 11.7867 12.2717 12.1367 11.5517 12.1367Z" />
        </svg>
    