
        <svg xmlns="http://www.w3.org/2000/svg" viewBox="0 0 100 100">
            <path d="M0.0023 14.8585C0.0023 18.5385 1.3223 21.9085 3.5323 24.5085C3.8523 24.8985 4.3823 24.8985 4.7423 24.5285L7.6723 21.5985C7.9723 21.3085 7.9723 20.8885 7.7123 20.5585C6.4523 18.9785 5.7323 17.0085 5.7323 14.8585C5.7323 10.2185 9.1623 6.3885 13.6123 5.7585C14.0423 5.6985 14.3323 5.3785 14.3323 4.9585V0.8385C14.3323 0.3285 13.9423 -0.0415 13.4423 0.0085C5.9023 0.7585 0.0023 7.1285 0.0023 14.8585ZM29.8523 14.8585C29.8523 7.1285 23.9523 0.7585 16.4223 0.0085C15.9023 -0.0415 15.5123 0.3285 15.5123 0.8385V4.9585C15.5123 5.3785 15.8223 5.6985 16.2323 5.7585C20.6923 6.3885 24.1323 10.2185 24.1323 14.8585C24.1323 17.0085 23.4023 18.9785 22.1323 20.5685C21.8823 20.8985 21.8823 21.3085 22.1723 21.6085L25.1023 24.5385C25.4523 24.9085 25.9923 24.8985 26.3123 24.5185C28.5223 21.9085 29.8523 18.5385 29.8523 14.8585ZM10.5023 14.2785C10.5023 14.4485 10.6323 14.5985 10.8123 14.5985H11.5223V18.6985C11.5223 19.4585 11.9923 19.9285 12.7423 19.9285C13.4723 19.9285 13.9423 19.4585 13.9423 18.6985V17.2385H15.5623C17.4123 17.2385 18.6523 16.1685 19.0523 14.5985H19.7723C19.9523 14.5985 20.1023 14.4485 20.1023 14.2785C20.1023 14.0885 19.9523 13.9485 19.7723 13.9485H19.1723C19.1823 13.7885 19.1923 13.6185 19.1923 13.4585C19.1923 13.3185 19.1823 13.1785 19.1723 13.0385H19.7723C19.9523 13.0385 20.1023 12.8985 20.1023 12.7185C20.1023 12.5385 19.9523 12.4185 19.7723 12.4185H19.0823C18.7023 10.8785 17.5223 9.7785 15.7123 9.7785H12.8123C12.0223 9.7785 11.5223 10.2785 11.5223 11.0685V12.4185H10.8123C10.6323 12.4185 10.5023 12.5385 10.5023 12.7185C10.5023 12.9085 10.6323 13.0385 10.8123 13.0385H11.5223V13.9485H10.8123C10.6323 13.9485 10.5023 14.0885 10.5023 14.2785ZM13.9423 11.5485H15.0723C15.7723 11.5485 16.2823 11.8585 16.5323 12.4185H13.9423ZM16.7623 13.4685C16.7623 13.6285 16.7323 13.7985 16.7123 13.9485H13.9423V13.0385H16.7223C16.7423 13.1685 16.7623 13.3185 16.7623 13.4685ZM13.9423 15.5085V14.5985H16.5323C16.2623 15.1685 15.7623 15.5085 15.0423 15.5085Z" />
        </svg>
    