
        <svg xmlns="http://www.w3.org/2000/svg" viewBox="0 0 100 100">
            <path d="M3.9717 22.1117H18.1317C20.7317 22.1117 22.1017 20.7417 22.1017 18.1717V3.9417C22.1017 1.3717 20.7317 0.0017 18.1317 0.0017H3.9717C1.3817 0.0017 0.0017 1.3717 0.0017 3.9417V18.1717C0.0017 20.7417 1.3817 22.1117 3.9717 22.1117ZM4.1917 19.5017C3.1617 19.5017 2.6117 18.9817 2.6117 17.9017V4.2217C2.6117 3.1417 3.1617 2.6117 4.1917 2.6117H17.9217C18.9217 2.6117 19.5017 3.1417 19.5017 4.2217V17.9017C19.5017 18.9817 18.9217 19.5017 17.9217 19.5017ZM8.7917 16.3217C9.3517 16.3217 9.7017 15.9717 9.7017 15.4117V13.1217H11.6117C13.3317 13.1217 14.5417 12.1517 14.9717 10.7217H15.7117C15.9217 10.7217 16.0917 10.5617 16.0917 10.3617C16.0917 10.1617 15.9217 9.9917 15.7117 9.9917H15.1317C15.1517 9.8317 15.1617 9.6417 15.1617 9.4717C15.1617 9.3017 15.1517 9.1417 15.1417 8.9917H15.7117C15.9217 8.9917 16.0917 8.8217 16.0917 8.6217C16.0917 8.4417 15.9217 8.2717 15.7117 8.2717H14.9917C14.5817 6.8817 13.4217 5.8717 11.6917 5.8717H8.8217C8.2517 5.8717 7.8917 6.2317 7.8917 6.8217V8.2717H7.1417C6.9417 8.2717 6.7717 8.4417 6.7717 8.6217C6.7717 8.8317 6.9417 8.9917 7.1417 8.9917H7.8917V9.9917H7.1417C6.9417 9.9917 6.7717 10.1617 6.7717 10.3617C6.7717 10.5717 6.9417 10.7217 7.1417 10.7217H7.8917V15.4117C7.8917 15.9717 8.2417 16.3217 8.7917 16.3217ZM9.7017 7.2817H11.2417C12.1017 7.2817 12.7417 7.6317 13.0817 8.2717H9.7017ZM13.3317 9.4717C13.3317 9.6517 13.3217 9.8317 13.2917 9.9917H9.7017V8.9917H13.3017C13.3217 9.1417 13.3317 9.3017 13.3317 9.4717ZM9.7017 11.7417V10.7217H13.0617C12.7217 11.3717 12.0917 11.7417 11.2217 11.7417Z" />
        </svg>
    