
        <svg xmlns="http://www.w3.org/2000/svg" viewBox="0 0 100 100">
            <path d="M13.3723 4.4906C15.4723 4.4906 17.3823 5.2106 18.9023 6.4306C19.1523 6.6306 19.4623 6.6006 19.6923 6.3706L22.0123 4.0706C22.2823 3.8006 22.2823 3.4106 21.9923 3.1606C19.6623 1.1906 16.6423 0.0006 13.3723 0.0006C10.1023 0.0006 7.0823 1.1906 4.7423 3.1606C4.4623 3.4106 4.4623 3.8006 4.7323 4.0706L7.0623 6.3706C7.2923 6.6006 7.6123 6.6206 7.8723 6.4106C9.3723 5.2106 11.2923 4.4906 13.3723 4.4906ZM26.7423 13.3706C26.7423 10.0906 25.5723 7.0806 23.5823 4.7506C23.3423 4.4606 22.9323 4.4906 22.6723 4.7306L20.3623 7.0406C20.1423 7.2806 20.1323 7.6006 20.3223 7.8506C21.5423 9.3606 22.2523 11.2806 22.2523 13.3706C22.2523 15.4706 21.5323 17.4006 20.3323 18.9006C20.1223 19.1606 20.1323 19.4806 20.3523 19.7106L22.6623 22.0506C22.9223 22.3206 23.3223 22.3106 23.5623 22.0306C25.5423 19.7006 26.7423 16.6606 26.7423 13.3706ZM0.0023 13.3706C0.0023 16.6606 1.1923 19.7006 3.1923 22.0306C3.4223 22.3106 3.8323 22.3206 4.0823 22.0506L6.3823 19.7106C6.6223 19.4806 6.6323 19.1606 6.4223 18.9006C5.2223 17.4006 4.4923 15.4706 4.4923 13.3706C4.4923 11.2806 5.2123 9.3606 6.4223 7.8506C6.6223 7.6006 6.6023 7.2806 6.3723 7.0406L4.0623 4.7306C3.8123 4.4906 3.4123 4.4606 3.1623 4.7506C1.1823 7.0806 0.0023 10.0906 0.0023 13.3706ZM11.1823 18.5706C11.3523 18.5706 11.4823 18.4206 11.4823 18.2506V14.7606H13.7423C15.2623 14.7606 16.3523 14.0106 16.7423 12.8306H17.6523C17.7623 12.8306 17.8723 12.7306 17.8723 12.6106C17.8723 12.4906 17.7623 12.3906 17.6523 12.3906H16.8623C16.9123 12.1806 16.9223 11.9506 16.9223 11.7106C16.9223 11.4806 16.9123 11.2706 16.8723 11.0606H17.6523C17.7623 11.0606 17.8723 10.9706 17.8723 10.8506C17.8723 10.7206 17.7623 10.6306 17.6523 10.6306H16.7623C16.3623 9.4106 15.2723 8.6706 13.7623 8.6706H11.1723C10.9723 8.6706 10.8523 8.7906 10.8523 8.9906V10.6306H10.0323C9.9123 10.6306 9.8123 10.7206 9.8123 10.8506C9.8123 10.9806 9.9123 11.0606 10.0323 11.0606H10.8523V12.3906H10.0323C9.9123 12.3906 9.8123 12.4906 9.8123 12.6106C9.8123 12.7406 9.9123 12.8306 10.0323 12.8306H10.8523V18.2506C10.8523 18.4206 11.0023 18.5706 11.1823 18.5706ZM11.4823 9.2106H13.6323C14.8023 9.2106 15.7023 9.7106 16.0923 10.6306H11.4823ZM16.3023 11.7106C16.3023 11.9506 16.2823 12.1806 16.2323 12.3906H11.4823V11.0606H16.2323C16.2823 11.2606 16.3023 11.4806 16.3023 11.7106ZM11.4823 14.2106V12.8306H16.0823C15.6823 13.7206 14.7923 14.2106 13.6323 14.2106Z" />
        </svg>
    