
        <svg xmlns="http://www.w3.org/2000/svg" viewBox="0 0 100 100">
            <path d="M17.5647 23.5151C19.6147 23.5151 21.0347 22.8951 22.3247 21.5051C22.4047 21.4151 22.4847 21.3151 22.5847 21.2251C23.2547 20.4651 23.6147 19.6251 23.6147 18.8751C23.6147 17.9851 23.1547 17.1551 22.1047 16.4451L19.0547 14.3451C18.0347 13.6451 17.1547 13.6051 16.0347 14.1651L14.3247 15.0251C13.8947 15.2351 13.5547 15.3051 13.1047 14.9651C12.5547 14.5751 11.3947 13.6151 10.5847 12.8051C9.8047 12.0251 8.9847 11.0651 8.5647 10.3851C8.3647 10.0551 8.3747 9.7351 8.6247 9.3251L9.6247 7.6851C10.1247 6.8351 10.2047 5.8751 9.6247 5.0351L7.1047 1.4651C6.4147 0.4851 5.5547 0.0051 4.6647 0.0051C3.9047 -0.0149 3.1047 0.3151 2.3447 0.9851C2.2547 1.0651 2.1447 1.1451 2.0747 1.2151C0.6447 2.5451 0.0047 3.9351 0.0047 6.2151C0.0047 9.6551 1.9447 13.7451 5.9047 17.6651C9.8547 21.5751 13.8947 23.5151 17.5647 23.5151ZM17.5447 21.4551C14.5647 21.5051 10.8547 19.4851 7.4647 16.1451C4.0647 12.7851 2.0347 8.9851 2.0847 6.0951C2.0947 4.7651 2.5547 3.6751 3.4347 2.9151C3.5147 2.8451 3.6047 2.7751 3.6947 2.7051C4.0047 2.4351 4.3447 2.2951 4.6647 2.2951C5.0047 2.2951 5.3047 2.4351 5.5447 2.7851L7.5847 5.8251C7.8147 6.1651 7.7947 6.4951 7.5347 6.9251L6.4347 8.8051C5.9547 9.5951 5.9847 10.3151 6.5147 11.0651C7.1847 12.0051 8.1547 13.2151 9.1647 14.2251C10.3347 15.3651 11.7347 16.5251 12.4847 17.0251C13.2347 17.5151 13.9647 17.6251 14.9847 17.1251L16.7547 16.2551C17.2747 15.9951 17.6747 15.9751 18.1147 16.2551L20.7647 18.0251C21.1247 18.2451 21.2547 18.5551 21.2547 18.8951C21.2547 19.2051 21.1247 19.5451 20.8547 19.8651C20.7747 19.9551 20.7147 20.0351 20.6347 20.1351C19.8847 21.0051 18.7847 21.4451 17.5447 21.4551Z" />
        </svg>
    