
        <svg xmlns="http://www.w3.org/2000/svg" viewBox="0 0 100 100">
            <path d="M5.8947 15.5288C9.2947 18.9388 13.3447 21.5188 16.6147 21.5188C18.1547 21.5188 19.4747 20.9088 20.3547 19.9188C21.1947 18.9688 21.4947 18.2788 21.4947 17.6488C21.4947 17.1688 21.1747 16.7088 20.4347 16.1788L17.6147 14.1688C16.9147 13.6788 16.5947 13.5788 16.1847 13.5788C15.8347 13.5788 15.5147 13.6388 14.9347 13.9788L13.0947 14.9888C12.8747 15.1088 12.7747 15.1288 12.6047 15.1288C12.3947 15.1288 12.2447 15.0788 12.0347 14.9888C11.1447 14.5788 9.9147 13.6188 8.8247 12.5188C7.7347 11.4288 6.8947 10.3288 6.4347 9.4188C6.3747 9.3188 6.3147 9.1288 6.3147 8.9388C6.3147 8.7988 6.3947 8.6688 6.4847 8.5087L7.5747 6.6588C7.8647 6.1687 7.9447 5.8788 7.9447 5.4887C7.9447 5.0388 7.7947 4.5588 7.3547 3.9488L5.4247 1.2387C4.8847 0.4688 4.4647 -0.0012 3.8347 -0.0012C3.0547 -0.0012 2.1347 0.5987 1.4647 1.2288C0.5047 2.1588 0.0047 3.4488 0.0047 4.8988C0.0047 8.1788 2.5347 12.1688 5.8947 15.5288ZM12.9147 9.7388C13.1047 9.7388 13.2647 9.6688 13.3947 9.5288L18.8047 4.0988L20.6147 2.1887L20.4747 5.6788V7.8588C20.4747 8.2288 20.7547 8.5087 21.1047 8.5188C21.4647 8.5288 21.7847 8.2388 21.7847 7.8588V0.8987C21.7847 0.4288 21.5547 0.1887 21.0747 0.1887H14.0547C13.6747 0.1887 13.3747 0.5087 13.3947 0.8788C13.4047 1.2288 13.6947 1.4988 14.0547 1.4988H16.3047L19.8047 1.3588L17.8747 3.1687L12.4547 8.5788C12.3047 8.7388 12.2347 8.9088 12.2347 9.1088C12.2347 9.4588 12.5247 9.7388 12.9147 9.7388Z" />
        </svg>
    