
        <svg xmlns="http://www.w3.org/2000/svg" viewBox="0 0 100 100">
            <path d="M5.7747 15.1844C9.0847 18.5144 13.0547 21.0444 16.2547 21.0444C17.7547 21.0444 19.0547 20.4344 19.9147 19.4844C20.7347 18.5644 21.0147 17.8844 21.0147 17.2644C21.0147 16.7944 20.7047 16.3444 19.9847 15.8344L17.2147 13.8644C16.5347 13.3844 16.2347 13.2844 15.8347 13.2844C15.4847 13.2844 15.1647 13.3444 14.6047 13.6644L12.8247 14.6444C12.6047 14.7744 12.5047 14.7844 12.3547 14.7844C12.1447 14.7844 11.9847 14.7444 11.7747 14.6444C10.9147 14.2544 9.7147 13.3244 8.6347 12.2344C7.5747 11.1644 6.7647 10.1144 6.3047 9.1944C6.2447 9.0944 6.1747 8.9144 6.1747 8.7344C6.1747 8.5944 6.2547 8.4644 6.3547 8.3044L7.4047 6.5144C7.6847 6.0344 7.7647 5.7544 7.7647 5.3644C7.7647 4.9344 7.6147 4.4644 7.1947 3.8644L5.3047 1.2044C4.7847 0.4544 4.3747 0.0044 3.7547 0.0044C2.9847 0.0044 2.0847 0.5844 1.4447 1.2044C0.5047 2.1244 0.0047 3.3744 0.0047 4.7944C0.0047 8.0044 2.4747 11.8944 5.7747 15.1844ZM12.4247 9.3044C12.5347 9.3044 12.6447 9.2544 12.7247 9.1744L18.6347 3.2544L20.4347 1.3944L20.3747 4.9644V7.7244C20.3747 7.9544 20.5547 8.1344 20.7747 8.1344C21.0147 8.1444 21.1947 7.9544 21.1947 7.7244V0.5244C21.1947 0.2444 21.0547 0.1044 20.7547 0.1044H13.4647C13.2447 0.1044 13.0447 0.3044 13.0447 0.5344C13.0447 0.7644 13.2447 0.9444 13.4647 0.9444H16.3347L19.9147 0.8644L18.0447 2.6744L12.1447 8.5744C12.0347 8.6844 11.9847 8.7844 11.9847 8.9144C11.9847 9.1444 12.1747 9.3044 12.4247 9.3044Z" />
        </svg>
    