
        <svg xmlns="http://www.w3.org/2000/svg" viewBox="0 0 100 100">
            <path d="M6.5647 17.2858C10.3247 21.0458 14.8247 23.9158 18.4647 23.9158C20.1847 23.9158 21.6647 23.2358 22.6447 22.1558C23.5647 21.1158 24.0247 20.2658 24.0247 19.5658C24.0247 19.0058 23.6847 18.5258 22.8547 17.9258L19.7247 15.6758C18.9447 15.1258 18.5847 15.0358 18.1247 15.0358C17.7347 15.0358 17.4047 15.1058 16.7247 15.4758L14.7447 16.5558C14.4847 16.6958 14.3647 16.7258 14.1947 16.7258C13.9447 16.7258 13.8047 16.6658 13.5447 16.5458C12.5647 16.1058 11.2147 15.0458 9.9947 13.8358C8.7847 12.6258 7.8947 11.4458 7.3747 10.4058C7.3047 10.2758 7.2347 10.1058 7.2347 9.8758C7.2347 9.7158 7.2847 9.5358 7.3947 9.3658L8.5447 7.3458C8.8547 6.7958 8.9747 6.4758 8.9747 6.0358C8.9747 5.5558 8.8147 5.0158 8.3247 4.3358L6.1647 1.3358C5.5547 0.4658 4.9547 -0.0042 4.2647 -0.0042C3.4247 -0.0042 2.3747 0.6658 1.6247 1.3858C0.5647 2.4158 0.0047 3.8558 0.0047 5.4658C0.0047 9.1058 2.8147 13.5358 6.5647 17.2858ZM15.3847 10.7558C15.8347 10.7558 16.2447 10.5958 16.5447 10.2858L19.9447 6.9158L20.8047 5.9158L20.6047 7.3858V8.8258C20.6047 9.6658 21.2847 10.3158 22.1847 10.3158C23.0847 10.3158 23.7647 9.6958 23.7647 8.8458V3.0258C23.7647 1.6058 22.9547 0.7958 21.5347 0.7958H15.5947C14.7547 0.7958 14.1247 1.4858 14.1347 2.3858C14.1347 3.2958 14.7647 3.9758 15.6247 3.9758H17.1447L18.7147 3.7658L17.6647 4.6058L14.2647 8.0058C13.9347 8.3358 13.7547 8.7658 13.7547 9.2458C13.7547 10.1158 14.4347 10.7558 15.3847 10.7558Z" />
        </svg>
    