
        <svg xmlns="http://www.w3.org/2000/svg" viewBox="0 0 100 100">
            <path d="M13.2623 0.0008C8.8723 0.0008 3.8823 0.8508 1.4623 3.3408C0.5523 4.2808 0.0023 5.4108 0.0023 6.8408C0.0023 7.7708 0.2723 8.9308 0.9523 9.3708C1.3623 9.7408 1.9023 9.6908 2.6923 9.5608L5.9423 9.0108C7.0523 8.8408 7.6723 8.3908 7.9523 7.2908L8.4823 5.2808C8.5823 4.9108 8.7223 4.7508 9.1023 4.6008C10.0623 4.2908 11.4123 4.1408 13.2623 4.1208C15.1323 4.1108 16.4723 4.2908 17.4423 4.6008C17.8223 4.7508 17.9623 4.9108 18.0623 5.2808L18.5823 7.2908C18.8623 8.3908 19.4923 8.8408 20.6023 9.0108L23.8523 9.5608C24.6423 9.6908 25.1823 9.7408 25.5923 9.3708C26.2723 8.9308 26.5423 7.7708 26.5423 6.8408C26.5423 5.4108 25.9923 4.2808 25.0823 3.3408C22.6623 0.8508 17.6723 0.0008 13.2623 0.0008Z" />
        </svg>
    