
        <svg xmlns="http://www.w3.org/2000/svg" viewBox="0 0 100 100">
            <path d="M11.7523 23.5031C18.2323 23.5031 23.5123 18.2331 23.5123 11.7531C23.5123 5.2731 18.2323 0.0031 11.7523 0.0031C5.2723 0.0031 0.0023 5.2731 0.0023 11.7531C0.0023 18.2331 5.2723 23.5031 11.7523 23.5031ZM12.3623 11.7931C12.0623 11.7931 11.8323 11.5931 11.8323 11.3131C11.8323 11.1531 11.8823 11.0231 12.0123 10.9131L15.2123 7.7131L16.0823 6.8831L14.3623 6.9531H13.0223C12.7423 6.9531 12.5123 6.7431 12.5023 6.4531C12.4923 6.1731 12.7423 5.9131 13.0223 5.9131H17.1723C17.5123 5.9131 17.7023 6.1331 17.7023 6.4731V10.5731C17.7023 10.8631 17.4723 11.0931 17.1823 11.0931C16.9023 11.0731 16.7023 10.8531 16.7023 10.5731V9.2831L16.7623 7.5631L15.9223 8.4331L12.7223 11.6631C12.6323 11.7431 12.5023 11.7931 12.3623 11.7931ZM8.0723 15.4831C6.1123 13.5231 4.6523 11.2131 4.6523 9.3131C4.6523 8.4831 4.9523 7.7331 5.5123 7.1931C5.8923 6.8431 6.4323 6.4931 6.8823 6.4931C7.2423 6.4931 7.4723 6.7531 7.7923 7.1931L8.9223 8.7631C9.1723 9.1131 9.2623 9.4031 9.2623 9.6631C9.2623 9.8931 9.2123 10.0531 9.0223 10.3431L8.4123 11.4031C8.3623 11.5031 8.3223 11.5731 8.3223 11.6631C8.3223 11.7631 8.3523 11.8831 8.3823 11.9531C8.6523 12.4531 9.1423 13.1031 9.7623 13.7231C10.4023 14.3631 11.1123 14.9131 11.6223 15.1631C11.7523 15.2131 11.8323 15.2431 11.9623 15.2431C12.0423 15.2431 12.1023 15.2231 12.2323 15.1631L13.3023 14.5631C13.6423 14.3831 13.8123 14.3431 14.0323 14.3431C14.2723 14.3431 14.4423 14.3931 14.8623 14.6931L16.4923 15.8531C16.9223 16.1731 17.1023 16.4331 17.1023 16.7031C17.1023 17.0731 16.9423 17.4731 16.4423 18.0231C15.9223 18.5831 15.1623 18.9531 14.2723 18.9531C12.4023 18.9531 10.0423 17.4331 8.0723 15.4831Z" />
        </svg>
    