
        <svg xmlns="http://www.w3.org/2000/svg" viewBox="0 0 100 100">
            <path d="M5.7047 15.0272C8.9747 18.3072 12.9147 20.7972 16.0647 20.7972C17.5447 20.7972 18.8347 20.2072 19.6747 19.2672C20.4847 18.3472 20.7747 17.6872 20.7747 17.0772C20.7747 16.6072 20.4747 16.1572 19.7547 15.6472L17.0147 13.7072C16.3447 13.2272 16.0547 13.1372 15.6447 13.1372C15.3047 13.1372 14.9847 13.1972 14.4347 13.5072L12.6647 14.4872C12.4647 14.5972 12.3647 14.6172 12.2147 14.6172C12.0047 14.6172 11.8447 14.5772 11.6347 14.4872C10.7947 14.0872 9.6047 13.1672 8.5447 12.0972C7.4847 11.0272 6.6947 9.9972 6.2347 9.0972C6.1747 8.9872 6.1147 8.7972 6.1147 8.6272C6.1147 8.4972 6.1847 8.3572 6.2847 8.2072L7.3247 6.4472C7.6047 5.9672 7.6747 5.6972 7.6747 5.3072C7.6747 4.8772 7.5347 4.4172 7.1147 3.8272L5.2547 1.1972C4.7247 0.4572 4.3247 -0.0028 3.7047 -0.0028C2.9547 -0.0028 2.0647 0.5872 1.4147 1.1972C0.4947 2.0972 0.0047 3.3372 0.0047 4.7472C0.0047 7.9072 2.4447 11.7672 5.7047 15.0272ZM20.6047 0.0572C20.5347 0.0572 20.4347 0.1072 20.3747 0.1672L14.2247 6.3272L12.4247 8.1672L12.4447 4.5472V1.4972C12.4447 1.3372 12.3147 1.2072 12.1547 1.2072C12.0047 1.2072 11.8747 1.3372 11.8747 1.4972V8.8272C11.8747 8.9972 11.9647 9.0972 12.1747 9.0972H19.6047C19.7547 9.0972 19.9147 8.9572 19.9147 8.7872C19.9147 8.6372 19.7547 8.4872 19.6047 8.4872H16.4147L12.7947 8.5472L14.6347 6.7372L20.7847 0.5872C20.8747 0.4872 20.9047 0.4172 20.9047 0.3372C20.9047 0.1772 20.7747 0.0572 20.6047 0.0572Z" />
        </svg>
    