
        <svg xmlns="http://www.w3.org/2000/svg" viewBox="0 0 100 100">
            <path d="M3.6817 21.5722H23.9517C26.4117 21.5722 27.6317 20.3722 27.6317 17.9522V3.6322C27.6317 1.2222 26.4117 0.0022 23.9517 0.0022H3.6817C1.2317 0.0022 0.0017 1.2222 0.0017 3.6322V17.9522C0.0017 20.3722 1.2317 21.5722 3.6817 21.5722ZM19.4617 10.7822C18.9517 10.3022 18.3317 10.0522 17.6917 10.0522C17.0517 10.0522 16.4717 10.2822 15.9417 10.7622L10.6417 15.4922L8.4717 13.5322C7.9817 13.0922 7.4417 12.8622 6.8917 12.8622C6.3617 12.8622 5.8617 13.0822 5.3817 13.5222L1.8917 16.6722V3.7422C1.8917 2.5222 2.5317 1.8822 3.7017 1.8822H23.9317C25.0917 1.8822 25.7417 2.5222 25.7417 3.7422V16.6722ZM8.7317 10.9022C10.2417 10.9022 11.4817 9.6522 11.4817 8.1322C11.4817 6.6222 10.2417 5.3622 8.7317 5.3622C7.2117 5.3622 5.9617 6.6222 5.9617 8.1322C5.9617 9.6522 7.2117 10.9022 8.7317 10.9022Z" />
        </svg>
    