
        <svg xmlns="http://www.w3.org/2000/svg" viewBox="0 0 100 100">
            <path d="M12.2223 24.4436C18.9723 24.4436 24.4423 18.9636 24.4423 12.2236C24.4423 5.4736 18.9723 0.0036 12.2223 0.0036C5.4823 0.0036 0.0023 5.4736 0.0023 12.2236C0.0023 18.9636 5.4823 24.4436 12.2223 24.4436ZM7.3723 17.6236C6.1123 17.6236 5.4423 16.9436 5.4423 15.7136V8.7936C5.4423 7.5336 6.1123 6.8836 7.3723 6.8836H17.0623C18.3123 6.8836 18.9823 7.5336 18.9823 8.7936V15.7136C18.9823 16.9436 18.3123 17.6236 17.0623 17.6236ZM9.9923 12.3436C10.7823 12.3436 11.4223 11.7036 11.4223 10.9136C11.4223 10.1336 10.7823 9.4836 9.9923 9.4836C9.2123 9.4836 8.5623 10.1336 8.5623 10.9136C8.5623 11.7036 9.2123 12.3436 9.9923 12.3436ZM7.5123 16.2536H16.9123C17.3323 16.2536 17.6123 15.9836 17.6123 15.5436V14.4036L15.3323 12.3136C15.0723 12.0736 14.7523 11.9536 14.4423 11.9536C14.1223 11.9536 13.8123 12.0736 13.5423 12.3136L10.8723 14.6836L9.7823 13.7236C9.5423 13.5036 9.2623 13.3836 8.9723 13.3836C8.7223 13.3836 8.4623 13.5036 8.2123 13.7136L6.8123 14.9036V15.5436C6.8123 15.9836 7.0823 16.2536 7.5123 16.2536Z" />
        </svg>
    