
        <svg xmlns="http://www.w3.org/2000/svg" viewBox="0 0 100 100">
            <path d="M2.0296 17.7168C2.3196 19.4068 3.2296 20.2768 4.6996 20.3368V8.9268C4.6996 6.2768 6.2396 4.7268 8.8996 4.7268H23.0396L22.6696 2.6368C22.3096 0.6168 21.0596 -0.2832 19.0096 0.0768L2.6496 2.9568C0.5996 3.3268 -0.2804 4.5768 0.0796 6.6168ZM8.8996 23.3368H25.5196C27.5996 23.3368 28.6696 22.2268 28.6696 20.1868V8.9268C28.6696 6.8768 27.5996 5.7768 25.5196 5.7768H8.8996C6.8196 5.7768 5.7396 6.8568 5.7396 8.9268V20.1868C5.7396 22.2668 6.8196 23.3368 8.8996 23.3368ZM13.8596 14.5968C12.4696 14.5968 11.3396 13.4468 11.3396 12.0468C11.3396 10.6768 12.4696 9.5168 13.8596 9.5168C15.2396 9.5168 16.3796 10.6768 16.3796 12.0468C16.3796 13.4468 15.2396 14.5968 13.8596 14.5968ZM8.8296 22.5168C7.3496 22.5168 6.5496 21.7268 6.5496 20.2368V20.0668L9.9696 16.9468C10.4296 16.5068 10.8296 16.3068 11.3696 16.3068C11.9296 16.3068 12.3596 16.5268 12.8196 16.9568L14.6496 18.6368L19.4496 14.4768C19.9996 14.0168 20.4896 13.7668 21.1496 13.7668C21.8096 13.7668 22.3596 14.0268 22.8696 14.4968L27.8796 19.0768V20.2368C27.8796 21.7268 27.0296 22.5168 25.5896 22.5168Z" />
        </svg>
    