
        <svg xmlns="http://www.w3.org/2000/svg" viewBox="0 0 100 100">
            <path d="M9.9917 3.8877H23.9217V3.7577C23.8517 1.2977 22.4917 -0.0023 19.9617 -0.0023H3.9717C1.3717 -0.0023 0.0017 1.3677 0.0017 3.9377V15.1377C0.0017 17.6877 1.3317 19.0277 3.8817 19.0677H4.2317V9.6177C4.2317 6.0577 6.4117 3.8877 9.9917 3.8877ZM9.9917 24.7477H25.9817C28.5717 24.7477 29.9517 23.3877 29.9517 20.8077V9.6177C29.9517 7.0577 28.5717 5.6877 25.9817 5.6877H9.9917C7.3917 5.6877 6.0217 7.0577 6.0217 9.6177V20.8077C6.0217 23.3877 7.3917 24.7477 9.9917 24.7477ZM14.4617 15.4677C13.1017 15.4677 12.0017 14.3677 12.0017 13.0077C12.0017 11.6677 13.1017 10.5477 14.4617 10.5477C15.8017 10.5477 16.9117 11.6677 16.9117 13.0077C16.9117 14.3677 15.8017 15.4677 14.4617 15.4677ZM9.8817 22.3277C8.9717 22.3277 8.4217 21.7977 8.4217 20.8577V20.2277L11.1717 17.7577C11.5817 17.3777 12.0317 17.2077 12.4817 17.2077C12.9617 17.2077 13.4317 17.3777 13.8317 17.7577L15.6517 19.4077L20.2017 15.3777C20.6617 14.9777 21.1617 14.7877 21.7117 14.7877C22.2517 14.7877 22.7817 14.9777 23.2117 15.3877L27.5617 19.4177V20.8677C27.5617 21.7977 27.0017 22.3277 26.1117 22.3277Z" />
        </svg>
    