
        <svg xmlns="http://www.w3.org/2000/svg" viewBox="0 0 100 100">
            <path d="M3.0117 20.5048H24.0617C26.0117 20.5048 27.0617 19.4248 27.0617 17.4948V3.0148C27.0617 1.0748 26.0117 0.0048 24.0617 0.0048H3.0117C1.0417 0.0048 0.0017 1.0448 0.0017 3.0148V17.4948C0.0017 19.4648 1.0417 20.5048 3.0117 20.5048ZM0.5717 17.4648V3.0348C0.5717 1.4148 1.4217 0.5748 3.0317 0.5748H24.0217C25.5817 0.5748 26.4817 1.4148 26.4817 3.0348V17.4648C26.4817 17.5548 26.4817 17.5048 26.4817 17.5848L19.3717 11.1248C18.7717 10.5848 18.2017 10.3048 17.4417 10.3048C16.7117 10.3048 16.1817 10.5748 15.5717 11.1048L10.1717 15.9248L7.9017 13.7848C7.4017 13.3148 6.9217 13.0648 6.3017 13.0648C5.6817 13.0648 5.2517 13.3048 4.7717 13.7648L0.5817 17.7448C0.5717 17.6648 0.5717 17.5648 0.5717 17.4648ZM8.3917 10.5548C9.8917 10.5548 11.1317 9.3148 11.1317 7.7948C11.1317 6.2848 9.8917 5.0148 8.3917 5.0148C6.8517 5.0148 5.6117 6.2848 5.6117 7.7948C5.6117 9.3148 6.8517 10.5548 8.3917 10.5548Z" />
        </svg>
    