
        <svg xmlns="http://www.w3.org/2000/svg" viewBox="0 0 100 100">
            <path d="M12.7923 25.5978C19.8723 25.5978 25.6023 19.8678 25.6023 12.7978C25.6023 5.7278 19.8723 -0.0022 12.7923 -0.0022C5.7323 -0.0022 0.0023 5.7278 0.0023 12.7978C0.0023 19.8678 5.7323 25.5978 12.7923 25.5978ZM7.0423 7.6078H18.5623C18.9023 7.6078 19.1623 7.8278 19.1623 8.2078V17.4178C19.1623 17.7878 18.9023 18.0078 18.5623 18.0078H7.0423C6.7023 18.0078 6.4423 17.7878 6.4423 17.4178V8.2078C6.4423 7.8278 6.7023 7.6078 7.0423 7.6078ZM8.0423 16.2978C8.0423 16.4078 8.0823 16.4378 8.1723 16.4378H17.4423C17.5223 16.4378 17.5523 16.4078 17.5523 16.2978V9.3278C17.5523 9.2178 17.5223 9.1778 17.4423 9.1778H8.1723C8.0823 9.1778 8.0423 9.2178 8.0423 9.3278ZM8.6023 15.7078V9.9178C8.6023 9.8078 8.6723 9.7578 8.7823 9.7578H16.8123C16.9323 9.7578 17.0023 9.8078 17.0023 9.9178V15.7078C17.0023 15.8178 16.9323 15.8578 16.8123 15.8578H8.7823C8.6723 15.8578 8.6023 15.8178 8.6023 15.7078ZM9.3023 14.4678L10.3723 13.5678C10.5223 13.4378 10.6323 13.3678 10.8023 13.3678C10.9823 13.3678 11.1523 13.4178 11.3123 13.5678L11.9323 14.1478L13.5223 12.7278C13.6623 12.5878 13.8523 12.5278 14.0323 12.5278C14.2123 12.5278 14.4023 12.5978 14.5423 12.7278L16.3023 14.3578V10.5078C16.3023 10.4578 16.2623 10.4278 16.2423 10.4278H9.3623C9.3323 10.4278 9.3023 10.4578 9.3023 10.5078ZM10.7623 12.0278C10.7623 11.5478 11.1723 11.1178 11.6823 11.1178C12.1623 11.1178 12.6023 11.5478 12.6023 12.0278C12.6023 12.5378 12.1623 12.9478 11.6823 12.9478C11.1723 12.9478 10.7623 12.5378 10.7623 12.0278Z" />
        </svg>
    