
        <svg xmlns="http://www.w3.org/2000/svg" viewBox="0 0 100 100">
            <path d="M3.6817 21.5722H23.9517C26.4117 21.5722 27.6317 20.3722 27.6317 17.9522V3.6322C27.6317 1.2222 26.4117 0.0022 23.9517 0.0022H3.6817C1.2317 0.0022 0.0017 1.2222 0.0017 3.6322V17.9522C0.0017 20.3722 1.2317 21.5722 3.6817 21.5722ZM8.7917 11.0822C7.1917 11.0822 5.8917 9.7822 5.8917 8.1922C5.8917 6.6122 7.1917 5.2922 8.7917 5.2922C10.3717 5.2922 11.6717 6.6122 11.6717 8.1922C11.6717 9.7822 10.3717 11.0822 8.7917 11.0822ZM3.7017 19.7022C2.5617 19.7022 1.8917 19.0222 1.8917 17.8722V17.1522L5.4817 14.0122C6.0017 13.5622 6.5617 13.3222 7.0817 13.3222C7.6517 13.3222 8.2517 13.5622 8.7617 14.0422L11.0017 16.0522L16.6017 11.0822C17.1817 10.5722 17.8217 10.3322 18.4917 10.3322C19.1417 10.3322 19.8017 10.5822 20.3517 11.1022L25.7417 16.0922V17.8922C25.7417 19.0222 25.0517 19.7022 23.9417 19.7022Z" />
        </svg>
    