
        <svg xmlns="http://www.w3.org/2000/svg" viewBox="0 0 100 100">
            <path d="M4.7317 0.783H19.5817C19.5717 0.333 19.2817 0.003 18.7817 0.003H5.5317C5.0517 0.003 4.7417 0.333 4.7317 0.783ZM2.5117 3.483H21.8117C21.7717 3.013 21.4817 2.663 20.9717 2.663H3.3417C2.8317 2.663 2.5517 3.013 2.5117 3.483ZM3.1417 24.163H21.1717C23.2417 24.163 24.3117 23.063 24.3117 21.033V8.773C24.3117 6.753 23.2417 5.653 21.1717 5.653H3.1417C1.0817 5.653 0.0017 6.723 0.0017 8.773V21.033C0.0017 23.083 1.0817 24.163 3.1417 24.163ZM8.7317 14.873C7.2617 14.873 6.0817 13.663 6.0817 12.183C6.0817 10.733 7.2617 9.503 8.7317 9.503C10.1917 9.503 11.3917 10.733 11.3917 12.183C11.3917 13.663 10.1917 14.873 8.7317 14.873ZM3.1717 23.293C1.6617 23.293 0.8717 22.503 0.8717 20.993V20.623L4.5017 17.313C4.9717 16.863 5.3917 16.633 5.9517 16.633C6.5617 16.633 7.0117 16.863 7.5017 17.323L9.4217 19.113L14.4917 14.733C15.0817 14.213 15.5817 13.973 16.2817 13.973C16.9717 13.973 17.5517 14.223 18.1017 14.743L23.4517 19.653V20.993C23.4517 22.503 22.6017 23.293 21.1417 23.293Z" />
        </svg>
    