
        <svg xmlns="http://www.w3.org/2000/svg" viewBox="0 0 100 100">
            <path d="M3.6817 18.312H5.7917V20.112C5.7917 22.532 7.0117 23.742 9.4717 23.742H25.4717C27.9117 23.742 29.1517 22.522 29.1517 20.112V9.062C29.1517 6.642 27.9117 5.422 25.4717 5.422H23.3717V3.632C23.3717 1.222 22.1217 0.002 19.6917 0.002H3.6817C1.2217 0.002 0.0017 1.222 0.0017 3.632V14.682C0.0017 17.112 1.2217 18.312 3.6817 18.312ZM3.7017 16.432C2.5317 16.432 1.8917 15.812 1.8917 14.592V3.742C1.8917 2.522 2.5317 1.882 3.7017 1.882H19.6517C20.8117 1.882 21.4817 2.522 21.4817 3.742V5.422H9.4717C7.0117 5.422 5.7917 6.642 5.7917 9.062V16.432ZM7.6717 9.162C7.6717 7.942 8.3217 7.312 9.4917 7.312H25.4417C26.6017 7.312 27.2717 7.942 27.2717 9.162V18.292L22.8917 14.152C22.4317 13.732 21.8717 13.522 21.3017 13.522C20.7217 13.522 20.2017 13.712 19.7217 14.142L14.9917 18.342L13.1017 16.642C12.6517 16.232 12.1717 16.042 11.6717 16.042C11.2117 16.042 10.7817 16.232 10.3217 16.622L7.6717 18.922ZM14.1417 14.412C15.5017 14.412 16.6217 13.282 16.6217 11.902C16.6217 10.562 15.5017 9.422 14.1417 9.422C12.7717 9.422 11.6617 10.562 11.6617 11.902C11.6617 13.282 12.7717 14.412 14.1417 14.412Z" />
        </svg>
    