
        <svg xmlns="http://www.w3.org/2000/svg" viewBox="0 0 100 100">
            <path d="M9.7617 3.865H23.6717V3.705C23.6417 1.265 22.3217 -0.005 19.8417 -0.005H3.8417C1.3117 -0.005 0.0017 1.305 0.0017 3.805V14.945C0.0017 17.435 1.2917 18.725 3.7817 18.745H4.2117V9.375C4.2117 5.915 6.2917 3.865 9.7617 3.865ZM9.7617 24.315H25.7617C28.2917 24.315 29.6017 23.015 29.6017 20.505V9.375C29.6017 6.875 28.2917 5.575 25.7617 5.575H9.7617C7.2317 5.575 5.9217 6.875 5.9217 9.375V20.505C5.9217 23.015 7.2317 24.315 9.7617 24.315ZM14.0717 15.175C12.7117 15.175 11.6017 14.065 11.6017 12.705C11.6017 11.355 12.7117 10.215 14.0717 10.215C15.4217 10.215 16.5317 11.355 16.5317 12.705C16.5317 14.065 15.4217 15.175 14.0717 15.175ZM9.5117 22.235C8.5517 22.235 7.9717 21.645 7.9717 20.685V20.095L10.8317 17.535C11.2517 17.145 11.7117 16.955 12.1517 16.955C12.6417 16.955 13.1217 17.155 13.5517 17.535L15.4117 19.215L20.0417 15.105C20.5217 14.685 21.0217 14.495 21.5817 14.495C22.1517 14.495 22.6717 14.695 23.1317 15.115L27.5617 19.245V20.695C27.5617 21.655 26.9617 22.235 26.0417 22.235Z" />
        </svg>
    