
        <svg xmlns="http://www.w3.org/2000/svg" viewBox="0 0 100 100">
            <path d="M3.6817 21.5722C1.2317 21.5722 0.0017 20.3722 0.0017 17.9522V3.6322C0.0017 1.2222 1.2317 0.0022 3.6817 0.0022H23.9517C26.4117 0.0022 27.6317 1.2222 27.6317 3.6322V17.9522C27.6317 20.3722 26.4117 21.5722 23.9517 21.5722H21.0517V12.6122H21.3517C21.9117 12.6122 22.4417 12.2822 22.4417 11.4222V0.0122H18.5517V11.4222C18.5517 12.2822 19.0817 12.6122 19.6417 12.6122H19.9617V21.5722H21.0517V21.5822H19.9617V21.5722H14.3717V12.6122H14.6717C15.2317 12.6122 15.7617 12.2822 15.7617 11.4222V0.0122H11.8717V11.4222C11.8717 12.2822 12.4117 12.6122 12.9617 12.6122H13.2817V21.5722H14.3717V21.5822H13.2817V21.5722H7.6917V12.6122H7.9917C8.5517 12.6122 9.0817 12.2822 9.0817 11.4222V0.0122H5.1917V11.4222C5.1917 12.2822 5.7317 12.6122 6.2917 12.6122H6.6017V21.5722H7.6917V21.5822H6.6017V21.5722Z" />
        </svg>
    