
        <svg xmlns="http://www.w3.org/2000/svg" viewBox="0 0 100 100">
            <path d="M1.7347 18.1196C4.0447 20.4296 7.1047 20.4296 9.3947 18.1296L18.1247 9.3996C20.4247 7.0996 20.4147 4.0096 18.1147 1.7196C15.7947 -0.5704 12.7347 -0.5704 10.4547 1.7096L1.7147 10.4496C-0.5753 12.7396 -0.5753 15.8296 1.7347 18.1196ZM11.9647 3.4896C13.3447 2.1096 15.1547 2.0596 16.4647 3.3896C17.7747 4.6996 17.7347 6.5096 16.3547 7.8796L12.9447 11.2896L8.5647 6.8896ZM3.3847 16.4696C2.0747 15.1396 2.1047 13.3496 3.4947 11.9696L6.9047 8.5596L11.2947 12.9396L7.8747 16.3596C6.5047 17.7296 4.6947 17.7796 3.3847 16.4696ZM21.9147 24.9196C25.5847 24.9196 28.5247 21.9496 28.5247 18.2796C28.5247 14.6596 25.5547 11.6996 21.9147 11.6996C18.2647 11.6996 15.3047 14.6596 15.3047 18.2796C15.3047 21.9396 18.2647 24.9196 21.9147 24.9196ZM21.9147 13.9896C23.8947 13.9896 25.5847 15.3396 26.0847 17.1596H17.7547C18.2447 15.3396 19.9247 13.9896 21.9147 13.9896ZM21.9147 22.6096C19.9247 22.6096 18.2447 21.2596 17.7547 19.4296H26.0847C25.5847 21.2696 23.9147 22.6096 21.9147 22.6096Z" />
        </svg>
    