
        <svg xmlns="http://www.w3.org/2000/svg" viewBox="0 0 100 100">
            <path d="M11.4923 22.9836C17.8123 22.9836 22.9823 17.8136 22.9823 11.4836C22.9823 5.1536 17.8123 0.0036 11.4923 0.0036C5.1723 0.0036 0.0023 5.1536 0.0023 11.4836C0.0023 17.8136 5.1723 22.9836 11.4923 22.9836ZM16.7323 6.2336C18.1023 7.5836 18.1023 9.3636 16.7223 10.7436L13.9823 13.5036L9.4723 8.9736L12.2223 6.2336C13.6123 4.8636 15.3623 4.8736 16.7323 6.2336ZM6.2323 16.7436C4.8823 15.3836 4.8623 13.6036 6.2423 12.2136L9.0023 9.4736L13.5023 13.9836L10.7623 16.7336C9.4123 18.1036 7.6123 18.0936 6.2323 16.7436Z" />
        </svg>
    