
        <svg xmlns="http://www.w3.org/2000/svg" viewBox="0 0 100 100">
            <path d="M13.5339 12.2828L17.2139 8.6028C19.4039 6.4228 19.4439 3.6028 17.3539 1.5228C15.2539 -0.5572 12.4439 -0.4972 10.2739 1.6628L6.5939 5.3428ZM12.3039 13.5228L5.3539 6.5728L1.6739 10.2728C-0.5161 12.4428 -0.5561 15.2728 1.5339 17.3428C3.6339 19.4328 6.4439 19.3828 8.6139 17.2128ZM27.6039 16.5328C27.1939 13.5628 24.6339 11.2528 21.5239 11.2528C18.4239 11.2528 15.8639 13.5628 15.4539 16.5328ZM27.6039 18.2528H15.4539C15.8739 21.2328 18.4239 23.5428 21.5239 23.5428C24.6539 23.5428 27.1939 21.2328 27.6039 18.2528Z" />
        </svg>
    