
        <svg xmlns="http://www.w3.org/2000/svg" viewBox="0 0 100 100">
            <path d="M11.3523 22.7147C17.6023 22.7147 22.7123 17.6047 22.7123 11.3547C22.7123 5.1047 17.6023 0.0047 11.3523 0.0047C5.1123 0.0047 0.0023 5.1047 0.0023 11.3547C0.0023 17.6047 5.1123 22.7147 11.3523 22.7147ZM11.1023 11.5647L7.5123 7.9847L9.7123 5.7747C10.8023 4.6847 12.1723 4.6947 13.2923 5.7847C14.3823 6.8647 14.3823 8.2747 13.2923 9.3647ZM10.6723 11.9747L8.4523 14.2247C7.3823 15.3147 5.9523 15.2947 4.8623 14.2147C3.7823 13.1347 3.7623 11.7147 4.8523 10.6247L7.0823 8.3947ZM18.1123 14.1347H11.7423C11.8223 12.5747 13.2323 11.2347 14.9023 11.2347C16.6323 11.2347 18.0223 12.5747 18.1123 14.1347ZM18.1123 14.7147C18.0223 16.2747 16.6323 17.6147 14.9023 17.6147C13.2223 17.6147 11.8223 16.2747 11.7423 14.7147Z" />
        </svg>
    