
        <svg xmlns="http://www.w3.org/2000/svg" viewBox="0 0 100 100">
            <path d="M1.6632 17.7403C3.9032 19.9603 6.8232 19.9703 9.0232 17.7603L17.7632 9.0203C19.9632 6.8203 19.9632 3.8703 17.7432 1.6603C15.5132 -0.5497 12.5832 -0.5497 10.3832 1.6503L1.6532 10.3803C-0.5568 12.5803 -0.5568 15.5403 1.6632 17.7403ZM11.6032 3.1203C13.0532 1.6503 15.0032 1.6003 16.3932 3.0103C17.8032 4.4203 17.7532 6.3503 16.2832 7.8103L12.7332 11.3703L8.0332 6.6803ZM3.0132 16.3903C1.6132 15.0003 1.6632 13.0503 3.1132 11.6003L6.6932 8.0303L11.3932 12.7103L7.8132 16.2903C6.3532 17.7503 4.4132 17.8003 3.0132 16.3903ZM21.3232 24.2603C24.8732 24.2603 27.7332 21.4003 27.7332 17.8603C27.7332 14.3503 24.8632 11.4803 21.3232 11.4803C17.8132 11.4803 14.9432 14.3503 14.9432 17.8603C14.9432 21.3903 17.8132 24.2603 21.3232 24.2603ZM21.3232 13.3703C23.4932 13.3703 25.3132 14.8903 25.7432 16.9103H16.9332C17.3632 14.8903 19.1832 13.3703 21.3232 13.3703ZM21.3232 22.3703C19.1732 22.3703 17.3632 20.8503 16.9332 18.8203H25.7432C25.3132 20.8603 23.5032 22.3703 21.3232 22.3703Z" />
        </svg>
    