
        <svg xmlns="http://www.w3.org/2000/svg" viewBox="0 0 100 100">
            <path d="M11.4923 22.977C17.8323 22.977 22.9823 17.847 22.9823 11.497C22.9823 5.147 17.8323 -0.003 11.4923 -0.003C5.1423 -0.003 0.0023 5.147 0.0023 11.497C0.0023 17.847 5.1423 22.977 11.4923 22.977ZM11.4923 22.087C5.6323 22.087 0.8923 17.357 0.8923 11.497C0.8923 5.637 5.6323 0.887 11.4923 0.887C17.3523 0.887 22.0923 5.637 22.0923 11.497C22.0923 17.357 17.3523 22.087 11.4923 22.087ZM16.7123 6.277C15.3323 4.917 13.6023 4.907 12.2223 6.277L9.4823 9.007L13.9523 13.497L16.6923 10.757C18.0623 9.387 18.0723 7.617 16.7123 6.277ZM6.2723 16.727C7.6423 18.057 9.4223 18.067 10.7623 16.707L13.4923 13.967L9.0123 9.497L6.2723 12.227C4.9123 13.607 4.9223 15.377 6.2723 16.727Z" />
        </svg>
    