
        <svg xmlns="http://www.w3.org/2000/svg" viewBox="0 0 100 100">
            <path d="M14.3052 12.5225L17.6852 9.1525C19.9852 6.8525 20.0152 3.8025 17.8152 1.6225C15.6052 -0.5775 12.5852 -0.5475 10.2752 1.7625L6.9152 5.1425ZM12.5352 14.3025L5.1352 6.9025L1.7552 10.2825C-0.5548 12.5925 -0.5748 15.6425 1.6152 17.8125C3.8352 20.0225 6.8552 19.9825 9.1552 17.6725ZM28.6652 16.9225C28.1252 13.9125 25.4752 11.6325 22.2852 11.6325C19.1152 11.6325 16.4652 13.9125 15.9252 16.9225ZM28.6652 19.2925H15.9252C16.4752 22.3225 19.1152 24.6125 22.2852 24.6125C25.4852 24.6125 28.1252 22.3225 28.6652 19.2925Z" />
        </svg>
    