
        <svg xmlns="http://www.w3.org/2000/svg" viewBox="0 0 100 100">
            <path d="M1.8242 18.9647H8.0942V24.5047C8.0942 26.1547 8.9342 27.8247 9.2542 27.8247C9.5742 27.8247 10.4042 26.1547 10.4042 24.5047V18.9647H16.6742C17.7842 18.9647 18.5042 18.2547 18.5042 17.2047C18.5042 14.6847 16.5042 12.1847 13.4442 10.9647L13.0542 5.4247C14.5642 4.4247 15.9542 3.3247 16.5442 2.5547C16.8742 2.1447 17.0242 1.7247 17.0242 1.3447C17.0242 0.5747 16.4342 0.0047 15.5542 0.0047H2.9542C2.0742 0.0047 1.4742 0.5747 1.4742 1.3447C1.4742 1.7247 1.6242 2.1447 1.9542 2.5547C2.5542 3.3247 3.9542 4.4247 5.4542 5.4247L5.0742 10.9647C2.0042 12.1847 0.0042 14.6847 0.0042 17.2047C0.0042 18.2547 0.7142 18.9647 1.8242 18.9647ZM7.5342 4.4847C7.5442 4.2847 7.5142 4.2047 7.3742 4.1247C5.7742 3.3047 4.5442 2.3547 4.3642 2.0947C4.2642 1.9647 4.3442 1.8647 4.4742 1.8647H14.0342C14.1542 1.8647 14.2342 1.9647 14.1442 2.0947C13.9642 2.3547 12.7242 3.3047 11.1342 4.1247C10.9942 4.2047 10.9542 4.2847 10.9642 4.4847L11.3242 10.3547C10.6542 10.2447 9.9742 10.1747 9.2542 10.1747C8.5442 10.1747 7.8542 10.2447 7.1842 10.3547ZM2.3642 16.9847C2.1342 16.9847 2.0142 16.8547 2.0642 16.5747C2.3442 14.4747 5.1142 12.0947 9.2542 12.0947C13.4042 12.0947 16.1642 14.4747 16.4442 16.5747C16.4842 16.8547 16.3742 16.9847 16.1442 16.9847Z" />
        </svg>
    