
        <svg xmlns="http://www.w3.org/2000/svg" viewBox="0 0 100 100">
            <path d="M3.4617 21.2264H17.7617C20.0517 21.2264 21.2217 20.0464 21.2217 17.7964V3.4264C21.2217 1.1764 20.0517 -0.0036 17.7617 -0.0036H3.4617C1.1717 -0.0036 0.0017 1.1564 0.0017 3.4264V17.7964C0.0017 20.0664 1.1717 21.2264 3.4617 21.2264ZM5.9317 12.9964C5.9317 11.6564 6.9917 10.2864 8.7117 9.7064L8.9017 6.7464C8.1517 6.3064 7.4317 5.7664 7.0917 5.3364C6.9117 5.1064 6.8117 4.8864 6.8117 4.6964C6.8117 4.3564 7.0817 4.1264 7.4617 4.1264H13.7717C14.1717 4.1264 14.4217 4.3564 14.4217 4.6964C14.4217 4.8864 14.3417 5.0864 14.1817 5.2964C13.8417 5.7464 13.1017 6.3064 12.3417 6.7464L12.5417 9.7064C14.2517 10.2864 15.3117 11.6564 15.3117 12.9964C15.3117 13.4664 15.0017 13.7564 14.5117 13.7564H11.2217V16.2064C11.2217 17.2964 10.8017 18.2264 10.6217 18.2264C10.4317 18.2264 10.0117 17.2964 10.0117 16.2064V13.7564H6.7217C6.2417 13.7564 5.9317 13.4664 5.9317 12.9964Z" />
        </svg>
    