
        <svg xmlns="http://www.w3.org/2000/svg" viewBox="0 0 100 100">
            <path d="M11.4923 22.977C17.8323 22.977 22.9823 17.847 22.9823 11.497C22.9823 5.147 17.8323 -0.003 11.4923 -0.003C5.1423 -0.003 0.0023 5.147 0.0023 11.497C0.0023 17.847 5.1423 22.977 11.4923 22.977ZM11.4923 22.087C5.6323 22.087 0.8923 17.357 0.8923 11.497C0.8923 5.637 5.6323 0.887 11.4923 0.887C17.3523 0.887 22.0923 5.637 22.0923 11.497C22.0923 17.357 17.3523 22.087 11.4923 22.087ZM6.9123 14.027C6.9123 14.417 7.1823 14.647 7.5923 14.647H11.0623V17.457C11.0623 18.247 11.3423 18.947 11.4823 18.947C11.6223 18.947 11.9023 18.247 11.9023 17.457V14.647H15.3623C15.7823 14.647 16.0523 14.417 16.0523 14.027C16.0523 12.637 14.9623 11.287 13.2823 10.727L13.0823 7.637C13.6923 7.267 14.4223 6.707 14.7923 6.237C14.9423 6.037 15.0323 5.837 15.0323 5.687C15.0323 5.387 14.8223 5.187 14.4723 5.187H8.4923C8.1723 5.187 7.9423 5.387 7.9423 5.687C7.9423 5.847 8.0523 6.057 8.2223 6.277C8.5923 6.747 9.3023 7.277 9.9023 7.637L9.6923 10.727C8.0023 11.287 6.9123 12.637 6.9123 14.027Z" />
        </svg>
    