
        <svg xmlns="http://www.w3.org/2000/svg" viewBox="0 0 100 100">
            <path d="M4.1417 22.4041H18.2717C20.9517 22.4041 22.4017 20.9541 22.4017 18.3041V4.1141C22.4017 1.4641 20.9517 0.0041 18.2717 0.0041H4.1417C1.4617 0.0041 0.0017 1.4541 0.0017 4.1141V18.3041C0.0017 20.9541 1.4617 22.4041 4.1417 22.4041ZM6.4717 13.3641C6.4717 12.0841 7.6217 10.8241 9.2617 10.2041L9.4417 7.4741C8.5617 6.9741 7.9117 6.4441 7.6017 6.0741C7.4317 5.8441 7.3317 5.6141 7.3317 5.4041C7.3317 4.9841 7.6717 4.6641 8.1317 4.6641H14.4417C14.8917 4.6641 15.2317 4.9841 15.2317 5.4041C15.2317 5.6141 15.1417 5.8441 14.9717 6.0541C14.6817 6.4441 14.0117 6.9741 13.1217 7.4741L13.3117 10.2041C14.9517 10.8241 16.1117 12.0841 16.1117 13.3641C16.1117 13.9441 15.7117 14.3241 15.1417 14.3241H12.2217V16.4141C12.2217 17.4041 11.5517 18.7741 11.2817 18.7741C11.0117 18.7741 10.3517 17.4041 10.3517 16.4141V14.3241H7.4317C6.8517 14.3241 6.4717 13.9441 6.4717 13.3641Z" />
        </svg>
    