
        <svg xmlns="http://www.w3.org/2000/svg" viewBox="0 0 100 100">
            <path d="M12.6023 25.1969C19.5623 25.1969 25.2023 19.5569 25.2023 12.5969C25.2023 5.6369 19.5623 -0.0031 12.6023 -0.0031C5.6523 -0.0031 0.0023 5.6369 0.0023 12.5969C0.0023 19.5569 5.6523 25.1969 12.6023 25.1969ZM7.7423 14.6969C7.7423 13.4269 8.9623 12.2269 10.5623 11.6169L10.7423 8.9269C9.8523 8.4269 9.2323 7.9069 8.9423 7.5569C8.7623 7.3369 8.6823 7.0969 8.6823 6.8769C8.6823 6.4169 9.0323 6.0969 9.5123 6.0969H15.6923C16.1723 6.0969 16.5323 6.4169 16.5323 6.8769C16.5323 7.0869 16.4323 7.3269 16.2623 7.5469C16.0123 7.9069 15.3523 8.4169 14.4723 8.9269L14.6523 11.6169C16.2523 12.2269 17.4623 13.4269 17.4623 14.6969C17.4623 15.3169 17.0523 15.7169 16.4423 15.7169H13.6323V17.7769C13.6323 18.5869 12.9023 20.0969 12.6123 20.0969C12.3023 20.0969 11.5823 18.5869 11.5823 17.7769V15.7169H8.7623C8.1523 15.7169 7.7423 15.3169 7.7423 14.6969Z" />
        </svg>
    