
        <svg xmlns="http://www.w3.org/2000/svg" viewBox="0 0 100 100">
            <path d="M11.3523 22.7147C17.6023 22.7147 22.7123 17.6047 22.7123 11.3547C22.7123 5.1047 17.6023 0.0047 11.3523 0.0047C5.1123 0.0047 0.0023 5.1047 0.0023 11.3547C0.0023 17.6047 5.1123 22.7147 11.3523 22.7147ZM6.7923 13.9847C6.7923 12.5347 7.9123 11.1947 9.6023 10.6447L9.8123 7.4647C9.2923 7.1247 8.5623 6.5947 8.1923 6.1147C8.0123 5.8947 7.9023 5.6847 7.9023 5.5347C7.9023 5.2647 8.1123 5.0847 8.4123 5.0847H14.2823C14.6123 5.0847 14.8023 5.2647 14.8023 5.5347C14.8023 5.6747 14.7223 5.8747 14.5623 6.0547C14.1923 6.5647 13.4423 7.1147 12.8923 7.4647L13.1023 10.6447C14.7923 11.1947 15.9023 12.5347 15.9023 13.9847C15.9023 14.3247 15.6423 14.5347 15.2623 14.5347H11.6823V17.5547C11.6823 18.1947 11.4623 18.7947 11.3423 18.7947C11.2223 18.7947 11.0123 18.1947 11.0123 17.5547V14.5347H7.4223C7.0523 14.5347 6.7923 14.3247 6.7923 13.9847Z" />
        </svg>
    