
        <svg xmlns="http://www.w3.org/2000/svg" viewBox="0 0 100 100">
            <path d="M4.5917 23.2359H18.6417C21.5417 23.2359 23.2417 21.5459 23.2417 18.6459V4.5959C23.2417 1.6959 21.5417 -0.0041 18.6417 -0.0041H4.5917C1.7017 -0.0041 0.0017 1.6959 0.0017 4.5959V18.6459C0.0017 21.5459 1.7017 23.2359 4.5917 23.2359ZM5.2217 19.0759C4.5117 19.0759 4.1617 18.7859 4.1617 18.0159V5.2359C4.1617 4.4659 4.5117 4.1759 5.2217 4.1759H18.0117C18.7217 4.1759 19.0817 4.4659 19.0817 5.2359V18.0159C19.0817 18.7859 18.7217 19.0759 18.0117 19.0759ZM7.0917 13.5559C7.0917 14.1459 7.4917 14.5359 8.0717 14.5359H10.5917V16.4259C10.5917 17.0459 11.3317 18.5759 11.6217 18.5759C11.9217 18.5759 12.6517 17.0459 12.6517 16.4259V14.5359H15.1917C15.7717 14.5359 16.1717 14.1459 16.1717 13.5559C16.1717 12.3859 14.9917 11.3159 13.5517 10.7459L13.3817 8.2859C14.2017 7.8159 14.7817 7.3559 15.0117 7.0459C15.1617 6.8359 15.2617 6.6059 15.2617 6.3959C15.2617 5.9559 14.9017 5.6359 14.4517 5.6359H8.8117C8.3417 5.6359 7.9917 5.9559 7.9917 6.3959C7.9917 6.6059 8.0817 6.8459 8.2517 7.0459C8.5117 7.3459 9.0617 7.8159 9.8817 8.2859L9.7017 10.7459C8.2617 11.3159 7.0917 12.3859 7.0917 13.5559Z" />
        </svg>
    