
        <svg xmlns="http://www.w3.org/2000/svg" viewBox="0 0 100 100">
            <path d="M5.7893 -0.0027C4.8693 -0.0027 4.2493 0.5973 4.2493 1.4173C4.2493 1.8073 4.3993 2.2473 4.7293 2.6673C5.3193 3.4373 6.6993 4.5373 8.3893 5.5473L8.3093 6.7873L20.5593 19.0273C21.1593 18.7373 21.5093 18.1673 21.5093 17.4173C21.5093 14.8573 19.4793 12.2773 16.2493 11.0473L15.8593 5.5473C17.5593 4.5473 18.9193 3.4573 19.5193 2.6973C19.8593 2.2573 20.0193 1.8173 20.0193 1.4173C20.0193 0.5973 19.3893 -0.0027 18.4693 -0.0027ZM0.2693 3.6473L21.8793 25.2373C22.2693 25.6173 22.8793 25.6073 23.2393 25.2373C23.6093 24.8573 23.6093 24.2673 23.2393 23.8973L1.6293 2.3073C1.2593 1.9373 0.6393 1.9173 0.2693 2.2973C-0.0907 2.6573 -0.0907 3.2973 0.2693 3.6473ZM2.7593 17.4173C2.7593 18.5273 3.5193 19.2673 4.6693 19.2673H10.8793V24.8473C10.8793 26.3873 11.7793 28.1873 12.1293 28.1873C12.4693 28.1873 13.3693 26.3873 13.3693 24.8473V19.4373H13.8393L6.3293 11.9173C4.1093 13.2673 2.7593 15.3373 2.7593 17.4173Z" />
        </svg>
    