
        <svg xmlns="http://www.w3.org/2000/svg" viewBox="0 0 100 100">
            <path d="M3.8417 19.55H11.4017V21.32C11.4017 23.81 12.7217 25.11 15.2417 25.11H27.0317C29.5617 25.11 30.8817 23.81 30.8817 21.32V13.52C30.8817 11.03 29.5617 9.71 27.0317 9.71H24.8517V3.8C24.8517 1.3 23.5317 0 21.0117 0H3.8417C1.3117 0 0.0017 1.29 0.0017 3.8V15.74C0.0017 18.25 1.3117 19.55 3.8417 19.55ZM3.9817 17.25C2.8917 17.25 2.3017 16.69 2.3017 15.55V4C2.3017 2.86 2.8917 2.29 3.9817 2.29H20.8717C21.9517 2.29 22.5617 2.86 22.5617 4V9.71H15.2417C12.7217 9.71 11.4017 11.02 11.4017 13.52V17.25ZM9.5017 5.32C9.4617 4.9 8.9517 4.5 8.4717 4.97L7.2217 6.21L5.4217 4.42C5.1217 4.11 4.6317 4.11 4.3217 4.42C4.0217 4.72 4.0117 5.21 4.3217 5.52L6.1217 7.31L4.8717 8.57C4.4017 9.06 4.7917 9.55 5.2217 9.61L9.3317 10.2C9.5617 10.23 9.7717 10.15 9.9117 10.02C10.0517 9.87 10.1217 9.66 10.1017 9.43ZM15.4817 17.58L14.8917 13.46C14.8617 13.24 14.9417 13.03 15.0717 12.88C15.2217 12.75 15.4317 12.67 15.6517 12.7L19.7717 13.29C20.1917 13.34 20.6017 13.85 20.1117 14.33L18.8817 15.59L20.6717 17.38C20.9717 17.68 20.9717 18.18 20.6717 18.48C20.3717 18.79 19.8717 18.79 19.5617 18.48L17.7617 16.69L16.5217 17.93C16.0417 18.41 15.5317 18 15.4817 17.58Z" />
        </svg>
    