
        <svg xmlns="http://www.w3.org/2000/svg" viewBox="0 0 100 100">
            <path d="M3.8417 19.55H11.4017V21.32C11.4017 23.81 12.7217 25.11 15.2417 25.11H27.0317C29.5617 25.11 30.8817 23.81 30.8817 21.32V13.52C30.8817 11.03 29.5617 9.71 27.0317 9.71H24.8517V3.8C24.8517 1.3 23.5317 0 21.0117 0H3.8417C1.3117 0 0.0017 1.29 0.0017 3.8V15.74C0.0017 18.25 1.3117 19.55 3.8417 19.55ZM3.9817 17.25C2.8917 17.25 2.3017 16.69 2.3017 15.55V4C2.3017 2.86 2.8917 2.29 3.9817 2.29H20.8717C21.9517 2.29 22.5617 2.86 22.5617 4V9.71H15.2417C12.7217 9.71 11.4017 11.02 11.4017 13.52V17.25ZM4.6917 9.07C4.7317 9.49 5.2517 9.9 5.7217 9.42L6.9717 8.18L8.7617 9.97C9.0717 10.28 9.5717 10.28 9.8817 9.97C10.1817 9.67 10.1817 9.18 9.8817 8.87L8.0717 7.08L9.3117 5.82C9.8017 5.34 9.4017 4.83 8.9617 4.78L4.8617 4.2C4.6417 4.17 4.4317 4.24 4.2817 4.37C4.1417 4.52 4.0617 4.73 4.1017 4.96Z" />
        </svg>
    