
        <svg xmlns="http://www.w3.org/2000/svg" viewBox="0 0 100 100">
            <path d="M3.6817 19.1288H11.4917V20.9188C11.4917 23.3288 12.7217 24.5487 15.1717 24.5487H26.6917C29.1317 24.5487 30.3617 23.3288 30.3617 20.9188V13.3288C30.3617 10.9088 29.1317 9.6888 26.6917 9.6888H24.4417V3.6288C24.4417 1.2188 23.2117 -0.0012 20.7817 -0.0012H3.6817C1.2217 -0.0012 0.0017 1.2188 0.0017 3.6288V15.4888C0.0017 17.9088 1.2217 19.1288 3.6817 19.1288ZM3.7017 17.2388C2.5317 17.2388 1.8917 16.6088 1.8917 15.3888V3.7387C1.8917 2.5188 2.5317 1.8888 3.7017 1.8888H20.7417C21.9017 1.8888 22.5617 2.5188 22.5617 3.7387V9.6888H15.1717C12.7217 9.6888 11.4917 10.8988 11.4917 13.3288V17.2388ZM9.2217 4.9887C9.1717 4.6288 8.7217 4.2288 8.2617 4.6988L6.9617 5.9887L5.0517 4.0688C4.7717 3.7888 4.3017 3.7888 4.0217 4.0688C3.7417 4.3487 3.7417 4.8188 4.0217 5.0988L5.9417 7.0087L4.6517 8.3088C4.1817 8.7688 4.5817 9.2188 4.9417 9.2688L9.1717 9.9288C9.3917 9.9588 9.5717 9.8888 9.7117 9.7587C9.8417 9.6188 9.9117 9.4288 9.8817 9.2188Z" />
        </svg>
    