
        <svg xmlns="http://www.w3.org/2000/svg" viewBox="0 0 100 100">
            <path d="M3.6817 19.1288H11.4917V20.9188C11.4917 23.3288 12.7217 24.5487 15.1717 24.5487H26.6917C29.1317 24.5487 30.3617 23.3288 30.3617 20.9188V13.3288C30.3617 10.9088 29.1317 9.6888 26.6917 9.6888H24.4417V3.6288C24.4417 1.2188 23.2117 -0.0012 20.7817 -0.0012H3.6817C1.2217 -0.0012 0.0017 1.2188 0.0017 3.6288V15.4888C0.0017 17.9088 1.2217 19.1288 3.6817 19.1288ZM3.7017 17.2388C2.5317 17.2388 1.8917 16.6088 1.8917 15.3888V3.7387C1.8917 2.5188 2.5317 1.8888 3.7017 1.8888H20.7417C21.9017 1.8888 22.5617 2.5188 22.5617 3.7387V9.6888H15.1717C12.7217 9.6888 11.4917 10.8988 11.4917 13.3288V17.2388ZM17.7417 21.2488C17.2217 21.2488 16.8017 20.8288 16.8017 20.2987C16.8017 20.0487 16.9217 19.8288 17.0817 19.6488L19.6017 17.1188L17.0817 14.5888C16.9217 14.3988 16.8017 14.1888 16.8017 13.9288C16.8017 13.4188 17.2217 13.0087 17.7417 13.0087C18.0117 13.0087 18.2117 13.1088 18.4017 13.2888L20.9317 15.8088L23.4817 13.2788C23.6817 13.0888 23.8817 12.9888 24.1317 12.9888C24.6517 12.9888 25.0817 13.4088 25.0817 13.9188C25.0817 14.1788 24.9817 14.3788 24.7817 14.5788L22.2617 17.1188L24.7717 19.6388C24.9617 19.8188 25.0617 20.0388 25.0617 20.2987C25.0617 20.8288 24.6417 21.2488 24.1217 21.2488C23.8517 21.2488 23.6217 21.1388 23.4517 20.9688L20.9317 18.4488L18.4217 20.9688C18.2417 21.1488 18.0117 21.2488 17.7417 21.2488Z" />
        </svg>
    