
        <svg xmlns="http://www.w3.org/2000/svg" viewBox="0 0 100 100">
            <path d="M2.4617 13.3463H4.6417C6.2617 13.3463 7.1017 12.5263 7.1017 10.9563V10.3563H10.7317L12.0317 7.9063C12.6517 6.7363 13.7017 6.0962 14.9617 6.0962C16.2217 6.0962 17.2517 6.7363 17.8817 7.9263L19.2117 10.3563H22.8017V10.9563C22.8017 12.5263 23.6617 13.3463 25.2817 13.3463H27.4417C29.0617 13.3463 29.9217 12.5263 29.9217 10.9563V2.3863C29.9217 0.8163 29.0617 -0.0038 27.4417 -0.0038H25.2817C23.6617 -0.0038 22.8017 0.8163 22.8017 2.3863V2.9662H7.1017V2.3863C7.1017 0.8163 6.2617 -0.0038 4.6417 -0.0038H2.4617C0.8417 -0.0038 0.0017 0.8163 0.0017 2.3863V10.9563C0.0017 12.5263 0.8417 13.3463 2.4617 13.3463ZM14.9617 23.3863C18.0017 23.3863 20.4117 21.0163 20.4117 18.0563C20.4117 16.4263 19.6017 14.8563 18.9617 13.6363L16.3317 8.7563C16.0117 8.1563 15.5617 7.8563 14.9617 7.8563C14.3517 7.8563 13.9117 8.1663 13.5917 8.7563L10.9817 13.6363C10.3217 14.8563 9.5117 16.4263 9.5117 18.0563C9.5117 21.0163 11.9417 23.3863 14.9617 23.3863Z" />
        </svg>
    