
        <svg xmlns="http://www.w3.org/2000/svg" viewBox="0 0 100 100">
            <path d="M6.5717 25.7247H16.1117C19.9917 25.7247 22.7017 22.9847 22.7017 19.0147V11.9447H22.7817C23.7617 11.9447 24.4117 11.2647 24.4117 10.1947V8.2247C24.4117 7.1847 23.7617 6.4847 22.7817 6.4847H22.6917C22.5917 2.6447 19.9217 0.0047 16.1117 0.0047H6.5717C2.7117 0.0047 0.0017 2.7547 0.0017 6.7047V19.0147C0.0017 22.9847 2.7117 25.7247 6.5717 25.7247ZM6.5717 21.9847C4.7917 21.9847 3.7617 20.8847 3.7617 19.0147V6.6947C3.7617 4.8447 4.7917 3.7547 6.5717 3.7547H16.1217C17.8917 3.7547 18.9417 4.8447 18.9417 6.6947V19.0147C18.9417 20.8847 17.8917 21.9847 16.1217 21.9847ZM5.0317 19.1947C5.0317 20.1447 5.5517 20.7047 6.4217 20.7047H16.2617C17.1317 20.7047 17.6617 20.1447 17.6617 19.1947V16.6447C17.6617 15.7047 17.1317 15.1247 16.2617 15.1247H6.4217C5.5517 15.1247 5.0317 15.7047 5.0317 16.6447ZM7.0817 18.5647V17.2847C7.0817 17.2247 7.1017 17.1747 7.1617 17.1747H15.5117C15.5817 17.1747 15.6117 17.2247 15.6117 17.2847V18.5647C15.6117 18.6247 15.5817 18.6647 15.5117 18.6647H7.1617C7.1017 18.6647 7.0817 18.6247 7.0817 18.5647Z" />
        </svg>
    