
        <svg xmlns="http://www.w3.org/2000/svg" viewBox="0 0 100 100">
            <path d="M0.0017 21.1713C0.0017 23.0013 1.1617 24.1313 3.0517 24.1313H11.2217C13.1117 24.1313 14.2717 23.0013 14.2717 21.1713V2.9612C14.2717 1.1412 13.1117 0.0012 11.2217 0.0012H3.0517C1.1617 0.0012 0.0017 1.1412 0.0017 2.9612ZM1.4517 20.9613V3.1612C1.4517 2.0313 2.0417 1.4513 3.2117 1.4513H11.0617C12.2317 1.4513 12.8317 2.0313 12.8317 3.1612V20.9613C12.8317 22.1112 12.2317 22.6913 11.0617 22.6913H3.2117C2.0417 22.6913 1.4517 22.1112 1.4517 20.9613ZM4.0817 13.6313C4.0817 13.7713 4.1217 13.9013 4.2217 14.0013L6.7517 16.5213C6.8517 16.6313 6.9917 16.7013 7.1417 16.7013C7.2817 16.7013 7.4217 16.6313 7.5217 16.5213L10.0517 14.0013C10.1617 13.9013 10.1917 13.7713 10.1917 13.6313C10.1917 13.3213 9.9817 13.1213 9.7017 13.1213C9.5417 13.1213 9.4317 13.1813 9.3117 13.2913L8.2617 14.3413L7.6217 15.0813L7.6617 13.8713V9.9713C7.6617 9.6512 7.4417 9.4313 7.1417 9.4313C6.8317 9.4313 6.6117 9.6512 6.6117 9.9713V13.8713L6.6517 15.0813L6.0117 14.3413L4.9617 13.2913C4.8417 13.1813 4.7317 13.1213 4.5717 13.1213C4.2917 13.1213 4.0817 13.3213 4.0817 13.6313ZM3.9917 21.1913H10.2817C10.9217 21.1913 11.3317 20.7813 11.3317 20.1213V18.8113C11.3317 18.1513 10.9217 17.7413 10.2817 17.7413H3.9917C3.3517 17.7413 2.9417 18.1513 2.9417 18.8113V20.1213C2.9417 20.7813 3.3517 21.1913 3.9917 21.1913Z" />
        </svg>
    