
        <svg xmlns="http://www.w3.org/2000/svg" viewBox="0 0 100 100">
            <path d="M0.0017 20.3625C0.0017 22.2025 0.9917 23.2125 2.8617 23.2125H10.3817C12.2317 23.2125 13.2317 22.2025 13.2317 20.3625V2.8325C13.2317 0.9925 12.2317 0.0025 10.3817 0.0025H2.8617C0.9917 0.0025 0.0017 0.9925 0.0017 2.8325ZM0.8717 20.3125V2.9025C0.8717 1.5025 1.5217 0.8625 2.9317 0.8625H10.3017C11.7217 0.8625 12.3617 1.5025 12.3617 2.9025V20.3125C12.3617 21.7125 11.7217 22.3325 10.3017 22.3325H2.9317C1.5217 22.3325 0.8717 21.7125 0.8717 20.3125ZM3.4317 9.3125H9.8017C10.4617 9.3125 10.8717 8.9225 10.8717 8.2525V5.7025C10.8717 5.0425 10.4617 4.6325 9.8017 4.6325H3.4317C2.7817 4.6325 2.3717 5.0425 2.3717 5.7025V8.2525C2.3717 8.9225 2.7817 9.3125 3.4317 9.3125ZM3.4317 18.4725H9.8017C10.4617 18.4725 10.8717 18.0625 10.8717 17.3925V14.8525C10.8717 14.1825 10.4617 13.7825 9.8017 13.7825H3.4317C2.7817 13.7825 2.3717 14.1825 2.3717 14.8525V17.3925C2.3717 18.0625 2.7817 18.4725 3.4317 18.4725Z" />
        </svg>
    