
        <svg xmlns="http://www.w3.org/2000/svg" viewBox="0 0 100 100">
            <path d="M5.6817 23.448H14.8017C18.2817 23.448 20.4817 21.208 20.4817 17.658V10.598H20.7317C21.5517 10.598 22.0817 10.028 22.0817 9.138V7.168C22.0817 6.278 21.5517 5.708 20.7317 5.708H20.4817C20.4817 2.238 18.2817 -0.002 14.8017 -0.002H5.6817C2.2017 -0.002 0.0017 2.238 0.0017 5.778V17.658C0.0017 21.208 2.2017 23.448 5.6817 23.448ZM5.6217 21.008C3.6217 21.008 2.4517 19.788 2.4517 17.718V5.768C2.4517 3.708 3.6217 2.488 5.6217 2.488H14.8617C16.8617 2.488 18.0517 3.708 18.0517 5.768V17.718C18.0517 19.788 16.8617 21.008 14.8617 21.008ZM3.9517 17.878C3.9517 18.888 4.5217 19.498 5.4717 19.498H15.0117C15.9517 19.498 16.5317 18.888 16.5317 17.878V15.668C16.5317 14.658 15.9517 14.038 15.0117 14.038H5.4717C4.5217 14.038 3.9517 14.658 3.9517 15.668ZM5.4817 17.638V15.918C5.4817 15.718 5.6017 15.588 5.8117 15.588H14.6717C14.8817 15.588 15.0017 15.718 15.0017 15.918V17.638C15.0017 17.838 14.8817 17.968 14.6717 17.968H5.8117C5.6017 17.968 5.4817 17.838 5.4817 17.638Z" />
        </svg>
    