
        <svg xmlns="http://www.w3.org/2000/svg" viewBox="0 0 100 100">
            <path d="M0.0017 23.308C0.0017 25.158 1.3017 26.398 3.2417 26.398H16.3317C18.2817 26.398 19.5817 25.158 19.5817 23.308V3.108C19.5817 1.258 18.2817 -0.002 16.3317 -0.002H3.2417C1.3017 -0.002 0.0017 1.258 0.0017 3.108ZM1.8917 22.988V3.418C1.8917 2.458 2.4717 1.888 3.4817 1.888H16.1017C17.1017 1.888 17.6917 2.458 17.6917 3.418V22.988C17.6917 23.958 17.1017 24.518 16.1017 24.518H3.4817C2.4717 24.518 1.8917 23.958 1.8917 22.988ZM5.3017 10.788H14.3017C14.9217 10.788 15.3417 10.378 15.3417 9.728V7.198C15.3417 6.538 14.9217 6.128 14.3017 6.128H5.3017C4.6717 6.128 4.2517 6.538 4.2517 7.198V9.728C4.2517 10.378 4.6717 10.788 5.3017 10.788ZM5.3017 20.248H14.3017C14.9217 20.248 15.3417 19.828 15.3417 19.188V16.638C15.3417 15.998 14.9217 15.578 14.3017 15.578H5.3017C4.6717 15.578 4.2517 15.998 4.2517 16.638V19.188C4.2517 19.828 4.6717 20.248 5.3017 20.248Z" />
        </svg>
    