
        <svg xmlns="http://www.w3.org/2000/svg" viewBox="0 0 100 100">
            <path d="M2.9617 14.2894H21.1617C23.0017 14.2894 24.1317 13.1294 24.1317 11.2394V3.0494C24.1317 1.1594 23.0017 -0.0006 21.1717 -0.0006H2.9617C1.1417 -0.0006 0.0117 1.1594 0.0117 3.0494L0.0017 11.2394C0.0017 13.1294 1.1217 14.2894 2.9617 14.2894ZM3.1617 12.8294C2.0317 12.8294 1.4517 12.2294 1.4517 11.0694V3.2094C1.4517 2.0494 2.0317 1.4494 3.1617 1.4494H20.9717C22.1117 1.4494 22.6917 2.0494 22.6917 3.2094L22.6717 11.0694C22.6717 12.2294 22.1017 12.8294 20.9617 12.8294ZM4.8317 9.3494H10.0517C10.7017 9.3494 11.1117 8.9394 11.1117 8.2894V5.9894C11.1117 5.3294 10.7017 4.9194 10.0517 4.9194H4.8317C4.1817 4.9194 3.7717 5.3294 3.7717 5.9894V8.2894C3.7717 8.9394 4.1817 9.3494 4.8317 9.3494ZM14.0717 9.3494H19.3117C19.9417 9.3494 20.3717 8.9394 20.3717 8.2894V5.9894C20.3717 5.3294 19.9417 4.9194 19.3117 4.9194H14.0717C13.4317 4.9194 13.0217 5.3294 13.0217 5.9894V8.2894C13.0217 8.9394 13.4317 9.3494 14.0717 9.3494Z" />
        </svg>
    