
        <svg xmlns="http://www.w3.org/2000/svg" viewBox="0 0 100 100">
            <path d="M5.2617 22.3789H14.1917C17.4817 22.3789 19.4517 20.3789 19.4517 17.0289V9.9589H19.7717C20.5217 9.9589 21.0017 9.4489 21.0017 8.6389V6.6789C21.0017 5.8489 20.5217 5.3289 19.7717 5.3289H19.4517C19.4517 1.9889 17.4817 -0.0011 14.1917 -0.0011H5.2617C1.9717 -0.0011 0.0017 1.9889 0.0017 5.3389V17.0289C0.0017 20.3789 1.9717 22.3789 5.2617 22.3789ZM5.1817 20.5589C3.0817 20.5589 1.8317 19.2789 1.8317 17.1089V5.3189C1.8317 3.1689 3.0817 1.8889 5.1817 1.8889H14.2717C16.3817 1.8889 17.6217 3.1689 17.6217 5.3189V17.1089C17.6217 19.2789 16.3817 20.5589 14.2717 20.5589ZM3.4417 17.2589C3.4417 18.2889 4.0417 18.9289 5.0317 18.9289H14.4417C15.4117 18.9289 16.0117 18.2889 16.0117 17.2589V15.1989C16.0117 14.1689 15.4117 13.5189 14.4417 13.5189H5.0317C4.0417 13.5189 3.4417 14.1689 3.4417 15.1989ZM4.7417 17.1889V15.2689C4.7417 14.9989 4.9117 14.8289 5.1817 14.8289H14.2817C14.5517 14.8289 14.7117 14.9989 14.7117 15.2689V17.1889C14.7117 17.4589 14.5517 17.6289 14.2817 17.6289H5.1817C4.9117 17.6289 4.7417 17.4589 4.7417 17.1889Z" />
        </svg>
    