
        <svg xmlns="http://www.w3.org/2000/svg" viewBox="0 0 100 100">
            <path d="M5.9217 24.0509H15.1517C18.7417 24.0509 21.0717 21.6709 21.0717 18.0109V10.9409H21.2817C22.1417 10.9409 22.7017 10.3509 22.7017 9.4109V7.4509C22.7017 6.5109 22.1417 5.9109 21.2817 5.9109H21.0717C21.0217 2.3109 18.7017 0.0009 15.1517 0.0009H5.9217C2.3417 0.0009 0.0017 2.3709 0.0017 6.0109V18.0109C0.0017 21.6709 2.3417 24.0509 5.9217 24.0509ZM5.8717 21.2609C3.9417 21.2609 2.8017 20.0709 2.8017 18.0609V6.0009C2.8017 4.0009 3.9417 2.8109 5.8717 2.8109H15.2017C17.1317 2.8109 18.2817 4.0009 18.2817 6.0009V18.0609C18.2817 20.0709 17.1317 21.2609 15.2017 21.2609ZM4.2417 8.1209C4.2417 9.1209 4.8017 9.7109 5.7217 9.7109H15.3517C16.2617 9.7109 16.8317 9.1209 16.8317 8.1209V5.8109C16.8317 4.8309 16.2617 4.2309 15.3517 4.2309H5.7217C4.8017 4.2309 4.2417 4.8309 4.2417 5.8109ZM5.9017 7.7709V6.1609C5.9017 6.0009 6.0017 5.8909 6.1617 5.8909H14.8917C15.0717 5.8909 15.1617 6.0009 15.1617 6.1609V7.7709C15.1617 7.9309 15.0717 8.0409 14.8917 8.0409H6.1617C6.0017 8.0409 5.9017 7.9309 5.9017 7.7709Z" />
        </svg>
    