
        <svg xmlns="http://www.w3.org/2000/svg" viewBox="0 0 100 100">
            <path d="M0.0017 21.1713C0.0017 23.0013 1.1617 24.1313 3.0517 24.1313H11.2217C13.1117 24.1313 14.2717 23.0013 14.2717 21.1713V2.9612C14.2717 1.1412 13.1117 0.0012 11.2217 0.0012H3.0517C1.1617 0.0012 0.0017 1.1412 0.0017 2.9612ZM1.4517 20.9613V3.1612C1.4517 2.0313 2.0417 1.4513 3.2117 1.4513H11.0617C12.2317 1.4513 12.8317 2.0313 12.8317 3.1612V20.9613C12.8317 22.1112 12.2317 22.6913 11.0617 22.6913H3.2117C2.0417 22.6913 1.4517 22.1112 1.4517 20.9613ZM3.9917 6.4012H10.2817C10.9217 6.4012 11.3317 5.9913 11.3317 5.3313V4.0212C11.3317 3.3612 10.9217 2.9513 10.2817 2.9513H3.9917C3.3517 2.9513 2.9417 3.3612 2.9417 4.0212V5.3313C2.9417 5.9913 3.3517 6.4012 3.9917 6.4012Z" />
        </svg>
    