
        <svg xmlns="http://www.w3.org/2000/svg" viewBox="0 0 100 100">
            <path d="M0.0017 23.7867C0.0017 25.9567 1.4317 27.3367 3.6517 27.3367H16.9017C19.1217 27.3367 20.5617 25.9567 20.5617 23.7867V3.5667C20.5617 1.3967 19.1217 -0.0033 16.9017 -0.0033H3.6517C1.4317 -0.0033 0.0017 1.3967 0.0017 3.5667ZM2.6117 23.3667V3.9867C2.6117 3.1067 3.1017 2.6167 4.0317 2.6167H16.5317C17.4617 2.6167 17.9517 3.1067 17.9517 3.9867V23.3667C17.9517 24.2367 17.4617 24.7367 16.5317 24.7367H4.0317C3.1017 24.7367 2.6117 24.2367 2.6117 23.3667ZM5.9917 11.3867H14.5917C15.2117 11.3867 15.6317 10.9767 15.6317 10.3367V7.7567C15.6317 7.1167 15.2117 6.6867 14.5917 6.6867H5.9917C5.3717 6.6867 4.9417 7.1167 4.9417 7.7567V10.3367C4.9417 10.9767 5.3717 11.3867 5.9917 11.3867ZM5.9917 20.6167H14.5917C15.2117 20.6167 15.6317 20.2067 15.6317 19.5467V16.9767C15.6317 16.3367 15.2117 15.9167 14.5917 15.9167H5.9917C5.3717 15.9167 4.9417 16.3367 4.9417 16.9767V19.5467C4.9417 20.2067 5.3717 20.6167 5.9917 20.6167Z" />
        </svg>
    