
        <svg xmlns="http://www.w3.org/2000/svg" viewBox="0 0 100 100">
            <path d="M3.6817 21.5705H23.9517C26.4117 21.5705 27.6317 20.3605 27.6317 17.9405V3.6305C27.6317 1.2205 26.4117 0.0005 23.9517 0.0005H3.6817C1.2317 0.0005 0.0017 1.2105 0.0017 3.6305V17.9405C0.0017 20.3705 1.2317 21.5705 3.6817 21.5705ZM3.7017 19.6905C2.5317 19.6905 1.8917 19.0705 1.8917 17.8505V3.7305C1.8917 2.5105 2.5317 1.8905 3.7017 1.8905H23.9317C25.0917 1.8905 25.7417 2.5105 25.7417 3.7305V17.8505C25.7417 19.0705 25.0917 19.6905 23.9317 19.6905ZM5.1517 13.5705H11.6217C12.2417 13.5705 12.6717 13.1505 12.6717 12.5005V9.0705C12.6717 8.4105 12.2417 8.0005 11.6217 8.0005H5.1517C4.5217 8.0005 4.1117 8.4105 4.1117 9.0705V12.5005C4.1117 13.1505 4.5217 13.5705 5.1517 13.5705ZM15.7717 13.5705H22.2517C22.8717 13.5705 23.3017 13.1505 23.3017 12.5005V9.0705C23.3017 8.4105 22.8717 8.0005 22.2517 8.0005H15.7717C15.1517 8.0005 14.7317 8.4105 14.7317 9.0705V12.5005C14.7317 13.1505 15.1517 13.5705 15.7717 13.5705Z" />
        </svg>
    