
        <svg xmlns="http://www.w3.org/2000/svg" viewBox="0 0 100 100">
            <path d="M0.0017 18.4545C0.0017 19.7345 0.7617 20.3545 1.6617 20.3545C2.0617 20.3545 2.4717 20.2345 2.8717 20.0145L16.7117 11.9445C17.7217 11.3545 18.1317 10.8945 18.1317 10.1845C18.1317 9.4545 17.7217 9.0145 16.7117 8.4245L2.8717 0.3445C2.4717 0.1145 2.0617 0.0045 1.6617 0.0045C0.7617 0.0045 0.0017 0.6245 0.0017 1.9145ZM2.3017 17.2645V3.1045C2.3017 2.8845 2.4917 2.7645 2.6917 2.8845L14.8617 9.9745C14.9517 10.0145 15.0017 10.1045 15.0017 10.1845C15.0017 10.2545 14.9517 10.3345 14.8617 10.3945L2.6917 17.4845C2.4917 17.6045 2.3017 17.4845 2.3017 17.2645Z" />
        </svg>
    