
        <svg xmlns="http://www.w3.org/2000/svg" viewBox="0 0 100 100">
            <path d="M0.0017 18.8005C0.0017 20.5805 1.1517 21.5405 2.5117 21.5405C3.0817 21.5405 3.6717 21.3705 4.2417 21.0505L17.4617 13.3505C18.5617 12.7105 19.3117 11.9405 19.3117 10.7705C19.3117 9.5905 18.5617 8.8205 17.4617 8.1905L4.2417 0.4905C3.6717 0.1605 3.0817 0.0005 2.5117 0.0005C1.1517 0.0005 0.0017 0.9505 0.0017 2.7405ZM25.1617 21.5405C26.6517 21.5405 27.7217 20.4805 27.7217 19.0505V2.4805C27.7217 1.0505 26.6517 0.0005 25.1617 0.0005C23.6617 0.0005 22.5917 1.0505 22.5917 2.4805V19.0505C22.5917 20.4805 23.6617 21.5405 25.1617 21.5405ZM35.1217 21.5405C36.6217 21.5405 37.6917 20.4805 37.6917 19.0505V2.4805C37.6917 1.0505 36.6217 0.0005 35.1217 0.0005C33.6317 0.0005 32.5517 1.0505 32.5517 2.4805V19.0505C32.5517 20.4805 33.6317 21.5405 35.1217 21.5405ZM4.1617 15.9105V5.6205C4.1617 5.4505 4.2817 5.3305 4.4417 5.3305C4.4717 5.3305 4.5317 5.3405 4.5917 5.3805L13.5317 10.5205C13.6517 10.5805 13.7017 10.6805 13.7017 10.7705C13.7017 10.8505 13.6517 10.9605 13.5317 11.0205L4.5917 16.1605C4.5317 16.1905 4.4717 16.2105 4.4417 16.2105C4.2817 16.2105 4.1617 16.0905 4.1617 15.9105Z" />
        </svg>
    