
        <svg xmlns="http://www.w3.org/2000/svg" viewBox="0 0 100 100">
            <path d="M2.9217 19.9531H10.3917V22.0831H10.3517C9.7617 22.0831 9.2817 22.5631 9.2817 23.1431C9.2817 23.7231 9.7617 24.2031 10.3517 24.2031H18.0917C18.6817 24.2031 19.1617 23.7231 19.1617 23.1431C19.1617 22.5631 18.6817 22.0831 18.0917 22.0831H18.0517V19.9531H25.5117C27.3417 19.9531 28.4417 18.8631 28.4417 17.0431V2.9131C28.4417 1.0931 27.3417 0.0031 25.5117 0.0031H2.9217C1.1017 0.0031 0.0017 1.0931 0.0017 2.9131V17.0431C0.0017 18.8631 1.1017 19.9531 2.9217 19.9531ZM2.7417 14.5431C2.4017 14.5431 2.2517 14.4131 2.2517 14.0531V3.0431C2.2517 2.5531 2.5517 2.2431 3.0617 2.2431H25.3817C25.8917 2.2431 26.1917 2.5531 26.1917 3.0431V14.0531C26.1917 14.4131 26.0417 14.5431 25.7017 14.5431ZM11.2517 12.2331C11.2517 12.7231 11.7917 12.9331 12.2017 12.6931L18.4917 9.0031C18.8917 8.7631 18.8817 8.2231 18.4817 7.9931L12.2017 4.3031C11.7917 4.0531 11.2517 4.2531 11.2517 4.7531Z" />
        </svg>
    