
        <svg xmlns="http://www.w3.org/2000/svg" viewBox="0 0 100 100">
            <path d="M0.0017 17.0783C0.0017 18.3983 0.8017 19.0583 1.7417 19.0583C2.1517 19.0583 2.5817 18.9383 3.0017 18.6983L15.6017 11.3683C16.5517 10.8083 17.0117 10.2983 17.0117 9.5283C17.0117 8.7583 16.5517 8.2383 15.6017 7.6883L3.0017 0.3483C2.5817 0.1183 2.1517 -0.0017 1.7417 -0.0017C0.8017 -0.0017 0.0017 0.6583 0.0017 1.9683ZM22.4017 19.0583C23.2617 19.0583 23.9017 18.4183 23.9017 17.5983V1.4483C23.9017 0.6183 23.2617 -0.0017 22.4017 -0.0017C21.5517 -0.0017 20.9017 0.6183 20.9017 1.4483V17.5983C20.9017 18.4183 21.5517 19.0583 22.4017 19.0583ZM30.8517 19.0583C31.7217 19.0583 32.3517 18.4183 32.3517 17.5983V1.4483C32.3517 0.6183 31.7217 -0.0017 30.8517 -0.0017C30.0017 -0.0017 29.3517 0.6183 29.3517 1.4483V17.5983C29.3517 18.4183 30.0017 19.0583 30.8517 19.0583ZM2.6117 15.5283V3.5283C2.6117 3.3783 2.7117 3.2783 2.8317 3.2783C2.8817 3.2783 2.9317 3.2883 2.9717 3.3183L13.2917 9.3283C13.3817 9.3783 13.4217 9.4583 13.4217 9.5283C13.4217 9.5983 13.3817 9.6683 13.2917 9.7283L2.9717 15.7383C2.9317 15.7583 2.8817 15.7783 2.8317 15.7783C2.7117 15.7783 2.6117 15.6683 2.6117 15.5283Z" />
        </svg>
    