
        <svg xmlns="http://www.w3.org/2000/svg" viewBox="0 0 100 100">
            <path d="M10.7317 3.9808H24.6917V3.9408C24.5317 1.4208 22.9817 0.0008 20.3317 0.0008H4.3817C1.5817 0.0008 0.0017 1.5808 0.0017 4.3708V15.7608C0.0017 18.4808 1.4917 20.0408 4.1517 20.1208H4.2917V10.4208C4.2917 6.4808 6.8017 3.9808 10.7317 3.9808ZM10.7317 26.1708H26.6817C29.4817 26.1708 31.0617 24.5908 31.0617 21.8108V10.4208C31.0617 7.6308 29.4817 6.0508 26.6817 6.0508H10.7317C7.9417 6.0508 6.3517 7.6308 6.3517 10.4208V21.8108C6.3517 24.6008 7.9417 26.1708 10.7317 26.1708ZM15.2017 20.1908V12.0608C15.2017 11.4608 15.8417 11.1408 16.3717 11.4608L23.2717 15.4808C23.7817 15.7708 23.7917 16.4808 23.2717 16.7808L16.3717 20.7608C15.8417 21.0708 15.2017 20.7808 15.2017 20.1908Z" />
        </svg>
    