
        <svg xmlns="http://www.w3.org/2000/svg" viewBox="0 0 100 100">
            <path d="M17.0254 17.639C17.1954 17.799 17.4654 17.799 17.6454 17.639C17.8154 17.449 17.8054 17.199 17.6454 17.029L0.7454 0.129C0.5754 -0.031 0.3154 -0.051 0.1254 0.129C-0.0446 0.299 -0.0446 0.579 0.1254 0.739ZM14.4554 12.449L17.9554 10.339C18.4754 10.049 18.7254 9.789 18.7254 9.379C18.7254 8.969 18.4754 8.709 17.9554 8.409L4.3054 0.249C4.0854 0.119 3.8354 0.049 3.5954 0.049C3.2054 0.049 2.8454 0.249 2.7154 0.709ZM11.9354 13.949L2.5154 4.539V17.499C2.5154 18.339 3.0454 18.699 3.5954 18.699C3.8354 18.699 4.0854 18.629 4.3054 18.509Z" />
        </svg>
    