
        <svg xmlns="http://www.w3.org/2000/svg" viewBox="0 0 100 100">
            <path d="M11.3523 22.7064C17.6323 22.7064 22.7123 17.6264 22.7123 11.3564C22.7123 5.0764 17.6323 -0.0036 11.3523 -0.0036C5.0823 -0.0036 0.0023 5.0764 0.0023 11.3564C0.0023 17.6264 5.0823 22.7064 11.3523 22.7064ZM11.3523 22.1364C5.3923 22.1364 0.5723 17.3164 0.5723 11.3564C0.5723 5.3864 5.3923 0.5764 11.3523 0.5764C17.3223 0.5764 22.1323 5.3864 22.1323 11.3564C22.1323 17.3164 17.3223 22.1364 11.3523 22.1364ZM4.3523 15.9564L11.1023 11.8664C11.4823 11.6364 11.4823 11.1464 11.1023 10.9064L4.3523 6.7764C3.9723 6.5464 3.5323 6.7364 3.5323 7.1264V15.6064C3.5323 15.9964 3.9723 16.1864 4.3523 15.9564ZM13.1823 15.7464H14.3923C14.8523 15.7464 15.0623 15.4964 15.0623 15.1264V7.6264C15.0623 7.2564 14.8523 6.9964 14.3923 6.9964H13.1823C12.7423 6.9964 12.5123 7.2564 12.5123 7.6264V15.1264C12.5123 15.4964 12.7423 15.7464 13.1823 15.7464ZM17.3623 15.7464H18.5623C19.0123 15.7464 19.2323 15.4964 19.2323 15.1264V7.6264C19.2323 7.2564 19.0123 6.9964 18.5623 6.9964H17.3623C16.9223 6.9964 16.7123 7.2564 16.7123 7.6264V15.1264C16.7123 15.4964 16.9223 15.7464 17.3623 15.7464Z" />
        </svg>
    