
        <svg xmlns="http://www.w3.org/2000/svg" viewBox="0 0 100 100">
            <path d="M4.6017 1.6142H16.1917C16.1117 0.5642 15.4917 0.0042 14.3517 0.0042H6.4317C5.3017 0.0042 4.6717 0.5642 4.6017 1.6142ZM2.5917 5.0142H18.2017C18.0317 3.9042 17.4717 3.2742 16.2217 3.2742H4.5717C3.3117 3.2742 2.7517 3.9042 2.5917 5.0142ZM3.8417 27.7542H17.3217C19.5617 27.7542 20.8717 26.4542 20.8717 23.9442V10.6842C20.8717 8.1842 19.5617 6.8742 17.0317 6.8742H3.8417C1.3117 6.8742 0.0017 8.1842 0.0017 10.6842V23.9442C0.0017 26.4542 1.3117 27.7542 3.8417 27.7542ZM8.3217 22.1342C7.6617 22.5342 6.9017 22.2042 6.9017 21.4942V13.2442C6.9017 12.5242 7.7017 12.2242 8.3217 12.5942L15.0817 16.5942C15.6817 16.9442 15.6917 17.7842 15.0817 18.1542Z" />
        </svg>
    