
        <svg xmlns="http://www.w3.org/2000/svg" viewBox="0 0 100 100">
            <path d="M3.6417 21.6433H10.8417V23.2733H10.8117C10.0217 23.2733 9.3917 23.9433 9.3917 24.7033C9.3917 25.4433 10.0217 26.1233 10.8117 26.1233H19.2617C20.0617 26.1233 20.6917 25.4433 20.6917 24.7033C20.6917 23.9433 20.0617 23.2733 19.2617 23.2733H19.2417V21.6433H26.4417C28.7217 21.6433 30.0817 20.2833 30.0817 17.9833V3.6533C30.0817 1.3633 28.7217 0.0033 26.4417 0.0033H3.6417C1.3617 0.0033 0.0017 1.3633 0.0017 3.6533V17.9833C0.0017 20.2833 1.3617 21.6433 3.6417 21.6433ZM4.1217 18.2233C3.6817 18.2233 3.4117 17.9633 3.4117 17.5233V4.1233C3.4117 3.6833 3.6817 3.4233 4.1217 3.4233H25.9717C26.4017 3.4233 26.6717 3.6833 26.6717 4.1233V17.5233C26.6717 17.9633 26.4017 18.2233 25.9717 18.2233ZM11.8817 14.5433C11.8817 15.0833 12.4717 15.3433 12.9617 15.0633L19.2517 11.4233C19.7217 11.1533 19.7117 10.5133 19.2517 10.2433L12.9617 6.5733C12.4717 6.2933 11.8817 6.5733 11.8817 7.1233Z" />
        </svg>
    