
        <svg xmlns="http://www.w3.org/2000/svg" viewBox="0 0 100 100">
            <path d="M9.0817 26.6627C10.0917 26.6627 10.9717 26.2727 12.2217 25.1927L16.0917 21.8527H22.0517C25.7317 21.8527 28.1717 19.4027 28.1717 15.7227V6.1327C28.1717 2.4527 25.7317 0.0027 22.0517 0.0027H6.1217C2.4417 0.0027 0.0017 2.4527 0.0017 6.1327V15.7227C0.0017 19.4027 2.7117 21.8527 5.7117 21.8527H6.6417V24.0227C6.6417 25.6627 7.5817 26.6627 9.0817 26.6627ZM10.0517 22.0927V18.9827C10.0517 18.0427 9.5417 17.6927 8.7617 17.6927H6.4817C4.9617 17.6927 4.1617 16.9327 4.1617 15.3727V6.4827C4.1617 4.9227 4.9617 4.1627 6.4817 4.1627H21.6917C23.2117 4.1627 24.0117 4.9227 24.0117 6.4827V15.3727C24.0117 16.9327 23.2117 17.6927 21.6917 17.6927H15.7217C14.7517 17.6927 14.3717 17.9027 13.6417 18.6127ZM8.7517 10.9327C8.7517 11.8427 9.4217 12.5527 10.3217 12.5527H12.4817V14.7027C12.4817 15.5927 13.1717 16.2627 14.1017 16.2627C15.0117 16.2627 15.7117 15.5927 15.7117 14.7027V12.5527H17.8717C18.7617 12.5527 19.4317 11.8427 19.4317 10.9327C19.4317 10.0127 18.7617 9.3027 17.8717 9.3027H15.7117V7.1527C15.7117 6.2627 15.0117 5.5927 14.1017 5.5927C13.1717 5.5927 12.4817 6.2627 12.4817 7.1527V9.3027H10.3217C9.4217 9.3027 8.7517 10.0127 8.7517 10.9327Z" />
        </svg>
    