
        <svg xmlns="http://www.w3.org/2000/svg" viewBox="0 0 100 100">
            <path d="M6.0917 22.9605C6.3617 22.9605 6.5717 22.8005 6.8517 22.5605L11.0717 18.9405H20.4617C23.2217 18.9405 24.9217 17.2005 24.9217 14.4705V4.4605C24.9217 1.7305 23.2217 0.0005 20.4617 0.0005H4.4617C1.7017 0.0005 0.0017 1.7105 0.0017 4.4605V14.4705C0.0017 17.2305 1.7017 18.9405 4.4617 18.9405H5.4617V22.2505C5.4617 22.6905 5.7217 22.9605 6.0917 22.9605ZM6.2817 21.9805V18.4905C6.2817 18.1905 6.1617 18.0705 5.8617 18.0705H4.4917C2.2417 18.0705 0.8717 16.6805 0.8717 14.4505V4.4905C0.8717 2.2605 2.2417 0.8705 4.4917 0.8705H20.4417C22.6417 0.8705 24.0517 2.2605 24.0517 4.4905V14.4505C24.0517 16.6805 22.6417 18.0705 20.4417 18.0705H11.1717C10.7917 18.0705 10.6017 18.1305 10.3017 18.4205ZM7.2917 9.4705C7.2917 9.7005 7.4917 9.9105 7.7417 9.9105H12.0117V14.1805C12.0117 14.4405 12.2117 14.6405 12.4617 14.6405C12.7117 14.6405 12.9217 14.4505 12.9217 14.1805V9.9105H17.1917C17.4517 9.9105 17.6517 9.7005 17.6517 9.4705C17.6517 9.2005 17.4617 9.0005 17.1917 9.0005H12.9217V4.7305C12.9217 4.4605 12.7117 4.2805 12.4617 4.2805C12.2117 4.2805 12.0117 4.4805 12.0117 4.7305V9.0005H7.7417C7.4717 9.0005 7.2917 9.2005 7.2917 9.4705Z" />
        </svg>
    