
        <svg xmlns="http://www.w3.org/2000/svg" viewBox="0 0 100 100">
            <path d="M3.4617 21.2264H23.9917C26.2817 21.2264 27.4417 20.0464 27.4417 17.7964V3.4264C27.4417 1.1764 26.2817 -0.0036 23.9917 -0.0036H3.4617C1.1717 -0.0036 0.0017 1.1564 0.0017 3.4264V17.7964C0.0017 20.0664 1.1717 21.2264 3.4617 21.2264ZM3.4817 19.7664C2.1717 19.7664 1.4517 19.0764 1.4517 17.7164V3.5064C1.4517 2.1464 2.1717 1.4564 3.4817 1.4564H23.9617C25.2517 1.4564 25.9917 2.1464 25.9917 3.5064V17.7164C25.9917 19.0764 25.2517 19.7664 23.9617 19.7664ZM8.4017 10.6064C8.4017 11.0264 8.7317 11.3464 9.1717 11.3464H12.9717V15.1564C12.9717 15.5964 13.2917 15.9164 13.7117 15.9164C14.1717 15.9164 14.4817 15.5964 14.4817 15.1564V11.3464H18.2917C18.7417 11.3464 19.0517 11.0264 19.0517 10.6064C19.0517 10.1464 18.7417 9.8364 18.2917 9.8364H14.4817V6.0364C14.4817 5.5764 14.1717 5.2664 13.7117 5.2664C13.2917 5.2664 12.9717 5.5864 12.9717 6.0364V9.8364H9.1717C8.7217 9.8364 8.4017 10.1464 8.4017 10.6064Z" />
        </svg>
    