
        <svg xmlns="http://www.w3.org/2000/svg" viewBox="0 0 100 100">
            <path d="M19.0217 1.1925C18.1417 0.3325 16.9817 0.0025 14.6117 0.0025H5.4217C3.2417 0.0025 2.0517 0.3525 1.1917 1.2025C0.3317 2.0725 0.0017 3.2225 0.0017 5.4225V14.6125C0.0017 17.0025 0.3117 18.1625 1.1817 19.0125C2.0517 19.8625 3.2117 20.2025 5.5817 20.2025H14.6117C16.9817 20.2025 18.1517 19.8625 19.0217 19.0125C19.8717 18.1425 20.1917 17.0025 20.1917 14.6125V5.5825C20.1917 3.2025 19.8717 2.0425 19.0217 1.1925ZM19.6217 5.2825V14.9225C19.6217 16.6625 19.2917 17.8225 18.5717 18.5625C17.8317 19.3125 16.6417 19.6325 14.9217 19.6325H5.2817C3.5517 19.6325 2.3517 19.2925 1.6317 18.5625C0.8917 17.8225 0.5717 16.6625 0.5717 14.9225V5.4325C0.5717 3.5725 0.8917 2.3525 1.6017 1.6325C2.3417 0.8825 3.5817 0.5725 5.4417 0.5725H14.9217C16.6417 0.5725 17.8317 0.9025 18.5717 1.6425C19.3017 2.3825 19.6217 3.5425 19.6217 5.2825ZM4.9917 10.1025C4.9917 10.2425 5.1417 10.3825 5.3017 10.3825H9.8117V14.8925C9.8117 15.0425 9.9517 15.2025 10.0917 15.2025C10.2617 15.2025 10.4017 15.0725 10.4017 14.8925V10.3825H14.9217C15.0717 10.3825 15.2117 10.2425 15.2117 10.1025C15.2117 9.9225 15.0817 9.7825 14.9217 9.7825H10.4017V5.2725C10.4017 5.1125 10.2617 4.9825 10.0917 4.9825C9.9517 4.9825 9.8117 5.1225 9.8117 5.2725V9.7825H5.3017C5.1217 9.7825 4.9917 9.9225 4.9917 10.1025Z" />
        </svg>
    