
        <svg xmlns="http://www.w3.org/2000/svg" viewBox="0 0 100 100">
            <path d="M4.5917 21.5242H6.5017V23.1642C6.5017 26.0642 8.2017 27.7642 11.1117 27.7642H23.4417C26.3417 27.7642 28.0317 26.0642 28.0317 23.1642V10.8142C28.0317 7.9242 26.3417 6.2242 23.4417 6.2242H21.5317V4.5942C21.5317 1.6842 19.8317 0.0042 16.9317 0.0042H4.5917C1.7017 0.0042 0.0017 1.6842 0.0017 4.5942V16.9342C0.0017 19.8242 1.7017 21.5242 4.5917 21.5242ZM5.2217 17.3642C4.5117 17.3642 4.1617 17.0742 4.1617 16.2842V5.2242C4.1617 4.4542 4.5117 4.1642 5.2217 4.1642H16.3017C17.0117 4.1642 17.3717 4.4542 17.3717 5.2242V6.2242H11.1117C8.2017 6.2242 6.5017 7.9242 6.5017 10.8142V17.3642ZM11.7417 23.6042C11.0117 23.6042 10.6617 23.2942 10.6617 22.5242V11.4642C10.6617 10.6842 11.0117 10.3942 11.7417 10.3942H22.8017C23.5217 10.3942 23.8717 10.6842 23.8717 11.4642V22.5242C23.8717 23.2942 23.5217 23.6042 22.8017 23.6042ZM11.9417 16.9942C11.9417 17.9142 12.6117 18.6142 13.5017 18.6142H15.6517V20.7642C15.6517 21.6642 16.3617 22.3342 17.2717 22.3342C18.2017 22.3342 18.9017 21.6642 18.9017 20.7642V18.6142H21.0617C21.9517 18.6142 22.6217 17.9142 22.6217 16.9942C22.6217 16.0642 21.9517 15.3742 21.0617 15.3742H18.9017V13.2142C18.9017 12.3142 18.2017 11.6442 17.2717 11.6442C16.3617 11.6442 15.6517 12.3142 15.6517 13.2142V15.3742H13.5017C12.6117 15.3742 11.9417 16.0642 11.9417 16.9942Z" />
        </svg>
    