
        <svg xmlns="http://www.w3.org/2000/svg" viewBox="0 0 100 100">
            <path d="M4.3817 22.855H23.7617C26.5617 22.855 28.1517 21.265 28.1517 18.485V4.375C28.1517 1.585 26.5617 -0.005 23.7617 -0.005H4.3817C1.5917 -0.005 0.0017 1.585 0.0017 4.375V18.485C0.0017 21.265 1.5917 22.855 4.3817 22.855ZM4.8717 19.235C4.0417 19.235 3.6217 18.855 3.6217 17.965V4.885C3.6217 3.995 4.0417 3.635 4.8717 3.635H23.2817C24.1017 3.635 24.5317 3.995 24.5317 4.885V17.965C24.5317 18.855 24.1017 19.235 23.2817 19.235ZM8.7217 11.425C8.7217 12.255 9.3317 12.895 10.1617 12.895H12.6217V15.355C12.6217 16.175 13.2417 16.785 14.0717 16.785C14.9217 16.785 15.5517 16.175 15.5517 15.355V12.895H18.0117C18.8417 12.895 19.4417 12.255 19.4417 11.425C19.4417 10.585 18.8417 9.945 18.0117 9.945H15.5517V7.485C15.5517 6.665 14.9217 6.055 14.0717 6.055C13.2417 6.055 12.6217 6.665 12.6217 7.485V9.945H10.1617C9.3317 9.945 8.7217 10.585 8.7217 11.425Z" />
        </svg>
    