
        <svg xmlns="http://www.w3.org/2000/svg" viewBox="0 0 100 100">
            <path d="M1.358 16.1902L10.758 25.5902C12.548 27.3802 14.388 27.3902 16.158 25.6102L25.608 16.1602C27.388 14.3802 27.378 12.5402 25.578 10.7502L16.178 1.3502C14.388 -0.4398 12.558 -0.4498 10.778 1.3302L1.318 10.7702C-0.462 12.5502 -0.432 14.3902 1.358 16.1902ZM3.078 14.6602C2.298 13.8802 2.268 13.0702 3.088 12.2602L12.268 3.0902C13.078 2.2802 13.878 2.2902 14.658 3.0702L23.858 12.2702C24.628 13.0602 24.658 13.8702 23.848 14.6802L14.668 23.8502C13.858 24.6602 13.038 24.6402 12.268 23.8602ZM8.058 13.4702C8.058 14.1002 8.518 14.5502 9.158 14.5502H12.378V17.7702C12.378 18.4102 12.828 18.8702 13.468 18.8702C14.108 18.8702 14.578 18.4102 14.578 17.7702V14.5502H17.798C18.428 14.5502 18.888 14.1002 18.888 13.4702C18.888 12.8102 18.448 12.3602 17.798 12.3602H14.578V9.1402C14.578 8.4902 14.108 8.0402 13.468 8.0402C12.828 8.0402 12.378 8.4902 12.378 9.1402V12.3602H9.158C8.508 12.3602 8.058 12.8102 8.058 13.4702Z" />
        </svg>
    