
        <svg xmlns="http://www.w3.org/2000/svg" viewBox="0 0 100 100">
            <path d="M11.1317 4.0358H25.1017V4.0158C24.8817 1.4758 23.2417 -0.0042 20.5317 -0.0042H4.5917C1.7017 -0.0042 0.0017 1.6958 0.0017 4.5958V16.1058C0.0017 18.9058 1.5717 20.5658 4.3017 20.6758H4.3217V10.8258C4.3217 6.7158 7.0117 4.0358 11.1317 4.0358ZM11.1317 26.9158H27.0617C29.9617 26.9158 31.6617 25.2258 31.6617 22.3258V10.8258C31.6617 7.9358 29.9617 6.2358 27.0617 6.2358H11.1317C8.2217 6.2358 6.5317 7.9358 6.5317 10.8258V22.3258C6.5317 25.2258 8.2217 26.9158 11.1317 26.9158ZM13.3317 16.5858C13.3317 15.5858 14.0617 14.8358 15.0217 14.8358H17.3517V12.5058C17.3517 11.5358 18.1017 10.8058 19.1017 10.8058C20.1017 10.8058 20.8517 11.5358 20.8517 12.5058V14.8358H23.1817C24.1417 14.8358 24.8817 15.5858 24.8817 16.5858C24.8817 17.5758 24.1417 18.3258 23.1817 18.3258H20.8517V20.6558C20.8517 21.6258 20.1017 22.3458 19.1017 22.3458C18.1017 22.3458 17.3517 21.6258 17.3517 20.6558V18.3258H15.0217C14.0617 18.3258 13.3317 17.5758 13.3317 16.5858Z" />
        </svg>
    