
        <svg xmlns="http://www.w3.org/2000/svg" viewBox="0 0 100 100">
            <path d="M1.0594 14.6877L10.4394 24.0777C11.8494 25.4777 13.3394 25.4477 14.7094 24.0777L24.0694 14.6877C25.4394 13.3177 25.4994 11.8277 24.0894 10.4277L14.7194 1.0477C13.2994 -0.3723 11.8494 -0.3323 10.4394 1.0577L1.0594 10.4277C-0.3506 11.8277 -0.3506 13.2877 1.0594 14.6877ZM7.4494 12.5577C7.4494 12.3777 7.5794 12.2377 7.7594 12.2377H12.2594V7.7377C12.2594 7.5777 12.3994 7.4377 12.5394 7.4377C12.7194 7.4377 12.8594 7.5677 12.8594 7.7377V12.2377H17.3594C17.5294 12.2377 17.6594 12.3777 17.6594 12.5577C17.6594 12.6977 17.5194 12.8377 17.3594 12.8377H12.8594V17.3377C12.8594 17.5177 12.7194 17.6377 12.5394 17.6377C12.3994 17.6377 12.2594 17.4977 12.2594 17.3377V12.8377H7.7594C7.5894 12.8377 7.4494 12.6977 7.4494 12.5577Z" />
        </svg>
    