
        <svg xmlns="http://www.w3.org/2000/svg" viewBox="0 0 100 100">
            <path d="M18.0617 14.5284H28.1117C30.6117 14.5284 31.9117 13.2584 31.9117 10.7684V3.7584C31.9117 1.2784 30.6117 -0.0016 28.1117 -0.0016H18.0617C15.5417 -0.0016 14.2517 1.2784 14.2517 3.7584V10.7684C14.2517 13.2584 15.5417 14.5284 18.0617 14.5284ZM0.0017 8.1584H12.5317V4.2684C12.5317 3.8884 12.5517 3.5284 12.5617 3.2484C12.2717 3.2484 12.0717 3.2484 11.7817 3.2484C11.0617 3.2184 10.6217 3.0384 10.0617 2.5684L9.4417 2.0584C8.6217 1.3784 8.0117 1.1584 6.8017 1.1584H3.4817C1.2917 1.1584 0.0017 2.4384 0.0017 4.8984ZM23.0817 11.0884C22.6017 11.0884 22.2917 10.7684 22.2917 10.2884V8.0584H20.0617C19.5917 8.0584 19.2617 7.7484 19.2617 7.2684C19.2617 6.7884 19.5817 6.4684 20.0617 6.4684H22.2917V4.2584C22.2917 3.7684 22.6017 3.4484 23.0817 3.4484C23.5617 3.4484 23.8817 3.7684 23.8817 4.2584V6.4684H26.1117C26.5817 6.4684 26.9017 6.7884 26.9017 7.2684C26.9017 7.7484 26.5817 8.0584 26.1117 8.0584H23.8817V10.2884C23.8817 10.7684 23.5617 11.0884 23.0817 11.0884ZM3.8417 22.9884H23.3117C25.5517 22.9884 26.8517 21.4884 26.8517 18.9984V16.2384H18.0517C14.6017 16.2384 12.5317 14.1984 12.5317 10.7884V9.8484H0.0017V19.1884C0.0017 21.6884 1.3117 22.9884 3.8417 22.9884Z" />
        </svg>
    