
        <svg xmlns="http://www.w3.org/2000/svg" viewBox="0 0 100 100">
            <path d="M12.3517 11.5569L18.9017 1.8469C19.0917 1.5869 19.1817 1.3369 19.1817 1.0469C19.1817 0.4469 18.6817 -0.0031 18.0717 -0.0031C17.5317 -0.0031 17.2517 0.1869 16.8617 0.7469L10.2917 10.5469L3.6717 20.3069C3.4917 20.5669 3.3917 20.7969 3.3917 21.1369C3.3917 21.7769 3.9217 22.1769 4.5617 22.1769C5.0517 22.1769 5.3317 21.9869 5.6917 21.4569ZM0.0017 5.9169C0.0017 6.4969 0.4717 6.9569 1.0417 6.9569H3.2217V9.1269C3.2217 9.7169 3.6917 10.1669 4.2617 10.1669C4.8517 10.1669 5.3117 9.7069 5.3117 9.1269V6.9569H7.4917C8.0617 6.9569 8.5317 6.4969 8.5317 5.9169C8.5317 5.3369 8.0617 4.8669 7.4917 4.8669H5.3117V2.6869C5.3117 2.1069 4.8417 1.6369 4.2617 1.6369C3.6817 1.6369 3.2217 2.1069 3.2217 2.6869V4.8669H1.0417C0.4717 4.8669 0.0017 5.3369 0.0017 5.9169ZM14.0517 17.0469C14.0517 17.6269 14.5217 18.0969 15.1017 18.0969H21.5417C22.1117 18.0969 22.5817 17.6269 22.5817 17.0469C22.5817 16.4669 22.1117 15.9969 21.5417 15.9969H15.1017C14.5217 15.9969 14.0517 16.4669 14.0517 17.0469Z" />
        </svg>
    