
        <svg xmlns="http://www.w3.org/2000/svg" viewBox="0 0 100 100">
            <path d="M0.0017 6.3123H3.0217V4.4923C3.0217 3.4923 3.5317 3.0223 4.4617 3.0223H6.2817V0.0023H4.1417C1.4617 0.0023 0.0017 1.4523 0.0017 4.1123ZM8.1917 3.0223H14.2117V0.0023H8.1917ZM19.3817 6.3123H22.4017V4.1123C22.4017 1.4523 20.9417 0.0023 18.2717 0.0023H16.1217V3.0223H17.9417C18.8817 3.0223 19.3817 3.4923 19.3817 4.4923ZM5.8217 11.1923C5.8217 11.9423 6.3617 12.4823 7.1117 12.4823H9.9117V15.2923C9.9117 16.0323 10.4517 16.5723 11.2017 16.5723C11.9517 16.5723 12.5117 16.0323 12.5117 15.2923V12.4823H15.3117C16.0517 12.4823 16.5917 11.9423 16.5917 11.1923C16.5917 10.4323 16.0517 9.8823 15.3117 9.8823H12.5117V7.0823C12.5117 6.3323 11.9517 5.8023 11.2017 5.8023C10.4517 5.8023 9.9117 6.3323 9.9117 7.0823V9.8823H7.1117C6.3617 9.8823 5.8217 10.4323 5.8217 11.1923ZM19.3817 14.2023H22.4017V8.2123H19.3817ZM0.0017 14.2023H3.0217V8.2123H0.0017ZM16.1217 22.4023H18.2717C20.9417 22.4023 22.4017 20.9523 22.4017 18.2923V16.1023H19.3817V17.9323C19.3817 18.9223 18.8817 19.3823 17.9417 19.3823H16.1217ZM4.1417 22.4023H6.2817V19.3823H4.4617C3.5317 19.3823 3.0217 18.9223 3.0217 17.9323V16.1023H0.0017V18.2923C0.0017 20.9523 1.4617 22.4023 4.1417 22.4023ZM8.1917 22.4023H14.2117V19.3823H8.1917Z" />
        </svg>
    