
        <svg xmlns="http://www.w3.org/2000/svg" viewBox="0 0 100 100">
            <path d="M3.0117 21.078H22.5517C24.5117 21.078 25.5617 20.018 25.5617 18.078V12.778H27.9017C29.8717 12.778 30.9117 11.728 30.9117 9.758V3.008C30.9117 1.038 29.8717 -0.002 27.9017 -0.002H17.6817C15.7217 -0.002 14.6817 1.028 14.6717 2.978H11.0617C9.9717 2.978 9.5317 2.858 8.8717 2.228L8.2717 1.668C7.5117 0.928 7.1117 0.798 5.8917 0.798H2.5817C0.8417 0.798 0.0017 1.638 0.0017 3.348V18.078C0.0017 20.038 1.0417 21.078 3.0117 21.078ZM17.7217 12.198C16.0917 12.198 15.2417 11.358 15.2417 9.738V3.038C15.2417 1.418 16.0917 0.578 17.7217 0.578H27.8717C29.4917 0.578 30.3417 1.418 30.3417 3.038V9.738C30.3417 11.358 29.4917 12.198 27.8717 12.198ZM0.5717 3.418C0.5717 2.018 1.2517 1.338 2.6517 1.338H5.8117C6.8317 1.338 7.2517 1.478 7.9617 2.148L8.5517 2.718C9.2417 3.378 9.7517 3.548 10.9817 3.548H14.6717V7.378H0.5717ZM22.8017 10.018C23.0817 10.018 23.2517 9.818 23.2517 9.578V6.828H25.9817C26.2217 6.828 26.4117 6.668 26.4117 6.388C26.4117 6.108 26.2217 5.938 25.9817 5.938H23.2517V3.208C23.2517 2.978 23.0817 2.768 22.8017 2.768C22.5217 2.768 22.3617 2.978 22.3617 3.208V5.938H19.6217C19.3717 5.938 19.1717 6.108 19.1717 6.388C19.1717 6.668 19.3717 6.828 19.6217 6.828H22.3617V9.578C22.3617 9.818 22.5217 10.018 22.8017 10.018ZM17.6817 12.778H24.9817V18.048C24.9817 19.678 24.0817 20.508 22.5217 20.508H3.0317C1.4217 20.508 0.5717 19.678 0.5717 18.048V7.958H14.6717V9.758C14.6717 11.728 15.7117 12.778 17.6817 12.778Z" />
        </svg>
    