
        <svg xmlns="http://www.w3.org/2000/svg" viewBox="0 0 100 100">
            <path d="M10.5317 11.1983L17.1417 0.5783C17.2117 0.4583 17.2517 0.3783 17.2517 0.2883C17.2517 0.1283 17.1217 -0.0017 16.9417 -0.0017C16.7817 -0.0017 16.7217 0.0583 16.6017 0.2483L9.9117 11.0583L3.4717 21.4683C3.4017 21.5883 3.3617 21.6683 3.3617 21.7783C3.3617 21.9383 3.4917 22.0383 3.6717 22.0383C3.8017 22.0383 3.8917 21.9983 4.0117 21.8183ZM0.0017 5.8283C0.0017 5.9783 0.1317 6.1083 0.2917 6.1083H3.0817V8.8983C3.0817 9.0583 3.2117 9.1883 3.3617 9.1883C3.5317 9.1883 3.6517 9.0583 3.6517 8.8983V6.1083H6.4417C6.6117 6.1083 6.7417 5.9783 6.7417 5.8283C6.7417 5.6583 6.6117 5.5283 6.4417 5.5283H3.6517V2.7383C3.6517 2.5783 3.5317 2.4483 3.3617 2.4483C3.2117 2.4483 3.0817 2.5783 3.0817 2.7383V5.5283H0.2917C0.1317 5.5283 0.0017 5.6583 0.0017 5.8283ZM14.0017 17.6583C14.0017 17.8283 14.1317 17.9483 14.2817 17.9483H20.4517C20.6017 17.9483 20.7317 17.8283 20.7317 17.6583C20.7317 17.5083 20.6017 17.3783 20.4517 17.3783H14.2817C14.1317 17.3783 14.0017 17.5083 14.0017 17.6583Z" />
        </svg>
    