
        <svg xmlns="http://www.w3.org/2000/svg" viewBox="0 0 100 100">
            <path d="M0.0017 6.8394C0.0017 7.0094 0.1317 7.1394 0.2817 7.1394H6.8117V13.4494C6.8117 13.6194 6.9417 13.7494 7.0917 13.7494C7.2417 13.7494 7.3717 13.6194 7.3717 13.4494V7.1394H13.9117C14.0617 7.1394 14.1917 7.0094 14.1917 6.8394C14.1917 6.6894 14.0617 6.5594 13.9117 6.5594H7.3717V0.2794C7.3717 0.1294 7.2417 -0.0006 7.0917 -0.0006C6.9417 -0.0006 6.8117 0.1294 6.8117 0.2794V6.5594H0.2817C0.1317 6.5594 0.0017 6.6894 0.0017 6.8394ZM0.0017 18.5294C0.0017 18.6794 0.1317 18.8094 0.2817 18.8094H13.9117C14.0617 18.8094 14.1917 18.6794 14.1917 18.5294C14.1917 18.3794 14.0617 18.2494 13.9117 18.2494H0.2817C0.1317 18.2494 0.0017 18.3794 0.0017 18.5294Z" />
        </svg>
    