
        <svg xmlns="http://www.w3.org/2000/svg" viewBox="0 0 100 100">
            <path d="M12.7923 25.5978C19.8723 25.5978 25.6023 19.8678 25.6023 12.7978C25.6023 5.7278 19.8723 -0.0022 12.7923 -0.0022C5.7323 -0.0022 0.0023 5.7278 0.0023 12.7978C0.0023 19.8678 5.7323 25.5978 12.7923 25.5978ZM7.0323 12.7978C7.0323 11.7978 7.7623 11.0478 8.7323 11.0478H11.0523V8.7178C11.0523 7.7578 11.8123 7.0178 12.7923 7.0178C13.7923 7.0178 14.5423 7.7578 14.5423 8.7178V11.0478H16.8723C17.8523 11.0478 18.5723 11.7978 18.5723 12.7978C18.5723 13.7978 17.8523 14.5478 16.8723 14.5478H14.5423V16.8778C14.5423 17.8378 13.7923 18.5578 12.7923 18.5578C11.8123 18.5578 11.0523 17.8378 11.0523 16.8778V14.5478H8.7323C7.7623 14.5478 7.0323 13.7978 7.0323 12.7978Z" />
        </svg>
    