
        <svg xmlns="http://www.w3.org/2000/svg" viewBox="0 0 100 100">
            <path d="M0.0017 21.5306C0.0017 24.0606 1.3017 25.3706 3.8117 25.3706H16.2917C18.8017 25.3706 20.1017 24.0606 20.1017 21.5306V3.8406C20.1017 1.3206 18.8017 0.0006 16.2917 0.0006H3.8117C1.3017 0.0006 0.0017 1.3206 0.0017 3.8406ZM4.3217 12.6906C4.3217 12.0106 4.8017 11.5306 5.4817 11.5306H8.9017V8.1106C8.9017 7.4306 9.3717 6.9506 10.0417 6.9506C10.7217 6.9506 11.2017 7.4306 11.2017 8.1106V11.5306H14.6417C15.3017 11.5306 15.7817 12.0106 15.7817 12.6906C15.7817 13.3606 15.3017 13.8306 14.6417 13.8306H11.2017V17.2706C11.2017 17.9306 10.7217 18.4106 10.0417 18.4106C9.3717 18.4106 8.9017 17.9306 8.9017 17.2706V13.8306H5.4817C4.8017 13.8306 4.3217 13.3606 4.3217 12.6906Z" />
        </svg>
    