
        <svg xmlns="http://www.w3.org/2000/svg" viewBox="0 0 100 100">
            <path d="M0.0017 8.1469C0.0017 9.6369 1.0117 10.6369 2.5117 10.6369H5.6617V13.7769C5.6617 15.2769 6.6717 16.2769 8.1517 16.2769C9.6517 16.2769 10.6617 15.2769 10.6617 13.7769V10.6369H13.8117C15.3117 10.6369 16.3117 9.6369 16.3117 8.1469C16.3117 6.6469 15.3117 5.6369 13.8117 5.6369H10.6617V2.5069C10.6617 1.0069 9.6517 -0.0031 8.1517 -0.0031C6.6717 -0.0031 5.6617 1.0069 5.6617 2.5069V5.6369H2.5117C1.0117 5.6369 0.0017 6.6469 0.0017 8.1469ZM0.0017 21.1769C0.0017 22.6769 1.0117 23.6869 2.5117 23.6869H13.8117C15.3017 23.6869 16.3117 22.6769 16.3117 21.1769C16.3117 19.6869 15.3017 18.6769 13.8117 18.6769H2.5117C1.0117 18.6769 0.0017 19.6869 0.0017 21.1769Z" />
        </svg>
    