
        <svg xmlns="http://www.w3.org/2000/svg" viewBox="0 0 100 100">
            <path d="M3.6817 21.5722H17.8917C20.3517 21.5722 21.5717 20.3722 21.5717 17.9522V3.6322C21.5717 1.2222 20.3517 0.0022 17.8917 0.0022H3.6817C1.2317 0.0022 0.0017 1.2222 0.0017 3.6322V17.9522C0.0017 20.3722 1.2317 21.5722 3.6817 21.5722ZM5.0717 10.7922C5.0717 10.1822 5.4917 9.7622 6.1017 9.7622H9.7717V6.0922C9.7717 5.4822 10.1817 5.0522 10.7817 5.0522C11.3917 5.0522 11.8117 5.4822 11.8117 6.0922V9.7622H15.4917C16.0917 9.7622 16.5217 10.1822 16.5217 10.7922C16.5217 11.3922 16.0917 11.7922 15.4917 11.7922H11.8117V15.4722C11.8117 16.0822 11.3917 16.5022 10.7817 16.5022C10.1817 16.5022 9.7717 16.0622 9.7717 15.4722V11.7922H6.1017C5.4917 11.7922 5.0717 11.3922 5.0717 10.7922Z" />
        </svg>
    