
        <svg xmlns="http://www.w3.org/2000/svg" viewBox="0 0 100 100">
            <path d="M0.0047 10.1478C0.0047 15.7478 4.5347 20.2878 10.1447 20.2878C11.8347 20.2878 13.4047 19.8678 14.7847 19.1278L18.9347 23.2778C19.4847 23.8278 20.2547 24.0978 21.0247 24.0978C22.6747 24.0978 23.9047 22.8378 23.9047 21.1978C23.9047 20.4478 23.6447 19.7078 23.0847 19.1478L18.9847 15.0478C19.8147 13.6078 20.2947 11.9278 20.2947 10.1478C20.2947 4.5378 15.7547 -0.0022 10.1447 -0.0022C4.5347 -0.0022 0.0047 4.5378 0.0047 10.1478ZM3.8347 10.1478C3.8347 6.6678 6.6647 3.8278 10.1447 3.8278C13.6247 3.8278 16.4547 6.6678 16.4547 10.1478C16.4547 13.6178 13.6247 16.4578 10.1447 16.4578C6.6647 16.4578 3.8347 13.6178 3.8347 10.1478ZM5.9747 10.1478C5.9747 10.7578 6.4647 11.2478 7.0747 11.2478H9.0347V13.2078C9.0347 13.8178 9.5247 14.3178 10.1447 14.3178C10.7547 14.3178 11.2347 13.8178 11.2347 13.2078V11.2478H13.2047C13.8147 11.2478 14.3047 10.7578 14.3047 10.1478C14.3047 9.5278 13.8147 9.0378 13.2047 9.0378H11.2347V7.0878C11.2347 6.4778 10.7447 5.9778 10.1347 5.9778C9.5247 5.9778 9.0347 6.4778 9.0347 7.0878V9.0378H7.0747C6.4647 9.0378 5.9747 9.5278 5.9747 10.1478Z" />
        </svg>
    