
        <svg xmlns="http://www.w3.org/2000/svg" viewBox="0 0 100 100">
            <path d="M0.0017 6.8472C0.0017 7.2872 0.3617 7.6372 0.8017 7.6372H6.2917V12.9572C6.2917 13.3972 6.6517 13.7472 7.0917 13.7472C7.5217 13.7472 7.8917 13.3972 7.8917 12.9572V7.6372H13.4017C13.8417 7.6372 14.1917 7.2872 14.1917 6.8472C14.1917 6.4072 13.8417 6.0572 13.4017 6.0572H7.8917V0.7772C7.8917 0.3472 7.5217 -0.0028 7.0917 -0.0028C6.6517 -0.0028 6.2917 0.3472 6.2917 0.7772V6.0572H0.8017C0.3617 6.0572 0.0017 6.4072 0.0017 6.8472ZM0.0017 18.5272C0.0017 18.9572 0.3617 19.3272 0.8017 19.3272H13.4017C13.8317 19.3272 14.1917 18.9572 14.1917 18.5272C14.1917 18.0972 13.8317 17.7372 13.4017 17.7372H0.8017C0.3617 17.7372 0.0017 18.0972 0.0017 18.5272Z" />
        </svg>
    