
        <svg xmlns="http://www.w3.org/2000/svg" viewBox="0 0 100 100">
            <path d="M2.8717 8.4445C2.8717 11.0745 4.4317 12.8645 7.4317 13.6445L13.3517 15.1945C15.1717 15.6845 16.1117 16.6245 16.1117 17.9645V18.3245C14.4517 18.8645 13.2417 20.4245 13.2417 22.2745C13.2417 24.5545 15.0917 26.4145 17.3917 26.4145C19.6617 26.4145 21.5117 24.5545 21.5117 22.2745C21.5117 20.4245 20.3217 18.8645 18.6517 18.3245V17.9645C18.6517 15.3445 17.1017 13.5445 14.1017 12.7745L8.1717 11.2145C6.3517 10.7345 5.4017 9.7845 5.4017 8.4445V8.0845C7.0617 7.5445 8.2717 5.9845 8.2717 4.1345C8.2717 1.8645 6.4217 0.0045 4.1417 0.0045C1.8517 0.0045 0.0017 1.8645 0.0017 4.1345C0.0017 5.9845 1.2117 7.5445 2.8717 8.0845Z" />
        </svg>
    