
        <svg xmlns="http://www.w3.org/2000/svg" viewBox="0 0 100 100">
            <path d="M2.9517 9.4195C2.9517 12.6695 4.7317 14.7795 8.1717 15.5295L14.1817 16.8795C15.7717 17.2395 16.5917 18.0395 16.5917 19.2195V19.2295C14.8617 19.9895 13.6417 21.7195 13.6417 23.7395C13.6417 26.4395 15.8417 28.6395 18.5617 28.6395C21.2717 28.6395 23.4717 26.4395 23.4717 23.7395C23.4717 21.7195 22.2517 19.9795 20.5217 19.2295V19.2195C20.5217 15.9695 18.7417 13.8795 15.3017 13.1295L9.2817 11.7695C7.7017 11.3995 6.8817 10.6095 6.8817 9.4195C8.6117 8.6595 9.8317 6.9295 9.8317 4.9095C9.8317 2.1995 7.6317 -0.0005 4.9117 -0.0005C2.2017 -0.0005 0.0017 2.1995 0.0017 4.9095C0.0017 6.9295 1.2217 8.6595 2.9517 9.4195ZM18.5617 22.3795C19.3217 22.3795 19.9117 22.9795 19.9117 23.7395C19.9117 24.4995 19.3317 25.0795 18.5617 25.0795C17.7917 25.0795 17.2117 24.5195 17.2117 23.7395C17.2117 22.9695 17.8017 22.3795 18.5617 22.3795Z" />
        </svg>
    