
        <svg xmlns="http://www.w3.org/2000/svg" viewBox="0 0 100 100">
            <path d="M13.3317 3.3132H15.8817C17.7217 3.3132 18.9717 4.4132 18.9717 6.1532C18.9717 7.8932 17.7317 9.0232 15.8817 9.0232H14.1917C13.9617 9.0232 13.7817 9.1732 13.7817 9.4232C13.7817 9.6832 13.9617 9.8332 14.2017 9.8332H15.8817C18.2117 9.8332 19.7917 8.3732 19.7917 6.1632C19.7917 3.9632 18.2117 2.5032 15.8817 2.5032H13.3317V0.4632C13.3317 0.0432 12.9517 -0.1268 12.6717 0.1032L9.6717 2.5032C9.3617 2.7532 9.3617 3.0932 9.6717 3.3432L12.6517 5.7332C12.9417 5.9632 13.3317 5.7832 13.3317 5.3632ZM3.3117 26.7032C4.9817 26.7032 6.3617 25.4732 6.5817 23.8432H14.1317C17.6017 23.8432 19.7917 22.0732 19.7917 19.2732C19.7917 16.4732 17.5317 14.5332 13.6617 14.1332L6.2917 13.3732C2.9417 13.0232 0.9217 11.4032 0.9217 9.1432C0.9217 6.8632 2.7617 5.4332 5.7217 5.4332H10.7217L10.0517 4.8832C9.9417 4.7832 9.8317 4.6732 9.7417 4.5732H5.7217C2.2417 4.5732 0.0517 6.3432 0.0517 9.1432C0.0517 11.9432 2.3217 13.8932 6.1017 14.2832L13.5517 15.0432C16.9117 15.3932 18.9217 17.0132 18.9217 19.2732C18.9217 21.5532 17.0717 22.9832 14.1317 22.9832H6.5817C6.3717 21.3632 4.9917 20.0932 3.3117 20.0932C1.4717 20.0932 0.0017 21.5832 0.0017 23.4032C0.0017 25.2332 1.4717 26.7032 3.3117 26.7032ZM3.3117 25.8532C1.9417 25.8532 0.8717 24.7732 0.8717 23.4032C0.8717 22.0432 1.9617 20.9632 3.3117 20.9632C4.6717 20.9632 5.7517 22.0432 5.7517 23.4032C5.7517 24.7732 4.6917 25.8532 3.3117 25.8532Z" />
        </svg>
    