
        <svg xmlns="http://www.w3.org/2000/svg" viewBox="0 0 100 100">
            <path d="M4.1417 26.706C5.9217 26.706 7.4317 25.576 8.0317 24.006H15.3517C19.4317 24.006 22.0417 21.846 22.0417 18.436C22.0417 14.956 19.5017 12.696 14.6017 12.206L7.8017 11.486C4.2317 11.116 2.6117 9.886 2.6117 8.026C2.6117 6.186 4.1017 5.056 6.6917 5.056H15.9017V6.616C15.9017 7.506 16.6217 7.736 17.2717 7.256L21.1017 4.426C21.6117 4.046 21.6217 3.466 21.1017 3.076L17.2717 0.256C16.6217 -0.244 15.9017 -0.004 15.9017 0.896V2.446H6.6917C2.6117 2.446 0.0017 4.616 0.0017 8.026C0.0017 11.506 2.5417 13.766 7.4217 14.256L14.2217 14.976C17.8017 15.346 19.4317 16.576 19.4317 18.436C19.4317 20.276 17.9417 21.396 15.3517 21.396H8.1217C7.6217 19.686 6.0217 18.426 4.1417 18.426C1.8617 18.426 0.0117 20.276 0.0117 22.556C0.0117 24.846 1.8617 26.706 4.1417 26.706ZM4.1417 24.316C3.1617 24.316 2.4017 23.536 2.4017 22.556C2.4017 21.566 3.1617 20.806 4.1417 20.806C5.1317 20.806 5.8917 21.566 5.8917 22.556C5.8917 23.536 5.1317 24.316 4.1417 24.316Z" />
        </svg>
    