
        <svg xmlns="http://www.w3.org/2000/svg" viewBox="0 0 100 100">
            <path d="M4.6417 28.3389C6.4317 28.3389 7.9917 27.3189 8.7617 25.8289H16.4217C20.8917 25.8289 23.8317 23.4189 23.8317 19.5889C23.8317 15.6989 21.0117 13.1789 15.6417 12.6289L8.6817 11.9189C5.0417 11.5289 3.6217 10.4689 3.6217 8.7489C3.6217 7.0789 4.8917 6.1289 7.4217 6.1289H14.7917C15.4117 7.9689 17.1417 9.2889 19.1817 9.2889C21.7617 9.2889 23.8317 7.2189 23.8317 4.6389C23.8317 2.0889 21.7617 -0.0011 19.1817 -0.0011C17.4017 -0.0011 15.8417 1.0189 15.0717 2.5089H7.4217C2.9417 2.5089 0.0017 4.9289 0.0017 8.7489C0.0017 12.6489 2.8217 15.1689 8.1817 15.7189L15.1417 16.4289C18.7817 16.8189 20.2117 17.8789 20.2117 19.5889C20.2117 21.2689 18.9417 22.2089 16.4217 22.2089H9.0617C8.4417 20.3689 6.6917 19.0389 4.6417 19.0389C2.0817 19.0389 0.0017 21.1289 0.0017 23.6789C0.0017 26.2489 2.0817 28.3389 4.6417 28.3389Z" />
        </svg>
    