
        <svg xmlns="http://www.w3.org/2000/svg" viewBox="0 0 100 100">
            <path d="M7.1817 17.2356H19.0417C23.2617 17.2356 26.2417 14.2656 26.2417 10.0456C26.2417 5.8456 23.2617 2.8756 19.0417 2.8756H16.9817C16.8417 1.2656 15.4817 -0.0044 13.8417 -0.0044C12.0817 -0.0044 10.6617 1.4156 10.6617 3.1656C10.6617 4.9256 12.0817 6.3356 13.8417 6.3356C15.4817 6.3356 16.8417 5.0756 16.9817 3.4456H19.0417C22.9317 3.4456 25.6617 6.1756 25.6617 10.0456C25.6617 13.9356 22.9317 16.6656 19.0417 16.6656H7.1817C3.2917 16.6656 0.5717 13.9356 0.5717 10.0456C0.5717 6.1756 3.2917 3.4456 7.1817 3.4456H9.7817C9.7717 3.3556 9.7717 3.2556 9.7717 3.1656C9.7717 3.0556 9.7717 2.9756 9.8017 2.8756H7.1817C2.9617 2.8756 0.0017 5.8456 0.0017 10.0456C0.0017 14.2656 2.9617 17.2356 7.1817 17.2356ZM13.8417 5.7656C12.3717 5.7656 11.2417 4.6156 11.2417 3.1656C11.2417 1.7256 12.4017 0.5756 13.8417 0.5756C15.2817 0.5756 16.4217 1.7256 16.4217 3.1656C16.4217 4.6156 15.2917 5.7656 13.8417 5.7656Z" />
        </svg>
    