
        <svg xmlns="http://www.w3.org/2000/svg" viewBox="0 0 100 100">
            <path d="M12.9817 3.0201H15.6417C17.5817 3.0201 18.8717 4.1901 18.8717 5.9801C18.8717 7.7701 17.5817 8.9301 15.6417 8.9301H13.8917C13.7117 8.9301 13.6017 9.0501 13.6017 9.2201C13.6017 9.4001 13.7117 9.5101 13.8917 9.5101H15.6417C17.9317 9.5101 19.4517 8.1001 19.4517 5.9801C19.4517 3.8701 17.9317 2.4501 15.6417 2.4501H12.9817V0.3701C12.9817 0.0201 12.6717 -0.0999 12.4417 0.0801L9.5417 2.3901C9.2817 2.6001 9.2817 2.8801 9.5417 3.0801L12.4317 5.3801C12.6417 5.5501 12.9817 5.4401 12.9817 5.0801ZM3.1717 26.3501C4.8117 26.3501 6.1717 25.1001 6.3317 23.4801H13.9317C17.3217 23.4801 19.4517 21.7601 19.4517 19.0501C19.4517 16.3701 17.2017 14.4501 13.5517 14.0801L5.9717 13.3001C2.6617 12.9601 0.5717 11.2601 0.5717 8.9201C0.5717 6.5501 2.4717 5.0601 5.5217 5.0601H10.7417L10.2517 4.6601C10.1817 4.6001 10.1117 4.5501 10.0317 4.4901H5.5217C2.1317 4.4901 0.0017 6.2101 0.0017 8.9201C0.0017 11.6001 2.2417 13.5301 5.8117 13.8901L13.4717 14.6701C16.7917 15.0101 18.8817 16.7101 18.8817 19.0501C18.8817 21.4201 16.9717 22.9101 13.9317 22.9101H6.3317C6.1917 21.2901 4.8317 20.0101 3.1717 20.0101C1.4217 20.0101 0.0017 21.4301 0.0017 23.1801C0.0017 24.9401 1.4217 26.3501 3.1717 26.3501Z" />
        </svg>
    