
        <svg xmlns="http://www.w3.org/2000/svg" viewBox="0 0 100 100">
            <path d="M3.1717 24.529C4.8117 24.529 6.1617 23.279 6.3117 21.659H13.9317C17.3217 21.659 19.4517 19.939 19.4517 17.229C19.4517 14.549 17.2117 12.629 13.5517 12.259L5.9717 11.479C2.6617 11.139 0.5717 9.439 0.5717 7.099C0.5717 4.729 2.4817 3.239 5.5217 3.239H14.3217V5.579C14.3217 5.959 14.5817 6.099 14.9317 5.849L18.4017 3.319C18.6917 3.119 18.6917 2.849 18.4017 2.659L14.9317 0.119C14.5817 -0.121 14.3217 0.019 14.3217 0.389V2.669H5.5217C2.1317 2.669 0.0017 4.389 0.0017 7.099C0.0017 9.779 2.2417 11.709 5.8117 12.069L13.4717 12.849C16.7917 13.189 18.8817 14.889 18.8817 17.229C18.8817 19.599 16.9717 21.089 13.9317 21.089H6.3317C6.1917 19.469 4.8317 18.189 3.1717 18.189C1.4217 18.189 0.0017 19.609 0.0017 21.359C0.0017 23.119 1.4217 24.529 3.1717 24.529Z" />
        </svg>
    