
        <svg xmlns="http://www.w3.org/2000/svg" viewBox="0 0 100 100">
            <path d="M1.8917 23.1763H25.6417V22.2263C25.6417 21.6763 25.3117 21.3563 24.7717 21.3563H24.1517V8.6363H25.1417C25.9117 8.6363 26.3717 8.0663 26.3717 7.4863C26.3717 7.0663 26.1217 6.6763 25.6217 6.3863L15.3317 0.4563C14.8317 0.1663 14.2817 -0.0038 13.7617 -0.0038C13.2317 -0.0038 12.6817 0.1663 12.1917 0.4563L1.9017 6.3863C1.3817 6.6763 1.1617 7.0663 1.1617 7.4863C1.1617 8.0663 1.6017 8.6363 2.3917 8.6363H3.3917V21.3563H2.7517C2.2117 21.3563 1.8917 21.6763 1.8917 22.2263ZM5.4717 21.3563V7.0163L13.3917 2.5763C13.5017 2.5162 13.6417 2.4862 13.7617 2.4862C13.8917 2.4862 14.0117 2.5162 14.1317 2.5763L22.0517 7.0163V21.3563ZM16.5817 17.7563C17.0717 17.7563 17.3817 17.4263 17.3817 16.8963V12.7163L18.2017 12.2963C18.4617 12.1663 18.5417 11.9763 18.5417 11.7762C18.5417 11.4263 18.1717 11.0963 17.7517 11.3163L17.3817 11.5063V8.7563C17.3817 8.2163 17.0717 7.8863 16.5817 7.8863C16.0817 7.8863 15.7617 8.2163 15.7617 8.7463V12.3663L14.9917 12.7762C14.7617 12.9063 14.6417 13.1063 14.6417 13.2863C14.6417 13.6563 15.0117 13.9663 15.4817 13.7263L15.7617 13.5663V16.8963C15.7617 17.4263 16.0817 17.7563 16.5817 17.7563ZM9.8917 17.6163H13.5817C13.9617 17.6163 14.2217 17.3563 14.2217 16.9963C14.2217 16.6263 13.9617 16.3863 13.5817 16.3863H11.3317V16.2463L13.9117 12.0963C14.0617 11.8463 14.1517 11.6863 14.1517 11.4163C14.1517 11.0163 13.9117 10.6863 13.3917 10.6863H9.8517C9.4817 10.6863 9.2117 10.9462 9.2117 11.3063C9.2117 11.6763 9.4817 11.9263 9.8517 11.9263H12.2317V12.0663L9.4317 16.3563C9.2917 16.5863 9.2117 16.7362 9.2117 16.9463C9.2117 17.3363 9.4817 17.6163 9.8917 17.6163ZM1.1517 26.3763H26.2517C26.8717 26.3763 27.4017 25.8663 27.4017 25.2263C27.4017 24.5963 26.8717 24.0863 26.2517 24.0863H1.1517C0.5317 24.0863 0.0017 24.5963 0.0017 25.2263C0.0017 25.8663 0.5317 26.3763 1.1517 26.3763Z" />
        </svg>
    