
        <svg xmlns="http://www.w3.org/2000/svg" viewBox="0 0 100 100">
            <path d="M3.4617 21.2264H17.7617C20.0517 21.2264 21.2217 20.0464 21.2217 17.7964V3.4264C21.2217 1.1764 20.0517 -0.0036 17.7617 -0.0036H3.4617C1.1717 -0.0036 0.0017 1.1564 0.0017 3.4264V17.7964C0.0017 20.0664 1.1717 21.2264 3.4617 21.2264ZM11.5317 10.9264C11.5317 10.7564 11.6217 10.5964 11.8217 10.4764L12.8217 9.9364V5.7964C12.8217 5.4364 13.0417 5.2164 13.3817 5.2164C13.7217 5.2164 13.9417 5.4364 13.9417 5.8164V9.3264L14.6117 8.9564C14.9717 8.7664 15.2917 9.0464 15.2917 9.3564C15.2917 9.5064 15.2117 9.6664 15.0117 9.7764L13.9417 10.3564V15.1164C13.9417 15.4764 13.7217 15.7064 13.3817 15.7064C13.0417 15.7064 12.8217 15.4764 12.8217 15.1164V10.9564L12.2317 11.2964C11.8517 11.5064 11.5317 11.2264 11.5317 10.9264ZM6.6917 15.5764C6.3917 15.5764 6.1717 15.3664 6.1717 15.0564C6.1717 14.8964 6.2617 14.7464 6.3517 14.5764L9.6817 9.2464V9.1264H6.6317C6.3717 9.1264 6.1717 8.9364 6.1717 8.6864C6.1717 8.4264 6.3717 8.2364 6.6317 8.2364H10.4317C10.8417 8.2364 10.9917 8.5064 10.9917 8.7764C10.9917 8.9864 10.9117 9.1264 10.7917 9.3364L7.5717 14.5764V14.6864H10.5717C10.8417 14.6864 11.0417 14.8864 11.0417 15.1164C11.0417 15.3764 10.8417 15.5764 10.5717 15.5764Z" />
        </svg>
    