
        <svg xmlns="http://www.w3.org/2000/svg" viewBox="0 0 100 100">
            <path d="M14.1317 12.5522L14.8617 12.1622V21.8722C14.8617 22.5622 15.3317 23.0622 15.9817 23.0622C16.6417 23.0622 17.1117 22.5622 17.1117 21.8722V10.9422L18.8217 10.0222C19.2917 9.7822 19.4617 9.4322 19.4617 9.1122C19.4617 8.5122 18.8217 7.9822 18.0817 8.3622L17.1117 8.8822V1.1822C17.1117 0.4922 16.6417 0.0022 15.9817 0.0022C15.3317 0.0022 14.8617 0.4922 14.8617 1.1822V10.0922L13.2617 10.9422C12.8517 11.1722 12.6517 11.5222 12.6517 11.8522C12.6517 12.4722 13.2917 12.9922 14.1317 12.5522ZM1.1217 22.7822H10.1817C10.7817 22.7822 11.1417 22.4022 11.1417 21.8422C11.1417 21.2822 10.7817 20.9322 10.1817 20.9322H2.7517V20.6822L10.6417 9.0422C10.9317 8.6122 11.0817 8.3322 11.0817 7.8422C11.0817 7.0122 10.5117 6.6722 9.8517 6.6722H0.9517C0.3917 6.6722 0.0017 7.0622 0.0017 7.6022C0.0017 8.1422 0.3917 8.5322 0.9517 8.5322H8.4117V8.7922L0.3417 20.6522C0.1217 20.9722 0.0017 21.2622 0.0017 21.6722C0.0017 22.3122 0.4617 22.7822 1.1217 22.7822Z" />
        </svg>
    