
        <svg xmlns="http://www.w3.org/2000/svg" viewBox="0 0 100 100">
            <path d="M3.1617 20.742H17.5917C19.6617 20.742 20.7417 19.642 20.7417 17.592V3.152C20.7417 1.102 19.6617 0.002 17.5917 0.002H3.1617C1.0917 0.002 0.0017 1.082 0.0017 3.152V17.592C0.0017 19.662 1.0917 20.742 3.1617 20.742ZM11.3917 10.472C11.3917 10.362 11.4517 10.232 11.6017 10.152L12.6917 9.532V5.382C12.6917 5.112 12.8417 4.942 13.1017 4.942C13.3517 4.942 13.5017 5.112 13.5017 5.382V9.072L14.3017 8.612C14.5817 8.462 14.8017 8.682 14.8017 8.902C14.8017 9.032 14.7517 9.142 14.6117 9.222L13.5017 9.852V15.072C13.5017 15.342 13.3517 15.502 13.1017 15.502C12.8417 15.502 12.6917 15.342 12.6917 15.072V10.312L11.9217 10.762C11.6417 10.922 11.3917 10.712 11.3917 10.472ZM6.5617 15.372C6.3117 15.372 6.1617 15.212 6.1617 14.962C6.1617 14.852 6.2217 14.702 6.3017 14.582L9.8417 8.742V8.662H6.5017C6.3117 8.662 6.1617 8.522 6.1617 8.332C6.1617 8.142 6.3117 7.992 6.5017 7.992H10.3717C10.7017 7.992 10.8017 8.242 10.8017 8.412C10.8017 8.582 10.7317 8.692 10.6417 8.872L7.1617 14.632V14.702H10.4917C10.6717 14.702 10.8317 14.862 10.8317 15.032C10.8317 15.222 10.6717 15.372 10.4917 15.372Z" />
        </svg>
    