
        <svg xmlns="http://www.w3.org/2000/svg" viewBox="0 0 100 100">
            <path d="M3.4617 21.2264H17.7617C20.0517 21.2264 21.2217 20.0464 21.2217 17.7964V3.4264C21.2217 1.1764 20.0517 -0.0036 17.7617 -0.0036H3.4617C1.1717 -0.0036 0.0017 1.1564 0.0017 3.4264V17.7964C0.0017 20.0664 1.1717 21.2264 3.4617 21.2264ZM3.4817 19.7664C2.1717 19.7664 1.4517 19.0764 1.4517 17.7164V3.5064C1.4517 2.1464 2.1717 1.4564 3.4817 1.4564H17.7317C19.0317 1.4564 19.7717 2.1464 19.7717 3.5064V17.7164C19.7717 19.0764 19.0317 19.7664 17.7317 19.7664ZM13.3317 15.5964C13.6617 15.5964 13.8717 15.3864 13.8717 15.0264V10.3564L14.9217 9.7864C15.1217 9.6764 15.2017 9.5264 15.2017 9.3664C15.2017 9.0664 14.8917 8.7864 14.5417 8.9764L13.8717 9.3364V5.8964C13.8717 5.5264 13.6617 5.3064 13.3317 5.3064C12.9917 5.3064 12.7817 5.5264 12.7817 5.8964V9.9364L11.8017 10.4764C11.6117 10.5864 11.5217 10.7564 11.5217 10.9064C11.5217 11.2064 11.8217 11.4764 12.2117 11.2764L12.7817 10.9464V15.0264C12.7817 15.3864 12.9917 15.5964 13.3317 15.5964ZM6.7717 15.4764H10.5817C10.8417 15.4764 11.0417 15.2764 11.0417 15.0364C11.0417 14.7864 10.8417 14.6064 10.5817 14.6064H7.6417V14.4964L10.7917 9.3564C10.9117 9.1564 10.9917 9.0164 10.9917 8.8164C10.9917 8.5564 10.8417 8.2864 10.4417 8.2864H6.7117C6.4717 8.2864 6.2717 8.4764 6.2717 8.7064C6.2717 8.9664 6.4717 9.1564 6.7117 9.1564H9.7017V9.2564L6.4417 14.4964C6.3517 14.6564 6.2717 14.8164 6.2717 14.9664C6.2717 15.2664 6.4817 15.4764 6.7717 15.4764Z" />
        </svg>
    