
        <svg xmlns="http://www.w3.org/2000/svg" viewBox="0 0 100 100">
            <path d="M3.8417 21.8745H18.0317C20.5617 21.8745 21.8817 20.5745 21.8817 18.0745V3.8045C21.8817 1.3145 20.5617 0.0045 18.0317 0.0045H3.8417C1.3117 0.0045 0.0017 1.3045 0.0017 3.8045V18.0745C0.0017 20.5745 1.3117 21.8745 3.8417 21.8745ZM11.8517 11.3345C11.8517 11.1345 11.9617 10.9245 12.2117 10.7945L13.0617 10.3345V6.4245C13.0617 5.9045 13.3717 5.6045 13.8517 5.6045C14.3217 5.6045 14.6217 5.9045 14.6217 6.4245V9.5245L15.1217 9.2545C15.5417 9.0545 15.9117 9.3945 15.9117 9.7545C15.9117 9.9345 15.8117 10.1445 15.5517 10.2745L14.6217 10.7645V15.1445C14.6217 15.6545 14.3217 15.9645 13.8517 15.9645C13.3717 15.9645 13.0617 15.6545 13.0617 15.1445V11.5745L12.6917 11.7745C12.2217 12.0145 11.8517 11.6945 11.8517 11.3345ZM6.9417 15.8245C6.5317 15.8245 6.2617 15.5545 6.2617 15.1645C6.2617 14.9545 6.3517 14.7845 6.4917 14.5745L9.5017 9.9045V9.7545H6.8917C6.5317 9.7545 6.2617 9.5145 6.2617 9.1545C6.2617 8.8045 6.5317 8.5545 6.8917 8.5545H10.6017C11.1217 8.5545 11.3417 8.8745 11.3417 9.2645C11.3417 9.5245 11.2517 9.6945 11.1017 9.9445L8.2617 14.4945V14.6245H10.7817C11.1517 14.6245 11.4117 14.8745 11.4117 15.2145C11.4117 15.5745 11.1517 15.8245 10.7817 15.8245Z" />
        </svg>
    