
        <svg xmlns="http://www.w3.org/2000/svg" viewBox="0 0 100 100">
            <path d="M0.5166 8.5552C1.1966 8.1752 1.9966 7.9852 2.7766 7.9852C4.0166 7.9852 5.2366 8.4652 6.0466 9.4552C6.8766 8.2452 8.3466 7.5852 9.7966 7.5852C11.2666 7.5852 12.7166 8.2452 13.5466 9.4552C14.3666 8.4652 15.5966 7.9852 16.8566 7.9852C17.6166 7.9852 18.3766 8.1652 19.0466 8.5352C19.4566 7.9452 19.6966 7.2552 19.6966 6.4852C19.6966 4.4652 18.4066 3.0452 16.5466 2.9952C16.0566 1.8652 15.1366 1.1052 13.8766 1.1052C13.0766 1.1052 12.3266 1.3852 11.7666 1.8952C11.4866 1.8152 11.0866 1.7952 10.7466 1.8652C10.2266 0.7252 9.1266 -0.0048 7.8766 -0.0048C6.2066 -0.0048 5.1066 1.0152 4.9066 2.0352C4.0166 1.9552 3.2666 2.7752 3.2666 3.5752C1.4766 3.5152 -0.0034 4.9952 -0.0034 6.7852C-0.0034 7.4052 0.1566 7.9852 0.5166 8.5552ZM8.3566 27.7652H10.3266V27.7052C9.7766 26.9852 9.4666 26.0952 9.4666 25.1452C9.4666 23.4752 10.3566 21.9652 11.8366 21.1852L12.6466 12.1152C12.8366 10.0052 11.0766 9.1752 9.7966 9.1752C8.5266 9.1752 6.7666 10.0052 6.9466 12.1152ZM5.2066 27.7652H6.8166L5.3866 12.0152C5.2466 10.3552 3.9866 9.5652 2.7166 9.5652C1.2066 9.5652 -0.3434 10.7252 0.0966 12.9752L2.3866 25.1252C2.7066 26.7852 3.5266 27.7652 5.2066 27.7652ZM16.1966 18.2152C17.0166 18.2152 17.7666 18.4252 18.4066 18.7952L19.5166 12.9752C19.9466 10.7252 18.3966 9.5652 16.8766 9.5652C15.6166 9.5652 14.3566 10.3552 14.2066 12.0152L13.5566 19.1952C14.2266 18.5852 15.1666 18.2152 16.1966 18.2152ZM16.1966 29.6352C17.3366 29.6352 18.3866 28.9952 18.8866 28.0052C20.4466 27.6552 21.2366 26.4252 21.2366 25.1652C21.2366 23.8552 20.4066 22.6252 18.8766 22.3852C18.8366 20.8952 17.7066 19.8152 16.1966 19.8152C14.7166 19.8152 13.5966 20.8552 13.5266 22.3052C11.9566 22.5452 11.0666 23.8252 11.0666 25.1452C11.0666 26.4652 11.9266 27.7052 13.5266 28.0352C13.9966 28.9952 15.0366 29.6352 16.1966 29.6352Z" />
        </svg>
    