
        <svg xmlns="http://www.w3.org/2000/svg" viewBox="0 0 100 100">
            <path d="M0.0017 18.0344H8.8217C10.9217 18.0344 12.4617 16.8644 12.4617 14.7644C12.4617 12.6644 10.9217 11.3644 8.8217 11.3644H3.6917C1.8117 11.3644 0.5717 10.2144 0.5717 8.5444C0.5717 6.8544 1.9117 5.8344 3.6917 5.8344H8.8717V7.0244C8.8717 7.5744 9.2817 7.9644 9.8517 7.9644H12.2317C13.2917 7.9644 13.7717 8.3644 14.5517 9.1544C16.0217 10.6044 17.0317 11.0944 18.6117 11.0944H20.4617C21.0617 11.0944 21.4717 10.7144 21.4717 10.1344V8.6344H24.8917C25.2517 8.6344 25.5317 8.3444 25.5317 7.9944C25.5317 7.6144 25.2517 7.3244 24.8917 7.3244H21.4717V3.7844H24.8917C25.2517 3.7844 25.5317 3.5044 25.5317 3.1244C25.5317 2.7644 25.2517 2.4644 24.8917 2.4644H21.4717V0.9044C21.4717 0.3744 21.0617 0.0044 20.4617 0.0044H18.6117C17.0117 0.0044 16.0117 0.4944 14.5517 1.9644C13.7717 2.7644 13.2917 3.1544 12.2317 3.1544H9.8517C9.2817 3.1544 8.8717 3.5244 8.8717 4.0944V5.2644H3.6317C1.5317 5.2644 0.0017 6.4344 0.0017 8.5444C0.0017 10.6244 1.5317 11.9444 3.6317 11.9444H8.7617C10.6417 11.9444 11.8817 13.0744 11.8817 14.7644C11.8817 16.4444 10.5517 17.4644 8.7617 17.4644H0.0017Z" />
        </svg>
    