
        <svg xmlns="http://www.w3.org/2000/svg" viewBox="0 0 100 100">
            <path d="M3.4617 21.2264H17.7617C20.0517 21.2264 21.2217 20.0464 21.2217 17.7964V3.4264C21.2217 1.1764 20.0517 -0.0036 17.7617 -0.0036H3.4617C1.1717 -0.0036 0.0017 1.1564 0.0017 3.4264V17.7964C0.0017 20.0664 1.1717 21.2264 3.4617 21.2264ZM3.4817 19.7664C2.1717 19.7664 1.4517 19.0764 1.4517 17.7164V3.5064C1.4517 2.1464 2.1717 1.4564 3.4817 1.4564H17.7317C19.0317 1.4564 19.7717 2.1464 19.7717 3.5064V17.7164C19.7717 19.0764 19.0317 19.7664 17.7317 19.7664ZM6.6717 6.5264C6.0917 6.5264 5.8117 6.7364 5.5317 7.1064L3.4117 9.9764C3.1217 10.3564 3.1017 10.8264 3.4017 11.2164L5.5317 14.1064C5.8117 14.4764 6.1617 14.6864 6.6717 14.6864H14.5517C15.0517 14.6864 15.4117 14.4764 15.6817 14.1064L17.8217 11.2164C18.1017 10.8264 18.1017 10.3564 17.8117 9.9764L15.6817 7.1064C15.4117 6.7364 15.1217 6.5264 14.5517 6.5264ZM6.5317 9.5664C7.1017 9.5664 7.5817 10.0264 7.5817 10.6064C7.5817 11.1764 7.1017 11.6464 6.5317 11.6464C5.9617 11.6464 5.4917 11.1764 5.4917 10.6064C5.4917 10.0264 5.9617 9.5664 6.5317 9.5664ZM14.6817 9.5664C15.2417 9.5664 15.7217 10.0264 15.7217 10.6064C15.7217 11.1764 15.2417 11.6464 14.6817 11.6464C14.1217 11.6464 13.6417 11.1764 13.6417 10.6064C13.6417 10.0264 14.1217 9.5664 14.6817 9.5664ZM10.6017 10.9364C11.1817 10.9364 11.6517 11.4164 11.6517 11.9764C11.6517 12.5364 11.1817 13.0164 10.6017 13.0164C10.0417 13.0164 9.5617 12.5364 9.5617 11.9764C9.5617 11.4164 10.0417 10.9364 10.6017 10.9364Z" />
        </svg>
    