
        <svg xmlns="http://www.w3.org/2000/svg" viewBox="0 0 100 100">
            <path d="M3.8417 21.8745H18.0317C20.5617 21.8745 21.8817 20.5745 21.8817 18.0745V3.8045C21.8817 1.3145 20.5617 0.0045 18.0317 0.0045H3.8417C1.3117 0.0045 0.0017 1.3045 0.0017 3.8045V18.0745C0.0017 20.5745 1.3117 21.8745 3.8417 21.8745ZM3.9817 19.5845C2.8917 19.5845 2.3017 19.0145 2.3017 17.8845V4.0045C2.3017 2.8745 2.8917 2.2945 3.9817 2.2945H17.8917C18.9717 2.2945 19.5817 2.8745 19.5817 4.0045V17.8845C19.5817 19.0145 18.9717 19.5845 17.8917 19.5845ZM8.9017 17.5945H12.9717C13.6717 17.5945 14.1717 17.0945 14.1717 16.4045V5.4745C14.1717 4.7845 13.6717 4.2845 12.9717 4.2845H8.9017C8.2017 4.2845 7.7117 4.7845 7.7117 5.4745V16.4045C7.7117 17.0945 8.2017 17.5945 8.9017 17.5945ZM10.9417 8.3945C10.2917 8.3945 9.7517 7.8645 9.7517 7.2045C9.7517 6.5545 10.2917 6.0245 10.9417 6.0245C11.5917 6.0245 12.1317 6.5545 12.1317 7.2045C12.1317 7.8645 11.5917 8.3945 10.9417 8.3945ZM10.9417 12.1145C10.2917 12.1145 9.7517 11.5945 9.7517 10.9345C9.7517 10.2745 10.2917 9.7545 10.9417 9.7545C11.5917 9.7545 12.1317 10.2745 12.1317 10.9345C12.1317 11.5945 11.5917 12.1145 10.9417 12.1145ZM10.9417 15.8445C10.2917 15.8445 9.7517 15.3145 9.7517 14.6645C9.7517 14.0045 10.2917 13.4745 10.9417 13.4745C11.5917 13.4745 12.1317 14.0045 12.1317 14.6645C12.1317 15.3145 11.5917 15.8445 10.9417 15.8445Z" />
        </svg>
    