
        <svg xmlns="http://www.w3.org/2000/svg" viewBox="0 0 100 100">
            <path d="M3.9717 22.1117H18.1317C20.7317 22.1117 22.1017 20.7417 22.1017 18.1717V3.9417C22.1017 1.3717 20.7317 0.0017 18.1317 0.0017H3.9717C1.3817 0.0017 0.0017 1.3717 0.0017 3.9417V18.1717C0.0017 20.7417 1.3817 22.1117 3.9717 22.1117ZM7.1417 6.5617H14.9617C15.9617 6.5617 16.4217 6.8817 16.9017 7.5017L18.8817 10.0517C19.3317 10.6417 19.3517 11.4217 18.8817 12.0217L16.9017 14.6017C16.4017 15.2217 15.8817 15.5417 14.9617 15.5417H7.1417C6.2217 15.5417 5.6917 15.2217 5.2017 14.6017L3.2317 12.0217C2.7617 11.4217 2.7617 10.6417 3.2217 10.0517L5.2017 7.5017C5.6917 6.8817 6.1417 6.5617 7.1417 6.5617ZM6.5617 9.8217C5.8817 9.8217 5.3317 10.3717 5.3317 11.0517C5.3317 11.7317 5.8817 12.2917 6.5617 12.2917C7.2417 12.2917 7.8017 11.7317 7.8017 11.0517C7.8017 10.3717 7.2417 9.8217 6.5617 9.8217ZM15.5417 9.8217C14.8617 9.8217 14.3017 10.3717 14.3017 11.0517C14.3017 11.7317 14.8617 12.2917 15.5417 12.2917C16.2217 12.2917 16.7817 11.7317 16.7817 11.0517C16.7817 10.3717 16.2217 9.8217 15.5417 9.8217ZM11.0517 11.3317C10.3717 11.3317 9.8217 11.8817 9.8217 12.5617C9.8217 13.2417 10.3717 13.8017 11.0517 13.8017C11.7317 13.8017 12.2917 13.2417 12.2917 12.5617C12.2917 11.8817 11.7317 11.3317 11.0517 11.3317Z" />
        </svg>
    