
        <svg xmlns="http://www.w3.org/2000/svg" viewBox="0 0 100 100">
            <path d="M12.7223 24.0227C18.1323 24.0227 23.1323 20.4827 23.1323 16.5827V15.3727H24.0823C24.9123 15.3727 25.4623 14.8227 25.4623 13.9927V10.0227C25.4623 9.2027 24.9123 8.6327 24.0823 8.6327H23.1323V7.4427C23.1323 3.5227 18.1323 0.0027 12.7223 0.0027C7.3323 0.0027 2.3323 3.5227 2.3323 7.4427V8.6327H1.3723C0.5523 8.6327 0.0023 9.2027 0.0023 10.0227V13.9927C0.0023 14.8227 0.5523 15.3727 1.3723 15.3727H2.3323V16.5827C2.3323 20.4827 7.3323 24.0227 12.7223 24.0227ZM12.7223 22.5727C8.1023 22.5727 3.7823 19.6327 3.7823 16.5827V7.4427C3.7823 4.3927 8.1023 1.4527 12.7223 1.4527C17.3623 1.4527 21.6723 4.3927 21.6723 7.4427V16.5827C21.6723 19.6327 17.3623 22.5727 12.7223 22.5727ZM7.3523 14.1827C8.5423 14.1827 9.5123 13.2027 9.5123 12.0127C9.5123 10.8127 8.5423 9.8427 7.3523 9.8427C6.1523 9.8427 5.1823 10.8127 5.1823 12.0127C5.1823 13.2027 6.1523 14.1827 7.3523 14.1827ZM18.1023 14.1827C19.3123 14.1827 20.2823 13.2027 20.2823 12.0127C20.2823 10.8127 19.3123 9.8427 18.1023 9.8427C16.9123 9.8427 15.9423 10.8127 15.9423 12.0127C15.9423 13.2027 16.9123 14.1827 18.1023 14.1827Z" />
        </svg>
    