
        <svg xmlns="http://www.w3.org/2000/svg" viewBox="0 0 100 100">
            <path d="M0.0017 6.2041V10.1741C0.0017 11.1441 0.6017 11.7041 1.5817 11.7041H5.7317C7.2517 11.7041 8.1017 12.2241 9.0617 13.4841C10.4417 15.3241 12.6517 16.3741 15.0217 16.3741H19.9217C20.8717 16.3741 21.4317 15.8241 21.4317 14.8741V13.0741H25.9017C26.5217 13.0741 27.0217 12.5941 27.0217 11.9541C27.0217 11.3041 26.5217 10.8141 25.9017 10.8141H21.4317V5.5241H25.9017C26.5217 5.5241 27.0217 5.0141 27.0217 4.4041C27.0217 3.7641 26.5217 3.2741 25.9017 3.2741H21.4317V1.4441C21.4317 0.5241 20.8717 0.0041 19.9217 0.0041H15.0217C12.6517 0.0041 10.4417 1.0341 9.0617 2.9041C8.1017 4.1941 7.2517 4.6841 5.7317 4.6841H1.5817C0.6017 4.6841 0.0017 5.2341 0.0017 6.2041Z" />
        </svg>
    