
        <svg xmlns="http://www.w3.org/2000/svg" viewBox="0 0 100 100">
            <path d="M3.1617 20.742H17.5917C19.6617 20.742 20.7417 19.642 20.7417 17.592V3.152C20.7417 1.102 19.6617 0.002 17.5917 0.002H3.1617C1.0917 0.002 0.0017 1.082 0.0017 3.152V17.592C0.0017 19.662 1.0917 20.742 3.1617 20.742ZM3.1917 19.872C1.6617 19.872 0.8717 19.082 0.8717 17.552V3.202C0.8717 1.662 1.6617 0.872 3.1917 0.872H17.5517C19.0317 0.872 19.8717 1.662 19.8717 3.202V17.552C19.8717 19.082 19.0317 19.872 17.5517 19.872ZM6.2917 6.312C5.9317 6.312 5.6817 6.442 5.4817 6.712L3.2017 9.902C2.9917 10.182 2.9717 10.532 3.1917 10.812L5.4817 14.032C5.6817 14.292 5.9517 14.422 6.2917 14.422H14.4517C14.7917 14.422 15.0617 14.292 15.2617 14.032L17.5617 10.812C17.7617 10.532 17.7517 10.182 17.5517 9.902L15.2617 6.712C15.0617 6.442 14.8117 6.312 14.4517 6.312ZM6.3117 9.422C6.8417 9.422 7.2617 9.852 7.2617 10.372C7.2617 10.882 6.8417 11.312 6.3117 11.312C5.8017 11.312 5.3817 10.882 5.3817 10.372C5.3817 9.852 5.8017 9.422 6.3117 9.422ZM14.4217 9.422C14.9417 9.422 15.3617 9.852 15.3617 10.372C15.3617 10.882 14.9417 11.312 14.4217 11.312C13.9117 11.312 13.4717 10.882 13.4717 10.372C13.4717 9.852 13.9117 9.422 14.4217 9.422ZM10.3717 10.792C10.8917 10.792 11.3217 11.212 11.3217 11.732C11.3217 12.242 10.8917 12.682 10.3717 12.682C9.8517 12.682 9.4317 12.242 9.4317 11.732C9.4317 11.212 9.8517 10.792 10.3717 10.792Z" />
        </svg>
    