
        <svg xmlns="http://www.w3.org/2000/svg" viewBox="0 0 100 100">
            <path d="M12.3723 24.7459C19.2023 24.7459 24.7523 19.2059 24.7523 12.3759C24.7523 5.5459 19.2023 -0.0041 12.3723 -0.0041C5.5423 -0.0041 0.0023 5.5459 0.0023 12.3759C0.0023 19.2059 5.5423 24.7459 12.3723 24.7459ZM12.3723 8.6359C11.4123 8.6359 10.6423 7.8559 10.6423 6.9059C10.6423 5.9459 11.4123 5.1559 12.3723 5.1559C13.3323 5.1559 14.1223 5.9459 14.1223 6.9059C14.1223 7.8559 13.3323 8.6359 12.3723 8.6359ZM7.1623 14.9759C5.8223 14.9759 4.7223 13.8759 4.7223 12.5259C4.7223 11.1959 5.8223 10.0759 7.1623 10.0759C8.5223 10.0759 9.6123 11.1959 9.6123 12.5259C9.6123 13.8759 8.5223 14.9759 7.1623 14.9759ZM17.5823 14.9759C16.2323 14.9759 15.1423 13.8759 15.1423 12.5259C15.1423 11.1959 16.2323 10.0759 17.5823 10.0759C18.9223 10.0759 20.0323 11.1959 20.0323 12.5259C20.0323 13.8759 18.9223 14.9759 17.5823 14.9759Z" />
        </svg>
    