
        <svg xmlns="http://www.w3.org/2000/svg" viewBox="0 0 100 100">
            <path d="M6.6117 21.0561H19.6517C20.6117 21.0561 21.5117 20.7061 22.1717 20.0661C24.7517 17.6161 26.2717 14.0361 26.2717 10.5361C26.2717 7.0361 24.7517 3.4561 22.1717 0.9961C21.5117 0.3661 20.6017 -0.0039 19.6517 -0.0039H6.6117C5.6417 -0.0039 4.6917 0.3861 4.0117 1.0661C1.5117 3.5161 0.0017 7.0661 0.0017 10.5361C0.0017 14.0361 1.5217 17.6161 4.0917 20.0661C4.7617 20.7061 5.6617 21.0561 6.6117 21.0561ZM6.7117 18.5861C6.3117 18.5861 6.0217 18.4661 5.7817 18.2361C3.7617 16.3361 2.5217 13.4161 2.5217 10.5661C2.5217 7.7361 3.7717 4.7961 5.8017 2.8961C6.0517 2.6761 6.3317 2.5661 6.7117 2.5661H19.5517C19.9617 2.5661 20.2417 2.6761 20.4817 2.9161C22.5017 4.8161 23.7517 7.7361 23.7517 10.5661C23.7517 13.4161 22.5017 16.3361 20.4817 18.2361C20.2417 18.4661 19.9617 18.5861 19.5517 18.5861ZM8.1717 15.2561C8.8317 15.2561 9.3717 14.7461 9.3717 14.0761V7.0861C9.3717 6.4261 8.8317 5.8861 8.1717 5.8861C7.5017 5.8861 6.9817 6.4261 6.9817 7.0861V14.0761C6.9817 14.7461 7.5017 15.2561 8.1717 15.2561ZM18.0917 15.2561C18.7517 15.2561 19.2817 14.7261 19.2817 14.0661V7.1061C19.2817 6.4261 18.7517 5.8861 18.0917 5.8861C17.4217 5.8861 16.9017 6.4361 16.9017 7.1061V14.0661C16.9017 14.7261 17.4217 15.2561 18.0917 15.2561Z" />
        </svg>
    