
        <svg xmlns="http://www.w3.org/2000/svg" viewBox="0 0 100 100">
            <path d="M0.0017 10.8142C0.0017 12.5342 0.9517 13.4742 2.6817 13.4742H7.3317C8.6417 13.4742 9.2817 14.0142 10.1817 15.2142C11.8717 17.4142 14.4417 18.6342 17.1417 18.6342H20.3517C21.7617 18.6342 22.4417 17.8142 22.4417 16.3942V15.0042H27.6317C28.6217 15.0042 29.4017 14.2142 29.4017 13.2542C29.4017 12.2742 28.6217 11.4842 27.6317 11.4842H22.4417V7.1742H27.6317C28.6217 7.1742 29.4017 6.3842 29.4017 5.4242C29.4017 4.4542 28.6217 3.6542 27.6317 3.6542H22.4417V2.2342C22.4417 0.8042 21.7617 0.0042 20.3517 0.0042H17.1417C14.4417 0.0042 11.8717 1.2042 10.1817 3.4342C9.2817 4.6242 8.6417 5.1642 7.3317 5.1642H2.6817C0.9617 5.1642 0.0017 6.0842 0.0017 7.8242ZM2.4417 10.5342V8.1142C2.4417 7.8142 2.6617 7.6042 2.9517 7.6042H7.3317C9.4317 7.6042 10.7617 6.7142 12.1317 4.8942C13.4317 3.1742 14.9917 2.4342 17.1417 2.4342H19.5117C19.7917 2.4342 20.0117 2.6442 20.0117 2.9142V15.7142C20.0117 15.9942 19.7917 16.2042 19.5117 16.2042H17.1417C15.0017 16.2042 13.4317 15.4642 12.1317 13.7442C10.7617 11.9342 9.4317 11.0342 7.3317 11.0342H2.9517C2.6617 11.0342 2.4417 10.8242 2.4417 10.5342Z" />
        </svg>
    