
        <svg xmlns="http://www.w3.org/2000/svg" viewBox="0 0 100 100">
            <path d="M3.0117 20.4997H18.4017C20.3517 20.4997 21.4017 19.4297 21.4017 17.4797V3.0097C21.4017 1.0697 20.3517 -0.0003 18.4017 -0.0003H3.0117C1.0417 -0.0003 0.0017 1.0397 0.0017 3.0097V17.4797C0.0017 19.4497 1.0417 20.4997 3.0117 20.4997ZM16.0117 9.1197C15.7517 9.3597 15.4217 9.3497 15.1917 9.1197L12.4217 6.3497C12.1917 6.1097 12.1917 5.7797 12.4217 5.5397L12.8817 5.0897C13.1217 4.8397 13.4617 4.8397 13.6917 5.0897L16.4517 7.8597C16.6917 8.0997 16.6917 8.4497 16.4617 8.6697ZM4.9617 8.6797C4.7117 8.4497 4.7217 8.0697 4.9617 7.8597L7.7317 5.0997C7.9817 4.8597 8.2817 4.8597 8.5217 5.0997L8.9717 5.5397C9.2217 5.7797 9.2317 6.1297 9.0017 6.3597L6.2117 9.1297C5.9717 9.3597 5.6417 9.3597 5.3917 9.1297ZM10.3717 15.6697C10.0317 15.6697 9.8117 15.4197 9.8117 15.0897V11.0897C9.8117 10.7297 10.0417 10.4997 10.3717 10.4997H11.0317C11.3517 10.4997 11.5917 10.7297 11.5917 11.0897V15.0897C11.5917 15.4497 11.3517 15.6697 11.0317 15.6697Z" />
        </svg>
    