
        <svg xmlns="http://www.w3.org/2000/svg" viewBox="0 0 100 100">
            <path d="M12.1023 24.2064C18.7823 24.2064 24.2123 18.7864 24.2123 12.1064C24.2123 5.4264 18.7823 -0.0036 12.1023 -0.0036C5.4223 -0.0036 0.0023 5.4264 0.0023 12.1064C0.0023 18.7864 5.4223 24.2064 12.1023 24.2064ZM12.1023 21.8164C6.7223 21.8164 2.3823 17.4864 2.3823 12.1064C2.3823 6.7264 6.7223 2.3764 12.1023 2.3764C17.4823 2.3764 21.8323 6.7264 21.8323 12.1064C21.8323 17.4864 17.4823 21.8164 12.1023 21.8164ZM12.1023 12.4264C12.6223 12.4264 12.9823 12.0464 12.9823 11.5164V6.5864C12.9823 6.0564 12.6223 5.6864 12.1023 5.6864C11.5923 5.6864 11.2223 6.0564 11.2223 6.5864V11.5164C11.2223 12.0464 11.5923 12.4264 12.1023 12.4264ZM12.1023 18.1664C15.4323 18.1664 18.1923 15.4064 18.1923 12.0964C18.1923 10.4564 17.4723 8.8364 16.2823 7.7064C15.4023 6.8664 14.2023 8.0864 15.0723 8.9564C15.9423 9.7764 16.4223 10.8764 16.4323 12.0964C16.4323 14.4964 14.5123 16.4164 12.1023 16.4164C9.7023 16.4164 7.7923 14.4964 7.7923 12.0964C7.7923 10.8764 8.2723 9.7764 9.1423 8.9364C10.0223 8.0764 8.8123 6.8664 7.9423 7.7064C6.7423 8.8264 6.0323 10.4364 6.0323 12.0964C6.0323 15.4064 8.7823 18.1664 12.1023 18.1664Z" />
        </svg>
    