
        <svg xmlns="http://www.w3.org/2000/svg" viewBox="0 0 100 100">
            <path d="M3.9717 22.1H18.9117C21.5117 22.1 22.8917 20.74 22.8917 18.18V3.94C22.8917 1.37 21.5117 0 18.9117 0H3.9717C1.3817 0 0.0017 1.37 0.0017 3.94V18.18C0.0017 20.74 1.3817 22.1 3.9717 22.1ZM4.1917 19.5C3.1617 19.5 2.6117 18.97 2.6117 17.89V4.21C2.6117 3.13 3.1617 2.61 4.1917 2.61H18.6917C19.7117 2.61 20.2717 3.13 20.2717 4.21V17.89C20.2717 18.97 19.7117 19.5 18.6917 19.5ZM16.7017 10.66L17.3417 10.02C17.6817 9.69 17.6817 9.23 17.3317 8.88L14.7917 6.33C14.4517 5.99 13.9817 5.99 13.6517 6.33L13.0117 6.97C12.6717 7.31 12.6517 7.78 13.0117 8.12L15.5617 10.66C15.9017 11 16.3617 11.02 16.7017 10.66ZM5.5417 10.03L6.1917 10.66C6.5317 11.02 6.9817 11.02 7.3217 10.66L9.8817 8.12C10.2317 7.78 10.2217 7.31 9.8817 6.97L9.2317 6.33C8.8917 6 8.4417 5.99 8.1017 6.33L5.5417 8.88C5.2017 9.23 5.2017 9.69 5.5417 10.03ZM10.9917 16.86H11.8917C12.3917 16.86 12.7017 16.54 12.7017 16.05V12.77C12.7017 12.29 12.3717 11.96 11.8917 11.96H10.9917C10.5117 11.96 10.1817 12.29 10.1817 12.77V16.05C10.1817 16.54 10.5117 16.86 10.9917 16.86Z" />
        </svg>
    