
        <svg xmlns="http://www.w3.org/2000/svg" viewBox="0 0 100 100">
            <path d="M3.8417 21.8745H18.0317C20.5617 21.8745 21.8817 20.5745 21.8817 18.0745V3.8045C21.8817 1.3145 20.5617 0.0045 18.0317 0.0045H3.8417C1.3117 0.0045 0.0017 1.3045 0.0017 3.8045V18.0745C0.0017 20.5745 1.3117 21.8745 3.8417 21.8745ZM10.9317 17.3945C7.3617 17.3945 4.4717 14.5045 4.4717 10.9345C4.4717 7.3545 7.3617 4.4745 10.9317 4.4745C14.5217 4.4745 17.4017 7.3545 17.4017 10.9345C17.4017 14.5045 14.5217 17.3945 10.9317 17.3945ZM10.9317 8.6145C11.4717 8.6145 11.9017 8.1645 11.9017 7.6445C11.9017 7.1145 11.4717 6.6845 10.9317 6.6845C10.4017 6.6845 9.9717 7.1145 9.9717 7.6445C9.9717 8.1645 10.4017 8.6145 10.9317 8.6145ZM14.1417 12.3645C14.9417 12.3645 15.6017 11.7045 15.6017 10.9145C15.6017 10.1045 14.9417 9.4545 14.1417 9.4545C13.3517 9.4545 12.6917 10.1145 12.6917 10.9145C12.6917 11.7045 13.3517 12.3645 14.1417 12.3645ZM7.7217 12.3845C8.5217 12.3845 9.1717 11.7345 9.1717 10.9245C9.1717 10.1245 8.5217 9.4645 7.7217 9.4645C6.9217 9.4645 6.2717 10.1245 6.2717 10.9245C6.2717 11.7345 6.9217 12.3845 7.7217 12.3845Z" />
        </svg>
    