
        <svg xmlns="http://www.w3.org/2000/svg" viewBox="0 0 100 100">
            <path d="M4.5917 23.2359H18.6417C21.5417 23.2359 23.2417 21.5459 23.2417 18.6459V4.5959C23.2417 1.6959 21.5417 -0.0041 18.6417 -0.0041H4.5917C1.7017 -0.0041 0.0017 1.6959 0.0017 4.5959V18.6459C0.0017 21.5459 1.7017 23.2359 4.5917 23.2359ZM5.2217 19.0759C4.5117 19.0759 4.1617 18.7859 4.1617 18.0159V5.2359C4.1617 4.4659 4.5117 4.1759 5.2217 4.1759H18.0117C18.7217 4.1759 19.0817 4.4659 19.0817 5.2359V18.0159C19.0817 18.7859 18.7217 19.0759 18.0117 19.0759ZM5.6017 12.5859C5.6017 13.1259 5.9917 13.5159 6.5117 13.5159H6.7017V13.6759C6.7017 15.5459 9.0617 17.2359 11.6117 17.2359C14.1817 17.2359 16.5317 15.5459 16.5317 13.6759V13.5159H16.7217C17.2517 13.5159 17.6417 13.1259 17.6417 12.5859V10.6859C17.6417 10.1459 17.2517 9.7659 16.7217 9.7659H16.5317V9.5959C16.5317 7.7359 14.1817 6.0359 11.6117 6.0359C9.0617 6.0359 6.7017 7.7359 6.7017 9.5959V9.7659H6.5117C5.9917 9.7659 5.6017 10.1459 5.6017 10.6859ZM8.9317 12.7859C8.3117 12.7859 7.7917 12.2959 7.7917 11.6359C7.7917 10.9759 8.3117 10.4859 8.9317 10.4859C9.5717 10.4859 10.0817 10.9959 10.0817 11.6359C10.0817 12.2859 9.5717 12.7859 8.9317 12.7859ZM14.3117 12.7859C13.6617 12.7859 13.1617 12.2859 13.1617 11.6359C13.1617 10.9959 13.6617 10.4859 14.3117 10.4859C14.9317 10.4859 15.4617 10.9759 15.4617 11.6359C15.4617 12.2959 14.9317 12.7859 14.3117 12.7859Z" />
        </svg>
    