
        <svg xmlns="http://www.w3.org/2000/svg" viewBox="0 0 100 100">
            <path d="M3.4617 21.2264H17.7617C20.0517 21.2264 21.2217 20.0464 21.2217 17.7964V3.4264C21.2217 1.1764 20.0517 -0.0036 17.7617 -0.0036H3.4617C1.1717 -0.0036 0.0017 1.1564 0.0017 3.4264V17.7964C0.0017 20.0664 1.1717 21.2264 3.4617 21.2264ZM8.5617 17.3764C7.9617 17.3764 7.5317 16.9464 7.5317 16.3464V4.8964C7.5317 4.2864 7.9617 3.8664 8.5617 3.8664H12.6517C13.2517 3.8664 13.6917 4.2864 13.6917 4.8964V16.3464C13.6917 16.9464 13.2517 17.3764 12.6517 17.3764ZM10.6017 7.9464C11.2517 7.9464 11.7817 7.4264 11.7817 6.7864C11.7817 6.1364 11.2517 5.6164 10.6017 5.6164C9.9617 5.6164 9.4417 6.1364 9.4417 6.7864C9.4417 7.4264 9.9617 7.9464 10.6017 7.9464ZM10.6017 11.7664C11.2517 11.7664 11.7817 11.2464 11.7817 10.6064C11.7817 9.9564 11.2517 9.4464 10.6017 9.4464C9.9617 9.4464 9.4417 9.9564 9.4417 10.6064C9.4417 11.2464 9.9617 11.7664 10.6017 11.7664ZM10.6017 15.5864C11.2517 15.5864 11.7817 15.0664 11.7817 14.4264C11.7817 13.7764 11.2517 13.2664 10.6017 13.2664C9.9617 13.2664 9.4417 13.7764 9.4417 14.4264C9.4417 15.0664 9.9617 15.5864 10.6017 15.5864Z" />
        </svg>
    