
        <svg xmlns="http://www.w3.org/2000/svg" viewBox="0 0 100 100">
            <path d="M3.4617 21.2264H17.7617C20.0517 21.2264 21.2217 20.0464 21.2217 17.7964V3.4264C21.2217 1.1764 20.0517 -0.0036 17.7617 -0.0036H3.4617C1.1717 -0.0036 0.0017 1.1564 0.0017 3.4264V17.7964C0.0017 20.0664 1.1717 21.2264 3.4617 21.2264ZM6.5017 6.3564H14.7217C15.3117 6.3564 15.6217 6.5764 15.9017 6.9564L18.1217 9.9364C18.4217 10.3364 18.4317 10.8564 18.1317 11.2464L15.9017 14.2464C15.6217 14.6264 15.2317 14.8464 14.7217 14.8464H6.5017C5.9717 14.8464 5.6017 14.6264 5.3117 14.2464L3.0917 11.2464C2.7917 10.8564 2.7917 10.3364 3.0917 9.9364L5.3117 6.9564C5.6017 6.5764 5.9017 6.3564 6.5017 6.3564ZM6.3617 9.5164C5.7617 9.5164 5.2717 10.0064 5.2717 10.6064C5.2717 11.2064 5.7617 11.6964 6.3617 11.6964C6.9617 11.6964 7.4517 11.2064 7.4517 10.6064C7.4517 10.0064 6.9617 9.5164 6.3617 9.5164ZM14.8617 9.5164C14.2617 9.5164 13.7717 10.0064 13.7717 10.6064C13.7717 11.2064 14.2617 11.6964 14.8617 11.6964C15.4417 11.6964 15.9517 11.2064 15.9517 10.6064C15.9517 10.0064 15.4417 9.5164 14.8617 9.5164ZM10.6017 10.9464C10.0217 10.9464 9.5117 11.4364 9.5117 12.0364C9.5117 12.6364 10.0217 13.1264 10.6017 13.1264C11.2017 13.1264 11.6917 12.6364 11.6917 12.0364C11.6917 11.4364 11.2017 10.9464 10.6017 10.9464Z" />
        </svg>
    