
        <svg xmlns="http://www.w3.org/2000/svg" viewBox="0 0 100 100">
            <path d="M11.7523 23.5048C18.2323 23.5048 23.5123 18.2348 23.5123 11.7548C23.5123 5.2748 18.2323 0.0048 11.7523 0.0048C5.2723 0.0048 0.0023 5.2748 0.0023 11.7548C0.0023 18.2348 5.2723 23.5048 11.7523 23.5048ZM6.5123 13.5448C5.2823 13.5448 4.3023 12.5548 4.3023 11.3348C4.3023 10.1048 5.2823 9.1048 6.5123 9.1048C7.7323 9.1048 8.7323 10.1048 8.7323 11.3348C8.7323 12.5548 7.7323 13.5448 6.5123 13.5448ZM16.9923 13.5448C15.7723 13.5448 14.7823 12.5548 14.7823 11.3348C14.7823 10.1048 15.7723 9.1048 16.9923 9.1048C18.2223 9.1048 19.2223 10.1048 19.2223 11.3348C19.2223 12.5548 18.2223 13.5448 16.9923 13.5448ZM11.7523 19.0448C10.5323 19.0448 9.5423 18.0548 9.5423 16.8248C9.5423 15.6048 10.5323 14.6048 11.7523 14.6048C12.9723 14.6048 13.9723 15.6048 13.9723 16.8248C13.9723 18.0548 12.9723 19.0448 11.7523 19.0448Z" />
        </svg>
    