
        <svg xmlns="http://www.w3.org/2000/svg" viewBox="0 0 100 100">
            <path d="M12.3723 3.5166C13.3323 3.5166 14.1223 2.7266 14.1223 1.7566C14.1223 0.7966 13.3323 -0.0034 12.3723 -0.0034C11.4023 -0.0034 10.6123 0.7966 10.6123 1.7566C10.6123 2.7266 11.4023 3.5166 12.3723 3.5166ZM4.3323 8.8366C5.2923 8.8366 6.0823 8.0466 6.0823 7.0866C6.0823 6.1166 5.2923 5.3366 4.3323 5.3366C3.3623 5.3366 2.5823 6.1166 2.5823 7.0866C2.5823 8.0466 3.3623 8.8366 4.3323 8.8366ZM20.4123 8.8366C21.3723 8.8366 22.1623 8.0466 22.1623 7.0866C22.1623 6.1166 21.3723 5.3366 20.4123 5.3366C19.4423 5.3366 18.6523 6.1166 18.6523 7.0866C18.6523 8.0466 19.4423 8.8366 20.4123 8.8366ZM12.3723 9.0466C13.3323 9.0466 14.1223 8.2466 14.1223 7.2866C14.1223 6.3166 13.3323 5.5266 12.3723 5.5266C11.4023 5.5266 10.6123 6.3166 10.6123 7.2866C10.6123 8.2466 11.4023 9.0466 12.3723 9.0466ZM1.7623 14.0066C2.7223 14.0066 3.5123 13.2166 3.5123 12.2466C3.5123 11.2866 2.7223 10.4866 1.7623 10.4866C0.7823 10.4866 0.0023 11.2866 0.0023 12.2466C0.0023 13.2166 0.7823 14.0066 1.7623 14.0066ZM22.9823 14.0066C23.9523 14.0066 24.7423 13.2166 24.7423 12.2466C24.7423 11.2866 23.9523 10.4866 22.9823 10.4866C22.0223 10.4866 21.2223 11.2866 21.2223 12.2466C21.2223 13.2166 22.0223 14.0066 22.9823 14.0066ZM12.3723 14.5666C13.3323 14.5666 14.1223 13.7766 14.1223 12.8066C14.1223 11.8466 13.3323 11.0466 12.3723 11.0466C11.4023 11.0466 10.6123 11.8466 10.6123 12.8066C10.6123 13.7766 11.4023 14.5666 12.3723 14.5666ZM2.6823 20.0866C3.6523 20.0866 4.4423 19.2966 4.4423 18.3266C4.4423 17.3666 3.6523 16.5666 2.6823 16.5666C1.7223 16.5666 0.9223 17.3666 0.9223 18.3266C0.9223 19.2966 1.7223 20.0866 2.6823 20.0866ZM22.0523 20.0866C23.0123 20.0866 23.8123 19.2966 23.8123 18.3266C23.8123 17.3666 23.0123 16.5666 22.0523 16.5666C21.0823 16.5666 20.2923 17.3666 20.2923 18.3266C20.2923 19.2966 21.0823 20.0866 22.0523 20.0866ZM6.7923 24.6766C7.7623 24.6766 8.5523 23.8966 8.5523 22.9266C8.5523 21.9566 7.7623 21.1666 6.7923 21.1666C5.8223 21.1666 5.0423 21.9566 5.0423 22.9266C5.0423 23.8966 5.8223 24.6766 6.7923 24.6766ZM17.9423 24.6766C18.9123 24.6766 19.7023 23.8966 19.7023 22.9266C19.7023 21.9566 18.9123 21.1666 17.9423 21.1666C16.9823 21.1666 16.1823 21.9566 16.1823 22.9266C16.1823 23.8966 16.9823 24.6766 17.9423 24.6766ZM12.3723 26.5166C13.3323 26.5166 14.1223 25.7366 14.1223 24.7666C14.1223 23.7966 13.3323 23.0066 12.3723 23.0066C11.4023 23.0066 10.6123 23.7966 10.6123 24.7666C10.6123 25.7366 11.4023 26.5166 12.3723 26.5166Z" />
        </svg>
    