
        <svg xmlns="http://www.w3.org/2000/svg" viewBox="0 0 100 100">
            <path d="M0.0017 21.4002H10.3017C13.3617 21.4002 15.3117 19.4602 15.3117 16.8402C15.3117 14.2002 13.3617 12.2602 10.3017 12.2602H4.8517C3.4617 12.2602 2.6617 11.5002 2.6617 10.3402C2.6617 9.1802 3.4717 8.4402 4.8517 8.4402H10.1817V8.7102C10.1817 10.0902 11.1017 10.9802 12.5317 10.9802H15.1217C15.8217 10.9802 15.9717 11.0702 16.4717 11.6802C17.7817 13.3502 19.7017 14.2302 21.7517 14.2302H24.5617C25.3517 14.2302 25.9217 13.6802 25.9217 12.8902V11.2502H29.4117C30.2117 11.2502 30.8417 10.5902 30.8417 9.8102C30.8417 9.0102 30.2117 8.3802 29.4117 8.3802H25.9217V5.9402H29.4117C30.2117 5.9402 30.8417 5.3102 30.8417 4.5002C30.8417 3.7302 30.2117 3.0702 29.4117 3.0702H25.9217V1.3402C25.9217 0.5602 25.3517 0.0002 24.5617 0.0002H21.7517C19.7017 0.0002 17.7817 0.9002 16.4717 2.5402C15.9717 3.1602 15.8217 3.2502 15.1217 3.2502H12.5317C11.1017 3.2502 10.1817 4.1502 10.1817 5.5202V5.7802H5.0117C1.9617 5.7802 0.0017 7.7102 0.0017 10.3402C0.0017 12.9602 1.9617 14.9202 5.0117 14.9202H10.4617C11.8517 14.9202 12.6517 15.6802 12.6517 16.8402C12.6517 17.9902 11.8517 18.7302 10.4617 18.7302H0.0017ZM21.7517 11.8802C20.3417 11.8802 19.2217 11.3602 18.3117 10.2302C17.4117 9.0802 16.5217 8.6102 15.1217 8.6102H12.9417C12.7017 8.6102 12.5317 8.4502 12.5317 8.2102V5.9802C12.5317 5.7502 12.6717 5.6102 12.9017 5.6102H15.1217C16.5117 5.6102 17.4117 5.1602 18.3117 4.0002C19.2217 2.8702 20.3417 2.3402 21.7517 2.3402H23.1917C23.4217 2.3402 23.5617 2.4802 23.5617 2.7002V11.5202C23.5617 11.7402 23.4217 11.8802 23.1917 11.8802Z" />
        </svg>
    