
        <svg xmlns="http://www.w3.org/2000/svg" viewBox="0 0 100 100">
            <path d="M3.6817 21.5722H17.8917C20.3517 21.5722 21.5717 20.3722 21.5717 17.9522V3.6322C21.5717 1.2222 20.3517 0.0022 17.8917 0.0022H3.6817C1.2317 0.0022 0.0017 1.2222 0.0017 3.6322V17.9522C0.0017 20.3722 1.2317 21.5722 3.6817 21.5722ZM3.7017 19.6922C2.5317 19.6922 1.8917 19.0622 1.8917 17.8522V3.7422C1.8917 2.5222 2.5317 1.8822 3.7017 1.8822H17.8717C19.0317 1.8822 19.6917 2.5222 19.6917 3.7422V17.8522C19.6917 19.0622 19.0317 19.6922 17.8717 19.6922ZM6.2117 16.2822H15.3617C15.9917 16.2822 16.4617 15.8122 16.4617 15.1722V6.3822C16.4617 5.7522 15.9917 5.2822 15.3617 5.2822H6.2117C5.5817 5.2822 5.1117 5.7522 5.1117 6.3822V15.1722C5.1117 15.8122 5.5817 16.2822 6.2117 16.2822ZM10.8017 9.5822C10.1517 9.5822 9.6117 9.0622 9.6117 8.3922C9.6117 7.7422 10.1517 7.2222 10.8017 7.2222C11.4517 7.2222 11.9917 7.7422 11.9917 8.3922C11.9917 9.0622 11.4517 9.5822 10.8017 9.5822ZM8.2417 14.3422C7.5917 14.3422 7.0517 13.8122 7.0517 13.1622C7.0517 12.5022 7.5917 11.9722 8.2417 11.9722C8.8917 11.9722 9.4317 12.5022 9.4317 13.1622C9.4317 13.8122 8.8917 14.3422 8.2417 14.3422ZM13.3617 14.3422C12.7017 14.3422 12.1617 13.8122 12.1617 13.1622C12.1617 12.5022 12.7017 11.9722 13.3617 11.9722C14.0117 11.9722 14.5417 12.5022 14.5417 13.1622C14.5417 13.8122 14.0117 14.3422 13.3617 14.3422Z" />
        </svg>
    