
        <svg xmlns="http://www.w3.org/2000/svg" viewBox="0 0 100 100">
            <path d="M4.3817 22.8467H18.4717C21.2617 22.8467 22.8517 21.2667 22.8517 18.4767V4.3667C22.8517 1.5867 21.2617 -0.0033 18.4717 -0.0033H4.3817C1.5917 -0.0033 0.0017 1.5867 0.0017 4.3667V18.4767C0.0017 21.2667 1.5917 22.8467 4.3817 22.8467ZM4.8717 19.2267C4.0417 19.2267 3.6217 18.8567 3.6217 17.9767V4.8867C3.6217 4.0067 4.0417 3.6367 4.8717 3.6367H17.9717C18.8017 3.6367 19.2217 4.0067 19.2217 4.8867V17.9767C19.2217 18.8567 18.8017 19.2267 17.9717 19.2267ZM8.4817 7.7367C7.4717 7.7367 7.0117 8.0167 6.5017 8.6567L5.1017 10.4667C4.6417 11.0267 4.6417 11.7867 5.1017 12.3767L6.5117 14.1867C7.0217 14.8267 7.5117 15.1167 8.4817 15.1167H14.3517C15.3417 15.1167 15.8217 14.8267 16.3317 14.1867L17.7517 12.3767C18.2017 11.7867 18.2017 11.0267 17.7517 10.4667L16.3517 8.6567C15.8317 8.0167 15.3717 7.7367 14.3517 7.7367ZM7.7317 10.4067C8.3117 10.4067 8.7617 10.8667 8.7617 11.4367C8.7617 11.9967 8.3117 12.4567 7.7317 12.4567C7.1717 12.4567 6.7117 11.9967 6.7117 11.4367C6.7117 10.8667 7.1717 10.4067 7.7317 10.4067ZM15.1217 10.4067C15.6717 10.4067 16.1217 10.8667 16.1217 11.4367C16.1217 11.9967 15.6717 12.4567 15.1217 12.4567C14.5417 12.4567 14.0817 11.9967 14.0817 11.4367C14.0817 10.8667 14.5417 10.4067 15.1217 10.4067ZM11.4217 11.6467C12.0017 11.6467 12.4617 12.1067 12.4617 12.6767C12.4617 13.2267 12.0017 13.6967 11.4217 13.6967C10.8517 13.6967 10.3917 13.2267 10.3917 12.6767C10.3917 12.1067 10.8517 11.6467 11.4217 11.6467Z" />
        </svg>
    