
        <svg xmlns="http://www.w3.org/2000/svg" viewBox="0 0 100 100">
            <path d="M3.6817 21.5705H18.6317C21.0817 21.5705 22.3117 20.3605 22.3117 17.9405V3.6305C22.3117 1.2205 21.0817 0.0005 18.6317 0.0005H3.6817C1.2317 0.0005 0.0017 1.2105 0.0017 3.6305V17.9405C0.0017 20.3705 1.2317 21.5705 3.6817 21.5705ZM3.7017 19.6905C2.5317 19.6905 1.8917 19.0705 1.8917 17.8505V3.7305C1.8917 2.5105 2.5317 1.8905 3.7017 1.8905H18.6017C19.7617 1.8905 20.4217 2.5105 20.4217 3.7305V17.8505C20.4217 19.0705 19.7617 19.6905 18.6017 19.6905ZM16.5217 10.3905L17.2017 9.7105C17.4717 9.4405 17.4717 9.0805 17.1817 8.7905L14.4417 6.0505C14.1517 5.7705 13.7917 5.7705 13.5117 6.0305L12.8417 6.7105C12.5517 7.0005 12.5517 7.3605 12.8417 7.6505L15.5817 10.3905C15.8717 10.6805 16.2317 10.6805 16.5217 10.3905ZM5.1117 9.7305L5.7917 10.3905C6.0717 10.6805 6.4417 10.6805 6.7217 10.3905L9.4717 7.6505C9.7617 7.3605 9.7617 7.0005 9.4717 6.7105L8.8017 6.0305C8.5217 5.7705 8.1717 5.7705 7.8717 6.0505L5.1217 8.7905C4.8417 9.0705 4.8417 9.4405 5.1117 9.7305ZM10.6717 16.6505H11.6217C12.0217 16.6505 12.2817 16.3905 12.2817 15.9805V12.5605C12.2817 12.1605 12.0217 11.8905 11.6217 11.8905H10.6717C10.2917 11.8905 10.0217 12.1605 10.0217 12.5605V15.9805C10.0217 16.3805 10.2817 16.6505 10.6717 16.6505Z" />
        </svg>
    