
        <svg xmlns="http://www.w3.org/2000/svg" viewBox="0 0 100 100">
            <path d="M6.8417 21.5839H20.0817C21.1017 21.5839 22.0617 21.2039 22.7717 20.5039C25.3817 18.0139 26.9317 14.3639 26.9317 10.7939C26.9317 7.2139 25.3817 3.5739 22.7717 1.0739C22.0817 0.3839 21.0917 0.0039 20.0817 0.0039H6.8417C5.8117 0.0039 4.8117 0.3939 4.0917 1.1239C1.5317 3.6239 0.0017 7.2439 0.0017 10.7939C0.0017 14.3639 1.5617 18.0139 4.1617 20.5039C4.8617 21.2039 5.8317 21.5839 6.8417 21.5839ZM7.0117 18.7239C6.6017 18.7239 6.3117 18.6239 6.0717 18.3839C4.1017 16.5339 2.8817 13.6239 2.8817 10.8239C2.8817 8.0139 4.1117 5.0939 6.0817 3.2539C6.3417 3.0239 6.6117 2.9139 7.0117 2.9139H19.9217C20.3317 2.9139 20.6117 3.0239 20.8717 3.2739C22.8317 5.1139 24.0617 8.0139 24.0617 10.8239C24.0617 13.6239 22.8317 16.5339 20.8717 18.3839C20.6117 18.6239 20.3317 18.7239 19.9217 18.7239ZM8.4617 15.5039C9.1917 15.5039 9.7617 14.9439 9.7617 14.2239V7.4339C9.7617 6.7139 9.1717 6.1439 8.4617 6.1439C7.7417 6.1439 7.1817 6.7139 7.1817 7.4339V14.2239C7.1817 14.9439 7.7417 15.5039 8.4617 15.5039ZM18.4617 15.5039C19.1817 15.5039 19.7417 14.9339 19.7417 14.2139V7.4439C19.7417 6.7139 19.1817 6.1439 18.4617 6.1439C17.7417 6.1439 17.1817 6.7239 17.1817 7.4439V14.2139C17.1817 14.9339 17.7417 15.5039 18.4617 15.5039Z" />
        </svg>
    