
        <svg xmlns="http://www.w3.org/2000/svg" viewBox="0 0 100 100">
            <path d="M3.8417 21.8745H18.0317C20.5617 21.8745 21.8817 20.5745 21.8817 18.0745V3.8045C21.8817 1.3145 20.5617 0.0045 18.0317 0.0045H3.8417C1.3117 0.0045 0.0017 1.3045 0.0017 3.8045V18.0745C0.0017 20.5745 1.3117 21.8745 3.8417 21.8745ZM6.2817 16.6945C5.5317 16.6945 4.9917 16.1645 4.9917 15.4145V6.4545C4.9917 5.6945 5.5317 5.1545 6.2817 5.1545H15.6017C16.3517 5.1545 16.8917 5.6945 16.8917 6.4545V15.4145C16.8917 16.1645 16.3517 16.6945 15.6017 16.6945ZM10.9417 9.8245C11.6517 9.8245 12.2217 9.2445 12.2217 8.5445C12.2217 7.8245 11.6617 7.2645 10.9417 7.2645C10.2417 7.2645 9.6717 7.8245 9.6717 8.5445C9.6717 9.2445 10.2417 9.8245 10.9417 9.8245ZM8.3217 14.6045C9.0117 14.6045 9.5717 14.0345 9.5717 13.3445C9.5717 12.6545 9.0117 12.0945 8.3217 12.0945C7.6217 12.0945 7.0517 12.6445 7.0517 13.3445C7.0517 14.0345 7.6217 14.6045 8.3217 14.6045ZM13.5817 14.6045C14.2717 14.6045 14.8317 14.0345 14.8317 13.3445C14.8317 12.6545 14.2717 12.0945 13.5817 12.0945C12.8817 12.0945 12.3117 12.6545 12.3117 13.3445C12.3117 14.0345 12.8817 14.6045 13.5817 14.6045Z" />
        </svg>
    