
        <svg xmlns="http://www.w3.org/2000/svg" viewBox="0 0 100 100">
            <path d="M4.3817 22.8467H18.4717C21.2617 22.8467 22.8517 21.2667 22.8517 18.4767V4.3667C22.8517 1.5867 21.2617 -0.0033 18.4717 -0.0033H4.3817C1.5917 -0.0033 0.0017 1.5867 0.0017 4.3667V18.4767C0.0017 21.2667 1.5917 22.8467 4.3817 22.8467ZM6.9717 17.5167C5.9017 17.5167 5.1717 16.7767 5.1717 15.7167V7.1467C5.1717 6.0667 5.9017 5.3467 6.9717 5.3467H15.8917C16.9617 5.3467 17.6917 6.0667 17.6917 7.1467V15.7167C17.6917 16.7767 16.9617 17.5167 15.8917 17.5167ZM15.1517 11.1067L15.6017 10.6667C15.8517 10.4167 15.8717 10.0667 15.6017 9.7967L13.9817 8.1867C13.7117 7.9367 13.3717 7.9267 13.1117 8.1867L12.6717 8.6267C12.4217 8.8867 12.4217 9.2367 12.6817 9.5067L14.3017 11.1067C14.5517 11.3667 14.9017 11.3567 15.1517 11.1067ZM7.2617 10.6667L7.7217 11.1067C7.9717 11.3567 8.3117 11.3567 8.5517 11.1067L10.1817 9.5067C10.4317 9.2467 10.4417 8.8867 10.1817 8.6267L9.7417 8.1867C9.4917 7.9267 9.1517 7.9367 8.8817 8.1867L7.2617 9.7967C6.9917 10.0667 6.9917 10.4167 7.2617 10.6667ZM11.1217 15.4667H11.7417C12.0917 15.4667 12.3617 15.2067 12.3617 14.8567V12.7467C12.3617 12.3767 12.0917 12.1367 11.7417 12.1367H11.1217C10.7617 12.1367 10.5117 12.3767 10.5117 12.7467V14.8567C10.5117 15.2067 10.7717 15.4667 11.1217 15.4667Z" />
        </svg>
    