
        <svg xmlns="http://www.w3.org/2000/svg" viewBox="0 0 100 100">
            <path d="M9.0023 -0.0045C7.0823 -0.0045 5.7323 0.6955 4.4823 2.2855L1.0123 6.7055C-0.3477 8.4255 -0.3277 10.7555 1.0123 12.4955L4.4523 16.9655C5.6023 18.4855 7.2023 19.2755 9.0023 19.2755H22.3523C24.1523 19.2755 25.7423 18.4855 26.9023 16.9655L30.3423 12.4955C31.6823 10.7555 31.7023 8.4155 30.3423 6.7055L26.8723 2.2855C25.6223 0.6955 24.2723 -0.0045 22.3523 -0.0045ZM8.3923 7.3055C9.6223 7.3055 10.6423 8.3055 10.6423 9.5355C10.6423 10.7855 9.6223 11.7855 8.3923 11.7855C7.1623 11.7855 6.1523 10.7855 6.1523 9.5355C6.1523 8.3055 7.1623 7.3055 8.3923 7.3055ZM22.9623 7.3055C24.1923 7.3055 25.2023 8.3055 25.2023 9.5355C25.2023 10.7855 24.1923 11.7855 22.9623 11.7855C21.7323 11.7855 20.7123 10.7855 20.7123 9.5355C20.7123 8.3055 21.7323 7.3055 22.9623 7.3055ZM15.6723 9.9955C16.9123 9.9955 17.9223 11.0055 17.9223 12.2455C17.9223 13.4755 16.9123 14.4855 15.6723 14.4855C14.4423 14.4855 13.4323 13.4755 13.4323 12.2455C13.4323 11.0055 14.4423 9.9955 15.6723 9.9955Z" />
        </svg>
    