
        <svg xmlns="http://www.w3.org/2000/svg" viewBox="0 0 100 100">
            <path d="M3.6817 21.5705H18.6317C21.0817 21.5705 22.3117 20.3605 22.3117 17.9405V3.6305C22.3117 1.2205 21.0817 0.0005 18.6317 0.0005H3.6817C1.2317 0.0005 0.0017 1.2105 0.0017 3.6305V17.9405C0.0017 20.3705 1.2317 21.5705 3.6817 21.5705ZM3.7017 19.6905C2.5317 19.6905 1.8917 19.0705 1.8917 17.8505V3.7305C1.8917 2.5105 2.5317 1.8905 3.7017 1.8905H18.6017C19.7617 1.8905 20.4217 2.5105 20.4217 3.7305V17.8505C20.4217 19.0705 19.7617 19.6905 18.6017 19.6905ZM11.1517 9.4005C12.1217 9.4005 12.9117 8.6105 12.9117 7.6405C12.9117 6.6705 12.1217 5.8805 11.1517 5.8805C10.1817 5.8805 9.3917 6.6705 9.3917 7.6405C9.3917 8.6105 10.1817 9.4005 11.1517 9.4005ZM7.1517 15.6605C8.1117 15.6605 8.8917 14.8705 8.8917 13.9005C8.8917 12.9405 8.1117 12.1405 7.1517 12.1405C6.1617 12.1405 5.3817 12.9405 5.3817 13.9005C5.3817 14.8705 6.1617 15.6605 7.1517 15.6605ZM15.1717 15.6605C16.1417 15.6605 16.9317 14.8705 16.9317 13.9005C16.9317 12.9405 16.1417 12.1405 15.1717 12.1405C14.2017 12.1405 13.4217 12.9405 13.4217 13.9005C13.4217 14.8705 14.2017 15.6605 15.1717 15.6605Z" />
        </svg>
    