
        <svg xmlns="http://www.w3.org/2000/svg" viewBox="0 0 100 100">
            <path d="M12.7923 25.5978C19.8723 25.5978 25.6023 19.8678 25.6023 12.7978C25.6023 5.7278 19.8723 -0.0022 12.7923 -0.0022C5.7323 -0.0022 0.0023 5.7278 0.0023 12.7978C0.0023 19.8678 5.7323 25.5978 12.7923 25.5978ZM7.6723 14.5978C6.2323 14.5978 5.0723 13.4378 5.0723 11.9978C5.0723 10.5678 6.2323 9.3978 7.6723 9.3978C9.1123 9.3978 10.2923 10.5678 10.2923 11.9978C10.2923 13.4378 9.1123 14.5978 7.6723 14.5978ZM17.9223 14.5978C16.4923 14.5978 15.3123 13.4378 15.3123 11.9978C15.3123 10.5678 16.4923 9.3978 17.9223 9.3978C19.3623 9.3978 20.5323 10.5678 20.5323 11.9978C20.5323 13.4378 19.3623 14.5978 17.9223 14.5978ZM12.7923 20.1078C11.3623 20.1078 10.1923 18.9278 10.1923 17.4978C10.1923 16.0578 11.3623 14.8978 12.7923 14.8978C14.2423 14.8978 15.4123 16.0578 15.4123 17.4978C15.4123 18.9278 14.2423 20.1078 12.7923 20.1078Z" />
        </svg>
    