
        <svg xmlns="http://www.w3.org/2000/svg" viewBox="0 0 100 100">
            <path d="M11.4923 22.977C17.8123 22.977 22.9823 17.827 22.9823 11.497C22.9823 5.167 17.8123 -0.003 11.4923 -0.003C5.1723 -0.003 0.0023 5.167 0.0023 11.497C0.0023 17.827 5.1723 22.977 11.4923 22.977ZM11.4923 7.357C10.6623 7.357 9.9823 6.677 9.9823 5.847C9.9823 5.027 10.6623 4.347 11.4923 4.347C12.3123 4.347 12.9923 5.027 12.9923 5.847C12.9923 6.677 12.3123 7.357 11.4923 7.357ZM6.2123 13.637C5.0423 13.637 4.0823 12.687 4.0823 11.507C4.0823 10.337 5.0423 9.377 6.2123 9.377C7.3823 9.377 8.3423 10.337 8.3423 11.507C8.3423 12.687 7.3823 13.637 6.2123 13.637ZM16.7723 13.637C15.6023 13.637 14.6323 12.687 14.6323 11.507C14.6323 10.337 15.6023 9.377 16.7723 9.377C17.9523 9.377 18.9023 10.337 18.9023 11.507C18.9023 12.687 17.9523 13.637 16.7723 13.637Z" />
        </svg>
    