
        <svg xmlns="http://www.w3.org/2000/svg" viewBox="0 0 100 100">
            <path d="M3.6817 21.5722H17.8917C20.3517 21.5722 21.5717 20.3722 21.5717 17.9522V3.6322C21.5717 1.2222 20.3517 0.0022 17.8917 0.0022H3.6817C1.2317 0.0022 0.0017 1.2222 0.0017 3.6322V17.9522C0.0017 20.3722 1.2317 21.5722 3.6817 21.5722ZM3.7017 19.6922C2.5317 19.6922 1.8917 19.0622 1.8917 17.8522V3.7422C1.8917 2.5222 2.5317 1.8822 3.7017 1.8822H17.8717C19.0317 1.8822 19.6917 2.5222 19.6917 3.7422V17.8522C19.6917 19.0622 19.0317 19.6922 17.8717 19.6922ZM6.3117 16.2922H15.3317C15.9617 16.2922 16.4317 15.8222 16.4317 15.1922V6.4022C16.4317 5.7622 15.9617 5.2922 15.3317 5.2922H6.3117C5.6817 5.2922 5.2117 5.7622 5.2117 6.4022V15.1922C5.2117 15.8222 5.6817 16.2922 6.3117 16.2922ZM14.2717 10.6122C14.1017 10.8422 13.8417 10.8322 13.6417 10.6122L11.9617 8.9622C11.7517 8.7622 11.7517 8.5122 11.9617 8.3122L12.3917 7.8822C12.5717 7.6922 12.8317 7.7022 13.0217 7.9022L14.6917 9.5722C14.8917 9.7722 14.8917 10.0122 14.6917 10.2022ZM6.9517 10.2022C6.7517 10.0122 6.7517 9.7722 6.9517 9.5722L8.6217 7.9122C8.8217 7.7022 9.0717 7.7022 9.2617 7.9022L9.6717 8.3122C9.8917 8.5122 9.8817 8.7622 9.6717 8.9622L8.0017 10.6122C7.7917 10.8422 7.5517 10.8422 7.3717 10.6122ZM10.5217 14.5822C10.2617 14.5822 10.0617 14.4022 10.0617 14.1422V12.0622C10.0617 11.7922 10.2617 11.5922 10.5217 11.5922H11.1117C11.3717 11.5922 11.5817 11.7922 11.5817 12.0622V14.1422C11.5817 14.4122 11.3817 14.5822 11.1117 14.5822Z" />
        </svg>
    