
        <svg xmlns="http://www.w3.org/2000/svg" viewBox="0 0 100 100">
            <path d="M6.8967 0.0017C6.2167 0.0017 5.6667 0.2617 5.3267 0.7517L0.3267 7.8117C-0.0933 8.4217 -0.1033 9.1617 0.2867 9.7517L5.3267 16.8517C5.6767 17.3417 6.2167 17.6017 6.8967 17.6017H23.5167C24.2067 17.6017 24.7467 17.3417 25.0967 16.8517L30.1267 9.7517C30.5367 9.1617 30.5267 8.4217 30.1067 7.8117L25.0967 0.7517C24.7467 0.2617 24.2067 0.0017 23.5167 0.0017ZM6.8967 0.5717H23.5167C24.0167 0.5717 24.3967 0.7517 24.6467 1.1017L29.6467 8.1717C29.9167 8.5617 29.9367 9.0317 29.6667 9.4017L24.6467 16.5017C24.3867 16.8517 24.0167 17.0317 23.5167 17.0317H6.8967C6.4067 17.0317 6.0367 16.8517 5.7867 16.5017L0.7467 9.4017C0.4867 9.0317 0.4967 8.5617 0.7867 8.1717L5.7867 1.1017C6.0367 0.7517 6.4067 0.5717 6.8967 0.5717ZM7.0667 6.7017C5.9167 6.7017 4.9767 7.6517 4.9767 8.8017C4.9767 9.9517 5.9167 10.9017 7.0667 10.9017C8.2267 10.9017 9.1567 9.9517 9.1567 8.8017C9.1567 7.6517 8.2267 6.7017 7.0667 6.7017ZM23.3567 6.7017C22.2067 6.7017 21.2567 7.6517 21.2567 8.8017C21.2567 9.9517 22.2067 10.9017 23.3567 10.9017C24.5167 10.9017 25.4467 9.9517 25.4467 8.8017C25.4467 7.6517 24.5167 6.7017 23.3567 6.7017ZM15.2067 9.8217C14.0567 9.8217 13.1267 10.7717 13.1267 11.9217C13.1267 13.0617 14.0567 14.0117 15.2067 14.0117C16.3667 14.0117 17.3067 13.0617 17.3067 11.9217C17.3067 10.7717 16.3667 9.8217 15.2067 9.8217Z" />
        </svg>
    