
        <svg xmlns="http://www.w3.org/2000/svg" viewBox="0 0 100 100">
            <path d="M3.0117 20.4997H18.4017C20.3517 20.4997 21.4017 19.4297 21.4017 17.4797V3.0097C21.4017 1.0697 20.3517 -0.0003 18.4017 -0.0003H3.0117C1.0417 -0.0003 0.0017 1.0397 0.0017 3.0097V17.4797C0.0017 19.4497 1.0417 20.4997 3.0117 20.4997ZM3.0317 19.9197C1.4217 19.9197 0.5717 19.0797 0.5717 17.4597V3.0397C0.5717 1.4097 1.4217 0.5697 3.0317 0.5697H18.3617C19.9217 0.5697 20.8217 1.4097 20.8217 3.0397V17.4597C20.8217 19.0797 19.9217 19.9197 18.3617 19.9197ZM16.0117 9.1197L16.4617 8.6697C16.7017 8.4497 16.7017 8.0997 16.4517 7.8597L13.6917 5.0697C13.4617 4.8397 13.1217 4.8397 12.8817 5.0697L12.4217 5.5397C12.1917 5.7797 12.1917 6.1097 12.4217 6.3397L15.1917 9.1197C15.4317 9.3497 15.7617 9.3597 16.0117 9.1197ZM4.9417 8.6797L5.3917 9.1297C5.6417 9.3597 5.9717 9.3597 6.2117 9.1297L9.0017 6.3597C9.2317 6.1197 9.2217 5.7797 8.9717 5.5397L8.5217 5.0997C8.2817 4.8497 7.9817 4.8497 7.7317 5.0997L4.9417 7.8597C4.7217 8.0697 4.7117 8.4497 4.9417 8.6797ZM10.3717 15.6697H11.0317C11.3517 15.6697 11.5917 15.4497 11.5917 15.1097V11.0897C11.5917 10.7297 11.3517 10.4997 11.0317 10.4997H10.3717C10.0417 10.4997 9.8117 10.7297 9.8117 11.0897V15.1097C9.8117 15.4297 10.0317 15.6697 10.3717 15.6697Z" />
        </svg>
    