
        <svg xmlns="http://www.w3.org/2000/svg" viewBox="0 0 100 100">
            <path d="M3.8417 21.8828H18.8017C21.3317 21.8828 22.6417 20.5628 22.6417 18.0728V3.8128C22.6417 1.3028 21.3317 0.0028 18.8017 0.0028H3.8417C1.3117 0.0028 0.0017 1.3028 0.0017 3.8128V18.0728C0.0017 20.5828 1.3117 21.8828 3.8417 21.8828ZM3.9817 19.5828C2.8917 19.5828 2.3017 19.0028 2.3017 17.8728V3.9928C2.3017 2.8628 2.8917 2.2928 3.9817 2.2928H18.6517C19.7317 2.2928 20.3417 2.8628 20.3417 3.9928V17.8728C20.3417 19.0028 19.7317 19.5828 18.6517 19.5828ZM16.6317 10.5428L17.2817 9.8928C17.5917 9.5828 17.5917 9.1628 17.2717 8.8428L14.6417 6.2128C14.3217 5.8928 13.9017 5.8928 13.5917 6.2028L12.9417 6.8528C12.6217 7.1728 12.6117 7.5928 12.9417 7.9128L15.5717 10.5428C15.8917 10.8628 16.3017 10.8728 16.6317 10.5428ZM5.3517 9.8928L6.0117 10.5428C6.3317 10.8728 6.7517 10.8628 7.0617 10.5428L9.7017 7.9128C10.0217 7.5928 10.0217 7.1728 9.7017 6.8528L9.0517 6.2028C8.7317 5.8928 8.3217 5.8928 8.0017 6.2128L5.3717 8.8428C5.0517 9.1628 5.0417 9.5828 5.3517 9.8928ZM10.8517 16.7728H11.7817C12.2217 16.7728 12.5317 16.4728 12.5317 16.0228V12.6828C12.5317 12.2328 12.2217 11.9328 11.7817 11.9328H10.8517C10.4217 11.9328 10.1117 12.2328 10.1117 12.6828V16.0228C10.1117 16.4728 10.4017 16.7728 10.8517 16.7728Z" />
        </svg>
    