
        <svg xmlns="http://www.w3.org/2000/svg" viewBox="0 0 100 100">
            <path d="M3.4617 21.2264H17.7617C20.0517 21.2264 21.2217 20.0464 21.2217 17.7964V3.4264C21.2217 1.1764 20.0517 -0.0036 17.7617 -0.0036H3.4617C1.1717 -0.0036 0.0017 1.1564 0.0017 3.4264V17.7964C0.0017 20.0664 1.1717 21.2264 3.4617 21.2264ZM5.9317 16.1364C5.3317 16.1364 4.9017 15.7164 4.9017 15.1064V6.0964C4.9017 5.4964 5.3317 5.0664 5.9317 5.0664H15.2817C15.8917 5.0664 16.3117 5.4964 16.3117 6.0964V15.1064C16.3117 15.7164 15.8917 16.1364 15.2817 16.1364ZM10.6217 9.3864C11.2617 9.3864 11.7817 8.8664 11.7817 8.2264C11.7817 7.5664 11.2617 7.0564 10.6217 7.0564C9.9717 7.0564 9.4617 7.5664 9.4617 8.2264C9.4617 8.8664 9.9717 9.3864 10.6217 9.3864ZM8.0617 14.1464C8.7117 14.1464 9.2217 13.6264 9.2217 12.9864C9.2217 12.3364 8.7117 11.8264 8.0617 11.8264C7.4217 11.8264 6.9017 12.3364 6.9017 12.9864C6.9017 13.6264 7.4217 14.1464 8.0617 14.1464ZM13.1717 14.1464C13.8117 14.1464 14.3317 13.6264 14.3317 12.9864C14.3317 12.3364 13.8117 11.8264 13.1717 11.8264C12.5317 11.8264 12.0117 12.3364 12.0117 12.9864C12.0117 13.6264 12.5317 14.1464 13.1717 14.1464Z" />
        </svg>
    