
        <svg xmlns="http://www.w3.org/2000/svg" viewBox="0 0 100 100">
            <path d="M3.8417 21.8745H18.0317C20.5617 21.8745 21.8817 20.5745 21.8817 18.0745V3.8045C21.8817 1.3145 20.5617 0.0045 18.0317 0.0045H3.8417C1.3117 0.0045 0.0017 1.3045 0.0017 3.8045V18.0745C0.0017 20.5745 1.3117 21.8745 3.8417 21.8745ZM3.9817 19.5845C2.8917 19.5845 2.3017 19.0145 2.3017 17.8845V4.0045C2.3017 2.8745 2.8917 2.2945 3.9817 2.2945H17.8917C18.9717 2.2945 19.5817 2.8745 19.5817 4.0045V17.8845C19.5817 19.0145 18.9717 19.5845 17.8917 19.5845ZM7.2117 7.3945C6.4017 7.3945 6.0917 7.7245 5.6617 8.1645L3.7117 10.1245C3.2617 10.5745 3.2617 11.2745 3.7117 11.7145L5.6617 13.6945C6.1017 14.1345 6.4917 14.4745 7.2117 14.4745H14.6717C15.3917 14.4745 15.7717 14.1345 16.2217 13.6945L18.1617 11.7145C18.6117 11.2745 18.6117 10.5745 18.1617 10.1245L16.2217 8.1645C15.7717 7.7245 15.4817 7.3945 14.6717 7.3945ZM6.8317 9.8045C7.4517 9.8045 7.9617 10.3245 7.9617 10.9345C7.9617 11.5445 7.4517 12.0545 6.8317 12.0545C6.2217 12.0545 5.7117 11.5445 5.7117 10.9345C5.7117 10.3245 6.2217 9.8045 6.8317 9.8045ZM15.0517 9.8045C15.6517 9.8045 16.1617 10.3245 16.1617 10.9345C16.1617 11.5445 15.6517 12.0545 15.0517 12.0545C14.4217 12.0545 13.9217 11.5445 13.9217 10.9345C13.9217 10.3245 14.4217 9.8045 15.0517 9.8045ZM10.9317 10.6445C11.5517 10.6445 12.0717 11.1445 12.0717 11.7645C12.0717 12.3745 11.5517 12.8745 10.9317 12.8745C10.3217 12.8745 9.8117 12.3745 9.8117 11.7645C9.8117 11.1445 10.3217 10.6445 10.9317 10.6445Z" />
        </svg>
    