
        <svg xmlns="http://www.w3.org/2000/svg" viewBox="0 0 100 100">
            <path d="M11.4923 22.977C17.8323 22.977 22.9823 17.847 22.9823 11.497C22.9823 5.147 17.8323 -0.003 11.4923 -0.003C5.1423 -0.003 0.0023 5.147 0.0023 11.497C0.0023 17.847 5.1423 22.977 11.4923 22.977ZM11.4923 22.087C5.6323 22.087 0.8923 17.357 0.8923 11.497C0.8923 5.637 5.6323 0.887 11.4923 0.887C17.3523 0.887 22.0923 5.637 22.0923 11.497C22.0923 17.357 17.3523 22.087 11.4923 22.087ZM6.2623 13.497C7.4223 13.497 8.3823 12.537 8.3823 11.377C8.3823 10.207 7.4223 9.257 6.2623 9.257C5.0823 9.257 4.1323 10.207 4.1323 11.377C4.1323 12.537 5.0823 13.497 6.2623 13.497ZM16.7223 13.497C17.8923 13.497 18.8423 12.537 18.8423 11.377C18.8423 10.207 17.8923 9.257 16.7223 9.257C15.5623 9.257 14.6123 10.207 14.6123 11.377C14.6123 12.537 15.5623 13.497 16.7223 13.497ZM11.4923 18.777C12.6523 18.777 13.6023 17.827 13.6023 16.667C13.6023 15.497 12.6523 14.547 11.4923 14.547C10.3223 14.547 9.3723 15.497 9.3723 16.667C9.3723 17.827 10.3223 18.777 11.4923 18.777Z" />
        </svg>
    