
        <svg xmlns="http://www.w3.org/2000/svg" viewBox="0 0 100 100">
            <path d="M8.5779 0.0042C6.8379 0.0042 5.6579 0.6242 4.5479 2.0342L0.8879 6.7842C-0.3021 8.2942 -0.2821 10.3342 0.8779 11.8642L4.5179 16.6542C5.5579 18.0042 6.9479 18.7142 8.5779 18.7142H22.4279C24.0579 18.7142 25.4479 18.0042 26.4879 16.6542L30.1279 11.8642C31.2979 10.3342 31.3079 8.2942 30.1279 6.7842L26.4679 2.0342C25.3479 0.6242 24.1579 0.0042 22.4279 0.0042ZM8.5779 2.5242H22.4279C23.3979 2.5242 23.8179 2.7442 24.4779 3.5842L28.1379 8.3242C28.6279 8.9442 28.6279 9.7042 28.1379 10.3242L24.4779 15.1142C23.9179 15.8542 23.2879 16.1842 22.4279 16.1842H8.5779C7.7179 16.1842 7.0979 15.8542 6.5279 15.1142L2.8679 10.3242C2.3879 9.7042 2.3779 8.9442 2.8679 8.3242L6.5279 3.5842C7.1779 2.7442 7.6179 2.5242 8.5779 2.5242ZM8.1479 7.3042C7.0079 7.3042 6.0779 8.2242 6.0779 9.3542C6.0779 10.4742 7.0079 11.4042 8.1479 11.4042C9.2679 11.4042 10.1979 10.4742 10.1979 9.3542C10.1979 8.2242 9.2679 7.3042 8.1479 7.3042ZM22.8779 7.3042C21.7479 7.3042 20.8179 8.2242 20.8179 9.3542C20.8179 10.4742 21.7479 11.4042 22.8779 11.4042C23.9979 11.4042 24.9279 10.4742 24.9279 9.3542C24.9279 8.2242 23.9979 7.3042 22.8779 7.3042ZM15.4979 9.9742C14.3779 9.9742 13.4479 10.8942 13.4479 12.0242C13.4479 13.1442 14.3779 14.0742 15.4979 14.0742C16.6279 14.0742 17.5579 13.1442 17.5579 12.0242C17.5579 10.8942 16.6279 9.9742 15.4979 9.9742Z" />
        </svg>
    