
        <svg xmlns="http://www.w3.org/2000/svg" viewBox="0 0 100 100">
            <path d="M11.4923 22.977C17.8123 22.977 22.9823 17.827 22.9823 11.497C22.9823 5.167 17.8123 -0.003 11.4923 -0.003C5.1723 -0.003 0.0023 5.167 0.0023 11.497C0.0023 17.827 5.1723 22.977 11.4923 22.977ZM6.2923 13.607C5.1123 13.607 4.1623 12.657 4.1623 11.477C4.1623 10.297 5.1123 9.337 6.2923 9.337C7.4623 9.337 8.4223 10.297 8.4223 11.477C8.4223 12.657 7.4623 13.607 6.2923 13.607ZM16.7023 13.607C15.5123 13.607 14.5623 12.657 14.5623 11.477C14.5623 10.297 15.5123 9.337 16.7023 9.337C17.8723 9.337 18.8323 10.297 18.8323 11.477C18.8323 12.657 17.8723 13.607 16.7023 13.607ZM9.9623 16.067H13.0123C13.2323 16.067 13.3723 16.197 13.3723 16.417V17.417C13.3723 18.457 12.5123 19.317 11.4823 19.317C10.4423 19.317 9.6223 18.467 9.6223 17.417V16.417C9.6223 16.197 9.7223 16.067 9.9623 16.067Z" />
        </svg>
    