
        <svg xmlns="http://www.w3.org/2000/svg" viewBox="0 0 100 100">
            <path d="M11.9523 23.9041C18.5523 23.9041 23.9023 18.5341 23.9023 11.9541C23.9023 5.3541 18.5523 0.0041 11.9523 0.0041C5.3623 0.0041 0.0023 5.3541 0.0023 11.9541C0.0023 18.5341 5.3623 23.9041 11.9523 23.9041ZM7.0323 14.1541C5.7623 14.1541 4.7623 13.1241 4.7623 11.8741C4.7623 10.6041 5.7623 9.5841 7.0323 9.5841C8.2923 9.5841 9.3123 10.6041 9.3123 11.8741C9.3123 13.1241 8.2923 14.1541 7.0323 14.1541ZM16.8723 14.1541C15.6123 14.1541 14.5923 13.1241 14.5923 11.8741C14.5923 10.6041 15.6123 9.5841 16.8723 9.5841C18.1423 9.5841 19.1523 10.6041 19.1523 11.8741C19.1523 13.1241 18.1423 14.1541 16.8723 14.1541ZM10.5123 16.3641H13.3923C13.7723 16.3641 13.9523 16.5441 13.9523 16.9241V17.8041C13.9523 18.9141 13.0823 19.8041 11.9523 19.8041C10.8123 19.8041 9.9523 18.9241 9.9523 17.8041V16.9241C9.9523 16.5441 10.1323 16.3641 10.5123 16.3641Z" />
        </svg>
    