
        <svg xmlns="http://www.w3.org/2000/svg" viewBox="0 0 100 100">
            <path d="M11.7523 12.2897C12.1923 12.2897 12.4823 11.9897 12.4823 11.5397V0.7597C12.4823 0.3197 12.1923 -0.0003 11.7523 -0.0003C11.3323 -0.0003 11.0323 0.3197 11.0323 0.7597V11.5397C11.0323 11.9897 11.3323 12.2897 11.7523 12.2897ZM11.7523 24.2197C18.2423 24.2197 23.5123 18.9597 23.5123 12.4697C23.5123 8.6597 21.7523 5.6397 19.5423 3.6897C18.7423 2.9697 17.7323 4.0697 18.5323 4.7997C20.6723 6.6897 21.9923 9.4097 21.9923 12.4697C21.9923 18.1297 17.4123 22.6997 11.7523 22.6997C6.0923 22.6997 1.5223 18.1297 1.5223 12.4697C1.5223 9.3997 2.8523 6.6797 4.9823 4.7897C5.7823 4.0497 4.7823 2.9897 3.9723 3.6897C1.7423 5.6097 0.0023 8.7297 0.0023 12.4697C0.0023 18.9597 5.2623 24.2197 11.7523 24.2197Z" />
        </svg>
    