
        <svg xmlns="http://www.w3.org/2000/svg" viewBox="0 0 100 100">
            <path d="M0.0017 19.3723H9.4017C11.9217 19.3723 13.6217 17.8523 13.6217 15.5623C13.6217 13.2723 11.9217 11.6923 9.4017 11.6923H4.1517C2.4817 11.6923 1.4517 10.6923 1.4517 9.2723C1.4517 7.8423 2.5217 6.9023 4.1517 6.9023H9.3017V7.8123C9.3017 8.7023 9.9717 9.3323 10.9117 9.3323H13.4717C14.2717 9.3323 14.5217 9.5123 15.1017 10.1623C16.4417 11.6923 17.9017 12.3623 19.6617 12.3623H22.1117C22.6917 12.3623 23.0717 12.0023 23.0717 11.4423V9.6023H26.5617C27.1017 9.6023 27.5317 9.1723 27.5317 8.6323C27.5317 8.1023 27.1017 7.6723 26.5617 7.6723H23.0717V4.7023H26.5617C27.1017 4.7023 27.5317 4.2723 27.5317 3.7423C27.5317 3.2023 27.1017 2.7623 26.5617 2.7623H23.0717V0.9023C23.0717 0.3723 22.6917 0.0023 22.1117 0.0023H19.6617C17.8917 0.0023 16.4317 0.6823 15.1017 2.2123C14.5217 2.8723 14.2717 3.0623 13.4717 3.0623H10.9117C9.9717 3.0623 9.3017 3.6723 9.3017 4.5423V5.4623H4.2217C1.6917 5.4623 0.0017 6.9723 0.0017 9.2723C0.0017 11.5523 1.6917 13.1323 4.2217 13.1323H9.4617C11.1317 13.1323 12.1617 14.1323 12.1617 15.5623C12.1617 16.9823 11.0817 17.9323 9.4617 17.9323H0.0017Z" />
        </svg>
    