
        <svg xmlns="http://www.w3.org/2000/svg" viewBox="0 0 100 100">
            <path d="M13.6623 25.5444C19.4523 25.5444 24.7823 21.7344 24.7823 17.5644V16.6744H25.6123C26.6323 16.6744 27.3323 15.9844 27.3323 14.9644V10.5844C27.3323 9.5644 26.6323 8.8744 25.6123 8.8744H24.7823V7.9844C24.7823 3.8044 19.4523 0.0044 13.6623 0.0044C7.8723 0.0044 2.5423 3.8044 2.5423 7.9844V8.8744H1.7123C0.6923 8.8744 0.0023 9.5644 0.0023 10.5844V14.9644C0.0023 15.9844 0.6923 16.6744 1.7123 16.6744H2.5423V17.5644C2.5423 21.7344 7.8723 25.5444 13.6623 25.5444ZM13.6623 23.1444C9.1623 23.1444 4.9423 20.2944 4.9423 17.3944V8.1544C4.9423 5.2544 9.1623 2.3944 13.6623 2.3944C18.1523 2.3944 22.3823 5.2544 22.3823 8.1544V17.3944C22.3823 20.2944 18.1523 23.1444 13.6623 23.1444ZM8.4423 15.0344C9.6923 15.0344 10.7023 14.0244 10.7023 12.7744C10.7023 11.5244 9.6923 10.5144 8.4423 10.5144C7.1923 10.5144 6.1723 11.5244 6.1723 12.7744C6.1723 14.0244 7.1923 15.0344 8.4423 15.0344ZM18.8923 15.0344C20.1323 15.0344 21.1523 14.0244 21.1523 12.7744C21.1523 11.5244 20.1323 10.5144 18.8923 10.5144C17.6323 10.5144 16.6123 11.5244 16.6123 12.7744C16.6123 14.0244 17.6323 15.0344 18.8923 15.0344Z" />
        </svg>
    