
        <svg xmlns="http://www.w3.org/2000/svg" viewBox="0 0 100 100">
            <path d="M4.1417 22.4023H19.0817C21.7517 22.4023 23.2117 20.9523 23.2117 18.2923V4.1123C23.2117 1.4523 21.7517 0.0023 19.0817 0.0023H4.1417C1.4617 0.0023 0.0017 1.4523 0.0017 4.1123V18.2923C0.0017 20.9523 1.4617 22.4023 4.1417 22.4023ZM11.6017 9.3823C10.5117 9.3823 9.6317 8.5123 9.6317 7.4223C9.6317 6.3423 10.5117 5.4623 11.6017 5.4623C12.6917 5.4623 13.5717 6.3423 13.5717 7.4223C13.5717 8.5123 12.6917 9.3823 11.6017 9.3823ZM7.6517 16.9223C6.5617 16.9223 5.6817 16.0423 5.6817 14.9523C5.6817 13.8623 6.5617 12.9823 7.6517 12.9823C8.7417 12.9823 9.6217 13.8623 9.6217 14.9523C9.6217 16.0423 8.7417 16.9223 7.6517 16.9223ZM15.5717 16.9223C14.4717 16.9223 13.5917 16.0423 13.5917 14.9523C13.5917 13.8623 14.4717 12.9823 15.5717 12.9823C16.6517 12.9823 17.5317 13.8623 17.5317 14.9523C17.5317 16.0423 16.6517 16.9223 15.5717 16.9223Z" />
        </svg>
    