
        <svg xmlns="http://www.w3.org/2000/svg" viewBox="0 0 100 100">
            <path d="M12.7923 25.5978C19.8723 25.5978 25.6023 19.8678 25.6023 12.7978C25.6023 5.7278 19.8723 -0.0022 12.7923 -0.0022C5.7323 -0.0022 0.0023 5.7278 0.0023 12.7978C0.0023 19.8678 5.7323 25.5978 12.7923 25.5978ZM12.7923 21.4178C8.0323 21.4178 4.1723 17.5678 4.1723 12.7978C4.1723 8.0278 8.0323 4.1678 12.7923 4.1678C17.5623 4.1678 21.4323 8.0278 21.4323 12.7978C21.4323 17.5678 17.5623 21.4178 12.7923 21.4178ZM8.4223 15.1778C9.7423 15.1778 10.8023 14.1078 10.8023 12.7978C10.8023 11.4878 9.7423 10.4178 8.4223 10.4178C7.1123 10.4178 6.0423 11.4878 6.0423 12.7978C6.0423 14.1078 7.1123 15.1778 8.4223 15.1778ZM17.1723 15.1778C18.4723 15.1778 19.5423 14.1078 19.5423 12.7978C19.5423 11.4878 18.4723 10.4178 17.1723 10.4178C15.8523 10.4178 14.7823 11.4878 14.7823 12.7978C14.7823 14.1078 15.8523 15.1778 17.1723 15.1778ZM11.4523 16.4078C11.0723 16.4078 10.8323 16.6378 10.8323 17.0078V17.8078C10.8323 18.9178 11.6823 19.7778 12.7923 19.7778C13.9123 19.7778 14.7823 18.9178 14.7823 17.8078V17.0078C14.7823 16.6378 14.5223 16.4078 14.1423 16.4078Z" />
        </svg>
    