
        <svg xmlns="http://www.w3.org/2000/svg" viewBox="0 0 100 100">
            <path d="M3.8417 21.8828H18.8017C21.3317 21.8828 22.6417 20.5628 22.6417 18.0728V3.8128C22.6417 1.3028 21.3317 0.0028 18.8017 0.0028H3.8417C1.3117 0.0028 0.0017 1.3028 0.0017 3.8128V18.0728C0.0017 20.5828 1.3117 21.8828 3.8417 21.8828ZM16.8417 10.5128C16.5117 10.8528 16.0817 10.8528 15.7417 10.5128L12.9917 7.7828C12.6717 7.4428 12.6717 7.0028 12.9917 6.6728L13.6717 5.9728C14.0017 5.6528 14.4517 5.6528 14.7817 5.9928L17.5217 8.7328C17.8617 9.0728 17.8617 9.5028 17.5317 9.8328ZM5.1117 9.8328C4.7817 9.5028 4.7817 9.0628 5.1217 8.7328L7.8517 5.9928C8.1917 5.6528 8.6217 5.6628 8.9517 5.9928L9.6417 6.6728C9.9717 7.0028 9.9717 7.4428 9.6417 7.7828L6.8917 10.5128C6.5517 10.8528 6.1217 10.8528 5.7917 10.5128ZM10.8317 16.9928C10.3717 16.9928 10.0617 16.6828 10.0617 16.2228V12.7428C10.0617 12.2728 10.3817 11.9528 10.8317 11.9528H11.8017C12.2617 11.9528 12.5817 12.2728 12.5817 12.7428V16.2228C12.5817 16.7028 12.2617 16.9928 11.8017 16.9928Z" />
        </svg>
    