
        <svg xmlns="http://www.w3.org/2000/svg" viewBox="0 0 100 100">
            <path d="M0.0023 13.9927C0.0023 14.8227 0.5523 15.3727 1.3723 15.3727H2.3323V16.5827C2.3323 20.4827 7.3323 24.0227 12.7223 24.0227C18.1323 24.0227 23.1323 20.4827 23.1323 16.5827V15.3727H24.0823C24.9123 15.3727 25.4623 14.8227 25.4623 13.9927V10.0227C25.4623 9.2027 24.9123 8.6327 24.0823 8.6327H23.1323V7.4427C23.1323 3.5227 18.1323 0.0027 12.7223 0.0027C7.3323 0.0027 2.3323 3.5227 2.3323 7.4427V8.6327H1.3723C0.5523 8.6327 0.0023 9.2027 0.0023 10.0227ZM7.2323 14.2227C6.0123 14.2227 5.0123 13.2327 5.0123 12.0127C5.0123 10.7927 6.0123 9.7927 7.2323 9.7927C8.4623 9.7927 9.4423 10.7927 9.4423 12.0127C9.4423 13.2327 8.4623 14.2227 7.2323 14.2227ZM18.2223 14.2227C16.9923 14.2227 16.0123 13.2327 16.0123 12.0127C16.0123 10.7927 16.9923 9.7927 18.2223 9.7927C19.4523 9.7927 20.4523 10.7927 20.4523 12.0127C20.4523 13.2327 19.4523 14.2227 18.2223 14.2227Z" />
        </svg>
    