
        <svg xmlns="http://www.w3.org/2000/svg" viewBox="0 0 100 100">
            <path d="M12.2223 24.4436C18.9723 24.4436 24.4423 18.9736 24.4423 12.2236C24.4423 5.4736 18.9723 0.0036 12.2223 0.0036C5.4723 0.0036 0.0023 5.4736 0.0023 12.2236C0.0023 18.9736 5.4723 24.4436 12.2223 24.4436ZM12.2223 21.7636C6.9523 21.7636 2.6823 17.4936 2.6823 12.2236C2.6823 6.9536 6.9523 2.6836 12.2223 2.6836C17.4923 2.6836 21.7623 6.9536 21.7623 12.2236C21.7623 17.4936 17.4923 21.7636 12.2223 21.7636ZM12.2223 12.5836C12.7823 12.5836 13.1723 12.1736 13.1723 11.6036V6.8336C13.1723 6.2536 12.7823 5.8436 12.2223 5.8436C11.6623 5.8436 11.2723 6.2536 11.2723 6.8336V11.6036C11.2723 12.1736 11.6623 12.5836 12.2223 12.5836ZM12.2223 18.2336C15.5323 18.2336 18.2623 15.5036 18.2623 12.2136C18.2623 10.6036 17.5823 9.0236 16.4223 7.9236C15.5023 7.0036 14.2023 8.2736 15.1123 9.2236C15.9223 9.9936 16.3823 11.0636 16.3923 12.2136C16.3923 14.5336 14.5423 16.3836 12.2223 16.3836C9.9023 16.3836 8.0623 14.5336 8.0623 12.2136C8.0623 11.0636 8.5123 9.9936 9.3323 9.2136C10.2423 8.2636 8.9523 6.9936 8.0323 7.9236C6.8623 9.0136 6.2023 10.5936 6.2023 12.2136C6.2023 15.5036 8.9223 18.2336 12.2223 18.2336Z" />
        </svg>
    