
        <svg xmlns="http://www.w3.org/2000/svg" viewBox="0 0 100 100">
            <path d="M3.0117 20.5048H17.4917C19.4517 20.5048 20.5117 19.4248 20.5117 17.4948V3.0148C20.5117 1.0748 19.4517 0.0048 17.4917 0.0048H3.0117C1.0417 0.0048 0.0017 1.0448 0.0017 3.0148V17.4948C0.0017 19.4648 1.0417 20.5048 3.0117 20.5048ZM3.0317 19.9348C1.4217 19.9348 0.5717 19.0948 0.5717 17.4648V3.0348C0.5717 1.4148 1.4217 0.5748 3.0317 0.5748H17.4617C19.0317 0.5748 19.9317 1.4148 19.9317 3.0348V17.4648C19.9317 19.0948 19.0317 19.9348 17.4617 19.9348ZM5.6517 15.5148H14.8617C15.3517 15.5148 15.6817 15.1848 15.6817 14.6948V5.8148C15.6817 5.3248 15.3517 4.9948 14.8617 4.9948H5.6517C5.1517 4.9948 4.8317 5.3248 4.8317 5.8148V14.6948C4.8317 15.1848 5.1517 15.5148 5.6517 15.5148ZM10.2517 9.3548C9.6717 9.3548 9.2117 8.8948 9.2117 8.3048C9.2117 7.7248 9.6717 7.2648 10.2517 7.2648C10.8317 7.2648 11.3017 7.7248 11.3017 8.3048C11.3017 8.8948 10.8317 9.3548 10.2517 9.3548ZM7.8617 13.2448C7.2817 13.2448 6.8217 12.7748 6.8217 12.1948C6.8217 11.6148 7.2817 11.1548 7.8617 11.1548C8.4417 11.1548 8.9017 11.6148 8.9017 12.1948C8.9017 12.7748 8.4417 13.2448 7.8617 13.2448ZM12.6417 13.2448C12.0617 13.2448 11.6017 12.7748 11.6017 12.1948C11.6017 11.6148 12.0617 11.1548 12.6417 11.1548C13.2217 11.1548 13.6917 11.6148 13.6917 12.1948C13.6917 12.7748 13.2217 13.2448 12.6417 13.2448Z" />
        </svg>
    