
        <svg xmlns="http://www.w3.org/2000/svg" viewBox="0 0 100 100">
            <path d="M3.9717 22.1117H18.1317C20.7317 22.1117 22.1017 20.7417 22.1017 18.1717V3.9417C22.1017 1.3717 20.7317 0.0017 18.1317 0.0017H3.9717C1.3817 0.0017 0.0017 1.3717 0.0017 3.9417V18.1717C0.0017 20.7417 1.3817 22.1117 3.9717 22.1117ZM6.4417 16.9017C5.6117 16.9017 5.0317 16.3117 5.0317 15.4817V6.6217C5.0317 5.7917 5.6117 5.2017 6.4417 5.2017H15.6717C16.4917 5.2017 17.0817 5.7917 17.0817 6.6217V15.4817C17.0817 16.3117 16.4917 16.9017 15.6717 16.9017ZM11.0617 10.3517C11.9017 10.3517 12.6017 9.6517 12.6017 8.8017C12.6017 7.9617 11.9017 7.2617 11.0617 7.2617C10.2217 7.2617 9.5317 7.9617 9.5317 8.8017C9.5317 9.6517 10.2217 10.3517 11.0617 10.3517ZM8.4517 14.8117C9.1517 14.8117 9.7217 14.2417 9.7217 13.5317C9.7217 12.8217 9.1517 12.2417 8.4517 12.2417C7.7217 12.2417 7.1517 12.8217 7.1517 13.5317C7.1517 14.2417 7.7217 14.8117 8.4517 14.8117ZM13.6917 14.8117C14.3917 14.8117 14.9717 14.2417 14.9717 13.5317C14.9717 12.8217 14.3917 12.2417 13.6917 12.2417C12.9717 12.2417 12.4017 12.8217 12.4017 13.5317C12.4017 14.2417 12.9717 14.8117 13.6917 14.8117Z" />
        </svg>
    