
        <svg xmlns="http://www.w3.org/2000/svg" viewBox="0 0 100 100">
            <path d="M0.0023 14.9644C0.0023 15.9844 0.6923 16.6744 1.7123 16.6744H2.5423V17.5644C2.5423 21.7344 7.8723 25.5444 13.6623 25.5444C19.4523 25.5444 24.7823 21.7344 24.7823 17.5644V16.6744H25.6123C26.6323 16.6744 27.3323 15.9844 27.3323 14.9644V10.5844C27.3323 9.5644 26.6323 8.8744 25.6123 8.8744H24.7823V7.9844C24.7823 3.8044 19.4523 0.0044 13.6623 0.0044C7.8723 0.0044 2.5423 3.8044 2.5423 7.9844V8.8744H1.7123C0.6923 8.8744 0.0023 9.5644 0.0023 10.5844ZM8.0823 15.1544C6.7723 15.1544 5.6923 14.0844 5.6923 12.7744C5.6923 11.4644 6.7723 10.3844 8.0823 10.3844C9.4023 10.3844 10.4623 11.4644 10.4623 12.7744C10.4623 14.0844 9.4023 15.1544 8.0823 15.1544ZM19.2423 15.1544C17.9323 15.1544 16.8623 14.0844 16.8623 12.7744C16.8623 11.4644 17.9323 10.3844 19.2423 10.3844C20.5523 10.3844 21.6323 11.4644 21.6323 12.7744C21.6323 14.0844 20.5523 15.1544 19.2423 15.1544Z" />
        </svg>
    