
        <svg xmlns="http://www.w3.org/2000/svg" viewBox="0 0 100 100">
            <path d="M4.1417 22.4023H19.0817C21.7517 22.4023 23.2117 20.9523 23.2117 18.2923V4.1123C23.2117 1.4523 21.7517 0.0023 19.0817 0.0023H4.1417C1.4617 0.0023 0.0017 1.4523 0.0017 4.1123V18.2923C0.0017 20.9523 1.4617 22.4023 4.1417 22.4023ZM7.3117 11.3323C6.5717 11.3323 6.0017 10.7623 6.0017 10.0123V6.3623C6.0017 5.6223 6.5717 5.0223 7.3117 5.0223C8.0617 5.0223 8.6517 5.6223 8.6517 6.3623V10.0123C8.6517 10.7423 8.0617 11.3323 7.3117 11.3323ZM15.8717 11.3323C15.1417 11.3323 14.5617 10.7623 14.5617 10.0123V6.3623C14.5617 5.6223 15.1417 5.0223 15.8717 5.0223C16.6217 5.0223 17.2017 5.6223 17.2017 6.3623V10.0123C17.2017 10.7423 16.6217 11.3323 15.8717 11.3323ZM10.1117 17.9023C9.6917 17.9023 9.4717 17.6823 9.4717 17.2723V16.0323C9.4717 14.8223 10.3817 13.8723 11.6017 13.8723C12.8117 13.8723 13.7417 14.8223 13.7417 16.0323V17.2723C13.7417 17.6823 13.5117 17.9023 13.1017 17.9023Z" />
        </svg>
    