
        <svg xmlns="http://www.w3.org/2000/svg" viewBox="0 0 100 100">
            <path d="M3.4617 21.2264H17.7617C20.0517 21.2264 21.2217 20.0464 21.2217 17.7964V3.4264C21.2217 1.1764 20.0517 -0.0036 17.7617 -0.0036H3.4617C1.1717 -0.0036 0.0017 1.1564 0.0017 3.4264V17.7964C0.0017 20.0664 1.1717 21.2264 3.4617 21.2264ZM3.4817 19.7664C2.1717 19.7664 1.4517 19.0764 1.4517 17.7164V3.5064C1.4517 2.1464 2.1717 1.4564 3.4817 1.4564H17.7317C19.0317 1.4564 19.7717 2.1464 19.7717 3.5064V17.7164C19.7717 19.0764 19.0317 19.7664 17.7317 19.7664ZM10.6017 16.6664C13.9717 16.6664 16.6717 13.9664 16.6717 10.6064C16.6717 7.2464 13.9717 4.5364 10.6017 4.5364C7.2417 4.5364 4.5517 7.2464 4.5517 10.6064C4.5517 13.9664 7.2417 16.6664 10.6017 16.6664ZM10.6017 8.4064C10.1417 8.4064 9.7717 8.0264 9.7717 7.5564C9.7717 7.0864 10.1417 6.7064 10.6017 6.7064C11.0817 6.7064 11.4617 7.0864 11.4617 7.5564C11.4617 8.0264 11.0817 8.4064 10.6017 8.4064ZM13.6017 11.8864C12.8917 11.8864 12.3017 11.3064 12.3017 10.6064C12.3017 9.9064 12.8917 9.3164 13.6017 9.3164C14.3017 9.3164 14.8817 9.9064 14.8817 10.6064C14.8817 11.3064 14.3017 11.8864 13.6017 11.8864ZM7.6317 11.9064C6.9117 11.9064 6.3317 11.3164 6.3317 10.6164C6.3317 9.9164 6.9117 9.3364 7.6317 9.3364C8.3217 9.3364 8.9017 9.9164 8.9017 10.6164C8.9017 11.3164 8.3217 11.9064 7.6317 11.9064Z" />
        </svg>
    