
        <svg xmlns="http://www.w3.org/2000/svg" viewBox="0 0 100 100">
            <path d="M0.0017 20.5266H9.9017C12.7617 20.5266 14.5917 18.7466 14.5917 16.2766C14.5917 13.8066 12.7617 11.9966 9.9017 11.9966H4.5517C3.0517 11.9966 2.1717 11.1366 2.1717 9.8766C2.1717 8.6366 3.0617 7.7966 4.5517 7.7966H9.7617V8.3866C9.7617 9.5666 10.6017 10.3466 11.8317 10.3466H14.4617C15.1417 10.3466 15.2817 10.4366 15.7817 11.0266C17.0617 12.6366 18.8417 13.4366 20.7517 13.4366H23.5317C24.1717 13.4366 24.6117 13.0066 24.6117 12.3766V10.4966H28.1217C28.8117 10.4966 29.3517 9.9466 29.3517 9.2666C29.3517 8.5766 28.8117 8.0366 28.1217 8.0366H24.6117V5.4366H28.1217C28.8117 5.4366 29.3517 4.8966 29.3517 4.2066C29.3517 3.5266 28.8117 2.9766 28.1217 2.9766H24.6117V1.0566C24.6117 0.4366 24.1717 -0.0034 23.5317 -0.0034H20.7517C18.8217 -0.0034 17.0517 0.8066 15.7817 2.4066C15.2817 2.9966 15.1417 3.0966 14.4617 3.0966H11.8317C10.6017 3.0966 9.7617 3.8766 9.7617 5.0466V5.6266H4.7017C1.8317 5.6266 0.0017 7.4166 0.0017 9.8766C0.0017 12.3466 1.8317 14.1666 4.7017 14.1666H10.0417C11.5417 14.1666 12.4317 15.0266 12.4317 16.2766C12.4317 17.5166 11.5317 18.3666 10.0417 18.3666H0.0017Z" />
        </svg>
    