
        <svg xmlns="http://www.w3.org/2000/svg" viewBox="0 0 100 100">
            <path d="M3.0117 20.4997H18.4017C20.3517 20.4997 21.4017 19.4297 21.4017 17.4797V3.0097C21.4017 1.0697 20.3517 -0.0003 18.4017 -0.0003H3.0117C1.0417 -0.0003 0.0017 1.0397 0.0017 3.0097V17.4797C0.0017 19.4497 1.0417 20.4997 3.0117 20.4997ZM3.0317 19.9197C1.4217 19.9197 0.5717 19.0797 0.5717 17.4597V3.0397C0.5717 1.4097 1.4217 0.5697 3.0317 0.5697H18.3617C19.9217 0.5697 20.8217 1.4097 20.8217 3.0397V17.4597C20.8217 19.0797 19.9217 19.9197 18.3617 19.9197ZM10.7017 8.3397C11.5217 8.3397 12.1917 7.6597 12.1917 6.8397C12.1917 6.0197 11.5217 5.3597 10.7017 5.3597C9.8817 5.3597 9.2117 6.0197 9.2117 6.8397C9.2117 7.6597 9.8817 8.3397 10.7017 8.3397ZM6.5717 15.0597C7.3917 15.0597 8.0617 14.3897 8.0617 13.5697C8.0617 12.7497 7.3917 12.0797 6.5717 12.0797C5.7517 12.0797 5.0817 12.7497 5.0817 13.5697C5.0817 14.3897 5.7517 15.0597 6.5717 15.0597ZM14.8317 15.0597C15.6517 15.0597 16.3217 14.3897 16.3217 13.5697C16.3217 12.7497 15.6517 12.0797 14.8317 12.0797C14.0117 12.0797 13.3317 12.7497 13.3317 13.5697C13.3317 14.3897 14.0117 15.0597 14.8317 15.0597Z" />
        </svg>
    