
        <svg xmlns="http://www.w3.org/2000/svg" viewBox="0 0 100 100">
            <path d="M14.1423 26.418C20.1523 26.418 25.6723 22.438 25.6723 18.058V17.488H26.2623C27.4523 17.488 28.2923 16.648 28.2923 15.458V10.958C28.2923 9.758 27.4523 8.928 26.2623 8.928H25.6723V8.348C25.6723 3.968 20.1523 -0.002 14.1423 -0.002C8.1323 -0.002 2.6023 3.968 2.6023 8.348V8.928H2.0123C0.8323 8.928 0.0023 9.758 0.0023 10.958V15.458C0.0023 16.648 0.8323 17.488 2.0123 17.488H2.6023V18.058C2.6023 22.438 8.1323 26.418 14.1423 26.418ZM14.1423 23.298C9.8923 23.298 5.7023 20.598 5.7023 17.648V8.768C5.7023 5.808 9.8923 3.108 14.1423 3.108C18.3823 3.108 22.5823 5.808 22.5823 8.768V17.648C22.5823 20.598 18.3823 23.298 14.1423 23.298ZM9.2123 15.548C10.5023 15.548 11.5523 14.498 11.5523 13.208C11.5523 11.918 10.5023 10.868 9.2123 10.868C7.9223 10.868 6.8623 11.918 6.8623 13.208C6.8623 14.498 7.9223 15.548 9.2123 15.548ZM19.0823 15.548C20.3623 15.548 21.4123 14.498 21.4123 13.208C21.4123 11.918 20.3623 10.868 19.0823 10.868C17.7923 10.868 16.7323 11.918 16.7323 13.208C16.7323 14.498 17.7923 15.548 19.0823 15.548Z" />
        </svg>
    