
        <svg xmlns="http://www.w3.org/2000/svg" viewBox="0 0 100 100">
            <path d="M4.5917 23.2359H18.6417C21.5417 23.2359 23.2417 21.5459 23.2417 18.6459V4.5959C23.2417 1.6959 21.5417 -0.0041 18.6417 -0.0041H4.5917C1.7017 -0.0041 0.0017 1.6959 0.0017 4.5959V18.6459C0.0017 21.5459 1.7017 23.2359 4.5917 23.2359ZM11.6117 18.5959C7.7717 18.5959 4.6617 15.4959 4.6617 11.6359C4.6617 7.7859 7.7717 4.6759 11.6117 4.6759C15.4717 4.6759 18.5717 7.7859 18.5717 11.6359C18.5717 15.4959 15.4717 18.5959 11.6117 18.5959ZM8.8217 12.6659C9.6117 12.6659 10.2617 12.0159 10.2617 11.2259C10.2617 10.4559 9.6117 9.7959 8.8217 9.7959C8.0517 9.7959 7.3817 10.4559 7.3817 11.2259C7.3817 12.0159 8.0517 12.6659 8.8217 12.6659ZM14.2017 12.6659C14.9917 12.6659 15.6317 12.0159 15.6317 11.2259C15.6317 10.4559 14.9717 9.7959 14.2017 9.7959C13.4317 9.7959 12.7617 10.4559 12.7617 11.2259C12.7617 12.0259 13.4017 12.6659 14.2017 12.6659ZM11.6117 16.0359C12.4117 16.0359 13.0817 15.3659 13.0817 14.5859C13.0817 13.8059 12.4117 13.1559 11.6117 13.1559C10.8517 13.1559 10.1917 13.8159 10.1917 14.5859C10.1917 15.3659 10.8517 16.0359 11.6117 16.0359Z" />
        </svg>
    