
        <svg xmlns="http://www.w3.org/2000/svg" viewBox="0 0 100 100">
            <path d="M6.4417 20.6569H19.3217C20.2417 20.6569 21.0917 20.3369 21.7117 19.7369C24.2617 17.3069 25.7717 13.7969 25.7717 10.3369C25.7717 6.8769 24.2617 3.3669 21.7117 0.9369C21.0917 0.3369 20.2417 -0.0031 19.3217 -0.0031H6.4417C5.5117 -0.0031 4.6017 0.3669 3.9517 1.0169C1.4717 3.4369 0.0017 6.9169 0.0017 10.3369C0.0017 13.7969 1.5017 17.3069 4.0417 19.7369C4.6717 20.3369 5.5317 20.6569 6.4417 20.6569ZM7.7317 15.2669C7.0817 15.2669 6.5717 14.7669 6.5717 14.0969V6.6769C6.5717 6.0269 7.0817 5.4869 7.7317 5.4869C8.4017 5.4869 8.9317 6.0269 8.9317 6.6769V14.0969C8.9317 14.7669 8.4017 15.2669 7.7317 15.2669ZM18.0117 15.2669C17.3517 15.2669 16.8417 14.7469 16.8417 14.0769V6.6869C16.8417 6.0369 17.3517 5.4869 18.0117 5.4869C18.6817 5.4869 19.1917 6.0269 19.1917 6.6869V14.0769C19.1917 14.7469 18.6817 15.2669 18.0117 15.2669Z" />
        </svg>
    