
        <svg xmlns="http://www.w3.org/2000/svg" viewBox="0 0 100 100">
            <path d="M3.1617 20.742H17.5917C19.6617 20.742 20.7417 19.642 20.7417 17.592V3.152C20.7417 1.102 19.6617 0.002 17.5917 0.002H3.1617C1.0917 0.002 0.0017 1.082 0.0017 3.152V17.592C0.0017 19.662 1.0917 20.742 3.1617 20.742ZM3.1917 19.872C1.6617 19.872 0.8717 19.082 0.8717 17.552V3.202C0.8717 1.662 1.6617 0.872 3.1917 0.872H17.5517C19.0317 0.872 19.8717 1.662 19.8717 3.202V17.552C19.8717 19.082 19.0317 19.872 17.5517 19.872ZM6.2717 7.012C5.8917 7.012 5.6717 7.162 5.4517 7.422L3.1417 9.892C2.9017 10.162 2.8917 10.562 3.1317 10.832L5.4517 13.322C5.6717 13.572 5.9217 13.722 6.2717 13.722H14.4817C14.8217 13.722 15.0717 13.572 15.2917 13.322L17.6117 10.832C17.8517 10.562 17.8317 10.162 17.6017 9.892L15.2917 7.422C15.0717 7.162 14.8517 7.012 14.4817 7.012ZM6.2917 9.422C6.8217 9.422 7.2417 9.842 7.2417 10.372C7.2417 10.882 6.8217 11.322 6.2917 11.322C5.7817 11.322 5.3417 10.882 5.3417 10.372C5.3417 9.842 5.7817 9.422 6.2917 9.422ZM14.4517 9.422C14.9717 9.422 15.4017 9.842 15.4017 10.372C15.4017 10.882 14.9717 11.322 14.4517 11.322C13.9217 11.322 13.5017 10.882 13.5017 10.372C13.5017 9.842 13.9217 9.422 14.4517 9.422ZM10.3717 10.192C10.9017 10.192 11.3217 10.632 11.3217 11.142C11.3217 11.672 10.9017 12.092 10.3717 12.092C9.8517 12.092 9.4217 11.672 9.4217 11.142C9.4217 10.632 9.8517 10.192 10.3717 10.192Z" />
        </svg>
    