
        <svg xmlns="http://www.w3.org/2000/svg" viewBox="0 0 100 100">
            <path d="M0.0017 20.0405H9.6817C12.4217 20.0405 14.1917 18.3405 14.1917 15.9605C14.1917 13.5705 12.4217 11.8505 9.6817 11.8505H4.3817C2.8117 11.8505 1.8917 10.9205 1.8917 9.6205C1.8917 8.3305 2.8317 7.4305 4.3817 7.4305H9.5317V8.2105C9.5317 9.2605 10.3217 10.0005 11.4517 10.0005H14.1017C14.7617 10.0005 14.8917 10.0905 15.3917 10.6505C16.6517 12.2205 18.3517 13.0005 20.1917 13.0005H22.9417C23.5117 13.0005 23.8717 12.6305 23.8717 12.0805V10.0805H27.4117C28.0317 10.0805 28.5217 9.5705 28.5217 8.9605C28.5217 8.3305 28.0317 7.8405 27.4117 7.8405H23.8717V5.1405H27.4117C28.0317 5.1405 28.5217 4.6605 28.5217 4.0305C28.5217 3.4105 28.0317 2.9205 27.4117 2.9205H23.8717V0.9005C23.8717 0.3605 23.5117 0.0005 22.9417 0.0005H20.1917C18.3417 0.0005 16.6417 0.7605 15.3917 2.3205C14.8917 2.9105 14.7617 3.0005 14.1017 3.0005H11.4517C10.3217 3.0005 9.5317 3.7305 9.5317 4.7805V5.5405H4.5117C1.7617 5.5405 0.0017 7.2405 0.0017 9.6205C0.0017 12.0105 1.7617 13.7305 4.5117 13.7305H9.8117C11.3817 13.7305 12.3017 14.6605 12.3017 15.9605C12.3017 17.2505 11.3517 18.1505 9.8117 18.1505H0.0017Z" />
        </svg>
    