
        <svg xmlns="http://www.w3.org/2000/svg" viewBox="0 0 100 100">
            <path d="M11.3523 22.7064C17.6323 22.7064 22.7123 17.6264 22.7123 11.3564C22.7123 5.0764 17.6323 -0.0036 11.3523 -0.0036C5.0823 -0.0036 0.0023 5.0764 0.0023 11.3564C0.0023 17.6264 5.0823 22.7064 11.3523 22.7064ZM11.3523 22.1364C5.3923 22.1364 0.5723 17.3164 0.5723 11.3564C0.5723 5.3864 5.3923 0.5764 11.3523 0.5764C17.3223 0.5764 22.1323 5.3864 22.1323 11.3564C22.1323 17.3164 17.3223 22.1364 11.3523 22.1364ZM6.0723 13.4364C7.2223 13.4364 8.1523 12.5064 8.1523 11.3564C8.1523 10.2064 7.2223 9.2564 6.0723 9.2564C4.9223 9.2564 3.9723 10.2064 3.9723 11.3564C3.9723 12.5064 4.9223 13.4364 6.0723 13.4364ZM16.6523 13.4364C17.8023 13.4364 18.7423 12.5064 18.7423 11.3564C18.7423 10.2064 17.8023 9.2564 16.6523 9.2564C15.4923 9.2564 14.5523 10.2064 14.5523 11.3564C14.5523 12.5064 15.4923 13.4364 16.6523 13.4364Z" />
        </svg>
    