
        <svg xmlns="http://www.w3.org/2000/svg" viewBox="0 0 100 100">
            <path d="M12.7923 25.5978C19.8723 25.5978 25.6023 19.8678 25.6023 12.7978C25.6023 5.7278 19.8723 -0.0022 12.7923 -0.0022C5.7323 -0.0022 0.0023 5.7278 0.0023 12.7978C0.0023 19.8678 5.7323 25.5978 12.7923 25.5978ZM12.7923 9.3378C11.7323 9.3378 10.8623 8.4578 10.8623 7.3978C10.8623 6.3278 11.7323 5.4578 12.7923 5.4578C13.8723 5.4578 14.7423 6.3278 14.7423 7.3978C14.7423 8.4578 13.8723 9.3378 12.7923 9.3378ZM7.6623 15.6278C6.2323 15.6278 5.0623 14.4578 5.0623 13.0178C5.0623 11.5978 6.2323 10.4178 7.6623 10.4178C9.1023 10.4178 10.2823 11.5978 10.2823 13.0178C10.2823 14.4578 9.1023 15.6278 7.6623 15.6278ZM17.9223 15.6278C16.4723 15.6278 15.3023 14.4578 15.3023 13.0178C15.3023 11.5978 16.4723 10.4178 17.9223 10.4178C19.3623 10.4178 20.5223 11.5978 20.5223 13.0178C20.5223 14.4578 19.3623 15.6278 17.9223 15.6278Z" />
        </svg>
    