
        <svg xmlns="http://www.w3.org/2000/svg" viewBox="0 0 100 100">
            <path d="M9.6694 -0.0033C7.6494 -0.0033 6.3994 0.9067 4.8894 2.4267L1.2294 6.0667C-0.4206 7.7067 -0.4006 10.5067 1.2294 12.1867L4.8594 15.9067C6.2694 17.3367 7.7694 18.3267 9.6694 18.3267H22.7594C24.6594 18.3267 26.1694 17.3367 27.5694 15.9067L31.2094 12.1867C32.8394 10.4967 32.8594 7.7067 31.2094 6.0667L27.5394 2.4267C26.0294 0.9067 24.7694 -0.0033 22.7594 -0.0033ZM9.6694 3.8867H22.7594C23.6094 3.8867 23.7894 4.1167 24.4894 4.8067L28.1394 8.4467C28.5494 8.8467 28.5394 9.3967 28.1294 9.8167L24.4794 13.5067C23.8994 14.0967 23.4694 14.4367 22.7594 14.4367H9.6694C8.9494 14.4367 8.5394 14.0967 7.9594 13.5067L4.3094 9.8167C3.8894 9.3967 3.8794 8.8467 4.2894 8.4467L7.9494 4.8067C8.6494 4.1167 8.8194 3.8867 9.6694 3.8867ZM9.6194 7.2567C8.4694 7.2567 7.5394 8.1867 7.5394 9.3367C7.5394 10.4867 8.4694 11.4267 9.6194 11.4267C10.7694 11.4267 11.7094 10.4867 11.7094 9.3367C11.7094 8.1867 10.7694 7.2567 9.6194 7.2567ZM22.8194 7.2567C21.6694 7.2567 20.7194 8.1867 20.7194 9.3367C20.7194 10.4867 21.6694 11.4267 22.8194 11.4267C23.9494 11.4267 24.8994 10.4867 24.8994 9.3367C24.8994 8.1867 23.9494 7.2567 22.8194 7.2567ZM16.2194 8.6367C15.0694 8.6367 14.1294 9.5767 14.1294 10.7267C14.1294 11.8667 15.0694 12.8067 16.2194 12.8067C17.3694 12.8067 18.3094 11.8667 18.3094 10.7267C18.3094 9.5767 17.3694 8.6367 16.2194 8.6367Z" />
        </svg>
    