
        <svg xmlns="http://www.w3.org/2000/svg" viewBox="0 0 100 100">
            <path d="M4.3817 22.855H19.3117C22.1017 22.855 23.6917 21.265 23.6917 18.485V4.375C23.6917 1.585 22.1017 -0.005 19.3117 -0.005H4.3817C1.5917 -0.005 0.0017 1.585 0.0017 4.375V18.485C0.0017 21.265 1.5917 22.855 4.3817 22.855ZM11.8517 10.345C10.7117 10.345 9.8017 9.445 9.8017 8.295C9.8017 7.175 10.7117 6.255 11.8517 6.255C12.9717 6.255 13.8917 7.175 13.8917 8.295C13.8917 9.445 12.9717 10.345 11.8517 10.345ZM7.9817 16.575C6.8517 16.575 5.9317 15.655 5.9317 14.515C5.9317 13.385 6.8517 12.485 7.9817 12.485C9.1317 12.485 10.0317 13.385 10.0317 14.515C10.0317 15.655 9.1317 16.575 7.9817 16.575ZM15.7117 16.575C14.5617 16.575 13.6617 15.655 13.6617 14.515C13.6617 13.385 14.5617 12.485 15.7117 12.485C16.8417 12.485 17.7517 13.385 17.7517 14.515C17.7517 15.655 16.8417 16.575 15.7117 16.575Z" />
        </svg>
    