
        <svg xmlns="http://www.w3.org/2000/svg" viewBox="0 0 100 100">
            <path d="M3.4917 21.7628H4.7217V23.0028C4.7217 24.5628 5.4717 25.2428 6.9617 25.2428H19.5117C21.0017 25.2428 21.7517 24.5628 21.7517 23.0028V21.7628H22.9917C25.2617 21.7628 26.4717 20.6128 26.4717 18.3328V7.3628C26.4717 5.0828 25.2617 3.9228 22.9917 3.9228H21.8317V3.3028C21.8317 1.0228 20.6917 0.0028 18.5117 0.0028H7.9617C5.8917 0.0028 4.6417 1.0228 4.6417 3.3028V3.9228H3.4917C1.3217 3.9228 0.0017 5.0828 0.0017 7.3628V18.3328C0.0017 20.6128 1.2117 21.7628 3.4917 21.7628ZM6.4617 3.1728C6.4617 2.1928 6.9617 1.7128 7.9317 1.7128H18.5417C19.5217 1.7128 20.0117 2.1928 20.0117 3.1728V3.9228H6.4617ZM19.5117 11.2028H6.9617C5.5417 11.2028 4.7217 11.8828 4.7217 13.4428V19.9928H3.4717C2.4217 19.9928 1.9017 19.4528 1.9017 18.4228V7.2628C1.9017 6.2328 2.4217 5.6928 3.4717 5.6928H23.0117C24.0517 5.6928 24.5817 6.2328 24.5817 7.2628V18.4228C24.5817 19.4528 24.0517 19.9928 23.0117 19.9928H21.7517V13.4428C21.7517 11.8828 21.0017 11.2028 19.5117 11.2028ZM18.9117 8.4728C18.9117 9.2928 19.5817 9.9328 20.3917 9.9328C21.1617 9.9228 21.8417 9.2928 21.8417 8.4728C21.8417 7.7028 21.1617 7.0228 20.3917 7.0228C19.5817 7.0228 18.9117 7.7028 18.9117 8.4728ZM9.3717 15.9828C8.7917 15.9828 8.2817 15.5028 8.2817 14.8928C8.2817 14.2828 8.7917 13.8128 9.3717 13.8128C9.9817 13.8128 10.4717 14.2828 10.4717 14.8928C10.4717 15.5028 9.9817 15.9828 9.3717 15.9828ZM17.1117 15.9828C16.5017 15.9828 16.0217 15.5028 16.0217 14.8928C16.0217 14.2828 16.5017 13.8128 17.1117 13.8128C17.7117 13.8128 18.2017 14.2828 18.2017 14.8928C18.2017 15.5028 17.7117 15.9828 17.1117 15.9828ZM9.3717 19.3028C8.7917 19.3028 8.2817 18.8328 8.2817 18.2228C8.2817 17.6128 8.7917 17.1328 9.3717 17.1328C9.9817 17.1328 10.4717 17.6128 10.4717 18.2228C10.4717 18.8328 9.9817 19.3028 9.3717 19.3028ZM17.1117 19.3028C16.5017 19.3028 16.0217 18.8328 16.0217 18.2228C16.0217 17.6128 16.5017 17.1328 17.1117 17.1328C17.7117 17.1328 18.2017 17.6128 18.2017 18.2228C18.2017 18.8328 17.7117 19.3028 17.1117 19.3028ZM9.3717 22.6328C8.7917 22.6328 8.2817 22.1628 8.2817 21.5428C8.2817 20.9428 8.7917 20.4628 9.3717 20.4628C9.9817 20.4628 10.4717 20.9428 10.4717 21.5428C10.4717 22.1628 9.9817 22.6328 9.3717 22.6328ZM17.1117 22.6328C16.5017 22.6328 16.0217 22.1628 16.0217 21.5428C16.0217 20.9428 16.5017 20.4628 17.1117 20.4628C17.7117 20.4628 18.2017 20.9428 18.2017 21.5428C18.2017 22.1628 17.7117 22.6328 17.1117 22.6328Z" />
        </svg>
    