
        <svg xmlns="http://www.w3.org/2000/svg" viewBox="0 0 100 100">
            <path d="M4.5917 2.8633H21.2317V2.4933C21.2317 0.7733 20.0817 0.0033 18.2417 0.0033H7.5717C5.8017 0.0033 4.5917 0.7733 4.5917 2.4933ZM6.6817 24.6933H19.1417C20.7117 24.6933 21.4717 23.9933 21.4717 22.3733V20.5033H22.5717C24.7017 20.5033 25.8117 19.4433 25.8117 17.2933V7.3433C25.8117 5.2133 24.7017 4.1533 22.5717 4.1533H3.2417C1.1917 4.1533 0.0017 5.2133 0.0017 7.3433V17.2933C0.0017 19.4433 1.1117 20.5033 3.2417 20.5033H4.3617V22.3733C4.3617 23.9933 5.1217 24.6933 6.6817 24.6933ZM18.4817 7.7833C18.4817 7.0233 19.1517 6.3433 19.9317 6.3433C20.7117 6.3433 21.3717 7.0233 21.3717 7.7833C21.3717 8.5733 20.7117 9.2333 19.9317 9.2233C19.1517 9.2233 18.4817 8.6033 18.4817 7.7833ZM7.3017 23.3233C6.4217 23.3233 6.0517 22.9533 6.0517 22.0633V13.2433C6.0517 12.3633 6.4317 11.9833 7.3117 11.9833H18.5117C19.3917 11.9833 19.7717 12.3633 19.7717 13.2433V22.0633C19.7717 22.9533 19.4017 23.3233 18.5317 23.3233ZM8.9717 15.3033C9.5417 15.3033 9.9917 14.8633 9.9917 14.2933C9.9917 13.7333 9.5417 13.3033 8.9717 13.3033C8.4417 13.3033 7.9817 13.7333 7.9817 14.2933C7.9817 14.8633 8.4417 15.3033 8.9717 15.3033ZM16.8617 15.3033C17.4217 15.3033 17.8717 14.8633 17.8717 14.2933C17.8717 13.7333 17.4217 13.3033 16.8617 13.3033C16.3117 13.3033 15.8717 13.7333 15.8717 14.2933C15.8717 14.8633 16.3117 15.3033 16.8617 15.3033ZM8.9717 18.7233C9.5417 18.7233 9.9917 18.2933 9.9917 17.7333C9.9917 17.1633 9.5417 16.7333 8.9717 16.7333C8.4417 16.7333 7.9817 17.1633 7.9817 17.7333C7.9817 18.2933 8.4417 18.7233 8.9717 18.7233ZM16.8617 18.7233C17.4217 18.7233 17.8717 18.2933 17.8717 17.7333C17.8717 17.1633 17.4217 16.7333 16.8617 16.7333C16.3117 16.7333 15.8717 17.1633 15.8717 17.7333C15.8717 18.2933 16.3117 18.7233 16.8617 18.7233ZM8.9717 22.1633C9.5417 22.1633 9.9917 21.7133 9.9917 21.1533C9.9917 20.5933 9.5417 20.1533 8.9717 20.1533C8.4417 20.1533 7.9817 20.5933 7.9817 21.1533C7.9817 21.7133 8.4417 22.1633 8.9717 22.1633ZM16.8617 22.1633C17.4217 22.1633 17.8717 21.7133 17.8717 21.1533C17.8717 20.5933 17.4217 20.1533 16.8617 20.1533C16.3117 20.1533 15.8717 20.5933 15.8717 21.1533C15.8717 21.7133 16.3117 22.1633 16.8617 22.1633Z" />
        </svg>
    