
        <svg xmlns="http://www.w3.org/2000/svg" viewBox="0 0 100 100">
            <path d="M3.4917 21.7628H4.7217V23.0028C4.7217 24.5628 5.4717 25.2428 6.9617 25.2428H19.5117C21.0017 25.2428 21.7517 24.5628 21.7517 23.0028V21.7628H22.9917C25.2617 21.7628 26.4717 20.6128 26.4717 18.3328V7.3628C26.4717 5.0828 25.2617 3.9228 22.9917 3.9228H21.8317V3.3028C21.8317 1.0228 20.6917 0.0028 18.5117 0.0028H7.9617C5.8917 0.0028 4.6417 1.0228 4.6417 3.3028V3.9228H3.4917C1.3217 3.9228 0.0017 5.0828 0.0017 7.3628V18.3328C0.0017 20.6128 1.2117 21.7628 3.4917 21.7628ZM6.4617 3.1728C6.4617 2.1928 6.9617 1.7128 7.9317 1.7128H18.5417C19.5217 1.7128 20.0117 2.1928 20.0117 3.1728V3.9228H6.4617ZM19.5117 11.2028H6.9617C5.5417 11.2028 4.7217 11.8828 4.7217 13.4428V19.9928H3.4717C2.4217 19.9928 1.9017 19.4528 1.9017 18.4228V7.2628C1.9017 6.2328 2.4217 5.6928 3.4717 5.6928H23.0117C24.0517 5.6928 24.5817 6.2328 24.5817 7.2628V18.4228C24.5817 19.4528 24.0517 19.9928 23.0117 19.9928H21.7517V13.4428C21.7517 11.8828 21.0017 11.2028 19.5117 11.2028ZM18.9117 8.4728C18.9117 9.2928 19.5917 9.9328 20.3917 9.9328C21.1717 9.9328 21.8417 9.2928 21.8417 8.4728C21.8417 7.7028 21.1717 7.0228 20.3917 7.0228C19.5917 7.0228 18.9117 7.7028 18.9117 8.4728ZM8.9417 16.6328C8.4917 16.6328 8.1717 16.3028 8.1717 15.8828C8.1717 15.4428 8.4917 15.1328 8.9417 15.1328H17.5617C18.0017 15.1328 18.3117 15.4428 18.3117 15.8828C18.3117 16.3028 18.0017 16.6328 17.5617 16.6328ZM8.9417 21.3128C8.4917 21.3128 8.1717 20.9928 8.1717 20.5628C8.1717 20.1428 8.4917 19.8128 8.9417 19.8128H17.5617C18.0017 19.8128 18.3117 20.1428 18.3117 20.5628C18.3117 20.9928 18.0017 21.3128 17.5617 21.3128Z" />
        </svg>
    