
        <svg xmlns="http://www.w3.org/2000/svg" viewBox="0 0 100 100">
            <path d="M4.5917 2.8633H21.2317V2.4933C21.2317 0.7733 20.0817 0.0033 18.2417 0.0033H7.5717C5.8017 0.0033 4.5917 0.7733 4.5917 2.4933ZM3.2417 20.5033H3.7017V13.5733C3.7017 11.9533 4.7117 10.9333 6.3417 10.9333H19.5017C21.1217 10.9333 22.1417 11.9533 22.1417 13.5733V20.5033H22.5717C24.7017 20.5033 25.8117 19.4433 25.8117 17.2933V7.3433C25.8117 5.2133 24.7017 4.1533 22.5717 4.1533H3.2417C1.1917 4.1533 0.0017 5.2133 0.0017 7.3433V17.2933C0.0017 19.4433 1.1117 20.5033 3.2417 20.5033ZM18.4817 7.7833C18.4817 7.0233 19.1517 6.3433 19.9317 6.3433C20.7117 6.3433 21.3717 7.0233 21.3717 7.7833C21.3717 8.5733 20.7117 9.2333 19.9317 9.2233C19.1517 9.2233 18.4817 8.6033 18.4817 7.7833ZM5.0617 23.1233C5.0617 24.0733 5.6917 24.6933 6.6417 24.6933H19.1917C20.1417 24.6933 20.7817 24.0733 20.7817 23.1233V13.5733C20.7817 12.8133 20.2617 12.3033 19.5017 12.3033H6.3417C5.5617 12.3033 5.0617 12.8133 5.0617 13.5733ZM8.7317 17.0033C8.3817 17.0033 8.1217 16.7333 8.1217 16.3933C8.1217 16.0633 8.3817 15.8133 8.7317 15.8133H17.1217C17.4617 15.8133 17.7217 16.0633 17.7217 16.3933C17.7217 16.7333 17.4617 17.0033 17.1217 17.0033ZM8.7317 21.1833C8.3817 21.1833 8.1217 20.9333 8.1217 20.6033C8.1217 20.2633 8.3817 19.9933 8.7317 19.9933H17.1217C17.4617 19.9933 17.7217 20.2633 17.7217 20.6033C17.7217 20.9333 17.4617 21.1833 17.1217 21.1833Z" />
        </svg>
    