
        <svg xmlns="http://www.w3.org/2000/svg" viewBox="0 0 100 100">
            <path d="M4.7417 2.7655H21.8217V2.5855C21.8217 0.8355 20.3917 -0.0045 18.4317 -0.0045H8.1317C6.2417 -0.0045 4.7417 0.8355 4.7417 2.5855ZM6.9617 25.5955H19.6017C21.2617 25.5955 22.0917 24.8455 22.0917 23.1255V21.1055H22.9117C25.2817 21.1055 26.5617 19.8655 26.5617 17.4855V8.0555C26.5617 5.6855 25.2817 4.4455 22.9117 4.4455H3.6517C1.3817 4.4455 0.0017 5.6855 0.0017 8.0555V17.4855C0.0017 19.8655 1.2917 21.1055 3.6517 21.1055H4.4717V23.1255C4.4717 24.8455 5.3117 25.5955 6.9617 25.5955ZM18.9017 8.5155C18.9017 7.6955 19.6017 6.9955 20.4417 6.9955C21.2617 6.9955 21.9617 7.6955 21.9617 8.5155C21.9617 9.3655 21.2617 10.0355 20.4417 10.0455C19.6017 10.0455 18.9017 9.3655 18.9017 8.5155ZM7.7417 23.5755C7.1817 23.5755 6.9017 23.3055 6.9017 22.7355V14.2155C6.9017 13.6555 7.1817 13.3755 7.7617 13.3755H18.8217C19.3817 13.3755 19.6617 13.6555 19.6617 14.2155V22.7355C19.6617 23.3055 19.3917 23.5755 18.8217 23.5755ZM9.7217 16.4455C10.3217 16.4455 10.8117 15.9755 10.8117 15.3755C10.8117 14.7755 10.3217 14.3055 9.7217 14.3055C9.1417 14.3055 8.6617 14.7755 8.6617 15.3755C8.6617 15.9755 9.1417 16.4455 9.7217 16.4455ZM16.8517 16.4455C17.4517 16.4455 17.9317 15.9755 17.9317 15.3755C17.9317 14.7755 17.4517 14.3055 16.8517 14.3055C16.2617 14.3055 15.7817 14.7755 15.7817 15.3755C15.7817 15.9755 16.2617 16.4455 16.8517 16.4455ZM9.7217 19.5655C10.3217 19.5655 10.8117 19.1055 10.8117 18.5055C10.8117 17.9055 10.3217 17.4355 9.7217 17.4355C9.1417 17.4355 8.6617 17.9055 8.6617 18.5055C8.6617 19.1055 9.1417 19.5655 9.7217 19.5655ZM16.8517 19.5655C17.4517 19.5655 17.9317 19.1055 17.9317 18.5055C17.9317 17.9055 17.4517 17.4355 16.8517 17.4355C16.2617 17.4355 15.7817 17.9055 15.7817 18.5055C15.7817 19.1155 16.2617 19.5655 16.8517 19.5655ZM9.7217 22.6955C10.3217 22.6955 10.8117 22.2355 10.8117 21.6355C10.8117 21.0355 10.3217 20.5655 9.7217 20.5655C9.1417 20.5655 8.6617 21.0355 8.6617 21.6355C8.6617 22.2355 9.1417 22.6955 9.7217 22.6955ZM16.8517 22.6955C17.4517 22.6955 17.9317 22.2355 17.9317 21.6355C17.9317 21.0355 17.4517 20.5655 16.8517 20.5655C16.2617 20.5655 15.7817 21.0355 15.7817 21.6355C15.7817 22.2355 16.2617 22.6955 16.8517 22.6955Z" />
        </svg>
    