
        <svg xmlns="http://www.w3.org/2000/svg" viewBox="0 0 100 100">
            <path d="M4.4917 3.1431H20.3217V2.4631C20.3217 0.7431 19.5517 0.0031 17.8517 0.0031H6.9517C5.2517 0.0031 4.4917 0.7431 4.4917 2.4631ZM6.9717 23.7231H17.8217C19.5517 23.7231 20.3317 22.9731 20.3317 21.2431V20.1431H22.0317C23.8817 20.1431 24.8017 19.2531 24.8017 17.3931V6.6331C24.8017 4.7731 23.8817 3.8831 22.0317 3.8831H2.7617C0.9217 3.8831 0.0017 4.7731 0.0017 6.6331V17.3931C0.0017 19.2531 0.9217 20.1431 2.7617 20.1431H4.4717V21.2431C4.4717 22.9731 5.2517 23.7231 6.9717 23.7231ZM17.6917 7.0631C17.6917 6.3731 18.3017 5.7531 19.0417 5.7531C19.7217 5.7531 20.3317 6.3731 20.3317 7.0631C20.3317 7.7831 19.7217 8.4131 19.0417 8.3831C18.3017 8.3431 17.6917 7.8231 17.6917 7.0631ZM6.9617 23.1531C5.5617 23.1531 5.0717 22.6531 5.0717 21.2531V12.1831C5.0717 10.7931 5.5917 10.2631 6.9717 10.2631H17.8217C19.2217 10.2631 19.7217 10.7931 19.7217 12.1831V21.2531C19.7217 22.6531 19.2317 23.1531 17.8317 23.1531ZM8.1017 13.9431C8.6017 13.9431 9.0117 13.5631 9.0117 13.0431C9.0117 12.5431 8.6017 12.1531 8.1017 12.1531C7.6017 12.1531 7.2117 12.5431 7.2117 13.0431C7.2117 13.5631 7.6017 13.9431 8.1017 13.9431ZM16.7417 13.9431C17.2617 13.9431 17.6617 13.5631 17.6617 13.0431C17.6617 12.5431 17.2617 12.1531 16.7417 12.1531C16.2517 12.1531 15.8517 12.5431 15.8517 13.0431C15.8517 13.5631 16.2517 13.9431 16.7417 13.9431ZM8.1017 17.7631C8.6017 17.7631 9.0117 17.3831 9.0117 16.8731C9.0117 16.3731 8.6017 15.9831 8.1017 15.9831C7.6017 15.9831 7.2117 16.3731 7.2117 16.8731C7.2117 17.3831 7.6017 17.7631 8.1017 17.7631ZM16.7417 17.7631C17.2617 17.7631 17.6617 17.3831 17.6617 16.8731C17.6617 16.3731 17.2617 15.9831 16.7417 15.9831C16.2517 15.9831 15.8517 16.3731 15.8517 16.8731C15.8517 17.3831 16.2517 17.7631 16.7417 17.7631ZM8.1017 21.5931C8.6017 21.5931 9.0117 21.2131 9.0117 20.6931C9.0117 20.1931 8.6017 19.8031 8.1017 19.8031C7.6017 19.8031 7.2117 20.1931 7.2117 20.6931C7.2117 21.2131 7.6017 21.5931 8.1017 21.5931ZM16.7417 21.5931C17.2617 21.5931 17.6617 21.2131 17.6617 20.6931C17.6617 20.1931 17.2617 19.8031 16.7417 19.8031C16.2517 19.8031 15.8517 20.1931 15.8517 20.6931C15.8517 21.2131 16.2517 21.5931 16.7417 21.5931Z" />
        </svg>
    