
        <svg xmlns="http://www.w3.org/2000/svg" viewBox="0 0 100 100">
            <path d="M4.6417 2.7025H21.6917V2.5125C21.6917 0.7725 20.3417 0.0025 18.4417 0.0025H7.8917C6.0717 0.0025 4.6417 0.7725 4.6417 2.5125ZM3.4817 20.6825H3.7517V14.1825C3.7517 12.5025 4.7817 11.4725 6.4617 11.4725H19.8717C21.5517 11.4725 22.5817 12.5025 22.5817 14.1825V20.6825H22.8417C25.1217 20.6825 26.3317 19.5325 26.3317 17.2525V7.7125C26.3317 5.4225 25.1217 4.2625 22.8417 4.2625H3.4817C1.3217 4.2625 0.0017 5.4225 0.0017 7.7125V17.2525C0.0017 19.5325 1.2117 20.6825 3.4817 20.6825ZM18.8717 8.1425C18.8717 7.3325 19.5617 6.6325 20.3917 6.6325C21.1917 6.6325 21.8917 7.3325 21.8917 8.1425C21.8917 8.9725 21.1917 9.6325 20.3917 9.6425C19.5617 9.6425 18.8717 8.9925 18.8717 8.1425ZM5.3517 23.5925C5.3517 24.5425 5.9917 25.1725 6.9217 25.1725H19.4017C20.3517 25.1725 20.9717 24.5425 20.9717 23.5925V14.1825C20.9717 13.5125 20.5417 13.0825 19.8717 13.0825H6.4617C5.8017 13.0825 5.3517 13.5125 5.3517 14.1825ZM9.3517 17.7725C8.9217 17.7725 8.5917 17.4325 8.5917 17.0025C8.5917 16.5925 8.9217 16.2725 9.3517 16.2725H17.0017C17.4417 16.2725 17.7517 16.5925 17.7517 17.0025C17.7517 17.4325 17.4417 17.7725 17.0017 17.7725ZM9.3517 21.9725C8.9217 21.9725 8.5917 21.6425 8.5917 21.2325C8.5917 20.8025 8.9217 20.4725 9.3517 20.4725H17.0017C17.4417 20.4725 17.7517 20.8025 17.7517 21.2325C17.7517 21.6425 17.4417 21.9725 17.0017 21.9725Z" />
        </svg>
    