
        <svg xmlns="http://www.w3.org/2000/svg" viewBox="0 0 100 100">
            <path d="M4.5217 3.0437H20.6217V2.4737C20.6217 0.7538 19.7317 0.0038 17.9917 0.0038H7.1617C5.4417 0.0038 4.5217 0.7538 4.5217 2.4737ZM6.8817 24.0438H18.2717C19.9317 24.0438 20.7117 23.3238 20.7117 21.6338V20.2738H22.2217C24.1617 20.2738 25.1517 19.3238 25.1517 17.3638V6.8837C25.1517 4.9238 24.1617 3.9737 22.2217 3.9737H2.9317C1.0117 3.9737 0.0017 4.9238 0.0017 6.8837V17.3638C0.0017 19.3238 0.9817 20.2738 2.9317 20.2738H4.4317V21.6338C4.4317 23.3238 5.2017 24.0438 6.8817 24.0438ZM17.9617 7.3138C17.9617 6.5938 18.5817 5.9537 19.3517 5.9537C20.0517 5.9537 20.6817 6.5938 20.6817 7.3138C20.6817 8.0538 20.0517 8.6838 19.3517 8.6738C18.5817 8.6438 17.9617 8.0838 17.9617 7.3138ZM7.0117 23.2138C5.7917 23.2138 5.3317 22.7538 5.3317 21.5238V12.5538C5.3317 11.3338 5.8017 10.8538 7.0217 10.8538H18.1317C19.3517 10.8538 19.8117 11.3338 19.8117 12.5538V21.5238C19.8117 22.7538 19.3617 23.2138 18.1517 23.2138ZM7.8417 15.4838H17.3117C17.5317 15.4838 17.7117 15.3038 17.7117 15.0938C17.7117 14.8838 17.5317 14.7038 17.3117 14.7038H7.8417C7.6217 14.7038 7.4417 14.8838 7.4417 15.0938C7.4417 15.3038 7.6217 15.4838 7.8417 15.4838ZM7.8417 19.6338H17.3117C17.5317 19.6338 17.7117 19.4538 17.7117 19.2438C17.7117 19.0238 17.5317 18.8438 17.3117 18.8438H7.8417C7.6217 18.8438 7.4417 19.0238 7.4417 19.2438C7.4417 19.4538 7.6217 19.6338 7.8417 19.6338Z" />
        </svg>
    