
        <svg xmlns="http://www.w3.org/2000/svg" viewBox="0 0 100 100">
            <path d="M4.2817 23.3411H5.4117V24.0511C5.4117 26.2811 6.4617 27.3211 8.6817 27.3211H19.1017C21.3117 27.3211 22.3717 26.2811 22.3717 24.0511V23.3411H23.4917C26.2217 23.3411 27.7817 21.8111 27.7817 19.0811V8.8911C27.7817 6.1611 26.2217 4.6311 23.4917 4.6311H22.6717V3.9711C22.6717 1.2911 21.3517 0.0011 18.6917 0.0011H9.0817C6.4717 0.0011 5.1017 1.2911 5.1017 3.9711V4.6311H4.2817C1.5817 4.6311 0.0017 6.1611 0.0017 8.8911V19.0811C0.0017 21.8111 1.5517 23.3411 4.2817 23.3411ZM8.2817 3.7011C8.2817 3.1411 8.6017 2.8311 9.1517 2.8311H18.6317C19.1817 2.8311 19.5017 3.1411 19.5017 3.7011V4.6311H8.2817ZM19.1017 12.5811H8.6817C6.4817 12.5811 5.4117 13.6211 5.4117 15.8711V20.2811H4.3517C3.6117 20.2811 3.2117 19.8911 3.2117 19.1411V8.8511C3.2117 8.1111 3.6117 7.7011 4.3517 7.7011H23.4417C24.1717 7.7011 24.5717 8.1111 24.5717 8.8511V19.1411C24.5717 19.8911 24.1717 20.2811 23.4417 20.2811H22.3717V15.8711C22.3717 13.6211 21.3117 12.5811 19.1017 12.5811ZM19.1717 10.2311C19.1717 11.0511 19.8317 11.6811 20.6417 11.6811C21.4317 11.6811 22.0917 11.0411 22.0917 10.2311C22.0917 9.4411 21.4317 8.7811 20.6417 8.7811C19.8317 8.7811 19.1717 9.4411 19.1717 10.2311ZM10.1817 18.7511C9.5517 18.7511 9.0717 18.2611 9.0717 17.6411C9.0717 17.0311 9.5417 16.5511 10.1817 16.5511H17.6217C18.2617 16.5511 18.7217 17.0311 18.7217 17.6411C18.7217 18.2611 18.2617 18.7511 17.6217 18.7511ZM10.1817 23.4111C9.5417 23.4111 9.0717 22.9411 9.0717 22.3311C9.0717 21.7111 9.5517 21.2211 10.1817 21.2211H17.6217C18.2617 21.2211 18.7217 21.7111 18.7217 22.3311C18.7217 22.9411 18.2617 23.4111 17.6217 23.4111Z" />
        </svg>
    