
        <svg xmlns="http://www.w3.org/2000/svg" viewBox="0 0 100 100">
            <path d="M2.9417 20.7633H4.5317V21.9033C4.5317 23.5933 5.3117 24.3233 6.9817 24.3233H18.2217C19.8917 24.3233 20.6617 23.5933 20.6617 21.9033V20.7633H22.2517C24.2117 20.7633 25.2117 19.8033 25.2117 17.8433V6.8233C25.2117 4.8633 24.2117 3.9033 22.2517 3.9033H20.6817V2.6633C20.6817 0.8233 19.8317 0.0033 18.0117 0.0033H7.1917C5.4017 0.0033 4.5217 0.8233 4.5217 2.6633V3.9033H2.9417C1.0117 3.9033 0.0017 4.8633 0.0017 6.8233V17.8433C0.0017 19.8033 0.9817 20.7633 2.9417 20.7633ZM5.4017 2.6333C5.4017 1.3433 5.8917 0.8433 7.1817 0.8433H18.0117C19.3117 0.8433 19.8017 1.3433 19.8017 2.6333V3.9033H5.4017ZM18.2217 10.5333H6.9817C5.3217 10.5333 4.5317 11.2833 4.5317 12.9733V19.9233H2.9417C1.5117 19.9233 0.8917 19.2933 0.8917 17.8733V6.8133C0.8917 5.3833 1.5117 4.7433 2.9417 4.7433H22.2617C23.6817 4.7433 24.3017 5.3833 24.3017 6.8133V17.8733C24.3017 19.2933 23.6817 19.9233 22.2617 19.9233H20.6617V12.9733C20.6617 11.2833 19.8917 10.5333 18.2217 10.5333ZM17.9917 7.7533C17.9917 8.5333 18.6117 9.0833 19.3617 9.1033C20.0717 9.1333 20.6917 8.4933 20.6917 7.7533C20.6917 7.0433 20.0717 6.4133 19.3617 6.4133C18.6117 6.4133 17.9917 7.0433 17.9917 7.7533ZM8.3917 14.6633C7.8717 14.6633 7.4517 14.2533 7.4517 13.7233C7.4517 13.1933 7.8717 12.7833 8.3917 12.7833C8.9217 12.7833 9.3417 13.1933 9.3417 13.7233C9.3417 14.2533 8.9217 14.6633 8.3917 14.6633ZM16.8317 14.6633C16.3117 14.6633 15.8917 14.2533 15.8917 13.7233C15.8917 13.1933 16.3117 12.7833 16.8317 12.7833C17.3517 12.7833 17.7817 13.1933 17.7817 13.7233C17.7817 14.2533 17.3517 14.6633 16.8317 14.6633ZM8.3917 18.3733C7.8717 18.3733 7.4517 17.9633 7.4517 17.4333C7.4517 16.9033 7.8717 16.5033 8.3917 16.5033C8.9217 16.5033 9.3417 16.9033 9.3417 17.4333C9.3417 17.9633 8.9217 18.3733 8.3917 18.3733ZM16.8317 18.3733C16.3117 18.3733 15.8917 17.9633 15.8917 17.4333C15.8917 16.9033 16.3117 16.5033 16.8317 16.5033C17.3517 16.5033 17.7817 16.9033 17.7817 17.4333C17.7817 17.9633 17.3517 18.3733 16.8317 18.3733ZM8.3917 22.0733C7.8717 22.0733 7.4517 21.6833 7.4517 21.1433C7.4517 20.6133 7.8717 20.2033 8.3917 20.2033C8.9217 20.2033 9.3417 20.6133 9.3417 21.1433C9.3417 21.6833 8.9217 22.0733 8.3917 22.0733ZM16.8317 22.0733C16.3117 22.0733 15.8917 21.6833 15.8917 21.1433C15.8917 20.6133 16.3117 20.2033 16.8317 20.2033C17.3517 20.2033 17.7817 20.6133 17.7817 21.1433C17.7817 21.6833 17.3517 22.0733 16.8317 22.0733Z" />
        </svg>
    