
        <svg xmlns="http://www.w3.org/2000/svg" viewBox="0 0 100 100">
            <path d="M4.0117 22.8055H5.1717V23.6855C5.1717 25.6855 6.1217 26.6055 8.0817 26.6055H19.2417C21.2117 26.6055 22.1617 25.6855 22.1617 23.6855V22.8055H23.3217C25.9017 22.8055 27.3317 21.3955 27.3317 18.8155V8.3655C27.3317 5.7855 25.9017 4.3855 23.3217 4.3855H22.3817V3.7355C22.3817 1.1955 21.1217 -0.0045 18.6317 -0.0045H8.6917C6.2717 -0.0045 4.9417 1.1955 4.9417 3.7355V4.3855H4.0117C1.5017 4.3855 0.0017 5.7855 0.0017 8.3655V18.8155C0.0017 21.3955 1.4317 22.8055 4.0117 22.8055ZM7.6517 3.5155C7.6517 2.8155 8.0317 2.4455 8.7317 2.4455H18.6017C19.3017 2.4455 19.6717 2.8155 19.6717 3.5155V4.3855H7.6517ZM19.2417 12.1055H8.0817C6.1617 12.1055 5.1717 13.0155 5.1717 15.0255V20.1755H4.0417C3.2017 20.1755 2.7517 19.7355 2.7517 18.8955V8.2955C2.7517 7.4555 3.2017 6.9955 4.0417 6.9955H23.2817C24.1317 6.9955 24.5717 7.4555 24.5717 8.2955V18.8955C24.5717 19.7355 24.1317 20.1755 23.2817 20.1755H22.1617V15.0255C22.1617 13.0155 21.2117 12.1055 19.2417 12.1055ZM19.0817 9.6255C19.0817 10.4455 19.7417 11.0855 20.5517 11.0855C21.3417 11.0855 22.0117 10.4455 22.0117 9.6255C22.0117 8.8355 21.3417 8.1655 20.5517 8.1655C19.7417 8.1655 19.0817 8.8355 19.0817 9.6255ZM8.4117 24.1255C7.9617 24.1255 7.7217 23.8955 7.7217 23.4255V15.2855C7.7217 14.8155 7.9617 14.5855 8.4117 14.5855H18.9217C19.3817 14.5855 19.6017 14.8155 19.6017 15.2855V23.4255C19.6017 23.8955 19.3817 24.1255 18.9217 24.1255ZM10.1417 18.3855H17.2217C17.7517 18.3855 18.1417 17.9755 18.1417 17.4655C18.1417 16.9555 17.7517 16.5555 17.2217 16.5555H10.1417C9.6017 16.5555 9.2017 16.9555 9.2017 17.4655C9.2017 17.9755 9.6017 18.3855 10.1417 18.3855ZM10.1417 22.1955H17.2217C17.7517 22.1955 18.1417 21.7955 18.1417 21.2955C18.1417 20.7655 17.7517 20.3555 17.2217 20.3555H10.1417C9.6017 20.3555 9.2017 20.7655 9.2017 21.2955C9.2017 21.7955 9.6017 22.1955 10.1417 22.1955Z" />
        </svg>
    