
        <svg xmlns="http://www.w3.org/2000/svg" viewBox="0 0 100 100">
            <path d="M12.6823 7.5075C13.2423 7.5075 13.7023 7.0475 13.7023 6.4875V1.0175C13.7023 0.4675 13.2323 -0.0025 12.6823 -0.0025C12.1123 -0.0025 11.6623 0.4675 11.6623 1.0175V6.4875C11.6623 7.0475 12.1323 7.5075 12.6823 7.5075ZM9.0323 9.0375C9.4323 8.6275 9.4223 7.9675 9.0323 7.5775L5.1523 3.7175C4.7723 3.3275 4.1123 3.3275 3.7123 3.7175C3.3323 4.0975 3.3323 4.7675 3.7123 5.1575L7.5823 9.0375C7.9723 9.4175 8.6223 9.4375 9.0323 9.0375ZM16.3223 9.0375C16.7323 9.4375 17.3923 9.4175 17.7823 9.0375L21.6423 5.1575C22.0423 4.7675 22.0323 4.0975 21.6423 3.7175C21.2423 3.3275 20.5923 3.3275 20.2023 3.7175L16.3223 7.5775C15.9423 7.9675 15.9223 8.6275 16.3223 9.0375ZM17.8323 12.6775C17.8323 13.2575 18.3123 13.6975 18.8823 13.6975H24.3423C24.8923 13.6975 25.3623 13.2275 25.3623 12.6775C25.3623 12.1175 24.8923 11.6575 24.3423 11.6575H18.8823C18.3123 11.6575 17.8323 12.1175 17.8323 12.6775ZM7.5223 12.6775C7.5223 12.1175 7.0423 11.6575 6.4923 11.6575H1.0223C0.4723 11.6575 0.0023 12.1175 0.0023 12.6775C0.0023 13.2275 0.4723 13.6975 1.0223 13.6975H6.4923C7.0423 13.6975 7.5223 13.2575 7.5223 12.6775ZM16.3223 16.3275C15.9223 16.7375 15.9423 17.3875 16.3223 17.7775L20.2023 21.6475C20.5923 22.0475 21.2623 22.0275 21.6423 21.6475C22.0423 21.2475 22.0323 20.5875 21.6423 20.2075L17.7823 16.3275C17.3923 15.9375 16.7323 15.9275 16.3223 16.3275ZM9.0323 16.3275C8.6223 15.9275 7.9723 15.9375 7.5823 16.3275L3.7123 20.2075C3.3323 20.5875 3.3323 21.2475 3.7123 21.6475C4.1123 22.0275 4.7723 22.0475 5.1523 21.6475L9.0323 17.7775C9.4223 17.3875 9.4323 16.7375 9.0323 16.3275ZM12.6823 17.8475C12.1323 17.8475 11.6623 18.3175 11.6623 18.8675V24.3375C11.6623 24.8875 12.1123 25.3575 12.6823 25.3575C13.2323 25.3575 13.7023 24.8875 13.7023 24.3375V18.8675C13.7023 18.3175 13.2423 17.8475 12.6823 17.8475Z" />
        </svg>
    