
        <svg xmlns="http://www.w3.org/2000/svg" viewBox="0 0 100 100">
            <path d="M12.5323 7.1252C12.9623 7.1252 13.3223 6.7652 13.3223 6.3352V0.7852C13.3223 0.3552 12.9623 -0.0048 12.5323 -0.0048C12.0923 -0.0048 11.7423 0.3652 11.7423 0.7852V6.3352C11.7423 6.7752 12.1023 7.1252 12.5323 7.1252ZM8.7223 8.7152C9.0223 8.4052 9.0223 7.8952 8.7223 7.5952L4.7923 3.6652C4.4923 3.3652 3.9823 3.3652 3.6823 3.6652C3.3723 3.9752 3.3623 4.4752 3.6823 4.7852L7.5923 8.7152C7.8823 9.0152 8.4023 9.0252 8.7223 8.7152ZM16.3323 8.7152C16.6623 9.0252 17.1723 9.0152 17.4723 8.7152L21.3823 4.7852C21.6923 4.4752 21.6923 3.9752 21.3823 3.6652C21.0823 3.3652 20.5623 3.3652 20.2723 3.6652L16.3323 7.5952C16.0323 7.8952 16.0323 8.4052 16.3323 8.7152ZM17.9223 12.5252C17.9223 12.9752 18.2923 13.3252 18.7223 13.3252H24.2723C24.7023 13.3252 25.0523 12.9452 25.0523 12.5252C25.0523 12.0952 24.6923 11.7352 24.2723 11.7352H18.7223C18.2923 11.7352 17.9223 12.0952 17.9223 12.5252ZM7.1323 12.5252C7.1323 12.0952 6.7723 11.7352 6.3423 11.7352H0.7923C0.3623 11.7352 0.0023 12.0952 0.0023 12.5252C0.0023 12.9452 0.3623 13.3252 0.7923 13.3252H6.3423C6.7623 13.3252 7.1323 12.9752 7.1323 12.5252ZM8.7223 16.3352C8.4023 16.0352 7.9023 16.0352 7.5923 16.3352L3.6823 20.2752C3.3723 20.5652 3.3623 21.0852 3.6823 21.3852C3.9723 21.6952 4.4923 21.6952 4.7923 21.3852L8.7223 17.4752C9.0123 17.1652 9.0323 16.6652 8.7223 16.3352ZM16.3323 16.3352C16.0323 16.6652 16.0423 17.1652 16.3323 17.4752L20.2723 21.3852C20.5823 21.6952 21.0823 21.6952 21.3823 21.3852C21.6923 21.0852 21.6923 20.5652 21.3823 20.2752L17.4723 16.3352C17.1723 16.0352 16.6523 16.0352 16.3323 16.3352ZM12.5323 17.9252C12.1023 17.9252 11.7423 18.2852 11.7423 18.7152V24.2652C11.7423 24.6952 12.0923 25.0552 12.5323 25.0552C12.9623 25.0552 13.3223 24.7052 13.3223 24.2652V18.7152C13.3223 18.2952 12.9623 17.9252 12.5323 17.9252Z" />
        </svg>
    