
        <svg xmlns="http://www.w3.org/2000/svg" viewBox="0 0 100 100">
            <path d="M2.6117 19.5837C3.4717 19.5837 4.1217 19.2138 4.6017 18.6838L11.0717 11.4238L17.5417 18.6838C18.0317 19.2338 18.6917 19.5837 19.5317 19.5837C20.9917 19.5837 22.1517 18.3438 22.1517 16.8838C22.1517 16.2938 22.0317 15.7538 21.4317 15.0838L13.1817 5.9537C12.6817 5.3938 12.1517 5.0938 11.5217 5.0038H19.2417C20.7417 5.0038 21.7817 3.9037 21.7817 2.5038C21.7817 1.1038 20.7417 0.0038 19.2417 0.0038H2.9317C1.4317 0.0038 0.3717 1.1238 0.3717 2.5038C0.3717 3.9037 1.4317 5.0038 2.9317 5.0038H10.6317C9.9917 5.0938 9.4717 5.3938 8.9717 5.9537L0.7117 15.0838C0.1217 15.7538 0.0017 16.2938 0.0017 16.8838C0.0017 18.3438 1.1717 19.5837 2.6117 19.5837Z" />
        </svg>
    