
        <svg xmlns="http://www.w3.org/2000/svg" viewBox="0 0 100 100">
            <path d="M0.4617 11.3322C0.5817 11.3322 0.7017 11.3122 0.7817 11.2122L9.2317 2.0122L17.6517 11.2122C17.7317 11.2922 17.8617 11.3322 17.9917 11.3322C18.2417 11.3322 18.4417 11.1322 18.4417 10.8722C18.4417 10.7322 18.3917 10.6522 18.2917 10.5422L9.6517 1.1022C9.5717 1.0222 9.4817 0.9522 9.3717 0.9122H17.6617C17.9217 0.9122 18.1017 0.7122 18.1017 0.4522C18.1017 0.2022 17.9217 0.0022 17.6617 0.0022H0.7717C0.5117 0.0022 0.3317 0.2022 0.3317 0.4522C0.3317 0.7122 0.5117 0.9122 0.7717 0.9122H9.0617C8.9617 0.9522 8.8717 1.0122 8.7917 1.0922L0.1617 10.5322C0.0717 10.6422 0.0017 10.7322 0.0017 10.8722C0.0017 11.1322 0.2017 11.3322 0.4617 11.3322Z" />
        </svg>
    