
        <svg xmlns="http://www.w3.org/2000/svg" viewBox="0 0 100 100">
            <path d="M12.7923 25.5978C19.8723 25.5978 25.6023 19.8678 25.6023 12.7978C25.6023 5.7278 19.8723 -0.0022 12.7923 -0.0022C5.7323 -0.0022 0.0023 5.7278 0.0023 12.7978C0.0023 19.8678 5.7323 25.5978 12.7923 25.5978ZM12.7923 21.4178C8.0323 21.4178 4.1723 17.5678 4.1723 12.7978C4.1723 8.0278 8.0323 4.1678 12.7923 4.1678C17.5623 4.1678 21.4323 8.0278 21.4323 12.7978C21.4323 17.5678 17.5623 21.4178 12.7923 21.4178ZM7.0323 15.7978C7.0323 16.1678 7.1523 16.4178 7.4623 16.7178L9.5123 18.7078C9.7923 18.9678 10.2523 19.1478 10.6723 19.1478C11.0723 19.1478 11.5223 18.9678 11.8123 18.7078L13.8623 16.7178C14.1823 16.4178 14.2923 16.1678 14.2923 15.7978C14.2923 15.1378 13.7723 14.6978 13.1823 14.6978C12.7823 14.6978 12.5723 14.8578 12.2623 15.1878L12.0023 15.4578L11.6723 15.8978L11.8123 14.8578V11.2178C11.8123 9.4678 12.6123 8.6478 13.8323 8.6478C14.9223 8.6478 15.6523 9.3678 15.6423 10.3978C15.6423 11.3478 15.0223 11.9878 14.1123 11.9878C13.7623 11.9878 13.5223 11.9678 13.3823 11.9678C12.7623 11.9678 12.4223 12.3878 12.4223 12.8978C12.4223 13.3278 12.6223 13.6378 12.9823 13.8778C13.2823 14.0578 13.6923 14.1678 14.1323 14.1678C16.3723 14.1678 17.8723 12.6578 17.8723 10.3978C17.8723 8.1278 16.2423 6.4078 13.8323 6.4078C11.1123 6.4078 9.5023 8.0578 9.5023 10.8678V14.8578L9.6423 15.8978L9.3123 15.4578L9.0923 15.1878C8.7923 14.8378 8.5423 14.6978 8.1323 14.6978C7.5723 14.6978 7.0323 15.1378 7.0323 15.7978Z" />
        </svg>
    