
        <svg xmlns="http://www.w3.org/2000/svg" viewBox="0 0 100 100">
            <path d="M11.7523 23.5048C18.2323 23.5048 23.5123 18.2348 23.5123 11.7548C23.5123 5.2748 18.2323 0.0048 11.7523 0.0048C5.2723 0.0048 0.0023 5.2748 0.0023 11.7548C0.0023 18.2348 5.2723 23.5048 11.7523 23.5048ZM6.6423 15.0548C6.6423 14.7448 6.9023 14.4848 7.2023 14.4848C7.3823 14.4848 7.5323 14.5448 7.6623 14.6848L8.2923 15.3248L9.2823 16.3948L9.2423 14.3248V9.4148C9.2423 6.9048 10.7423 5.2848 13.0923 5.2848C15.3423 5.2848 16.8823 6.8648 16.8823 9.1948C16.8823 11.4848 15.4023 13.0048 13.1623 13.0048C12.7023 13.0048 12.2723 12.8748 12.0623 12.6748C11.9323 12.5648 11.8723 12.4148 11.8723 12.2448C11.8723 11.9548 12.1023 11.7348 12.4123 11.7348C12.6323 11.7348 12.7923 11.8348 13.1923 11.8348C14.6823 11.8348 15.7023 10.7648 15.7123 9.1948C15.7123 7.5748 14.6623 6.4848 13.0923 6.4848C11.4123 6.4848 10.4423 7.5848 10.4423 9.5048V14.3248L10.3923 16.3948L11.3923 15.3148L12.0223 14.6748C12.1523 14.5448 12.2923 14.4848 12.4823 14.4848C12.7823 14.4848 13.0323 14.7448 13.0323 15.0548C13.0323 15.1948 12.9823 15.3348 12.8523 15.4948L10.4923 17.8248C10.2923 18.0348 10.0623 18.1248 9.8423 18.1248C9.6223 18.1248 9.4123 18.0248 9.2023 17.8248L6.8423 15.4948C6.7223 15.3648 6.6423 15.1948 6.6423 15.0548Z" />
        </svg>
    