
        <svg xmlns="http://www.w3.org/2000/svg" viewBox="0 0 100 100">
            <path d="M11.2117 23.9609H15.0617C16.3617 23.9609 17.3017 23.0709 17.3017 21.8809C17.3017 21.1609 17.0417 20.6809 16.7117 20.2309C16.3517 19.7309 16.0417 19.2509 16.0417 18.6209C16.0417 17.5509 16.7717 16.7909 17.8917 16.7909C19.0217 16.7909 19.7417 17.5509 19.7417 18.6209C19.7417 19.2509 19.4417 19.7309 19.0817 20.2309C18.7517 20.6809 18.4917 21.1609 18.4917 21.8809C18.4917 23.0709 19.4317 23.9609 20.7317 23.9609H24.5717C27.1017 23.9609 28.6917 22.4109 28.6917 19.9209V16.6909C28.6917 16.4909 28.8317 16.4209 29.0517 16.5309C29.5817 16.8209 30.2317 16.9809 30.9917 16.9809C33.4317 16.9809 35.7917 15.1009 35.7917 12.0009C35.7917 8.8809 33.4317 7.0109 30.9917 7.0109C30.2317 7.0109 29.5817 7.1709 29.0517 7.4509C28.8317 7.5709 28.6917 7.5009 28.6917 7.3009V4.0409C28.6917 1.5609 27.1017 0.0009 24.5717 0.0009H20.7317C19.4317 0.0009 18.4917 0.9009 18.4917 2.0809C18.4917 2.8009 18.7517 3.2909 19.0817 3.7409C19.4417 4.2309 19.7417 4.7109 19.7417 5.3509C19.7417 6.4009 19.0117 7.1809 17.8917 7.1809C16.7817 7.1809 16.0417 6.4009 16.0417 5.3509C16.0417 4.7109 16.3517 4.2309 16.7117 3.7409C17.0417 3.2909 17.3017 2.8009 17.3017 2.0809C17.3017 0.9009 16.3617 0.0009 15.0617 0.0009H11.2117C8.6817 0.0009 7.1117 1.5609 7.1117 4.0409V7.3009C7.1117 7.5009 6.9717 7.5709 6.7417 7.4509C6.2117 7.1709 5.5517 7.0109 4.7917 7.0109C2.3517 7.0109 0.0017 8.8809 0.0017 12.0009C0.0017 15.1009 2.3517 16.9809 4.7917 16.9809C5.5517 16.9809 6.2117 16.8209 6.7417 16.5309C6.9717 16.4209 7.1117 16.4909 7.1117 16.6909V19.9209C7.1117 22.4109 8.6817 23.9609 11.2117 23.9609ZM11.2517 20.7609C10.6717 20.7609 10.3117 20.4009 10.3117 19.8009V14.8309C10.3117 13.5209 9.4217 12.6009 8.2217 12.6009C7.5117 12.6009 7.0317 12.8509 6.5717 13.1809C6.0817 13.5509 5.6017 13.8509 4.9717 13.8509C3.9117 13.8509 3.1417 13.1109 3.1417 12.0009C3.1417 10.8709 3.9117 10.1409 4.9717 10.1409C5.6017 10.1409 6.0817 10.4409 6.5717 10.8009C7.0317 11.1309 7.5117 11.3909 8.2217 11.3909C9.4217 11.3909 10.3117 10.4609 10.3117 9.1509V4.1609C10.3117 3.5609 10.6717 3.2109 11.2517 3.2109H13.1017C13.4717 3.2109 13.4017 3.3709 13.3117 3.6309C13.0617 4.2209 12.9017 4.8509 12.9017 5.5209C12.9017 7.9609 14.7817 10.3109 17.8917 10.3109C21.0117 10.3109 22.8917 7.9609 22.8917 5.5209C22.8917 4.8509 22.7217 4.2209 22.4717 3.6309C22.3817 3.3709 22.3117 3.2109 22.6917 3.2109H24.5517C25.1117 3.2109 25.4717 3.5609 25.4717 4.1609V9.1509C25.4717 10.4609 26.3817 11.3909 27.5617 11.3909C28.2817 11.3909 28.7717 11.1309 29.2117 10.8009C29.7117 10.4409 30.1917 10.1409 30.8317 10.1409C31.8717 10.1409 32.6617 10.8709 32.6617 12.0009C32.6617 13.1109 31.8717 13.8509 30.8317 13.8509C30.1917 13.8509 29.7117 13.5509 29.2117 13.1809C28.7717 12.8509 28.2817 12.6009 27.5617 12.6009C26.3817 12.6009 25.4717 13.5209 25.4717 14.8309V19.8009C25.4717 20.4009 25.1117 20.7609 24.5517 20.7609H22.6917C22.3117 20.7609 22.3817 20.5909 22.4717 20.3409C22.7217 19.7509 22.8917 19.1109 22.8917 18.4609C22.8917 16.0009 21.0117 13.6509 17.8917 13.6509C14.7817 13.6509 12.9017 16.0009 12.9017 18.4609C12.9017 19.1109 13.0617 19.7509 13.3117 20.3409C13.4017 20.5909 13.4717 20.7609 13.1017 20.7609Z" />
        </svg>
    