
        <svg xmlns="http://www.w3.org/2000/svg" viewBox="0 0 100 100">
            <path d="M10.7017 22.6547H14.5917C15.5617 22.6547 16.1817 22.0047 16.1817 21.1947C16.1817 20.7547 15.9917 20.2947 15.5717 19.8447C15.0617 19.2747 14.7417 18.6247 14.7417 17.9447C14.7417 16.5847 15.7117 15.4647 17.2517 15.4647C18.7817 15.4647 19.7617 16.5847 19.7617 17.9447C19.7617 18.6247 19.4317 19.2747 18.9117 19.8447C18.5017 20.2947 18.3117 20.7547 18.3117 21.1947C18.3117 22.0047 18.9417 22.6547 19.9117 22.6547H23.7917C26.1417 22.6547 27.3717 21.4447 27.3717 19.1247V14.9847C27.3717 14.8047 27.5017 14.7047 27.7117 14.8547C28.4617 15.3847 29.3217 15.7647 30.2917 15.7647C32.5117 15.7647 34.5017 13.9847 34.5017 11.3647C34.5017 8.7647 32.5117 6.9847 30.2917 6.9847C29.3217 6.9847 28.4617 7.3547 27.7117 7.8847C27.5017 8.0347 27.3717 7.9447 27.3717 7.7547V3.5247C27.3717 1.2047 26.1417 0.0047 23.7917 0.0047H19.9117C18.9417 0.0047 18.3117 0.6447 18.3117 1.4547C18.3117 1.8947 18.5017 2.3547 18.9117 2.8147C19.4317 3.3847 19.7617 4.0347 19.7617 4.7247C19.7617 6.0547 18.7617 7.1847 17.2517 7.1847C15.7417 7.1847 14.7417 6.0547 14.7417 4.7247C14.7417 4.0347 15.0617 3.3847 15.5717 2.8147C15.9917 2.3547 16.1817 1.8947 16.1817 1.4547C16.1817 0.6447 15.5617 0.0047 14.5917 0.0047H10.7017C8.3517 0.0047 7.1217 1.2047 7.1217 3.5247V7.7547C7.1217 7.9447 6.9917 8.0347 6.7817 7.8847C6.0317 7.3547 5.1817 6.9847 4.1917 6.9847C1.9917 6.9847 0.0017 8.7647 0.0017 11.3647C0.0017 13.9847 1.9917 15.7647 4.1917 15.7647C5.1817 15.7647 6.0317 15.3847 6.7817 14.8547C6.9917 14.7047 7.1217 14.8047 7.1217 14.9847V19.1247C7.1217 21.4447 8.3517 22.6547 10.7017 22.6547ZM10.7317 20.7647C9.6517 20.7647 9.0117 20.1547 9.0117 19.0347V14.0347C9.0117 13.0547 8.3717 12.4347 7.5617 12.4347C7.1117 12.4347 6.6517 12.6247 6.2017 13.0447C5.6217 13.5547 4.9817 13.8847 4.2917 13.8847C2.9517 13.8847 1.8317 12.8947 1.8317 11.3647C1.8317 9.8547 2.9517 8.8547 4.2917 8.8547C4.9817 8.8547 5.6217 9.1847 6.2017 9.7047C6.6517 10.1247 7.1117 10.3147 7.5617 10.3147C8.3717 10.3147 9.0117 9.6947 9.0117 8.7047V3.6247C9.0117 2.5047 9.6517 1.8847 10.7317 1.8847H13.4317C13.9817 1.8847 13.8017 2.1647 13.6617 2.3947C13.2117 3.1047 12.8717 3.8947 12.8717 4.8147C12.8717 7.0147 14.6417 9.0147 17.2517 9.0147C19.8617 9.0147 21.6317 7.0147 21.6317 4.8147C21.6317 3.8947 21.2917 3.1047 20.8317 2.3947C20.6917 2.1647 20.5217 1.8847 21.0717 1.8847H23.7617C24.8417 1.8847 25.4917 2.5047 25.4917 3.6247V8.7047C25.4917 9.6947 26.1317 10.3147 26.9417 10.3147C27.3917 10.3147 27.8417 10.1247 28.3017 9.7047C28.8617 9.1847 29.5217 8.8547 30.2017 8.8547C31.5517 8.8547 32.6717 9.8547 32.6717 11.3647C32.6717 12.8947 31.5517 13.8847 30.2017 13.8847C29.5217 13.8847 28.8617 13.5547 28.3017 13.0447C27.8417 12.6247 27.3917 12.4347 26.9417 12.4347C26.1317 12.4347 25.4917 13.0547 25.4917 14.0347V19.0347C25.4917 20.1547 24.8417 20.7647 23.7617 20.7647H21.0717C20.5217 20.7647 20.6917 20.4847 20.8317 20.2647C21.2917 19.5447 21.6317 18.7647 21.6317 17.8447C21.6317 15.6047 19.8917 13.6447 17.2517 13.6447C14.6117 13.6447 12.8717 15.6047 12.8717 17.8447C12.8717 18.7647 13.2117 19.5447 13.6617 20.2647C13.8017 20.4847 13.9817 20.7647 13.4317 20.7647Z" />
        </svg>
    