
        <svg xmlns="http://www.w3.org/2000/svg" viewBox="0 0 100 100">
            <path d="M0.0017 19.062C0.0017 21.082 1.1217 22.212 3.1417 22.212H18.0117C20.0517 22.212 21.1917 21.092 21.1917 19.102V14.052C21.1917 13.792 21.4017 13.652 21.6717 13.852C22.3117 14.332 23.0717 14.852 24.2717 14.852C26.3217 14.852 27.8317 13.302 27.8317 11.202C27.8317 9.102 26.3217 7.572 24.2717 7.572C23.0717 7.572 22.3117 8.072 21.6717 8.562C21.4017 8.762 21.1917 8.622 21.1917 8.352V3.122C21.1917 1.112 20.0517 0.002 18.0117 0.002H3.1417C1.1217 0.002 0.0017 1.122 0.0017 3.142V8.322C0.0017 9.032 0.5117 9.512 1.1717 9.512C1.5117 9.512 1.8617 9.372 2.2117 9.062C2.8217 8.522 3.4917 7.932 4.7617 7.932C6.5417 7.932 7.8617 9.292 7.8617 11.122C7.8617 12.952 6.5417 14.312 4.7617 14.312C3.4917 14.312 2.8217 13.722 2.2117 13.182C1.8617 12.872 1.5117 12.722 1.1717 12.722C0.5117 12.722 0.0017 13.202 0.0017 13.912Z" />
        </svg>
    