
        <svg xmlns="http://www.w3.org/2000/svg" viewBox="0 0 100 100">
            <path d="M0.0017 11.0066C0.0017 13.3966 1.6917 14.7066 3.5817 14.7066C4.4317 14.7066 5.0317 14.4866 5.8517 13.9466C6.4817 13.5366 6.9617 13.8066 6.9617 14.3466V18.9066C6.9617 20.8966 8.0817 22.0066 10.1217 22.0066H13.5117C14.0517 22.0066 14.3217 21.5366 13.9217 20.9066C13.3817 20.0766 13.1617 19.4766 13.1617 18.6466C13.1617 16.7466 14.4717 15.0566 16.8617 15.0566C19.2517 15.0566 20.5817 16.7466 20.5817 18.6466C20.5817 19.4766 20.3417 20.0766 19.8017 20.9066C19.4017 21.5366 19.6717 22.0066 20.2117 22.0066H23.6017C25.6417 22.0066 26.7817 20.8966 26.7817 18.9066V14.3466C26.7817 13.8066 27.2417 13.5366 27.8817 13.9466C28.7017 14.4866 29.3117 14.7066 30.1417 14.7066C32.0417 14.7066 33.7217 13.3966 33.7217 11.0066C33.7217 8.5966 32.0417 7.2866 30.1417 7.2866C29.3117 7.2866 28.7017 7.5166 27.8817 8.0466C27.2417 8.4566 26.7817 8.1866 26.7817 7.6566V3.1166C26.7817 1.1166 25.6417 -0.0034 23.6017 -0.0034H20.2117C19.6717 -0.0034 19.4017 0.4666 19.8017 1.1166C20.3417 1.9366 20.5817 2.5266 20.5817 3.3666C20.5817 5.2666 19.2517 6.9566 16.8617 6.9566C14.4717 6.9566 13.1617 5.2666 13.1617 3.3666C13.1617 2.5266 13.3817 1.9366 13.9217 1.1166C14.3217 0.4666 14.0517 -0.0034 13.5117 -0.0034H10.1217C8.0817 -0.0034 6.9617 1.1166 6.9617 3.1166V7.6566C6.9617 8.1866 6.4817 8.4566 5.8517 8.0466C5.0317 7.5166 4.4317 7.2866 3.5817 7.2866C1.6917 7.2866 0.0017 8.5966 0.0017 11.0066Z" />
        </svg>
    