
        <svg xmlns="http://www.w3.org/2000/svg" viewBox="0 0 100 100">
            <path d="M0.0017 19.0091C0.0017 20.6091 1.0217 21.6291 2.6717 21.6291H18.0217C19.6717 21.6291 20.6917 20.6291 20.6917 19.0191V13.8391C20.6917 13.5391 20.9517 13.3491 21.2617 13.5691C21.9217 14.0491 22.6617 14.7091 24.1317 14.7091C26.2417 14.7091 27.7017 13.1991 27.7017 10.9791C27.7017 8.7791 26.2417 7.2691 24.1317 7.2691C22.6617 7.2691 21.9217 7.9191 21.2617 8.3991C20.9517 8.6291 20.6917 8.4391 20.6917 8.1291V2.6091C20.6917 1.0091 19.6717 -0.0009 18.0217 -0.0009H2.6717C1.0217 -0.0009 0.0017 1.0091 0.0017 2.6091V7.9991C0.0017 8.6591 0.4117 9.1091 0.9917 9.1091C1.2817 9.1091 1.5617 8.9891 1.8717 8.7091C2.5817 8.1291 3.2317 7.6591 4.3717 7.6591C6.1617 7.6591 7.4017 8.9491 7.4017 10.8291C7.4017 12.6991 6.1617 13.9891 4.3717 13.9891C3.2317 13.9891 2.5817 13.5191 1.8717 12.9391C1.5617 12.6691 1.2817 12.5491 0.9917 12.5491C0.4117 12.5491 0.0017 12.9991 0.0017 13.6391Z" />
        </svg>
    