
        <svg xmlns="http://www.w3.org/2000/svg" viewBox="0 0 100 100">
            <path d="M0.2914 18.737C-0.2686 19.707 -0.0186 20.747 1.0014 21.197L10.6614 25.397C11.4314 25.737 11.9814 25.737 12.8114 25.367L22.4414 21.197C23.4714 20.747 23.7114 19.707 23.1514 18.737L12.7414 0.607C12.4714 0.127 12.0914 -0.003 11.7214 -0.003C11.3414 -0.003 10.9814 0.127 10.7114 0.607ZM21.7214 19.057C21.9714 19.507 21.8114 19.937 21.3614 20.137L12.5214 24.107C12.4514 24.137 12.4814 24.127 12.4114 24.157V2.927ZM1.7414 19.057L11.0414 2.927V24.157C10.9914 24.137 10.9914 24.137 10.9914 24.137L2.0714 20.137C1.6314 19.937 1.4814 19.507 1.7414 19.057Z" />
        </svg>
    