
        <svg xmlns="http://www.w3.org/2000/svg" viewBox="0 0 100 100">
            <path d="M1.1517 7.8008C1.9017 7.8008 2.3017 7.3908 2.3017 6.6408V4.0008C2.3017 2.8608 2.8917 2.3008 3.9817 2.3008H6.6917C7.4417 2.3008 7.8517 1.8908 7.8517 1.1508C7.8517 0.4108 7.4417 0.0008 6.6917 0.0008H3.8417C1.3117 0.0008 0.0017 1.3008 0.0017 3.8008V6.6408C0.0017 7.3908 0.4117 7.8008 1.1517 7.8008ZM22.0617 7.8008C22.8117 7.8008 23.2117 7.3908 23.2117 6.6408V3.8008C23.2117 1.3008 21.9017 0.0008 19.3717 0.0008H16.5217C15.7717 0.0008 15.3617 0.4108 15.3617 1.1508C15.3617 1.8908 15.7717 2.3008 16.5217 2.3008H19.2317C20.3117 2.3008 20.9217 2.8608 20.9217 4.0008V6.6408C20.9217 7.3908 21.3317 7.8008 22.0617 7.8008ZM6.5117 11.1008H10.5817C10.8717 11.1008 11.1017 10.8708 11.1017 10.5908V6.5108C11.1017 6.2308 10.8717 6.0008 10.5817 6.0008H6.5117C6.2217 6.0008 6.0017 6.2308 6.0017 6.5108V10.5908C6.0017 10.8708 6.2217 11.1008 6.5117 11.1008ZM12.6217 11.1008H16.6917C16.9817 11.1008 17.2017 10.8708 17.2017 10.5908V6.5108C17.2017 6.2308 16.9817 6.0008 16.6917 6.0008H12.6217C12.3317 6.0008 12.1017 6.2308 12.1017 6.5108V10.5908C12.1017 10.8708 12.3317 11.1008 12.6217 11.1008ZM7.0217 10.0808V7.0208H10.0817V10.0808ZM13.1217 10.0808V7.0208H16.1817V10.0808ZM7.9117 9.1908H9.1917V7.9108H7.9117ZM14.0117 9.1908H15.2917V7.9108H14.0117ZM6.5117 17.2008H10.5817C10.8717 17.2008 11.1017 16.9908 11.1017 16.7008V12.6208C11.1017 12.3408 10.8717 12.1208 10.5817 12.1208H6.5117C6.2217 12.1208 6.0017 12.3408 6.0017 12.6208V16.7008C6.0017 16.9908 6.2217 17.2008 6.5117 17.2008ZM12.2617 13.5308H13.5317V12.2608H12.2617ZM15.7717 13.5308H17.0517V12.2608H15.7717ZM7.0217 16.1908V13.1208H10.0817V16.1908ZM7.9117 15.2908H9.1917V14.0108H7.9117ZM14.0117 15.2908H15.2917V14.0108H14.0117ZM3.8417 23.2108H6.6917C7.4417 23.2108 7.8517 22.8008 7.8517 22.0708C7.8517 21.3308 7.4417 20.9208 6.6917 20.9208H3.9817C2.8917 20.9208 2.3017 20.3508 2.3017 19.2108V16.5608C2.3017 15.8108 1.8917 15.4008 1.1517 15.4008C0.4017 15.4008 0.0017 15.8108 0.0017 16.5608V19.4108C0.0017 21.9108 1.3117 23.2108 3.8417 23.2108ZM16.5217 23.2108H19.3717C21.9017 23.2108 23.2117 21.9108 23.2117 19.4108V16.5608C23.2117 15.8108 22.8017 15.4008 22.0617 15.4008C21.3117 15.4008 20.9217 15.8208 20.9217 16.5608V19.2108C20.9217 20.3508 20.3117 20.9208 19.2317 20.9208H16.5217C15.7717 20.9208 15.3617 21.3308 15.3617 22.0708C15.3617 22.8008 15.7717 23.2108 16.5217 23.2108ZM12.2617 17.0508H13.5317V15.7808H12.2617ZM15.7717 17.0508H17.0517V15.7808H15.7717Z" />
        </svg>
    