
        <svg xmlns="http://www.w3.org/2000/svg" viewBox="0 0 100 100">
            <path d="M2.2417 9.8205H7.5817C9.0717 9.8205 9.8217 9.0705 9.8217 7.5205V2.2805C9.8217 0.7405 9.0717 0.0005 7.5817 0.0005H2.2417C0.7517 0.0005 0.0017 0.7405 0.0017 2.2805V7.5205C0.0017 9.0705 0.7517 9.8205 2.2417 9.8205ZM14.0017 9.8205H19.3317C20.8217 9.8205 21.5717 9.0705 21.5717 7.5205V2.2805C21.5717 0.7405 20.8217 0.0005 19.3317 0.0005H14.0017C12.5017 0.0005 11.7517 0.7405 11.7517 2.2805V7.5205C11.7517 9.0705 12.5017 9.8205 14.0017 9.8205ZM2.2617 8.1705C1.8517 8.1705 1.6517 7.9605 1.6517 7.5205V2.2805C1.6517 1.8605 1.8517 1.6505 2.2617 1.6505H7.5517C7.9617 1.6505 8.1717 1.8605 8.1717 2.2805V7.5205C8.1717 7.9605 7.9617 8.1705 7.5517 8.1705ZM14.0317 8.1705C13.6017 8.1705 13.4017 7.9605 13.4017 7.5205V2.2805C13.4017 1.8605 13.6017 1.6505 14.0317 1.6505H19.3117C19.7217 1.6505 19.9217 1.8605 19.9217 2.2805V7.5205C19.9217 7.9605 19.7217 8.1705 19.3117 8.1705ZM3.9017 6.1405H5.9017C6.0717 6.1405 6.1417 6.0705 6.1417 5.8705V3.9305C6.1417 3.7405 6.0717 3.6705 5.9017 3.6705H3.9017C3.7217 3.6705 3.6717 3.7405 3.6717 3.9305V5.8705C3.6717 6.0705 3.7217 6.1405 3.9017 6.1405ZM15.7217 6.1405H17.7317C17.9017 6.1405 17.9717 6.0705 17.9717 5.8705V3.9305C17.9717 3.7405 17.9017 3.6705 17.7317 3.6705H15.7217C15.5617 3.6705 15.5017 3.7405 15.5017 3.9305V5.8705C15.5017 6.0705 15.5617 6.1405 15.7217 6.1405ZM2.2417 21.5705H7.5817C9.0717 21.5705 9.8217 20.8405 9.8217 19.2905V14.0405C9.8217 12.5005 9.0717 11.7505 7.5817 11.7505H2.2417C0.7517 11.7505 0.0017 12.5005 0.0017 14.0405V19.2905C0.0017 20.8405 0.7517 21.5705 2.2417 21.5705ZM12.5517 14.7905H14.5517C14.7217 14.7905 14.7917 14.7205 14.7917 14.5205V12.5705C14.7917 12.3905 14.7217 12.3205 14.5517 12.3205H12.5517C12.3717 12.3205 12.3117 12.3905 12.3117 12.5705V14.5205C12.3117 14.7205 12.3717 14.7905 12.5517 14.7905ZM18.7717 14.7905H20.7817C20.9417 14.7905 21.0117 14.7205 21.0117 14.5205V12.5705C21.0117 12.3905 20.9417 12.3205 20.7817 12.3205H18.7717C18.6017 12.3205 18.5417 12.3905 18.5417 12.5705V14.5205C18.5417 14.7205 18.6017 14.7905 18.7717 14.7905ZM2.2617 19.9205C1.8517 19.9205 1.6517 19.7105 1.6517 19.2905V14.0505C1.6517 13.6205 1.8517 13.4105 2.2617 13.4105H7.5517C7.9617 13.4105 8.1717 13.6205 8.1717 14.0505V19.2905C8.1717 19.7105 7.9617 19.9205 7.5517 19.9205ZM3.9017 17.9105H5.9017C6.0717 17.9105 6.1417 17.8405 6.1417 17.6205V15.6905C6.1417 15.5005 6.0717 15.4305 5.9017 15.4305H3.9017C3.7217 15.4305 3.6717 15.5005 3.6717 15.6905V17.6205C3.6717 17.8405 3.7217 17.9105 3.9017 17.9105ZM15.6917 17.9105H17.6917C17.8617 17.9105 17.9317 17.8405 17.9317 17.6205V15.6905C17.9317 15.5005 17.8617 15.4305 17.6917 15.4305H15.6917C15.5117 15.4305 15.4617 15.5005 15.4617 15.6905V17.6205C15.4617 17.8405 15.5117 17.9105 15.6917 17.9105ZM12.5517 21.0105H14.5517C14.7217 21.0105 14.7917 20.9405 14.7917 20.7405V18.8005C14.7917 18.6105 14.7217 18.5405 14.5517 18.5405H12.5517C12.3717 18.5405 12.3117 18.6105 12.3117 18.8005V20.7405C12.3117 20.9405 12.3717 21.0105 12.5517 21.0105ZM18.7717 21.0105H20.7817C20.9417 21.0105 21.0117 20.9405 21.0117 20.7405V18.8005C21.0117 18.6105 20.9417 18.5405 20.7817 18.5405H18.7717C18.6017 18.5405 18.5417 18.6105 18.5417 18.8005V20.7405C18.5417 20.9405 18.6017 21.0105 18.7717 21.0105Z" />
        </svg>
    