
        <svg xmlns="http://www.w3.org/2000/svg" viewBox="0 0 100 100">
            <path d="M11.7423 1.5148C12.8923 1.5148 13.9923 1.7148 15.0323 2.0648L15.6023 0.6548C14.3923 0.2348 13.0923 0.0048 11.7423 0.0048C10.4023 0.0048 9.0923 0.2348 7.8823 0.6548L8.4723 2.0648C9.4923 1.6948 10.6023 1.5148 11.7423 1.5148ZM20.9323 7.2048L22.3123 6.6448C21.1523 4.2748 19.2223 2.3448 16.8623 1.1848L16.2923 2.5748C18.2923 3.5648 19.9323 5.1948 20.9323 7.2048ZM7.1923 2.5748L6.6323 1.1948C4.2623 2.3548 2.3423 4.2748 1.1823 6.6448L2.5823 7.2148C3.5623 5.2148 5.2023 3.5748 7.1923 2.5748ZM11.5323 14.1548C11.9723 14.1548 12.2423 13.8648 12.2423 13.4848V13.2548C12.2423 12.5648 12.6123 12.1248 13.4723 11.5548C14.6523 10.7648 15.3323 10.0748 15.3323 8.8048C15.3323 7.0448 13.7623 6.0048 11.8523 6.0048C9.9123 6.0048 8.6523 6.9948 8.3923 8.1348C8.3423 8.3048 8.3223 8.4648 8.3223 8.6448C8.3223 9.0748 8.6323 9.3048 8.9523 9.3048C9.2823 9.3048 9.4923 9.1448 9.6323 8.8948L9.7723 8.6648C10.0423 7.8648 10.7823 7.2548 11.7823 7.2548C12.9923 7.2548 13.7723 7.9248 13.7723 8.8848C13.7723 9.6748 13.3023 10.1148 12.2323 10.8648C11.3423 11.4848 10.8023 12.1048 10.8023 13.1748V13.4248C10.8023 13.8948 11.0623 14.1548 11.5323 14.1548ZM21.9923 11.7548C21.9923 12.9048 21.7923 14.0048 21.4523 15.0348L22.8423 15.6248C23.2723 14.4048 23.5123 13.1048 23.5123 11.7548C23.5123 10.4048 23.2723 9.1048 22.8423 7.8948L21.4523 8.4748C21.8123 9.5048 21.9923 10.6048 21.9923 11.7548ZM1.5223 11.7548C1.5223 10.6048 1.7123 9.5048 2.0623 8.4848L0.6523 7.8948C0.2323 9.1048 0.0023 10.4048 0.0023 11.7548C0.0023 13.1048 0.2323 14.4048 0.6723 15.6048L2.0623 15.0248C1.7223 14.0048 1.5223 12.9048 1.5223 11.7548ZM11.5123 17.4948C12.0923 17.4948 12.5823 17.0248 12.5823 16.4448C12.5823 15.8548 12.1023 15.3848 11.5123 15.3848C10.9123 15.3848 10.4223 15.8548 10.4223 16.4448C10.4223 17.0148 10.9123 17.4948 11.5123 17.4948ZM16.2923 20.9248L16.8623 22.3248C19.2323 21.1648 21.1623 19.2348 22.3123 16.8748L20.9323 16.3048C19.9423 18.3048 18.3023 19.9448 16.2923 20.9248ZM2.5823 16.3048L1.1923 16.8748C2.3523 19.2348 4.2823 21.1648 6.6323 22.3148L7.2023 20.9248C5.2023 19.9348 3.5623 18.3048 2.5823 16.3048ZM11.7523 21.9848C10.6023 21.9848 9.4923 21.7948 8.4723 21.4448L7.8823 22.8448C9.1023 23.2748 10.4023 23.5048 11.7523 23.5048C13.1023 23.5048 14.3923 23.2748 15.6123 22.8548L15.0123 21.4548C13.9923 21.7948 12.8923 21.9848 11.7523 21.9848Z" />
        </svg>
    