
        <svg xmlns="http://www.w3.org/2000/svg" viewBox="0 0 100 100">
            <path d="M4.3817 23.0583H23.3817C26.0617 23.0583 27.6417 21.4783 27.6417 18.6983V6.5983C27.6417 3.8083 26.0517 2.2283 23.2617 2.2283H13.4717C12.5117 2.2283 11.9217 2.0183 11.1017 1.3983L10.5717 0.9883C9.5817 0.2483 8.9517 -0.0017 7.5117 -0.0017H4.2617C1.6517 -0.0017 0.0017 1.6183 0.0017 4.4083V18.6983C0.0017 21.4783 1.5917 23.0583 4.3817 23.0583ZM13.5117 14.6283C12.4617 14.6283 11.8717 14.1983 11.8717 13.3783V13.3383C11.8717 12.5583 12.4017 12.0383 13.1817 11.4983C14.0517 10.8983 14.5217 10.6183 14.5217 10.0583C14.5217 9.5983 14.0817 9.1983 13.5317 9.1983C13.1017 9.1983 12.7417 9.3583 12.4017 9.8483L12.3017 9.9583C12.0217 10.3383 11.6217 10.5083 11.1217 10.5083C10.3817 10.5083 9.8517 9.9483 9.8517 9.2783C9.8517 9.0283 9.9117 8.7983 10.0117 8.5783C10.5017 7.4383 11.9417 6.6683 13.8917 6.6683C16.1817 6.6683 17.9717 7.9583 17.9717 9.8683C17.9717 11.0583 17.4417 11.6983 16.2417 12.4483C15.6817 12.7983 15.1717 13.1583 15.0317 13.5983C15.0217 13.6283 15.0117 13.6783 15.0017 13.7183C14.8817 14.2483 14.3017 14.6283 13.5117 14.6283ZM13.5117 18.4183C12.5517 18.4183 11.8117 17.8683 11.8117 16.9583C11.8117 16.0583 12.5517 15.4783 13.5117 15.4783C14.4717 15.4783 15.1917 16.0583 15.1917 16.9583C15.1917 17.8683 14.4717 18.4183 13.5117 18.4183Z" />
        </svg>
    