
        <svg xmlns="http://www.w3.org/2000/svg" viewBox="0 0 100 100">
            <path d="M1.0594 14.6877L10.4394 24.0777C11.8494 25.4777 13.3394 25.4477 14.7094 24.0777L24.0694 14.6877C25.4394 13.3177 25.4994 11.8277 24.0894 10.4277L14.7194 1.0477C13.2994 -0.3723 11.8494 -0.3323 10.4394 1.0577L1.0594 10.4277C-0.3506 11.8277 -0.3506 13.2877 1.0594 14.6877ZM1.4494 14.3177C0.3094 13.1877 0.3294 11.9577 1.4494 10.8177L10.8194 1.4577C11.9494 0.3177 13.1594 0.3177 14.2994 1.4577L23.6494 10.8077C24.7594 11.9277 24.8094 13.1877 23.6694 14.3177L14.2994 23.6677C13.1594 24.8077 11.9294 24.7777 10.8194 23.6677ZM12.3594 14.8777C12.5294 14.8777 12.6494 14.7377 12.6494 14.5477V14.1177C12.6494 13.3577 12.9594 12.8977 13.9194 12.2377C15.1594 11.3877 15.5894 10.6977 15.5894 9.6477C15.5894 8.2877 14.3594 7.2477 12.5894 7.2477C10.8094 7.2477 9.6694 8.3377 9.5394 9.5777C9.5294 9.7177 9.5294 9.8177 9.5294 9.9777C9.5294 10.1877 9.6494 10.3077 9.8194 10.3077C9.9994 10.3077 10.1294 10.1977 10.1294 10.0277L10.1094 9.8877C10.1094 8.8677 11.1194 7.8077 12.5494 7.8077C14.0394 7.8077 14.9794 8.6077 14.9794 9.6977C14.9794 10.5077 14.5894 11.0477 13.4194 11.8577C12.4094 12.5677 12.0594 13.1677 12.0594 14.0677V14.5477C12.0594 14.7377 12.1894 14.8777 12.3594 14.8777ZM12.3394 17.9077C12.7594 17.9077 13.0794 17.5577 13.0794 17.1777C13.0794 16.7777 12.7594 16.4377 12.3394 16.4377C11.9294 16.4377 11.5994 16.7777 11.5994 17.1777C11.5994 17.5577 11.9294 17.9077 12.3394 17.9077Z" />
        </svg>
    