
        <svg xmlns="http://www.w3.org/2000/svg" viewBox="0 0 100 100">
            <path d="M3.9592 19.2855H16.3092C18.8192 19.2855 20.2692 17.8755 20.2692 15.4055V3.8755C20.2692 1.4155 18.9092 -0.0045 16.4092 -0.0045H3.9592C1.5392 -0.0045 -0.0008 1.4155 -0.0008 3.8755V15.4655C-0.0008 17.9455 1.4492 19.2855 3.9592 19.2855ZM21.9892 13.3855L26.0192 16.8655C26.4992 17.2755 26.9992 17.5355 27.4792 17.5355C28.4292 17.5355 29.0792 16.8555 29.0792 15.8355V3.5055C29.0792 2.4855 28.4292 1.8055 27.4792 1.8055C26.9992 1.8055 26.4992 2.0655 26.0192 2.4855L21.9892 5.9555ZM9.7992 11.9055C9.1192 11.9055 8.7392 11.5755 8.7392 10.9555V10.8255C8.7392 9.8355 9.3292 9.2655 10.0992 8.7155C11.0292 8.0755 11.4992 7.7155 11.4992 7.0355C11.4992 6.2855 10.9192 5.7855 10.0392 5.7855C9.3992 5.7855 8.9292 6.1055 8.5792 6.6455C8.2392 7.0355 8.0892 7.3755 7.4292 7.3755C6.9392 7.3755 6.4992 7.0455 6.4992 6.5055C6.4992 6.3055 6.5492 6.1055 6.6192 5.9155C6.9892 4.8855 8.2492 4.0355 10.1392 4.0355C12.1192 4.0355 13.7692 5.0755 13.7692 6.9255C13.7692 8.2055 13.0692 8.8455 11.9792 9.5555C11.2592 10.0155 10.8592 10.3955 10.8392 10.9655C10.8392 11.0155 10.8292 11.0655 10.8292 11.0955C10.7792 11.5555 10.4092 11.9055 9.7992 11.9055ZM9.7692 15.2955C9.0692 15.2955 8.4892 14.7755 8.4892 14.0855C8.4892 13.3855 9.0592 12.8655 9.7692 12.8655C10.4892 12.8655 11.0592 13.3955 11.0592 14.0855C11.0592 14.7755 10.4892 15.2955 9.7692 15.2955Z" />
        </svg>
    