
        <svg xmlns="http://www.w3.org/2000/svg" viewBox="0 0 100 100">
            <path d="M5.1417 16.1452C5.3217 16.1452 5.4217 16.0152 5.4217 15.8352V14.5052C5.4217 12.6652 6.0017 11.7552 8.1117 10.2352C10.4617 8.5152 11.3317 7.1752 11.3317 5.2352C11.3317 2.2652 8.9017 -0.0048 5.6817 -0.0048C2.9717 -0.0048 0.8517 1.7352 0.1917 4.0652C0.0517 4.5752 0.0017 4.9452 0.0017 5.1952C0.0017 5.3752 0.0917 5.4852 0.2617 5.4852C0.4417 5.4852 0.5317 5.3752 0.5517 5.1652C0.8517 2.4452 2.9517 0.5352 5.6817 0.5352C8.5117 0.5352 10.7617 2.4952 10.7617 5.2452C10.7617 6.8752 9.9117 8.1952 7.7317 9.8352C5.4917 11.4952 4.8617 12.5352 4.8617 14.5052V15.8352C4.8617 16.0152 4.9817 16.1452 5.1417 16.1452ZM26.4917 11.0352C26.4917 8.9752 24.8717 7.3352 22.8017 7.3352C21.2117 7.3352 19.8317 8.3052 19.3017 9.7952H13.2817C13.1717 9.7952 13.0917 9.8452 12.9817 9.9252L12.0017 10.8952C11.9017 10.9852 11.9017 11.0852 12.0017 11.1952L13.8717 13.0752C13.9417 13.1352 14.0517 13.1352 14.1217 13.0752L15.3917 11.8152L17.1017 13.5152C17.1717 13.5852 17.2517 13.5852 17.3417 13.4952L19.0917 11.7452C19.8017 13.6852 21.1517 14.7452 22.8017 14.7452C24.8417 14.7452 26.4917 13.0852 26.4917 11.0352ZM22.5317 11.0352C22.5317 10.4052 23.0617 9.8952 23.6717 9.8952C24.3017 9.8952 24.8217 10.3952 24.8217 11.0352C24.8217 11.6552 24.3017 12.1752 23.6717 12.1752C23.0617 12.1752 22.5317 11.6552 22.5317 11.0352ZM5.2117 21.9752C5.5917 21.9752 5.9017 21.6452 5.9017 21.2652C5.9017 20.8952 5.5917 20.5652 5.2117 20.5652C4.8317 20.5652 4.5117 20.8952 4.5117 21.2652C4.5117 21.6452 4.8317 21.9752 5.2117 21.9752Z" />
        </svg>
    