
        <svg xmlns="http://www.w3.org/2000/svg" viewBox="0 0 100 100">
            <path d="M4.3236 19.1134H16.8736C19.6036 19.1134 21.2036 17.5634 21.2036 14.8334V12.7934L25.8536 16.6534C26.2936 17.0134 26.7636 17.2634 27.2336 17.2634C28.1336 17.2634 28.7336 16.6034 28.7336 15.6134V3.5134C28.7336 2.5234 28.1336 1.8634 27.2336 1.8634C26.7636 1.8634 26.2936 2.1134 25.8536 2.4734L21.2036 6.3234V4.2934C21.2036 1.5634 19.6036 0.0034 16.8736 0.0034H4.3236C1.6736 0.0034 0.0036 1.5634 0.0036 4.2934V14.8334C0.0036 17.5634 1.5936 19.1134 4.3236 19.1134ZM4.5836 17.7534C2.5536 17.7534 1.4536 16.7134 1.4536 14.6034V4.5234C1.4536 2.4034 2.5536 1.3634 4.5836 1.3634H16.6136C18.6436 1.3634 19.7436 2.4034 19.7436 4.5234V14.6034C19.7436 16.7134 18.6436 17.7534 16.6136 17.7534ZM26.5636 15.4434L21.2036 11.0834V8.0434L26.5636 3.6834C26.7436 3.5434 26.8736 3.4434 27.0236 3.4434C27.2236 3.4434 27.3436 3.5934 27.3436 3.8634V15.2434C27.3436 15.5134 27.2236 15.6634 27.0236 15.6634C26.8736 15.6634 26.7436 15.5734 26.5636 15.4434ZM10.3336 11.7534C10.7436 11.7534 10.9936 11.4934 10.9936 11.1534V10.9334C10.9936 10.3034 11.3236 9.9234 12.1036 9.3934C13.1736 8.6834 13.7836 8.0634 13.7836 6.9034C13.7836 5.3134 12.3636 4.3634 10.6136 4.3634C8.8636 4.3634 7.7336 5.2634 7.4836 6.2934C7.4436 6.4434 7.4136 6.6134 7.4136 6.7734C7.4136 7.1434 7.7136 7.3434 7.9936 7.3434C8.4636 7.3434 8.5536 7.1034 8.7936 6.7734C9.0436 6.0234 9.6536 5.4934 10.5736 5.4934C11.6636 5.4934 12.3636 6.0934 12.3636 6.9734C12.3636 7.6834 11.9536 8.0934 10.9836 8.7734C10.1736 9.3434 9.6836 9.8934 9.6836 10.8634V11.0934C9.6836 11.5334 9.9136 11.7534 10.3336 11.7534ZM10.3136 14.7934C10.8436 14.7934 11.2936 14.3534 11.2936 13.8234C11.2936 13.3034 10.8536 12.8634 10.3136 12.8634C9.7736 12.8634 9.3236 13.3034 9.3236 13.8234C9.3236 14.3434 9.7836 14.7934 10.3136 14.7934Z" />
        </svg>
    