
        <svg xmlns="http://www.w3.org/2000/svg" viewBox="0 0 100 100">
            <path d="M4.1417 22.4041H18.2717C20.9517 22.4041 22.4017 20.9541 22.4017 18.3041V4.1141C22.4017 1.4641 20.9517 0.0041 18.2717 0.0041H4.1417C1.4617 0.0041 0.0017 1.4541 0.0017 4.1141V18.3041C0.0017 20.9541 1.4617 22.4041 4.1417 22.4041ZM4.4617 19.3841C3.5317 19.3841 3.0217 18.9241 3.0217 17.9341V4.4841C3.0217 3.4941 3.5317 3.0241 4.4617 3.0241H17.9417C18.8817 3.0241 19.3817 3.4941 19.3817 4.4841V17.9341C19.3817 18.9241 18.8817 19.3841 17.9417 19.3841ZM10.9217 13.3841C11.6517 13.3841 12.1617 13.0041 12.2417 12.4941C12.2417 12.4541 12.2617 12.3941 12.2717 12.3641C12.3517 11.8341 12.8217 11.4641 13.4917 11.0241C14.6817 10.2641 15.3117 9.6141 15.3117 8.3241C15.3117 6.3641 13.5217 5.1341 11.3017 5.1341C9.2917 5.1341 7.8717 5.9841 7.4317 7.1141C7.3517 7.3341 7.3017 7.5441 7.3017 7.7941C7.3017 8.4241 7.7817 8.8941 8.4117 8.8941C8.8917 8.8941 9.2417 8.7141 9.5017 8.3641L9.6417 8.1941C10.0217 7.6241 10.4717 7.3841 11.0417 7.3841C11.7917 7.3841 12.3117 7.8641 12.3117 8.4741C12.3117 9.1241 11.8217 9.4441 10.8917 10.1041C10.0617 10.6641 9.5017 11.2341 9.5017 12.1541V12.2441C9.5017 12.9941 10.0117 13.3841 10.9217 13.3841ZM10.9117 17.1441C11.7917 17.1441 12.4717 16.5841 12.4717 15.7341C12.4717 14.8941 11.7917 14.3341 10.9117 14.3341C10.0317 14.3341 9.3417 14.8941 9.3417 15.7341C9.3417 16.5841 10.0317 17.1441 10.9117 17.1441Z" />
        </svg>
    