
        <svg xmlns="http://www.w3.org/2000/svg" viewBox="0 0 100 100">
            <path d="M20.4217 1.4328C19.2217 0.2228 17.5517 0.0028 15.4217 0.0028H6.4017C4.3017 0.0028 2.6217 0.2328 1.4317 1.4328C0.2217 2.6328 0.0017 4.2928 0.0017 6.4028V15.4128C0.0017 17.5528 0.2217 19.2028 1.4217 20.4128C2.6417 21.6128 4.3017 21.8428 6.4317 21.8428H15.4217C17.5517 21.8428 19.2217 21.6128 20.4217 20.4128C21.6317 19.2028 21.8517 17.5528 21.8517 15.4128V6.4228C21.8517 4.2928 21.6317 2.6328 20.4217 1.4328ZM10.6417 13.3428C9.8917 13.3428 9.4817 12.9928 9.4817 12.2928V12.1628C9.4817 11.0628 10.1117 10.4428 10.9717 9.8328C12.0117 9.1128 12.5117 8.7428 12.5117 7.9728C12.5117 7.1528 11.8617 6.5728 10.8717 6.5728C10.1617 6.5728 9.5817 6.9128 9.1617 7.5828L8.9717 7.8428C8.7317 8.1428 8.4217 8.3428 7.9817 8.3428C7.4917 8.3428 7.0217 7.9728 7.0217 7.3928C7.0217 7.1628 7.0617 6.9528 7.1417 6.7528C7.5217 5.6028 8.9317 4.6628 11.0317 4.6628C13.1917 4.6628 15.0217 5.8128 15.0217 7.8528C15.0217 9.2528 14.2517 9.9728 13.0417 10.7428C12.2617 11.2628 11.8217 11.6828 11.7917 12.3128C11.7817 12.3528 11.7817 12.4128 11.7817 12.4528C11.7417 12.9628 11.3217 13.3428 10.6417 13.3428ZM10.6317 17.0828C9.8417 17.0828 9.1917 16.5128 9.1917 15.7528C9.1917 14.9928 9.8317 14.4028 10.6317 14.4028C11.4117 14.4028 12.0617 14.9728 12.0617 15.7528C12.0617 16.5228 11.4017 17.0828 10.6317 17.0828Z" />
        </svg>
    