
        <svg xmlns="http://www.w3.org/2000/svg" viewBox="0 0 100 100">
            <path d="M12.2223 24.4436C18.9723 24.4436 24.4423 18.9636 24.4423 12.2236C24.4423 5.4736 18.9723 0.0036 12.2223 0.0036C5.4823 0.0036 0.0023 5.4736 0.0023 12.2236C0.0023 18.9636 5.4823 24.4436 12.2223 24.4436ZM11.9323 14.6036C11.0823 14.6036 10.6123 14.2136 10.6123 13.4736V13.3636C10.6123 12.3136 11.2423 11.7036 12.1023 11.0936C13.1123 10.3936 13.6323 10.0436 13.6323 9.3036C13.6323 8.5636 13.0123 8.0236 12.1123 8.0236C11.4523 8.0236 10.9223 8.3236 10.5123 8.9536L10.3523 9.1736C10.0923 9.5136 9.7523 9.7136 9.2823 9.7136C8.7023 9.7136 8.2123 9.2836 8.2123 8.6636C8.2123 8.4236 8.2723 8.2036 8.3523 7.9936C8.7823 6.8236 10.2223 5.9036 12.3323 5.9036C14.5823 5.9036 16.4423 7.1136 16.4423 9.1636C16.4423 10.5536 15.7023 11.2636 14.4723 12.0436C13.7223 12.5436 13.2623 12.9536 13.1923 13.5436C13.1923 13.5836 13.1923 13.6436 13.1823 13.6836C13.1223 14.2036 12.6523 14.6036 11.9323 14.6036ZM11.9223 18.4336C11.0723 18.4336 10.3823 17.8436 10.3823 17.0236C10.3823 16.2236 11.0623 15.6236 11.9223 15.6236C12.7723 15.6236 13.4423 16.2036 13.4423 17.0236C13.4423 17.8636 12.7623 18.4336 11.9223 18.4336Z" />
        </svg>
    