
        <svg xmlns="http://www.w3.org/2000/svg" viewBox="0 0 100 100">
            <path d="M0.0017 21.4534C0.0017 23.9034 1.2117 25.1234 3.6317 25.1234H16.0817C18.5017 25.1234 19.7117 23.9034 19.7117 21.4534V3.6834C19.7117 1.2434 18.5017 0.0034 16.0817 0.0034H3.6317C1.2117 0.0034 0.0017 1.2434 0.0017 3.6834ZM9.5817 10.4834C9.0817 10.4834 8.7917 10.2234 8.7917 9.7034V9.5734C8.7917 8.6234 9.3017 8.1134 9.9817 7.6334C10.8017 7.0634 11.1817 6.7634 11.1817 6.1634C11.1817 5.4734 10.6617 5.0134 9.8117 5.0134C9.1717 5.0134 8.7117 5.3334 8.4017 5.8834L8.2417 6.0934C8.0617 6.3434 7.8617 6.4934 7.5117 6.4934C7.1817 6.4934 6.8217 6.2434 6.8217 5.8034C6.8217 5.6634 6.8317 5.5334 6.8717 5.4034C7.1217 4.3334 8.4817 3.6434 9.8817 3.6434C11.4817 3.6434 12.9017 4.5134 12.9017 6.0934C12.9017 7.2334 12.2317 7.8134 11.3217 8.4134C10.6717 8.8434 10.3917 9.1534 10.3917 9.6434V9.7734C10.3917 10.1734 10.0817 10.4834 9.5817 10.4834ZM9.5717 13.2734C8.9917 13.2734 8.4917 12.8134 8.4917 12.2534C8.4917 11.6834 8.9717 11.2134 9.5717 11.2134C10.1517 11.2134 10.6317 11.6734 10.6317 12.2534C10.6317 12.8234 10.1217 13.2734 9.5717 13.2734ZM5.3917 16.3134C4.9717 16.3134 4.6517 15.9834 4.6517 15.5734C4.6517 15.1734 4.9717 14.8734 5.3917 14.8734H14.3417C14.7617 14.8734 15.0717 15.1734 15.0717 15.5734C15.0717 15.9834 14.7617 16.3134 14.3417 16.3134ZM5.3917 19.8234C4.9717 19.8234 4.6517 19.5234 4.6517 19.1234C4.6517 18.7134 4.9717 18.3834 5.3917 18.3834H9.6217C10.0417 18.3834 10.3517 18.7134 10.3517 19.1234C10.3517 19.5234 10.0417 19.8234 9.6217 19.8234Z" />
        </svg>
    