
        <svg xmlns="http://www.w3.org/2000/svg" viewBox="0 0 100 100">
            <path d="M0.0017 21.6142C0.0017 23.6942 1.0817 24.7742 3.1517 24.7742H15.7817C17.8517 24.7742 18.9417 23.6942 18.9417 21.6142V3.1642C18.9417 1.0942 17.8517 0.0042 15.7817 0.0042H3.1517C1.0817 0.0042 0.0017 1.0942 0.0017 3.1642ZM9.2817 10.1642C9.0317 10.1642 8.8617 10.0042 8.8617 9.7342V9.3842C8.8617 8.5042 9.2217 7.9642 10.1017 7.3742C11.0817 6.6642 11.4517 6.2442 11.4517 5.5442C11.4517 4.6242 10.6917 3.9842 9.4617 3.9842C8.3217 3.9842 7.5317 4.7842 7.4717 5.6142L7.4417 5.7542C7.4017 5.9542 7.2417 6.0742 7.0317 6.0742C6.8217 6.0742 6.6417 5.9142 6.6417 5.6642C6.6417 5.5042 6.6417 5.4142 6.6717 5.2942C6.8217 4.1742 7.9217 3.2242 9.4917 3.2242C11.1117 3.2242 12.3117 4.1742 12.3117 5.4942C12.3117 6.4942 11.8617 7.1242 10.7717 7.8542C9.9717 8.4142 9.7017 8.7842 9.7017 9.4242V9.7542C9.7017 9.9942 9.5117 10.1642 9.2817 10.1642ZM9.2717 12.9242C8.8217 12.9242 8.4717 12.5742 8.4717 12.1542C8.4717 11.7442 8.8217 11.3642 9.2717 11.3642C9.6917 11.3642 10.0517 11.7442 10.0517 12.1542C10.0517 12.5742 9.6917 12.9242 9.2717 12.9242ZM4.5517 15.6342C4.3117 15.6342 4.1517 15.4542 4.1517 15.2442C4.1517 15.0242 4.3117 14.8642 4.5517 14.8642H14.4417C14.6717 14.8642 14.8317 15.0242 14.8317 15.2442C14.8317 15.4542 14.6717 15.6342 14.4417 15.6342ZM4.5517 19.3042C4.3117 19.3042 4.1517 19.1242 4.1517 18.9142C4.1517 18.7042 4.3117 18.5242 4.5517 18.5242H9.4017C9.6217 18.5242 9.8017 18.7042 9.8017 18.9142C9.8017 19.1242 9.6217 19.3042 9.4017 19.3042Z" />
        </svg>
    