
        <svg xmlns="http://www.w3.org/2000/svg" viewBox="0 0 100 100">
            <path d="M7.2117 24.2481C7.7817 24.2481 8.1817 23.9381 8.8917 23.3081L12.9417 19.7081H20.4617C23.9517 19.7081 25.8317 17.7781 25.8317 14.3481V5.3681C25.8317 1.9381 23.9517 -0.0019 20.4617 -0.0019H5.3717C1.8717 -0.0019 0.0017 1.9181 0.0017 5.3681V14.3481C0.0017 17.7881 1.8717 19.7081 5.3717 19.7081H5.9317V22.7581C5.9317 23.6581 6.3917 24.2481 7.2117 24.2481ZM7.6917 22.0981V18.6981C7.6917 18.0681 7.4417 17.8281 6.8117 17.8281H5.3717C3.0017 17.8281 1.8917 16.6181 1.8917 14.3281V5.3681C1.8917 3.0781 3.0017 1.8881 5.3717 1.8881H20.4617C22.8117 1.8881 23.9417 3.0781 23.9417 5.3681V14.3281C23.9417 16.6181 22.8117 17.8281 20.4617 17.8281H12.8717C12.2117 17.8281 11.8817 17.9181 11.4417 18.3781ZM12.6917 12.2781C13.2817 12.2781 13.6317 11.9081 13.6317 11.4481V11.3081C13.6317 10.6481 14.0117 10.2281 14.8317 9.6881C15.9717 8.9381 16.7817 8.2581 16.7817 6.8581C16.7817 4.9081 15.0517 3.8681 13.0517 3.8681C11.0417 3.8681 9.7117 4.8181 9.3917 5.8981C9.3317 6.0781 9.2917 6.2681 9.2917 6.4681C9.2917 6.9981 9.7017 7.2781 10.1017 7.2781C10.5017 7.2781 10.7417 7.0881 10.9617 6.8081L11.1717 6.5281C11.5817 5.8481 12.2017 5.4481 12.9717 5.4481C14.0517 5.4481 14.7417 6.0581 14.7417 6.9481C14.7417 7.7481 14.2517 8.1281 13.2217 8.8481C12.3917 9.4381 11.7517 10.0581 11.7517 11.1981V11.3581C11.7517 11.9681 12.0817 12.2781 12.6917 12.2781ZM12.6517 15.7781C13.3317 15.7781 13.9217 15.2481 13.9217 14.5581C13.9217 13.8781 13.3517 13.3481 12.6517 13.3481C11.9717 13.3481 11.4017 13.8881 11.4017 14.5581C11.4017 15.2381 11.9917 15.7781 12.6517 15.7781Z" />
        </svg>
    