
        <svg xmlns="http://www.w3.org/2000/svg" viewBox="0 0 100 100">
            <path d="M3.6817 21.5722H17.8917C20.3517 21.5722 21.5717 20.3722 21.5717 17.9522V3.6322C21.5717 1.2222 20.3517 0.0022 17.8917 0.0022H3.6817C1.2317 0.0022 0.0017 1.2222 0.0017 3.6322V17.9522C0.0017 20.3722 1.2317 21.5722 3.6817 21.5722ZM3.7017 19.6922C2.5317 19.6922 1.8917 19.0622 1.8917 17.8522V3.7422C1.8917 2.5222 2.5317 1.8822 3.7017 1.8822H17.8717C19.0317 1.8822 19.6917 2.5222 19.6917 3.7422V17.8522C19.6917 19.0622 19.0317 19.6922 17.8717 19.6922ZM10.5617 13.2022C11.1517 13.2022 11.5117 12.8322 11.5117 12.3722V12.2322C11.5117 11.5822 11.8917 11.1522 12.7017 10.6122C13.8417 9.8622 14.6517 9.1922 14.6517 7.7822C14.6517 5.8322 12.9117 4.7822 10.9217 4.7822C8.9217 4.7822 7.5917 5.7422 7.2617 6.8222C7.2117 7.0122 7.1717 7.1922 7.1717 7.3922C7.1717 7.9222 7.5817 8.2022 7.9717 8.2022C8.3817 8.2022 8.6217 8.0122 8.8317 7.7322L9.0517 7.4522C9.4617 6.7722 10.0817 6.3722 10.8517 6.3722C11.9217 6.3722 12.6117 6.9822 12.6117 7.8722C12.6117 8.6722 12.1217 9.0622 11.1017 9.7722C10.2517 10.3622 9.6217 10.9822 9.6217 12.1322V12.2822C9.6217 12.8922 9.9617 13.2022 10.5617 13.2022ZM10.5317 16.7022C11.2117 16.7022 11.8017 16.1622 11.8017 15.4822C11.8017 14.8022 11.2217 14.2622 10.5317 14.2622C9.8417 14.2622 9.2717 14.8122 9.2717 15.4822C9.2717 16.1522 9.8517 16.7022 10.5317 16.7022Z" />
        </svg>
    