
        <svg xmlns="http://www.w3.org/2000/svg" viewBox="0 0 100 100">
            <path d="M4.3817 23.0583H23.3817C26.0617 23.0583 27.6417 21.4783 27.6417 18.6983V6.5983C27.6417 3.8083 26.0517 2.2283 23.2617 2.2283H13.4717C12.5117 2.2283 11.9217 2.0183 11.1017 1.3983L10.5717 0.9883C9.5817 0.2483 8.9517 -0.0017 7.5117 -0.0017H4.2617C1.6517 -0.0017 0.0017 1.6183 0.0017 4.4083V18.6983C0.0017 21.4783 1.5917 23.0583 4.3817 23.0583ZM4.8717 19.4383C4.0417 19.4383 3.6217 19.0683 3.6217 18.1883V4.9083C3.6217 4.0983 4.1417 3.6283 4.9617 3.6283H6.5317C7.4917 3.6283 8.0517 3.8283 8.8917 4.4683L9.4217 4.8783C10.4017 5.6083 11.0517 5.8583 12.4917 5.8583H22.7717C23.5917 5.8583 24.0217 6.2183 24.0217 7.1083V18.1883C24.0217 19.0683 23.5917 19.4383 22.7717 19.4383ZM13.5317 14.4983C14.2717 14.4983 14.8117 14.1483 14.9317 13.6483C14.9417 13.6183 14.9517 13.5683 14.9617 13.5383C15.0817 13.1283 15.5517 12.7883 16.0917 12.4483C17.2117 11.7583 17.7117 11.1583 17.7117 10.0283C17.7117 8.2483 16.0417 7.0383 13.8917 7.0383C12.0717 7.0383 10.7117 7.7683 10.2617 8.8283C10.1717 9.0483 10.1117 9.2483 10.1117 9.4783C10.1117 10.1083 10.6017 10.6283 11.3017 10.6283C11.7617 10.6283 12.1417 10.4783 12.4017 10.1283L12.4917 10.0083C12.8117 9.5583 13.1617 9.4083 13.5717 9.4083C14.1017 9.4083 14.4917 9.7783 14.4917 10.2083C14.4917 10.7483 14.0617 11.0083 13.2417 11.5583C12.5017 12.0683 12.0117 12.5583 12.0117 13.2883V13.3483C12.0117 14.0983 12.5517 14.4983 13.5317 14.4983ZM13.5317 18.0583C14.4417 18.0583 15.0917 17.5283 15.0917 16.6783C15.0917 15.8283 14.4417 15.3083 13.5317 15.3083C12.6317 15.3083 11.9517 15.8283 11.9517 16.6783C11.9517 17.5283 12.6417 18.0583 13.5317 18.0583Z" />
        </svg>
    