
        <svg xmlns="http://www.w3.org/2000/svg" viewBox="0 0 100 100">
            <path d="M0.0017 5.7861C0.0017 8.9961 2.3117 11.4861 5.3117 11.4861C6.7617 11.4861 8.0817 10.9461 9.0217 9.8661H9.4217C8.7817 12.0161 6.7417 13.8961 4.0617 14.6261C3.6917 14.7461 3.4017 14.8461 3.2317 15.0261C3.0317 15.1761 2.9417 15.3961 2.9417 15.6761C2.9417 16.2061 3.3517 16.5861 3.9417 16.5861C4.4017 16.5861 4.7217 16.4961 5.3217 16.3161C6.9017 15.7861 8.3517 14.8661 9.4917 13.6861C11.1117 11.9861 12.0617 9.7361 12.0617 7.1361C12.0617 2.6161 9.2117 -0.0039 5.7917 -0.0039C2.4817 -0.0039 0.0017 2.4861 0.0017 5.7861ZM14.4817 5.7861C14.4817 8.9961 16.7917 11.4861 19.7917 11.4861C21.2417 11.4861 22.5517 10.9461 23.5117 9.8661H23.8917C23.2617 12.0161 21.2117 13.8961 18.5417 14.6261C18.1617 14.7461 17.8817 14.8461 17.7217 15.0261C17.5217 15.1761 17.4117 15.3961 17.4117 15.6761C17.4117 16.2061 17.8317 16.5861 18.4317 16.5861C18.8817 16.5861 19.2117 16.4961 19.7917 16.3161C21.3717 15.7861 22.8317 14.8661 23.9617 13.6861C25.5917 11.9861 26.5417 9.7361 26.5417 7.1361C26.5417 2.6161 23.6917 -0.0039 20.2717 -0.0039C16.9617 -0.0039 14.4817 2.4861 14.4817 5.7861Z" />
        </svg>
    