
        <svg xmlns="http://www.w3.org/2000/svg" viewBox="0 0 100 100">
            <path d="M13.1617 11.4103C13.1617 7.9003 10.8617 5.4003 7.7417 5.4003C6.1317 5.4003 4.8617 5.9303 3.9517 7.0003H3.3417C3.8417 5.0703 5.8517 3.1103 8.8817 2.4503C9.2817 2.3603 9.5817 2.2103 9.8017 1.9803C9.9917 1.7803 10.1117 1.4803 10.1117 1.1403C10.1117 0.4803 9.5517 0.0003 8.8017 0.0003C8.0617 0.0003 7.5717 0.1203 6.7217 0.3903C5.2517 0.9003 3.8117 1.7803 2.6217 3.0103C0.8717 4.8603 0.0017 7.2903 0.0017 9.9103C0.0017 14.8403 3.0217 17.7103 6.9517 17.7103C10.5317 17.7103 13.1617 15.1303 13.1617 11.4103ZM28.9717 11.4103C28.9717 7.9003 26.6717 5.4003 23.5517 5.4003C21.9217 5.4003 20.6617 5.9303 19.7717 7.0003H19.1417C19.6517 5.0703 21.6417 3.1103 24.6817 2.4503C25.0917 2.3603 25.3917 2.2103 25.5917 1.9803C25.8017 1.7803 25.9117 1.4803 25.9117 1.1403C25.9117 0.4803 25.3517 0.0003 24.6117 0.0003C23.8717 0.0003 23.3817 0.1203 22.5317 0.3903C21.0617 0.9003 19.6217 1.7803 18.4317 3.0103C16.6717 4.8603 15.8117 7.2903 15.8117 9.9103C15.8117 14.8403 18.8317 17.7103 22.7417 17.7103C26.3417 17.7103 28.9717 15.1303 28.9717 11.4103Z" />
        </svg>
    