
        <svg xmlns="http://www.w3.org/2000/svg" viewBox="0 0 100 100">
            <path d="M7.2817 24.7242C7.7717 24.7242 8.1317 24.4942 8.7217 23.9642L13.0117 20.0842H20.7517C24.2717 20.0842 26.2517 18.0742 26.2517 14.5942V5.4942C26.2517 2.0142 24.2717 0.0042 20.7517 0.0042H5.5117C1.9817 0.0042 0.0017 2.0142 0.0017 5.4942V14.5942C0.0017 18.0742 2.0317 20.0842 5.4217 20.0842H6.1617V23.4642C6.1617 24.2342 6.5717 24.7242 7.2817 24.7242ZM7.1917 8.7842C7.1917 7.3042 8.3117 6.2442 9.8117 6.2442C11.4517 6.2442 12.5317 7.5842 12.5317 9.2842C12.5317 12.2542 10.1117 13.8042 8.8217 13.8042C8.4617 13.8042 8.1917 13.5542 8.1917 13.2342C8.1917 12.9242 8.3317 12.7342 8.7817 12.6242C9.6717 12.3942 10.5817 11.7342 10.9817 10.7742H10.8517C10.5117 11.1642 10.0117 11.2742 9.4617 11.2742C8.0817 11.2742 7.1917 10.1942 7.1917 8.7842ZM13.8017 8.7842C13.8017 7.3042 14.9017 6.2442 16.4017 6.2442C18.0517 6.2442 19.1417 7.5842 19.1417 9.2842C19.1417 12.2542 16.7217 13.8042 15.4317 13.8042C15.0717 13.8042 14.8017 13.5542 14.8017 13.2342C14.8017 12.9242 14.9517 12.7342 15.3717 12.6242C16.2817 12.3942 17.1917 11.7342 17.5917 10.7742H17.4517C17.1217 11.1642 16.6017 11.2742 16.0617 11.2742C14.6817 11.2742 13.8017 10.1942 13.8017 8.7842Z" />
        </svg>
    