
        <svg xmlns="http://www.w3.org/2000/svg" viewBox="0 0 100 100">
            <path d="M9.3323 1.5003L11.7423 4.7203C12.0823 5.1703 12.7023 5.1703 13.0323 4.7203L15.4523 1.5003C15.9623 0.8303 15.6923 0.0003 14.8123 0.0003H9.9623C9.1123 0.0003 8.8123 0.8203 9.3323 1.5003ZM12.4023 22.2103C19.9423 22.2103 24.7823 18.8603 24.7823 14.1403C24.7823 9.4403 19.9323 6.1103 12.3723 6.1103C4.8523 6.1103 0.0023 9.4403 0.0023 14.1403C0.0023 18.8603 4.8523 22.2103 12.4023 22.2103ZM12.4023 19.8703C6.4723 19.8703 2.4923 17.5703 2.4923 14.1403C2.4923 10.7303 6.4723 8.4303 12.3723 8.4303C18.3023 8.4303 22.3023 10.7303 22.3023 14.1403C22.3023 17.5703 18.3123 19.8703 12.4023 19.8703ZM10.4723 17.6903C10.9823 17.6903 11.2823 17.3603 11.2823 16.7903V15.1603H12.3623L13.6023 17.1803C13.8523 17.5703 14.0523 17.7103 14.4023 17.7103C14.8223 17.7103 15.1623 17.4103 15.1623 16.9903C15.1623 16.7803 15.1023 16.6203 14.9723 16.4403L13.9723 14.8803C14.8223 14.5503 15.3523 13.7703 15.3523 12.8203C15.3523 11.3803 14.3223 10.4803 12.6823 10.4803H10.5223C9.9923 10.4803 9.6723 10.8303 9.6723 11.4103V16.7903C9.6723 17.3603 9.9823 17.6903 10.4723 17.6903ZM11.2823 13.9203V11.7503H12.4923C13.2423 11.7503 13.7023 12.1803 13.7023 12.8603C13.7023 13.5203 13.2523 13.9203 12.4723 13.9203ZM12.4023 27.4303C15.4123 27.4303 17.2223 26.0203 17.2223 23.6203V23.2103C15.7523 23.5403 14.1323 23.7203 12.4023 23.7203C10.6523 23.7203 9.0323 23.5403 7.5623 23.2103V23.6203C7.5623 26.0203 9.3723 27.4303 12.4023 27.4303Z" />
        </svg>
    