
        <svg xmlns="http://www.w3.org/2000/svg" viewBox="0 0 100 100">
            <path d="M14.7023 -0.0038C6.5823 -0.0038 0.0023 6.5863 0.0023 14.6963C0.0023 22.7963 6.5823 29.3863 14.7023 29.3863C20.8223 29.3863 26.1023 25.6163 28.3123 20.2763C27.2623 20.5663 26.1823 20.3163 25.3923 19.6763C23.4923 23.6963 19.4223 26.4863 14.7023 26.4863C8.2023 26.4863 2.8923 21.1963 2.8923 14.6963C2.8923 8.1962 8.2023 2.9063 14.7023 2.9063C19.4223 2.9063 23.4923 5.6962 25.3923 9.7263C26.1823 9.0863 27.2623 8.8363 28.3023 9.1163C26.1023 3.7763 20.8323 -0.0038 14.7023 -0.0038ZM14.7023 24.4463C20.0723 24.4463 24.4523 20.0663 24.4523 14.6963C24.4523 9.3163 20.0723 4.9363 14.7023 4.9363C9.3323 4.9363 4.9323 9.3163 4.9323 14.6963C4.9323 20.0663 9.3323 24.4463 14.7023 24.4463ZM12.7023 19.1163C11.8723 19.1163 11.4223 18.6363 11.4223 17.8163V11.5763C11.4223 10.6563 11.9723 10.2463 12.7023 10.2463H14.9223C16.9023 10.2463 18.3123 11.1463 18.3123 13.2063C18.3123 14.1563 17.8923 15.1363 17.0623 15.6163L17.8523 17.0063C17.9723 17.2463 18.1323 17.5763 18.1323 17.9263C18.1323 18.6563 17.6923 19.1163 16.9923 19.1163C16.3323 19.1163 15.9823 18.8663 15.6723 18.2063L14.6123 16.0563H13.9523V17.8163C13.9523 18.5363 13.5823 19.1163 12.7023 19.1163ZM28.1323 11.4863C27.3823 10.9063 26.4623 11.2463 26.4623 12.1962V17.1662C26.4623 18.1563 27.3723 18.4963 28.1323 17.9063L31.3923 15.3863C31.8623 15.0263 31.8723 14.3563 31.3923 13.9963ZM13.9523 14.3563H14.6823C15.3723 14.3563 15.7523 13.9463 15.7523 13.2563C15.7523 12.5963 15.3523 12.1163 14.6823 12.1163H13.9523Z" />
        </svg>
    