
        <svg xmlns="http://www.w3.org/2000/svg" viewBox="0 0 100 100">
            <path d="M28.8123 14.4267C28.8123 6.4667 22.3623 -0.0033 14.4023 -0.0033C6.4523 -0.0033 0.0023 6.4667 0.0023 14.4267C0.0023 20.4767 3.7623 25.6867 9.0723 27.8067C8.8223 26.8467 9.0623 25.8767 9.6423 25.1567C5.5323 23.3167 2.6623 19.2067 2.6623 14.4267C2.6623 7.9467 7.9223 2.6767 14.4023 2.6767C20.8923 2.6767 26.1523 7.9467 26.1523 14.4267C26.1523 19.2067 23.2723 23.3167 19.1523 25.1567C19.7323 25.8767 19.9723 26.8467 19.7323 27.7967C25.0423 25.6867 28.8123 20.4967 28.8123 14.4267ZM4.7423 14.4267C4.7423 19.7467 9.0823 24.0867 14.4023 24.0867C19.7323 24.0867 24.0723 19.7467 24.0723 14.4267C24.0723 9.1067 19.7323 4.7467 14.4023 4.7467C9.0823 4.7467 4.7423 9.1067 4.7423 14.4267ZM12.2823 18.8867C11.5123 18.8867 11.1023 18.4367 11.1023 17.6567V11.1567C11.1023 10.3167 11.5923 9.8867 12.2823 9.8867H14.6323C16.6523 9.8867 18.0423 10.8667 18.0423 12.8767C18.0423 13.8967 17.5523 14.8967 16.6623 15.3767L17.5923 16.9367C17.7223 17.1767 17.8523 17.4767 17.8523 17.7967C17.8523 18.4667 17.4223 18.8867 16.7823 18.8867C16.1823 18.8867 15.8423 18.6667 15.5523 18.0667L14.3523 15.7567H13.4723V17.6567C13.4723 18.3667 13.1023 18.8867 12.2823 18.8867ZM13.4723 14.1367H14.4123C15.2123 14.1367 15.6523 13.6867 15.6523 12.9267C15.6523 12.1867 15.1923 11.6767 14.4223 11.6767H13.4723ZM17.5123 27.6867C18.0423 26.9767 17.7223 26.0767 16.8023 26.0767H12.0123C11.0623 26.0767 10.7423 26.9667 11.2923 27.6867L13.7323 30.8567C14.0823 31.3167 14.7423 31.3267 15.0923 30.8567Z" />
        </svg>
    