
        <svg xmlns="http://www.w3.org/2000/svg" viewBox="0 0 100 100">
            <path d="M9.1323 1.2236L11.3323 4.1736C11.6223 4.5536 12.1623 4.5536 12.4523 4.1736L14.6723 1.2236C15.0723 0.6936 14.8523 0.0036 14.1523 0.0036H9.6323C8.9523 0.0036 8.7023 0.6836 9.1323 1.2236ZM11.8323 20.6336C19.2323 20.6336 23.6723 17.3036 23.6723 13.1836C23.6723 9.0536 19.2323 5.7336 11.8223 5.7336C4.4423 5.7336 0.0023 9.0536 0.0023 13.1836C0.0023 17.3036 4.4423 20.6336 11.8323 20.6336ZM9.8923 16.7536C9.5423 16.7536 9.3123 16.5036 9.3123 16.1236V10.0936C9.3123 9.6936 9.5423 9.4336 9.8823 9.4336H12.0823C13.5823 9.4336 14.5923 10.3636 14.5923 11.7436C14.5923 12.7136 14.0123 13.5236 13.1123 13.8236L14.3323 15.8236C14.4223 15.9636 14.4723 16.0936 14.4723 16.2536C14.4723 16.5536 14.2223 16.7736 13.9323 16.7736C13.6723 16.7736 13.5223 16.6536 13.3723 16.3936L11.9423 14.0136H10.4923V16.1236C10.4923 16.5036 10.2523 16.7536 9.8923 16.7536ZM10.4923 13.0636H11.9723C12.8823 13.0636 13.4223 12.5636 13.4223 11.7536C13.4223 10.9336 12.8623 10.4136 11.9923 10.4136H10.4923ZM11.8323 25.5736C14.6323 25.5736 16.3023 24.3136 16.3023 22.1936V21.5636C14.9223 21.8436 13.4323 21.9936 11.8323 21.9936C10.2423 21.9936 8.7523 21.8436 7.3723 21.5636V22.1936C7.3723 24.3136 9.0223 25.5736 11.8323 25.5736Z" />
        </svg>
    