
        <svg xmlns="http://www.w3.org/2000/svg" viewBox="0 0 100 100">
            <path d="M28.1723 14.0986C28.1723 6.3186 21.8523 -0.0014 14.0823 -0.0014C6.3123 -0.0014 0.0023 6.3186 0.0023 14.0986C0.0023 20.0786 3.7523 25.2086 9.0223 27.2486C8.8223 26.3786 9.0423 25.5086 9.5723 24.8686C5.3523 23.0986 2.3923 18.9386 2.3923 14.0986C2.3923 7.6286 7.6123 2.3886 14.0823 2.3886C20.5423 2.3886 25.7823 7.6386 25.7823 14.0986C25.7823 18.9486 22.8123 23.0986 18.5823 24.8786C19.1023 25.5086 19.3223 26.3786 19.1323 27.2386C24.4123 25.2186 28.1723 20.0886 28.1723 14.0986ZM4.5223 14.0986C4.5223 19.3686 8.8123 23.6486 14.0823 23.6486C19.3623 23.6486 23.6323 19.3686 23.6323 14.0986C23.6323 8.8286 19.3623 4.5186 14.0823 4.5186C8.8123 4.5186 4.5223 8.8286 4.5223 14.0986ZM11.8323 18.6186C11.1223 18.6186 10.7423 18.1886 10.7423 17.4686V10.6686C10.7423 9.8986 11.1823 9.4686 11.8223 9.4686H14.3523C16.3923 9.4686 17.7823 10.5386 17.7823 12.4886C17.7823 13.5786 17.1923 14.5986 16.2323 15.0586L17.3123 16.8386C17.4523 17.0586 17.5623 17.3286 17.5623 17.6286C17.5623 18.2186 17.1523 18.6186 16.5423 18.6186C16.0323 18.6186 15.7123 18.4186 15.4323 17.8786L14.0723 15.4186H12.9523V17.4686C12.9523 18.1386 12.5723 18.6186 11.8323 18.6186ZM12.9523 13.8486H14.1323C15.0423 13.8486 15.5623 13.3786 15.5623 12.5286C15.5623 11.6986 15.0223 11.1586 14.1423 11.1586H12.9523ZM17.0523 27.1886C17.5823 26.4986 17.2623 25.6186 16.3823 25.6186H11.7923C10.8723 25.6186 10.5823 26.4986 11.1023 27.1786L13.4223 30.2186C13.7723 30.6786 14.4023 30.6886 14.7523 30.2186Z" />
        </svg>
    