
        <svg xmlns="http://www.w3.org/2000/svg" viewBox="0 0 100 100">
            <path d="M16.7752 -0.005C10.7052 -0.005 5.5152 3.775 3.4052 9.085C4.3552 8.845 5.3252 9.085 6.0452 9.665C7.8852 5.545 11.9952 2.665 16.7752 2.665C23.2552 2.665 28.5352 7.935 28.5352 14.415C28.5352 20.895 23.2552 26.155 16.7752 26.155C11.9952 26.155 7.8852 23.285 6.0452 19.175C5.3252 19.755 4.3552 19.995 3.3952 19.745C5.5152 25.055 10.7252 28.815 16.7752 28.815C24.7352 28.815 31.1952 22.355 31.1952 14.415C31.1952 6.455 24.7352 -0.005 16.7752 -0.005ZM16.7752 24.075C22.0952 24.075 26.4552 19.735 26.4552 14.415C26.4552 9.085 22.0952 4.745 16.7752 4.745C11.4552 4.745 7.1252 9.085 7.1252 14.415C7.1252 19.735 11.4552 24.075 16.7752 24.075ZM16.7752 21.035C13.1252 21.035 10.1552 18.075 10.1552 14.415C10.1552 10.755 13.1252 7.785 16.7752 7.785C20.4452 7.785 23.4052 10.755 23.4052 14.415C23.4052 18.075 20.4452 21.035 16.7752 21.035ZM14.7952 18.605C15.5552 18.605 15.9052 18.115 15.9052 17.445V15.665H16.7452L17.8652 17.825C18.1552 18.385 18.4652 18.605 19.0152 18.605C19.6352 18.605 20.0252 18.195 20.0252 17.575C20.0252 17.285 19.8952 17.005 19.7752 16.785L18.9052 15.295C19.7452 14.855 20.2152 13.925 20.2152 12.965C20.2152 11.075 18.8952 10.165 17.0252 10.165H14.7952C14.1552 10.165 13.6852 10.545 13.6852 11.335V17.445C13.6852 18.175 14.0852 18.605 14.7952 18.605ZM3.5152 11.305L0.3452 13.725C-0.1248 14.075 -0.1148 14.735 0.3452 15.085L3.5152 17.515C4.2352 18.075 5.1252 17.755 5.1252 16.805V12.015C5.1252 11.095 4.2252 10.765 3.5152 11.305ZM15.9052 14.145V11.825H16.8152C17.5352 11.825 17.9752 12.295 17.9752 13.005C17.9752 13.725 17.5652 14.145 16.8052 14.145Z" />
        </svg>
    