
        <svg xmlns="http://www.w3.org/2000/svg" viewBox="0 0 100 100">
            <path d="M4.5917 23.2359H18.6417C21.5417 23.2359 23.2417 21.5459 23.2417 18.6459V4.5959C23.2417 1.6959 21.5417 -0.0041 18.6417 -0.0041H4.5917C1.7017 -0.0041 0.0017 1.6959 0.0017 4.5959V18.6459C0.0017 21.5459 1.7017 23.2359 4.5917 23.2359ZM8.3717 17.4059C7.1817 17.4059 6.5317 16.6659 6.5317 15.3559V8.4959C6.5317 6.9359 7.3117 6.1259 8.8617 6.1259H12.0317C15.0717 6.1259 16.7217 7.4059 16.7217 9.8159C16.7217 11.3459 15.9117 12.5359 14.5517 12.9359L15.8117 14.6159C16.1017 14.9959 16.2217 15.3359 16.2217 15.7859C16.2217 16.7359 15.4917 17.4059 14.4517 17.4059C13.6417 17.4059 13.1817 17.0759 12.5317 16.0159L11.0617 13.6859H10.2217V15.3559C10.2217 16.6559 9.5317 17.4059 8.3717 17.4059ZM10.2217 10.9659H11.5617C12.2617 10.9659 12.7017 10.5359 12.7017 9.9159C12.7017 9.2859 12.2917 8.8559 11.5817 8.8559H10.2217Z" />
        </svg>
    