
        <svg xmlns="http://www.w3.org/2000/svg" viewBox="0 0 100 100">
            <path d="M3.6817 21.5722H17.8917C20.3517 21.5722 21.5717 20.3722 21.5717 17.9522V3.6322C21.5717 1.2222 20.3517 0.0022 17.8917 0.0022H3.6817C1.2317 0.0022 0.0017 1.2222 0.0017 3.6322V17.9522C0.0017 20.3722 1.2317 21.5722 3.6817 21.5722ZM3.7017 19.6922C2.5317 19.6922 1.8917 19.0622 1.8917 17.8522V3.7422C1.8917 2.5222 2.5317 1.8822 3.7017 1.8822H17.8717C19.0317 1.8822 19.6917 2.5222 19.6917 3.7422V17.8522C19.6917 19.0622 19.0317 19.6922 17.8717 19.6922ZM7.7917 16.1522C8.4117 16.1522 8.7417 15.7522 8.7417 15.1022V12.1922H10.9217L12.9517 15.5322C13.2317 15.9822 13.4717 16.1522 13.8917 16.1522C14.3917 16.1522 14.7417 15.8222 14.7417 15.3522C14.7417 15.0922 14.6717 14.9022 14.5317 14.6722L12.7717 11.9222C14.1417 11.4622 15.0317 10.2322 15.0317 8.7822C15.0317 6.6722 13.5317 5.3322 11.1517 5.3322H7.7817C7.1817 5.3322 6.8717 5.7522 6.8717 6.3822V15.1022C6.8717 15.7222 7.1917 16.1522 7.7917 16.1522ZM8.7417 10.8122V6.7622H10.9217C12.2717 6.7622 13.1817 7.5122 13.1817 8.8222C13.1817 10.1022 12.2917 10.8122 10.8717 10.8122Z" />
        </svg>
    