
        <svg xmlns="http://www.w3.org/2000/svg" viewBox="0 0 100 100">
            <path d="M3.0117 20.5048H17.4917C19.4517 20.5048 20.5117 19.4248 20.5117 17.4948V3.0148C20.5117 1.0748 19.4517 0.0048 17.4917 0.0048H3.0117C1.0417 0.0048 0.0017 1.0448 0.0017 3.0148V17.4948C0.0017 19.4648 1.0417 20.5048 3.0117 20.5048ZM7.3317 15.4948C7.1717 15.4948 7.0417 15.3648 7.0417 15.1948V5.4448C7.0417 5.2548 7.1417 5.1248 7.3117 5.1248H10.5117C12.3417 5.1248 13.6217 6.3348 13.6217 8.0948C13.6217 9.6248 12.6717 10.7548 11.1917 11.0248L13.4717 14.9248C13.5617 15.0848 13.5917 15.1448 13.5917 15.2348C13.5917 15.3948 13.4917 15.4948 13.3317 15.4948C13.1717 15.4948 13.1017 15.4348 12.9917 15.2648L10.5817 11.0748H7.6417V15.1948C7.6417 15.3648 7.5217 15.4948 7.3317 15.4948ZM7.6417 10.5048H10.5517C12.0117 10.5048 13.0117 9.5148 13.0117 8.0948C13.0117 6.6548 12.0117 5.6948 10.5517 5.6948H7.6417Z" />
        </svg>
    