
        <svg xmlns="http://www.w3.org/2000/svg" viewBox="0 0 100 100">
            <path d="M9.9517 21.4536H17.8517C24.8317 21.4536 27.8017 18.3936 27.8017 11.5436V4.0736C27.8017 1.4536 26.3417 0.0036 23.7117 0.0036H4.1017C1.4517 0.0036 0.0017 1.4436 0.0017 4.0736V11.5436C0.0017 18.3936 2.9617 21.4536 9.9517 21.4536ZM10.0517 18.4336C5.1217 18.4336 3.0217 16.3336 3.0217 11.5636V4.4436C3.0217 3.5136 3.5317 3.0236 4.4317 3.0236H23.3717C24.2717 3.0236 24.7717 3.5136 24.7717 4.4436V11.5636C24.7717 16.3336 22.6717 18.4336 17.7417 18.4336ZM18.1217 15.4136C18.6717 15.4136 19.1117 14.9636 19.1117 14.4136V7.1436C19.1117 6.4336 18.6817 6.0336 17.9517 6.0336C17.4017 6.0336 17.0017 6.2836 16.6517 6.5536L15.5717 7.3936C15.2917 7.5936 15.1417 7.8436 15.1417 8.1636C15.1417 8.6336 15.4617 8.8836 15.8117 8.8836C16.0117 8.8836 16.1417 8.8236 16.2917 8.7036L17.1217 8.0536V14.4136C17.1217 14.9636 17.5617 15.4136 18.1217 15.4136ZM9.5617 15.4336C10.1917 15.4336 10.5517 15.0336 10.5517 14.3936V11.9536H11.3117L12.2617 14.5936C12.4417 15.1536 12.7617 15.4336 13.2917 15.4336C13.7917 15.4336 14.2417 15.0836 14.2217 14.4536C14.2117 14.2736 14.1717 14.0736 14.0617 13.8436L13.1617 11.5336C13.9717 11.0436 14.3117 10.0536 14.3117 9.0936C14.3117 7.1736 13.2117 6.1836 11.3817 6.1836H9.5517C8.8917 6.1836 8.5517 6.5836 8.5517 7.2336V14.3936C8.5517 15.0336 8.9017 15.4336 9.5617 15.4336ZM10.5517 10.5536V7.7236H11.2017C11.9317 7.7236 12.2817 8.3936 12.2817 9.1436C12.2817 9.8936 11.9617 10.5536 11.1917 10.5536Z" />
        </svg>
    