
        <svg xmlns="http://www.w3.org/2000/svg" viewBox="0 0 100 100">
            <path d="M11.7523 23.5048C18.2323 23.5048 23.5123 18.2348 23.5123 11.7548C23.5123 5.2748 18.2323 0.0048 11.7523 0.0048C5.2723 0.0048 0.0023 5.2748 0.0023 11.7548C0.0023 18.2348 5.2723 23.5048 11.7523 23.5048ZM15.8223 16.4648C15.4423 16.4648 15.1423 16.1648 15.1423 15.7848V8.4748L13.9523 9.4248C13.8623 9.5048 13.7723 9.5548 13.6323 9.5548C13.3323 9.5548 13.1523 9.3348 13.1523 9.0448C13.1523 8.8148 13.2623 8.6348 13.4323 8.5148L14.8023 7.4148C15.0223 7.2448 15.3323 7.0348 15.7223 7.0348C16.1823 7.0348 16.4723 7.3148 16.4723 7.7848V15.7848C16.4723 16.1648 16.1823 16.4648 15.8223 16.4648ZM7.3623 16.4648C6.9223 16.4648 6.6823 16.1848 6.6823 15.7748V7.8348C6.6823 7.4048 6.9123 7.1448 7.3523 7.1448H9.2423C10.9723 7.1448 12.0023 8.1548 12.0023 9.9048C12.0023 11.0348 11.5223 11.9748 10.5923 12.3948L11.8523 15.3548C11.9423 15.5348 11.9923 15.7148 11.9923 15.8348C11.9923 16.2648 11.6823 16.4648 11.3623 16.4648C11.0023 16.4648 10.7923 16.2748 10.6623 15.9348L9.3323 12.6748H8.0123V15.7748C8.0123 16.1948 7.7723 16.4648 7.3623 16.4648ZM8.0123 11.6748H9.1323C10.1723 11.6748 10.6523 10.9348 10.6523 9.9348C10.6523 8.8948 10.0923 8.2348 9.1323 8.2348H8.0123Z" />
        </svg>
    