
        <svg xmlns="http://www.w3.org/2000/svg" viewBox="0 0 100 100">
            <path d="M12.6023 25.1986C19.5623 25.1986 25.2023 19.5586 25.2023 12.5986C25.2023 5.6386 19.5623 -0.0014 12.6023 -0.0014C5.6523 -0.0014 0.0023 5.6386 0.0023 12.5986C0.0023 19.5586 5.6523 25.1986 12.6023 25.1986ZM16.7723 17.2486C16.1523 17.2486 15.6823 16.7686 15.6823 16.1486V10.1286L14.9723 10.6786C14.8023 10.8186 14.6623 10.8586 14.4623 10.8586C14.1023 10.8586 13.7323 10.6286 13.7323 10.0986C13.7323 9.7486 13.8823 9.4886 14.1923 9.2586L15.1923 8.4986C15.5723 8.1886 15.9923 7.9586 16.5823 7.9586C17.3823 7.9586 17.8523 8.3786 17.8523 9.1786V16.1486C17.8523 16.7686 17.3823 17.2486 16.7723 17.2486ZM8.3123 17.2586C7.5923 17.2586 7.2223 16.8386 7.2223 16.1286V9.2486C7.2223 8.5286 7.5923 8.1086 8.3123 8.1086H10.0623C11.9223 8.1086 13.0323 9.0986 13.0323 11.0386C13.0323 11.9486 12.7223 12.9386 11.9723 13.4486L12.7723 15.5886C12.8623 15.8086 12.9123 15.9686 12.9123 16.1786C12.9423 16.8486 12.4823 17.2586 11.8923 17.2586C11.3323 17.2586 10.9823 16.9686 10.7823 16.3386L9.9623 13.8986H9.3823V16.1286C9.3823 16.8286 9.0123 17.2586 8.3123 17.2586ZM9.3823 12.4086H9.8823C10.5423 12.4086 10.8023 11.7586 10.8023 11.0886C10.8023 10.4286 10.5223 9.7586 9.8823 9.7586H9.3823Z" />
        </svg>
    