
        <svg xmlns="http://www.w3.org/2000/svg" viewBox="0 0 100 100">
            <path d="M11.4923 22.977C17.8123 22.977 22.9823 17.827 22.9823 11.497C22.9823 5.167 17.8123 -0.003 11.4923 -0.003C5.1723 -0.003 0.0023 5.167 0.0023 11.497C0.0023 17.827 5.1723 22.977 11.4923 22.977ZM15.2123 16.137C14.9723 16.137 14.7623 15.937 14.7623 15.687V7.897L13.4223 8.987C13.3523 9.047 13.2923 9.077 13.1823 9.077C12.9723 9.077 12.8423 8.927 12.8423 8.727C12.8423 8.577 12.9123 8.477 13.0223 8.377L14.5423 7.137C14.6923 6.997 14.9023 6.867 15.1623 6.867C15.4423 6.867 15.6523 7.057 15.6523 7.347V15.687C15.6523 15.937 15.4423 16.137 15.2123 16.137ZM7.1923 16.097C6.9223 16.097 6.7523 15.917 6.7523 15.647V7.367C6.7523 7.087 6.9023 6.927 7.1823 6.927H9.0223C10.6623 6.927 11.5823 7.937 11.5823 9.527C11.5823 10.797 10.9823 11.647 10.0623 11.977L11.5523 15.397C11.6023 15.507 11.6223 15.607 11.6223 15.677C11.6223 15.937 11.4423 16.097 11.2023 16.097C10.9823 16.097 10.8423 15.997 10.7623 15.787L9.2223 12.187H7.6323V15.647C7.6323 15.917 7.4623 16.097 7.1923 16.097ZM7.6323 11.457H8.9523C10.1523 11.457 10.6923 10.657 10.6923 9.547C10.6923 8.347 10.0123 7.677 8.9423 7.677H7.6323Z" />
        </svg>
    