
        <svg xmlns="http://www.w3.org/2000/svg" viewBox="0 0 100 100">
            <path d="M11.3523 22.7064C17.6323 22.7064 22.7123 17.6264 22.7123 11.3564C22.7123 5.0764 17.6323 -0.0036 11.3523 -0.0036C5.0823 -0.0036 0.0023 5.0764 0.0023 11.3564C0.0023 17.6264 5.0823 22.7064 11.3523 22.7064ZM11.3523 22.1364C5.3923 22.1364 0.5723 17.3164 0.5723 11.3564C0.5723 5.3864 5.3923 0.5764 11.3523 0.5764C17.3223 0.5764 22.1323 5.3864 22.1323 11.3564C22.1323 17.3164 17.3223 22.1364 11.3523 22.1364ZM15.1023 16.1964C15.2723 16.1964 15.4323 16.0464 15.4323 15.8564V6.8864C15.4323 6.6764 15.2723 6.5264 15.0723 6.5264C14.8723 6.5264 14.7023 6.6164 14.5823 6.7364L12.8923 8.1464C12.8123 8.2164 12.7623 8.2864 12.7623 8.4064C12.7623 8.5664 12.8623 8.6964 13.0423 8.6964C13.1223 8.6964 13.1723 8.6764 13.2323 8.6264L14.7523 7.3964V15.8564C14.7523 16.0464 14.9023 16.1964 15.1023 16.1964ZM6.8923 16.1364C7.0923 16.1364 7.2223 15.9964 7.2223 15.7864V11.9564H9.0623L10.7723 15.9264C10.8523 16.0764 10.9423 16.1364 11.1123 16.1364C11.3123 16.1364 11.4423 15.9864 11.4423 15.8164C11.4423 15.7664 11.4223 15.6864 11.4023 15.6364L9.7123 11.7764C10.6723 11.4764 11.3623 10.6164 11.3623 9.2264C11.3623 7.6264 10.4523 6.5464 8.7923 6.5464H6.8623C6.6523 6.5464 6.5423 6.6764 6.5423 6.9064V15.7864C6.5423 15.9964 6.6823 16.1364 6.8923 16.1364ZM7.2223 11.3464V7.1564H8.7023C9.9023 7.1564 10.6923 7.8764 10.6923 9.2364C10.6923 10.4564 10.0623 11.3464 8.7323 11.3464Z" />
        </svg>
    