
        <svg xmlns="http://www.w3.org/2000/svg" viewBox="0 0 100 100">
            <path d="M13.1617 24.6356C17.0517 24.6356 19.5017 22.1956 19.5017 18.3056V11.7456C19.5017 10.3156 19.0917 9.2156 18.2417 8.4156L10.8417 1.6056C9.5317 0.3956 8.1717 -0.0044 6.4717 -0.0044H2.8717C1.0417 -0.0044 0.0017 1.0056 0.0017 2.8756V21.7656C0.0017 23.6056 1.0117 24.6356 2.8717 24.6356ZM13.1417 24.0556H2.9017C1.4217 24.0556 0.5717 23.2656 0.5717 21.7356V2.9056C0.5717 1.4156 1.3717 0.5756 2.9017 0.5756H6.4317C7.9817 0.5756 9.2817 0.9756 10.4417 2.0356L17.8217 8.8156C18.5717 9.5056 18.9217 10.4856 18.9217 11.7756V18.2856C18.9217 21.8356 16.6917 24.0556 13.1417 24.0556ZM10.7017 19.4256H14.7117C14.8817 19.4256 15.0117 19.3056 15.0117 19.1256C15.0117 18.9456 14.8817 18.8156 14.7117 18.8156H11.2617V18.7756L13.6017 15.4556C14.4717 14.2056 14.7917 13.3456 14.7917 12.3756C14.7917 10.9356 14.0517 9.7456 12.5817 9.7456C11.2417 9.7456 10.3717 11.0156 10.3717 12.2656C10.3717 12.3956 10.4617 12.5756 10.6917 12.5756C10.8417 12.5756 10.9617 12.4656 10.9717 12.3256C11.1217 11.1756 11.6017 10.3756 12.6017 10.3756C13.7117 10.3756 14.1817 11.4656 14.1817 12.3956C14.1817 13.2656 13.8917 14.0156 13.1217 15.0956L10.4717 18.7856C10.3817 18.9256 10.3617 19.0156 10.3617 19.1356C10.3617 19.3256 10.5117 19.4256 10.7017 19.4256ZM4.3117 19.4756C4.5117 19.4756 4.6417 19.3256 4.6417 19.1256V15.2856H6.4917L8.2017 19.2556C8.2717 19.4156 8.3817 19.4756 8.5417 19.4756C8.7417 19.4756 8.8717 19.3256 8.8717 19.1456C8.8717 19.0856 8.8617 19.0156 8.8317 18.9656L7.1517 15.1056C8.1017 14.8056 8.8017 13.9456 8.8017 12.5556C8.8017 10.9456 7.8917 9.8656 6.2117 9.8656H4.3017C4.0817 9.8656 3.9617 10.0056 3.9617 10.2156V19.1256C3.9617 19.3256 4.1117 19.4756 4.3117 19.4756ZM4.6417 14.6756V10.4856H6.1417C7.3217 10.4856 8.1117 11.1956 8.1117 12.5656C8.1117 13.7856 7.4917 14.6756 6.1517 14.6756Z" />
        </svg>
    