
        <svg xmlns="http://www.w3.org/2000/svg" viewBox="0 0 100 100">
            <path d="M14.2417 25.825C18.6817 25.825 21.5717 22.925 21.5717 18.485V12.785C21.5717 11.085 21.0317 9.695 19.9617 8.705L12.5617 1.895C11.0417 0.505 9.4117 -0.005 7.5017 -0.005H3.8517C1.5117 -0.005 0.0017 1.525 0.0017 3.875V21.975C0.0017 24.385 1.4517 25.825 3.8817 25.825ZM14.1917 23.215H4.1117C3.0617 23.215 2.6117 22.815 2.6117 21.755V4.105C2.6117 3.195 3.1717 2.615 4.0917 2.615H7.4517C8.8517 2.615 9.7817 2.915 10.7717 3.825L18.1617 10.595C18.7417 11.135 18.9617 11.705 18.9617 12.805V18.455C18.9617 21.585 17.3317 23.215 14.1917 23.215ZM12.2317 19.795H15.9117C16.3617 19.795 16.5917 19.485 16.5917 19.085C16.5917 18.675 16.3617 18.385 15.9117 18.385H13.5317V18.305L14.9917 16.485C15.9917 15.245 16.4417 14.435 16.4417 13.395C16.4417 11.875 15.4017 10.855 13.8917 10.855C12.5017 10.855 11.4117 11.955 11.4117 13.115C11.4117 13.555 11.6817 13.885 12.1417 13.885C12.5317 13.885 12.7817 13.695 12.9117 13.285C13.0917 12.665 13.3217 12.235 13.8717 12.235C14.4817 12.235 14.7817 12.785 14.7817 13.465C14.7817 14.305 14.2017 15.145 13.5917 15.915L11.8717 18.115C11.5917 18.465 11.4117 18.745 11.4117 19.085C11.4117 19.515 11.6817 19.795 12.2317 19.795ZM5.8017 19.945C6.3617 19.945 6.6817 19.595 6.6817 19.005V16.555H7.5217L8.5217 19.195C8.6817 19.685 8.9617 19.945 9.4417 19.945C9.8817 19.945 10.2917 19.665 10.2817 19.075C10.2817 18.925 10.2217 18.725 10.1117 18.495L9.1917 16.195C10.0117 15.725 10.3517 14.775 10.3517 13.835C10.3517 12.035 9.2917 11.095 7.5717 11.095H5.7917C5.2117 11.095 4.9017 11.435 4.9017 12.025V19.005C4.9017 19.585 5.2117 19.945 5.8017 19.945ZM6.6817 15.295V12.485H7.4017C8.1517 12.485 8.5317 13.115 8.5317 13.875C8.5317 14.645 8.1917 15.295 7.4017 15.295Z" />
        </svg>
    