
        <svg xmlns="http://www.w3.org/2000/svg" viewBox="0 0 100 100">
            <path d="M11.4923 22.977C17.8123 22.977 22.9823 17.827 22.9823 11.497C22.9823 5.167 17.8123 -0.003 11.4923 -0.003C5.1723 -0.003 0.0023 5.167 0.0023 11.497C0.0023 17.827 5.1723 22.977 11.4923 22.977ZM12.9423 16.027C12.6823 16.027 12.5123 15.887 12.5123 15.667C12.5123 15.497 12.5723 15.367 12.6923 15.197L15.0823 11.917C15.7823 10.947 16.1523 10.187 16.1523 9.337C16.1523 8.457 15.7123 7.537 14.7423 7.537C13.8623 7.537 13.4423 8.237 13.2923 9.257C13.2523 9.447 13.1123 9.567 12.9023 9.567C12.6423 9.567 12.5323 9.367 12.5323 9.177C12.5323 7.977 13.4023 6.777 14.7323 6.777C16.1623 6.777 16.9423 7.897 16.9423 9.307C16.9423 10.247 16.6323 11.067 15.7223 12.307L13.6423 15.227V15.267H16.7823C16.9923 15.267 17.1523 15.417 17.1523 15.657C17.1523 15.867 17.0023 16.027 16.7823 16.027ZM6.7023 16.097C6.4223 16.097 6.2423 15.917 6.2423 15.647V7.367C6.2423 7.087 6.4023 6.927 6.6823 6.927H8.5323C10.1623 6.927 11.0823 7.937 11.0823 9.537C11.0823 10.797 10.4923 11.647 9.5723 11.977L11.0523 15.397C11.1023 15.507 11.1323 15.607 11.1323 15.677C11.1323 15.937 10.9323 16.097 10.7023 16.097C10.4923 16.097 10.3523 15.997 10.2523 15.787L8.7323 12.187H7.1323V15.647C7.1323 15.917 6.9623 16.097 6.7023 16.097ZM7.1323 11.457H8.4523C9.6423 11.457 10.1923 10.657 10.1923 9.547C10.1923 8.347 9.5123 7.677 8.4423 7.677H7.1323Z" />
        </svg>
    