
        <svg xmlns="http://www.w3.org/2000/svg" viewBox="0 0 100 100">
            <path d="M11.7523 23.5048C18.2423 23.5048 23.5123 18.2448 23.5123 11.7548C23.5123 5.2648 18.2423 0.0048 11.7523 0.0048C5.2623 0.0048 0.0023 5.2648 0.0023 11.7548C0.0023 18.2448 5.2623 23.5048 11.7523 23.5048ZM11.7523 21.9848C6.0923 21.9848 1.5223 17.4148 1.5223 11.7548C1.5223 6.0948 6.0923 1.5148 11.7523 1.5148C17.4123 1.5148 21.9923 6.0948 21.9923 11.7548C21.9923 17.4148 17.4123 21.9848 11.7523 21.9848ZM13.4323 16.4848H17.4723C17.8023 16.4848 18.0123 16.2648 18.0123 15.9348C18.0123 15.5848 17.8023 15.3748 17.4723 15.3748H14.4723V15.2948L16.3823 12.7548C17.4623 11.3548 17.8223 10.5048 17.8223 9.4948C17.8223 7.9448 16.8623 6.7948 15.2923 6.7948C13.8523 6.7948 12.7923 8.0348 12.7923 9.2648C12.7923 9.5948 12.9923 9.8648 13.3723 9.8648C13.6923 9.8648 13.8723 9.7148 13.9723 9.4148C14.1523 8.5048 14.5223 7.8948 15.2923 7.8948C16.1323 7.8948 16.5623 8.6848 16.5623 9.5548C16.5623 10.4648 16.0223 11.3448 15.3523 12.2348L13.1123 15.1948C12.9423 15.4348 12.7823 15.6548 12.7823 15.9348C12.7823 16.2648 13.0123 16.4848 13.4323 16.4848ZM6.6323 16.6148C7.0523 16.6148 7.3123 16.3348 7.3123 15.9048V12.7048H8.6623L10.0523 16.0748C10.1823 16.4248 10.3923 16.6148 10.7623 16.6148C11.0823 16.6148 11.4023 16.4148 11.4023 15.9448C11.4023 15.8448 11.3523 15.6648 11.2723 15.4648L9.9623 12.4148C10.9123 11.9748 11.4123 11.0148 11.4123 9.8448C11.4123 8.0348 10.3623 7.0048 8.5823 7.0048H6.6223C6.1723 7.0048 5.9323 7.2648 5.9323 7.7148V15.9048C5.9323 16.3248 6.1923 16.6148 6.6323 16.6148ZM7.3123 11.6648V8.1048H8.4523C9.4423 8.1048 10.0323 8.7848 10.0323 9.8748C10.0323 10.8948 9.5423 11.6648 8.4623 11.6648Z" />
        </svg>
    