
        <svg xmlns="http://www.w3.org/2000/svg" viewBox="0 0 100 100">
            <path d="M0.0017 10.6088C0.0017 13.0188 0.3517 14.0588 2.1417 14.9888L8.7517 18.3588C11.1117 19.5788 12.7217 19.8788 15.3617 19.1088L25.4717 16.1488C28.4917 15.2588 29.7117 13.5388 29.7117 10.6088V3.3387C29.7117 1.3087 28.4317 0.0087 26.4017 0.0087L3.3117 -0.0012C1.2917 -0.0012 0.0017 1.2987 0.0017 3.3188ZM18.2617 13.7088C16.9917 13.7088 15.8917 13.0588 15.5517 11.9688C15.4917 11.7688 15.4617 11.5388 15.4617 11.3388C15.4617 10.9588 15.7017 10.7188 16.0817 10.7188C16.4017 10.7188 16.6017 10.8988 16.6917 11.2388C16.8417 11.8788 17.3117 12.5588 18.2717 12.5588C19.2617 12.5588 19.7617 11.7587 19.7617 10.8288C19.7617 9.6788 19.1217 9.0688 18.0217 9.0688H17.6417C17.3217 9.0688 17.1017 8.8688 17.1017 8.5588C17.1017 8.2388 17.3017 8.0188 17.6417 8.0188H18.0117C18.9717 8.0188 19.5317 7.2988 19.5317 6.3588C19.5317 5.4887 19.0917 4.7888 18.2117 4.7888C17.4217 4.7888 17.0017 5.3588 16.8317 6.1288C16.7217 6.4788 16.5517 6.6188 16.2117 6.6188C15.8217 6.6188 15.6117 6.3588 15.6117 6.0488C15.6117 5.8588 15.6317 5.6488 15.7017 5.4187C16.0317 4.3588 16.9917 3.6587 18.2117 3.6587C19.7217 3.6587 20.8517 4.6288 20.8517 6.2088C20.8517 7.2188 20.3317 8.1988 19.2417 8.4888V8.5188C20.3217 8.6288 21.1317 9.4488 21.1317 10.8588C21.1317 12.6188 19.8917 13.7088 18.2617 13.7088ZM9.1417 13.6388C8.6817 13.6388 8.4117 13.3488 8.4117 12.8988V4.5588C8.4117 4.0988 8.6717 3.8287 9.1317 3.8287H11.1217C12.9417 3.8287 14.0117 4.8888 14.0117 6.7288C14.0117 7.9188 13.5117 8.9088 12.5517 9.3488L13.8617 12.4588C13.9617 12.6588 14.0117 12.8388 14.0117 12.9588C14.0117 13.4288 13.6917 13.6388 13.3517 13.6388C12.9717 13.6388 12.7517 13.4388 12.6217 13.0788L11.2017 9.6588H9.8317V12.8988C9.8317 13.3488 9.5617 13.6388 9.1417 13.6388ZM9.8317 8.5788H11.0017C12.1017 8.5788 12.6017 7.8088 12.6017 6.7688C12.6017 5.6587 12.0117 4.9688 10.9917 4.9688H9.8317Z" />
        </svg>
    