
        <svg xmlns="http://www.w3.org/2000/svg" viewBox="0 0 100 100">
            <path d="M0.0017 10.0428C0.0017 12.2828 0.2217 13.1028 1.9017 13.9528L8.5217 17.3228C10.7417 18.4528 12.1217 18.7228 14.5917 17.9928L24.6317 15.0228C27.4217 14.2028 28.4617 12.7528 28.4617 10.0428V2.8828C28.4617 1.0528 27.4417 0.0028 25.5817 0.0028H2.8717C1.0117 0.0028 0.0017 1.0328 0.0017 2.8728ZM17.4217 13.1128C16.2217 13.1128 15.3717 12.4028 15.0617 11.3828C15.0017 11.2028 14.9517 10.9328 14.9517 10.7828C14.9517 10.5928 15.0717 10.4628 15.2417 10.4628C15.4617 10.4628 15.5417 10.5828 15.5617 10.7928C15.6817 11.6228 16.3117 12.5028 17.4417 12.5028C18.6517 12.5028 19.2317 11.4928 19.2317 10.3928C19.2317 9.0228 18.4817 8.3328 17.2217 8.3328H16.6717C16.5117 8.3328 16.3917 8.2028 16.3917 8.0428C16.3917 7.9028 16.4617 7.7428 16.6717 7.7428H17.2117C18.2917 7.7428 18.9817 6.8928 18.9817 5.8128C18.9817 4.7828 18.4217 3.9328 17.3817 3.9328C16.3817 3.9328 15.8717 4.7228 15.7117 5.6028C15.6717 5.8228 15.6317 5.9628 15.4117 5.9628C15.2217 5.9628 15.1217 5.8228 15.1217 5.6328C15.1217 5.5228 15.1317 5.3128 15.2117 5.0628C15.5117 4.0228 16.2317 3.3428 17.3817 3.3428C18.7517 3.3428 19.6317 4.3328 19.6317 5.7428C19.6317 6.7428 19.1417 7.7328 18.0717 8.0028V8.0228C19.2917 8.1328 19.9017 9.1328 19.9017 10.3628C19.9017 12.0328 18.8517 13.1128 17.4217 13.1128ZM8.9017 13.0028C8.6917 13.0028 8.5517 12.8528 8.5517 12.6528V3.7728C8.5517 3.5528 8.6717 3.4228 8.8817 3.4228H10.7917C12.4717 3.4228 13.3817 4.5028 13.3817 6.0928C13.3817 7.4928 12.6817 8.3428 11.7317 8.6528L13.4217 12.5028C13.4417 12.5628 13.4517 12.6328 13.4517 12.6928C13.4517 12.8528 13.3217 13.0028 13.1217 13.0028C12.9617 13.0028 12.8517 12.9528 12.7817 12.7928L11.0717 8.8228H9.2317V12.6528C9.2317 12.8528 9.1017 13.0028 8.9017 13.0028ZM9.2317 8.2128H10.7317C12.0817 8.2128 12.6917 7.3228 12.6917 6.1028C12.6917 4.7428 11.9017 4.0428 10.7217 4.0428H9.2317Z" />
        </svg>
    