
        <svg xmlns="http://www.w3.org/2000/svg" viewBox="0 0 100 100">
            <path d="M9.2317 21.0344H18.4017C25.1917 21.0344 27.6317 18.5144 27.6317 12.2444V8.8044C27.6317 2.5344 25.1917 0.0044 18.4017 0.0044H9.2317C2.4417 0.0044 0.0017 2.5344 0.0017 8.8044V12.2444C0.0017 18.5144 2.4417 21.0344 9.2317 21.0344ZM9.2317 19.1444C3.7017 19.1444 1.8917 17.3544 1.8917 12.2444V8.8044C1.8917 3.6944 3.7017 1.8844 9.2317 1.8844H18.4017C23.9317 1.8844 25.7417 3.6944 25.7417 8.8044V12.2444C25.7417 17.3544 23.9317 19.1444 18.4017 19.1444ZM18.7217 15.4144C19.1617 15.4144 19.5217 15.1444 19.5217 14.5744V13.4044H19.9317C20.3917 13.4044 20.6017 13.1144 20.6017 12.7144C20.6017 12.3444 20.4017 12.0444 19.9317 12.0444H19.5217V6.9044C19.5217 6.0944 18.9917 5.6344 18.2217 5.6344C17.4017 5.6344 17.0117 6.0544 16.6917 6.7844L14.5917 11.3344C14.3917 11.7844 14.3317 12.0944 14.3317 12.4544C14.3317 13.0244 14.7217 13.4044 15.2917 13.4044H17.9017V14.5744C17.9017 15.1944 18.3517 15.4144 18.7217 15.4144ZM8.2017 15.4244C8.7317 15.4244 9.0517 15.0844 9.0517 14.5344V11.6444H10.1617L11.3917 14.7144C11.5517 15.1644 11.8117 15.4244 12.2817 15.4244C12.6717 15.4244 13.0817 15.1944 13.0817 14.5944C13.0817 14.4644 13.0117 14.2244 12.8917 13.9544L11.7917 11.2944C12.7217 10.8044 13.1417 9.7844 13.1417 8.7344C13.1417 6.8244 12.0017 5.8044 10.1717 5.8044H8.1917C7.6417 5.8044 7.3217 6.1444 7.3217 6.6944V14.5344C7.3217 15.0744 7.6417 15.4244 8.2017 15.4244ZM17.9417 12.0844H15.7717V12.0044L17.9017 7.1144H17.9417ZM9.0517 10.3944V7.1644H10.0217C10.9217 7.1644 11.4017 7.8244 11.4017 8.7644C11.4017 9.6944 10.9817 10.3944 10.0217 10.3944Z" />
        </svg>
    