
        <svg xmlns="http://www.w3.org/2000/svg" viewBox="0 0 100 100">
            <path d="M8.7517 20.5266H18.2317C24.8017 20.5266 27.0017 18.0666 27.0017 12.0566V8.4766C27.0017 2.4466 24.8017 -0.0034 18.2317 -0.0034H8.7517C2.2017 -0.0034 0.0017 2.4466 0.0017 8.4766V12.0566C0.0017 18.0666 2.2017 20.5266 8.7517 20.5266ZM18.3717 15.2466C18.0517 15.2466 17.7117 15.0366 17.7117 14.5466V13.0666H14.8617C14.3517 13.0666 14.0317 12.7266 14.0317 12.2566C14.0317 11.9566 14.0817 11.6966 14.2517 11.3166L16.6917 6.2466C16.9717 5.6366 17.2817 5.2866 17.9617 5.2866C18.5717 5.2866 19.0317 5.6266 19.0317 6.3266V11.9266H19.5817C19.9617 11.9266 20.1417 12.1666 20.1417 12.4966C20.1417 12.8166 19.9617 13.0666 19.5817 13.0666H19.0317V14.5466C19.0317 14.9866 18.7217 15.2466 18.3717 15.2466ZM7.8717 15.2266C7.4317 15.2266 7.1617 14.9266 7.1617 14.4966V6.1366C7.1617 5.6966 7.4217 5.4166 7.8617 5.4166H9.8717C11.6817 5.4166 12.7617 6.4766 12.7617 8.3166C12.7617 9.5166 12.2617 10.4966 11.2817 10.9366L12.6117 14.0366C12.6917 14.2466 12.7617 14.4366 12.7617 14.5566C12.7617 15.0166 12.4217 15.2266 12.0817 15.2266C11.7217 15.2266 11.4917 15.0366 11.3517 14.6766L9.9517 11.2366H8.5817V14.4966C8.5817 14.9366 8.3117 15.2266 7.8717 15.2266ZM8.5817 10.1566H9.7417C10.8417 10.1566 11.3317 9.3966 11.3317 8.3466C11.3317 7.2566 10.7417 6.5666 9.7417 6.5666H8.5817ZM17.7317 11.9566V6.5766H17.6817L15.2317 11.8866V11.9566Z" />
        </svg>
    