
        <svg xmlns="http://www.w3.org/2000/svg" viewBox="0 0 100 100">
            <path d="M3.8417 27.0497H23.9217C26.4517 27.0497 27.7617 25.7497 27.7617 23.2597V8.9797C27.7617 6.4897 26.4517 5.1897 23.9217 5.1897H22.6217L6.8317 0.0497C6.2717 -0.1303 5.6517 0.1797 5.4717 0.7497C5.3017 1.2997 5.6017 1.9197 6.1617 2.1097L15.6517 5.1897H3.8417C1.3117 5.1897 0.0017 6.4797 0.0017 8.9797V23.2597C0.0017 25.7497 1.3117 27.0497 3.8417 27.0497ZM11.0417 11.1897C10.5317 11.1897 10.1417 10.7697 10.1417 10.2497C10.1417 9.7497 10.5317 9.3497 11.0417 9.3497C11.5417 9.3497 11.9417 9.7497 11.9417 10.2497C11.9417 10.7697 11.5417 11.1897 11.0417 11.1897ZM21.6417 13.5097C20.6017 13.5197 19.7317 12.6597 19.7317 11.6197C19.7317 10.5897 20.6017 9.6997 21.6417 9.7097C22.7017 9.7297 23.5417 10.5897 23.5417 11.6197C23.5417 12.6597 22.7017 13.4997 21.6417 13.5097ZM13.9617 12.0197C13.4717 12.0197 13.0817 11.5997 13.0817 11.1097C13.0817 10.5897 13.4617 10.1797 13.9617 10.1797C14.4817 10.1797 14.8817 10.5897 14.8817 11.1097C14.8817 11.5997 14.4817 12.0197 13.9617 12.0197ZM8.1117 12.0197C7.6017 12.0197 7.2117 11.5997 7.2117 11.1097C7.2117 10.5897 7.5917 10.1797 8.1117 10.1797C8.6017 10.1797 9.0017 10.5897 9.0017 11.1097C9.0017 11.5997 8.6017 12.0197 8.1117 12.0197ZM16.1617 14.1397C15.6717 14.1397 15.2817 13.7297 15.2817 13.2397C15.2817 12.7097 15.6717 12.2997 16.1617 12.2997C16.6617 12.2997 17.0817 12.7097 17.0817 13.2397C17.0817 13.7297 16.6617 14.1397 16.1617 14.1397ZM5.9017 14.1397C5.4117 14.1397 4.9917 13.7297 4.9917 13.2397C4.9917 12.7097 5.4117 12.2997 5.9017 12.2997C6.4017 12.2997 6.8017 12.7097 6.8017 13.2397C6.8017 13.7297 6.4017 14.1397 5.9017 14.1397ZM11.0417 14.1897C10.5317 14.1897 10.1417 13.7897 10.1417 13.2797C10.1417 12.7697 10.5317 12.3497 11.0417 12.3497C11.5417 12.3497 11.9417 12.7697 11.9417 13.2797C11.9417 13.7897 11.5417 14.1897 11.0417 14.1897ZM13.7717 15.3797C13.2817 15.3797 12.8517 14.9597 12.8517 14.4797C12.8517 13.9797 13.2817 13.5497 13.7717 13.5497C14.2617 13.5497 14.6617 13.9597 14.6617 14.4797C14.6617 14.9597 14.2617 15.3797 13.7717 15.3797ZM8.3117 15.3797C7.8017 15.3797 7.4217 14.9597 7.4217 14.4797C7.4217 13.9597 7.8017 13.5497 8.3117 13.5497C8.8017 13.5497 9.2317 13.9797 9.2317 14.4797C9.2317 14.9597 8.8017 15.3797 8.3117 15.3797ZM21.6417 18.9397C20.6017 18.9397 19.7317 18.0797 19.7317 17.0197C19.7317 15.9797 20.6017 15.1397 21.6417 15.1397C22.7017 15.1397 23.5417 15.9797 23.5417 17.0197C23.5417 18.0797 22.7017 18.9397 21.6417 18.9397ZM16.9117 16.9497C16.4217 16.9497 16.0117 16.5497 16.0117 16.0597C16.0117 15.5597 16.4217 15.1597 16.9117 15.1597C17.4017 15.1597 17.8117 15.5597 17.8117 16.0597C17.8117 16.5497 17.4017 16.9497 16.9117 16.9497ZM5.1517 16.9497C4.6617 16.9497 4.2617 16.5497 4.2617 16.0597C4.2617 15.5597 4.6617 15.1597 5.1517 15.1597C5.6617 15.1597 6.0717 15.5597 6.0717 16.0597C6.0717 16.5497 5.6617 16.9497 5.1517 16.9497ZM11.0417 17.0097C10.5317 17.0097 10.1417 16.6097 10.1417 16.1097C10.1417 15.6197 10.5317 15.2097 11.0417 15.2097C11.5417 15.2097 11.9417 15.6197 11.9417 16.1097C11.9417 16.6097 11.5417 17.0097 11.0417 17.0097ZM13.7717 18.6797C13.2817 18.6797 12.8517 18.2697 12.8517 17.7497C12.8517 17.2497 13.2817 16.8397 13.7717 16.8397C14.2717 16.8397 14.6617 17.2497 14.6617 17.7497C14.6617 18.2697 14.2717 18.6797 13.7717 18.6797ZM8.3117 18.6797C7.8017 18.6797 7.4217 18.2697 7.4217 17.7497C7.4217 17.2497 7.8017 16.8397 8.3117 16.8397C8.8117 16.8397 9.2317 17.2497 9.2317 17.7497C9.2317 18.2697 8.8117 18.6797 8.3117 18.6797ZM16.1617 19.8097C15.6717 19.8097 15.2817 19.3997 15.2817 18.8697C15.2817 18.3797 15.6717 17.9797 16.1617 17.9797C16.6617 17.9797 17.0817 18.3797 17.0817 18.8697C17.0817 19.3997 16.6617 19.8097 16.1617 19.8097ZM5.9017 19.8097C5.4117 19.8097 4.9917 19.3997 4.9917 18.8697C4.9917 18.3797 5.4117 17.9797 5.9017 17.9797C6.4017 17.9797 6.8017 18.3797 6.8017 18.8697C6.8017 19.3997 6.4017 19.8097 5.9017 19.8097ZM11.0417 19.8697C10.5317 19.8697 10.1417 19.4397 10.1417 18.9297C10.1417 18.4297 10.5317 18.0297 11.0417 18.0297C11.5417 18.0297 11.9417 18.4297 11.9417 18.9297C11.9417 19.4397 11.5417 19.8697 11.0417 19.8697ZM13.9617 21.9897C13.4617 21.9897 13.0817 21.5797 13.0817 21.0697C13.0817 20.5697 13.4717 20.1497 13.9617 20.1497C14.4817 20.1497 14.8817 20.5697 14.8817 21.0697C14.8817 21.5797 14.4817 21.9897 13.9617 21.9897ZM8.1117 21.9897C7.5917 21.9897 7.2117 21.5797 7.2117 21.0697C7.2117 20.5697 7.6017 20.1497 8.1117 20.1497C8.6017 20.1497 9.0017 20.5697 9.0017 21.0697C9.0017 21.5797 8.6017 21.9897 8.1117 21.9897ZM11.0417 22.8797C10.5317 22.8797 10.1417 22.4697 10.1417 21.9697C10.1417 21.4497 10.5317 21.0297 11.0417 21.0297C11.5417 21.0297 11.9417 21.4497 11.9417 21.9697C11.9417 22.4697 11.5417 22.8797 11.0417 22.8797Z" />
        </svg>
    