
        <svg xmlns="http://www.w3.org/2000/svg" viewBox="0 0 100 100">
            <path d="M14.1723 6.8789C15.0823 6.8789 15.8323 6.1289 15.8323 5.2189V1.6789C15.8323 0.7489 15.0823 -0.0011 14.1723 -0.0011C13.2523 -0.0011 12.4923 0.7489 12.4923 1.6789V5.2189C12.4923 6.1289 13.2523 6.8789 14.1723 6.8789ZM19.3123 9.0189C19.9523 9.6689 21.0223 9.6689 21.6723 9.0189L24.1923 6.5189C24.8323 5.8689 24.8323 4.8089 24.1923 4.1489C23.5323 3.4989 22.4623 3.4989 21.8223 4.1489L19.3123 6.6589C18.6723 7.2989 18.6723 8.3789 19.3123 9.0189ZM9.0123 9.0189C9.6723 8.3789 9.6723 7.2989 9.0123 6.6589L6.5123 4.1489C5.8723 3.4989 4.8023 3.4989 4.1523 4.1489C3.5023 4.8089 3.5023 5.8689 4.1523 6.5189L6.6523 9.0189C7.3023 9.6689 8.3623 9.6689 9.0123 9.0189ZM21.4423 14.1689C21.4423 15.0789 22.1923 15.8289 23.1223 15.8289H26.6623C27.5723 15.8289 28.3323 15.0789 28.3323 14.1689C28.3323 13.2489 27.5723 12.4889 26.6623 12.4889H23.1223C22.1923 12.4889 21.4423 13.2489 21.4423 14.1689ZM6.8823 14.1689C6.8823 13.2489 6.1323 12.4889 5.2123 12.4889H1.6623C0.7523 12.4889 0.0023 13.2489 0.0023 14.1689C0.0023 15.0789 0.7523 15.8289 1.6623 15.8289H5.2123C6.1323 15.8289 6.8823 15.0789 6.8823 14.1689ZM19.3123 19.3089C18.6723 19.9589 18.6723 21.0189 19.3123 21.6689L21.8223 24.1889C22.4623 24.8289 23.5323 24.8289 24.1923 24.1889C24.8323 23.5289 24.8323 22.4689 24.1923 21.8189L21.6723 19.3089C21.0223 18.6689 19.9523 18.6689 19.3123 19.3089ZM9.0123 19.3089C8.3623 18.6689 7.3023 18.6689 6.6523 19.3089L4.1523 21.8189C3.5023 22.4689 3.5023 23.5289 4.1523 24.1889C4.8023 24.8289 5.8723 24.8289 6.5123 24.1889L9.0123 21.6689C9.6723 21.0189 9.6723 19.9589 9.0123 19.3089ZM14.1723 21.4489C13.2523 21.4489 12.4923 22.2089 12.4923 23.1189V26.6589C12.4923 27.5789 13.2523 28.3389 14.1723 28.3389C15.0823 28.3389 15.8323 27.5789 15.8323 26.6589V23.1189C15.8323 22.2089 15.0823 21.4489 14.1723 21.4489Z" />
        </svg>
    