
        <svg xmlns="http://www.w3.org/2000/svg" viewBox="0 0 100 100">
            <path d="M9.8717 20.8055H17.4417C24.2917 20.8055 27.3017 17.6955 27.3017 11.1355V3.7355C27.3017 1.2755 26.0017 -0.0045 23.5317 -0.0045H3.7817C1.3017 -0.0045 0.0017 1.2755 0.0017 3.7355V11.1355C0.0017 17.6955 3.0117 20.8055 9.8717 20.8055ZM15.4917 15.0955C14.9017 15.0955 14.5917 14.7155 14.5917 14.1555V6.6755C14.5917 6.1155 14.8917 5.7055 15.4917 5.7055H17.8917C19.2817 5.7055 20.2617 6.5655 20.2617 8.0555C20.2617 8.9855 19.6417 9.9655 18.7517 10.1155V10.1555C19.8317 10.2655 20.5317 11.3055 20.5317 12.4455C20.5317 13.9755 19.6017 15.0955 17.9617 15.0955ZM8.2017 15.2555C7.6017 15.2555 7.2817 14.8755 7.2817 14.2855V6.6655C7.2817 6.0655 7.6017 5.7155 8.1917 5.7155H10.1417C11.9717 5.7155 13.1017 6.7255 13.1017 8.6455C13.1017 9.6755 12.7217 10.6955 11.8117 11.1955L12.8517 13.7255C12.9617 13.9755 13.0317 14.2055 13.0417 14.3555C13.0417 14.9755 12.6117 15.2555 12.1717 15.2555C11.6817 15.2555 11.4017 14.9755 11.2117 14.4955L10.0917 11.5655H9.1217V14.2855C9.1217 14.8855 8.7817 15.2555 8.2017 15.2555ZM16.3917 9.6655H17.2417C18.0617 9.6655 18.5117 9.1555 18.5117 8.3455C18.5117 7.6155 18.2017 7.0855 17.3717 7.0855H16.3917ZM9.1217 10.2455H9.9617C10.8517 10.2455 11.2417 9.5655 11.2417 8.6955C11.2417 7.8255 10.8017 7.1455 9.9617 7.1455H9.1217ZM16.3917 13.7355H17.3917C18.2717 13.7355 18.6917 13.1755 18.6917 12.2955C18.6917 11.3355 18.1617 10.8655 17.3517 10.8655H16.3917Z" />
        </svg>
    