
        <svg xmlns="http://www.w3.org/2000/svg" viewBox="0 0 100 100">
            <path d="M11.7523 23.5048C18.2323 23.5048 23.5123 18.2348 23.5123 11.7548C23.5123 5.2748 18.2323 0.0048 11.7523 0.0048C5.2723 0.0048 0.0023 5.2748 0.0023 11.7548C0.0023 18.2348 5.2723 23.5048 11.7523 23.5048ZM6.4823 16.4648C6.0623 16.4648 5.8023 16.1848 5.8023 15.7748V7.8348C5.8023 7.4048 6.0423 7.1448 6.4723 7.1448H8.3823C10.1023 7.1448 11.1323 8.1548 11.1323 9.9048C11.1323 11.0348 10.6423 11.9748 9.7123 12.3948L10.9823 15.3348C11.0623 15.5348 11.1223 15.7148 11.1223 15.8248C11.1223 16.2648 10.7923 16.4648 10.4723 16.4648C10.1223 16.4648 9.9223 16.2748 9.7823 15.9348L8.4523 12.6748H7.1523V15.7748C7.1523 16.1948 6.8923 16.4648 6.4823 16.4648ZM13.3823 16.3548C12.9723 16.3548 12.7423 16.0748 12.7423 15.6648V7.8648C12.7423 7.4648 12.9623 7.1748 13.3823 7.1748H15.6723C17.0023 7.1748 17.9223 8.0548 17.9223 9.4448C17.9223 10.3748 17.3423 11.3448 16.4923 11.4948V11.5448C17.5823 11.6748 18.2223 12.6748 18.2223 13.8048C18.2223 15.3148 17.3123 16.3548 15.7223 16.3548ZM14.0423 11.1548H15.1623C16.0923 11.1548 16.6323 10.5748 16.6323 9.6448C16.6323 8.8148 16.2223 8.2148 15.3023 8.2148H14.0423ZM7.1523 11.6648H8.2523C9.2923 11.6648 9.7723 10.9348 9.7723 9.9348C9.7723 8.8948 9.2123 8.2248 8.2523 8.2248H7.1523ZM14.0423 15.3148H15.3523C16.3623 15.3148 16.8723 14.7048 16.8723 13.6948C16.8723 12.6348 16.2523 12.1048 15.2923 12.1048H14.0423Z" />
        </svg>
    