
        <svg xmlns="http://www.w3.org/2000/svg" viewBox="0 0 100 100">
            <path d="M12.1023 24.2064C18.7823 24.2064 24.2123 18.7864 24.2123 12.1064C24.2123 5.4264 18.7823 -0.0036 12.1023 -0.0036C5.4223 -0.0036 0.0023 5.4264 0.0023 12.1064C0.0023 18.7864 5.4223 24.2064 12.1023 24.2064ZM12.1023 21.8164C6.7223 21.8164 2.3823 17.4864 2.3823 12.1064C2.3823 6.7264 6.7223 2.3764 12.1023 2.3764C17.4823 2.3764 21.8323 6.7264 21.8323 12.1064C21.8323 17.4864 17.4823 21.8164 12.1023 21.8164ZM13.9223 16.7964H16.3823C18.0023 16.7964 18.9223 15.6764 18.9223 14.1464C18.9223 13.0064 18.2323 11.9764 17.1423 11.8864V11.8264C18.0323 11.6764 18.6523 10.7064 18.6523 9.7764C18.6523 8.2964 17.6723 7.4364 16.3023 7.4364H13.9223C13.3223 7.4364 13.0223 7.8564 13.0223 8.3864V15.8464C13.0223 16.4164 13.3323 16.7964 13.9223 16.7964ZM6.6723 16.9364C7.2323 16.9364 7.5723 16.5664 7.5723 15.9864V13.2664H8.5523L9.6823 16.1864C9.8523 16.6764 10.1323 16.9364 10.6323 16.9364C11.0523 16.9364 11.4723 16.6664 11.4723 16.0564C11.4723 15.9064 11.4023 15.6764 11.2923 15.4264L10.2523 12.8864C11.1523 12.3964 11.5423 11.3864 11.5423 10.3664C11.5423 8.4564 10.4223 7.4564 8.5923 7.4564H6.6523C6.0723 7.4564 5.7523 7.8064 5.7523 8.3864V15.9864C5.7523 16.5564 6.0823 16.9364 6.6723 16.9364ZM14.8023 11.3764V8.8164H15.7723C16.6023 8.8164 16.9223 9.3364 16.9223 10.0664C16.9223 10.8764 16.4723 11.3764 15.6523 11.3764ZM7.5723 11.9564V8.8664H8.4223C9.2623 8.8664 9.7023 9.5364 9.7023 10.4064C9.7023 11.2764 9.3123 11.9564 8.4223 11.9564ZM14.8023 15.4464V12.5764H15.7623C16.5723 12.5764 17.1123 13.0464 17.1123 13.9964C17.1123 14.8864 16.6923 15.4464 15.8123 15.4464Z" />
        </svg>
    