
        <svg xmlns="http://www.w3.org/2000/svg" viewBox="0 0 100 100">
            <path d="M11.9523 23.9041C18.5523 23.9041 23.9023 18.5541 23.9023 11.9541C23.9023 5.3541 18.5523 0.0041 11.9523 0.0041C5.3523 0.0041 0.0023 5.3541 0.0023 11.9541C0.0023 18.5541 5.3523 23.9041 11.9523 23.9041ZM11.9523 21.9141C6.4423 21.9141 1.9923 17.4641 1.9923 11.9541C1.9923 6.4441 6.4423 1.9941 11.9523 1.9941C17.4623 1.9941 21.9123 6.4441 21.9123 11.9541C21.9123 17.4641 17.4623 21.9141 11.9523 21.9141ZM13.7623 16.7141H16.2423C17.8923 16.7141 18.8523 15.6141 18.8523 14.0241C18.8523 12.8941 18.1623 11.8341 17.0523 11.7341V11.6741C17.9423 11.5041 18.5623 10.5241 18.5623 9.5841C18.5623 8.0841 17.5523 7.2341 16.1723 7.2341H13.7623C13.2023 7.2341 12.9123 7.6041 12.9123 8.1241V15.8241C12.9123 16.3641 13.2223 16.7141 13.7623 16.7141ZM6.4123 16.8541C6.9423 16.8541 7.2623 16.5141 7.2623 15.9641V13.0741H8.3623L9.6023 16.1441C9.7623 16.5941 10.0223 16.8541 10.4923 16.8541C10.8723 16.8541 11.2923 16.6241 11.2923 16.0241C11.2923 15.8941 11.2123 15.6541 11.1123 15.3841L9.9923 12.7241C10.9423 12.2341 11.3423 11.2141 11.3423 10.1641C11.3423 8.2541 10.2023 7.2341 8.3823 7.2341H6.4023C5.8523 7.2341 5.5423 7.5741 5.5423 8.1241V15.9641C5.5423 16.5041 5.8623 16.8541 6.4123 16.8541ZM14.5923 11.2541V8.5341H15.6823C16.5723 8.5341 16.9223 9.0941 16.9223 9.8541C16.9223 10.7241 16.4223 11.2541 15.5523 11.2541ZM7.2623 11.8241V8.5941H8.2223C9.1323 8.5941 9.6123 9.2541 9.6123 10.1941C9.6123 11.1241 9.1923 11.8241 8.2223 11.8241ZM14.5923 15.4141V12.3941H15.6823C16.5323 12.3941 17.1323 12.8541 17.1323 13.8941C17.1323 14.8341 16.6723 15.4141 15.7223 15.4141Z" />
        </svg>
    