
        <svg xmlns="http://www.w3.org/2000/svg" viewBox="0 0 100 100">
            <path d="M0.0023 7.8408C0.0023 12.1708 3.5023 15.6808 7.8523 15.6808H27.7723C32.1123 15.6808 35.6123 12.1708 35.6123 7.8408C35.6123 3.5008 32.1123 0.0008 27.7723 0.0008C23.4223 0.0008 19.9223 3.5008 19.9223 7.8408C19.9223 9.9708 20.8223 11.9208 22.3023 13.2608H13.3123C14.7923 11.9208 15.6923 9.9708 15.6923 7.8408C15.6923 3.5008 12.1923 0.0008 7.8523 0.0008C3.5023 0.0008 0.0023 3.5008 0.0023 7.8408ZM2.4223 7.8308C2.4223 4.8408 4.8523 2.4008 7.8523 2.4008C10.8523 2.4008 13.2823 4.8408 13.2823 7.8308C13.2823 10.8408 10.8523 13.2608 7.8523 13.2608C4.8523 13.2608 2.4223 10.8408 2.4223 7.8308ZM22.3323 7.8308C22.3323 4.8408 24.7623 2.4008 27.7623 2.4008C30.7623 2.4008 33.2023 4.8408 33.2023 7.8308C33.2023 10.8408 30.7623 13.2608 27.7623 13.2608C24.7623 13.2608 22.3323 10.8408 22.3323 7.8308Z" />
        </svg>
    