
        <svg xmlns="http://www.w3.org/2000/svg" viewBox="0 0 100 100">
            <path d="M0.0023 7.5244C0.0023 11.6844 3.3623 15.0444 7.5223 15.0444H26.9523C31.1123 15.0444 34.4723 11.6744 34.4723 7.5244C34.4723 3.3644 31.1123 0.0044 26.9523 0.0044C22.7923 0.0044 19.4323 3.3644 19.4323 7.5244C19.4323 9.9944 20.6823 12.2344 22.6623 13.5244H11.8123C13.8023 12.2344 15.0423 9.9944 15.0423 7.5244C15.0423 3.3644 11.6823 0.0044 7.5223 0.0044C3.3623 0.0044 0.0023 3.3644 0.0023 7.5244ZM1.5223 7.5144C1.5223 4.2044 4.2223 1.5144 7.5323 1.5144C10.8423 1.5144 13.5223 4.2044 13.5223 7.5144C13.5223 10.8244 10.8423 13.5244 7.5323 13.5244C4.2223 13.5244 1.5223 10.8244 1.5223 7.5144ZM20.9523 7.5144C20.9523 4.2044 23.6323 1.5144 26.9423 1.5144C30.2623 1.5144 32.9523 4.2044 32.9523 7.5144C32.9523 10.8244 30.2623 13.5244 26.9423 13.5244C23.6323 13.5244 20.9523 10.8244 20.9523 7.5144Z" />
        </svg>
    