
        <svg xmlns="http://www.w3.org/2000/svg" viewBox="0 0 100 100">
            <path d="M0.0023 7.6416C0.0023 11.8616 3.4223 15.2816 7.6423 15.2816H27.2023C31.4323 15.2816 34.8423 11.8616 34.8423 7.6416C34.8423 3.4116 31.4323 0.0016 27.2023 0.0016C22.9823 0.0016 19.5623 3.4216 19.5623 7.6416C19.5623 9.9016 20.5623 11.9316 22.1923 13.2816H12.6423C14.2723 11.9316 15.2823 9.9016 15.2823 7.6416C15.2823 3.4116 11.8623 0.0016 7.6423 0.0016C3.4123 0.0016 0.0023 3.4216 0.0023 7.6416ZM2.0023 7.6316C2.0023 4.5216 4.5323 1.9916 7.6523 1.9916C10.7623 1.9916 13.2823 4.5216 13.2823 7.6316C13.2823 10.7416 10.7623 13.2816 7.6523 13.2816C4.5323 13.2816 2.0023 10.7416 2.0023 7.6316ZM21.5623 7.6316C21.5623 4.5216 24.0823 1.9916 27.1923 1.9916C30.3023 1.9916 32.8323 4.5216 32.8323 7.6316C32.8323 10.7416 30.3023 13.2816 27.1923 13.2816C24.0823 13.2816 21.5623 10.7416 21.5623 7.6316Z" />
        </svg>
    