
        <svg xmlns="http://www.w3.org/2000/svg" viewBox="0 0 100 100">
            <path d="M11.4923 22.977C17.8323 22.977 22.9823 17.847 22.9823 11.497C22.9823 5.147 17.8323 -0.003 11.4923 -0.003C5.1423 -0.003 0.0023 5.147 0.0023 11.497C0.0023 17.847 5.1423 22.977 11.4923 22.977ZM11.4923 22.087C5.6323 22.087 0.8923 17.357 0.8923 11.497C0.8923 5.637 5.6323 0.887 11.4923 0.887C17.3523 0.887 22.0923 5.637 22.0923 11.497C22.0923 17.357 17.3523 22.087 11.4923 22.087ZM4.1623 11.497C4.1623 13.317 5.6223 14.777 7.4423 14.777H15.5423C17.3523 14.777 18.8323 13.317 18.8323 11.497C18.8323 9.677 17.3523 8.207 15.5423 8.207C13.7223 8.207 12.2723 9.677 12.2723 11.497C12.2723 12.507 12.7223 13.427 13.5023 14.037H9.4823C10.2523 13.427 10.7223 12.507 10.7223 11.497C10.7223 9.677 9.2623 8.207 7.4423 8.207C5.6223 8.207 4.1623 9.677 4.1623 11.497ZM4.9023 11.497C4.9023 10.087 6.0423 8.937 7.4423 8.937C8.8323 8.937 9.9823 10.087 9.9823 11.497C9.9823 12.907 8.8323 14.027 7.4423 14.027C6.0423 14.027 4.9023 12.887 4.9023 11.497ZM13.0223 11.497C13.0223 10.087 14.1423 8.937 15.5423 8.937C16.9323 8.937 18.0923 10.087 18.0923 11.497C18.0923 12.887 16.9423 14.027 15.5423 14.027C14.1423 14.027 13.0223 12.907 13.0223 11.497Z" />
        </svg>
    