
        <svg xmlns="http://www.w3.org/2000/svg" viewBox="0 0 100 100">
            <path d="M12.2223 24.4436C18.9723 24.4436 24.4423 18.9736 24.4423 12.2236C24.4423 5.4736 18.9723 0.0036 12.2223 0.0036C5.4723 0.0036 0.0023 5.4736 0.0023 12.2236C0.0023 18.9736 5.4723 24.4436 12.2223 24.4436ZM12.2223 21.7636C6.9523 21.7636 2.6823 17.4936 2.6823 12.2236C2.6823 6.9536 6.9523 2.6836 12.2223 2.6836C17.4923 2.6836 21.7623 6.9536 21.7623 12.2236C21.7623 17.4936 17.4923 21.7636 12.2223 21.7636ZM12.2123 16.8036C14.7523 16.8036 16.8123 14.7436 16.8123 12.2136C16.8123 9.6636 14.7523 7.6036 12.2123 7.6036C9.6823 7.6036 7.6123 9.6636 7.6123 12.2136C7.6123 14.7436 9.6823 16.8036 12.2123 16.8036Z" />
        </svg>
    