
        <svg xmlns="http://www.w3.org/2000/svg" viewBox="0 0 100 100">
            <path d="M0.0023 8.5087C0.0023 13.2188 3.8123 17.0288 8.5223 17.0288H29.6223C34.3223 17.0288 38.1323 13.2088 38.1323 8.5087C38.1323 3.7988 34.3223 -0.0012 29.6223 -0.0012C24.9123 -0.0012 21.0923 3.7988 21.0923 8.5087C21.0923 10.2688 21.6723 11.9188 22.6623 13.2588H15.4723C16.4623 11.9188 17.0423 10.2688 17.0423 8.5087C17.0423 3.7988 13.2223 -0.0012 8.5223 -0.0012C3.8123 -0.0012 0.0023 3.7988 0.0023 8.5087ZM3.7723 8.5087C3.7723 5.8788 5.8923 3.7587 8.5223 3.7587C11.1423 3.7587 13.2523 5.8788 13.2523 8.5087C13.2523 11.1288 11.1423 13.2588 8.5223 13.2588C5.8923 13.2588 3.7723 11.1288 3.7723 8.5087ZM24.8623 8.5087C24.8623 5.8788 26.9923 3.7587 29.6223 3.7587C32.2423 3.7587 34.3623 5.8788 34.3623 8.5087C34.3623 11.1288 32.2423 13.2588 29.6223 13.2588C26.9923 13.2588 24.8623 11.1288 24.8623 8.5087Z" />
        </svg>
    