
        <svg xmlns="http://www.w3.org/2000/svg" viewBox="0 0 100 100">
            <path d="M11.4923 22.977C17.8123 22.977 22.9823 17.827 22.9823 11.497C22.9823 5.167 17.8123 -0.003 11.4923 -0.003C5.1723 -0.003 0.0023 5.167 0.0023 11.497C0.0023 17.827 5.1723 22.977 11.4923 22.977ZM4.1123 11.497C4.1123 9.667 5.5923 8.177 7.4223 8.177C9.2423 8.177 10.7223 9.667 10.7223 11.497C10.7223 12.517 10.2523 13.437 9.4723 14.047H13.5123C12.7223 13.437 12.2723 12.517 12.2723 11.497C12.2723 9.667 13.7323 8.177 15.5623 8.177C17.3923 8.177 18.8823 9.667 18.8823 11.497C18.8823 13.327 17.3923 14.797 15.5623 14.797H7.4223C5.5923 14.797 4.1123 13.327 4.1123 11.497ZM4.8623 11.497C4.8623 12.907 6.0123 14.037 7.4223 14.037C8.8123 14.037 9.9623 12.907 9.9623 11.497C9.9623 10.077 8.8123 8.927 7.4223 8.927C6.0123 8.927 4.8623 10.077 4.8623 11.497ZM13.0323 11.497C13.0323 12.907 14.1723 14.037 15.5623 14.037C16.9723 14.037 18.1423 12.907 18.1423 11.497C18.1423 10.077 16.9723 8.927 15.5623 8.927C14.1723 8.927 13.0323 10.077 13.0323 11.497Z" />
        </svg>
    