
        <svg xmlns="http://www.w3.org/2000/svg" viewBox="0 0 100 100">
            <path d="M3.5717 12.0602H14.3217C16.6717 12.0602 17.8917 10.8402 17.8917 8.4802V3.5602C17.8917 1.2102 16.6717 0.0002 14.3217 0.0002H3.5717C1.2217 0.0002 0.0017 1.2102 0.0017 3.5602V8.4802C0.0017 10.8402 1.2217 12.0602 3.5717 12.0602ZM24.0717 22.3102H31.1717C33.5117 22.3102 34.7317 21.1102 34.7317 18.7502V5.8902C34.7317 3.5502 33.5117 2.3402 31.1717 2.3402H24.0717C21.7217 2.3402 20.4917 3.5502 20.4917 5.8902V18.7502C20.4917 21.1102 21.7217 22.3102 24.0717 22.3102ZM4.3217 8.4702C3.8417 8.4702 3.5817 8.2102 3.5817 7.7202V4.3402C3.5817 3.8302 3.8417 3.5902 4.3217 3.5902H13.5717C14.0517 3.5902 14.3117 3.8302 14.3117 4.3402V7.7202C14.3117 8.2102 14.0517 8.4702 13.5717 8.4702ZM24.8317 18.7302C24.3517 18.7302 24.0917 18.4702 24.0917 17.9802V6.6702C24.0917 6.1802 24.3517 5.9302 24.8317 5.9302H30.4117C30.8917 5.9302 31.1517 6.1802 31.1517 6.6702V17.9802C31.1517 18.4702 30.8917 18.7302 30.4117 18.7302ZM6.3517 24.2902H15.1717C17.5317 24.2902 18.7517 23.0902 18.7517 20.7302V17.4302C18.7517 15.0702 17.5317 13.8602 15.1717 13.8602H6.3517C3.9917 13.8602 2.7817 15.0702 2.7817 17.4302V20.7302C2.7817 23.0902 3.9917 24.2902 6.3517 24.2902ZM7.1117 20.7102C6.6317 20.7102 6.3717 20.4502 6.3717 19.9702V18.2002C6.3717 17.7002 6.6317 17.4502 7.1117 17.4502H14.4217C14.9017 17.4502 15.1617 17.7002 15.1617 18.2002V19.9702C15.1617 20.4502 14.9017 20.7102 14.4217 20.7102Z" />
        </svg>
    