
        <svg xmlns="http://www.w3.org/2000/svg" viewBox="0 0 100 100">
            <path d="M2.0265 17.8497C2.4165 20.0897 3.7565 21.0197 6.0165 20.6297L6.1865 20.5997V20.6297C6.1865 22.9097 7.3465 24.0497 9.6265 24.0497H25.9065C28.1865 24.0497 29.3665 22.8897 29.3665 20.6297V9.4897C29.3665 7.2397 28.1865 6.0697 25.9065 6.0697H23.4765L22.9165 2.8497C22.5165 0.6397 21.1665 -0.3103 18.9165 0.0897L2.8865 2.8997C0.6365 3.2997 -0.3135 4.6497 0.0865 6.8697ZM3.4265 17.5297L1.5265 6.6997C1.2865 5.3697 1.8665 4.5497 3.1665 4.3297L19.1465 1.5197C20.4065 1.2997 21.2665 1.8497 21.4965 3.1797L22.0165 6.0697H9.6265C7.3465 6.0697 6.1865 7.2297 6.1865 9.4897V19.1297L5.7965 19.1897C4.4965 19.4197 3.6665 18.8597 3.4265 17.5297ZM9.6665 22.6097C8.3365 22.6097 7.6265 21.9097 7.6265 20.5597V9.5697C7.6265 8.2097 8.3365 7.5197 9.6665 7.5197H25.8665C27.1665 7.5197 27.9065 8.2097 27.9065 9.5697V20.5597C27.9065 21.9097 27.1665 22.6097 25.8665 22.6097Z" />
        </svg>
    