
        <svg xmlns="http://www.w3.org/2000/svg" viewBox="0 0 100 100">
            <path d="M3.4444 0.6216L10.6044 7.7716V0.0016H5.8344C4.8544 0.0016 4.0544 0.2116 3.4444 0.6216ZM13.6244 10.7916L22.5044 19.6716V4.1416C22.5044 1.4616 21.0444 0.0016 18.3844 0.0016H13.6244ZM22.5444 24.7316C22.9444 25.1016 23.5644 25.1116 23.9444 24.7316C24.3144 24.3416 24.3244 23.7116 23.9444 23.3216L1.6844 1.0816C1.3044 0.6916 0.6644 0.6816 0.2844 1.0816C-0.0956 1.4416 -0.0956 2.1016 0.2844 2.4716ZM1.7244 6.1416V21.6516C1.7244 24.3416 3.1744 25.7916 5.8344 25.7916H10.6044V15.0216ZM13.6244 18.0516V25.7916H18.3844C19.3644 25.7916 20.1544 25.5916 20.7644 25.1816Z" />
        </svg>
    