
        <svg xmlns="http://www.w3.org/2000/svg" viewBox="0 0 100 100">
            <path d="M3.8117 25.3706H16.2917C18.8017 25.3706 20.1017 24.0606 20.1017 21.5306V15.9706H17.8017V21.3906C17.8017 22.4806 17.2217 23.0706 16.0917 23.0706H3.9917C2.8617 23.0706 2.3017 22.4806 2.3017 21.3906V3.9806C2.3017 2.8906 2.8617 2.3006 3.9917 2.3006H16.0917C17.2217 2.3006 17.8017 2.8906 17.8017 3.9806V9.3906H20.1017V3.8406C20.1017 1.3206 18.8017 0.0006 16.2917 0.0006H3.8117C1.3017 0.0006 0.0017 1.3206 0.0017 3.8406V21.5306C0.0017 24.0606 1.3017 25.3706 3.8117 25.3706ZM10.3517 12.6806C10.3517 13.2806 10.8417 13.7606 11.4117 13.7606H23.1817L24.9117 13.6806L24.1717 14.2806L22.3817 15.9606C22.1817 16.1506 22.0617 16.4206 22.0617 16.6906C22.0617 17.2306 22.4517 17.6606 23.0017 17.6606C23.2817 17.6606 23.4917 17.5406 23.6917 17.3506L27.4117 13.5006C27.6817 13.2206 27.7717 12.9606 27.7717 12.6806C27.7717 12.4006 27.6817 12.1406 27.4117 11.8606L23.6917 8.0006C23.4917 7.8006 23.2817 7.7006 23.0017 7.7006C22.4517 7.7006 22.0617 8.1206 22.0617 8.6506C22.0617 8.9206 22.1817 9.2006 22.3817 9.3906L24.1717 11.0606L24.9217 11.6806L23.1817 11.5906H11.4117C10.8417 11.5906 10.3517 12.0806 10.3517 12.6806Z" />
        </svg>
    