
        <svg xmlns="http://www.w3.org/2000/svg" viewBox="0 0 100 100">
            <path d="M28.2117 28.5186C28.5917 28.9086 29.2217 28.9086 29.6017 28.5186C29.9717 28.1386 29.9917 27.5086 29.6017 27.1286L2.7517 0.2886C2.3817 -0.1014 1.7417 -0.1014 1.3517 0.2886C0.9817 0.6686 0.9817 1.3086 1.3517 1.6886ZM6.4017 1.7186L10.3517 5.6586C10.5117 5.6586 10.7117 5.6486 10.8917 5.6486H24.1617V5.5486C24.0617 3.0686 22.6217 1.7186 20.0417 1.7186ZM0.0017 17.1186C0.0017 19.7186 1.3917 21.1586 3.9817 21.2186H4.2517V11.6686C4.2517 10.1486 4.6417 8.8686 5.3817 7.9186L0.7617 3.2786C0.2617 3.8986 0.0017 4.7586 0.0017 5.8286ZM12.2217 7.5586L29.8617 25.1786C30.2217 24.5986 30.4117 23.8486 30.4117 22.9386V11.6686C30.4117 9.0086 28.9417 7.5586 26.2717 7.5586ZM6.1617 22.9386C6.1617 25.5986 7.6217 27.0586 10.3017 27.0586H24.5117L6.7717 9.2986C6.3617 9.8986 6.1617 10.6886 6.1617 11.6686Z" />
        </svg>
    