
        <svg xmlns="http://www.w3.org/2000/svg" viewBox="0 0 100 100">
            <path d="M1.8617 6.492H6.8017C7.9817 6.492 8.6617 5.852 8.6617 4.602V1.882C8.6617 0.652 7.9817 0.002 6.8017 0.002H1.8617C0.6817 0.002 0.0017 0.652 0.0017 1.882V4.602C0.0017 5.852 0.6817 6.492 1.8617 6.492ZM12.2317 6.492H17.1917C18.3717 6.492 19.0417 5.852 19.0417 4.602V1.882C19.0417 0.652 18.3717 0.002 17.1917 0.002H12.2317C11.0617 0.002 10.3917 0.652 10.3917 1.882V4.602C10.3917 5.852 11.0617 6.492 12.2317 6.492ZM22.6417 6.492H27.5817C28.7617 6.492 29.4417 5.852 29.4417 4.602V1.882C29.4417 0.652 28.7617 0.002 27.5817 0.002H22.6417C21.4617 0.002 20.7817 0.652 20.7817 1.882V4.602C20.7817 5.852 21.4617 6.492 22.6417 6.492ZM1.8617 14.372H6.8017C7.9817 14.372 8.6617 13.722 8.6617 12.492V9.762C8.6617 8.522 7.9817 7.882 6.8017 7.882H1.8617C0.6817 7.882 0.0017 8.522 0.0017 9.762V12.492C0.0017 13.722 0.6817 14.372 1.8617 14.372ZM12.2317 14.372H17.1917C18.3717 14.372 19.0417 13.722 19.0417 12.492V9.762C19.0417 8.522 18.3717 7.882 17.1917 7.882H12.2317C11.0617 7.882 10.3917 8.522 10.3917 9.762V12.492C10.3917 13.722 11.0617 14.372 12.2317 14.372ZM22.6417 14.372H27.5817C28.7617 14.372 29.4417 13.722 29.4417 12.492V9.762C29.4417 8.522 28.7617 7.882 27.5817 7.882H22.6417C21.4617 7.882 20.7817 8.522 20.7817 9.762V12.492C20.7817 13.722 21.4617 14.372 22.6417 14.372ZM1.8617 22.242H6.8017C7.9817 22.242 8.6617 21.602 8.6617 20.352V17.652C8.6617 16.402 7.9817 15.752 6.8017 15.752H1.8617C0.6817 15.752 0.0017 16.402 0.0017 17.652V20.352C0.0017 21.602 0.6817 22.242 1.8617 22.242ZM12.2317 22.242H17.1917C18.3717 22.242 19.0417 21.602 19.0417 20.352V17.652C19.0417 16.402 18.3717 15.752 17.1917 15.752H12.2317C11.0617 15.752 10.3917 16.402 10.3917 17.652V20.352C10.3917 21.602 11.0617 22.242 12.2317 22.242ZM22.6417 22.242H27.5817C28.7617 22.242 29.4417 21.602 29.4417 20.352V17.652C29.4417 16.402 28.7617 15.752 27.5817 15.752H22.6417C21.4617 15.752 20.7817 16.402 20.7817 17.652V20.352C20.7817 21.602 21.4617 22.242 22.6417 22.242Z" />
        </svg>
    