
        <svg xmlns="http://www.w3.org/2000/svg" viewBox="0 0 100 100">
            <path d="M0.2817 20.893H7.1617C7.2617 21.893 8.1417 22.703 9.1717 22.703C10.1917 22.703 11.0717 21.893 11.1817 20.893H18.0617C18.2117 20.893 18.3417 20.763 18.3417 20.603C18.3417 20.453 18.2117 20.323 18.0617 20.323H11.1517C11.0017 19.473 10.3117 18.813 9.4617 18.683V15.403H15.3317C17.3017 15.403 18.3417 14.333 18.3417 12.383V3.013C18.3417 1.083 17.3017 0.003 15.3317 0.003H3.0117C1.0417 0.003 0.0017 1.083 0.0017 3.013V12.383C0.0017 14.333 1.0417 15.403 3.0117 15.403H8.8817V18.683C8.0417 18.813 7.3517 19.473 7.1817 20.323H0.2817C0.1317 20.323 0.0017 20.453 0.0017 20.603C0.0017 20.763 0.1317 20.893 0.2817 20.893ZM3.0317 14.823C1.4717 14.823 0.5717 13.983 0.5717 12.363V3.043C0.5717 1.413 1.4717 0.573 3.0317 0.573H15.3017C16.8617 0.573 17.7617 1.413 17.7617 3.043V12.363C17.7617 13.983 16.8617 14.823 15.3017 14.823Z" />
        </svg>
    