
        <svg xmlns="http://www.w3.org/2000/svg" viewBox="0 0 100 100">
            <path d="M25.1017 25.2583C25.4717 25.6383 26.0817 25.6383 26.4617 25.2583C26.8217 24.8883 26.8317 24.2883 26.4617 23.9183L2.8117 0.2783C2.4417 -0.0817 1.8317 -0.1017 1.4517 0.2783C1.0917 0.6383 1.0917 1.2683 1.4517 1.6383ZM23.8817 1.7183H6.3617L8.9717 4.3283H12.6717V8.0083L15.1917 10.5283V4.3283H23.6617C24.6817 4.3283 25.2417 4.8483 25.2417 5.9283V19.3683C25.2417 19.7683 25.1217 20.0583 24.9117 20.2583L27.0817 22.4183C27.5817 21.8183 27.8517 20.9583 27.8517 19.8783V5.6583C27.8517 3.0883 26.4717 1.7183 23.8817 1.7183ZM3.9717 23.8183H21.5517L18.9417 21.2083H15.1917V17.4683L12.6717 14.9483V21.2083H4.1917C3.1617 21.2083 2.6117 20.6883 2.6117 19.6083V6.1683C2.6117 5.7483 2.7317 5.4483 2.9517 5.2483L0.8017 3.0983C0.2717 3.6983 0.0017 4.5583 0.0017 5.6583V19.8783C0.0017 22.4583 1.3817 23.8183 3.9717 23.8183Z" />
        </svg>
    