
        <svg xmlns="http://www.w3.org/2000/svg" viewBox="0 0 100 100">
            <path d="M24.3472 9.4678C24.3472 7.1778 23.1872 6.0178 20.9272 6.0178H18.3472L17.7972 2.8978C17.3972 0.6378 16.0572 -0.3022 13.8272 0.0878L2.8572 2.0178C0.6272 2.4078 -0.3128 3.7478 0.0872 6.0178L2.9172 22.0378C3.2772 24.1078 4.4572 25.1278 6.3472 24.9278V25.7478C6.3472 28.0178 7.5172 29.1978 9.7772 29.1978H20.9272C23.1772 29.1978 24.3472 28.0178 24.3472 25.7478ZM4.3272 21.7478L1.5072 5.7878C1.2872 4.4878 1.8472 3.6678 3.1672 3.4378L13.9972 1.5278C15.3372 1.2878 16.1472 1.8678 16.3772 3.1778L16.8872 6.0178H9.7772C7.5072 6.0178 6.3472 7.1778 6.3472 9.4678V23.4478C5.2372 23.5578 4.5272 22.9078 4.3272 21.7478ZM22.8972 9.5078V25.7178C22.8972 26.9978 22.1872 27.7478 20.8472 27.7478H9.8472C8.5072 27.7478 7.7972 26.9978 7.7972 25.7178V9.5078C7.7972 8.1778 8.5072 7.4678 9.8472 7.4678H20.8472C22.1872 7.4678 22.8972 8.1778 22.8972 9.5078Z" />
        </svg>
    