
        <svg xmlns="http://www.w3.org/2000/svg" viewBox="0 0 100 100">
            <path d="M2.6917 10.1967H13.4717C15.2717 10.1967 16.1717 9.3267 16.1717 7.5267V2.6567C16.1717 0.8667 15.2717 -0.0033 13.4717 -0.0033H2.6917C0.9017 -0.0033 0.0017 0.8667 0.0017 2.6567V7.5267C0.0017 9.3267 0.9017 10.1967 2.6917 10.1967ZM22.6517 19.9367H30.3017C32.1017 19.9367 33.0017 19.0667 33.0017 17.2567V4.2467C33.0017 2.4467 32.1017 1.5867 30.3017 1.5867H22.6517C20.8617 1.5867 19.9617 2.4467 19.9617 4.2467V17.2567C19.9617 19.0667 20.8617 19.9367 22.6517 19.9367ZM2.8317 8.4267C2.1417 8.4267 1.7717 8.0667 1.7717 7.3367V2.8567C1.7717 2.1167 2.1417 1.7667 2.8317 1.7667H13.3317C14.0317 1.7667 14.4017 2.1167 14.4017 2.8567V7.3367C14.4017 8.0667 14.0317 8.4267 13.3317 8.4267ZM22.7817 18.1667C22.1017 18.1667 21.7217 17.7967 21.7217 17.0767V4.4367C21.7217 3.7067 22.1017 3.3467 22.7817 3.3467H30.1517C30.8517 3.3467 31.2317 3.7067 31.2317 4.4367V17.0767C31.2317 17.7967 30.8517 18.1667 30.1517 18.1667ZM5.6817 21.3067H14.9317C16.7217 21.3067 17.6217 20.4267 17.6217 18.6367V15.3267C17.6217 13.5367 16.7217 12.6667 14.9317 12.6667H5.6817C3.8917 12.6667 2.9917 13.5367 2.9917 15.3267V18.6367C2.9917 20.4267 3.8917 21.3067 5.6817 21.3067ZM5.8217 19.5367C5.1317 19.5367 4.7617 19.1767 4.7617 18.4467V15.5167C4.7617 14.7867 5.1317 14.4367 5.8217 14.4367H14.7817C15.4817 14.4367 15.8517 14.7867 15.8517 15.5167V18.4467C15.8517 19.1767 15.4817 19.5367 14.7817 19.5367Z" />
        </svg>
    