
        <svg xmlns="http://www.w3.org/2000/svg" viewBox="0 0 100 100">
            <path d="M3.5617 18.8709H10.2217L13.0417 22.2909C16.0217 25.8909 19.5017 27.0009 23.3917 25.5809C28.0417 23.8909 30.0017 19.6309 28.1517 14.4709L27.2817 12.0609C26.3817 9.5609 24.6717 8.5209 22.6417 9.1609V3.5109C22.6417 1.1509 21.4717 0.0009 19.0917 0.0009H3.5617C1.1817 0.0009 0.0017 1.1509 0.0017 3.5109V15.3509C0.0017 17.7109 1.1817 18.8709 3.5617 18.8709ZM22.8917 24.0509C19.8117 25.1709 16.9417 24.5909 14.2217 21.3309L10.2917 16.6009C10.1817 16.4609 10.1017 16.3309 10.0217 16.1409C9.8917 15.7509 10.0517 15.3409 10.5017 15.1609C10.8717 15.0309 11.1717 15.1709 11.4617 15.4909L14.1817 18.2809C14.6417 18.7509 15.0317 18.8109 15.4217 18.6709C15.8817 18.4909 16.0817 18.0109 15.8917 17.5109L11.7417 6.0909C11.5617 5.6209 11.7617 5.1809 12.2217 5.0109C12.6817 4.8509 13.1017 5.0609 13.2817 5.5409L16.2417 13.6909C16.3817 14.0709 16.8117 14.2409 17.2017 14.1009C17.5817 13.9709 17.7917 13.5609 17.6417 13.1709L16.5717 10.2409C16.7317 10.0909 16.9617 9.9209 17.1717 9.8709C17.7217 9.6609 18.1917 9.8909 18.4017 10.4809L19.3217 13.0309C19.4717 13.4409 19.9117 13.5809 20.2817 13.4509C20.6517 13.3209 20.8617 12.9409 20.7317 12.5309L19.9717 10.4409C20.1217 10.2909 20.3517 10.1409 20.5617 10.0509C21.1317 9.8509 21.5717 10.0909 21.7817 10.6709L22.4217 12.4009C22.5717 12.8009 22.9917 12.9509 23.3717 12.8109C23.7417 12.6809 23.9617 12.2809 23.8217 11.8809L23.3717 10.6209C24.3417 10.2509 25.2517 11.0609 25.9017 12.8209L26.6217 14.8209C28.2317 19.2509 26.7917 22.6209 22.8917 24.0509Z" />
        </svg>
    