
        <svg xmlns="http://www.w3.org/2000/svg" viewBox="0 0 100 100">
            <path d="M3.9717 12.5038H12.4317C15.0217 12.5038 16.4017 11.1337 16.4017 8.5638V3.9237C16.4017 1.3637 15.0217 0.0038 12.4317 0.0038H3.9717C1.3817 0.0038 0.0017 1.3637 0.0017 3.9237V8.5638C0.0017 11.1337 1.3817 12.5038 3.9717 12.5038ZM26.3117 13.6138C26.6817 14.1238 27.1917 14.1138 27.5617 13.6138L29.9317 10.4538C30.4717 9.7538 30.2217 8.9738 29.2817 8.9738H27.8017V8.5238C27.8017 5.0238 25.3717 2.5938 21.8417 2.5938H19.9317C19.4217 2.5938 18.9917 3.0138 18.9917 3.5138C18.9917 4.0338 19.4217 4.4537 19.9317 4.4537H21.8417C24.2917 4.4537 26.0517 6.0538 26.0517 8.4938V8.9738H24.5817C23.6717 8.9738 23.4217 9.7538 23.9517 10.4538ZM4.1917 9.8938C3.1617 9.8938 2.6117 9.3738 2.6117 8.2938V4.2037C2.6117 3.1337 3.1617 2.6038 4.1917 2.6038H12.2117C13.2317 2.6038 13.7917 3.1337 13.7917 4.2037V8.2938C13.7917 9.3738 13.2317 9.8938 12.2117 9.8938ZM10.9617 25.6737H12.8817C13.3817 25.6737 13.8017 25.2538 13.8017 24.7338C13.8017 24.2338 13.3817 23.8138 12.8817 23.8138H10.9617C8.5117 23.8138 6.7617 22.1938 6.7617 19.7538V19.2738H8.2217C9.1317 19.2738 9.3717 18.5138 8.8617 17.8138L6.5017 14.6438C6.1217 14.1338 5.6117 14.1438 5.2417 14.6438L2.8717 17.8138C2.3317 18.5138 2.5917 19.2738 3.5117 19.2738H5.0117V19.7438C5.0117 23.2238 7.4317 25.6737 10.9617 25.6737ZM20.3817 28.2638H28.8417C31.4317 28.2638 32.8117 26.8938 32.8117 24.3238V19.7038C32.8117 17.1338 31.4317 15.7638 28.8417 15.7638H20.3817C17.7917 15.7638 16.4017 17.1238 16.4017 19.7038V24.3238C16.4017 26.9038 17.7917 28.2638 20.3817 28.2638ZM20.6017 25.6538C19.5717 25.6538 19.0217 25.1338 19.0217 24.0538V19.9638C19.0217 18.8938 19.5717 18.3738 20.6017 18.3738H28.6217C29.6417 18.3738 30.2017 18.8938 30.2017 19.9638V24.0538C30.2017 25.1338 29.6417 25.6538 28.6217 25.6538Z" />
        </svg>
    