
        <svg xmlns="http://www.w3.org/2000/svg" viewBox="0 0 100 100">
            <path d="M3.0117 20.5048H17.4917C19.4517 20.5048 20.5117 19.4248 20.5117 17.4948V3.0148C20.5117 1.0748 19.4517 0.0048 17.4917 0.0048H3.0117C1.0417 0.0048 0.0017 1.0448 0.0017 3.0148V17.4948C0.0017 19.4648 1.0417 20.5048 3.0117 20.5048ZM5.4717 8.3948V13.3248H4.7917C3.9017 13.3248 3.4217 12.8248 3.4217 11.9448V6.1748C3.4217 5.2748 3.9017 4.8048 4.7917 4.8048H13.2617C14.1817 4.8048 14.6417 5.2948 14.6417 6.1748V6.6548L7.2117 6.6448C6.0717 6.6448 5.4717 7.2548 5.4717 8.3948ZM7.2417 15.5548C6.3417 15.5548 5.8717 15.0848 5.8717 14.1748V8.4148C5.8717 7.5348 6.3417 7.0448 7.2417 7.0448H15.7117C16.6217 7.0448 17.0817 7.5348 17.0817 8.4148V14.1748C17.0817 15.0848 16.6217 15.5548 15.7117 15.5548Z" />
        </svg>
    