
        <svg xmlns="http://www.w3.org/2000/svg" viewBox="0 0 100 100">
            <path d="M3.0617 10.6956H23.6517C25.6717 10.6956 26.7117 9.6756 26.7117 7.6556V3.0356C26.7117 1.0056 25.6717 -0.0044 23.6517 -0.0044H3.0617C1.0317 -0.0044 0.0017 1.0056 0.0017 3.0356V7.6556C0.0017 9.6756 1.0317 10.6956 3.0617 10.6956ZM3.0617 23.1456H23.6517C25.6717 23.1456 26.7117 22.1356 26.7117 20.0956V15.4756C26.7117 13.4556 25.6717 12.4456 23.6517 12.4456H3.0617C1.0317 12.4456 0.0017 13.4556 0.0017 15.4756V20.0956C0.0017 22.1356 1.0317 23.1456 3.0617 23.1456Z" />
        </svg>
    