
        <svg xmlns="http://www.w3.org/2000/svg" viewBox="0 0 100 100">
            <path d="M3.6817 21.5722H17.8917C20.3517 21.5722 21.5717 20.3722 21.5717 17.9522V3.6322C21.5717 1.2222 20.3517 0.0022 17.8917 0.0022H3.6817C1.2317 0.0022 0.0017 1.2222 0.0017 3.6322V17.9522C0.0017 20.3722 1.2317 21.5722 3.6817 21.5722ZM5.6917 9.0422V13.8622H5.4117C4.3117 13.8622 3.7617 13.3122 3.7617 12.2222V6.6122C3.7617 5.5122 4.3117 4.9722 5.4117 4.9722H13.5017C14.6117 4.9722 15.1517 5.5122 15.1517 6.6122V6.7522H8.0017C6.4817 6.7522 5.6917 7.5322 5.6917 9.0422ZM8.0717 16.4222C6.9617 16.4222 6.4117 15.8822 6.4117 14.7822V9.1122C6.4117 8.0422 6.9617 7.4722 8.0717 7.4722H16.1517C17.2617 7.4722 17.8117 8.0422 17.8117 9.1122V14.7822C17.8117 15.8822 17.2617 16.4222 16.1517 16.4222Z" />
        </svg>
    