
        <svg xmlns="http://www.w3.org/2000/svg" viewBox="0 0 100 100">
            <path d="M2.5517 8.0747H7.6217C9.1917 8.0747 10.1717 7.0747 10.1717 5.4747V2.6147C10.1717 1.0047 9.1917 0.0047 7.6217 0.0047H2.5517C0.9817 0.0047 0.0017 1.0047 0.0017 2.6147V5.4747C0.0017 7.0747 0.9817 8.0747 2.5517 8.0747ZM14.4517 8.0747H19.5217C21.0817 8.0747 22.0617 7.0747 22.0617 5.4747V2.6147C22.0617 1.0047 21.0817 0.0047 19.5217 0.0047H14.4517C12.8917 0.0047 11.9017 1.0047 11.9017 2.6147V5.4747C11.9017 7.0747 12.8917 8.0747 14.4517 8.0747ZM26.3717 8.0747H31.4317C33.0017 8.0747 33.9817 7.0747 33.9817 5.4747V2.6147C33.9817 1.0047 33.0017 0.0047 31.4317 0.0047H26.3717C24.8017 0.0047 23.8117 1.0047 23.8117 2.6147V5.4747C23.8117 7.0747 24.8017 8.0747 26.3717 8.0747ZM2.5517 17.6247H7.6217C9.1917 17.6247 10.1717 16.6247 10.1717 15.0147V12.1647C10.1717 10.5447 9.1917 9.5547 7.6217 9.5547H2.5517C0.9817 9.5547 0.0017 10.5447 0.0017 12.1647V15.0147C0.0017 16.6247 0.9817 17.6247 2.5517 17.6247ZM14.4517 17.6247H19.5217C21.0817 17.6247 22.0617 16.6247 22.0617 15.0147V12.1647C22.0617 10.5447 21.0817 9.5547 19.5217 9.5547H14.4517C12.8917 9.5547 11.9017 10.5447 11.9017 12.1647V15.0147C11.9017 16.6247 12.8917 17.6247 14.4517 17.6247ZM26.3717 17.6247H31.4317C33.0017 17.6247 33.9817 16.6247 33.9817 15.0147V12.1647C33.9817 10.5447 33.0017 9.5547 31.4317 9.5547H26.3717C24.8017 9.5547 23.8117 10.5447 23.8117 12.1647V15.0147C23.8117 16.6247 24.8017 17.6247 26.3717 17.6247ZM2.5517 27.1747H7.6217C9.1917 27.1747 10.1717 26.1847 10.1717 24.5647V21.7147C10.1717 20.0947 9.1917 19.1047 7.6217 19.1047H2.5517C0.9817 19.1047 0.0017 20.0947 0.0017 21.7147V24.5647C0.0017 26.1847 0.9817 27.1747 2.5517 27.1747ZM14.4517 27.1747H19.5217C21.0817 27.1747 22.0617 26.1847 22.0617 24.5647V21.7147C22.0617 20.0947 21.0817 19.1047 19.5217 19.1047H14.4517C12.8917 19.1047 11.9017 20.0947 11.9017 21.7147V24.5647C11.9017 26.1847 12.8917 27.1747 14.4517 27.1747ZM26.3717 27.1747H31.4317C33.0017 27.1747 33.9817 26.1847 33.9817 24.5647V21.7147C33.9817 20.0947 33.0017 19.1047 31.4317 19.1047H26.3717C24.8017 19.1047 23.8117 20.0947 23.8117 21.7147V24.5647C23.8117 26.1847 24.8017 27.1747 26.3717 27.1747Z" />
        </svg>
    