
        <svg xmlns="http://www.w3.org/2000/svg" viewBox="0 0 100 100">
            <path d="M35.3517 3.1664L36.1717 2.3264C36.6917 1.8264 36.7017 1.1064 36.2117 0.6264L35.8717 0.2864C35.4417 -0.1436 34.7017 -0.0736 34.2217 0.4064L33.4117 1.2164ZM21.9617 15.0864L24.5017 14.0264L34.4417 4.0864L32.4817 2.1464L22.5617 12.0864L21.4417 14.5564C21.3017 14.8764 21.6517 15.2164 21.9617 15.0864ZM3.4717 23.1864H28.6917C30.9117 23.1864 32.1517 21.9664 32.1517 19.7564V9.0764L29.5117 11.7264V19.3664C29.5117 20.2364 29.0017 20.7464 28.1117 20.7464H4.0317C3.1517 20.7464 2.6517 20.2364 2.6517 19.3664V9.6464C2.6517 8.7564 3.1517 8.2764 4.0317 8.2764H23.6217L26.0617 5.8464H3.4717C1.2417 5.8464 0.0017 7.0464 0.0017 9.2764V19.7564C0.0017 21.9664 1.2417 23.1864 3.4717 23.1864ZM7.0917 16.3064C8.0717 16.3064 8.8817 15.4964 8.8817 14.5164C8.8817 13.5164 8.0717 12.7164 7.0917 12.7164C6.1017 12.7164 5.3017 13.5164 5.3017 14.5164C5.3017 15.4964 6.1017 16.3064 7.0917 16.3064ZM12.3117 16.3064C13.3017 16.3064 14.1117 15.4964 14.1117 14.5164C14.1117 13.5164 13.3017 12.7164 12.3117 12.7164C11.3317 12.7164 10.5217 13.5164 10.5217 14.5164C10.5217 15.4964 11.3317 16.3064 12.3117 16.3064ZM17.5417 16.3064C18.5317 16.3064 19.3317 15.4964 19.3317 14.5164C19.3317 13.5164 18.5317 12.7164 17.5417 12.7164C16.5617 12.7164 15.7517 13.5164 15.7517 14.5164C15.7517 15.4964 16.5617 16.3064 17.5417 16.3064Z" />
        </svg>
    