
        <svg xmlns="http://www.w3.org/2000/svg" viewBox="0 0 100 100">
            <path d="M8.3917 3.6403H22.9417V3.1503C22.9417 1.1003 21.8517 0.0003 19.7817 0.0003H3.1617C1.0917 0.0003 0.0017 1.0803 0.0017 3.1503V14.4103C0.0017 16.4903 1.0917 17.5703 3.1617 17.5703H4.1817V7.8403C4.1817 5.1903 5.7417 3.6403 8.3917 3.6403ZM8.3917 22.2503H25.0117C27.0817 22.2503 28.1717 21.1403 28.1717 19.1003V7.8403C28.1717 5.7903 27.0817 4.6903 25.0117 4.6903H8.3917C6.3117 4.6903 5.2417 5.7703 5.2417 7.8403V19.1003C5.2417 21.1803 6.3117 22.2503 8.3917 22.2503Z" />
        </svg>
    