
        <svg xmlns="http://www.w3.org/2000/svg" viewBox="0 0 100 100">
            <path d="M0.0017 6.0986H0.8717V3.1986C0.8717 1.6686 1.6617 0.8686 3.1917 0.8686H6.0817V-0.0014H3.1617C1.0917 -0.0014 0.0017 1.0786 0.0017 3.1486ZM27.1917 6.0986V3.1486C27.1917 1.0786 26.1117 -0.0014 24.0317 -0.0014H21.1017V0.8686H24.0017C25.5217 0.8686 26.3217 1.6686 26.3217 3.1986V6.0986ZM7.1417 0.8686H13.0817V-0.0014H7.1417ZM14.1217 0.8686H20.0617V-0.0014H14.1217ZM0.0017 13.6086H0.8717V7.1386H0.0017ZM27.1917 13.6086V7.1386H26.3217V13.6086ZM3.1617 20.7386H6.0817V19.8786H3.1917C1.6617 19.8786 0.8717 19.0786 0.8717 17.5586V14.6486H0.0017V17.5986C0.0017 19.6686 1.0917 20.7386 3.1617 20.7386ZM24.0317 20.7386C26.1117 20.7386 27.1917 19.6686 27.1917 17.5986V14.6486H26.3217V17.5586C26.3217 19.0786 25.5217 19.8786 24.0017 19.8786H21.1017V20.7386ZM7.1417 20.7386H13.0817V19.8786H7.1417ZM14.1217 20.7386H20.0617V19.8786H14.1217Z" />
        </svg>
    