
        <svg xmlns="http://www.w3.org/2000/svg" viewBox="0 0 100 100">
            <path d="M4.3817 22.8361H18.4717C21.2617 22.8361 22.8517 21.2561 22.8517 18.4761V4.3661C22.8517 1.5861 21.2617 -0.0039 18.4717 -0.0039H4.3817C1.5917 -0.0039 0.0017 1.5861 0.0017 4.3661V18.4761C0.0017 21.2661 1.5917 22.8361 4.3817 22.8361ZM4.8717 19.2161C4.0417 19.2161 3.6217 18.8461 3.6217 17.9661V4.8761C3.6217 3.9961 4.0417 3.6161 4.8717 3.6161H17.9717C18.8017 3.6161 19.2217 3.9961 19.2217 4.8761V17.9661C19.2217 18.8461 18.8017 19.2161 17.9717 19.2161ZM6.8817 10.0461C6.8817 8.5461 7.7217 7.6961 9.2217 7.6961H15.2017V7.6661C15.2017 6.7161 14.6117 6.1161 13.5317 6.1161H6.8417C5.7817 6.1161 5.1817 6.7161 5.1817 7.7861V12.6161C5.1817 13.6761 5.7817 14.2761 6.8017 14.2761H6.8817ZM9.3117 16.6361H16.0117C17.0717 16.6361 17.6717 16.0561 17.6717 14.9861V10.1261C17.6717 9.0661 17.0717 8.4761 16.0117 8.4761H9.3117C8.2517 8.4761 7.6517 9.0661 7.6517 10.1261V14.9861C7.6517 16.0561 8.2517 16.6361 9.3117 16.6361Z" />
        </svg>
    