
        <svg xmlns="http://www.w3.org/2000/svg" viewBox="0 0 100 100">
            <path d="M32.7317 2.5845L33.5617 1.7545C33.9817 1.3345 33.9817 0.8445 33.5817 0.4445L33.3917 0.2445C33.0317 -0.1055 32.5117 -0.0755 32.1317 0.3145L31.2917 1.1345ZM19.5917 14.5445L21.8317 13.4745L31.9317 3.3945L30.4917 1.9545L20.4017 12.0345L19.2917 14.2145C19.1917 14.3945 19.4017 14.6345 19.5917 14.5445ZM3.1217 21.7845H25.8917C27.8817 21.7845 29.0017 20.6845 29.0017 18.7045V8.8345L27.5517 10.2845V18.7445C27.5517 19.8245 26.9517 20.4145 25.8917 20.4145H3.1217C2.0417 20.4145 1.4517 19.8245 1.4517 18.7445V9.1845C1.4517 8.1045 2.0417 7.5245 3.1217 7.5245H22.3817L23.7417 6.1645H3.1217C1.1217 6.1645 0.0017 7.2545 0.0017 9.2445V18.7045C0.0017 20.6845 1.1217 21.7845 3.1217 21.7845ZM5.9617 15.5045C6.8117 15.5045 7.5017 14.8045 7.5017 13.9645C7.5017 13.1245 6.8117 12.4345 5.9617 12.4345C5.1217 12.4345 4.4317 13.1245 4.4317 13.9645C4.4317 14.8045 5.1217 15.5045 5.9617 15.5045ZM10.8317 15.5045C11.6717 15.5045 12.3517 14.8045 12.3517 13.9645C12.3517 13.1245 11.6717 12.4345 10.8317 12.4345C9.9717 12.4345 9.2917 13.1245 9.2917 13.9645C9.2917 14.8045 9.9717 15.5045 10.8317 15.5045ZM15.6917 15.5045C16.5317 15.5045 17.2217 14.8045 17.2217 13.9645C17.2217 13.1245 16.5317 12.4345 15.6917 12.4345C14.8317 12.4345 14.1517 13.1245 14.1517 13.9645C14.1517 14.8045 14.8317 15.5045 15.6917 15.5045Z" />
        </svg>
    