
        <svg xmlns="http://www.w3.org/2000/svg" viewBox="0 0 100 100">
            <path d="M0.0017 5.472H1.8917V3.742C1.8917 2.522 2.5317 1.882 3.7017 1.882H5.4217V0.002H3.6817C1.2217 0.002 0.0017 1.222 0.0017 3.632ZM9.4717 23.742H25.4717C27.9117 23.742 29.1517 22.522 29.1517 20.112V9.062C29.1517 6.642 27.9117 5.422 25.4717 5.422H23.3517V3.632C23.3517 1.222 22.1217 0.002 19.6717 0.002H17.9317V1.882H19.6417C20.8117 1.882 21.4717 2.522 21.4717 3.742V5.422H9.4717C7.0117 5.422 5.7917 6.642 5.7917 9.062V16.432H3.7017C2.5317 16.432 1.8917 15.812 1.8917 14.592V12.852H0.0017V14.682C0.0017 17.112 1.2217 18.312 3.6817 18.312H5.7917V20.112C5.7917 22.532 7.0117 23.742 9.4717 23.742ZM12.1917 1.882H16.9017V0.002H12.1917ZM6.4417 1.882H11.1717V0.002H6.4417ZM0.0017 11.832H1.8917V6.492H0.0017ZM9.4917 21.852C8.3217 21.852 7.6717 21.232 7.6717 20.012V9.162C7.6717 7.942 8.3217 7.312 9.4917 7.312H25.4417C26.6017 7.312 27.2717 7.942 27.2717 9.162V20.012C27.2717 21.232 26.6017 21.852 25.4417 21.852Z" />
        </svg>
    