
        <svg xmlns="http://www.w3.org/2000/svg" viewBox="0 0 100 100">
            <path d="M17.5817 3.1652C17.5817 1.0752 16.5017 -0.0048 14.4217 -0.0048H3.1517C1.0817 -0.0048 0.0017 1.0752 0.0017 3.1652V19.7852C0.0017 21.8552 1.1017 22.9352 3.1517 22.9352H4.6917V25.0052C4.6917 27.0852 5.7917 28.1752 7.8417 28.1752H19.1117C21.1517 28.1752 22.2617 27.0852 22.2617 25.0052V8.3952C22.2617 6.3152 21.1917 5.2352 19.1117 5.2352H17.5817ZM3.2017 22.0652C1.6617 22.0652 0.8717 21.2252 0.8717 19.7452V3.1852C0.8717 1.6652 1.6617 0.8652 3.2017 0.8652H14.3817C15.9117 0.8652 16.7117 1.6652 16.7117 3.1852V5.2352H7.8417C5.7617 5.2352 4.6917 6.3152 4.6917 8.3952V22.0652ZM21.4017 8.4252V24.9852C21.4017 26.4452 20.6017 27.3052 19.0617 27.3052H7.8717C6.3517 27.3052 5.5517 26.4452 5.5517 24.9852V8.4252C5.5517 6.9052 6.3517 6.1052 7.8717 6.1052H19.0617C20.6017 6.1052 21.4017 6.9052 21.4017 8.4252Z" />
        </svg>
    