
        <svg xmlns="http://www.w3.org/2000/svg" viewBox="0 0 100 100">
            <path d="M23.9917 -0.0036C26.2817 -0.0036 27.4417 1.1764 27.4417 3.4264V6.1264H19.2517V0.0164H17.8017V6.1264H9.6417V0.0164H8.1917V6.1264H0.0017V3.4264C0.0017 1.1564 1.1717 -0.0036 3.4617 -0.0036ZM9.6417 13.6764V7.5664H17.8017V13.6764ZM17.8017 15.1264V21.2264H19.2517V21.2364H17.8017V21.2264H9.6417V15.1264ZM19.2517 7.5664H27.4417V13.6764H19.2517ZM8.1917 13.6764H0.0017V7.5664H8.1917ZM23.9917 21.2264H19.2517V15.1264H27.4417V17.7964C27.4417 20.0464 26.2817 21.2264 23.9917 21.2264ZM0.0017 15.1264H8.1917V21.2264H9.6417V21.2364H8.1917V21.2264H3.4617C1.1717 21.2264 0.0017 20.0664 0.0017 17.7964Z" />
        </svg>
    