
        <svg xmlns="http://www.w3.org/2000/svg" viewBox="0 0 100 100">
            <path d="M8.7317 26.6727C9.3417 26.6727 9.8717 26.4327 10.6017 25.7927L15.1517 21.8527H22.0517C25.7317 21.8527 28.1717 19.4027 28.1717 15.7227V6.1327C28.1717 2.4527 25.7317 0.0027 22.0517 0.0027H6.1217C2.4417 0.0027 0.0017 2.4527 0.0017 6.1327V15.7227C0.0017 19.4027 2.7117 21.8527 5.7117 21.8527H7.2917V25.1027C7.2917 26.0727 7.8517 26.6727 8.7317 26.6727ZM7.9717 10.6627C6.8217 10.6627 6.2917 10.1227 6.2917 8.9727V7.2927C6.2917 6.1427 6.8217 5.6027 7.9717 5.6027H12.2017C13.3617 5.6027 13.8917 6.1427 13.8917 7.2927V8.9727C13.8917 10.1227 13.3617 10.6627 12.2017 10.6627ZM17.2417 15.3627C16.0917 15.3627 15.5517 14.8427 15.5517 13.7027V8.0927C15.5517 6.9527 16.0917 6.4127 17.2417 6.4127H20.2717C21.4217 6.4127 21.9517 6.9527 21.9517 8.0927V13.7027C21.9517 14.8427 21.4217 15.3627 20.2717 15.3627ZM8.9317 16.2227C7.7717 16.2227 7.2417 15.6927 7.2417 14.5327V13.4927C7.2417 12.3427 7.7717 11.8027 8.9317 11.8027H12.7417C13.8917 11.8027 14.4117 12.3427 14.4117 13.4927V14.5327C14.4117 15.6927 13.8917 16.2227 12.7417 16.2227Z" />
        </svg>
    