
        <svg xmlns="http://www.w3.org/2000/svg" viewBox="0 0 100 100">
            <path d="M1.9917 9.6047H9.8417C11.1717 9.6047 11.8517 8.9647 11.8517 7.5847V2.0347C11.8517 0.6447 11.1717 0.0047 9.8417 0.0047H1.9917C0.6817 0.0047 0.0017 0.6447 0.0017 2.0347V7.5847C0.0017 8.9647 0.6817 9.6047 1.9917 9.6047ZM15.8517 9.6047H23.7117C25.0317 9.6047 25.7117 8.9647 25.7117 7.5847V2.0347C25.7117 0.6447 25.0317 0.0047 23.7117 0.0047H15.8517C14.5417 0.0047 13.8617 0.6447 13.8617 2.0347V7.5847C13.8617 8.9647 14.5417 9.6047 15.8517 9.6047ZM2.0117 8.3047C1.5117 8.3047 1.2917 8.0847 1.2917 7.5547V2.0347C1.2917 1.5347 1.5117 1.3047 2.0117 1.3047H9.8217C10.3217 1.3047 10.5517 1.5347 10.5517 2.0347V7.5547C10.5517 8.0847 10.3217 8.3047 9.8217 8.3047ZM15.8917 8.3047C15.3717 8.3047 15.1517 8.0847 15.1517 7.5547V2.0347C15.1517 1.5347 15.3717 1.3047 15.8917 1.3047H23.6817C24.1917 1.3047 24.4117 1.5347 24.4117 2.0347V7.5547C24.4117 8.0847 24.1917 8.3047 23.6817 8.3047ZM1.9917 21.2247H9.8417C11.1717 21.2247 11.8517 20.5747 11.8517 19.1947V13.6547C11.8517 12.2647 11.1717 11.6247 9.8417 11.6247H1.9917C0.6817 11.6247 0.0017 12.2647 0.0017 13.6547V19.1947C0.0017 20.5747 0.6817 21.2247 1.9917 21.2247ZM15.8517 21.2247H23.7117C25.0317 21.2247 25.7117 20.5747 25.7117 19.1947V13.6547C25.7117 12.2647 25.0317 11.6247 23.7117 11.6247H15.8517C14.5417 11.6247 13.8617 12.2647 13.8617 13.6547V19.1947C13.8617 20.5747 14.5417 21.2247 15.8517 21.2247ZM2.0117 19.9347C1.5117 19.9347 1.2917 19.6947 1.2917 19.1847V13.6647C1.2917 13.1447 1.5117 12.9147 2.0117 12.9147H9.8217C10.3217 12.9147 10.5517 13.1447 10.5517 13.6647V19.1847C10.5517 19.6947 10.3217 19.9347 9.8217 19.9347ZM15.8917 19.9347C15.3717 19.9347 15.1517 19.6947 15.1517 19.1847V13.6647C15.1517 13.1447 15.3717 12.9147 15.8917 12.9147H23.6817C24.1917 12.9147 24.4117 13.1447 24.4117 13.6647V19.1847C24.4117 19.6947 24.1917 19.9347 23.6817 19.9347Z" />
        </svg>
    