
        <svg xmlns="http://www.w3.org/2000/svg" viewBox="0 0 100 100">
            <path d="M0.0017 5.6759H2.6117V4.2059C2.6117 3.1259 3.1617 2.6159 4.1917 2.6159H5.6517V-0.0041H3.9717C1.3717 -0.0041 0.0017 1.3759 0.0017 3.9359ZM9.9917 24.7459H25.9817C28.5717 24.7459 29.9517 23.3759 29.9517 20.8159V9.6259C29.9517 7.0559 28.5717 5.6859 25.9817 5.6859H23.9217V3.9359C23.9217 1.3759 22.5517 -0.0041 19.9417 -0.0041H18.2717V2.6159H19.7217C20.7517 2.6159 21.3017 3.1259 21.3017 4.2059V5.6859H9.9917C7.3917 5.6859 6.0217 7.0459 6.0217 9.6259V16.4659H4.1917C3.1617 16.4659 2.6117 15.9359 2.6117 14.8559V13.3959H0.0017V15.1259C0.0017 17.7059 1.3717 19.0659 3.9717 19.0659H6.0217V20.8159C6.0217 23.3859 7.3917 24.7459 9.9917 24.7459ZM12.5317 2.6159H17.1317V-0.0041H12.5317ZM6.7817 2.6159H11.3917V-0.0041H6.7817ZM0.0017 12.2659H2.6117V6.8059H0.0017ZM10.2217 22.1359C9.1917 22.1359 8.6417 21.6259 8.6417 20.5459V9.8859C8.6417 8.8159 9.1917 8.2959 10.2217 8.2959H25.7617C26.7817 8.2959 27.3417 8.8159 27.3417 9.8859V20.5459C27.3417 21.6259 26.7817 22.1359 25.7617 22.1359Z" />
        </svg>
    