
        <svg xmlns="http://www.w3.org/2000/svg" viewBox="0 0 100 100">
            <path d="M10.7017 22.7698H18.6517C21.0717 22.7698 22.2917 21.5498 22.2917 19.0898V3.6798C22.2917 1.2198 21.0717 -0.0002 18.6517 -0.0002H10.7017C8.2717 -0.0002 7.0617 1.2198 7.0617 3.6798V19.0898C7.0617 21.5498 8.2817 22.7698 10.7017 22.7698ZM10.7917 20.8798C9.5717 20.8798 8.9517 20.2198 8.9517 19.0698V3.6998C8.9517 2.5298 9.5717 1.8898 10.7917 1.8898H18.5517C19.7717 1.8898 20.4017 2.5298 20.4017 3.6998V19.0698C20.4017 20.2198 19.7717 20.8798 18.5517 20.8798ZM29.3517 13.9898V8.7798C29.3517 8.1598 28.8417 7.8598 28.2917 8.1998L24.1317 10.7598C23.6017 11.0698 23.5917 11.6998 24.1317 12.0198L28.2917 14.5498C28.8417 14.8898 29.3517 14.6298 29.3517 13.9898ZM0.0017 13.9898C0.0017 14.6298 0.5017 14.8798 1.0617 14.5498L5.2217 12.0198C5.7417 11.6798 5.7417 11.0898 5.2217 10.7598L1.0517 8.1998C0.4917 7.8798 0.0017 8.1598 0.0017 8.7798Z" />
        </svg>
    