
        <svg xmlns="http://www.w3.org/2000/svg" viewBox="0 0 100 100">
            <path d="M12.5617 9.1295C12.7517 9.1295 12.9017 9.0495 13.0917 8.8795L17.0717 5.0895C17.2517 4.9195 17.3517 4.7595 17.3517 4.5195C17.3517 4.1495 17.0717 3.8795 16.6717 3.8795C16.5017 3.8795 16.3217 3.9495 16.1817 4.0895L14.7517 5.5295L13.2217 7.0995L13.2817 4.9295V0.6895C13.2817 0.3195 12.9517 -0.0005 12.5617 -0.0005C12.1717 -0.0005 11.8517 0.3195 11.8517 0.6895V4.9295L11.9017 7.0995L10.3817 5.5295L8.9417 4.0895C8.8017 3.9495 8.6217 3.8795 8.4417 3.8795C8.0517 3.8795 7.7717 4.1495 7.7717 4.5195C7.7717 4.7595 7.8917 4.9195 8.0517 5.0895L12.0317 8.8795C12.2217 9.0595 12.3717 9.1295 12.5617 9.1295ZM3.2417 17.7095H21.8817C23.7817 17.7095 25.1217 16.4195 25.1217 14.6695V13.6995C25.1217 11.9395 23.7817 10.6495 21.8817 10.6495H3.2417C1.3517 10.6495 0.0017 11.9395 0.0017 13.6995V14.6695C0.0017 16.4195 1.3517 17.7095 3.2417 17.7095ZM3.3917 16.3395C2.2117 16.3395 1.4317 15.5295 1.4317 14.4295V13.9295C1.4317 12.8295 2.2117 12.0195 3.3917 12.0195H21.7417C22.9217 12.0195 23.6917 12.8295 23.6917 13.9295V14.4295C23.6917 15.5295 22.9217 16.3395 21.7417 16.3395ZM12.5617 28.3695C12.9517 28.3695 13.2817 28.0395 13.2817 27.6695V23.4395L13.2217 21.2595L14.7517 22.8295L16.1817 24.2695C16.3217 24.4095 16.5017 24.4795 16.6717 24.4795C17.0717 24.4795 17.3517 24.2195 17.3517 23.8395C17.3517 23.5995 17.2517 23.4395 17.0717 23.2695L13.0917 19.4795C12.9017 19.3095 12.7517 19.2395 12.5617 19.2395C12.3717 19.2395 12.2217 19.2995 12.0317 19.4795L8.0517 23.2695C7.8917 23.4395 7.7717 23.5995 7.7717 23.8395C7.7717 24.2195 8.0517 24.4795 8.4417 24.4795C8.6217 24.4795 8.8017 24.4095 8.9417 24.2695L10.3817 22.8295L11.9017 21.2595L11.8517 23.4395V27.6695C11.8517 28.0395 12.1717 28.3695 12.5617 28.3695Z" />
        </svg>
    