
        <svg xmlns="http://www.w3.org/2000/svg" viewBox="0 0 100 100">
            <path d="M2.0431 18.4645C2.4931 20.9945 4.0631 22.0845 6.6331 21.6545L6.7831 21.6245V21.6545C6.7831 24.2245 8.1531 25.5845 10.7431 25.5845H26.7331C29.3231 25.5845 30.7031 24.2145 30.7031 21.6545V10.4645C30.7031 7.8945 29.3231 6.5245 26.7331 6.5245H24.2331L23.6631 3.2745C23.2031 0.7545 21.6231 -0.3555 19.0631 0.1045L3.3331 2.8645C0.7731 3.3245 -0.3469 4.9045 0.0931 7.4345ZM4.5631 17.7345L2.7131 7.2445C2.5231 6.1845 2.9731 5.5745 3.9931 5.3945L19.3031 2.7045C20.3031 2.5245 20.9531 2.9345 21.1431 4.0045L21.5831 6.5245H10.7431C8.1531 6.5245 6.7831 7.8845 6.7831 10.4645V18.9645L6.4031 19.0345C5.3931 19.2145 4.7631 18.8045 4.5631 17.7345ZM10.9731 22.9745C9.9531 22.9745 9.3931 22.4645 9.3931 21.3845V10.7245C9.3931 9.6545 9.9531 9.1345 10.9731 9.1345H26.5231C27.5331 9.1345 28.1031 9.6545 28.1031 10.7245V21.3845C28.1031 22.4645 27.5331 22.9745 26.5231 22.9745Z" />
        </svg>
    