
        <svg xmlns="http://www.w3.org/2000/svg" viewBox="0 0 100 100">
            <path d="M4.1554 2.0997C4.4054 1.6597 4.8754 1.4397 5.5554 1.4397H17.9354C19.2754 1.4397 19.9854 2.1597 19.9854 3.4797V17.9397L21.4254 19.3797V3.4497C21.4254 1.1597 20.2754 -0.0003 18.0054 -0.0003H5.4754C4.3554 -0.0003 3.5154 0.3197 2.9954 0.9497ZM22.2954 24.0197C22.5854 24.2897 23.0154 24.2897 23.2854 24.0197C23.5654 23.7397 23.5554 23.2997 23.2854 23.0197L1.1954 0.9497C0.9454 0.6797 0.4954 0.6597 0.2054 0.9497C-0.0646 1.2097 -0.0646 1.6597 0.2054 1.9297ZM5.4754 24.9697H18.0054C19.1254 24.9697 19.9554 24.6597 20.4854 24.0397L19.3254 22.8797C19.0654 23.2997 18.6054 23.5197 17.9354 23.5197H5.5554C4.1954 23.5197 3.5054 22.8097 3.5054 21.4797V7.0397L2.0554 5.5997V21.5197C2.0554 23.7997 3.2154 24.9697 5.4754 24.9697Z" />
        </svg>
    