
        <svg xmlns="http://www.w3.org/2000/svg" viewBox="0 0 100 100">
            <path d="M12.3617 8.7584C12.4617 8.7584 12.5317 8.7084 12.5817 8.6584L16.7217 4.5384C16.8517 4.4184 16.9717 4.3284 16.9717 4.1584C16.9717 3.9984 16.8517 3.8784 16.6617 3.8784C16.5717 3.8784 16.5017 3.8984 16.4417 3.9584L15.2017 5.2284L12.6217 7.8284L12.6517 5.2484V0.2884C12.6517 0.1284 12.5317 -0.0016 12.3617 -0.0016C12.2117 -0.0016 12.0817 0.1284 12.0817 0.2884V5.2484L12.1017 7.8284L9.5417 5.2284L8.2817 3.9584C8.2217 3.8984 8.1517 3.8784 8.0617 3.8784C7.8717 3.8784 7.7617 3.9984 7.7617 4.1584C7.7617 4.3284 7.8917 4.4184 8.0017 4.5384L12.1517 8.6584C12.2217 8.7284 12.2817 8.7584 12.3617 8.7584ZM3.0917 16.6684H21.6317C23.4117 16.6684 24.7217 15.4584 24.7217 13.7884V13.2784C24.7217 11.6084 23.4117 10.4084 21.6317 10.4084H3.0917C1.3117 10.4084 0.0017 11.6084 0.0017 13.2784V13.7884C0.0017 15.4584 1.3117 16.6684 3.0917 16.6684ZM3.0217 16.0884C1.6217 16.0884 0.5717 15.0684 0.5717 13.6884V13.3984C0.5717 11.9984 1.6217 10.9784 3.0217 10.9784H21.7017C23.1217 10.9784 24.1517 11.9984 24.1517 13.3984V13.6884C24.1517 15.0684 23.1217 16.0884 21.7017 16.0884ZM12.3617 27.0684C12.5317 27.0684 12.6517 26.9384 12.6517 26.7784V21.8184L12.6217 19.2384L15.2017 21.8484L16.4417 23.1084C16.5017 23.1684 16.5717 23.1884 16.6617 23.1884C16.8517 23.1884 16.9717 23.0884 16.9717 22.9084C16.9717 22.7484 16.8517 22.6484 16.7217 22.5384L12.5817 18.4084C12.5317 18.3584 12.4617 18.3184 12.3617 18.3184C12.2817 18.3184 12.2217 18.3384 12.1517 18.4084L8.0017 22.5384C7.8917 22.6484 7.7617 22.7484 7.7617 22.9084C7.7617 23.0884 7.8717 23.1884 8.0617 23.1884C8.1517 23.1884 8.2217 23.1684 8.2817 23.1084L9.5417 21.8484L12.1017 19.2384L12.0817 21.8184V26.7784C12.0817 26.9384 12.2117 27.0684 12.3617 27.0684Z" />
        </svg>
    