
        <svg xmlns="http://www.w3.org/2000/svg" viewBox="0 0 100 100">
            <path d="M18.3117 3.6791C18.3117 1.2291 17.1117 -0.0009 14.6817 -0.0009H3.6317C1.2117 -0.0009 0.0017 1.2291 0.0017 3.6791V19.6891C0.0017 22.1391 1.2217 23.3691 3.6317 23.3691H5.4217V25.4791C5.4217 27.9291 6.6417 29.1591 9.0617 29.1591H20.1117C22.5217 29.1591 23.7417 27.9291 23.7417 25.4791V9.4691C23.7417 7.0191 22.5317 5.7891 20.1117 5.7891H18.3117ZM3.7217 21.4791C2.5117 21.4791 1.8917 20.8091 1.8917 19.6591V3.7191C1.8917 2.5391 2.5117 1.8891 3.7217 1.8891H14.5917C15.8117 1.8891 16.4317 2.5391 16.4317 3.7191V5.7891H9.0617C6.6317 5.7891 5.4217 7.0191 5.4217 9.4691V21.4791ZM21.8517 9.4991V25.4491C21.8517 26.5991 21.2317 27.2691 20.0117 27.2691H9.1517C7.9317 27.2691 7.3117 26.5991 7.3117 25.4491V9.4991C7.3117 8.3291 7.9317 7.6791 9.1517 7.6791H20.0117C21.2317 7.6791 21.8517 8.3291 21.8517 9.4991Z" />
        </svg>
    