
        <svg xmlns="http://www.w3.org/2000/svg" viewBox="0 0 100 100">
            <path d="M18.7517 3.8417C18.7517 1.3117 17.4517 0.0017 14.9417 0.0017H3.8117C1.3017 0.0017 0.0017 1.3117 0.0017 3.8417V19.8417C0.0017 22.3617 1.3017 23.6817 3.8117 23.6817H5.5617V25.7617C5.5617 28.2917 6.8817 29.6017 9.3717 29.6017H20.5117C23.0117 29.6017 24.3117 28.2917 24.3117 25.7617V9.7617C24.3117 7.2317 23.0117 5.9217 20.5117 5.9217H18.7517ZM3.9917 21.3817C2.8617 21.3817 2.3017 20.7817 2.3017 19.7017V3.9817C2.3017 2.8917 2.8617 2.3017 3.9917 2.3017H14.7417C15.8817 2.3017 16.4517 2.8917 16.4517 3.9817V5.9217H9.3717C6.8717 5.9217 5.5617 7.2317 5.5617 9.7617V21.3817ZM22.0217 9.9017V25.6217C22.0217 26.6917 21.4417 27.3017 20.3117 27.3017H9.5717C8.4417 27.3017 7.8617 26.6917 7.8617 25.6217V9.9017C7.8617 8.8117 8.4417 8.2117 9.5717 8.2117H20.3117C21.4417 8.2117 22.0217 8.8117 22.0217 9.9017Z" />
        </svg>
    