
        <svg xmlns="http://www.w3.org/2000/svg" viewBox="0 0 100 100">
            <path d="M9.5717 -0.0019C8.5417 -0.0019 8.1017 0.9581 8.5917 1.8181L11.3017 6.3781C11.7817 7.1981 12.8817 7.1881 13.3617 6.3781L16.0617 1.8181C16.5817 0.9481 16.1117 -0.0019 15.0917 -0.0019ZM4.5917 26.1481H20.0617C22.9617 26.1481 24.6517 24.4581 24.6517 21.5481V13.2081C24.6517 10.2981 22.9617 8.6181 20.0617 8.6181H4.5917C1.7017 8.6181 0.0017 10.2981 0.0017 13.2081V21.5481C0.0017 24.4581 1.7017 26.1481 4.5917 26.1481ZM5.2217 21.9881C4.5117 21.9881 4.1617 21.6881 4.1617 20.9181V13.8381C4.1617 13.0681 4.5117 12.7781 5.2217 12.7781H19.4317C20.1417 12.7781 20.4917 13.0681 20.4917 13.8381V20.9181C20.4917 21.6881 20.1417 21.9881 19.4317 21.9881ZM9.5717 34.8981H15.0917C16.1117 34.8981 16.5817 33.9481 16.0617 33.0781L13.3617 28.5081C12.8917 27.7181 11.7817 27.7081 11.3017 28.5081L8.5917 33.0781C8.1017 33.9381 8.5417 34.8981 9.5717 34.8981Z" />
        </svg>
    