
        <svg xmlns="http://www.w3.org/2000/svg" viewBox="0 0 100 100">
            <path d="M3.7417 29.4714H16.7717C18.9717 29.4714 20.5217 27.8914 20.5217 25.6614V3.8114C20.5217 1.5814 18.9717 0.0014 16.7717 0.0014H3.7417C1.5317 0.0014 0.0017 1.5814 0.0017 3.8114V25.6614C0.0017 27.8914 1.5317 29.4714 3.7417 29.4714ZM3.7617 4.2514C3.7617 3.9514 3.9717 3.7514 4.2617 3.7514H16.3817C16.6017 3.7514 16.7617 3.9014 16.7617 4.1114V10.7914H3.7617ZM6.2417 9.7014C6.8217 9.7014 7.2517 9.2714 7.2517 8.6914V5.9414C7.2517 5.3714 6.8217 4.9414 6.2417 4.9414C5.6717 4.9414 5.2417 5.3714 5.2417 5.9414V8.6914C5.2417 9.2714 5.6717 9.7014 6.2417 9.7014ZM3.7617 22.0814V12.8714H16.7617V22.0814ZM6.2417 18.3914C6.8217 18.3914 7.2517 17.9614 7.2517 17.3814V14.6414C7.2517 14.0514 6.8217 13.6214 6.2417 13.6214C5.6717 13.6214 5.2417 14.0514 5.2417 14.6414V17.3814C5.2417 17.9614 5.6717 18.3914 6.2417 18.3914ZM4.2617 25.7214C3.9717 25.7214 3.7617 25.5214 3.7617 25.2214V24.1414H16.7617V25.3614C16.7617 25.5714 16.6017 25.7214 16.3817 25.7214Z" />
        </svg>
    