
        <svg xmlns="http://www.w3.org/2000/svg" viewBox="0 0 100 100">
            <path d="M24.6017 8.1995C25.3517 8.1995 25.8017 7.7695 25.8017 6.9595V1.4695C25.8017 0.5895 25.2217 -0.0005 24.3717 -0.0005C23.6817 -0.0005 23.2517 0.2195 22.7117 0.6295L21.1517 1.8195C20.8217 2.0595 20.7317 2.2695 20.7317 2.5695C20.7317 2.9995 21.0517 3.3195 21.5117 3.3195C21.7217 3.3195 21.9017 3.2495 22.0817 3.1095L23.2617 2.1795H23.3817V6.9595C23.3817 7.7695 23.8517 8.1995 24.6017 8.1995ZM1.2117 11.7395C1.9117 11.7395 2.4017 11.2395 2.4017 10.5395V9.4995C2.4017 7.4695 3.7817 6.1795 5.9417 6.1795H12.1617V8.8695C12.1617 9.4295 12.5017 9.7595 13.0617 9.7595C13.3217 9.7595 13.5617 9.6695 13.7417 9.5195L18.3517 5.6795C18.8017 5.3095 18.8017 4.7495 18.3517 4.3695L13.7417 0.5395C13.5617 0.3795 13.3217 0.2895 13.0617 0.2895C12.5017 0.2895 12.1617 0.6095 12.1617 1.1795V3.8095H6.1217C2.3917 3.8095 0.0017 5.8795 0.0017 9.2695V10.5395C0.0017 11.2395 0.5017 11.7395 1.2117 11.7395ZM24.5617 10.6295C23.8617 10.6295 23.3717 11.1295 23.3717 11.8395V12.8795C23.3717 14.9195 21.9817 16.2095 19.8317 16.2095H10.7717V13.5095C10.7717 12.9495 10.4317 12.6195 9.8717 12.6195C9.6117 12.6195 9.3717 12.7195 9.1717 12.8695L4.5817 16.7095C4.1417 17.0695 4.1417 17.6495 4.5817 18.0095L9.1717 21.8595C9.3717 22.0095 9.6117 22.0995 9.8717 22.0995C10.4317 22.0995 10.7717 21.7695 10.7717 21.2095V18.5595H19.6517C23.3817 18.5595 25.7717 16.4895 25.7717 13.1095V11.8395C25.7717 11.1295 25.2617 10.6295 24.5617 10.6295Z" />
        </svg>
    