
        <svg xmlns="http://www.w3.org/2000/svg" viewBox="0 0 100 100">
            <path d="M11.7523 23.5048C18.2323 23.5048 23.5123 18.2348 23.5123 11.7548C23.5123 5.2748 18.2323 0.0048 11.7523 0.0048C5.2723 0.0048 0.0023 5.2748 0.0023 11.7548C0.0023 18.2348 5.2723 23.5048 11.7523 23.5048ZM4.5223 10.7848C4.5223 8.8248 5.9023 7.5348 8.0023 7.5348H12.6523V5.9448C12.6523 5.6148 12.8523 5.4048 13.1723 5.4048C13.3123 5.4048 13.4723 5.4648 13.6023 5.5648L16.2623 7.7248C16.5623 7.9548 16.5623 8.3548 16.2623 8.6048L13.6023 10.7448C13.4723 10.8548 13.3123 10.8948 13.1723 10.8948C12.8523 10.8948 12.6523 10.6948 12.6523 10.3748V8.8148H7.9223C6.6723 8.8148 5.8323 9.6248 5.8323 10.8248V11.4248C5.8323 11.7848 5.5423 12.0748 5.1723 12.0748C4.8123 12.0748 4.5223 11.7848 4.5223 11.4248ZM19.0323 12.7748C19.0323 14.7348 17.6523 16.0148 15.5423 16.0148H10.9023V17.6248C10.9023 17.9548 10.7023 18.1648 10.3823 18.1648C10.2423 18.1648 10.0923 18.1048 9.9523 18.0048L7.2923 15.8448C6.9923 15.5948 6.9923 15.1948 7.2923 14.9648L9.9523 12.8248C10.0823 12.7148 10.2423 12.6648 10.3823 12.6648C10.7023 12.6648 10.9023 12.8648 10.9023 13.1948V14.7448H15.6323C16.8823 14.7448 17.7223 13.9348 17.7223 12.7248V12.1248C17.7223 11.7648 18.0023 11.4848 18.3823 11.4848C18.7523 11.4848 19.0323 11.7648 19.0323 12.1248Z" />
        </svg>
    