
        <svg xmlns="http://www.w3.org/2000/svg" viewBox="0 0 100 100">
            <path d="M16.2202 19.683C16.9602 19.683 17.4102 19.133 17.4102 18.253V1.433C17.4102 0.553 16.9602 0.003 16.2202 0.003C15.8202 0.003 15.5002 0.143 15.0902 0.373L1.1002 8.533C0.3002 8.993 0.0002 9.303 0.0002 9.843C0.0002 10.383 0.3002 10.713 1.1002 11.163L15.0902 19.313C15.5002 19.563 15.8202 19.683 16.2202 19.683ZM15.8102 18.003C15.7302 18.003 15.6702 17.973 15.5902 17.933L2.0402 10.063C1.9602 10.003 1.8502 9.953 1.8502 9.843C1.8502 9.743 1.9602 9.683 2.0402 9.623L15.5902 1.753C15.6702 1.713 15.7302 1.683 15.8102 1.683C15.9002 1.683 15.9602 1.753 15.9602 1.903V17.793C15.9602 17.933 15.9002 18.003 15.8102 18.003Z" />
        </svg>
    