
        <svg xmlns="http://www.w3.org/2000/svg" viewBox="0 0 100 100">
            <path d="M17.3702 21.6239C18.4602 21.6239 19.3502 20.7739 19.3502 19.3739V2.2339C19.3502 0.8339 18.4602 0.0039 17.3702 0.0039C16.8202 0.0039 16.3202 0.1639 15.6802 0.5439L1.6202 8.6939C0.5402 9.3239 0.0002 9.9039 0.0002 10.8039C0.0002 11.7139 0.5402 12.2939 1.6202 12.9139L15.6802 21.0739C16.3202 21.4439 16.8202 21.6239 17.3702 21.6239ZM16.0702 17.6739C16.0302 17.6739 16.0002 17.6639 15.9402 17.6239L4.3102 10.9239C4.2702 10.8839 4.2302 10.8639 4.2302 10.8039C4.2302 10.7539 4.2702 10.7239 4.3102 10.6839L15.9402 3.9739C16.0002 3.9539 16.0302 3.9239 16.0702 3.9239C16.1402 3.9239 16.1702 3.9739 16.1702 4.0539V17.5539C16.1702 17.6239 16.1402 17.6739 16.0702 17.6739Z" />
        </svg>
    