
        <svg xmlns="http://www.w3.org/2000/svg" viewBox="0 0 100 100">
            <path d="M16.0736 19.4992C16.6436 19.4992 17.0036 19.0892 17.0036 18.4092V1.0992C17.0036 0.4092 16.6436 -0.0008 16.0736 -0.0008C15.7836 -0.0008 15.5636 0.0792 15.2336 0.2792L0.7936 8.7692C0.2536 9.0692 0.0036 9.3292 0.0036 9.7492C0.0036 10.1692 0.2536 10.4292 0.7936 10.7492L15.2336 19.2192C15.5636 19.4192 15.7836 19.4992 16.0736 19.4992ZM15.9036 18.5392C15.7936 18.5392 15.7036 18.4892 15.6136 18.4292L1.2736 10.0892C1.1436 10.0092 0.9936 9.8992 0.9936 9.7492C0.9936 9.5992 1.1436 9.4892 1.2736 9.4192L15.6136 1.0692C15.7036 1.0092 15.7936 0.9592 15.9036 0.9592C16.0436 0.9592 16.1236 1.0592 16.1236 1.2792V18.2192C16.1236 18.4292 16.0436 18.5392 15.9036 18.5392Z" />
        </svg>
    