
        <svg xmlns="http://www.w3.org/2000/svg" viewBox="0 0 100 100">
            <path d="M27.1123 23.8932C27.3023 23.6932 27.2823 23.4432 27.1123 23.2832L3.9623 0.1232C3.8123 -0.0268 3.5423 -0.0568 3.3523 0.1232C3.1923 0.2832 3.1923 0.5732 3.3523 0.7332L26.5123 23.8932C26.6723 24.0532 26.9523 24.0532 27.1123 23.8932ZM15.1523 0.9432C12.6723 0.9432 10.3623 1.7832 8.5323 3.2132L9.1523 3.8332C10.8123 2.5932 12.8923 1.8332 15.1523 1.8332C20.7223 1.8332 25.2323 6.3432 25.2323 11.9132C25.2323 14.1632 24.4723 16.2432 23.2223 17.9132L23.8523 18.5332C25.2823 16.7032 26.1223 14.3932 26.1223 11.9132C26.1223 5.9032 21.1623 0.9432 15.1523 0.9432ZM27.0723 21.2632C29.0823 18.6832 30.3023 15.4532 30.3023 11.9132C30.3023 8.3632 29.0823 5.1032 27.0623 2.5332C26.8923 2.3132 26.6223 2.2932 26.4123 2.4632C26.2123 2.6332 26.1923 2.8932 26.3523 3.1032C28.2623 5.5132 29.4123 8.5832 29.4123 11.9132C29.4123 15.1932 28.3023 18.2132 26.4423 20.6332ZM3.8923 21.3532C4.0923 21.1932 4.1123 20.9332 3.9523 20.7132C2.0423 18.3132 0.8923 15.2432 0.8923 11.9132C0.8923 8.6232 2.0123 5.5932 3.8823 3.1832L3.2423 2.5532C1.2023 5.1432 0.0023 8.3832 0.0023 11.9132C0.0023 15.4532 1.2223 18.7132 3.2423 21.2832C3.4223 21.5132 3.6823 21.5332 3.8923 21.3532ZM15.1523 22.8832C17.6323 22.8832 19.9323 22.0232 21.7623 20.6232L21.1323 19.9832C19.4723 21.2432 17.4023 21.9932 15.1523 21.9932C9.5823 21.9932 5.0823 17.4832 5.0823 11.9132C5.0823 9.6632 5.8223 7.5832 7.0823 5.9332L6.4423 5.3032C5.0423 7.1332 4.1823 9.4232 4.1823 11.9132C4.1823 17.9232 9.1423 22.8832 15.1523 22.8832ZM22.8423 11.9132C22.8423 9.9432 21.4923 8.5532 19.5923 8.5532C18.5723 8.5532 17.7623 8.9832 15.9723 10.6632L16.4923 11.1732C18.1923 9.6532 18.8223 9.3232 19.5923 9.3132C21.0423 9.3132 22.0623 10.3932 22.0623 11.9132C22.0623 13.3032 21.1423 14.3232 19.6923 14.3832L20.3523 15.0432C21.8223 14.7932 22.8423 13.5732 22.8423 11.9132ZM7.5123 11.9132C7.5123 13.8832 8.8323 15.2432 10.7223 15.2432C11.8123 15.2432 12.6723 14.7132 14.3323 13.1932L13.8023 12.6632C12.2323 14.0732 11.5823 14.4832 10.7223 14.4832C9.2823 14.4832 8.2723 13.4232 8.2723 11.9132C8.2723 10.4932 9.1923 9.4632 10.5423 9.4032L9.8923 8.7332C8.4623 9.0332 7.5123 10.2732 7.5123 11.9132Z" />
        </svg>
    