
        <svg xmlns="http://www.w3.org/2000/svg" viewBox="0 0 100 100">
            <path d="M16.4917 21.1289C16.6917 21.1289 16.9117 21.0389 17.0617 20.8789L24.0617 13.9589C24.2317 13.7789 24.3117 13.5789 24.3117 13.3689C24.3117 13.1489 24.2317 12.9489 24.0617 12.7689L17.0617 5.8489C16.9117 5.6989 16.6917 5.5989 16.4917 5.5989C16.0217 5.5989 15.7017 5.9289 15.7017 6.3889C15.7017 6.6089 15.7817 6.7989 15.9117 6.9389L19.6217 10.5789L21.9517 12.6689L19.2817 12.5789H3.5017C2.2117 12.5789 1.5717 11.9389 1.5717 10.5689V3.4989C1.5717 2.1989 2.2117 1.5689 3.5017 1.5689H10.6917C11.1817 1.5689 11.4817 1.2189 11.4817 0.7889C11.4817 0.3489 11.1717 -0.0011 10.6917 -0.0011H3.5017C1.0917 -0.0011 0.0017 1.0889 0.0017 3.4989V10.5689C0.0017 12.9889 1.0917 14.1589 3.5017 14.1589H19.2817L21.9517 14.0589L19.6217 16.1489L15.9117 19.8089C15.7817 19.9289 15.7017 20.1189 15.7017 20.3389C15.7017 20.7989 16.0217 21.1289 16.4917 21.1289Z" />
        </svg>
    