
        <svg xmlns="http://www.w3.org/2000/svg" viewBox="0 0 100 100">
            <path d="M8.0617 22.0036C8.8217 22.0036 9.3317 21.4936 9.3317 20.7636C9.3317 20.3936 9.1717 20.1136 8.9517 19.8736L5.9317 16.9336L3.8717 15.2036L6.5817 15.3136H21.2217C24.1517 15.3136 25.3917 13.9936 25.3917 11.1236V4.1736C25.3917 1.2436 24.1517 0.0036 21.2217 0.0036H14.7217C13.9617 0.0036 13.4217 0.5736 13.4217 1.2736C13.4217 1.9836 13.9417 2.5536 14.7217 2.5536H21.1617C22.3617 2.5536 22.8617 3.0536 22.8617 4.2436V11.0436C22.8617 12.2436 22.3517 12.7536 21.1617 12.7536H6.5817L3.8717 12.8836L5.9317 11.1336L8.9517 8.1936C9.1717 7.9736 9.3317 7.6836 9.3317 7.3036C9.3317 6.5736 8.8217 6.0536 8.0617 6.0536C7.7417 6.0536 7.3917 6.2036 7.1417 6.4536L0.4117 13.0736C0.1417 13.3336 0.0017 13.6836 0.0017 14.0436C0.0017 14.3836 0.1417 14.7336 0.4117 14.9836L7.1417 21.6236C7.3917 21.8636 7.7417 22.0036 8.0617 22.0036Z" />
        </svg>
    