
        <svg xmlns="http://www.w3.org/2000/svg" viewBox="0 0 100 100">
            <path d="M0.0017 21.6556C0.0017 23.6256 1.0417 24.6656 3.0117 24.6656H15.7017C17.6617 24.6656 18.7017 23.6256 18.7017 21.6556V3.0156C18.7017 1.0456 17.6617 -0.0044 15.7017 -0.0044H3.0117C1.0417 -0.0044 0.0017 1.0456 0.0017 3.0156ZM3.2417 10.1456C3.0717 10.1456 2.9617 10.0456 2.9617 9.8856C2.9617 9.8556 2.9717 9.7956 3.0017 9.7456L5.3017 3.9756C5.3317 3.8556 5.4517 3.7856 5.5817 3.7856C5.7117 3.7856 5.8117 3.8556 5.8617 3.9756L8.1517 9.7456C8.1717 9.7956 8.1817 9.8556 8.1817 9.8856C8.1817 10.0456 8.0717 10.1456 7.9117 10.1456C7.8017 10.1456 7.7117 10.0856 7.6717 9.9756L6.9117 8.0356H4.2317L3.4817 9.9756C3.4317 10.0856 3.3517 10.1456 3.2417 10.1456ZM4.4417 7.5156H6.7117L5.5817 4.6056H5.5617ZM10.4017 5.5656C10.2317 5.5656 10.1017 5.4356 10.1017 5.2756C10.1017 5.1056 10.2317 4.9756 10.4017 4.9756H15.7517C15.9217 4.9756 16.0617 5.1056 16.0617 5.2756C16.0617 5.4356 15.9217 5.5656 15.7517 5.5656ZM10.4017 9.7256C10.2317 9.7256 10.1017 9.5956 10.1017 9.4356C10.1017 9.2656 10.2317 9.1356 10.4017 9.1356H15.7517C15.9217 9.1356 16.0617 9.2656 16.0617 9.4356C16.0617 9.5956 15.9217 9.7256 15.7517 9.7256ZM2.4917 20.7056V13.7656C2.4917 12.7356 3.0017 12.2456 4.0317 12.2456H14.6717C15.7017 12.2456 16.2217 12.7356 16.2217 13.7656V20.7056H15.9017L12.7717 17.2956C12.4817 16.9656 12.0717 16.8256 11.7117 16.8256C11.3917 16.8256 11.0417 16.9756 10.6717 17.2856L7.7817 19.7656L6.6817 18.7656C6.4117 18.5156 6.0917 18.3656 5.8117 18.3656C5.5417 18.3656 5.2617 18.4956 4.9617 18.7656L2.8117 20.7056ZM6.7817 17.2356C7.6317 17.2356 8.3217 16.5456 8.3217 15.7056C8.3217 14.8556 7.6317 14.1656 6.7817 14.1756C5.9517 14.1756 5.2617 14.8556 5.2617 15.7056C5.2617 16.5456 5.9517 17.2356 6.7817 17.2356Z" />
        </svg>
    