
        <svg xmlns="http://www.w3.org/2000/svg" viewBox="0 0 100 100">
            <path d="M0.0017 21.6556C0.0017 23.6256 1.0417 24.6656 3.0117 24.6656H15.7017C17.6617 24.6656 18.7017 23.6256 18.7017 21.6556V3.0156C18.7017 1.0456 17.6617 -0.0044 15.7017 -0.0044H3.0117C1.0417 -0.0044 0.0017 1.0456 0.0017 3.0156ZM0.5717 21.6356V3.0356C0.5717 1.4156 1.4217 0.5756 3.0317 0.5756H15.6717C17.3017 0.5756 18.1317 1.4156 18.1317 3.0356V21.6356C18.1317 23.2456 17.3017 24.0956 15.6717 24.0956H3.0317C1.4217 24.0956 0.5717 23.2456 0.5717 21.6356ZM3.2317 10.1356C3.3417 10.1356 3.4217 10.0756 3.4717 9.9656L4.2217 8.0356H6.9117L7.6617 9.9656C7.7117 10.0756 7.7917 10.1356 7.9017 10.1356C8.0717 10.1356 8.1717 10.0356 8.1717 9.8856C8.1717 9.8456 8.1517 9.7856 8.1417 9.7356L5.8517 3.9656C5.8017 3.8556 5.7117 3.7856 5.5817 3.7856C5.4517 3.7856 5.3317 3.8556 5.2817 3.9656L2.9917 9.7356C2.9717 9.7856 2.9517 9.8456 2.9517 9.8856C2.9517 10.0356 3.0617 10.1356 3.2317 10.1356ZM4.4317 7.4956L5.5517 4.5956H5.5817L6.7017 7.4956ZM10.4017 5.5556H15.7617C15.9417 5.5556 16.0617 5.4256 16.0617 5.2656C16.0617 5.1056 15.9417 4.9656 15.7617 4.9656H10.4017C10.2317 4.9656 10.1017 5.1056 10.1017 5.2656C10.1017 5.4256 10.2317 5.5556 10.4017 5.5556ZM10.4017 9.7156H15.7617C15.9417 9.7156 16.0617 9.5856 16.0617 9.4256C16.0617 9.2556 15.9417 9.1256 15.7617 9.1256H10.4017C10.2317 9.1256 10.1017 9.2556 10.1017 9.4256C10.1017 9.5856 10.2317 9.7156 10.4017 9.7156ZM2.4817 20.7056H2.8117L4.9617 18.7656C5.2617 18.4956 5.5417 18.3656 5.8117 18.3656C6.0917 18.3656 6.4117 18.5156 6.6817 18.7656L7.7817 19.7656L10.6717 17.2856C11.0417 16.9756 11.3917 16.8256 11.7117 16.8256C12.0717 16.8256 12.4817 16.9656 12.7717 17.2956L15.9017 20.7056H16.2217V13.7656C16.2217 12.7356 15.7117 12.2456 14.6817 12.2456H4.0317C3.0017 12.2456 2.4817 12.7356 2.4817 13.7656ZM6.7817 17.2356C5.9517 17.2356 5.2617 16.5456 5.2617 15.7056C5.2617 14.8556 5.9517 14.1756 6.7817 14.1756C7.6317 14.1656 8.3217 14.8556 8.3217 15.7056C8.3217 16.5456 7.6317 17.2356 6.7817 17.2356Z" />
        </svg>
    