
        <svg xmlns="http://www.w3.org/2000/svg" viewBox="0 0 100 100">
            <path d="M11.4923 22.977C17.8123 22.977 22.9823 17.827 22.9823 11.497C22.9823 5.167 17.8123 -0.003 11.4923 -0.003C5.1723 -0.003 0.0023 5.167 0.0023 11.497C0.0023 17.827 5.1723 22.977 11.4923 22.977ZM8.5323 16.807C8.2623 16.807 8.0823 16.607 8.0823 16.327V6.747C8.0823 6.447 8.2423 6.247 8.5123 6.247H11.7623C13.7323 6.247 15.0823 7.507 15.0823 9.367C15.0823 10.887 14.1423 12.047 12.6823 12.347L14.8523 16.017C14.9523 16.197 14.9923 16.277 14.9923 16.417C14.9923 16.657 14.8323 16.807 14.5923 16.807C14.3623 16.807 14.2623 16.727 14.1223 16.487L11.7823 12.467H8.9923V16.327C8.9923 16.617 8.8223 16.807 8.5323 16.807ZM8.9923 11.697H11.7323C13.1923 11.697 14.1823 10.767 14.1823 9.377C14.1823 7.957 13.1823 7.027 11.7423 7.027H8.9923Z" />
        </svg>
    