
        <svg xmlns="http://www.w3.org/2000/svg" viewBox="0 0 100 100">
            <path d="M1.5017 17.4539C2.4417 17.4539 3.0017 16.8639 3.0017 15.8939V10.7439H6.2417C6.3117 10.7439 6.4117 10.7439 6.4817 10.7339L9.6317 16.3739C10.0917 17.1639 10.4417 17.4539 11.1317 17.4539C11.9917 17.4539 12.6417 16.8539 12.6417 16.0439C12.6417 15.7139 12.5617 15.4439 12.3317 15.0339L9.5317 10.2139C11.5517 9.4439 12.7017 7.6139 12.7017 5.3639C12.7017 2.0639 10.4517 0.0039 6.7017 0.0039H1.5017C0.5817 0.0039 0.0017 0.5939 0.0017 1.5539V15.8939C0.0017 16.8639 0.5617 17.4539 1.5017 17.4539ZM3.0017 8.4039V2.4739H6.4017C8.4217 2.4739 9.6217 3.5839 9.6217 5.4339C9.6217 7.3039 8.4817 8.4039 6.4417 8.4039Z" />
        </svg>
    