
        <svg xmlns="http://www.w3.org/2000/svg" viewBox="0 0 100 100">
            <path d="M0.4617 17.1284C0.7217 17.1284 0.9017 16.9484 0.9017 16.6684V9.7484H5.3517C5.5517 9.7484 5.8517 9.7384 6.0517 9.7184L10.2817 16.8784C10.3817 17.0484 10.5117 17.1284 10.7017 17.1284C10.9417 17.1284 11.1417 16.9584 11.1417 16.7084C11.1417 16.5984 11.1017 16.5084 11.0417 16.3984L6.9717 9.5884C9.4717 9.0684 10.9317 7.3084 10.9317 4.8584C10.9317 1.8484 8.8217 -0.0016 5.4417 -0.0016H0.4617C0.2017 -0.0016 0.0017 0.1984 0.0017 0.4684V16.6684C0.0017 16.9484 0.1717 17.1284 0.4617 17.1284ZM0.9017 8.9084V0.8484H5.3817C8.3017 0.8484 10.0117 2.3184 10.0117 4.8784C10.0117 7.3784 8.2817 8.9084 5.4017 8.9084Z" />
        </svg>
    