
        <svg xmlns="http://www.w3.org/2000/svg" viewBox="0 0 100 100">
            <path d="M1.9694 22.5077H20.2194C21.7994 22.5077 22.5194 21.7877 22.5194 20.2077V1.9677C22.5194 0.7377 21.7494 -0.0023 20.6494 -0.0023C19.9294 -0.0023 19.4094 0.3277 18.8594 0.8677L0.8694 18.8577C0.3294 19.4077 -0.0006 19.9377 -0.0006 20.6477C-0.0006 21.7477 0.7394 22.5077 1.9694 22.5077ZM19.9194 3.1877C19.9794 3.1177 20.0294 3.0977 20.0694 3.0977C20.1594 3.0977 20.1994 3.1777 20.1994 3.2677V18.6677L12.3194 10.7977ZM3.2694 20.2077C3.1794 20.2077 3.0894 20.1577 3.0894 20.0777C3.0894 20.0277 3.1194 19.9777 3.1894 19.9077L10.7494 12.3477L18.6094 20.2077Z" />
        </svg>
    