
        <svg xmlns="http://www.w3.org/2000/svg" viewBox="0 0 100 100">
            <path d="M9.3017 21.7242H18.7217C25.6417 21.7242 28.0317 19.2442 28.0317 12.6442V9.0842C28.0317 2.4842 25.6417 0.0042 18.7217 0.0042H9.3017C2.3917 0.0042 0.0017 2.4842 0.0017 9.0842V12.6442C0.0017 19.2442 2.3917 21.7242 9.3017 21.7242ZM14.3217 15.8642C13.7817 15.8642 13.4517 15.5042 13.4517 14.9342V7.2642C13.4517 6.3942 13.9717 5.9042 14.8317 5.9042C15.5717 5.9042 16.0417 6.2242 16.1917 7.0042L17.6217 13.0242H17.6617L19.0617 7.0042C19.2217 6.2542 19.6717 5.9042 20.4617 5.9042C21.3117 5.9042 21.8417 6.3842 21.8417 7.2642V14.9342C21.8417 15.5042 21.5417 15.8642 20.9617 15.8642C20.4017 15.8642 20.1017 15.5042 20.1017 14.9342V8.9042H20.0317L18.6117 14.7842C18.4817 15.3542 18.1917 15.6842 17.6617 15.6842C17.1217 15.6842 16.8117 15.3242 16.7017 14.8042L15.2717 8.9042H15.2017V14.9342C15.2017 15.5042 14.8717 15.8642 14.3217 15.8642ZM6.9417 15.8542C6.2917 15.8542 5.9417 15.4542 5.9417 14.8142V7.0942C5.9417 6.4342 6.2817 6.0442 6.9217 6.0442H8.8917C10.8117 6.0442 11.9717 7.1042 11.9717 9.0942C11.9717 10.1342 11.6017 11.1942 10.7117 11.6942L11.7317 14.2242C11.8217 14.4842 11.8917 14.7042 11.9017 14.8842C11.9217 15.5242 11.4517 15.8542 10.9717 15.8542C10.4417 15.8542 10.1217 15.5742 9.9417 15.0242L8.8517 12.1042H7.9317V14.8142C7.9317 15.4542 7.5717 15.8542 6.9417 15.8542ZM7.9317 10.6942H8.7217C9.5817 10.6942 9.9617 9.9942 9.9617 9.1442C9.9617 8.2942 9.5417 7.6042 8.7217 7.6042H7.9317Z" />
        </svg>
    