
        <svg xmlns="http://www.w3.org/2000/svg" viewBox="0 0 100 100">
            <path d="M7.8117 19.5009H17.9017C24.0017 19.5009 25.7217 17.2009 25.7217 11.6809V7.8209C25.7217 2.3009 24.0017 0.0009 17.9017 0.0009H7.8117C1.7217 0.0009 0.0017 2.3009 0.0017 7.8209V11.6809C0.0017 17.2009 1.7217 19.5009 7.8117 19.5009ZM13.0917 14.6209C12.9017 14.6209 12.7717 14.4609 12.7717 14.2709V5.4209C12.7717 5.1009 12.9617 4.9109 13.3017 4.9109C13.5517 4.9109 13.7317 5.0809 13.8117 5.3909L16.1817 13.5709H16.2517L18.5817 5.3909C18.6717 5.0609 18.8517 4.9109 19.1517 4.9109C19.4717 4.9109 19.6517 5.0709 19.6517 5.4209V14.2709C19.6517 14.4609 19.5217 14.6209 19.3317 14.6209C19.1517 14.6209 18.9917 14.4809 18.9917 14.2709V6.1309H18.9717L16.6917 14.0709C16.6317 14.3409 16.4917 14.5109 16.2117 14.5109C15.9417 14.5109 15.8017 14.3109 15.7417 14.0709L13.4517 6.1309H13.4017V14.2709C13.4017 14.4709 13.2817 14.6209 13.0917 14.6209ZM6.4317 14.5309C6.2317 14.5309 6.0817 14.3809 6.0817 14.1809V5.3009C6.0817 5.0709 6.2017 4.9409 6.4217 4.9409H8.3317C10.0117 4.9409 10.9117 6.0209 10.9117 7.6209C10.9117 9.0109 10.2217 9.8709 9.2617 10.1709L10.9417 14.0309C10.9817 14.0809 10.9917 14.1609 10.9917 14.2109C10.9917 14.3809 10.8617 14.5309 10.6517 14.5309C10.5017 14.5309 10.3917 14.4709 10.3217 14.3209L8.6017 10.3509H6.7717V14.1809C6.7717 14.3809 6.6317 14.5309 6.4317 14.5309ZM6.7717 9.7409H8.2717C9.6117 9.7409 10.2317 8.8509 10.2317 7.6309C10.2317 6.2709 9.4417 5.5709 8.2617 5.5709H6.7717Z" />
        </svg>
    