
        <svg xmlns="http://www.w3.org/2000/svg" viewBox="0 0 100 100">
            <path d="M9.4117 22.683H19.1817C26.2617 22.683 28.5917 20.273 28.5917 13.203V9.483C28.5917 2.413 26.2617 0.003 19.1817 0.003H9.4117C2.3317 0.003 0.0017 2.413 0.0017 9.483V13.203C0.0017 20.273 2.3317 22.683 9.4117 22.683ZM9.4117 19.063C4.9417 19.063 3.6217 17.723 3.6217 13.203V9.483C3.6217 4.953 4.9417 3.623 9.4117 3.623H19.1817C23.6517 3.623 24.9717 4.953 24.9717 9.483V13.203C24.9717 17.723 23.6517 19.063 19.1817 19.063ZM14.5617 15.953C15.1617 15.953 15.4917 15.563 15.4917 14.953V9.923H15.5517L16.6317 14.843C16.7417 15.413 17.0417 15.753 17.6117 15.753C18.1517 15.753 18.4617 15.433 18.5817 14.833L19.6517 9.923H19.7017V14.953C19.7017 15.563 20.0117 15.953 20.6217 15.953C21.2417 15.953 21.5617 15.563 21.5617 14.953V8.193C21.5617 7.263 21.0017 6.763 20.0817 6.763C19.2517 6.763 18.7717 7.103 18.6217 7.903L17.6017 12.833H17.5917L16.5617 7.903C16.3917 7.053 15.8817 6.763 15.1017 6.763C14.1817 6.763 13.6317 7.263 13.6317 8.193V14.953C13.6317 15.563 13.9617 15.953 14.5617 15.953ZM7.7717 15.953C8.4617 15.953 8.8217 15.513 8.8217 14.813V12.613H9.4017L10.2117 15.023C10.4017 15.643 10.7617 15.953 11.3217 15.953C11.8817 15.953 12.3417 15.523 12.3117 14.883C12.3017 14.673 12.2617 14.503 12.1717 14.283L11.3817 12.163C12.1317 11.673 12.4217 10.683 12.4217 9.793C12.4217 7.863 11.3317 6.903 9.5017 6.903H7.7717C7.0517 6.903 6.6917 7.313 6.6917 8.023V14.813C6.6917 15.513 7.0617 15.953 7.7717 15.953ZM8.8217 11.143V8.523H9.3117C9.9517 8.523 10.2417 9.203 10.2417 9.833C10.2417 10.503 9.9717 11.143 9.3017 11.143Z" />
        </svg>
    