
        <svg xmlns="http://www.w3.org/2000/svg" viewBox="0 0 100 100">
            <path d="M9.4717 23.2008H19.4217C26.5917 23.2008 28.8917 20.8208 28.8917 13.5108V9.6908C28.8917 2.3808 26.5917 0.0008 19.4217 0.0008H9.4717C2.3117 0.0008 0.0017 2.3808 0.0017 9.6908V13.5108C0.0017 20.8208 2.3117 23.2008 9.4717 23.2008ZM9.4717 19.0408C5.3317 19.0408 4.1617 17.8508 4.1617 13.5108V9.6908C4.1617 5.3708 5.3317 4.1608 9.4717 4.1608H19.4217C23.5517 4.1608 24.7217 5.3708 24.7217 9.6908V13.5108C24.7217 17.8508 23.5517 19.0408 19.4217 19.0408ZM14.6917 16.1108C15.3517 16.1108 15.6817 15.7108 15.6817 15.0608V10.4308H15.7417L16.6517 14.9608C16.7717 15.5608 17.0717 15.9108 17.6717 15.9108C18.2317 15.9108 18.5517 15.6008 18.6917 14.9508L19.5917 10.4308H19.6417V15.0608C19.6417 15.7108 19.9717 16.1108 20.6117 16.1108C21.2717 16.1108 21.6117 15.7108 21.6117 15.0608V8.6208C21.6117 7.6408 21.0117 7.1108 20.0417 7.1108C19.1617 7.1108 18.6417 7.4508 18.4917 8.3008L17.6517 12.7808L16.8017 8.3008C16.6417 7.3908 16.0917 7.1108 15.2717 7.1108C14.2817 7.1108 13.7217 7.6308 13.7217 8.6208V15.0608C13.7217 15.7108 14.0517 16.1108 14.6917 16.1108ZM8.0517 16.1108C8.7917 16.1108 9.1717 15.6608 9.1717 14.9208V12.9108H9.5717L10.2517 15.1308C10.4617 15.8008 10.8517 16.1108 11.4217 16.1108C12.0617 16.1108 12.5117 15.6408 12.4917 14.9808C12.4817 14.7408 12.4417 14.6008 12.3617 14.3908L11.6717 12.4408C12.3517 11.9408 12.6117 10.9808 12.6117 10.1208C12.6117 8.1908 11.5317 7.2408 9.7017 7.2408H8.0517C7.2917 7.2408 6.9017 7.6908 6.9017 8.4508V14.9208C6.9017 15.6708 7.2917 16.1108 8.0517 16.1108ZM9.1717 11.3808V8.9508H9.5117C10.0617 8.9508 10.2917 9.6208 10.2917 10.1708C10.2917 10.7608 10.0817 11.3808 9.5017 11.3808Z" />
        </svg>
    