
        <svg xmlns="http://www.w3.org/2000/svg" viewBox="0 0 100 100">
            <path d="M11.1104 2.3116H11.2104C11.5204 2.3116 11.6604 2.0316 11.4904 1.7916C11.0804 1.2216 10.6004 0.5716 10.2904 0.2016C10.1804 0.0716 10.0404 0.0016 9.8504 0.0016H9.7704C9.5604 0.0016 9.4204 0.1916 9.5604 0.4016C9.9004 0.9216 10.2304 1.5016 10.5504 2.0016C10.6604 2.2016 10.7904 2.3116 11.1104 2.3116ZM0.4104 16.7316H1.7804C2.1404 16.7316 2.3204 16.5916 2.3804 16.3116C3.7204 11.0716 3.7704 5.6916 2.0604 0.2916C2.0004 0.1316 1.9104 0.0616 1.7104 0.0616H1.3004C1.1604 0.0616 1.0304 0.1516 1.0804 0.3616C2.4004 6.1216 2.1004 11.0116 0.0504 16.1816C-0.0796 16.5216 0.0704 16.7316 0.4104 16.7316ZM26.9304 16.7316H28.2904C28.7104 16.7316 28.8304 16.4616 28.7604 16.1216C27.1204 8.6716 22.9004 3.5816 18.6304 0.2416C18.4404 0.0916 18.3304 0.0616 18.1604 0.0616H17.9204C17.7504 0.0616 17.6404 0.2616 17.7904 0.4316C22.6704 5.4016 25.1404 10.2516 26.2204 16.2116C26.2804 16.5516 26.4704 16.7316 26.9304 16.7316ZM13.5204 8.0516H13.7404C14.0504 8.0516 14.2504 7.7916 14.1404 7.4616C13.9304 6.8816 13.7104 6.2416 13.4504 5.6616C13.3204 5.3516 13.1704 5.2516 12.9004 5.2516H12.7504C12.5004 5.2516 12.3004 5.4116 12.4204 5.7416C12.6504 6.4316 12.8204 7.0516 12.9504 7.5616C13.0304 7.8916 13.2104 8.0516 13.5204 8.0516ZM14.7904 16.7316H15.0004C15.3404 16.7316 15.5604 16.5116 15.5504 16.1716C15.4604 14.6016 15.2704 12.7716 15.0104 11.5616C14.9504 11.3016 14.7504 11.1416 14.4804 11.1416H14.3104C14.0004 11.1416 13.8304 11.3116 13.8904 11.6416C14.0604 12.8016 14.1704 14.5516 14.2004 16.1716C14.2004 16.5116 14.4404 16.7316 14.7904 16.7316Z" />
        </svg>
    