
        <svg xmlns="http://www.w3.org/2000/svg" viewBox="0 0 100 100">
            <path d="M8.0123 23.9259L14.4623 20.2959L20.9223 23.9259C21.4723 24.2359 22.1823 24.0359 22.5023 23.4759C22.8123 22.9259 22.6023 22.2159 22.0523 21.9059L18.6323 19.9759C24.2223 19.1859 28.9223 16.8759 28.9223 14.1659V6.9259V6.9059C28.9223 2.4259 22.1623 -0.0041 14.4623 -0.0041C6.7523 -0.0041 0.0023 2.4259 0.0023 6.9059V6.9259V14.1659C0.0023 16.8859 4.5723 19.2059 10.2823 19.9959L6.8823 21.9059C6.3323 22.2159 6.1023 22.9259 6.4323 23.4759C6.7523 24.0359 7.4623 24.2359 8.0123 23.9259ZM14.4623 10.8159C8.9023 10.8159 3.1423 9.1159 3.1423 6.9059C3.1423 4.9659 7.4523 3.0259 14.4623 3.0259C21.4523 3.0259 25.7823 4.9659 25.7823 6.9059C25.7823 9.1159 20.0123 10.8159 14.4623 10.8159ZM14.4623 7.2759C16.9323 7.2759 18.3723 6.5759 18.3723 5.6259C18.3723 4.7059 16.9323 3.9859 14.4623 3.9859C11.9723 3.9859 10.5423 4.6959 10.5423 5.6259C10.5423 6.5759 11.9723 7.2759 14.4623 7.2759ZM14.4623 6.0859C13.0823 6.0859 12.3123 5.8759 12.3123 5.6259C12.3123 5.3759 13.0623 5.1659 14.4623 5.1659C15.8423 5.1659 16.5923 5.3759 16.5923 5.6259C16.5923 5.8759 15.8323 6.0859 14.4623 6.0859ZM9.8123 9.5359C10.6123 9.5359 11.2723 9.2059 11.2723 8.8159C11.2723 8.4159 10.6123 8.0959 9.8123 8.0959C9.0223 8.0959 8.3423 8.4159 8.3423 8.8159C8.3423 9.2059 9.0223 9.5359 9.8123 9.5359ZM19.1123 9.5359C19.9023 9.5359 20.5823 9.2059 20.5823 8.8159C20.5823 8.4159 19.9023 8.0959 19.1123 8.0959C18.3023 8.0959 17.6523 8.4159 17.6523 8.8159C17.6523 9.2059 18.3023 9.5359 19.1123 9.5359ZM14.4623 9.9859C15.2723 9.9859 15.9223 9.6659 15.9223 9.2659C15.9223 8.8759 15.2723 8.5459 14.4623 8.5459C13.6523 8.5459 12.9923 8.8759 12.9923 9.2659C12.9923 9.6659 13.6523 9.9859 14.4623 9.9859ZM14.4623 13.8759C18.8823 13.8759 23.0623 12.8659 25.7823 11.2259V13.6759C25.7823 15.4259 20.4623 17.2259 14.4623 17.2259C8.4523 17.2259 3.1523 15.4259 3.1523 13.6759V11.3159C5.8723 12.9359 10.0423 13.8759 14.4623 13.8759Z" />
        </svg>
    