
        <svg xmlns="http://www.w3.org/2000/svg" viewBox="0 0 100 100">
            <path d="M13.6923 10.1627C19.9823 10.1627 27.1923 7.8827 27.1923 5.0627C27.1923 2.2627 21.1523 0.0027 13.6923 0.0027C6.2123 0.0027 0.1723 2.2627 0.1723 5.0627C0.1723 7.8827 7.3923 10.1627 13.6923 10.1627ZM13.6923 5.1927C11.2023 5.1927 9.7823 4.5127 9.7823 3.5527C9.7823 2.6127 11.1823 1.9127 13.6923 1.9127C16.1923 1.9127 17.5823 2.6127 17.5823 3.5527C17.5823 4.5127 16.1723 5.1927 13.6923 5.1927ZM13.6923 4.1127C15.1623 4.1127 15.9623 3.8527 15.9623 3.5527C15.9623 3.2427 15.2023 2.9727 13.6923 2.9727C12.1523 2.9727 11.4023 3.2427 11.4023 3.5527C11.4023 3.8527 12.1923 4.1127 13.6923 4.1127ZM9.2023 7.8727C8.4623 7.8727 7.8323 7.5827 7.8323 7.2027C7.8323 6.8427 8.4623 6.5227 9.2023 6.5227C9.9623 6.5227 10.5823 6.8427 10.5823 7.2027C10.5823 7.5827 9.9623 7.8727 9.2023 7.8727ZM18.1623 7.8727C17.4123 7.8727 16.7923 7.5827 16.7923 7.2027C16.7923 6.8427 17.4123 6.5227 18.1623 6.5227C18.9123 6.5227 19.5423 6.8427 19.5423 7.2027C19.5423 7.5827 18.9123 7.8727 18.1623 7.8727ZM13.6923 8.3527C12.9423 8.3527 12.3123 8.0527 12.3123 7.6827C12.3123 7.3127 12.9423 6.9927 13.6923 6.9927C14.4423 6.9927 15.0623 7.3127 15.0623 7.6827C15.0623 8.0527 14.4423 8.3527 13.6923 8.3527ZM7.5123 21.2827L13.6923 17.8027L19.8723 21.2827C20.3123 21.5227 20.8723 21.3627 21.1123 20.9227C21.3623 20.4927 21.2023 19.9327 20.7823 19.6827L16.9723 17.5427C22.9123 16.9827 27.3623 14.8827 27.3623 11.8327V7.7327C25.2623 9.9327 20.2423 11.7627 13.6923 11.7627C7.1223 11.7627 2.1023 9.9327 0.0023 7.7327V11.8327C0.0023 14.8827 4.4623 16.9927 10.4023 17.5427L6.6123 19.6827C6.1723 19.9327 6.0123 20.4927 6.2623 20.9227C6.5023 21.3627 7.0623 21.5227 7.5123 21.2827Z" />
        </svg>
    