
        <svg xmlns="http://www.w3.org/2000/svg" viewBox="0 0 100 100">
            <path d="M0.0017 2.3484C0.0017 3.6484 1.0517 4.6884 2.3417 4.6884C3.6317 4.6884 4.6917 3.6484 4.6917 2.3484C4.6917 1.0584 3.6317 -0.0016 2.3417 -0.0016C1.0517 -0.0016 0.0017 1.0584 0.0017 2.3484ZM8.4717 24.3884H23.9417C25.2317 24.3884 26.2817 23.3284 26.2817 22.0384V2.3484C26.2817 1.0584 25.2317 -0.0016 23.9417 -0.0016H5.3117C5.8617 0.5884 6.1317 1.3484 6.1317 2.3484V22.0384C6.1317 23.3284 7.1717 24.3884 8.4717 24.3884ZM1.4917 6.5484C1.4917 7.0184 1.8717 7.4084 2.3417 7.4084C2.8217 7.4084 3.2017 7.0184 3.2017 6.5484C3.2017 6.0784 2.8217 5.6984 2.3417 5.6984C1.8717 5.6984 1.4917 6.0784 1.4917 6.5484ZM1.4917 9.2584C1.4917 9.7284 1.8717 10.1084 2.3417 10.1084C2.8217 10.1084 3.2017 9.7284 3.2017 9.2584C3.2017 8.7884 2.8217 8.3984 2.3417 8.3984C1.8717 8.3984 1.4917 8.7884 1.4917 9.2584ZM1.3517 14.7984C1.3517 15.3484 1.8017 15.7984 2.3417 15.7984C2.8917 15.7984 3.3417 15.3484 3.3417 14.7984V12.1184C3.3417 11.5684 2.8917 11.1184 2.3417 11.1184C1.7917 11.1184 1.3517 11.5684 1.3517 12.1184Z" />
        </svg>
    