
        <svg xmlns="http://www.w3.org/2000/svg" viewBox="0 0 100 100">
            <path d="M0.0017 1.9355C0.0017 2.9955 0.8717 3.8655 1.9417 3.8655C3.0017 3.8655 3.8817 2.9955 3.8817 1.9355C3.8817 0.8655 3.0017 -0.0045 1.9417 -0.0045C0.8717 -0.0045 0.0017 0.8655 0.0017 1.9355ZM7.0217 23.7855H23.4217C24.4917 23.7855 25.3617 22.9255 25.3617 21.8555V1.9355C25.3617 0.8655 24.4917 -0.0045 23.4217 -0.0045H4.4217C4.8617 0.4755 5.0817 1.1155 5.0817 1.9355V21.8555C5.0817 22.9255 5.9517 23.7855 7.0217 23.7855ZM1.2617 5.7755C1.2617 6.1555 1.5617 6.4555 1.9417 6.4555C2.3217 6.4555 2.6217 6.1555 2.6217 5.7755C2.6217 5.4055 2.3217 5.0955 1.9417 5.0955C1.5617 5.0955 1.2617 5.4055 1.2617 5.7755ZM1.2617 8.3655C1.2617 8.7455 1.5617 9.0555 1.9417 9.0555C2.3217 9.0555 2.6217 8.7455 2.6217 8.3655C2.6217 7.9955 2.3217 7.6855 1.9417 7.6855C1.5617 7.6855 1.2617 7.9955 1.2617 8.3655ZM1.2217 14.0755C1.2217 14.4655 1.5517 14.7855 1.9417 14.7855C2.3317 14.7855 2.6617 14.4655 2.6617 14.0755V11.0155C2.6617 10.6155 2.3317 10.2855 1.9417 10.2855C1.5517 10.2855 1.2217 10.6155 1.2217 11.0155Z" />
        </svg>
    