
        <svg xmlns="http://www.w3.org/2000/svg" viewBox="0 0 100 100">
            <path d="M0.0017 2.7098C0.0017 4.2198 1.2217 5.4398 2.7217 5.4398C4.2117 5.4398 5.4217 4.2198 5.4217 2.7098C5.4217 1.2198 4.2117 -0.0002 2.7217 -0.0002C1.2217 -0.0002 0.0017 1.2198 0.0017 2.7098ZM9.8217 25.8198H23.9517C25.4417 25.8198 26.6617 24.5998 26.6617 23.1098V2.7098C26.6617 1.2198 25.4417 -0.0002 23.9517 -0.0002H6.1617C6.7717 0.7098 7.1017 1.6398 7.1017 2.7098V23.1098C7.1017 24.5998 8.3217 25.8198 9.8217 25.8198ZM1.6917 7.3398C1.6917 7.8998 2.1417 8.3698 2.7217 8.3698C3.2917 8.3698 3.7517 7.8998 3.7517 7.3398C3.7517 6.7598 3.3017 6.2898 2.7217 6.2898C2.1317 6.2898 1.6917 6.7598 1.6917 7.3398ZM1.6917 10.2498C1.6917 10.8198 2.1417 11.2898 2.7217 11.2898C3.2917 11.2898 3.7517 10.8198 3.7517 10.2498C3.7517 9.6798 3.3017 9.2198 2.7217 9.2198C2.1317 9.2198 1.6917 9.6798 1.6917 10.2498ZM1.5617 15.7598C1.5617 16.4198 2.0617 16.9298 2.7217 16.9298C3.3617 16.9298 3.8817 16.4198 3.8817 15.7598V13.2998C3.8817 12.6698 3.3617 12.1298 2.7217 12.1298C2.0617 12.1298 1.5617 12.6698 1.5617 13.2998Z" />
        </svg>
    