
        <svg xmlns="http://www.w3.org/2000/svg" viewBox="0 0 100 100">
            <path d="M0.0017 10.5214C0.0017 13.8114 1.4617 16.7114 3.7717 18.6314V26.2014C3.7717 27.3914 4.5617 27.9514 5.4717 27.9514C6.0717 27.9514 6.5017 27.7114 6.9717 27.2414L10.3617 23.8914C10.4617 23.7914 10.5817 23.7214 10.7017 23.7214C10.8117 23.7214 10.9217 23.7914 11.0317 23.8914L14.4417 27.2414C14.8917 27.6914 15.3317 27.9514 15.9217 27.9514C16.8417 27.9514 17.6117 27.3914 17.6117 26.2014V18.2814C19.6917 16.3614 20.9717 13.6014 20.9717 10.5214C20.9917 4.6414 16.3517 0.0014 10.4917 0.0014C4.6317 0.0014 0.0017 4.6414 0.0017 10.5214ZM3.6817 10.5214C3.6717 6.7414 6.6817 3.6714 10.5017 3.6714C14.3017 3.6714 17.3117 6.7414 17.3217 10.5214C17.3217 14.2814 14.3017 17.3714 10.5017 17.3514C6.6817 17.3514 3.6717 14.2814 3.6817 10.5214Z" />
        </svg>
    