
        <svg xmlns="http://www.w3.org/2000/svg" viewBox="0 0 100 100">
            <path d="M0.0017 8.8692C0.0017 11.2992 0.9817 13.4992 2.5817 15.0892V24.8392C2.5817 25.2292 2.8017 25.4692 3.1017 25.4692C3.4317 25.4692 3.6317 25.2692 3.8417 25.0592L7.9917 20.9292C8.3917 20.5292 8.6417 20.3992 8.8617 20.3992C9.0817 20.3992 9.3317 20.5292 9.7117 20.9292L13.8517 25.0592C14.0817 25.2892 14.3017 25.4692 14.5917 25.4692C14.9317 25.4692 15.1317 25.2292 15.1317 24.8392V15.0692C16.7117 13.4792 17.6917 11.2692 17.6917 8.8692C17.6917 3.9992 13.7117 -0.0008 8.8517 -0.0008C3.9717 -0.0008 0.0017 3.9992 0.0017 8.8692ZM0.8817 8.8692C0.8817 4.4392 4.4317 0.8692 8.8517 0.8692C13.2617 0.8692 16.8117 4.4392 16.8317 8.8692C16.8317 13.2992 13.2617 16.8892 8.8517 16.8792C4.4317 16.8792 0.8817 13.2992 0.8817 8.8692Z" />
        </svg>
    