
        <svg xmlns="http://www.w3.org/2000/svg" viewBox="0 0 100 100">
            <path d="M0.0017 9.6317C0.0017 12.5117 1.2817 15.1017 3.2817 16.8717L3.2917 25.4217C3.2917 26.2417 3.7617 26.5917 4.3517 26.5917C4.7917 26.5917 5.1317 26.3517 5.4817 26.0017L9.2017 22.3117C9.3717 22.1517 9.5117 22.0817 9.6517 22.0817C9.7817 22.0817 9.9217 22.1517 10.1017 22.3117L13.8117 26.0017C14.1817 26.3717 14.5217 26.5917 14.9617 26.5917C15.5517 26.5917 16.0117 26.2417 16.0117 25.4217V16.7617C17.9517 15.0117 19.1817 12.4617 19.1817 9.6317C19.1917 4.3117 14.8817 0.0017 9.6017 0.0017C4.3017 0.0017 0.0017 4.3117 0.0017 9.6317ZM2.3317 9.6317C2.3217 5.5617 5.5217 2.3017 9.6117 2.3017C13.6717 2.3017 16.8717 5.5617 16.8917 9.6317C16.8917 13.6917 13.6717 16.9817 9.6117 16.9717C5.5217 16.9617 2.3217 13.6917 2.3317 9.6317Z" />
        </svg>
    