
        <svg xmlns="http://www.w3.org/2000/svg" viewBox="0 0 100 100">
            <path d="M9.7823 14.6436C10.5723 14.6736 11.3823 14.6936 12.2223 14.6936C19.4323 14.6936 24.4423 13.6536 24.4423 12.2236C24.4423 5.5336 18.9123 0.0036 12.2123 0.0036C10.7823 0.0036 9.7423 5.0136 9.7423 12.2236C9.7423 13.0636 9.7623 13.8736 9.7823 14.6436ZM7.3623 14.5236C7.3223 13.7836 7.3023 13.0036 7.3023 12.2236C7.3023 7.1136 8.0423 2.9036 9.2223 0.4136C3.9623 1.7336 0.0023 6.5636 0.0023 12.2236C0.0023 13.3036 2.8623 14.1636 7.3623 14.5236ZM9.9123 17.0736C10.2623 21.5736 11.1323 24.4436 12.2123 24.4436C17.8923 24.4436 22.7223 20.4836 24.0323 15.2136C21.5423 16.3936 17.3323 17.1336 12.2223 17.1336C11.4223 17.1336 10.6623 17.1136 9.9123 17.0736ZM7.5323 16.9136C4.5223 16.6136 2.0623 16.0036 0.4123 15.2136C1.4623 19.5236 4.9223 22.9736 9.2223 24.0436C8.4223 22.3836 7.8323 19.9136 7.5323 16.9136Z" />
        </svg>
    