
        <svg xmlns="http://www.w3.org/2000/svg" viewBox="0 0 100 100">
            <path d="M8.3623 14.617C9.3423 14.697 10.3923 14.727 11.4923 14.727C18.4023 14.727 22.9823 13.257 22.9823 11.497C22.9823 5.177 17.8023 -0.003 11.4823 -0.003C9.7223 -0.003 8.2523 4.577 8.2523 11.497C8.2523 12.597 8.2923 13.637 8.3623 14.617ZM7.5023 14.557C7.4223 13.577 7.3823 12.567 7.3823 11.497C7.3823 6.107 8.3923 1.867 9.8823 0.127C4.3123 0.917 0.0023 5.727 0.0023 11.497C0.0023 12.887 2.8723 14.107 7.5023 14.557ZM8.4223 15.477C8.8723 20.107 10.0923 22.977 11.4823 22.977C17.2523 22.977 22.0823 18.667 22.8523 13.097C21.1123 14.587 16.8723 15.597 11.4923 15.597C10.4223 15.597 9.4023 15.567 8.4223 15.477ZM7.5723 15.407C4.0823 15.057 1.4223 14.207 0.1323 13.117C0.8323 18.137 4.8523 22.147 9.8623 22.867C8.7823 21.577 7.9323 18.917 7.5723 15.407Z" />
        </svg>
    