
        <svg xmlns="http://www.w3.org/2000/svg" viewBox="0 0 100 100">
            <path d="M0.9242 11.1965C1.4442 11.1965 1.8642 10.7665 1.8642 10.2565V8.3365C1.8642 5.8865 3.4642 4.1365 5.9142 4.1365H6.3842V5.6365C6.3842 6.5365 7.1642 6.7865 7.8642 6.2565L11.0242 3.9065C11.5342 3.5265 11.5242 3.0265 11.0242 2.6465L7.8642 0.2765C7.1642 -0.2535 6.3842 -0.0135 6.3842 0.9265V2.3865H5.9342C2.4342 2.3865 0.0042 4.8065 0.0042 8.3365V10.2565C0.0042 10.7665 0.4242 11.1965 0.9242 11.1965ZM20.7842 26.7665C23.0042 26.7665 24.1842 25.6165 24.1842 23.3665V11.8165C24.1842 9.5665 23.0042 8.4065 20.7842 8.4065H9.2142C6.9942 8.4065 5.8142 9.5665 5.8142 11.8165V23.3665C5.8142 25.6165 6.9942 26.7665 9.2142 26.7665Z" />
        </svg>
    