
        <svg xmlns="http://www.w3.org/2000/svg" viewBox="0 0 100 100">
            <path d="M8.9923 14.5048C9.8523 14.5548 10.7923 14.5848 11.7523 14.5848C18.7523 14.5848 23.5123 13.3348 23.5123 11.7548C23.5123 5.3048 18.1923 0.0048 11.7423 0.0048C10.1623 0.0048 8.9023 4.7548 8.9023 11.7548C8.9023 12.7148 8.9423 13.6448 8.9923 14.5048ZM7.5423 14.4348C7.4923 13.5748 7.4623 12.6748 7.4623 11.7548C7.4623 6.4848 8.3323 2.2748 9.6723 0.1948C4.2023 1.1848 0.0023 6.0248 0.0023 11.7548C0.0023 12.9948 2.9223 14.0348 7.5423 14.4348ZM9.0723 15.9448C9.4523 20.5748 10.5023 23.4948 11.7423 23.5048C17.4823 23.5048 22.3223 19.2848 23.3123 13.8248C21.2323 15.1648 17.0123 16.0448 11.7523 16.0448C10.8123 16.0448 9.9223 16.0048 9.0723 15.9448ZM7.6523 15.8548C4.3023 15.5248 1.6923 14.8048 0.2123 13.8348C1.0523 18.6048 4.8823 22.4448 9.6523 23.2948C8.7023 21.8248 7.9723 19.1948 7.6523 15.8548Z" />
        </svg>
    