
        <svg xmlns="http://www.w3.org/2000/svg" viewBox="0 0 100 100">
            <path d="M21.8017 10.0828C22.0117 10.0828 22.1817 9.9128 22.1817 9.7028V7.8728C22.1817 4.5428 19.8117 2.2328 16.1817 2.2328H15.9817V0.5228C15.9817 0.0028 15.4917 -0.1472 15.0717 0.1428L12.1717 2.1528C11.7417 2.4528 11.7317 2.8028 12.1717 3.1028L15.0717 5.1028C15.4917 5.4128 15.9817 5.2428 15.9817 4.7428V2.9928H16.1717C19.5217 2.9928 21.4117 5.1828 21.4117 7.8928V9.7028C21.4117 9.9128 21.5817 10.0828 21.8017 10.0828ZM2.3917 23.8428H14.2717C15.8517 23.8428 16.6617 23.0628 16.6617 21.4628V9.6728C16.6617 8.0828 15.8517 7.2828 14.2717 7.2828H2.3917C0.8117 7.2828 0.0017 8.0828 0.0017 9.6728V21.4628C0.0017 23.0628 0.8117 23.8428 2.3917 23.8428ZM2.4217 22.9728C1.3817 22.9728 0.8817 22.4828 0.8817 21.4328V9.7028C0.8817 8.6528 1.3817 8.1628 2.4217 8.1628H14.2417C15.2817 8.1628 15.7817 8.6528 15.7817 9.7028V21.4328C15.7817 22.4828 15.2817 22.9728 14.2417 22.9728Z" />
        </svg>
    