
        <svg xmlns="http://www.w3.org/2000/svg" viewBox="0 0 100 100">
            <path d="M11.3523 22.7064C17.6323 22.7064 22.7123 17.6264 22.7123 11.3564C22.7123 5.0764 17.6323 -0.0036 11.3523 -0.0036C5.0823 -0.0036 0.0023 5.0764 0.0023 11.3564C0.0023 17.6264 5.0823 22.7064 11.3523 22.7064ZM11.3523 22.1364C5.3923 22.1364 0.5723 17.3164 0.5723 11.3564C0.5723 5.3864 5.3923 0.5764 11.3523 0.5764C17.3223 0.5764 22.1323 5.3864 22.1323 11.3564C22.1323 17.3164 17.3223 22.1364 11.3523 22.1364ZM9.4223 13.2864C10.0223 13.3364 10.6623 13.3664 11.3523 13.3664C15.4723 13.3664 18.1323 12.4264 18.1623 11.3464C18.1623 7.6164 15.0923 4.5464 11.3623 4.5464C10.2923 4.5864 9.3423 7.2464 9.3423 11.3564C9.3423 12.0464 9.3723 12.6864 9.4223 13.2864ZM8.9723 13.2664C8.9423 12.6664 8.9023 12.0364 8.9023 11.3564C8.9023 8.1464 9.5423 5.6364 10.4423 4.6064C7.1523 5.0464 4.5723 7.9064 4.5423 11.3164C4.5423 12.1964 6.2123 12.9564 8.9723 13.2664ZM9.0223 13.6864C6.9423 13.4664 5.3623 12.9464 4.6023 12.2664C5.0323 15.2764 7.4323 17.6864 10.4423 18.1064C9.7623 17.3464 9.2423 15.7764 9.0223 13.6864ZM9.4423 13.7364C9.7523 16.4964 10.5123 18.1664 11.3923 18.1664C14.8023 18.1364 17.6623 15.5664 18.1023 12.2664C17.0723 13.1764 14.5623 13.8064 11.3523 13.8064C10.6723 13.8064 10.0523 13.7764 9.4423 13.7364Z" />
        </svg>
    