
        <svg xmlns="http://www.w3.org/2000/svg" viewBox="0 0 100 100">
            <path d="M12.6023 25.1969C19.5623 25.1969 25.2023 19.5569 25.2023 12.5969C25.2023 5.6369 19.5623 -0.0031 12.6023 -0.0031C5.6523 -0.0031 0.0023 5.6369 0.0023 12.5969C0.0023 19.5569 5.6523 25.1969 12.6023 25.1969ZM11.3523 13.8369C11.3423 13.4369 11.3423 13.0469 11.3423 12.6069C11.3423 8.7169 11.8623 5.9969 12.6023 5.9969C16.2423 5.9969 19.2023 8.9669 19.2023 12.6069C19.2023 13.3269 16.5023 13.8669 12.6023 13.8669C12.1723 13.8669 11.7523 13.8469 11.3523 13.8369ZM9.7023 13.7569C7.4223 13.5569 5.9923 13.1369 5.9923 12.6069C6.0023 9.6469 7.9423 7.1369 10.6323 6.2969C10.0323 7.7569 9.6823 9.9769 9.6823 12.6069C9.6823 12.9969 9.6823 13.3869 9.7023 13.7569ZM9.8123 15.3869C9.9723 16.8069 10.2523 18.0269 10.6423 18.9269C8.5623 18.2769 6.9223 16.6369 6.2923 14.5669C7.1923 14.9369 8.3923 15.2269 9.8123 15.3869ZM11.4523 15.4969C11.8223 15.5169 12.2123 15.5169 12.6023 15.5169C15.2623 15.5169 17.4623 15.1669 18.9123 14.5669C18.0823 17.2569 15.5623 19.2169 12.6023 19.2169C12.0723 19.2169 11.6323 17.7769 11.4523 15.4969Z" />
        </svg>
    