
        <svg xmlns="http://www.w3.org/2000/svg" viewBox="0 0 100 100">
            <path d="M0.0017 11.4025C0.0017 14.0425 0.4917 15.3125 2.4517 16.3325L8.9917 19.7225C11.5117 21.0325 13.3817 21.3725 16.2117 20.5425L26.3317 17.5825C29.6017 16.6125 31.0217 14.6025 31.0217 11.4025V3.8925C31.0217 1.5325 29.5117 0.0125 27.1617 0.0125L3.8817 0.0025C1.5217 0.0025 0.0017 1.5125 0.0017 3.8625ZM15.7417 14.2225C14.4217 14.2225 13.3517 13.6425 12.9817 12.4925C12.9017 12.2725 12.8717 12.1425 12.8717 11.8925C12.8717 11.4125 13.2117 11.0525 13.7017 11.0525C14.1217 11.0525 14.4717 11.2425 14.6017 11.7025C14.7217 12.2225 15.0917 12.6925 15.7517 12.6925C16.4017 12.6925 16.8017 12.2225 16.8017 11.5825C16.8017 10.7725 16.2317 10.4325 15.5117 10.1325L14.8817 9.8825C13.7217 9.4025 12.8917 8.6025 12.8917 7.1525C12.8917 5.4125 14.0817 4.3825 15.7017 4.3825C16.9617 4.3825 18.0217 5.0225 18.4017 6.2825C18.4617 6.4925 18.4717 6.6325 18.4717 6.7525C18.4717 7.1925 18.1917 7.5325 17.6517 7.5425C17.2017 7.5425 16.9117 7.3825 16.7817 6.9325C16.6417 6.3825 16.3217 5.9425 15.6917 5.9425C15.1017 5.9425 14.7617 6.3725 14.7617 6.9925C14.7617 7.7725 15.2817 8.1325 15.9917 8.4225L16.6417 8.6825C17.9317 9.2025 18.6917 9.8925 18.6917 11.4025C18.6917 13.1725 17.5817 14.2225 15.7417 14.2225ZM21.0017 14.0225C20.3717 14.0225 20.0417 13.6125 20.0417 13.0225V5.6525C20.0417 5.0625 20.3517 4.6325 21.0017 4.6325H23.4017C24.7817 4.6325 25.7617 5.4925 25.7617 6.9725C25.7617 7.9225 25.1517 8.8825 24.2317 9.0225V9.0825C25.3117 9.1725 26.0117 10.2025 26.0117 11.3425C26.0117 12.8925 25.1017 14.0225 23.4817 14.0225ZM6.7617 14.1725C6.1217 14.1725 5.7817 13.7825 5.7817 13.1525V5.6525C5.7817 5.0125 6.1217 4.6425 6.7517 4.6425H8.6617C10.5117 4.6425 11.6517 5.6525 11.6517 7.5925C11.6517 8.6125 11.2817 9.6325 10.4217 10.1225L11.4017 12.5825C11.5117 12.8325 11.5617 13.0525 11.5817 13.2225C11.5817 13.8625 11.1417 14.1725 10.6717 14.1725C10.1517 14.1725 9.8417 13.8825 9.6717 13.3625L8.6017 10.5225H7.7117V13.1525C7.7117 13.7825 7.3617 14.1725 6.7617 14.1725ZM21.9517 8.5625H22.7217C23.5117 8.5625 23.9217 8.0725 23.9217 7.2925C23.9217 6.5725 23.6217 6.0625 22.8317 6.0625H21.9517ZM7.7117 9.1525H8.4817C9.3317 9.1525 9.6917 8.4725 9.6917 7.6425C9.6917 6.8225 9.2817 6.1425 8.4817 6.1425H7.7117ZM21.9517 12.6025H22.8517C23.7117 12.6025 24.0917 12.0325 24.0917 11.1925C24.0917 10.2725 23.5917 9.8125 22.8117 9.8125H21.9517Z" />
        </svg>
    