
        <svg xmlns="http://www.w3.org/2000/svg" viewBox="0 0 100 100">
            <path d="M0.0017 10.0428C0.0017 12.2828 0.2217 13.1028 1.9017 13.9528L8.5217 17.3228C10.7417 18.4528 12.1217 18.7228 14.5917 17.9928L24.6317 15.0228C27.4217 14.2028 28.4617 12.7528 28.4617 10.0428V2.8828C28.4617 1.0528 27.4417 0.0028 25.5817 0.0028H2.8717C1.0117 0.0028 0.0017 1.0328 0.0017 2.8728ZM0.5717 10.0428V2.8928C0.5717 1.3628 1.4217 0.5728 2.9017 0.5728H25.5617C27.0517 0.5728 27.8917 1.3828 27.8917 2.9228V10.0428C27.8917 12.5528 27.0817 13.7028 24.4317 14.4828L14.3917 17.4528C12.0517 18.1328 10.9417 17.9028 8.8317 16.8328L2.2017 13.4628C0.7017 12.7028 0.5717 12.1528 0.5717 10.0428ZM14.4417 12.5128C16.0617 12.5128 16.9317 11.4128 16.9317 9.9128C16.9317 8.4028 16.0917 7.7928 14.8617 7.2928L14.2617 7.0528C13.3217 6.6828 12.6817 6.1428 12.6817 5.0928C12.6817 4.0828 13.2817 3.3428 14.3417 3.3428C15.4117 3.3428 16.0117 4.0928 16.1217 5.0428C16.1517 5.2228 16.2517 5.3228 16.4317 5.3228C16.6317 5.3228 16.7417 5.1728 16.7417 4.9828C16.7417 4.8528 16.7217 4.6528 16.6917 4.5328C16.3617 3.4128 15.5417 2.7028 14.3417 2.7028C12.9817 2.7028 12.0017 3.6928 12.0017 5.1128C12.0017 6.5128 12.7417 7.1928 14.0417 7.7028L14.6517 7.9428C15.6917 8.3428 16.2517 8.8428 16.2517 9.9728C16.2517 11.0728 15.6017 11.8928 14.4717 11.8928C13.3117 11.8928 12.6117 11.0828 12.4917 10.0028C12.4717 9.7928 12.3417 9.7128 12.1917 9.7128C11.9917 9.7128 11.8817 9.8828 11.8817 10.1028C11.8817 10.1828 11.8817 10.2628 11.9217 10.4028C12.1717 11.6628 13.0517 12.5128 14.4417 12.5128ZM5.8217 12.4128C6.0217 12.4128 6.1617 12.2528 6.1617 12.0628V8.2228H8.0017L9.7117 12.1828C9.7817 12.3528 9.8917 12.4128 10.0417 12.4128C10.2517 12.4128 10.3817 12.2528 10.3817 12.0828C10.3817 12.0228 10.3717 11.9528 10.3517 11.8928L8.6617 8.0528C9.6117 7.7328 10.3117 6.8828 10.3117 5.4828C10.3117 3.8928 9.4017 2.8128 7.7217 2.8128H5.8117C5.5917 2.8128 5.4717 2.9428 5.4717 3.1628V12.0628C5.4717 12.2528 5.6217 12.4128 5.8217 12.4128ZM18.9617 12.3728H21.2017C22.7817 12.3728 23.6917 11.3428 23.6917 9.8228C23.6917 8.6328 23.1017 7.5928 21.9517 7.4428V7.3928C22.7817 7.2228 23.3317 6.2128 23.3317 5.2028C23.3317 3.8928 22.5317 2.8828 21.1517 2.8828H18.9617C18.7617 2.8828 18.6417 3.0328 18.6417 3.2328V12.0128C18.6417 12.2228 18.7517 12.3728 18.9617 12.3728ZM6.1617 7.6028V3.4228H7.6517C8.8317 3.4228 9.6217 4.1328 9.6217 5.4928C9.6217 6.7128 9.0017 7.6028 7.6617 7.6028ZM19.2917 7.1828V3.5028H21.0117C22.0817 3.5028 22.6517 4.2028 22.6517 5.2728C22.6517 6.4228 22.0217 7.1828 20.8817 7.1828ZM19.2917 11.7628V7.7928H21.0017C22.2617 7.7928 23.0117 8.5228 23.0117 9.7728C23.0117 11.0128 22.3217 11.7628 21.0817 11.7628Z" />
        </svg>
    