
        <svg xmlns="http://www.w3.org/2000/svg" viewBox="0 0 100 100">
            <path d="M10.0117 0.0014C2.9317 0.0014 0.0017 3.0114 0.0017 10.1114V17.6414C0.0017 20.4014 1.5817 21.9814 4.3617 21.9814H23.8517C26.6217 21.9814 28.2117 20.4014 28.2117 17.6414V10.1114C28.2117 3.0114 25.2617 0.0014 18.2017 0.0014ZM10.1817 3.6214H18.0217C22.6517 3.6214 24.5717 5.5514 24.5717 10.1414V17.1214C24.5717 17.9214 24.1317 18.3614 23.3517 18.3614H4.8517C4.0617 18.3614 3.6217 17.9214 3.6217 17.1214V10.1414C3.6217 5.5514 5.5417 3.6214 10.1817 3.6214ZM17.4917 15.5714C18.0817 15.5714 18.5517 15.1014 18.5517 14.5114V8.2714H19.4517C19.9217 8.2714 20.3117 7.8914 20.3117 7.4014C20.3117 6.9414 19.9217 6.5514 19.4517 6.5514H15.5117C15.0317 6.5514 14.6517 6.9414 14.6517 7.4014C14.6517 7.8914 15.0317 8.2714 15.5117 8.2714H16.4217V14.5114C16.4217 15.1014 16.9017 15.5714 17.4917 15.5714ZM9.2417 15.6014C9.9417 15.6014 10.3017 15.1614 10.3017 14.4714V12.2614H10.8717L11.6817 14.6714C11.8817 15.2914 12.2317 15.6014 12.7817 15.6014C13.3617 15.6014 13.8117 15.1714 13.7917 14.5314C13.7817 14.3214 13.7317 14.1514 13.6517 13.9314L12.8517 11.8114C13.6017 11.3214 13.9017 10.3314 13.9017 9.4414C13.9017 7.5114 12.8117 6.5514 10.9817 6.5514H9.2417C8.5317 6.5514 8.1717 6.9714 8.1717 7.6714V14.4714C8.1717 15.1614 8.5317 15.6014 9.2417 15.6014ZM10.3017 10.7914V8.1714H10.7917C11.4217 8.1714 11.7217 8.8514 11.7217 9.4814C11.7217 10.1514 11.4517 10.7914 10.7817 10.7914Z" />
        </svg>
    