
        <svg xmlns="http://www.w3.org/2000/svg" viewBox="0 0 100 100">
            <path d="M8.4117 -0.002C2.3217 -0.002 0.0017 2.898 0.0017 8.418V16.028C0.0017 17.898 1.0117 18.918 2.8717 18.918H22.2517C24.1017 18.918 25.1217 17.868 25.1217 16.028V8.418C25.1217 2.898 22.8017 -0.002 16.7117 -0.002ZM8.4417 0.578H16.6917C22.4317 0.578 24.5517 3.268 24.5517 8.448V16.008C24.5517 17.538 23.7117 18.338 22.2217 18.338H2.9017C1.3617 18.338 0.5717 17.538 0.5717 16.008V8.448C0.5717 3.268 2.6917 0.578 8.4417 0.578ZM7.4717 14.248C7.6717 14.248 7.8017 14.108 7.8017 13.908V10.078H9.6417L11.3517 14.038C11.4417 14.208 11.5317 14.248 11.6917 14.248C11.8917 14.248 12.0217 14.108 12.0217 13.938C12.0217 13.878 12.0117 13.808 11.9917 13.748L10.3017 9.898C11.2617 9.588 11.9517 8.738 11.9517 7.338C11.9517 5.738 11.0417 4.668 9.3717 4.668H7.4517C7.2417 4.668 7.1217 4.788 7.1217 5.018V13.908C7.1217 14.108 7.2617 14.248 7.4717 14.248ZM15.8217 14.318C16.0117 14.318 16.1617 14.168 16.1617 13.978V5.348H17.9617C18.1417 5.348 18.2717 5.218 18.2717 5.038C18.2717 4.868 18.1417 4.738 17.9617 4.738H13.4317C13.2517 4.738 13.1217 4.868 13.1217 5.038C13.1217 5.218 13.2517 5.348 13.4317 5.348H15.4917V13.978C15.4917 14.168 15.6317 14.318 15.8217 14.318ZM7.8017 9.458V5.288H9.2917C10.4917 5.288 11.2717 5.988 11.2717 7.358C11.2717 8.568 10.6517 9.458 9.3117 9.458Z" />
        </svg>
    