
        <svg xmlns="http://www.w3.org/2000/svg" viewBox="0 0 100 100">
            <path d="M12.3723 24.7459C19.2023 24.7459 24.7523 19.2059 24.7523 12.3759C24.7523 5.5459 19.2023 -0.0041 12.3723 -0.0041C5.5423 -0.0041 0.0023 5.5459 0.0023 12.3759C0.0023 19.2059 5.5423 24.7459 12.3723 24.7459ZM15.8323 17.0759C15.2823 17.0759 14.8323 16.6259 14.8323 16.0659V9.4559H13.7323C13.2923 9.4559 12.9223 9.0959 12.9223 8.6359C12.9223 8.1959 13.2923 7.8259 13.7323 7.8259H17.9023C18.3523 7.8259 18.7123 8.1959 18.7123 8.6359C18.7123 9.0959 18.3523 9.4559 17.9023 9.4559H16.8423V16.0659C16.8423 16.6259 16.3923 17.0759 15.8323 17.0759ZM7.3523 17.0859C6.6823 17.0859 6.3323 16.6859 6.3323 16.0359V8.8859C6.3323 8.2259 6.6823 7.8359 7.3323 7.8359H9.1623C10.9923 7.8359 12.1023 8.8259 12.1023 10.7459C12.1023 11.6959 11.7623 12.6959 10.9523 13.1859L11.8623 15.4759C11.9523 15.7259 12.0023 15.9159 12.0123 16.1059C12.0223 16.7359 11.5923 17.0859 11.0723 17.0859C10.5423 17.0859 10.2323 16.7959 10.0323 16.2459L9.0823 13.6059H8.3423V16.0359C8.3423 16.6759 7.9823 17.0859 7.3523 17.0859ZM8.3423 12.1959H8.9723C9.7423 12.1959 10.0523 11.5459 10.0523 10.7859C10.0523 10.0459 9.7023 9.3759 8.9923 9.3759H8.3423Z" />
        </svg>
    