
        <svg xmlns="http://www.w3.org/2000/svg" viewBox="0 0 100 100">
            <path d="M1.3517 22.137H24.0017V21.497C24.0017 21.137 23.7917 20.927 23.4217 20.927H22.6717V7.597H23.7517C24.2417 7.597 24.5317 7.247 24.5317 6.867C24.5317 6.607 24.3917 6.367 24.0617 6.177L14.0017 0.377C13.5717 0.127 13.1117 -0.003 12.6717 -0.003C12.2317 -0.003 11.7617 0.127 11.3417 0.377L1.2917 6.177C0.9617 6.367 0.8217 6.607 0.8217 6.867C0.8217 7.247 1.0917 7.597 1.5917 7.597H2.6717V20.927H1.9217C1.5717 20.927 1.3517 21.137 1.3517 21.497ZM4.0417 20.927V6.277L12.1217 1.727C12.2817 1.627 12.4817 1.567 12.6717 1.567C12.8717 1.567 13.0517 1.627 13.2317 1.727L21.3017 6.277V20.927ZM10.6717 17.497C11.0317 17.497 11.2417 17.257 11.2417 16.917V15.597H14.0817C14.2817 15.597 14.4117 15.467 14.4117 15.257C14.4117 15.057 14.2817 14.927 14.0817 14.927H11.2417V13.367H13.4017C15.4817 13.367 16.7217 12.037 16.7217 10.247C16.7217 8.407 15.4317 7.097 13.4317 7.097H10.6917C10.3517 7.097 10.1217 7.347 10.1217 7.697V12.707H8.8917C8.6817 12.707 8.5517 12.827 8.5517 13.047C8.5517 13.247 8.6817 13.367 8.8917 13.367H10.1217V14.927H8.8917C8.6817 14.927 8.5517 15.057 8.5517 15.257C8.5517 15.467 8.6817 15.597 8.8917 15.597H10.1217V16.917C10.1217 17.257 10.3317 17.497 10.6717 17.497ZM11.2417 12.437V8.077H13.1417C14.7917 8.077 15.5717 8.977 15.5717 10.247C15.5717 11.637 14.6617 12.437 13.1417 12.437ZM0.7217 24.497H24.6217C25.0217 24.497 25.3517 24.167 25.3517 23.767C25.3517 23.367 25.0217 23.037 24.6217 23.037H0.7217C0.3317 23.037 0.0017 23.367 0.0017 23.767C0.0017 24.167 0.3317 24.497 0.7217 24.497Z" />
        </svg>
    