
        <svg xmlns="http://www.w3.org/2000/svg" viewBox="0 0 100 100">
            <path d="M1.0617 25.7816H25.8017C26.3817 25.7816 26.8717 25.3016 26.8717 24.7116C26.8717 24.1416 26.3817 23.6616 25.8017 23.6616H25.1917V22.7416C25.1917 22.2316 24.8917 21.9216 24.3717 21.9216H23.6917V8.3716H24.7017C25.4217 8.3716 25.8417 7.8516 25.8417 7.3116C25.8417 6.9216 25.6217 6.5716 25.1517 6.2916L14.9717 0.4216C14.4917 0.1516 13.9717 0.0016 13.4617 0.0016C12.9617 0.0016 12.4217 0.1516 11.9517 0.4216L1.7817 6.2916C1.3017 6.5716 1.0917 6.9216 1.0917 7.3116C1.0917 7.8516 1.5117 8.3716 2.2217 8.3716H3.2417V21.9216H2.5617C2.0517 21.9216 1.7417 22.2316 1.7417 22.7416V23.6616H1.0617C0.4817 23.6616 0.0017 24.1416 0.0017 24.7116C0.0017 25.3016 0.4817 25.7816 1.0617 25.7816ZM11.3917 19.4316C10.8617 19.4316 10.5517 19.1016 10.5517 18.5616V17.5516H9.3117C9.0717 17.5516 8.9217 17.4016 8.9217 17.1516C8.9217 16.9216 9.0717 16.7716 9.3117 16.7716H10.5517V15.2116H9.3117C9.0717 15.2116 8.9217 15.0716 8.9217 14.8216C8.9217 14.5816 9.0717 14.4216 9.3117 14.4216H10.5517V9.3616C10.5517 8.8216 10.9017 8.4616 11.4117 8.4616H14.3817C16.5717 8.4616 17.9317 9.9116 17.9317 11.8516C17.9317 13.7216 16.5817 15.2116 14.3217 15.2116H12.2417V16.7716H15.0517C15.2717 16.7716 15.4217 16.9216 15.4217 17.1516C15.4217 17.4016 15.2717 17.5516 15.0517 17.5516H12.2417V18.5616C12.2417 19.1016 11.9217 19.4316 11.3917 19.4316ZM12.2417 13.8616H13.9017C15.3017 13.8616 16.1817 13.1516 16.1817 11.8516C16.1817 10.7416 15.5117 9.8716 13.9117 9.8716H12.2417Z" />
        </svg>
    