
        <svg xmlns="http://www.w3.org/2000/svg" viewBox="0 0 100 100">
            <path d="M1.0817 22.0472H23.1917V21.5672C23.1917 21.3772 23.0617 21.2472 22.8517 21.2472H22.1117V7.0172H23.2417C23.5417 7.0172 23.6917 6.8172 23.6917 6.5872C23.6917 6.4472 23.6117 6.2772 23.4217 6.1672L13.3217 0.3372C12.9417 0.1172 12.5317 -0.0028 12.1317 -0.0028C11.7317 -0.0028 11.3217 0.1172 10.9417 0.3372L0.8417 6.1672C0.6417 6.2772 0.5617 6.4472 0.5617 6.5872C0.5617 6.8172 0.7117 7.0172 1.0317 7.0172H2.1517V21.2472H1.4017C1.2117 21.2472 1.0817 21.3772 1.0817 21.5672ZM3.0017 21.2472V5.9372L11.4417 1.1472C11.6517 1.0172 11.8817 0.9472 12.1317 0.9472C12.3717 0.9472 12.6117 1.0172 12.8317 1.1472L21.2617 5.9372V21.2472ZM10.1417 17.1772C10.3817 17.1772 10.5217 17.0172 10.5217 16.7772V15.2372H13.4217C13.5817 15.2372 13.6717 15.1272 13.6717 14.9672C13.6717 14.8272 13.5817 14.7172 13.4217 14.7172H10.5217V13.0972H12.7717C14.7117 13.0972 15.9717 11.9272 15.9717 10.1172C15.9717 8.2372 14.6417 7.1272 12.8017 7.1272H10.1417C9.9017 7.1272 9.7417 7.2972 9.7417 7.5472V12.5772H8.4817C8.3217 12.5772 8.2117 12.6772 8.2117 12.8472C8.2117 12.9972 8.3217 13.0972 8.4817 13.0972H9.7417V14.7172H8.4817C8.3217 14.7172 8.2117 14.8272 8.2117 14.9672C8.2117 15.1272 8.3217 15.2372 8.4817 15.2372H9.7417V16.7772C9.7417 17.0172 9.8917 17.1772 10.1417 17.1772ZM10.5217 12.4172V7.8272H12.6017C14.2417 7.8272 15.1617 8.6972 15.1617 10.1172C15.1617 11.5472 14.2517 12.4172 12.6017 12.4172ZM0.4317 23.8172H23.8217C24.0717 23.8172 24.2617 23.6172 24.2617 23.3672C24.2617 23.1372 24.0717 22.9372 23.8217 22.9372H0.4317C0.2017 22.9372 0.0017 23.1372 0.0017 23.3672C0.0017 23.6172 0.2017 23.8172 0.4317 23.8172Z" />
        </svg>
    