
        <svg xmlns="http://www.w3.org/2000/svg" viewBox="0 0 100 100">
            <path d="M12.6023 25.1986C19.5623 25.1986 25.2023 19.5586 25.2023 12.5986C25.2023 5.6386 19.5623 -0.0014 12.6023 -0.0014C5.6523 -0.0014 0.0023 5.6386 0.0023 12.5986C0.0023 19.5586 5.6523 25.1986 12.6023 25.1986ZM10.4523 18.1086C9.6523 18.1086 9.1523 17.5786 9.1523 16.7486V16.2886H7.9923C7.7723 16.2886 7.6323 16.1586 7.6323 15.9486C7.6323 15.7386 7.7723 15.5986 7.9923 15.5986H9.1523V14.0586H7.9923C7.7623 14.0586 7.6123 13.9186 7.6123 13.6986C7.6123 13.4886 7.7623 13.3486 7.9923 13.3486H9.1523V8.5586C9.1523 7.6986 9.6523 7.1386 10.5123 7.1386H13.7323C15.9023 7.1386 17.4223 8.5086 17.4223 10.6186C17.4223 12.6286 15.8323 14.0586 13.5723 14.0586H11.7623V15.5986H14.2523C14.4623 15.5986 14.6023 15.7386 14.6023 15.9486C14.6023 16.1586 14.4623 16.2886 14.2523 16.2886H11.7623V16.7486C11.7623 17.5786 11.2623 18.1086 10.4523 18.1086ZM11.7623 12.1486H12.9123C14.0723 12.1486 14.7923 11.5886 14.7923 10.6386C14.7923 9.7686 14.1423 9.1486 12.9223 9.1486H11.7623Z" />
        </svg>
    