
        <svg xmlns="http://www.w3.org/2000/svg" viewBox="0 0 100 100">
            <path d="M11.4923 22.977C17.8123 22.977 22.9823 17.827 22.9823 11.497C22.9823 5.167 17.8123 -0.003 11.4923 -0.003C5.1723 -0.003 0.0023 5.167 0.0023 11.497C0.0023 17.827 5.1723 22.977 11.4923 22.977ZM17.1323 6.237C17.1823 6.337 17.2223 6.457 17.2623 6.597C18.1423 9.467 17.0623 12.707 14.8923 14.867C12.7223 17.037 9.4823 18.117 6.6223 17.247C6.4823 17.207 6.3623 17.167 6.2723 17.097L9.7023 13.667L10.2323 14.187C10.3223 14.287 10.4923 14.277 10.5723 14.187C10.6623 14.097 10.6623 13.937 10.5723 13.837L9.1623 12.437C9.0823 12.337 8.9223 12.337 8.8223 12.437C8.7223 12.527 8.7223 12.677 8.8223 12.777L9.3623 13.317L5.9223 16.757C5.8823 16.657 5.8323 16.537 5.8023 16.407C4.8623 13.567 6.0023 10.317 8.1723 8.147C10.3323 5.977 13.5723 4.897 16.4323 5.767C16.5823 5.817 16.7023 5.847 16.7923 5.907L13.3523 9.327L12.8223 8.777C12.7423 8.687 12.5623 8.687 12.4723 8.777C12.3723 8.867 12.3723 9.037 12.4723 9.127L13.8723 10.537C13.9823 10.627 14.1323 10.617 14.2123 10.537C14.3123 10.437 14.3123 10.287 14.2123 10.197L13.7023 9.667ZM13.2923 11.117L11.8923 9.707C11.8123 9.607 11.6323 9.607 11.5423 9.707C11.4523 9.797 11.4523 9.947 11.5423 10.057L12.9523 11.457C13.0523 11.557 13.2023 11.547 13.2923 11.457C13.3823 11.367 13.3823 11.207 13.2923 11.117ZM12.4123 12.027L11.0023 10.617C10.9223 10.527 10.7623 10.527 10.6623 10.617C10.5623 10.707 10.5623 10.867 10.6623 10.967L12.0723 12.377C12.1623 12.467 12.3323 12.457 12.4123 12.377C12.5023 12.277 12.5023 12.117 12.4123 12.027ZM11.4823 12.927L10.0823 11.517C9.9923 11.427 9.8323 11.427 9.7423 11.517C9.6323 11.617 9.6323 11.767 9.7423 11.857L11.1423 13.277C11.2423 13.367 11.4023 13.357 11.4823 13.277C11.5823 13.187 11.5823 13.017 11.4823 12.927Z" />
        </svg>
    