
        <svg xmlns="http://www.w3.org/2000/svg" viewBox="0 0 100 100">
            <path d="M23.8371 2.8622C23.7171 2.4522 23.5971 2.1322 23.4471 1.8822L16.4871 8.8122L17.3371 9.6622C17.5971 9.9322 17.5971 10.3422 17.3371 10.5822C17.0771 10.8522 16.6571 10.8522 16.3971 10.5822L13.7871 7.9722C13.5271 7.7222 13.5271 7.3022 13.7871 7.0422C14.0371 6.8022 14.4471 6.7922 14.7071 7.0422L15.5671 7.8922L22.5171 0.9422C22.2471 0.7922 21.9271 0.6722 21.5171 0.5422C16.4771 -0.9578 9.9071 0.6622 5.2771 5.2922C0.6671 9.8922 -0.9629 16.4822 0.5371 21.5222C0.6671 21.9222 0.7971 22.2322 0.9471 22.5022L7.9471 15.5122L7.0971 14.6622C6.8471 14.4022 6.8471 13.9922 7.0971 13.7222C7.3571 13.4822 7.7871 13.4722 8.0371 13.7222L10.6471 16.3422C10.9171 16.6022 10.9171 17.0222 10.6471 17.2722C10.3971 17.5322 9.9771 17.5322 9.7171 17.2722L8.8771 16.4322L1.8771 23.4422C2.1471 23.5822 2.4771 23.7122 2.8571 23.8422C7.9171 25.3422 14.4771 23.7122 19.0971 19.0922C23.7071 14.4722 25.3371 7.9022 23.8371 2.8622ZM12.1171 9.6522C11.8571 9.3922 11.8571 8.9722 12.1171 8.7122C12.3771 8.4622 12.7871 8.4522 13.0471 8.7122L15.6671 11.3322C15.9271 11.5922 15.9171 12.0022 15.6671 12.2622C15.3971 12.5222 14.9871 12.5222 14.7371 12.2622ZM10.4371 11.3222C10.1771 11.0622 10.1871 10.6522 10.4371 10.3822C10.6871 10.1422 11.1071 10.1322 11.3671 10.3822L13.9971 13.0122C14.2571 13.2622 14.2371 13.6822 13.9971 13.9422C13.7271 14.1922 13.3171 14.1922 13.0471 13.9422ZM8.7671 12.9922C8.5071 12.7322 8.5071 12.3222 8.7671 12.0622C9.0271 11.8022 9.4471 11.7922 9.7071 12.0622L12.3171 14.6722C12.5871 14.9322 12.5771 15.3522 12.3171 15.6122C12.0571 15.8622 11.6471 15.8722 11.3771 15.6122Z" />
        </svg>
    