
        <svg xmlns="http://www.w3.org/2000/svg" viewBox="0 0 100 100">
            <path d="M12.7923 25.5978C19.8723 25.5978 25.6023 19.8678 25.6023 12.7978C25.6023 5.7278 19.8723 -0.0022 12.7923 -0.0022C5.7323 -0.0022 0.0023 5.7278 0.0023 12.7978C0.0023 19.8678 5.7323 25.5978 12.7923 25.5978ZM12.7923 21.4178C8.0323 21.4178 4.1723 17.5678 4.1723 12.7978C4.1723 8.0278 8.0323 4.1678 12.7923 4.1678C17.5623 4.1678 21.4323 8.0278 21.4323 12.7978C21.4323 17.5678 17.5623 21.4178 12.7923 21.4178ZM17.7223 8.4278L14.8223 11.3278L15.1923 11.6678C15.3523 11.8378 15.3423 12.0778 15.1923 12.2178C15.0423 12.3778 14.8023 12.3478 14.6523 12.1978L13.3823 10.9578C13.2323 10.8078 13.2223 10.5678 13.3723 10.4278C13.5323 10.2678 13.7823 10.2678 13.9223 10.4178L14.2823 10.7778L17.1723 7.8778C17.0523 7.8178 16.9123 7.7678 16.7623 7.7178C14.2923 7.0178 11.3623 8.1878 9.7923 9.7578C8.2023 11.3578 7.0423 14.2878 7.7423 16.7378C7.7923 16.8978 7.8423 17.0478 7.9123 17.1678L10.7823 14.2978L10.4223 13.9178C10.2623 13.7778 10.2523 13.5478 10.3923 13.3978C10.5623 13.2278 10.8023 13.2278 10.9523 13.3778L12.2223 14.6478C12.3723 14.7978 12.3623 15.0578 12.2223 15.1878C12.0723 15.3478 11.8323 15.3178 11.6723 15.1778L11.3323 14.8378L8.4623 17.7078C8.5923 17.7678 8.7023 17.8078 8.8723 17.8578C11.3323 18.5578 14.2623 17.3878 15.8323 15.8178C17.4223 14.2378 18.5723 11.3078 17.8823 8.8478C17.8323 8.6678 17.7923 8.5278 17.7223 8.4278ZM14.4423 12.4178C14.6023 12.5878 14.5823 12.8278 14.4423 12.9678C14.2823 13.1278 14.0523 13.0978 13.8823 12.9578L12.6323 11.7078C12.4823 11.5578 12.4723 11.3178 12.6223 11.1778C12.7723 11.0178 13.0223 11.0178 13.1723 11.1678ZM13.7023 13.1678C13.8623 13.3278 13.8423 13.5778 13.7023 13.7078C13.5423 13.8778 13.3123 13.8378 13.1523 13.6978L11.8923 12.4478C11.7423 12.3078 11.7323 12.0578 11.8823 11.9178C12.0323 11.7578 12.2823 11.7578 12.4323 11.9078ZM12.9723 13.8878C13.1323 14.0478 13.1123 14.2978 12.9723 14.4378C12.8223 14.5878 12.5823 14.5678 12.4323 14.4278L11.1723 13.1678C11.0123 13.0178 11.0023 12.7878 11.1523 12.6478C11.3123 12.4778 11.5623 12.4778 11.7023 12.6278Z" />
        </svg>
    