
        <svg xmlns="http://www.w3.org/2000/svg" viewBox="0 0 100 100">
            <path d="M28.1217 3.0078C28.1217 1.0578 27.0717 -0.0022 25.1017 -0.0022H3.0217C1.0517 -0.0022 0.0017 1.0478 0.0017 3.0078V9.0978C0.0017 11.0478 1.0617 12.1078 3.0317 12.1078H25.1017C27.0817 12.1078 28.1217 11.0478 28.1217 9.0978ZM3.4417 1.5778V6.9278C3.4417 7.1678 3.2817 7.3478 3.0217 7.3478C2.7917 7.3478 2.6117 7.1878 2.6117 6.9378V1.5778ZM5.6517 1.5778V4.8878C5.6517 5.1278 5.4817 5.3078 5.2417 5.3078C5.0017 5.3078 4.8317 5.1278 4.8317 4.8878V1.5778ZM7.8617 1.5778V4.8878C7.8617 5.1278 7.7017 5.3078 7.4517 5.3078C7.2217 5.3078 7.0317 5.1278 7.0317 4.8878V1.5778ZM10.0617 1.5778V4.8878C10.0617 5.1278 9.9017 5.3078 9.6417 5.3078C9.4217 5.3078 9.2317 5.1278 9.2317 4.8878V1.5778ZM12.2817 1.5778V4.8878C12.2817 5.1278 12.1017 5.3078 11.8617 5.3078C11.6217 5.3078 11.4517 5.1278 11.4517 4.8878V1.5778ZM14.4817 1.5778V6.9278C14.4817 7.1678 14.3217 7.3478 14.0717 7.3478C13.8417 7.3478 13.6517 7.1878 13.6517 6.9378V1.5778ZM16.7017 1.5778V4.8878C16.7017 5.1278 16.5217 5.3078 16.2817 5.3078C16.0417 5.3078 15.8717 5.1278 15.8717 4.8878V1.5778ZM18.9017 1.5778V4.8878C18.9017 5.1278 18.7417 5.3078 18.4917 5.3078C18.2617 5.3078 18.0717 5.1278 18.0717 4.8878V1.5778ZM21.1017 1.5778V4.8878C21.1017 5.1278 20.9417 5.3078 20.6917 5.3078C20.4617 5.3078 20.2717 5.1278 20.2717 4.8878V1.5778ZM23.3217 1.5778V4.8878C23.3217 5.1278 23.1517 5.3078 22.9017 5.3078C22.6617 5.3078 22.4917 5.1278 22.4917 4.8878V1.5778ZM25.5117 1.5778V6.9278C25.5117 7.1678 25.3517 7.3478 25.1017 7.3478C24.8717 7.3478 24.6817 7.1878 24.6817 6.9378V1.5778Z" />
        </svg>
    