
        <svg xmlns="http://www.w3.org/2000/svg" viewBox="0 0 100 100">
            <path d="M31.2817 3.7066C31.2817 1.3866 29.8317 -0.0034 27.5017 -0.0034H3.7517C1.4017 -0.0034 0.0017 1.3866 0.0017 3.7066V10.8166C0.0017 13.1366 1.4217 14.5566 3.7717 14.5566H27.5117C29.8517 14.5566 31.2817 13.1366 31.2817 10.8166ZM28.0817 4.1566V10.3666C28.0817 10.9766 27.7117 11.3466 27.1417 11.3466H4.1217C3.5517 11.3466 3.2017 10.9766 3.2017 10.3666V4.1566C3.2017 3.5466 3.5617 3.1866 4.1417 3.1866H4.1617V7.9066C4.1617 8.2766 4.4617 8.5566 4.8317 8.5566C5.2117 8.5566 5.4717 8.2766 5.4717 7.8966V3.1866H6.3117V6.2666C6.3117 6.6366 6.6217 6.9166 6.9817 6.9166C7.3717 6.9166 7.6317 6.6366 7.6317 6.2466V3.1866H8.4717V6.2666C8.4717 6.6366 8.7817 6.9166 9.1417 6.9166C9.5317 6.9166 9.7817 6.6366 9.7817 6.2466V3.1866H10.6317V6.2666C10.6317 6.6366 10.9317 6.9166 11.3017 6.9166C11.6817 6.9166 11.9417 6.6366 11.9417 6.2466V3.1866H12.8017V6.2666C12.8017 6.6366 13.1017 6.9166 13.4617 6.9166C13.8417 6.9166 14.1017 6.6366 14.1017 6.2466V3.1866H14.9517V7.9066C14.9517 8.2766 15.2617 8.5566 15.6217 8.5566C16.0117 8.5566 16.2617 8.2766 16.2617 7.8966V3.1866H17.1117V6.2666C17.1117 6.6366 17.4117 6.9166 17.7817 6.9166C18.1617 6.9166 18.4117 6.6366 18.4117 6.2466V3.1866H19.2617V6.2666C19.2617 6.6366 19.5717 6.9166 19.9317 6.9166C20.3217 6.9166 20.5817 6.6366 20.5817 6.2466V3.1866H21.4217V6.2666C21.4217 6.6366 21.7217 6.9166 22.0917 6.9166C22.4717 6.9166 22.7317 6.6366 22.7317 6.2466V3.1866H23.5917V6.2666C23.5917 6.6366 23.8917 6.9166 24.2617 6.9166C24.6317 6.9166 24.8917 6.6366 24.8917 6.2466V3.1866H25.7417V7.9066C25.7417 8.2766 26.0517 8.5566 26.4117 8.5566C26.7917 8.5566 27.0517 8.2766 27.0517 7.8966V3.1866H27.1417C27.7117 3.1866 28.0817 3.5466 28.0817 4.1566Z" />
        </svg>
    