
        <svg xmlns="http://www.w3.org/2000/svg" viewBox="0 0 100 100">
            <path d="M15.1723 5.9423C17.2523 5.9423 19.1623 6.6223 20.7023 7.7823C21.0623 8.0423 21.5023 8.0123 21.8223 7.6923L24.7823 4.7123C25.1823 4.3223 25.1723 3.7423 24.7423 3.4023C22.1223 1.2723 18.7923 0.0023 15.1723 0.0023C11.5523 0.0023 8.2223 1.2723 5.6223 3.4023C5.1923 3.7423 5.1723 4.3223 5.5623 4.7123L8.5323 7.6923C8.8523 8.0123 9.3123 8.0423 9.6823 7.7723C11.2123 6.6223 13.1223 5.9423 15.1723 5.9423ZM30.3523 15.1723C30.3523 11.5423 29.0723 8.1923 26.9223 5.5623C26.6023 5.1823 26.0423 5.1823 25.6423 5.5623L22.6623 8.5323C22.3223 8.8723 22.3223 9.3123 22.5923 9.6823C23.7323 11.2223 24.4123 13.1223 24.4123 15.1723C24.4123 17.3323 23.6823 19.3223 22.4223 20.9023C22.1323 21.2823 22.1323 21.7423 22.4623 22.0623L25.4423 25.0423C25.8123 25.4223 26.3823 25.4223 26.7423 25.0123C28.9923 22.3623 30.3523 18.9423 30.3523 15.1723ZM0.0023 15.1723C0.0023 18.9523 1.3823 22.4023 3.6523 25.0523C3.9823 25.4423 4.5323 25.4223 4.9223 25.0423L7.8823 22.0623C8.2123 21.7423 8.2223 21.2823 7.9323 20.9023C6.6823 19.3223 5.9423 17.3323 5.9423 15.1723C5.9423 13.1223 6.6223 11.2223 7.7623 9.6823C8.0323 9.3123 8.0323 8.8723 7.6923 8.5323L4.7123 5.5623C4.3223 5.1823 3.7423 5.1923 3.3823 5.6223C1.2623 8.2223 0.0023 11.5523 0.0023 15.1723ZM10.8623 19.0423C11.5823 19.0423 11.9423 18.6223 11.9423 17.9023V16.2723H12.4223L13.1323 18.0423C13.4023 18.7223 13.7623 19.0423 14.2623 19.0423C14.8323 19.0423 15.3423 18.6823 15.3423 17.9723C15.3423 17.6923 15.2223 17.4223 15.0823 17.1423L14.4923 15.8823C15.1623 15.4823 15.4823 14.5423 15.4823 13.7723C15.4823 12.0223 14.4123 11.1823 12.6323 11.1823H10.8623C10.1623 11.1823 9.7623 11.6023 9.7623 12.3123V17.9023C9.7623 18.6223 10.1523 19.0423 10.8623 19.0423ZM18.7623 19.0523C20.1523 19.0523 21.3723 18.3723 21.3723 16.9723C21.3723 15.9523 20.6923 15.5223 19.7123 15.3323L18.7223 15.1323C18.4223 15.0623 18.1723 14.8923 18.1723 14.6223C18.1723 14.3423 18.3623 14.1523 18.6723 14.1523C19.0423 14.1523 19.3723 14.4423 19.5923 14.6623C19.8123 14.8723 20.1123 14.9223 20.2823 14.9223C20.7923 14.9223 21.0823 14.7023 21.0823 14.2623C21.0823 14.1723 21.0423 14.0723 21.0123 13.9523C20.7023 13.0823 19.6123 12.7623 18.6823 12.7623C17.2723 12.7623 16.1523 13.3823 16.1523 14.7423C16.1523 15.7423 16.7723 16.3123 17.7523 16.5223L18.7223 16.7323C19.0223 16.8023 19.2823 16.9123 19.2823 17.2123C19.2823 17.5423 18.9723 17.6723 18.7523 17.6723C18.3523 17.6723 18.0723 17.5223 17.7623 17.2023C17.4623 16.9223 17.1723 16.8023 16.8723 16.8023C16.4423 16.8023 16.1023 17.1223 16.1023 17.5623C16.1023 17.6923 16.1623 17.8923 16.2423 18.0623C16.6423 18.8123 17.7823 19.0523 18.7623 19.0523ZM11.9423 14.8323V12.7923H12.4323C12.9623 12.7923 13.2423 13.2423 13.2423 13.8123C13.2423 14.3123 13.0223 14.8323 12.4223 14.8323Z" />
        </svg>
    