
        <svg xmlns="http://www.w3.org/2000/svg" viewBox="0 0 100 100">
            <path d="M27.7423 13.8218C27.7423 6.5518 22.1523 0.5918 15.0423 0.0018C14.6723 -0.0282 14.3923 0.2418 14.3923 0.6118V4.2618C14.3923 4.5718 14.6123 4.8218 14.9423 4.8518C19.4023 5.3818 22.8823 9.1918 22.8823 13.8218C22.8823 15.9218 22.1623 17.8518 20.8923 19.4418C20.7223 19.6718 20.7323 19.9318 20.9323 20.1518L23.5623 22.7718C23.8323 23.0418 24.2323 23.0418 24.4723 22.7618C26.5123 20.3318 27.7423 17.2218 27.7423 13.8218ZM0.0023 13.8218C0.0023 17.2218 1.2323 20.3518 3.2823 22.7718C3.5123 23.0418 3.8923 23.0418 4.1623 22.7718L6.8123 20.1518C7.0123 19.9318 7.0123 19.6718 6.8323 19.4418C5.5623 17.8518 4.8523 15.9218 4.8523 13.8218C4.8523 9.1918 8.3323 5.3818 12.7923 4.8518C13.1123 4.8218 13.3323 4.5718 13.3323 4.2618V0.6118C13.3323 0.2418 13.0523 -0.0282 12.6823 0.0018C5.5923 0.5918 0.0023 6.5518 0.0023 13.8218ZM9.2623 18.8618C9.6023 18.8618 9.7923 18.6318 9.7923 18.2818V14.8118H11.4223L12.9923 18.4718C13.1023 18.7318 13.2623 18.8618 13.5323 18.8618C13.8423 18.8618 14.0823 18.6718 14.0823 18.3518C14.0823 18.2118 14.0323 18.0918 13.9523 17.9418L12.4923 14.5718C13.5823 14.1318 14.0723 13.1118 14.0723 11.9818C14.0723 10.3618 13.1123 9.1918 11.2823 9.1918H9.2423C8.9223 9.1918 8.7023 9.4118 8.7023 9.7518V18.2818C8.7023 18.6318 8.9223 18.8618 9.2623 18.8618ZM9.7923 13.9218V10.1118H11.1823C12.3323 10.1118 12.9723 10.8518 12.9723 12.0018C12.9723 13.1518 12.3623 13.9218 11.1923 13.9218ZM17.6123 18.8718C18.9723 18.8718 20.0523 18.0718 20.0523 16.7418C20.0523 15.6518 19.3923 15.1318 18.2823 14.8118L17.3623 14.5618C16.7723 14.4018 16.2923 14.0918 16.2923 13.4518C16.2923 12.7418 16.8623 12.2718 17.5823 12.2718C18.3423 12.2718 18.7923 12.7218 19.0323 13.3318C19.1023 13.4918 19.2323 13.5918 19.4223 13.5918C19.7223 13.5918 19.8423 13.4118 19.8423 13.2118C19.8423 13.1318 19.8123 13.0318 19.7923 12.9418C19.5823 12.1118 18.7423 11.4618 17.6123 11.4618C16.1523 11.4618 15.2623 12.3218 15.2623 13.5118C15.2623 14.5918 15.9623 15.1518 17.0023 15.4218L17.9323 15.6718C18.5723 15.8418 19.0123 16.2218 19.0123 16.8418C19.0123 17.5818 18.4523 18.0518 17.6623 18.0518C16.8423 18.0518 16.3623 17.7118 16.0223 16.9718C15.9023 16.7418 15.7423 16.6418 15.5623 16.6418C15.3123 16.6418 15.1323 16.8118 15.1323 17.0618C15.1323 17.1618 15.1623 17.2618 15.2023 17.3818C15.5023 18.3818 16.5423 18.8718 17.6123 18.8718Z" />
        </svg>
    