
        <svg xmlns="http://www.w3.org/2000/svg" viewBox="0 0 100 100">
            <path d="M3.6817 21.5722H17.8917C20.3517 21.5722 21.5717 20.3722 21.5717 17.9522V3.6322C21.5717 1.2222 20.3517 0.0022 17.8917 0.0022H3.6817C1.2317 0.0022 0.0017 1.2222 0.0017 3.6322V17.9522C0.0017 20.3722 1.2317 21.5722 3.6817 21.5722ZM3.7017 19.6922C2.5317 19.6922 1.8917 19.0622 1.8917 17.8522V3.7422C1.8917 2.5222 2.5317 1.8822 3.7017 1.8822H17.8717C19.0317 1.8822 19.6917 2.5222 19.6917 3.7422V17.8522C19.6917 19.0622 19.0317 19.6922 17.8717 19.6922ZM6.2417 15.5622C6.6717 15.5622 6.9117 15.2922 6.9117 14.8722V11.6922H8.3517L9.7817 15.0822C9.9217 15.4022 10.1117 15.5622 10.4517 15.5622C10.8317 15.5622 11.1217 15.3122 11.1217 14.9422C11.1217 14.7822 11.0517 14.6322 10.9717 14.4522L9.6417 11.4122C10.6617 10.9722 11.1417 9.9522 11.1417 8.8522C11.1417 7.2822 10.2417 6.0422 8.3017 6.0422H6.2317C5.8317 6.0422 5.5817 6.3122 5.5817 6.7222V14.8722C5.5817 15.2922 5.8217 15.5622 6.2417 15.5622ZM6.9117 10.6322V7.1622H8.1717C9.2217 7.1622 9.8117 7.8322 9.8117 8.8722C9.8117 9.9422 9.2617 10.6322 8.1817 10.6322ZM14.5917 15.5722C15.9517 15.5722 17.1017 14.8122 17.1017 13.4222C17.1017 12.2822 16.4317 11.8022 15.3017 11.4922L14.3717 11.2422C13.8317 11.1022 13.4017 10.8122 13.4017 10.2622C13.4017 9.6222 13.9117 9.2222 14.5517 9.2222C15.2317 9.2222 15.6517 9.6022 15.9017 10.1522C15.9817 10.3122 16.1617 10.4322 16.3617 10.4322C16.7217 10.4322 16.8617 10.2022 16.8617 9.9622C16.8617 9.8822 16.8417 9.7522 16.8017 9.6422C16.5617 8.8122 15.6517 8.2522 14.5917 8.2522C13.1117 8.2522 12.1417 9.0722 12.1417 10.3222C12.1417 11.4122 12.8717 12.0022 13.9117 12.2722L14.8617 12.5122C15.4417 12.6722 15.8217 12.9622 15.8217 13.5422C15.8217 14.1822 15.3517 14.6022 14.6517 14.6022C13.8717 14.6022 13.4717 14.3422 13.1017 13.6622C12.9617 13.4022 12.7517 13.3022 12.5517 13.3022C12.2417 13.3022 12.0217 13.5122 12.0217 13.8122C12.0217 13.9022 12.0617 14.0022 12.0817 14.1222C12.4017 15.1122 13.5217 15.5722 14.5917 15.5722Z" />
        </svg>
    