
        <svg xmlns="http://www.w3.org/2000/svg" viewBox="0 0 100 100">
            <path d="M11.3523 22.7064C17.6023 22.7064 22.7123 17.6064 22.7123 11.3564C22.7123 5.1064 17.6023 -0.0036 11.3523 -0.0036C5.1123 -0.0036 0.0023 5.1064 0.0023 11.3564C0.0023 17.6064 5.1123 22.7064 11.3523 22.7064ZM6.6423 16.4564C6.4723 16.4564 6.3523 16.3364 6.3523 16.1364V6.8164C6.3523 6.6164 6.4523 6.4964 6.6423 6.4964H8.6323C10.2323 6.4964 11.3123 7.5364 11.3123 9.2564C11.3123 10.4864 10.7723 11.5064 9.5523 11.9064L11.3123 15.9464C11.3523 16.0264 11.3823 16.1064 11.3823 16.1864C11.3823 16.3664 11.2423 16.4564 11.0723 16.4564C10.9423 16.4564 10.8423 16.3964 10.7823 16.2664L8.9523 12.0664H6.9523V16.1364C6.9523 16.3364 6.8323 16.4564 6.6423 16.4564ZM6.9523 11.5164H8.5823C9.9723 11.5164 10.6923 10.5964 10.6923 9.2664C10.6923 7.9264 9.9223 7.0564 8.5823 7.0564H6.9523ZM15.0323 16.4564C13.9723 16.4564 13.0823 15.9164 12.7823 14.9164C12.7423 14.7964 12.7023 14.6764 12.7023 14.5864C12.7023 14.4264 12.8123 14.3364 12.9723 14.3364C13.0823 14.3364 13.1623 14.3864 13.2223 14.6064C13.4923 15.4764 14.1223 15.9764 15.0623 15.9764C16.0223 15.9764 16.7323 15.4264 16.7323 14.4464C16.7323 13.7464 16.2023 13.2164 15.4223 12.9964L14.5823 12.7664C13.5423 12.4664 12.8623 11.9664 12.8623 10.8864C12.8623 9.8464 13.5923 8.9064 15.0323 8.9064C16.2623 8.9064 16.9823 9.7164 17.1223 10.5564C17.1323 10.6364 17.1323 10.6564 17.1323 10.7064C17.1323 10.8264 17.0723 10.9464 16.9023 10.9464C16.7623 10.9464 16.7023 10.8364 16.6523 10.6964C16.4423 9.9864 15.9423 9.3864 15.0023 9.3864C14.1423 9.3864 13.4323 9.9864 13.4323 10.8664C13.4323 11.6464 14.0123 12.0264 14.7323 12.2364L15.5823 12.4764C16.6923 12.8064 17.2923 13.3964 17.2923 14.3864C17.2923 15.6164 16.3823 16.4564 15.0323 16.4564Z" />
        </svg>
    