
        <svg xmlns="http://www.w3.org/2000/svg" viewBox="0 0 100 100">
            <path d="M14.1123 5.0248C16.2323 5.0248 18.1723 5.7648 19.7323 6.9748C19.9723 7.1648 20.2723 7.1348 20.4923 6.9148L23.2123 4.1948C23.4823 3.9248 23.4723 3.5348 23.1923 3.3048C20.7423 1.2448 17.5623 0.0048 14.1123 0.0048C10.6623 0.0048 7.4923 1.2448 5.0423 3.3048C4.7623 3.5348 4.7423 3.9248 5.0123 4.1948L7.7323 6.9148C7.9523 7.1348 8.2723 7.1648 8.5323 6.9648C10.0823 5.7648 12.0123 5.0248 14.1123 5.0248ZM0.0023 14.1048C0.0023 17.5648 1.2423 20.7448 3.3123 23.2048C3.5523 23.4948 3.9523 23.4948 4.2023 23.2248L6.9923 20.4348C7.1723 20.2548 7.1923 19.9948 7.0323 19.7948C5.7523 18.1648 5.0323 16.2148 5.0323 14.1048C5.0323 12.0148 5.7423 10.0648 6.9623 8.5148C7.1523 8.2748 7.1523 7.9548 6.9223 7.7348L4.2023 5.0148C3.9423 4.7448 3.5523 4.7448 3.3123 5.0248C1.2423 7.4848 0.0023 10.6648 0.0023 14.1048ZM28.2323 14.1048C28.2323 10.6648 26.9923 7.4848 24.9123 5.0248C24.6823 4.7448 24.2823 4.7448 24.0223 5.0148L21.3023 7.7348C21.0823 7.9548 21.0723 8.2748 21.2723 8.5148C22.4723 10.0648 23.2023 12.0148 23.2023 14.1048C23.2023 16.2148 22.4723 18.1648 21.2023 19.7948C21.0323 19.9948 21.0423 20.2548 21.2223 20.4348L24.0123 23.2248C24.2823 23.4948 24.6723 23.4948 24.9123 23.2048C26.9923 20.7448 28.2323 17.5648 28.2323 14.1048ZM9.5523 19.0548C9.9723 19.0548 10.2223 18.7748 10.2223 18.3548V15.1848H11.6623L13.1023 18.5648C13.2323 18.8748 13.4323 19.0548 13.7623 19.0548C14.1323 19.0548 14.4223 18.8048 14.4223 18.4248C14.4223 18.2548 14.3523 18.1248 14.2823 17.9448L12.9523 14.8948C13.9823 14.4448 14.4623 13.4248 14.4623 12.3348C14.4623 10.7648 13.5623 9.5248 11.6023 9.5248H9.5423C9.1423 9.5248 8.8823 9.7948 8.8823 10.2048V18.3548C8.8823 18.7748 9.1323 19.0548 9.5523 19.0548ZM10.2223 14.1048V10.6448H11.4723C12.5323 10.6448 13.1123 11.3048 13.1123 12.3648C13.1123 13.4148 12.5623 14.1048 11.4823 14.1048ZM17.8923 19.0648C19.2523 19.0648 20.4023 18.2948 20.4023 16.8948C20.4023 15.7748 19.7323 15.2848 18.6223 14.9748L17.6723 14.7148C17.1423 14.5748 16.7123 14.3048 16.7123 13.7448C16.7123 13.1048 17.2123 12.7048 17.8623 12.7048C18.5423 12.7048 18.9623 13.0748 19.2023 13.6248C19.2923 13.8048 19.4623 13.9248 19.6623 13.9248C20.0323 13.9248 20.1723 13.6948 20.1723 13.4448C20.1723 13.3548 20.1423 13.2348 20.1123 13.1248C19.8623 12.3048 18.9623 11.7348 17.8923 11.7348C16.4223 11.7348 15.4423 12.5548 15.4423 13.8148C15.4423 14.9048 16.1723 15.4848 17.2123 15.7548L18.1723 16.0048C18.7523 16.1648 19.1323 16.4448 19.1323 17.0248C19.1323 17.6648 18.6723 18.0848 17.9523 18.0848C17.1923 18.0848 16.7823 17.8248 16.4023 17.1448C16.2623 16.8848 16.0523 16.7848 15.8523 16.7848C15.5523 16.7848 15.3323 16.9948 15.3323 17.2948C15.3323 17.3948 15.3623 17.4948 15.4023 17.6048C15.7023 18.6048 16.8323 19.0648 17.8923 19.0648Z" />
        </svg>
    