
        <svg xmlns="http://www.w3.org/2000/svg" viewBox="0 0 100 100">
            <path d="M3.0117 20.5048H17.4917C19.4517 20.5048 20.5117 19.4248 20.5117 17.4948V3.0148C20.5117 1.0748 19.4517 0.0048 17.4917 0.0048H3.0117C1.0417 0.0048 0.0017 1.0448 0.0017 3.0148V17.4948C0.0017 19.4648 1.0417 20.5048 3.0117 20.5048ZM5.5417 15.3548C5.3717 15.3548 5.2517 15.2348 5.2517 15.0348V5.7148C5.2517 5.5148 5.3517 5.3948 5.5417 5.3948H7.5317C9.1317 5.3948 10.2117 6.4348 10.2117 8.1548C10.2117 9.3848 9.6717 10.4048 8.4517 10.8048L10.2117 14.8448C10.2517 14.9248 10.2817 15.0048 10.2817 15.0848C10.2817 15.2648 10.1417 15.3548 9.9717 15.3548C9.8417 15.3548 9.7417 15.2948 9.6817 15.1648L7.8517 10.9648H5.8617V15.0348C5.8617 15.2348 5.7417 15.3548 5.5417 15.3548ZM5.8617 10.4148H7.4717C8.8717 10.4148 9.6017 9.4948 9.6017 8.1648C9.6017 6.8248 8.8217 5.9548 7.4717 5.9548H5.8617ZM13.9317 15.3548C12.8717 15.3548 11.9717 14.8148 11.6817 13.8148C11.6417 13.6948 11.6017 13.5748 11.6017 13.4848C11.6017 13.3248 11.7117 13.2348 11.8717 13.2348C11.9717 13.2348 12.0617 13.2848 12.1217 13.5048C12.3917 14.3748 13.0217 14.8748 13.9717 14.8748C14.9317 14.8748 15.6317 14.3248 15.6317 13.3448C15.6317 12.6448 15.1017 12.1148 14.3217 11.8948L13.4717 11.6648C12.4417 11.3648 11.7817 10.8648 11.7817 9.7848C11.7817 8.7448 12.5017 7.8048 13.9317 7.8048C15.1617 7.8048 15.8817 8.6148 16.0217 9.4548C16.0417 9.5348 16.0417 9.5548 16.0417 9.6048C16.0417 9.7248 15.9817 9.8448 15.8117 9.8448C15.6517 9.8448 15.6017 9.7348 15.5517 9.5948C15.3517 8.8848 14.8317 8.2848 13.9117 8.2848C13.0417 8.2848 12.3317 8.8848 12.3317 9.7648C12.3317 10.5448 12.9117 10.9248 13.6317 11.1348L14.4817 11.3748C15.5817 11.7048 16.2117 12.2948 16.2117 13.2848C16.2117 14.5148 15.2817 15.3548 13.9317 15.3548Z" />
        </svg>
    