
        <svg xmlns="http://www.w3.org/2000/svg" viewBox="0 0 100 100">
            <path d="M12.2223 24.4436C18.9723 24.4436 24.4423 18.9736 24.4423 12.2236C24.4423 5.4736 18.9723 0.0036 12.2223 0.0036C5.4723 0.0036 0.0023 5.4736 0.0023 12.2236C0.0023 18.9736 5.4723 24.4436 12.2223 24.4436ZM12.2223 21.7636C6.9523 21.7636 2.6823 17.4936 2.6823 12.2236C2.6823 6.9536 6.9523 2.6836 12.2223 2.6836C17.4923 2.6836 21.7623 6.9536 21.7623 12.2236C21.7623 17.4936 17.4923 21.7636 12.2223 21.7636ZM12.0423 17.6836C14.8023 17.6836 16.5823 16.3636 16.5823 14.2836C16.5823 12.6636 15.4823 11.7636 13.4423 11.2936L11.9923 10.9536C10.8623 10.7136 10.4423 10.3636 10.4423 9.7636C10.4423 8.9636 11.1023 8.4736 12.1323 8.4736C13.0923 8.4736 13.7123 8.8336 14.1423 9.6236C14.4623 10.0236 14.7323 10.1936 15.2123 10.1936C15.7923 10.1936 16.2023 9.8836 16.2023 9.2836C16.2023 9.0736 16.1523 8.8436 16.0423 8.6136C15.5523 7.4636 14.1023 6.6336 12.1723 6.6336C9.6723 6.6336 7.9423 7.9836 7.9423 9.9336C7.9423 11.4836 8.9623 12.3936 10.8623 12.8336L12.3523 13.2036C13.7023 13.5336 14.1223 13.8136 14.1223 14.4936C14.1223 15.3236 13.3023 15.7936 12.2023 15.7936C11.1723 15.7936 10.4523 15.4236 9.9423 14.6236C9.6523 14.2536 9.3623 14.0736 8.9323 14.0736C8.3123 14.0736 7.9023 14.4636 7.9023 15.0536C7.9023 15.2836 7.9423 15.5036 8.0623 15.7236C8.5323 16.7836 9.9723 17.6836 12.0423 17.6836Z" />
        </svg>
    