
        <svg xmlns="http://www.w3.org/2000/svg" viewBox="0 0 100 100">
            <path d="M11.4923 22.977C17.8123 22.977 22.9823 17.827 22.9823 11.497C22.9823 5.167 17.8123 -0.003 11.4923 -0.003C5.1723 -0.003 0.0023 5.167 0.0023 11.497C0.0023 17.827 5.1723 22.977 11.4923 22.977ZM11.4223 16.897C9.5123 16.897 8.0423 15.917 7.7123 14.587C7.6723 14.427 7.6523 14.297 7.6523 14.177C7.6523 13.897 7.8123 13.737 8.0823 13.737C8.3223 13.737 8.4523 13.867 8.5323 14.137C8.7823 15.307 9.9823 16.087 11.5323 16.087C13.1023 16.087 14.4423 15.127 14.4423 13.947C14.4423 12.947 13.7923 12.437 12.1023 11.997L10.4523 11.567C8.7023 11.107 7.9223 10.337 7.9223 8.997C7.9223 7.287 9.4223 6.067 11.5623 6.067C13.4023 6.067 14.7823 6.957 15.0923 8.297C15.1423 8.447 15.1523 8.577 15.1523 8.697C15.1523 8.987 15.0023 9.127 14.7323 9.127C14.4823 9.127 14.3423 8.997 14.2723 8.747C14.0423 7.597 12.9723 6.867 11.5423 6.867C10.0523 6.867 8.8523 7.837 8.8523 9.027C8.8523 9.887 9.4223 10.397 10.8423 10.777L12.4423 11.217C14.4923 11.767 15.3523 12.517 15.3523 13.867C15.3523 15.687 13.8023 16.897 11.4223 16.897Z" />
        </svg>
    