
        <svg xmlns="http://www.w3.org/2000/svg" viewBox="0 0 100 100">
            <path d="M11.7523 23.5048C18.2323 23.5048 23.5123 18.2348 23.5123 11.7548C23.5123 5.2748 18.2323 0.0048 11.7523 0.0048C5.2723 0.0048 0.0023 5.2748 0.0023 11.7548C0.0023 18.2348 5.2723 23.5048 11.7523 23.5048ZM11.6623 17.3048C9.5823 17.3048 8.1123 16.2748 7.7223 15.0548C7.6523 14.8548 7.6123 14.6948 7.6123 14.5348C7.6123 14.1048 7.8823 13.8548 8.3123 13.8548C8.6623 13.8548 8.8623 14.0148 9.0223 14.3948C9.3623 15.4448 10.3823 16.0648 11.7623 16.0648C13.1923 16.0648 14.3523 15.3048 14.3523 14.2048C14.3523 13.2848 13.8023 12.8548 12.2623 12.4448L10.5423 11.9648C8.7323 11.4848 7.8323 10.6548 7.8323 9.2148C7.8323 7.3748 9.4523 6.0748 11.7923 6.0748C13.7423 6.0748 15.1623 6.9848 15.5523 8.2948C15.6223 8.4848 15.6523 8.6648 15.6523 8.7848C15.6523 9.2348 15.3723 9.4548 14.9723 9.4548C14.6123 9.4548 14.4023 9.2848 14.2723 8.9448C13.9323 7.8748 13.0423 7.2848 11.7423 7.2848C10.3723 7.2848 9.3723 8.0748 9.3723 9.1648C9.3723 9.9448 9.8923 10.4148 11.1723 10.7548L12.7723 11.1948C14.8723 11.7548 15.9023 12.5848 15.9023 14.0648C15.9023 16.0448 14.2223 17.3048 11.6623 17.3048Z" />
        </svg>
    