
        <svg xmlns="http://www.w3.org/2000/svg" viewBox="0 0 100 100">
            <path d="M3.1617 20.742H17.5917C19.6617 20.742 20.7417 19.642 20.7417 17.592V3.152C20.7417 1.102 19.6617 0.002 17.5917 0.002H3.1617C1.0917 0.002 0.0017 1.082 0.0017 3.152V17.592C0.0017 19.662 1.0917 20.742 3.1617 20.742ZM3.1917 19.872C1.6617 19.872 0.8717 19.082 0.8717 17.552V3.202C0.8717 1.662 1.6617 0.872 3.1917 0.872H17.5517C19.0317 0.872 19.8717 1.662 19.8717 3.202V17.552C19.8717 19.082 19.0317 19.872 17.5517 19.872ZM10.3117 15.722C12.6717 15.722 14.2117 14.542 14.2117 12.722C14.2117 11.382 13.3717 10.652 11.3217 10.092L9.7217 9.672C8.3117 9.282 7.7417 8.782 7.7417 7.922C7.7417 6.722 8.9517 5.782 10.4317 5.782C11.8617 5.782 12.9117 6.492 13.1517 7.642C13.2217 7.902 13.3617 8.012 13.5917 8.012C13.8617 8.012 14.0117 7.882 14.0117 7.592C14.0117 7.472 13.9917 7.332 13.9617 7.182C13.6417 5.872 12.2817 4.992 10.4517 4.992C8.3217 4.992 6.8317 6.192 6.8317 7.902C6.8317 9.222 7.6217 9.982 9.3417 10.442L10.9917 10.862C12.6817 11.312 13.3117 11.812 13.3117 12.812C13.3117 13.982 11.9717 14.942 10.4217 14.942C8.8817 14.942 7.6717 14.152 7.4417 12.982C7.3617 12.712 7.2317 12.602 6.9917 12.602C6.7217 12.602 6.5617 12.752 6.5617 13.032C6.5617 13.152 6.5817 13.282 6.6317 13.432C6.9517 14.752 8.4217 15.722 10.3117 15.722Z" />
        </svg>
    