
        <svg xmlns="http://www.w3.org/2000/svg" viewBox="0 0 100 100">
            <path d="M12.3723 24.7459C19.2023 24.7459 24.7523 19.2059 24.7523 12.3759C24.7523 5.5459 19.2023 -0.0041 12.3723 -0.0041C5.5423 -0.0041 0.0023 5.5459 0.0023 12.3759C0.0023 19.2059 5.5423 24.7459 12.3723 24.7459ZM7.7023 18.3559C6.7423 18.7759 5.9923 18.0259 6.4123 17.0459L9.4023 10.3759C9.6223 9.8859 9.9123 9.5959 10.3723 9.3859L17.0423 6.4059C18.0423 5.9659 18.7723 6.7159 18.3423 7.7059L15.3623 14.3759C15.1523 14.8359 14.8523 15.1559 14.3923 15.3559ZM12.3823 14.0759C13.3023 14.0759 14.0423 13.3159 14.0423 12.3959C14.0423 11.4859 13.3023 10.7359 12.3823 10.7359C11.4623 10.7359 10.7223 11.4859 10.7223 12.3959C10.7223 13.3159 11.4623 14.0759 12.3823 14.0759Z" />
        </svg>
    