
        <svg xmlns="http://www.w3.org/2000/svg" viewBox="0 0 100 100">
            <path d="M12.3723 24.7459C19.2023 24.7459 24.7523 19.2059 24.7523 12.3759C24.7523 5.5459 19.2023 -0.0041 12.3723 -0.0041C5.5423 -0.0041 0.0023 5.5459 0.0023 12.3759C0.0023 19.2059 5.5423 24.7459 12.3723 24.7459ZM12.3723 21.6659C7.2423 21.6659 3.0823 17.5059 3.0823 12.3759C3.0823 7.2259 7.2423 3.0859 12.3723 3.0859C17.5223 3.0859 21.6723 7.2259 21.6723 12.3759C21.6723 17.5059 17.5223 21.6659 12.3723 21.6659ZM9.0223 18.9059H14.4523C15.0423 18.9059 15.3723 18.7759 15.8123 18.4059C16.3323 17.9559 17.1023 16.7859 17.1023 16.3159C17.1023 15.9859 16.8523 15.7259 16.3723 15.7859C15.1523 15.9359 13.7123 16.0359 12.2423 16.0859L12.3323 15.1859C13.7023 15.3059 15.0723 15.2559 15.9623 15.1159C16.7323 14.9959 17.1123 14.6859 17.3623 13.9959C17.6523 13.2959 17.7523 12.5259 17.7523 11.6959C17.7523 9.5359 16.6623 6.9859 13.8323 5.4959C13.5423 5.3559 13.2823 5.2759 13.0323 5.2759C12.5123 5.2759 12.1023 5.6059 12.0423 6.1559L11.8623 8.2359L7.6623 14.1059C7.3023 14.6159 7.5023 15.1059 8.0823 15.1659C9.1023 15.2859 10.1923 15.2959 11.2223 15.2059L11.1423 16.1159C10.0623 16.1459 9.0023 16.1559 8.0323 16.1559C7.5123 16.1559 7.2223 16.5459 7.4023 17.0259L7.8123 18.1159C8.0023 18.6459 8.4023 18.9059 9.0223 18.9059ZM13.0423 6.7359C13.0523 6.6559 13.1623 6.6559 13.1823 6.7359C13.5123 7.6859 13.7023 8.8759 13.7023 9.9859C13.7023 11.4859 13.3023 12.8659 12.4323 13.8559Z" />
        </svg>
    