
        <svg xmlns="http://www.w3.org/2000/svg" viewBox="0 0 100 100">
            <path d="M4.1217 23.9806C6.5417 24.2306 8.9917 24.2706 11.4117 24.0706L11.2617 25.6306C8.8617 25.6606 6.4717 25.6606 4.1417 25.6606C2.6717 25.6606 1.8517 26.8606 2.3317 28.1906L3.2717 30.7806C2.6817 31.1106 2.2217 31.2506 1.6717 31.2506H1.5617C0.6917 31.2506 0.0017 31.9406 0.0017 32.8006C0.0017 33.6706 0.6917 34.3606 1.5617 34.3606H1.6717C5.8217 34.3606 6.0917 31.8906 7.7017 31.8906C9.3117 31.8906 9.7017 34.3606 13.4717 34.3606C17.2517 34.3606 17.6417 31.8906 19.2417 31.8906C20.8617 31.8906 21.1217 34.3606 25.2617 34.3606H26.5817C27.4417 34.3606 28.1517 33.6706 28.1517 32.8006C28.1517 31.9406 27.4417 31.2506 26.5817 31.2506H25.2617C24.6017 31.2506 24.0617 31.0406 23.2517 30.5206C24.6317 29.1706 25.7917 27.3706 25.7917 26.3006C25.7917 25.4806 25.1017 24.6106 23.7117 24.8006C20.7317 25.2206 17.5417 25.4406 14.3217 25.5506L14.4517 24.0206C17.6917 24.2806 20.8817 24.1906 22.9917 23.8606C24.9617 23.5506 25.9617 22.7106 26.6217 20.9606C27.2417 19.3506 27.5317 17.4406 27.5317 15.4706C27.5317 10.3006 24.5617 3.9506 18.1017 0.6006C17.3717 0.2006 16.5917 0.0006 15.9617 0.0006C14.5917 0.0006 13.5717 0.8706 13.4417 2.3406L13.0117 6.8906L2.9017 20.9906C1.9217 22.3606 2.4917 23.8006 4.1217 23.9806ZM19.2117 4.3006C22.6217 6.4406 24.5717 11.3906 24.5717 15.4106C24.5717 17.1406 24.3317 18.7406 23.8917 19.9806C23.6617 20.6106 23.4517 20.8006 22.8117 20.9106C21.4217 21.1506 19.4917 21.2706 17.4117 21.2306C19.3917 18.3706 20.2517 14.7206 20.2517 11.1206C20.2517 8.7206 19.8617 6.3606 19.2117 4.3006ZM16.0917 4.9306C16.1017 4.8206 16.2817 4.7806 16.3217 4.9106C16.9417 6.7306 17.3217 8.9206 17.3217 11.1406C17.3217 14.2806 16.5817 17.5306 14.8017 19.8906ZM6.4117 21.1506C6.3417 21.1406 6.3317 21.0806 6.3517 21.0306L12.4917 12.4906L11.6817 21.1606C9.9217 21.3306 8.1817 21.3306 6.4117 21.1506ZM11.2217 30.1906C10.4417 29.6006 9.2817 28.7806 7.7017 28.7806C6.8517 28.7806 6.1417 29.0206 5.5317 29.3206L5.1517 28.2506C5.1117 28.1406 5.1817 28.0306 5.3117 28.0406C10.7117 28.2506 16.5617 28.2506 21.9917 27.5906C22.1717 27.5506 22.2417 27.6806 22.1217 27.8406C21.8417 28.2506 21.4417 28.6806 20.8817 29.0606C20.4117 28.8906 19.8717 28.7806 19.2417 28.7806C17.6617 28.7806 16.5117 29.6006 15.7117 30.1906C14.8717 30.8206 14.3217 31.2506 13.4717 31.2506C12.6217 31.2506 12.0817 30.8206 11.2217 30.1906Z" />
        </svg>
    