
        <svg xmlns="http://www.w3.org/2000/svg" viewBox="0 0 100 100">
            <path d="M3.8917 23.6963C6.3317 23.9663 8.8517 23.9862 11.3117 23.7863L11.1417 25.5163C8.6917 25.5463 6.2317 25.5463 3.8517 25.5463C2.4817 25.5463 1.7317 26.6463 2.1817 27.8863L2.6717 29.2263C2.8217 29.1163 2.9917 28.9963 3.2217 28.8563C4.2217 28.1263 5.6017 27.1963 7.4717 27.1963C9.3617 27.1963 10.7617 28.1263 11.7617 28.8763C12.6217 29.5163 12.8117 29.6563 13.1917 29.6563C13.5817 29.6563 13.7717 29.5163 14.6417 28.8763C15.6417 28.1263 17.0417 27.1963 18.9217 27.1963C20.9317 27.1963 22.2317 28.1463 23.1817 28.8563C23.4217 29.0263 23.6117 29.1663 23.7817 29.2763C24.6817 28.1463 25.3817 26.8663 25.3817 26.0863C25.3817 25.2863 24.7417 24.5063 23.4517 24.6763C20.4117 25.1163 17.1817 25.3263 13.9017 25.4463L14.0417 23.7263C17.3117 24.0163 20.5217 23.9163 22.6417 23.5763C24.5417 23.2863 25.5117 22.4862 26.1517 20.7863C26.7617 19.1763 27.0517 17.2863 27.0517 15.3263C27.0517 10.1863 24.2617 3.9963 17.6917 0.5663C16.9917 0.1962 16.2617 -0.0038 15.6517 -0.0038C14.3717 -0.0038 13.4217 0.8062 13.2917 2.2162L12.8717 6.8463L2.7817 20.9162C1.8517 22.2063 2.3817 23.5263 3.8917 23.6963ZM15.7117 4.2563C15.7417 4.1262 15.9117 4.1062 15.9617 4.2263C16.6917 6.2263 17.1217 8.6063 17.1217 11.0063C17.1217 14.3063 16.3217 17.6863 14.3517 20.0863ZM13.1917 33.8863C16.8417 33.8863 17.2517 31.4263 18.9217 31.4263C20.6017 31.4263 20.8717 33.8863 24.9117 33.8863H26.1917C26.9617 33.8863 27.5817 33.2663 27.5817 32.4963C27.5817 31.7363 26.9617 31.1263 26.1917 31.1263H24.9117C24.0017 31.1263 23.3517 30.7763 22.3217 30.0363C21.5417 29.4563 20.5417 28.6663 18.9217 28.6663C17.3917 28.6663 16.2917 29.4763 15.5017 30.0463C14.6617 30.6763 14.1017 31.1263 13.1917 31.1263C12.3017 31.1263 11.7317 30.6763 10.9017 30.0463C10.1117 29.4763 9.0017 28.6663 7.4717 28.6663C5.9617 28.6663 4.8617 29.4563 4.0817 30.0363C3.0317 30.7763 2.4017 31.1263 1.4917 31.1263H1.3817C0.6217 31.1263 0.0017 31.7363 0.0017 32.4963C0.0017 33.2663 0.6217 33.8863 1.3817 33.8863H1.4917C5.5317 33.8863 5.7917 31.4263 7.4717 31.4263C9.1517 31.4263 9.5617 33.8863 13.1917 33.8863Z" />
        </svg>
    