
        <svg xmlns="http://www.w3.org/2000/svg" viewBox="0 0 100 100">
            <path d="M0.1602 20.3783C-0.3798 22.4483 0.4302 23.5683 2.4802 23.5683H19.7702C21.8302 23.5683 22.6402 22.4483 22.0902 20.3783L19.3902 9.9583C18.9902 8.3883 18.0102 7.5583 16.5602 7.5583H11.5602V6.1383C13.0402 5.9183 14.2102 4.6183 14.2102 3.0983C14.2102 1.4083 12.8002 -0.0017 11.1302 -0.0017C9.4402 -0.0017 8.0502 1.4183 8.0502 3.0983C8.0502 4.6283 9.2202 5.9183 10.7002 6.1383V7.5583H5.7102C4.2502 7.5583 3.2702 8.3883 2.8602 9.9583ZM11.1302 5.3583C9.8902 5.3583 8.8702 4.3383 8.8702 3.0983C8.8702 1.8583 9.8802 0.8183 11.1302 0.8183C12.3602 0.8183 13.4002 1.8483 13.4002 3.0983C13.4002 4.3283 12.3702 5.3583 11.1302 5.3583ZM1.0202 20.3783L3.7002 10.1383C4.0102 8.9983 4.6902 8.4283 5.7502 8.4283H16.5002C17.5602 8.4283 18.2602 8.9983 18.5602 10.1383L21.2302 20.3783C21.6302 21.8983 21.1502 22.6983 19.7602 22.6983H2.4902C1.1002 22.6983 0.6202 21.8983 1.0202 20.3783Z" />
        </svg>
    