
        <svg xmlns="http://www.w3.org/2000/svg" viewBox="0 0 100 100">
            <path d="M0.0494 19.8092C0.0494 20.0792 0.1894 20.3092 0.4294 20.4492L2.9794 21.9892C3.1294 22.0692 3.2694 22.0892 3.4594 21.9792L5.8794 20.5792C6.1394 20.4392 6.2394 20.2992 6.2094 20.0192L6.1494 17.5592L12.1194 14.5792L18.0594 17.5592L17.9994 20.0192C17.9894 20.2992 18.0794 20.4392 18.3294 20.5792L20.7694 21.9892C20.9494 22.0892 21.0894 22.0692 21.2494 21.9892L23.7894 20.4492C24.0394 20.3092 24.1594 20.0892 24.1594 19.8092L24.2194 16.8392C24.2194 16.6792 24.1794 16.5292 23.9794 16.4192L21.5494 15.0192C21.2894 14.8692 21.1394 14.8692 20.8994 15.0192L18.3894 16.5492C18.3294 16.5892 18.2694 16.6292 18.2194 16.6792L12.5494 13.8592V6.6592L14.9994 5.3192C15.2494 5.1992 15.3294 5.0392 15.3294 4.7592V1.9492C15.3294 1.7292 15.2394 1.6192 15.0894 1.5392L12.4894 0.0992C12.2494 -0.0308 11.9794 -0.0308 11.7294 0.0992L9.1294 1.5392C8.9894 1.6192 8.8994 1.7292 8.8994 1.9492V4.7592C8.8994 5.0392 8.9794 5.1992 9.2194 5.3192L11.6794 6.6692V13.8592L5.9994 16.6892C5.9494 16.6292 5.8994 16.5892 5.8394 16.5492L3.3294 15.0192C3.0794 14.8692 2.9194 14.8692 2.6694 15.0192L0.2394 16.4192C0.0494 16.5292 -0.0006 16.6692 -0.0006 16.8292Z" />
        </svg>
    