
        <svg xmlns="http://www.w3.org/2000/svg" viewBox="0 0 100 100">
            <path d="M0.0017 19.0273C0.0017 21.6873 1.4617 23.1473 4.1417 23.1473H24.1317C26.8017 23.1473 28.2617 21.6873 28.2617 19.0273V14.6673C28.2617 13.7373 27.9417 12.7373 27.2717 12.0373L22.9217 7.3973C22.6717 7.1273 22.4417 6.8873 22.2117 6.6773C22.3817 6.5273 22.5617 6.3473 22.7617 6.1473L26.4917 2.3973C27.3417 1.5473 26.8217 -0.0027 25.5017 -0.0027H2.7617C1.4517 -0.0027 0.9417 1.5473 1.7817 2.3973L5.5117 6.1473C5.7117 6.3473 5.8917 6.5273 6.0717 6.6773C5.8317 6.8873 5.6017 7.1273 5.3417 7.3973L0.9917 12.0373C0.3317 12.7373 0.0017 13.7373 0.0017 14.6673ZM5.1717 2.5573H23.1017L20.4817 5.1473C20.2517 5.3773 20.0317 5.4773 19.5917 5.4773H8.6717C8.2517 5.4773 8.0317 5.3773 7.7917 5.1473ZM3.3417 13.4573L7.4317 8.8573C8.0117 8.2073 8.3717 7.9373 8.9017 7.9373H19.3717C19.9017 7.9373 20.2517 8.2073 20.8317 8.8573L24.9417 13.4573C25.1417 13.6773 25.0317 13.9773 24.6417 13.9773H3.6217C3.2417 13.9773 3.1417 13.6773 3.3417 13.4573ZM7.4517 10.5673C7.5717 10.9073 7.9117 11.0373 8.2517 10.9173L11.6117 9.7073C11.9517 9.5873 12.1317 9.2473 12.0117 8.9073C11.8917 8.5673 11.5417 8.4273 11.2017 8.5573L7.8417 9.7773C7.4917 9.8873 7.3217 10.2273 7.4517 10.5673ZM7.3617 12.6173C7.4917 12.9573 7.8317 13.0973 8.1717 12.9873L13.0817 11.1873C13.4217 11.0673 13.5917 10.7373 13.4617 10.3973C13.3317 10.0573 13.0117 9.9173 12.6517 10.0273L7.7617 11.8273C7.4017 11.9573 7.2317 12.2773 7.3617 12.6173ZM2.9417 18.6573V16.5973H25.3217V18.6573C25.3217 19.6673 24.8217 20.1173 23.8817 20.1173H4.3817C3.4417 20.1173 2.9417 19.6673 2.9417 18.6573ZM18.7117 18.3473C18.7117 18.7573 19.0417 19.0573 19.4517 19.0573H22.6717C23.0817 19.0573 23.4017 18.7573 23.4017 18.3473C23.3917 17.9573 23.1017 17.6573 22.6717 17.6573H19.4417C19.0317 17.6573 18.7017 17.9573 18.7117 18.3473Z" />
        </svg>
    