
        <svg xmlns="http://www.w3.org/2000/svg" viewBox="0 0 100 100">
            <path d="M12.7923 25.5961C19.8723 25.5961 25.6023 19.8661 25.6023 12.7961C25.6023 5.7261 19.8723 -0.0039 12.7923 -0.0039C5.7323 -0.0039 0.0023 5.7261 0.0023 12.7961C0.0023 19.8661 5.7323 25.5961 12.7923 25.5961ZM11.6823 11.0461C11.2723 11.3861 11.0723 11.7661 10.9423 12.3061L10.4023 12.0261C10.2923 11.9461 10.1923 11.9161 10.0823 11.9161C9.5323 11.9161 9.4823 12.2861 8.4223 12.2861C7.1523 12.2861 6.1323 11.2661 6.1323 9.9861C6.1323 8.7161 7.1523 7.6661 8.4223 7.6661C9.7023 7.6661 10.7323 8.7061 10.7323 9.9861C10.7323 10.4561 10.8023 10.5961 11.2123 10.8161ZM8.4223 10.8161C8.8823 10.8161 9.2623 10.4261 9.2623 9.9861C9.2623 9.5161 8.8823 9.1361 8.4223 9.1361C7.9723 9.1361 7.5923 9.5161 7.5923 9.9861C7.5923 10.4261 7.9723 10.8161 8.4223 10.8161ZM8.4223 17.9161C7.1523 17.9161 6.1323 16.8961 6.1323 15.6061C6.1323 14.3461 7.1523 13.2961 8.4223 13.2961C9.4823 13.2961 9.5823 13.6861 10.0623 13.6861C10.1723 13.6861 10.2423 13.6561 10.4023 13.5661L10.5923 13.4861C11.1123 13.2061 11.2223 13.0761 11.3223 12.7861L11.4423 12.3761C11.6523 11.7261 11.9523 11.3561 12.6523 11.0961L17.1523 9.4661C18.5823 8.9661 19.6023 9.2461 19.8023 10.2161L11.2123 14.7661C10.8023 14.9861 10.7323 15.1761 10.7323 15.6061C10.7323 16.8961 9.7223 17.9161 8.4223 17.9161ZM12.7523 12.7961C12.9623 12.7961 13.1523 12.6161 13.1523 12.3861C13.1523 12.1761 12.9623 11.9861 12.7523 11.9861C12.5423 11.9861 12.3423 12.1761 12.3423 12.3861C12.3423 12.6161 12.5423 12.7961 12.7523 12.7961ZM12.8423 14.4761L15.5523 13.0461L19.8023 15.3061C19.5923 16.2861 18.5823 16.5561 17.1523 16.0461ZM8.4223 16.4461C8.8823 16.4461 9.2623 16.0561 9.2623 15.5961C9.2623 15.1361 8.8823 14.7661 8.4223 14.7661C7.9723 14.7661 7.5923 15.1361 7.5923 15.5961C7.5923 16.0561 7.9723 16.4461 8.4223 16.4461Z" />
        </svg>
    