
        <svg xmlns="http://www.w3.org/2000/svg" viewBox="0 0 100 100">
            <path d="M11.7523 23.5031C18.2323 23.5031 23.5123 18.2331 23.5123 11.7531C23.5123 5.2731 18.2323 0.0031 11.7523 0.0031C5.2723 0.0031 0.0023 5.2731 0.0023 11.7531C0.0023 18.2331 5.2723 23.5031 11.7523 23.5031ZM11.0123 10.1231C10.7223 10.3431 10.5123 10.6431 10.3723 11.0031L9.0923 10.3431C8.9923 10.2931 8.9223 10.2631 8.8223 10.2631C8.3623 10.2631 8.1123 10.7731 7.0423 10.7731C5.7523 10.7731 4.7423 9.7531 4.7423 8.4731C4.7423 7.1931 5.7523 6.1631 7.0423 6.1631C8.3223 6.1631 9.3423 7.1831 9.3423 8.4731C9.3423 9.0231 9.3023 9.2131 9.6823 9.4131ZM7.0423 9.9531C7.8523 9.9531 8.5223 9.2931 8.5223 8.4731C8.5223 7.6431 7.8523 6.9831 7.0423 6.9831C6.2223 6.9831 5.5823 7.6431 5.5823 8.4731C5.5823 9.2931 6.2323 9.9531 7.0423 9.9531ZM7.0423 17.3531C5.7523 17.3531 4.7423 16.3231 4.7423 15.0331C4.7423 13.7531 5.7523 12.7531 7.0423 12.7531C8.1123 12.7531 8.3623 13.2531 8.8223 13.2531C8.9223 13.2531 8.9923 13.2331 9.0923 13.1731L10.2823 12.5431C10.6423 12.3531 10.7423 12.2131 10.8023 11.9431L10.9223 11.5231C11.0723 10.9131 11.3823 10.5931 12.0123 10.3631L16.9523 8.5431C18.2623 8.0731 19.1123 8.2131 19.3823 8.9331L9.6323 14.1231C9.3023 14.3131 9.3423 14.4931 9.3423 15.0331C9.3423 16.3231 8.3223 17.3531 7.0423 17.3531ZM12.1423 11.8831C12.3523 11.8831 12.5423 11.7031 12.5423 11.4831C12.5423 11.2531 12.3623 11.0831 12.1423 11.0831C11.9223 11.0831 11.7323 11.2631 11.7323 11.4831C11.7323 11.7031 11.9323 11.8831 12.1423 11.8831ZM12.6423 13.3031L14.7623 12.1731L19.3823 14.5731C19.1223 15.3231 18.2423 15.4731 16.9523 14.9731ZM7.0423 16.5231C7.8523 16.5231 8.5223 15.8631 8.5223 15.0331C8.5223 14.2131 7.8523 13.5631 7.0423 13.5631C6.2323 13.5631 5.5823 14.2131 5.5823 15.0331C5.5823 15.8631 6.2223 16.5231 7.0423 16.5231Z" />
        </svg>
    