
        <svg xmlns="http://www.w3.org/2000/svg" viewBox="0 0 100 100">
            <path d="M0.088 13.1524C0.208 13.2824 0.358 13.2824 0.488 13.1524L2.558 11.0924C12.358 1.2924 14.598 -0.3676 16.128 1.1424C17.368 2.3724 15.518 4.8424 11.408 9.6824C8.468 13.1524 5.328 16.6324 7.308 18.6224C8.648 19.9724 10.988 19.1324 14.738 15.2824C17.748 12.2024 19.718 10.7224 20.568 11.5524C21.188 12.1524 20.738 13.2124 19.518 15.3324C18.388 17.3124 17.248 19.0324 18.268 20.0424C19.058 20.8424 20.598 20.3724 22.548 18.2224C22.678 18.0724 22.698 17.9224 22.558 17.7924C22.428 17.6724 22.268 17.6724 22.128 17.8124C20.708 19.2324 19.198 20.1524 18.668 19.6224C18.138 19.0924 18.668 17.8324 19.948 15.7424C21.588 13.0524 21.768 11.9324 20.988 11.1524C19.958 10.1324 18.268 10.8824 14.288 14.8624C11.178 17.9724 8.898 19.3624 7.718 18.2224C6.308 16.8424 8.188 14.2524 11.818 10.0524C16.998 4.0824 17.898 2.1224 16.538 0.7424C14.588 -1.2176 12.588 0.2424 2.158 10.6724L0.088 12.7324C-0.032 12.8724 -0.022 13.0224 0.088 13.1524Z" />
        </svg>
    