
        <svg xmlns="http://www.w3.org/2000/svg" viewBox="0 0 100 100">
            <path d="M0.3494 14.6775C0.8194 15.1875 1.5594 15.1675 2.0394 14.6775L4.1094 12.6175C11.7294 4.9975 15.2594 1.5575 16.3994 2.6775C17.2194 3.4975 15.0494 5.9475 11.8694 9.6875C8.6794 13.4475 4.9894 17.5575 7.5694 20.1675C9.8694 22.4675 13.4894 19.4975 16.5494 16.5575C19.1394 14.0675 20.5294 12.7775 20.8994 13.1275C21.2194 13.4575 20.5394 14.2375 19.6494 15.7775C18.5394 17.7175 17.0494 20.0975 18.5894 21.6275C19.7694 22.8075 21.6894 22.1775 24.0094 19.8375C24.5694 19.2775 24.5994 18.5375 24.1094 18.0575C23.6294 17.5775 22.9094 17.5875 22.4194 18.0375C21.0794 19.2975 20.2894 19.9175 20.1494 19.7875C19.9894 19.6475 20.5894 18.7175 21.5994 17.0675C23.2994 14.2575 23.7894 12.6375 22.6294 11.4775C21.1094 9.9675 18.7694 11.1175 14.8494 14.8275C11.5594 17.9375 9.8794 19.0475 9.2694 18.4575C8.5594 17.7575 9.8594 15.6375 13.6794 11.2475C18.5194 5.6675 20.0994 2.9875 18.0794 0.9775C15.5594 -1.5325 12.9094 0.4275 2.4094 10.9275L0.3494 12.9875C-0.1206 13.4675 -0.1206 14.1975 0.3494 14.6775Z" />
        </svg>
    