
        <svg xmlns="http://www.w3.org/2000/svg" viewBox="0 0 100 100">
            <path d="M0.7256 15.6146C1.5456 16.3846 3.0456 16.5546 4.2256 15.4846C4.6856 15.0746 5.5156 14.1846 6.6656 13.0246C12.4156 7.2046 15.7856 3.6546 16.2656 4.1146C16.6556 4.4646 14.7256 7.2046 12.6956 10.0246C9.1156 15.0046 5.9456 18.7946 8.3556 21.2046C10.2056 23.0546 12.9556 21.4946 17.5056 17.4946C19.8556 15.4246 21.4056 13.9946 21.7256 14.2946C21.8956 14.4746 21.2556 15.5046 20.5256 16.7746C19.4056 18.7146 17.8356 20.9846 19.3756 22.5346C20.4856 23.6246 22.5056 23.1546 24.8056 20.8846C25.3156 20.3646 25.4356 19.7346 24.9856 19.2946C24.5656 18.8946 23.9756 18.9546 23.5256 19.3446C22.1956 20.6146 21.0856 21.2946 20.9756 21.1646C20.8356 21.0246 21.4856 19.8546 22.4856 18.0746C23.9656 15.4146 24.9556 13.5346 23.4956 12.1146C21.5556 10.2446 19.2956 12.2146 15.5656 15.5046C12.6756 18.0446 11.1656 18.9646 10.9856 18.7346C10.7056 18.4146 12.0756 16.4446 15.1756 12.1046C18.9556 6.8346 21.2556 3.2946 19.0656 1.1446C16.2856 -1.5654 12.4456 0.3246 3.6056 9.0746C2.2456 10.4046 1.3156 11.3246 0.7956 11.9446C-0.3944 13.3446 -0.1044 14.8246 0.7256 15.6146Z" />
        </svg>
    