
        <svg xmlns="http://www.w3.org/2000/svg" viewBox="0 0 100 100">
            <path d="M0.0017 5.02C0.0017 5.34 0.1717 5.52 0.5417 5.52H4.0117V20.57C4.0117 22.54 5.0517 23.58 7.0217 23.58H20.1717C22.0317 23.58 23.2117 22.36 23.2117 20.4V17.21C23.2117 16.87 23.0417 16.71 22.6717 16.71H21.2717V3.01C21.2717 1.04 20.2217 0 18.2617 0H2.2817C0.9817 0 0.0017 0.83 0.0017 2.43ZM4.5817 20.54V2.43C4.5817 1.61 4.3717 0.97 3.9417 0.57H18.2317C19.8517 0.57 20.6917 1.42 20.6917 3.04V16.71H9.9717C9.6117 16.71 9.4317 16.87 9.4317 17.21V20.54C9.4317 22.15 8.6117 22.99 7.0217 23C5.4017 22.99 4.5817 22.15 4.5817 20.54ZM0.5717 4.95V2.43C0.5717 1.21 1.3717 0.57 2.2817 0.57C3.3617 0.57 4.0117 1.21 4.0117 2.43V4.95ZM7.7117 5.52H17.5517C17.7317 5.52 17.8717 5.39 17.8717 5.23C17.8717 5.07 17.7317 4.95 17.5517 4.95H7.7117C7.5317 4.95 7.4017 5.07 7.4017 5.23C7.4017 5.39 7.5317 5.52 7.7117 5.52ZM7.7117 9.68H12.6117C12.7717 9.68 12.9117 9.55 12.9117 9.39C12.9117 9.23 12.7717 9.11 12.6117 9.11H7.7117C7.5317 9.11 7.4017 9.23 7.4017 9.39C7.4017 9.55 7.5317 9.68 7.7117 9.68ZM9.0517 23C9.6817 22.5 10.0117 21.68 10.0117 20.57V17.29H22.6417V20.4C22.6417 21.93 21.6117 23 20.1717 23Z" />
        </svg>
    