
        <svg xmlns="http://www.w3.org/2000/svg" viewBox="0 0 100 100">
            <path d="M3.0117 24.6656H15.7017C17.6617 24.6656 18.7017 23.6256 18.7017 21.6556V3.0156C18.7017 1.0456 17.6417 -0.0044 15.7017 -0.0044H8.1817C7.5717 -0.0044 6.9117 0.2656 6.5617 0.6456L0.6117 6.5656C0.2117 6.9656 0.0017 7.5156 0.0017 8.1756V21.6556C0.0017 23.6256 1.0417 24.6656 3.0117 24.6656ZM8.7117 3.2956C8.7117 3.1156 8.8217 2.9956 9.0017 2.9956C9.1717 2.9956 9.2817 3.1156 9.2817 3.2956V7.9956C9.2817 8.1656 9.1717 8.2856 9.0017 8.2856C8.8217 8.2856 8.7117 8.1656 8.7117 7.9956ZM10.7917 3.2956C10.7917 3.1156 10.9117 2.9956 11.0817 2.9956C11.2617 2.9956 11.3717 3.1156 11.3717 3.2956V7.9956C11.3717 8.1656 11.2617 8.2856 11.0817 8.2856C10.9117 8.2856 10.7917 8.1656 10.7917 7.9956ZM12.8817 3.2956C12.8817 3.1156 12.9917 2.9956 13.1717 2.9956C13.3517 2.9956 13.4617 3.1156 13.4617 3.2956V7.9956C13.4617 8.1656 13.3517 8.2856 13.1717 8.2856C12.9917 8.2856 12.8817 8.1656 12.8817 7.9956ZM14.9617 3.2956C14.9617 3.1156 15.0817 2.9956 15.2617 2.9956C15.4317 2.9956 15.5517 3.1156 15.5517 3.2956V7.9956C15.5517 8.1656 15.4317 8.2856 15.2617 8.2856C15.0817 8.2856 14.9617 8.1656 14.9617 7.9956Z" />
        </svg>
    