
        <svg xmlns="http://www.w3.org/2000/svg" viewBox="0 0 100 100">
            <path d="M3.6317 25.1217H16.0817C18.5017 25.1217 19.7117 23.9017 19.7117 21.4617V3.6817C19.7117 1.2417 18.4917 0.0017 16.0817 0.0017H8.2517C7.1917 0.0017 6.5317 0.2617 5.8517 0.9517L0.8717 5.9217C0.2117 6.5817 0.0017 7.1617 0.0017 8.3217V21.4617C0.0017 23.8917 1.2117 25.1217 3.6317 25.1217ZM7.4917 4.7617C7.4917 4.3217 7.8317 3.9817 8.2617 3.9817C8.6817 3.9817 9.0117 4.3117 9.0117 4.7617V8.5617C9.0117 9.0017 8.6817 9.3417 8.2617 9.3417C7.8317 9.3417 7.4917 9.0017 7.4917 8.5617ZM9.9617 4.7617C9.9617 4.3217 10.3017 3.9817 10.7417 3.9817C11.1717 3.9817 11.5117 4.3217 11.5117 4.7617V8.5617C11.5117 9.0017 11.1517 9.3417 10.7417 9.3417C10.3117 9.3417 9.9617 9.0017 9.9617 8.5617ZM12.4617 4.7617C12.4617 4.3217 12.8017 3.9817 13.2217 3.9817C13.6517 3.9817 13.9817 4.3117 13.9817 4.7617L13.9917 8.5617C13.9917 8.9917 13.6417 9.3417 13.2217 9.3417C12.8117 9.3417 12.4617 9.0017 12.4617 8.5617ZM14.9517 4.7617C14.9517 4.3217 15.2817 3.9817 15.7117 3.9817C16.1417 3.9817 16.4617 4.3117 16.4617 4.7617V8.5517C16.4617 9.0017 16.1417 9.3417 15.7117 9.3417C15.2917 9.3417 14.9517 9.0017 14.9517 8.5517Z" />
        </svg>
    