
        <svg xmlns="http://www.w3.org/2000/svg" viewBox="0 0 100 100">
            <path d="M6.3109 23.6557H8.8209C9.0409 23.6557 9.2109 23.7157 9.3709 23.8857L11.1509 25.6557C12.6809 27.1857 14.1109 27.1757 15.6309 25.6557L17.4109 23.8857C17.5809 23.7157 17.7409 23.6557 17.9609 23.6557H20.4709C22.6309 23.6557 23.6509 22.6357 23.6509 20.4857V17.9757C23.6509 17.7557 23.7209 17.5857 23.8709 17.4257L25.6409 15.6457C27.1709 14.1157 27.1609 12.6857 25.6409 11.1657L23.8709 9.3857C23.7009 9.2057 23.6509 9.0557 23.6509 8.8257V6.3157C23.6509 4.1657 22.6409 3.1557 20.4709 3.1557H17.9609C17.7409 3.1557 17.5809 3.0757 17.4109 2.9157L15.6309 1.1457C14.1109 -0.3843 12.6909 -0.3743 11.1509 1.1457L9.3709 2.9157C9.2109 3.0757 9.0409 3.1557 8.8209 3.1557H6.3109C4.1509 3.1557 3.1409 4.1457 3.1409 6.3157V8.8257C3.1409 9.0557 3.0809 9.2057 2.9209 9.3857L1.1509 11.1657C-0.3891 12.6857 -0.3791 14.1157 1.1509 15.6457L2.9209 17.4257C3.0809 17.5857 3.1409 17.7557 3.1409 17.9757V20.4857C3.1409 22.6357 4.1509 23.6557 6.3109 23.6557ZM6.4709 21.5257C5.4409 21.5257 5.2709 21.3657 5.2709 20.3257V17.2557C5.2709 16.9057 5.1509 16.6557 4.9109 16.4057L2.7509 14.2457C2.0109 13.5057 2.0109 13.2957 2.7509 12.5657L4.9109 10.4057C5.1509 10.1557 5.2709 9.8857 5.2709 9.5357V6.4757C5.2709 5.4257 5.4209 5.2857 6.4709 5.2857L9.5409 5.2757C9.8809 5.2757 10.1509 5.1757 10.3909 4.9157L12.5509 2.7657C13.2909 2.0257 13.5009 2.0257 14.2409 2.7657L16.3909 4.9157C16.6409 5.1757 16.9109 5.2757 17.2609 5.2757L20.3209 5.2857C21.3509 5.2857 21.5109 5.4457 21.5109 6.4757V9.5357C21.5309 9.8857 21.6309 10.1557 21.8809 10.4057L24.0309 12.5657C24.7709 13.2957 24.7709 13.5057 24.0309 14.2457L21.8809 16.4057C21.6309 16.6557 21.5309 16.9057 21.5309 17.2557L21.5109 20.3257C21.5109 21.3657 21.3509 21.5257 20.3209 21.5257H17.2609C16.9109 21.5257 16.6409 21.6157 16.3909 21.8857L14.2409 24.0457C13.5009 24.7857 13.2909 24.7857 12.5509 24.0457L10.3909 21.8857C10.1509 21.6157 9.8809 21.5257 9.5409 21.5257Z" />
        </svg>
    