
        <svg xmlns="http://www.w3.org/2000/svg" viewBox="0 0 100 100">
            <path d="M6.3109 23.6543H8.8209C9.0409 23.6543 9.2109 23.7143 9.3709 23.8843L11.1509 25.6543C12.6809 27.1843 14.1109 27.1743 15.6309 25.6543L17.4109 23.8843C17.5909 23.7143 17.7409 23.6543 17.9709 23.6543H20.4809C22.6309 23.6543 23.6509 22.6343 23.6509 20.4843V17.9743C23.6509 17.7543 23.7209 17.5843 23.8809 17.4243L25.6509 15.6443C27.1909 14.1143 27.1709 12.6843 25.6509 11.1643L23.8809 9.3843C23.7009 9.2043 23.6509 9.0543 23.6509 8.8343V6.3243C23.6509 4.1643 22.6409 3.1543 20.4809 3.1543H17.9709C17.7409 3.1543 17.5809 3.0943 17.4109 2.9243L15.6309 1.1443C14.1109 -0.3857 12.6809 -0.3757 11.1509 1.1543L9.3709 2.9243C9.2109 3.0743 9.0409 3.1543 8.8209 3.1543H6.3109C4.1509 3.1543 3.1409 4.1443 3.1409 6.3243V8.8343C3.1409 9.0543 3.0809 9.2243 2.9209 9.3843L1.1509 11.1643C-0.3891 12.6843 -0.3791 14.1143 1.1509 15.6443L2.9209 17.4243C3.0809 17.5843 3.1409 17.7543 3.1409 17.9743V20.4843C3.1409 22.6343 4.1609 23.6543 6.3109 23.6543Z" />
        </svg>
    