
        <svg xmlns="http://www.w3.org/2000/svg" viewBox="0 0 100 100">
            <path d="M9.9523 19.9002C15.4423 19.9002 19.8823 15.4502 19.8823 9.9502C19.8823 4.4502 15.4423 0.0002 9.9523 0.0002C4.4523 0.0002 0.0023 4.4502 0.0023 9.9502C0.0023 15.4502 4.4523 19.9002 9.9523 19.9002ZM9.9523 18.4502C5.2523 18.4502 1.4523 14.6402 1.4523 9.9502C1.4523 5.2502 5.2523 1.4502 9.9523 1.4502C14.6323 1.4502 18.4423 5.2502 18.4423 9.9502C18.4423 14.6402 14.6323 18.4502 9.9523 18.4502ZM25.9323 17.7402C26.2123 18.0702 26.7223 18.0702 27.0723 17.7002C28.9923 15.6602 30.1123 12.9302 30.1123 9.9502C30.1123 6.9702 28.9923 4.2402 27.0723 2.2002C26.7223 1.8302 26.2123 1.8202 25.9323 2.1602C25.6423 2.4702 25.7323 2.9102 26.0623 3.2602C27.7023 5.0302 28.6523 7.3602 28.6523 9.9502C28.6523 12.5402 27.7023 14.8702 26.0623 16.6302C25.7323 16.9902 25.6423 17.4102 25.9323 17.7402ZM9.9523 6.8802C10.9223 6.8802 11.7023 6.0902 11.7023 5.1302C11.7023 4.1602 10.9223 3.3702 9.9523 3.3702C8.9923 3.3702 8.2023 4.1602 8.2023 5.1302C8.2023 6.0902 8.9923 6.8802 9.9523 6.8802ZM22.7123 14.4502C23.0023 14.7902 23.5423 14.7902 23.8623 14.3902C24.9023 13.2002 25.5023 11.6402 25.5023 9.9502C25.5023 8.2602 24.9023 6.7002 23.8623 5.5102C23.5423 5.1102 23.0023 5.1102 22.7123 5.4402C22.4323 5.7702 22.5323 6.1802 22.8323 6.5502C23.6323 7.4302 24.0323 8.6502 24.0323 9.9502C24.0323 11.2502 23.6323 12.4702 22.8323 13.3502C22.5323 13.7202 22.4323 14.1302 22.7123 14.4502Z" />
        </svg>
    