
        <svg xmlns="http://www.w3.org/2000/svg" viewBox="0 0 100 100">
            <path d="M3.4617 19.8784H15.9117C18.2017 19.8784 19.3717 18.6984 19.3717 16.4484V3.4184C19.3717 1.1684 18.2017 -0.0016 15.9117 -0.0016H3.4617C1.1717 -0.0016 0.0017 1.1484 0.0017 3.4184V16.4484C0.0017 18.7184 1.1717 19.8784 3.4617 19.8784ZM24.3517 12.5884C24.5817 12.8684 25.0317 12.8884 25.3217 12.5484C26.7317 10.9784 27.4917 8.9484 27.4917 6.7284C27.4917 4.4884 26.7317 2.4684 25.3217 0.8884C25.0417 0.5784 24.6317 0.5784 24.3917 0.8284C24.1217 1.0884 24.1417 1.4784 24.4317 1.8184C25.6217 3.1684 26.2417 4.8584 26.2417 6.7284C26.2417 8.5784 25.6217 10.2884 24.4317 11.6284C24.1517 11.9484 24.1017 12.3084 24.3517 12.5884ZM21.7117 10.1484C21.9717 10.4184 22.4317 10.4284 22.7117 10.0584C23.4217 9.1284 23.8517 7.9784 23.8517 6.7284C23.8517 5.4684 23.4217 4.3284 22.7117 3.3884C22.4417 3.0184 21.9917 3.0184 21.7417 3.2784C21.4717 3.5484 21.5417 3.8984 21.7817 4.2384C22.3317 5.0184 22.5817 5.8384 22.5817 6.7284C22.5817 7.6084 22.3317 8.4284 21.7817 9.2084C21.5417 9.5384 21.4717 9.8784 21.7117 10.1484ZM9.4917 10.1384C9.1617 10.1384 8.9017 9.8784 8.9017 9.5384V3.9384C8.9017 3.5984 9.1617 3.3384 9.4917 3.3384C9.8217 3.3384 10.0817 3.5984 10.0817 3.9384V9.5384C10.0817 9.8784 9.8217 10.1384 9.4917 10.1384ZM12.3417 10.1384C12.0117 10.1384 11.7517 9.8784 11.7517 9.5384V3.9384C11.7517 3.5984 12.0117 3.3384 12.3417 3.3384C12.6717 3.3384 12.9217 3.5984 12.9217 3.9384V9.5384C12.9217 9.8784 12.6717 10.1384 12.3417 10.1384ZM15.1717 10.1384C14.8617 10.1384 14.5917 9.8784 14.5917 9.5384V3.9384C14.5917 3.5984 14.8617 3.3384 15.1717 3.3384C15.5117 3.3384 15.7717 3.5984 15.7717 3.9384V9.5384C15.7717 9.8784 15.5117 10.1384 15.1717 10.1384Z" />
        </svg>
    