
        <svg xmlns="http://www.w3.org/2000/svg" viewBox="0 0 100 100">
            <path d="M3.1617 20.742H24.0317C26.1117 20.742 27.1917 19.642 27.1917 17.592V3.152C27.1917 1.102 26.1117 0.002 24.0317 0.002H3.1617C1.0917 0.002 0.0017 1.082 0.0017 3.152V17.592C0.0017 19.662 1.0917 20.742 3.1617 20.742ZM0.8717 3.202C0.8717 1.662 1.6617 0.872 3.1917 0.872H24.0017C25.4717 0.872 26.3217 1.662 26.3217 3.202V6.672H0.8717ZM21.9917 5.202C22.7117 5.192 23.3117 4.602 23.3117 3.892C23.3117 3.162 22.7117 2.552 21.9917 2.552C21.2817 2.552 20.6617 3.162 20.6617 3.892C20.6617 4.602 21.2817 5.222 21.9917 5.202ZM0.8717 13.282V7.512H26.3217V13.282ZM21.9917 11.692C22.7117 11.682 23.3117 11.102 23.3117 10.382C23.3117 9.652 22.7117 9.042 21.9917 9.042C21.2817 9.042 20.6617 9.652 20.6617 10.382C20.6617 11.102 21.2817 11.702 21.9917 11.692ZM3.1917 19.872C1.6617 19.872 0.8717 19.082 0.8717 17.552V14.132H26.3217V17.552C26.3217 19.082 25.4717 19.872 24.0017 19.872ZM21.9917 18.192C22.7117 18.172 23.3117 17.582 23.3117 16.872C23.3117 16.152 22.7117 15.542 21.9917 15.542C21.2817 15.542 20.6617 16.152 20.6617 16.872C20.6617 17.582 21.2817 18.202 21.9917 18.192Z" />
        </svg>
    