
        <svg xmlns="http://www.w3.org/2000/svg" viewBox="0 0 100 100">
            <path d="M3.6817 21.5722H23.9517C26.4117 21.5722 27.6317 20.3722 27.6317 17.9522V3.6322C27.6317 1.2222 26.4117 0.0022 23.9517 0.0022H3.6817C1.2317 0.0022 0.0017 1.2222 0.0017 3.6322V17.9522C0.0017 20.3722 1.2317 21.5722 3.6817 21.5722ZM1.8917 3.7422C1.8917 2.5222 2.5317 1.8822 3.7017 1.8822H23.9317C25.0917 1.8822 25.7417 2.5222 25.7417 3.7422V6.6522H1.8917ZM21.6217 5.7822C22.4317 5.7522 23.1117 5.0822 23.1117 4.2822C23.1117 3.4522 22.4317 2.7622 21.6217 2.7622C20.8217 2.7622 20.1317 3.4522 20.1317 4.2822C20.1317 5.0822 20.8217 5.7922 21.6217 5.7822ZM1.8917 13.1722V8.4222H25.7417V13.1722ZM21.6217 12.2722C22.4317 12.2422 23.1117 11.5822 23.1117 10.7722C23.1117 9.9522 22.4317 9.2622 21.6217 9.2622C20.8217 9.2622 20.1317 9.9522 20.1317 10.7722C20.1317 11.5822 20.8217 12.2822 21.6217 12.2722ZM3.7017 19.6922C2.5317 19.6922 1.8917 19.0622 1.8917 17.8522V14.9422H25.7417V17.8522C25.7417 19.0622 25.0917 19.6922 23.9317 19.6922ZM21.6217 18.7622C22.4317 18.7422 23.1117 18.0722 23.1117 17.2622C23.1117 16.4422 22.4317 15.7522 21.6217 15.7522C20.8217 15.7522 20.1317 16.4422 20.1317 17.2622C20.1317 18.0722 20.8217 18.7722 21.6217 18.7622Z" />
        </svg>
    