
        <svg xmlns="http://www.w3.org/2000/svg" viewBox="0 0 100 100">
            <path d="M11.3523 22.7064C17.6323 22.7064 22.7123 17.6264 22.7123 11.3564C22.7123 5.0764 17.6323 -0.0036 11.3523 -0.0036C5.0823 -0.0036 0.0023 5.0764 0.0023 11.3564C0.0023 17.6264 5.0823 22.7064 11.3523 22.7064ZM11.3523 22.1364C5.3923 22.1364 0.5723 17.3164 0.5723 11.3564C0.5723 5.3864 5.3923 0.5764 11.3523 0.5764C17.3223 0.5764 22.1323 5.3864 22.1323 11.3564C22.1323 17.3164 17.3223 22.1364 11.3523 22.1364ZM6.2923 10.2664H9.2623C9.2723 8.8664 10.2923 7.6764 11.6323 7.5564V6.3964C11.6323 5.8364 11.3423 5.5264 10.7723 5.5264H6.2923C5.7023 5.5264 5.4223 5.8364 5.4223 6.3964V9.4064C5.4223 9.9564 5.7023 10.2664 6.2923 10.2664ZM11.8523 12.5364C12.9723 12.5364 13.8523 11.5764 13.8523 10.3264C13.8523 9.1364 12.9723 8.1464 11.8523 8.1464C10.7323 8.1464 9.8423 9.1364 9.8423 10.3264C9.8423 11.5764 10.7323 12.5364 11.8523 12.5364ZM16.1223 13.5564H17.9723C18.5523 13.5564 18.8323 13.2464 18.8323 12.6664V9.0864C18.8323 8.5264 18.5523 8.2164 17.9723 8.2164H16.1223C15.5623 8.2164 15.2623 8.5264 15.2623 9.0864V12.6664C15.2623 13.2464 15.5623 13.5564 16.1223 13.5564ZM4.8323 14.5764H6.1123C6.6823 14.5764 6.9623 14.2864 6.9623 13.7064V12.4364C6.9623 11.8664 6.6823 11.5764 6.1123 11.5764H4.8323C4.2523 11.5764 3.9723 11.8564 3.9723 12.4364V13.7064C3.9723 14.2864 4.2523 14.5764 4.8323 14.5764ZM8.2723 17.1864H15.4123C15.8423 17.1864 16.1223 16.9464 16.1223 16.6064C16.1223 15.2664 14.4723 13.4764 11.8323 13.4764C9.2023 13.4764 7.5723 15.2664 7.5723 16.6064C7.5723 16.9464 7.8523 17.1864 8.2723 17.1864Z" />
        </svg>
    