
        <svg xmlns="http://www.w3.org/2000/svg" viewBox="0 0 100 100">
            <path d="M12.7923 25.5961C19.8723 25.5961 25.6023 19.8661 25.6023 12.7961C25.6023 5.7261 19.8723 -0.0039 12.7923 -0.0039C5.7323 -0.0039 0.0023 5.7261 0.0023 12.7961C0.0023 19.8661 5.7323 25.5961 12.7923 25.5961ZM7.8123 11.7261C7.3023 11.7261 6.9823 11.4061 6.9823 10.9061V7.9261C6.9823 7.4061 7.3023 7.1061 7.8123 7.1061H12.2623C12.7723 7.1061 13.0923 7.4061 13.0923 7.9261V8.6461C11.5123 8.7661 10.2623 10.1061 10.2323 11.7261ZM13.2623 13.9661C12.1723 13.9661 11.2923 13.0161 11.2823 11.8261C11.2623 10.6961 12.1923 9.7161 13.2623 9.7161C14.3823 9.7161 15.2423 10.6961 15.2423 11.8261C15.2423 13.0161 14.3823 13.9661 13.2623 13.9661ZM17.6123 14.9161C17.1223 14.9161 16.7823 14.6061 16.7823 14.1061V10.5361C16.7823 10.0461 17.1223 9.7261 17.6123 9.7261H19.4623C19.9723 9.7261 20.2823 10.0461 20.2823 10.5361V14.1061C20.2823 14.6061 19.9723 14.9161 19.4623 14.9161ZM6.1623 16.1161C5.6623 16.1161 5.3423 15.7761 5.3423 15.2961V13.9561C5.3423 13.4861 5.6623 13.1561 6.1623 13.1561H7.4523C7.9523 13.1561 8.2823 13.4861 8.2823 13.9561V15.2961C8.2823 15.7761 7.9523 16.1161 7.4523 16.1161ZM10.2323 18.4561C9.6023 18.4561 9.2023 18.1561 9.2023 17.6161C9.2023 16.4261 10.8323 14.7861 13.2623 14.7861C15.7423 14.7861 17.3423 16.4261 17.3423 17.6161C17.3423 18.1561 16.9723 18.4561 16.3023 18.4561Z" />
        </svg>
    