
        <svg xmlns="http://www.w3.org/2000/svg" viewBox="0 0 100 100">
            <path d="M11.9523 23.9023C18.5523 23.9023 23.9023 18.5523 23.9023 11.9523C23.9023 5.3623 18.5523 0.0023 11.9523 0.0023C5.3623 0.0023 0.0023 5.3623 0.0023 11.9523C0.0023 18.5523 5.3623 23.9023 11.9523 23.9023ZM6.6823 10.7923C6.0823 10.7923 5.7623 10.4923 5.7623 9.9023V6.7923C5.7623 6.1923 6.0823 5.8823 6.6823 5.8823H11.3323C11.9423 5.8823 12.2623 6.1923 12.2623 6.7923V7.6523C10.6923 7.7723 9.4723 9.1323 9.4523 10.7923ZM12.4523 13.1223C11.3223 13.1223 10.3523 12.1123 10.3523 10.8023C10.3523 9.5123 11.3223 8.5423 12.4523 8.5423C13.5823 8.5423 14.5623 9.5023 14.5623 10.8023C14.5623 12.1123 13.5823 13.1223 12.4523 13.1223ZM17.0523 14.2023C16.4423 14.2023 16.1323 13.8823 16.1323 13.2923V9.5623C16.1323 8.9723 16.4423 8.6723 17.0523 8.6723H18.9523C19.5423 8.6723 19.8523 8.9723 19.8523 9.5623V13.2923C19.8523 13.8823 19.5423 14.2023 18.9523 14.2023ZM4.9823 15.4123C4.3823 15.4123 4.0823 15.1023 4.0823 14.5123V13.1823C4.0823 12.5823 4.3823 12.2823 4.9823 12.2823H6.2723C6.8823 12.2823 7.1923 12.5823 7.1923 13.1823V14.5123C7.1923 15.1023 6.8823 15.4123 6.2723 15.4123ZM8.9223 18.0223C8.3523 18.0223 8.0323 17.7623 8.0323 17.3223C8.0323 15.9623 9.7123 14.0723 12.4523 14.0723C15.1923 14.0723 16.8823 15.9623 16.8823 17.3223C16.8823 17.7623 16.5623 18.0223 15.9923 18.0223Z" />
        </svg>
    