
        <svg xmlns="http://www.w3.org/2000/svg" viewBox="0 0 100 100">
            <path d="M4.2317 8.4589H9.5617C9.5817 5.9189 11.4517 3.7989 13.8117 3.5989V1.5489C13.8117 0.5389 13.2917 -0.0011 12.2617 -0.0011H4.2317C3.2117 -0.0011 2.6717 0.5289 2.6717 1.5489V6.8989C2.6717 7.9289 3.2117 8.4589 4.2317 8.4589ZM14.1917 12.5189C16.1917 12.5189 17.7817 10.7789 17.7817 8.5189C17.7817 6.3889 16.1717 4.6289 14.1917 4.6289C12.2117 4.6289 10.5917 6.3989 10.6017 8.5189C10.6017 10.7789 12.1917 12.5189 14.1917 12.5189ZM21.8917 14.3189H25.1917C26.2217 14.3189 26.7517 13.7689 26.7517 12.7589V6.3389C26.7517 5.3289 26.2217 4.7889 25.1917 4.7889H21.8917C20.8717 4.7889 20.3317 5.3189 20.3317 6.3389V12.7589C20.3317 13.7789 20.8717 14.3189 21.8917 14.3189ZM1.5617 16.2189H3.8317C4.8517 16.2189 5.3817 15.6789 5.3817 14.6689V12.3889C5.3817 11.3789 4.8517 10.8389 3.8317 10.8389H1.5617C0.5317 10.8389 0.0017 11.3689 0.0017 12.3889V14.6689C0.0017 15.6889 0.5317 16.2189 1.5617 16.2189ZM7.8617 20.8489H20.4917C21.3017 20.8489 21.8217 20.4189 21.8217 19.7589C21.8217 17.3989 18.8817 14.1689 14.1817 14.1689C9.4717 14.1689 6.5317 17.3989 6.5317 19.7589C6.5317 20.4189 7.0517 20.8489 7.8617 20.8489Z" />
        </svg>
    