
        <svg xmlns="http://www.w3.org/2000/svg" viewBox="0 0 100 100">
            <path d="M11.9523 23.9041C18.5523 23.9041 23.9023 18.5541 23.9023 11.9541C23.9023 5.3541 18.5523 0.0041 11.9523 0.0041C5.3523 0.0041 0.0023 5.3541 0.0023 11.9541C0.0023 18.5541 5.3523 23.9041 11.9523 23.9041ZM11.9523 21.9141C6.4423 21.9141 1.9923 17.4641 1.9923 11.9541C1.9923 6.4441 6.4423 1.9941 11.9523 1.9941C17.4623 1.9941 21.9123 6.4441 21.9123 11.9541C21.9123 17.4641 17.4623 21.9141 11.9523 21.9141ZM11.0323 7.0341C11.5123 6.5541 11.5223 5.8241 11.0423 5.3541C10.5923 4.8841 9.8423 4.8541 9.3623 5.2941C9.3023 5.3941 7.5623 7.0441 6.5823 8.1241C5.6923 9.0841 5.2623 10.3241 5.3423 11.5941C5.4223 12.9141 6.0423 14.1341 7.0923 15.0241C7.9223 15.7541 9.0223 16.1141 10.1223 16.1141C11.2723 16.1141 12.4023 15.7341 13.2523 14.9441C13.8723 14.4041 14.5823 13.6441 14.6023 13.6241C15.0423 13.1341 15.0123 12.3841 14.5423 11.9541C14.0623 11.4841 13.3023 11.5241 12.8623 12.0141C12.8423 12.0141 12.2223 12.7141 11.6723 13.1941C10.7823 13.9841 9.3623 13.8541 8.6223 13.2441C8.0823 12.7541 7.7823 12.1241 7.7323 11.4641C7.6723 10.8141 7.9123 10.2041 8.3423 9.7341C9.2423 8.7041 11.0023 7.0441 11.0323 7.0341ZM12.8623 17.1241C12.3823 17.6041 12.3723 18.3441 12.8423 18.7941C13.3023 19.2741 14.0423 19.3141 14.5223 18.8641C14.6023 18.7741 16.3323 17.1141 17.3123 16.0341C18.1923 15.0841 18.6223 13.8541 18.5523 12.5641C18.4723 11.2541 17.8523 10.0241 16.8323 9.1441C15.9623 8.4041 14.8723 8.0541 13.7623 8.0541C12.6123 8.0541 11.5123 8.4241 10.6323 9.2141C10.0123 9.7541 9.3023 10.5141 9.2923 10.5341C8.8323 11.0341 8.8723 11.7841 9.3523 12.2141C9.8323 12.6641 10.5923 12.6441 11.0323 12.1641C11.0423 12.1441 11.6723 11.4241 12.2223 10.9641C13.1023 10.1741 14.5223 10.3241 15.2623 10.9241C15.7923 11.4141 16.1123 12.0241 16.1523 12.7141C16.2223 13.3441 15.9723 13.9541 15.5423 14.4541C14.6523 15.4541 12.8823 17.1141 12.8623 17.1241Z" />
        </svg>
    