
        <svg xmlns="http://www.w3.org/2000/svg" viewBox="0 0 100 100">
            <path d="M12.3723 24.7542C19.2023 24.7542 24.7523 19.2042 24.7523 12.3742C24.7523 5.5442 19.2023 0.0042 12.3723 0.0042C5.5423 0.0042 0.0023 5.5442 0.0023 12.3742C0.0023 19.2042 5.5423 24.7542 12.3723 24.7542ZM11.4523 7.3642C11.4223 7.3842 9.6523 9.0442 8.7423 10.1042C8.3123 10.5742 8.0723 11.1942 8.1223 11.8242C8.1723 12.5042 8.4823 13.1242 9.0323 13.6242C9.7623 14.2542 11.2023 14.3742 12.0923 13.5742C12.6423 13.1042 13.2823 12.3842 13.3023 12.3842C13.7423 11.8942 14.5123 11.8642 14.9923 12.3242C15.4723 12.7642 15.5023 13.5142 15.0423 14.0142C15.0323 14.0242 14.3323 14.8142 13.6923 15.3442C12.8323 16.1442 11.6923 16.5242 10.5323 16.5242C9.4223 16.5242 8.3223 16.1642 7.4723 15.4242C6.4223 14.5242 5.8023 13.2842 5.7023 11.9642C5.6323 10.6742 6.0723 9.4342 6.9623 8.4642C7.9323 7.3842 9.7023 5.7042 9.7623 5.6142C10.2523 5.1542 11.0023 5.2042 11.4723 5.6742C11.9423 6.1442 11.9323 6.8742 11.4523 7.3642ZM13.3023 17.5442C13.3123 17.5342 15.0923 15.8542 16.0123 14.8442C16.4423 14.3442 16.6723 13.7242 16.6123 13.1042C16.5723 12.3942 16.2523 11.7842 15.7123 11.2842C14.9723 10.6742 13.5423 10.5342 12.6423 11.3342C12.0923 11.8042 11.4723 12.5242 11.4523 12.5342C11.0023 13.0242 10.2423 13.0542 9.7523 12.5842C9.2723 12.1642 9.2423 11.4042 9.7023 10.8942C9.7023 10.8742 10.4223 10.1042 11.0623 9.5642C11.9323 8.7642 13.0423 8.3942 14.2023 8.3942C15.3123 8.3942 16.4323 8.7542 17.2923 9.4842C18.3123 10.3842 18.9523 11.6242 19.0423 12.9342C19.1023 14.2542 18.6723 15.4842 17.7923 16.4542C16.8023 17.5342 15.0423 19.2042 14.9723 19.3042C14.4923 19.7442 13.7423 19.7242 13.2823 19.2342C12.7923 18.7742 12.8123 18.0342 13.3023 17.5442Z" />
        </svg>
    