
        <svg xmlns="http://www.w3.org/2000/svg" viewBox="0 0 100 100">
            <path d="M14.9323 5.7297C17.0023 5.7297 18.9423 6.4197 20.4723 7.5897C20.8023 7.8297 21.2123 7.7997 21.5123 7.5097L24.4223 4.5897C24.7823 4.2297 24.7723 3.6897 24.3623 3.3797C21.7923 1.2697 18.5023 -0.0003 14.9323 -0.0003C11.3423 -0.0003 8.0523 1.2697 5.4823 3.3797C5.0823 3.6897 5.0723 4.2297 5.4423 4.5897L8.3423 7.5097C8.6323 7.7997 9.0723 7.8297 9.4123 7.5697C10.9423 6.4197 12.8523 5.7297 14.9323 5.7297ZM29.8523 14.9297C29.8523 11.3297 28.5823 8.0297 26.4523 5.4397C26.1423 5.0697 25.6123 5.0697 25.2523 5.4397L22.3523 8.3397C22.0323 8.6497 22.0323 9.0697 22.2823 9.4097C23.4423 10.9497 24.1323 12.8597 24.1323 14.9297C24.1323 17.0597 23.4023 19.0497 22.1323 20.6397C21.8823 20.9797 21.8823 21.3897 22.1723 21.6797L25.1023 24.6097C25.4523 24.9597 25.9823 24.9597 26.3123 24.5897C28.5123 21.9797 29.8523 18.6197 29.8523 14.9297ZM0.0023 14.9297C0.0023 18.6197 1.3523 22.0097 3.5723 24.6197C3.8923 24.9797 4.3923 24.9597 4.7623 24.6097L7.6723 21.6797C7.9723 21.3897 7.9823 20.9797 7.7223 20.6397C6.4523 19.0497 5.7323 17.0597 5.7323 14.9297C5.7323 12.8597 6.4123 10.9497 7.5723 9.4097C7.8123 9.0697 7.8123 8.6497 7.5123 8.3397L4.5923 5.4397C4.2323 5.0697 3.6923 5.0897 3.3723 5.4797C1.2623 8.0497 0.0023 11.3397 0.0023 14.9297ZM13.9423 19.7797H17.1823C19.2423 19.7797 20.2123 18.7597 20.2123 16.6897V10.8397C20.2123 10.2097 19.8523 9.8097 19.2623 9.8097C18.6823 9.8097 18.3123 10.2097 18.3123 10.8397V16.2397C18.3123 17.5197 18.0823 17.8897 16.8023 17.8897H14.3923V13.8197C14.3923 13.2097 14.1023 12.8097 13.5023 12.8097C12.8923 12.8097 12.5823 13.2097 12.5823 13.8197V18.5197C12.5823 19.4197 13.1323 19.7797 13.9423 19.7797ZM10.5723 19.8397C11.1923 19.8397 11.5323 19.4497 11.5323 18.8197V11.7397H13.8123C15.0423 11.7397 15.4423 12.0397 15.4423 13.3197V15.9097C15.4423 16.4997 15.7923 16.8797 16.3523 16.8797C16.9123 16.8797 17.2623 16.4997 17.2623 15.9097V12.8397C17.2623 10.6397 16.3123 9.8697 14.2223 9.8697H11.2823C10.1723 9.8697 9.6323 10.3397 9.6323 11.4497V18.8197C9.6323 19.4797 9.9623 19.8397 10.5723 19.8397Z" />
        </svg>
    