
        <svg xmlns="http://www.w3.org/2000/svg" viewBox="0 0 100 100">
            <path d="M12.7923 25.5978C19.8723 25.5978 25.6023 19.8678 25.6023 12.7978C25.6023 5.7278 19.8723 -0.0022 12.7923 -0.0022C5.7323 -0.0022 0.0023 5.7278 0.0023 12.7978C0.0023 19.8678 5.7323 25.5978 12.7923 25.5978ZM11.8123 18.0778C10.8423 18.0778 10.1723 17.6478 10.1723 16.5678V11.8778C10.1723 11.1578 10.5223 10.6678 11.2623 10.6678C12.0023 10.6678 12.3423 11.1578 12.3423 11.8778V15.8278H14.8223C16.1223 15.8278 16.3523 15.4378 16.3523 14.1278V8.7178C16.3523 7.9578 16.7823 7.4678 17.4823 7.4678C18.1923 7.4678 18.6423 7.9578 18.6423 8.7178V14.7578C18.6423 16.9878 17.4823 18.0778 15.2323 18.0778ZM8.1023 18.1278C7.3523 18.1278 6.9623 17.6878 6.9623 16.8778V9.4578C6.9623 8.0478 7.6323 7.5078 9.0123 7.5078H12.0723C14.3623 7.5078 15.4123 8.2778 15.4123 10.7478V13.8178C15.4123 14.5178 14.9923 14.9778 14.3423 14.9778C13.6723 14.9778 13.2523 14.5178 13.2523 13.8178V11.3278C13.2523 10.0278 12.9123 9.7378 11.6223 9.7378H9.2623V16.8778C9.2623 17.6478 8.8623 18.1278 8.1023 18.1278Z" />
        </svg>
    