
        <svg xmlns="http://www.w3.org/2000/svg" viewBox="0 0 100 100">
            <path d="M15.1723 5.9423C17.2523 5.9423 19.1623 6.6223 20.7023 7.7823C21.0623 8.0423 21.5023 8.0123 21.8223 7.6923L24.7823 4.7123C25.1823 4.3223 25.1723 3.7423 24.7423 3.4023C22.1223 1.2723 18.7923 0.0023 15.1723 0.0023C11.5523 0.0023 8.2223 1.2723 5.6223 3.4023C5.1923 3.7423 5.1723 4.3223 5.5623 4.7123L8.5323 7.6923C8.8523 8.0123 9.3123 8.0423 9.6823 7.7723C11.2123 6.6223 13.1223 5.9423 15.1723 5.9423ZM30.3523 15.1723C30.3523 11.5423 29.0723 8.1923 26.9223 5.5623C26.6023 5.1823 26.0423 5.1823 25.6423 5.5623L22.6623 8.5323C22.3223 8.8723 22.3223 9.3123 22.5923 9.6823C23.7323 11.2223 24.4123 13.1223 24.4123 15.1723C24.4123 17.3323 23.6823 19.3223 22.4223 20.9023C22.1323 21.2823 22.1323 21.7423 22.4623 22.0623L25.4423 25.0423C25.8123 25.4223 26.3823 25.4223 26.7423 25.0123C28.9923 22.3623 30.3523 18.9423 30.3523 15.1723ZM0.0023 15.1723C0.0023 18.9523 1.3823 22.4023 3.6523 25.0523C3.9823 25.4423 4.5323 25.4223 4.9223 25.0423L7.8823 22.0623C8.2123 21.7423 8.2223 21.2823 7.9323 20.9023C6.6823 19.3223 5.9423 17.3323 5.9423 15.1723C5.9423 13.1223 6.6223 11.2223 7.7623 9.6823C8.0323 9.3123 8.0323 8.8723 7.6923 8.5323L4.7123 5.5623C4.3223 5.1823 3.7423 5.1923 3.3823 5.6223C1.2623 8.2223 0.0023 11.5523 0.0023 15.1723ZM14.2623 19.9023H17.4423C19.5223 19.9023 20.5923 18.8923 20.5923 16.8123V11.2123C20.5923 10.5023 20.1723 10.0523 19.5223 10.0523C18.8623 10.0523 18.4523 10.5023 18.4523 11.2123V16.2423C18.4523 17.4623 18.2623 17.8223 17.0523 17.8223H14.7423V14.1523C14.7423 13.4723 14.4223 13.0223 13.7623 13.0223C13.0823 13.0223 12.7423 13.4723 12.7423 14.1523V18.5023C12.7423 19.5123 13.3623 19.9023 14.2623 19.9023ZM10.8123 19.9423C11.5323 19.9423 11.8923 19.5123 11.8923 18.7923V12.1623H14.0823C15.2823 12.1623 15.6023 12.4323 15.6023 13.6423V15.9523C15.6023 16.5923 15.9923 17.0123 16.6023 17.0123C17.2123 17.0123 17.6023 16.5923 17.6023 15.9523V13.1023C17.6023 10.8023 16.6323 10.1023 14.5123 10.1023H11.6623C10.3723 10.1023 9.7623 10.6023 9.7623 11.8923V18.7923C9.7623 19.5323 10.1223 19.9423 10.8123 19.9423Z" />
        </svg>
    