
        <svg xmlns="http://www.w3.org/2000/svg" viewBox="0 0 100 100">
            <path d="M3.8417 21.8745H18.0317C20.5617 21.8745 21.8817 20.5745 21.8817 18.0745V3.8045C21.8817 1.3145 20.5617 0.0045 18.0317 0.0045H3.8417C1.3117 0.0045 0.0017 1.3045 0.0017 3.8045V18.0745C0.0017 20.5745 1.3117 21.8745 3.8417 21.8745ZM9.8017 16.2445C9.2017 16.2445 8.7817 15.9145 8.7817 15.2445V9.4645C8.7817 9.0245 9.0317 8.7345 9.4817 8.7345C9.9117 8.7345 10.1617 9.0245 10.1617 9.4645V14.7545H12.9417C14.4517 14.7545 14.7617 14.3545 14.7617 12.8445V6.2945C14.7617 5.8245 15.0517 5.5345 15.4817 5.5345C15.9117 5.5345 16.1817 5.8245 16.1817 6.2945V13.0045C16.1817 15.1145 15.4117 16.2445 13.2917 16.2445ZM6.4717 16.3345C6.0217 16.3345 5.7517 16.0645 5.7517 15.5945V6.7345C5.7517 6.0145 6.1517 5.6245 6.8817 5.6245H10.1917C12.2417 5.6245 13.1617 6.5945 13.1617 8.6845V12.4145C13.1617 12.8545 12.8917 13.1445 12.4717 13.1445C12.0517 13.1445 11.7817 12.8545 11.7817 12.4145V8.9845C11.7817 7.4645 11.1417 7.1245 9.7817 7.1245H7.1617V15.5945C7.1617 16.0645 6.9017 16.3345 6.4717 16.3345Z" />
        </svg>
    