
        <svg xmlns="http://www.w3.org/2000/svg" viewBox="0 0 100 100">
            <path d="M12.6023 25.1986C19.5623 25.1986 25.2023 19.5586 25.2023 12.5986C25.2023 5.6386 19.5623 -0.0014 12.6023 -0.0014C5.6323 -0.0014 0.0023 5.6386 0.0023 12.5986C0.0023 19.5586 5.6323 25.1986 12.6023 25.1986ZM12.6023 21.5386C7.6523 21.5386 3.6523 17.5386 3.6523 12.5986C3.6523 7.6486 7.6523 3.6586 12.6023 3.6586C17.5423 3.6586 21.5423 7.6486 21.5423 12.5986C21.5423 17.5386 17.5423 21.5386 12.6023 21.5386ZM11.6123 17.5586H14.8523C16.9223 17.5586 17.8923 16.5186 17.8923 14.4586V8.6086C17.8923 7.9786 17.5223 7.5786 16.9323 7.5786C16.3623 7.5786 15.9823 7.9786 15.9823 8.6086V14.0186C15.9823 15.2886 15.7623 15.6686 14.4823 15.6686H12.0623V11.5886C12.0623 10.9786 11.7823 10.5786 11.1723 10.5786C10.5723 10.5786 10.2523 10.9786 10.2523 11.5886V16.2886C10.2523 17.1886 10.8123 17.5586 11.6123 17.5586ZM8.2523 17.6086C8.8723 17.6086 9.2023 17.2286 9.2023 16.5986V9.5186H11.4923C12.7123 9.5186 13.1223 9.8086 13.1223 11.0886V13.6786C13.1223 14.2686 13.4723 14.6486 14.0323 14.6486C14.5823 14.6486 14.9323 14.2686 14.9323 13.6786V10.6186C14.9323 8.4186 13.9923 7.6386 11.9023 7.6386H8.9523C7.8423 7.6386 7.3023 8.1086 7.3023 9.2186V16.5986C7.3023 17.2486 7.6423 17.6086 8.2523 17.6086Z" />
        </svg>
    