
        <svg xmlns="http://www.w3.org/2000/svg" viewBox="0 0 100 100">
            <path d="M0.3912 9.4064C0.0212 9.4064 -0.1188 9.6764 0.1212 10.0264L2.5512 13.4964C2.7512 13.7964 3.0212 13.7964 3.2212 13.4964L5.6412 10.0264C5.8912 9.6764 5.7512 9.4064 5.3712 9.4064H2.9512C3.8612 4.3864 8.2712 0.5764 13.5612 0.5764C19.5312 0.5764 24.3412 5.3864 24.3412 11.3564C24.3412 17.3164 19.5312 22.1364 13.5612 22.1364C9.5612 22.1364 5.9812 19.9064 4.1912 16.6864C4.1112 16.5464 3.9312 16.4964 3.7912 16.5664C3.6612 16.6364 3.6112 16.8064 3.7012 16.9664C5.5812 20.3564 9.3112 22.7064 13.5612 22.7064C19.8312 22.7064 24.9212 17.6264 24.9212 11.3564C24.9212 5.0764 19.8312 -0.0036 13.5612 -0.0036C7.9512 -0.0036 3.2912 4.0664 2.3712 9.4064ZM12.3012 16.1464H15.5212C17.3212 16.1464 17.9212 15.2664 17.9212 13.4664V6.8064C17.9212 6.6364 17.8212 6.5264 17.6812 6.5264C17.5112 6.5264 17.4112 6.6364 17.4112 6.8064V13.4764C17.4112 15.0364 16.9312 15.5964 15.3712 15.5964H12.4512V9.5064C12.4512 9.3264 12.3612 9.2364 12.1912 9.2364C12.0412 9.2364 11.9512 9.3264 11.9512 9.5064V15.7864C11.9512 16.0064 12.0712 16.1464 12.3012 16.1464ZM9.4712 16.2064C9.6112 16.2064 9.7212 16.1064 9.7212 15.9464V7.1564H12.7512C14.2112 7.1564 14.6812 7.6764 14.6812 9.2464V13.1964C14.6812 13.3664 14.7812 13.4764 14.9512 13.4764C15.0912 13.4764 15.1912 13.3664 15.1912 13.1964V9.1264C15.1912 7.5364 14.6912 6.6064 12.9212 6.6064H9.5712C9.3612 6.6064 9.2012 6.7464 9.2012 6.9764V15.9464C9.2012 16.1064 9.3112 16.2064 9.4712 16.2064Z" />
        </svg>
    