
        <svg xmlns="http://www.w3.org/2000/svg" viewBox="0 0 100 100">
            <path d="M3.9717 22.1117H18.1317C20.7317 22.1117 22.1017 20.7417 22.1017 18.1717V3.9417C22.1017 1.3717 20.7317 0.0017 18.1317 0.0017H3.9717C1.3817 0.0017 0.0017 1.3717 0.0017 3.9417V18.1717C0.0017 20.7417 1.3817 22.1117 3.9717 22.1117ZM9.9617 16.3617C9.3017 16.3617 8.8317 16.0117 8.8317 15.2817V9.6817C8.8317 9.1717 9.1217 8.8617 9.6117 8.8617C10.0917 8.8617 10.3517 9.1717 10.3517 9.6817V14.7317H13.0817C14.5517 14.7317 14.8617 14.3417 14.8617 12.8717V6.5017C14.8617 5.9717 15.1617 5.6617 15.6417 5.6617C16.1217 5.6617 16.4317 5.9717 16.4317 6.5017V13.1017C16.4317 15.2317 15.5817 16.3617 13.4417 16.3617ZM6.5617 16.4417C6.0717 16.4417 5.7817 16.1317 5.7817 15.6117V6.9917C5.7817 6.1617 6.2317 5.7517 7.0617 5.7517H10.3317C12.4317 5.7517 13.3717 6.6917 13.3717 8.8317V12.4617C13.3717 12.9517 13.0817 13.2617 12.6117 13.2617C12.1417 13.2617 11.8517 12.9517 11.8517 12.4617V9.1917C11.8517 7.7017 11.2617 7.3617 9.9217 7.3617H7.3317V15.6117C7.3317 16.1317 7.0517 16.4417 6.5617 16.4417Z" />
        </svg>
    