
        <svg xmlns="http://www.w3.org/2000/svg" viewBox="0 0 100 100">
            <path d="M3.1617 20.742H17.5917C19.6617 20.742 20.7417 19.642 20.7417 17.592V3.152C20.7417 1.102 19.6617 0.002 17.5917 0.002H3.1617C1.0917 0.002 0.0017 1.082 0.0017 3.152V17.592C0.0017 19.662 1.0917 20.742 3.1617 20.742ZM3.1917 19.872C1.6617 19.872 0.8717 19.082 0.8717 17.552V3.202C0.8717 1.662 1.6617 0.872 3.1917 0.872H17.5517C19.0317 0.872 19.8717 1.662 19.8717 3.202V17.552C19.8717 19.082 19.0317 19.872 17.5517 19.872ZM9.1317 15.242H12.4017C14.2517 15.242 14.8617 14.322 14.8617 12.472V5.812C14.8617 5.582 14.7317 5.452 14.5417 5.452C14.3317 5.452 14.2017 5.582 14.2017 5.812V12.472C14.2017 14.002 13.7617 14.532 12.2117 14.532H9.3317V8.592C9.3317 8.372 9.2017 8.242 8.9917 8.242C8.8017 8.242 8.6617 8.372 8.6617 8.592V14.782C8.6617 15.062 8.8517 15.242 9.1317 15.242ZM6.2317 15.312C6.4217 15.312 6.5517 15.192 6.5517 14.972V6.242H9.4917C10.9117 6.242 11.4417 6.722 11.4417 8.282V12.142C11.4417 12.362 11.5617 12.502 11.7617 12.502C11.9617 12.502 12.0917 12.362 12.0917 12.142V8.142C12.0917 6.472 11.5217 5.532 9.7117 5.532H6.3717C6.0817 5.532 5.8917 5.722 5.8917 6.012V14.972C5.8917 15.192 6.0217 15.312 6.2317 15.312Z" />
        </svg>
    