
        <svg xmlns="http://www.w3.org/2000/svg" viewBox="0 0 100 100">
            <path d="M27.0823 13.4978C27.0823 6.4078 21.6123 0.5678 14.6723 0.0078C14.2923 -0.0422 14.0123 0.2378 14.0123 0.6178V4.0278C14.0123 4.3378 14.2423 4.5878 14.5623 4.6178C19.0123 5.1278 22.4623 8.9078 22.4623 13.4978C22.4623 15.5878 21.7523 17.5278 20.5123 19.0578C20.3123 19.3078 20.3123 19.6078 20.5423 19.8378L22.9823 22.2678C23.2523 22.5178 23.6323 22.5178 23.8823 22.2378C25.8723 19.8778 27.0823 16.8178 27.0823 13.4978ZM0.0023 13.4978C0.0023 16.8378 1.2223 19.9078 3.2223 22.2578C3.4523 22.5378 3.8323 22.5178 4.1023 22.2678L6.5423 19.8378C6.7723 19.6078 6.7723 19.3078 6.5723 19.0578C5.3323 17.5278 4.6123 15.5878 4.6123 13.4978C4.6123 8.9078 8.0723 5.1278 12.5123 4.6178C12.8423 4.5878 13.0623 4.3378 13.0623 4.0278V0.6178C13.0623 0.2378 12.7823 -0.0422 12.4123 0.0078C5.4723 0.5678 0.0023 6.4078 0.0023 13.4978ZM12.2923 18.5178H15.5523C17.4123 18.5178 18.0223 17.5978 18.0223 15.7478V9.0878C18.0223 8.8678 17.8923 8.7278 17.6923 8.7278C17.4923 8.7278 17.3523 8.8678 17.3523 9.0878V15.7478C17.3523 17.2878 16.9123 17.8078 15.3623 17.8078H12.4823V11.8778C12.4823 11.6578 12.3523 11.5278 12.1523 11.5278C11.9523 11.5278 11.8223 11.6578 11.8223 11.8778V18.0478C11.8223 18.3478 12.0123 18.5178 12.2923 18.5178ZM9.4023 18.5878C9.5823 18.5878 9.7123 18.4578 9.7123 18.2478V9.5278H12.6423C14.0723 9.5278 14.5923 9.9978 14.5923 11.5578V15.4278C14.5923 15.6478 14.7223 15.7778 14.9323 15.7778C15.1323 15.7778 15.2623 15.6478 15.2623 15.4278V11.4178C15.2623 9.7578 14.6723 8.8078 12.8623 8.8078H9.5423C9.2423 8.8078 9.0623 8.9978 9.0623 9.2978V18.2478C9.0623 18.4578 9.1923 18.5878 9.4023 18.5878Z" />
        </svg>
    