
        <svg xmlns="http://www.w3.org/2000/svg" viewBox="0 0 100 100">
            <path d="M0.0017 13.793C0.0017 17.823 2.1917 19.223 8.7317 23.053C8.9917 23.203 9.2917 23.293 9.5017 23.293C9.7217 23.293 10.0217 23.203 10.2917 23.053C16.8517 19.253 19.0117 17.823 19.0117 13.793V4.883C19.0117 3.633 18.5517 3.223 17.4717 2.793C15.8117 2.123 12.1017 0.753 10.4417 0.173C10.1217 0.073 9.8217 0.003 9.5017 0.003C9.1917 0.003 8.8817 0.083 8.5817 0.173C6.9117 0.713 3.2017 2.133 1.5317 2.793C0.4617 3.213 0.0017 3.633 0.0017 4.883ZM9.6517 21.673V1.463C9.7617 1.473 9.9017 1.523 10.0617 1.583C11.6217 2.193 15.4417 3.613 17.0317 4.183C17.4717 4.343 17.5817 4.573 17.5817 5.153V13.513C17.5817 17.073 15.6117 18.023 10.1817 21.423C10.0217 21.543 9.8317 21.643 9.6517 21.673Z" />
        </svg>
    