
        <svg xmlns="http://www.w3.org/2000/svg" viewBox="0 0 100 100">
            <path d="M9.5817 23.3019C9.7717 23.3019 10.0617 23.2219 10.3617 23.0719C17.0317 19.5819 19.1717 17.8319 19.1717 13.6319V4.7919C19.1717 3.5819 18.6517 3.2019 17.6717 2.7919C16.3017 2.2219 11.9217 0.6319 10.5617 0.1619C10.2417 0.0619 9.9117 0.0019 9.5817 0.0019C9.2617 0.0019 8.9317 0.0719 8.6217 0.1619C7.2517 0.6119 2.8717 2.2419 1.5017 2.7919C0.5317 3.1919 0.0017 3.5819 0.0017 4.7919V13.6319C0.0017 17.8319 2.2617 19.3819 8.8117 23.0719C9.1217 23.2419 9.4017 23.3019 9.5817 23.3019Z" />
        </svg>
    