
        <svg xmlns="http://www.w3.org/2000/svg" viewBox="0 0 100 100">
            <path d="M22.0637 18.2081C22.7037 17.1281 22.9837 15.9481 22.9837 14.5181V6.1381C22.9837 4.0281 22.4037 3.0681 20.4737 2.2381C19.5437 1.8381 15.4837 0.5781 14.6937 0.3381C13.9737 0.1281 13.0637 -0.0019 12.3737 -0.0019C11.6737 -0.0019 10.7637 0.1381 10.0537 0.3381C9.4737 0.4881 7.1637 1.2181 5.5837 1.7581L12.3737 8.5381V3.6581C12.7137 3.6581 13.0137 3.7381 13.6337 3.9181C14.2937 4.1381 17.2537 5.0981 18.7837 5.7181C19.1237 5.8581 19.2437 6.0781 19.2437 6.5581V14.0581C19.2437 14.5081 19.2137 14.9081 19.1037 15.2681ZM22.0637 23.7181C22.4837 24.1281 23.1737 24.1381 23.5737 23.7181C23.9837 23.2981 23.9937 22.6281 23.5737 22.2081L1.8337 0.4781C1.4137 0.0581 0.7237 0.0581 0.3037 0.4781C-0.0963 0.8781 -0.0963 1.5781 0.3037 1.9881ZM1.7537 5.9181V14.5181C1.7537 18.7881 4.3137 20.9281 11.3837 24.3381C11.7037 24.4881 12.0737 24.6181 12.3737 24.6181C12.6637 24.6181 13.0337 24.4881 13.3537 24.3381C15.1037 23.4881 16.5837 22.7181 17.8037 21.9681L14.9837 19.1481C14.3337 19.5281 13.6337 19.9481 12.8137 20.3981C12.5237 20.5781 12.4537 20.6181 12.3737 20.6181V16.5381Z" />
        </svg>
    