
        <svg xmlns="http://www.w3.org/2000/svg" viewBox="0 0 100 100">
            <path d="M0.0017 14.058C0.0017 18.328 2.3917 20.078 9.1617 23.718C9.4817 23.878 9.8017 23.968 10.0217 23.968C10.2417 23.968 10.5617 23.878 10.8617 23.718C17.6617 20.088 20.0417 18.328 20.0417 14.058V5.278C20.0417 3.758 19.4917 3.198 18.2017 2.648C16.9617 2.118 12.6217 0.618 11.4217 0.218C10.9817 0.098 10.4617 -0.002 10.0217 -0.002C9.5717 -0.002 9.0617 0.108 8.6117 0.218C7.4217 0.558 3.0817 2.128 1.8417 2.648C0.5517 3.188 0.0017 3.758 0.0017 5.278ZM2.4617 13.618V11.708H10.0217V2.448C10.2217 2.448 10.4217 2.498 10.7317 2.598C12.1517 3.148 15.4317 4.298 17.1517 4.918C17.4817 5.048 17.5817 5.238 17.5817 5.658V11.708H10.0217V21.248C9.8717 21.248 9.7117 21.198 9.3717 20.988C4.0617 17.728 2.4617 16.918 2.4617 13.618Z" />
        </svg>
    