
        <svg xmlns="http://www.w3.org/2000/svg" viewBox="0 0 100 100">
            <path d="M20.8217 14.3675V5.8475C20.8217 3.9375 20.2517 3.1075 18.5417 2.3775C17.5117 1.9475 13.3517 0.5575 12.4117 0.3075C11.8017 0.1275 11.0117 -0.0025 10.4017 -0.0025C9.8117 -0.0025 9.0217 0.1175 8.4017 0.3075C7.4717 0.5975 3.3117 1.9375 2.2717 2.3775C0.5717 3.1175 0.0017 3.9375 0.0017 5.8475V14.3675C0.0017 18.6375 2.5117 20.6375 9.4717 24.1275C9.7817 24.2775 10.1517 24.3975 10.4017 24.3975C10.6717 24.3975 11.0417 24.2775 11.3417 24.1275C18.3117 20.6375 20.8217 18.6375 20.8217 14.3675ZM10.3517 20.8175C10.2417 20.7975 10.1517 20.7675 9.8917 20.6175C4.9817 17.7175 3.2917 16.8675 3.2917 13.9075V6.2575C3.2917 5.7875 3.4117 5.5775 3.7517 5.4475C5.3417 4.8275 8.4117 3.7975 9.3317 3.4675C9.8217 3.3175 10.0617 3.2475 10.3517 3.2475Z" />
        </svg>
    