
        <svg xmlns="http://www.w3.org/2000/svg" viewBox="0 0 100 100">
            <path d="M11.9194 20.4574L21.2394 25.5974C21.8694 25.9474 22.5494 25.9474 23.1894 25.5974L32.4994 20.4574C33.6694 19.8074 34.2194 19.1174 34.2194 17.4774V7.8574C34.2194 6.5874 33.7494 5.7674 32.6594 5.1774L24.4694 0.6174C22.9894 -0.2026 21.4294 -0.2026 19.9594 0.6174L11.7694 5.1774C10.6794 5.7674 10.1994 6.5874 10.1994 7.8574V11.3974H12.5194V8.8574L20.9994 13.5974V22.7474L14.0294 18.8274C13.5794 18.5774 13.3694 18.3174 13.2994 17.9374L13.2794 17.5574H10.2294V17.9274C10.2994 19.2974 10.8894 19.8774 11.9194 20.4574ZM27.6894 8.4274L19.2994 3.7674L20.9994 2.8174C21.8194 2.3474 22.5894 2.3374 23.4294 2.8174L30.5894 6.8174ZM22.2094 11.4674L13.8294 6.8174L16.8394 5.1174L25.2294 9.7774ZM31.0794 18.4674L23.4094 22.7474V13.5974L31.9094 8.8574V17.1574C31.9094 17.7574 31.6894 18.1274 31.0794 18.4674ZM15.5894 14.4774C15.5894 13.8074 15.0494 13.2674 14.4094 13.2674H4.8094L3.0694 13.3774L3.8694 12.7774L5.5394 11.2074C5.7694 11.0074 5.8794 10.7074 5.8794 10.4074C5.8794 9.8374 5.4594 9.3574 4.8594 9.3574C4.5594 9.3574 4.3394 9.4874 4.1094 9.6974L0.4194 13.5374C0.1094 13.8574 -0.0006 14.1474 -0.0006 14.4774C-0.0006 14.7974 0.1094 15.0874 0.4194 15.4074L4.1094 19.2474C4.3394 19.4574 4.5594 19.5774 4.8594 19.5774C5.4594 19.5774 5.8794 19.0974 5.8794 18.5174C5.8794 18.2274 5.7694 17.9374 5.5394 17.7274L3.8694 16.1574L3.0794 15.5674L4.8094 15.6774H14.4094C15.0494 15.6774 15.5894 15.1374 15.5894 14.4774Z" />
        </svg>
    