
        <svg xmlns="http://www.w3.org/2000/svg" viewBox="0 0 100 100">
            <path d="M17.0117 0.818C14.7817 -0.482 12.7017 -0.312 10.9917 1.918C9.6417 3.638 8.2617 4.378 6.8317 4.378C5.5617 4.378 4.7017 4.178 3.7617 3.748C1.9617 2.958 0.0017 3.768 0.0017 5.918V11.168C0.0017 15.098 2.3717 16.178 4.6317 16.178H23.2717C27.0317 16.178 29.2117 15.608 32.1517 13.978C34.4717 12.678 35.5517 11.068 35.5517 9.218C35.5517 6.548 33.6917 4.718 30.9517 4.718C29.6717 4.718 26.8017 5.178 25.7217 5.178C24.6417 5.178 24.4117 5.128 23.3017 4.498ZM1.9017 11.418C1.8917 11.338 1.8917 11.258 1.8917 11.168V5.898C1.8917 5.348 2.3517 5.178 2.7917 5.388C3.9417 5.888 5.1817 6.268 6.8317 6.268C8.8117 6.268 10.8417 5.188 12.4817 3.068C13.6417 1.578 14.4117 1.508 16.0517 2.458L16.5917 2.768L15.0217 4.918C14.8117 5.198 14.8317 5.618 15.1217 5.828C15.3917 6.058 15.8217 6.028 16.0317 5.748L17.7317 3.428L19.1517 4.248L17.7117 6.228C17.4717 6.548 17.5117 6.918 17.7917 7.128C18.1017 7.388 18.4917 7.368 18.7217 7.048L20.2817 4.908L21.7017 5.728L20.3817 7.538C20.1417 7.848 20.1717 8.238 20.4517 8.448C20.7417 8.698 21.1417 8.668 21.3717 8.358L22.8317 6.368C23.9417 6.968 24.5717 7.058 25.7217 7.058C26.9317 7.058 29.8117 6.608 30.9417 6.608C31.8717 6.608 32.8817 6.898 32.8817 7.758C32.8817 8.238 32.3917 8.878 31.1017 9.558L29.0117 10.638C27.3917 11.508 26.1117 11.828 23.2717 11.828H3.8717C2.8217 11.828 2.2517 11.718 1.9017 11.418ZM2.1117 12.838C2.6017 13.058 3.1317 13.148 3.8717 13.148H23.2717C26.2217 13.148 27.7817 12.748 29.6417 11.768L31.7217 10.718C32.9717 10.048 33.4217 9.578 33.5817 8.768C33.6217 8.968 33.6317 9.198 33.6317 9.418C33.5717 10.568 32.8517 11.448 31.2417 12.338C28.5717 13.828 26.7917 14.288 23.2717 14.288H4.6217C3.3717 14.288 2.4817 13.998 2.1117 12.838Z" />
        </svg>
    