
        <svg xmlns="http://www.w3.org/2000/svg" viewBox="0 0 100 100">
            <path d="M11.9523 23.9041C18.5523 23.9041 23.9023 18.5341 23.9023 11.9541C23.9023 5.3541 18.5523 0.0041 11.9523 0.0041C5.3623 0.0041 0.0023 5.3541 0.0023 11.9541C0.0023 18.5341 5.3623 23.9041 11.9523 23.9041ZM4.7323 14.2341C4.0223 14.2341 3.6423 14.1341 3.2723 13.7141C3.2723 13.6841 3.2823 13.6441 3.2823 13.6041L3.2723 10.8241C3.2723 9.8641 4.0823 9.3541 5.1023 9.9041C5.5523 10.1441 5.9623 10.3141 6.6023 10.3141C7.3023 10.3141 7.9723 9.9641 8.7923 8.9041C9.4523 8.0341 10.3523 7.8841 11.3123 8.4541L11.8223 8.7341L10.8023 10.1341C10.7123 10.2641 10.7223 10.5141 10.8723 10.6141C11.0123 10.7341 11.2523 10.7241 11.3623 10.5741L12.4323 9.0841L13.1023 9.4941L12.1523 10.7941C12.0123 10.9541 12.0623 11.1641 12.2123 11.2841C12.3723 11.4141 12.5823 11.4041 12.7023 11.2241L13.7123 9.8341L14.3923 10.2341L13.5023 11.4541C13.3823 11.6241 13.4023 11.8141 13.5423 11.9441C13.7123 12.0741 13.9223 12.0441 14.0523 11.8841L15.0123 10.5741C15.2823 10.7041 15.4423 10.7141 15.7923 10.7041C16.3323 10.7041 17.7323 10.4741 18.3523 10.4741C19.1323 10.4841 19.7023 10.8241 20.0123 11.2041C20.4523 11.6741 20.1823 12.2741 19.2423 12.7741L17.5623 13.6441C16.7423 14.0641 16.1223 14.2241 14.6923 14.2241ZM5.5223 16.0441C4.6323 16.0441 3.7023 15.6941 3.3723 14.5441C3.8123 14.8641 4.2223 14.9341 4.7423 14.9341H14.6923C16.1723 14.9341 16.9423 14.7541 17.8823 14.2641L19.5623 13.3941C20.2023 13.0541 20.4623 12.7741 20.5623 12.3541C20.5823 12.4341 20.5923 12.5541 20.5823 12.6641C20.5923 13.5741 20.0723 14.3541 18.9223 14.9741C17.4923 15.7741 16.4423 16.0441 14.6123 16.0441Z" />
        </svg>
    