
        <svg xmlns="http://www.w3.org/2000/svg" viewBox="0 0 100 100">
            <path d="M11.3523 22.7064C17.6323 22.7064 22.7123 17.6264 22.7123 11.3564C22.7123 5.0764 17.6323 -0.0036 11.3523 -0.0036C5.0823 -0.0036 0.0023 5.0764 0.0023 11.3564C0.0023 17.6264 5.0823 22.7064 11.3523 22.7064ZM11.3523 22.1364C5.3923 22.1364 0.5723 17.3164 0.5723 11.3564C0.5723 5.3864 5.3923 0.5764 11.3523 0.5764C17.3223 0.5764 22.1323 5.3864 22.1323 11.3564C22.1323 17.3164 17.3223 22.1364 11.3523 22.1364ZM3.4823 13.6664H14.6323C15.8423 13.6664 16.4523 13.5664 17.0723 13.2864L19.1823 12.3264C19.8823 12.0264 20.2023 11.6364 20.1923 11.3664C20.1723 10.9464 19.5623 10.0664 18.2123 10.0564C17.5923 10.0564 16.0923 10.2864 15.4823 10.2864C14.9523 10.3164 14.7523 10.2764 14.2823 10.0164L13.2823 11.4264C13.1823 11.5664 12.9923 11.5864 12.8523 11.5064C12.7223 11.4064 12.6923 11.2364 12.7823 11.1064L13.7623 9.7264L12.9623 9.2564L11.8923 10.7964C11.8023 10.9264 11.6123 10.9564 11.4823 10.8664C11.3423 10.7564 11.3123 10.5864 11.3923 10.4364L12.4523 8.9664L11.6523 8.4964L10.4923 10.1164C10.4023 10.2564 10.2023 10.2764 10.0823 10.1864C9.9423 10.1064 9.9123 9.9264 9.9923 9.7864L11.1423 8.1764L10.7823 7.9964C9.7423 7.4164 8.8723 7.4664 8.0723 8.4764C7.3223 9.4464 6.4923 9.8764 5.6323 9.8864C4.8823 9.8764 4.3923 9.6764 3.8623 9.3964C3.2423 9.0564 2.4223 9.4064 2.4223 10.2164L2.4423 13.3464C2.4423 13.3864 2.4123 13.4964 2.4223 13.5464C2.7023 13.6764 3.0123 13.6664 3.4823 13.6664ZM4.2923 15.3664H14.6723C16.1923 15.3664 17.1923 15.0964 18.6823 14.2464C19.8323 13.6064 20.2823 12.9364 20.2723 12.0664C20.2823 12.0464 20.2723 12.0364 20.2723 11.9964C20.1123 12.2764 19.8323 12.6364 19.4023 12.8164L17.2623 13.8164C16.5023 14.1564 15.8523 14.2464 14.6723 14.2464H3.5123C3.0323 14.2464 2.8023 14.2264 2.4723 14.0764C2.6723 14.9264 3.2623 15.3664 4.2923 15.3664Z" />
        </svg>
    