
        <svg xmlns="http://www.w3.org/2000/svg" viewBox="0 0 100 100">
            <path d="M12.7923 25.5978C19.8723 25.5978 25.6023 19.8678 25.6023 12.7978C25.6023 5.7278 19.8723 -0.0022 12.7923 -0.0022C5.7323 -0.0022 0.0023 5.7278 0.0023 12.7978C0.0023 19.8678 5.7323 25.5978 12.7923 25.5978ZM12.7923 21.4178C8.0323 21.4178 4.1723 17.5678 4.1723 12.7978C4.1723 8.0278 8.0323 4.1678 12.7923 4.1678C17.5623 4.1678 21.4323 8.0278 21.4323 12.7978C21.4323 17.5678 17.5623 21.4178 12.7923 21.4178ZM7.3223 14.6178H14.9223C16.1023 14.6178 16.6423 14.4478 17.3223 14.0778L18.9723 13.1978C19.4323 12.9478 19.6423 12.4578 19.3723 12.0978C19.0123 11.6378 18.4223 11.3478 17.6823 11.3478C17.1823 11.3478 16.1123 11.5078 15.7523 11.5278C15.4823 11.5278 15.4423 11.5278 15.2323 11.4178L14.2023 12.7778C14.0723 12.9478 13.8623 12.9478 13.7023 12.8178C13.5423 12.7078 13.5323 12.4778 13.6523 12.3178L14.6023 11.0378L14.2823 10.8478L13.2823 12.2478C13.1623 12.4078 12.9223 12.4178 12.7423 12.2778C12.6023 12.1678 12.5723 11.9278 12.7023 11.7678L13.6523 10.4878L13.3323 10.3078L12.3323 11.6978C12.2023 11.8578 11.9523 11.8678 11.7923 11.7578C11.6523 11.6278 11.6323 11.3878 11.7523 11.2278L12.7023 9.9478L12.6423 9.8978C11.8523 9.1478 10.7123 9.4778 9.9723 10.4578C9.5023 11.0378 9.1623 11.2278 8.7423 11.2278C8.3523 11.2278 8.1423 11.1178 7.8323 10.9578C6.8623 10.4578 5.7923 10.9878 5.7923 12.1178V13.8478C5.7923 13.9078 5.7823 13.9678 5.7823 14.0178C6.0923 14.3578 6.6123 14.6178 7.3223 14.6178ZM7.9723 16.4578H14.7523C16.3123 16.4578 17.2023 16.2278 18.3423 15.5878C19.3223 15.0378 19.8323 14.2978 19.8423 13.4378C19.8423 13.4078 19.8423 13.3478 19.8423 13.3078C19.7023 13.5478 19.4623 13.7578 19.0823 13.9678L17.6023 14.7778C16.8023 15.1978 16.1623 15.3678 14.9223 15.3678L7.3223 15.3478C6.7523 15.3478 6.4823 15.3178 5.8723 14.9578C6.2023 16.1278 7.1823 16.4578 7.9723 16.4578Z" />
        </svg>
    