
        <svg xmlns="http://www.w3.org/2000/svg" viewBox="0 0 100 100">
            <path d="M0.0017 14.8928C0.0017 15.4428 0.4417 15.8928 0.9917 15.8928H14.9417C15.4817 15.8928 15.9417 15.4428 15.9417 14.8928C15.9417 14.4028 15.5617 13.9828 15.1017 13.9328L15.0517 13.9228C14.8717 11.3528 13.3017 9.1628 11.0717 8.0828V7.2928C11.0717 5.9028 10.2917 4.8028 9.0917 4.3828V3.4828C9.0917 2.6928 9.5517 2.2528 10.4017 2.2528H13.8017C16.3117 2.2528 17.8717 3.9328 17.8717 6.6428V25.1928C17.8717 25.8528 18.3417 26.3428 18.9917 26.3428C19.6517 26.3428 20.1217 25.8428 20.1217 25.1928V6.6428C20.1217 2.6028 17.6617 0.0028 13.8017 0.0028H10.4017C8.2117 0.0028 6.8417 1.3428 6.8417 3.4828V4.3828C5.6417 4.8028 4.8617 5.9028 4.8617 7.2928V8.0828C2.6417 9.1628 1.0617 11.3528 0.8917 13.9228L0.8317 13.9328C0.3617 13.9828 0.0017 14.4028 0.0017 14.8928ZM3.9517 19.2928C4.4717 19.2928 4.9117 18.8528 4.9117 18.3328C4.9117 17.7928 4.4717 17.3628 3.9517 17.3628C3.4117 17.3628 2.9717 17.7928 2.9717 18.3328C2.9717 18.8528 3.4117 19.2928 3.9517 19.2928ZM7.9617 19.2928C8.4817 19.2928 8.9217 18.8528 8.9217 18.3328C8.9217 17.7928 8.4817 17.3628 7.9617 17.3628C7.4317 17.3628 6.9917 17.7928 6.9917 18.3328C6.9917 18.8528 7.4317 19.2928 7.9617 19.2928ZM11.9617 19.2928C12.4917 19.2928 12.9217 18.8528 12.9217 18.3328C12.9217 17.7928 12.4917 17.3628 11.9617 17.3628C11.4417 17.3628 11.0017 17.7928 11.0017 18.3328C11.0017 18.8528 11.4417 19.2928 11.9617 19.2928ZM3.9517 22.9028C4.4717 22.9028 4.9117 22.4628 4.9117 21.9328C4.9117 21.4128 4.4717 20.9728 3.9517 20.9728C3.4117 20.9728 2.9717 21.4128 2.9717 21.9328C2.9717 22.4628 3.4117 22.9028 3.9517 22.9028ZM7.9617 22.9028C8.4817 22.9028 8.9217 22.4628 8.9217 21.9328C8.9217 21.4128 8.4817 20.9728 7.9617 20.9728C7.4317 20.9728 6.9917 21.4128 6.9917 21.9328C6.9917 22.4628 7.4317 22.9028 7.9617 22.9028ZM11.9617 22.9028C12.4917 22.9028 12.9217 22.4628 12.9217 21.9328C12.9217 21.4128 12.4917 20.9728 11.9617 20.9728C11.4417 20.9728 11.0017 21.4128 11.0017 21.9328C11.0017 22.4628 11.4417 22.9028 11.9617 22.9028ZM3.9517 26.5128C4.4717 26.5128 4.9117 26.0728 4.9117 25.5428C4.9117 25.0228 4.4717 24.5828 3.9517 24.5828C3.4117 24.5828 2.9717 25.0228 2.9717 25.5428C2.9717 26.0728 3.4117 26.5128 3.9517 26.5128ZM7.9617 26.5128C8.4817 26.5128 8.9217 26.0728 8.9217 25.5428C8.9217 25.0228 8.4817 24.5828 7.9617 24.5828C7.4317 24.5828 6.9917 25.0228 6.9917 25.5428C6.9917 26.0728 7.4317 26.5128 7.9617 26.5128ZM11.9617 26.5128C12.4917 26.5128 12.9217 26.0728 12.9217 25.5428C12.9217 25.0228 12.4917 24.5828 11.9617 24.5828C11.4417 24.5828 11.0017 25.0228 11.0017 25.5428C11.0017 26.0728 11.4417 26.5128 11.9617 26.5128Z" />
        </svg>
    