
        <svg xmlns="http://www.w3.org/2000/svg" viewBox="0 0 100 100">
            <path d="M27.0717 1.9288C27.6017 1.9288 28.0317 1.4987 28.0317 0.9688C28.0317 0.4288 27.6017 -0.0012 27.0717 -0.0012C26.5417 -0.0012 26.1117 0.4288 26.1117 0.9688C26.1117 1.4987 26.5417 1.9288 27.0717 1.9288ZM2.4217 13.7888C4.1417 13.7888 5.2017 12.8088 5.4417 11.0788H6.7117C6.8117 14.1588 8.8117 16.0788 11.9517 16.0788H13.5917C14.7617 16.0788 15.5317 15.3288 15.5317 14.1488V2.8788C15.5317 1.7088 14.7617 0.9488 13.5917 0.9488H11.9517C8.8617 0.9488 6.8717 2.8287 6.7117 5.8287H5.4117C5.1517 4.1687 4.1017 3.2487 2.4217 3.2487H1.3117C0.4917 3.2487 0.0017 3.7288 0.0017 4.5588V12.4788C0.0017 13.2988 0.4917 13.7888 1.3117 13.7888ZM24.0817 3.5388C24.6117 3.5388 25.0417 3.1188 25.0417 2.5787C25.0417 2.0488 24.6117 1.6188 24.0817 1.6188C23.5517 1.6188 23.1217 2.0488 23.1217 2.5787C23.1217 3.1188 23.5517 3.5388 24.0817 3.5388ZM16.6417 13.8188C17.8817 13.6488 18.6517 12.6588 18.6517 11.1588V5.8788C18.6517 4.3688 17.8817 3.3788 16.6417 3.2088ZM21.0817 5.1687C21.6217 5.1687 22.0417 4.7387 22.0417 4.2088C22.0417 3.6788 21.6217 3.2487 21.0817 3.2487C20.5517 3.2487 20.1217 3.6788 20.1217 4.2088C20.1217 4.7387 20.5517 5.1687 21.0817 5.1687ZM21.0717 9.4688C21.6117 9.4688 22.0317 9.0388 22.0317 8.5087C22.0317 7.9688 21.6117 7.5388 21.0717 7.5388C20.5417 7.5388 20.1117 7.9688 20.1117 8.5087C20.1117 9.0388 20.5417 9.4688 21.0717 9.4688ZM24.6917 9.4688C25.2217 9.4688 25.6517 9.0388 25.6517 8.5087C25.6517 7.9688 25.2217 7.5388 24.6917 7.5388C24.1517 7.5388 23.7317 7.9688 23.7317 8.5087C23.7317 9.0388 24.1517 9.4688 24.6917 9.4688ZM28.3017 9.4688C28.8317 9.4688 29.2617 9.0388 29.2617 8.5087C29.2617 7.9688 28.8317 7.5388 28.3017 7.5388C27.7717 7.5388 27.3417 7.9688 27.3417 8.5087C27.3417 9.0388 27.7717 9.4688 28.3017 9.4688ZM21.0917 13.7588C21.6217 13.7588 22.0517 13.3388 22.0517 12.7988C22.0517 12.2688 21.6217 11.8388 21.0917 11.8388C20.5617 11.8388 20.1317 12.2688 20.1317 12.7988C20.1317 13.3388 20.5617 13.7588 21.0917 13.7588ZM24.0917 15.3888C24.6217 15.3888 25.0517 14.9488 25.0517 14.4288C25.0517 13.8988 24.6217 13.4688 24.0917 13.4688C23.5517 13.4688 23.1317 13.8988 23.1317 14.4288C23.1317 14.9488 23.5517 15.3888 24.0917 15.3888ZM27.0817 17.0088C27.6117 17.0088 28.0417 16.5688 28.0417 16.0388C28.0417 15.5088 27.6117 15.0688 27.0817 15.0688C26.5517 15.0688 26.1217 15.5088 26.1217 16.0388C26.1217 16.5688 26.5517 17.0088 27.0817 17.0088Z" />
        </svg>
    