
        <svg xmlns="http://www.w3.org/2000/svg" viewBox="0 0 100 100">
            <path d="M15.1217 0.3128L15.0617 0.4628C12.8117 -0.2772 10.4617 0.3228 8.8817 1.8728L8.5317 1.7428C7.4217 1.3028 6.2317 1.9028 5.7917 3.1328L1.0417 16.1528C0.7617 16.9428 1.0317 17.7128 1.7117 18.1228L0.0017 22.8128L0.7017 23.0628L2.4017 18.3828C3.1917 18.4928 3.8917 18.0728 4.1717 17.3028L7.5017 8.1628C8.0617 9.7428 9.2717 11.0928 10.9617 11.7628L10.9117 11.8828C10.8117 12.1328 10.9417 12.4128 11.1917 12.5128C11.4417 12.6028 11.7217 12.4628 11.8017 12.2228L16.0217 0.6528C16.1117 0.3928 15.9717 0.1228 15.7417 0.0328C15.4917 -0.0672 15.2017 0.0828 15.1217 0.3128ZM2.3217 17.4928C1.8417 17.3228 1.6017 16.8828 1.7817 16.4128L6.5317 3.3728C6.8017 2.5928 7.6317 2.1928 8.4017 2.4728L9.1217 2.7428C10.4717 1.1328 12.6317 0.5128 14.7917 1.2028L11.2217 11.0128C9.3117 10.2328 8.1217 8.6428 7.9117 6.7428L7.4617 6.5828C7.3617 6.5428 7.2417 6.6128 7.2117 6.7228L3.4417 17.0128C3.2717 17.4728 2.8017 17.6728 2.3217 17.4928ZM23.5417 2.9528C23.9017 2.9528 24.2017 2.6628 24.2017 2.3128C24.2017 1.9528 23.9017 1.6728 23.5417 1.6728C23.1917 1.6728 22.9017 1.9528 22.9017 2.3128C22.9017 2.6628 23.1917 2.9528 23.5417 2.9528ZM20.4117 3.4828C20.7617 3.4828 21.0617 3.1928 21.0617 2.8428C21.0617 2.4728 20.7617 2.1828 20.4117 2.1828C20.0517 2.1828 19.7717 2.4728 19.7717 2.8428C19.7717 3.1928 20.0517 3.4828 20.4117 3.4828ZM17.2717 4.0028C17.6217 4.0028 17.9217 3.7028 17.9217 3.3528C17.9217 2.9928 17.6217 2.7028 17.2717 2.7028C16.9117 2.7028 16.6317 2.9928 16.6317 3.3528C16.6317 3.7028 16.9117 4.0028 17.2717 4.0028ZM15.9417 7.6728C16.2917 7.6728 16.5817 7.3728 16.5817 7.0128C16.5817 6.6628 16.2917 6.3728 15.9417 6.3728C15.5817 6.3728 15.2917 6.6628 15.2917 7.0128C15.2917 7.3728 15.5817 7.6728 15.9417 7.6728ZM18.9917 8.7728C19.3517 8.7728 19.6417 8.4728 19.6417 8.1128C19.6417 7.7628 19.3517 7.4728 18.9917 7.4728C18.6317 7.4728 18.3517 7.7628 18.3517 8.1128C18.3517 8.4728 18.6317 8.7728 18.9917 8.7728ZM22.0317 9.8828C22.3917 9.8828 22.6917 9.5928 22.6917 9.2428C22.6917 8.8728 22.3917 8.5828 22.0317 8.5828C21.6817 8.5828 21.3917 8.8728 21.3917 9.2428C21.3917 9.5928 21.6817 9.8828 22.0317 9.8828ZM14.6217 11.3228C14.9717 11.3228 15.2717 11.0328 15.2717 10.6828C15.2717 10.3128 14.9717 10.0228 14.6217 10.0228C14.2717 10.0228 13.9817 10.3128 13.9817 10.6828C13.9817 11.0328 14.2717 11.3228 14.6217 11.3228ZM16.6917 13.7428C17.0417 13.7428 17.3317 13.4428 17.3317 13.0928C17.3317 12.7328 17.0417 12.4428 16.6917 12.4428C16.3217 12.4428 16.0317 12.7328 16.0317 13.0928C16.0317 13.4428 16.3217 13.7428 16.6917 13.7428ZM18.7517 16.1528C19.1017 16.1528 19.3917 15.8628 19.3917 15.4928C19.3917 15.1428 19.1017 14.8528 18.7517 14.8528C18.3917 14.8528 18.0917 15.1428 18.0917 15.4928C18.0917 15.8628 18.3917 16.1528 18.7517 16.1528Z" />
        </svg>
    