
        <svg xmlns="http://www.w3.org/2000/svg" viewBox="0 0 100 100">
            <path d="M12.6023 25.1986C19.5623 25.1986 25.2023 19.5586 25.2023 12.5986C25.2023 5.6386 19.5623 -0.0014 12.6023 -0.0014C5.6523 -0.0014 0.0023 5.6386 0.0023 12.5986C0.0023 19.5586 5.6523 25.1986 12.6023 25.1986ZM4.9123 15.8286C4.9123 15.3186 5.3223 14.9186 5.8823 14.9186H7.3523C7.8723 14.9186 8.1923 14.7386 8.6523 14.2186L10.0323 12.5986L8.6523 10.9786C8.1923 10.4386 7.8623 10.2786 7.3523 10.2786H5.8823C5.3223 10.2786 4.9123 9.8686 4.9123 9.3586C4.9123 8.8386 5.3123 8.4486 5.8823 8.4486H7.3123C8.4523 8.4486 9.1723 8.7886 10.0123 9.7386L11.2523 11.1686L12.4723 9.7386C13.3223 8.7886 14.0423 8.4486 15.1923 8.4486H16.2023V7.2986C16.2023 6.8486 16.5223 6.5486 16.9823 6.5486C17.2023 6.5486 17.3923 6.6086 17.5323 6.7286L19.9323 8.7386C20.2723 9.0586 20.2623 9.5886 19.9023 9.8886L17.5623 11.8486C17.4423 11.9886 17.2123 12.0786 16.9823 12.0786C16.5323 12.0786 16.2023 11.7686 16.2023 11.2986V10.2786H15.2423C14.6623 10.2786 14.3223 10.4386 13.8723 10.9786L12.4723 12.5986L13.8723 14.2186C14.3123 14.7386 14.6623 14.9186 15.2423 14.9186H16.2023V13.9486C16.2023 13.4786 16.5323 13.1486 16.9823 13.1486C17.2123 13.1486 17.4423 13.2386 17.5623 13.3986L19.9223 15.3786C20.2923 15.6786 20.2723 16.1986 19.9023 16.5086L17.5323 18.5086C17.3923 18.6286 17.2023 18.6886 16.9823 18.6886C16.5223 18.6886 16.2023 18.3886 16.2023 17.9286V16.7386H15.1923C14.0423 16.7386 13.3223 16.3986 12.4723 15.4586L11.2523 14.0286L10.0123 15.4586C9.1723 16.3986 8.4523 16.7386 7.3123 16.7386H5.8823C5.3123 16.7386 4.9123 16.3586 4.9123 15.8286Z" />
        </svg>
    