
        <svg xmlns="http://www.w3.org/2000/svg" viewBox="0 0 100 100">
            <path d="M3.9717 22.1H23.8817C26.4717 22.1 27.8517 20.74 27.8517 18.18V3.94C27.8517 1.37 26.4717 0 23.8817 0H3.9717C1.3817 0 0.0017 1.37 0.0017 3.94V18.18C0.0017 20.74 1.3817 22.1 3.9717 22.1ZM4.1917 19.5C3.1617 19.5 2.6117 18.97 2.6117 17.89V4.21C2.6117 3.13 3.1617 2.61 4.1917 2.61H15.8017V19.5ZM23.6617 2.61C24.6817 2.61 25.2417 3.13 25.2417 4.21V17.89C25.2417 18.97 24.6817 19.5 23.6617 19.5H18.2417V2.61ZM22.7417 7.97C23.1417 7.97 23.3817 7.75 23.3817 7.36V5.38C23.3817 4.98 23.1417 4.75 22.7417 4.75H20.7317C20.3417 4.75 20.1117 4.98 20.1117 5.38V7.36C20.1117 7.75 20.3517 7.97 20.7317 7.97ZM22.7417 12.66C23.1417 12.66 23.3817 12.42 23.3817 12.05V10.05C23.3817 9.67 23.1417 9.43 22.7417 9.43H20.7317C20.3417 9.43 20.1117 9.67 20.1117 10.05V12.05C20.1117 12.42 20.3517 12.66 20.7317 12.66ZM22.7417 17.33C23.1417 17.33 23.3817 17.1 23.3817 16.72V14.74C23.3817 14.36 23.1417 14.11 22.7417 14.11H20.7317C20.3417 14.11 20.1117 14.36 20.1117 14.74V16.72C20.1117 17.1 20.3517 17.33 20.7317 17.33Z" />
        </svg>
    