
        <svg xmlns="http://www.w3.org/2000/svg" viewBox="0 0 100 100">
            <path d="M3.1617 20.7386H24.0317C26.1117 20.7386 27.1917 19.6386 27.1917 17.5986V3.1486C27.1917 1.1086 26.1117 -0.0014 24.0317 -0.0014H3.1617C1.0917 -0.0014 0.0017 1.0786 0.0017 3.1486V17.5986C0.0017 19.6686 1.0917 20.7386 3.1617 20.7386ZM3.1917 19.8786C1.6617 19.8786 0.8717 19.0786 0.8717 17.5586V3.1986C0.8717 1.6686 1.6617 0.8686 3.1917 0.8686H8.4517V19.8786ZM24.0017 0.8686C25.4717 0.8686 26.3217 1.6686 26.3217 3.1986V17.5586C26.3217 19.0786 25.4717 19.8786 24.0017 19.8786H9.3017V0.8686ZM6.2117 5.2586C6.4317 5.2586 6.6017 5.0886 6.6017 4.8886C6.6017 4.6786 6.4317 4.5086 6.2117 4.5086H3.1217C2.8917 4.5086 2.7217 4.6786 2.7217 4.8886C2.7217 5.0886 2.8917 5.2586 3.1217 5.2586ZM6.2117 8.4486C6.4317 8.4486 6.6017 8.2686 6.6017 8.0786C6.6017 7.8586 6.4317 7.6986 6.2117 7.6986H3.1217C2.8917 7.6986 2.7217 7.8586 2.7217 8.0786C2.7217 8.2686 2.8917 8.4486 3.1217 8.4486ZM6.2117 11.6286C6.4317 11.6286 6.6017 11.4586 6.6017 11.2486C6.6017 11.0486 6.4317 10.8786 6.2117 10.8786H3.1217C2.8917 10.8786 2.7217 11.0486 2.7217 11.2486C2.7217 11.4586 2.8917 11.6286 3.1217 11.6286Z" />
        </svg>
    