
        <svg xmlns="http://www.w3.org/2000/svg" viewBox="0 0 100 100">
            <path d="M4.5917 23.2425H23.7217C26.6117 23.2425 28.3117 21.5425 28.3117 18.6425V4.5925C28.3117 1.6825 26.6117 0.0025 23.7217 0.0025H4.5917C1.7017 0.0025 0.0017 1.6825 0.0017 4.5925V18.6425C0.0017 21.5425 1.7017 23.2425 4.5917 23.2425ZM5.2217 19.0825C4.5117 19.0825 4.1617 18.7725 4.1617 18.0025V5.2225C4.1617 4.4525 4.5117 4.1625 5.2217 4.1625H11.0617V19.0825ZM23.0817 4.1625C23.8017 4.1625 24.1517 4.4525 24.1517 5.2225V18.0025C24.1517 18.7725 23.8017 19.0825 23.0817 19.0825H14.8117V4.1625ZM8.5817 8.1925C9.2717 8.1925 9.8117 7.6625 9.8117 7.0425C9.8117 6.4225 9.2717 5.8825 8.5817 5.8825H6.6517C5.9617 5.8825 5.4217 6.4225 5.4217 7.0425C5.4217 7.6625 5.9617 8.1925 6.6517 8.1925ZM8.5817 11.8025C9.2717 11.8025 9.8117 11.2725 9.8117 10.6525C9.8117 10.0325 9.2717 9.5025 8.5817 9.5025H6.6517C5.9617 9.5025 5.4217 10.0325 5.4217 10.6525C5.4217 11.2725 5.9617 11.8025 6.6517 11.8025ZM8.5817 15.4225C9.2717 15.4225 9.8117 14.8825 9.8117 14.2625C9.8117 13.6425 9.2717 13.1125 8.5817 13.1125H6.6517C5.9617 13.1125 5.4217 13.6425 5.4217 14.2625C5.4217 14.8825 5.9617 15.4225 6.6517 15.4225Z" />
        </svg>
    