
        <svg xmlns="http://www.w3.org/2000/svg" viewBox="0 0 100 100">
            <path d="M3.4617 21.2247H23.9917C26.2817 21.2247 27.4417 20.0547 27.4417 17.8047V3.4347C27.4417 1.1747 26.2817 0.0047 23.9917 0.0047H3.4617C1.1717 0.0047 0.0017 1.1647 0.0017 3.4347V17.8047C0.0017 20.0647 1.1717 21.2247 3.4617 21.2247ZM3.4817 19.7647C2.1717 19.7647 1.4517 19.0747 1.4517 17.7147V3.5047C1.4517 2.1547 2.1717 1.4547 3.4817 1.4547H8.7217V19.7647ZM23.9617 1.4547C25.2517 1.4547 25.9917 2.1547 25.9917 3.5047V17.7147C25.9917 19.0747 25.2517 19.7647 23.9617 19.7647H10.1417V1.4547ZM6.4817 5.8247C6.7717 5.8247 7.0217 5.5647 7.0217 5.2847C7.0217 4.9947 6.7717 4.7447 6.4817 4.7447H3.7117C3.4217 4.7447 3.1617 4.9947 3.1617 5.2847C3.1617 5.5647 3.4217 5.8247 3.7117 5.8247ZM6.4817 8.9147C6.7717 8.9147 7.0217 8.6747 7.0217 8.3747C7.0217 8.0947 6.7717 7.8547 6.4817 7.8547H3.7117C3.4217 7.8547 3.1617 8.0947 3.1617 8.3747C3.1617 8.6747 3.4217 8.9147 3.7117 8.9147ZM6.4817 12.0147C6.7717 12.0147 7.0217 11.7647 7.0217 11.4847C7.0217 11.1947 6.7717 10.9447 6.4817 10.9447H3.7117C3.4217 10.9447 3.1617 11.1947 3.1617 11.4847C3.1617 11.7647 3.4217 12.0147 3.7117 12.0147Z" />
        </svg>
    