
        <svg xmlns="http://www.w3.org/2000/svg" viewBox="0 0 100 100">
            <path d="M3.8417 21.8828H23.9217C26.4517 21.8828 27.7617 20.5628 27.7617 18.0728V3.8128C27.7617 1.3028 26.4517 0.0028 23.9217 0.0028H3.8417C1.3117 0.0028 0.0017 1.3028 0.0017 3.8128V18.0728C0.0017 20.5828 1.3117 21.8828 3.8417 21.8828ZM3.9817 19.5828C2.8917 19.5828 2.3017 19.0028 2.3017 17.8728V3.9928C2.3017 2.8628 2.8917 2.2928 3.9817 2.2928H16.2817V19.5828ZM23.7817 2.2928C24.8517 2.2928 25.4617 2.8628 25.4617 3.9928V17.8728C25.4617 19.0028 24.8517 19.5828 23.7817 19.5828H18.4617V2.2928ZM23.0117 7.7528C23.3717 7.7528 23.6017 7.5328 23.6017 7.1828V5.1128C23.6017 4.7428 23.3817 4.5228 23.0117 4.5228H20.9017C20.5517 4.5228 20.3317 4.7428 20.3317 5.1128V7.1828C20.3317 7.5328 20.5617 7.7528 20.9017 7.7528ZM23.0117 12.5528C23.3717 12.5528 23.6017 12.3128 23.6017 11.9728V9.8928C23.6017 9.5428 23.3817 9.3028 23.0117 9.3028H20.9017C20.5517 9.3028 20.3317 9.5428 20.3317 9.8928V11.9728C20.3317 12.3128 20.5617 12.5528 20.9017 12.5528ZM23.0117 17.3228C23.3717 17.3228 23.6017 17.0928 23.6017 16.7428V14.6728C23.6017 14.3228 23.3817 14.0828 23.0117 14.0828H20.9017C20.5517 14.0828 20.3317 14.3228 20.3317 14.6728V16.7428C20.3317 17.0928 20.5617 17.3228 20.9017 17.3228Z" />
        </svg>
    