
        <svg xmlns="http://www.w3.org/2000/svg" viewBox="0 0 100 100">
            <path d="M4.7632 21.7831H10.7732V24.7631H7.9132C7.0332 24.7631 6.3032 25.4731 6.3032 26.3631C6.3032 27.2331 7.0332 27.9631 7.9132 27.9631H16.8432C17.7132 27.9631 18.4432 27.2431 18.4432 26.3631C18.4432 25.4931 17.7232 24.7631 16.8432 24.7631H13.9732V21.7831H16.2332C17.4132 21.7831 18.2132 21.0031 18.2132 19.8131V15.1731C18.2132 13.9831 17.4132 13.2031 16.2332 13.2031H13.9732V11.6131H19.8932C20.5832 11.6131 21.0932 11.4231 21.5632 10.9731L23.9932 8.6331C24.9032 7.7531 24.9032 6.9531 23.9632 6.0231L21.5632 3.6831C21.1032 3.2331 20.6032 3.0431 19.9132 3.0431H13.9732V1.6031C13.9732 0.7431 13.2532 0.0031 12.3732 0.0031C11.4932 0.0031 10.7732 0.7231 10.7732 1.6031V3.0431H8.4432C7.2532 3.0431 6.4632 3.8231 6.4632 5.0031V9.6531C6.4632 10.8431 7.2432 11.6131 8.4232 11.6131H10.7732V13.2031H4.7732C4.0832 13.2031 3.5732 13.4031 3.1032 13.8531L0.6932 16.1931C-0.2368 17.0831 -0.2368 17.8831 0.7032 18.7931L3.1032 21.1431C3.5632 21.5831 4.0632 21.7831 4.7632 21.7831Z" />
        </svg>
    