
        <svg xmlns="http://www.w3.org/2000/svg" viewBox="0 0 100 100">
            <path d="M12.3723 24.7459C19.2023 24.7459 24.7523 19.2059 24.7523 12.3759C24.7523 5.5459 19.2023 -0.0041 12.3723 -0.0041C5.5423 -0.0041 0.0023 5.5459 0.0023 12.3759C0.0023 19.2059 5.5423 24.7459 12.3723 24.7459ZM12.3723 21.6659C7.2423 21.6659 3.0823 17.5059 3.0823 12.3759C3.0823 7.2259 7.2423 3.0859 12.3723 3.0859C17.5223 3.0859 21.6723 7.2259 21.6723 12.3759C21.6723 17.5059 17.5223 21.6659 12.3723 21.6659ZM10.4623 11.0259H11.6123V11.8559H8.8023C8.4723 11.8559 8.2423 11.9459 8.0123 12.1559L6.8923 13.2559C6.4423 13.6759 6.4423 14.0659 6.8923 14.4859L8.0123 15.5759C8.2423 15.7859 8.4723 15.8759 8.8023 15.8759H11.6123V17.4259H10.2623C9.8523 17.4259 9.5123 17.7559 9.5123 18.1859C9.5123 18.5959 9.8523 18.9259 10.2623 18.9259H14.4623C14.8723 18.9259 15.2223 18.5959 15.2223 18.1859C15.2223 17.7659 14.8823 17.4259 14.4623 17.4259H13.1223V15.8759H14.2423C14.7923 15.8759 15.1423 15.5359 15.1423 14.9859V12.7459C15.1423 12.1959 14.7923 11.8559 14.2423 11.8559H13.1223V11.0259H15.9123C16.2323 11.0259 16.4723 10.9459 16.6923 10.7259L17.8223 9.6359C18.2623 9.2259 18.2623 8.8359 17.8123 8.4159L16.6923 7.3159C16.4723 7.1059 16.2423 7.0059 15.9123 7.0059H13.1223V6.2259C13.1223 5.8159 12.7823 5.4759 12.3623 5.4759C11.9423 5.4759 11.6123 5.8159 11.6123 6.2259V7.0059H10.4623C9.9223 7.0059 9.5723 7.3459 9.5723 7.9059V10.1459C9.5723 10.6859 9.9223 11.0259 10.4623 11.0259Z" />
        </svg>
    