
        <svg xmlns="http://www.w3.org/2000/svg" viewBox="0 0 100 100">
            <path d="M4.4503 20.5514H10.5103V24.5114H7.3903C6.8803 24.5114 6.4603 24.9514 6.4603 25.4614C6.4603 25.9814 6.8803 26.4014 7.3903 26.4014H15.4903C16.0103 26.4014 16.4303 25.9814 16.4303 25.4614C16.4303 24.9514 16.0103 24.5114 15.4903 24.5114H12.4003V20.5514H15.3503C16.4003 20.5514 17.0103 19.9714 17.0103 18.9014V14.2414C17.0103 13.1714 16.4003 12.5814 15.3503 12.5814H12.4003V10.7414H18.4303C19.1003 10.7414 19.5703 10.5614 20.0003 10.1414L22.2503 7.9914C23.1103 7.1714 23.1103 6.4014 22.2303 5.5314L20.0003 3.3714C19.5803 2.9614 19.1103 2.7914 18.4403 2.7914H12.4003V0.9514C12.4003 0.4314 11.9603 0.0014 11.4503 0.0014C10.9303 0.0014 10.5103 0.4314 10.5103 0.9514V2.7914H7.5303C6.4903 2.7914 5.8703 3.3614 5.8703 4.4414V9.0914C5.8703 10.1614 6.4903 10.7414 7.5303 10.7414H10.5103V12.5814H4.4403C3.7803 12.5814 3.3103 12.7714 2.8803 13.1814L0.6703 15.3414C-0.2097 16.1914 -0.2197 16.9814 0.6403 17.8114L2.8803 19.9414C3.3303 20.3714 3.8003 20.5514 4.4503 20.5514Z" />
        </svg>
    