
        <svg xmlns="http://www.w3.org/2000/svg" viewBox="0 0 100 100">
            <path d="M5.1117 23.7308C5.1117 24.2508 5.5417 24.6708 6.0617 24.6708H15.0817C15.6117 24.6708 16.0317 24.2508 16.0317 23.7308C16.0317 23.2108 15.6117 22.7808 15.0817 22.7808H11.5117V14.9408H18.6517C20.2517 14.9408 21.1417 14.0608 21.1417 12.4908V5.2608C21.1417 3.6908 20.2517 2.8208 18.6517 2.8208H11.5117V0.9508C11.5117 0.4308 11.0817 0.0008 10.5717 0.0008C10.0517 0.0008 9.6217 0.4308 9.6217 0.9508V2.8208H2.4817C0.8917 2.8208 0.0017 3.6908 0.0017 5.2608V12.4908C0.0017 14.0608 0.8917 14.9408 2.4817 14.9408H9.6217V22.7808H6.0617C5.5417 22.7808 5.1117 23.2108 5.1117 23.7308ZM2.5317 4.7108H18.6117C18.9717 4.7108 19.2117 4.9408 19.2117 5.3208V12.4308C19.2117 12.8108 18.9717 13.0508 18.6117 13.0508H2.5317C2.1717 13.0508 1.9317 12.8108 1.9317 12.4308V5.3208C1.9317 4.9408 2.1717 4.7108 2.5317 4.7108ZM7.8417 11.4208H13.3217C14.1417 11.4208 14.3817 10.8408 13.9217 10.1908L11.2517 6.3708C10.8617 5.8408 10.2917 5.8408 9.9117 6.3708L7.2417 10.1808C6.7617 10.8508 6.9817 11.4208 7.8417 11.4208Z" />
        </svg>
    