
        <svg xmlns="http://www.w3.org/2000/svg" viewBox="0 0 100 100">
            <path d="M12.7923 25.5961C19.8723 25.5961 25.6023 19.8661 25.6023 12.7961C25.6023 5.7261 19.8723 -0.0039 12.7923 -0.0039C5.7323 -0.0039 0.0023 5.7261 0.0023 12.7961C0.0023 19.8661 5.7323 25.5961 12.7923 25.5961ZM7.2223 13.2461V9.4561C7.2223 8.4361 7.8423 7.8361 8.8523 7.8361H11.8723V7.1061C11.8723 6.5961 12.3023 6.1861 12.7923 6.1861C13.3223 6.1861 13.7423 6.5961 13.7423 7.1061V7.8361H16.7623C17.7623 7.8361 18.3823 8.4361 18.3823 9.4561V13.2461C18.3823 14.2661 17.7623 14.8861 16.7623 14.8861H13.7423V17.5461H15.1123C15.6123 17.5461 16.0323 17.9561 16.0323 18.4661C16.0323 18.9761 15.6023 19.3661 15.1123 19.3661H10.5123C9.9923 19.3661 9.6023 18.9761 9.6023 18.4661C9.6023 17.9561 9.9923 17.5461 10.5123 17.5461H11.8723V14.8861H8.8523C7.8423 14.8861 7.2223 14.2661 7.2223 13.2461ZM11.1023 11.8461C10.8123 12.2461 10.9423 12.6461 11.3623 12.6461H14.2423C14.6523 12.6461 14.7923 12.2461 14.4923 11.8461L13.2023 10.1161C12.9923 9.8061 12.6123 9.8161 12.4023 10.1161Z" />
        </svg>
    