
        <svg xmlns="http://www.w3.org/2000/svg" viewBox="0 0 100 100">
            <path d="M12.1023 24.2147C18.7823 24.2147 24.2123 18.7847 24.2123 12.1047C24.2123 5.4247 18.7823 0.0047 12.1023 0.0047C5.4223 0.0047 0.0023 5.4247 0.0023 12.1047C0.0023 18.7847 5.4223 24.2147 12.1023 24.2147ZM16.3223 13.4747H12.8523V17.1747H14.4423C14.8323 17.1747 15.1623 17.5047 15.1623 17.9047C15.1623 18.3047 14.8323 18.6247 14.4423 18.6247H9.8323C9.4323 18.6247 9.1023 18.3047 9.1023 17.9047C9.1023 17.5047 9.4323 17.1747 9.8323 17.1747H11.4123V13.4747H8.6023C8.0623 13.4747 7.7923 13.3047 7.4723 12.9947L5.9023 11.5047C5.2423 10.8647 5.2123 10.2047 5.9223 9.5647L7.4723 8.0647C7.7923 7.7547 8.0623 7.5947 8.6023 7.5947H11.4123V6.3047C11.4123 5.9047 11.7423 5.5747 12.1323 5.5747C12.5423 5.5747 12.8523 5.9047 12.8523 6.3047V7.5947H16.3223C17.1723 7.5947 17.6523 8.0647 17.6523 8.8947V12.1647C17.6523 12.9947 17.1723 13.4747 16.3223 13.4747Z" />
        </svg>
    