
        <svg xmlns="http://www.w3.org/2000/svg" viewBox="0 0 100 100">
            <path d="M12.2223 24.4419C18.9723 24.4419 24.4423 18.9719 24.4423 12.2219C24.4423 5.4819 18.9723 0.0019 12.2223 0.0019C5.4823 0.0019 0.0023 5.4819 0.0023 12.2219C0.0023 18.9719 5.4823 24.4419 12.2223 24.4419ZM6.3123 12.4219V8.4019C6.3123 7.4619 6.8623 6.9419 7.8023 6.9419H11.4623V5.9519C11.4623 5.5419 11.8123 5.2019 12.2123 5.2019C12.6323 5.2019 12.9723 5.5419 12.9723 5.9519V6.9419H16.6323C17.5623 6.9419 18.1023 7.4619 18.1023 8.4019V12.4219C18.1023 13.3519 17.5623 13.8819 16.6323 13.8819H12.9723V17.7319H14.7223C15.1323 17.7319 15.4723 18.0819 15.4723 18.4819C15.4723 18.8919 15.1123 19.2319 14.7223 19.2319H9.7123C9.3123 19.2319 8.9623 18.8919 8.9623 18.4819C8.9623 18.0719 9.3123 17.7319 9.7123 17.7319H11.4623V13.8819H7.8023C6.8623 13.8819 6.3123 13.3519 6.3123 12.4219ZM10.3323 11.1019C10.0523 11.4819 10.1823 11.8519 10.6623 11.8519H13.7823C14.2423 11.8519 14.3823 11.4819 14.1123 11.1019L12.6123 9.0019C12.4023 8.6919 12.0423 8.6919 11.8223 9.0019Z" />
        </svg>
    