
        <svg xmlns="http://www.w3.org/2000/svg" viewBox="0 0 100 100">
            <path d="M0.0017 18.9502C0.0017 21.2302 1.2117 22.4502 3.4817 22.4502H4.9417V18.8602H4.1217C3.2117 18.8602 2.6217 18.2702 2.6217 17.3402V13.8702H4.9417V12.5002H2.6217V11.0502C2.6217 10.1102 3.2117 9.5402 4.1217 9.5402H4.9417V6.8702C4.9417 3.6202 6.9117 1.6402 10.1417 1.6402H13.3617L12.7217 1.0102C12.0317 0.3002 11.2617 0.0002 10.1617 0.0002H3.4817C1.2117 0.0002 0.0017 1.2302 0.0017 3.5302ZM6.6517 22.2902C6.6517 24.5702 7.8617 25.7902 10.1417 25.7902H21.0717C23.3417 25.7902 24.5517 24.5702 24.5517 22.2902V11.0902C24.5517 9.9602 24.2917 9.2602 23.6217 8.5902L19.3817 4.3502C18.6817 3.6602 17.9217 3.3502 16.8117 3.3502H10.1417C7.8617 3.3502 6.6517 4.5702 6.6517 6.8702ZM10.5617 15.8602V14.4002C10.5617 13.4602 11.1417 12.8802 12.0617 12.8802H16.6917V22.2002H14.7317V16.5902C14.7317 16.1402 14.4517 15.8602 13.9717 15.8602ZM18.0617 22.2002V12.8802H19.1117C20.0317 12.8802 20.6117 13.4602 20.6117 14.4002V20.6802C20.6117 21.6102 20.0317 22.2002 19.1117 22.2002ZM10.5617 20.6802V17.2302H13.1517C13.2817 17.2302 13.3617 17.2802 13.3617 17.4102V22.2002H12.0617C11.1417 22.2002 10.5617 21.6102 10.5617 20.6802Z" />
        </svg>
    