
        <svg xmlns="http://www.w3.org/2000/svg" viewBox="0 0 100 100">
            <path d="M4.3817 22.8467H18.4717C21.2617 22.8467 22.8517 21.2667 22.8517 18.4767V4.3667C22.8517 1.5867 21.2617 -0.0033 18.4717 -0.0033H4.3817C1.5917 -0.0033 0.0017 1.5867 0.0017 4.3667V18.4767C0.0017 21.2667 1.5917 22.8467 4.3817 22.8467ZM14.8917 16.6967C14.7517 16.6967 14.6617 16.6067 14.6617 16.4667V15.6067C13.4617 15.5667 12.4317 15.0867 12.0717 14.0267C12.0117 13.8767 11.9717 13.7067 11.9717 13.5667C11.9717 13.0467 12.3617 12.7367 12.8917 12.7367C13.3517 12.7367 13.6017 12.9567 13.7717 13.3367C13.9217 13.7767 14.1917 14.0367 14.6617 14.0967V12.3167L13.9617 12.0467C12.7217 11.5567 11.9517 10.9367 11.9517 9.6367C11.9517 8.0967 13.2217 7.2967 14.6617 7.2267V6.3767C14.6617 6.2367 14.7517 6.1367 14.8917 6.1367C15.0217 6.1367 15.1417 6.2367 15.1417 6.3767V7.2267C16.2417 7.2967 17.2617 7.7767 17.5817 8.7867C17.6417 8.9567 17.6717 9.1067 17.6717 9.2667C17.6717 9.6367 17.3917 10.0667 16.7717 10.0667C16.3117 10.0667 16.0417 9.8567 15.8917 9.4567C15.7617 9.0667 15.5117 8.8167 15.1417 8.7467V10.5067L15.8417 10.7767C17.0417 11.2467 17.8917 11.8367 17.8917 13.1767C17.8917 14.6767 16.6917 15.5167 15.1417 15.6067V16.4667C15.1417 16.6067 15.0217 16.6967 14.8917 16.6967ZM8.1317 15.9767C6.9217 15.9767 5.8517 15.4967 5.3917 14.5467C5.2817 14.3167 5.2017 14.0467 5.2017 13.8267C5.2017 13.3267 5.5517 12.9367 6.1217 12.9367C6.6017 12.9367 6.9017 13.1267 7.1017 13.5867C7.2917 14.0667 7.6417 14.3167 8.1517 14.3167C8.7317 14.3167 9.1217 13.9767 9.1217 13.4667C9.1217 12.8167 8.6717 12.5667 7.9017 12.2967L7.2417 12.0567C5.9017 11.5867 5.2117 10.8267 5.2117 9.5067C5.2117 7.8267 6.4317 6.8667 8.1217 6.8667C9.3117 6.8667 10.4317 7.3567 10.8717 8.5167C10.9217 8.6367 10.9817 8.8367 10.9817 9.0567C10.9817 9.5067 10.6917 9.9167 10.0617 9.9167C9.5817 9.9167 9.3017 9.7367 9.1217 9.2967C8.9617 8.8467 8.6817 8.5167 8.1317 8.5167C7.6217 8.5167 7.3017 8.8867 7.3017 9.3367C7.3017 10.0067 7.8117 10.2767 8.4417 10.4967L9.2417 10.7767C10.4717 11.2167 11.2017 11.8367 11.2017 13.2567C11.2017 14.9967 10.0217 15.9767 8.1317 15.9767ZM13.9017 9.4667C13.9017 9.8867 14.2117 10.1167 14.6617 10.3167V8.7467C14.2417 8.7867 13.9017 9.0267 13.9017 9.4667ZM15.1417 14.0967C15.6017 14.0367 15.9517 13.8167 15.9517 13.3867C15.9517 12.9067 15.6217 12.7167 15.1417 12.5067Z" />
        </svg>
    