
        <svg xmlns="http://www.w3.org/2000/svg" viewBox="0 0 100 100">
            <path d="M28.9023 14.3955C28.9023 6.8555 23.1423 0.6755 15.7823 0.0055C15.3523 -0.0445 15.0223 0.2755 15.0223 0.7055V4.6555C15.0223 5.0155 15.2823 5.2855 15.6423 5.3355C20.1223 5.9255 23.5823 9.7455 23.5823 14.3955C23.5823 16.5155 22.8623 18.4755 21.5823 20.0755C21.3823 20.3355 21.3823 20.6655 21.6223 20.8855L24.4723 23.7355C24.7723 24.0555 25.2223 24.0355 25.5023 23.7255C27.6223 21.1955 28.9023 17.9455 28.9023 14.3955ZM0.0023 14.3955C0.0023 17.9455 1.2823 21.1955 3.4123 23.7255C3.6823 24.0355 4.1223 24.0355 4.4323 23.7355L7.2823 20.8855C7.5123 20.6555 7.5123 20.3355 7.3123 20.0755C6.0423 18.4755 5.3223 16.5155 5.3223 14.3955C5.3223 9.7455 8.7923 5.9255 13.2623 5.3355C13.6123 5.2855 13.8723 5.0155 13.8723 4.6555V0.7055C13.8723 0.2755 13.5423 -0.0445 13.1123 0.0055C5.7623 0.6755 0.0023 6.8555 0.0023 14.3955ZM17.6923 19.8055C17.8623 19.8055 17.9923 19.6755 17.9923 19.5255V18.6655C19.4523 18.5555 20.5123 17.7255 20.5123 16.3055C20.5123 14.9655 19.6623 14.4155 18.5323 13.9155L17.9923 13.6755V11.3055C18.5323 11.4055 18.7923 11.8055 18.9223 12.3555C19.0323 12.6755 19.2423 12.8555 19.6323 12.8555C20.0823 12.8555 20.3223 12.5755 20.3223 12.2155C20.3223 12.0655 20.3123 11.9555 20.2623 11.8255C19.9823 10.6955 19.0623 10.1655 17.9923 10.0855V9.2255C17.9923 9.0755 17.8623 8.9455 17.6923 8.9455C17.5423 8.9455 17.4123 9.0755 17.4123 9.2255V10.0855C16.0823 10.1755 14.9923 10.9455 14.9923 12.3755C14.9923 13.6555 15.7423 14.2555 16.9223 14.7855L17.4123 15.0055V17.4455C16.7823 17.3555 16.4723 16.9755 16.3523 16.3555C16.2523 16.0455 16.0323 15.8255 15.6523 15.8255C15.2423 15.8255 14.9423 16.0855 14.9423 16.4955C14.9423 16.6055 14.9623 16.7355 15.0023 16.8655C15.3023 18.0655 16.2823 18.5855 17.4123 18.6655V19.5255C17.4123 19.6755 17.5423 19.8055 17.6923 19.8055ZM11.2423 19.0155C13.1123 19.0155 14.1123 17.9255 14.1123 16.3555C14.1123 14.8655 13.2623 14.2655 12.0423 13.8255L11.3423 13.5655C10.6123 13.2955 10.0623 12.9555 10.0623 12.1655C10.0623 11.5255 10.4723 11.0355 11.2023 11.0355C11.8723 11.0355 12.2923 11.4155 12.4823 12.0955C12.6123 12.4655 12.8423 12.6155 13.2223 12.6155C13.6523 12.6155 13.9023 12.3255 13.9023 11.9455C13.9023 11.8055 13.8623 11.6555 13.8323 11.5355C13.4923 10.3655 12.4523 9.7355 11.2023 9.7355C9.5323 9.7355 8.4923 10.7955 8.4923 12.2855C8.4923 13.6255 9.2623 14.3855 10.5423 14.8355L11.2023 15.0755C12.0023 15.3555 12.5423 15.7155 12.5423 16.5055C12.5423 17.1855 12.0623 17.6955 11.2623 17.6955C10.5323 17.6955 10.0623 17.3255 9.8823 16.6255C9.7523 16.2555 9.5023 16.0955 9.1423 16.0955C8.7223 16.0955 8.4423 16.3955 8.4423 16.7955C8.4423 16.9755 8.4823 17.1855 8.5523 17.3355C8.9523 18.4255 9.9623 19.0155 11.2423 19.0155ZM16.4723 12.2755C16.4723 11.6855 16.8723 11.3755 17.4123 11.2855V13.4255C16.8723 13.1555 16.4723 12.8155 16.4723 12.2755ZM19.0123 16.4555C19.0123 17.0355 18.6123 17.3755 17.9923 17.4455V15.2555C18.5623 15.5355 19.0123 15.8255 19.0123 16.4555Z" />
        </svg>
    