
        <svg xmlns="http://www.w3.org/2000/svg" viewBox="0 0 100 100">
            <path d="M12.7923 25.5978C19.8723 25.5978 25.6023 19.8678 25.6023 12.7978C25.6023 5.7278 19.8723 -0.0022 12.7923 -0.0022C5.7323 -0.0022 0.0023 5.7278 0.0023 12.7978C0.0023 19.8678 5.7323 25.5978 12.7923 25.5978ZM12.7923 21.4178C8.0323 21.4178 4.1723 17.5678 4.1723 12.7978C4.1723 8.0278 8.0323 4.1678 12.7923 4.1678C17.5623 4.1678 21.4323 8.0278 21.4323 12.7978C21.4323 17.5678 17.5623 21.4178 12.7923 21.4178ZM15.9023 17.5478C16.0123 17.5478 16.0923 17.4578 16.0923 17.3578V16.5678C17.5523 16.4878 18.7123 15.7278 18.7123 14.3178C18.7123 13.1278 17.9323 12.5878 16.8123 12.1678L16.0923 11.9078V10.6078C16.3623 10.6478 16.5623 10.8078 16.6723 11.0878C16.8523 11.4678 17.1323 11.6678 17.5623 11.6678C18.2223 11.6678 18.4823 11.2278 18.4823 10.8778C18.4823 10.7078 18.4423 10.5678 18.3823 10.4078C18.0823 9.5578 17.1223 9.1278 16.0923 9.0778V8.3078C16.0923 8.1878 16.0123 8.1078 15.9023 8.1078C15.7823 8.1078 15.7023 8.1878 15.7023 8.3078V9.0778C14.3523 9.1278 13.1123 9.8578 13.1123 11.3178C13.1123 12.5078 13.8323 13.0778 14.9523 13.4978L15.7023 13.7678V15.0578C15.3523 15.0278 15.1323 14.8478 15.0023 14.5478C14.8123 14.1578 14.5423 13.9578 14.1123 13.9578C13.5723 13.9578 13.1823 14.2478 13.1823 14.7878C13.1823 14.9278 13.2223 15.0978 13.2823 15.2478C13.6423 16.1478 14.5923 16.5478 15.7023 16.5778V17.3578C15.7023 17.4578 15.7823 17.5478 15.9023 17.5478ZM9.6323 16.9078C11.3323 16.9078 12.5023 16.0778 12.5023 14.4278C12.5023 13.1678 11.9023 12.5978 10.7823 12.2078L9.9923 11.9378C9.4923 11.7678 9.0223 11.5478 9.0223 11.0178C9.0223 10.6778 9.2823 10.4278 9.6323 10.4278C10.0823 10.4278 10.2523 10.6878 10.3823 10.9678C10.5923 11.3978 10.8723 11.5778 11.3523 11.5778C12.0023 11.5778 12.2923 11.1778 12.2923 10.7378C12.2923 10.4878 12.2223 10.2878 12.1623 10.1678C11.7223 9.1178 10.6923 8.7578 9.6223 8.7578C8.0823 8.7578 6.8823 9.5778 6.8823 11.1778C6.8823 12.3778 7.4923 13.0678 8.7023 13.4878L9.3123 13.6978C9.9923 13.9478 10.3723 14.1178 10.3723 14.6278C10.3723 15.0278 10.0423 15.2378 9.6423 15.2378C9.2823 15.2378 9.0123 15.0678 8.8623 14.7378C8.6223 14.2978 8.3223 14.0978 7.8423 14.0978C7.2523 14.0978 6.9023 14.4978 6.9023 14.9978C6.9023 15.2178 6.9823 15.5078 7.1123 15.7378C7.5423 16.5378 8.5623 16.9078 9.6323 16.9078ZM15.1023 11.1278C15.1023 10.7978 15.3723 10.6278 15.7023 10.5978V11.7578C15.3523 11.6178 15.1023 11.4478 15.1023 11.1278ZM16.7323 14.5578C16.7323 14.8678 16.4323 15.0078 16.0923 15.0578V13.9078C16.4723 14.0478 16.7323 14.1778 16.7323 14.5578Z" />
        </svg>
    