
        <svg xmlns="http://www.w3.org/2000/svg" viewBox="0 0 100 100">
            <path d="M22.8417 25.7916C22.9917 25.7916 23.1217 25.6616 23.1217 25.5116V22.7916C26.3017 22.7116 29.3717 20.9716 29.3717 17.6716C29.3717 14.4816 26.6117 13.1416 24.0617 12.4616L23.1217 12.2116V3.2616C25.8417 3.3516 28.1117 4.8316 28.3517 7.6016C28.3617 7.7916 28.4417 7.9316 28.6517 7.9316C28.8617 7.9316 28.9717 7.8316 28.9717 7.6416C28.9717 7.5316 28.9617 7.3216 28.9317 7.1116C28.5617 4.2916 25.9717 2.7616 23.1217 2.6716V0.2816C23.1217 0.1316 22.9917 0.0016 22.8417 0.0016C22.7017 0.0016 22.5717 0.1316 22.5717 0.2816V2.6716C19.6317 2.7516 16.7217 4.5116 16.7217 7.4916C16.7217 10.3316 19.2617 11.7816 21.9517 12.5116L22.5717 12.6816V22.1816C19.4917 22.0816 17.0617 20.3416 16.8917 17.3116C16.8717 17.1316 16.7917 17.0016 16.5617 17.0016C16.3717 17.0016 16.2417 17.1316 16.2417 17.3316C16.2417 17.4716 16.2817 17.6516 16.3017 17.8316C16.7717 20.9516 19.4017 22.6916 22.5717 22.7916V25.5116C22.5717 25.6616 22.7017 25.7916 22.8417 25.7916ZM6.7717 23.3716C10.3017 23.3716 13.1817 21.3716 13.1817 17.7816C13.1817 14.5116 10.7717 13.3516 7.7817 12.5116L5.9217 11.9916C3.3717 11.2816 1.0917 10.1616 1.0917 7.3216C1.0917 4.2816 3.7617 2.6716 6.5017 2.6716C9.3617 2.6716 11.9217 4.3316 12.1517 7.0116C12.1617 7.1616 12.2417 7.3016 12.4317 7.3016C12.6517 7.3016 12.7517 7.1716 12.7517 6.9516C12.7517 6.7616 12.7417 6.5616 12.7017 6.4016C12.0817 3.5616 9.4217 2.0816 6.5017 2.0816C3.3017 2.0816 0.4717 4.1016 0.4717 7.3016C0.4717 10.4516 2.6517 11.6716 5.6817 12.5416L7.5717 13.0816C10.3317 13.8716 12.5417 14.9016 12.5417 17.7916C12.5417 20.9916 10.0517 22.7816 6.7817 22.7816C3.5417 22.7816 0.9417 20.9316 0.6017 17.8716C0.5717 17.6716 0.4917 17.5816 0.3017 17.5816C0.0917 17.5816 0.0017 17.7216 0.0017 17.9316C0.0017 18.0616 0.0317 18.3516 0.0617 18.5016C0.7117 21.6716 3.4817 23.3716 6.7717 23.3716ZM22.1117 11.9416C20.0417 11.3916 17.3717 10.1216 17.3717 7.4716C17.3717 4.7916 19.8917 3.3416 22.5717 3.2616V12.0616ZM23.8817 13.0416C26.4517 13.7716 28.7317 14.9516 28.7317 17.6816C28.7317 20.5916 26.1217 22.1116 23.1217 22.1916V12.8316Z" />
        </svg>
    