
        <svg xmlns="http://www.w3.org/2000/svg" viewBox="0 0 100 100">
            <path d="M2.3317 24.5172H27.0917V23.3272C27.0917 22.6772 26.6817 22.2872 26.0517 22.2872H25.5917V9.4672H26.5317C27.4917 9.4672 28.0517 8.7572 28.0517 8.0372C28.0517 7.5072 27.7617 7.0272 27.1517 6.6672L16.4617 0.5072C15.9217 0.1972 15.2917 -0.0028 14.7117 -0.0028C14.1217 -0.0028 13.4917 0.1972 12.9517 0.5072L2.2617 6.6672C1.6517 7.0272 1.3617 7.5072 1.3617 8.0372C1.3617 8.7572 1.9217 9.4672 2.8917 9.4672H3.8317V22.2872H3.3717C2.7317 22.2872 2.3317 22.6772 2.3317 23.3272ZM6.3617 22.2872V7.6872L14.4617 3.1672C14.5417 3.1172 14.6417 3.0972 14.7117 3.0972C14.7917 3.0972 14.8717 3.1172 14.9517 3.1672L23.0617 7.6872V22.2872ZM17.8717 18.8272C18.0017 18.8272 18.0917 18.7372 18.0917 18.6072V17.7972C19.5617 17.7172 20.6817 16.9172 20.6817 15.5172C20.6817 14.2772 19.8717 13.7272 18.7617 13.2772L18.0917 13.0172V11.3572C18.4617 11.4272 18.6817 11.6572 18.8117 12.0272C18.9517 12.3972 19.2117 12.5872 19.6317 12.5872C20.2117 12.5872 20.4717 12.1972 20.4717 11.8472C20.4717 11.6872 20.4417 11.5572 20.3817 11.4072C20.0817 10.4572 19.1417 9.9972 18.0917 9.9372V9.1272C18.0917 8.9972 18.0017 8.9072 17.8717 8.9072C17.7417 8.9072 17.6517 8.9972 17.6517 9.1272V9.9272C16.3017 9.9972 15.1217 10.7472 15.1217 12.1872C15.1217 13.4172 15.8317 13.9872 16.9817 14.4472L17.6517 14.7072V16.3972C17.1917 16.3372 16.9417 16.0872 16.8017 15.6772C16.6517 15.3172 16.4017 15.1072 15.9917 15.1072C15.5017 15.1072 15.1417 15.3872 15.1417 15.8872C15.1417 16.0172 15.1717 16.1672 15.2217 16.3172C15.5617 17.3172 16.5217 17.7672 17.6517 17.8172V18.6072C17.6517 18.7372 17.7417 18.8272 17.8717 18.8272ZM11.5317 18.1372C13.3017 18.1372 14.4117 17.2272 14.4117 15.5972C14.4117 14.2572 13.7217 13.6772 12.5717 13.2772L11.8117 13.0072C11.2217 12.7972 10.7317 12.5372 10.7317 11.9172C10.7317 11.4772 11.0417 11.1472 11.5317 11.1472C12.0517 11.1472 12.3117 11.4472 12.4617 11.8672C12.6317 12.2672 12.9017 12.4472 13.3517 12.4472C13.9217 12.4472 14.2017 12.0672 14.2017 11.6572C14.2017 11.4472 14.1417 11.2572 14.0817 11.1472C13.6717 10.0572 12.6417 9.5972 11.5217 9.5972C9.9417 9.5972 8.7917 10.4972 8.7917 12.0672C8.7917 13.3172 9.4417 14.0272 10.7017 14.4572L11.3217 14.6872C12.0517 14.9372 12.4717 15.1772 12.4717 15.7872C12.4717 16.2772 12.0917 16.5972 11.5517 16.5972C11.0617 16.5972 10.7217 16.3572 10.5617 15.9072C10.3617 15.4772 10.0817 15.2972 9.6317 15.2972C9.1017 15.2972 8.7817 15.6572 8.7817 16.1272C8.7817 16.3372 8.8617 16.5972 8.9617 16.7972C9.3917 17.6972 10.3917 18.1372 11.5317 18.1372ZM16.9217 12.0372C16.9217 11.6172 17.2417 11.3872 17.6517 11.3472V12.8272C17.2217 12.6472 16.9217 12.4372 16.9217 12.0372ZM18.8717 15.7172C18.8717 16.1272 18.5317 16.3372 18.0917 16.3872V14.8872C18.5517 15.0672 18.8717 15.2572 18.8717 15.7172ZM1.4417 28.2972H27.6817C28.4517 28.2972 29.1317 27.6672 29.1317 26.8572C29.1317 26.0772 28.4517 25.4172 27.6817 25.4172H1.4417C0.6717 25.4172 0.0017 26.0772 0.0017 26.8572C0.0017 27.6572 0.6717 28.2972 1.4417 28.2972Z" />
        </svg>
    