
        <svg xmlns="http://www.w3.org/2000/svg" viewBox="0 0 100 100">
            <path d="M12.2223 24.4436C18.9723 24.4436 24.4423 18.9736 24.4423 12.2236C24.4423 5.4736 18.9723 0.0036 12.2223 0.0036C5.4723 0.0036 0.0023 5.4736 0.0023 12.2236C0.0023 18.9736 5.4723 24.4436 12.2223 24.4436ZM12.2223 21.7636C6.9523 21.7636 2.6823 17.4936 2.6823 12.2236C2.6823 6.9536 6.9523 2.6836 12.2223 2.6836C17.4923 2.6836 21.7623 6.9536 21.7623 12.2236C21.7623 17.4936 17.4923 21.7636 12.2223 21.7636ZM15.4723 17.5736C15.6323 17.5736 15.7623 17.4536 15.7623 17.2936V16.4336C17.2223 16.3336 18.2823 15.4936 18.2823 14.0736C18.2823 12.7336 17.4423 12.1836 16.3023 11.6836L15.7623 11.4536V9.0736C16.3023 9.1736 16.5723 9.5736 16.7023 10.1236C16.7923 10.4436 17.0123 10.6336 17.4023 10.6336C17.8623 10.6336 18.0923 10.3436 18.0923 9.9836C18.0923 9.8336 18.0723 9.7236 18.0323 9.5936C17.7523 8.4636 16.8423 7.9336 15.7623 7.8536V6.9936C15.7623 6.8436 15.6323 6.7136 15.4723 6.7136C15.3123 6.7136 15.1923 6.8436 15.1923 6.9936V7.8536C13.8523 7.9436 12.7623 8.7236 12.7623 10.1436C12.7623 11.4236 13.5123 12.0336 14.6823 12.5536L15.1923 12.7736V15.2136C14.5523 15.1336 14.2523 14.7536 14.1223 14.1236C14.0323 13.8136 13.7923 13.5936 13.4223 13.5936C13.0123 13.5936 12.7123 13.8536 12.7123 14.2736C12.7123 14.3836 12.7423 14.5036 12.7723 14.6336C13.0823 15.8336 14.0523 16.3636 15.1923 16.4336V17.2936C15.1923 17.4536 15.3123 17.5736 15.4723 17.5736ZM9.0123 16.7836C10.8823 16.7836 11.8823 15.6936 11.8823 14.1236C11.8823 12.6336 11.0323 12.0336 9.8223 11.5936L9.1123 11.3336C8.3823 11.0636 7.8423 10.7336 7.8423 9.9336C7.8423 9.2936 8.2523 8.8036 8.9723 8.8036C9.6423 8.8036 10.0623 9.1836 10.2523 9.8636C10.3723 10.2336 10.6123 10.3836 10.9823 10.3836C11.4223 10.3836 11.6723 10.0936 11.6723 9.7136C11.6723 9.5736 11.6323 9.4236 11.6023 9.3036C11.2623 8.1336 10.2323 7.5036 8.9723 7.5036C7.3023 7.5036 6.2723 8.5636 6.2723 10.0536C6.2723 11.3936 7.0323 12.1536 8.3223 12.6136L8.9723 12.8436C9.7723 13.1336 10.3023 13.4836 10.3023 14.2736C10.3023 14.9536 9.8323 15.4736 9.0323 15.4736C8.3123 15.4736 7.8423 15.0936 7.6523 14.3936C7.5123 14.0236 7.2823 13.8636 6.9023 13.8636C6.4923 13.8636 6.2123 14.1636 6.2123 14.5636C6.2123 14.7436 6.2623 14.9536 6.3323 15.1036C6.7223 16.1936 7.7223 16.7836 9.0123 16.7836ZM14.2523 10.0436C14.2523 9.4536 14.6523 9.1436 15.1923 9.0536V11.1936C14.6523 10.9236 14.2523 10.5836 14.2523 10.0436ZM16.7823 14.2236C16.7823 14.8036 16.3823 15.1436 15.7623 15.2136V13.0236C16.3323 13.3036 16.7823 13.5936 16.7823 14.2236Z" />
        </svg>
    