
        <svg xmlns="http://www.w3.org/2000/svg" viewBox="0 0 100 100">
            <path d="M0.2817 23.4614H23.4217C23.5817 23.4614 23.7117 23.3314 23.7117 23.1714C23.7117 23.0114 23.5817 22.8914 23.4217 22.8914H22.7817V22.1914C22.7817 22.0914 22.6917 21.9914 22.5617 21.9914H21.8217V6.7314H22.9717C23.1817 6.7314 23.2717 6.6014 23.2717 6.4314C23.2717 6.3514 23.2217 6.2314 23.1017 6.1614L12.9717 0.3114C12.6117 0.1014 12.2217 0.0014 11.8617 0.0014C11.4817 0.0014 11.1017 0.1014 10.7317 0.3114L0.6117 6.1614C0.4817 6.2314 0.4317 6.3514 0.4317 6.4314C0.4317 6.6014 0.5317 6.7314 0.7417 6.7314H1.9017V21.9914H1.1517C1.0217 21.9914 0.9217 22.0914 0.9217 22.1914V22.8914H0.2817C0.1317 22.8914 0.0017 23.0114 0.0017 23.1714C0.0017 23.3314 0.1317 23.4614 0.2817 23.4614ZM15.1217 19.3214C15.0017 19.3214 14.8917 19.2314 14.8917 19.1014V17.9414C13.7017 17.8614 12.7117 17.1714 12.5417 15.5414C12.5117 15.4014 12.5117 15.3314 12.5117 15.2814C12.5117 15.0914 12.6717 14.9914 12.8117 14.9914C12.9617 14.9914 13.1117 15.0814 13.1217 15.2714C13.1917 16.4814 13.7617 17.3114 14.8917 17.4014V13.2914L14.6617 13.1714C13.4517 12.5714 12.6917 11.8314 12.6917 10.5914C12.6917 9.2114 13.7317 8.4814 14.8917 8.3914V7.3314C14.8917 7.2214 15.0017 7.1114 15.1217 7.1114C15.2317 7.1114 15.3417 7.2214 15.3417 7.3314V8.4014C16.4517 8.4814 17.3317 9.0914 17.5117 10.6414C17.5217 10.7214 17.5217 10.8314 17.5217 10.9114C17.5217 11.1114 17.4417 11.2114 17.2417 11.2114C17.1017 11.2114 16.9717 11.1414 16.9417 10.9314C16.8517 9.8114 16.4317 9.0214 15.3417 8.9314V12.8514L15.6817 13.0214C16.8117 13.5714 17.6717 14.2814 17.6717 15.6214C17.6717 16.9814 16.7117 17.8714 15.3417 17.9514V19.1014C15.3417 19.2314 15.2317 19.3214 15.1217 19.3214ZM8.8317 18.2414C7.4317 18.2414 6.5017 17.3714 6.2317 16.0814C6.2017 15.9414 6.1917 15.8214 6.1917 15.7014C6.1917 15.5414 6.2917 15.4214 6.4717 15.4214C6.6417 15.4214 6.7217 15.5314 6.7417 15.6814C6.8817 16.8614 7.6317 17.6914 8.8517 17.6914C10.2317 17.6914 10.7817 16.6514 10.7817 15.6314C10.7817 14.4614 10.1417 13.8914 9.0617 13.4514L8.4217 13.1914C7.1117 12.6514 6.3417 11.9814 6.3417 10.5614C6.3417 9.0914 7.3217 8.0814 8.7417 8.0814C10.0617 8.0814 10.9417 8.9814 11.1517 10.1614C11.1717 10.2314 11.1917 10.3314 11.1917 10.4414C11.1917 10.6214 11.1017 10.7314 10.9217 10.7314C10.7617 10.7314 10.6717 10.6414 10.6417 10.4614C10.4717 9.4314 9.9017 8.6514 8.7317 8.6514C7.6317 8.6514 6.9417 9.4014 6.9417 10.5214C6.9417 11.6714 7.5817 12.1914 8.6417 12.6314L9.2417 12.8814C10.4917 13.4014 11.3817 14.0414 11.3817 15.5714C11.3817 17.1814 10.4417 18.2414 8.8317 18.2414ZM13.2917 10.5714C13.2917 11.6114 13.9817 12.1714 14.8917 12.6414V8.9314C13.9717 8.9914 13.2917 9.5514 13.2917 10.5714ZM15.3417 17.4214C16.3817 17.3414 17.0717 16.7214 17.0717 15.6714C17.0717 14.5314 16.3517 13.9914 15.3417 13.5114Z" />
        </svg>
    