
        <svg xmlns="http://www.w3.org/2000/svg" viewBox="0 0 100 100">
            <path d="M14.4523 5.3178C16.5623 5.3178 18.4923 6.0378 20.0423 7.2278C20.3223 7.4278 20.6623 7.4178 20.9223 7.1578L23.7223 4.3578C24.0223 4.0578 24.0123 3.5978 23.6823 3.3278C21.1723 1.2578 17.9523 -0.0022 14.4523 -0.0022C10.9423 -0.0022 7.7223 1.2578 5.2223 3.3278C4.8823 3.5978 4.8723 4.0578 5.1923 4.3578L7.9823 7.1578C8.2423 7.4178 8.6023 7.4278 8.8923 7.2078C10.4423 6.0378 12.3623 5.3178 14.4523 5.3178ZM28.9023 14.4478C28.9023 10.9378 27.6423 7.7078 25.5623 5.1878C25.2923 4.8778 24.8423 4.8778 24.5423 5.1778L21.7423 7.9778C21.4823 8.2378 21.4723 8.5978 21.6923 8.8778C22.8723 10.4278 23.5823 12.3678 23.5823 14.4478C23.5823 16.5678 22.8623 18.5278 21.5823 20.1478C21.3823 20.3978 21.4023 20.7178 21.6223 20.9578L24.4723 23.7978C24.7723 24.1078 25.2223 24.1078 25.5023 23.7778C27.6223 21.2578 28.9023 17.9978 28.9023 14.4478ZM0.0023 14.4478C0.0023 17.9978 1.2923 21.2678 3.4223 23.7878C3.6923 24.1078 4.1323 24.1078 4.4423 23.7978L7.2823 20.9578C7.5123 20.7178 7.5223 20.3978 7.3123 20.1478C6.0423 18.5278 5.3223 16.5678 5.3223 14.4478C5.3223 12.3678 6.0223 10.4278 7.2223 8.8778C7.4323 8.5978 7.4323 8.2378 7.1723 7.9778L4.3723 5.1778C4.0623 4.8778 3.6123 4.8778 3.3423 5.2178C1.2523 7.7178 0.0023 10.9478 0.0023 14.4478ZM17.6923 19.8478C17.8623 19.8478 17.9923 19.7178 17.9923 19.5678V18.7078C19.4523 18.5978 20.5123 17.7678 20.5123 16.3478C20.5123 15.0078 19.6623 14.4578 18.5323 13.9578L17.9923 13.7178V11.3478C18.5323 11.4478 18.7923 11.8478 18.9223 12.3978C19.0323 12.7178 19.2423 12.8978 19.6323 12.8978C20.0823 12.8978 20.3223 12.6178 20.3223 12.2578C20.3223 12.1078 20.3123 11.9978 20.2623 11.8678C19.9823 10.7378 19.0623 10.2078 17.9923 10.1278V9.2678C17.9923 9.1178 17.8623 8.9878 17.6923 8.9878C17.5423 8.9878 17.4123 9.1178 17.4123 9.2678V10.1278C16.0823 10.2178 14.9923 10.9878 14.9923 12.4178C14.9923 13.6978 15.7423 14.2978 16.9223 14.8278L17.4123 15.0478V17.4878C16.7823 17.3978 16.4723 17.0178 16.3523 16.3978C16.2523 16.0878 16.0323 15.8678 15.6523 15.8678C15.2423 15.8678 14.9423 16.1278 14.9423 16.5378C14.9423 16.6478 14.9623 16.7778 15.0023 16.9078C15.3023 18.1078 16.2823 18.6278 17.4123 18.7078V19.5678C17.4123 19.7178 17.5423 19.8478 17.6923 19.8478ZM11.2423 19.0578C13.1123 19.0578 14.1123 17.9678 14.1123 16.3978C14.1123 14.9078 13.2623 14.3078 12.0423 13.8678L11.3423 13.6078C10.6123 13.3378 10.0623 12.9978 10.0623 12.2078C10.0623 11.5678 10.4723 11.0778 11.2023 11.0778C11.8723 11.0778 12.2923 11.4578 12.4823 12.1378C12.6123 12.5078 12.8423 12.6578 13.2223 12.6578C13.6523 12.6578 13.9023 12.3678 13.9023 11.9878C13.9023 11.8478 13.8623 11.6978 13.8323 11.5778C13.4923 10.4078 12.4523 9.7778 11.2023 9.7778C9.5323 9.7778 8.4923 10.8378 8.4923 12.3278C8.4923 13.6678 9.2623 14.4278 10.5423 14.8778L11.2023 15.1178C12.0023 15.3978 12.5423 15.7578 12.5423 16.5478C12.5423 17.2278 12.0623 17.7378 11.2623 17.7378C10.5323 17.7378 10.0623 17.3678 9.8823 16.6678C9.7523 16.2978 9.5023 16.1378 9.1423 16.1378C8.7223 16.1378 8.4423 16.4378 8.4423 16.8378C8.4423 17.0178 8.4823 17.2278 8.5523 17.3778C8.9523 18.4678 9.9623 19.0578 11.2423 19.0578ZM16.4723 12.3178C16.4723 11.7278 16.8723 11.4178 17.4123 11.3278V13.4678C16.8723 13.1978 16.4723 12.8578 16.4723 12.3178ZM19.0123 16.4978C19.0123 17.0778 18.6123 17.4178 17.9923 17.4878V15.2978C18.5623 15.5778 19.0123 15.8678 19.0123 16.4978Z" />
        </svg>
    