
        <svg xmlns="http://www.w3.org/2000/svg" viewBox="0 0 100 100">
            <path d="M3.8417 21.8745H18.0317C20.5617 21.8745 21.8817 20.5745 21.8817 18.0745V3.8045C21.8817 1.3145 20.5617 0.0045 18.0317 0.0045H3.8417C1.3117 0.0045 0.0017 1.3045 0.0017 3.8045V18.0745C0.0017 20.5745 1.3117 21.8745 3.8417 21.8745ZM14.3917 16.6145C14.2117 16.6145 14.0717 16.4845 14.0717 16.3045V15.3845C12.8817 15.3045 11.8717 14.7345 11.5517 13.4545C11.5217 13.3245 11.5117 13.1745 11.5117 13.0745C11.5117 12.6645 11.8017 12.4145 12.2017 12.4145C12.5817 12.4145 12.8117 12.6445 12.8917 12.9345C13.0317 13.6545 13.3717 14.0845 14.0717 14.1845V11.4145L13.6017 11.2145C12.3717 10.6445 11.5817 10.0045 11.5817 8.6745C11.5817 7.1845 12.7017 6.3645 14.0717 6.2645V5.3645C14.0717 5.1845 14.2117 5.0345 14.3917 5.0345C14.5517 5.0345 14.7117 5.1845 14.7117 5.3645V6.2645C15.8317 6.3645 16.7717 6.9145 17.0717 8.1545C17.1117 8.2845 17.1217 8.4045 17.1217 8.5545C17.1217 8.9145 16.8717 9.1845 16.4417 9.1845C16.0417 9.1845 15.8417 8.9845 15.7517 8.6745C15.6217 8.0645 15.3317 7.5845 14.7117 7.4745V10.1645L15.2217 10.3945C16.4217 10.9345 17.3117 11.5145 17.3117 12.9145C17.3117 14.4045 16.2217 15.2945 14.7117 15.3945V16.3045C14.7117 16.4845 14.5517 16.6145 14.3917 16.6145ZM7.6317 15.7645C6.2417 15.7645 5.2117 15.1145 4.8017 13.9345C4.7417 13.7845 4.7017 13.5745 4.7017 13.4045C4.7017 13.0045 4.9717 12.7045 5.3817 12.7045C5.7417 12.7045 5.9917 12.8645 6.0917 13.2345C6.3017 14.0345 6.8317 14.4845 7.6517 14.4845C8.5617 14.4845 9.0817 13.8845 9.0817 13.1145C9.0817 12.2445 8.4917 11.8345 7.6417 11.5345L6.9517 11.2845C5.6017 10.7945 4.7717 9.9945 4.7717 8.5745C4.7717 7.0545 5.8117 5.8945 7.5917 5.8945C8.9317 5.8945 9.9917 6.6045 10.3217 7.8545C10.3617 7.9645 10.3817 8.1045 10.3817 8.2345C10.3817 8.6145 10.1517 8.8945 9.7417 8.8945C9.3717 8.8945 9.1317 8.7545 9.0117 8.3945C8.8117 7.5945 8.3217 7.1745 7.5817 7.1745C6.7617 7.1745 6.3017 7.7345 6.3017 8.4745C6.3017 9.3245 6.8817 9.7045 7.6717 10.0045L8.4017 10.2645C9.6817 10.7445 10.6217 11.3645 10.6217 12.9645C10.6217 14.5945 9.6217 15.7645 7.6317 15.7645ZM13.0317 8.5645C13.0317 9.1745 13.4717 9.5545 14.0717 9.8645V7.4645C13.4617 7.5445 13.0317 7.9245 13.0317 8.5645ZM14.7117 14.1945C15.4217 14.1045 15.8417 13.7245 15.8417 13.0645C15.8417 12.3545 15.3417 12.0245 14.7117 11.7145Z" />
        </svg>
    