
        <svg xmlns="http://www.w3.org/2000/svg" viewBox="0 0 100 100">
            <path d="M1.016 10.1978C-0.014 10.1978 -0.264 11.2178 0.286 11.9078L3.446 15.9378C3.806 16.4078 4.496 16.3978 4.856 15.9378L8.006 11.9078C8.546 11.2178 8.306 10.1978 7.296 10.1978H6.206C7.296 6.7078 10.566 4.1678 14.426 4.1678C19.196 4.1678 23.056 8.0278 23.056 12.7978C23.056 17.5678 19.196 21.4178 14.426 21.4178C12.136 21.4178 10.196 20.5978 8.536 19.0878C7.586 18.2378 6.306 17.9678 5.376 18.8678C4.536 19.6778 4.566 20.9078 5.586 22.0278C7.486 24.1678 11.306 25.5978 14.426 25.5978C21.496 25.5978 27.226 19.8678 27.226 12.7978C27.226 5.7278 21.496 -0.0022 14.426 -0.0022C8.256 -0.0022 3.096 4.3678 1.896 10.1978ZM17.246 17.1078C17.346 17.1078 17.416 17.0378 17.416 16.9378V16.2278C18.746 16.1578 19.796 15.4578 19.796 14.1778C19.796 13.0878 19.086 12.6078 18.076 12.2378L17.416 11.9878V10.8078C17.656 10.8478 17.836 10.9778 17.956 11.2378C18.106 11.5978 18.356 11.7778 18.756 11.7778C19.356 11.7778 19.586 11.3778 19.586 11.0578C19.586 10.9078 19.556 10.7778 19.496 10.6278C19.236 9.8678 18.346 9.4678 17.416 9.4178V8.7178C17.416 8.6178 17.346 8.5478 17.246 8.5478C17.136 8.5478 17.066 8.6178 17.066 8.7178V9.4178C15.836 9.4678 14.716 10.1378 14.716 11.4478C14.716 12.5378 15.356 13.0578 16.386 13.4278L17.066 13.6878V14.8578C16.746 14.8278 16.536 14.6578 16.426 14.3878C16.256 14.0278 16.016 13.8478 15.626 13.8478C15.136 13.8478 14.766 14.1178 14.766 14.6178C14.766 14.7378 14.806 14.8978 14.866 15.0278C15.196 15.8478 16.056 16.2078 17.066 16.2378V16.9378C17.066 17.0378 17.136 17.1078 17.246 17.1078ZM11.546 16.5378C13.096 16.5378 14.166 15.7878 14.166 14.2778C14.166 13.1478 13.606 12.6078 12.586 12.2678L11.886 12.0278C11.426 11.8578 10.996 11.6578 10.996 11.1778C10.996 10.8778 11.236 10.6378 11.556 10.6378C11.956 10.6378 12.126 10.8878 12.236 11.1478C12.416 11.5278 12.676 11.6978 13.106 11.6978C13.706 11.6978 13.976 11.3178 13.976 10.9178C13.976 10.6978 13.906 10.5278 13.856 10.4078C13.446 9.4578 12.506 9.1278 11.546 9.1278C10.146 9.1278 9.056 9.8678 9.056 11.3278C9.056 12.4078 9.606 13.0478 10.716 13.4278L11.266 13.6278C11.886 13.8378 12.216 14.0078 12.216 14.4578C12.216 14.8278 11.926 15.0078 11.556 15.0078C11.216 15.0078 10.986 14.8678 10.846 14.5678C10.636 14.1578 10.356 13.9778 9.916 13.9778C9.396 13.9778 9.076 14.3478 9.076 14.7978C9.076 15.0078 9.146 15.2578 9.266 15.4678C9.666 16.1978 10.586 16.5378 11.546 16.5378ZM16.516 11.2878C16.516 10.9778 16.776 10.8378 17.066 10.8078V11.8478C16.746 11.7178 16.516 11.5778 16.516 11.2878ZM17.996 14.3878C17.996 14.6878 17.726 14.8078 17.416 14.8478V13.8178C17.756 13.9478 17.996 14.0478 17.996 14.3878Z" />
        </svg>
    