
        <svg xmlns="http://www.w3.org/2000/svg" viewBox="0 0 100 100">
            <path d="M0.4317 11.3713H1.0317V15.2413C1.0317 18.1513 2.6717 19.6413 5.8717 19.6413H15.9617C19.1717 19.6413 20.8217 18.1513 20.8217 15.2413V11.3713H21.4017C21.6417 11.3713 21.8417 11.1713 21.8417 10.9313C21.8417 10.6913 21.6417 10.5012 21.4017 10.5012H13.9617V8.8113C13.9617 8.5513 14.1117 8.4012 14.3817 8.4012H16.6917C16.9117 8.4012 17.0817 8.2313 17.0817 8.0013C17.0817 7.7913 16.9117 7.6013 16.6917 7.6013H14.2117C13.5517 7.6013 13.1617 7.9813 13.1617 8.6512V10.5012H11.1117V2.6713C11.1117 1.5613 11.8017 0.8712 12.8917 0.8712C13.9917 0.8712 14.6817 1.5613 14.6817 2.6713V4.0213C14.6817 4.2513 14.8817 4.4513 15.1217 4.4513C15.3617 4.4513 15.5517 4.2513 15.5517 4.0213V2.6713C15.5517 1.0413 14.5217 0.0012 12.8917 0.0012C11.2717 0.0012 10.2417 1.0413 10.2417 2.6713V10.5012H8.1917V8.6512C8.1917 7.9813 7.8017 7.6013 7.1417 7.6013H4.6617C4.4417 7.6013 4.2617 7.7913 4.2617 8.0013C4.2617 8.2313 4.4417 8.4012 4.6617 8.4012H6.9717C7.2417 8.4012 7.3917 8.5513 7.3917 8.8113V10.5012H0.4317C0.2017 10.5012 0.0017 10.6913 0.0017 10.9313C0.0017 11.1713 0.2017 11.3713 0.4317 11.3713Z" />
        </svg>
    