
        <svg xmlns="http://www.w3.org/2000/svg" viewBox="0 0 100 100">
            <path d="M1.9417 17.9059H2.4117V21.5159C2.4117 25.3859 4.9317 27.7359 8.9717 27.7359H22.7617C26.8017 27.7359 29.3217 25.3859 29.3217 21.5159V17.9059H29.7917C30.8517 17.9059 31.7317 17.0259 31.7317 15.9559C31.7317 14.8959 30.8517 14.0159 29.7917 14.0159H22.7017V13.1059C22.7017 13.0059 22.7617 12.9459 22.8417 12.9459H24.8117C25.7417 12.9459 26.5217 12.1759 26.5217 11.2259C26.5217 10.2759 25.7417 9.5059 24.8117 9.5059H20.9717C19.9817 9.5059 19.2517 10.2459 19.2517 11.2259V14.0159H17.8117V4.4659C17.8117 4.1059 18.0917 3.8059 18.4617 3.8059C18.8217 3.8059 19.1117 4.1159 19.1117 4.4659V6.4559C19.1117 7.5359 19.9717 8.3859 21.0517 8.3859C22.1217 8.3859 22.9917 7.5359 22.9917 6.4559V4.2659C22.9917 1.7459 20.9717 -0.0041 18.4617 -0.0041C15.9417 -0.0041 13.9217 1.7459 13.9217 4.2659V14.0159H12.4817V11.2259C12.4817 10.2459 11.7417 9.5059 10.7617 9.5059H6.9217C5.9917 9.5059 5.2117 10.2759 5.2117 11.2259C5.2117 12.1759 5.9917 12.9459 6.9217 12.9459H8.8917C8.9717 12.9459 9.0317 13.0059 9.0317 13.1059V14.0159H1.9417C0.8817 14.0159 0.0017 14.8959 0.0017 15.9559C0.0017 17.0259 0.8817 17.9059 1.9417 17.9059ZM8.9717 23.8459C6.9117 23.8459 6.3017 23.2859 6.3017 21.5159V17.9059H25.4317V21.5159C25.4317 23.2859 24.8217 23.8459 22.7617 23.8459Z" />
        </svg>
    