
        <svg xmlns="http://www.w3.org/2000/svg" viewBox="0 0 100 100">
            <path d="M1.6622 22.9122C3.8422 25.1022 7.1222 25.1422 9.3222 23.0222C9.2822 23.2922 9.3622 23.5622 9.5722 23.7722L9.9122 24.1122C10.2722 24.4622 10.7922 24.4622 11.1422 24.1122L13.2622 21.9922C13.6122 21.6322 13.6122 21.1122 13.2622 20.7622L12.9222 20.4222C12.7222 20.2122 12.4522 20.1322 12.1922 20.1622L20.2322 12.1122C20.2022 12.3822 20.2822 12.6522 20.4922 12.8522L20.8322 13.1922C21.1822 13.5322 21.7022 13.5322 22.0522 13.1922L24.1822 11.0622C24.5322 10.7222 24.5322 10.2022 24.1822 9.8422L23.8522 9.5022C23.6322 9.2922 23.3522 9.2122 23.0922 9.2522C25.1222 7.0422 25.0622 3.8222 22.9122 1.6622C20.7622 -0.4978 17.5122 -0.5478 15.3122 1.4822C15.3622 1.2122 15.2822 0.9522 15.0522 0.7322L14.7122 0.3822C14.3722 0.0422 13.8422 0.0422 13.4822 0.3822L11.3622 2.5022C11.0122 2.8422 11.0122 3.3822 11.3622 3.7322L11.7022 4.0722C11.9322 4.2922 12.2122 4.3722 12.4822 4.3222L4.3922 12.3922C4.4422 12.1422 4.3522 11.8622 4.1422 11.6322L3.8022 11.2922C3.4522 10.9422 2.9322 10.9422 2.5722 11.2922L0.4522 13.4022C0.1122 13.7522 0.1122 14.2922 0.4522 14.6322L0.8022 14.9822C1.0122 15.2022 1.3022 15.2922 1.5522 15.2322C-0.5578 17.4522 -0.5178 20.7322 1.6622 22.9122ZM17.2122 5.3722C16.9122 5.0722 16.9122 4.5822 17.2122 4.2722C17.5122 3.9622 18.0222 3.9622 18.3222 4.2622C18.6422 4.5822 18.6422 5.0722 18.3222 5.3722C18.0222 5.6822 17.5122 5.6822 17.2122 5.3722ZM15.2522 7.3422C14.9522 7.0422 14.9522 6.5422 15.2522 6.2322C15.5622 5.9322 16.0622 5.9322 16.3522 6.2322C16.6622 6.5222 16.6622 7.0422 16.3522 7.3422C16.0522 7.6522 15.5622 7.6522 15.2522 7.3422ZM19.1922 7.3622C18.8922 7.0522 18.8922 6.5522 19.1922 6.2322C19.5022 5.9322 19.9922 5.9322 20.2922 6.2322C20.6022 6.5522 20.6022 7.0522 20.2922 7.3622C19.9922 7.6622 19.5022 7.6622 19.1922 7.3622ZM17.2222 9.3122C16.9122 9.0122 16.9122 8.5022 17.2222 8.2022C17.5322 7.8922 18.0322 7.8922 18.3422 8.2022C18.6422 8.5022 18.6422 9.0122 18.3422 9.3122C18.0322 9.6222 17.5322 9.6222 17.2222 9.3122ZM6.3022 16.2922C6.0022 15.9922 6.0022 15.4922 6.3022 15.1822C6.6022 14.8822 7.1122 14.8822 7.4122 15.1822C7.7222 15.4822 7.7222 15.9922 7.4122 16.2922C7.1022 16.6022 6.6022 16.6022 6.3022 16.2922ZM4.3322 18.2522C4.0422 17.9522 4.0422 17.4522 4.3322 17.1422C4.6522 16.8422 5.1422 16.8422 5.4422 17.1322C5.7522 17.4522 5.7522 17.9522 5.4422 18.2522C5.1422 18.5622 4.6422 18.5622 4.3322 18.2522ZM8.2722 18.2722C7.9622 17.9522 7.9622 17.4622 8.2722 17.1422C8.5722 16.8422 9.0822 16.8422 9.3822 17.1422C9.6922 17.4622 9.6922 17.9522 9.3822 18.2722C9.0822 18.5722 8.5722 18.5722 8.2722 18.2722ZM6.3122 20.2322C6.0022 19.9222 6.0022 19.4322 6.3122 19.1222C6.6222 18.8022 7.1222 18.8022 7.4122 19.1222C7.7322 19.4322 7.7322 19.9222 7.4122 20.2322C7.1222 20.5322 6.6222 20.5322 6.3122 20.2322Z" />
        </svg>
    