
        <svg xmlns="http://www.w3.org/2000/svg" viewBox="0 0 100 100">
            <path d="M1.0747 18.1208C-0.3653 19.5608 -0.3553 21.7608 1.0647 23.2108C2.5047 24.6208 4.7247 24.6408 6.1647 23.1908L23.1947 6.1608C24.6347 4.7208 24.6247 2.5108 23.2147 1.0708C21.7647 -0.3492 19.5547 -0.3592 18.1147 1.0808ZM2.0647 19.1008L19.1047 2.0608C19.9847 1.1708 21.3647 1.1608 22.2347 2.0508C23.1047 2.9208 23.0947 4.3008 22.2047 5.1808L5.1847 22.2108C4.2847 23.1008 2.9147 23.1108 2.0547 22.2308C1.1647 21.3608 1.1747 19.9808 2.0647 19.1008ZM7.4747 24.5008C6.0347 25.9608 6.0447 28.1708 7.4647 29.6008C8.9047 31.0308 11.1247 31.0408 12.5647 29.6008L29.6047 12.5608C31.0447 11.1208 31.0347 8.9108 29.6047 7.4608C28.1747 6.0508 25.9547 6.0308 24.5047 7.4808ZM8.4647 25.4908L25.4847 8.4608C26.3747 7.5708 27.7647 7.5708 28.6147 8.4508C29.5047 9.3008 29.5047 10.6908 28.6147 11.5808L11.5747 28.6208C10.6847 29.5108 9.3047 29.5108 8.4447 28.6208C7.5747 27.7608 7.5747 26.3808 8.4647 25.4908ZM11.7747 11.3808L12.9047 12.5008C13.1947 12.7808 13.6447 12.8008 13.9247 12.5008C14.2047 12.2308 14.2047 11.7808 13.9247 11.5008L12.7847 10.3608C12.5047 10.0808 12.0447 10.0808 11.7747 10.3608C11.4847 10.6308 11.4747 11.1008 11.7747 11.3808ZM8.3247 14.8208L9.4547 15.9608C9.7247 16.2508 10.1847 16.2308 10.4747 15.9608C10.7547 15.6808 10.7547 15.2208 10.4747 14.9408L9.3447 13.8008C9.0547 13.5208 8.6047 13.5208 8.3247 13.8008C8.0347 14.1008 8.0547 14.5408 8.3247 14.8208ZM18.1747 17.7808L19.3047 18.8908C19.5847 19.1808 20.0347 19.1808 20.3247 18.8908C20.6147 18.6208 20.6047 18.1608 20.3247 17.8908L19.1847 16.7608C18.9147 16.4808 18.4547 16.4608 18.1747 16.7608C17.8847 17.0308 17.8847 17.5008 18.1747 17.7808ZM14.7147 21.2208L15.8547 22.3608C16.1347 22.6408 16.5947 22.6308 16.8747 22.3608C17.1547 22.0808 17.1647 21.6208 16.8747 21.3408L15.7347 20.2008C15.4647 19.9208 15.0047 19.9208 14.7147 20.2008C14.4347 20.5008 14.4447 20.9408 14.7147 21.2208Z" />
        </svg>
    