
        <svg xmlns="http://www.w3.org/2000/svg" viewBox="0 0 100 100">
            <path d="M12.6023 25.1986C19.5623 25.1986 25.2023 19.5586 25.2023 12.5986C25.2023 5.6386 19.5623 -0.0014 12.6023 -0.0014C5.6323 -0.0014 0.0023 5.6386 0.0023 12.5986C0.0023 19.5586 5.6323 25.1986 12.6023 25.1986ZM3.6523 12.5986C3.6523 7.6486 7.6523 3.6586 12.6023 3.6586C17.5423 3.6586 21.5423 7.6486 21.5423 12.5986C21.5423 13.3086 21.4523 14.0186 21.2923 14.6986H3.9023C3.7423 14.0186 3.6523 13.3086 3.6523 12.5986ZM12.6023 21.5386C9.4923 21.5386 6.7523 19.9586 5.1423 17.5386H20.0523C18.4423 19.9586 15.7123 21.5386 12.6023 21.5386Z" />
        </svg>
    