
        <svg xmlns="http://www.w3.org/2000/svg" viewBox="0 0 100 100">
            <path d="M12.2223 26.5593C18.9723 26.5593 24.4423 21.0793 24.4423 14.3393C24.4423 8.4393 20.2523 3.5193 14.7423 2.3893V0.8993C14.7423 -0.0007 14.0323 -0.2407 13.3623 0.2493L9.5423 3.0493C9.0123 3.4293 9.0223 4.0293 9.5423 4.3993L13.3723 7.1893C14.0323 7.6693 14.7423 7.4493 14.7423 6.5593V5.1493C18.7723 6.2393 21.7623 9.9193 21.7623 14.3393C21.7623 19.6093 17.4923 23.8793 12.2223 23.8793C6.9523 23.8793 2.6823 19.6093 2.6823 14.3393C2.6823 11.3293 4.0623 8.7093 6.2423 6.9693C6.8423 6.4093 7.0423 5.6293 6.5423 4.9993C6.0923 4.4093 5.2123 4.3093 4.5323 4.9193C1.7223 7.1793 0.0023 10.5993 0.0023 14.3393C0.0023 21.0793 5.4723 26.5593 12.2223 26.5593ZM6.9523 12.7293H11.7823C12.1323 13.6193 13.0123 14.2693 14.0323 14.2693C15.0423 14.2693 15.9223 13.6193 16.2823 12.7293H17.5423C18.0023 12.7293 18.4023 12.3393 18.4023 11.8293C18.4023 11.3393 18.0023 10.9393 17.5423 10.9393H16.2923C15.9423 10.0393 15.0423 9.3893 14.0323 9.3893C12.9923 9.3893 12.1123 10.0393 11.7623 10.9393H6.9523C6.4423 10.9393 6.0423 11.3393 6.0423 11.8293C6.0423 12.3393 6.4423 12.7293 6.9523 12.7293ZM14.0323 12.8593C13.4523 12.8593 13.0123 12.4093 13.0123 11.8193C13.0123 11.2593 13.4523 10.8093 14.0323 10.8093C14.5923 10.8093 15.0423 11.2593 15.0423 11.8193C15.0423 12.4093 14.5923 12.8593 14.0323 12.8593ZM6.9023 18.7293H8.1523C8.5223 19.6193 9.3823 20.2693 10.4223 20.2693C11.4423 20.2693 12.3123 19.6193 12.6823 18.7293H17.4823C18.0023 18.7293 18.4023 18.3393 18.4023 17.8293C18.4023 17.3393 18.0023 16.9393 17.4823 16.9393H12.6823C12.3323 16.0393 11.4523 15.3893 10.4223 15.3893C9.3823 15.3893 8.5123 16.0393 8.1523 16.9393H6.9023C6.4423 16.9393 6.0423 17.3393 6.0423 17.8293C6.0423 18.3393 6.4423 18.7293 6.9023 18.7293ZM10.4223 18.8493C9.8423 18.8493 9.4023 18.4093 9.4023 17.8293C9.4023 17.2493 9.8423 16.8093 10.4223 16.8093C10.9923 16.8093 11.4423 17.2493 11.4423 17.8293C11.4423 18.4093 10.9923 18.8493 10.4223 18.8493Z" />
        </svg>
    