
        <svg xmlns="http://www.w3.org/2000/svg" viewBox="0 0 100 100">
            <path d="M4.2817 16.523H20.8817C23.6217 16.523 25.1717 14.993 25.1717 12.253V4.263C25.1717 1.533 23.6217 0.003 20.8817 0.003H4.2817C1.5817 0.003 0.0017 1.533 0.0017 4.263V12.253C0.0017 14.993 1.5517 16.523 4.2817 16.523ZM4.5617 13.253C3.9517 13.253 3.6217 12.923 3.6217 12.313V4.223C3.6217 3.613 3.9517 3.283 4.5617 3.283H20.6117C21.2217 3.283 21.5517 3.613 21.5517 4.223V12.313C21.5517 12.923 21.2217 13.253 20.6117 13.253ZM16.8617 25.543C18.3417 25.543 19.6317 24.683 20.2417 23.433H23.5817C24.4717 23.433 25.1717 22.653 25.1717 21.773C25.1717 20.873 24.4817 20.123 23.5817 20.123H20.2417C19.6317 18.883 18.3517 18.013 16.8617 18.013C15.3917 18.013 14.1017 18.883 13.4917 20.123H1.6017C0.7017 20.123 0.0017 20.893 0.0017 21.773C0.0017 22.643 0.7117 23.433 1.6017 23.433H13.4917C14.1017 24.683 15.3917 25.543 16.8617 25.543ZM16.8617 23.423C15.9517 23.423 15.2217 22.683 15.2217 21.773C15.2217 20.843 15.9517 20.133 16.8617 20.133C17.7917 20.133 18.5017 20.843 18.5017 21.773C18.5017 22.683 17.7917 23.423 16.8617 23.423Z" />
        </svg>
    