
        <svg xmlns="http://www.w3.org/2000/svg" viewBox="0 0 100 100">
            <path d="M18.1917 13.362H26.0317C27.8517 13.362 28.8617 12.382 28.8617 10.572V2.802C28.8617 0.982 27.8517 0.002 26.0317 0.002H18.1917C16.3617 0.002 15.3517 0.982 15.3517 2.802V10.572C15.3517 12.382 16.3617 13.362 18.1917 13.362ZM2.7817 13.262H10.5117C12.3117 13.262 13.3117 12.292 13.3117 10.502V2.872C13.3117 1.082 12.3117 0.102 10.5117 0.102H2.7817C0.9817 0.102 0.0017 1.062 0.0017 2.872V10.502C0.0017 12.302 0.9817 13.262 2.7817 13.262ZM18.2017 11.952C17.2217 11.952 16.7717 11.492 16.7717 10.512V2.862C16.7717 1.872 17.2217 1.422 18.2017 1.422H26.0017C26.9917 1.422 27.4317 1.872 27.4317 2.862V10.512C27.4317 11.492 26.9917 11.952 26.0017 11.952ZM0.6917 17.782C0.3117 17.782 0.0017 18.102 0.0017 18.502C0.0017 18.912 0.3117 19.232 0.6917 19.232H4.1517C4.4617 20.332 5.4817 21.142 6.6817 21.142C7.8717 21.142 8.8917 20.332 9.2117 19.232H28.1417C28.5317 19.232 28.8617 18.912 28.8617 18.502C28.8617 18.102 28.5317 17.782 28.1417 17.782H9.2117C8.8917 16.672 7.8717 15.872 6.6817 15.872C5.4817 15.872 4.4617 16.672 4.1517 17.782ZM6.6817 19.942C5.8717 19.942 5.2417 19.302 5.2417 18.492C5.2417 17.682 5.8717 17.062 6.6817 17.062C7.4917 17.062 8.1217 17.682 8.1217 18.492C8.1217 19.302 7.4917 19.942 6.6817 19.942Z" />
        </svg>
    