
        <svg xmlns="http://www.w3.org/2000/svg" viewBox="0 0 100 100">
            <path d="M22.4917 16.8314H31.7917C34.0517 16.8314 35.5517 15.3414 35.5517 13.0914V3.7114C35.5517 1.4914 34.0517 0.0014 31.7917 0.0014H22.4917C20.2217 0.0014 18.7217 1.4914 18.7217 3.7114V13.0914C18.7217 15.3414 20.2217 16.8314 22.4917 16.8314ZM3.6917 16.6614H12.8017C15.0217 16.6614 16.4917 15.2014 16.4917 13.0114V3.8114C16.4917 1.6314 15.0217 0.1614 12.8017 0.1614H3.6917C1.4717 0.1614 0.0017 1.6314 0.0017 3.8114V13.0114C0.0017 15.2014 1.4717 16.6614 3.6917 16.6614ZM23.4817 12.6414C23.1317 12.6414 22.9117 12.4114 22.9117 12.0614V4.7714C22.9117 4.4214 23.1317 4.1814 23.4817 4.1814H30.7817C31.1417 4.1814 31.3717 4.4214 31.3717 4.7714V12.0614C31.3717 12.4114 31.1417 12.6414 30.7817 12.6414ZM1.8017 20.5614C0.7817 20.5614 0.0017 21.4214 0.0017 22.4414C0.0017 23.4214 0.8017 24.3214 1.8017 24.3214H5.0417C5.7217 25.6214 7.0817 26.4914 8.6417 26.4914C10.1917 26.4914 11.5517 25.6214 12.2317 24.3214H33.7517C34.7417 24.3214 35.5517 23.4014 35.5517 22.4414C35.5517 21.4414 34.7617 20.5614 33.7517 20.5614H12.2317C11.5517 19.2814 10.1917 18.3914 8.6417 18.3914C7.0617 18.3914 5.7217 19.2814 5.0417 20.5614ZM8.6417 24.1614C7.6517 24.1614 6.9117 23.3914 6.9117 22.4414C6.9117 21.4614 7.6517 20.7214 8.6417 20.7214C9.5817 20.7214 10.3617 21.4614 10.3617 22.4414C10.3617 23.3914 9.5817 24.1614 8.6417 24.1614Z" />
        </svg>
    