
        <svg xmlns="http://www.w3.org/2000/svg" viewBox="0 0 100 100">
            <path d="M11.4217 -0.0003C11.1817 -0.0003 10.9917 0.1897 10.9917 0.4297V2.5897C10.9917 2.8397 11.1817 3.0197 11.4217 3.0197C11.6717 3.0197 11.8617 2.8397 11.8617 2.5897V0.4297C11.8617 0.1897 11.6717 -0.0003 11.4217 -0.0003ZM17.9417 2.6997C17.7817 2.5297 17.5117 2.5197 17.3317 2.6997L15.8017 4.2297C15.6317 4.4097 15.6417 4.6897 15.8017 4.8397C15.9617 4.9997 16.2417 5.0197 16.4217 4.8397L17.9417 3.2997C18.1217 3.1297 18.1017 2.8697 17.9417 2.6997ZM4.9117 2.6997C4.7617 2.8697 4.7417 3.1397 4.9117 3.2997L6.4417 4.8397C6.6117 5.0197 6.8917 4.9997 7.0517 4.8397C7.2117 4.6897 7.2217 4.4097 7.0517 4.2297L5.5217 2.6997C5.3517 2.5297 5.0817 2.5397 4.9117 2.6997ZM11.4117 13.3497C13.6717 13.3497 15.5517 11.4797 15.5517 9.2097C15.5517 6.9497 13.6717 5.0897 11.4117 5.0897C9.1417 5.0897 7.2817 6.9497 7.2817 9.2097C7.2817 11.4797 9.1417 13.3497 11.4117 13.3497ZM20.6417 9.2097C20.6417 8.9697 20.4617 8.7797 20.2017 8.7797H18.0617C17.8017 8.7797 17.6217 8.9697 17.6217 9.2097C17.6217 9.4697 17.8017 9.6397 18.0617 9.6397H20.2017C20.4617 9.6397 20.6417 9.4697 20.6417 9.2097ZM2.2117 9.2097C2.2117 9.4697 2.4017 9.6397 2.6517 9.6397H4.8017C5.0517 9.6397 5.2417 9.4697 5.2417 9.2097C5.2417 8.9697 5.0517 8.7797 4.8017 8.7797H2.6517C2.4017 8.7797 2.2117 8.9697 2.2117 9.2097ZM17.9417 15.7397C18.1017 15.5597 18.1217 15.2897 17.9417 15.1297L16.4017 13.5897C16.2417 13.4197 15.9617 13.4297 15.8017 13.5897C15.6417 13.7497 15.6317 14.0297 15.8017 14.1997L17.3317 15.7397C17.5117 15.8997 17.7817 15.8897 17.9417 15.7397ZM4.9117 15.7397C5.0717 15.8897 5.3517 15.8997 5.5217 15.7397L7.0517 14.1997C7.2217 14.0297 7.2117 13.7597 7.0517 13.5897C6.8917 13.4297 6.6117 13.4197 6.4417 13.5897L4.9117 15.1297C4.7417 15.2897 4.7617 15.5597 4.9117 15.7397ZM11.4217 18.4297C11.6717 18.4297 11.8617 18.2497 11.8617 17.9997V15.8397C11.8617 15.5997 11.6717 15.4097 11.4217 15.4097C11.1817 15.4097 10.9917 15.5997 10.9917 15.8397V17.9997C10.9917 18.2497 11.1817 18.4297 11.4217 18.4297ZM14.9917 24.8897C16.1517 24.8897 17.1317 24.0397 17.3417 22.9197H21.1917C21.4217 22.9197 21.6217 22.7197 21.6217 22.4897C21.6217 22.2397 21.4217 22.0597 21.1917 22.0597H17.3417C17.1317 20.9397 16.1517 20.0897 14.9917 20.0897C13.8117 20.0897 12.8317 20.9397 12.6217 22.0597H0.4317C0.2017 22.0597 0.0017 22.2397 0.0017 22.4897C0.0017 22.7197 0.2017 22.9197 0.4317 22.9197H12.6217C12.8317 24.0397 13.8117 24.8897 14.9917 24.8897ZM14.9917 24.0097C14.1217 24.0097 13.4517 23.3297 13.4517 22.4797C13.4517 21.6097 14.1217 20.9397 14.9917 20.9397C15.8417 20.9397 16.5117 21.6097 16.5117 22.4797C16.5117 23.3297 15.8417 24.0097 14.9917 24.0097Z" />
        </svg>
    