
        <svg xmlns="http://www.w3.org/2000/svg" viewBox="0 0 100 100">
            <path d="M3.6817 21.5722H17.8917C20.3517 21.5722 21.5717 20.3722 21.5717 17.9522V3.6322C21.5717 1.2222 20.3517 0.0022 17.8917 0.0022H3.6817C1.2317 0.0022 0.0017 1.2222 0.0017 3.6322V17.9522C0.0017 20.3722 1.2317 21.5722 3.6817 21.5722ZM3.7017 19.6922C2.5317 19.6922 1.8917 19.0622 1.8917 17.8522V3.7422C1.8917 2.5222 2.5317 1.8822 3.7017 1.8822H17.8717C19.0317 1.8822 19.6917 2.5222 19.6917 3.7422V17.8522C19.6917 19.0622 19.0317 19.6922 17.8717 19.6922ZM5.2017 8.2822H10.4617C10.7917 9.2122 11.6717 9.8822 12.7017 9.8822C13.7317 9.8822 14.6117 9.2122 14.9417 8.2822H16.4217C16.8117 8.2822 17.1717 7.9422 17.1717 7.5122C17.1717 7.0922 16.8117 6.7422 16.4217 6.7422H14.9517C14.6217 5.8022 13.7417 5.1322 12.7017 5.1322C11.6717 5.1322 10.7817 5.8022 10.4617 6.7422H5.2017C4.7617 6.7422 4.4217 7.0922 4.4217 7.5122C4.4217 7.9422 4.7617 8.2822 5.2017 8.2822ZM12.7017 8.6722C12.0517 8.6722 11.5417 8.1522 11.5417 7.5022C11.5417 6.8322 12.0517 6.3422 12.7017 6.3422C13.3517 6.3422 13.8617 6.8322 13.8617 7.5022C13.8617 8.1522 13.3517 8.6722 12.7017 8.6722ZM8.8717 11.4522C7.8417 11.4522 6.9617 12.1122 6.6317 13.0522H5.1517C4.7617 13.0522 4.4217 13.3922 4.4217 13.8322C4.4217 14.2522 4.7617 14.6022 5.1517 14.6022H6.6317C6.9517 15.5322 7.8417 16.2022 8.8717 16.2022C9.9117 16.2022 10.7917 15.5322 11.1217 14.6022H16.3717C16.8117 14.6022 17.1717 14.2522 17.1717 13.8322C17.1717 13.3922 16.8117 13.0522 16.3717 13.0522H11.1117C10.7817 12.1122 9.9017 11.4522 8.8717 11.4522ZM8.8717 12.6722C9.5317 12.6722 10.0317 13.1822 10.0317 13.8422C10.0317 14.4922 9.5317 15.0022 8.8717 15.0022C8.2217 15.0022 7.7117 14.4922 7.7117 13.8422C7.7117 13.1822 8.2217 12.6722 8.8717 12.6722Z" />
        </svg>
    