
        <svg xmlns="http://www.w3.org/2000/svg" viewBox="0 0 100 100">
            <path d="M11.9523 23.9041C18.5523 23.9041 23.9023 18.5341 23.9023 11.9541C23.9023 5.3541 18.5523 0.0041 11.9523 0.0041C5.3623 0.0041 0.0023 5.3541 0.0023 11.9541C0.0023 18.5341 5.3623 23.9041 11.9523 23.9041ZM11.9523 16.5841C9.4023 16.5841 7.3223 14.5041 7.3223 11.9541C7.3223 9.3941 9.4023 7.3241 11.9523 7.3241C14.5123 7.3241 16.5823 9.3941 16.5823 11.9541C16.5823 14.5041 14.5123 16.5841 11.9523 16.5841ZM11.9523 14.6441C13.4523 14.6441 14.6523 13.4441 14.6523 11.9541C14.6523 10.4541 13.4523 9.2541 11.9523 9.2541C10.4623 9.2541 9.2623 10.4541 9.2623 11.9541C9.2623 13.4441 10.4623 14.6441 11.9523 14.6441Z" />
        </svg>
    