
        <svg xmlns="http://www.w3.org/2000/svg" viewBox="0 0 100 100">
            <path d="M11.7523 23.5048C18.2423 23.5048 23.5123 18.2448 23.5123 11.7548C23.5123 5.2648 18.2423 0.0048 11.7523 0.0048C5.2623 0.0048 0.0023 5.2648 0.0023 11.7548C0.0023 18.2448 5.2623 23.5048 11.7523 23.5048ZM11.7523 21.9848C6.0923 21.9848 1.5223 17.4148 1.5223 11.7548C1.5223 6.0948 6.0923 1.5148 11.7523 1.5148C17.4123 1.5148 21.9923 6.0948 21.9923 11.7548C21.9923 17.4148 17.4123 21.9848 11.7523 21.9848ZM11.7423 15.9448C14.0623 15.9448 15.9523 14.0648 15.9523 11.7548C15.9523 9.4348 14.0623 7.5548 11.7423 7.5548C9.4323 7.5548 7.5423 9.4348 7.5423 11.7548C7.5423 14.0648 9.4323 15.9448 11.7423 15.9448ZM11.7423 14.5348C10.2023 14.5348 8.9623 13.2848 8.9623 11.7548C8.9623 10.2148 10.2023 8.9748 11.7423 8.9748C13.2823 8.9748 14.5323 10.2148 14.5323 11.7548C14.5323 13.2848 13.2823 14.5348 11.7423 14.5348Z" />
        </svg>
    