
        <svg xmlns="http://www.w3.org/2000/svg" viewBox="0 0 100 100">
            <path d="M12.7923 25.5978C19.8723 25.5978 25.6023 19.8678 25.6023 12.7978C25.6023 5.7278 19.8723 -0.0022 12.7923 -0.0022C5.7323 -0.0022 0.0023 5.7278 0.0023 12.7978C0.0023 19.8678 5.7323 25.5978 12.7923 25.5978ZM12.7923 18.0778C9.8823 18.0778 7.5123 15.7278 7.5123 12.7978C7.5123 9.8678 9.8823 7.5078 12.7923 7.5078C15.7223 7.5078 18.0923 9.8678 18.0923 12.7978C18.0923 15.7278 15.7223 18.0778 12.7923 18.0778ZM12.7923 14.8478C13.9323 14.8478 14.8623 13.9378 14.8623 12.7978C14.8623 11.6578 13.9323 10.7478 12.7923 10.7478C11.6723 10.7478 10.7423 11.6578 10.7423 12.7978C10.7423 13.9378 11.6723 14.8478 12.7923 14.8478Z" />
        </svg>
    