
        <svg xmlns="http://www.w3.org/2000/svg" viewBox="0 0 100 100">
            <path d="M12.6023 25.1969C19.5623 25.1969 25.2023 19.5569 25.2023 12.5969C25.2023 5.6369 19.5623 -0.0031 12.6023 -0.0031C5.6523 -0.0031 0.0023 5.6369 0.0023 12.5969C0.0023 19.5569 5.6523 25.1969 12.6023 25.1969ZM12.6023 20.1169C12.0823 20.1169 11.7223 19.7369 11.7223 19.1969V18.2369L11.2623 18.5669C10.8623 18.8869 10.3823 18.8669 10.0923 18.4569C9.8423 18.0869 9.9423 17.6269 10.3223 17.3769L11.7223 16.4969V15.7769L11.8823 13.8369L10.2823 14.9369L9.6523 15.3069L9.5823 16.9469C9.5623 17.4169 9.2123 17.7269 8.7523 17.6869C8.2523 17.6469 7.9923 17.2269 8.1123 16.7269L8.1523 16.1869L7.3223 16.6569C6.8523 16.9369 6.3523 16.8169 6.0923 16.3569C5.8223 15.9069 5.9723 15.3869 6.4523 15.1269L7.2623 14.6469L6.7723 14.4169C6.2823 14.2469 6.0623 13.8269 6.2623 13.3669C6.4423 12.9369 6.9023 12.7969 7.3323 13.0069L8.7623 13.7769L9.3823 13.4069L11.1523 12.5869L9.3823 11.7669L8.7623 11.4069L7.3323 12.1669C6.9023 12.3869 6.4723 12.2469 6.2423 11.8169C6.0423 11.3569 6.2823 10.9169 6.7723 10.7669L7.2623 10.5269L6.4423 10.0569C5.9723 9.7969 5.8323 9.2969 6.0923 8.8369C6.3523 8.4069 6.8523 8.2569 7.3223 8.5169L8.1523 8.9969L8.1123 8.4369C8.0123 7.9469 8.2723 7.5269 8.7523 7.4969C9.2123 7.4369 9.5623 7.7669 9.5823 8.2369L9.6523 9.8769L10.2823 10.2269L11.8823 11.3369L11.7223 9.3969V8.6669L10.3223 7.8069C9.9223 7.5469 9.8323 7.0869 10.0923 6.7169C10.3823 6.3069 10.8623 6.2769 11.2623 6.6169L11.7223 6.9469V5.9869C11.7223 5.4369 12.0823 5.0669 12.6023 5.0669C13.1123 5.0669 13.4723 5.4369 13.4723 5.9869V6.9469L13.9323 6.6169C14.3223 6.2769 14.8123 6.3169 15.1023 6.7169C15.3523 7.0969 15.2723 7.5569 14.8723 7.8069L13.4723 8.6669V9.3969L13.3223 11.3369L14.9323 10.2269L15.5423 9.8769L15.6123 8.2369C15.6323 7.7669 15.9823 7.4369 16.4523 7.4969C16.9423 7.5269 17.2023 7.9469 17.1023 8.4469L17.0523 8.9969L17.8723 8.5169C18.3423 8.2569 18.8523 8.3869 19.1123 8.8369C19.3623 9.2969 19.2223 9.7869 18.7523 10.0569L17.9323 10.5269L18.4223 10.7669C18.9123 10.9169 19.1323 11.3669 18.9523 11.7969C18.7423 12.2469 18.2923 12.3869 17.8623 12.1669L16.4323 11.3869L15.8123 11.7669L14.0523 12.5869L15.8123 13.4069L16.4323 13.7769L17.8623 13.0069C18.2923 12.8069 18.7223 12.9369 18.9523 13.3669C19.1323 13.8269 18.9123 14.2469 18.4223 14.4169L17.9323 14.6469L18.7523 15.1269C19.2223 15.3869 19.3623 15.8869 19.1023 16.3569C18.8423 16.8169 18.3423 16.9369 17.8723 16.6569L17.0523 16.1669L17.1023 16.7469C17.1923 17.2269 16.9223 17.6369 16.4523 17.6869C15.9823 17.7269 15.6323 17.4169 15.6123 16.9469L15.5423 15.3169L14.9323 14.9569L13.3223 13.8469L13.4723 15.7769V16.4969L14.8723 17.3769C15.2723 17.6269 15.3523 18.0869 15.1023 18.4569C14.8023 18.8669 14.3223 18.9069 13.9323 18.5669L13.4723 18.2369V19.1969C13.4723 19.7369 13.1123 20.1169 12.6023 20.1169Z" />
        </svg>
    