
        <svg xmlns="http://www.w3.org/2000/svg" viewBox="0 0 100 100">
            <path d="M29.0679 4.4898H30.4379C31.1579 4.4898 31.7379 3.8398 31.2979 2.9598L30.2679 0.9598C29.9379 0.3198 29.3879 -0.0002 28.7779 -0.0002H27.8979C27.0179 -0.0002 26.5479 0.8098 26.8779 1.6398L27.6079 3.4498C27.9079 4.2098 28.2879 4.4898 29.0679 4.4898ZM8.4579 4.4998H9.8279C10.5979 4.4998 10.9879 4.2198 11.2979 3.4598L12.0179 1.6498C12.3479 0.8198 11.8779 0.0198 10.9979 0.0198H10.1179C9.4979 0.0198 8.9579 0.3298 8.6179 0.9698L7.5979 2.9798C7.1579 3.8598 7.7279 4.4998 8.4579 4.4998ZM19.4479 17.9298C19.9979 17.9298 20.3779 17.5298 20.3779 16.9698V16.1398L20.6479 16.3698C21.0279 16.7598 21.5379 16.7298 21.8679 16.3198C22.1479 15.9098 22.0479 15.4498 21.6379 15.1898L20.3779 14.3698V13.6898L20.2079 11.9298L21.6679 12.9598L22.2379 13.2898L22.3279 14.7898C22.3579 15.2798 22.7279 15.5898 23.2079 15.5298C23.7179 15.4698 23.9879 15.0398 23.8679 14.5298L23.7879 14.1798L24.4979 14.5898C24.9879 14.8798 25.5279 14.7498 25.7879 14.2598C26.0579 13.7798 25.9179 13.2398 25.4179 12.9698L24.7179 12.5598L25.0479 12.4498C25.5679 12.2998 25.8079 11.8598 25.6179 11.3798C25.3979 10.9198 24.9579 10.7798 24.5279 10.9798L23.1779 11.6698L22.5979 11.3298L20.9879 10.5898L22.5979 9.8698L23.1779 9.5198L24.5279 10.2098C24.9579 10.4298 25.3979 10.2698 25.6179 9.7998C25.8079 9.3498 25.5679 8.8798 25.0479 8.7398L24.7179 8.6298L25.4179 8.2098C25.9179 7.9198 26.0579 7.4098 25.7979 6.9398C25.5279 6.4698 24.9879 6.3298 24.4979 6.5998L23.7879 7.0098L23.8679 6.6698C23.9979 6.1498 23.7379 5.7098 23.2179 5.6598C22.7279 5.5998 22.3579 5.9198 22.3279 6.3998L22.2379 7.9198L21.6679 8.2498L20.2079 9.2698L20.3779 7.4998V6.8298L21.6379 5.9998C22.0479 5.7398 22.1479 5.2698 21.8679 4.8598C21.5479 4.4598 21.0279 4.4498 20.6479 4.8198L20.3779 5.0498V4.2198C20.3779 3.6598 19.9979 3.2598 19.4479 3.2598C18.9079 3.2598 18.5379 3.6598 18.5379 4.2198V5.0498L18.2679 4.8198C17.8679 4.4498 17.3479 4.4598 17.0379 4.8598C16.7579 5.2498 16.8379 5.7298 17.2579 5.9998L18.5379 6.8298V7.4998L18.6979 9.2698L17.2379 8.2498L16.6579 7.9198L16.5779 6.3998C16.5479 5.9198 16.1779 5.5998 15.6879 5.6598C15.1879 5.7098 14.9279 6.1498 15.0479 6.6598L15.1179 7.0098L14.4079 6.5998C13.9079 6.3298 13.3779 6.4698 13.0979 6.9398C12.8379 7.4098 12.9879 7.9498 13.4679 8.2098L14.1879 8.6298L13.8579 8.7398C13.3279 8.8798 13.0779 9.3298 13.2879 9.8198C13.4979 10.2698 13.9379 10.4298 14.3879 10.2098L15.7379 9.5198L16.3079 9.8698L17.9279 10.5898L16.3079 11.3298L15.7379 11.6698L14.3879 10.9798C13.9379 10.7698 13.4679 10.9198 13.2879 11.3898C13.0779 11.8598 13.3479 12.2998 13.8579 12.4498L14.1879 12.5598L13.4879 12.9698C12.9879 13.2398 12.8279 13.7898 13.0979 14.2598C13.3779 14.7498 13.9079 14.8798 14.4079 14.5898L15.1179 14.1798L15.0479 14.5198C14.9179 15.0398 15.1679 15.4798 15.6879 15.5298C16.1779 15.5898 16.5479 15.2798 16.5779 14.7898L16.6579 13.2698L17.2379 12.9398L18.6979 11.9198L18.5379 13.6898V14.3698L17.2579 15.1898C16.8479 15.4498 16.7679 15.9098 17.0379 16.3198C17.3479 16.7298 17.8679 16.7298 18.2679 16.3698L18.5379 16.1398V16.9698C18.5379 17.5298 18.9079 17.9298 19.4479 17.9298ZM31.8279 11.6298H33.8179C34.7279 11.6298 35.2679 10.7698 34.8079 9.8798L33.2779 6.8398C33.0579 6.3998 32.5979 6.1198 32.0779 6.1198H30.3479C29.3779 6.1198 28.9879 6.8898 29.2979 7.6498L30.5479 10.7798C30.7579 11.3198 31.2379 11.6298 31.8279 11.6298ZM5.0779 11.6398H7.0779C7.6479 11.6398 8.1379 11.3298 8.3479 10.7898L9.6079 7.6598C9.9079 6.8998 9.5279 6.1298 8.5479 6.1298H6.8079C6.2979 6.1298 5.8479 6.4098 5.6179 6.8598L4.0779 9.8898C3.6279 10.7798 4.1679 11.6398 5.0779 11.6398ZM35.5879 19.7698H37.2279C38.7379 19.7698 39.2279 18.4998 38.6779 17.4398L37.1179 14.3698C36.7079 13.5598 36.1579 13.2898 35.3179 13.2898H33.4679C32.4079 13.2898 31.8979 14.1398 32.2479 15.0098L33.6279 18.4598C33.9179 19.1798 34.5079 19.7698 35.5879 19.7698ZM1.6579 19.7798H3.3079C4.3879 19.7798 4.9779 19.1998 5.2679 18.4698L6.6479 15.0198C7.0079 14.1598 6.4879 13.2998 5.4379 13.2998H3.5779C2.7279 13.2998 2.1879 13.5798 1.7779 14.3798L0.2179 17.4498C-0.3321 18.5198 0.1579 19.7798 1.6579 19.7798Z" />
        </svg>
    