
        <svg xmlns="http://www.w3.org/2000/svg" viewBox="0 0 100 100">
            <path d="M1.8852 26.998C4.4852 29.598 7.8652 29.498 10.6152 26.758C11.8152 25.558 14.2252 22.018 18.1152 18.128C22.0152 14.218 25.5452 11.818 26.7552 10.608C29.5052 7.868 29.5952 4.498 26.9852 1.888C24.3852 -0.712 21.0252 -0.622 18.2652 2.128C17.0652 3.338 14.6652 6.858 10.7552 10.768C6.8652 14.668 3.3252 17.068 2.1352 18.268C-0.6248 21.018 -0.7148 24.388 1.8852 26.998ZM3.1752 25.708C1.3452 23.898 1.4452 21.508 3.3952 19.538C4.5352 18.408 8.0552 16.018 12.0252 12.018C16.0052 8.058 18.4152 4.528 19.5452 3.408C21.5052 1.438 23.8952 1.338 25.7152 3.168C27.5352 4.988 27.4452 7.378 25.4852 9.348C24.3552 10.478 20.8352 12.878 16.8652 16.868C12.8652 20.828 10.4752 24.348 9.3452 25.478C7.3752 27.448 4.9852 27.548 3.1752 25.708ZM14.7752 12.568L16.3152 14.108C16.8452 14.618 17.6152 14.618 18.1052 14.108C18.5952 13.608 18.6052 12.828 18.1052 12.318L16.5552 10.778C16.0552 10.268 15.2552 10.288 14.7652 10.778C14.2652 11.268 14.2752 12.068 14.7752 12.568ZM10.7552 16.598L12.2952 18.128C12.7952 18.638 13.5852 18.628 14.0852 18.138C14.5952 17.618 14.5952 16.868 14.0852 16.368L12.5152 14.808C12.0152 14.288 11.2552 14.288 10.7552 14.788C10.2452 15.298 10.2552 16.088 10.7552 16.598Z" />
        </svg>
    