
        <svg xmlns="http://www.w3.org/2000/svg" viewBox="0 0 100 100">
            <path d="M11.2607 25.5227C12.1507 25.5227 12.7207 24.9027 12.7207 23.9727V22.1627L13.4607 22.8327C14.0607 23.4127 14.8607 23.4227 15.3607 22.7827C15.7907 22.1927 15.7507 21.4327 15.0407 20.9627L12.7207 19.4727V18.2127L12.4007 14.7727L15.2407 16.7727L16.3207 17.4027L16.4707 20.1327C16.5307 20.9727 17.1707 21.4027 17.8707 21.3027C18.6907 21.2127 19.0807 20.5127 18.8807 19.7127L18.6707 18.7527L20.2407 19.6527C21.0307 20.1127 21.8807 19.9127 22.3007 19.1327C22.7207 18.3827 22.4907 17.5427 21.7007 17.0927L20.1407 16.1827L21.0807 15.8927C21.8607 15.6727 22.3007 14.9727 21.9707 14.2027C21.6907 13.5627 21.0107 13.2327 20.2607 13.5927L17.8007 14.8327L16.7107 14.2027L13.5707 12.7627L16.7107 11.3127L17.8007 10.6827L20.2607 11.9427C21.0107 12.3127 21.6907 11.9627 21.9807 11.2927C22.3107 10.5627 21.8807 9.8627 21.0807 9.6327L20.1407 9.3427L21.7007 8.4227C22.5007 7.9527 22.7307 7.1527 22.3107 6.3827C21.8807 5.6327 21.0207 5.4227 20.2407 5.8727L18.6707 6.7727L18.8807 5.8227C19.0907 5.0027 18.6907 4.3027 17.8807 4.2227C17.1807 4.1327 16.5307 4.5627 16.4707 5.3927L16.3207 8.1427L15.2407 8.7727L12.4007 10.7727L12.7207 7.3127V6.0427L15.0407 4.5427C15.7507 4.0927 15.7807 3.3327 15.3607 2.7427C14.8807 2.0927 14.0607 2.1127 13.4607 2.6927L12.7207 3.3627V1.5427C12.7207 0.6227 12.1507 0.0027 11.2607 0.0027C10.3907 0.0027 9.7907 0.6327 9.7907 1.5427V3.3627L9.0607 2.6927C8.4507 2.1127 7.6607 2.0927 7.1507 2.7427C6.7207 3.3327 6.7707 4.0927 7.4707 4.5427L9.7907 6.0427V7.3127L10.1207 10.7827L7.2607 8.7727L6.2007 8.1327L6.0407 5.3927C5.9907 4.5627 5.3407 4.1327 4.6407 4.2227C3.8307 4.3027 3.4407 5.0127 3.6307 5.8127L3.8507 6.7727L2.2807 5.8727C1.5007 5.4227 0.6407 5.6327 0.2107 6.3827C-0.2093 7.1527 0.0207 7.9827 0.8107 8.4227L2.3807 9.3427L1.4407 9.6327C0.6407 9.8627 0.2207 10.5727 0.5507 11.3127C0.8407 11.9627 1.5107 12.3127 2.2607 11.9427L4.7007 10.6827L5.8007 11.3127L8.9507 12.7627L5.8007 14.2027L4.7107 14.8327L2.2607 13.5827C1.5107 13.1927 0.8307 13.5627 0.5407 14.2127C0.2107 14.9627 0.6407 15.6527 1.4407 15.8927L2.3807 16.1827L0.8207 17.0927C0.0307 17.5427 -0.2193 18.3827 0.2107 19.1327C0.6407 19.9127 1.4907 20.1127 2.2807 19.6527L3.8507 18.7527L3.6307 19.7027C3.4307 20.5127 3.8307 21.2227 4.6407 21.3027C5.3507 21.3827 5.9907 20.9627 6.0407 20.1327L6.2007 17.3827L7.2607 16.7427L10.1207 14.7527L9.7907 18.2127V19.4727L7.4707 20.9627C6.7707 21.4327 6.7407 22.1927 7.1507 22.7827C7.6407 23.4227 8.4507 23.4127 9.0607 22.8327L9.7907 22.1627V23.9727C9.7907 24.8827 10.3907 25.5227 11.2607 25.5227Z" />
        </svg>
    