
        <svg xmlns="http://www.w3.org/2000/svg" viewBox="0 0 100 100">
            <path d="M35.5929 19.7698H37.2329C38.7429 19.7698 39.2329 18.4998 38.6829 17.4398L30.2829 0.9598C29.9429 0.3198 29.3929 -0.0002 28.7829 -0.0002H27.9029C27.0229 -0.0002 26.5529 0.8098 26.8829 1.6398L33.6329 18.4598C33.9229 19.1798 34.5129 19.7698 35.5929 19.7698ZM1.6629 19.7798H3.3129C4.3929 19.7798 4.9829 19.1998 5.2729 18.4698L12.0229 1.6498C12.3529 0.8198 11.8829 0.0198 11.0029 0.0198H10.1229C9.5029 0.0198 8.9629 0.3298 8.6229 0.9698L0.2229 17.4498C-0.3371 18.5198 0.1629 19.7798 1.6629 19.7798ZM19.4529 17.9298C20.0029 17.9298 20.3829 17.5298 20.3829 16.9698V16.1398L20.6429 16.3698C21.0329 16.7598 21.5429 16.7298 21.8729 16.3198C22.1529 15.9098 22.0529 15.4498 21.6429 15.1898L20.3829 14.3698V13.6898L20.2129 11.9298L21.6729 12.9598L22.2429 13.2898L22.3329 14.7898C22.3629 15.2798 22.7329 15.5898 23.2129 15.5298C23.7229 15.4698 23.9929 15.0398 23.8629 14.5298L23.7929 14.1798L24.5029 14.5898C24.9929 14.8798 25.5329 14.7498 25.7929 14.2598C26.0629 13.7798 25.9229 13.2398 25.4229 12.9698L24.7229 12.5598L25.0529 12.4498C25.5729 12.2998 25.8129 11.8598 25.6229 11.3798C25.4029 10.9198 24.9629 10.7798 24.5329 10.9798L23.1829 11.6698L22.6029 11.3298L20.9929 10.5898L22.6029 9.8698L23.1829 9.5198L24.5329 10.2098C24.9629 10.4298 25.4029 10.2698 25.6229 9.7998C25.8129 9.3498 25.5729 8.8798 25.0529 8.7398L24.7229 8.6298L25.4229 8.2098C25.9229 7.9198 26.0629 7.4098 25.8029 6.9398C25.5329 6.4698 24.9929 6.3298 24.5029 6.5998L23.7929 7.0098L23.8629 6.6698C24.0029 6.1498 23.7429 5.7098 23.2229 5.6598C22.7329 5.5998 22.3629 5.9198 22.3329 6.3998L22.2429 7.9198L21.6729 8.2498L20.2129 9.2698L20.3829 7.4998V6.8298L21.6429 5.9998C22.0529 5.7398 22.1529 5.2698 21.8729 4.8598C21.5529 4.4598 21.0329 4.4498 20.6429 4.8198L20.3829 5.0498V4.2198C20.3829 3.6598 20.0029 3.2598 19.4529 3.2598C18.9129 3.2598 18.5429 3.6598 18.5429 4.2198V5.0498L18.2729 4.8198C17.8729 4.4498 17.3529 4.4598 17.0429 4.8598C16.7629 5.2498 16.8429 5.7298 17.2629 5.9998L18.5429 6.8298V7.4998L18.7029 9.2698L17.2429 8.2498L16.6629 7.9198L16.5829 6.3998C16.5529 5.9198 16.1829 5.5998 15.6929 5.6598C15.1929 5.7098 14.9329 6.1498 15.0529 6.6598L15.1229 7.0098L14.4129 6.5998C13.9129 6.3298 13.3829 6.4698 13.1029 6.9398C12.8429 7.4098 12.9929 7.9498 13.4729 8.2098L14.1929 8.6298L13.8629 8.7398C13.3329 8.8798 13.0829 9.3298 13.2929 9.8198C13.5029 10.2698 13.9429 10.4298 14.3929 10.2098L15.7429 9.5198L16.3029 9.8698L17.9329 10.5898L16.3029 11.3298L15.7429 11.6698L14.3929 10.9798C13.9429 10.7698 13.4729 10.9198 13.2929 11.3898C13.0829 11.8598 13.3529 12.2998 13.8629 12.4498L14.1929 12.5598L13.4929 12.9698C12.9929 13.2398 12.8329 13.7898 13.1029 14.2598C13.3829 14.7498 13.9129 14.8798 14.4129 14.5898L15.1229 14.1798L15.0529 14.5198C14.9229 15.0398 15.1729 15.4798 15.6929 15.5298C16.1829 15.5898 16.5529 15.2798 16.5829 14.7898L16.6629 13.2698L17.2429 12.9398L18.7029 11.9198L18.5429 13.6898V14.3698L17.2629 15.1898C16.8529 15.4498 16.7729 15.9098 17.0429 16.3198C17.3529 16.7298 17.8729 16.7298 18.2729 16.3698L18.5429 16.1398V16.9698C18.5429 17.5298 18.9129 17.9298 19.4529 17.9298Z" />
        </svg>
    