
        <svg xmlns="http://www.w3.org/2000/svg" viewBox="0 0 100 100">
            <path d="M12.3723 24.7459C19.2023 24.7459 24.7523 19.2059 24.7523 12.3759C24.7523 5.5459 19.2023 -0.0041 12.3723 -0.0041C5.5423 -0.0041 0.0023 5.5459 0.0023 12.3759C0.0023 19.2059 5.5423 24.7459 12.3723 24.7459ZM12.3723 21.6659C7.2423 21.6659 3.0823 17.5059 3.0823 12.3759C3.0823 7.2259 7.2423 3.0859 12.3723 3.0859C17.5223 3.0859 21.6723 7.2259 21.6723 12.3759C21.6723 17.5059 17.5223 21.6659 12.3723 21.6659ZM12.3623 19.3959C12.8123 19.3959 13.1123 19.0759 13.1123 18.6259V17.5859L13.7323 17.9859C14.1023 18.2559 14.4923 18.2059 14.7423 17.8559C14.9523 17.5359 14.8623 17.1359 14.5123 16.9259L13.1123 16.0859V15.3659L12.9723 13.4259L14.6023 14.5159L15.2123 14.8759L15.2423 16.4859C15.2623 16.8959 15.5523 17.1959 15.9523 17.1659C16.3623 17.1359 16.5923 16.8059 16.5423 16.3759L16.5123 15.6259L17.4023 16.1359C17.8023 16.3759 18.2223 16.2659 18.4423 15.8759C18.6523 15.4959 18.5423 15.0659 18.1523 14.8359L17.2623 14.3359L17.9223 13.9959C18.3123 13.8159 18.4923 13.4459 18.3123 13.0659C18.1323 12.7159 17.7323 12.6059 17.3623 12.7859L15.9623 13.5859L15.3423 13.2059L13.5823 12.3659L15.3423 11.5159L15.9623 11.1559L17.3623 11.9459C17.7323 12.1259 18.1423 12.0259 18.3123 11.6559C18.4923 11.2959 18.3123 10.9259 17.9223 10.7459L17.2623 10.3959L18.1523 9.8859C18.5423 9.6559 18.6523 9.2459 18.4423 8.8559C18.2323 8.4859 17.8023 8.3659 17.4023 8.5859L16.5123 9.1059L16.5423 8.3659C16.6023 7.9359 16.3723 7.5959 15.9523 7.5659C15.5523 7.5459 15.2623 7.8259 15.2423 8.2359L15.2123 9.8659L14.6023 10.2159L12.9723 11.3059L13.1123 9.3659V8.6459L14.5123 7.8159C14.8623 7.5959 14.9523 7.1959 14.7423 6.8659C14.5123 6.5259 14.1023 6.4759 13.7323 6.7459L13.1123 7.1459V6.1159C13.1123 5.6559 12.8123 5.3459 12.3623 5.3459C11.9323 5.3459 11.6223 5.6559 11.6223 6.1159V7.1459L10.9923 6.7459C10.6323 6.4959 10.2323 6.5259 9.9923 6.8659C9.7823 7.1959 9.8823 7.5959 10.2323 7.8159L11.6223 8.6459V9.3659L11.7623 11.3059L10.1523 10.2159L9.5323 9.8659L9.4923 8.2359C9.4823 7.8259 9.1923 7.5459 8.7923 7.5659C8.3823 7.5959 8.1423 7.9259 8.1923 8.3559L8.2223 9.1059L7.3323 8.5859C6.9423 8.3659 6.5023 8.4859 6.2923 8.8559C6.0723 9.2459 6.2023 9.6659 6.5823 9.8859L7.4723 10.3959L6.8223 10.7459C6.4123 10.9059 6.2323 11.2859 6.4223 11.6759C6.6023 12.0259 6.9923 12.1259 7.3723 11.9459L8.7823 11.1559L9.4023 11.5159L11.1523 12.3659L9.4023 13.2059L8.7823 13.5859L7.3723 12.7859C6.9923 12.5959 6.5823 12.7059 6.4223 13.0659C6.2423 13.4459 6.4123 13.8159 6.8223 13.9959L7.4723 14.3359L6.5823 14.8359C6.2023 15.0659 6.0723 15.4959 6.2923 15.8759C6.5123 16.2659 6.9423 16.3759 7.3323 16.1359L8.2223 15.6259L8.1923 16.3759C8.1323 16.8059 8.3623 17.1459 8.7923 17.1659C9.1923 17.1959 9.4823 16.8959 9.4923 16.4859L9.5323 14.8759L10.1523 14.5059L11.7623 13.4259L11.6223 15.3659V16.0859L10.2323 16.9259C9.8923 17.1359 9.7823 17.5359 9.9923 17.8559C10.2323 18.2059 10.6323 18.2459 10.9923 17.9859L11.6223 17.5859V18.6259C11.6223 19.0659 11.9323 19.3959 12.3623 19.3959Z" />
        </svg>
    