
        <svg xmlns="http://www.w3.org/2000/svg" viewBox="0 0 100 100">
            <path d="M12.7792 9.2316L12.9292 6.8416V5.4216L15.5692 3.8816C16.0892 3.5516 16.1892 3.0116 15.9192 2.5616C15.5892 2.0716 15.0292 2.0516 14.5392 2.4016L12.9292 3.4016V1.0816C12.9292 0.4316 12.5392 0.0016 11.9092 0.0016C11.2992 0.0016 10.8892 0.4416 10.8892 1.0816V3.4016L9.2592 2.4016C8.7692 2.0516 8.2292 2.0716 7.8892 2.5616C7.6092 3.0116 7.7292 3.5516 8.2492 3.8816L10.8892 5.4216V6.7216L10.9092 7.3716ZM22.1892 23.7816C22.5592 24.1516 23.1792 24.1516 23.5492 23.7816C23.9092 23.3916 23.9192 22.7916 23.5492 22.4216L1.6292 0.5116C1.2692 0.1416 0.6492 0.1416 0.2692 0.5116C-0.0908 0.8816 -0.0908 1.5116 0.2692 1.8716ZM14.9492 11.4016L17.0092 10.3816L18.2292 9.6716L20.8892 11.1816C21.4292 11.4716 21.9592 11.2816 22.1992 10.8316C22.4692 10.3016 22.2092 9.8016 21.6592 9.5516L19.9992 8.6616L21.9992 7.5016C22.5592 7.1816 22.7092 6.6216 22.4092 6.0716C22.1192 5.5416 21.5392 5.4016 20.9792 5.7216L18.9592 6.8716L19.0192 4.9816C19.0892 4.3816 18.7892 3.9116 18.1892 3.8916C17.6792 3.8516 17.2492 4.2316 17.2392 4.8416L17.2092 7.9016L15.9892 8.6016L13.6692 10.1416ZM2.9292 11.1816L5.6392 9.6416L2.1092 6.1216L1.5892 5.8816C1.5192 5.9216 1.4492 5.9716 1.3992 6.0716C1.0892 6.6216 1.2292 7.2616 1.8092 7.5016L4.1792 8.5516L2.1492 9.5516C1.6092 9.8016 1.3492 10.2916 1.6092 10.8316C1.8592 11.3016 2.3792 11.4716 2.9292 11.1816ZM8.8692 12.8816L6.8092 13.9016L5.5792 14.6016L2.9192 13.1016C2.3892 12.8016 1.8592 12.9816 1.6292 13.4416C1.3492 13.9916 1.6092 14.4716 2.1492 14.7216L3.8192 15.6216L1.8192 16.7816C1.2692 17.0816 1.0892 17.6816 1.3992 18.2116C1.7092 18.7516 2.2892 18.8716 2.8392 18.5616L4.8592 17.4016L4.7992 19.2916C4.7292 19.8916 5.0292 20.3716 5.6292 20.3916C6.1392 20.4116 6.5692 20.0416 6.5792 19.4316L6.6092 16.3716L7.8292 15.6816L10.1392 14.1416ZM18.1592 14.6216L21.6992 18.1616L22.2192 18.3916C22.2892 18.3516 22.3392 18.2916 22.3992 18.2116C22.7092 17.6816 22.5292 17.0816 21.9892 16.7716L19.9092 15.6416L21.6492 14.7216C22.1892 14.4716 22.4592 13.9816 22.1892 13.4516C21.9392 12.9816 21.3992 12.8116 20.8592 13.1016ZM11.0392 15.0516L10.8892 17.4416V18.8416L8.2492 20.4016C7.7292 20.7216 7.6192 21.2716 7.8892 21.7016C8.2292 22.1916 8.7692 22.2316 9.2592 21.8816L10.8892 20.8716V23.1916C10.8892 23.8316 11.2992 24.2816 11.9092 24.2816C12.5392 24.2816 12.9292 23.8316 12.9292 23.1916V20.8816L14.5392 21.8816C15.0292 22.2316 15.5792 22.1916 15.9192 21.7016C16.1892 21.2716 16.0892 20.7216 15.5692 20.4016L12.9292 18.8516V17.5516L12.9092 16.9216Z" />
        </svg>
    