
        <svg xmlns="http://www.w3.org/2000/svg" viewBox="0 0 100 100">
            <path d="M11.9523 23.9041C18.5523 23.9041 23.9023 18.5341 23.9023 11.9541C23.9023 5.3541 18.5523 0.0041 11.9523 0.0041C5.3623 0.0041 0.0023 5.3541 0.0023 11.9541C0.0023 18.5341 5.3623 23.9041 11.9523 23.9041ZM11.9623 18.2141C8.5423 18.2141 5.7023 15.3741 5.7023 11.9541C5.7023 8.5341 8.5323 5.6841 11.9523 5.6841C15.3823 5.6841 18.2323 8.5341 18.2323 11.9541C18.2323 15.3741 15.3823 18.2141 11.9623 18.2141ZM11.9623 6.6341C11.3223 6.6341 10.6623 6.7541 10.0823 6.9841L11.6023 8.1841V9.8241L9.9523 11.0741L8.4023 10.4541L7.8423 8.6041C7.0923 9.5141 6.6223 10.6741 6.6223 11.9641L8.1223 11.1341L9.7523 11.7841L10.3723 13.7041L9.4923 14.8041L7.4923 14.8241C8.1823 15.9041 9.2323 16.7041 10.4723 17.0641L10.0523 15.2741L10.8623 14.2341H13.0523L13.8623 15.2741L13.4523 17.0641C14.6823 16.7041 15.7423 15.9041 16.4323 14.8241L14.4423 14.8041L13.5423 13.6841L14.1723 11.7841L15.7923 11.1341L17.2923 11.9641C17.2923 10.6741 16.8323 9.5141 16.0923 8.6041L15.5123 10.4541L13.9723 11.0741L12.3323 9.8241V8.1841L13.8423 6.9841C13.2523 6.7541 12.6223 6.6341 11.9623 6.6341Z" />
        </svg>
    