
        <svg xmlns="http://www.w3.org/2000/svg" viewBox="0 0 100 100">
            <path d="M11.3523 22.7064C17.6323 22.7064 22.7123 17.6264 22.7123 11.3564C22.7123 5.0764 17.6323 -0.0036 11.3523 -0.0036C5.0823 -0.0036 0.0023 5.0764 0.0023 11.3564C0.0023 17.6264 5.0823 22.7064 11.3523 22.7064ZM11.6523 6.9164V4.3564L15.3723 1.3464C16.9823 1.9964 18.4023 3.0264 19.5123 4.3164L18.1023 8.9364L15.6123 9.9464ZM4.6023 8.9364L3.2023 4.3164C4.3123 3.0264 5.7223 2.0064 7.3223 1.3564L11.0623 4.3864V6.9164L7.1123 9.9464ZM0.5823 11.6164L4.3923 9.4964L6.9423 10.5164L8.4223 15.1264L7.0823 16.8564L2.1223 16.9064C1.1823 15.3664 0.6323 13.5564 0.5823 11.6164ZM15.6323 16.8564L14.2823 15.1264L15.7723 10.5164L18.3323 9.4964L22.1323 11.6164C22.0923 13.5564 21.5323 15.3664 20.5923 16.9064ZM11.3523 22.1364C10.4023 22.1364 9.4823 22.0064 8.6023 21.7764L7.5423 17.2264L8.6823 15.7664H14.0423L15.1723 17.2264L14.1223 21.7764C13.2423 22.0064 12.3123 22.1364 11.3523 22.1364Z" />
        </svg>
    