
        <svg xmlns="http://www.w3.org/2000/svg" viewBox="0 0 100 100">
            <path d="M11.3523 22.7064C17.6023 22.7064 22.7123 17.6064 22.7123 11.3564C22.7123 5.1064 17.6023 -0.0036 11.3523 -0.0036C5.1123 -0.0036 0.0023 5.1064 0.0023 11.3564C0.0023 17.6064 5.1123 22.7064 11.3523 22.7064ZM11.3523 17.5464C7.9323 17.5464 5.1723 14.7764 5.1723 11.3564C5.1723 7.9364 7.9323 5.1664 11.3523 5.1664C14.7823 5.1664 17.5423 7.9364 17.5423 11.3564C17.5423 14.7764 14.7823 17.5464 11.3523 17.5464ZM11.3523 5.7464C10.6123 5.7464 9.9023 5.8964 9.2623 6.1364L11.0623 7.6064V9.1364L9.2623 10.5364L7.7923 9.9364L7.1023 7.6864C6.2623 8.6764 5.7423 9.9564 5.7423 11.4964L7.5223 10.4864L9.1323 11.1364L9.7823 13.1864L8.9623 14.2264L6.5523 14.2664C7.3023 15.4764 8.4923 16.4164 9.9223 16.7964L9.4123 14.6064L10.1623 13.6564H12.5523L13.3023 14.6164L12.7923 16.7964C14.2123 16.4164 15.4223 15.4764 16.1623 14.2664L13.7723 14.2264L12.9423 13.1564L13.5823 11.1364L15.1923 10.4864L16.9723 11.4964C16.9723 9.9564 16.4623 8.6764 15.6123 7.6864L14.9223 9.9464L13.4523 10.5364L11.6623 9.1364V7.5864L13.4523 6.1364C12.7923 5.8664 12.0923 5.7464 11.3523 5.7464Z" />
        </svg>
    