
        <svg xmlns="http://www.w3.org/2000/svg" viewBox="0 0 100 100">
            <path d="M6.9817 10.2309H16.4717V2.4409C16.4717 0.9709 15.5417 0.0009 14.1717 0.0009H5.4717C4.0917 0.0009 3.1617 0.9709 3.1617 2.4409V4.4509H3.5817C5.5517 4.4509 6.9817 5.8709 6.9817 7.8409ZM17.7217 10.2309H27.2117V7.8409C27.2117 5.8709 28.6317 4.4509 30.6017 4.4509H31.0217V2.4409C31.0217 0.9709 30.0917 0.0009 28.7217 0.0009H20.0317C18.6417 0.0009 17.7217 0.9709 17.7217 2.4409ZM0.0017 14.9309C0.0017 16.2409 0.8817 17.1109 2.1917 17.1109H2.8617V18.5609C2.8617 19.1509 3.2117 19.4909 3.7817 19.4909H4.4317C5.0017 19.4909 5.3517 19.1509 5.3517 18.5609V17.1109H28.8417V18.5609C28.8417 19.1509 29.1817 19.4909 29.7517 19.4909H30.4117C30.9817 19.4909 31.3217 19.1509 31.3217 18.5609V17.1109H32.0017C33.3017 17.1109 34.1917 16.2409 34.1917 14.9309V7.8409C34.1917 6.5309 33.3017 5.6609 32.0017 5.6609H30.6017C29.3017 5.6609 28.4217 6.5309 28.4217 7.8409V11.4409H5.7817V7.8409C5.7817 6.5309 4.9017 5.6609 3.5817 5.6609H2.1917C0.8817 5.6609 0.0017 6.5309 0.0017 7.8409Z" />
        </svg>
    