
        <svg xmlns="http://www.w3.org/2000/svg" viewBox="0 0 100 100">
            <path d="M11.4923 22.977C17.8123 22.977 22.9823 17.827 22.9823 11.497C22.9823 5.167 17.8123 -0.003 11.4923 -0.003C5.1723 -0.003 0.0023 5.167 0.0023 11.497C0.0023 17.827 5.1723 22.977 11.4923 22.977ZM5.7623 15.537C4.1823 15.537 3.4023 14.747 3.3323 13.327C3.3123 13.207 3.4023 13.127 3.5123 13.127H4.6723C4.7923 13.127 4.8423 13.197 4.8623 13.297C4.9223 13.907 5.2523 14.247 5.8023 14.247C6.3423 14.247 6.6323 13.967 6.6323 13.427C6.6323 12.927 6.3323 12.667 5.5623 12.277L5.0723 12.027C3.8923 11.427 3.4323 10.767 3.4323 9.657C3.4323 8.317 4.3023 7.417 5.7623 7.417C7.2923 7.417 8.0023 8.287 8.0723 9.607C8.0723 9.747 7.9923 9.807 7.8823 9.807H6.7923C6.6823 9.807 6.6223 9.747 6.6023 9.637C6.5323 9.037 6.2723 8.707 5.7623 8.707C5.3123 8.707 5.0023 9.027 5.0023 9.477C5.0023 10.007 5.2523 10.297 6.0023 10.697L6.4823 10.937C7.7423 11.597 8.1923 12.127 8.1923 13.267C8.1923 14.637 7.2923 15.537 5.7623 15.537ZM17.2823 15.537C15.6823 15.537 14.8923 14.747 14.8123 13.327C14.8123 13.207 14.8923 13.127 15.0023 13.127H16.1723C16.2923 13.127 16.3323 13.197 16.3623 13.297C16.4223 13.907 16.7423 14.247 17.2923 14.247C17.8523 14.247 18.1123 13.967 18.1123 13.427C18.1123 12.927 17.8223 12.677 17.0623 12.277L16.5823 12.027C15.4023 11.407 14.9323 10.767 14.9323 9.657C14.9323 8.317 15.7923 7.417 17.2823 7.417C18.7823 7.417 19.5123 8.287 19.5823 9.607C19.5823 9.747 19.5023 9.807 19.3823 9.807H18.2823C18.1923 9.807 18.1123 9.747 18.1123 9.637C18.0323 9.037 17.7623 8.707 17.2823 8.707C16.8123 8.707 16.5023 9.027 16.5023 9.477C16.5023 10.007 16.7423 10.317 17.4923 10.697L17.9923 10.937C19.2623 11.597 19.6923 12.127 19.6923 13.267C19.6923 14.637 18.7923 15.537 17.2823 15.537ZM11.5223 15.537C9.6823 15.537 8.7323 14.167 8.7323 11.497C8.7323 8.827 9.6823 7.427 11.5223 7.427C13.3223 7.427 14.2923 8.827 14.2923 11.497C14.2923 14.167 13.3223 15.537 11.5223 15.537ZM11.5223 14.177C12.2723 14.177 12.6523 13.347 12.6523 11.497C12.6523 9.637 12.2723 8.797 11.5223 8.797C10.7323 8.797 10.3523 9.637 10.3523 11.497C10.3523 13.347 10.7323 14.177 11.5223 14.177Z" />
        </svg>
    