
        <svg xmlns="http://www.w3.org/2000/svg" viewBox="0 0 100 100">
            <path d="M4.7317 0.783H19.5817C19.5717 0.333 19.2817 0.003 18.7817 0.003H5.5317C5.0517 0.003 4.7417 0.333 4.7317 0.783ZM2.5117 3.483H21.8117C21.7717 3.013 21.4817 2.663 20.9717 2.663H3.3417C2.8317 2.663 2.5517 3.013 2.5117 3.483ZM3.1417 24.163H21.1717C23.2417 24.163 24.3117 23.063 24.3117 21.033V8.773C24.3117 6.753 23.2417 5.653 21.1717 5.653H3.1417C1.0817 5.653 0.0017 6.723 0.0017 8.773V21.033C0.0017 23.083 1.0817 24.163 3.1417 24.163ZM12.7417 20.273C12.5717 20.273 12.4817 20.163 12.4617 20.023C11.8917 15.623 11.6017 14.893 7.2517 14.823C7.1117 14.813 7.0217 14.703 7.0217 14.563C7.0217 14.423 7.1117 14.333 7.2517 14.313C11.5617 13.753 11.7917 13.573 12.4617 9.093C12.4817 8.963 12.5717 8.873 12.7417 8.873C12.8917 8.873 12.9717 8.963 12.9917 9.103C13.6417 13.533 13.9017 13.753 18.2117 14.313C18.3517 14.333 18.4317 14.423 18.4317 14.563C18.4317 14.703 18.3517 14.803 18.2117 14.823C13.9017 15.363 13.5917 15.623 12.9917 20.023C12.9717 20.163 12.8917 20.273 12.7417 20.273ZM7.9417 21.993C7.8617 21.993 7.8017 21.953 7.7917 21.883C7.5717 20.163 7.5917 19.813 5.4817 19.573C5.4117 19.563 5.3717 19.513 5.3717 19.433C5.3717 19.343 5.4117 19.273 5.4817 19.273C7.5917 19.023 7.5717 18.663 7.7917 16.983C7.8017 16.883 7.8617 16.843 7.9417 16.843C8.0317 16.843 8.0717 16.883 8.0717 16.983C8.3117 18.663 8.3017 19.023 10.3917 19.273C10.4717 19.273 10.5217 19.343 10.5217 19.433C10.5217 19.513 10.4717 19.563 10.3917 19.573C8.2817 19.813 8.3117 20.163 8.0717 21.883C8.0717 21.953 8.0117 21.993 7.9417 21.993Z" />
        </svg>
    