
        <svg xmlns="http://www.w3.org/2000/svg" viewBox="0 0 100 100">
            <path d="M4.8917 1.5153H19.6717C19.6017 0.5153 19.0417 -0.0047 17.9517 -0.0047H6.6017C5.5217 -0.0047 4.9617 0.5153 4.8917 1.5153ZM2.4717 4.7553H22.0917C21.9117 3.6953 21.4117 3.1053 20.2417 3.1053H4.3217C3.1517 3.1053 2.6517 3.6953 2.4717 4.7553ZM3.6817 25.9453H20.8717C23.3117 25.9453 24.5517 24.7253 24.5517 22.3153V10.2753C24.5517 7.8653 23.3117 6.6453 20.8717 6.6453H3.6817C1.2217 6.6453 0.0017 7.8653 0.0017 10.2753V22.3153C0.0017 24.7253 1.2217 25.9453 3.6817 25.9453ZM3.7017 24.0553C2.5317 24.0553 1.8917 23.4253 1.8917 22.2053V10.3853C1.8917 9.1653 2.5317 8.5353 3.7017 8.5353H20.8317C21.9917 8.5353 22.6617 9.1653 22.6617 10.3853V22.2053C22.6617 23.4253 21.9917 24.0553 20.8317 24.0553ZM12.8417 21.0253C13.0617 21.0253 13.2217 20.8753 13.2617 20.6453C13.9117 17.2053 14.2217 16.5553 17.8117 16.0753C18.0517 16.0453 18.2117 15.8753 18.2117 15.6553C18.2117 15.4353 18.0517 15.2653 17.8117 15.2253C14.2417 14.7453 13.7817 14.0653 13.2617 10.6753C13.2317 10.4453 13.0617 10.2853 12.8417 10.2853C12.6317 10.2853 12.4617 10.4253 12.4117 10.6653C11.7617 14.1253 11.4517 14.7453 7.8617 15.2253C7.6317 15.2653 7.4717 15.4353 7.4717 15.6553C7.4717 15.8753 7.6317 16.0453 7.8617 16.0753C11.4617 16.4453 11.9017 17.2053 12.4117 20.6353C12.4417 20.8753 12.6117 21.0253 12.8417 21.0253ZM8.2417 22.9353C8.3917 22.9353 8.5217 22.8253 8.5517 22.6753C8.8817 20.9653 8.7617 20.8853 10.6317 20.6053C10.7917 20.5753 10.9017 20.4353 10.9017 20.2753C10.9017 20.1253 10.7917 19.9853 10.6317 19.9553C8.7617 19.6553 8.8817 19.5653 8.5517 17.9153C8.5217 17.7453 8.4017 17.6153 8.2417 17.6153C8.0717 17.6153 7.9617 17.7353 7.9117 17.9153C7.5717 19.5653 7.7117 19.6553 5.8517 19.9553C5.6717 19.9853 5.5817 20.1253 5.5817 20.2753C5.5817 20.4653 5.6717 20.5753 5.8717 20.6053C7.7117 20.8853 7.5717 20.9653 7.9117 22.6453C7.9617 22.8153 8.0617 22.9353 8.2417 22.9353Z" />
        </svg>
    