
        <svg xmlns="http://www.w3.org/2000/svg" viewBox="0 0 100 100">
            <path d="M4.1417 20.3273H6.3617V22.0473C6.3617 24.7073 7.8317 26.1573 10.5117 26.1573H22.2817C24.9517 26.1573 26.4117 24.7073 26.4117 22.0473V10.2173C26.4117 7.5573 24.9517 6.1073 22.2817 6.1073H20.3217V4.1173C20.3217 1.4673 18.8517 -0.0027 16.1817 -0.0027H4.1417C1.4617 -0.0027 0.0017 1.4573 0.0017 4.1173V16.2173C0.0017 18.8773 1.4617 20.3273 4.1417 20.3273ZM4.4617 17.3073C3.5317 17.3073 3.0217 16.8373 3.0217 15.8473V4.4873C3.0217 3.4873 3.5317 3.0373 4.4617 3.0373H15.8517C16.7917 3.0373 17.3017 3.4873 17.3017 4.4873V6.1073H10.5117C7.8317 6.1073 6.3617 7.5573 6.3617 10.2173V17.3073ZM17.0017 21.1873C16.7317 21.1873 16.5317 20.9873 16.4917 20.7173C15.9017 17.0773 15.4117 16.4873 11.7617 15.9973C11.4917 15.9473 11.3017 15.7373 11.3017 15.4673C11.3017 15.2073 11.4917 14.9973 11.7617 14.9573C15.4617 14.4573 15.9117 13.8673 16.4917 10.2273C16.5317 9.9473 16.7417 9.7773 17.0017 9.7773C17.2617 9.7773 17.4617 9.9573 17.5217 10.2273C18.0917 13.8473 18.6017 14.4873 22.2417 14.9573C22.5217 14.9973 22.7117 15.2073 22.7117 15.4673C22.7117 15.7373 22.5217 15.9573 22.2417 15.9973C18.5117 16.4673 18.1217 17.1073 17.5217 20.7273C17.4717 20.9873 17.2617 21.1873 17.0017 21.1873ZM11.9217 23.2073C11.7217 23.2073 11.5917 23.0673 11.5317 22.8673C11.2417 21.0673 11.3117 21.0073 9.4117 20.7173C9.1717 20.6873 9.0517 20.5473 9.0517 20.3473C9.0517 20.1573 9.1717 20.0173 9.3717 19.9673C11.3217 19.6273 11.2417 19.5973 11.5317 17.8273C11.5917 17.6273 11.7217 17.4773 11.9217 17.4773C12.1217 17.4773 12.2617 17.6273 12.2917 17.8273C12.5817 19.6273 12.5417 19.6773 14.4717 19.9673C14.6517 20.0073 14.7917 20.1573 14.7917 20.3473C14.7917 20.5173 14.6617 20.6873 14.4717 20.7173C12.5317 21.0473 12.6017 21.0773 12.2917 22.8873C12.2617 23.0773 12.1017 23.2073 11.9217 23.2073Z" />
        </svg>
    