
        <svg xmlns="http://www.w3.org/2000/svg" viewBox="0 0 100 100">
            <path d="M3.8417 21.8745H18.0317C20.5617 21.8745 21.8817 20.5745 21.8817 18.0745V3.8045C21.8817 1.3145 20.5617 0.0045 18.0317 0.0045H3.8417C1.3117 0.0045 0.0017 1.3045 0.0017 3.8045V18.0745C0.0017 20.5745 1.3117 21.8745 3.8417 21.8745ZM13.1717 16.6545C12.8317 16.6545 12.5617 16.5345 12.2417 16.2145L9.5817 13.6845C9.5417 13.6545 9.4717 13.6245 9.4117 13.6245H7.6017C6.6717 13.6245 6.1717 13.1245 6.1717 12.1445V9.7645C6.1717 8.7745 6.6717 8.2645 7.6017 8.2645H9.4117C9.4717 8.2645 9.5517 8.2545 9.5817 8.2145L12.2417 5.6945C12.6117 5.3645 12.8317 5.2345 13.1617 5.2345C13.6317 5.2345 13.9717 5.6145 13.9717 6.0745V15.8445C13.9717 16.3145 13.6317 16.6545 13.1717 16.6545Z" />
        </svg>
    