
        <svg xmlns="http://www.w3.org/2000/svg" viewBox="0 0 100 100">
            <path d="M12.9617 21.183C13.9117 21.183 14.6117 20.483 14.6117 19.533V1.703C14.6117 0.753 13.9117 0.003 12.9517 0.003C12.3117 0.003 11.8517 0.253 11.1817 0.893L6.3417 5.413C6.2717 5.473 6.1917 5.503 6.0917 5.503H2.8017C0.9817 5.503 0.0017 6.523 0.0017 8.433V12.773C0.0017 14.683 0.9817 15.693 2.8017 15.693H6.0817C6.1917 15.693 6.2717 15.723 6.3417 15.783L11.1817 20.343C11.8017 20.933 12.3117 21.183 12.9617 21.183ZM18.2317 10.583C18.2317 11.263 18.7217 11.753 19.4217 11.753H22.4517V14.803C22.4517 15.483 22.9417 15.973 23.6217 15.973C24.3117 15.973 24.8217 15.483 24.8217 14.803V11.753H27.8717C28.5517 11.753 29.0417 11.263 29.0417 10.583C29.0417 9.893 28.5517 9.383 27.8717 9.383H24.8217V6.353C24.8217 5.663 24.3117 5.163 23.6217 5.163C22.9417 5.163 22.4517 5.663 22.4517 6.353V9.383H19.4217C18.7117 9.383 18.2317 9.893 18.2317 10.583Z" />
        </svg>
    