
        <svg xmlns="http://www.w3.org/2000/svg" viewBox="0 0 100 100">
            <path d="M13.6722 22.2938C15.0122 22.2938 16.0322 21.2738 16.0322 19.9338V2.3637C16.0322 1.0338 15.0122 0.0038 13.6722 0.0038C12.8722 0.0038 12.2122 0.2937 11.3722 1.0738L6.8722 5.2238C6.8122 5.2738 6.7622 5.3038 6.7022 5.3038H3.5422C1.2522 5.3038 0.0022 6.6238 0.0022 8.9838V13.3038C0.0022 15.6638 1.2522 16.9938 3.5422 16.9938H6.6922C6.7522 16.9938 6.7922 16.9938 6.8522 17.0438L11.3722 21.2238C12.1722 21.9738 12.8222 22.2938 13.6722 22.2938ZM26.3722 20.7438C27.3122 21.2738 28.4622 21.0338 29.0522 20.1138C30.6922 17.5338 31.6022 14.4238 31.6022 11.1337C31.6022 7.8438 30.6922 4.7338 29.0522 2.1438C28.4622 1.2338 27.3122 0.9937 26.3722 1.5237C25.2822 2.1238 25.1622 3.4237 25.8622 4.6038C26.9722 6.4938 27.6122 8.7538 27.6122 11.1337C27.6122 13.5138 26.9722 15.7638 25.8622 17.6438C25.1622 18.8337 25.2822 20.1438 26.3722 20.7438ZM20.1522 17.2738C21.0822 17.8238 22.1922 17.6038 22.7422 16.8238C23.8822 15.2338 24.5422 13.2538 24.5422 11.1337C24.5422 9.0138 23.8822 7.0338 22.7422 5.4138C22.1922 4.6638 21.0822 4.4338 20.1522 4.9938C19.1722 5.5738 18.9222 6.7338 19.7622 8.1938C20.2622 9.0338 20.5322 10.0638 20.5322 11.1337C20.5322 12.2038 20.2522 13.2138 19.7622 14.0738C18.9222 15.5138 19.1722 16.6838 20.1522 17.2738Z" />
        </svg>
    