
        <svg xmlns="http://www.w3.org/2000/svg" viewBox="0 0 100 100">
            <path d="M1.6428 14.0647H5.2628C5.4528 14.0647 5.5828 14.1047 5.6928 14.2247L11.3228 19.2147C11.6028 19.4847 11.9028 19.6747 12.2828 19.6747C12.7928 19.6747 13.1128 19.2847 13.1128 18.7847V0.9247C13.1128 0.4247 12.7928 0.0047 12.2728 0.0047C11.9028 0.0047 11.6228 0.2147 11.3228 0.4847L5.6928 5.5947C5.5828 5.6947 5.4528 5.7347 5.2628 5.7347H1.6428C0.5228 5.7347 0.0028 6.2947 0.0028 7.4147V12.3947C0.0028 13.5347 0.5428 14.0647 1.6428 14.0647ZM1.6528 13.2447C1.0628 13.2447 0.8528 13.0147 0.8528 12.4347V7.3847C0.8528 6.7847 1.0628 6.5647 1.6528 6.5647H5.3528C5.7028 6.5647 5.9428 6.5147 6.2228 6.2447L11.7628 1.1847C11.8628 1.1047 11.9328 1.0147 12.0628 1.0147C12.1628 1.0147 12.2428 1.1047 12.2428 1.2447V18.4247C12.2428 18.5747 12.1628 18.6547 12.0728 18.6547C11.9728 18.6547 11.9028 18.6247 11.7728 18.5047L6.2228 13.5447C5.9528 13.3147 5.7028 13.2447 5.3528 13.2447ZM21.5928 17.7747C21.8128 17.9147 22.0528 17.8747 22.1928 17.6747C23.7028 15.7147 24.6828 12.7947 24.6828 9.8447C24.6828 6.8747 23.7028 3.9647 22.1928 2.0147C22.0528 1.8147 21.8128 1.7647 21.5928 1.9147C21.3828 2.0547 21.3628 2.3047 21.5228 2.5347C23.0028 4.5147 23.8128 7.0947 23.8128 9.8447C23.8128 12.5947 22.9928 15.1747 21.5228 17.1447C21.3628 17.3747 21.3828 17.6247 21.5928 17.7747ZM17.8028 14.6747C18.0028 14.8147 18.2428 14.7647 18.4028 14.5647C19.2928 13.4047 19.9128 11.7647 19.9128 9.8447C19.9128 7.9247 19.2928 6.2847 18.4028 5.1247C18.2428 4.9147 18.0028 4.8747 17.8028 5.0147C17.5928 5.1647 17.5528 5.4247 17.7228 5.6647C18.6228 6.9047 19.0528 8.1947 19.0528 9.8447C19.0528 11.4947 18.6228 12.7847 17.7228 14.0247C17.5528 14.2647 17.5928 14.5147 17.8028 14.6747Z" />
        </svg>
    