
        <svg xmlns="http://www.w3.org/2000/svg" viewBox="0 0 100 100">
            <path d="M12.8238 20.9675C13.6838 20.9675 14.3238 20.3275 14.3238 19.4675V1.5675C14.3238 0.7075 13.6838 -0.0025 12.7938 -0.0025C12.2038 -0.0025 11.7938 0.2575 11.1337 0.8575L6.2338 5.4575C6.1638 5.5175 6.0738 5.5575 5.9637 5.5575H2.6338C0.9238 5.5575 0.0038 6.5075 0.0038 8.3175V12.6775C0.0038 14.4875 0.9238 15.4475 2.6338 15.4475H5.9637C6.0738 15.4475 6.1638 15.4675 6.2338 15.5375L11.1337 20.1675C11.7238 20.7275 12.2137 20.9675 12.8238 20.9675ZM23.1838 18.8075C23.7038 19.1375 24.3538 19.0175 24.7138 18.4775C26.2538 16.3275 27.1338 13.4375 27.1338 10.4775C27.1338 7.5075 26.2538 4.6075 24.7138 2.4775C24.3538 1.9375 23.7038 1.8075 23.1838 2.1475C22.6338 2.4975 22.5438 3.1775 22.9538 3.7875C24.2138 5.6175 24.9237 7.9875 24.9237 10.4775C24.9237 12.9475 24.1838 15.3275 22.9538 17.1675C22.5538 17.7775 22.6338 18.4575 23.1838 18.8075ZM18.5038 15.6775C18.9938 15.9975 19.6538 15.8875 20.0038 15.3775C20.9438 14.1175 21.5038 12.3275 21.5038 10.4775C21.5038 8.6275 20.9438 6.8475 20.0038 5.5675C19.6538 5.0575 18.9938 4.9475 18.5038 5.2875C17.9438 5.6575 17.8337 6.3375 18.2838 6.9975C18.9338 7.9175 19.3038 9.1675 19.3038 10.4775C19.3038 11.7775 18.9237 13.0175 18.2838 13.9575C17.8337 14.6275 17.9438 15.2975 18.5038 15.6775Z" />
        </svg>
    