
        <svg xmlns="http://www.w3.org/2000/svg" viewBox="0 0 100 100">
            <path d="M12.6317 20.6752C13.4017 20.6752 13.9617 20.1252 13.9617 19.3552V1.3852C13.9617 0.6252 13.4017 -0.0048 12.6117 -0.0048C12.0617 -0.0048 11.6817 0.2352 11.1017 0.8052L6.0917 5.4952C6.0217 5.5652 5.9217 5.6052 5.8017 5.6052H2.4517C0.8517 5.6052 0.0017 6.4852 0.0017 8.1652V12.5252C0.0017 14.2252 0.8517 15.0952 2.4517 15.0952H5.8017C5.9217 15.0952 6.0217 15.1252 6.0917 15.1952L11.1017 19.9352C11.6217 20.4452 12.0817 20.6752 12.6317 20.6752ZM17.6917 10.3252C17.6917 10.8952 18.1017 11.2852 18.7017 11.2852H22.1517V14.7452C22.1517 15.3252 22.5517 15.7352 23.1217 15.7352C23.7117 15.7352 24.1217 15.3352 24.1217 14.7452V11.2852H27.5717C28.1617 11.2852 28.5617 10.8952 28.5617 10.3252C28.5617 9.7352 28.1617 9.3252 27.5717 9.3252H24.1217V5.8852C24.1217 5.2852 23.7117 4.8752 23.1217 4.8752C22.5517 4.8752 22.1517 5.2852 22.1517 5.8852V9.3252H18.7017C18.1017 9.3252 17.6917 9.7352 17.6917 10.3252Z" />
        </svg>
    