
        <svg xmlns="http://www.w3.org/2000/svg" viewBox="0 0 100 100">
            <path d="M5.7617 22.5847C5.9517 22.5847 6.1017 22.4747 6.2717 22.3447L10.5317 18.7147H20.4617C23.0117 18.7147 24.6517 17.0347 24.6517 14.5047V4.1947C24.6517 1.6747 23.0117 0.0047 20.4617 0.0047H4.1917C1.6417 0.0047 0.0017 1.6447 0.0017 4.1947V14.5047C0.0017 17.0747 1.6417 18.7147 4.1917 18.7147H5.3317V22.1047C5.3317 22.3947 5.5217 22.5847 5.7617 22.5847ZM5.8717 21.9647V18.4247C5.8717 18.2247 5.7917 18.1447 5.5917 18.1447H4.2317C2.0117 18.1447 0.5717 16.6947 0.5717 14.4847V4.2347C0.5717 2.0147 2.0117 0.5747 4.2317 0.5747H20.4417C22.5817 0.5747 24.0817 2.0147 24.0817 4.2347V14.4847C24.0817 16.6947 22.5817 18.1447 20.4417 18.1447H10.6617C10.3717 18.1447 10.2317 18.1947 9.9617 18.4347ZM12.1317 14.6347C12.3917 14.6347 12.5017 14.4347 12.5017 14.2047V4.4447C12.5017 4.2047 12.3917 4.0147 12.1317 4.0147C11.9517 4.0147 11.8217 4.1147 11.7117 4.2147L8.7617 7.0947C8.6817 7.1447 8.6117 7.1747 8.5117 7.1747H6.4317C5.9317 7.1747 5.4917 7.6047 5.4917 8.1047V10.5947C5.4917 11.1247 5.9317 11.5547 6.4317 11.5547H8.5117C8.6117 11.5547 8.6817 11.5747 8.7617 11.6347L11.7117 14.4247C11.8217 14.5347 11.9517 14.6347 12.1317 14.6347ZM17.3317 13.5947C17.4617 13.6747 17.5917 13.6747 17.7317 13.5347C18.5617 12.5947 19.0817 11.2147 19.0817 9.3247C19.0817 7.8647 18.6117 6.4847 17.7517 5.1347C17.6517 4.9647 17.4717 4.9547 17.3317 5.0547C17.2117 5.1647 17.2017 5.3047 17.2717 5.4647C18.0917 6.6947 18.4917 7.9447 18.4917 9.3247C18.4917 10.8747 18.0817 12.2347 17.2417 13.2047C17.1517 13.3147 17.1817 13.4847 17.3317 13.5947ZM14.9317 11.9447C15.0517 12.0447 15.2317 12.0347 15.3517 11.8847C15.8917 11.2147 16.1617 10.2547 16.1617 9.3247C16.1617 8.3647 15.8917 7.4447 15.3517 6.7647C15.2317 6.6247 15.0517 6.6047 14.9317 6.7047C14.8117 6.8047 14.7917 6.9647 14.8717 7.1047C15.3317 7.6147 15.5717 8.4247 15.5717 9.3247C15.5717 10.1847 15.3017 10.9847 14.8317 11.5747C14.7917 11.6947 14.8017 11.8247 14.9317 11.9447Z" />
        </svg>
    