
        <svg xmlns="http://www.w3.org/2000/svg" viewBox="0 0 100 100">
            <path d="M12.6023 25.1969C19.5623 25.1969 25.2023 19.5569 25.2023 12.5969C25.2023 5.6369 19.5623 -0.0031 12.6023 -0.0031C5.6523 -0.0031 0.0023 5.6369 0.0023 12.5969C0.0023 19.5569 5.6523 25.1969 12.6023 25.1969ZM11.7223 17.6569C11.3523 17.6569 11.0823 17.5069 10.7423 17.2069L8.4923 15.1569C8.4723 15.1269 8.4523 15.1269 8.4023 15.1269H7.0123C6.0423 15.1269 5.5123 14.5669 5.5123 13.5569V11.6469C5.5123 10.6269 6.0423 10.0869 7.0123 10.0869H8.4023C8.4523 10.0869 8.4723 10.0769 8.4923 10.0469L10.7423 8.0169C11.1123 7.6969 11.3623 7.5469 11.7023 7.5469C12.2423 7.5469 12.6823 7.9669 12.6823 8.5169V16.6969C12.6823 17.2369 12.2423 17.6569 11.7223 17.6569ZM17.1123 16.8869C16.6623 16.6269 16.6323 16.0969 16.9123 15.6069C17.4623 14.7769 17.7523 13.7069 17.7523 12.6069C17.7523 11.5069 17.4623 10.4369 16.9123 9.5969C16.6323 9.1169 16.6723 8.5869 17.1123 8.3369C17.5223 8.0869 17.9923 8.2069 18.2223 8.5869C18.9823 9.7569 19.4023 11.1369 19.4023 12.6069C19.4023 14.0869 18.9723 15.4569 18.2123 16.6269C17.9923 17.0169 17.5223 17.1169 17.1123 16.8869ZM14.5523 15.3269C14.1323 15.0569 14.0523 14.5869 14.3823 14.0069C14.6223 13.6169 14.7623 13.1169 14.7623 12.5969C14.7623 12.0669 14.6223 11.5669 14.3823 11.1869C14.0423 10.6169 14.1323 10.0969 14.5523 9.8669C14.9323 9.6469 15.4023 9.7469 15.6223 10.0669C16.1223 10.7569 16.4223 11.6469 16.4223 12.5969C16.4223 13.5569 16.1123 14.4469 15.6223 15.1269C15.3823 15.4569 14.9223 15.5769 14.5523 15.3269Z" />
        </svg>
    