
        <svg xmlns="http://www.w3.org/2000/svg" viewBox="0 0 100 100">
            <path d="M2.5917 15.4675H5.9217C6.0117 15.4675 6.0917 15.4875 6.1717 15.5575L11.3217 20.1675C11.9317 20.7175 12.4017 20.9675 13.0217 20.9675C13.8717 20.9675 14.5317 20.3275 14.5317 19.4675V1.5675C14.5317 0.7075 13.8717 -0.0025 12.9917 -0.0025C12.3917 -0.0025 11.9717 0.2675 11.3217 0.8575L6.1717 5.4375C6.0917 5.5075 6.0117 5.5275 5.9217 5.5275H2.5917C0.8717 5.5275 0.0017 6.4375 0.0017 8.2475V12.7475C0.0017 14.5675 0.8817 15.4675 2.5917 15.4675ZM2.7917 13.4075C2.3917 13.4075 2.2117 13.2175 2.2117 12.8175V8.1775C2.2117 7.7775 2.3917 7.5975 2.7917 7.5975H6.4617C6.7717 7.5975 7.0117 7.5375 7.2817 7.2875L11.9617 3.0075C12.0217 2.9675 12.0817 2.9175 12.1617 2.9175C12.2417 2.9175 12.3117 2.9875 12.3117 3.0975V17.8875C12.3117 17.9875 12.2417 18.0575 12.1617 18.0575C12.0917 18.0575 12.0317 18.0275 11.9717 17.9675L7.2817 13.7075C7.0117 13.4775 6.7717 13.4075 6.4617 13.4075ZM19.1017 11.5775H27.9917C28.6917 11.5775 29.1917 11.1675 29.1917 10.4975C29.1917 9.8075 28.7117 9.3875 27.9917 9.3875H19.1017C18.3717 9.3875 17.8917 9.8075 17.8917 10.4975C17.8917 11.1675 18.4017 11.5775 19.1017 11.5775Z" />
        </svg>
    