
        <svg xmlns="http://www.w3.org/2000/svg" viewBox="0 0 100 100">
            <path d="M3.2717 16.6563H6.4817C6.5517 16.6563 6.6117 16.6662 6.6717 16.7263L11.3717 20.9163C12.1317 21.5963 12.7117 21.9162 13.5017 21.9162C14.6917 21.9162 15.6217 20.9963 15.6217 19.8063V2.1363C15.6217 0.9363 14.6917 -0.0038 13.5017 -0.0038C12.7517 -0.0038 12.1617 0.3062 11.3717 1.0162L6.6717 5.1962C6.6017 5.2463 6.5517 5.2762 6.4817 5.2762H3.2717C1.1517 5.2762 0.0017 6.4663 0.0017 8.6863V13.2463C0.0017 15.4463 1.1517 16.6563 3.2717 16.6563ZM3.8317 13.4463C3.5817 13.4463 3.4417 13.2763 3.4417 13.0463V8.8663C3.4417 8.6363 3.5817 8.4863 3.8317 8.4863H7.2217C7.5817 8.4863 7.8417 8.4063 8.1117 8.1563L11.8217 4.7463C11.8817 4.6962 11.9417 4.6762 12.0017 4.6762C12.0917 4.6762 12.1717 4.7463 12.1717 4.8562V17.0663C12.1717 17.1763 12.0917 17.2663 12.0017 17.2663C11.9417 17.2663 11.8817 17.2362 11.8217 17.1763L8.1117 13.7663C7.8417 13.5263 7.5817 13.4463 7.2217 13.4463ZM18.9817 10.9462C18.9817 11.7763 19.5917 12.4063 20.4117 12.4063H22.8717V14.8663C22.8717 15.6963 23.4917 16.2963 24.3417 16.2963C25.1817 16.2963 25.8117 15.6963 25.8117 14.8663V12.4063H28.2817C29.1017 12.4063 29.7117 11.7763 29.7117 10.9462C29.7117 10.1063 29.1017 9.4663 28.2817 9.4663H25.8117V7.0063C25.8117 6.1862 25.1817 5.5763 24.3417 5.5763C23.4917 5.5763 22.8717 6.1862 22.8717 7.0063V9.4663H20.4117C19.5817 9.4663 18.9817 10.1063 18.9817 10.9462Z" />
        </svg>
    