
        <svg xmlns="http://www.w3.org/2000/svg" viewBox="0 0 100 100">
            <path d="M12.3723 24.7459C19.2023 24.7459 24.7523 19.2059 24.7523 12.3759C24.7523 5.5459 19.2023 -0.0041 12.3723 -0.0041C5.5423 -0.0041 0.0023 5.5459 0.0023 12.3759C0.0023 19.2059 5.5423 24.7459 12.3723 24.7459ZM12.3723 21.6659C7.2423 21.6659 3.0823 17.5059 3.0823 12.3759C3.0823 7.2259 7.2423 3.0859 12.3723 3.0859C17.5223 3.0859 21.6723 7.2259 21.6723 12.3759C21.6723 17.5059 17.5223 21.6659 12.3723 21.6659ZM11.7023 17.3059C12.1623 17.3059 12.5323 16.9459 12.5323 16.4859V8.2759C12.5323 7.8159 12.1623 7.4559 11.7023 7.4559C11.3923 7.4559 11.1723 7.5859 10.8423 7.8759L8.5823 9.9459C8.5423 9.9959 8.5123 9.9959 8.4723 9.9959H7.0123C6.1423 9.9959 5.6623 10.4859 5.6623 11.4059V13.3459C5.6623 14.2659 6.1423 14.7559 7.0123 14.7559H8.4723C8.5123 14.7559 8.5423 14.7659 8.5823 14.7859L10.8423 16.8959C11.1423 17.1659 11.3923 17.3059 11.7023 17.3059ZM16.6523 16.4559C17.0023 16.6559 17.4123 16.5659 17.6123 16.2459C18.3523 15.1259 18.7723 13.8059 18.7723 12.3759C18.7723 10.9559 18.3623 9.6259 17.6223 8.5059C17.4023 8.1759 16.9923 8.0859 16.6523 8.2959C16.2923 8.5359 16.2323 8.9759 16.4923 9.3759C17.0523 10.1959 17.3423 11.2659 17.3423 12.3759C17.3423 13.4759 17.0423 14.5659 16.4923 15.3759C16.2323 15.7759 16.2823 16.2259 16.6523 16.4559ZM14.3523 14.9659C14.6823 15.1759 15.0923 15.0859 15.3123 14.7759C15.7723 14.1559 16.0623 13.2759 16.0623 12.3759C16.0623 11.4759 15.7823 10.6059 15.3123 9.9559C15.1023 9.6659 14.6823 9.5759 14.3523 9.7859C14.0023 10.0059 13.9323 10.4459 14.2123 10.8959C14.4723 11.2759 14.6223 11.8159 14.6223 12.3759C14.6223 12.9159 14.4623 13.4559 14.2023 13.8559C13.9323 14.3059 14.0023 14.7159 14.3523 14.9659Z" />
        </svg>
    