
        <svg xmlns="http://www.w3.org/2000/svg" viewBox="0 0 100 100">
            <path d="M12.455 20.2342C13.125 20.2342 13.575 19.7542 13.575 19.1042V1.1842C13.575 0.5242 13.125 0.0042 12.445 0.0042C11.975 0.0042 11.635 0.2142 11.175 0.6542L6.045 5.5342C5.965 5.6242 5.845 5.6642 5.695 5.6642H2.205C0.835 5.6642 0.005 6.5042 0.005 7.9442V12.3642C0.005 13.8042 0.835 14.6442 2.205 14.6442H5.695C5.845 14.6442 5.965 14.6842 6.045 14.7742L11.175 19.6242C11.605 20.0342 11.985 20.2342 12.455 20.2342ZM17.985 15.0342C18.305 15.2442 18.715 15.1842 18.965 14.8342C19.865 13.6642 20.435 11.9642 20.435 10.1142C20.435 8.2642 19.865 6.5642 18.965 5.3942C18.715 5.0342 18.305 4.9642 17.985 5.1942C17.625 5.4442 17.565 5.8842 17.845 6.2542C18.635 7.3242 19.035 8.6242 19.035 10.1142C19.035 11.6042 18.625 12.8942 17.845 13.9542C17.575 14.3442 17.625 14.7742 17.985 15.0342Z" />
        </svg>
    