
        <svg xmlns="http://www.w3.org/2000/svg" viewBox="0 0 100 100">
            <path d="M8.7317 26.6727C9.3417 26.6727 9.8717 26.4327 10.6017 25.7927L15.1517 21.8527H22.0517C25.7317 21.8527 28.1717 19.4027 28.1717 15.7227V6.1327C28.1717 2.4527 25.7317 0.0027 22.0517 0.0027H6.1217C2.4417 0.0027 0.0017 2.4527 0.0017 6.1327V15.7227C0.0017 19.4027 2.7117 21.8527 5.7117 21.8527H7.2917V25.1027C7.2917 26.0727 7.8517 26.6727 8.7317 26.6727ZM13.0517 15.8627C12.6817 15.8627 12.3917 15.7027 12.0317 15.4027L9.9017 13.4727C9.8917 13.4627 9.8717 13.4627 9.8317 13.4627H8.5517C7.5517 13.4627 6.9817 12.8627 6.9817 11.8127V10.0427C6.9817 8.9727 7.5517 8.4027 8.5517 8.4027H9.8317C9.8717 8.4027 9.8917 8.4027 9.9017 8.3627L12.0317 6.4827C12.4117 6.1527 12.6917 6.0027 13.0517 6.0027C13.6317 6.0027 14.1017 6.4527 14.1017 7.0427V14.8127C14.1017 15.4027 13.6317 15.8627 13.0517 15.8627ZM18.6117 15.2127C18.1317 14.9327 18.0817 14.3527 18.4017 13.8127C18.9117 12.9927 19.1717 11.9927 19.1717 10.9427C19.1717 9.9027 18.9117 8.8827 18.4017 8.0627C18.0817 7.5227 18.1317 6.9527 18.6117 6.6827C19.0517 6.4327 19.5517 6.5527 19.7917 6.9627C20.5317 8.1327 20.9517 9.4727 20.9517 10.9427C20.9517 12.4127 20.5317 13.7327 19.7917 14.9227C19.5617 15.3327 19.0517 15.4427 18.6117 15.2127ZM15.9117 13.6627C15.4617 13.3827 15.3717 12.8827 15.7417 12.2227C15.9517 11.8327 16.0817 11.3927 16.0817 10.9227C16.0817 10.4627 15.9717 9.9927 15.7417 9.6327C15.3617 8.9927 15.4617 8.4227 15.9117 8.1927C16.3317 7.9527 16.8317 8.0827 17.0517 8.4127C17.5517 9.1027 17.8617 9.9827 17.8617 10.9227C17.8617 11.8727 17.5417 12.7527 17.0517 13.4427C16.8117 13.7827 16.3217 13.9227 15.9117 13.6627Z" />
        </svg>
    