
        <svg xmlns="http://www.w3.org/2000/svg" viewBox="0 0 100 100">
            <path d="M13.4277 21.9162C14.6377 21.9162 15.5477 20.9963 15.5477 19.8063V2.1363C15.5477 0.9363 14.6377 -0.0038 13.4277 -0.0038C12.6777 -0.0038 12.0977 0.2963 11.3077 1.0162L6.6877 5.2963C6.6377 5.3462 6.5577 5.3763 6.4877 5.3763H3.2777C1.1577 5.3763 -0.0023 6.5963 -0.0023 8.7963V13.1263C-0.0023 15.3263 1.1577 16.5463 3.2777 16.5463H6.4777C6.5577 16.5463 6.6177 16.5563 6.6777 16.6063L11.3077 20.9163C12.0477 21.6063 12.6477 21.9162 13.4277 21.9162ZM29.7277 7.4462H27.3177L29.9877 3.9063C30.2777 3.5262 30.4077 3.2463 30.4077 2.9662C30.4077 2.4462 29.9977 2.0862 29.4377 2.0862H25.3477C24.7977 2.0862 24.4177 2.4563 24.4177 2.9862C24.4177 3.5262 24.7977 3.9163 25.3477 3.9163H27.5877L24.8777 7.4163C24.5777 7.8063 24.4677 8.0663 24.4677 8.3863C24.4677 8.8963 24.8677 9.2663 25.4177 9.2663H29.7277C30.2677 9.2663 30.6577 8.8963 30.6577 8.3463C30.6577 7.8263 30.2677 7.4462 29.7277 7.4462ZM22.5577 12.6463H21.0677L22.8077 10.3563C23.0877 9.9963 23.2077 9.7263 23.2077 9.4462C23.2077 8.9563 22.8177 8.6163 22.2777 8.6163H19.2577C18.7577 8.6163 18.3877 8.9763 18.3877 9.4663C18.3877 10.0063 18.7477 10.3663 19.2577 10.3663H20.5077L18.7877 12.6563C18.5177 13.0163 18.3977 13.2663 18.3977 13.5663C18.3977 14.0463 18.7877 14.4063 19.2877 14.4063H22.5577C23.0877 14.4063 23.4477 14.0663 23.4477 13.5363C23.4477 13.0163 23.0777 12.6463 22.5577 12.6463ZM27.9577 17.5163H26.7277L28.1977 15.5363C28.4577 15.1663 28.5677 14.9263 28.5677 14.6863C28.5677 14.1963 28.2077 13.8763 27.6877 13.8763H24.9877C24.4777 13.8763 24.1277 14.2063 24.1277 14.7063C24.1277 15.2263 24.4677 15.5363 24.9877 15.5363H25.9877L24.5377 17.5163C24.2777 17.8863 24.1777 18.1063 24.1777 18.3863C24.1777 18.8463 24.5377 19.1963 25.0277 19.1963H27.9577C28.4377 19.1963 28.7977 18.8463 28.7977 18.3563C28.7977 17.8663 28.4277 17.5163 27.9577 17.5163Z" />
        </svg>
    