
        <svg xmlns="http://www.w3.org/2000/svg" viewBox="0 0 100 100">
            <path d="M7.8017 25.0034C8.5217 25.0034 9.0717 24.6834 9.9517 23.9034L13.9417 20.3934H20.9617C24.5117 20.3934 26.5817 18.2934 26.5817 14.7934V5.6134C26.5817 2.0934 24.5117 0.0034 20.9617 0.0034H5.6017C2.0617 0.0034 0.0017 2.0934 0.0017 5.6134V14.7934C0.0017 18.3034 2.1417 20.3934 5.4717 20.3934H6.1517V23.1634C6.1517 24.3034 6.7717 25.0034 7.8017 25.0034ZM8.4417 22.1034V18.7934C8.4417 18.0634 8.1117 17.7734 7.4317 17.7734H5.7217C3.6217 17.7734 2.6117 16.7234 2.6117 14.6734V5.7334C2.6117 3.6634 3.6217 2.6134 5.7217 2.6134H20.8517C22.9417 2.6134 23.9617 3.6634 23.9617 5.7334V14.6734C23.9617 16.7234 22.9417 17.7734 20.8517 17.7734H13.7717C13.0217 17.7734 12.6717 17.9134 12.1317 18.4534ZM12.7417 15.2534C13.1717 15.2534 13.5017 14.9334 13.5017 14.4934V5.9334C13.5017 5.4834 13.1717 5.1434 12.7217 5.1434C12.4217 5.1434 12.2217 5.2734 11.8917 5.5634L9.5317 7.7734C9.4917 7.8034 9.4617 7.8034 9.4117 7.8034H7.8517C7.0117 7.8034 6.5417 8.2834 6.5417 9.1734V11.2234C6.5417 12.1134 7.0117 12.5934 7.8517 12.5934H9.4117C9.4617 12.5934 9.4917 12.6134 9.5317 12.6334L11.8917 14.8634C12.1917 15.1334 12.4317 15.2534 12.7417 15.2534ZM17.6017 14.3234C17.9317 14.5034 18.3117 14.4334 18.5317 14.1234C19.2817 13.0234 19.7117 11.6434 19.7117 10.1934C19.7117 8.7634 19.2917 7.3934 18.5317 6.2734C18.3117 5.9534 17.9217 5.8734 17.6017 6.0734C17.2617 6.2934 17.2117 6.7134 17.4617 7.0734C18.0517 7.9234 18.3617 9.0334 18.3617 10.1934C18.3617 11.3534 18.0317 12.4934 17.4517 13.3134C17.2117 13.6734 17.2517 14.1134 17.6017 14.3234ZM15.3917 12.7934C15.6917 13.0034 16.0917 12.9234 16.3017 12.6334C16.7717 12.0134 17.0517 11.1234 17.0517 10.1934C17.0517 9.2834 16.7717 8.3934 16.3017 7.7534C16.1017 7.4634 15.6917 7.3834 15.3917 7.5834C15.0617 7.8034 14.9917 8.2134 15.2417 8.6234C15.5317 9.0034 15.6917 9.5834 15.6917 10.1934C15.6917 10.7834 15.5117 11.3534 15.2417 11.7634C14.9917 12.1734 15.0617 12.5634 15.3917 12.7934Z" />
        </svg>
    