
        <svg xmlns="http://www.w3.org/2000/svg" viewBox="0 0 100 100">
            <path d="M9.5394 3.3503C9.2394 3.6703 9.0894 4.0203 9.0894 4.3603C9.0894 4.9803 9.5894 5.5103 10.3594 5.5103H16.3594C17.1294 5.5103 17.6094 4.9803 17.6094 4.3603C17.6094 4.0203 17.4894 3.6703 17.1694 3.3503L14.3894 0.4603C14.0994 0.1503 13.7194 0.0003 13.3594 0.0003C12.9894 0.0003 12.6094 0.1503 12.3294 0.4603ZM14.1994 18.0803C14.6994 18.0803 15.1094 17.6803 15.1094 17.1803V9.5503C15.1094 9.0303 14.6994 8.6503 14.1994 8.6503C13.8794 8.6503 13.6294 8.7903 13.2994 9.0803L11.1994 10.9803C11.1694 11.0003 11.1294 11.0203 11.0694 11.0203H9.8094C8.9094 11.0203 8.4094 11.5303 8.4094 12.4703V14.2503C8.4094 15.1903 8.9094 15.7103 9.8094 15.7103H11.0994C11.1494 15.7103 11.1794 15.7103 11.2194 15.7503L13.2994 17.6603C13.6094 17.9403 13.8594 18.0803 14.1994 18.0803ZM23.3694 9.5503C23.0494 9.2303 22.6894 9.1103 22.3494 9.1103C21.7394 9.1103 21.1994 9.5903 21.1994 10.3603V16.3603C21.1994 17.1303 21.7394 17.6203 22.3494 17.6203C22.6894 17.6203 23.0494 17.4803 23.3694 17.1703L26.2494 14.3903C26.5594 14.1003 26.7094 13.7303 26.7094 13.3603C26.7094 13.0003 26.5594 12.6203 26.2494 12.3303ZM3.3394 9.5503L0.4594 12.3303C0.1494 12.6203 -0.0006 13.0003 -0.0006 13.3603C-0.0006 13.7303 0.1494 14.1003 0.4594 14.3903L3.3394 17.1703C3.6594 17.4803 4.0194 17.6203 4.3594 17.6203C4.9794 17.6203 5.5094 17.1303 5.5094 16.3603V10.3603C5.5094 9.5903 4.9794 9.1103 4.3594 9.1103C4.0194 9.1103 3.6594 9.2303 3.3394 9.5503ZM16.8394 15.9103C17.1894 16.1403 17.6294 16.0303 17.8494 15.7103C18.3094 15.0803 18.5994 14.2503 18.5994 13.3603C18.5994 12.4803 18.3194 11.6403 17.8494 11.0003C17.6494 10.7003 17.1994 10.6103 16.8394 10.8003C16.4494 11.0303 16.3594 11.5103 16.6894 12.0303C16.9094 12.4003 17.0494 12.8703 17.0494 13.3603C17.0494 13.8403 16.9094 14.3103 16.6894 14.6703C16.3694 15.2203 16.4494 15.6703 16.8394 15.9103ZM9.5394 23.3703L12.3294 26.2503C12.6094 26.5703 12.9894 26.7103 13.3594 26.7103C13.7194 26.7103 14.0994 26.5703 14.3894 26.2503L17.1694 23.3703C17.4894 23.0503 17.6094 22.6903 17.6094 22.3503C17.6094 21.7403 17.1294 21.2103 16.3594 21.2103H10.3594C9.5894 21.2103 9.0894 21.7403 9.0894 22.3503C9.0894 22.6903 9.2394 23.0503 9.5394 23.3703Z" />
        </svg>
    