
        <svg xmlns="http://www.w3.org/2000/svg" viewBox="0 0 100 100">
            <path d="M21.542 22.9211C21.922 23.3011 22.562 23.3011 22.932 22.9211C23.312 22.5311 23.322 21.9111 22.932 21.5211L1.692 0.2911C1.302 -0.0989 0.672 -0.0989 0.282 0.2911C-0.098 0.6611 -0.098 1.3111 0.282 1.6811ZM17.372 13.7411V2.3411C17.372 1.3011 16.582 0.4611 15.512 0.4611C14.852 0.4611 14.322 0.7511 13.602 1.4111L9.352 5.3611C9.312 5.4011 9.272 5.4211 9.212 5.4311H9.032ZM5.342 16.5111H8.592C8.672 16.5111 8.752 16.5311 8.812 16.5911L13.602 21.0411C14.272 21.6811 14.822 21.9611 15.532 21.9611C16.302 21.9611 16.922 21.5511 17.212 20.8211L3.122 6.7511C2.632 7.2511 2.382 8.0211 2.382 9.0211V13.4111C2.382 15.4511 3.402 16.5111 5.342 16.5111Z" />
        </svg>
    