
        <svg xmlns="http://www.w3.org/2000/svg" viewBox="0 0 100 100">
            <path d="M3.5422 17.1238H6.7122C6.7622 17.1238 6.8122 17.1238 6.8722 17.1938L11.3922 21.2238C12.2122 21.9538 12.8422 22.2938 13.7022 22.2938C15.0322 22.2938 16.0522 21.2738 16.0522 19.9338V2.3637C16.0522 1.0338 15.0322 0.0038 13.7022 0.0038C12.8922 0.0038 12.2422 0.3137 11.3922 1.0738L6.8722 5.0938C6.7922 5.1538 6.7622 5.1638 6.7122 5.1638H3.5422C1.2522 5.1638 0.0022 6.4938 0.0022 8.8638V13.4438C0.0022 15.7938 1.2522 17.1238 3.5422 17.1238ZM20.1522 17.2738C21.0822 17.8337 22.1922 17.6038 22.7422 16.8238C23.8722 15.2338 24.5422 13.2538 24.5422 11.1337C24.5422 9.0138 23.8722 7.0338 22.7422 5.4138C22.1922 4.6638 21.0822 4.4338 20.1522 4.9938C19.1722 5.5738 18.9222 6.7338 19.7422 8.1938C20.2522 9.0338 20.5322 10.0638 20.5322 11.1337C20.5322 12.2038 20.2522 13.2138 19.7422 14.0738C18.9222 15.5238 19.1722 16.6838 20.1522 17.2738ZM4.2522 13.4538C4.0822 13.4538 3.9522 13.3138 3.9522 13.1338V9.1538C3.9522 8.9838 4.0822 8.8438 4.2522 8.8438H7.5322C7.9122 8.8438 8.1822 8.7538 8.4522 8.5038L11.7822 5.4338C11.8122 5.3938 11.8722 5.3837 11.9422 5.3837C12.0322 5.3837 12.1222 5.4537 12.1222 5.5638V16.7338C12.1222 16.8537 12.0322 16.9438 11.9422 16.9438C11.8722 16.9438 11.8122 16.9138 11.7822 16.8638L8.4522 13.7938C8.1822 13.5338 7.9122 13.4538 7.5322 13.4538Z" />
        </svg>
    