
        <svg xmlns="http://www.w3.org/2000/svg" viewBox="0 0 100 100">
            <path d="M1.0617 20.9273C1.6417 20.9273 2.1217 20.4473 2.1217 19.8673V18.2773H7.8417C8.4417 18.2773 8.7117 18.3673 9.1217 18.8273C10.3317 20.1873 12.0517 21.1673 14.1017 21.1673C16.3517 21.1673 17.6217 20.1773 18.9017 18.9973C19.3617 18.5673 19.9017 18.3273 20.4117 18.3273C21.3317 18.3273 22.0517 19.0173 22.0517 20.3073V21.9373C22.0517 22.6373 22.5517 23.1173 23.2417 23.1173H27.5717C28.2617 23.1173 28.7617 22.6273 28.7617 21.9373V20.7273C28.7617 13.7973 24.4717 11.4273 20.6017 11.4273H20.1717C19.9717 11.4273 19.8017 11.3073 19.7317 11.1173L19.0917 9.3673C18.8217 8.6373 18.4117 8.3073 17.7317 8.2973V7.3273C17.7317 6.2373 16.9617 5.4573 15.8817 5.4573H15.2717V4.2673C15.6317 4.0573 15.9217 3.7473 16.1217 3.3873L21.4217 3.9573C22.5517 4.0773 23.3417 3.3673 23.3417 2.2873C23.3417 1.2173 22.5517 0.4873 21.4217 0.6173L16.1417 1.1973C15.7517 0.4773 14.9917 -0.0027 14.1217 -0.0027C13.2517 -0.0027 12.4917 0.4773 12.1017 1.1973L6.8117 0.6173C5.6917 0.4873 4.9017 1.2173 4.9017 2.2873C4.9017 3.3673 5.6917 4.0773 6.8117 3.9573L12.1017 3.3873C12.3117 3.7473 12.6117 4.0573 12.9717 4.2673V5.4573H12.3317C11.2417 5.4573 10.4717 6.2373 10.4717 7.3273V8.2973C9.8017 8.2973 9.3917 8.6273 9.1017 9.3673L8.4617 11.1173C8.3917 11.3073 8.2217 11.4273 8.0317 11.4273H2.1217V10.1173C2.1217 9.5273 1.6417 9.0473 1.0617 9.0473C0.4817 9.0473 0.0017 9.5273 0.0017 10.1173V19.8673C0.0017 20.4473 0.4817 20.9273 1.0617 20.9273ZM12.2917 7.5073C12.2917 7.2273 12.4917 7.0273 12.7717 7.0273H15.4317C15.7117 7.0273 15.9117 7.2273 15.9117 7.5073V8.2973H12.2917ZM24.0017 21.1873V20.3073C24.0017 17.1073 22.0517 16.3673 20.5217 16.3673C19.3017 16.3673 18.4217 16.8373 17.6117 17.5973C16.8017 18.3173 15.8717 19.2173 14.1017 19.2173C12.4117 19.2173 11.3817 18.4773 10.5117 17.4973C9.7817 16.6273 9.2317 16.3373 7.9317 16.3373H2.1217V13.3573H8.3117C9.5017 13.3573 9.9017 12.8573 10.1917 12.0373L10.8617 10.2273H17.3417L18.0017 12.0373C18.3017 12.8573 18.7217 13.3573 19.9117 13.3573H20.5317C23.8917 13.3573 26.8317 15.2273 26.8317 20.7273V21.1873Z" />
        </svg>
    