
        <svg xmlns="http://www.w3.org/2000/svg" viewBox="0 0 100 100">
            <path d="M0.7217 18.8884C1.1217 18.8884 1.4517 18.5584 1.4517 18.1684V16.5784H6.9817C7.6417 16.5784 7.8517 16.6384 8.2817 17.0584C9.4817 18.2384 11.0117 19.3284 13.1217 19.3284C15.2317 19.3284 16.4617 18.3384 17.7617 17.2284C18.2217 16.8284 18.8017 16.5784 19.3217 16.5784C20.3817 16.5784 21.1417 17.3484 21.1417 18.6584V20.4684C21.1417 21.0384 21.4617 21.3584 22.0217 21.3584H26.0517C26.6017 21.3584 26.9317 21.0384 26.9317 20.4684V19.3284C26.9317 13.0984 23.2817 10.4884 19.1717 10.4884H18.5817C18.4117 10.4884 18.2717 10.3984 18.2017 10.2284L17.4517 8.1784C17.2517 7.6484 16.9617 7.4184 16.4517 7.4184H16.4017V6.3584C16.4017 5.5084 15.8117 4.9084 14.9617 4.9084H13.9817V3.7384C14.3717 3.5484 14.6817 3.2484 14.8717 2.8684L19.8317 3.4484C20.8317 3.5784 21.5417 2.9284 21.5417 1.9584C21.5417 1.0084 20.8317 0.3584 19.8317 0.4784L14.8817 1.0584C14.5517 0.4184 13.9117 -0.0016 13.1417 -0.0016C12.3717 -0.0016 11.7217 0.4184 11.4017 1.0584L6.4417 0.4784C5.4517 0.3584 4.7317 1.0084 4.7317 1.9584C4.7317 2.9284 5.4517 3.5784 6.4417 3.4484L11.4017 2.8684C11.6017 3.2584 11.9217 3.5584 12.3117 3.7384V4.9084H11.2817C10.4417 4.9084 9.8417 5.5084 9.8417 6.3584V7.4184H9.8017C9.2917 7.4184 8.9917 7.6484 8.7917 8.1784L8.0417 10.2284C7.9817 10.3984 7.8417 10.4884 7.6517 10.4884H1.4517V9.1284C1.4517 8.7284 1.1217 8.3984 0.7217 8.3984C0.3317 8.3984 0.0017 8.7284 0.0017 9.1284V18.1684C0.0017 18.5584 0.3317 18.8884 0.7217 18.8884ZM11.1017 6.4784C11.1017 6.1984 11.2817 6.0084 11.5617 6.0084H14.6917C14.9617 6.0084 15.1517 6.1984 15.1517 6.4784V7.4184H11.1017ZM22.4617 20.0284V18.6584C22.4617 16.0784 20.9317 15.2384 19.3917 15.2384C18.3717 15.2384 17.5617 15.6484 16.8617 16.2884C15.9717 17.0384 15.0217 17.9884 13.1217 17.9884C11.2117 17.9884 10.1717 17.0484 9.2317 16.1384C8.5917 15.4484 8.1217 15.2484 7.0417 15.2484H1.4517V11.8284H7.6717C8.6817 11.8284 9.0217 11.4184 9.2917 10.6984L10.0117 8.7584H16.2417L16.9617 10.6984C17.2117 11.4184 17.5617 11.8284 18.5717 11.8284H19.1717C22.8517 11.8284 25.6017 14.0584 25.6017 19.3284V20.0284Z" />
        </svg>
    