
        <svg xmlns="http://www.w3.org/2000/svg" viewBox="0 0 100 100">
            <path d="M0.9417 20.2927C1.4617 20.2927 1.8917 19.8627 1.8917 19.3427V17.3427H7.5817C8.3117 17.3427 8.6717 17.4327 9.1917 18.0327C10.3317 19.2927 11.8717 20.2127 13.8417 20.2127C15.8017 20.2127 16.9817 19.4227 18.2917 18.2127C18.8217 17.6827 19.5117 17.4127 20.1217 17.4127C21.2817 17.4127 22.2117 18.2727 22.2117 19.8127V21.4427C22.2117 21.9327 22.4317 22.1627 22.9217 22.1627H27.2117C27.7017 22.1627 27.9417 21.9327 27.9417 21.4427V20.3527C27.9417 13.6827 24.0017 11.4527 20.2017 11.4527H19.7017C19.3717 11.4527 19.1517 11.2627 19.0517 11.0027L18.3417 9.0727C18.1317 8.4827 17.9317 8.3327 17.4117 8.3327H17.1017V6.9927C17.1017 6.0727 16.5217 5.4927 15.6017 5.4927H14.8917V4.0827C15.2717 3.8827 15.5817 3.5627 15.7817 3.1727L20.9617 3.7527C22.0217 3.8627 22.7717 3.1827 22.7717 2.1727C22.7717 1.1627 22.0217 0.4927 20.9617 0.6127L15.7817 1.1727C15.4217 0.4827 14.6917 0.0027 13.8517 0.0027C13.0217 0.0027 12.2917 0.4827 11.9317 1.1727L6.7517 0.6127C5.6817 0.4927 4.9317 1.1627 4.9317 2.1727C4.9317 3.1827 5.6817 3.8627 6.7517 3.7527L11.9317 3.1727C12.1317 3.5627 12.4417 3.8827 12.8217 4.0927V5.4927H12.0717C11.1517 5.4927 10.5817 6.0727 10.5817 6.9927V8.3327H10.2517C9.7417 8.3327 9.5517 8.4827 9.3317 9.0727L8.6217 11.0027C8.5217 11.2627 8.3017 11.4527 7.9817 11.4527H1.8917V9.7727C1.8917 9.2627 1.4617 8.8227 0.9417 8.8227C0.4217 8.8227 0.0017 9.2627 0.0017 9.7727V19.3427C0.0017 19.8627 0.4217 20.2927 0.9417 20.2927Z" />
        </svg>
    