
        <svg xmlns="http://www.w3.org/2000/svg" viewBox="0 0 100 100">
            <path d="M5.1217 22.8467H14.6217V17.0267C12.0317 16.4767 10.1017 14.1767 10.1017 11.4267C10.1017 8.6767 12.0317 6.3767 14.6217 5.8267V-0.0033H5.1217C1.8317 -0.0033 0.0017 1.7667 0.0017 5.0367V5.2467H3.1217C5.0717 5.2467 6.1317 6.3067 6.1317 8.2567V14.5967C6.1317 16.5567 5.0717 17.6267 3.1217 17.6267H0.0017V17.8267C0.0017 21.0867 1.8417 22.8467 5.1217 22.8467ZM17.0717 22.8467H26.5817C29.8617 22.8467 31.7017 21.0867 31.7017 17.8267V17.6267H28.5817C26.6217 17.6267 25.5717 16.5567 25.5717 14.5967V8.2567C25.5717 6.3067 26.6217 5.2467 28.5817 5.2467H31.7017V5.0367C31.7017 1.7667 29.8617 -0.0033 26.5817 -0.0033H17.0717V5.8267C19.6417 6.3767 21.5717 8.6767 21.5717 11.4267C21.5717 14.1667 19.6417 16.4667 17.0717 17.0267ZM0.0017 15.3467H3.0817C3.5717 15.3467 3.8517 15.0667 3.8517 14.5767V8.2967C3.8517 7.8067 3.5717 7.5367 3.0817 7.5367H0.0017ZM31.7017 15.3467V7.5367H28.6017C28.1117 7.5367 27.8417 7.8067 27.8417 8.2967V14.5767C27.8417 15.0667 28.1117 15.3467 28.6017 15.3467ZM14.6217 14.5667V13.0967C14.1017 12.7267 13.7617 12.1167 13.7617 11.4267C13.7617 10.7367 14.1017 10.1267 14.6217 9.7367V8.2767C13.3517 8.7467 12.4317 9.9767 12.4317 11.4267C12.4317 12.8767 13.3517 14.1067 14.6217 14.5667ZM17.0717 14.5567C18.3317 14.0867 19.2417 12.8667 19.2417 11.4267C19.2417 9.9867 18.3317 8.7667 17.0717 8.2867V9.7567C17.5917 10.1367 17.9217 10.7467 17.9217 11.4267C17.9217 12.1067 17.5917 12.7167 17.0717 13.0867Z" />
        </svg>
    