
        <svg xmlns="http://www.w3.org/2000/svg" viewBox="0 0 100 100">
            <path d="M4.6217 21.8745H14.8917V16.5745C12.1717 16.1345 10.1017 13.7645 10.1017 10.9345C10.1017 8.0845 12.1717 5.7345 14.8917 5.2945V0.0045H4.6217C1.6517 0.0045 0.0017 1.6245 0.0017 4.5945V5.1445H2.9417C4.9117 5.1445 5.9917 6.2145 5.9917 8.1845V13.6945C5.9917 15.6845 4.9117 16.7445 2.9417 16.7445H0.0017V17.2845C0.0017 20.2345 1.6517 21.8745 4.6217 21.8745ZM16.7817 21.8745H27.0617C30.0217 21.8745 31.6717 20.2345 31.6717 17.2845V16.7445H28.7317C26.7617 16.7445 25.6917 15.6845 25.6917 13.6945V8.1845C25.6917 6.2145 26.7617 5.1445 28.7317 5.1445H31.6717V4.5945C31.6717 1.6245 30.0217 0.0045 27.0617 0.0045H16.7817V5.2945C19.5017 5.7345 21.5617 8.0845 21.5617 10.9345C21.5617 13.7645 19.5017 16.1245 16.7817 16.5745ZM0.0017 14.9445H2.9417C3.7517 14.9445 4.1817 14.5045 4.1817 13.6945V8.1945C4.1817 7.3845 3.7517 6.9445 2.9417 6.9445H0.0017ZM31.6717 14.9445V6.9445H28.7317C27.9217 6.9445 27.4917 7.3845 27.4917 8.1945V13.6945C27.4917 14.5045 27.9217 14.9445 28.7317 14.9445ZM14.8917 14.7545V12.6545C14.2717 12.3245 13.8517 11.6845 13.8517 10.9345C13.8517 10.1845 14.2717 9.5245 14.8917 9.1945V7.1145C13.1617 7.5245 11.8717 9.0545 11.8717 10.9345C11.8717 12.7945 13.1617 14.3445 14.8917 14.7545ZM16.7817 14.7445C18.5117 14.3445 19.7917 12.7945 19.7917 10.9345C19.7917 9.0745 18.5117 7.5245 16.7817 7.1145V9.2145C17.4017 9.5245 17.8117 10.1845 17.8117 10.9345C17.8117 11.6845 17.4017 12.3245 16.7817 12.6545Z" />
        </svg>
    