
        <svg xmlns="http://www.w3.org/2000/svg" viewBox="0 0 100 100">
            <path d="M0.9417 19.1217H23.7117C24.2217 19.1217 24.6517 18.7017 24.6517 18.1717C24.6517 17.6617 24.2217 17.2417 23.7117 17.2417H14.6217V11.7817H15.0217C15.8917 11.7817 16.4917 11.1817 16.4917 10.3017V8.1817C16.4917 7.3117 15.8917 6.7117 15.0217 6.7117H14.6217V4.9617H15.0217C15.8917 4.9617 16.4917 4.3517 16.4917 3.4817V2.4817C16.4917 1.0217 15.4317 0.0017 13.8917 0.0017H10.7617C9.2117 0.0017 8.1517 1.0217 8.1517 2.4817V3.4817C8.1517 4.3517 8.7517 4.9617 9.6217 4.9617H10.0317V6.7117H9.6317C8.7617 6.7117 8.1517 7.3117 8.1517 8.1817V10.3017C8.1517 11.1817 8.7617 11.7817 9.6317 11.7817H10.0317V17.2417H0.9417C0.4217 17.2417 0.0017 17.6617 0.0017 18.1717C0.0017 18.7017 0.4217 19.1217 0.9417 19.1217ZM10.0217 3.2917C9.8917 3.2917 9.8117 3.2217 9.8117 3.0917V2.4817C9.8117 1.9317 10.1517 1.6517 10.7617 1.6517H13.8917C14.4917 1.6517 14.8317 1.9317 14.8317 2.4817V3.0917C14.8317 3.2217 14.7517 3.2917 14.6417 3.2917ZM11.6817 6.7117V4.9617H12.9717V6.7117ZM10.0217 10.1217C9.8917 10.1217 9.8117 10.0417 9.8117 9.9117V8.5617C9.8117 8.4517 9.8917 8.3717 10.0217 8.3717H14.6417C14.7517 8.3717 14.8317 8.4517 14.8317 8.5617V9.9117C14.8317 10.0417 14.7517 10.1217 14.6417 10.1217ZM11.6817 17.2417V11.7817H12.9717V17.2417Z" />
        </svg>
    