
        <svg xmlns="http://www.w3.org/2000/svg" viewBox="0 0 100 100">
            <path d="M0.0017 20.4164C0.0017 20.9064 0.3017 21.2064 0.8017 21.2064H20.4217C20.9017 21.2064 21.2217 20.9064 21.2217 20.4164V0.7864C21.2217 0.3064 20.9017 -0.0036 20.4217 -0.0036H0.8017C0.3017 -0.0036 0.0017 0.3064 0.0017 0.7864ZM1.4517 19.4664V1.7464C1.4517 1.5364 1.5317 1.4364 1.7417 1.4364H19.4617C19.6717 1.4364 19.7717 1.5364 19.7717 1.7464V19.4664C19.7717 19.6764 19.6717 19.7664 19.4617 19.7664H1.7417C1.5317 19.7664 1.4517 19.6764 1.4517 19.4664ZM4.4317 5.2864C4.9217 5.2864 5.3017 4.9064 5.3017 4.4164C5.3017 3.9264 4.9217 3.5464 4.4317 3.5464C3.9417 3.5464 3.5617 3.9264 3.5617 4.4164C3.5617 4.9064 3.9417 5.2864 4.4317 5.2864ZM7.5217 5.2864C8.0117 5.2864 8.3917 4.9064 8.3917 4.4164C8.3917 3.9264 8.0117 3.5464 7.5217 3.5464C7.0317 3.5464 6.6517 3.9264 6.6517 4.4164C6.6517 4.9064 7.0317 5.2864 7.5217 5.2864ZM10.6217 5.2864C11.1117 5.2864 11.4817 4.9064 11.4817 4.4164C11.4817 3.9264 11.1117 3.5464 10.6217 3.5464C10.1217 3.5464 9.7517 3.9264 9.7517 4.4164C9.7517 4.9064 10.1217 5.2864 10.6217 5.2864ZM13.7117 5.2864C14.2017 5.2864 14.5817 4.9064 14.5817 4.4164C14.5817 3.9264 14.2017 3.5464 13.7117 3.5464C13.2217 3.5464 12.8417 3.9264 12.8417 4.4164C12.8417 4.9064 13.2217 5.2864 13.7117 5.2864ZM16.8117 5.2864C17.3117 5.2864 17.6817 4.9064 17.6817 4.4164C17.6817 3.9264 17.3117 3.5464 16.8117 3.5464C16.3217 3.5464 15.9517 3.9264 15.9517 4.4164C15.9517 4.9064 16.3217 5.2864 16.8117 5.2864ZM16.8117 8.3764C17.3117 8.3764 17.6817 8.0064 17.6817 7.5164C17.6817 7.0164 17.3117 6.6464 16.8117 6.6464C16.3217 6.6464 15.9517 7.0164 15.9517 7.5164C15.9517 8.0064 16.3217 8.3764 16.8117 8.3764ZM4.4317 8.3764C4.9217 8.3764 5.3017 8.0064 5.3017 7.5164C5.3017 7.0164 4.9217 6.6464 4.4317 6.6464C3.9417 6.6464 3.5617 7.0164 3.5617 7.5164C3.5617 8.0064 3.9417 8.3764 4.4317 8.3764ZM16.8117 11.4764C17.3117 11.4764 17.6817 11.0964 17.6817 10.6064C17.6817 10.1164 17.3117 9.7364 16.8117 9.7364C16.3217 9.7364 15.9517 10.1164 15.9517 10.6064C15.9517 11.0964 16.3217 11.4764 16.8117 11.4764ZM4.4317 11.4764C4.9217 11.4764 5.3017 11.0964 5.3017 10.6064C5.3017 10.1164 4.9217 9.7364 4.4317 9.7364C3.9417 9.7364 3.5617 10.1164 3.5617 10.6064C3.5617 11.0964 3.9417 11.4764 4.4317 11.4764ZM16.8117 14.5664C17.3117 14.5664 17.6817 14.1864 17.6817 13.6964C17.6817 13.2064 17.3117 12.8364 16.8117 12.8364C16.3217 12.8364 15.9517 13.2064 15.9517 13.6964C15.9517 14.1864 16.3217 14.5664 16.8117 14.5664ZM4.4317 14.5664C4.9217 14.5664 5.3017 14.1864 5.3017 13.6964C5.3017 13.2064 4.9217 12.8364 4.4317 12.8364C3.9417 12.8364 3.5617 13.2064 3.5617 13.6964C3.5617 14.1864 3.9417 14.5664 4.4317 14.5664ZM16.8117 17.6564C17.3117 17.6564 17.6817 17.2864 17.6817 16.7964C17.6817 16.2964 17.3117 15.9264 16.8117 15.9264C16.3217 15.9264 15.9517 16.2964 15.9517 16.7964C15.9517 17.2864 16.3217 17.6564 16.8117 17.6564ZM13.7117 17.6564C14.2017 17.6564 14.5817 17.2864 14.5817 16.7964C14.5817 16.2964 14.2017 15.9264 13.7117 15.9264C13.2217 15.9264 12.8417 16.2964 12.8417 16.7964C12.8417 17.2864 13.2217 17.6564 13.7117 17.6564ZM10.6217 17.6564C11.1117 17.6564 11.4817 17.2864 11.4817 16.7964C11.4817 16.2964 11.1117 15.9264 10.6217 15.9264C10.1217 15.9264 9.7517 16.2964 9.7517 16.7964C9.7517 17.2864 10.1217 17.6564 10.6217 17.6564ZM7.5217 17.6564C8.0117 17.6564 8.3917 17.2864 8.3917 16.7964C8.3917 16.2964 8.0117 15.9264 7.5217 15.9264C7.0317 15.9264 6.6517 16.2964 6.6517 16.7964C6.6517 17.2864 7.0317 17.6564 7.5217 17.6564ZM4.4317 17.6564C4.9217 17.6564 5.3017 17.2864 5.3017 16.7964C5.3017 16.2964 4.9217 15.9264 4.4317 15.9264C3.9417 15.9264 3.5617 16.2964 3.5617 16.7964C3.5617 17.2864 3.9417 17.6564 4.4317 17.6564Z" />
        </svg>
    