
        <svg xmlns="http://www.w3.org/2000/svg" viewBox="0 0 100 100">
            <path d="M0.0017 19.9948C0.0017 20.3048 0.1917 20.5048 0.5117 20.5048H19.9917C20.3117 20.5048 20.5117 20.3048 20.5117 19.9948V0.5148C20.5117 0.1848 20.3117 0.0048 19.9917 0.0048H0.5117C0.1917 0.0048 0.0017 0.1848 0.0017 0.5148ZM0.5717 19.7148V0.7948C0.5717 0.6648 0.6717 0.5748 0.8017 0.5748H19.7117C19.8417 0.5748 19.9317 0.6648 19.9317 0.7948V19.7148C19.9317 19.8448 19.8417 19.9348 19.7117 19.9348H0.8017C0.6717 19.9348 0.5717 19.8448 0.5717 19.7148ZM3.4817 4.0648C3.8117 4.0648 4.0617 3.7948 4.0617 3.4848C4.0617 3.1548 3.8117 2.8848 3.4817 2.8848C3.1517 2.8848 2.8917 3.1548 2.8917 3.4848C2.8917 3.7948 3.1517 4.0648 3.4817 4.0648ZM6.8717 4.0648C7.1917 4.0648 7.4617 3.7948 7.4617 3.4848C7.4617 3.1548 7.1917 2.8848 6.8717 2.8848C6.5517 2.8848 6.2817 3.1548 6.2817 3.4848C6.2817 3.7948 6.5517 4.0648 6.8717 4.0648ZM10.2517 4.0648C10.5817 4.0648 10.8517 3.7948 10.8517 3.4848C10.8517 3.1548 10.5817 2.8848 10.2517 2.8848C9.9417 2.8848 9.6717 3.1548 9.6717 3.4848C9.6717 3.7948 9.9417 4.0648 10.2517 4.0648ZM13.6517 4.0648C13.9717 4.0648 14.2417 3.7948 14.2417 3.4848C14.2417 3.1548 13.9717 2.8848 13.6517 2.8848C13.3217 2.8848 13.0517 3.1548 13.0517 3.4848C13.0517 3.7948 13.3217 4.0648 13.6517 4.0648ZM17.0517 4.0648C17.3817 4.0648 17.6417 3.7948 17.6417 3.4848C17.6417 3.1548 17.3817 2.8848 17.0517 2.8848C16.7217 2.8848 16.4617 3.1548 16.4617 3.4848C16.4617 3.7948 16.7217 4.0648 17.0517 4.0648ZM17.0517 7.4548C17.3817 7.4548 17.6417 7.1848 17.6417 6.8648C17.6417 6.5348 17.3817 6.2648 17.0517 6.2648C16.7217 6.2648 16.4617 6.5348 16.4617 6.8648C16.4617 7.1848 16.7217 7.4548 17.0517 7.4548ZM3.4817 7.4548C3.8117 7.4548 4.0617 7.1848 4.0617 6.8648C4.0617 6.5348 3.8117 6.2648 3.4817 6.2648C3.1517 6.2648 2.8917 6.5348 2.8917 6.8648C2.8917 7.1848 3.1517 7.4548 3.4817 7.4548ZM17.0517 10.8348C17.3817 10.8348 17.6417 10.5848 17.6417 10.2548C17.6417 9.9248 17.3817 9.6548 17.0517 9.6548C16.7217 9.6548 16.4617 9.9248 16.4617 10.2548C16.4617 10.5848 16.7217 10.8348 17.0517 10.8348ZM3.4817 10.8348C3.8117 10.8348 4.0617 10.5848 4.0617 10.2548C4.0617 9.9248 3.8117 9.6548 3.4817 9.6548C3.1517 9.6548 2.8917 9.9248 2.8917 10.2548C2.8917 10.5848 3.1517 10.8348 3.4817 10.8348ZM17.0517 14.2248C17.3817 14.2248 17.6417 13.9648 17.6417 13.6448C17.6417 13.3148 17.3817 13.0548 17.0517 13.0548C16.7217 13.0548 16.4617 13.3148 16.4617 13.6448C16.4617 13.9648 16.7217 14.2248 17.0517 14.2248ZM3.4817 14.2248C3.8117 14.2248 4.0617 13.9648 4.0617 13.6448C4.0617 13.3148 3.8117 13.0548 3.4817 13.0548C3.1517 13.0548 2.8917 13.3148 2.8917 13.6448C2.8917 13.9648 3.1517 14.2248 3.4817 14.2248ZM17.0517 17.6248C17.3817 17.6248 17.6417 17.3548 17.6417 17.0248C17.6417 16.6948 17.3817 16.4448 17.0517 16.4448C16.7217 16.4448 16.4617 16.6948 16.4617 17.0248C16.4617 17.3548 16.7217 17.6248 17.0517 17.6248ZM13.6517 17.6248C13.9717 17.6248 14.2417 17.3548 14.2417 17.0248C14.2417 16.6948 13.9717 16.4448 13.6517 16.4448C13.3217 16.4448 13.0517 16.6948 13.0517 17.0248C13.0517 17.3548 13.3217 17.6248 13.6517 17.6248ZM10.2517 17.6248C10.5817 17.6248 10.8517 17.3548 10.8517 17.0248C10.8517 16.6948 10.5817 16.4448 10.2517 16.4448C9.9417 16.4448 9.6717 16.6948 9.6717 17.0248C9.6717 17.3548 9.9417 17.6248 10.2517 17.6248ZM6.8717 17.6248C7.1917 17.6248 7.4617 17.3548 7.4617 17.0248C7.4617 16.6948 7.1917 16.4448 6.8717 16.4448C6.5517 16.4448 6.2817 16.6948 6.2817 17.0248C6.2817 17.3548 6.5517 17.6248 6.8717 17.6248ZM3.4817 17.6248C3.8117 17.6248 4.0617 17.3548 4.0617 17.0248C4.0617 16.6948 3.8117 16.4448 3.4817 16.4448C3.1517 16.4448 2.8917 16.6948 2.8917 17.0248C2.8917 17.3548 3.1517 17.6248 3.4817 17.6248Z" />
        </svg>
    