
        <svg xmlns="http://www.w3.org/2000/svg" viewBox="0 0 100 100">
            <path d="M12.1517 25.0213L21.7517 19.4913C22.2817 19.1713 22.5517 18.9113 22.5517 18.4813C22.5517 18.0513 22.2817 17.7813 21.7517 17.4713L18.5517 15.6313L21.7517 13.7913C22.2817 13.4913 22.5517 13.2213 22.5517 12.7813C22.5517 12.3513 22.2817 12.0913 21.7517 11.7813L18.3517 9.8212L21.7517 7.8613C22.2817 7.5613 22.5517 7.2913 22.5517 6.8513C22.5517 6.4313 22.2817 6.1613 21.7517 5.8613L12.1517 0.3212C11.8117 0.1212 11.5617 0.0012 11.2717 0.0012C10.9817 0.0012 10.7317 0.1212 10.3917 0.3212L0.8017 5.8613C0.2717 6.1613 0.0017 6.4313 0.0017 6.8513C0.0017 7.2913 0.2717 7.5613 0.8017 7.8613L4.1917 9.8212L0.8017 11.7813C0.2717 12.0913 0.0017 12.3513 0.0017 12.7813C0.0017 13.2213 0.2717 13.4913 0.8017 13.7913L3.9917 15.6313L0.8017 17.4713C0.2717 17.7813 0.0017 18.0513 0.0017 18.4813C0.0017 18.9113 0.2717 19.1713 0.8017 19.4913L10.3917 25.0213C10.7317 25.2213 10.9817 25.3313 11.2717 25.3313C11.5617 25.3313 11.8117 25.2213 12.1517 25.0213ZM11.2717 13.7113C11.5617 13.7113 11.8117 13.5913 12.1517 13.3913L17.4717 10.3313L21.2717 12.5113C21.3917 12.5712 21.4717 12.6512 21.4717 12.7813C21.4717 12.9113 21.3917 12.9913 21.2717 13.0513L11.6517 18.5813C11.5117 18.6713 11.4017 18.7113 11.2717 18.7113C11.1417 18.7113 11.0417 18.6713 10.8917 18.5813L1.2817 13.0513C1.1617 12.9913 1.0617 12.9113 1.0617 12.7813C1.0617 12.6512 1.1617 12.5712 1.2817 12.5113L5.0717 10.3212L10.3917 13.3913C10.7317 13.5913 10.9817 13.7113 11.2717 13.7113ZM10.8917 24.2813L1.2817 18.7513C1.1617 18.6913 1.0617 18.6112 1.0617 18.4813C1.0617 18.3513 1.1617 18.2713 1.2817 18.2113L4.8717 16.1513L10.3917 19.3213C10.7317 19.5212 10.9817 19.6413 11.2717 19.6413C11.5617 19.6413 11.8117 19.5212 12.1517 19.3213L17.6717 16.1413L21.2717 18.2113C21.3917 18.2713 21.4717 18.3513 21.4717 18.4813C21.4717 18.6112 21.3917 18.6913 21.2717 18.7513L11.6517 24.2813C11.5117 24.3612 11.4017 24.4113 11.2717 24.4113C11.1417 24.4113 11.0417 24.3612 10.8917 24.2813Z" />
        </svg>
    