
        <svg xmlns="http://www.w3.org/2000/svg" viewBox="0 0 100 100">
            <path d="M21.4624 21.894C21.5824 22.014 21.7724 22.014 21.8824 21.894C22.0224 21.764 22.0024 21.594 21.8824 21.474L0.5024 0.084C0.4024 -0.016 0.2324 -0.036 0.0924 0.084C-0.0276 0.204 -0.0276 0.394 0.0924 0.494ZM18.2124 0.744H3.7324C3.3024 0.744 2.9024 0.794 2.5524 0.894L21.0724 19.414C21.1724 19.064 21.2324 18.674 21.2324 18.224V3.754C21.2324 1.814 20.1824 0.744 18.2124 0.744ZM3.7324 21.244H18.2124C18.6624 21.244 19.0524 21.184 19.4124 21.084L0.8924 2.544C0.7824 2.904 0.7224 3.294 0.7224 3.754V18.224C0.7224 20.194 1.7624 21.244 3.7324 21.244Z" />
        </svg>
    