
        <svg xmlns="http://www.w3.org/2000/svg" viewBox="0 0 100 100">
            <path d="M4.1617 5.8942V5.2242C4.1617 4.4542 4.5117 4.1642 5.2217 4.1642H5.9917V0.0042H4.5917C1.7017 0.0042 0.0017 1.6842 0.0017 4.5942V5.8942ZM13.3717 0.0042H8.1917V4.1642H13.3717ZM0.0017 15.6242V16.9342C0.0017 19.8242 1.7017 21.5242 4.5917 21.5242H6.5017V23.1642C6.5017 26.0642 8.2017 27.7642 11.1117 27.7642H23.4417C26.3417 27.7642 28.0317 26.0642 28.0317 23.1642V10.8142C28.0317 7.9242 26.3417 6.2242 23.4417 6.2242H21.5317V4.5942C21.5317 1.6842 19.8317 0.0042 16.9317 0.0042H15.5417V4.1642H16.3017C17.0117 4.1642 17.3717 4.4542 17.3717 5.2242V6.2242H11.1117C8.2017 6.2242 6.5017 7.9242 6.5017 10.8142V17.3642H5.2217C4.5117 17.3642 4.1617 17.0742 4.1617 16.2842V15.6242ZM4.1617 13.4142V8.0942H0.0017V13.4142ZM11.7417 23.6042C11.0117 23.6042 10.6617 23.2942 10.6617 22.5242V11.4642C10.6617 10.6842 11.0117 10.3942 11.7417 10.3942H22.8017C23.5217 10.3942 23.8717 10.6842 23.8717 11.4642V22.5242C23.8717 23.2942 23.5217 23.6042 22.8017 23.6042Z" />
        </svg>
    