
        <svg xmlns="http://www.w3.org/2000/svg" viewBox="0 0 100 100">
            <path d="M22.9253 3.6056L23.6553 2.8556C24.2953 2.2356 24.3253 1.3156 23.7353 0.7456L23.2953 0.3256C22.7853 -0.1844 21.8453 -0.0744 21.2453 0.5156L20.5453 1.2356ZM4.3853 24.1056H17.7053C20.3953 24.1056 21.9753 22.5256 21.9753 19.7556V7.4656L18.3553 11.0956V19.2356C18.3553 20.1156 17.9253 20.4856 17.2153 20.4856H4.8753C4.0453 20.4856 3.6253 20.1156 3.6253 19.2356V7.0156C3.6253 6.1356 4.0453 5.7556 4.8753 5.7556H13.0853L16.7153 2.1356H4.3853C1.5853 2.1356 -0.0047 3.7156 -0.0047 6.4956V19.7556C-0.0047 22.5256 1.5853 24.1056 4.3853 24.1056ZM9.3253 15.5456L12.0353 14.4856L21.9353 4.5856L19.5553 2.2056L9.6653 12.1056L8.6053 14.7956C8.4153 15.2756 8.9153 15.6956 9.3253 15.5456Z" />
        </svg>
    