
        <svg xmlns="http://www.w3.org/2000/svg" viewBox="0 0 100 100">
            <path d="M4.3817 28.5894H18.0217C20.8217 28.5894 22.4017 27.0094 22.4017 24.2194V13.0194C22.4017 10.2394 20.8217 8.6594 18.0217 8.6594H12.7817V5.4794L12.6417 3.7694L13.1617 4.7194L14.3517 5.9994C14.6217 6.2794 14.9717 6.4494 15.3717 6.4494C16.0517 6.4494 16.7217 5.9194 16.7217 5.1594C16.7217 4.7594 16.5717 4.4894 16.3117 4.2194L12.4817 0.5494C12.0617 0.1394 11.6417 -0.0006 11.2017 -0.0006C10.7717 -0.0006 10.3517 0.1394 9.9217 0.5494L6.0917 4.2194C5.8317 4.4894 5.6817 4.7594 5.6817 5.1594C5.6817 5.9194 6.3417 6.4494 7.0317 6.4494C7.4217 6.4494 7.7817 6.2794 8.0417 5.9994L9.2417 4.7194L9.7617 3.7694L9.6217 5.4794V8.6594H12.7817V16.7494C12.7817 17.5794 12.0917 18.3094 11.2017 18.3094C10.3117 18.3094 9.6217 17.5794 9.6217 16.7494V8.6594H4.3817C1.5917 8.6594 0.0017 10.2394 0.0017 13.0194V24.2194C0.0017 27.0094 1.5917 28.5894 4.3817 28.5894ZM10.8517 34.6994H24.5017C27.2917 34.6994 28.8717 33.1194 28.8717 30.3394V19.1394C28.8717 16.3494 27.2917 14.7694 24.5017 14.7694H24.2617V24.2194C24.2617 28.0394 21.8417 30.4494 18.0217 30.4494H6.4817V30.4994C6.5417 33.1894 8.1217 34.6994 10.8517 34.6994Z" />
        </svg>
    