
        <svg xmlns="http://www.w3.org/2000/svg" viewBox="0 0 100 100">
            <path d="M3.8417 19.55H5.9317V21.32C5.9317 23.81 7.2417 25.11 9.7717 25.11H21.5417C24.0717 25.11 25.3817 23.81 25.3817 21.32V9.47C25.3817 6.96 24.0717 5.66 21.5417 5.66H19.5517V3.8C19.5517 1.3 18.2317 0 15.7017 0H3.8417C1.3117 0 0.0017 1.29 0.0017 3.8V15.74C0.0017 18.25 1.3117 19.55 3.8417 19.55ZM3.9817 17.25C2.8917 17.25 2.3017 16.69 2.3017 15.55V4C2.3017 2.86 2.8917 2.29 3.9817 2.29H15.5717C16.6517 2.29 17.2617 2.86 17.2617 4V5.66H9.7717C7.2417 5.66 5.9317 6.96 5.9317 9.47V17.25Z" />
        </svg>
    