
        <svg xmlns="http://www.w3.org/2000/svg" viewBox="0 0 100 100">
            <path d="M13.3517 26.6985L22.3517 21.4985C23.6617 20.7485 24.0017 20.0585 24.0017 18.6085V7.9185C24.0017 5.8385 22.1917 5.2685 20.7517 6.0985L18.9517 7.1385V4.9585C18.9517 2.8885 17.1417 2.3085 15.6917 3.1585L14.1117 4.0685V2.1785C14.1117 0.1085 12.3017 -0.4615 10.8517 0.3685L1.7017 5.6685C0.4217 6.4185 0.0017 7.1385 0.0017 8.6185V19.0185C0.0017 21.3185 1.5317 22.0685 3.4617 20.9585L4.8417 20.1685V21.8085C4.8417 24.0985 6.3617 24.8585 8.3017 23.7485L9.8917 22.8185V24.7685C9.8917 27.0485 11.4217 27.7985 13.3517 26.6985ZM2.5317 18.3685V8.6685C2.5317 8.2285 2.6517 8.0885 2.9717 7.8885L11.3917 3.0285C11.4917 2.9685 11.5817 3.0285 11.5817 3.1285V5.5385L6.5417 8.4385C5.2517 9.1885 4.8417 9.9185 4.8417 11.4085V17.2185L2.7117 18.4585C2.6117 18.5185 2.5317 18.4685 2.5317 18.3685ZM9.8917 14.3585V19.8785L7.5517 21.2385C7.4417 21.2985 7.3717 21.2485 7.3717 21.1485V11.4385C7.3717 11.0085 7.4717 10.8685 7.8117 10.6685L16.2317 5.8185C16.3317 5.7585 16.4217 5.8185 16.4217 5.9085V8.6085L11.6017 11.3985C10.3117 12.1485 9.8917 12.8685 9.8917 14.3585ZM12.8717 13.6185L21.2817 8.7585C21.3917 8.6985 21.4717 8.7585 21.4717 8.8585V18.5085C21.4717 18.8985 21.3917 19.0785 21.0317 19.2785L12.6117 24.1885C12.5017 24.2485 12.4217 24.1985 12.4217 24.0985V14.3985C12.4217 13.9585 12.5417 13.8185 12.8717 13.6185Z" />
        </svg>
    