
        <svg xmlns="http://www.w3.org/2000/svg" viewBox="0 0 100 100">
            <path d="M3.1617 20.742H17.5917C19.6617 20.742 20.7417 19.642 20.7417 17.592V3.152C20.7417 1.102 19.6617 0.002 17.5917 0.002H3.1617C1.0917 0.002 0.0017 1.082 0.0017 3.152V17.592C0.0017 19.662 1.0917 20.742 3.1617 20.742ZM3.1917 0.872H17.5517C18.1217 0.872 18.5817 0.982 18.9517 1.202L10.3717 9.782L1.7917 1.202C2.1517 0.982 2.6217 0.872 3.1917 0.872ZM0.8717 17.552V3.202C0.8717 2.632 0.9717 2.182 1.1817 1.812L9.7617 10.392L1.2117 18.962C0.9817 18.602 0.8717 18.122 0.8717 17.552ZM19.8717 3.202V17.552C19.8717 18.122 19.7617 18.582 19.5317 18.952L10.9817 10.392L19.5617 1.832C19.7717 2.182 19.8717 2.632 19.8717 3.202ZM3.1917 19.872C2.6417 19.872 2.1817 19.772 1.8117 19.562L10.3717 11.002L18.9117 19.562C18.5517 19.772 18.0917 19.872 17.5517 19.872Z" />
        </svg>
    