
        <svg xmlns="http://www.w3.org/2000/svg" viewBox="0 0 100 100">
            <path d="M0.0017 21.2841C0.0017 21.9641 0.4417 22.4041 1.1217 22.4041H21.2817C21.9617 22.4041 22.4017 21.9641 22.4017 21.2841V1.1241C22.4017 0.4441 21.9617 0.0041 21.2817 0.0041H1.1217C0.4417 0.0041 0.0017 0.4441 0.0017 1.1241ZM3.0217 19.0541V3.3441C3.0217 3.1241 3.1317 3.0241 3.3517 3.0241H19.0517C19.2817 3.0241 19.3817 3.1241 19.3817 3.3441V19.0541C19.3817 19.2741 19.2817 19.3841 19.0517 19.3841H3.3517C3.1317 19.3841 3.0217 19.2741 3.0217 19.0541ZM5.8917 6.9041C6.4717 6.9041 6.9117 6.4541 6.9117 5.8741C6.9117 5.2841 6.4717 4.8441 5.8917 4.8441C5.3117 4.8441 4.8617 5.2841 4.8617 5.8741C4.8617 6.4541 5.3117 6.9041 5.8917 6.9041ZM8.5517 6.9041C9.1317 6.9041 9.5817 6.4541 9.5817 5.8741C9.5817 5.2841 9.1317 4.8441 8.5517 4.8441C7.9717 4.8441 7.5217 5.2841 7.5217 5.8741C7.5217 6.4541 7.9717 6.9041 8.5517 6.9041ZM11.2117 6.9041C11.7917 6.9041 12.2417 6.4541 12.2417 5.8741C12.2417 5.2841 11.7917 4.8441 11.2117 4.8441C10.6317 4.8441 10.1817 5.2841 10.1817 5.8741C10.1817 6.4541 10.6317 6.9041 11.2117 6.9041ZM13.8717 6.9041C14.4517 6.9041 14.9017 6.4541 14.9017 5.8741C14.9017 5.2841 14.4517 4.8441 13.8717 4.8441C13.2917 4.8441 12.8417 5.2841 12.8417 5.8741C12.8417 6.4541 13.2917 6.9041 13.8717 6.9041ZM16.5317 6.9041C17.1217 6.9041 17.5617 6.4541 17.5617 5.8741C17.5617 5.2841 17.1217 4.8441 16.5317 4.8441C15.9517 4.8441 15.5017 5.2841 15.5017 5.8741C15.5017 6.4541 15.9517 6.9041 16.5317 6.9041ZM16.5317 9.5641C17.1217 9.5641 17.5617 9.1141 17.5617 8.5341C17.5617 7.9541 17.1217 7.5041 16.5317 7.5041C15.9517 7.5041 15.5017 7.9541 15.5017 8.5341C15.5017 9.1141 15.9517 9.5641 16.5317 9.5641ZM5.8917 9.5641C6.4717 9.5641 6.9117 9.1141 6.9117 8.5341C6.9117 7.9541 6.4717 7.5041 5.8917 7.5041C5.3117 7.5041 4.8617 7.9541 4.8617 8.5341C4.8617 9.1141 5.3117 9.5641 5.8917 9.5641ZM16.5317 12.2241C17.1217 12.2241 17.5617 11.7741 17.5617 11.1941C17.5617 10.6141 17.1217 10.1641 16.5317 10.1641C15.9517 10.1641 15.5017 10.6141 15.5017 11.1941C15.5017 11.7741 15.9517 12.2241 16.5317 12.2241ZM5.8917 12.2241C6.4717 12.2241 6.9117 11.7741 6.9117 11.1941C6.9117 10.6141 6.4717 10.1641 5.8917 10.1641C5.3117 10.1641 4.8617 10.6141 4.8617 11.1941C4.8617 11.7741 5.3117 12.2241 5.8917 12.2241ZM16.5317 14.8841C17.1217 14.8841 17.5617 14.4341 17.5617 13.8541C17.5617 13.2741 17.1217 12.8241 16.5317 12.8241C15.9517 12.8241 15.5017 13.2741 15.5017 13.8541C15.5017 14.4341 15.9517 14.8841 16.5317 14.8841ZM5.8917 14.8841C6.4717 14.8841 6.9117 14.4341 6.9117 13.8541C6.9117 13.2741 6.4717 12.8241 5.8917 12.8241C5.3117 12.8241 4.8617 13.2741 4.8617 13.8541C4.8617 14.4341 5.3117 14.8841 5.8917 14.8841ZM16.5317 17.5441C17.1217 17.5441 17.5617 17.0941 17.5617 16.5141C17.5617 15.9341 17.1217 15.4841 16.5317 15.4841C15.9517 15.4841 15.5017 15.9341 15.5017 16.5141C15.5017 17.0941 15.9517 17.5441 16.5317 17.5441ZM13.8717 17.5441C14.4517 17.5441 14.9017 17.0941 14.9017 16.5141C14.9017 15.9341 14.4517 15.4841 13.8717 15.4841C13.2917 15.4841 12.8417 15.9341 12.8417 16.5141C12.8417 17.0941 13.2917 17.5441 13.8717 17.5441ZM11.2117 17.5441C11.7917 17.5441 12.2417 17.0941 12.2417 16.5141C12.2417 15.9341 11.7917 15.4841 11.2117 15.4841C10.6317 15.4841 10.1817 15.9341 10.1817 16.5141C10.1817 17.0941 10.6317 17.5441 11.2117 17.5441ZM8.5517 17.5441C9.1317 17.5441 9.5817 17.0941 9.5817 16.5141C9.5817 15.9341 9.1317 15.4841 8.5517 15.4841C7.9717 15.4841 7.5217 15.9341 7.5217 16.5141C7.5217 17.0941 7.9717 17.5441 8.5517 17.5441ZM5.8917 17.5441C6.4717 17.5441 6.9117 17.0941 6.9117 16.5141C6.9117 15.9341 6.4717 15.4841 5.8917 15.4841C5.3117 15.4841 4.8617 15.9341 4.8617 16.5141C4.8617 17.0941 5.3117 17.5441 5.8917 17.5441Z" />
        </svg>
    