
        <svg xmlns="http://www.w3.org/2000/svg" viewBox="0 0 100 100">
            <path d="M1.8617 6.492H4.6417C5.8117 6.492 6.4917 5.852 6.4917 4.602V1.882C6.4917 0.652 5.8117 0.002 4.6417 0.002H1.8617C0.6817 0.002 0.0017 0.652 0.0017 1.882V4.602C0.0017 5.852 0.6817 6.492 1.8617 6.492ZM10.0817 6.492H12.8517C14.0417 6.492 14.7117 5.852 14.7117 4.602V1.882C14.7117 0.652 14.0417 0.002 12.8517 0.002H10.0817C8.8917 0.002 8.2217 0.652 8.2217 1.882V4.602C8.2217 5.852 8.8917 6.492 10.0817 6.492ZM18.3017 6.492H21.0817C22.2617 6.492 22.9417 5.852 22.9417 4.602V1.882C22.9417 0.652 22.2617 0.002 21.0817 0.002H18.3017C17.1217 0.002 16.4417 0.652 16.4417 1.882V4.602C16.4417 5.852 17.1217 6.492 18.3017 6.492ZM2.0117 5.242C1.5017 5.242 1.2617 4.992 1.2617 4.462V2.032C1.2617 1.512 1.5017 1.282 2.0117 1.282H4.4717C4.9817 1.282 5.2217 1.512 5.2217 2.032V4.462C5.2217 4.992 4.9817 5.242 4.4717 5.242ZM10.2317 5.242C9.7117 5.242 9.4917 4.992 9.4917 4.462V2.032C9.4917 1.512 9.7117 1.282 10.2317 1.282H12.7017C13.2117 1.282 13.4417 1.512 13.4417 2.032V4.462C13.4417 4.992 13.2117 5.242 12.7017 5.242ZM18.4617 5.242C17.9517 5.242 17.7117 4.992 17.7117 4.462V2.032C17.7117 1.512 17.9517 1.282 18.4617 1.282H20.9217C21.4317 1.282 21.6717 1.512 21.6717 2.032V4.462C21.6717 4.992 21.4317 5.242 20.9217 5.242ZM1.8617 14.372H4.6417C5.8117 14.372 6.4917 13.722 6.4917 12.492V9.762C6.4917 8.522 5.8117 7.882 4.6417 7.882H1.8617C0.6817 7.882 0.0017 8.522 0.0017 9.762V12.492C0.0017 13.722 0.6817 14.372 1.8617 14.372ZM10.0817 14.372H12.8517C14.0417 14.372 14.7117 13.722 14.7117 12.492V9.762C14.7117 8.522 14.0417 7.882 12.8517 7.882H10.0817C8.8917 7.882 8.2217 8.522 8.2217 9.762V12.492C8.2217 13.722 8.8917 14.372 10.0817 14.372ZM18.3017 14.372H21.0817C22.2617 14.372 22.9417 13.722 22.9417 12.492V9.762C22.9417 8.522 22.2617 7.882 21.0817 7.882H18.3017C17.1217 7.882 16.4417 8.522 16.4417 9.762V12.492C16.4417 13.722 17.1217 14.372 18.3017 14.372ZM2.0117 13.102C1.5017 13.102 1.2617 12.872 1.2617 12.342V9.902C1.2617 9.382 1.5017 9.142 2.0117 9.142H4.4717C4.9817 9.142 5.2217 9.382 5.2217 9.902V12.342C5.2217 12.872 4.9817 13.102 4.4717 13.102ZM10.2317 13.102C9.7117 13.102 9.4917 12.872 9.4917 12.342V9.902C9.4917 9.382 9.7117 9.142 10.2317 9.142H12.7017C13.2117 9.142 13.4417 9.382 13.4417 9.902V12.342C13.4417 12.872 13.2117 13.102 12.7017 13.102ZM18.4617 13.102C17.9517 13.102 17.7117 12.872 17.7117 12.342V9.902C17.7117 9.382 17.9517 9.142 18.4617 9.142H20.9217C21.4317 9.142 21.6717 9.382 21.6717 9.902V12.342C21.6717 12.872 21.4317 13.102 20.9217 13.102ZM1.8617 22.242H4.6417C5.8117 22.242 6.4917 21.602 6.4917 20.352V17.652C6.4917 16.402 5.8117 15.752 4.6417 15.752H1.8617C0.6817 15.752 0.0017 16.402 0.0017 17.652V20.352C0.0017 21.602 0.6817 22.242 1.8617 22.242ZM10.0817 22.242H12.8517C14.0417 22.242 14.7117 21.602 14.7117 20.352V17.652C14.7117 16.402 14.0417 15.752 12.8517 15.752H10.0817C8.8917 15.752 8.2217 16.402 8.2217 17.652V20.352C8.2217 21.602 8.8917 22.242 10.0817 22.242ZM18.3017 22.242H21.0817C22.2617 22.242 22.9417 21.602 22.9417 20.352V17.652C22.9417 16.402 22.2617 15.752 21.0817 15.752H18.3017C17.1217 15.752 16.4417 16.402 16.4417 17.652V20.352C16.4417 21.602 17.1217 22.242 18.3017 22.242ZM2.0117 20.972C1.5017 20.972 1.2617 20.742 1.2617 20.212V17.782C1.2617 17.252 1.5017 17.012 2.0117 17.012H4.4717C4.9817 17.012 5.2217 17.252 5.2217 17.782V20.212C5.2217 20.742 4.9817 20.972 4.4717 20.972ZM10.2317 20.972C9.7117 20.972 9.4917 20.742 9.4917 20.212V17.782C9.4917 17.252 9.7117 17.012 10.2317 17.012H12.7017C13.2117 17.012 13.4417 17.252 13.4417 17.782V20.212C13.4417 20.742 13.2117 20.972 12.7017 20.972Z" />
        </svg>
    