
        <svg xmlns="http://www.w3.org/2000/svg" viewBox="0 0 100 100">
            <path d="M13.9117 26.3366L22.9717 21.0866C24.0017 20.4766 24.4817 19.9466 24.4817 19.1266C24.4817 18.3066 24.0017 17.7666 22.9717 17.1666L21.5817 16.3566L22.9717 15.5466C24.0017 14.9566 24.4817 14.4266 24.4817 13.6066C24.4817 12.7866 24.0017 12.2466 22.9717 11.6466L21.3117 10.6866L22.9717 9.7266C24.0017 9.1166 24.4817 8.5866 24.4817 7.7666C24.4817 6.9466 24.0017 6.4266 22.9717 5.8166L13.9117 0.5666C13.2517 0.1866 12.7617 -0.0034 12.2317 -0.0034C11.7217 -0.0034 11.2217 0.1866 10.5717 0.5666L1.5117 5.8166C0.4817 6.4266 0.0017 6.9466 0.0017 7.7666C0.0017 8.5866 0.4817 9.1166 1.5117 9.7266L3.1717 10.6866L1.5117 11.6466C0.4817 12.2466 0.0017 12.7866 0.0017 13.6066C0.0017 14.4266 0.4817 14.9566 1.5117 15.5466L2.9017 16.3566L1.5117 17.1666C0.4817 17.7666 0.0017 18.3066 0.0017 19.1266C0.0017 19.9466 0.4817 20.4766 1.5117 21.0866L10.5717 26.3366C11.2217 26.7066 11.7217 26.8966 12.2317 26.8966C12.7617 26.8966 13.2517 26.7066 13.9117 26.3366ZM12.2317 12.7966C12.0917 12.7966 11.9617 12.7466 11.7917 12.6566L3.3917 7.8866C3.3417 7.8466 3.3117 7.8266 3.3117 7.7666C3.3117 7.7266 3.3417 7.6866 3.3917 7.6666L11.7917 2.8966C11.9617 2.7866 12.0917 2.7466 12.2317 2.7466C12.3917 2.7466 12.5117 2.7866 12.6917 2.8966L21.0917 7.6666C21.1417 7.6866 21.1617 7.7266 21.1617 7.7666C21.1617 7.8266 21.1417 7.8466 21.0917 7.8866L12.6917 12.6566C12.5117 12.7466 12.3917 12.7966 12.2317 12.7966ZM12.2317 15.5466C12.7617 15.5466 13.2517 15.3466 13.9117 14.9766L18.7617 12.1666L21.0917 13.4866C21.1417 13.5266 21.1617 13.5466 21.1617 13.6066C21.1617 13.6566 21.1417 13.6866 21.0917 13.7066L12.6917 18.4766C12.5117 18.5766 12.3917 18.6166 12.2317 18.6166C12.0917 18.6166 11.9617 18.5766 11.7917 18.4766L3.3917 13.7066C3.3417 13.6866 3.3117 13.6566 3.3117 13.6066C3.3117 13.5466 3.3417 13.5266 3.3917 13.4866L5.7217 12.1666L10.5717 14.9766C11.2217 15.3466 11.7217 15.5466 12.2317 15.5466Z" />
        </svg>
    