
        <svg xmlns="http://www.w3.org/2000/svg" viewBox="0 0 100 100">
            <path d="M4.6417 2.0664H17.2617C17.1417 0.7664 16.2617 -0.0036 14.8917 -0.0036H7.0117C5.6417 -0.0036 4.7617 0.7664 4.6417 2.0664ZM2.7317 6.1864H19.1717C19.0417 4.8364 18.2217 3.9764 16.5917 3.9764H5.3117C3.6817 3.9764 2.8617 4.8364 2.7317 6.1864ZM4.5917 30.2464H17.7817C20.6517 30.2464 22.3317 28.5464 22.3317 25.6564V12.4964C22.3317 9.5964 20.6517 7.8964 17.7417 7.8964H4.5917C1.7017 7.8964 0.0017 9.5964 0.0017 12.4964V25.6564C0.0017 28.5464 1.7017 30.2464 4.5917 30.2464ZM5.2217 26.0764C4.5117 26.0764 4.1617 25.7764 4.1617 25.0064V13.1364C4.1617 12.3564 4.5117 12.0564 5.2217 12.0564H17.1117C17.8217 12.0564 18.1717 12.3564 18.1717 13.1364V25.0064C18.1717 25.7764 17.8217 26.0764 17.1417 26.0764Z" />
        </svg>
    