
        <svg xmlns="http://www.w3.org/2000/svg" viewBox="0 0 100 100">
            <path d="M0.6817 1.3703C1.0617 1.3703 1.3717 1.0703 1.3717 0.6803C1.3717 0.3003 1.0617 0.0003 0.6817 0.0003C0.3017 0.0003 0.0017 0.3003 0.0017 0.6803C0.0017 1.0703 0.3017 1.3703 0.6817 1.3703ZM3.9217 1.3703C4.3017 1.3703 4.6017 1.0703 4.6017 0.6803C4.6017 0.3003 4.3017 0.0003 3.9217 0.0003C3.5517 0.0003 3.2417 0.3003 3.2417 0.6803C3.2417 1.0703 3.5517 1.3703 3.9217 1.3703ZM7.1517 1.3703C7.5317 1.3703 7.8417 1.0703 7.8417 0.6803C7.8417 0.3003 7.5317 0.0003 7.1517 0.0003C6.7717 0.0003 6.4717 0.3003 6.4717 0.6803C6.4717 1.0703 6.7717 1.3703 7.1517 1.3703ZM10.3817 1.3703C10.7617 1.3703 11.0617 1.0703 11.0617 0.6803C11.0617 0.3003 10.7617 0.0003 10.3817 0.0003C10.0117 0.0003 9.7017 0.3003 9.7017 0.6803C9.7017 1.0703 10.0117 1.3703 10.3817 1.3703ZM13.6317 1.3703C14.0017 1.3703 14.3117 1.0703 14.3117 0.6803C14.3117 0.3003 14.0017 0.0003 13.6317 0.0003C13.2417 0.0003 12.9417 0.3003 12.9417 0.6803C12.9417 1.0703 13.2417 1.3703 13.6317 1.3703ZM16.8517 1.3703C17.2217 1.3703 17.5317 1.0703 17.5317 0.6803C17.5317 0.3003 17.2217 0.0003 16.8517 0.0003C16.4717 0.0003 16.1717 0.3003 16.1717 0.6803C16.1717 1.0703 16.4717 1.3703 16.8517 1.3703ZM20.0717 1.3703C20.4617 1.3703 20.7617 1.0703 20.7617 0.6803C20.7617 0.3003 20.4617 0.0003 20.0717 0.0003C19.7017 0.0003 19.3917 0.3003 19.3917 0.6803C19.3917 1.0703 19.7017 1.3703 20.0717 1.3703ZM0.6817 4.5903C1.0617 4.5903 1.3717 4.2903 1.3717 3.9103C1.3717 3.5403 1.0617 3.2303 0.6817 3.2303C0.3017 3.2303 0.0017 3.5403 0.0017 3.9103C0.0017 4.2903 0.3017 4.5903 0.6817 4.5903ZM20.0717 4.5903C20.4617 4.5903 20.7617 4.2903 20.7617 3.9103C20.7617 3.5403 20.4617 3.2303 20.0717 3.2303C19.7017 3.2303 19.3917 3.5403 19.3917 3.9103C19.3917 4.2903 19.7017 4.5903 20.0717 4.5903ZM9.1917 11.5303C9.3417 11.6803 9.5717 11.6803 9.7217 11.5303L14.1717 7.1603L15.4617 8.4403C15.7117 8.7103 16.1017 8.5503 16.1817 8.1703L16.9917 4.3803C17.0717 4.0203 16.7717 3.7403 16.4017 3.8203L12.6317 4.6203C12.2317 4.7003 12.0917 5.0503 12.3617 5.3203L13.6417 6.6203L9.1917 10.9803C9.0317 11.1303 9.0317 11.3803 9.1917 11.5303ZM0.6817 7.8303C1.0617 7.8303 1.3717 7.5203 1.3717 7.1403C1.3717 6.7603 1.0617 6.4603 0.6817 6.4603C0.3017 6.4603 0.0017 6.7603 0.0017 7.1403C0.0017 7.5203 0.3017 7.8303 0.6817 7.8303ZM20.0717 7.8303C20.4617 7.8303 20.7617 7.5203 20.7617 7.1403C20.7617 6.7603 20.4617 6.4603 20.0717 6.4603C19.7017 6.4603 19.3917 6.7603 19.3917 7.1403C19.3917 7.5203 19.7017 7.8303 20.0717 7.8303ZM20.0717 11.0603C20.4617 11.0603 20.7617 10.7603 20.7617 10.3803C20.7617 10.0103 20.4617 9.7003 20.0717 9.7003C19.7017 9.7003 19.3917 10.0103 19.3917 10.3803C19.3917 10.7603 19.7017 11.0603 20.0717 11.0603ZM0.6117 20.7303H10.1517C10.5217 20.7303 10.7617 20.5003 10.7617 20.1203V11.9103L10.4317 12.2503C10.2817 12.3903 10.1117 12.4903 9.9417 12.5503V19.6503C9.9417 19.8203 9.8417 19.9103 9.6817 19.9103H1.0817C0.9117 19.9103 0.8217 19.8203 0.8217 19.6503V11.0703C0.8217 10.9103 0.9117 10.8303 1.0817 10.8303H8.1417C8.2017 10.6303 8.3217 10.4303 8.4817 10.2703L8.7517 10.0003H0.6117C0.2317 10.0003 0.0017 10.2303 0.0017 10.6103V20.1203C0.0017 20.5003 0.2317 20.7303 0.6117 20.7303ZM20.0717 14.3003C20.4617 14.3003 20.7617 13.9903 20.7617 13.6103C20.7617 13.2303 20.4617 12.9303 20.0717 12.9303C19.7017 12.9303 19.3917 13.2303 19.3917 13.6103C19.3917 13.9903 19.7017 14.3003 20.0717 14.3003ZM20.0717 17.5203C20.4617 17.5203 20.7617 17.2103 20.7617 16.8403C20.7617 16.4603 20.4617 16.1603 20.0717 16.1603C19.7017 16.1603 19.3917 16.4603 19.3917 16.8403C19.3917 17.2103 19.7017 17.5203 20.0717 17.5203ZM20.0717 20.7703C20.4617 20.7703 20.7617 20.4603 20.7617 20.0903C20.7617 19.7003 20.4617 19.3903 20.0717 19.3903C19.7017 19.3903 19.3917 19.7003 19.3917 20.0903C19.3917 20.4603 19.7017 20.7703 20.0717 20.7703ZM16.8517 20.7703C17.2217 20.7703 17.5317 20.4603 17.5317 20.0903C17.5317 19.7003 17.2217 19.3903 16.8517 19.3903C16.4717 19.3903 16.1717 19.7003 16.1717 20.0903C16.1717 20.4603 16.4717 20.7703 16.8517 20.7703ZM13.6017 20.7703C13.9917 20.7703 14.3017 20.4603 14.3017 20.0903C14.3017 19.7003 13.9917 19.3903 13.6017 19.3903C13.2317 19.3903 12.9217 19.7003 12.9217 20.0903C12.9217 20.4603 13.2317 20.7703 13.6017 20.7703Z" />
        </svg>
    