
        <svg xmlns="http://www.w3.org/2000/svg" viewBox="0 0 100 100">
            <path d="M0.0017 20.4164C0.0017 20.9064 0.3017 21.2064 0.8017 21.2064H20.4217C20.9017 21.2064 21.2217 20.9064 21.2217 20.4164V0.7864C21.2217 0.3064 20.9017 -0.0036 20.4217 -0.0036H0.8017C0.3017 -0.0036 0.0017 0.3064 0.0017 0.7864ZM1.4517 1.7464C1.4517 1.5364 1.5317 1.4364 1.7417 1.4364H6.5817V6.6064H1.4517ZM8.0417 6.6064V1.4364H13.1817V6.6064ZM19.4617 1.4364C19.6717 1.4364 19.7717 1.5364 19.7717 1.7464V6.6064H14.6417V1.4364ZM1.4517 13.1964V8.0464H6.5817V13.1964ZM8.0417 13.1964V8.0464H13.1817V13.1964ZM14.6417 13.1964V8.0464H19.7717V13.1964ZM1.4517 19.4664V14.6464H6.5817V19.7664H1.7417C1.5317 19.7664 1.4517 19.6764 1.4517 19.4664ZM8.0417 19.7664V14.6464H13.1817V19.7664ZM19.7717 19.4664C19.7717 19.6764 19.6717 19.7664 19.4617 19.7664H14.6417V14.6464H19.7717Z" />
        </svg>
    