
        <svg xmlns="http://www.w3.org/2000/svg" viewBox="0 0 100 100">
            <path d="M0.0017 24.707C0.0017 27.597 1.7017 29.297 4.5917 29.297H18.3017C21.2017 29.297 22.9017 27.597 22.9017 24.707V13.617C22.9017 10.707 21.2017 9.027 18.3017 9.027H13.2317V5.847L13.0617 4.157L13.5017 5.147L14.5517 6.257C14.8517 6.567 15.2317 6.747 15.6917 6.747C16.4317 6.747 17.1817 6.177 17.1817 5.317C17.1817 4.887 17.0317 4.567 16.7317 4.277L12.9117 0.637C12.4417 0.177 11.9417 -0.003 11.4517 -0.003C10.9617 -0.003 10.4617 0.177 9.9817 0.637L6.1617 4.277C5.8817 4.567 5.7217 4.887 5.7217 5.317C5.7217 6.177 6.4717 6.747 7.2117 6.747C7.6617 6.747 8.0517 6.567 8.3417 6.257L9.4017 5.147L9.8317 4.157L9.6717 5.847V9.027H13.2317V16.897C13.2317 17.837 12.4617 18.657 11.4517 18.657C10.4417 18.657 9.6717 17.837 9.6717 16.897V9.027H4.5917C1.7017 9.027 0.0017 10.707 0.0017 13.617Z" />
        </svg>
    