
        <svg xmlns="http://www.w3.org/2000/svg" viewBox="0 0 100 100">
            <path d="M23.2022 3.8615L23.9022 3.1515C24.6022 2.4515 24.6522 1.4515 23.9922 0.8015L23.5122 0.3315C22.9422 -0.2085 21.9022 -0.0785 21.2322 0.5915L20.5822 1.2615ZM4.6022 24.4215H17.7922C20.6622 24.4215 22.3622 22.7215 22.3622 19.8215V7.8315L18.1922 11.9915V19.1815C18.1922 19.9515 17.8322 20.2615 17.1522 20.2615H5.2222C4.5122 20.2615 4.1622 19.9515 4.1622 19.1815V7.2915C4.1622 6.5115 4.5122 6.2215 5.2222 6.2215H12.4822L16.6422 2.0615H4.6022C1.7022 2.0615 0.0022 3.7615 0.0022 6.6515V19.8215C0.0022 22.7215 1.7022 24.4215 4.6022 24.4215ZM9.7622 15.5315L12.6022 14.4715L22.1822 4.8815L19.5622 2.2715L9.9822 11.8415L8.9222 14.6815C8.7022 15.2415 9.2822 15.7115 9.7622 15.5315Z" />
        </svg>
    