
        <svg xmlns="http://www.w3.org/2000/svg" viewBox="0 0 100 100">
            <path d="M3.9717 19.8727H6.1217V21.6227C6.1217 24.2027 7.4917 25.5627 10.0917 25.5627H21.8517C24.4417 25.5627 25.8317 24.1827 25.8317 21.6227V9.7827C25.8317 7.2227 24.4417 5.8427 21.8517 5.8427H19.8917V3.9227C19.8917 1.3627 18.5017 0.0027 15.9117 0.0027H3.9717C1.3717 0.0027 0.0017 1.3627 0.0017 3.9227V15.9327C0.0017 18.5127 1.3717 19.8727 3.9717 19.8727ZM4.1917 17.2727C3.1617 17.2727 2.6117 16.7427 2.6117 15.6727V4.2027C2.6117 3.1327 3.1617 2.6027 4.1917 2.6027H15.6917C16.7117 2.6027 17.2717 3.1327 17.2717 4.2027V5.8427H10.0917C7.4917 5.8427 6.1217 7.2227 6.1217 9.7827V17.2727Z" />
        </svg>
    