
        <svg xmlns="http://www.w3.org/2000/svg" viewBox="0 0 100 100">
            <path d="M0.0017 3.97V18.13C0.0017 20.73 1.3717 22.1 3.9417 22.1H18.1617C20.7317 22.1 22.1017 20.73 22.1017 18.13V3.97C22.1017 1.38 20.7417 0 18.1617 0H3.9417C1.3617 0 0.0017 1.38 0.0017 3.97ZM2.6117 4.2C2.6117 3.16 3.1317 2.61 4.2117 2.61H17.8917C18.9717 2.61 19.5017 3.16 19.5017 4.2V9.79H2.6117ZM4.2117 19.49C3.1317 19.49 2.6117 18.93 2.6117 17.91V12.32H19.5017V17.91C19.5017 18.93 18.9717 19.49 17.8917 19.49Z" />
        </svg>
    