
        <svg xmlns="http://www.w3.org/2000/svg" viewBox="0 0 100 100">
            <path d="M0.0117 8.5347H1.4517V1.7547C1.4517 1.5447 1.5517 1.4547 1.7617 1.4547H17.1817L18.6517 0.0047H0.8017C0.3117 0.0047 0.0117 0.3147 0.0117 0.7947ZM20.7917 0.3847C20.5517 0.1547 20.2017 0.1747 19.9817 0.3847L15.6517 4.6547L14.5117 3.4947C14.1817 3.1647 13.7017 3.3547 13.6017 3.8247L12.8017 7.6047C12.7017 8.0347 13.0617 8.3747 13.5017 8.2847L17.2717 7.4847C17.7517 7.3947 17.9317 6.9347 17.6017 6.6247L16.4417 5.4447L20.7917 1.1947C21.0017 0.9747 21.0017 0.6247 20.7917 0.3847ZM12.7117 21.2247H20.4417C20.9217 21.2247 21.2217 20.9147 21.2217 20.4247V2.4447L19.7817 3.8647V19.4747C19.7817 19.6847 19.6917 19.7647 19.4717 19.7647H12.7117ZM0.8717 11.4747C1.3517 11.4747 1.7317 11.0847 1.7317 10.6047C1.7317 10.1247 1.3517 9.7347 0.8717 9.7347C0.4017 9.7347 0.0017 10.1247 0.0017 10.6047C0.0017 11.0847 0.4017 11.4747 0.8717 11.4747ZM4.1417 11.4747C4.6017 11.4747 5.0017 11.0847 5.0017 10.6047C5.0017 10.1247 4.6017 9.7347 4.1417 9.7347C3.6517 9.7347 3.2617 10.1247 3.2617 10.6047C3.2617 11.0847 3.6517 11.4747 4.1417 11.4747ZM7.3817 11.4747C7.8617 11.4747 8.2517 11.0847 8.2517 10.6047C8.2517 10.1247 7.8617 9.7347 7.3817 9.7347C6.9117 9.7347 6.5117 10.1247 6.5117 10.6047C6.5117 11.0847 6.9117 11.4747 7.3817 11.4747ZM10.6417 11.4747C11.1217 11.4747 11.5117 11.0847 11.5117 10.6047C11.5117 10.1247 11.1217 9.7347 10.6417 9.7347C10.1617 9.7347 9.7717 10.1247 9.7717 10.6047C9.7717 11.0847 10.1617 11.4747 10.6417 11.4747ZM0.8717 14.7447C1.3517 14.7447 1.7317 14.3447 1.7317 13.8647C1.7317 13.3947 1.3517 12.9947 0.8717 12.9947C0.4017 12.9947 0.0017 13.3947 0.0017 13.8647C0.0017 14.3447 0.4017 14.7447 0.8717 14.7447ZM10.6417 14.7447C11.1217 14.7447 11.5117 14.3447 11.5117 13.8647C11.5117 13.3947 11.1217 12.9947 10.6417 12.9947C10.1617 12.9947 9.7717 13.3947 9.7717 13.8647C9.7717 14.3447 10.1617 14.7447 10.6417 14.7447ZM0.8717 17.9847C1.3517 17.9847 1.7317 17.6047 1.7317 17.1247C1.7317 16.6547 1.3517 16.2547 0.8717 16.2547C0.4017 16.2547 0.0017 16.6547 0.0017 17.1247C0.0017 17.6047 0.4017 17.9847 0.8717 17.9847ZM10.6417 17.9847C11.1217 17.9847 11.5117 17.6047 11.5117 17.1247C11.5117 16.6547 11.1217 16.2547 10.6417 16.2547C10.1617 16.2547 9.7717 16.6547 9.7717 17.1247C9.7717 17.6047 10.1617 17.9847 10.6417 17.9847ZM0.8717 21.2447C1.3517 21.2447 1.7317 20.8547 1.7317 20.3747C1.7317 19.8947 1.3517 19.5147 0.8717 19.5147C0.4017 19.5147 0.0017 19.8947 0.0017 20.3747C0.0017 20.8547 0.4017 21.2447 0.8717 21.2447ZM10.6417 21.2447C11.1217 21.2447 11.5117 20.8547 11.5117 20.3747C11.5117 19.8947 11.1217 19.5147 10.6417 19.5147C10.1617 19.5147 9.7717 19.8947 9.7717 20.3747C9.7717 20.8547 10.1617 21.2447 10.6417 21.2447ZM7.3817 21.2447C7.8617 21.2447 8.2517 20.8547 8.2517 20.3747C8.2517 19.8947 7.8617 19.5147 7.3817 19.5147C6.9117 19.5147 6.5117 19.8947 6.5117 20.3747C6.5117 20.8547 6.9117 21.2447 7.3817 21.2447ZM4.1417 21.2447C4.6017 21.2447 5.0017 20.8547 5.0017 20.3747C5.0017 19.8947 4.6017 19.5147 4.1417 19.5147C3.6517 19.5147 3.2617 19.8947 3.2617 20.3747C3.2617 20.8547 3.6517 21.2447 4.1417 21.2447Z" />
        </svg>
    