
        <svg xmlns="http://www.w3.org/2000/svg" viewBox="0 0 100 100">
            <path d="M9.9417 -0.0041C9.7017 -0.0041 9.5017 0.1959 9.5017 0.4359V13.3359L9.5317 14.9759L8.6517 14.0859L6.2317 11.6359C6.1517 11.5559 6.0217 11.4959 5.9217 11.4959C5.6917 11.4959 5.5317 11.6759 5.5317 11.8959C5.5317 12.0159 5.5817 12.0959 5.6617 12.1759L9.6317 16.1159C9.7217 16.2159 9.8317 16.2559 9.9417 16.2559C10.0417 16.2559 10.1517 16.2159 10.2417 16.1159L14.2017 12.1759C14.2817 12.0959 14.3317 12.0159 14.3317 11.8959C14.3317 11.6759 14.1417 11.4959 13.9317 11.4959C13.8317 11.4959 13.7117 11.5559 13.6317 11.6359L11.2117 14.0859L10.3317 14.9659L10.3717 13.3359V0.4359C10.3717 0.1959 10.1717 -0.0041 9.9417 -0.0041ZM3.1617 23.5559H16.7117C18.7817 23.5559 19.8717 22.4459 19.8717 20.4059V8.5459C19.8717 6.5059 18.7817 5.3859 16.7117 5.3859H12.0117V6.2659H16.6917C18.1517 6.2659 18.9917 7.0559 18.9917 8.5859V20.3559C18.9917 21.8859 18.1517 22.6859 16.6917 22.6859H3.1917C1.6617 22.6859 0.8717 21.8859 0.8717 20.3559V8.5859C0.8717 7.0559 1.6617 6.2659 3.1917 6.2659H7.8617V5.3859H3.1617C1.0917 5.3859 0.0017 6.4759 0.0017 8.5459V20.4059C0.0017 22.4759 1.0917 23.5559 3.1617 23.5559Z" />
        </svg>
    