
        <svg xmlns="http://www.w3.org/2000/svg" viewBox="0 0 100 100">
            <path d="M12.8094 24.2598C13.3694 24.2598 13.8294 23.8898 14.0594 23.4798L7.8594 12.7998C7.7094 12.5298 7.6194 12.3298 7.6194 12.1298C7.6194 11.9298 7.7094 11.7198 7.8594 11.4598L14.0494 0.7698C13.8194 0.3598 13.3694 -0.0002 12.8094 -0.0002C12.3094 -0.0002 11.8194 0.2898 11.5094 0.8598L5.7094 10.7098C5.3794 11.2698 5.1594 11.6698 5.1594 12.1298C5.1594 12.5898 5.3794 12.9798 5.7094 13.5498L11.5094 23.3998C11.8494 23.9698 12.3094 24.2598 12.8094 24.2598ZM18.8294 24.2598C19.5794 24.2598 20.0594 23.8198 20.6494 22.8298L25.9194 13.7198C26.2894 13.0998 26.4594 12.6298 26.4594 12.1298C26.4594 11.6298 26.2894 11.1398 25.9194 10.5398L20.6494 1.4298C20.0594 0.4298 19.5794 -0.0002 18.8294 -0.0002C18.0894 -0.0002 17.5994 0.4298 17.0294 1.4298L11.7394 10.5398C11.3894 11.1398 11.2194 11.6298 11.2194 12.1298C11.2194 12.6298 11.3894 13.0998 11.7394 13.7198L17.0294 22.8298C17.5994 23.8198 18.0894 24.2598 18.8294 24.2598ZM6.9894 2.0198C7.4494 2.0198 7.8494 1.6198 7.8494 1.1498C7.8494 0.6698 7.4494 0.2698 6.9894 0.2698C6.4994 0.2698 6.1094 0.6698 6.1094 1.1498C6.1094 1.6198 6.4994 2.0198 6.9894 2.0198ZM5.7694 4.2098C6.2494 4.2098 6.6294 3.8198 6.6294 3.3398C6.6294 2.8598 6.2494 2.4698 5.7694 2.4698C5.2894 2.4698 4.8994 2.8598 4.8994 3.3398C4.8994 3.8198 5.2894 4.2098 5.7694 4.2098ZM4.5394 6.4098C5.0194 6.4098 5.4094 6.0198 5.4094 5.5398C5.4094 5.0598 5.0194 4.6798 4.5394 4.6798C4.0694 4.6798 3.6694 5.0598 3.6694 5.5398C3.6694 6.0198 4.0694 6.4098 4.5394 6.4098ZM3.3094 8.5998C3.7894 8.5998 4.1694 8.1998 4.1694 7.7198C4.1694 7.2498 3.7894 6.8598 3.3094 6.8598C2.8194 6.8598 2.4394 7.2498 2.4394 7.7198C2.4394 8.1998 2.8194 8.5998 3.3094 8.5998ZM2.0994 10.7998C2.5794 10.7998 2.9694 10.4098 2.9694 9.9298C2.9694 9.4598 2.5794 9.0598 2.0994 9.0598C1.6194 9.0598 1.2294 9.4598 1.2294 9.9298C1.2294 10.4098 1.6194 10.7998 2.0994 10.7998ZM0.8694 12.9998C1.3494 12.9998 1.7394 12.6098 1.7394 12.1298C1.7394 11.6498 1.3494 11.2598 0.8694 11.2598C0.3894 11.2598 -0.0006 11.6498 -0.0006 12.1298C-0.0006 12.6098 0.3894 12.9998 0.8694 12.9998ZM2.0994 15.1898C2.5794 15.1898 2.9694 14.7998 2.9694 14.3198C2.9694 13.8398 2.5794 13.4498 2.0994 13.4498C1.6194 13.4498 1.2294 13.8398 1.2294 14.3198C1.2294 14.7998 1.6194 15.1898 2.0994 15.1898ZM3.3094 17.3898C3.7894 17.3898 4.1694 16.9998 4.1694 16.5198C4.1694 16.0398 3.7894 15.6598 3.3094 15.6598C2.8194 15.6598 2.4394 16.0398 2.4394 16.5198C2.4394 16.9998 2.8194 17.3898 3.3094 17.3898ZM4.5394 19.5798C5.0194 19.5798 5.4094 19.1998 5.4094 18.7098C5.4094 18.2298 5.0194 17.8498 4.5394 17.8498C4.0694 17.8498 3.6694 18.2298 3.6694 18.7098C3.6694 19.1998 4.0694 19.5798 4.5394 19.5798ZM5.7694 21.7898C6.2494 21.7898 6.6294 21.3998 6.6294 20.9198C6.6294 20.4398 6.2494 20.0498 5.7694 20.0498C5.2894 20.0498 4.8994 20.4398 4.8994 20.9198C4.8994 21.3998 5.2894 21.7898 5.7694 21.7898ZM6.9894 23.9798C7.4494 23.9798 7.8494 23.5898 7.8494 23.1098C7.8494 22.6298 7.4494 22.2398 6.9894 22.2398C6.4994 22.2398 6.1094 22.6298 6.1094 23.1098C6.1094 23.5898 6.4994 23.9798 6.9894 23.9798Z" />
        </svg>
    