
        <svg xmlns="http://www.w3.org/2000/svg" viewBox="0 0 100 100">
            <path d="M3.6817 21.5722H23.9517C26.4117 21.5722 27.6317 20.3722 27.6317 17.9522V3.6322C27.6317 1.2222 26.4117 0.0022 23.9517 0.0022H3.6817C1.2317 0.0022 0.0017 1.2222 0.0017 3.6322V17.9522C0.0017 20.3722 1.2317 21.5722 3.6817 21.5722ZM4.7917 15.8622C3.6417 15.8622 3.0717 15.2922 3.0717 14.1722V7.4322C3.0717 6.2922 3.6417 5.7322 4.7917 5.7322H11.4717C12.6417 5.7322 13.2117 6.3022 13.2117 7.4322V14.1722C13.2117 15.2922 12.6417 15.8622 11.4717 15.8622ZM20.0617 15.7422C17.1117 15.7422 15.1317 13.7722 15.1317 10.8022C15.1317 7.8522 17.1217 5.8322 20.0317 5.8322C22.8417 5.8322 24.8017 7.6622 24.8017 10.3022C24.8017 12.2222 23.9017 13.4722 22.5517 13.4722C21.9517 13.4722 21.4317 13.2222 21.1717 12.7622C20.8317 13.2222 20.3217 13.4722 19.7417 13.4722C18.4217 13.4722 17.5217 12.4022 17.5217 10.8122C17.5217 9.2822 18.4217 8.1722 19.7117 8.1722C20.2717 8.1722 20.6817 8.3622 20.9617 8.6922V8.6022C21.0317 8.3622 21.2817 8.1722 21.5517 8.1722C21.9017 8.1722 22.1617 8.4522 22.1617 8.8122V11.8122C22.1617 12.1522 22.3017 12.3022 22.6617 12.3022C23.2417 12.3022 23.6017 11.5622 23.6017 10.3722C23.6017 8.3622 22.1617 7.0222 20.0317 7.0222C17.8817 7.0222 16.4017 8.5622 16.4017 10.8122C16.4017 13.1122 17.8617 14.5222 20.2017 14.5222C20.9517 14.5222 21.3017 14.3822 21.6517 14.3222C21.8317 14.2922 21.9217 14.2622 22.0517 14.2622C22.3617 14.2622 22.5917 14.5122 22.5917 14.8122C22.5917 15.1322 22.3817 15.3322 22.0517 15.4722C21.5817 15.6522 20.8517 15.7422 20.0617 15.7422ZM4.9217 14.5222H11.3517C11.6817 14.5222 11.8617 14.3622 11.8617 14.0522V7.5422C11.8617 7.2322 11.6817 7.0822 11.3517 7.0822H4.9217C4.5817 7.0822 4.4217 7.2222 4.4217 7.5422V14.0522C4.4217 14.3622 4.5817 14.5222 4.9217 14.5222ZM19.9317 12.2422C20.5917 12.2422 21.0017 11.6822 21.0017 10.7622C21.0017 9.8922 20.5917 9.3622 19.9417 9.3622C19.2817 9.3622 18.8717 9.8922 18.8717 10.7922C18.8717 11.7022 19.2817 12.2422 19.9317 12.2422Z" />
        </svg>
    