
        <svg xmlns="http://www.w3.org/2000/svg" viewBox="0 0 100 100">
            <path d="M17.4771 17.2929L18.3571 18.1829V10.1629C18.3571 9.4229 18.1471 9.0929 17.4771 8.7029L11.8071 5.4229V1.2929C11.8071 0.9929 12.0371 0.8929 12.2671 1.0229L21.8771 6.5829C22.1671 6.7629 22.2471 6.8929 22.2471 7.2429V18.5629C22.2471 18.6929 22.1971 18.7829 22.1171 18.8229L22.7271 19.4529C22.9771 19.2529 23.1271 18.9029 23.1271 18.3829V7.2329C23.1271 6.4929 22.9271 6.1629 22.2571 5.7729L12.6271 0.2129C11.7471 -0.2971 10.9271 0.1529 10.9271 1.0429V4.9229L7.8571 3.1429C7.0171 2.6629 6.2771 3.0629 6.1971 3.7929V4.3829L6.8971 5.0929V4.1229C6.9071 3.8429 7.1571 3.7629 7.3871 3.8929L17.0871 9.5129C17.3871 9.6929 17.4771 9.8229 17.4771 10.1729ZM22.0271 24.6529C22.1971 24.8329 22.4571 24.8329 22.6471 24.6529C22.8271 24.4929 22.8071 24.2129 22.6471 24.0429L0.7371 2.1429C0.5771 1.9829 0.3071 1.9529 0.1271 2.1429C-0.0429 2.3129 -0.0429 2.5929 0.1271 2.7529ZM1.9071 19.7429L11.4771 25.2729C12.4071 25.8029 13.2271 25.5029 13.2271 24.2929V20.3529L16.5971 22.3029C17.1871 22.6329 17.7471 22.6329 18.0671 22.2629L17.1171 21.3329C17.0471 21.4229 16.8771 21.4329 16.6771 21.3129L13.2271 19.3329V17.4329L12.3571 16.5629V24.3429C12.3571 24.5629 12.2071 24.6829 11.9571 24.5429L2.2871 18.9529C1.9971 18.7729 1.9071 18.6529 1.9071 18.2829V7.3829C1.9071 6.9929 2.2071 6.7729 2.4871 6.6929L1.7971 5.9929C1.3371 6.0429 1.0271 6.4329 1.0271 6.9529V18.2929C1.0271 19.0329 1.1871 19.3329 1.9071 19.7429Z" />
        </svg>
    