
        <svg xmlns="http://www.w3.org/2000/svg" viewBox="0 0 100 100">
            <path d="M3.9117 15.1598H23.5917C26.1717 15.1598 27.5017 13.8298 27.5017 11.2898V3.8798C27.5017 1.3198 26.1717 -0.0002 23.5917 -0.0002H3.9117C1.3517 -0.0002 0.0017 1.3198 0.0017 3.8798V11.2898C0.0017 13.8298 1.3517 15.1598 3.9117 15.1598ZM4.0517 12.6898C3.1217 12.6898 2.6117 12.1998 2.6117 11.2298V3.9398C2.6117 2.9598 3.1217 2.4698 4.0517 2.4698H23.4517C24.4017 2.4698 24.8917 2.9598 24.8917 3.9398V11.2298C24.8917 12.1998 24.4017 12.6898 23.4517 12.6898ZM1.3517 21.1998H3.7017C4.1717 21.1998 4.4617 20.9198 4.4617 20.4498V18.1398C4.4617 17.6598 4.1717 17.3798 3.7017 17.3798H1.3517C0.8517 17.3798 0.5617 17.6598 0.5617 18.1398V20.4498C0.5617 20.9198 0.8717 21.1998 1.3517 21.1998ZM6.9717 21.1998H9.3117C9.7817 21.1998 10.0917 20.9198 10.0917 20.4498V18.1398C10.0917 17.6598 9.8017 17.3798 9.3117 17.3798H6.9717C6.4817 17.3798 6.1917 17.6598 6.1917 18.1398V20.4498C6.1917 20.9198 6.4917 21.1998 6.9717 21.1998ZM12.5817 21.1998H14.9417C15.4017 21.1998 15.7017 20.9198 15.7017 20.4498V18.1398C15.7017 17.6598 15.4117 17.3798 14.9417 17.3798H12.5817C12.1017 17.3798 11.8017 17.6598 11.8017 18.1398V20.4498C11.8017 20.9198 12.1217 21.1998 12.5817 21.1998ZM18.2117 21.1998H20.5517C21.0217 21.1998 21.3317 20.9198 21.3317 20.4498V18.1398C21.3317 17.6598 21.0317 17.3798 20.5517 17.3798H18.2117C17.7217 17.3798 17.4217 17.6598 17.4217 18.1398V20.4498C17.4217 20.9198 17.7317 21.1998 18.2117 21.1998ZM23.8217 21.1998H26.1817C26.6517 21.1998 26.9517 20.9198 26.9517 20.4498V18.1398C26.9517 17.6598 26.6617 17.3798 26.1817 17.3798H23.8217C23.3417 17.3798 23.0517 17.6598 23.0517 18.1398V20.4498C23.0517 20.9198 23.3417 21.1998 23.8217 21.1998Z" />
        </svg>
    