
        <svg xmlns="http://www.w3.org/2000/svg" viewBox="0 0 100 100">
            <path d="M14.1517 25.3898L23.1717 20.1798C24.2317 19.5598 24.7817 18.9598 24.7817 18.0498C24.7817 17.1198 24.2317 16.5198 23.1717 15.8998L18.1617 13.0098L23.1717 10.1098C24.2317 9.4898 24.7817 8.8898 24.7817 7.9798C24.7817 7.0498 24.2317 6.4598 23.1717 5.8398L14.1517 0.6198C13.4617 0.2098 12.9417 -0.0002 12.3917 -0.0002C11.8517 -0.0002 11.3217 0.2098 10.6217 0.6198L1.6217 5.8398C0.5417 6.4598 0.0017 7.0498 0.0017 7.9798C0.0017 8.8898 0.5417 9.4898 1.6217 10.1098L6.6117 13.0098L1.6217 15.8998C0.5417 16.5198 0.0017 17.1198 0.0017 18.0498C0.0017 18.9598 0.5417 19.5598 1.6217 20.1798L10.6217 25.3898C11.3217 25.7998 11.8517 26.0198 12.3917 26.0198C12.9417 26.0198 13.4617 25.7998 14.1517 25.3898ZM12.3917 15.9498C12.9417 15.9498 13.4617 15.7398 14.1517 15.3298L15.2117 14.7198L20.9017 17.9298C20.9517 17.9598 20.9717 17.9898 20.9717 18.0498C20.9717 18.0898 20.9517 18.1298 20.9017 18.1498L12.8017 22.7298C12.6317 22.8198 12.5317 22.8598 12.3917 22.8598C12.2617 22.8598 12.1417 22.8198 11.9917 22.7298L3.8817 18.1498C3.8317 18.1298 3.8117 18.0898 3.8117 18.0498C3.8117 17.9898 3.8317 17.9598 3.8817 17.9298L9.5617 14.7198L10.6217 15.3298C11.3217 15.7398 11.8517 15.9498 12.3917 15.9498Z" />
        </svg>
    