
        <svg xmlns="http://www.w3.org/2000/svg" viewBox="0 0 100 100">
            <path d="M1.5117 6.1756H4.6617C5.6517 6.1756 6.1917 5.7456 6.1917 4.6656V1.5156C6.1917 0.4456 5.6517 -0.0044 4.6617 -0.0044H1.5117C0.5417 -0.0044 0.0017 0.4456 0.0017 1.5156V4.6656C0.0017 5.7456 0.5417 6.1756 1.5117 6.1756ZM9.8517 6.1756H13.0117C13.9817 6.1756 14.5217 5.7456 14.5217 4.6656V1.5156C14.5217 0.4456 13.9817 -0.0044 13.0117 -0.0044H9.8517C8.8717 -0.0044 8.3317 0.4456 8.3317 1.5156V4.6656C8.3317 5.7456 8.8717 6.1756 9.8517 6.1756ZM18.1917 6.1756H21.3417C22.3217 6.1756 22.8517 5.7456 22.8517 4.6656V1.5156C22.8517 0.4456 22.3217 -0.0044 21.3417 -0.0044H18.1917C17.2017 -0.0044 16.6617 0.4456 16.6617 1.5156V4.6656C16.6617 5.7456 17.2017 6.1756 18.1917 6.1756ZM1.5117 13.9456H4.6617C5.6517 13.9456 6.1917 13.4956 6.1917 12.4256V9.2656C6.1917 8.2056 5.6517 7.7556 4.6617 7.7556H1.5117C0.5417 7.7556 0.0017 8.2056 0.0017 9.2656V12.4256C0.0017 13.4956 0.5417 13.9456 1.5117 13.9456ZM9.8517 13.9456H13.0117C13.9817 13.9456 14.5217 13.4956 14.5217 12.4256V9.2656C14.5217 8.2056 13.9817 7.7556 13.0117 7.7556H9.8517C8.8717 7.7556 8.3317 8.2056 8.3317 9.2656V12.4256C8.3317 13.4956 8.8717 13.9456 9.8517 13.9456ZM18.1917 13.9456H21.3417C22.3217 13.9456 22.8517 13.4956 22.8517 12.4256V9.2656C22.8517 8.2056 22.3217 7.7556 21.3417 7.7556H18.1917C17.2017 7.7556 16.6617 8.2056 16.6617 9.2656V12.4256C16.6617 13.4956 17.2017 13.9456 18.1917 13.9456ZM1.5117 21.7056H4.6617C5.6517 21.7056 6.1917 21.2556 6.1917 20.1956V17.0256C6.1917 15.9656 5.6517 15.5156 4.6617 15.5156H1.5117C0.5417 15.5156 0.0017 15.9656 0.0017 17.0256V20.1956C0.0017 21.2556 0.5417 21.7056 1.5117 21.7056ZM9.8517 21.7056H13.0117C13.9817 21.7056 14.5217 21.2556 14.5217 20.1956V17.0256C14.5217 15.9656 13.9817 15.5156 13.0117 15.5156H9.8517C8.8717 15.5156 8.3317 15.9656 8.3317 17.0256V20.1956C8.3317 21.2556 8.8717 21.7056 9.8517 21.7056ZM18.1917 21.7056H21.3417C22.3217 21.7056 22.8517 21.2556 22.8517 20.1956V17.0256C22.8517 15.9656 22.3217 15.5156 21.3417 15.5156H18.1917C17.2017 15.5156 16.6617 15.9656 16.6617 17.0256V20.1956C16.6617 21.2556 17.2017 21.7056 18.1917 21.7056Z" />
        </svg>
    