
        <svg xmlns="http://www.w3.org/2000/svg" viewBox="0 0 100 100">
            <path d="M2.5117 24.203C3.6317 24.203 4.5917 23.453 4.9017 22.423H19.3017C19.6017 23.453 20.5617 24.203 21.6917 24.203C23.0717 24.203 24.2017 23.073 24.2017 21.693C24.2017 20.553 23.4517 19.603 22.4217 19.293V4.903C23.4517 4.583 24.2017 3.633 24.2017 2.493C24.2017 1.113 23.0717 0.003 21.6917 0.003C20.5617 0.003 19.6017 0.753 19.3017 1.773H4.9017C4.5917 0.753 3.6317 0.003 2.5117 0.003C1.1217 0.003 0.0017 1.113 0.0017 2.493C0.0017 3.633 0.7517 4.583 1.7817 4.903V19.293C0.7517 19.603 0.0017 20.553 0.0017 21.693C0.0017 23.073 1.1217 24.203 2.5117 24.203ZM4.9017 20.963C4.6617 20.163 4.0317 19.533 3.2317 19.293V4.903C4.0317 4.653 4.6617 4.023 4.9017 3.223H19.3017C19.5317 4.033 20.1717 4.653 20.9717 4.903V19.293C20.1717 19.533 19.5317 20.163 19.3017 20.963ZM7.2317 15.563H8.6217V16.953C8.6217 17.903 9.1517 18.443 10.1117 18.443H17.0117C17.9717 18.443 18.5017 17.903 18.5017 16.953V10.123C18.5017 9.173 17.9517 8.653 16.9417 8.653H15.6317V7.243C15.6317 6.293 15.1017 5.763 14.1417 5.763H7.2317C6.2817 5.763 5.7417 6.293 5.7417 7.243V14.073C5.7417 15.023 6.2817 15.563 7.2317 15.563ZM7.5517 14.343C7.1717 14.343 6.9617 14.133 6.9617 13.753V7.573C6.9617 7.183 7.1717 6.983 7.5517 6.983H13.8317C14.2117 6.983 14.4117 7.183 14.4117 7.573V8.653H10.1117C9.1517 8.653 8.6217 9.173 8.6217 10.123V14.343ZM10.4317 17.223C10.0417 17.223 9.8317 17.013 9.8317 16.643V10.453C9.8317 10.063 10.0417 9.863 10.4317 9.863H16.6317C17.0617 9.863 17.2817 10.063 17.2817 10.453V16.643C17.2817 17.013 17.0817 17.223 16.7017 17.223Z" />
        </svg>
    