
        <svg xmlns="http://www.w3.org/2000/svg" viewBox="0 0 100 100">
            <path d="M4.1417 22.4041H18.2717C20.9517 22.4041 22.4017 20.9541 22.4017 18.3041V4.1141C22.4017 1.4641 20.9517 0.0041 18.2717 0.0041H4.1417C1.4617 0.0041 0.0017 1.4541 0.0017 4.1141V18.3041C0.0017 20.9541 1.4617 22.4041 4.1417 22.4041ZM4.4617 19.3841C3.5317 19.3841 3.0217 18.9241 3.0217 17.9341V4.4841C3.0217 3.4941 3.5317 3.0241 4.4617 3.0241H17.9417C18.8817 3.0241 19.3817 3.4941 19.3817 4.4841V17.9341C19.3817 18.9241 18.8817 19.3841 17.9417 19.3841ZM4.6717 7.3241C4.6717 7.8441 5.0117 8.1941 5.5417 8.1941H7.3017C7.8417 8.1941 8.1817 7.8441 8.1817 7.3241V5.5341C8.1817 5.0241 7.8417 4.6741 7.3017 4.6741H5.5417C5.0117 4.6741 4.6717 5.0241 4.6717 5.5341ZM9.4717 7.3241C9.4717 7.8441 9.8117 8.1941 10.3317 8.1941H12.0917C12.6217 8.1941 12.9717 7.8441 12.9717 7.3241V5.5341C12.9717 5.0141 12.6217 4.6741 12.0917 4.6741H10.3317C9.8117 4.6741 9.4717 5.0141 9.4717 5.5341ZM14.2417 7.3241C14.2417 7.8441 14.5917 8.1941 15.1217 8.1941H16.8717C17.4017 8.1941 17.7517 7.8441 17.7517 7.3241V5.5341C17.7517 5.0241 17.4017 4.6741 16.8717 4.6741H15.1217C14.5917 4.6741 14.2417 5.0241 14.2417 5.5341ZM4.6717 12.1041C4.6717 12.6341 5.0117 12.9641 5.5417 12.9641H7.3017C7.8417 12.9641 8.1817 12.6341 8.1817 12.1041V10.3141C8.1817 9.7941 7.8417 9.4541 7.3017 9.4541H5.5417C5.0117 9.4541 4.6717 9.7941 4.6717 10.3141ZM9.4717 12.1041C9.4717 12.6341 9.8117 12.9641 10.3317 12.9641H12.0917C12.6317 12.9641 12.9717 12.6341 12.9717 12.1041V10.3141C12.9717 9.7941 12.6317 9.4541 12.0917 9.4541H10.3317C9.8117 9.4541 9.4717 9.7941 9.4717 10.3141ZM14.2417 12.1041C14.2417 12.6341 14.5917 12.9641 15.1217 12.9641H16.8717C17.4017 12.9641 17.7517 12.6341 17.7517 12.1041V10.3141C17.7517 9.7941 17.4017 9.4541 16.8717 9.4541H15.1217C14.5917 9.4541 14.2417 9.7941 14.2417 10.3141ZM4.6717 16.8841C4.6717 17.4041 5.0117 17.7441 5.5417 17.7441H7.3017C7.8417 17.7441 8.1817 17.4041 8.1817 16.8841V15.0941C8.1817 14.5741 7.8417 14.2341 7.3017 14.2341H5.5417C5.0117 14.2341 4.6717 14.5741 4.6717 15.0941ZM9.4717 16.8841C9.4717 17.4041 9.8117 17.7441 10.3317 17.7441H12.0917C12.6217 17.7441 12.9717 17.4041 12.9717 16.8841V15.0941C12.9717 14.5741 12.6217 14.2341 12.0917 14.2341H10.3317C9.8117 14.2341 9.4717 14.5741 9.4717 15.0941ZM14.2417 16.8841C14.2417 17.4041 14.5917 17.7441 15.1217 17.7441H16.8717C17.4017 17.7441 17.7517 17.4041 17.7517 16.8841V15.0941C17.7517 14.5741 17.4017 14.2341 16.8717 14.2341H15.1217C14.5917 14.2341 14.2417 14.5741 14.2417 15.0941Z" />
        </svg>
    