
        <svg xmlns="http://www.w3.org/2000/svg" viewBox="0 0 100 100">
            <path d="M6.3294 1.1905C6.6594 1.1905 6.9294 0.9305 6.9294 0.6005C6.9294 0.2705 6.6594 0.0005 6.3294 0.0005C5.9994 0.0005 5.7394 0.2705 5.7394 0.6005C5.7394 0.9305 5.9994 1.1905 6.3294 1.1905ZM12.4994 22.6405C12.6594 22.6405 12.7694 22.5905 12.8194 22.5305L6.9494 11.8605C6.8694 11.7305 6.8294 11.6405 6.8294 11.5205C6.8294 11.4005 6.8694 11.3105 6.9494 11.1805L12.7994 0.5005C12.7594 0.4605 12.6494 0.4105 12.4794 0.4105C12.3294 0.4105 12.1294 0.5005 11.9994 0.7605L6.4894 10.8005C6.3294 11.0905 6.2094 11.2805 6.2094 11.5205C6.2094 11.7505 6.3294 11.9405 6.4894 12.2205L12.0094 22.2805C12.1594 22.5205 12.3394 22.6405 12.4994 22.6405ZM18.6194 22.6105C18.9994 22.6105 19.2194 22.3505 19.4394 21.9405L24.7894 12.2205C24.9494 11.9405 25.0594 11.7505 25.0594 11.5205C25.0594 11.2805 24.9494 11.1005 24.7894 10.8205L19.4394 1.1005C19.2194 0.6905 18.9994 0.4405 18.6194 0.4405C18.2594 0.4405 18.0394 0.6905 17.7994 1.1005L12.4494 10.8205C12.2794 11.1005 12.1794 11.2805 12.1994 11.5205C12.2094 11.7505 12.3094 11.9405 12.4594 12.2205L17.7994 21.9405C18.0394 22.3505 18.2594 22.6105 18.6194 22.6105ZM18.6194 21.9105C18.4694 21.9105 18.3894 21.8105 18.3094 21.6705L12.9094 11.8605C12.8394 11.7305 12.7994 11.6405 12.7994 11.5205C12.7994 11.4005 12.8294 11.3105 12.8994 11.1805L18.3094 1.3605C18.3894 1.2305 18.4694 1.1205 18.6194 1.1205C18.7694 1.1205 18.8694 1.2305 18.9394 1.3605L24.3294 11.1805C24.4094 11.3105 24.4494 11.4005 24.4494 11.5205C24.4494 11.6405 24.4094 11.7305 24.3294 11.8605L18.9394 21.6705C18.8694 21.8105 18.7694 21.9105 18.6194 21.9105ZM5.1794 3.3705C5.5094 3.3705 5.7794 3.1005 5.7794 2.7805C5.7794 2.4605 5.5094 2.1905 5.1794 2.1905C4.8494 2.1905 4.5794 2.4605 4.5794 2.7805C4.5794 3.1005 4.8494 3.3705 5.1794 3.3705ZM4.0294 5.5505C4.3594 5.5505 4.6294 5.3005 4.6294 4.9705C4.6294 4.6405 4.3594 4.3705 4.0294 4.3705C3.6994 4.3705 3.4294 4.6405 3.4294 4.9705C3.4294 5.3005 3.6994 5.5505 4.0294 5.5505ZM2.8994 7.7505C3.2194 7.7505 3.4894 7.4805 3.4894 7.1505C3.4894 6.8205 3.2194 6.5505 2.8994 6.5505C2.5694 6.5505 2.2994 6.8205 2.2994 7.1505C2.2994 7.4805 2.5694 7.7505 2.8994 7.7505ZM1.7494 9.9305C2.0694 9.9305 2.3394 9.6605 2.3394 9.3305C2.3394 9.0105 2.0694 8.7405 1.7494 8.7405C1.4194 8.7405 1.1494 9.0105 1.1494 9.3305C1.1494 9.6605 1.4194 9.9305 1.7494 9.9305ZM0.5994 12.1205C0.9294 12.1205 1.1794 11.8505 1.1794 11.5205C1.1794 11.1905 0.9294 10.9205 0.5994 10.9205C0.2694 10.9205 -0.0006 11.1905 -0.0006 11.5205C-0.0006 11.8505 0.2694 12.1205 0.5994 12.1205ZM1.7494 14.3005C2.0694 14.3005 2.3394 14.0305 2.3394 13.7005C2.3394 13.3705 2.0694 13.1105 1.7494 13.1105C1.4194 13.1105 1.1494 13.3705 1.1494 13.7005C1.1494 14.0305 1.4194 14.3005 1.7494 14.3005ZM2.8994 16.4805C3.2194 16.4805 3.4894 16.2105 3.4894 15.8905C3.4894 15.5605 3.2194 15.2905 2.8994 15.2905C2.5694 15.2905 2.2994 15.5605 2.2994 15.8905C2.2994 16.2105 2.5694 16.4805 2.8994 16.4805ZM4.0294 18.6705C4.3594 18.6705 4.6294 18.4005 4.6294 18.0705C4.6294 17.7405 4.3594 17.4705 4.0294 17.4705C3.6994 17.4705 3.4294 17.7405 3.4294 18.0705C3.4294 18.4005 3.6994 18.6705 4.0294 18.6705ZM5.1794 20.8505C5.5094 20.8505 5.7794 20.5805 5.7794 20.2505C5.7794 19.9205 5.5094 19.6605 5.1794 19.6605C4.8494 19.6605 4.5794 19.9205 4.5794 20.2505C4.5794 20.5805 4.8494 20.8505 5.1794 20.8505ZM6.3294 23.0305C6.6594 23.0305 6.9294 22.7705 6.9294 22.4405C6.9294 22.1105 6.6594 21.8405 6.3294 21.8405C5.9994 21.8405 5.7394 22.1105 5.7394 22.4405C5.7394 22.7705 5.9994 23.0305 6.3294 23.0305Z" />
        </svg>
    