
        <svg xmlns="http://www.w3.org/2000/svg" viewBox="0 0 100 100">
            <path d="M2.2217 23.3194C3.3017 23.3194 4.2117 22.5594 4.4017 21.5394H18.9117C19.1217 22.5594 20.0317 23.3194 21.1017 23.3194C22.3217 23.3194 23.3317 22.3194 23.3317 21.1094C23.3317 20.0294 22.5617 19.1294 21.5417 18.9094V4.4094C22.5617 4.2094 23.3317 3.3094 23.3317 2.2294C23.3317 0.9994 22.3217 -0.0006 21.1017 -0.0006C20.0317 -0.0006 19.1217 0.7694 18.9117 1.7894H4.4017C4.2117 0.7694 3.3017 -0.0006 2.2217 -0.0006C0.9917 -0.0006 0.0017 0.9994 0.0017 2.2294C0.0017 3.3094 0.7717 4.2094 1.7917 4.4094V18.9094C0.7717 19.1294 0.0017 20.0294 0.0017 21.1094C0.0017 22.3194 0.9917 23.3194 2.2217 23.3194ZM4.4017 20.6594C4.2317 19.7794 3.5417 19.0894 2.6617 18.9094V4.4094C3.5417 4.2294 4.2317 3.5394 4.4017 2.6594H18.9117C19.0917 3.5394 19.7917 4.2294 20.6617 4.4094V18.9094C19.7917 19.0894 19.0917 19.7794 18.9117 20.6594ZM6.9217 14.9794H8.3717V16.4194C8.3717 17.3994 8.8917 17.9294 9.8817 17.9294H16.4417C17.4217 17.9294 17.9517 17.3994 17.9517 16.4194V9.8794C17.9517 8.8994 17.3917 8.3694 16.3117 8.3694H15.0017V6.9294C15.0017 5.9394 14.4717 5.4094 13.4917 5.4094H6.9217C5.9317 5.4094 5.4117 5.9394 5.4117 6.9294V13.4694C5.4117 14.4494 5.9317 14.9794 6.9217 14.9794ZM7.0417 14.1794C6.4917 14.1794 6.2017 13.8894 6.2017 13.3494V7.0594C6.2017 6.4994 6.4917 6.2094 7.0417 6.2094H13.3717C13.9117 6.2094 14.2017 6.4994 14.2017 7.0594V8.3694H9.8817C8.8917 8.3694 8.3717 8.8994 8.3717 9.8794V14.1794ZM9.9917 17.1294C9.4417 17.1294 9.1617 16.8494 9.1617 16.2994V10.0094C9.1617 9.4594 9.4417 9.1594 9.9917 9.1594H16.1917C16.8317 9.1594 17.1517 9.4594 17.1517 10.0094V16.2994C17.1517 16.8494 16.8717 17.1294 16.3217 17.1294Z" />
        </svg>
    