
        <svg xmlns="http://www.w3.org/2000/svg" viewBox="0 0 100 100">
            <path d="M0.0023 11.5873C0.0023 16.7273 3.3323 21.0673 7.9523 22.5973V23.8673C7.9523 26.7673 9.6523 28.4673 12.5523 28.4673H24.8923C27.7823 28.4673 29.4823 26.7673 29.4823 23.8673V11.5173C29.4823 8.6273 27.7823 6.9273 24.8923 6.9273H22.1923C20.4023 2.8473 16.3123 -0.0027 11.5823 -0.0027C5.1823 -0.0027 0.0023 5.1873 0.0023 11.5873ZM4.0123 11.5873C4.0123 7.3573 7.3523 4.0173 11.5823 4.0173C14.0423 4.0173 16.2023 5.1473 17.5823 6.9273H12.5523C9.6523 6.9273 7.9523 8.6273 7.9523 11.5173V18.2573C5.5923 16.9873 4.0123 14.5073 4.0123 11.5873ZM13.1823 24.3073C12.4723 24.3073 12.1123 23.9973 12.1123 23.2273V12.1673C12.1123 11.3873 12.4723 11.0973 13.1823 11.0973H24.2623C24.9723 11.0973 25.3223 11.3873 25.3223 12.1673V23.2273C25.3223 23.9973 24.9723 24.3073 24.2623 24.3073Z" />
        </svg>
    