
        <svg xmlns="http://www.w3.org/2000/svg" viewBox="0 0 100 100">
            <path d="M17.4999 15.5766L19.7599 17.8466V11.2066C19.7599 9.8366 19.3699 9.1266 18.1799 8.4366L12.9699 5.4266V2.7966C12.9699 2.6966 13.0499 2.6366 13.1499 2.6966L21.7899 7.6866C22.1399 7.8966 22.2699 8.0466 22.2699 8.5066V18.9766C22.2699 19.0466 22.2599 19.1166 22.2499 19.1566L23.9099 20.8266C24.2999 20.4566 24.5299 19.8366 24.5299 18.9566V8.4566C24.5299 7.0866 24.1199 6.3766 22.9399 5.6966L13.6899 0.3366C12.3599 -0.4234 10.7099 0.0866 10.7099 1.9766V4.1166L8.9199 3.0866C7.8599 2.4766 6.5999 2.6966 6.1499 3.7466V3.8666L7.5199 5.2666V5.0466C7.5899 5.0266 7.7199 5.0466 7.8299 5.1166L17.0299 10.4266C17.3799 10.6266 17.4999 10.7966 17.4999 11.2466ZM23.1299 25.9066C23.4999 26.2766 24.0999 26.2766 24.4499 25.9066C24.7999 25.5466 24.8099 24.9566 24.4499 24.5966L1.5999 1.7466C1.2399 1.3866 0.6399 1.3866 0.2599 1.7466C-0.0901 2.0966 -0.0901 2.7166 0.2599 3.0666ZM2.4799 21.2066L11.5599 26.4566C13.3699 27.4966 14.7499 26.7866 14.7499 24.6466V22.4466L16.5899 23.5066C17.5299 24.0566 18.3499 24.1166 18.8999 23.7466L16.0599 20.9166C15.9099 20.8466 15.7199 20.7466 15.5499 20.6266L14.7499 20.1066V19.5966L12.4899 17.3366V24.1366C12.4899 24.2566 12.3999 24.3066 12.2999 24.2466L3.6399 19.2166C3.2599 18.9966 3.1699 18.8066 3.1699 18.3866V9.4066C3.1699 8.9566 3.2399 8.5466 3.2999 8.1566L1.4199 6.2866C1.1199 6.5766 0.9099 7.0566 0.9099 7.6766V18.4666C0.9099 19.8166 1.2499 20.4966 2.4799 21.2066Z" />
        </svg>
    