
        <svg xmlns="http://www.w3.org/2000/svg" viewBox="0 0 100 100">
            <path d="M15.0217 25.1398V24.0198L15.8317 24.4898C18.1517 25.8298 20.1817 24.8998 20.1817 22.1598V21.1798L20.8917 21.5998C23.2117 22.9398 25.2417 22.0098 25.2417 19.2698V9.1698C25.2417 7.2998 24.8017 6.5298 23.1717 5.5798L14.3517 0.4698C12.4917 -0.6102 10.2217 0.1698 10.2217 2.8298V3.9198L9.2817 3.3798C7.4317 2.2898 5.1517 3.0598 5.1517 5.7298V6.9398L4.1217 6.3398C2.2717 5.2598 0.0017 6.0398 0.0017 8.6998V19.0898C0.0017 20.8098 0.3917 21.5298 1.9117 22.4098L10.6717 27.4698C12.9917 28.8098 15.0217 27.8798 15.0217 25.1398ZM21.6517 18.1698L20.1817 17.2998V12.0598C20.1817 10.2098 19.7317 9.4198 18.1017 8.4898L13.6217 5.8798V4.2098C13.6217 4.1298 13.7117 4.0598 13.8017 4.1098L21.4917 8.5598C21.7717 8.7198 21.8417 8.8298 21.8417 9.1698V18.0698C21.8417 18.1698 21.7517 18.2198 21.6517 18.1698ZM15.0217 15.0398C15.0217 13.1698 14.5617 12.3998 12.9517 11.4498L8.5517 8.9098V7.1098C8.5517 7.0198 8.6517 6.9598 8.7417 7.0098L16.4317 11.4598C16.7117 11.6298 16.7717 11.7198 16.7717 12.0698V20.9698C16.7717 21.0598 16.6917 21.1298 16.5917 21.0698L15.0217 20.1298ZM11.2717 14.4298C11.5517 14.5898 11.6117 14.6998 11.6117 15.0398V23.9398C11.6117 24.0398 11.5217 24.0998 11.4417 24.0398L3.7417 19.4898C3.4717 19.3298 3.4017 19.1698 3.4017 18.8798V10.0798C3.4017 9.9998 3.4917 9.9398 3.5817 9.9898Z" />
        </svg>
    