
        <svg xmlns="http://www.w3.org/2000/svg" viewBox="0 0 100 100">
            <path d="M0.0023 10.2308C0.0023 15.0008 3.2623 19.0108 7.6723 20.1408V22.7908C7.6723 25.3608 9.0423 26.7308 11.6323 26.7308H23.5923C26.1823 26.7308 27.5523 25.3608 27.5523 22.7908V10.7808C27.5523 8.2008 26.1823 6.8408 23.5923 6.8408H19.9023C18.4923 2.8508 14.6923 0.0008 10.2323 0.0008C4.5823 0.0008 0.0023 4.5808 0.0023 10.2308ZM2.4823 10.2308C2.4823 5.9308 5.9323 2.4808 10.2323 2.4808C13.3223 2.4808 15.9623 4.2508 17.2123 6.8408H11.6323C9.0423 6.8408 7.6723 8.2008 7.6723 10.7808V17.5508C4.6423 16.5008 2.4823 13.6408 2.4823 10.2308ZM11.8623 24.1208C10.8423 24.1208 10.2823 23.6008 10.2823 22.5208V11.0508C10.2823 9.9708 10.8423 9.4608 11.8623 9.4608H23.3623C24.3823 9.4608 24.9523 9.9708 24.9523 11.0508V22.5208C24.9523 23.6008 24.3823 24.1208 23.3623 24.1208Z" />
        </svg>
    