
        <svg xmlns="http://www.w3.org/2000/svg" viewBox="0 0 100 100">
            <path d="M3.8417 21.8745H18.0317C20.5617 21.8745 21.8817 20.5745 21.8817 18.0745V3.8045C21.8817 1.3145 20.5617 0.0045 18.0317 0.0045H3.8417C1.3117 0.0045 0.0017 1.3045 0.0017 3.8045V18.0745C0.0017 20.5745 1.3117 21.8745 3.8417 21.8745ZM3.9817 19.5845C2.8917 19.5845 2.3017 19.0145 2.3017 17.8845V4.0045C2.3017 2.8745 2.8917 2.2945 3.9817 2.2945H17.8917C18.9717 2.2945 19.5817 2.8745 19.5817 4.0045V17.8845C19.5817 19.0145 18.9717 19.5845 17.8917 19.5845ZM4.0217 6.7645C4.0217 7.2645 4.3517 7.5945 4.8617 7.5945H6.7517C7.2617 7.5945 7.5917 7.2645 7.5917 6.7645V4.8545C7.5917 4.3445 7.2617 4.0345 6.7517 4.0345H4.8617C4.3517 4.0345 4.0217 4.3445 4.0217 4.8545ZM9.1617 6.7645C9.1617 7.2645 9.4917 7.5945 10.0117 7.5945H11.8917C12.4117 7.5945 12.7417 7.2645 12.7417 6.7645V4.8545C12.7417 4.3445 12.4117 4.0345 11.8917 4.0345H10.0117C9.4917 4.0345 9.1617 4.3445 9.1617 4.8545ZM14.3017 6.7645C14.3017 7.2645 14.6217 7.5945 15.1417 7.5945H17.0317C17.5417 7.5945 17.8717 7.2645 17.8717 6.7645V4.8545C17.8717 4.3445 17.5417 4.0345 17.0317 4.0345H15.1417C14.6217 4.0345 14.3017 4.3445 14.3017 4.8545ZM4.0217 11.8945C4.0217 12.4145 4.3517 12.7245 4.8617 12.7245H6.7517C7.2617 12.7245 7.5917 12.4145 7.5917 11.8945V9.9845C7.5917 9.4845 7.2617 9.1645 6.7517 9.1645H4.8617C4.3517 9.1645 4.0217 9.4845 4.0217 9.9845ZM9.1617 11.8945C9.1617 12.4145 9.4917 12.7245 10.0117 12.7245H11.8917C12.4117 12.7245 12.7417 12.4145 12.7417 11.8945V9.9845C12.7417 9.4845 12.4117 9.1645 11.8917 9.1645H10.0117C9.4917 9.1645 9.1617 9.4845 9.1617 9.9845ZM14.3017 11.8945C14.3017 12.4145 14.6217 12.7245 15.1417 12.7245H17.0317C17.5417 12.7245 17.8717 12.4145 17.8717 11.8945V9.9845C17.8717 9.4845 17.5417 9.1645 17.0317 9.1645H15.1417C14.6217 9.1645 14.3017 9.4845 14.3017 9.9845ZM4.0217 17.0245C4.0217 17.5345 4.3517 17.8545 4.8617 17.8545H6.7517C7.2617 17.8545 7.5917 17.5345 7.5917 17.0245V15.1145C7.5917 14.6145 7.2617 14.2945 6.7517 14.2945H4.8617C4.3517 14.2945 4.0217 14.6145 4.0217 15.1145ZM9.1617 17.0245C9.1617 17.5345 9.4917 17.8545 10.0117 17.8545H11.8917C12.4117 17.8545 12.7417 17.5345 12.7417 17.0245V15.1145C12.7417 14.6145 12.4117 14.2945 11.8917 14.2945H10.0117C9.4917 14.2945 9.1617 14.6145 9.1617 15.1145ZM14.3017 17.0245C14.3017 17.5345 14.6217 17.8545 15.1417 17.8545H17.0317C17.5417 17.8545 17.8717 17.5345 17.8717 17.0245V15.1145C17.8717 14.6145 17.5417 14.2945 17.0317 14.2945H15.1417C14.6217 14.2945 14.3017 14.6145 14.3017 15.1145Z" />
        </svg>
    