
        <svg xmlns="http://www.w3.org/2000/svg" viewBox="0 0 100 100">
            <path d="M12.9717 26.4566L22.0517 21.2066C23.2817 20.4966 23.6217 19.8166 23.6217 18.4666V7.6766C23.6217 5.7766 21.9617 5.2766 20.6417 6.0366L18.6017 7.2066V4.7366C18.6017 2.8366 16.9317 2.3166 15.6117 3.0866L13.8317 4.1166V1.9766C13.8317 0.0866 12.1717 -0.4234 10.8517 0.3366L1.5917 5.6966C0.4117 6.3766 0.0017 7.0866 0.0017 8.4566V18.9566C0.0017 21.1066 1.3817 21.8066 3.1917 20.7666L4.7717 19.8566V21.7066C4.7717 23.8466 6.1417 24.5466 7.9417 23.5066L9.7817 22.4466V24.6466C9.7817 26.7866 11.1717 27.4966 12.9717 26.4566ZM2.2617 18.4566V8.5066C2.2617 8.0466 2.3917 7.8966 2.7417 7.6866L11.3817 2.6966C11.4817 2.6366 11.5617 2.6966 11.5617 2.7966V5.4266L6.3517 8.4366C5.1717 9.1266 4.7717 9.8366 4.7717 11.2066V17.2066L2.4417 18.5466C2.3317 18.6066 2.2617 18.5666 2.2617 18.4566ZM9.7817 14.1466V19.8066L7.2117 21.2966C7.1017 21.3566 7.0317 21.3166 7.0317 21.1966V11.2466C7.0317 10.7966 7.1517 10.6366 7.5017 10.4266L16.1417 5.4366C16.2517 5.3766 16.3317 5.4366 16.3317 5.5466V8.5166L11.3817 11.3766C10.1917 12.0666 9.7817 12.7866 9.7817 14.1466ZM12.5317 13.3666L21.1617 8.3866C21.2817 8.3166 21.3617 8.3766 21.3617 8.4866V18.3866C21.3617 18.8066 21.2717 18.9966 20.8917 19.2166L12.2317 24.2466C12.1317 24.3066 12.0517 24.2566 12.0517 24.1366V14.2066C12.0517 13.7366 12.1717 13.5866 12.5317 13.3666Z" />
        </svg>
    