
        <svg xmlns="http://www.w3.org/2000/svg" viewBox="0 0 100 100">
            <path d="M4.5917 23.2359H18.6417C21.5417 23.2359 23.2417 21.5459 23.2417 18.6459V4.5959C23.2417 1.6959 21.5417 -0.0041 18.6417 -0.0041H4.5917C1.7017 -0.0041 0.0017 1.6959 0.0017 4.5959V18.6459C0.0017 21.5459 1.7017 23.2359 4.5917 23.2359ZM5.2217 19.0759C4.5117 19.0759 4.1617 18.7859 4.1617 18.0159V5.2359C4.1617 4.4659 4.5117 4.1759 5.2217 4.1759H18.0117C18.7217 4.1759 19.0817 4.4659 19.0817 5.2359V18.0159C19.0817 18.7859 18.7217 19.0759 18.0117 19.0759ZM5.9017 7.1359V9.2259C5.9017 10.1159 6.3917 10.5859 7.2817 10.5859H9.3617C10.2417 10.5859 10.7217 10.1159 10.7217 9.2259V7.1359C10.7217 6.2459 10.2417 5.7759 9.3617 5.7759H7.2817C6.3917 5.7759 5.9017 6.2459 5.9017 7.1359ZM6.7617 13.8359H16.5017C16.9817 13.8359 17.3417 13.4659 17.3417 12.9859C17.3417 12.5159 16.9817 12.1659 16.5017 12.1659H6.7617C6.2717 12.1659 5.9017 12.5159 5.9017 12.9859C5.9017 13.4659 6.2717 13.8359 6.7617 13.8359ZM6.7617 17.0459H14.3017C14.7817 17.0459 15.1317 16.6959 15.1317 16.2259C15.1317 15.7459 14.7817 15.3759 14.3017 15.3759H6.7617C6.2717 15.3759 5.9017 15.7459 5.9017 16.2259C5.9017 16.6959 6.2717 17.0459 6.7617 17.0459Z" />
        </svg>
    