
        <svg xmlns="http://www.w3.org/2000/svg" viewBox="0 0 100 100">
            <path d="M3.6717 0.575H15.3417C15.3417 0.285 15.1217 -0.005 14.8017 -0.005H4.1917C3.8817 -0.005 3.6517 0.285 3.6717 0.575ZM1.9417 3.105H17.0517C17.0517 2.815 16.8317 2.535 16.5217 2.535H2.4717C2.1717 2.535 1.9417 2.815 1.9417 3.105ZM3.0117 24.355H15.9817C17.9517 24.355 18.9917 23.285 18.9917 21.355V8.365C18.9917 6.435 17.9517 5.355 15.9817 5.355H3.0117C1.0417 5.355 0.0017 6.395 0.0017 8.365V21.355C0.0017 23.305 1.0417 24.355 3.0117 24.355Z" />
        </svg>
    