
        <svg xmlns="http://www.w3.org/2000/svg" viewBox="0 0 100 100">
            <path d="M2.3017 5.4V4C2.3017 2.86 2.8917 2.29 3.9817 2.29H5.5317V0H3.8417C1.3117 0 0.0017 1.29 0.0017 3.8V5.4ZM12.4117 0H7.1517V2.29H12.4117ZM0.0017 14.13V15.74C0.0017 18.25 1.3117 19.55 3.8417 19.55H5.8317V21.32C5.8317 23.81 7.1417 25.11 9.6817 25.11H21.5417C24.0717 25.11 25.3817 23.81 25.3817 21.32V9.36C25.3817 6.87 24.0717 5.57 21.5417 5.57H19.5517V3.8C19.5517 1.3 18.2317 0 15.7017 0H14.0117V2.29H15.5717C16.6517 2.29 17.2617 2.86 17.2617 4V5.57H9.6817C7.1417 5.57 5.8317 6.87 5.8317 9.36V17.25H3.9817C2.8917 17.25 2.3017 16.69 2.3017 15.55V14.13ZM2.3017 12.42V7.11H0.0017V12.42ZM9.8117 22.82C8.7217 22.82 8.1317 22.25 8.1317 21.12V9.56C8.1317 8.43 8.7217 7.86 9.8117 7.86H21.4017C22.4717 7.86 23.0817 8.43 23.0817 9.56V21.12C23.0817 22.25 22.4717 22.82 21.4017 22.82Z" />
        </svg>
    