
        <svg xmlns="http://www.w3.org/2000/svg" viewBox="0 0 100 100">
            <path d="M0.8717 1.7298C1.3517 1.7298 1.7317 1.3498 1.7317 0.8698C1.7317 0.3998 1.3517 -0.0002 0.8717 -0.0002C0.4017 -0.0002 0.0017 0.3998 0.0017 0.8698C0.0017 1.3498 0.4017 1.7298 0.8717 1.7298ZM4.1417 1.7298C4.6017 1.7298 5.0017 1.3498 5.0017 0.8698C5.0017 0.3998 4.6017 -0.0002 4.1417 -0.0002C3.6517 -0.0002 3.2617 0.3998 3.2617 0.8698C3.2617 1.3498 3.6517 1.7298 4.1417 1.7298ZM7.3817 1.7298C7.8617 1.7298 8.2517 1.3498 8.2517 0.8698C8.2517 0.3998 7.8617 -0.0002 7.3817 -0.0002C6.9117 -0.0002 6.5117 0.3998 6.5117 0.8698C6.5117 1.3498 6.9117 1.7298 7.3817 1.7298ZM10.6417 1.7298C11.1217 1.7298 11.5117 1.3498 11.5117 0.8698C11.5117 0.3998 11.1217 -0.0002 10.6417 -0.0002C10.1617 -0.0002 9.7717 0.3998 9.7717 0.8698C9.7717 1.3498 10.1617 1.7298 10.6417 1.7298ZM13.9017 1.7298C14.3817 1.7298 14.7617 1.3498 14.7617 0.8698C14.7617 0.3998 14.3817 -0.0002 13.9017 -0.0002C13.4317 -0.0002 13.0317 0.3998 13.0317 0.8698C13.0317 1.3498 13.4317 1.7298 13.9017 1.7298ZM17.1517 1.7298C17.6417 1.7298 18.0217 1.3498 18.0217 0.8698C18.0217 0.3998 17.6417 -0.0002 17.1517 -0.0002C16.6717 -0.0002 16.2917 0.3998 16.2917 0.8698C16.2917 1.3498 16.6717 1.7298 17.1517 1.7298ZM20.4117 1.7298C20.8817 1.7298 21.2817 1.3498 21.2817 0.8698C21.2817 0.3998 20.8817 -0.0002 20.4117 -0.0002C19.9317 -0.0002 19.5517 0.3998 19.5517 0.8698C19.5517 1.3498 19.9317 1.7298 20.4117 1.7298ZM0.8717 4.9898C1.3517 4.9898 1.7317 4.6098 1.7317 4.1298C1.7317 3.6398 1.3517 3.2598 0.8717 3.2598C0.4017 3.2598 0.0017 3.6398 0.0017 4.1298C0.0017 4.6098 0.4017 4.9898 0.8717 4.9898ZM20.4117 4.9898C20.8817 4.9898 21.2817 4.6098 21.2817 4.1298C21.2817 3.6398 20.8817 3.2598 20.4117 3.2598C19.9317 3.2598 19.5517 3.6398 19.5517 4.1298C19.5517 4.6098 19.9317 4.9898 20.4117 4.9898ZM9.1517 12.0398C9.3717 12.2698 9.7417 12.2498 9.9617 12.0398L14.2817 7.7698L15.4217 8.9298C15.7517 9.2598 16.2317 9.0798 16.3317 8.5998L17.1417 4.8198C17.2417 4.3798 16.8717 4.0398 16.4317 4.1398L12.6717 4.9298C12.1717 5.0298 12.0117 5.4798 12.3317 5.8098L13.4917 6.9698L9.1517 11.2298C8.9317 11.4498 8.9417 11.7998 9.1517 12.0398ZM0.8717 8.2498C1.3517 8.2498 1.7317 7.8498 1.7317 7.3798C1.7317 6.8998 1.3517 6.5198 0.8717 6.5198C0.4017 6.5198 0.0017 6.8998 0.0017 7.3798C0.0017 7.8498 0.4017 8.2498 0.8717 8.2498ZM20.4117 8.2498C20.8817 8.2498 21.2817 7.8498 21.2817 7.3798C21.2817 6.8998 20.8817 6.5198 20.4117 6.5198C19.9317 6.5198 19.5517 6.8998 19.5517 7.3798C19.5517 7.8498 19.9317 8.2498 20.4117 8.2498ZM20.4117 11.5098C20.8817 11.5098 21.2817 11.1198 21.2817 10.6398C21.2817 10.1598 20.8817 9.7698 20.4117 9.7698C19.9317 9.7698 19.5517 10.1598 19.5517 10.6398C19.5517 11.1198 19.9317 11.5098 20.4117 11.5098ZM0.8017 21.2498H10.5817C11.0617 21.2498 11.3817 20.9298 11.3817 20.4498V12.3298L10.8017 12.8898C10.5817 13.0998 10.3317 13.2398 10.0617 13.3198V19.6298C10.0617 19.8398 9.9717 19.9298 9.7617 19.9298H1.6217C1.3917 19.9298 1.3117 19.8398 1.3117 19.6298V11.4998C1.3117 11.2898 1.3917 11.1898 1.6217 11.1898H7.8517C7.9117 10.8998 8.0617 10.6098 8.3117 10.3598L8.8017 9.8798H0.8017C0.3017 9.8798 0.0017 10.1998 0.0017 10.6798V20.4498C0.0017 20.9298 0.3017 21.2498 0.8017 21.2498ZM20.4117 14.7698C20.8817 14.7698 21.2817 14.3698 21.2817 13.8998C21.2817 13.4198 20.8817 13.0298 20.4117 13.0298C19.9317 13.0298 19.5517 13.4198 19.5517 13.8998C19.5517 14.3698 19.9317 14.7698 20.4117 14.7698ZM20.4117 18.0198C20.8817 18.0198 21.2817 17.6298 21.2817 17.1598C21.2817 16.6798 20.8817 16.2798 20.4117 16.2798C19.9317 16.2798 19.5517 16.6798 19.5517 17.1598C19.5517 17.6298 19.9317 18.0198 20.4117 18.0198ZM20.4117 21.2798C20.8817 21.2798 21.2817 20.8898 21.2817 20.4098C21.2817 19.9298 20.8817 19.5498 20.4117 19.5498C19.9317 19.5498 19.5517 19.9298 19.5517 20.4098C19.5517 20.8898 19.9317 21.2798 20.4117 21.2798ZM17.1517 21.2798C17.6417 21.2798 18.0217 20.8898 18.0217 20.4098C18.0217 19.9298 17.6417 19.5498 17.1517 19.5498C16.6717 19.5498 16.2917 19.9298 16.2917 20.4098C16.2917 20.8898 16.6717 21.2798 17.1517 21.2798ZM13.9017 21.2798C14.3717 21.2798 14.7617 20.8898 14.7617 20.4098C14.7617 19.9298 14.3717 19.5498 13.9017 19.5498C13.4217 19.5498 13.0317 19.9298 13.0317 20.4098C13.0317 20.8898 13.4217 21.2798 13.9017 21.2798Z" />
        </svg>
    