
        <svg xmlns="http://www.w3.org/2000/svg" viewBox="0 0 100 100">
            <path d="M3.8417 21.8745H18.0317C20.5617 21.8745 21.8817 20.5745 21.8817 18.0745V3.8045C21.8817 1.3145 20.5617 0.0045 18.0317 0.0045H3.8417C1.3117 0.0045 0.0017 1.3045 0.0017 3.8045V18.0745C0.0017 20.5745 1.3117 21.8745 3.8417 21.8745ZM3.9817 19.5845C2.8917 19.5845 2.3017 19.0145 2.3017 17.8845V4.0045C2.3017 2.8745 2.8917 2.2945 3.9817 2.2945H17.8917C18.9717 2.2945 19.5817 2.8745 19.5817 4.0045V17.8845C19.5817 19.0145 18.9717 19.5845 17.8917 19.5845ZM4.5617 5.4345V8.1545C4.5617 8.9145 5.0017 9.3545 5.7517 9.3545H8.4717C9.2317 9.3545 9.6817 8.9145 9.6817 8.1545V5.4345C9.6817 4.6745 9.2317 4.2445 8.4717 4.2445H5.7517C5.0017 4.2445 4.5617 4.6745 4.5617 5.4345ZM5.2817 13.2545H16.5117C16.9317 13.2545 17.2517 12.9245 17.2517 12.5045C17.2517 12.0945 16.9317 11.7745 16.5117 11.7745H5.2817C4.8517 11.7745 4.5317 12.0945 4.5317 12.5045C4.5317 12.9245 4.8517 13.2545 5.2817 13.2545ZM5.2817 17.1245H13.5817C14.0017 17.1245 14.3217 16.7945 14.3217 16.3845C14.3217 15.9645 14.0017 15.6345 13.5817 15.6345H5.2817C4.8517 15.6345 4.5317 15.9645 4.5317 16.3845C4.5317 16.7945 4.8517 17.1245 5.2817 17.1245Z" />
        </svg>
    