
        <svg xmlns="http://www.w3.org/2000/svg" viewBox="0 0 100 100">
            <path d="M11.4517 0.0031C10.4417 0.0031 9.6717 0.8331 9.6717 1.7731V12.8231L9.8317 14.5031L9.4017 13.5231L8.3417 12.4131C8.0517 12.0931 7.6617 11.9031 7.2117 11.9031C6.4717 11.9031 5.7217 12.4931 5.7217 13.3431C5.7217 13.7831 5.8817 14.0931 6.1617 14.3831L9.9817 18.0331C10.4617 18.4931 10.9617 18.6631 11.4517 18.6631C11.9417 18.6631 12.4417 18.4931 12.9117 18.0331L16.7317 14.3831C17.0317 14.0931 17.1817 13.7831 17.1817 13.3431C17.1817 12.4931 16.4317 11.9031 15.6917 11.9031C15.2317 11.9031 14.8517 12.0931 14.5517 12.4131L13.5017 13.5231L13.0617 14.5031L13.2317 12.8231V1.7731C13.2317 0.8331 12.4617 0.0031 11.4517 0.0031ZM4.5917 26.6831H6.6717V28.2931C6.6717 31.1931 8.3717 32.8831 11.2617 32.8831H24.9717C27.8717 32.8831 29.5617 31.1931 29.5617 28.2931V17.2031C29.5617 14.3131 27.8717 12.6131 24.9717 12.6131H22.9017V11.0031C22.9017 8.0931 21.2017 6.4131 18.3017 6.4131H15.4817V10.5731H17.6717C18.3917 10.5731 18.7417 10.8631 18.7417 11.6331V21.4431C18.7417 22.2331 18.3917 22.5231 17.6717 22.5231H5.2217C4.5117 22.5231 4.1617 22.2331 4.1617 21.4431V11.6331C4.1617 10.8631 4.5117 10.5731 5.2217 10.5731H7.4217V6.4131H4.5917C1.7017 6.4131 0.0017 8.0931 0.0017 11.0031V22.0931C0.0017 24.9831 1.7017 26.6831 4.5917 26.6831ZM11.8917 28.7231C11.1817 28.7231 10.8317 28.4331 10.8317 27.6531V26.6831H18.3017C21.2017 26.6831 22.9017 24.9831 22.9017 22.0931V16.7731H24.3417C25.0517 16.7731 25.4017 17.0631 25.4017 17.8431V27.6531C25.4017 28.4331 25.0517 28.7231 24.3417 28.7231Z" />
        </svg>
    