
        <svg xmlns="http://www.w3.org/2000/svg" viewBox="0 0 100 100">
            <path d="M11.7617 23.0623L21.4917 17.4723C21.9017 17.2423 22.1417 17.0123 22.1417 16.6423C22.1417 16.2723 21.9017 16.0523 21.4917 15.8223L14.2717 11.6723L21.4917 7.5123C21.9017 7.2723 22.1417 7.0523 22.1417 6.6923C22.1417 6.3323 21.9017 6.1023 21.4917 5.8723L11.7617 0.2723C11.4917 0.1023 11.3017 0.0023 11.0617 0.0023C10.8317 0.0023 10.6417 0.1023 10.3617 0.2723L0.6417 5.8723C0.2317 6.1023 0.0017 6.3323 0.0017 6.6923C0.0017 7.0523 0.2317 7.2723 0.6417 7.5123L7.8517 11.6723L0.6417 15.8223C0.2317 16.0523 0.0017 16.2723 0.0017 16.6423C0.0017 17.0123 0.2317 17.2423 0.6417 17.4723L10.3617 23.0623C10.6417 23.2223 10.8317 23.3323 11.0617 23.3323C11.3017 23.3323 11.4917 23.2223 11.7617 23.0623ZM11.0617 13.3823C11.3017 13.3823 11.4917 13.2723 11.7617 13.1123L13.7117 12.0023L21.2217 16.3223C21.3617 16.4023 21.4717 16.4923 21.4717 16.6423C21.4717 16.7923 21.3617 16.8823 21.2217 16.9523L11.4017 22.6123C11.2717 22.6923 11.1917 22.7323 11.0617 22.7323C10.9417 22.7323 10.8617 22.6923 10.7217 22.6123L0.9117 16.9523C0.7717 16.8823 0.6717 16.7923 0.6717 16.6423C0.6717 16.4923 0.7717 16.4023 0.9117 16.3223L8.4217 12.0023L10.3617 13.1123C10.6417 13.2723 10.8317 13.3823 11.0617 13.3823Z" />
        </svg>
    