
        <svg xmlns="http://www.w3.org/2000/svg" viewBox="0 0 100 100">
            <path d="M3.4617 21.2264H17.7617C20.0517 21.2264 21.2217 20.0464 21.2217 17.7964V3.4264C21.2217 1.1764 20.0517 -0.0036 17.7617 -0.0036H3.4617C1.1717 -0.0036 0.0017 1.1564 0.0017 3.4264V17.7964C0.0017 20.0664 1.1717 21.2264 3.4617 21.2264ZM3.4817 1.4564H17.7317C18.0717 1.4564 18.3617 1.4964 18.6217 1.5964L10.6017 9.6064L2.5917 1.5864C2.8517 1.4964 3.1517 1.4564 3.4817 1.4564ZM1.4517 17.7164V3.5064C1.4517 3.1664 1.4917 2.8664 1.5817 2.6164L9.5817 10.6264L1.5817 18.6164C1.5017 18.3664 1.4517 18.0664 1.4517 17.7164ZM19.7717 3.5064V17.7164C19.7717 18.0564 19.7217 18.3664 19.6317 18.6164L11.6417 10.6264L19.6417 2.6264C19.7217 2.8664 19.7717 3.1664 19.7717 3.5064ZM3.4817 19.7664C3.1517 19.7664 2.8717 19.7364 2.6117 19.6364L10.6017 11.6464L18.6017 19.6364C18.3517 19.7264 18.0617 19.7664 17.7317 19.7664Z" />
        </svg>
    