
        <svg xmlns="http://www.w3.org/2000/svg" viewBox="0 0 100 100">
            <path d="M11.6517 25.2729L21.2217 19.7429C21.9417 19.3329 22.1017 19.0329 22.1017 18.2929V6.9529C22.1017 6.0629 21.2817 5.6129 20.4017 6.1129L16.9817 8.0929V3.9729C16.9817 3.0829 16.1617 2.6329 15.2717 3.1429L12.2017 4.9229V1.0429C12.2017 0.1529 11.3817 -0.2971 10.5017 0.2129L0.8717 5.7729C0.2017 6.1629 0.0017 6.4929 0.0017 7.2329V18.3829C0.0017 19.5829 0.8317 19.9029 1.7617 19.3729L4.7717 17.6229V21.3129C4.7717 22.5129 5.6017 22.8329 6.5317 22.3029L9.9017 20.3529V24.2929C9.9017 25.5029 10.7217 25.8029 11.6517 25.2729ZM0.8817 18.4229V7.2429C0.8817 6.8929 0.9617 6.7629 1.2517 6.5829L10.8617 1.0229C11.0817 0.8929 11.3217 0.9929 11.3217 1.2929V5.4229L5.6517 8.7029C4.9817 9.0929 4.7717 9.4229 4.7717 10.1629V16.6029L1.2617 18.6229C1.0217 18.7629 0.8817 18.6529 0.8817 18.4229ZM9.9017 13.1329V19.3329L6.0517 21.5529C5.7917 21.6929 5.6517 21.5829 5.6517 21.3529V10.1729C5.6517 9.8229 5.7417 9.6929 6.0317 9.5129L15.6317 3.9529C15.8517 3.8229 16.1017 3.9229 16.1017 4.2229V8.6029L10.7717 11.6829C10.1017 12.0729 9.9017 12.4029 9.9017 13.1329ZM11.1517 12.4929L20.7517 6.9329C20.9717 6.7929 21.2217 6.9129 21.2217 7.2029V18.2829C21.2217 18.6529 21.1317 18.7729 20.8317 18.9529L11.1717 24.5429C10.9217 24.6829 10.7717 24.5629 10.7717 24.3429V13.1529C10.7717 12.7929 10.8617 12.6729 11.1517 12.4929Z" />
        </svg>
    