
        <svg xmlns="http://www.w3.org/2000/svg" viewBox="0 0 100 100">
            <path d="M0.0017 4.1323V18.2723C0.0017 20.9423 1.4517 22.4023 4.1117 22.4023H18.2917C20.9517 22.4023 22.4017 20.9423 22.4017 18.2723V4.1323C22.4017 1.4623 20.9517 0.0023 18.2917 0.0023H4.1117C1.4517 0.0023 0.0017 1.4623 0.0017 4.1323ZM3.0217 4.4623C3.0217 3.5223 3.4817 3.0223 4.4717 3.0223H17.9317C18.9217 3.0223 19.3817 3.5223 19.3817 4.4623V9.7623H3.0217ZM4.4717 19.3823C3.4817 19.3823 3.0217 18.8823 3.0217 17.9423V12.6423H19.3817V17.9423C19.3817 18.8823 18.9217 19.3823 17.9317 19.3823Z" />
        </svg>
    