
        <svg xmlns="http://www.w3.org/2000/svg" viewBox="0 0 100 100">
            <path d="M9.1617 22.7469C9.4117 22.7469 9.7117 22.6169 9.9217 22.4869C16.3617 18.6669 18.3317 17.4069 18.3317 13.6969V4.8969C18.3317 3.6169 17.9617 3.1869 16.7717 2.7269C14.7317 1.9469 12.0717 0.8869 10.0317 0.1769C9.7217 0.0669 9.4617 -0.0031 9.1617 -0.0031C8.8717 -0.0031 8.6017 0.0869 8.3017 0.1769C6.2617 0.9369 3.5817 1.9469 1.5617 2.7269C0.3617 3.1769 0.0017 3.6169 0.0017 4.8969V13.6969C0.0017 17.4069 2.0417 18.5469 8.4017 22.4869C8.6117 22.6169 8.9017 22.7469 9.1617 22.7469ZM4.0217 7.8769L4.0617 7.7969C4.3817 7.1469 4.6217 7.0969 5.2217 7.4669L8.2517 9.1969V5.7169C8.2517 5.0669 8.4417 4.8769 9.1317 4.8769H9.2117C9.9017 4.8769 10.0917 5.0669 10.0917 5.7169V9.1969L13.1117 7.4669C13.7317 7.0969 13.9717 7.1669 14.2717 7.7969L14.3217 7.8769C14.6217 8.4569 14.5517 8.7169 13.9817 9.0369L10.8717 10.7269L14.0017 12.5369C14.5517 12.8669 14.6217 13.1169 14.3117 13.7069L14.2717 13.7569C13.9617 14.3869 13.7217 14.4569 13.1117 14.0869L10.0917 12.3469V15.8369C10.0917 16.4969 9.9017 16.6869 9.2117 16.6869H9.1317C8.4417 16.6869 8.2517 16.4969 8.2517 15.8369V12.3469L5.2217 14.0869C4.6317 14.4569 4.3817 14.3869 4.0617 13.7569L4.0317 13.7069C3.7017 13.1169 3.7617 12.8569 4.3317 12.5369L7.4617 10.7269L4.3517 9.0369C3.7817 8.7269 3.7117 8.4769 4.0217 7.8769Z" />
        </svg>
    