
        <svg xmlns="http://www.w3.org/2000/svg" viewBox="0 0 100 100">
            <path d="M19.2105 15.3166L25.1405 11.0466C25.8605 10.5366 26.1605 9.9966 25.9705 9.4066C25.7805 8.8466 25.2305 8.5666 24.3305 8.5766L16.6505 8.6266L14.3205 1.2966C14.0405 0.4366 13.6205 -0.0034 13.0105 -0.0034C12.4105 -0.0034 11.9905 0.4366 11.7105 1.2966L10.1305 6.2666L11.5205 7.6666L12.9505 2.9366C12.9605 2.8666 12.9905 2.8466 13.0105 2.8466C13.0405 2.8466 13.0705 2.8666 13.0805 2.9366L15.1205 9.7266C15.2705 10.2066 15.5705 10.4066 16.0605 10.3966L23.1505 10.2666C23.2205 10.2666 23.2405 10.2666 23.2505 10.2966C23.2605 10.3366 23.2405 10.3566 23.1905 10.3966L17.9205 14.0366ZM23.1505 23.7766C23.5005 24.1266 24.0805 24.1266 24.4205 23.7766C24.7605 23.4166 24.7705 22.8566 24.4205 22.4966L5.4505 3.5866C5.1005 3.2366 4.5105 3.2266 4.1605 3.5866C3.8205 3.9266 3.8205 4.5166 4.1605 4.8666ZM4.9905 24.6566C5.4705 25.0266 6.0805 24.9066 6.8105 24.3766L13.0105 19.8166L19.2205 24.3766C19.9505 24.9066 20.5305 25.0166 21.0405 24.6566C21.1805 24.5466 21.2805 24.4066 21.4605 24.1566L13.6105 18.0166C13.2305 17.7166 12.8005 17.7166 12.4205 18.0166L6.7905 22.3166C6.7405 22.3466 6.7005 22.3666 6.6805 22.3366C6.6605 22.3166 6.6705 22.2966 6.6805 22.2266L9.0105 15.5266C9.1805 15.0666 9.0805 14.7066 8.6705 14.4266L2.8405 10.3966C2.7805 10.3566 2.7705 10.3366 2.7805 10.2966C2.7905 10.2666 2.8105 10.2666 2.8805 10.2666L7.6905 10.3466L5.9305 8.5966L1.7005 8.5766C0.8005 8.5666 0.2505 8.8466 0.0605 9.4066C-0.1395 9.9966 0.1605 10.5366 0.8905 11.0466L7.1505 15.5466L4.7005 22.8366C4.4105 23.6966 4.5105 24.2966 4.9905 24.6566Z" />
        </svg>
    