
        <svg xmlns="http://www.w3.org/2000/svg" viewBox="0 0 100 100">
            <path d="M9.5817 23.3019C9.7717 23.3019 10.0617 23.2219 10.3617 23.0719C17.0317 19.5819 19.1717 17.8319 19.1717 13.6319V4.7919C19.1717 3.5819 18.6517 3.2019 17.6717 2.7919C16.3017 2.2219 11.9217 0.6319 10.5617 0.1619C10.2417 0.0619 9.9117 0.0019 9.5817 0.0019C9.2617 0.0019 8.9317 0.0719 8.6217 0.1619C7.2517 0.6119 2.8717 2.2419 1.5017 2.7919C0.5317 3.1919 0.0017 3.5819 0.0017 4.7919V13.6319C0.0017 17.8319 2.2617 19.3819 8.8117 23.0719C9.1217 23.2419 9.4017 23.3019 9.5817 23.3019ZM3.9817 8.0419L4.0317 7.9419C4.3917 7.1919 4.7717 7.1019 5.5317 7.5319L8.4417 9.2319V5.8319C8.4417 5.0419 8.7217 4.7719 9.5717 4.7719H9.6517C10.4917 4.7719 10.7717 5.0419 10.7717 5.8319V9.2319L13.6717 7.5319C14.4417 7.0819 14.8117 7.1819 15.1717 7.9419L15.2217 8.0419C15.6017 8.7819 15.5017 9.1419 14.8117 9.5019L11.7617 11.1519L14.8217 12.9219C15.4917 13.3019 15.5717 13.6619 15.2017 14.4119L15.1717 14.4719C14.7917 15.2219 14.4417 15.3319 13.7017 14.8819L10.7717 13.1819V16.5819C10.7717 17.3919 10.4917 17.6619 9.6517 17.6619H9.5717C8.7217 17.6619 8.4417 17.3919 8.4417 16.5819V13.1819L5.5117 14.8819C4.8017 15.3019 4.4317 15.2119 4.0317 14.4719L3.9917 14.4119C3.6017 13.6719 3.6917 13.3219 4.3817 12.9219L7.4417 11.1519L4.3917 9.5019C3.7017 9.1419 3.6117 8.7819 3.9817 8.0419Z" />
        </svg>
    