
        <svg xmlns="http://www.w3.org/2000/svg" viewBox="0 0 100 100">
            <path d="M4.3817 22.8467H18.4717C21.2617 22.8467 22.8517 21.2667 22.8517 18.4767V4.3667C22.8517 1.5867 21.2617 -0.0033 18.4717 -0.0033H4.3817C1.5917 -0.0033 0.0017 1.5867 0.0017 4.3667V18.4767C0.0017 21.2667 1.5917 22.8467 4.3817 22.8467ZM8.3817 17.4567C7.5917 18.0467 6.7217 17.4867 7.0517 16.4967L8.2817 12.8067L5.1117 10.5067C4.4417 10.0167 4.5717 8.9267 5.6217 8.9367L9.5317 8.9867L10.7117 5.2567C11.0317 4.2967 12.0217 4.2967 12.3417 5.2567L13.5317 8.9867L17.4417 8.9367C18.5317 8.9267 18.6017 10.0267 17.9417 10.5067L14.7817 12.7967L15.9917 16.4967C16.3317 17.5267 15.4717 18.0367 14.6817 17.4567L11.5317 15.1567Z" />
        </svg>
    