
        <svg xmlns="http://www.w3.org/2000/svg" viewBox="0 0 100 100">
            <path d="M4.1417 22.4041H18.2717C20.9517 22.4041 22.4017 20.9541 22.4017 18.3041V4.1141C22.4017 1.4641 20.9517 0.0041 18.2717 0.0041H4.1417C1.4617 0.0041 0.0017 1.4541 0.0017 4.1141V18.3041C0.0017 20.9541 1.4617 22.4041 4.1417 22.4041ZM4.4617 19.3841C3.5317 19.3841 3.0217 18.9241 3.0217 17.9341V4.4841C3.0217 3.4941 3.5317 3.0241 4.4617 3.0241H17.9417C18.8817 3.0241 19.3817 3.4941 19.3817 4.4841V17.9341C19.3817 18.9241 18.8817 19.3841 17.9417 19.3841ZM8.1117 17.0241L11.2017 14.7541L14.3117 17.0241C15.0217 17.5541 15.8117 17.0641 15.5117 16.1441L14.3017 12.4941L17.4117 10.2641C18.0317 9.8041 17.9317 8.8141 16.9717 8.8241L13.1117 8.8641L11.9417 5.1941C11.6717 4.3341 10.7317 4.3341 10.4617 5.1941L9.2917 8.8641L5.4517 8.8241C4.5117 8.8141 4.3617 9.7941 4.9917 10.2641L8.1217 12.5041L6.9017 16.1441C6.6117 17.0241 7.3917 17.5541 8.1117 17.0241Z" />
        </svg>
    