
        <svg xmlns="http://www.w3.org/2000/svg" viewBox="0 0 100 100">
            <path d="M10.2035 6.2916L19.7535 15.8116L25.6135 11.6116C26.4535 11.0116 26.8035 10.3316 26.5735 9.6216C26.3235 8.9216 25.6535 8.5616 24.6135 8.5816L17.1835 8.6416L14.9135 1.5216C14.5935 0.5316 14.0735 0.0016 13.3235 0.0016C12.5735 0.0016 12.0535 0.5316 11.7335 1.5216ZM23.5035 24.4116C23.8735 24.7716 24.4935 24.7816 24.8635 24.4116C25.2235 24.0316 25.2335 23.4416 24.8635 23.0616L5.3235 3.5616C4.9535 3.2016 4.3235 3.1916 3.9535 3.5616C3.5935 3.9216 3.5935 4.5616 3.9535 4.9216ZM5.5035 8.6016L2.0235 8.5816C1.0035 8.5616 0.3235 8.9216 0.0735 9.6216C-0.1765 10.3316 0.2035 11.0116 1.0335 11.6116L7.1035 15.9616L4.7235 23.0316C4.4035 24.0016 4.5135 24.7516 5.1135 25.1916C5.7235 25.6616 6.4635 25.5116 7.3035 24.9016L13.3235 20.4816L19.3435 24.9016C20.1535 25.5016 20.8435 25.6416 21.4235 25.2616C21.5635 25.1716 21.6735 25.0416 21.6535 24.7016Z" />
        </svg>
    