
        <svg xmlns="http://www.w3.org/2000/svg" viewBox="0 0 100 100">
            <path d="M12.1023 24.2147C18.7823 24.2147 24.2123 18.7847 24.2123 12.1047C24.2123 5.4247 18.7823 0.0047 12.1023 0.0047C5.4223 0.0047 0.0023 5.4247 0.0023 12.1047C0.0023 18.7847 5.4223 24.2147 12.1023 24.2147ZM6.5323 8.9847L6.6123 8.8347C6.9923 8.0747 7.3723 7.9847 8.1223 8.4147L10.8823 10.0347V6.8047C10.8823 5.9847 11.1723 5.7147 12.0323 5.7147H12.2123C13.0523 5.7147 13.3323 5.9847 13.3323 6.8047V10.0347L16.0923 8.4147C16.8523 7.9647 17.2223 8.0747 17.6023 8.8347L17.6923 8.9847C18.0923 9.7347 17.9923 10.1047 17.2823 10.4847L14.3923 12.0547L17.2923 13.7247C17.9723 14.1247 18.0623 14.4747 17.6823 15.2247L17.6023 15.3647C17.2023 16.1247 16.8523 16.2347 16.1123 15.7847L13.3323 14.1647V17.4047C13.3323 18.2347 13.0523 18.5047 12.2123 18.5047H12.0323C11.1723 18.5047 10.8823 18.2347 10.8823 17.4047V14.1647L8.1123 15.7847C7.4023 16.2047 7.0323 16.1147 6.6223 15.3647L6.5423 15.2247C6.1123 14.4847 6.2223 14.1347 6.9223 13.7247L9.8323 12.0547L6.9423 10.4847C6.2323 10.1047 6.1323 9.7347 6.5323 8.9847Z" />
        </svg>
    