
        <svg xmlns="http://www.w3.org/2000/svg" viewBox="0 0 100 100">
            <path d="M5.0573 24.9692C5.6073 25.3992 6.2873 25.2492 7.0873 24.6792L13.1773 20.1992L19.2773 24.6792C20.0673 25.2492 20.7673 25.3992 21.3173 24.9692C21.8573 24.5592 21.9673 23.8792 21.6573 22.9592L19.2473 15.7992L25.4073 11.3792C26.1873 10.8192 26.5273 10.1992 26.3073 9.5392C26.0873 8.8992 25.4673 8.5792 24.4873 8.5892L16.9473 8.6392L14.6473 1.4392C14.3573 0.4992 13.8773 -0.0008 13.1773 -0.0008C12.4973 -0.0008 12.0173 0.4992 11.7173 1.4392L9.4173 8.6392L1.8773 8.5892C0.8973 8.5792 0.2873 8.8992 0.0673 9.5392C-0.1527 10.1992 0.1773 10.8192 0.9673 11.3792L7.1273 15.7992L4.7073 22.9592C4.3973 23.8792 4.5073 24.5592 5.0573 24.9692ZM7.1073 22.1492C7.0973 22.1292 7.0973 22.1092 7.1073 22.0592L9.3373 15.7592C9.5373 15.1892 9.4673 14.8192 8.9373 14.4692L3.4273 10.6992C3.3873 10.6792 3.3573 10.6492 3.3773 10.6192C3.3973 10.5892 3.4173 10.5792 3.4773 10.5792L10.1473 10.7392C10.7573 10.7592 11.0573 10.5592 11.2373 9.9692L13.1273 3.5692C13.1373 3.4992 13.1573 3.4892 13.1773 3.4892C13.2173 3.4892 13.2273 3.4992 13.2473 3.5692L15.1273 9.9692C15.3073 10.5592 15.6173 10.7592 16.2173 10.7392L22.8873 10.5792C22.9573 10.5792 22.9773 10.5892 22.9873 10.6192C22.9973 10.6492 22.9873 10.6592 22.9273 10.6992L17.4373 14.4692C16.8973 14.8392 16.8273 15.1892 17.0273 15.7592L19.2473 22.0592C19.2773 22.1092 19.2773 22.1292 19.2473 22.1492C19.2273 22.1792 19.2073 22.1592 19.1573 22.1392L13.8773 18.0592C13.3973 17.6792 12.9673 17.6792 12.4973 18.0592L7.2173 22.1392C7.1673 22.1592 7.1373 22.1792 7.1073 22.1492Z" />
        </svg>
    