
        <svg xmlns="http://www.w3.org/2000/svg" viewBox="0 0 100 100">
            <path d="M19.7535 15.8116L25.6135 11.6116C26.4535 11.0116 26.8035 10.3316 26.5735 9.6216C26.3235 8.9216 25.6535 8.5616 24.6135 8.5816L17.1835 8.6416L14.9135 1.5216C14.5935 0.5316 14.0735 0.0016 13.3235 0.0016C12.5735 0.0016 12.0535 0.5316 11.7335 1.5216L10.2035 6.3016L12.0635 8.1416L13.2535 4.0416C13.2835 3.9716 13.2935 3.9616 13.3235 3.9616C13.3535 3.9616 13.3635 3.9716 13.3835 4.0416L15.1435 10.1416C15.3435 10.8116 15.6635 11.0116 16.3635 10.9816L22.7035 10.8016C22.7635 10.8016 22.7935 10.8116 22.8135 10.8416C22.8135 10.8716 22.7935 10.8916 22.7535 10.9216L18.0535 14.1216ZM23.5035 24.4116C23.8735 24.7716 24.4935 24.7816 24.8635 24.4116C25.2235 24.0316 25.2335 23.4416 24.8635 23.0616L5.3235 3.5616C4.9535 3.2016 4.3235 3.1916 3.9535 3.5616C3.5935 3.9216 3.5935 4.5616 3.9535 4.9216ZM5.1135 25.1916C5.7235 25.6616 6.4635 25.5116 7.3035 24.9016L13.3235 20.4816L19.3435 24.9016C20.1235 25.4816 20.8135 25.6416 21.4135 25.2616C21.5435 25.1916 21.6235 25.0816 21.7735 24.8816L13.8135 18.1316C13.3735 17.7516 12.9335 17.7816 12.4735 18.1416L7.5535 21.9716C7.5035 21.9916 7.4735 22.0216 7.4535 21.9916C7.4335 21.9716 7.4335 21.9616 7.4535 21.8916L9.6035 15.9116C9.8335 15.2716 9.7735 14.9016 9.1535 14.4916L3.9035 10.9216C3.8635 10.9016 3.8335 10.8716 3.8435 10.8416C3.8635 10.8116 3.8835 10.8016 3.9435 10.8016L7.7935 10.9016L5.5035 8.6016L2.0235 8.5816C1.0035 8.5816 0.3235 8.9216 0.0735 9.6216C-0.1765 10.3316 0.2035 11.0116 1.0335 11.6116L7.1035 15.9616L4.7235 23.0316C4.4035 24.0016 4.5135 24.7516 5.1135 25.1916Z" />
        </svg>
    