
        <svg xmlns="http://www.w3.org/2000/svg" viewBox="0 0 100 100">
            <path d="M11.3006 25.1769H11.8106C13.5606 25.1769 14.2406 24.6569 14.2406 22.8769V17.1169L19.1606 19.9669C19.7106 20.2569 20.1806 20.4569 20.5906 20.4569C21.2806 20.4569 21.7806 20.0169 22.3506 19.1269L22.6006 18.6769C22.9706 18.1069 23.1406 17.5969 23.1406 17.1769C23.1406 16.4369 22.6406 15.9269 21.7606 15.4469L16.6406 12.5169L21.7606 9.7069C22.6306 9.2269 23.1006 8.7069 23.1006 7.9969C23.1006 7.5569 22.9206 7.0769 22.5906 6.5069L22.3406 6.0569C21.7806 5.1369 21.2606 4.6669 20.5806 4.6669C20.1706 4.6669 19.6906 4.8669 19.1506 5.1569L14.2406 8.0369V2.2969C14.2406 0.5169 13.5606 -0.0031 11.8106 -0.0031H11.3006C9.5506 -0.0031 8.8706 0.5169 8.8706 2.2969V8.0169L3.9606 5.1669C3.4106 4.8469 2.9106 4.6369 2.4706 4.6369C1.7806 4.6369 1.2206 5.0969 0.7406 6.0569L0.4906 6.4969C0.2106 7.0669 0.0206 7.5569 0.0206 7.9769C0.0206 8.6969 0.4906 9.2269 1.3706 9.7069L6.4706 12.5169L1.3606 15.4469C0.4906 15.9269 0.0006 16.4369 0.0006 17.1469C0.0006 17.5669 0.2006 18.0669 0.5306 18.6569L0.7806 19.0869C1.3106 20.0069 1.8306 20.4769 2.5306 20.4769C2.9406 20.4769 3.4106 20.2769 3.9506 19.9669L8.8706 17.1169V22.8869C8.8706 24.6669 9.5506 25.1769 11.3006 25.1769Z" />
        </svg>
    