
        <svg xmlns="http://www.w3.org/2000/svg" viewBox="0 0 100 100">
            <path d="M5.289 25.9689C6.049 26.5589 6.999 26.3889 7.989 25.6489L13.749 21.4189L19.499 25.6489C20.509 26.3889 21.449 26.5589 22.219 25.9689C22.969 25.3989 23.129 24.4489 22.739 23.3089L20.449 16.5489L26.259 12.3989C27.259 11.6789 27.699 10.8289 27.399 9.9189C27.079 9.0089 26.239 8.5789 25.009 8.5889L17.909 8.6489L15.739 1.8389C15.359 0.6689 14.699 -0.0011 13.749 -0.0011C12.799 -0.0011 12.129 0.6689 11.749 1.8389L9.589 8.6489L2.469 8.5889C1.269 8.5789 0.409 9.0089 0.109 9.8989C-0.221 10.8289 0.239 11.6789 1.239 12.3989L7.039 16.5489L4.759 23.3089C4.369 24.4489 4.519 25.3989 5.289 25.9689ZM13.749 17.6789V5.5089C13.769 5.5089 13.779 5.5189 13.809 5.5789L15.189 10.6889C15.449 11.6589 15.769 11.8389 16.779 11.8089L22.079 11.5689C22.139 11.5689 22.159 11.5789 22.169 11.5989C22.169 11.6089 22.159 11.6389 22.109 11.6689L17.669 14.5989C16.769 15.1889 16.759 15.5289 17.089 16.4489L18.969 21.4189C18.989 21.4689 18.989 21.4889 18.959 21.4989C18.949 21.5289 18.929 21.5189 18.889 21.4889L14.739 18.1489C14.339 17.8389 14.039 17.6789 13.749 17.6789Z" />
        </svg>
    