
        <svg xmlns="http://www.w3.org/2000/svg" viewBox="0 0 100 100">
            <path d="M11.1023 24.5505H11.2523C12.8823 24.5505 13.5023 24.0305 13.5023 22.4205V16.2305L18.8423 19.3205C19.3623 19.5905 19.7723 19.7705 20.1423 19.7705C20.7923 19.7705 21.2323 19.3205 21.7723 18.5205L21.8523 18.3905C22.2023 17.8605 22.3823 17.3805 22.3823 16.9805C22.3823 16.3205 21.9223 15.8305 21.1123 15.3905L15.6123 12.2005L21.1023 9.1605C21.9223 8.7305 22.3523 8.2505 22.3523 7.5905C22.3523 7.1905 22.1723 6.7405 21.8823 6.2105L21.7923 6.0605C21.2723 5.2005 20.7923 4.7705 20.1523 4.7705C19.7823 4.7705 19.3523 4.9405 18.8323 5.2105L13.5023 8.3105V2.1305C13.5023 0.5205 12.8823 0.0005 11.2523 0.0005H11.1023C9.4723 0.0005 8.8523 0.5205 8.8523 2.1305V8.3005L3.5323 5.2105C3.0123 4.9205 2.5323 4.7305 2.1323 4.7305C1.4923 4.7305 0.9623 5.1805 0.5523 6.0805L0.4823 6.2105C0.2223 6.7505 0.0623 7.2205 0.0623 7.6205C0.0623 8.2405 0.4423 8.7205 1.2623 9.1805L6.7623 12.2005L1.2523 15.3905C0.4423 15.8305 0.0023 16.3105 0.0023 16.9605C0.0023 17.3505 0.1923 17.8405 0.4923 18.3705L0.5623 18.4805C1.0523 19.3405 1.5223 19.7805 2.1923 19.7805C2.5623 19.7805 3.0123 19.5905 3.5123 19.3205L8.8523 16.2405V22.4205C8.8523 24.0305 9.4723 24.5505 11.1023 24.5505Z" />
        </svg>
    