
        <svg xmlns="http://www.w3.org/2000/svg" viewBox="0 0 100 100">
            <path d="M11.4923 22.977C17.8123 22.977 22.9823 17.827 22.9823 11.497C22.9823 5.167 17.8123 -0.003 11.4923 -0.003C5.1723 -0.003 0.0023 5.167 0.0023 11.497C0.0023 17.827 5.1723 22.977 11.4923 22.977ZM7.8523 17.527C7.4723 17.817 7.0423 17.547 7.2023 17.047L8.5923 12.777L4.9423 10.167C4.5823 9.907 4.7323 9.347 5.2023 9.347L9.7023 9.367L11.0723 5.087C11.2123 4.657 11.7623 4.657 11.8923 5.087L13.2623 9.367L17.7623 9.347C18.2723 9.347 18.3423 9.937 18.0323 10.157L14.3923 12.777L15.7823 17.047C15.9523 17.547 15.5023 17.817 15.1123 17.527L11.4823 14.887Z" />
        </svg>
    