
        <svg xmlns="http://www.w3.org/2000/svg" viewBox="0 0 100 100">
            <path d="M12.1023 24.2064C18.7823 24.2064 24.2123 18.7864 24.2123 12.1064C24.2123 5.4264 18.7823 -0.0036 12.1023 -0.0036C5.4223 -0.0036 0.0023 5.4264 0.0023 12.1064C0.0023 18.7864 5.4223 24.2064 12.1023 24.2064ZM12.1023 21.8164C6.7223 21.8164 2.3823 17.4864 2.3823 12.1064C2.3823 6.7264 6.7223 2.3764 12.1023 2.3764C17.4823 2.3764 21.8323 6.7264 21.8323 12.1064C21.8323 17.4864 17.4823 21.8164 12.1023 21.8164ZM12.0923 19.0464C15.9223 19.0464 19.0323 15.9364 19.0323 12.1064C19.0323 8.2864 15.9223 5.1664 12.0923 5.1664C8.2723 5.1664 5.1723 8.2864 5.1723 12.1064C5.1723 15.9364 8.2723 19.0464 12.0923 19.0464ZM7.7223 9.1264C8.6723 7.7264 10.2623 6.7964 12.0823 6.7964C13.9123 6.7964 15.5023 7.7264 16.4423 9.1264C16.6923 9.4664 16.5823 9.8564 16.1723 9.8564H8.0123C7.6023 9.8564 7.4723 9.4664 7.7223 9.1264ZM12.0923 13.7764C11.3323 13.7764 10.7223 13.1764 10.7223 12.3964C10.7223 11.6364 11.3323 11.0264 12.0923 11.0264C12.8523 11.0264 13.4723 11.6364 13.4723 12.3964C13.4723 13.1764 12.8523 13.7764 12.0923 13.7764ZM6.9923 13.5264C6.8923 13.1364 7.0923 12.9764 7.3923 13.0164C9.1923 13.2264 10.5623 14.7864 10.5023 16.6064C10.5023 16.9264 10.2523 17.1064 9.9423 16.9664C8.4723 16.2964 7.3923 15.0464 6.9923 13.5264ZM17.1923 13.5264C16.7823 15.0464 15.7123 16.2964 14.2423 16.9664C13.9223 17.1064 13.6723 16.9264 13.6723 16.6064C13.6323 14.7864 14.9923 13.2264 16.7723 13.0164C17.0823 12.9764 17.2923 13.1364 17.1923 13.5264Z" />
        </svg>
    