
        <svg xmlns="http://www.w3.org/2000/svg" viewBox="0 0 100 100">
            <path d="M12.1017 24.2064C18.7817 24.2064 24.2117 18.7864 24.2117 12.1064C24.2117 5.4264 18.7817 -0.0036 12.1017 -0.0036C5.4217 -0.0036 0.0017 5.4264 0.0017 12.1064C0.0017 18.7864 5.4217 24.2064 12.1017 24.2064ZM4.0417 6.5864C5.7617 3.9864 8.7317 2.3064 12.0817 2.3064C15.4317 2.3064 18.4017 3.9864 20.1317 6.5764C20.6017 7.2164 20.3817 7.9364 19.6217 7.9364H4.5617C3.8117 7.9364 3.5817 7.2164 4.0417 6.5864ZM29.6517 14.6564C30.3517 14.6564 30.8217 14.2064 30.8417 13.4764L31.1017 5.6364C31.1217 4.7664 30.5517 4.1964 29.6517 4.1964C28.7317 4.1964 28.1617 4.7664 28.1917 5.6364L28.4417 13.4864C28.4717 14.2064 28.9417 14.6564 29.6517 14.6564ZM12.0917 15.1664C10.7017 15.1664 9.5817 14.0464 9.5817 12.6564C9.5817 11.2764 10.7017 10.1764 12.0917 10.1764C13.4717 10.1764 14.5917 11.2764 14.5917 12.6564C14.5917 14.0464 13.4717 15.1664 12.0917 15.1664ZM2.6717 14.7264C2.4817 14.0364 2.8617 13.7364 3.4417 13.8164C6.7117 14.2164 9.2317 17.0764 9.1417 20.4364C9.1417 21.0164 8.7117 21.3764 8.1217 21.0864C5.4117 19.8664 3.4317 17.5564 2.6717 14.7264ZM21.5117 14.7264C20.7517 17.5564 18.7717 19.8664 16.0617 21.0864C15.4817 21.3764 15.0517 21.0164 15.0517 20.4364C14.9517 17.0864 17.4617 14.2164 20.7417 13.8164C21.3317 13.7364 21.7017 14.0364 21.5117 14.7264ZM29.6517 19.9964C30.6017 19.9964 31.3517 19.2764 31.3517 18.3764C31.3517 17.4764 30.6117 16.7564 29.6517 16.7564C28.6917 16.7564 27.9417 17.4764 27.9417 18.3764C27.9417 19.2764 28.7017 19.9964 29.6517 19.9964Z" />
        </svg>
    