
        <svg xmlns="http://www.w3.org/2000/svg" viewBox="0 0 100 100">
            <path d="M11.7523 23.5048C14.3623 23.5048 16.7923 22.6148 18.7423 21.1548V19.2148C17.8523 20.0648 16.8023 20.7348 15.6423 21.2148C15.1023 21.4448 14.7223 21.1448 14.7023 20.6148C14.5523 18.6548 15.3323 16.8248 16.6323 15.5148C16.4623 15.0248 16.3723 14.5048 16.3723 13.9548C16.3723 11.2048 18.6023 8.9448 21.4023 8.9448C22.0523 8.9448 22.6723 9.0748 23.2423 9.2948C22.0923 4.0148 17.3423 0.0048 11.7423 0.0048C5.3123 0.0048 0.0023 5.3048 0.0023 11.7548C0.0023 18.1848 5.3123 23.5048 11.7523 23.5048ZM2.9223 6.7348C4.5923 3.6448 7.9223 1.5148 11.7323 1.5148C15.5523 1.5148 18.8823 3.6448 20.5523 6.7248C20.9023 7.2648 20.7223 7.8348 20.1123 7.8348H3.3623C2.7623 7.8348 2.5623 7.2648 2.9223 6.7348ZM11.7323 15.0748C10.3323 15.0748 9.2023 13.9448 9.2023 12.5248C9.2023 11.1348 10.3323 10.0048 11.7323 10.0048C13.1523 10.0048 14.2723 11.1348 14.2723 12.5248C14.2723 13.9448 13.1523 15.0748 11.7323 15.0748ZM21.4123 10.3148C19.3623 10.3148 17.7423 11.9548 17.7423 13.9548C17.7423 15.5348 18.6723 16.8748 20.1023 17.4248V23.1948C20.1023 23.3248 20.1523 23.4248 20.2523 23.5448L21.2223 24.5048C21.3323 24.6048 21.4523 24.6248 21.5823 24.5048L23.4223 22.6648C23.5323 22.5548 23.5323 22.4248 23.4223 22.3148L22.2423 21.1448L23.8623 19.5548C23.9623 19.4648 23.9623 19.3248 23.8323 19.1948L22.2323 17.6048C24.0423 16.8748 25.0623 15.5748 25.0623 13.9548C25.0623 11.9548 23.4423 10.3148 21.4123 10.3148ZM21.4023 11.9848C22.0223 11.9848 22.5223 12.5048 22.5223 13.1248C22.5223 13.7548 22.0223 14.2648 21.4023 14.2648C20.7823 14.2648 20.2623 13.7548 20.2623 13.1248C20.2623 12.5048 20.7623 11.9848 21.4023 11.9848ZM1.8323 14.2748C1.6723 13.6948 1.9723 13.3948 2.4923 13.4448C6.1623 13.6948 9.0323 16.9248 8.7823 20.6148C8.7623 21.1448 8.3823 21.4448 7.8423 21.2148C4.8523 19.9648 2.6123 17.4148 1.8323 14.2748Z" />
        </svg>
    