
        <svg xmlns="http://www.w3.org/2000/svg" viewBox="0 0 100 100">
            <path d="M11.7523 23.5048C18.2423 23.5048 23.5123 18.2448 23.5123 11.7548C23.5123 5.2648 18.2423 0.0048 11.7523 0.0048C5.2623 0.0048 0.0023 5.2648 0.0023 11.7548C0.0023 18.2448 5.2623 23.5048 11.7523 23.5048ZM11.7523 21.9848C6.0923 21.9848 1.5223 17.4148 1.5223 11.7548C1.5223 6.0948 6.0923 1.5148 11.7523 1.5148C17.4123 1.5148 21.9923 6.0948 21.9923 11.7548C21.9923 17.4148 17.4123 21.9848 11.7523 21.9848ZM11.7423 18.6648C15.5623 18.6648 18.6723 15.5748 18.6723 11.7548C18.6723 7.9348 15.5623 4.8248 11.7423 4.8248C7.9223 4.8248 4.8323 7.9348 4.8323 11.7548C4.8323 15.5748 7.9223 18.6648 11.7423 18.6648ZM6.8123 8.9448C7.7623 7.2148 9.6123 6.0248 11.7423 6.0248C13.8723 6.0248 15.7223 7.2148 16.6623 8.9448C16.8623 9.2448 16.7623 9.5548 16.4323 9.5548H7.0523C6.7223 9.5548 6.6223 9.2448 6.8123 8.9448ZM11.7423 13.6048C10.9523 13.6048 10.3323 12.9848 10.3323 12.1848C10.3323 11.4048 10.9523 10.7648 11.7423 10.7648C12.5423 10.7648 13.1723 11.4048 13.1723 12.1848C13.1723 12.9848 12.5423 13.6048 11.7423 13.6048ZM6.2023 13.1748C6.1023 12.8348 6.2823 12.6648 6.5623 12.7048C8.6223 12.8448 10.2323 14.6348 10.0923 16.6948C10.0823 16.9948 9.8523 17.1648 9.5623 17.0348C7.8823 16.3448 6.6423 14.9148 6.2023 13.1748ZM17.2823 13.1748C16.8523 14.9148 15.6023 16.3448 13.9323 17.0348C13.6323 17.1648 13.4023 16.9948 13.3923 16.6948C13.2623 14.6448 14.8623 12.8448 16.9123 12.7048C17.2023 12.6648 17.3823 12.8348 17.2823 13.1748Z" />
        </svg>
    