
        <svg xmlns="http://www.w3.org/2000/svg" viewBox="0 0 100 100">
            <path d="M12.3723 24.7659C19.2023 24.7659 24.7523 19.2159 24.7523 12.3759C24.7523 5.5459 19.2023 -0.0041 12.3723 -0.0041C5.5423 -0.0041 0.0023 5.5459 0.0023 12.3759C0.0023 19.2159 5.5423 24.7659 12.3723 24.7659ZM4.6323 6.8559C6.3523 4.3959 9.1923 2.8559 12.3523 2.8559C15.5123 2.8559 18.3523 4.3959 20.0823 6.8459C20.5323 7.4659 20.3323 8.1059 19.6323 8.1059H5.0823C4.3923 8.1059 4.1823 7.4659 4.6323 6.8559ZM34.8823 11.5359L29.2723 8.2159C28.5723 7.8059 27.7423 8.1659 27.7423 8.9659V15.7859C27.7423 16.6059 28.5723 16.9659 29.2723 16.5459L34.8823 13.2459C35.5623 12.8459 35.5423 11.9159 34.8823 11.5359ZM12.3623 15.2059C11.0723 15.2059 10.0323 14.1759 10.0323 12.8759C10.0323 11.6059 11.0723 10.5659 12.3623 10.5659C13.6423 10.5659 14.6823 11.6059 14.6823 12.8759C14.6823 14.1759 13.6423 15.2059 12.3623 15.2059ZM3.2723 15.0259C3.1023 14.4059 3.4123 14.1259 3.9623 14.2059C7.0923 14.6259 9.4523 17.3559 9.4023 20.5559C9.4023 21.0959 9.0123 21.3959 8.4923 21.1259C5.8923 19.9359 4.0123 17.7259 3.2723 15.0259ZM21.4523 15.0259C20.7023 17.7259 18.8223 19.9359 16.2323 21.1259C15.7023 21.3959 15.3123 21.0959 15.3123 20.5559C15.2723 17.3559 17.6323 14.6259 20.7623 14.2059C21.3123 14.1259 21.6223 14.4059 21.4523 15.0259Z" />
        </svg>
    