
        <svg xmlns="http://www.w3.org/2000/svg" viewBox="0 0 100 100">
            <path d="M13.1917 23.0995C19.5717 23.0995 24.7517 17.9295 24.7517 11.5595C24.7517 5.1795 19.5717 -0.0005 13.1917 -0.0005C6.8217 -0.0005 1.6517 5.1795 1.6517 11.5595C1.6517 17.9295 6.8217 23.0995 13.1917 23.0995ZM6.3117 6.4895C7.8917 4.3195 10.4017 3.0095 13.1717 3.0095C15.9417 3.0095 18.4617 4.3195 20.0517 6.4695C20.4417 7.0295 20.2717 7.5695 19.6617 7.5695H6.6917C6.0917 7.5695 5.9317 7.0295 6.3117 6.4895ZM13.1817 13.9795C12.0817 13.9795 11.1817 13.0895 11.1817 11.9695C11.1817 10.8795 12.0817 9.9795 13.1817 9.9795C14.2817 9.9795 15.1917 10.8795 15.1917 11.9695C15.1917 13.0895 14.2817 13.9795 13.1817 13.9795ZM21.2917 13.9895C20.6217 16.3795 18.9617 18.3395 16.6617 19.4295C16.2317 19.6395 15.9017 19.4095 15.9017 18.9495C15.8817 16.1295 17.9517 13.7095 20.7317 13.2995C21.2017 13.2295 21.4417 13.4695 21.2917 13.9895ZM5.0717 13.9895C4.9317 13.4695 5.1717 13.2295 5.6517 13.2995C8.4117 13.7095 10.4917 16.1295 10.4617 18.9495C10.4617 19.4095 10.1417 19.6395 9.7117 19.4295C7.4017 18.3395 5.7417 16.3795 5.0717 13.9895ZM13.1917 30.1295C16.8417 30.1295 17.2517 27.6795 18.9217 27.6795C20.6017 27.6795 20.8717 30.1295 24.9117 30.1295H25.0117C25.7817 30.1295 26.4017 29.5195 26.4017 28.7495C26.4017 27.9795 25.7817 27.3595 25.0117 27.3595H24.9117C24.0017 27.3595 23.3517 27.0195 22.3217 26.2895C21.5417 25.7095 20.4417 24.9095 18.9217 24.9095C17.3917 24.9095 16.2917 25.7195 15.5017 26.2995C14.6617 26.9195 14.1017 27.3595 13.1917 27.3595C12.3017 27.3595 11.7317 26.9195 10.9017 26.2995C10.1117 25.7195 9.0017 24.9095 7.4717 24.9095C5.9617 24.9095 4.8617 25.7095 4.0817 26.2895C3.0317 27.0195 2.4017 27.3595 1.4917 27.3595H1.3817C0.6217 27.3595 0.0017 27.9795 0.0017 28.7495C0.0017 29.5195 0.6217 30.1295 1.3817 30.1295H1.4917C5.5317 30.1295 5.7917 27.6795 7.4717 27.6795C9.1517 27.6795 9.5617 30.1295 13.1917 30.1295Z" />
        </svg>
    