
        <svg xmlns="http://www.w3.org/2000/svg" viewBox="0 0 100 100">
            <path d="M17.6323 5.5866C17.6323 4.2866 16.2823 3.3966 16.2823 2.0466C16.2823 1.4566 16.4523 1.0566 16.8723 0.4666C17.1223 0.1266 16.6923 -0.2034 16.4023 0.1466C15.8923 0.8066 15.6923 1.3366 15.6923 2.0566C15.6923 3.4366 17.0523 4.5666 17.0523 5.5866C17.0523 6.5366 15.6923 7.7466 15.6923 9.0566C15.6923 9.8266 15.8923 10.3666 16.3823 10.9766C16.6323 11.2866 17.0823 10.9666 16.8323 10.6266C16.4523 10.1266 16.2823 9.7166 16.2823 9.0566C16.2823 7.7766 17.6323 6.9266 17.6323 5.5866ZM20.7623 5.5866C20.7623 4.2866 19.4023 3.3966 19.4023 2.0466C19.4023 1.4566 19.5923 1.0566 20.0023 0.4666C20.2623 0.1266 19.8123 -0.2034 19.5323 0.1466C19.0223 0.8066 18.8223 1.3366 18.8223 2.0566C18.8223 3.4366 20.1823 4.5666 20.1823 5.5866C20.1823 6.5366 18.8223 7.7466 18.8223 9.0566C18.8223 9.8266 19.0223 10.3666 19.5123 10.9766C19.7623 11.2866 20.2123 10.9666 19.9523 10.6266C19.5923 10.1266 19.4023 9.7166 19.4023 9.0566C19.4023 7.7766 20.7623 6.9266 20.7623 5.5866ZM23.9023 5.5866C23.9023 4.2866 22.5323 3.3966 22.5323 2.0466C22.5323 1.4566 22.7223 1.0566 23.1423 0.4666C23.3923 0.1266 22.9423 -0.2034 22.6723 0.1466C22.1523 0.8066 21.9523 1.3366 21.9523 2.0566C21.9523 3.4366 23.3223 4.5666 23.3223 5.5866C23.3223 6.5366 21.9523 7.7466 21.9523 9.0566C21.9523 9.8266 22.1523 10.3666 22.6423 10.9766C22.8823 11.2866 23.3423 10.9666 23.1023 10.6266C22.7223 10.1266 22.5323 9.7166 22.5323 9.0566C22.5323 7.7766 23.9023 6.9266 23.9023 5.5866ZM11.3523 23.8066C17.6023 23.8066 22.7123 18.7066 22.7123 12.4566C22.7123 12.3966 22.7123 12.3666 22.7123 12.3066C21.9623 12.2566 21.5623 11.8266 21.3823 11.3266C21.1623 11.8966 20.5123 12.3066 19.7923 12.3066C18.9123 12.3066 18.4223 11.8966 18.2623 11.3266C17.8223 11.9966 17.3223 12.3066 16.5823 12.3066C15.2623 12.3066 14.4923 10.7066 14.5123 9.3366C14.5123 9.2066 14.5223 9.0666 14.5223 8.9366H1.5923C1.3523 8.9366 1.2323 8.7166 1.3523 8.4466C2.9223 4.4966 6.8323 1.6766 11.3523 1.6766C12.4423 1.6766 13.5123 1.8366 14.4923 2.1466C14.5123 1.9466 14.4923 1.7466 14.5123 1.5466C13.5123 1.2566 12.4523 1.0966 11.3523 1.0966C5.1123 1.0966 0.0023 6.2066 0.0023 12.4566C0.0023 18.7066 5.1123 23.8066 11.3523 23.8066ZM11.3423 16.0366C10.0323 16.0366 8.9523 14.9766 8.9523 13.6266C8.9523 12.3066 10.0323 11.2366 11.3423 11.2366C12.6923 11.2366 13.7623 12.3066 13.7623 13.6266C13.7623 14.9766 12.6923 16.0366 11.3423 16.0366ZM0.8223 14.7966C0.7523 14.4966 0.8323 14.2466 1.2023 14.2466C5.4723 14.2466 8.8923 18.0366 8.3623 22.1866C8.3323 22.5666 8.0823 22.7366 7.7323 22.6066C4.2923 21.3766 1.6523 18.4366 0.8223 14.7966ZM21.8923 14.7966C21.0723 18.4366 18.4223 21.3766 14.9923 22.6066C14.6223 22.7366 14.3823 22.5666 14.3523 22.1866C13.8323 18.0766 17.2023 14.2466 21.5023 14.2466C21.8823 14.2466 21.9623 14.4966 21.8923 14.7966Z" />
        </svg>
    