
        <svg xmlns="http://www.w3.org/2000/svg" viewBox="0 0 100 100">
            <path d="M16.3817 0.0048C12.2617 0.0048 8.5817 2.1948 6.4817 5.4648C6.8117 5.9148 7.5417 6.0548 7.9517 5.9648C9.4617 3.5748 12.6317 1.5148 16.3717 1.5148C20.3317 1.5148 23.6317 3.9148 24.8117 5.9748C25.2717 6.0848 25.9717 5.8748 26.2717 5.4648C24.1817 2.1748 20.5117 0.0048 16.3817 0.0048ZM9.8617 5.8148C8.9417 5.8148 8.5117 7.0348 7.6417 7.0348C6.4717 7.0348 5.2417 6.0548 5.2417 5.3948C5.2417 5.2248 5.3117 5.0248 5.3117 4.9348C5.3117 4.7648 5.1917 4.6748 4.9917 4.6748C3.8917 4.6748 1.6817 5.3448 1.7217 6.9048C1.4217 7.0548 0.8117 7.4448 0.8117 8.3648C0.8117 9.9448 1.4117 10.1148 1.4117 14.2948C1.4117 15.7748 0.8117 17.0748 0.2517 17.9148C-1.1683 20.0948 3.8917 23.0148 5.4617 19.7248L6.3417 17.8548C7.3417 15.7348 8.9517 13.7648 9.6217 12.8948C10.2817 12.0048 11.2517 7.4148 11.2517 6.8648C11.2517 6.3248 10.8217 5.8148 9.8617 5.8148ZM22.8917 5.8148C21.9417 5.8148 21.4917 6.3248 21.4917 6.8648C21.4917 7.4148 22.4617 12.0048 23.1317 12.8948C23.8017 13.7648 25.4217 15.7348 26.4117 17.8548L27.2917 19.7248C28.8517 23.0148 33.9317 20.0948 32.5017 17.9148C31.9317 17.0748 31.3517 15.7748 31.3517 14.2948C31.3517 10.1148 31.9517 9.9448 31.9517 8.3648C31.9517 7.4448 31.3217 7.0548 31.0317 6.9048C31.0817 5.3448 28.8617 4.6748 27.7517 4.6748C27.5517 4.6748 27.4317 4.7648 27.4317 4.9348C27.4317 5.0248 27.5017 5.2248 27.5017 5.3948C27.5017 6.0548 26.2717 7.0348 25.1017 7.0348C24.2317 7.0348 23.8017 5.8148 22.8917 5.8148ZM16.3817 23.5048C20.1717 23.5048 23.5717 21.6648 25.7217 18.8548L25.4617 18.3048C25.3117 17.9848 25.1417 17.6848 24.9317 17.3748C23.8117 19.0548 22.2117 20.4048 20.2717 21.2148C19.7317 21.4448 19.3517 21.1448 19.3417 20.6148C19.1617 17.9548 20.6117 15.5148 22.8217 14.2748C22.6217 13.9848 22.4317 13.7248 22.2917 13.5248C21.6217 12.6248 20.8217 9.4148 20.5517 7.8348H12.2017C11.9417 9.4148 11.1317 12.6248 10.4517 13.5248C10.3117 13.7248 10.1417 13.9648 9.9317 14.2748C12.1417 15.5048 13.5917 17.9248 13.4217 20.6148C13.4117 21.1448 13.0217 21.4448 12.4817 21.2148C10.5617 20.4048 8.9517 19.0648 7.8417 17.3648C7.6317 17.6848 7.4417 17.9848 7.2917 18.3048L7.0317 18.8348C9.1917 21.6648 12.6017 23.5048 16.3817 23.5048ZM16.3717 15.0748C14.9617 15.0748 13.8417 13.9448 13.8417 12.5248C13.8417 11.1348 14.9617 10.0048 16.3717 10.0048C17.7817 10.0048 18.9117 11.1348 18.9117 12.5248C18.9117 13.9448 17.7817 15.0748 16.3717 15.0748Z" />
        </svg>
    