
        <svg xmlns="http://www.w3.org/2000/svg" viewBox="0 0 100 100">
            <path d="M15.9776 -0.003C11.9376 -0.003 8.3576 2.137 6.3176 5.307C6.4976 5.527 6.9676 5.637 7.1776 5.577C8.9876 2.857 12.2476 0.887 15.9676 0.887C19.7676 0.887 23.0676 2.967 24.7576 5.577C24.9776 5.637 25.4276 5.547 25.6476 5.317C23.5976 2.117 20.0276 -0.003 15.9776 -0.003ZM9.3576 5.507C8.4976 5.507 7.9776 6.537 7.0276 6.537C5.9776 6.537 5.0576 5.787 5.0576 5.137C5.0576 4.957 5.1276 4.757 5.1276 4.677C5.1276 4.547 5.0476 4.467 4.8776 4.467C3.7576 4.467 1.5676 5.137 1.6376 6.677C1.3576 6.817 0.7376 7.187 0.7376 8.107C0.7376 9.647 1.3376 9.807 1.3376 14.037C1.3376 15.527 0.7876 16.837 0.2176 17.697C-1.0924 19.667 3.8276 22.507 5.2876 19.437L6.1576 17.577C7.1576 15.447 8.5776 13.367 9.2276 12.507C9.8976 11.617 10.7076 7.047 10.7076 6.507C10.7076 5.987 10.2876 5.507 9.3576 5.507ZM22.5876 5.507C21.6776 5.507 21.2576 5.987 21.2576 6.507C21.2576 7.047 22.0676 11.617 22.7176 12.507C23.3876 13.367 24.7976 15.447 25.7976 17.577L26.6776 19.437C28.1376 22.507 33.0576 19.667 31.7476 17.697C31.1776 16.837 30.6276 15.527 30.6276 14.037C30.6276 9.807 31.2276 9.647 31.2276 8.107C31.2276 7.187 30.6076 6.817 30.3176 6.677C30.3976 5.137 28.2076 4.467 27.0876 4.467C26.9176 4.467 26.8376 4.547 26.8376 4.677C26.8376 4.757 26.9076 4.957 26.9076 5.137C26.9076 5.787 25.9876 6.537 24.9376 6.537C23.9876 6.537 23.4676 5.507 22.5876 5.507ZM15.9776 22.977C19.6976 22.977 23.0376 21.177 25.1476 18.407L24.9476 17.987C24.8676 17.827 24.7976 17.667 24.6876 17.517C23.4676 19.267 21.7376 20.637 19.6976 21.407C19.2776 21.577 18.9776 21.367 18.9576 20.927C18.6576 18.067 20.2376 15.397 22.6576 14.087C22.3876 13.667 22.1476 13.317 21.9676 13.067C21.3476 12.247 20.7376 9.497 20.4676 7.837H11.4976C11.2276 9.497 10.6176 12.247 9.9976 13.067C9.8076 13.317 9.5676 13.657 9.2876 14.097C11.7176 15.387 13.3076 18.047 12.9976 20.927C12.9676 21.367 12.6776 21.577 12.2576 21.407C10.2176 20.637 8.4976 19.277 7.2776 17.517C7.1776 17.687 7.0976 17.837 7.0176 17.987L6.8176 18.407C8.9176 21.187 12.2576 22.977 15.9776 22.977ZM15.9676 14.987C14.6276 14.987 13.5376 13.907 13.5376 12.537C13.5376 11.177 14.6276 10.097 15.9676 10.097C17.3276 10.097 18.4176 11.177 18.4176 12.537C18.4176 13.907 17.3276 14.987 15.9676 14.987Z" />
        </svg>
    