
        <svg xmlns="http://www.w3.org/2000/svg" viewBox="0 0 100 100">
            <path d="M3.7337 7.1179L2.3337 6.4179C3.8037 3.8779 5.9837 1.8279 8.6437 0.5279C8.7937 0.4579 8.8537 0.2879 8.7837 0.1479C8.7137 0.0079 8.5437 -0.0421 8.3937 0.0279C5.6637 1.3779 3.3637 3.5279 1.8437 6.1579L0.4637 5.4579C0.1437 5.2979 -0.0263 5.5479 0.0037 5.8479L0.2937 8.9379C0.3337 9.2479 0.5637 9.3579 0.8437 9.2079L3.6537 7.7179C3.9937 7.5279 4.0237 7.2779 3.7337 7.1179ZM26.5937 7.1179C26.2937 7.2779 26.3237 7.5279 26.6637 7.7179L29.4737 9.2079C29.7437 9.3579 29.9937 9.2479 30.0137 8.9379L30.3237 5.8479C30.3437 5.5479 30.1637 5.2979 29.8637 5.4579L28.4837 6.1579C26.9537 3.5279 24.6637 1.3779 21.9337 0.0279C21.7637 -0.0421 21.6137 0.0079 21.5437 0.1479C21.4737 0.2879 21.5237 0.4579 21.6837 0.5279C24.3337 1.8279 26.5237 3.8779 27.9937 6.4179ZM15.1537 25.1879C21.4337 25.1879 26.5137 20.1079 26.5137 13.8379C26.5137 7.5579 21.4337 2.4779 15.1537 2.4779C8.8837 2.4779 3.8037 7.5579 3.8037 13.8379C3.8037 20.1079 8.8837 25.1879 15.1537 25.1879ZM5.1537 9.8279C6.7237 5.8779 10.6337 3.0579 15.1537 3.0579C19.6837 3.0579 23.6037 5.8779 25.1637 9.8279C25.2837 10.0979 25.1637 10.3179 24.9137 10.3179H5.3937C5.1537 10.3179 5.0337 10.0979 5.1537 9.8279ZM15.1437 17.4179C13.8337 17.4179 12.7537 16.3579 12.7537 15.0079C12.7537 13.6879 13.8337 12.6179 15.1437 12.6179C16.4937 12.6179 17.5637 13.6879 17.5637 15.0079C17.5637 16.3579 16.4937 17.4179 15.1437 17.4179ZM4.6337 16.1779C4.5537 15.8779 4.6337 15.6279 5.0037 15.6279C9.2737 15.6279 12.6937 19.4179 12.1637 23.5679C12.1337 23.9479 11.8837 24.1179 11.5337 23.9879C8.0937 22.7579 5.4537 19.8179 4.6337 16.1779ZM25.6937 16.1779C24.8737 19.8179 22.2237 22.7579 18.7937 23.9879C18.4337 24.1179 18.1837 23.9479 18.1537 23.5679C17.6437 19.4579 21.0037 15.6279 25.3137 15.6279C25.6837 15.6279 25.7637 15.8779 25.6937 16.1779Z" />
        </svg>
    