
        <svg xmlns="http://www.w3.org/2000/svg" viewBox="0 0 100 100">
            <path d="M1.2631 20.8123H15.2031C15.7931 20.8123 16.2631 20.4423 16.2631 19.8423C16.2631 19.2023 15.7631 18.8323 15.2031 18.8323H3.8331V18.7623C5.7531 18.1023 6.7531 15.9223 6.7531 13.7423C6.7531 12.8223 6.6231 12.0623 6.4431 11.3523H12.6831C13.2031 11.3523 13.6131 11.0023 13.6131 10.4723C13.6131 9.9523 13.2031 9.6123 12.6831 9.6123H5.9631C5.7231 8.7223 5.4931 7.7123 5.4931 6.4723C5.4931 3.6023 7.6831 2.0423 10.7031 2.0423C11.6731 2.0423 12.7131 2.1823 13.5031 2.4423C13.8031 2.5223 14.0531 2.5623 14.2731 2.5623C14.8431 2.5623 15.1831 2.2423 15.1831 1.6723C15.1831 1.1023 14.7931 0.8123 14.2631 0.5723C13.0431 0.0923 11.7731 0.0023 10.5131 0.0023C6.2831 0.0023 3.1131 2.2823 3.1131 6.6223C3.1131 7.5723 3.3031 8.4823 3.5931 9.6123H1.0231C0.4931 9.6123 0.0831 9.9523 0.0831 10.4723C0.0831 11.0223 0.5131 11.3523 1.0231 11.3523H4.0431C4.3431 12.4023 4.4531 13.1323 4.4531 13.8423C4.4531 16.0423 3.2331 17.9623 0.9631 18.6223C0.3831 18.8123 0.0031 19.1523 0.0031 19.8023C0.0031 20.4223 0.4931 20.8123 1.2631 20.8123Z" />
        </svg>
    