
        <svg xmlns="http://www.w3.org/2000/svg" viewBox="0 0 100 100">
            <path d="M12.2223 24.4436C18.9723 24.4436 24.4423 18.9736 24.4423 12.2236C24.4423 5.4836 18.9723 0.0036 12.2223 0.0036C5.4823 0.0036 0.0023 5.4836 0.0023 12.2236C0.0023 18.9736 5.4823 24.4436 12.2223 24.4436ZM8.4723 17.5736C8.0123 17.5736 7.6623 17.2636 7.6623 16.7736C7.6623 16.3336 7.9723 16.0536 8.3423 15.8636C9.2623 15.4536 9.7623 14.6436 9.7623 13.6336C9.7623 13.3436 9.7123 13.0636 9.6323 12.7536H8.1823C7.8323 12.7536 7.5923 12.5236 7.5923 12.2136C7.5923 11.8936 7.8323 11.6636 8.1823 11.6636H9.3723C9.2223 11.1236 9.1423 10.6636 9.1423 10.2036C9.1423 8.0036 10.9223 6.8436 13.2023 6.8436C14.0023 6.8436 14.4923 6.9036 15.0923 7.1036C15.5523 7.2336 15.9223 7.4636 15.9223 7.9536C15.9223 8.3536 15.6523 8.6036 15.2323 8.6036C15.0723 8.6036 14.8623 8.5636 14.6723 8.5336C14.3623 8.4636 13.9423 8.4036 13.4923 8.4036C12.0723 8.4036 11.0723 9.0836 11.0723 10.3436C11.0723 10.7336 11.1223 11.0736 11.2723 11.6636H14.4423C14.7923 11.6636 15.0423 11.8936 15.0423 12.2136C15.0423 12.5236 14.8023 12.7536 14.4423 12.7536H11.5523C11.6023 12.9836 11.6223 13.2536 11.6223 13.5536C11.6223 14.5436 11.2423 15.5436 10.3623 15.9336V15.9936H15.4223C15.8823 15.9936 16.2623 16.2936 16.2623 16.7836C16.2623 17.2636 15.9123 17.5736 15.4223 17.5736Z" />
        </svg>
    