
        <svg xmlns="http://www.w3.org/2000/svg" viewBox="0 0 100 100">
            <path d="M3.1617 20.742H17.5917C19.6617 20.742 20.7417 19.642 20.7417 17.592V3.152C20.7417 1.102 19.6617 0.002 17.5917 0.002H3.1617C1.0917 0.002 0.0017 1.082 0.0017 3.152V17.592C0.0017 19.662 1.0917 20.742 3.1617 20.742ZM6.7017 15.222C6.4917 15.222 6.3517 15.082 6.3517 14.872C6.3517 14.692 6.4917 14.532 6.6817 14.462C7.8417 14.172 8.5617 13.242 8.5617 12.042C8.5617 11.552 8.4617 11.102 8.3317 10.622H6.8117C6.6317 10.622 6.4917 10.492 6.4917 10.312C6.4917 10.152 6.6317 10.022 6.8117 10.022H8.1517C7.9917 9.472 7.8717 8.942 7.8717 8.352C7.8717 6.412 9.2617 5.282 11.3217 5.282C11.9617 5.282 12.6117 5.382 13.1617 5.622C13.4317 5.742 13.5317 5.832 13.5317 6.012C13.5317 6.212 13.4317 6.332 13.2317 6.332C13.1217 6.332 13.0117 6.292 12.8517 6.232C12.4017 6.072 11.9617 5.992 11.3917 5.992C9.5817 5.992 8.6917 7.012 8.6917 8.322C8.6917 8.972 8.8217 9.472 8.9917 10.022H12.4217C12.6117 10.022 12.7517 10.132 12.7517 10.312C12.7517 10.492 12.6217 10.622 12.4217 10.622H9.1517C9.2817 11.032 9.3517 11.452 9.3517 12.012C9.3517 13.022 8.8217 14.242 7.8017 14.462V14.542H13.6617C13.8617 14.542 14.0317 14.672 14.0317 14.872C14.0317 15.102 13.8617 15.222 13.6617 15.222Z" />
        </svg>
    