
        <svg xmlns="http://www.w3.org/2000/svg" viewBox="0 0 100 100">
            <path d="M12.6023 28.0563C19.5223 28.0563 25.2023 22.3863 25.2023 15.4563C25.2023 12.9163 24.4323 10.5363 23.1223 8.5463L24.1323 7.5463C24.5123 7.1763 24.7023 6.7862 24.7023 6.3263C24.7023 5.4262 24.0023 4.7263 23.1023 4.7263C22.5723 4.7263 22.1923 4.8762 21.8223 5.2263L20.9623 6.0463C19.1223 4.4163 16.8123 3.3062 14.2623 2.9662V1.6563C14.2623 0.7063 13.5223 -0.0038 12.6123 -0.0038C11.7223 -0.0038 10.9423 0.7063 10.9423 1.6563V2.9662C4.7923 3.7862 0.0023 9.0963 0.0023 15.4563C0.0023 22.3863 5.6723 28.0563 12.6023 28.0563ZM12.6023 24.3962C7.6523 24.3962 3.6523 20.4063 3.6523 15.4563C3.6523 10.4963 7.6523 6.5162 12.6023 6.5162C17.5423 6.5162 21.5423 10.4963 21.5423 15.4563C21.5523 20.4063 17.5523 24.3962 12.6023 24.3962ZM12.6023 17.8863C13.9323 17.8863 15.0223 16.7963 15.0223 15.4563C15.0223 14.6063 14.5823 13.8563 13.9023 13.4163V9.2363C13.9023 8.5063 13.3223 7.9462 12.6023 7.9462C11.8723 7.9462 11.2923 8.5063 11.2923 9.2363V13.4163C10.6123 13.8563 10.1723 14.6063 10.1723 15.4563C10.1723 16.7963 11.2623 17.8863 12.6023 17.8863Z" />
        </svg>
    