
        <svg xmlns="http://www.w3.org/2000/svg" viewBox="0 0 100 100">
            <path d="M12.7923 25.5978C19.8723 25.5978 25.6023 19.8678 25.6023 12.7978C25.6023 5.7278 19.8723 -0.0022 12.7923 -0.0022C5.7323 -0.0022 0.0023 5.7278 0.0023 12.7978C0.0023 19.8678 5.7323 25.5978 12.7923 25.5978ZM12.7923 21.4178C8.0323 21.4178 4.1723 17.5678 4.1723 12.7978C4.1723 8.0278 8.0323 4.1678 12.7923 4.1678C17.5623 4.1678 21.4323 8.0278 21.4323 12.7978C21.4323 17.5678 17.5623 21.4178 12.7923 21.4178ZM9.9523 17.0178H15.6323C16.4623 17.0178 17.0323 16.5078 17.0323 15.7478V9.8278C17.0323 9.0678 16.4623 8.5678 15.6323 8.5678H9.9523C9.1123 8.5678 8.5623 9.0678 8.5623 9.8278V15.7478C8.5623 16.5078 9.1123 17.0178 9.9523 17.0178Z" />
        </svg>
    