
        <svg xmlns="http://www.w3.org/2000/svg" viewBox="0 0 100 100">
            <path d="M4.4017 24.6056H21.7217C23.2817 24.6056 24.1617 23.7456 24.1617 22.2056V12.9356C25.3517 12.3156 26.1317 11.0956 26.1317 9.6356V9.4756C26.1317 9.1356 26.0517 8.8256 25.8917 8.5356L22.7617 2.9756V2.1056C22.7617 0.7656 21.9617 -0.0044 20.6017 -0.0044H5.5317C4.1717 -0.0044 3.3917 0.7656 3.3917 2.1056V2.9756L0.2617 8.5356C0.0817 8.8256 0.0017 9.1356 0.0017 9.4756V9.6356C0.0017 11.0956 0.7817 12.3156 1.9817 12.9356V22.2056C1.9817 23.7556 2.8517 24.6056 4.4017 24.6056ZM4.7617 2.5756V2.3356C4.7617 1.7156 5.1017 1.3756 5.7117 1.3756H20.4417C21.0517 1.3756 21.3717 1.7156 21.3717 2.3356V2.5756ZM1.5717 8.9556L4.3217 3.9456H21.7517L24.5517 8.9556ZM1.3717 10.2456H6.1417C5.9417 11.2756 5.1117 12.0556 3.7617 12.0556C2.4017 12.0556 1.5717 11.2756 1.3717 10.2456ZM7.5817 10.2456H12.3517C12.1517 11.2756 11.3217 12.0556 9.9617 12.0556C8.6017 12.0556 7.7717 11.2756 7.5817 10.2456ZM13.7917 10.2456H18.5617C18.3617 11.2756 17.5317 12.0556 16.1717 12.0556C14.8117 12.0556 13.9917 11.2756 13.7917 10.2456ZM19.9917 10.2456H24.7617C24.5617 11.2756 23.7417 12.0556 22.3817 12.0556C21.0217 12.0556 20.1917 11.2756 19.9917 10.2456ZM3.7617 13.3556C5.1117 13.3556 6.2317 12.7056 6.8717 11.6756C7.4717 12.7056 8.6117 13.3556 9.9617 13.3556C11.3217 13.3556 12.4417 12.6956 13.0617 11.6556C13.6917 12.6956 14.8117 13.3556 16.1717 13.3556C17.5317 13.3556 18.6517 12.7056 19.2817 11.6756C19.9017 12.7056 21.0317 13.3556 22.3817 13.3556C22.4917 13.3556 22.6017 13.3456 22.7117 13.3456V21.8556C22.7117 22.7356 22.2917 23.1556 21.4217 23.1556H12.1917V16.4056C12.1917 15.9156 11.8717 15.5956 11.3817 15.5956H6.3717C5.8817 15.5956 5.5617 15.9156 5.5617 16.4056V23.1556H4.7117C3.8517 23.1556 3.4217 22.7356 3.4217 21.8556V13.3456C3.5417 13.3456 3.6417 13.3556 3.7617 13.3556ZM14.3317 15.7356V18.9756C14.3317 19.4656 14.6617 19.7856 15.1417 19.7856H20.0117C20.5117 19.7856 20.8217 19.4656 20.8217 18.9756V15.7356C20.8217 15.2456 20.5117 14.9256 20.0117 14.9256H15.1417C14.6617 14.9256 14.3317 15.2456 14.3317 15.7356Z" />
        </svg>
    