
        <svg xmlns="http://www.w3.org/2000/svg" viewBox="0 0 100 100">
            <path d="M3.3017 3.2797H24.9717V3.1797C24.9717 1.2697 23.6817 -0.0003 21.7417 -0.0003H6.5417C4.5917 -0.0003 3.3017 1.2697 3.3017 3.1797ZM0.2817 9.1497H27.9917C27.9517 9.0397 27.8817 8.9197 27.8117 8.7997L25.4217 4.9897H2.8617L0.4717 8.7997C0.4017 8.9197 0.3317 9.0397 0.2817 9.1497ZM4.3317 15.0697C5.6517 15.0697 6.8217 14.4997 7.6017 13.5697C8.3917 14.4997 9.5617 15.0697 10.8717 15.0697C12.1917 15.0697 13.3617 14.4997 14.1517 13.5697C14.9317 14.4997 16.1017 15.0697 17.4117 15.0697C18.7217 15.0697 19.9017 14.4997 20.6817 13.5797C21.4717 14.4997 22.6417 15.0697 23.9517 15.0697C26.3517 15.0697 28.2817 13.1397 28.2817 10.9497V10.8497H0.0017V11.0197C0.0017 13.2097 1.9317 15.0697 4.3317 15.0697ZM5.2517 27.9297H23.0617C25.1817 27.9297 26.4617 26.6697 26.4617 24.6597V16.2297C25.7017 16.5797 24.8517 16.7797 23.9617 16.7797C22.7617 16.7797 21.6217 16.4197 20.6917 15.7997C19.7717 16.4197 18.6417 16.7797 17.4217 16.7797C16.2217 16.7797 15.0917 16.4197 14.1717 15.7897C13.2317 16.4197 12.1017 16.7797 10.8917 16.7797C9.6817 16.7797 8.5517 16.4197 7.6217 15.7897C6.6817 16.4197 5.5517 16.7797 4.3517 16.7797C3.4617 16.7797 2.6117 16.5897 1.8517 16.2397V24.6597C1.8517 26.6697 3.1317 27.9297 5.2517 27.9297ZM16.9017 23.4997C16.3217 23.4997 15.9517 23.1297 15.9517 22.5597V19.2297C15.9517 18.6597 16.3217 18.2797 16.9017 18.2797H21.5817C22.1617 18.2797 22.5317 18.6597 22.5317 19.2297V22.5597C22.5317 23.1297 22.1617 23.4997 21.5817 23.4997ZM6.9117 25.1497V20.1997C6.9117 19.6397 7.3017 19.2697 7.8717 19.2697H12.5517C13.1217 19.2697 13.4917 19.6397 13.4917 20.1997V25.1497Z" />
        </svg>
    