
        <svg xmlns="http://www.w3.org/2000/svg" viewBox="0 0 100 100">
            <path d="M12.1023 24.2064C18.7823 24.2064 24.2123 18.7864 24.2123 12.1064C24.2123 5.4264 18.7823 -0.0036 12.1023 -0.0036C5.4223 -0.0036 0.0023 5.4264 0.0023 12.1064C0.0023 18.7864 5.4223 24.2064 12.1023 24.2064ZM5.4423 9.3864L7.1823 6.1964C7.4723 5.6864 7.9923 5.3764 8.5923 5.3764H15.5423C16.1323 5.3764 16.6523 5.6864 16.9423 6.1964L18.7023 9.3864ZM7.3523 12.0564C6.2223 12.0564 5.3323 11.2764 5.3323 10.4264V10.2264H18.8123V10.3364C18.8123 11.1764 17.9023 12.0564 16.7923 12.0564C16.1323 12.0564 15.5723 11.7664 15.2123 11.2864C14.8623 11.7664 14.2923 12.0564 13.6323 12.0564C12.9723 12.0564 12.4323 11.7564 12.0723 11.2864C11.7023 11.7564 11.1523 12.0564 10.5023 12.0564C9.8323 12.0564 9.2723 11.7664 8.9223 11.2864C8.5623 11.7664 7.9923 12.0564 7.3523 12.0564ZM7.5423 18.8364C6.6423 18.8364 6.1123 18.3064 6.1123 17.4264V12.6364C6.4923 12.8064 6.9123 12.9264 7.3723 12.9264C7.9723 12.9264 8.5123 12.7164 8.9523 12.3864C9.3823 12.7164 9.9223 12.9264 10.5323 12.9264C11.1123 12.9264 11.6723 12.7164 12.0923 12.3864C12.5323 12.7164 13.0823 12.9264 13.6623 12.9264C14.2623 12.9264 14.8123 12.7164 15.2423 12.3864C15.6823 12.7164 16.2223 12.9264 16.8123 12.9264C17.2723 12.9264 17.7023 12.7864 18.0723 12.6064V17.4264C18.0723 18.3064 17.5423 18.8364 16.6423 18.8364ZM9.8223 17.5764H14.3623V14.5564C14.3623 14.2864 14.1923 14.0964 13.9123 14.0964H10.2923C10.0123 14.0964 9.8223 14.2864 9.8223 14.5564Z" />
        </svg>
    