
        <svg xmlns="http://www.w3.org/2000/svg" viewBox="0 0 100 100">
            <path d="M5.6817 28.6195H23.5417C25.8117 28.6195 27.1717 27.2595 27.1717 25.1395V15.5295C28.4217 14.7195 29.2217 13.3195 29.2217 11.7395V11.2895C29.2217 10.6295 29.0517 9.9995 28.7017 9.4295L25.7117 4.5895V3.4195C25.7117 1.3695 24.3017 -0.0005 22.2317 -0.0005H6.9917C4.9217 -0.0005 3.5117 1.3695 3.5117 3.4195V4.5895L0.5317 9.4295C0.1717 9.9995 0.0017 10.6295 0.0017 11.2895V11.7395C0.0017 13.3195 0.8117 14.7195 2.0517 15.5295V25.1395C2.0517 27.2595 3.4117 28.6195 5.6817 28.6195ZM7.2517 4.0095V3.6895C7.2517 3.4095 7.4717 3.1895 7.7617 3.1895H21.4717C21.7517 3.1895 21.9717 3.4095 21.9717 3.6895V4.0095ZM4.4017 10.2895L6.0617 7.4695H23.1517L24.8217 10.2895ZM2.7817 12.9095H6.2317C5.9017 13.4695 5.3317 13.7595 4.5117 13.7595C3.6817 13.7595 3.1017 13.4695 2.7817 12.9095ZM9.5117 12.9095H12.9717C12.6517 13.4695 12.0817 13.7595 11.2517 13.7595C10.4217 13.7595 9.8417 13.4695 9.5117 12.9095ZM16.2617 12.9095H19.7217C19.3917 13.4695 18.8217 13.7595 17.9917 13.7595C17.1517 13.7595 16.5817 13.4695 16.2617 12.9095ZM22.9917 12.9095H26.4517C26.1217 13.4695 25.5517 13.7595 24.7117 13.7595C23.8817 13.7595 23.3217 13.4695 22.9917 12.9095ZM14.1117 19.1395C14.1117 18.5495 13.7317 18.1795 13.1517 18.1795H8.4117C7.8317 18.1795 7.4417 18.5495 7.4417 19.1395V24.4595H7.2317C6.5817 24.4595 6.2117 24.0795 6.2117 23.4395V15.9295C6.8517 15.6595 7.4317 15.2495 7.8917 14.7295C8.7117 15.6695 9.9117 16.2495 11.2517 16.2495C12.5817 16.2495 13.7917 15.6695 14.6217 14.7295C15.4417 15.6695 16.6517 16.2495 17.9917 16.2495C19.3317 16.2495 20.5317 15.6695 21.3517 14.7395C21.8117 15.2595 22.3717 15.6595 23.0117 15.9295V23.4395C23.0117 24.0795 22.6417 24.4595 21.9917 24.4595H14.1117ZM15.4617 18.5395V21.9095C15.4617 22.4995 15.8417 22.8795 16.4317 22.8795H21.0917C21.6817 22.8795 22.0517 22.4995 22.0517 21.9095V18.5395C22.0517 17.9495 21.6817 17.5795 21.0917 17.5795H16.4317C15.8417 17.5795 15.4617 17.9495 15.4617 18.5395Z" />
        </svg>
    