
        <svg xmlns="http://www.w3.org/2000/svg" viewBox="0 0 100 100">
            <path d="M12.1023 24.2064C18.7823 24.2064 24.2123 18.7864 24.2123 12.1064C24.2123 5.4264 18.7823 -0.0036 12.1023 -0.0036C5.4223 -0.0036 0.0023 5.4264 0.0023 12.1064C0.0023 18.7864 5.4223 24.2064 12.1023 24.2064ZM12.1023 21.8164C6.7223 21.8164 2.3823 17.4864 2.3823 12.1064C2.3823 6.7264 6.7223 2.3764 12.1023 2.3764C17.4823 2.3764 21.8323 6.7264 21.8323 12.1064C21.8323 17.4864 17.4823 21.8164 12.1023 21.8164ZM5.6723 9.4964H18.4423L16.7423 6.4264C16.4723 5.9164 15.9823 5.6364 15.4123 5.6364H8.6923C8.1323 5.6364 7.6323 5.9164 7.3623 6.4264ZM7.5023 12.0564C8.1323 12.0564 8.6823 11.7764 9.0223 11.3164C9.3623 11.7764 9.9123 12.0564 10.5423 12.0564C11.1723 12.0564 11.7023 11.7764 12.0623 11.3164C12.4023 11.7764 12.9423 12.0564 13.5723 12.0564C14.2023 12.0564 14.7523 11.7764 15.0823 11.3164C15.4323 11.7764 15.9823 12.0564 16.6023 12.0564C17.6823 12.0564 18.5523 11.2164 18.5523 10.3964V10.2964H5.5623V10.4964C5.5623 11.3064 6.4323 12.0564 7.5023 12.0564ZM7.7023 18.5764H16.4623C17.3323 18.5764 17.8323 18.0864 17.8323 17.2364V12.5864C17.4823 12.7664 17.0723 12.8764 16.6423 12.8764C16.0523 12.8764 15.5423 12.6864 15.1123 12.3764C14.6923 12.6864 14.1723 12.8764 13.5923 12.8764C13.0323 12.8764 12.5023 12.6864 12.0823 12.3764C11.6723 12.6864 11.1423 12.8764 10.5823 12.8764C9.9923 12.8764 9.4723 12.6864 9.0623 12.3764C8.6223 12.6864 8.1123 12.8764 7.5323 12.8764C7.0923 12.8764 6.6923 12.7864 6.3323 12.6064V17.2364C6.3323 18.0864 6.8323 18.5764 7.7023 18.5764ZM9.8923 17.3764V14.4564C9.8923 14.1864 10.0823 14.0164 10.3523 14.0164H13.8423C14.1023 14.0164 14.2723 14.1864 14.2723 14.4564V17.3764Z" />
        </svg>
    