
        <svg xmlns="http://www.w3.org/2000/svg" viewBox="0 0 100 100">
            <path d="M11.7523 23.5048C18.2323 23.5048 23.5123 18.2348 23.5123 11.7548C23.5123 5.2748 18.2323 0.0048 11.7523 0.0048C5.2723 0.0048 0.0023 5.2748 0.0023 11.7548C0.0023 18.2348 5.2723 23.5048 11.7523 23.5048ZM4.9223 9.2448L6.7523 5.7648C6.9823 5.3248 7.4223 5.0648 7.9323 5.0648H15.4323C15.9423 5.0648 16.3823 5.3248 16.6123 5.7648L18.4423 9.2448ZM6.7723 11.7548C5.6723 11.7548 4.7923 11.0048 4.7923 10.1348V9.9748H18.5623V10.0548C18.5623 10.9348 17.6923 11.7548 16.5923 11.7548C15.8823 11.7548 15.2823 11.4048 14.9623 10.8348C14.6323 11.4048 14.0523 11.7548 13.3123 11.7548C12.6023 11.7548 12.0123 11.3948 11.6823 10.8348C11.3523 11.3948 10.7723 11.7548 10.0423 11.7548C9.3123 11.7548 8.7323 11.4048 8.4123 10.8348C8.0823 11.4048 7.4923 11.7548 6.7723 11.7548ZM7.0423 18.4448C6.2123 18.4448 5.7323 17.9748 5.7323 17.1448V12.2648C6.0623 12.4148 6.4423 12.4948 6.8423 12.4948C7.4723 12.4948 8.0523 12.2648 8.4923 11.9048C8.9023 12.2648 9.4823 12.4948 10.1223 12.4948C10.7623 12.4948 11.3323 12.2648 11.7623 11.8948C12.1923 12.2648 12.7623 12.4948 13.3923 12.4948C14.0423 12.4948 14.6023 12.2648 15.0323 11.9048C15.4723 12.2648 16.0423 12.4948 16.6723 12.4948C17.0723 12.4948 17.4623 12.3848 17.7923 12.2448V17.1448C17.7923 17.9648 17.3123 18.4448 16.4723 18.4448ZM9.5023 17.4248H14.0123V14.0948C14.0123 13.8348 13.8523 13.6648 13.5923 13.6648H9.9423C9.6823 13.6648 9.5023 13.8348 9.5023 14.0948Z" />
        </svg>
    