
        <svg xmlns="http://www.w3.org/2000/svg" viewBox="0 0 100 100">
            <path d="M4.9817 26.6234H22.6717C24.5417 26.6234 25.6417 25.5434 25.6417 23.7434V14.2134C26.8517 13.5034 27.6517 12.1634 27.6517 10.6434V10.3634C27.6517 9.8434 27.5317 9.3634 27.2617 8.9034L24.1917 3.7534V2.7234C24.1917 1.0534 23.1117 0.0034 21.4217 0.0034H6.2417C4.5517 0.0034 3.4817 1.0534 3.4817 2.7234V3.7534L0.4117 8.9034C0.1417 9.3534 0.0017 9.8434 0.0017 10.3634V10.6434C0.0017 12.1634 0.8117 13.5034 2.0317 14.2134V23.7434C2.0317 25.5434 3.1217 26.6234 4.9817 26.6234ZM5.8717 3.3134V3.0234C5.8717 2.5334 6.1717 2.2234 6.6517 2.2234H21.0017C21.4917 2.2234 21.8017 2.5334 21.8017 3.0234V3.3134ZM2.7917 9.5734L5.0417 5.6234H22.5517L24.8517 9.5734ZM2.0817 11.5334H6.2717C5.9917 12.3534 5.2617 12.8834 4.1717 12.8834C3.0917 12.8834 2.3517 12.3534 2.0817 11.5334ZM8.5217 11.5334H12.7017C12.4217 12.3534 11.6917 12.8834 10.6217 12.8834C9.5317 12.8834 8.8017 12.3534 8.5217 11.5334ZM14.9617 11.5334H19.1517C18.8717 12.3534 18.1417 12.8834 17.0517 12.8834C15.9717 12.8834 15.2417 12.3534 14.9617 11.5334ZM21.4017 11.5334H25.5817C25.3017 12.3534 24.5717 12.8834 23.4817 12.8834C22.4017 12.8834 21.6817 12.3534 21.4017 11.5334ZM13.0317 17.8334C13.0317 17.2834 12.6717 16.9334 12.1217 16.9334H7.2317C6.6717 16.9334 6.3017 17.2834 6.3017 17.8334V24.0134H5.7517C5.0317 24.0134 4.6417 23.6034 4.6417 22.8834V14.7734C5.7617 14.6634 6.7417 14.0934 7.3917 13.2634C8.1417 14.2134 9.2917 14.8034 10.6217 14.8034C11.9317 14.8034 13.0917 14.2034 13.8417 13.2634C14.5817 14.2034 15.7417 14.8034 17.0517 14.8034C18.3717 14.8034 19.5217 14.2134 20.2717 13.2634C20.9317 14.0934 21.9017 14.6634 23.0317 14.7734V22.8834C23.0317 23.6034 22.6317 24.0134 21.9117 24.0134H13.0317ZM14.9617 17.2134V20.5534C14.9617 21.1034 15.3317 21.4734 15.8817 21.4734H20.6117C21.1617 21.4734 21.5317 21.1034 21.5317 20.5534V17.2134C21.5317 16.6634 21.1617 16.3134 20.6117 16.3134H15.8817C15.3317 16.3134 14.9617 16.6634 14.9617 17.2134Z" />
        </svg>
    