
        <svg xmlns="http://www.w3.org/2000/svg" viewBox="0 0 100 100">
            <path d="M3.0017 22.0048C3.4217 22.0048 3.7217 21.7048 3.7217 21.2848V20.0048H18.3517V21.2848C18.3517 21.7048 18.6517 22.0048 19.0817 22.0048C19.5017 22.0048 19.8017 21.7048 19.8017 21.2848V20.0048C21.1717 19.8948 22.0817 18.9048 22.0817 17.4348V2.5748C22.0817 1.0348 21.0817 0.0048 19.5717 0.0048H2.5117C0.9917 0.0048 0.0017 1.0348 0.0017 2.5748V17.4348C0.0017 18.9048 0.9017 19.8948 2.2717 20.0048V21.2848C2.2717 21.7048 2.5617 22.0048 3.0017 22.0048ZM1.4517 2.6248C1.4517 1.9248 1.8717 1.4548 2.5117 1.4548H19.5717C20.2017 1.4548 20.6217 1.9248 20.6217 2.6248V5.9548H1.4517ZM4.9417 4.8148C5.5517 4.8148 6.0617 4.3348 6.0617 3.7248C6.0617 3.1048 5.5517 2.6148 4.9417 2.6148C4.3217 2.6148 3.8317 3.1048 3.8317 3.7248C3.8317 4.3348 4.3217 4.8148 4.9417 4.8148ZM8.9917 4.8148C9.6117 4.8148 10.1017 4.3348 10.1017 3.7248C10.1017 3.1048 9.6117 2.6148 8.9917 2.6148C8.3817 2.6148 7.8717 3.1048 7.8717 3.7248C7.8717 4.3348 8.3817 4.8148 8.9917 4.8148ZM13.0317 4.8148C13.6417 4.8148 14.1417 4.3348 14.1417 3.7248C14.1417 3.1048 13.6417 2.6148 13.0317 2.6148C12.4117 2.6148 11.9217 3.1048 11.9217 3.7248C11.9217 4.3348 12.4117 4.8148 13.0317 4.8148ZM17.0717 4.8148C17.6917 4.8148 18.1917 4.3348 18.1917 3.7248C18.1917 3.1048 17.6917 2.6148 17.0717 2.6148C16.4617 2.6148 15.9617 3.1048 15.9617 3.7248C15.9617 4.3348 16.4617 4.8148 17.0717 4.8148ZM2.5117 18.5648C1.8717 18.5648 1.4517 18.0948 1.4517 17.3948V7.1748H20.6217V17.3948C20.6217 18.0948 20.2017 18.5648 19.5717 18.5648ZM4.2217 17.0348H17.8617C18.5517 17.0348 18.9917 16.5948 18.9917 15.8948V9.8448C18.9917 9.1548 18.5517 8.6948 17.8617 8.6948H4.2217C3.5317 8.6948 3.0817 9.1548 3.0817 9.8448V15.8948C3.0817 16.5948 3.5317 17.0348 4.2217 17.0348ZM4.5617 15.9748C4.3117 15.9748 4.1517 15.8048 4.1517 15.5548V10.1848C4.1517 9.9248 4.3117 9.7648 4.5617 9.7648H17.5217C17.7617 9.7648 17.9317 9.9248 17.9317 10.1848V15.5548C17.9317 15.8048 17.7617 15.9748 17.5217 15.9748Z" />
        </svg>
    