
        <svg xmlns="http://www.w3.org/2000/svg" viewBox="0 0 100 100">
            <path d="M2.0017 18.2253H2.0117V19.6953C2.0117 19.8653 2.1417 19.9953 2.3017 19.9953C2.4617 19.9953 2.5917 19.8653 2.5917 19.6953V18.2253H17.6517V19.6953C17.6517 19.8653 17.7817 19.9953 17.9317 19.9953C18.0917 19.9953 18.2217 19.8653 18.2217 19.6953V18.2253C19.4317 18.2253 20.2217 17.3453 20.2217 16.0153V2.2053C20.2217 0.8753 19.4317 -0.0047 18.2217 -0.0047H2.0017C0.8017 -0.0047 0.0017 0.8753 0.0017 2.2053V16.0153C0.0017 17.3453 0.8017 18.2253 2.0017 18.2253ZM0.5717 2.1753C0.5717 1.2053 1.1417 0.5753 1.9817 0.5753H18.2617C19.1017 0.5753 19.6517 1.2053 19.6517 2.1753V5.5353H0.5717ZM4.0117 4.1153C4.5817 4.1153 5.0117 3.6753 5.0117 3.1253C5.0117 2.5653 4.5817 2.1353 4.0117 2.1353C3.4417 2.1353 3.0117 2.5653 3.0117 3.1253C3.0117 3.6753 3.4417 4.1153 4.0117 4.1153ZM8.0417 4.1153C8.6017 4.1153 9.0317 3.6753 9.0317 3.1253C9.0317 2.5653 8.6017 2.1353 8.0417 2.1353C7.4617 2.1353 7.0317 2.5653 7.0317 3.1253C7.0317 3.6753 7.4617 4.1153 8.0417 4.1153ZM12.0517 4.1153C12.6117 4.1153 13.0417 3.6753 13.0417 3.1253C13.0417 2.5653 12.6117 2.1353 12.0517 2.1353C11.4717 2.1353 11.0417 2.5653 11.0417 3.1253C11.0417 3.6753 11.4717 4.1153 12.0517 4.1153ZM16.0617 4.1153C16.6317 4.1153 17.0617 3.6753 17.0617 3.1253C17.0617 2.5653 16.6317 2.1353 16.0617 2.1353C15.5017 2.1353 15.0717 2.5653 15.0717 3.1253C15.0717 3.6753 15.5017 4.1153 16.0617 4.1153ZM1.9817 17.6453C1.1417 17.6453 0.5717 17.0153 0.5717 16.0453V6.1053H19.6517V16.0453C19.6517 17.0153 19.1017 17.6453 18.2617 17.6453ZM3.4917 15.8453H16.7217C17.4717 15.8453 17.9317 15.3653 17.9317 14.6153V9.1453C17.9317 8.3953 17.4717 7.9053 16.7217 7.9053H3.4917C2.7417 7.9053 2.2817 8.3953 2.2817 9.1453V14.6153C2.2817 15.3653 2.7417 15.8453 3.4917 15.8453ZM3.4817 15.2553C3.1017 15.2553 2.8717 15.0153 2.8717 14.6253V9.1253C2.8717 8.7453 3.1017 8.4953 3.4817 8.4953H16.7317C17.1117 8.4953 17.3517 8.7453 17.3517 9.1253V14.6253C17.3517 15.0153 17.1117 15.2553 16.7317 15.2553Z" />
        </svg>
    