
        <svg xmlns="http://www.w3.org/2000/svg" viewBox="0 0 100 100">
            <path d="M5.5617 22.7734C6.9717 22.7734 8.1017 21.7334 8.2417 20.3834H16.3017C16.4417 21.7334 17.5617 22.7734 18.9717 22.7734C20.4717 22.7734 21.6517 21.5934 21.6517 20.0834C21.6517 18.5734 20.4717 17.4034 18.9717 17.4034C18.4617 17.4034 17.9917 17.5434 17.5817 17.7734L14.3217 14.5234H16.2417C19.4517 14.5234 21.5017 12.0234 21.5017 7.9734C21.5017 3.7234 19.3017 0.0034 13.8517 0.0034C13.1417 0.0034 12.7217 0.3634 12.7217 1.0034V7.9834H7.7717L2.8917 3.1134C2.7117 2.9434 2.6417 2.8934 2.3817 2.8934H0.2917C0.1317 2.8934 0.0017 3.0234 0.0017 3.1834C0.0017 3.3434 0.1317 3.4734 0.2917 3.4734H2.4217L6.9417 7.9834H2.7617C2.6017 7.9834 2.4717 8.1134 2.4717 8.2734C2.4717 8.4234 2.6017 8.5634 2.7617 8.5634H3.3617L3.8817 11.2034C4.2817 13.3234 5.9917 14.5234 8.6517 14.5234H10.2217L6.9617 17.7734C6.5517 17.5434 6.0817 17.4034 5.5617 17.4034C4.0617 17.4034 2.8917 18.5834 2.8917 20.0834C2.8917 21.5834 4.0617 22.7734 5.5617 22.7734ZM13.3117 1.0734C13.3117 0.7634 13.5017 0.5834 13.8317 0.5834C18.3517 0.5834 20.9317 3.2734 20.9317 7.9734V7.9834H13.3117ZM8.6517 13.9334C6.3117 13.9334 4.8117 12.9234 4.4517 11.1134L3.9517 8.5634H20.9017C20.7317 11.8934 18.9717 13.9334 16.2417 13.9334ZM8.2417 19.7934C8.1717 19.1634 7.9017 18.6134 7.4717 18.1834L11.1417 14.5234H13.3917L17.0617 18.1834C16.6417 18.5934 16.3717 19.1634 16.3017 19.7934ZM5.5617 22.1834C4.3917 22.1834 3.4717 21.2534 3.4717 20.0834C3.4717 18.9134 4.3917 17.9834 5.5617 17.9834C6.7417 17.9834 7.6617 18.9134 7.6617 20.0834C7.6617 21.2534 6.7417 22.1834 5.5617 22.1834ZM18.9717 22.1834C17.8017 22.1834 16.8717 21.2534 16.8717 20.0834C16.8717 18.9134 17.8017 17.9834 18.9717 17.9834C20.1417 17.9834 21.0717 18.9134 21.0717 20.0834C21.0717 21.2534 20.1417 22.1834 18.9717 22.1834Z" />
        </svg>
    