
        <svg xmlns="http://www.w3.org/2000/svg" viewBox="0 0 100 100">
            <path d="M13.5017 7.9313H24.4917C23.9917 4.0813 20.7217 0.0012 15.1417 0.0012C14.1717 0.0012 13.5017 0.7013 13.5017 1.7013ZM7.1617 25.7113C8.7517 25.7113 10.0517 24.6613 10.4417 23.1913H18.3917C18.7717 24.5412 20.0017 25.5113 21.4717 25.5113C23.2417 25.5113 24.6717 24.0813 24.6717 22.3013C24.6717 20.5313 23.2417 19.1013 21.4717 19.1013C20.9917 19.1013 20.5317 19.2113 20.1217 19.3913L17.8317 17.1112H18.1217C22.9117 17.1112 24.2717 14.1213 24.5117 11.3013H24.7817C25.3117 11.3013 25.7317 10.8713 25.7317 10.3513C25.7317 9.8212 25.3117 9.4012 24.7817 9.4012H10.1217L4.5917 3.8813C4.3017 3.5813 3.9717 3.4413 3.5717 3.4413H1.0117C0.4617 3.4413 0.0017 3.9112 0.0017 4.4613C0.0017 5.0113 0.4617 5.4712 1.0117 5.4712H3.3517L7.2817 9.4012H3.9617C3.4317 9.4012 3.0117 9.8212 3.0117 10.3513C3.0117 10.8713 3.4317 11.3013 3.9617 11.3013H4.2917L4.7217 13.0913C5.3317 15.5513 7.2817 17.1112 10.6517 17.1112H10.7917L8.6517 19.2413C8.2017 19.0313 7.7017 18.9013 7.1617 18.9013C5.2517 18.9013 3.7517 20.4013 3.7517 22.3013C3.7517 24.2113 5.2517 25.7113 7.1617 25.7113ZM10.4417 21.4113C10.3717 21.1413 10.2617 20.8713 10.1217 20.6413L13.6517 17.1112H14.9717L18.6417 20.7813C18.5417 20.9813 18.4617 21.1913 18.3917 21.4113ZM7.1617 24.0613C6.1717 24.0613 5.4017 23.2813 5.4017 22.3013C5.4017 21.3313 6.1717 20.5513 7.1617 20.5513C8.1317 20.5513 8.9017 21.3313 8.9017 22.3013C8.9017 23.2813 8.1317 24.0613 7.1617 24.0613ZM21.4717 24.0613C20.4917 24.0613 19.7117 23.2813 19.7117 22.3013C19.7117 21.3313 20.4917 20.5513 21.4717 20.5513C22.4517 20.5513 23.2117 21.3313 23.2117 22.3013C23.2117 23.2813 22.4517 24.0613 21.4717 24.0613Z" />
        </svg>
    