
        <svg xmlns="http://www.w3.org/2000/svg" viewBox="0 0 100 100">
            <path d="M13.8417 8.1683H25.7117C24.9817 4.0283 21.6217 -0.0017 15.9217 -0.0017C14.7117 -0.0017 13.8417 0.9183 13.8417 2.1183ZM7.9417 26.5883C9.5017 26.5883 10.8317 25.6183 11.3417 24.2383H19.0617C19.5817 25.5683 20.8717 26.5183 22.3817 26.5183C24.3417 26.5183 25.9317 24.9283 25.9317 22.9583C25.9317 20.9983 24.3417 19.4083 22.3817 19.4083C21.9917 19.4083 21.6217 19.4783 21.2717 19.5983L19.7717 18.0783C23.8517 17.7783 25.2517 15.1383 25.6717 12.5583H26.0317C26.7817 12.5583 27.3917 11.9483 27.3917 11.1983C27.3917 10.4483 26.7817 9.8583 26.0317 9.8583H11.5217L5.3817 3.7183C4.9917 3.3383 4.5617 3.1683 4.0617 3.1683H1.4317C0.6417 3.1683 0.0017 3.8083 0.0017 4.5983C0.0017 5.3683 0.6417 6.0083 1.4317 6.0083H3.6717L7.5117 9.8583H4.3717C3.6217 9.8583 3.0117 10.4483 3.0117 11.1983C3.0117 11.9483 3.6217 12.5583 4.3717 12.5583H4.8317L5.1017 13.7483C5.6017 16.2083 7.4917 17.8083 10.5617 18.0783L9.1217 19.5383C8.7517 19.4083 8.3517 19.3383 7.9417 19.3383C5.9317 19.3383 4.3117 20.9483 4.3117 22.9583C4.3117 24.9683 5.9317 26.5883 7.9417 26.5883ZM11.3317 21.6683C11.3017 21.5883 11.2617 21.5083 11.2217 21.4383L14.5417 18.1183H15.7817L19.1517 21.4883C19.1217 21.5483 19.1017 21.6083 19.0617 21.6683ZM7.9417 24.5783C7.0317 24.5783 6.3317 23.8683 6.3317 22.9583C6.3317 22.0583 7.0317 21.3483 7.9417 21.3483C8.8517 21.3483 9.5517 22.0583 9.5517 22.9583C9.5517 23.8683 8.8517 24.5783 7.9417 24.5783ZM22.3817 24.5783C21.4817 24.5783 20.7617 23.8683 20.7617 22.9583C20.7617 22.0583 21.4817 21.3483 22.3817 21.3483C23.2817 21.3483 23.9917 22.0583 23.9917 22.9583C23.9917 23.8683 23.2817 24.5783 22.3817 24.5783Z" />
        </svg>
    