
        <svg xmlns="http://www.w3.org/2000/svg" viewBox="0 0 100 100">
            <path d="M0.0023 14.0169C0.0023 17.0969 2.1123 19.1269 5.0323 19.1269C6.2823 19.1269 7.4323 18.7469 8.3123 18.1169C7.8123 19.2669 7.0423 20.0969 6.5323 20.7069C5.7023 21.7069 6.0923 23.0969 7.5323 23.0969H14.9523C16.3923 23.0969 16.7823 21.7069 15.9623 20.7069C15.4523 20.1169 14.7223 19.2569 14.2623 18.1669C15.1323 18.7769 16.2623 19.1369 17.4623 19.1269C20.3823 19.1269 22.4923 17.1069 22.4923 14.0169C22.4923 8.9369 15.4223 6.4569 12.6023 0.9969C12.2923 0.4069 11.9523 -0.0031 11.2523 -0.0031C10.5323 -0.0031 10.1923 0.4069 9.9023 0.9969C7.0623 6.4569 0.0023 8.9369 0.0023 14.0169ZM2.2523 13.9369C2.2523 10.2469 8.3923 8.4569 11.2523 2.4969C14.1023 8.4569 20.2523 10.2469 20.2523 13.9369C20.2523 15.7869 19.0223 17.0369 17.1123 17.0369C15.7623 17.0369 14.7223 16.4969 13.9323 15.8469C13.1723 15.2569 12.0423 15.5969 12.0823 16.8169C12.1923 17.9869 12.9423 19.6769 13.7023 20.6269C13.8623 20.8269 13.7623 20.9869 13.5923 20.9869H8.8923C8.7323 20.9869 8.6223 20.8269 8.7923 20.6269C9.5623 19.6369 10.3023 17.9769 10.4023 16.8169C10.4523 15.5969 9.3323 15.2469 8.5623 15.8469C7.7723 16.4969 6.7223 17.0369 5.3823 17.0369C3.4723 17.0369 2.2523 15.7869 2.2523 13.9369Z" />
        </svg>
    