
        <svg xmlns="http://www.w3.org/2000/svg" viewBox="0 0 100 100">
            <path d="M0.0023 13.9548C0.0023 16.7448 2.1723 18.9148 4.9523 18.9148C6.5123 18.9148 8.1223 18.3948 8.8023 17.0248H8.9223C8.9323 18.5848 7.2223 19.8748 6.5123 20.6048C5.6723 21.4848 6.1923 22.6948 7.2823 22.6948H14.7223C15.8123 22.6948 16.3123 21.4848 15.4823 20.6048C14.7823 19.8748 13.0623 18.5848 13.0823 17.0248H13.1923C13.8723 18.3948 15.4823 18.9148 17.0323 18.9148C19.8323 18.9148 21.9923 16.7448 21.9923 13.9548C21.9923 8.7048 15.0123 6.4948 12.2123 0.8448C11.9723 0.3648 11.6123 0.0048 10.9923 0.0048C10.3723 0.0048 10.0223 0.3648 9.7823 0.8448C6.9823 6.4948 0.0023 8.7048 0.0023 13.9548Z" />
        </svg>
    