
        <svg xmlns="http://www.w3.org/2000/svg" viewBox="0 0 100 100">
            <path d="M0.0017 6.8645C0.0017 11.7545 4.2617 16.5445 10.7017 20.7145C10.9117 20.8445 11.2017 20.9745 11.4117 20.9745C11.6417 20.9745 11.9317 20.8445 12.1417 20.7145C18.5717 16.5445 22.8417 11.7545 22.8417 6.8645C22.8417 2.8545 20.0817 0.0045 16.3817 0.0045C14.2617 0.0045 12.4217 1.0945 11.4117 2.7745C10.4217 1.1045 8.5617 0.0045 6.4617 0.0045C2.7517 0.0045 0.0017 2.8545 0.0017 6.8645ZM1.4517 6.8645C1.4517 3.6445 3.5617 1.4545 6.4317 1.4545C8.6117 1.4545 9.9617 2.8045 10.7717 4.1445C11.0117 4.5345 11.1817 4.6545 11.4117 4.6545C11.6517 4.6545 11.8017 4.5245 12.0717 4.1445C12.9017 2.8145 14.2217 1.4545 16.4017 1.4545C19.2817 1.4545 21.3917 3.6445 21.3917 6.8645C21.3917 11.2645 16.8017 15.9045 11.6217 19.3545C11.5317 19.4145 11.4617 19.4645 11.4117 19.4645C11.3817 19.4645 11.3117 19.4145 11.2117 19.3545C6.0317 15.9045 1.4517 11.2645 1.4517 6.8645Z" />
        </svg>
    