
        <svg xmlns="http://www.w3.org/2000/svg" viewBox="0 0 100 100">
            <path d="M26.8977 18.1639C28.7077 18.1639 29.7177 17.1939 29.7177 15.4439V6.1639C29.7177 4.4139 28.7077 3.4439 26.8977 3.4439H23.7777V2.6239C23.7777 0.9239 22.8077 0.0039 20.9977 0.0039H16.9477C15.1077 0.0039 14.1577 0.8939 14.1577 2.6239V3.4439H11.0477C9.2377 3.4439 8.2177 4.4139 8.2177 6.1639V15.4439C8.2177 17.1939 9.2377 18.1639 11.0477 18.1639ZM16.1377 2.5639C16.1377 2.0539 16.4277 1.7839 16.9777 1.7839H20.9677C21.5177 1.7839 21.7977 2.0539 21.7977 2.5639V3.4439H16.1377ZM28.3977 22.6739C29.1377 22.6739 29.7177 22.1239 29.7177 21.3639C29.7177 20.6139 29.1377 20.0639 28.3977 20.0639H7.5577C6.6777 20.0639 6.2277 19.5939 6.2277 18.7139V6.7239C6.2277 4.3839 5.0377 3.2139 2.6677 3.2139H1.2977C0.5877 3.2139 -0.0023 3.7939 -0.0023 4.5139C-0.0023 5.2239 0.5877 5.8239 1.2977 5.8239H2.2877C3.1477 5.8239 3.6177 6.2839 3.6177 7.1739V19.1439C3.6177 21.5039 4.8077 22.6739 7.1677 22.6739ZM11.1477 16.1039C10.6477 16.1039 10.3877 15.8439 10.3877 15.3939V6.2139C10.3877 5.7639 10.6477 5.5039 11.1477 5.5039H12.2977V16.1039ZM14.3777 16.1039V5.5039H23.5577V16.1039ZM26.7977 16.1039H25.6377V5.5039H26.7977C27.2777 5.5039 27.5577 5.7639 27.5577 6.2139V15.3939C27.5577 15.8439 27.2777 16.1039 26.7977 16.1039ZM24.2777 29.0839C25.5477 29.0839 26.5977 28.0339 26.5977 26.7639C26.5977 25.4739 25.5477 24.4239 24.2777 24.4239C23.0177 24.4239 21.9477 25.4739 21.9477 26.7639C21.9477 28.0339 23.0177 29.0839 24.2777 29.0839ZM11.7177 29.0839C12.9877 29.0839 14.0377 28.0339 14.0377 26.7639C14.0377 25.4739 12.9877 24.4239 11.7177 24.4239C10.4377 24.4239 9.3877 25.4739 9.3877 26.7639C9.3877 28.0339 10.4377 29.0839 11.7177 29.0839Z" />
        </svg>
    