
        <svg xmlns="http://www.w3.org/2000/svg" viewBox="0 0 100 100">
            <path d="M0.0023 13.2066C0.0023 16.0066 2.2123 18.1766 5.0023 18.1766C6.5623 18.1766 8.1723 17.6566 8.8523 16.2866H8.9623C8.9723 17.8466 7.2623 19.1366 6.5623 19.8666C5.7223 20.7466 6.2323 21.9566 7.3223 21.9566H14.7623C15.8523 21.9566 16.3623 20.7466 15.5323 19.8666C14.8223 19.1366 13.1123 17.8466 13.1223 16.2866H13.2423C13.9223 17.6566 15.5323 18.1766 17.0723 18.1766C19.8723 18.1766 22.0923 16.0066 22.0923 13.2066C22.0923 10.3966 19.9723 8.0166 17.1723 8.0166C16.0923 8.0166 14.9923 8.3766 14.1323 9.0566C15.5823 7.8766 16.0923 6.3866 16.0923 5.0466C16.0923 2.2466 13.8323 -0.0034 11.0423 -0.0034C8.2623 -0.0034 6.0023 2.2466 6.0023 5.0466C6.0023 6.3866 6.5023 7.8766 7.9523 9.0566C7.1023 8.3766 6.0023 8.0166 4.9223 8.0166C2.1223 8.0166 0.0023 10.3966 0.0023 13.2066Z" />
        </svg>
    