
        <svg xmlns="http://www.w3.org/2000/svg" viewBox="0 0 100 100">
            <path d="M1.1917 21.5722H12.6417C13.1017 21.5722 13.4417 21.2922 13.4417 20.8322C13.4417 20.3722 13.1017 20.0722 12.6417 20.0722H1.8717V20.0022L8.6917 11.3822C8.9317 11.1022 9.0517 10.8022 9.0517 10.5222C9.0517 10.2322 8.9217 9.9422 8.6817 9.6522L1.9017 1.5722V1.5022H12.6717C13.1217 1.5022 13.4617 1.2022 13.4617 0.7422C13.4617 0.2822 13.1217 0.0022 12.6717 0.0022H1.2317C0.4717 0.0022 0.0217 0.5322 0.0217 1.1322C0.0217 1.4322 0.1417 1.7422 0.3717 2.0322L7.4917 10.4722V10.5622L0.3417 19.5422C0.1217 19.8322 0.0017 20.1422 0.0017 20.4522C0.0017 21.0422 0.4317 21.5722 1.1917 21.5722Z" />
        </svg>
    