
        <svg xmlns="http://www.w3.org/2000/svg" viewBox="0 0 100 100">
            <path d="M1.8917 21.5722H12.5617C13.3517 21.5722 13.9017 21.0922 13.9017 20.3522C13.9017 19.6022 13.3517 19.1122 12.5617 19.1122H3.2117V18.9922L9.1917 12.0822C9.6017 11.6522 9.8217 11.1822 9.8217 10.7022C9.8217 10.2222 9.6017 9.7422 9.1717 9.3122L3.2117 2.5822V2.4622H12.5717C13.3617 2.4622 13.9017 1.9722 13.9017 1.2222C13.9017 0.4822 13.3617 0.0022 12.5717 0.0022H1.9017C0.6817 0.0022 0.0117 0.8422 0.0117 1.7822C0.0117 2.3122 0.2217 2.8622 0.6717 3.2922L7.2117 10.6122V10.7622L0.6517 18.2822C0.2117 18.7122 0.0017 19.2622 0.0017 19.7922C0.0017 20.7322 0.6717 21.5722 1.8917 21.5722Z" />
        </svg>
    