
        <svg xmlns="http://www.w3.org/2000/svg" viewBox="0 0 100 100">
            <path d="M12.7923 25.5978C19.8723 25.5978 25.6023 19.8678 25.6023 12.7978C25.6023 5.7278 19.8723 -0.0022 12.7923 -0.0022C5.7323 -0.0022 0.0023 5.7278 0.0023 12.7978C0.0023 19.8678 5.7323 25.5978 12.7923 25.5978ZM12.7923 21.4178C8.0323 21.4178 4.1723 17.5678 4.1723 12.7978C4.1723 8.0278 8.0323 4.1678 12.7923 4.1678C17.5623 4.1678 21.4323 8.0278 21.4323 12.7978C21.4323 17.5678 17.5623 21.4178 12.7923 21.4178ZM12.7923 6.1078C12.2623 6.1078 11.8123 6.5478 11.8123 7.0778V8.0078C11.8123 8.5478 12.2623 8.9978 12.7923 8.9978C13.3523 8.9978 13.7923 8.5478 13.7923 8.0078V7.0778C13.7923 6.5478 13.3523 6.1078 12.7923 6.1078ZM17.5323 8.0578C17.1523 7.6978 16.5223 7.7078 16.1523 8.0878L15.4923 8.7578C15.1323 9.1378 15.1123 9.7378 15.5123 10.1378C15.8823 10.5078 16.5023 10.4778 16.8823 10.1178L17.5523 9.4578C17.9223 9.0778 17.9023 8.4378 17.5323 8.0578ZM8.0723 8.0578C7.7123 8.4378 7.6923 9.0778 8.0623 9.4578L8.7223 10.1178C9.0823 10.4778 9.7223 10.5278 10.1023 10.1378C10.4923 9.7378 10.4923 9.1178 10.1123 8.7578L9.4523 8.0878C9.0923 7.7078 8.4623 7.6978 8.0723 8.0578ZM12.7923 15.8878C14.5223 15.8878 15.9023 14.5078 15.9023 12.7978C15.9023 11.0778 14.5223 9.6878 12.7923 9.6878C11.0823 9.6878 9.7023 11.0778 9.7023 12.7978C9.7023 14.5078 11.0823 15.8878 12.7923 15.8878ZM19.5123 12.7978C19.5123 12.2578 19.0523 11.8078 18.5323 11.8078H17.6023C17.0723 11.8078 16.6123 12.2678 16.6123 12.7978C16.6123 13.3278 17.0723 13.7778 17.6023 13.7778H18.5323C19.0523 13.7778 19.5123 13.3278 19.5123 12.7978ZM6.0923 12.7978C6.0923 13.3278 6.5423 13.7778 7.0823 13.7778H7.9923C8.5423 13.7778 9.0023 13.3278 9.0023 12.7978C9.0023 12.2678 8.5423 11.8078 7.9923 11.8078H7.0823C6.5423 11.8078 6.0923 12.2578 6.0923 12.7978ZM17.5523 17.4978C17.9323 17.1278 17.9223 16.4978 17.5423 16.1278L16.8723 15.4678C16.5023 15.0978 15.8623 15.0978 15.4923 15.4778C15.1023 15.8478 15.1323 16.4978 15.5123 16.8678L16.1823 17.5178C16.5423 17.8778 17.1823 17.8578 17.5523 17.4978ZM8.0523 17.4978C8.4423 17.8778 9.0623 17.8978 9.4323 17.5178L10.1023 16.8678C10.4923 16.4878 10.5023 15.8278 10.1123 15.4778C9.7423 15.0978 9.0923 15.0978 8.7323 15.4678L8.0623 16.1278C7.6923 16.4878 7.6723 17.1578 8.0523 17.4978ZM12.7923 19.4878C13.3523 19.4878 13.7923 19.0478 13.7923 18.5178V17.5878C13.7923 17.0478 13.3523 16.5778 12.7923 16.5778C12.2623 16.5778 11.8123 17.0478 11.8123 17.5878V18.5178C11.8123 19.0478 12.2623 19.4878 12.7923 19.4878Z" />
        </svg>
    