
        <svg xmlns="http://www.w3.org/2000/svg" viewBox="0 0 100 100">
            <path d="M12.6023 25.1986C19.5623 25.1986 25.2023 19.5586 25.2023 12.5986C25.2023 5.6386 19.5623 -0.0014 12.6023 -0.0014C5.6323 -0.0014 0.0023 5.6386 0.0023 12.5986C0.0023 19.5586 5.6323 25.1986 12.6023 25.1986ZM12.6023 21.5386C7.6523 21.5386 3.6523 17.5386 3.6523 12.5986C3.6523 7.6486 7.6523 3.6586 12.6023 3.6586C17.5423 3.6586 21.5423 7.6486 21.5423 12.5986C21.5423 17.5386 17.5423 21.5386 12.6023 21.5386ZM13.3623 6.7886V5.7586C13.3623 5.3086 13.0123 4.9586 12.6023 4.9586C12.1723 4.9586 11.8223 5.3086 11.8223 5.7586V6.7886C11.8223 7.2186 12.1723 7.5986 12.6023 7.5986C13.0223 7.5986 13.3623 7.2186 13.3623 6.7886ZM15.3523 8.8786C15.6523 9.1786 16.1223 9.1686 16.4523 8.8586L17.1923 8.1286C17.5123 7.8186 17.4923 7.3286 17.2023 7.0186C16.9023 6.7186 16.4223 6.7186 16.1023 7.0286L15.3623 7.7786C15.0423 8.0986 15.0423 8.5786 15.3523 8.8786ZM8.7523 8.8586C9.0723 9.1686 9.5423 9.1886 9.8523 8.8786C10.1523 8.5786 10.1523 8.0986 9.8323 7.7786L9.0923 7.0286C8.7823 6.7186 8.2923 6.7286 7.9923 7.0186C7.7023 7.3286 7.6923 7.8186 8.0023 8.1286ZM15.7623 11.6086C15.7623 9.8686 14.3323 8.4386 12.6023 8.4386C10.8623 8.4386 9.4323 9.8686 9.4323 11.6086C9.4323 11.8386 9.4523 12.0986 9.5323 12.3086H15.6723C15.7423 12.0986 15.7623 11.8386 15.7623 11.6086ZM6.8823 11.9786H7.9123C8.3523 11.9786 8.7023 11.6286 8.7023 11.1986C8.7023 10.7786 8.3523 10.4286 7.9123 10.4286H6.8823C6.4423 10.4286 6.0823 10.7786 6.0823 11.1986C6.0823 11.6286 6.4423 11.9786 6.8823 11.9786ZM17.2823 11.9786H18.3123C18.7623 11.9786 19.1123 11.6286 19.1123 11.1986C19.1123 10.7786 18.7623 10.4286 18.3123 10.4286H17.2823C16.8523 10.4286 16.4923 10.7786 16.4923 11.1986C16.4923 11.6286 16.8623 11.9786 17.2823 11.9786ZM6.9923 15.0386H18.2023C18.7123 15.0386 19.1123 14.5986 19.1123 14.1086C19.1123 13.6286 18.7123 13.1986 18.2023 13.1986H6.9923C6.4823 13.1986 6.0823 13.6386 6.0823 14.1086C6.0823 14.5886 6.4923 15.0386 6.9923 15.0386ZM9.2223 18.0686L9.9023 16.8986C10.0623 16.6186 9.9723 16.2686 9.6923 16.0986C9.4123 15.9386 9.0623 16.0286 8.8923 16.3086L8.2123 17.4886C8.0623 17.7686 8.1423 18.1186 8.4423 18.2786C8.7223 18.4486 9.0623 18.3486 9.2223 18.0686ZM13.9923 18.0686L14.6723 16.8986C14.8223 16.6186 14.7423 16.2686 14.4623 16.0986C14.1723 15.9386 13.8123 16.0286 13.6623 16.3086L12.9823 17.4886C12.8223 17.7686 12.9123 18.1186 13.2023 18.2786C13.4723 18.4486 13.8323 18.3486 13.9923 18.0686ZM10.7623 19.5786L12.2823 16.9086C12.4323 16.6386 12.3523 16.2886 12.0823 16.1286C11.7923 15.9586 11.4223 16.0686 11.2723 16.3386L9.7523 18.9986C9.6123 19.2686 9.6823 19.6286 9.9723 19.7786C10.2523 19.9486 10.6023 19.8386 10.7623 19.5786ZM15.5323 19.5786L17.0523 16.9086C17.2023 16.6386 17.1223 16.2886 16.8423 16.1286C16.5623 15.9586 16.1923 16.0686 16.0423 16.3386L14.5223 18.9986C14.3623 19.2686 14.4523 19.6286 14.7423 19.7786C15.0123 19.9486 15.3723 19.8386 15.5323 19.5786Z" />
        </svg>
    