
        <svg xmlns="http://www.w3.org/2000/svg" viewBox="0 0 100 100">
            <path d="M13.6623 5.165C14.4523 5.165 15.1023 4.515 15.1023 3.725V1.445C15.1023 0.655 14.4523 -0.005 13.6623 -0.005C12.8823 -0.005 12.2223 0.655 12.2223 1.445V3.725C12.2223 4.515 12.8823 5.165 13.6623 5.165ZM19.6723 7.695C20.2123 8.235 21.1523 8.235 21.7123 7.675L23.3323 6.055C23.8723 5.505 23.8623 4.575 23.3123 4.005C22.7723 3.465 21.8223 3.485 21.2823 4.035L19.6523 5.665C19.1123 6.195 19.1123 7.145 19.6723 7.695ZM7.6423 7.695C8.2023 7.145 8.2123 6.195 7.6723 5.665L6.0623 4.035C5.5123 3.485 4.5723 3.465 4.0223 4.005C3.4723 4.575 3.4523 5.505 3.9923 6.045L5.6123 7.675C6.1623 8.235 7.1023 8.235 7.6423 7.695ZM13.6623 20.055C17.1923 20.055 20.0523 17.195 20.0523 13.665C20.0523 10.135 17.1923 7.265 13.6623 7.265C10.1223 7.265 7.2623 10.135 7.2623 13.665C7.2623 17.195 10.1223 20.055 13.6623 20.055ZM13.6623 17.225C11.6923 17.225 10.1023 15.635 10.1023 13.665C10.1023 11.695 11.6923 10.105 13.6623 10.105C15.6223 10.105 17.2123 11.695 17.2123 13.665C17.2123 15.635 15.6223 17.225 13.6623 17.225ZM22.1623 13.665C22.1623 14.445 22.8123 15.105 23.6023 15.105H25.8823C26.6723 15.105 27.3323 14.445 27.3323 13.665C27.3323 12.875 26.6723 12.225 25.8823 12.225H23.6023C22.8123 12.225 22.1623 12.875 22.1623 13.665ZM5.1723 13.665C5.1723 12.875 4.5123 12.225 3.7223 12.225H1.4423C0.6523 12.225 0.0023 12.875 0.0023 13.665C0.0023 14.445 0.6523 15.105 1.4423 15.105H3.7223C4.5123 15.105 5.1723 14.445 5.1723 13.665ZM19.6523 19.655C19.1123 20.205 19.1123 21.125 19.6723 21.695L21.3023 23.325C21.8423 23.855 22.7823 23.845 23.3423 23.285C23.8823 22.745 23.8823 21.805 23.3223 21.255L21.6923 19.645C21.1523 19.085 20.2023 19.105 19.6523 19.655ZM7.6723 19.655C7.1123 19.105 6.1623 19.085 5.6223 19.645L3.9923 21.245C3.4423 21.795 3.4323 22.735 3.9723 23.285C4.5323 23.835 5.4723 23.845 6.0223 23.305L7.6423 21.695C8.2023 21.125 8.2023 20.205 7.6723 19.655ZM13.6623 22.145C12.8823 22.145 12.2223 22.805 12.2223 23.585V25.885C12.2223 26.675 12.8823 27.325 13.6623 27.325C14.4523 27.325 15.1023 26.675 15.1023 25.885V23.585C15.1023 22.805 14.4523 22.145 13.6623 22.145Z" />
        </svg>
    