
        <svg xmlns="http://www.w3.org/2000/svg" viewBox="0 0 100 100">
            <path d="M13.5217 4.9786C14.0517 4.9686 14.4717 4.5186 14.4717 3.9286V1.0386C14.4717 0.4286 14.0517 -0.0014 13.5217 -0.0014C12.9917 -0.0014 12.5717 0.4286 12.5717 1.0386V3.9286C12.5717 4.5186 12.9917 4.9886 13.5217 4.9786ZM19.5717 7.4786C19.9317 7.8386 20.5517 7.8386 20.9917 7.4086L23.0317 5.3686C23.4617 4.9286 23.4517 4.3386 23.0717 3.9586C22.7217 3.5886 22.1117 3.5886 21.6717 4.0186L19.6317 6.0586C19.2117 6.4886 19.1917 7.1086 19.5717 7.4786ZM7.4717 7.4786C7.8417 7.0986 7.8417 6.4886 7.4017 6.0586L5.3717 4.0186C4.9317 3.5886 4.3317 3.5986 3.9617 3.9586C3.5817 4.3286 3.5817 4.9286 4.0217 5.3686L6.0617 7.4086C6.4917 7.8386 7.1117 7.8486 7.4717 7.4786ZM19.8717 13.4986C19.8717 10.0386 16.9917 7.1486 13.5217 7.1486C10.0517 7.1486 7.1717 10.0386 7.1717 13.4986C7.1717 14.3486 7.3617 15.1486 7.6617 15.8686H19.3717C19.6917 15.1486 19.8717 14.3486 19.8717 13.4986ZM1.0417 14.1686H3.9217C4.5317 14.1686 4.9917 13.7486 4.9817 13.2186C4.9717 12.6986 4.5317 12.2686 3.9217 12.2686H1.0417C0.4317 12.2686 0.0017 12.6886 0.0017 13.2186C0.0017 13.7486 0.4317 14.1686 1.0417 14.1686ZM23.1217 14.1686H26.0017C26.6117 14.1786 27.0517 13.7486 27.0517 13.2186C27.0517 12.6986 26.6117 12.2686 26.0017 12.2686H23.1217C22.5117 12.2686 22.0517 12.6886 22.0617 13.2186C22.0817 13.7486 22.5117 14.1686 23.1217 14.1686ZM1.5917 18.7186H25.3917C25.8117 18.7186 26.1317 18.3986 26.1317 17.9786C26.1317 17.5586 25.8117 17.2386 25.3917 17.2386H1.5917C1.1817 17.2386 0.8517 17.5586 0.8517 17.9786C0.8517 18.3986 1.1817 18.7186 1.5917 18.7186ZM20.0117 24.5786C20.2217 24.5786 20.3817 24.3786 20.3717 24.1486L20.3017 23.0386L21.2217 23.6686C21.3917 23.7886 21.6517 23.7386 21.7717 23.5686C21.8817 23.3886 21.8217 23.1086 21.5817 23.0186L20.5817 22.5186L21.6017 22.0186C21.8217 21.9186 21.8717 21.6586 21.7817 21.4786C21.6817 21.2886 21.3917 21.2586 21.2217 21.3786L20.3017 22.0186L20.3817 20.8986C20.4017 20.6586 20.2217 20.4686 20.0117 20.4686C19.7717 20.4686 19.6317 20.6586 19.6417 20.8986L19.7117 22.0186L18.7617 21.3786C18.6017 21.2586 18.3517 21.2786 18.2317 21.4786C18.1317 21.6586 18.1717 21.8986 18.4017 22.0186L19.4017 22.5186L18.4017 23.0186C18.1717 23.1186 18.1217 23.3786 18.2217 23.5686C18.3317 23.7586 18.6017 23.7886 18.7617 23.6686L19.7117 23.0386L19.6517 24.1486C19.6417 24.3786 19.7717 24.5786 20.0117 24.5786ZM7.0317 24.5786C7.2517 24.5786 7.3917 24.3786 7.3817 24.1486L7.3117 23.0386L8.2417 23.6686C8.4117 23.7886 8.6717 23.7386 8.7917 23.5686C8.8917 23.3886 8.8317 23.1086 8.6017 23.0186L7.6017 22.5186L8.6117 22.0186C8.8317 21.9186 8.8817 21.6586 8.8017 21.4786C8.6917 21.2886 8.4117 21.2586 8.2417 21.3786L7.3117 22.0186L7.3917 20.8986C7.4217 20.6586 7.2517 20.4686 7.0317 20.4686C6.7817 20.4686 6.6417 20.6586 6.6517 20.8986L6.7217 22.0186L5.7917 21.3786C5.6117 21.2586 5.3717 21.2786 5.2517 21.4786C5.1417 21.6586 5.1917 21.8986 5.4117 22.0186L6.4317 22.5186L5.4117 23.0186C5.1917 23.1186 5.1317 23.3786 5.2417 23.5686C5.3417 23.7586 5.6117 23.7886 5.7917 23.6686L6.7217 23.0386L6.6717 24.1486C6.6517 24.3786 6.7817 24.5786 7.0317 24.5786ZM13.5217 24.5786C13.7317 24.5786 13.8917 24.3786 13.8717 24.1486L13.8017 23.0386L14.7317 23.6686C14.9017 23.7886 15.1617 23.7386 15.2817 23.5686C15.3917 23.3886 15.3317 23.1086 15.0917 23.0186L14.1017 22.5186L15.1017 22.0186C15.3317 21.9186 15.3717 21.6586 15.2917 21.4786C15.1917 21.2886 14.9017 21.2586 14.7317 21.3786L13.8017 22.0186L13.8917 20.8986C13.9117 20.6586 13.7317 20.4686 13.5217 20.4686C13.2817 20.4686 13.1417 20.6586 13.1517 20.8986L13.2217 22.0186L12.2817 21.3786C12.1017 21.2586 11.8617 21.2786 11.7417 21.4786C11.6417 21.6586 11.6817 21.8986 11.9017 22.0186L12.9117 22.5186L11.9017 23.0186C11.6817 23.1186 11.6217 23.3786 11.7317 23.5686C11.8317 23.7586 12.1017 23.7886 12.2817 23.6686L13.2217 23.0386L13.1617 24.1486C13.1517 24.3786 13.2817 24.5786 13.5217 24.5786ZM4.4917 28.9686C4.7117 28.9686 4.8517 28.7686 4.8417 28.5486L4.7717 27.4386L5.6917 28.0686C5.8717 28.1886 6.1317 28.1386 6.2417 27.9586C6.3517 27.7886 6.2917 27.5186 6.0617 27.4086L5.0617 26.9186L6.0717 26.4186C6.2917 26.3086 6.3417 26.0486 6.2617 25.8786C6.1517 25.6886 5.8717 25.6486 5.6917 25.7686L4.7717 26.4186L4.8517 25.2886C4.8717 25.0586 4.7117 24.8686 4.4917 24.8686C4.2417 24.8686 4.1017 25.0586 4.1117 25.2886L4.1817 26.4186L3.2417 25.7686C3.0717 25.6486 2.8217 25.6786 2.7117 25.8786C2.6017 26.0486 2.6517 26.2986 2.8717 26.4186L3.8917 26.9186L2.8717 27.4086C2.6517 27.5186 2.5917 27.7686 2.6917 27.9586C2.8017 28.1486 3.0717 28.1886 3.2417 28.0686L4.1817 27.4386L4.1217 28.5486C4.1117 28.7686 4.2417 28.9686 4.4917 28.9686ZM10.9817 28.9686C11.1917 28.9686 11.3417 28.7686 11.3317 28.5486L11.2617 27.4386L12.1917 28.0686C12.3617 28.1886 12.6217 28.1386 12.7417 27.9586C12.8417 27.7886 12.7817 27.5186 12.5517 27.4086L11.5517 26.9186L12.5617 26.4186C12.7817 26.3086 12.8317 26.0486 12.7517 25.8786C12.6417 25.6886 12.3617 25.6486 12.1917 25.7686L11.2617 26.4186L11.3417 25.2886C11.3717 25.0586 11.1917 24.8686 10.9817 24.8686C10.7317 24.8686 10.5917 25.0586 10.6017 25.2886L10.6717 26.4186L9.7417 25.7686C9.5617 25.6486 9.3117 25.6786 9.2017 25.8786C9.0917 26.0486 9.1417 26.2986 9.3617 26.4186L10.3717 26.9186L9.3617 27.4086C9.1417 27.5186 9.0817 27.7686 9.1917 27.9586C9.2917 28.1486 9.5617 28.1886 9.7417 28.0686L10.6717 27.4386L10.6217 28.5486C10.6017 28.7686 10.7317 28.9686 10.9817 28.9686ZM17.4717 28.9686C17.6817 28.9686 17.8317 28.7686 17.8217 28.5486L17.7517 27.4386L18.6817 28.0686C18.8417 28.1886 19.1117 28.1386 19.2317 27.9586C19.3317 27.7886 19.2817 27.5186 19.0417 27.4086L18.0517 26.9186L19.0517 26.4186C19.2817 26.3086 19.3217 26.0486 19.2417 25.8786C19.1417 25.6886 18.8417 25.6486 18.6817 25.7686L17.7517 26.4186L17.8317 25.2886C17.8617 25.0586 17.6817 24.8686 17.4717 24.8686C17.2217 24.8686 17.0817 25.0586 17.1017 25.2886L17.1717 26.4186L16.2317 25.7686C16.0517 25.6486 15.8117 25.6786 15.6917 25.8786C15.5817 26.0486 15.6317 26.2986 15.8517 26.4186L16.8617 26.9186L15.8517 27.4086C15.6317 27.5186 15.5717 27.7686 15.6817 27.9586C15.7817 28.1486 16.0517 28.1886 16.2317 28.0686L17.1717 27.4386L17.1117 28.5486C17.1017 28.7686 17.2217 28.9686 17.4717 28.9686Z" />
        </svg>
    