
        <svg xmlns="http://www.w3.org/2000/svg" viewBox="0 0 100 100">
            <path d="M13.5217 4.9544C14.1317 4.9544 14.6217 4.4444 14.6217 3.7744V1.1844C14.6217 0.5044 14.1317 0.0044 13.5217 0.0044C12.9117 0.0044 12.4117 0.5044 12.4117 1.1844V3.7744C12.4117 4.4444 12.9117 4.9644 13.5217 4.9544ZM19.5817 7.4644C20.0117 7.8844 20.7317 7.8844 21.2017 7.4044L23.0417 5.5944C23.5217 5.1044 23.5117 4.3944 23.0717 3.9644C22.6517 3.5244 21.9517 3.5244 21.4717 4.0244L19.6317 5.8444C19.1617 6.3144 19.1517 7.0444 19.5817 7.4644ZM7.4617 7.4644C7.8917 7.0344 7.8917 6.3144 7.4217 5.8444L5.5817 4.0244C5.1017 3.5244 4.3917 3.5344 3.9617 3.9644C3.5317 4.3944 3.5317 5.1044 4.0117 5.5944L5.8517 7.4044C6.3117 7.8844 7.0417 7.8944 7.4617 7.4644ZM19.8917 13.5044C19.8917 9.9944 17.0117 7.1144 13.5217 7.1144C10.0317 7.1144 7.1617 9.9944 7.1617 13.5044C7.1617 14.2244 7.3017 14.9344 7.5517 15.5744H19.5017C19.7417 14.9344 19.8917 14.2244 19.8917 13.5044ZM1.1817 14.2344H3.7717C4.4417 14.2344 4.9717 13.7444 4.9617 13.1344C4.9417 12.5244 4.4417 12.0344 3.7717 12.0344H1.1817C0.5117 12.0344 0.0017 12.5244 0.0017 13.1344C0.0017 13.7444 0.5117 14.2344 1.1817 14.2344ZM23.2717 14.2344H25.8617C26.5317 14.2544 27.0517 13.7444 27.0517 13.1344C27.0517 12.5244 26.5317 12.0344 25.8617 12.0344H23.2717C22.6017 12.0344 22.0817 12.5244 22.0917 13.1344C22.0917 13.7444 22.6017 14.2344 23.2717 14.2344ZM1.7217 18.7644H25.3017C25.7817 18.7644 26.1517 18.4144 26.1517 17.9444C26.1517 17.4644 25.7817 17.1044 25.3017 17.1044H1.7217C1.2417 17.1044 0.8817 17.4644 0.8817 17.9444C0.8817 18.4144 1.2417 18.7644 1.7217 18.7644ZM15.8117 24.5244L17.3117 21.9344C17.5417 21.5344 17.4217 21.0544 17.0317 20.8244C16.6217 20.5944 16.1717 20.7344 15.9217 21.1444L14.4117 23.7544C14.1917 24.1244 14.3017 24.6144 14.7117 24.8444C15.1017 25.0644 15.5817 24.9144 15.8117 24.5244ZM18.5417 27.8544L21.9817 21.9144C22.2117 21.5244 22.1017 21.0544 21.7017 20.8244C21.3117 20.5944 20.8517 20.7144 20.6017 21.1244L17.1817 27.0544C16.9617 27.4544 17.0617 27.9244 17.4617 28.1644C17.8617 28.3944 18.3117 28.2544 18.5417 27.8544ZM6.4817 24.5344L7.9817 21.9344C8.2117 21.5344 8.1017 21.0544 7.7017 20.8244C7.2917 20.5944 6.8417 20.7344 6.6017 21.1444L5.0817 23.7544C4.8617 24.1444 4.9717 24.6244 5.3817 24.8544C5.7817 25.0744 6.2617 24.9244 6.4817 24.5344ZM9.2217 27.8644L12.6517 21.9244C12.8817 21.5344 12.7717 21.0544 12.3717 20.8244C11.9917 20.6044 11.5117 20.7344 11.2717 21.1444L7.8617 27.0544C7.6417 27.4644 7.7317 27.9344 8.1317 28.1744C8.5317 28.3944 8.9917 28.2544 9.2217 27.8644Z" />
        </svg>
    