
        <svg xmlns="http://www.w3.org/2000/svg" viewBox="0 0 100 100">
            <path d="M13.5217 4.9766C13.6617 4.9766 13.7917 4.8466 13.7917 4.7266V0.2566C13.7917 0.1166 13.6617 -0.0034 13.5217 -0.0034C13.3817 -0.0034 13.2517 0.1166 13.2517 0.2566V4.7266C13.2517 4.8466 13.3817 4.9766 13.5217 4.9766ZM7.4717 7.4766C7.5817 7.3866 7.5817 7.1966 7.5017 7.1166L4.3317 3.9466C4.2217 3.8466 4.0417 3.8666 3.9617 3.9566C3.8417 4.0666 3.8317 4.2266 3.9517 4.3366L7.1117 7.4966C7.1917 7.5866 7.3817 7.5866 7.4717 7.4766ZM19.5717 7.4766C19.6617 7.5866 19.8517 7.5866 19.9317 7.4966L23.1017 4.3366C23.2117 4.2266 23.1917 4.0666 23.0717 3.9566C22.9917 3.8666 22.8317 3.8466 22.7117 3.9466L19.5517 7.1166C19.4617 7.1966 19.4617 7.3866 19.5717 7.4766ZM19.5117 13.5166C19.5117 10.2166 16.8317 7.5166 13.5217 7.5166C10.2217 7.5166 7.5317 10.2166 7.5317 13.5166C7.5317 14.7266 7.9117 15.8666 8.5317 16.8166H18.5117C19.1417 15.8666 19.5117 14.7266 19.5117 13.5166ZM0.2617 13.4966H4.7217C4.8617 13.4966 4.9817 13.3866 4.9817 13.2166C4.9817 13.0866 4.8617 12.9466 4.7217 12.9466H0.2617C0.1317 12.9466 0.0017 13.0766 0.0017 13.2166C0.0017 13.3666 0.1317 13.4966 0.2617 13.4966ZM22.3117 13.4966H26.7917C26.9317 13.5166 27.0517 13.3866 27.0517 13.2166C27.0517 13.0866 26.9317 12.9566 26.7917 12.9466H22.3117C22.1917 12.9466 22.0617 13.0766 22.0617 13.2166C22.0617 13.3666 22.1917 13.4966 22.3117 13.4966ZM2.0817 18.2566H26.7217C26.8917 18.2566 27.0517 18.1366 27.0517 17.9766C27.0517 17.8266 26.8917 17.7066 26.7217 17.7066H2.0817C1.9117 17.7066 1.7717 17.8266 1.7717 17.9766C1.7717 18.1366 1.9117 18.2566 2.0817 18.2566ZM0.3117 22.7566H24.9617C25.1417 22.7566 25.2817 22.6366 25.2817 22.4766C25.2817 22.3266 25.1417 22.2066 24.9617 22.2066H0.3117C0.1417 22.2066 0.0017 22.3266 0.0017 22.4766C0.0017 22.6366 0.1417 22.7566 0.3117 22.7566ZM2.0817 27.2566H26.7217C26.8917 27.2566 27.0517 27.1366 27.0517 26.9866C27.0517 26.8266 26.8917 26.7066 26.7217 26.7066H2.0817C1.9117 26.7066 1.7717 26.8266 1.7717 26.9866C1.7717 27.1366 1.9117 27.2566 2.0817 27.2566Z" />
        </svg>
    