
        <svg xmlns="http://www.w3.org/2000/svg" viewBox="0 0 100 100">
            <path d="M11.4923 22.977C17.8323 22.977 22.9823 17.847 22.9823 11.497C22.9823 5.147 17.8323 -0.003 11.4923 -0.003C5.1423 -0.003 0.0023 5.147 0.0023 11.497C0.0023 17.847 5.1423 22.977 11.4923 22.977ZM11.4923 22.087C5.6323 22.087 0.8923 17.357 0.8923 11.497C0.8923 5.637 5.6323 0.887 11.4923 0.887C17.3523 0.887 22.0923 5.637 22.0923 11.497C22.0923 17.357 17.3523 22.087 11.4923 22.087ZM11.8623 5.887V3.617C11.8623 3.387 11.7023 3.247 11.4823 3.247C11.2723 3.247 11.1223 3.387 11.1223 3.617V5.887C11.1223 6.097 11.2823 6.267 11.4823 6.267C11.7023 6.267 11.8623 6.067 11.8623 5.887ZM14.6923 8.067C14.8323 8.217 15.0723 8.207 15.2123 8.077L16.8023 6.467C16.9523 6.317 16.9523 6.107 16.8323 5.967C16.6923 5.817 16.4423 5.767 16.3023 5.927L14.7023 7.537C14.5623 7.667 14.5223 7.897 14.6923 8.067ZM7.7823 8.077C7.9123 8.207 8.1423 8.217 8.2823 8.067C8.4623 7.897 8.4023 7.667 8.2723 7.537L6.6823 5.927C6.5323 5.767 6.2923 5.827 6.1523 5.967C6.0223 6.107 6.0223 6.317 6.1723 6.467ZM14.9523 11.257C14.9523 9.337 13.4023 7.797 11.4823 7.797C9.5723 7.797 8.0323 9.337 8.0323 11.257C8.0323 11.827 8.1523 12.347 8.4123 12.817H14.5623C14.8123 12.347 14.9523 11.827 14.9523 11.257ZM4.3223 11.477H6.5723C6.8223 11.477 6.9723 11.327 6.9723 11.097C6.9723 10.887 6.8123 10.727 6.5723 10.727H4.3223C4.1123 10.727 3.9423 10.897 3.9423 11.097C3.9423 11.307 4.1123 11.477 4.3223 11.477ZM16.4023 11.477H18.6523C18.8823 11.477 19.0423 11.327 19.0423 11.097C19.0423 10.887 18.8823 10.727 18.6523 10.727H16.4023C16.1723 10.727 16.0123 10.887 16.0123 11.097C16.0123 11.317 16.1923 11.477 16.4023 11.477ZM4.3223 14.237H18.6523C18.8823 14.237 19.0423 14.097 19.0423 13.877C19.0423 13.667 18.8823 13.527 18.6523 13.527H4.3223C4.1123 13.527 3.9423 13.677 3.9423 13.877C3.9423 14.097 4.1123 14.237 4.3223 14.237ZM7.6923 18.397C7.8623 18.397 7.9423 18.257 7.9423 18.097L7.9223 17.257L8.6223 17.697C8.7423 17.777 8.9223 17.757 9.0023 17.627C9.0923 17.497 9.0323 17.317 8.8723 17.237L8.1523 16.867L8.8723 16.477C9.0223 16.397 9.0923 16.247 9.0123 16.087C8.9323 15.947 8.7623 15.957 8.6223 16.027L7.9223 16.467L7.9423 15.647C7.9423 15.467 7.8623 15.327 7.6923 15.327C7.5223 15.327 7.4423 15.467 7.4423 15.647L7.4623 16.467L6.7623 16.027C6.6223 15.947 6.4523 15.947 6.3723 16.087C6.2823 16.247 6.3623 16.397 6.5123 16.477L7.2423 16.867L6.5123 17.237C6.3523 17.327 6.2823 17.487 6.3623 17.617C6.4523 17.767 6.6123 17.787 6.7623 17.697L7.4623 17.257L7.4423 18.097C7.4423 18.257 7.5223 18.397 7.6923 18.397ZM11.4823 18.397C11.6623 18.397 11.7423 18.257 11.7423 18.097L11.7223 17.257L12.4223 17.697C12.5523 17.777 12.7123 17.757 12.8123 17.627C12.9023 17.497 12.8323 17.317 12.6723 17.237L11.9523 16.867L12.6723 16.477C12.8323 16.397 12.8923 16.247 12.8123 16.087C12.7223 15.947 12.5623 15.957 12.4223 16.027L11.7223 16.467L11.7423 15.647C11.7423 15.467 11.6623 15.327 11.4823 15.327C11.3323 15.327 11.2423 15.467 11.2423 15.647L11.2623 16.467L10.5623 16.027C10.4223 15.947 10.2523 15.947 10.1823 16.087C10.0823 16.247 10.1723 16.397 10.3123 16.477L11.0423 16.867L10.3123 17.237C10.1623 17.327 10.0823 17.487 10.1723 17.617C10.2523 17.767 10.4023 17.787 10.5623 17.697L11.2623 17.257L11.2523 18.097C11.2423 18.257 11.3323 18.397 11.4823 18.397ZM15.2923 18.397C15.4523 18.397 15.5523 18.257 15.5523 18.097L15.5323 17.257L16.2323 17.697C16.3523 17.777 16.5223 17.757 16.6023 17.627C16.7023 17.497 16.6123 17.317 16.4723 17.237L15.7623 16.867L16.4723 16.477C16.6123 16.397 16.7123 16.247 16.6023 16.087C16.5323 15.947 16.3623 15.947 16.2323 16.027L15.5323 16.467L15.5523 15.647C15.5523 15.467 15.4523 15.327 15.2923 15.327C15.1323 15.327 15.0423 15.467 15.0423 15.647L15.0723 16.467L14.3623 16.027C14.2223 15.947 14.0623 15.947 13.9823 16.087C13.8723 16.247 13.9723 16.397 14.1223 16.477L14.8323 16.867L14.1223 17.237C13.9423 17.327 13.9023 17.487 13.9723 17.617C14.0523 17.767 14.2123 17.787 14.3623 17.697L15.0723 17.257L15.0423 18.097C15.0423 18.257 15.1323 18.397 15.2923 18.397Z" />
        </svg>
    