
        <svg xmlns="http://www.w3.org/2000/svg" viewBox="0 0 100 100">
            <path d="M12.7923 25.5961C19.8723 25.5961 25.6023 19.8661 25.6023 12.7961C25.6023 5.7261 19.8723 -0.0039 12.7923 -0.0039C5.7323 -0.0039 0.0023 5.7261 0.0023 12.7961C0.0023 19.8661 5.7323 25.5961 12.7923 25.5961ZM13.6623 8.5061C13.6623 8.9761 13.2623 9.3861 12.7923 9.3861C12.3323 9.3861 11.9323 8.9761 11.9323 8.5061V7.5461C11.9323 7.0461 12.3323 6.6461 12.7923 6.6461C13.2623 6.6461 13.6623 7.0461 13.6623 7.5461ZM15.6523 10.6661C15.3323 10.3261 15.3323 9.7961 15.6723 9.4361L16.3523 8.7561C16.7023 8.3861 17.2523 8.3861 17.5923 8.7261C17.9323 9.0561 17.9423 9.6361 17.5823 9.9861L16.9023 10.6361C16.5423 10.9961 16.0123 11.0061 15.6523 10.6661ZM8.6923 10.6361L8.0123 9.9861C7.6623 9.6361 7.6723 9.0561 8.0123 8.7261C8.3523 8.3861 8.9023 8.3861 9.2423 8.7561L9.9223 9.4361C10.2823 9.7861 10.2823 10.3261 9.9523 10.6661C9.6023 11.0061 9.0623 10.9961 8.6923 10.6361ZM16.0923 13.4861C16.0923 13.6961 16.0923 13.9461 16.0423 14.1161H9.5623C9.5123 13.9461 9.5023 13.6961 9.5023 13.4861C9.5023 11.6561 10.9923 10.1961 12.7923 10.1961C14.6123 10.1961 16.0923 11.6561 16.0923 13.4861ZM6.9123 13.8361C6.4323 13.8361 6.0223 13.4461 6.0223 12.9861C6.0223 12.4961 6.4323 12.0961 6.9123 12.0961H7.8623C8.3623 12.0961 8.7523 12.4961 8.7523 12.9861C8.7523 13.4461 8.3623 13.8361 7.8623 13.8361ZM17.7423 13.8361C17.2623 13.8361 16.8423 13.4461 16.8423 12.9861C16.8423 12.4961 17.2623 12.0961 17.7423 12.0961H18.6823C19.1723 12.0961 19.5823 12.4961 19.5823 12.9861C19.5823 13.4461 19.1723 13.8361 18.6823 13.8361ZM7.0923 17.2761C6.4923 17.2761 6.0223 16.7361 6.0223 16.1861C6.0223 15.6161 6.4723 15.0861 7.0923 15.0861H18.5023C19.1323 15.0861 19.5823 15.6061 19.5823 16.1861C19.5823 16.7461 19.1323 17.2761 18.5023 17.2761Z" />
        </svg>
    