
        <svg xmlns="http://www.w3.org/2000/svg" viewBox="0 0 100 100">
            <path d="M20.1423 5.7777C20.4123 5.7777 20.6323 5.9277 20.7623 6.2077L21.9423 8.8977C23.6323 12.7777 26.6723 14.2777 29.8723 14.2777C34.5723 14.2777 37.6123 11.2877 38.7923 5.7977L39.0723 4.4277C39.3623 3.0077 40.3023 2.4977 40.3023 1.4877C40.3023 0.6477 39.6923 -0.0023 38.4823 -0.0023C34.5023 -0.0023 30.6923 0.2077 28.5223 0.5277C24.2223 1.1677 22.2223 2.3477 20.1423 2.3477C18.0823 2.3477 16.0623 1.1677 11.7823 0.5277C9.6123 0.2077 5.8023 -0.0023 1.8123 -0.0023C0.6123 -0.0023 0.0023 0.6477 0.0023 1.4877C0.0023 2.4977 0.9423 3.0077 1.2323 4.4277L1.5123 5.7977C2.6823 11.2877 5.7323 14.2777 10.4323 14.2777C13.6323 14.2777 16.6623 12.7777 18.3623 8.8977L19.5323 6.2077C19.6623 5.9277 19.8823 5.7777 20.1423 5.7777Z" />
        </svg>
    