
        <svg xmlns="http://www.w3.org/2000/svg" viewBox="0 0 100 100">
            <path d="M12.1023 24.2147C18.7823 24.2147 24.2123 18.7847 24.2123 12.1047C24.2123 5.4247 18.7823 0.0047 12.1023 0.0047C5.4223 0.0047 0.0023 5.4247 0.0023 12.1047C0.0023 18.7847 5.4223 24.2147 12.1023 24.2147ZM12.1023 9.7047C11.7323 9.7047 11.4423 9.3747 11.4423 8.9847V6.9147L11.4723 6.5347L11.4423 6.5647L10.7023 7.3147C10.5723 7.4247 10.4023 7.5247 10.2223 7.5247C9.8823 7.5247 9.6323 7.2747 9.6323 6.9447C9.6323 6.7647 9.7023 6.6047 9.8423 6.4547L11.6523 4.7847C11.8023 4.6447 11.9423 4.5747 12.1023 4.5747C12.2723 4.5747 12.4123 4.6447 12.5623 4.7847L14.3623 6.4547C14.5223 6.6047 14.5923 6.7647 14.5923 6.9447C14.5923 7.2747 14.3323 7.5247 13.9923 7.5247C13.8123 7.5247 13.6323 7.4447 13.5223 7.3147L12.8523 6.6047L12.7423 6.5047L12.7723 6.9147V8.9847C12.7723 9.3747 12.4823 9.7047 12.1023 9.7047ZM15.0123 11.2147C14.7523 10.9447 14.7523 10.5347 15.0423 10.2447L16.0223 9.2647C16.3023 8.9847 16.7223 8.9747 16.9923 9.2447C17.2423 9.5147 17.2223 9.9247 16.9423 10.2147L15.9823 11.1947C15.6923 11.4747 15.2823 11.4747 15.0123 11.2147ZM8.2423 11.1947L7.2623 10.2147C6.9723 9.9247 6.9723 9.5147 7.2323 9.2447C7.4923 9.0047 7.9023 8.9747 8.1923 9.2647L9.1623 10.2447C9.4423 10.5247 9.4823 10.9447 9.2123 11.2147C8.9523 11.4847 8.5223 11.4647 8.2423 11.1947ZM15.4323 14.1047C15.4323 14.4347 15.3723 14.7747 15.2623 15.0847H8.9523C8.8323 14.7747 8.7923 14.4347 8.7923 14.1047C8.7923 12.2947 10.2923 10.7847 12.1023 10.7847C13.9323 10.7847 15.4323 12.2947 15.4323 14.1047ZM5.9223 14.5647C5.5223 14.5647 5.2123 14.2647 5.2123 13.9147C5.2123 13.5347 5.5223 13.2347 5.9223 13.2347H7.2823C7.6923 13.2347 8.0023 13.5347 8.0023 13.9147C8.0023 14.2747 7.6923 14.5647 7.2823 14.5647ZM16.9323 14.5647C16.5323 14.5647 16.2223 14.2747 16.2223 13.9147C16.2223 13.5347 16.5323 13.2347 16.9323 13.2347H18.2923C18.7023 13.2347 18.9923 13.5347 18.9923 13.9147C18.9923 14.2647 18.7023 14.5647 18.2923 14.5647ZM5.9423 17.2547C5.5523 17.2547 5.2123 16.9447 5.2123 16.5547C5.2123 16.1747 5.5423 15.8547 5.9423 15.8547H18.2723C18.6723 15.8547 18.9923 16.1747 18.9923 16.5547C18.9923 16.9447 18.6523 17.2547 18.2723 17.2547Z" />
        </svg>
    