
        <svg xmlns="http://www.w3.org/2000/svg" viewBox="0 0 100 100">
            <path d="M15.0217 9.6925C15.5817 9.6925 16.0517 9.1825 16.0517 8.5625V4.4025L15.8917 2.5625L16.7217 3.6025L18.0717 4.9825C18.2717 5.1925 18.5117 5.3325 18.8017 5.3325C19.3217 5.3325 19.7017 4.9525 19.7017 4.4525C19.7017 4.1625 19.5817 3.9325 19.3517 3.7125L15.7417 0.3425C15.4717 0.0925 15.2717 0.0025 15.0217 0.0025C14.7617 0.0025 14.5617 0.0925 14.3017 0.3425L10.6917 3.7125C10.4517 3.9325 10.3317 4.1625 10.3317 4.4525C10.3317 4.9525 10.7117 5.3325 11.2417 5.3325C11.5217 5.3325 11.7617 5.1925 11.9617 4.9825L13.4017 3.4925L14.1417 2.5625L13.9817 4.4025V8.5625C13.9817 9.1825 14.4517 9.6925 15.0217 9.6925ZM21.0717 12.8225C21.4817 13.2225 22.1517 13.2025 22.6017 12.7525L24.5317 10.8425C24.9817 10.3825 24.9717 9.7125 24.5717 9.3025C24.1717 8.9025 23.5117 8.9025 23.0517 9.3625L21.1317 11.2825C20.6717 11.7325 20.6617 12.4225 21.0717 12.8225ZM7.4317 12.7525C7.8917 13.2025 8.5617 13.2225 8.9617 12.8225C9.3617 12.4125 9.3617 11.7325 8.9017 11.2825L6.9817 9.3625C6.5317 8.9025 5.8617 8.9025 5.4617 9.3025C5.0517 9.7025 5.0517 10.3825 5.5117 10.8425ZM21.3717 18.8425C21.3717 15.3625 18.5017 12.4725 15.0217 12.4725C11.5317 12.4725 8.6617 15.3625 8.6617 18.8425C8.6617 19.6025 8.8117 20.3325 9.0917 20.9925H20.9417C21.2217 20.3325 21.3717 19.6025 21.3717 18.8425ZM2.6117 19.4525L5.3317 19.4625C5.9717 19.4625 6.4717 18.9925 6.4717 18.4225C6.4617 17.8525 5.9717 17.3825 5.3317 17.3825H2.6117C1.9817 17.3825 1.5017 17.8525 1.5017 18.4225C1.5017 18.9925 1.9817 19.4525 2.6117 19.4525ZM24.7017 19.4525H27.4217C28.0617 19.4525 28.5317 18.9925 28.5317 18.4225C28.5317 17.8525 28.0617 17.3825 27.4217 17.3825H24.7017C24.0617 17.3825 23.5617 17.8525 23.5617 18.4225C23.5817 18.9925 24.0717 19.4525 24.7017 19.4525ZM1.1617 24.7025H28.8717C29.5117 24.7025 30.0317 24.1925 30.0317 23.5925C30.0317 22.9825 29.5117 22.4725 28.8717 22.4725H1.1617C0.5317 22.4725 0.0017 22.9925 0.0017 23.5925C0.0017 24.1925 0.5317 24.7025 1.1617 24.7025Z" />
        </svg>
    