
        <svg xmlns="http://www.w3.org/2000/svg" viewBox="0 0 100 100">
            <path d="M15.0217 -0.003C14.7817 -0.003 14.5817 0.207 14.5817 0.457V5.347L14.6517 7.407L13.4417 6.157L11.5117 4.187C11.4117 4.087 11.3117 4.047 11.2017 4.047C10.9717 4.047 10.7917 4.217 10.7917 4.467C10.7917 4.607 10.8617 4.707 10.9817 4.837L14.7117 8.497C14.8017 8.587 14.9217 8.637 15.0217 8.637C15.1217 8.637 15.2317 8.587 15.3317 8.497L19.0517 4.837C19.1717 4.707 19.2417 4.607 19.2417 4.467C19.2417 4.217 19.0617 4.047 18.8317 4.047C18.7217 4.047 18.6217 4.087 18.5317 4.187L16.6217 6.127L15.3917 7.407L15.4617 5.347V0.457C15.4617 0.207 15.2617 -0.003 15.0217 -0.003ZM21.0617 12.007C21.2217 12.167 21.5017 12.167 21.6717 11.997L24.5717 9.097C24.7617 8.917 24.7517 8.657 24.5717 8.497C24.4317 8.327 24.1517 8.317 23.9717 8.497L21.0617 11.407C20.9017 11.567 20.8917 11.847 21.0617 12.007ZM8.9717 12.007C9.1317 11.847 9.1317 11.567 8.9717 11.407L6.0617 8.497C5.8817 8.317 5.6117 8.327 5.4617 8.497C5.2817 8.647 5.2717 8.917 5.4617 9.097L8.3717 11.997C8.5317 12.167 8.8117 12.167 8.9717 12.007ZM0.4817 22.967H29.5517C29.8217 22.967 30.0317 22.797 30.0317 22.547C30.0317 22.317 29.8217 22.127 29.5517 22.127H19.5717C20.5517 21.047 21.1517 19.617 21.1517 18.047C21.1517 14.687 18.3917 11.917 15.0217 11.917C11.6517 11.917 8.8817 14.687 8.8817 18.047C8.8817 19.617 9.4817 21.047 10.4617 22.127H0.4817C0.2117 22.127 0.0017 22.317 0.0017 22.547C0.0017 22.797 0.2117 22.967 0.4817 22.967ZM9.7417 18.047C9.7417 15.137 12.1017 12.777 15.0217 12.777C17.9317 12.777 20.3017 15.137 20.3017 18.047C20.3017 19.697 19.5217 21.177 18.3317 22.127H11.7117C10.5117 21.177 9.7417 19.697 9.7417 18.047ZM1.9317 18.177H6.0517C6.3017 18.177 6.4817 17.977 6.4817 17.757C6.4717 17.517 6.2917 17.327 6.0517 17.327H1.9317C1.7017 17.327 1.5017 17.517 1.5017 17.757C1.5017 17.977 1.7017 18.177 1.9317 18.177ZM23.9917 18.177H28.1017C28.3517 18.177 28.5317 17.977 28.5317 17.757C28.5317 17.517 28.3517 17.327 28.1017 17.327H23.9917C23.7617 17.327 23.5517 17.517 23.5517 17.757C23.5617 17.977 23.7617 18.177 23.9917 18.177Z" />
        </svg>
    