
        <svg xmlns="http://www.w3.org/2000/svg" viewBox="0 0 100 100">
            <path d="M15.0217 0.0025C14.4517 0.0025 13.9817 0.5025 13.9817 1.1125V5.2725L14.1417 7.1125L13.4017 6.1825L11.9617 4.7025C11.7617 4.4925 11.5217 4.3625 11.2417 4.3625C10.7117 4.3625 10.3317 4.7325 10.3317 5.2425C10.3317 5.5325 10.4517 5.7525 10.6917 5.9625L14.3017 9.3525C14.5617 9.6025 14.7617 9.6925 15.0217 9.6925C15.2717 9.6925 15.4717 9.6025 15.7417 9.3525L19.3517 5.9625C19.5817 5.7525 19.7017 5.5325 19.7017 5.2425C19.7017 4.7325 19.3217 4.3625 18.8017 4.3625C18.5117 4.3625 18.2717 4.4925 18.0717 4.7025L16.7217 6.0925L15.8917 7.1125L16.0517 5.2725V1.1125C16.0517 0.5025 15.5817 0.0025 15.0217 0.0025ZM21.0717 12.8525C21.4817 13.2525 22.1517 13.2425 22.6017 12.7925L24.5317 10.8725C24.9817 10.4225 24.9717 9.7525 24.5717 9.3425C24.1717 8.9425 23.5117 8.9425 23.0517 9.4025L21.1317 11.3225C20.6717 11.7725 20.6617 12.4525 21.0717 12.8525ZM8.9617 12.8525C9.3617 12.4425 9.3617 11.7725 8.9017 11.3225L6.9817 9.4025C6.5317 8.9425 5.8617 8.9525 5.4617 9.3425C5.0517 9.7425 5.0517 10.4225 5.5117 10.8725L7.4317 12.7925C7.8917 13.2425 8.5617 13.2625 8.9617 12.8525ZM1.1617 24.7025H28.8717C29.5117 24.7025 30.0317 24.1925 30.0317 23.5925C30.0317 22.9825 29.5117 22.4725 28.8717 22.4725H20.3017C21.0217 21.4725 21.4317 20.2225 21.4317 18.9025C21.4317 15.3625 18.5317 12.4725 15.0217 12.4725C11.5117 12.4725 8.6017 15.3625 8.6017 18.9025C8.6017 20.2225 9.0117 21.4725 9.7417 22.4725H1.1617C0.5317 22.4725 0.0017 22.9925 0.0017 23.5925C0.0017 24.1925 0.5317 24.7025 1.1617 24.7025ZM10.7217 18.9025C10.7217 16.5325 12.6717 14.6025 15.0217 14.6025C17.3717 14.6025 19.3117 16.5325 19.3117 18.9025C19.3117 20.3925 18.5517 21.7125 17.4217 22.4725H12.6117C11.4817 21.7125 10.7217 20.3925 10.7217 18.9025ZM2.6117 19.5025H5.3317C5.9717 19.5025 6.4717 19.0325 6.4717 18.4525C6.4617 17.8825 5.9717 17.4125 5.3317 17.4125H2.6117C1.9817 17.4125 1.5017 17.8825 1.5017 18.4525C1.5017 19.0325 1.9817 19.5025 2.6117 19.5025ZM24.7017 19.5025H27.4217C28.0617 19.5025 28.5317 19.0325 28.5317 18.4525C28.5317 17.8825 28.0617 17.4125 27.4217 17.4125H24.7017C24.0617 17.4125 23.5617 17.8825 23.5617 18.4525C23.5817 19.0325 24.0717 19.5025 24.7017 19.5025Z" />
        </svg>
    