
        <svg xmlns="http://www.w3.org/2000/svg" viewBox="0 0 100 100">
            <path d="M11.3523 22.7064C17.6323 22.7064 22.7123 17.6264 22.7123 11.3564C22.7123 5.0764 17.6323 -0.0036 11.3523 -0.0036C5.0823 -0.0036 0.0023 5.0764 0.0023 11.3564C0.0023 17.6264 5.0823 22.7064 11.3523 22.7064ZM11.3523 22.1364C5.3923 22.1364 0.5723 17.3164 0.5723 11.3564C0.5723 5.3864 5.3923 0.5764 11.3523 0.5764C17.3223 0.5764 22.1323 5.3864 22.1323 11.3564C22.1323 17.3164 17.3223 22.1364 11.3523 22.1364ZM11.3523 3.7064C11.1823 3.7064 11.0523 3.8364 11.0523 3.9964V6.6664L11.0723 7.4364L10.6323 6.9764L9.5523 5.9064C9.4923 5.8464 9.4223 5.7764 9.3123 5.7764C9.1423 5.7764 9.0123 5.9164 9.0123 6.0964C9.0123 6.1864 9.0623 6.2664 9.1723 6.3864L11.1523 8.3664C11.1923 8.4164 11.2823 8.4364 11.3523 8.4364C11.4223 8.4364 11.5223 8.4164 11.5623 8.3664L13.5423 6.3864C13.6723 6.2564 13.7123 6.1864 13.7123 6.0964C13.7123 5.9164 13.5723 5.7764 13.3923 5.7764C13.3223 5.7764 13.2323 5.8164 13.1723 5.8664L12.1023 6.9764L11.6323 7.4364L11.6723 6.6664V3.9964C11.6723 3.8364 11.5323 3.7064 11.3523 3.7064ZM7.8523 10.2464C7.9323 10.3364 8.1423 10.3264 8.2423 10.2264C8.3923 10.0764 8.3323 9.8864 8.2423 9.7964L6.5723 8.1064C6.4523 7.9964 6.2623 8.0364 6.1623 8.1564C6.0623 8.2764 6.0623 8.4364 6.1723 8.5564ZM14.4723 10.2264C14.5823 10.3264 14.7823 10.3264 14.8723 10.2464L16.5423 8.5564C16.6523 8.4364 16.6523 8.2764 16.5623 8.1564C16.4523 8.0364 16.2623 7.9964 16.1523 8.1064L14.4723 9.7964C14.3923 9.8864 14.3223 10.0764 14.4723 10.2264ZM14.6923 13.3164C14.6923 11.4764 13.1923 9.9764 11.3523 9.9764C9.5123 9.9764 8.0123 11.4764 8.0123 13.3164C8.0123 13.9264 8.1723 14.4764 8.4523 14.9664H14.2723C14.5423 14.4764 14.6923 13.9264 14.6923 13.3164ZM4.3023 13.4564H6.6823C6.8523 13.4564 6.9723 13.3364 6.9723 13.1564C6.9723 13.0064 6.8323 12.8664 6.6823 12.8664H4.3023C4.1323 12.8664 4.0123 13.0064 4.0123 13.1564C4.0123 13.3264 4.1323 13.4564 4.3023 13.4564ZM16.0423 13.4564H18.4223C18.6023 13.4564 18.7123 13.3364 18.7123 13.1564C18.7123 12.9864 18.6023 12.8664 18.4223 12.8664H16.0423C15.8823 12.8664 15.7523 13.0064 15.7523 13.1564C15.7523 13.3364 15.9123 13.4564 16.0423 13.4564ZM4.3023 16.1364H18.4223C18.6023 16.1364 18.7123 16.0164 18.7123 15.8564C18.7123 15.6764 18.6023 15.5664 18.4223 15.5664H4.3023C4.1323 15.5664 4.0123 15.7064 4.0123 15.8564C4.0123 16.0164 4.1323 16.1364 4.3023 16.1364Z" />
        </svg>
    