
        <svg xmlns="http://www.w3.org/2000/svg" viewBox="0 0 100 100">
            <path d="M8.9917 18.3784C10.7117 18.3784 12.1417 17.2884 12.6317 15.7384H28.6217C29.1117 17.2884 30.5417 18.3784 32.2617 18.3784C33.9917 18.3784 35.4217 17.2884 35.9017 15.7384H37.8617C39.7217 15.7384 40.5917 14.7684 40.5917 12.7484V7.6684C40.5917 6.2384 40.0917 4.6784 39.2017 3.3784L38.6717 2.5984C37.4217 0.7884 35.7617 -0.0016 33.2017 -0.0016H24.1617C19.4217 -0.0016 17.5817 0.4384 14.7817 2.1984L12.5617 3.5884L13.4517 4.7484L15.5517 3.4384C18.1317 1.8184 19.6617 1.4384 24.1617 1.4384H33.2017C35.2617 1.4384 36.5117 2.0284 37.4717 3.4384L38.0017 4.1984C38.7417 5.2884 39.1517 6.4884 39.1517 7.6684V12.8284C39.1517 13.8084 38.7317 14.2884 37.7917 14.2884H36.0817C35.9517 12.2684 34.3217 10.7184 32.2617 10.7184C30.2117 10.7184 28.5817 12.2684 28.4517 14.2884H12.8117C12.6817 12.2684 11.0517 10.7184 8.9917 10.7184C6.9217 10.7184 5.3017 12.2684 5.1717 14.2884H2.8117C1.9317 14.2884 1.4517 13.7484 1.4517 12.7584V10.9384C1.4517 8.7184 2.8517 7.4984 5.8917 7.1284L10.0117 6.6184L9.0017 5.2684L5.7217 5.6884C1.8917 6.1484 0.0017 7.8984 0.0017 10.9384V12.9284C0.0017 14.7084 0.9917 15.7384 2.7417 15.7384H5.3417C5.8317 17.2884 7.2617 18.3784 8.9917 18.3784ZM15.2417 8.7284H18.0217V9.9284C18.0217 10.5684 18.6117 10.7584 19.0917 10.4484L22.0117 8.5784C22.4617 8.2884 22.4617 7.7384 21.9917 7.4284L19.0917 5.5684C18.6117 5.2484 18.0217 5.4384 18.0217 6.0784V7.2784H15.2417C14.1817 7.2784 13.6717 7.0084 12.9717 6.0984L9.6817 1.8084C8.7617 0.6084 7.7317 0.1484 6.1017 0.1484H3.1017C2.7117 0.1484 2.3817 0.4784 2.3817 0.8684C2.3817 1.2684 2.7117 1.5984 3.1017 1.5984H6.1017C7.3617 1.5984 7.9217 1.8484 8.5517 2.6884L11.8117 6.9984C12.7517 8.2184 13.7317 8.7284 15.2417 8.7284ZM8.9917 16.9184C7.6517 16.9184 6.6117 15.8784 6.6117 14.5384C6.6117 13.2084 7.6517 12.1684 8.9917 12.1684C10.3217 12.1684 11.3717 13.2084 11.3717 14.5384C11.3717 15.8784 10.3217 16.9184 8.9917 16.9184ZM32.2617 16.9184C30.9217 16.9184 29.8917 15.8784 29.8917 14.5384C29.8917 13.2084 30.9217 12.1684 32.2617 12.1684C33.6017 12.1684 34.6417 13.2084 34.6417 14.5384C34.6417 15.8784 33.6017 16.9184 32.2617 16.9184Z" />
        </svg>
    