
        <svg xmlns="http://www.w3.org/2000/svg" viewBox="0 0 100 100">
            <path d="M10.3023 24.9171L12.0823 23.8871C13.1023 24.7671 14.5823 24.9471 15.8223 24.2271C17.0723 23.5071 17.6623 22.1271 17.4023 20.8171L28.6923 14.3071C29.7123 15.1871 31.1823 15.3571 32.4223 14.6471C33.6823 13.9171 34.2623 12.5471 34.0123 11.2371L35.2723 10.4971C36.7123 9.6671 36.9423 8.5471 35.9923 6.9171L33.9723 3.4071C33.3723 2.3871 32.3223 1.4271 31.1223 0.8671L30.4423 0.5371C28.7123 -0.2829 27.2323 -0.1729 25.3223 0.9371L18.9023 4.6371C15.5123 6.5971 14.3523 7.6971 13.0623 10.1171L10.9623 14.1171L8.1023 16.2571C5.4923 18.2271 4.8523 20.3171 6.1523 22.5671L6.9623 23.9871C7.7323 25.3171 8.9923 25.6671 10.3023 24.9171ZM8.1923 23.0471L7.4723 21.8071C6.6223 20.3271 7.1223 18.9371 9.0323 17.4771L12.1423 15.1271L14.4223 10.8471C15.5823 8.6671 16.5123 7.7771 19.6623 5.9571L26.0823 2.2571C27.5023 1.4371 28.5623 1.3571 29.7923 1.9171L30.4723 2.2471C31.3823 2.6771 32.1923 3.3971 32.6523 4.1671L34.7223 7.7671C35.1023 8.4171 35.0123 8.8771 34.4323 9.2171L33.3723 9.8271C32.3923 8.5471 30.6323 8.1771 29.1823 9.0171C27.7423 9.8471 27.1723 11.5571 27.8023 13.0471L16.7623 19.4171C15.7723 18.1371 14.0323 17.7771 12.5723 18.6071C11.1323 19.4371 10.5723 21.1471 11.1923 22.6371L9.6123 23.5471C9.0823 23.8571 8.5523 23.6671 8.1923 23.0471ZM31.6623 13.3171C30.8323 13.7971 29.8023 13.5271 29.3223 12.6871C28.8423 11.8571 29.1123 10.8271 29.9423 10.3471C30.7823 9.8471 31.8123 10.1271 32.3023 10.9671C32.7823 11.8071 32.5123 12.8271 31.6623 13.3171ZM7.3023 32.0571C7.5823 32.5271 8.1523 32.6571 8.5923 32.4171L39.0023 14.8671C39.4323 14.6271 39.5823 14.0471 39.3423 13.5971C39.0723 13.1271 38.4823 12.9871 38.0523 13.2371L7.6423 30.7971C7.2223 31.0271 7.0523 31.6171 7.3023 32.0571ZM15.0623 22.9071C14.2223 23.3871 13.1923 23.1171 12.7123 22.2771C12.2223 21.4371 12.5023 20.4071 13.3323 19.9271C14.1823 19.4471 15.2123 19.7171 15.6923 20.5471C16.1723 21.3971 15.9023 22.4271 15.0623 22.9071ZM5.2723 26.3171L2.8223 22.0471C2.4123 21.3271 1.5823 21.5071 1.3523 22.2071L0.0623 25.8271C-0.1177 26.3171 0.1023 26.7171 0.6323 26.8071L4.3923 27.5071C5.1323 27.6471 5.6923 27.0171 5.2723 26.3171Z" />
        </svg>
    