
        <svg xmlns="http://www.w3.org/2000/svg" viewBox="0 0 100 100">
            <path d="M0.0017 3.8344V22.2144H6.1417C6.0817 21.9044 6.0617 21.5844 6.0617 21.2344C6.0617 18.4444 8.3317 16.1744 11.1217 16.1744C13.9217 16.1744 16.1817 18.4344 16.1817 21.2344C16.1817 21.5844 16.1517 21.9044 16.0817 22.2144H17.4817C19.7817 22.2144 20.8217 21.0344 20.8217 18.4244V12.7744C20.8217 11.1444 20.2217 9.2444 19.1917 7.7444L18.5817 6.8744C18.0617 6.1144 17.5117 5.5244 16.8617 5.0644L19.8117 2.0744C20.0717 1.8044 20.4017 1.6844 20.7817 1.6844H22.9917C23.5317 1.6844 23.8717 1.3444 23.8717 0.8444C23.8717 0.3444 23.5317 0.0044 22.9917 0.0044H20.9717C19.9817 0.0044 19.1217 0.2944 18.4417 0.9744L15.2317 4.2344C14.3517 3.9344 13.3517 3.8044 12.1517 3.8044H1.8617C1.1917 3.8044 0.5717 3.8244 0.0017 3.8344ZM11.1217 24.9344C13.1717 24.9344 14.8117 23.2844 14.8117 21.2344C14.8117 19.1844 13.1717 17.5444 11.1217 17.5444C9.0817 17.5444 7.4217 19.1944 7.4217 21.2344C7.4217 23.2844 9.0717 24.9344 11.1217 24.9344Z" />
        </svg>
    