
        <svg xmlns="http://www.w3.org/2000/svg" viewBox="0 0 100 100">
            <path d="M23.2817 10.8894C22.4317 10.8894 21.8817 10.3594 21.8417 9.4994L21.6817 4.9294C22.6017 4.8494 23.6517 4.8194 24.8717 4.8194L24.9717 1.6894C25.0117 0.6794 24.3317 -0.0006 23.2717 -0.0006C22.2117 -0.0006 21.5317 0.6794 21.5617 1.6894L21.6817 4.9294C19.0617 5.1794 17.4217 5.7994 15.2817 7.1394L10.6017 10.0794L6.3017 10.6094C2.1217 11.1094 0.0017 13.0794 0.0017 16.4894V18.4994C0.0017 20.6694 1.2817 21.9294 3.3517 21.9294H4.9617C4.8917 21.5894 4.8417 21.2194 4.8417 20.8494C4.8417 18.1394 7.0317 15.9494 9.7417 15.9494C12.4417 15.9494 14.6517 18.1394 14.6517 20.8494C14.6517 21.2194 14.6017 21.5894 14.5217 21.9294H28.6317C28.5517 21.5894 28.5117 21.2194 28.5117 20.8494C28.5117 18.1494 30.7117 15.9494 33.4117 15.9494C36.1217 15.9494 38.3217 18.1394 38.3217 20.8494C38.3217 21.2194 38.2717 21.5894 38.1917 21.9294H39.3717C41.5317 21.9294 42.6317 20.7194 42.6317 18.3594V13.1694C42.6317 11.6394 42.0517 9.8794 41.1017 8.4794L40.5717 7.7094C39.1517 5.6494 37.4017 4.8194 34.5517 4.8194H25.1417C25.0417 4.8194 24.9617 4.8194 24.8717 4.8194L24.7117 9.4894C24.6817 10.3594 24.1317 10.8894 23.2817 10.8894ZM23.2817 16.5894C22.1817 16.5894 21.3417 15.7994 21.3417 14.7694C21.3417 13.7294 22.1717 12.9494 23.2817 12.9494C24.3917 12.9494 25.2217 13.7294 25.2217 14.7694C25.2217 15.7994 24.3717 16.5894 23.2817 16.5894ZM9.7417 24.2594C11.6417 24.2594 13.1517 22.7494 13.1517 20.8494C13.1517 18.9594 11.6217 17.4394 9.7417 17.4394C7.8617 17.4394 6.3317 18.9594 6.3317 20.8494C6.3317 22.7294 7.8617 24.2594 9.7417 24.2594ZM33.4117 24.2594C35.3017 24.2594 36.8217 22.7294 36.8217 20.8494C36.8217 18.9594 35.3017 17.4394 33.4117 17.4394C31.5317 17.4394 30.0017 18.9694 30.0017 20.8494C30.0017 22.7294 31.5217 24.2594 33.4117 24.2594Z" />
        </svg>
    