
        <svg xmlns="http://www.w3.org/2000/svg" viewBox="0 0 100 100">
            <path d="M1.0217 1.997H5.3717C5.8617 1.997 6.2017 2.107 6.5017 2.417L10.2817 6.177L7.0517 6.577C2.4517 7.137 0.1317 9.277 0.1317 13.017V15.277C0.1317 17.597 1.4917 18.957 3.7117 18.957H5.6717C5.6017 18.597 5.5617 18.237 5.5617 17.847C5.5617 14.907 7.9417 12.527 10.8917 12.527C13.8117 12.527 16.1917 14.907 16.1917 17.847C16.1917 18.237 16.1617 18.597 16.0817 18.957H22.1517V0.537C20.3817 0.917 18.9517 1.567 17.2217 2.657L12.5717 5.577L8.0317 1.027C7.3017 0.307 6.4317 -0.003 5.2217 -0.003H1.0217C0.4017 -0.003 0.0017 0.397 0.0017 0.987C0.0017 1.567 0.3917 1.997 1.0217 1.997ZM10.8917 21.727C13.0417 21.727 14.7517 20.007 14.7517 17.847C14.7517 15.707 13.0317 13.967 10.8917 13.967C8.7317 13.967 6.9917 15.707 6.9917 17.847C6.9917 19.997 8.7317 21.727 10.8917 21.727Z" />
        </svg>
    