
        <svg xmlns="http://www.w3.org/2000/svg" viewBox="0 0 100 100">
            <path d="M1.3017 2.5237H4.8017C5.3417 2.5237 5.6517 2.6638 5.9717 2.9738L8.8717 5.8837L6.4817 6.1738C2.2117 6.6938 0.0017 8.7338 0.0017 12.2738V14.2738C0.0017 16.5938 1.3717 17.9038 3.5617 17.9038H4.9917C4.9017 17.5338 4.8517 17.1238 4.8517 16.7138C4.8517 13.8738 7.1617 11.5738 9.9817 11.5738C12.8117 11.5738 15.1217 13.8738 15.1217 16.7138C15.1217 17.1238 15.0717 17.5338 14.9717 17.9038H28.7017C28.6017 17.5338 28.5617 17.1238 28.5617 16.7138C28.5617 13.8838 30.8717 11.5738 33.6917 11.5738C36.5117 11.5738 38.8117 13.8738 38.8117 16.7138C38.8117 17.1238 38.7617 17.5338 38.6717 17.9038H39.8217C42.0317 17.9038 43.2417 16.6037 43.2417 14.2338V8.9438C43.2417 7.3738 42.6317 5.5538 41.6717 4.1337L41.1317 3.3538C39.6817 1.2138 37.8717 0.3738 34.9417 0.3738H25.3717C20.4217 0.3738 18.3917 0.8637 15.4117 2.7338L11.7117 5.0538L7.7617 1.1137C6.9617 0.3238 6.1917 0.0038 4.7717 0.0038H1.3017C0.5117 0.0038 0.0017 0.5138 0.0017 1.2538C0.0017 1.9937 0.5117 2.5237 1.3017 2.5237ZM9.9817 20.2738C11.9517 20.2738 13.5517 18.6938 13.5517 16.7138C13.5517 14.7438 11.9517 13.1438 9.9817 13.1438C8.0117 13.1438 6.4217 14.7438 6.4217 16.7138C6.4217 18.6838 8.0117 20.2738 9.9817 20.2738ZM33.6917 20.2738C35.6517 20.2738 37.2517 18.6838 37.2517 16.7138C37.2517 14.7438 35.6517 13.1438 33.6917 13.1438C31.7217 13.1438 30.1217 14.7538 30.1217 16.7138C30.1217 18.6838 31.7217 20.2738 33.6917 20.2738Z" />
        </svg>
    