
        <svg xmlns="http://www.w3.org/2000/svg" viewBox="0 0 100 100">
            <path d="M20.0717 11.8792H25.3817C26.3717 11.8792 26.8817 11.3592 26.8817 10.2892V6.2092C26.8817 5.3392 26.5417 4.8292 25.8617 4.6792V3.4292C25.8617 1.3192 24.6417 -0.0008 22.7217 -0.0008C20.8117 -0.0008 19.5817 1.3192 19.5817 3.4292V4.6792C18.9117 4.8292 18.5617 5.3392 18.5617 6.2092V10.2892C18.5617 11.3592 19.0817 11.8792 20.0717 11.8792ZM20.8617 3.2392C20.8617 2.0292 21.5817 1.2692 22.7217 1.2692C23.8717 1.2692 24.6017 2.0292 24.6017 3.2392V4.6292H20.8617ZM2.9917 24.0792H4.9017C4.8517 23.7992 4.8117 23.5192 4.8117 23.2192C4.8117 20.7192 6.8317 18.7192 9.3117 18.7192C11.8117 18.7192 13.8117 20.7192 13.8117 23.2192C13.8117 23.5192 13.7917 23.7992 13.7317 24.0792H28.5117C28.4617 23.7992 28.4317 23.5192 28.4317 23.2192C28.4317 20.7292 30.4617 18.7192 32.9317 18.7192C35.4217 18.7192 37.4317 20.7192 37.4317 23.2192C37.4317 23.5192 37.4017 23.7992 37.3517 24.0792H38.5917C40.6417 24.0792 41.5617 23.0292 41.5617 20.7092V15.6992C41.5617 14.2392 41.0317 12.5592 40.1017 11.2292L39.5717 10.4492C38.2217 8.4992 36.5717 7.7092 33.8517 7.7092H28.5017V10.2492C28.5017 12.1992 27.2817 13.4492 25.3917 13.4492H20.0817C18.2017 13.4492 16.9817 12.1992 16.9817 10.2492V8.9292C16.4317 9.1892 15.6517 9.6092 15.0717 9.9692L10.3517 12.9392L5.9717 13.4792C1.9817 13.9692 0.0017 15.7992 0.0017 19.0092V21.0192C0.0017 22.9292 1.1217 24.0792 2.9917 24.0792ZM9.3117 26.3392C11.0717 26.3392 12.4617 24.9592 12.4617 23.2192C12.4617 21.4692 11.0617 20.0692 9.3117 20.0692C7.5817 20.0692 6.1917 21.4692 6.1917 23.2192C6.1917 24.9492 7.5817 26.3392 9.3117 26.3392ZM32.9317 26.3392C34.6717 26.3392 36.0717 24.9492 36.0717 23.2192C36.0717 21.4692 34.6717 20.0692 32.9317 20.0692C31.2117 20.0692 29.8017 21.4792 29.8017 23.2192C29.8017 24.9492 31.1917 26.3392 32.9317 26.3392Z" />
        </svg>
    