
        <svg xmlns="http://www.w3.org/2000/svg" viewBox="0 0 100 100">
            <path d="M10.6517 21.3909C12.5817 21.3909 14.2717 20.3009 15.1317 18.7009H29.9517C30.8117 20.3009 32.4917 21.3909 34.4417 21.3909C36.3717 21.3909 38.0617 20.3009 38.9017 18.7009H41.0517C43.4317 18.7009 44.9017 17.1609 44.9017 14.7409V9.1509C44.9017 7.4809 44.2417 5.5209 43.2317 4.0209L42.6917 3.2209C41.1217 0.9109 39.1617 0.0009 36.0317 0.0009H26.0517C20.9917 0.0009 18.8217 0.5309 15.7417 2.4609L14.3117 3.3509L16.7917 6.6009L17.8917 5.9109C20.3517 4.3709 21.6517 4.0509 26.0517 4.0509H36.0317C37.8317 4.0509 38.5417 4.3909 39.3617 5.5509L39.9017 6.3209C40.5217 7.1909 40.8517 8.2409 40.8517 9.1509V13.7809C40.8517 14.3809 40.5917 14.6509 40.0117 14.6509H39.2217C38.5217 12.6609 36.6417 11.2409 34.4417 11.2409C32.2217 11.2409 30.3417 12.6609 29.6517 14.6509H15.4317C14.7417 12.6609 12.8517 11.2409 10.6517 11.2409C8.4517 11.2409 6.5617 12.6609 5.8617 14.6509H4.9017C4.3717 14.6509 4.0517 14.3209 4.0517 13.7809V12.5009C4.0517 10.9209 4.9217 10.1709 7.4917 9.8509L11.6017 9.3509L8.7517 5.6109L6.9817 5.8309C2.4517 6.3909 0.0017 8.6409 0.0017 12.5009V14.5009C0.0017 17.2409 1.6317 18.7009 4.1417 18.7009H6.1717C7.0317 20.3009 8.7217 21.3909 10.6517 21.3909ZM17.2017 10.4909H19.8917V11.3409C19.8917 12.3209 20.7217 12.6009 21.4317 12.1409L24.4117 10.2209C25.0817 9.8009 25.0917 8.9609 24.4117 8.5309L21.4617 6.6309C20.7217 6.1509 19.8917 6.4309 19.8917 7.4309V8.2509H17.2017C16.0617 8.2509 15.6717 8.0409 14.9317 7.0809L11.8517 3.0609C10.7917 1.6609 9.5317 1.1109 7.6317 1.1109H4.8517C4.2417 1.1109 3.7217 1.6209 3.7217 2.2409C3.7217 2.8509 4.2417 3.3509 4.8517 3.3509H7.6317C8.9617 3.3509 9.4117 3.5509 10.0917 4.4309L13.1417 8.4609C14.2117 9.8809 15.4417 10.4909 17.2017 10.4909ZM10.6517 17.7909C9.8717 17.7909 9.2417 17.1709 9.2417 16.3809C9.2417 15.6009 9.8717 14.9809 10.6517 14.9809C11.4417 14.9809 12.0617 15.6009 12.0617 16.3809C12.0617 17.1709 11.4417 17.7909 10.6517 17.7909ZM34.4417 17.7909C33.6417 17.7909 33.0317 17.1709 33.0317 16.3809C33.0317 15.6009 33.6417 14.9809 34.4417 14.9809C35.2117 14.9809 35.8517 15.6009 35.8517 16.3809C35.8517 17.1709 35.2117 17.7909 34.4417 17.7909Z" />
        </svg>
    