
        <svg xmlns="http://www.w3.org/2000/svg" viewBox="0 0 100 100">
            <path d="M19.6517 11.6394H24.9717C25.9017 11.6394 26.3817 11.1594 26.3817 10.1494V5.9094C26.3817 5.0294 26.0117 4.5594 25.3117 4.4494V3.2294C25.3117 1.2694 24.1317 -0.0006 22.3117 -0.0006C20.5117 -0.0006 19.3217 1.2694 19.3217 3.2294V4.4494C18.6117 4.5594 18.2617 5.0294 18.2617 5.9094V10.1494C18.2617 11.1594 18.7217 11.6394 19.6517 11.6394ZM20.3717 3.1094C20.3717 1.8494 21.1317 1.0294 22.3117 1.0294C23.4917 1.0294 24.2717 1.8494 24.2717 3.1094V4.4294H20.3717ZM2.7417 23.4494H4.6617C4.6017 23.1794 4.5817 22.8994 4.5817 22.6094C4.5817 20.1594 6.5417 18.1994 8.9917 18.1994C11.4417 18.1994 13.3917 20.1594 13.3917 22.6094C13.3917 22.8994 13.3717 23.1794 13.3117 23.4494H27.9717C27.9217 23.1794 27.8917 22.8994 27.8917 22.6094C27.8917 20.1694 29.8617 18.1994 32.3117 18.1994C34.7617 18.1994 36.7117 20.1594 36.7117 22.6094C36.7117 22.8994 36.6817 23.1794 36.6317 23.4494H37.8617C39.7217 23.4494 40.5917 22.4794 40.5917 20.4594V15.3794C40.5917 13.9494 40.0917 12.3894 39.2017 11.0894L38.6717 10.3094C37.4217 8.4994 35.7617 7.7094 33.2017 7.7094H27.7417V10.0794C27.7417 11.8194 26.6617 12.9294 24.9817 12.9294H19.6617C17.9717 12.9294 16.9017 11.8194 16.9017 10.0794V8.7694C16.2517 9.0494 15.4717 9.4694 14.7817 9.9094L10.0817 12.8594L5.7217 13.3994C1.8917 13.8594 0.0017 15.6094 0.0017 18.6494V20.6394C0.0017 22.4194 0.9917 23.4494 2.7417 23.4494ZM8.9917 25.8094C10.7817 25.8094 12.1917 24.3994 12.1917 22.6094C12.1917 20.8194 10.7717 19.4094 8.9917 19.4094C7.2117 19.4094 5.7917 20.8194 5.7917 22.6094C5.7917 24.3894 7.2117 25.8094 8.9917 25.8094ZM32.3117 25.8094C34.0917 25.8094 35.5117 24.3894 35.5117 22.6094C35.5117 20.8194 34.0917 19.4094 32.3117 19.4094C30.5317 19.4094 29.1017 20.8194 29.1017 22.6094C29.1017 24.3894 30.5117 25.8094 32.3117 25.8094Z" />
        </svg>
    