
        <svg xmlns="http://www.w3.org/2000/svg" viewBox="0 0 100 100">
            <path d="M21.1517 12.1756H26.6917C27.6817 12.1756 28.1917 11.6456 28.1917 10.5656V6.2856C28.1917 5.3056 27.7717 4.7956 26.9617 4.6956V3.2856C26.9617 2.1756 27.6417 1.4556 28.7017 1.4556C29.7417 1.4556 30.4317 2.1756 30.4317 3.2856V4.5156C30.4317 4.9256 30.7617 5.2456 31.1717 5.2456C31.5817 5.2456 31.9117 4.9256 31.9117 4.5156V3.4256C31.9117 1.3456 30.6417 -0.0044 28.7017 -0.0044C26.7617 -0.0044 25.4917 1.3456 25.4917 3.4256V4.6856H21.1517C20.1517 4.6856 19.6417 5.2156 19.6417 6.2856V10.5656C19.6417 11.6456 20.1517 12.1756 21.1517 12.1756ZM3.3517 24.8356H4.9617C4.8917 24.4956 4.8417 24.1256 4.8417 23.7556C4.8417 21.0456 7.0317 18.8556 9.7417 18.8556C12.4417 18.8556 14.6517 21.0456 14.6517 23.7556C14.6517 24.1256 14.6017 24.4956 14.5217 24.8356H28.6317C28.5517 24.4956 28.5117 24.1256 28.5117 23.7556C28.5117 21.0556 30.7117 18.8556 33.4117 18.8556C36.1217 18.8556 38.3217 21.0456 38.3217 23.7556C38.3217 24.1256 38.2717 24.4956 38.1917 24.8356H39.3717C41.5317 24.8356 42.6317 23.6256 42.6317 21.2656V16.0756C42.6317 14.5456 42.0517 12.7856 41.1017 11.3856L40.5717 10.6156C39.1517 8.5556 37.4017 7.7256 34.5517 7.7256H29.8817V10.5556C29.8817 12.5756 28.6017 13.8656 26.6717 13.8656H21.1317C19.1817 13.8656 17.9217 12.5756 17.9217 10.5556V8.7256C17.0617 9.0356 16.2517 9.4456 15.2817 10.0456L10.6017 12.9856L6.3017 13.5156C2.1217 14.0156 0.0017 15.9856 0.0017 19.3956V21.4056C0.0017 23.5756 1.2817 24.8356 3.3517 24.8356ZM9.7417 27.1656C11.6417 27.1656 13.1517 25.6556 13.1517 23.7556C13.1517 21.8656 11.6217 20.3456 9.7417 20.3456C7.8617 20.3456 6.3317 21.8656 6.3317 23.7556C6.3317 25.6356 7.8617 27.1656 9.7417 27.1656ZM33.4117 27.1656C35.3017 27.1656 36.8217 25.6356 36.8217 23.7556C36.8217 21.8656 35.3017 20.3456 33.4117 20.3456C31.5317 20.3456 30.0017 21.8756 30.0017 23.7556C30.0017 25.6356 31.5217 27.1656 33.4117 27.1656Z" />
        </svg>
    