
        <svg xmlns="http://www.w3.org/2000/svg" viewBox="0 0 100 100">
            <path d="M4.193 6.1772L6.803 1.6672C7.363 0.7072 6.563 -0.1728 5.583 0.0272L1.693 0.8272C1.013 0.9772 0.693 1.5172 0.913 2.1772L2.173 5.9372C2.483 6.8972 3.633 7.1372 4.193 6.1772ZM40.653 15.9172L40.593 15.1772C40.443 13.0872 39.503 11.7472 37.453 10.5672L30.843 6.7472C27.463 4.7872 25.843 4.3072 23.043 4.4072L18.783 4.5672L15.723 3.2672C12.543 1.9072 10.123 2.4572 8.673 4.9472L7.903 6.3072C6.903 8.0172 7.383 9.5472 8.963 10.4572L9.773 10.9272C9.873 10.5972 10.013 10.2572 10.183 9.9472C11.353 7.9172 13.973 7.2272 16.013 8.3972C18.033 9.5672 18.743 12.1672 17.563 14.2072C17.383 14.5272 17.153 14.8072 16.923 15.0472L25.843 20.2072C25.933 19.8772 26.073 19.5372 26.253 19.2272C27.423 17.1972 30.053 16.4972 32.073 17.6672C34.103 18.8372 34.803 21.4472 33.633 23.4772C33.443 23.7972 33.223 24.0872 32.993 24.3372L33.723 24.7572C35.283 25.6572 36.753 25.2272 37.673 23.5972L39.813 19.9172C40.443 18.8172 40.743 17.2872 40.653 15.9172ZM12.403 14.6272C13.803 15.4372 15.623 14.9672 16.433 13.5472C17.253 12.1472 16.763 10.3272 15.353 9.5172C13.943 8.7072 12.133 9.1972 11.323 10.5972C10.503 12.0072 10.993 13.8172 12.403 14.6272ZM0.233 11.7072C-0.247 12.5472 0.033 13.5972 0.833 14.0572L31.583 31.7872C32.373 32.2472 33.423 31.9772 33.893 31.1672C34.363 30.3372 34.083 29.2772 33.283 28.8172L2.543 11.0872C1.743 10.6372 0.693 10.9072 0.233 11.7072ZM28.473 23.9072C29.873 24.7172 31.693 24.2372 32.493 22.8372C33.313 21.4172 32.823 19.6072 31.423 18.7972C30.013 17.9772 28.193 18.4572 27.393 19.8772C26.563 21.2872 27.063 23.0872 28.473 23.9072Z" />
        </svg>
    