
        <svg xmlns="http://www.w3.org/2000/svg" viewBox="0 0 100 100">
            <path d="M30.1978 0.8211L29.5178 0.5011C27.8978 -0.2689 26.4178 -0.1589 24.6178 0.8911L18.2878 4.5411C14.9478 6.4611 13.8378 7.5211 12.5778 9.8911L10.4878 13.8611L7.6478 16.0011C5.1478 17.8811 4.5278 19.8711 5.7578 22.0011L6.5578 23.4011C7.2878 24.6511 8.3978 24.9711 9.6278 24.2511L10.9778 23.4811C10.8278 23.3211 10.6978 23.1311 10.5778 22.9211C9.5778 21.2111 10.1678 19.0411 11.8778 18.0411C13.5978 17.0511 15.7678 17.6311 16.7678 19.3611C16.8878 19.5511 16.9778 19.7711 17.0478 19.9811L27.3278 14.0311C27.1878 13.8711 27.0478 13.6811 26.9278 13.4811C25.9378 11.7711 26.5278 9.5911 28.2378 8.6011C29.9578 7.6111 32.1278 8.1911 33.1178 9.9111C33.2378 10.1111 33.3278 10.3211 33.4078 10.5311L34.2578 10.0311C35.5778 9.2811 35.7978 8.2511 34.9778 6.8411L32.9178 3.2711C32.3378 2.2611 31.3578 1.3811 30.1978 0.8211ZM31.3178 13.9411C32.5778 13.2111 32.9978 11.6411 32.2678 10.4011C31.5578 9.1511 29.9878 8.7311 28.7278 9.4411C27.4778 10.1711 27.0578 11.7511 27.7778 12.9911C28.4978 14.2511 30.0678 14.6711 31.3178 13.9411ZM7.3078 30.9811C7.5178 31.3311 7.9678 31.4411 8.3078 31.2611L38.0578 14.1111C38.3878 13.9211 38.5078 13.4711 38.3278 13.1311C38.1078 12.7711 37.6478 12.6611 37.3178 12.8511L7.5678 30.0111C7.2378 30.2011 7.1178 30.6411 7.3078 30.9811ZM14.9578 23.3911C16.2278 22.6611 16.6378 21.1011 15.9178 19.8411C15.1978 18.5811 13.6278 18.1711 12.3678 18.8911C11.1178 19.6111 10.6978 21.1811 11.4178 22.4411C12.1478 23.6911 13.7178 24.1111 14.9578 23.3911ZM4.8378 25.5311L2.5878 21.6411C2.2578 21.0711 1.6178 21.2011 1.3978 21.7611L0.0678 25.1111C-0.1222 25.5411 0.0978 25.9211 0.5678 25.9811L4.1178 26.5011C4.7278 26.6011 5.1678 26.0911 4.8378 25.5311Z" />
        </svg>
    