
        <svg xmlns="http://www.w3.org/2000/svg" viewBox="0 0 100 100">
            <path d="M0.0117 22.8534H7.0817C7.7417 24.6334 9.4617 25.8634 11.5117 25.8634C13.5517 25.8634 15.2617 24.6334 15.9217 22.8534H18.1517C20.5217 22.8534 21.6717 21.5834 21.6717 18.9934V13.1634C21.6717 11.4634 21.0217 9.5234 19.9817 7.9834L19.3817 7.1034C18.8917 6.3834 18.3617 5.8034 17.7817 5.3434L20.4417 2.6434C20.7417 2.3434 21.0517 2.2134 21.5017 2.2134H23.5317C24.2317 2.2134 24.6817 1.7434 24.6817 1.1034C24.6817 0.4434 24.2217 0.0034 23.5317 0.0034H21.6117C20.3517 0.0034 19.5617 0.3034 18.8217 1.0534L15.6417 4.2634C14.8017 4.0234 13.8417 3.9134 12.7217 3.9134H2.1417C1.3617 3.9134 0.6517 3.9234 0.0017 3.9534V6.5434C0.6417 6.5134 1.3517 6.5034 2.1417 6.5034H12.7217C14.9717 6.5034 16.1717 7.0934 17.2417 8.5734L17.8317 9.4334C18.6317 10.5634 19.0817 11.9534 19.0817 13.1634V18.7534C19.0817 19.7534 18.6317 20.2634 17.7117 20.2634H16.1617C15.7617 18.0334 13.8517 16.3934 11.5117 16.3934C9.1417 16.3934 7.2417 18.0334 6.8417 20.2634H0.0117ZM11.5117 23.4334C10.2217 23.4334 9.2217 22.4334 9.2217 21.1534C9.2217 19.8734 10.2217 18.8634 11.5117 18.8634C12.7717 18.8634 13.7917 19.8734 13.7917 21.1534C13.7917 22.4334 12.7717 23.4334 11.5117 23.4334Z" />
        </svg>
    