
        <svg xmlns="http://www.w3.org/2000/svg" viewBox="0 0 100 100">
            <path d="M0.0017 8.2281H9.4417V2.4381C9.4417 0.9381 8.4817 -0.0019 6.9517 -0.0019H2.4817C0.9517 -0.0019 0.0017 0.9381 0.0017 2.4381ZM10.3217 8.9081L16.2317 12.3181L19.1117 7.2981C19.8617 5.9981 19.5117 4.6981 18.1717 3.9481L14.3117 1.7081C12.9817 0.9381 11.6817 1.2781 10.9317 2.5881C10.7317 2.9381 10.5217 3.2781 10.3217 3.6281ZM18.4217 19.3081L23.4217 16.4181C24.7217 15.6681 25.0617 14.3581 24.2917 13.0281L22.0617 9.1681C21.5317 8.2181 20.7117 7.7681 19.8117 7.8681C19.7317 8.0281 19.6417 8.1781 19.5517 8.3481L15.8217 14.7981ZM0.0017 16.6081H9.4417V9.1181H0.0017ZM10.3217 22.5081L15.7817 13.0881L10.3217 9.9381ZM10.6017 23.8281L17.6617 19.7581L15.3017 15.6781ZM2.4817 25.7181H6.9517C8.4817 25.7181 9.4417 24.7781 9.4417 23.2781V17.4881H0.0017V23.2781C0.0017 24.7781 0.9517 25.7181 2.4817 25.7181Z" />
        </svg>
    