
        <svg xmlns="http://www.w3.org/2000/svg" viewBox="0 0 100 100">
            <path d="M0.0017 8.0617H9.8417V2.7517C9.8417 1.0617 8.7517 0.0017 7.0217 0.0017H2.8917C1.1117 0.0017 0.0017 1.0617 0.0017 2.7517ZM11.2017 9.1617L16.9017 12.4617L19.5617 7.8617C20.4017 6.4017 19.9917 4.9217 18.4917 4.0517L14.9217 1.9917C13.6017 1.2317 12.3117 1.4217 11.4717 2.4217C11.3917 2.7317 11.3017 3.0217 11.2017 3.3117ZM19.1117 19.8117L23.7117 17.1517C25.1717 16.3217 25.5617 14.8317 24.6817 13.3317L22.6317 9.7617C22.1617 8.9517 21.5317 8.4917 20.8117 8.3817C20.7417 8.5417 20.6617 8.6817 20.5817 8.8217L16.6717 15.5817ZM0.0017 17.1717H9.8417V9.4317H0.0017ZM11.2017 22.3217L16.2217 13.6417L11.2017 10.7417ZM11.7917 24.0517L17.9417 20.4917L15.8817 16.9417ZM2.8917 26.6017H7.0217C8.7517 26.6017 9.8417 25.5317 9.8417 23.8317V18.5317H0.0017V23.8317C0.0017 25.5317 1.1117 26.6017 2.8917 26.6017Z" />
        </svg>
    