
        <svg xmlns="http://www.w3.org/2000/svg" viewBox="0 0 100 100">
            <path d="M14.4523 5.3178C16.5623 5.3178 18.4923 6.0378 20.0423 7.2278C20.3223 7.4278 20.6623 7.4178 20.9223 7.1578L23.7223 4.3578C24.0223 4.0578 24.0123 3.5978 23.6823 3.3278C21.1723 1.2578 17.9523 -0.0022 14.4523 -0.0022C10.9423 -0.0022 7.7223 1.2578 5.2223 3.3278C4.8823 3.5978 4.8723 4.0578 5.1923 4.3578L7.9823 7.1578C8.2423 7.4178 8.6023 7.4278 8.8923 7.2078C10.4423 6.0378 12.3623 5.3178 14.4523 5.3178ZM28.9023 14.4478C28.9023 10.9378 27.6423 7.7078 25.5623 5.1878C25.2923 4.8778 24.8423 4.8778 24.5423 5.1778L21.7423 7.9778C21.4823 8.2378 21.4723 8.5978 21.6923 8.8778C22.8723 10.4278 23.5823 12.3678 23.5823 14.4478C23.5823 16.5678 22.8623 18.5278 21.5823 20.1478C21.3823 20.3978 21.4023 20.7178 21.6223 20.9578L24.4723 23.7978C24.7723 24.1078 25.2223 24.1078 25.5023 23.7778C27.6223 21.2578 28.9023 17.9978 28.9023 14.4478ZM0.0023 14.4478C0.0023 17.9978 1.2923 21.2678 3.4223 23.7878C3.6923 24.1078 4.1323 24.1078 4.4423 23.7978L7.2823 20.9578C7.5123 20.7178 7.5223 20.3978 7.3123 20.1478C6.0423 18.5278 5.3223 16.5678 5.3223 14.4478C5.3223 12.3678 6.0223 10.4278 7.2223 8.8778C7.4323 8.5978 7.4323 8.2378 7.1723 7.9778L4.3723 5.1778C4.0623 4.8778 3.6123 4.8778 3.3423 5.2178C1.2523 7.7178 0.0023 10.9478 0.0023 14.4478ZM10.5923 19.0178C11.0623 19.0178 11.3823 18.6778 11.3823 18.1978V16.5978L11.9723 16.0078L13.7223 18.5478C13.8823 18.8278 14.1223 19.0178 14.4623 19.0178C14.8723 19.0178 15.2123 18.7178 15.2123 18.3278C15.2123 18.0978 15.1323 17.9278 15.0023 17.7378L13.1223 15.0778L14.8823 13.2678C15.0723 13.0678 15.1623 12.9178 15.1623 12.6778C15.1623 12.3078 14.8723 11.9978 14.4723 11.9978C14.2423 11.9978 13.9923 12.1278 13.8423 12.3178L11.4123 14.9878H11.3823V10.2278C11.3823 9.7478 11.0623 9.4078 10.5923 9.4078C10.1323 9.4078 9.8123 9.7378 9.8123 10.2178V18.1978C9.8123 18.6778 10.1323 19.0178 10.5923 19.0178ZM17.2023 19.0178C17.5823 19.0178 17.9423 18.7478 17.9423 18.1978V14.9978C17.9423 14.2378 18.2023 13.4978 19.0823 13.4978C19.3523 13.4978 19.6323 13.4578 19.8123 13.3078C19.9823 13.2078 20.0723 13.0178 20.0723 12.7778C20.0723 12.2978 19.7623 11.9978 19.2923 11.9978C18.5623 11.9978 18.1023 12.6478 17.9523 13.3678H17.8823V12.7878C17.8823 12.3278 17.5923 11.9978 17.1823 11.9978C16.7423 11.9978 16.4523 12.3278 16.4523 12.7878V18.1978C16.4523 18.6878 16.7323 19.0178 17.2023 19.0178Z" />
        </svg>
    