
        <svg xmlns="http://www.w3.org/2000/svg" viewBox="0 0 100 100">
            <path d="M2.5317 23.5917C4.1017 23.5917 5.1017 22.5617 5.1017 20.9617V18.0617L6.4617 16.7917L9.8117 21.8917C10.3617 22.8417 11.2017 23.5917 12.4617 23.5917C14.0317 23.5917 14.9217 22.5717 14.9217 21.2717C14.9217 20.6017 14.5917 20.0417 14.1417 19.3817L10.3017 13.9017L13.8717 10.4317C14.5517 9.8017 14.8817 9.3617 14.8817 8.4617C14.8817 7.1917 13.9617 6.2417 12.5817 6.2417C11.7217 6.2417 11.0817 6.6317 10.5017 7.2917L5.1817 12.9617H5.1017V2.6317C5.1017 1.0317 4.1017 0.0017 2.5317 0.0017C0.9817 0.0017 0.0017 1.0217 0.0017 2.6217V20.9617C0.0017 22.5817 0.9917 23.5917 2.5317 23.5917ZM20.2017 23.5917C21.6817 23.5917 22.6317 22.5717 22.6317 20.9617V14.1417C22.6317 12.3617 23.1817 11.1217 25.2217 11.0717C26.0317 11.0517 26.9217 10.9217 27.4917 10.4317C27.9917 10.0317 28.2517 9.4217 28.2517 8.6217C28.2517 7.8317 28.0317 7.2417 27.6517 6.8517C27.2417 6.4417 26.6717 6.2617 25.9917 6.2617C24.1717 6.2617 22.9917 7.7417 22.6417 9.7417H22.4417V8.7917C22.4417 7.2417 21.5417 6.2417 20.1417 6.2417C18.7017 6.2417 17.7617 7.2317 17.7617 8.7817V20.9617C17.7617 22.5717 18.7117 23.5917 20.2017 23.5917Z" />
        </svg>
    