
        <svg xmlns="http://www.w3.org/2000/svg" viewBox="0 0 100 100">
            <path d="M0.2817 23.4614H23.4217C23.5817 23.4614 23.7117 23.3314 23.7117 23.1714C23.7117 23.0114 23.5817 22.8914 23.4217 22.8914H22.7817V22.1914C22.7817 22.0914 22.6917 21.9914 22.5617 21.9914H21.8217V6.7314H22.9717C23.1817 6.7314 23.2717 6.6014 23.2717 6.4314C23.2717 6.3514 23.2217 6.2314 23.1017 6.1614L12.9717 0.3114C12.6117 0.1014 12.2217 0.0014 11.8617 0.0014C11.4817 0.0014 11.1017 0.1014 10.7317 0.3114L0.6117 6.1614C0.4817 6.2314 0.4317 6.3514 0.4317 6.4314C0.4317 6.6014 0.5317 6.7314 0.7417 6.7314H1.9017V21.9914H1.1517C1.0217 21.9914 0.9217 22.0914 0.9217 22.1914V22.8914H0.2817C0.1317 22.8914 0.0017 23.0114 0.0017 23.1714C0.0017 23.3314 0.1317 23.4614 0.2817 23.4614ZM8.2117 18.2214C8.0417 18.2214 7.9217 18.0814 7.9217 17.8914V8.0014C7.9217 7.8114 8.0417 7.6914 8.2117 7.6914C8.3917 7.6914 8.5117 7.8114 8.5117 8.0014V14.5214H8.5617L11.9717 10.7314C12.0317 10.6614 12.1017 10.6314 12.1717 10.6314C12.3317 10.6314 12.4417 10.7414 12.4417 10.8914C12.4417 10.9714 12.4117 11.0114 12.3517 11.0814L9.7617 13.9214L12.4617 17.7514C12.5117 17.8214 12.5317 17.8914 12.5317 17.9514C12.5317 18.1214 12.4117 18.2214 12.2617 18.2214C12.1617 18.2214 12.0817 18.1714 12.0217 18.1014L9.3517 14.3114L8.5117 15.1714V17.8914C8.5117 18.0814 8.3917 18.2214 8.2117 18.2214ZM14.4117 18.2214C14.2417 18.2214 14.1317 18.1014 14.1317 17.8914V10.9214C14.1317 10.7414 14.2417 10.6314 14.4017 10.6314C14.5617 10.6314 14.6617 10.7414 14.6617 10.9214V12.1614H14.7617C14.9617 11.3114 15.4617 10.6314 16.2917 10.6314C16.5917 10.6314 16.9717 10.7314 16.9717 11.0314C16.9717 11.1414 16.8717 11.2414 16.7117 11.2414C16.5617 11.2414 16.4217 11.2014 16.2617 11.2014C15.0917 11.2014 14.6917 12.5414 14.6917 13.5314V17.8914C14.6917 18.0914 14.5917 18.2214 14.4117 18.2214Z" />
        </svg>
    