
        <svg xmlns="http://www.w3.org/2000/svg" viewBox="0 0 100 100">
            <path d="M1.7417 22.7616H25.1917V21.8816C25.1917 21.3616 24.8917 21.0616 24.3717 21.0616H23.6917V8.3716H24.7017C25.4217 8.3716 25.8417 7.8516 25.8417 7.3116C25.8417 6.9216 25.6217 6.5716 25.1517 6.2916L14.9717 0.4216C14.4917 0.1516 13.9717 0.0016 13.4617 0.0016C12.9617 0.0016 12.4217 0.1516 11.9517 0.4216L1.7817 6.2916C1.3017 6.5716 1.0917 6.9216 1.0917 7.3116C1.0917 7.8516 1.5117 8.3716 2.2217 8.3716H3.2417V21.0616H2.5617C2.0517 21.0616 1.7417 21.3616 1.7417 21.8816ZM5.1917 21.0616V6.8016L13.0517 2.4016C13.1817 2.3316 13.3317 2.2816 13.4617 2.2816C13.6017 2.2816 13.7417 2.3316 13.8717 2.4016L21.7517 6.8016V21.0616ZM9.6817 17.2616C10.1017 17.2616 10.3817 16.9616 10.3817 16.5116V14.7816L11.0117 14.1716L12.9017 16.8616C13.0517 17.1016 13.2617 17.2616 13.5617 17.2616C13.9317 17.2616 14.2417 16.9916 14.2417 16.6316C14.2417 16.4316 14.1717 16.2816 14.0517 16.1116L12.0517 13.3116L13.9117 11.3716C14.0817 11.1816 14.1717 11.0516 14.1717 10.8416C14.1717 10.5016 13.9017 10.2216 13.5317 10.2216C13.3217 10.2216 13.1117 10.3316 12.9717 10.5016L10.4217 13.3016H10.3817V8.3416C10.3817 7.9016 10.1017 7.5916 9.6817 7.5916C9.2617 7.5916 8.9617 7.9016 8.9617 8.3316V16.5116C8.9617 16.9616 9.2617 17.2616 9.6817 17.2616ZM16.1717 17.2616C16.5117 17.2616 16.8517 17.0416 16.8517 16.5116V13.1616C16.8517 12.3916 17.1317 11.5816 18.0517 11.5816C18.3017 11.5816 18.5517 11.5416 18.7217 11.4116C18.8917 11.3216 18.9817 11.1516 18.9817 10.9316C18.9817 10.4716 18.6717 10.2216 18.2217 10.2216C17.4917 10.2216 17.0117 10.8516 16.8617 11.5816H16.7917V10.9316C16.7917 10.5216 16.5217 10.2216 16.1517 10.2216C15.7617 10.2216 15.4917 10.5216 15.4917 10.9316V16.5116C15.4917 16.9616 15.7517 17.2616 16.1717 17.2616ZM1.0617 25.7816H25.8017C26.3817 25.7816 26.8717 25.3016 26.8717 24.7116C26.8717 24.1416 26.3817 23.6616 25.8017 23.6616H1.0617C0.4817 23.6616 0.0017 24.1416 0.0017 24.7116C0.0017 25.3016 0.4817 25.7816 1.0617 25.7816Z" />
        </svg>
    