
        <svg xmlns="http://www.w3.org/2000/svg" viewBox="0 0 100 100">
            <path d="M21.9094 10.6748C21.9094 6.5548 20.0194 2.6648 17.1494 0.0048C18.5494 2.0048 20.4594 5.0548 20.4594 9.2648C20.4594 10.8248 20.0494 12.5048 19.6994 13.3448C15.9994 11.2048 8.8794 5.2848 6.0494 2.2648C8.3294 5.7648 11.0394 8.9248 14.0194 12.2548C10.0094 9.7048 6.2494 6.8548 2.7494 3.7348C6.1094 8.5848 10.3394 13.3848 15.9394 17.8948C14.3194 18.7848 12.6894 19.4848 9.8694 19.4848C6.4594 19.4848 2.2694 17.8348 -0.0006 15.9848C2.6594 18.9048 6.6794 21.0948 10.9494 21.0948C16.7894 21.0948 21.9094 17.5448 21.9094 10.6748ZM19.0294 1.3148C21.2494 4.0748 22.7094 7.6248 22.7094 11.1948C22.7094 17.4748 18.0694 21.8948 11.4894 21.8948C7.6094 21.8948 4.1294 20.0848 2.0594 18.6748C4.8394 21.6348 8.9294 23.5448 12.1494 23.5448C18.8094 23.5448 24.4194 18.9948 24.4194 12.2248C24.4194 7.9448 22.3694 4.0348 19.0294 1.3148ZM26.0294 14.1348C26.0294 12.1548 25.4294 9.3848 23.7994 6.6048C24.5594 8.5648 25.0594 10.7648 25.0594 12.9448C25.0594 20.2148 19.1594 24.1748 12.1294 24.1748C11.6094 24.1748 11.1194 24.1648 10.6494 24.1148C11.8494 24.5148 13.5494 24.7548 15.0694 24.7548C19.8094 24.7548 21.1194 22.5448 23.8594 22.5448C26.1594 22.5448 27.0594 24.0848 27.4094 24.6748C27.4994 24.8748 27.6794 25.0048 27.7994 24.6448C27.8594 24.3648 27.9094 24.0148 27.9094 23.5948C27.9094 22.3848 27.5494 20.0748 25.5394 17.5448C25.9794 16.3148 26.0294 14.9448 26.0294 14.1348Z" />
        </svg>
    