
        <svg xmlns="http://www.w3.org/2000/svg" viewBox="0 0 100 100">
            <path d="M4.5917 23.2339H18.6417C21.5417 23.2339 23.2417 21.5539 23.2417 18.6439V4.5939C23.2417 1.7039 21.5417 0.0039 18.6417 0.0039H4.5917C1.7017 0.0039 0.0017 1.7039 0.0017 4.5939V18.6439C0.0017 21.5539 1.7017 23.2339 4.5917 23.2339ZM8.5517 18.4539C7.7017 18.4539 7.1117 17.8739 7.1117 17.0139V6.0939C7.1117 5.2339 7.7017 4.6639 8.5517 4.6639H14.6817C15.5417 4.6639 16.1217 5.2339 16.1217 6.0939V17.0139C16.1217 17.8739 15.5417 18.4539 14.6817 18.4539ZM9.4817 10.1639H13.7617C14.1217 10.1639 14.3517 9.9139 14.3517 9.5239V7.0439C14.3517 6.6839 14.1217 6.4339 13.7617 6.4339H9.4817C9.1217 6.4339 8.8817 6.6839 8.8817 7.0439V9.5239C8.8817 9.9139 9.1217 10.1639 9.4817 10.1639ZM9.4817 16.6839H13.7617C14.1217 16.6839 14.3517 16.4439 14.3517 16.0639V13.5839C14.3517 13.2039 14.1217 12.9539 13.7617 12.9539H9.4817C9.1217 12.9539 8.8817 13.2039 8.8817 13.5839V16.0639C8.8817 16.4439 9.1217 16.6839 9.4817 16.6839Z" />
        </svg>
    