
        <svg xmlns="http://www.w3.org/2000/svg" viewBox="0 0 100 100">
            <path d="M3.0117 24.6556H12.0917C14.0517 24.6556 15.0917 23.6156 15.0917 21.6556V3.0156C15.0917 1.0456 14.0517 -0.0044 12.0917 -0.0044H3.0117C1.0417 -0.0044 0.0017 1.0456 0.0017 3.0156V21.6556C0.0017 23.6156 1.0417 24.6556 3.0117 24.6556ZM3.0217 9.3556C2.0017 9.3556 1.4617 8.8156 1.4617 7.7956V3.0356C1.4617 2.0156 2.0017 1.4656 3.0217 1.4656H12.0717C13.0917 1.4656 13.6417 2.0156 13.6417 3.0356V7.7956C13.6417 8.8156 13.0917 9.3556 12.0717 9.3556ZM3.0217 23.2056C2.0017 23.2056 1.4617 22.6556 1.4617 21.6356V16.8756C1.4617 15.8556 2.0017 15.3056 3.0217 15.3056H12.0717C13.0917 15.3056 13.6417 15.8556 13.6417 16.8756V21.6356C13.6417 22.6556 13.0917 23.2056 12.0717 23.2056Z" />
        </svg>
    