
        <svg xmlns="http://www.w3.org/2000/svg" viewBox="0 0 100 100">
            <path d="M11.7523 23.5048C18.2423 23.5048 23.5123 18.2448 23.5123 11.7548C23.5123 5.2648 18.2423 0.0048 11.7523 0.0048C5.2623 0.0048 0.0023 5.2648 0.0023 11.7548C0.0023 18.2448 5.2623 23.5048 11.7523 23.5048ZM11.7523 21.9848C6.0923 21.9848 1.5223 17.4148 1.5223 11.7548C1.5223 6.0948 6.0923 1.5148 11.7523 1.5148C17.4123 1.5148 21.9923 6.0948 21.9923 11.7548C21.9923 17.4148 17.4123 21.9848 11.7523 21.9848ZM11.6923 17.1048C12.1723 17.1048 12.4323 16.7948 12.4323 16.3148V7.6548H15.5123C15.8623 7.6548 16.1223 7.4048 16.1223 7.0448C16.1223 6.6648 15.8623 6.4348 15.5123 6.4348H7.9723C7.6123 6.4348 7.3623 6.6648 7.3623 7.0448C7.3623 7.4048 7.6123 7.6548 7.9723 7.6548H10.9823V16.3148C10.9823 16.7848 11.2423 17.1048 11.6923 17.1048Z" />
        </svg>
    