
        <svg xmlns="http://www.w3.org/2000/svg" viewBox="0 0 100 100">
            <path d="M3.0117 20.5048H17.4917C19.4517 20.5048 20.5117 19.4248 20.5117 17.4948V3.0148C20.5117 1.0748 19.4517 0.0048 17.4917 0.0048H3.0117C1.0417 0.0048 0.0017 1.0448 0.0017 3.0148V17.4948C0.0017 19.4648 1.0417 20.5048 3.0117 20.5048ZM3.0317 19.9348C1.4217 19.9348 0.5717 19.0948 0.5717 17.4648V3.0348C0.5717 1.4148 1.4217 0.5748 3.0317 0.5748H17.4617C19.0317 0.5748 19.9317 1.4148 19.9317 3.0348V17.4648C19.9317 19.0948 19.0317 19.9348 17.4617 19.9348ZM10.1817 15.5048C10.3717 15.5048 10.4717 15.3748 10.4717 15.1948V5.6948H13.8917C14.0617 5.6948 14.1817 5.5648 14.1817 5.4048C14.1817 5.2248 14.0617 5.1048 13.8917 5.1048H6.6117C6.4417 5.1048 6.3117 5.2248 6.3117 5.4048C6.3117 5.5648 6.4417 5.6948 6.6117 5.6948H9.8817V15.1948C9.8817 15.3748 10.0117 15.5048 10.1817 15.5048Z" />
        </svg>
    