
        <svg xmlns="http://www.w3.org/2000/svg" viewBox="0 0 100 100">
            <path d="M9.2962 5.3291L23.4862 19.5391L27.4562 15.5591C28.5362 14.4891 28.7862 13.7491 28.7862 12.0391V7.6191C28.7862 6.1191 28.4162 5.4091 27.2162 4.1991L24.5762 1.5691C23.3562 0.3491 22.6562 -0.0009 21.1662 -0.0009H16.7462C15.0262 -0.0009 14.3462 0.2791 13.2662 1.3691ZM25.3862 26.9291C25.8062 27.3391 26.4962 27.3491 26.8962 26.9291C27.3062 26.5091 27.3162 25.8391 26.8962 25.4191L3.3862 1.9191C2.9662 1.5091 2.2862 1.5091 1.8662 1.9191C1.4562 2.3291 1.4562 3.0391 1.8662 3.4291ZM18.7062 11.4491C17.5662 11.4491 16.6762 10.5691 16.6762 9.4291C16.6762 8.2991 17.5662 7.4091 18.7062 7.4091C19.8462 7.4091 20.7362 8.2991 20.7362 9.4291C20.7362 10.5691 19.8462 11.4491 18.7062 11.4491ZM19.4862 23.5391L5.2862 9.3391L1.5362 13.0891C-0.5138 15.1391 -0.5138 17.5291 1.5462 19.5791L9.2462 27.2791C11.2962 29.3391 13.6862 29.3391 15.7362 27.2791Z" />
        </svg>
    