
        <svg xmlns="http://www.w3.org/2000/svg" viewBox="0 0 100 100">
            <path d="M7.6632 5.7866L19.4132 17.5266L24.4632 12.4566C25.1232 11.8166 25.2132 11.5766 25.2132 10.3166V5.8566C25.2132 4.9366 25.1432 4.6866 24.2432 3.7866L21.4332 0.9766C20.5432 0.0866 20.2832 -0.0034 19.3532 -0.0034H14.9032C13.6532 -0.0034 13.4132 0.0966 12.7632 0.7466ZM22.5032 22.9266C22.6132 23.0366 22.7932 23.0366 22.9232 22.9266C23.0332 22.8166 23.0332 22.6166 22.9232 22.4966L2.7132 2.2966C2.6132 2.1866 2.4432 2.1466 2.2932 2.2966C2.1832 2.4166 2.1832 2.5966 2.2932 2.7066ZM17.5332 8.1666C16.9232 8.1666 16.4632 7.7066 16.4632 7.0966C16.4632 6.4966 16.9232 6.0366 17.5332 6.0366C18.1232 6.0366 18.5932 6.4966 18.5932 7.0966C18.5932 7.7066 18.1232 8.1666 17.5332 8.1666ZM17.5432 19.4166L5.7832 7.6566L1.0432 12.3666C-0.3568 13.7566 -0.3368 15.2366 1.0432 16.6166L8.5632 24.1566C9.9732 25.5466 11.4632 25.5366 12.8332 24.1566Z" />
        </svg>
    