
        <svg xmlns="http://www.w3.org/2000/svg" viewBox="0 0 100 100">
            <path d="M3.9717 22.1117H18.1317C20.7317 22.1117 22.1017 20.7417 22.1017 18.1717V3.9417C22.1017 1.3717 20.7317 0.0017 18.1317 0.0017H3.9717C1.3817 0.0017 0.0017 1.3717 0.0017 3.9417V18.1717C0.0017 20.7417 1.3817 22.1117 3.9717 22.1117ZM4.1917 19.5017C3.1617 19.5017 2.6117 18.9817 2.6117 17.9017V4.2217C2.6117 3.1417 3.1617 2.6117 4.1917 2.6117H17.9217C18.9217 2.6117 19.5017 3.1417 19.5017 4.2217V17.9017C19.5017 18.9817 18.9217 19.5017 17.9217 19.5017ZM8.5917 17.0117C9.3517 17.7817 10.1617 17.8517 10.9417 17.0717L16.5117 11.5317C16.9417 11.1117 17.2217 10.8017 17.2217 10.1117V7.9717C17.2217 7.4217 17.1017 7.1117 16.7217 6.7217L15.6517 5.6717C15.2917 5.3117 14.9717 5.1117 14.4217 5.1117H12.2217C11.5417 5.1117 11.2217 5.4017 10.8017 5.8317L5.2817 11.4017C4.5017 12.1717 4.5717 12.9817 5.3217 13.7417ZM12.9517 9.3817C12.6017 9.0517 12.5817 8.4517 12.9517 8.0817C13.3117 7.7317 13.8917 7.7317 14.2517 8.0817C14.6017 8.4417 14.6117 9.0217 14.2517 9.3817C13.8717 9.7517 13.3017 9.7517 12.9517 9.3817Z" />
        </svg>
    