
        <svg xmlns="http://www.w3.org/2000/svg" viewBox="0 0 100 100">
            <path d="M12.7923 25.5961C19.8723 25.5961 25.6023 19.8661 25.6023 12.7961C25.6023 5.7261 19.8723 -0.0039 12.7923 -0.0039C5.7323 -0.0039 0.0023 5.7261 0.0023 12.7961C0.0023 19.8661 5.7323 25.5961 12.7923 25.5961ZM9.9923 18.9061L7.0123 15.9161C6.0823 14.9661 5.8723 13.8261 6.8323 12.8661L12.5723 7.1261C12.9923 6.7061 13.2923 6.5061 13.9723 6.5061H16.1823C16.8123 6.5061 17.1723 6.6361 17.6023 7.0661L18.8523 8.3161C19.3023 8.7761 19.4323 9.1061 19.4323 9.7361V11.9461C19.4323 12.6461 19.2323 12.9161 18.7923 13.3361L13.0323 19.1161C12.0623 20.0861 10.9423 19.8361 9.9923 18.9061ZM14.3523 11.5361C14.8223 11.9961 15.5823 11.9961 16.0523 11.5361C16.5223 11.0761 16.5023 10.2961 16.0523 9.8561C15.6023 9.4061 14.8523 9.4061 14.3623 9.8561C13.9023 10.3161 13.9123 11.0861 14.3523 11.5361Z" />
        </svg>
    