
        <svg xmlns="http://www.w3.org/2000/svg" viewBox="0 0 100 100">
            <path d="M25.4317 20.2039C23.9617 21.6539 25.9317 23.5739 27.4117 22.2639C28.7117 21.1039 29.5117 19.4339 29.7617 17.5439H31.7417C32.5117 17.5439 33.1417 16.9239 33.1417 16.1439C33.1417 15.3839 32.5117 14.7539 31.7417 14.7539H29.7917C29.7217 14.0939 29.5917 13.4139 29.4017 12.7439H31.7417C32.5117 12.7439 33.1417 12.1239 33.1417 11.3539C33.1417 10.5939 32.5117 9.9539 31.7417 9.9539H28.3917C28.1617 9.2739 27.9917 8.6139 27.9017 7.9539H31.7417C32.5117 7.9539 33.1417 7.3339 33.1417 6.5739C33.1417 5.7839 32.5117 5.1739 31.7417 5.1739H27.9217C28.1217 4.1039 28.5717 3.1839 29.2517 2.5039C30.7117 1.0539 28.7317 -0.8661 27.2617 0.4339C25.9617 1.6039 25.1617 3.2639 24.9017 5.1739H22.4417C22.6217 5.8539 22.8017 7.1839 22.8917 7.9539H24.8817C24.9617 8.6139 25.0917 9.2739 25.2817 9.9539H23.0117C23.0417 10.5139 23.0417 12.1939 23.0117 12.7439H26.2817C26.5217 13.4239 26.6717 14.0939 26.7817 14.7539H22.8917C22.7917 15.6639 22.6517 16.6039 22.4417 17.5439H26.7417C26.5417 18.6039 26.1017 19.5239 25.4317 20.2039ZM20.9717 11.3539C20.9917 9.1239 20.8217 6.8439 20.1517 4.5139C19.3217 1.7639 17.7817 0.7139 14.5517 0.7139H13.8517C6.4017 0.7139 0.0017 5.6039 0.0017 11.3539C0.0017 17.0939 6.4017 21.9839 13.8517 21.9839H14.5517C17.7917 21.9839 19.3317 20.9439 20.1517 18.1939C20.8217 15.8639 20.9917 13.5839 20.9717 11.3539ZM17.6617 11.3539C17.6817 13.7639 17.4717 15.5139 16.9717 17.2639C16.6517 18.3339 16.1017 18.6639 14.5517 18.6639H13.8517C8.3117 18.6639 3.3017 15.2039 3.3017 11.3539C3.3017 7.4839 8.3117 4.0239 13.8517 4.0239H14.5517C16.1017 4.0239 16.6517 4.3639 16.9717 5.4439C17.4717 7.1939 17.6817 8.9239 17.6617 11.3539Z" />
        </svg>
    