
        <svg xmlns="http://www.w3.org/2000/svg" viewBox="0 0 100 100">
            <path d="M25.9117 20.496C24.2817 22.116 26.4817 24.226 28.1017 22.796C29.4217 21.636 30.2417 19.966 30.5417 18.066H32.3117C33.1517 18.066 33.8317 17.376 33.8317 16.536C33.8317 15.686 33.1517 14.996 32.3117 14.996H30.5717C30.5017 14.396 30.3917 13.776 30.2217 13.166H32.3117C33.1517 13.166 33.8317 12.476 33.8317 11.636C33.8317 10.796 33.1517 10.096 32.3117 10.096H29.1217C28.9117 9.476 28.7617 8.866 28.6617 8.276H32.3117C33.1517 8.276 33.8317 7.596 33.8317 6.746C33.8317 5.896 33.1517 5.216 32.3117 5.216H28.7217C28.9317 4.236 29.3717 3.396 30.0017 2.776C31.6217 1.156 29.4117 -0.964 27.8017 0.476C26.4717 1.636 25.6517 3.306 25.3617 5.216H22.9817C23.1517 5.906 23.3817 7.456 23.4617 8.276H25.3217C25.4017 8.866 25.5217 9.486 25.6917 10.096H23.5817C23.6117 10.706 23.6117 12.556 23.5817 13.166H26.7817C26.9917 13.796 27.1417 14.396 27.2317 14.996H23.4617C23.3717 16.006 23.2117 17.026 22.9817 18.066H27.1717C26.9517 19.046 26.5317 19.876 25.9117 20.496ZM21.4017 11.636C21.4217 9.416 21.2617 7.096 20.5917 4.736C19.7117 1.886 18.1017 0.786 14.7617 0.786H14.0517C6.4417 0.786 0.0017 5.766 0.0017 11.636C0.0017 17.506 6.4417 22.486 14.0517 22.486H14.7617C18.1217 22.486 19.7217 21.386 20.5917 18.536C21.2617 16.166 21.4217 13.846 21.4017 11.636ZM17.6517 11.636C17.6717 14.026 17.4617 15.736 16.9717 17.466C16.6917 18.446 16.2217 18.726 14.7617 18.726H14.0517C8.6117 18.726 3.7517 15.376 3.7517 11.636C3.7517 7.896 8.6117 4.546 14.0517 4.546H14.7617C16.2217 4.546 16.6917 4.816 16.9717 5.796C17.4617 7.536 17.6717 9.246 17.6517 11.636Z" />
        </svg>
    