
        <svg xmlns="http://www.w3.org/2000/svg" viewBox="0 0 100 100">
            <path d="M22.3017 18.4538C21.8817 18.9338 22.5117 19.4938 22.9417 19.0338C23.9617 17.8438 24.5017 16.1838 24.5717 14.3938H27.4417C27.6717 14.3938 27.8817 14.1938 27.8817 13.9638C27.8817 13.7138 27.6717 13.5238 27.4417 13.5238H24.5617C24.5117 12.3638 24.2817 11.1838 23.8617 10.0338H27.4417C27.6717 10.0338 27.8817 9.8238 27.8817 9.6038C27.8817 9.3538 27.6717 9.1738 27.4417 9.1738H23.5217C23.1017 7.9938 22.8517 6.8038 22.7917 5.6738H27.4417C27.6717 5.6738 27.8817 5.4938 27.8817 5.2438C27.8817 5.0138 27.6717 4.7938 27.4417 4.7938H22.7817C22.8117 3.1938 23.2617 1.7638 24.1317 0.7438C24.5617 0.2738 23.9317 -0.2862 23.4817 0.1738C22.4717 1.3638 21.9417 3.0038 21.8717 4.7938H19.2517C19.3017 5.0938 19.3517 5.3938 19.3817 5.6738H21.8717C21.9117 6.8238 22.1617 8.0238 22.5817 9.1738H19.6017C19.6217 9.3938 19.6217 9.8138 19.6017 10.0338H22.9117C23.3317 11.2038 23.5817 12.4038 23.6517 13.5238H19.3817C19.3517 13.8138 19.3017 14.1138 19.2517 14.3938H23.6617C23.6117 16.0138 23.1717 17.4438 22.3017 18.4538ZM18.5617 9.6038C18.5817 7.1138 18.3617 5.0838 17.8017 3.1038C17.2017 1.0138 15.7417 0.1838 13.3617 0.1838H12.8817C6.4317 0.1838 0.0017 4.5438 0.0017 9.6038C0.0017 14.6638 6.4317 19.0238 12.8817 19.0238H13.3617C15.7417 19.0238 17.2017 18.1938 17.8017 16.1038C18.3617 14.1238 18.5817 12.0838 18.5617 9.6038Z" />
        </svg>
    