
        <svg xmlns="http://www.w3.org/2000/svg" viewBox="0 0 100 100">
            <path d="M7.7821 30.7056C8.9521 30.7056 10.0221 30.2156 10.8621 29.3756C12.5721 29.6556 14.1721 29.6556 15.8921 29.3656C16.7321 30.2156 17.8021 30.7056 18.9821 30.7056C21.7621 30.7056 23.9621 27.8956 23.9621 24.3556C23.9621 24.0556 23.9521 23.7656 23.9221 23.4856C24.9521 23.0356 25.8021 22.2156 26.3221 21.1556C27.4321 18.7756 26.3921 15.8856 23.9721 14.8056L20.9421 13.4156C21.6821 12.1556 22.1021 10.6956 22.1121 9.1656C22.1121 9.0956 22.1121 9.0156 22.1121 8.9456C24.1321 8.4956 25.5821 6.7056 25.5821 4.5556C25.5821 2.0556 23.5221 -0.0044 21.0121 -0.0044C19.7321 -0.0044 18.5321 0.5356 17.6921 1.4556C16.3721 0.7156 14.8621 0.3056 13.3721 0.3056C11.8821 0.3056 10.3721 0.7156 9.0521 1.4556C8.2121 0.5356 6.9921 -0.0044 5.7321 -0.0044C3.2221 -0.0044 1.1621 2.0556 1.1621 4.5556C1.1621 6.7056 2.6121 8.4956 4.6321 8.9456C4.6321 9.0156 4.6221 9.0956 4.6221 9.1656C4.6421 10.7156 5.0721 12.1656 5.8021 13.4156L2.7921 14.8056C0.3721 15.8856 -0.6679 18.7756 0.4421 21.1556C0.9521 22.2256 1.8121 23.0356 2.8521 23.4856C2.8121 23.7656 2.8021 24.0556 2.8021 24.3556C2.8021 27.8956 5.0021 30.7056 7.7821 30.7056ZM7.2221 9.0556C7.2221 8.6756 7.2221 8.1056 7.5921 6.8356L7.1621 6.4456C6.6521 6.6056 6.2621 6.6656 5.7921 6.6656C4.6521 6.6656 3.7221 5.7456 3.7221 4.6056C3.7221 3.4956 4.6521 2.5756 5.7921 2.5756C6.8821 2.5756 7.7921 3.4656 7.8121 4.5556C7.8121 4.8256 7.7821 5.0056 7.7421 5.1656L8.4421 5.3656C9.6921 3.7456 11.4221 2.8956 13.3721 2.8956C15.3121 2.8956 17.0421 3.7456 18.3021 5.3656L18.9821 5.1656C18.9521 5.0056 18.9221 4.8256 18.9221 4.5556C18.9421 3.4656 19.8521 2.5756 20.9521 2.5756C22.0921 2.5756 23.0121 3.4956 23.0121 4.6056C23.0121 5.7456 22.0921 6.6656 20.9521 6.6656C20.4721 6.6656 20.0721 6.6056 19.5821 6.4456L19.1521 6.8356C19.5121 8.1056 19.5221 8.6756 19.5221 9.0556C19.5221 10.8856 18.7021 12.5356 17.4221 13.6656C17.4921 13.3556 17.5421 13.0356 17.5421 12.7056C17.5421 10.4156 15.6821 8.5556 13.3921 8.5556C11.1121 8.5556 9.2621 10.4256 9.2621 12.7056C9.2621 13.0556 9.2921 13.3956 9.3921 13.7256C8.0621 12.5956 7.2221 10.9256 7.2221 9.0556ZM10.4621 8.5356C11.0521 8.5356 11.5521 8.0556 11.5521 7.4456C11.5521 6.8556 11.0521 6.3656 10.4621 6.3656C9.8921 6.3656 9.4021 6.8556 9.4021 7.4456C9.4021 8.0556 9.8921 8.5356 10.4621 8.5356ZM16.2921 8.5356C16.8521 8.5356 17.3521 8.0556 17.3521 7.4456C17.3521 6.8556 16.8521 6.3656 16.2921 6.3656C15.7021 6.3656 15.2021 6.8556 15.2021 7.4456C15.2021 8.0556 15.7021 8.5356 16.2921 8.5356ZM13.3921 14.9456C12.1521 14.9456 11.1521 13.9356 11.1521 12.7056C11.1521 11.4756 12.1521 10.4656 13.3921 10.4656C14.6221 10.4656 15.6221 11.4756 15.6221 12.7056C15.6221 13.9356 14.6221 14.9456 13.3921 14.9456ZM13.3721 13.0056C13.9721 13.0056 14.8921 12.1356 14.8921 11.8956C14.8921 11.4956 14.2521 10.9356 13.3721 10.9356C12.4921 10.9356 11.8121 11.4956 11.8121 11.8956C11.8121 12.1356 12.7721 13.0056 13.3721 13.0056ZM13.3721 17.7856C15.4721 17.7856 17.4021 17.0356 18.9121 15.7956L22.7121 17.5156C23.6421 17.9456 24.0021 18.9756 23.5821 19.8856C23.4521 20.1656 23.2521 20.4156 23.0021 20.5756C22.1021 19.0156 20.6421 18.0256 18.9821 18.0256C16.1921 18.0256 13.9921 20.8356 13.9921 24.3556C13.9921 25.1256 14.1021 25.8656 14.3021 26.5456C13.6921 26.5856 13.0821 26.6056 12.4721 26.5456C12.6721 25.8656 12.7721 25.1256 12.7721 24.3556C12.7721 20.8356 10.5821 18.0256 7.7821 18.0256C6.1321 18.0256 4.6721 19.0156 3.7721 20.5756C3.5121 20.4156 3.3121 20.1656 3.1921 19.8856C2.7821 18.9756 3.1321 17.9456 4.0521 17.5156L7.8421 15.8056C9.3521 17.0356 11.2721 17.7856 13.3721 17.7856ZM7.7821 27.9656C6.6121 27.9656 5.5521 26.3056 5.5521 24.3556C5.5521 22.4056 6.6121 20.7656 7.7821 20.7656C8.9721 20.7656 10.0221 22.4056 10.0221 24.3556C10.0221 26.3056 8.9721 27.9656 7.7821 27.9656ZM18.9821 27.9656C17.7921 27.9656 16.7421 26.3056 16.7421 24.3556C16.7421 22.4056 17.7921 20.7656 18.9821 20.7656C20.1521 20.7656 21.2221 22.4056 21.2221 24.3556C21.2221 26.3056 20.1521 27.9656 18.9821 27.9656Z" />
        </svg>
    