
        <svg xmlns="http://www.w3.org/2000/svg" viewBox="0 0 100 100">
            <path d="M7.4512 29.8117C8.5912 29.8117 9.6212 29.3017 10.4212 28.4517C12.0612 28.7217 13.5912 28.7217 15.2612 28.4417C16.0512 29.3017 17.1012 29.8117 18.2312 29.8117C20.8112 29.8117 22.8612 27.1517 22.8612 23.8317C22.8612 23.4817 22.8412 23.1317 22.7912 22.7917C23.8612 22.4217 24.7612 21.6317 25.2812 20.5417C26.3012 18.3717 25.3512 15.7517 23.1512 14.7517L19.8712 13.2617C20.7312 11.9517 21.2212 10.4017 21.2312 8.7417C21.2312 8.6317 21.2212 8.4917 21.2112 8.3717C23.1912 8.0517 24.6512 6.3117 24.6512 4.2417C24.6512 1.9117 22.7312 0.0017 20.3912 0.0017C19.1412 0.0017 17.9412 0.5617 17.1712 1.5117C15.8512 0.7217 14.3412 0.2917 12.8312 0.2917C11.3212 0.2917 9.8112 0.7217 8.4912 1.5117C7.7112 0.5617 6.5312 0.0017 5.2612 0.0017C2.9212 0.0017 0.9912 1.9117 0.9912 4.2417C0.9912 6.3117 2.4612 8.0517 4.4412 8.3717C4.4412 8.4917 4.4312 8.6317 4.4312 8.7417C4.4412 10.4017 4.9312 11.9617 5.7912 13.2617L2.5312 14.7517C0.3412 15.7517 -0.6088 18.3717 0.4112 20.5417C0.9112 21.6317 1.8312 22.4217 2.8912 22.7917C2.8512 23.1317 2.8212 23.4817 2.8212 23.8317C2.8212 27.1517 4.8712 29.8117 7.4512 29.8117ZM6.4912 8.6917C6.4912 8.3017 6.5012 7.7217 6.8312 6.6117L6.5712 6.3717C6.1212 6.5017 5.7112 6.5517 5.2812 6.5517C4.0412 6.5517 3.0312 5.5317 3.0312 4.2917C3.0312 3.0617 4.0412 2.0517 5.2812 2.0517C6.4712 2.0517 7.4512 2.9917 7.5112 4.1617C7.5112 4.3217 7.5012 4.4717 7.4712 4.6017L7.9012 4.7217C9.1712 3.1917 10.9012 2.3417 12.8312 2.3417C14.7512 2.3417 16.4912 3.1917 17.7612 4.7217L18.1912 4.6017C18.1612 4.4717 18.1412 4.3217 18.1512 4.1617C18.2112 2.9917 19.1812 2.0517 20.3712 2.0517C21.6212 2.0517 22.6312 3.0617 22.6312 4.2917C22.6312 5.5317 21.6212 6.5517 20.3712 6.5517C19.9412 6.5517 19.5312 6.5017 19.0912 6.3717L18.8312 6.6117C19.1512 7.7217 19.1612 8.3017 19.1612 8.6917C19.1612 10.7217 18.2012 12.5417 16.7112 13.7017C16.8412 13.3117 16.9112 12.8917 16.9112 12.4617C16.9112 10.2317 15.0812 8.4117 12.8512 8.4117C10.6212 8.4117 8.8012 10.2417 8.8012 12.4617C8.8012 12.9117 8.8712 13.3317 9.0112 13.7417C7.4912 12.5817 6.4912 10.7617 6.4912 8.6917ZM9.9712 8.1717C10.5512 8.1717 11.0312 7.7017 11.0312 7.1217C11.0312 6.5517 10.5512 6.0717 9.9712 6.0717C9.4212 6.0717 8.9412 6.5517 8.9412 7.1217C8.9412 7.7017 9.4212 8.1717 9.9712 8.1717ZM15.6912 8.1717C16.2512 8.1717 16.7312 7.7017 16.7312 7.1217C16.7312 6.5517 16.2512 6.0717 15.6912 6.0717C15.1312 6.0717 14.6512 6.5517 14.6512 7.1217C14.6512 7.7017 15.1312 8.1717 15.6912 8.1717ZM12.8512 14.8717C11.5212 14.8717 10.4412 13.7917 10.4412 12.4617C10.4412 11.1417 11.5212 10.0517 12.8512 10.0517C14.1812 10.0517 15.2412 11.1417 15.2412 12.4617C15.2412 13.7917 14.1812 14.8717 12.8512 14.8717ZM12.8312 12.8017C13.4512 12.8017 14.4612 11.8717 14.4612 11.6117C14.4612 11.1917 13.7712 10.5917 12.8312 10.5917C11.8812 10.5917 11.1712 11.1917 11.1712 11.6117C11.1712 11.8717 12.2012 12.8017 12.8312 12.8017ZM12.8312 17.1017C14.9412 17.1017 16.8612 16.3117 18.3512 15.0117L22.2112 16.7717C23.3112 17.2817 23.7412 18.5117 23.2512 19.5917C23.0312 20.1017 22.6312 20.4617 22.1512 20.6617C21.3412 18.9917 19.9012 17.8917 18.2312 17.8917C15.6412 17.8917 13.6012 20.5517 13.6012 23.8317C13.6012 24.7417 13.7612 25.5917 14.0312 26.3517C13.2412 26.4417 12.4412 26.4517 11.6612 26.3717C11.9312 25.5917 12.0812 24.7417 12.0812 23.8317C12.0812 20.5517 10.0412 17.8917 7.4512 17.8917C5.7912 17.8917 4.3512 18.9917 3.5412 20.6617C3.0612 20.4617 2.6612 20.1017 2.4412 19.5917C1.9412 18.5117 2.3812 17.2817 3.4812 16.7717L7.3212 15.0217C8.8012 16.3117 10.7212 17.1017 12.8312 17.1017ZM7.4512 27.6317C6.1412 27.6317 5.0012 25.9117 5.0012 23.8317C5.0012 21.7717 6.1412 20.0717 7.4512 20.0717C8.7612 20.0717 9.9012 21.7717 9.9012 23.8317C9.9012 25.9117 8.7612 27.6317 7.4512 27.6317ZM18.2312 27.6317C16.9212 27.6317 15.7812 25.9117 15.7812 23.8317C15.7812 21.7717 16.9212 20.0717 18.2312 20.0717C19.5512 20.0717 20.6812 21.7717 20.6812 23.8317C20.6812 25.9117 19.5512 27.6317 18.2312 27.6317Z" />
        </svg>
    