
        <svg xmlns="http://www.w3.org/2000/svg" viewBox="0 0 100 100">
            <path d="M12.2223 24.4419C18.9723 24.4419 24.4423 18.9719 24.4423 12.2219C24.4423 5.4819 18.9723 0.0019 12.2223 0.0019C5.4823 0.0019 0.0023 5.4819 0.0023 12.2219C0.0023 18.9719 5.4823 24.4419 12.2223 24.4419ZM7.0623 15.9219C5.4223 14.2819 4.1923 12.3519 4.1923 10.7619C4.1923 10.0619 4.4423 9.4319 4.9123 8.9919C5.2423 8.6819 5.6823 8.3919 6.0623 8.3919C6.3523 8.3919 6.5823 8.6119 6.8423 8.9719L7.7823 10.2919C8.0023 10.5919 8.0723 10.8319 8.0723 11.0419C8.0723 11.2419 8.0323 11.3519 7.8823 11.6119L7.3623 12.5019C7.3123 12.5719 7.2923 12.6519 7.2923 12.7219C7.2923 12.8119 7.3223 12.9019 7.3323 12.9619C7.5723 13.3819 7.9823 13.9219 8.4923 14.4519C9.0223 14.9719 9.6223 15.4419 10.0523 15.6319C10.1723 15.6919 10.2323 15.7219 10.3323 15.7219C10.4023 15.7219 10.4623 15.7019 10.5723 15.6419L11.4623 15.1519C11.7423 15.0019 11.8823 14.9619 12.0623 14.9619C12.2723 14.9619 12.4223 15.0119 12.7523 15.2419L14.1223 16.2319C14.4823 16.4919 14.6323 16.7019 14.6323 16.9319C14.6323 17.2419 14.4723 17.5819 14.0723 18.0419C13.6523 18.5119 13.0123 18.8219 12.2623 18.8219C10.6623 18.8219 8.7023 17.5619 7.0623 15.9219ZM9.9823 10.8819C9.6023 10.8819 9.3723 10.6619 9.3723 10.2919V9.2919C9.3723 8.8819 9.6023 8.6819 9.9823 8.6819H10.9923C11.3823 8.6819 11.5923 8.8819 11.5923 9.2919V10.2919C11.5923 10.6619 11.3823 10.8819 10.9923 10.8819ZM12.8423 10.8819C12.4523 10.8819 12.2123 10.6619 12.2123 10.2919V9.2919C12.2123 8.8819 12.4523 8.6819 12.8423 8.6819H13.8423C14.2223 8.6819 14.4423 8.8819 14.4423 9.2919V10.2919C14.4423 10.6619 14.2223 10.8819 13.8423 10.8819ZM15.6723 10.8819C15.2923 10.8819 15.0823 10.6619 15.0823 10.2919V9.2919C15.0823 8.8819 15.2923 8.6819 15.6723 8.6819H16.6723C17.0623 8.6819 17.2823 8.8819 17.2823 9.2919V10.2919C17.2823 10.6619 17.0623 10.8819 16.6723 10.8819ZM18.5323 10.8819C18.1523 10.8819 17.9323 10.6619 17.9323 10.2919V9.2919C17.9323 8.8819 18.1523 8.6819 18.5323 8.6819H19.5223C19.9323 8.6819 20.1523 8.8819 20.1523 9.2919V10.2919C20.1523 10.6619 19.9323 10.8819 19.5223 10.8819ZM9.9723 13.7319C9.5823 13.7319 9.3723 13.5319 9.3723 13.1319V12.1319C9.3723 11.7419 9.5823 11.5419 9.9723 11.5419H10.9823C11.3823 11.5419 11.5923 11.7419 11.5923 12.1319V13.1319C11.5923 13.5319 11.3823 13.7319 10.9823 13.7319ZM12.8223 13.7319C12.4323 13.7319 12.2123 13.5319 12.2123 13.1319V12.1319C12.2123 11.7419 12.4323 11.5419 12.8223 11.5419H16.7123C17.1023 11.5419 17.2923 11.7419 17.2923 12.1319V13.1319C17.2923 13.5319 17.1023 13.7319 16.7123 13.7319ZM18.5423 13.7319C18.1623 13.7319 17.9323 13.5319 17.9323 13.1319V12.1319C17.9323 11.7419 18.1623 11.5419 18.5423 11.5419H19.5423C19.9523 11.5419 20.1523 11.7419 20.1523 12.1319V13.1319C20.1523 13.5319 19.9523 13.7319 19.5423 13.7319Z" />
        </svg>
    