
        <svg xmlns="http://www.w3.org/2000/svg" viewBox="0 0 100 100">
            <path d="M12.7923 25.5961C19.8723 25.5961 25.6023 19.8661 25.6023 12.7961C25.6023 5.7261 19.8723 -0.0039 12.7923 -0.0039C5.7323 -0.0039 0.0023 5.7261 0.0023 12.7961C0.0023 19.8661 5.7323 25.5961 12.7923 25.5961ZM7.8423 16.3561C6.2823 14.7961 5.1223 12.9761 5.1223 11.4461C5.1223 10.8061 5.3523 10.1961 5.7923 9.7761C6.1023 9.4961 6.5423 9.2261 6.8923 9.2261C7.1623 9.2261 7.4323 9.3961 7.6623 9.7461L8.5523 11.0061C8.7623 11.3061 8.8523 11.5061 8.8523 11.7061C8.8523 11.9061 8.7923 12.0161 8.6623 12.2361L8.1823 13.0761C8.1323 13.1561 8.1223 13.2261 8.1223 13.3161C8.1223 13.3861 8.1423 13.4661 8.1523 13.5361C8.4023 13.9461 8.7623 14.4361 9.2623 14.9561C9.7623 15.4361 10.3323 15.8761 10.7223 16.0561C10.8423 16.1161 10.9023 16.1361 10.9923 16.1361C11.0723 16.1361 11.1223 16.1261 11.2223 16.0761L12.0423 15.6061C12.3323 15.4761 12.4523 15.4361 12.6223 15.4361C12.8223 15.4361 12.9623 15.4761 13.2923 15.7061L14.5623 16.6361C14.9023 16.8861 15.0723 17.0861 15.0723 17.3061C15.0723 17.5861 14.8723 17.9461 14.4923 18.3661C14.0823 18.8161 13.4723 19.1061 12.7623 19.1061C11.2623 19.1061 9.4123 17.9261 7.8423 16.3561ZM10.6623 11.6061C10.2923 11.6061 10.0823 11.4061 10.0823 11.0361V10.0061C10.0823 9.6361 10.2923 9.4561 10.6623 9.4561H11.6823C12.0323 9.4561 12.2423 9.6361 12.2423 10.0061V11.0361C12.2423 11.4061 12.0323 11.6061 11.6823 11.6061ZM13.3223 11.6061C12.9523 11.6061 12.7423 11.4061 12.7423 11.0361V10.0061C12.7423 9.6361 12.9523 9.4561 13.3223 9.4561H14.3423C14.6923 9.4561 14.9023 9.6361 14.9023 10.0061V11.0361C14.9023 11.4061 14.6923 11.6061 14.3423 11.6061ZM15.9623 11.6061C15.6323 11.6061 15.4123 11.4061 15.4123 11.0361V10.0061C15.4123 9.6361 15.6323 9.4561 15.9623 9.4561H16.9923C17.3523 9.4561 17.5523 9.6361 17.5523 10.0061V11.0361C17.5523 11.4061 17.3523 11.6061 16.9923 11.6061ZM18.6323 11.6061C18.2823 11.6061 18.0823 11.4061 18.0823 11.0361V10.0061C18.0823 9.6361 18.2823 9.4561 18.6323 9.4561H19.6523C20.0123 9.4561 20.2623 9.6361 20.2623 10.0061V11.0361C20.2623 11.4061 20.0123 11.6061 19.6523 11.6061ZM10.6523 14.2661C10.2923 14.2661 10.0823 14.0761 10.0823 13.6961V12.6561C10.0823 12.3161 10.2923 12.1061 10.6523 12.1061H11.6623C12.0323 12.1061 12.2423 12.3161 12.2423 12.6561V13.6961C12.2423 14.0761 12.0323 14.2661 11.6623 14.2661ZM13.3023 14.2661C12.9423 14.2661 12.7423 14.0761 12.7423 13.6961V12.6561C12.7423 12.3161 12.9423 12.1061 13.3023 12.1061H17.0323C17.3923 12.1061 17.5623 12.3161 17.5623 12.6561V13.6961C17.5623 14.0761 17.3923 14.2661 17.0323 14.2661ZM18.6723 14.2661C18.2923 14.2661 18.0823 14.0761 18.0823 13.6961V12.6561C18.0823 12.3161 18.2923 12.1061 18.6723 12.1061H19.6723C20.0523 12.1061 20.2623 12.3161 20.2623 12.6561V13.6961C20.2623 14.0761 20.0523 14.2661 19.6723 14.2661Z" />
        </svg>
    