
        <svg xmlns="http://www.w3.org/2000/svg" viewBox="0 0 100 100">
            <path d="M11.9523 23.9041C18.5523 23.9041 23.9023 18.5541 23.9023 11.9541C23.9023 5.3541 18.5523 0.0041 11.9523 0.0041C5.3523 0.0041 0.0023 5.3541 0.0023 11.9541C0.0023 18.5541 5.3523 23.9041 11.9523 23.9041ZM11.9523 21.9141C6.4423 21.9141 1.9923 17.4641 1.9923 11.9541C1.9923 6.4441 6.4423 1.9941 11.9523 1.9941C17.4623 1.9941 21.9123 6.4441 21.9123 11.9541C21.9123 17.4641 17.4623 21.9141 11.9523 21.9141ZM11.9423 6.0441C9.6823 6.0441 7.1023 6.4541 5.8523 7.7541C5.3523 8.2241 5.0723 8.8441 5.0723 9.6241C5.0723 10.1441 5.2423 10.9241 5.8523 10.9841C6.0123 11.0341 6.1923 11.0141 6.4023 10.9941L8.1123 10.7041C8.7023 10.6041 8.9723 10.3941 9.1423 9.8241L9.4223 8.7741C9.4923 8.5941 9.5423 8.5041 9.7923 8.4241C10.2523 8.2541 11.0323 8.1541 11.9423 8.1541C12.8523 8.1541 13.6323 8.2541 14.0823 8.4241C14.3523 8.5041 14.3923 8.5941 14.4623 8.7741L14.7423 9.8241C14.9023 10.3941 15.1723 10.6041 15.7723 10.7041L17.4823 10.9941C17.6923 11.0141 17.8723 11.0341 18.0323 10.9841C18.6423 10.9241 18.8123 10.1441 18.8123 9.6241C18.8123 8.8441 18.5323 8.2241 18.0323 7.7541C16.7823 6.4541 14.2123 6.0441 11.9423 6.0441ZM6.5323 14.5941H7.6323C8.0623 14.5941 8.2923 14.3541 8.2923 13.9141V12.8041C8.2923 12.3841 8.0623 12.1241 7.6323 12.1241H6.5323C6.0923 12.1241 5.8523 12.3841 5.8523 12.8041V13.9141C5.8523 14.3541 6.0923 14.5941 6.5323 14.5941ZM9.7723 14.5941H10.8723C11.2923 14.5941 11.5423 14.3541 11.5423 13.9141V12.8041C11.5423 12.3841 11.2923 12.1241 10.8723 12.1241H9.7723C9.3323 12.1241 9.0723 12.3841 9.0723 12.8041V13.9141C9.0723 14.3541 9.3323 14.5941 9.7723 14.5941ZM12.9823 14.5941H14.1023C14.5223 14.5941 14.7823 14.3541 14.7823 13.9141V12.8041C14.7823 12.3841 14.5223 12.1241 14.1023 12.1241H12.9823C12.5623 12.1241 12.3023 12.3841 12.3023 12.8041V13.9141C12.3023 14.3541 12.5623 14.5941 12.9823 14.5941ZM16.2023 14.5941H17.3223C17.7623 14.5941 18.0123 14.3541 18.0123 13.9141V12.8041C18.0123 12.3841 17.7623 12.1241 17.3223 12.1241H16.2023C15.7923 12.1241 15.5423 12.3841 15.5423 12.8041V13.9141C15.5423 14.3541 15.7923 14.5941 16.2023 14.5941ZM6.5023 17.8441H7.6123C8.0623 17.8441 8.2923 17.5941 8.2923 17.1541V16.0441C8.2923 15.6241 8.0623 15.3641 7.6123 15.3641H6.5023C6.0823 15.3641 5.8523 15.6241 5.8523 16.0441V17.1541C5.8523 17.5941 6.0823 17.8441 6.5023 17.8441ZM9.7523 17.8441H14.1123C14.5423 17.8441 14.7923 17.5941 14.7923 17.1541V16.0441C14.7923 15.6241 14.5423 15.3641 14.1123 15.3641H9.7523C9.3123 15.3641 9.0723 15.6241 9.0723 16.0441V17.1541C9.0723 17.5941 9.3123 17.8441 9.7523 17.8441ZM16.2423 17.8441H17.3423C17.7823 17.8441 18.0123 17.5941 18.0123 17.1541V16.0441C18.0123 15.6241 17.7823 15.3641 17.3423 15.3641H16.2423C15.8123 15.3641 15.5523 15.6241 15.5523 16.0441V17.1541C15.5523 17.5941 15.8123 17.8441 16.2423 17.8441Z" />
        </svg>
    