
        <svg xmlns="http://www.w3.org/2000/svg" viewBox="0 0 100 100">
            <path d="M6.0947 16.052C9.5947 19.572 13.7947 22.242 17.1647 22.242C18.7647 22.242 20.1347 21.612 21.0447 20.592C21.9147 19.622 22.2347 18.882 22.2347 18.232C22.2347 17.732 21.9147 17.272 21.1447 16.722L18.2247 14.632C17.5047 14.122 17.1847 14.032 16.7547 14.032C16.3847 14.032 16.0747 14.102 15.4447 14.442L13.5547 15.482C13.3347 15.602 13.2347 15.632 13.0647 15.632C12.8347 15.632 12.6947 15.572 12.4547 15.482C11.5447 15.062 10.2747 14.062 9.1547 12.922C8.0247 11.802 7.1447 10.652 6.6947 9.742C6.6347 9.622 6.5547 9.442 6.5547 9.242C6.5547 9.092 6.6347 8.952 6.7247 8.792L7.8447 6.882C8.1447 6.352 8.2347 6.072 8.2347 5.662C8.2347 5.192 8.0847 4.702 7.6247 4.062L5.6347 1.282C5.0647 0.482 4.6047 0.002 3.9647 0.002C3.1647 0.002 2.2047 0.622 1.5147 1.282C0.5247 2.242 0.0047 3.572 0.0047 5.072C0.0047 8.462 2.6147 12.572 6.0947 16.052ZM12.7747 5.292H14.8247C15.6247 5.292 16.0547 4.852 16.0547 4.052V1.992C16.0547 1.182 15.6247 0.752 14.8247 0.752H12.7747C11.9747 0.752 11.5047 1.182 11.5047 1.992V4.052C11.5047 4.852 11.9747 5.292 12.7747 5.292ZM18.6647 5.292H20.7347C21.5147 5.292 21.9747 4.852 21.9747 4.052V1.992C21.9747 1.182 21.5147 0.752 20.7347 0.752H18.6647C17.8747 0.752 17.4047 1.182 17.4047 1.992V4.052C17.4047 4.852 17.8747 5.292 18.6647 5.292ZM24.5647 5.292H26.6147C27.4147 5.292 27.8647 4.852 27.8647 4.052V1.992C27.8647 1.182 27.4147 0.752 26.6147 0.752H24.5647C23.7647 0.752 23.3247 1.182 23.3247 1.992V4.052C23.3247 4.852 23.7647 5.292 24.5647 5.292ZM30.4547 5.292H32.5047C33.3147 5.292 33.7847 4.852 33.7847 4.052V1.992C33.7847 1.182 33.3147 0.752 32.5047 0.752H30.4547C29.6747 0.752 29.2247 1.182 29.2247 1.992V4.052C29.2247 4.852 29.6747 5.292 30.4547 5.292ZM12.7347 11.212H14.8047C15.5947 11.212 16.0547 10.772 16.0547 9.962V7.882C16.0547 7.102 15.5947 6.642 14.8047 6.642H12.7347C11.9547 6.642 11.5047 7.102 11.5047 7.882V9.962C11.5047 10.772 11.9547 11.212 12.7347 11.212ZM18.6447 11.212H26.6647C27.4547 11.212 27.8947 10.772 27.8947 9.962V7.882C27.8947 7.102 27.4547 6.642 26.6647 6.642H18.6447C17.8447 6.642 17.4047 7.102 17.4047 7.882V9.962C17.4047 10.772 17.8447 11.212 18.6447 11.212ZM30.4947 11.212H32.5547C33.3547 11.212 33.7847 10.772 33.7847 9.962V7.882C33.7847 7.102 33.3547 6.642 32.5547 6.642H30.4947C29.6947 6.642 29.2347 7.102 29.2347 7.882V9.962C29.2347 10.772 29.6947 11.212 30.4947 11.212Z" />
        </svg>
    