
        <svg xmlns="http://www.w3.org/2000/svg" viewBox="0 0 100 100">
            <path d="M11.3523 22.7064C17.6023 22.7064 22.7123 17.6064 22.7123 11.3564C22.7123 5.1064 17.6023 -0.0036 11.3523 -0.0036C5.1123 -0.0036 0.0023 5.1064 0.0023 11.3564C0.0023 17.6064 5.1123 22.7064 11.3523 22.7064ZM7.5723 6.6764C7.5723 6.5664 7.6623 6.4564 7.7823 6.4564H14.9323C15.0423 6.4564 15.1523 6.5664 15.1523 6.6764C15.1523 6.7964 15.0423 6.9064 14.9323 6.9064H7.7823C7.6623 6.9064 7.5723 6.8064 7.5723 6.6764ZM11.3623 16.4364C11.2023 16.4364 11.0623 16.3164 11.0623 16.1364V9.0464H7.8423C7.7023 9.0464 7.5823 8.9264 7.5823 8.7864C7.5823 8.6364 7.7023 8.5164 7.8423 8.5164H14.8823C15.0323 8.5164 15.1523 8.6364 15.1523 8.7864C15.1523 8.9264 15.0323 9.0464 14.8823 9.0464H11.6823V16.1364C11.6823 16.3164 11.5423 16.4364 11.3623 16.4364Z" />
        </svg>
    