
        <svg xmlns="http://www.w3.org/2000/svg" viewBox="0 0 100 100">
            <path d="M11.4923 22.977C17.8323 22.977 22.9823 17.847 22.9823 11.497C22.9823 5.147 17.8323 -0.003 11.4923 -0.003C5.1423 -0.003 0.0023 5.147 0.0023 11.497C0.0023 17.847 5.1423 22.977 11.4923 22.977ZM11.4923 22.087C5.6323 22.087 0.8923 17.357 0.8923 11.497C0.8923 5.637 5.6323 0.887 11.4923 0.887C17.3523 0.887 22.0923 5.637 22.0923 11.497C22.0923 17.357 17.3523 22.087 11.4923 22.087ZM7.6423 6.777C7.6423 6.927 7.7623 7.027 7.9023 7.027H15.0723C15.2123 7.027 15.3323 6.917 15.3323 6.777C15.3323 6.637 15.2123 6.517 15.0723 6.517H7.9023C7.7623 6.517 7.6423 6.637 7.6423 6.777ZM11.5123 16.677C11.7323 16.677 11.8923 16.507 11.8923 16.277V9.237H15.0123C15.1923 9.237 15.3323 9.097 15.3323 8.907C15.3323 8.727 15.1923 8.587 15.0123 8.587H7.9823C7.8023 8.587 7.6623 8.727 7.6623 8.907C7.6623 9.097 7.8023 9.237 7.9823 9.237H11.1123V16.277C11.1123 16.507 11.2823 16.677 11.5123 16.677Z" />
        </svg>
    