
        <svg xmlns="http://www.w3.org/2000/svg" viewBox="0 0 100 100">
            <path d="M3.9717 22.1117H18.1317C20.7317 22.1117 22.1017 20.7417 22.1017 18.1717V3.9417C22.1017 1.3717 20.7317 0.0017 18.1317 0.0017H3.9717C1.3817 0.0017 0.0017 1.3717 0.0017 3.9417V18.1717C0.0017 20.7417 1.3817 22.1117 3.9717 22.1117ZM6.8117 6.0517C6.8117 5.8217 6.9717 5.6617 7.1817 5.6617H15.0017C15.2117 5.6617 15.3717 5.8217 15.3717 6.0517C15.3717 6.2417 15.2117 6.4217 15.0017 6.4217H7.1817C6.9717 6.4217 6.8117 6.2617 6.8117 6.0517ZM11.1117 16.7017C10.5517 16.7017 10.1517 16.3017 10.1517 15.7117V9.0517H7.5017C7.1017 9.0517 6.8317 8.7617 6.8317 8.3917C6.8317 8.0017 7.1017 7.7317 7.5017 7.7317H14.7117C15.1017 7.7317 15.3717 8.0017 15.3717 8.3917C15.3717 8.7617 15.1017 9.0517 14.7117 9.0517H12.0717V15.7117C12.0717 16.3017 11.6817 16.7017 11.1117 16.7017Z" />
        </svg>
    