
        <svg xmlns="http://www.w3.org/2000/svg" viewBox="0 0 100 100">
            <path d="M11.7523 23.5048C18.2323 23.5048 23.5123 18.2348 23.5123 11.7548C23.5123 5.2748 18.2323 0.0048 11.7523 0.0048C5.2723 0.0048 0.0023 5.2748 0.0023 11.7548C0.0023 18.2348 5.2723 23.5048 11.7523 23.5048ZM7.7123 6.8548C7.7123 6.6648 7.8623 6.5048 8.0623 6.5048H15.4323C15.6223 6.5048 15.7723 6.6648 15.7723 6.8548C15.7723 7.0348 15.6223 7.1948 15.4323 7.1948H8.0623C7.8623 7.1948 7.7123 7.0548 7.7123 6.8548ZM11.7623 17.2248C11.4523 17.2248 11.1923 16.9648 11.1923 16.6248V9.5348H8.2023C7.9323 9.5348 7.7323 9.3348 7.7323 9.0848C7.7323 8.8248 7.9323 8.6348 8.2023 8.6348H15.3123C15.5823 8.6348 15.7723 8.8248 15.7723 9.0848C15.7723 9.3348 15.5823 9.5348 15.3123 9.5348H12.3423V16.6248C12.3423 16.9648 12.0923 17.2248 11.7623 17.2248Z" />
        </svg>
    