
        <svg xmlns="http://www.w3.org/2000/svg" viewBox="0 0 100 100">
            <path d="M12.2223 24.4436C18.9723 24.4436 24.4423 18.9736 24.4423 12.2236C24.4423 5.4736 18.9723 0.0036 12.2223 0.0036C5.4723 0.0036 0.0023 5.4736 0.0023 12.2236C0.0023 18.9736 5.4723 24.4436 12.2223 24.4436ZM12.2223 21.7636C6.9523 21.7636 2.6823 17.4936 2.6823 12.2236C2.6823 6.9536 6.9523 2.6836 12.2223 2.6836C17.4923 2.6836 21.7623 6.9536 21.7623 12.2236C21.7623 17.4936 17.4923 21.7636 12.2223 21.7636ZM8.1123 7.4336C8.1123 7.6436 8.2723 7.7936 8.4723 7.7936H15.9223C16.1323 7.7936 16.3023 7.6436 16.3023 7.4336C16.3023 7.2336 16.1323 7.0736 15.9223 7.0736H8.4723C8.2723 7.0736 8.1123 7.2336 8.1123 7.4336ZM12.2223 17.6236C12.7623 17.6236 13.1223 17.2536 13.1223 16.7036V10.3036H15.6723C16.0423 10.3036 16.3023 10.0436 16.3023 9.6836C16.3023 9.3136 16.0423 9.0536 15.6723 9.0536H8.7623C8.3923 9.0536 8.1323 9.3136 8.1323 9.6836C8.1323 10.0436 8.3923 10.3036 8.7623 10.3036H11.3223V16.7036C11.3223 17.2536 11.6923 17.6236 12.2223 17.6236Z" />
        </svg>
    