
        <svg xmlns="http://www.w3.org/2000/svg" viewBox="0 0 100 100">
            <path d="M3.1617 20.742H17.5917C19.6617 20.742 20.7417 19.642 20.7417 17.592V3.152C20.7417 1.102 19.6617 0.002 17.5917 0.002H3.1617C1.0917 0.002 0.0017 1.082 0.0017 3.152V17.592C0.0017 19.662 1.0917 20.742 3.1617 20.742ZM6.5017 5.612C6.5017 5.472 6.6217 5.352 6.7617 5.352H13.9917C14.1317 5.352 14.2517 5.472 14.2517 5.612C14.2517 5.752 14.1317 5.882 13.9917 5.882H6.7617C6.6217 5.882 6.5017 5.782 6.5017 5.612ZM10.3917 15.582C10.1717 15.582 9.9917 15.422 9.9917 15.192V8.102H6.8517C6.6717 8.102 6.5117 7.942 6.5117 7.772C6.5117 7.582 6.6717 7.442 6.8517 7.442H13.9217C14.1117 7.442 14.2517 7.582 14.2517 7.772C14.2517 7.942 14.1117 8.102 13.9217 8.102H10.7917V15.192C10.7917 15.422 10.6217 15.582 10.3917 15.582Z" />
        </svg>
    