
        <svg xmlns="http://www.w3.org/2000/svg" viewBox="0 0 100 100">
            <path d="M11.9523 0.0041C5.3523 0.0041 0.0023 5.3541 0.0023 11.9541C0.0023 18.5541 5.3523 23.9041 11.9523 23.9041C18.5523 23.9041 23.9023 18.5541 23.9023 11.9541C23.9023 5.3541 18.5523 0.0041 11.9523 0.0041ZM11.9523 1.5941C17.6723 1.5941 22.3123 6.2341 22.3123 11.9541C22.3123 12.0241 22.3123 12.0341 22.3123 12.0441C21.9923 12.0141 21.6723 11.9841 21.3423 11.9841C16.4723 11.9841 12.5523 15.9141 12.5523 20.7941C12.5523 21.3041 12.6023 21.7941 12.6823 22.2941C12.4323 22.3041 12.2023 22.3141 11.9523 22.3141C6.2323 22.3141 1.5923 17.6741 1.5923 11.9541C1.5923 11.8741 1.5923 11.8441 1.5923 11.8241C1.9223 11.8641 2.2523 11.8841 2.5923 11.8841C7.4523 11.8841 11.3823 7.9541 11.3823 3.0841C11.3823 2.5741 11.3423 2.0841 11.2623 1.6141C11.4823 1.5941 11.7223 1.5941 11.9523 1.5941ZM9.8423 3.0841C9.8423 7.2141 6.7123 10.3441 2.5923 10.3441C2.2923 10.3441 2.0023 10.3341 1.7223 10.3041C2.4023 6.0941 5.6123 2.7341 9.7423 1.8241C9.8123 2.2241 9.8423 2.6441 9.8423 3.0841ZM14.0823 20.7941C14.0823 16.6541 17.2123 13.5241 21.3423 13.5241C21.6323 13.5241 21.9123 13.5441 22.1823 13.5741C21.5323 17.7841 18.3123 21.1541 14.1923 22.0641C14.1223 21.6541 14.0823 21.2341 14.0823 20.7941Z" />
        </svg>
    