
        <svg xmlns="http://www.w3.org/2000/svg" viewBox="0 0 100 100">
            <path d="M11.9523 23.9041C18.5523 23.9041 23.9023 18.5341 23.9023 11.9541C23.9023 5.3541 18.5523 0.0041 11.9523 0.0041C5.3623 0.0041 0.0023 5.3541 0.0023 11.9541C0.0023 18.5341 5.3623 23.9041 11.9523 23.9041ZM17.6223 6.2441C19.1823 7.7941 18.9723 10.4641 17.1823 12.2741C16.1323 13.3041 14.8323 13.7141 13.5623 13.7541C11.8823 13.7941 10.8823 13.9341 9.4823 15.1741C9.5823 15.4341 9.5423 15.7141 9.3123 15.9341L6.9223 18.3441C6.6423 18.6341 6.2023 18.6341 5.9323 18.3441L5.5223 17.9141C5.2223 17.6241 5.2423 17.2241 5.5223 16.9441L7.9223 14.5341C8.1423 14.2941 8.4623 14.2541 8.7223 14.3941C9.9523 12.9741 10.0923 11.9641 10.1123 10.3041C10.1223 9.0441 10.5723 7.7241 11.5923 6.6841C13.3923 4.8941 16.0623 4.7041 17.6223 6.2441ZM13.7623 6.5041L14.4923 7.2341L15.4423 6.2841C14.9023 6.1841 14.3223 6.2741 13.7623 6.5041ZM15.0923 7.8541L16.1123 8.8641L17.3223 7.6241C17.2023 7.4041 17.0523 7.1941 16.8623 6.9941C16.7023 6.8441 16.5223 6.7041 16.3523 6.5941ZM11.8823 8.0041L12.7923 8.9141L13.8723 7.8541L12.9723 6.9541C12.7623 7.0941 12.5523 7.2541 12.3623 7.4441C12.1723 7.6241 12.0223 7.8141 11.8823 8.0041ZM13.4023 9.5341L14.4223 10.5541L15.5023 9.4841L14.4923 8.4741ZM16.7223 9.4841L17.3623 10.1241C17.5823 9.6241 17.6623 9.0941 17.5923 8.6141ZM11.1923 10.5341L12.1923 9.5341L11.4423 8.8041C11.1823 9.3741 11.1023 9.9741 11.1923 10.5341ZM15.0323 11.1641L15.8523 11.9841C16.0423 11.8641 16.2423 11.6941 16.4223 11.5041C16.6023 11.3241 16.7923 11.1141 16.9323 10.9141L16.1223 10.0941ZM11.5223 11.4341C11.6123 11.6241 11.7523 11.7841 11.9223 11.9541C12.1023 12.1541 12.3323 12.3041 12.5723 12.4241L13.8123 11.1641L12.8123 10.1441ZM13.5223 12.6841C14.0323 12.7341 14.5523 12.6541 15.0723 12.4341L14.4223 11.7741Z" />
        </svg>
    