
        <svg xmlns="http://www.w3.org/2000/svg" viewBox="0 0 100 100">
            <path d="M11.3523 22.7064C17.6023 22.7064 22.7123 17.6064 22.7123 11.3564C22.7123 5.1064 17.6023 -0.0036 11.3523 -0.0036C5.1123 -0.0036 0.0023 5.1064 0.0023 11.3564C0.0023 17.6064 5.1123 22.7064 11.3523 22.7064ZM17.3823 5.3364C19.0523 7.0064 18.8323 9.8364 16.8523 11.7964C15.6423 13.0064 14.1323 13.4564 12.7623 13.4164C11.0123 13.3664 9.9723 13.6164 8.4923 14.9264C8.5823 15.1264 8.5523 15.3564 8.3923 15.5164L5.6723 18.2264C5.4623 18.4364 5.1723 18.4364 4.9523 18.2264L4.4723 17.7564C4.2823 17.5464 4.2823 17.2364 4.4723 17.0364L7.1923 14.3164C7.3623 14.1564 7.5923 14.1464 7.7723 14.2364C9.1123 12.7264 9.4023 11.6164 9.2823 9.8864C9.2023 8.5864 9.7123 7.0264 10.9023 5.8464C12.8623 3.8764 15.6923 3.6564 17.3823 5.3364ZM12.9223 5.1364L14.1223 6.3364L15.5523 4.9064C14.7423 4.6564 13.8023 4.7264 12.9223 5.1364ZM14.5423 6.7464L16.0823 8.2864L17.6323 6.7264C17.4723 6.3764 17.2523 6.0464 16.9423 5.7464C16.7123 5.5064 16.4323 5.2964 16.1523 5.1464ZM10.5323 7.2464L11.8723 8.5764L13.7123 6.7464L12.3823 5.4264C12.0223 5.6564 11.6623 5.9364 11.3323 6.2664C11.0123 6.5864 10.7623 6.9064 10.5323 7.2464ZM12.3023 8.9864L13.8423 10.5464L15.6523 8.7064L14.1223 7.1764ZM16.4923 8.7064L17.5823 9.7864C17.9423 8.9664 18.0423 8.1164 17.8523 7.3464ZM9.9623 10.4964L11.4723 8.9864L10.2423 7.7664C9.7923 8.6964 9.6923 9.6564 9.9623 10.4964ZM14.2523 10.9464L15.4523 12.1664C15.7823 11.9564 16.1223 11.6964 16.4423 11.3764C16.7723 11.0464 17.0523 10.6864 17.2823 10.3264L16.0823 9.1164ZM10.2023 11.0864C10.3623 11.3764 10.5723 11.6464 10.8023 11.8864C11.1123 12.1864 11.4423 12.4064 11.7923 12.5764L13.4223 10.9464L11.8823 9.4064ZM12.4123 12.7864C13.2023 12.9764 14.0723 12.8664 14.9223 12.4564L13.8423 11.3564Z" />
        </svg>
    