
        <svg xmlns="http://www.w3.org/2000/svg" viewBox="0 0 100 100">
            <path d="M10.973 23.4725H31.823C33.063 23.4725 33.453 22.4025 32.933 21.3825L22.743 0.9025C22.453 0.3425 21.943 0.0025 21.403 0.0025C20.853 0.0025 20.343 0.3325 20.073 0.8825L14.473 12.1125L9.883 2.8725C9.653 2.4125 9.213 2.1225 8.743 2.1225C8.273 2.1225 7.853 2.4125 7.623 2.8725L0.183 17.8125C-0.257 18.6725 0.113 19.6025 1.153 19.6025H10.753L9.873 21.3825C9.353 22.4025 9.743 23.4725 10.973 23.4725ZM10.093 18.2225L8.743 12.1725L7.413 18.2225H4.683L8.303 10.3925C8.393 10.1925 8.563 10.0925 8.743 10.0925C8.933 10.0925 9.113 10.1925 9.213 10.3925L12.153 16.7825L11.443 18.2225ZM15.773 22.0625L20.773 11.2825C20.913 11.0025 21.143 10.8725 21.403 10.8725C21.653 10.8725 21.883 11.0025 22.023 11.2825L27.013 22.0625H23.233L21.403 13.7225L19.563 22.0625Z" />
        </svg>
    