
        <svg xmlns="http://www.w3.org/2000/svg" viewBox="0 0 100 100">
            <path d="M10.5375 22.9233H31.3475C32.2875 22.9233 32.6475 22.1833 32.1975 21.2833L21.9575 0.6633C21.7475 0.2333 21.3575 0.0033 20.9375 0.0033C20.5175 0.0033 20.1475 0.2233 19.9275 0.6533L14.0975 12.4133L9.2875 2.7433C9.1175 2.3933 8.7975 2.1833 8.4475 2.1833C8.1075 2.1833 7.7875 2.3933 7.6175 2.7433L0.1475 17.7733C-0.2125 18.4933 0.1075 19.1233 0.8675 19.1233H10.7575L9.6875 21.2833C9.2375 22.1833 9.6075 22.9233 10.5375 22.9233ZM9.7275 18.2833L8.4475 12.2033L7.1775 18.2833H4.6575L8.1075 10.5233C8.1775 10.3833 8.2975 10.3133 8.4475 10.3133C8.5975 10.3133 8.7275 10.3833 8.7975 10.5233L11.7375 17.1333L11.1775 18.2833ZM15.6875 22.0333L20.4675 11.3433C20.5675 11.1433 20.7375 11.0433 20.9375 11.0433C21.1475 11.0433 21.3275 11.1433 21.4175 11.3433L26.1875 22.0333H22.6875L20.9375 13.6433L19.1975 22.0333Z" />
        </svg>
    