
        <svg xmlns="http://www.w3.org/2000/svg" viewBox="0 0 100 100">
            <path d="M8.3794 26.4768H30.2194C32.1894 26.4768 33.1594 24.6268 32.2594 22.8268L29.9894 18.2768L35.2194 25.5568C35.6394 26.1468 36.2394 26.4768 36.8794 26.4768C37.9094 26.4768 38.6294 25.7568 38.6294 24.7068V20.8968C38.6294 20.0668 37.9494 19.3768 37.0994 19.3768C36.2694 19.3768 35.5894 20.0668 35.5894 20.8968V21.0468L21.3994 1.1468C20.2994 -0.3832 18.3294 -0.3832 17.2294 1.1468L3.0394 21.0468V20.8968C3.0394 20.0668 2.3594 19.3768 1.5094 19.3768C0.6794 19.3768 -0.0006 20.0668 -0.0006 20.8968V24.7068C-0.0006 25.7568 0.7194 26.4768 1.7394 26.4768C2.3894 26.4768 2.9894 26.1468 3.4094 25.5568L8.6394 18.2768L6.3494 22.8268C5.4594 24.6268 6.4294 26.4768 8.3794 26.4768ZM13.1594 23.1468L18.0194 12.2268C18.2794 11.6768 18.7994 11.3768 19.2994 11.3768C19.8294 11.3768 20.3294 11.6768 20.5794 12.2268L25.4494 23.1468H21.2394L19.2994 15.0568L17.3794 23.1468Z" />
        </svg>
    