
        <svg xmlns="http://www.w3.org/2000/svg" viewBox="0 0 100 100">
            <path d="M3.5517 9.5645C5.3717 9.5645 6.7817 8.2345 6.7817 6.4945C6.7817 4.8145 5.6217 3.6045 4.1217 3.6045C3.4917 3.6045 2.8717 3.7745 2.3717 4.2145C2.7517 3.0445 3.8417 2.2245 5.4017 2.0945C5.9317 2.0545 6.3417 1.5845 6.3417 1.0645C6.3417 0.4545 5.7917 0.0045 5.0717 0.0045C2.4017 0.0045 0.0017 2.1945 0.0017 5.3945C0.0017 7.9245 1.4017 9.5645 3.5517 9.5645ZM11.5617 9.5645C13.3617 9.5645 14.7817 8.2345 14.7817 6.4945C14.7817 4.8145 13.6217 3.6045 12.1317 3.6045C11.4817 3.6045 10.8617 3.7745 10.3617 4.2145C10.7417 3.0445 11.8317 2.2245 13.3917 2.0945C13.9217 2.0545 14.3417 1.5845 14.3417 1.0645C14.3417 0.4545 13.8017 0.0045 13.0817 0.0045C10.3917 0.0045 7.9917 2.1945 7.9917 5.3945C7.9917 7.9245 9.4117 9.5645 11.5617 9.5645ZM18.5717 3.3745H24.9817C25.9217 3.3745 26.6717 2.6245 26.6717 1.6845C26.6717 0.7545 25.9217 0.0045 24.9817 0.0045H18.5717C17.6417 0.0045 16.8917 0.7545 16.8917 1.6845C16.8917 2.6245 17.6417 3.3745 18.5717 3.3745ZM18.5717 9.5145H24.9817C25.9217 9.5145 26.6717 8.7645 26.6717 7.8145C26.6717 6.8745 25.9217 6.1245 24.9817 6.1245H18.5717C17.6417 6.1245 16.8917 6.8745 16.8917 7.8145C16.8917 8.7645 17.6417 9.5145 18.5717 9.5145ZM1.6917 15.6445H24.9817C25.9217 15.6445 26.6717 14.8945 26.6717 13.9545C26.6717 13.0145 25.9217 12.2545 24.9817 12.2545H1.6917C0.7517 12.2545 0.0017 13.0145 0.0017 13.9545C0.0017 14.8945 0.7517 15.6445 1.6917 15.6445ZM1.6917 21.7745H24.9817C25.9217 21.7745 26.6717 21.0245 26.6717 20.0845C26.6717 19.1445 25.9217 18.3945 24.9817 18.3945H1.6917C0.7517 18.3945 0.0017 19.1445 0.0017 20.0845C0.0017 21.0245 0.7517 21.7745 1.6917 21.7745Z" />
        </svg>
    