
        <svg xmlns="http://www.w3.org/2000/svg" viewBox="0 0 100 100">
            <path d="M7.8302 1.3755H29.6602C30.0502 1.3755 30.3502 1.0755 30.3502 0.6755C30.3502 0.2955 30.0502 -0.0045 29.6602 -0.0045H7.8302C7.4402 -0.0045 7.1502 0.2955 7.1502 0.6755C7.1502 1.0755 7.4402 1.3755 7.8302 1.3755ZM7.8302 7.4455H29.6602C30.0502 7.4455 30.3502 7.1455 30.3502 6.7455C30.3502 6.3655 30.0502 6.0655 29.6602 6.0655H7.8302C7.4402 6.0655 7.1502 6.3655 7.1502 6.7455C7.1502 7.1455 7.4402 7.4455 7.8302 7.4455ZM7.8302 13.5155H29.6602C30.0502 13.5155 30.3502 13.2055 30.3502 12.8155C30.3502 12.4355 30.0502 12.1455 29.6602 12.1455H7.8302C7.4402 12.1455 7.1502 12.4355 7.1502 12.8155C7.1502 13.2055 7.4402 13.5155 7.8302 13.5155ZM0.9102 22.2455L5.1002 19.6955C5.5502 19.4155 5.5402 18.8655 5.1002 18.5955L0.9102 16.0355C0.4602 15.7455 0.0002 15.9855 0.0002 16.5255V21.7655C0.0002 22.3155 0.4702 22.5255 0.9102 22.2455ZM8.3902 20.7855H29.1102C29.9302 20.7855 30.3502 20.3755 30.3502 19.5555V18.7055C30.3502 17.8955 29.9302 17.4755 29.1102 17.4755H8.3902C7.5702 17.4755 7.1502 17.8955 7.1502 18.7055V19.5555C7.1502 20.3755 7.5702 20.7855 8.3902 20.7855Z" />
        </svg>
    