
        <svg xmlns="http://www.w3.org/2000/svg" viewBox="0 0 100 100">
            <path d="M0.6177 5.9897L4.8377 3.4297C5.1477 3.2397 5.1377 2.8397 4.8377 2.6597L0.6077 0.0797C0.3377 -0.0903 -0.0023 0.0197 -0.0023 0.3897V5.6597C-0.0023 6.0497 0.3477 6.1497 0.6177 5.9897ZM7.3477 4.2097H28.2277C28.7077 4.2097 28.9877 3.9297 28.9877 3.4497V2.6097C28.9877 2.1297 28.7077 1.8397 28.2277 1.8397H7.3477C6.8577 1.8397 6.5877 2.1297 6.5877 2.6097V3.4497C6.5877 3.9297 6.8577 4.2097 7.3477 4.2097ZM6.8677 9.4697H28.7077C28.8877 9.4697 28.9877 9.3697 28.9877 9.1897C28.9877 9.0197 28.8877 8.8997 28.7077 8.8997H6.8677C6.6877 8.8997 6.5877 9.0197 6.5877 9.1897C6.5877 9.3697 6.6877 9.4697 6.8677 9.4697ZM6.8677 15.6397H28.7077C28.8877 15.6397 28.9877 15.5297 28.9877 15.3597C28.9877 15.1797 28.8877 15.0597 28.7077 15.0597H6.8677C6.6877 15.0597 6.5877 15.1797 6.5877 15.3597C6.5877 15.5297 6.6877 15.6397 6.8677 15.6397ZM6.8677 21.8097H28.7077C28.8877 21.8097 28.9877 21.6997 28.9877 21.5197C28.9877 21.3397 28.8877 21.2297 28.7077 21.2297H6.8677C6.6877 21.2297 6.5877 21.3397 6.5877 21.5197C6.5877 21.6997 6.6877 21.8097 6.8677 21.8097Z" />
        </svg>
    