
        <svg xmlns="http://www.w3.org/2000/svg" viewBox="0 0 100 100">
            <path d="M0.0017 21.7456C0.0017 24.5556 1.5817 26.1356 4.3717 26.1356H16.9817C19.7617 26.1356 21.3417 24.5556 21.3417 21.7456V4.3756C21.3417 1.5856 19.7617 -0.0044 16.9817 -0.0044H4.3717C1.5817 -0.0044 0.0017 1.5856 0.0017 4.3756ZM3.6217 21.2656V4.8656C3.6217 4.0456 3.9917 3.6256 4.8717 3.6256H16.4617C17.3417 3.6256 17.7217 4.0456 17.7217 4.8656V21.2656C17.7217 22.0856 17.3417 22.5156 16.4617 22.5156H4.8717C3.9917 22.5156 3.6217 22.0856 3.6217 21.2656ZM6.8717 7.4256H14.6417C15.0917 7.4256 15.4417 7.0656 15.4417 6.6056C15.4417 6.1656 15.0917 5.8156 14.6417 5.8156H6.8717C6.4017 5.8156 6.0517 6.1656 6.0517 6.6056C6.0517 7.0656 6.4017 7.4256 6.8717 7.4256ZM6.8717 10.6756H11.3517C11.8117 10.6756 12.1617 10.3156 12.1617 9.8556C12.1617 9.3956 11.8117 9.0556 11.3517 9.0556H6.8717C6.4017 9.0556 6.0517 9.3956 6.0517 9.8556C6.0517 10.3156 6.4017 10.6756 6.8717 10.6756ZM7.0117 20.6456H14.3717C15.2717 20.6456 15.7417 20.1756 15.7417 19.2756V13.6656C15.7417 12.7756 15.2717 12.3056 14.3717 12.3056H7.0117C6.1417 12.3056 5.6117 12.7756 5.6117 13.6656V19.2756C5.6117 20.1756 6.1417 20.6456 7.0117 20.6456Z" />
        </svg>
    