
        <svg xmlns="http://www.w3.org/2000/svg" viewBox="0 0 100 100">
            <path d="M4.3617 26.1356H19.8317C20.7417 26.1356 21.3717 25.4956 21.3717 24.5856C21.3717 23.7056 20.7817 23.2656 20.1217 22.8356C18.8117 22.0456 18.5717 19.8156 20.0817 18.5956C21.0917 17.8356 21.3417 17.2456 21.3417 16.0156V4.3856C21.3417 1.5856 19.7617 -0.0044 16.9817 -0.0044H4.3717C1.5817 -0.0044 0.0017 1.5856 0.0017 4.3856V21.7656C0.0017 24.5556 1.5817 26.1356 4.3617 26.1356ZM4.4717 16.8056C4.0217 16.8056 3.6417 16.4256 3.6417 15.9756V3.2656C3.6417 2.8156 4.0217 2.4356 4.4717 2.4356C4.9317 2.4356 5.3217 2.8156 5.3217 3.2656V15.9756C5.3217 16.4256 4.9317 16.8056 4.4717 16.8056ZM9.4117 8.2356C8.8017 8.2356 8.3117 7.7456 8.3117 7.1456C8.3117 6.5356 8.8017 6.0356 9.4117 6.0356H16.3117C16.9217 6.0356 17.4117 6.5356 17.4117 7.1456C17.4117 7.7456 16.9217 8.2356 16.3117 8.2356ZM9.4117 11.8556C8.8017 11.8556 8.3117 11.3556 8.3117 10.7456C8.3117 10.1456 8.8017 9.6556 9.4117 9.6556H14.6617C15.2617 9.6556 15.7617 10.1456 15.7617 10.7456C15.7617 11.3556 15.2617 11.8556 14.6617 11.8556ZM5.2717 23.0356C3.8317 23.0356 3.1317 22.1256 3.1317 21.0256C3.1317 19.9556 3.8717 19.0356 5.3017 19.0356H16.0517C16.1417 19.0356 16.2117 19.0356 16.2917 19.0156C15.6517 20.3056 15.6517 21.8156 16.2617 23.0356Z" />
        </svg>
    