
        <svg xmlns="http://www.w3.org/2000/svg" viewBox="0 0 100 100">
            <path d="M16.6017 9.7977C17.1217 9.7977 17.4617 9.4577 17.4617 8.9677V0.9477C17.4617 0.3677 17.1117 -0.0023 16.5317 -0.0023C16.0217 -0.0023 15.7617 0.1977 15.4217 0.4377L13.5517 1.7177C13.2117 1.9477 13.0817 2.1577 13.0817 2.3977C13.0817 2.7977 13.3717 3.0977 13.7317 3.0977C13.9717 3.0977 14.1117 3.0277 14.3417 2.8577L15.7117 1.9477H15.7517V8.9677C15.7517 9.4577 16.1017 9.7977 16.6017 9.7977ZM0.9817 19.5377C1.6017 19.5377 1.9117 19.2977 2.1317 18.6477L3.6417 14.5077H10.5617L12.0717 18.6477C12.2917 19.2977 12.6017 19.5377 13.2117 19.5377C13.8317 19.5377 14.2217 19.1577 14.2217 18.5777C14.2217 18.3777 14.1917 18.1877 14.1017 17.9377L8.6017 3.3077C8.3317 2.5877 7.8517 2.2277 7.1017 2.2277C6.3717 2.2277 5.8817 2.5777 5.6217 3.2977L0.1317 17.9577C0.0317 18.1977 0.0017 18.3877 0.0017 18.5877C0.0017 19.1677 0.3717 19.5377 0.9817 19.5377ZM4.2217 12.7277L7.0617 4.8377H7.1217L9.9717 12.7277Z" />
        </svg>
    