
        <svg xmlns="http://www.w3.org/2000/svg" viewBox="0 0 100 100">
            <path d="M1.1417 2.2838H23.4417C24.0717 2.2838 24.5817 1.7838 24.5817 1.1337C24.5817 0.5038 24.0717 0.0038 23.4417 0.0038H1.1417C0.5017 0.0038 0.0017 0.5038 0.0017 1.1337C0.0017 1.7838 0.5017 2.2838 1.1417 2.2838ZM10.3217 8.4138H23.4417C24.0717 8.4138 24.5817 7.9138 24.5817 7.2738C24.5817 6.6438 24.0717 6.1438 23.4417 6.1438H10.3217C9.6917 6.1438 9.1917 6.6438 9.1917 7.2738C9.1917 7.9138 9.6917 8.4138 10.3217 8.4138ZM1.1417 14.5538H23.4417C24.0717 14.5538 24.5817 14.0538 24.5817 13.4138C24.5817 12.7738 24.0717 12.2738 23.4417 12.2738H1.1417C0.5017 12.2738 0.0017 12.7738 0.0017 13.4138C0.0017 14.0538 0.5017 14.5538 1.1417 14.5538ZM10.3217 20.6938H23.4417C24.0717 20.6938 24.5817 20.1938 24.5817 19.5438C24.5817 18.9138 24.0717 18.4138 23.4417 18.4138H10.3217C9.6917 18.4138 9.1917 18.9138 9.1917 19.5438C9.1917 20.1938 9.6917 20.6938 10.3217 20.6938Z" />
        </svg>
    