
        <svg xmlns="http://www.w3.org/2000/svg" viewBox="0 0 100 100">
            <path d="M0.0047 9.5428C0.0047 14.8028 4.2747 19.0828 9.5347 19.0828C11.4947 19.0828 13.2847 18.4828 14.7847 17.4628L20.1847 22.8528C20.5047 23.1928 20.9647 23.3428 21.4247 23.3428C22.4147 23.3428 23.1347 22.5928 23.1347 21.6228C23.1347 21.1528 22.9647 20.7228 22.6547 20.3928L17.2947 15.0228C18.4147 13.4928 19.0747 11.5928 19.0747 9.5428C19.0747 4.2728 14.8047 0.0028 9.5347 0.0028C4.2747 0.0028 0.0047 4.2728 0.0047 9.5428ZM2.4347 9.5428C2.4347 5.6128 5.6147 2.4328 9.5347 2.4328C13.4647 2.4328 16.6447 5.6128 16.6447 9.5428C16.6447 13.4628 13.4647 16.6428 9.5347 16.6428C5.6147 16.6428 2.4347 13.4628 2.4347 9.5428ZM6.0547 8.8428H13.0747C13.5547 8.8428 13.9247 8.4528 13.9247 7.9828C13.9247 7.5128 13.5547 7.1328 13.0747 7.1328H6.0547C5.5647 7.1328 5.2147 7.5128 5.2147 7.9828C5.2147 8.4628 5.5747 8.8428 6.0547 8.8428ZM6.0547 11.9428H11.1247C11.6047 11.9428 11.9747 11.5528 11.9747 11.0828C11.9747 10.6028 11.6047 10.2228 11.1247 10.2228H6.0547C5.5647 10.2228 5.2147 10.6028 5.2147 11.0828C5.2147 11.5528 5.5747 11.9428 6.0547 11.9428Z" />
        </svg>
    