
        <svg xmlns="http://www.w3.org/2000/svg" viewBox="0 0 100 100">
            <path d="M1.6917 3.3791H24.9817C25.9217 3.3791 26.6717 2.6291 26.6717 1.6891C26.6717 0.7491 25.9217 -0.0009 24.9817 -0.0009H1.6917C0.7517 -0.0009 0.0017 0.7491 0.0017 1.6891C0.0017 2.6291 0.7517 3.3791 1.6917 3.3791ZM1.6917 9.5191H24.9817C25.9217 9.5191 26.6717 8.7491 26.6717 7.8191C26.6717 6.8791 25.9217 6.1291 24.9817 6.1291H1.6917C0.7517 6.1291 0.0017 6.8791 0.0017 7.8191C0.0017 8.7491 0.7517 9.5191 1.6917 9.5191ZM0.0117 13.7191V15.2491C0.0117 17.9691 1.4217 19.3391 4.1517 19.3391H5.9417V20.4891C5.9417 21.7891 7.1917 22.2291 8.1417 21.4591L12.2417 18.0791C12.8417 17.5891 12.8717 16.7191 12.2417 16.2291L8.1417 12.8691C7.2117 12.1091 5.9417 12.5491 5.9417 13.8091V15.1091H4.9117C4.5017 15.1091 4.2417 14.8391 4.2417 14.4291V13.5791C4.2417 12.4291 3.3017 11.5191 2.1217 11.5191C0.9517 11.5191 0.0117 12.2891 0.0117 13.7191ZM15.5517 15.6491H24.9817C25.9217 15.6491 26.6717 14.8991 26.6717 13.9591C26.6717 13.0091 25.9217 12.2591 24.9817 12.2591H15.5517C14.6017 12.2591 13.8517 13.0091 13.8517 13.9591C13.8517 14.8991 14.6017 15.6491 15.5517 15.6491ZM15.5517 21.7691H24.9817C25.9217 21.7691 26.6717 21.0191 26.6717 20.0891C26.6717 19.1491 25.9217 18.3991 24.9817 18.3991H15.5517C14.6017 18.3991 13.8517 19.1491 13.8517 20.0891C13.8517 21.0191 14.6017 21.7691 15.5517 21.7691Z" />
        </svg>
    