
        <svg xmlns="http://www.w3.org/2000/svg" viewBox="0 0 100 100">
            <path d="M0.0017 21.5306C0.0017 24.0606 1.3017 25.3706 3.8117 25.3706H16.2917C18.8017 25.3706 20.1017 24.0606 20.1017 21.5306V3.8406C20.1017 1.3206 18.8017 0.0006 16.2917 0.0006H3.8117C1.3017 0.0006 0.0017 1.3206 0.0017 3.8406ZM2.3017 21.3906V3.9806C2.3017 2.8906 2.8617 2.3006 3.9917 2.3006H16.0917C17.2217 2.3006 17.8017 2.8906 17.8017 3.9806V21.3906C17.8017 22.4806 17.2217 23.0706 16.0917 23.0706H3.9917C2.8617 23.0706 2.3017 22.4806 2.3017 21.3906ZM5.7617 7.1106H14.3417C14.7617 7.1106 15.0917 6.7806 15.0917 6.3606C15.0917 5.9506 14.7617 5.6406 14.3417 5.6406H5.7617C5.3317 5.6406 5.0017 5.9506 5.0017 6.3606C5.0017 6.7806 5.3317 7.1106 5.7617 7.1106ZM5.7617 11.1206H14.3417C14.7617 11.1206 15.0917 10.7906 15.0917 10.3706C15.0917 9.9606 14.7617 9.6406 14.3417 9.6406H5.7617C5.3317 9.6406 5.0017 9.9606 5.0017 10.3706C5.0017 10.7906 5.3317 11.1206 5.7617 11.1206ZM5.7617 15.1306H9.9117C10.3317 15.1306 10.6517 14.8106 10.6517 14.4006C10.6517 13.9806 10.3317 13.6406 9.9117 13.6406H5.7617C5.3317 13.6406 5.0017 13.9806 5.0017 14.4006C5.0017 14.8106 5.3317 15.1306 5.7617 15.1306Z" />
        </svg>
    