
        <svg xmlns="http://www.w3.org/2000/svg" viewBox="0 0 100 100">
            <path d="M0.9817 17.3111C1.6017 17.3111 1.9117 17.0711 2.1317 16.4211L3.6417 12.2811H10.5617L12.0717 16.4211C12.2917 17.0711 12.6017 17.3111 13.2117 17.3111C13.8317 17.3111 14.2217 16.9311 14.2217 16.3511C14.2217 16.1511 14.1917 15.9611 14.1017 15.7111L8.6017 1.0811C8.3317 0.3611 7.8517 0.0011 7.1017 0.0011C6.3717 0.0011 5.8817 0.3511 5.6217 1.0711L0.1317 15.7311C0.0317 15.9711 0.0017 16.1611 0.0017 16.3611C0.0017 16.9411 0.3717 17.3111 0.9817 17.3111ZM4.2217 10.5011L7.0617 2.6111H7.1217L9.9717 10.5011ZM21.0917 17.3111C23.1017 17.3111 24.6217 16.3611 25.3317 14.6711H25.4017V16.3211C25.4017 16.9411 25.7917 17.3211 26.3417 17.3211C26.9017 17.3211 27.2917 16.9311 27.2917 16.3111V5.2111C27.2917 4.6011 26.9017 4.1911 26.3417 4.1911C25.7917 4.1911 25.4017 4.6011 25.4017 5.2111V6.8711H25.3317C24.6217 5.2111 23.0317 4.2211 21.0917 4.2211C17.9217 4.2211 15.8017 6.8511 15.8017 10.7711C15.8017 14.6911 17.9217 17.3111 21.0917 17.3111ZM21.5617 15.6011C19.2817 15.6011 17.8217 13.7311 17.8217 10.7711C17.8217 7.8011 19.2817 5.9211 21.5617 5.9211C23.8517 5.9211 25.3517 7.8611 25.3517 10.7811C25.3517 13.7211 23.8717 15.6011 21.5617 15.6011Z" />
        </svg>
    