
        <svg xmlns="http://www.w3.org/2000/svg" viewBox="0 0 100 100">
            <path d="M0.8817 1.7659H22.7117C23.2017 1.7659 23.6117 1.3859 23.6117 0.8759C23.6117 0.3859 23.2017 -0.0041 22.7117 -0.0041H0.8817C0.3917 -0.0041 0.0017 0.3859 0.0017 0.8759C0.0017 1.3859 0.3917 1.7659 0.8817 1.7659ZM1.4717 8.9159H22.1217C23.1117 8.9159 23.6117 8.4359 23.6117 7.4559V6.5759C23.6117 5.6159 23.1117 5.1259 22.1217 5.1259H1.4717C0.4917 5.1259 0.0017 5.6159 0.0017 6.5759V7.4559C0.0017 8.4359 0.4917 8.9159 1.4717 8.9159ZM1.4717 15.0559H10.2317C11.2117 15.0559 11.7117 14.5759 11.7117 13.5959V12.7159C11.7117 11.7559 11.2117 11.2659 10.2317 11.2659H1.4717C0.4917 11.2659 0.0017 11.7559 0.0017 12.7159V13.5959C0.0017 14.5759 0.4917 15.0559 1.4717 15.0559ZM14.1917 14.0459H22.7117C23.2017 14.0459 23.6117 13.6559 23.6117 13.1559C23.6117 12.6659 23.2017 12.2859 22.7117 12.2859H14.1917C13.7017 12.2859 13.3117 12.6659 13.3117 13.1559C13.3117 13.6559 13.7017 14.0459 14.1917 14.0459ZM0.8817 20.1759H22.7117C23.2017 20.1759 23.6117 19.7959 23.6117 19.2959C23.6117 18.8059 23.2017 18.4059 22.7117 18.4059H0.8817C0.3917 18.4059 0.0017 18.8059 0.0017 19.2959C0.0017 19.7959 0.3917 20.1759 0.8817 20.1759Z" />
        </svg>
    