
        <svg xmlns="http://www.w3.org/2000/svg" viewBox="0 0 100 100">
            <path d="M3.6117 19.4811H20.6717C23.0117 19.4811 24.2917 18.2111 24.2917 15.8811V3.6011C24.2917 1.2911 23.0117 0.0011 20.6717 0.0011H3.6117C1.2917 0.0011 0.0017 1.2911 0.0017 3.6011V15.8811C0.0017 18.2011 1.2917 19.4811 3.6117 19.4811ZM8.4517 9.8511C7.0417 9.8511 5.8717 8.6911 5.8717 7.2611C5.8717 5.8711 7.0417 4.7011 8.4517 4.7011C9.8517 4.7011 11.0317 5.8711 11.0317 7.2611C11.0317 8.6911 9.8517 9.8511 8.4517 9.8511ZM4.0217 16.7911C3.1917 16.7911 2.6917 16.2911 2.6917 15.4611V14.4011L5.1017 12.2311C5.5317 11.8511 5.9517 11.6611 6.4317 11.6611C6.9217 11.6611 7.4217 11.8511 7.8617 12.2611L9.7717 13.9711L14.5117 9.7411C14.9917 9.3311 15.5117 9.1311 16.0917 9.1311C16.6317 9.1311 17.2017 9.3311 17.6517 9.7611L21.6317 13.5011V15.4611C21.6317 16.2911 21.0717 16.7911 20.3017 16.7911ZM1.2917 25.1611H22.9917C23.7217 25.1611 24.2917 24.6011 24.2917 23.8711C24.2917 23.1611 23.7217 22.5811 22.9917 22.5811H1.2917C0.5717 22.5811 0.0017 23.1611 0.0017 23.8711C0.0017 24.6011 0.5717 25.1611 1.2917 25.1611ZM1.2917 30.8411H16.0517C16.7817 30.8411 17.3517 30.2711 17.3517 29.5511C17.3517 28.8411 16.7817 28.2611 16.0517 28.2611H1.2917C0.5717 28.2611 0.0017 28.8411 0.0017 29.5511C0.0017 30.2711 0.5717 30.8411 1.2917 30.8411Z" />
        </svg>
    