
        <svg xmlns="http://www.w3.org/2000/svg" viewBox="0 0 100 100">
            <path d="M3.0117 24.6656H15.7017C17.6617 24.6656 18.7017 23.6256 18.7017 21.6556V9.8056H10.5517C9.4417 9.8056 8.8917 9.2456 8.8917 8.1456V-0.0044H3.0117C1.0817 -0.0044 0.0017 1.0456 0.0017 3.0156V21.6556C0.0017 23.6256 1.0417 24.6656 3.0117 24.6656ZM10.6917 8.9156H18.5117C18.4817 8.7156 18.2817 8.5356 18.0917 8.3456L10.3617 0.6256C10.1717 0.4356 9.9717 0.2356 9.7817 0.1856V8.0156C9.7817 8.6356 10.0617 8.9156 10.6917 8.9156ZM4.4917 14.8556C4.3117 14.8556 4.1817 14.7256 4.1817 14.5656C4.1817 14.4156 4.3117 14.2856 4.4917 14.2856H14.3117C14.4817 14.2856 14.6117 14.4156 14.6117 14.5656C14.6117 14.7256 14.4817 14.8556 14.3117 14.8556ZM4.4917 19.0156C4.3117 19.0156 4.1817 18.8756 4.1817 18.7256C4.1817 18.5656 4.3117 18.4356 4.4917 18.4356H14.3117C14.4817 18.4356 14.6117 18.5656 14.6117 18.7256C14.6117 18.8756 14.4817 19.0156 14.3117 19.0156Z" />
        </svg>
    