
        <svg xmlns="http://www.w3.org/2000/svg" viewBox="0 0 100 100">
            <path d="M0.0017 17.4797C0.0017 19.4497 1.0417 20.4997 3.0117 20.4997H24.0617C26.0117 20.4997 27.0617 19.4297 27.0617 17.4797V3.0097C27.0617 1.0697 26.0117 -0.0003 24.0617 -0.0003H3.0117C1.0417 -0.0003 0.0017 1.0397 0.0017 3.0097ZM2.8717 3.1497C2.4817 3.1497 2.1517 2.8097 2.1517 2.4397C2.1517 2.0497 2.4817 1.7197 2.8717 1.7197C3.2617 1.7197 3.5817 2.0497 3.5817 2.4397C3.5817 2.8097 3.2617 3.1497 2.8717 3.1497ZM5.4017 3.1497C5.0117 3.1497 4.6917 2.8197 4.6917 2.4397C4.6917 2.0497 5.0117 1.7197 5.4017 1.7197C5.7917 1.7197 6.1017 2.0497 6.1017 2.4397C6.1017 2.8197 5.7917 3.1497 5.4017 3.1497ZM7.9217 3.1397C7.5317 3.1397 7.2217 2.8197 7.2217 2.4397C7.2217 2.0497 7.5317 1.7197 7.9217 1.7197C8.3117 1.7197 8.6417 2.0497 8.6417 2.4397C8.6417 2.8197 8.3117 3.1397 7.9217 3.1397ZM0.5717 17.4597V4.8897H26.4817V17.4597C26.4817 19.0797 25.5817 19.9197 24.0217 19.9197H3.0317C1.4217 19.9197 0.5717 19.0797 0.5717 17.4597ZM22.0417 16.3097C22.9217 16.3097 23.5117 15.7197 23.5117 14.8397C23.5117 13.9697 22.9217 13.3897 22.0417 13.3897H21.2017V11.4297H22.0417C22.9217 11.4297 23.5117 10.8597 23.5117 9.9997C23.5117 9.1197 22.9217 8.5197 22.0417 8.5197C21.1717 8.5197 20.6117 9.1197 20.6117 9.9997V10.8197H18.7717V9.9997C18.7717 9.1197 18.2117 8.5197 17.3417 8.5197C16.4617 8.5197 15.8817 9.1197 15.8817 9.9997C15.8817 10.8597 16.4617 11.4297 17.3417 11.4297H18.1917V13.3897H17.3417C16.4617 13.3897 15.8817 13.9697 15.8817 14.8397C15.8817 15.7197 16.4617 16.3097 17.3417 16.3097C18.2117 16.3097 18.7717 15.7197 18.7717 14.8397V13.9997H20.6117V14.8397C20.6117 15.7197 21.1717 16.3097 22.0417 16.3097ZM21.2017 10.8497V9.9997C21.2017 9.4697 21.5417 9.1097 22.0417 9.1097C22.5717 9.1097 22.9217 9.4697 22.9217 9.9997C22.9217 10.4997 22.5717 10.8497 22.0417 10.8497ZM18.1917 10.8497H17.3417C16.8117 10.8497 16.4717 10.4997 16.4717 9.9997C16.4717 9.4697 16.8117 9.1097 17.3417 9.1097C17.8617 9.1097 18.1917 9.4697 18.1917 9.9997ZM3.6217 9.4097C3.6217 9.5697 3.7517 9.6997 3.9117 9.6997H12.3917C12.5517 9.6997 12.6817 9.5697 12.6817 9.4097C12.6817 9.2597 12.5517 9.1197 12.3917 9.1197H3.9117C3.7517 9.1197 3.6217 9.2597 3.6217 9.4097ZM20.6117 13.4197H18.7717V11.4097H20.6117ZM3.6217 12.4097C3.6217 12.5597 3.7517 12.6997 3.9117 12.6997H12.3917C12.5517 12.6997 12.6817 12.5597 12.6817 12.4097C12.6817 12.2497 12.5517 12.1197 12.3917 12.1197H3.9117C3.7517 12.1197 3.6217 12.2497 3.6217 12.4097ZM21.2017 13.9797H22.0417C22.5717 13.9797 22.9217 14.3197 22.9217 14.8397C22.9217 15.3597 22.5717 15.7197 22.0417 15.7197C21.5417 15.7197 21.2017 15.3597 21.2017 14.8397ZM18.1917 13.9797V14.8397C18.1917 15.3597 17.8617 15.7197 17.3417 15.7197C16.8117 15.7197 16.4717 15.3597 16.4717 14.8397C16.4717 14.3197 16.8117 13.9797 17.3417 13.9797ZM3.6217 15.3997C3.6217 15.5597 3.7517 15.6897 3.9117 15.6897H12.3917C12.5517 15.6897 12.6817 15.5597 12.6817 15.3997C12.6817 15.2297 12.5517 15.1097 12.3917 15.1097H3.9117C3.7517 15.1097 3.6217 15.2297 3.6217 15.3997Z" />
        </svg>
    