
        <svg xmlns="http://www.w3.org/2000/svg" viewBox="0 0 100 100">
            <path d="M11.3217 17.0845H21.0617C21.6417 17.0845 22.0317 16.7145 22.0317 16.1445C22.0317 15.5845 21.6417 15.1945 21.0617 15.1945H13.2517V15.1445L17.8317 10.6545C20.6017 7.9445 21.4417 6.5345 21.4417 4.7445C21.4417 2.0545 19.0617 0.0045 15.8917 0.0045C13.3917 0.0045 11.2617 1.3545 10.5517 3.4245C10.4017 3.8045 10.3517 4.1445 10.3517 4.4445C10.3517 5.0245 10.7017 5.4145 11.2717 5.4145C11.8217 5.4145 12.0617 5.1545 12.2317 4.5745C12.3317 4.2045 12.4617 3.8645 12.6417 3.5745C13.2617 2.5145 14.4217 1.8645 15.8917 1.8645C17.7817 1.8645 19.3017 3.1945 19.3017 4.8645C19.3017 6.2145 18.7417 7.1145 16.4317 9.4145L10.9417 14.8945C10.4517 15.3745 10.2917 15.6845 10.2917 16.1045C10.2917 16.7145 10.7017 17.0845 11.3217 17.0845ZM5.9717 17.3245C6.6217 17.3245 7.0417 16.8945 7.0417 16.2545V1.2745C7.0417 0.5145 6.5617 0.0945 5.8317 0.0945C5.3017 0.0945 5.0017 0.2545 4.5117 0.5745L0.6117 3.1045C0.1517 3.4145 0.0017 3.6845 0.0017 4.0645C0.0017 4.5445 0.3517 4.8945 0.8717 4.8945C1.1817 4.8945 1.3317 4.8045 1.5517 4.6645L4.8917 2.5645H4.9317V16.2545C4.9317 16.8945 5.3317 17.3245 5.9717 17.3245Z" />
        </svg>
    