
        <svg xmlns="http://www.w3.org/2000/svg" viewBox="0 0 100 100">
            <path d="M0.6917 1.3667H22.5117C22.9117 1.3667 23.2117 1.0767 23.2117 0.6867C23.2117 0.3067 22.9117 -0.0033 22.5117 -0.0033H0.6917C0.2917 -0.0033 0.0017 0.3067 0.0017 0.6867C0.0017 1.0767 0.2917 1.3667 0.6917 1.3667ZM1.2417 8.4967H21.9717C22.7817 8.4967 23.2117 8.0767 23.2117 7.2667V6.3967C23.2117 5.5967 22.7817 5.1767 21.9717 5.1767H1.2417C0.4217 5.1767 0.0017 5.5967 0.0017 6.3967V7.2667C0.0017 8.0767 0.4217 8.4967 1.2417 8.4967ZM1.2417 14.6367H10.1517C10.9717 14.6367 11.3917 14.2267 11.3917 13.4067V12.5467C11.3917 11.7467 10.9717 11.3167 10.1517 11.3167H1.2417C0.4217 11.3167 0.0017 11.7467 0.0017 12.5467V13.4067C0.0017 14.2267 0.4217 14.6367 1.2417 14.6367ZM13.4417 13.6667H22.5117C22.9117 13.6667 23.2117 13.3667 23.2117 12.9867C23.2117 12.5967 22.9117 12.2967 22.5117 12.2967H13.4417C13.0417 12.2967 12.7517 12.5967 12.7517 12.9867C12.7517 13.3667 13.0417 13.6667 13.4417 13.6667ZM0.6917 19.8167H22.5117C22.9117 19.8167 23.2117 19.5167 23.2117 19.1267C23.2117 18.7367 22.9117 18.4467 22.5117 18.4467H0.6917C0.2917 18.4467 0.0017 18.7367 0.0017 19.1267C0.0017 19.5167 0.2917 19.8167 0.6917 19.8167Z" />
        </svg>
    