
        <svg xmlns="http://www.w3.org/2000/svg" viewBox="0 0 100 100">
            <path d="M0.0017 21.5197C0.0017 23.7997 1.1617 24.9697 3.4217 24.9697H15.9517C18.2217 24.9697 19.3717 23.7997 19.3717 21.5197V3.4497C19.3717 1.1597 18.2217 -0.0003 15.9517 -0.0003H3.4217C1.1617 -0.0003 0.0017 1.1597 0.0017 3.4497ZM4.8517 5.5297C4.5017 5.5297 4.2417 5.2597 4.2417 4.9297C4.2417 4.5897 4.5017 4.3397 4.8517 4.3397H14.8317C15.1717 4.3397 15.4317 4.5897 15.4317 4.9297C15.4317 5.2597 15.1717 5.5297 14.8317 5.5297ZM4.8517 8.9197C4.5017 8.9197 4.2417 8.6497 4.2417 8.3097C4.2417 7.9797 4.5017 7.7197 4.8517 7.7197H10.9417C11.3017 7.7197 11.5517 7.9797 11.5517 8.3097C11.5517 8.6497 11.3017 8.9197 10.9417 8.9197ZM5.0517 21.4997C4.0217 21.4997 3.4617 20.9797 3.4617 19.9197V12.6897C3.4617 11.6397 4.0217 11.1097 5.0517 11.1097H14.3317C15.3917 11.1097 15.9217 11.6397 15.9217 12.6897V19.9197C15.9217 20.9797 15.3917 21.4997 14.3317 21.4997Z" />
        </svg>
    