
        <svg xmlns="http://www.w3.org/2000/svg" viewBox="0 0 100 100">
            <path d="M11.9523 23.9023C18.5523 23.9023 23.9023 18.5523 23.9023 11.9523C23.9023 5.3623 18.5523 0.0023 11.9523 0.0023C5.3623 0.0023 0.0023 5.3623 0.0023 11.9523C0.0023 18.5523 5.3623 23.9023 11.9523 23.9023ZM10.4523 16.3223C7.9023 17.0023 5.9623 15.8323 5.2523 13.1723L4.3023 9.5423C4.0323 8.5423 4.3823 7.9123 5.3823 7.6523L10.5223 6.2823C11.4923 6.0323 12.1423 6.3823 12.4123 7.3623L13.3823 10.9823C14.1123 13.6523 12.9923 15.6323 10.4523 16.3223ZM18.8323 9.0123C19.8123 9.2623 20.1823 9.9023 19.9123 10.8723L18.9523 14.4923C18.2323 17.1523 16.3023 18.3323 13.7423 17.6623C13.0223 17.4623 12.3823 17.1423 11.9223 16.7323C12.8123 16.2723 13.4923 15.6223 13.9123 14.8223C14.0823 14.8523 14.2723 14.8823 14.4523 14.9423C15.0023 15.0923 15.4523 15.3323 15.9623 15.7823C16.1023 15.9523 16.3023 15.8523 16.3023 15.6323C16.2623 14.8123 15.6423 14.1123 14.7323 13.8823C14.6123 13.8523 14.4623 13.8423 14.3423 13.8123C14.5923 12.9023 14.5823 11.8623 14.2623 10.7423L13.4023 7.5623C13.4923 7.5723 13.5923 7.5823 13.6923 7.6323ZM10.5123 10.2223C10.8623 10.1023 11.0523 10.3123 11.2523 10.2623C11.3123 10.2223 11.3823 10.1023 11.3223 9.9623C11.2123 9.4923 10.7423 9.2623 10.2923 9.3523C9.8423 9.4523 9.5623 9.9623 9.6823 10.3823C9.7423 10.5123 9.8323 10.6123 9.9023 10.5923C10.0823 10.5723 10.1323 10.3123 10.5123 10.2223ZM7.3523 11.0723C7.7023 10.9523 7.8823 11.1723 8.0823 11.1123C8.1723 11.0723 8.2023 10.9423 8.1723 10.7923C8.0123 10.3723 7.5823 10.1023 7.1223 10.2223C6.6823 10.3223 6.3823 10.7923 6.5423 11.2523C6.5823 11.3823 6.6723 11.4823 6.7423 11.4623C6.9223 11.4423 6.9623 11.1823 7.3523 11.0723ZM16.6423 12.9423C16.9923 13.0423 17.3523 12.8223 17.4623 12.4723C17.5523 12.1123 17.3523 11.7523 16.9923 11.6623C16.6323 11.5623 16.2623 11.7623 16.1823 12.1123C16.0823 12.4823 16.2923 12.8623 16.6423 12.9423ZM9.9623 14.4623C11.0523 14.1823 11.7623 13.3323 11.8023 12.3023C11.8223 12.0923 11.6623 12.0023 11.4723 12.1123C10.9023 12.5123 10.1523 12.8223 9.5623 12.9723C8.9723 13.1323 8.1723 13.2523 7.4623 13.1923C7.2623 13.1823 7.1623 13.3223 7.2823 13.5123C7.8323 14.3823 8.8823 14.7523 9.9623 14.4623Z" />
        </svg>
    