
        <svg xmlns="http://www.w3.org/2000/svg" viewBox="0 0 100 100">
            <path d="M11.4923 22.9836C17.8123 22.9836 22.9823 17.8136 22.9823 11.4836C22.9823 5.1536 17.8123 0.0036 11.4923 0.0036C5.1723 0.0036 0.0023 5.1536 0.0023 11.4836C0.0023 17.8136 5.1723 22.9836 11.4923 22.9836ZM10.0623 15.9036C7.5923 16.5336 5.7023 15.4136 5.0323 12.8436L4.0323 9.0736C3.8123 8.2336 4.1123 7.7336 4.9323 7.5136L10.3223 6.0536C11.1323 5.8436 11.6623 6.1436 11.8823 6.9636L12.9023 10.7136C13.6023 13.3036 12.5323 15.2236 10.0623 15.9036ZM18.2823 8.9136C19.1123 9.1336 19.4223 9.6436 19.1823 10.4736L18.1923 14.2336C17.4923 16.8136 15.6323 17.9536 13.1623 17.2936C12.3323 17.0736 11.6523 16.7036 11.1423 16.2036C11.9523 15.8436 12.5823 15.3236 13.0123 14.6936C13.2923 14.7236 13.5623 14.7636 13.8123 14.8236C14.4423 15.0036 15.0223 15.2936 15.5023 15.7336C15.6323 15.8536 15.7723 15.7836 15.7723 15.5936C15.7623 14.6336 15.1123 13.8536 14.1323 13.6036C13.9423 13.5536 13.7723 13.5336 13.5823 13.5336C13.8523 12.6536 13.8523 11.6436 13.5423 10.5336L12.7023 7.4436C12.7723 7.4436 12.8223 7.4636 12.8923 7.4736ZM10.1823 9.8636C10.5323 9.7736 10.7323 9.9536 10.8823 9.9136C10.9523 9.8936 11.0423 9.7636 10.9823 9.5836C10.8723 9.1436 10.4023 8.8836 9.9623 9.0036C9.5123 9.1136 9.2323 9.5836 9.3523 10.0336C9.4123 10.1936 9.5323 10.2736 9.6123 10.2436C9.7523 10.2236 9.8423 9.9536 10.1823 9.8636ZM6.9523 10.7336C7.3023 10.6436 7.4923 10.8236 7.6523 10.7936C7.7223 10.7536 7.7923 10.6436 7.7423 10.4636C7.6323 10.0436 7.1723 9.7636 6.7123 9.8636C6.2723 9.9836 6.0023 10.4636 6.1323 10.8936C6.1723 11.0736 6.2923 11.1436 6.3723 11.1236C6.5323 11.0936 6.5823 10.8536 6.9523 10.7336ZM16.0623 12.6336C16.4023 12.7336 16.7623 12.5236 16.8423 12.2036C16.9423 11.8436 16.7423 11.4936 16.4023 11.4136C16.0623 11.3236 15.7023 11.5236 15.6323 11.8436C15.5423 12.2036 15.7423 12.5636 16.0623 12.6336ZM9.6323 14.2336C10.7823 13.9236 11.5323 13.0436 11.5423 11.8836C11.5423 11.7036 11.4023 11.6136 11.2523 11.7236C10.4223 12.3236 9.6223 12.5536 9.2023 12.6636C8.7823 12.7836 8.0023 12.9736 6.9623 12.8836C6.7723 12.8536 6.6923 12.9836 6.7923 13.1636C7.3723 14.1536 8.4823 14.5336 9.6323 14.2336Z" />
        </svg>
    