
        <svg xmlns="http://www.w3.org/2000/svg" viewBox="0 0 100 100">
            <path d="M2.1492 14.9606C3.4592 19.8706 6.7692 22.5106 11.1792 22.2406C11.1092 23.1006 11.2092 23.7906 10.8592 24.1406C10.0892 24.9206 9.2592 24.6706 8.5892 25.3606C8.0292 25.9706 8.0092 26.8506 8.7792 27.7306C11.0092 30.3006 16.5792 30.6706 19.3292 27.8906C20.8492 26.3806 21.4192 24.5506 21.0792 22.8406C22.0892 22.3506 22.9592 21.5106 23.7992 20.3206C25.9092 17.3306 27.8392 12.5806 29.2992 8.1406C30.3092 5.1006 27.4292 2.8106 24.8092 4.9906C24.4092 5.3306 22.2292 7.3706 19.8892 9.9706L17.9892 2.8606C17.3492 0.4906 15.6692 -0.4494 13.2792 0.2006L2.8992 2.9506C0.4992 3.5806 -0.4508 5.2206 0.1992 7.6206ZM5.0992 14.1906L3.1492 6.9106C3.0092 6.3906 3.2192 6.0106 3.7192 5.8806L14.0392 3.1006C14.5592 2.9606 14.9292 3.2106 15.0692 3.7406L17.0092 10.9906C17.2092 11.7106 17.3192 12.3606 17.3292 12.9806C16.8492 13.5906 16.3892 14.2206 15.9592 14.8306C15.1292 16.0406 14.6192 17.1806 14.5092 18.3006C14.3292 18.3506 14.1492 18.4106 13.9792 18.4806V18.4606C13.0092 18.8706 12.9392 18.8906 12.7492 18.9406C8.8892 19.9406 6.1892 18.2706 5.0992 14.1906ZM13.4292 9.0306C14.1892 8.8106 14.5492 9.1706 14.8692 9.1006C15.1392 9.0306 15.2092 8.7306 15.0992 8.3506C14.8692 7.4006 13.8892 6.8706 12.9392 7.1206C11.9692 7.3806 11.3792 8.3406 11.6492 9.2706C11.7592 9.6806 11.9892 9.8806 12.2192 9.8206C12.5492 9.7406 12.6692 9.2206 13.4292 9.0306ZM25.7292 8.3006C25.8992 8.1206 26.0992 8.2606 26.0092 8.4706C25.5092 9.9106 24.2992 13.4606 22.6192 16.5306C21.9092 15.6706 20.9392 14.9906 19.8992 14.6206C22.0892 11.9306 24.6392 9.3706 25.7292 8.3006ZM7.2192 10.7106C7.9892 10.5106 8.3492 10.8606 8.6692 10.7806C8.9292 10.7206 9.0092 10.4306 8.8992 10.0406C8.6692 9.0806 7.6492 8.5206 6.7392 8.8006C5.7592 9.0506 5.1792 10.0206 5.4492 10.9406C5.5592 11.3506 5.7792 11.5806 6.0192 11.4906C6.3392 11.4106 6.4692 10.9206 7.2192 10.7106ZM12.2392 16.9106C14.2392 16.3606 15.5392 14.8706 15.6092 13.0206C15.6192 12.5006 15.1992 12.3106 14.7392 12.6506C13.5592 13.5006 12.1892 13.8606 11.5192 14.0506C10.8092 14.2406 9.4592 14.6006 7.9692 14.4706C7.4392 14.3906 7.1192 14.7906 7.4192 15.2106C8.4092 16.7706 10.2792 17.4406 12.2392 16.9106ZM19.4692 19.9706C18.8392 19.3506 18.1692 18.8906 17.4892 18.6006C17.5192 18.1306 17.7092 17.6506 18.0892 17.0506C19.3092 17.1406 20.4792 17.9706 20.9992 19.0606C20.5392 19.6506 20.1292 19.9806 19.6692 20.1906C19.6192 20.1106 19.5492 20.0406 19.4692 19.9706ZM12.3692 26.7506C12.2292 26.6706 12.1892 26.5406 12.2792 26.4206C12.3992 26.2706 12.7392 26.1706 12.9592 25.8606C14.2792 24.2206 13.4692 22.8406 14.4392 21.8006C15.2592 20.9306 16.4192 20.9906 17.5192 21.9506C18.6792 22.9606 18.5692 24.5006 17.2792 25.8506C15.8792 27.3306 13.7992 27.5406 12.3692 26.7506Z" />
        </svg>
    