
        <svg xmlns="http://www.w3.org/2000/svg" viewBox="0 0 100 100">
            <path d="M19.7223 23.7103C26.2823 23.7103 31.5823 18.4103 31.5823 11.8603C31.5823 5.3103 26.2823 0.0003 19.7223 0.0003C13.1723 0.0003 7.8723 5.3103 7.8723 11.8603C7.8723 18.4103 13.1723 23.7103 19.7223 23.7103ZM39.4423 11.8703C39.4423 7.9203 38.1323 4.1403 35.8023 1.0803C35.0623 0.1203 33.7823 0.0603 32.8623 0.8403C31.9123 1.6303 31.9123 2.8103 32.6523 3.8303C34.3323 6.1303 35.2723 8.9303 35.2723 11.8703C35.2723 14.8003 34.3323 17.6003 32.6623 19.9003C31.9323 20.9103 31.9323 22.1003 32.8623 22.8703C33.7923 23.6503 35.0723 23.6003 35.8123 22.6403C38.1323 19.5903 39.4423 15.8203 39.4423 11.8703ZM0.0023 11.8703C0.0023 15.8203 1.3023 19.5903 3.6323 22.6403C4.3623 23.6003 5.6523 23.6503 6.5823 22.8703C7.5023 22.1003 7.5123 20.9103 6.7723 19.9003C5.1123 17.6003 4.1723 14.8003 4.1723 11.8703C4.1723 8.9303 5.1123 6.1303 6.7823 3.8303C7.5323 2.8103 7.5323 1.6303 6.5823 0.8403C5.6623 0.0603 4.3823 0.1203 3.6423 1.0803C1.3023 4.1403 0.0023 7.9203 0.0023 11.8703ZM19.7223 19.5303C15.4923 19.5303 12.0423 16.0903 12.0423 11.8603C12.0423 7.6203 15.4923 4.1703 19.7223 4.1703C23.9623 4.1703 27.4123 7.6203 27.4123 11.8603C27.4123 16.0903 23.9623 19.5303 19.7223 19.5303ZM19.1523 16.8403C20.4923 16.8403 21.5723 15.7603 21.5723 14.3903C21.5723 13.4503 21.0323 12.7103 20.3623 12.3003C20.0523 12.0903 19.9223 11.8503 19.9223 11.4703V7.6803C19.9223 7.1803 19.5723 6.8703 19.1523 6.8703C18.7123 6.8703 18.3623 7.1803 18.3623 7.6803V11.4703C18.3623 11.8503 18.2323 12.0903 17.9223 12.3003C17.2523 12.7103 16.7123 13.4503 16.7123 14.3903C16.7123 15.7603 17.7923 16.8403 19.1523 16.8403ZM21.6823 8.3603H23.1423C23.4723 8.3603 23.7223 8.1103 23.7223 7.7703C23.7223 7.4303 23.4823 7.1903 23.1423 7.1903H21.6823C21.3423 7.1903 21.0923 7.4403 21.0923 7.7703C21.0923 8.1103 21.3423 8.3603 21.6823 8.3603ZM21.6823 10.1003H23.1423C23.4823 10.1003 23.7223 9.8803 23.7223 9.5403C23.7223 9.2003 23.4823 8.9603 23.1423 8.9603H21.6823C21.3423 8.9603 21.0923 9.2103 21.0923 9.5403C21.0923 9.8703 21.3423 10.1003 21.6823 10.1003ZM21.6823 11.9203H23.1423C23.4823 11.9203 23.7223 11.6803 23.7223 11.3403C23.7223 11.0003 23.4823 10.7703 23.1423 10.7703H21.6823C21.3423 10.7703 21.0923 11.0203 21.0923 11.3403C21.0923 11.6703 21.3423 11.9203 21.6823 11.9203Z" />
        </svg>
    