
        <svg xmlns="http://www.w3.org/2000/svg" viewBox="0 0 100 100">
            <path d="M12.7923 25.5961C19.8723 25.5961 25.6023 19.8661 25.6023 12.7961C25.6023 5.7261 19.8723 -0.0039 12.7923 -0.0039C5.7323 -0.0039 0.0023 5.7261 0.0023 12.7961C0.0023 19.8661 5.7323 25.5961 12.7923 25.5961ZM15.5023 15.3661C15.1523 15.3661 14.8823 15.0961 14.8923 14.7161L14.9223 14.1461L14.6323 14.3061C14.4523 13.9761 14.2923 13.6561 14.1423 13.3261L14.9423 12.8561L14.9923 11.3161L14.1723 11.8261V10.5361L14.4423 10.3861L14.1723 10.2561C14.1723 9.4961 14.1423 9.3361 14.0623 8.8861L14.9923 9.4661L14.9423 7.8961L13.9523 7.3261C13.6623 7.1461 13.5623 6.8461 13.7223 6.5661C13.8823 6.2961 14.2123 6.2361 14.4923 6.3861L14.9223 6.6361L14.8923 6.0661C14.8823 5.7161 15.1523 5.4161 15.5023 5.4161C15.8523 5.4161 16.1323 5.7061 16.1223 6.0661L16.1023 6.6361L16.5223 6.3861C16.8323 6.2361 17.1723 6.2961 17.2923 6.5761C17.4623 6.8561 17.3523 7.1461 17.0623 7.3261L16.0923 7.8961L16.0623 9.4661L17.3523 8.6761L17.3623 7.5261C17.3623 7.1761 17.6123 6.9361 17.9223 6.9361C18.2323 6.9461 18.4723 7.1761 18.4723 7.4961V7.9961L18.9823 7.6961C19.2823 7.5161 19.6423 7.5961 19.8123 7.9061C20.0123 8.2261 19.9023 8.5561 19.5723 8.7461L19.0523 9.0361L19.4723 9.2961C19.7723 9.4661 19.8723 9.7761 19.7023 10.0561C19.5323 10.3161 19.2023 10.3661 18.9123 10.2161L17.9323 9.6561L16.5923 10.3861L17.9223 11.1061L18.9123 10.5561C19.2023 10.3961 19.5223 10.4661 19.6923 10.7361C19.8423 10.9961 19.7623 11.3161 19.4723 11.4861L19.0423 11.7261L19.5723 12.0461C19.8623 12.2061 20.0123 12.5661 19.8123 12.9061C19.6523 13.1561 19.3023 13.2961 18.9523 13.0861L18.4423 12.7661V13.2661C18.4423 13.6161 18.1923 13.8561 17.9023 13.8361C17.5623 13.8361 17.3423 13.5561 17.3423 13.2461V12.1161L16.0623 11.3161L16.0923 12.8561L17.0723 13.4461C17.3623 13.6161 17.4723 13.9361 17.2923 14.2161C17.1323 14.4561 16.8523 14.5461 16.5423 14.3761L16.1023 14.1461L16.1223 14.7161C16.1323 15.0861 15.8523 15.3661 15.5023 15.3661ZM10.7223 20.3661C8.7223 20.3661 7.1123 18.8161 7.1123 16.8361C7.1123 15.8761 7.4323 15.0461 8.1223 14.4161C8.2423 14.3161 8.2423 14.2661 8.2423 14.1061V9.7761C8.2423 8.1961 9.2423 7.1261 10.7223 7.1261C12.1723 7.1261 13.1923 8.1961 13.1923 9.7761V14.1061C13.1923 14.2661 13.2223 14.3061 13.3023 14.4161C13.9823 15.0661 14.3123 15.8761 14.3123 16.8361C14.3123 18.8161 12.7123 20.3661 10.7223 20.3661ZM10.7223 18.7761C11.8323 18.7761 12.7423 17.8961 12.7423 16.7561C12.7423 16.0161 12.3823 15.4561 11.8123 15.0861C11.6623 14.9761 11.5823 14.8961 11.5823 14.6761V9.8161C11.5823 9.1661 11.2523 8.7461 10.7223 8.7461C10.1923 8.7461 9.8523 9.1661 9.8523 9.8161V14.6761C9.8523 14.8961 9.7923 14.9761 9.6323 15.0861C9.0623 15.4561 8.7223 16.0161 8.7223 16.7561C8.7223 17.8961 9.6223 18.7761 10.7223 18.7761ZM10.7223 18.0461C10.0123 18.0461 9.4523 17.4561 9.4523 16.7561C9.4523 16.2661 9.7223 15.8661 10.1223 15.6561C10.3123 15.5461 10.3623 15.4961 10.3623 15.2361V14.1361C10.3623 13.8761 10.5223 13.6961 10.7223 13.6961C10.9123 13.6961 11.0823 13.8761 11.0823 14.1361V15.2361C11.0823 15.4961 11.1323 15.5461 11.2923 15.6561C11.7223 15.8661 11.9723 16.2661 11.9723 16.7561C11.9723 17.4561 11.4123 18.0461 10.7223 18.0461Z" />
        </svg>
    