
        <svg xmlns="http://www.w3.org/2000/svg" viewBox="0 0 100 100">
            <path d="M14.6923 21.6708C20.6723 21.6708 25.5323 16.8208 25.5323 10.8408C25.5323 4.8608 20.6723 0.0008 14.6923 0.0008C8.7223 0.0008 3.8623 4.8608 3.8623 10.8408C3.8623 16.8208 8.7223 21.6708 14.6923 21.6708ZM14.6923 21.0908C9.0323 21.0908 4.4323 16.5008 4.4323 10.8408C4.4323 5.1808 9.0323 0.5708 14.6923 0.5708C20.3523 0.5708 24.9623 5.1808 24.9623 10.8408C24.9623 16.5008 20.3523 21.0908 14.6923 21.0908ZM29.3923 10.8408C29.3923 7.3508 28.1623 4.1508 26.1423 1.6208C26.0523 1.4908 25.8623 1.4808 25.7323 1.5808C25.6123 1.6708 25.5923 1.8508 25.7023 1.9808C27.6523 4.4108 28.8123 7.4908 28.8123 10.8408C28.8123 14.1908 27.6523 17.2708 25.7023 19.6808C25.5923 19.8308 25.6023 19.9908 25.7323 20.1008C25.8723 20.2108 26.0323 20.2008 26.1423 20.0508C28.1623 17.5408 29.3923 14.3308 29.3923 10.8408ZM0.0023 10.8408C0.0023 14.3308 1.2323 17.5408 3.2423 20.0508C3.3623 20.2008 3.5123 20.2108 3.6523 20.1008C3.7823 19.9908 3.8123 19.8308 3.6923 19.6808C1.7423 17.2708 0.5723 14.1908 0.5723 10.8408C0.5723 7.4908 1.7423 4.4108 3.6923 1.9808C3.8123 1.8508 3.7723 1.6708 3.6523 1.5808C3.5323 1.4808 3.3523 1.4908 3.2423 1.6208C1.2323 4.1508 0.0023 7.3508 0.0023 10.8408ZM14.2423 16.9608C15.7623 16.9608 16.9823 15.7408 16.9823 14.2008C16.9823 13.1208 16.3823 12.2308 15.5023 11.7808C15.1423 11.5808 15.0223 11.4208 15.0223 10.8908V5.9508C15.0223 5.4708 14.6923 5.1308 14.2423 5.1308C13.7723 5.1308 13.4423 5.4708 13.4423 5.9508V10.8908C13.4423 11.4208 13.3223 11.5808 12.9623 11.7808C12.0823 12.2308 11.4823 13.1208 11.4823 14.2008C11.4823 15.7408 12.7023 16.9608 14.2423 16.9608ZM16.7723 6.6708H18.4923C18.6523 6.6708 18.7923 6.5408 18.7923 6.3708C18.7923 6.2108 18.6523 6.0808 18.4923 6.0808H16.7723C16.6023 6.0808 16.4723 6.2108 16.4723 6.3708C16.4723 6.5408 16.6023 6.6708 16.7723 6.6708ZM16.7723 8.4208H18.4923C18.6523 8.4208 18.7923 8.3008 18.7923 8.1308C18.7923 7.9708 18.6523 7.8408 18.4923 7.8408H16.7723C16.6023 7.8408 16.4723 7.9708 16.4723 8.1308C16.4723 8.3008 16.6023 8.4208 16.7723 8.4208ZM16.7723 10.2208H18.4923C18.6523 10.2208 18.7923 10.0908 18.7923 9.9208C18.7923 9.7608 18.6523 9.6308 18.4923 9.6308H16.7723C16.6023 9.6308 16.4723 9.7608 16.4723 9.9208C16.4723 10.0908 16.6023 10.2208 16.7723 10.2208Z" />
        </svg>
    