
        <svg xmlns="http://www.w3.org/2000/svg" viewBox="0 0 100 100">
            <path d="M12.2223 24.4419C18.9723 24.4419 24.4423 18.9719 24.4423 12.2219C24.4423 5.4819 18.9723 0.0019 12.2223 0.0019C5.4823 0.0019 0.0023 5.4819 0.0023 12.2219C0.0023 18.9719 5.4823 24.4419 12.2223 24.4419ZM13.1023 6.4419C12.7423 6.4419 12.4423 6.1419 12.4423 5.7919V4.5619C12.4423 4.2119 12.7423 3.9119 13.1023 3.9119C13.4623 3.9119 13.7423 4.2119 13.7423 4.5619V5.7919C13.7423 6.1419 13.4623 6.4419 13.1023 6.4419ZM15.9023 7.6219C15.6523 7.3619 15.6423 6.9419 15.9123 6.6919L16.7923 5.8119C17.0423 5.5619 17.4423 5.5519 17.6923 5.8119C17.9523 6.0619 17.9423 6.4819 17.6923 6.7219L16.8323 7.6019C16.5823 7.8519 16.1623 7.8619 15.9023 7.6219ZM10.0123 20.1219C8.0823 20.1219 6.5523 18.6019 6.5523 16.7019C6.5523 15.7419 6.9223 14.8819 7.6723 14.2019C7.8023 14.1119 7.8123 14.0319 7.8123 13.8619V8.5419C7.8123 7.1519 8.6923 6.1919 10.0123 6.1919C11.2923 6.1919 12.1923 7.1519 12.1923 8.5419L12.1723 13.8619C12.1723 14.0319 12.2023 14.1019 12.3123 14.2019C13.0523 14.8819 13.4423 15.7419 13.4423 16.7019C13.4423 18.6019 11.9023 20.1219 10.0123 20.1219ZM13.1023 13.5619V8.5419C13.1023 8.1019 13.0223 7.6619 12.8523 7.2919C12.9423 7.2619 13.0223 7.2619 13.1023 7.2619C14.8323 7.2619 16.2323 8.6719 16.2323 10.4319C16.2323 12.1719 14.8323 13.5619 13.1023 13.5619ZM10.0123 18.9419C11.2423 18.9419 12.2623 17.9419 12.2623 16.6719C12.2623 15.8919 11.8923 15.2419 11.2523 14.8119C11.0523 14.6919 10.9823 14.5819 10.9823 14.3119V8.5919C10.9823 7.8619 10.5823 7.3919 10.0123 7.3919C9.4023 7.3919 9.0123 7.8619 9.0123 8.5919V14.3119C9.0123 14.5819 8.9423 14.6919 8.7423 14.8119C8.1123 15.2419 7.7423 15.8919 7.7423 16.6719C7.7423 17.9419 8.7423 18.9419 10.0123 18.9419ZM9.9923 18.1519C9.1723 18.1519 8.5223 17.5119 8.5223 16.6619C8.5223 16.1019 8.8523 15.6319 9.3023 15.3719C9.5123 15.2819 9.5623 15.2119 9.5623 14.9219V9.0919C9.5623 8.7919 9.7523 8.5919 9.9923 8.5919C10.2323 8.5919 10.4323 8.7919 10.4323 9.0919V14.9219C10.4323 15.2119 10.4923 15.2819 10.6723 15.3719C11.1523 15.6419 11.4723 16.1019 11.4723 16.6619C11.4723 17.4919 10.8123 18.1519 9.9923 18.1519ZM17.7023 11.0619C17.3523 11.0619 17.0623 10.7619 17.0623 10.4319C17.0623 10.0619 17.3423 9.7519 17.7023 9.7519H18.9423C19.2923 9.7519 19.5823 10.0519 19.5823 10.4219C19.5823 10.7619 19.2923 11.0619 18.9423 11.0619ZM16.7923 15.0219L15.9123 14.1419C15.6523 13.9019 15.6523 13.4719 15.9023 13.2319C16.1623 12.9719 16.5723 12.9719 16.8123 13.2319L17.6923 14.1119C17.9523 14.3419 17.9523 14.7819 17.6923 15.0219C17.4423 15.2719 17.0323 15.2619 16.7923 15.0219Z" />
        </svg>
    