
        <svg xmlns="http://www.w3.org/2000/svg" viewBox="0 0 100 100">
            <path d="M12.6023 25.1969C19.5623 25.1969 25.2023 19.5569 25.2023 12.5969C25.2023 5.6369 19.5623 -0.0031 12.6023 -0.0031C5.6523 -0.0031 0.0023 5.6369 0.0023 12.5969C0.0023 19.5569 5.6523 25.1969 12.6023 25.1969ZM16.4323 8.4069C15.6823 8.4069 15.0623 7.7969 15.0623 7.0269C15.0623 6.2769 15.6823 5.6669 16.4323 5.6669C17.1823 5.6669 17.8023 6.2769 17.8023 7.0269C17.8023 7.7969 17.1823 8.4069 16.4323 8.4069ZM9.5723 19.3669C7.6123 19.3669 6.0223 17.8369 6.0223 15.8869C6.0223 14.9169 6.3623 14.0869 7.0623 13.4269C7.1823 13.3269 7.2023 13.2769 7.2023 13.1169V8.4169C7.2023 6.8869 8.1723 5.8569 9.5723 5.8569C10.9923 5.8569 11.9623 6.8869 11.9623 8.4169L11.9523 13.1169C11.9523 13.2769 11.9723 13.3269 12.0723 13.4269C12.7723 14.0969 13.1123 14.9169 13.1123 15.8869C13.1123 17.8369 11.5423 19.3669 9.5723 19.3669ZM9.5623 17.9169C10.7223 17.9169 11.6723 17.0069 11.6723 15.8169C11.6723 15.0569 11.3123 14.4869 10.7123 14.0869C10.5423 13.9669 10.4723 13.8769 10.4723 13.6369V8.4469C10.4723 7.7769 10.1223 7.3369 9.5623 7.3369C9.0223 7.3369 8.6623 7.7769 8.6623 8.4469V13.6369C8.6623 13.8769 8.5923 13.9669 8.4223 14.0869C7.8323 14.4869 7.4723 15.0569 7.4723 15.8169C7.4723 17.0069 8.4123 17.9169 9.5623 17.9169ZM9.5723 8.8469C9.3523 8.8469 9.1723 8.6669 9.1723 8.4569C9.1723 8.2469 9.3523 8.0769 9.5723 8.0769C9.7823 8.0769 9.9523 8.2469 9.9523 8.4569C9.9523 8.6669 9.7823 8.8469 9.5723 8.8469ZM17.2523 19.1469C16.8823 19.1469 16.5923 18.8469 16.5923 18.4769V14.2369C16.5923 14.1469 16.5223 14.0769 16.4323 14.0769C16.3523 14.0769 16.2823 14.1469 16.2823 14.2369V18.4769C16.2823 18.8469 15.9723 19.1469 15.6223 19.1469C15.2423 19.1469 14.9623 18.8569 14.9623 18.4769V11.5269C14.9623 11.4369 14.8923 11.3769 14.8023 11.3769C14.7223 11.3769 14.6523 11.4369 14.6523 11.5269V13.8069C14.6523 14.1369 14.3823 14.4269 14.0523 14.4269C13.7223 14.4269 13.4423 14.1369 13.4423 13.8069V11.2569C13.4423 9.9069 14.4923 9.0069 15.9623 9.0069H16.9023C18.3623 9.0069 19.4223 9.9069 19.4223 11.2569V13.8069C19.4223 14.1369 19.1623 14.4269 18.8223 14.4269C18.5023 14.4269 18.2123 14.1369 18.2123 13.8069V11.5269C18.2123 11.4369 18.1523 11.3769 18.0623 11.3769C17.9623 11.3769 17.9023 11.4369 17.9023 11.5269V18.4769C17.9023 18.8569 17.6123 19.1469 17.2523 19.1469ZM9.5723 10.3169C9.3523 10.3169 9.1723 10.1269 9.1723 9.9169C9.1723 9.7069 9.3523 9.5269 9.5723 9.5269C9.7823 9.5269 9.9523 9.7069 9.9523 9.9169C9.9523 10.1269 9.7823 10.3169 9.5723 10.3169ZM9.5723 11.7669C9.3523 11.7669 9.1723 11.5869 9.1723 11.3669C9.1723 11.1669 9.3523 10.9969 9.5723 10.9969C9.7823 10.9969 9.9523 11.1669 9.9523 11.3669C9.9523 11.5869 9.7823 11.7669 9.5723 11.7669ZM9.5623 17.1769C8.8123 17.1769 8.2223 16.5669 8.2223 15.8169C8.2223 15.3069 8.5223 14.8869 8.9423 14.6569C9.1323 14.5469 9.1723 14.4869 9.1723 14.2169V12.8369C9.1723 12.6169 9.3523 12.4469 9.5723 12.4469C9.7823 12.4469 9.9523 12.6169 9.9523 12.8369V14.2169C9.9523 14.4869 10.0123 14.5569 10.1823 14.6569C10.6123 14.8869 10.9023 15.3069 10.9023 15.8169C10.9023 16.5669 10.3123 17.1769 9.5623 17.1769Z" />
        </svg>
    