
        <svg xmlns="http://www.w3.org/2000/svg" viewBox="0 0 100 100">
            <path d="M12.7923 25.5961C19.8723 25.5961 25.6023 19.8661 25.6023 12.7961C25.6023 5.7261 19.8723 -0.0039 12.7923 -0.0039C5.7323 -0.0039 0.0023 5.7261 0.0023 12.7961C0.0023 19.8661 5.7323 25.5961 12.7923 25.5961ZM16.7823 8.7461C16.0423 8.7461 15.4123 8.1361 15.4123 7.3661C15.4123 6.6361 16.0423 6.0361 16.7823 6.0361C17.5323 6.0361 18.1423 6.6361 18.1423 7.3661C18.1423 8.1361 17.5323 8.7461 16.7823 8.7461ZM9.8223 19.4161C7.8123 19.4161 6.2123 17.8661 6.2123 15.8861C6.2123 14.9261 6.5323 14.1061 7.2023 13.4561C7.3223 13.3461 7.3323 13.3261 7.3323 13.1761V8.8261C7.3323 7.2461 8.3423 6.1761 9.8223 6.1761C11.2923 6.1761 12.2923 7.2461 12.2923 8.8261V13.1761C12.2923 13.3261 12.3123 13.3661 12.4023 13.4561C13.0823 14.1361 13.4023 14.9261 13.4023 15.8861C13.4023 17.8661 11.8123 19.4161 9.8223 19.4161ZM9.7923 17.8361C10.9123 17.8361 11.8223 16.9461 11.8223 15.8061C11.8223 15.0561 11.4723 14.5161 10.9023 14.1461C10.7423 14.0361 10.6623 13.9561 10.6623 13.7361V8.8661C10.6623 8.2261 10.3323 7.7961 9.7923 7.7961C9.2823 7.7961 8.9323 8.2261 8.9323 8.8661V13.7361C8.9323 13.9561 8.8723 14.0361 8.7223 14.1461C8.1423 14.5161 7.7923 15.0561 7.7923 15.8061C7.7923 16.9461 8.6923 17.8361 9.7923 17.8361ZM9.7923 9.2361C9.6123 9.2361 9.4323 9.0661 9.4323 8.8661C9.4323 8.6861 9.6123 8.5061 9.7923 8.5061C9.9923 8.5061 10.1623 8.6861 10.1623 8.8661C10.1623 9.0661 9.9923 9.2361 9.7923 9.2361ZM17.5923 19.2161C17.2223 19.2161 16.9323 18.9161 16.9323 18.5461V14.4061C16.9323 14.3361 16.8723 14.2661 16.7823 14.2661C16.7123 14.2661 16.6523 14.3361 16.6523 14.4061V18.5461C16.6523 18.9161 16.3323 19.2161 15.9823 19.2161C15.6123 19.2161 15.3323 18.9261 15.3323 18.5461V11.7761C15.3323 11.6961 15.2623 11.6461 15.1623 11.6461C15.1023 11.6461 15.0323 11.6961 15.0323 11.7761V13.9961C15.0323 14.3161 14.7523 14.6261 14.4223 14.6261C14.0823 14.6261 13.8023 14.3161 13.8023 13.9961V11.5161C13.8023 10.1861 14.8723 9.3061 16.3123 9.3061H17.2523C18.7023 9.3061 19.7423 10.1861 19.7423 11.5161V13.9961C19.7423 14.3161 19.4923 14.6261 19.1523 14.6261C18.8223 14.6261 18.5323 14.3161 18.5323 13.9961V11.7761C18.5323 11.6961 18.4823 11.6461 18.3823 11.6461C18.3023 11.6461 18.2623 11.6961 18.2623 11.7761V18.5461C18.2623 18.9261 17.9623 19.2161 17.5923 19.2161ZM9.7923 10.6561C9.6123 10.6561 9.4323 10.4861 9.4323 10.2861C9.4323 10.0861 9.6123 9.9261 9.7923 9.9261C9.9923 9.9261 10.1623 10.0861 10.1623 10.2861C10.1623 10.4861 9.9923 10.6561 9.7923 10.6561ZM9.7923 12.0561C9.6123 12.0561 9.4323 11.8961 9.4323 11.6961C9.4323 11.4961 9.6123 11.3361 9.7923 11.3361C9.9923 11.3361 10.1623 11.4961 10.1623 11.6961C10.1623 11.8961 9.9923 12.0561 9.7923 12.0561ZM9.7923 17.0961C9.0923 17.0961 8.5423 16.5261 8.5423 15.8061C8.5423 15.3261 8.8123 14.9261 9.2123 14.7161C9.3823 14.6161 9.4323 14.5561 9.4323 14.2961V13.1061C9.4323 12.9161 9.6123 12.7361 9.7923 12.7361C9.9923 12.7361 10.1623 12.9161 10.1623 13.1061V14.2961C10.1623 14.5561 10.2023 14.6161 10.3823 14.7161C10.8023 14.9261 11.0623 15.3261 11.0623 15.8061C11.0623 16.5261 10.5023 17.0961 9.7923 17.0961Z" />
        </svg>
    