
        <svg xmlns="http://www.w3.org/2000/svg" viewBox="0 0 100 100">
            <path d="M20.6617 12.4566L18.6417 11.2866L20.5317 10.2066C20.6817 10.1166 20.7917 9.9566 20.6917 9.7966C20.5917 9.6166 20.4117 9.6366 20.2517 9.7266L18.0917 10.9666L13.9617 8.5766L18.0917 6.1966L20.2517 7.4366C20.4117 7.5266 20.5917 7.5566 20.6817 7.3566C20.7817 7.2066 20.6817 7.0466 20.5317 6.9466L18.6417 5.8666L20.6617 4.7066C20.8217 4.6266 20.9317 4.4666 20.8217 4.2866C20.7317 4.1266 20.5417 4.1466 20.3817 4.2266L18.3717 5.3866V3.2266C18.3717 3.0366 18.2817 2.8666 18.0917 2.8666C17.8817 2.8666 17.8117 3.0366 17.8117 3.2266V5.7066L13.6717 8.0966V3.3266L15.8317 2.0866C15.9917 1.9766 16.0917 1.8366 15.9917 1.6566C15.9017 1.4966 15.7117 1.4966 15.5517 1.6066L13.6717 2.6866V0.3466C13.6717 0.1666 13.5817 -0.0034 13.3917 -0.0034C13.2117 -0.0034 13.1117 0.1666 13.1117 0.3466V2.6866L11.2417 1.6066C11.0717 1.4966 10.8917 1.4966 10.7917 1.6566C10.7017 1.8366 10.7917 1.9766 10.9617 2.0866L13.1117 3.3266V8.0966L9.4217 5.9566V6.5866L12.8317 8.5766L9.4217 10.5466V11.1866L13.1117 9.0566V13.8266L10.9717 15.0866C10.5717 15.3066 10.8917 15.7866 11.2517 15.5666L13.1117 14.4866V16.8066C13.1117 16.9966 13.1817 17.1566 13.3917 17.1566C13.5817 17.1566 13.6717 16.9966 13.6717 16.8066V14.4866L15.5517 15.5666C15.7117 15.6666 15.9017 15.6766 15.9917 15.5066C16.0817 15.3266 15.9917 15.1766 15.8317 15.0866L13.6717 13.8266V9.0566L17.8117 11.4566V13.9366C17.8117 14.1166 17.8817 14.2866 18.0917 14.2866C18.2817 14.2866 18.3717 14.1166 18.3717 13.9366V11.7866L20.3817 12.9366C20.5417 13.0266 20.7217 13.0466 20.8217 12.8666C20.9317 12.7066 20.8217 12.5466 20.6617 12.4566ZM5.5417 27.5966C8.6117 27.5966 11.0817 25.1166 11.0817 22.0666C11.0817 20.4266 10.4017 18.9966 8.9717 17.8566C8.6117 17.5766 8.5317 17.3666 8.5317 16.8466V5.0866C8.5317 3.2366 7.3017 1.9266 5.5417 1.9266C3.7817 1.9266 2.5417 3.2366 2.5417 5.0866V16.8466C2.5417 17.3666 2.4717 17.5766 2.1117 17.8566C0.6817 18.9966 0.0017 20.4266 0.0017 22.0666C0.0017 25.1166 2.4617 27.5966 5.5417 27.5966ZM5.5417 27.0566C2.8017 27.0566 0.5517 24.8066 0.5517 22.0666C0.5517 20.5766 1.1617 19.2066 2.5117 18.2366C2.9417 17.9166 3.1017 17.5266 3.1017 16.9966V5.0866C3.1017 3.5666 4.1117 2.4866 5.5417 2.4866C6.9717 2.4866 7.9717 3.5666 7.9717 5.0866V16.9966C7.9717 17.5266 8.1317 17.9166 8.5817 18.2366C9.9217 19.2066 10.5317 20.5766 10.5317 22.0666C10.5317 24.8066 8.2817 27.0566 5.5417 27.0566ZM5.5417 25.4866C7.4317 25.4866 8.9517 23.9766 8.9517 22.0666C8.9517 20.7566 8.2117 19.6566 7.1117 19.0666C6.6717 18.8366 6.5117 18.6466 6.5117 17.9766V16.1566C6.5117 15.6166 6.1217 15.1866 5.5417 15.1866C4.9717 15.1866 4.5717 15.6166 4.5717 16.1566V17.9766C4.5717 18.6466 4.4217 18.8366 3.9617 19.0666C2.8717 19.6566 2.1317 20.7566 2.1317 22.0666C2.1317 23.9766 3.6517 25.4866 5.5417 25.4866Z" />
        </svg>
    