
        <svg xmlns="http://www.w3.org/2000/svg" viewBox="0 0 100 100">
            <path d="M13.1017 4.6741C13.7717 4.6741 14.3117 4.1141 14.3117 3.4541V1.2141C14.3117 0.5541 13.7717 0.0041 13.1017 0.0041C12.4317 0.0041 11.8917 0.5541 11.8917 1.2141V3.4541C11.8917 4.1141 12.4317 4.6741 13.1017 4.6741ZM18.6217 6.9841C19.0817 7.4441 19.8717 7.4441 20.3417 6.9741L21.9217 5.3741C22.4017 4.9241 22.4017 4.1341 21.9417 3.6641C21.4717 3.2041 20.7117 3.2141 20.2217 3.6841L18.6317 5.2641C18.1517 5.7341 18.1617 6.5141 18.6217 6.9841ZM6.9017 31.4741C10.7017 31.4741 13.7817 28.4541 13.7817 24.6541C13.7817 22.7741 13.0417 21.1141 11.6517 19.7941C11.4017 19.5741 11.3717 19.4541 11.3717 19.1241V9.2341C11.3717 6.3741 9.5517 4.4341 6.9017 4.4341C4.2317 4.4341 2.4117 6.3741 2.4117 9.2341V19.1241C2.4117 19.4541 2.3817 19.5841 2.1417 19.7941C0.7217 21.0941 0.0017 22.7741 0.0017 24.6541C0.0017 28.4541 3.0817 31.4741 6.9017 31.4741ZM13.2417 18.6241C16.5617 18.6241 19.2117 15.8541 19.2117 12.4941C19.2117 9.0941 16.4917 6.3641 13.1017 6.3641C12.8417 6.3641 12.6017 6.3841 12.3417 6.4341C12.7217 7.2541 12.9417 8.2241 12.9417 9.2741L12.9217 18.5941C13.0317 18.6141 13.1417 18.6241 13.2417 18.6241ZM6.9017 28.9341C4.5017 28.9341 2.5617 26.9741 2.5617 24.5841C2.5617 23.0641 3.2717 21.8041 4.5017 21.0041C4.8517 20.7641 4.9917 20.5641 4.9917 20.0941V9.3141C4.9917 7.9241 5.7617 6.9941 6.9017 6.9941C8.0117 6.9941 8.7917 7.9241 8.7917 9.3141V20.0941C8.7917 20.5641 8.9317 20.7641 9.2817 21.0041C10.5117 21.8041 11.2117 23.0641 11.2117 24.5841C11.2117 26.9741 9.2817 28.9341 6.9017 28.9341ZM6.8917 27.3541C8.4117 27.3541 9.6417 26.1141 9.6417 24.5741C9.6417 23.5241 9.0517 22.6441 8.1717 22.1641C7.8017 21.9641 7.6717 21.8241 7.6717 21.2741V10.2741C7.6717 9.7041 7.3217 9.3541 6.8917 9.3541C6.4617 9.3541 6.1017 9.7041 6.1017 10.2741V21.2741C6.1017 21.8241 5.9717 21.9641 5.6117 22.1641C4.7317 22.6441 4.1417 23.5241 4.1417 24.5741C4.1417 26.1241 5.3717 27.3541 6.8917 27.3541ZM22.1017 13.6841H24.3517C25.0117 13.6841 25.5617 13.1441 25.5617 12.4841C25.5617 11.8141 25.0117 11.2741 24.3517 11.2741H22.1017C21.4417 11.2741 20.8817 11.8241 20.8817 12.4941C20.8817 13.1641 21.4417 13.6841 22.1017 13.6841ZM20.2117 21.3141C20.6917 21.7841 21.4617 21.7841 21.9217 21.3141C22.3917 20.8641 22.3817 20.0841 21.9117 19.6141L20.3317 18.0141C19.8717 17.5541 19.0817 17.5541 18.6217 18.0141C18.1517 18.4841 18.1617 19.2541 18.6317 19.7241Z" />
        </svg>
    