
        <svg xmlns="http://www.w3.org/2000/svg" viewBox="0 0 100 100">
            <path d="M0.0017 16.0747C0.0017 16.6947 0.2817 17.1647 0.8317 17.4247C2.1817 18.0547 2.9317 18.8347 3.6817 20.3647C3.9517 20.8947 4.4017 21.1847 5.0017 21.1847H24.8717C25.4517 21.1847 25.9217 20.8947 26.1917 20.3647C26.9417 18.8347 27.6917 18.0547 29.0317 17.4247C29.5917 17.1647 29.8717 16.6947 29.8717 16.0747V5.1047C29.8717 4.4847 29.5917 4.0147 29.0317 3.7647C27.6917 3.1147 26.9417 2.3547 26.1917 0.8247C25.9217 0.2847 25.4517 0.0047 24.8717 0.0047H5.0017C4.4017 0.0047 3.9517 0.2847 3.6817 0.8247C2.9317 2.3547 2.1817 3.1147 0.8317 3.7647C0.2817 4.0147 0.0017 4.4847 0.0017 5.1047ZM2.6117 15.6047V5.5747C3.9717 5.0147 4.9217 4.0647 5.5617 2.6147H24.2917C24.9517 4.0647 25.9017 5.0147 27.2617 5.5747V15.6047C25.9017 16.1747 24.9517 17.1247 24.2917 18.5747H5.5617C4.9217 17.1247 3.9717 16.1747 2.6117 15.6047ZM5.6817 15.6447C5.6817 16.3047 6.1317 16.7447 6.7717 16.7447H23.1017C23.7417 16.7447 24.1717 16.3047 24.1717 15.6447V5.5447C24.1717 4.8947 23.7417 4.4547 23.1017 4.4547H6.7717C6.1317 4.4547 5.6817 4.8947 5.6817 5.5447ZM7.2917 8.0047V6.2547C7.2917 6.1147 7.3617 6.0447 7.4917 6.0447H8.6117V8.0047ZM21.2417 8.0047V6.0447H22.3817C22.5117 6.0447 22.5817 6.1147 22.5817 6.2547V8.0047ZM10.2217 15.1247V6.0547H19.6517V15.1247ZM7.2917 11.5947V9.5947H8.6117V11.5947ZM21.2417 11.5947V9.5947H22.5817V11.5947ZM21.2417 15.1447V13.1847H22.5817V14.9247C22.5817 15.0747 22.5117 15.1447 22.3817 15.1447ZM7.2917 14.9247V13.1947H8.6117V15.1247H7.5017C7.3617 15.1247 7.2917 15.0547 7.2917 14.9247Z" />
        </svg>
    