
        <svg xmlns="http://www.w3.org/2000/svg" viewBox="0 0 100 100">
            <path d="M0.0017 16.8275C0.0017 17.5575 0.3617 18.1975 1.0517 18.5075C2.4517 19.1375 3.2317 19.9475 3.9017 21.4075C4.1917 22.0775 4.8017 22.4375 5.5517 22.4375H25.5617C26.3217 22.4375 26.9217 22.0775 27.2117 21.4075C27.8817 19.9475 28.6617 19.1375 30.0617 18.5075C30.7517 18.1975 31.1117 17.5575 31.1117 16.8275V5.6275C31.1117 4.8875 30.7517 4.2575 30.0617 3.9375C28.6617 3.3075 27.8817 2.5075 27.2117 1.0475C26.9217 0.3775 26.3217 -0.0025 25.5617 -0.0025H5.5517C4.8017 -0.0025 4.1917 0.3775 3.9017 1.0475C3.2317 2.5075 2.4517 3.3075 1.0517 3.9375C0.3617 4.2575 0.0017 4.8875 0.0017 5.6275ZM3.6217 16.0775V6.3675C4.9117 5.8475 5.8917 4.8875 6.4417 3.6375H24.6817C25.2217 4.8875 26.2017 5.8475 27.4917 6.3675V16.0775C26.2017 16.6075 25.2217 17.5575 24.6817 18.8175H6.4417C5.8917 17.5575 4.9117 16.6075 3.6217 16.0775ZM6.4917 16.0975C6.4917 16.7975 6.9617 17.2775 7.6517 17.2775H23.4717C24.1517 17.2775 24.6217 16.7975 24.6217 16.0975V6.3475C24.6217 5.6575 24.1517 5.1775 23.4717 5.1775H7.6517C6.9617 5.1775 6.4917 5.6575 6.4917 6.3475ZM8.3417 8.5675V7.1675C8.3417 7.0775 8.3917 7.0275 8.4717 7.0275H9.3717V8.5675ZM21.7417 8.5675V7.0275H22.6417C22.7217 7.0275 22.7717 7.0775 22.7717 7.1675V8.5675ZM11.2417 15.3975V7.0575H19.8917V15.3975ZM8.3417 12.0475V10.4075H9.3717V12.0475ZM21.7417 12.0475V10.4075H22.7717V12.0475ZM21.7417 15.4175V13.8775H22.7717V15.2775C22.7717 15.3775 22.7217 15.4175 22.6417 15.4175ZM8.3517 15.2775V13.8975H9.3717V15.3975H8.4817C8.4017 15.3975 8.3517 15.3675 8.3517 15.2775Z" />
        </svg>
    