
        <svg xmlns="http://www.w3.org/2000/svg" viewBox="0 0 100 100">
            <path d="M11.9523 23.9041C18.4923 23.9041 23.9023 18.4841 23.9023 11.9541C23.9023 5.4141 18.5023 0.0041 11.9623 0.0041C11.3423 0.0041 11.0423 0.3741 11.0423 0.9841V5.5241C11.0423 6.0341 11.3923 6.4341 11.8923 6.4341C12.4123 6.4341 12.7623 6.0341 12.7623 5.5241V2.0241C17.9223 2.4341 21.9023 6.6941 21.9023 11.9541C21.9023 17.4841 17.4823 21.9141 11.9523 21.9141C6.4223 21.9141 1.9823 17.4841 1.9923 11.9541C2.0023 9.4841 2.8823 7.2441 4.3623 5.5241C4.7123 5.0641 4.7323 4.5141 4.3523 4.1041C3.9623 3.6941 3.3123 3.7241 2.8823 4.2441C1.1023 6.3241 0.0023 9.0341 0.0023 11.9541C0.0023 18.4841 5.4223 23.9041 11.9523 23.9041ZM11.9523 13.8441C13.0123 13.8441 13.8523 12.9941 13.8523 11.9541C13.8523 11.3041 13.5323 10.7541 13.0423 10.4041L7.1723 6.2541C6.6023 5.8441 6.0023 6.4441 6.4023 7.0441L10.3023 12.8741C10.6723 13.4541 11.2623 13.8441 11.9523 13.8441Z" />
        </svg>
    