
        <svg xmlns="http://www.w3.org/2000/svg" viewBox="0 0 100 100">
            <path d="M12.3723 24.7659C19.2023 24.7659 24.7523 19.2159 24.7523 12.3759C24.7523 5.5459 19.2023 -0.0041 12.3723 -0.0041C5.5423 -0.0041 0.0023 5.5459 0.0023 12.3759C0.0023 19.2159 5.5423 24.7659 12.3723 24.7659ZM12.3723 20.7159C7.7723 20.7159 4.0323 16.9959 4.0323 12.3759C4.0323 7.7559 7.7723 4.0359 12.3723 4.0359C16.9923 4.0359 20.7323 7.7559 20.7323 12.3759C20.7323 16.9959 16.9923 20.7159 12.3723 20.7159ZM11.3523 5.8159C9.2123 6.1359 7.4023 7.4959 6.4723 9.3659L10.3523 10.7959C10.6423 10.4059 11.0523 10.1159 11.5223 9.9459ZM18.3023 9.3659C17.3623 7.4959 15.5523 6.1359 13.4023 5.8159L13.2523 9.9459C13.7123 10.1159 14.1323 10.4059 14.4123 10.7959ZM12.3723 13.4859C12.9923 13.4859 13.4923 12.9959 13.4923 12.3759C13.4923 11.7559 12.9923 11.2659 12.3723 11.2659C11.7523 11.2659 11.2623 11.7559 11.2623 12.3759C11.2623 12.9959 11.7523 13.4859 12.3723 13.4859ZM5.8223 11.3359C5.7623 11.6559 5.7323 12.0259 5.7323 12.3759C5.7323 14.2159 6.4823 15.8759 7.6923 17.0759L10.2523 13.8259C9.9723 13.4259 9.8223 12.9559 9.7923 12.4459ZM17.0823 17.0759C18.2923 15.8759 19.0323 14.2159 19.0323 12.3759C19.0323 12.0259 19.0123 11.6559 18.9423 11.3359L14.9523 12.4459C14.9423 12.9559 14.7923 13.4259 14.5223 13.8259ZM9.3523 18.2959C10.2623 18.7659 11.2923 19.0159 12.3723 19.0159C13.4723 19.0159 14.5123 18.7659 15.4123 18.2959L13.1023 14.8459C12.8823 14.9059 12.6323 14.9559 12.3723 14.9559C12.1323 14.9559 11.8923 14.9059 11.6523 14.8459Z" />
        </svg>
    