
        <svg xmlns="http://www.w3.org/2000/svg" viewBox="0 0 100 100">
            <path d="M1.1945 2.3873H15.8445C16.5045 2.3873 17.0345 1.8473 17.0345 1.1973C17.0345 0.5373 16.5045 -0.0027 15.8445 -0.0027H1.1945C0.5345 -0.0027 0.0045 0.5373 0.0045 1.1973C0.0045 1.8473 0.5345 2.3873 1.1945 2.3873ZM15.6045 10.0673L15.9345 3.7473H1.0945L1.4145 10.0673C3.1545 9.2573 5.6345 8.7973 8.5245 8.7973C11.4045 8.7973 13.8745 9.2573 15.6045 10.0673ZM8.5245 16.6273C13.3545 16.6273 16.9245 15.2573 16.9245 13.3873C16.9245 11.5273 13.3345 10.1573 8.5245 10.1573C3.7045 10.1573 0.1145 11.5273 0.1145 13.3873C0.1145 15.2573 3.7045 16.6273 8.5245 16.6273ZM8.5245 14.6573C5.1545 14.6573 2.9045 14.1373 2.9045 13.3873C2.9045 12.6573 5.1545 12.1273 8.5245 12.1273C11.8845 12.1273 14.1245 12.6573 14.1245 13.3873C14.1245 14.1373 11.8845 14.6573 8.5245 14.6573ZM8.1845 22.1473H8.8445C12.8745 22.1473 15.8745 19.8973 16.6545 16.0573C15.0045 17.2473 12.1045 17.9173 8.5245 17.9173C4.9545 17.9173 2.0345 17.2473 0.3845 16.0573C1.1445 19.8873 4.1445 22.1473 8.1845 22.1473ZM8.5245 29.1673C10.6045 29.1673 13.2545 28.6373 14.4645 27.4373C14.7845 27.0773 14.8445 26.6173 14.6945 26.1073L13.5845 22.4273C12.1745 23.1373 10.5545 23.5073 8.8545 23.5073H8.1445C6.4545 23.5073 4.8545 23.1473 3.4545 22.4573L2.3345 26.1073C2.1945 26.6173 2.2345 27.0773 2.5745 27.4373C3.7845 28.6373 6.4245 29.1673 8.5245 29.1673Z" />
        </svg>
    