
        <svg xmlns="http://www.w3.org/2000/svg" viewBox="0 0 100 100">
            <path d="M1.2397 2.3873H15.8897C16.5497 2.3873 17.0897 1.8473 17.0897 1.1973C17.0897 0.5373 16.5497 -0.0027 15.8897 -0.0027H1.2397C0.5897 -0.0027 0.0497 0.5373 0.0497 1.1973C0.0497 1.8473 0.5897 2.3873 1.2397 2.3873ZM8.7197 29.1473C10.9997 29.1473 13.6097 28.6173 14.8097 27.4073C15.1397 27.0573 15.1897 26.5773 15.0497 26.0873L13.4797 20.8873C15.7597 19.4173 17.1297 16.7473 17.1297 13.3373C17.1297 12.5773 16.5697 11.9073 15.5697 11.3673L16.0197 3.7473H1.1097L1.5597 11.3673C0.5697 11.9073 -0.0003 12.5773 -0.0003 13.3373C-0.0003 16.8673 1.4797 19.6173 3.9297 21.0473L2.3897 26.0873C2.2497 26.5773 2.2997 27.0573 2.6297 27.4073C3.8297 28.6173 6.4297 29.1473 8.7197 29.1473ZM3.6297 5.6973H13.4997L13.2297 10.5273C11.9197 10.2173 10.3397 10.0473 8.5697 10.0473C6.8097 10.0473 5.2197 10.2173 3.8997 10.5373ZM8.5697 14.7873C5.0397 14.7873 2.6597 14.2073 2.6597 13.3373C2.6597 12.5073 5.0397 11.9273 8.5697 11.9273C12.0897 11.9273 14.4797 12.5073 14.4797 13.3373C14.4797 14.2073 12.0897 14.7873 8.5697 14.7873ZM8.5697 16.6773C11.0397 16.6773 13.1597 16.3273 14.6697 15.7473C13.8897 18.2973 11.8097 19.8873 9.0097 19.8873H8.1197C5.3197 19.8873 3.2497 18.2973 2.4597 15.7473C3.9797 16.3273 6.1097 16.6773 8.5697 16.6773ZM8.1697 22.1273H8.9797C9.7897 22.1273 10.5497 22.0273 11.2597 21.8473L12.5597 26.0273C11.5397 26.5273 10.1597 26.7573 8.7197 26.7573C7.2697 26.7573 5.8897 26.5273 4.8797 26.0273L6.1497 21.9173C6.7897 22.0573 7.4497 22.1273 8.1697 22.1273Z" />
        </svg>
    