
        <svg xmlns="http://www.w3.org/2000/svg" viewBox="0 0 100 100">
            <path d="M11.4923 22.977C17.8323 22.977 22.9823 17.847 22.9823 11.497C22.9823 5.147 17.8323 -0.003 11.4923 -0.003C5.1423 -0.003 0.0023 5.147 0.0023 11.497C0.0023 17.847 5.1423 22.977 11.4923 22.977ZM11.4923 22.087C5.6323 22.087 0.8923 17.357 0.8923 11.497C0.8923 5.637 5.6323 0.887 11.4923 0.887C17.3523 0.887 22.0923 5.637 22.0923 11.497C22.0923 17.357 17.3523 22.087 11.4923 22.087ZM7.4523 4.737H15.5323C15.7023 4.737 15.8623 4.607 15.8623 4.397C15.8623 4.207 15.7123 4.057 15.5323 4.057H7.4523C7.2623 4.057 7.1123 4.207 7.1123 4.397C7.1123 4.607 7.2823 4.737 7.4523 4.737ZM11.5123 8.857C12.9223 8.857 14.1923 9.047 15.1023 9.437L15.4123 5.357H7.5723L7.9023 9.437C8.8223 9.057 10.1023 8.857 11.5123 8.857ZM11.4923 12.987C14.2023 12.987 16.0623 12.267 16.0623 11.227C16.0623 10.207 14.1423 9.477 11.4923 9.477C8.8523 9.477 6.9123 10.207 6.9123 11.227C6.9123 12.267 8.8523 12.987 11.4923 12.987ZM11.4923 11.967C9.3823 11.967 8.1123 11.627 8.1123 11.227C8.1123 10.847 9.3823 10.507 11.4923 10.507C13.5923 10.507 14.8623 10.847 14.8623 11.227C14.8623 11.627 13.5923 11.967 11.4923 11.967ZM11.3623 15.647H11.6023C13.7423 15.647 15.4123 14.527 15.9123 12.587C15.0223 13.247 13.4223 13.607 11.4923 13.607C9.6123 13.607 7.9723 13.247 7.0523 12.577C7.5623 14.527 9.2223 15.647 11.3623 15.647ZM11.4823 19.727C12.7123 19.727 13.9323 19.417 14.4223 18.997C14.6323 18.817 14.6223 18.637 14.5423 18.327L13.8423 15.847C13.1623 16.137 12.4023 16.277 11.6023 16.277H11.3623C10.5723 16.277 9.8123 16.137 9.1423 15.857L8.4423 18.327C8.3423 18.637 8.3323 18.817 8.5423 18.997C9.0323 19.417 10.2523 19.727 11.4823 19.727Z" />
        </svg>
    