
        <svg xmlns="http://www.w3.org/2000/svg" viewBox="0 0 100 100">
            <path d="M12.2223 24.4436C18.9723 24.4436 24.4423 18.9736 24.4423 12.2236C24.4423 5.4736 18.9723 0.0036 12.2223 0.0036C5.4723 0.0036 0.0023 5.4736 0.0023 12.2236C0.0023 18.9736 5.4723 24.4436 12.2223 24.4436ZM12.2223 21.7636C6.9523 21.7636 2.6823 17.4936 2.6823 12.2236C2.6823 6.9536 6.9523 2.6836 12.2223 2.6836C17.4923 2.6836 21.7623 6.9536 21.7623 12.2236C21.7623 17.4936 17.4923 21.7636 12.2223 21.7636ZM12.1323 11.1936C15.9123 11.1936 18.2223 10.2436 18.2223 8.8136C18.2223 7.5036 16.4523 6.7336 13.8723 6.7336C12.0623 6.7336 10.5823 7.0536 9.4523 7.5536C9.0423 7.7336 8.9623 8.1536 9.1023 8.4336C9.2623 8.7636 9.6423 8.8836 10.0223 8.7336C10.9823 8.3536 12.1723 7.9936 13.8323 7.9936C15.7023 7.9936 16.8523 8.3836 16.8523 8.8036C16.8523 9.3136 14.9323 9.9036 12.0823 9.9036C9.0623 9.9036 7.5923 9.3536 7.5923 8.3036C7.5923 7.6636 8.1923 7.0336 9.8223 6.5436C10.2323 6.4136 10.4023 6.0536 10.3023 5.7036C10.1823 5.3536 9.8523 5.2136 9.4123 5.3336C7.2823 5.9436 6.2223 7.1036 6.2223 8.3436C6.2223 10.2036 8.3123 11.1936 12.1323 11.1936ZM12.3023 13.2436C14.2523 13.2436 16.0423 12.9336 17.2923 12.4336C17.6323 12.2936 17.7823 11.9436 17.6323 11.6336C17.4823 11.3336 17.1423 11.2536 16.7823 11.3936C15.6723 11.8136 14.0323 12.0836 12.3023 12.0836C10.9923 12.0836 9.5323 11.9336 8.3523 11.5936C7.9923 11.4836 7.6623 11.6036 7.5723 11.9436C7.4723 12.2736 7.6623 12.5936 8.0423 12.7036C9.3123 13.0636 10.9323 13.2436 12.3023 13.2436ZM12.7423 15.2836C14.3523 15.2736 15.8623 15.0336 17.2623 14.5936C17.6723 14.4536 17.7923 14.0736 17.6723 13.7836C17.5523 13.4736 17.2423 13.3636 16.8523 13.4836C15.5023 13.9136 14.1723 14.1236 12.7123 14.1236C12.1023 14.1236 11.4723 14.0736 10.9923 14.0136C10.5923 13.9536 10.3223 14.1536 10.2623 14.4536C10.1923 14.7636 10.3823 15.0936 10.8023 15.1636C11.2823 15.2336 11.9623 15.2836 12.7423 15.2836ZM12.1423 17.2036C13.2623 17.3336 14.6823 17.2836 15.8223 16.9936C16.1923 16.8836 16.3523 16.5436 16.2623 16.2436C16.1623 15.9136 15.8423 15.7736 15.4523 15.8636C14.5123 16.1036 13.3623 16.1736 12.3123 16.0636C11.9023 16.0336 11.6223 16.2336 11.5923 16.5436C11.5523 16.8536 11.7223 17.1536 12.1423 17.2036ZM11.7223 19.1836C12.1423 19.2336 12.5823 19.2336 13.0223 19.1836C13.3823 19.1236 13.5923 18.8836 13.5723 18.5536C13.5323 18.2436 13.2823 18.0136 12.8923 18.0736C12.5423 18.1036 12.1723 18.1136 11.8523 18.0736C11.4623 18.0136 11.2123 18.2536 11.1723 18.5536C11.1323 18.8636 11.3323 19.1236 11.7223 19.1836Z" />
        </svg>
    