
        <svg xmlns="http://www.w3.org/2000/svg" viewBox="0 0 100 100">
            <path d="M11.6923 11.5478C19.2423 11.5478 23.7223 9.6978 23.7223 6.9678C23.7223 4.4978 20.4123 3.0078 15.2123 3.0078C11.6323 3.0078 8.7223 3.5778 6.4223 4.5278C5.6723 4.8378 5.5123 5.5978 5.7423 6.1278C6.0123 6.7278 6.6923 6.9378 7.4423 6.6778C9.3823 5.9778 11.7623 5.2778 15.0823 5.2778C18.6523 5.2778 21.1723 6.0178 21.1723 6.9578C21.1723 8.1078 16.9323 9.2078 11.5823 9.2078C5.6023 9.2078 2.5423 8.0578 2.5423 5.8978C2.5423 4.4478 3.9123 3.1978 7.0823 2.2478C7.8523 2.0278 8.1423 1.3878 7.9423 0.7578C7.7323 0.1178 7.1523 -0.1422 6.2823 0.0778C2.0623 1.2078 0.0023 3.5378 0.0023 5.9478C0.0023 9.5478 4.0823 11.5478 11.6923 11.5478ZM12.0323 15.7378C15.8823 15.7378 19.4423 15.1178 21.9223 14.1478C22.5723 13.9178 22.8123 13.2778 22.5423 12.7278C22.2923 12.1878 21.7023 12.0578 21.0123 12.2878C18.7523 13.0978 15.4723 13.6578 12.0323 13.6578C9.4323 13.6578 6.4823 13.3478 4.1223 12.6378C3.4323 12.4378 2.8623 12.6678 2.6923 13.2478C2.5223 13.8478 2.8623 14.4178 3.5723 14.6178C6.1323 15.3678 9.2923 15.7378 12.0323 15.7378ZM12.9223 19.8578C16.1123 19.8278 19.0623 19.3778 21.8523 18.4978C22.6023 18.2678 22.8423 17.6178 22.6123 17.0678C22.4223 16.5478 21.8923 16.3178 21.1523 16.5478C18.4423 17.3678 15.7723 17.7878 12.8523 17.7878C11.6523 17.7878 10.3623 17.7078 9.4023 17.5778C8.6623 17.4678 8.1923 17.8078 8.1023 18.3478C7.9823 18.9378 8.2923 19.5078 9.0723 19.6278C10.0423 19.7678 11.3423 19.8678 12.9223 19.8578ZM11.7023 23.7778C13.9323 24.0178 16.8123 23.9178 18.9923 23.3478C19.6923 23.1778 19.9723 22.5778 19.8123 22.0178C19.6423 21.4178 19.0823 21.1878 18.3723 21.3378C16.4923 21.7778 14.1323 21.9378 12.0123 21.7378C11.2723 21.6678 10.7823 22.0378 10.7123 22.5978C10.6523 23.1278 10.9323 23.6878 11.7023 23.7778ZM10.9023 27.7978C11.7023 27.8878 12.5823 27.8778 13.4623 27.7778C14.1223 27.7078 14.4923 27.2778 14.4523 26.6678C14.3923 26.1078 13.9423 25.7178 13.2323 25.7978C12.5123 25.8878 11.7523 25.8978 11.1123 25.8178C10.4223 25.7278 9.9623 26.1278 9.9023 26.6778C9.8423 27.2678 10.2223 27.7078 10.9023 27.7978Z" />
        </svg>
    