
        <svg xmlns="http://www.w3.org/2000/svg" viewBox="0 0 100 100">
            <path d="M12.7923 25.5961C19.8723 25.5961 25.6023 19.8661 25.6023 12.7961C25.6023 5.7261 19.8723 -0.0039 12.7923 -0.0039C5.7323 -0.0039 0.0023 5.7261 0.0023 12.7961C0.0023 19.8661 5.7323 25.5961 12.7923 25.5961ZM12.7223 11.7761C8.8623 11.7761 6.7123 10.6861 6.7123 8.7761C6.7123 7.4561 7.8023 6.1761 9.9823 5.6561C10.5423 5.5361 10.9823 5.7061 11.1123 6.1561C11.2523 6.5961 11.0523 7.0461 10.5323 7.1861C9.1423 7.5461 8.5123 8.0661 8.5123 8.7461C8.5123 9.6661 9.7923 10.1361 12.6523 10.1361C14.8723 10.1361 17.0823 9.7861 17.0823 9.3561C17.0823 9.0461 15.8923 8.7961 14.3923 8.7961C12.7823 8.7961 11.6623 9.0861 10.7223 9.3961C10.1923 9.5761 9.7623 9.3861 9.5823 8.9861C9.4323 8.6161 9.5523 8.0861 10.0423 7.8861C11.2523 7.4661 12.7423 7.2161 14.4723 7.2161C17.2123 7.2161 18.8823 8.0061 18.8823 9.3561C18.8823 10.8661 16.4923 11.7761 12.7223 11.7761ZM12.8823 13.8761C11.5423 13.8761 9.9623 13.7061 8.6723 13.3361C8.2023 13.2061 7.9523 12.8061 8.0723 12.3761C8.1923 11.9461 8.6023 11.7961 9.0423 11.9161C10.1923 12.2661 11.6123 12.4261 12.8823 12.4261C14.4823 12.4261 16.1023 12.1761 17.2023 11.8161C17.6323 11.6461 18.0923 11.7661 18.2623 12.1261C18.4223 12.5061 18.2723 12.9861 17.8123 13.1561C16.5823 13.6061 14.8023 13.8761 12.8823 13.8761ZM13.3523 15.9961C12.5423 15.9961 11.8823 15.9461 11.4023 15.8661C10.8723 15.8161 10.6523 15.3861 10.7323 14.9861C10.7923 14.6161 11.1323 14.3461 11.6223 14.4261C12.0723 14.4861 12.7123 14.5061 13.2623 14.5061C14.7223 14.5061 15.9823 14.3161 17.3323 13.9261C17.8023 13.8061 18.1523 13.9761 18.3023 14.3461C18.4323 14.7561 18.2323 15.1961 17.7523 15.3561C16.3723 15.7461 14.9323 15.9761 13.3523 15.9961ZM12.6723 17.9861C12.1523 17.9461 11.9623 17.4961 12.0023 17.1561C12.0323 16.7661 12.3623 16.4761 12.8823 16.5261C13.9223 16.5961 15.0723 16.5361 15.9623 16.3561C16.4223 16.2561 16.8023 16.4261 16.9323 16.8561C17.0123 17.2461 16.8123 17.6761 16.3623 17.7861C15.3323 18.0261 13.7923 18.1161 12.6723 17.9861ZM12.2923 20.0161C11.8723 19.9761 11.5823 19.6761 11.6223 19.2461C11.6623 18.8361 11.9923 18.5461 12.4523 18.6061C12.7623 18.6361 13.1123 18.6361 13.4623 18.5961C13.9323 18.5361 14.2823 18.8161 14.3123 19.2461C14.3423 19.6761 14.0423 19.9761 13.6423 20.0161C13.1523 20.0461 12.7223 20.0461 12.2923 20.0161Z" />
        </svg>
    