
        <svg xmlns="http://www.w3.org/2000/svg" viewBox="0 0 100 100">
            <path d="M14.1717 7.6081C17.5317 7.5981 20.1817 6.4481 22.3717 4.2781C20.3117 1.5481 17.9617 0.0081 14.3217 -0.0019C10.7317 -0.0019 8.4217 1.1381 6.0917 4.3281C8.2717 6.4781 10.9717 7.6081 14.1717 7.6081ZM28.7617 13.0681C30.7117 12.0681 31.6017 11.2781 33.8117 11.2781C36.6117 11.2781 38.5817 10.1481 38.5817 8.3981C38.5817 4.6381 36.5117 1.9081 33.4217 1.9081C30.6917 1.9081 29.0717 3.6881 28.3917 6.1381C27.7217 8.2881 27.2017 8.9281 26.4617 9.5181C27.0117 10.3281 27.8717 11.7981 28.7617 13.0681ZM21.7717 14.5081C22.9617 14.1481 24.0317 13.8781 25.4717 13.8781C26.4117 13.8781 27.3417 13.7681 27.8017 13.4881C26.4517 11.8081 24.2117 7.1181 23.0017 5.1781C21.7617 6.3381 20.0117 7.4281 18.6217 7.9681C18.8517 10.3281 19.8517 12.4781 21.7717 14.5081ZM6.6217 14.4981C8.3817 12.6881 9.6117 10.2181 9.9017 8.0381C8.2717 7.4681 6.5417 6.4081 5.4017 5.2981C4.7917 6.2181 4.1817 7.2981 3.6117 8.3681C2.5817 10.3281 1.2417 11.5381 0.4417 12.2081C0.1617 12.4481 0.0017 12.7381 0.0017 13.1281C0.0017 13.6481 0.6017 13.9581 1.6017 13.9581H3.1717C4.6217 13.9581 5.6517 14.1781 6.6217 14.4981ZM33.8117 7.2981C33.2817 7.2981 32.8617 6.8781 32.8617 6.3681C32.8617 5.8481 33.2817 5.4181 33.8117 5.4181C34.3117 5.4181 34.7417 5.8481 34.7417 6.3681C34.7417 6.8781 34.3117 7.2981 33.8117 7.2981ZM13.9817 17.0081C16.9217 17.0081 18.9417 15.7581 20.6517 14.9781C18.7817 13.0681 17.7617 10.8181 17.5317 8.3481C16.4617 8.6481 15.3517 8.7981 14.1917 8.7981C13.0317 8.8081 11.9517 8.6581 10.9417 8.3881C10.6917 10.6181 9.6717 12.9381 7.8317 14.9681C9.4417 15.6481 11.2517 17.0081 13.9817 17.0081ZM3.3517 18.8881C5.2417 18.8881 7.2317 17.9681 8.1717 16.5081C7.1417 15.8481 5.8917 15.2481 4.6517 15.1181C4.0917 15.3081 3.4617 15.3381 2.7317 15.5081C1.5517 15.7381 0.7117 16.1681 0.7117 17.1181C0.7117 18.2481 1.8017 18.8881 3.3517 18.8881ZM24.7217 18.9581C26.2717 18.9581 27.3717 18.3181 27.3717 17.2081C27.3717 16.2381 26.5317 15.5781 25.3517 15.4181C24.6217 15.3381 24.0617 15.3081 23.4217 15.1881C22.2517 15.3381 21.0117 15.9381 19.9117 16.5781C20.8517 18.0381 22.8417 18.9581 24.7217 18.9581Z" />
        </svg>
    