
        <svg xmlns="http://www.w3.org/2000/svg" viewBox="0 0 100 100">
            <path d="M12.1023 24.2064C18.7823 24.2064 24.2123 18.7864 24.2123 12.1064C24.2123 5.4264 18.7823 -0.0036 12.1023 -0.0036C5.4223 -0.0036 0.0023 5.4264 0.0023 12.1064C0.0023 18.7864 5.4223 24.2064 12.1023 24.2064ZM9.9823 11.0864C8.6223 11.0964 7.3923 10.5864 6.4423 9.5364C7.4223 8.2664 8.4823 7.7364 10.0323 7.7364C11.5823 7.7464 12.6023 8.3064 13.5723 9.5164C12.6323 10.5564 11.4123 11.0764 9.9823 11.0864ZM18.8123 12.9564C17.8323 12.9564 17.3923 13.3864 16.6623 13.6964C16.2923 13.0864 15.8823 12.3164 15.6023 11.8564C15.8523 11.6364 16.1623 11.3064 16.3623 10.5664C16.6623 9.3664 17.4623 8.6064 18.7123 8.6064C20.1723 8.6064 21.1323 9.8364 21.1323 11.6464C21.1323 12.4464 20.2223 12.9564 18.8123 12.9564ZM13.4423 14.3764C12.5823 13.5864 12.0323 12.4464 11.9523 11.4764C12.5823 11.2264 13.4323 10.6864 13.9823 10.1164C14.5423 10.9664 15.5323 13.1864 16.0523 13.9464C15.8323 14.0864 15.3823 14.1564 14.9323 14.1564C14.3423 14.1764 13.8823 14.2464 13.4423 14.3764ZM6.5423 14.4164C6.1323 14.2664 5.6923 14.1864 5.1123 14.1864H4.5123C3.9223 14.1864 3.6323 13.9964 3.6323 13.6764C3.6323 13.4364 3.7423 13.2864 3.8923 13.1164C4.2623 12.7964 4.7823 12.3164 5.2723 11.4064C5.4923 10.9464 5.7523 10.5364 5.9923 10.1564C6.5323 10.7264 7.3623 11.2264 8.0723 11.4964C7.9523 12.4564 7.3323 13.6664 6.5423 14.4164ZM18.8423 11.1464C19.0923 11.1464 19.3123 10.9264 19.3123 10.6664C19.3123 10.3964 19.0923 10.1864 18.8423 10.1864C18.5723 10.1864 18.3623 10.3964 18.3623 10.6664C18.3623 10.9264 18.5723 11.1464 18.8423 11.1464ZM9.9823 15.6164C8.8023 15.6164 7.9723 14.9764 7.2923 14.6864C8.1223 13.8964 8.6623 12.7264 8.7423 11.7064C9.1523 11.7964 9.5723 11.8564 10.0123 11.8564C10.4323 11.8564 10.8523 11.7964 11.2823 11.6964C11.3523 12.7764 11.8923 13.9064 12.7523 14.6764C12.0323 15.0164 11.1823 15.6164 9.9823 15.6164ZM5.1223 16.5364C4.3823 16.5364 3.8323 16.2164 3.8323 15.6664C3.8323 15.2564 4.2323 15.0864 4.6523 14.9764C4.9123 14.9264 5.1523 14.9064 5.4123 14.8464C6.1123 14.8964 6.7623 15.2264 7.4023 15.5864C6.9423 16.1564 6.0223 16.5364 5.1223 16.5364ZM14.8023 16.5464C13.8823 16.5464 12.9423 16.1864 12.4823 15.5964C12.9723 15.2764 13.8123 14.8964 14.4523 14.8464C14.7323 14.8564 14.9523 14.8664 15.2223 14.8864C15.6723 14.9264 16.0823 15.2464 16.0823 15.6864C16.0823 16.2264 15.5323 16.5464 14.8023 16.5464Z" />
        </svg>
    