
        <svg xmlns="http://www.w3.org/2000/svg" viewBox="0 0 100 100">
            <path d="M12.2223 24.4436C18.9723 24.4436 24.4423 18.9636 24.4423 12.2236C24.4423 5.4736 18.9723 0.0036 12.2223 0.0036C5.4823 0.0036 0.0023 5.4736 0.0023 12.2236C0.0023 18.9636 5.4823 24.4436 12.2223 24.4436ZM10.1123 11.1936C8.7923 11.2036 7.5823 10.6836 6.6523 9.6636C7.5923 8.4536 8.6523 7.9236 10.1623 7.9236C11.6623 7.9336 12.6723 8.4736 13.6323 9.6336C12.7023 10.6636 11.5123 11.1836 10.1123 11.1936ZM18.8223 13.0736C17.8623 13.0736 17.3523 13.5036 16.6123 13.8136C16.2923 13.1836 15.9123 12.4336 15.6323 11.9436C15.9123 11.7336 16.2223 11.4136 16.4023 10.7136C16.7123 9.5236 17.4923 8.7636 18.7223 8.7636C20.1723 8.7636 21.1323 9.9836 21.1323 11.7736C21.1323 12.5736 20.2223 13.0736 18.8223 13.0736ZM13.5323 14.4936C12.6823 13.7236 12.1323 12.5936 12.0323 11.5936C12.6823 11.3436 13.4923 10.8236 14.0523 10.2536C14.5923 11.0836 15.5323 13.2736 16.0123 14.0536C15.8123 14.1836 15.3823 14.2336 14.9723 14.2536C14.4223 14.2736 13.9723 14.3636 13.5323 14.4936ZM6.7223 14.5336C6.3323 14.3636 5.8623 14.2836 5.2823 14.2836H4.7423C4.1723 14.2836 3.8823 14.0736 3.8823 13.7436C3.8823 13.5036 3.9923 13.3436 4.1723 13.1436C4.5323 12.8336 5.0323 12.3736 5.4923 11.4936C5.7023 11.0536 5.9623 10.6636 6.1923 10.3036C6.7423 10.8736 7.5423 11.3536 8.2623 11.6236C8.1423 12.5936 7.5323 13.8036 6.7223 14.5336ZM18.8523 11.2936C19.1123 11.2936 19.3523 11.0736 19.3523 10.8036C19.3523 10.5336 19.1123 10.3136 18.8523 10.3136C18.5823 10.3136 18.3723 10.5336 18.3723 10.8036C18.3723 11.0736 18.5823 11.2936 18.8523 11.2936ZM10.1223 15.6936C8.9723 15.6936 8.1523 15.1036 7.4723 14.8136C8.3223 14.0236 8.8523 12.8836 8.9423 11.8336C9.3323 11.9136 9.7223 11.9736 10.1323 11.9736C10.5323 11.9736 10.9423 11.9136 11.3523 11.8236C11.4223 12.9236 11.9623 14.0436 12.8423 14.8036C12.1423 15.1436 11.2923 15.6936 10.1223 15.6936ZM14.9423 16.6336C14.0323 16.6336 13.0923 16.2736 12.6223 15.7136C13.1123 15.4136 14.0023 15.0236 14.6323 14.9536C14.9023 14.9636 15.1023 14.9736 15.3623 15.0036C15.7923 15.0536 16.1923 15.3236 16.1923 15.7836C16.1923 16.3136 15.6723 16.6336 14.9423 16.6336ZM5.3423 16.6136C4.6123 16.6136 4.0823 16.3036 4.0823 15.7736C4.0823 15.3736 4.4523 15.1836 4.8423 15.0936C5.1023 15.0436 5.3323 15.0236 5.5923 14.9536C6.2823 15.0336 6.9623 15.3636 7.6123 15.7236C7.1323 16.2636 6.2323 16.6136 5.3423 16.6136Z" />
        </svg>
    