
        <svg xmlns="http://www.w3.org/2000/svg" viewBox="0 0 100 100">
            <path d="M12.1023 24.2064C18.7823 24.2064 24.2123 18.7864 24.2123 12.1064C24.2123 5.4264 18.7823 -0.0036 12.1023 -0.0036C5.4223 -0.0036 0.0023 5.4264 0.0023 12.1064C0.0023 18.7864 5.4223 24.2064 12.1023 24.2064ZM12.1023 21.8164C6.7223 21.8164 2.3823 17.4864 2.3823 12.1064C2.3823 6.7264 6.7223 2.3764 12.1023 2.3764C17.4823 2.3764 21.8323 6.7264 21.8323 12.1064C21.8323 17.4864 17.4823 21.8164 12.1023 21.8164ZM10.0823 11.1364C11.4623 11.1164 12.6223 10.6264 13.5323 9.6064C12.6023 8.4464 11.6023 7.9064 10.1123 7.9064C8.6223 7.9064 7.6023 8.4064 6.6523 9.6464C7.5823 10.6564 8.7823 11.1464 10.0823 11.1364ZM18.5823 12.9264C19.9323 12.9264 20.8123 12.4364 20.8123 11.6764C20.8123 9.9264 19.8823 8.7264 18.4823 8.7264C17.2723 8.7264 16.5123 9.4664 16.2323 10.6264C16.0223 11.3464 15.7423 11.6564 15.4823 11.8664C15.7523 12.3164 16.1523 13.0564 16.5123 13.6364C17.2123 13.3364 17.6323 12.9264 18.5823 12.9264ZM13.4023 14.2964C13.8423 14.1764 14.2723 14.0964 14.8323 14.0864C15.2823 14.0864 15.7123 14.0164 15.9223 13.8764C15.4223 13.1364 14.4623 11.0064 13.9323 10.1864C13.3923 10.7364 12.5823 11.2664 11.9623 11.4964C12.0623 12.4464 12.5823 13.5264 13.4023 14.2964ZM6.7523 14.3164C7.5223 13.6064 8.1223 12.4464 8.2423 11.5164C7.5423 11.2664 6.7423 10.7764 6.2323 10.2464C6.0023 10.5964 5.7423 10.9964 5.5323 11.4264C5.0623 12.3264 4.5723 12.7764 4.2023 13.0864C4.0423 13.2464 3.9523 13.4064 3.9523 13.6164C3.9523 13.9264 4.2423 14.1064 4.7923 14.1064H5.3623C5.9423 14.1064 6.3623 14.1864 6.7523 14.3164ZM18.6023 11.1764C18.3523 11.1764 18.1523 10.9664 18.1523 10.7064C18.1523 10.4764 18.3523 10.2564 18.6023 10.2564C18.8423 10.2564 19.0623 10.4764 19.0623 10.7064C19.0623 10.9664 18.8423 11.1764 18.6023 11.1764ZM10.0823 15.4964C11.2223 15.4964 12.0423 14.9164 12.7423 14.5864C11.9223 13.8364 11.4023 12.7464 11.3323 11.7064C10.9223 11.8164 10.5023 11.8664 10.0923 11.8664C9.6723 11.8664 9.2723 11.8264 8.8723 11.7164C8.7923 12.7064 8.2723 13.8264 7.4723 14.5864C8.1323 14.8664 8.9323 15.4964 10.0823 15.4964ZM5.3823 16.3664C6.2623 16.3664 7.1323 16.0064 7.5923 15.4564C6.9723 15.1064 6.3423 14.7864 5.6723 14.7464C5.4423 14.8164 5.1823 14.8264 4.9323 14.8664C4.5323 14.9664 4.1523 15.1364 4.1523 15.5364C4.1523 16.0664 4.6923 16.3664 5.3823 16.3664ZM14.7023 16.3864C15.4123 16.3864 15.9423 16.0764 15.9423 15.5664C15.9423 15.1264 15.5423 14.8264 15.1123 14.7764C14.8623 14.7664 14.6523 14.7564 14.3623 14.7464C13.7723 14.7864 12.9523 15.1664 12.4823 15.4564C12.9223 16.0164 13.8423 16.3864 14.7023 16.3864Z" />
        </svg>
    