
        <svg xmlns="http://www.w3.org/2000/svg" viewBox="0 0 100 100">
            <path d="M4.1717 21.4092C6.4117 21.4092 8.6417 20.5992 10.4617 19.1392C11.8517 19.6492 13.4317 20.0492 15.2917 20.0492C17.1417 20.0492 18.7017 19.7092 20.0017 19.2492C21.8217 20.6092 23.9517 21.4092 26.1017 21.4092C28.2817 21.4092 29.7217 20.4392 29.7217 18.9292C29.7217 17.2592 28.3717 16.7092 26.9317 16.3192C29.3217 15.4692 31.9717 13.9892 34.5617 13.9892C38.4917 13.9892 41.0517 12.4892 41.0517 9.9892C41.0517 5.1092 38.3317 1.8992 34.4217 1.8992C31.0417 1.8992 28.7717 3.8292 27.9917 7.2192C27.8217 8.0192 27.5017 8.5892 27.0517 9.0192L26.7617 8.4992C23.4517 2.4392 20.3117 0.0092 15.2917 -0.0008C10.2617 0.0092 7.1017 2.3892 3.7717 8.6092C2.0517 11.8192 0.0017 12.1592 0.0017 14.2492C0.0017 15.5292 0.8417 16.3992 2.2617 16.6792C1.3017 17.0692 0.5517 17.6992 0.5517 18.9292C0.5517 20.4392 1.9917 21.4092 4.1717 21.4092ZM15.2917 3.5892C17.6617 3.5992 19.3917 4.3392 20.9917 6.1192C19.2917 7.2992 17.3117 7.9292 15.2017 7.9292C13.0917 7.9292 11.1517 7.3392 9.5017 6.2192C11.1517 4.3392 12.9117 3.5992 15.2917 3.5892ZM29.5617 12.5892C29.3017 12.3092 29.1317 12.1392 28.8917 11.6992C30.1317 11.2992 30.8317 10.2192 31.1517 8.6292C31.5817 6.3992 32.6517 5.3692 34.4217 5.3692C36.2617 5.3692 37.7017 7.1392 37.7017 9.6092C37.7017 10.0392 36.3517 10.6092 35.0117 10.6092C32.3217 10.6092 30.8717 11.4592 29.5617 12.5892ZM34.6017 8.9392C35.2617 8.9392 35.8017 8.3992 35.8017 7.7492C35.8017 7.0992 35.2617 6.5592 34.6017 6.5592C33.9517 6.5592 33.4217 7.0992 33.4217 7.7492C33.4217 8.3992 33.9517 8.9392 34.6017 8.9392ZM23.7817 10.3592C24.5817 11.9192 24.9517 12.5492 25.7117 13.1692C25.4917 13.1592 25.2217 13.2092 24.9217 13.2792C23.9617 13.4892 22.8617 14.0292 21.6417 14.6092C20.6817 13.2492 19.8317 11.0892 19.6217 9.7192C20.7117 9.2892 21.6717 8.7392 22.4917 8.1292C22.9117 8.7892 23.3417 9.5392 23.7817 10.3592ZM5.8317 13.2492C5.5817 13.2492 5.3517 13.2692 4.8917 13.2692L4.8717 13.0592C5.6117 12.3592 6.1317 11.7792 6.7717 10.4492C7.2117 9.6192 7.6317 8.8992 8.0417 8.2392C8.8817 8.8392 9.8517 9.3792 10.9717 9.7892C10.7417 11.1192 9.9517 13.1592 9.0217 14.4992C7.7217 13.8392 6.6317 13.2492 5.8317 13.2492ZM15.2917 16.4692C13.8717 16.4692 12.5317 16.0792 11.2817 15.5592C12.2417 14.1592 13.0817 12.0092 13.2817 10.3692C13.8917 10.4692 14.5317 10.5092 15.2017 10.5092C15.9417 10.5092 16.6417 10.4492 17.3117 10.3392C17.4817 11.9992 18.3417 14.1892 19.3517 15.6192C18.0917 16.0992 16.7317 16.4692 15.2917 16.4692ZM3.2217 18.5292C3.2217 18.2692 3.4617 18.0892 3.9717 17.9392C4.3117 17.8492 5.3017 17.5592 6.2417 17.1892C6.7417 17.3992 7.2817 17.6692 7.8517 17.9492C6.5717 18.7692 5.4717 19.1492 4.4017 19.1492C3.6517 19.1492 3.2217 18.8992 3.2217 18.5292ZM26.3017 17.9392C26.8117 18.0792 27.0517 18.2692 27.0517 18.5292C27.0517 18.8992 26.6117 19.1492 25.8617 19.1492C24.8517 19.1492 23.8117 18.8092 22.6217 18.0792C23.2017 17.7692 23.7117 17.4692 24.1517 17.2392C25.0517 17.5892 25.9717 17.8592 26.3017 17.9392Z" />
        </svg>
    