
        <svg xmlns="http://www.w3.org/2000/svg" viewBox="0 0 100 100">
            <path d="M11.7523 23.5048C18.2423 23.5048 23.5123 18.2448 23.5123 11.7548C23.5123 5.2648 18.2423 0.0048 11.7523 0.0048C5.2623 0.0048 0.0023 5.2648 0.0023 11.7548C0.0023 18.2448 5.2623 23.5048 11.7523 23.5048ZM11.7523 21.9848C6.0923 21.9848 1.5223 17.4148 1.5223 11.7548C1.5223 6.0948 6.0923 1.5148 11.7523 1.5148C17.4123 1.5148 21.9923 6.0948 21.9923 11.7548C21.9923 17.4148 17.4123 21.9848 11.7523 21.9848ZM9.6023 10.8348C11.1223 10.8348 12.3323 10.3148 13.3223 9.3248C12.3723 8.1248 11.3123 7.4148 9.6723 7.4148C8.0323 7.4148 6.9523 7.9148 5.9223 9.3348C6.9123 10.3248 8.1323 10.8548 9.6023 10.8348ZM18.6223 12.5848C19.8823 12.5848 20.7923 12.0748 20.7923 11.2648C20.7923 9.5548 19.8523 8.2948 18.4423 8.2948C17.1823 8.2948 16.4423 9.1048 16.1323 10.2448C15.8523 11.1248 15.6123 11.4448 15.3523 11.7048C15.6523 12.1948 16.0623 12.8748 16.4323 13.3448C17.2423 12.9248 17.6323 12.5848 18.6223 12.5848ZM13.1623 14.0548C13.6723 13.8848 14.1723 13.7848 14.8023 13.7848C15.2223 13.7848 15.6423 13.7348 15.8423 13.5948C15.2423 12.8548 14.2223 10.7648 13.6723 9.8648C13.1223 10.3848 12.3423 10.8748 11.7223 11.1248C11.8123 12.1748 12.2723 13.1348 13.1623 14.0548ZM18.6223 10.7648C18.3723 10.7648 18.1923 10.5848 18.1923 10.3348C18.1923 10.1048 18.3723 9.8948 18.6223 9.8948C18.8323 9.8948 19.0423 10.1048 19.0423 10.3348C19.0423 10.5848 18.8323 10.7648 18.6223 10.7648ZM6.0623 14.0548C6.8523 13.2348 7.3923 12.1248 7.5423 11.1548C6.8323 10.8848 6.0423 10.4048 5.5423 9.9148C5.2723 10.3348 4.9923 10.8048 4.7323 11.2748C4.2623 12.1548 3.6723 12.7348 3.2823 13.0348C3.1623 13.1348 3.0923 13.2848 3.0923 13.4448C3.0923 13.6748 3.3023 13.8148 3.7623 13.8148H4.5323C5.1723 13.8148 5.6223 13.9248 6.0623 14.0548ZM9.5023 15.2148C10.8323 15.2148 11.7323 14.6748 12.5123 14.3248C11.6723 13.4548 11.1923 12.4448 11.1023 11.3348C10.6023 11.4748 10.1123 11.5348 9.6123 11.5348C9.0923 11.5348 8.6123 11.4848 8.1523 11.3648C8.0323 12.3548 7.5723 13.3948 6.7523 14.3048C7.4623 14.6248 8.2823 15.2148 9.5023 15.2148ZM4.6323 16.0748C5.4523 16.0748 6.3323 15.6948 6.7723 15.0748C6.0723 14.7048 5.5923 14.4648 4.8823 14.4348C4.7223 14.4848 4.5223 14.4848 4.3623 14.5148C3.8223 14.6648 3.4223 14.8348 3.4223 15.2648C3.4223 15.7848 3.9223 16.0748 4.6323 16.0748ZM14.4623 16.1248C15.1623 16.1248 15.6523 15.8048 15.6523 15.3048C15.6523 14.8848 15.2723 14.5648 14.7223 14.4848C14.4923 14.4748 14.3123 14.4648 14.0723 14.4448C13.5823 14.4948 12.6723 14.9048 12.3123 15.1148C12.7523 15.7348 13.6123 16.1248 14.4623 16.1248Z" />
        </svg>
    