
        <svg xmlns="http://www.w3.org/2000/svg" viewBox="0 0 100 100">
            <path d="M17.2423 21.7877C26.8123 21.7877 34.4523 17.0077 34.4523 10.8877C34.4523 4.7777 26.7923 -0.0023 17.2423 -0.0023C7.6523 -0.0023 0.0023 4.7777 0.0023 10.8877C0.0023 17.0077 7.6523 21.7877 17.2423 21.7877ZM17.2423 18.7577C9.4523 18.7577 3.0223 15.1277 3.0223 10.8877C3.0223 6.6577 9.4823 3.0277 17.2423 3.0277C24.9823 3.0277 31.4323 6.6577 31.4323 10.8877C31.4323 15.1277 24.9923 18.7577 17.2423 18.7577ZM7.8023 10.5077C8.8923 12.6377 12.4723 13.9177 17.2223 13.9177C21.9923 13.9177 25.5723 12.6377 26.6623 10.5077C27.1623 9.5077 25.9223 8.7877 25.2023 9.5777C25.0323 9.7577 24.8323 9.9477 24.5823 10.1177C22.6423 8.5277 19.9923 7.6377 17.2223 7.6377C14.4723 7.6377 11.8223 8.5277 9.8623 10.1177C9.6323 9.9477 9.4223 9.7577 9.2623 9.5777C8.5423 8.7877 7.3023 9.5077 7.8023 10.5077ZM17.2223 9.9177C18.9923 9.9177 20.6623 10.3477 22.0523 11.1477C20.5523 11.4977 18.8123 11.6377 17.2223 11.6377C15.6823 11.6377 13.9223 11.5077 12.4123 11.1377C13.7923 10.3477 15.4723 9.9177 17.2223 9.9177Z" />
        </svg>
    