
        <svg xmlns="http://www.w3.org/2000/svg" viewBox="0 0 100 100">
            <path d="M17.5323 22.3923C27.2923 22.3923 35.0523 17.4823 35.0523 11.1923C35.0523 4.9123 27.2823 0.0023 17.5323 0.0023C7.7723 0.0023 0.0023 4.9123 0.0023 11.1923C0.0023 17.4823 7.7723 22.3923 17.5323 22.3923ZM17.5323 18.7723C9.9523 18.7723 3.6223 15.2423 3.6223 11.1923C3.6223 7.1523 9.9723 3.6223 17.5323 3.6223C25.0923 3.6223 31.4323 7.1523 31.4323 11.1923C31.4323 15.2423 25.1023 18.7723 17.5323 18.7723ZM8.1223 10.9523C9.2223 13.1123 12.8123 14.4623 17.5323 14.4623C22.2523 14.4623 25.8423 13.1123 26.9423 10.9523C27.4723 9.9223 26.1423 9.0623 25.3023 9.9823C25.2023 10.0823 25.1023 10.1823 24.9823 10.2723C23.0323 8.6523 20.3323 7.7123 17.5323 7.7123C14.7323 7.7123 12.0323 8.6523 10.0823 10.2723C9.9623 10.1823 9.8523 10.0823 9.7623 9.9823C8.9223 9.0623 7.5923 9.9223 8.1223 10.9523ZM17.5323 10.2023C19.3023 10.2023 20.9523 10.6423 22.3223 11.4523C20.8223 11.8123 19.0623 11.9623 17.5323 11.9623C16.0123 11.9623 14.2523 11.8123 12.7423 11.4523C14.1123 10.6423 15.7723 10.2023 17.5323 10.2023Z" />
        </svg>
    