
        <svg xmlns="http://www.w3.org/2000/svg" viewBox="0 0 100 100">
            <path d="M0.9032 9.8416C1.3032 9.9816 1.7432 9.8116 1.9232 9.3416C3.7932 4.1516 8.2632 1.4416 12.9432 1.4416C15.0132 1.4416 16.6332 1.8516 18.0332 2.6216C18.4932 2.8716 18.9632 2.8816 19.1632 2.4516C19.3532 2.0316 19.1532 1.7316 18.7932 1.5116C16.9932 0.4016 15.1932 0.0016 12.9432 0.0016C7.4932 0.0016 2.6832 2.9216 0.5332 8.6416C0.2932 9.2416 0.5332 9.7016 0.9032 9.8416ZM25.5232 14.2016C25.9432 14.2016 26.2432 13.8616 26.1932 13.4216C25.6932 8.5916 24.0932 5.5816 21.3632 3.1516C21.0132 2.8316 20.5532 2.9016 20.3332 3.1916C20.0732 3.4616 20.0732 3.8816 20.4432 4.2316C22.7832 6.4616 24.4232 9.2316 24.8132 13.4516C24.8532 13.8716 25.1232 14.2016 25.5232 14.2016ZM2.7532 20.3516C3.0032 20.6916 3.4832 20.7816 3.8332 20.4716C4.7032 19.7616 5.1332 18.5716 5.1332 17.3316C5.1332 15.6916 4.4232 14.8616 4.4232 12.8516C4.4232 8.2416 8.2532 4.4016 12.8832 4.4016C18.4232 4.4016 22.0232 8.9516 22.0332 15.6916C22.0332 18.3516 21.6032 20.2016 21.1632 21.2416C21.0032 21.6416 21.1532 22.0616 21.4932 22.2316C21.8532 22.4016 22.3332 22.2516 22.5032 21.8416C22.9532 20.6116 23.4732 18.5516 23.4732 15.6816C23.4732 8.1016 19.2932 2.9616 12.8832 2.9616C7.4632 2.9616 2.9932 7.4516 2.9932 12.8516C2.9932 14.7916 3.7132 16.1116 3.7432 17.3216C3.7432 18.1216 3.4332 18.8716 2.8932 19.3516C2.6032 19.6216 2.5432 20.0516 2.7532 20.3516ZM8.1432 16.0216C7.8532 15.2216 7.3932 14.2416 7.3932 12.9116C7.3932 9.8116 9.8332 7.3716 12.9432 7.3716C14.1232 7.3716 14.4932 7.5016 15.5032 7.9816C15.9032 8.1516 16.2632 8.0516 16.4032 7.7616C16.6032 7.3916 16.5032 6.9616 16.0632 6.7116C15.2832 6.2416 14.1232 5.9216 12.9432 5.9216C9.0432 5.9216 5.9432 9.0216 5.9432 12.9116C5.9432 14.3716 6.3432 15.6016 6.7432 16.5716C6.9132 17.0016 7.3132 17.1916 7.7632 17.0116C8.1432 16.8616 8.2832 16.4416 8.1432 16.0216ZM17.4232 9.6116C18.5432 11.2716 19.0932 13.5216 19.0932 16.3016C19.0932 19.2816 18.2832 22.0916 16.9932 23.6816C16.7632 24.0016 16.7332 24.4316 17.0132 24.7016C17.3332 24.9916 17.8532 24.9716 18.1032 24.6316C19.5732 22.6616 20.5132 19.5316 20.5132 16.2616C20.5132 12.6216 19.7332 10.5616 18.6832 8.8516C18.4332 8.4416 17.9732 8.3116 17.6232 8.4916C17.2432 8.6916 17.1432 9.1916 17.4232 9.6116ZM8.1132 24.1316C10.0532 22.5716 11.1332 20.0516 11.1232 17.2816C11.1132 15.1916 10.3632 13.9016 10.3632 12.7716C10.3632 11.3116 11.3932 10.3316 12.9132 10.3316C15.1732 10.3316 15.9832 12.9016 16.0632 16.1816C16.1732 19.8116 14.8732 22.9616 13.1032 24.4916C12.7932 24.7516 12.7232 25.1616 12.9432 25.4816C13.1832 25.8316 13.6732 25.8916 14.0132 25.5816C15.8932 23.8716 17.4232 20.1216 17.4132 16.0816C17.4032 11.9516 16.1832 8.9016 12.9132 8.9016C10.6632 8.9016 8.9532 10.4016 8.9532 12.6416C8.9532 14.0016 9.6532 15.6416 9.6732 17.2816C9.6932 19.6216 8.8132 21.7016 7.2232 23.0016C6.8632 23.2816 6.8232 23.6916 7.0332 24.0216C7.3032 24.3916 7.7732 24.4216 8.1132 24.1316ZM1.4432 16.9416C1.8032 16.8316 1.9932 16.4416 1.9032 16.0116C1.5932 14.8116 1.4232 13.6016 1.4732 11.9716C1.4932 11.5316 1.2332 11.2516 0.8432 11.2116C0.3632 11.1716 0.0732 11.4716 0.0332 11.8916C-0.0668 13.2416 0.0432 14.7816 0.5032 16.4216C0.6332 16.8516 1.0432 17.0716 1.4432 16.9416ZM14.1232 18.5316C14.4432 16.9116 14.3232 14.8816 13.7332 13.1016C13.5832 12.6316 13.2032 12.4316 12.8132 12.5616C12.4232 12.6816 12.2132 13.0316 12.3432 13.4616C12.8832 15.1916 12.9732 16.8416 12.7032 18.3316C12.6332 18.7116 12.7932 19.0916 13.2432 19.1616C13.6532 19.2316 14.0432 18.9816 14.1232 18.5316ZM5.6132 22.5716C6.5132 22.1116 7.6932 20.5916 8.0332 19.3816C8.1332 19.0116 7.9732 18.5816 7.5732 18.4616C7.2032 18.3316 6.8232 18.5416 6.6832 18.9616C6.3632 19.9616 5.8232 20.7116 4.9732 21.2916C4.5232 21.6016 4.4532 21.9816 4.5932 22.3016C4.7432 22.6416 5.1732 22.8016 5.6132 22.5716ZM10.8832 25.0916C11.8232 24.4016 12.9232 22.9116 13.4032 21.4216C13.5132 21.0916 13.4232 20.6416 13.0232 20.4916C12.5832 20.3416 12.2232 20.5616 12.0832 20.9216C11.5232 22.3916 10.8032 23.3016 10.0132 23.9316C9.6932 24.1916 9.6132 24.6116 9.8232 24.9416C10.0332 25.2916 10.5332 25.3516 10.8832 25.0916Z" />
        </svg>
    