
        <svg xmlns="http://www.w3.org/2000/svg" viewBox="0 0 100 100">
            <path d="M0.9631 9.9622C1.3931 10.1222 1.8531 9.9222 2.0431 9.4322C3.9131 4.3022 8.3331 1.5322 13.0831 1.5322C15.1531 1.5322 16.7431 1.9422 18.1631 2.6922C18.6531 2.9522 19.1531 2.9622 19.3631 2.5122C19.5631 2.0722 19.3631 1.7422 18.9731 1.5022C17.1431 0.3822 15.3431 0.0022 13.0831 0.0022C7.5231 0.0022 2.7231 2.9922 0.5531 8.6922C0.3131 9.3122 0.5531 9.8222 0.9631 9.9622ZM2.7931 20.5822C3.0431 20.9422 3.5631 21.0222 3.9431 20.7022C4.8031 19.9722 5.2631 18.7722 5.2631 17.5122C5.2531 15.8522 4.5431 15.0022 4.5431 13.0122C4.5431 8.3622 8.3831 4.5222 13.0331 4.5222C18.5831 4.5222 22.1931 9.0822 22.2031 15.8522C22.2031 18.5522 21.7631 20.4122 21.3431 21.4322C21.1631 21.8422 21.3131 22.3022 21.6831 22.4922C22.0831 22.6622 22.5931 22.5022 22.7631 22.0622C23.2131 20.8522 23.7431 18.7722 23.7431 15.8422C23.7431 8.1722 19.5031 2.9922 13.0331 2.9922C7.5431 2.9922 3.0131 7.5222 3.0131 13.0122C3.0131 14.9622 3.7531 16.2822 3.7631 17.4922C3.7631 18.2922 3.4531 19.0322 2.9431 19.5122C2.6131 19.8022 2.5531 20.2622 2.7931 20.5822ZM25.7731 14.4022C26.2131 14.4022 26.5331 14.0422 26.4831 13.5722C25.9931 8.6922 24.3831 5.6922 21.6331 3.2122C21.2731 2.8722 20.7831 2.9522 20.5331 3.2622C20.2531 3.5522 20.2731 3.9922 20.6531 4.3622C23.0331 6.6422 24.6231 9.4322 25.0131 13.6122C25.0531 14.0622 25.3531 14.4022 25.7731 14.4022ZM8.2731 16.1222C7.9831 15.3322 7.5431 14.3522 7.5431 13.0522C7.5431 9.9622 9.9831 7.5122 13.0831 7.5122C14.2631 7.5122 14.6231 7.6322 15.6231 8.1022C16.0431 8.2922 16.4231 8.1722 16.5831 7.8522C16.7931 7.4722 16.6731 7.0122 16.2331 6.7522C15.4231 6.2722 14.2931 5.9622 13.0831 5.9622C9.1431 5.9622 5.9931 9.1122 5.9931 13.0522C5.9931 14.4922 6.3831 15.7422 6.7731 16.7122C6.9631 17.1722 7.3831 17.3622 7.8631 17.1822C8.2731 17.0122 8.4231 16.5722 8.2731 16.1222ZM17.5931 9.7822C18.6931 11.4422 19.2431 13.6722 19.2431 16.4622C19.2431 19.4622 18.4331 22.3022 17.1431 23.8822C16.8831 24.2222 16.8731 24.6922 17.1731 24.9722C17.5131 25.2822 18.0631 25.2522 18.3331 24.8922C19.8031 22.8822 20.7531 19.7222 20.7531 16.4322C20.7531 12.7122 19.9731 10.6922 18.9231 8.9622C18.6731 8.5322 18.1931 8.4022 17.8131 8.6022C17.4031 8.8122 17.2931 9.3322 17.5931 9.7822ZM8.2431 24.4022C10.2231 22.8022 11.3131 20.2622 11.2931 17.4622C11.2831 15.3422 10.5331 14.0422 10.5331 12.9122C10.5331 11.4622 11.5531 10.5022 13.0531 10.5022C15.2731 10.5022 16.1131 12.9822 16.1931 16.3622C16.3131 19.9722 15.0231 23.1422 13.2331 24.6922C12.9031 24.9722 12.8331 25.3922 13.0531 25.7322C13.3131 26.1122 13.8531 26.1822 14.2031 25.8522C16.1231 24.1022 17.6531 20.2822 17.6331 16.2522C17.6231 11.9722 16.3331 8.9622 13.0531 8.9622C10.7631 8.9622 9.0231 10.5122 9.0231 12.7722C9.0231 14.1522 9.7431 15.8222 9.7531 17.4622C9.7631 19.8022 8.8831 21.8922 7.2931 23.1922C6.9231 23.4822 6.8631 23.9222 7.1031 24.2722C7.3831 24.6522 7.8831 24.7022 8.2431 24.4022ZM1.5131 17.1522C1.9031 17.0422 2.1031 16.6322 1.9931 16.1622C1.6931 14.9622 1.5231 13.7922 1.5731 12.1522C1.5831 11.6922 1.3031 11.3922 0.9031 11.3522C0.4131 11.2922 0.0731 11.6122 0.0331 12.0722C-0.0669 13.4422 0.0431 14.9522 0.5131 16.6022C0.6431 17.0622 1.0831 17.2922 1.5131 17.1522ZM14.3131 18.7022C14.6231 17.0522 14.5131 15.0322 13.9231 13.2322C13.7631 12.7422 13.3631 12.5322 12.9431 12.6522C12.5331 12.7822 12.3031 13.1722 12.4331 13.6322C12.9731 15.3522 13.0631 16.9822 12.8131 18.4922C12.7231 18.9122 12.9131 19.3022 13.3831 19.3722C13.8331 19.4522 14.2231 19.1822 14.3131 18.7022ZM5.7231 22.8322C6.6431 22.3622 7.8131 20.8222 8.1731 19.6122C8.2831 19.2222 8.0831 18.7722 7.6931 18.6322C7.2931 18.4922 6.8831 18.7222 6.7231 19.1622C6.4131 20.1422 5.8731 20.8822 5.0331 21.4722C4.5831 21.7822 4.4931 22.1822 4.6331 22.5322C4.8031 22.9022 5.2531 23.0722 5.7231 22.8322ZM11.0531 25.3622C11.9931 24.6522 13.0631 23.2022 13.5631 21.7222C13.6931 21.3522 13.5731 20.8722 13.1531 20.7322C12.6831 20.5622 12.3031 20.8022 12.1431 21.1922C11.6031 22.5822 10.9231 23.4722 10.1131 24.1222C9.7731 24.3822 9.6831 24.8422 9.9131 25.1922C10.1331 25.5722 10.6631 25.6322 11.0531 25.3622Z" />
        </svg>
    