
        <svg xmlns="http://www.w3.org/2000/svg" viewBox="0 0 100 100">
            <path d="M1.1219 10.3592C1.6919 10.5692 2.2019 10.2792 2.4119 9.7392C4.2519 4.8192 8.5619 1.8492 13.5419 1.8492C15.6019 1.8492 17.1319 2.2392 18.5619 2.9292C19.1919 3.2192 19.7419 3.2192 20.0019 2.6692C20.2119 2.2292 20.0419 1.7792 19.5219 1.4792C17.6319 0.3492 15.8319 -0.0008 13.5419 -0.0008C7.6019 -0.0008 2.8119 3.2392 0.6219 8.8792C0.3619 9.5492 0.6119 10.1692 1.1219 10.3592ZM2.8919 21.3092C3.2119 21.7492 3.8319 21.8192 4.2619 21.4592C5.1719 20.6992 5.6619 19.4392 5.6619 18.0692C5.6619 16.3592 4.9319 15.4692 4.9319 13.4992C4.9319 8.7792 8.8019 4.8992 13.5319 4.8992C19.0919 4.8992 22.7619 9.4992 22.7719 16.4092C22.7719 19.2092 22.3019 21.0692 21.8919 22.0392C21.6919 22.5192 21.8619 23.0792 22.3019 23.2892C22.7819 23.5192 23.4019 23.2992 23.6019 22.7792C24.0419 21.6092 24.6219 19.4792 24.6219 16.3992C24.6219 8.4092 20.1919 3.0592 13.5319 3.0592C7.8019 3.0592 3.0919 7.7692 3.0919 13.4992C3.0919 15.4892 3.8519 16.8392 3.8619 18.0492C3.8619 18.8592 3.5519 19.5492 3.0719 20.0292C2.6919 20.4092 2.6119 20.9192 2.8919 21.3092ZM26.5619 15.0592C27.1019 15.0592 27.4719 14.6292 27.4319 14.0592C26.9719 9.0192 25.3219 6.0592 22.5119 3.3992C22.1019 3.0192 21.5019 3.0892 21.1719 3.4792C20.8319 3.8392 20.8919 4.3792 21.3119 4.7892C23.8019 7.2492 25.2819 10.0392 25.6419 14.1192C25.7119 14.6692 26.0619 15.0592 26.5619 15.0592ZM8.6919 16.4492C8.3919 15.6492 8.0119 14.7292 8.0119 13.5092C8.0119 10.4492 10.4719 7.9692 13.5419 7.9692C14.6919 7.9692 15.0419 8.0692 15.9919 8.4992C16.4919 8.7192 16.9419 8.5792 17.1419 8.1892C17.3919 7.7392 17.2619 7.1692 16.7319 6.8692C15.8919 6.3792 14.8319 6.1192 13.5419 6.1192C9.4719 6.1192 6.1519 9.4492 6.1519 13.5092C6.1519 14.8992 6.5319 16.2192 6.8819 17.1592C7.0919 17.7092 7.6419 17.9292 8.1919 17.7092C8.6819 17.5192 8.8719 16.9892 8.6919 16.4492ZM18.1419 10.3392C19.1819 12.0092 19.7319 14.1592 19.7319 16.9992C19.7319 20.0492 18.9119 22.9492 17.6119 24.5292C17.2919 24.9392 17.3119 25.4892 17.6519 25.8292C18.0619 26.1992 18.7119 26.1492 19.0319 25.7192C20.5919 23.6292 21.5619 20.3292 21.5619 16.9592C21.5619 13.0292 20.7319 11.1092 19.7319 9.3492C19.4419 8.8492 18.8519 8.6792 18.4119 8.9192C17.8919 9.1792 17.8119 9.8092 18.1419 10.3392ZM8.6719 25.2392C10.7119 23.5992 11.8719 20.9492 11.8619 18.0392C11.8319 15.8192 11.0719 14.4992 11.0719 13.3692C11.0719 11.9492 12.0619 11.0292 13.5319 11.0292C15.5819 11.0292 16.5119 13.2292 16.6119 16.9092C16.7419 20.4492 15.5019 23.7392 13.6319 25.3492C13.2419 25.6792 13.1619 26.1892 13.4219 26.5992C13.7319 27.0492 14.3819 27.1292 14.8019 26.7392C16.8519 24.8792 18.3719 20.8192 18.3519 16.7792C18.3419 12.0392 16.8119 9.1892 13.5319 9.1892C11.0619 9.1892 9.2419 10.8492 9.2419 13.2192C9.2419 14.6592 9.9819 16.3692 9.9919 18.0392C10.0219 20.4092 9.1319 22.4992 7.5219 23.7992C7.1119 24.1392 7.0319 24.6592 7.3019 25.0892C7.6419 25.5592 8.2519 25.6092 8.6719 25.2392ZM1.7319 17.8492C2.1919 17.6992 2.4419 17.2192 2.3219 16.6592C2.0119 15.4192 1.8519 14.3792 1.8819 12.7592C1.8819 12.2492 1.5619 11.8592 1.0919 11.7892C0.5119 11.7192 0.0719 12.0692 0.0219 12.6792C-0.0581 14.0992 0.0719 15.4892 0.5519 17.1792C0.7019 17.7292 1.2219 18.0092 1.7319 17.8492ZM14.9419 19.2892C15.2319 17.5292 15.1319 15.5392 14.5319 13.6492C14.3519 13.0792 13.8719 12.8192 13.3619 12.9892C12.8619 13.1292 12.6119 13.6092 12.7619 14.1292C13.2919 15.9092 13.3719 17.4492 13.1219 19.0092C13.0419 19.5192 13.3019 19.9892 13.8419 20.0892C14.3619 20.1792 14.8619 19.8392 14.9419 19.2892ZM6.0719 23.6392C7.0819 23.1292 8.2219 21.5892 8.6019 20.3792C8.7519 19.8892 8.5119 19.3592 8.0419 19.1992C7.5619 19.0292 7.0619 19.3092 6.8819 19.8292C6.5519 20.7492 6.0419 21.4492 5.2419 22.0192C4.7419 22.3692 4.5819 22.8392 4.7719 23.2692C4.9819 23.7392 5.5319 23.9192 6.0719 23.6392ZM11.5619 26.2292C12.5419 25.5092 13.5119 24.1492 14.0619 22.6992C14.2619 22.1792 14.0619 21.6092 13.5819 21.4592C13.0219 21.2592 12.5719 21.5492 12.3519 22.0692C11.8719 23.2192 11.2719 24.0492 10.4419 24.7392C10.0419 25.0692 9.9419 25.6192 10.2019 26.0292C10.4719 26.4592 11.1119 26.5592 11.5619 26.2292Z" />
        </svg>
    