
        <svg xmlns="http://www.w3.org/2000/svg" viewBox="0 0 100 100">
            <path d="M0.0023 12.8313C0.0023 15.6513 1.0323 18.0613 2.1323 19.9413C2.6523 20.8513 2.8723 21.5413 2.8723 22.3713V24.3213C2.8723 25.0713 3.4823 25.6913 4.2223 25.6913C4.9523 25.6913 5.5623 25.0713 5.5623 24.3213V23.4913H6.4723V24.3213C6.4723 25.0713 7.0823 25.6913 7.8323 25.6913C8.5623 25.6913 9.1723 25.0713 9.1723 24.3213V23.4913H9.9823V24.3213C9.9823 25.0713 10.5823 25.6913 11.3323 25.6913C12.0723 25.6913 12.6823 25.0713 12.6823 24.3213V23.4913H13.5323V24.3213C13.5323 25.0713 14.1523 25.6913 14.8923 25.6913C15.6423 25.6913 16.2523 25.0713 16.2523 24.3213V23.4913H17.0423V24.3213C17.0423 25.0713 17.6623 25.6913 18.4123 25.6913C19.1323 25.6913 19.7623 25.0713 19.7623 24.3213V23.4913H20.6523V24.3213C20.6523 25.0713 21.2723 25.6913 22.0123 25.6913C22.7423 25.6913 23.3623 25.0713 23.3623 24.3213V22.3913C23.3623 21.6213 23.6123 20.8313 24.2123 19.8213C25.2423 17.9413 26.2423 15.5713 26.2423 12.8313C26.2423 10.4613 25.3023 7.9613 24.1523 6.0913C23.1423 4.3212 22.6523 3.9112 22.6523 2.7613V1.7613C22.6523 0.8012 21.8623 0.0012 20.8923 0.0012C19.9523 0.0012 19.1523 0.8012 19.1523 1.7613V3.1612C19.1523 5.1013 19.5723 5.5213 20.7923 7.3212C21.7923 8.7913 22.6523 10.8413 22.6523 12.8313C22.6523 15.8113 21.1923 18.1313 19.3023 19.6213H6.9223C5.0523 18.1313 3.5823 15.8113 3.5823 12.8313C3.5823 10.8413 4.4423 8.7913 5.4523 7.3212C6.6723 5.5213 7.0923 5.1013 7.0923 3.1612V1.7613C7.0923 0.8012 6.2823 0.0012 5.3323 0.0012C4.3723 0.0012 3.5823 0.8012 3.5823 1.7613V2.7613C3.5823 3.9112 3.0923 4.3212 2.0823 6.0913C0.9423 7.9613 0.0023 10.4613 0.0023 12.8313ZM32.3123 15.0313C33.4123 15.0313 34.1023 14.4013 34.1623 13.2513L34.4023 6.9113C34.4623 5.6613 33.6223 4.8313 32.2923 4.8313C30.9523 4.8313 30.1023 5.6613 30.1623 6.9113L30.4423 13.2913C30.4923 14.4013 31.1923 15.0313 32.3123 15.0313ZM16.4323 17.9213C17.9623 17.9213 18.9423 16.9113 19.3123 15.6713C19.3823 15.4113 19.4223 15.1513 19.4223 14.9313C19.4223 14.3813 19.0423 13.8213 18.2623 13.8213C17.6223 13.8213 17.2723 14.1513 17.1523 14.7813C17.0423 15.4413 16.8423 15.8513 16.3723 15.8513C15.6223 15.8513 15.4223 13.9213 15.4223 12.8013C15.4223 10.8513 15.7123 9.7513 16.3723 9.7513C16.8323 9.7513 17.0323 10.2113 17.1423 10.8013C17.2623 11.5513 17.8023 11.8013 18.2823 11.8013C19.0323 11.8013 19.3723 11.2513 19.3723 10.6913C19.3723 10.4012 19.2923 10.0413 19.2423 9.8813C18.8523 8.5213 17.7523 7.6913 16.3523 7.6913C13.7423 7.6913 12.9623 10.3613 12.9623 12.8013C12.9623 15.4213 13.8323 17.9213 16.4323 17.9213ZM9.8623 17.8313C10.6423 17.8313 11.0723 17.3013 11.0723 16.5513V9.9813H11.8123C12.4223 9.9813 12.9123 9.6313 12.9123 8.9413C12.9123 8.2413 12.3723 7.9113 11.8123 7.9113H7.9223C7.3923 7.9113 6.8223 8.2313 6.8223 8.9413C6.8223 9.6013 7.3023 9.9813 7.9223 9.9813H8.6623V16.5513C8.6623 17.3113 9.0923 17.8313 9.8623 17.8313ZM32.3123 20.8013C33.6323 20.8013 34.5423 19.9313 34.5423 18.7113C34.5423 17.5113 33.6323 16.6513 32.3123 16.6513C30.9723 16.6513 30.0323 17.5113 30.0323 18.7113C30.0323 19.9313 30.9723 20.8013 32.3123 20.8013Z" />
        </svg>
    