
        <svg xmlns="http://www.w3.org/2000/svg" viewBox="0 0 100 100">
            <path d="M21.9659 22.6314C22.1259 22.7914 22.3959 22.7914 22.5759 22.6314C22.7559 22.4514 22.7459 22.1814 22.5759 22.0114L0.7459 0.1314C0.5859 -0.0286 0.3159 -0.0586 0.1359 0.1314C-0.0441 0.2914 -0.0441 0.5714 0.1359 0.7414ZM20.3259 18.2814C21.5459 16.6714 22.5859 14.6114 22.5859 11.7614C22.5859 9.0614 21.6159 6.4314 20.0259 4.2714C19.5159 3.5714 19.4259 3.4414 19.4259 2.8814V0.9614C19.4259 0.7414 19.2359 0.5414 18.9959 0.5414C18.7759 0.5414 18.5659 0.7414 18.5659 0.9614V2.9214C18.5659 3.8414 18.8859 4.1814 19.3159 4.7614C20.7659 6.7614 21.7159 9.2114 21.7159 11.7614C21.7159 14.2414 20.8859 16.1114 19.5759 17.5414ZM3.8859 22.6514C4.1059 22.6514 4.3159 22.4414 4.3159 22.2214V21.4714H6.5159V22.2214C6.5159 22.4414 6.7259 22.6514 6.9559 22.6514C7.1859 22.6514 7.3759 22.4414 7.3759 22.2214V21.4714H9.4459V22.2214C9.4459 22.4414 9.6559 22.6514 9.8859 22.6514C10.1159 22.6514 10.3059 22.4414 10.3059 22.2214V21.4714H12.3759V22.2214C12.3759 22.4414 12.5859 22.6514 12.8159 22.6514C13.0359 22.6514 13.2459 22.4414 13.2459 22.2214V21.4714H15.3059V22.2214C15.3059 22.4414 15.5059 22.6514 15.7459 22.6514C15.9659 22.6514 16.1659 22.4414 16.1659 22.2214V21.4714H18.6859L16.3759 19.1614H5.0259C2.7059 17.6114 1.0059 15.3014 1.0059 11.7614C1.0059 9.4114 1.8059 7.1114 3.1059 5.1914L2.4759 4.5814C1.0059 6.6714 0.1459 9.2014 0.1459 11.7614C0.1459 14.8114 1.3259 16.9514 2.6559 18.6114C3.1759 19.3014 3.4559 19.8814 3.4559 20.6614V22.2214C3.4559 22.4414 3.6459 22.6514 3.8859 22.6514ZM14.9259 7.3514C16.1259 7.3514 16.9859 8.2514 17.2259 9.5614C17.2659 9.7814 17.4059 9.9214 17.6259 9.9214C17.8759 9.9214 18.0159 9.7514 18.0159 9.5414C18.0159 9.4514 17.9959 9.2914 17.9559 9.1514C17.6559 7.6514 16.3859 6.5814 14.9259 6.5814C13.0559 6.5814 12.0459 7.9314 11.6659 9.6014L12.3659 10.3114C12.5959 8.7014 13.3459 7.3514 14.9259 7.3514ZM7.8159 16.5214C8.0759 16.5214 8.2259 16.3314 8.2259 16.0814V10.3314L7.3859 9.4814V16.0814C7.3859 16.3514 7.5459 16.5214 7.8159 16.5214Z" />
        </svg>
    