
        <svg xmlns="http://www.w3.org/2000/svg" viewBox="0 0 100 100">
            <path d="M0.0017 15.0139C0.0017 17.4039 1.2117 18.5939 3.6317 18.5939H26.2217C30.1217 18.5939 32.1417 16.3239 32.1417 13.6439C32.1417 12.0039 31.4017 10.2139 29.8217 8.6639L25.0317 3.9039C21.9917 0.9039 20.0417 0.0039 16.4517 0.0039H3.6317C1.2117 0.0039 0.0017 1.1939 0.0017 3.5839ZM12.4017 9.4439V5.1339C12.4017 4.4339 12.8117 4.0239 13.5117 4.0239H16.7217C20.0617 4.0239 21.6317 4.4539 23.3017 6.0939L25.9917 8.7739C26.7317 9.5139 26.3017 10.5239 25.5017 10.5239H13.5117C12.8117 10.5239 12.4017 10.1139 12.4017 9.4439Z" />
        </svg>
    