
        <svg xmlns="http://www.w3.org/2000/svg" viewBox="0 0 100 100">
            <path d="M0.0017 15.1497C0.0017 17.6497 1.3117 18.9497 3.8317 18.9497H26.6217C30.5617 18.9497 32.6917 16.6897 32.6917 13.8797C32.6917 12.1797 31.9117 10.3497 30.3017 8.7497L25.4917 3.9697C22.3917 0.9097 20.4017 -0.0003 16.7417 -0.0003H3.8317C1.3117 -0.0003 0.0017 1.2997 0.0017 3.7997ZM12.8417 9.5497V5.3397C12.8417 4.6797 13.2417 4.2797 13.9117 4.2797H16.8117C20.2117 4.2797 21.6717 4.7097 23.3117 6.3397L25.9017 8.9097C26.6017 9.6097 26.2017 10.6097 25.4417 10.6097H13.9117C13.2417 10.6097 12.8417 10.1997 12.8417 9.5497Z" />
        </svg>
    