
        <svg xmlns="http://www.w3.org/2000/svg" viewBox="0 0 100 100">
            <path d="M0.0017 15.2497C0.0017 17.7097 1.2417 18.9497 3.7417 18.9497H25.9917C28.4917 18.9497 29.7317 17.7097 29.7317 15.2497V3.6997C29.7317 1.2397 28.4917 -0.0003 25.9917 -0.0003H6.6217C4.5917 -0.0003 3.3717 1.1697 2.7417 3.0597L0.4317 10.0797C0.1017 11.0497 0.0017 11.7797 0.0017 12.6997ZM11.9617 9.2597V5.6397C11.9617 4.9697 12.3617 4.5797 13.0317 4.5797H23.4617C24.1317 4.5797 24.5417 4.9697 24.5417 5.6397V9.2597C24.5417 9.8997 24.1317 10.3097 23.4617 10.3097H13.0317C12.3617 10.3097 11.9617 9.8997 11.9617 9.2597ZM4.7717 10.3097C4.1117 10.3097 3.7617 9.7697 4.0417 8.9297L5.1917 5.4097C5.3717 4.8797 5.6217 4.5797 6.4417 4.5797H7.7017C8.3717 4.5797 8.7817 4.9697 8.7817 5.6397V9.2597C8.7817 9.8997 8.3717 10.3097 7.7017 10.3097Z" />
        </svg>
    