
        <svg xmlns="http://www.w3.org/2000/svg" viewBox="0 0 100 100">
            <path d="M12.7923 25.5961C19.8723 25.5961 25.6023 19.8661 25.6023 12.7961C25.6023 5.7261 19.8723 -0.0039 12.7923 -0.0039C5.7323 -0.0039 0.0023 5.7261 0.0023 12.7961C0.0023 19.8661 5.7323 25.5961 12.7923 25.5961ZM7.6023 15.3361V11.3461C7.6023 9.9061 7.6723 9.3561 7.8123 8.6561C8.1723 6.8461 8.9523 6.0361 10.6623 5.7561C11.2023 5.6561 11.9423 5.6261 12.7923 5.6261C13.6523 5.6261 14.4023 5.6561 14.9423 5.7561C16.6523 6.0361 17.4423 6.8461 17.7923 8.6561C17.9323 9.3561 18.0023 9.9061 18.0023 11.3461V15.3361C18.0023 16.6361 17.3223 17.4361 16.1223 17.5861L17.0823 19.1361C17.3123 19.4961 17.0823 19.9461 16.6523 19.9461H16.3223C16.1023 19.9461 15.9723 19.8661 15.8423 19.6661L15.5823 19.2561H9.8523L9.6023 19.6661C9.4823 19.8661 9.3423 19.9461 9.1023 19.9461H8.6523C8.2223 19.9461 8.1223 19.4961 8.2923 19.2161L9.3323 17.5561C8.2423 17.3661 7.6023 16.5961 7.6023 15.3361ZM10.9423 7.4761C10.9423 7.7861 11.1723 8.0061 11.4623 8.0061H14.1423C14.4423 8.0061 14.6723 7.7861 14.6723 7.4761C14.6723 7.1761 14.4423 6.9461 14.1423 6.9461H11.4623C11.1723 6.9461 10.9423 7.1761 10.9423 7.4761ZM9.4123 13.0761C9.4123 13.4661 9.6523 13.7261 10.0423 13.7661C10.5623 13.8261 11.4823 13.8761 12.7923 13.8961C14.0623 13.8861 15.0123 13.8361 15.5623 13.7661C15.9523 13.7261 16.1923 13.4661 16.1923 13.0761V11.6761C16.1923 10.7061 16.0623 9.7861 16.0323 9.5061C15.9823 9.1861 15.7423 8.9561 15.4323 8.9261C14.8823 8.8561 14.0523 8.8261 12.7923 8.8161C11.5323 8.8361 10.7023 8.8561 10.1723 8.9261C9.8523 8.9561 9.6123 9.1861 9.5723 9.5061C9.5423 9.7861 9.4123 10.7061 9.4123 11.6761ZM14.6023 15.4661C14.6023 15.8861 14.9223 16.2061 15.3623 16.2061C15.7623 16.2061 16.0923 15.8861 16.0923 15.4661C16.0923 15.0461 15.7823 14.7461 15.3623 14.7461C14.9223 14.7461 14.6023 15.0461 14.6023 15.4661ZM9.5123 15.4661C9.5123 15.8861 9.8223 16.2061 10.2423 16.2061C10.6723 16.2061 11.0023 15.8861 11.0023 15.4661C11.0023 15.0461 10.6923 14.7461 10.2423 14.7461C9.8323 14.7461 9.5123 15.0461 9.5123 15.4661ZM10.5623 18.1061H14.8723L14.5523 17.6161H10.8723Z" />
        </svg>
    