
        <svg xmlns="http://www.w3.org/2000/svg" viewBox="0 0 100 100">
            <path d="M12.3723 24.7542C19.2023 24.7542 24.7523 19.2042 24.7523 12.3742C24.7523 5.5442 19.2023 0.0042 12.3723 0.0042C5.5423 0.0042 0.0023 5.5442 0.0023 12.3742C0.0023 19.2042 5.5423 24.7542 12.3723 24.7542ZM7.3123 15.1942V11.0942C7.3123 9.5942 7.4523 8.5542 7.6323 7.7142C7.9323 6.3142 8.6623 5.5442 10.0323 5.3442C10.4923 5.2742 11.3523 5.2142 12.3723 5.2142C13.4023 5.2142 14.2623 5.2742 14.7223 5.3442C16.0923 5.5442 16.8323 6.3142 17.1223 7.7142C17.3123 8.5542 17.4523 9.5942 17.4523 11.0942V15.1942C17.4523 16.4142 16.8023 17.1142 15.5623 17.1842L16.6723 18.9842C16.8623 19.3042 16.7023 19.6542 16.3523 19.6542H16.0223C15.8223 19.6542 15.7023 19.5942 15.6023 19.4142L15.2923 18.9342H9.3823L9.0923 19.4142C8.9923 19.5942 8.8723 19.6542 8.6623 19.6542H8.2823C7.9323 19.6542 7.8023 19.3042 7.9723 19.0342L9.1323 17.1642C7.9723 17.0742 7.3123 16.4342 7.3123 15.1942ZM10.5123 6.8742C10.5123 7.1342 10.7023 7.3242 10.9523 7.3242H13.8023C14.0523 7.3242 14.2523 7.1342 14.2523 6.8742C14.2523 6.6242 14.0523 6.4442 13.8023 6.4442H10.9523C10.7023 6.4442 10.5123 6.6242 10.5123 6.8742ZM8.8123 12.6242C8.8123 12.9742 9.0123 13.2142 9.3723 13.2642C9.9523 13.3242 11.0423 13.3842 12.3723 13.3942C13.5323 13.3942 14.6323 13.3442 15.3823 13.2642C15.7523 13.2142 15.9423 12.9742 15.9423 12.6242V11.2242C15.9423 10.1642 15.8123 9.2242 15.7523 8.8742C15.6923 8.5742 15.4923 8.3642 15.2123 8.3442C14.6023 8.2742 13.7823 8.2242 12.3723 8.2242C10.9723 8.2242 10.1323 8.2742 9.5423 8.3442C9.2623 8.3642 9.0623 8.5742 9.0023 8.8742C8.9423 9.2242 8.8123 10.1642 8.8123 11.2242ZM14.2223 15.1042C14.2223 15.5542 14.5623 15.8742 15.0123 15.8742C15.4423 15.8742 15.7823 15.5542 15.7823 15.1042C15.7823 14.6642 15.4523 14.3342 15.0123 14.3342C14.5623 14.3342 14.2223 14.6642 14.2223 15.1042ZM8.9623 15.1042C8.9623 15.5542 9.2923 15.8742 9.7423 15.8742C10.1823 15.8742 10.5123 15.5542 10.5123 15.1042C10.5123 14.6642 10.1823 14.3342 9.7423 14.3342C9.3023 14.3342 8.9623 14.6642 8.9623 15.1042ZM10.0123 17.9142H14.6623L14.2123 17.2042H10.4623Z" />
        </svg>
    