
        <svg xmlns="http://www.w3.org/2000/svg" viewBox="0 0 100 100">
            <path d="M12.1023 24.2147C18.7823 24.2147 24.2123 18.7847 24.2123 12.1047C24.2123 5.4247 18.7823 0.0047 12.1023 0.0047C5.4223 0.0047 0.0023 5.4247 0.0023 12.1047C0.0023 18.7847 5.4223 24.2147 12.1023 24.2147ZM7.1123 15.1147V10.9347C7.1123 9.3947 7.3023 8.0347 7.5223 7.1147C7.7823 5.9747 8.4823 5.2247 9.6323 5.0847C10.0323 5.0247 10.9823 4.9547 12.1023 4.9547C13.2423 4.9547 14.1823 5.0247 14.5823 5.0847C15.7423 5.2247 16.4323 5.9747 16.7023 7.1147C16.9123 8.0347 17.1023 9.3947 17.1023 10.9347V15.1147C17.1023 16.2747 16.4623 16.8947 15.2023 16.9347L16.4223 18.8947C16.5823 19.1747 16.4423 19.4647 16.1523 19.4647H15.8223C15.6323 19.4647 15.5323 19.4147 15.4423 19.2547L15.1023 18.7347H9.0923L8.7523 19.2547C8.6723 19.4147 8.5623 19.4647 8.3823 19.4647H8.0423C7.7323 19.4647 7.6023 19.1747 7.7723 18.9147L9.0123 16.9247C7.7923 16.8747 7.1123 16.3247 7.1123 15.1147ZM10.2423 6.4947C10.2423 6.7147 10.4023 6.8947 10.6323 6.8947H13.5823C13.8023 6.8947 13.9823 6.7147 13.9823 6.4947C13.9823 6.2547 13.8023 6.1147 13.5823 6.1147H10.6323C10.4023 6.1147 10.2423 6.2547 10.2423 6.4947ZM8.4223 12.3147C8.4223 12.6647 8.5923 12.8947 8.9423 12.9347C9.5623 13.0047 10.7423 13.0647 12.1023 13.0747C13.1923 13.0747 14.3923 13.0347 15.2723 12.9347C15.6223 12.8947 15.7823 12.6647 15.7823 12.3147V10.9547C15.7823 9.8047 15.6423 8.8547 15.5623 8.4647C15.5023 8.1947 15.3323 8.0047 15.0623 7.9647C14.4223 7.8947 13.6023 7.8447 12.1023 7.8447C10.6023 7.8547 9.7823 7.8947 9.1423 7.9647C8.8723 8.0047 8.7023 8.1947 8.6523 8.4647C8.5623 8.8547 8.4223 9.8047 8.4223 10.9547ZM13.9923 14.8747C13.9923 15.3247 14.3423 15.6747 14.8023 15.6747C15.2323 15.6747 15.6023 15.3247 15.6023 14.8747C15.6023 14.4147 15.2423 14.0747 14.8023 14.0747C14.3423 14.0747 13.9923 14.4147 13.9923 14.8747ZM8.6223 14.8747C8.6223 15.3447 8.9523 15.6647 9.4123 15.6647C9.8523 15.6647 10.2023 15.3447 10.2023 14.8747C10.2023 14.4147 9.8623 14.0747 9.4123 14.0747C8.9523 14.0747 8.6223 14.4147 8.6223 14.8747ZM9.6723 17.8047H14.5323L13.9923 16.9347H10.2023Z" />
        </svg>
    