
        <svg xmlns="http://www.w3.org/2000/svg" viewBox="0 0 100 100">
            <path d="M0.0827 19.0594C-0.2673 20.5694 0.5127 21.5594 2.0527 21.5594H10.7627V24.6194C10.7627 24.8094 10.8727 24.9294 11.0627 24.9294C11.2127 24.9294 11.3327 24.8094 11.3327 24.6194V21.5594H20.0527C21.5727 21.5594 22.3727 20.5694 22.0127 19.0594L18.8027 5.4294C18.4727 4.0694 17.6127 3.3494 16.1927 3.3494H11.3327V0.3094C11.3327 0.1194 11.2127 -0.0006 11.0627 -0.0006C10.8727 -0.0006 10.7627 0.1194 10.7627 0.3094V3.3494H5.9027C4.4727 3.3494 3.6327 4.0694 3.3027 5.4294ZM0.6327 19.0294L3.8727 5.4794C4.1027 4.4694 4.7427 3.9394 5.9027 3.9394H10.7627V20.9894H2.0527C0.9127 20.9894 0.3427 20.1994 0.6327 19.0294ZM16.1827 3.9394C17.3427 3.9394 17.9927 4.4694 18.2327 5.4794L21.4727 19.0294C21.7527 20.1994 21.1727 20.9894 20.0527 20.9894H11.3327V3.9394Z" />
        </svg>
    