
        <svg xmlns="http://www.w3.org/2000/svg" viewBox="0 0 100 100">
            <path d="M4.1417 22.4034H18.2717C20.9517 22.4034 22.4017 20.9534 22.4017 18.2934V4.1134C22.4017 1.4534 20.9517 0.0034 18.2717 0.0034H4.1417C1.4617 0.0034 0.0017 1.4534 0.0017 4.1134V18.2934C0.0017 20.9534 1.4617 22.4034 4.1417 22.4034ZM4.4617 19.3834C3.5317 19.3834 3.0217 18.9234 3.0217 17.9134V4.4734C3.0217 3.4834 3.5317 3.0234 4.4617 3.0234H17.9417C18.8817 3.0234 19.3817 3.4834 19.3817 4.4734V17.9134C19.3817 18.9234 18.8817 19.3834 17.9417 19.3834ZM8.5517 17.7434H13.8717C14.8017 17.7434 15.3317 17.2634 15.3717 16.3434L15.7617 7.9334H16.4917C16.8717 7.9334 17.1517 7.6634 17.1517 7.2934C17.1717 6.9034 16.8717 6.6434 16.4917 6.6434H14.0617V5.9434C14.0617 4.9234 13.3817 4.2734 12.2017 4.2734H10.2217C9.0517 4.2734 8.3517 4.9234 8.3517 5.9434V6.6434H5.9317C5.5517 6.6434 5.2617 6.9034 5.2517 7.2934C5.2517 7.6634 5.5517 7.9334 5.9317 7.9334H6.6817L7.0517 16.3434C7.1017 17.2634 7.6317 17.7434 8.5517 17.7434ZM9.7217 6.6434L9.7417 5.9534C9.7417 5.6834 9.9517 5.4934 10.2417 5.4934H12.1617C12.4717 5.4934 12.6717 5.6834 12.6817 5.9534L12.6917 6.6434ZM9.2917 15.9834C9.0517 15.9834 8.8617 15.8234 8.8517 15.5634L8.6517 9.2334C8.6417 8.9534 8.8117 8.7734 9.0917 8.7734C9.3517 8.7734 9.5417 8.9534 9.5417 9.2234L9.7417 15.5534C9.7517 15.8134 9.5717 15.9834 9.2917 15.9834ZM11.2017 15.9834C10.9317 15.9834 10.7617 15.8134 10.7617 15.5534V9.2134C10.7617 8.9434 10.9217 8.7734 11.2017 8.7734C11.4817 8.7734 11.6617 8.9434 11.6617 9.2134V15.5534C11.6617 15.8134 11.4817 15.9834 11.2017 15.9834ZM13.1117 15.9834C12.8417 15.9834 12.6717 15.8134 12.6717 15.5534L12.8717 9.2234C12.8817 8.9534 13.0617 8.7734 13.3217 8.7734C13.6017 8.7734 13.7717 8.9534 13.7617 9.2334L13.5617 15.5634C13.5517 15.8234 13.3717 15.9834 13.1117 15.9834Z" />
        </svg>
    