
        <svg xmlns="http://www.w3.org/2000/svg" viewBox="0 0 100 100">
            <path d="M20.51 18.6836L21.06 6.9636H22.27C22.92 6.9636 23.43 6.4736 23.43 5.8136C23.43 5.1636 22.92 4.6736 22.27 4.6736H17.16V2.9536C17.16 1.0936 15.98 0.0036 13.94 0.0036H9.48C7.43 0.0036 6.26 1.0936 6.26 2.9536V4.1036H5.94L11.14 9.2936V8.8636C11.28 8.7336 11.49 8.6636 11.72 8.6636C12.26 8.6636 12.64 9.0036 12.64 9.5236V10.7836L14.7 12.8436L14.79 9.5236C14.82 9.0036 15.18 8.6636 15.71 8.6636C16.27 8.6636 16.62 9.0036 16.61 9.5436L16.46 14.6136ZM21.79 25.0036C22.16 25.3836 22.78 25.3836 23.15 25.0036C23.51 24.6336 23.52 24.0236 23.15 23.6636L1.64 2.1436C1.27 1.7736 0.65 1.7736 0.27 2.1436C-0.09 2.5036 -0.09 3.1336 0.27 3.4936ZM8.65 4.6736V3.0436C8.65 2.4836 9.04 2.1336 9.65 2.1336H13.76C14.38 2.1336 14.77 2.4836 14.77 3.0436V4.6736ZM6.33 26.7236H17.11C18.28 26.7236 19.2 26.2336 19.7 25.4536V25.2736L16.21 21.7736L16.2 22.3336C16.14 22.7736 15.79 23.0236 15.33 23.0236C14.77 23.0236 14.42 22.6736 14.43 22.1436L14.48 20.0536L12.64 18.2036V22.1636C12.64 22.6836 12.26 23.0236 11.72 23.0236C11.17 23.0236 10.81 22.6836 10.81 22.1636V16.3736L8.78 14.3436L9.01 22.1436C9.03 22.6736 8.66 23.0236 8.11 23.0236C7.57 23.0236 7.21 22.6836 7.19 22.1636L6.92 12.4936L2.43 7.9936L3.16 23.7336C3.25 25.6136 4.42 26.7236 6.33 26.7236Z" />
        </svg>
    