
        <svg xmlns="http://www.w3.org/2000/svg" viewBox="0 0 100 100">
            <path d="M6.177 26.4495H16.947C18.737 26.4495 19.897 25.3595 19.977 23.5595L20.777 6.6695H22.067C22.657 6.6695 23.107 6.2195 23.107 5.6395C23.107 5.0595 22.657 4.6195 22.067 4.6195H16.847V2.8595C16.847 1.0695 15.717 -0.0005 13.767 -0.0005H9.317C7.387 -0.0005 6.237 1.0695 6.237 2.8595V4.6195H1.027C0.467 4.6195 -0.003 5.0595 -0.003 5.6395C-0.003 6.2195 0.467 6.6695 1.027 6.6695H2.337L3.127 23.5695C3.207 25.3695 4.357 26.4495 6.177 26.4495ZM8.387 2.9695C8.387 2.3595 8.817 1.9695 9.467 1.9695H13.617C14.277 1.9695 14.697 2.3595 14.697 2.9695V4.6195H8.387ZM7.957 22.8195C7.457 22.8195 7.127 22.5095 7.097 22.0195L6.747 9.2695C6.737 8.7795 7.067 8.4595 7.587 8.4595C8.067 8.4595 8.417 8.7695 8.427 9.2695L8.787 22.0095C8.817 22.4895 8.477 22.8195 7.957 22.8195ZM11.557 22.8195C11.047 22.8195 10.697 22.4995 10.697 22.0195V9.2695C10.697 8.7795 11.047 8.4595 11.557 8.4595C12.057 8.4595 12.407 8.7795 12.407 9.2695V22.0195C12.407 22.4995 12.057 22.8195 11.557 22.8195ZM15.157 22.8195C14.637 22.8195 14.297 22.4995 14.307 22.0095L14.687 9.2695C14.697 8.7795 15.037 8.4595 15.527 8.4595C16.047 8.4595 16.367 8.7795 16.357 9.2695L15.997 22.0195C15.977 22.5095 15.647 22.8195 15.157 22.8195Z" />
        </svg>
    