
        <svg xmlns="http://www.w3.org/2000/svg" viewBox="0 0 100 100">
            <path d="M12.6023 25.1969C19.5623 25.1969 25.2023 19.5569 25.2023 12.5969C25.2023 5.6369 19.5623 -0.0031 12.6023 -0.0031C5.6523 -0.0031 0.0023 5.6369 0.0023 12.5969C0.0023 19.5569 5.6523 25.1969 12.6023 25.1969ZM9.9723 19.3969C8.9223 19.3969 8.3223 18.8569 8.2723 17.7969L7.8723 9.3269H7.1923C6.7423 9.3269 6.3623 9.0069 6.3823 8.5569C6.4123 8.0969 6.7423 7.7769 7.1923 7.7769H9.5523V7.1869C9.5523 6.0569 10.3223 5.3669 11.6623 5.3669H13.5323C14.8823 5.3669 15.6423 6.0569 15.6423 7.1869V7.7769H18.0023C18.4823 7.7769 18.8223 8.0969 18.8123 8.5569C18.8123 9.0069 18.4823 9.3269 18.0023 9.3269H17.3423L16.9423 17.7969C16.8823 18.8569 16.3023 19.3969 15.2323 19.3969ZM11.1323 7.7769H14.0723V7.1669C14.0723 6.9069 13.8523 6.7169 13.5323 6.7169H11.6723C11.3623 6.7169 11.1323 6.9069 11.1323 7.1669ZM10.6123 17.5569C10.9223 17.5569 11.1223 17.3469 11.1123 17.0669L10.9223 10.6169C10.9123 10.3169 10.7123 10.1269 10.4323 10.1269C10.1123 10.1269 9.9223 10.3269 9.9423 10.6369L10.1323 17.0769C10.1523 17.3569 10.3323 17.5569 10.6123 17.5569ZM12.6123 17.5469C12.9123 17.5469 13.1023 17.3569 13.1023 17.0769V10.6069C13.1023 10.2969 12.9123 10.1269 12.6123 10.1269C12.2923 10.1269 12.1123 10.2969 12.1123 10.6069V17.0769C12.1123 17.3569 12.2923 17.5469 12.6123 17.5469ZM14.5923 17.5569C14.8623 17.5569 15.0623 17.3569 15.0723 17.0769L15.2723 10.6369C15.2723 10.3269 15.0923 10.1269 14.7923 10.1269C14.4923 10.1269 14.2923 10.3169 14.2823 10.6169L14.1023 17.0669C14.0823 17.3469 14.2823 17.5569 14.5923 17.5569Z" />
        </svg>
    