
        <svg xmlns="http://www.w3.org/2000/svg" viewBox="0 0 100 100">
            <path d="M3.0117 20.4942H17.4917C19.4517 20.4942 20.5117 19.4142 20.5117 17.4842V3.0042C20.5117 1.0642 19.4517 0.0042 17.4917 0.0042H3.0117C1.0417 0.0042 0.0017 1.0442 0.0017 3.0042V17.4842C0.0017 19.4542 1.0417 20.4942 3.0117 20.4942ZM3.0317 19.9242C1.4217 19.9242 0.5717 19.0742 0.5717 17.4642V3.0342C0.5717 1.4042 1.4217 0.5742 3.0317 0.5742H17.4617C19.0317 0.5742 19.9317 1.4042 19.9317 3.0342V17.4642C19.9317 19.0742 19.0317 19.9242 17.4617 19.9242ZM14.6417 13.4642L15.0317 5.8642H16.1817C16.3517 5.8642 16.4717 5.7442 16.4717 5.5742C16.4717 5.4342 16.3517 5.3042 16.1817 5.3042H12.9717V4.1642C12.9717 3.4442 12.4117 2.8942 11.5617 2.8942H9.0217C8.1917 2.8942 7.6417 3.4442 7.6417 4.1642V5.3242H6.5017L9.9217 8.7542V7.6942C9.9217 7.5242 10.0317 7.4142 10.2217 7.4142C10.4217 7.4142 10.5217 7.5242 10.5217 7.6942V9.3542L12.1317 10.9542L12.3317 7.6742C12.3417 7.5042 12.4617 7.4142 12.6317 7.4142C12.8317 7.4142 12.9617 7.5342 12.9517 7.7142L12.6817 11.5042ZM8.1717 5.3042V4.2042C8.1717 3.7742 8.4917 3.4842 8.9717 3.4842H11.4917C12.0017 3.4842 12.3317 3.7742 12.3317 4.2042V5.3042ZM15.5417 15.9242C15.6517 16.0442 15.8417 16.0542 15.9617 15.9242C16.0817 15.7942 16.0817 15.6242 15.9617 15.4942L4.8617 4.3842C4.7417 4.2642 4.5517 4.2642 4.4317 4.3842C4.3017 4.5142 4.3117 4.6842 4.4317 4.8042ZM7.3817 17.1642H13.2317C13.9117 17.1642 14.4717 16.6442 14.5117 15.9842L14.5217 15.6242L12.5317 13.6142L12.4217 15.0842C12.4017 15.2442 12.3117 15.3542 12.1517 15.3542C11.9517 15.3542 11.8717 15.2242 11.8817 15.0442L12.0117 13.1042L10.5217 11.6142V15.0442C10.5217 15.2142 10.3817 15.3242 10.2217 15.3242C10.0517 15.3242 9.9217 15.2142 9.9217 15.0442V11.0142L8.2117 9.2942L8.5617 15.0442C8.5817 15.2242 8.4817 15.3542 8.3017 15.3542C8.1317 15.3542 8.0417 15.2442 8.0317 15.0842L7.5617 8.6442L5.6417 6.7142L6.1217 15.9942C6.1417 16.6542 6.7017 17.1642 7.3817 17.1642Z" />
        </svg>
    