
        <svg xmlns="http://www.w3.org/2000/svg" viewBox="0 0 100 100">
            <path d="M3.9717 27.0127H24.0517C26.6417 27.0127 28.0217 25.6527 28.0217 23.2027V7.7727C28.0217 6.5027 27.8317 5.7027 27.0217 5.0627L22.9817 1.5727C21.5717 0.4027 20.5317 0.0027 18.7717 0.0027H9.2417C7.4917 0.0027 6.4417 0.4027 5.0417 1.5727L0.9917 5.0627C0.1917 5.7027 0.0017 6.5027 0.0017 7.7727V23.2027C0.0017 25.6627 1.3817 27.0127 3.9717 27.0127ZM14.0117 10.3227C12.4817 10.3227 11.5517 9.0227 11.5517 7.8127V7.7727C11.5517 7.3227 11.2717 6.9127 10.6517 6.9127H3.0517C2.7217 6.9127 2.6517 6.5827 2.8817 6.3827L6.9217 2.9027C7.5517 2.3527 7.9617 2.1327 8.8917 2.1327H19.1217C20.0617 2.1327 20.4817 2.3527 21.0917 2.9027L25.1517 6.3827C25.3817 6.5827 25.3117 6.9127 24.9817 6.9127H17.3717C16.7417 6.9127 16.4717 7.3227 16.4717 7.7727V7.8127C16.4717 9.0227 15.5417 10.3227 14.0117 10.3227ZM14.0117 12.7127C16.3717 12.7127 18.1717 11.2027 18.6117 9.1827H25.4617V14.0927C25.4617 15.1727 24.9017 15.6927 23.8817 15.6927H4.1517C3.1217 15.6927 2.5617 15.1727 2.5617 14.0927V9.1827H9.4217C9.8417 11.2127 11.6617 12.7127 14.0117 12.7127ZM3.9717 18.1027H9.4217C9.8417 20.1227 11.6617 21.6327 14.0117 21.6327C16.3717 21.6327 18.1717 20.1327 18.6117 18.1027H24.0517C24.1317 18.1027 24.2217 18.1027 24.2917 18.0927H25.4617V23.0127C25.4617 24.0927 24.9017 24.6127 23.8817 24.6127H4.1517C3.1217 24.6127 2.5617 24.0927 2.5617 23.0127V18.0927H3.7217C3.8117 18.1027 3.8917 18.1027 3.9717 18.1027ZM14.0117 19.2427C13.0917 19.2427 12.3917 18.7627 11.9617 18.1027H16.0517C15.6417 18.7627 14.9317 19.2427 14.0117 19.2427Z" />
        </svg>
    