
        <svg xmlns="http://www.w3.org/2000/svg" viewBox="0 0 100 100">
            <path d="M13.8117 15.9822C14.3217 15.9822 14.7517 15.5722 14.7517 15.0822V4.3222L14.6717 2.5822L15.3417 3.2722L17.1417 5.2022C17.3117 5.3922 17.5517 5.4822 17.7817 5.4822C18.2717 5.4822 18.6317 5.1322 18.6317 4.6522C18.6317 4.4022 18.5417 4.2222 18.3617 4.0422L14.4917 0.3122C14.2617 0.0822 14.0617 0.0022 13.8117 0.0022C13.5817 0.0022 13.3717 0.0822 13.1417 0.3122L9.2717 4.0422C9.0917 4.2222 9.0017 4.4022 9.0017 4.6522C9.0017 5.1322 9.3517 5.4822 9.8417 5.4822C10.0617 5.4822 10.3217 5.3922 10.4917 5.2022L12.2917 3.2722L12.9617 2.5622L12.8917 4.3222V15.0822C12.8917 15.5722 13.3117 15.9822 13.8117 15.9822ZM16.9417 7.6322V9.2822H18.9917C19.8517 9.2822 20.5117 9.5622 21.0817 10.2922L25.4417 15.7822C25.6317 16.0322 25.5617 16.3622 25.1717 16.3622H17.4417C16.8317 16.3622 16.5517 16.8322 16.5517 17.3122V17.3522C16.5517 18.7122 15.4817 20.1422 13.8117 20.1422C12.1617 20.1422 11.1017 18.7122 11.1017 17.3522V17.3122C11.1017 16.8322 10.8017 16.3622 10.1917 16.3622H2.4717C2.0817 16.3622 2.0017 16.0322 2.2017 15.7822L6.5517 10.2922C7.1217 9.5622 7.7817 9.2822 8.6417 9.2822H10.6917V7.6322H8.7817C6.6917 7.6322 6.0917 8.1422 4.7217 9.8322L0.6717 14.8522C0.1517 15.4822 0.0017 16.0122 0.0017 17.0722V24.0122C0.0017 26.4222 1.2317 27.6422 3.6817 27.6422H23.9517C26.4117 27.6422 27.6317 26.4222 27.6317 24.0122V17.0722C27.6317 16.0122 27.4917 15.4822 26.9617 14.8522L22.9217 9.8322C21.5517 8.1422 20.9417 7.6322 18.8517 7.6322ZM3.7017 25.7622C2.5317 25.7622 1.8917 25.1222 1.8917 23.9022V18.0822H9.3117C9.6017 20.2722 11.4417 21.8922 13.8117 21.8922C16.1917 21.8922 18.0317 20.2622 18.3117 18.0822H25.7417V23.9022C25.7417 25.1222 25.0917 25.7622 23.9317 25.7622Z" />
        </svg>
    