
        <svg xmlns="http://www.w3.org/2000/svg" viewBox="0 0 100 100">
            <path d="M3.1617 18.8059H24.0317C26.1117 18.8059 27.1917 17.6959 27.1917 15.6559V9.2359C27.1917 8.5559 27.0917 8.2359 26.7517 7.8059L21.9017 1.5659C20.9317 0.3259 20.3417 -0.0041 18.7217 -0.0041H8.4617C6.8517 -0.0041 6.2717 0.3259 5.3017 1.5659L0.4317 7.8059C0.1017 8.2359 0.0017 8.5559 0.0017 9.2359V15.6559C0.0017 17.7159 1.0917 18.8059 3.1617 18.8059ZM1.2417 8.6359C1.0417 8.6359 0.9817 8.4559 1.1017 8.3059L6.1617 1.8059C6.7417 1.0859 7.3517 0.7959 8.3217 0.7959H18.8717C19.8517 0.7959 20.4617 1.0859 21.0317 1.8059L26.1017 8.3059C26.2117 8.4559 26.1717 8.6359 25.9717 8.6359H17.3317C16.9717 8.6359 16.7917 8.8759 16.7917 9.2059V9.2959C16.7917 11.1059 15.4217 12.5459 13.5917 12.5459C11.7617 12.5459 10.4017 11.1059 10.4017 9.2959V9.2059C10.4017 8.8759 10.2217 8.6359 9.8517 8.6359ZM3.1917 17.9259C1.6617 17.9259 0.8717 17.1459 0.8717 15.6059V9.4459H9.5317C9.6017 11.7759 11.3817 13.3759 13.5917 13.3759C15.8117 13.3759 17.5917 11.7559 17.6617 9.4459H26.3217V15.6059C26.3217 17.1459 25.4717 17.9259 24.0017 17.9259Z" />
        </svg>
    