
        <svg xmlns="http://www.w3.org/2000/svg" viewBox="0 0 100 100">
            <path d="M13.7217 15.9852C14.1117 15.9852 14.4417 15.6652 14.4417 15.2952V3.7152L14.3917 2.0152L15.1417 2.7852L17.2017 4.9452C17.3317 5.0852 17.5217 5.1652 17.6917 5.1652C18.0717 5.1652 18.3517 4.8852 18.3517 4.5252C18.3517 4.3352 18.2817 4.1952 18.1417 4.0552L14.2417 0.2352C14.0617 0.0552 13.9117 -0.0048 13.7217 -0.0048C13.5317 -0.0048 13.3817 0.0552 13.2117 0.2352L9.2917 4.0552C9.1517 4.1952 9.0817 4.3352 9.0817 4.5252C9.0817 4.8852 9.3517 5.1652 9.7217 5.1652C9.9017 5.1652 10.1017 5.0852 10.2317 4.9452L12.3017 2.7852L13.0517 2.0152L13.0117 3.7152V15.2952C13.0117 15.6652 13.3317 15.9852 13.7217 15.9852ZM16.3917 7.5152V8.8052H18.9417C19.8517 8.8052 20.4817 9.0852 21.0617 9.8052L25.7217 15.7352C25.8917 15.9352 25.8117 16.2052 25.5117 16.2052H17.3917C16.8917 16.2052 16.6517 16.5752 16.6517 16.9952V17.0552C16.6517 18.6052 15.4617 20.0552 13.7217 20.0552C11.9917 20.0552 10.7917 18.6052 10.7917 17.0552V16.9952C10.7917 16.5752 10.5617 16.2052 10.0517 16.2052H1.9417C1.6417 16.2052 1.5717 15.9352 1.7217 15.7352L6.3917 9.8052C6.9617 9.0852 7.5917 8.8052 8.5117 8.8052H11.0517V7.5152H8.6417C6.7617 7.5152 6.1617 7.9552 4.9717 9.4452L0.5617 14.9852C0.1317 15.5352 0.0017 15.9752 0.0017 16.8752V23.5852C0.0017 25.8552 1.1717 27.0152 3.4617 27.0152H23.9917C26.2817 27.0152 27.4417 25.8352 27.4417 23.5852V16.8752C27.4417 15.9752 27.3117 15.5352 26.8817 14.9852L22.4717 9.4452C21.2817 7.9552 20.6817 7.5152 18.8117 7.5152ZM3.4817 25.5552C2.1717 25.5552 1.4517 24.8652 1.4517 23.5052V17.5352H9.4117C9.6017 19.7852 11.4117 21.3852 13.7217 21.3852C16.0317 21.3852 17.8517 19.7652 18.0317 17.5352H25.9917V23.5052C25.9917 24.8652 25.2517 25.5552 23.9617 25.5552Z" />
        </svg>
    