
        <svg xmlns="http://www.w3.org/2000/svg" viewBox="0 0 100 100">
            <path d="M13.5917 -0.0008C13.3617 -0.0008 13.1617 0.1992 13.1617 0.4292V13.0792L13.1917 14.7292L12.3017 13.8392L9.8917 11.3892C9.8117 11.2992 9.6917 11.2492 9.5817 11.2492C9.3617 11.2492 9.1917 11.4292 9.1917 11.6492C9.1917 11.7492 9.2317 11.8492 9.3117 11.9292L13.2917 15.8692C13.3817 15.9592 13.4917 15.9992 13.5917 15.9992C13.7117 15.9992 13.8017 15.9592 13.9117 15.8692L17.8617 11.9292C17.9417 11.8492 17.9917 11.7492 17.9917 11.6492C17.9917 11.4292 17.8017 11.2492 17.5917 11.2492C17.4817 11.2492 17.3717 11.2992 17.2817 11.3892L14.8717 13.8392L14.0017 14.7192L14.0317 13.0792V0.4292C14.0317 0.1992 13.8317 -0.0008 13.5917 -0.0008ZM15.6717 8.1292V8.9292H18.8717C19.8517 8.9292 20.4617 9.2192 21.0317 9.9492L26.1017 16.4492C26.2117 16.5892 26.1717 16.7692 25.9717 16.7692H17.3317C16.9717 16.7692 16.7917 17.0192 16.7917 17.3592V17.4292C16.7917 19.2492 15.4217 20.6792 13.5917 20.6792C11.7617 20.6792 10.4017 19.2492 10.4017 17.4292V17.3592C10.4017 17.0192 10.2217 16.7692 9.8517 16.7692H1.2417C1.0417 16.7692 0.9817 16.5892 1.1017 16.4492L6.1617 9.9492C6.7417 9.2192 7.3517 8.9292 8.3217 8.9292H11.5217V8.1292H8.4617C6.8517 8.1292 6.2717 8.4592 5.3017 9.6992L0.4317 15.9492C0.1017 16.3692 0.0017 16.6892 0.0017 17.3692V23.7892C0.0017 25.8592 1.0917 26.9392 3.1617 26.9392H24.0317C26.1117 26.9392 27.1917 25.8392 27.1917 23.7892V17.3692C27.1917 16.6892 27.0917 16.3692 26.7517 15.9492L21.9017 9.6992C20.9317 8.4592 20.3417 8.1292 18.7217 8.1292ZM3.1917 26.0792C1.6617 26.0792 0.8717 25.2792 0.8717 23.7392V17.5792H9.5317C9.6017 19.9092 11.3817 21.4992 13.5917 21.4992C15.8117 21.4992 17.5917 19.8892 17.6617 17.5792H26.3217V23.7392C26.3217 25.2792 25.4717 26.0792 24.0017 26.0792Z" />
        </svg>
    