
        <svg xmlns="http://www.w3.org/2000/svg" viewBox="0 0 100 100">
            <path d="M4.3817 21.8828H24.1917C26.9917 21.8828 28.5717 20.2928 28.5717 17.5028V10.7828C28.5717 8.8028 28.3717 7.9528 27.4317 6.8628L23.5517 2.2128C22.1717 0.5628 21.0117 0.0028 19.3517 0.0028H9.2217C7.5617 0.0028 6.3917 0.5728 4.9917 2.2428L1.1417 6.8628C0.2017 7.9528 0.0017 8.8028 0.0017 10.7828V17.5028C0.0017 20.2928 1.5917 21.8828 4.3817 21.8828ZM14.2817 13.9428C12.5117 13.9428 11.1817 12.4928 11.1817 10.8128V10.5828C11.1817 10.0028 10.8317 9.4428 10.1017 9.4428H3.9417C3.5617 9.4428 3.4917 9.1328 3.6817 8.8828L8.0117 3.5428C8.3917 3.0628 8.8017 2.8128 9.4117 2.8128H19.0317C19.6417 2.8128 20.0617 3.0628 20.4217 3.5428L24.5817 8.6528C24.8717 8.9928 24.7817 9.4428 24.2417 9.4428H18.4717C17.7417 9.4428 17.3917 10.0028 17.3917 10.5828V10.8128C17.3917 12.4928 16.0517 13.9428 14.2817 13.9428Z" />
        </svg>
    