
        <svg xmlns="http://www.w3.org/2000/svg" viewBox="0 0 100 100">
            <path d="M14.0117 0.0011C13.3517 0.0011 12.8117 0.5411 12.8117 1.1711V11.1111L12.9617 12.8811L12.4017 12.1211L10.9317 10.5611C10.7317 10.3511 10.4517 10.2311 10.1717 10.2311C9.6217 10.2311 9.1617 10.6311 9.1617 11.1911C9.1617 11.4911 9.2817 11.7111 9.4817 11.9111L13.1417 15.4211C13.4317 15.7011 13.7117 15.8111 14.0117 15.8111C14.3117 15.8111 14.5917 15.7011 14.8917 15.4211L18.5417 11.9111C18.7517 11.7111 18.8517 11.4911 18.8517 11.1911C18.8517 10.6311 18.3917 10.2311 17.8517 10.2311C17.5617 10.2311 17.2817 10.3511 17.0817 10.5611L15.6317 12.1211L15.0617 12.8711L15.2117 11.1111V1.1711C15.2117 0.5411 14.6717 0.0011 14.0117 0.0011ZM17.4217 6.7111V8.8511H19.0117C19.7617 8.8511 20.3417 9.1011 20.8117 9.7411L25.0617 15.3411C25.2917 15.6411 25.2117 16.0211 24.7617 16.0211H18.0017C17.3217 16.0211 16.9917 16.5311 16.9917 17.0811V17.2011C16.9917 18.7411 15.7817 20.2411 14.0117 20.2411C12.2417 20.2411 11.0317 18.7411 11.0317 17.2011V17.0811C11.0317 16.5311 10.7017 16.0211 10.0217 16.0211H3.0917C2.7217 16.0211 2.6417 15.6911 2.8217 15.4411L7.1617 9.7411C7.6317 9.1011 8.2117 8.8511 8.9617 8.8511H10.5917V6.7111H8.9617C7.0517 6.7111 6.1617 7.2211 4.8317 8.9311L0.8717 14.0611C0.1917 14.9111 0.0017 15.5411 0.0017 16.9911V23.5711C0.0017 26.1311 1.3817 27.5011 3.9717 27.5011H24.0617C26.6517 27.5011 28.0217 26.1311 28.0217 23.5711V16.9911C28.0217 15.5411 27.8417 14.9111 27.1617 14.0611L23.1817 8.9311C21.8517 7.2211 20.9717 6.7111 19.0617 6.7111Z" />
        </svg>
    