
        <svg xmlns="http://www.w3.org/2000/svg" viewBox="0 0 100 100">
            <path d="M3.1617 15.8705H24.0317C26.1117 15.8705 27.1917 14.7705 27.1917 12.7605V7.3705C27.1917 6.6805 27.1417 6.2905 26.7517 5.9205L22.3517 1.4905C21.2617 0.4005 20.3917 0.0005 18.8517 0.0005H8.3317C6.8117 0.0005 5.9317 0.4005 4.8417 1.4905L0.4317 5.9205C0.0517 6.2905 0.0017 6.6805 0.0017 7.3705V12.7605C0.0017 14.7905 1.0917 15.8705 3.1617 15.8705ZM13.5917 10.6605C11.7617 10.6605 10.4017 9.2205 10.4017 7.4105V7.3205C10.4017 6.9805 10.2217 6.7505 9.8517 6.7505H1.3117C1.0517 6.7505 0.9617 6.5505 1.1817 6.3305L5.5117 1.9605C6.4417 1.0305 7.1517 0.8005 8.3117 0.8005H18.8817C20.0417 0.8005 20.7517 1.0305 21.6817 1.9605L26.0117 6.3305C26.2217 6.5505 26.1417 6.7505 25.8717 6.7505H17.3317C16.9717 6.7505 16.7917 6.9805 16.7917 7.3205V7.4105C16.7917 9.2205 15.4217 10.6605 13.5917 10.6605ZM3.1617 26.0505H24.0317C26.1117 26.0505 27.1917 24.9505 27.1917 22.9305V17.5405C27.1917 17.1405 27.1717 16.8505 27.0817 16.5905C26.7417 16.8005 26.3017 16.9205 25.7917 16.9205H17.3317C16.9717 16.9205 16.7917 17.1605 16.7917 17.5005V17.5805C16.7917 19.3905 15.4217 20.8405 13.5917 20.8405C11.7617 20.8405 10.4017 19.3905 10.4017 17.5805V17.5005C10.4017 17.1605 10.2217 16.9205 9.8517 16.9205H1.4017C0.9017 16.9205 0.4617 16.8005 0.1017 16.5905C0.0117 16.8505 0.0017 17.1405 0.0017 17.5405V22.9305C0.0017 24.9605 1.0917 26.0505 3.1617 26.0505Z" />
        </svg>
    