
        <svg xmlns="http://www.w3.org/2000/svg" viewBox="0 0 100 100">
            <path d="M3.0117 25.825H24.0617C26.0117 25.825 27.0617 24.785 27.0617 22.815V7.235C27.0617 6.655 27.0217 6.365 26.6917 6.035L22.2217 1.465C21.1717 0.395 20.3217 -0.005 18.8417 -0.005H8.2117C6.7417 -0.005 5.8917 0.395 4.8517 1.465L0.3617 6.035C0.0517 6.365 0.0017 6.655 0.0017 7.235V22.815C0.0017 24.785 1.0417 25.825 3.0117 25.825ZM13.5317 10.615C11.6617 10.615 10.1917 9.175 10.1917 7.215V7.135C10.1917 6.835 10.0517 6.665 9.7617 6.665H1.0217C0.7817 6.665 0.6917 6.505 0.9017 6.285L5.3017 1.785C6.2817 0.775 7.0617 0.555 8.2417 0.555H18.8317C19.9917 0.555 20.7817 0.775 21.7717 1.785L26.1517 6.285C26.3717 6.505 26.2717 6.665 26.0417 6.665H17.3117C17.0117 6.665 16.8617 6.835 16.8617 7.135V7.215C16.8617 9.175 15.4117 10.615 13.5317 10.615ZM13.5317 11.155C15.6917 11.155 17.4617 9.555 17.4717 7.205H26.4817V13.475C26.4817 15.095 25.5817 15.935 24.0217 15.935H3.0317C1.4217 15.935 0.5717 15.095 0.5717 13.475V7.205H9.6017C9.6017 9.575 11.3717 11.155 13.5317 11.155ZM13.5317 19.925C11.7417 19.925 10.3017 18.605 10.1817 16.525H16.8917C16.7617 18.605 15.3117 19.925 13.5317 19.925ZM13.5317 20.475C15.6917 20.475 17.4617 18.895 17.4717 16.525H26.4817V22.785C26.4817 24.415 25.6517 25.255 24.0217 25.255H3.0317C1.4217 25.255 0.5717 24.415 0.5717 22.785V16.525H9.6017C9.6017 18.895 11.3717 20.475 13.5317 20.475Z" />
        </svg>
    