
        <svg xmlns="http://www.w3.org/2000/svg" viewBox="0 0 100 100">
            <path d="M12.7923 25.5978C19.8723 25.5978 25.6023 19.8678 25.6023 12.7978C25.6023 5.7278 19.8723 -0.0022 12.7923 -0.0022C5.7323 -0.0022 0.0023 5.7278 0.0023 12.7978C0.0023 19.8678 5.7323 25.5978 12.7923 25.5978ZM12.7923 21.4178C8.0323 21.4178 4.1723 17.5678 4.1723 12.7978C4.1723 8.0278 8.0323 4.1678 12.7923 4.1678C17.5623 4.1678 21.4323 8.0278 21.4323 12.7978C21.4323 17.5678 17.5623 21.4178 12.7923 21.4178ZM8.5123 17.3778H17.1023C18.3823 17.3778 19.1523 16.6278 19.1523 15.3178V12.2078C19.1523 11.2078 19.0523 10.7678 18.5623 10.2278L17.0723 8.5778C16.2423 7.6778 15.9523 7.3078 14.9023 7.3078H10.6923C9.6523 7.3078 9.3523 7.6778 8.5323 8.5778L7.0423 10.2278C6.5523 10.7678 6.4523 11.2078 6.4523 12.2078V15.3178C6.4523 16.6278 7.2023 17.3778 8.5123 17.3778ZM8.6123 11.5978C8.3523 11.5978 8.3223 11.3678 8.4523 11.2078L10.3523 9.0378C10.5023 8.8578 10.6523 8.7678 10.8823 8.7678H14.7023C14.9523 8.7678 15.1023 8.8578 15.2423 9.0378L17.1523 11.2078C17.2823 11.3678 17.2523 11.5978 16.9923 11.5978H14.5923C14.2523 11.5978 14.1123 11.8578 14.1123 12.1178V12.2478C14.1123 12.9678 13.6023 13.3978 12.7923 13.3978C11.9923 13.3978 11.4923 12.9678 11.4923 12.2478V12.1178C11.4923 11.8578 11.3423 11.5978 11.0123 11.5978Z" />
        </svg>
    