
        <svg xmlns="http://www.w3.org/2000/svg" viewBox="0 0 100 100">
            <path d="M11.9317 23.3666C12.3017 23.3666 12.6917 23.3466 13.0917 23.2866C13.1817 23.7266 13.2317 24.1666 13.2317 24.5466C13.2317 26.4966 13.0317 28.1366 13.0317 28.8066C13.0317 29.2766 13.7117 29.5766 14.6817 29.5766C15.6517 29.5766 16.3317 29.2766 16.3317 28.8066C16.3317 28.1366 16.1417 26.4966 16.1417 24.5466C16.1417 24.1666 16.1817 23.7266 16.2817 23.2866C16.6717 23.3466 17.0617 23.3666 17.4417 23.3666C19.8117 23.3666 21.5617 22.2866 22.1917 21.7066C23.1817 22.2066 24.0817 22.4266 24.9217 22.4266C27.5717 22.4266 29.3717 20.5766 29.3717 17.8466C29.3717 16.4566 28.7917 14.9966 27.4417 13.6766C28.5217 12.5866 28.9417 11.3166 28.9417 9.9966C28.9417 7.2666 26.8217 4.8266 24.2217 4.5566C24.1517 1.9066 21.3017 -0.0034 18.4817 -0.0034C17.0417 -0.0034 15.6817 0.4966 14.6817 1.5566C13.6917 0.4966 12.3317 -0.0034 10.8717 -0.0034C8.0517 -0.0034 5.2117 1.9066 5.1417 4.5566C2.5417 4.8266 0.4217 7.2666 0.4217 9.9966C0.4217 11.3166 0.8417 12.5866 1.9117 13.6766C0.5717 14.9966 0.0017 16.4566 0.0017 17.8466C0.0017 20.5766 1.7917 22.4266 4.4317 22.4266C5.2817 22.4266 6.1917 22.2066 7.1717 21.7066C7.7917 22.2866 9.5517 23.3666 11.9317 23.3666ZM8.6017 17.9766C9.4917 17.9766 10.2117 17.8166 10.7817 17.5066C11.3517 18.5666 12.2117 20.3166 12.7517 21.9966C12.4717 22.0266 12.2117 22.0466 11.9317 22.0466C9.2317 22.0466 7.8717 20.6166 7.4017 20.0366C6.2417 20.8466 5.4817 21.1066 4.4317 21.1066C2.5317 21.1066 1.3217 19.8466 1.3217 17.8466C1.3217 16.5966 1.7917 15.5466 3.3417 14.1466C3.6317 13.8866 3.6017 13.4666 3.3517 13.2166C2.0717 12.0166 1.7317 11.0466 1.7317 9.8466C1.7317 7.5266 3.5517 5.7266 6.0817 5.8566C6.4117 5.8666 6.5317 5.6466 6.4917 5.4166C6.1617 3.1266 8.2017 1.3266 10.9417 1.3266C12.5517 1.3266 13.6917 1.9466 14.6817 3.1366C15.6717 1.9466 16.8117 1.3266 18.4117 1.3266C21.1517 1.3266 23.2017 3.1266 22.8717 5.4166C22.8417 5.6466 22.9617 5.8666 23.2817 5.8566C25.8117 5.7266 27.6317 7.5266 27.6317 9.8466C27.6317 11.0466 27.2917 12.0166 26.0017 13.2166C25.7717 13.4666 25.7317 13.8866 26.0317 14.1466C27.5717 15.5466 28.0417 16.5966 28.0417 17.8466C28.0417 19.8466 26.8317 21.1066 24.9217 21.1066C23.8817 21.1066 23.1217 20.8466 21.9617 20.0366C21.4917 20.6166 20.1217 22.0466 17.4417 22.0466C17.1517 22.0466 16.8917 22.0266 16.6217 21.9966C17.1517 20.3166 18.0117 18.5666 18.5817 17.5066C19.1617 17.8166 19.8717 17.9766 20.7617 17.9766C21.0817 17.9766 21.3517 17.7166 21.3517 17.3866C21.3517 17.0766 21.0817 16.8066 20.7617 16.8066C18.7517 16.7766 18.0117 15.6566 17.8817 14.1866C17.8517 13.6866 17.1517 13.4666 16.8117 13.8966C16.3517 14.5066 15.6917 14.9666 14.6817 14.9666C13.6717 14.9666 13.0217 14.5066 12.5517 13.8966C12.2017 13.4666 11.5217 13.6866 11.4817 14.1866C11.3517 15.6566 10.6217 16.7766 8.6017 16.8066C8.2717 16.8066 8.0117 17.0766 8.0117 17.3866C8.0117 17.7166 8.2717 17.9766 8.6017 17.9766ZM12.4017 15.4766C12.8317 15.7966 13.3017 16.0166 13.8417 16.1366V20.0966C13.2217 18.6466 12.5717 17.4066 12.0017 16.3466C12.1617 16.0766 12.2917 15.7866 12.4017 15.4766ZM16.9717 15.4766C17.0717 15.7866 17.2017 16.0766 17.3717 16.3466C16.7917 17.4066 16.1517 18.6366 15.5117 20.0866V16.1366C16.0617 16.0166 16.5317 15.7966 16.9717 15.4766Z" />
        </svg>
    