
        <svg xmlns="http://www.w3.org/2000/svg" viewBox="0 0 100 100">
            <path d="M11.1217 21.8459C11.5517 21.8459 12.0217 21.8059 12.5017 21.7159C12.6217 22.2659 12.6817 22.8059 12.6817 23.2959C12.6817 25.8259 12.4917 26.5459 12.4917 27.0659C12.4917 27.3359 13.0417 27.5659 13.7217 27.5659C14.4017 27.5659 14.9517 27.3359 14.9517 27.0659C14.9517 26.5459 14.7517 25.8259 14.7517 23.2959C14.7517 22.8059 14.8217 22.2659 14.9417 21.7159C15.4217 21.8059 15.8817 21.8459 16.3117 21.8459C18.5817 21.8459 20.2217 20.8159 20.8017 20.2259C21.7517 20.7459 22.6017 20.9659 23.4117 20.9659C25.8617 20.9659 27.4317 19.3359 27.4317 16.8059C27.4317 15.4559 26.8817 14.1059 25.5617 12.8459C26.6417 11.8159 27.0317 10.6559 27.0317 9.2859C27.0317 6.7059 24.9717 4.5559 22.5717 4.3959C22.6217 1.8759 20.1017 -0.0041 17.3917 -0.0041C15.9917 -0.0041 14.6617 0.5659 13.7217 1.6259C12.7717 0.5659 11.4517 -0.0041 10.0417 -0.0041C7.3317 -0.0041 4.8117 1.8759 4.8617 4.3959C2.4617 4.5559 0.4017 6.7059 0.4017 9.2859C0.4017 10.6559 0.8117 11.8159 1.8917 12.8459C0.5517 14.1059 0.0017 15.4559 0.0017 16.8059C0.0017 19.3359 1.5817 20.9659 4.0317 20.9659C4.8417 20.9659 5.6817 20.7459 6.6417 20.2259C7.2117 20.8159 8.8517 21.8459 11.1217 21.8459ZM7.9717 17.0859C9.0217 17.0859 9.7717 16.8559 10.3117 16.4259C10.9817 17.4459 11.8917 19.3359 12.3617 21.1559C11.9417 21.2359 11.5317 21.2659 11.1217 21.2659C8.4917 21.2659 7.1217 19.9359 6.7717 19.4259C5.7617 20.1059 4.8917 20.3859 4.0317 20.3859C1.8517 20.3859 0.5717 19.0659 0.5717 16.8059C0.5717 15.5259 1.1017 14.3059 2.4717 13.0859C2.6217 12.9559 2.6217 12.7359 2.4717 12.6059C1.3717 11.6259 0.9817 10.5959 0.9817 9.2959C0.9817 6.8459 2.9317 4.9459 5.1917 4.9559C5.3917 4.9559 5.4717 4.8059 5.4617 4.6559C5.1717 2.3359 7.4417 0.5759 10.0417 0.5759C11.5817 0.5759 12.8117 1.1959 13.7217 2.6259C14.6217 1.1959 15.8517 0.5759 17.4017 0.5759C19.9917 0.5759 22.2817 2.3359 21.9717 4.6559C21.9617 4.8059 22.0517 4.9559 22.2417 4.9559C24.5117 4.9459 26.4617 6.8459 26.4617 9.2959C26.4617 10.5959 26.0617 11.6259 24.9617 12.6059C24.8217 12.7359 24.8217 12.9559 24.9617 13.0859C26.3317 14.3059 26.8617 15.5259 26.8617 16.8059C26.8617 19.0659 25.5917 20.3859 23.4117 20.3859C22.5517 20.3859 21.6817 20.1059 20.6617 19.4259C20.3117 19.9359 18.9517 21.2659 16.3117 21.2659C15.9117 21.2659 15.4917 21.2359 15.0717 21.1559C15.5517 19.3359 16.4617 17.4459 17.1317 16.4259C17.6717 16.8559 18.4217 17.0859 19.4617 17.0859C19.6317 17.0859 19.7617 16.9559 19.7617 16.7959C19.7617 16.6359 19.6317 16.5159 19.4617 16.5159C17.3717 16.4759 16.8517 15.3059 16.5817 14.1759C16.5117 13.8359 16.0817 13.6559 15.7417 13.9559C15.3117 14.3359 14.7517 14.8359 13.7217 14.8359C12.6917 14.8359 12.1217 14.3359 11.7117 13.9559C11.3517 13.6559 10.9317 13.8359 10.8517 14.1759C10.5817 15.3059 10.0617 16.4759 7.9717 16.5159C7.8017 16.5159 7.6717 16.6359 7.6717 16.7959C7.6717 16.9559 7.8017 17.0859 7.9717 17.0859ZM11.4017 14.5359C11.9317 14.9859 12.4417 15.2659 13.1217 15.3759V19.5259C12.7217 18.4559 11.8617 16.7459 11.1117 15.3759C11.2217 15.1159 11.3217 14.8359 11.4017 14.5359ZM16.0417 14.5359C16.1117 14.8359 16.2117 15.1159 16.3217 15.3759C15.5717 16.7459 14.7117 18.4559 14.3117 19.5259V15.3759C14.9917 15.2659 15.5017 14.9859 16.0417 14.5359Z" />
        </svg>
    