
        <svg xmlns="http://www.w3.org/2000/svg" viewBox="0 0 100 100">
            <path d="M12.7617 24.9606C13.0917 24.9606 13.4317 24.9406 13.7917 24.8906C13.8517 25.2206 13.8917 25.5106 13.8917 25.7906C13.8917 27.2106 13.6717 29.5506 13.6717 30.3506C13.6717 31.0406 14.5117 31.5806 15.7717 31.5806C17.0417 31.5806 17.8817 31.0406 17.8817 30.3506C17.8817 29.5506 17.6717 27.2106 17.6717 25.7906C17.6717 25.5106 17.6917 25.2206 17.7517 24.8906C18.1217 24.9406 18.4717 24.9606 18.7817 24.9606C21.0317 24.9606 22.7817 24.0606 23.6617 23.4306C24.5817 23.8206 25.4917 24.0106 26.3017 24.0106C29.3517 24.0106 31.5517 21.7406 31.5517 18.6106C31.5517 17.2306 31.0317 15.7506 29.9017 14.4106C30.7617 13.3106 31.1217 12.0106 31.1217 10.8306C31.1217 7.9606 29.0817 5.2406 26.3317 4.5906C25.8017 1.8306 22.6617 0.0006 19.7817 0.0006C18.3017 0.0006 16.8917 0.4206 15.7717 1.4106C14.6617 0.4206 13.2417 0.0006 11.7817 0.0006C8.8817 0.0006 5.7417 1.8306 5.2217 4.5906C2.4717 5.2406 0.4217 7.9606 0.4217 10.8306C0.4217 12.0106 0.7817 13.3106 1.6417 14.4106C0.5117 15.7506 0.0017 17.2306 0.0017 18.6106C0.0017 21.7406 2.1917 24.0106 5.2517 24.0106C6.0717 24.0106 6.9717 23.8206 7.8917 23.4306C8.7617 24.0606 10.5117 24.9606 12.7617 24.9606ZM9.3917 18.9606C10.1217 18.9606 10.7817 18.8406 11.3317 18.6406C11.7517 19.4606 12.2917 20.5706 12.7717 21.7006H12.7617C10.8517 21.7006 9.5117 20.9506 8.3317 19.4506C7.5217 20.2006 6.7117 20.5006 5.9317 20.5006C4.6017 20.5006 3.5617 19.5606 3.5617 18.2806C3.5617 17.4606 3.9817 16.5506 5.0617 15.5906C5.7917 14.9406 5.6617 13.9006 5.1217 13.3506C4.2317 12.4206 3.8917 11.5006 3.8917 10.6406C3.8917 8.9906 5.2117 7.6906 7.0517 7.7106C8.0517 7.7106 8.3017 7.1406 8.3017 6.8406C8.2617 4.4906 10.0817 3.3006 12.1217 3.3006C13.4617 3.3006 14.8217 3.8206 15.7717 4.7906C16.7217 3.8206 18.0917 3.3006 19.4417 3.3006C21.4717 3.3006 23.2817 4.4906 23.2517 6.8406C23.2517 7.1406 23.4917 7.7106 24.4917 7.7106C26.3417 7.6906 27.6517 8.9906 27.6517 10.6406C27.6517 11.5006 27.3317 12.4206 26.4417 13.3506C25.8917 13.9006 25.7617 14.9406 26.4917 15.5906C27.5617 16.5506 27.9817 17.4606 27.9817 18.2806C27.9817 19.5606 26.9417 20.5006 25.6317 20.5006C24.8417 20.5006 24.0217 20.2006 23.2217 19.4506C22.0317 20.9506 20.7117 21.7006 18.7817 21.7006C19.2517 20.5706 19.7917 19.4606 20.2217 18.6406C20.7817 18.8406 21.4217 18.9606 22.1617 18.9606C22.6617 18.9606 23.0817 18.5606 23.0817 18.0506C23.0817 17.5306 22.6617 17.1206 22.1617 17.1206C20.2517 17.0906 19.3517 16.0506 19.3517 14.3006C19.3517 13.5706 18.3417 13.3106 17.9617 13.9206C17.4417 14.7306 16.7417 15.1206 15.7717 15.1206C14.8017 15.1206 14.1117 14.7306 13.5817 13.9206C13.2217 13.3106 12.2117 13.5706 12.2117 14.3006C12.2117 16.0506 11.3117 17.0906 9.3917 17.1206C8.8817 17.1206 8.4717 17.5306 8.4717 18.0506C8.4717 18.5606 8.8817 18.9606 9.3917 18.9606ZM13.5517 16.5306C13.8717 16.7306 14.2517 16.8906 14.6517 16.9806V20.4006C13.9917 19.0106 13.5017 18.0706 13.1017 17.3206C13.2817 17.0906 13.4317 16.8206 13.5517 16.5306ZM18.0117 16.5306C18.1317 16.8206 18.2717 17.0906 18.4417 17.3306C18.0517 18.0706 17.5517 19.0006 16.9117 20.3906V16.9806C17.3117 16.8906 17.6717 16.7306 18.0117 16.5306Z" />
        </svg>
    