
        <svg xmlns="http://www.w3.org/2000/svg" viewBox="0 0 100 100">
            <path d="M-0.0006 18.9717C-0.0006 20.6517 1.1994 22.0317 3.0394 22.0317H21.2094C23.0494 22.0317 24.2594 20.6517 24.2594 18.9717C24.2594 18.4817 24.1294 17.9617 23.8594 17.4917L14.7394 1.5317C14.1694 0.5317 13.1494 0.0017 12.1294 0.0017C11.0994 0.0017 10.0794 0.5317 9.5194 1.5317L0.4094 17.4717C0.1294 17.9517 -0.0006 18.4817 -0.0006 18.9717ZM1.4694 18.9717C1.4694 18.7217 1.5394 18.4317 1.6794 18.1717L10.7594 2.2117C11.0594 1.6917 11.5794 1.4417 12.1294 1.4417V20.6017H3.0594C2.1194 20.6017 1.4694 19.8317 1.4694 18.9717Z" />
        </svg>
    