
        <svg xmlns="http://www.w3.org/2000/svg" viewBox="0 0 100 100">
            <path d="M1.6194 22.5691H24.1494C25.2894 22.5691 25.7694 21.9591 25.7694 21.2591C25.7694 20.9691 25.6894 20.6491 25.5194 20.3391L14.1894 0.7191C13.9194 0.2391 13.4094 -0.0009 12.8894 -0.0009C12.3594 -0.0009 11.8594 0.2391 11.5794 0.7191L0.2594 20.3391C0.0894 20.6491 -0.0006 20.9691 -0.0006 21.2591C-0.0006 21.9591 0.4794 22.5691 1.6194 22.5691ZM2.6494 20.7291C2.4594 20.7291 2.3594 20.6391 2.3594 20.4991C2.3594 20.4391 2.3694 20.3791 2.4094 20.3091L12.6594 2.5291C12.7294 2.4291 12.7994 2.3791 12.8894 2.3791C12.9694 2.3791 13.0394 2.4291 13.1094 2.5291L23.3694 20.3091C23.3994 20.3791 23.4294 20.4391 23.4294 20.4991C23.4294 20.6391 23.3094 20.7291 23.1194 20.7291Z" />
        </svg>
    