
        <svg xmlns="http://www.w3.org/2000/svg" viewBox="0 0 100 100">
            <path d="M11.7523 23.5031C18.2323 23.5031 23.5123 18.2331 23.5123 11.7531C23.5123 5.2731 18.2323 0.0031 11.7523 0.0031C5.2723 0.0031 0.0023 5.2731 0.0023 11.7531C0.0023 18.2331 5.2723 23.5031 11.7523 23.5031ZM7.9723 11.7531C7.9723 7.1931 11.4823 4.0031 15.8923 4.0031C16.2323 4.0031 16.4923 4.2531 16.4923 4.5631C16.4923 4.8731 16.2423 5.1231 15.8923 5.1231C13.1623 5.1231 10.9023 6.4931 9.8123 8.6331C10.3523 8.2131 11.0323 7.9731 11.7523 7.9731C13.8123 7.9731 15.5423 9.6831 15.5423 11.7531C15.5423 16.3131 12.0323 19.5031 7.6123 19.5031C7.2623 19.5031 7.0223 19.2531 7.0223 18.9531C7.0223 18.6431 7.2623 18.3831 7.6123 18.3831C10.3323 18.3831 12.6023 17.0231 13.7023 14.8831C13.1723 15.2931 12.4823 15.5531 11.7523 15.5531C9.6923 15.5531 7.9723 13.8231 7.9723 11.7531ZM9.0923 11.7531C9.0923 13.2331 10.2823 14.4231 11.7523 14.4231C13.2323 14.4231 14.4223 13.2331 14.4223 11.7531C14.4223 10.2731 13.2323 9.0931 11.7523 9.0931C10.2823 9.0931 9.0923 10.2731 9.0923 11.7531ZM10.6323 11.7531C10.6323 11.1331 11.1423 10.6331 11.7523 10.6331C12.3723 10.6331 12.8823 11.1331 12.8823 11.7531C12.8823 12.3631 12.3723 12.8831 11.7523 12.8831C11.1423 12.8831 10.6323 12.3731 10.6323 11.7531Z" />
        </svg>
    