
        <svg xmlns="http://www.w3.org/2000/svg" viewBox="0 0 100 100">
            <path d="M12.7923 25.5961C19.8723 25.5961 25.6023 19.8661 25.6023 12.7961C25.6023 5.7261 19.8723 -0.0039 12.7923 -0.0039C5.7323 -0.0039 0.0023 5.7261 0.0023 12.7961C0.0023 19.8661 5.7323 25.5961 12.7923 25.5961ZM8.9723 12.8061C8.9723 8.4761 12.4123 5.3061 16.4323 5.3061C17.0023 5.3061 17.4123 5.7561 17.4123 6.2661C17.4123 6.8061 17.0023 7.2461 16.4323 7.2461C14.7323 7.2461 13.1723 7.9261 12.1023 9.0561C12.3323 9.0161 12.5623 8.9861 12.7923 8.9861C14.8923 8.9861 16.6323 10.7061 16.6323 12.8061C16.6323 17.1561 13.1923 20.3161 9.1723 20.3161C8.6023 20.3161 8.1923 19.8761 8.1923 19.3561C8.1923 18.8161 8.6023 18.3861 9.1723 18.3861C10.8723 18.3861 12.4323 17.6961 13.5023 16.5561C13.2823 16.6161 13.0423 16.6361 12.7923 16.6361C10.7023 16.6361 8.9723 14.9061 8.9723 12.8061ZM10.9223 12.8061C10.9223 13.8561 11.7623 14.6961 12.7923 14.6961C13.8423 14.6961 14.6823 13.8561 14.6823 12.8061C14.6823 11.7761 13.8423 10.9361 12.7923 10.9361C11.7623 10.9361 10.9223 11.7761 10.9223 12.8061ZM11.7023 12.8061C11.7023 12.2061 12.2123 11.7161 12.7923 11.7161C13.4023 11.7161 13.9023 12.2061 13.9023 12.8061C13.9023 13.4061 13.4023 13.8961 12.7923 13.8961C12.2123 13.8961 11.7023 13.4161 11.7023 12.8061Z" />
        </svg>
    