
        <svg xmlns="http://www.w3.org/2000/svg" viewBox="0 0 100 100">
            <path d="M3.3517 17.5467H4.6417C4.5317 17.1467 4.4717 16.7367 4.4717 16.2967C4.4717 13.5967 6.6817 11.4067 9.3917 11.4067C12.0817 11.4067 14.2817 13.5967 14.2817 16.2967C14.2817 16.7367 14.2217 17.1567 14.1317 17.5467H29.6217C29.5217 17.1467 29.4617 16.7367 29.4617 16.2967C29.4617 13.5967 31.6617 11.4067 34.3717 11.4067C37.0617 11.4067 39.2717 13.5967 39.2717 16.2967C39.2717 16.7367 39.2117 17.1467 39.1017 17.5467H42.6917C44.7517 17.5467 46.0317 16.2567 46.0317 14.1167V9.2367C46.0317 7.0767 44.6617 5.7567 42.4617 5.7567H33.1517L32.9317 3.8667C32.6417 1.3267 31.1817 -0.0033 28.6317 -0.0033H23.9317C19.7717 -0.0033 17.4917 0.5767 14.7417 2.2967L11.7517 4.1867L13.5617 6.5367C14.2817 7.4867 14.7217 7.7067 15.8317 7.7067H18.5417V6.7767C18.5417 5.8967 19.3017 5.6367 19.9617 6.0667L22.9017 7.9567C23.5117 8.3467 23.4917 9.0967 22.9017 9.4767L19.9417 11.3767C19.3017 11.7967 18.5417 11.5467 18.5417 10.6767V9.7167H15.8317C14.1417 9.7167 12.9917 9.1267 11.9617 7.7667L10.0417 5.2467L11.7517 4.1867L10.4217 2.4367C9.4017 1.0967 8.2117 0.5767 6.3917 0.5767H3.5417C3.0017 0.5767 2.5417 1.0267 2.5417 1.5867C2.5417 2.1167 3.0017 2.5767 3.5417 2.5767H6.3917C7.7017 2.5767 8.1817 2.7867 8.8517 3.6567L10.0417 5.2467L10.0217 5.2567L5.7117 5.8867C1.8617 6.4367 0.0017 8.1767 0.0017 11.2567V14.1167C0.0017 16.2867 1.2817 17.5467 3.3517 17.5467ZM9.3917 19.7067C11.2717 19.7067 12.7817 18.1967 12.7817 16.2967C12.7817 14.4167 11.2617 12.8867 9.3917 12.8867C7.5017 12.8867 5.9717 14.4167 5.9717 16.2967C5.9717 18.1867 7.5017 19.7067 9.3917 19.7067ZM34.3717 19.7067C36.2417 19.7067 37.7717 18.1867 37.7717 16.2967C37.7717 14.4167 36.2417 12.8867 34.3717 12.8867C32.4817 12.8867 30.9617 14.4267 30.9617 16.2967C30.9617 18.1867 32.4817 19.7067 34.3717 19.7067Z" />
        </svg>
    