
        <svg xmlns="http://www.w3.org/2000/svg" viewBox="0 0 100 100">
            <path d="M2.9917 16.3683H5.0317C5.5617 17.9383 7.0317 19.0383 8.8117 19.0383C10.5917 19.0383 12.0717 17.9383 12.6117 16.3683H29.7617C30.2917 17.9383 31.7717 19.0383 33.5517 19.0383C35.3317 19.0383 36.8017 17.9383 37.3317 16.3683H41.4617C43.3217 16.3683 44.4417 15.2183 44.4417 13.3083V8.4683C44.4417 6.5583 43.3217 5.4183 41.4617 5.4183H31.8517L31.6317 3.4883C31.3617 1.1683 30.0617 -0.0017 27.7517 -0.0017H23.0117C19.2417 -0.0017 16.9217 0.5883 14.3217 2.2283L10.2917 4.7583L6.5317 0.9883C5.8517 0.3083 4.9617 0.0283 3.9017 0.0283H0.8717C0.3317 0.0283 0.0017 0.3483 0.0017 0.8583C0.0017 1.3583 0.3317 1.7083 0.8717 1.7083H4.1017C4.5317 1.7083 4.8717 1.8183 5.1517 2.0983L8.4617 5.3883L5.1517 5.8983C1.6017 6.4383 0.0017 7.9583 0.0017 10.7083V13.3083C0.0017 15.2183 1.1217 16.3683 2.9917 16.3683ZM33.5517 11.0283C31.4917 11.0283 29.8317 12.5083 29.5817 14.4883H12.7817C12.5317 12.5083 10.8717 11.0283 8.8117 11.0283C6.7517 11.0283 5.1017 12.5083 4.8417 14.4883H3.0917C2.3317 14.4883 1.8917 13.9683 1.8917 13.0783V10.7083C1.8917 9.0383 2.9517 8.1483 5.4017 7.7683L10.1717 7.0383L15.3317 3.8283C17.6417 2.3983 19.6517 1.8883 23.0117 1.8883H27.6417C28.9017 1.8883 29.6017 2.5183 29.7417 3.7483L30.1317 7.2983H41.3517C42.1017 7.2983 42.5517 7.8283 42.5517 8.7083V13.0783C42.5517 13.9683 42.1017 14.4883 41.3517 14.4883H37.5217C37.2617 12.5083 35.6117 11.0283 33.5517 11.0283ZM8.8117 17.1583C7.6217 17.1583 6.6917 16.2283 6.6917 15.0383C6.6917 13.8383 7.6217 12.9183 8.8117 12.9183C10.0117 12.9183 10.9317 13.8383 10.9317 15.0383C10.9317 16.2283 10.0117 17.1583 8.8117 17.1583ZM33.5517 17.1583C32.3517 17.1583 31.4317 16.2283 31.4317 15.0383C31.4317 13.8383 32.3517 12.9183 33.5517 12.9183C34.7417 12.9183 35.6717 13.8383 35.6717 15.0383C35.6717 16.2283 34.7417 17.1583 33.5517 17.1583Z" />
        </svg>
    