
        <svg xmlns="http://www.w3.org/2000/svg" viewBox="0 0 100 100">
            <path d="M9.7217 20.3777C11.6617 20.3777 13.2317 19.1477 13.7417 17.4177H20.9017V15.9577H13.9217C13.8317 13.6877 12.0217 11.9577 9.7217 11.9577C7.4017 11.9577 5.6117 13.6877 5.5117 15.9577H3.1417C2.1017 15.9577 1.5317 15.3077 1.5317 14.1677V11.6677C1.5317 9.4477 2.8717 8.2577 6.0017 7.8277L11.2217 7.0777L16.9817 3.4877C18.2917 2.6577 19.5017 2.1177 20.8917 1.7777V0.2777C19.2217 0.6377 17.7917 1.2677 16.2217 2.2477L11.3817 5.2877L6.9517 0.8477C6.3617 0.2477 5.6117 -0.0023 4.6217 -0.0023H0.6817C0.2717 -0.0023 0.0017 0.2577 0.0017 0.6477C0.0017 1.0477 0.2717 1.3077 0.6817 1.3077H4.7617C5.2617 1.3077 5.5817 1.4277 5.8717 1.7077L9.9517 5.7977L5.8117 6.3877C1.8117 6.9477 0.0717 8.5977 0.0717 11.6677V14.3277C0.0717 16.3077 1.1417 17.4177 3.0717 17.4177H5.6817C6.2017 19.1477 7.7817 20.3777 9.7217 20.3777ZM9.7217 18.9177C8.1717 18.9177 6.9617 17.7177 6.9617 16.1577C6.9617 14.6177 8.1717 13.4077 9.7217 13.4077C11.2717 13.4077 12.4817 14.6177 12.4817 16.1577C12.4817 17.7177 11.2717 18.9177 9.7217 18.9177Z" />
        </svg>
    