
        <svg xmlns="http://www.w3.org/2000/svg" viewBox="0 0 100 100">
            <path d="M1.5017 1.9914H5.4017C5.8817 1.9914 6.2117 2.1114 6.5017 2.4014L10.1717 6.0714L6.1517 6.6714C1.9717 7.2814 0.0017 9.1314 0.0017 12.4314V15.6414C0.0017 17.9514 1.3617 19.3114 3.6017 19.3114H5.1317C5.0117 18.8814 4.9417 18.4414 4.9417 17.9814C4.9417 15.0314 7.3317 12.6714 10.2817 12.6714C13.2217 12.6714 15.6017 15.0314 15.6017 17.9814C15.6017 18.4414 15.5317 18.8914 15.4317 19.3114H21.5417V0.4614C19.6617 0.8314 18.0917 1.5114 16.3817 2.5914L12.2117 5.2014L8.0117 1.0214C7.3017 0.3014 6.4617 0.0014 5.2617 0.0014H1.5017C0.8717 0.0014 0.4717 0.4014 0.4717 0.9814C0.4717 1.5714 0.8717 1.9914 1.5017 1.9914ZM10.2817 21.8214C12.4117 21.8214 14.1117 20.1214 14.1117 17.9814C14.1117 15.8514 12.4017 14.1414 10.2817 14.1414C8.1417 14.1414 6.4317 15.8514 6.4317 17.9814C6.4317 20.1114 8.1417 21.8214 10.2817 21.8214Z" />
        </svg>
    