
        <svg xmlns="http://www.w3.org/2000/svg" viewBox="0 0 100 100">
            <path d="M23.1317 10.4031C23.9217 10.4031 24.4417 9.9031 24.4817 9.0831L24.7217 1.5931C24.7617 0.6431 24.1217 0.0031 23.1217 0.0031C22.1117 0.0031 21.4717 0.6431 21.5017 1.5931L21.7617 9.0931C21.8017 9.9031 22.3217 10.4031 23.1317 10.4031ZM3.3517 22.1931H5.3517C6.0017 23.7731 7.5517 24.8631 9.3917 24.8631C11.2117 24.8631 12.7617 23.7731 13.4017 22.1931H30.3417C30.9817 23.7731 32.5317 24.8631 34.3717 24.8631C36.2017 24.8631 37.7417 23.7731 38.3917 22.1931H42.6917C44.7517 22.1931 46.0317 20.8931 46.0317 18.7631V13.7231C46.0317 11.5531 44.6617 10.2331 42.4617 10.2331H33.1017L32.9317 8.6831C32.6417 6.1431 31.1817 4.8131 28.6317 4.8131H26.1217L26.0117 7.3931H28.6017C29.6417 7.3931 30.2117 7.9031 30.3317 8.9031L30.7617 12.7931H42.3717C43.0617 12.7931 43.4617 13.2631 43.4617 14.0431V18.3831C43.4617 19.1631 43.0617 19.6131 42.3717 19.6131H38.6117C38.2017 17.6331 36.4817 16.1731 34.3717 16.1731C32.2617 16.1731 30.5317 17.6331 30.1217 19.6131H13.6317C13.2217 17.6331 11.4917 16.1731 9.3917 16.1731C7.2817 16.1731 5.5417 17.6331 5.1317 19.6131H3.6717C2.9917 19.6131 2.5817 19.1631 2.5817 18.3831V16.0731C2.5817 14.4531 3.5617 13.6131 6.0317 13.2531L10.9017 12.5631L16.1117 9.3131C17.4917 8.4531 18.7117 7.9531 20.2417 7.7031L20.1217 5.0831C18.0917 5.3831 16.5117 6.0131 14.7417 7.1131L10.0217 10.0731L5.7117 10.7031C1.8617 11.2531 0.0017 12.9931 0.0017 16.0731V18.7631C0.0017 20.9431 1.2817 22.1931 3.3517 22.1931ZM23.1317 15.8431C24.1617 15.8431 24.9517 15.0931 24.9517 14.1231C24.9517 13.1331 24.1717 12.4031 23.1317 12.4031C22.0817 12.4031 21.2817 13.1331 21.2817 14.1231C21.2817 15.0931 22.0817 15.8431 23.1317 15.8431ZM9.3917 22.4431C8.3217 22.4431 7.4917 21.6131 7.4917 20.5431C7.4917 19.4731 8.3217 18.6531 9.3917 18.6531C10.4417 18.6531 11.2717 19.4731 11.2717 20.5431C11.2717 21.6131 10.4417 22.4431 9.3917 22.4431ZM34.3717 22.4431C33.3017 22.4431 32.4717 21.6131 32.4717 20.5431C32.4717 19.4731 33.3017 18.6531 34.3717 18.6531C35.4217 18.6531 36.2617 19.4731 36.2617 20.5431C36.2617 21.6131 35.4217 22.4431 34.3717 22.4431Z" />
        </svg>
    