
        <svg xmlns="http://www.w3.org/2000/svg" viewBox="0 0 100 100">
            <path d="M20.7217 12.045H26.1517C27.1517 12.045 27.6717 11.515 27.6717 10.445V6.245C27.6717 5.275 27.2317 4.755 26.4017 4.675V3.255C26.4017 2.105 27.1017 1.375 28.1917 1.375C29.2817 1.375 29.9917 2.105 29.9917 3.255V4.525C29.9917 4.915 30.3017 5.215 30.6917 5.215C31.0617 5.215 31.3817 4.915 31.3817 4.525V3.425C31.3817 1.335 30.1317 -0.005 28.1917 -0.005C26.2717 -0.005 25.0217 1.335 25.0217 3.425V4.665H20.7217C19.7317 4.665 19.2217 5.175 19.2217 6.245V10.445C19.2217 11.515 19.7317 12.045 20.7217 12.045ZM3.1917 24.595H5.2117C5.8117 26.175 7.3217 27.285 9.1417 27.285C10.9417 27.285 12.4617 26.175 13.0517 24.595H30.0917C30.6917 26.175 32.2017 27.285 34.0117 27.285C35.8217 27.285 37.3317 26.175 37.9317 24.595H42.1517C44.1317 24.595 45.3417 23.365 45.3417 21.335V16.385C45.3417 14.325 44.0717 13.075 42.0217 13.075H32.5617L32.3717 11.365C32.1217 9.295 31.0917 8.075 29.5217 7.815L29.2817 7.805V9.765C29.2817 10.075 29.2017 10.375 29.0817 10.585L29.2817 10.665C29.7517 10.885 30.0517 11.375 30.1317 12.085L30.4817 15.355H41.9317C42.6417 15.355 43.0817 15.835 43.0817 16.665V21.015C43.0817 21.835 42.6417 22.325 41.9317 22.325H38.1417C37.7917 20.345 36.1017 18.875 34.0117 18.875C31.9217 18.875 30.2217 20.345 29.8817 22.325H13.2617C12.9217 20.345 11.2217 18.875 9.1417 18.875C7.0417 18.875 5.3517 20.345 5.0017 22.325H3.4117C2.7117 22.325 2.2717 21.835 2.2717 21.015V18.695C2.2717 17.035 3.2917 16.175 5.7517 15.805L10.5817 15.105L15.7717 11.875C16.2617 11.565 17.0017 11.165 17.5517 10.935C17.5317 10.755 17.5117 10.605 17.5117 10.415V8.485C16.5817 8.805 15.4317 9.375 14.5617 9.925L9.8117 12.915L5.4717 13.545C1.7417 14.095 0.0017 15.735 0.0017 18.695V21.335C0.0017 23.395 1.2117 24.595 3.1917 24.595ZM9.1417 25.085C8.0117 25.085 7.1517 24.215 7.1517 23.085C7.1517 21.975 8.0117 21.095 9.1417 21.095C10.2517 21.095 11.1317 21.975 11.1317 23.085C11.1317 24.215 10.2517 25.085 9.1417 25.085ZM34.0117 25.085C32.8917 25.085 32.0117 24.215 32.0117 23.085C32.0117 21.975 32.8917 21.095 34.0117 21.095C35.1317 21.095 36.0117 21.975 36.0117 23.085C36.0117 24.215 35.1317 25.085 34.0117 25.085Z" />
        </svg>
    