
        <svg xmlns="http://www.w3.org/2000/svg" viewBox="0 0 100 100">
            <path d="M20.1017 11.8792H25.4017C26.3917 11.8792 26.9017 11.3592 26.9017 10.2892V6.2092C26.9017 5.3392 26.5617 4.8292 25.8917 4.6792V3.4292C25.8917 1.3192 24.6717 -0.0008 22.7417 -0.0008C20.8317 -0.0008 19.6017 1.3192 19.6017 3.4292V4.6792C18.9417 4.8292 18.5817 5.3392 18.5817 6.2092V10.2892C18.5817 11.3592 19.1017 11.8792 20.1017 11.8792ZM20.8817 3.2392C20.8817 2.0292 21.6117 1.2692 22.7417 1.2692C23.8917 1.2692 24.6217 2.0292 24.6217 3.2392V4.6292H20.8817ZM2.9917 24.3192H4.4517C4.3717 23.9492 4.3117 23.5992 4.3117 23.2192C4.3117 20.7192 6.3317 18.7192 8.8117 18.7192C11.3117 18.7192 13.3117 20.7192 13.3117 23.2192C13.3117 23.5992 13.2617 23.9692 13.1817 24.3192H29.1917C29.1017 23.9492 29.0517 23.5992 29.0517 23.2192C29.0517 20.7292 31.0617 18.7192 33.5517 18.7192C36.0517 18.7192 38.0517 20.7192 38.0517 23.2192C38.0517 23.5992 38.0017 23.9492 37.9117 24.3192H41.4617C43.3217 24.3192 44.4417 23.1692 44.4417 21.2592V16.6492C44.4417 14.7392 43.3217 13.5892 41.4617 13.5892H31.9117L31.6317 11.1992C31.3617 8.9892 30.1717 8.0192 28.7417 7.8092L28.5017 7.7892V10.2892C28.5017 12.2392 27.2817 13.4792 25.3917 13.4792H20.0817C18.2017 13.4792 16.9817 12.2392 16.9817 10.2892V8.5192C16.3217 8.8392 15.1417 9.4192 14.3217 9.9392L9.5317 12.9392L5.1517 13.6092C1.6017 14.1492 0.0017 15.6692 0.0017 18.4192V21.2592C0.0017 23.1692 1.1217 24.3192 2.9917 24.3192ZM8.8117 26.3392C10.5717 26.3392 11.9517 24.9592 11.9517 23.2192C11.9517 21.4692 10.5617 20.0692 8.8117 20.0692C7.0817 20.0692 5.6817 21.4692 5.6817 23.2192C5.6817 24.9492 7.0817 26.3392 8.8117 26.3392ZM33.5517 26.3392C35.3017 26.3392 36.6917 24.9492 36.6917 23.2192C36.6917 21.4692 35.3017 20.0692 33.5517 20.0692C31.8117 20.0692 30.4117 21.4792 30.4117 23.2192C30.4117 24.9492 31.8017 26.3392 33.5517 26.3392Z" />
        </svg>
    