
        <svg xmlns="http://www.w3.org/2000/svg" viewBox="0 0 100 100">
            <path d="M2.2517 14.4605H4.1817C4.1417 14.2105 4.1117 13.9605 4.1117 13.7005C4.1117 11.3305 5.9717 9.4705 8.3317 9.4705C10.7017 9.4705 12.5617 11.3305 12.5617 13.7005C12.5617 13.9605 12.5417 14.2105 12.4917 14.4605H28.4017C28.3617 14.2105 28.3317 13.9605 28.3317 13.7005C28.3317 11.3305 30.2017 9.4705 32.5517 9.4705C34.9217 9.4705 36.7817 11.3305 36.7817 13.7005C36.7817 13.9605 36.7617 14.2105 36.7117 14.4605H40.8917C42.3917 14.4605 43.1217 13.7005 43.1217 12.1405V7.7205C43.1217 6.1805 42.3917 5.4005 40.8917 5.4005H30.3617L30.0517 2.6605C29.8617 0.9505 28.7817 0.0005 27.1017 0.0005H22.3617C18.5417 0.0005 16.8517 0.3705 14.5117 1.8605L9.5417 4.9905L5.2017 5.5205C1.7217 5.9505 0.0017 7.5205 0.0017 10.2305V12.1405C0.0017 13.7005 0.7417 14.4605 2.2517 14.4605ZM15.5117 6.9605C15.5117 5.3005 16.7917 4.1105 18.6217 4.1105H25.1917C25.3617 4.1105 25.4917 4.2505 25.4917 4.4105C25.4917 4.5705 25.3717 4.6905 25.2217 4.7005H18.6217C17.1717 4.7005 16.1417 5.6705 16.1417 7.0505C16.1417 8.3205 17.1517 9.2005 18.6117 9.2005H23.3117V7.4205C23.3117 7.1105 23.5317 7.0005 23.8217 7.2105L26.6617 9.2005C26.9217 9.3705 26.9217 9.5905 26.6717 9.7505L23.8017 11.7705C23.5117 11.9605 23.3117 11.8505 23.3117 11.5405V9.7605H18.6117C16.7917 9.7605 15.5117 8.6005 15.5117 6.9605ZM8.3317 17.0305C10.2117 17.0305 11.6717 15.5605 11.6717 13.7005C11.6717 11.8205 10.2117 10.3605 8.3317 10.3605C6.4717 10.3605 5.0017 11.8205 5.0017 13.7005C5.0017 15.5605 6.4717 17.0305 8.3317 17.0305ZM32.5517 17.0305C34.4317 17.0305 35.8917 15.5605 35.8917 13.7005C35.8917 11.8205 34.4317 10.3605 32.5517 10.3605C30.6917 10.3605 29.2117 11.8205 29.2117 13.7005C29.2117 15.5605 30.6917 17.0305 32.5517 17.0305Z" />
        </svg>
    