
        <svg xmlns="http://www.w3.org/2000/svg" viewBox="0 0 100 100">
            <path d="M4.1417 20.3039H5.0417C4.9117 19.8239 4.8317 19.3039 4.8317 18.7739C4.8317 15.5939 7.4317 13.0239 10.6017 13.0239C13.7617 13.0239 16.3617 15.5939 16.3617 18.7739C16.3617 19.3039 16.2917 19.8239 16.1517 20.3039H30.5617C30.4217 19.8239 30.3517 19.3039 30.3517 18.7739C30.3517 15.6139 32.9517 13.0239 36.1217 13.0239C39.2817 13.0239 41.8717 15.5939 41.8717 18.7739C41.8717 19.3039 41.8017 19.8239 41.6717 20.3039H45.3317C47.8317 20.3039 49.4517 18.7139 49.4517 16.1139V10.6239C49.4517 7.9239 47.5417 6.2339 44.6017 6.2339H35.8217L35.7417 5.4539C35.3917 2.4239 33.5717 0.7739 30.5317 0.7739H25.8917C20.9217 0.7739 18.7117 1.3039 15.6517 3.2239L12.4617 5.2239L8.4817 1.2639C7.5817 0.3839 6.9117 0.0039 5.1317 0.0039H1.7717C0.7617 0.0039 0.0617 0.7039 0.0617 1.6739C0.0617 2.6339 0.7517 3.3639 1.7717 3.3639H5.0117C5.6517 3.3639 5.9317 3.5239 6.2917 3.9039L8.7617 6.3839L6.9017 6.6239C2.4017 7.1739 0.0017 9.3939 0.0017 13.2039V16.1139C0.0017 18.8539 1.6317 20.3039 4.1417 20.3039ZM10.6017 22.7539C12.7817 22.7539 14.5917 20.9739 14.5917 18.7739C14.5917 16.5839 12.7817 14.7939 10.6017 14.7939C8.4017 14.7939 6.6017 16.5839 6.6017 18.7739C6.6017 20.9739 8.4017 22.7539 10.6017 22.7539ZM36.1217 22.7539C38.3117 22.7539 40.1017 20.9739 40.1017 18.7739C40.1017 16.5839 38.3117 14.7939 36.1217 14.7939C33.9217 14.7939 32.1217 16.5839 32.1217 18.7739C32.1217 20.9739 33.9217 22.7539 36.1217 22.7539Z" />
        </svg>
    