
        <svg xmlns="http://www.w3.org/2000/svg" viewBox="0 0 100 100">
            <path d="M4.1417 20.2839H6.1217C6.9717 21.8939 8.6617 22.9839 10.6017 22.9839C12.5317 22.9839 14.2117 21.8939 15.0717 20.2839H31.6417C32.4917 21.8939 34.1817 22.9839 36.1217 22.9839C38.0517 22.9839 39.7417 21.8939 40.5917 20.2839H45.3317C47.8317 20.2839 49.4517 18.6939 49.4517 16.0739V10.5839C49.4517 7.8639 47.5417 6.1839 44.6017 6.1839H35.8217L35.7417 5.4539C35.3917 2.4239 33.5717 0.7739 30.5317 0.7739H25.8917C20.9217 0.7739 18.7117 1.3039 15.6517 3.2239L12.4217 5.2539L8.4217 1.2639C7.5217 0.3839 6.8717 0.0039 5.0717 0.0039H1.7217C0.7017 0.0039 0.0017 0.7039 0.0017 1.6739C0.0017 2.6339 0.6917 3.3639 1.7217 3.3639H4.9617C5.5917 3.3639 5.8717 3.5239 6.2317 3.9039L8.7217 6.3839L6.9017 6.6239C2.4017 7.1739 0.0017 9.3939 0.0017 13.2039V16.0739C0.0017 18.8339 1.6317 20.2839 4.1417 20.2839ZM36.1217 12.8339C33.9117 12.8339 32.0317 14.2539 31.3217 16.2439H15.3717C14.6817 14.2539 12.8117 12.8339 10.6017 12.8339C8.3917 12.8339 6.5017 14.2539 5.8117 16.2439H4.9017C4.3717 16.2439 4.0517 15.9039 4.0517 15.3739V13.2039C4.0517 11.6739 4.8917 10.9539 7.4017 10.6439L12.4717 9.9939L17.8117 6.6839C20.2517 5.1539 21.6017 4.8239 25.8917 4.8239H30.6717C31.2117 4.8239 31.5217 5.0639 31.5917 5.6039L32.1117 10.2039H44.5917C45.1017 10.2039 45.4317 10.5339 45.4317 11.0739V15.3739C45.4317 15.9039 45.1017 16.2439 44.5917 16.2439H40.9017C40.2117 14.2539 38.3217 12.8339 36.1217 12.8339ZM10.6017 19.3839C9.8117 19.3839 9.2017 18.7639 9.2017 17.9739C9.2017 17.1839 9.8117 16.5739 10.6017 16.5739C11.3817 16.5739 12.0117 17.1839 12.0117 17.9739C12.0117 18.7639 11.3817 19.3839 10.6017 19.3839ZM36.1217 19.3839C35.3317 19.3839 34.7117 18.7639 34.7117 17.9739C34.7117 17.1839 35.3317 16.5739 36.1217 16.5739C36.8917 16.5739 37.5217 17.1839 37.5217 17.9739C37.5217 18.7639 36.8917 19.3839 36.1217 19.3839Z" />
        </svg>
    