
        <svg xmlns="http://www.w3.org/2000/svg" viewBox="0 0 100 100">
            <path d="M2.4117 14.9548H4.2417C4.1917 14.6848 4.1617 14.4048 4.1617 14.1048C4.1617 11.7148 6.0617 9.8248 8.4517 9.8248C10.8417 9.8248 12.7417 11.7148 12.7417 14.1048C12.7417 14.4048 12.7017 14.6848 12.6417 14.9548H28.5817C28.5217 14.6848 28.4917 14.4048 28.4917 14.1048C28.4917 11.7148 30.4017 9.8248 32.7917 9.8248C35.1817 9.8248 37.0817 11.7148 37.0817 14.1048C37.0817 14.4048 37.0417 14.6848 36.9817 14.9548H41.0117C42.6017 14.9548 43.4317 14.0948 43.4317 12.4648V8.0048C43.4317 6.3748 42.6017 5.5148 41.0117 5.5148H30.7117L30.4117 2.8448C30.2017 1.0048 29.0717 0.0048 27.2617 0.0048H22.5117C18.6917 0.0048 16.8717 0.4348 14.4717 1.9448L10.7617 4.2748L12.2317 6.1948C12.9117 7.0748 13.4917 7.4048 14.5117 7.4048H17.3717V5.9248C17.3717 5.5348 17.7517 5.4048 18.0717 5.6148L20.9317 7.4548C21.2617 7.6548 21.2417 8.0048 20.9417 8.2048L18.0617 10.0448C17.7517 10.2448 17.3717 10.1248 17.3717 9.7248V8.2748H14.5117C13.1917 8.2748 12.3717 7.8248 11.5417 6.7548L10.0317 4.7448L10.7617 4.2748L8.7917 1.7148C7.9917 0.6648 7.1117 0.2648 5.6817 0.2648H2.5217C2.2817 0.2648 2.0817 0.4548 2.0817 0.7048C2.0817 0.9348 2.2817 1.1348 2.5217 1.1348H5.6817C6.8817 1.1348 7.5217 1.4248 8.1317 2.2348L10.0317 4.7448L9.5417 5.0548L5.1917 5.6148C1.7017 6.0748 0.0017 7.6248 0.0017 10.3448V12.4648C0.0017 14.0948 0.8317 14.9548 2.4117 14.9548ZM8.4517 17.4048C10.2917 17.4048 11.7417 15.9448 11.7417 14.1048C11.7417 12.2648 10.2917 10.8148 8.4517 10.8148C6.6017 10.8148 5.1517 12.2648 5.1517 14.1048C5.1517 15.9448 6.6017 17.4048 8.4517 17.4048ZM32.7917 17.4048C34.6317 17.4048 36.0817 15.9448 36.0817 14.1048C36.0817 12.2648 34.6317 10.8148 32.7917 10.8148C30.9517 10.8148 29.4817 12.2648 29.4817 14.1048C29.4817 15.9448 30.9417 17.4048 32.7917 17.4048Z" />
        </svg>
    