
        <svg xmlns="http://www.w3.org/2000/svg" viewBox="0 0 100 100">
            <path d="M2.7417 15.8884H4.3717C4.2917 15.5584 4.2417 15.2484 4.2417 14.8984C4.2417 12.4484 6.2117 10.4884 8.6617 10.4884C11.1117 10.4884 13.0617 12.4484 13.0617 14.8984C13.0617 15.2484 13.0217 15.5784 12.9517 15.8884H28.9317C28.8517 15.5584 28.8017 15.2484 28.8017 14.8984C28.8017 12.4584 30.7817 10.4884 33.2217 10.4884C35.6717 10.4884 37.6317 12.4484 37.6317 14.8984C37.6317 15.2484 37.5817 15.5584 37.5117 15.8884H41.2617C43.0117 15.8884 44.0017 14.8584 44.0017 13.0784V8.5284C44.0017 6.7484 43.0117 5.7184 41.2617 5.7184H31.3917L31.1017 3.2084C30.8517 1.0884 29.6417 -0.0016 27.5417 -0.0016H22.8017C19.0117 -0.0016 16.9017 0.5184 14.3917 2.0984L9.5417 5.1484L5.1817 5.7684C1.6417 6.2684 0.0017 7.8184 0.0017 10.5484V13.0784C0.0017 14.8584 0.9917 15.8884 2.7417 15.8884ZM18.3617 12.7984C17.8117 12.7984 17.5917 12.3384 17.8717 11.8784L20.4117 7.7084C20.6917 7.2384 21.2417 7.2584 21.5117 7.7084L24.0817 11.8984C24.3617 12.3484 24.1417 12.7984 23.5917 12.7984ZM8.6617 18.0984C10.4517 18.0984 11.8617 16.6884 11.8617 14.8984C11.8617 13.1084 10.4417 11.6984 8.6617 11.6984C6.8717 11.6984 5.4517 13.1084 5.4517 14.8984C5.4517 16.6784 6.8717 18.0984 8.6617 18.0984ZM33.2217 18.0984C35.0017 18.0984 36.4217 16.6784 36.4217 14.8984C36.4217 13.1084 35.0017 11.6984 33.2217 11.6984C31.4417 11.6984 30.0117 13.1084 30.0117 14.8984C30.0117 16.6784 31.4317 18.0984 33.2217 18.0984Z" />
        </svg>
    