
        <svg xmlns="http://www.w3.org/2000/svg" viewBox="0 0 100 100">
            <path d="M8.7525 22.5962L10.0325 21.8562C9.8825 21.6862 9.7525 21.5062 9.6325 21.2962C8.6625 19.6162 9.2225 17.5262 10.9025 16.5462C12.5725 15.5862 14.6825 16.1462 15.6425 17.8262C15.7625 18.0262 15.8525 18.2362 15.9225 18.4462L27.1025 12.0062C26.9525 11.8262 26.8225 11.6462 26.7125 11.4362C25.7325 9.7662 26.3025 7.6662 27.9725 6.6962C29.6525 5.7262 31.7625 6.2862 32.7225 7.9762C32.8325 8.1662 32.9325 8.3862 33.0025 8.5962L35.8225 6.9662C36.9425 6.3162 37.1725 5.3862 36.5125 4.2462L34.7025 1.1162C34.0425 -0.0338 33.1225 -0.3038 32.0025 0.3462L24.7825 4.5162L23.4825 2.7662C22.5925 1.5562 21.4025 1.3162 20.1225 2.0562L16.7925 3.9662C14.1125 5.5062 13.0125 6.5562 11.9425 8.5962L9.7425 12.7662L6.9125 14.9162C4.6525 16.6562 4.0925 18.4362 5.1925 20.3462L6.0525 21.8362C6.7125 22.9762 7.6425 23.2362 8.7525 22.5962ZM31.0425 12.0162C32.3325 11.2662 32.7625 9.6562 32.0325 8.3662C31.2825 7.0762 29.6725 6.6462 28.3825 7.3962C27.0825 8.1362 26.6625 9.7562 27.4025 11.0462C28.1525 12.3262 29.7525 12.7662 31.0425 12.0162ZM7.3125 28.7262C7.4425 28.9462 7.7125 29.0162 7.9225 28.8962L39.6725 10.5962C39.8725 10.4762 39.9525 10.2462 39.8325 10.0362C39.6925 9.7962 39.4225 9.7362 39.2225 9.8462L7.4625 28.1462C7.2625 28.2662 7.2125 28.5262 7.3125 28.7262ZM13.9725 21.8662C15.2725 21.1162 15.6925 19.5262 14.9525 18.2262C14.2025 16.9362 12.6025 16.5062 11.3125 17.2562C10.0125 17.9862 9.5825 19.5962 10.3225 20.8962C11.0725 22.1862 12.6825 22.6162 13.9725 21.8662ZM4.2425 23.6762L2.2825 20.2762C2.0625 19.8862 1.6425 19.9462 1.4625 20.3462L0.0625 23.3462C-0.1075 23.6962 0.0825 24.0262 0.4825 24.0762L3.7725 24.3462C4.1825 24.3862 4.4725 24.0662 4.2425 23.6762Z" />
        </svg>
    