
        <svg xmlns="http://www.w3.org/2000/svg" viewBox="0 0 100 100">
            <path d="M12.0862 25.2148L13.4362 24.4348C14.5862 25.2148 16.1162 25.3048 17.4062 24.5648C18.6862 23.8348 19.3662 22.4448 19.2762 21.0648L30.5662 14.5348C31.7162 15.3148 33.2562 15.4148 34.5462 14.6748C35.8262 13.9248 36.5062 12.5448 36.4162 11.1648L39.4962 9.3848C41.0962 8.4648 41.5262 6.8748 40.5762 5.2248L38.4862 1.6148C37.5062 -0.0852 35.7362 -0.4652 33.9362 0.5848L27.8462 4.0848L27.3662 3.4348C26.0362 1.6348 24.2862 1.2548 22.3562 2.3748L19.2062 4.2048C16.0362 6.0248 14.7362 7.2748 13.4662 9.6748L11.4662 13.4448L8.8262 15.4748C6.1562 17.5148 5.4662 19.7648 6.8462 22.1648L7.9562 24.0648C8.9462 25.7748 10.4962 26.1248 12.0862 25.2148ZM10.0962 22.2848L9.2262 20.7848C8.6162 19.7248 8.9262 18.8648 10.4862 17.6648L13.6162 15.2648L15.9062 10.9648C16.9562 9.0148 17.8162 8.1648 20.5762 6.5848L23.7862 4.7248C24.2662 4.4448 24.6762 4.5148 25.0162 4.9648L27.0462 7.7148L35.2662 2.9548C35.6662 2.7348 36.0562 2.8548 36.2862 3.2748L37.9762 6.1948C38.2162 6.6148 38.1262 7.0048 37.7362 7.2348L35.2362 8.6748C34.0462 7.5648 32.2562 7.3148 30.7762 8.1648C29.3162 9.0048 28.6362 10.6948 28.9962 12.2748L18.0862 18.5648C16.9162 17.4648 15.1162 17.2048 13.6462 18.0548C12.1662 18.9048 11.4862 20.5948 11.8662 22.1648L11.1162 22.5948C10.7262 22.8248 10.3462 22.7048 10.0962 22.2848ZM33.2962 12.5248C32.7062 12.8748 31.9662 12.6748 31.6162 12.0648C31.2562 11.4648 31.4562 10.7248 32.0662 10.3748C32.6562 10.0348 33.4062 10.2348 33.7562 10.8348C34.1062 11.4348 33.8962 12.1848 33.2962 12.5248ZM8.7562 33.2648C9.2562 34.0848 10.2962 34.3748 11.0962 33.9048L44.1762 14.8148C44.9662 14.3448 45.2562 13.3148 44.7962 12.5048C44.2962 11.6748 43.2462 11.3948 42.4662 11.8548L9.3862 30.9448C8.5862 31.4148 8.3062 32.4548 8.7562 33.2648ZM16.1662 22.4148C15.5662 22.7648 14.8162 22.5648 14.4762 21.9648C14.1262 21.3548 14.3262 20.6148 14.9262 20.2648C15.5262 19.9248 16.2762 20.1248 16.6262 20.7248C16.9662 21.3248 16.7662 22.0748 16.1662 22.4148ZM5.9462 27.0648L3.3562 22.5448C2.8062 21.5848 1.6362 21.8348 1.3162 22.7748L0.0662 26.5448C-0.1438 27.2148 0.1662 27.7548 0.8362 27.8948L4.7262 28.6948C5.7262 28.9048 6.5062 28.0248 5.9462 27.0648Z" />
        </svg>
    