
        <svg xmlns="http://www.w3.org/2000/svg" viewBox="0 0 100 100">
            <path d="M21.1717 12.1756H26.7117C27.7017 12.1756 28.2217 11.6456 28.2217 10.5656V6.2856C28.2217 5.3056 27.8017 4.7956 26.9717 4.6956V3.2856C26.9717 2.1756 27.6717 1.4556 28.7117 1.4556C29.7617 1.4556 30.4417 2.1756 30.4417 3.2856V4.5156C30.4417 4.9256 30.7817 5.2456 31.1817 5.2456C31.5917 5.2456 31.9217 4.9256 31.9217 4.5156V3.4256C31.9217 1.3456 30.6517 -0.0044 28.7117 -0.0044C26.7817 -0.0044 25.5017 1.3456 25.5017 3.4256V4.6856H21.1717C20.1817 4.6856 19.6617 5.2156 19.6617 6.2856V10.5656C19.6617 11.6456 20.1817 12.1756 21.1717 12.1756ZM3.3517 25.1756H4.6417C4.5317 24.7756 4.4717 24.3656 4.4717 23.9256C4.4717 21.2256 6.6817 19.0356 9.3917 19.0356C12.0817 19.0356 14.2817 21.2256 14.2817 23.9256C14.2817 24.3656 14.2217 24.7856 14.1317 25.1756H29.6217C29.5217 24.7756 29.4617 24.3656 29.4617 23.9256C29.4617 21.2256 31.6617 19.0356 34.3717 19.0356C37.0617 19.0356 39.2717 21.2256 39.2717 23.9256C39.2717 24.3656 39.2117 24.7756 39.1017 25.1756H42.6917C44.7517 25.1756 46.0317 23.8856 46.0317 21.7456V16.8656C46.0317 14.7056 44.6617 13.3856 42.4617 13.3856H33.1517L32.9317 11.4956C32.6717 9.3156 31.5817 8.2156 30.0917 7.8556L29.8817 7.8156V10.5856C29.8817 12.5956 28.6017 13.8856 26.6717 13.8856H21.1317C19.1817 13.8856 17.9217 12.5956 17.9217 10.5856V8.3556C16.9917 8.6856 15.7717 9.2956 14.7417 9.9256L10.0217 12.8856L5.7117 13.5156C1.8617 14.0656 0.0017 15.8056 0.0017 18.8856V21.7456C0.0017 23.9156 1.2817 25.1756 3.3517 25.1756ZM9.3917 27.3356C11.2717 27.3356 12.7817 25.8256 12.7817 23.9256C12.7817 22.0456 11.2617 20.5156 9.3917 20.5156C7.5017 20.5156 5.9717 22.0456 5.9717 23.9256C5.9717 25.8156 7.5017 27.3356 9.3917 27.3356ZM34.3717 27.3356C36.2417 27.3356 37.7717 25.8156 37.7717 23.9256C37.7717 22.0456 36.2417 20.5156 34.3717 20.5156C32.4817 20.5156 30.9617 22.0556 30.9617 23.9256C30.9617 25.8156 32.4817 27.3356 34.3717 27.3356Z" />
        </svg>
    