
        <svg xmlns="http://www.w3.org/2000/svg" viewBox="0 0 100 100">
            <path d="M21.7417 12.3297H27.4017C28.3917 12.3297 28.9117 11.8097 28.9117 10.7297V6.3197C28.9117 5.3997 28.5317 4.8997 27.8217 4.7597V3.4097C27.8217 1.3597 26.5217 -0.0003 24.5617 -0.0003C22.6217 -0.0003 21.3117 1.3597 21.3117 3.4097V4.7597C20.5917 4.8997 20.2217 5.4097 20.2217 6.3197V10.7297C20.2217 11.8097 20.7417 12.3297 21.7417 12.3297ZM22.9117 3.2997C22.9117 2.2597 23.5617 1.5697 24.5617 1.5697C25.5617 1.5697 26.2217 2.2597 26.2217 3.2997V4.7197H22.9117ZM3.5617 25.6397H4.7417C4.6417 25.2197 4.5717 24.7697 4.5717 24.3197C4.5717 21.4897 6.8817 19.1997 9.7017 19.1997C12.5417 19.1997 14.8317 21.4897 14.8317 24.3197C14.8317 24.7697 14.7817 25.2297 14.6717 25.6397H29.8717C29.7617 25.2197 29.6917 24.7697 29.6917 24.3197C29.6917 21.4897 32.0117 19.1997 34.8417 19.1997C37.6617 19.1997 39.9617 21.4897 39.9617 24.3197C39.9617 24.7697 39.9017 25.2197 39.7817 25.6397H43.3917C45.5717 25.6397 46.9417 24.2697 46.9417 22.0097V16.9697C46.9417 14.6597 45.4317 13.2397 43.0317 13.2397H33.8717L33.6817 11.6497C33.4317 9.4797 32.3917 8.3097 30.8717 7.8497L30.6717 7.8197V10.7297C30.6717 12.7997 29.3717 14.0997 27.4017 14.0997H21.7217C19.7417 14.0997 18.4417 12.7997 18.4417 10.7297V8.2497C17.3917 8.5897 16.1417 9.1997 14.9917 9.8997L10.3017 12.8397L6.0217 13.4397C2.0017 13.9897 0.0017 15.8697 0.0017 19.1497V22.0097C0.0017 24.3397 1.3717 25.6397 3.5617 25.6397ZM9.7017 27.8797C11.6717 27.8797 13.2617 26.2997 13.2617 24.3197C13.2617 22.3497 11.6717 20.7697 9.7017 20.7697C7.7317 20.7697 6.1417 22.3497 6.1417 24.3197C6.1417 26.2897 7.7317 27.8797 9.7017 27.8797ZM34.8417 27.8797C36.8017 27.8797 38.3917 26.2897 38.3917 24.3197C38.3917 22.3497 36.8017 20.7697 34.8417 20.7697C32.8717 20.7697 31.2617 22.3597 31.2617 24.3197C31.2617 26.2897 32.8717 27.8797 34.8417 27.8797Z" />
        </svg>
    