
        <svg xmlns="http://www.w3.org/2000/svg" viewBox="0 0 100 100">
            <path d="M4.0939 5.4776L6.5639 1.2176C6.9739 0.5076 6.4039 -0.1224 5.6739 0.0176L1.9039 0.7076C1.3839 0.8076 1.1539 1.2076 1.3339 1.7076L2.6139 5.3176C2.8639 6.0176 3.6839 6.1976 4.0939 5.4776ZM7.7139 9.2976L8.7439 9.8876C8.8239 9.6076 8.9339 9.3276 9.0839 9.0576C10.0939 7.3076 12.3139 6.7076 14.0639 7.7176C15.8239 8.7276 16.4039 10.9576 15.4039 12.6976C15.2439 12.9776 15.0639 13.2176 14.8639 13.4276L26.0839 19.9076C26.1739 19.6276 26.2839 19.3476 26.4439 19.0776C27.4439 17.3376 29.6839 16.7276 31.4239 17.7376C33.1639 18.7476 33.7639 20.9776 32.7539 22.7176C32.6039 22.9876 32.4139 23.2276 32.2039 23.4376L34.7039 24.8776C36.0039 25.6276 37.2539 25.2776 38.0339 23.9376L39.8939 20.7176C40.6639 19.3676 40.3539 18.1176 39.0339 17.3476L32.3339 13.4876L33.1039 11.6876C33.8739 9.9576 33.4239 8.6076 31.8039 7.6676L28.4939 5.7576C25.8339 4.2276 23.9739 3.7076 21.4839 3.7976L16.9139 3.9676L13.5739 2.6676C10.8539 1.5976 9.1239 2.0276 8.0039 3.9576L6.8539 5.9376C6.0839 7.2776 6.4039 8.5376 7.7139 9.2976ZM10.9739 13.0876C12.2039 13.7876 13.7339 13.3776 14.4539 12.1476C15.1539 10.9276 14.7339 9.3876 13.5139 8.6776C12.2939 7.9776 10.7439 8.3876 10.0439 9.6076C9.3439 10.8376 9.7539 12.3676 10.9739 13.0876ZM0.1339 10.1076C-0.1361 10.5776 0.0239 11.1476 0.4639 11.4076L33.2439 30.3576C33.6739 30.6076 34.2539 30.4676 34.5139 30.0176C34.7839 29.5476 34.6239 28.9776 34.1839 28.7176L1.3939 9.7676C0.9739 9.5276 0.3739 9.6776 0.1339 10.1076ZM28.3239 23.0976C29.5439 23.8076 31.0939 23.3876 31.7939 22.1676C32.4939 20.9476 32.0839 19.3976 30.8739 18.6976C29.6539 17.9976 28.0939 18.4176 27.4039 19.6276C26.6939 20.8476 27.1039 22.3876 28.3239 23.0976Z" />
        </svg>
    