
        <svg xmlns="http://www.w3.org/2000/svg" viewBox="0 0 100 100">
            <path d="M10.1817 21.4575C12.0817 21.4575 13.7117 20.3675 14.4917 18.7775H31.1817C31.9717 20.3675 33.6117 21.4575 35.5217 21.4575C37.4017 21.4575 39.0517 20.3675 39.8317 18.7775H44.4117C46.7717 18.7775 48.2717 17.2875 48.2717 14.8375V9.4875C48.2717 6.9775 46.5517 5.4175 43.8517 5.4175H34.8917L34.7717 4.3975C34.4417 1.5375 32.7417 -0.0025 29.8717 -0.0025H25.2117C20.5317 -0.0025 18.3017 0.5475 15.3417 2.3975L13.7817 3.3775L15.9517 6.2075L17.2217 5.4175C19.6317 3.9175 21.1417 3.5375 25.2117 3.5375H29.9517C30.6717 3.5375 31.0617 3.8675 31.1617 4.5675L31.6417 8.9275H43.8317C44.4017 8.9275 44.7517 9.3075 44.7517 9.9275V14.2375C44.7517 14.8575 44.4017 15.2375 43.8317 15.2375H40.1117C39.5117 13.2575 37.6917 11.8075 35.5217 11.8075C33.3417 11.8075 31.5017 13.2575 30.9017 15.2375H14.7917C14.1817 13.2575 12.3517 11.8075 10.1817 11.8075C8.0017 11.8075 6.1617 13.2575 5.5617 15.2375H4.4617C3.8917 15.2375 3.5417 14.8575 3.5417 14.2375V12.0275C3.5417 10.4575 4.4317 9.7075 6.9217 9.3775L11.0117 8.8375L8.5317 5.5775L6.4917 5.8575C2.2117 6.4175 0.0017 8.4775 0.0017 12.0275V14.8375C0.0017 17.3775 1.5017 18.7775 3.8517 18.7775H5.8517C6.6317 20.3675 8.2717 21.4575 10.1817 21.4575ZM16.5917 10.1575H19.2817V11.0475C19.2817 11.9875 20.1017 12.2575 20.7917 11.8075L23.7517 9.8975C24.4017 9.4875 24.4117 8.6875 23.7517 8.2575L20.8017 6.3775C20.1017 5.9075 19.2817 6.1875 19.2817 7.1375V7.9875H16.5917C15.4717 7.9875 15.0517 7.7775 14.3217 6.8275L11.2117 2.7775C10.1717 1.4075 8.9417 0.8675 7.0617 0.8675H4.2617C3.6717 0.8675 3.1917 1.3475 3.1917 1.9475C3.1917 2.5275 3.6717 3.0275 4.2617 3.0275H7.0617C8.3917 3.0275 8.8517 3.2275 9.5117 4.0975L12.6017 8.1575C13.6517 9.5475 14.8617 10.1575 16.5917 10.1575ZM10.1817 18.2675C9.2917 18.2675 8.6017 17.5775 8.6017 16.6875C8.6017 15.8075 9.2917 15.1175 10.1817 15.1175C11.0517 15.1175 11.7517 15.8075 11.7517 16.6875C11.7517 17.5775 11.0517 18.2675 10.1817 18.2675ZM35.5217 18.2675C34.6317 18.2675 33.9417 17.5775 33.9417 16.6875C33.9417 15.8075 34.6317 15.1175 35.5217 15.1175C36.3917 15.1175 37.0917 15.8075 37.0917 16.6875C37.0917 17.5775 36.3917 18.2675 35.5217 18.2675Z" />
        </svg>
    