
        <svg xmlns="http://www.w3.org/2000/svg" viewBox="0 0 100 100">
            <path d="M2.5519 3.6615L4.3719 0.5315C4.5519 0.2315 4.3619 -0.0085 4.0219 0.0015L0.8719 0.1515C0.5019 0.1615 0.3319 0.4815 0.4919 0.8115L1.9319 3.6215C2.0719 3.9115 2.4019 3.9515 2.5519 3.6615ZM8.8519 11.1615C10.0019 11.8115 11.3619 11.6015 12.2319 10.7115L24.5319 17.8115C24.2019 19.0215 24.7019 20.3115 25.8419 20.9615C26.9919 21.6215 28.3519 21.4115 29.2319 20.5315L32.7219 22.5515C33.7719 23.1615 34.6119 22.9115 35.2419 21.8215L37.0219 18.7315C37.6519 17.6415 37.4419 16.7915 36.3919 16.1815L29.0219 11.9315L29.9119 9.8715C30.4619 8.5915 30.0919 7.4915 28.9119 6.8115L25.5919 4.8915C22.9019 3.3415 21.5719 2.9315 19.3219 3.0115L14.5819 3.2015L11.3219 1.8215C8.7019 0.7115 6.8619 1.1115 5.7519 3.0115L4.9819 4.3615C4.3519 5.4515 4.5619 6.2815 5.6119 6.8915L7.5519 8.0015C7.2119 9.2115 7.7119 10.5015 8.8519 11.1615ZM32.9519 22.1415L29.5319 20.1715C29.5819 20.0815 29.6319 20.0115 29.6719 19.9315C30.4619 18.5715 30.0119 16.9015 28.6519 16.1115C27.2819 15.3315 25.6119 15.7715 24.8219 17.1315C24.7719 17.2115 24.7319 17.3015 24.6919 17.3815L12.5419 10.3615C12.5919 10.2815 12.6319 10.2115 12.6819 10.1215C13.4619 8.7615 13.0219 7.0915 11.6619 6.3015C10.3019 5.5215 8.6119 5.9615 7.8319 7.3215C7.7819 7.4115 7.7519 7.4915 7.7019 7.5615L5.8519 6.4915C5.0619 6.0315 4.9119 5.4115 5.3819 4.5915L6.1519 3.2415C7.1519 1.5215 8.6519 1.1915 11.1319 2.2515L14.4819 3.6715L19.3419 3.4915C21.4919 3.4115 22.7219 3.7715 25.3619 5.3015L28.6919 7.2215C29.6419 7.7715 29.9219 8.6715 29.4519 9.7115L28.3919 12.1015L36.1519 16.5915C36.9419 17.0415 37.1019 17.6715 36.6219 18.4915L34.8319 21.6015C34.3619 22.4215 33.7419 22.5915 32.9519 22.1415ZM9.0819 10.7415C7.9519 10.0915 7.5719 8.6915 8.2319 7.5615C8.8819 6.4215 10.2919 6.0515 11.4319 6.7015C12.5619 7.3615 12.9419 8.7515 12.2819 9.8915C11.6319 11.0415 10.2219 11.4115 9.0819 10.7415ZM0.0519 9.0115C-0.0481 9.1615 0.0019 9.3315 0.1419 9.4215L31.5619 27.6015C31.6919 27.6715 31.8419 27.6315 31.9319 27.5015C32.0219 27.3315 31.9619 27.1615 31.8319 27.0915L0.4219 8.9215C0.2819 8.8515 0.1219 8.8815 0.0519 9.0115ZM26.0719 20.5715C24.9419 19.9015 24.5619 18.5015 25.2219 17.3715C25.8819 16.2315 27.2819 15.8515 28.4219 16.5115C29.5519 17.1715 29.9319 18.5615 29.2719 19.7115C28.6219 20.8515 27.2119 21.2215 26.0719 20.5715Z" />
        </svg>
    