
        <svg xmlns="http://www.w3.org/2000/svg" viewBox="0 0 100 100">
            <path d="M11.4923 22.977C17.8123 22.977 22.9823 17.827 22.9823 11.497C22.9823 5.167 17.8123 -0.003 11.4923 -0.003C5.1723 -0.003 0.0023 5.167 0.0023 11.497C0.0023 17.827 5.1723 22.977 11.4923 22.977ZM8.4823 17.817C7.5023 17.817 7.0323 17.367 7.0223 16.417L6.9523 10.317L5.2423 10.677C4.8323 10.777 4.5623 10.617 4.4423 10.187L3.8523 8.227C3.7423 7.797 3.9223 7.477 4.3523 7.287L8.5623 5.357C8.7823 5.257 8.9323 5.277 9.0823 5.367C9.7423 5.697 10.6123 5.927 11.4823 5.927C12.3523 5.927 13.2323 5.697 13.8723 5.367C14.0423 5.277 14.1923 5.257 14.3923 5.357L18.6223 7.287C19.0423 7.477 19.2323 7.797 19.1123 8.227L18.5323 10.187C18.4123 10.617 18.1423 10.777 17.7223 10.677L16.0223 10.317L15.9523 16.417C15.9223 17.367 15.4723 17.817 14.4823 17.817ZM11.4823 7.457C12.3323 7.457 13.1623 7.007 13.3723 6.267C12.7523 6.477 12.0823 6.587 11.4823 6.587C10.8823 6.587 10.2223 6.477 9.5823 6.267C9.7923 7.007 10.6423 7.457 11.4823 7.457Z" />
        </svg>
    