
        <svg xmlns="http://www.w3.org/2000/svg" viewBox="0 0 100 100">
            <path d="M11.4923 22.977C17.8323 22.977 22.9823 17.847 22.9823 11.497C22.9823 5.147 17.8323 -0.003 11.4923 -0.003C5.1423 -0.003 0.0023 5.147 0.0023 11.497C0.0023 17.847 5.1423 22.977 11.4923 22.977ZM11.4923 22.087C5.6323 22.087 0.8923 17.357 0.8923 11.497C0.8923 5.637 5.6323 0.887 11.4923 0.887C17.3523 0.887 22.0923 5.637 22.0923 11.497C22.0923 17.357 17.3523 22.087 11.4923 22.087ZM8.4923 17.777H14.4623C15.4323 17.777 15.9023 17.327 15.9123 16.387L15.9823 10.317L17.6823 10.687C18.0923 10.777 18.3623 10.617 18.4823 10.187L19.0523 8.247C19.1823 7.817 18.9923 7.497 18.5723 7.317L14.3823 5.387C14.1723 5.297 14.0323 5.307 13.8623 5.407C13.2223 5.747 12.3423 5.967 11.4823 5.967C10.6123 5.967 9.7523 5.747 9.0923 5.407C8.9423 5.307 8.7923 5.297 8.5923 5.387L4.3923 7.317C3.9723 7.497 3.7823 7.817 3.9023 8.247L4.4923 10.187C4.6023 10.617 4.8623 10.777 5.2723 10.687L6.9723 10.317L7.0423 16.387C7.0623 17.327 7.5223 17.777 8.4923 17.777ZM11.4823 7.477C10.6423 7.477 9.8123 7.027 9.6023 6.307C10.2223 6.517 10.8823 6.607 11.4823 6.607C12.0723 6.607 12.7423 6.517 13.3623 6.307C13.1523 7.027 12.3123 7.477 11.4823 7.477Z" />
        </svg>
    