
        <svg xmlns="http://www.w3.org/2000/svg" viewBox="0 0 100 100">
            <path d="M10.4677 28.1529H22.5277C25.0877 28.1529 26.8077 26.4429 26.8577 23.8929L26.9877 14.9229L28.1477 15.1429C30.2877 15.5229 31.7177 14.8129 32.0377 12.8729L32.9377 7.6429C33.2777 5.6629 32.4877 4.2429 30.6877 3.4829L22.9777 0.2729C22.0977 -0.0871 21.3977 -0.0871 20.6377 0.2729C18.9077 1.0529 17.9877 1.2929 16.5077 1.2929C15.0277 1.2929 14.1077 1.0529 12.3677 0.2729C11.6177 -0.0871 10.9077 -0.0871 10.0277 0.2729L2.3277 3.4829C0.5077 4.2429 -0.2623 5.6629 0.0777 7.6429L0.9677 12.8729C1.2977 14.8129 2.7177 15.5229 4.8577 15.1429L6.0177 14.9229L6.1577 23.8929C6.1977 26.4429 7.9177 28.1529 10.4677 28.1529ZM10.5077 24.3629C10.1677 24.3629 9.9377 24.1229 9.9377 23.7429L9.7577 10.6529C9.7577 10.4229 9.5977 10.2429 9.2377 10.3129L4.8677 11.2729C4.6677 11.3129 4.5077 11.2329 4.4677 11.0229L3.8477 7.2729C3.8277 7.0429 3.8877 6.9429 4.0577 6.8729L9.8177 4.4829C10.5577 7.5829 13.1477 9.6129 16.5077 9.6129C19.8577 9.6129 22.4477 7.5829 23.1877 4.4829L28.9377 6.8729C29.1277 6.9429 29.1877 7.0429 29.1477 7.2729L28.5277 11.0229C28.4977 11.2329 28.3477 11.3129 28.1377 11.2729L23.7577 10.3129C23.4177 10.2429 23.2477 10.4229 23.2477 10.6529L23.0677 23.7429C23.0677 24.1229 22.8477 24.3629 22.5077 24.3629ZM16.5077 4.9329C17.4677 4.9329 18.3477 4.8429 19.2077 4.6329C18.5777 5.3929 17.6477 5.8229 16.5077 5.8229C15.3677 5.8229 14.4177 5.3929 13.7977 4.6329C14.6577 4.8429 15.5377 4.9329 16.5077 4.9329Z" />
        </svg>
    