
        <svg xmlns="http://www.w3.org/2000/svg" viewBox="0 0 100 100">
            <path d="M1.1517 26.3763H26.2517C26.8717 26.3763 27.4017 25.8663 27.4017 25.2263C27.4017 24.5963 26.8717 24.0863 26.2517 24.0863H25.6417V23.1163C25.6417 22.5863 25.3117 22.2563 24.7717 22.2563H24.1517V8.6363H25.1417C25.9117 8.6363 26.3717 8.0663 26.3717 7.4863C26.3717 7.0663 26.1217 6.6763 25.6217 6.3863L15.3317 0.4563C14.8317 0.1663 14.2817 -0.0038 13.7617 -0.0038C13.2317 -0.0038 12.6817 0.1663 12.1917 0.4563L1.9017 6.3863C1.3817 6.6763 1.1617 7.0663 1.1617 7.4863C1.1617 8.0663 1.6017 8.6363 2.3917 8.6363H3.3917V22.2563H2.7517C2.2117 22.2563 1.8917 22.5863 1.8917 23.1163V24.0863H1.1517C0.5317 24.0863 0.0017 24.5963 0.0017 25.2263C0.0017 25.8663 0.5317 26.3763 1.1517 26.3763ZM13.7817 20.0163C13.2417 20.0163 12.8217 19.7362 12.8217 19.0563V17.2663L11.2017 17.8663C11.1317 17.8963 11.0617 17.9162 11.0017 17.9162C10.7817 17.9162 10.6317 17.7563 10.6317 17.5463C10.6317 17.3663 10.7117 17.2362 10.9117 17.1563L12.8217 16.4263V14.9863L11.2017 15.6063C11.1317 15.6363 11.0617 15.6563 11.0017 15.6563C10.7817 15.6563 10.6317 15.4763 10.6317 15.2763C10.6317 15.0963 10.7117 14.9663 10.9117 14.8863L12.8217 14.1463V10.7363H10.0917C9.6017 10.7363 9.2417 10.4163 9.2417 9.9363C9.2417 9.4563 9.5817 9.1363 10.0917 9.1363H17.4617C17.9517 9.1363 18.2917 9.4462 18.2917 9.9363C18.2917 10.4163 17.9617 10.7363 17.4617 10.7363H14.7317V13.4463L16.3617 12.8063C16.4317 12.7863 16.5017 12.7663 16.5617 12.7663C16.7617 12.7663 16.9217 12.9063 16.9217 13.1463C16.9217 13.3263 16.8317 13.4463 16.6417 13.5263L14.7317 14.2763V15.7063L16.3617 15.0663C16.4317 15.0463 16.5017 15.0363 16.5617 15.0363C16.7617 15.0363 16.9217 15.1763 16.9217 15.4063C16.9217 15.5963 16.8317 15.7163 16.6417 15.7963L14.7317 16.5363V19.0563C14.7317 19.7362 14.3117 20.0163 13.7817 20.0163Z" />
        </svg>
    