
        <svg xmlns="http://www.w3.org/2000/svg" viewBox="0 0 100 100">
            <path d="M28.9023 14.3955C28.9023 6.8555 23.1423 0.6755 15.7823 0.0055C15.3523 -0.0445 15.0223 0.2755 15.0223 0.7055V4.6555C15.0223 5.0155 15.2823 5.2855 15.6423 5.3355C20.1223 5.9255 23.5823 9.7455 23.5823 14.3955C23.5823 16.5155 22.8623 18.4755 21.5823 20.0755C21.3823 20.3355 21.3823 20.6655 21.6223 20.8855L24.4723 23.7355C24.7723 24.0555 25.2223 24.0355 25.5023 23.7255C27.6223 21.1955 28.9023 17.9455 28.9023 14.3955ZM0.0023 14.3955C0.0023 17.9455 1.2823 21.1955 3.4123 23.7255C3.6823 24.0355 4.1223 24.0355 4.4323 23.7355L7.2823 20.8855C7.5123 20.6555 7.5123 20.3355 7.3123 20.0755C6.0423 18.4755 5.3223 16.5155 5.3223 14.3955C5.3223 9.7455 8.7923 5.9255 13.2623 5.3355C13.6123 5.2855 13.8723 5.0155 13.8723 4.6555V0.7055C13.8723 0.2755 13.5423 -0.0445 13.1123 0.0055C5.7623 0.6755 0.0023 6.8555 0.0023 14.3955ZM11.8023 17.9355C11.8623 17.9355 11.9223 17.9255 11.9923 17.8955L13.5323 17.3055V19.0355C13.5323 19.6655 13.9323 19.9355 14.4523 19.9355C14.9523 19.9355 15.3523 19.6655 15.3523 19.0355V16.6055L17.1823 15.9055C17.3523 15.8355 17.4523 15.7155 17.4523 15.5455C17.4523 15.3055 17.2823 15.1755 17.1023 15.1755C17.0423 15.1755 16.9723 15.1955 16.9023 15.2155L15.3523 15.8155V14.4455L17.1823 13.7255C17.3523 13.6555 17.4523 13.5355 17.4523 13.3655C17.4523 13.1255 17.2823 13.0155 17.1023 13.0155C17.0423 13.0155 16.9723 13.0255 16.9023 13.0455L15.3523 13.6455V11.0555H17.9623C18.4323 11.0555 18.7623 10.7555 18.7623 10.3055C18.7623 9.8355 18.4323 9.5455 17.9623 9.5455H10.9223C10.4523 9.5455 10.1123 9.8455 10.1123 10.3055C10.1123 10.7655 10.4523 11.0555 10.9223 11.0555H13.5323V14.3355L11.7023 15.0355C11.5323 15.1055 11.4423 15.2355 11.4423 15.4055C11.4423 15.6055 11.5823 15.7655 11.8023 15.7655C11.8623 15.7655 11.9223 15.7555 11.9923 15.7355L13.5323 15.1355V16.5055L11.7023 17.2055C11.5323 17.2755 11.4423 17.4055 11.4423 17.5855C11.4423 17.7655 11.5823 17.9355 11.8023 17.9355Z" />
        </svg>
    