
        <svg xmlns="http://www.w3.org/2000/svg" viewBox="0 0 100 100">
            <path d="M11.3523 22.7064C17.6023 22.7064 22.7123 17.6064 22.7123 11.3564C22.7123 5.1064 17.6023 -0.0036 11.3523 -0.0036C5.1123 -0.0036 0.0023 5.1064 0.0023 11.3564C0.0023 17.6064 5.1123 22.7064 11.3523 22.7064ZM11.3523 16.4764C11.1823 16.4764 11.0523 16.3364 11.0523 16.1464V13.5564L9.1623 14.3464C9.1123 14.3664 9.0623 14.3764 9.0123 14.3764C8.8523 14.3764 8.8123 14.2464 8.8123 14.1664C8.8123 14.0764 8.8523 14.0164 8.9923 13.9564L11.0523 13.0764V11.4164L9.1623 12.2064C9.1123 12.2364 9.0623 12.2464 9.0123 12.2464C8.8523 12.2464 8.8123 12.1064 8.8123 12.0364C8.8123 11.9264 8.8523 11.8664 8.9923 11.8164L11.0523 10.9464V7.2064H7.8723C7.6923 7.2064 7.5423 7.0864 7.5423 6.9264C7.5423 6.7464 7.6923 6.6364 7.8723 6.6364H14.8623C15.0323 6.6364 15.1623 6.7464 15.1623 6.9264C15.1623 7.0864 15.0323 7.2064 14.8623 7.2064H11.6823V10.6664L13.5723 9.8764C13.6123 9.8564 13.6723 9.8464 13.7123 9.8464C13.8123 9.8464 13.9223 9.9064 13.9223 10.0564C13.9223 10.1464 13.8723 10.2064 13.7423 10.2764L11.6823 11.1464V12.8064L13.5723 12.0164C13.6123 11.9964 13.6723 11.9764 13.7123 11.9764C13.8123 11.9764 13.9223 12.0364 13.9223 12.1864C13.9223 12.2964 13.8723 12.3564 13.7423 12.4064L11.6823 13.2764V16.1464C11.6823 16.3364 11.5423 16.4764 11.3523 16.4764Z" />
        </svg>
    