
        <svg xmlns="http://www.w3.org/2000/svg" viewBox="0 0 100 100">
            <path d="M1.0817 22.0472H23.1917V21.5672C23.1917 21.3772 23.0617 21.2472 22.8517 21.2472H22.1117V7.0172H23.2417C23.5417 7.0172 23.6917 6.8172 23.6917 6.5872C23.6917 6.4472 23.6117 6.2772 23.4217 6.1672L13.3217 0.3372C12.9417 0.1172 12.5317 -0.0028 12.1317 -0.0028C11.7317 -0.0028 11.3217 0.1172 10.9417 0.3372L0.8417 6.1672C0.6417 6.2772 0.5617 6.4472 0.5617 6.5872C0.5617 6.8172 0.7117 7.0172 1.0317 7.0172H2.1517V21.2472H1.4017C1.2117 21.2472 1.0817 21.3772 1.0817 21.5672ZM3.0017 21.2472V5.9372L11.4417 1.1472C11.6517 1.0172 11.8817 0.9472 12.1317 0.9472C12.3717 0.9472 12.6117 1.0172 12.8317 1.1472L21.2617 5.9372V21.2472ZM9.7617 15.2772C9.8117 15.2772 9.8717 15.2672 9.9217 15.2472L11.7417 14.4872V16.9672C11.7417 17.2072 11.9017 17.3672 12.1417 17.3672C12.3917 17.3672 12.5417 17.2072 12.5417 16.9672V14.1572L14.5817 13.2972C14.7217 13.2272 14.7817 13.1572 14.7817 13.0472C14.7817 12.8672 14.6617 12.7972 14.5317 12.7972C14.4817 12.7972 14.4217 12.8072 14.3717 12.8172L12.5417 13.5972V11.9772L14.5817 11.1172C14.7217 11.0672 14.7817 10.9872 14.7817 10.8672C14.7817 10.6872 14.6617 10.6172 14.5317 10.6172C14.4817 10.6172 14.4217 10.6272 14.3717 10.6572L12.5417 11.4172V8.0672H15.6417C15.8717 8.0672 16.0317 7.9172 16.0317 7.7072C16.0317 7.4972 15.8717 7.3472 15.6417 7.3472H8.6517C8.4117 7.3472 8.2517 7.4972 8.2517 7.7072C8.2517 7.9172 8.4117 8.0672 8.6517 8.0672H11.7417V11.7572L9.7117 12.5972C9.5617 12.6672 9.5017 12.7372 9.5017 12.8672C9.5017 12.9772 9.5717 13.1172 9.7617 13.1172C9.8117 13.1172 9.8717 13.0872 9.9217 13.0772L11.7417 12.3172V13.9172L9.7117 14.7772C9.5617 14.8472 9.5017 14.9172 9.5017 15.0372C9.5017 15.1372 9.5717 15.2772 9.7617 15.2772ZM0.4317 23.8172H23.8217C24.0717 23.8172 24.2617 23.6172 24.2617 23.3672C24.2617 23.1372 24.0717 22.9372 23.8217 22.9372H0.4317C0.2017 22.9372 0.0017 23.1372 0.0017 23.3672C0.0017 23.6172 0.2017 23.8172 0.4317 23.8172Z" />
        </svg>
    