
        <svg xmlns="http://www.w3.org/2000/svg" viewBox="0 0 100 100">
            <path d="M4.5917 23.2359H18.6417C21.5417 23.2359 23.2417 21.5459 23.2417 18.6459V4.5959C23.2417 1.6959 21.5417 -0.0041 18.6417 -0.0041H4.5917C1.7017 -0.0041 0.0017 1.6959 0.0017 4.5959V18.6459C0.0017 21.5459 1.7017 23.2359 4.5917 23.2359ZM5.2217 19.0759C4.5117 19.0759 4.1617 18.7859 4.1617 18.0159V5.2359C4.1617 4.4659 4.5117 4.1759 5.2217 4.1759H18.0117C18.7217 4.1759 19.0817 4.4659 19.0817 5.2359V18.0159C19.0817 18.7859 18.7217 19.0759 18.0117 19.0759ZM8.6817 14.9859C8.7317 14.9859 8.7817 14.9759 8.8217 14.9559L10.2417 14.4559V15.5059C10.2417 16.5859 10.9417 16.9059 11.6217 16.9059C12.2917 16.9059 13.0117 16.5859 13.0117 15.5059V13.5159L14.6517 12.9359C14.8017 12.8859 14.8817 12.7859 14.8817 12.6359C14.8817 12.4659 14.7517 12.3159 14.5817 12.3159C14.5317 12.3159 14.4817 12.3259 14.4417 12.3559L13.0117 12.8459V11.6159L14.6517 11.0359C14.8017 10.9959 14.8817 10.8859 14.8817 10.7359C14.8817 10.5659 14.7517 10.4159 14.5817 10.4159C14.5317 10.4159 14.4817 10.4459 14.4417 10.4559L13.0117 10.9559V9.1359H15.1417C15.7817 9.1359 16.2517 8.7459 16.2517 8.0459C16.2517 7.3859 15.8017 6.9459 15.1417 6.9459H8.1117C7.4517 6.9459 6.9817 7.3959 6.9817 8.0459C6.9817 8.6959 7.4517 9.1359 8.1117 9.1359H10.2417V11.9159L8.6217 12.4759C8.4617 12.5259 8.3917 12.6459 8.3917 12.7959C8.3917 12.9459 8.5117 13.1059 8.6817 13.1059C8.7317 13.1059 8.7817 13.0859 8.8217 13.0759L10.2417 12.5759V13.8059L8.6217 14.3659C8.4617 14.4159 8.3917 14.5459 8.3917 14.6959C8.3917 14.8459 8.5117 14.9859 8.6817 14.9859Z" />
        </svg>
    