
        <svg xmlns="http://www.w3.org/2000/svg" viewBox="0 0 100 100">
            <path d="M0.9309 9.9459C-0.0091 9.9459 -0.2491 10.7359 0.2609 11.4159L3.1609 15.2959C3.5309 15.7959 4.1509 15.7859 4.5209 15.2959L7.4109 11.4059C7.9009 10.7359 7.6809 9.9459 6.7509 9.9459H5.3609C6.4209 5.9859 10.0309 3.0859 14.3309 3.0859C19.4709 3.0859 23.6309 7.2259 23.6309 12.3759C23.6309 17.5059 19.4709 21.6659 14.3309 21.6659C11.5209 21.6659 9.0709 20.4359 7.3509 18.4359C6.6909 17.7659 5.7809 17.5559 5.0609 18.1659C4.4209 18.7059 4.3609 19.6559 5.0609 20.4759C7.1009 23.0659 10.7809 24.7459 14.3309 24.7459C21.1609 24.7459 26.7109 19.2059 26.7109 12.3759C26.7109 5.5459 21.1609 -0.0041 14.3309 -0.0041C8.3309 -0.0041 3.3209 4.2759 2.1909 9.9459ZM11.6109 15.8159C11.6609 15.8159 11.7309 15.8059 11.7909 15.7859L13.3009 15.2259V16.7659C13.3009 17.5159 13.7809 17.8159 14.3309 17.8159C14.8809 17.8159 15.3609 17.5159 15.3609 16.7659V14.4559L17.1509 13.7959C17.3209 13.7259 17.4009 13.6159 17.4009 13.4459C17.4009 13.2259 17.2509 13.0859 17.0709 13.0859C17.0209 13.0859 16.9609 13.1159 16.8909 13.1259L15.3609 13.6959V12.3659L17.1509 11.6959C17.3209 11.6259 17.4009 11.5059 17.4009 11.3459C17.4009 11.1359 17.2509 10.9959 17.0709 10.9959C17.0209 10.9959 16.9609 11.0059 16.8909 11.0259L15.3609 11.6059V9.2259H17.8609C18.3809 9.2259 18.7409 8.8959 18.7409 8.3759C18.7409 7.8659 18.3809 7.5259 17.8609 7.5259H10.8109C10.2909 7.5259 9.9309 7.8659 9.9309 8.3759C9.9309 8.8859 10.3009 9.2259 10.8109 9.2259H13.3009V12.3759L11.5309 13.0359C11.3609 13.1059 11.2609 13.2159 11.2609 13.3859C11.2609 13.5659 11.4009 13.7359 11.6109 13.7359C11.6609 13.7359 11.7309 13.7259 11.7909 13.6959L13.3009 13.1359V14.4759L11.5309 15.1259C11.3609 15.1959 11.2609 15.3159 11.2609 15.4759C11.2609 15.6659 11.4009 15.8159 11.6109 15.8159Z" />
        </svg>
    