
        <svg xmlns="http://www.w3.org/2000/svg" viewBox="0 0 100 100">
            <path d="M1.2817 27.163H26.8317C27.5117 27.163 28.1117 26.603 28.1117 25.883C28.1117 25.193 27.5117 24.623 26.8317 24.623H26.2417V23.603C26.2417 23.013 25.8717 22.663 25.2917 22.663H24.7417V8.973H25.7017C26.5517 8.973 27.0617 8.343 27.0617 7.713C27.0617 7.243 26.8017 6.823 26.2517 6.493L15.8017 0.473C15.2817 0.173 14.6917 0.003 14.1417 0.003C13.5917 0.003 13.0117 0.173 12.5017 0.473L2.0517 6.493C1.4917 6.823 1.2417 7.243 1.2417 7.713C1.2417 8.343 1.7317 8.973 2.5917 8.973H3.5617V22.663H3.0117C2.4217 22.663 2.0617 23.013 2.0617 23.603V24.623H1.2817C0.5817 24.623 0.0017 25.193 0.0017 25.883C0.0017 26.593 0.5817 27.163 1.2817 27.163ZM14.1517 20.503C13.5717 20.503 13.0517 20.203 13.0517 19.393V17.793L11.4717 18.373C11.4017 18.403 11.3317 18.423 11.2717 18.423C11.0717 18.423 10.9217 18.253 10.9217 18.063C10.9217 17.883 11.0017 17.753 11.1917 17.683L13.0517 16.993V15.573L11.4717 16.183C11.4017 16.193 11.3317 16.223 11.2717 16.223C11.0717 16.223 10.9217 16.043 10.9217 15.853C10.9217 15.683 11.0017 15.553 11.1917 15.483L13.0517 14.773V11.473H10.4517C9.9017 11.473 9.5017 11.113 9.5017 10.573C9.5017 10.033 9.8917 9.663 10.4517 9.663H17.8717C18.4217 9.663 18.8117 10.023 18.8117 10.573C18.8117 11.123 18.4217 11.473 17.8717 11.473H15.2617V13.983L16.8617 13.373C16.9217 13.343 16.9917 13.323 17.0517 13.323C17.2417 13.323 17.4017 13.463 17.4017 13.703C17.4017 13.873 17.3217 13.993 17.1317 14.063L15.2617 14.773V16.173L16.8617 15.573C16.9217 15.553 16.9917 15.543 17.0517 15.543C17.2417 15.543 17.4017 15.683 17.4017 15.903C17.4017 16.093 17.3217 16.193 17.1317 16.273L15.2617 16.983V19.393C15.2617 20.203 14.7417 20.503 14.1517 20.503Z" />
        </svg>
    