
        <svg xmlns="http://www.w3.org/2000/svg" viewBox="0 0 100 100">
            <path d="M14.1123 5.0248C16.2323 5.0248 18.1723 5.7648 19.7323 6.9748C19.9723 7.1648 20.2723 7.1348 20.4923 6.9148L23.2123 4.1948C23.4823 3.9248 23.4723 3.5348 23.1923 3.3048C20.7423 1.2448 17.5623 0.0048 14.1123 0.0048C10.6623 0.0048 7.4923 1.2448 5.0423 3.3048C4.7623 3.5348 4.7423 3.9248 5.0123 4.1948L7.7323 6.9148C7.9523 7.1348 8.2723 7.1648 8.5323 6.9648C10.0823 5.7648 12.0123 5.0248 14.1123 5.0248ZM0.0023 14.1048C0.0023 17.5648 1.2423 20.7448 3.3123 23.2048C3.5523 23.4948 3.9523 23.4948 4.2023 23.2248L6.9923 20.4348C7.1723 20.2548 7.1923 19.9948 7.0323 19.7948C5.7523 18.1648 5.0323 16.2148 5.0323 14.1048C5.0323 12.0148 5.7423 10.0648 6.9623 8.5148C7.1523 8.2748 7.1523 7.9548 6.9223 7.7348L4.2023 5.0148C3.9423 4.7448 3.5523 4.7448 3.3123 5.0248C1.2423 7.4848 0.0023 10.6648 0.0023 14.1048ZM28.2323 14.1048C28.2323 10.6648 26.9923 7.4848 24.9123 5.0248C24.6823 4.7448 24.2823 4.7448 24.0223 5.0148L21.3023 7.7348C21.0823 7.9548 21.0723 8.2748 21.2723 8.5148C22.4723 10.0648 23.2023 12.0148 23.2023 14.1048C23.2023 16.2148 22.4723 18.1648 21.2023 19.7948C21.0323 19.9948 21.0423 20.2548 21.2223 20.4348L24.0123 23.2248C24.2823 23.4948 24.6723 23.4948 24.9123 23.2048C26.9923 20.7448 28.2323 17.5648 28.2323 14.1048ZM11.5923 17.8048C11.6623 17.8048 11.7323 17.7848 11.8123 17.7648L13.4223 17.1048V19.1748C13.4223 19.6048 13.6723 19.8548 14.1023 19.8548C14.5323 19.8548 14.7823 19.6048 14.7823 19.1748V16.5548L16.7123 15.7848C16.9023 15.7048 16.9923 15.5848 16.9923 15.3948C16.9923 15.1248 16.8123 15.0148 16.6123 15.0148C16.5423 15.0148 16.4723 15.0248 16.3923 15.0448L14.7823 15.7048V14.2648L16.7123 13.4748C16.9023 13.3948 16.9923 13.2748 16.9923 13.0848C16.9923 12.8248 16.8123 12.7048 16.6123 12.7048C16.5423 12.7048 16.4723 12.7248 16.3923 12.7548L14.7823 13.3948V10.4548H17.6223C18.0123 10.4548 18.2723 10.1848 18.2723 9.8448C18.2723 9.4848 18.0023 9.2448 17.6223 9.2448H10.5723C10.1823 9.2448 9.9223 9.4848 9.9223 9.8448C9.9223 10.2048 10.1923 10.4548 10.5723 10.4548H13.4223V13.9548L11.4823 14.7348C11.2923 14.8148 11.2023 14.9448 11.2023 15.1148C11.2023 15.3248 11.3523 15.5048 11.5923 15.5048C11.6623 15.5048 11.7323 15.4948 11.8123 15.4548L13.4223 14.8148V16.2548L11.4823 17.0248C11.2923 17.1048 11.2023 17.2548 11.2023 17.4148C11.2023 17.6348 11.3523 17.8048 11.5923 17.8048Z" />
        </svg>
    