
        <svg xmlns="http://www.w3.org/2000/svg" viewBox="0 0 100 100">
            <path d="M1.3517 22.137H24.0017V21.497C24.0017 21.137 23.7917 20.927 23.4217 20.927H22.6717V7.597H23.7517C24.2417 7.597 24.5317 7.247 24.5317 6.867C24.5317 6.607 24.3917 6.367 24.0617 6.177L14.0017 0.377C13.5717 0.127 13.1117 -0.003 12.6717 -0.003C12.2317 -0.003 11.7617 0.127 11.3417 0.377L1.2917 6.177C0.9617 6.367 0.8217 6.607 0.8217 6.867C0.8217 7.247 1.0917 7.597 1.5917 7.597H2.6717V20.927H1.9217C1.5717 20.927 1.3517 21.137 1.3517 21.497ZM4.0417 20.927V6.277L12.1217 1.727C12.2817 1.627 12.4817 1.567 12.6717 1.567C12.8717 1.567 13.0517 1.627 13.2317 1.727L21.3017 6.277V20.927ZM10.2217 15.617C10.2917 15.617 10.3517 15.597 10.4217 15.577L12.1217 14.887V17.117C12.1217 17.477 12.3417 17.687 12.6817 17.687C13.0317 17.687 13.2417 17.477 13.2417 17.117V14.427L15.2117 13.617C15.3917 13.537 15.4617 13.437 15.4617 13.277C15.4617 13.057 15.3117 12.947 15.1417 12.947C15.0817 12.947 15.0117 12.977 14.9517 12.997L13.2417 13.687V12.177L15.2117 11.367C15.3917 11.287 15.4617 11.187 15.4617 11.027C15.4617 10.807 15.3117 10.707 15.1417 10.707C15.0817 10.707 15.0117 10.727 14.9517 10.747L13.2417 11.447V8.317H16.1917C16.5117 8.317 16.7217 8.107 16.7217 7.827C16.7217 7.527 16.5117 7.327 16.1917 7.327H9.1617C8.8517 7.327 8.6217 7.527 8.6217 7.827C8.6217 8.117 8.8617 8.317 9.1617 8.317H12.1217V11.907L10.1517 12.717C9.9717 12.787 9.9017 12.887 9.9017 13.047C9.9017 13.207 10.0117 13.367 10.2217 13.367C10.2917 13.367 10.3517 13.357 10.4217 13.337L12.1217 12.637V14.157L10.1517 14.967C9.9717 15.037 9.9017 15.137 9.9017 15.297C9.9017 15.457 10.0117 15.617 10.2217 15.617ZM0.7217 24.497H24.6217C25.0217 24.497 25.3517 24.167 25.3517 23.767C25.3517 23.367 25.0217 23.037 24.6217 23.037H0.7217C0.3317 23.037 0.0017 23.367 0.0017 23.767C0.0017 24.167 0.3317 24.497 0.7217 24.497Z" />
        </svg>
    