
        <svg xmlns="http://www.w3.org/2000/svg" viewBox="0 0 100 100">
            <path d="M12.2223 24.4436C18.9723 24.4436 24.4423 18.9736 24.4423 12.2236C24.4423 5.4736 18.9723 0.0036 12.2223 0.0036C5.4723 0.0036 0.0023 5.4736 0.0023 12.2236C0.0023 18.9736 5.4723 24.4436 12.2223 24.4436ZM12.2223 21.7636C6.9523 21.7636 2.6823 17.4936 2.6823 12.2236C2.6823 6.9536 6.9523 2.6836 12.2223 2.6836C17.4923 2.6836 21.7623 6.9536 21.7623 12.2236C21.7623 17.4936 17.4923 21.7636 12.2223 21.7636ZM11.0623 17.2936H11.2423C12.5723 17.2936 14.0523 16.8536 14.9723 15.9936C15.7423 15.2836 16.2623 14.3036 16.2623 13.3736C16.2623 12.9036 15.9623 12.5536 15.4223 12.5536C14.9223 12.5536 14.6723 12.8536 14.5823 13.3036C14.4823 13.8736 14.2423 14.3636 13.8723 14.7536C13.3023 15.3536 12.4423 15.6636 11.5623 15.6636V12.2036L13.9223 11.2836C14.1023 11.2136 14.1823 11.0836 14.1823 10.9336C14.1823 10.7136 14.0423 10.5536 13.8323 10.5536C13.7623 10.5536 13.7023 10.5836 13.6423 10.6036L11.5623 11.4036V10.0336L13.9223 9.1136C14.1023 9.0436 14.1923 8.9136 14.1923 8.7436C14.1923 8.5936 14.0823 8.3936 13.8423 8.3936C13.7723 8.3936 13.7023 8.4136 13.6423 8.4336L11.5623 9.2436V7.8236C11.5623 7.2936 11.2023 6.9136 10.6723 6.9136C10.1523 6.9136 9.7723 7.2936 9.7723 7.8236V9.9136L8.2823 10.4836C8.1123 10.5536 8.0423 10.6636 8.0423 10.8436C8.0423 11.0436 8.1823 11.2036 8.3823 11.2036C8.4423 11.2036 8.5123 11.1936 8.5823 11.1636L9.7723 10.7036V12.0836L8.2823 12.6536C8.1123 12.7236 8.0423 12.8336 8.0423 13.0036C8.0423 13.2036 8.1823 13.3736 8.3823 13.3736C8.4423 13.3736 8.5223 13.3636 8.5923 13.3236L9.7723 12.8636V16.1236C9.7723 16.8436 10.2923 17.2936 11.0623 17.2936Z" />
        </svg>
    