
        <svg xmlns="http://www.w3.org/2000/svg" viewBox="0 0 100 100">
            <path d="M0.0023 14.8585C0.0023 18.5385 1.3223 21.9085 3.5323 24.5085C3.8523 24.8985 4.3823 24.8985 4.7423 24.5285L7.6723 21.5985C7.9723 21.3085 7.9723 20.8885 7.7123 20.5585C6.4523 18.9785 5.7323 17.0085 5.7323 14.8585C5.7323 10.2185 9.1623 6.3885 13.6123 5.7585C14.0423 5.6985 14.3323 5.3785 14.3323 4.9585V0.8385C14.3323 0.3285 13.9423 -0.0415 13.4423 0.0085C5.9023 0.7585 0.0023 7.1285 0.0023 14.8585ZM29.8523 14.8585C29.8523 7.1285 23.9523 0.7585 16.4223 0.0085C15.9023 -0.0415 15.5123 0.3285 15.5123 0.8385V4.9585C15.5123 5.3785 15.8223 5.6985 16.2323 5.7585C20.6923 6.3885 24.1323 10.2185 24.1323 14.8585C24.1323 17.0085 23.4023 18.9785 22.1323 20.5685C21.8823 20.8985 21.8823 21.3085 22.1723 21.6085L25.1023 24.5385C25.4523 24.9085 25.9923 24.8985 26.3123 24.5185C28.5223 21.9085 29.8523 18.5385 29.8523 14.8585ZM14.1123 19.7985H14.3223C15.5723 19.7985 17.0423 19.4685 17.9623 18.6885C18.7223 18.0485 19.1823 17.1885 19.1823 16.3585C19.1823 15.7385 18.7223 15.2985 18.0323 15.2985C17.4023 15.2985 17.1023 15.6985 16.9223 16.2085C16.8423 16.5485 16.6923 16.8485 16.4623 17.0885C16.0323 17.4985 15.3623 17.7385 14.6523 17.7385V14.6385L16.9223 13.8185C17.0723 13.7585 17.1423 13.6485 17.1423 13.5085C17.1423 13.3185 17.0123 13.1685 16.8323 13.1685C16.7723 13.1685 16.7123 13.1785 16.6623 13.1985L14.6523 13.9385V12.6585L16.9223 11.8285C17.0723 11.7785 17.1423 11.6685 17.1423 11.5085C17.1423 11.3485 17.0423 11.1685 16.8423 11.1685C16.7723 11.1685 16.7123 11.1985 16.6623 11.2085L14.6523 11.9485V10.7985C14.6523 10.0985 14.1523 9.5985 13.4623 9.5985C12.7623 9.5985 12.2823 10.0985 12.2823 10.7985V12.7885L10.7723 13.3285C10.6123 13.3885 10.5423 13.4785 10.5423 13.6285C10.5423 13.8185 10.6923 13.9685 10.8623 13.9685C10.9223 13.9685 10.9823 13.9585 11.0423 13.9385L12.2823 13.4785V14.7685L10.7723 15.3185C10.6123 15.3785 10.5423 15.4685 10.5423 15.6285C10.5423 15.7985 10.6923 15.9685 10.8623 15.9685C10.9223 15.9685 10.9823 15.9485 11.0423 15.9285L12.2823 15.4685V18.1985C12.2823 19.1885 12.9923 19.7985 14.1123 19.7985Z" />
        </svg>
    