
        <svg xmlns="http://www.w3.org/2000/svg" viewBox="0 0 100 100">
            <path d="M3.9717 22.1117H18.1317C20.7317 22.1117 22.1017 20.7417 22.1017 18.1717V3.9417C22.1017 1.3717 20.7317 0.0017 18.1317 0.0017H3.9717C1.3817 0.0017 0.0017 1.3717 0.0017 3.9417V18.1717C0.0017 20.7417 1.3817 22.1117 3.9717 22.1117ZM9.9117 16.3617C9.0917 16.3617 8.5417 15.8817 8.5417 15.1317V11.7317L7.3017 12.2117C7.2417 12.2317 7.1517 12.2617 7.0917 12.2617C6.8817 12.2617 6.7217 12.0817 6.7217 11.8717C6.7217 11.6917 6.8017 11.5817 6.9817 11.5117L8.5417 10.9117V9.4717L7.3017 9.9517C7.2317 9.9817 7.1517 9.9917 7.0917 9.9917C6.8817 9.9917 6.7217 9.8217 6.7217 9.6117C6.7217 9.4317 6.8017 9.3117 6.9817 9.2617L8.5417 8.6517V6.4717C8.5417 5.9017 8.9417 5.5117 9.5017 5.5117C10.0517 5.5117 10.4417 5.9017 10.4417 6.4717V7.9317L12.6017 7.1017C12.6717 7.0817 12.7517 7.0417 12.8117 7.0417C13.0817 7.0417 13.1717 7.2617 13.1717 7.4317C13.1717 7.6017 13.0817 7.7417 12.8917 7.8017L10.4417 8.7517V10.2117L12.6017 9.3617C12.6717 9.3417 12.7417 9.3117 12.8017 9.3117C13.0217 9.3117 13.1717 9.4717 13.1717 9.7017C13.1717 9.8717 13.0817 9.9917 12.8917 10.0617L10.4417 11.0117V14.6317C11.3517 14.6317 12.2417 14.3217 12.8417 13.6917C13.2117 13.2917 13.4717 12.7817 13.5717 12.1917C13.6617 11.7217 13.9317 11.4017 14.4617 11.4017C15.0217 11.4017 15.3517 11.7817 15.3517 12.2717C15.3517 13.2417 14.8017 14.2617 14.0017 15.0017C13.0317 15.9017 11.4917 16.3617 10.0917 16.3617Z" />
        </svg>
    