
        <svg xmlns="http://www.w3.org/2000/svg" viewBox="0 0 100 100">
            <path d="M28.2323 14.0493C28.2323 6.6693 22.5623 0.6093 15.3423 -0.0007C14.9623 -0.0307 14.6823 0.2393 14.6823 0.6093V4.4493C14.6823 4.7593 14.9023 5.0093 15.2223 5.0293C19.7123 5.5793 23.2023 9.4093 23.2023 14.0493C23.2023 16.1593 22.4723 18.1093 21.2023 19.7393C21.0323 19.9393 21.0423 20.1993 21.2223 20.3793L24.0223 23.1693C24.2823 23.4293 24.6823 23.4293 24.9123 23.1493C26.9923 20.6893 28.2323 17.5093 28.2323 14.0493ZM0.0023 14.0493C0.0023 17.5193 1.2423 20.6993 3.3123 23.1593C3.5523 23.4393 3.9423 23.4293 4.2023 23.1693L7.0123 20.3793C7.1823 20.1993 7.1923 19.9393 7.0323 19.7393C5.7423 18.1093 5.0323 16.1593 5.0323 14.0493C5.0323 9.4093 8.5223 5.5793 13.0123 5.0293C13.3223 5.0093 13.5423 4.7593 13.5423 4.4493V0.6093C13.5423 0.2393 13.2623 -0.0307 12.8923 -0.0007C5.6723 0.6093 0.0023 6.6693 0.0023 14.0493ZM12.7123 19.3293H12.8523C14.2623 19.3293 15.7423 18.7993 16.6623 17.8993C17.4223 17.1393 18.0023 16.0693 18.0023 15.0593C18.0023 14.6993 17.8123 14.4093 17.3623 14.4093C16.9823 14.4093 16.7723 14.6493 16.7223 15.0393C16.6123 15.7793 16.3023 16.4193 15.8423 16.9093C15.1723 17.6393 14.1923 18.0193 13.1923 18.0193V14.2793L15.6023 13.2893C15.7823 13.2093 15.8923 13.0793 15.8923 12.9193C15.8923 12.6793 15.7223 12.5193 15.5023 12.5193C15.4323 12.5193 15.3723 12.5393 15.2923 12.5793L13.1923 13.4293V11.9793L15.6023 10.9993C15.7923 10.9293 15.8923 10.7793 15.8923 10.5993C15.8923 10.4593 15.8123 10.2193 15.5123 10.2193C15.4423 10.2193 15.3723 10.2493 15.2923 10.2793L13.1923 11.1393V9.5293C13.1923 9.1093 12.9123 8.8293 12.5023 8.8293C12.0923 8.8293 11.8123 9.1093 11.8123 9.5293V11.6893L10.3323 12.2993C10.1323 12.3593 10.0523 12.4793 10.0523 12.6593C10.0523 12.8793 10.2223 13.0593 10.4323 13.0593C10.4923 13.0593 10.5723 13.0293 10.6523 13.0093L11.8123 12.5293V13.9793L10.3323 14.5793C10.1323 14.6593 10.0523 14.7693 10.0523 14.9593C10.0523 15.1693 10.2223 15.3393 10.4323 15.3393C10.4923 15.3393 10.5823 15.3293 10.6623 15.2993L11.8123 14.8293V18.4693C11.8123 18.9893 12.1923 19.3293 12.7123 19.3293Z" />
        </svg>
    