
        <svg xmlns="http://www.w3.org/2000/svg" viewBox="0 0 100 100">
            <path d="M3.6817 21.5722H17.8917C20.3517 21.5722 21.5717 20.3722 21.5717 17.9522V3.6322C21.5717 1.2222 20.3517 0.0022 17.8917 0.0022H3.6817C1.2317 0.0022 0.0017 1.2222 0.0017 3.6322V17.9522C0.0017 20.3722 1.2317 21.5722 3.6817 21.5722ZM9.3717 16.0622C8.8217 16.0622 8.4417 15.7122 8.4417 15.1722V11.4122L7.2417 11.9022C7.1717 11.9322 7.0617 11.9522 7.0117 11.9522C6.7817 11.9522 6.6217 11.7822 6.6217 11.5522C6.6217 11.3622 6.7017 11.2522 6.9017 11.1722L8.4417 10.5622V9.0622L7.2417 9.5422C7.1617 9.5722 7.0617 9.5822 7.0117 9.5822C6.7817 9.5822 6.6217 9.4222 6.6217 9.1922C6.6217 9.0022 6.7017 8.8722 6.9017 8.8022L8.4417 8.1822V5.9522C8.4417 5.5322 8.7317 5.2222 9.1517 5.2222C9.5717 5.2222 9.8517 5.5322 9.8517 5.9522V7.6122L12.0217 6.7422C12.1217 6.7022 12.1917 6.6722 12.2617 6.6722C12.5617 6.6722 12.6417 6.9022 12.6417 7.0622C12.6417 7.2522 12.5417 7.4022 12.3417 7.4722L9.8517 8.4822V9.9722L12.0217 9.0922C12.1017 9.0722 12.1717 9.0422 12.2417 9.0422C12.4817 9.0422 12.6417 9.2022 12.6417 9.4522C12.6417 9.6222 12.5417 9.7622 12.3417 9.8422L9.8517 10.8422V14.7022C10.8917 14.7022 11.9017 14.3222 12.6017 13.5622C13.0617 13.0622 13.3917 12.4122 13.5017 11.6522C13.5517 11.2422 13.7717 10.9922 14.1717 10.9922C14.6117 10.9922 14.8217 11.2822 14.8217 11.6722C14.8217 12.7022 14.2217 13.7922 13.4417 14.5922C12.4917 15.5322 10.9617 16.0622 9.5117 16.0622Z" />
        </svg>
    