
        <svg xmlns="http://www.w3.org/2000/svg" viewBox="0 0 100 100">
            <path d="M12.7923 25.5978C19.8723 25.5978 25.6023 19.8678 25.6023 12.7978C25.6023 5.7278 19.8723 -0.0022 12.7923 -0.0022C5.7323 -0.0022 0.0023 5.7278 0.0023 12.7978C0.0023 19.8678 5.7323 25.5978 12.7923 25.5978ZM12.1123 18.1478C10.7223 18.1478 9.8323 17.3878 9.8323 16.1978V13.5478L8.4623 14.0378C8.4123 14.0578 8.3623 14.0778 8.2923 14.0778C8.1123 14.0778 7.9823 13.9078 7.9823 13.7178C7.9823 13.5678 8.0523 13.4778 8.2023 13.4278L9.8323 12.8478V11.5078L8.4623 11.9978C8.4123 12.0278 8.3623 12.0378 8.2923 12.0378C8.1123 12.0378 7.9823 11.8678 7.9823 11.6878C7.9823 11.5278 8.0523 11.4378 8.2023 11.3778L9.8323 10.8178V8.7278C9.8323 7.8778 10.4323 7.2778 11.2723 7.2778C12.1323 7.2778 12.7123 7.8778 12.7123 8.7278V9.7978L14.8623 9.0578C14.9023 9.0478 14.9723 9.0278 15.0323 9.0278C15.2223 9.0278 15.3423 9.1878 15.3423 9.3678C15.3423 9.5178 15.2823 9.6478 15.1323 9.6878L12.7123 10.5278V11.8478L14.8623 11.0978C14.9023 11.0878 14.9723 11.0578 15.0323 11.0578C15.2223 11.0578 15.3423 11.2178 15.3423 11.3978C15.3423 11.5578 15.2823 11.6878 15.1323 11.7278L12.7123 12.5578V15.6678C13.3923 15.6678 14.0023 15.4778 14.3923 15.1278C14.5623 14.9578 14.6723 14.7578 14.7523 14.5178C14.9723 13.9378 15.3423 13.4578 16.1023 13.4578C16.9323 13.4578 17.5123 13.9878 17.5123 14.7378C17.5123 15.5578 17.0623 16.4278 16.2423 17.0578C15.2423 17.8578 13.6723 18.1478 12.3623 18.1478Z" />
        </svg>
    