
        <svg xmlns="http://www.w3.org/2000/svg" viewBox="0 0 100 100">
            <path d="M1.0817 22.0472H23.1917V21.5672C23.1917 21.3772 23.0617 21.2472 22.8517 21.2472H22.1117V7.0172H23.2417C23.5417 7.0172 23.6917 6.8172 23.6917 6.5872C23.6917 6.4472 23.6117 6.2772 23.4217 6.1672L13.3217 0.3372C12.9417 0.1172 12.5317 -0.0028 12.1317 -0.0028C11.7317 -0.0028 11.3217 0.1172 10.9417 0.3372L0.8417 6.1672C0.6417 6.2772 0.5617 6.4472 0.5617 6.5872C0.5617 6.8172 0.7117 7.0172 1.0317 7.0172H2.1517V21.2472H1.4017C1.2117 21.2472 1.0817 21.3772 1.0817 21.5672ZM3.0017 21.2472V5.9372L11.4417 1.1472C11.6517 1.0172 11.8817 0.9472 12.1317 0.9472C12.3717 0.9472 12.6117 1.0172 12.8317 1.1472L21.2617 5.9372V21.2472ZM10.7117 17.0072H10.8417C12.2717 17.0072 13.4517 16.4872 14.3317 15.6772C15.0917 14.9172 15.6317 13.9472 15.6317 12.8772C15.6317 12.6472 15.4917 12.4872 15.2617 12.4872C15.0217 12.4872 14.8917 12.6372 14.8817 12.8672C14.8317 13.7572 14.4217 14.5672 13.7817 15.1672C13.0617 15.9072 12.0317 16.2272 11.0117 16.2272V12.2972L13.6317 11.1672C13.7717 11.1072 13.8317 11.0372 13.8317 10.9172C13.8317 10.7672 13.7217 10.6672 13.5817 10.6672C13.5317 10.6672 13.4717 10.6772 13.4217 10.7072L11.0117 11.7372V10.1272L13.6317 8.9972C13.7817 8.9272 13.8417 8.8572 13.8417 8.7272C13.8417 8.5972 13.7417 8.4772 13.5917 8.4772C13.5317 8.4772 13.4917 8.4972 13.4217 8.5272L11.0117 9.5672V7.4872C11.0117 7.2572 10.8517 7.0872 10.6017 7.0872C10.3817 7.0872 10.2217 7.2572 10.2217 7.4872V9.9072L8.6917 10.5572C8.5617 10.6072 8.5117 10.6872 8.5117 10.8072C8.5117 10.9472 8.6117 11.0672 8.7517 11.0672C8.8017 11.0672 8.8617 11.0372 8.9217 11.0172L10.2217 10.4572V12.0772L8.6917 12.7272C8.5617 12.7772 8.5117 12.8572 8.5117 12.9872C8.5117 13.1272 8.6117 13.2272 8.7517 13.2272C8.8017 13.2272 8.8717 13.2172 8.9417 13.1872L10.2217 12.6372V16.5072C10.2217 16.8072 10.4317 17.0072 10.7117 17.0072ZM0.4317 23.8172H23.8217C24.0717 23.8172 24.2617 23.6172 24.2617 23.3672C24.2617 23.1372 24.0717 22.9372 23.8217 22.9372H0.4317C0.2017 22.9372 0.0017 23.1372 0.0017 23.3672C0.0017 23.6172 0.2017 23.8172 0.4317 23.8172Z" />
        </svg>
    