
        <svg xmlns="http://www.w3.org/2000/svg" viewBox="0 0 100 100">
            <path d="M14.1123 5.0248C16.2323 5.0248 18.1723 5.7648 19.7323 6.9748C19.9723 7.1648 20.2723 7.1348 20.4923 6.9148L23.2123 4.1948C23.4823 3.9248 23.4723 3.5348 23.1923 3.3048C20.7423 1.2448 17.5623 0.0048 14.1123 0.0048C10.6623 0.0048 7.4923 1.2448 5.0423 3.3048C4.7623 3.5348 4.7423 3.9248 5.0123 4.1948L7.7323 6.9148C7.9523 7.1348 8.2723 7.1648 8.5323 6.9648C10.0823 5.7648 12.0123 5.0248 14.1123 5.0248ZM0.0023 14.1048C0.0023 17.5648 1.2423 20.7448 3.3123 23.2048C3.5523 23.4948 3.9523 23.4948 4.2023 23.2248L6.9923 20.4348C7.1723 20.2548 7.1923 19.9948 7.0323 19.7948C5.7523 18.1648 5.0323 16.2148 5.0323 14.1048C5.0323 12.0148 5.7423 10.0648 6.9623 8.5148C7.1523 8.2748 7.1523 7.9548 6.9223 7.7348L4.2023 5.0148C3.9423 4.7448 3.5523 4.7448 3.3123 5.0248C1.2423 7.4848 0.0023 10.6648 0.0023 14.1048ZM28.2323 14.1048C28.2323 10.6648 26.9923 7.4848 24.9123 5.0248C24.6823 4.7448 24.2823 4.7448 24.0223 5.0148L21.3023 7.7348C21.0823 7.9548 21.0723 8.2748 21.2723 8.5148C22.4723 10.0648 23.2023 12.0148 23.2023 14.1048C23.2023 16.2148 22.4723 18.1648 21.2023 19.7948C21.0323 19.9948 21.0423 20.2548 21.2223 20.4348L24.0123 23.2248C24.2823 23.4948 24.6723 23.4948 24.9123 23.2048C26.9923 20.7448 28.2323 17.5648 28.2323 14.1048ZM12.7123 19.3848H12.8523C14.2623 19.3848 15.7423 18.8548 16.6623 17.9548C17.4223 17.1948 18.0023 16.1248 18.0023 15.1148C18.0023 14.7548 17.8123 14.4648 17.3623 14.4648C16.9823 14.4648 16.7723 14.7048 16.7223 15.0948C16.6123 15.8348 16.3023 16.4748 15.8423 16.9648C15.1723 17.6948 14.1923 18.0748 13.1923 18.0748V14.3348L15.6023 13.3448C15.7823 13.2648 15.8923 13.1348 15.8923 12.9748C15.8923 12.7348 15.7223 12.5748 15.5023 12.5748C15.4323 12.5748 15.3723 12.5948 15.2923 12.6348L13.1923 13.4848V12.0348L15.6023 11.0548C15.7923 10.9848 15.8923 10.8348 15.8923 10.6548C15.8923 10.5148 15.8123 10.2748 15.5123 10.2748C15.4423 10.2748 15.3723 10.3048 15.2923 10.3348L13.1923 11.1948V9.5848C13.1923 9.1648 12.9123 8.8848 12.5023 8.8848C12.0923 8.8848 11.8123 9.1648 11.8123 9.5848V11.7448L10.3323 12.3548C10.1323 12.4148 10.0523 12.5348 10.0523 12.7148C10.0523 12.9348 10.2223 13.1148 10.4323 13.1148C10.4923 13.1148 10.5723 13.0848 10.6523 13.0648L11.8123 12.5848V14.0348L10.3323 14.6348C10.1323 14.7148 10.0523 14.8248 10.0523 15.0148C10.0523 15.2248 10.2223 15.3948 10.4323 15.3948C10.4923 15.3948 10.5823 15.3848 10.6623 15.3548L11.8123 14.8848V18.5248C11.8123 19.0448 12.1923 19.3848 12.7123 19.3848Z" />
        </svg>
    