
        <svg xmlns="http://www.w3.org/2000/svg" viewBox="0 0 100 100">
            <path d="M7.3817 21.2816H7.8117C10.6217 21.2816 13.3517 20.6216 15.4017 18.9616C16.9017 17.7116 17.9517 15.9716 17.9517 14.0616C17.9517 12.7216 16.9817 11.9016 15.6217 11.9016C14.2517 11.9016 13.5817 12.7016 13.3217 13.7416C13.1917 14.4716 12.8717 15.0816 12.4217 15.5716C11.4917 16.5916 9.9817 17.0316 8.4717 17.0316V10.5316L13.2617 8.7816C13.5817 8.6616 13.7317 8.4516 13.7317 8.1416C13.7317 7.7816 13.5017 7.4316 13.0817 7.4316C12.9717 7.4316 12.8717 7.4616 12.7817 7.4916L8.4717 9.0716V6.3916L13.2617 4.6316C13.5817 4.5116 13.7317 4.3016 13.7317 3.9816C13.7317 3.6116 13.4917 3.2816 13.0817 3.2816C12.9717 3.2816 12.8717 3.3016 12.7817 3.3416L8.4717 4.9216V2.4616C8.4717 0.9516 7.5217 0.0016 6.0317 0.0016C4.5717 0.0016 3.6217 0.9516 3.6217 2.4516V6.6216L0.4717 7.7716C0.1517 7.8916 0.0017 8.1116 0.0017 8.4116C0.0017 8.7916 0.2617 9.1316 0.6517 9.1316C0.7617 9.1316 0.8717 9.1016 0.9517 9.0716L3.6217 8.1016V10.7916L0.4717 11.9316C0.1517 12.0516 0.0017 12.2716 0.0017 12.5716C0.0017 12.9616 0.2617 13.2916 0.6517 13.2916C0.7617 13.2916 0.8717 13.2616 0.9517 13.2316L3.6217 12.2416V18.0116C3.6217 20.3016 5.0517 21.2816 7.3817 21.2816Z" />
        </svg>
    