
        <svg xmlns="http://www.w3.org/2000/svg" viewBox="0 0 100 100">
            <path d="M0.4317 23.8172H23.8217C24.0717 23.8172 24.2617 23.6172 24.2617 23.3672C24.2617 23.1372 24.0717 22.9372 23.8217 22.9372H23.1917V22.2172C23.1917 22.0172 23.0617 21.8872 22.8517 21.8872H22.1117V7.0172H23.2417C23.5417 7.0172 23.6917 6.8172 23.6917 6.5872C23.6917 6.4472 23.6117 6.2772 23.4217 6.1672L13.3217 0.3372C12.9417 0.1172 12.5317 -0.0028 12.1317 -0.0028C11.7317 -0.0028 11.3217 0.1172 10.9417 0.3372L0.8417 6.1672C0.6417 6.2772 0.5617 6.4472 0.5617 6.5872C0.5617 6.8172 0.7117 7.0172 1.0317 7.0172H2.1517V21.8872H1.4017C1.2117 21.8872 1.0817 22.0172 1.0817 22.2172V22.9372H0.4317C0.2017 22.9372 0.0017 23.1372 0.0017 23.3672C0.0017 23.6172 0.2017 23.8172 0.4317 23.8172ZM10.7117 18.0972C10.4017 18.0972 10.1917 17.8872 10.1917 17.5872V13.6872L8.9217 14.2372C8.8517 14.2772 8.7817 14.2872 8.7317 14.2872C8.5917 14.2872 8.4817 14.1772 8.4817 14.0372C8.4817 13.9072 8.5417 13.8272 8.6717 13.7772L10.1917 13.1272V11.4872L8.8917 12.0472C8.8317 12.0772 8.7817 12.0972 8.7317 12.0972C8.5917 12.0972 8.4817 11.9872 8.4817 11.8372C8.4817 11.7272 8.5417 11.6372 8.6717 11.5872L10.1917 10.9172V8.5072C10.1917 8.2572 10.3717 8.0972 10.6017 8.0972C10.8417 8.0972 11.0017 8.2572 11.0017 8.5072V10.5972L13.4317 9.5472C13.5017 9.5172 13.5517 9.4872 13.6017 9.4872C13.7617 9.4872 13.8517 9.6172 13.8517 9.7572C13.8517 9.8772 13.7917 9.9572 13.6417 10.0172L11.0017 11.1572V12.7872L13.4317 11.7372C13.4917 11.7172 13.5317 11.6972 13.5917 11.6972C13.7317 11.6972 13.8417 11.7972 13.8417 11.9672C13.8417 12.0772 13.7817 12.1572 13.6417 12.2072L11.0017 13.3372V17.3072C12.0517 17.3072 13.0617 16.9672 13.7917 16.2272C14.4417 15.6372 14.8617 14.8172 14.9017 13.9172C14.9217 13.6872 15.0517 13.5372 15.2817 13.5372C15.5117 13.5372 15.6517 13.6972 15.6517 13.9372C15.6517 15.0072 15.1217 15.9872 14.3417 16.7472C13.4617 17.5672 12.2717 18.0972 10.8317 18.0972Z" />
        </svg>
    