
        <svg xmlns="http://www.w3.org/2000/svg" viewBox="0 0 100 100">
            <path d="M0.2817 23.4614H23.4217C23.5817 23.4614 23.7117 23.3314 23.7117 23.1714C23.7117 23.0114 23.5817 22.8914 23.4217 22.8914H22.7817V22.1914C22.7817 22.0914 22.6917 21.9914 22.5617 21.9914H21.8217V6.7314H22.9717C23.1817 6.7314 23.2717 6.6014 23.2717 6.4314C23.2717 6.3514 23.2217 6.2314 23.1017 6.1614L12.9717 0.3114C12.6117 0.1014 12.2217 0.0014 11.8617 0.0014C11.4817 0.0014 11.1017 0.1014 10.7317 0.3114L0.6117 6.1614C0.4817 6.2314 0.4317 6.3514 0.4317 6.4314C0.4317 6.6014 0.5317 6.7314 0.7417 6.7314H1.9017V21.9914H1.1517C1.0217 21.9914 0.9217 22.0914 0.9217 22.1914V22.8914H0.2817C0.1317 22.8914 0.0017 23.0114 0.0017 23.1714C0.0017 23.3314 0.1317 23.4614 0.2817 23.4614ZM10.4317 17.9214C10.2117 17.9214 10.0417 17.7614 10.0417 17.5314V13.5914L8.7417 14.1514C8.6717 14.1914 8.6117 14.2014 8.5617 14.2014C8.4517 14.2014 8.3517 14.1214 8.3517 14.0014C8.3517 13.9014 8.4017 13.8114 8.5217 13.7814L10.0417 13.1114V11.4414L8.7117 12.0214C8.6517 12.0614 8.6117 12.0714 8.5617 12.0714C8.4517 12.0714 8.3517 11.9814 8.3517 11.8514C8.3517 11.7614 8.4017 11.6814 8.5217 11.6514L10.0417 10.9714V8.4914C10.0417 8.3114 10.1817 8.1814 10.3517 8.1814C10.5517 8.1814 10.6717 8.3114 10.6717 8.4914V10.7014L13.1617 9.6114C13.2417 9.5714 13.2617 9.5614 13.3217 9.5614C13.4417 9.5614 13.5317 9.6514 13.5317 9.7814C13.5317 9.8914 13.4917 9.9514 13.3617 10.0114L10.6717 11.1814V12.8414L13.1617 11.7514C13.2217 11.7314 13.2617 11.7214 13.3117 11.7214C13.4317 11.7214 13.5217 11.8014 13.5217 11.9314C13.5217 12.0314 13.4717 12.0914 13.3617 12.1414L10.6717 13.3114V17.3114C11.7117 17.3114 12.7417 16.9814 13.4717 16.2414C14.1717 15.6214 14.6117 14.7614 14.6517 13.8314C14.6517 13.6414 14.7417 13.5214 14.9417 13.5214C15.1217 13.5214 15.2317 13.6414 15.2317 13.8314C15.2317 14.9214 14.7117 15.8714 13.9417 16.6314C13.0817 17.4014 11.9717 17.9214 10.5517 17.9214Z" />
        </svg>
    