
        <svg xmlns="http://www.w3.org/2000/svg" viewBox="0 0 100 100">
            <path d="M0.8844 9.8536C-0.0156 9.8536 -0.2356 10.5736 0.2544 11.2236L3.0444 15.0536C3.4244 15.5736 4.0244 15.5636 4.3944 15.0536L7.1944 11.2236C7.6744 10.5736 7.4344 9.8536 6.5444 9.8536H5.0444C6.1044 5.7336 9.8444 2.6836 14.2944 2.6836C19.5644 2.6836 23.8344 6.9536 23.8344 12.2236C23.8344 17.4936 19.5644 21.7636 14.2944 21.7636C11.2944 21.7636 8.6544 20.3836 6.9244 18.2036C6.3744 17.6036 5.5844 17.4136 4.9544 17.9036C4.3644 18.3536 4.2844 19.1936 4.8744 19.9136C6.9544 22.6636 10.5944 24.4436 14.2944 24.4436C21.0444 24.4436 26.5144 18.9736 26.5144 12.2236C26.5144 5.4736 21.0444 0.0036 14.2944 0.0036C8.3544 0.0036 3.3944 4.2436 2.2944 9.8536ZM13.1444 17.2936H13.3244C14.6544 17.2936 16.1344 16.8536 17.0644 15.9936C17.8244 15.2836 18.3344 14.3036 18.3344 13.3736C18.3344 12.9036 18.0444 12.5536 17.4944 12.5536C17.0044 12.5536 16.7544 12.8536 16.6544 13.3036C16.5544 13.8736 16.3144 14.3636 15.9544 14.7536C15.3844 15.3536 14.5244 15.6636 13.6544 15.6636V12.2036L16.0044 11.2836C16.1744 11.2136 16.2644 11.0836 16.2644 10.9336C16.2644 10.7136 16.1244 10.5536 15.9144 10.5536C15.8444 10.5536 15.7844 10.5836 15.7144 10.6036L13.6544 11.4036V10.0336L16.0044 9.1136C16.1844 9.0436 16.2644 8.9136 16.2644 8.7436C16.2644 8.5936 16.1744 8.3936 15.9244 8.3936C15.8544 8.3936 15.7844 8.4136 15.7144 8.4336L13.6544 9.2436V7.8236C13.6544 7.2936 13.2844 6.9136 12.7644 6.9136C12.2344 6.9136 11.8544 7.2936 11.8544 7.8236V9.9136L10.3644 10.4836C10.1944 10.5536 10.1144 10.6636 10.1144 10.8436C10.1144 11.0436 10.2644 11.2036 10.4644 11.2036C10.5244 11.2036 10.5944 11.1936 10.6644 11.1636L11.8544 10.7036V12.0836L10.3644 12.6536C10.1944 12.7236 10.1144 12.8336 10.1144 13.0036C10.1144 13.2036 10.2644 13.3736 10.4644 13.3736C10.5244 13.3736 10.6044 13.3636 10.6744 13.3236L11.8544 12.8636V16.1236C11.8544 16.8436 12.3744 17.2936 13.1444 17.2936Z" />
        </svg>
    