
        <svg xmlns="http://www.w3.org/2000/svg" viewBox="0 0 100 100">
            <path d="M1.0617 25.7816H25.8017C26.3817 25.7816 26.8717 25.3016 26.8717 24.7116C26.8717 24.1416 26.3817 23.6616 25.8017 23.6616H25.1917V22.7416C25.1917 22.2316 24.8917 21.9216 24.3717 21.9216H23.6917V8.3716H24.7017C25.4217 8.3716 25.8417 7.8516 25.8417 7.3116C25.8417 6.9216 25.6217 6.5716 25.1517 6.2916L14.9717 0.4216C14.4917 0.1516 13.9717 0.0016 13.4617 0.0016C12.9617 0.0016 12.4217 0.1516 11.9517 0.4216L1.7817 6.2916C1.3017 6.5716 1.0917 6.9216 1.0917 7.3116C1.0917 7.8516 1.5117 8.3716 2.2217 8.3716H3.2417V21.9216H2.5617C2.0517 21.9216 1.7417 22.2316 1.7417 22.7416V23.6616H1.0617C0.4817 23.6616 0.0017 24.1416 0.0017 24.7116C0.0017 25.3016 0.4817 25.7816 1.0617 25.7816ZM12.1917 19.1816C11.4817 19.1816 11.0017 18.7616 11.0017 18.1016V14.5416L9.7817 15.0316C9.7117 15.0616 9.6217 15.0816 9.5617 15.0816C9.3417 15.0816 9.1917 14.9016 9.1917 14.6816C9.1917 14.5116 9.2617 14.3916 9.4617 14.3216L11.0017 13.7116V12.2416L9.7717 12.7216C9.7017 12.7616 9.6217 12.7716 9.5617 12.7716C9.3417 12.7716 9.1917 12.6016 9.1917 12.3916C9.1917 12.2016 9.2617 12.0816 9.4617 12.0116L11.0017 11.3916V9.2016C11.0017 8.6916 11.3517 8.3416 11.8617 8.3416C12.3517 8.3416 12.6917 8.6916 12.6917 9.2016V10.7616L14.8617 9.9016C14.9317 9.8716 15.0117 9.8316 15.0817 9.8316C15.3517 9.8316 15.4417 10.0616 15.4417 10.2216C15.4417 10.4016 15.3517 10.5616 15.1517 10.6216L12.6917 11.5916V13.0516L14.8617 12.2016C14.9317 12.1716 15.0017 12.1516 15.0717 12.1516C15.2917 12.1516 15.4417 12.3016 15.4417 12.5516C15.4417 12.7116 15.3517 12.8516 15.1517 12.9216L12.6917 13.9016V17.6216C13.6617 17.6216 14.6017 17.2716 15.2317 16.5916C15.6517 16.1516 15.9417 15.5716 16.0417 14.9016C16.1117 14.4716 16.3617 14.1816 16.8417 14.1816C17.3517 14.1816 17.6217 14.5216 17.6217 14.9616C17.6217 15.9616 17.0517 17.0116 16.2617 17.7816C15.3017 18.6916 13.7717 19.1816 12.3417 19.1816Z" />
        </svg>
    