
        <svg xmlns="http://www.w3.org/2000/svg" viewBox="0 0 100 100">
            <path d="M11.3523 22.7064C17.6323 22.7064 22.7123 17.6264 22.7123 11.3564C22.7123 5.0764 17.6323 -0.0036 11.3523 -0.0036C5.0823 -0.0036 0.0023 5.0764 0.0023 11.3564C0.0023 17.6264 5.0823 22.7064 11.3523 22.7064ZM11.3523 22.1364C5.3923 22.1364 0.5723 17.3164 0.5723 11.3564C0.5723 5.3864 5.3923 0.5764 11.3523 0.5764C17.3223 0.5764 22.1323 5.3864 22.1323 11.3564C22.1323 17.3164 17.3223 22.1364 11.3523 22.1364ZM9.9223 16.1464H10.0423C11.4723 16.1464 12.5723 15.6164 13.4423 14.8464C14.2023 14.0864 14.7323 13.1464 14.7323 12.0564C14.7323 11.8564 14.6123 11.7464 14.4423 11.7464C14.2523 11.7464 14.1423 11.8564 14.1423 12.0564C14.1123 12.9864 13.6623 13.8364 12.9723 14.4764C12.2323 15.2064 11.2023 15.5364 10.1723 15.5364V11.5264L12.8523 10.3664C12.9723 10.3264 13.0223 10.2664 13.0223 10.1564C13.0223 10.0264 12.9223 9.9364 12.8123 9.9364C12.7623 9.9364 12.7223 9.9464 12.6523 9.9864L10.1723 11.0664V9.3964L12.8523 8.2264C12.9823 8.1664 13.0323 8.1064 13.0323 8.0064C13.0323 7.8764 12.9423 7.7764 12.8223 7.7764C12.7623 7.7764 12.7423 7.8064 12.6523 7.8264L10.1723 8.9264V6.7164C10.1723 6.5264 10.0423 6.3964 9.8423 6.3964C9.6723 6.3964 9.5423 6.5264 9.5423 6.7164V9.1864L8.0123 9.8664C7.9023 9.9164 7.8523 9.9864 7.8523 10.0764C7.8523 10.2064 7.9423 10.2864 8.0623 10.2864C8.1123 10.2864 8.1423 10.2764 8.2023 10.2564L9.5423 9.6664V11.3464L8.0123 11.9964C7.9023 12.0464 7.8523 12.1164 7.8523 12.2264C7.8523 12.3364 7.9423 12.4364 8.0623 12.4364C8.1123 12.4364 8.1723 12.4064 8.2423 12.3864L9.5423 11.8164V15.7464C9.5423 15.9864 9.7023 16.1464 9.9223 16.1464Z" />
        </svg>
    