
        <svg xmlns="http://www.w3.org/2000/svg" viewBox="0 0 100 100">
            <path d="M3.6817 21.5722H17.8917C20.3517 21.5722 21.5717 20.3722 21.5717 17.9522V3.6322C21.5717 1.2222 20.3517 0.0022 17.8917 0.0022H3.6817C1.2317 0.0022 0.0017 1.2222 0.0017 3.6322V17.9522C0.0017 20.3722 1.2317 21.5722 3.6817 21.5722ZM3.7017 19.6922C2.5317 19.6922 1.8917 19.0622 1.8917 17.8522V3.7422C1.8917 2.5222 2.5317 1.8822 3.7017 1.8822H17.8717C19.0317 1.8822 19.6917 2.5222 19.6917 3.7422V17.8522C19.6917 19.0622 19.0317 19.6922 17.8717 19.6922ZM9.4117 15.9022H9.5517C10.9417 15.9022 12.4317 15.3722 13.3617 14.4722C14.1217 13.7022 14.6917 12.6422 14.6917 11.6322C14.6917 11.2622 14.4917 10.9822 14.0617 10.9822C13.6717 10.9822 13.4617 11.2122 13.4217 11.6122C13.3117 12.3522 12.9917 12.9922 12.5417 13.4722C11.8717 14.2122 10.8717 14.5922 9.8817 14.5922V10.8422L12.2917 9.8622C12.4817 9.7822 12.5817 9.6522 12.5817 9.4922C12.5817 9.2422 12.4217 9.0922 12.2017 9.0922C12.1317 9.0922 12.0617 9.1122 11.9917 9.1422L9.8817 9.9922V8.5522L12.2917 7.5722C12.4817 7.5022 12.5817 7.3622 12.5817 7.1722C12.5817 7.0222 12.5017 6.7922 12.2117 6.7922C12.1417 6.7922 12.0717 6.8222 11.9917 6.8522L9.8817 7.7122V6.0922C9.8817 5.6822 9.6117 5.3922 9.2017 5.3922C8.7917 5.3922 8.5117 5.6822 8.5117 6.0922V8.2622L7.0217 8.8622C6.8317 8.9322 6.7517 9.0422 6.7517 9.2322C6.7517 9.4522 6.9117 9.6222 7.1217 9.6222C7.1817 9.6222 7.2617 9.6122 7.3517 9.5722L8.5117 9.1022V10.5622L7.0217 11.1522C6.8317 11.2422 6.7517 11.3422 6.7517 11.5322C6.7517 11.7422 6.9117 11.9222 7.1217 11.9222C7.1817 11.9222 7.2817 11.8922 7.3517 11.8722L8.5117 11.3922V15.0322C8.5117 15.5622 8.8817 15.9022 9.4117 15.9022Z" />
        </svg>
    