
        <svg xmlns="http://www.w3.org/2000/svg" viewBox="0 0 100 100">
            <path d="M12.1023 24.2064C18.7823 24.2064 24.2123 18.7864 24.2123 12.1064C24.2123 5.4264 18.7823 -0.0036 12.1023 -0.0036C5.4223 -0.0036 0.0023 5.4264 0.0023 12.1064C0.0023 18.7864 5.4223 24.2064 12.1023 24.2064ZM12.1023 21.8164C6.7223 21.8164 2.3823 17.4864 2.3823 12.1064C2.3823 6.7264 6.7223 2.3764 12.1023 2.3764C17.4823 2.3764 21.8323 6.7264 21.8323 12.1064C21.8323 17.4864 17.4823 21.8164 12.1023 21.8164ZM10.8423 17.1864H11.0023C12.3723 17.1864 13.8423 16.7064 14.7823 15.8464C15.5423 15.1064 16.0823 14.0964 16.0823 13.1264C16.0823 12.7064 15.8223 12.3764 15.3323 12.3764C14.8823 12.3764 14.6523 12.6564 14.5623 13.0764C14.4723 13.7264 14.1923 14.2864 13.7923 14.7064C13.1723 15.3664 12.2723 15.7064 11.3323 15.7064V12.1164L13.7123 11.1664C13.8823 11.0964 13.9923 10.9664 13.9923 10.8164C13.9923 10.5864 13.8423 10.4264 13.6123 10.4264C13.5423 10.4264 13.4923 10.4564 13.4223 10.4764L11.3323 11.3064V9.8864L13.7123 8.9564C13.9023 8.8864 13.9923 8.7564 13.9923 8.5664C13.9923 8.4264 13.9023 8.2064 13.6323 8.2064C13.5623 8.2064 13.4923 8.2264 13.4223 8.2664L11.3323 9.0864V7.5864C11.3323 7.1064 11.0023 6.7664 10.5323 6.7664C10.0523 6.7664 9.7223 7.1064 9.7223 7.5864V9.7064L8.2423 10.2864C8.0523 10.3564 7.9823 10.4764 7.9823 10.6564C7.9823 10.8664 8.1323 11.0264 8.3323 11.0264C8.3923 11.0264 8.4723 11.0164 8.5423 10.9764L9.7223 10.5164V11.9264L8.2423 12.5164C8.0523 12.5864 7.9823 12.6864 7.9823 12.8764C7.9823 13.0764 8.1323 13.2464 8.3323 13.2464C8.3923 13.2464 8.4823 13.2264 8.5523 13.2064L9.7223 12.7364V16.1564C9.7223 16.7964 10.1723 17.1864 10.8423 17.1864Z" />
        </svg>
    