
        <svg xmlns="http://www.w3.org/2000/svg" viewBox="0 0 100 100">
            <path d="M1.4417 28.2972H27.6817C28.4517 28.2972 29.1317 27.6672 29.1317 26.8572C29.1317 26.0772 28.4517 25.4172 27.6817 25.4172H27.0917V24.3172C27.0917 23.6672 26.6817 23.2772 26.0517 23.2772H25.5917V9.4672H26.5317C27.4917 9.4672 28.0517 8.7572 28.0517 8.0372C28.0517 7.5072 27.7617 7.0272 27.1517 6.6672L16.4617 0.5072C15.9217 0.1972 15.2917 -0.0028 14.7117 -0.0028C14.1217 -0.0028 13.4917 0.1972 12.9517 0.5072L2.2617 6.6672C1.6517 7.0272 1.3617 7.5072 1.3617 8.0372C1.3617 8.7572 1.9217 9.4672 2.8917 9.4672H3.8317V23.2772H3.3717C2.7317 23.2772 2.3317 23.6672 2.3317 24.3172V25.4172H1.4417C0.6717 25.4172 0.0017 26.0772 0.0017 26.8572C0.0017 27.6572 0.6717 28.2972 1.4417 28.2972ZM13.8617 20.8972C12.6717 20.8972 11.8917 20.2272 11.8917 19.1872V16.2772L10.5717 16.7672C10.5117 16.7972 10.4517 16.8072 10.3817 16.8072C10.1817 16.8072 10.0517 16.6272 10.0517 16.4372C10.0517 16.2772 10.1117 16.1672 10.2917 16.1272L11.8917 15.5272V14.1572L10.5717 14.6472C10.5117 14.6672 10.4517 14.6872 10.3817 14.6872C10.1817 14.6872 10.0517 14.5172 10.0517 14.3172C10.0517 14.1572 10.1117 14.0672 10.2917 14.0072L11.8917 13.4172V11.2972C11.8917 10.5472 12.4117 10.0172 13.1617 10.0172C13.9117 10.0172 14.4217 10.5472 14.4217 11.2972V12.5172L16.5817 11.7372C16.6417 11.7172 16.7017 11.6972 16.7717 11.6972C16.9817 11.6972 17.1017 11.8872 17.1017 12.0472C17.1017 12.2072 17.0317 12.3372 16.8517 12.3972L14.4217 13.2772V14.6372L16.5817 13.8472C16.6417 13.8372 16.7017 13.8172 16.7717 13.8172C16.9617 13.8172 17.1017 13.9672 17.1017 14.1772C17.1017 14.3272 17.0317 14.4572 16.8517 14.5172L14.4217 15.3872V18.6672C15.1917 18.6672 15.9017 18.4372 16.3617 17.9872C16.6017 17.7372 16.7617 17.4272 16.8417 17.0672C17.0317 16.5272 17.3517 16.0972 18.0317 16.0972C18.7717 16.0972 19.2617 16.5772 19.2617 17.2372C19.2617 18.1172 18.7817 19.0272 17.9617 19.7072C16.9817 20.5472 15.4217 20.8972 14.0817 20.8972Z" />
        </svg>
    