
        <svg xmlns="http://www.w3.org/2000/svg" viewBox="0 0 100 100">
            <path d="M3.9417 21.6491H27.0817C29.5517 21.6491 31.0317 20.1691 31.0317 17.6991V3.9491C31.0317 1.4691 29.5517 -0.0009 27.0817 -0.0009H3.9417C1.4617 -0.0009 0.0017 1.4691 0.0017 3.9491V17.6991C0.0017 20.1691 1.4617 21.6491 3.9417 21.6491ZM4.3917 18.2491C3.7417 18.2491 3.4017 17.9391 3.4017 17.2491V4.3991C3.4017 3.6991 3.7417 3.3991 4.3917 3.3991H26.6417C27.2817 3.3991 27.6317 3.6991 27.6317 4.3991V17.2491C27.6317 17.9391 27.2817 18.2491 26.6417 18.2491ZM9.2017 26.1591H21.8317C22.6317 26.1591 23.2717 25.4791 23.2717 24.7291C23.2717 23.9791 22.6317 23.2991 21.8317 23.2991H9.2017C8.3917 23.2991 7.7617 23.9791 7.7617 24.7291C7.7617 25.4791 8.3917 26.1591 9.2017 26.1591Z" />
        </svg>
    