
        <svg xmlns="http://www.w3.org/2000/svg" viewBox="0 0 100 100">
            <path d="M4.2317 22.3108H13.9417V18.4608H4.8017C4.1717 18.4608 3.8517 18.2008 3.8517 17.5108V4.8008C3.8517 4.1108 4.1717 3.8508 4.8017 3.8508H27.2917C27.9417 3.8508 28.2417 4.1108 28.2417 4.8008V14.8808H32.1117V4.2308C32.1117 1.5508 30.5517 0.0008 27.8817 0.0008H4.2317C1.5617 0.0008 0.0017 1.5508 0.0017 4.2308V18.0808C0.0017 20.7608 1.5617 22.3108 4.2317 22.3108ZM19.1217 29.1008H33.7217C35.7917 29.1008 36.9817 27.9008 36.9817 25.8408V20.0608C36.9817 18.0108 35.7917 16.8208 33.7217 16.8208H19.1217C17.0717 16.8208 15.8817 18.0108 15.8817 20.0608V25.8408C15.8817 27.9008 17.0717 29.1008 19.1217 29.1008ZM31.5817 24.3908C30.4717 24.3908 29.5617 23.4808 29.5617 22.3708C29.5617 21.2808 30.4717 20.3808 31.5817 20.3808C32.6717 20.3808 33.5717 21.2808 33.5717 22.3708C33.5717 23.4808 32.6717 24.3908 31.5817 24.3908ZM9.6017 26.9908H14.0417C13.9317 26.4108 13.9417 24.8208 13.9417 23.8408H9.6017C8.7217 23.8408 8.0117 24.6008 8.0117 25.4208C8.0117 26.2408 8.7217 26.9908 9.6017 26.9908Z" />
        </svg>
    