
        <svg xmlns="http://www.w3.org/2000/svg" viewBox="0 0 100 100">
            <path d="M12.7923 25.5978C19.8723 25.5978 25.6023 19.8678 25.6023 12.7978C25.6023 5.7278 19.8723 -0.0022 12.7923 -0.0022C5.7323 -0.0022 0.0023 5.7278 0.0023 12.7978C0.0023 19.8678 5.7323 25.5978 12.7923 25.5978ZM12.7923 21.4178C8.0323 21.4178 4.1723 17.5678 4.1723 12.7978C4.1723 8.0278 8.0323 4.1678 12.7923 4.1678C17.5623 4.1678 21.4323 8.0278 21.4323 12.7978C21.4323 17.5678 17.5623 21.4178 12.7923 21.4178ZM8.1023 16.7078H17.4823C18.4723 16.7078 19.1023 16.0878 19.1023 15.1178V9.2578C19.1023 8.2978 18.4723 7.6778 17.4823 7.6778H8.1023C7.1123 7.6778 6.4823 8.2978 6.4823 9.2578V15.1178C6.4823 16.0878 7.1123 16.7078 8.1023 16.7078ZM8.8323 14.7078C8.6623 14.7078 8.5423 14.5878 8.5423 14.4178V9.9578C8.5423 9.7878 8.6623 9.6778 8.8323 9.6778H16.7423C16.9223 9.6778 17.0423 9.7878 17.0423 9.9578V14.4178C17.0423 14.5878 16.9223 14.7078 16.7423 14.7078ZM9.7523 19.4578H15.8523C16.4423 19.4578 16.8323 19.0678 16.8323 18.4678C16.8323 17.8978 16.4423 17.4978 15.8523 17.4978H9.7523C9.1523 17.4978 8.7523 17.8978 8.7523 18.4678C8.7523 19.0678 9.1523 19.4578 9.7523 19.4578Z" />
        </svg>
    