
        <svg xmlns="http://www.w3.org/2000/svg" viewBox="0 0 100 100">
            <path d="M3.6817 21.5722H17.8917C20.3517 21.5722 21.5717 20.3722 21.5717 17.9522V3.6322C21.5717 1.2222 20.3517 0.0022 17.8917 0.0022H3.6817C1.2317 0.0022 0.0017 1.2222 0.0017 3.6322V17.9522C0.0017 20.3722 1.2317 21.5722 3.6817 21.5722ZM3.7017 19.6922C2.5317 19.6922 1.8917 19.0622 1.8917 17.8522V3.7422C1.8917 2.5222 2.5317 1.8822 3.7017 1.8822H17.8717C19.0317 1.8822 19.6917 2.5222 19.6917 3.7422V17.8522C19.6917 19.0622 19.0317 19.6922 17.8717 19.6922ZM10.7917 16.2822C13.5317 16.2822 15.3717 14.6922 15.3717 12.2322V6.2422C15.3717 5.5922 15.0317 5.1922 14.4217 5.1922C13.8517 5.1922 13.5017 5.5922 13.5017 6.2422V12.0622C13.5017 13.7022 12.4317 14.7322 10.7917 14.7322C9.1517 14.7322 8.0717 13.7022 8.0717 12.0622V6.2422C8.0717 5.5922 7.7317 5.1922 7.1417 5.1922C6.5517 5.1922 6.2117 5.5922 6.2117 6.2422V12.2322C6.2117 14.6922 8.0517 16.2822 10.7917 16.2822Z" />
        </svg>
    