
        <svg xmlns="http://www.w3.org/2000/svg" viewBox="0 0 100 100">
            <path d="M4.3817 22.8467H18.4717C21.2617 22.8467 22.8517 21.2667 22.8517 18.4767V4.3667C22.8517 1.5867 21.2617 -0.0033 18.4717 -0.0033H4.3817C1.5917 -0.0033 0.0017 1.5867 0.0017 4.3667V18.4767C0.0017 21.2667 1.5917 22.8467 4.3817 22.8467ZM11.5317 17.1767C8.5117 17.1767 6.4117 15.5167 6.4117 13.0467V7.6067C6.4117 6.3667 7.0517 5.6767 8.2017 5.6767C9.3417 5.6767 9.9817 6.3767 9.9817 7.6067V12.7067C9.9817 13.6367 10.6017 14.2867 11.5317 14.2867C12.4617 14.2867 13.0917 13.6367 13.0917 12.7067V7.6067C13.0917 6.3767 13.7317 5.6767 14.8617 5.6767C16.0117 5.6767 16.6517 6.3667 16.6517 7.6067V13.0467C16.6517 15.5167 14.5617 17.1767 11.5317 17.1767Z" />
        </svg>
    