
        <svg xmlns="http://www.w3.org/2000/svg" viewBox="0 0 100 100">
            <path d="M4.5917 23.2359H18.6417C21.5417 23.2359 23.2417 21.5459 23.2417 18.6459V4.5959C23.2417 1.6959 21.5417 -0.0041 18.6417 -0.0041H4.5917C1.7017 -0.0041 0.0017 1.6959 0.0017 4.5959V18.6459C0.0017 21.5459 1.7017 23.2359 4.5917 23.2359ZM11.7617 17.4159C8.6717 17.4159 6.5317 15.7359 6.5317 13.2759V8.0759C6.5317 6.6559 7.2517 5.8859 8.5617 5.8859C9.8517 5.8859 10.5917 6.6659 10.5917 8.0759V12.8859C10.5917 13.5959 11.0717 14.1259 11.7617 14.1259C12.4417 14.1259 12.9417 13.5959 12.9417 12.8859V8.0759C12.9417 6.6659 13.6617 5.8859 14.9617 5.8859C16.2617 5.8859 17.0017 6.6559 17.0017 8.0759V13.2759C17.0017 15.7359 14.8517 17.4159 11.7617 17.4159Z" />
        </svg>
    