
        <svg xmlns="http://www.w3.org/2000/svg" viewBox="0 0 100 100">
            <path d="M1.1917 15.3789C1.7017 15.3789 2.1017 15.1189 2.5617 14.5789C3.2317 13.6489 3.9417 13.2489 4.8617 13.2489C5.7817 13.2489 6.4317 13.6789 7.1117 14.7189C7.4317 15.1789 7.7417 15.3789 8.1517 15.3789C8.5817 15.3789 8.8917 15.1689 9.2017 14.7189C9.5617 14.1789 10.0817 13.7589 10.6317 13.4989V23.6589C10.6317 24.5189 10.0117 25.1489 9.1417 25.1489C8.2717 25.1489 7.6617 24.5189 7.6617 23.6489C7.6617 22.8389 7.1417 22.2689 6.3917 22.2689C5.6417 22.2689 5.1217 22.8389 5.1217 23.6589C5.1217 25.8889 6.8717 27.5989 9.1417 27.5989C11.4217 27.5989 13.1617 26.0389 13.1617 23.7189V13.4989C13.7117 13.7589 14.2217 14.1789 14.5917 14.7189C14.8917 15.1689 15.2217 15.3789 15.6317 15.3789C16.0417 15.3789 16.3617 15.1789 16.6717 14.7189C17.3717 13.6789 18.0117 13.2489 18.9217 13.2489C19.8517 13.2489 20.5617 13.6489 21.2217 14.5789C21.6917 15.1189 22.0917 15.3789 22.5917 15.3789C23.2817 15.3789 23.7917 14.7989 23.7917 14.0489C23.7917 9.6589 20.4417 3.4289 13.1617 2.7789V1.2689C13.1617 0.5589 12.6017 -0.0011 11.8917 -0.0011C11.1917 -0.0011 10.6317 0.5489 10.6317 1.2689V2.7789C3.3517 3.4289 0.0017 9.6589 0.0017 14.0489C0.0017 14.7989 0.5017 15.3789 1.1917 15.3789ZM11.8917 10.8889C10.5317 10.8889 9.1617 11.5289 8.3317 12.5189C8.2517 12.6189 8.1717 12.6189 8.0817 12.4989C7.3317 11.5089 6.2417 10.9289 4.8517 10.9289C4.1017 10.9289 3.4217 11.0989 2.7917 11.4389C3.9517 7.7889 7.4617 5.0389 11.8917 5.0389C16.3317 5.0389 19.8417 7.7889 21.0017 11.4389C20.3817 11.0989 19.6917 10.9289 18.9417 10.9289C17.5417 10.9289 16.4517 11.5089 15.7017 12.4989C15.6217 12.6189 15.5417 12.6189 15.4617 12.5189C14.6217 11.5289 13.2617 10.8889 11.8917 10.8889Z" />
        </svg>
    