
        <svg xmlns="http://www.w3.org/2000/svg" viewBox="0 0 100 100">
            <path d="M12.1023 24.2147C18.7823 24.2147 24.2123 18.7847 24.2123 12.1047C24.2123 5.4247 18.7823 0.0047 12.1023 0.0047C5.4223 0.0047 0.0023 5.4247 0.0023 12.1047C0.0023 18.7847 5.4223 24.2147 12.1023 24.2147ZM7.2023 16.9247C5.9723 16.9247 5.2523 16.2447 5.2523 15.0247V9.2347C5.2523 8.0147 6.0123 7.3147 7.2023 7.3147H13.4223C14.6723 7.3147 15.3323 8.0147 15.3323 9.2347V15.0047C15.3323 16.2047 14.6123 16.9247 13.3723 16.9247ZM16.0223 13.8547V10.4047L18.2023 8.5347C18.4223 8.3447 18.6923 8.2147 18.9223 8.2147C19.3923 8.2147 19.7123 8.5447 19.7123 9.0547V15.1847C19.7123 15.7147 19.3923 16.0447 18.9223 16.0447C18.6923 16.0447 18.4423 15.9147 18.2023 15.7147Z" />
        </svg>
    