
        <svg xmlns="http://www.w3.org/2000/svg" viewBox="0 0 100 100">
            <path d="M23.2331 24.5694C23.6031 24.9394 24.2231 24.9494 24.5931 24.5694C24.9531 24.1994 24.9631 23.5894 24.5931 23.2294L1.6331 0.2794C1.2531 -0.0906 0.6431 -0.0906 0.2731 0.2794C-0.0869 0.6494 -0.0869 1.2794 0.2731 1.6394ZM17.9831 2.6494H6.1531L21.9331 18.4294C21.9831 18.1394 22.0231 17.7394 22.0231 17.3794V6.6694C22.0231 4.1094 20.6131 2.6494 17.9831 2.6494ZM23.8131 16.3494L27.6731 19.6594C28.2031 20.1194 28.7331 20.4294 29.2731 20.4294C30.2531 20.4294 30.9331 19.7194 30.9331 18.6694V6.2194C30.9331 5.1694 30.2531 4.4694 29.2731 4.4694C28.7331 4.4694 28.2131 4.7694 27.6731 5.2194L23.8131 8.5294ZM5.7331 22.1394H18.6331L1.8231 5.3194C1.6931 5.6594 1.6231 6.1894 1.6231 6.6994V18.2294C1.6231 20.7794 3.1131 22.1394 5.7331 22.1394Z" />
        </svg>
    