
        <svg xmlns="http://www.w3.org/2000/svg" viewBox="0 0 100 100">
            <path d="M6.6117 23.9041C10.4917 23.9041 13.1917 21.3241 13.1917 17.6441V6.2541C13.1917 2.5741 10.4917 0.0041 6.6117 0.0041C2.7317 0.0041 0.0017 2.5741 0.0017 6.2541V17.6441C0.0017 21.3241 2.7317 23.9041 6.6117 23.9041ZM6.6117 23.3341C3.0617 23.3341 0.5717 20.9741 0.5717 17.6441V6.2541C0.5717 2.9141 3.0617 0.5741 6.6117 0.5741C10.1417 0.5741 12.6217 2.9141 12.6217 6.2541V17.6441C12.6217 20.9741 10.1417 23.3341 6.6117 23.3341ZM6.6117 10.6741C8.7417 10.6741 10.4317 8.9841 10.4317 6.8541C10.4317 4.7141 8.7417 3.0241 6.6117 3.0241C4.4517 3.0241 2.7617 4.7141 2.7617 6.8541C2.7617 8.9841 4.4517 10.6741 6.6117 10.6741ZM6.6117 8.3241C5.7917 8.3241 5.1317 7.6741 5.1317 6.8541C5.1317 6.0241 5.7917 5.3741 6.6117 5.3741C7.4317 5.3741 8.0717 6.0241 8.0717 6.8541C8.0717 7.6741 7.4317 8.3241 6.6117 8.3241ZM6.6117 20.7341C8.7417 20.7341 10.4317 19.0441 10.4317 16.8941C10.4317 14.7641 8.7417 13.0741 6.6117 13.0741C4.4517 13.0741 2.7617 14.7641 2.7617 16.8941C2.7617 19.0441 4.4517 20.7341 6.6117 20.7341ZM6.6117 20.1441C4.7017 20.1441 3.3517 18.7941 3.3517 16.8941C3.3517 15.0041 4.7017 13.6541 6.6117 13.6541C8.4917 13.6541 9.8417 15.0041 9.8417 16.8941C9.8417 18.7941 8.4917 20.1441 6.6117 20.1441Z" />
        </svg>
    