
        <svg xmlns="http://www.w3.org/2000/svg" viewBox="0 0 100 100">
            <path d="M12.2223 24.4419C18.9723 24.4419 24.4423 18.9719 24.4423 12.2219C24.4423 5.4819 18.9723 0.0019 12.2223 0.0019C5.4823 0.0019 0.0023 5.4819 0.0023 12.2219C0.0023 18.9719 5.4823 24.4419 12.2223 24.4419ZM17.2723 18.2319L6.1923 7.1519C5.9323 6.9019 5.9323 6.4819 6.1923 6.2219C6.4423 5.9619 6.8623 5.9619 7.1223 6.2219L18.2023 17.3119C18.4723 17.5519 18.4723 17.9619 18.2023 18.2319C17.9523 18.4819 17.5223 18.4719 17.2723 18.2319ZM15.3723 13.2219L9.6423 7.4919H13.4223C14.6923 7.4919 15.3723 8.1919 15.3723 9.4319ZM5.3923 9.4319C5.3923 8.8719 5.5623 8.4119 5.8923 8.1119L14.4923 16.7119C14.2023 16.9019 13.8323 16.9919 13.3823 16.9919H7.3823C6.1323 16.9919 5.3923 16.3319 5.3923 15.0919ZM16.0523 10.4719L18.1123 8.7219C18.3723 8.5219 18.6323 8.3819 18.8823 8.3819C19.3623 8.3819 19.6923 8.7219 19.6923 9.2219V15.0219C19.6923 15.5519 19.3623 15.8919 18.8823 15.8919C18.6323 15.8919 18.3723 15.7519 18.1123 15.5319L16.0523 13.7119Z" />
        </svg>
    