
        <svg xmlns="http://www.w3.org/2000/svg" viewBox="0 0 100 100">
            <path d="M11.4923 22.9836C17.8123 22.9836 22.9823 17.8136 22.9823 11.4836C22.9823 5.1536 17.8123 0.0036 11.4923 0.0036C5.1723 0.0036 0.0023 5.1536 0.0023 11.4836C0.0023 17.8136 5.1723 22.9836 11.4923 22.9836ZM6.8623 16.0636C5.6723 16.0636 5.0123 15.4136 5.0123 14.2236V8.7236C5.0123 7.5336 5.6823 6.8836 6.8623 6.8836H13.1023C14.2923 6.8836 14.9423 7.5336 14.9423 8.7236V14.2236C14.9423 15.4136 14.2823 16.0636 13.0923 16.0636ZM15.5523 13.1236V9.8236L17.6523 8.1336C17.8323 7.9736 18.0323 7.8736 18.2423 7.8736C18.6023 7.8736 18.8323 8.1236 18.8323 8.5436V14.4136C18.8323 14.8336 18.6023 15.0836 18.2423 15.0836C18.0323 15.0836 17.8523 14.9736 17.6523 14.8236Z" />
        </svg>
    