
        <svg xmlns="http://www.w3.org/2000/svg" viewBox="0 0 100 100">
            <path d="M23.4141 24.6814C23.7641 25.0314 24.3441 25.0314 24.6841 24.6814C25.0241 24.3114 25.0441 23.7514 24.6841 23.4014L1.5441 0.2714C1.1941 -0.0786 0.6041 -0.0986 0.2541 0.2714C-0.0859 0.6114 -0.0859 1.2014 0.2541 1.5414ZM18.3341 2.9014H6.1341L21.8541 18.6214C21.9341 18.2214 21.9841 17.6814 21.9841 17.1814V6.6114C21.9841 4.2614 20.6941 2.9014 18.3341 2.9014ZM23.5741 15.8814L27.8441 19.5714C28.2441 19.9214 28.7041 20.1414 29.1341 20.1414C30.0441 20.1414 30.6441 19.4714 30.6441 18.5114V6.3314C30.6441 5.3614 30.0441 4.7014 29.1341 4.7014C28.7041 4.7014 28.2441 4.9214 27.8441 5.2714L23.5741 8.9514ZM5.6341 21.9314H18.7041L2.0941 5.3314C1.9641 5.6214 1.8841 6.1614 1.8841 6.6514V18.2014C1.8841 20.5514 3.2741 21.9314 5.6341 21.9314Z" />
        </svg>
    