
        <svg xmlns="http://www.w3.org/2000/svg" viewBox="0 0 100 100">
            <path d="M12.2223 24.4436C18.9723 24.4436 24.4423 18.9736 24.4423 12.2236C24.4423 5.4736 18.9723 0.0036 12.2223 0.0036C5.4723 0.0036 0.0023 5.4736 0.0023 12.2236C0.0023 18.9736 5.4723 24.4436 12.2223 24.4436ZM12.2223 21.7636C6.9523 21.7636 2.6823 17.4936 2.6823 12.2236C2.6823 6.9536 6.9523 2.6836 12.2223 2.6836C17.4923 2.6836 21.7623 6.9536 21.7623 12.2236C21.7623 17.4936 17.4923 21.7636 12.2223 21.7636ZM17.0823 17.9736C17.3223 18.2136 17.7323 18.2136 17.9623 17.9736C18.2123 17.7236 18.2123 17.3436 17.9623 17.0836L7.3523 6.4736C7.1023 6.2236 6.7023 6.2236 6.4523 6.4736C6.2123 6.7136 6.2123 7.1136 6.4523 7.3436ZM15.2423 13.1836V9.5536C15.2423 8.3636 14.6023 7.7036 13.3923 7.7036H9.7623ZM5.6923 9.5536V14.9736C5.6923 16.1436 6.4023 16.7836 7.6023 16.7836H13.3523C13.7823 16.7836 14.1323 16.6836 14.4223 16.5136L6.1723 8.2736C5.8723 8.5636 5.6923 9.0036 5.6923 9.5536ZM15.9123 10.5436V13.6536L17.8823 15.3836C18.1323 15.6136 18.3723 15.7336 18.6223 15.7336C19.0823 15.7336 19.3823 15.4136 19.3823 14.9136V9.3536C19.3823 8.8636 19.0823 8.5436 18.6223 8.5436C18.3723 8.5436 18.1323 8.6736 17.8823 8.8736Z" />
        </svg>
    