
        <svg xmlns="http://www.w3.org/2000/svg" viewBox="0 0 100 100">
            <path d="M16.8517 13.8977C17.7317 13.8977 18.5717 13.7477 19.3317 13.4677H25.3117V14.5177C25.3117 15.0277 25.6517 15.3477 26.1517 15.3477H30.2817C30.7817 15.3477 31.1117 15.0277 31.1117 14.5177V13.4177C32.8117 13.1677 33.7117 12.0477 33.7117 10.1577V3.7177C33.7117 1.5777 32.5417 0.4077 30.3717 0.4077H19.2917C18.5417 0.1377 17.7217 -0.0023 16.8517 -0.0023C15.9817 -0.0023 15.1617 0.1377 14.4117 0.4077H3.3417C1.1817 0.4077 0.0017 1.5777 0.0017 3.7177V10.1577C0.0017 12.0477 0.9117 13.1677 2.6017 13.4177V14.5177C2.6017 15.0277 2.9317 15.3477 3.4417 15.3477H7.5617C8.0717 15.3477 8.4017 15.0277 8.4017 14.5177V13.4677H14.3717C15.1417 13.7477 15.9717 13.8977 16.8517 13.8977ZM16.8517 12.5277C13.6717 12.5277 11.2717 10.1277 11.2717 6.9577C11.2717 3.7777 13.6717 1.3677 16.8517 1.3677C20.0317 1.3677 22.4417 3.7777 22.4417 6.9577C22.4417 10.1277 20.0317 12.5277 16.8517 12.5277ZM23.8117 6.9577C23.8117 4.9177 22.9917 3.1277 21.6717 1.8777H30.3717C31.5317 1.8777 32.2717 2.5877 32.2717 3.7277V10.1677C32.2717 11.3077 31.5317 12.0277 30.3717 12.0277H21.6717C23.0017 10.7677 23.8117 8.9777 23.8117 6.9577ZM3.3417 12.0277C2.1817 12.0277 1.4517 11.3077 1.4517 10.1677V3.7277C1.4517 2.5877 2.1817 1.8777 3.3417 1.8777H12.0517C10.7117 3.1277 9.9017 4.9177 9.9017 6.9577C9.9017 8.9777 10.7117 10.7677 12.0317 12.0277ZM16.8517 11.1877C19.2317 11.1877 21.1017 9.3277 21.1017 6.9577C21.1017 4.5777 19.2317 2.6977 16.8517 2.6977C14.4717 2.6977 12.6117 4.5777 12.6117 6.9577C12.6117 9.3277 14.4717 11.1877 16.8517 11.1877ZM25.4917 4.4777C25.4917 4.8477 25.7617 5.1177 26.1317 5.1177H29.1917C29.5617 5.1177 29.8317 4.8477 29.8317 4.4777C29.8317 4.0977 29.5617 3.8277 29.1917 3.8277H26.1317C25.7617 3.8277 25.4917 4.0977 25.4917 4.4777ZM16.8517 9.9677C15.1517 9.9677 13.8117 8.6477 13.8117 6.9577C13.8117 5.2477 15.1517 3.9177 16.8517 3.9177C18.5517 3.9177 19.8917 5.2477 19.8917 6.9577C19.8917 8.6477 18.5517 9.9677 16.8517 9.9677ZM25.4917 6.9677C25.4917 7.3477 25.7617 7.6177 26.1317 7.6177H29.1917C29.5617 7.6177 29.8317 7.3477 29.8317 6.9677C29.8317 6.5977 29.5617 6.3177 29.1917 6.3177H26.1317C25.7617 6.3177 25.4917 6.5977 25.4917 6.9677Z" />
        </svg>
    