
        <svg xmlns="http://www.w3.org/2000/svg" viewBox="0 0 100 100">
            <path d="M3.9592 19.2855H16.3092C18.8192 19.2855 20.2692 17.8755 20.2692 15.4055V3.8755C20.2692 1.4155 18.9092 -0.0045 16.4092 -0.0045H3.9592C1.5392 -0.0045 -0.0008 1.4155 -0.0008 3.8755V15.4655C-0.0008 17.9455 1.4492 19.2855 3.9592 19.2855ZM21.9892 13.3855L26.0192 16.8655C26.4992 17.2755 26.9992 17.5355 27.4792 17.5355C28.4292 17.5355 29.0792 16.8555 29.0792 15.8355V3.5055C29.0792 2.4855 28.4292 1.8055 27.4792 1.8055C26.9992 1.8055 26.4992 2.0655 26.0192 2.4855L21.9892 5.9555Z" />
        </svg>
    