
        <svg xmlns="http://www.w3.org/2000/svg" viewBox="0 0 100 100">
            <path d="M8.7317 26.6727C9.3417 26.6727 9.8717 26.4327 10.6017 25.7927L15.1517 21.8527H22.0517C25.7317 21.8527 28.1717 19.4027 28.1717 15.7227V6.1327C28.1717 2.4527 25.7317 0.0027 22.0517 0.0027H6.1217C2.4417 0.0027 0.0017 2.4527 0.0017 6.1327V15.7227C0.0017 19.4027 2.7117 21.8527 5.7117 21.8527H7.2917V25.1027C7.2917 26.0727 7.8517 26.6727 8.7317 26.6727ZM9.8717 15.4427C8.4617 15.4427 7.7117 14.8627 7.7117 13.5627V8.4927C7.7117 7.1927 8.4617 6.4527 9.8717 6.4527H15.0017C16.4017 6.4527 17.1317 7.1927 17.1317 8.4927V13.4027C17.1317 14.6927 16.3917 15.4427 15.0017 15.4427ZM17.8517 13.0827V8.9427L19.2417 7.7727C19.6017 7.4727 19.9017 7.2627 20.2417 7.2627C20.7417 7.2627 21.1217 7.6027 21.1217 8.1527V13.8527C21.1217 14.4127 20.7417 14.7527 20.2417 14.7527C19.9017 14.7527 19.5917 14.5527 19.2417 14.2627Z" />
        </svg>
    