
        <svg xmlns="http://www.w3.org/2000/svg" viewBox="0 0 100 100">
            <path d="M2.24 18.1384H12.35C13.52 18.1384 14.33 17.3884 14.33 16.2384C14.33 15.0784 13.54 14.3484 12.35 14.3484H6.34V14.2384L10.69 10.4684C12.79 8.6384 13.84 7.2684 13.84 5.3784C13.84 2.1984 11.14 -0.0016 6.81 -0.0016C3.3 -0.0016 0.96 1.3584 0.15 3.8084C0.05 4.1384 0 4.4184 0 4.8084C0 5.9484 0.83 6.7484 2.06 6.7484C3.13 6.7484 3.81 6.2884 4.18 5.3784C4.28 5.1084 4.41 4.8984 4.56 4.6884C5 4.0984 5.7 3.7384 6.66 3.7384C8.07 3.7384 8.94 4.5484 8.94 5.6584C8.94 6.5984 8.43 7.4284 7.03 8.6484L1.3 13.6684C0.46 14.3984 0.02 15.1784 0.02 16.0584C0.02 17.3284 0.88 18.1384 2.24 18.1384ZM19 18.1184H23.85C28.96 18.1184 32.37 14.5084 32.37 9.0784C32.37 3.7984 28.96 0.2884 23.85 0.2884H19C17.45 0.2884 16.46 1.1984 16.46 2.7584V15.6584C16.46 17.2284 17.45 18.1184 19 18.1184ZM21.53 14.1284V4.2784H23.14C25.58 4.2784 27.21 6.2084 27.21 9.0784C27.21 12.1184 25.58 14.1284 23.14 14.1284Z" />
        </svg>
    