
        <svg xmlns="http://www.w3.org/2000/svg" viewBox="0 0 100 100">
            <path d="M12.3723 24.7659C19.2023 24.7659 24.7523 19.2159 24.7523 12.3759C24.7523 5.5459 19.2023 -0.0041 12.3723 -0.0041C5.5423 -0.0041 0.0023 5.5459 0.0023 12.3759C0.0023 19.2159 5.5423 24.7659 12.3723 24.7659ZM12.3723 21.6759C7.2423 21.6759 3.0823 17.5159 3.0823 12.3759C3.0823 7.2459 7.2423 3.0859 12.3723 3.0859C17.5223 3.0859 21.6723 7.2459 21.6723 12.3759C21.6723 17.5159 17.5223 21.6759 12.3723 21.6759ZM8.8623 6.6059C7.3923 6.6059 6.5423 7.4659 6.5423 8.9259V10.3159C6.5423 10.9959 6.9623 11.4159 7.6323 11.4159C8.2923 11.4159 8.7023 10.9959 8.7023 10.3159V9.4259C8.7023 8.9859 8.9023 8.7859 9.3423 8.7859H10.2523C10.9123 8.7859 11.3523 8.3559 11.3523 7.6959C11.3523 7.0359 10.9223 6.6059 10.2523 6.6059ZM15.7823 6.6059H14.3923C13.7223 6.6059 13.2923 7.0359 13.2923 7.6959C13.2923 8.3559 13.7323 8.7859 14.3923 8.7859H15.3023C15.7423 8.7859 15.9423 8.9859 15.9423 9.4259V10.3159C15.9423 10.9959 16.3523 11.4159 17.0123 11.4159C17.6823 11.4159 18.1023 10.9959 18.1023 10.3159V8.9259C18.1023 7.4659 17.2523 6.6059 15.7823 6.6059ZM8.8623 18.1859H10.2523C10.9223 18.1859 11.3523 17.7659 11.3523 17.0959C11.3523 16.4459 10.9123 16.0059 10.2523 16.0059H9.3423C8.9023 16.0059 8.7023 15.8159 8.7023 15.3759V14.4859C8.7023 13.8059 8.2923 13.3859 7.6323 13.3859C6.9623 13.3859 6.5423 13.8159 6.5423 14.4859V15.8659C6.5423 17.3359 7.3923 18.1859 8.8623 18.1859ZM15.7823 18.1859C17.2523 18.1859 18.1023 17.3359 18.1023 15.8659V14.4859C18.1023 13.8159 17.6823 13.3859 17.0123 13.3859C16.3523 13.3859 15.9423 13.8059 15.9423 14.4859V15.3759C15.9423 15.8159 15.7423 16.0059 15.3023 16.0059H14.3923C13.7323 16.0059 13.2923 16.4459 13.2923 17.0959C13.2923 17.7659 13.7223 18.1859 14.3923 18.1859Z" />
        </svg>
    