
        <svg xmlns="http://www.w3.org/2000/svg" viewBox="0 0 100 100">
            <path d="M12.1023 24.2064C18.7823 24.2064 24.2123 18.7864 24.2123 12.1064C24.2123 5.4264 18.7823 -0.0036 12.1023 -0.0036C5.4223 -0.0036 0.0023 5.4264 0.0023 12.1064C0.0023 18.7864 5.4223 24.2064 12.1023 24.2064ZM8.3423 6.0664H9.9023C10.4923 6.0664 10.8723 6.4564 10.8723 7.0564C10.8723 7.6264 10.4923 8.0264 9.9023 8.0264H8.6823C8.1723 8.0264 7.9423 8.2664 7.9423 8.7864V9.9464C7.9423 10.5564 7.5623 10.9464 6.9623 10.9464C6.3723 10.9464 5.9923 10.5464 5.9923 9.9464V8.4064C5.9923 6.8864 6.8223 6.0664 8.3423 6.0664ZM15.7123 6.0664C17.2523 6.0664 18.0823 6.8864 18.0823 8.4064V9.9464C18.0823 10.5464 17.6923 10.9464 17.1023 10.9464C16.5023 10.9464 16.1223 10.5564 16.1223 9.9464V8.7864C16.1223 8.2664 15.8923 8.0264 15.3723 8.0264H14.1723C13.5823 8.0264 13.1823 7.6264 13.1823 7.0564C13.1823 6.4564 13.5823 6.0664 14.1723 6.0664ZM8.3423 18.1664C6.8223 18.1664 5.9923 17.3464 5.9923 15.8364V14.2864C5.9923 13.6864 6.3723 13.2864 6.9623 13.2864C7.5623 13.2864 7.9423 13.6764 7.9423 14.2864V15.4564C7.9423 15.9764 8.1723 16.2064 8.6823 16.2064H9.9023C10.4923 16.2064 10.8723 16.6064 10.8723 17.1764C10.8723 17.7764 10.4923 18.1664 9.9023 18.1664ZM15.7123 18.1664H14.1723C13.5823 18.1664 13.1823 17.7764 13.1823 17.1764C13.1823 16.6064 13.5823 16.2064 14.1723 16.2064H15.3723C15.8923 16.2064 16.1223 15.9764 16.1223 15.4564V14.2864C16.1223 13.6764 16.5023 13.2864 17.1023 13.2864C17.6923 13.2864 18.0823 13.6864 18.0823 14.2864V15.8364C18.0823 17.3464 17.2523 18.1664 15.7123 18.1664Z" />
        </svg>
    