
        <svg xmlns="http://www.w3.org/2000/svg" viewBox="0 0 100 100">
            <path d="M12.1023 24.2064C18.7823 24.2064 24.2123 18.7864 24.2123 12.1064C24.2123 5.4264 18.7823 -0.0036 12.1023 -0.0036C5.4223 -0.0036 0.0023 5.4264 0.0023 12.1064C0.0023 18.7864 5.4223 24.2064 12.1023 24.2064ZM17.3523 18.2064L6.0023 6.8564C5.7823 6.6364 5.7823 6.2364 6.0023 5.9964C6.2423 5.7664 6.6323 5.7664 6.8823 5.9964L18.2223 17.3464C18.4723 17.5864 18.4723 17.9564 18.2223 18.2064C17.9923 18.4364 17.5923 18.4364 17.3523 18.2064ZM12.1023 7.4064C16.4723 7.4064 20.1823 7.8664 20.1823 12.0664C20.1823 13.8364 19.3923 15.3264 18.1623 16.0664L17.1123 15.0164C18.1323 14.6964 18.7223 13.6564 18.7223 12.0664C18.7223 9.1664 16.3323 8.8664 12.1623 8.8664C11.7623 8.8664 11.3623 8.8864 10.9923 8.8964L9.6023 7.4864C10.3823 7.4164 11.2223 7.4064 12.1023 7.4064ZM7.8423 16.6064C5.6623 16.6064 4.0323 14.6064 4.0323 12.0664C4.0323 10.0864 4.8523 8.9364 6.1923 8.2864L7.2523 9.3664C6.1023 9.7964 5.4823 10.5864 5.4823 12.0664C5.4823 14.0164 6.3823 15.1264 7.8423 15.1264C9.1623 15.1264 9.9123 14.0364 10.9923 13.6364C11.1423 13.5964 11.2923 13.5664 11.4623 13.5564L13.2523 15.3664C12.8123 15.0964 12.4423 14.8164 12.1023 14.8164C11.1723 14.8164 10.0623 16.6064 7.8423 16.6064Z" />
        </svg>
    