
        <svg xmlns="http://www.w3.org/2000/svg" viewBox="0 0 100 100">
            <path d="M17.5417 15.5053C20.0317 15.5053 22.3217 19.4853 27.0917 19.4853C31.6917 19.4853 35.0817 15.3953 35.0817 9.9353C35.0817 0.9053 27.1517 -0.0047 17.5417 -0.0047C7.9317 -0.0047 0.0017 0.9053 0.0017 9.9353C0.0017 15.3953 3.3917 19.4853 7.9817 19.4853C12.7617 19.4853 15.0517 15.5053 17.5417 15.5053ZM17.5417 12.9853C13.5917 12.9853 12.1317 16.9553 7.9617 16.9553C4.6417 16.9553 2.5217 14.2253 2.5217 9.9353C2.5217 3.1553 8.1417 2.5153 17.5417 2.5153C26.9417 2.5153 32.5517 3.1553 32.5517 9.9353C32.5517 14.2253 30.4417 16.9553 27.1317 16.9553C22.9617 16.9553 21.4817 12.9853 17.5417 12.9853Z" />
        </svg>
    