
        <svg xmlns="http://www.w3.org/2000/svg" viewBox="0 0 100 100">
            <path d="M21.5613 -0.0047C12.9813 -0.0047 5.7413 0.7153 4.2913 7.3053H6.9213C8.3212 2.9753 13.6013 2.5153 21.5613 2.5153C30.9613 2.5153 36.5813 3.1553 36.5813 9.9353C36.5813 14.2253 34.4613 16.9553 31.1513 16.9553C26.9813 16.9553 25.5113 12.9853 21.5613 12.9853C17.6112 12.9853 16.1512 16.9553 11.9813 16.9553C9.5613 16.9553 7.7713 15.4953 7.0113 13.0453H4.4213C5.4413 16.8653 8.3313 19.4853 12.0113 19.4853C16.7813 19.4853 19.0813 15.5053 21.5613 15.5053C24.0513 15.5053 26.3413 19.4853 31.1213 19.4853C35.7213 19.4853 39.1013 15.3953 39.1013 9.9353C39.1013 0.9053 31.1713 -0.0047 21.5613 -0.0047ZM1.0913 11.2953L10.8513 11.2853L12.2713 11.2053L11.6512 11.7553L10.4313 12.8953C10.2313 13.0753 10.1013 13.3753 10.1013 13.6453C10.1013 14.2353 10.5213 14.6853 11.1213 14.6853C11.4113 14.6853 11.6512 14.5653 11.8513 14.3653L15.0213 11.0953C15.3313 10.7953 15.4613 10.4953 15.4613 10.1753C15.4613 9.8453 15.3313 9.5553 15.0213 9.2453L11.8513 5.9853C11.6512 5.7753 11.4113 5.6753 11.1213 5.6753C10.5213 5.6753 10.1013 6.1053 10.1013 6.7053C10.1013 6.9753 10.2213 7.2653 10.4313 7.4553L11.6512 8.6053L12.2713 9.1453L10.8513 9.0553H1.0913C0.5013 9.0553 0.0012 9.5653 0.0012 10.1753C0.0012 10.7953 0.5013 11.2953 1.0913 11.2953Z" />
        </svg>
    