
        <svg xmlns="http://www.w3.org/2000/svg" viewBox="0 0 100 100">
            <path d="M19.0777 0.0012C11.0577 0.0012 4.5277 0.7413 3.6777 7.2913H4.2577C5.0777 1.2413 11.1177 0.5712 19.0777 0.5712C27.6477 0.5712 33.9977 1.3513 33.9977 8.7813C33.9977 13.4213 31.3077 16.7213 27.5377 16.7213C23.6577 16.7213 21.6077 13.1813 19.0777 13.1813C16.5377 13.1813 14.4977 16.7213 10.6277 16.7213C7.4277 16.7213 5.0177 14.3813 4.3377 10.8412H3.7577C4.4877 14.6413 7.1677 17.3013 10.6277 17.3013C14.7877 17.3013 16.8877 13.7613 19.0777 13.7613C21.2577 13.7613 23.3677 17.3013 27.5377 17.3013C31.5777 17.3013 34.5677 13.6213 34.5677 8.7813C34.5677 0.8412 27.6677 0.0012 19.0777 0.0012ZM0.2977 9.3513L11.2377 9.3413H12.0677L11.2177 10.1913L8.5277 12.8713C8.4777 12.9213 8.4377 13.0113 8.4377 13.0813C8.4377 13.2113 8.5677 13.3313 8.7077 13.3313C8.7777 13.3313 8.8377 13.3113 8.8977 13.2513L12.8977 9.2713C12.9577 9.2113 12.9877 9.1413 12.9877 9.0712C12.9877 8.9913 12.9577 8.9213 12.8977 8.8613L8.8977 4.8613C8.8377 4.8012 8.7777 4.7813 8.7077 4.7813C8.5677 4.7813 8.4377 4.8912 8.4377 5.0413C8.4377 5.1113 8.4777 5.1913 8.5277 5.2513L11.2177 7.9213L12.0777 8.7913H11.2377L0.2977 8.7813C0.1277 8.7813 -0.0023 8.9012 -0.0023 9.0712C-0.0023 9.2213 0.1277 9.3513 0.2977 9.3513Z" />
        </svg>
    