
        <svg xmlns="http://www.w3.org/2000/svg" viewBox="0 0 100 100">
            <path d="M16.6084 25.2086C23.5284 25.2086 29.1984 19.5386 29.1984 12.6086C29.1984 5.6786 23.5284 -0.0014 16.6084 -0.0014C10.2384 -0.0014 4.9484 4.7886 4.1084 10.9286C5.2984 10.5686 6.6184 10.5186 7.8484 10.8086C8.6884 6.7186 12.2684 3.6686 16.6084 3.6686C21.5484 3.6686 25.5484 7.6486 25.5484 12.6086C25.5484 17.5586 21.5484 21.5486 16.6084 21.5486C15.6884 21.5486 14.8284 21.4186 14.0084 21.1486C13.6384 22.3686 12.9884 23.4886 12.0984 24.3586C13.4984 24.8986 15.0284 25.2086 16.6084 25.2086ZM16.5984 8.1986C17.3884 8.1986 18.0284 7.5486 18.0284 6.7686C18.0284 5.9986 17.3884 5.3686 16.5984 5.3686C15.8084 5.3686 15.1784 5.9986 15.1784 6.7686C15.1784 7.5486 15.8084 8.1986 16.5984 8.1986ZM16.5984 8.9186C15.0584 8.9186 12.8484 8.6586 11.7984 8.4986C11.7084 8.4686 11.5984 8.4586 11.5084 8.4586C11.2284 8.4586 10.9484 8.6686 10.9484 9.0686C10.9484 9.3586 11.1184 9.6186 11.4184 9.6886C11.7584 9.7886 14.2384 10.0786 14.5384 10.1386C14.8584 10.2086 15.0384 10.4686 15.0584 10.8386C15.0784 11.3986 15.0584 13.2186 14.9184 14.0386C14.7784 14.8486 13.8384 18.7986 13.7884 18.9686C13.6784 19.3986 13.9384 19.7686 14.3584 19.7686C14.6684 19.7686 14.8684 19.5986 14.9784 19.1986C15.1884 18.3886 15.8584 15.6686 16.0784 15.0086C16.2184 14.5286 16.3384 14.3586 16.5984 14.3586C16.8584 14.3586 16.9784 14.5286 17.1284 15.0086C17.3484 15.6586 18.0384 18.3886 18.2184 19.1986C18.3184 19.5986 18.5284 19.7686 18.8484 19.7686C19.2684 19.7686 19.5284 19.3986 19.4084 18.9686C19.3684 18.7986 18.4084 14.8486 18.2784 14.0386C18.1484 13.2186 18.1484 11.3986 18.1484 10.8386C18.1484 10.4686 18.3384 10.2086 18.6584 10.1386C18.9584 10.0786 21.4484 9.7986 21.7884 9.6886C22.0784 9.6086 22.2584 9.3586 22.2584 9.0686C22.2584 8.6686 21.9584 8.4586 21.6884 8.4586C21.5984 8.4586 21.4884 8.4686 21.3984 8.4986C20.3584 8.6586 18.1484 8.9186 16.5984 8.9186ZM6.2784 25.0286C9.7184 25.0286 12.5784 22.1686 12.5784 18.7386C12.5784 15.3086 9.7284 12.4686 6.2784 12.4686C2.8484 12.4686 -0.0016 15.3086 -0.0016 18.7386C-0.0016 22.1686 2.8484 25.0286 6.2784 25.0286ZM2.3784 19.2786V18.2186C2.3784 17.6586 2.6584 17.3686 3.1984 17.3686H3.9184C3.9884 17.3686 4.0184 17.3486 4.0784 17.2986L5.2384 16.2286C5.4384 16.0586 5.5884 15.9886 5.7784 15.9886C6.0784 15.9886 6.3184 16.2086 6.3184 16.5086V20.9786C6.3184 21.2886 6.0784 21.5186 5.7784 21.5186C5.5884 21.5186 5.4184 21.4386 5.2184 21.2686L4.0784 20.1986C4.0184 20.1586 3.9884 20.1286 3.9184 20.1286H3.1984C2.6584 20.1286 2.3784 19.8386 2.3784 19.2786ZM8.7984 21.1186C8.5584 20.9786 8.5184 20.6686 8.6984 20.3986C8.9684 19.9186 9.1384 19.3586 9.1384 18.7586C9.1384 18.1486 8.9684 17.5886 8.6984 17.1086C8.5184 16.8486 8.5584 16.5386 8.7984 16.3786C9.0384 16.2686 9.3084 16.3086 9.4484 16.5386C9.8684 17.1686 10.0784 17.9286 10.0784 18.7586C10.0784 19.5686 9.8684 20.3486 9.4584 20.9786C9.3084 21.1886 9.0284 21.2486 8.7984 21.1186ZM7.3384 20.2586C7.1084 20.1186 7.0584 19.8386 7.2384 19.5086C7.3784 19.2986 7.4484 19.0286 7.4484 18.7486C7.4484 18.4586 7.3784 18.1886 7.2384 17.9786C7.0584 17.6586 7.1084 17.3686 7.3484 17.2286C7.5584 17.0986 7.8284 17.1586 7.9584 17.3486C8.2384 17.7286 8.3984 18.2186 8.3984 18.7486C8.3984 19.2686 8.2384 19.7586 7.9584 20.1486C7.8284 20.3486 7.5584 20.3986 7.3384 20.2586Z" />
        </svg>
    