
        <svg xmlns="http://www.w3.org/2000/svg" viewBox="0 0 100 100">
            <path d="M11.9523 23.9041C18.5523 23.9041 23.9023 18.5341 23.9023 11.9541C23.9023 5.3541 18.5523 0.0041 11.9523 0.0041C5.3623 0.0041 0.0023 5.3541 0.0023 11.9541C0.0023 18.5341 5.3623 23.9041 11.9523 23.9041ZM14.0823 8.7341C12.5123 7.5241 9.5423 6.6441 7.2523 7.5041C8.4423 6.2541 10.1123 5.4641 11.9523 5.4641C12.8423 5.4641 13.6923 5.6641 14.4723 5.9741C14.8223 6.7541 14.6623 7.7041 14.0823 8.7341ZM12.9223 15.4841C12.4423 14.5941 12.1323 13.5041 12.0923 12.5041C14.1423 10.6641 15.6923 8.4041 15.4723 6.5341C16.2223 7.0241 16.8623 7.6541 17.3523 8.4041C17.5423 9.3641 16.6423 12.5541 12.9223 15.4841ZM11.5223 11.8341C9.5123 11.0141 6.9923 10.4541 5.4723 11.4641C5.5323 10.6241 5.7623 9.8241 6.1323 9.1041C8.1723 7.2341 11.8623 8.1241 13.6123 9.5041C13.0923 10.2741 12.3623 11.0641 11.5223 11.8341ZM15.2023 17.5641C14.5523 17.5041 13.9123 16.9941 13.3823 16.2441C16.2823 14.0141 17.6123 11.5341 18.0623 9.8241C18.2923 10.4741 18.4323 11.2041 18.4323 11.9541C18.4323 14.3241 17.1123 16.4341 15.2023 17.5641ZM7.5423 11.7741C7.6023 14.3441 8.8123 16.7341 9.9923 18.1241C7.5423 17.3541 5.7223 15.1541 5.4823 12.5241C5.9323 11.9641 6.6723 11.7541 7.5423 11.7741ZM11.2123 12.6841C11.3223 14.6441 12.4823 17.1441 14.0523 18.0841C13.3823 18.3141 12.6923 18.4441 11.8123 18.4441C10.7623 18.0841 8.5623 15.2341 8.4423 11.8641C9.3323 11.9741 10.3123 12.2841 11.2123 12.6841Z" />
        </svg>
    