
        <svg xmlns="http://www.w3.org/2000/svg" viewBox="0 0 100 100">
            <path d="M11.7523 23.5048C18.2423 23.5048 23.5123 18.2448 23.5123 11.7548C23.5123 5.2648 18.2423 0.0048 11.7523 0.0048C5.2623 0.0048 0.0023 5.2648 0.0023 11.7548C0.0023 18.2448 5.2623 23.5048 11.7523 23.5048ZM11.7523 21.9848C6.0923 21.9848 1.5223 17.4148 1.5223 11.7548C1.5223 6.0948 6.0923 1.5148 11.7523 1.5148C17.4123 1.5148 21.9923 6.0948 21.9923 11.7548C21.9923 17.4148 17.4123 21.9848 11.7523 21.9848ZM13.8523 8.7748C14.4823 7.6948 14.6623 6.7248 14.2423 6.0148C13.4723 5.6848 12.6323 5.4948 11.7523 5.4948C9.9123 5.4948 8.2523 6.3048 7.0923 7.5848C9.3123 6.6748 12.3423 7.5348 13.8523 8.7748ZM12.6823 15.0948C16.4023 12.3848 17.1323 9.3948 16.9523 8.2948C16.4923 7.5948 15.8823 6.9948 15.1723 6.5248C15.4123 8.2548 13.9323 10.4548 11.9023 12.2848C11.9523 13.2348 12.2423 14.2548 12.6823 15.0948ZM11.4023 11.6848C12.2323 10.9348 12.9223 10.1848 13.4423 9.4348C11.7523 8.0248 8.0723 7.1748 6.1123 9.0148C5.7523 9.7548 5.5423 10.5548 5.4823 11.4048C6.9723 10.3448 9.4223 10.8148 11.4023 11.6848ZM14.9423 17.1448C16.7723 16.0448 18.0123 14.0248 18.0123 11.7548C18.0123 10.9848 17.8623 10.2448 17.6023 9.5648C17.2623 11.2248 16.0523 13.6148 13.0823 15.7648C13.5923 16.5048 14.2523 17.0148 14.9423 17.1448ZM7.4523 11.5448C6.6523 11.5648 5.9523 11.8048 5.5123 12.3548C5.7623 14.9548 7.6423 17.1048 10.1123 17.7848C8.9223 16.5048 7.6023 14.2548 7.4523 11.5448ZM11.1423 12.4148C10.1723 11.9748 9.1523 11.6748 8.2423 11.5848C8.4523 14.9648 10.5423 17.5048 11.6323 18.0248C12.5423 18.0248 13.2923 17.8748 13.9723 17.6048C12.3623 16.7148 11.2523 14.3648 11.1423 12.4148Z" />
        </svg>
    