
        <svg xmlns="http://www.w3.org/2000/svg" viewBox="0 0 100 100">
            <path d="M12.3723 24.7459C19.2023 24.7459 24.7523 19.2059 24.7523 12.3759C24.7523 5.5459 19.2023 -0.0041 12.3723 -0.0041C5.5423 -0.0041 0.0023 5.5459 0.0023 12.3759C0.0023 19.2059 5.5423 24.7459 12.3723 24.7459ZM14.3923 9.1359C12.9523 7.9759 10.1623 7.1159 7.9323 7.8759C9.0723 6.7359 10.6523 6.0359 12.3723 6.0359C13.2223 6.0359 14.0123 6.2059 14.7423 6.5059C15.0823 7.2559 14.9323 8.1659 14.3923 9.1359ZM13.3123 15.6559C12.9023 14.8259 12.6223 13.8359 12.5823 12.9359C14.5423 11.1659 16.0523 8.9759 15.8923 7.1159C16.5623 7.5659 17.1423 8.1559 17.6123 8.8259C17.8523 9.5859 17.0423 12.8059 13.3123 15.6559ZM11.9023 12.1559C9.9923 11.3759 7.5723 10.8159 6.0723 11.7459C6.1323 11.0459 6.3123 10.3759 6.6123 9.7659C8.5423 7.7959 12.1423 8.6359 13.8423 10.0159C13.3623 10.7359 12.6923 11.4359 11.9023 12.1559ZM15.6023 17.7959C15.0023 17.8159 14.3823 17.3059 13.8423 16.5459C16.5823 14.5059 17.9223 12.1659 18.4023 10.4859C18.6023 11.0759 18.7023 11.7059 18.7023 12.3659C18.7023 14.6559 17.4523 16.6959 15.6023 17.7959ZM8.0423 12.2559C8.0723 14.6459 9.1623 16.9359 10.2823 18.3259C8.0123 17.5359 6.3323 15.4659 6.0723 13.0159C6.4823 12.4559 7.1823 12.2459 8.0423 12.2559ZM11.5623 13.1259C11.6723 15.0259 12.7923 17.4459 14.2823 18.3859C13.7023 18.5859 13.1123 18.6959 12.4023 18.6959C11.3123 18.3659 9.2023 15.5859 9.0723 12.3759C9.8823 12.5059 10.7423 12.7959 11.5623 13.1259Z" />
        </svg>
    