
        <svg xmlns="http://www.w3.org/2000/svg" viewBox="0 0 100 100">
            <path d="M11.4923 22.977C17.8123 22.977 22.9823 17.827 22.9823 11.497C22.9823 5.167 17.8123 -0.003 11.4923 -0.003C5.1723 -0.003 0.0023 5.167 0.0023 11.497C0.0023 17.827 5.1723 22.977 11.4923 22.977ZM13.6423 8.697C12.1123 7.327 8.9023 6.497 6.6823 7.477C7.8423 6.117 9.5723 5.227 11.4923 5.227C12.4023 5.227 13.2623 5.437 14.0523 5.777C14.5623 6.457 14.3623 7.507 13.6423 8.697ZM12.4223 14.757C11.9923 13.917 11.7223 12.957 11.6723 11.997C13.7423 10.127 15.2223 7.887 14.9423 6.277C15.6223 6.737 16.2223 7.327 16.6923 8.007C16.8523 9.307 16.2923 12.187 12.4223 14.757ZM11.2523 11.487C9.1923 10.507 6.7123 10.127 5.2023 11.307C5.2423 10.407 5.4623 9.537 5.8523 8.757C7.7823 6.907 11.6223 7.737 13.2823 9.247C12.7623 9.987 12.0623 10.737 11.2523 11.487ZM14.7623 16.847C13.9723 16.637 13.2823 16.087 12.7523 15.317C15.9623 13.207 17.0523 10.817 17.2823 9.127C17.5923 9.857 17.7523 10.667 17.7523 11.497C17.7523 13.757 16.5423 15.747 14.7623 16.847ZM11.0023 12.107C11.1223 14.137 12.2223 16.407 13.9723 17.257C13.2023 17.587 12.3623 17.777 11.4023 17.777C10.2223 17.037 8.1323 14.767 7.8023 11.227C8.8023 11.257 9.9223 11.587 11.0023 12.107ZM7.1323 11.247C7.3923 14.227 8.8923 16.407 10.1623 17.627C7.5423 17.067 5.5323 14.847 5.2423 12.157C5.7023 11.587 6.3723 11.307 7.1323 11.247Z" />
        </svg>
    