
        <svg xmlns="http://www.w3.org/2000/svg" viewBox="0 0 100 100">
            <path d="M12.7923 25.5978C19.8723 25.5978 25.6023 19.8678 25.6023 12.7978C25.6023 5.7278 19.8723 -0.0022 12.7923 -0.0022C5.7323 -0.0022 0.0023 5.7278 0.0023 12.7978C0.0023 19.8678 5.7323 25.5978 12.7923 25.5978ZM12.7923 21.4178C8.0323 21.4178 4.1723 17.5678 4.1723 12.7978C4.1723 8.0278 8.0323 4.1678 12.7923 4.1678C17.5623 4.1678 21.4323 8.0278 21.4323 12.7978C21.4323 17.5678 17.5623 21.4178 12.7923 21.4178ZM10.0423 18.1678C11.0723 18.1678 11.7423 17.5778 11.9523 16.4178L12.7423 12.4778H12.8523L13.6323 16.4178C13.8523 17.5778 14.5123 18.1678 15.5423 18.1678C16.6423 18.1678 17.2523 17.6278 17.4623 16.4878L18.8123 9.3178C18.8423 9.1878 18.8423 9.0578 18.8423 8.9378C18.8423 8.0978 18.2623 7.4678 17.3823 7.4678C16.5023 7.4678 15.9723 8.0078 15.8523 8.9778L15.2623 14.1178H15.1423L14.2423 8.9178C14.1023 8.0978 13.6123 7.6778 12.7923 7.6778C11.9723 7.6778 11.5123 8.0778 11.3623 8.8978L10.4423 14.1178H10.3223L9.7223 8.9778C9.6223 8.0078 9.0823 7.4678 8.2023 7.4678C7.3323 7.4678 6.7523 8.0978 6.7523 8.9378C6.7523 9.0578 6.7523 9.1878 6.7823 9.3178L8.1223 16.4878C8.3323 17.6278 8.9423 18.1678 10.0423 18.1678Z" />
        </svg>
    