
        <svg xmlns="http://www.w3.org/2000/svg" viewBox="0 0 100 100">
            <path d="M11.3523 22.7064C17.6323 22.7064 22.7123 17.6264 22.7123 11.3564C22.7123 5.0764 17.6323 -0.0036 11.3523 -0.0036C5.0823 -0.0036 0.0023 5.0764 0.0023 11.3564C0.0023 17.6264 5.0823 22.7064 11.3523 22.7064ZM11.3523 22.1364C5.3923 22.1364 0.5723 17.3164 0.5723 11.3564C0.5723 5.3864 5.3923 0.5764 11.3523 0.5764C17.3223 0.5764 22.1323 5.3864 22.1323 11.3564C22.1323 17.3164 17.3223 22.1364 11.3523 22.1364ZM8.4123 16.6064C8.7023 16.6064 8.8523 16.4664 8.9223 16.1964L11.3223 7.1964H11.3823L13.7823 16.1964C13.8623 16.4664 14.0023 16.6064 14.2923 16.6064C14.5923 16.6064 14.7323 16.4664 14.8123 16.1764L17.2123 6.5264C17.2223 6.4664 17.2223 6.4564 17.2223 6.4064C17.2223 6.2364 17.1223 6.1364 16.9323 6.1364C16.7723 6.1364 16.6923 6.2264 16.6423 6.3964L14.3323 15.7364H14.2723L11.7423 6.5264C11.6823 6.3064 11.5623 6.2064 11.3523 6.2064C11.1423 6.2064 11.0123 6.3064 10.9523 6.5264L8.4423 15.7364H8.3823L6.0723 6.3964C6.0223 6.2264 5.9323 6.1364 5.7823 6.1364C5.5923 6.1364 5.4723 6.2364 5.4723 6.4064C5.4723 6.4564 5.4723 6.4664 5.4823 6.5264L7.9023 16.1764C7.9723 16.4664 8.1223 16.6064 8.4123 16.6064Z" />
        </svg>
    