
        <svg xmlns="http://www.w3.org/2000/svg" viewBox="0 0 100 100">
            <path d="M11.7523 23.5048C18.2323 23.5048 23.5123 18.2348 23.5123 11.7548C23.5123 5.2748 18.2323 0.0048 11.7523 0.0048C5.2723 0.0048 0.0023 5.2748 0.0023 11.7548C0.0023 18.2348 5.2723 23.5048 11.7523 23.5048ZM8.6023 17.2748C8.0823 17.2748 7.7623 17.0048 7.6323 16.4848L5.2423 7.1748C5.2023 7.0648 5.2023 6.9748 5.2023 6.8948C5.2023 6.4648 5.4823 6.1848 5.9223 6.1848C6.3523 6.1848 6.5623 6.3848 6.6723 6.9148L8.6523 15.1448H8.7223L10.9123 6.8548C11.0123 6.4248 11.2923 6.2248 11.7423 6.2248C12.2023 6.2248 12.4723 6.4248 12.5823 6.8548L14.7623 15.1448H14.8523L16.8323 6.9148C16.9323 6.3848 17.1423 6.1848 17.5823 6.1848C18.0123 6.1848 18.2923 6.4648 18.2923 6.8948C18.2923 6.9748 18.2823 7.0648 18.2623 7.1748L15.8523 16.4848C15.7223 17.0048 15.4023 17.2748 14.8723 17.2748C14.3523 17.2748 14.0123 17.0148 13.8823 16.5148L11.7823 8.4448H11.7023L9.6023 16.5148C9.4823 17.0148 9.1423 17.2748 8.6023 17.2748Z" />
        </svg>
    