
        <svg xmlns="http://www.w3.org/2000/svg" viewBox="0 0 100 100">
            <path d="M12.1023 24.2064C18.7823 24.2064 24.2123 18.7864 24.2123 12.1064C24.2123 5.4264 18.7823 -0.0036 12.1023 -0.0036C5.4223 -0.0036 0.0023 5.4264 0.0023 12.1064C0.0023 18.7864 5.4223 24.2064 12.1023 24.2064ZM12.1023 2.3764C15.5123 2.3764 18.5123 4.1364 20.2523 6.7864H3.9623C5.6923 4.1364 8.6923 2.3764 12.1023 2.3764ZM12.1023 21.8164C6.7223 21.8164 2.3823 17.4864 2.3823 12.1064C2.3823 10.9464 2.5923 9.8464 2.9523 8.8164H21.2623C21.6223 9.8464 21.8323 10.9464 21.8323 12.1064C21.8323 17.4864 17.4823 21.8164 12.1023 21.8164Z" />
        </svg>
    