
        <svg xmlns="http://www.w3.org/2000/svg" viewBox="0 0 100 100">
            <path d="M8.1117 3.195L22.7117 3.215V3.025C22.4717 0.435 20.4617 -0.605 17.4517 0.355ZM3.8417 24.705H22.9017C25.4017 24.705 26.7417 23.375 26.7417 20.895V19.375H22.2217C19.3017 19.375 17.3817 17.475 17.3817 14.755C17.3817 12.025 19.2917 10.135 22.2217 10.135H26.7417V8.715C26.7417 6.235 25.4017 4.915 22.9017 4.915H3.8417C1.3317 4.915 0.0017 6.235 0.0017 8.715V20.895C0.0017 23.375 1.3317 24.705 3.8417 24.705ZM22.2217 17.625H26.7917C27.8317 17.625 28.4317 16.985 28.4317 15.995V13.505C28.4317 12.515 27.8317 11.875 26.7917 11.875H22.2217C20.4117 11.875 19.1217 12.835 19.1217 14.755C19.1217 16.655 20.4117 17.625 22.2217 17.625ZM22.1817 16.045C21.4717 16.045 20.8917 15.465 20.8917 14.755C20.8917 14.055 21.4717 13.465 22.1817 13.465C22.8917 13.465 23.4617 14.055 23.4617 14.755C23.4617 15.465 22.8917 16.045 22.1817 16.045Z" />
        </svg>
    