
        <svg xmlns="http://www.w3.org/2000/svg" viewBox="0 0 100 100">
            <path d="M4.5817 26.7975H23.8617C26.7517 26.7975 28.4417 25.0975 28.4417 22.2175V21.1175C30.2917 20.9575 31.2617 19.7075 31.2617 17.7975V14.3875C31.2617 12.5075 30.2917 11.2375 28.4417 11.0875V9.9875C28.4417 7.2875 26.9617 5.6375 24.4217 5.4275V4.5375C24.4217 1.1775 21.8817 -1.1025 17.1817 0.5475L3.3017 5.3775C1.1617 6.1275 0.0017 7.5275 0.0017 9.9875V22.2175C0.0017 25.0975 1.7017 26.7975 4.5817 26.7975ZM13.9017 5.4075C13.5117 5.4075 13.5017 5.0275 13.8917 4.9275L19.3117 3.2975C20.0417 3.0675 20.6717 3.4075 20.6717 4.2475V5.4075ZM23.1917 21.1275H24.2817V21.5775C24.2817 22.3475 23.9317 22.6275 23.2217 22.6275H5.2117C4.5117 22.6275 4.1617 22.3475 4.1617 21.5775V10.6275C4.1617 9.8575 4.5117 9.5675 5.2117 9.5675H23.2217C23.9317 9.5675 24.2817 9.8575 24.2817 10.6275V11.0675H23.1917C19.8917 11.0675 17.7217 12.8675 17.7217 16.0975C17.7217 19.3375 19.8917 21.1275 23.1917 21.1275ZM23.0817 18.2475C21.7617 18.2475 20.7217 17.5275 20.7217 16.0975C20.7217 14.6575 21.7617 13.9575 23.0817 13.9575H27.3417C28.0417 13.9575 28.3817 14.2375 28.3817 14.9875V17.2075C28.3817 17.9575 28.0417 18.2475 27.3417 18.2475ZM23.0617 17.5775C23.8617 17.5775 24.5117 16.9275 24.5117 16.0975C24.5117 15.2975 23.8617 14.6375 23.0617 14.6375C22.2517 14.6375 21.5817 15.2975 21.5817 16.0975C21.5817 16.9275 22.2517 17.5775 23.0617 17.5775Z" />
        </svg>
    