
        <svg xmlns="http://www.w3.org/2000/svg" viewBox="0 0 100 100">
            <path d="M7.8017 3.0722H21.9517V2.8022C21.8317 0.2922 20.0317 -0.4578 17.5617 0.2622ZM3.4917 23.7322H22.4517C24.7817 23.7322 25.9417 22.5622 25.9417 20.2822V18.5422H21.6117C18.7717 18.5422 17.0117 16.7622 17.0117 14.1922C17.0117 11.6222 18.7717 9.8422 21.6117 9.8422H25.9417V8.1222C25.9417 5.8322 24.7817 4.6722 22.4517 4.6722H3.4917C1.1717 4.6722 0.0017 5.8222 0.0017 8.1222V20.2822C0.0017 22.5722 1.1717 23.7322 3.4917 23.7322ZM21.6117 17.0122H25.7817C26.8617 17.0122 27.5117 16.2522 27.5117 15.3022V13.0822C27.5117 12.1122 26.8617 11.3522 25.7817 11.3522H21.6117C19.7617 11.3522 18.5417 12.3322 18.5417 14.1922C18.5417 16.0522 19.7617 17.0122 21.6117 17.0122ZM21.4117 15.3822C20.7417 15.3822 20.2117 14.8522 20.2117 14.1922C20.2117 13.5222 20.7417 12.9922 21.4117 12.9922C22.0817 12.9922 22.6217 13.5222 22.6217 14.1922C22.6217 14.8522 22.0817 15.3822 21.4117 15.3822Z" />
        </svg>
    