
        <svg xmlns="http://www.w3.org/2000/svg" viewBox="0 0 100 100">
            <path d="M3.4217 24.9697H15.9517C18.2117 24.9697 19.3717 23.7997 19.3717 21.5197V3.4497C19.3717 1.1597 18.2217 -0.0003 15.9517 -0.0003H12.4817C12.1717 -0.0003 11.9717 0.2097 11.9717 0.5297C11.9717 1.8297 11.0417 2.7797 9.6917 2.7797C8.3317 2.7797 7.3917 1.8297 7.3917 0.5297C7.3917 0.2097 7.1917 -0.0003 6.8917 -0.0003H3.4217C1.1617 -0.0003 0.0017 1.1597 0.0017 3.4497V21.5197C0.0017 23.7997 1.1717 24.9697 3.4217 24.9697ZM3.5017 23.5197C2.1417 23.5197 1.4517 22.7797 1.4517 21.4797V3.4797C1.4517 2.1597 2.1417 1.4397 3.5017 1.4397H6.0917C6.4617 3.1197 7.8317 4.1797 9.6917 4.1797C11.5417 4.1797 12.9217 3.1197 13.2917 1.4397H15.8817C17.2217 1.4397 17.9317 2.1597 17.9317 3.4797V21.4797C17.9317 22.7797 17.2217 23.5197 15.8817 23.5197ZM5.0817 8.3297H14.3017C14.6217 8.3297 14.8817 8.0897 14.8817 7.7497C14.8817 7.4197 14.6217 7.1697 14.3017 7.1697H5.0817C4.7417 7.1697 4.5017 7.4197 4.5017 7.7497C4.5017 8.0897 4.7417 8.3297 5.0817 8.3297ZM5.0817 12.6097H9.5317C9.8517 12.6097 10.1117 12.3497 10.1117 12.0397C10.1117 11.7097 9.8517 11.4497 9.5317 11.4497H5.0817C4.7417 11.4497 4.5017 11.7097 4.5017 12.0397C4.5017 12.3497 4.7417 12.6097 5.0817 12.6097Z" />
        </svg>
    