
        <svg xmlns="http://www.w3.org/2000/svg" viewBox="0 0 100 100">
            <path d="M17.4597 9.575C17.6697 9.575 17.8397 9.415 17.8697 9.215C18.3997 6.215 18.7897 5.625 21.8397 5.205C22.0797 5.175 22.2297 5.005 22.2297 4.785C22.2297 4.555 22.0797 4.395 21.8397 4.355C18.8297 3.935 18.3497 3.335 17.8697 0.385C17.8197 0.155 17.6697 -0.005 17.4597 -0.005C17.2397 -0.005 17.0597 0.155 17.0297 0.375C16.5197 3.355 16.0997 3.935 13.0597 4.355C12.8197 4.395 12.6697 4.555 12.6697 4.785C12.6697 5.005 12.8197 5.165 13.0597 5.205C16.0597 5.685 16.5397 6.185 17.0297 9.195C17.0597 9.415 17.2297 9.575 17.4597 9.575ZM20.8197 23.555C21.4597 24.215 22.5397 24.215 23.1597 23.555C23.7897 22.895 23.7997 21.875 23.1597 21.225L7.5597 5.575C6.9297 4.935 5.8497 4.935 5.2297 5.575C4.5797 6.235 4.5797 7.265 5.2297 7.925ZM10.6097 11.705L6.1797 7.255C5.9697 7.055 5.9697 6.735 6.1797 6.535C6.3797 6.325 6.6997 6.325 6.8997 6.535L11.3297 10.965ZM3.3997 19.215C3.5997 19.215 3.7397 19.075 3.7597 18.895C4.0897 16.655 4.1097 16.535 6.4797 16.175C6.6697 16.145 6.8097 16.005 6.8097 15.805C6.8097 15.625 6.6797 15.485 6.4797 15.445C4.0997 15.055 4.0997 14.945 3.7597 12.735C3.7397 12.555 3.5997 12.415 3.3997 12.415C3.1997 12.415 3.0697 12.555 3.0397 12.735C2.7097 14.955 2.6997 15.085 0.3397 15.445C0.1297 15.485 -0.0003 15.605 -0.0003 15.805C-0.0003 16.005 0.1297 16.135 0.3197 16.175C2.7097 16.575 2.7197 16.675 3.0397 18.895C3.0697 19.075 3.1997 19.215 3.3997 19.215ZM7.3897 22.645C7.5497 22.645 7.6497 22.535 7.6797 22.385C7.9097 21.085 7.8597 21.045 9.3197 20.765C9.4697 20.735 9.5597 20.625 9.5597 20.485C9.5597 20.345 9.4697 20.225 9.3197 20.205C7.8797 19.925 7.9197 19.895 7.6797 18.565C7.6497 18.425 7.5397 18.315 7.3897 18.315C7.2497 18.315 7.1497 18.425 7.1097 18.585C6.8597 19.895 6.9297 19.945 5.4797 20.205C5.3197 20.235 5.2297 20.335 5.2297 20.485C5.2297 20.625 5.3197 20.735 5.4697 20.765C6.9297 21.045 6.8597 21.085 7.1097 22.385C7.1497 22.535 7.2497 22.645 7.3897 22.645Z" />
        </svg>
    