
        <svg xmlns="http://www.w3.org/2000/svg" viewBox="0 0 100 100">
            <path d="M15.7923 1.6755C15.7923 0.7755 15.0223 -0.0045 14.1223 -0.0045C13.2223 -0.0045 12.4523 0.7755 12.4523 1.6755V5.2255C12.4523 6.1255 13.2223 6.8955 14.1223 6.8955C15.0223 6.8955 15.7923 6.1255 15.7923 5.2255ZM19.3123 6.5855C18.6923 7.2055 18.7023 8.2955 19.3523 8.9555C19.9723 9.5755 21.0723 9.5655 21.7023 8.9155L24.0923 6.5155C24.7123 5.8955 24.7023 4.7955 24.0623 4.1455C23.4423 3.5255 22.3323 3.5555 21.7023 4.1855ZM6.5423 8.9155C7.1723 9.5655 8.2723 9.5755 8.8923 8.9555C9.5423 8.3055 9.5523 7.2055 8.9323 6.5855L6.5423 4.1855C5.9023 3.5555 4.8123 3.5255 4.1823 4.1455C3.5423 4.7955 3.5323 5.8955 4.1623 6.5155ZM26.1023 26.1055C26.9023 25.2755 26.9223 23.9255 26.1023 23.1055L14.8923 11.8255C14.0823 11.0155 12.7123 11.0155 11.9023 11.8255C11.0823 12.6555 11.0823 14.0055 11.9023 14.8255L23.1023 26.1055C23.9223 26.9155 25.2923 26.9155 26.1023 26.1055ZM1.6623 12.4355C0.7623 12.4355 0.0023 13.1955 0.0023 14.0955C0.0023 14.9955 0.7623 15.7655 1.6623 15.7655H5.2123C6.1323 15.7655 6.9023 14.9955 6.9023 14.0955C6.9023 13.1955 6.1323 12.4355 5.2123 12.4355ZM26.5823 15.7655C27.4823 15.7655 28.2523 14.9955 28.2523 14.0955C28.2523 13.1955 27.4823 12.4355 26.5823 12.4355H23.0323C22.1223 12.4355 21.3623 13.1955 21.3623 14.0955C21.3623 14.9955 22.1223 15.7655 23.0323 15.7655ZM24.9723 24.9755C24.7023 25.2555 24.2823 25.2355 24.0023 24.9455L16.8323 17.7555L17.7523 16.7955L24.9523 24.0155C25.2223 24.2855 25.2523 24.7055 24.9723 24.9755ZM4.1623 21.6455C3.5123 22.2755 3.5023 23.3755 4.1223 23.9955C4.7723 24.6455 5.8723 24.6555 6.4923 24.0355L8.8923 21.6455C9.5423 21.0155 9.5523 19.9255 8.9323 19.2855C8.2823 18.6455 7.1823 18.6355 6.5623 19.2655ZM15.7923 22.9855C15.7923 22.0755 15.0223 21.3055 14.1223 21.3055C13.2223 21.3055 12.4523 22.0755 12.4523 22.9855V26.5155C12.4523 27.4355 13.2223 28.2055 14.1223 28.2055C15.0223 28.2055 15.7923 27.4355 15.7923 26.5155Z" />
        </svg>
    