
        <svg xmlns="http://www.w3.org/2000/svg" viewBox="0 0 100 100">
            <path d="M15.5523 22.1248C20.3923 22.1248 24.4223 18.0948 24.4223 13.2548C24.4223 10.0148 22.6423 7.1648 20.0323 5.6148V2.5148C20.0323 0.9648 19.0623 0.0048 17.5123 0.0048H13.6523C12.0923 0.0048 11.1323 0.9648 11.1323 2.5148V5.5848C8.4823 7.1348 6.6823 10.0048 6.6823 13.2548C6.6823 18.0948 10.7023 22.1248 15.5523 22.1248ZM24.8423 5.6148L26.5623 3.8748C27.0123 3.4348 27.0123 2.6948 26.5623 2.2548C26.1223 1.8048 25.3823 1.8048 24.9223 2.2548L23.2023 3.9748C22.7423 4.4148 22.7423 5.1648 23.2023 5.6148C23.6523 6.0548 24.4023 6.0548 24.8423 5.6148ZM6.2823 5.6148C6.7223 6.0548 7.4723 6.0548 7.9223 5.6148C8.3823 5.1648 8.3823 4.4148 7.9223 3.9748L6.2023 2.2548C5.7423 1.8048 5.0023 1.8048 4.5623 2.2548C4.1123 2.6948 4.1123 3.4348 4.5623 3.8748ZM15.5623 4.3848C14.7623 4.3848 13.9823 4.4848 13.2423 4.6948V2.8048C13.2423 2.3548 13.4923 2.1048 13.9323 2.1048H17.2223C17.6723 2.1048 17.9223 2.3548 17.9223 2.8048V4.6948C17.1723 4.4848 16.3723 4.3848 15.5623 4.3848ZM15.5723 19.9348C11.9323 19.9348 8.8923 16.8948 8.8923 13.2548C8.8923 9.6248 11.9323 6.5748 15.5623 6.5748C19.2023 6.5748 22.2523 9.6048 22.2523 13.2548C22.2523 16.8948 19.2223 19.9348 15.5723 19.9348ZM27.5323 14.4148H29.9623C30.6023 14.4148 31.1223 13.8848 31.1223 13.2548C31.1223 12.6248 30.6023 12.0948 29.9623 12.0948H27.5323C26.8823 12.0948 26.3623 12.6248 26.3623 13.2548C26.3623 13.8848 26.8823 14.4148 27.5323 14.4148ZM3.6023 14.4148C4.2323 14.4148 4.7623 13.8848 4.7623 13.2548C4.7623 12.6248 4.2323 12.0948 3.6023 12.0948H1.1623C0.5323 12.0948 0.0023 12.6248 0.0023 13.2548C0.0023 13.8848 0.5323 14.4148 1.1623 14.4148ZM23.2023 22.5248L24.9223 24.2548C25.3823 24.7048 26.1223 24.7048 26.5623 24.2548C27.0123 23.8148 27.0123 23.0748 26.5623 22.6148L24.8423 20.8948C24.4023 20.4348 23.6523 20.4348 23.2023 20.8948C22.7423 21.3348 22.7423 22.0948 23.2023 22.5248ZM7.9223 22.5248C8.3823 22.0948 8.3823 21.3348 7.9223 20.8948C7.4723 20.4348 6.7223 20.4348 6.2823 20.8948L4.5623 22.6148C4.1123 23.0748 4.1123 23.8148 4.5623 24.2548C5.0023 24.7048 5.7423 24.7048 6.2023 24.2548ZM16.7323 25.1948C16.7323 24.5548 16.2223 24.0348 15.5723 24.0348C14.9423 24.0348 14.4223 24.5548 14.4223 25.1948V27.6348C14.4223 28.2648 14.9423 28.7948 15.5723 28.7948C16.2223 28.7948 16.7323 28.2648 16.7323 27.6348Z" />
        </svg>
    