
        <svg xmlns="http://www.w3.org/2000/svg" viewBox="0 0 100 100">
            <path d="M12.7923 25.5961C19.8723 25.5961 25.6023 19.8661 25.6023 12.7961C25.6023 5.7261 19.8723 -0.0039 12.7923 -0.0039C5.7323 -0.0039 0.0023 5.7261 0.0023 12.7961C0.0023 19.8661 5.7323 25.5961 12.7923 25.5961ZM16.4523 6.4761C17.4423 6.4761 18.1323 7.1961 18.1323 8.1961V9.5961H7.4523V8.1961C7.4523 7.1961 8.1523 6.4761 9.1423 6.4761ZM9.7823 8.8461C10.1623 8.8461 10.4523 8.5461 10.4523 8.1761C10.4523 7.8061 10.1623 7.4961 9.7823 7.4961C9.4223 7.4961 9.1123 7.8061 9.1123 8.1761C9.1123 8.5461 9.4223 8.8461 9.7823 8.8461ZM11.5523 8.8461C11.9323 8.8461 12.2223 8.5461 12.2223 8.1761C12.2223 7.8061 11.9323 7.4961 11.5523 7.4961C11.1923 7.4961 10.8823 7.8061 10.8823 8.1761C10.8823 8.5461 11.1923 8.8461 11.5523 8.8461ZM14.8523 8.6361H15.9923C16.2523 8.6361 16.4423 8.4461 16.4423 8.1761C16.4423 7.9061 16.2523 7.7261 15.9923 7.7261H14.8523C14.5823 7.7261 14.3923 7.9061 14.3923 8.1761C14.3923 8.4461 14.5823 8.6361 14.8523 8.6361ZM9.1423 19.1061C8.1523 19.1061 7.4523 18.3961 7.4523 17.4061V10.6661H18.1323V17.4061C18.1323 18.3961 17.4423 19.1061 16.4523 19.1061ZM12.7923 17.9661C14.5823 17.9661 16.0123 16.5361 16.0123 14.7561C16.0123 12.9861 14.5823 11.5561 12.7923 11.5561C11.0123 11.5561 9.5823 12.9861 9.5823 14.7561C9.5823 16.5361 11.0123 17.9661 12.7923 17.9661ZM12.7923 16.9461C11.5923 16.9461 10.6123 15.9561 10.6123 14.7561C10.6123 13.5561 11.5923 12.5761 12.7923 12.5761C13.9923 12.5761 14.9723 13.5561 14.9723 14.7561C14.9723 15.9561 13.9923 16.9461 12.7923 16.9461Z" />
        </svg>
    