
        <svg xmlns="http://www.w3.org/2000/svg" viewBox="0 0 100 100">
            <path d="M2.1717 22.7783H11.1417C11.0117 22.6283 10.9217 22.4383 10.8317 22.2583L10.7017 21.9183H2.1717C1.3817 21.9183 0.8817 21.3383 0.8817 20.4683V6.3983H17.8917V14.1783C18.1317 14.1283 18.5417 14.1283 18.7617 14.1783V2.3283C18.7617 0.9283 17.8917 -0.0017 16.5917 -0.0017H2.1717C0.8717 -0.0017 0.0017 0.9283 0.0017 2.3283V20.4483C0.0017 21.8583 0.8717 22.7783 2.1717 22.7783ZM0.8817 2.3083C0.8817 1.4383 1.3817 0.8683 2.1717 0.8683H16.6017C17.3817 0.8683 17.8917 1.4383 17.8917 2.3083V5.5983H0.8817ZM3.7617 4.2683C4.3217 4.2683 4.7917 3.8083 4.7917 3.2383C4.7917 2.6683 4.3217 2.1983 3.7617 2.1983C3.1917 2.1983 2.7217 2.6683 2.7217 3.2383C2.7217 3.8083 3.1917 4.2683 3.7617 4.2683ZM6.7417 4.2683C7.3017 4.2683 7.7717 3.8083 7.7717 3.2383C7.7717 2.6683 7.3017 2.1983 6.7417 2.1983C6.1617 2.1983 5.7217 2.6683 5.7217 3.2383C5.7217 3.8083 6.1617 4.2683 6.7417 4.2683ZM12.3917 3.5983H15.5617C15.7617 3.5983 15.9117 3.4383 15.9117 3.2383C15.9117 3.0383 15.7617 2.8683 15.5617 2.8683H12.3917C12.1717 2.8683 12.0217 3.0383 12.0217 3.2383C12.0217 3.4383 12.1717 3.5983 12.3917 3.5983ZM3.6717 14.1583C3.6717 17.3083 6.2217 19.8783 9.3917 19.8783C9.5617 19.8783 9.7517 19.8583 9.9217 19.8483C9.8317 19.6083 9.7617 19.3583 9.6717 19.1283C9.5517 19.1383 9.4317 19.1383 9.3117 19.1383C6.6417 19.1383 4.4017 17.0083 4.4017 14.1583C4.4017 11.3483 6.5717 9.1683 9.3917 9.1683C12.1917 9.1683 14.3717 11.3483 14.3717 14.1483C14.3717 14.3783 14.3517 14.5983 14.3117 14.8283C14.5417 14.9283 14.8017 15.0083 15.0217 15.0783C15.0817 14.7783 15.1017 14.4583 15.1017 14.1583C15.1017 10.9883 12.5417 8.4283 9.3917 8.4283C6.2217 8.4283 3.6717 10.9883 3.6717 14.1583ZM13.1717 22.8383H17.5517C18.1617 22.8383 18.7517 22.4783 19.0317 21.7183L21.2417 15.6983C21.3417 15.4483 21.2217 15.2483 21.0517 15.1783C20.8517 15.0983 20.6017 15.1383 20.4917 15.4183L20.3317 15.8783C19.6317 15.4183 19.0417 15.1383 18.3517 15.1383C16.7717 15.1383 16.4217 16.1383 15.3617 16.1383C14.3017 16.1383 13.9617 15.1383 12.3717 15.1383C11.6817 15.1383 11.0817 15.4183 10.3917 15.8783L10.2217 15.4183C10.1217 15.1383 9.8717 15.0983 9.6817 15.1783C9.4917 15.2483 9.3917 15.4483 9.4717 15.6983L11.6817 21.7183C11.9617 22.4783 12.5617 22.8383 13.1717 22.8383ZM15.3617 16.8383C16.8117 16.8383 17.1817 15.8483 18.3517 15.8483C18.9417 15.8483 19.3817 16.0983 20.0817 16.5383L18.3017 21.3683C18.1317 21.8683 17.8517 22.0383 17.4717 22.0383H13.2517C12.8717 22.0383 12.6017 21.8683 12.4117 21.3683L10.6317 16.5383C11.3317 16.0983 11.7917 15.8483 12.3717 15.8483C13.5317 15.8483 13.9117 16.8383 15.3617 16.8383Z" />
        </svg>
    