
        <svg xmlns="http://www.w3.org/2000/svg" viewBox="0 0 100 100">
            <path d="M5.6417 27.1178L12.2617 27.1278C12.9617 27.1278 13.4417 26.6578 13.4417 25.9878V21.3478C15.6717 20.1078 17.2517 17.9378 17.7317 15.2978H18.4017C18.7217 15.2978 18.9517 15.0578 18.9517 14.7178V12.3478C18.9517 12.0278 18.7117 11.7778 18.3917 11.7778H17.7317C17.2417 9.1378 15.6517 6.9878 13.4417 5.7378V1.1278C13.4417 0.4578 12.9617 -0.0022 12.2617 -0.0022H5.6417C4.9317 -0.0022 4.4517 0.4678 4.4517 1.1378V5.7378C1.7617 7.2578 0.0017 10.1278 0.0017 13.5478C0.0017 16.9678 1.7617 19.8378 4.4517 21.3478V25.9778C4.4517 26.6578 4.9317 27.1178 5.6417 27.1178ZM8.9417 21.1178C4.4417 21.1178 1.3717 18.0578 1.3717 13.5478C1.3717 9.0378 4.4417 5.9678 8.9417 5.9678C13.4517 5.9678 16.5217 9.0378 16.5217 13.5478C16.5217 18.0578 13.4517 21.1178 8.9417 21.1178ZM9.6117 14.0578L13.3617 10.7778C13.6417 10.5378 13.6417 10.1278 13.3717 9.8478C13.1217 9.6078 12.7217 9.5978 12.4317 9.8478L8.9417 12.8678L6.8017 11.0578C6.5417 10.8378 6.1317 10.8778 5.8817 11.1578C5.6517 11.4378 5.6817 11.8478 5.9717 12.0978L8.3117 14.0578C8.7517 14.4378 9.1717 14.4378 9.6117 14.0578Z" />
        </svg>
    