
        <svg xmlns="http://www.w3.org/2000/svg" viewBox="0 0 100 100">
            <path d="M14.9717 24.8163V10.1063C14.9717 8.4263 14.7217 7.1462 13.7917 5.8562L12.2817 3.7662C12.5317 3.4963 12.6717 3.1262 12.6717 2.7063V1.5162C12.6717 0.6363 12.0517 -0.0038 11.1517 -0.0038H3.8217C2.9317 -0.0038 2.3117 0.6363 2.3117 1.5162V2.7063C2.3117 3.1262 2.4517 3.4963 2.6817 3.7463L1.1717 5.8562C0.2417 7.1462 0.0017 8.4462 0.0017 10.1063V24.8163C0.0017 27.6563 1.6417 29.3763 4.3117 29.3763H10.6417C13.3317 29.3763 14.9717 27.6563 14.9717 24.8163ZM3.6717 7.4863L5.9917 4.2162H8.9717L11.3017 7.4863C11.8117 8.2263 11.9417 8.6563 11.9717 9.5363H3.0017C3.0217 8.6563 3.1417 8.2263 3.6717 7.4863ZM3.0017 22.1363V11.5663H11.9717V22.1363ZM7.4917 20.7163C9.1917 20.7163 10.3217 19.6063 10.3217 17.9862C10.3217 17.1463 9.9617 16.4663 9.7617 16.0663C9.3517 15.1563 8.6617 13.9763 8.0617 13.1063C7.9117 12.8463 7.7017 12.7363 7.4917 12.7363C7.3017 12.7363 7.0817 12.8463 6.9117 13.1063C6.3317 13.9763 5.6417 15.1563 5.2117 16.0663C5.0417 16.4663 4.6617 17.1463 4.6617 17.9862C4.6617 19.6063 5.7917 20.7163 7.4917 20.7163ZM4.3117 26.3863C3.4817 26.3863 3.0017 25.8063 3.0017 24.8163V24.1663H11.9717V24.8163C11.9717 25.8063 11.4817 26.3863 10.6417 26.3863Z" />
        </svg>
    