
        <svg xmlns="http://www.w3.org/2000/svg" viewBox="0 0 100 100">
            <path d="M22.7617 23.1814C23.1317 23.5414 23.7417 23.5514 24.1017 23.1814C24.4717 22.7914 24.4817 22.1914 24.1017 21.8214L2.5517 0.2814C2.1817 -0.0986 1.5717 -0.0986 1.1917 0.2814C0.8317 0.6414 0.8317 1.2614 1.1917 1.6314ZM12.6817 6.9114C16.0617 6.9114 16.5317 4.5014 18.3117 4.5014C20.1217 4.5014 20.4117 6.9114 24.2217 6.9114H24.3017C24.8917 6.9114 25.3617 6.4314 25.3617 5.8514C25.3617 5.2614 24.8917 4.7914 24.3017 4.7914H24.2217C23.1117 4.7914 22.4317 4.3514 21.4817 3.6714C20.7217 3.1014 19.7017 2.3914 18.3117 2.3914C16.9017 2.3914 15.8717 3.1414 15.0917 3.7114C14.2717 4.3214 13.6717 4.7914 12.6817 4.7914C11.6917 4.7914 11.0817 4.3214 10.2617 3.7114C9.4917 3.1414 8.4717 2.3914 7.0517 2.3914C6.9217 2.3914 6.8017 2.3914 6.6917 2.4114L10.7017 6.4114C11.3817 6.4714 11.8217 6.9114 12.6817 6.9114ZM18.3117 11.5614C20.1217 11.5614 20.4117 13.9814 24.2217 13.9814H24.3017C24.8917 13.9814 25.3617 13.5114 25.3617 12.9114C25.3617 12.3414 24.8917 11.8614 24.3017 11.8614H24.2217C23.1117 11.8614 22.4317 11.4114 21.4817 10.7414C20.7217 10.1814 19.7017 9.4614 18.3117 9.4614C16.8917 9.4614 15.8917 10.2214 15.0717 10.7914L16.6217 12.3414C17.1417 11.9414 17.6117 11.5614 18.3117 11.5614ZM0.0017 12.9114C0.0017 13.5114 0.4717 13.9814 1.0517 13.9814H1.1417C4.9417 13.9814 5.2417 11.5614 7.0517 11.5614C8.4717 11.5614 9.0517 13.1614 11.0817 13.7214L6.8917 9.5314C6.6917 9.5014 6.4817 9.5014 6.2717 9.5414C5.3417 9.7114 4.5317 10.2614 3.8817 10.7414C2.9317 11.4114 2.2517 11.8614 1.1417 11.8614H1.0517C0.4717 11.8614 0.0017 12.3414 0.0017 12.9114ZM12.6817 21.0514C14.9317 21.0514 15.8817 19.9714 16.8417 19.2814L15.2817 17.7314C14.4617 18.3014 13.7417 18.9414 12.6817 18.9414C11.6917 18.9414 11.0817 18.4714 10.2617 17.8514C9.4917 17.2714 8.4717 16.5214 7.0517 16.5214C5.6617 16.5214 4.6517 17.2514 3.8817 17.8114C2.9317 18.4814 2.2517 18.9414 1.1417 18.9414H1.0517C0.4717 18.9414 0.0017 19.4014 0.0017 19.9914C0.0017 20.5814 0.4717 21.0514 1.0517 21.0514H1.1417C4.9417 21.0514 5.2417 18.6414 7.0517 18.6414C8.8317 18.6414 9.3017 21.0514 12.6817 21.0514Z" />
        </svg>
    