
        <svg xmlns="http://www.w3.org/2000/svg" viewBox="0 0 100 100">
            <path d="M3.5117 4.1806H10.1517C11.1217 4.1806 11.8017 3.5006 11.8017 2.5306V1.6606C11.8017 0.6906 11.1217 0.0006 10.1517 0.0006H3.5117C2.5417 0.0006 1.8617 0.6906 1.8617 1.6606V2.5306C1.8617 3.5006 2.5417 4.1806 3.5117 4.1806ZM0.0117 10.4406H13.6317C13.5717 9.1206 13.3017 8.1006 12.5117 7.0106L12.3117 6.7506C11.9917 6.2806 11.3817 5.9406 10.8117 5.9406H2.8317C2.2617 5.9406 1.6517 6.2806 1.3217 6.7506L1.1417 7.0106C0.3417 8.1006 0.0717 9.1206 0.0117 10.4406ZM0.0017 12.5006V23.5006H13.6417V12.5006ZM6.8117 21.9006C5.1717 21.9006 4.1017 20.8706 4.1017 19.2906C4.1017 18.4906 4.4717 17.8406 4.6617 17.4106C5.0817 16.5006 5.7917 15.2906 6.4017 14.3906C6.5017 14.2006 6.6717 14.1106 6.8117 14.1106C6.9717 14.1106 7.1117 14.2006 7.2217 14.3906C7.8317 15.2906 8.5517 16.5006 8.9717 17.4106C9.1517 17.8406 9.5317 18.4906 9.5317 19.2906C9.5317 20.8706 8.4517 21.9006 6.8117 21.9006ZM0.0017 25.5606V25.6006C0.0017 28.3506 1.3717 29.8506 3.7717 29.8506H9.8817C12.2817 29.8506 13.6417 28.3506 13.6417 25.6006V25.5606Z" />
        </svg>
    