
        <svg xmlns="http://www.w3.org/2000/svg" viewBox="0 0 100 100">
            <path d="M12.2223 24.4419C18.9723 24.4419 24.4423 18.9719 24.4423 12.2219C24.4423 5.4819 18.9723 0.0019 12.2223 0.0019C5.4823 0.0019 0.0023 5.4819 0.0023 12.2219C0.0023 18.9719 5.4823 24.4419 12.2223 24.4419ZM11.0023 18.6919C10.5623 18.6919 10.2323 18.3519 10.2323 17.9019V6.5519C10.2323 6.1019 10.5623 5.7519 11.0023 5.7519C11.4423 5.7519 11.7923 6.0919 11.7923 6.5519V17.9019C11.7923 18.3519 11.4423 18.6919 11.0023 18.6919ZM15.8823 17.1219C15.4323 17.1219 15.0923 16.7819 15.0923 16.3519V8.1019C15.0923 7.6619 15.4323 7.3219 15.8823 7.3219C16.3123 7.3219 16.6523 7.6619 16.6523 8.1019V16.3519C16.6523 16.7819 16.3123 17.1219 15.8823 17.1219ZM8.5623 16.1719C8.1223 16.1719 7.7823 15.8319 7.7823 15.3819V9.0419C7.7823 8.6119 8.1223 8.2619 8.5623 8.2619C9.0023 8.2619 9.3523 8.6119 9.3523 9.0419V15.3819C9.3523 15.8319 9.0023 16.1719 8.5623 16.1719ZM13.4323 15.2119C13.0123 15.2119 12.6523 14.8619 12.6523 14.4219V10.0219C12.6523 9.5819 13.0123 9.2319 13.4323 9.2319C13.8723 9.2319 14.2123 9.5719 14.2123 10.0219V14.4219C14.2123 14.8619 13.8723 15.2119 13.4323 15.2119ZM18.3123 14.4019C17.8723 14.4019 17.5323 14.0619 17.5323 13.6219V10.8319C17.5323 10.3819 17.8723 10.0319 18.3123 10.0319C18.7523 10.0319 19.0923 10.3719 19.0923 10.8319V13.6219C19.0923 14.0719 18.7623 14.4019 18.3123 14.4019ZM6.1123 13.9119C5.6923 13.9119 5.3423 13.5619 5.3423 13.1219V11.3119C5.3423 10.8719 5.6823 10.5319 6.1123 10.5319C6.5623 10.5319 6.9023 10.8719 6.9023 11.3119V13.1219C6.9023 13.5619 6.5623 13.9119 6.1123 13.9119Z" />
        </svg>
    