
        <svg xmlns="http://www.w3.org/2000/svg" viewBox="0 0 100 100">
            <path d="M12.3723 24.7542C19.2023 24.7542 24.7523 19.2042 24.7523 12.3742C24.7523 5.5442 19.2023 0.0042 12.3723 0.0042C5.5423 0.0042 0.0023 5.5442 0.0023 12.3742C0.0023 19.2042 5.5423 24.7542 12.3723 24.7542ZM17.7023 12.3942C17.7023 14.9642 16.9723 17.4742 15.6323 19.5442C15.2823 20.0942 14.6023 20.2542 14.0623 19.9142C13.5123 19.5742 13.3823 18.8742 13.7623 18.2742C14.8623 16.5742 15.4423 14.5242 15.4423 12.3942C15.4423 10.2542 14.8623 8.2142 13.7623 6.5142C13.3823 5.9142 13.5123 5.2142 14.0623 4.8742C14.6023 4.5342 15.2823 4.6842 15.6323 5.2342C16.9723 7.3242 17.7023 9.8342 17.7023 12.3942ZM13.9523 12.3942C13.9523 14.2842 13.4223 16.1242 12.4123 17.6042C12.0623 18.1242 11.4123 18.2842 10.8723 17.9542C10.3123 17.6142 10.1823 16.8942 10.5823 16.2642C11.2923 15.1842 11.6923 13.8142 11.6923 12.3942C11.6923 10.9642 11.2923 9.5942 10.5823 8.5242C10.1823 7.8842 10.3123 7.1742 10.8723 6.8342C11.4123 6.5042 12.0623 6.6542 12.4123 7.1842C13.4223 8.6442 13.9523 10.4842 13.9523 12.3942ZM10.2023 12.3942C10.2023 13.6042 9.8323 14.8242 9.1923 15.6942C8.8623 16.1742 8.1923 16.3042 7.6723 15.9842C7.1023 15.6142 6.9923 14.9142 7.4023 14.2642C7.7423 13.7442 7.9423 13.0742 7.9423 12.3942C7.9423 11.6942 7.7423 11.0242 7.4023 10.5242C6.9923 9.8642 7.1023 9.1642 7.6723 8.8042C8.1923 8.4842 8.8523 8.6142 9.1923 9.0942C9.8323 9.9942 10.2023 11.2042 10.2023 12.3942Z" />
        </svg>
    