
        <svg xmlns="http://www.w3.org/2000/svg" viewBox="0 0 100 100">
            <path d="M12.6023 25.1969C19.5623 25.1969 25.2023 19.5569 25.2023 12.5969C25.2023 5.6369 19.5623 -0.0031 12.6023 -0.0031C5.6523 -0.0031 0.0023 5.6369 0.0023 12.5969C0.0023 19.5569 5.6523 25.1969 12.6023 25.1969ZM12.6023 7.3369C15.0623 7.3369 17.4623 8.0169 19.5223 9.2769C20.1423 9.6669 20.3423 10.4369 19.9523 11.0669C19.5823 11.7069 18.7823 11.8569 18.0723 11.4469C16.4523 10.4369 14.5623 9.9169 12.6023 9.9169C10.6323 9.9169 8.7423 10.4369 7.1223 11.4469C6.4123 11.8569 5.6023 11.7069 5.2423 11.0669C4.8623 10.4369 5.0523 9.6669 5.6723 9.2769C7.7223 8.0169 10.1323 7.3369 12.6023 7.3369ZM12.6023 11.0669C14.4423 11.0669 16.2023 11.5769 17.6723 12.5469C18.2723 12.9169 18.4423 13.6569 18.0823 14.2769C17.7023 14.9369 16.8823 15.0969 16.1523 14.6469C15.1123 13.9969 13.8823 13.6369 12.6023 13.6369C11.3123 13.6369 10.0823 13.9969 9.0423 14.6469C8.3123 15.0969 7.4923 14.9369 7.1123 14.2769C6.7523 13.6569 6.9223 12.9169 7.5223 12.5469C9.0023 11.5769 10.7723 11.0669 12.6023 11.0669ZM12.6023 14.7969C13.7723 14.7969 14.9523 15.1669 15.8623 15.8169C16.3923 16.1869 16.5323 16.9169 16.1823 17.5169C15.7823 18.1769 14.9923 18.2969 14.2123 17.8369C13.7423 17.5469 13.1923 17.3869 12.6023 17.3869C12.0123 17.3869 11.4623 17.5469 10.9823 17.8369C10.2023 18.2969 9.4223 18.1769 9.0123 17.5169C8.6623 16.9169 8.8023 16.1869 9.3423 15.8169C10.2323 15.1669 11.4123 14.7969 12.6023 14.7969Z" />
        </svg>
    