
        <svg xmlns="http://www.w3.org/2000/svg" viewBox="0 0 100 100">
            <path d="M11.9523 23.9023C18.5523 23.9023 23.9023 18.5523 23.9023 11.9523C23.9023 5.3623 18.5523 0.0023 11.9523 0.0023C5.3623 0.0023 0.0023 5.3623 0.0023 11.9523C0.0023 18.5523 5.3623 23.9023 11.9523 23.9023ZM11.9423 6.8523C14.6923 6.8523 17.3823 7.6623 19.5123 9.1423C19.9323 9.4223 20.0423 9.9223 19.7623 10.3123C19.4723 10.7023 18.9723 10.7623 18.5723 10.4923C16.7423 9.1923 14.3923 8.4823 11.9423 8.4823C9.5123 8.4823 7.1223 9.2023 5.3123 10.4923C4.9023 10.7623 4.4023 10.7023 4.1223 10.3123C3.8523 9.9423 3.9623 9.4323 4.3623 9.1423C6.4823 7.6623 9.1623 6.8523 11.9423 6.8523ZM11.9423 10.6123C13.9923 10.6123 15.9423 11.2123 17.4123 12.3023C17.8023 12.6023 17.9023 13.0823 17.6223 13.4523C17.3823 13.8123 16.8523 13.9223 16.4423 13.6323C15.2423 12.7723 13.6123 12.2723 11.9423 12.2723C10.2623 12.2723 8.6323 12.7723 7.4423 13.6323C7.0223 13.9223 6.5023 13.8123 6.2423 13.4523C5.9723 13.0823 6.0723 12.6023 6.4723 12.3023C7.9723 11.2123 9.9223 10.6123 11.9423 10.6123ZM11.9423 14.4023C13.1723 14.4023 14.4123 14.7723 15.3123 15.4223C15.6923 15.6923 15.7823 16.1923 15.5423 16.5723C15.2623 16.9923 14.7223 17.0723 14.2823 16.7623C13.7223 16.3223 12.8423 16.0523 11.9423 16.0523C11.0623 16.0523 10.1823 16.3223 9.5823 16.7623C9.1523 17.0623 8.6523 16.9823 8.3523 16.5723C8.1023 16.1923 8.1923 15.6823 8.5823 15.4223C9.4123 14.7723 10.6723 14.4023 11.9423 14.4023Z" />
        </svg>
    