
        <svg xmlns="http://www.w3.org/2000/svg" viewBox="0 0 100 100">
            <path d="M11.3523 22.7064C17.6323 22.7064 22.7123 17.6264 22.7123 11.3564C22.7123 5.0764 17.6323 -0.0036 11.3523 -0.0036C5.0823 -0.0036 0.0023 5.0764 0.0023 11.3564C0.0023 17.6264 5.0823 22.7064 11.3523 22.7064ZM11.3523 22.1364C5.3923 22.1364 0.5723 17.3164 0.5723 11.3564C0.5723 5.3864 5.3923 0.5764 11.3523 0.5764C17.3223 0.5764 22.1323 5.3864 22.1323 11.3564C22.1323 17.3164 17.3223 22.1364 11.3523 22.1364ZM6.6523 11.3164C6.6523 14.1064 7.4723 16.7464 9.0823 19.0264C9.1723 19.1864 9.3423 19.2064 9.4823 19.1264C9.6323 19.0064 9.6523 18.8364 9.5623 18.7064C8.0623 16.7664 7.2323 14.2064 7.2323 11.3164C7.2323 8.4364 8.0623 5.8864 9.5623 3.9464C9.6523 3.8164 9.6323 3.6464 9.4823 3.5264C9.3423 3.4464 9.1923 3.4664 9.0823 3.6064C7.4723 5.9064 6.6523 8.5464 6.6523 11.3164ZM10.5323 11.3164C10.5323 13.4764 11.1323 15.3664 12.2823 16.8564C12.3823 16.9764 12.5423 17.0064 12.6823 16.9264C12.8123 16.8264 12.8623 16.6664 12.7623 16.5164C11.6823 15.1264 11.1123 13.3464 11.1123 11.3164C11.1123 9.2964 11.6823 7.5164 12.7623 6.1264C12.8623 5.9864 12.8123 5.8164 12.6823 5.7264C12.5423 5.6364 12.3823 5.6764 12.2823 5.7964C11.1323 7.2764 10.5323 9.1664 10.5323 11.3164ZM14.3823 11.3164C14.3823 12.5664 14.7623 13.7964 15.4523 14.6964C15.5723 14.8264 15.7623 14.8464 15.8823 14.7464C16.0423 14.6164 16.0223 14.4364 15.9023 14.2864C15.3023 13.4864 14.9523 12.4264 14.9523 11.3164C14.9523 10.2264 15.3023 9.1664 15.9023 8.3664C16.0223 8.2064 16.0423 8.0264 15.8823 7.8964C15.7623 7.7964 15.5723 7.8264 15.4523 7.9564C14.7623 8.8564 14.3823 10.0764 14.3823 11.3164Z" />
        </svg>
    