
        <svg xmlns="http://www.w3.org/2000/svg" viewBox="0 0 100 100">
            <path d="M7.9299 0.0017C7.6699 0.0017 7.4899 0.1917 7.4899 0.4317V6.1217L8.3599 6.9817V0.4317C8.3599 0.1917 8.1699 0.0017 7.9299 0.0017ZM21.4499 22.7717C21.6199 22.9317 21.8999 22.9317 22.0599 22.7717C22.2399 22.5817 22.2199 22.3217 22.0599 22.1517L0.7299 0.8317C0.5799 0.6717 0.2999 0.6417 0.1199 0.8317C-0.0401 0.9917 -0.0401 1.2817 0.1199 1.4417ZM15.2499 3.1417C14.9899 3.1417 14.8199 3.3317 14.8199 3.5817V13.4417L15.6899 14.3217V3.5817C15.6899 3.3317 15.5099 3.1417 15.2499 3.1417ZM11.5799 5.7817C11.3399 5.7817 11.1499 5.9617 11.1499 6.2117V9.7817L12.0299 10.6517V6.2117C12.0299 5.9617 11.8399 5.7817 11.5799 5.7817ZM4.2599 18.9017C4.5199 18.9017 4.6899 18.7117 4.6899 18.4717V7.4917L3.8299 6.6217V18.4717C3.8299 18.7117 3.9999 18.9017 4.2599 18.9017ZM18.9199 7.6417C18.6599 7.6417 18.4899 7.8117 18.4899 8.0717V15.5417C18.4899 15.8017 18.6599 15.9717 18.9199 15.9717C19.1699 15.9717 19.3499 15.8017 19.3499 15.5417V8.0717C19.3499 7.8117 19.1699 7.6417 18.9199 7.6417ZM0.5899 14.7517C0.8499 14.7517 1.0399 14.5817 1.0399 14.3217V9.2917C1.0399 9.0317 0.8499 8.8517 0.5899 8.8517C0.3499 8.8517 0.1599 9.0317 0.1599 9.2917V14.3217C0.1599 14.5817 0.3499 14.7517 0.5899 14.7517ZM7.9299 23.6117C8.1699 23.6117 8.3599 23.4217 8.3599 23.1817V11.1417L7.4899 10.2817V23.1817C7.4899 23.4217 7.6699 23.6117 7.9299 23.6117ZM11.5799 18.0517C11.8399 18.0517 12.0299 17.8617 12.0299 17.6117V14.8117L11.1499 13.9417V17.6117C11.1499 17.8617 11.3399 18.0517 11.5799 18.0517Z" />
        </svg>
    