
        <svg xmlns="http://www.w3.org/2000/svg" viewBox="0 0 100 100">
            <path d="M9.9817 26.58C10.7417 26.58 11.3417 25.99 11.3417 25.24V1.35C11.3417 0.6 10.7417 0 9.9817 0C9.2417 0 8.6617 0.6 8.6617 1.35V25.24C8.6617 25.99 9.2417 26.58 9.9817 26.58ZM18.6417 24.05C19.4017 24.05 20.0017 23.45 20.0017 22.7V3.89C20.0017 3.14 19.4017 2.53 18.6417 2.53C17.9017 2.53 17.3217 3.14 17.3217 3.89V22.7C17.3217 23.45 17.9017 24.05 18.6417 24.05ZM5.6617 22.56C6.4117 22.56 7.0117 21.96 7.0117 21.21V5.37C7.0117 4.62 6.4117 4.01 5.6617 4.01C4.9117 4.01 4.3217 4.62 4.3217 5.37V21.21C4.3217 21.96 4.9117 22.56 5.6617 22.56ZM14.3217 20.74C15.0717 20.74 15.6717 20.14 15.6717 19.41V7.18C15.6717 6.43 15.0717 5.82 14.3217 5.82C13.5717 5.82 12.9817 6.43 12.9817 7.18V19.41C12.9817 20.14 13.5717 20.74 14.3217 20.74ZM22.9817 18.68C23.7317 18.68 24.3317 18.09 24.3317 17.34V9.23C24.3317 8.5 23.7317 7.89 22.9817 7.89C22.2317 7.89 21.6417 8.5 21.6417 9.23V17.34C21.6417 18.09 22.2317 18.68 22.9817 18.68ZM1.3217 17.41C2.0817 17.41 2.6817 16.83 2.6817 16.08V10.5C2.6817 9.75 2.0817 9.14 1.3217 9.14C0.5817 9.14 0.0017 9.75 0.0017 10.5V16.08C0.0017 16.83 0.5817 17.41 1.3217 17.41Z" />
        </svg>
    