
        <svg xmlns="http://www.w3.org/2000/svg" viewBox="0 0 100 100">
            <path d="M12.8285 0.0027C8.2785 0.0027 3.8985 1.4027 0.1385 4.0227C-0.1915 4.2427 0.1385 4.6627 0.4285 4.4727C4.0985 1.9427 8.3485 0.5927 12.8285 0.5927C17.3385 0.5927 21.5785 1.9327 25.2485 4.4727C25.5785 4.7027 25.8485 4.2327 25.5585 4.0227C21.7785 1.3827 17.3985 0.0027 12.8285 0.0027ZM12.8285 6.0327C9.4285 6.0327 6.1685 7.1127 3.4485 9.1127C3.1285 9.3527 3.4385 9.7927 3.7485 9.5727C6.3985 7.6427 9.5285 6.6227 12.8285 6.6227C16.1485 6.6227 19.2885 7.6427 21.9385 9.5727C22.2485 9.7927 22.5585 9.3527 22.2285 9.1127C19.5085 7.1127 16.2485 6.0327 12.8285 6.0327ZM12.8285 12.0627C10.5685 12.0627 8.4485 12.8427 6.8285 14.3127C6.4985 14.6127 6.8785 15.0027 7.1285 14.7627C8.6485 13.3927 10.6485 12.6427 12.8285 12.6427C15.0185 12.6427 16.9985 13.3927 18.5385 14.7927C18.8185 15.0327 19.2585 14.6727 18.8485 14.3127C17.2185 12.8427 15.1285 12.0627 12.8285 12.0627Z" />
        </svg>
    