
        <svg xmlns="http://www.w3.org/2000/svg" viewBox="0 0 100 100">
            <path d="M12.6023 25.1969C19.5623 25.1969 25.2023 19.5569 25.2023 12.5969C25.2023 5.6369 19.5623 -0.0031 12.6023 -0.0031C5.6523 -0.0031 0.0023 5.6369 0.0023 12.5969C0.0023 19.5569 5.6523 25.1969 12.6023 25.1969ZM12.6023 10.6369C11.4123 10.6369 10.2323 10.2769 9.3423 9.6369C8.8023 9.2669 8.6623 8.5169 9.0123 7.9369C9.4223 7.2669 10.2023 7.1469 10.9823 7.6169C11.4623 7.9069 12.0123 8.0669 12.6023 8.0669C13.1923 8.0669 13.7423 7.9069 14.2123 7.6169C14.9923 7.1469 15.7823 7.2669 16.1823 7.9369C16.5323 8.5169 16.3923 9.2569 15.8623 9.6369C14.9523 10.2769 13.7723 10.6369 12.6023 10.6369ZM12.6023 14.3869C10.7723 14.3869 9.0023 13.8769 7.5223 12.9069C6.9223 12.5269 6.7523 11.7869 7.1123 11.1669C7.4923 10.5069 8.3123 10.3569 9.0423 10.8069C10.0823 11.4469 11.3123 11.7969 12.6023 11.7969C13.8823 11.7969 15.1123 11.4469 16.1523 10.8069C16.8823 10.3569 17.7023 10.5069 18.0823 11.1669C18.4423 11.7869 18.2723 12.5269 17.6723 12.9069C16.2023 13.8769 14.4423 14.3869 12.6023 14.3869ZM12.6023 18.1169C10.1323 18.1169 7.7223 17.4269 5.6723 16.1569C5.0523 15.7769 4.8623 14.9969 5.2423 14.3769C5.6023 13.7469 6.4123 13.5869 7.1223 13.9969C8.7423 15.0069 10.6323 15.5369 12.6023 15.5369C14.5623 15.5369 16.4523 15.0069 18.0723 13.9969C18.7823 13.5869 19.5823 13.7469 19.9523 14.3769C20.3423 14.9969 20.1423 15.7869 19.5223 16.1569C17.4623 17.4269 15.0623 18.1169 12.6023 18.1169Z" />
        </svg>
    