
        <svg xmlns="http://www.w3.org/2000/svg" viewBox="0 0 100 100">
            <path d="M15.3325 13.0886C15.3325 8.4386 13.9125 4.0086 11.2525 0.2186C10.9025 -0.2814 10.1525 0.1586 10.5225 0.6986C13.0625 4.3386 14.4125 8.5786 14.4125 13.0886C14.4125 17.5886 13.0525 21.8286 10.5225 25.4786C10.1725 25.9786 10.8725 26.4686 11.2525 25.9386C13.9025 22.1686 15.3325 17.7286 15.3325 13.0886ZM9.2225 13.0886C9.2225 9.6086 8.1225 6.2986 6.1025 3.5686C5.7025 3.0286 4.9925 3.5486 5.3625 4.0486C7.2925 6.6686 8.3125 9.7986 8.3125 13.0886C8.3125 16.3886 7.2925 19.4986 5.3625 22.1086C4.9925 22.6186 5.7025 23.1286 6.1025 22.5886C8.1225 19.8586 9.2225 16.5586 9.2225 13.0886ZM3.1125 13.0886C3.1125 10.7686 2.3225 8.6386 0.8425 6.9786C0.3525 6.4086 -0.2475 7.0386 0.1025 7.4586C1.5025 9.0586 2.2125 10.9286 2.2125 13.0886C2.2125 15.2486 1.5025 17.1286 0.1125 18.7086C-0.2175 19.1186 0.4025 19.6986 0.8425 19.1786C2.3225 17.5386 3.1125 15.3986 3.1125 13.0886Z" />
        </svg>
    