
        <svg xmlns="http://www.w3.org/2000/svg" viewBox="0 0 100 100">
            <path d="M12.3723 24.7459C19.2023 24.7459 24.7523 19.2059 24.7523 12.3759C24.7523 5.5459 19.2023 -0.0041 12.3723 -0.0041C5.5423 -0.0041 0.0023 5.5459 0.0023 12.3759C0.0023 19.2059 5.5423 24.7459 12.3723 24.7459ZM12.3723 21.6659C7.2423 21.6659 3.0823 17.5059 3.0823 12.3759C3.0823 7.2259 7.2423 3.0859 12.3723 3.0859C17.5223 3.0859 21.6723 7.2259 21.6723 12.3759C21.6723 17.5059 17.5223 21.6659 12.3723 21.6659ZM7.4323 12.3859C7.4323 14.8359 8.1223 17.2159 9.4023 19.1859C9.7423 19.6959 10.3723 19.8559 10.8723 19.5359C11.3923 19.2059 11.5123 18.5459 11.1523 17.9859C10.1123 16.3859 9.5423 14.4159 9.5423 12.3859C9.5423 10.3459 10.1123 8.4059 11.1523 6.7959C11.5123 6.2259 11.3923 5.5659 10.8723 5.2459C10.3623 4.9259 9.7223 5.0759 9.4023 5.5859C8.1223 7.5659 7.4323 9.9459 7.4323 12.3859ZM10.9823 12.3859C10.9823 14.1959 11.4923 15.9359 12.4523 17.3459C12.7723 17.8359 13.3923 17.9759 13.9023 17.6559C14.4123 17.3459 14.5423 16.6859 14.1823 16.0859C13.4923 15.0559 13.1023 13.7459 13.1023 12.3859C13.1023 11.0259 13.4923 9.7259 14.1823 8.6959C14.5423 8.0959 14.4123 7.4259 13.9023 7.1159C13.3923 6.8059 12.7723 6.9359 12.4523 7.4459C11.4923 8.8259 10.9823 10.5659 10.9823 12.3859ZM14.5423 12.3859C14.5423 13.5459 14.8923 14.6859 15.5023 15.5159C15.8223 15.9759 16.4423 16.0859 16.9323 15.7959C17.4723 15.4459 17.5623 14.7959 17.1823 14.1659C16.8523 13.6859 16.6623 13.0559 16.6623 12.3859C16.6623 11.7159 16.8523 11.0759 17.1823 10.6059C17.5623 9.9859 17.4723 9.3259 16.9323 8.9759C16.4423 8.6859 15.8223 8.7959 15.5023 9.2559C14.8923 10.1159 14.5423 11.2659 14.5423 12.3859Z" />
        </svg>
    