
        <svg xmlns="http://www.w3.org/2000/svg" viewBox="0 0 100 100">
            <path d="M11.7523 23.5031C18.2323 23.5031 23.5123 18.2331 23.5123 11.7531C23.5123 5.2731 18.2323 0.0031 11.7523 0.0031C5.2723 0.0031 0.0023 5.2731 0.0023 11.7531C0.0023 18.2331 5.2723 23.5031 11.7523 23.5031ZM11.7423 9.0231C10.4923 9.0231 9.2323 8.6531 8.3823 7.9931C8.0823 7.7831 8.0023 7.3731 8.2123 7.0931C8.4523 6.7631 8.8523 6.7131 9.1923 6.9531C9.8523 7.4431 10.7923 7.7331 11.7423 7.7331C12.7123 7.7331 13.6523 7.4431 14.2923 6.9531C14.6323 6.7031 15.0423 6.7531 15.2823 7.0931C15.4823 7.3731 15.4123 7.7731 15.1123 7.9931C14.2123 8.6531 12.9723 9.0231 11.7423 9.0231ZM11.7423 12.8331C9.6823 12.8331 7.7423 12.2331 6.2623 11.1331C5.9523 10.9031 5.8723 10.5231 6.0923 10.2331C6.2823 9.9331 6.6923 9.8531 7.0223 10.0931C8.2723 11.0131 9.9523 11.5431 11.7423 11.5431C13.5323 11.5431 15.2223 11.0131 16.4723 10.0931C16.7923 9.8531 17.2023 9.9331 17.4023 10.2331C17.6123 10.5231 17.5423 10.9031 17.2423 11.1331C15.7623 12.2331 13.8323 12.8331 11.7423 12.8331ZM11.7423 16.6431C8.9623 16.6431 6.2923 15.8231 4.1223 14.2931C3.8123 14.0731 3.7223 13.6831 3.9423 13.3831C4.1623 13.0731 4.5423 13.0331 4.8623 13.2531C6.7223 14.6031 9.1623 15.3631 11.7423 15.3631C14.3323 15.3631 16.7723 14.6131 18.6223 13.2531C18.9423 13.0331 19.3223 13.0731 19.5423 13.3831C19.7723 13.6831 19.6923 14.0831 19.3623 14.2931C17.1823 15.8231 14.5123 16.6431 11.7423 16.6431Z" />
        </svg>
    