
        <svg xmlns="http://www.w3.org/2000/svg" viewBox="0 0 100 100">
            <path d="M0.0023 16.0884C0.0023 21.6584 1.7823 26.8784 5.0423 31.0584C7.0523 33.6184 10.5623 30.9984 8.6623 28.6884C5.7623 25.1584 4.3023 20.8684 4.3023 16.0884C4.3023 11.3084 5.7623 7.0184 8.7323 3.4084C10.6623 1.0584 7.0523 -1.4416 5.1423 1.0084C1.7823 5.2984 0.0023 10.5184 0.0023 16.0884ZM7.3923 16.0884C7.3923 20.2284 8.7323 24.1384 11.1523 27.2584C13.2423 29.9184 16.7323 27.2084 14.8023 24.8784C12.7723 22.4884 11.6923 19.4484 11.6923 16.0884C11.6923 12.7384 12.7723 9.6984 14.8023 7.2884C16.7323 4.9784 13.2423 2.2484 11.1523 4.9284C8.7323 8.0384 7.3923 11.9484 7.3923 16.0884ZM14.7923 16.0884C14.7923 18.6684 15.6723 21.1784 17.2623 23.2884C19.0623 25.6384 22.5623 23.3784 20.8523 20.9484C19.5123 19.0684 19.0923 17.6984 19.0923 16.0884C19.0923 14.4884 19.5123 13.1284 20.8523 11.2284C22.5623 8.7984 19.0623 6.5384 17.2623 8.8984C15.6723 10.9984 14.7923 13.5084 14.7923 16.0884Z" />
        </svg>
    