
        <svg xmlns="http://www.w3.org/2000/svg" viewBox="0 0 100 100">
            <path d="M5.4617 24.163H13.9017C14.4817 24.163 14.9917 23.673 14.9917 23.073C14.9917 22.473 14.4817 21.983 13.9017 21.983H10.7717V19.303C15.6017 18.763 19.3517 14.663 19.3517 9.683C19.3517 4.323 15.0217 0.003 9.6817 0.003C4.3217 0.003 0.0017 4.323 0.0017 9.683C0.0017 14.663 3.7517 18.763 8.5917 19.303V21.983H5.4617C4.8717 21.983 4.3817 22.473 4.3817 23.073C4.3817 23.673 4.8617 24.163 5.4617 24.163ZM9.6817 15.373C6.5017 15.373 3.9917 12.853 3.9917 9.683C3.9917 6.503 6.5017 3.993 9.6817 3.993C12.8517 3.993 15.3517 6.503 15.3517 9.683C15.3517 12.853 12.8517 15.373 9.6817 15.373ZM9.6817 12.203C11.0817 12.203 12.1917 11.083 12.1917 9.683C12.1917 8.273 11.0817 7.163 9.6817 7.163C8.2717 7.163 7.1617 8.273 7.1617 9.683C7.1617 11.083 8.2717 12.203 9.6817 12.203Z" />
        </svg>
    