
        <svg xmlns="http://www.w3.org/2000/svg" viewBox="0 0 100 100">
            <path d="M7.6517 23.3094C11.8817 23.3094 15.3017 19.8794 15.3017 15.6594C15.3017 15.5394 15.3017 15.4294 15.2917 15.3194H18.1317L19.2317 18.1394C18.6417 18.6794 18.2717 19.4694 18.2717 20.3294C18.2717 21.9694 19.6217 23.3094 21.2417 23.3094C22.6317 23.3094 23.7917 22.3694 24.1217 21.0794H25.8317C26.2117 21.0794 26.5217 20.7794 26.5217 20.3794C26.5217 19.9894 26.2117 19.6894 25.8317 19.6894H24.1517C23.8517 18.3494 22.6617 17.3594 21.2417 17.3594C20.9617 17.3594 20.6917 17.3894 20.4517 17.4594L19.5917 15.3094C20.9917 15.1394 22.0117 13.9794 22.0117 12.5694C22.0117 11.0294 20.8117 9.7994 19.2517 9.7994H12.5817C11.6117 8.9894 10.4417 8.3994 9.1517 8.1594L8.5617 5.2394H17.3017C17.6617 5.2394 17.9517 4.9294 17.9517 4.5794C17.9517 4.2094 17.6617 3.9094 17.3017 3.9094H8.3017L7.6617 0.7494C7.5617 0.2494 7.3617 -0.0006 6.8217 -0.0006H3.1417C2.7517 -0.0006 2.4417 0.3094 2.4417 0.6894C2.4417 1.0894 2.7517 1.3994 3.1417 1.3994H6.1717C6.2817 1.3994 6.3317 1.4194 6.3417 1.4994L7.6917 7.9994C7.6717 7.9994 7.6617 7.9994 7.6517 7.9994C3.4217 7.9994 0.0017 11.4294 0.0017 15.6594C0.0017 19.8794 3.4217 23.3094 7.6517 23.3094ZM7.6417 21.9494C4.1217 21.9494 1.3617 19.1694 1.3617 15.6494C1.3617 12.1394 4.1217 9.3494 7.6417 9.3494C11.1717 9.3494 13.9417 12.1394 13.9417 15.6494C13.9417 19.1694 11.1717 21.9494 7.6417 21.9494ZM19.0817 11.1194C19.9417 11.1194 20.5217 11.7194 20.5217 12.5594C20.5217 13.4094 19.9417 13.9994 19.0817 13.9994H15.1317C14.8917 12.9394 14.4417 11.9694 13.8117 11.1194ZM7.6517 17.4694C8.6517 17.4694 9.4817 16.6494 9.4817 15.6594C9.4817 14.6294 8.6617 13.8194 7.6517 13.8194C6.6417 13.8194 5.8317 14.6294 5.8317 15.6594C5.8317 16.6494 6.6417 17.4694 7.6517 17.4694ZM21.2417 22.0094C20.2717 22.0094 19.5717 21.2894 19.5717 20.3294C19.5717 19.3594 20.2717 18.6594 21.2417 18.6594C22.2217 18.6594 22.9117 19.3594 22.9117 20.3294C22.9117 21.2894 22.2217 22.0094 21.2417 22.0094Z" />
        </svg>
    