
        <svg xmlns="http://www.w3.org/2000/svg" viewBox="0 0 100 100">
            <path d="M6.2417 22.1H29.4417C31.4417 22.1 33.1317 21.91 34.3217 20.72C35.5217 19.52 35.6917 17.86 35.6917 15.86V6.25C35.6917 4.24 35.5217 2.58 34.3217 1.38C33.1317 0.19 31.4417 0 29.4417 0H6.2417C4.2517 0 2.5617 0.19 1.3717 1.38C0.1717 2.57 0.0017 4.24 0.0017 6.25V15.86C0.0017 17.86 0.1717 19.52 1.3717 20.72C2.5617 21.91 4.2517 22.1 6.2417 22.1ZM5.9317 20.21C4.7217 20.21 3.4617 20.05 2.7417 19.35C2.0417 18.63 1.8917 17.38 1.8917 16.17V5.92C1.8917 4.71 2.0417 3.47 2.7417 2.75C3.4617 2.05 4.7217 1.89 5.9317 1.89H29.7617C30.9717 1.89 32.2417 2.04 32.9417 2.75C33.6517 3.47 33.8117 4.71 33.8117 5.92V16.17C33.8117 17.38 33.6517 18.63 32.9417 19.35C32.2417 20.05 30.9717 20.21 29.7617 20.21ZM5.7217 9H8.2617C9.2717 9 9.9717 8.31 9.9717 7.29V5.5C9.9717 4.48 9.2717 3.77 8.2617 3.77H5.7217C4.7017 3.77 3.9917 4.48 3.9917 5.5V7.29C3.9917 8.31 4.7017 9 5.7217 9ZM4.9917 18.07H30.7017C31.1117 18.07 31.4317 17.75 31.4317 17.34C31.4317 16.95 31.1117 16.62 30.7017 16.62H4.9917C4.5917 16.62 4.2517 16.95 4.2517 17.34C4.2517 17.75 4.5917 18.07 4.9917 18.07Z" />
        </svg>
    