
        <svg xmlns="http://www.w3.org/2000/svg" viewBox="0 0 100 100">
            <path d="M12.6023 25.1986C19.5623 25.1986 25.2023 19.5586 25.2023 12.5986C25.2023 5.6386 19.5623 -0.0014 12.6023 -0.0014C5.6323 -0.0014 0.0023 5.6386 0.0023 12.5986C0.0023 19.5586 5.6323 25.1986 12.6023 25.1986ZM12.6023 21.5386C7.6523 21.5386 3.6523 17.5386 3.6523 12.5986C3.6523 7.6486 7.6523 3.6586 12.6023 3.6586C17.5423 3.6586 21.5423 7.6486 21.5423 12.5986C21.5423 17.5386 17.5423 21.5386 12.6023 21.5386ZM12.6023 14.3886C13.2923 14.3886 13.6523 13.9886 13.6723 13.2686C13.7123 11.9986 13.8023 9.2186 13.8123 8.1786C13.8123 7.4986 13.3523 6.9586 12.6023 6.9586C11.8523 6.9586 11.3623 7.4986 11.3623 8.1786C11.3823 9.2186 11.4823 11.9986 11.5123 13.2686C11.5323 13.9886 11.8923 14.3886 12.6023 14.3886ZM5.5923 10.5086C5.4423 10.6986 5.4523 10.9586 5.6223 11.1286L6.4523 11.9986C6.6523 12.2086 6.9723 12.2086 7.1823 11.9786C8.1223 11.0086 9.2323 10.3286 10.4623 9.9886C10.4523 9.2686 10.4323 8.6286 10.4323 8.2686C10.4323 8.0486 10.4623 7.8286 10.5323 7.6286C8.5423 8.0786 6.7123 9.1086 5.5923 10.5086ZM19.5923 10.5086C18.4723 9.1086 16.6423 8.0586 14.6523 7.6286C14.7223 7.8286 14.7523 8.0486 14.7523 8.2686C14.7523 8.6286 14.7223 9.2686 14.7023 9.9886C15.9723 10.3286 17.1023 11.0086 18.0223 11.9986C18.2123 12.1886 18.5123 12.1886 18.7223 11.9886L19.5723 11.1286C19.7323 10.9586 19.7423 10.6986 19.5923 10.5086ZM7.9723 12.8986C7.8123 13.0886 7.8323 13.3386 8.0123 13.4986L8.9523 14.3986C9.1723 14.5986 9.4723 14.5886 9.6823 14.3786C9.9623 14.0886 10.3123 13.8286 10.6723 13.6386C10.6023 13.4386 10.5723 13.1986 10.5723 12.9386C10.5423 12.5386 10.5323 11.9386 10.5123 11.2886C9.4923 11.6086 8.5823 12.1786 7.9723 12.8986ZM17.2123 12.8986C16.6023 12.1786 15.6923 11.6086 14.6623 11.2886C14.6523 11.9286 14.6223 12.5286 14.6123 12.9386C14.6123 13.1786 14.5823 13.4286 14.5223 13.6386C14.8923 13.8286 15.2423 14.0886 15.5323 14.3886C15.7223 14.5986 16.0223 14.5986 16.2323 14.3986L17.1823 13.4986C17.3623 13.3386 17.3823 13.0786 17.2123 12.8986ZM12.6023 17.8286C13.3523 17.8286 13.9523 17.2486 13.9523 16.5186C13.9523 15.7986 13.3523 15.2186 12.6023 15.2186C11.8323 15.2186 11.2123 15.7986 11.2123 16.5186C11.2123 17.2486 11.8323 17.8286 12.6023 17.8286Z" />
        </svg>
    