
        <svg xmlns="http://www.w3.org/2000/svg" viewBox="0 0 100 100">
            <path d="M3.6817 21.5722H17.8917C20.3517 21.5722 21.5717 20.3722 21.5717 17.9522V3.6322C21.5717 1.2222 20.3517 0.0022 17.8917 0.0022H3.6817C1.2317 0.0022 0.0017 1.2222 0.0017 3.6322V17.9522C0.0017 20.3722 1.2317 21.5722 3.6817 21.5722ZM3.7017 19.6922C2.5317 19.6922 1.8917 19.0622 1.8917 17.8522V3.7422C1.8917 2.5222 2.5317 1.8822 3.7017 1.8822H17.8717C19.0317 1.8822 19.6917 2.5222 19.6917 3.7422V17.8522C19.6917 19.0622 19.0317 19.6922 17.8717 19.6922ZM4.2917 10.0222C4.4417 10.1922 4.7117 10.1822 4.8917 9.9922C6.4117 8.3522 8.4717 7.4722 10.7917 7.4722C13.1217 7.4722 15.2017 8.3522 16.7317 10.0122C16.9017 10.1722 17.1517 10.1822 17.3117 10.0122L18.1717 9.1022C18.3117 8.9622 18.3317 8.7622 18.2117 8.6022C16.6317 6.6522 13.6917 5.3422 10.7917 5.3422C7.9117 5.3422 4.9717 6.6522 3.3917 8.6022C3.2617 8.7622 3.2817 8.9622 3.4117 9.1022ZM6.9617 12.6922C7.1417 12.8822 7.3717 12.8622 7.5717 12.6722C8.3517 11.7922 9.6017 11.2222 10.7917 11.2422C11.9917 11.2222 13.2317 11.7922 14.0517 12.6822C14.2217 12.8822 14.4617 12.8822 14.6217 12.6922L15.6217 11.7022C15.7617 11.5622 15.7817 11.3522 15.6417 11.2022C14.5817 9.9122 12.7117 9.0922 10.7917 9.0922C8.8817 9.0922 7.0217 9.9122 5.9517 11.2022C5.8117 11.3622 5.8217 11.5522 5.9917 11.7022ZM10.7917 16.2322C10.9717 16.2322 11.0817 16.1622 11.3817 15.9022L12.9517 14.3922C13.0817 14.2522 13.1017 14.0522 12.9817 13.9022C12.5117 13.2622 11.6517 12.8422 10.7917 12.8422C9.9217 12.8422 9.0817 13.2822 8.5917 13.9522C8.4817 14.0822 8.5217 14.2522 8.6617 14.3922L10.2217 15.9022C10.5017 16.1522 10.6217 16.2322 10.7917 16.2322Z" />
        </svg>
    