
        <svg xmlns="http://www.w3.org/2000/svg" viewBox="0 0 100 100">
            <path d="M11.4923 22.9836C17.8123 22.9836 22.9823 17.8136 22.9823 11.4836C22.9823 5.1536 17.8123 0.0036 11.4923 0.0036C5.1723 0.0036 0.0023 5.1536 0.0023 11.4836C0.0023 17.8136 5.1723 22.9836 11.4923 22.9836ZM4.5623 10.4436L3.7223 9.5836C3.6323 9.4836 3.6123 9.3436 3.7123 9.2236C5.3323 7.2336 8.4423 5.8636 11.4823 5.8636C14.5323 5.8636 17.6223 7.2436 19.2523 9.2236C19.3623 9.3436 19.3523 9.4836 19.2423 9.5836L18.4123 10.4336C18.2923 10.5736 18.1123 10.5536 18.0023 10.4136C16.3623 8.6236 14.0423 7.6836 11.4823 7.6836C8.9323 7.6836 6.6423 8.6636 4.9723 10.4136C4.8523 10.5536 4.6723 10.5736 4.5623 10.4436ZM7.4523 13.3436L6.4923 12.3836C6.4023 12.2836 6.3823 12.1436 6.4823 12.0336C7.5123 10.7736 9.4823 9.9036 11.4823 9.9036C13.4923 9.9036 15.4523 10.7536 16.4923 12.0336C16.5923 12.1436 16.5823 12.2836 16.4723 12.3836L15.5123 13.3436C15.4023 13.4636 15.2323 13.4536 15.1023 13.3136C14.2223 12.3636 12.8323 11.7436 11.4823 11.7536C10.1323 11.7436 8.7423 12.3636 7.8723 13.3136C7.7323 13.4536 7.5723 13.4636 7.4523 13.3436ZM11.4823 17.1436C11.3623 17.1436 11.2623 17.0836 11.0123 16.8536L9.3723 15.2736C9.2823 15.1736 9.2723 15.0836 9.3523 14.9636C9.7523 14.4136 10.6123 13.9736 11.4823 13.9736C12.3523 13.9736 13.2223 14.4136 13.6123 14.9536C13.7023 15.0836 13.6723 15.1736 13.5923 15.2736L11.9523 16.8536C11.7023 17.0836 11.6023 17.1436 11.4823 17.1436Z" />
        </svg>
    