
        <svg xmlns="http://www.w3.org/2000/svg" viewBox="0 0 100 100">
            <path d="M17.1917 -0.0041C14.5517 -0.0041 11.9917 0.7659 9.9417 2.1659C9.4917 2.4859 9.3717 3.0359 9.6517 3.4559C9.9517 3.8859 10.5117 3.9759 10.9817 3.6659C12.7117 2.4859 14.9317 1.8159 17.1917 1.8159C19.4717 1.8159 21.6717 2.4759 23.4017 3.6659C23.8717 3.9759 24.4317 3.8859 24.7217 3.4559C25.0217 3.0259 24.8917 2.4759 24.4417 2.1659C22.3717 0.7659 19.8117 -0.0041 17.1917 -0.0041ZM17.1917 3.6759C15.2617 3.6759 13.3917 4.2459 11.9317 5.2759C11.4917 5.5759 11.3917 6.1059 11.6817 6.5359C11.9517 6.9759 12.5317 7.0659 13.0217 6.7459C14.1317 5.9659 15.6317 5.5159 17.1917 5.5159C18.7417 5.5159 20.2417 5.9659 21.3617 6.7459C21.8517 7.0659 22.4217 6.9759 22.7017 6.5359C22.9917 6.1059 22.8717 5.5759 22.4417 5.2759C21.0117 4.2459 19.1517 3.6759 17.1917 3.6759ZM17.1917 7.3759C15.9717 7.3759 14.7617 7.7359 13.9217 8.3659C13.5117 8.6459 13.4017 9.1959 13.6717 9.6259C13.9917 10.0759 14.5517 10.1559 15.0717 9.8159C15.6117 9.4359 16.3917 9.2059 17.1917 9.2059C18.0017 9.2059 18.7817 9.4359 19.3117 9.8159C19.8117 10.1759 20.3917 10.0859 20.7117 9.6259C20.9617 9.1959 20.8617 8.6559 20.4617 8.3659C19.5817 7.7359 18.3717 7.3759 17.1917 7.3759ZM3.4917 23.2359H30.8917C33.0517 23.2359 34.3817 21.9259 34.3817 19.7959V15.7959C34.3817 13.6659 33.0517 12.3559 30.8917 12.3559H3.4917C1.3317 12.3559 0.0017 13.6659 0.0017 15.7959V19.7959C0.0017 21.9259 1.3317 23.2359 3.4917 23.2359ZM14.9917 19.4459C14.0717 19.4459 13.3217 18.6959 13.3217 17.7759C13.3217 16.8859 14.0717 16.1359 14.9917 16.1359C15.8917 16.1359 16.6417 16.8859 16.6417 17.7759C16.6417 18.6959 15.8917 19.4459 14.9917 19.4459ZM19.6417 19.4459C18.7217 19.4459 17.9717 18.6959 17.9717 17.7759C17.9717 16.8859 18.7217 16.1359 19.6417 16.1359C20.5417 16.1359 21.2917 16.8859 21.2917 17.7759C21.2917 18.6959 20.5417 19.4459 19.6417 19.4459ZM24.2817 19.4459C23.3817 19.4459 22.6217 18.6959 22.6217 17.7759C22.6217 16.8859 23.3817 16.1359 24.2817 16.1359C25.1817 16.1359 25.9317 16.8859 25.9317 17.7759C25.9317 18.6959 25.1817 19.4459 24.2817 19.4459ZM28.9317 19.4459C28.0217 19.4459 27.2717 18.6959 27.2717 17.7759C27.2717 16.8859 28.0217 16.1359 28.9317 16.1359C29.8317 16.1359 30.5817 16.8859 30.5817 17.7759C30.5817 18.6959 29.8317 19.4459 28.9317 19.4459ZM4.8517 18.2859C4.2817 18.2859 3.8517 17.8559 3.8517 17.2859C3.8517 16.6959 4.2817 16.2759 4.8517 16.2759H8.8217C9.4017 16.2759 9.8217 16.6959 9.8217 17.2859C9.8217 17.8559 9.4017 18.2859 8.8217 18.2859Z" />
        </svg>
    