
        <svg xmlns="http://www.w3.org/2000/svg" viewBox="0 0 100 100">
            <path d="M11.3523 22.7147C17.6023 22.7147 22.7123 17.6047 22.7123 11.3547C22.7123 5.1047 17.6023 0.0047 11.3523 0.0047C5.1123 0.0047 0.0023 5.1047 0.0023 11.3547C0.0023 17.6047 5.1123 22.7147 11.3523 22.7147ZM4.3623 10.2347L3.5523 9.4147C3.4523 9.3047 3.4423 9.1847 3.5423 9.0847C5.1423 7.0947 8.2723 5.7147 11.3423 5.7147C14.4123 5.7147 17.5323 7.1147 19.1623 9.0847C19.2423 9.1847 19.2423 9.3047 19.1523 9.4147L18.3423 10.2347C18.2323 10.3447 18.0823 10.3347 17.9723 10.2147C16.3223 8.3947 13.9523 7.4447 11.3423 7.4447C8.7423 7.4447 6.4223 8.4347 4.7123 10.2147C4.6023 10.3347 4.4623 10.3447 4.3623 10.2347ZM7.2923 13.1847L6.3523 12.2347C6.2623 12.1547 6.2623 12.0347 6.3423 11.9447C7.3523 10.6847 9.3323 9.8247 11.3423 9.8247C13.3723 9.8247 15.3423 10.6747 16.3623 11.9447C16.4423 12.0347 16.4323 12.1547 16.3523 12.2347L15.4023 13.1847C15.2923 13.2747 15.1623 13.2647 15.0423 13.1447C14.1723 12.1847 12.7223 11.5447 11.3423 11.5647C9.9723 11.5447 8.5323 12.1847 7.6423 13.1447C7.5223 13.2647 7.3923 13.2747 7.2923 13.1847ZM11.3423 17.0247C11.2423 17.0247 11.1523 16.9647 10.9123 16.7447L9.2723 15.1547C9.1723 15.0847 9.1723 15.0147 9.2623 14.8947C9.6323 14.3947 10.4723 13.9347 11.3423 13.9347C12.2123 13.9347 13.0623 14.3947 13.4423 14.8947C13.5123 15.0147 13.5023 15.0847 13.4223 15.1547L11.7823 16.7447C11.5423 16.9647 11.4523 17.0247 11.3423 17.0247Z" />
        </svg>
    