
        <svg xmlns="http://www.w3.org/2000/svg" viewBox="0 0 100 100">
            <path d="M23.5414 20.8407C23.7114 21.0107 23.9914 21.0107 24.1514 20.8407C24.3314 20.6507 24.3314 20.4007 24.1514 20.2207L4.0614 0.1207C3.8914 -0.0293 3.6214 -0.0493 3.4314 0.1207C3.2714 0.2907 3.2714 0.5707 3.4314 0.7307ZM11.1314 5.7907C11.8014 5.6907 12.4914 5.6407 13.2014 5.6407C17.5314 5.6507 21.4014 7.2607 24.2114 10.2807C24.4014 10.4807 24.6514 10.4707 24.8314 10.2807L26.2514 8.8607C26.4114 8.6907 26.4114 8.4807 26.2614 8.2907C23.5314 4.9907 18.3614 2.6207 13.1814 2.6207C11.6514 2.6207 10.0914 2.8407 8.5814 3.2407ZM5.5714 4.2907C3.3514 5.2807 1.4314 6.6707 0.1114 8.2907C-0.0486 8.4807 -0.0286 8.6907 0.1314 8.8607L1.5514 10.2807C1.7314 10.4707 1.9814 10.4707 2.1714 10.2707C3.7714 8.5807 5.7014 7.3307 7.8514 6.5607ZM20.2414 14.9107L21.5714 13.5907C21.7414 13.4207 21.7514 13.2107 21.6114 13.0407C20.2014 11.2907 17.6814 9.9907 14.9514 9.6107ZM10.9714 9.6807C8.4014 10.1407 6.1214 11.4007 4.7614 13.0407C4.6214 13.2107 4.6414 13.4207 4.7914 13.5907L6.4214 15.1907C6.6114 15.3707 6.8414 15.3707 7.0414 15.1507C8.6814 13.3807 11.3114 12.3207 13.8214 12.5307ZM13.1814 16.3107C11.7014 16.3107 10.2714 17.0907 9.6114 17.9607C9.4814 18.1607 9.5014 18.3107 9.6614 18.4407L12.4214 21.1107C12.8314 21.5107 13.0114 21.6007 13.1814 21.6007C13.3714 21.6007 13.5514 21.5007 13.9614 21.1107L16.7214 18.4407C16.8814 18.3107 16.9014 18.1507 16.7614 17.9507C16.1014 17.0807 14.6714 16.3107 13.1814 16.3107Z" />
        </svg>
    