
        <svg xmlns="http://www.w3.org/2000/svg" viewBox="0 0 100 100">
            <path d="M4.3817 22.8467H18.4717C21.2617 22.8467 22.8517 21.2667 22.8517 18.4767V4.3667C22.8517 1.5867 21.2617 -0.0033 18.4717 -0.0033H4.3817C1.5917 -0.0033 0.0017 1.5867 0.0017 4.3667V18.4767C0.0017 21.2667 1.5917 22.8467 4.3817 22.8467ZM4.8717 19.2267C4.0417 19.2267 3.6217 18.8567 3.6217 17.9767V4.8867C3.6217 4.0067 4.0417 3.6367 4.8717 3.6367H17.9717C18.8017 3.6367 19.2217 4.0067 19.2217 4.8867V17.9767C19.2217 18.8567 18.8017 19.2267 17.9717 19.2267ZM5.4917 10.8367C5.6817 11.0467 6.0017 11.0367 6.2017 10.8267C7.5917 9.3667 9.3917 8.5867 11.4217 8.5867C13.4717 8.5867 15.2917 9.3767 16.6617 10.8367C16.8517 11.0267 17.1517 11.0267 17.3417 10.8367L18.1617 10.0067C18.3317 9.8367 18.3417 9.5867 18.1917 9.4067C16.7217 7.5867 14.0617 6.3967 11.4217 6.3967C8.7917 6.3967 6.1217 7.5867 4.6517 9.4067C4.5117 9.5867 4.5217 9.8367 4.6917 10.0067ZM7.9117 13.1567C8.1217 13.3567 8.4017 13.3467 8.6117 13.1467C9.3317 12.3967 10.3917 11.9267 11.4217 11.9267C12.4617 11.9267 13.5217 12.3967 14.2617 13.1467C14.4517 13.3567 14.7417 13.3567 14.9417 13.1567L15.8517 12.2967C16.0317 12.1267 16.0417 11.8867 15.8917 11.7167C14.9217 10.5567 13.1817 9.8367 11.4217 9.8367C9.6517 9.8367 7.9317 10.5567 6.9517 11.7167C6.8017 11.8967 6.8217 12.1267 6.9917 12.2967ZM11.4217 16.4567C11.6117 16.4567 11.7817 16.3567 12.0517 16.1167L13.4617 14.7567C13.6317 14.5667 13.6517 14.3067 13.5017 14.1367C13.0117 13.5067 12.2217 13.1367 11.4217 13.1367C10.6017 13.1367 9.7817 13.5467 9.3017 14.1867C9.1717 14.3567 9.2217 14.5867 9.4017 14.7567L10.8017 16.1167C11.0717 16.3467 11.2217 16.4567 11.4217 16.4567Z" />
        </svg>
    