
        <svg xmlns="http://www.w3.org/2000/svg" viewBox="0 0 100 100">
            <path d="M3.8417 21.8745H18.0317C20.5617 21.8745 21.8817 20.5745 21.8817 18.0745V3.8045C21.8817 1.3145 20.5617 0.0045 18.0317 0.0045H3.8417C1.3117 0.0045 0.0017 1.3045 0.0017 3.8045V18.0745C0.0017 20.5745 1.3117 21.8745 3.8417 21.8745ZM4.3117 10.1845L3.4117 9.2545C3.2617 9.0945 3.2317 8.8845 3.3717 8.6945C5.0017 6.6945 8.0017 5.3545 10.9717 5.3545C13.9417 5.3545 16.9417 6.6945 18.5717 8.6945C18.7117 8.8845 18.6917 9.0945 18.5417 9.2545L17.6417 10.1745C17.4517 10.3545 17.1917 10.3745 17.0017 10.1845C15.4417 8.4945 13.3317 7.6045 10.9717 7.6045C8.6117 7.6045 6.5317 8.5045 4.9717 10.1745C4.7717 10.3845 4.4717 10.3845 4.3117 10.1845ZM7.0417 12.9045L6.0317 11.8945C5.8717 11.7345 5.8517 11.5145 5.9917 11.3445C7.0917 10.0345 9.0117 9.1845 10.9717 9.1845C12.9417 9.1845 14.8617 10.0345 15.9617 11.3445C16.1017 11.5045 16.0917 11.7345 15.9217 11.8945L14.9017 12.9045C14.7117 13.0945 14.4617 13.1045 14.2617 12.8945C13.4417 11.9845 12.1717 11.4245 10.9717 11.4345C9.7617 11.4245 8.5117 11.9845 7.7117 12.8745C7.5017 13.1045 7.2417 13.0945 7.0417 12.9045ZM10.9717 16.5345C10.7817 16.5345 10.6317 16.4645 10.3617 16.1845L8.7517 14.6345C8.6117 14.4945 8.5817 14.3045 8.6817 14.1545C9.1917 13.4545 10.0817 13.0045 10.9717 13.0045C11.8617 13.0045 12.7517 13.4445 13.2417 14.0945C13.3717 14.2645 13.3517 14.4945 13.2117 14.6345L11.6017 16.1845C11.3217 16.4645 11.1717 16.5345 10.9717 16.5345Z" />
        </svg>
    