
        <svg xmlns="http://www.w3.org/2000/svg" viewBox="0 0 100 100">
            <path d="M18.0117 0.0028C15.4617 0.0028 12.9817 0.7228 10.9217 2.0528C10.3717 2.4128 10.2217 3.0828 10.5617 3.6228C10.8917 4.1728 11.5917 4.3028 12.2017 3.9228C13.8617 2.8428 15.9017 2.2528 18.0117 2.2528C20.1217 2.2528 22.1517 2.8328 23.8217 3.9228C24.4217 4.3028 25.1217 4.1728 25.4517 3.6228C25.8017 3.0828 25.6417 2.4028 25.0917 2.0528C23.0317 0.7228 20.5417 0.0028 18.0117 0.0028ZM18.0117 3.7128C16.1417 3.7128 14.3117 4.2528 12.8417 5.2528C12.3117 5.5928 12.1617 6.2428 12.5017 6.7828C12.8317 7.3328 13.5317 7.4628 14.1817 7.0828C15.2417 6.3628 16.5917 5.9728 18.0117 5.9728C19.4217 5.9728 20.7617 6.3628 21.8317 7.0828C22.4717 7.4628 23.1817 7.3328 23.5217 6.7828C23.8517 6.2428 23.6917 5.5928 23.1717 5.2528C21.7217 4.2528 19.9017 3.7128 18.0117 3.7128ZM18.0117 7.4428C16.8017 7.4428 15.6117 7.8028 14.7417 8.4528C14.2617 8.7728 14.1317 9.4328 14.4517 9.9628C14.8117 10.5328 15.5017 10.6328 16.1717 10.2328C16.6617 9.8928 17.3217 9.7028 18.0117 9.7028C18.7017 9.7028 19.3617 9.8928 19.8417 10.2328C20.5117 10.6328 21.2017 10.5428 21.5717 9.9628C21.8817 9.4328 21.7617 8.7928 21.2817 8.4528C20.3917 7.8028 19.1817 7.4428 18.0117 7.4428ZM3.8917 24.8328H32.1217C34.5517 24.8328 36.0117 23.3928 36.0117 20.9728V16.5228C36.0117 14.1228 34.5517 12.6728 32.1217 12.6728H3.8917C1.4617 12.6728 0.0017 14.1228 0.0017 16.5228V20.9728C0.0017 23.3928 1.4617 24.8328 3.8917 24.8328ZM15.5817 20.5528C14.5917 20.5528 13.7717 19.7328 13.7717 18.7428C13.7717 17.7628 14.5917 16.9428 15.5817 16.9428C16.5617 16.9428 17.3817 17.7628 17.3817 18.7428C17.3817 19.7328 16.5617 20.5528 15.5817 20.5528ZM20.3517 20.5528C19.3717 20.5528 18.5517 19.7328 18.5517 18.7428C18.5517 17.7628 19.3717 16.9428 20.3517 16.9428C21.3417 16.9428 22.1617 17.7628 22.1617 18.7428C22.1617 19.7328 21.3417 20.5528 20.3517 20.5528ZM25.1417 20.5528C24.1517 20.5528 23.3317 19.7328 23.3317 18.7428C23.3317 17.7628 24.1517 16.9428 25.1417 16.9428C26.1217 16.9428 26.9417 17.7628 26.9417 18.7428C26.9417 19.7328 26.1217 20.5528 25.1417 20.5528ZM29.9217 20.5528C28.9317 20.5528 28.1117 19.7328 28.1117 18.7428C28.1117 17.7628 28.9317 16.9428 29.9217 16.9428C30.9017 16.9428 31.7217 17.7628 31.7217 18.7428C31.7217 19.7328 30.9017 20.5528 29.9217 20.5528ZM5.5917 19.4628C4.8617 19.4628 4.3317 18.9528 4.3317 18.2328C4.3317 17.5028 4.8617 16.9728 5.5917 16.9728H9.3117C10.0317 16.9728 10.5617 17.5028 10.5617 18.2328C10.5617 18.9528 10.0317 19.4628 9.3117 19.4628Z" />
        </svg>
    