
        <svg xmlns="http://www.w3.org/2000/svg" viewBox="0 0 100 100">
            <path d="M18.0017 0.0028C15.4617 0.0028 12.9717 0.7228 10.9217 2.0528C10.3717 2.4128 10.2117 3.0828 10.5517 3.6228C10.8917 4.1728 11.5817 4.3028 12.1917 3.9228C13.8617 2.8428 15.9017 2.2528 18.0017 2.2528C20.1117 2.2528 22.1417 2.8328 23.8117 3.9228C24.4217 4.3028 25.1117 4.1728 25.4517 3.6228C25.7917 3.0828 25.6417 2.4028 25.0917 2.0528C23.0117 0.7228 20.5417 0.0028 18.0017 0.0028ZM18.0117 3.7128C16.1417 3.7128 14.3117 4.2528 12.8417 5.2528C12.3117 5.5928 12.1617 6.2428 12.5017 6.7828C12.8317 7.3328 13.5317 7.4628 14.1817 7.0828C15.2417 6.3628 16.5917 5.9728 18.0117 5.9728C19.4217 5.9728 20.7617 6.3628 21.8317 7.0828C22.4717 7.4628 23.1817 7.3328 23.5217 6.7828C23.8517 6.2428 23.6917 5.5928 23.1717 5.2528C21.7217 4.2528 19.9017 3.7128 18.0117 3.7128ZM18.0017 7.4428C16.8017 7.4428 15.6017 7.8028 14.7317 8.4528C14.2517 8.7728 14.1317 9.4328 14.4417 9.9628C14.8117 10.5328 15.5017 10.6328 16.1617 10.2328C16.6617 9.8928 17.3217 9.7028 18.0017 9.7028C18.6917 9.7028 19.3517 9.8928 19.8417 10.2328C20.4917 10.6328 21.2017 10.5428 21.5617 9.9628C21.8817 9.4328 21.7517 8.7928 21.2717 8.4528C20.3817 7.8028 19.1817 7.4428 18.0017 7.4428ZM3.8917 24.8328H32.1217C34.5517 24.8328 36.0117 23.3928 36.0117 20.9728V16.5228C36.0117 14.1228 34.5517 12.6728 32.1217 12.6728H3.8917C1.4617 12.6728 0.0017 14.1228 0.0017 16.5228V20.9728C0.0017 23.3928 1.4617 24.8328 3.8917 24.8328ZM4.0817 22.0228C3.4217 22.0228 3.0217 21.6328 3.0217 20.9928V16.5128C3.0217 15.8828 3.4217 15.4828 4.0817 15.4828H31.9317C32.5917 15.4828 32.9917 15.8828 32.9917 16.5128V20.9928C32.9917 21.6328 32.5917 22.0228 31.9317 22.0228ZM15.7117 20.4528C16.6417 20.4528 17.4117 19.6728 17.4117 18.7428C17.4117 17.8128 16.6417 17.0428 15.7117 17.0428C14.7817 17.0428 14.0017 17.8128 14.0017 18.7428C14.0017 19.6728 14.7817 20.4528 15.7117 20.4528ZM20.2517 20.4528C21.1617 20.4528 21.9417 19.6728 21.9417 18.7428C21.9417 17.8128 21.1617 17.0428 20.2517 17.0428C19.3117 17.0428 18.5417 17.8128 18.5417 18.7428C18.5417 19.6728 19.3117 20.4528 20.2517 20.4528ZM24.7717 20.4528C25.7017 20.4528 26.4717 19.6728 26.4717 18.7428C26.4717 17.8128 25.7017 17.0428 24.7717 17.0428C23.8317 17.0428 23.0617 17.8128 23.0617 18.7428C23.0617 19.6728 23.8317 20.4528 24.7717 20.4528ZM29.3117 20.4528C30.2217 20.4528 30.9917 19.6728 30.9917 18.7428C30.9917 17.8128 30.2217 17.0428 29.3117 17.0428C28.3717 17.0428 27.5817 17.8128 27.5817 18.7428C27.5817 19.6728 28.3717 20.4528 29.3117 20.4528ZM6.2217 19.4228H9.7517C10.4317 19.4228 10.9217 18.9228 10.9217 18.2428C10.9217 17.5828 10.4317 17.0728 9.7517 17.0728H6.2217C5.5517 17.0728 5.0517 17.5828 5.0517 18.2428C5.0517 18.9228 5.5517 19.4228 6.2217 19.4228Z" />
        </svg>
    