
        <svg xmlns="http://www.w3.org/2000/svg" viewBox="0 0 100 100">
            <path d="M3.6817 17.7867H11.1117L12.2817 19.7967C11.9217 20.2467 11.6917 20.8267 11.6917 21.4567C11.6917 22.9067 12.8817 24.0967 14.3317 24.0967C15.7717 24.0967 16.9817 22.8967 16.9817 21.4567C16.9817 19.9867 15.7817 18.8067 14.3317 18.8067C14.1917 18.8067 14.0517 18.8167 13.9117 18.8267L13.3017 17.7867H25.0317C27.4917 17.7867 28.7117 16.5667 28.7117 14.1567V5.3667C28.7117 2.9567 27.4917 1.7367 25.0317 1.7367H3.9617L3.2217 0.4667C2.9717 0.0367 2.4417 -0.1433 1.9117 0.1267C1.4317 0.3667 1.3217 0.9767 1.5917 1.4167L1.9317 2.0167C0.6417 2.4967 0.0017 3.6067 0.0017 5.3667V14.1567C0.0017 16.5667 1.2317 17.7867 3.6817 17.7867ZM24.9917 3.6167C26.1517 3.6167 26.8217 4.2567 26.8217 5.4767V14.0467C26.8217 15.2667 26.1517 15.8967 24.9917 15.8967H12.2117L5.0617 3.6167ZM3.7017 15.8967C2.5317 15.8967 1.8917 15.2667 1.8917 14.0467V5.4767C1.8917 4.5467 2.2517 3.9767 2.9417 3.7367L10.0117 15.8967ZM14.3317 22.5367C13.7317 22.5367 13.2417 22.0467 13.2417 21.4567C13.2417 20.8467 13.7317 20.3467 14.3317 20.3467C14.9317 20.3467 15.4317 20.8467 15.4317 21.4567C15.4317 22.0467 14.9317 22.5367 14.3317 22.5367Z" />
        </svg>
    