
        <svg xmlns="http://www.w3.org/2000/svg" viewBox="0 0 100 100">
            <path d="M29.2394 3.8015C29.7194 3.5015 29.8694 2.8815 29.4594 2.3715C28.5794 1.3015 27.4494 0.4915 26.2494 0.0815C25.5594 -0.1485 24.9794 0.1215 24.8494 0.7015C24.7494 1.2315 25.0594 1.6615 25.5794 1.8515C26.4894 2.1715 27.2994 2.7515 27.9494 3.5215C28.2994 3.9315 28.7894 4.0615 29.2394 3.8015ZM3.5594 3.8015C4.0094 4.0615 4.4994 3.9315 4.8494 3.5215C5.4794 2.7515 6.2894 2.1715 7.2194 1.8515C7.7294 1.6615 8.0494 1.2315 7.9294 0.7015C7.8094 0.1215 7.2394 -0.1485 6.5494 0.0815C5.3394 0.4915 4.1994 1.3015 3.3394 2.3715C2.9294 2.8815 3.0694 3.5015 3.5594 3.8015ZM15.0694 3.7715C15.5494 3.4815 15.6694 2.8715 15.2594 2.3615C14.3894 1.2915 13.2394 0.4915 12.0594 0.0915C11.3194 -0.1585 10.7794 0.1615 10.6694 0.7315C10.5794 1.2415 10.8794 1.6615 11.3894 1.8515C12.2994 2.1715 13.1094 2.7515 13.7294 3.5015C14.1194 3.9515 14.6094 4.0315 15.0694 3.7715ZM17.7294 3.7715C18.1894 4.0315 18.6794 3.9515 19.0494 3.5015C19.6894 2.7515 20.4894 2.1715 21.4094 1.8515C21.9094 1.6615 22.2194 1.2415 22.1194 0.7315C22.0194 0.1615 21.4694 -0.1585 20.7294 0.0915C19.5594 0.4915 18.4094 1.2915 17.5394 2.3615C17.1294 2.8715 17.2494 3.4815 17.7294 3.7715ZM16.3894 10.3115C16.9094 10.3115 17.3394 9.8815 17.3394 9.3615V6.3815C17.3394 5.8615 16.9094 5.4415 16.3894 5.4415C15.8794 5.4415 15.4494 5.8615 15.4494 6.3815V9.3615C15.4494 9.8815 15.8794 10.3115 16.3894 10.3115ZM16.3894 21.8315C18.6094 21.8315 21.1894 22.5015 23.1094 23.5115C23.6594 23.8015 24.2594 23.6815 24.6394 23.2015L32.2894 13.4415C33.0794 12.4615 32.9394 11.3815 31.9494 10.6115C29.1994 8.5015 24.2594 6.8015 18.8794 6.3815V8.3615C23.0494 8.7315 27.0394 10.0215 30.2594 12.0715C30.5394 12.2615 30.5794 12.4515 30.3694 12.7215L23.6894 21.2115C23.4894 21.4615 23.4094 21.4615 23.1694 21.3815C20.8594 20.4115 18.4694 19.8815 16.3894 19.8815C15.6394 19.8815 14.8294 19.9515 14.0094 20.0915L7.8994 9.5715C9.8194 8.9515 11.8494 8.5415 13.9194 8.3615V6.3815C11.3994 6.5715 8.9594 7.0615 6.8194 7.7215L5.7594 5.9115C5.5094 5.4715 4.9694 5.3015 4.4494 5.5715C3.9694 5.8115 3.8494 6.4115 4.1194 6.8615L4.9894 8.3615C3.3394 9.0115 1.9194 9.7715 0.8394 10.6215C-0.1406 11.3815 -0.2706 12.4615 0.4994 13.4415L8.1494 23.2015C8.5294 23.6815 9.1394 23.8015 9.6894 23.5115C10.6994 22.9815 11.8694 22.5515 13.0894 22.2515L14.3394 24.4215C13.9794 24.8715 13.7594 25.4515 13.7594 26.0815C13.7594 27.5315 14.9394 28.7115 16.3894 28.7115C17.8294 28.7115 19.0394 27.5215 19.0394 26.0815C19.0394 24.6215 17.8494 23.4315 16.3894 23.4315C16.2494 23.4315 16.1094 23.4415 15.9794 23.4615L15.0694 21.9015C15.5294 21.8615 15.9694 21.8315 16.3894 21.8315ZM9.0994 21.2115L2.4194 12.7215C2.2094 12.4515 2.2594 12.2615 2.5294 12.0715C3.6294 11.3715 4.8294 10.7615 6.0794 10.2415L12.0694 20.5215C11.2594 20.7515 10.4394 21.0415 9.6294 21.3815C9.3794 21.4615 9.2994 21.4615 9.0994 21.2115ZM16.3894 16.7615C16.9094 16.7615 17.3394 16.3415 17.3394 15.8215V12.8315C17.3394 12.3215 16.9094 11.8815 16.3894 11.8815C15.8794 11.8815 15.4494 12.3215 15.4494 12.8315V15.8215C15.4494 16.3415 15.8794 16.7615 16.3894 16.7615ZM16.3894 27.1515C15.7894 27.1515 15.3094 26.6715 15.3094 26.0815C15.3094 25.4715 15.7894 24.9615 16.3894 24.9615C16.9894 24.9615 17.4894 25.4815 17.4894 26.0815C17.4894 26.6715 16.9894 27.1515 16.3894 27.1515Z" />
        </svg>
    