
        <svg xmlns="http://www.w3.org/2000/svg" viewBox="0 0 100 100">
            <path d="M12.5842 24.3834C12.0142 23.6134 11.8342 23.1634 11.8342 22.3734C11.8342 20.8834 12.8842 19.9434 13.4342 18.4234C14.8542 17.9634 16.3842 17.6434 17.7042 17.6434C17.9342 17.6434 18.1642 17.6634 18.4142 17.6734C17.9342 19.1934 16.6542 20.1534 16.6542 22.5134C16.6542 23.6334 17.0042 24.5234 17.7942 25.5334C18.6242 26.5934 20.1842 25.5034 19.3642 24.3834C18.7742 23.6134 18.6042 23.1634 18.6042 22.3734C18.6042 20.7434 19.8542 19.7734 20.3442 17.9734C21.7542 18.2934 23.1742 18.7934 24.3142 19.3434L24.3542 19.3634C23.8842 20.1934 23.4242 21.1034 23.4242 22.5134C23.4242 23.6334 23.7642 24.5234 24.5642 25.5334C25.3842 26.5934 26.9542 25.5034 26.1342 24.3834C25.5442 23.6134 25.3742 23.1634 25.3742 22.3734C25.3742 20.8634 26.4442 19.9234 26.9942 18.3734L34.7142 8.5534C35.7942 7.1934 35.6042 5.6634 34.2642 4.6134C30.7642 1.8734 24.2642 0.0034 17.7042 0.0034C11.1442 0.0034 4.6442 1.8734 1.1342 4.6134C-0.1958 5.6634 -0.3758 7.1934 0.6942 8.5534L8.8542 18.9134C9.3442 19.5334 10.0542 19.6834 10.7442 19.4734C10.3042 20.2734 9.8942 21.1634 9.8942 22.5134C9.8942 23.6334 10.2342 24.5234 11.0142 25.5334C11.8542 26.5934 13.4242 25.5034 12.5842 24.3834ZM8.2942 9.6334C7.9542 10.1134 8.2742 10.7734 8.8942 10.7734H9.9642C10.0442 13.6134 11.1542 14.4234 11.6142 15.5234C11.3942 15.6134 11.1842 15.6934 10.9742 15.7834C10.7842 15.8534 10.6542 15.8234 10.5242 15.6634L4.0142 7.4134C3.8842 7.2434 3.9142 7.0434 4.0942 6.9234C7.7442 4.6434 12.6042 3.3034 17.7042 3.3034C22.8042 3.3034 27.6742 4.6434 31.3142 6.9234C31.5042 7.0434 31.5242 7.2334 31.3942 7.4134L26.4442 13.7034C25.9942 12.9034 25.5242 12.0834 25.4542 10.7734H26.5242C27.1342 10.7734 27.4442 10.1134 27.1142 9.6334L25.1242 6.7234C24.9642 6.4934 24.7442 6.3534 24.4742 6.3534C24.2142 6.3534 23.9942 6.4934 23.8142 6.7234L21.8342 9.6334C21.5042 10.1134 21.8142 10.7734 22.4342 10.7734H23.5142C23.5842 13.5034 24.6142 14.3534 25.1042 15.3934L24.9142 15.6334C24.7642 15.8234 24.6342 15.8634 24.4242 15.7734C23.0842 15.2234 21.5642 14.7934 20.1042 14.5434C19.5842 13.4034 18.7742 12.5434 18.6842 10.7734H19.7442C20.3642 10.7734 20.6742 10.1134 20.3442 9.6334L18.3642 6.7234C18.1942 6.4934 17.9642 6.3534 17.7042 6.3534C17.4442 6.3534 17.2142 6.4934 17.0542 6.7234L15.0642 9.6334C14.7342 10.1134 15.0442 10.7734 15.6542 10.7734H16.7342C16.7842 12.5834 17.2642 13.5734 17.7042 14.3434C16.3942 14.3434 14.9342 14.5534 13.4942 14.9334C13.0142 13.5834 12.0142 12.7234 11.9042 10.7734H12.9742C13.5942 10.7734 13.9042 10.1134 13.5742 9.6334L11.5942 6.7234C11.4142 6.4934 11.2042 6.3534 10.9342 6.3534C10.6642 6.3534 10.4442 6.4934 10.2842 6.7234Z" />
        </svg>
    