
        <svg xmlns="http://www.w3.org/2000/svg" viewBox="0 0 100 100">
            <path d="M20.5026 4.1389C20.7026 4.1389 20.8126 3.9589 20.8026 3.7489L20.7726 2.5689L21.7726 3.1889C21.9626 3.2889 22.1726 3.2789 22.2826 3.0889C22.3826 2.9189 22.2926 2.7389 22.0926 2.6389L21.0526 2.0789L22.1026 1.4989C22.2826 1.4089 22.3826 1.2189 22.2726 1.0289C22.1726 0.8589 21.9626 0.8389 21.7726 0.9489L20.7726 1.5889L20.8126 0.3989C20.8126 0.1889 20.7026 -0.0011 20.5026 -0.0011C20.2926 -0.0011 20.1726 0.1789 20.1726 0.3889L20.2126 1.5889L19.2026 0.9489C19.0126 0.8389 18.8026 0.8389 18.7026 1.0289C18.6026 1.2189 18.6926 1.3989 18.8826 1.4989L19.9126 2.0789L18.8826 2.6289C18.6926 2.7289 18.5926 2.9189 18.6926 3.0889C18.8126 3.2689 19.0126 3.2789 19.2026 3.1789L20.2126 2.5589L20.1826 3.7489C20.1726 3.9589 20.2926 4.1389 20.5026 4.1389ZM0.5526 8.5589C2.1326 7.8889 3.9126 7.5189 5.6726 7.5189C8.1626 7.5189 9.6926 7.9589 12.0026 7.9589C13.8226 7.9589 15.0526 6.7389 15.0526 5.0489C15.0526 3.4289 13.8226 2.1489 12.1926 2.1489C10.7326 2.1489 9.6126 3.1489 9.3426 4.4089C9.2726 4.6289 9.4026 4.8289 9.6226 4.8789C9.8226 4.9089 9.9826 4.8089 10.0726 4.5789C10.2726 3.6689 11.1026 2.9189 12.1926 2.9189C13.3926 2.9189 14.2726 3.8689 14.2726 5.0489C14.2726 6.3289 13.3626 7.1989 12.0026 7.1989C9.7026 7.1989 8.2526 6.7489 5.6726 6.7489C3.8126 6.7489 1.9026 7.1589 0.2626 7.8589C0.0226 7.9489 -0.0474 8.1589 0.0226 8.3589C0.0926 8.5589 0.3026 8.6489 0.5526 8.5589ZM19.3726 13.6189C22.0426 13.6189 23.7426 12.0489 23.7426 9.8389C23.7426 7.7589 22.1026 6.0889 20.0226 6.0889C17.9926 6.0889 16.4626 7.6389 16.2926 9.5289C16.2526 9.7689 16.4226 9.9589 16.6426 9.9689C16.8526 9.9889 17.0326 9.8389 17.0526 9.5989C17.2026 8.1089 18.4126 6.8589 20.0226 6.8589C21.6726 6.8589 22.9726 8.1789 22.9726 9.8389C22.9726 11.6289 21.6026 12.8389 19.3726 12.8389C15.6426 12.8389 11.7326 10.8189 6.9726 10.8189C4.4526 10.8189 2.3126 11.2889 0.2626 12.0889C0.0526 12.1789 -0.0474 12.3989 0.0226 12.5989C0.0926 12.7989 0.3026 12.8889 0.5426 12.7989C2.4626 11.8989 4.5426 11.5889 6.9726 11.5889C11.6426 11.5889 15.4326 13.6189 19.3726 13.6189ZM12.0426 21.6789C13.6226 21.6789 14.8426 20.4589 14.8426 18.8089C14.8426 16.2889 12.1226 14.8789 7.2826 14.8789C4.8926 14.8789 2.3126 15.4089 0.2726 16.1489C0.0526 16.2289 -0.0474 16.4689 0.0226 16.6489C0.0926 16.8389 0.3026 16.9589 0.5426 16.8789C2.5226 16.0889 4.9826 15.6489 7.2826 15.6489C11.6426 15.6489 14.0626 16.8289 14.0626 18.8089C14.0626 20.0389 13.2026 20.9089 12.0426 20.9089C10.9326 20.9089 10.1526 20.2189 9.9826 19.0389C9.9526 18.8189 9.7926 18.6489 9.5426 18.6489C9.2926 18.6589 9.1526 18.8789 9.1926 19.1289C9.3926 20.6789 10.5126 21.6789 12.0426 21.6789ZM20.5026 19.9989C20.7026 19.9989 20.8126 19.8289 20.8026 19.6189L20.7726 18.4289L21.7726 19.0589C21.9626 19.1589 22.1726 19.1589 22.2826 18.9689C22.3826 18.7889 22.2926 18.6089 22.0926 18.4989L21.0526 17.9389L22.1026 17.3689C22.2826 17.2689 22.3826 17.0889 22.2726 16.8989C22.1726 16.7189 21.9626 16.7089 21.7726 16.8189L20.7726 17.4589L20.8126 16.2689C20.8126 16.0589 20.7026 15.8789 20.5026 15.8789C20.2926 15.8789 20.1726 16.0389 20.1726 16.2689L20.2126 17.4589L19.2026 16.8189C19.0126 16.7089 18.8026 16.7089 18.7026 16.8989C18.6026 17.0889 18.6926 17.2589 18.8826 17.3689L19.9126 17.9389L18.8826 18.4889C18.6926 18.5989 18.5926 18.7889 18.6926 18.9689C18.8126 19.1389 19.0126 19.1589 19.2026 19.0389L20.2126 18.4189L20.1826 19.6189C20.1726 19.8289 20.2926 19.9989 20.5026 19.9989Z" />
        </svg>
    