
        <svg xmlns="http://www.w3.org/2000/svg" viewBox="0 0 100 100">
            <path d="M2.0315 22.4775H17.4815C18.6215 22.4775 19.3315 21.8475 19.6315 20.7975L24.8315 2.4975C25.2615 0.9775 24.5115 -0.0025 22.9315 -0.0025H7.4615C6.3315 -0.0025 5.6115 0.6375 5.3215 1.6775L0.1215 19.9775C-0.3085 21.5075 0.4315 22.4775 2.0315 22.4775ZM4.3215 10.4175L6.6115 2.3975C6.7815 1.8075 7.1115 1.4575 7.7115 1.4575H14.5215L11.9515 10.4175ZM13.4415 10.4175L16.0115 1.4575H22.7115C23.3015 1.4575 23.5515 1.7675 23.4015 2.3175L21.0815 10.4175ZM1.5615 20.1575L3.9215 11.8475H11.5515L8.9315 21.0075H2.2415C1.6515 21.0075 1.3915 20.7075 1.5615 20.1575ZM10.4315 21.0075L13.0415 11.8475H20.6815L18.3415 20.0675C18.1615 20.6675 17.8315 21.0075 17.2415 21.0075Z" />
        </svg>
    