
        <svg xmlns="http://www.w3.org/2000/svg" viewBox="0 0 100 100">
            <path d="M3.8423 2.8186C4.0323 2.9386 4.3023 2.9186 4.4723 2.6986C5.1923 1.7986 6.0923 1.1386 7.0923 0.8386C7.3323 0.7486 7.4623 0.5286 7.4223 0.3086C7.3723 0.0586 7.1123 -0.0714 6.7623 0.0386C5.6123 0.3786 4.5723 1.1286 3.7823 2.1486C3.5823 2.4186 3.6523 2.6886 3.8423 2.8186ZM29.0723 2.8186C29.2623 2.6886 29.3323 2.4186 29.1323 2.1486C28.3523 1.1286 27.3023 0.3786 26.1523 0.0386C25.8023 -0.0714 25.5423 0.0586 25.5023 0.3086C25.4523 0.5286 25.5823 0.7486 25.8323 0.8386C26.8223 1.1386 27.7223 1.7986 28.4423 2.6986C28.6123 2.9186 28.8823 2.9386 29.0723 2.8186ZM18.0423 2.8186C18.2423 2.9386 18.4923 2.9186 18.6823 2.6986C19.3923 1.7986 20.2923 1.1386 21.2923 0.8386C21.5423 0.7486 21.6723 0.5286 21.6223 0.3186C21.5723 0.0686 21.3323 -0.0714 20.9623 0.0386C19.8323 0.3786 18.7823 1.1186 18.0023 2.1486C17.7923 2.4086 17.8623 2.6786 18.0423 2.8186ZM14.8723 2.8186C15.0623 2.6786 15.1323 2.4086 14.9223 2.1486C14.1323 1.1186 13.0923 0.3786 11.9523 0.0386C11.5923 -0.0714 11.3423 0.0686 11.2923 0.3186C11.2523 0.5286 11.3823 0.7486 11.6223 0.8386C12.6223 1.1386 13.5223 1.7986 14.2423 2.6986C14.4223 2.9186 14.6723 2.9386 14.8723 2.8186ZM16.4623 8.8986C16.7023 8.8986 16.9023 8.7086 16.9023 8.4586V5.4786C16.9023 5.2386 16.7023 5.0386 16.4623 5.0386C16.2223 5.0386 16.0223 5.2386 16.0223 5.4786V8.4586C16.0223 8.7086 16.2223 8.8986 16.4623 8.8986ZM16.4623 19.5386C19.0823 19.5386 21.6823 20.1786 23.8123 21.1886C24.3023 21.4286 24.8423 21.3386 25.1823 20.9186L32.6123 11.3086C33.1023 10.6686 32.9923 9.9586 32.3523 9.4986C29.2723 7.2486 23.8323 5.4886 18.4423 5.1386V6.0086C23.2923 6.3286 28.2323 7.8486 31.6323 10.1186C31.9423 10.3386 32.0023 10.6686 31.7723 10.9786L29.3123 14.1586C28.3823 13.9986 27.5623 13.5486 27.0223 12.9086C26.8023 12.5986 26.5423 12.5986 26.3123 12.9086C25.6123 13.7286 24.4923 14.2386 23.2623 14.2386C22.0323 14.2386 20.8923 13.7286 20.2123 12.9086C19.9823 12.5986 19.7223 12.5986 19.5023 12.9086C18.8923 13.6186 17.9523 14.0986 16.9023 14.2186V11.5586C16.9023 11.3186 16.7023 11.1186 16.4623 11.1186C16.2223 11.1186 16.0223 11.3186 16.0223 11.5586V14.2186C14.9623 14.1086 14.0023 13.6286 13.4023 12.9086C13.1723 12.5986 12.9223 12.5986 12.6823 12.9086C12.0023 13.7286 10.8623 14.2386 9.6323 14.2386C8.4023 14.2386 7.2823 13.7286 6.6023 12.9086C6.3523 12.5986 6.0923 12.5986 5.8723 12.9086C5.3323 13.5486 4.5323 13.9986 3.6123 14.1586L1.1523 10.9786C0.9123 10.6686 0.9723 10.3386 1.2923 10.1186C4.7023 7.8486 9.6323 6.3286 14.4723 6.0086V5.1386C9.0723 5.4886 3.6423 7.2486 0.5623 9.4986C-0.0677 9.9586 -0.1877 10.6686 0.3023 11.3086L7.7323 20.9186C8.0723 21.3386 8.6123 21.4286 9.1023 21.1886C11.2423 20.1786 13.8423 19.5386 16.4623 19.5386Z" />
        </svg>
    