
        <svg xmlns="http://www.w3.org/2000/svg" viewBox="0 0 100 100">
            <path d="M0.3444 12.6875C-0.4756 14.1375 0.2344 15.5975 1.8344 15.7775H2.5244L1.3144 19.9775C0.8944 21.5075 1.6444 22.4775 3.2244 22.4775H18.6844C19.7444 22.4775 20.5344 21.8475 20.8344 20.7975L26.0644 2.7675C26.5244 1.2075 25.7744 -0.0025 24.1244 -0.0025H9.0544C7.6044 -0.0025 7.2144 0.5175 6.5744 1.6175ZM5.1344 7.0975L7.9344 2.1375C8.2444 1.5775 8.4744 1.4575 9.0744 1.4575H16.0144L12.8544 7.0975ZM14.4844 7.0975L17.6444 1.4575H23.8544C24.6444 1.4575 24.9144 1.9675 24.5144 2.6675L22.0344 7.0975ZM19.6644 14.1775L23.0644 8.0575L19.5544 20.0675C19.5144 20.1775 19.4644 20.2875 19.4244 20.3875L17.4244 15.7875C18.6944 15.7375 19.0844 15.2075 19.6644 14.1775ZM1.7244 13.1275L4.3244 8.5075H12.0344L8.7644 14.3475H2.3944C1.6044 14.3475 1.3244 13.8275 1.7244 13.1275ZM10.4244 14.3475L13.6744 8.5075H21.2244L18.3144 13.6675C18.0144 14.2175 17.7844 14.3475 17.1844 14.3475ZM2.7544 20.1575L3.9944 15.7975H15.8444L18.1244 21.0075H3.4444C2.8544 21.0075 2.5944 20.7075 2.7544 20.1575Z" />
        </svg>
    