
        <svg xmlns="http://www.w3.org/2000/svg" viewBox="0 0 100 100">
            <path d="M0.0017 22.4519C0.0017 23.6219 0.8117 24.4119 2.0117 24.4119H17.3917C18.6117 24.4119 19.4017 23.6219 19.4017 22.4519V1.9619C19.4017 0.7919 18.6117 0.0019 17.3917 0.0019H2.0117C0.8117 0.0019 0.0017 0.7919 0.0017 1.9619ZM1.4517 22.3519V2.0719C1.4517 1.7019 1.7017 1.4519 2.0517 1.4519H17.3717C17.7217 1.4519 17.9517 1.7019 17.9517 2.0719V22.3519C17.9517 22.7219 17.7217 22.9719 17.3717 22.9719H2.0517C1.7017 22.9719 1.4517 22.7219 1.4517 22.3519ZM2.9717 21.7619H16.4417C16.6217 21.7619 16.7417 21.6219 16.7417 21.4419V2.9719C16.7417 2.8019 16.6217 2.6619 16.4417 2.6619H2.9717C2.8017 2.6619 2.6617 2.8019 2.6617 2.9719V21.4419C2.6617 21.6219 2.8017 21.7619 2.9717 21.7619ZM7.6017 20.2919C7.3017 20.2919 7.0917 20.0819 7.0917 19.7819C7.0917 19.4619 7.3017 19.2519 7.6017 19.2519H11.3717C11.6717 19.2519 11.8917 19.4619 11.8917 19.7819C11.8917 20.0819 11.6717 20.2919 11.3717 20.2919Z" />
        </svg>
    