
        <svg xmlns="http://www.w3.org/2000/svg" viewBox="0 0 100 100">
            <path d="M12.6023 25.1986C19.5623 25.1986 25.2023 19.5586 25.2023 12.5986C25.2023 5.6386 19.5623 -0.0014 12.6023 -0.0014C5.6323 -0.0014 0.0023 5.6386 0.0023 12.5986C0.0023 19.5586 5.6323 25.1986 12.6023 25.1986ZM12.6023 21.5386C7.6523 21.5386 3.6523 17.5386 3.6523 12.5986C3.6523 7.6486 7.6523 3.6586 12.6023 3.6586C17.5423 3.6586 21.5423 7.6486 21.5423 12.5986C21.5423 17.5386 17.5423 21.5386 12.6023 21.5386ZM16.6523 8.9086C16.9023 8.9086 17.0623 8.6786 17.0123 8.4386L16.9323 7.8486L17.4123 8.2286C17.6123 8.3786 17.8623 8.3486 17.9623 8.1486C18.1023 7.9286 18.0123 7.6686 17.7523 7.5686L17.2423 7.3586L17.7623 7.1386C18.0023 7.0386 18.1023 6.7886 17.9723 6.5886C17.8623 6.3886 17.5923 6.3386 17.4123 6.5086L16.9323 6.8586L17.0123 6.2886C17.0623 6.0386 16.9023 5.8086 16.6523 5.8086C16.4023 5.8086 16.2323 6.0386 16.2623 6.2786L16.3523 6.8586L15.8923 6.4886C15.6923 6.3286 15.4323 6.3886 15.3123 6.5886C15.1923 6.7886 15.2923 7.0286 15.5323 7.1486L16.0523 7.3486L15.5123 7.5786C15.2923 7.6786 15.1923 7.9186 15.3123 8.1486C15.4323 8.3486 15.6923 8.3786 15.8923 8.2286L16.3523 7.8586L16.2823 8.4386C16.2423 8.6786 16.4023 8.9086 16.6523 8.9086ZM6.4023 11.4386C7.3123 11.1586 8.2223 11.0286 9.1323 11.0286C10.2623 11.0286 11.1223 11.1986 12.2323 11.1986C13.4923 11.1986 14.3923 10.3086 14.3923 9.1186C14.3923 7.9186 13.4723 7.0386 12.3023 7.0386C11.5223 7.0386 10.8023 7.5086 10.4623 8.1986C10.2823 8.5586 10.3523 8.9686 10.6923 9.1686C11.0623 9.3886 11.5123 9.2486 11.7223 8.8386C11.8323 8.6286 12.0623 8.4886 12.3023 8.4886C12.6923 8.4886 12.9523 8.7186 12.9523 9.1186C12.9523 9.5386 12.6923 9.7686 12.2323 9.7686C11.2123 9.7686 10.3323 9.5986 9.1323 9.5986C8.1123 9.5986 7.0223 9.7586 5.9923 10.0386C5.5623 10.1586 5.3323 10.5586 5.4523 10.9286C5.5823 11.3486 5.9623 11.5686 6.4023 11.4386ZM16.3723 14.6686C18.0023 14.6686 19.1823 13.5986 19.1823 12.1186C19.1823 10.6686 18.0723 9.5886 16.6523 9.5886C15.5423 9.5886 14.5623 10.3086 14.2523 11.3286C14.1223 11.7286 14.2923 12.1386 14.6723 12.2686C15.0323 12.4086 15.4823 12.1986 15.6323 11.7686C15.7623 11.3186 16.1823 11.0186 16.6523 11.0186C17.2823 11.0186 17.7423 11.4586 17.7423 12.1186C17.7423 12.8086 17.2223 13.2286 16.3723 13.2286C14.4823 13.2286 12.3423 12.1286 9.7523 12.1286C8.4523 12.1286 7.1723 12.3386 5.9623 12.7286C5.5623 12.8686 5.3323 13.2586 5.4523 13.6286C5.5823 14.0386 5.9923 14.2486 6.4323 14.0986C7.4623 13.7386 8.5523 13.5686 9.7523 13.5686C12.2223 13.5686 14.1323 14.6686 16.3723 14.6686ZM12.2323 19.3686C13.3923 19.3686 14.2723 18.4886 14.2723 17.3086C14.2723 15.6186 12.5523 14.6686 9.5623 14.6686C8.4023 14.6686 7.1023 14.9086 5.9623 15.2686C5.5623 15.4086 5.3323 15.7986 5.4523 16.1586C5.5823 16.5686 5.9923 16.7886 6.4323 16.6386C7.3923 16.2986 8.4623 16.1086 9.5623 16.1086C11.6723 16.1086 12.8323 16.5986 12.8323 17.3086C12.8323 17.7186 12.6023 17.9286 12.2323 17.9286C11.9323 17.9286 11.7423 17.7786 11.6223 17.4186C11.4623 17.0286 11.0823 16.8486 10.7023 16.9886C10.3023 17.1286 10.1623 17.5686 10.3123 17.9786C10.6023 18.7686 11.3223 19.3686 12.2323 19.3686ZM16.5823 18.3886C16.8023 18.3886 16.9723 18.1886 16.9223 17.9486L16.8423 17.4586L17.2423 17.7886C17.4223 17.9286 17.6623 17.8986 17.7623 17.7086C17.8923 17.5086 17.8023 17.2486 17.5623 17.1686L17.1223 17.0086L17.5823 16.8286C17.8023 16.7386 17.8823 16.4986 17.7623 16.2986C17.6623 16.1286 17.4023 16.0786 17.2423 16.2286L16.8423 16.5386L16.9223 16.0586C16.9723 15.8186 16.8023 15.6086 16.5823 15.6086C16.3523 15.6086 16.1823 15.8186 16.2223 16.0586L16.2923 16.5386L15.9123 16.2186C15.7223 16.0786 15.4823 16.1086 15.3723 16.2986C15.2623 16.4886 15.3523 16.7386 15.5723 16.8286L16.0323 16.9886L15.5623 17.1786C15.3523 17.2586 15.2623 17.5086 15.3723 17.7186C15.4823 17.9086 15.7223 17.9286 15.9123 17.7886L16.2923 17.4686L16.2223 17.9486C16.1823 18.1886 16.3523 18.3886 16.5823 18.3886Z" />
        </svg>
    