
        <svg xmlns="http://www.w3.org/2000/svg" viewBox="0 0 100 100">
            <path d="M0.0017 22.4272C0.0017 23.2472 0.5717 23.7972 1.4417 23.7972H17.1217C17.9917 23.7972 18.5617 23.2472 18.5617 22.4272V1.3872C18.5617 0.5672 17.9917 -0.0028 17.1217 -0.0028H1.4417C0.5717 -0.0028 0.0017 0.5672 0.0017 1.3872ZM0.8817 22.3272V1.4872C0.8817 1.1172 1.1217 0.8772 1.4617 0.8772H17.0817C17.4417 0.8772 17.6717 1.1172 17.6717 1.4872V22.3272C17.6717 22.6872 17.4417 22.9372 17.0817 22.9372H1.4617C1.1217 22.9372 0.8817 22.6872 0.8817 22.3272ZM2.0817 5.7972H16.4717C16.5917 5.7972 16.6717 5.7172 16.6717 5.5972V2.0772C16.6717 1.9572 16.5917 1.8772 16.4717 1.8772H2.0817C1.9717 1.8772 1.8717 1.9572 1.8717 2.0772V5.5972C1.8717 5.7172 1.9717 5.7972 2.0817 5.7972ZM7.2817 4.2972C7.0117 4.2972 6.8017 4.0972 6.8017 3.8272C6.8017 3.5472 7.0117 3.3472 7.2817 3.3472H11.2817C11.5517 3.3472 11.7517 3.5472 11.7517 3.8272C11.7517 4.0972 11.5517 4.2972 11.2817 4.2972Z" />
        </svg>
    