
        <svg xmlns="http://www.w3.org/2000/svg" viewBox="0 0 100 100">
            <path d="M0.0017 17.8619C0.0017 18.1719 0.2417 18.4219 0.5617 18.4219H27.1217C27.4317 18.4219 27.6817 18.1719 27.6817 17.8619C27.6817 17.5419 27.4317 17.2919 27.1217 17.2919H26.4017V1.0119C26.4017 0.4119 25.9817 0.0019 25.3317 0.0019H2.2217C1.5817 0.0019 1.1617 0.4119 1.1617 1.0119V17.2919H0.5617C0.2417 17.2919 0.0017 17.5419 0.0017 17.8619ZM2.0417 8.6519V1.1819C2.0417 0.9919 2.1517 0.8719 2.3317 0.8719H13.3817V8.6519ZM14.1817 8.6519V0.8719H25.2317C25.3917 0.8719 25.5117 0.9919 25.5117 1.1819V8.6519ZM2.0417 17.2919V9.7719H25.5117V17.2919Z" />
        </svg>
    