
        <svg xmlns="http://www.w3.org/2000/svg" viewBox="0 0 100 100">
            <path d="M23.591 12.2216C26.131 12.2216 27.831 10.5716 27.831 8.1016C27.831 6.9516 27.371 5.8916 26.951 4.9916C26.311 3.6016 25.281 1.9216 24.361 0.5116C24.111 0.1916 23.871 0.0016 23.591 0.0016C23.291 0.0016 23.051 0.1916 22.801 0.5116C21.891 1.9216 20.861 3.6016 20.221 4.9916C19.801 5.8916 19.351 6.9516 19.351 8.1016C19.351 10.5716 21.031 12.2216 23.591 12.2216ZM17.281 19.0916C19.521 19.0916 22.181 19.8116 24.151 20.8116C24.791 21.1316 25.511 21.0316 25.941 20.4716L33.981 10.2416C34.901 9.0816 34.741 7.8316 33.611 6.9416C32.291 5.9316 30.551 5.0116 28.501 4.2816C28.911 5.1916 29.401 6.2916 29.451 7.6316C30.131 7.9616 30.781 8.3216 31.401 8.7116C31.661 8.8816 31.701 9.1216 31.511 9.3716L24.771 17.9316C24.571 18.1716 24.441 18.2116 24.191 18.1016C21.911 17.1716 19.421 16.6016 17.281 16.6016C16.561 16.6016 15.791 16.6716 15.011 16.7916L8.821 6.1416C11.401 5.3316 14.201 4.9016 17.051 4.8716C17.511 4.8716 17.971 4.8916 18.421 4.9316C18.741 4.1116 19.191 3.2016 19.601 2.4916C18.841 2.4216 18.071 2.3916 17.281 2.3916C13.811 2.3916 10.401 2.9316 7.461 3.8216L6.301 1.8116C5.991 1.2516 5.281 1.0516 4.661 1.3816C4.061 1.7116 3.901 2.4616 4.241 3.0216L5.171 4.6216C3.501 5.2816 2.071 6.0716 0.971 6.9416C-0.169 7.8316 -0.319 9.0816 0.581 10.2416L8.621 20.4716C9.071 21.0316 9.781 21.1316 10.421 20.8116C11.421 20.3116 12.621 19.8616 13.831 19.5616L14.961 21.5116C14.591 22.0116 14.361 22.6316 14.361 23.3016C14.361 24.9016 15.671 26.2116 17.281 26.2116C18.891 26.2116 20.201 24.9016 20.201 23.3016C20.201 21.6816 18.891 20.3716 17.281 20.3716C17.211 20.3716 17.151 20.3716 17.081 20.3716L16.361 19.1216C16.671 19.1016 16.981 19.0916 17.281 19.0916ZM9.791 17.9316L3.071 9.3716C2.881 9.1216 2.921 8.8816 3.171 8.7116C4.221 8.0516 5.341 7.4716 6.531 6.9716L12.551 17.3416C11.821 17.5516 11.101 17.8116 10.391 18.1016C10.131 18.2016 9.991 18.1716 9.791 17.9316ZM17.281 24.3516C16.701 24.3516 16.221 23.8816 16.221 23.3016C16.221 22.7016 16.701 22.2216 17.281 22.2216C17.871 22.2216 18.361 22.7016 18.361 23.3016C18.361 23.8816 17.871 24.3516 17.281 24.3516Z" />
        </svg>
    