
        <svg xmlns="http://www.w3.org/2000/svg" viewBox="0 0 100 100">
            <path d="M1.5717 3.9974C2.0617 4.2874 2.6117 4.1474 3.0017 3.6874C3.6317 2.9374 4.4217 2.3774 5.3217 2.0574C5.8917 1.8474 6.2317 1.3574 6.1217 0.7974C5.9717 0.1374 5.3317 -0.1626 4.5817 0.0874C3.3617 0.4974 2.2117 1.3374 1.3217 2.4074C0.8717 2.9574 1.0317 3.6674 1.5717 3.9974ZM27.4617 3.9974C28.0117 3.6674 28.1617 2.9574 27.7017 2.4074C26.8217 1.3374 25.6617 0.4974 24.4417 0.0874C23.6917 -0.1626 23.0517 0.1374 22.9217 0.7974C22.7917 1.3574 23.1417 1.8474 23.7117 2.0574C24.6117 2.3774 25.4017 2.9374 26.0317 3.6874C26.4117 4.1474 26.9617 4.2874 27.4617 3.9974ZM15.8417 3.9674C16.3517 4.2774 16.9017 4.1674 17.3117 3.6774C17.9217 2.9374 18.7117 2.3774 19.6217 2.0574C20.1717 1.8474 20.4917 1.3774 20.4017 0.8174C20.2817 0.1774 19.6617 -0.1826 18.8717 0.1074C17.6717 0.4974 16.5017 1.3174 15.6217 2.3974C15.1717 2.9574 15.3017 3.6274 15.8417 3.9674ZM13.1817 3.9674C13.7317 3.6274 13.8517 2.9574 13.4017 2.3974C12.5317 1.3174 11.3717 0.4974 10.1617 0.1074C9.3717 -0.1826 8.7417 0.1774 8.6417 0.8174C8.5317 1.3774 8.8617 1.8474 9.4217 2.0574C10.3117 2.3774 11.1117 2.9374 11.7217 3.6774C12.1417 4.1674 12.6917 4.2774 13.1817 3.9674ZM14.5217 10.3474C15.0917 10.3474 15.5617 9.8674 15.5617 9.2874V6.4474C15.5617 5.8674 15.0917 5.3974 14.5217 5.3974C13.9417 5.3974 13.4617 5.8674 13.4617 6.4474V9.2874C13.4617 9.8674 13.9417 10.3474 14.5217 10.3474ZM3.8417 22.9274H25.1817C27.7017 22.9274 29.0317 21.6074 29.0317 19.1374V10.4274C29.0317 7.9574 27.7017 6.6274 25.1817 6.6274H17.3817V8.8574H25.1617C26.2017 8.8574 26.8117 9.4274 26.8117 10.5374V15.1074C25.9917 14.9374 25.2917 14.5474 24.8017 14.0174C24.4817 13.6874 24.1917 13.6974 23.8817 14.0174C23.1817 14.7674 22.1717 15.1874 21.0717 15.1874C19.9717 15.1874 18.9517 14.7674 18.2617 14.0174C17.9417 13.6974 17.6617 13.6874 17.3417 14.0174C16.9017 14.5074 16.2817 14.8674 15.5617 15.0574V12.8974C15.5617 12.3274 15.0917 11.8474 14.5217 11.8474C13.9417 11.8474 13.4617 12.3274 13.4617 12.8974V15.0574C12.7517 14.8674 12.1317 14.5074 11.6817 14.0174C11.3817 13.6874 11.0817 13.6974 10.7717 14.0174C10.0817 14.7674 9.0617 15.1874 7.9617 15.1874C6.8517 15.1874 5.8517 14.7674 5.1517 14.0174C4.8417 13.6974 4.5517 13.6874 4.2417 14.0174C3.7417 14.5474 3.0317 14.9374 2.2217 15.1074V10.5374C2.2217 9.4274 2.8217 8.8574 3.8817 8.8574H11.6517V6.6274H3.8417C1.3317 6.6274 0.0017 7.9574 0.0017 10.4274V19.1374C0.0017 21.6174 1.3317 22.9274 3.8417 22.9274Z" />
        </svg>
    