
        <svg xmlns="http://www.w3.org/2000/svg" viewBox="0 0 100 100">
            <path d="M5.4817 23.2472C5.4817 23.5572 5.7317 23.7972 6.0517 23.7972H24.7617C25.0617 23.7972 25.3117 23.5572 25.3117 23.2472C25.3117 22.9372 25.0617 22.6872 24.7617 22.6872H24.0317V22.1672L29.9317 22.4872C30.4117 22.5272 30.6817 22.2272 30.6817 21.7572V1.9372C30.6817 1.4672 30.4117 1.1672 29.9317 1.1972L23.9717 1.5272V0.8072C23.9217 0.3272 23.5317 -0.0028 22.9717 -0.0028H7.7117C7.1517 -0.0028 6.7617 0.3272 6.7017 0.8072V1.5272L0.7517 1.1972C0.2717 1.1672 0.0017 1.4672 0.0017 1.9372V21.7572C0.0017 22.2272 0.2717 22.5272 0.7517 22.4872L6.6417 22.1672V22.6872H6.0517C5.7317 22.6872 5.4817 22.9372 5.4817 23.2472ZM7.5317 1.1972C7.5317 0.9972 7.6517 0.8772 7.8117 0.8772H15.0617V22.6872H7.5317ZM22.8617 0.8772C23.0317 0.8772 23.1417 0.9972 23.1417 1.1972V22.6872H15.8517V0.8772ZM0.8517 7.8872V2.1772C0.8517 2.0972 0.8917 2.0672 0.9717 2.0672L6.6417 2.3672V8.0672L0.9617 7.9872C0.8817 7.9872 0.8517 7.9472 0.8517 7.8872ZM24.0317 8.0672V2.3672L29.7117 2.0672C29.7917 2.0672 29.8217 2.0972 29.8217 2.1772V7.8872C29.8217 7.9472 29.8017 7.9872 29.7217 7.9872ZM0.8517 14.7272V8.9572C0.8517 8.8972 0.8817 8.8472 0.9517 8.8472L6.6417 8.9172V14.7772L0.9517 14.8372C0.8817 14.8372 0.8517 14.7872 0.8517 14.7272ZM24.0317 14.7772V8.9172L29.7317 8.8472C29.8017 8.8472 29.8217 8.8972 29.8217 8.9572V14.7272C29.8217 14.7872 29.8017 14.8372 29.7317 14.8372ZM0.8517 21.5172V15.8072C0.8517 15.7472 0.8817 15.6872 0.9617 15.6872L6.6417 15.6372V21.3272L0.9717 21.6172C0.8917 21.6372 0.8517 21.5872 0.8517 21.5172ZM24.0317 21.3272V15.6372L29.7217 15.6872C29.8017 15.6872 29.8217 15.7472 29.8217 15.8072V21.5172C29.8217 21.5872 29.7917 21.6372 29.7117 21.6172Z" />
        </svg>
    