
        <svg xmlns="http://www.w3.org/2000/svg" viewBox="0 0 100 100">
            <path d="M20.523 4.0983C20.713 4.0983 20.803 3.9383 20.803 3.7383L20.773 2.4983L21.833 3.1383C22.023 3.2483 22.203 3.2483 22.303 3.0583C22.383 2.9083 22.293 2.7583 22.113 2.6483L21.023 2.0483L22.113 1.4383C22.283 1.3583 22.383 1.1983 22.283 1.0183C22.203 0.8583 22.013 0.8583 21.833 0.9583L20.773 1.6183L20.803 0.3483C20.803 0.1683 20.713 -0.0017 20.523 -0.0017C20.323 -0.0017 20.243 0.1683 20.243 0.3483L20.263 1.6183L19.203 0.9583C19.023 0.8583 18.823 0.8483 18.743 1.0183C18.643 1.1983 18.743 1.3483 18.913 1.4383L19.993 2.0483L18.913 2.6383C18.743 2.7383 18.633 2.9083 18.743 3.0583C18.843 3.2183 19.023 3.2183 19.203 3.1183L20.263 2.4683L20.243 3.7383C20.243 3.9383 20.323 4.0983 20.523 4.0983ZM0.403 8.4183C1.963 7.6983 3.753 7.3083 5.533 7.3083C8.113 7.3083 9.633 7.7783 12.023 7.7783C13.753 7.7783 14.953 6.6183 14.953 4.9783C14.953 3.4483 13.793 2.1883 12.213 2.1883C10.733 2.1883 9.613 3.2383 9.413 4.5283C9.383 4.6983 9.523 4.8283 9.693 4.8283C9.833 4.8283 9.913 4.7183 9.953 4.5783C10.143 3.5583 11.033 2.7383 12.213 2.7383C13.493 2.7383 14.403 3.7583 14.403 4.9783C14.403 6.3183 13.443 7.2283 12.023 7.2283C9.623 7.2283 8.213 6.7583 5.533 6.7583C3.683 6.7583 1.783 7.1983 0.163 7.9383C0.003 8.0083 -0.037 8.1583 0.023 8.2983C0.083 8.4283 0.253 8.4883 0.403 8.4183ZM19.363 13.3483C22.023 13.3483 23.653 11.8283 23.653 9.6783C23.653 7.6883 22.073 6.0383 20.043 6.0383C18.043 6.0383 16.523 7.6183 16.383 9.4783C16.363 9.6583 16.503 9.7883 16.653 9.7883C16.803 9.7883 16.913 9.6783 16.933 9.5283C17.063 7.9583 18.333 6.5883 20.043 6.5883C21.763 6.5883 23.103 7.9883 23.103 9.6783C23.103 11.5183 21.693 12.7983 19.363 12.7983C15.593 12.7983 11.673 10.7683 6.883 10.7683C4.343 10.7683 2.213 11.2583 0.163 12.0783C0.023 12.1383 -0.037 12.3183 0.023 12.4483C0.083 12.5983 0.233 12.6483 0.393 12.5783C2.313 11.6083 4.413 11.3183 6.883 11.3183C11.543 11.3183 15.433 13.3483 19.363 13.3483ZM12.073 21.3483C13.583 21.3483 14.743 20.1683 14.743 18.5883C14.743 16.1483 12.063 14.7683 7.323 14.7683C4.863 14.7683 2.233 15.3383 0.183 16.0883C0.023 16.1483 -0.037 16.3283 0.023 16.4483C0.083 16.5783 0.233 16.6483 0.393 16.5983C2.403 15.7883 4.973 15.3183 7.323 15.3183C11.713 15.3183 14.193 16.5383 14.193 18.5883C14.193 19.8583 13.283 20.7983 12.073 20.7983C10.913 20.7983 10.053 20.0983 9.893 18.8683C9.873 18.6983 9.743 18.5783 9.593 18.5783C9.413 18.5783 9.293 18.7283 9.323 18.8983C9.523 20.4383 10.623 21.3483 12.073 21.3483ZM20.523 19.6883C20.713 19.6883 20.803 19.5283 20.803 19.3383L20.773 18.0783L21.833 18.7283C22.023 18.8283 22.203 18.8283 22.303 18.6583C22.383 18.4883 22.293 18.3483 22.113 18.2483L21.023 17.6383L22.113 17.0383C22.283 16.9483 22.383 16.7883 22.283 16.6083C22.203 16.4383 22.013 16.4483 21.833 16.5483L20.773 17.2183L20.803 15.9483C20.803 15.7583 20.713 15.5983 20.523 15.5983C20.323 15.5983 20.243 15.7583 20.243 15.9483L20.263 17.2183L19.203 16.5483C19.023 16.4483 18.823 16.4283 18.743 16.6083C18.643 16.7883 18.743 16.9383 18.913 17.0383L19.993 17.6383L18.913 18.2183C18.743 18.3283 18.633 18.4883 18.743 18.6583C18.843 18.8183 19.023 18.8183 19.203 18.7183L20.263 18.0683L20.243 19.3383C20.243 19.5283 20.323 19.6883 20.523 19.6883Z" />
        </svg>
    