
        <svg xmlns="http://www.w3.org/2000/svg" viewBox="0 0 100 100">
            <path d="M17.1573 17.5518C19.4273 17.5518 22.1073 18.2718 24.0873 19.2818C24.6873 19.5918 25.3573 19.4818 25.7473 18.9818L33.7673 8.7718C34.6173 7.6818 34.4773 6.5018 33.4073 5.6618C30.0773 3.0918 23.7473 1.1418 17.1573 1.1418C13.6673 1.1418 10.2573 1.6918 7.3173 2.5818L6.1373 0.5318C5.8373 0.0318 5.2073 -0.1582 4.6173 0.1518C4.0873 0.4318 3.9473 1.1218 4.2473 1.6318L5.2173 3.3118C3.5173 3.9918 2.0473 4.7918 0.9173 5.6618C-0.1627 6.5018 -0.3027 7.6818 0.5573 8.7718L8.5673 18.9818C8.9673 19.4818 9.6373 19.5918 10.2373 19.2818C11.2673 18.7518 12.4973 18.3118 13.7473 17.9918L14.9573 20.0718C14.5873 20.5518 14.3573 21.1518 14.3573 21.7918C14.3573 23.3418 15.6173 24.5918 17.1573 24.5918C18.6873 24.5918 19.9573 23.3318 19.9573 21.7918C19.9573 20.2418 18.6973 18.9918 17.1573 18.9918C17.0573 18.9918 16.9573 18.9918 16.8573 19.0018L16.0473 17.6118C16.4273 17.5718 16.7973 17.5518 17.1573 17.5518ZM17.1573 15.3318C16.4273 15.3318 15.6373 15.3918 14.8373 15.5218L8.5373 4.6818C11.2473 3.8218 14.1773 3.3718 17.1573 3.3718C22.3973 3.3718 27.4873 4.7918 31.4373 7.2718C31.7173 7.4618 31.7473 7.7218 31.5373 7.9918L24.7173 16.6618C24.5073 16.9318 24.3773 16.9618 24.1073 16.8418C21.7773 15.9018 19.2973 15.3318 17.1573 15.3318ZM38.7473 14.7918C39.4373 14.7918 39.9173 14.3418 39.9473 13.6118L40.1873 5.7718C40.2273 4.9018 39.6373 4.3318 38.7373 4.3318C37.8373 4.3318 37.2573 4.9018 37.2873 5.7718L37.5373 13.6218C37.5673 14.3418 38.0473 14.7918 38.7473 14.7918ZM9.6073 16.6718L2.7873 7.9918C2.5673 7.7218 2.6073 7.4618 2.8873 7.2718C3.9973 6.5718 5.1973 5.9618 6.4573 5.4318L12.6073 16.0218C11.8073 16.2518 10.9973 16.5318 10.2073 16.8418C9.9473 16.9518 9.8173 16.9318 9.6073 16.6718ZM38.7473 20.1318C39.6973 20.1318 40.4473 19.4118 40.4473 18.5118C40.4473 17.6118 39.7073 16.8918 38.7473 16.8918C37.7773 16.8918 37.0373 17.6118 37.0373 18.5118C37.0373 19.4118 37.7873 20.1318 38.7473 20.1318ZM17.1573 22.8618C16.5673 22.8618 16.0873 22.3818 16.0873 21.7918C16.0873 21.1918 16.5673 20.7018 17.1573 20.7018C17.7473 20.7018 18.2373 21.1918 18.2373 21.7918C18.2373 22.3818 17.7473 22.8618 17.1573 22.8618Z" />
        </svg>
    