
        <svg xmlns="http://www.w3.org/2000/svg" viewBox="0 0 100 100">
            <path d="M0.0017 23.2472C0.0017 23.5572 0.2417 23.7972 0.5617 23.7972H20.5917C20.9017 23.7972 21.1517 23.5572 21.1517 23.2472C21.1517 22.9372 20.9017 22.6872 20.5917 22.6872H19.8617V1.0072C19.8617 0.4072 19.4417 -0.0028 18.8017 -0.0028H2.2217C1.5817 -0.0028 1.1617 0.4072 1.1617 1.0072V22.6872H0.5617C0.2417 22.6872 0.0017 22.9372 0.0017 23.2472ZM2.0417 7.5672V1.1972C2.0417 0.9972 2.1517 0.8772 2.3317 0.8772H10.1117V7.5672ZM10.9117 7.5672V0.8772H18.6917C18.8717 0.8772 18.9817 0.9972 18.9817 1.1972V7.5672ZM2.0417 15.1272V8.4372H10.1117V15.1272ZM10.9117 15.1272V8.4372H18.9817V15.1272ZM2.0417 22.6872V15.9972H10.1117V22.6872ZM10.9117 22.6872V15.9972H18.9817V22.6872Z" />
        </svg>
    