
        <svg xmlns="http://www.w3.org/2000/svg" viewBox="0 0 100 100">
            <path d="M0.0017 19.3569C0.0017 20.0869 0.6017 20.6869 1.3217 20.6869H30.3717C31.1017 20.6869 31.7017 20.0869 31.7017 19.3569C31.7017 18.6169 31.1017 18.0269 30.3717 18.0269H29.8617V2.2969C29.8617 0.9169 28.9217 -0.0031 27.5117 -0.0031H4.1617C2.7517 -0.0031 1.8117 0.9169 1.8117 2.2969V18.0269H1.3217C0.6017 18.0269 0.0017 18.6169 0.0017 19.3569ZM4.4317 9.1669V2.9169C4.4317 2.7269 4.5517 2.5969 4.7217 2.5969H14.7917V9.1669ZM16.8917 9.1669V2.5969H26.9517C27.1317 2.5969 27.2417 2.7269 27.2417 2.9169V9.1669ZM4.4317 18.0269V11.5169H14.7917V18.0269ZM16.8917 18.0269V11.5169H27.2417V18.0269Z" />
        </svg>
    