
        <svg xmlns="http://www.w3.org/2000/svg" viewBox="0 0 100 100">
            <path d="M30.301 4.1462C30.901 3.7962 31.061 3.0262 30.571 2.4462C29.681 1.3562 28.511 0.5262 27.281 0.0962C26.481 -0.1838 25.791 0.1462 25.641 0.8462C25.511 1.4562 25.871 1.9862 26.481 2.2262C27.371 2.5362 28.161 3.0862 28.781 3.8262C29.191 4.3062 29.791 4.4462 30.301 4.1462ZM4.261 4.1462C4.791 4.4462 5.391 4.3062 5.801 3.8262C6.421 3.0862 7.191 2.5362 8.081 2.2262C8.691 1.9862 9.061 1.4562 8.931 0.8462C8.781 0.1462 8.081 -0.1838 7.291 0.0962C6.061 0.5262 4.881 1.3562 3.991 2.4462C3.511 3.0262 3.681 3.7962 4.261 4.1462ZM15.961 4.1162C16.541 3.7462 16.671 3.0262 16.201 2.4362C15.311 1.3462 14.131 0.5262 12.921 0.1162C12.091 -0.1938 11.401 0.1862 11.281 0.8862C11.181 1.4862 11.521 1.9862 12.131 2.2262C13.011 2.5362 13.791 3.0862 14.391 3.8162C14.831 4.3262 15.431 4.4462 15.961 4.1162ZM18.611 4.1162C19.151 4.4462 19.741 4.3262 20.181 3.8162C20.791 3.0862 21.561 2.5362 22.451 2.2262C23.051 1.9862 23.391 1.4862 23.291 0.8862C23.171 0.1862 22.491 -0.1938 21.641 0.1162C20.441 0.5262 19.251 1.3462 18.371 2.4362C17.891 3.0262 18.021 3.7462 18.611 4.1162ZM17.281 10.6462C17.901 10.6462 18.421 10.1362 18.421 9.5062V6.7762C18.421 6.1562 17.901 5.6562 17.281 5.6562C16.661 5.6562 16.161 6.1562 16.161 6.7762V9.5062C16.161 10.1362 16.661 10.6462 17.281 10.6462ZM17.281 22.2762C19.521 22.2762 22.181 23.0062 24.151 23.9962C24.791 24.3262 25.511 24.2162 25.941 23.6562L33.981 13.4262C34.901 12.2762 34.741 11.0062 33.611 10.1162C30.751 7.9162 25.761 6.1962 20.291 5.7262V8.2362C24.401 8.6462 28.291 9.9362 31.401 11.8962C31.661 12.0662 31.701 12.3162 31.511 12.5562L29.041 15.6862C28.451 15.4962 27.921 15.1862 27.531 14.7562C27.171 14.4062 26.881 14.4162 26.531 14.7562C25.851 15.4762 24.851 15.8762 23.791 15.8762C22.711 15.8762 21.721 15.4762 21.031 14.7562C20.681 14.4162 20.391 14.4062 20.051 14.7562C19.631 15.2062 19.061 15.5362 18.421 15.7262V13.2362C18.421 12.6162 17.901 12.0962 17.281 12.0962C16.661 12.0962 16.161 12.6162 16.161 13.2362V15.7262C15.511 15.5462 14.941 15.2062 14.521 14.7562C14.171 14.4062 13.871 14.4162 13.521 14.7562C12.841 15.4762 11.851 15.8762 10.781 15.8762C9.701 15.8762 8.721 15.4762 8.041 14.7562C7.691 14.4162 7.391 14.4062 7.041 14.7562C6.641 15.1862 6.111 15.4962 5.531 15.6862L3.071 12.5562C2.881 12.3162 2.921 12.0662 3.171 11.8962C6.291 9.9362 10.181 8.6462 14.271 8.2362V5.7162C8.821 6.1962 3.821 7.9062 0.971 10.1162C-0.169 11.0062 -0.319 12.2762 0.581 13.4262L8.621 23.6562C9.071 24.2162 9.781 24.3262 10.421 23.9962C12.381 23.0062 15.061 22.2762 17.281 22.2762Z" />
        </svg>
    