
        <svg xmlns="http://www.w3.org/2000/svg" viewBox="0 0 100 100">
            <path d="M19.3617 12.1244C21.8817 12.1244 23.5517 10.5044 23.5517 8.0644C23.5517 6.8944 23.0717 5.8444 22.6917 4.9844C22.0417 3.5844 21.0017 1.8744 20.0717 0.4544C19.8517 0.1544 19.6317 0.0044 19.3617 0.0044C19.1017 0.0044 18.8817 0.1544 18.6417 0.4544C17.7317 1.8744 16.6917 3.5844 16.0417 4.9844C15.6517 5.8444 15.1717 6.8944 15.1717 8.0644C15.1717 10.5044 16.8517 12.1244 19.3617 12.1244ZM3.8417 19.2744H11.0617L12.2917 21.4144C11.9217 21.8944 11.6917 22.4844 11.6917 23.1344C11.6917 24.6844 12.9517 25.9344 14.4917 25.9344C16.0317 25.9344 17.3017 24.6644 17.3017 23.1344C17.3017 21.5844 16.0317 20.3344 14.4917 20.3344C14.4017 20.3344 14.3017 20.3344 14.2017 20.3444L13.5817 19.2744H25.1817C27.7017 19.2744 29.0317 17.9544 29.0317 15.4844V6.7744C29.0317 4.3044 27.7017 2.9744 25.1817 2.9744H23.5217C23.9017 3.6844 24.3117 4.5344 24.5317 5.2044H25.1617C26.2017 5.2044 26.8117 5.7744 26.8117 6.8744V15.3844C26.8117 16.4744 26.2017 17.0644 25.1617 17.0644H12.2917L5.4017 5.2044H14.1817C14.3917 4.5544 14.7917 3.7044 15.1917 2.9744H4.1017L3.4617 1.8644C3.1617 1.3544 2.5417 1.1744 1.9617 1.4744C1.4017 1.7544 1.2817 2.4444 1.5717 2.9644L1.8117 3.3744C0.6217 3.9344 0.0017 5.0844 0.0017 6.7744V15.4844C0.0017 17.9644 1.3317 19.2744 3.8417 19.2744ZM3.8817 17.0644C2.8217 17.0644 2.2217 16.4744 2.2217 15.3844V6.8744C2.2217 6.1444 2.4817 5.6344 2.9917 5.3944L9.7717 17.0644ZM14.4917 24.1944C13.9017 24.1944 13.4317 23.7144 13.4317 23.1344C13.4317 22.5344 13.9017 22.0444 14.4917 22.0444C15.0817 22.0444 15.5817 22.5344 15.5817 23.1344C15.5817 23.7144 15.0917 24.1944 14.4917 24.1944Z" />
        </svg>
    