
        <svg xmlns="http://www.w3.org/2000/svg" viewBox="0 0 100 100">
            <path d="M11.4923 22.9836C17.8123 22.9836 22.9823 17.8136 22.9823 11.4836C22.9823 5.1536 17.8123 0.0036 11.4923 0.0036C5.1723 0.0036 0.0023 5.1536 0.0023 11.4836C0.0023 17.8136 5.1723 22.9836 11.4923 22.9836ZM4.2323 9.4136C4.0223 9.4936 3.8123 9.4136 3.7423 9.2236C3.6723 9.0336 3.7423 8.8336 3.9523 8.7536C5.0323 8.2836 6.2823 8.0136 7.5123 8.0136C9.2023 8.0136 10.1523 8.3036 11.6223 8.3036C12.4523 8.3036 12.9723 7.8036 12.9723 7.0236C12.9723 6.3036 12.4823 5.7536 11.7423 5.7536C11.0723 5.7536 10.6023 6.2036 10.4623 6.7636C10.3923 6.9336 10.2523 7.0536 10.0523 7.0236C9.8423 6.9936 9.7123 6.7936 9.7723 6.5836C9.9423 5.7336 10.7423 5.0236 11.7423 5.0236C12.8423 5.0236 13.7123 5.9136 13.7123 7.0236C13.7123 8.1836 12.8523 9.0236 11.6223 9.0236C10.1023 9.0236 9.0923 8.7536 7.5123 8.7536C6.3723 8.7536 5.2423 8.9836 4.2323 9.4136ZM16.3923 12.7036C13.8023 12.7036 11.3423 11.3936 8.3423 11.3936C6.7723 11.3936 5.4523 11.5736 4.2223 12.1636C4.0223 12.2336 3.8123 12.1636 3.7423 11.9636C3.6723 11.7936 3.7423 11.5636 3.9523 11.4836C5.2923 10.9536 6.7123 10.6536 8.3423 10.6536C11.4723 10.6536 14.0123 11.9736 16.3923 11.9736C17.8023 11.9736 18.6223 11.2336 18.6223 10.1336C18.6223 9.1036 17.8323 8.3236 16.8123 8.3236C15.8223 8.3236 15.1023 9.0736 15.0123 9.9836C14.9923 10.2036 14.8123 10.3436 14.6223 10.3336C14.4223 10.3236 14.2623 10.1336 14.2823 9.9236C14.4023 8.6336 15.4423 7.5936 16.8123 7.5936C18.2223 7.5936 19.3623 8.7236 19.3623 10.1336C19.3623 11.6336 18.1923 12.7036 16.3923 12.7036ZM11.6523 17.9336C10.5923 17.9336 9.8123 17.2336 9.6923 16.1836C9.6723 15.9636 9.7723 15.7336 10.0323 15.7336C10.2423 15.7236 10.3923 15.9036 10.4223 16.0936C10.5223 16.8136 10.9523 17.2036 11.6523 17.2036C12.3523 17.2036 12.8423 16.7036 12.8423 15.9536C12.8423 14.7436 11.3523 14.0136 8.5523 14.0136C7.0623 14.0136 5.4823 14.3036 4.2223 14.8036C4.0223 14.8736 3.8123 14.7636 3.7423 14.5736C3.6523 14.4136 3.7523 14.2136 3.9723 14.1236C5.2923 13.6336 6.9823 13.2936 8.5523 13.2936C11.7423 13.2936 13.5723 14.2336 13.5723 15.9536C13.5723 17.0936 12.7223 17.9336 11.6523 17.9336Z" />
        </svg>
    