
        <svg xmlns="http://www.w3.org/2000/svg" viewBox="0 0 100 100">
            <path d="M16.9959 17.1667C19.3059 17.1667 21.9959 17.8567 24.0059 18.9167C24.5459 19.1967 25.1359 19.0867 25.4959 18.6367L33.4559 8.4567C34.2559 7.4567 34.1259 6.3867 33.1359 5.6167C29.8559 3.0767 23.5859 1.1267 16.9959 1.1267C13.4659 1.1267 10.0459 1.6867 7.1259 2.5867L5.8959 0.4667C5.6359 0.0367 5.1059 -0.1433 4.5859 0.1267C4.1059 0.3667 3.9859 0.9767 4.2559 1.4167L5.2959 3.2067C3.5159 3.8967 1.9959 4.7267 0.8459 5.6167C-0.1441 6.3867 -0.2741 7.4567 0.5159 8.4567L8.4859 18.6367C8.8359 19.0867 9.4359 19.1967 9.9759 18.9167C11.0559 18.3467 12.3359 17.8867 13.6559 17.5767L14.9359 19.7767C14.5659 20.2367 14.3459 20.8167 14.3459 21.4467C14.3459 22.8967 15.5359 24.0767 16.9959 24.0767C18.4259 24.0767 19.6359 22.8867 19.6359 21.4467C19.6359 19.9767 18.4359 18.7967 16.9959 18.7967C16.8459 18.7967 16.7059 18.8067 16.5759 18.8167L15.6459 17.2367C16.1059 17.1867 16.5459 17.1667 16.9959 17.1667ZM16.9959 15.2767C16.2359 15.2767 15.4359 15.3467 14.6259 15.4767L8.1759 4.3867C10.9459 3.4867 13.9459 3.0067 16.9959 3.0067C22.2659 3.0067 27.4259 4.4567 31.4559 6.9967C31.7759 7.2167 31.8059 7.4867 31.5859 7.7967L24.6459 16.6167C24.4259 16.9067 24.2859 16.9367 23.9959 16.8167C21.6059 15.8467 19.1259 15.2767 16.9959 15.2767ZM38.2659 14.6367C38.8359 14.6367 39.2359 14.2367 39.2659 13.6367L39.5059 5.3467C39.5359 4.5967 39.0359 4.0867 38.2659 4.0867C37.4959 4.0867 36.9859 4.5967 37.0159 5.3467L37.2559 13.6367C37.2859 14.2367 37.6959 14.6367 38.2659 14.6367ZM9.3359 16.6167L2.3959 7.7967C2.1759 7.4867 2.2059 7.2167 2.5259 6.9967C3.7059 6.2467 4.9959 5.5867 6.3559 5.0367L12.6859 15.8967C11.7859 16.1467 10.8759 16.4567 9.9859 16.8167C9.6959 16.9367 9.5559 16.9067 9.3359 16.6167ZM38.2659 19.8367C39.0959 19.8367 39.7959 19.1567 39.7959 18.3667C39.7959 17.5567 39.1059 16.8867 38.2659 16.8867C37.4059 16.8867 36.7259 17.5567 36.7259 18.3667C36.7259 19.1567 37.4259 19.8367 38.2659 19.8367ZM16.9959 22.5267C16.3859 22.5267 15.9059 22.0267 15.9059 21.4467C15.9059 20.8367 16.3859 20.3267 16.9959 20.3267C17.5859 20.3267 18.0859 20.8367 18.0859 21.4467C18.0859 22.0267 17.5859 22.5267 16.9959 22.5267Z" />
        </svg>
    