
        <svg xmlns="http://www.w3.org/2000/svg" viewBox="0 0 100 100">
            <path d="M1.7167 1.1123C1.7167 1.7223 2.2167 2.2223 2.8267 2.2223H9.0867C9.6867 2.2223 10.1867 1.7223 10.1867 1.1123C10.1867 0.5023 9.6967 0.0023 9.0867 0.0023H2.8267C2.2167 0.0023 1.7167 0.5023 1.7167 1.1123ZM12.2867 1.1123C12.2867 1.7223 12.7867 2.2223 13.3967 2.2223H19.6467C20.2567 2.2223 20.7567 1.7223 20.7567 1.1123C20.7567 0.5023 20.2567 0.0023 19.6467 0.0023H13.3967C12.7867 0.0023 12.2867 0.5023 12.2867 1.1123ZM22.8567 1.1123C22.8567 1.7223 23.3467 2.2223 23.9567 2.2223H30.2167C30.8167 2.2223 31.3167 1.7223 31.3167 1.1123C31.3167 0.5023 30.8267 0.0023 30.2167 0.0023H23.9567C23.3467 0.0023 22.8567 0.5023 22.8567 1.1123ZM16.5167 21.3023C18.6967 21.3023 21.2367 21.9923 23.1467 22.9723C23.7467 23.2723 24.4167 23.1723 24.8267 22.6423L32.4967 12.8623C33.3467 11.8023 33.1967 10.6323 32.1367 9.8123C28.9167 7.3023 22.7967 5.4523 16.5267 5.4523C13.1567 5.4523 9.8367 5.9923 6.9767 6.8623L6.0367 5.2623C5.7567 4.7623 5.1267 4.5723 4.5367 4.8723C3.9967 5.1523 3.8567 5.8523 4.1667 6.3623L4.8867 7.6023C3.3167 8.2523 1.9567 8.9923 0.9067 9.8123C-0.1433 10.6323 -0.3033 11.8023 0.5467 12.8623L8.2167 22.6423C8.6367 23.1723 9.2967 23.2723 9.9067 22.9723C10.8567 22.4723 11.9667 22.0623 13.1167 21.7723L14.3367 23.8523C13.9567 24.3323 13.7367 24.9223 13.7367 25.5823C13.7367 27.1123 14.9767 28.3823 16.5367 28.3823C18.0667 28.3823 19.3367 27.1123 19.3367 25.5823C19.3367 24.0323 18.0767 22.7723 16.5367 22.7723C16.4367 22.7723 16.3367 22.7723 16.2367 22.7823L15.4067 21.3623C15.7867 21.3323 16.1567 21.3023 16.5167 21.3023ZM16.5167 19.0523C15.7767 19.0523 14.9967 19.1223 14.1867 19.2523L8.2067 8.9723C10.8667 8.1123 13.7267 7.6623 16.5267 7.6623C21.3167 7.6623 26.3267 9.0023 30.1767 11.4523C30.4267 11.6123 30.4567 11.8023 30.2767 12.0423L23.7267 20.3623C23.5467 20.6023 23.4567 20.6123 23.2167 20.5223C20.9767 19.5923 18.5767 19.0523 16.5167 19.0523ZM9.3167 20.3623L2.7667 12.0423C2.5867 11.8023 2.6167 11.6123 2.8767 11.4523C3.8867 10.8023 4.9867 10.2323 6.1367 9.7523L11.9567 19.7723C11.2467 19.9823 10.5267 20.2223 9.8267 20.5223C9.6067 20.6123 9.5067 20.6023 9.3167 20.3623ZM16.5367 26.6523C15.9467 26.6523 15.4567 26.1723 15.4567 25.5823C15.4567 24.9823 15.9467 24.4823 16.5367 24.4823C17.1267 24.4823 17.6167 24.9823 17.6167 25.5823C17.6167 26.1723 17.1267 26.6523 16.5367 26.6523Z" />
        </svg>
    