
        <svg xmlns="http://www.w3.org/2000/svg" viewBox="0 0 100 100">
            <path d="M7.8917 26.0522C11.5617 26.0422 13.8617 25.1822 13.8617 23.8922C13.8617 22.6522 11.7217 21.8222 8.3217 21.7522V15.8422C12.8317 15.6822 15.7717 12.9422 15.7717 8.8222C15.7717 6.5822 14.8217 3.6322 13.4417 1.4722C12.8417 0.5722 10.7717 0.0022 7.9017 0.0022C5.0017 0.0022 2.9217 0.5722 2.3317 1.4722C0.9417 3.6322 0.0017 6.5822 0.0017 8.8222C0.0017 12.9522 2.9517 15.6922 7.4717 15.8422V21.7522C4.0517 21.8122 1.9317 22.6522 1.9317 23.8922C1.9317 25.1922 4.2117 26.0422 7.8917 26.0522ZM7.9017 2.6722C5.5117 2.6722 3.1217 2.1022 3.1217 1.7422C3.1217 1.4022 5.5417 0.8322 7.9017 0.8322C10.2317 0.8322 12.6517 1.4022 12.6517 1.7422C12.6517 2.1022 10.2517 2.6722 7.9017 2.6722ZM7.8917 15.0122C3.5817 15.0122 0.8417 12.6222 0.8417 8.8222C0.8417 6.9422 1.5817 4.4222 2.7417 2.4622C3.5517 3.0722 5.5217 3.4922 7.9017 3.4922C10.2417 3.4922 12.2217 3.0722 13.0217 2.4622C14.1917 4.4222 14.9317 6.9422 14.9317 8.8222C14.9317 12.6222 12.1717 15.0122 7.8917 15.0122ZM7.8917 23.9622C8.1017 23.9622 8.3217 23.7622 8.3217 23.5422V22.5822C11.0517 22.6422 12.9917 23.2622 12.9917 23.8922C12.9917 24.5622 10.8617 25.2022 7.8917 25.2222C4.8917 25.2022 2.8017 24.5822 2.8017 23.8922C2.8017 23.2622 4.7317 22.6422 7.4717 22.5822V23.5422C7.4717 23.7822 7.6617 23.9622 7.8917 23.9622Z" />
        </svg>
    