
        <svg xmlns="http://www.w3.org/2000/svg" viewBox="0 0 100 100">
            <path d="M1.5617 22.2148H24.6117V21.4348C24.6117 20.9648 24.3417 20.6848 23.8617 20.6848H23.1117V8.0348H24.1417C24.7817 8.0348 25.1617 7.5748 25.1617 7.0848C25.1617 6.7348 24.9617 6.4348 24.5317 6.1848L14.5217 0.4148C14.0517 0.1448 13.5617 0.0048 13.0817 0.0048C12.6017 0.0048 12.0917 0.1448 11.6517 0.4148L1.6417 6.1848C1.1917 6.4348 1.0117 6.7348 1.0117 7.0848C1.0117 7.5748 1.3817 8.0348 2.0317 8.0348H3.0617V20.6848H2.3217C1.8417 20.6848 1.5617 20.9648 1.5617 21.4348ZM4.8317 20.6848V6.5348L12.6217 2.1648C12.7617 2.0848 12.9217 2.0348 13.0817 2.0348C13.2317 2.0348 13.3917 2.0848 13.5517 2.1648L21.3417 6.5348V20.6848ZM6.4317 12.3248C6.4317 12.5648 6.6117 12.7348 6.8417 12.7348H8.3017L9.1717 17.0248C9.2617 17.4848 9.6017 17.7648 10.0917 17.7648C10.5117 17.7648 10.8517 17.4948 10.9717 17.0548L12.1217 12.7348H14.0717L15.2017 17.0548C15.3317 17.5048 15.6317 17.7648 16.1017 17.7648C16.5917 17.7648 16.9217 17.5048 17.0117 17.0248L17.8817 12.7348H19.3517C19.5817 12.7348 19.7617 12.5648 19.7617 12.3248C19.7617 12.1048 19.5817 11.9448 19.3517 11.9448H18.0517L18.8517 7.9648C18.8717 7.8748 18.8817 7.7448 18.8817 7.6448C18.8817 7.2148 18.5617 7.0148 18.2117 7.0148C17.9017 7.0148 17.6117 7.2048 17.5517 7.5748L16.7717 11.9448H14.9417L13.8017 7.6148C13.7117 7.2448 13.4917 7.0348 13.1017 7.0348C12.7417 7.0348 12.4917 7.2548 12.3917 7.6448L11.2517 11.9448H9.4117L8.6417 7.5748C8.5817 7.2348 8.3117 7.0148 7.9717 7.0148C7.5717 7.0148 7.2917 7.2448 7.2917 7.6248C7.2917 7.7148 7.3017 7.8348 7.3317 7.9648L8.1417 11.9448H6.8417C6.6117 11.9448 6.4317 12.1048 6.4317 12.3248ZM13.0517 9.1748H13.1417L13.8617 11.9448H12.3317ZM10.1217 15.9948L9.5517 12.7348H11.0517L10.1917 15.9948ZM15.9917 15.9948L15.1417 12.7348H16.6417L16.0517 15.9948ZM0.9417 25.0048H25.2217C25.7317 25.0048 26.1717 24.5748 26.1717 24.0548C26.1717 23.5448 25.7317 23.1248 25.2217 23.1248H0.9417C0.4217 23.1248 0.0017 23.5448 0.0017 24.0548C0.0017 24.5748 0.4217 25.0048 0.9417 25.0048Z" />
        </svg>
    