
        <svg xmlns="http://www.w3.org/2000/svg" viewBox="0 0 100 100">
            <path d="M1.547 27.2837C3.637 29.3737 6.717 29.4337 8.767 27.0137C10.437 25.0737 13.617 19.6937 16.757 16.5537C18.717 14.5937 20.927 15.6837 23.427 14.6737L21.417 7.2837C21.177 6.4137 21.547 5.6837 22.517 5.4237L27.107 4.1437C26.947 3.6037 26.537 2.8537 25.937 2.2437C23.087 -0.6663 18.367 -0.7363 15.527 1.9637C11.397 5.9037 14.397 9.8837 11.977 12.2937C8.767 15.5137 4.257 17.8637 1.807 20.0637C-0.573 22.1737 -0.543 25.2037 1.547 27.2837ZM24.917 13.9337C25.347 13.6537 25.797 13.2937 26.227 12.8637C27.697 11.4237 28.407 9.2937 28.027 7.5937L24.437 8.6037C24.097 8.7037 23.807 8.7237 23.497 8.6837ZM16.257 9.4137C15.997 9.4837 15.767 9.3537 15.687 9.0737C15.627 8.8637 15.767 8.6037 16.007 8.5337L18.697 7.8137C18.917 7.7637 19.167 7.8937 19.247 8.1337C19.327 8.4037 19.167 8.6437 18.917 8.7137ZM16.597 10.7837C16.337 10.8537 16.117 10.7137 16.027 10.4437C15.957 10.2237 16.107 9.9637 16.347 9.9037L19.037 9.1837C19.257 9.1237 19.507 9.2637 19.577 9.5137C19.657 9.7737 19.507 10.0137 19.257 10.0737ZM16.937 12.1437C16.687 12.2137 16.427 12.0737 16.377 11.8037C16.317 11.5637 16.457 11.3337 16.707 11.2637L19.377 10.5537C19.637 10.4837 19.877 10.6237 19.937 10.8537C20.007 11.1037 19.847 11.3637 19.617 11.4237ZM5.127 25.0937C4.367 25.0937 3.747 24.4737 3.747 23.7137C3.747 22.9637 4.367 22.3337 5.127 22.3337C5.887 22.3337 6.497 22.9637 6.497 23.7137C6.497 24.4737 5.887 25.0937 5.127 25.0937Z" />
        </svg>
    