
        <svg xmlns="http://www.w3.org/2000/svg" viewBox="0 0 100 100">
            <path d="M12.2223 24.4436C18.9723 24.4436 24.4423 18.9736 24.4423 12.2236C24.4423 5.4736 18.9723 0.0036 12.2223 0.0036C5.4723 0.0036 0.0023 5.4736 0.0023 12.2236C0.0023 18.9736 5.4723 24.4436 12.2223 24.4436ZM12.2223 21.7636C6.9523 21.7636 2.6823 17.4936 2.6823 12.2236C2.6823 6.9536 6.9523 2.6836 12.2223 2.6836C17.4923 2.6836 21.7623 6.9536 21.7623 12.2236C21.7623 17.4936 17.4923 21.7636 12.2223 21.7636ZM6.5123 14.9836H17.9423C18.5723 14.9836 19.0323 14.5236 19.0323 13.8836V10.5336C19.0323 9.9036 18.5723 9.4436 17.9423 9.4436H6.5123C5.8823 9.4436 5.4223 9.9036 5.4223 10.5336V13.8936C5.4223 14.5336 5.8823 14.9836 6.5123 14.9836Z" />
        </svg>
    