
        <svg xmlns="http://www.w3.org/2000/svg" viewBox="0 0 100 100">
            <path d="M12.7923 25.5978C19.8723 25.5978 25.6023 19.8678 25.6023 12.7978C25.6023 5.7278 19.8723 -0.0022 12.7923 -0.0022C5.7323 -0.0022 0.0023 5.7278 0.0023 12.7978C0.0023 19.8678 5.7323 25.5978 12.7923 25.5978ZM12.7923 21.4178C8.0323 21.4178 4.1723 17.5678 4.1723 12.7978C4.1723 8.0278 8.0323 4.1678 12.7923 4.1678C17.5623 4.1678 21.4323 8.0278 21.4323 12.7978C21.4323 17.5678 17.5623 21.4178 12.7923 21.4178ZM9.7223 18.1478C10.4723 18.1478 10.8723 17.8778 11.4623 16.9678L12.7623 14.8978H12.8623L14.1023 16.9678C14.6223 17.8578 15.0623 18.1478 15.8323 18.1478C16.8323 18.1478 17.4923 17.5178 17.4923 16.5778C17.4923 16.1278 17.3423 15.7378 16.9723 15.2578L15.0923 12.8178L16.9723 10.3578C17.3423 9.8778 17.4923 9.4878 17.4923 9.0478C17.4923 8.1078 16.8323 7.4678 15.8323 7.4678C15.0623 7.4678 14.6223 7.7678 14.1123 8.6578L12.8923 10.7178H12.7723L11.4723 8.6578C10.9023 7.7378 10.5023 7.4678 9.7523 7.4678C8.7523 7.4678 8.0723 8.1078 8.0723 9.0478C8.0723 9.4878 8.2423 9.8778 8.6123 10.3678L10.4623 12.8178L8.5923 15.2578C8.2223 15.7478 8.0623 16.1378 8.0623 16.5778C8.0623 17.5178 8.7323 18.1478 9.7223 18.1478Z" />
        </svg>
    