
        <svg xmlns="http://www.w3.org/2000/svg" viewBox="0 0 100 100">
            <path d="M12.6023 25.1986C19.5623 25.1986 25.2023 19.5586 25.2023 12.5986C25.2023 5.6386 19.5623 -0.0014 12.6023 -0.0014C5.6323 -0.0014 0.0023 5.6386 0.0023 12.5986C0.0023 19.5586 5.6323 25.1986 12.6023 25.1986ZM12.6023 21.5386C7.6523 21.5386 3.6523 17.5386 3.6523 12.5986C3.6523 7.6486 7.6523 3.6586 12.6023 3.6586C17.5423 3.6586 21.5423 7.6486 21.5423 12.5986C21.5423 17.5386 17.5423 21.5386 12.6023 21.5386ZM9.4223 17.9486C10.0923 17.9486 10.4423 17.7186 10.9523 16.9186L12.5523 14.4986H12.6423L14.1823 16.9186C14.6523 17.6986 15.0323 17.9486 15.7123 17.9486C16.5923 17.9486 17.2023 17.3886 17.2023 16.5486C17.2023 16.1486 17.0623 15.8086 16.7423 15.3986L14.6223 12.5886L16.7623 9.7586C17.0723 9.3386 17.2123 8.9986 17.2123 8.5986C17.2123 7.7786 16.6023 7.2086 15.7223 7.2086C15.0423 7.2086 14.6723 7.4686 14.2023 8.2386L12.7023 10.6686H12.6023L11.0123 8.2386C10.5123 7.4386 10.1523 7.2086 9.4823 7.2086C8.6023 7.2086 7.9923 7.7886 7.9923 8.6086C7.9923 9.0186 8.1323 9.3586 8.4623 9.7986L10.5423 12.5786L8.4023 15.4086C8.0823 15.8286 7.9523 16.1586 7.9523 16.5586C7.9523 17.3886 8.5523 17.9486 9.4223 17.9486Z" />
        </svg>
    