
        <svg xmlns="http://www.w3.org/2000/svg" viewBox="0 0 100 100">
            <path d="M12.2223 24.4436C18.9723 24.4436 24.4423 18.9636 24.4423 12.2236C24.4423 5.4736 18.9723 0.0036 12.2223 0.0036C5.4823 0.0036 0.0023 5.4736 0.0023 12.2236C0.0023 18.9636 5.4823 24.4436 12.2223 24.4436ZM8.7223 17.8336C8.0423 17.8336 7.5323 17.3636 7.5323 16.7236C7.5323 16.3936 7.6323 16.1636 7.8623 15.8436L10.6023 12.1036L7.9923 8.5536C7.7223 8.2036 7.6323 7.9536 7.6323 7.6136C7.6323 6.9636 8.1523 6.4736 8.8523 6.4736C9.3823 6.4736 9.6923 6.6536 10.0623 7.2436L12.2723 10.4836H12.3523L14.4923 7.2436C14.8523 6.6636 15.1623 6.4736 15.6823 6.4736C16.3823 6.4736 16.8823 6.9336 16.8823 7.5936C16.8823 7.8836 16.7823 8.1636 16.5323 8.4836L13.8123 12.1536L16.5223 15.7936C16.7623 16.1136 16.8623 16.3736 16.8623 16.6836C16.8623 17.3636 16.3623 17.8336 15.6323 17.8336C15.1023 17.8336 14.8123 17.6336 14.4223 17.0436L12.2323 13.8036H12.1623L9.9223 17.0436C9.5323 17.6436 9.2423 17.8336 8.7223 17.8336Z" />
        </svg>
    