
        <svg xmlns="http://www.w3.org/2000/svg" viewBox="0 0 100 100">
            <path d="M6.5617 20.2522C9.0217 20.2522 10.2517 18.9722 10.9617 16.9222L15.0917 4.7122H25.0117C26.4217 4.7122 27.3317 3.7522 27.3317 2.3422C27.3317 0.9522 26.4217 0.0022 25.0117 0.0022H14.8517C12.2917 0.0022 11.1817 1.0622 10.4517 3.3822L6.8117 15.1022H6.4017L4.7317 9.2422C4.3817 7.9922 3.7217 7.3322 2.3817 7.3322C0.9417 7.3322 0.0017 8.3522 0.0017 9.6522C0.0017 10.1522 0.0817 10.5122 0.2717 11.0722L2.1817 16.9222C2.8617 19.0222 4.1517 20.2522 6.5617 20.2522ZM17.4517 18.7422C18.2017 18.7422 18.6117 18.4522 19.1917 17.5422L20.5217 15.4422H20.6217L21.8817 17.5422C22.4017 18.4322 22.8417 18.7422 23.6217 18.7422C24.6317 18.7422 25.3017 18.0922 25.3017 17.1422C25.3017 16.7022 25.1517 16.3122 24.7717 15.8222L22.8717 13.3522L24.7717 10.8522C25.1517 10.3622 25.3117 9.9622 25.3117 9.5122C25.3117 8.5822 24.6317 7.9322 23.6417 7.9322C22.8517 7.9322 22.4217 8.2422 21.8917 9.1322L20.6517 11.2222H20.5317L19.2117 9.1322C18.6317 8.2022 18.2217 7.9322 17.4717 7.9322C16.4617 7.9322 15.7817 8.5822 15.7817 9.5322C15.7817 9.9722 15.9517 10.3622 16.3217 10.8622L18.2117 13.3322L16.3017 15.8222C15.9417 16.3122 15.7717 16.7022 15.7717 17.1522C15.7717 18.0922 16.4517 18.7422 17.4517 18.7422Z" />
        </svg>
    