
        <svg xmlns="http://www.w3.org/2000/svg" viewBox="0 0 100 100">
            <path d="M3.1617 20.742H17.5917C19.6617 20.742 20.7417 19.642 20.7417 17.592V3.152C20.7417 1.102 19.6617 0.002 17.5917 0.002H3.1617C1.0917 0.002 0.0017 1.082 0.0017 3.152V17.592C0.0017 19.662 1.0917 20.742 3.1617 20.742ZM6.9917 15.682C6.7517 15.682 6.5717 15.512 6.5717 15.292C6.5717 15.172 6.6117 15.092 6.6817 14.992L9.8417 10.352L6.7517 5.782C6.6717 5.662 6.6317 5.582 6.6317 5.462C6.6317 5.212 6.8217 5.042 7.0617 5.042C7.2617 5.042 7.3717 5.112 7.4917 5.282L10.3717 9.642H10.4317L13.3217 5.292C13.4417 5.112 13.5517 5.042 13.7317 5.042C13.9817 5.042 14.1717 5.202 14.1717 5.422C14.1717 5.532 14.1317 5.622 14.0517 5.732L10.9017 10.362L14.0117 14.952C14.0817 15.062 14.1217 15.152 14.1217 15.262C14.1217 15.512 13.9417 15.682 13.7017 15.682C13.5017 15.682 13.3917 15.612 13.2617 15.422L10.3817 11.072H10.3217L7.4217 15.422C7.2917 15.612 7.1817 15.682 6.9917 15.682Z" />
        </svg>
    