
        <svg xmlns="http://www.w3.org/2000/svg" viewBox="0 0 100 100">
            <path d="M22.0523 18.8908C25.3223 18.8908 27.8423 16.6608 27.8423 13.7508C27.8423 11.4608 26.6023 9.4208 24.2623 8.6608C24.4323 3.6908 20.9323 0.0008 16.4523 0.0008C13.2423 0.0008 11.1123 1.7808 9.9423 3.9508C7.2423 2.8208 4.1523 5.0008 4.1823 8.1408C1.6923 8.3308 0.0023 10.4308 0.0023 13.1408C0.0023 16.3708 2.7423 18.8708 6.4023 18.8708ZM10.9723 14.5208C10.7323 14.7508 10.4723 14.6908 10.2923 14.5408C10.1023 14.3908 10.1023 14.1108 10.3023 13.9008L13.2623 10.9308L10.3023 7.9708C10.1023 7.7608 10.1323 7.4908 10.3023 7.3108C10.4723 7.1408 10.7323 7.1108 10.9723 7.3508L13.9123 10.2908L16.8523 7.3508C17.1023 7.1008 17.3623 7.1408 17.5423 7.3108C17.7223 7.4908 17.7323 7.7608 17.5323 7.9708L14.5623 10.9308L17.5323 13.9008C17.7323 14.1108 17.7023 14.3808 17.5323 14.5708C17.3523 14.7408 17.0823 14.7508 16.8523 14.5208L13.9123 11.5808Z" />
        </svg>
    