
        <svg xmlns="http://www.w3.org/2000/svg" viewBox="0 0 100 100">
            <path d="M0.1417 17.665C0.3117 17.835 0.6017 17.835 0.7817 17.665L8.8917 9.545L17.0117 17.665C17.2017 17.835 17.4817 17.855 17.6617 17.665C17.8517 17.485 17.8517 17.195 17.6617 17.015L9.5417 8.895L17.6617 0.775C17.8517 0.605 17.8517 0.315 17.6617 0.135C17.4817 -0.045 17.2017 -0.045 17.0117 0.135L8.8917 8.255L0.7817 0.135C0.6017 -0.045 0.3117 -0.045 0.1417 0.135C-0.0483 0.315 -0.0483 0.605 0.1417 0.775L8.2617 8.895L0.1417 17.015C-0.0483 17.195 -0.0483 17.485 0.1417 17.665Z" />
        </svg>
    