
        <svg xmlns="http://www.w3.org/2000/svg" viewBox="0 0 100 100">
            <path d="M23.1523 20.3638C26.6923 20.3638 29.4623 17.7738 29.4623 14.5538C29.4623 12.0938 28.0423 9.9637 25.7623 9.0038C25.7823 3.7738 22.0223 0.0038 17.2223 0.0038C14.0523 0.0038 11.7923 1.7037 10.3823 3.7538C7.5023 2.9037 4.3623 5.0938 4.3023 8.3837C1.6523 8.8038 0.0023 11.1638 0.0023 14.0238C0.0023 17.4738 3.0123 20.3638 7.0223 20.3638ZM23.1523 18.4838H7.0223C4.0623 18.4838 1.8823 16.4138 1.8823 14.0238C1.8823 11.6838 3.3023 9.8238 5.7923 9.8238C5.9523 9.8238 6.0123 9.7338 6.0123 9.5838C6.0123 5.9738 8.6123 4.9138 11.0123 5.6938C11.1523 5.7438 11.2423 5.7037 11.3123 5.5738C12.4423 3.5538 14.1923 1.8837 17.2223 1.8837C21.0723 1.8837 23.7323 4.9338 23.9323 8.4138C23.9623 8.9538 23.9323 9.5838 23.8823 10.1337C23.8723 10.2938 23.9323 10.3738 24.0723 10.4038C26.2023 10.8738 27.5723 12.4338 27.5723 14.5538C27.5723 16.7338 25.6523 18.4838 23.1523 18.4838ZM12.4823 15.0938L14.7323 12.8438L16.9823 15.0938C17.3323 15.4338 17.8123 15.3638 18.1323 15.0738C18.4323 14.7638 18.5023 14.2738 18.1623 13.9338L15.9023 11.6738L18.1623 9.4138C18.5023 9.0738 18.4323 8.5938 18.1323 8.2738C17.8323 7.9637 17.3323 7.8938 16.9823 8.2538L14.7323 10.5038L12.4823 8.2538C12.1423 7.9138 11.6523 7.9838 11.3423 8.2738C11.0323 8.5738 10.9723 9.0738 11.3123 9.4138L13.5623 11.6738L11.3123 13.9338C10.9723 14.2738 11.0423 14.7538 11.3323 15.0538C11.6323 15.3738 12.1423 15.4338 12.4823 15.0938Z" />
        </svg>
    