
        <svg xmlns="http://www.w3.org/2000/svg" viewBox="0 0 100 100">
            <path d="M0.0017 21.6142C0.0017 23.6942 1.0817 24.7742 3.1517 24.7742H15.7817C17.8517 24.7742 18.9417 23.6942 18.9417 21.6142V3.1642C18.9417 1.0942 17.8517 0.0042 15.7817 0.0042H3.1517C1.0817 0.0042 0.0017 1.0942 0.0017 3.1642ZM0.8717 21.5842V3.1842C0.8717 1.6642 1.6617 0.8642 3.2017 0.8642H15.7417C17.2717 0.8642 18.0717 1.6642 18.0717 3.1842V21.5842C18.0717 23.1142 17.2717 23.9042 15.7417 23.9042H3.2017C1.6617 23.9042 0.8717 23.1142 0.8717 21.5842ZM5.2717 17.0342C5.4117 17.0342 5.5217 17.0042 5.6417 16.8742L9.4817 13.0342L13.3117 16.8742C13.4417 16.9942 13.5517 17.0342 13.6917 17.0342C13.9417 17.0342 14.1517 16.8542 14.1517 16.5942C14.1517 16.4542 14.1117 16.3442 14.0017 16.2442L10.1417 12.3742L14.0017 8.5042C14.1117 8.3942 14.1517 8.2942 14.1517 8.1542C14.1517 7.9142 13.9417 7.7142 13.6917 7.7142C13.5517 7.7142 13.4517 7.7542 13.3217 7.8742L9.4817 11.7142L5.6217 7.8742C5.5117 7.7542 5.4117 7.7142 5.2717 7.7142C5.0017 7.7142 4.7917 7.9142 4.7917 8.1542C4.7917 8.2942 4.8417 8.4042 4.9617 8.5042L8.8117 12.3742L4.9617 16.2442C4.8417 16.3442 4.7917 16.4542 4.7917 16.5942C4.7917 16.8542 5.0017 17.0342 5.2717 17.0342Z" />
        </svg>
    