
        <svg xmlns="http://www.w3.org/2000/svg" viewBox="0 0 100 100">
            <path d="M9.0617 23.2425H22.1417C25.0217 23.2425 26.2617 21.5225 26.7317 18.6725L28.3117 8.9225C30.0717 8.5625 31.1917 7.1525 31.1917 5.2025V3.7925C31.1917 1.5425 29.6817 0.0025 27.4117 0.0025H3.8017C1.5517 0.0025 0.0017 1.5425 0.0017 3.7925V5.2025C0.0017 7.1325 1.1417 8.5525 2.8817 8.9225L4.4617 18.6725C4.9317 21.5225 6.1717 23.2425 9.0617 23.2425ZM4.1117 5.4625C3.8017 5.4625 3.5617 5.2225 3.5617 4.9025V4.1025C3.5617 3.7725 3.8017 3.5425 4.1117 3.5425H27.0817C27.4017 3.5425 27.6317 3.7725 27.6317 4.1025V4.9025C27.6317 5.2225 27.4017 5.4625 27.0817 5.4625ZM9.5517 19.0925C8.8517 19.0925 8.6217 18.7925 8.4817 18.0325L6.9417 9.0125H24.2617L22.7117 18.0325C22.5717 18.7925 22.3517 19.0925 21.6417 19.0925ZM12.9917 18.0625C13.4017 18.0625 13.7117 17.9425 14.0117 17.6325L15.6017 16.0125L17.1917 17.6325C17.4917 17.9325 17.8017 18.0625 18.2117 18.0625C18.9817 18.0625 19.6317 17.4125 19.6317 16.6325C19.6317 16.1925 19.5117 15.8925 19.2117 15.5825L17.6217 14.0225L19.2117 12.4725C19.5217 12.1625 19.6317 11.8625 19.6317 11.4325C19.6317 10.6425 18.9817 9.9925 18.2117 9.9925C17.8017 9.9925 17.4917 10.1225 17.1917 10.4325L15.6017 12.0625L14.0117 10.4325C13.7117 10.1225 13.4017 10.0125 12.9917 10.0125C12.2217 10.0125 11.5817 10.6425 11.5817 11.4325C11.5817 11.8625 11.6817 12.1625 12.0017 12.4725L13.5817 14.0225L12.0017 15.5825C11.6917 15.8925 11.5817 16.2025 11.5817 16.6325C11.5817 17.4125 12.2217 18.0625 12.9917 18.0625Z" />
        </svg>
    