
        <svg xmlns="http://www.w3.org/2000/svg" viewBox="0 0 100 100">
            <path d="M11.4923 22.9836C17.8123 22.9836 22.9823 17.8136 22.9823 11.4836C22.9823 5.1536 17.8123 0.0036 11.4923 0.0036C5.1723 0.0036 0.0023 5.1536 0.0023 11.4836C0.0023 17.8136 5.1723 22.9836 11.4923 22.9836ZM4.8523 9.2336C4.2823 9.2336 3.9523 8.8636 3.9523 8.2936V7.3936C3.9523 6.8336 4.2823 6.4536 4.8523 6.4536H18.1323C18.7123 6.4536 19.0323 6.8336 19.0323 7.3936V8.2936C19.0323 8.8636 18.7123 9.2336 18.1323 9.2336ZM8.2723 17.6936C7.1723 17.6936 6.6523 17.0936 6.5023 16.0036L5.6023 9.9136H17.3923L16.4923 16.0036C16.3223 17.0736 15.8223 17.6936 14.7223 17.6936ZM9.6023 15.8236C9.6923 15.8236 9.7923 15.7836 9.8423 15.7236L11.4823 14.0736L13.1323 15.7236C13.1923 15.7836 13.2923 15.8236 13.3923 15.8236C13.5823 15.8236 13.7423 15.6536 13.7423 15.4736C13.7423 15.3836 13.7123 15.2836 13.6423 15.2236L12.0023 13.5736L13.6423 11.9136C13.7223 11.8336 13.7423 11.7536 13.7423 11.6636C13.7423 11.4636 13.5923 11.3236 13.3923 11.3236C13.2923 11.3236 13.2023 11.3536 13.1323 11.4236L11.4823 13.0636L9.8423 11.4236C9.7723 11.3536 9.6923 11.3236 9.6023 11.3236C9.3823 11.3236 9.2323 11.4736 9.2323 11.6636C9.2323 11.7536 9.2723 11.8436 9.3423 11.9136L10.9823 13.5736L9.3423 15.2236C9.2723 15.2836 9.2323 15.3836 9.2323 15.4736C9.2323 15.6536 9.3823 15.8236 9.6023 15.8236Z" />
        </svg>
    