
        <svg xmlns="http://www.w3.org/2000/svg" viewBox="0 0 100 100">
            <path d="M11.4923 22.9802C17.8323 22.9802 22.9823 17.8402 22.9823 11.5002C22.9823 5.1402 17.8323 0.0002 11.4923 0.0002C5.1423 0.0002 0.0023 5.1402 0.0023 11.5002C0.0023 17.8402 5.1423 22.9802 11.4923 22.9802ZM11.4923 22.0902C5.6323 22.0902 0.8923 17.3602 0.8923 11.5002C0.8923 5.6402 5.6323 0.8902 11.4923 0.8902C17.3523 0.8902 22.0923 5.6402 22.0923 11.5002C22.0923 17.3602 17.3523 22.0902 11.4923 22.0902ZM4.9023 9.2602H18.0823C18.6523 9.2602 18.9823 8.8902 18.9823 8.3302V7.4302C18.9823 6.8702 18.6523 6.4902 18.0823 6.4902H4.9023C4.3223 6.4902 3.9923 6.8702 3.9923 7.4302V8.3302C3.9923 8.8902 4.3223 9.2602 4.9023 9.2602ZM8.2823 17.6602H14.6923C15.7823 17.6602 16.2923 17.0402 16.4423 15.9802L17.3423 9.9402H5.6323L6.5423 15.9802C6.6923 17.0702 7.1923 17.6602 8.2823 17.6602ZM9.6023 15.8002C9.4023 15.8002 9.2423 15.6402 9.2423 15.4602C9.2423 15.3602 9.2823 15.2702 9.3523 15.2002L10.9823 13.5702L9.3523 11.9202C9.2823 11.8502 9.2423 11.7502 9.2423 11.6702C9.2423 11.4802 9.4023 11.3302 9.6023 11.3302C9.7023 11.3302 9.7823 11.3702 9.8523 11.4302L11.4823 13.0702L13.1223 11.4302C13.1923 11.3702 13.2823 11.3202 13.3823 11.3202C13.5823 11.3202 13.7323 11.4602 13.7323 11.6702C13.7323 11.7502 13.7123 11.8402 13.6323 11.9202L12.0023 13.5702L13.6323 15.2002C13.7023 15.2702 13.7323 15.3602 13.7323 15.4602C13.7323 15.6402 13.5623 15.8002 13.3823 15.8002C13.2823 15.8002 13.1823 15.7602 13.1223 15.7002L11.4823 14.0602L9.8523 15.7002C9.7923 15.7602 9.7023 15.8002 9.6023 15.8002Z" />
        </svg>
    