
        <svg xmlns="http://www.w3.org/2000/svg" viewBox="0 0 100 100">
            <path d="M1.3794 16.4108L10.8094 25.8308C12.6494 27.6708 14.5794 27.6808 16.3994 25.8608L25.8494 16.4008C27.6794 14.5708 27.6694 12.6408 25.8294 10.8008L16.4194 1.3908C14.5794 -0.4492 12.6494 -0.4692 10.8194 1.3608L1.3594 10.8208C-0.4706 12.6508 -0.4406 14.5808 1.3794 16.4108ZM3.3894 14.7308C2.6594 14.0008 2.6394 13.2508 3.3994 12.4808L12.4794 3.4008C13.2394 2.6308 13.9894 2.6508 14.7294 3.3908L23.8194 12.4808C24.5494 13.2208 24.5894 13.9708 23.8094 14.7308L14.7294 23.8208C13.9694 24.5808 13.2194 24.5508 12.4794 23.8308ZM9.8694 18.5108C10.2094 18.5108 10.4894 18.3908 10.7094 18.1708L13.6194 15.2508L16.5394 18.1708C16.7594 18.3908 17.0294 18.5108 17.3694 18.5108C18.0094 18.5108 18.5194 18.0008 18.5194 17.3608C18.5194 17.0408 18.3994 16.7708 18.1794 16.5508L15.2494 13.6308L18.1794 10.6808C18.4094 10.4608 18.5294 10.1908 18.5294 9.8908C18.5294 9.2508 18.0194 8.7508 17.3794 8.7508C17.0494 8.7508 16.7894 8.8508 16.5594 9.0908L13.6194 12.0208L10.6894 9.1008C10.4694 8.8608 10.2094 8.7608 9.8694 8.7608C9.2194 8.7608 8.7194 9.2508 8.7194 9.8908C8.7194 10.2008 8.8494 10.4808 9.0694 10.6908L11.9994 13.6308L9.0694 16.5608C8.8494 16.7708 8.7194 17.0508 8.7194 17.3608C8.7194 18.0008 9.2194 18.5108 9.8694 18.5108Z" />
        </svg>
    