
        <svg xmlns="http://www.w3.org/2000/svg" viewBox="0 0 100 100">
            <path d="M9.5817 23.3019C9.7717 23.3019 10.0617 23.2219 10.3617 23.0719C17.0317 19.5819 19.1717 17.8319 19.1717 13.6319V4.7919C19.1717 3.5819 18.6517 3.2019 17.6717 2.7919C16.3017 2.2219 11.9217 0.6319 10.5617 0.1619C10.2417 0.0619 9.9117 0.0019 9.5817 0.0019C9.2617 0.0019 8.9317 0.0719 8.6217 0.1619C7.2517 0.6119 2.8717 2.2419 1.5017 2.7919C0.5317 3.1919 0.0017 3.5819 0.0017 4.7919V13.6319C0.0017 17.8319 2.2617 19.3819 8.8117 23.0719C9.1217 23.2419 9.4017 23.3019 9.5817 23.3019ZM5.6617 16.1319C5.1217 16.1319 4.6917 15.7019 4.6917 15.1519C4.6917 14.8919 4.7917 14.6619 4.9717 14.4719L8.2217 11.2219L4.9717 7.9719C4.7917 7.7919 4.6917 7.5419 4.6917 7.2919C4.6917 6.7519 5.1217 6.3419 5.6617 6.3419C5.9317 6.3419 6.1417 6.4319 6.3317 6.6119L9.6017 9.8719L12.8917 6.6019C13.0917 6.4019 13.3017 6.3119 13.5617 6.3119C14.1017 6.3119 14.5217 6.7419 14.5217 7.2619C14.5217 7.5319 14.4517 7.7619 14.2417 7.9619L10.9817 11.2219L14.2217 14.4619C14.4217 14.6519 14.5117 14.8819 14.5117 15.1519C14.5117 15.7019 14.0817 16.1319 13.5317 16.1319C13.2617 16.1319 13.0217 16.0419 12.8417 15.8519L9.6017 12.6019L6.3617 15.8519C6.1717 16.0419 5.9317 16.1319 5.6617 16.1319Z" />
        </svg>
    