
        <svg xmlns="http://www.w3.org/2000/svg" viewBox="0 0 100 100">
            <path d="M8.0417 20.4997H19.8117C21.7817 20.4997 22.6717 19.3697 22.9717 17.4797L24.8817 5.0497H26.2817C27.2417 5.0497 27.8417 4.4097 27.8417 3.4297V1.6197C27.8417 0.6397 27.2417 -0.0003 26.2817 -0.0003H1.5617C0.6017 -0.0003 0.0017 0.6397 0.0017 1.6197V3.4297C0.0017 4.4097 0.6017 5.0497 1.5617 5.0497H2.9617L4.8717 17.4797C5.1717 19.4397 6.0717 20.4997 8.0417 20.4997ZM1.5517 4.4797C0.9417 4.4797 0.5717 4.0497 0.5717 3.4497V1.6097C0.5717 0.9997 0.9417 0.5697 1.5517 0.5697H26.3017C26.9017 0.5697 27.2717 0.9997 27.2717 1.6097V3.4497C27.2717 4.0497 26.9017 4.4797 26.3017 4.4797ZM8.0617 19.9197C6.4317 19.9197 5.6817 19.0697 5.4517 17.4497L3.5417 5.0497H24.3017L22.3917 17.4497C22.1617 19.0697 21.3517 19.9197 19.7817 19.9197ZM10.2317 16.2497C10.3117 16.2497 10.3717 16.2197 10.4317 16.1597L13.9317 12.6697L17.4217 16.1597C17.4817 16.2197 17.5517 16.2497 17.6417 16.2497C17.7917 16.2497 17.9217 16.0997 17.9217 15.9597C17.9217 15.8797 17.8917 15.8197 17.8317 15.7597L14.3317 12.2597L17.8317 8.7697C17.8917 8.7097 17.9217 8.6397 17.9217 8.5697C17.9217 8.3897 17.8017 8.2697 17.6417 8.2697C17.5517 8.2697 17.4817 8.3097 17.4217 8.3597L13.9317 11.8597L10.4317 8.3597C10.3717 8.2997 10.3117 8.2697 10.2317 8.2697C10.0917 8.2697 9.9417 8.3997 9.9417 8.5697C9.9417 8.6397 9.9717 8.7097 10.0317 8.7697L13.5217 12.2597L10.0317 15.7597C9.9717 15.8197 9.9417 15.8797 9.9417 15.9597C9.9417 16.1297 10.0817 16.2497 10.2317 16.2497Z" />
        </svg>
    