
        <svg xmlns="http://www.w3.org/2000/svg" viewBox="0 0 100 100">
            <path d="M19.2917 1.2348C18.3417 0.2948 17.0717 0.0048 14.7817 0.0048H5.6117C3.4717 0.0048 2.1717 0.3048 1.2317 1.2448C0.2917 2.1748 0.0017 3.4548 0.0017 5.6048V14.7748C0.0017 17.0748 0.2817 18.3548 1.2217 19.2748C2.1717 20.2148 3.4417 20.5048 5.7317 20.5048H14.7817C17.0717 20.5048 18.3517 20.2148 19.2917 19.2748C20.2217 18.3348 20.5217 17.0748 20.5217 14.7748V5.7348C20.5217 3.4348 20.2217 2.1548 19.2917 1.2348ZM6.3017 14.6948C6.0317 14.6948 5.8217 14.4948 5.8217 14.2348C5.8217 14.0948 5.8717 13.9948 5.9717 13.8748L9.6017 10.2648L5.9717 6.6548C5.8717 6.5348 5.8217 6.4348 5.8217 6.2948C5.8217 6.0448 6.0317 5.8448 6.3017 5.8448C6.4617 5.8448 6.5517 5.8948 6.6717 6.0148L10.2617 9.5948L13.8617 6.0148C13.9817 5.8848 14.0817 5.8448 14.2217 5.8448C14.4817 5.8448 14.6917 6.0348 14.6917 6.2948C14.6917 6.4348 14.6617 6.5348 14.5417 6.6548L10.9317 10.2648L14.5417 13.8748C14.6617 13.9948 14.6917 14.0948 14.6917 14.2348C14.6917 14.4948 14.4817 14.6948 14.2117 14.6948C14.0717 14.6948 13.9717 14.6448 13.8517 14.5148L10.2617 10.9348L6.6817 14.5148C6.5517 14.6448 6.4617 14.6948 6.3017 14.6948Z" />
        </svg>
    