
        <svg xmlns="http://www.w3.org/2000/svg" viewBox="0 0 100 100">
            <path d="M5.4811 22.4142H8.4211C8.7111 22.4142 8.9111 22.4942 9.1211 22.7042L11.2211 24.7742C12.3511 25.9142 13.2711 25.9142 14.4011 24.7742L16.5011 22.7042C16.7111 22.4942 16.9111 22.4142 17.2011 22.4142H20.1411C21.7511 22.4142 22.4011 21.7642 22.4011 20.1442V17.2042C22.4011 16.9242 22.4811 16.7142 22.6811 16.5042L24.7711 14.4042C25.9111 13.2842 25.9111 12.3542 24.7711 11.2342L22.6811 9.1442C22.4811 8.9242 22.4011 8.7242 22.4011 8.4442V5.4942C22.4011 3.8842 21.7511 3.2242 20.1411 3.2242H17.2011C16.9111 3.2242 16.7111 3.1542 16.5011 2.9442L14.4011 0.8742C13.2611 -0.2858 12.3511 -0.2858 11.2111 0.8742L9.1211 2.9442C8.9311 3.1442 8.7111 3.2242 8.4211 3.2242H5.4811C3.8711 3.2242 3.2211 3.8842 3.2211 5.4942V8.4442C3.2211 8.7242 3.1411 8.9242 2.9311 9.1442L0.8511 11.2342C-0.2889 12.3542 -0.2889 13.2842 0.8511 14.4042L2.9311 16.5042C3.1411 16.7142 3.2211 16.9242 3.2211 17.2042V20.1442C3.2211 21.7542 3.8711 22.4142 5.4811 22.4142ZM8.8611 17.2542C8.5911 17.2542 8.3711 17.0542 8.3711 16.7942C8.3711 16.6542 8.4211 16.5542 8.5411 16.4342L12.1511 12.8242L8.5411 9.2142C8.4211 9.0942 8.3711 8.9942 8.3711 8.8542C8.3711 8.6042 8.5911 8.4042 8.8611 8.4042C9.0111 8.4042 9.1011 8.4542 9.2211 8.5742L12.8211 12.1542L16.4111 8.5742C16.5311 8.4442 16.6411 8.4042 16.7811 8.4042C17.0511 8.4042 17.2611 8.5942 17.2611 8.8542C17.2611 8.9942 17.2111 9.0942 17.0911 9.2142L13.4811 12.8242L17.0911 16.4342C17.2111 16.5542 17.2511 16.6542 17.2511 16.7942C17.2511 17.0542 17.0511 17.2542 16.7811 17.2542C16.6411 17.2542 16.5211 17.2042 16.4011 17.0742L12.8211 13.4942L9.2311 17.0742C9.1011 17.2042 9.0111 17.2542 8.8611 17.2542Z" />
        </svg>
    