
        <svg xmlns="http://www.w3.org/2000/svg" viewBox="0 0 100 100">
            <path d="M11.7523 23.5031C18.2323 23.5031 23.5123 18.2331 23.5123 11.7531C23.5123 5.2731 18.2323 0.0031 11.7523 0.0031C5.2723 0.0031 0.0023 5.2731 0.0023 11.7531C0.0023 18.2331 5.2723 23.5031 11.7523 23.5031ZM5.1823 9.5631C4.5223 9.5631 4.1723 9.1531 4.1723 8.5031V7.7731C4.1723 7.1131 4.5423 6.7031 5.1823 6.7031H18.3323C18.9823 6.7031 19.3323 7.1131 19.3323 7.7731V8.5031C19.3323 9.1531 18.9823 9.5631 18.3323 9.5631ZM8.4523 18.2531C7.2623 18.2531 6.7623 17.6231 6.5823 16.4431L5.7023 10.4131H17.8023L16.9223 16.4431C16.7423 17.6131 16.2423 18.2531 15.0623 18.2531ZM9.8923 16.4631C10.0223 16.4631 10.1223 16.4031 10.2023 16.3331L11.7423 14.7931L13.3023 16.3331C13.3823 16.4031 13.4923 16.4631 13.6323 16.4631C13.8623 16.4631 14.0723 16.2531 14.0723 16.0231C14.0723 15.8931 14.0123 15.7831 13.9423 15.7031L12.4023 14.1431L13.9423 12.5831C14.0423 12.4931 14.0723 12.4031 14.0723 12.2731C14.0723 12.0131 13.8723 11.8231 13.6323 11.8231C13.5023 11.8231 13.3923 11.8831 13.3123 11.9631L11.7423 13.5131L10.1923 11.9631C10.1123 11.8831 10.0223 11.8331 9.8923 11.8331C9.6323 11.8331 9.4323 12.0331 9.4323 12.2731C9.4323 12.4031 9.4923 12.5031 9.5723 12.5831L11.1123 14.1431L9.5723 15.7031C9.4923 15.7831 9.4323 15.8931 9.4323 16.0231C9.4323 16.2531 9.6323 16.4631 9.8923 16.4631Z" />
        </svg>
    