
        <svg xmlns="http://www.w3.org/2000/svg" viewBox="0 0 100 100">
            <path d="M3.0117 15.0209H24.0617C26.0117 15.0209 27.0617 13.9809 27.0617 12.0109V8.1809C27.0617 7.4309 26.8717 6.9809 26.4417 6.5109L21.6117 1.4109C20.6217 0.3609 19.8917 0.0009 18.6917 0.0009H8.3717C7.1717 0.0009 6.4317 0.3609 5.4517 1.4109L0.6317 6.5109C0.1917 6.9809 0.0017 7.4309 0.0017 8.1809V12.0109C0.0017 13.9809 1.0417 15.0209 3.0117 15.0209ZM1.1717 7.4209C0.8717 7.4209 0.8117 7.1509 0.9817 6.9509L6.0517 1.5709C6.7517 0.8209 7.3017 0.5509 8.2217 0.5509H18.8317C19.7617 0.5509 20.3217 0.8209 21.0217 1.5709L26.0717 6.9509C26.2517 7.1509 26.1917 7.4209 25.9017 7.4209ZM3.0317 14.4509C1.4217 14.4509 0.5717 13.6009 0.5717 11.9909V8.4609C0.5717 8.1209 0.7417 7.9609 1.0817 7.9609H25.9917C26.3317 7.9609 26.4817 8.1209 26.4817 8.4609V11.9909C26.4817 13.6009 25.6517 14.4509 24.0217 14.4509ZM7.1617 12.9109C7.4017 12.9109 7.5917 12.7309 7.5917 12.4709V9.9409C7.5917 9.6909 7.4017 9.4909 7.1617 9.4909C6.9017 9.4909 6.7117 9.6909 6.7117 9.9409V12.4709C6.7117 12.7309 6.9017 12.9109 7.1617 12.9109ZM9.3117 12.9109C9.5717 12.9109 9.7617 12.7309 9.7617 12.4709V9.9409C9.7617 9.6909 9.5717 9.4909 9.3117 9.4909C9.0717 9.4909 8.8717 9.6909 8.8717 9.9409V12.4709C8.8717 12.7309 9.0717 12.9109 9.3117 12.9109ZM14.5917 12.9109C14.8517 12.9109 15.0317 12.7309 15.0317 12.4709V9.9409C15.0317 9.6909 14.8517 9.4909 14.5917 9.4909C14.3417 9.4909 14.1417 9.6909 14.1417 9.9409V12.4709C14.1417 12.7309 14.3417 12.9109 14.5917 12.9109ZM16.7617 12.9109C17.0117 12.9109 17.2017 12.7309 17.2017 12.4709V9.9409C17.2017 9.6909 17.0117 9.4909 16.7617 9.4909C16.5117 9.4909 16.3117 9.6909 16.3117 9.9409V12.4709C16.3117 12.7309 16.5117 12.9109 16.7617 12.9109ZM3.8817 12.4409C4.5517 12.4409 5.1117 11.8909 5.1117 11.2009C5.1117 10.5309 4.5517 9.9709 3.8817 9.9709C3.1917 9.9709 2.6417 10.5309 2.6417 11.2009C2.6417 11.8909 3.1917 12.4409 3.8817 12.4409ZM11.9517 12.0309C12.4117 12.0309 12.7817 11.6609 12.7817 11.2009C12.7817 10.7609 12.4117 10.3809 11.9517 10.3809C11.5117 10.3809 11.1317 10.7609 11.1317 11.2009C11.1317 11.6609 11.5117 12.0309 11.9517 12.0309ZM19.3917 11.6509H24.3117C24.5717 11.6509 24.7617 11.4609 24.7617 11.2009C24.7617 10.9609 24.5717 10.7609 24.3117 10.7609H19.3917C19.1417 10.7609 18.9517 10.9609 18.9517 11.2009C18.9517 11.4609 19.1417 11.6509 19.3917 11.6509Z" />
        </svg>
    