
        <svg xmlns="http://www.w3.org/2000/svg" viewBox="0 0 100 100">
            <path d="M11.3523 22.7064C17.6023 22.7064 22.7123 17.6064 22.7123 11.3564C22.7123 5.1064 17.6023 -0.0036 11.3523 -0.0036C5.1123 -0.0036 0.0023 5.1064 0.0023 11.3564C0.0023 17.6064 5.1123 22.7064 11.3523 22.7064ZM11.3523 16.5964C11.1823 16.5964 11.0523 16.4864 11.0523 16.2964V11.9364L7.3123 6.6164C7.2623 6.5664 7.2323 6.4964 7.2323 6.4264C7.2323 6.2564 7.3523 6.1364 7.5223 6.1364C7.6423 6.1364 7.7223 6.1864 7.8023 6.3064L11.3223 11.2664H11.3823L14.8923 6.3064C14.9923 6.1864 15.0723 6.1364 15.1923 6.1364C15.3623 6.1364 15.4823 6.2564 15.4823 6.4264C15.4823 6.4964 15.4423 6.5664 15.4023 6.6164L11.6623 11.9364V16.2964C11.6623 16.4864 11.5323 16.5964 11.3523 16.5964Z" />
        </svg>
    