
        <svg xmlns="http://www.w3.org/2000/svg" viewBox="0 0 100 100">
            <path d="M3.9717 22.1117H18.1317C20.7317 22.1117 22.1017 20.7417 22.1017 18.1717V3.9417C22.1017 1.3717 20.7317 0.0017 18.1317 0.0017H3.9717C1.3817 0.0017 0.0017 1.3717 0.0017 3.9417V18.1717C0.0017 20.7417 1.3817 22.1117 3.9717 22.1117ZM4.1917 19.5017C3.1617 19.5017 2.6117 18.9817 2.6117 17.9017V4.2217C2.6117 3.1417 3.1617 2.6117 4.1917 2.6117H17.9217C18.9217 2.6117 19.5017 3.1417 19.5017 4.2217V17.9017C19.5017 18.9817 18.9217 19.5017 17.9217 19.5017ZM11.0617 16.4217C11.8917 16.4217 12.3617 15.8717 12.3617 14.9617V12.6117L15.4317 7.3717C15.5617 7.1317 15.6317 6.9017 15.6317 6.6717C15.6317 6.0217 15.1417 5.5417 14.4617 5.5417C13.8917 5.5417 13.5917 5.7617 13.2817 6.4117L11.1117 10.3217H11.0317L8.8617 6.4117C8.5417 5.7517 8.2517 5.5417 7.6617 5.5417C6.9817 5.5417 6.4817 6.0317 6.4817 6.6517C6.4817 6.8917 6.5517 7.1117 6.6817 7.3717L9.7717 12.6317V14.9617C9.7717 15.8517 10.2317 16.4217 11.0617 16.4217Z" />
        </svg>
    