
        <svg xmlns="http://www.w3.org/2000/svg" viewBox="0 0 100 100">
            <path d="M3.9717 22.1117H18.1317C20.7317 22.1117 22.1017 20.7417 22.1017 18.1717V3.9417C22.1017 1.3717 20.7317 0.0017 18.1317 0.0017H3.9717C1.3817 0.0017 0.0017 1.3717 0.0017 3.9417V18.1717C0.0017 20.7417 1.3817 22.1117 3.9717 22.1117ZM11.1017 16.6617C10.2317 16.6617 9.7417 16.0617 9.7417 15.1317V12.7117L6.5117 7.2217C6.3717 6.9617 6.3017 6.7117 6.3017 6.4717C6.3017 5.8017 6.8417 5.3017 7.5617 5.3017C8.1817 5.3017 8.4917 5.5217 8.8217 6.2117L11.0717 10.2917H11.1517L13.4017 6.2117C13.7317 5.5317 14.0517 5.3017 14.6517 5.3017C15.3717 5.3017 15.8917 5.8017 15.8917 6.4917C15.8917 6.7217 15.8317 6.9717 15.6817 7.2217L12.4817 12.7017V15.1317C12.4817 16.0917 11.9717 16.6617 11.1017 16.6617Z" />
        </svg>
    