
        <svg xmlns="http://www.w3.org/2000/svg" viewBox="0 0 100 100">
            <path d="M4.1417 22.4041H18.2717C20.9517 22.4041 22.4017 20.9541 22.4017 18.3041V4.1141C22.4017 1.4641 20.9517 0.0041 18.2717 0.0041H4.1417C1.4617 0.0041 0.0017 1.4541 0.0017 4.1141V18.3041C0.0017 20.9541 1.4617 22.4041 4.1417 22.4041ZM11.2717 16.8641C10.2617 16.8641 9.6817 16.1841 9.6817 15.0741V13.0641L6.5717 7.6641C6.4117 7.3741 6.3417 7.1041 6.3417 6.8041C6.3417 6.0341 6.9517 5.4541 7.7917 5.4541C8.5217 5.4541 8.8817 5.7141 9.2617 6.5341L11.2417 10.2841H11.3317L13.3217 6.5341C13.7017 5.7141 14.0517 5.4541 14.7617 5.4541C15.6217 5.4541 16.2217 6.0241 16.2217 6.8241C16.2217 7.1141 16.1517 7.3841 15.9817 7.6641L12.8917 13.0541V15.0741C12.8917 16.1941 12.3017 16.8641 11.2717 16.8641Z" />
        </svg>
    