
        <svg xmlns="http://www.w3.org/2000/svg" viewBox="0 0 100 100">
            <path d="M4.5917 23.2359H18.6417C21.5417 23.2359 23.2417 21.5459 23.2417 18.6459V4.5959C23.2417 1.6959 21.5417 -0.0041 18.6417 -0.0041H4.5917C1.7017 -0.0041 0.0017 1.6959 0.0017 4.5959V18.6459C0.0017 21.5459 1.7017 23.2359 4.5917 23.2359ZM5.2217 19.0759C4.5117 19.0759 4.1617 18.7859 4.1617 18.0159V5.2359C4.1617 4.4659 4.5117 4.1759 5.2217 4.1759H18.0117C18.7217 4.1759 19.0817 4.4659 19.0817 5.2359V18.0159C19.0817 18.7859 18.7217 19.0759 18.0117 19.0759ZM11.6217 16.9759C12.9417 16.9759 13.6917 16.1359 13.6917 14.6859V13.8559L16.2917 9.1059C16.4917 8.7259 16.5817 8.4159 16.5817 8.0359C16.5817 7.0359 15.8017 6.2959 14.7117 6.2959C13.7817 6.2959 13.3217 6.6559 12.8517 7.7459L11.6817 10.4159H11.5617L10.3917 7.7459C9.9417 6.6559 9.4717 6.2959 8.5417 6.2959C7.4517 6.2959 6.6817 7.0359 6.6817 8.0359C6.6817 8.4059 6.7617 8.7259 6.9617 9.1059L9.5617 13.8559V14.6859C9.5617 16.1459 10.3217 16.9759 11.6217 16.9759Z" />
        </svg>
    