
        <svg xmlns="http://www.w3.org/2000/svg" viewBox="0 0 100 100">
            <path d="M3.0117 20.5048H17.4917C19.4517 20.5048 20.5117 19.4248 20.5117 17.4948V3.0148C20.5117 1.0748 19.4517 0.0048 17.4917 0.0048H3.0117C1.0417 0.0048 0.0017 1.0448 0.0017 3.0148V17.4948C0.0017 19.4648 1.0417 20.5048 3.0117 20.5048ZM10.2517 15.4948C10.0917 15.4948 9.9517 15.3848 9.9517 15.1948V10.8348L6.2117 5.5148C6.1617 5.4648 6.1417 5.3948 6.1417 5.3248C6.1417 5.1548 6.2417 5.0348 6.4217 5.0348C6.5417 5.0348 6.6217 5.0848 6.7117 5.2048L10.2317 10.1648H10.2917L13.8017 5.2048C13.8917 5.0848 13.9717 5.0348 14.0817 5.0348C14.2617 5.0348 14.3817 5.1548 14.3817 5.3248C14.3817 5.3948 14.3417 5.4648 14.3117 5.5148L10.5617 10.8348V15.1948C10.5617 15.3848 10.4317 15.4948 10.2517 15.4948Z" />
        </svg>
    