
        <svg xmlns="http://www.w3.org/2000/svg" viewBox="0 0 100 100">
            <path d="M1.0617 25.7816H25.8017C26.3817 25.7816 26.8717 25.3016 26.8717 24.7116C26.8717 24.1416 26.3817 23.6616 25.8017 23.6616H25.1917V22.7416C25.1917 22.2316 24.8917 21.9216 24.3717 21.9216H23.6917V8.3716H24.7017C25.4217 8.3716 25.8417 7.8516 25.8417 7.3116C25.8417 6.9216 25.6217 6.5716 25.1517 6.2916L14.9717 0.4216C14.4917 0.1516 13.9717 0.0016 13.4617 0.0016C12.9617 0.0016 12.4217 0.1516 11.9517 0.4216L1.7817 6.2916C1.3017 6.5716 1.0917 6.9216 1.0917 7.3116C1.0917 7.8516 1.5117 8.3716 2.2217 8.3716H3.2417V21.9216H2.5617C2.0517 21.9216 1.7417 22.2316 1.7417 22.7416V23.6616H1.0617C0.4817 23.6616 0.0017 24.1416 0.0017 24.7116C0.0017 25.3016 0.4817 25.7816 1.0617 25.7816ZM13.4717 19.5616C12.9717 19.5616 12.6317 19.2116 12.6317 18.6916V17.1816H10.2617C10.0417 17.1816 9.8717 17.0016 9.8717 16.7916C9.8717 16.5616 10.0417 16.3816 10.2617 16.3816H12.6317V15.1616L12.6117 15.1316H10.2617C10.0417 15.1316 9.8717 14.9616 9.8717 14.7416C9.8717 14.5216 10.0417 14.3416 10.2617 14.3416H12.1917L9.2417 9.5816C9.1317 9.4016 9.0717 9.1916 9.0717 9.0116C9.0717 8.5316 9.4317 8.2116 9.9217 8.2116C10.3217 8.2116 10.5317 8.3916 10.7217 8.7316L13.4517 13.5116H13.5117L16.2517 8.7316C16.4417 8.3916 16.7117 8.2216 17.0317 8.2216C17.5117 8.2216 17.8817 8.5416 17.8817 9.0116C17.8817 9.2316 17.8217 9.3716 17.7117 9.5716L14.7517 14.3416H16.7117C16.9317 14.3416 17.1017 14.5216 17.1017 14.7416C17.1017 14.9616 16.9317 15.1316 16.7117 15.1316H14.3317L14.3217 15.1616V16.3816H16.7117C16.9317 16.3816 17.1017 16.5616 17.1017 16.7916C17.1017 17.0016 16.9317 17.1816 16.7117 17.1816H14.3217V18.6916C14.3217 19.2116 13.9817 19.5616 13.4717 19.5616Z" />
        </svg>
    