
        <svg xmlns="http://www.w3.org/2000/svg" viewBox="0 0 100 100">
            <path d="M3.1617 20.742H17.5917C19.6617 20.742 20.7417 19.642 20.7417 17.592V3.152C20.7417 1.102 19.6617 0.002 17.5917 0.002H3.1617C1.0917 0.002 0.0017 1.082 0.0017 3.152V17.592C0.0017 19.662 1.0917 20.742 3.1617 20.742ZM3.1917 19.872C1.6617 19.872 0.8717 19.082 0.8717 17.552V3.202C0.8717 1.662 1.6617 0.872 3.1917 0.872H17.5517C19.0317 0.872 19.8717 1.662 19.8717 3.202V17.552C19.8717 19.082 19.0317 19.872 17.5517 19.872ZM7.4417 12.742C7.4417 12.882 7.5617 12.992 7.7017 12.992H9.9817V15.092C9.9817 15.342 10.1517 15.502 10.3817 15.502C10.6017 15.502 10.7717 15.342 10.7717 15.092V12.992H13.1817C13.3217 12.992 13.4417 12.882 13.4417 12.742C13.4417 12.602 13.3217 12.482 13.1817 12.482H10.7717V11.152H13.1817C13.3217 11.152 13.4417 11.042 13.4417 10.902C13.4417 10.742 13.3217 10.632 13.1817 10.632H11.0617L14.1317 5.832C14.1817 5.762 14.2017 5.692 14.2017 5.602C14.2017 5.382 14.0317 5.242 13.8117 5.242C13.6617 5.242 13.5617 5.322 13.4617 5.472L10.4017 10.352H10.3517L7.3117 5.472C7.2217 5.322 7.1117 5.222 6.9417 5.222C6.7117 5.222 6.5617 5.382 6.5617 5.602C6.5617 5.682 6.6017 5.782 6.6517 5.872L9.6917 10.632H7.7017C7.5617 10.632 7.4417 10.742 7.4417 10.902C7.4417 11.042 7.5617 11.152 7.7017 11.152H9.9817V12.482H7.7017C7.5617 12.482 7.4417 12.602 7.4417 12.742Z" />
        </svg>
    