
        <svg xmlns="http://www.w3.org/2000/svg" viewBox="0 0 100 100">
            <path d="M2.0617 23.723H26.2417V22.673C26.2417 22.083 25.8717 21.743 25.2917 21.743H24.7417V8.973H25.7017C26.5517 8.973 27.0617 8.343 27.0617 7.713C27.0617 7.243 26.8017 6.823 26.2517 6.493L15.8017 0.473C15.2817 0.173 14.6917 0.003 14.1417 0.003C13.5917 0.003 13.0117 0.173 12.5017 0.473L2.0517 6.493C1.4917 6.823 1.2417 7.243 1.2417 7.713C1.2417 8.343 1.7317 8.973 2.5917 8.973H3.5617V21.743H3.0117C2.4217 21.743 2.0617 22.083 2.0617 22.673ZM5.8317 21.743V7.293L13.8317 2.813C13.9217 2.753 14.0517 2.723 14.1417 2.723C14.2517 2.723 14.3717 2.753 14.4717 2.813L22.4617 7.293V21.743ZM10.5217 16.233C10.5217 16.413 10.6717 16.583 10.8717 16.583H13.1217V17.663C13.1217 18.303 13.5317 18.713 14.1517 18.713C14.7817 18.713 15.1917 18.303 15.1917 17.663V16.583H17.4517C17.6517 16.583 17.8017 16.413 17.8017 16.233C17.8017 16.033 17.6517 15.883 17.4517 15.883H15.1917V14.743L15.2017 14.723H17.4517C17.6517 14.723 17.8017 14.563 17.8017 14.363C17.8017 14.183 17.6517 14.023 17.4517 14.023H15.6217L18.3017 9.653C18.4417 9.413 18.5317 9.223 18.5317 8.943C18.5317 8.353 18.0717 7.953 17.4817 7.953C17.0617 7.953 16.7217 8.183 16.5117 8.613L14.2017 12.853H14.1417L11.8517 8.623C11.6117 8.183 11.3117 7.953 10.8517 7.953C10.2417 7.953 9.7817 8.343 9.7817 8.953C9.7817 9.203 9.8717 9.443 10.0117 9.663L12.6817 14.023H10.8717C10.6717 14.023 10.5217 14.183 10.5217 14.363C10.5217 14.563 10.6717 14.723 10.8717 14.723H13.1117L13.1217 14.743V15.883H10.8717C10.6717 15.883 10.5217 16.033 10.5217 16.233ZM1.2817 27.163H26.8317C27.5117 27.163 28.1117 26.603 28.1117 25.883C28.1117 25.193 27.5117 24.623 26.8317 24.623H1.2817C0.5817 24.623 0.0017 25.193 0.0017 25.883C0.0017 26.593 0.5817 27.163 1.2817 27.163Z" />
        </svg>
    