
        <svg xmlns="http://www.w3.org/2000/svg" viewBox="0 0 100 100">
            <path d="M3.6817 21.5722H17.8917C20.3517 21.5722 21.5717 20.3722 21.5717 17.9522V3.6322C21.5717 1.2222 20.3517 0.0022 17.8917 0.0022H3.6817C1.2317 0.0022 0.0017 1.2222 0.0017 3.6322V17.9522C0.0017 20.3722 1.2317 21.5722 3.6817 21.5722ZM3.7017 19.6922C2.5317 19.6922 1.8917 19.0622 1.8917 17.8522V3.7422C1.8917 2.5222 2.5317 1.8822 3.7017 1.8822H17.8717C19.0317 1.8822 19.6917 2.5222 19.6917 3.7422V17.8522C19.6917 19.0622 19.0317 19.6922 17.8717 19.6922ZM7.4317 13.5022C7.4317 13.7222 7.6017 13.9022 7.8317 13.9022H10.1117V15.5722C10.1117 15.9922 10.3917 16.2822 10.7917 16.2822C11.2017 16.2822 11.4717 15.9922 11.4717 15.5722V13.9022H13.7917C14.0117 13.9022 14.1917 13.7222 14.1917 13.5022C14.1917 13.2822 14.0117 13.1022 13.7917 13.1022H11.4717V11.8722H13.7917C14.0117 11.8722 14.1917 11.6922 14.1917 11.4722C14.1917 11.2422 14.0117 11.0722 13.7917 11.0722H11.8917L14.8117 6.3622C14.9217 6.1922 14.9517 6.1022 14.9517 5.9022C14.9517 5.5422 14.6617 5.2922 14.2817 5.2922C14.0317 5.2922 13.8117 5.4222 13.6617 5.6722L10.8317 10.5022H10.7817L7.9317 5.6722C7.7917 5.4222 7.6217 5.2822 7.3117 5.2822C6.9417 5.2822 6.6317 5.5322 6.6317 5.9022C6.6317 6.0422 6.6817 6.2022 6.7817 6.3622L9.7017 11.0722H7.8317C7.6017 11.0722 7.4317 11.2422 7.4317 11.4722C7.4317 11.6922 7.6017 11.8722 7.8317 11.8722H10.1117V13.1022H7.8317C7.6017 13.1022 7.4317 13.2822 7.4317 13.5022Z" />
        </svg>
    