
        <svg xmlns="http://www.w3.org/2000/svg" viewBox="0 0 100 100">
            <path d="M4.1417 22.4041H18.2717C20.9517 22.4041 22.4017 20.9541 22.4017 18.3041V4.1141C22.4017 1.4641 20.9517 0.0041 18.2717 0.0041H4.1417C1.4617 0.0041 0.0017 1.4541 0.0017 4.1141V18.3041C0.0017 20.9541 1.4617 22.4041 4.1417 22.4041ZM11.2817 16.8741C10.6217 16.8741 10.1817 16.4341 10.1817 15.7541V14.6241H7.8017C7.6017 14.6241 7.4417 14.4641 7.4417 14.2641C7.4417 14.0541 7.6017 13.8841 7.8017 13.8841H10.1817V12.7641L10.1217 12.6641H7.8017C7.6017 12.6641 7.4417 12.5041 7.4417 12.3041C7.4417 12.0941 7.6017 11.9341 7.8017 11.9341H9.7117L6.8917 7.3641C6.7517 7.1141 6.6717 6.8541 6.6717 6.5941C6.6717 5.9441 7.1517 5.5241 7.8017 5.5241C8.3417 5.5241 8.6117 5.7641 8.8617 6.2341L11.2717 10.6741H11.3217L13.7417 6.2341C13.9817 5.7541 14.3317 5.5341 14.7817 5.5341C15.4117 5.5341 15.8917 5.9441 15.8917 6.5741C15.8917 6.8641 15.8117 7.0941 15.6517 7.3441L12.8317 11.9341H14.7617C14.9717 11.9341 15.1317 12.0941 15.1317 12.3041C15.1317 12.5041 14.9717 12.6641 14.7617 12.6641H12.4317L12.3717 12.7641V13.8841H14.7617C14.9717 13.8841 15.1317 14.0541 15.1317 14.2641C15.1317 14.4641 14.9717 14.6241 14.7617 14.6241H12.3717V15.7541C12.3717 16.4341 11.9417 16.8741 11.2817 16.8741Z" />
        </svg>
    