
        <svg xmlns="http://www.w3.org/2000/svg" viewBox="0 0 100 100">
            <path d="M3.7494 -0.0016C1.5194 -0.0016 -0.0006 1.7484 -0.0006 3.7484C-0.0006 4.3684 0.1594 5.0184 0.4894 5.5984L9.4794 21.3384C10.1994 22.5784 11.4594 23.2184 12.7294 23.2184C13.9894 23.2184 15.2194 22.5984 15.9494 21.3384L24.9494 5.6084C25.2894 5.0184 25.4394 4.3684 25.4394 3.7484C25.4394 1.7484 23.9194 -0.0016 21.6994 -0.0016ZM4.5594 3.3984H20.8994C21.3494 3.3984 21.6694 3.7684 21.6694 4.1984C21.6694 4.3084 21.6494 4.4684 21.5694 4.6084L13.3794 19.0584C13.2394 19.2984 12.9694 19.4084 12.7294 19.4084C12.4694 19.4084 12.1994 19.3084 12.0594 19.0684L3.8794 4.6284C3.8094 4.4884 3.7894 4.3284 3.7894 4.1984C3.7894 3.7684 4.0894 3.3984 4.5594 3.3984ZM7.4194 5.2884C6.9594 5.2884 6.6794 5.7584 6.8994 6.1484L12.2094 15.5084C12.4494 15.9284 12.9894 15.9284 13.2194 15.5084L18.5294 6.1484C18.7594 5.7584 18.4794 5.2884 18.0194 5.2884Z" />
        </svg>
    