
        <svg xmlns="http://www.w3.org/2000/svg" viewBox="0 0 100 100">
            <path d="M2.9494 0.0023C1.0994 0.0023 -0.0006 1.2923 -0.0006 2.9223C-0.0006 3.4523 0.1394 4.0123 0.4494 4.5323L9.6794 20.7223C10.2394 21.6923 11.2194 22.1723 12.1894 22.1723C13.1694 22.1723 14.1294 21.6923 14.6994 20.7223L23.9294 4.5323C24.2194 4.0123 24.3794 3.4523 24.3794 2.9223C24.3794 1.2923 23.2694 0.0023 21.4294 0.0023ZM4.0894 2.9423H20.2894C20.7794 2.9423 21.0694 3.4223 20.8094 3.9023L12.7394 18.0923C12.4694 18.5523 11.8994 18.5523 11.6494 18.0923L3.5594 3.9023C3.2894 3.4123 3.5894 2.9423 4.0894 2.9423Z" />
        </svg>
    