
        <svg xmlns="http://www.w3.org/2000/svg" viewBox="0 0 100 100">
            <path d="M12.1023 24.2064C18.7823 24.2064 24.2123 18.7864 24.2123 12.1064C24.2123 5.4264 18.7823 -0.0036 12.1023 -0.0036C5.4223 -0.0036 0.0023 5.4264 0.0023 12.1064C0.0023 18.7864 5.4223 24.2064 12.1023 24.2064ZM8.7423 17.5264C8.1123 17.5264 7.6923 17.1164 7.6923 16.5364C7.6923 16.1864 7.7923 15.9464 8.1023 15.5264L13.2923 8.5064V8.3864H8.6123C8.0123 8.3864 7.6023 8.0364 7.6023 7.4564C7.6023 6.8664 8.0023 6.5064 8.6123 6.5064H15.1623C15.7923 6.5064 16.2423 6.9364 16.2423 7.5364C16.2423 7.9064 16.1623 8.1064 15.8523 8.4964L10.6723 15.5364V15.6464H15.6223C16.2223 15.6464 16.6323 15.9864 16.6323 16.5864C16.6323 17.1564 16.2223 17.5264 15.6223 17.5264Z" />
        </svg>
    