
        <svg xmlns="http://www.w3.org/2000/svg" viewBox="0 0 100 100">
            <path d="M3.4617 21.2264H17.7617C20.0517 21.2264 21.2217 20.0464 21.2217 17.7964V3.4264C21.2217 1.1764 20.0517 -0.0036 17.7617 -0.0036H3.4617C1.1717 -0.0036 0.0017 1.1564 0.0017 3.4264V17.7964C0.0017 20.0664 1.1717 21.2264 3.4617 21.2264ZM3.4817 19.7664C2.1717 19.7664 1.4517 19.0764 1.4517 17.7164V3.5064C1.4517 2.1464 2.1717 1.4564 3.4817 1.4564H17.7317C19.0317 1.4564 19.7717 2.1464 19.7717 3.5064V17.7164C19.7717 19.0764 19.0317 19.7664 17.7317 19.7664ZM7.2617 15.8164H14.1117C14.4617 15.8164 14.7217 15.5764 14.7217 15.2064C14.7217 14.8364 14.4617 14.6064 14.1117 14.6064H8.4117V14.5164L14.1417 6.6064C14.3417 6.3364 14.3917 6.1964 14.3917 5.9664C14.3917 5.5564 14.0817 5.2664 13.6517 5.2664H7.1617C6.8017 5.2664 6.5417 5.4964 6.5417 5.8664C6.5417 6.2364 6.8017 6.4664 7.1617 6.4664H12.5617V6.5664L6.8117 14.4564C6.6017 14.7764 6.5417 14.9064 6.5417 15.1364C6.5417 15.5364 6.8317 15.8164 7.2617 15.8164Z" />
        </svg>
    