
        <svg xmlns="http://www.w3.org/2000/svg" viewBox="0 0 100 100">
            <path d="M3.1617 20.742H17.5917C19.6617 20.742 20.7417 19.642 20.7417 17.592V3.152C20.7417 1.102 19.6617 0.002 17.5917 0.002H3.1617C1.0917 0.002 0.0017 1.082 0.0017 3.152V17.592C0.0017 19.662 1.0917 20.742 3.1617 20.742ZM7.0317 15.602C6.7017 15.602 6.4717 15.372 6.4717 15.082C6.4717 14.882 6.5117 14.782 6.6817 14.542L12.9217 6.002V5.932H6.9117C6.6817 5.932 6.5117 5.762 6.5117 5.532C6.5117 5.292 6.6817 5.122 6.9117 5.122H13.4517C13.7917 5.122 14.0317 5.352 14.0317 5.662C14.0317 5.862 13.9817 5.962 13.8117 6.192L7.6017 14.722V14.792H13.8917C14.1317 14.792 14.3017 14.952 14.3017 15.192C14.3017 15.422 14.1317 15.602 13.8917 15.602Z" />
        </svg>
    