
        <svg xmlns="http://www.w3.org/2000/svg" viewBox="0 0 100 100">
            <path d="M4.3817 22.8467H18.4717C21.2617 22.8467 22.8517 21.2667 22.8517 18.4767V4.3667C22.8517 1.5867 21.2617 -0.0033 18.4717 -0.0033H4.3817C1.5917 -0.0033 0.0017 1.5867 0.0017 4.3667V18.4767C0.0017 21.2667 1.5917 22.8467 4.3817 22.8467ZM8.5417 16.9367C7.5817 16.9367 6.9117 16.2967 6.9117 15.3867C6.9117 14.7867 7.1017 14.3467 7.6017 13.7667L11.6017 8.8667V8.7467H8.3217C7.3117 8.7467 6.6817 8.2067 6.6817 7.3167C6.6817 6.4067 7.2917 5.8967 8.3217 5.8967H14.4017C15.3717 5.8967 16.0417 6.5267 16.0417 7.4367C16.0417 8.1067 15.9117 8.4367 15.3517 9.0467L11.3417 13.9467V14.0867H14.7617C15.7817 14.0867 16.3917 14.5967 16.3917 15.4967C16.3917 16.3867 15.7617 16.9367 14.7617 16.9367Z" />
        </svg>
    