
        <svg xmlns="http://www.w3.org/2000/svg" viewBox="0 0 100 100">
            <path d="M9.8317 -0.0003C3.0317 -0.0003 0.0017 3.1297 0.0017 9.5297V16.8797C0.0017 19.2397 1.2217 20.4397 3.6017 20.4397H23.4417C25.8117 20.4397 27.0317 19.2297 27.0317 16.8797V9.5297C27.0317 3.1297 24.0017 -0.0003 17.2017 -0.0003ZM9.8317 1.8897H17.1917C22.7317 1.8897 25.1517 4.2897 25.1517 9.3997V16.7797C25.1517 17.9497 24.5117 18.5497 23.3917 18.5497H3.6417C2.4917 18.5497 1.8917 17.9497 1.8917 16.7797V9.3997C1.8917 4.2897 4.3017 1.8897 9.8317 1.8897ZM15.7217 14.9797H19.0917C19.4917 14.9797 19.8017 14.6497 19.8017 14.2597C19.8017 13.8797 19.4917 13.5497 19.0917 13.5497H16.5817V6.1997C16.5817 5.7297 16.1917 5.3397 15.7417 5.3397C15.2817 5.3397 14.8917 5.7297 14.8917 6.1997V14.0897C14.8917 14.6397 15.1917 14.9797 15.7217 14.9797ZM8.4717 15.0097H12.6717C13.0517 15.0097 13.3817 14.6797 13.3817 14.2997C13.3817 13.9097 13.0517 13.5797 12.6717 13.5797H9.5317V13.5097L13.0317 7.0297C13.1517 6.8097 13.2317 6.6197 13.2317 6.3397C13.2317 5.8497 12.8917 5.5097 12.3717 5.5097H8.3317C7.9417 5.5097 7.6217 5.8397 7.6217 6.2197C7.6217 6.6097 7.9417 6.9397 8.3317 6.9397H11.3417V7.0097L7.8017 13.4997C7.6617 13.7497 7.6217 13.9297 7.6217 14.1997C7.6217 14.7197 7.9717 15.0097 8.4717 15.0097Z" />
        </svg>
    