
        <svg xmlns="http://www.w3.org/2000/svg" viewBox="0 0 100 100">
            <path d="M8.4117 -0.002C2.3217 -0.002 0.0017 2.898 0.0017 8.418V16.028C0.0017 17.898 1.0117 18.918 2.8717 18.918H22.2517C24.1017 18.918 25.1217 17.868 25.1217 16.028V8.418C25.1217 2.898 22.8017 -0.002 16.7117 -0.002ZM8.4417 0.578H16.6917C22.4317 0.578 24.5517 3.268 24.5517 8.448V16.008C24.5517 17.538 23.7117 18.338 22.2217 18.338H2.9017C1.3617 18.338 0.5717 17.538 0.5717 16.008V8.448C0.5717 3.268 2.6917 0.578 8.4417 0.578ZM14.4517 14.218H18.0617C18.2217 14.218 18.3617 14.058 18.3617 13.888C18.3617 13.738 18.2217 13.578 18.0617 13.578H14.8017V4.948C14.8017 4.768 14.6417 4.608 14.4617 4.608C14.2717 4.608 14.1117 4.768 14.1117 4.948V13.848C14.1117 14.058 14.2617 14.218 14.4517 14.218ZM7.5117 14.218H12.0517C12.2117 14.218 12.3617 14.058 12.3617 13.888C12.3617 13.738 12.2117 13.578 12.0517 13.578H7.9417V13.528L12.1617 5.448C12.2217 5.328 12.2817 5.188 12.2817 5.078C12.2817 4.878 12.1417 4.708 11.9017 4.708H7.5317C7.3617 4.708 7.2117 4.868 7.2117 5.018C7.2117 5.188 7.3617 5.348 7.5317 5.348H11.4917V5.398L7.2517 13.488C7.1817 13.638 7.1517 13.708 7.1517 13.838C7.1517 14.058 7.2917 14.218 7.5117 14.218Z" />
        </svg>
    