
        <svg xmlns="http://www.w3.org/2000/svg" viewBox="0 0 100 100">
            <path d="M10.0617 -0.0025C2.9017 -0.0025 0.0017 2.9875 0.0017 10.3075V17.8875C0.0017 20.7775 1.7017 22.4775 4.5917 22.4775H23.9717C26.8717 22.4775 28.5717 20.7775 28.5717 17.8875V10.3075C28.5717 2.9875 25.6617 -0.0025 18.5017 -0.0025ZM10.2917 4.1675H18.2817C22.6317 4.1675 24.4117 5.9675 24.4117 10.3875V17.2375C24.4117 17.9175 24.0117 18.3175 23.3417 18.3175H5.2217C4.5517 18.3175 4.1617 17.9175 4.1617 17.2375V10.3875C4.1617 5.9675 5.9317 4.1675 10.2917 4.1675ZM9.2317 15.5875H12.4817C13.0217 15.5875 13.3517 15.2475 13.3517 14.6875C13.3517 14.0275 12.9217 13.7675 12.4817 13.7675H10.5517V13.6975L12.9917 8.8075C13.0817 8.6175 13.2217 8.2975 13.2217 7.9375C13.2217 7.2775 12.7217 6.8675 12.1017 6.8675H9.0617C8.5417 6.8675 8.0617 7.1575 8.0617 7.7975C8.0617 8.2975 8.4017 8.6975 9.0617 8.6975H10.7817V8.7575L8.3217 13.6975C8.1917 13.9675 8.1317 14.2875 8.1317 14.5775C8.1317 15.1975 8.5617 15.5875 9.2317 15.5875ZM15.5717 15.7475C16.3117 15.7475 16.7017 15.2975 16.7017 14.5575V12.5475H17.1017L17.7917 14.7675C17.9917 15.4375 18.3717 15.7475 18.9517 15.7475C19.5817 15.7475 20.0517 15.2775 20.0117 14.6175C20.0017 14.3775 19.9717 14.2375 19.8917 14.0275L19.1917 12.0775C19.8717 11.5775 20.1317 10.6175 20.1317 9.7575C20.1317 7.8275 19.0617 6.8775 17.2417 6.8775H15.5717C14.8217 6.8775 14.4417 7.3275 14.4417 8.0875V14.5575C14.4417 15.3075 14.8217 15.7475 15.5717 15.7475ZM16.7017 11.0175V8.5875H17.0417C17.5917 8.5875 17.8117 9.2575 17.8117 9.8075C17.8117 10.3975 17.6017 11.0175 17.0317 11.0175Z" />
        </svg>
    