
        <svg xmlns="http://www.w3.org/2000/svg" viewBox="0 0 100 100">
            <path d="M1.8738 13.0622H9.3138C10.2538 13.0622 10.8938 12.4822 10.8938 11.5522C10.8938 10.6422 10.2538 10.0622 9.3138 10.0622H4.4838V10.0122L10.0738 3.3022C10.5838 2.7222 10.7538 2.2722 10.7538 1.7322C10.7538 0.6522 9.9838 0.0022 8.8138 0.0022H1.5838C0.6338 0.0022 0.0038 0.5822 0.0038 1.4922C0.0038 2.4122 0.6338 3.0022 1.5838 3.0022H6.3837V3.0622L0.6137 9.9922C0.2338 10.4422 0.0938 10.8322 0.0938 11.3822C0.0938 12.3622 0.8338 13.0622 1.8738 13.0622ZM14.9538 19.4722H20.8337C21.7738 19.4722 22.3938 18.8922 22.3938 17.9922C22.3938 17.1122 21.7638 16.5322 20.8337 16.5322H17.4538V16.4722L21.5038 11.6322C22.0338 11.0022 22.2438 10.5822 22.2438 10.0322C22.2438 8.9922 21.5038 8.3422 20.3638 8.3422H14.6638C13.7338 8.3422 13.1138 8.9022 13.1138 9.8122C13.1138 10.7122 13.7338 11.2722 14.6638 11.2722H18.0438V11.3322L13.8138 16.4022C13.3838 16.9122 13.2238 17.2922 13.2238 17.8222C13.2238 18.7922 13.9338 19.4722 14.9538 19.4722ZM5.3238 26.0622H10.0438C10.9238 26.0622 11.5038 25.5022 11.5038 24.6422C11.5038 23.7922 10.9238 23.2522 10.0438 23.2522H7.7238V23.1922L10.6838 19.6322C11.1638 19.0322 11.3837 18.5822 11.3837 18.0422C11.3837 17.1022 10.7137 16.5122 9.6938 16.5122H5.0138C4.1338 16.5122 3.5538 17.0522 3.5538 17.9022C3.5538 18.7622 4.1338 19.3122 5.0138 19.3122H7.3837V19.3722L4.2338 23.1422C3.8038 23.6522 3.6638 23.9922 3.6638 24.5022C3.6638 25.4022 4.3737 26.0622 5.3238 26.0622Z" />
        </svg>
    